<?xml version="1.0" encoding="UTF-8"?>
<svg xmlns="http://www.w3.org/2000/svg" width="1280" height="720" viewBox="0 0 1280 720">
<rect width="100%" height="100%" fill="#ffffff"/>
<text x="640" y="30" text-anchor="middle" font-size="22" font-family="sans-serif">Roast passed files history</text>
<line x1="90" y1="600" x2="1180" y2="600" stroke="#333" stroke-width="1.5"/>
<line x1="90" y1="50" x2="90" y2="600" stroke="#333" stroke-width="1.5"/>
<line x1="90" y1="600.00" x2="1180" y2="600.00" stroke="#e5e7eb" stroke-width="1"/>
<text x="78" y="605.00" text-anchor="end" font-size="12" fill="#111" font-family="sans-serif">0</text>
<line x1="90" y1="397.79" x2="1180" y2="397.79" stroke="#e5e7eb" stroke-width="1"/>
<text x="78" y="402.79" text-anchor="end" font-size="12" fill="#111" font-family="sans-serif">500</text>
<line x1="90" y1="195.59" x2="1180" y2="195.59" stroke="#e5e7eb" stroke-width="1"/>
<text x="78" y="200.59" text-anchor="end" font-size="12" fill="#111" font-family="sans-serif">1000</text>
<line x1="90.00" y1="600" x2="90.00" y2="606" stroke="#333" stroke-width="1"/>
<text x="90.00" y="624" text-anchor="end" font-size="11" fill="#111" transform="rotate(-40 90.00,624)" font-family="sans-serif">2026-02-12</text>
<line x1="225.62" y1="600" x2="225.62" y2="606" stroke="#333" stroke-width="1"/>
<text x="225.62" y="624" text-anchor="end" font-size="11" fill="#111" transform="rotate(-40 225.62,624)" font-family="sans-serif">2026-02-17</text>
<line x1="361.24" y1="600" x2="361.24" y2="606" stroke="#333" stroke-width="1"/>
<text x="361.24" y="624" text-anchor="end" font-size="11" fill="#111" transform="rotate(-40 361.24,624)" font-family="sans-serif">2026-02-18</text>
<line x1="496.87" y1="600" x2="496.87" y2="606" stroke="#333" stroke-width="1"/>
<text x="496.87" y="624" text-anchor="end" font-size="11" fill="#111" transform="rotate(-40 496.87,624)" font-family="sans-serif">2026-02-20</text>
<line x1="632.49" y1="600" x2="632.49" y2="606" stroke="#333" stroke-width="1"/>
<text x="632.49" y="624" text-anchor="end" font-size="11" fill="#111" transform="rotate(-40 632.49,624)" font-family="sans-serif">2026-02-24</text>
<line x1="768.11" y1="600" x2="768.11" y2="606" stroke="#333" stroke-width="1"/>
<text x="768.11" y="624" text-anchor="end" font-size="11" fill="#111" transform="rotate(-40 768.11,624)" font-family="sans-serif">2026-02-25</text>
<line x1="903.73" y1="600" x2="903.73" y2="606" stroke="#333" stroke-width="1"/>
<text x="903.73" y="624" text-anchor="end" font-size="11" fill="#111" transform="rotate(-40 903.73,624)" font-family="sans-serif">2026-02-27</text>
<line x1="1039.35" y1="600" x2="1039.35" y2="606" stroke="#333" stroke-width="1"/>
<text x="1039.35" y="624" text-anchor="end" font-size="11" fill="#111" transform="rotate(-40 1039.35,624)" font-family="sans-serif">2026-02-28</text>
<line x1="1174.98" y1="600" x2="1174.98" y2="606" stroke="#333" stroke-width="1"/>
<text x="1174.98" y="624" text-anchor="end" font-size="11" fill="#111" transform="rotate(-40 1174.98,624)" font-family="sans-serif">2026-03-04</text>
<line x1="1180.00" y1="600" x2="1180.00" y2="606" stroke="#333" stroke-width="1"/>
<text x="1180.00" y="624" text-anchor="end" font-size="11" fill="#111" transform="rotate(-40 1180.00,624)" font-family="sans-serif">2026-03-04</text>
<line x1="90" y1="75.88" x2="1180" y2="75.88" stroke="#dc2626" stroke-width="1.5" stroke-dasharray="8,4"/>
<text x="1184" y="79.88" font-size="12" fill="#dc2626" font-family="sans-serif">Goal: 1296</text>
<polyline fill="none" stroke="#2563eb" stroke-width="3" points="90.00,540.55 95.02,538.53 100.05,536.91 105.07,534.49 110.09,534.49 115.12,533.27 120.14,532.46 125.16,532.87 130.18,532.06 135.21,532.46 140.23,532.06 145.25,568.46 150.28,568.46 155.30,566.43 160.32,545.00 165.35,545.00 170.37,544.19 175.39,543.79 180.41,543.79 185.44,543.38 190.46,541.76 195.48,541.36 200.51,540.96 205.53,540.96 210.55,539.34 215.58,539.34 220.60,556.73 225.62,556.73 230.65,555.51 235.67,551.07 240.69,538.93 245.71,538.93 250.74,538.93 255.76,538.12 260.78,536.91 265.81,536.91 270.83,536.51 275.85,536.51 280.88,556.73 285.90,556.73 290.92,556.73 295.94,556.73 300.97,535.29 305.99,535.29 311.01,535.29 316.04,535.29 321.06,534.49 326.08,534.08 331.11,533.68 336.13,532.87 341.15,532.06 346.18,532.06 351.20,531.25 356.22,530.85 361.24,530.44 366.27,530.04 371.29,530.04 376.31,529.23 381.34,529.23 386.36,529.23 391.38,528.42 396.41,528.42 401.43,527.61 406.45,527.21 411.47,526.80 416.50,526.40 421.52,525.18 426.54,523.57 431.57,523.57 436.59,523.16 441.61,522.76 446.64,522.35 451.66,521.54 456.68,519.52 461.71,517.50 466.73,517.50 471.75,517.50 476.77,517.50 481.80,517.50 486.82,517.50 491.84,517.10 496.87,516.69 501.89,515.48 506.91,515.07 511.94,514.67 516.96,513.86 521.98,514.26 527.00,512.24 532.03,511.84 537.05,511.84 542.07,511.03 547.10,509.82 552.12,507.79 557.14,506.99 562.17,506.58 567.19,509.41 572.21,509.01 577.24,504.96 582.26,504.56 587.28,504.15 592.30,504.56 597.33,503.75 602.35,503.75 607.37,503.35 612.40,499.30 617.42,496.47 622.44,490.00 627.47,484.34 632.49,481.10 637.51,480.29 642.53,480.70 647.56,460.88 652.58,459.26 657.60,458.05 662.63,456.03 667.65,456.03 672.67,454.41 677.70,450.77 682.72,444.30 687.74,443.90 692.76,600.00 697.79,441.88 702.81,440.66 707.83,439.45 712.86,439.04 717.88,438.64 722.90,437.83 727.93,436.62 732.95,436.62 737.97,434.60 743.00,432.17 748.02,429.34 753.04,428.93 758.06,428.53 763.09,427.72 768.11,426.91 773.13,426.10 778.16,426.10 783.18,426.10 788.20,419.63 793.23,419.23 798.25,418.42 803.27,418.01 808.29,417.61 813.32,417.61 818.34,417.61 823.36,417.21 828.39,417.21 833.41,413.57 838.43,411.95 843.46,412.76 848.48,410.74 853.50,410.74 858.53,410.33 863.55,410.33 868.57,410.33 873.59,409.93 878.62,409.93 883.64,409.93 888.66,409.52 893.69,409.52 898.71,409.12 903.73,409.52 908.76,409.12 913.78,407.50 918.80,407.10 923.82,403.05 928.85,399.82 933.87,400.22 938.89,400.62 943.92,400.62 948.94,399.41 953.96,392.94 958.99,391.32 964.01,389.30 969.03,389.30 974.06,388.49 979.08,375.15 984.10,374.74 989.12,374.74 994.15,374.74 999.17,374.74 1004.19,374.34 1009.22,374.34 1014.24,374.34 1019.26,374.34 1024.29,374.34 1029.31,373.93 1034.33,373.12 1039.35,372.72 1044.38,373.53 1049.40,435.81 1054.42,372.32 1059.45,372.72 1064.47,371.91 1069.49,371.91 1074.52,372.32 1079.54,371.10 1084.56,369.89 1089.59,369.89 1094.61,369.89 1099.63,369.49 1104.65,369.89 1109.68,369.08 1114.70,368.68 1119.72,368.27 1124.75,367.87 1129.77,367.06 1134.79,367.46 1139.82,367.06 1144.84,366.25 1149.86,368.27 1154.88,368.68 1159.91,368.68 1164.93,368.27 1169.95,369.08 1174.98,367.87 1180.00,367.46"/>
<circle cx="90.00" cy="540.55" r="3.2" fill="#1d4ed8"/>
<circle cx="95.02" cy="538.53" r="3.2" fill="#1d4ed8"/>
<circle cx="100.05" cy="536.91" r="3.2" fill="#1d4ed8"/>
<circle cx="105.07" cy="534.49" r="3.2" fill="#1d4ed8"/>
<circle cx="110.09" cy="534.49" r="3.2" fill="#1d4ed8"/>
<circle cx="115.12" cy="533.27" r="3.2" fill="#1d4ed8"/>
<circle cx="120.14" cy="532.46" r="3.2" fill="#1d4ed8"/>
<circle cx="125.16" cy="532.87" r="3.2" fill="#1d4ed8"/>
<circle cx="130.18" cy="532.06" r="3.2" fill="#1d4ed8"/>
<circle cx="135.21" cy="532.46" r="3.2" fill="#1d4ed8"/>
<circle cx="140.23" cy="532.06" r="3.2" fill="#1d4ed8"/>
<circle cx="145.25" cy="568.46" r="3.2" fill="#1d4ed8"/>
<circle cx="150.28" cy="568.46" r="3.2" fill="#1d4ed8"/>
<circle cx="155.30" cy="566.43" r="3.2" fill="#1d4ed8"/>
<circle cx="160.32" cy="545.00" r="3.2" fill="#1d4ed8"/>
<circle cx="165.35" cy="545.00" r="3.2" fill="#1d4ed8"/>
<circle cx="170.37" cy="544.19" r="3.2" fill="#1d4ed8"/>
<circle cx="175.39" cy="543.79" r="3.2" fill="#1d4ed8"/>
<circle cx="180.41" cy="543.79" r="3.2" fill="#1d4ed8"/>
<circle cx="185.44" cy="543.38" r="3.2" fill="#1d4ed8"/>
<circle cx="190.46" cy="541.76" r="3.2" fill="#1d4ed8"/>
<circle cx="195.48" cy="541.36" r="3.2" fill="#1d4ed8"/>
<circle cx="200.51" cy="540.96" r="3.2" fill="#1d4ed8"/>
<circle cx="205.53" cy="540.96" r="3.2" fill="#1d4ed8"/>
<circle cx="210.55" cy="539.34" r="3.2" fill="#1d4ed8"/>
<circle cx="215.58" cy="539.34" r="3.2" fill="#1d4ed8"/>
<circle cx="220.60" cy="556.73" r="3.2" fill="#1d4ed8"/>
<circle cx="225.62" cy="556.73" r="3.2" fill="#1d4ed8"/>
<circle cx="230.65" cy="555.51" r="3.2" fill="#1d4ed8"/>
<circle cx="235.67" cy="551.07" r="3.2" fill="#1d4ed8"/>
<circle cx="240.69" cy="538.93" r="3.2" fill="#1d4ed8"/>
<circle cx="245.71" cy="538.93" r="3.2" fill="#1d4ed8"/>
<circle cx="250.74" cy="538.93" r="3.2" fill="#1d4ed8"/>
<circle cx="255.76" cy="538.12" r="3.2" fill="#1d4ed8"/>
<circle cx="260.78" cy="536.91" r="3.2" fill="#1d4ed8"/>
<circle cx="265.81" cy="536.91" r="3.2" fill="#1d4ed8"/>
<circle cx="270.83" cy="536.51" r="3.2" fill="#1d4ed8"/>
<circle cx="275.85" cy="536.51" r="3.2" fill="#1d4ed8"/>
<circle cx="280.88" cy="556.73" r="3.2" fill="#1d4ed8"/>
<circle cx="285.90" cy="556.73" r="3.2" fill="#1d4ed8"/>
<circle cx="290.92" cy="556.73" r="3.2" fill="#1d4ed8"/>
<circle cx="295.94" cy="556.73" r="3.2" fill="#1d4ed8"/>
<circle cx="300.97" cy="535.29" r="3.2" fill="#1d4ed8"/>
<circle cx="305.99" cy="535.29" r="3.2" fill="#1d4ed8"/>
<circle cx="311.01" cy="535.29" r="3.2" fill="#1d4ed8"/>
<circle cx="316.04" cy="535.29" r="3.2" fill="#1d4ed8"/>
<circle cx="321.06" cy="534.49" r="3.2" fill="#1d4ed8"/>
<circle cx="326.08" cy="534.08" r="3.2" fill="#1d4ed8"/>
<circle cx="331.11" cy="533.68" r="3.2" fill="#1d4ed8"/>
<circle cx="336.13" cy="532.87" r="3.2" fill="#1d4ed8"/>
<circle cx="341.15" cy="532.06" r="3.2" fill="#1d4ed8"/>
<circle cx="346.18" cy="532.06" r="3.2" fill="#1d4ed8"/>
<circle cx="351.20" cy="531.25" r="3.2" fill="#1d4ed8"/>
<circle cx="356.22" cy="530.85" r="3.2" fill="#1d4ed8"/>
<circle cx="361.24" cy="530.44" r="3.2" fill="#1d4ed8"/>
<circle cx="366.27" cy="530.04" r="3.2" fill="#1d4ed8"/>
<circle cx="371.29" cy="530.04" r="3.2" fill="#1d4ed8"/>
<circle cx="376.31" cy="529.23" r="3.2" fill="#1d4ed8"/>
<circle cx="381.34" cy="529.23" r="3.2" fill="#1d4ed8"/>
<circle cx="386.36" cy="529.23" r="3.2" fill="#1d4ed8"/>
<circle cx="391.38" cy="528.42" r="3.2" fill="#1d4ed8"/>
<circle cx="396.41" cy="528.42" r="3.2" fill="#1d4ed8"/>
<circle cx="401.43" cy="527.61" r="3.2" fill="#1d4ed8"/>
<circle cx="406.45" cy="527.21" r="3.2" fill="#1d4ed8"/>
<circle cx="411.47" cy="526.80" r="3.2" fill="#1d4ed8"/>
<circle cx="416.50" cy="526.40" r="3.2" fill="#1d4ed8"/>
<circle cx="421.52" cy="525.18" r="3.2" fill="#1d4ed8"/>
<circle cx="426.54" cy="523.57" r="3.2" fill="#1d4ed8"/>
<circle cx="431.57" cy="523.57" r="3.2" fill="#1d4ed8"/>
<circle cx="436.59" cy="523.16" r="3.2" fill="#1d4ed8"/>
<circle cx="441.61" cy="522.76" r="3.2" fill="#1d4ed8"/>
<circle cx="446.64" cy="522.35" r="3.2" fill="#1d4ed8"/>
<circle cx="451.66" cy="521.54" r="3.2" fill="#1d4ed8"/>
<circle cx="456.68" cy="519.52" r="3.2" fill="#1d4ed8"/>
<circle cx="461.71" cy="517.50" r="3.2" fill="#1d4ed8"/>
<circle cx="466.73" cy="517.50" r="3.2" fill="#1d4ed8"/>
<circle cx="471.75" cy="517.50" r="3.2" fill="#1d4ed8"/>
<circle cx="476.77" cy="517.50" r="3.2" fill="#1d4ed8"/>
<circle cx="481.80" cy="517.50" r="3.2" fill="#1d4ed8"/>
<circle cx="486.82" cy="517.50" r="3.2" fill="#1d4ed8"/>
<circle cx="491.84" cy="517.10" r="3.2" fill="#1d4ed8"/>
<circle cx="496.87" cy="516.69" r="3.2" fill="#1d4ed8"/>
<circle cx="501.89" cy="515.48" r="3.2" fill="#1d4ed8"/>
<circle cx="506.91" cy="515.07" r="3.2" fill="#1d4ed8"/>
<circle cx="511.94" cy="514.67" r="3.2" fill="#1d4ed8"/>
<circle cx="516.96" cy="513.86" r="3.2" fill="#1d4ed8"/>
<circle cx="521.98" cy="514.26" r="3.2" fill="#1d4ed8"/>
<circle cx="527.00" cy="512.24" r="3.2" fill="#1d4ed8"/>
<circle cx="532.03" cy="511.84" r="3.2" fill="#1d4ed8"/>
<circle cx="537.05" cy="511.84" r="3.2" fill="#1d4ed8"/>
<circle cx="542.07" cy="511.03" r="3.2" fill="#1d4ed8"/>
<circle cx="547.10" cy="509.82" r="3.2" fill="#1d4ed8"/>
<circle cx="552.12" cy="507.79" r="3.2" fill="#1d4ed8"/>
<circle cx="557.14" cy="506.99" r="3.2" fill="#1d4ed8"/>
<circle cx="562.17" cy="506.58" r="3.2" fill="#1d4ed8"/>
<circle cx="567.19" cy="509.41" r="3.2" fill="#1d4ed8"/>
<circle cx="572.21" cy="509.01" r="3.2" fill="#1d4ed8"/>
<circle cx="577.24" cy="504.96" r="3.2" fill="#1d4ed8"/>
<circle cx="582.26" cy="504.56" r="3.2" fill="#1d4ed8"/>
<circle cx="587.28" cy="504.15" r="3.2" fill="#1d4ed8"/>
<circle cx="592.30" cy="504.56" r="3.2" fill="#1d4ed8"/>
<circle cx="597.33" cy="503.75" r="3.2" fill="#1d4ed8"/>
<circle cx="602.35" cy="503.75" r="3.2" fill="#1d4ed8"/>
<circle cx="607.37" cy="503.35" r="3.2" fill="#1d4ed8"/>
<circle cx="612.40" cy="499.30" r="3.2" fill="#1d4ed8"/>
<circle cx="617.42" cy="496.47" r="3.2" fill="#1d4ed8"/>
<circle cx="622.44" cy="490.00" r="3.2" fill="#1d4ed8"/>
<circle cx="627.47" cy="484.34" r="3.2" fill="#1d4ed8"/>
<circle cx="632.49" cy="481.10" r="3.2" fill="#1d4ed8"/>
<circle cx="637.51" cy="480.29" r="3.2" fill="#1d4ed8"/>
<circle cx="642.53" cy="480.70" r="3.2" fill="#1d4ed8"/>
<circle cx="647.56" cy="460.88" r="3.2" fill="#1d4ed8"/>
<circle cx="652.58" cy="459.26" r="3.2" fill="#1d4ed8"/>
<circle cx="657.60" cy="458.05" r="3.2" fill="#1d4ed8"/>
<circle cx="662.63" cy="456.03" r="3.2" fill="#1d4ed8"/>
<circle cx="667.65" cy="456.03" r="3.2" fill="#1d4ed8"/>
<circle cx="672.67" cy="454.41" r="3.2" fill="#1d4ed8"/>
<circle cx="677.70" cy="450.77" r="3.2" fill="#1d4ed8"/>
<circle cx="682.72" cy="444.30" r="3.2" fill="#1d4ed8"/>
<circle cx="687.74" cy="443.90" r="3.2" fill="#1d4ed8"/>
<circle cx="692.76" cy="600.00" r="3.2" fill="#1d4ed8"/>
<circle cx="697.79" cy="441.88" r="3.2" fill="#1d4ed8"/>
<circle cx="702.81" cy="440.66" r="3.2" fill="#1d4ed8"/>
<circle cx="707.83" cy="439.45" r="3.2" fill="#1d4ed8"/>
<circle cx="712.86" cy="439.04" r="3.2" fill="#1d4ed8"/>
<circle cx="717.88" cy="438.64" r="3.2" fill="#1d4ed8"/>
<circle cx="722.90" cy="437.83" r="3.2" fill="#1d4ed8"/>
<circle cx="727.93" cy="436.62" r="3.2" fill="#1d4ed8"/>
<circle cx="732.95" cy="436.62" r="3.2" fill="#1d4ed8"/>
<circle cx="737.97" cy="434.60" r="3.2" fill="#1d4ed8"/>
<circle cx="743.00" cy="432.17" r="3.2" fill="#1d4ed8"/>
<circle cx="748.02" cy="429.34" r="3.2" fill="#1d4ed8"/>
<circle cx="753.04" cy="428.93" r="3.2" fill="#1d4ed8"/>
<circle cx="758.06" cy="428.53" r="3.2" fill="#1d4ed8"/>
<circle cx="763.09" cy="427.72" r="3.2" fill="#1d4ed8"/>
<circle cx="768.11" cy="426.91" r="3.2" fill="#1d4ed8"/>
<circle cx="773.13" cy="426.10" r="3.2" fill="#1d4ed8"/>
<circle cx="778.16" cy="426.10" r="3.2" fill="#1d4ed8"/>
<circle cx="783.18" cy="426.10" r="3.2" fill="#1d4ed8"/>
<circle cx="788.20" cy="419.63" r="3.2" fill="#1d4ed8"/>
<circle cx="793.23" cy="419.23" r="3.2" fill="#1d4ed8"/>
<circle cx="798.25" cy="418.42" r="3.2" fill="#1d4ed8"/>
<circle cx="803.27" cy="418.01" r="3.2" fill="#1d4ed8"/>
<circle cx="808.29" cy="417.61" r="3.2" fill="#1d4ed8"/>
<circle cx="813.32" cy="417.61" r="3.2" fill="#1d4ed8"/>
<circle cx="818.34" cy="417.61" r="3.2" fill="#1d4ed8"/>
<circle cx="823.36" cy="417.21" r="3.2" fill="#1d4ed8"/>
<circle cx="828.39" cy="417.21" r="3.2" fill="#1d4ed8"/>
<circle cx="833.41" cy="413.57" r="3.2" fill="#1d4ed8"/>
<circle cx="838.43" cy="411.95" r="3.2" fill="#1d4ed8"/>
<circle cx="843.46" cy="412.76" r="3.2" fill="#1d4ed8"/>
<circle cx="848.48" cy="410.74" r="3.2" fill="#1d4ed8"/>
<circle cx="853.50" cy="410.74" r="3.2" fill="#1d4ed8"/>
<circle cx="858.53" cy="410.33" r="3.2" fill="#1d4ed8"/>
<circle cx="863.55" cy="410.33" r="3.2" fill="#1d4ed8"/>
<circle cx="868.57" cy="410.33" r="3.2" fill="#1d4ed8"/>
<circle cx="873.59" cy="409.93" r="3.2" fill="#1d4ed8"/>
<circle cx="878.62" cy="409.93" r="3.2" fill="#1d4ed8"/>
<circle cx="883.64" cy="409.93" r="3.2" fill="#1d4ed8"/>
<circle cx="888.66" cy="409.52" r="3.2" fill="#1d4ed8"/>
<circle cx="893.69" cy="409.52" r="3.2" fill="#1d4ed8"/>
<circle cx="898.71" cy="409.12" r="3.2" fill="#1d4ed8"/>
<circle cx="903.73" cy="409.52" r="3.2" fill="#1d4ed8"/>
<circle cx="908.76" cy="409.12" r="3.2" fill="#1d4ed8"/>
<circle cx="913.78" cy="407.50" r="3.2" fill="#1d4ed8"/>
<circle cx="918.80" cy="407.10" r="3.2" fill="#1d4ed8"/>
<circle cx="923.82" cy="403.05" r="3.2" fill="#1d4ed8"/>
<circle cx="928.85" cy="399.82" r="3.2" fill="#1d4ed8"/>
<circle cx="933.87" cy="400.22" r="3.2" fill="#1d4ed8"/>
<circle cx="938.89" cy="400.62" r="3.2" fill="#1d4ed8"/>
<circle cx="943.92" cy="400.62" r="3.2" fill="#1d4ed8"/>
<circle cx="948.94" cy="399.41" r="3.2" fill="#1d4ed8"/>
<circle cx="953.96" cy="392.94" r="3.2" fill="#1d4ed8"/>
<circle cx="958.99" cy="391.32" r="3.2" fill="#1d4ed8"/>
<circle cx="964.01" cy="389.30" r="3.2" fill="#1d4ed8"/>
<circle cx="969.03" cy="389.30" r="3.2" fill="#1d4ed8"/>
<circle cx="974.06" cy="388.49" r="3.2" fill="#1d4ed8"/>
<circle cx="979.08" cy="375.15" r="3.2" fill="#1d4ed8"/>
<circle cx="984.10" cy="374.74" r="3.2" fill="#1d4ed8"/>
<circle cx="989.12" cy="374.74" r="3.2" fill="#1d4ed8"/>
<circle cx="994.15" cy="374.74" r="3.2" fill="#1d4ed8"/>
<circle cx="999.17" cy="374.74" r="3.2" fill="#1d4ed8"/>
<circle cx="1004.19" cy="374.34" r="3.2" fill="#1d4ed8"/>
<circle cx="1009.22" cy="374.34" r="3.2" fill="#1d4ed8"/>
<circle cx="1014.24" cy="374.34" r="3.2" fill="#1d4ed8"/>
<circle cx="1019.26" cy="374.34" r="3.2" fill="#1d4ed8"/>
<circle cx="1024.29" cy="374.34" r="3.2" fill="#1d4ed8"/>
<circle cx="1029.31" cy="373.93" r="3.2" fill="#1d4ed8"/>
<circle cx="1034.33" cy="373.12" r="3.2" fill="#1d4ed8"/>
<circle cx="1039.35" cy="372.72" r="3.2" fill="#1d4ed8"/>
<circle cx="1044.38" cy="373.53" r="3.2" fill="#1d4ed8"/>
<circle cx="1049.40" cy="435.81" r="3.2" fill="#1d4ed8"/>
<circle cx="1054.42" cy="372.32" r="3.2" fill="#1d4ed8"/>
<circle cx="1059.45" cy="372.72" r="3.2" fill="#1d4ed8"/>
<circle cx="1064.47" cy="371.91" r="3.2" fill="#1d4ed8"/>
<circle cx="1069.49" cy="371.91" r="3.2" fill="#1d4ed8"/>
<circle cx="1074.52" cy="372.32" r="3.2" fill="#1d4ed8"/>
<circle cx="1079.54" cy="371.10" r="3.2" fill="#1d4ed8"/>
<circle cx="1084.56" cy="369.89" r="3.2" fill="#1d4ed8"/>
<circle cx="1089.59" cy="369.89" r="3.2" fill="#1d4ed8"/>
<circle cx="1094.61" cy="369.89" r="3.2" fill="#1d4ed8"/>
<circle cx="1099.63" cy="369.49" r="3.2" fill="#1d4ed8"/>
<circle cx="1104.65" cy="369.89" r="3.2" fill="#1d4ed8"/>
<circle cx="1109.68" cy="369.08" r="3.2" fill="#1d4ed8"/>
<circle cx="1114.70" cy="368.68" r="3.2" fill="#1d4ed8"/>
<circle cx="1119.72" cy="368.27" r="3.2" fill="#1d4ed8"/>
<circle cx="1124.75" cy="367.87" r="3.2" fill="#1d4ed8"/>
<circle cx="1129.77" cy="367.06" r="3.2" fill="#1d4ed8"/>
<circle cx="1134.79" cy="367.46" r="3.2" fill="#1d4ed8"/>
<circle cx="1139.82" cy="367.06" r="3.2" fill="#1d4ed8"/>
<circle cx="1144.84" cy="366.25" r="3.2" fill="#1d4ed8"/>
<circle cx="1149.86" cy="368.27" r="3.2" fill="#1d4ed8"/>
<circle cx="1154.88" cy="368.68" r="3.2" fill="#1d4ed8"/>
<circle cx="1159.91" cy="368.68" r="3.2" fill="#1d4ed8"/>
<circle cx="1164.93" cy="368.27" r="3.2" fill="#1d4ed8"/>
<circle cx="1169.95" cy="369.08" r="3.2" fill="#1d4ed8"/>
<circle cx="1174.98" cy="367.87" r="3.2" fill="#1d4ed8"/>
<circle cx="1180.00" cy="367.46" r="3.2" fill="#1d4ed8"/>
<text x="635" y="695" text-anchor="middle" font-size="14" fill="#111" font-family="sans-serif">Date</text>
<text x="24" y="325" text-anchor="middle" font-size="14" fill="#111" transform="rotate(-90 24,325)" font-family="sans-serif">Passed files</text>
</svg>
