<?xml version="1.0" encoding="UTF-8"?>
<svg xmlns="http://www.w3.org/2000/svg" width="1280" height="720" viewBox="0 0 1280 720">
<rect width="100%" height="100%" fill="#ffffff"/>
<text x="640" y="30" text-anchor="middle" font-size="22" font-family="sans-serif">Roast passed files history</text>
<line x1="90" y1="600" x2="1180" y2="600" stroke="#333" stroke-width="1.5"/>
<line x1="90" y1="50" x2="90" y2="600" stroke="#333" stroke-width="1.5"/>
<line x1="90" y1="600.00" x2="1180" y2="600.00" stroke="#e5e7eb" stroke-width="1"/>
<text x="78" y="605.00" text-anchor="end" font-size="12" fill="#111" font-family="sans-serif">0</text>
<line x1="90" y1="397.79" x2="1180" y2="397.79" stroke="#e5e7eb" stroke-width="1"/>
<text x="78" y="402.79" text-anchor="end" font-size="12" fill="#111" font-family="sans-serif">500</text>
<line x1="90" y1="195.59" x2="1180" y2="195.59" stroke="#e5e7eb" stroke-width="1"/>
<text x="78" y="200.59" text-anchor="end" font-size="12" fill="#111" font-family="sans-serif">1000</text>
<line x1="90.00" y1="600" x2="90.00" y2="606" stroke="#333" stroke-width="1"/>
<text x="90.00" y="624" text-anchor="end" font-size="11" fill="#111" transform="rotate(-40 90.00,624)" font-family="sans-serif">2026-02-12</text>
<line x1="225.26" y1="600" x2="225.26" y2="606" stroke="#333" stroke-width="1"/>
<text x="225.26" y="624" text-anchor="end" font-size="11" fill="#111" transform="rotate(-40 225.26,624)" font-family="sans-serif">2026-02-17</text>
<line x1="360.51" y1="600" x2="360.51" y2="606" stroke="#333" stroke-width="1"/>
<text x="360.51" y="624" text-anchor="end" font-size="11" fill="#111" transform="rotate(-40 360.51,624)" font-family="sans-serif">2026-02-19</text>
<line x1="495.77" y1="600" x2="495.77" y2="606" stroke="#333" stroke-width="1"/>
<text x="495.77" y="624" text-anchor="end" font-size="11" fill="#111" transform="rotate(-40 495.77,624)" font-family="sans-serif">2026-02-23</text>
<line x1="631.02" y1="600" x2="631.02" y2="606" stroke="#333" stroke-width="1"/>
<text x="631.02" y="624" text-anchor="end" font-size="11" fill="#111" transform="rotate(-40 631.02,624)" font-family="sans-serif">2026-02-25</text>
<line x1="766.28" y1="600" x2="766.28" y2="606" stroke="#333" stroke-width="1"/>
<text x="766.28" y="624" text-anchor="end" font-size="11" fill="#111" transform="rotate(-40 766.28,624)" font-family="sans-serif">2026-02-27</text>
<line x1="901.53" y1="600" x2="901.53" y2="606" stroke="#333" stroke-width="1"/>
<text x="901.53" y="624" text-anchor="end" font-size="11" fill="#111" transform="rotate(-40 901.53,624)" font-family="sans-serif">2026-03-01</text>
<line x1="1036.79" y1="600" x2="1036.79" y2="606" stroke="#333" stroke-width="1"/>
<text x="1036.79" y="624" text-anchor="end" font-size="11" fill="#111" transform="rotate(-40 1036.79,624)" font-family="sans-serif">2026-03-06</text>
<line x1="1172.04" y1="600" x2="1172.04" y2="606" stroke="#333" stroke-width="1"/>
<text x="1172.04" y="624" text-anchor="end" font-size="11" fill="#111" transform="rotate(-40 1172.04,624)" font-family="sans-serif">2026-03-07</text>
<line x1="1180.00" y1="600" x2="1180.00" y2="606" stroke="#333" stroke-width="1"/>
<text x="1180.00" y="624" text-anchor="end" font-size="11" fill="#111" transform="rotate(-40 1180.00,624)" font-family="sans-serif">2026-03-07</text>
<line x1="90" y1="75.88" x2="1180" y2="75.88" stroke="#dc2626" stroke-width="1.5" stroke-dasharray="8,4"/>
<text x="1184" y="79.88" font-size="12" fill="#dc2626" font-family="sans-serif">Goal: 1296</text>
<polyline fill="none" stroke="#2563eb" stroke-width="3" points="90.00,540.55 93.98,538.53 97.96,536.91 101.93,534.49 105.91,534.49 109.89,533.27 113.87,532.46 117.85,532.87 121.82,532.06 125.80,532.46 129.78,532.06 133.76,568.46 137.74,568.46 141.72,566.43 145.69,545.00 149.67,545.00 153.65,544.19 157.63,543.79 161.61,543.79 165.58,543.38 169.56,541.76 173.54,541.36 177.52,540.96 181.50,540.96 185.47,539.34 189.45,539.34 193.43,556.73 197.41,556.73 201.39,555.51 205.36,551.07 209.34,538.93 213.32,538.93 217.30,538.93 221.28,538.12 225.26,536.91 229.23,536.91 233.21,536.51 237.19,536.51 241.17,556.73 245.15,556.73 249.12,556.73 253.10,556.73 257.08,535.29 261.06,535.29 265.04,535.29 269.01,535.29 272.99,534.49 276.97,534.08 280.95,533.68 284.93,532.87 288.91,532.06 292.88,532.06 296.86,531.25 300.84,530.85 304.82,530.44 308.80,530.04 312.77,530.04 316.75,529.23 320.73,529.23 324.71,529.23 328.69,528.42 332.66,528.42 336.64,527.61 340.62,527.21 344.60,526.80 348.58,526.40 352.55,525.18 356.53,523.57 360.51,523.57 364.49,523.16 368.47,522.76 372.45,522.35 376.42,521.54 380.40,519.52 384.38,517.50 388.36,517.50 392.34,517.50 396.31,517.50 400.29,517.50 404.27,517.50 408.25,517.10 412.23,516.69 416.20,515.48 420.18,515.07 424.16,514.67 428.14,513.86 432.12,514.26 436.09,512.24 440.07,511.84 444.05,511.84 448.03,511.03 452.01,509.82 455.99,507.79 459.96,506.99 463.94,506.58 467.92,509.41 471.90,509.01 475.88,504.96 479.85,504.56 483.83,504.15 487.81,504.56 491.79,503.75 495.77,503.75 499.74,503.35 503.72,499.30 507.70,496.47 511.68,490.00 515.66,484.34 519.64,481.10 523.61,480.29 527.59,480.70 531.57,460.88 535.55,459.26 539.53,458.05 543.50,456.03 547.48,456.03 551.46,454.41 555.44,450.77 559.42,444.30 563.39,443.90 567.37,600.00 571.35,441.88 575.33,440.66 579.31,439.45 583.28,439.04 587.26,438.64 591.24,437.83 595.22,436.62 599.20,436.62 603.18,434.60 607.15,432.17 611.13,429.34 615.11,428.93 619.09,428.53 623.07,427.72 627.04,426.91 631.02,426.10 635.00,426.10 638.98,426.10 642.96,419.63 646.93,419.23 650.91,418.42 654.89,418.01 658.87,417.61 662.85,417.61 666.82,417.61 670.80,417.21 674.78,417.21 678.76,413.57 682.74,411.95 686.72,412.76 690.69,410.74 694.67,410.74 698.65,410.33 702.63,410.33 706.61,410.33 710.58,409.93 714.56,409.93 718.54,409.93 722.52,409.52 726.50,409.52 730.47,409.12 734.45,409.52 738.43,409.12 742.41,407.50 746.39,407.10 750.36,403.05 754.34,399.82 758.32,400.22 762.30,400.62 766.28,400.62 770.26,399.41 774.23,392.94 778.21,391.32 782.19,389.30 786.17,389.30 790.15,388.49 794.12,375.15 798.10,374.74 802.08,374.74 806.06,374.74 810.04,374.74 814.01,374.34 817.99,374.34 821.97,374.34 825.95,374.34 829.93,374.34 833.91,373.93 837.88,373.12 841.86,372.72 845.84,373.53 849.82,435.81 853.80,372.32 857.77,372.72 861.75,371.91 865.73,371.91 869.71,372.32 873.69,371.10 877.66,369.89 881.64,369.89 885.62,369.89 889.60,369.49 893.58,369.89 897.55,369.08 901.53,368.68 905.51,368.27 909.49,367.87 913.47,367.06 917.45,367.46 921.42,367.06 925.40,366.25 929.38,368.27 933.36,368.68 937.34,368.68 941.31,368.27 945.29,369.08 949.27,367.87 953.25,367.46 957.23,367.06 961.20,360.18 965.18,359.78 969.16,359.38 973.14,356.95 977.12,357.35 981.09,357.76 985.07,355.33 989.05,355.74 993.03,357.35 997.01,355.33 1000.99,356.14 1004.96,355.74 1008.94,356.14 1012.92,354.12 1016.90,354.93 1020.88,356.14 1024.85,354.52 1028.83,353.71 1032.81,354.12 1036.79,354.93 1040.77,352.90 1044.74,353.71 1048.72,353.31 1052.70,353.31 1056.68,354.52 1060.66,352.90 1064.64,352.50 1068.61,352.50 1072.59,353.31 1076.57,352.50 1080.55,353.71 1084.53,354.12 1088.50,352.50 1092.48,352.90 1096.46,352.50 1100.44,352.10 1104.42,351.69 1108.39,352.10 1112.37,354.12 1116.35,352.50 1120.33,352.10 1124.31,352.10 1128.28,349.67 1132.26,349.67 1136.24,350.88 1140.22,351.29 1144.20,350.48 1148.18,352.10 1152.15,350.48 1156.13,350.48 1160.11,350.48 1164.09,350.07 1168.07,348.46 1172.04,351.29 1176.02,349.67 1180.00,351.29"/>
<circle cx="90.00" cy="540.55" r="3.2" fill="#1d4ed8"/>
<circle cx="93.98" cy="538.53" r="3.2" fill="#1d4ed8"/>
<circle cx="97.96" cy="536.91" r="3.2" fill="#1d4ed8"/>
<circle cx="101.93" cy="534.49" r="3.2" fill="#1d4ed8"/>
<circle cx="105.91" cy="534.49" r="3.2" fill="#1d4ed8"/>
<circle cx="109.89" cy="533.27" r="3.2" fill="#1d4ed8"/>
<circle cx="113.87" cy="532.46" r="3.2" fill="#1d4ed8"/>
<circle cx="117.85" cy="532.87" r="3.2" fill="#1d4ed8"/>
<circle cx="121.82" cy="532.06" r="3.2" fill="#1d4ed8"/>
<circle cx="125.80" cy="532.46" r="3.2" fill="#1d4ed8"/>
<circle cx="129.78" cy="532.06" r="3.2" fill="#1d4ed8"/>
<circle cx="133.76" cy="568.46" r="3.2" fill="#1d4ed8"/>
<circle cx="137.74" cy="568.46" r="3.2" fill="#1d4ed8"/>
<circle cx="141.72" cy="566.43" r="3.2" fill="#1d4ed8"/>
<circle cx="145.69" cy="545.00" r="3.2" fill="#1d4ed8"/>
<circle cx="149.67" cy="545.00" r="3.2" fill="#1d4ed8"/>
<circle cx="153.65" cy="544.19" r="3.2" fill="#1d4ed8"/>
<circle cx="157.63" cy="543.79" r="3.2" fill="#1d4ed8"/>
<circle cx="161.61" cy="543.79" r="3.2" fill="#1d4ed8"/>
<circle cx="165.58" cy="543.38" r="3.2" fill="#1d4ed8"/>
<circle cx="169.56" cy="541.76" r="3.2" fill="#1d4ed8"/>
<circle cx="173.54" cy="541.36" r="3.2" fill="#1d4ed8"/>
<circle cx="177.52" cy="540.96" r="3.2" fill="#1d4ed8"/>
<circle cx="181.50" cy="540.96" r="3.2" fill="#1d4ed8"/>
<circle cx="185.47" cy="539.34" r="3.2" fill="#1d4ed8"/>
<circle cx="189.45" cy="539.34" r="3.2" fill="#1d4ed8"/>
<circle cx="193.43" cy="556.73" r="3.2" fill="#1d4ed8"/>
<circle cx="197.41" cy="556.73" r="3.2" fill="#1d4ed8"/>
<circle cx="201.39" cy="555.51" r="3.2" fill="#1d4ed8"/>
<circle cx="205.36" cy="551.07" r="3.2" fill="#1d4ed8"/>
<circle cx="209.34" cy="538.93" r="3.2" fill="#1d4ed8"/>
<circle cx="213.32" cy="538.93" r="3.2" fill="#1d4ed8"/>
<circle cx="217.30" cy="538.93" r="3.2" fill="#1d4ed8"/>
<circle cx="221.28" cy="538.12" r="3.2" fill="#1d4ed8"/>
<circle cx="225.26" cy="536.91" r="3.2" fill="#1d4ed8"/>
<circle cx="229.23" cy="536.91" r="3.2" fill="#1d4ed8"/>
<circle cx="233.21" cy="536.51" r="3.2" fill="#1d4ed8"/>
<circle cx="237.19" cy="536.51" r="3.2" fill="#1d4ed8"/>
<circle cx="241.17" cy="556.73" r="3.2" fill="#1d4ed8"/>
<circle cx="245.15" cy="556.73" r="3.2" fill="#1d4ed8"/>
<circle cx="249.12" cy="556.73" r="3.2" fill="#1d4ed8"/>
<circle cx="253.10" cy="556.73" r="3.2" fill="#1d4ed8"/>
<circle cx="257.08" cy="535.29" r="3.2" fill="#1d4ed8"/>
<circle cx="261.06" cy="535.29" r="3.2" fill="#1d4ed8"/>
<circle cx="265.04" cy="535.29" r="3.2" fill="#1d4ed8"/>
<circle cx="269.01" cy="535.29" r="3.2" fill="#1d4ed8"/>
<circle cx="272.99" cy="534.49" r="3.2" fill="#1d4ed8"/>
<circle cx="276.97" cy="534.08" r="3.2" fill="#1d4ed8"/>
<circle cx="280.95" cy="533.68" r="3.2" fill="#1d4ed8"/>
<circle cx="284.93" cy="532.87" r="3.2" fill="#1d4ed8"/>
<circle cx="288.91" cy="532.06" r="3.2" fill="#1d4ed8"/>
<circle cx="292.88" cy="532.06" r="3.2" fill="#1d4ed8"/>
<circle cx="296.86" cy="531.25" r="3.2" fill="#1d4ed8"/>
<circle cx="300.84" cy="530.85" r="3.2" fill="#1d4ed8"/>
<circle cx="304.82" cy="530.44" r="3.2" fill="#1d4ed8"/>
<circle cx="308.80" cy="530.04" r="3.2" fill="#1d4ed8"/>
<circle cx="312.77" cy="530.04" r="3.2" fill="#1d4ed8"/>
<circle cx="316.75" cy="529.23" r="3.2" fill="#1d4ed8"/>
<circle cx="320.73" cy="529.23" r="3.2" fill="#1d4ed8"/>
<circle cx="324.71" cy="529.23" r="3.2" fill="#1d4ed8"/>
<circle cx="328.69" cy="528.42" r="3.2" fill="#1d4ed8"/>
<circle cx="332.66" cy="528.42" r="3.2" fill="#1d4ed8"/>
<circle cx="336.64" cy="527.61" r="3.2" fill="#1d4ed8"/>
<circle cx="340.62" cy="527.21" r="3.2" fill="#1d4ed8"/>
<circle cx="344.60" cy="526.80" r="3.2" fill="#1d4ed8"/>
<circle cx="348.58" cy="526.40" r="3.2" fill="#1d4ed8"/>
<circle cx="352.55" cy="525.18" r="3.2" fill="#1d4ed8"/>
<circle cx="356.53" cy="523.57" r="3.2" fill="#1d4ed8"/>
<circle cx="360.51" cy="523.57" r="3.2" fill="#1d4ed8"/>
<circle cx="364.49" cy="523.16" r="3.2" fill="#1d4ed8"/>
<circle cx="368.47" cy="522.76" r="3.2" fill="#1d4ed8"/>
<circle cx="372.45" cy="522.35" r="3.2" fill="#1d4ed8"/>
<circle cx="376.42" cy="521.54" r="3.2" fill="#1d4ed8"/>
<circle cx="380.40" cy="519.52" r="3.2" fill="#1d4ed8"/>
<circle cx="384.38" cy="517.50" r="3.2" fill="#1d4ed8"/>
<circle cx="388.36" cy="517.50" r="3.2" fill="#1d4ed8"/>
<circle cx="392.34" cy="517.50" r="3.2" fill="#1d4ed8"/>
<circle cx="396.31" cy="517.50" r="3.2" fill="#1d4ed8"/>
<circle cx="400.29" cy="517.50" r="3.2" fill="#1d4ed8"/>
<circle cx="404.27" cy="517.50" r="3.2" fill="#1d4ed8"/>
<circle cx="408.25" cy="517.10" r="3.2" fill="#1d4ed8"/>
<circle cx="412.23" cy="516.69" r="3.2" fill="#1d4ed8"/>
<circle cx="416.20" cy="515.48" r="3.2" fill="#1d4ed8"/>
<circle cx="420.18" cy="515.07" r="3.2" fill="#1d4ed8"/>
<circle cx="424.16" cy="514.67" r="3.2" fill="#1d4ed8"/>
<circle cx="428.14" cy="513.86" r="3.2" fill="#1d4ed8"/>
<circle cx="432.12" cy="514.26" r="3.2" fill="#1d4ed8"/>
<circle cx="436.09" cy="512.24" r="3.2" fill="#1d4ed8"/>
<circle cx="440.07" cy="511.84" r="3.2" fill="#1d4ed8"/>
<circle cx="444.05" cy="511.84" r="3.2" fill="#1d4ed8"/>
<circle cx="448.03" cy="511.03" r="3.2" fill="#1d4ed8"/>
<circle cx="452.01" cy="509.82" r="3.2" fill="#1d4ed8"/>
<circle cx="455.99" cy="507.79" r="3.2" fill="#1d4ed8"/>
<circle cx="459.96" cy="506.99" r="3.2" fill="#1d4ed8"/>
<circle cx="463.94" cy="506.58" r="3.2" fill="#1d4ed8"/>
<circle cx="467.92" cy="509.41" r="3.2" fill="#1d4ed8"/>
<circle cx="471.90" cy="509.01" r="3.2" fill="#1d4ed8"/>
<circle cx="475.88" cy="504.96" r="3.2" fill="#1d4ed8"/>
<circle cx="479.85" cy="504.56" r="3.2" fill="#1d4ed8"/>
<circle cx="483.83" cy="504.15" r="3.2" fill="#1d4ed8"/>
<circle cx="487.81" cy="504.56" r="3.2" fill="#1d4ed8"/>
<circle cx="491.79" cy="503.75" r="3.2" fill="#1d4ed8"/>
<circle cx="495.77" cy="503.75" r="3.2" fill="#1d4ed8"/>
<circle cx="499.74" cy="503.35" r="3.2" fill="#1d4ed8"/>
<circle cx="503.72" cy="499.30" r="3.2" fill="#1d4ed8"/>
<circle cx="507.70" cy="496.47" r="3.2" fill="#1d4ed8"/>
<circle cx="511.68" cy="490.00" r="3.2" fill="#1d4ed8"/>
<circle cx="515.66" cy="484.34" r="3.2" fill="#1d4ed8"/>
<circle cx="519.64" cy="481.10" r="3.2" fill="#1d4ed8"/>
<circle cx="523.61" cy="480.29" r="3.2" fill="#1d4ed8"/>
<circle cx="527.59" cy="480.70" r="3.2" fill="#1d4ed8"/>
<circle cx="531.57" cy="460.88" r="3.2" fill="#1d4ed8"/>
<circle cx="535.55" cy="459.26" r="3.2" fill="#1d4ed8"/>
<circle cx="539.53" cy="458.05" r="3.2" fill="#1d4ed8"/>
<circle cx="543.50" cy="456.03" r="3.2" fill="#1d4ed8"/>
<circle cx="547.48" cy="456.03" r="3.2" fill="#1d4ed8"/>
<circle cx="551.46" cy="454.41" r="3.2" fill="#1d4ed8"/>
<circle cx="555.44" cy="450.77" r="3.2" fill="#1d4ed8"/>
<circle cx="559.42" cy="444.30" r="3.2" fill="#1d4ed8"/>
<circle cx="563.39" cy="443.90" r="3.2" fill="#1d4ed8"/>
<circle cx="567.37" cy="600.00" r="3.2" fill="#1d4ed8"/>
<circle cx="571.35" cy="441.88" r="3.2" fill="#1d4ed8"/>
<circle cx="575.33" cy="440.66" r="3.2" fill="#1d4ed8"/>
<circle cx="579.31" cy="439.45" r="3.2" fill="#1d4ed8"/>
<circle cx="583.28" cy="439.04" r="3.2" fill="#1d4ed8"/>
<circle cx="587.26" cy="438.64" r="3.2" fill="#1d4ed8"/>
<circle cx="591.24" cy="437.83" r="3.2" fill="#1d4ed8"/>
<circle cx="595.22" cy="436.62" r="3.2" fill="#1d4ed8"/>
<circle cx="599.20" cy="436.62" r="3.2" fill="#1d4ed8"/>
<circle cx="603.18" cy="434.60" r="3.2" fill="#1d4ed8"/>
<circle cx="607.15" cy="432.17" r="3.2" fill="#1d4ed8"/>
<circle cx="611.13" cy="429.34" r="3.2" fill="#1d4ed8"/>
<circle cx="615.11" cy="428.93" r="3.2" fill="#1d4ed8"/>
<circle cx="619.09" cy="428.53" r="3.2" fill="#1d4ed8"/>
<circle cx="623.07" cy="427.72" r="3.2" fill="#1d4ed8"/>
<circle cx="627.04" cy="426.91" r="3.2" fill="#1d4ed8"/>
<circle cx="631.02" cy="426.10" r="3.2" fill="#1d4ed8"/>
<circle cx="635.00" cy="426.10" r="3.2" fill="#1d4ed8"/>
<circle cx="638.98" cy="426.10" r="3.2" fill="#1d4ed8"/>
<circle cx="642.96" cy="419.63" r="3.2" fill="#1d4ed8"/>
<circle cx="646.93" cy="419.23" r="3.2" fill="#1d4ed8"/>
<circle cx="650.91" cy="418.42" r="3.2" fill="#1d4ed8"/>
<circle cx="654.89" cy="418.01" r="3.2" fill="#1d4ed8"/>
<circle cx="658.87" cy="417.61" r="3.2" fill="#1d4ed8"/>
<circle cx="662.85" cy="417.61" r="3.2" fill="#1d4ed8"/>
<circle cx="666.82" cy="417.61" r="3.2" fill="#1d4ed8"/>
<circle cx="670.80" cy="417.21" r="3.2" fill="#1d4ed8"/>
<circle cx="674.78" cy="417.21" r="3.2" fill="#1d4ed8"/>
<circle cx="678.76" cy="413.57" r="3.2" fill="#1d4ed8"/>
<circle cx="682.74" cy="411.95" r="3.2" fill="#1d4ed8"/>
<circle cx="686.72" cy="412.76" r="3.2" fill="#1d4ed8"/>
<circle cx="690.69" cy="410.74" r="3.2" fill="#1d4ed8"/>
<circle cx="694.67" cy="410.74" r="3.2" fill="#1d4ed8"/>
<circle cx="698.65" cy="410.33" r="3.2" fill="#1d4ed8"/>
<circle cx="702.63" cy="410.33" r="3.2" fill="#1d4ed8"/>
<circle cx="706.61" cy="410.33" r="3.2" fill="#1d4ed8"/>
<circle cx="710.58" cy="409.93" r="3.2" fill="#1d4ed8"/>
<circle cx="714.56" cy="409.93" r="3.2" fill="#1d4ed8"/>
<circle cx="718.54" cy="409.93" r="3.2" fill="#1d4ed8"/>
<circle cx="722.52" cy="409.52" r="3.2" fill="#1d4ed8"/>
<circle cx="726.50" cy="409.52" r="3.2" fill="#1d4ed8"/>
<circle cx="730.47" cy="409.12" r="3.2" fill="#1d4ed8"/>
<circle cx="734.45" cy="409.52" r="3.2" fill="#1d4ed8"/>
<circle cx="738.43" cy="409.12" r="3.2" fill="#1d4ed8"/>
<circle cx="742.41" cy="407.50" r="3.2" fill="#1d4ed8"/>
<circle cx="746.39" cy="407.10" r="3.2" fill="#1d4ed8"/>
<circle cx="750.36" cy="403.05" r="3.2" fill="#1d4ed8"/>
<circle cx="754.34" cy="399.82" r="3.2" fill="#1d4ed8"/>
<circle cx="758.32" cy="400.22" r="3.2" fill="#1d4ed8"/>
<circle cx="762.30" cy="400.62" r="3.2" fill="#1d4ed8"/>
<circle cx="766.28" cy="400.62" r="3.2" fill="#1d4ed8"/>
<circle cx="770.26" cy="399.41" r="3.2" fill="#1d4ed8"/>
<circle cx="774.23" cy="392.94" r="3.2" fill="#1d4ed8"/>
<circle cx="778.21" cy="391.32" r="3.2" fill="#1d4ed8"/>
<circle cx="782.19" cy="389.30" r="3.2" fill="#1d4ed8"/>
<circle cx="786.17" cy="389.30" r="3.2" fill="#1d4ed8"/>
<circle cx="790.15" cy="388.49" r="3.2" fill="#1d4ed8"/>
<circle cx="794.12" cy="375.15" r="3.2" fill="#1d4ed8"/>
<circle cx="798.10" cy="374.74" r="3.2" fill="#1d4ed8"/>
<circle cx="802.08" cy="374.74" r="3.2" fill="#1d4ed8"/>
<circle cx="806.06" cy="374.74" r="3.2" fill="#1d4ed8"/>
<circle cx="810.04" cy="374.74" r="3.2" fill="#1d4ed8"/>
<circle cx="814.01" cy="374.34" r="3.2" fill="#1d4ed8"/>
<circle cx="817.99" cy="374.34" r="3.2" fill="#1d4ed8"/>
<circle cx="821.97" cy="374.34" r="3.2" fill="#1d4ed8"/>
<circle cx="825.95" cy="374.34" r="3.2" fill="#1d4ed8"/>
<circle cx="829.93" cy="374.34" r="3.2" fill="#1d4ed8"/>
<circle cx="833.91" cy="373.93" r="3.2" fill="#1d4ed8"/>
<circle cx="837.88" cy="373.12" r="3.2" fill="#1d4ed8"/>
<circle cx="841.86" cy="372.72" r="3.2" fill="#1d4ed8"/>
<circle cx="845.84" cy="373.53" r="3.2" fill="#1d4ed8"/>
<circle cx="849.82" cy="435.81" r="3.2" fill="#1d4ed8"/>
<circle cx="853.80" cy="372.32" r="3.2" fill="#1d4ed8"/>
<circle cx="857.77" cy="372.72" r="3.2" fill="#1d4ed8"/>
<circle cx="861.75" cy="371.91" r="3.2" fill="#1d4ed8"/>
<circle cx="865.73" cy="371.91" r="3.2" fill="#1d4ed8"/>
<circle cx="869.71" cy="372.32" r="3.2" fill="#1d4ed8"/>
<circle cx="873.69" cy="371.10" r="3.2" fill="#1d4ed8"/>
<circle cx="877.66" cy="369.89" r="3.2" fill="#1d4ed8"/>
<circle cx="881.64" cy="369.89" r="3.2" fill="#1d4ed8"/>
<circle cx="885.62" cy="369.89" r="3.2" fill="#1d4ed8"/>
<circle cx="889.60" cy="369.49" r="3.2" fill="#1d4ed8"/>
<circle cx="893.58" cy="369.89" r="3.2" fill="#1d4ed8"/>
<circle cx="897.55" cy="369.08" r="3.2" fill="#1d4ed8"/>
<circle cx="901.53" cy="368.68" r="3.2" fill="#1d4ed8"/>
<circle cx="905.51" cy="368.27" r="3.2" fill="#1d4ed8"/>
<circle cx="909.49" cy="367.87" r="3.2" fill="#1d4ed8"/>
<circle cx="913.47" cy="367.06" r="3.2" fill="#1d4ed8"/>
<circle cx="917.45" cy="367.46" r="3.2" fill="#1d4ed8"/>
<circle cx="921.42" cy="367.06" r="3.2" fill="#1d4ed8"/>
<circle cx="925.40" cy="366.25" r="3.2" fill="#1d4ed8"/>
<circle cx="929.38" cy="368.27" r="3.2" fill="#1d4ed8"/>
<circle cx="933.36" cy="368.68" r="3.2" fill="#1d4ed8"/>
<circle cx="937.34" cy="368.68" r="3.2" fill="#1d4ed8"/>
<circle cx="941.31" cy="368.27" r="3.2" fill="#1d4ed8"/>
<circle cx="945.29" cy="369.08" r="3.2" fill="#1d4ed8"/>
<circle cx="949.27" cy="367.87" r="3.2" fill="#1d4ed8"/>
<circle cx="953.25" cy="367.46" r="3.2" fill="#1d4ed8"/>
<circle cx="957.23" cy="367.06" r="3.2" fill="#1d4ed8"/>
<circle cx="961.20" cy="360.18" r="3.2" fill="#1d4ed8"/>
<circle cx="965.18" cy="359.78" r="3.2" fill="#1d4ed8"/>
<circle cx="969.16" cy="359.38" r="3.2" fill="#1d4ed8"/>
<circle cx="973.14" cy="356.95" r="3.2" fill="#1d4ed8"/>
<circle cx="977.12" cy="357.35" r="3.2" fill="#1d4ed8"/>
<circle cx="981.09" cy="357.76" r="3.2" fill="#1d4ed8"/>
<circle cx="985.07" cy="355.33" r="3.2" fill="#1d4ed8"/>
<circle cx="989.05" cy="355.74" r="3.2" fill="#1d4ed8"/>
<circle cx="993.03" cy="357.35" r="3.2" fill="#1d4ed8"/>
<circle cx="997.01" cy="355.33" r="3.2" fill="#1d4ed8"/>
<circle cx="1000.99" cy="356.14" r="3.2" fill="#1d4ed8"/>
<circle cx="1004.96" cy="355.74" r="3.2" fill="#1d4ed8"/>
<circle cx="1008.94" cy="356.14" r="3.2" fill="#1d4ed8"/>
<circle cx="1012.92" cy="354.12" r="3.2" fill="#1d4ed8"/>
<circle cx="1016.90" cy="354.93" r="3.2" fill="#1d4ed8"/>
<circle cx="1020.88" cy="356.14" r="3.2" fill="#1d4ed8"/>
<circle cx="1024.85" cy="354.52" r="3.2" fill="#1d4ed8"/>
<circle cx="1028.83" cy="353.71" r="3.2" fill="#1d4ed8"/>
<circle cx="1032.81" cy="354.12" r="3.2" fill="#1d4ed8"/>
<circle cx="1036.79" cy="354.93" r="3.2" fill="#1d4ed8"/>
<circle cx="1040.77" cy="352.90" r="3.2" fill="#1d4ed8"/>
<circle cx="1044.74" cy="353.71" r="3.2" fill="#1d4ed8"/>
<circle cx="1048.72" cy="353.31" r="3.2" fill="#1d4ed8"/>
<circle cx="1052.70" cy="353.31" r="3.2" fill="#1d4ed8"/>
<circle cx="1056.68" cy="354.52" r="3.2" fill="#1d4ed8"/>
<circle cx="1060.66" cy="352.90" r="3.2" fill="#1d4ed8"/>
<circle cx="1064.64" cy="352.50" r="3.2" fill="#1d4ed8"/>
<circle cx="1068.61" cy="352.50" r="3.2" fill="#1d4ed8"/>
<circle cx="1072.59" cy="353.31" r="3.2" fill="#1d4ed8"/>
<circle cx="1076.57" cy="352.50" r="3.2" fill="#1d4ed8"/>
<circle cx="1080.55" cy="353.71" r="3.2" fill="#1d4ed8"/>
<circle cx="1084.53" cy="354.12" r="3.2" fill="#1d4ed8"/>
<circle cx="1088.50" cy="352.50" r="3.2" fill="#1d4ed8"/>
<circle cx="1092.48" cy="352.90" r="3.2" fill="#1d4ed8"/>
<circle cx="1096.46" cy="352.50" r="3.2" fill="#1d4ed8"/>
<circle cx="1100.44" cy="352.10" r="3.2" fill="#1d4ed8"/>
<circle cx="1104.42" cy="351.69" r="3.2" fill="#1d4ed8"/>
<circle cx="1108.39" cy="352.10" r="3.2" fill="#1d4ed8"/>
<circle cx="1112.37" cy="354.12" r="3.2" fill="#1d4ed8"/>
<circle cx="1116.35" cy="352.50" r="3.2" fill="#1d4ed8"/>
<circle cx="1120.33" cy="352.10" r="3.2" fill="#1d4ed8"/>
<circle cx="1124.31" cy="352.10" r="3.2" fill="#1d4ed8"/>
<circle cx="1128.28" cy="349.67" r="3.2" fill="#1d4ed8"/>
<circle cx="1132.26" cy="349.67" r="3.2" fill="#1d4ed8"/>
<circle cx="1136.24" cy="350.88" r="3.2" fill="#1d4ed8"/>
<circle cx="1140.22" cy="351.29" r="3.2" fill="#1d4ed8"/>
<circle cx="1144.20" cy="350.48" r="3.2" fill="#1d4ed8"/>
<circle cx="1148.18" cy="352.10" r="3.2" fill="#1d4ed8"/>
<circle cx="1152.15" cy="350.48" r="3.2" fill="#1d4ed8"/>
<circle cx="1156.13" cy="350.48" r="3.2" fill="#1d4ed8"/>
<circle cx="1160.11" cy="350.48" r="3.2" fill="#1d4ed8"/>
<circle cx="1164.09" cy="350.07" r="3.2" fill="#1d4ed8"/>
<circle cx="1168.07" cy="348.46" r="3.2" fill="#1d4ed8"/>
<circle cx="1172.04" cy="351.29" r="3.2" fill="#1d4ed8"/>
<circle cx="1176.02" cy="349.67" r="3.2" fill="#1d4ed8"/>
<circle cx="1180.00" cy="351.29" r="3.2" fill="#1d4ed8"/>
<text x="635" y="695" text-anchor="middle" font-size="14" fill="#111" font-family="sans-serif">Date</text>
<text x="24" y="325" text-anchor="middle" font-size="14" fill="#111" transform="rotate(-90 24,325)" font-family="sans-serif">Passed files</text>
</svg>
