<?xml version="1.0" encoding="UTF-8"?>
<svg xmlns="http://www.w3.org/2000/svg" width="1280" height="720" viewBox="0 0 1280 720">
<rect width="100%" height="100%" fill="#ffffff"/>
<text x="640" y="30" text-anchor="middle" font-size="22" font-family="sans-serif">Roast passed files history</text>
<line x1="90" y1="600" x2="1180" y2="600" stroke="#333" stroke-width="1.5"/>
<line x1="90" y1="50" x2="90" y2="600" stroke="#333" stroke-width="1.5"/>
<line x1="90" y1="600.00" x2="1180" y2="600.00" stroke="#e5e7eb" stroke-width="1"/>
<text x="78" y="605.00" text-anchor="end" font-size="12" fill="#111" font-family="sans-serif">0</text>
<line x1="90" y1="397.79" x2="1180" y2="397.79" stroke="#e5e7eb" stroke-width="1"/>
<text x="78" y="402.79" text-anchor="end" font-size="12" fill="#111" font-family="sans-serif">500</text>
<line x1="90" y1="195.59" x2="1180" y2="195.59" stroke="#e5e7eb" stroke-width="1"/>
<text x="78" y="200.59" text-anchor="end" font-size="12" fill="#111" font-family="sans-serif">1000</text>
<line x1="90.00" y1="600" x2="90.00" y2="606" stroke="#333" stroke-width="1"/>
<text x="90.00" y="624" text-anchor="end" font-size="11" fill="#111" transform="rotate(-40 90.00,624)" font-family="sans-serif">2026-02-12</text>
<line x1="224.34" y1="600" x2="224.34" y2="606" stroke="#333" stroke-width="1"/>
<text x="224.34" y="624" text-anchor="end" font-size="11" fill="#111" transform="rotate(-40 224.34,624)" font-family="sans-serif">2026-02-17</text>
<line x1="358.68" y1="600" x2="358.68" y2="606" stroke="#333" stroke-width="1"/>
<text x="358.68" y="624" text-anchor="end" font-size="11" fill="#111" transform="rotate(-40 358.68,624)" font-family="sans-serif">2026-02-21</text>
<line x1="493.03" y1="600" x2="493.03" y2="606" stroke="#333" stroke-width="1"/>
<text x="493.03" y="624" text-anchor="end" font-size="11" fill="#111" transform="rotate(-40 493.03,624)" font-family="sans-serif">2026-02-25</text>
<line x1="627.37" y1="600" x2="627.37" y2="606" stroke="#333" stroke-width="1"/>
<text x="627.37" y="624" text-anchor="end" font-size="11" fill="#111" transform="rotate(-40 627.37,624)" font-family="sans-serif">2026-02-28</text>
<line x1="761.71" y1="600" x2="761.71" y2="606" stroke="#333" stroke-width="1"/>
<text x="761.71" y="624" text-anchor="end" font-size="11" fill="#111" transform="rotate(-40 761.71,624)" font-family="sans-serif">2026-03-05</text>
<line x1="896.05" y1="600" x2="896.05" y2="606" stroke="#333" stroke-width="1"/>
<text x="896.05" y="624" text-anchor="end" font-size="11" fill="#111" transform="rotate(-40 896.05,624)" font-family="sans-serif">2026-03-06</text>
<line x1="1030.39" y1="600" x2="1030.39" y2="606" stroke="#333" stroke-width="1"/>
<text x="1030.39" y="624" text-anchor="end" font-size="11" fill="#111" transform="rotate(-40 1030.39,624)" font-family="sans-serif">2026-03-11</text>
<line x1="1164.73" y1="600" x2="1164.73" y2="606" stroke="#333" stroke-width="1"/>
<text x="1164.73" y="624" text-anchor="end" font-size="11" fill="#111" transform="rotate(-40 1164.73,624)" font-family="sans-serif">2026-03-18</text>
<line x1="1180.00" y1="600" x2="1180.00" y2="606" stroke="#333" stroke-width="1"/>
<text x="1180.00" y="624" text-anchor="end" font-size="11" fill="#111" transform="rotate(-40 1180.00,624)" font-family="sans-serif">2026-03-18</text>
<line x1="90" y1="75.88" x2="1180" y2="75.88" stroke="#dc2626" stroke-width="1.5" stroke-dasharray="8,4"/>
<text x="1184" y="79.88" font-size="12" fill="#dc2626" font-family="sans-serif">Goal: 1296</text>
<polyline fill="none" stroke="#2563eb" stroke-width="3" points="90.00,540.55 93.05,538.53 96.11,536.91 99.16,534.49 102.21,534.49 105.27,533.27 108.32,532.46 111.37,532.87 114.43,532.06 117.48,532.46 120.53,532.06 123.59,568.46 126.64,568.46 129.69,566.43 132.75,545.00 135.80,545.00 138.85,544.19 141.90,543.79 144.96,543.79 148.01,543.38 151.06,541.76 154.12,541.36 157.17,540.96 160.22,540.96 163.28,539.34 166.33,539.34 169.38,556.73 172.44,556.73 175.49,555.51 178.54,551.07 181.60,538.93 184.65,538.93 187.70,538.93 190.76,538.12 193.81,536.91 196.86,536.91 199.92,536.51 202.97,536.51 206.02,556.73 209.08,556.73 212.13,556.73 215.18,556.73 218.24,535.29 221.29,535.29 224.34,535.29 227.39,535.29 230.45,534.49 233.50,534.08 236.55,533.68 239.61,532.87 242.66,532.06 245.71,532.06 248.77,531.25 251.82,530.85 254.87,530.44 257.93,530.04 260.98,530.04 264.03,529.23 267.09,529.23 270.14,529.23 273.19,528.42 276.25,528.42 279.30,527.61 282.35,527.21 285.41,526.80 288.46,526.40 291.51,525.18 294.57,523.57 297.62,523.57 300.67,523.16 303.73,522.76 306.78,522.35 309.83,521.54 312.89,519.52 315.94,517.50 318.99,517.50 322.04,517.50 325.10,517.50 328.15,517.50 331.20,517.50 334.26,517.10 337.31,516.69 340.36,515.48 343.42,515.07 346.47,514.67 349.52,513.86 352.58,514.26 355.63,512.24 358.68,511.84 361.74,511.84 364.79,511.03 367.84,509.82 370.90,507.79 373.95,506.99 377.00,506.58 380.06,509.41 383.11,509.01 386.16,504.96 389.22,504.56 392.27,504.15 395.32,504.56 398.38,503.75 401.43,503.75 404.48,503.35 407.54,499.30 410.59,496.47 413.64,490.00 416.69,484.34 419.75,481.10 422.80,480.29 425.85,480.70 428.91,460.88 431.96,459.26 435.01,458.05 438.07,456.03 441.12,456.03 444.17,454.41 447.23,450.77 450.28,444.30 453.33,443.90 456.39,600.00 459.44,441.88 462.49,440.66 465.55,439.45 468.60,439.04 471.65,438.64 474.71,437.83 477.76,436.62 480.81,436.62 483.87,434.60 486.92,432.17 489.97,429.34 493.03,428.93 496.08,428.53 499.13,427.72 502.18,426.91 505.24,426.10 508.29,426.10 511.34,426.10 514.40,419.63 517.45,419.23 520.50,418.42 523.56,418.01 526.61,417.61 529.66,417.61 532.72,417.61 535.77,417.21 538.82,417.21 541.88,413.57 544.93,411.95 547.98,412.76 551.04,410.74 554.09,410.74 557.14,410.33 560.20,410.33 563.25,410.33 566.30,409.93 569.36,409.93 572.41,409.93 575.46,409.52 578.52,409.52 581.57,409.12 584.62,409.52 587.68,409.12 590.73,407.50 593.78,407.10 596.83,403.05 599.89,399.82 602.94,400.22 605.99,400.62 609.05,400.62 612.10,399.41 615.15,392.94 618.21,391.32 621.26,389.30 624.31,389.30 627.37,388.49 630.42,375.15 633.47,374.74 636.53,374.74 639.58,374.74 642.63,374.74 645.69,374.34 648.74,374.34 651.79,374.34 654.85,374.34 657.90,374.34 660.95,373.93 664.01,373.12 667.06,372.72 670.11,373.53 673.17,435.81 676.22,372.32 679.27,372.72 682.32,371.91 685.38,371.91 688.43,372.32 691.48,371.10 694.54,369.89 697.59,369.89 700.64,369.89 703.70,369.49 706.75,369.89 709.80,369.08 712.86,368.68 715.91,368.27 718.96,367.87 722.02,367.06 725.07,367.46 728.12,367.06 731.18,366.25 734.23,368.27 737.28,368.68 740.34,368.68 743.39,368.27 746.44,369.08 749.50,367.87 752.55,367.46 755.60,367.06 758.66,360.18 761.71,359.78 764.76,359.38 767.82,356.95 770.87,357.35 773.92,357.76 776.97,355.33 780.03,355.74 783.08,357.35 786.13,355.33 789.19,356.14 792.24,355.74 795.29,356.14 798.35,354.12 801.40,354.93 804.45,356.14 807.51,354.52 810.56,353.71 813.61,354.12 816.67,354.93 819.72,352.90 822.77,353.71 825.83,353.31 828.88,353.31 831.93,354.52 834.99,352.90 838.04,352.50 841.09,352.50 844.15,353.31 847.20,352.50 850.25,353.71 853.31,354.12 856.36,352.50 859.41,352.90 862.46,352.50 865.52,352.10 868.57,351.69 871.62,352.10 874.68,354.12 877.73,352.50 880.78,352.10 883.84,352.10 886.89,349.67 889.94,349.67 893.00,350.88 896.05,351.29 899.10,350.48 902.16,352.10 905.21,350.48 908.26,350.48 911.32,350.48 914.37,350.07 917.42,348.46 920.48,351.29 923.53,349.67 926.58,351.29 929.64,349.67 932.69,348.86 935.74,348.46 938.80,348.46 941.85,347.24 944.90,348.86 947.96,346.84 951.01,348.46 954.06,348.86 957.11,346.84 960.17,349.26 963.22,348.05 966.27,349.26 969.33,349.26 972.38,350.48 975.43,352.90 978.49,349.67 981.54,348.46 984.59,345.62 987.65,344.82 990.70,344.41 993.75,342.39 996.81,341.18 999.86,341.58 1002.91,339.15 1005.97,338.35 1009.02,337.54 1012.07,336.73 1015.13,335.92 1018.18,337.54 1021.23,338.35 1024.29,337.54 1027.34,337.54 1030.39,337.54 1033.45,333.09 1036.50,333.90 1039.55,335.92 1042.61,336.73 1045.66,335.51 1048.71,332.28 1051.76,331.47 1054.82,331.07 1057.87,331.47 1060.92,331.07 1063.98,331.07 1067.03,331.07 1070.08,331.07 1073.14,331.07 1076.19,331.07 1079.24,331.07 1082.30,331.07 1085.35,331.07 1088.40,331.07 1091.46,331.47 1094.51,331.88 1097.56,331.07 1100.62,331.47 1103.67,331.07 1106.72,331.47 1109.78,331.07 1112.83,324.19 1115.88,324.19 1118.94,318.93 1121.99,316.51 1125.04,310.44 1128.10,308.01 1131.15,600.00 1134.20,301.54 1137.25,290.22 1140.31,287.79 1143.36,286.18 1146.41,285.77 1149.47,285.77 1152.52,285.77 1155.57,286.18 1158.63,285.77 1161.68,285.77 1164.73,285.77 1167.79,283.35 1170.84,282.94 1173.89,282.94 1176.95,283.35 1180.00,282.94"/>
<circle cx="90.00" cy="540.55" r="3.2" fill="#1d4ed8"/>
<circle cx="93.05" cy="538.53" r="3.2" fill="#1d4ed8"/>
<circle cx="96.11" cy="536.91" r="3.2" fill="#1d4ed8"/>
<circle cx="99.16" cy="534.49" r="3.2" fill="#1d4ed8"/>
<circle cx="102.21" cy="534.49" r="3.2" fill="#1d4ed8"/>
<circle cx="105.27" cy="533.27" r="3.2" fill="#1d4ed8"/>
<circle cx="108.32" cy="532.46" r="3.2" fill="#1d4ed8"/>
<circle cx="111.37" cy="532.87" r="3.2" fill="#1d4ed8"/>
<circle cx="114.43" cy="532.06" r="3.2" fill="#1d4ed8"/>
<circle cx="117.48" cy="532.46" r="3.2" fill="#1d4ed8"/>
<circle cx="120.53" cy="532.06" r="3.2" fill="#1d4ed8"/>
<circle cx="123.59" cy="568.46" r="3.2" fill="#1d4ed8"/>
<circle cx="126.64" cy="568.46" r="3.2" fill="#1d4ed8"/>
<circle cx="129.69" cy="566.43" r="3.2" fill="#1d4ed8"/>
<circle cx="132.75" cy="545.00" r="3.2" fill="#1d4ed8"/>
<circle cx="135.80" cy="545.00" r="3.2" fill="#1d4ed8"/>
<circle cx="138.85" cy="544.19" r="3.2" fill="#1d4ed8"/>
<circle cx="141.90" cy="543.79" r="3.2" fill="#1d4ed8"/>
<circle cx="144.96" cy="543.79" r="3.2" fill="#1d4ed8"/>
<circle cx="148.01" cy="543.38" r="3.2" fill="#1d4ed8"/>
<circle cx="151.06" cy="541.76" r="3.2" fill="#1d4ed8"/>
<circle cx="154.12" cy="541.36" r="3.2" fill="#1d4ed8"/>
<circle cx="157.17" cy="540.96" r="3.2" fill="#1d4ed8"/>
<circle cx="160.22" cy="540.96" r="3.2" fill="#1d4ed8"/>
<circle cx="163.28" cy="539.34" r="3.2" fill="#1d4ed8"/>
<circle cx="166.33" cy="539.34" r="3.2" fill="#1d4ed8"/>
<circle cx="169.38" cy="556.73" r="3.2" fill="#1d4ed8"/>
<circle cx="172.44" cy="556.73" r="3.2" fill="#1d4ed8"/>
<circle cx="175.49" cy="555.51" r="3.2" fill="#1d4ed8"/>
<circle cx="178.54" cy="551.07" r="3.2" fill="#1d4ed8"/>
<circle cx="181.60" cy="538.93" r="3.2" fill="#1d4ed8"/>
<circle cx="184.65" cy="538.93" r="3.2" fill="#1d4ed8"/>
<circle cx="187.70" cy="538.93" r="3.2" fill="#1d4ed8"/>
<circle cx="190.76" cy="538.12" r="3.2" fill="#1d4ed8"/>
<circle cx="193.81" cy="536.91" r="3.2" fill="#1d4ed8"/>
<circle cx="196.86" cy="536.91" r="3.2" fill="#1d4ed8"/>
<circle cx="199.92" cy="536.51" r="3.2" fill="#1d4ed8"/>
<circle cx="202.97" cy="536.51" r="3.2" fill="#1d4ed8"/>
<circle cx="206.02" cy="556.73" r="3.2" fill="#1d4ed8"/>
<circle cx="209.08" cy="556.73" r="3.2" fill="#1d4ed8"/>
<circle cx="212.13" cy="556.73" r="3.2" fill="#1d4ed8"/>
<circle cx="215.18" cy="556.73" r="3.2" fill="#1d4ed8"/>
<circle cx="218.24" cy="535.29" r="3.2" fill="#1d4ed8"/>
<circle cx="221.29" cy="535.29" r="3.2" fill="#1d4ed8"/>
<circle cx="224.34" cy="535.29" r="3.2" fill="#1d4ed8"/>
<circle cx="227.39" cy="535.29" r="3.2" fill="#1d4ed8"/>
<circle cx="230.45" cy="534.49" r="3.2" fill="#1d4ed8"/>
<circle cx="233.50" cy="534.08" r="3.2" fill="#1d4ed8"/>
<circle cx="236.55" cy="533.68" r="3.2" fill="#1d4ed8"/>
<circle cx="239.61" cy="532.87" r="3.2" fill="#1d4ed8"/>
<circle cx="242.66" cy="532.06" r="3.2" fill="#1d4ed8"/>
<circle cx="245.71" cy="532.06" r="3.2" fill="#1d4ed8"/>
<circle cx="248.77" cy="531.25" r="3.2" fill="#1d4ed8"/>
<circle cx="251.82" cy="530.85" r="3.2" fill="#1d4ed8"/>
<circle cx="254.87" cy="530.44" r="3.2" fill="#1d4ed8"/>
<circle cx="257.93" cy="530.04" r="3.2" fill="#1d4ed8"/>
<circle cx="260.98" cy="530.04" r="3.2" fill="#1d4ed8"/>
<circle cx="264.03" cy="529.23" r="3.2" fill="#1d4ed8"/>
<circle cx="267.09" cy="529.23" r="3.2" fill="#1d4ed8"/>
<circle cx="270.14" cy="529.23" r="3.2" fill="#1d4ed8"/>
<circle cx="273.19" cy="528.42" r="3.2" fill="#1d4ed8"/>
<circle cx="276.25" cy="528.42" r="3.2" fill="#1d4ed8"/>
<circle cx="279.30" cy="527.61" r="3.2" fill="#1d4ed8"/>
<circle cx="282.35" cy="527.21" r="3.2" fill="#1d4ed8"/>
<circle cx="285.41" cy="526.80" r="3.2" fill="#1d4ed8"/>
<circle cx="288.46" cy="526.40" r="3.2" fill="#1d4ed8"/>
<circle cx="291.51" cy="525.18" r="3.2" fill="#1d4ed8"/>
<circle cx="294.57" cy="523.57" r="3.2" fill="#1d4ed8"/>
<circle cx="297.62" cy="523.57" r="3.2" fill="#1d4ed8"/>
<circle cx="300.67" cy="523.16" r="3.2" fill="#1d4ed8"/>
<circle cx="303.73" cy="522.76" r="3.2" fill="#1d4ed8"/>
<circle cx="306.78" cy="522.35" r="3.2" fill="#1d4ed8"/>
<circle cx="309.83" cy="521.54" r="3.2" fill="#1d4ed8"/>
<circle cx="312.89" cy="519.52" r="3.2" fill="#1d4ed8"/>
<circle cx="315.94" cy="517.50" r="3.2" fill="#1d4ed8"/>
<circle cx="318.99" cy="517.50" r="3.2" fill="#1d4ed8"/>
<circle cx="322.04" cy="517.50" r="3.2" fill="#1d4ed8"/>
<circle cx="325.10" cy="517.50" r="3.2" fill="#1d4ed8"/>
<circle cx="328.15" cy="517.50" r="3.2" fill="#1d4ed8"/>
<circle cx="331.20" cy="517.50" r="3.2" fill="#1d4ed8"/>
<circle cx="334.26" cy="517.10" r="3.2" fill="#1d4ed8"/>
<circle cx="337.31" cy="516.69" r="3.2" fill="#1d4ed8"/>
<circle cx="340.36" cy="515.48" r="3.2" fill="#1d4ed8"/>
<circle cx="343.42" cy="515.07" r="3.2" fill="#1d4ed8"/>
<circle cx="346.47" cy="514.67" r="3.2" fill="#1d4ed8"/>
<circle cx="349.52" cy="513.86" r="3.2" fill="#1d4ed8"/>
<circle cx="352.58" cy="514.26" r="3.2" fill="#1d4ed8"/>
<circle cx="355.63" cy="512.24" r="3.2" fill="#1d4ed8"/>
<circle cx="358.68" cy="511.84" r="3.2" fill="#1d4ed8"/>
<circle cx="361.74" cy="511.84" r="3.2" fill="#1d4ed8"/>
<circle cx="364.79" cy="511.03" r="3.2" fill="#1d4ed8"/>
<circle cx="367.84" cy="509.82" r="3.2" fill="#1d4ed8"/>
<circle cx="370.90" cy="507.79" r="3.2" fill="#1d4ed8"/>
<circle cx="373.95" cy="506.99" r="3.2" fill="#1d4ed8"/>
<circle cx="377.00" cy="506.58" r="3.2" fill="#1d4ed8"/>
<circle cx="380.06" cy="509.41" r="3.2" fill="#1d4ed8"/>
<circle cx="383.11" cy="509.01" r="3.2" fill="#1d4ed8"/>
<circle cx="386.16" cy="504.96" r="3.2" fill="#1d4ed8"/>
<circle cx="389.22" cy="504.56" r="3.2" fill="#1d4ed8"/>
<circle cx="392.27" cy="504.15" r="3.2" fill="#1d4ed8"/>
<circle cx="395.32" cy="504.56" r="3.2" fill="#1d4ed8"/>
<circle cx="398.38" cy="503.75" r="3.2" fill="#1d4ed8"/>
<circle cx="401.43" cy="503.75" r="3.2" fill="#1d4ed8"/>
<circle cx="404.48" cy="503.35" r="3.2" fill="#1d4ed8"/>
<circle cx="407.54" cy="499.30" r="3.2" fill="#1d4ed8"/>
<circle cx="410.59" cy="496.47" r="3.2" fill="#1d4ed8"/>
<circle cx="413.64" cy="490.00" r="3.2" fill="#1d4ed8"/>
<circle cx="416.69" cy="484.34" r="3.2" fill="#1d4ed8"/>
<circle cx="419.75" cy="481.10" r="3.2" fill="#1d4ed8"/>
<circle cx="422.80" cy="480.29" r="3.2" fill="#1d4ed8"/>
<circle cx="425.85" cy="480.70" r="3.2" fill="#1d4ed8"/>
<circle cx="428.91" cy="460.88" r="3.2" fill="#1d4ed8"/>
<circle cx="431.96" cy="459.26" r="3.2" fill="#1d4ed8"/>
<circle cx="435.01" cy="458.05" r="3.2" fill="#1d4ed8"/>
<circle cx="438.07" cy="456.03" r="3.2" fill="#1d4ed8"/>
<circle cx="441.12" cy="456.03" r="3.2" fill="#1d4ed8"/>
<circle cx="444.17" cy="454.41" r="3.2" fill="#1d4ed8"/>
<circle cx="447.23" cy="450.77" r="3.2" fill="#1d4ed8"/>
<circle cx="450.28" cy="444.30" r="3.2" fill="#1d4ed8"/>
<circle cx="453.33" cy="443.90" r="3.2" fill="#1d4ed8"/>
<circle cx="456.39" cy="600.00" r="3.2" fill="#1d4ed8"/>
<circle cx="459.44" cy="441.88" r="3.2" fill="#1d4ed8"/>
<circle cx="462.49" cy="440.66" r="3.2" fill="#1d4ed8"/>
<circle cx="465.55" cy="439.45" r="3.2" fill="#1d4ed8"/>
<circle cx="468.60" cy="439.04" r="3.2" fill="#1d4ed8"/>
<circle cx="471.65" cy="438.64" r="3.2" fill="#1d4ed8"/>
<circle cx="474.71" cy="437.83" r="3.2" fill="#1d4ed8"/>
<circle cx="477.76" cy="436.62" r="3.2" fill="#1d4ed8"/>
<circle cx="480.81" cy="436.62" r="3.2" fill="#1d4ed8"/>
<circle cx="483.87" cy="434.60" r="3.2" fill="#1d4ed8"/>
<circle cx="486.92" cy="432.17" r="3.2" fill="#1d4ed8"/>
<circle cx="489.97" cy="429.34" r="3.2" fill="#1d4ed8"/>
<circle cx="493.03" cy="428.93" r="3.2" fill="#1d4ed8"/>
<circle cx="496.08" cy="428.53" r="3.2" fill="#1d4ed8"/>
<circle cx="499.13" cy="427.72" r="3.2" fill="#1d4ed8"/>
<circle cx="502.18" cy="426.91" r="3.2" fill="#1d4ed8"/>
<circle cx="505.24" cy="426.10" r="3.2" fill="#1d4ed8"/>
<circle cx="508.29" cy="426.10" r="3.2" fill="#1d4ed8"/>
<circle cx="511.34" cy="426.10" r="3.2" fill="#1d4ed8"/>
<circle cx="514.40" cy="419.63" r="3.2" fill="#1d4ed8"/>
<circle cx="517.45" cy="419.23" r="3.2" fill="#1d4ed8"/>
<circle cx="520.50" cy="418.42" r="3.2" fill="#1d4ed8"/>
<circle cx="523.56" cy="418.01" r="3.2" fill="#1d4ed8"/>
<circle cx="526.61" cy="417.61" r="3.2" fill="#1d4ed8"/>
<circle cx="529.66" cy="417.61" r="3.2" fill="#1d4ed8"/>
<circle cx="532.72" cy="417.61" r="3.2" fill="#1d4ed8"/>
<circle cx="535.77" cy="417.21" r="3.2" fill="#1d4ed8"/>
<circle cx="538.82" cy="417.21" r="3.2" fill="#1d4ed8"/>
<circle cx="541.88" cy="413.57" r="3.2" fill="#1d4ed8"/>
<circle cx="544.93" cy="411.95" r="3.2" fill="#1d4ed8"/>
<circle cx="547.98" cy="412.76" r="3.2" fill="#1d4ed8"/>
<circle cx="551.04" cy="410.74" r="3.2" fill="#1d4ed8"/>
<circle cx="554.09" cy="410.74" r="3.2" fill="#1d4ed8"/>
<circle cx="557.14" cy="410.33" r="3.2" fill="#1d4ed8"/>
<circle cx="560.20" cy="410.33" r="3.2" fill="#1d4ed8"/>
<circle cx="563.25" cy="410.33" r="3.2" fill="#1d4ed8"/>
<circle cx="566.30" cy="409.93" r="3.2" fill="#1d4ed8"/>
<circle cx="569.36" cy="409.93" r="3.2" fill="#1d4ed8"/>
<circle cx="572.41" cy="409.93" r="3.2" fill="#1d4ed8"/>
<circle cx="575.46" cy="409.52" r="3.2" fill="#1d4ed8"/>
<circle cx="578.52" cy="409.52" r="3.2" fill="#1d4ed8"/>
<circle cx="581.57" cy="409.12" r="3.2" fill="#1d4ed8"/>
<circle cx="584.62" cy="409.52" r="3.2" fill="#1d4ed8"/>
<circle cx="587.68" cy="409.12" r="3.2" fill="#1d4ed8"/>
<circle cx="590.73" cy="407.50" r="3.2" fill="#1d4ed8"/>
<circle cx="593.78" cy="407.10" r="3.2" fill="#1d4ed8"/>
<circle cx="596.83" cy="403.05" r="3.2" fill="#1d4ed8"/>
<circle cx="599.89" cy="399.82" r="3.2" fill="#1d4ed8"/>
<circle cx="602.94" cy="400.22" r="3.2" fill="#1d4ed8"/>
<circle cx="605.99" cy="400.62" r="3.2" fill="#1d4ed8"/>
<circle cx="609.05" cy="400.62" r="3.2" fill="#1d4ed8"/>
<circle cx="612.10" cy="399.41" r="3.2" fill="#1d4ed8"/>
<circle cx="615.15" cy="392.94" r="3.2" fill="#1d4ed8"/>
<circle cx="618.21" cy="391.32" r="3.2" fill="#1d4ed8"/>
<circle cx="621.26" cy="389.30" r="3.2" fill="#1d4ed8"/>
<circle cx="624.31" cy="389.30" r="3.2" fill="#1d4ed8"/>
<circle cx="627.37" cy="388.49" r="3.2" fill="#1d4ed8"/>
<circle cx="630.42" cy="375.15" r="3.2" fill="#1d4ed8"/>
<circle cx="633.47" cy="374.74" r="3.2" fill="#1d4ed8"/>
<circle cx="636.53" cy="374.74" r="3.2" fill="#1d4ed8"/>
<circle cx="639.58" cy="374.74" r="3.2" fill="#1d4ed8"/>
<circle cx="642.63" cy="374.74" r="3.2" fill="#1d4ed8"/>
<circle cx="645.69" cy="374.34" r="3.2" fill="#1d4ed8"/>
<circle cx="648.74" cy="374.34" r="3.2" fill="#1d4ed8"/>
<circle cx="651.79" cy="374.34" r="3.2" fill="#1d4ed8"/>
<circle cx="654.85" cy="374.34" r="3.2" fill="#1d4ed8"/>
<circle cx="657.90" cy="374.34" r="3.2" fill="#1d4ed8"/>
<circle cx="660.95" cy="373.93" r="3.2" fill="#1d4ed8"/>
<circle cx="664.01" cy="373.12" r="3.2" fill="#1d4ed8"/>
<circle cx="667.06" cy="372.72" r="3.2" fill="#1d4ed8"/>
<circle cx="670.11" cy="373.53" r="3.2" fill="#1d4ed8"/>
<circle cx="673.17" cy="435.81" r="3.2" fill="#1d4ed8"/>
<circle cx="676.22" cy="372.32" r="3.2" fill="#1d4ed8"/>
<circle cx="679.27" cy="372.72" r="3.2" fill="#1d4ed8"/>
<circle cx="682.32" cy="371.91" r="3.2" fill="#1d4ed8"/>
<circle cx="685.38" cy="371.91" r="3.2" fill="#1d4ed8"/>
<circle cx="688.43" cy="372.32" r="3.2" fill="#1d4ed8"/>
<circle cx="691.48" cy="371.10" r="3.2" fill="#1d4ed8"/>
<circle cx="694.54" cy="369.89" r="3.2" fill="#1d4ed8"/>
<circle cx="697.59" cy="369.89" r="3.2" fill="#1d4ed8"/>
<circle cx="700.64" cy="369.89" r="3.2" fill="#1d4ed8"/>
<circle cx="703.70" cy="369.49" r="3.2" fill="#1d4ed8"/>
<circle cx="706.75" cy="369.89" r="3.2" fill="#1d4ed8"/>
<circle cx="709.80" cy="369.08" r="3.2" fill="#1d4ed8"/>
<circle cx="712.86" cy="368.68" r="3.2" fill="#1d4ed8"/>
<circle cx="715.91" cy="368.27" r="3.2" fill="#1d4ed8"/>
<circle cx="718.96" cy="367.87" r="3.2" fill="#1d4ed8"/>
<circle cx="722.02" cy="367.06" r="3.2" fill="#1d4ed8"/>
<circle cx="725.07" cy="367.46" r="3.2" fill="#1d4ed8"/>
<circle cx="728.12" cy="367.06" r="3.2" fill="#1d4ed8"/>
<circle cx="731.18" cy="366.25" r="3.2" fill="#1d4ed8"/>
<circle cx="734.23" cy="368.27" r="3.2" fill="#1d4ed8"/>
<circle cx="737.28" cy="368.68" r="3.2" fill="#1d4ed8"/>
<circle cx="740.34" cy="368.68" r="3.2" fill="#1d4ed8"/>
<circle cx="743.39" cy="368.27" r="3.2" fill="#1d4ed8"/>
<circle cx="746.44" cy="369.08" r="3.2" fill="#1d4ed8"/>
<circle cx="749.50" cy="367.87" r="3.2" fill="#1d4ed8"/>
<circle cx="752.55" cy="367.46" r="3.2" fill="#1d4ed8"/>
<circle cx="755.60" cy="367.06" r="3.2" fill="#1d4ed8"/>
<circle cx="758.66" cy="360.18" r="3.2" fill="#1d4ed8"/>
<circle cx="761.71" cy="359.78" r="3.2" fill="#1d4ed8"/>
<circle cx="764.76" cy="359.38" r="3.2" fill="#1d4ed8"/>
<circle cx="767.82" cy="356.95" r="3.2" fill="#1d4ed8"/>
<circle cx="770.87" cy="357.35" r="3.2" fill="#1d4ed8"/>
<circle cx="773.92" cy="357.76" r="3.2" fill="#1d4ed8"/>
<circle cx="776.97" cy="355.33" r="3.2" fill="#1d4ed8"/>
<circle cx="780.03" cy="355.74" r="3.2" fill="#1d4ed8"/>
<circle cx="783.08" cy="357.35" r="3.2" fill="#1d4ed8"/>
<circle cx="786.13" cy="355.33" r="3.2" fill="#1d4ed8"/>
<circle cx="789.19" cy="356.14" r="3.2" fill="#1d4ed8"/>
<circle cx="792.24" cy="355.74" r="3.2" fill="#1d4ed8"/>
<circle cx="795.29" cy="356.14" r="3.2" fill="#1d4ed8"/>
<circle cx="798.35" cy="354.12" r="3.2" fill="#1d4ed8"/>
<circle cx="801.40" cy="354.93" r="3.2" fill="#1d4ed8"/>
<circle cx="804.45" cy="356.14" r="3.2" fill="#1d4ed8"/>
<circle cx="807.51" cy="354.52" r="3.2" fill="#1d4ed8"/>
<circle cx="810.56" cy="353.71" r="3.2" fill="#1d4ed8"/>
<circle cx="813.61" cy="354.12" r="3.2" fill="#1d4ed8"/>
<circle cx="816.67" cy="354.93" r="3.2" fill="#1d4ed8"/>
<circle cx="819.72" cy="352.90" r="3.2" fill="#1d4ed8"/>
<circle cx="822.77" cy="353.71" r="3.2" fill="#1d4ed8"/>
<circle cx="825.83" cy="353.31" r="3.2" fill="#1d4ed8"/>
<circle cx="828.88" cy="353.31" r="3.2" fill="#1d4ed8"/>
<circle cx="831.93" cy="354.52" r="3.2" fill="#1d4ed8"/>
<circle cx="834.99" cy="352.90" r="3.2" fill="#1d4ed8"/>
<circle cx="838.04" cy="352.50" r="3.2" fill="#1d4ed8"/>
<circle cx="841.09" cy="352.50" r="3.2" fill="#1d4ed8"/>
<circle cx="844.15" cy="353.31" r="3.2" fill="#1d4ed8"/>
<circle cx="847.20" cy="352.50" r="3.2" fill="#1d4ed8"/>
<circle cx="850.25" cy="353.71" r="3.2" fill="#1d4ed8"/>
<circle cx="853.31" cy="354.12" r="3.2" fill="#1d4ed8"/>
<circle cx="856.36" cy="352.50" r="3.2" fill="#1d4ed8"/>
<circle cx="859.41" cy="352.90" r="3.2" fill="#1d4ed8"/>
<circle cx="862.46" cy="352.50" r="3.2" fill="#1d4ed8"/>
<circle cx="865.52" cy="352.10" r="3.2" fill="#1d4ed8"/>
<circle cx="868.57" cy="351.69" r="3.2" fill="#1d4ed8"/>
<circle cx="871.62" cy="352.10" r="3.2" fill="#1d4ed8"/>
<circle cx="874.68" cy="354.12" r="3.2" fill="#1d4ed8"/>
<circle cx="877.73" cy="352.50" r="3.2" fill="#1d4ed8"/>
<circle cx="880.78" cy="352.10" r="3.2" fill="#1d4ed8"/>
<circle cx="883.84" cy="352.10" r="3.2" fill="#1d4ed8"/>
<circle cx="886.89" cy="349.67" r="3.2" fill="#1d4ed8"/>
<circle cx="889.94" cy="349.67" r="3.2" fill="#1d4ed8"/>
<circle cx="893.00" cy="350.88" r="3.2" fill="#1d4ed8"/>
<circle cx="896.05" cy="351.29" r="3.2" fill="#1d4ed8"/>
<circle cx="899.10" cy="350.48" r="3.2" fill="#1d4ed8"/>
<circle cx="902.16" cy="352.10" r="3.2" fill="#1d4ed8"/>
<circle cx="905.21" cy="350.48" r="3.2" fill="#1d4ed8"/>
<circle cx="908.26" cy="350.48" r="3.2" fill="#1d4ed8"/>
<circle cx="911.32" cy="350.48" r="3.2" fill="#1d4ed8"/>
<circle cx="914.37" cy="350.07" r="3.2" fill="#1d4ed8"/>
<circle cx="917.42" cy="348.46" r="3.2" fill="#1d4ed8"/>
<circle cx="920.48" cy="351.29" r="3.2" fill="#1d4ed8"/>
<circle cx="923.53" cy="349.67" r="3.2" fill="#1d4ed8"/>
<circle cx="926.58" cy="351.29" r="3.2" fill="#1d4ed8"/>
<circle cx="929.64" cy="349.67" r="3.2" fill="#1d4ed8"/>
<circle cx="932.69" cy="348.86" r="3.2" fill="#1d4ed8"/>
<circle cx="935.74" cy="348.46" r="3.2" fill="#1d4ed8"/>
<circle cx="938.80" cy="348.46" r="3.2" fill="#1d4ed8"/>
<circle cx="941.85" cy="347.24" r="3.2" fill="#1d4ed8"/>
<circle cx="944.90" cy="348.86" r="3.2" fill="#1d4ed8"/>
<circle cx="947.96" cy="346.84" r="3.2" fill="#1d4ed8"/>
<circle cx="951.01" cy="348.46" r="3.2" fill="#1d4ed8"/>
<circle cx="954.06" cy="348.86" r="3.2" fill="#1d4ed8"/>
<circle cx="957.11" cy="346.84" r="3.2" fill="#1d4ed8"/>
<circle cx="960.17" cy="349.26" r="3.2" fill="#1d4ed8"/>
<circle cx="963.22" cy="348.05" r="3.2" fill="#1d4ed8"/>
<circle cx="966.27" cy="349.26" r="3.2" fill="#1d4ed8"/>
<circle cx="969.33" cy="349.26" r="3.2" fill="#1d4ed8"/>
<circle cx="972.38" cy="350.48" r="3.2" fill="#1d4ed8"/>
<circle cx="975.43" cy="352.90" r="3.2" fill="#1d4ed8"/>
<circle cx="978.49" cy="349.67" r="3.2" fill="#1d4ed8"/>
<circle cx="981.54" cy="348.46" r="3.2" fill="#1d4ed8"/>
<circle cx="984.59" cy="345.62" r="3.2" fill="#1d4ed8"/>
<circle cx="987.65" cy="344.82" r="3.2" fill="#1d4ed8"/>
<circle cx="990.70" cy="344.41" r="3.2" fill="#1d4ed8"/>
<circle cx="993.75" cy="342.39" r="3.2" fill="#1d4ed8"/>
<circle cx="996.81" cy="341.18" r="3.2" fill="#1d4ed8"/>
<circle cx="999.86" cy="341.58" r="3.2" fill="#1d4ed8"/>
<circle cx="1002.91" cy="339.15" r="3.2" fill="#1d4ed8"/>
<circle cx="1005.97" cy="338.35" r="3.2" fill="#1d4ed8"/>
<circle cx="1009.02" cy="337.54" r="3.2" fill="#1d4ed8"/>
<circle cx="1012.07" cy="336.73" r="3.2" fill="#1d4ed8"/>
<circle cx="1015.13" cy="335.92" r="3.2" fill="#1d4ed8"/>
<circle cx="1018.18" cy="337.54" r="3.2" fill="#1d4ed8"/>
<circle cx="1021.23" cy="338.35" r="3.2" fill="#1d4ed8"/>
<circle cx="1024.29" cy="337.54" r="3.2" fill="#1d4ed8"/>
<circle cx="1027.34" cy="337.54" r="3.2" fill="#1d4ed8"/>
<circle cx="1030.39" cy="337.54" r="3.2" fill="#1d4ed8"/>
<circle cx="1033.45" cy="333.09" r="3.2" fill="#1d4ed8"/>
<circle cx="1036.50" cy="333.90" r="3.2" fill="#1d4ed8"/>
<circle cx="1039.55" cy="335.92" r="3.2" fill="#1d4ed8"/>
<circle cx="1042.61" cy="336.73" r="3.2" fill="#1d4ed8"/>
<circle cx="1045.66" cy="335.51" r="3.2" fill="#1d4ed8"/>
<circle cx="1048.71" cy="332.28" r="3.2" fill="#1d4ed8"/>
<circle cx="1051.76" cy="331.47" r="3.2" fill="#1d4ed8"/>
<circle cx="1054.82" cy="331.07" r="3.2" fill="#1d4ed8"/>
<circle cx="1057.87" cy="331.47" r="3.2" fill="#1d4ed8"/>
<circle cx="1060.92" cy="331.07" r="3.2" fill="#1d4ed8"/>
<circle cx="1063.98" cy="331.07" r="3.2" fill="#1d4ed8"/>
<circle cx="1067.03" cy="331.07" r="3.2" fill="#1d4ed8"/>
<circle cx="1070.08" cy="331.07" r="3.2" fill="#1d4ed8"/>
<circle cx="1073.14" cy="331.07" r="3.2" fill="#1d4ed8"/>
<circle cx="1076.19" cy="331.07" r="3.2" fill="#1d4ed8"/>
<circle cx="1079.24" cy="331.07" r="3.2" fill="#1d4ed8"/>
<circle cx="1082.30" cy="331.07" r="3.2" fill="#1d4ed8"/>
<circle cx="1085.35" cy="331.07" r="3.2" fill="#1d4ed8"/>
<circle cx="1088.40" cy="331.07" r="3.2" fill="#1d4ed8"/>
<circle cx="1091.46" cy="331.47" r="3.2" fill="#1d4ed8"/>
<circle cx="1094.51" cy="331.88" r="3.2" fill="#1d4ed8"/>
<circle cx="1097.56" cy="331.07" r="3.2" fill="#1d4ed8"/>
<circle cx="1100.62" cy="331.47" r="3.2" fill="#1d4ed8"/>
<circle cx="1103.67" cy="331.07" r="3.2" fill="#1d4ed8"/>
<circle cx="1106.72" cy="331.47" r="3.2" fill="#1d4ed8"/>
<circle cx="1109.78" cy="331.07" r="3.2" fill="#1d4ed8"/>
<circle cx="1112.83" cy="324.19" r="3.2" fill="#1d4ed8"/>
<circle cx="1115.88" cy="324.19" r="3.2" fill="#1d4ed8"/>
<circle cx="1118.94" cy="318.93" r="3.2" fill="#1d4ed8"/>
<circle cx="1121.99" cy="316.51" r="3.2" fill="#1d4ed8"/>
<circle cx="1125.04" cy="310.44" r="3.2" fill="#1d4ed8"/>
<circle cx="1128.10" cy="308.01" r="3.2" fill="#1d4ed8"/>
<circle cx="1131.15" cy="600.00" r="3.2" fill="#1d4ed8"/>
<circle cx="1134.20" cy="301.54" r="3.2" fill="#1d4ed8"/>
<circle cx="1137.25" cy="290.22" r="3.2" fill="#1d4ed8"/>
<circle cx="1140.31" cy="287.79" r="3.2" fill="#1d4ed8"/>
<circle cx="1143.36" cy="286.18" r="3.2" fill="#1d4ed8"/>
<circle cx="1146.41" cy="285.77" r="3.2" fill="#1d4ed8"/>
<circle cx="1149.47" cy="285.77" r="3.2" fill="#1d4ed8"/>
<circle cx="1152.52" cy="285.77" r="3.2" fill="#1d4ed8"/>
<circle cx="1155.57" cy="286.18" r="3.2" fill="#1d4ed8"/>
<circle cx="1158.63" cy="285.77" r="3.2" fill="#1d4ed8"/>
<circle cx="1161.68" cy="285.77" r="3.2" fill="#1d4ed8"/>
<circle cx="1164.73" cy="285.77" r="3.2" fill="#1d4ed8"/>
<circle cx="1167.79" cy="283.35" r="3.2" fill="#1d4ed8"/>
<circle cx="1170.84" cy="282.94" r="3.2" fill="#1d4ed8"/>
<circle cx="1173.89" cy="282.94" r="3.2" fill="#1d4ed8"/>
<circle cx="1176.95" cy="283.35" r="3.2" fill="#1d4ed8"/>
<circle cx="1180.00" cy="282.94" r="3.2" fill="#1d4ed8"/>
<text x="635" y="695" text-anchor="middle" font-size="14" fill="#111" font-family="sans-serif">Date</text>
<text x="24" y="325" text-anchor="middle" font-size="14" fill="#111" transform="rotate(-90 24,325)" font-family="sans-serif">Passed files</text>
</svg>
