<?xml version="1.0" encoding="UTF-8"?>
<svg xmlns="http://www.w3.org/2000/svg" width="1280" height="720" viewBox="0 0 1280 720">
<rect width="100%" height="100%" fill="#ffffff"/>
<text x="640" y="30" text-anchor="middle" font-size="22" font-family="sans-serif">Roast passed files history</text>
<line x1="90" y1="600" x2="1180" y2="600" stroke="#333" stroke-width="1.5"/>
<line x1="90" y1="50" x2="90" y2="600" stroke="#333" stroke-width="1.5"/>
<line x1="90" y1="600.00" x2="1180" y2="600.00" stroke="#e5e7eb" stroke-width="1"/>
<text x="78" y="605.00" text-anchor="end" font-size="12" fill="#111" font-family="sans-serif">0</text>
<line x1="90" y1="397.79" x2="1180" y2="397.79" stroke="#e5e7eb" stroke-width="1"/>
<text x="78" y="402.79" text-anchor="end" font-size="12" fill="#111" font-family="sans-serif">500</text>
<line x1="90" y1="195.59" x2="1180" y2="195.59" stroke="#e5e7eb" stroke-width="1"/>
<text x="78" y="200.59" text-anchor="end" font-size="12" fill="#111" font-family="sans-serif">1000</text>
<line x1="90.00" y1="600" x2="90.00" y2="606" stroke="#333" stroke-width="1"/>
<text x="90.00" y="624" text-anchor="end" font-size="11" fill="#111" transform="rotate(-40 90.00,624)" font-family="sans-serif">2026-02-12</text>
<line x1="226.99" y1="600" x2="226.99" y2="606" stroke="#333" stroke-width="1"/>
<text x="226.99" y="624" text-anchor="end" font-size="11" fill="#111" transform="rotate(-40 226.99,624)" font-family="sans-serif">2026-02-15</text>
<line x1="363.99" y1="600" x2="363.99" y2="606" stroke="#333" stroke-width="1"/>
<text x="363.99" y="624" text-anchor="end" font-size="11" fill="#111" transform="rotate(-40 363.99,624)" font-family="sans-serif">2026-02-17</text>
<line x1="500.98" y1="600" x2="500.98" y2="606" stroke="#333" stroke-width="1"/>
<text x="500.98" y="624" text-anchor="end" font-size="11" fill="#111" transform="rotate(-40 500.98,624)" font-family="sans-serif">2026-02-19</text>
<line x1="637.98" y1="600" x2="637.98" y2="606" stroke="#333" stroke-width="1"/>
<text x="637.98" y="624" text-anchor="end" font-size="11" fill="#111" transform="rotate(-40 637.98,624)" font-family="sans-serif">2026-02-22</text>
<line x1="774.97" y1="600" x2="774.97" y2="606" stroke="#333" stroke-width="1"/>
<text x="774.97" y="624" text-anchor="end" font-size="11" fill="#111" transform="rotate(-40 774.97,624)" font-family="sans-serif">2026-02-24</text>
<line x1="911.97" y1="600" x2="911.97" y2="606" stroke="#333" stroke-width="1"/>
<text x="911.97" y="624" text-anchor="end" font-size="11" fill="#111" transform="rotate(-40 911.97,624)" font-family="sans-serif">2026-02-25</text>
<line x1="1048.96" y1="600" x2="1048.96" y2="606" stroke="#333" stroke-width="1"/>
<text x="1048.96" y="624" text-anchor="end" font-size="11" fill="#111" transform="rotate(-40 1048.96,624)" font-family="sans-serif">2026-02-27</text>
<line x1="1180.00" y1="600" x2="1180.00" y2="606" stroke="#333" stroke-width="1"/>
<text x="1180.00" y="624" text-anchor="end" font-size="11" fill="#111" transform="rotate(-40 1180.00,624)" font-family="sans-serif">2026-02-28</text>
<line x1="90" y1="75.88" x2="1180" y2="75.88" stroke="#dc2626" stroke-width="1.5" stroke-dasharray="8,4"/>
<text x="1184" y="79.88" font-size="12" fill="#dc2626" font-family="sans-serif">Goal: 1296</text>
<polyline fill="none" stroke="#2563eb" stroke-width="3" points="90.00,540.55 95.96,538.53 101.91,536.91 107.87,534.49 113.83,534.49 119.78,533.27 125.74,532.46 131.69,532.87 137.65,532.06 143.61,532.46 149.56,532.06 155.52,568.46 161.48,568.46 167.43,566.43 173.39,545.00 179.34,545.00 185.30,544.19 191.26,543.79 197.21,543.79 203.17,543.38 209.13,541.76 215.08,541.36 221.04,540.96 226.99,540.96 232.95,539.34 238.91,539.34 244.86,556.73 250.82,556.73 256.78,555.51 262.73,551.07 268.69,538.93 274.64,538.93 280.60,538.93 286.56,538.12 292.51,536.91 298.47,536.91 304.43,536.51 310.38,536.51 316.34,556.73 322.30,556.73 328.25,556.73 334.21,556.73 340.16,535.29 346.12,535.29 352.08,535.29 358.03,535.29 363.99,534.49 369.95,534.08 375.90,533.68 381.86,532.87 387.81,532.06 393.77,532.06 399.73,531.25 405.68,530.85 411.64,530.44 417.60,530.04 423.55,530.04 429.51,529.23 435.46,529.23 441.42,529.23 447.38,528.42 453.33,528.42 459.29,527.61 465.25,527.21 471.20,526.80 477.16,526.40 483.11,525.18 489.07,523.57 495.03,523.57 500.98,523.16 506.94,522.76 512.90,522.35 518.85,521.54 524.81,519.52 530.77,517.50 536.72,517.50 542.68,517.50 548.63,517.50 554.59,517.50 560.55,517.50 566.50,517.10 572.46,516.69 578.42,515.48 584.37,515.07 590.33,514.67 596.28,513.86 602.24,514.26 608.20,512.24 614.15,511.84 620.11,511.84 626.07,511.03 632.02,509.82 637.98,507.79 643.93,506.99 649.89,506.58 655.85,509.41 661.80,509.01 667.76,504.96 673.72,504.56 679.67,504.15 685.63,504.56 691.58,503.75 697.54,503.75 703.50,503.35 709.45,499.30 715.41,496.47 721.37,490.00 727.32,484.34 733.28,481.10 739.23,480.29 745.19,480.70 751.15,460.88 757.10,459.26 763.06,458.05 769.02,456.03 774.97,456.03 780.93,454.41 786.89,450.77 792.84,444.30 798.80,443.90 804.75,600.00 810.71,441.88 816.67,440.66 822.62,439.45 828.58,439.04 834.54,438.64 840.49,437.83 846.45,436.62 852.40,436.62 858.36,434.60 864.32,432.17 870.27,429.34 876.23,428.93 882.19,428.53 888.14,427.72 894.10,426.91 900.05,426.10 906.01,426.10 911.97,426.10 917.92,419.63 923.88,419.23 929.84,418.42 935.79,418.01 941.75,417.61 947.70,417.61 953.66,417.61 959.62,417.21 965.57,417.21 971.53,413.57 977.49,411.95 983.44,412.76 989.40,410.74 995.36,410.74 1001.31,410.33 1007.27,410.33 1013.22,410.33 1019.18,409.93 1025.14,409.93 1031.09,409.93 1037.05,409.52 1043.01,409.52 1048.96,409.12 1054.92,409.52 1060.87,409.12 1066.83,407.50 1072.79,407.10 1078.74,403.05 1084.70,399.82 1090.66,400.22 1096.61,400.62 1102.57,400.62 1108.52,399.41 1114.48,392.94 1120.44,391.32 1126.39,389.30 1132.35,389.30 1138.31,388.49 1144.26,375.15 1150.22,374.74 1156.17,374.74 1162.13,374.74 1168.09,374.74 1174.04,374.34 1180.00,374.34"/>
<circle cx="90.00" cy="540.55" r="3.2" fill="#1d4ed8"/>
<circle cx="95.96" cy="538.53" r="3.2" fill="#1d4ed8"/>
<circle cx="101.91" cy="536.91" r="3.2" fill="#1d4ed8"/>
<circle cx="107.87" cy="534.49" r="3.2" fill="#1d4ed8"/>
<circle cx="113.83" cy="534.49" r="3.2" fill="#1d4ed8"/>
<circle cx="119.78" cy="533.27" r="3.2" fill="#1d4ed8"/>
<circle cx="125.74" cy="532.46" r="3.2" fill="#1d4ed8"/>
<circle cx="131.69" cy="532.87" r="3.2" fill="#1d4ed8"/>
<circle cx="137.65" cy="532.06" r="3.2" fill="#1d4ed8"/>
<circle cx="143.61" cy="532.46" r="3.2" fill="#1d4ed8"/>
<circle cx="149.56" cy="532.06" r="3.2" fill="#1d4ed8"/>
<circle cx="155.52" cy="568.46" r="3.2" fill="#1d4ed8"/>
<circle cx="161.48" cy="568.46" r="3.2" fill="#1d4ed8"/>
<circle cx="167.43" cy="566.43" r="3.2" fill="#1d4ed8"/>
<circle cx="173.39" cy="545.00" r="3.2" fill="#1d4ed8"/>
<circle cx="179.34" cy="545.00" r="3.2" fill="#1d4ed8"/>
<circle cx="185.30" cy="544.19" r="3.2" fill="#1d4ed8"/>
<circle cx="191.26" cy="543.79" r="3.2" fill="#1d4ed8"/>
<circle cx="197.21" cy="543.79" r="3.2" fill="#1d4ed8"/>
<circle cx="203.17" cy="543.38" r="3.2" fill="#1d4ed8"/>
<circle cx="209.13" cy="541.76" r="3.2" fill="#1d4ed8"/>
<circle cx="215.08" cy="541.36" r="3.2" fill="#1d4ed8"/>
<circle cx="221.04" cy="540.96" r="3.2" fill="#1d4ed8"/>
<circle cx="226.99" cy="540.96" r="3.2" fill="#1d4ed8"/>
<circle cx="232.95" cy="539.34" r="3.2" fill="#1d4ed8"/>
<circle cx="238.91" cy="539.34" r="3.2" fill="#1d4ed8"/>
<circle cx="244.86" cy="556.73" r="3.2" fill="#1d4ed8"/>
<circle cx="250.82" cy="556.73" r="3.2" fill="#1d4ed8"/>
<circle cx="256.78" cy="555.51" r="3.2" fill="#1d4ed8"/>
<circle cx="262.73" cy="551.07" r="3.2" fill="#1d4ed8"/>
<circle cx="268.69" cy="538.93" r="3.2" fill="#1d4ed8"/>
<circle cx="274.64" cy="538.93" r="3.2" fill="#1d4ed8"/>
<circle cx="280.60" cy="538.93" r="3.2" fill="#1d4ed8"/>
<circle cx="286.56" cy="538.12" r="3.2" fill="#1d4ed8"/>
<circle cx="292.51" cy="536.91" r="3.2" fill="#1d4ed8"/>
<circle cx="298.47" cy="536.91" r="3.2" fill="#1d4ed8"/>
<circle cx="304.43" cy="536.51" r="3.2" fill="#1d4ed8"/>
<circle cx="310.38" cy="536.51" r="3.2" fill="#1d4ed8"/>
<circle cx="316.34" cy="556.73" r="3.2" fill="#1d4ed8"/>
<circle cx="322.30" cy="556.73" r="3.2" fill="#1d4ed8"/>
<circle cx="328.25" cy="556.73" r="3.2" fill="#1d4ed8"/>
<circle cx="334.21" cy="556.73" r="3.2" fill="#1d4ed8"/>
<circle cx="340.16" cy="535.29" r="3.2" fill="#1d4ed8"/>
<circle cx="346.12" cy="535.29" r="3.2" fill="#1d4ed8"/>
<circle cx="352.08" cy="535.29" r="3.2" fill="#1d4ed8"/>
<circle cx="358.03" cy="535.29" r="3.2" fill="#1d4ed8"/>
<circle cx="363.99" cy="534.49" r="3.2" fill="#1d4ed8"/>
<circle cx="369.95" cy="534.08" r="3.2" fill="#1d4ed8"/>
<circle cx="375.90" cy="533.68" r="3.2" fill="#1d4ed8"/>
<circle cx="381.86" cy="532.87" r="3.2" fill="#1d4ed8"/>
<circle cx="387.81" cy="532.06" r="3.2" fill="#1d4ed8"/>
<circle cx="393.77" cy="532.06" r="3.2" fill="#1d4ed8"/>
<circle cx="399.73" cy="531.25" r="3.2" fill="#1d4ed8"/>
<circle cx="405.68" cy="530.85" r="3.2" fill="#1d4ed8"/>
<circle cx="411.64" cy="530.44" r="3.2" fill="#1d4ed8"/>
<circle cx="417.60" cy="530.04" r="3.2" fill="#1d4ed8"/>
<circle cx="423.55" cy="530.04" r="3.2" fill="#1d4ed8"/>
<circle cx="429.51" cy="529.23" r="3.2" fill="#1d4ed8"/>
<circle cx="435.46" cy="529.23" r="3.2" fill="#1d4ed8"/>
<circle cx="441.42" cy="529.23" r="3.2" fill="#1d4ed8"/>
<circle cx="447.38" cy="528.42" r="3.2" fill="#1d4ed8"/>
<circle cx="453.33" cy="528.42" r="3.2" fill="#1d4ed8"/>
<circle cx="459.29" cy="527.61" r="3.2" fill="#1d4ed8"/>
<circle cx="465.25" cy="527.21" r="3.2" fill="#1d4ed8"/>
<circle cx="471.20" cy="526.80" r="3.2" fill="#1d4ed8"/>
<circle cx="477.16" cy="526.40" r="3.2" fill="#1d4ed8"/>
<circle cx="483.11" cy="525.18" r="3.2" fill="#1d4ed8"/>
<circle cx="489.07" cy="523.57" r="3.2" fill="#1d4ed8"/>
<circle cx="495.03" cy="523.57" r="3.2" fill="#1d4ed8"/>
<circle cx="500.98" cy="523.16" r="3.2" fill="#1d4ed8"/>
<circle cx="506.94" cy="522.76" r="3.2" fill="#1d4ed8"/>
<circle cx="512.90" cy="522.35" r="3.2" fill="#1d4ed8"/>
<circle cx="518.85" cy="521.54" r="3.2" fill="#1d4ed8"/>
<circle cx="524.81" cy="519.52" r="3.2" fill="#1d4ed8"/>
<circle cx="530.77" cy="517.50" r="3.2" fill="#1d4ed8"/>
<circle cx="536.72" cy="517.50" r="3.2" fill="#1d4ed8"/>
<circle cx="542.68" cy="517.50" r="3.2" fill="#1d4ed8"/>
<circle cx="548.63" cy="517.50" r="3.2" fill="#1d4ed8"/>
<circle cx="554.59" cy="517.50" r="3.2" fill="#1d4ed8"/>
<circle cx="560.55" cy="517.50" r="3.2" fill="#1d4ed8"/>
<circle cx="566.50" cy="517.10" r="3.2" fill="#1d4ed8"/>
<circle cx="572.46" cy="516.69" r="3.2" fill="#1d4ed8"/>
<circle cx="578.42" cy="515.48" r="3.2" fill="#1d4ed8"/>
<circle cx="584.37" cy="515.07" r="3.2" fill="#1d4ed8"/>
<circle cx="590.33" cy="514.67" r="3.2" fill="#1d4ed8"/>
<circle cx="596.28" cy="513.86" r="3.2" fill="#1d4ed8"/>
<circle cx="602.24" cy="514.26" r="3.2" fill="#1d4ed8"/>
<circle cx="608.20" cy="512.24" r="3.2" fill="#1d4ed8"/>
<circle cx="614.15" cy="511.84" r="3.2" fill="#1d4ed8"/>
<circle cx="620.11" cy="511.84" r="3.2" fill="#1d4ed8"/>
<circle cx="626.07" cy="511.03" r="3.2" fill="#1d4ed8"/>
<circle cx="632.02" cy="509.82" r="3.2" fill="#1d4ed8"/>
<circle cx="637.98" cy="507.79" r="3.2" fill="#1d4ed8"/>
<circle cx="643.93" cy="506.99" r="3.2" fill="#1d4ed8"/>
<circle cx="649.89" cy="506.58" r="3.2" fill="#1d4ed8"/>
<circle cx="655.85" cy="509.41" r="3.2" fill="#1d4ed8"/>
<circle cx="661.80" cy="509.01" r="3.2" fill="#1d4ed8"/>
<circle cx="667.76" cy="504.96" r="3.2" fill="#1d4ed8"/>
<circle cx="673.72" cy="504.56" r="3.2" fill="#1d4ed8"/>
<circle cx="679.67" cy="504.15" r="3.2" fill="#1d4ed8"/>
<circle cx="685.63" cy="504.56" r="3.2" fill="#1d4ed8"/>
<circle cx="691.58" cy="503.75" r="3.2" fill="#1d4ed8"/>
<circle cx="697.54" cy="503.75" r="3.2" fill="#1d4ed8"/>
<circle cx="703.50" cy="503.35" r="3.2" fill="#1d4ed8"/>
<circle cx="709.45" cy="499.30" r="3.2" fill="#1d4ed8"/>
<circle cx="715.41" cy="496.47" r="3.2" fill="#1d4ed8"/>
<circle cx="721.37" cy="490.00" r="3.2" fill="#1d4ed8"/>
<circle cx="727.32" cy="484.34" r="3.2" fill="#1d4ed8"/>
<circle cx="733.28" cy="481.10" r="3.2" fill="#1d4ed8"/>
<circle cx="739.23" cy="480.29" r="3.2" fill="#1d4ed8"/>
<circle cx="745.19" cy="480.70" r="3.2" fill="#1d4ed8"/>
<circle cx="751.15" cy="460.88" r="3.2" fill="#1d4ed8"/>
<circle cx="757.10" cy="459.26" r="3.2" fill="#1d4ed8"/>
<circle cx="763.06" cy="458.05" r="3.2" fill="#1d4ed8"/>
<circle cx="769.02" cy="456.03" r="3.2" fill="#1d4ed8"/>
<circle cx="774.97" cy="456.03" r="3.2" fill="#1d4ed8"/>
<circle cx="780.93" cy="454.41" r="3.2" fill="#1d4ed8"/>
<circle cx="786.89" cy="450.77" r="3.2" fill="#1d4ed8"/>
<circle cx="792.84" cy="444.30" r="3.2" fill="#1d4ed8"/>
<circle cx="798.80" cy="443.90" r="3.2" fill="#1d4ed8"/>
<circle cx="804.75" cy="600.00" r="3.2" fill="#1d4ed8"/>
<circle cx="810.71" cy="441.88" r="3.2" fill="#1d4ed8"/>
<circle cx="816.67" cy="440.66" r="3.2" fill="#1d4ed8"/>
<circle cx="822.62" cy="439.45" r="3.2" fill="#1d4ed8"/>
<circle cx="828.58" cy="439.04" r="3.2" fill="#1d4ed8"/>
<circle cx="834.54" cy="438.64" r="3.2" fill="#1d4ed8"/>
<circle cx="840.49" cy="437.83" r="3.2" fill="#1d4ed8"/>
<circle cx="846.45" cy="436.62" r="3.2" fill="#1d4ed8"/>
<circle cx="852.40" cy="436.62" r="3.2" fill="#1d4ed8"/>
<circle cx="858.36" cy="434.60" r="3.2" fill="#1d4ed8"/>
<circle cx="864.32" cy="432.17" r="3.2" fill="#1d4ed8"/>
<circle cx="870.27" cy="429.34" r="3.2" fill="#1d4ed8"/>
<circle cx="876.23" cy="428.93" r="3.2" fill="#1d4ed8"/>
<circle cx="882.19" cy="428.53" r="3.2" fill="#1d4ed8"/>
<circle cx="888.14" cy="427.72" r="3.2" fill="#1d4ed8"/>
<circle cx="894.10" cy="426.91" r="3.2" fill="#1d4ed8"/>
<circle cx="900.05" cy="426.10" r="3.2" fill="#1d4ed8"/>
<circle cx="906.01" cy="426.10" r="3.2" fill="#1d4ed8"/>
<circle cx="911.97" cy="426.10" r="3.2" fill="#1d4ed8"/>
<circle cx="917.92" cy="419.63" r="3.2" fill="#1d4ed8"/>
<circle cx="923.88" cy="419.23" r="3.2" fill="#1d4ed8"/>
<circle cx="929.84" cy="418.42" r="3.2" fill="#1d4ed8"/>
<circle cx="935.79" cy="418.01" r="3.2" fill="#1d4ed8"/>
<circle cx="941.75" cy="417.61" r="3.2" fill="#1d4ed8"/>
<circle cx="947.70" cy="417.61" r="3.2" fill="#1d4ed8"/>
<circle cx="953.66" cy="417.61" r="3.2" fill="#1d4ed8"/>
<circle cx="959.62" cy="417.21" r="3.2" fill="#1d4ed8"/>
<circle cx="965.57" cy="417.21" r="3.2" fill="#1d4ed8"/>
<circle cx="971.53" cy="413.57" r="3.2" fill="#1d4ed8"/>
<circle cx="977.49" cy="411.95" r="3.2" fill="#1d4ed8"/>
<circle cx="983.44" cy="412.76" r="3.2" fill="#1d4ed8"/>
<circle cx="989.40" cy="410.74" r="3.2" fill="#1d4ed8"/>
<circle cx="995.36" cy="410.74" r="3.2" fill="#1d4ed8"/>
<circle cx="1001.31" cy="410.33" r="3.2" fill="#1d4ed8"/>
<circle cx="1007.27" cy="410.33" r="3.2" fill="#1d4ed8"/>
<circle cx="1013.22" cy="410.33" r="3.2" fill="#1d4ed8"/>
<circle cx="1019.18" cy="409.93" r="3.2" fill="#1d4ed8"/>
<circle cx="1025.14" cy="409.93" r="3.2" fill="#1d4ed8"/>
<circle cx="1031.09" cy="409.93" r="3.2" fill="#1d4ed8"/>
<circle cx="1037.05" cy="409.52" r="3.2" fill="#1d4ed8"/>
<circle cx="1043.01" cy="409.52" r="3.2" fill="#1d4ed8"/>
<circle cx="1048.96" cy="409.12" r="3.2" fill="#1d4ed8"/>
<circle cx="1054.92" cy="409.52" r="3.2" fill="#1d4ed8"/>
<circle cx="1060.87" cy="409.12" r="3.2" fill="#1d4ed8"/>
<circle cx="1066.83" cy="407.50" r="3.2" fill="#1d4ed8"/>
<circle cx="1072.79" cy="407.10" r="3.2" fill="#1d4ed8"/>
<circle cx="1078.74" cy="403.05" r="3.2" fill="#1d4ed8"/>
<circle cx="1084.70" cy="399.82" r="3.2" fill="#1d4ed8"/>
<circle cx="1090.66" cy="400.22" r="3.2" fill="#1d4ed8"/>
<circle cx="1096.61" cy="400.62" r="3.2" fill="#1d4ed8"/>
<circle cx="1102.57" cy="400.62" r="3.2" fill="#1d4ed8"/>
<circle cx="1108.52" cy="399.41" r="3.2" fill="#1d4ed8"/>
<circle cx="1114.48" cy="392.94" r="3.2" fill="#1d4ed8"/>
<circle cx="1120.44" cy="391.32" r="3.2" fill="#1d4ed8"/>
<circle cx="1126.39" cy="389.30" r="3.2" fill="#1d4ed8"/>
<circle cx="1132.35" cy="389.30" r="3.2" fill="#1d4ed8"/>
<circle cx="1138.31" cy="388.49" r="3.2" fill="#1d4ed8"/>
<circle cx="1144.26" cy="375.15" r="3.2" fill="#1d4ed8"/>
<circle cx="1150.22" cy="374.74" r="3.2" fill="#1d4ed8"/>
<circle cx="1156.17" cy="374.74" r="3.2" fill="#1d4ed8"/>
<circle cx="1162.13" cy="374.74" r="3.2" fill="#1d4ed8"/>
<circle cx="1168.09" cy="374.74" r="3.2" fill="#1d4ed8"/>
<circle cx="1174.04" cy="374.34" r="3.2" fill="#1d4ed8"/>
<circle cx="1180.00" cy="374.34" r="3.2" fill="#1d4ed8"/>
<text x="635" y="695" text-anchor="middle" font-size="14" fill="#111" font-family="sans-serif">Date</text>
<text x="24" y="325" text-anchor="middle" font-size="14" fill="#111" transform="rotate(-90 24,325)" font-family="sans-serif">Passed files</text>
</svg>
