<?xml version="1.0" encoding="UTF-8"?>
<svg xmlns="http://www.w3.org/2000/svg" width="1280" height="720" viewBox="0 0 1280 720">
<rect width="100%" height="100%" fill="#ffffff"/>
<text x="640" y="30" text-anchor="middle" font-size="22" font-family="sans-serif">Roast passed files history</text>
<line x1="90" y1="600" x2="1180" y2="600" stroke="#333" stroke-width="1.5"/>
<line x1="90" y1="50" x2="90" y2="600" stroke="#333" stroke-width="1.5"/>
<line x1="90" y1="600.00" x2="1180" y2="600.00" stroke="#e5e7eb" stroke-width="1"/>
<text x="78" y="605.00" text-anchor="end" font-size="12" fill="#111" font-family="sans-serif">0</text>
<line x1="90" y1="397.79" x2="1180" y2="397.79" stroke="#e5e7eb" stroke-width="1"/>
<text x="78" y="402.79" text-anchor="end" font-size="12" fill="#111" font-family="sans-serif">500</text>
<line x1="90" y1="195.59" x2="1180" y2="195.59" stroke="#e5e7eb" stroke-width="1"/>
<text x="78" y="200.59" text-anchor="end" font-size="12" fill="#111" font-family="sans-serif">1000</text>
<line x1="90.00" y1="600" x2="90.00" y2="606" stroke="#333" stroke-width="1"/>
<text x="90.00" y="624" text-anchor="end" font-size="11" fill="#111" transform="rotate(-40 90.00,624)" font-family="sans-serif">2026-02-12</text>
<line x1="225.92" y1="600" x2="225.92" y2="606" stroke="#333" stroke-width="1"/>
<text x="225.92" y="624" text-anchor="end" font-size="11" fill="#111" transform="rotate(-40 225.92,624)" font-family="sans-serif">2026-02-18</text>
<line x1="361.83" y1="600" x2="361.83" y2="606" stroke="#333" stroke-width="1"/>
<text x="361.83" y="624" text-anchor="end" font-size="11" fill="#111" transform="rotate(-40 361.83,624)" font-family="sans-serif">2026-02-23</text>
<line x1="497.75" y1="600" x2="497.75" y2="606" stroke="#333" stroke-width="1"/>
<text x="497.75" y="624" text-anchor="end" font-size="11" fill="#111" transform="rotate(-40 497.75,624)" font-family="sans-serif">2026-02-26</text>
<line x1="633.67" y1="600" x2="633.67" y2="606" stroke="#333" stroke-width="1"/>
<text x="633.67" y="624" text-anchor="end" font-size="11" fill="#111" transform="rotate(-40 633.67,624)" font-family="sans-serif">2026-03-01</text>
<line x1="769.58" y1="600" x2="769.58" y2="606" stroke="#333" stroke-width="1"/>
<text x="769.58" y="624" text-anchor="end" font-size="11" fill="#111" transform="rotate(-40 769.58,624)" font-family="sans-serif">2026-03-06</text>
<line x1="905.50" y1="600" x2="905.50" y2="606" stroke="#333" stroke-width="1"/>
<text x="905.50" y="624" text-anchor="end" font-size="11" fill="#111" transform="rotate(-40 905.50,624)" font-family="sans-serif">2026-03-11</text>
<line x1="1041.42" y1="600" x2="1041.42" y2="606" stroke="#333" stroke-width="1"/>
<text x="1041.42" y="624" text-anchor="end" font-size="11" fill="#111" transform="rotate(-40 1041.42,624)" font-family="sans-serif">2026-03-18</text>
<line x1="1177.33" y1="600" x2="1177.33" y2="606" stroke="#333" stroke-width="1"/>
<text x="1177.33" y="624" text-anchor="end" font-size="11" fill="#111" transform="rotate(-40 1177.33,624)" font-family="sans-serif">2026-03-19</text>
<line x1="1180.00" y1="600" x2="1180.00" y2="606" stroke="#333" stroke-width="1"/>
<text x="1180.00" y="624" text-anchor="end" font-size="11" fill="#111" transform="rotate(-40 1180.00,624)" font-family="sans-serif">2026-03-19</text>
<line x1="90" y1="75.88" x2="1180" y2="75.88" stroke="#dc2626" stroke-width="1.5" stroke-dasharray="8,4"/>
<text x="1184" y="79.88" font-size="12" fill="#dc2626" font-family="sans-serif">Goal: 1296</text>
<polyline fill="none" stroke="#2563eb" stroke-width="3" points="90.00,540.55 92.67,538.53 95.33,536.91 98.00,534.49 100.66,534.49 103.33,533.27 105.99,532.46 108.66,532.87 111.32,532.06 113.99,532.46 116.65,532.06 119.32,568.46 121.98,568.46 124.65,566.43 127.31,545.00 129.98,545.00 132.64,544.19 135.31,543.79 137.97,543.79 140.64,543.38 143.30,541.76 145.97,541.36 148.63,540.96 151.30,540.96 153.96,539.34 156.63,539.34 159.29,556.73 161.96,556.73 164.62,555.51 167.29,551.07 169.95,538.93 172.62,538.93 175.28,538.93 177.95,538.12 180.61,536.91 183.28,536.91 185.94,536.51 188.61,536.51 191.27,556.73 193.94,556.73 196.60,556.73 199.27,556.73 201.93,535.29 204.60,535.29 207.26,535.29 209.93,535.29 212.59,534.49 215.26,534.08 217.92,533.68 220.59,532.87 223.25,532.06 225.92,532.06 228.58,531.25 231.25,530.85 233.91,530.44 236.58,530.04 239.24,530.04 241.91,529.23 244.57,529.23 247.24,529.23 249.90,528.42 252.57,528.42 255.23,527.61 257.90,527.21 260.56,526.80 263.23,526.40 265.89,525.18 268.56,523.57 271.22,523.57 273.89,523.16 276.55,522.76 279.22,522.35 281.88,521.54 284.55,519.52 287.21,517.50 289.88,517.50 292.54,517.50 295.21,517.50 297.87,517.50 300.54,517.50 303.20,517.10 305.87,516.69 308.53,515.48 311.20,515.07 313.86,514.67 316.53,513.86 319.19,514.26 321.86,512.24 324.52,511.84 327.19,511.84 329.85,511.03 332.52,509.82 335.18,507.79 337.85,506.99 340.51,506.58 343.18,509.41 345.84,509.01 348.51,504.96 351.17,504.56 353.84,504.15 356.50,504.56 359.17,503.75 361.83,503.75 364.50,503.35 367.16,499.30 369.83,496.47 372.49,490.00 375.16,484.34 377.82,481.10 380.49,480.29 383.15,480.70 385.82,460.88 388.48,459.26 391.15,458.05 393.81,456.03 396.48,456.03 399.14,454.41 401.81,450.77 404.47,444.30 407.14,443.90 409.80,600.00 412.47,441.88 415.13,440.66 417.80,439.45 420.46,439.04 423.13,438.64 425.79,437.83 428.46,436.62 431.12,436.62 433.79,434.60 436.45,432.17 439.12,429.34 441.78,428.93 444.45,428.53 447.11,427.72 449.78,426.91 452.44,426.10 455.11,426.10 457.78,426.10 460.44,419.63 463.11,419.23 465.77,418.42 468.44,418.01 471.10,417.61 473.77,417.61 476.43,417.61 479.10,417.21 481.76,417.21 484.43,413.57 487.09,411.95 489.76,412.76 492.42,410.74 495.09,410.74 497.75,410.33 500.42,410.33 503.08,410.33 505.75,409.93 508.41,409.93 511.08,409.93 513.74,409.52 516.41,409.52 519.07,409.12 521.74,409.52 524.40,409.12 527.07,407.50 529.73,407.10 532.40,403.05 535.06,399.82 537.73,400.22 540.39,400.62 543.06,400.62 545.72,399.41 548.39,392.94 551.05,391.32 553.72,389.30 556.38,389.30 559.05,388.49 561.71,375.15 564.38,374.74 567.04,374.74 569.71,374.74 572.37,374.74 575.04,374.34 577.70,374.34 580.37,374.34 583.03,374.34 585.70,374.34 588.36,373.93 591.03,373.12 593.69,372.72 596.36,373.53 599.02,435.81 601.69,372.32 604.35,372.72 607.02,371.91 609.68,371.91 612.35,372.32 615.01,371.10 617.68,369.89 620.34,369.89 623.01,369.89 625.67,369.49 628.34,369.89 631.00,369.08 633.67,368.68 636.33,368.27 639.00,367.87 641.66,367.06 644.33,367.46 646.99,367.06 649.66,366.25 652.32,368.27 654.99,368.68 657.65,368.68 660.32,368.27 662.98,369.08 665.65,367.87 668.31,367.46 670.98,367.06 673.64,360.18 676.31,359.78 678.97,359.38 681.64,356.95 684.30,357.35 686.97,357.76 689.63,355.33 692.30,355.74 694.96,357.35 697.63,355.33 700.29,356.14 702.96,355.74 705.62,356.14 708.29,354.12 710.95,354.93 713.62,356.14 716.28,354.52 718.95,353.71 721.61,354.12 724.28,354.93 726.94,352.90 729.61,353.71 732.27,353.31 734.94,353.31 737.60,354.52 740.27,352.90 742.93,352.50 745.60,352.50 748.26,353.31 750.93,352.50 753.59,353.71 756.26,354.12 758.92,352.50 761.59,352.90 764.25,352.50 766.92,352.10 769.58,351.69 772.25,352.10 774.91,354.12 777.58,352.50 780.24,352.10 782.91,352.10 785.57,349.67 788.24,349.67 790.90,350.88 793.57,351.29 796.23,350.48 798.90,352.10 801.56,350.48 804.23,350.48 806.89,350.48 809.56,350.07 812.22,348.46 814.89,351.29 817.56,349.67 820.22,351.29 822.89,349.67 825.55,348.86 828.22,348.46 830.88,348.46 833.55,347.24 836.21,348.86 838.88,346.84 841.54,348.46 844.21,348.86 846.87,346.84 849.54,349.26 852.20,348.05 854.87,349.26 857.53,349.26 860.20,350.48 862.86,352.90 865.53,349.67 868.19,348.46 870.86,345.62 873.52,344.82 876.19,344.41 878.85,342.39 881.52,341.18 884.18,341.58 886.85,339.15 889.51,338.35 892.18,337.54 894.84,336.73 897.51,335.92 900.17,337.54 902.84,338.35 905.50,337.54 908.17,337.54 910.83,337.54 913.50,333.09 916.16,333.90 918.83,335.92 921.49,336.73 924.16,335.51 926.82,332.28 929.49,331.47 932.15,331.07 934.82,331.47 937.48,331.07 940.15,331.07 942.81,331.07 945.48,331.07 948.14,331.07 950.81,331.07 953.47,331.07 956.14,331.07 958.80,331.07 961.47,331.07 964.13,331.47 966.80,331.88 969.46,331.07 972.13,331.47 974.79,331.07 977.46,331.47 980.12,331.07 982.79,324.19 985.45,324.19 988.12,318.93 990.78,316.51 993.45,310.44 996.11,308.01 998.78,600.00 1001.44,301.54 1004.11,290.22 1006.77,287.79 1009.44,286.18 1012.10,285.77 1014.77,285.77 1017.43,285.77 1020.10,286.18 1022.76,285.77 1025.43,285.77 1028.09,285.77 1030.76,283.35 1033.42,282.94 1036.09,282.94 1038.75,283.35 1041.42,282.94 1044.08,282.94 1046.75,283.75 1049.41,282.13 1052.08,282.13 1054.74,282.54 1057.41,282.13 1060.07,282.54 1062.74,282.94 1065.40,281.73 1068.07,282.54 1070.73,281.73 1073.40,282.54 1076.06,282.13 1078.73,282.13 1081.39,281.73 1084.06,281.73 1086.72,281.32 1089.39,281.73 1092.05,282.13 1094.72,281.32 1097.38,281.32 1100.05,282.54 1102.71,282.13 1105.38,281.32 1108.04,281.32 1110.71,281.32 1113.37,282.54 1116.04,282.13 1118.70,281.32 1121.37,282.13 1124.03,281.73 1126.70,282.13 1129.36,280.11 1132.03,280.11 1134.69,280.51 1137.36,279.71 1140.02,280.11 1142.69,280.51 1145.35,279.71 1148.02,280.11 1150.68,280.11 1153.35,279.30 1156.01,278.90 1158.68,278.90 1161.34,280.51 1164.01,279.30 1166.67,278.09 1169.34,278.49 1172.00,278.49 1174.67,277.28 1177.33,277.68 1180.00,277.68"/>
<circle cx="90.00" cy="540.55" r="3.2" fill="#1d4ed8"/>
<circle cx="92.67" cy="538.53" r="3.2" fill="#1d4ed8"/>
<circle cx="95.33" cy="536.91" r="3.2" fill="#1d4ed8"/>
<circle cx="98.00" cy="534.49" r="3.2" fill="#1d4ed8"/>
<circle cx="100.66" cy="534.49" r="3.2" fill="#1d4ed8"/>
<circle cx="103.33" cy="533.27" r="3.2" fill="#1d4ed8"/>
<circle cx="105.99" cy="532.46" r="3.2" fill="#1d4ed8"/>
<circle cx="108.66" cy="532.87" r="3.2" fill="#1d4ed8"/>
<circle cx="111.32" cy="532.06" r="3.2" fill="#1d4ed8"/>
<circle cx="113.99" cy="532.46" r="3.2" fill="#1d4ed8"/>
<circle cx="116.65" cy="532.06" r="3.2" fill="#1d4ed8"/>
<circle cx="119.32" cy="568.46" r="3.2" fill="#1d4ed8"/>
<circle cx="121.98" cy="568.46" r="3.2" fill="#1d4ed8"/>
<circle cx="124.65" cy="566.43" r="3.2" fill="#1d4ed8"/>
<circle cx="127.31" cy="545.00" r="3.2" fill="#1d4ed8"/>
<circle cx="129.98" cy="545.00" r="3.2" fill="#1d4ed8"/>
<circle cx="132.64" cy="544.19" r="3.2" fill="#1d4ed8"/>
<circle cx="135.31" cy="543.79" r="3.2" fill="#1d4ed8"/>
<circle cx="137.97" cy="543.79" r="3.2" fill="#1d4ed8"/>
<circle cx="140.64" cy="543.38" r="3.2" fill="#1d4ed8"/>
<circle cx="143.30" cy="541.76" r="3.2" fill="#1d4ed8"/>
<circle cx="145.97" cy="541.36" r="3.2" fill="#1d4ed8"/>
<circle cx="148.63" cy="540.96" r="3.2" fill="#1d4ed8"/>
<circle cx="151.30" cy="540.96" r="3.2" fill="#1d4ed8"/>
<circle cx="153.96" cy="539.34" r="3.2" fill="#1d4ed8"/>
<circle cx="156.63" cy="539.34" r="3.2" fill="#1d4ed8"/>
<circle cx="159.29" cy="556.73" r="3.2" fill="#1d4ed8"/>
<circle cx="161.96" cy="556.73" r="3.2" fill="#1d4ed8"/>
<circle cx="164.62" cy="555.51" r="3.2" fill="#1d4ed8"/>
<circle cx="167.29" cy="551.07" r="3.2" fill="#1d4ed8"/>
<circle cx="169.95" cy="538.93" r="3.2" fill="#1d4ed8"/>
<circle cx="172.62" cy="538.93" r="3.2" fill="#1d4ed8"/>
<circle cx="175.28" cy="538.93" r="3.2" fill="#1d4ed8"/>
<circle cx="177.95" cy="538.12" r="3.2" fill="#1d4ed8"/>
<circle cx="180.61" cy="536.91" r="3.2" fill="#1d4ed8"/>
<circle cx="183.28" cy="536.91" r="3.2" fill="#1d4ed8"/>
<circle cx="185.94" cy="536.51" r="3.2" fill="#1d4ed8"/>
<circle cx="188.61" cy="536.51" r="3.2" fill="#1d4ed8"/>
<circle cx="191.27" cy="556.73" r="3.2" fill="#1d4ed8"/>
<circle cx="193.94" cy="556.73" r="3.2" fill="#1d4ed8"/>
<circle cx="196.60" cy="556.73" r="3.2" fill="#1d4ed8"/>
<circle cx="199.27" cy="556.73" r="3.2" fill="#1d4ed8"/>
<circle cx="201.93" cy="535.29" r="3.2" fill="#1d4ed8"/>
<circle cx="204.60" cy="535.29" r="3.2" fill="#1d4ed8"/>
<circle cx="207.26" cy="535.29" r="3.2" fill="#1d4ed8"/>
<circle cx="209.93" cy="535.29" r="3.2" fill="#1d4ed8"/>
<circle cx="212.59" cy="534.49" r="3.2" fill="#1d4ed8"/>
<circle cx="215.26" cy="534.08" r="3.2" fill="#1d4ed8"/>
<circle cx="217.92" cy="533.68" r="3.2" fill="#1d4ed8"/>
<circle cx="220.59" cy="532.87" r="3.2" fill="#1d4ed8"/>
<circle cx="223.25" cy="532.06" r="3.2" fill="#1d4ed8"/>
<circle cx="225.92" cy="532.06" r="3.2" fill="#1d4ed8"/>
<circle cx="228.58" cy="531.25" r="3.2" fill="#1d4ed8"/>
<circle cx="231.25" cy="530.85" r="3.2" fill="#1d4ed8"/>
<circle cx="233.91" cy="530.44" r="3.2" fill="#1d4ed8"/>
<circle cx="236.58" cy="530.04" r="3.2" fill="#1d4ed8"/>
<circle cx="239.24" cy="530.04" r="3.2" fill="#1d4ed8"/>
<circle cx="241.91" cy="529.23" r="3.2" fill="#1d4ed8"/>
<circle cx="244.57" cy="529.23" r="3.2" fill="#1d4ed8"/>
<circle cx="247.24" cy="529.23" r="3.2" fill="#1d4ed8"/>
<circle cx="249.90" cy="528.42" r="3.2" fill="#1d4ed8"/>
<circle cx="252.57" cy="528.42" r="3.2" fill="#1d4ed8"/>
<circle cx="255.23" cy="527.61" r="3.2" fill="#1d4ed8"/>
<circle cx="257.90" cy="527.21" r="3.2" fill="#1d4ed8"/>
<circle cx="260.56" cy="526.80" r="3.2" fill="#1d4ed8"/>
<circle cx="263.23" cy="526.40" r="3.2" fill="#1d4ed8"/>
<circle cx="265.89" cy="525.18" r="3.2" fill="#1d4ed8"/>
<circle cx="268.56" cy="523.57" r="3.2" fill="#1d4ed8"/>
<circle cx="271.22" cy="523.57" r="3.2" fill="#1d4ed8"/>
<circle cx="273.89" cy="523.16" r="3.2" fill="#1d4ed8"/>
<circle cx="276.55" cy="522.76" r="3.2" fill="#1d4ed8"/>
<circle cx="279.22" cy="522.35" r="3.2" fill="#1d4ed8"/>
<circle cx="281.88" cy="521.54" r="3.2" fill="#1d4ed8"/>
<circle cx="284.55" cy="519.52" r="3.2" fill="#1d4ed8"/>
<circle cx="287.21" cy="517.50" r="3.2" fill="#1d4ed8"/>
<circle cx="289.88" cy="517.50" r="3.2" fill="#1d4ed8"/>
<circle cx="292.54" cy="517.50" r="3.2" fill="#1d4ed8"/>
<circle cx="295.21" cy="517.50" r="3.2" fill="#1d4ed8"/>
<circle cx="297.87" cy="517.50" r="3.2" fill="#1d4ed8"/>
<circle cx="300.54" cy="517.50" r="3.2" fill="#1d4ed8"/>
<circle cx="303.20" cy="517.10" r="3.2" fill="#1d4ed8"/>
<circle cx="305.87" cy="516.69" r="3.2" fill="#1d4ed8"/>
<circle cx="308.53" cy="515.48" r="3.2" fill="#1d4ed8"/>
<circle cx="311.20" cy="515.07" r="3.2" fill="#1d4ed8"/>
<circle cx="313.86" cy="514.67" r="3.2" fill="#1d4ed8"/>
<circle cx="316.53" cy="513.86" r="3.2" fill="#1d4ed8"/>
<circle cx="319.19" cy="514.26" r="3.2" fill="#1d4ed8"/>
<circle cx="321.86" cy="512.24" r="3.2" fill="#1d4ed8"/>
<circle cx="324.52" cy="511.84" r="3.2" fill="#1d4ed8"/>
<circle cx="327.19" cy="511.84" r="3.2" fill="#1d4ed8"/>
<circle cx="329.85" cy="511.03" r="3.2" fill="#1d4ed8"/>
<circle cx="332.52" cy="509.82" r="3.2" fill="#1d4ed8"/>
<circle cx="335.18" cy="507.79" r="3.2" fill="#1d4ed8"/>
<circle cx="337.85" cy="506.99" r="3.2" fill="#1d4ed8"/>
<circle cx="340.51" cy="506.58" r="3.2" fill="#1d4ed8"/>
<circle cx="343.18" cy="509.41" r="3.2" fill="#1d4ed8"/>
<circle cx="345.84" cy="509.01" r="3.2" fill="#1d4ed8"/>
<circle cx="348.51" cy="504.96" r="3.2" fill="#1d4ed8"/>
<circle cx="351.17" cy="504.56" r="3.2" fill="#1d4ed8"/>
<circle cx="353.84" cy="504.15" r="3.2" fill="#1d4ed8"/>
<circle cx="356.50" cy="504.56" r="3.2" fill="#1d4ed8"/>
<circle cx="359.17" cy="503.75" r="3.2" fill="#1d4ed8"/>
<circle cx="361.83" cy="503.75" r="3.2" fill="#1d4ed8"/>
<circle cx="364.50" cy="503.35" r="3.2" fill="#1d4ed8"/>
<circle cx="367.16" cy="499.30" r="3.2" fill="#1d4ed8"/>
<circle cx="369.83" cy="496.47" r="3.2" fill="#1d4ed8"/>
<circle cx="372.49" cy="490.00" r="3.2" fill="#1d4ed8"/>
<circle cx="375.16" cy="484.34" r="3.2" fill="#1d4ed8"/>
<circle cx="377.82" cy="481.10" r="3.2" fill="#1d4ed8"/>
<circle cx="380.49" cy="480.29" r="3.2" fill="#1d4ed8"/>
<circle cx="383.15" cy="480.70" r="3.2" fill="#1d4ed8"/>
<circle cx="385.82" cy="460.88" r="3.2" fill="#1d4ed8"/>
<circle cx="388.48" cy="459.26" r="3.2" fill="#1d4ed8"/>
<circle cx="391.15" cy="458.05" r="3.2" fill="#1d4ed8"/>
<circle cx="393.81" cy="456.03" r="3.2" fill="#1d4ed8"/>
<circle cx="396.48" cy="456.03" r="3.2" fill="#1d4ed8"/>
<circle cx="399.14" cy="454.41" r="3.2" fill="#1d4ed8"/>
<circle cx="401.81" cy="450.77" r="3.2" fill="#1d4ed8"/>
<circle cx="404.47" cy="444.30" r="3.2" fill="#1d4ed8"/>
<circle cx="407.14" cy="443.90" r="3.2" fill="#1d4ed8"/>
<circle cx="409.80" cy="600.00" r="3.2" fill="#1d4ed8"/>
<circle cx="412.47" cy="441.88" r="3.2" fill="#1d4ed8"/>
<circle cx="415.13" cy="440.66" r="3.2" fill="#1d4ed8"/>
<circle cx="417.80" cy="439.45" r="3.2" fill="#1d4ed8"/>
<circle cx="420.46" cy="439.04" r="3.2" fill="#1d4ed8"/>
<circle cx="423.13" cy="438.64" r="3.2" fill="#1d4ed8"/>
<circle cx="425.79" cy="437.83" r="3.2" fill="#1d4ed8"/>
<circle cx="428.46" cy="436.62" r="3.2" fill="#1d4ed8"/>
<circle cx="431.12" cy="436.62" r="3.2" fill="#1d4ed8"/>
<circle cx="433.79" cy="434.60" r="3.2" fill="#1d4ed8"/>
<circle cx="436.45" cy="432.17" r="3.2" fill="#1d4ed8"/>
<circle cx="439.12" cy="429.34" r="3.2" fill="#1d4ed8"/>
<circle cx="441.78" cy="428.93" r="3.2" fill="#1d4ed8"/>
<circle cx="444.45" cy="428.53" r="3.2" fill="#1d4ed8"/>
<circle cx="447.11" cy="427.72" r="3.2" fill="#1d4ed8"/>
<circle cx="449.78" cy="426.91" r="3.2" fill="#1d4ed8"/>
<circle cx="452.44" cy="426.10" r="3.2" fill="#1d4ed8"/>
<circle cx="455.11" cy="426.10" r="3.2" fill="#1d4ed8"/>
<circle cx="457.78" cy="426.10" r="3.2" fill="#1d4ed8"/>
<circle cx="460.44" cy="419.63" r="3.2" fill="#1d4ed8"/>
<circle cx="463.11" cy="419.23" r="3.2" fill="#1d4ed8"/>
<circle cx="465.77" cy="418.42" r="3.2" fill="#1d4ed8"/>
<circle cx="468.44" cy="418.01" r="3.2" fill="#1d4ed8"/>
<circle cx="471.10" cy="417.61" r="3.2" fill="#1d4ed8"/>
<circle cx="473.77" cy="417.61" r="3.2" fill="#1d4ed8"/>
<circle cx="476.43" cy="417.61" r="3.2" fill="#1d4ed8"/>
<circle cx="479.10" cy="417.21" r="3.2" fill="#1d4ed8"/>
<circle cx="481.76" cy="417.21" r="3.2" fill="#1d4ed8"/>
<circle cx="484.43" cy="413.57" r="3.2" fill="#1d4ed8"/>
<circle cx="487.09" cy="411.95" r="3.2" fill="#1d4ed8"/>
<circle cx="489.76" cy="412.76" r="3.2" fill="#1d4ed8"/>
<circle cx="492.42" cy="410.74" r="3.2" fill="#1d4ed8"/>
<circle cx="495.09" cy="410.74" r="3.2" fill="#1d4ed8"/>
<circle cx="497.75" cy="410.33" r="3.2" fill="#1d4ed8"/>
<circle cx="500.42" cy="410.33" r="3.2" fill="#1d4ed8"/>
<circle cx="503.08" cy="410.33" r="3.2" fill="#1d4ed8"/>
<circle cx="505.75" cy="409.93" r="3.2" fill="#1d4ed8"/>
<circle cx="508.41" cy="409.93" r="3.2" fill="#1d4ed8"/>
<circle cx="511.08" cy="409.93" r="3.2" fill="#1d4ed8"/>
<circle cx="513.74" cy="409.52" r="3.2" fill="#1d4ed8"/>
<circle cx="516.41" cy="409.52" r="3.2" fill="#1d4ed8"/>
<circle cx="519.07" cy="409.12" r="3.2" fill="#1d4ed8"/>
<circle cx="521.74" cy="409.52" r="3.2" fill="#1d4ed8"/>
<circle cx="524.40" cy="409.12" r="3.2" fill="#1d4ed8"/>
<circle cx="527.07" cy="407.50" r="3.2" fill="#1d4ed8"/>
<circle cx="529.73" cy="407.10" r="3.2" fill="#1d4ed8"/>
<circle cx="532.40" cy="403.05" r="3.2" fill="#1d4ed8"/>
<circle cx="535.06" cy="399.82" r="3.2" fill="#1d4ed8"/>
<circle cx="537.73" cy="400.22" r="3.2" fill="#1d4ed8"/>
<circle cx="540.39" cy="400.62" r="3.2" fill="#1d4ed8"/>
<circle cx="543.06" cy="400.62" r="3.2" fill="#1d4ed8"/>
<circle cx="545.72" cy="399.41" r="3.2" fill="#1d4ed8"/>
<circle cx="548.39" cy="392.94" r="3.2" fill="#1d4ed8"/>
<circle cx="551.05" cy="391.32" r="3.2" fill="#1d4ed8"/>
<circle cx="553.72" cy="389.30" r="3.2" fill="#1d4ed8"/>
<circle cx="556.38" cy="389.30" r="3.2" fill="#1d4ed8"/>
<circle cx="559.05" cy="388.49" r="3.2" fill="#1d4ed8"/>
<circle cx="561.71" cy="375.15" r="3.2" fill="#1d4ed8"/>
<circle cx="564.38" cy="374.74" r="3.2" fill="#1d4ed8"/>
<circle cx="567.04" cy="374.74" r="3.2" fill="#1d4ed8"/>
<circle cx="569.71" cy="374.74" r="3.2" fill="#1d4ed8"/>
<circle cx="572.37" cy="374.74" r="3.2" fill="#1d4ed8"/>
<circle cx="575.04" cy="374.34" r="3.2" fill="#1d4ed8"/>
<circle cx="577.70" cy="374.34" r="3.2" fill="#1d4ed8"/>
<circle cx="580.37" cy="374.34" r="3.2" fill="#1d4ed8"/>
<circle cx="583.03" cy="374.34" r="3.2" fill="#1d4ed8"/>
<circle cx="585.70" cy="374.34" r="3.2" fill="#1d4ed8"/>
<circle cx="588.36" cy="373.93" r="3.2" fill="#1d4ed8"/>
<circle cx="591.03" cy="373.12" r="3.2" fill="#1d4ed8"/>
<circle cx="593.69" cy="372.72" r="3.2" fill="#1d4ed8"/>
<circle cx="596.36" cy="373.53" r="3.2" fill="#1d4ed8"/>
<circle cx="599.02" cy="435.81" r="3.2" fill="#1d4ed8"/>
<circle cx="601.69" cy="372.32" r="3.2" fill="#1d4ed8"/>
<circle cx="604.35" cy="372.72" r="3.2" fill="#1d4ed8"/>
<circle cx="607.02" cy="371.91" r="3.2" fill="#1d4ed8"/>
<circle cx="609.68" cy="371.91" r="3.2" fill="#1d4ed8"/>
<circle cx="612.35" cy="372.32" r="3.2" fill="#1d4ed8"/>
<circle cx="615.01" cy="371.10" r="3.2" fill="#1d4ed8"/>
<circle cx="617.68" cy="369.89" r="3.2" fill="#1d4ed8"/>
<circle cx="620.34" cy="369.89" r="3.2" fill="#1d4ed8"/>
<circle cx="623.01" cy="369.89" r="3.2" fill="#1d4ed8"/>
<circle cx="625.67" cy="369.49" r="3.2" fill="#1d4ed8"/>
<circle cx="628.34" cy="369.89" r="3.2" fill="#1d4ed8"/>
<circle cx="631.00" cy="369.08" r="3.2" fill="#1d4ed8"/>
<circle cx="633.67" cy="368.68" r="3.2" fill="#1d4ed8"/>
<circle cx="636.33" cy="368.27" r="3.2" fill="#1d4ed8"/>
<circle cx="639.00" cy="367.87" r="3.2" fill="#1d4ed8"/>
<circle cx="641.66" cy="367.06" r="3.2" fill="#1d4ed8"/>
<circle cx="644.33" cy="367.46" r="3.2" fill="#1d4ed8"/>
<circle cx="646.99" cy="367.06" r="3.2" fill="#1d4ed8"/>
<circle cx="649.66" cy="366.25" r="3.2" fill="#1d4ed8"/>
<circle cx="652.32" cy="368.27" r="3.2" fill="#1d4ed8"/>
<circle cx="654.99" cy="368.68" r="3.2" fill="#1d4ed8"/>
<circle cx="657.65" cy="368.68" r="3.2" fill="#1d4ed8"/>
<circle cx="660.32" cy="368.27" r="3.2" fill="#1d4ed8"/>
<circle cx="662.98" cy="369.08" r="3.2" fill="#1d4ed8"/>
<circle cx="665.65" cy="367.87" r="3.2" fill="#1d4ed8"/>
<circle cx="668.31" cy="367.46" r="3.2" fill="#1d4ed8"/>
<circle cx="670.98" cy="367.06" r="3.2" fill="#1d4ed8"/>
<circle cx="673.64" cy="360.18" r="3.2" fill="#1d4ed8"/>
<circle cx="676.31" cy="359.78" r="3.2" fill="#1d4ed8"/>
<circle cx="678.97" cy="359.38" r="3.2" fill="#1d4ed8"/>
<circle cx="681.64" cy="356.95" r="3.2" fill="#1d4ed8"/>
<circle cx="684.30" cy="357.35" r="3.2" fill="#1d4ed8"/>
<circle cx="686.97" cy="357.76" r="3.2" fill="#1d4ed8"/>
<circle cx="689.63" cy="355.33" r="3.2" fill="#1d4ed8"/>
<circle cx="692.30" cy="355.74" r="3.2" fill="#1d4ed8"/>
<circle cx="694.96" cy="357.35" r="3.2" fill="#1d4ed8"/>
<circle cx="697.63" cy="355.33" r="3.2" fill="#1d4ed8"/>
<circle cx="700.29" cy="356.14" r="3.2" fill="#1d4ed8"/>
<circle cx="702.96" cy="355.74" r="3.2" fill="#1d4ed8"/>
<circle cx="705.62" cy="356.14" r="3.2" fill="#1d4ed8"/>
<circle cx="708.29" cy="354.12" r="3.2" fill="#1d4ed8"/>
<circle cx="710.95" cy="354.93" r="3.2" fill="#1d4ed8"/>
<circle cx="713.62" cy="356.14" r="3.2" fill="#1d4ed8"/>
<circle cx="716.28" cy="354.52" r="3.2" fill="#1d4ed8"/>
<circle cx="718.95" cy="353.71" r="3.2" fill="#1d4ed8"/>
<circle cx="721.61" cy="354.12" r="3.2" fill="#1d4ed8"/>
<circle cx="724.28" cy="354.93" r="3.2" fill="#1d4ed8"/>
<circle cx="726.94" cy="352.90" r="3.2" fill="#1d4ed8"/>
<circle cx="729.61" cy="353.71" r="3.2" fill="#1d4ed8"/>
<circle cx="732.27" cy="353.31" r="3.2" fill="#1d4ed8"/>
<circle cx="734.94" cy="353.31" r="3.2" fill="#1d4ed8"/>
<circle cx="737.60" cy="354.52" r="3.2" fill="#1d4ed8"/>
<circle cx="740.27" cy="352.90" r="3.2" fill="#1d4ed8"/>
<circle cx="742.93" cy="352.50" r="3.2" fill="#1d4ed8"/>
<circle cx="745.60" cy="352.50" r="3.2" fill="#1d4ed8"/>
<circle cx="748.26" cy="353.31" r="3.2" fill="#1d4ed8"/>
<circle cx="750.93" cy="352.50" r="3.2" fill="#1d4ed8"/>
<circle cx="753.59" cy="353.71" r="3.2" fill="#1d4ed8"/>
<circle cx="756.26" cy="354.12" r="3.2" fill="#1d4ed8"/>
<circle cx="758.92" cy="352.50" r="3.2" fill="#1d4ed8"/>
<circle cx="761.59" cy="352.90" r="3.2" fill="#1d4ed8"/>
<circle cx="764.25" cy="352.50" r="3.2" fill="#1d4ed8"/>
<circle cx="766.92" cy="352.10" r="3.2" fill="#1d4ed8"/>
<circle cx="769.58" cy="351.69" r="3.2" fill="#1d4ed8"/>
<circle cx="772.25" cy="352.10" r="3.2" fill="#1d4ed8"/>
<circle cx="774.91" cy="354.12" r="3.2" fill="#1d4ed8"/>
<circle cx="777.58" cy="352.50" r="3.2" fill="#1d4ed8"/>
<circle cx="780.24" cy="352.10" r="3.2" fill="#1d4ed8"/>
<circle cx="782.91" cy="352.10" r="3.2" fill="#1d4ed8"/>
<circle cx="785.57" cy="349.67" r="3.2" fill="#1d4ed8"/>
<circle cx="788.24" cy="349.67" r="3.2" fill="#1d4ed8"/>
<circle cx="790.90" cy="350.88" r="3.2" fill="#1d4ed8"/>
<circle cx="793.57" cy="351.29" r="3.2" fill="#1d4ed8"/>
<circle cx="796.23" cy="350.48" r="3.2" fill="#1d4ed8"/>
<circle cx="798.90" cy="352.10" r="3.2" fill="#1d4ed8"/>
<circle cx="801.56" cy="350.48" r="3.2" fill="#1d4ed8"/>
<circle cx="804.23" cy="350.48" r="3.2" fill="#1d4ed8"/>
<circle cx="806.89" cy="350.48" r="3.2" fill="#1d4ed8"/>
<circle cx="809.56" cy="350.07" r="3.2" fill="#1d4ed8"/>
<circle cx="812.22" cy="348.46" r="3.2" fill="#1d4ed8"/>
<circle cx="814.89" cy="351.29" r="3.2" fill="#1d4ed8"/>
<circle cx="817.56" cy="349.67" r="3.2" fill="#1d4ed8"/>
<circle cx="820.22" cy="351.29" r="3.2" fill="#1d4ed8"/>
<circle cx="822.89" cy="349.67" r="3.2" fill="#1d4ed8"/>
<circle cx="825.55" cy="348.86" r="3.2" fill="#1d4ed8"/>
<circle cx="828.22" cy="348.46" r="3.2" fill="#1d4ed8"/>
<circle cx="830.88" cy="348.46" r="3.2" fill="#1d4ed8"/>
<circle cx="833.55" cy="347.24" r="3.2" fill="#1d4ed8"/>
<circle cx="836.21" cy="348.86" r="3.2" fill="#1d4ed8"/>
<circle cx="838.88" cy="346.84" r="3.2" fill="#1d4ed8"/>
<circle cx="841.54" cy="348.46" r="3.2" fill="#1d4ed8"/>
<circle cx="844.21" cy="348.86" r="3.2" fill="#1d4ed8"/>
<circle cx="846.87" cy="346.84" r="3.2" fill="#1d4ed8"/>
<circle cx="849.54" cy="349.26" r="3.2" fill="#1d4ed8"/>
<circle cx="852.20" cy="348.05" r="3.2" fill="#1d4ed8"/>
<circle cx="854.87" cy="349.26" r="3.2" fill="#1d4ed8"/>
<circle cx="857.53" cy="349.26" r="3.2" fill="#1d4ed8"/>
<circle cx="860.20" cy="350.48" r="3.2" fill="#1d4ed8"/>
<circle cx="862.86" cy="352.90" r="3.2" fill="#1d4ed8"/>
<circle cx="865.53" cy="349.67" r="3.2" fill="#1d4ed8"/>
<circle cx="868.19" cy="348.46" r="3.2" fill="#1d4ed8"/>
<circle cx="870.86" cy="345.62" r="3.2" fill="#1d4ed8"/>
<circle cx="873.52" cy="344.82" r="3.2" fill="#1d4ed8"/>
<circle cx="876.19" cy="344.41" r="3.2" fill="#1d4ed8"/>
<circle cx="878.85" cy="342.39" r="3.2" fill="#1d4ed8"/>
<circle cx="881.52" cy="341.18" r="3.2" fill="#1d4ed8"/>
<circle cx="884.18" cy="341.58" r="3.2" fill="#1d4ed8"/>
<circle cx="886.85" cy="339.15" r="3.2" fill="#1d4ed8"/>
<circle cx="889.51" cy="338.35" r="3.2" fill="#1d4ed8"/>
<circle cx="892.18" cy="337.54" r="3.2" fill="#1d4ed8"/>
<circle cx="894.84" cy="336.73" r="3.2" fill="#1d4ed8"/>
<circle cx="897.51" cy="335.92" r="3.2" fill="#1d4ed8"/>
<circle cx="900.17" cy="337.54" r="3.2" fill="#1d4ed8"/>
<circle cx="902.84" cy="338.35" r="3.2" fill="#1d4ed8"/>
<circle cx="905.50" cy="337.54" r="3.2" fill="#1d4ed8"/>
<circle cx="908.17" cy="337.54" r="3.2" fill="#1d4ed8"/>
<circle cx="910.83" cy="337.54" r="3.2" fill="#1d4ed8"/>
<circle cx="913.50" cy="333.09" r="3.2" fill="#1d4ed8"/>
<circle cx="916.16" cy="333.90" r="3.2" fill="#1d4ed8"/>
<circle cx="918.83" cy="335.92" r="3.2" fill="#1d4ed8"/>
<circle cx="921.49" cy="336.73" r="3.2" fill="#1d4ed8"/>
<circle cx="924.16" cy="335.51" r="3.2" fill="#1d4ed8"/>
<circle cx="926.82" cy="332.28" r="3.2" fill="#1d4ed8"/>
<circle cx="929.49" cy="331.47" r="3.2" fill="#1d4ed8"/>
<circle cx="932.15" cy="331.07" r="3.2" fill="#1d4ed8"/>
<circle cx="934.82" cy="331.47" r="3.2" fill="#1d4ed8"/>
<circle cx="937.48" cy="331.07" r="3.2" fill="#1d4ed8"/>
<circle cx="940.15" cy="331.07" r="3.2" fill="#1d4ed8"/>
<circle cx="942.81" cy="331.07" r="3.2" fill="#1d4ed8"/>
<circle cx="945.48" cy="331.07" r="3.2" fill="#1d4ed8"/>
<circle cx="948.14" cy="331.07" r="3.2" fill="#1d4ed8"/>
<circle cx="950.81" cy="331.07" r="3.2" fill="#1d4ed8"/>
<circle cx="953.47" cy="331.07" r="3.2" fill="#1d4ed8"/>
<circle cx="956.14" cy="331.07" r="3.2" fill="#1d4ed8"/>
<circle cx="958.80" cy="331.07" r="3.2" fill="#1d4ed8"/>
<circle cx="961.47" cy="331.07" r="3.2" fill="#1d4ed8"/>
<circle cx="964.13" cy="331.47" r="3.2" fill="#1d4ed8"/>
<circle cx="966.80" cy="331.88" r="3.2" fill="#1d4ed8"/>
<circle cx="969.46" cy="331.07" r="3.2" fill="#1d4ed8"/>
<circle cx="972.13" cy="331.47" r="3.2" fill="#1d4ed8"/>
<circle cx="974.79" cy="331.07" r="3.2" fill="#1d4ed8"/>
<circle cx="977.46" cy="331.47" r="3.2" fill="#1d4ed8"/>
<circle cx="980.12" cy="331.07" r="3.2" fill="#1d4ed8"/>
<circle cx="982.79" cy="324.19" r="3.2" fill="#1d4ed8"/>
<circle cx="985.45" cy="324.19" r="3.2" fill="#1d4ed8"/>
<circle cx="988.12" cy="318.93" r="3.2" fill="#1d4ed8"/>
<circle cx="990.78" cy="316.51" r="3.2" fill="#1d4ed8"/>
<circle cx="993.45" cy="310.44" r="3.2" fill="#1d4ed8"/>
<circle cx="996.11" cy="308.01" r="3.2" fill="#1d4ed8"/>
<circle cx="998.78" cy="600.00" r="3.2" fill="#1d4ed8"/>
<circle cx="1001.44" cy="301.54" r="3.2" fill="#1d4ed8"/>
<circle cx="1004.11" cy="290.22" r="3.2" fill="#1d4ed8"/>
<circle cx="1006.77" cy="287.79" r="3.2" fill="#1d4ed8"/>
<circle cx="1009.44" cy="286.18" r="3.2" fill="#1d4ed8"/>
<circle cx="1012.10" cy="285.77" r="3.2" fill="#1d4ed8"/>
<circle cx="1014.77" cy="285.77" r="3.2" fill="#1d4ed8"/>
<circle cx="1017.43" cy="285.77" r="3.2" fill="#1d4ed8"/>
<circle cx="1020.10" cy="286.18" r="3.2" fill="#1d4ed8"/>
<circle cx="1022.76" cy="285.77" r="3.2" fill="#1d4ed8"/>
<circle cx="1025.43" cy="285.77" r="3.2" fill="#1d4ed8"/>
<circle cx="1028.09" cy="285.77" r="3.2" fill="#1d4ed8"/>
<circle cx="1030.76" cy="283.35" r="3.2" fill="#1d4ed8"/>
<circle cx="1033.42" cy="282.94" r="3.2" fill="#1d4ed8"/>
<circle cx="1036.09" cy="282.94" r="3.2" fill="#1d4ed8"/>
<circle cx="1038.75" cy="283.35" r="3.2" fill="#1d4ed8"/>
<circle cx="1041.42" cy="282.94" r="3.2" fill="#1d4ed8"/>
<circle cx="1044.08" cy="282.94" r="3.2" fill="#1d4ed8"/>
<circle cx="1046.75" cy="283.75" r="3.2" fill="#1d4ed8"/>
<circle cx="1049.41" cy="282.13" r="3.2" fill="#1d4ed8"/>
<circle cx="1052.08" cy="282.13" r="3.2" fill="#1d4ed8"/>
<circle cx="1054.74" cy="282.54" r="3.2" fill="#1d4ed8"/>
<circle cx="1057.41" cy="282.13" r="3.2" fill="#1d4ed8"/>
<circle cx="1060.07" cy="282.54" r="3.2" fill="#1d4ed8"/>
<circle cx="1062.74" cy="282.94" r="3.2" fill="#1d4ed8"/>
<circle cx="1065.40" cy="281.73" r="3.2" fill="#1d4ed8"/>
<circle cx="1068.07" cy="282.54" r="3.2" fill="#1d4ed8"/>
<circle cx="1070.73" cy="281.73" r="3.2" fill="#1d4ed8"/>
<circle cx="1073.40" cy="282.54" r="3.2" fill="#1d4ed8"/>
<circle cx="1076.06" cy="282.13" r="3.2" fill="#1d4ed8"/>
<circle cx="1078.73" cy="282.13" r="3.2" fill="#1d4ed8"/>
<circle cx="1081.39" cy="281.73" r="3.2" fill="#1d4ed8"/>
<circle cx="1084.06" cy="281.73" r="3.2" fill="#1d4ed8"/>
<circle cx="1086.72" cy="281.32" r="3.2" fill="#1d4ed8"/>
<circle cx="1089.39" cy="281.73" r="3.2" fill="#1d4ed8"/>
<circle cx="1092.05" cy="282.13" r="3.2" fill="#1d4ed8"/>
<circle cx="1094.72" cy="281.32" r="3.2" fill="#1d4ed8"/>
<circle cx="1097.38" cy="281.32" r="3.2" fill="#1d4ed8"/>
<circle cx="1100.05" cy="282.54" r="3.2" fill="#1d4ed8"/>
<circle cx="1102.71" cy="282.13" r="3.2" fill="#1d4ed8"/>
<circle cx="1105.38" cy="281.32" r="3.2" fill="#1d4ed8"/>
<circle cx="1108.04" cy="281.32" r="3.2" fill="#1d4ed8"/>
<circle cx="1110.71" cy="281.32" r="3.2" fill="#1d4ed8"/>
<circle cx="1113.37" cy="282.54" r="3.2" fill="#1d4ed8"/>
<circle cx="1116.04" cy="282.13" r="3.2" fill="#1d4ed8"/>
<circle cx="1118.70" cy="281.32" r="3.2" fill="#1d4ed8"/>
<circle cx="1121.37" cy="282.13" r="3.2" fill="#1d4ed8"/>
<circle cx="1124.03" cy="281.73" r="3.2" fill="#1d4ed8"/>
<circle cx="1126.70" cy="282.13" r="3.2" fill="#1d4ed8"/>
<circle cx="1129.36" cy="280.11" r="3.2" fill="#1d4ed8"/>
<circle cx="1132.03" cy="280.11" r="3.2" fill="#1d4ed8"/>
<circle cx="1134.69" cy="280.51" r="3.2" fill="#1d4ed8"/>
<circle cx="1137.36" cy="279.71" r="3.2" fill="#1d4ed8"/>
<circle cx="1140.02" cy="280.11" r="3.2" fill="#1d4ed8"/>
<circle cx="1142.69" cy="280.51" r="3.2" fill="#1d4ed8"/>
<circle cx="1145.35" cy="279.71" r="3.2" fill="#1d4ed8"/>
<circle cx="1148.02" cy="280.11" r="3.2" fill="#1d4ed8"/>
<circle cx="1150.68" cy="280.11" r="3.2" fill="#1d4ed8"/>
<circle cx="1153.35" cy="279.30" r="3.2" fill="#1d4ed8"/>
<circle cx="1156.01" cy="278.90" r="3.2" fill="#1d4ed8"/>
<circle cx="1158.68" cy="278.90" r="3.2" fill="#1d4ed8"/>
<circle cx="1161.34" cy="280.51" r="3.2" fill="#1d4ed8"/>
<circle cx="1164.01" cy="279.30" r="3.2" fill="#1d4ed8"/>
<circle cx="1166.67" cy="278.09" r="3.2" fill="#1d4ed8"/>
<circle cx="1169.34" cy="278.49" r="3.2" fill="#1d4ed8"/>
<circle cx="1172.00" cy="278.49" r="3.2" fill="#1d4ed8"/>
<circle cx="1174.67" cy="277.28" r="3.2" fill="#1d4ed8"/>
<circle cx="1177.33" cy="277.68" r="3.2" fill="#1d4ed8"/>
<circle cx="1180.00" cy="277.68" r="3.2" fill="#1d4ed8"/>
<text x="635" y="695" text-anchor="middle" font-size="14" fill="#111" font-family="sans-serif">Date</text>
<text x="24" y="325" text-anchor="middle" font-size="14" fill="#111" transform="rotate(-90 24,325)" font-family="sans-serif">Passed files</text>
</svg>
