<?xml version="1.0" encoding="UTF-8"?>
<svg xmlns="http://www.w3.org/2000/svg" width="1280" height="720" viewBox="0 0 1280 720">
<rect width="100%" height="100%" fill="#ffffff"/>
<text x="640" y="30" text-anchor="middle" font-size="22" font-family="sans-serif">Roast passed files history</text>
<line x1="90" y1="600" x2="1180" y2="600" stroke="#333" stroke-width="1.5"/>
<line x1="90" y1="50" x2="90" y2="600" stroke="#333" stroke-width="1.5"/>
<line x1="90" y1="600.00" x2="1180" y2="600.00" stroke="#e5e7eb" stroke-width="1"/>
<text x="78" y="605.00" text-anchor="end" font-size="12" fill="#111" font-family="sans-serif">0</text>
<line x1="90" y1="397.79" x2="1180" y2="397.79" stroke="#e5e7eb" stroke-width="1"/>
<text x="78" y="402.79" text-anchor="end" font-size="12" fill="#111" font-family="sans-serif">500</text>
<line x1="90" y1="195.59" x2="1180" y2="195.59" stroke="#e5e7eb" stroke-width="1"/>
<text x="78" y="200.59" text-anchor="end" font-size="12" fill="#111" font-family="sans-serif">1000</text>
<line x1="90.00" y1="600" x2="90.00" y2="606" stroke="#333" stroke-width="1"/>
<text x="90.00" y="624" text-anchor="end" font-size="11" fill="#111" transform="rotate(-40 90.00,624)" font-family="sans-serif">2026-02-12</text>
<line x1="225.63" y1="600" x2="225.63" y2="606" stroke="#333" stroke-width="1"/>
<text x="225.63" y="624" text-anchor="end" font-size="11" fill="#111" transform="rotate(-40 225.63,624)" font-family="sans-serif">2026-02-18</text>
<line x1="361.27" y1="600" x2="361.27" y2="606" stroke="#333" stroke-width="1"/>
<text x="361.27" y="624" text-anchor="end" font-size="11" fill="#111" transform="rotate(-40 361.27,624)" font-family="sans-serif">2026-02-24</text>
<line x1="496.90" y1="600" x2="496.90" y2="606" stroke="#333" stroke-width="1"/>
<text x="496.90" y="624" text-anchor="end" font-size="11" fill="#111" transform="rotate(-40 496.90,624)" font-family="sans-serif">2026-02-27</text>
<line x1="632.53" y1="600" x2="632.53" y2="606" stroke="#333" stroke-width="1"/>
<text x="632.53" y="624" text-anchor="end" font-size="11" fill="#111" transform="rotate(-40 632.53,624)" font-family="sans-serif">2026-03-05</text>
<line x1="768.17" y1="600" x2="768.17" y2="606" stroke="#333" stroke-width="1"/>
<text x="768.17" y="624" text-anchor="end" font-size="11" fill="#111" transform="rotate(-40 768.17,624)" font-family="sans-serif">2026-03-07</text>
<line x1="903.80" y1="600" x2="903.80" y2="606" stroke="#333" stroke-width="1"/>
<text x="903.80" y="624" text-anchor="end" font-size="11" fill="#111" transform="rotate(-40 903.80,624)" font-family="sans-serif">2026-03-11</text>
<line x1="1039.43" y1="600" x2="1039.43" y2="606" stroke="#333" stroke-width="1"/>
<text x="1039.43" y="624" text-anchor="end" font-size="11" fill="#111" transform="rotate(-40 1039.43,624)" font-family="sans-serif">2026-03-19</text>
<line x1="1175.07" y1="600" x2="1175.07" y2="606" stroke="#333" stroke-width="1"/>
<text x="1175.07" y="624" text-anchor="end" font-size="11" fill="#111" transform="rotate(-40 1175.07,624)" font-family="sans-serif">2026-03-25</text>
<line x1="1180.00" y1="600" x2="1180.00" y2="606" stroke="#333" stroke-width="1"/>
<text x="1180.00" y="624" text-anchor="end" font-size="11" fill="#111" transform="rotate(-40 1180.00,624)" font-family="sans-serif">2026-03-26</text>
<line x1="90" y1="75.88" x2="1180" y2="75.88" stroke="#dc2626" stroke-width="1.5" stroke-dasharray="8,4"/>
<text x="1184" y="79.88" font-size="12" fill="#dc2626" font-family="sans-serif">Goal: 1296</text>
<polyline fill="none" stroke="#2563eb" stroke-width="3" points="90.00,540.55 92.47,538.53 94.93,536.91 97.40,534.49 99.86,534.49 102.33,533.27 104.80,532.46 107.26,532.87 109.73,532.06 112.19,532.46 114.66,532.06 117.13,568.46 119.59,568.46 122.06,566.43 124.52,545.00 126.99,545.00 129.46,544.19 131.92,543.79 134.39,543.79 136.86,543.38 139.32,541.76 141.79,541.36 144.25,540.96 146.72,540.96 149.19,539.34 151.65,539.34 154.12,556.73 156.58,556.73 159.05,555.51 161.52,551.07 163.98,538.93 166.45,538.93 168.91,538.93 171.38,538.12 173.85,536.91 176.31,536.91 178.78,536.51 181.24,536.51 183.71,556.73 186.18,556.73 188.64,556.73 191.11,556.73 193.57,535.29 196.04,535.29 198.51,535.29 200.97,535.29 203.44,534.49 205.90,534.08 208.37,533.68 210.84,532.87 213.30,532.06 215.77,532.06 218.24,531.25 220.70,530.85 223.17,530.44 225.63,530.04 228.10,530.04 230.57,529.23 233.03,529.23 235.50,529.23 237.96,528.42 240.43,528.42 242.90,527.61 245.36,527.21 247.83,526.80 250.29,526.40 252.76,525.18 255.23,523.57 257.69,523.57 260.16,523.16 262.62,522.76 265.09,522.35 267.56,521.54 270.02,519.52 272.49,517.50 274.95,517.50 277.42,517.50 279.89,517.50 282.35,517.50 284.82,517.50 287.29,517.10 289.75,516.69 292.22,515.48 294.68,515.07 297.15,514.67 299.62,513.86 302.08,514.26 304.55,512.24 307.01,511.84 309.48,511.84 311.95,511.03 314.41,509.82 316.88,507.79 319.34,506.99 321.81,506.58 324.28,509.41 326.74,509.01 329.21,504.96 331.67,504.56 334.14,504.15 336.61,504.56 339.07,503.75 341.54,503.75 344.00,503.35 346.47,499.30 348.94,496.47 351.40,490.00 353.87,484.34 356.33,481.10 358.80,480.29 361.27,480.70 363.73,460.88 366.20,459.26 368.67,458.05 371.13,456.03 373.60,456.03 376.06,454.41 378.53,450.77 381.00,444.30 383.46,443.90 385.93,600.00 388.39,441.88 390.86,440.66 393.33,439.45 395.79,439.04 398.26,438.64 400.72,437.83 403.19,436.62 405.66,436.62 408.12,434.60 410.59,432.17 413.05,429.34 415.52,428.93 417.99,428.53 420.45,427.72 422.92,426.91 425.38,426.10 427.85,426.10 430.32,426.10 432.78,419.63 435.25,419.23 437.71,418.42 440.18,418.01 442.65,417.61 445.11,417.61 447.58,417.61 450.05,417.21 452.51,417.21 454.98,413.57 457.44,411.95 459.91,412.76 462.38,410.74 464.84,410.74 467.31,410.33 469.77,410.33 472.24,410.33 474.71,409.93 477.17,409.93 479.64,409.93 482.10,409.52 484.57,409.52 487.04,409.12 489.50,409.52 491.97,409.12 494.43,407.50 496.90,407.10 499.37,403.05 501.83,399.82 504.30,400.22 506.76,400.62 509.23,400.62 511.70,399.41 514.16,392.94 516.63,391.32 519.10,389.30 521.56,389.30 524.03,388.49 526.49,375.15 528.96,374.74 531.43,374.74 533.89,374.74 536.36,374.74 538.82,374.34 541.29,374.34 543.76,374.34 546.22,374.34 548.69,374.34 551.15,373.93 553.62,373.12 556.09,372.72 558.55,373.53 561.02,435.81 563.48,372.32 565.95,372.72 568.42,371.91 570.88,371.91 573.35,372.32 575.81,371.10 578.28,369.89 580.75,369.89 583.21,369.89 585.68,369.49 588.14,369.89 590.61,369.08 593.08,368.68 595.54,368.27 598.01,367.87 600.48,367.06 602.94,367.46 605.41,367.06 607.87,366.25 610.34,368.27 612.81,368.68 615.27,368.68 617.74,368.27 620.20,369.08 622.67,367.87 625.14,367.46 627.60,367.06 630.07,360.18 632.53,359.78 635.00,359.38 637.47,356.95 639.93,357.35 642.40,357.76 644.86,355.33 647.33,355.74 649.80,357.35 652.26,355.33 654.73,356.14 657.19,355.74 659.66,356.14 662.13,354.12 664.59,354.93 667.06,356.14 669.52,354.52 671.99,353.71 674.46,354.12 676.92,354.93 679.39,352.90 681.86,353.71 684.32,353.31 686.79,353.31 689.25,354.52 691.72,352.90 694.19,352.50 696.65,352.50 699.12,353.31 701.58,352.50 704.05,353.71 706.52,354.12 708.98,352.50 711.45,352.90 713.91,352.50 716.38,352.10 718.85,351.69 721.31,352.10 723.78,354.12 726.24,352.50 728.71,352.10 731.18,352.10 733.64,349.67 736.11,349.67 738.57,350.88 741.04,351.29 743.51,350.48 745.97,352.10 748.44,350.48 750.90,350.48 753.37,350.48 755.84,350.07 758.30,348.46 760.77,351.29 763.24,349.67 765.70,351.29 768.17,349.67 770.63,348.86 773.10,348.46 775.57,348.46 778.03,347.24 780.50,348.86 782.96,346.84 785.43,348.46 787.90,348.86 790.36,346.84 792.83,349.26 795.29,348.05 797.76,349.26 800.23,349.26 802.69,350.48 805.16,352.90 807.62,349.67 810.09,348.46 812.56,345.62 815.02,344.82 817.49,344.41 819.95,342.39 822.42,341.18 824.89,341.58 827.35,339.15 829.82,338.35 832.29,337.54 834.75,336.73 837.22,335.92 839.68,337.54 842.15,338.35 844.62,337.54 847.08,337.54 849.55,337.54 852.01,333.09 854.48,333.90 856.95,335.92 859.41,336.73 861.88,335.51 864.34,332.28 866.81,331.47 869.28,331.07 871.74,331.47 874.21,331.07 876.67,331.07 879.14,331.07 881.61,331.07 884.07,331.07 886.54,331.07 889.00,331.07 891.47,331.07 893.94,331.07 896.40,331.07 898.87,331.47 901.33,331.88 903.80,331.07 906.27,331.47 908.73,331.07 911.20,331.47 913.67,331.07 916.13,324.19 918.60,324.19 921.06,318.93 923.53,316.51 926.00,310.44 928.46,308.01 930.93,600.00 933.39,301.54 935.86,290.22 938.33,287.79 940.79,286.18 943.26,285.77 945.72,285.77 948.19,285.77 950.66,286.18 953.12,285.77 955.59,285.77 958.05,285.77 960.52,283.35 962.99,282.94 965.45,282.94 967.92,283.35 970.38,282.94 972.85,282.94 975.32,283.75 977.78,282.13 980.25,282.13 982.71,282.54 985.18,282.13 987.65,282.54 990.11,282.94 992.58,281.73 995.05,282.54 997.51,281.73 999.98,282.54 1002.44,282.13 1004.91,282.13 1007.38,281.73 1009.84,281.73 1012.31,281.32 1014.77,281.73 1017.24,282.13 1019.71,281.32 1022.17,281.32 1024.64,282.54 1027.10,282.13 1029.57,281.32 1032.04,281.32 1034.50,281.32 1036.97,282.54 1039.43,282.13 1041.90,281.32 1044.37,282.13 1046.83,281.73 1049.30,282.13 1051.76,280.11 1054.23,280.11 1056.70,280.51 1059.16,279.71 1061.63,280.11 1064.10,280.51 1066.56,279.71 1069.03,280.11 1071.49,280.11 1073.96,279.30 1076.43,278.90 1078.89,278.90 1081.36,280.51 1083.82,279.30 1086.29,278.09 1088.76,278.49 1091.22,278.49 1093.69,277.28 1096.15,277.68 1098.62,277.68 1101.09,278.09 1103.55,277.28 1106.02,600.00 1108.48,278.90 1110.95,279.30 1113.42,278.90 1115.88,278.49 1118.35,278.49 1120.81,278.49 1123.28,278.49 1125.75,278.49 1128.21,278.49 1130.68,278.49 1133.14,278.49 1135.61,278.49 1138.08,278.49 1140.54,278.49 1143.01,278.49 1145.48,600.00 1147.94,600.00 1150.41,254.63 1152.87,600.00 1155.34,245.74 1157.81,245.74 1160.27,246.14 1162.74,245.74 1165.20,245.74 1167.67,245.74 1170.14,245.74 1172.60,245.74 1175.07,240.07 1177.53,238.05 1180.00,238.05"/>
<circle cx="90.00" cy="540.55" r="3.2" fill="#1d4ed8"/>
<circle cx="92.47" cy="538.53" r="3.2" fill="#1d4ed8"/>
<circle cx="94.93" cy="536.91" r="3.2" fill="#1d4ed8"/>
<circle cx="97.40" cy="534.49" r="3.2" fill="#1d4ed8"/>
<circle cx="99.86" cy="534.49" r="3.2" fill="#1d4ed8"/>
<circle cx="102.33" cy="533.27" r="3.2" fill="#1d4ed8"/>
<circle cx="104.80" cy="532.46" r="3.2" fill="#1d4ed8"/>
<circle cx="107.26" cy="532.87" r="3.2" fill="#1d4ed8"/>
<circle cx="109.73" cy="532.06" r="3.2" fill="#1d4ed8"/>
<circle cx="112.19" cy="532.46" r="3.2" fill="#1d4ed8"/>
<circle cx="114.66" cy="532.06" r="3.2" fill="#1d4ed8"/>
<circle cx="117.13" cy="568.46" r="3.2" fill="#1d4ed8"/>
<circle cx="119.59" cy="568.46" r="3.2" fill="#1d4ed8"/>
<circle cx="122.06" cy="566.43" r="3.2" fill="#1d4ed8"/>
<circle cx="124.52" cy="545.00" r="3.2" fill="#1d4ed8"/>
<circle cx="126.99" cy="545.00" r="3.2" fill="#1d4ed8"/>
<circle cx="129.46" cy="544.19" r="3.2" fill="#1d4ed8"/>
<circle cx="131.92" cy="543.79" r="3.2" fill="#1d4ed8"/>
<circle cx="134.39" cy="543.79" r="3.2" fill="#1d4ed8"/>
<circle cx="136.86" cy="543.38" r="3.2" fill="#1d4ed8"/>
<circle cx="139.32" cy="541.76" r="3.2" fill="#1d4ed8"/>
<circle cx="141.79" cy="541.36" r="3.2" fill="#1d4ed8"/>
<circle cx="144.25" cy="540.96" r="3.2" fill="#1d4ed8"/>
<circle cx="146.72" cy="540.96" r="3.2" fill="#1d4ed8"/>
<circle cx="149.19" cy="539.34" r="3.2" fill="#1d4ed8"/>
<circle cx="151.65" cy="539.34" r="3.2" fill="#1d4ed8"/>
<circle cx="154.12" cy="556.73" r="3.2" fill="#1d4ed8"/>
<circle cx="156.58" cy="556.73" r="3.2" fill="#1d4ed8"/>
<circle cx="159.05" cy="555.51" r="3.2" fill="#1d4ed8"/>
<circle cx="161.52" cy="551.07" r="3.2" fill="#1d4ed8"/>
<circle cx="163.98" cy="538.93" r="3.2" fill="#1d4ed8"/>
<circle cx="166.45" cy="538.93" r="3.2" fill="#1d4ed8"/>
<circle cx="168.91" cy="538.93" r="3.2" fill="#1d4ed8"/>
<circle cx="171.38" cy="538.12" r="3.2" fill="#1d4ed8"/>
<circle cx="173.85" cy="536.91" r="3.2" fill="#1d4ed8"/>
<circle cx="176.31" cy="536.91" r="3.2" fill="#1d4ed8"/>
<circle cx="178.78" cy="536.51" r="3.2" fill="#1d4ed8"/>
<circle cx="181.24" cy="536.51" r="3.2" fill="#1d4ed8"/>
<circle cx="183.71" cy="556.73" r="3.2" fill="#1d4ed8"/>
<circle cx="186.18" cy="556.73" r="3.2" fill="#1d4ed8"/>
<circle cx="188.64" cy="556.73" r="3.2" fill="#1d4ed8"/>
<circle cx="191.11" cy="556.73" r="3.2" fill="#1d4ed8"/>
<circle cx="193.57" cy="535.29" r="3.2" fill="#1d4ed8"/>
<circle cx="196.04" cy="535.29" r="3.2" fill="#1d4ed8"/>
<circle cx="198.51" cy="535.29" r="3.2" fill="#1d4ed8"/>
<circle cx="200.97" cy="535.29" r="3.2" fill="#1d4ed8"/>
<circle cx="203.44" cy="534.49" r="3.2" fill="#1d4ed8"/>
<circle cx="205.90" cy="534.08" r="3.2" fill="#1d4ed8"/>
<circle cx="208.37" cy="533.68" r="3.2" fill="#1d4ed8"/>
<circle cx="210.84" cy="532.87" r="3.2" fill="#1d4ed8"/>
<circle cx="213.30" cy="532.06" r="3.2" fill="#1d4ed8"/>
<circle cx="215.77" cy="532.06" r="3.2" fill="#1d4ed8"/>
<circle cx="218.24" cy="531.25" r="3.2" fill="#1d4ed8"/>
<circle cx="220.70" cy="530.85" r="3.2" fill="#1d4ed8"/>
<circle cx="223.17" cy="530.44" r="3.2" fill="#1d4ed8"/>
<circle cx="225.63" cy="530.04" r="3.2" fill="#1d4ed8"/>
<circle cx="228.10" cy="530.04" r="3.2" fill="#1d4ed8"/>
<circle cx="230.57" cy="529.23" r="3.2" fill="#1d4ed8"/>
<circle cx="233.03" cy="529.23" r="3.2" fill="#1d4ed8"/>
<circle cx="235.50" cy="529.23" r="3.2" fill="#1d4ed8"/>
<circle cx="237.96" cy="528.42" r="3.2" fill="#1d4ed8"/>
<circle cx="240.43" cy="528.42" r="3.2" fill="#1d4ed8"/>
<circle cx="242.90" cy="527.61" r="3.2" fill="#1d4ed8"/>
<circle cx="245.36" cy="527.21" r="3.2" fill="#1d4ed8"/>
<circle cx="247.83" cy="526.80" r="3.2" fill="#1d4ed8"/>
<circle cx="250.29" cy="526.40" r="3.2" fill="#1d4ed8"/>
<circle cx="252.76" cy="525.18" r="3.2" fill="#1d4ed8"/>
<circle cx="255.23" cy="523.57" r="3.2" fill="#1d4ed8"/>
<circle cx="257.69" cy="523.57" r="3.2" fill="#1d4ed8"/>
<circle cx="260.16" cy="523.16" r="3.2" fill="#1d4ed8"/>
<circle cx="262.62" cy="522.76" r="3.2" fill="#1d4ed8"/>
<circle cx="265.09" cy="522.35" r="3.2" fill="#1d4ed8"/>
<circle cx="267.56" cy="521.54" r="3.2" fill="#1d4ed8"/>
<circle cx="270.02" cy="519.52" r="3.2" fill="#1d4ed8"/>
<circle cx="272.49" cy="517.50" r="3.2" fill="#1d4ed8"/>
<circle cx="274.95" cy="517.50" r="3.2" fill="#1d4ed8"/>
<circle cx="277.42" cy="517.50" r="3.2" fill="#1d4ed8"/>
<circle cx="279.89" cy="517.50" r="3.2" fill="#1d4ed8"/>
<circle cx="282.35" cy="517.50" r="3.2" fill="#1d4ed8"/>
<circle cx="284.82" cy="517.50" r="3.2" fill="#1d4ed8"/>
<circle cx="287.29" cy="517.10" r="3.2" fill="#1d4ed8"/>
<circle cx="289.75" cy="516.69" r="3.2" fill="#1d4ed8"/>
<circle cx="292.22" cy="515.48" r="3.2" fill="#1d4ed8"/>
<circle cx="294.68" cy="515.07" r="3.2" fill="#1d4ed8"/>
<circle cx="297.15" cy="514.67" r="3.2" fill="#1d4ed8"/>
<circle cx="299.62" cy="513.86" r="3.2" fill="#1d4ed8"/>
<circle cx="302.08" cy="514.26" r="3.2" fill="#1d4ed8"/>
<circle cx="304.55" cy="512.24" r="3.2" fill="#1d4ed8"/>
<circle cx="307.01" cy="511.84" r="3.2" fill="#1d4ed8"/>
<circle cx="309.48" cy="511.84" r="3.2" fill="#1d4ed8"/>
<circle cx="311.95" cy="511.03" r="3.2" fill="#1d4ed8"/>
<circle cx="314.41" cy="509.82" r="3.2" fill="#1d4ed8"/>
<circle cx="316.88" cy="507.79" r="3.2" fill="#1d4ed8"/>
<circle cx="319.34" cy="506.99" r="3.2" fill="#1d4ed8"/>
<circle cx="321.81" cy="506.58" r="3.2" fill="#1d4ed8"/>
<circle cx="324.28" cy="509.41" r="3.2" fill="#1d4ed8"/>
<circle cx="326.74" cy="509.01" r="3.2" fill="#1d4ed8"/>
<circle cx="329.21" cy="504.96" r="3.2" fill="#1d4ed8"/>
<circle cx="331.67" cy="504.56" r="3.2" fill="#1d4ed8"/>
<circle cx="334.14" cy="504.15" r="3.2" fill="#1d4ed8"/>
<circle cx="336.61" cy="504.56" r="3.2" fill="#1d4ed8"/>
<circle cx="339.07" cy="503.75" r="3.2" fill="#1d4ed8"/>
<circle cx="341.54" cy="503.75" r="3.2" fill="#1d4ed8"/>
<circle cx="344.00" cy="503.35" r="3.2" fill="#1d4ed8"/>
<circle cx="346.47" cy="499.30" r="3.2" fill="#1d4ed8"/>
<circle cx="348.94" cy="496.47" r="3.2" fill="#1d4ed8"/>
<circle cx="351.40" cy="490.00" r="3.2" fill="#1d4ed8"/>
<circle cx="353.87" cy="484.34" r="3.2" fill="#1d4ed8"/>
<circle cx="356.33" cy="481.10" r="3.2" fill="#1d4ed8"/>
<circle cx="358.80" cy="480.29" r="3.2" fill="#1d4ed8"/>
<circle cx="361.27" cy="480.70" r="3.2" fill="#1d4ed8"/>
<circle cx="363.73" cy="460.88" r="3.2" fill="#1d4ed8"/>
<circle cx="366.20" cy="459.26" r="3.2" fill="#1d4ed8"/>
<circle cx="368.67" cy="458.05" r="3.2" fill="#1d4ed8"/>
<circle cx="371.13" cy="456.03" r="3.2" fill="#1d4ed8"/>
<circle cx="373.60" cy="456.03" r="3.2" fill="#1d4ed8"/>
<circle cx="376.06" cy="454.41" r="3.2" fill="#1d4ed8"/>
<circle cx="378.53" cy="450.77" r="3.2" fill="#1d4ed8"/>
<circle cx="381.00" cy="444.30" r="3.2" fill="#1d4ed8"/>
<circle cx="383.46" cy="443.90" r="3.2" fill="#1d4ed8"/>
<circle cx="385.93" cy="600.00" r="3.2" fill="#1d4ed8"/>
<circle cx="388.39" cy="441.88" r="3.2" fill="#1d4ed8"/>
<circle cx="390.86" cy="440.66" r="3.2" fill="#1d4ed8"/>
<circle cx="393.33" cy="439.45" r="3.2" fill="#1d4ed8"/>
<circle cx="395.79" cy="439.04" r="3.2" fill="#1d4ed8"/>
<circle cx="398.26" cy="438.64" r="3.2" fill="#1d4ed8"/>
<circle cx="400.72" cy="437.83" r="3.2" fill="#1d4ed8"/>
<circle cx="403.19" cy="436.62" r="3.2" fill="#1d4ed8"/>
<circle cx="405.66" cy="436.62" r="3.2" fill="#1d4ed8"/>
<circle cx="408.12" cy="434.60" r="3.2" fill="#1d4ed8"/>
<circle cx="410.59" cy="432.17" r="3.2" fill="#1d4ed8"/>
<circle cx="413.05" cy="429.34" r="3.2" fill="#1d4ed8"/>
<circle cx="415.52" cy="428.93" r="3.2" fill="#1d4ed8"/>
<circle cx="417.99" cy="428.53" r="3.2" fill="#1d4ed8"/>
<circle cx="420.45" cy="427.72" r="3.2" fill="#1d4ed8"/>
<circle cx="422.92" cy="426.91" r="3.2" fill="#1d4ed8"/>
<circle cx="425.38" cy="426.10" r="3.2" fill="#1d4ed8"/>
<circle cx="427.85" cy="426.10" r="3.2" fill="#1d4ed8"/>
<circle cx="430.32" cy="426.10" r="3.2" fill="#1d4ed8"/>
<circle cx="432.78" cy="419.63" r="3.2" fill="#1d4ed8"/>
<circle cx="435.25" cy="419.23" r="3.2" fill="#1d4ed8"/>
<circle cx="437.71" cy="418.42" r="3.2" fill="#1d4ed8"/>
<circle cx="440.18" cy="418.01" r="3.2" fill="#1d4ed8"/>
<circle cx="442.65" cy="417.61" r="3.2" fill="#1d4ed8"/>
<circle cx="445.11" cy="417.61" r="3.2" fill="#1d4ed8"/>
<circle cx="447.58" cy="417.61" r="3.2" fill="#1d4ed8"/>
<circle cx="450.05" cy="417.21" r="3.2" fill="#1d4ed8"/>
<circle cx="452.51" cy="417.21" r="3.2" fill="#1d4ed8"/>
<circle cx="454.98" cy="413.57" r="3.2" fill="#1d4ed8"/>
<circle cx="457.44" cy="411.95" r="3.2" fill="#1d4ed8"/>
<circle cx="459.91" cy="412.76" r="3.2" fill="#1d4ed8"/>
<circle cx="462.38" cy="410.74" r="3.2" fill="#1d4ed8"/>
<circle cx="464.84" cy="410.74" r="3.2" fill="#1d4ed8"/>
<circle cx="467.31" cy="410.33" r="3.2" fill="#1d4ed8"/>
<circle cx="469.77" cy="410.33" r="3.2" fill="#1d4ed8"/>
<circle cx="472.24" cy="410.33" r="3.2" fill="#1d4ed8"/>
<circle cx="474.71" cy="409.93" r="3.2" fill="#1d4ed8"/>
<circle cx="477.17" cy="409.93" r="3.2" fill="#1d4ed8"/>
<circle cx="479.64" cy="409.93" r="3.2" fill="#1d4ed8"/>
<circle cx="482.10" cy="409.52" r="3.2" fill="#1d4ed8"/>
<circle cx="484.57" cy="409.52" r="3.2" fill="#1d4ed8"/>
<circle cx="487.04" cy="409.12" r="3.2" fill="#1d4ed8"/>
<circle cx="489.50" cy="409.52" r="3.2" fill="#1d4ed8"/>
<circle cx="491.97" cy="409.12" r="3.2" fill="#1d4ed8"/>
<circle cx="494.43" cy="407.50" r="3.2" fill="#1d4ed8"/>
<circle cx="496.90" cy="407.10" r="3.2" fill="#1d4ed8"/>
<circle cx="499.37" cy="403.05" r="3.2" fill="#1d4ed8"/>
<circle cx="501.83" cy="399.82" r="3.2" fill="#1d4ed8"/>
<circle cx="504.30" cy="400.22" r="3.2" fill="#1d4ed8"/>
<circle cx="506.76" cy="400.62" r="3.2" fill="#1d4ed8"/>
<circle cx="509.23" cy="400.62" r="3.2" fill="#1d4ed8"/>
<circle cx="511.70" cy="399.41" r="3.2" fill="#1d4ed8"/>
<circle cx="514.16" cy="392.94" r="3.2" fill="#1d4ed8"/>
<circle cx="516.63" cy="391.32" r="3.2" fill="#1d4ed8"/>
<circle cx="519.10" cy="389.30" r="3.2" fill="#1d4ed8"/>
<circle cx="521.56" cy="389.30" r="3.2" fill="#1d4ed8"/>
<circle cx="524.03" cy="388.49" r="3.2" fill="#1d4ed8"/>
<circle cx="526.49" cy="375.15" r="3.2" fill="#1d4ed8"/>
<circle cx="528.96" cy="374.74" r="3.2" fill="#1d4ed8"/>
<circle cx="531.43" cy="374.74" r="3.2" fill="#1d4ed8"/>
<circle cx="533.89" cy="374.74" r="3.2" fill="#1d4ed8"/>
<circle cx="536.36" cy="374.74" r="3.2" fill="#1d4ed8"/>
<circle cx="538.82" cy="374.34" r="3.2" fill="#1d4ed8"/>
<circle cx="541.29" cy="374.34" r="3.2" fill="#1d4ed8"/>
<circle cx="543.76" cy="374.34" r="3.2" fill="#1d4ed8"/>
<circle cx="546.22" cy="374.34" r="3.2" fill="#1d4ed8"/>
<circle cx="548.69" cy="374.34" r="3.2" fill="#1d4ed8"/>
<circle cx="551.15" cy="373.93" r="3.2" fill="#1d4ed8"/>
<circle cx="553.62" cy="373.12" r="3.2" fill="#1d4ed8"/>
<circle cx="556.09" cy="372.72" r="3.2" fill="#1d4ed8"/>
<circle cx="558.55" cy="373.53" r="3.2" fill="#1d4ed8"/>
<circle cx="561.02" cy="435.81" r="3.2" fill="#1d4ed8"/>
<circle cx="563.48" cy="372.32" r="3.2" fill="#1d4ed8"/>
<circle cx="565.95" cy="372.72" r="3.2" fill="#1d4ed8"/>
<circle cx="568.42" cy="371.91" r="3.2" fill="#1d4ed8"/>
<circle cx="570.88" cy="371.91" r="3.2" fill="#1d4ed8"/>
<circle cx="573.35" cy="372.32" r="3.2" fill="#1d4ed8"/>
<circle cx="575.81" cy="371.10" r="3.2" fill="#1d4ed8"/>
<circle cx="578.28" cy="369.89" r="3.2" fill="#1d4ed8"/>
<circle cx="580.75" cy="369.89" r="3.2" fill="#1d4ed8"/>
<circle cx="583.21" cy="369.89" r="3.2" fill="#1d4ed8"/>
<circle cx="585.68" cy="369.49" r="3.2" fill="#1d4ed8"/>
<circle cx="588.14" cy="369.89" r="3.2" fill="#1d4ed8"/>
<circle cx="590.61" cy="369.08" r="3.2" fill="#1d4ed8"/>
<circle cx="593.08" cy="368.68" r="3.2" fill="#1d4ed8"/>
<circle cx="595.54" cy="368.27" r="3.2" fill="#1d4ed8"/>
<circle cx="598.01" cy="367.87" r="3.2" fill="#1d4ed8"/>
<circle cx="600.48" cy="367.06" r="3.2" fill="#1d4ed8"/>
<circle cx="602.94" cy="367.46" r="3.2" fill="#1d4ed8"/>
<circle cx="605.41" cy="367.06" r="3.2" fill="#1d4ed8"/>
<circle cx="607.87" cy="366.25" r="3.2" fill="#1d4ed8"/>
<circle cx="610.34" cy="368.27" r="3.2" fill="#1d4ed8"/>
<circle cx="612.81" cy="368.68" r="3.2" fill="#1d4ed8"/>
<circle cx="615.27" cy="368.68" r="3.2" fill="#1d4ed8"/>
<circle cx="617.74" cy="368.27" r="3.2" fill="#1d4ed8"/>
<circle cx="620.20" cy="369.08" r="3.2" fill="#1d4ed8"/>
<circle cx="622.67" cy="367.87" r="3.2" fill="#1d4ed8"/>
<circle cx="625.14" cy="367.46" r="3.2" fill="#1d4ed8"/>
<circle cx="627.60" cy="367.06" r="3.2" fill="#1d4ed8"/>
<circle cx="630.07" cy="360.18" r="3.2" fill="#1d4ed8"/>
<circle cx="632.53" cy="359.78" r="3.2" fill="#1d4ed8"/>
<circle cx="635.00" cy="359.38" r="3.2" fill="#1d4ed8"/>
<circle cx="637.47" cy="356.95" r="3.2" fill="#1d4ed8"/>
<circle cx="639.93" cy="357.35" r="3.2" fill="#1d4ed8"/>
<circle cx="642.40" cy="357.76" r="3.2" fill="#1d4ed8"/>
<circle cx="644.86" cy="355.33" r="3.2" fill="#1d4ed8"/>
<circle cx="647.33" cy="355.74" r="3.2" fill="#1d4ed8"/>
<circle cx="649.80" cy="357.35" r="3.2" fill="#1d4ed8"/>
<circle cx="652.26" cy="355.33" r="3.2" fill="#1d4ed8"/>
<circle cx="654.73" cy="356.14" r="3.2" fill="#1d4ed8"/>
<circle cx="657.19" cy="355.74" r="3.2" fill="#1d4ed8"/>
<circle cx="659.66" cy="356.14" r="3.2" fill="#1d4ed8"/>
<circle cx="662.13" cy="354.12" r="3.2" fill="#1d4ed8"/>
<circle cx="664.59" cy="354.93" r="3.2" fill="#1d4ed8"/>
<circle cx="667.06" cy="356.14" r="3.2" fill="#1d4ed8"/>
<circle cx="669.52" cy="354.52" r="3.2" fill="#1d4ed8"/>
<circle cx="671.99" cy="353.71" r="3.2" fill="#1d4ed8"/>
<circle cx="674.46" cy="354.12" r="3.2" fill="#1d4ed8"/>
<circle cx="676.92" cy="354.93" r="3.2" fill="#1d4ed8"/>
<circle cx="679.39" cy="352.90" r="3.2" fill="#1d4ed8"/>
<circle cx="681.86" cy="353.71" r="3.2" fill="#1d4ed8"/>
<circle cx="684.32" cy="353.31" r="3.2" fill="#1d4ed8"/>
<circle cx="686.79" cy="353.31" r="3.2" fill="#1d4ed8"/>
<circle cx="689.25" cy="354.52" r="3.2" fill="#1d4ed8"/>
<circle cx="691.72" cy="352.90" r="3.2" fill="#1d4ed8"/>
<circle cx="694.19" cy="352.50" r="3.2" fill="#1d4ed8"/>
<circle cx="696.65" cy="352.50" r="3.2" fill="#1d4ed8"/>
<circle cx="699.12" cy="353.31" r="3.2" fill="#1d4ed8"/>
<circle cx="701.58" cy="352.50" r="3.2" fill="#1d4ed8"/>
<circle cx="704.05" cy="353.71" r="3.2" fill="#1d4ed8"/>
<circle cx="706.52" cy="354.12" r="3.2" fill="#1d4ed8"/>
<circle cx="708.98" cy="352.50" r="3.2" fill="#1d4ed8"/>
<circle cx="711.45" cy="352.90" r="3.2" fill="#1d4ed8"/>
<circle cx="713.91" cy="352.50" r="3.2" fill="#1d4ed8"/>
<circle cx="716.38" cy="352.10" r="3.2" fill="#1d4ed8"/>
<circle cx="718.85" cy="351.69" r="3.2" fill="#1d4ed8"/>
<circle cx="721.31" cy="352.10" r="3.2" fill="#1d4ed8"/>
<circle cx="723.78" cy="354.12" r="3.2" fill="#1d4ed8"/>
<circle cx="726.24" cy="352.50" r="3.2" fill="#1d4ed8"/>
<circle cx="728.71" cy="352.10" r="3.2" fill="#1d4ed8"/>
<circle cx="731.18" cy="352.10" r="3.2" fill="#1d4ed8"/>
<circle cx="733.64" cy="349.67" r="3.2" fill="#1d4ed8"/>
<circle cx="736.11" cy="349.67" r="3.2" fill="#1d4ed8"/>
<circle cx="738.57" cy="350.88" r="3.2" fill="#1d4ed8"/>
<circle cx="741.04" cy="351.29" r="3.2" fill="#1d4ed8"/>
<circle cx="743.51" cy="350.48" r="3.2" fill="#1d4ed8"/>
<circle cx="745.97" cy="352.10" r="3.2" fill="#1d4ed8"/>
<circle cx="748.44" cy="350.48" r="3.2" fill="#1d4ed8"/>
<circle cx="750.90" cy="350.48" r="3.2" fill="#1d4ed8"/>
<circle cx="753.37" cy="350.48" r="3.2" fill="#1d4ed8"/>
<circle cx="755.84" cy="350.07" r="3.2" fill="#1d4ed8"/>
<circle cx="758.30" cy="348.46" r="3.2" fill="#1d4ed8"/>
<circle cx="760.77" cy="351.29" r="3.2" fill="#1d4ed8"/>
<circle cx="763.24" cy="349.67" r="3.2" fill="#1d4ed8"/>
<circle cx="765.70" cy="351.29" r="3.2" fill="#1d4ed8"/>
<circle cx="768.17" cy="349.67" r="3.2" fill="#1d4ed8"/>
<circle cx="770.63" cy="348.86" r="3.2" fill="#1d4ed8"/>
<circle cx="773.10" cy="348.46" r="3.2" fill="#1d4ed8"/>
<circle cx="775.57" cy="348.46" r="3.2" fill="#1d4ed8"/>
<circle cx="778.03" cy="347.24" r="3.2" fill="#1d4ed8"/>
<circle cx="780.50" cy="348.86" r="3.2" fill="#1d4ed8"/>
<circle cx="782.96" cy="346.84" r="3.2" fill="#1d4ed8"/>
<circle cx="785.43" cy="348.46" r="3.2" fill="#1d4ed8"/>
<circle cx="787.90" cy="348.86" r="3.2" fill="#1d4ed8"/>
<circle cx="790.36" cy="346.84" r="3.2" fill="#1d4ed8"/>
<circle cx="792.83" cy="349.26" r="3.2" fill="#1d4ed8"/>
<circle cx="795.29" cy="348.05" r="3.2" fill="#1d4ed8"/>
<circle cx="797.76" cy="349.26" r="3.2" fill="#1d4ed8"/>
<circle cx="800.23" cy="349.26" r="3.2" fill="#1d4ed8"/>
<circle cx="802.69" cy="350.48" r="3.2" fill="#1d4ed8"/>
<circle cx="805.16" cy="352.90" r="3.2" fill="#1d4ed8"/>
<circle cx="807.62" cy="349.67" r="3.2" fill="#1d4ed8"/>
<circle cx="810.09" cy="348.46" r="3.2" fill="#1d4ed8"/>
<circle cx="812.56" cy="345.62" r="3.2" fill="#1d4ed8"/>
<circle cx="815.02" cy="344.82" r="3.2" fill="#1d4ed8"/>
<circle cx="817.49" cy="344.41" r="3.2" fill="#1d4ed8"/>
<circle cx="819.95" cy="342.39" r="3.2" fill="#1d4ed8"/>
<circle cx="822.42" cy="341.18" r="3.2" fill="#1d4ed8"/>
<circle cx="824.89" cy="341.58" r="3.2" fill="#1d4ed8"/>
<circle cx="827.35" cy="339.15" r="3.2" fill="#1d4ed8"/>
<circle cx="829.82" cy="338.35" r="3.2" fill="#1d4ed8"/>
<circle cx="832.29" cy="337.54" r="3.2" fill="#1d4ed8"/>
<circle cx="834.75" cy="336.73" r="3.2" fill="#1d4ed8"/>
<circle cx="837.22" cy="335.92" r="3.2" fill="#1d4ed8"/>
<circle cx="839.68" cy="337.54" r="3.2" fill="#1d4ed8"/>
<circle cx="842.15" cy="338.35" r="3.2" fill="#1d4ed8"/>
<circle cx="844.62" cy="337.54" r="3.2" fill="#1d4ed8"/>
<circle cx="847.08" cy="337.54" r="3.2" fill="#1d4ed8"/>
<circle cx="849.55" cy="337.54" r="3.2" fill="#1d4ed8"/>
<circle cx="852.01" cy="333.09" r="3.2" fill="#1d4ed8"/>
<circle cx="854.48" cy="333.90" r="3.2" fill="#1d4ed8"/>
<circle cx="856.95" cy="335.92" r="3.2" fill="#1d4ed8"/>
<circle cx="859.41" cy="336.73" r="3.2" fill="#1d4ed8"/>
<circle cx="861.88" cy="335.51" r="3.2" fill="#1d4ed8"/>
<circle cx="864.34" cy="332.28" r="3.2" fill="#1d4ed8"/>
<circle cx="866.81" cy="331.47" r="3.2" fill="#1d4ed8"/>
<circle cx="869.28" cy="331.07" r="3.2" fill="#1d4ed8"/>
<circle cx="871.74" cy="331.47" r="3.2" fill="#1d4ed8"/>
<circle cx="874.21" cy="331.07" r="3.2" fill="#1d4ed8"/>
<circle cx="876.67" cy="331.07" r="3.2" fill="#1d4ed8"/>
<circle cx="879.14" cy="331.07" r="3.2" fill="#1d4ed8"/>
<circle cx="881.61" cy="331.07" r="3.2" fill="#1d4ed8"/>
<circle cx="884.07" cy="331.07" r="3.2" fill="#1d4ed8"/>
<circle cx="886.54" cy="331.07" r="3.2" fill="#1d4ed8"/>
<circle cx="889.00" cy="331.07" r="3.2" fill="#1d4ed8"/>
<circle cx="891.47" cy="331.07" r="3.2" fill="#1d4ed8"/>
<circle cx="893.94" cy="331.07" r="3.2" fill="#1d4ed8"/>
<circle cx="896.40" cy="331.07" r="3.2" fill="#1d4ed8"/>
<circle cx="898.87" cy="331.47" r="3.2" fill="#1d4ed8"/>
<circle cx="901.33" cy="331.88" r="3.2" fill="#1d4ed8"/>
<circle cx="903.80" cy="331.07" r="3.2" fill="#1d4ed8"/>
<circle cx="906.27" cy="331.47" r="3.2" fill="#1d4ed8"/>
<circle cx="908.73" cy="331.07" r="3.2" fill="#1d4ed8"/>
<circle cx="911.20" cy="331.47" r="3.2" fill="#1d4ed8"/>
<circle cx="913.67" cy="331.07" r="3.2" fill="#1d4ed8"/>
<circle cx="916.13" cy="324.19" r="3.2" fill="#1d4ed8"/>
<circle cx="918.60" cy="324.19" r="3.2" fill="#1d4ed8"/>
<circle cx="921.06" cy="318.93" r="3.2" fill="#1d4ed8"/>
<circle cx="923.53" cy="316.51" r="3.2" fill="#1d4ed8"/>
<circle cx="926.00" cy="310.44" r="3.2" fill="#1d4ed8"/>
<circle cx="928.46" cy="308.01" r="3.2" fill="#1d4ed8"/>
<circle cx="930.93" cy="600.00" r="3.2" fill="#1d4ed8"/>
<circle cx="933.39" cy="301.54" r="3.2" fill="#1d4ed8"/>
<circle cx="935.86" cy="290.22" r="3.2" fill="#1d4ed8"/>
<circle cx="938.33" cy="287.79" r="3.2" fill="#1d4ed8"/>
<circle cx="940.79" cy="286.18" r="3.2" fill="#1d4ed8"/>
<circle cx="943.26" cy="285.77" r="3.2" fill="#1d4ed8"/>
<circle cx="945.72" cy="285.77" r="3.2" fill="#1d4ed8"/>
<circle cx="948.19" cy="285.77" r="3.2" fill="#1d4ed8"/>
<circle cx="950.66" cy="286.18" r="3.2" fill="#1d4ed8"/>
<circle cx="953.12" cy="285.77" r="3.2" fill="#1d4ed8"/>
<circle cx="955.59" cy="285.77" r="3.2" fill="#1d4ed8"/>
<circle cx="958.05" cy="285.77" r="3.2" fill="#1d4ed8"/>
<circle cx="960.52" cy="283.35" r="3.2" fill="#1d4ed8"/>
<circle cx="962.99" cy="282.94" r="3.2" fill="#1d4ed8"/>
<circle cx="965.45" cy="282.94" r="3.2" fill="#1d4ed8"/>
<circle cx="967.92" cy="283.35" r="3.2" fill="#1d4ed8"/>
<circle cx="970.38" cy="282.94" r="3.2" fill="#1d4ed8"/>
<circle cx="972.85" cy="282.94" r="3.2" fill="#1d4ed8"/>
<circle cx="975.32" cy="283.75" r="3.2" fill="#1d4ed8"/>
<circle cx="977.78" cy="282.13" r="3.2" fill="#1d4ed8"/>
<circle cx="980.25" cy="282.13" r="3.2" fill="#1d4ed8"/>
<circle cx="982.71" cy="282.54" r="3.2" fill="#1d4ed8"/>
<circle cx="985.18" cy="282.13" r="3.2" fill="#1d4ed8"/>
<circle cx="987.65" cy="282.54" r="3.2" fill="#1d4ed8"/>
<circle cx="990.11" cy="282.94" r="3.2" fill="#1d4ed8"/>
<circle cx="992.58" cy="281.73" r="3.2" fill="#1d4ed8"/>
<circle cx="995.05" cy="282.54" r="3.2" fill="#1d4ed8"/>
<circle cx="997.51" cy="281.73" r="3.2" fill="#1d4ed8"/>
<circle cx="999.98" cy="282.54" r="3.2" fill="#1d4ed8"/>
<circle cx="1002.44" cy="282.13" r="3.2" fill="#1d4ed8"/>
<circle cx="1004.91" cy="282.13" r="3.2" fill="#1d4ed8"/>
<circle cx="1007.38" cy="281.73" r="3.2" fill="#1d4ed8"/>
<circle cx="1009.84" cy="281.73" r="3.2" fill="#1d4ed8"/>
<circle cx="1012.31" cy="281.32" r="3.2" fill="#1d4ed8"/>
<circle cx="1014.77" cy="281.73" r="3.2" fill="#1d4ed8"/>
<circle cx="1017.24" cy="282.13" r="3.2" fill="#1d4ed8"/>
<circle cx="1019.71" cy="281.32" r="3.2" fill="#1d4ed8"/>
<circle cx="1022.17" cy="281.32" r="3.2" fill="#1d4ed8"/>
<circle cx="1024.64" cy="282.54" r="3.2" fill="#1d4ed8"/>
<circle cx="1027.10" cy="282.13" r="3.2" fill="#1d4ed8"/>
<circle cx="1029.57" cy="281.32" r="3.2" fill="#1d4ed8"/>
<circle cx="1032.04" cy="281.32" r="3.2" fill="#1d4ed8"/>
<circle cx="1034.50" cy="281.32" r="3.2" fill="#1d4ed8"/>
<circle cx="1036.97" cy="282.54" r="3.2" fill="#1d4ed8"/>
<circle cx="1039.43" cy="282.13" r="3.2" fill="#1d4ed8"/>
<circle cx="1041.90" cy="281.32" r="3.2" fill="#1d4ed8"/>
<circle cx="1044.37" cy="282.13" r="3.2" fill="#1d4ed8"/>
<circle cx="1046.83" cy="281.73" r="3.2" fill="#1d4ed8"/>
<circle cx="1049.30" cy="282.13" r="3.2" fill="#1d4ed8"/>
<circle cx="1051.76" cy="280.11" r="3.2" fill="#1d4ed8"/>
<circle cx="1054.23" cy="280.11" r="3.2" fill="#1d4ed8"/>
<circle cx="1056.70" cy="280.51" r="3.2" fill="#1d4ed8"/>
<circle cx="1059.16" cy="279.71" r="3.2" fill="#1d4ed8"/>
<circle cx="1061.63" cy="280.11" r="3.2" fill="#1d4ed8"/>
<circle cx="1064.10" cy="280.51" r="3.2" fill="#1d4ed8"/>
<circle cx="1066.56" cy="279.71" r="3.2" fill="#1d4ed8"/>
<circle cx="1069.03" cy="280.11" r="3.2" fill="#1d4ed8"/>
<circle cx="1071.49" cy="280.11" r="3.2" fill="#1d4ed8"/>
<circle cx="1073.96" cy="279.30" r="3.2" fill="#1d4ed8"/>
<circle cx="1076.43" cy="278.90" r="3.2" fill="#1d4ed8"/>
<circle cx="1078.89" cy="278.90" r="3.2" fill="#1d4ed8"/>
<circle cx="1081.36" cy="280.51" r="3.2" fill="#1d4ed8"/>
<circle cx="1083.82" cy="279.30" r="3.2" fill="#1d4ed8"/>
<circle cx="1086.29" cy="278.09" r="3.2" fill="#1d4ed8"/>
<circle cx="1088.76" cy="278.49" r="3.2" fill="#1d4ed8"/>
<circle cx="1091.22" cy="278.49" r="3.2" fill="#1d4ed8"/>
<circle cx="1093.69" cy="277.28" r="3.2" fill="#1d4ed8"/>
<circle cx="1096.15" cy="277.68" r="3.2" fill="#1d4ed8"/>
<circle cx="1098.62" cy="277.68" r="3.2" fill="#1d4ed8"/>
<circle cx="1101.09" cy="278.09" r="3.2" fill="#1d4ed8"/>
<circle cx="1103.55" cy="277.28" r="3.2" fill="#1d4ed8"/>
<circle cx="1106.02" cy="600.00" r="3.2" fill="#1d4ed8"/>
<circle cx="1108.48" cy="278.90" r="3.2" fill="#1d4ed8"/>
<circle cx="1110.95" cy="279.30" r="3.2" fill="#1d4ed8"/>
<circle cx="1113.42" cy="278.90" r="3.2" fill="#1d4ed8"/>
<circle cx="1115.88" cy="278.49" r="3.2" fill="#1d4ed8"/>
<circle cx="1118.35" cy="278.49" r="3.2" fill="#1d4ed8"/>
<circle cx="1120.81" cy="278.49" r="3.2" fill="#1d4ed8"/>
<circle cx="1123.28" cy="278.49" r="3.2" fill="#1d4ed8"/>
<circle cx="1125.75" cy="278.49" r="3.2" fill="#1d4ed8"/>
<circle cx="1128.21" cy="278.49" r="3.2" fill="#1d4ed8"/>
<circle cx="1130.68" cy="278.49" r="3.2" fill="#1d4ed8"/>
<circle cx="1133.14" cy="278.49" r="3.2" fill="#1d4ed8"/>
<circle cx="1135.61" cy="278.49" r="3.2" fill="#1d4ed8"/>
<circle cx="1138.08" cy="278.49" r="3.2" fill="#1d4ed8"/>
<circle cx="1140.54" cy="278.49" r="3.2" fill="#1d4ed8"/>
<circle cx="1143.01" cy="278.49" r="3.2" fill="#1d4ed8"/>
<circle cx="1145.48" cy="600.00" r="3.2" fill="#1d4ed8"/>
<circle cx="1147.94" cy="600.00" r="3.2" fill="#1d4ed8"/>
<circle cx="1150.41" cy="254.63" r="3.2" fill="#1d4ed8"/>
<circle cx="1152.87" cy="600.00" r="3.2" fill="#1d4ed8"/>
<circle cx="1155.34" cy="245.74" r="3.2" fill="#1d4ed8"/>
<circle cx="1157.81" cy="245.74" r="3.2" fill="#1d4ed8"/>
<circle cx="1160.27" cy="246.14" r="3.2" fill="#1d4ed8"/>
<circle cx="1162.74" cy="245.74" r="3.2" fill="#1d4ed8"/>
<circle cx="1165.20" cy="245.74" r="3.2" fill="#1d4ed8"/>
<circle cx="1167.67" cy="245.74" r="3.2" fill="#1d4ed8"/>
<circle cx="1170.14" cy="245.74" r="3.2" fill="#1d4ed8"/>
<circle cx="1172.60" cy="245.74" r="3.2" fill="#1d4ed8"/>
<circle cx="1175.07" cy="240.07" r="3.2" fill="#1d4ed8"/>
<circle cx="1177.53" cy="238.05" r="3.2" fill="#1d4ed8"/>
<circle cx="1180.00" cy="238.05" r="3.2" fill="#1d4ed8"/>
<text x="635" y="695" text-anchor="middle" font-size="14" fill="#111" font-family="sans-serif">Date</text>
<text x="24" y="325" text-anchor="middle" font-size="14" fill="#111" transform="rotate(-90 24,325)" font-family="sans-serif">Passed files</text>
</svg>
