<?xml version="1.0" encoding="UTF-8"?>
<svg xmlns="http://www.w3.org/2000/svg" width="1280" height="720" viewBox="0 0 1280 720">
<rect width="100%" height="100%" fill="#ffffff"/>
<text x="640" y="30" text-anchor="middle" font-size="22" font-family="sans-serif">Roast passed files history</text>
<line x1="90" y1="600" x2="1180" y2="600" stroke="#333" stroke-width="1.5"/>
<line x1="90" y1="50" x2="90" y2="600" stroke="#333" stroke-width="1.5"/>
<line x1="90" y1="600.00" x2="1180" y2="600.00" stroke="#e5e7eb" stroke-width="1"/>
<text x="78" y="605.00" text-anchor="end" font-size="12" fill="#111" font-family="sans-serif">0</text>
<line x1="90" y1="397.79" x2="1180" y2="397.79" stroke="#e5e7eb" stroke-width="1"/>
<text x="78" y="402.79" text-anchor="end" font-size="12" fill="#111" font-family="sans-serif">500</text>
<line x1="90" y1="195.59" x2="1180" y2="195.59" stroke="#e5e7eb" stroke-width="1"/>
<text x="78" y="200.59" text-anchor="end" font-size="12" fill="#111" font-family="sans-serif">1000</text>
<line x1="90.00" y1="600" x2="90.00" y2="606" stroke="#333" stroke-width="1"/>
<text x="90.00" y="624" text-anchor="end" font-size="11" fill="#111" transform="rotate(-40 90.00,624)" font-family="sans-serif">2026-02-12</text>
<line x1="225.10" y1="600" x2="225.10" y2="606" stroke="#333" stroke-width="1"/>
<text x="225.10" y="624" text-anchor="end" font-size="11" fill="#111" transform="rotate(-40 225.10,624)" font-family="sans-serif">2026-02-17</text>
<line x1="360.20" y1="600" x2="360.20" y2="606" stroke="#333" stroke-width="1"/>
<text x="360.20" y="624" text-anchor="end" font-size="11" fill="#111" transform="rotate(-40 360.20,624)" font-family="sans-serif">2026-02-21</text>
<line x1="495.30" y1="600" x2="495.30" y2="606" stroke="#333" stroke-width="1"/>
<text x="495.30" y="624" text-anchor="end" font-size="11" fill="#111" transform="rotate(-40 495.30,624)" font-family="sans-serif">2026-02-25</text>
<line x1="630.39" y1="600" x2="630.39" y2="606" stroke="#333" stroke-width="1"/>
<text x="630.39" y="624" text-anchor="end" font-size="11" fill="#111" transform="rotate(-40 630.39,624)" font-family="sans-serif">2026-02-28</text>
<line x1="765.49" y1="600" x2="765.49" y2="606" stroke="#333" stroke-width="1"/>
<text x="765.49" y="624" text-anchor="end" font-size="11" fill="#111" transform="rotate(-40 765.49,624)" font-family="sans-serif">2026-03-05</text>
<line x1="900.59" y1="600" x2="900.59" y2="606" stroke="#333" stroke-width="1"/>
<text x="900.59" y="624" text-anchor="end" font-size="11" fill="#111" transform="rotate(-40 900.59,624)" font-family="sans-serif">2026-03-06</text>
<line x1="1035.69" y1="600" x2="1035.69" y2="606" stroke="#333" stroke-width="1"/>
<text x="1035.69" y="624" text-anchor="end" font-size="11" fill="#111" transform="rotate(-40 1035.69,624)" font-family="sans-serif">2026-03-11</text>
<line x1="1170.79" y1="600" x2="1170.79" y2="606" stroke="#333" stroke-width="1"/>
<text x="1170.79" y="624" text-anchor="end" font-size="11" fill="#111" transform="rotate(-40 1170.79,624)" font-family="sans-serif">2026-03-18</text>
<line x1="1180.00" y1="600" x2="1180.00" y2="606" stroke="#333" stroke-width="1"/>
<text x="1180.00" y="624" text-anchor="end" font-size="11" fill="#111" transform="rotate(-40 1180.00,624)" font-family="sans-serif">2026-03-18</text>
<line x1="90" y1="75.88" x2="1180" y2="75.88" stroke="#dc2626" stroke-width="1.5" stroke-dasharray="8,4"/>
<text x="1184" y="79.88" font-size="12" fill="#dc2626" font-family="sans-serif">Goal: 1296</text>
<polyline fill="none" stroke="#2563eb" stroke-width="3" points="90.00,540.55 93.07,538.53 96.14,536.91 99.21,534.49 102.28,534.49 105.35,533.27 108.42,532.46 111.49,532.87 114.56,532.06 117.63,532.46 120.70,532.06 123.77,568.46 126.85,568.46 129.92,566.43 132.99,545.00 136.06,545.00 139.13,544.19 142.20,543.79 145.27,543.79 148.34,543.38 151.41,541.76 154.48,541.36 157.55,540.96 160.62,540.96 163.69,539.34 166.76,539.34 169.83,556.73 172.90,556.73 175.97,555.51 179.04,551.07 182.11,538.93 185.18,538.93 188.25,538.93 191.32,538.12 194.39,536.91 197.46,536.91 200.54,536.51 203.61,536.51 206.68,556.73 209.75,556.73 212.82,556.73 215.89,556.73 218.96,535.29 222.03,535.29 225.10,535.29 228.17,535.29 231.24,534.49 234.31,534.08 237.38,533.68 240.45,532.87 243.52,532.06 246.59,532.06 249.66,531.25 252.73,530.85 255.80,530.44 258.87,530.04 261.94,530.04 265.01,529.23 268.08,529.23 271.15,529.23 274.23,528.42 277.30,528.42 280.37,527.61 283.44,527.21 286.51,526.80 289.58,526.40 292.65,525.18 295.72,523.57 298.79,523.57 301.86,523.16 304.93,522.76 308.00,522.35 311.07,521.54 314.14,519.52 317.21,517.50 320.28,517.50 323.35,517.50 326.42,517.50 329.49,517.50 332.56,517.50 335.63,517.10 338.70,516.69 341.77,515.48 344.85,515.07 347.92,514.67 350.99,513.86 354.06,514.26 357.13,512.24 360.20,511.84 363.27,511.84 366.34,511.03 369.41,509.82 372.48,507.79 375.55,506.99 378.62,506.58 381.69,509.41 384.76,509.01 387.83,504.96 390.90,504.56 393.97,504.15 397.04,504.56 400.11,503.75 403.18,503.75 406.25,503.35 409.32,499.30 412.39,496.47 415.46,490.00 418.54,484.34 421.61,481.10 424.68,480.29 427.75,480.70 430.82,460.88 433.89,459.26 436.96,458.05 440.03,456.03 443.10,456.03 446.17,454.41 449.24,450.77 452.31,444.30 455.38,443.90 458.45,600.00 461.52,441.88 464.59,440.66 467.66,439.45 470.73,439.04 473.80,438.64 476.87,437.83 479.94,436.62 483.01,436.62 486.08,434.60 489.15,432.17 492.23,429.34 495.30,428.93 498.37,428.53 501.44,427.72 504.51,426.91 507.58,426.10 510.65,426.10 513.72,426.10 516.79,419.63 519.86,419.23 522.93,418.42 526.00,418.01 529.07,417.61 532.14,417.61 535.21,417.61 538.28,417.21 541.35,417.21 544.42,413.57 547.49,411.95 550.56,412.76 553.63,410.74 556.70,410.74 559.77,410.33 562.85,410.33 565.92,410.33 568.99,409.93 572.06,409.93 575.13,409.93 578.20,409.52 581.27,409.52 584.34,409.12 587.41,409.52 590.48,409.12 593.55,407.50 596.62,407.10 599.69,403.05 602.76,399.82 605.83,400.22 608.90,400.62 611.97,400.62 615.04,399.41 618.11,392.94 621.18,391.32 624.25,389.30 627.32,389.30 630.39,388.49 633.46,375.15 636.54,374.74 639.61,374.74 642.68,374.74 645.75,374.74 648.82,374.34 651.89,374.34 654.96,374.34 658.03,374.34 661.10,374.34 664.17,373.93 667.24,373.12 670.31,372.72 673.38,373.53 676.45,435.81 679.52,372.32 682.59,372.72 685.66,371.91 688.73,371.91 691.80,372.32 694.87,371.10 697.94,369.89 701.01,369.89 704.08,369.89 707.15,369.49 710.23,369.89 713.30,369.08 716.37,368.68 719.44,368.27 722.51,367.87 725.58,367.06 728.65,367.46 731.72,367.06 734.79,366.25 737.86,368.27 740.93,368.68 744.00,368.68 747.07,368.27 750.14,369.08 753.21,367.87 756.28,367.46 759.35,367.06 762.42,360.18 765.49,359.78 768.56,359.38 771.63,356.95 774.70,357.35 777.77,357.76 780.85,355.33 783.92,355.74 786.99,357.35 790.06,355.33 793.13,356.14 796.20,355.74 799.27,356.14 802.34,354.12 805.41,354.93 808.48,356.14 811.55,354.52 814.62,353.71 817.69,354.12 820.76,354.93 823.83,352.90 826.90,353.71 829.97,353.31 833.04,353.31 836.11,354.52 839.18,352.90 842.25,352.50 845.32,352.50 848.39,353.31 851.46,352.50 854.54,353.71 857.61,354.12 860.68,352.50 863.75,352.90 866.82,352.50 869.89,352.10 872.96,351.69 876.03,352.10 879.10,354.12 882.17,352.50 885.24,352.10 888.31,352.10 891.38,349.67 894.45,349.67 897.52,350.88 900.59,351.29 903.66,350.48 906.73,352.10 909.80,350.48 912.87,350.48 915.94,350.48 919.01,350.07 922.08,348.46 925.15,351.29 928.23,349.67 931.30,351.29 934.37,349.67 937.44,348.86 940.51,348.46 943.58,348.46 946.65,347.24 949.72,348.86 952.79,346.84 955.86,348.46 958.93,348.86 962.00,346.84 965.07,349.26 968.14,348.05 971.21,349.26 974.28,349.26 977.35,350.48 980.42,352.90 983.49,349.67 986.56,348.46 989.63,345.62 992.70,344.82 995.77,344.41 998.85,342.39 1001.92,341.18 1004.99,341.58 1008.06,339.15 1011.13,338.35 1014.20,337.54 1017.27,336.73 1020.34,335.92 1023.41,337.54 1026.48,338.35 1029.55,337.54 1032.62,337.54 1035.69,337.54 1038.76,333.09 1041.83,333.90 1044.90,335.92 1047.97,336.73 1051.04,335.51 1054.11,332.28 1057.18,331.47 1060.25,331.07 1063.32,331.47 1066.39,331.07 1069.46,331.07 1072.54,331.07 1075.61,331.07 1078.68,331.07 1081.75,331.07 1084.82,331.07 1087.89,331.07 1090.96,331.07 1094.03,331.07 1097.10,331.47 1100.17,331.88 1103.24,331.07 1106.31,331.47 1109.38,331.07 1112.45,331.47 1115.52,331.07 1118.59,324.19 1121.66,324.19 1124.73,318.93 1127.80,316.51 1130.87,310.44 1133.94,308.01 1137.01,600.00 1140.08,301.54 1143.15,290.22 1146.23,287.79 1149.30,286.18 1152.37,285.77 1155.44,285.77 1158.51,285.77 1161.58,286.18 1164.65,285.77 1167.72,285.77 1170.79,285.77 1173.86,283.35 1176.93,282.94 1180.00,282.94"/>
<circle cx="90.00" cy="540.55" r="3.2" fill="#1d4ed8"/>
<circle cx="93.07" cy="538.53" r="3.2" fill="#1d4ed8"/>
<circle cx="96.14" cy="536.91" r="3.2" fill="#1d4ed8"/>
<circle cx="99.21" cy="534.49" r="3.2" fill="#1d4ed8"/>
<circle cx="102.28" cy="534.49" r="3.2" fill="#1d4ed8"/>
<circle cx="105.35" cy="533.27" r="3.2" fill="#1d4ed8"/>
<circle cx="108.42" cy="532.46" r="3.2" fill="#1d4ed8"/>
<circle cx="111.49" cy="532.87" r="3.2" fill="#1d4ed8"/>
<circle cx="114.56" cy="532.06" r="3.2" fill="#1d4ed8"/>
<circle cx="117.63" cy="532.46" r="3.2" fill="#1d4ed8"/>
<circle cx="120.70" cy="532.06" r="3.2" fill="#1d4ed8"/>
<circle cx="123.77" cy="568.46" r="3.2" fill="#1d4ed8"/>
<circle cx="126.85" cy="568.46" r="3.2" fill="#1d4ed8"/>
<circle cx="129.92" cy="566.43" r="3.2" fill="#1d4ed8"/>
<circle cx="132.99" cy="545.00" r="3.2" fill="#1d4ed8"/>
<circle cx="136.06" cy="545.00" r="3.2" fill="#1d4ed8"/>
<circle cx="139.13" cy="544.19" r="3.2" fill="#1d4ed8"/>
<circle cx="142.20" cy="543.79" r="3.2" fill="#1d4ed8"/>
<circle cx="145.27" cy="543.79" r="3.2" fill="#1d4ed8"/>
<circle cx="148.34" cy="543.38" r="3.2" fill="#1d4ed8"/>
<circle cx="151.41" cy="541.76" r="3.2" fill="#1d4ed8"/>
<circle cx="154.48" cy="541.36" r="3.2" fill="#1d4ed8"/>
<circle cx="157.55" cy="540.96" r="3.2" fill="#1d4ed8"/>
<circle cx="160.62" cy="540.96" r="3.2" fill="#1d4ed8"/>
<circle cx="163.69" cy="539.34" r="3.2" fill="#1d4ed8"/>
<circle cx="166.76" cy="539.34" r="3.2" fill="#1d4ed8"/>
<circle cx="169.83" cy="556.73" r="3.2" fill="#1d4ed8"/>
<circle cx="172.90" cy="556.73" r="3.2" fill="#1d4ed8"/>
<circle cx="175.97" cy="555.51" r="3.2" fill="#1d4ed8"/>
<circle cx="179.04" cy="551.07" r="3.2" fill="#1d4ed8"/>
<circle cx="182.11" cy="538.93" r="3.2" fill="#1d4ed8"/>
<circle cx="185.18" cy="538.93" r="3.2" fill="#1d4ed8"/>
<circle cx="188.25" cy="538.93" r="3.2" fill="#1d4ed8"/>
<circle cx="191.32" cy="538.12" r="3.2" fill="#1d4ed8"/>
<circle cx="194.39" cy="536.91" r="3.2" fill="#1d4ed8"/>
<circle cx="197.46" cy="536.91" r="3.2" fill="#1d4ed8"/>
<circle cx="200.54" cy="536.51" r="3.2" fill="#1d4ed8"/>
<circle cx="203.61" cy="536.51" r="3.2" fill="#1d4ed8"/>
<circle cx="206.68" cy="556.73" r="3.2" fill="#1d4ed8"/>
<circle cx="209.75" cy="556.73" r="3.2" fill="#1d4ed8"/>
<circle cx="212.82" cy="556.73" r="3.2" fill="#1d4ed8"/>
<circle cx="215.89" cy="556.73" r="3.2" fill="#1d4ed8"/>
<circle cx="218.96" cy="535.29" r="3.2" fill="#1d4ed8"/>
<circle cx="222.03" cy="535.29" r="3.2" fill="#1d4ed8"/>
<circle cx="225.10" cy="535.29" r="3.2" fill="#1d4ed8"/>
<circle cx="228.17" cy="535.29" r="3.2" fill="#1d4ed8"/>
<circle cx="231.24" cy="534.49" r="3.2" fill="#1d4ed8"/>
<circle cx="234.31" cy="534.08" r="3.2" fill="#1d4ed8"/>
<circle cx="237.38" cy="533.68" r="3.2" fill="#1d4ed8"/>
<circle cx="240.45" cy="532.87" r="3.2" fill="#1d4ed8"/>
<circle cx="243.52" cy="532.06" r="3.2" fill="#1d4ed8"/>
<circle cx="246.59" cy="532.06" r="3.2" fill="#1d4ed8"/>
<circle cx="249.66" cy="531.25" r="3.2" fill="#1d4ed8"/>
<circle cx="252.73" cy="530.85" r="3.2" fill="#1d4ed8"/>
<circle cx="255.80" cy="530.44" r="3.2" fill="#1d4ed8"/>
<circle cx="258.87" cy="530.04" r="3.2" fill="#1d4ed8"/>
<circle cx="261.94" cy="530.04" r="3.2" fill="#1d4ed8"/>
<circle cx="265.01" cy="529.23" r="3.2" fill="#1d4ed8"/>
<circle cx="268.08" cy="529.23" r="3.2" fill="#1d4ed8"/>
<circle cx="271.15" cy="529.23" r="3.2" fill="#1d4ed8"/>
<circle cx="274.23" cy="528.42" r="3.2" fill="#1d4ed8"/>
<circle cx="277.30" cy="528.42" r="3.2" fill="#1d4ed8"/>
<circle cx="280.37" cy="527.61" r="3.2" fill="#1d4ed8"/>
<circle cx="283.44" cy="527.21" r="3.2" fill="#1d4ed8"/>
<circle cx="286.51" cy="526.80" r="3.2" fill="#1d4ed8"/>
<circle cx="289.58" cy="526.40" r="3.2" fill="#1d4ed8"/>
<circle cx="292.65" cy="525.18" r="3.2" fill="#1d4ed8"/>
<circle cx="295.72" cy="523.57" r="3.2" fill="#1d4ed8"/>
<circle cx="298.79" cy="523.57" r="3.2" fill="#1d4ed8"/>
<circle cx="301.86" cy="523.16" r="3.2" fill="#1d4ed8"/>
<circle cx="304.93" cy="522.76" r="3.2" fill="#1d4ed8"/>
<circle cx="308.00" cy="522.35" r="3.2" fill="#1d4ed8"/>
<circle cx="311.07" cy="521.54" r="3.2" fill="#1d4ed8"/>
<circle cx="314.14" cy="519.52" r="3.2" fill="#1d4ed8"/>
<circle cx="317.21" cy="517.50" r="3.2" fill="#1d4ed8"/>
<circle cx="320.28" cy="517.50" r="3.2" fill="#1d4ed8"/>
<circle cx="323.35" cy="517.50" r="3.2" fill="#1d4ed8"/>
<circle cx="326.42" cy="517.50" r="3.2" fill="#1d4ed8"/>
<circle cx="329.49" cy="517.50" r="3.2" fill="#1d4ed8"/>
<circle cx="332.56" cy="517.50" r="3.2" fill="#1d4ed8"/>
<circle cx="335.63" cy="517.10" r="3.2" fill="#1d4ed8"/>
<circle cx="338.70" cy="516.69" r="3.2" fill="#1d4ed8"/>
<circle cx="341.77" cy="515.48" r="3.2" fill="#1d4ed8"/>
<circle cx="344.85" cy="515.07" r="3.2" fill="#1d4ed8"/>
<circle cx="347.92" cy="514.67" r="3.2" fill="#1d4ed8"/>
<circle cx="350.99" cy="513.86" r="3.2" fill="#1d4ed8"/>
<circle cx="354.06" cy="514.26" r="3.2" fill="#1d4ed8"/>
<circle cx="357.13" cy="512.24" r="3.2" fill="#1d4ed8"/>
<circle cx="360.20" cy="511.84" r="3.2" fill="#1d4ed8"/>
<circle cx="363.27" cy="511.84" r="3.2" fill="#1d4ed8"/>
<circle cx="366.34" cy="511.03" r="3.2" fill="#1d4ed8"/>
<circle cx="369.41" cy="509.82" r="3.2" fill="#1d4ed8"/>
<circle cx="372.48" cy="507.79" r="3.2" fill="#1d4ed8"/>
<circle cx="375.55" cy="506.99" r="3.2" fill="#1d4ed8"/>
<circle cx="378.62" cy="506.58" r="3.2" fill="#1d4ed8"/>
<circle cx="381.69" cy="509.41" r="3.2" fill="#1d4ed8"/>
<circle cx="384.76" cy="509.01" r="3.2" fill="#1d4ed8"/>
<circle cx="387.83" cy="504.96" r="3.2" fill="#1d4ed8"/>
<circle cx="390.90" cy="504.56" r="3.2" fill="#1d4ed8"/>
<circle cx="393.97" cy="504.15" r="3.2" fill="#1d4ed8"/>
<circle cx="397.04" cy="504.56" r="3.2" fill="#1d4ed8"/>
<circle cx="400.11" cy="503.75" r="3.2" fill="#1d4ed8"/>
<circle cx="403.18" cy="503.75" r="3.2" fill="#1d4ed8"/>
<circle cx="406.25" cy="503.35" r="3.2" fill="#1d4ed8"/>
<circle cx="409.32" cy="499.30" r="3.2" fill="#1d4ed8"/>
<circle cx="412.39" cy="496.47" r="3.2" fill="#1d4ed8"/>
<circle cx="415.46" cy="490.00" r="3.2" fill="#1d4ed8"/>
<circle cx="418.54" cy="484.34" r="3.2" fill="#1d4ed8"/>
<circle cx="421.61" cy="481.10" r="3.2" fill="#1d4ed8"/>
<circle cx="424.68" cy="480.29" r="3.2" fill="#1d4ed8"/>
<circle cx="427.75" cy="480.70" r="3.2" fill="#1d4ed8"/>
<circle cx="430.82" cy="460.88" r="3.2" fill="#1d4ed8"/>
<circle cx="433.89" cy="459.26" r="3.2" fill="#1d4ed8"/>
<circle cx="436.96" cy="458.05" r="3.2" fill="#1d4ed8"/>
<circle cx="440.03" cy="456.03" r="3.2" fill="#1d4ed8"/>
<circle cx="443.10" cy="456.03" r="3.2" fill="#1d4ed8"/>
<circle cx="446.17" cy="454.41" r="3.2" fill="#1d4ed8"/>
<circle cx="449.24" cy="450.77" r="3.2" fill="#1d4ed8"/>
<circle cx="452.31" cy="444.30" r="3.2" fill="#1d4ed8"/>
<circle cx="455.38" cy="443.90" r="3.2" fill="#1d4ed8"/>
<circle cx="458.45" cy="600.00" r="3.2" fill="#1d4ed8"/>
<circle cx="461.52" cy="441.88" r="3.2" fill="#1d4ed8"/>
<circle cx="464.59" cy="440.66" r="3.2" fill="#1d4ed8"/>
<circle cx="467.66" cy="439.45" r="3.2" fill="#1d4ed8"/>
<circle cx="470.73" cy="439.04" r="3.2" fill="#1d4ed8"/>
<circle cx="473.80" cy="438.64" r="3.2" fill="#1d4ed8"/>
<circle cx="476.87" cy="437.83" r="3.2" fill="#1d4ed8"/>
<circle cx="479.94" cy="436.62" r="3.2" fill="#1d4ed8"/>
<circle cx="483.01" cy="436.62" r="3.2" fill="#1d4ed8"/>
<circle cx="486.08" cy="434.60" r="3.2" fill="#1d4ed8"/>
<circle cx="489.15" cy="432.17" r="3.2" fill="#1d4ed8"/>
<circle cx="492.23" cy="429.34" r="3.2" fill="#1d4ed8"/>
<circle cx="495.30" cy="428.93" r="3.2" fill="#1d4ed8"/>
<circle cx="498.37" cy="428.53" r="3.2" fill="#1d4ed8"/>
<circle cx="501.44" cy="427.72" r="3.2" fill="#1d4ed8"/>
<circle cx="504.51" cy="426.91" r="3.2" fill="#1d4ed8"/>
<circle cx="507.58" cy="426.10" r="3.2" fill="#1d4ed8"/>
<circle cx="510.65" cy="426.10" r="3.2" fill="#1d4ed8"/>
<circle cx="513.72" cy="426.10" r="3.2" fill="#1d4ed8"/>
<circle cx="516.79" cy="419.63" r="3.2" fill="#1d4ed8"/>
<circle cx="519.86" cy="419.23" r="3.2" fill="#1d4ed8"/>
<circle cx="522.93" cy="418.42" r="3.2" fill="#1d4ed8"/>
<circle cx="526.00" cy="418.01" r="3.2" fill="#1d4ed8"/>
<circle cx="529.07" cy="417.61" r="3.2" fill="#1d4ed8"/>
<circle cx="532.14" cy="417.61" r="3.2" fill="#1d4ed8"/>
<circle cx="535.21" cy="417.61" r="3.2" fill="#1d4ed8"/>
<circle cx="538.28" cy="417.21" r="3.2" fill="#1d4ed8"/>
<circle cx="541.35" cy="417.21" r="3.2" fill="#1d4ed8"/>
<circle cx="544.42" cy="413.57" r="3.2" fill="#1d4ed8"/>
<circle cx="547.49" cy="411.95" r="3.2" fill="#1d4ed8"/>
<circle cx="550.56" cy="412.76" r="3.2" fill="#1d4ed8"/>
<circle cx="553.63" cy="410.74" r="3.2" fill="#1d4ed8"/>
<circle cx="556.70" cy="410.74" r="3.2" fill="#1d4ed8"/>
<circle cx="559.77" cy="410.33" r="3.2" fill="#1d4ed8"/>
<circle cx="562.85" cy="410.33" r="3.2" fill="#1d4ed8"/>
<circle cx="565.92" cy="410.33" r="3.2" fill="#1d4ed8"/>
<circle cx="568.99" cy="409.93" r="3.2" fill="#1d4ed8"/>
<circle cx="572.06" cy="409.93" r="3.2" fill="#1d4ed8"/>
<circle cx="575.13" cy="409.93" r="3.2" fill="#1d4ed8"/>
<circle cx="578.20" cy="409.52" r="3.2" fill="#1d4ed8"/>
<circle cx="581.27" cy="409.52" r="3.2" fill="#1d4ed8"/>
<circle cx="584.34" cy="409.12" r="3.2" fill="#1d4ed8"/>
<circle cx="587.41" cy="409.52" r="3.2" fill="#1d4ed8"/>
<circle cx="590.48" cy="409.12" r="3.2" fill="#1d4ed8"/>
<circle cx="593.55" cy="407.50" r="3.2" fill="#1d4ed8"/>
<circle cx="596.62" cy="407.10" r="3.2" fill="#1d4ed8"/>
<circle cx="599.69" cy="403.05" r="3.2" fill="#1d4ed8"/>
<circle cx="602.76" cy="399.82" r="3.2" fill="#1d4ed8"/>
<circle cx="605.83" cy="400.22" r="3.2" fill="#1d4ed8"/>
<circle cx="608.90" cy="400.62" r="3.2" fill="#1d4ed8"/>
<circle cx="611.97" cy="400.62" r="3.2" fill="#1d4ed8"/>
<circle cx="615.04" cy="399.41" r="3.2" fill="#1d4ed8"/>
<circle cx="618.11" cy="392.94" r="3.2" fill="#1d4ed8"/>
<circle cx="621.18" cy="391.32" r="3.2" fill="#1d4ed8"/>
<circle cx="624.25" cy="389.30" r="3.2" fill="#1d4ed8"/>
<circle cx="627.32" cy="389.30" r="3.2" fill="#1d4ed8"/>
<circle cx="630.39" cy="388.49" r="3.2" fill="#1d4ed8"/>
<circle cx="633.46" cy="375.15" r="3.2" fill="#1d4ed8"/>
<circle cx="636.54" cy="374.74" r="3.2" fill="#1d4ed8"/>
<circle cx="639.61" cy="374.74" r="3.2" fill="#1d4ed8"/>
<circle cx="642.68" cy="374.74" r="3.2" fill="#1d4ed8"/>
<circle cx="645.75" cy="374.74" r="3.2" fill="#1d4ed8"/>
<circle cx="648.82" cy="374.34" r="3.2" fill="#1d4ed8"/>
<circle cx="651.89" cy="374.34" r="3.2" fill="#1d4ed8"/>
<circle cx="654.96" cy="374.34" r="3.2" fill="#1d4ed8"/>
<circle cx="658.03" cy="374.34" r="3.2" fill="#1d4ed8"/>
<circle cx="661.10" cy="374.34" r="3.2" fill="#1d4ed8"/>
<circle cx="664.17" cy="373.93" r="3.2" fill="#1d4ed8"/>
<circle cx="667.24" cy="373.12" r="3.2" fill="#1d4ed8"/>
<circle cx="670.31" cy="372.72" r="3.2" fill="#1d4ed8"/>
<circle cx="673.38" cy="373.53" r="3.2" fill="#1d4ed8"/>
<circle cx="676.45" cy="435.81" r="3.2" fill="#1d4ed8"/>
<circle cx="679.52" cy="372.32" r="3.2" fill="#1d4ed8"/>
<circle cx="682.59" cy="372.72" r="3.2" fill="#1d4ed8"/>
<circle cx="685.66" cy="371.91" r="3.2" fill="#1d4ed8"/>
<circle cx="688.73" cy="371.91" r="3.2" fill="#1d4ed8"/>
<circle cx="691.80" cy="372.32" r="3.2" fill="#1d4ed8"/>
<circle cx="694.87" cy="371.10" r="3.2" fill="#1d4ed8"/>
<circle cx="697.94" cy="369.89" r="3.2" fill="#1d4ed8"/>
<circle cx="701.01" cy="369.89" r="3.2" fill="#1d4ed8"/>
<circle cx="704.08" cy="369.89" r="3.2" fill="#1d4ed8"/>
<circle cx="707.15" cy="369.49" r="3.2" fill="#1d4ed8"/>
<circle cx="710.23" cy="369.89" r="3.2" fill="#1d4ed8"/>
<circle cx="713.30" cy="369.08" r="3.2" fill="#1d4ed8"/>
<circle cx="716.37" cy="368.68" r="3.2" fill="#1d4ed8"/>
<circle cx="719.44" cy="368.27" r="3.2" fill="#1d4ed8"/>
<circle cx="722.51" cy="367.87" r="3.2" fill="#1d4ed8"/>
<circle cx="725.58" cy="367.06" r="3.2" fill="#1d4ed8"/>
<circle cx="728.65" cy="367.46" r="3.2" fill="#1d4ed8"/>
<circle cx="731.72" cy="367.06" r="3.2" fill="#1d4ed8"/>
<circle cx="734.79" cy="366.25" r="3.2" fill="#1d4ed8"/>
<circle cx="737.86" cy="368.27" r="3.2" fill="#1d4ed8"/>
<circle cx="740.93" cy="368.68" r="3.2" fill="#1d4ed8"/>
<circle cx="744.00" cy="368.68" r="3.2" fill="#1d4ed8"/>
<circle cx="747.07" cy="368.27" r="3.2" fill="#1d4ed8"/>
<circle cx="750.14" cy="369.08" r="3.2" fill="#1d4ed8"/>
<circle cx="753.21" cy="367.87" r="3.2" fill="#1d4ed8"/>
<circle cx="756.28" cy="367.46" r="3.2" fill="#1d4ed8"/>
<circle cx="759.35" cy="367.06" r="3.2" fill="#1d4ed8"/>
<circle cx="762.42" cy="360.18" r="3.2" fill="#1d4ed8"/>
<circle cx="765.49" cy="359.78" r="3.2" fill="#1d4ed8"/>
<circle cx="768.56" cy="359.38" r="3.2" fill="#1d4ed8"/>
<circle cx="771.63" cy="356.95" r="3.2" fill="#1d4ed8"/>
<circle cx="774.70" cy="357.35" r="3.2" fill="#1d4ed8"/>
<circle cx="777.77" cy="357.76" r="3.2" fill="#1d4ed8"/>
<circle cx="780.85" cy="355.33" r="3.2" fill="#1d4ed8"/>
<circle cx="783.92" cy="355.74" r="3.2" fill="#1d4ed8"/>
<circle cx="786.99" cy="357.35" r="3.2" fill="#1d4ed8"/>
<circle cx="790.06" cy="355.33" r="3.2" fill="#1d4ed8"/>
<circle cx="793.13" cy="356.14" r="3.2" fill="#1d4ed8"/>
<circle cx="796.20" cy="355.74" r="3.2" fill="#1d4ed8"/>
<circle cx="799.27" cy="356.14" r="3.2" fill="#1d4ed8"/>
<circle cx="802.34" cy="354.12" r="3.2" fill="#1d4ed8"/>
<circle cx="805.41" cy="354.93" r="3.2" fill="#1d4ed8"/>
<circle cx="808.48" cy="356.14" r="3.2" fill="#1d4ed8"/>
<circle cx="811.55" cy="354.52" r="3.2" fill="#1d4ed8"/>
<circle cx="814.62" cy="353.71" r="3.2" fill="#1d4ed8"/>
<circle cx="817.69" cy="354.12" r="3.2" fill="#1d4ed8"/>
<circle cx="820.76" cy="354.93" r="3.2" fill="#1d4ed8"/>
<circle cx="823.83" cy="352.90" r="3.2" fill="#1d4ed8"/>
<circle cx="826.90" cy="353.71" r="3.2" fill="#1d4ed8"/>
<circle cx="829.97" cy="353.31" r="3.2" fill="#1d4ed8"/>
<circle cx="833.04" cy="353.31" r="3.2" fill="#1d4ed8"/>
<circle cx="836.11" cy="354.52" r="3.2" fill="#1d4ed8"/>
<circle cx="839.18" cy="352.90" r="3.2" fill="#1d4ed8"/>
<circle cx="842.25" cy="352.50" r="3.2" fill="#1d4ed8"/>
<circle cx="845.32" cy="352.50" r="3.2" fill="#1d4ed8"/>
<circle cx="848.39" cy="353.31" r="3.2" fill="#1d4ed8"/>
<circle cx="851.46" cy="352.50" r="3.2" fill="#1d4ed8"/>
<circle cx="854.54" cy="353.71" r="3.2" fill="#1d4ed8"/>
<circle cx="857.61" cy="354.12" r="3.2" fill="#1d4ed8"/>
<circle cx="860.68" cy="352.50" r="3.2" fill="#1d4ed8"/>
<circle cx="863.75" cy="352.90" r="3.2" fill="#1d4ed8"/>
<circle cx="866.82" cy="352.50" r="3.2" fill="#1d4ed8"/>
<circle cx="869.89" cy="352.10" r="3.2" fill="#1d4ed8"/>
<circle cx="872.96" cy="351.69" r="3.2" fill="#1d4ed8"/>
<circle cx="876.03" cy="352.10" r="3.2" fill="#1d4ed8"/>
<circle cx="879.10" cy="354.12" r="3.2" fill="#1d4ed8"/>
<circle cx="882.17" cy="352.50" r="3.2" fill="#1d4ed8"/>
<circle cx="885.24" cy="352.10" r="3.2" fill="#1d4ed8"/>
<circle cx="888.31" cy="352.10" r="3.2" fill="#1d4ed8"/>
<circle cx="891.38" cy="349.67" r="3.2" fill="#1d4ed8"/>
<circle cx="894.45" cy="349.67" r="3.2" fill="#1d4ed8"/>
<circle cx="897.52" cy="350.88" r="3.2" fill="#1d4ed8"/>
<circle cx="900.59" cy="351.29" r="3.2" fill="#1d4ed8"/>
<circle cx="903.66" cy="350.48" r="3.2" fill="#1d4ed8"/>
<circle cx="906.73" cy="352.10" r="3.2" fill="#1d4ed8"/>
<circle cx="909.80" cy="350.48" r="3.2" fill="#1d4ed8"/>
<circle cx="912.87" cy="350.48" r="3.2" fill="#1d4ed8"/>
<circle cx="915.94" cy="350.48" r="3.2" fill="#1d4ed8"/>
<circle cx="919.01" cy="350.07" r="3.2" fill="#1d4ed8"/>
<circle cx="922.08" cy="348.46" r="3.2" fill="#1d4ed8"/>
<circle cx="925.15" cy="351.29" r="3.2" fill="#1d4ed8"/>
<circle cx="928.23" cy="349.67" r="3.2" fill="#1d4ed8"/>
<circle cx="931.30" cy="351.29" r="3.2" fill="#1d4ed8"/>
<circle cx="934.37" cy="349.67" r="3.2" fill="#1d4ed8"/>
<circle cx="937.44" cy="348.86" r="3.2" fill="#1d4ed8"/>
<circle cx="940.51" cy="348.46" r="3.2" fill="#1d4ed8"/>
<circle cx="943.58" cy="348.46" r="3.2" fill="#1d4ed8"/>
<circle cx="946.65" cy="347.24" r="3.2" fill="#1d4ed8"/>
<circle cx="949.72" cy="348.86" r="3.2" fill="#1d4ed8"/>
<circle cx="952.79" cy="346.84" r="3.2" fill="#1d4ed8"/>
<circle cx="955.86" cy="348.46" r="3.2" fill="#1d4ed8"/>
<circle cx="958.93" cy="348.86" r="3.2" fill="#1d4ed8"/>
<circle cx="962.00" cy="346.84" r="3.2" fill="#1d4ed8"/>
<circle cx="965.07" cy="349.26" r="3.2" fill="#1d4ed8"/>
<circle cx="968.14" cy="348.05" r="3.2" fill="#1d4ed8"/>
<circle cx="971.21" cy="349.26" r="3.2" fill="#1d4ed8"/>
<circle cx="974.28" cy="349.26" r="3.2" fill="#1d4ed8"/>
<circle cx="977.35" cy="350.48" r="3.2" fill="#1d4ed8"/>
<circle cx="980.42" cy="352.90" r="3.2" fill="#1d4ed8"/>
<circle cx="983.49" cy="349.67" r="3.2" fill="#1d4ed8"/>
<circle cx="986.56" cy="348.46" r="3.2" fill="#1d4ed8"/>
<circle cx="989.63" cy="345.62" r="3.2" fill="#1d4ed8"/>
<circle cx="992.70" cy="344.82" r="3.2" fill="#1d4ed8"/>
<circle cx="995.77" cy="344.41" r="3.2" fill="#1d4ed8"/>
<circle cx="998.85" cy="342.39" r="3.2" fill="#1d4ed8"/>
<circle cx="1001.92" cy="341.18" r="3.2" fill="#1d4ed8"/>
<circle cx="1004.99" cy="341.58" r="3.2" fill="#1d4ed8"/>
<circle cx="1008.06" cy="339.15" r="3.2" fill="#1d4ed8"/>
<circle cx="1011.13" cy="338.35" r="3.2" fill="#1d4ed8"/>
<circle cx="1014.20" cy="337.54" r="3.2" fill="#1d4ed8"/>
<circle cx="1017.27" cy="336.73" r="3.2" fill="#1d4ed8"/>
<circle cx="1020.34" cy="335.92" r="3.2" fill="#1d4ed8"/>
<circle cx="1023.41" cy="337.54" r="3.2" fill="#1d4ed8"/>
<circle cx="1026.48" cy="338.35" r="3.2" fill="#1d4ed8"/>
<circle cx="1029.55" cy="337.54" r="3.2" fill="#1d4ed8"/>
<circle cx="1032.62" cy="337.54" r="3.2" fill="#1d4ed8"/>
<circle cx="1035.69" cy="337.54" r="3.2" fill="#1d4ed8"/>
<circle cx="1038.76" cy="333.09" r="3.2" fill="#1d4ed8"/>
<circle cx="1041.83" cy="333.90" r="3.2" fill="#1d4ed8"/>
<circle cx="1044.90" cy="335.92" r="3.2" fill="#1d4ed8"/>
<circle cx="1047.97" cy="336.73" r="3.2" fill="#1d4ed8"/>
<circle cx="1051.04" cy="335.51" r="3.2" fill="#1d4ed8"/>
<circle cx="1054.11" cy="332.28" r="3.2" fill="#1d4ed8"/>
<circle cx="1057.18" cy="331.47" r="3.2" fill="#1d4ed8"/>
<circle cx="1060.25" cy="331.07" r="3.2" fill="#1d4ed8"/>
<circle cx="1063.32" cy="331.47" r="3.2" fill="#1d4ed8"/>
<circle cx="1066.39" cy="331.07" r="3.2" fill="#1d4ed8"/>
<circle cx="1069.46" cy="331.07" r="3.2" fill="#1d4ed8"/>
<circle cx="1072.54" cy="331.07" r="3.2" fill="#1d4ed8"/>
<circle cx="1075.61" cy="331.07" r="3.2" fill="#1d4ed8"/>
<circle cx="1078.68" cy="331.07" r="3.2" fill="#1d4ed8"/>
<circle cx="1081.75" cy="331.07" r="3.2" fill="#1d4ed8"/>
<circle cx="1084.82" cy="331.07" r="3.2" fill="#1d4ed8"/>
<circle cx="1087.89" cy="331.07" r="3.2" fill="#1d4ed8"/>
<circle cx="1090.96" cy="331.07" r="3.2" fill="#1d4ed8"/>
<circle cx="1094.03" cy="331.07" r="3.2" fill="#1d4ed8"/>
<circle cx="1097.10" cy="331.47" r="3.2" fill="#1d4ed8"/>
<circle cx="1100.17" cy="331.88" r="3.2" fill="#1d4ed8"/>
<circle cx="1103.24" cy="331.07" r="3.2" fill="#1d4ed8"/>
<circle cx="1106.31" cy="331.47" r="3.2" fill="#1d4ed8"/>
<circle cx="1109.38" cy="331.07" r="3.2" fill="#1d4ed8"/>
<circle cx="1112.45" cy="331.47" r="3.2" fill="#1d4ed8"/>
<circle cx="1115.52" cy="331.07" r="3.2" fill="#1d4ed8"/>
<circle cx="1118.59" cy="324.19" r="3.2" fill="#1d4ed8"/>
<circle cx="1121.66" cy="324.19" r="3.2" fill="#1d4ed8"/>
<circle cx="1124.73" cy="318.93" r="3.2" fill="#1d4ed8"/>
<circle cx="1127.80" cy="316.51" r="3.2" fill="#1d4ed8"/>
<circle cx="1130.87" cy="310.44" r="3.2" fill="#1d4ed8"/>
<circle cx="1133.94" cy="308.01" r="3.2" fill="#1d4ed8"/>
<circle cx="1137.01" cy="600.00" r="3.2" fill="#1d4ed8"/>
<circle cx="1140.08" cy="301.54" r="3.2" fill="#1d4ed8"/>
<circle cx="1143.15" cy="290.22" r="3.2" fill="#1d4ed8"/>
<circle cx="1146.23" cy="287.79" r="3.2" fill="#1d4ed8"/>
<circle cx="1149.30" cy="286.18" r="3.2" fill="#1d4ed8"/>
<circle cx="1152.37" cy="285.77" r="3.2" fill="#1d4ed8"/>
<circle cx="1155.44" cy="285.77" r="3.2" fill="#1d4ed8"/>
<circle cx="1158.51" cy="285.77" r="3.2" fill="#1d4ed8"/>
<circle cx="1161.58" cy="286.18" r="3.2" fill="#1d4ed8"/>
<circle cx="1164.65" cy="285.77" r="3.2" fill="#1d4ed8"/>
<circle cx="1167.72" cy="285.77" r="3.2" fill="#1d4ed8"/>
<circle cx="1170.79" cy="285.77" r="3.2" fill="#1d4ed8"/>
<circle cx="1173.86" cy="283.35" r="3.2" fill="#1d4ed8"/>
<circle cx="1176.93" cy="282.94" r="3.2" fill="#1d4ed8"/>
<circle cx="1180.00" cy="282.94" r="3.2" fill="#1d4ed8"/>
<text x="635" y="695" text-anchor="middle" font-size="14" fill="#111" font-family="sans-serif">Date</text>
<text x="24" y="325" text-anchor="middle" font-size="14" fill="#111" transform="rotate(-90 24,325)" font-family="sans-serif">Passed files</text>
</svg>
