<?xml version="1.0" encoding="UTF-8"?>
<svg xmlns="http://www.w3.org/2000/svg" width="1280" height="720" viewBox="0 0 1280 720">
<rect width="100%" height="100%" fill="#ffffff"/>
<text x="640" y="30" text-anchor="middle" font-size="22" font-family="sans-serif">Roast passed files history</text>
<line x1="90" y1="600" x2="1180" y2="600" stroke="#333" stroke-width="1.5"/>
<line x1="90" y1="50" x2="90" y2="600" stroke="#333" stroke-width="1.5"/>
<line x1="90" y1="600.00" x2="1180" y2="600.00" stroke="#e5e7eb" stroke-width="1"/>
<text x="78" y="605.00" text-anchor="end" font-size="12" fill="#111" font-family="sans-serif">0</text>
<line x1="90" y1="397.79" x2="1180" y2="397.79" stroke="#e5e7eb" stroke-width="1"/>
<text x="78" y="402.79" text-anchor="end" font-size="12" fill="#111" font-family="sans-serif">500</text>
<line x1="90" y1="195.59" x2="1180" y2="195.59" stroke="#e5e7eb" stroke-width="1"/>
<text x="78" y="200.59" text-anchor="end" font-size="12" fill="#111" font-family="sans-serif">1000</text>
<line x1="90.00" y1="600" x2="90.00" y2="606" stroke="#333" stroke-width="1"/>
<text x="90.00" y="624" text-anchor="end" font-size="11" fill="#111" transform="rotate(-40 90.00,624)" font-family="sans-serif">2026-02-12</text>
<line x1="224.76" y1="600" x2="224.76" y2="606" stroke="#333" stroke-width="1"/>
<text x="224.76" y="624" text-anchor="end" font-size="11" fill="#111" transform="rotate(-40 224.76,624)" font-family="sans-serif">2026-02-17</text>
<line x1="359.53" y1="600" x2="359.53" y2="606" stroke="#333" stroke-width="1"/>
<text x="359.53" y="624" text-anchor="end" font-size="11" fill="#111" transform="rotate(-40 359.53,624)" font-family="sans-serif">2026-02-19</text>
<line x1="494.29" y1="600" x2="494.29" y2="606" stroke="#333" stroke-width="1"/>
<text x="494.29" y="624" text-anchor="end" font-size="11" fill="#111" transform="rotate(-40 494.29,624)" font-family="sans-serif">2026-02-23</text>
<line x1="629.05" y1="600" x2="629.05" y2="606" stroke="#333" stroke-width="1"/>
<text x="629.05" y="624" text-anchor="end" font-size="11" fill="#111" transform="rotate(-40 629.05,624)" font-family="sans-serif">2026-02-25</text>
<line x1="763.82" y1="600" x2="763.82" y2="606" stroke="#333" stroke-width="1"/>
<text x="763.82" y="624" text-anchor="end" font-size="11" fill="#111" transform="rotate(-40 763.82,624)" font-family="sans-serif">2026-02-27</text>
<line x1="898.58" y1="600" x2="898.58" y2="606" stroke="#333" stroke-width="1"/>
<text x="898.58" y="624" text-anchor="end" font-size="11" fill="#111" transform="rotate(-40 898.58,624)" font-family="sans-serif">2026-03-01</text>
<line x1="1033.35" y1="600" x2="1033.35" y2="606" stroke="#333" stroke-width="1"/>
<text x="1033.35" y="624" text-anchor="end" font-size="11" fill="#111" transform="rotate(-40 1033.35,624)" font-family="sans-serif">2026-03-06</text>
<line x1="1168.11" y1="600" x2="1168.11" y2="606" stroke="#333" stroke-width="1"/>
<text x="1168.11" y="624" text-anchor="end" font-size="11" fill="#111" transform="rotate(-40 1168.11,624)" font-family="sans-serif">2026-03-07</text>
<line x1="1180.00" y1="600" x2="1180.00" y2="606" stroke="#333" stroke-width="1"/>
<text x="1180.00" y="624" text-anchor="end" font-size="11" fill="#111" transform="rotate(-40 1180.00,624)" font-family="sans-serif">2026-03-07</text>
<line x1="90" y1="75.88" x2="1180" y2="75.88" stroke="#dc2626" stroke-width="1.5" stroke-dasharray="8,4"/>
<text x="1184" y="79.88" font-size="12" fill="#dc2626" font-family="sans-serif">Goal: 1296</text>
<polyline fill="none" stroke="#2563eb" stroke-width="3" points="90.00,540.55 93.96,538.53 97.93,536.91 101.89,534.49 105.85,534.49 109.82,533.27 113.78,532.46 117.75,532.87 121.71,532.06 125.67,532.46 129.64,532.06 133.60,568.46 137.56,568.46 141.53,566.43 145.49,545.00 149.45,545.00 153.42,544.19 157.38,543.79 161.35,543.79 165.31,543.38 169.27,541.76 173.24,541.36 177.20,540.96 181.16,540.96 185.13,539.34 189.09,539.34 193.05,556.73 197.02,556.73 200.98,555.51 204.95,551.07 208.91,538.93 212.87,538.93 216.84,538.93 220.80,538.12 224.76,536.91 228.73,536.91 232.69,536.51 236.65,536.51 240.62,556.73 244.58,556.73 248.55,556.73 252.51,556.73 256.47,535.29 260.44,535.29 264.40,535.29 268.36,535.29 272.33,534.49 276.29,534.08 280.25,533.68 284.22,532.87 288.18,532.06 292.15,532.06 296.11,531.25 300.07,530.85 304.04,530.44 308.00,530.04 311.96,530.04 315.93,529.23 319.89,529.23 323.85,529.23 327.82,528.42 331.78,528.42 335.75,527.61 339.71,527.21 343.67,526.80 347.64,526.40 351.60,525.18 355.56,523.57 359.53,523.57 363.49,523.16 367.45,522.76 371.42,522.35 375.38,521.54 379.35,519.52 383.31,517.50 387.27,517.50 391.24,517.50 395.20,517.50 399.16,517.50 403.13,517.50 407.09,517.10 411.05,516.69 415.02,515.48 418.98,515.07 422.95,514.67 426.91,513.86 430.87,514.26 434.84,512.24 438.80,511.84 442.76,511.84 446.73,511.03 450.69,509.82 454.65,507.79 458.62,506.99 462.58,506.58 466.55,509.41 470.51,509.01 474.47,504.96 478.44,504.56 482.40,504.15 486.36,504.56 490.33,503.75 494.29,503.75 498.25,503.35 502.22,499.30 506.18,496.47 510.15,490.00 514.11,484.34 518.07,481.10 522.04,480.29 526.00,480.70 529.96,460.88 533.93,459.26 537.89,458.05 541.85,456.03 545.82,456.03 549.78,454.41 553.75,450.77 557.71,444.30 561.67,443.90 565.64,600.00 569.60,441.88 573.56,440.66 577.53,439.45 581.49,439.04 585.45,438.64 589.42,437.83 593.38,436.62 597.35,436.62 601.31,434.60 605.27,432.17 609.24,429.34 613.20,428.93 617.16,428.53 621.13,427.72 625.09,426.91 629.05,426.10 633.02,426.10 636.98,426.10 640.95,419.63 644.91,419.23 648.87,418.42 652.84,418.01 656.80,417.61 660.76,417.61 664.73,417.61 668.69,417.21 672.65,417.21 676.62,413.57 680.58,411.95 684.55,412.76 688.51,410.74 692.47,410.74 696.44,410.33 700.40,410.33 704.36,410.33 708.33,409.93 712.29,409.93 716.25,409.93 720.22,409.52 724.18,409.52 728.15,409.12 732.11,409.52 736.07,409.12 740.04,407.50 744.00,407.10 747.96,403.05 751.93,399.82 755.89,400.22 759.85,400.62 763.82,400.62 767.78,399.41 771.75,392.94 775.71,391.32 779.67,389.30 783.64,389.30 787.60,388.49 791.56,375.15 795.53,374.74 799.49,374.74 803.45,374.74 807.42,374.74 811.38,374.34 815.35,374.34 819.31,374.34 823.27,374.34 827.24,374.34 831.20,373.93 835.16,373.12 839.13,372.72 843.09,373.53 847.05,435.81 851.02,372.32 854.98,372.72 858.95,371.91 862.91,371.91 866.87,372.32 870.84,371.10 874.80,369.89 878.76,369.89 882.73,369.89 886.69,369.49 890.65,369.89 894.62,369.08 898.58,368.68 902.55,368.27 906.51,367.87 910.47,367.06 914.44,367.46 918.40,367.06 922.36,366.25 926.33,368.27 930.29,368.68 934.25,368.68 938.22,368.27 942.18,369.08 946.15,367.87 950.11,367.46 954.07,367.06 958.04,360.18 962.00,359.78 965.96,359.38 969.93,356.95 973.89,357.35 977.85,357.76 981.82,355.33 985.78,355.74 989.75,357.35 993.71,355.33 997.67,356.14 1001.64,355.74 1005.60,356.14 1009.56,354.12 1013.53,354.93 1017.49,356.14 1021.45,354.52 1025.42,353.71 1029.38,354.12 1033.35,354.93 1037.31,352.90 1041.27,353.71 1045.24,353.31 1049.20,353.31 1053.16,354.52 1057.13,352.90 1061.09,352.50 1065.05,352.50 1069.02,353.31 1072.98,352.50 1076.95,353.71 1080.91,354.12 1084.87,352.50 1088.84,352.90 1092.80,352.50 1096.76,352.10 1100.73,351.69 1104.69,352.10 1108.65,354.12 1112.62,352.50 1116.58,352.10 1120.55,352.10 1124.51,349.67 1128.47,349.67 1132.44,350.88 1136.40,351.29 1140.36,350.48 1144.33,352.10 1148.29,350.48 1152.25,350.48 1156.22,350.48 1160.18,350.07 1164.15,348.46 1168.11,351.29 1172.07,349.67 1176.04,351.29 1180.00,349.67"/>
<circle cx="90.00" cy="540.55" r="3.2" fill="#1d4ed8"/>
<circle cx="93.96" cy="538.53" r="3.2" fill="#1d4ed8"/>
<circle cx="97.93" cy="536.91" r="3.2" fill="#1d4ed8"/>
<circle cx="101.89" cy="534.49" r="3.2" fill="#1d4ed8"/>
<circle cx="105.85" cy="534.49" r="3.2" fill="#1d4ed8"/>
<circle cx="109.82" cy="533.27" r="3.2" fill="#1d4ed8"/>
<circle cx="113.78" cy="532.46" r="3.2" fill="#1d4ed8"/>
<circle cx="117.75" cy="532.87" r="3.2" fill="#1d4ed8"/>
<circle cx="121.71" cy="532.06" r="3.2" fill="#1d4ed8"/>
<circle cx="125.67" cy="532.46" r="3.2" fill="#1d4ed8"/>
<circle cx="129.64" cy="532.06" r="3.2" fill="#1d4ed8"/>
<circle cx="133.60" cy="568.46" r="3.2" fill="#1d4ed8"/>
<circle cx="137.56" cy="568.46" r="3.2" fill="#1d4ed8"/>
<circle cx="141.53" cy="566.43" r="3.2" fill="#1d4ed8"/>
<circle cx="145.49" cy="545.00" r="3.2" fill="#1d4ed8"/>
<circle cx="149.45" cy="545.00" r="3.2" fill="#1d4ed8"/>
<circle cx="153.42" cy="544.19" r="3.2" fill="#1d4ed8"/>
<circle cx="157.38" cy="543.79" r="3.2" fill="#1d4ed8"/>
<circle cx="161.35" cy="543.79" r="3.2" fill="#1d4ed8"/>
<circle cx="165.31" cy="543.38" r="3.2" fill="#1d4ed8"/>
<circle cx="169.27" cy="541.76" r="3.2" fill="#1d4ed8"/>
<circle cx="173.24" cy="541.36" r="3.2" fill="#1d4ed8"/>
<circle cx="177.20" cy="540.96" r="3.2" fill="#1d4ed8"/>
<circle cx="181.16" cy="540.96" r="3.2" fill="#1d4ed8"/>
<circle cx="185.13" cy="539.34" r="3.2" fill="#1d4ed8"/>
<circle cx="189.09" cy="539.34" r="3.2" fill="#1d4ed8"/>
<circle cx="193.05" cy="556.73" r="3.2" fill="#1d4ed8"/>
<circle cx="197.02" cy="556.73" r="3.2" fill="#1d4ed8"/>
<circle cx="200.98" cy="555.51" r="3.2" fill="#1d4ed8"/>
<circle cx="204.95" cy="551.07" r="3.2" fill="#1d4ed8"/>
<circle cx="208.91" cy="538.93" r="3.2" fill="#1d4ed8"/>
<circle cx="212.87" cy="538.93" r="3.2" fill="#1d4ed8"/>
<circle cx="216.84" cy="538.93" r="3.2" fill="#1d4ed8"/>
<circle cx="220.80" cy="538.12" r="3.2" fill="#1d4ed8"/>
<circle cx="224.76" cy="536.91" r="3.2" fill="#1d4ed8"/>
<circle cx="228.73" cy="536.91" r="3.2" fill="#1d4ed8"/>
<circle cx="232.69" cy="536.51" r="3.2" fill="#1d4ed8"/>
<circle cx="236.65" cy="536.51" r="3.2" fill="#1d4ed8"/>
<circle cx="240.62" cy="556.73" r="3.2" fill="#1d4ed8"/>
<circle cx="244.58" cy="556.73" r="3.2" fill="#1d4ed8"/>
<circle cx="248.55" cy="556.73" r="3.2" fill="#1d4ed8"/>
<circle cx="252.51" cy="556.73" r="3.2" fill="#1d4ed8"/>
<circle cx="256.47" cy="535.29" r="3.2" fill="#1d4ed8"/>
<circle cx="260.44" cy="535.29" r="3.2" fill="#1d4ed8"/>
<circle cx="264.40" cy="535.29" r="3.2" fill="#1d4ed8"/>
<circle cx="268.36" cy="535.29" r="3.2" fill="#1d4ed8"/>
<circle cx="272.33" cy="534.49" r="3.2" fill="#1d4ed8"/>
<circle cx="276.29" cy="534.08" r="3.2" fill="#1d4ed8"/>
<circle cx="280.25" cy="533.68" r="3.2" fill="#1d4ed8"/>
<circle cx="284.22" cy="532.87" r="3.2" fill="#1d4ed8"/>
<circle cx="288.18" cy="532.06" r="3.2" fill="#1d4ed8"/>
<circle cx="292.15" cy="532.06" r="3.2" fill="#1d4ed8"/>
<circle cx="296.11" cy="531.25" r="3.2" fill="#1d4ed8"/>
<circle cx="300.07" cy="530.85" r="3.2" fill="#1d4ed8"/>
<circle cx="304.04" cy="530.44" r="3.2" fill="#1d4ed8"/>
<circle cx="308.00" cy="530.04" r="3.2" fill="#1d4ed8"/>
<circle cx="311.96" cy="530.04" r="3.2" fill="#1d4ed8"/>
<circle cx="315.93" cy="529.23" r="3.2" fill="#1d4ed8"/>
<circle cx="319.89" cy="529.23" r="3.2" fill="#1d4ed8"/>
<circle cx="323.85" cy="529.23" r="3.2" fill="#1d4ed8"/>
<circle cx="327.82" cy="528.42" r="3.2" fill="#1d4ed8"/>
<circle cx="331.78" cy="528.42" r="3.2" fill="#1d4ed8"/>
<circle cx="335.75" cy="527.61" r="3.2" fill="#1d4ed8"/>
<circle cx="339.71" cy="527.21" r="3.2" fill="#1d4ed8"/>
<circle cx="343.67" cy="526.80" r="3.2" fill="#1d4ed8"/>
<circle cx="347.64" cy="526.40" r="3.2" fill="#1d4ed8"/>
<circle cx="351.60" cy="525.18" r="3.2" fill="#1d4ed8"/>
<circle cx="355.56" cy="523.57" r="3.2" fill="#1d4ed8"/>
<circle cx="359.53" cy="523.57" r="3.2" fill="#1d4ed8"/>
<circle cx="363.49" cy="523.16" r="3.2" fill="#1d4ed8"/>
<circle cx="367.45" cy="522.76" r="3.2" fill="#1d4ed8"/>
<circle cx="371.42" cy="522.35" r="3.2" fill="#1d4ed8"/>
<circle cx="375.38" cy="521.54" r="3.2" fill="#1d4ed8"/>
<circle cx="379.35" cy="519.52" r="3.2" fill="#1d4ed8"/>
<circle cx="383.31" cy="517.50" r="3.2" fill="#1d4ed8"/>
<circle cx="387.27" cy="517.50" r="3.2" fill="#1d4ed8"/>
<circle cx="391.24" cy="517.50" r="3.2" fill="#1d4ed8"/>
<circle cx="395.20" cy="517.50" r="3.2" fill="#1d4ed8"/>
<circle cx="399.16" cy="517.50" r="3.2" fill="#1d4ed8"/>
<circle cx="403.13" cy="517.50" r="3.2" fill="#1d4ed8"/>
<circle cx="407.09" cy="517.10" r="3.2" fill="#1d4ed8"/>
<circle cx="411.05" cy="516.69" r="3.2" fill="#1d4ed8"/>
<circle cx="415.02" cy="515.48" r="3.2" fill="#1d4ed8"/>
<circle cx="418.98" cy="515.07" r="3.2" fill="#1d4ed8"/>
<circle cx="422.95" cy="514.67" r="3.2" fill="#1d4ed8"/>
<circle cx="426.91" cy="513.86" r="3.2" fill="#1d4ed8"/>
<circle cx="430.87" cy="514.26" r="3.2" fill="#1d4ed8"/>
<circle cx="434.84" cy="512.24" r="3.2" fill="#1d4ed8"/>
<circle cx="438.80" cy="511.84" r="3.2" fill="#1d4ed8"/>
<circle cx="442.76" cy="511.84" r="3.2" fill="#1d4ed8"/>
<circle cx="446.73" cy="511.03" r="3.2" fill="#1d4ed8"/>
<circle cx="450.69" cy="509.82" r="3.2" fill="#1d4ed8"/>
<circle cx="454.65" cy="507.79" r="3.2" fill="#1d4ed8"/>
<circle cx="458.62" cy="506.99" r="3.2" fill="#1d4ed8"/>
<circle cx="462.58" cy="506.58" r="3.2" fill="#1d4ed8"/>
<circle cx="466.55" cy="509.41" r="3.2" fill="#1d4ed8"/>
<circle cx="470.51" cy="509.01" r="3.2" fill="#1d4ed8"/>
<circle cx="474.47" cy="504.96" r="3.2" fill="#1d4ed8"/>
<circle cx="478.44" cy="504.56" r="3.2" fill="#1d4ed8"/>
<circle cx="482.40" cy="504.15" r="3.2" fill="#1d4ed8"/>
<circle cx="486.36" cy="504.56" r="3.2" fill="#1d4ed8"/>
<circle cx="490.33" cy="503.75" r="3.2" fill="#1d4ed8"/>
<circle cx="494.29" cy="503.75" r="3.2" fill="#1d4ed8"/>
<circle cx="498.25" cy="503.35" r="3.2" fill="#1d4ed8"/>
<circle cx="502.22" cy="499.30" r="3.2" fill="#1d4ed8"/>
<circle cx="506.18" cy="496.47" r="3.2" fill="#1d4ed8"/>
<circle cx="510.15" cy="490.00" r="3.2" fill="#1d4ed8"/>
<circle cx="514.11" cy="484.34" r="3.2" fill="#1d4ed8"/>
<circle cx="518.07" cy="481.10" r="3.2" fill="#1d4ed8"/>
<circle cx="522.04" cy="480.29" r="3.2" fill="#1d4ed8"/>
<circle cx="526.00" cy="480.70" r="3.2" fill="#1d4ed8"/>
<circle cx="529.96" cy="460.88" r="3.2" fill="#1d4ed8"/>
<circle cx="533.93" cy="459.26" r="3.2" fill="#1d4ed8"/>
<circle cx="537.89" cy="458.05" r="3.2" fill="#1d4ed8"/>
<circle cx="541.85" cy="456.03" r="3.2" fill="#1d4ed8"/>
<circle cx="545.82" cy="456.03" r="3.2" fill="#1d4ed8"/>
<circle cx="549.78" cy="454.41" r="3.2" fill="#1d4ed8"/>
<circle cx="553.75" cy="450.77" r="3.2" fill="#1d4ed8"/>
<circle cx="557.71" cy="444.30" r="3.2" fill="#1d4ed8"/>
<circle cx="561.67" cy="443.90" r="3.2" fill="#1d4ed8"/>
<circle cx="565.64" cy="600.00" r="3.2" fill="#1d4ed8"/>
<circle cx="569.60" cy="441.88" r="3.2" fill="#1d4ed8"/>
<circle cx="573.56" cy="440.66" r="3.2" fill="#1d4ed8"/>
<circle cx="577.53" cy="439.45" r="3.2" fill="#1d4ed8"/>
<circle cx="581.49" cy="439.04" r="3.2" fill="#1d4ed8"/>
<circle cx="585.45" cy="438.64" r="3.2" fill="#1d4ed8"/>
<circle cx="589.42" cy="437.83" r="3.2" fill="#1d4ed8"/>
<circle cx="593.38" cy="436.62" r="3.2" fill="#1d4ed8"/>
<circle cx="597.35" cy="436.62" r="3.2" fill="#1d4ed8"/>
<circle cx="601.31" cy="434.60" r="3.2" fill="#1d4ed8"/>
<circle cx="605.27" cy="432.17" r="3.2" fill="#1d4ed8"/>
<circle cx="609.24" cy="429.34" r="3.2" fill="#1d4ed8"/>
<circle cx="613.20" cy="428.93" r="3.2" fill="#1d4ed8"/>
<circle cx="617.16" cy="428.53" r="3.2" fill="#1d4ed8"/>
<circle cx="621.13" cy="427.72" r="3.2" fill="#1d4ed8"/>
<circle cx="625.09" cy="426.91" r="3.2" fill="#1d4ed8"/>
<circle cx="629.05" cy="426.10" r="3.2" fill="#1d4ed8"/>
<circle cx="633.02" cy="426.10" r="3.2" fill="#1d4ed8"/>
<circle cx="636.98" cy="426.10" r="3.2" fill="#1d4ed8"/>
<circle cx="640.95" cy="419.63" r="3.2" fill="#1d4ed8"/>
<circle cx="644.91" cy="419.23" r="3.2" fill="#1d4ed8"/>
<circle cx="648.87" cy="418.42" r="3.2" fill="#1d4ed8"/>
<circle cx="652.84" cy="418.01" r="3.2" fill="#1d4ed8"/>
<circle cx="656.80" cy="417.61" r="3.2" fill="#1d4ed8"/>
<circle cx="660.76" cy="417.61" r="3.2" fill="#1d4ed8"/>
<circle cx="664.73" cy="417.61" r="3.2" fill="#1d4ed8"/>
<circle cx="668.69" cy="417.21" r="3.2" fill="#1d4ed8"/>
<circle cx="672.65" cy="417.21" r="3.2" fill="#1d4ed8"/>
<circle cx="676.62" cy="413.57" r="3.2" fill="#1d4ed8"/>
<circle cx="680.58" cy="411.95" r="3.2" fill="#1d4ed8"/>
<circle cx="684.55" cy="412.76" r="3.2" fill="#1d4ed8"/>
<circle cx="688.51" cy="410.74" r="3.2" fill="#1d4ed8"/>
<circle cx="692.47" cy="410.74" r="3.2" fill="#1d4ed8"/>
<circle cx="696.44" cy="410.33" r="3.2" fill="#1d4ed8"/>
<circle cx="700.40" cy="410.33" r="3.2" fill="#1d4ed8"/>
<circle cx="704.36" cy="410.33" r="3.2" fill="#1d4ed8"/>
<circle cx="708.33" cy="409.93" r="3.2" fill="#1d4ed8"/>
<circle cx="712.29" cy="409.93" r="3.2" fill="#1d4ed8"/>
<circle cx="716.25" cy="409.93" r="3.2" fill="#1d4ed8"/>
<circle cx="720.22" cy="409.52" r="3.2" fill="#1d4ed8"/>
<circle cx="724.18" cy="409.52" r="3.2" fill="#1d4ed8"/>
<circle cx="728.15" cy="409.12" r="3.2" fill="#1d4ed8"/>
<circle cx="732.11" cy="409.52" r="3.2" fill="#1d4ed8"/>
<circle cx="736.07" cy="409.12" r="3.2" fill="#1d4ed8"/>
<circle cx="740.04" cy="407.50" r="3.2" fill="#1d4ed8"/>
<circle cx="744.00" cy="407.10" r="3.2" fill="#1d4ed8"/>
<circle cx="747.96" cy="403.05" r="3.2" fill="#1d4ed8"/>
<circle cx="751.93" cy="399.82" r="3.2" fill="#1d4ed8"/>
<circle cx="755.89" cy="400.22" r="3.2" fill="#1d4ed8"/>
<circle cx="759.85" cy="400.62" r="3.2" fill="#1d4ed8"/>
<circle cx="763.82" cy="400.62" r="3.2" fill="#1d4ed8"/>
<circle cx="767.78" cy="399.41" r="3.2" fill="#1d4ed8"/>
<circle cx="771.75" cy="392.94" r="3.2" fill="#1d4ed8"/>
<circle cx="775.71" cy="391.32" r="3.2" fill="#1d4ed8"/>
<circle cx="779.67" cy="389.30" r="3.2" fill="#1d4ed8"/>
<circle cx="783.64" cy="389.30" r="3.2" fill="#1d4ed8"/>
<circle cx="787.60" cy="388.49" r="3.2" fill="#1d4ed8"/>
<circle cx="791.56" cy="375.15" r="3.2" fill="#1d4ed8"/>
<circle cx="795.53" cy="374.74" r="3.2" fill="#1d4ed8"/>
<circle cx="799.49" cy="374.74" r="3.2" fill="#1d4ed8"/>
<circle cx="803.45" cy="374.74" r="3.2" fill="#1d4ed8"/>
<circle cx="807.42" cy="374.74" r="3.2" fill="#1d4ed8"/>
<circle cx="811.38" cy="374.34" r="3.2" fill="#1d4ed8"/>
<circle cx="815.35" cy="374.34" r="3.2" fill="#1d4ed8"/>
<circle cx="819.31" cy="374.34" r="3.2" fill="#1d4ed8"/>
<circle cx="823.27" cy="374.34" r="3.2" fill="#1d4ed8"/>
<circle cx="827.24" cy="374.34" r="3.2" fill="#1d4ed8"/>
<circle cx="831.20" cy="373.93" r="3.2" fill="#1d4ed8"/>
<circle cx="835.16" cy="373.12" r="3.2" fill="#1d4ed8"/>
<circle cx="839.13" cy="372.72" r="3.2" fill="#1d4ed8"/>
<circle cx="843.09" cy="373.53" r="3.2" fill="#1d4ed8"/>
<circle cx="847.05" cy="435.81" r="3.2" fill="#1d4ed8"/>
<circle cx="851.02" cy="372.32" r="3.2" fill="#1d4ed8"/>
<circle cx="854.98" cy="372.72" r="3.2" fill="#1d4ed8"/>
<circle cx="858.95" cy="371.91" r="3.2" fill="#1d4ed8"/>
<circle cx="862.91" cy="371.91" r="3.2" fill="#1d4ed8"/>
<circle cx="866.87" cy="372.32" r="3.2" fill="#1d4ed8"/>
<circle cx="870.84" cy="371.10" r="3.2" fill="#1d4ed8"/>
<circle cx="874.80" cy="369.89" r="3.2" fill="#1d4ed8"/>
<circle cx="878.76" cy="369.89" r="3.2" fill="#1d4ed8"/>
<circle cx="882.73" cy="369.89" r="3.2" fill="#1d4ed8"/>
<circle cx="886.69" cy="369.49" r="3.2" fill="#1d4ed8"/>
<circle cx="890.65" cy="369.89" r="3.2" fill="#1d4ed8"/>
<circle cx="894.62" cy="369.08" r="3.2" fill="#1d4ed8"/>
<circle cx="898.58" cy="368.68" r="3.2" fill="#1d4ed8"/>
<circle cx="902.55" cy="368.27" r="3.2" fill="#1d4ed8"/>
<circle cx="906.51" cy="367.87" r="3.2" fill="#1d4ed8"/>
<circle cx="910.47" cy="367.06" r="3.2" fill="#1d4ed8"/>
<circle cx="914.44" cy="367.46" r="3.2" fill="#1d4ed8"/>
<circle cx="918.40" cy="367.06" r="3.2" fill="#1d4ed8"/>
<circle cx="922.36" cy="366.25" r="3.2" fill="#1d4ed8"/>
<circle cx="926.33" cy="368.27" r="3.2" fill="#1d4ed8"/>
<circle cx="930.29" cy="368.68" r="3.2" fill="#1d4ed8"/>
<circle cx="934.25" cy="368.68" r="3.2" fill="#1d4ed8"/>
<circle cx="938.22" cy="368.27" r="3.2" fill="#1d4ed8"/>
<circle cx="942.18" cy="369.08" r="3.2" fill="#1d4ed8"/>
<circle cx="946.15" cy="367.87" r="3.2" fill="#1d4ed8"/>
<circle cx="950.11" cy="367.46" r="3.2" fill="#1d4ed8"/>
<circle cx="954.07" cy="367.06" r="3.2" fill="#1d4ed8"/>
<circle cx="958.04" cy="360.18" r="3.2" fill="#1d4ed8"/>
<circle cx="962.00" cy="359.78" r="3.2" fill="#1d4ed8"/>
<circle cx="965.96" cy="359.38" r="3.2" fill="#1d4ed8"/>
<circle cx="969.93" cy="356.95" r="3.2" fill="#1d4ed8"/>
<circle cx="973.89" cy="357.35" r="3.2" fill="#1d4ed8"/>
<circle cx="977.85" cy="357.76" r="3.2" fill="#1d4ed8"/>
<circle cx="981.82" cy="355.33" r="3.2" fill="#1d4ed8"/>
<circle cx="985.78" cy="355.74" r="3.2" fill="#1d4ed8"/>
<circle cx="989.75" cy="357.35" r="3.2" fill="#1d4ed8"/>
<circle cx="993.71" cy="355.33" r="3.2" fill="#1d4ed8"/>
<circle cx="997.67" cy="356.14" r="3.2" fill="#1d4ed8"/>
<circle cx="1001.64" cy="355.74" r="3.2" fill="#1d4ed8"/>
<circle cx="1005.60" cy="356.14" r="3.2" fill="#1d4ed8"/>
<circle cx="1009.56" cy="354.12" r="3.2" fill="#1d4ed8"/>
<circle cx="1013.53" cy="354.93" r="3.2" fill="#1d4ed8"/>
<circle cx="1017.49" cy="356.14" r="3.2" fill="#1d4ed8"/>
<circle cx="1021.45" cy="354.52" r="3.2" fill="#1d4ed8"/>
<circle cx="1025.42" cy="353.71" r="3.2" fill="#1d4ed8"/>
<circle cx="1029.38" cy="354.12" r="3.2" fill="#1d4ed8"/>
<circle cx="1033.35" cy="354.93" r="3.2" fill="#1d4ed8"/>
<circle cx="1037.31" cy="352.90" r="3.2" fill="#1d4ed8"/>
<circle cx="1041.27" cy="353.71" r="3.2" fill="#1d4ed8"/>
<circle cx="1045.24" cy="353.31" r="3.2" fill="#1d4ed8"/>
<circle cx="1049.20" cy="353.31" r="3.2" fill="#1d4ed8"/>
<circle cx="1053.16" cy="354.52" r="3.2" fill="#1d4ed8"/>
<circle cx="1057.13" cy="352.90" r="3.2" fill="#1d4ed8"/>
<circle cx="1061.09" cy="352.50" r="3.2" fill="#1d4ed8"/>
<circle cx="1065.05" cy="352.50" r="3.2" fill="#1d4ed8"/>
<circle cx="1069.02" cy="353.31" r="3.2" fill="#1d4ed8"/>
<circle cx="1072.98" cy="352.50" r="3.2" fill="#1d4ed8"/>
<circle cx="1076.95" cy="353.71" r="3.2" fill="#1d4ed8"/>
<circle cx="1080.91" cy="354.12" r="3.2" fill="#1d4ed8"/>
<circle cx="1084.87" cy="352.50" r="3.2" fill="#1d4ed8"/>
<circle cx="1088.84" cy="352.90" r="3.2" fill="#1d4ed8"/>
<circle cx="1092.80" cy="352.50" r="3.2" fill="#1d4ed8"/>
<circle cx="1096.76" cy="352.10" r="3.2" fill="#1d4ed8"/>
<circle cx="1100.73" cy="351.69" r="3.2" fill="#1d4ed8"/>
<circle cx="1104.69" cy="352.10" r="3.2" fill="#1d4ed8"/>
<circle cx="1108.65" cy="354.12" r="3.2" fill="#1d4ed8"/>
<circle cx="1112.62" cy="352.50" r="3.2" fill="#1d4ed8"/>
<circle cx="1116.58" cy="352.10" r="3.2" fill="#1d4ed8"/>
<circle cx="1120.55" cy="352.10" r="3.2" fill="#1d4ed8"/>
<circle cx="1124.51" cy="349.67" r="3.2" fill="#1d4ed8"/>
<circle cx="1128.47" cy="349.67" r="3.2" fill="#1d4ed8"/>
<circle cx="1132.44" cy="350.88" r="3.2" fill="#1d4ed8"/>
<circle cx="1136.40" cy="351.29" r="3.2" fill="#1d4ed8"/>
<circle cx="1140.36" cy="350.48" r="3.2" fill="#1d4ed8"/>
<circle cx="1144.33" cy="352.10" r="3.2" fill="#1d4ed8"/>
<circle cx="1148.29" cy="350.48" r="3.2" fill="#1d4ed8"/>
<circle cx="1152.25" cy="350.48" r="3.2" fill="#1d4ed8"/>
<circle cx="1156.22" cy="350.48" r="3.2" fill="#1d4ed8"/>
<circle cx="1160.18" cy="350.07" r="3.2" fill="#1d4ed8"/>
<circle cx="1164.15" cy="348.46" r="3.2" fill="#1d4ed8"/>
<circle cx="1168.11" cy="351.29" r="3.2" fill="#1d4ed8"/>
<circle cx="1172.07" cy="349.67" r="3.2" fill="#1d4ed8"/>
<circle cx="1176.04" cy="351.29" r="3.2" fill="#1d4ed8"/>
<circle cx="1180.00" cy="349.67" r="3.2" fill="#1d4ed8"/>
<text x="635" y="695" text-anchor="middle" font-size="14" fill="#111" font-family="sans-serif">Date</text>
<text x="24" y="325" text-anchor="middle" font-size="14" fill="#111" transform="rotate(-90 24,325)" font-family="sans-serif">Passed files</text>
</svg>
