<?xml version="1.0" encoding="UTF-8"?>
<svg xmlns="http://www.w3.org/2000/svg" width="1280" height="720" viewBox="0 0 1280 720">
<rect width="100%" height="100%" fill="#ffffff"/>
<text x="640" y="30" text-anchor="middle" font-size="22" font-family="sans-serif">Roast passed files history</text>
<line x1="90" y1="600" x2="1180" y2="600" stroke="#333" stroke-width="1.5"/>
<line x1="90" y1="50" x2="90" y2="600" stroke="#333" stroke-width="1.5"/>
<line x1="90" y1="600.00" x2="1180" y2="600.00" stroke="#e5e7eb" stroke-width="1"/>
<text x="78" y="605.00" text-anchor="end" font-size="12" fill="#111" font-family="sans-serif">0</text>
<line x1="90" y1="397.79" x2="1180" y2="397.79" stroke="#e5e7eb" stroke-width="1"/>
<text x="78" y="402.79" text-anchor="end" font-size="12" fill="#111" font-family="sans-serif">500</text>
<line x1="90" y1="195.59" x2="1180" y2="195.59" stroke="#e5e7eb" stroke-width="1"/>
<text x="78" y="200.59" text-anchor="end" font-size="12" fill="#111" font-family="sans-serif">1000</text>
<line x1="90.00" y1="600" x2="90.00" y2="606" stroke="#333" stroke-width="1"/>
<text x="90.00" y="624" text-anchor="end" font-size="11" fill="#111" transform="rotate(-40 90.00,624)" font-family="sans-serif">2026-02-12</text>
<line x1="225.96" y1="600" x2="225.96" y2="606" stroke="#333" stroke-width="1"/>
<text x="225.96" y="624" text-anchor="end" font-size="11" fill="#111" transform="rotate(-40 225.96,624)" font-family="sans-serif">2026-02-18</text>
<line x1="361.91" y1="600" x2="361.91" y2="606" stroke="#333" stroke-width="1"/>
<text x="361.91" y="624" text-anchor="end" font-size="11" fill="#111" transform="rotate(-40 361.91,624)" font-family="sans-serif">2026-02-25</text>
<line x1="497.87" y1="600" x2="497.87" y2="606" stroke="#333" stroke-width="1"/>
<text x="497.87" y="624" text-anchor="end" font-size="11" fill="#111" transform="rotate(-40 497.87,624)" font-family="sans-serif">2026-02-28</text>
<line x1="633.83" y1="600" x2="633.83" y2="606" stroke="#333" stroke-width="1"/>
<text x="633.83" y="624" text-anchor="end" font-size="11" fill="#111" transform="rotate(-40 633.83,624)" font-family="sans-serif">2026-03-06</text>
<line x1="769.78" y1="600" x2="769.78" y2="606" stroke="#333" stroke-width="1"/>
<text x="769.78" y="624" text-anchor="end" font-size="11" fill="#111" transform="rotate(-40 769.78,624)" font-family="sans-serif">2026-03-07</text>
<line x1="905.74" y1="600" x2="905.74" y2="606" stroke="#333" stroke-width="1"/>
<text x="905.74" y="624" text-anchor="end" font-size="11" fill="#111" transform="rotate(-40 905.74,624)" font-family="sans-serif">2026-03-18</text>
<line x1="1041.70" y1="600" x2="1041.70" y2="606" stroke="#333" stroke-width="1"/>
<text x="1041.70" y="624" text-anchor="end" font-size="11" fill="#111" transform="rotate(-40 1041.70,624)" font-family="sans-serif">2026-03-19</text>
<line x1="1177.66" y1="600" x2="1177.66" y2="606" stroke="#333" stroke-width="1"/>
<text x="1177.66" y="624" text-anchor="end" font-size="11" fill="#111" transform="rotate(-40 1177.66,624)" font-family="sans-serif">2026-03-30</text>
<line x1="1180.00" y1="600" x2="1180.00" y2="606" stroke="#333" stroke-width="1"/>
<text x="1180.00" y="624" text-anchor="end" font-size="11" fill="#111" transform="rotate(-40 1180.00,624)" font-family="sans-serif">2026-03-30</text>
<line x1="90" y1="75.88" x2="1180" y2="75.88" stroke="#dc2626" stroke-width="1.5" stroke-dasharray="8,4"/>
<text x="1184" y="79.88" font-size="12" fill="#dc2626" font-family="sans-serif">Goal: 1296</text>
<polyline fill="none" stroke="#2563eb" stroke-width="3" points="90.00,540.55 92.34,538.53 94.69,536.91 97.03,534.49 99.38,534.49 101.72,533.27 104.06,532.46 106.41,532.87 108.75,532.06 111.10,532.46 113.44,532.06 115.78,568.46 118.13,568.46 120.47,566.43 122.82,545.00 125.16,545.00 127.51,544.19 129.85,543.79 132.19,543.79 134.54,543.38 136.88,541.76 139.23,541.36 141.57,540.96 143.91,540.96 146.26,539.34 148.60,539.34 150.95,556.73 153.29,556.73 155.63,555.51 157.98,551.07 160.32,538.93 162.67,538.93 165.01,538.93 167.35,538.12 169.70,536.91 172.04,536.91 174.39,536.51 176.73,536.51 179.08,556.73 181.42,556.73 183.76,556.73 186.11,556.73 188.45,535.29 190.80,535.29 193.14,535.29 195.48,535.29 197.83,534.49 200.17,534.08 202.52,533.68 204.86,532.87 207.20,532.06 209.55,532.06 211.89,531.25 214.24,530.85 216.58,530.44 218.92,530.04 221.27,530.04 223.61,529.23 225.96,529.23 228.30,529.23 230.65,528.42 232.99,528.42 235.33,527.61 237.68,527.21 240.02,526.80 242.37,526.40 244.71,525.18 247.05,523.57 249.40,523.57 251.74,523.16 254.09,522.76 256.43,522.35 258.77,521.54 261.12,519.52 263.46,517.50 265.81,517.50 268.15,517.50 270.49,517.50 272.84,517.50 275.18,517.50 277.53,517.10 279.87,516.69 282.22,515.48 284.56,515.07 286.90,514.67 289.25,513.86 291.59,514.26 293.94,512.24 296.28,511.84 298.62,511.84 300.97,511.03 303.31,509.82 305.66,507.79 308.00,506.99 310.34,506.58 312.69,509.41 315.03,509.01 317.38,504.96 319.72,504.56 322.06,504.15 324.41,504.56 326.75,503.75 329.10,503.75 331.44,503.35 333.78,499.30 336.13,496.47 338.47,490.00 340.82,484.34 343.16,481.10 345.51,480.29 347.85,480.70 350.19,460.88 352.54,459.26 354.88,458.05 357.23,456.03 359.57,456.03 361.91,454.41 364.26,450.77 366.60,444.30 368.95,443.90 371.29,600.00 373.63,441.88 375.98,440.66 378.32,439.45 380.67,439.04 383.01,438.64 385.35,437.83 387.70,436.62 390.04,436.62 392.39,434.60 394.73,432.17 397.08,429.34 399.42,428.93 401.76,428.53 404.11,427.72 406.45,426.91 408.80,426.10 411.14,426.10 413.48,426.10 415.83,419.63 418.17,419.23 420.52,418.42 422.86,418.01 425.20,417.61 427.55,417.61 429.89,417.61 432.24,417.21 434.58,417.21 436.92,413.57 439.27,411.95 441.61,412.76 443.96,410.74 446.30,410.74 448.65,410.33 450.99,410.33 453.33,410.33 455.68,409.93 458.02,409.93 460.37,409.93 462.71,409.52 465.05,409.52 467.40,409.12 469.74,409.52 472.09,409.12 474.43,407.50 476.77,407.10 479.12,403.05 481.46,399.82 483.81,400.22 486.15,400.62 488.49,400.62 490.84,399.41 493.18,392.94 495.53,391.32 497.87,389.30 500.22,389.30 502.56,388.49 504.90,375.15 507.25,374.74 509.59,374.74 511.94,374.74 514.28,374.74 516.62,374.34 518.97,374.34 521.31,374.34 523.66,374.34 526.00,374.34 528.34,373.93 530.69,373.12 533.03,372.72 535.38,373.53 537.72,435.81 540.06,372.32 542.41,372.72 544.75,371.91 547.10,371.91 549.44,372.32 551.78,371.10 554.13,369.89 556.47,369.89 558.82,369.89 561.16,369.49 563.51,369.89 565.85,369.08 568.19,368.68 570.54,368.27 572.88,367.87 575.23,367.06 577.57,367.46 579.91,367.06 582.26,366.25 584.60,368.27 586.95,368.68 589.29,368.68 591.63,368.27 593.98,369.08 596.32,367.87 598.67,367.46 601.01,367.06 603.35,360.18 605.70,359.78 608.04,359.38 610.39,356.95 612.73,357.35 615.08,357.76 617.42,355.33 619.76,355.74 622.11,357.35 624.45,355.33 626.80,356.14 629.14,355.74 631.48,356.14 633.83,354.12 636.17,354.93 638.52,356.14 640.86,354.52 643.20,353.71 645.55,354.12 647.89,354.93 650.24,352.90 652.58,353.71 654.92,353.31 657.27,353.31 659.61,354.52 661.96,352.90 664.30,352.50 666.65,352.50 668.99,353.31 671.33,352.50 673.68,353.71 676.02,354.12 678.37,352.50 680.71,352.90 683.05,352.50 685.40,352.10 687.74,351.69 690.09,352.10 692.43,354.12 694.77,352.50 697.12,352.10 699.46,352.10 701.81,349.67 704.15,349.67 706.49,350.88 708.84,351.29 711.18,350.48 713.53,352.10 715.87,350.48 718.22,350.48 720.56,350.48 722.90,350.07 725.25,348.46 727.59,351.29 729.94,349.67 732.28,351.29 734.62,349.67 736.97,348.86 739.31,348.46 741.66,348.46 744.00,347.24 746.34,348.86 748.69,346.84 751.03,348.46 753.38,348.86 755.72,346.84 758.06,349.26 760.41,348.05 762.75,349.26 765.10,349.26 767.44,350.48 769.78,352.90 772.13,349.67 774.47,348.46 776.82,345.62 779.16,344.82 781.51,344.41 783.85,342.39 786.19,341.18 788.54,341.58 790.88,339.15 793.23,338.35 795.57,337.54 797.91,336.73 800.26,335.92 802.60,337.54 804.95,338.35 807.29,337.54 809.63,337.54 811.98,337.54 814.32,333.09 816.67,333.90 819.01,335.92 821.35,336.73 823.70,335.51 826.04,332.28 828.39,331.47 830.73,331.07 833.08,331.47 835.42,331.07 837.76,331.07 840.11,331.07 842.45,331.07 844.80,331.07 847.14,331.07 849.48,331.07 851.83,331.07 854.17,331.07 856.52,331.07 858.86,331.47 861.20,331.88 863.55,331.07 865.89,331.47 868.24,331.07 870.58,331.47 872.92,331.07 875.27,324.19 877.61,324.19 879.96,318.93 882.30,316.51 884.65,310.44 886.99,308.01 889.33,600.00 891.68,301.54 894.02,290.22 896.37,287.79 898.71,286.18 901.05,285.77 903.40,285.77 905.74,285.77 908.09,286.18 910.43,285.77 912.77,285.77 915.12,285.77 917.46,283.35 919.81,282.94 922.15,282.94 924.49,283.35 926.84,282.94 929.18,282.94 931.53,283.75 933.87,282.13 936.22,282.13 938.56,282.54 940.90,282.13 943.25,282.54 945.59,282.94 947.94,281.73 950.28,282.54 952.62,281.73 954.97,282.54 957.31,282.13 959.66,282.13 962.00,281.73 964.34,281.73 966.69,281.32 969.03,281.73 971.38,282.13 973.72,281.32 976.06,281.32 978.41,282.54 980.75,282.13 983.10,281.32 985.44,281.32 987.78,281.32 990.13,282.54 992.47,282.13 994.82,281.32 997.16,282.13 999.51,281.73 1001.85,282.13 1004.19,280.11 1006.54,280.11 1008.88,280.51 1011.23,279.71 1013.57,280.11 1015.91,280.51 1018.26,279.71 1020.60,280.11 1022.95,280.11 1025.29,279.30 1027.63,278.90 1029.98,278.90 1032.32,280.51 1034.67,279.30 1037.01,278.09 1039.35,278.49 1041.70,278.49 1044.04,277.28 1046.39,277.68 1048.73,277.68 1051.08,278.09 1053.42,277.28 1055.76,600.00 1058.11,278.90 1060.45,279.30 1062.80,278.90 1065.14,278.49 1067.48,278.49 1069.83,278.49 1072.17,278.49 1074.52,278.49 1076.86,278.49 1079.20,278.49 1081.55,278.49 1083.89,278.49 1086.24,278.49 1088.58,278.49 1090.92,278.49 1093.27,600.00 1095.61,600.00 1097.96,254.63 1100.30,600.00 1102.65,245.74 1104.99,245.74 1107.33,246.14 1109.68,245.74 1112.02,245.74 1114.37,245.74 1116.71,245.74 1119.05,245.74 1121.40,240.07 1123.74,238.05 1126.09,238.05 1128.43,227.13 1130.77,227.13 1133.12,226.32 1135.46,227.54 1137.81,226.73 1140.15,226.32 1142.49,227.13 1144.84,227.13 1147.18,226.73 1149.53,226.32 1151.87,226.73 1154.22,226.73 1156.56,226.73 1158.90,225.11 1161.25,224.71 1163.59,225.11 1165.94,224.30 1168.28,226.32 1170.62,224.30 1172.97,225.51 1175.31,225.51 1177.66,225.51 1180.00,225.92"/>
<circle cx="90.00" cy="540.55" r="3.2" fill="#1d4ed8"/>
<circle cx="92.34" cy="538.53" r="3.2" fill="#1d4ed8"/>
<circle cx="94.69" cy="536.91" r="3.2" fill="#1d4ed8"/>
<circle cx="97.03" cy="534.49" r="3.2" fill="#1d4ed8"/>
<circle cx="99.38" cy="534.49" r="3.2" fill="#1d4ed8"/>
<circle cx="101.72" cy="533.27" r="3.2" fill="#1d4ed8"/>
<circle cx="104.06" cy="532.46" r="3.2" fill="#1d4ed8"/>
<circle cx="106.41" cy="532.87" r="3.2" fill="#1d4ed8"/>
<circle cx="108.75" cy="532.06" r="3.2" fill="#1d4ed8"/>
<circle cx="111.10" cy="532.46" r="3.2" fill="#1d4ed8"/>
<circle cx="113.44" cy="532.06" r="3.2" fill="#1d4ed8"/>
<circle cx="115.78" cy="568.46" r="3.2" fill="#1d4ed8"/>
<circle cx="118.13" cy="568.46" r="3.2" fill="#1d4ed8"/>
<circle cx="120.47" cy="566.43" r="3.2" fill="#1d4ed8"/>
<circle cx="122.82" cy="545.00" r="3.2" fill="#1d4ed8"/>
<circle cx="125.16" cy="545.00" r="3.2" fill="#1d4ed8"/>
<circle cx="127.51" cy="544.19" r="3.2" fill="#1d4ed8"/>
<circle cx="129.85" cy="543.79" r="3.2" fill="#1d4ed8"/>
<circle cx="132.19" cy="543.79" r="3.2" fill="#1d4ed8"/>
<circle cx="134.54" cy="543.38" r="3.2" fill="#1d4ed8"/>
<circle cx="136.88" cy="541.76" r="3.2" fill="#1d4ed8"/>
<circle cx="139.23" cy="541.36" r="3.2" fill="#1d4ed8"/>
<circle cx="141.57" cy="540.96" r="3.2" fill="#1d4ed8"/>
<circle cx="143.91" cy="540.96" r="3.2" fill="#1d4ed8"/>
<circle cx="146.26" cy="539.34" r="3.2" fill="#1d4ed8"/>
<circle cx="148.60" cy="539.34" r="3.2" fill="#1d4ed8"/>
<circle cx="150.95" cy="556.73" r="3.2" fill="#1d4ed8"/>
<circle cx="153.29" cy="556.73" r="3.2" fill="#1d4ed8"/>
<circle cx="155.63" cy="555.51" r="3.2" fill="#1d4ed8"/>
<circle cx="157.98" cy="551.07" r="3.2" fill="#1d4ed8"/>
<circle cx="160.32" cy="538.93" r="3.2" fill="#1d4ed8"/>
<circle cx="162.67" cy="538.93" r="3.2" fill="#1d4ed8"/>
<circle cx="165.01" cy="538.93" r="3.2" fill="#1d4ed8"/>
<circle cx="167.35" cy="538.12" r="3.2" fill="#1d4ed8"/>
<circle cx="169.70" cy="536.91" r="3.2" fill="#1d4ed8"/>
<circle cx="172.04" cy="536.91" r="3.2" fill="#1d4ed8"/>
<circle cx="174.39" cy="536.51" r="3.2" fill="#1d4ed8"/>
<circle cx="176.73" cy="536.51" r="3.2" fill="#1d4ed8"/>
<circle cx="179.08" cy="556.73" r="3.2" fill="#1d4ed8"/>
<circle cx="181.42" cy="556.73" r="3.2" fill="#1d4ed8"/>
<circle cx="183.76" cy="556.73" r="3.2" fill="#1d4ed8"/>
<circle cx="186.11" cy="556.73" r="3.2" fill="#1d4ed8"/>
<circle cx="188.45" cy="535.29" r="3.2" fill="#1d4ed8"/>
<circle cx="190.80" cy="535.29" r="3.2" fill="#1d4ed8"/>
<circle cx="193.14" cy="535.29" r="3.2" fill="#1d4ed8"/>
<circle cx="195.48" cy="535.29" r="3.2" fill="#1d4ed8"/>
<circle cx="197.83" cy="534.49" r="3.2" fill="#1d4ed8"/>
<circle cx="200.17" cy="534.08" r="3.2" fill="#1d4ed8"/>
<circle cx="202.52" cy="533.68" r="3.2" fill="#1d4ed8"/>
<circle cx="204.86" cy="532.87" r="3.2" fill="#1d4ed8"/>
<circle cx="207.20" cy="532.06" r="3.2" fill="#1d4ed8"/>
<circle cx="209.55" cy="532.06" r="3.2" fill="#1d4ed8"/>
<circle cx="211.89" cy="531.25" r="3.2" fill="#1d4ed8"/>
<circle cx="214.24" cy="530.85" r="3.2" fill="#1d4ed8"/>
<circle cx="216.58" cy="530.44" r="3.2" fill="#1d4ed8"/>
<circle cx="218.92" cy="530.04" r="3.2" fill="#1d4ed8"/>
<circle cx="221.27" cy="530.04" r="3.2" fill="#1d4ed8"/>
<circle cx="223.61" cy="529.23" r="3.2" fill="#1d4ed8"/>
<circle cx="225.96" cy="529.23" r="3.2" fill="#1d4ed8"/>
<circle cx="228.30" cy="529.23" r="3.2" fill="#1d4ed8"/>
<circle cx="230.65" cy="528.42" r="3.2" fill="#1d4ed8"/>
<circle cx="232.99" cy="528.42" r="3.2" fill="#1d4ed8"/>
<circle cx="235.33" cy="527.61" r="3.2" fill="#1d4ed8"/>
<circle cx="237.68" cy="527.21" r="3.2" fill="#1d4ed8"/>
<circle cx="240.02" cy="526.80" r="3.2" fill="#1d4ed8"/>
<circle cx="242.37" cy="526.40" r="3.2" fill="#1d4ed8"/>
<circle cx="244.71" cy="525.18" r="3.2" fill="#1d4ed8"/>
<circle cx="247.05" cy="523.57" r="3.2" fill="#1d4ed8"/>
<circle cx="249.40" cy="523.57" r="3.2" fill="#1d4ed8"/>
<circle cx="251.74" cy="523.16" r="3.2" fill="#1d4ed8"/>
<circle cx="254.09" cy="522.76" r="3.2" fill="#1d4ed8"/>
<circle cx="256.43" cy="522.35" r="3.2" fill="#1d4ed8"/>
<circle cx="258.77" cy="521.54" r="3.2" fill="#1d4ed8"/>
<circle cx="261.12" cy="519.52" r="3.2" fill="#1d4ed8"/>
<circle cx="263.46" cy="517.50" r="3.2" fill="#1d4ed8"/>
<circle cx="265.81" cy="517.50" r="3.2" fill="#1d4ed8"/>
<circle cx="268.15" cy="517.50" r="3.2" fill="#1d4ed8"/>
<circle cx="270.49" cy="517.50" r="3.2" fill="#1d4ed8"/>
<circle cx="272.84" cy="517.50" r="3.2" fill="#1d4ed8"/>
<circle cx="275.18" cy="517.50" r="3.2" fill="#1d4ed8"/>
<circle cx="277.53" cy="517.10" r="3.2" fill="#1d4ed8"/>
<circle cx="279.87" cy="516.69" r="3.2" fill="#1d4ed8"/>
<circle cx="282.22" cy="515.48" r="3.2" fill="#1d4ed8"/>
<circle cx="284.56" cy="515.07" r="3.2" fill="#1d4ed8"/>
<circle cx="286.90" cy="514.67" r="3.2" fill="#1d4ed8"/>
<circle cx="289.25" cy="513.86" r="3.2" fill="#1d4ed8"/>
<circle cx="291.59" cy="514.26" r="3.2" fill="#1d4ed8"/>
<circle cx="293.94" cy="512.24" r="3.2" fill="#1d4ed8"/>
<circle cx="296.28" cy="511.84" r="3.2" fill="#1d4ed8"/>
<circle cx="298.62" cy="511.84" r="3.2" fill="#1d4ed8"/>
<circle cx="300.97" cy="511.03" r="3.2" fill="#1d4ed8"/>
<circle cx="303.31" cy="509.82" r="3.2" fill="#1d4ed8"/>
<circle cx="305.66" cy="507.79" r="3.2" fill="#1d4ed8"/>
<circle cx="308.00" cy="506.99" r="3.2" fill="#1d4ed8"/>
<circle cx="310.34" cy="506.58" r="3.2" fill="#1d4ed8"/>
<circle cx="312.69" cy="509.41" r="3.2" fill="#1d4ed8"/>
<circle cx="315.03" cy="509.01" r="3.2" fill="#1d4ed8"/>
<circle cx="317.38" cy="504.96" r="3.2" fill="#1d4ed8"/>
<circle cx="319.72" cy="504.56" r="3.2" fill="#1d4ed8"/>
<circle cx="322.06" cy="504.15" r="3.2" fill="#1d4ed8"/>
<circle cx="324.41" cy="504.56" r="3.2" fill="#1d4ed8"/>
<circle cx="326.75" cy="503.75" r="3.2" fill="#1d4ed8"/>
<circle cx="329.10" cy="503.75" r="3.2" fill="#1d4ed8"/>
<circle cx="331.44" cy="503.35" r="3.2" fill="#1d4ed8"/>
<circle cx="333.78" cy="499.30" r="3.2" fill="#1d4ed8"/>
<circle cx="336.13" cy="496.47" r="3.2" fill="#1d4ed8"/>
<circle cx="338.47" cy="490.00" r="3.2" fill="#1d4ed8"/>
<circle cx="340.82" cy="484.34" r="3.2" fill="#1d4ed8"/>
<circle cx="343.16" cy="481.10" r="3.2" fill="#1d4ed8"/>
<circle cx="345.51" cy="480.29" r="3.2" fill="#1d4ed8"/>
<circle cx="347.85" cy="480.70" r="3.2" fill="#1d4ed8"/>
<circle cx="350.19" cy="460.88" r="3.2" fill="#1d4ed8"/>
<circle cx="352.54" cy="459.26" r="3.2" fill="#1d4ed8"/>
<circle cx="354.88" cy="458.05" r="3.2" fill="#1d4ed8"/>
<circle cx="357.23" cy="456.03" r="3.2" fill="#1d4ed8"/>
<circle cx="359.57" cy="456.03" r="3.2" fill="#1d4ed8"/>
<circle cx="361.91" cy="454.41" r="3.2" fill="#1d4ed8"/>
<circle cx="364.26" cy="450.77" r="3.2" fill="#1d4ed8"/>
<circle cx="366.60" cy="444.30" r="3.2" fill="#1d4ed8"/>
<circle cx="368.95" cy="443.90" r="3.2" fill="#1d4ed8"/>
<circle cx="371.29" cy="600.00" r="3.2" fill="#1d4ed8"/>
<circle cx="373.63" cy="441.88" r="3.2" fill="#1d4ed8"/>
<circle cx="375.98" cy="440.66" r="3.2" fill="#1d4ed8"/>
<circle cx="378.32" cy="439.45" r="3.2" fill="#1d4ed8"/>
<circle cx="380.67" cy="439.04" r="3.2" fill="#1d4ed8"/>
<circle cx="383.01" cy="438.64" r="3.2" fill="#1d4ed8"/>
<circle cx="385.35" cy="437.83" r="3.2" fill="#1d4ed8"/>
<circle cx="387.70" cy="436.62" r="3.2" fill="#1d4ed8"/>
<circle cx="390.04" cy="436.62" r="3.2" fill="#1d4ed8"/>
<circle cx="392.39" cy="434.60" r="3.2" fill="#1d4ed8"/>
<circle cx="394.73" cy="432.17" r="3.2" fill="#1d4ed8"/>
<circle cx="397.08" cy="429.34" r="3.2" fill="#1d4ed8"/>
<circle cx="399.42" cy="428.93" r="3.2" fill="#1d4ed8"/>
<circle cx="401.76" cy="428.53" r="3.2" fill="#1d4ed8"/>
<circle cx="404.11" cy="427.72" r="3.2" fill="#1d4ed8"/>
<circle cx="406.45" cy="426.91" r="3.2" fill="#1d4ed8"/>
<circle cx="408.80" cy="426.10" r="3.2" fill="#1d4ed8"/>
<circle cx="411.14" cy="426.10" r="3.2" fill="#1d4ed8"/>
<circle cx="413.48" cy="426.10" r="3.2" fill="#1d4ed8"/>
<circle cx="415.83" cy="419.63" r="3.2" fill="#1d4ed8"/>
<circle cx="418.17" cy="419.23" r="3.2" fill="#1d4ed8"/>
<circle cx="420.52" cy="418.42" r="3.2" fill="#1d4ed8"/>
<circle cx="422.86" cy="418.01" r="3.2" fill="#1d4ed8"/>
<circle cx="425.20" cy="417.61" r="3.2" fill="#1d4ed8"/>
<circle cx="427.55" cy="417.61" r="3.2" fill="#1d4ed8"/>
<circle cx="429.89" cy="417.61" r="3.2" fill="#1d4ed8"/>
<circle cx="432.24" cy="417.21" r="3.2" fill="#1d4ed8"/>
<circle cx="434.58" cy="417.21" r="3.2" fill="#1d4ed8"/>
<circle cx="436.92" cy="413.57" r="3.2" fill="#1d4ed8"/>
<circle cx="439.27" cy="411.95" r="3.2" fill="#1d4ed8"/>
<circle cx="441.61" cy="412.76" r="3.2" fill="#1d4ed8"/>
<circle cx="443.96" cy="410.74" r="3.2" fill="#1d4ed8"/>
<circle cx="446.30" cy="410.74" r="3.2" fill="#1d4ed8"/>
<circle cx="448.65" cy="410.33" r="3.2" fill="#1d4ed8"/>
<circle cx="450.99" cy="410.33" r="3.2" fill="#1d4ed8"/>
<circle cx="453.33" cy="410.33" r="3.2" fill="#1d4ed8"/>
<circle cx="455.68" cy="409.93" r="3.2" fill="#1d4ed8"/>
<circle cx="458.02" cy="409.93" r="3.2" fill="#1d4ed8"/>
<circle cx="460.37" cy="409.93" r="3.2" fill="#1d4ed8"/>
<circle cx="462.71" cy="409.52" r="3.2" fill="#1d4ed8"/>
<circle cx="465.05" cy="409.52" r="3.2" fill="#1d4ed8"/>
<circle cx="467.40" cy="409.12" r="3.2" fill="#1d4ed8"/>
<circle cx="469.74" cy="409.52" r="3.2" fill="#1d4ed8"/>
<circle cx="472.09" cy="409.12" r="3.2" fill="#1d4ed8"/>
<circle cx="474.43" cy="407.50" r="3.2" fill="#1d4ed8"/>
<circle cx="476.77" cy="407.10" r="3.2" fill="#1d4ed8"/>
<circle cx="479.12" cy="403.05" r="3.2" fill="#1d4ed8"/>
<circle cx="481.46" cy="399.82" r="3.2" fill="#1d4ed8"/>
<circle cx="483.81" cy="400.22" r="3.2" fill="#1d4ed8"/>
<circle cx="486.15" cy="400.62" r="3.2" fill="#1d4ed8"/>
<circle cx="488.49" cy="400.62" r="3.2" fill="#1d4ed8"/>
<circle cx="490.84" cy="399.41" r="3.2" fill="#1d4ed8"/>
<circle cx="493.18" cy="392.94" r="3.2" fill="#1d4ed8"/>
<circle cx="495.53" cy="391.32" r="3.2" fill="#1d4ed8"/>
<circle cx="497.87" cy="389.30" r="3.2" fill="#1d4ed8"/>
<circle cx="500.22" cy="389.30" r="3.2" fill="#1d4ed8"/>
<circle cx="502.56" cy="388.49" r="3.2" fill="#1d4ed8"/>
<circle cx="504.90" cy="375.15" r="3.2" fill="#1d4ed8"/>
<circle cx="507.25" cy="374.74" r="3.2" fill="#1d4ed8"/>
<circle cx="509.59" cy="374.74" r="3.2" fill="#1d4ed8"/>
<circle cx="511.94" cy="374.74" r="3.2" fill="#1d4ed8"/>
<circle cx="514.28" cy="374.74" r="3.2" fill="#1d4ed8"/>
<circle cx="516.62" cy="374.34" r="3.2" fill="#1d4ed8"/>
<circle cx="518.97" cy="374.34" r="3.2" fill="#1d4ed8"/>
<circle cx="521.31" cy="374.34" r="3.2" fill="#1d4ed8"/>
<circle cx="523.66" cy="374.34" r="3.2" fill="#1d4ed8"/>
<circle cx="526.00" cy="374.34" r="3.2" fill="#1d4ed8"/>
<circle cx="528.34" cy="373.93" r="3.2" fill="#1d4ed8"/>
<circle cx="530.69" cy="373.12" r="3.2" fill="#1d4ed8"/>
<circle cx="533.03" cy="372.72" r="3.2" fill="#1d4ed8"/>
<circle cx="535.38" cy="373.53" r="3.2" fill="#1d4ed8"/>
<circle cx="537.72" cy="435.81" r="3.2" fill="#1d4ed8"/>
<circle cx="540.06" cy="372.32" r="3.2" fill="#1d4ed8"/>
<circle cx="542.41" cy="372.72" r="3.2" fill="#1d4ed8"/>
<circle cx="544.75" cy="371.91" r="3.2" fill="#1d4ed8"/>
<circle cx="547.10" cy="371.91" r="3.2" fill="#1d4ed8"/>
<circle cx="549.44" cy="372.32" r="3.2" fill="#1d4ed8"/>
<circle cx="551.78" cy="371.10" r="3.2" fill="#1d4ed8"/>
<circle cx="554.13" cy="369.89" r="3.2" fill="#1d4ed8"/>
<circle cx="556.47" cy="369.89" r="3.2" fill="#1d4ed8"/>
<circle cx="558.82" cy="369.89" r="3.2" fill="#1d4ed8"/>
<circle cx="561.16" cy="369.49" r="3.2" fill="#1d4ed8"/>
<circle cx="563.51" cy="369.89" r="3.2" fill="#1d4ed8"/>
<circle cx="565.85" cy="369.08" r="3.2" fill="#1d4ed8"/>
<circle cx="568.19" cy="368.68" r="3.2" fill="#1d4ed8"/>
<circle cx="570.54" cy="368.27" r="3.2" fill="#1d4ed8"/>
<circle cx="572.88" cy="367.87" r="3.2" fill="#1d4ed8"/>
<circle cx="575.23" cy="367.06" r="3.2" fill="#1d4ed8"/>
<circle cx="577.57" cy="367.46" r="3.2" fill="#1d4ed8"/>
<circle cx="579.91" cy="367.06" r="3.2" fill="#1d4ed8"/>
<circle cx="582.26" cy="366.25" r="3.2" fill="#1d4ed8"/>
<circle cx="584.60" cy="368.27" r="3.2" fill="#1d4ed8"/>
<circle cx="586.95" cy="368.68" r="3.2" fill="#1d4ed8"/>
<circle cx="589.29" cy="368.68" r="3.2" fill="#1d4ed8"/>
<circle cx="591.63" cy="368.27" r="3.2" fill="#1d4ed8"/>
<circle cx="593.98" cy="369.08" r="3.2" fill="#1d4ed8"/>
<circle cx="596.32" cy="367.87" r="3.2" fill="#1d4ed8"/>
<circle cx="598.67" cy="367.46" r="3.2" fill="#1d4ed8"/>
<circle cx="601.01" cy="367.06" r="3.2" fill="#1d4ed8"/>
<circle cx="603.35" cy="360.18" r="3.2" fill="#1d4ed8"/>
<circle cx="605.70" cy="359.78" r="3.2" fill="#1d4ed8"/>
<circle cx="608.04" cy="359.38" r="3.2" fill="#1d4ed8"/>
<circle cx="610.39" cy="356.95" r="3.2" fill="#1d4ed8"/>
<circle cx="612.73" cy="357.35" r="3.2" fill="#1d4ed8"/>
<circle cx="615.08" cy="357.76" r="3.2" fill="#1d4ed8"/>
<circle cx="617.42" cy="355.33" r="3.2" fill="#1d4ed8"/>
<circle cx="619.76" cy="355.74" r="3.2" fill="#1d4ed8"/>
<circle cx="622.11" cy="357.35" r="3.2" fill="#1d4ed8"/>
<circle cx="624.45" cy="355.33" r="3.2" fill="#1d4ed8"/>
<circle cx="626.80" cy="356.14" r="3.2" fill="#1d4ed8"/>
<circle cx="629.14" cy="355.74" r="3.2" fill="#1d4ed8"/>
<circle cx="631.48" cy="356.14" r="3.2" fill="#1d4ed8"/>
<circle cx="633.83" cy="354.12" r="3.2" fill="#1d4ed8"/>
<circle cx="636.17" cy="354.93" r="3.2" fill="#1d4ed8"/>
<circle cx="638.52" cy="356.14" r="3.2" fill="#1d4ed8"/>
<circle cx="640.86" cy="354.52" r="3.2" fill="#1d4ed8"/>
<circle cx="643.20" cy="353.71" r="3.2" fill="#1d4ed8"/>
<circle cx="645.55" cy="354.12" r="3.2" fill="#1d4ed8"/>
<circle cx="647.89" cy="354.93" r="3.2" fill="#1d4ed8"/>
<circle cx="650.24" cy="352.90" r="3.2" fill="#1d4ed8"/>
<circle cx="652.58" cy="353.71" r="3.2" fill="#1d4ed8"/>
<circle cx="654.92" cy="353.31" r="3.2" fill="#1d4ed8"/>
<circle cx="657.27" cy="353.31" r="3.2" fill="#1d4ed8"/>
<circle cx="659.61" cy="354.52" r="3.2" fill="#1d4ed8"/>
<circle cx="661.96" cy="352.90" r="3.2" fill="#1d4ed8"/>
<circle cx="664.30" cy="352.50" r="3.2" fill="#1d4ed8"/>
<circle cx="666.65" cy="352.50" r="3.2" fill="#1d4ed8"/>
<circle cx="668.99" cy="353.31" r="3.2" fill="#1d4ed8"/>
<circle cx="671.33" cy="352.50" r="3.2" fill="#1d4ed8"/>
<circle cx="673.68" cy="353.71" r="3.2" fill="#1d4ed8"/>
<circle cx="676.02" cy="354.12" r="3.2" fill="#1d4ed8"/>
<circle cx="678.37" cy="352.50" r="3.2" fill="#1d4ed8"/>
<circle cx="680.71" cy="352.90" r="3.2" fill="#1d4ed8"/>
<circle cx="683.05" cy="352.50" r="3.2" fill="#1d4ed8"/>
<circle cx="685.40" cy="352.10" r="3.2" fill="#1d4ed8"/>
<circle cx="687.74" cy="351.69" r="3.2" fill="#1d4ed8"/>
<circle cx="690.09" cy="352.10" r="3.2" fill="#1d4ed8"/>
<circle cx="692.43" cy="354.12" r="3.2" fill="#1d4ed8"/>
<circle cx="694.77" cy="352.50" r="3.2" fill="#1d4ed8"/>
<circle cx="697.12" cy="352.10" r="3.2" fill="#1d4ed8"/>
<circle cx="699.46" cy="352.10" r="3.2" fill="#1d4ed8"/>
<circle cx="701.81" cy="349.67" r="3.2" fill="#1d4ed8"/>
<circle cx="704.15" cy="349.67" r="3.2" fill="#1d4ed8"/>
<circle cx="706.49" cy="350.88" r="3.2" fill="#1d4ed8"/>
<circle cx="708.84" cy="351.29" r="3.2" fill="#1d4ed8"/>
<circle cx="711.18" cy="350.48" r="3.2" fill="#1d4ed8"/>
<circle cx="713.53" cy="352.10" r="3.2" fill="#1d4ed8"/>
<circle cx="715.87" cy="350.48" r="3.2" fill="#1d4ed8"/>
<circle cx="718.22" cy="350.48" r="3.2" fill="#1d4ed8"/>
<circle cx="720.56" cy="350.48" r="3.2" fill="#1d4ed8"/>
<circle cx="722.90" cy="350.07" r="3.2" fill="#1d4ed8"/>
<circle cx="725.25" cy="348.46" r="3.2" fill="#1d4ed8"/>
<circle cx="727.59" cy="351.29" r="3.2" fill="#1d4ed8"/>
<circle cx="729.94" cy="349.67" r="3.2" fill="#1d4ed8"/>
<circle cx="732.28" cy="351.29" r="3.2" fill="#1d4ed8"/>
<circle cx="734.62" cy="349.67" r="3.2" fill="#1d4ed8"/>
<circle cx="736.97" cy="348.86" r="3.2" fill="#1d4ed8"/>
<circle cx="739.31" cy="348.46" r="3.2" fill="#1d4ed8"/>
<circle cx="741.66" cy="348.46" r="3.2" fill="#1d4ed8"/>
<circle cx="744.00" cy="347.24" r="3.2" fill="#1d4ed8"/>
<circle cx="746.34" cy="348.86" r="3.2" fill="#1d4ed8"/>
<circle cx="748.69" cy="346.84" r="3.2" fill="#1d4ed8"/>
<circle cx="751.03" cy="348.46" r="3.2" fill="#1d4ed8"/>
<circle cx="753.38" cy="348.86" r="3.2" fill="#1d4ed8"/>
<circle cx="755.72" cy="346.84" r="3.2" fill="#1d4ed8"/>
<circle cx="758.06" cy="349.26" r="3.2" fill="#1d4ed8"/>
<circle cx="760.41" cy="348.05" r="3.2" fill="#1d4ed8"/>
<circle cx="762.75" cy="349.26" r="3.2" fill="#1d4ed8"/>
<circle cx="765.10" cy="349.26" r="3.2" fill="#1d4ed8"/>
<circle cx="767.44" cy="350.48" r="3.2" fill="#1d4ed8"/>
<circle cx="769.78" cy="352.90" r="3.2" fill="#1d4ed8"/>
<circle cx="772.13" cy="349.67" r="3.2" fill="#1d4ed8"/>
<circle cx="774.47" cy="348.46" r="3.2" fill="#1d4ed8"/>
<circle cx="776.82" cy="345.62" r="3.2" fill="#1d4ed8"/>
<circle cx="779.16" cy="344.82" r="3.2" fill="#1d4ed8"/>
<circle cx="781.51" cy="344.41" r="3.2" fill="#1d4ed8"/>
<circle cx="783.85" cy="342.39" r="3.2" fill="#1d4ed8"/>
<circle cx="786.19" cy="341.18" r="3.2" fill="#1d4ed8"/>
<circle cx="788.54" cy="341.58" r="3.2" fill="#1d4ed8"/>
<circle cx="790.88" cy="339.15" r="3.2" fill="#1d4ed8"/>
<circle cx="793.23" cy="338.35" r="3.2" fill="#1d4ed8"/>
<circle cx="795.57" cy="337.54" r="3.2" fill="#1d4ed8"/>
<circle cx="797.91" cy="336.73" r="3.2" fill="#1d4ed8"/>
<circle cx="800.26" cy="335.92" r="3.2" fill="#1d4ed8"/>
<circle cx="802.60" cy="337.54" r="3.2" fill="#1d4ed8"/>
<circle cx="804.95" cy="338.35" r="3.2" fill="#1d4ed8"/>
<circle cx="807.29" cy="337.54" r="3.2" fill="#1d4ed8"/>
<circle cx="809.63" cy="337.54" r="3.2" fill="#1d4ed8"/>
<circle cx="811.98" cy="337.54" r="3.2" fill="#1d4ed8"/>
<circle cx="814.32" cy="333.09" r="3.2" fill="#1d4ed8"/>
<circle cx="816.67" cy="333.90" r="3.2" fill="#1d4ed8"/>
<circle cx="819.01" cy="335.92" r="3.2" fill="#1d4ed8"/>
<circle cx="821.35" cy="336.73" r="3.2" fill="#1d4ed8"/>
<circle cx="823.70" cy="335.51" r="3.2" fill="#1d4ed8"/>
<circle cx="826.04" cy="332.28" r="3.2" fill="#1d4ed8"/>
<circle cx="828.39" cy="331.47" r="3.2" fill="#1d4ed8"/>
<circle cx="830.73" cy="331.07" r="3.2" fill="#1d4ed8"/>
<circle cx="833.08" cy="331.47" r="3.2" fill="#1d4ed8"/>
<circle cx="835.42" cy="331.07" r="3.2" fill="#1d4ed8"/>
<circle cx="837.76" cy="331.07" r="3.2" fill="#1d4ed8"/>
<circle cx="840.11" cy="331.07" r="3.2" fill="#1d4ed8"/>
<circle cx="842.45" cy="331.07" r="3.2" fill="#1d4ed8"/>
<circle cx="844.80" cy="331.07" r="3.2" fill="#1d4ed8"/>
<circle cx="847.14" cy="331.07" r="3.2" fill="#1d4ed8"/>
<circle cx="849.48" cy="331.07" r="3.2" fill="#1d4ed8"/>
<circle cx="851.83" cy="331.07" r="3.2" fill="#1d4ed8"/>
<circle cx="854.17" cy="331.07" r="3.2" fill="#1d4ed8"/>
<circle cx="856.52" cy="331.07" r="3.2" fill="#1d4ed8"/>
<circle cx="858.86" cy="331.47" r="3.2" fill="#1d4ed8"/>
<circle cx="861.20" cy="331.88" r="3.2" fill="#1d4ed8"/>
<circle cx="863.55" cy="331.07" r="3.2" fill="#1d4ed8"/>
<circle cx="865.89" cy="331.47" r="3.2" fill="#1d4ed8"/>
<circle cx="868.24" cy="331.07" r="3.2" fill="#1d4ed8"/>
<circle cx="870.58" cy="331.47" r="3.2" fill="#1d4ed8"/>
<circle cx="872.92" cy="331.07" r="3.2" fill="#1d4ed8"/>
<circle cx="875.27" cy="324.19" r="3.2" fill="#1d4ed8"/>
<circle cx="877.61" cy="324.19" r="3.2" fill="#1d4ed8"/>
<circle cx="879.96" cy="318.93" r="3.2" fill="#1d4ed8"/>
<circle cx="882.30" cy="316.51" r="3.2" fill="#1d4ed8"/>
<circle cx="884.65" cy="310.44" r="3.2" fill="#1d4ed8"/>
<circle cx="886.99" cy="308.01" r="3.2" fill="#1d4ed8"/>
<circle cx="889.33" cy="600.00" r="3.2" fill="#1d4ed8"/>
<circle cx="891.68" cy="301.54" r="3.2" fill="#1d4ed8"/>
<circle cx="894.02" cy="290.22" r="3.2" fill="#1d4ed8"/>
<circle cx="896.37" cy="287.79" r="3.2" fill="#1d4ed8"/>
<circle cx="898.71" cy="286.18" r="3.2" fill="#1d4ed8"/>
<circle cx="901.05" cy="285.77" r="3.2" fill="#1d4ed8"/>
<circle cx="903.40" cy="285.77" r="3.2" fill="#1d4ed8"/>
<circle cx="905.74" cy="285.77" r="3.2" fill="#1d4ed8"/>
<circle cx="908.09" cy="286.18" r="3.2" fill="#1d4ed8"/>
<circle cx="910.43" cy="285.77" r="3.2" fill="#1d4ed8"/>
<circle cx="912.77" cy="285.77" r="3.2" fill="#1d4ed8"/>
<circle cx="915.12" cy="285.77" r="3.2" fill="#1d4ed8"/>
<circle cx="917.46" cy="283.35" r="3.2" fill="#1d4ed8"/>
<circle cx="919.81" cy="282.94" r="3.2" fill="#1d4ed8"/>
<circle cx="922.15" cy="282.94" r="3.2" fill="#1d4ed8"/>
<circle cx="924.49" cy="283.35" r="3.2" fill="#1d4ed8"/>
<circle cx="926.84" cy="282.94" r="3.2" fill="#1d4ed8"/>
<circle cx="929.18" cy="282.94" r="3.2" fill="#1d4ed8"/>
<circle cx="931.53" cy="283.75" r="3.2" fill="#1d4ed8"/>
<circle cx="933.87" cy="282.13" r="3.2" fill="#1d4ed8"/>
<circle cx="936.22" cy="282.13" r="3.2" fill="#1d4ed8"/>
<circle cx="938.56" cy="282.54" r="3.2" fill="#1d4ed8"/>
<circle cx="940.90" cy="282.13" r="3.2" fill="#1d4ed8"/>
<circle cx="943.25" cy="282.54" r="3.2" fill="#1d4ed8"/>
<circle cx="945.59" cy="282.94" r="3.2" fill="#1d4ed8"/>
<circle cx="947.94" cy="281.73" r="3.2" fill="#1d4ed8"/>
<circle cx="950.28" cy="282.54" r="3.2" fill="#1d4ed8"/>
<circle cx="952.62" cy="281.73" r="3.2" fill="#1d4ed8"/>
<circle cx="954.97" cy="282.54" r="3.2" fill="#1d4ed8"/>
<circle cx="957.31" cy="282.13" r="3.2" fill="#1d4ed8"/>
<circle cx="959.66" cy="282.13" r="3.2" fill="#1d4ed8"/>
<circle cx="962.00" cy="281.73" r="3.2" fill="#1d4ed8"/>
<circle cx="964.34" cy="281.73" r="3.2" fill="#1d4ed8"/>
<circle cx="966.69" cy="281.32" r="3.2" fill="#1d4ed8"/>
<circle cx="969.03" cy="281.73" r="3.2" fill="#1d4ed8"/>
<circle cx="971.38" cy="282.13" r="3.2" fill="#1d4ed8"/>
<circle cx="973.72" cy="281.32" r="3.2" fill="#1d4ed8"/>
<circle cx="976.06" cy="281.32" r="3.2" fill="#1d4ed8"/>
<circle cx="978.41" cy="282.54" r="3.2" fill="#1d4ed8"/>
<circle cx="980.75" cy="282.13" r="3.2" fill="#1d4ed8"/>
<circle cx="983.10" cy="281.32" r="3.2" fill="#1d4ed8"/>
<circle cx="985.44" cy="281.32" r="3.2" fill="#1d4ed8"/>
<circle cx="987.78" cy="281.32" r="3.2" fill="#1d4ed8"/>
<circle cx="990.13" cy="282.54" r="3.2" fill="#1d4ed8"/>
<circle cx="992.47" cy="282.13" r="3.2" fill="#1d4ed8"/>
<circle cx="994.82" cy="281.32" r="3.2" fill="#1d4ed8"/>
<circle cx="997.16" cy="282.13" r="3.2" fill="#1d4ed8"/>
<circle cx="999.51" cy="281.73" r="3.2" fill="#1d4ed8"/>
<circle cx="1001.85" cy="282.13" r="3.2" fill="#1d4ed8"/>
<circle cx="1004.19" cy="280.11" r="3.2" fill="#1d4ed8"/>
<circle cx="1006.54" cy="280.11" r="3.2" fill="#1d4ed8"/>
<circle cx="1008.88" cy="280.51" r="3.2" fill="#1d4ed8"/>
<circle cx="1011.23" cy="279.71" r="3.2" fill="#1d4ed8"/>
<circle cx="1013.57" cy="280.11" r="3.2" fill="#1d4ed8"/>
<circle cx="1015.91" cy="280.51" r="3.2" fill="#1d4ed8"/>
<circle cx="1018.26" cy="279.71" r="3.2" fill="#1d4ed8"/>
<circle cx="1020.60" cy="280.11" r="3.2" fill="#1d4ed8"/>
<circle cx="1022.95" cy="280.11" r="3.2" fill="#1d4ed8"/>
<circle cx="1025.29" cy="279.30" r="3.2" fill="#1d4ed8"/>
<circle cx="1027.63" cy="278.90" r="3.2" fill="#1d4ed8"/>
<circle cx="1029.98" cy="278.90" r="3.2" fill="#1d4ed8"/>
<circle cx="1032.32" cy="280.51" r="3.2" fill="#1d4ed8"/>
<circle cx="1034.67" cy="279.30" r="3.2" fill="#1d4ed8"/>
<circle cx="1037.01" cy="278.09" r="3.2" fill="#1d4ed8"/>
<circle cx="1039.35" cy="278.49" r="3.2" fill="#1d4ed8"/>
<circle cx="1041.70" cy="278.49" r="3.2" fill="#1d4ed8"/>
<circle cx="1044.04" cy="277.28" r="3.2" fill="#1d4ed8"/>
<circle cx="1046.39" cy="277.68" r="3.2" fill="#1d4ed8"/>
<circle cx="1048.73" cy="277.68" r="3.2" fill="#1d4ed8"/>
<circle cx="1051.08" cy="278.09" r="3.2" fill="#1d4ed8"/>
<circle cx="1053.42" cy="277.28" r="3.2" fill="#1d4ed8"/>
<circle cx="1055.76" cy="600.00" r="3.2" fill="#1d4ed8"/>
<circle cx="1058.11" cy="278.90" r="3.2" fill="#1d4ed8"/>
<circle cx="1060.45" cy="279.30" r="3.2" fill="#1d4ed8"/>
<circle cx="1062.80" cy="278.90" r="3.2" fill="#1d4ed8"/>
<circle cx="1065.14" cy="278.49" r="3.2" fill="#1d4ed8"/>
<circle cx="1067.48" cy="278.49" r="3.2" fill="#1d4ed8"/>
<circle cx="1069.83" cy="278.49" r="3.2" fill="#1d4ed8"/>
<circle cx="1072.17" cy="278.49" r="3.2" fill="#1d4ed8"/>
<circle cx="1074.52" cy="278.49" r="3.2" fill="#1d4ed8"/>
<circle cx="1076.86" cy="278.49" r="3.2" fill="#1d4ed8"/>
<circle cx="1079.20" cy="278.49" r="3.2" fill="#1d4ed8"/>
<circle cx="1081.55" cy="278.49" r="3.2" fill="#1d4ed8"/>
<circle cx="1083.89" cy="278.49" r="3.2" fill="#1d4ed8"/>
<circle cx="1086.24" cy="278.49" r="3.2" fill="#1d4ed8"/>
<circle cx="1088.58" cy="278.49" r="3.2" fill="#1d4ed8"/>
<circle cx="1090.92" cy="278.49" r="3.2" fill="#1d4ed8"/>
<circle cx="1093.27" cy="600.00" r="3.2" fill="#1d4ed8"/>
<circle cx="1095.61" cy="600.00" r="3.2" fill="#1d4ed8"/>
<circle cx="1097.96" cy="254.63" r="3.2" fill="#1d4ed8"/>
<circle cx="1100.30" cy="600.00" r="3.2" fill="#1d4ed8"/>
<circle cx="1102.65" cy="245.74" r="3.2" fill="#1d4ed8"/>
<circle cx="1104.99" cy="245.74" r="3.2" fill="#1d4ed8"/>
<circle cx="1107.33" cy="246.14" r="3.2" fill="#1d4ed8"/>
<circle cx="1109.68" cy="245.74" r="3.2" fill="#1d4ed8"/>
<circle cx="1112.02" cy="245.74" r="3.2" fill="#1d4ed8"/>
<circle cx="1114.37" cy="245.74" r="3.2" fill="#1d4ed8"/>
<circle cx="1116.71" cy="245.74" r="3.2" fill="#1d4ed8"/>
<circle cx="1119.05" cy="245.74" r="3.2" fill="#1d4ed8"/>
<circle cx="1121.40" cy="240.07" r="3.2" fill="#1d4ed8"/>
<circle cx="1123.74" cy="238.05" r="3.2" fill="#1d4ed8"/>
<circle cx="1126.09" cy="238.05" r="3.2" fill="#1d4ed8"/>
<circle cx="1128.43" cy="227.13" r="3.2" fill="#1d4ed8"/>
<circle cx="1130.77" cy="227.13" r="3.2" fill="#1d4ed8"/>
<circle cx="1133.12" cy="226.32" r="3.2" fill="#1d4ed8"/>
<circle cx="1135.46" cy="227.54" r="3.2" fill="#1d4ed8"/>
<circle cx="1137.81" cy="226.73" r="3.2" fill="#1d4ed8"/>
<circle cx="1140.15" cy="226.32" r="3.2" fill="#1d4ed8"/>
<circle cx="1142.49" cy="227.13" r="3.2" fill="#1d4ed8"/>
<circle cx="1144.84" cy="227.13" r="3.2" fill="#1d4ed8"/>
<circle cx="1147.18" cy="226.73" r="3.2" fill="#1d4ed8"/>
<circle cx="1149.53" cy="226.32" r="3.2" fill="#1d4ed8"/>
<circle cx="1151.87" cy="226.73" r="3.2" fill="#1d4ed8"/>
<circle cx="1154.22" cy="226.73" r="3.2" fill="#1d4ed8"/>
<circle cx="1156.56" cy="226.73" r="3.2" fill="#1d4ed8"/>
<circle cx="1158.90" cy="225.11" r="3.2" fill="#1d4ed8"/>
<circle cx="1161.25" cy="224.71" r="3.2" fill="#1d4ed8"/>
<circle cx="1163.59" cy="225.11" r="3.2" fill="#1d4ed8"/>
<circle cx="1165.94" cy="224.30" r="3.2" fill="#1d4ed8"/>
<circle cx="1168.28" cy="226.32" r="3.2" fill="#1d4ed8"/>
<circle cx="1170.62" cy="224.30" r="3.2" fill="#1d4ed8"/>
<circle cx="1172.97" cy="225.51" r="3.2" fill="#1d4ed8"/>
<circle cx="1175.31" cy="225.51" r="3.2" fill="#1d4ed8"/>
<circle cx="1177.66" cy="225.51" r="3.2" fill="#1d4ed8"/>
<circle cx="1180.00" cy="225.92" r="3.2" fill="#1d4ed8"/>
<text x="635" y="695" text-anchor="middle" font-size="14" fill="#111" font-family="sans-serif">Date</text>
<text x="24" y="325" text-anchor="middle" font-size="14" fill="#111" transform="rotate(-90 24,325)" font-family="sans-serif">Passed files</text>
</svg>
