<?xml version="1.0" encoding="UTF-8"?>
<svg xmlns="http://www.w3.org/2000/svg" width="1280" height="720" viewBox="0 0 1280 720">
<rect width="100%" height="100%" fill="#ffffff"/>
<text x="640" y="30" text-anchor="middle" font-size="22" font-family="sans-serif">Roast passed files history</text>
<line x1="90" y1="600" x2="1180" y2="600" stroke="#333" stroke-width="1.5"/>
<line x1="90" y1="50" x2="90" y2="600" stroke="#333" stroke-width="1.5"/>
<line x1="90" y1="600.00" x2="1180" y2="600.00" stroke="#e5e7eb" stroke-width="1"/>
<text x="78" y="605.00" text-anchor="end" font-size="12" fill="#111" font-family="sans-serif">0</text>
<line x1="90" y1="397.79" x2="1180" y2="397.79" stroke="#e5e7eb" stroke-width="1"/>
<text x="78" y="402.79" text-anchor="end" font-size="12" fill="#111" font-family="sans-serif">500</text>
<line x1="90" y1="195.59" x2="1180" y2="195.59" stroke="#e5e7eb" stroke-width="1"/>
<text x="78" y="200.59" text-anchor="end" font-size="12" fill="#111" font-family="sans-serif">1000</text>
<line x1="90.00" y1="600" x2="90.00" y2="606" stroke="#333" stroke-width="1"/>
<text x="90.00" y="624" text-anchor="end" font-size="11" fill="#111" transform="rotate(-40 90.00,624)" font-family="sans-serif">2026-02-12</text>
<line x1="225.51" y1="600" x2="225.51" y2="606" stroke="#333" stroke-width="1"/>
<text x="225.51" y="624" text-anchor="end" font-size="11" fill="#111" transform="rotate(-40 225.51,624)" font-family="sans-serif">2026-02-15</text>
<line x1="361.03" y1="600" x2="361.03" y2="606" stroke="#333" stroke-width="1"/>
<text x="361.03" y="624" text-anchor="end" font-size="11" fill="#111" transform="rotate(-40 361.03,624)" font-family="sans-serif">2026-02-17</text>
<line x1="496.54" y1="600" x2="496.54" y2="606" stroke="#333" stroke-width="1"/>
<text x="496.54" y="624" text-anchor="end" font-size="11" fill="#111" transform="rotate(-40 496.54,624)" font-family="sans-serif">2026-02-19</text>
<line x1="632.05" y1="600" x2="632.05" y2="606" stroke="#333" stroke-width="1"/>
<text x="632.05" y="624" text-anchor="end" font-size="11" fill="#111" transform="rotate(-40 632.05,624)" font-family="sans-serif">2026-02-22</text>
<line x1="767.57" y1="600" x2="767.57" y2="606" stroke="#333" stroke-width="1"/>
<text x="767.57" y="624" text-anchor="end" font-size="11" fill="#111" transform="rotate(-40 767.57,624)" font-family="sans-serif">2026-02-24</text>
<line x1="903.08" y1="600" x2="903.08" y2="606" stroke="#333" stroke-width="1"/>
<text x="903.08" y="624" text-anchor="end" font-size="11" fill="#111" transform="rotate(-40 903.08,624)" font-family="sans-serif">2026-02-25</text>
<line x1="1038.59" y1="600" x2="1038.59" y2="606" stroke="#333" stroke-width="1"/>
<text x="1038.59" y="624" text-anchor="end" font-size="11" fill="#111" transform="rotate(-40 1038.59,624)" font-family="sans-serif">2026-02-27</text>
<line x1="1174.11" y1="600" x2="1174.11" y2="606" stroke="#333" stroke-width="1"/>
<text x="1174.11" y="624" text-anchor="end" font-size="11" fill="#111" transform="rotate(-40 1174.11,624)" font-family="sans-serif">2026-02-28</text>
<line x1="1180.00" y1="600" x2="1180.00" y2="606" stroke="#333" stroke-width="1"/>
<text x="1180.00" y="624" text-anchor="end" font-size="11" fill="#111" transform="rotate(-40 1180.00,624)" font-family="sans-serif">2026-02-28</text>
<line x1="90" y1="75.88" x2="1180" y2="75.88" stroke="#dc2626" stroke-width="1.5" stroke-dasharray="8,4"/>
<text x="1184" y="79.88" font-size="12" fill="#dc2626" font-family="sans-serif">Goal: 1296</text>
<polyline fill="none" stroke="#2563eb" stroke-width="3" points="90.00,540.55 95.89,538.53 101.78,536.91 107.68,534.49 113.57,534.49 119.46,533.27 125.35,532.46 131.24,532.87 137.14,532.06 143.03,532.46 148.92,532.06 154.81,568.46 160.70,568.46 166.59,566.43 172.49,545.00 178.38,545.00 184.27,544.19 190.16,543.79 196.05,543.79 201.95,543.38 207.84,541.76 213.73,541.36 219.62,540.96 225.51,540.96 231.41,539.34 237.30,539.34 243.19,556.73 249.08,556.73 254.97,555.51 260.86,551.07 266.76,538.93 272.65,538.93 278.54,538.93 284.43,538.12 290.32,536.91 296.22,536.91 302.11,536.51 308.00,536.51 313.89,556.73 319.78,556.73 325.68,556.73 331.57,556.73 337.46,535.29 343.35,535.29 349.24,535.29 355.14,535.29 361.03,534.49 366.92,534.08 372.81,533.68 378.70,532.87 384.59,532.06 390.49,532.06 396.38,531.25 402.27,530.85 408.16,530.44 414.05,530.04 419.95,530.04 425.84,529.23 431.73,529.23 437.62,529.23 443.51,528.42 449.41,528.42 455.30,527.61 461.19,527.21 467.08,526.80 472.97,526.40 478.86,525.18 484.76,523.57 490.65,523.57 496.54,523.16 502.43,522.76 508.32,522.35 514.22,521.54 520.11,519.52 526.00,517.50 531.89,517.50 537.78,517.50 543.68,517.50 549.57,517.50 555.46,517.50 561.35,517.10 567.24,516.69 573.14,515.48 579.03,515.07 584.92,514.67 590.81,513.86 596.70,514.26 602.59,512.24 608.49,511.84 614.38,511.84 620.27,511.03 626.16,509.82 632.05,507.79 637.95,506.99 643.84,506.58 649.73,509.41 655.62,509.01 661.51,504.96 667.41,504.56 673.30,504.15 679.19,504.56 685.08,503.75 690.97,503.75 696.86,503.35 702.76,499.30 708.65,496.47 714.54,490.00 720.43,484.34 726.32,481.10 732.22,480.29 738.11,480.70 744.00,460.88 749.89,459.26 755.78,458.05 761.68,456.03 767.57,456.03 773.46,454.41 779.35,450.77 785.24,444.30 791.14,443.90 797.03,600.00 802.92,441.88 808.81,440.66 814.70,439.45 820.59,439.04 826.49,438.64 832.38,437.83 838.27,436.62 844.16,436.62 850.05,434.60 855.95,432.17 861.84,429.34 867.73,428.93 873.62,428.53 879.51,427.72 885.41,426.91 891.30,426.10 897.19,426.10 903.08,426.10 908.97,419.63 914.86,419.23 920.76,418.42 926.65,418.01 932.54,417.61 938.43,417.61 944.32,417.61 950.22,417.21 956.11,417.21 962.00,413.57 967.89,411.95 973.78,412.76 979.68,410.74 985.57,410.74 991.46,410.33 997.35,410.33 1003.24,410.33 1009.14,409.93 1015.03,409.93 1020.92,409.93 1026.81,409.52 1032.70,409.52 1038.59,409.12 1044.49,409.52 1050.38,409.12 1056.27,407.50 1062.16,407.10 1068.05,403.05 1073.95,399.82 1079.84,400.22 1085.73,400.62 1091.62,400.62 1097.51,399.41 1103.41,392.94 1109.30,391.32 1115.19,389.30 1121.08,389.30 1126.97,388.49 1132.86,375.15 1138.76,374.74 1144.65,374.74 1150.54,374.74 1156.43,374.74 1162.32,374.34 1168.22,374.34 1174.11,374.34 1180.00,374.34"/>
<circle cx="90.00" cy="540.55" r="3.2" fill="#1d4ed8"/>
<circle cx="95.89" cy="538.53" r="3.2" fill="#1d4ed8"/>
<circle cx="101.78" cy="536.91" r="3.2" fill="#1d4ed8"/>
<circle cx="107.68" cy="534.49" r="3.2" fill="#1d4ed8"/>
<circle cx="113.57" cy="534.49" r="3.2" fill="#1d4ed8"/>
<circle cx="119.46" cy="533.27" r="3.2" fill="#1d4ed8"/>
<circle cx="125.35" cy="532.46" r="3.2" fill="#1d4ed8"/>
<circle cx="131.24" cy="532.87" r="3.2" fill="#1d4ed8"/>
<circle cx="137.14" cy="532.06" r="3.2" fill="#1d4ed8"/>
<circle cx="143.03" cy="532.46" r="3.2" fill="#1d4ed8"/>
<circle cx="148.92" cy="532.06" r="3.2" fill="#1d4ed8"/>
<circle cx="154.81" cy="568.46" r="3.2" fill="#1d4ed8"/>
<circle cx="160.70" cy="568.46" r="3.2" fill="#1d4ed8"/>
<circle cx="166.59" cy="566.43" r="3.2" fill="#1d4ed8"/>
<circle cx="172.49" cy="545.00" r="3.2" fill="#1d4ed8"/>
<circle cx="178.38" cy="545.00" r="3.2" fill="#1d4ed8"/>
<circle cx="184.27" cy="544.19" r="3.2" fill="#1d4ed8"/>
<circle cx="190.16" cy="543.79" r="3.2" fill="#1d4ed8"/>
<circle cx="196.05" cy="543.79" r="3.2" fill="#1d4ed8"/>
<circle cx="201.95" cy="543.38" r="3.2" fill="#1d4ed8"/>
<circle cx="207.84" cy="541.76" r="3.2" fill="#1d4ed8"/>
<circle cx="213.73" cy="541.36" r="3.2" fill="#1d4ed8"/>
<circle cx="219.62" cy="540.96" r="3.2" fill="#1d4ed8"/>
<circle cx="225.51" cy="540.96" r="3.2" fill="#1d4ed8"/>
<circle cx="231.41" cy="539.34" r="3.2" fill="#1d4ed8"/>
<circle cx="237.30" cy="539.34" r="3.2" fill="#1d4ed8"/>
<circle cx="243.19" cy="556.73" r="3.2" fill="#1d4ed8"/>
<circle cx="249.08" cy="556.73" r="3.2" fill="#1d4ed8"/>
<circle cx="254.97" cy="555.51" r="3.2" fill="#1d4ed8"/>
<circle cx="260.86" cy="551.07" r="3.2" fill="#1d4ed8"/>
<circle cx="266.76" cy="538.93" r="3.2" fill="#1d4ed8"/>
<circle cx="272.65" cy="538.93" r="3.2" fill="#1d4ed8"/>
<circle cx="278.54" cy="538.93" r="3.2" fill="#1d4ed8"/>
<circle cx="284.43" cy="538.12" r="3.2" fill="#1d4ed8"/>
<circle cx="290.32" cy="536.91" r="3.2" fill="#1d4ed8"/>
<circle cx="296.22" cy="536.91" r="3.2" fill="#1d4ed8"/>
<circle cx="302.11" cy="536.51" r="3.2" fill="#1d4ed8"/>
<circle cx="308.00" cy="536.51" r="3.2" fill="#1d4ed8"/>
<circle cx="313.89" cy="556.73" r="3.2" fill="#1d4ed8"/>
<circle cx="319.78" cy="556.73" r="3.2" fill="#1d4ed8"/>
<circle cx="325.68" cy="556.73" r="3.2" fill="#1d4ed8"/>
<circle cx="331.57" cy="556.73" r="3.2" fill="#1d4ed8"/>
<circle cx="337.46" cy="535.29" r="3.2" fill="#1d4ed8"/>
<circle cx="343.35" cy="535.29" r="3.2" fill="#1d4ed8"/>
<circle cx="349.24" cy="535.29" r="3.2" fill="#1d4ed8"/>
<circle cx="355.14" cy="535.29" r="3.2" fill="#1d4ed8"/>
<circle cx="361.03" cy="534.49" r="3.2" fill="#1d4ed8"/>
<circle cx="366.92" cy="534.08" r="3.2" fill="#1d4ed8"/>
<circle cx="372.81" cy="533.68" r="3.2" fill="#1d4ed8"/>
<circle cx="378.70" cy="532.87" r="3.2" fill="#1d4ed8"/>
<circle cx="384.59" cy="532.06" r="3.2" fill="#1d4ed8"/>
<circle cx="390.49" cy="532.06" r="3.2" fill="#1d4ed8"/>
<circle cx="396.38" cy="531.25" r="3.2" fill="#1d4ed8"/>
<circle cx="402.27" cy="530.85" r="3.2" fill="#1d4ed8"/>
<circle cx="408.16" cy="530.44" r="3.2" fill="#1d4ed8"/>
<circle cx="414.05" cy="530.04" r="3.2" fill="#1d4ed8"/>
<circle cx="419.95" cy="530.04" r="3.2" fill="#1d4ed8"/>
<circle cx="425.84" cy="529.23" r="3.2" fill="#1d4ed8"/>
<circle cx="431.73" cy="529.23" r="3.2" fill="#1d4ed8"/>
<circle cx="437.62" cy="529.23" r="3.2" fill="#1d4ed8"/>
<circle cx="443.51" cy="528.42" r="3.2" fill="#1d4ed8"/>
<circle cx="449.41" cy="528.42" r="3.2" fill="#1d4ed8"/>
<circle cx="455.30" cy="527.61" r="3.2" fill="#1d4ed8"/>
<circle cx="461.19" cy="527.21" r="3.2" fill="#1d4ed8"/>
<circle cx="467.08" cy="526.80" r="3.2" fill="#1d4ed8"/>
<circle cx="472.97" cy="526.40" r="3.2" fill="#1d4ed8"/>
<circle cx="478.86" cy="525.18" r="3.2" fill="#1d4ed8"/>
<circle cx="484.76" cy="523.57" r="3.2" fill="#1d4ed8"/>
<circle cx="490.65" cy="523.57" r="3.2" fill="#1d4ed8"/>
<circle cx="496.54" cy="523.16" r="3.2" fill="#1d4ed8"/>
<circle cx="502.43" cy="522.76" r="3.2" fill="#1d4ed8"/>
<circle cx="508.32" cy="522.35" r="3.2" fill="#1d4ed8"/>
<circle cx="514.22" cy="521.54" r="3.2" fill="#1d4ed8"/>
<circle cx="520.11" cy="519.52" r="3.2" fill="#1d4ed8"/>
<circle cx="526.00" cy="517.50" r="3.2" fill="#1d4ed8"/>
<circle cx="531.89" cy="517.50" r="3.2" fill="#1d4ed8"/>
<circle cx="537.78" cy="517.50" r="3.2" fill="#1d4ed8"/>
<circle cx="543.68" cy="517.50" r="3.2" fill="#1d4ed8"/>
<circle cx="549.57" cy="517.50" r="3.2" fill="#1d4ed8"/>
<circle cx="555.46" cy="517.50" r="3.2" fill="#1d4ed8"/>
<circle cx="561.35" cy="517.10" r="3.2" fill="#1d4ed8"/>
<circle cx="567.24" cy="516.69" r="3.2" fill="#1d4ed8"/>
<circle cx="573.14" cy="515.48" r="3.2" fill="#1d4ed8"/>
<circle cx="579.03" cy="515.07" r="3.2" fill="#1d4ed8"/>
<circle cx="584.92" cy="514.67" r="3.2" fill="#1d4ed8"/>
<circle cx="590.81" cy="513.86" r="3.2" fill="#1d4ed8"/>
<circle cx="596.70" cy="514.26" r="3.2" fill="#1d4ed8"/>
<circle cx="602.59" cy="512.24" r="3.2" fill="#1d4ed8"/>
<circle cx="608.49" cy="511.84" r="3.2" fill="#1d4ed8"/>
<circle cx="614.38" cy="511.84" r="3.2" fill="#1d4ed8"/>
<circle cx="620.27" cy="511.03" r="3.2" fill="#1d4ed8"/>
<circle cx="626.16" cy="509.82" r="3.2" fill="#1d4ed8"/>
<circle cx="632.05" cy="507.79" r="3.2" fill="#1d4ed8"/>
<circle cx="637.95" cy="506.99" r="3.2" fill="#1d4ed8"/>
<circle cx="643.84" cy="506.58" r="3.2" fill="#1d4ed8"/>
<circle cx="649.73" cy="509.41" r="3.2" fill="#1d4ed8"/>
<circle cx="655.62" cy="509.01" r="3.2" fill="#1d4ed8"/>
<circle cx="661.51" cy="504.96" r="3.2" fill="#1d4ed8"/>
<circle cx="667.41" cy="504.56" r="3.2" fill="#1d4ed8"/>
<circle cx="673.30" cy="504.15" r="3.2" fill="#1d4ed8"/>
<circle cx="679.19" cy="504.56" r="3.2" fill="#1d4ed8"/>
<circle cx="685.08" cy="503.75" r="3.2" fill="#1d4ed8"/>
<circle cx="690.97" cy="503.75" r="3.2" fill="#1d4ed8"/>
<circle cx="696.86" cy="503.35" r="3.2" fill="#1d4ed8"/>
<circle cx="702.76" cy="499.30" r="3.2" fill="#1d4ed8"/>
<circle cx="708.65" cy="496.47" r="3.2" fill="#1d4ed8"/>
<circle cx="714.54" cy="490.00" r="3.2" fill="#1d4ed8"/>
<circle cx="720.43" cy="484.34" r="3.2" fill="#1d4ed8"/>
<circle cx="726.32" cy="481.10" r="3.2" fill="#1d4ed8"/>
<circle cx="732.22" cy="480.29" r="3.2" fill="#1d4ed8"/>
<circle cx="738.11" cy="480.70" r="3.2" fill="#1d4ed8"/>
<circle cx="744.00" cy="460.88" r="3.2" fill="#1d4ed8"/>
<circle cx="749.89" cy="459.26" r="3.2" fill="#1d4ed8"/>
<circle cx="755.78" cy="458.05" r="3.2" fill="#1d4ed8"/>
<circle cx="761.68" cy="456.03" r="3.2" fill="#1d4ed8"/>
<circle cx="767.57" cy="456.03" r="3.2" fill="#1d4ed8"/>
<circle cx="773.46" cy="454.41" r="3.2" fill="#1d4ed8"/>
<circle cx="779.35" cy="450.77" r="3.2" fill="#1d4ed8"/>
<circle cx="785.24" cy="444.30" r="3.2" fill="#1d4ed8"/>
<circle cx="791.14" cy="443.90" r="3.2" fill="#1d4ed8"/>
<circle cx="797.03" cy="600.00" r="3.2" fill="#1d4ed8"/>
<circle cx="802.92" cy="441.88" r="3.2" fill="#1d4ed8"/>
<circle cx="808.81" cy="440.66" r="3.2" fill="#1d4ed8"/>
<circle cx="814.70" cy="439.45" r="3.2" fill="#1d4ed8"/>
<circle cx="820.59" cy="439.04" r="3.2" fill="#1d4ed8"/>
<circle cx="826.49" cy="438.64" r="3.2" fill="#1d4ed8"/>
<circle cx="832.38" cy="437.83" r="3.2" fill="#1d4ed8"/>
<circle cx="838.27" cy="436.62" r="3.2" fill="#1d4ed8"/>
<circle cx="844.16" cy="436.62" r="3.2" fill="#1d4ed8"/>
<circle cx="850.05" cy="434.60" r="3.2" fill="#1d4ed8"/>
<circle cx="855.95" cy="432.17" r="3.2" fill="#1d4ed8"/>
<circle cx="861.84" cy="429.34" r="3.2" fill="#1d4ed8"/>
<circle cx="867.73" cy="428.93" r="3.2" fill="#1d4ed8"/>
<circle cx="873.62" cy="428.53" r="3.2" fill="#1d4ed8"/>
<circle cx="879.51" cy="427.72" r="3.2" fill="#1d4ed8"/>
<circle cx="885.41" cy="426.91" r="3.2" fill="#1d4ed8"/>
<circle cx="891.30" cy="426.10" r="3.2" fill="#1d4ed8"/>
<circle cx="897.19" cy="426.10" r="3.2" fill="#1d4ed8"/>
<circle cx="903.08" cy="426.10" r="3.2" fill="#1d4ed8"/>
<circle cx="908.97" cy="419.63" r="3.2" fill="#1d4ed8"/>
<circle cx="914.86" cy="419.23" r="3.2" fill="#1d4ed8"/>
<circle cx="920.76" cy="418.42" r="3.2" fill="#1d4ed8"/>
<circle cx="926.65" cy="418.01" r="3.2" fill="#1d4ed8"/>
<circle cx="932.54" cy="417.61" r="3.2" fill="#1d4ed8"/>
<circle cx="938.43" cy="417.61" r="3.2" fill="#1d4ed8"/>
<circle cx="944.32" cy="417.61" r="3.2" fill="#1d4ed8"/>
<circle cx="950.22" cy="417.21" r="3.2" fill="#1d4ed8"/>
<circle cx="956.11" cy="417.21" r="3.2" fill="#1d4ed8"/>
<circle cx="962.00" cy="413.57" r="3.2" fill="#1d4ed8"/>
<circle cx="967.89" cy="411.95" r="3.2" fill="#1d4ed8"/>
<circle cx="973.78" cy="412.76" r="3.2" fill="#1d4ed8"/>
<circle cx="979.68" cy="410.74" r="3.2" fill="#1d4ed8"/>
<circle cx="985.57" cy="410.74" r="3.2" fill="#1d4ed8"/>
<circle cx="991.46" cy="410.33" r="3.2" fill="#1d4ed8"/>
<circle cx="997.35" cy="410.33" r="3.2" fill="#1d4ed8"/>
<circle cx="1003.24" cy="410.33" r="3.2" fill="#1d4ed8"/>
<circle cx="1009.14" cy="409.93" r="3.2" fill="#1d4ed8"/>
<circle cx="1015.03" cy="409.93" r="3.2" fill="#1d4ed8"/>
<circle cx="1020.92" cy="409.93" r="3.2" fill="#1d4ed8"/>
<circle cx="1026.81" cy="409.52" r="3.2" fill="#1d4ed8"/>
<circle cx="1032.70" cy="409.52" r="3.2" fill="#1d4ed8"/>
<circle cx="1038.59" cy="409.12" r="3.2" fill="#1d4ed8"/>
<circle cx="1044.49" cy="409.52" r="3.2" fill="#1d4ed8"/>
<circle cx="1050.38" cy="409.12" r="3.2" fill="#1d4ed8"/>
<circle cx="1056.27" cy="407.50" r="3.2" fill="#1d4ed8"/>
<circle cx="1062.16" cy="407.10" r="3.2" fill="#1d4ed8"/>
<circle cx="1068.05" cy="403.05" r="3.2" fill="#1d4ed8"/>
<circle cx="1073.95" cy="399.82" r="3.2" fill="#1d4ed8"/>
<circle cx="1079.84" cy="400.22" r="3.2" fill="#1d4ed8"/>
<circle cx="1085.73" cy="400.62" r="3.2" fill="#1d4ed8"/>
<circle cx="1091.62" cy="400.62" r="3.2" fill="#1d4ed8"/>
<circle cx="1097.51" cy="399.41" r="3.2" fill="#1d4ed8"/>
<circle cx="1103.41" cy="392.94" r="3.2" fill="#1d4ed8"/>
<circle cx="1109.30" cy="391.32" r="3.2" fill="#1d4ed8"/>
<circle cx="1115.19" cy="389.30" r="3.2" fill="#1d4ed8"/>
<circle cx="1121.08" cy="389.30" r="3.2" fill="#1d4ed8"/>
<circle cx="1126.97" cy="388.49" r="3.2" fill="#1d4ed8"/>
<circle cx="1132.86" cy="375.15" r="3.2" fill="#1d4ed8"/>
<circle cx="1138.76" cy="374.74" r="3.2" fill="#1d4ed8"/>
<circle cx="1144.65" cy="374.74" r="3.2" fill="#1d4ed8"/>
<circle cx="1150.54" cy="374.74" r="3.2" fill="#1d4ed8"/>
<circle cx="1156.43" cy="374.74" r="3.2" fill="#1d4ed8"/>
<circle cx="1162.32" cy="374.34" r="3.2" fill="#1d4ed8"/>
<circle cx="1168.22" cy="374.34" r="3.2" fill="#1d4ed8"/>
<circle cx="1174.11" cy="374.34" r="3.2" fill="#1d4ed8"/>
<circle cx="1180.00" cy="374.34" r="3.2" fill="#1d4ed8"/>
<text x="635" y="695" text-anchor="middle" font-size="14" fill="#111" font-family="sans-serif">Date</text>
<text x="24" y="325" text-anchor="middle" font-size="14" fill="#111" transform="rotate(-90 24,325)" font-family="sans-serif">Passed files</text>
</svg>
