<?xml version="1.0" encoding="UTF-8"?>
<svg xmlns="http://www.w3.org/2000/svg" width="1280" height="720" viewBox="0 0 1280 720">
<rect width="100%" height="100%" fill="#ffffff"/>
<text x="640" y="30" text-anchor="middle" font-size="22" font-family="sans-serif">Roast passed files history</text>
<line x1="90" y1="600" x2="1180" y2="600" stroke="#333" stroke-width="1.5"/>
<line x1="90" y1="50" x2="90" y2="600" stroke="#333" stroke-width="1.5"/>
<line x1="90" y1="600.00" x2="1180" y2="600.00" stroke="#e5e7eb" stroke-width="1"/>
<text x="78" y="605.00" text-anchor="end" font-size="12" fill="#111" font-family="sans-serif">0</text>
<line x1="90" y1="397.79" x2="1180" y2="397.79" stroke="#e5e7eb" stroke-width="1"/>
<text x="78" y="402.79" text-anchor="end" font-size="12" fill="#111" font-family="sans-serif">500</text>
<line x1="90" y1="195.59" x2="1180" y2="195.59" stroke="#e5e7eb" stroke-width="1"/>
<text x="78" y="200.59" text-anchor="end" font-size="12" fill="#111" font-family="sans-serif">1000</text>
<line x1="90.00" y1="600" x2="90.00" y2="606" stroke="#333" stroke-width="1"/>
<text x="90.00" y="624" text-anchor="end" font-size="11" fill="#111" transform="rotate(-40 90.00,624)" font-family="sans-serif">2026-02-12</text>
<line x1="224.53" y1="600" x2="224.53" y2="606" stroke="#333" stroke-width="1"/>
<text x="224.53" y="624" text-anchor="end" font-size="11" fill="#111" transform="rotate(-40 224.53,624)" font-family="sans-serif">2026-02-17</text>
<line x1="359.07" y1="600" x2="359.07" y2="606" stroke="#333" stroke-width="1"/>
<text x="359.07" y="624" text-anchor="end" font-size="11" fill="#111" transform="rotate(-40 359.07,624)" font-family="sans-serif">2026-02-22</text>
<line x1="493.60" y1="600" x2="493.60" y2="606" stroke="#333" stroke-width="1"/>
<text x="493.60" y="624" text-anchor="end" font-size="11" fill="#111" transform="rotate(-40 493.60,624)" font-family="sans-serif">2026-02-26</text>
<line x1="628.14" y1="600" x2="628.14" y2="606" stroke="#333" stroke-width="1"/>
<text x="628.14" y="624" text-anchor="end" font-size="11" fill="#111" transform="rotate(-40 628.14,624)" font-family="sans-serif">2026-02-28</text>
<line x1="762.67" y1="600" x2="762.67" y2="606" stroke="#333" stroke-width="1"/>
<text x="762.67" y="624" text-anchor="end" font-size="11" fill="#111" transform="rotate(-40 762.67,624)" font-family="sans-serif">2026-03-06</text>
<line x1="897.20" y1="600" x2="897.20" y2="606" stroke="#333" stroke-width="1"/>
<text x="897.20" y="624" text-anchor="end" font-size="11" fill="#111" transform="rotate(-40 897.20,624)" font-family="sans-serif">2026-03-08</text>
<line x1="1031.74" y1="600" x2="1031.74" y2="606" stroke="#333" stroke-width="1"/>
<text x="1031.74" y="624" text-anchor="end" font-size="11" fill="#111" transform="rotate(-40 1031.74,624)" font-family="sans-serif">2026-03-17</text>
<line x1="1166.27" y1="600" x2="1166.27" y2="606" stroke="#333" stroke-width="1"/>
<text x="1166.27" y="624" text-anchor="end" font-size="11" fill="#111" transform="rotate(-40 1166.27,624)" font-family="sans-serif">2026-03-19</text>
<line x1="1180.00" y1="600" x2="1180.00" y2="606" stroke="#333" stroke-width="1"/>
<text x="1180.00" y="624" text-anchor="end" font-size="11" fill="#111" transform="rotate(-40 1180.00,624)" font-family="sans-serif">2026-03-19</text>
<line x1="90" y1="75.88" x2="1180" y2="75.88" stroke="#dc2626" stroke-width="1.5" stroke-dasharray="8,4"/>
<text x="1184" y="79.88" font-size="12" fill="#dc2626" font-family="sans-serif">Goal: 1296</text>
<polyline fill="none" stroke="#2563eb" stroke-width="3" points="90.00,540.55 92.75,538.53 95.49,536.91 98.24,534.49 100.98,534.49 103.73,533.27 106.47,532.46 109.22,532.87 111.96,532.06 114.71,532.46 117.46,532.06 120.20,568.46 122.95,568.46 125.69,566.43 128.44,545.00 131.18,545.00 133.93,544.19 136.68,543.79 139.42,543.79 142.17,543.38 144.91,541.76 147.66,541.36 150.40,540.96 153.15,540.96 155.89,539.34 158.64,539.34 161.39,556.73 164.13,556.73 166.88,555.51 169.62,551.07 172.37,538.93 175.11,538.93 177.86,538.93 180.60,538.12 183.35,536.91 186.10,536.91 188.84,536.51 191.59,536.51 194.33,556.73 197.08,556.73 199.82,556.73 202.57,556.73 205.31,535.29 208.06,535.29 210.81,535.29 213.55,535.29 216.30,534.49 219.04,534.08 221.79,533.68 224.53,532.87 227.28,532.06 230.03,532.06 232.77,531.25 235.52,530.85 238.26,530.44 241.01,530.04 243.75,530.04 246.50,529.23 249.24,529.23 251.99,529.23 254.74,528.42 257.48,528.42 260.23,527.61 262.97,527.21 265.72,526.80 268.46,526.40 271.21,525.18 273.95,523.57 276.70,523.57 279.45,523.16 282.19,522.76 284.94,522.35 287.68,521.54 290.43,519.52 293.17,517.50 295.92,517.50 298.66,517.50 301.41,517.50 304.16,517.50 306.90,517.50 309.65,517.10 312.39,516.69 315.14,515.48 317.88,515.07 320.63,514.67 323.38,513.86 326.12,514.26 328.87,512.24 331.61,511.84 334.36,511.84 337.10,511.03 339.85,509.82 342.59,507.79 345.34,506.99 348.09,506.58 350.83,509.41 353.58,509.01 356.32,504.96 359.07,504.56 361.81,504.15 364.56,504.56 367.30,503.75 370.05,503.75 372.80,503.35 375.54,499.30 378.29,496.47 381.03,490.00 383.78,484.34 386.52,481.10 389.27,480.29 392.02,480.70 394.76,460.88 397.51,459.26 400.25,458.05 403.00,456.03 405.74,456.03 408.49,454.41 411.23,450.77 413.98,444.30 416.73,443.90 419.47,600.00 422.22,441.88 424.96,440.66 427.71,439.45 430.45,439.04 433.20,438.64 435.94,437.83 438.69,436.62 441.44,436.62 444.18,434.60 446.93,432.17 449.67,429.34 452.42,428.93 455.16,428.53 457.91,427.72 460.65,426.91 463.40,426.10 466.15,426.10 468.89,426.10 471.64,419.63 474.38,419.23 477.13,418.42 479.87,418.01 482.62,417.61 485.37,417.61 488.11,417.61 490.86,417.21 493.60,417.21 496.35,413.57 499.09,411.95 501.84,412.76 504.58,410.74 507.33,410.74 510.08,410.33 512.82,410.33 515.57,410.33 518.31,409.93 521.06,409.93 523.80,409.93 526.55,409.52 529.29,409.52 532.04,409.12 534.79,409.52 537.53,409.12 540.28,407.50 543.02,407.10 545.77,403.05 548.51,399.82 551.26,400.22 554.01,400.62 556.75,400.62 559.50,399.41 562.24,392.94 564.99,391.32 567.73,389.30 570.48,389.30 573.22,388.49 575.97,375.15 578.72,374.74 581.46,374.74 584.21,374.74 586.95,374.74 589.70,374.34 592.44,374.34 595.19,374.34 597.93,374.34 600.68,374.34 603.43,373.93 606.17,373.12 608.92,372.72 611.66,373.53 614.41,435.81 617.15,372.32 619.90,372.72 622.64,371.91 625.39,371.91 628.14,372.32 630.88,371.10 633.63,369.89 636.37,369.89 639.12,369.89 641.86,369.49 644.61,369.89 647.36,369.08 650.10,368.68 652.85,368.27 655.59,367.87 658.34,367.06 661.08,367.46 663.83,367.06 666.57,366.25 669.32,368.27 672.07,368.68 674.81,368.68 677.56,368.27 680.30,369.08 683.05,367.87 685.79,367.46 688.54,367.06 691.28,360.18 694.03,359.78 696.78,359.38 699.52,356.95 702.27,357.35 705.01,357.76 707.76,355.33 710.50,355.74 713.25,357.35 715.99,355.33 718.74,356.14 721.49,355.74 724.23,356.14 726.98,354.12 729.72,354.93 732.47,356.14 735.21,354.52 737.96,353.71 740.71,354.12 743.45,354.93 746.20,352.90 748.94,353.71 751.69,353.31 754.43,353.31 757.18,354.52 759.92,352.90 762.67,352.50 765.42,352.50 768.16,353.31 770.91,352.50 773.65,353.71 776.40,354.12 779.14,352.50 781.89,352.90 784.63,352.50 787.38,352.10 790.13,351.69 792.87,352.10 795.62,354.12 798.36,352.50 801.11,352.10 803.85,352.10 806.60,349.67 809.35,349.67 812.09,350.88 814.84,351.29 817.58,350.48 820.33,352.10 823.07,350.48 825.82,350.48 828.56,350.48 831.31,350.07 834.06,348.46 836.80,351.29 839.55,349.67 842.29,351.29 845.04,349.67 847.78,348.86 850.53,348.46 853.27,348.46 856.02,347.24 858.77,348.86 861.51,346.84 864.26,348.46 867.00,348.86 869.75,346.84 872.49,349.26 875.24,348.05 877.98,349.26 880.73,349.26 883.48,350.48 886.22,352.90 888.97,349.67 891.71,348.46 894.46,345.62 897.20,344.82 899.95,344.41 902.70,342.39 905.44,341.18 908.19,341.58 910.93,339.15 913.68,338.35 916.42,337.54 919.17,336.73 921.91,335.92 924.66,337.54 927.41,338.35 930.15,337.54 932.90,337.54 935.64,337.54 938.39,333.09 941.13,333.90 943.88,335.92 946.62,336.73 949.37,335.51 952.12,332.28 954.86,331.47 957.61,331.07 960.35,331.47 963.10,331.07 965.84,331.07 968.59,331.07 971.34,331.07 974.08,331.07 976.83,331.07 979.57,331.07 982.32,331.07 985.06,331.07 987.81,331.07 990.55,331.47 993.30,331.88 996.05,331.07 998.79,331.47 1001.54,331.07 1004.28,331.47 1007.03,331.07 1009.77,324.19 1012.52,324.19 1015.26,318.93 1018.01,316.51 1020.76,310.44 1023.50,308.01 1026.25,600.00 1028.99,301.54 1031.74,290.22 1034.48,287.79 1037.23,286.18 1039.97,285.77 1042.72,285.77 1045.47,285.77 1048.21,286.18 1050.96,285.77 1053.70,285.77 1056.45,285.77 1059.19,283.35 1061.94,282.94 1064.69,282.94 1067.43,283.35 1070.18,282.94 1072.92,282.94 1075.67,283.75 1078.41,282.13 1081.16,282.13 1083.90,282.54 1086.65,282.13 1089.40,282.54 1092.14,282.94 1094.89,281.73 1097.63,282.54 1100.38,281.73 1103.12,282.54 1105.87,282.13 1108.61,282.13 1111.36,281.73 1114.11,281.73 1116.85,281.32 1119.60,281.73 1122.34,282.13 1125.09,281.32 1127.83,281.32 1130.58,282.54 1133.32,282.13 1136.07,281.32 1138.82,281.32 1141.56,281.32 1144.31,282.54 1147.05,282.13 1149.80,281.32 1152.54,282.13 1155.29,281.73 1158.04,282.13 1160.78,280.11 1163.53,280.11 1166.27,280.51 1169.02,279.71 1171.76,280.11 1174.51,280.51 1177.25,279.71 1180.00,280.11"/>
<circle cx="90.00" cy="540.55" r="3.2" fill="#1d4ed8"/>
<circle cx="92.75" cy="538.53" r="3.2" fill="#1d4ed8"/>
<circle cx="95.49" cy="536.91" r="3.2" fill="#1d4ed8"/>
<circle cx="98.24" cy="534.49" r="3.2" fill="#1d4ed8"/>
<circle cx="100.98" cy="534.49" r="3.2" fill="#1d4ed8"/>
<circle cx="103.73" cy="533.27" r="3.2" fill="#1d4ed8"/>
<circle cx="106.47" cy="532.46" r="3.2" fill="#1d4ed8"/>
<circle cx="109.22" cy="532.87" r="3.2" fill="#1d4ed8"/>
<circle cx="111.96" cy="532.06" r="3.2" fill="#1d4ed8"/>
<circle cx="114.71" cy="532.46" r="3.2" fill="#1d4ed8"/>
<circle cx="117.46" cy="532.06" r="3.2" fill="#1d4ed8"/>
<circle cx="120.20" cy="568.46" r="3.2" fill="#1d4ed8"/>
<circle cx="122.95" cy="568.46" r="3.2" fill="#1d4ed8"/>
<circle cx="125.69" cy="566.43" r="3.2" fill="#1d4ed8"/>
<circle cx="128.44" cy="545.00" r="3.2" fill="#1d4ed8"/>
<circle cx="131.18" cy="545.00" r="3.2" fill="#1d4ed8"/>
<circle cx="133.93" cy="544.19" r="3.2" fill="#1d4ed8"/>
<circle cx="136.68" cy="543.79" r="3.2" fill="#1d4ed8"/>
<circle cx="139.42" cy="543.79" r="3.2" fill="#1d4ed8"/>
<circle cx="142.17" cy="543.38" r="3.2" fill="#1d4ed8"/>
<circle cx="144.91" cy="541.76" r="3.2" fill="#1d4ed8"/>
<circle cx="147.66" cy="541.36" r="3.2" fill="#1d4ed8"/>
<circle cx="150.40" cy="540.96" r="3.2" fill="#1d4ed8"/>
<circle cx="153.15" cy="540.96" r="3.2" fill="#1d4ed8"/>
<circle cx="155.89" cy="539.34" r="3.2" fill="#1d4ed8"/>
<circle cx="158.64" cy="539.34" r="3.2" fill="#1d4ed8"/>
<circle cx="161.39" cy="556.73" r="3.2" fill="#1d4ed8"/>
<circle cx="164.13" cy="556.73" r="3.2" fill="#1d4ed8"/>
<circle cx="166.88" cy="555.51" r="3.2" fill="#1d4ed8"/>
<circle cx="169.62" cy="551.07" r="3.2" fill="#1d4ed8"/>
<circle cx="172.37" cy="538.93" r="3.2" fill="#1d4ed8"/>
<circle cx="175.11" cy="538.93" r="3.2" fill="#1d4ed8"/>
<circle cx="177.86" cy="538.93" r="3.2" fill="#1d4ed8"/>
<circle cx="180.60" cy="538.12" r="3.2" fill="#1d4ed8"/>
<circle cx="183.35" cy="536.91" r="3.2" fill="#1d4ed8"/>
<circle cx="186.10" cy="536.91" r="3.2" fill="#1d4ed8"/>
<circle cx="188.84" cy="536.51" r="3.2" fill="#1d4ed8"/>
<circle cx="191.59" cy="536.51" r="3.2" fill="#1d4ed8"/>
<circle cx="194.33" cy="556.73" r="3.2" fill="#1d4ed8"/>
<circle cx="197.08" cy="556.73" r="3.2" fill="#1d4ed8"/>
<circle cx="199.82" cy="556.73" r="3.2" fill="#1d4ed8"/>
<circle cx="202.57" cy="556.73" r="3.2" fill="#1d4ed8"/>
<circle cx="205.31" cy="535.29" r="3.2" fill="#1d4ed8"/>
<circle cx="208.06" cy="535.29" r="3.2" fill="#1d4ed8"/>
<circle cx="210.81" cy="535.29" r="3.2" fill="#1d4ed8"/>
<circle cx="213.55" cy="535.29" r="3.2" fill="#1d4ed8"/>
<circle cx="216.30" cy="534.49" r="3.2" fill="#1d4ed8"/>
<circle cx="219.04" cy="534.08" r="3.2" fill="#1d4ed8"/>
<circle cx="221.79" cy="533.68" r="3.2" fill="#1d4ed8"/>
<circle cx="224.53" cy="532.87" r="3.2" fill="#1d4ed8"/>
<circle cx="227.28" cy="532.06" r="3.2" fill="#1d4ed8"/>
<circle cx="230.03" cy="532.06" r="3.2" fill="#1d4ed8"/>
<circle cx="232.77" cy="531.25" r="3.2" fill="#1d4ed8"/>
<circle cx="235.52" cy="530.85" r="3.2" fill="#1d4ed8"/>
<circle cx="238.26" cy="530.44" r="3.2" fill="#1d4ed8"/>
<circle cx="241.01" cy="530.04" r="3.2" fill="#1d4ed8"/>
<circle cx="243.75" cy="530.04" r="3.2" fill="#1d4ed8"/>
<circle cx="246.50" cy="529.23" r="3.2" fill="#1d4ed8"/>
<circle cx="249.24" cy="529.23" r="3.2" fill="#1d4ed8"/>
<circle cx="251.99" cy="529.23" r="3.2" fill="#1d4ed8"/>
<circle cx="254.74" cy="528.42" r="3.2" fill="#1d4ed8"/>
<circle cx="257.48" cy="528.42" r="3.2" fill="#1d4ed8"/>
<circle cx="260.23" cy="527.61" r="3.2" fill="#1d4ed8"/>
<circle cx="262.97" cy="527.21" r="3.2" fill="#1d4ed8"/>
<circle cx="265.72" cy="526.80" r="3.2" fill="#1d4ed8"/>
<circle cx="268.46" cy="526.40" r="3.2" fill="#1d4ed8"/>
<circle cx="271.21" cy="525.18" r="3.2" fill="#1d4ed8"/>
<circle cx="273.95" cy="523.57" r="3.2" fill="#1d4ed8"/>
<circle cx="276.70" cy="523.57" r="3.2" fill="#1d4ed8"/>
<circle cx="279.45" cy="523.16" r="3.2" fill="#1d4ed8"/>
<circle cx="282.19" cy="522.76" r="3.2" fill="#1d4ed8"/>
<circle cx="284.94" cy="522.35" r="3.2" fill="#1d4ed8"/>
<circle cx="287.68" cy="521.54" r="3.2" fill="#1d4ed8"/>
<circle cx="290.43" cy="519.52" r="3.2" fill="#1d4ed8"/>
<circle cx="293.17" cy="517.50" r="3.2" fill="#1d4ed8"/>
<circle cx="295.92" cy="517.50" r="3.2" fill="#1d4ed8"/>
<circle cx="298.66" cy="517.50" r="3.2" fill="#1d4ed8"/>
<circle cx="301.41" cy="517.50" r="3.2" fill="#1d4ed8"/>
<circle cx="304.16" cy="517.50" r="3.2" fill="#1d4ed8"/>
<circle cx="306.90" cy="517.50" r="3.2" fill="#1d4ed8"/>
<circle cx="309.65" cy="517.10" r="3.2" fill="#1d4ed8"/>
<circle cx="312.39" cy="516.69" r="3.2" fill="#1d4ed8"/>
<circle cx="315.14" cy="515.48" r="3.2" fill="#1d4ed8"/>
<circle cx="317.88" cy="515.07" r="3.2" fill="#1d4ed8"/>
<circle cx="320.63" cy="514.67" r="3.2" fill="#1d4ed8"/>
<circle cx="323.38" cy="513.86" r="3.2" fill="#1d4ed8"/>
<circle cx="326.12" cy="514.26" r="3.2" fill="#1d4ed8"/>
<circle cx="328.87" cy="512.24" r="3.2" fill="#1d4ed8"/>
<circle cx="331.61" cy="511.84" r="3.2" fill="#1d4ed8"/>
<circle cx="334.36" cy="511.84" r="3.2" fill="#1d4ed8"/>
<circle cx="337.10" cy="511.03" r="3.2" fill="#1d4ed8"/>
<circle cx="339.85" cy="509.82" r="3.2" fill="#1d4ed8"/>
<circle cx="342.59" cy="507.79" r="3.2" fill="#1d4ed8"/>
<circle cx="345.34" cy="506.99" r="3.2" fill="#1d4ed8"/>
<circle cx="348.09" cy="506.58" r="3.2" fill="#1d4ed8"/>
<circle cx="350.83" cy="509.41" r="3.2" fill="#1d4ed8"/>
<circle cx="353.58" cy="509.01" r="3.2" fill="#1d4ed8"/>
<circle cx="356.32" cy="504.96" r="3.2" fill="#1d4ed8"/>
<circle cx="359.07" cy="504.56" r="3.2" fill="#1d4ed8"/>
<circle cx="361.81" cy="504.15" r="3.2" fill="#1d4ed8"/>
<circle cx="364.56" cy="504.56" r="3.2" fill="#1d4ed8"/>
<circle cx="367.30" cy="503.75" r="3.2" fill="#1d4ed8"/>
<circle cx="370.05" cy="503.75" r="3.2" fill="#1d4ed8"/>
<circle cx="372.80" cy="503.35" r="3.2" fill="#1d4ed8"/>
<circle cx="375.54" cy="499.30" r="3.2" fill="#1d4ed8"/>
<circle cx="378.29" cy="496.47" r="3.2" fill="#1d4ed8"/>
<circle cx="381.03" cy="490.00" r="3.2" fill="#1d4ed8"/>
<circle cx="383.78" cy="484.34" r="3.2" fill="#1d4ed8"/>
<circle cx="386.52" cy="481.10" r="3.2" fill="#1d4ed8"/>
<circle cx="389.27" cy="480.29" r="3.2" fill="#1d4ed8"/>
<circle cx="392.02" cy="480.70" r="3.2" fill="#1d4ed8"/>
<circle cx="394.76" cy="460.88" r="3.2" fill="#1d4ed8"/>
<circle cx="397.51" cy="459.26" r="3.2" fill="#1d4ed8"/>
<circle cx="400.25" cy="458.05" r="3.2" fill="#1d4ed8"/>
<circle cx="403.00" cy="456.03" r="3.2" fill="#1d4ed8"/>
<circle cx="405.74" cy="456.03" r="3.2" fill="#1d4ed8"/>
<circle cx="408.49" cy="454.41" r="3.2" fill="#1d4ed8"/>
<circle cx="411.23" cy="450.77" r="3.2" fill="#1d4ed8"/>
<circle cx="413.98" cy="444.30" r="3.2" fill="#1d4ed8"/>
<circle cx="416.73" cy="443.90" r="3.2" fill="#1d4ed8"/>
<circle cx="419.47" cy="600.00" r="3.2" fill="#1d4ed8"/>
<circle cx="422.22" cy="441.88" r="3.2" fill="#1d4ed8"/>
<circle cx="424.96" cy="440.66" r="3.2" fill="#1d4ed8"/>
<circle cx="427.71" cy="439.45" r="3.2" fill="#1d4ed8"/>
<circle cx="430.45" cy="439.04" r="3.2" fill="#1d4ed8"/>
<circle cx="433.20" cy="438.64" r="3.2" fill="#1d4ed8"/>
<circle cx="435.94" cy="437.83" r="3.2" fill="#1d4ed8"/>
<circle cx="438.69" cy="436.62" r="3.2" fill="#1d4ed8"/>
<circle cx="441.44" cy="436.62" r="3.2" fill="#1d4ed8"/>
<circle cx="444.18" cy="434.60" r="3.2" fill="#1d4ed8"/>
<circle cx="446.93" cy="432.17" r="3.2" fill="#1d4ed8"/>
<circle cx="449.67" cy="429.34" r="3.2" fill="#1d4ed8"/>
<circle cx="452.42" cy="428.93" r="3.2" fill="#1d4ed8"/>
<circle cx="455.16" cy="428.53" r="3.2" fill="#1d4ed8"/>
<circle cx="457.91" cy="427.72" r="3.2" fill="#1d4ed8"/>
<circle cx="460.65" cy="426.91" r="3.2" fill="#1d4ed8"/>
<circle cx="463.40" cy="426.10" r="3.2" fill="#1d4ed8"/>
<circle cx="466.15" cy="426.10" r="3.2" fill="#1d4ed8"/>
<circle cx="468.89" cy="426.10" r="3.2" fill="#1d4ed8"/>
<circle cx="471.64" cy="419.63" r="3.2" fill="#1d4ed8"/>
<circle cx="474.38" cy="419.23" r="3.2" fill="#1d4ed8"/>
<circle cx="477.13" cy="418.42" r="3.2" fill="#1d4ed8"/>
<circle cx="479.87" cy="418.01" r="3.2" fill="#1d4ed8"/>
<circle cx="482.62" cy="417.61" r="3.2" fill="#1d4ed8"/>
<circle cx="485.37" cy="417.61" r="3.2" fill="#1d4ed8"/>
<circle cx="488.11" cy="417.61" r="3.2" fill="#1d4ed8"/>
<circle cx="490.86" cy="417.21" r="3.2" fill="#1d4ed8"/>
<circle cx="493.60" cy="417.21" r="3.2" fill="#1d4ed8"/>
<circle cx="496.35" cy="413.57" r="3.2" fill="#1d4ed8"/>
<circle cx="499.09" cy="411.95" r="3.2" fill="#1d4ed8"/>
<circle cx="501.84" cy="412.76" r="3.2" fill="#1d4ed8"/>
<circle cx="504.58" cy="410.74" r="3.2" fill="#1d4ed8"/>
<circle cx="507.33" cy="410.74" r="3.2" fill="#1d4ed8"/>
<circle cx="510.08" cy="410.33" r="3.2" fill="#1d4ed8"/>
<circle cx="512.82" cy="410.33" r="3.2" fill="#1d4ed8"/>
<circle cx="515.57" cy="410.33" r="3.2" fill="#1d4ed8"/>
<circle cx="518.31" cy="409.93" r="3.2" fill="#1d4ed8"/>
<circle cx="521.06" cy="409.93" r="3.2" fill="#1d4ed8"/>
<circle cx="523.80" cy="409.93" r="3.2" fill="#1d4ed8"/>
<circle cx="526.55" cy="409.52" r="3.2" fill="#1d4ed8"/>
<circle cx="529.29" cy="409.52" r="3.2" fill="#1d4ed8"/>
<circle cx="532.04" cy="409.12" r="3.2" fill="#1d4ed8"/>
<circle cx="534.79" cy="409.52" r="3.2" fill="#1d4ed8"/>
<circle cx="537.53" cy="409.12" r="3.2" fill="#1d4ed8"/>
<circle cx="540.28" cy="407.50" r="3.2" fill="#1d4ed8"/>
<circle cx="543.02" cy="407.10" r="3.2" fill="#1d4ed8"/>
<circle cx="545.77" cy="403.05" r="3.2" fill="#1d4ed8"/>
<circle cx="548.51" cy="399.82" r="3.2" fill="#1d4ed8"/>
<circle cx="551.26" cy="400.22" r="3.2" fill="#1d4ed8"/>
<circle cx="554.01" cy="400.62" r="3.2" fill="#1d4ed8"/>
<circle cx="556.75" cy="400.62" r="3.2" fill="#1d4ed8"/>
<circle cx="559.50" cy="399.41" r="3.2" fill="#1d4ed8"/>
<circle cx="562.24" cy="392.94" r="3.2" fill="#1d4ed8"/>
<circle cx="564.99" cy="391.32" r="3.2" fill="#1d4ed8"/>
<circle cx="567.73" cy="389.30" r="3.2" fill="#1d4ed8"/>
<circle cx="570.48" cy="389.30" r="3.2" fill="#1d4ed8"/>
<circle cx="573.22" cy="388.49" r="3.2" fill="#1d4ed8"/>
<circle cx="575.97" cy="375.15" r="3.2" fill="#1d4ed8"/>
<circle cx="578.72" cy="374.74" r="3.2" fill="#1d4ed8"/>
<circle cx="581.46" cy="374.74" r="3.2" fill="#1d4ed8"/>
<circle cx="584.21" cy="374.74" r="3.2" fill="#1d4ed8"/>
<circle cx="586.95" cy="374.74" r="3.2" fill="#1d4ed8"/>
<circle cx="589.70" cy="374.34" r="3.2" fill="#1d4ed8"/>
<circle cx="592.44" cy="374.34" r="3.2" fill="#1d4ed8"/>
<circle cx="595.19" cy="374.34" r="3.2" fill="#1d4ed8"/>
<circle cx="597.93" cy="374.34" r="3.2" fill="#1d4ed8"/>
<circle cx="600.68" cy="374.34" r="3.2" fill="#1d4ed8"/>
<circle cx="603.43" cy="373.93" r="3.2" fill="#1d4ed8"/>
<circle cx="606.17" cy="373.12" r="3.2" fill="#1d4ed8"/>
<circle cx="608.92" cy="372.72" r="3.2" fill="#1d4ed8"/>
<circle cx="611.66" cy="373.53" r="3.2" fill="#1d4ed8"/>
<circle cx="614.41" cy="435.81" r="3.2" fill="#1d4ed8"/>
<circle cx="617.15" cy="372.32" r="3.2" fill="#1d4ed8"/>
<circle cx="619.90" cy="372.72" r="3.2" fill="#1d4ed8"/>
<circle cx="622.64" cy="371.91" r="3.2" fill="#1d4ed8"/>
<circle cx="625.39" cy="371.91" r="3.2" fill="#1d4ed8"/>
<circle cx="628.14" cy="372.32" r="3.2" fill="#1d4ed8"/>
<circle cx="630.88" cy="371.10" r="3.2" fill="#1d4ed8"/>
<circle cx="633.63" cy="369.89" r="3.2" fill="#1d4ed8"/>
<circle cx="636.37" cy="369.89" r="3.2" fill="#1d4ed8"/>
<circle cx="639.12" cy="369.89" r="3.2" fill="#1d4ed8"/>
<circle cx="641.86" cy="369.49" r="3.2" fill="#1d4ed8"/>
<circle cx="644.61" cy="369.89" r="3.2" fill="#1d4ed8"/>
<circle cx="647.36" cy="369.08" r="3.2" fill="#1d4ed8"/>
<circle cx="650.10" cy="368.68" r="3.2" fill="#1d4ed8"/>
<circle cx="652.85" cy="368.27" r="3.2" fill="#1d4ed8"/>
<circle cx="655.59" cy="367.87" r="3.2" fill="#1d4ed8"/>
<circle cx="658.34" cy="367.06" r="3.2" fill="#1d4ed8"/>
<circle cx="661.08" cy="367.46" r="3.2" fill="#1d4ed8"/>
<circle cx="663.83" cy="367.06" r="3.2" fill="#1d4ed8"/>
<circle cx="666.57" cy="366.25" r="3.2" fill="#1d4ed8"/>
<circle cx="669.32" cy="368.27" r="3.2" fill="#1d4ed8"/>
<circle cx="672.07" cy="368.68" r="3.2" fill="#1d4ed8"/>
<circle cx="674.81" cy="368.68" r="3.2" fill="#1d4ed8"/>
<circle cx="677.56" cy="368.27" r="3.2" fill="#1d4ed8"/>
<circle cx="680.30" cy="369.08" r="3.2" fill="#1d4ed8"/>
<circle cx="683.05" cy="367.87" r="3.2" fill="#1d4ed8"/>
<circle cx="685.79" cy="367.46" r="3.2" fill="#1d4ed8"/>
<circle cx="688.54" cy="367.06" r="3.2" fill="#1d4ed8"/>
<circle cx="691.28" cy="360.18" r="3.2" fill="#1d4ed8"/>
<circle cx="694.03" cy="359.78" r="3.2" fill="#1d4ed8"/>
<circle cx="696.78" cy="359.38" r="3.2" fill="#1d4ed8"/>
<circle cx="699.52" cy="356.95" r="3.2" fill="#1d4ed8"/>
<circle cx="702.27" cy="357.35" r="3.2" fill="#1d4ed8"/>
<circle cx="705.01" cy="357.76" r="3.2" fill="#1d4ed8"/>
<circle cx="707.76" cy="355.33" r="3.2" fill="#1d4ed8"/>
<circle cx="710.50" cy="355.74" r="3.2" fill="#1d4ed8"/>
<circle cx="713.25" cy="357.35" r="3.2" fill="#1d4ed8"/>
<circle cx="715.99" cy="355.33" r="3.2" fill="#1d4ed8"/>
<circle cx="718.74" cy="356.14" r="3.2" fill="#1d4ed8"/>
<circle cx="721.49" cy="355.74" r="3.2" fill="#1d4ed8"/>
<circle cx="724.23" cy="356.14" r="3.2" fill="#1d4ed8"/>
<circle cx="726.98" cy="354.12" r="3.2" fill="#1d4ed8"/>
<circle cx="729.72" cy="354.93" r="3.2" fill="#1d4ed8"/>
<circle cx="732.47" cy="356.14" r="3.2" fill="#1d4ed8"/>
<circle cx="735.21" cy="354.52" r="3.2" fill="#1d4ed8"/>
<circle cx="737.96" cy="353.71" r="3.2" fill="#1d4ed8"/>
<circle cx="740.71" cy="354.12" r="3.2" fill="#1d4ed8"/>
<circle cx="743.45" cy="354.93" r="3.2" fill="#1d4ed8"/>
<circle cx="746.20" cy="352.90" r="3.2" fill="#1d4ed8"/>
<circle cx="748.94" cy="353.71" r="3.2" fill="#1d4ed8"/>
<circle cx="751.69" cy="353.31" r="3.2" fill="#1d4ed8"/>
<circle cx="754.43" cy="353.31" r="3.2" fill="#1d4ed8"/>
<circle cx="757.18" cy="354.52" r="3.2" fill="#1d4ed8"/>
<circle cx="759.92" cy="352.90" r="3.2" fill="#1d4ed8"/>
<circle cx="762.67" cy="352.50" r="3.2" fill="#1d4ed8"/>
<circle cx="765.42" cy="352.50" r="3.2" fill="#1d4ed8"/>
<circle cx="768.16" cy="353.31" r="3.2" fill="#1d4ed8"/>
<circle cx="770.91" cy="352.50" r="3.2" fill="#1d4ed8"/>
<circle cx="773.65" cy="353.71" r="3.2" fill="#1d4ed8"/>
<circle cx="776.40" cy="354.12" r="3.2" fill="#1d4ed8"/>
<circle cx="779.14" cy="352.50" r="3.2" fill="#1d4ed8"/>
<circle cx="781.89" cy="352.90" r="3.2" fill="#1d4ed8"/>
<circle cx="784.63" cy="352.50" r="3.2" fill="#1d4ed8"/>
<circle cx="787.38" cy="352.10" r="3.2" fill="#1d4ed8"/>
<circle cx="790.13" cy="351.69" r="3.2" fill="#1d4ed8"/>
<circle cx="792.87" cy="352.10" r="3.2" fill="#1d4ed8"/>
<circle cx="795.62" cy="354.12" r="3.2" fill="#1d4ed8"/>
<circle cx="798.36" cy="352.50" r="3.2" fill="#1d4ed8"/>
<circle cx="801.11" cy="352.10" r="3.2" fill="#1d4ed8"/>
<circle cx="803.85" cy="352.10" r="3.2" fill="#1d4ed8"/>
<circle cx="806.60" cy="349.67" r="3.2" fill="#1d4ed8"/>
<circle cx="809.35" cy="349.67" r="3.2" fill="#1d4ed8"/>
<circle cx="812.09" cy="350.88" r="3.2" fill="#1d4ed8"/>
<circle cx="814.84" cy="351.29" r="3.2" fill="#1d4ed8"/>
<circle cx="817.58" cy="350.48" r="3.2" fill="#1d4ed8"/>
<circle cx="820.33" cy="352.10" r="3.2" fill="#1d4ed8"/>
<circle cx="823.07" cy="350.48" r="3.2" fill="#1d4ed8"/>
<circle cx="825.82" cy="350.48" r="3.2" fill="#1d4ed8"/>
<circle cx="828.56" cy="350.48" r="3.2" fill="#1d4ed8"/>
<circle cx="831.31" cy="350.07" r="3.2" fill="#1d4ed8"/>
<circle cx="834.06" cy="348.46" r="3.2" fill="#1d4ed8"/>
<circle cx="836.80" cy="351.29" r="3.2" fill="#1d4ed8"/>
<circle cx="839.55" cy="349.67" r="3.2" fill="#1d4ed8"/>
<circle cx="842.29" cy="351.29" r="3.2" fill="#1d4ed8"/>
<circle cx="845.04" cy="349.67" r="3.2" fill="#1d4ed8"/>
<circle cx="847.78" cy="348.86" r="3.2" fill="#1d4ed8"/>
<circle cx="850.53" cy="348.46" r="3.2" fill="#1d4ed8"/>
<circle cx="853.27" cy="348.46" r="3.2" fill="#1d4ed8"/>
<circle cx="856.02" cy="347.24" r="3.2" fill="#1d4ed8"/>
<circle cx="858.77" cy="348.86" r="3.2" fill="#1d4ed8"/>
<circle cx="861.51" cy="346.84" r="3.2" fill="#1d4ed8"/>
<circle cx="864.26" cy="348.46" r="3.2" fill="#1d4ed8"/>
<circle cx="867.00" cy="348.86" r="3.2" fill="#1d4ed8"/>
<circle cx="869.75" cy="346.84" r="3.2" fill="#1d4ed8"/>
<circle cx="872.49" cy="349.26" r="3.2" fill="#1d4ed8"/>
<circle cx="875.24" cy="348.05" r="3.2" fill="#1d4ed8"/>
<circle cx="877.98" cy="349.26" r="3.2" fill="#1d4ed8"/>
<circle cx="880.73" cy="349.26" r="3.2" fill="#1d4ed8"/>
<circle cx="883.48" cy="350.48" r="3.2" fill="#1d4ed8"/>
<circle cx="886.22" cy="352.90" r="3.2" fill="#1d4ed8"/>
<circle cx="888.97" cy="349.67" r="3.2" fill="#1d4ed8"/>
<circle cx="891.71" cy="348.46" r="3.2" fill="#1d4ed8"/>
<circle cx="894.46" cy="345.62" r="3.2" fill="#1d4ed8"/>
<circle cx="897.20" cy="344.82" r="3.2" fill="#1d4ed8"/>
<circle cx="899.95" cy="344.41" r="3.2" fill="#1d4ed8"/>
<circle cx="902.70" cy="342.39" r="3.2" fill="#1d4ed8"/>
<circle cx="905.44" cy="341.18" r="3.2" fill="#1d4ed8"/>
<circle cx="908.19" cy="341.58" r="3.2" fill="#1d4ed8"/>
<circle cx="910.93" cy="339.15" r="3.2" fill="#1d4ed8"/>
<circle cx="913.68" cy="338.35" r="3.2" fill="#1d4ed8"/>
<circle cx="916.42" cy="337.54" r="3.2" fill="#1d4ed8"/>
<circle cx="919.17" cy="336.73" r="3.2" fill="#1d4ed8"/>
<circle cx="921.91" cy="335.92" r="3.2" fill="#1d4ed8"/>
<circle cx="924.66" cy="337.54" r="3.2" fill="#1d4ed8"/>
<circle cx="927.41" cy="338.35" r="3.2" fill="#1d4ed8"/>
<circle cx="930.15" cy="337.54" r="3.2" fill="#1d4ed8"/>
<circle cx="932.90" cy="337.54" r="3.2" fill="#1d4ed8"/>
<circle cx="935.64" cy="337.54" r="3.2" fill="#1d4ed8"/>
<circle cx="938.39" cy="333.09" r="3.2" fill="#1d4ed8"/>
<circle cx="941.13" cy="333.90" r="3.2" fill="#1d4ed8"/>
<circle cx="943.88" cy="335.92" r="3.2" fill="#1d4ed8"/>
<circle cx="946.62" cy="336.73" r="3.2" fill="#1d4ed8"/>
<circle cx="949.37" cy="335.51" r="3.2" fill="#1d4ed8"/>
<circle cx="952.12" cy="332.28" r="3.2" fill="#1d4ed8"/>
<circle cx="954.86" cy="331.47" r="3.2" fill="#1d4ed8"/>
<circle cx="957.61" cy="331.07" r="3.2" fill="#1d4ed8"/>
<circle cx="960.35" cy="331.47" r="3.2" fill="#1d4ed8"/>
<circle cx="963.10" cy="331.07" r="3.2" fill="#1d4ed8"/>
<circle cx="965.84" cy="331.07" r="3.2" fill="#1d4ed8"/>
<circle cx="968.59" cy="331.07" r="3.2" fill="#1d4ed8"/>
<circle cx="971.34" cy="331.07" r="3.2" fill="#1d4ed8"/>
<circle cx="974.08" cy="331.07" r="3.2" fill="#1d4ed8"/>
<circle cx="976.83" cy="331.07" r="3.2" fill="#1d4ed8"/>
<circle cx="979.57" cy="331.07" r="3.2" fill="#1d4ed8"/>
<circle cx="982.32" cy="331.07" r="3.2" fill="#1d4ed8"/>
<circle cx="985.06" cy="331.07" r="3.2" fill="#1d4ed8"/>
<circle cx="987.81" cy="331.07" r="3.2" fill="#1d4ed8"/>
<circle cx="990.55" cy="331.47" r="3.2" fill="#1d4ed8"/>
<circle cx="993.30" cy="331.88" r="3.2" fill="#1d4ed8"/>
<circle cx="996.05" cy="331.07" r="3.2" fill="#1d4ed8"/>
<circle cx="998.79" cy="331.47" r="3.2" fill="#1d4ed8"/>
<circle cx="1001.54" cy="331.07" r="3.2" fill="#1d4ed8"/>
<circle cx="1004.28" cy="331.47" r="3.2" fill="#1d4ed8"/>
<circle cx="1007.03" cy="331.07" r="3.2" fill="#1d4ed8"/>
<circle cx="1009.77" cy="324.19" r="3.2" fill="#1d4ed8"/>
<circle cx="1012.52" cy="324.19" r="3.2" fill="#1d4ed8"/>
<circle cx="1015.26" cy="318.93" r="3.2" fill="#1d4ed8"/>
<circle cx="1018.01" cy="316.51" r="3.2" fill="#1d4ed8"/>
<circle cx="1020.76" cy="310.44" r="3.2" fill="#1d4ed8"/>
<circle cx="1023.50" cy="308.01" r="3.2" fill="#1d4ed8"/>
<circle cx="1026.25" cy="600.00" r="3.2" fill="#1d4ed8"/>
<circle cx="1028.99" cy="301.54" r="3.2" fill="#1d4ed8"/>
<circle cx="1031.74" cy="290.22" r="3.2" fill="#1d4ed8"/>
<circle cx="1034.48" cy="287.79" r="3.2" fill="#1d4ed8"/>
<circle cx="1037.23" cy="286.18" r="3.2" fill="#1d4ed8"/>
<circle cx="1039.97" cy="285.77" r="3.2" fill="#1d4ed8"/>
<circle cx="1042.72" cy="285.77" r="3.2" fill="#1d4ed8"/>
<circle cx="1045.47" cy="285.77" r="3.2" fill="#1d4ed8"/>
<circle cx="1048.21" cy="286.18" r="3.2" fill="#1d4ed8"/>
<circle cx="1050.96" cy="285.77" r="3.2" fill="#1d4ed8"/>
<circle cx="1053.70" cy="285.77" r="3.2" fill="#1d4ed8"/>
<circle cx="1056.45" cy="285.77" r="3.2" fill="#1d4ed8"/>
<circle cx="1059.19" cy="283.35" r="3.2" fill="#1d4ed8"/>
<circle cx="1061.94" cy="282.94" r="3.2" fill="#1d4ed8"/>
<circle cx="1064.69" cy="282.94" r="3.2" fill="#1d4ed8"/>
<circle cx="1067.43" cy="283.35" r="3.2" fill="#1d4ed8"/>
<circle cx="1070.18" cy="282.94" r="3.2" fill="#1d4ed8"/>
<circle cx="1072.92" cy="282.94" r="3.2" fill="#1d4ed8"/>
<circle cx="1075.67" cy="283.75" r="3.2" fill="#1d4ed8"/>
<circle cx="1078.41" cy="282.13" r="3.2" fill="#1d4ed8"/>
<circle cx="1081.16" cy="282.13" r="3.2" fill="#1d4ed8"/>
<circle cx="1083.90" cy="282.54" r="3.2" fill="#1d4ed8"/>
<circle cx="1086.65" cy="282.13" r="3.2" fill="#1d4ed8"/>
<circle cx="1089.40" cy="282.54" r="3.2" fill="#1d4ed8"/>
<circle cx="1092.14" cy="282.94" r="3.2" fill="#1d4ed8"/>
<circle cx="1094.89" cy="281.73" r="3.2" fill="#1d4ed8"/>
<circle cx="1097.63" cy="282.54" r="3.2" fill="#1d4ed8"/>
<circle cx="1100.38" cy="281.73" r="3.2" fill="#1d4ed8"/>
<circle cx="1103.12" cy="282.54" r="3.2" fill="#1d4ed8"/>
<circle cx="1105.87" cy="282.13" r="3.2" fill="#1d4ed8"/>
<circle cx="1108.61" cy="282.13" r="3.2" fill="#1d4ed8"/>
<circle cx="1111.36" cy="281.73" r="3.2" fill="#1d4ed8"/>
<circle cx="1114.11" cy="281.73" r="3.2" fill="#1d4ed8"/>
<circle cx="1116.85" cy="281.32" r="3.2" fill="#1d4ed8"/>
<circle cx="1119.60" cy="281.73" r="3.2" fill="#1d4ed8"/>
<circle cx="1122.34" cy="282.13" r="3.2" fill="#1d4ed8"/>
<circle cx="1125.09" cy="281.32" r="3.2" fill="#1d4ed8"/>
<circle cx="1127.83" cy="281.32" r="3.2" fill="#1d4ed8"/>
<circle cx="1130.58" cy="282.54" r="3.2" fill="#1d4ed8"/>
<circle cx="1133.32" cy="282.13" r="3.2" fill="#1d4ed8"/>
<circle cx="1136.07" cy="281.32" r="3.2" fill="#1d4ed8"/>
<circle cx="1138.82" cy="281.32" r="3.2" fill="#1d4ed8"/>
<circle cx="1141.56" cy="281.32" r="3.2" fill="#1d4ed8"/>
<circle cx="1144.31" cy="282.54" r="3.2" fill="#1d4ed8"/>
<circle cx="1147.05" cy="282.13" r="3.2" fill="#1d4ed8"/>
<circle cx="1149.80" cy="281.32" r="3.2" fill="#1d4ed8"/>
<circle cx="1152.54" cy="282.13" r="3.2" fill="#1d4ed8"/>
<circle cx="1155.29" cy="281.73" r="3.2" fill="#1d4ed8"/>
<circle cx="1158.04" cy="282.13" r="3.2" fill="#1d4ed8"/>
<circle cx="1160.78" cy="280.11" r="3.2" fill="#1d4ed8"/>
<circle cx="1163.53" cy="280.11" r="3.2" fill="#1d4ed8"/>
<circle cx="1166.27" cy="280.51" r="3.2" fill="#1d4ed8"/>
<circle cx="1169.02" cy="279.71" r="3.2" fill="#1d4ed8"/>
<circle cx="1171.76" cy="280.11" r="3.2" fill="#1d4ed8"/>
<circle cx="1174.51" cy="280.51" r="3.2" fill="#1d4ed8"/>
<circle cx="1177.25" cy="279.71" r="3.2" fill="#1d4ed8"/>
<circle cx="1180.00" cy="280.11" r="3.2" fill="#1d4ed8"/>
<text x="635" y="695" text-anchor="middle" font-size="14" fill="#111" font-family="sans-serif">Date</text>
<text x="24" y="325" text-anchor="middle" font-size="14" fill="#111" transform="rotate(-90 24,325)" font-family="sans-serif">Passed files</text>
</svg>
