<?xml version="1.0" encoding="UTF-8"?>
<svg xmlns="http://www.w3.org/2000/svg" width="1280" height="720" viewBox="0 0 1280 720">
<rect width="100%" height="100%" fill="#ffffff"/>
<text x="640" y="30" text-anchor="middle" font-size="22" font-family="sans-serif">Roast passed files history</text>
<line x1="90" y1="600" x2="1180" y2="600" stroke="#333" stroke-width="1.5"/>
<line x1="90" y1="50" x2="90" y2="600" stroke="#333" stroke-width="1.5"/>
<line x1="90" y1="600.00" x2="1180" y2="600.00" stroke="#e5e7eb" stroke-width="1"/>
<text x="78" y="605.00" text-anchor="end" font-size="12" fill="#111" font-family="sans-serif">0</text>
<line x1="90" y1="397.79" x2="1180" y2="397.79" stroke="#e5e7eb" stroke-width="1"/>
<text x="78" y="402.79" text-anchor="end" font-size="12" fill="#111" font-family="sans-serif">500</text>
<line x1="90" y1="195.59" x2="1180" y2="195.59" stroke="#e5e7eb" stroke-width="1"/>
<text x="78" y="200.59" text-anchor="end" font-size="12" fill="#111" font-family="sans-serif">1000</text>
<line x1="90.00" y1="600" x2="90.00" y2="606" stroke="#333" stroke-width="1"/>
<text x="90.00" y="624" text-anchor="end" font-size="11" fill="#111" transform="rotate(-40 90.00,624)" font-family="sans-serif">2026-02-12</text>
<line x1="223.99" y1="600" x2="223.99" y2="606" stroke="#333" stroke-width="1"/>
<text x="223.99" y="624" text-anchor="end" font-size="11" fill="#111" transform="rotate(-40 223.99,624)" font-family="sans-serif">2026-02-17</text>
<line x1="357.97" y1="600" x2="357.97" y2="606" stroke="#333" stroke-width="1"/>
<text x="357.97" y="624" text-anchor="end" font-size="11" fill="#111" transform="rotate(-40 357.97,624)" font-family="sans-serif">2026-02-20</text>
<line x1="491.96" y1="600" x2="491.96" y2="606" stroke="#333" stroke-width="1"/>
<text x="491.96" y="624" text-anchor="end" font-size="11" fill="#111" transform="rotate(-40 491.96,624)" font-family="sans-serif">2026-02-24</text>
<line x1="625.95" y1="600" x2="625.95" y2="606" stroke="#333" stroke-width="1"/>
<text x="625.95" y="624" text-anchor="end" font-size="11" fill="#111" transform="rotate(-40 625.95,624)" font-family="sans-serif">2026-02-26</text>
<line x1="759.93" y1="600" x2="759.93" y2="606" stroke="#333" stroke-width="1"/>
<text x="759.93" y="624" text-anchor="end" font-size="11" fill="#111" transform="rotate(-40 759.93,624)" font-family="sans-serif">2026-02-28</text>
<line x1="893.92" y1="600" x2="893.92" y2="606" stroke="#333" stroke-width="1"/>
<text x="893.92" y="624" text-anchor="end" font-size="11" fill="#111" transform="rotate(-40 893.92,624)" font-family="sans-serif">2026-03-06</text>
<line x1="1027.91" y1="600" x2="1027.91" y2="606" stroke="#333" stroke-width="1"/>
<text x="1027.91" y="624" text-anchor="end" font-size="11" fill="#111" transform="rotate(-40 1027.91,624)" font-family="sans-serif">2026-03-06</text>
<line x1="1161.89" y1="600" x2="1161.89" y2="606" stroke="#333" stroke-width="1"/>
<text x="1161.89" y="624" text-anchor="end" font-size="11" fill="#111" transform="rotate(-40 1161.89,624)" font-family="sans-serif">2026-03-08</text>
<line x1="1180.00" y1="600" x2="1180.00" y2="606" stroke="#333" stroke-width="1"/>
<text x="1180.00" y="624" text-anchor="end" font-size="11" fill="#111" transform="rotate(-40 1180.00,624)" font-family="sans-serif">2026-03-08</text>
<line x1="90" y1="75.88" x2="1180" y2="75.88" stroke="#dc2626" stroke-width="1.5" stroke-dasharray="8,4"/>
<text x="1184" y="79.88" font-size="12" fill="#dc2626" font-family="sans-serif">Goal: 1296</text>
<polyline fill="none" stroke="#2563eb" stroke-width="3" points="90.00,540.55 93.62,538.53 97.24,536.91 100.86,534.49 104.49,534.49 108.11,533.27 111.73,532.46 115.35,532.87 118.97,532.06 122.59,532.46 126.21,532.06 129.83,568.46 133.46,568.46 137.08,566.43 140.70,545.00 144.32,545.00 147.94,544.19 151.56,543.79 155.18,543.79 158.80,543.38 162.43,541.76 166.05,541.36 169.67,540.96 173.29,540.96 176.91,539.34 180.53,539.34 184.15,556.73 187.77,556.73 191.40,555.51 195.02,551.07 198.64,538.93 202.26,538.93 205.88,538.93 209.50,538.12 213.12,536.91 216.74,536.91 220.37,536.51 223.99,536.51 227.61,556.73 231.23,556.73 234.85,556.73 238.47,556.73 242.09,535.29 245.71,535.29 249.34,535.29 252.96,535.29 256.58,534.49 260.20,534.08 263.82,533.68 267.44,532.87 271.06,532.06 274.68,532.06 278.31,531.25 281.93,530.85 285.55,530.44 289.17,530.04 292.79,530.04 296.41,529.23 300.03,529.23 303.65,529.23 307.28,528.42 310.90,528.42 314.52,527.61 318.14,527.21 321.76,526.80 325.38,526.40 329.00,525.18 332.62,523.57 336.25,523.57 339.87,523.16 343.49,522.76 347.11,522.35 350.73,521.54 354.35,519.52 357.97,517.50 361.59,517.50 365.22,517.50 368.84,517.50 372.46,517.50 376.08,517.50 379.70,517.10 383.32,516.69 386.94,515.48 390.56,515.07 394.19,514.67 397.81,513.86 401.43,514.26 405.05,512.24 408.67,511.84 412.29,511.84 415.91,511.03 419.53,509.82 423.16,507.79 426.78,506.99 430.40,506.58 434.02,509.41 437.64,509.01 441.26,504.96 444.88,504.56 448.50,504.15 452.13,504.56 455.75,503.75 459.37,503.75 462.99,503.35 466.61,499.30 470.23,496.47 473.85,490.00 477.48,484.34 481.10,481.10 484.72,480.29 488.34,480.70 491.96,460.88 495.58,459.26 499.20,458.05 502.82,456.03 506.45,456.03 510.07,454.41 513.69,450.77 517.31,444.30 520.93,443.90 524.55,600.00 528.17,441.88 531.79,440.66 535.42,439.45 539.04,439.04 542.66,438.64 546.28,437.83 549.90,436.62 553.52,436.62 557.14,434.60 560.76,432.17 564.39,429.34 568.01,428.93 571.63,428.53 575.25,427.72 578.87,426.91 582.49,426.10 586.11,426.10 589.73,426.10 593.36,419.63 596.98,419.23 600.60,418.42 604.22,418.01 607.84,417.61 611.46,417.61 615.08,417.61 618.70,417.21 622.33,417.21 625.95,413.57 629.57,411.95 633.19,412.76 636.81,410.74 640.43,410.74 644.05,410.33 647.67,410.33 651.30,410.33 654.92,409.93 658.54,409.93 662.16,409.93 665.78,409.52 669.40,409.52 673.02,409.12 676.64,409.52 680.27,409.12 683.89,407.50 687.51,407.10 691.13,403.05 694.75,399.82 698.37,400.22 701.99,400.62 705.61,400.62 709.24,399.41 712.86,392.94 716.48,391.32 720.10,389.30 723.72,389.30 727.34,388.49 730.96,375.15 734.58,374.74 738.21,374.74 741.83,374.74 745.45,374.74 749.07,374.34 752.69,374.34 756.31,374.34 759.93,374.34 763.55,374.34 767.18,373.93 770.80,373.12 774.42,372.72 778.04,373.53 781.66,435.81 785.28,372.32 788.90,372.72 792.52,371.91 796.15,371.91 799.77,372.32 803.39,371.10 807.01,369.89 810.63,369.89 814.25,369.89 817.87,369.49 821.50,369.89 825.12,369.08 828.74,368.68 832.36,368.27 835.98,367.87 839.60,367.06 843.22,367.46 846.84,367.06 850.47,366.25 854.09,368.27 857.71,368.68 861.33,368.68 864.95,368.27 868.57,369.08 872.19,367.87 875.81,367.46 879.44,367.06 883.06,360.18 886.68,359.78 890.30,359.38 893.92,356.95 897.54,357.35 901.16,357.76 904.78,355.33 908.41,355.74 912.03,357.35 915.65,355.33 919.27,356.14 922.89,355.74 926.51,356.14 930.13,354.12 933.75,354.93 937.38,356.14 941.00,354.52 944.62,353.71 948.24,354.12 951.86,354.93 955.48,352.90 959.10,353.71 962.72,353.31 966.35,353.31 969.97,354.52 973.59,352.90 977.21,352.50 980.83,352.50 984.45,353.31 988.07,352.50 991.69,353.71 995.32,354.12 998.94,352.50 1002.56,352.90 1006.18,352.50 1009.80,352.10 1013.42,351.69 1017.04,352.10 1020.66,354.12 1024.29,352.50 1027.91,352.10 1031.53,352.10 1035.15,349.67 1038.77,349.67 1042.39,350.88 1046.01,351.29 1049.63,350.48 1053.26,352.10 1056.88,350.48 1060.50,350.48 1064.12,350.48 1067.74,350.07 1071.36,348.46 1074.98,351.29 1078.60,349.67 1082.23,351.29 1085.85,349.67 1089.47,348.86 1093.09,348.46 1096.71,348.46 1100.33,347.24 1103.95,348.86 1107.57,346.84 1111.20,348.46 1114.82,348.86 1118.44,346.84 1122.06,349.26 1125.68,348.05 1129.30,349.26 1132.92,349.26 1136.54,350.48 1140.17,352.90 1143.79,349.67 1147.41,348.46 1151.03,345.62 1154.65,344.82 1158.27,344.41 1161.89,342.39 1165.51,341.18 1169.14,341.58 1172.76,339.15 1176.38,338.35 1180.00,337.54"/>
<circle cx="90.00" cy="540.55" r="3.2" fill="#1d4ed8"/>
<circle cx="93.62" cy="538.53" r="3.2" fill="#1d4ed8"/>
<circle cx="97.24" cy="536.91" r="3.2" fill="#1d4ed8"/>
<circle cx="100.86" cy="534.49" r="3.2" fill="#1d4ed8"/>
<circle cx="104.49" cy="534.49" r="3.2" fill="#1d4ed8"/>
<circle cx="108.11" cy="533.27" r="3.2" fill="#1d4ed8"/>
<circle cx="111.73" cy="532.46" r="3.2" fill="#1d4ed8"/>
<circle cx="115.35" cy="532.87" r="3.2" fill="#1d4ed8"/>
<circle cx="118.97" cy="532.06" r="3.2" fill="#1d4ed8"/>
<circle cx="122.59" cy="532.46" r="3.2" fill="#1d4ed8"/>
<circle cx="126.21" cy="532.06" r="3.2" fill="#1d4ed8"/>
<circle cx="129.83" cy="568.46" r="3.2" fill="#1d4ed8"/>
<circle cx="133.46" cy="568.46" r="3.2" fill="#1d4ed8"/>
<circle cx="137.08" cy="566.43" r="3.2" fill="#1d4ed8"/>
<circle cx="140.70" cy="545.00" r="3.2" fill="#1d4ed8"/>
<circle cx="144.32" cy="545.00" r="3.2" fill="#1d4ed8"/>
<circle cx="147.94" cy="544.19" r="3.2" fill="#1d4ed8"/>
<circle cx="151.56" cy="543.79" r="3.2" fill="#1d4ed8"/>
<circle cx="155.18" cy="543.79" r="3.2" fill="#1d4ed8"/>
<circle cx="158.80" cy="543.38" r="3.2" fill="#1d4ed8"/>
<circle cx="162.43" cy="541.76" r="3.2" fill="#1d4ed8"/>
<circle cx="166.05" cy="541.36" r="3.2" fill="#1d4ed8"/>
<circle cx="169.67" cy="540.96" r="3.2" fill="#1d4ed8"/>
<circle cx="173.29" cy="540.96" r="3.2" fill="#1d4ed8"/>
<circle cx="176.91" cy="539.34" r="3.2" fill="#1d4ed8"/>
<circle cx="180.53" cy="539.34" r="3.2" fill="#1d4ed8"/>
<circle cx="184.15" cy="556.73" r="3.2" fill="#1d4ed8"/>
<circle cx="187.77" cy="556.73" r="3.2" fill="#1d4ed8"/>
<circle cx="191.40" cy="555.51" r="3.2" fill="#1d4ed8"/>
<circle cx="195.02" cy="551.07" r="3.2" fill="#1d4ed8"/>
<circle cx="198.64" cy="538.93" r="3.2" fill="#1d4ed8"/>
<circle cx="202.26" cy="538.93" r="3.2" fill="#1d4ed8"/>
<circle cx="205.88" cy="538.93" r="3.2" fill="#1d4ed8"/>
<circle cx="209.50" cy="538.12" r="3.2" fill="#1d4ed8"/>
<circle cx="213.12" cy="536.91" r="3.2" fill="#1d4ed8"/>
<circle cx="216.74" cy="536.91" r="3.2" fill="#1d4ed8"/>
<circle cx="220.37" cy="536.51" r="3.2" fill="#1d4ed8"/>
<circle cx="223.99" cy="536.51" r="3.2" fill="#1d4ed8"/>
<circle cx="227.61" cy="556.73" r="3.2" fill="#1d4ed8"/>
<circle cx="231.23" cy="556.73" r="3.2" fill="#1d4ed8"/>
<circle cx="234.85" cy="556.73" r="3.2" fill="#1d4ed8"/>
<circle cx="238.47" cy="556.73" r="3.2" fill="#1d4ed8"/>
<circle cx="242.09" cy="535.29" r="3.2" fill="#1d4ed8"/>
<circle cx="245.71" cy="535.29" r="3.2" fill="#1d4ed8"/>
<circle cx="249.34" cy="535.29" r="3.2" fill="#1d4ed8"/>
<circle cx="252.96" cy="535.29" r="3.2" fill="#1d4ed8"/>
<circle cx="256.58" cy="534.49" r="3.2" fill="#1d4ed8"/>
<circle cx="260.20" cy="534.08" r="3.2" fill="#1d4ed8"/>
<circle cx="263.82" cy="533.68" r="3.2" fill="#1d4ed8"/>
<circle cx="267.44" cy="532.87" r="3.2" fill="#1d4ed8"/>
<circle cx="271.06" cy="532.06" r="3.2" fill="#1d4ed8"/>
<circle cx="274.68" cy="532.06" r="3.2" fill="#1d4ed8"/>
<circle cx="278.31" cy="531.25" r="3.2" fill="#1d4ed8"/>
<circle cx="281.93" cy="530.85" r="3.2" fill="#1d4ed8"/>
<circle cx="285.55" cy="530.44" r="3.2" fill="#1d4ed8"/>
<circle cx="289.17" cy="530.04" r="3.2" fill="#1d4ed8"/>
<circle cx="292.79" cy="530.04" r="3.2" fill="#1d4ed8"/>
<circle cx="296.41" cy="529.23" r="3.2" fill="#1d4ed8"/>
<circle cx="300.03" cy="529.23" r="3.2" fill="#1d4ed8"/>
<circle cx="303.65" cy="529.23" r="3.2" fill="#1d4ed8"/>
<circle cx="307.28" cy="528.42" r="3.2" fill="#1d4ed8"/>
<circle cx="310.90" cy="528.42" r="3.2" fill="#1d4ed8"/>
<circle cx="314.52" cy="527.61" r="3.2" fill="#1d4ed8"/>
<circle cx="318.14" cy="527.21" r="3.2" fill="#1d4ed8"/>
<circle cx="321.76" cy="526.80" r="3.2" fill="#1d4ed8"/>
<circle cx="325.38" cy="526.40" r="3.2" fill="#1d4ed8"/>
<circle cx="329.00" cy="525.18" r="3.2" fill="#1d4ed8"/>
<circle cx="332.62" cy="523.57" r="3.2" fill="#1d4ed8"/>
<circle cx="336.25" cy="523.57" r="3.2" fill="#1d4ed8"/>
<circle cx="339.87" cy="523.16" r="3.2" fill="#1d4ed8"/>
<circle cx="343.49" cy="522.76" r="3.2" fill="#1d4ed8"/>
<circle cx="347.11" cy="522.35" r="3.2" fill="#1d4ed8"/>
<circle cx="350.73" cy="521.54" r="3.2" fill="#1d4ed8"/>
<circle cx="354.35" cy="519.52" r="3.2" fill="#1d4ed8"/>
<circle cx="357.97" cy="517.50" r="3.2" fill="#1d4ed8"/>
<circle cx="361.59" cy="517.50" r="3.2" fill="#1d4ed8"/>
<circle cx="365.22" cy="517.50" r="3.2" fill="#1d4ed8"/>
<circle cx="368.84" cy="517.50" r="3.2" fill="#1d4ed8"/>
<circle cx="372.46" cy="517.50" r="3.2" fill="#1d4ed8"/>
<circle cx="376.08" cy="517.50" r="3.2" fill="#1d4ed8"/>
<circle cx="379.70" cy="517.10" r="3.2" fill="#1d4ed8"/>
<circle cx="383.32" cy="516.69" r="3.2" fill="#1d4ed8"/>
<circle cx="386.94" cy="515.48" r="3.2" fill="#1d4ed8"/>
<circle cx="390.56" cy="515.07" r="3.2" fill="#1d4ed8"/>
<circle cx="394.19" cy="514.67" r="3.2" fill="#1d4ed8"/>
<circle cx="397.81" cy="513.86" r="3.2" fill="#1d4ed8"/>
<circle cx="401.43" cy="514.26" r="3.2" fill="#1d4ed8"/>
<circle cx="405.05" cy="512.24" r="3.2" fill="#1d4ed8"/>
<circle cx="408.67" cy="511.84" r="3.2" fill="#1d4ed8"/>
<circle cx="412.29" cy="511.84" r="3.2" fill="#1d4ed8"/>
<circle cx="415.91" cy="511.03" r="3.2" fill="#1d4ed8"/>
<circle cx="419.53" cy="509.82" r="3.2" fill="#1d4ed8"/>
<circle cx="423.16" cy="507.79" r="3.2" fill="#1d4ed8"/>
<circle cx="426.78" cy="506.99" r="3.2" fill="#1d4ed8"/>
<circle cx="430.40" cy="506.58" r="3.2" fill="#1d4ed8"/>
<circle cx="434.02" cy="509.41" r="3.2" fill="#1d4ed8"/>
<circle cx="437.64" cy="509.01" r="3.2" fill="#1d4ed8"/>
<circle cx="441.26" cy="504.96" r="3.2" fill="#1d4ed8"/>
<circle cx="444.88" cy="504.56" r="3.2" fill="#1d4ed8"/>
<circle cx="448.50" cy="504.15" r="3.2" fill="#1d4ed8"/>
<circle cx="452.13" cy="504.56" r="3.2" fill="#1d4ed8"/>
<circle cx="455.75" cy="503.75" r="3.2" fill="#1d4ed8"/>
<circle cx="459.37" cy="503.75" r="3.2" fill="#1d4ed8"/>
<circle cx="462.99" cy="503.35" r="3.2" fill="#1d4ed8"/>
<circle cx="466.61" cy="499.30" r="3.2" fill="#1d4ed8"/>
<circle cx="470.23" cy="496.47" r="3.2" fill="#1d4ed8"/>
<circle cx="473.85" cy="490.00" r="3.2" fill="#1d4ed8"/>
<circle cx="477.48" cy="484.34" r="3.2" fill="#1d4ed8"/>
<circle cx="481.10" cy="481.10" r="3.2" fill="#1d4ed8"/>
<circle cx="484.72" cy="480.29" r="3.2" fill="#1d4ed8"/>
<circle cx="488.34" cy="480.70" r="3.2" fill="#1d4ed8"/>
<circle cx="491.96" cy="460.88" r="3.2" fill="#1d4ed8"/>
<circle cx="495.58" cy="459.26" r="3.2" fill="#1d4ed8"/>
<circle cx="499.20" cy="458.05" r="3.2" fill="#1d4ed8"/>
<circle cx="502.82" cy="456.03" r="3.2" fill="#1d4ed8"/>
<circle cx="506.45" cy="456.03" r="3.2" fill="#1d4ed8"/>
<circle cx="510.07" cy="454.41" r="3.2" fill="#1d4ed8"/>
<circle cx="513.69" cy="450.77" r="3.2" fill="#1d4ed8"/>
<circle cx="517.31" cy="444.30" r="3.2" fill="#1d4ed8"/>
<circle cx="520.93" cy="443.90" r="3.2" fill="#1d4ed8"/>
<circle cx="524.55" cy="600.00" r="3.2" fill="#1d4ed8"/>
<circle cx="528.17" cy="441.88" r="3.2" fill="#1d4ed8"/>
<circle cx="531.79" cy="440.66" r="3.2" fill="#1d4ed8"/>
<circle cx="535.42" cy="439.45" r="3.2" fill="#1d4ed8"/>
<circle cx="539.04" cy="439.04" r="3.2" fill="#1d4ed8"/>
<circle cx="542.66" cy="438.64" r="3.2" fill="#1d4ed8"/>
<circle cx="546.28" cy="437.83" r="3.2" fill="#1d4ed8"/>
<circle cx="549.90" cy="436.62" r="3.2" fill="#1d4ed8"/>
<circle cx="553.52" cy="436.62" r="3.2" fill="#1d4ed8"/>
<circle cx="557.14" cy="434.60" r="3.2" fill="#1d4ed8"/>
<circle cx="560.76" cy="432.17" r="3.2" fill="#1d4ed8"/>
<circle cx="564.39" cy="429.34" r="3.2" fill="#1d4ed8"/>
<circle cx="568.01" cy="428.93" r="3.2" fill="#1d4ed8"/>
<circle cx="571.63" cy="428.53" r="3.2" fill="#1d4ed8"/>
<circle cx="575.25" cy="427.72" r="3.2" fill="#1d4ed8"/>
<circle cx="578.87" cy="426.91" r="3.2" fill="#1d4ed8"/>
<circle cx="582.49" cy="426.10" r="3.2" fill="#1d4ed8"/>
<circle cx="586.11" cy="426.10" r="3.2" fill="#1d4ed8"/>
<circle cx="589.73" cy="426.10" r="3.2" fill="#1d4ed8"/>
<circle cx="593.36" cy="419.63" r="3.2" fill="#1d4ed8"/>
<circle cx="596.98" cy="419.23" r="3.2" fill="#1d4ed8"/>
<circle cx="600.60" cy="418.42" r="3.2" fill="#1d4ed8"/>
<circle cx="604.22" cy="418.01" r="3.2" fill="#1d4ed8"/>
<circle cx="607.84" cy="417.61" r="3.2" fill="#1d4ed8"/>
<circle cx="611.46" cy="417.61" r="3.2" fill="#1d4ed8"/>
<circle cx="615.08" cy="417.61" r="3.2" fill="#1d4ed8"/>
<circle cx="618.70" cy="417.21" r="3.2" fill="#1d4ed8"/>
<circle cx="622.33" cy="417.21" r="3.2" fill="#1d4ed8"/>
<circle cx="625.95" cy="413.57" r="3.2" fill="#1d4ed8"/>
<circle cx="629.57" cy="411.95" r="3.2" fill="#1d4ed8"/>
<circle cx="633.19" cy="412.76" r="3.2" fill="#1d4ed8"/>
<circle cx="636.81" cy="410.74" r="3.2" fill="#1d4ed8"/>
<circle cx="640.43" cy="410.74" r="3.2" fill="#1d4ed8"/>
<circle cx="644.05" cy="410.33" r="3.2" fill="#1d4ed8"/>
<circle cx="647.67" cy="410.33" r="3.2" fill="#1d4ed8"/>
<circle cx="651.30" cy="410.33" r="3.2" fill="#1d4ed8"/>
<circle cx="654.92" cy="409.93" r="3.2" fill="#1d4ed8"/>
<circle cx="658.54" cy="409.93" r="3.2" fill="#1d4ed8"/>
<circle cx="662.16" cy="409.93" r="3.2" fill="#1d4ed8"/>
<circle cx="665.78" cy="409.52" r="3.2" fill="#1d4ed8"/>
<circle cx="669.40" cy="409.52" r="3.2" fill="#1d4ed8"/>
<circle cx="673.02" cy="409.12" r="3.2" fill="#1d4ed8"/>
<circle cx="676.64" cy="409.52" r="3.2" fill="#1d4ed8"/>
<circle cx="680.27" cy="409.12" r="3.2" fill="#1d4ed8"/>
<circle cx="683.89" cy="407.50" r="3.2" fill="#1d4ed8"/>
<circle cx="687.51" cy="407.10" r="3.2" fill="#1d4ed8"/>
<circle cx="691.13" cy="403.05" r="3.2" fill="#1d4ed8"/>
<circle cx="694.75" cy="399.82" r="3.2" fill="#1d4ed8"/>
<circle cx="698.37" cy="400.22" r="3.2" fill="#1d4ed8"/>
<circle cx="701.99" cy="400.62" r="3.2" fill="#1d4ed8"/>
<circle cx="705.61" cy="400.62" r="3.2" fill="#1d4ed8"/>
<circle cx="709.24" cy="399.41" r="3.2" fill="#1d4ed8"/>
<circle cx="712.86" cy="392.94" r="3.2" fill="#1d4ed8"/>
<circle cx="716.48" cy="391.32" r="3.2" fill="#1d4ed8"/>
<circle cx="720.10" cy="389.30" r="3.2" fill="#1d4ed8"/>
<circle cx="723.72" cy="389.30" r="3.2" fill="#1d4ed8"/>
<circle cx="727.34" cy="388.49" r="3.2" fill="#1d4ed8"/>
<circle cx="730.96" cy="375.15" r="3.2" fill="#1d4ed8"/>
<circle cx="734.58" cy="374.74" r="3.2" fill="#1d4ed8"/>
<circle cx="738.21" cy="374.74" r="3.2" fill="#1d4ed8"/>
<circle cx="741.83" cy="374.74" r="3.2" fill="#1d4ed8"/>
<circle cx="745.45" cy="374.74" r="3.2" fill="#1d4ed8"/>
<circle cx="749.07" cy="374.34" r="3.2" fill="#1d4ed8"/>
<circle cx="752.69" cy="374.34" r="3.2" fill="#1d4ed8"/>
<circle cx="756.31" cy="374.34" r="3.2" fill="#1d4ed8"/>
<circle cx="759.93" cy="374.34" r="3.2" fill="#1d4ed8"/>
<circle cx="763.55" cy="374.34" r="3.2" fill="#1d4ed8"/>
<circle cx="767.18" cy="373.93" r="3.2" fill="#1d4ed8"/>
<circle cx="770.80" cy="373.12" r="3.2" fill="#1d4ed8"/>
<circle cx="774.42" cy="372.72" r="3.2" fill="#1d4ed8"/>
<circle cx="778.04" cy="373.53" r="3.2" fill="#1d4ed8"/>
<circle cx="781.66" cy="435.81" r="3.2" fill="#1d4ed8"/>
<circle cx="785.28" cy="372.32" r="3.2" fill="#1d4ed8"/>
<circle cx="788.90" cy="372.72" r="3.2" fill="#1d4ed8"/>
<circle cx="792.52" cy="371.91" r="3.2" fill="#1d4ed8"/>
<circle cx="796.15" cy="371.91" r="3.2" fill="#1d4ed8"/>
<circle cx="799.77" cy="372.32" r="3.2" fill="#1d4ed8"/>
<circle cx="803.39" cy="371.10" r="3.2" fill="#1d4ed8"/>
<circle cx="807.01" cy="369.89" r="3.2" fill="#1d4ed8"/>
<circle cx="810.63" cy="369.89" r="3.2" fill="#1d4ed8"/>
<circle cx="814.25" cy="369.89" r="3.2" fill="#1d4ed8"/>
<circle cx="817.87" cy="369.49" r="3.2" fill="#1d4ed8"/>
<circle cx="821.50" cy="369.89" r="3.2" fill="#1d4ed8"/>
<circle cx="825.12" cy="369.08" r="3.2" fill="#1d4ed8"/>
<circle cx="828.74" cy="368.68" r="3.2" fill="#1d4ed8"/>
<circle cx="832.36" cy="368.27" r="3.2" fill="#1d4ed8"/>
<circle cx="835.98" cy="367.87" r="3.2" fill="#1d4ed8"/>
<circle cx="839.60" cy="367.06" r="3.2" fill="#1d4ed8"/>
<circle cx="843.22" cy="367.46" r="3.2" fill="#1d4ed8"/>
<circle cx="846.84" cy="367.06" r="3.2" fill="#1d4ed8"/>
<circle cx="850.47" cy="366.25" r="3.2" fill="#1d4ed8"/>
<circle cx="854.09" cy="368.27" r="3.2" fill="#1d4ed8"/>
<circle cx="857.71" cy="368.68" r="3.2" fill="#1d4ed8"/>
<circle cx="861.33" cy="368.68" r="3.2" fill="#1d4ed8"/>
<circle cx="864.95" cy="368.27" r="3.2" fill="#1d4ed8"/>
<circle cx="868.57" cy="369.08" r="3.2" fill="#1d4ed8"/>
<circle cx="872.19" cy="367.87" r="3.2" fill="#1d4ed8"/>
<circle cx="875.81" cy="367.46" r="3.2" fill="#1d4ed8"/>
<circle cx="879.44" cy="367.06" r="3.2" fill="#1d4ed8"/>
<circle cx="883.06" cy="360.18" r="3.2" fill="#1d4ed8"/>
<circle cx="886.68" cy="359.78" r="3.2" fill="#1d4ed8"/>
<circle cx="890.30" cy="359.38" r="3.2" fill="#1d4ed8"/>
<circle cx="893.92" cy="356.95" r="3.2" fill="#1d4ed8"/>
<circle cx="897.54" cy="357.35" r="3.2" fill="#1d4ed8"/>
<circle cx="901.16" cy="357.76" r="3.2" fill="#1d4ed8"/>
<circle cx="904.78" cy="355.33" r="3.2" fill="#1d4ed8"/>
<circle cx="908.41" cy="355.74" r="3.2" fill="#1d4ed8"/>
<circle cx="912.03" cy="357.35" r="3.2" fill="#1d4ed8"/>
<circle cx="915.65" cy="355.33" r="3.2" fill="#1d4ed8"/>
<circle cx="919.27" cy="356.14" r="3.2" fill="#1d4ed8"/>
<circle cx="922.89" cy="355.74" r="3.2" fill="#1d4ed8"/>
<circle cx="926.51" cy="356.14" r="3.2" fill="#1d4ed8"/>
<circle cx="930.13" cy="354.12" r="3.2" fill="#1d4ed8"/>
<circle cx="933.75" cy="354.93" r="3.2" fill="#1d4ed8"/>
<circle cx="937.38" cy="356.14" r="3.2" fill="#1d4ed8"/>
<circle cx="941.00" cy="354.52" r="3.2" fill="#1d4ed8"/>
<circle cx="944.62" cy="353.71" r="3.2" fill="#1d4ed8"/>
<circle cx="948.24" cy="354.12" r="3.2" fill="#1d4ed8"/>
<circle cx="951.86" cy="354.93" r="3.2" fill="#1d4ed8"/>
<circle cx="955.48" cy="352.90" r="3.2" fill="#1d4ed8"/>
<circle cx="959.10" cy="353.71" r="3.2" fill="#1d4ed8"/>
<circle cx="962.72" cy="353.31" r="3.2" fill="#1d4ed8"/>
<circle cx="966.35" cy="353.31" r="3.2" fill="#1d4ed8"/>
<circle cx="969.97" cy="354.52" r="3.2" fill="#1d4ed8"/>
<circle cx="973.59" cy="352.90" r="3.2" fill="#1d4ed8"/>
<circle cx="977.21" cy="352.50" r="3.2" fill="#1d4ed8"/>
<circle cx="980.83" cy="352.50" r="3.2" fill="#1d4ed8"/>
<circle cx="984.45" cy="353.31" r="3.2" fill="#1d4ed8"/>
<circle cx="988.07" cy="352.50" r="3.2" fill="#1d4ed8"/>
<circle cx="991.69" cy="353.71" r="3.2" fill="#1d4ed8"/>
<circle cx="995.32" cy="354.12" r="3.2" fill="#1d4ed8"/>
<circle cx="998.94" cy="352.50" r="3.2" fill="#1d4ed8"/>
<circle cx="1002.56" cy="352.90" r="3.2" fill="#1d4ed8"/>
<circle cx="1006.18" cy="352.50" r="3.2" fill="#1d4ed8"/>
<circle cx="1009.80" cy="352.10" r="3.2" fill="#1d4ed8"/>
<circle cx="1013.42" cy="351.69" r="3.2" fill="#1d4ed8"/>
<circle cx="1017.04" cy="352.10" r="3.2" fill="#1d4ed8"/>
<circle cx="1020.66" cy="354.12" r="3.2" fill="#1d4ed8"/>
<circle cx="1024.29" cy="352.50" r="3.2" fill="#1d4ed8"/>
<circle cx="1027.91" cy="352.10" r="3.2" fill="#1d4ed8"/>
<circle cx="1031.53" cy="352.10" r="3.2" fill="#1d4ed8"/>
<circle cx="1035.15" cy="349.67" r="3.2" fill="#1d4ed8"/>
<circle cx="1038.77" cy="349.67" r="3.2" fill="#1d4ed8"/>
<circle cx="1042.39" cy="350.88" r="3.2" fill="#1d4ed8"/>
<circle cx="1046.01" cy="351.29" r="3.2" fill="#1d4ed8"/>
<circle cx="1049.63" cy="350.48" r="3.2" fill="#1d4ed8"/>
<circle cx="1053.26" cy="352.10" r="3.2" fill="#1d4ed8"/>
<circle cx="1056.88" cy="350.48" r="3.2" fill="#1d4ed8"/>
<circle cx="1060.50" cy="350.48" r="3.2" fill="#1d4ed8"/>
<circle cx="1064.12" cy="350.48" r="3.2" fill="#1d4ed8"/>
<circle cx="1067.74" cy="350.07" r="3.2" fill="#1d4ed8"/>
<circle cx="1071.36" cy="348.46" r="3.2" fill="#1d4ed8"/>
<circle cx="1074.98" cy="351.29" r="3.2" fill="#1d4ed8"/>
<circle cx="1078.60" cy="349.67" r="3.2" fill="#1d4ed8"/>
<circle cx="1082.23" cy="351.29" r="3.2" fill="#1d4ed8"/>
<circle cx="1085.85" cy="349.67" r="3.2" fill="#1d4ed8"/>
<circle cx="1089.47" cy="348.86" r="3.2" fill="#1d4ed8"/>
<circle cx="1093.09" cy="348.46" r="3.2" fill="#1d4ed8"/>
<circle cx="1096.71" cy="348.46" r="3.2" fill="#1d4ed8"/>
<circle cx="1100.33" cy="347.24" r="3.2" fill="#1d4ed8"/>
<circle cx="1103.95" cy="348.86" r="3.2" fill="#1d4ed8"/>
<circle cx="1107.57" cy="346.84" r="3.2" fill="#1d4ed8"/>
<circle cx="1111.20" cy="348.46" r="3.2" fill="#1d4ed8"/>
<circle cx="1114.82" cy="348.86" r="3.2" fill="#1d4ed8"/>
<circle cx="1118.44" cy="346.84" r="3.2" fill="#1d4ed8"/>
<circle cx="1122.06" cy="349.26" r="3.2" fill="#1d4ed8"/>
<circle cx="1125.68" cy="348.05" r="3.2" fill="#1d4ed8"/>
<circle cx="1129.30" cy="349.26" r="3.2" fill="#1d4ed8"/>
<circle cx="1132.92" cy="349.26" r="3.2" fill="#1d4ed8"/>
<circle cx="1136.54" cy="350.48" r="3.2" fill="#1d4ed8"/>
<circle cx="1140.17" cy="352.90" r="3.2" fill="#1d4ed8"/>
<circle cx="1143.79" cy="349.67" r="3.2" fill="#1d4ed8"/>
<circle cx="1147.41" cy="348.46" r="3.2" fill="#1d4ed8"/>
<circle cx="1151.03" cy="345.62" r="3.2" fill="#1d4ed8"/>
<circle cx="1154.65" cy="344.82" r="3.2" fill="#1d4ed8"/>
<circle cx="1158.27" cy="344.41" r="3.2" fill="#1d4ed8"/>
<circle cx="1161.89" cy="342.39" r="3.2" fill="#1d4ed8"/>
<circle cx="1165.51" cy="341.18" r="3.2" fill="#1d4ed8"/>
<circle cx="1169.14" cy="341.58" r="3.2" fill="#1d4ed8"/>
<circle cx="1172.76" cy="339.15" r="3.2" fill="#1d4ed8"/>
<circle cx="1176.38" cy="338.35" r="3.2" fill="#1d4ed8"/>
<circle cx="1180.00" cy="337.54" r="3.2" fill="#1d4ed8"/>
<text x="635" y="695" text-anchor="middle" font-size="14" fill="#111" font-family="sans-serif">Date</text>
<text x="24" y="325" text-anchor="middle" font-size="14" fill="#111" transform="rotate(-90 24,325)" font-family="sans-serif">Passed files</text>
</svg>
