<?xml version="1.0" encoding="UTF-8"?>
<svg xmlns="http://www.w3.org/2000/svg" width="1280" height="720" viewBox="0 0 1280 720">
<rect width="100%" height="100%" fill="#ffffff"/>
<text x="640" y="30" text-anchor="middle" font-size="22" font-family="sans-serif">Roast passed files history</text>
<line x1="90" y1="600" x2="1180" y2="600" stroke="#333" stroke-width="1.5"/>
<line x1="90" y1="50" x2="90" y2="600" stroke="#333" stroke-width="1.5"/>
<line x1="90" y1="600.00" x2="1180" y2="600.00" stroke="#e5e7eb" stroke-width="1"/>
<text x="78" y="605.00" text-anchor="end" font-size="12" fill="#111" font-family="sans-serif">0</text>
<line x1="90" y1="397.79" x2="1180" y2="397.79" stroke="#e5e7eb" stroke-width="1"/>
<text x="78" y="402.79" text-anchor="end" font-size="12" fill="#111" font-family="sans-serif">500</text>
<line x1="90" y1="195.59" x2="1180" y2="195.59" stroke="#e5e7eb" stroke-width="1"/>
<text x="78" y="200.59" text-anchor="end" font-size="12" fill="#111" font-family="sans-serif">1000</text>
<line x1="90.00" y1="600" x2="90.00" y2="606" stroke="#333" stroke-width="1"/>
<text x="90.00" y="624" text-anchor="end" font-size="11" fill="#111" transform="rotate(-40 90.00,624)" font-family="sans-serif">2026-02-12</text>
<line x1="224.06" y1="600" x2="224.06" y2="606" stroke="#333" stroke-width="1"/>
<text x="224.06" y="624" text-anchor="end" font-size="11" fill="#111" transform="rotate(-40 224.06,624)" font-family="sans-serif">2026-02-15</text>
<line x1="358.13" y1="600" x2="358.13" y2="606" stroke="#333" stroke-width="1"/>
<text x="358.13" y="624" text-anchor="end" font-size="11" fill="#111" transform="rotate(-40 358.13,624)" font-family="sans-serif">2026-02-17</text>
<line x1="492.19" y1="600" x2="492.19" y2="606" stroke="#333" stroke-width="1"/>
<text x="492.19" y="624" text-anchor="end" font-size="11" fill="#111" transform="rotate(-40 492.19,624)" font-family="sans-serif">2026-02-19</text>
<line x1="626.26" y1="600" x2="626.26" y2="606" stroke="#333" stroke-width="1"/>
<text x="626.26" y="624" text-anchor="end" font-size="11" fill="#111" transform="rotate(-40 626.26,624)" font-family="sans-serif">2026-02-22</text>
<line x1="760.32" y1="600" x2="760.32" y2="606" stroke="#333" stroke-width="1"/>
<text x="760.32" y="624" text-anchor="end" font-size="11" fill="#111" transform="rotate(-40 760.32,624)" font-family="sans-serif">2026-02-24</text>
<line x1="894.39" y1="600" x2="894.39" y2="606" stroke="#333" stroke-width="1"/>
<text x="894.39" y="624" text-anchor="end" font-size="11" fill="#111" transform="rotate(-40 894.39,624)" font-family="sans-serif">2026-02-25</text>
<line x1="1028.45" y1="600" x2="1028.45" y2="606" stroke="#333" stroke-width="1"/>
<text x="1028.45" y="624" text-anchor="end" font-size="11" fill="#111" transform="rotate(-40 1028.45,624)" font-family="sans-serif">2026-02-27</text>
<line x1="1162.51" y1="600" x2="1162.51" y2="606" stroke="#333" stroke-width="1"/>
<text x="1162.51" y="624" text-anchor="end" font-size="11" fill="#111" transform="rotate(-40 1162.51,624)" font-family="sans-serif">2026-02-28</text>
<line x1="1180.00" y1="600" x2="1180.00" y2="606" stroke="#333" stroke-width="1"/>
<text x="1180.00" y="624" text-anchor="end" font-size="11" fill="#111" transform="rotate(-40 1180.00,624)" font-family="sans-serif">2026-02-28</text>
<line x1="90" y1="75.88" x2="1180" y2="75.88" stroke="#dc2626" stroke-width="1.5" stroke-dasharray="8,4"/>
<text x="1184" y="79.88" font-size="12" fill="#dc2626" font-family="sans-serif">Goal: 1296</text>
<polyline fill="none" stroke="#2563eb" stroke-width="3" points="90.00,540.55 95.83,538.53 101.66,536.91 107.49,534.49 113.32,534.49 119.14,533.27 124.97,532.46 130.80,532.87 136.63,532.06 142.46,532.46 148.29,532.06 154.12,568.46 159.95,568.46 165.78,566.43 171.60,545.00 177.43,545.00 183.26,544.19 189.09,543.79 194.92,543.79 200.75,543.38 206.58,541.76 212.41,541.36 218.24,540.96 224.06,540.96 229.89,539.34 235.72,539.34 241.55,556.73 247.38,556.73 253.21,555.51 259.04,551.07 264.87,538.93 270.70,538.93 276.52,538.93 282.35,538.12 288.18,536.91 294.01,536.91 299.84,536.51 305.67,536.51 311.50,556.73 317.33,556.73 323.16,556.73 328.98,556.73 334.81,535.29 340.64,535.29 346.47,535.29 352.30,535.29 358.13,534.49 363.96,534.08 369.79,533.68 375.61,532.87 381.44,532.06 387.27,532.06 393.10,531.25 398.93,530.85 404.76,530.44 410.59,530.04 416.42,530.04 422.25,529.23 428.07,529.23 433.90,529.23 439.73,528.42 445.56,528.42 451.39,527.61 457.22,527.21 463.05,526.80 468.88,526.40 474.71,525.18 480.53,523.57 486.36,523.57 492.19,523.16 498.02,522.76 503.85,522.35 509.68,521.54 515.51,519.52 521.34,517.50 527.17,517.50 532.99,517.50 538.82,517.50 544.65,517.50 550.48,517.50 556.31,517.10 562.14,516.69 567.97,515.48 573.80,515.07 579.63,514.67 585.45,513.86 591.28,514.26 597.11,512.24 602.94,511.84 608.77,511.84 614.60,511.03 620.43,509.82 626.26,507.79 632.09,506.99 637.91,506.58 643.74,509.41 649.57,509.01 655.40,504.96 661.23,504.56 667.06,504.15 672.89,504.56 678.72,503.75 684.55,503.75 690.37,503.35 696.20,499.30 702.03,496.47 707.86,490.00 713.69,484.34 719.52,481.10 725.35,480.29 731.18,480.70 737.01,460.88 742.83,459.26 748.66,458.05 754.49,456.03 760.32,456.03 766.15,454.41 771.98,450.77 777.81,444.30 783.64,443.90 789.47,600.00 795.29,441.88 801.12,440.66 806.95,439.45 812.78,439.04 818.61,438.64 824.44,437.83 830.27,436.62 836.10,436.62 841.93,434.60 847.75,432.17 853.58,429.34 859.41,428.93 865.24,428.53 871.07,427.72 876.90,426.91 882.73,426.10 888.56,426.10 894.39,426.10 900.21,419.63 906.04,419.23 911.87,418.42 917.70,418.01 923.53,417.61 929.36,417.61 935.19,417.61 941.02,417.21 946.84,417.21 952.67,413.57 958.50,411.95 964.33,412.76 970.16,410.74 975.99,410.74 981.82,410.33 987.65,410.33 993.48,410.33 999.30,409.93 1005.13,409.93 1010.96,409.93 1016.79,409.52 1022.62,409.52 1028.45,409.12 1034.28,409.52 1040.11,409.12 1045.94,407.50 1051.76,407.10 1057.59,403.05 1063.42,399.82 1069.25,400.22 1075.08,400.62 1080.91,400.62 1086.74,399.41 1092.57,392.94 1098.40,391.32 1104.22,389.30 1110.05,389.30 1115.88,388.49 1121.71,375.15 1127.54,374.74 1133.37,374.74 1139.20,374.74 1145.03,374.74 1150.86,374.34 1156.68,374.34 1162.51,374.34 1168.34,374.34 1174.17,374.34 1180.00,373.93"/>
<circle cx="90.00" cy="540.55" r="3.2" fill="#1d4ed8"/>
<circle cx="95.83" cy="538.53" r="3.2" fill="#1d4ed8"/>
<circle cx="101.66" cy="536.91" r="3.2" fill="#1d4ed8"/>
<circle cx="107.49" cy="534.49" r="3.2" fill="#1d4ed8"/>
<circle cx="113.32" cy="534.49" r="3.2" fill="#1d4ed8"/>
<circle cx="119.14" cy="533.27" r="3.2" fill="#1d4ed8"/>
<circle cx="124.97" cy="532.46" r="3.2" fill="#1d4ed8"/>
<circle cx="130.80" cy="532.87" r="3.2" fill="#1d4ed8"/>
<circle cx="136.63" cy="532.06" r="3.2" fill="#1d4ed8"/>
<circle cx="142.46" cy="532.46" r="3.2" fill="#1d4ed8"/>
<circle cx="148.29" cy="532.06" r="3.2" fill="#1d4ed8"/>
<circle cx="154.12" cy="568.46" r="3.2" fill="#1d4ed8"/>
<circle cx="159.95" cy="568.46" r="3.2" fill="#1d4ed8"/>
<circle cx="165.78" cy="566.43" r="3.2" fill="#1d4ed8"/>
<circle cx="171.60" cy="545.00" r="3.2" fill="#1d4ed8"/>
<circle cx="177.43" cy="545.00" r="3.2" fill="#1d4ed8"/>
<circle cx="183.26" cy="544.19" r="3.2" fill="#1d4ed8"/>
<circle cx="189.09" cy="543.79" r="3.2" fill="#1d4ed8"/>
<circle cx="194.92" cy="543.79" r="3.2" fill="#1d4ed8"/>
<circle cx="200.75" cy="543.38" r="3.2" fill="#1d4ed8"/>
<circle cx="206.58" cy="541.76" r="3.2" fill="#1d4ed8"/>
<circle cx="212.41" cy="541.36" r="3.2" fill="#1d4ed8"/>
<circle cx="218.24" cy="540.96" r="3.2" fill="#1d4ed8"/>
<circle cx="224.06" cy="540.96" r="3.2" fill="#1d4ed8"/>
<circle cx="229.89" cy="539.34" r="3.2" fill="#1d4ed8"/>
<circle cx="235.72" cy="539.34" r="3.2" fill="#1d4ed8"/>
<circle cx="241.55" cy="556.73" r="3.2" fill="#1d4ed8"/>
<circle cx="247.38" cy="556.73" r="3.2" fill="#1d4ed8"/>
<circle cx="253.21" cy="555.51" r="3.2" fill="#1d4ed8"/>
<circle cx="259.04" cy="551.07" r="3.2" fill="#1d4ed8"/>
<circle cx="264.87" cy="538.93" r="3.2" fill="#1d4ed8"/>
<circle cx="270.70" cy="538.93" r="3.2" fill="#1d4ed8"/>
<circle cx="276.52" cy="538.93" r="3.2" fill="#1d4ed8"/>
<circle cx="282.35" cy="538.12" r="3.2" fill="#1d4ed8"/>
<circle cx="288.18" cy="536.91" r="3.2" fill="#1d4ed8"/>
<circle cx="294.01" cy="536.91" r="3.2" fill="#1d4ed8"/>
<circle cx="299.84" cy="536.51" r="3.2" fill="#1d4ed8"/>
<circle cx="305.67" cy="536.51" r="3.2" fill="#1d4ed8"/>
<circle cx="311.50" cy="556.73" r="3.2" fill="#1d4ed8"/>
<circle cx="317.33" cy="556.73" r="3.2" fill="#1d4ed8"/>
<circle cx="323.16" cy="556.73" r="3.2" fill="#1d4ed8"/>
<circle cx="328.98" cy="556.73" r="3.2" fill="#1d4ed8"/>
<circle cx="334.81" cy="535.29" r="3.2" fill="#1d4ed8"/>
<circle cx="340.64" cy="535.29" r="3.2" fill="#1d4ed8"/>
<circle cx="346.47" cy="535.29" r="3.2" fill="#1d4ed8"/>
<circle cx="352.30" cy="535.29" r="3.2" fill="#1d4ed8"/>
<circle cx="358.13" cy="534.49" r="3.2" fill="#1d4ed8"/>
<circle cx="363.96" cy="534.08" r="3.2" fill="#1d4ed8"/>
<circle cx="369.79" cy="533.68" r="3.2" fill="#1d4ed8"/>
<circle cx="375.61" cy="532.87" r="3.2" fill="#1d4ed8"/>
<circle cx="381.44" cy="532.06" r="3.2" fill="#1d4ed8"/>
<circle cx="387.27" cy="532.06" r="3.2" fill="#1d4ed8"/>
<circle cx="393.10" cy="531.25" r="3.2" fill="#1d4ed8"/>
<circle cx="398.93" cy="530.85" r="3.2" fill="#1d4ed8"/>
<circle cx="404.76" cy="530.44" r="3.2" fill="#1d4ed8"/>
<circle cx="410.59" cy="530.04" r="3.2" fill="#1d4ed8"/>
<circle cx="416.42" cy="530.04" r="3.2" fill="#1d4ed8"/>
<circle cx="422.25" cy="529.23" r="3.2" fill="#1d4ed8"/>
<circle cx="428.07" cy="529.23" r="3.2" fill="#1d4ed8"/>
<circle cx="433.90" cy="529.23" r="3.2" fill="#1d4ed8"/>
<circle cx="439.73" cy="528.42" r="3.2" fill="#1d4ed8"/>
<circle cx="445.56" cy="528.42" r="3.2" fill="#1d4ed8"/>
<circle cx="451.39" cy="527.61" r="3.2" fill="#1d4ed8"/>
<circle cx="457.22" cy="527.21" r="3.2" fill="#1d4ed8"/>
<circle cx="463.05" cy="526.80" r="3.2" fill="#1d4ed8"/>
<circle cx="468.88" cy="526.40" r="3.2" fill="#1d4ed8"/>
<circle cx="474.71" cy="525.18" r="3.2" fill="#1d4ed8"/>
<circle cx="480.53" cy="523.57" r="3.2" fill="#1d4ed8"/>
<circle cx="486.36" cy="523.57" r="3.2" fill="#1d4ed8"/>
<circle cx="492.19" cy="523.16" r="3.2" fill="#1d4ed8"/>
<circle cx="498.02" cy="522.76" r="3.2" fill="#1d4ed8"/>
<circle cx="503.85" cy="522.35" r="3.2" fill="#1d4ed8"/>
<circle cx="509.68" cy="521.54" r="3.2" fill="#1d4ed8"/>
<circle cx="515.51" cy="519.52" r="3.2" fill="#1d4ed8"/>
<circle cx="521.34" cy="517.50" r="3.2" fill="#1d4ed8"/>
<circle cx="527.17" cy="517.50" r="3.2" fill="#1d4ed8"/>
<circle cx="532.99" cy="517.50" r="3.2" fill="#1d4ed8"/>
<circle cx="538.82" cy="517.50" r="3.2" fill="#1d4ed8"/>
<circle cx="544.65" cy="517.50" r="3.2" fill="#1d4ed8"/>
<circle cx="550.48" cy="517.50" r="3.2" fill="#1d4ed8"/>
<circle cx="556.31" cy="517.10" r="3.2" fill="#1d4ed8"/>
<circle cx="562.14" cy="516.69" r="3.2" fill="#1d4ed8"/>
<circle cx="567.97" cy="515.48" r="3.2" fill="#1d4ed8"/>
<circle cx="573.80" cy="515.07" r="3.2" fill="#1d4ed8"/>
<circle cx="579.63" cy="514.67" r="3.2" fill="#1d4ed8"/>
<circle cx="585.45" cy="513.86" r="3.2" fill="#1d4ed8"/>
<circle cx="591.28" cy="514.26" r="3.2" fill="#1d4ed8"/>
<circle cx="597.11" cy="512.24" r="3.2" fill="#1d4ed8"/>
<circle cx="602.94" cy="511.84" r="3.2" fill="#1d4ed8"/>
<circle cx="608.77" cy="511.84" r="3.2" fill="#1d4ed8"/>
<circle cx="614.60" cy="511.03" r="3.2" fill="#1d4ed8"/>
<circle cx="620.43" cy="509.82" r="3.2" fill="#1d4ed8"/>
<circle cx="626.26" cy="507.79" r="3.2" fill="#1d4ed8"/>
<circle cx="632.09" cy="506.99" r="3.2" fill="#1d4ed8"/>
<circle cx="637.91" cy="506.58" r="3.2" fill="#1d4ed8"/>
<circle cx="643.74" cy="509.41" r="3.2" fill="#1d4ed8"/>
<circle cx="649.57" cy="509.01" r="3.2" fill="#1d4ed8"/>
<circle cx="655.40" cy="504.96" r="3.2" fill="#1d4ed8"/>
<circle cx="661.23" cy="504.56" r="3.2" fill="#1d4ed8"/>
<circle cx="667.06" cy="504.15" r="3.2" fill="#1d4ed8"/>
<circle cx="672.89" cy="504.56" r="3.2" fill="#1d4ed8"/>
<circle cx="678.72" cy="503.75" r="3.2" fill="#1d4ed8"/>
<circle cx="684.55" cy="503.75" r="3.2" fill="#1d4ed8"/>
<circle cx="690.37" cy="503.35" r="3.2" fill="#1d4ed8"/>
<circle cx="696.20" cy="499.30" r="3.2" fill="#1d4ed8"/>
<circle cx="702.03" cy="496.47" r="3.2" fill="#1d4ed8"/>
<circle cx="707.86" cy="490.00" r="3.2" fill="#1d4ed8"/>
<circle cx="713.69" cy="484.34" r="3.2" fill="#1d4ed8"/>
<circle cx="719.52" cy="481.10" r="3.2" fill="#1d4ed8"/>
<circle cx="725.35" cy="480.29" r="3.2" fill="#1d4ed8"/>
<circle cx="731.18" cy="480.70" r="3.2" fill="#1d4ed8"/>
<circle cx="737.01" cy="460.88" r="3.2" fill="#1d4ed8"/>
<circle cx="742.83" cy="459.26" r="3.2" fill="#1d4ed8"/>
<circle cx="748.66" cy="458.05" r="3.2" fill="#1d4ed8"/>
<circle cx="754.49" cy="456.03" r="3.2" fill="#1d4ed8"/>
<circle cx="760.32" cy="456.03" r="3.2" fill="#1d4ed8"/>
<circle cx="766.15" cy="454.41" r="3.2" fill="#1d4ed8"/>
<circle cx="771.98" cy="450.77" r="3.2" fill="#1d4ed8"/>
<circle cx="777.81" cy="444.30" r="3.2" fill="#1d4ed8"/>
<circle cx="783.64" cy="443.90" r="3.2" fill="#1d4ed8"/>
<circle cx="789.47" cy="600.00" r="3.2" fill="#1d4ed8"/>
<circle cx="795.29" cy="441.88" r="3.2" fill="#1d4ed8"/>
<circle cx="801.12" cy="440.66" r="3.2" fill="#1d4ed8"/>
<circle cx="806.95" cy="439.45" r="3.2" fill="#1d4ed8"/>
<circle cx="812.78" cy="439.04" r="3.2" fill="#1d4ed8"/>
<circle cx="818.61" cy="438.64" r="3.2" fill="#1d4ed8"/>
<circle cx="824.44" cy="437.83" r="3.2" fill="#1d4ed8"/>
<circle cx="830.27" cy="436.62" r="3.2" fill="#1d4ed8"/>
<circle cx="836.10" cy="436.62" r="3.2" fill="#1d4ed8"/>
<circle cx="841.93" cy="434.60" r="3.2" fill="#1d4ed8"/>
<circle cx="847.75" cy="432.17" r="3.2" fill="#1d4ed8"/>
<circle cx="853.58" cy="429.34" r="3.2" fill="#1d4ed8"/>
<circle cx="859.41" cy="428.93" r="3.2" fill="#1d4ed8"/>
<circle cx="865.24" cy="428.53" r="3.2" fill="#1d4ed8"/>
<circle cx="871.07" cy="427.72" r="3.2" fill="#1d4ed8"/>
<circle cx="876.90" cy="426.91" r="3.2" fill="#1d4ed8"/>
<circle cx="882.73" cy="426.10" r="3.2" fill="#1d4ed8"/>
<circle cx="888.56" cy="426.10" r="3.2" fill="#1d4ed8"/>
<circle cx="894.39" cy="426.10" r="3.2" fill="#1d4ed8"/>
<circle cx="900.21" cy="419.63" r="3.2" fill="#1d4ed8"/>
<circle cx="906.04" cy="419.23" r="3.2" fill="#1d4ed8"/>
<circle cx="911.87" cy="418.42" r="3.2" fill="#1d4ed8"/>
<circle cx="917.70" cy="418.01" r="3.2" fill="#1d4ed8"/>
<circle cx="923.53" cy="417.61" r="3.2" fill="#1d4ed8"/>
<circle cx="929.36" cy="417.61" r="3.2" fill="#1d4ed8"/>
<circle cx="935.19" cy="417.61" r="3.2" fill="#1d4ed8"/>
<circle cx="941.02" cy="417.21" r="3.2" fill="#1d4ed8"/>
<circle cx="946.84" cy="417.21" r="3.2" fill="#1d4ed8"/>
<circle cx="952.67" cy="413.57" r="3.2" fill="#1d4ed8"/>
<circle cx="958.50" cy="411.95" r="3.2" fill="#1d4ed8"/>
<circle cx="964.33" cy="412.76" r="3.2" fill="#1d4ed8"/>
<circle cx="970.16" cy="410.74" r="3.2" fill="#1d4ed8"/>
<circle cx="975.99" cy="410.74" r="3.2" fill="#1d4ed8"/>
<circle cx="981.82" cy="410.33" r="3.2" fill="#1d4ed8"/>
<circle cx="987.65" cy="410.33" r="3.2" fill="#1d4ed8"/>
<circle cx="993.48" cy="410.33" r="3.2" fill="#1d4ed8"/>
<circle cx="999.30" cy="409.93" r="3.2" fill="#1d4ed8"/>
<circle cx="1005.13" cy="409.93" r="3.2" fill="#1d4ed8"/>
<circle cx="1010.96" cy="409.93" r="3.2" fill="#1d4ed8"/>
<circle cx="1016.79" cy="409.52" r="3.2" fill="#1d4ed8"/>
<circle cx="1022.62" cy="409.52" r="3.2" fill="#1d4ed8"/>
<circle cx="1028.45" cy="409.12" r="3.2" fill="#1d4ed8"/>
<circle cx="1034.28" cy="409.52" r="3.2" fill="#1d4ed8"/>
<circle cx="1040.11" cy="409.12" r="3.2" fill="#1d4ed8"/>
<circle cx="1045.94" cy="407.50" r="3.2" fill="#1d4ed8"/>
<circle cx="1051.76" cy="407.10" r="3.2" fill="#1d4ed8"/>
<circle cx="1057.59" cy="403.05" r="3.2" fill="#1d4ed8"/>
<circle cx="1063.42" cy="399.82" r="3.2" fill="#1d4ed8"/>
<circle cx="1069.25" cy="400.22" r="3.2" fill="#1d4ed8"/>
<circle cx="1075.08" cy="400.62" r="3.2" fill="#1d4ed8"/>
<circle cx="1080.91" cy="400.62" r="3.2" fill="#1d4ed8"/>
<circle cx="1086.74" cy="399.41" r="3.2" fill="#1d4ed8"/>
<circle cx="1092.57" cy="392.94" r="3.2" fill="#1d4ed8"/>
<circle cx="1098.40" cy="391.32" r="3.2" fill="#1d4ed8"/>
<circle cx="1104.22" cy="389.30" r="3.2" fill="#1d4ed8"/>
<circle cx="1110.05" cy="389.30" r="3.2" fill="#1d4ed8"/>
<circle cx="1115.88" cy="388.49" r="3.2" fill="#1d4ed8"/>
<circle cx="1121.71" cy="375.15" r="3.2" fill="#1d4ed8"/>
<circle cx="1127.54" cy="374.74" r="3.2" fill="#1d4ed8"/>
<circle cx="1133.37" cy="374.74" r="3.2" fill="#1d4ed8"/>
<circle cx="1139.20" cy="374.74" r="3.2" fill="#1d4ed8"/>
<circle cx="1145.03" cy="374.74" r="3.2" fill="#1d4ed8"/>
<circle cx="1150.86" cy="374.34" r="3.2" fill="#1d4ed8"/>
<circle cx="1156.68" cy="374.34" r="3.2" fill="#1d4ed8"/>
<circle cx="1162.51" cy="374.34" r="3.2" fill="#1d4ed8"/>
<circle cx="1168.34" cy="374.34" r="3.2" fill="#1d4ed8"/>
<circle cx="1174.17" cy="374.34" r="3.2" fill="#1d4ed8"/>
<circle cx="1180.00" cy="373.93" r="3.2" fill="#1d4ed8"/>
<text x="635" y="695" text-anchor="middle" font-size="14" fill="#111" font-family="sans-serif">Date</text>
<text x="24" y="325" text-anchor="middle" font-size="14" fill="#111" transform="rotate(-90 24,325)" font-family="sans-serif">Passed files</text>
</svg>
