<?xml version="1.0" encoding="UTF-8"?>
<svg xmlns="http://www.w3.org/2000/svg" width="1280" height="720" viewBox="0 0 1280 720">
<rect width="100%" height="100%" fill="#ffffff"/>
<text x="640" y="30" text-anchor="middle" font-size="22" font-family="sans-serif">Roast passed files history</text>
<line x1="90" y1="600" x2="1180" y2="600" stroke="#333" stroke-width="1.5"/>
<line x1="90" y1="50" x2="90" y2="600" stroke="#333" stroke-width="1.5"/>
<line x1="90" y1="600.00" x2="1180" y2="600.00" stroke="#e5e7eb" stroke-width="1"/>
<text x="78" y="605.00" text-anchor="end" font-size="12" fill="#111" font-family="sans-serif">0</text>
<line x1="90" y1="397.79" x2="1180" y2="397.79" stroke="#e5e7eb" stroke-width="1"/>
<text x="78" y="402.79" text-anchor="end" font-size="12" fill="#111" font-family="sans-serif">500</text>
<line x1="90" y1="195.59" x2="1180" y2="195.59" stroke="#e5e7eb" stroke-width="1"/>
<text x="78" y="200.59" text-anchor="end" font-size="12" fill="#111" font-family="sans-serif">1000</text>
<line x1="90.00" y1="600" x2="90.00" y2="606" stroke="#333" stroke-width="1"/>
<text x="90.00" y="624" text-anchor="end" font-size="11" fill="#111" transform="rotate(-40 90.00,624)" font-family="sans-serif">2026-02-12</text>
<line x1="224.61" y1="600" x2="224.61" y2="606" stroke="#333" stroke-width="1"/>
<text x="224.61" y="624" text-anchor="end" font-size="11" fill="#111" transform="rotate(-40 224.61,624)" font-family="sans-serif">2026-02-17</text>
<line x1="359.22" y1="600" x2="359.22" y2="606" stroke="#333" stroke-width="1"/>
<text x="359.22" y="624" text-anchor="end" font-size="11" fill="#111" transform="rotate(-40 359.22,624)" font-family="sans-serif">2026-02-21</text>
<line x1="493.83" y1="600" x2="493.83" y2="606" stroke="#333" stroke-width="1"/>
<text x="493.83" y="624" text-anchor="end" font-size="11" fill="#111" transform="rotate(-40 493.83,624)" font-family="sans-serif">2026-02-25</text>
<line x1="628.43" y1="600" x2="628.43" y2="606" stroke="#333" stroke-width="1"/>
<text x="628.43" y="624" text-anchor="end" font-size="11" fill="#111" transform="rotate(-40 628.43,624)" font-family="sans-serif">2026-02-27</text>
<line x1="763.04" y1="600" x2="763.04" y2="606" stroke="#333" stroke-width="1"/>
<text x="763.04" y="624" text-anchor="end" font-size="11" fill="#111" transform="rotate(-40 763.04,624)" font-family="sans-serif">2026-03-01</text>
<line x1="897.65" y1="600" x2="897.65" y2="606" stroke="#333" stroke-width="1"/>
<text x="897.65" y="624" text-anchor="end" font-size="11" fill="#111" transform="rotate(-40 897.65,624)" font-family="sans-serif">2026-03-06</text>
<line x1="1032.26" y1="600" x2="1032.26" y2="606" stroke="#333" stroke-width="1"/>
<text x="1032.26" y="624" text-anchor="end" font-size="11" fill="#111" transform="rotate(-40 1032.26,624)" font-family="sans-serif">2026-03-07</text>
<line x1="1166.87" y1="600" x2="1166.87" y2="606" stroke="#333" stroke-width="1"/>
<text x="1166.87" y="624" text-anchor="end" font-size="11" fill="#111" transform="rotate(-40 1166.87,624)" font-family="sans-serif">2026-03-11</text>
<line x1="1180.00" y1="600" x2="1180.00" y2="606" stroke="#333" stroke-width="1"/>
<text x="1180.00" y="624" text-anchor="end" font-size="11" fill="#111" transform="rotate(-40 1180.00,624)" font-family="sans-serif">2026-03-11</text>
<line x1="90" y1="75.88" x2="1180" y2="75.88" stroke="#dc2626" stroke-width="1.5" stroke-dasharray="8,4"/>
<text x="1184" y="79.88" font-size="12" fill="#dc2626" font-family="sans-serif">Goal: 1296</text>
<polyline fill="none" stroke="#2563eb" stroke-width="3" points="90.00,540.55 93.28,538.53 96.57,536.91 99.85,534.49 103.13,534.49 106.42,533.27 109.70,532.46 112.98,532.87 116.27,532.06 119.55,532.46 122.83,532.06 126.11,568.46 129.40,568.46 132.68,566.43 135.96,545.00 139.25,545.00 142.53,544.19 145.81,543.79 149.10,543.79 152.38,543.38 155.66,541.76 158.95,541.36 162.23,540.96 165.51,540.96 168.80,539.34 172.08,539.34 175.36,556.73 178.64,556.73 181.93,555.51 185.21,551.07 188.49,538.93 191.78,538.93 195.06,538.93 198.34,538.12 201.63,536.91 204.91,536.91 208.19,536.51 211.48,536.51 214.76,556.73 218.04,556.73 221.33,556.73 224.61,556.73 227.89,535.29 231.17,535.29 234.46,535.29 237.74,535.29 241.02,534.49 244.31,534.08 247.59,533.68 250.87,532.87 254.16,532.06 257.44,532.06 260.72,531.25 264.01,530.85 267.29,530.44 270.57,530.04 273.86,530.04 277.14,529.23 280.42,529.23 283.70,529.23 286.99,528.42 290.27,528.42 293.55,527.61 296.84,527.21 300.12,526.80 303.40,526.40 306.69,525.18 309.97,523.57 313.25,523.57 316.54,523.16 319.82,522.76 323.10,522.35 326.39,521.54 329.67,519.52 332.95,517.50 336.23,517.50 339.52,517.50 342.80,517.50 346.08,517.50 349.37,517.50 352.65,517.10 355.93,516.69 359.22,515.48 362.50,515.07 365.78,514.67 369.07,513.86 372.35,514.26 375.63,512.24 378.92,511.84 382.20,511.84 385.48,511.03 388.77,509.82 392.05,507.79 395.33,506.99 398.61,506.58 401.90,509.41 405.18,509.01 408.46,504.96 411.75,504.56 415.03,504.15 418.31,504.56 421.60,503.75 424.88,503.75 428.16,503.35 431.45,499.30 434.73,496.47 438.01,490.00 441.30,484.34 444.58,481.10 447.86,480.29 451.14,480.70 454.43,460.88 457.71,459.26 460.99,458.05 464.28,456.03 467.56,456.03 470.84,454.41 474.13,450.77 477.41,444.30 480.69,443.90 483.98,600.00 487.26,441.88 490.54,440.66 493.83,439.45 497.11,439.04 500.39,438.64 503.67,437.83 506.96,436.62 510.24,436.62 513.52,434.60 516.81,432.17 520.09,429.34 523.37,428.93 526.66,428.53 529.94,427.72 533.22,426.91 536.51,426.10 539.79,426.10 543.07,426.10 546.36,419.63 549.64,419.23 552.92,418.42 556.20,418.01 559.49,417.61 562.77,417.61 566.05,417.61 569.34,417.21 572.62,417.21 575.90,413.57 579.19,411.95 582.47,412.76 585.75,410.74 589.04,410.74 592.32,410.33 595.60,410.33 598.89,410.33 602.17,409.93 605.45,409.93 608.73,409.93 612.02,409.52 615.30,409.52 618.58,409.12 621.87,409.52 625.15,409.12 628.43,407.50 631.72,407.10 635.00,403.05 638.28,399.82 641.57,400.22 644.85,400.62 648.13,400.62 651.42,399.41 654.70,392.94 657.98,391.32 661.27,389.30 664.55,389.30 667.83,388.49 671.11,375.15 674.40,374.74 677.68,374.74 680.96,374.74 684.25,374.74 687.53,374.34 690.81,374.34 694.10,374.34 697.38,374.34 700.66,374.34 703.95,373.93 707.23,373.12 710.51,372.72 713.80,373.53 717.08,435.81 720.36,372.32 723.64,372.72 726.93,371.91 730.21,371.91 733.49,372.32 736.78,371.10 740.06,369.89 743.34,369.89 746.63,369.89 749.91,369.49 753.19,369.89 756.48,369.08 759.76,368.68 763.04,368.27 766.33,367.87 769.61,367.06 772.89,367.46 776.17,367.06 779.46,366.25 782.74,368.27 786.02,368.68 789.31,368.68 792.59,368.27 795.87,369.08 799.16,367.87 802.44,367.46 805.72,367.06 809.01,360.18 812.29,359.78 815.57,359.38 818.86,356.95 822.14,357.35 825.42,357.76 828.70,355.33 831.99,355.74 835.27,357.35 838.55,355.33 841.84,356.14 845.12,355.74 848.40,356.14 851.69,354.12 854.97,354.93 858.25,356.14 861.54,354.52 864.82,353.71 868.10,354.12 871.39,354.93 874.67,352.90 877.95,353.71 881.23,353.31 884.52,353.31 887.80,354.52 891.08,352.90 894.37,352.50 897.65,352.50 900.93,353.31 904.22,352.50 907.50,353.71 910.78,354.12 914.07,352.50 917.35,352.90 920.63,352.50 923.92,352.10 927.20,351.69 930.48,352.10 933.77,354.12 937.05,352.50 940.33,352.10 943.61,352.10 946.90,349.67 950.18,349.67 953.46,350.88 956.75,351.29 960.03,350.48 963.31,352.10 966.60,350.48 969.88,350.48 973.16,350.48 976.45,350.07 979.73,348.46 983.01,351.29 986.30,349.67 989.58,351.29 992.86,349.67 996.14,348.86 999.43,348.46 1002.71,348.46 1005.99,347.24 1009.28,348.86 1012.56,346.84 1015.84,348.46 1019.13,348.86 1022.41,346.84 1025.69,349.26 1028.98,348.05 1032.26,349.26 1035.54,349.26 1038.83,350.48 1042.11,352.90 1045.39,349.67 1048.67,348.46 1051.96,345.62 1055.24,344.82 1058.52,344.41 1061.81,342.39 1065.09,341.18 1068.37,341.58 1071.66,339.15 1074.94,338.35 1078.22,337.54 1081.51,336.73 1084.79,335.92 1088.07,337.54 1091.36,338.35 1094.64,337.54 1097.92,337.54 1101.20,337.54 1104.49,333.09 1107.77,333.90 1111.05,335.92 1114.34,336.73 1117.62,335.51 1120.90,332.28 1124.19,331.47 1127.47,331.07 1130.75,331.47 1134.04,331.07 1137.32,331.07 1140.60,331.07 1143.89,331.07 1147.17,331.07 1150.45,331.07 1153.73,331.07 1157.02,331.07 1160.30,331.07 1163.58,331.07 1166.87,331.47 1170.15,331.88 1173.43,331.07 1176.72,331.47 1180.00,331.07"/>
<circle cx="90.00" cy="540.55" r="3.2" fill="#1d4ed8"/>
<circle cx="93.28" cy="538.53" r="3.2" fill="#1d4ed8"/>
<circle cx="96.57" cy="536.91" r="3.2" fill="#1d4ed8"/>
<circle cx="99.85" cy="534.49" r="3.2" fill="#1d4ed8"/>
<circle cx="103.13" cy="534.49" r="3.2" fill="#1d4ed8"/>
<circle cx="106.42" cy="533.27" r="3.2" fill="#1d4ed8"/>
<circle cx="109.70" cy="532.46" r="3.2" fill="#1d4ed8"/>
<circle cx="112.98" cy="532.87" r="3.2" fill="#1d4ed8"/>
<circle cx="116.27" cy="532.06" r="3.2" fill="#1d4ed8"/>
<circle cx="119.55" cy="532.46" r="3.2" fill="#1d4ed8"/>
<circle cx="122.83" cy="532.06" r="3.2" fill="#1d4ed8"/>
<circle cx="126.11" cy="568.46" r="3.2" fill="#1d4ed8"/>
<circle cx="129.40" cy="568.46" r="3.2" fill="#1d4ed8"/>
<circle cx="132.68" cy="566.43" r="3.2" fill="#1d4ed8"/>
<circle cx="135.96" cy="545.00" r="3.2" fill="#1d4ed8"/>
<circle cx="139.25" cy="545.00" r="3.2" fill="#1d4ed8"/>
<circle cx="142.53" cy="544.19" r="3.2" fill="#1d4ed8"/>
<circle cx="145.81" cy="543.79" r="3.2" fill="#1d4ed8"/>
<circle cx="149.10" cy="543.79" r="3.2" fill="#1d4ed8"/>
<circle cx="152.38" cy="543.38" r="3.2" fill="#1d4ed8"/>
<circle cx="155.66" cy="541.76" r="3.2" fill="#1d4ed8"/>
<circle cx="158.95" cy="541.36" r="3.2" fill="#1d4ed8"/>
<circle cx="162.23" cy="540.96" r="3.2" fill="#1d4ed8"/>
<circle cx="165.51" cy="540.96" r="3.2" fill="#1d4ed8"/>
<circle cx="168.80" cy="539.34" r="3.2" fill="#1d4ed8"/>
<circle cx="172.08" cy="539.34" r="3.2" fill="#1d4ed8"/>
<circle cx="175.36" cy="556.73" r="3.2" fill="#1d4ed8"/>
<circle cx="178.64" cy="556.73" r="3.2" fill="#1d4ed8"/>
<circle cx="181.93" cy="555.51" r="3.2" fill="#1d4ed8"/>
<circle cx="185.21" cy="551.07" r="3.2" fill="#1d4ed8"/>
<circle cx="188.49" cy="538.93" r="3.2" fill="#1d4ed8"/>
<circle cx="191.78" cy="538.93" r="3.2" fill="#1d4ed8"/>
<circle cx="195.06" cy="538.93" r="3.2" fill="#1d4ed8"/>
<circle cx="198.34" cy="538.12" r="3.2" fill="#1d4ed8"/>
<circle cx="201.63" cy="536.91" r="3.2" fill="#1d4ed8"/>
<circle cx="204.91" cy="536.91" r="3.2" fill="#1d4ed8"/>
<circle cx="208.19" cy="536.51" r="3.2" fill="#1d4ed8"/>
<circle cx="211.48" cy="536.51" r="3.2" fill="#1d4ed8"/>
<circle cx="214.76" cy="556.73" r="3.2" fill="#1d4ed8"/>
<circle cx="218.04" cy="556.73" r="3.2" fill="#1d4ed8"/>
<circle cx="221.33" cy="556.73" r="3.2" fill="#1d4ed8"/>
<circle cx="224.61" cy="556.73" r="3.2" fill="#1d4ed8"/>
<circle cx="227.89" cy="535.29" r="3.2" fill="#1d4ed8"/>
<circle cx="231.17" cy="535.29" r="3.2" fill="#1d4ed8"/>
<circle cx="234.46" cy="535.29" r="3.2" fill="#1d4ed8"/>
<circle cx="237.74" cy="535.29" r="3.2" fill="#1d4ed8"/>
<circle cx="241.02" cy="534.49" r="3.2" fill="#1d4ed8"/>
<circle cx="244.31" cy="534.08" r="3.2" fill="#1d4ed8"/>
<circle cx="247.59" cy="533.68" r="3.2" fill="#1d4ed8"/>
<circle cx="250.87" cy="532.87" r="3.2" fill="#1d4ed8"/>
<circle cx="254.16" cy="532.06" r="3.2" fill="#1d4ed8"/>
<circle cx="257.44" cy="532.06" r="3.2" fill="#1d4ed8"/>
<circle cx="260.72" cy="531.25" r="3.2" fill="#1d4ed8"/>
<circle cx="264.01" cy="530.85" r="3.2" fill="#1d4ed8"/>
<circle cx="267.29" cy="530.44" r="3.2" fill="#1d4ed8"/>
<circle cx="270.57" cy="530.04" r="3.2" fill="#1d4ed8"/>
<circle cx="273.86" cy="530.04" r="3.2" fill="#1d4ed8"/>
<circle cx="277.14" cy="529.23" r="3.2" fill="#1d4ed8"/>
<circle cx="280.42" cy="529.23" r="3.2" fill="#1d4ed8"/>
<circle cx="283.70" cy="529.23" r="3.2" fill="#1d4ed8"/>
<circle cx="286.99" cy="528.42" r="3.2" fill="#1d4ed8"/>
<circle cx="290.27" cy="528.42" r="3.2" fill="#1d4ed8"/>
<circle cx="293.55" cy="527.61" r="3.2" fill="#1d4ed8"/>
<circle cx="296.84" cy="527.21" r="3.2" fill="#1d4ed8"/>
<circle cx="300.12" cy="526.80" r="3.2" fill="#1d4ed8"/>
<circle cx="303.40" cy="526.40" r="3.2" fill="#1d4ed8"/>
<circle cx="306.69" cy="525.18" r="3.2" fill="#1d4ed8"/>
<circle cx="309.97" cy="523.57" r="3.2" fill="#1d4ed8"/>
<circle cx="313.25" cy="523.57" r="3.2" fill="#1d4ed8"/>
<circle cx="316.54" cy="523.16" r="3.2" fill="#1d4ed8"/>
<circle cx="319.82" cy="522.76" r="3.2" fill="#1d4ed8"/>
<circle cx="323.10" cy="522.35" r="3.2" fill="#1d4ed8"/>
<circle cx="326.39" cy="521.54" r="3.2" fill="#1d4ed8"/>
<circle cx="329.67" cy="519.52" r="3.2" fill="#1d4ed8"/>
<circle cx="332.95" cy="517.50" r="3.2" fill="#1d4ed8"/>
<circle cx="336.23" cy="517.50" r="3.2" fill="#1d4ed8"/>
<circle cx="339.52" cy="517.50" r="3.2" fill="#1d4ed8"/>
<circle cx="342.80" cy="517.50" r="3.2" fill="#1d4ed8"/>
<circle cx="346.08" cy="517.50" r="3.2" fill="#1d4ed8"/>
<circle cx="349.37" cy="517.50" r="3.2" fill="#1d4ed8"/>
<circle cx="352.65" cy="517.10" r="3.2" fill="#1d4ed8"/>
<circle cx="355.93" cy="516.69" r="3.2" fill="#1d4ed8"/>
<circle cx="359.22" cy="515.48" r="3.2" fill="#1d4ed8"/>
<circle cx="362.50" cy="515.07" r="3.2" fill="#1d4ed8"/>
<circle cx="365.78" cy="514.67" r="3.2" fill="#1d4ed8"/>
<circle cx="369.07" cy="513.86" r="3.2" fill="#1d4ed8"/>
<circle cx="372.35" cy="514.26" r="3.2" fill="#1d4ed8"/>
<circle cx="375.63" cy="512.24" r="3.2" fill="#1d4ed8"/>
<circle cx="378.92" cy="511.84" r="3.2" fill="#1d4ed8"/>
<circle cx="382.20" cy="511.84" r="3.2" fill="#1d4ed8"/>
<circle cx="385.48" cy="511.03" r="3.2" fill="#1d4ed8"/>
<circle cx="388.77" cy="509.82" r="3.2" fill="#1d4ed8"/>
<circle cx="392.05" cy="507.79" r="3.2" fill="#1d4ed8"/>
<circle cx="395.33" cy="506.99" r="3.2" fill="#1d4ed8"/>
<circle cx="398.61" cy="506.58" r="3.2" fill="#1d4ed8"/>
<circle cx="401.90" cy="509.41" r="3.2" fill="#1d4ed8"/>
<circle cx="405.18" cy="509.01" r="3.2" fill="#1d4ed8"/>
<circle cx="408.46" cy="504.96" r="3.2" fill="#1d4ed8"/>
<circle cx="411.75" cy="504.56" r="3.2" fill="#1d4ed8"/>
<circle cx="415.03" cy="504.15" r="3.2" fill="#1d4ed8"/>
<circle cx="418.31" cy="504.56" r="3.2" fill="#1d4ed8"/>
<circle cx="421.60" cy="503.75" r="3.2" fill="#1d4ed8"/>
<circle cx="424.88" cy="503.75" r="3.2" fill="#1d4ed8"/>
<circle cx="428.16" cy="503.35" r="3.2" fill="#1d4ed8"/>
<circle cx="431.45" cy="499.30" r="3.2" fill="#1d4ed8"/>
<circle cx="434.73" cy="496.47" r="3.2" fill="#1d4ed8"/>
<circle cx="438.01" cy="490.00" r="3.2" fill="#1d4ed8"/>
<circle cx="441.30" cy="484.34" r="3.2" fill="#1d4ed8"/>
<circle cx="444.58" cy="481.10" r="3.2" fill="#1d4ed8"/>
<circle cx="447.86" cy="480.29" r="3.2" fill="#1d4ed8"/>
<circle cx="451.14" cy="480.70" r="3.2" fill="#1d4ed8"/>
<circle cx="454.43" cy="460.88" r="3.2" fill="#1d4ed8"/>
<circle cx="457.71" cy="459.26" r="3.2" fill="#1d4ed8"/>
<circle cx="460.99" cy="458.05" r="3.2" fill="#1d4ed8"/>
<circle cx="464.28" cy="456.03" r="3.2" fill="#1d4ed8"/>
<circle cx="467.56" cy="456.03" r="3.2" fill="#1d4ed8"/>
<circle cx="470.84" cy="454.41" r="3.2" fill="#1d4ed8"/>
<circle cx="474.13" cy="450.77" r="3.2" fill="#1d4ed8"/>
<circle cx="477.41" cy="444.30" r="3.2" fill="#1d4ed8"/>
<circle cx="480.69" cy="443.90" r="3.2" fill="#1d4ed8"/>
<circle cx="483.98" cy="600.00" r="3.2" fill="#1d4ed8"/>
<circle cx="487.26" cy="441.88" r="3.2" fill="#1d4ed8"/>
<circle cx="490.54" cy="440.66" r="3.2" fill="#1d4ed8"/>
<circle cx="493.83" cy="439.45" r="3.2" fill="#1d4ed8"/>
<circle cx="497.11" cy="439.04" r="3.2" fill="#1d4ed8"/>
<circle cx="500.39" cy="438.64" r="3.2" fill="#1d4ed8"/>
<circle cx="503.67" cy="437.83" r="3.2" fill="#1d4ed8"/>
<circle cx="506.96" cy="436.62" r="3.2" fill="#1d4ed8"/>
<circle cx="510.24" cy="436.62" r="3.2" fill="#1d4ed8"/>
<circle cx="513.52" cy="434.60" r="3.2" fill="#1d4ed8"/>
<circle cx="516.81" cy="432.17" r="3.2" fill="#1d4ed8"/>
<circle cx="520.09" cy="429.34" r="3.2" fill="#1d4ed8"/>
<circle cx="523.37" cy="428.93" r="3.2" fill="#1d4ed8"/>
<circle cx="526.66" cy="428.53" r="3.2" fill="#1d4ed8"/>
<circle cx="529.94" cy="427.72" r="3.2" fill="#1d4ed8"/>
<circle cx="533.22" cy="426.91" r="3.2" fill="#1d4ed8"/>
<circle cx="536.51" cy="426.10" r="3.2" fill="#1d4ed8"/>
<circle cx="539.79" cy="426.10" r="3.2" fill="#1d4ed8"/>
<circle cx="543.07" cy="426.10" r="3.2" fill="#1d4ed8"/>
<circle cx="546.36" cy="419.63" r="3.2" fill="#1d4ed8"/>
<circle cx="549.64" cy="419.23" r="3.2" fill="#1d4ed8"/>
<circle cx="552.92" cy="418.42" r="3.2" fill="#1d4ed8"/>
<circle cx="556.20" cy="418.01" r="3.2" fill="#1d4ed8"/>
<circle cx="559.49" cy="417.61" r="3.2" fill="#1d4ed8"/>
<circle cx="562.77" cy="417.61" r="3.2" fill="#1d4ed8"/>
<circle cx="566.05" cy="417.61" r="3.2" fill="#1d4ed8"/>
<circle cx="569.34" cy="417.21" r="3.2" fill="#1d4ed8"/>
<circle cx="572.62" cy="417.21" r="3.2" fill="#1d4ed8"/>
<circle cx="575.90" cy="413.57" r="3.2" fill="#1d4ed8"/>
<circle cx="579.19" cy="411.95" r="3.2" fill="#1d4ed8"/>
<circle cx="582.47" cy="412.76" r="3.2" fill="#1d4ed8"/>
<circle cx="585.75" cy="410.74" r="3.2" fill="#1d4ed8"/>
<circle cx="589.04" cy="410.74" r="3.2" fill="#1d4ed8"/>
<circle cx="592.32" cy="410.33" r="3.2" fill="#1d4ed8"/>
<circle cx="595.60" cy="410.33" r="3.2" fill="#1d4ed8"/>
<circle cx="598.89" cy="410.33" r="3.2" fill="#1d4ed8"/>
<circle cx="602.17" cy="409.93" r="3.2" fill="#1d4ed8"/>
<circle cx="605.45" cy="409.93" r="3.2" fill="#1d4ed8"/>
<circle cx="608.73" cy="409.93" r="3.2" fill="#1d4ed8"/>
<circle cx="612.02" cy="409.52" r="3.2" fill="#1d4ed8"/>
<circle cx="615.30" cy="409.52" r="3.2" fill="#1d4ed8"/>
<circle cx="618.58" cy="409.12" r="3.2" fill="#1d4ed8"/>
<circle cx="621.87" cy="409.52" r="3.2" fill="#1d4ed8"/>
<circle cx="625.15" cy="409.12" r="3.2" fill="#1d4ed8"/>
<circle cx="628.43" cy="407.50" r="3.2" fill="#1d4ed8"/>
<circle cx="631.72" cy="407.10" r="3.2" fill="#1d4ed8"/>
<circle cx="635.00" cy="403.05" r="3.2" fill="#1d4ed8"/>
<circle cx="638.28" cy="399.82" r="3.2" fill="#1d4ed8"/>
<circle cx="641.57" cy="400.22" r="3.2" fill="#1d4ed8"/>
<circle cx="644.85" cy="400.62" r="3.2" fill="#1d4ed8"/>
<circle cx="648.13" cy="400.62" r="3.2" fill="#1d4ed8"/>
<circle cx="651.42" cy="399.41" r="3.2" fill="#1d4ed8"/>
<circle cx="654.70" cy="392.94" r="3.2" fill="#1d4ed8"/>
<circle cx="657.98" cy="391.32" r="3.2" fill="#1d4ed8"/>
<circle cx="661.27" cy="389.30" r="3.2" fill="#1d4ed8"/>
<circle cx="664.55" cy="389.30" r="3.2" fill="#1d4ed8"/>
<circle cx="667.83" cy="388.49" r="3.2" fill="#1d4ed8"/>
<circle cx="671.11" cy="375.15" r="3.2" fill="#1d4ed8"/>
<circle cx="674.40" cy="374.74" r="3.2" fill="#1d4ed8"/>
<circle cx="677.68" cy="374.74" r="3.2" fill="#1d4ed8"/>
<circle cx="680.96" cy="374.74" r="3.2" fill="#1d4ed8"/>
<circle cx="684.25" cy="374.74" r="3.2" fill="#1d4ed8"/>
<circle cx="687.53" cy="374.34" r="3.2" fill="#1d4ed8"/>
<circle cx="690.81" cy="374.34" r="3.2" fill="#1d4ed8"/>
<circle cx="694.10" cy="374.34" r="3.2" fill="#1d4ed8"/>
<circle cx="697.38" cy="374.34" r="3.2" fill="#1d4ed8"/>
<circle cx="700.66" cy="374.34" r="3.2" fill="#1d4ed8"/>
<circle cx="703.95" cy="373.93" r="3.2" fill="#1d4ed8"/>
<circle cx="707.23" cy="373.12" r="3.2" fill="#1d4ed8"/>
<circle cx="710.51" cy="372.72" r="3.2" fill="#1d4ed8"/>
<circle cx="713.80" cy="373.53" r="3.2" fill="#1d4ed8"/>
<circle cx="717.08" cy="435.81" r="3.2" fill="#1d4ed8"/>
<circle cx="720.36" cy="372.32" r="3.2" fill="#1d4ed8"/>
<circle cx="723.64" cy="372.72" r="3.2" fill="#1d4ed8"/>
<circle cx="726.93" cy="371.91" r="3.2" fill="#1d4ed8"/>
<circle cx="730.21" cy="371.91" r="3.2" fill="#1d4ed8"/>
<circle cx="733.49" cy="372.32" r="3.2" fill="#1d4ed8"/>
<circle cx="736.78" cy="371.10" r="3.2" fill="#1d4ed8"/>
<circle cx="740.06" cy="369.89" r="3.2" fill="#1d4ed8"/>
<circle cx="743.34" cy="369.89" r="3.2" fill="#1d4ed8"/>
<circle cx="746.63" cy="369.89" r="3.2" fill="#1d4ed8"/>
<circle cx="749.91" cy="369.49" r="3.2" fill="#1d4ed8"/>
<circle cx="753.19" cy="369.89" r="3.2" fill="#1d4ed8"/>
<circle cx="756.48" cy="369.08" r="3.2" fill="#1d4ed8"/>
<circle cx="759.76" cy="368.68" r="3.2" fill="#1d4ed8"/>
<circle cx="763.04" cy="368.27" r="3.2" fill="#1d4ed8"/>
<circle cx="766.33" cy="367.87" r="3.2" fill="#1d4ed8"/>
<circle cx="769.61" cy="367.06" r="3.2" fill="#1d4ed8"/>
<circle cx="772.89" cy="367.46" r="3.2" fill="#1d4ed8"/>
<circle cx="776.17" cy="367.06" r="3.2" fill="#1d4ed8"/>
<circle cx="779.46" cy="366.25" r="3.2" fill="#1d4ed8"/>
<circle cx="782.74" cy="368.27" r="3.2" fill="#1d4ed8"/>
<circle cx="786.02" cy="368.68" r="3.2" fill="#1d4ed8"/>
<circle cx="789.31" cy="368.68" r="3.2" fill="#1d4ed8"/>
<circle cx="792.59" cy="368.27" r="3.2" fill="#1d4ed8"/>
<circle cx="795.87" cy="369.08" r="3.2" fill="#1d4ed8"/>
<circle cx="799.16" cy="367.87" r="3.2" fill="#1d4ed8"/>
<circle cx="802.44" cy="367.46" r="3.2" fill="#1d4ed8"/>
<circle cx="805.72" cy="367.06" r="3.2" fill="#1d4ed8"/>
<circle cx="809.01" cy="360.18" r="3.2" fill="#1d4ed8"/>
<circle cx="812.29" cy="359.78" r="3.2" fill="#1d4ed8"/>
<circle cx="815.57" cy="359.38" r="3.2" fill="#1d4ed8"/>
<circle cx="818.86" cy="356.95" r="3.2" fill="#1d4ed8"/>
<circle cx="822.14" cy="357.35" r="3.2" fill="#1d4ed8"/>
<circle cx="825.42" cy="357.76" r="3.2" fill="#1d4ed8"/>
<circle cx="828.70" cy="355.33" r="3.2" fill="#1d4ed8"/>
<circle cx="831.99" cy="355.74" r="3.2" fill="#1d4ed8"/>
<circle cx="835.27" cy="357.35" r="3.2" fill="#1d4ed8"/>
<circle cx="838.55" cy="355.33" r="3.2" fill="#1d4ed8"/>
<circle cx="841.84" cy="356.14" r="3.2" fill="#1d4ed8"/>
<circle cx="845.12" cy="355.74" r="3.2" fill="#1d4ed8"/>
<circle cx="848.40" cy="356.14" r="3.2" fill="#1d4ed8"/>
<circle cx="851.69" cy="354.12" r="3.2" fill="#1d4ed8"/>
<circle cx="854.97" cy="354.93" r="3.2" fill="#1d4ed8"/>
<circle cx="858.25" cy="356.14" r="3.2" fill="#1d4ed8"/>
<circle cx="861.54" cy="354.52" r="3.2" fill="#1d4ed8"/>
<circle cx="864.82" cy="353.71" r="3.2" fill="#1d4ed8"/>
<circle cx="868.10" cy="354.12" r="3.2" fill="#1d4ed8"/>
<circle cx="871.39" cy="354.93" r="3.2" fill="#1d4ed8"/>
<circle cx="874.67" cy="352.90" r="3.2" fill="#1d4ed8"/>
<circle cx="877.95" cy="353.71" r="3.2" fill="#1d4ed8"/>
<circle cx="881.23" cy="353.31" r="3.2" fill="#1d4ed8"/>
<circle cx="884.52" cy="353.31" r="3.2" fill="#1d4ed8"/>
<circle cx="887.80" cy="354.52" r="3.2" fill="#1d4ed8"/>
<circle cx="891.08" cy="352.90" r="3.2" fill="#1d4ed8"/>
<circle cx="894.37" cy="352.50" r="3.2" fill="#1d4ed8"/>
<circle cx="897.65" cy="352.50" r="3.2" fill="#1d4ed8"/>
<circle cx="900.93" cy="353.31" r="3.2" fill="#1d4ed8"/>
<circle cx="904.22" cy="352.50" r="3.2" fill="#1d4ed8"/>
<circle cx="907.50" cy="353.71" r="3.2" fill="#1d4ed8"/>
<circle cx="910.78" cy="354.12" r="3.2" fill="#1d4ed8"/>
<circle cx="914.07" cy="352.50" r="3.2" fill="#1d4ed8"/>
<circle cx="917.35" cy="352.90" r="3.2" fill="#1d4ed8"/>
<circle cx="920.63" cy="352.50" r="3.2" fill="#1d4ed8"/>
<circle cx="923.92" cy="352.10" r="3.2" fill="#1d4ed8"/>
<circle cx="927.20" cy="351.69" r="3.2" fill="#1d4ed8"/>
<circle cx="930.48" cy="352.10" r="3.2" fill="#1d4ed8"/>
<circle cx="933.77" cy="354.12" r="3.2" fill="#1d4ed8"/>
<circle cx="937.05" cy="352.50" r="3.2" fill="#1d4ed8"/>
<circle cx="940.33" cy="352.10" r="3.2" fill="#1d4ed8"/>
<circle cx="943.61" cy="352.10" r="3.2" fill="#1d4ed8"/>
<circle cx="946.90" cy="349.67" r="3.2" fill="#1d4ed8"/>
<circle cx="950.18" cy="349.67" r="3.2" fill="#1d4ed8"/>
<circle cx="953.46" cy="350.88" r="3.2" fill="#1d4ed8"/>
<circle cx="956.75" cy="351.29" r="3.2" fill="#1d4ed8"/>
<circle cx="960.03" cy="350.48" r="3.2" fill="#1d4ed8"/>
<circle cx="963.31" cy="352.10" r="3.2" fill="#1d4ed8"/>
<circle cx="966.60" cy="350.48" r="3.2" fill="#1d4ed8"/>
<circle cx="969.88" cy="350.48" r="3.2" fill="#1d4ed8"/>
<circle cx="973.16" cy="350.48" r="3.2" fill="#1d4ed8"/>
<circle cx="976.45" cy="350.07" r="3.2" fill="#1d4ed8"/>
<circle cx="979.73" cy="348.46" r="3.2" fill="#1d4ed8"/>
<circle cx="983.01" cy="351.29" r="3.2" fill="#1d4ed8"/>
<circle cx="986.30" cy="349.67" r="3.2" fill="#1d4ed8"/>
<circle cx="989.58" cy="351.29" r="3.2" fill="#1d4ed8"/>
<circle cx="992.86" cy="349.67" r="3.2" fill="#1d4ed8"/>
<circle cx="996.14" cy="348.86" r="3.2" fill="#1d4ed8"/>
<circle cx="999.43" cy="348.46" r="3.2" fill="#1d4ed8"/>
<circle cx="1002.71" cy="348.46" r="3.2" fill="#1d4ed8"/>
<circle cx="1005.99" cy="347.24" r="3.2" fill="#1d4ed8"/>
<circle cx="1009.28" cy="348.86" r="3.2" fill="#1d4ed8"/>
<circle cx="1012.56" cy="346.84" r="3.2" fill="#1d4ed8"/>
<circle cx="1015.84" cy="348.46" r="3.2" fill="#1d4ed8"/>
<circle cx="1019.13" cy="348.86" r="3.2" fill="#1d4ed8"/>
<circle cx="1022.41" cy="346.84" r="3.2" fill="#1d4ed8"/>
<circle cx="1025.69" cy="349.26" r="3.2" fill="#1d4ed8"/>
<circle cx="1028.98" cy="348.05" r="3.2" fill="#1d4ed8"/>
<circle cx="1032.26" cy="349.26" r="3.2" fill="#1d4ed8"/>
<circle cx="1035.54" cy="349.26" r="3.2" fill="#1d4ed8"/>
<circle cx="1038.83" cy="350.48" r="3.2" fill="#1d4ed8"/>
<circle cx="1042.11" cy="352.90" r="3.2" fill="#1d4ed8"/>
<circle cx="1045.39" cy="349.67" r="3.2" fill="#1d4ed8"/>
<circle cx="1048.67" cy="348.46" r="3.2" fill="#1d4ed8"/>
<circle cx="1051.96" cy="345.62" r="3.2" fill="#1d4ed8"/>
<circle cx="1055.24" cy="344.82" r="3.2" fill="#1d4ed8"/>
<circle cx="1058.52" cy="344.41" r="3.2" fill="#1d4ed8"/>
<circle cx="1061.81" cy="342.39" r="3.2" fill="#1d4ed8"/>
<circle cx="1065.09" cy="341.18" r="3.2" fill="#1d4ed8"/>
<circle cx="1068.37" cy="341.58" r="3.2" fill="#1d4ed8"/>
<circle cx="1071.66" cy="339.15" r="3.2" fill="#1d4ed8"/>
<circle cx="1074.94" cy="338.35" r="3.2" fill="#1d4ed8"/>
<circle cx="1078.22" cy="337.54" r="3.2" fill="#1d4ed8"/>
<circle cx="1081.51" cy="336.73" r="3.2" fill="#1d4ed8"/>
<circle cx="1084.79" cy="335.92" r="3.2" fill="#1d4ed8"/>
<circle cx="1088.07" cy="337.54" r="3.2" fill="#1d4ed8"/>
<circle cx="1091.36" cy="338.35" r="3.2" fill="#1d4ed8"/>
<circle cx="1094.64" cy="337.54" r="3.2" fill="#1d4ed8"/>
<circle cx="1097.92" cy="337.54" r="3.2" fill="#1d4ed8"/>
<circle cx="1101.20" cy="337.54" r="3.2" fill="#1d4ed8"/>
<circle cx="1104.49" cy="333.09" r="3.2" fill="#1d4ed8"/>
<circle cx="1107.77" cy="333.90" r="3.2" fill="#1d4ed8"/>
<circle cx="1111.05" cy="335.92" r="3.2" fill="#1d4ed8"/>
<circle cx="1114.34" cy="336.73" r="3.2" fill="#1d4ed8"/>
<circle cx="1117.62" cy="335.51" r="3.2" fill="#1d4ed8"/>
<circle cx="1120.90" cy="332.28" r="3.2" fill="#1d4ed8"/>
<circle cx="1124.19" cy="331.47" r="3.2" fill="#1d4ed8"/>
<circle cx="1127.47" cy="331.07" r="3.2" fill="#1d4ed8"/>
<circle cx="1130.75" cy="331.47" r="3.2" fill="#1d4ed8"/>
<circle cx="1134.04" cy="331.07" r="3.2" fill="#1d4ed8"/>
<circle cx="1137.32" cy="331.07" r="3.2" fill="#1d4ed8"/>
<circle cx="1140.60" cy="331.07" r="3.2" fill="#1d4ed8"/>
<circle cx="1143.89" cy="331.07" r="3.2" fill="#1d4ed8"/>
<circle cx="1147.17" cy="331.07" r="3.2" fill="#1d4ed8"/>
<circle cx="1150.45" cy="331.07" r="3.2" fill="#1d4ed8"/>
<circle cx="1153.73" cy="331.07" r="3.2" fill="#1d4ed8"/>
<circle cx="1157.02" cy="331.07" r="3.2" fill="#1d4ed8"/>
<circle cx="1160.30" cy="331.07" r="3.2" fill="#1d4ed8"/>
<circle cx="1163.58" cy="331.07" r="3.2" fill="#1d4ed8"/>
<circle cx="1166.87" cy="331.47" r="3.2" fill="#1d4ed8"/>
<circle cx="1170.15" cy="331.88" r="3.2" fill="#1d4ed8"/>
<circle cx="1173.43" cy="331.07" r="3.2" fill="#1d4ed8"/>
<circle cx="1176.72" cy="331.47" r="3.2" fill="#1d4ed8"/>
<circle cx="1180.00" cy="331.07" r="3.2" fill="#1d4ed8"/>
<text x="635" y="695" text-anchor="middle" font-size="14" fill="#111" font-family="sans-serif">Date</text>
<text x="24" y="325" text-anchor="middle" font-size="14" fill="#111" transform="rotate(-90 24,325)" font-family="sans-serif">Passed files</text>
</svg>
