<?xml version="1.0" encoding="UTF-8"?>
<svg xmlns="http://www.w3.org/2000/svg" width="1280" height="720" viewBox="0 0 1280 720">
<rect width="100%" height="100%" fill="#ffffff"/>
<text x="640" y="30" text-anchor="middle" font-size="22" font-family="sans-serif">Roast passed files history</text>
<line x1="90" y1="600" x2="1180" y2="600" stroke="#333" stroke-width="1.5"/>
<line x1="90" y1="50" x2="90" y2="600" stroke="#333" stroke-width="1.5"/>
<line x1="90" y1="600.00" x2="1180" y2="600.00" stroke="#e5e7eb" stroke-width="1"/>
<text x="78" y="605.00" text-anchor="end" font-size="12" fill="#111" font-family="sans-serif">0</text>
<line x1="90" y1="397.79" x2="1180" y2="397.79" stroke="#e5e7eb" stroke-width="1"/>
<text x="78" y="402.79" text-anchor="end" font-size="12" fill="#111" font-family="sans-serif">500</text>
<line x1="90" y1="195.59" x2="1180" y2="195.59" stroke="#e5e7eb" stroke-width="1"/>
<text x="78" y="200.59" text-anchor="end" font-size="12" fill="#111" font-family="sans-serif">1000</text>
<line x1="90.00" y1="600" x2="90.00" y2="606" stroke="#333" stroke-width="1"/>
<text x="90.00" y="624" text-anchor="end" font-size="11" fill="#111" transform="rotate(-40 90.00,624)" font-family="sans-serif">2026-02-12</text>
<line x1="225.46" y1="600" x2="225.46" y2="606" stroke="#333" stroke-width="1"/>
<text x="225.46" y="624" text-anchor="end" font-size="11" fill="#111" transform="rotate(-40 225.46,624)" font-family="sans-serif">2026-02-19</text>
<line x1="360.91" y1="600" x2="360.91" y2="606" stroke="#333" stroke-width="1"/>
<text x="360.91" y="624" text-anchor="end" font-size="11" fill="#111" transform="rotate(-40 360.91,624)" font-family="sans-serif">2026-02-25</text>
<line x1="496.37" y1="600" x2="496.37" y2="606" stroke="#333" stroke-width="1"/>
<text x="496.37" y="624" text-anchor="end" font-size="11" fill="#111" transform="rotate(-40 496.37,624)" font-family="sans-serif">2026-02-28</text>
<line x1="631.83" y1="600" x2="631.83" y2="606" stroke="#333" stroke-width="1"/>
<text x="631.83" y="624" text-anchor="end" font-size="11" fill="#111" transform="rotate(-40 631.83,624)" font-family="sans-serif">2026-03-06</text>
<line x1="767.28" y1="600" x2="767.28" y2="606" stroke="#333" stroke-width="1"/>
<text x="767.28" y="624" text-anchor="end" font-size="11" fill="#111" transform="rotate(-40 767.28,624)" font-family="sans-serif">2026-03-11</text>
<line x1="902.74" y1="600" x2="902.74" y2="606" stroke="#333" stroke-width="1"/>
<text x="902.74" y="624" text-anchor="end" font-size="11" fill="#111" transform="rotate(-40 902.74,624)" font-family="sans-serif">2026-03-19</text>
<line x1="1038.19" y1="600" x2="1038.19" y2="606" stroke="#333" stroke-width="1"/>
<text x="1038.19" y="624" text-anchor="end" font-size="11" fill="#111" transform="rotate(-40 1038.19,624)" font-family="sans-serif">2026-03-29</text>
<line x1="1173.65" y1="600" x2="1173.65" y2="606" stroke="#333" stroke-width="1"/>
<text x="1173.65" y="624" text-anchor="end" font-size="11" fill="#111" transform="rotate(-40 1173.65,624)" font-family="sans-serif">2026-05-17</text>
<line x1="1180.00" y1="600" x2="1180.00" y2="606" stroke="#333" stroke-width="1"/>
<text x="1180.00" y="624" text-anchor="end" font-size="11" fill="#111" transform="rotate(-40 1180.00,624)" font-family="sans-serif">2026-05-30</text>
<line x1="90" y1="75.88" x2="1180" y2="75.88" stroke="#dc2626" stroke-width="1.5" stroke-dasharray="8,4"/>
<text x="1184" y="79.88" font-size="12" fill="#dc2626" font-family="sans-serif">Goal: 1296</text>
<polyline fill="none" stroke="#2563eb" stroke-width="3" points="90.00,540.55 92.12,538.53 94.23,536.91 96.35,534.49 98.47,534.49 100.58,533.27 102.70,532.46 104.82,532.87 106.93,532.06 109.05,532.46 111.17,532.06 113.28,568.46 115.40,568.46 117.51,566.43 119.63,545.00 121.75,545.00 123.86,544.19 125.98,543.79 128.10,543.79 130.21,543.38 132.33,541.76 134.45,541.36 136.56,540.96 138.68,540.96 140.80,539.34 142.91,539.34 145.03,556.73 147.15,556.73 149.26,555.51 151.38,551.07 153.50,538.93 155.61,538.93 157.73,538.93 159.84,538.12 161.96,536.91 164.08,536.91 166.19,536.51 168.31,536.51 170.43,556.73 172.54,556.73 174.66,556.73 176.78,556.73 178.89,535.29 181.01,535.29 183.13,535.29 185.24,535.29 187.36,534.49 189.48,534.08 191.59,533.68 193.71,532.87 195.83,532.06 197.94,532.06 200.06,531.25 202.17,530.85 204.29,530.44 206.41,530.04 208.52,530.04 210.64,529.23 212.76,529.23 214.87,529.23 216.99,528.42 219.11,528.42 221.22,527.61 223.34,527.21 225.46,526.80 227.57,526.40 229.69,525.18 231.81,523.57 233.92,523.57 236.04,523.16 238.16,522.76 240.27,522.35 242.39,521.54 244.50,519.52 246.62,517.50 248.74,517.50 250.85,517.50 252.97,517.50 255.09,517.50 257.20,517.50 259.32,517.10 261.44,516.69 263.55,515.48 265.67,515.07 267.79,514.67 269.90,513.86 272.02,514.26 274.14,512.24 276.25,511.84 278.37,511.84 280.49,511.03 282.60,509.82 284.72,507.79 286.83,506.99 288.95,506.58 291.07,509.41 293.18,509.01 295.30,504.96 297.42,504.56 299.53,504.15 301.65,504.56 303.77,503.75 305.88,503.75 308.00,503.35 310.12,499.30 312.23,496.47 314.35,490.00 316.47,484.34 318.58,481.10 320.70,480.29 322.82,480.70 324.93,460.88 327.05,459.26 329.17,458.05 331.28,456.03 333.40,456.03 335.51,454.41 337.63,450.77 339.75,444.30 341.86,443.90 343.98,600.00 346.10,441.88 348.21,440.66 350.33,439.45 352.45,439.04 354.56,438.64 356.68,437.83 358.80,436.62 360.91,436.62 363.03,434.60 365.15,432.17 367.26,429.34 369.38,428.93 371.50,428.53 373.61,427.72 375.73,426.91 377.84,426.10 379.96,426.10 382.08,426.10 384.19,419.63 386.31,419.23 388.43,418.42 390.54,418.01 392.66,417.61 394.78,417.61 396.89,417.61 399.01,417.21 401.13,417.21 403.24,413.57 405.36,411.95 407.48,412.76 409.59,410.74 411.71,410.74 413.83,410.33 415.94,410.33 418.06,410.33 420.17,409.93 422.29,409.93 424.41,409.93 426.52,409.52 428.64,409.52 430.76,409.12 432.87,409.52 434.99,409.12 437.11,407.50 439.22,407.10 441.34,403.05 443.46,399.82 445.57,400.22 447.69,400.62 449.81,400.62 451.92,399.41 454.04,392.94 456.16,391.32 458.27,389.30 460.39,389.30 462.50,388.49 464.62,375.15 466.74,374.74 468.85,374.74 470.97,374.74 473.09,374.74 475.20,374.34 477.32,374.34 479.44,374.34 481.55,374.34 483.67,374.34 485.79,373.93 487.90,373.12 490.02,372.72 492.14,373.53 494.25,435.81 496.37,372.32 498.49,372.72 500.60,371.91 502.72,371.91 504.83,372.32 506.95,371.10 509.07,369.89 511.18,369.89 513.30,369.89 515.42,369.49 517.53,369.89 519.65,369.08 521.77,368.68 523.88,368.27 526.00,367.87 528.12,367.06 530.23,367.46 532.35,367.06 534.47,366.25 536.58,368.27 538.70,368.68 540.82,368.68 542.93,368.27 545.05,369.08 547.17,367.87 549.28,367.46 551.40,367.06 553.51,360.18 555.63,359.78 557.75,359.38 559.86,356.95 561.98,357.35 564.10,357.76 566.21,355.33 568.33,355.74 570.45,357.35 572.56,355.33 574.68,356.14 576.80,355.74 578.91,356.14 581.03,354.12 583.15,354.93 585.26,356.14 587.38,354.52 589.50,353.71 591.61,354.12 593.73,354.93 595.84,352.90 597.96,353.71 600.08,353.31 602.19,353.31 604.31,354.52 606.43,352.90 608.54,352.50 610.66,352.50 612.78,353.31 614.89,352.50 617.01,353.71 619.13,354.12 621.24,352.50 623.36,352.90 625.48,352.50 627.59,352.10 629.71,351.69 631.83,352.10 633.94,354.12 636.06,352.50 638.17,352.10 640.29,352.10 642.41,349.67 644.52,349.67 646.64,350.88 648.76,351.29 650.87,350.48 652.99,352.10 655.11,350.48 657.22,350.48 659.34,350.48 661.46,350.07 663.57,348.46 665.69,351.29 667.81,349.67 669.92,351.29 672.04,349.67 674.16,348.86 676.27,348.46 678.39,348.46 680.50,347.24 682.62,348.86 684.74,346.84 686.85,348.46 688.97,348.86 691.09,346.84 693.20,349.26 695.32,348.05 697.44,349.26 699.55,349.26 701.67,350.48 703.79,352.90 705.90,349.67 708.02,348.46 710.14,345.62 712.25,344.82 714.37,344.41 716.49,342.39 718.60,341.18 720.72,341.58 722.83,339.15 724.95,338.35 727.07,337.54 729.18,336.73 731.30,335.92 733.42,337.54 735.53,338.35 737.65,337.54 739.77,337.54 741.88,337.54 744.00,333.09 746.12,333.90 748.23,335.92 750.35,336.73 752.47,335.51 754.58,332.28 756.70,331.47 758.82,331.07 760.93,331.47 763.05,331.07 765.17,331.07 767.28,331.07 769.40,331.07 771.51,331.07 773.63,331.07 775.75,331.07 777.86,331.07 779.98,331.07 782.10,331.07 784.21,331.47 786.33,331.88 788.45,331.07 790.56,331.47 792.68,331.07 794.80,331.47 796.91,331.07 799.03,324.19 801.15,324.19 803.26,318.93 805.38,316.51 807.50,310.44 809.61,308.01 811.73,600.00 813.84,301.54 815.96,290.22 818.08,287.79 820.19,286.18 822.31,285.77 824.43,285.77 826.54,285.77 828.66,286.18 830.78,285.77 832.89,285.77 835.01,285.77 837.13,283.35 839.24,282.94 841.36,282.94 843.48,283.35 845.59,282.94 847.71,282.94 849.83,283.75 851.94,282.13 854.06,282.13 856.17,282.54 858.29,282.13 860.41,282.54 862.52,282.94 864.64,281.73 866.76,282.54 868.87,281.73 870.99,282.54 873.11,282.13 875.22,282.13 877.34,281.73 879.46,281.73 881.57,281.32 883.69,281.73 885.81,282.13 887.92,281.32 890.04,281.32 892.16,282.54 894.27,282.13 896.39,281.32 898.50,281.32 900.62,281.32 902.74,282.54 904.85,282.13 906.97,281.32 909.09,282.13 911.20,281.73 913.32,282.13 915.44,280.11 917.55,280.11 919.67,280.51 921.79,279.71 923.90,280.11 926.02,280.51 928.14,279.71 930.25,280.11 932.37,280.11 934.49,279.30 936.60,278.90 938.72,278.90 940.83,280.51 942.95,279.30 945.07,278.09 947.18,278.49 949.30,278.49 951.42,277.28 953.53,277.68 955.65,277.68 957.77,278.09 959.88,277.28 962.00,600.00 964.12,278.90 966.23,279.30 968.35,278.90 970.47,278.49 972.58,278.49 974.70,278.49 976.82,278.49 978.93,278.49 981.05,278.49 983.17,278.49 985.28,278.49 987.40,278.49 989.51,278.49 991.63,278.49 993.75,278.49 995.86,600.00 997.98,600.00 1000.10,254.63 1002.21,600.00 1004.33,245.74 1006.45,245.74 1008.56,246.14 1010.68,245.74 1012.80,245.74 1014.91,245.74 1017.03,245.74 1019.15,245.74 1021.26,240.07 1023.38,238.05 1025.50,238.05 1027.61,227.13 1029.73,227.13 1031.84,226.32 1033.96,227.54 1036.08,226.73 1038.19,226.32 1040.31,227.13 1042.43,227.13 1044.54,226.73 1046.66,226.32 1048.78,226.73 1050.89,226.73 1053.01,226.73 1055.13,225.11 1057.24,224.71 1059.36,225.11 1061.48,224.30 1063.59,226.32 1065.71,224.30 1067.83,225.51 1069.94,225.51 1072.06,225.51 1074.17,225.92 1076.29,223.09 1078.41,223.49 1080.52,223.09 1082.64,223.09 1084.76,223.90 1086.87,223.49 1088.99,223.49 1091.11,223.09 1093.22,223.09 1095.34,223.49 1097.46,223.09 1099.57,223.09 1101.69,223.49 1103.81,223.49 1105.92,223.09 1108.04,223.09 1110.16,223.49 1112.27,223.09 1114.39,223.09 1116.50,223.09 1118.62,223.49 1120.74,223.49 1122.85,223.49 1124.97,223.09 1127.09,223.49 1129.20,223.09 1131.32,223.09 1133.44,223.49 1135.55,223.09 1137.67,223.09 1139.79,223.49 1141.90,222.68 1144.02,221.88 1146.14,223.49 1148.25,223.09 1150.37,223.49 1152.49,224.30 1154.60,201.65 1156.72,201.65 1158.83,186.69 1160.95,176.18 1163.07,174.15 1165.18,172.94 1167.30,172.94 1169.42,162.02 1171.53,161.21 1173.65,148.27 1175.77,155.96 1177.88,139.78 1180.00,135.33"/>
<circle cx="90.00" cy="540.55" r="3.2" fill="#1d4ed8"/>
<circle cx="92.12" cy="538.53" r="3.2" fill="#1d4ed8"/>
<circle cx="94.23" cy="536.91" r="3.2" fill="#1d4ed8"/>
<circle cx="96.35" cy="534.49" r="3.2" fill="#1d4ed8"/>
<circle cx="98.47" cy="534.49" r="3.2" fill="#1d4ed8"/>
<circle cx="100.58" cy="533.27" r="3.2" fill="#1d4ed8"/>
<circle cx="102.70" cy="532.46" r="3.2" fill="#1d4ed8"/>
<circle cx="104.82" cy="532.87" r="3.2" fill="#1d4ed8"/>
<circle cx="106.93" cy="532.06" r="3.2" fill="#1d4ed8"/>
<circle cx="109.05" cy="532.46" r="3.2" fill="#1d4ed8"/>
<circle cx="111.17" cy="532.06" r="3.2" fill="#1d4ed8"/>
<circle cx="113.28" cy="568.46" r="3.2" fill="#1d4ed8"/>
<circle cx="115.40" cy="568.46" r="3.2" fill="#1d4ed8"/>
<circle cx="117.51" cy="566.43" r="3.2" fill="#1d4ed8"/>
<circle cx="119.63" cy="545.00" r="3.2" fill="#1d4ed8"/>
<circle cx="121.75" cy="545.00" r="3.2" fill="#1d4ed8"/>
<circle cx="123.86" cy="544.19" r="3.2" fill="#1d4ed8"/>
<circle cx="125.98" cy="543.79" r="3.2" fill="#1d4ed8"/>
<circle cx="128.10" cy="543.79" r="3.2" fill="#1d4ed8"/>
<circle cx="130.21" cy="543.38" r="3.2" fill="#1d4ed8"/>
<circle cx="132.33" cy="541.76" r="3.2" fill="#1d4ed8"/>
<circle cx="134.45" cy="541.36" r="3.2" fill="#1d4ed8"/>
<circle cx="136.56" cy="540.96" r="3.2" fill="#1d4ed8"/>
<circle cx="138.68" cy="540.96" r="3.2" fill="#1d4ed8"/>
<circle cx="140.80" cy="539.34" r="3.2" fill="#1d4ed8"/>
<circle cx="142.91" cy="539.34" r="3.2" fill="#1d4ed8"/>
<circle cx="145.03" cy="556.73" r="3.2" fill="#1d4ed8"/>
<circle cx="147.15" cy="556.73" r="3.2" fill="#1d4ed8"/>
<circle cx="149.26" cy="555.51" r="3.2" fill="#1d4ed8"/>
<circle cx="151.38" cy="551.07" r="3.2" fill="#1d4ed8"/>
<circle cx="153.50" cy="538.93" r="3.2" fill="#1d4ed8"/>
<circle cx="155.61" cy="538.93" r="3.2" fill="#1d4ed8"/>
<circle cx="157.73" cy="538.93" r="3.2" fill="#1d4ed8"/>
<circle cx="159.84" cy="538.12" r="3.2" fill="#1d4ed8"/>
<circle cx="161.96" cy="536.91" r="3.2" fill="#1d4ed8"/>
<circle cx="164.08" cy="536.91" r="3.2" fill="#1d4ed8"/>
<circle cx="166.19" cy="536.51" r="3.2" fill="#1d4ed8"/>
<circle cx="168.31" cy="536.51" r="3.2" fill="#1d4ed8"/>
<circle cx="170.43" cy="556.73" r="3.2" fill="#1d4ed8"/>
<circle cx="172.54" cy="556.73" r="3.2" fill="#1d4ed8"/>
<circle cx="174.66" cy="556.73" r="3.2" fill="#1d4ed8"/>
<circle cx="176.78" cy="556.73" r="3.2" fill="#1d4ed8"/>
<circle cx="178.89" cy="535.29" r="3.2" fill="#1d4ed8"/>
<circle cx="181.01" cy="535.29" r="3.2" fill="#1d4ed8"/>
<circle cx="183.13" cy="535.29" r="3.2" fill="#1d4ed8"/>
<circle cx="185.24" cy="535.29" r="3.2" fill="#1d4ed8"/>
<circle cx="187.36" cy="534.49" r="3.2" fill="#1d4ed8"/>
<circle cx="189.48" cy="534.08" r="3.2" fill="#1d4ed8"/>
<circle cx="191.59" cy="533.68" r="3.2" fill="#1d4ed8"/>
<circle cx="193.71" cy="532.87" r="3.2" fill="#1d4ed8"/>
<circle cx="195.83" cy="532.06" r="3.2" fill="#1d4ed8"/>
<circle cx="197.94" cy="532.06" r="3.2" fill="#1d4ed8"/>
<circle cx="200.06" cy="531.25" r="3.2" fill="#1d4ed8"/>
<circle cx="202.17" cy="530.85" r="3.2" fill="#1d4ed8"/>
<circle cx="204.29" cy="530.44" r="3.2" fill="#1d4ed8"/>
<circle cx="206.41" cy="530.04" r="3.2" fill="#1d4ed8"/>
<circle cx="208.52" cy="530.04" r="3.2" fill="#1d4ed8"/>
<circle cx="210.64" cy="529.23" r="3.2" fill="#1d4ed8"/>
<circle cx="212.76" cy="529.23" r="3.2" fill="#1d4ed8"/>
<circle cx="214.87" cy="529.23" r="3.2" fill="#1d4ed8"/>
<circle cx="216.99" cy="528.42" r="3.2" fill="#1d4ed8"/>
<circle cx="219.11" cy="528.42" r="3.2" fill="#1d4ed8"/>
<circle cx="221.22" cy="527.61" r="3.2" fill="#1d4ed8"/>
<circle cx="223.34" cy="527.21" r="3.2" fill="#1d4ed8"/>
<circle cx="225.46" cy="526.80" r="3.2" fill="#1d4ed8"/>
<circle cx="227.57" cy="526.40" r="3.2" fill="#1d4ed8"/>
<circle cx="229.69" cy="525.18" r="3.2" fill="#1d4ed8"/>
<circle cx="231.81" cy="523.57" r="3.2" fill="#1d4ed8"/>
<circle cx="233.92" cy="523.57" r="3.2" fill="#1d4ed8"/>
<circle cx="236.04" cy="523.16" r="3.2" fill="#1d4ed8"/>
<circle cx="238.16" cy="522.76" r="3.2" fill="#1d4ed8"/>
<circle cx="240.27" cy="522.35" r="3.2" fill="#1d4ed8"/>
<circle cx="242.39" cy="521.54" r="3.2" fill="#1d4ed8"/>
<circle cx="244.50" cy="519.52" r="3.2" fill="#1d4ed8"/>
<circle cx="246.62" cy="517.50" r="3.2" fill="#1d4ed8"/>
<circle cx="248.74" cy="517.50" r="3.2" fill="#1d4ed8"/>
<circle cx="250.85" cy="517.50" r="3.2" fill="#1d4ed8"/>
<circle cx="252.97" cy="517.50" r="3.2" fill="#1d4ed8"/>
<circle cx="255.09" cy="517.50" r="3.2" fill="#1d4ed8"/>
<circle cx="257.20" cy="517.50" r="3.2" fill="#1d4ed8"/>
<circle cx="259.32" cy="517.10" r="3.2" fill="#1d4ed8"/>
<circle cx="261.44" cy="516.69" r="3.2" fill="#1d4ed8"/>
<circle cx="263.55" cy="515.48" r="3.2" fill="#1d4ed8"/>
<circle cx="265.67" cy="515.07" r="3.2" fill="#1d4ed8"/>
<circle cx="267.79" cy="514.67" r="3.2" fill="#1d4ed8"/>
<circle cx="269.90" cy="513.86" r="3.2" fill="#1d4ed8"/>
<circle cx="272.02" cy="514.26" r="3.2" fill="#1d4ed8"/>
<circle cx="274.14" cy="512.24" r="3.2" fill="#1d4ed8"/>
<circle cx="276.25" cy="511.84" r="3.2" fill="#1d4ed8"/>
<circle cx="278.37" cy="511.84" r="3.2" fill="#1d4ed8"/>
<circle cx="280.49" cy="511.03" r="3.2" fill="#1d4ed8"/>
<circle cx="282.60" cy="509.82" r="3.2" fill="#1d4ed8"/>
<circle cx="284.72" cy="507.79" r="3.2" fill="#1d4ed8"/>
<circle cx="286.83" cy="506.99" r="3.2" fill="#1d4ed8"/>
<circle cx="288.95" cy="506.58" r="3.2" fill="#1d4ed8"/>
<circle cx="291.07" cy="509.41" r="3.2" fill="#1d4ed8"/>
<circle cx="293.18" cy="509.01" r="3.2" fill="#1d4ed8"/>
<circle cx="295.30" cy="504.96" r="3.2" fill="#1d4ed8"/>
<circle cx="297.42" cy="504.56" r="3.2" fill="#1d4ed8"/>
<circle cx="299.53" cy="504.15" r="3.2" fill="#1d4ed8"/>
<circle cx="301.65" cy="504.56" r="3.2" fill="#1d4ed8"/>
<circle cx="303.77" cy="503.75" r="3.2" fill="#1d4ed8"/>
<circle cx="305.88" cy="503.75" r="3.2" fill="#1d4ed8"/>
<circle cx="308.00" cy="503.35" r="3.2" fill="#1d4ed8"/>
<circle cx="310.12" cy="499.30" r="3.2" fill="#1d4ed8"/>
<circle cx="312.23" cy="496.47" r="3.2" fill="#1d4ed8"/>
<circle cx="314.35" cy="490.00" r="3.2" fill="#1d4ed8"/>
<circle cx="316.47" cy="484.34" r="3.2" fill="#1d4ed8"/>
<circle cx="318.58" cy="481.10" r="3.2" fill="#1d4ed8"/>
<circle cx="320.70" cy="480.29" r="3.2" fill="#1d4ed8"/>
<circle cx="322.82" cy="480.70" r="3.2" fill="#1d4ed8"/>
<circle cx="324.93" cy="460.88" r="3.2" fill="#1d4ed8"/>
<circle cx="327.05" cy="459.26" r="3.2" fill="#1d4ed8"/>
<circle cx="329.17" cy="458.05" r="3.2" fill="#1d4ed8"/>
<circle cx="331.28" cy="456.03" r="3.2" fill="#1d4ed8"/>
<circle cx="333.40" cy="456.03" r="3.2" fill="#1d4ed8"/>
<circle cx="335.51" cy="454.41" r="3.2" fill="#1d4ed8"/>
<circle cx="337.63" cy="450.77" r="3.2" fill="#1d4ed8"/>
<circle cx="339.75" cy="444.30" r="3.2" fill="#1d4ed8"/>
<circle cx="341.86" cy="443.90" r="3.2" fill="#1d4ed8"/>
<circle cx="343.98" cy="600.00" r="3.2" fill="#1d4ed8"/>
<circle cx="346.10" cy="441.88" r="3.2" fill="#1d4ed8"/>
<circle cx="348.21" cy="440.66" r="3.2" fill="#1d4ed8"/>
<circle cx="350.33" cy="439.45" r="3.2" fill="#1d4ed8"/>
<circle cx="352.45" cy="439.04" r="3.2" fill="#1d4ed8"/>
<circle cx="354.56" cy="438.64" r="3.2" fill="#1d4ed8"/>
<circle cx="356.68" cy="437.83" r="3.2" fill="#1d4ed8"/>
<circle cx="358.80" cy="436.62" r="3.2" fill="#1d4ed8"/>
<circle cx="360.91" cy="436.62" r="3.2" fill="#1d4ed8"/>
<circle cx="363.03" cy="434.60" r="3.2" fill="#1d4ed8"/>
<circle cx="365.15" cy="432.17" r="3.2" fill="#1d4ed8"/>
<circle cx="367.26" cy="429.34" r="3.2" fill="#1d4ed8"/>
<circle cx="369.38" cy="428.93" r="3.2" fill="#1d4ed8"/>
<circle cx="371.50" cy="428.53" r="3.2" fill="#1d4ed8"/>
<circle cx="373.61" cy="427.72" r="3.2" fill="#1d4ed8"/>
<circle cx="375.73" cy="426.91" r="3.2" fill="#1d4ed8"/>
<circle cx="377.84" cy="426.10" r="3.2" fill="#1d4ed8"/>
<circle cx="379.96" cy="426.10" r="3.2" fill="#1d4ed8"/>
<circle cx="382.08" cy="426.10" r="3.2" fill="#1d4ed8"/>
<circle cx="384.19" cy="419.63" r="3.2" fill="#1d4ed8"/>
<circle cx="386.31" cy="419.23" r="3.2" fill="#1d4ed8"/>
<circle cx="388.43" cy="418.42" r="3.2" fill="#1d4ed8"/>
<circle cx="390.54" cy="418.01" r="3.2" fill="#1d4ed8"/>
<circle cx="392.66" cy="417.61" r="3.2" fill="#1d4ed8"/>
<circle cx="394.78" cy="417.61" r="3.2" fill="#1d4ed8"/>
<circle cx="396.89" cy="417.61" r="3.2" fill="#1d4ed8"/>
<circle cx="399.01" cy="417.21" r="3.2" fill="#1d4ed8"/>
<circle cx="401.13" cy="417.21" r="3.2" fill="#1d4ed8"/>
<circle cx="403.24" cy="413.57" r="3.2" fill="#1d4ed8"/>
<circle cx="405.36" cy="411.95" r="3.2" fill="#1d4ed8"/>
<circle cx="407.48" cy="412.76" r="3.2" fill="#1d4ed8"/>
<circle cx="409.59" cy="410.74" r="3.2" fill="#1d4ed8"/>
<circle cx="411.71" cy="410.74" r="3.2" fill="#1d4ed8"/>
<circle cx="413.83" cy="410.33" r="3.2" fill="#1d4ed8"/>
<circle cx="415.94" cy="410.33" r="3.2" fill="#1d4ed8"/>
<circle cx="418.06" cy="410.33" r="3.2" fill="#1d4ed8"/>
<circle cx="420.17" cy="409.93" r="3.2" fill="#1d4ed8"/>
<circle cx="422.29" cy="409.93" r="3.2" fill="#1d4ed8"/>
<circle cx="424.41" cy="409.93" r="3.2" fill="#1d4ed8"/>
<circle cx="426.52" cy="409.52" r="3.2" fill="#1d4ed8"/>
<circle cx="428.64" cy="409.52" r="3.2" fill="#1d4ed8"/>
<circle cx="430.76" cy="409.12" r="3.2" fill="#1d4ed8"/>
<circle cx="432.87" cy="409.52" r="3.2" fill="#1d4ed8"/>
<circle cx="434.99" cy="409.12" r="3.2" fill="#1d4ed8"/>
<circle cx="437.11" cy="407.50" r="3.2" fill="#1d4ed8"/>
<circle cx="439.22" cy="407.10" r="3.2" fill="#1d4ed8"/>
<circle cx="441.34" cy="403.05" r="3.2" fill="#1d4ed8"/>
<circle cx="443.46" cy="399.82" r="3.2" fill="#1d4ed8"/>
<circle cx="445.57" cy="400.22" r="3.2" fill="#1d4ed8"/>
<circle cx="447.69" cy="400.62" r="3.2" fill="#1d4ed8"/>
<circle cx="449.81" cy="400.62" r="3.2" fill="#1d4ed8"/>
<circle cx="451.92" cy="399.41" r="3.2" fill="#1d4ed8"/>
<circle cx="454.04" cy="392.94" r="3.2" fill="#1d4ed8"/>
<circle cx="456.16" cy="391.32" r="3.2" fill="#1d4ed8"/>
<circle cx="458.27" cy="389.30" r="3.2" fill="#1d4ed8"/>
<circle cx="460.39" cy="389.30" r="3.2" fill="#1d4ed8"/>
<circle cx="462.50" cy="388.49" r="3.2" fill="#1d4ed8"/>
<circle cx="464.62" cy="375.15" r="3.2" fill="#1d4ed8"/>
<circle cx="466.74" cy="374.74" r="3.2" fill="#1d4ed8"/>
<circle cx="468.85" cy="374.74" r="3.2" fill="#1d4ed8"/>
<circle cx="470.97" cy="374.74" r="3.2" fill="#1d4ed8"/>
<circle cx="473.09" cy="374.74" r="3.2" fill="#1d4ed8"/>
<circle cx="475.20" cy="374.34" r="3.2" fill="#1d4ed8"/>
<circle cx="477.32" cy="374.34" r="3.2" fill="#1d4ed8"/>
<circle cx="479.44" cy="374.34" r="3.2" fill="#1d4ed8"/>
<circle cx="481.55" cy="374.34" r="3.2" fill="#1d4ed8"/>
<circle cx="483.67" cy="374.34" r="3.2" fill="#1d4ed8"/>
<circle cx="485.79" cy="373.93" r="3.2" fill="#1d4ed8"/>
<circle cx="487.90" cy="373.12" r="3.2" fill="#1d4ed8"/>
<circle cx="490.02" cy="372.72" r="3.2" fill="#1d4ed8"/>
<circle cx="492.14" cy="373.53" r="3.2" fill="#1d4ed8"/>
<circle cx="494.25" cy="435.81" r="3.2" fill="#1d4ed8"/>
<circle cx="496.37" cy="372.32" r="3.2" fill="#1d4ed8"/>
<circle cx="498.49" cy="372.72" r="3.2" fill="#1d4ed8"/>
<circle cx="500.60" cy="371.91" r="3.2" fill="#1d4ed8"/>
<circle cx="502.72" cy="371.91" r="3.2" fill="#1d4ed8"/>
<circle cx="504.83" cy="372.32" r="3.2" fill="#1d4ed8"/>
<circle cx="506.95" cy="371.10" r="3.2" fill="#1d4ed8"/>
<circle cx="509.07" cy="369.89" r="3.2" fill="#1d4ed8"/>
<circle cx="511.18" cy="369.89" r="3.2" fill="#1d4ed8"/>
<circle cx="513.30" cy="369.89" r="3.2" fill="#1d4ed8"/>
<circle cx="515.42" cy="369.49" r="3.2" fill="#1d4ed8"/>
<circle cx="517.53" cy="369.89" r="3.2" fill="#1d4ed8"/>
<circle cx="519.65" cy="369.08" r="3.2" fill="#1d4ed8"/>
<circle cx="521.77" cy="368.68" r="3.2" fill="#1d4ed8"/>
<circle cx="523.88" cy="368.27" r="3.2" fill="#1d4ed8"/>
<circle cx="526.00" cy="367.87" r="3.2" fill="#1d4ed8"/>
<circle cx="528.12" cy="367.06" r="3.2" fill="#1d4ed8"/>
<circle cx="530.23" cy="367.46" r="3.2" fill="#1d4ed8"/>
<circle cx="532.35" cy="367.06" r="3.2" fill="#1d4ed8"/>
<circle cx="534.47" cy="366.25" r="3.2" fill="#1d4ed8"/>
<circle cx="536.58" cy="368.27" r="3.2" fill="#1d4ed8"/>
<circle cx="538.70" cy="368.68" r="3.2" fill="#1d4ed8"/>
<circle cx="540.82" cy="368.68" r="3.2" fill="#1d4ed8"/>
<circle cx="542.93" cy="368.27" r="3.2" fill="#1d4ed8"/>
<circle cx="545.05" cy="369.08" r="3.2" fill="#1d4ed8"/>
<circle cx="547.17" cy="367.87" r="3.2" fill="#1d4ed8"/>
<circle cx="549.28" cy="367.46" r="3.2" fill="#1d4ed8"/>
<circle cx="551.40" cy="367.06" r="3.2" fill="#1d4ed8"/>
<circle cx="553.51" cy="360.18" r="3.2" fill="#1d4ed8"/>
<circle cx="555.63" cy="359.78" r="3.2" fill="#1d4ed8"/>
<circle cx="557.75" cy="359.38" r="3.2" fill="#1d4ed8"/>
<circle cx="559.86" cy="356.95" r="3.2" fill="#1d4ed8"/>
<circle cx="561.98" cy="357.35" r="3.2" fill="#1d4ed8"/>
<circle cx="564.10" cy="357.76" r="3.2" fill="#1d4ed8"/>
<circle cx="566.21" cy="355.33" r="3.2" fill="#1d4ed8"/>
<circle cx="568.33" cy="355.74" r="3.2" fill="#1d4ed8"/>
<circle cx="570.45" cy="357.35" r="3.2" fill="#1d4ed8"/>
<circle cx="572.56" cy="355.33" r="3.2" fill="#1d4ed8"/>
<circle cx="574.68" cy="356.14" r="3.2" fill="#1d4ed8"/>
<circle cx="576.80" cy="355.74" r="3.2" fill="#1d4ed8"/>
<circle cx="578.91" cy="356.14" r="3.2" fill="#1d4ed8"/>
<circle cx="581.03" cy="354.12" r="3.2" fill="#1d4ed8"/>
<circle cx="583.15" cy="354.93" r="3.2" fill="#1d4ed8"/>
<circle cx="585.26" cy="356.14" r="3.2" fill="#1d4ed8"/>
<circle cx="587.38" cy="354.52" r="3.2" fill="#1d4ed8"/>
<circle cx="589.50" cy="353.71" r="3.2" fill="#1d4ed8"/>
<circle cx="591.61" cy="354.12" r="3.2" fill="#1d4ed8"/>
<circle cx="593.73" cy="354.93" r="3.2" fill="#1d4ed8"/>
<circle cx="595.84" cy="352.90" r="3.2" fill="#1d4ed8"/>
<circle cx="597.96" cy="353.71" r="3.2" fill="#1d4ed8"/>
<circle cx="600.08" cy="353.31" r="3.2" fill="#1d4ed8"/>
<circle cx="602.19" cy="353.31" r="3.2" fill="#1d4ed8"/>
<circle cx="604.31" cy="354.52" r="3.2" fill="#1d4ed8"/>
<circle cx="606.43" cy="352.90" r="3.2" fill="#1d4ed8"/>
<circle cx="608.54" cy="352.50" r="3.2" fill="#1d4ed8"/>
<circle cx="610.66" cy="352.50" r="3.2" fill="#1d4ed8"/>
<circle cx="612.78" cy="353.31" r="3.2" fill="#1d4ed8"/>
<circle cx="614.89" cy="352.50" r="3.2" fill="#1d4ed8"/>
<circle cx="617.01" cy="353.71" r="3.2" fill="#1d4ed8"/>
<circle cx="619.13" cy="354.12" r="3.2" fill="#1d4ed8"/>
<circle cx="621.24" cy="352.50" r="3.2" fill="#1d4ed8"/>
<circle cx="623.36" cy="352.90" r="3.2" fill="#1d4ed8"/>
<circle cx="625.48" cy="352.50" r="3.2" fill="#1d4ed8"/>
<circle cx="627.59" cy="352.10" r="3.2" fill="#1d4ed8"/>
<circle cx="629.71" cy="351.69" r="3.2" fill="#1d4ed8"/>
<circle cx="631.83" cy="352.10" r="3.2" fill="#1d4ed8"/>
<circle cx="633.94" cy="354.12" r="3.2" fill="#1d4ed8"/>
<circle cx="636.06" cy="352.50" r="3.2" fill="#1d4ed8"/>
<circle cx="638.17" cy="352.10" r="3.2" fill="#1d4ed8"/>
<circle cx="640.29" cy="352.10" r="3.2" fill="#1d4ed8"/>
<circle cx="642.41" cy="349.67" r="3.2" fill="#1d4ed8"/>
<circle cx="644.52" cy="349.67" r="3.2" fill="#1d4ed8"/>
<circle cx="646.64" cy="350.88" r="3.2" fill="#1d4ed8"/>
<circle cx="648.76" cy="351.29" r="3.2" fill="#1d4ed8"/>
<circle cx="650.87" cy="350.48" r="3.2" fill="#1d4ed8"/>
<circle cx="652.99" cy="352.10" r="3.2" fill="#1d4ed8"/>
<circle cx="655.11" cy="350.48" r="3.2" fill="#1d4ed8"/>
<circle cx="657.22" cy="350.48" r="3.2" fill="#1d4ed8"/>
<circle cx="659.34" cy="350.48" r="3.2" fill="#1d4ed8"/>
<circle cx="661.46" cy="350.07" r="3.2" fill="#1d4ed8"/>
<circle cx="663.57" cy="348.46" r="3.2" fill="#1d4ed8"/>
<circle cx="665.69" cy="351.29" r="3.2" fill="#1d4ed8"/>
<circle cx="667.81" cy="349.67" r="3.2" fill="#1d4ed8"/>
<circle cx="669.92" cy="351.29" r="3.2" fill="#1d4ed8"/>
<circle cx="672.04" cy="349.67" r="3.2" fill="#1d4ed8"/>
<circle cx="674.16" cy="348.86" r="3.2" fill="#1d4ed8"/>
<circle cx="676.27" cy="348.46" r="3.2" fill="#1d4ed8"/>
<circle cx="678.39" cy="348.46" r="3.2" fill="#1d4ed8"/>
<circle cx="680.50" cy="347.24" r="3.2" fill="#1d4ed8"/>
<circle cx="682.62" cy="348.86" r="3.2" fill="#1d4ed8"/>
<circle cx="684.74" cy="346.84" r="3.2" fill="#1d4ed8"/>
<circle cx="686.85" cy="348.46" r="3.2" fill="#1d4ed8"/>
<circle cx="688.97" cy="348.86" r="3.2" fill="#1d4ed8"/>
<circle cx="691.09" cy="346.84" r="3.2" fill="#1d4ed8"/>
<circle cx="693.20" cy="349.26" r="3.2" fill="#1d4ed8"/>
<circle cx="695.32" cy="348.05" r="3.2" fill="#1d4ed8"/>
<circle cx="697.44" cy="349.26" r="3.2" fill="#1d4ed8"/>
<circle cx="699.55" cy="349.26" r="3.2" fill="#1d4ed8"/>
<circle cx="701.67" cy="350.48" r="3.2" fill="#1d4ed8"/>
<circle cx="703.79" cy="352.90" r="3.2" fill="#1d4ed8"/>
<circle cx="705.90" cy="349.67" r="3.2" fill="#1d4ed8"/>
<circle cx="708.02" cy="348.46" r="3.2" fill="#1d4ed8"/>
<circle cx="710.14" cy="345.62" r="3.2" fill="#1d4ed8"/>
<circle cx="712.25" cy="344.82" r="3.2" fill="#1d4ed8"/>
<circle cx="714.37" cy="344.41" r="3.2" fill="#1d4ed8"/>
<circle cx="716.49" cy="342.39" r="3.2" fill="#1d4ed8"/>
<circle cx="718.60" cy="341.18" r="3.2" fill="#1d4ed8"/>
<circle cx="720.72" cy="341.58" r="3.2" fill="#1d4ed8"/>
<circle cx="722.83" cy="339.15" r="3.2" fill="#1d4ed8"/>
<circle cx="724.95" cy="338.35" r="3.2" fill="#1d4ed8"/>
<circle cx="727.07" cy="337.54" r="3.2" fill="#1d4ed8"/>
<circle cx="729.18" cy="336.73" r="3.2" fill="#1d4ed8"/>
<circle cx="731.30" cy="335.92" r="3.2" fill="#1d4ed8"/>
<circle cx="733.42" cy="337.54" r="3.2" fill="#1d4ed8"/>
<circle cx="735.53" cy="338.35" r="3.2" fill="#1d4ed8"/>
<circle cx="737.65" cy="337.54" r="3.2" fill="#1d4ed8"/>
<circle cx="739.77" cy="337.54" r="3.2" fill="#1d4ed8"/>
<circle cx="741.88" cy="337.54" r="3.2" fill="#1d4ed8"/>
<circle cx="744.00" cy="333.09" r="3.2" fill="#1d4ed8"/>
<circle cx="746.12" cy="333.90" r="3.2" fill="#1d4ed8"/>
<circle cx="748.23" cy="335.92" r="3.2" fill="#1d4ed8"/>
<circle cx="750.35" cy="336.73" r="3.2" fill="#1d4ed8"/>
<circle cx="752.47" cy="335.51" r="3.2" fill="#1d4ed8"/>
<circle cx="754.58" cy="332.28" r="3.2" fill="#1d4ed8"/>
<circle cx="756.70" cy="331.47" r="3.2" fill="#1d4ed8"/>
<circle cx="758.82" cy="331.07" r="3.2" fill="#1d4ed8"/>
<circle cx="760.93" cy="331.47" r="3.2" fill="#1d4ed8"/>
<circle cx="763.05" cy="331.07" r="3.2" fill="#1d4ed8"/>
<circle cx="765.17" cy="331.07" r="3.2" fill="#1d4ed8"/>
<circle cx="767.28" cy="331.07" r="3.2" fill="#1d4ed8"/>
<circle cx="769.40" cy="331.07" r="3.2" fill="#1d4ed8"/>
<circle cx="771.51" cy="331.07" r="3.2" fill="#1d4ed8"/>
<circle cx="773.63" cy="331.07" r="3.2" fill="#1d4ed8"/>
<circle cx="775.75" cy="331.07" r="3.2" fill="#1d4ed8"/>
<circle cx="777.86" cy="331.07" r="3.2" fill="#1d4ed8"/>
<circle cx="779.98" cy="331.07" r="3.2" fill="#1d4ed8"/>
<circle cx="782.10" cy="331.07" r="3.2" fill="#1d4ed8"/>
<circle cx="784.21" cy="331.47" r="3.2" fill="#1d4ed8"/>
<circle cx="786.33" cy="331.88" r="3.2" fill="#1d4ed8"/>
<circle cx="788.45" cy="331.07" r="3.2" fill="#1d4ed8"/>
<circle cx="790.56" cy="331.47" r="3.2" fill="#1d4ed8"/>
<circle cx="792.68" cy="331.07" r="3.2" fill="#1d4ed8"/>
<circle cx="794.80" cy="331.47" r="3.2" fill="#1d4ed8"/>
<circle cx="796.91" cy="331.07" r="3.2" fill="#1d4ed8"/>
<circle cx="799.03" cy="324.19" r="3.2" fill="#1d4ed8"/>
<circle cx="801.15" cy="324.19" r="3.2" fill="#1d4ed8"/>
<circle cx="803.26" cy="318.93" r="3.2" fill="#1d4ed8"/>
<circle cx="805.38" cy="316.51" r="3.2" fill="#1d4ed8"/>
<circle cx="807.50" cy="310.44" r="3.2" fill="#1d4ed8"/>
<circle cx="809.61" cy="308.01" r="3.2" fill="#1d4ed8"/>
<circle cx="811.73" cy="600.00" r="3.2" fill="#1d4ed8"/>
<circle cx="813.84" cy="301.54" r="3.2" fill="#1d4ed8"/>
<circle cx="815.96" cy="290.22" r="3.2" fill="#1d4ed8"/>
<circle cx="818.08" cy="287.79" r="3.2" fill="#1d4ed8"/>
<circle cx="820.19" cy="286.18" r="3.2" fill="#1d4ed8"/>
<circle cx="822.31" cy="285.77" r="3.2" fill="#1d4ed8"/>
<circle cx="824.43" cy="285.77" r="3.2" fill="#1d4ed8"/>
<circle cx="826.54" cy="285.77" r="3.2" fill="#1d4ed8"/>
<circle cx="828.66" cy="286.18" r="3.2" fill="#1d4ed8"/>
<circle cx="830.78" cy="285.77" r="3.2" fill="#1d4ed8"/>
<circle cx="832.89" cy="285.77" r="3.2" fill="#1d4ed8"/>
<circle cx="835.01" cy="285.77" r="3.2" fill="#1d4ed8"/>
<circle cx="837.13" cy="283.35" r="3.2" fill="#1d4ed8"/>
<circle cx="839.24" cy="282.94" r="3.2" fill="#1d4ed8"/>
<circle cx="841.36" cy="282.94" r="3.2" fill="#1d4ed8"/>
<circle cx="843.48" cy="283.35" r="3.2" fill="#1d4ed8"/>
<circle cx="845.59" cy="282.94" r="3.2" fill="#1d4ed8"/>
<circle cx="847.71" cy="282.94" r="3.2" fill="#1d4ed8"/>
<circle cx="849.83" cy="283.75" r="3.2" fill="#1d4ed8"/>
<circle cx="851.94" cy="282.13" r="3.2" fill="#1d4ed8"/>
<circle cx="854.06" cy="282.13" r="3.2" fill="#1d4ed8"/>
<circle cx="856.17" cy="282.54" r="3.2" fill="#1d4ed8"/>
<circle cx="858.29" cy="282.13" r="3.2" fill="#1d4ed8"/>
<circle cx="860.41" cy="282.54" r="3.2" fill="#1d4ed8"/>
<circle cx="862.52" cy="282.94" r="3.2" fill="#1d4ed8"/>
<circle cx="864.64" cy="281.73" r="3.2" fill="#1d4ed8"/>
<circle cx="866.76" cy="282.54" r="3.2" fill="#1d4ed8"/>
<circle cx="868.87" cy="281.73" r="3.2" fill="#1d4ed8"/>
<circle cx="870.99" cy="282.54" r="3.2" fill="#1d4ed8"/>
<circle cx="873.11" cy="282.13" r="3.2" fill="#1d4ed8"/>
<circle cx="875.22" cy="282.13" r="3.2" fill="#1d4ed8"/>
<circle cx="877.34" cy="281.73" r="3.2" fill="#1d4ed8"/>
<circle cx="879.46" cy="281.73" r="3.2" fill="#1d4ed8"/>
<circle cx="881.57" cy="281.32" r="3.2" fill="#1d4ed8"/>
<circle cx="883.69" cy="281.73" r="3.2" fill="#1d4ed8"/>
<circle cx="885.81" cy="282.13" r="3.2" fill="#1d4ed8"/>
<circle cx="887.92" cy="281.32" r="3.2" fill="#1d4ed8"/>
<circle cx="890.04" cy="281.32" r="3.2" fill="#1d4ed8"/>
<circle cx="892.16" cy="282.54" r="3.2" fill="#1d4ed8"/>
<circle cx="894.27" cy="282.13" r="3.2" fill="#1d4ed8"/>
<circle cx="896.39" cy="281.32" r="3.2" fill="#1d4ed8"/>
<circle cx="898.50" cy="281.32" r="3.2" fill="#1d4ed8"/>
<circle cx="900.62" cy="281.32" r="3.2" fill="#1d4ed8"/>
<circle cx="902.74" cy="282.54" r="3.2" fill="#1d4ed8"/>
<circle cx="904.85" cy="282.13" r="3.2" fill="#1d4ed8"/>
<circle cx="906.97" cy="281.32" r="3.2" fill="#1d4ed8"/>
<circle cx="909.09" cy="282.13" r="3.2" fill="#1d4ed8"/>
<circle cx="911.20" cy="281.73" r="3.2" fill="#1d4ed8"/>
<circle cx="913.32" cy="282.13" r="3.2" fill="#1d4ed8"/>
<circle cx="915.44" cy="280.11" r="3.2" fill="#1d4ed8"/>
<circle cx="917.55" cy="280.11" r="3.2" fill="#1d4ed8"/>
<circle cx="919.67" cy="280.51" r="3.2" fill="#1d4ed8"/>
<circle cx="921.79" cy="279.71" r="3.2" fill="#1d4ed8"/>
<circle cx="923.90" cy="280.11" r="3.2" fill="#1d4ed8"/>
<circle cx="926.02" cy="280.51" r="3.2" fill="#1d4ed8"/>
<circle cx="928.14" cy="279.71" r="3.2" fill="#1d4ed8"/>
<circle cx="930.25" cy="280.11" r="3.2" fill="#1d4ed8"/>
<circle cx="932.37" cy="280.11" r="3.2" fill="#1d4ed8"/>
<circle cx="934.49" cy="279.30" r="3.2" fill="#1d4ed8"/>
<circle cx="936.60" cy="278.90" r="3.2" fill="#1d4ed8"/>
<circle cx="938.72" cy="278.90" r="3.2" fill="#1d4ed8"/>
<circle cx="940.83" cy="280.51" r="3.2" fill="#1d4ed8"/>
<circle cx="942.95" cy="279.30" r="3.2" fill="#1d4ed8"/>
<circle cx="945.07" cy="278.09" r="3.2" fill="#1d4ed8"/>
<circle cx="947.18" cy="278.49" r="3.2" fill="#1d4ed8"/>
<circle cx="949.30" cy="278.49" r="3.2" fill="#1d4ed8"/>
<circle cx="951.42" cy="277.28" r="3.2" fill="#1d4ed8"/>
<circle cx="953.53" cy="277.68" r="3.2" fill="#1d4ed8"/>
<circle cx="955.65" cy="277.68" r="3.2" fill="#1d4ed8"/>
<circle cx="957.77" cy="278.09" r="3.2" fill="#1d4ed8"/>
<circle cx="959.88" cy="277.28" r="3.2" fill="#1d4ed8"/>
<circle cx="962.00" cy="600.00" r="3.2" fill="#1d4ed8"/>
<circle cx="964.12" cy="278.90" r="3.2" fill="#1d4ed8"/>
<circle cx="966.23" cy="279.30" r="3.2" fill="#1d4ed8"/>
<circle cx="968.35" cy="278.90" r="3.2" fill="#1d4ed8"/>
<circle cx="970.47" cy="278.49" r="3.2" fill="#1d4ed8"/>
<circle cx="972.58" cy="278.49" r="3.2" fill="#1d4ed8"/>
<circle cx="974.70" cy="278.49" r="3.2" fill="#1d4ed8"/>
<circle cx="976.82" cy="278.49" r="3.2" fill="#1d4ed8"/>
<circle cx="978.93" cy="278.49" r="3.2" fill="#1d4ed8"/>
<circle cx="981.05" cy="278.49" r="3.2" fill="#1d4ed8"/>
<circle cx="983.17" cy="278.49" r="3.2" fill="#1d4ed8"/>
<circle cx="985.28" cy="278.49" r="3.2" fill="#1d4ed8"/>
<circle cx="987.40" cy="278.49" r="3.2" fill="#1d4ed8"/>
<circle cx="989.51" cy="278.49" r="3.2" fill="#1d4ed8"/>
<circle cx="991.63" cy="278.49" r="3.2" fill="#1d4ed8"/>
<circle cx="993.75" cy="278.49" r="3.2" fill="#1d4ed8"/>
<circle cx="995.86" cy="600.00" r="3.2" fill="#1d4ed8"/>
<circle cx="997.98" cy="600.00" r="3.2" fill="#1d4ed8"/>
<circle cx="1000.10" cy="254.63" r="3.2" fill="#1d4ed8"/>
<circle cx="1002.21" cy="600.00" r="3.2" fill="#1d4ed8"/>
<circle cx="1004.33" cy="245.74" r="3.2" fill="#1d4ed8"/>
<circle cx="1006.45" cy="245.74" r="3.2" fill="#1d4ed8"/>
<circle cx="1008.56" cy="246.14" r="3.2" fill="#1d4ed8"/>
<circle cx="1010.68" cy="245.74" r="3.2" fill="#1d4ed8"/>
<circle cx="1012.80" cy="245.74" r="3.2" fill="#1d4ed8"/>
<circle cx="1014.91" cy="245.74" r="3.2" fill="#1d4ed8"/>
<circle cx="1017.03" cy="245.74" r="3.2" fill="#1d4ed8"/>
<circle cx="1019.15" cy="245.74" r="3.2" fill="#1d4ed8"/>
<circle cx="1021.26" cy="240.07" r="3.2" fill="#1d4ed8"/>
<circle cx="1023.38" cy="238.05" r="3.2" fill="#1d4ed8"/>
<circle cx="1025.50" cy="238.05" r="3.2" fill="#1d4ed8"/>
<circle cx="1027.61" cy="227.13" r="3.2" fill="#1d4ed8"/>
<circle cx="1029.73" cy="227.13" r="3.2" fill="#1d4ed8"/>
<circle cx="1031.84" cy="226.32" r="3.2" fill="#1d4ed8"/>
<circle cx="1033.96" cy="227.54" r="3.2" fill="#1d4ed8"/>
<circle cx="1036.08" cy="226.73" r="3.2" fill="#1d4ed8"/>
<circle cx="1038.19" cy="226.32" r="3.2" fill="#1d4ed8"/>
<circle cx="1040.31" cy="227.13" r="3.2" fill="#1d4ed8"/>
<circle cx="1042.43" cy="227.13" r="3.2" fill="#1d4ed8"/>
<circle cx="1044.54" cy="226.73" r="3.2" fill="#1d4ed8"/>
<circle cx="1046.66" cy="226.32" r="3.2" fill="#1d4ed8"/>
<circle cx="1048.78" cy="226.73" r="3.2" fill="#1d4ed8"/>
<circle cx="1050.89" cy="226.73" r="3.2" fill="#1d4ed8"/>
<circle cx="1053.01" cy="226.73" r="3.2" fill="#1d4ed8"/>
<circle cx="1055.13" cy="225.11" r="3.2" fill="#1d4ed8"/>
<circle cx="1057.24" cy="224.71" r="3.2" fill="#1d4ed8"/>
<circle cx="1059.36" cy="225.11" r="3.2" fill="#1d4ed8"/>
<circle cx="1061.48" cy="224.30" r="3.2" fill="#1d4ed8"/>
<circle cx="1063.59" cy="226.32" r="3.2" fill="#1d4ed8"/>
<circle cx="1065.71" cy="224.30" r="3.2" fill="#1d4ed8"/>
<circle cx="1067.83" cy="225.51" r="3.2" fill="#1d4ed8"/>
<circle cx="1069.94" cy="225.51" r="3.2" fill="#1d4ed8"/>
<circle cx="1072.06" cy="225.51" r="3.2" fill="#1d4ed8"/>
<circle cx="1074.17" cy="225.92" r="3.2" fill="#1d4ed8"/>
<circle cx="1076.29" cy="223.09" r="3.2" fill="#1d4ed8"/>
<circle cx="1078.41" cy="223.49" r="3.2" fill="#1d4ed8"/>
<circle cx="1080.52" cy="223.09" r="3.2" fill="#1d4ed8"/>
<circle cx="1082.64" cy="223.09" r="3.2" fill="#1d4ed8"/>
<circle cx="1084.76" cy="223.90" r="3.2" fill="#1d4ed8"/>
<circle cx="1086.87" cy="223.49" r="3.2" fill="#1d4ed8"/>
<circle cx="1088.99" cy="223.49" r="3.2" fill="#1d4ed8"/>
<circle cx="1091.11" cy="223.09" r="3.2" fill="#1d4ed8"/>
<circle cx="1093.22" cy="223.09" r="3.2" fill="#1d4ed8"/>
<circle cx="1095.34" cy="223.49" r="3.2" fill="#1d4ed8"/>
<circle cx="1097.46" cy="223.09" r="3.2" fill="#1d4ed8"/>
<circle cx="1099.57" cy="223.09" r="3.2" fill="#1d4ed8"/>
<circle cx="1101.69" cy="223.49" r="3.2" fill="#1d4ed8"/>
<circle cx="1103.81" cy="223.49" r="3.2" fill="#1d4ed8"/>
<circle cx="1105.92" cy="223.09" r="3.2" fill="#1d4ed8"/>
<circle cx="1108.04" cy="223.09" r="3.2" fill="#1d4ed8"/>
<circle cx="1110.16" cy="223.49" r="3.2" fill="#1d4ed8"/>
<circle cx="1112.27" cy="223.09" r="3.2" fill="#1d4ed8"/>
<circle cx="1114.39" cy="223.09" r="3.2" fill="#1d4ed8"/>
<circle cx="1116.50" cy="223.09" r="3.2" fill="#1d4ed8"/>
<circle cx="1118.62" cy="223.49" r="3.2" fill="#1d4ed8"/>
<circle cx="1120.74" cy="223.49" r="3.2" fill="#1d4ed8"/>
<circle cx="1122.85" cy="223.49" r="3.2" fill="#1d4ed8"/>
<circle cx="1124.97" cy="223.09" r="3.2" fill="#1d4ed8"/>
<circle cx="1127.09" cy="223.49" r="3.2" fill="#1d4ed8"/>
<circle cx="1129.20" cy="223.09" r="3.2" fill="#1d4ed8"/>
<circle cx="1131.32" cy="223.09" r="3.2" fill="#1d4ed8"/>
<circle cx="1133.44" cy="223.49" r="3.2" fill="#1d4ed8"/>
<circle cx="1135.55" cy="223.09" r="3.2" fill="#1d4ed8"/>
<circle cx="1137.67" cy="223.09" r="3.2" fill="#1d4ed8"/>
<circle cx="1139.79" cy="223.49" r="3.2" fill="#1d4ed8"/>
<circle cx="1141.90" cy="222.68" r="3.2" fill="#1d4ed8"/>
<circle cx="1144.02" cy="221.88" r="3.2" fill="#1d4ed8"/>
<circle cx="1146.14" cy="223.49" r="3.2" fill="#1d4ed8"/>
<circle cx="1148.25" cy="223.09" r="3.2" fill="#1d4ed8"/>
<circle cx="1150.37" cy="223.49" r="3.2" fill="#1d4ed8"/>
<circle cx="1152.49" cy="224.30" r="3.2" fill="#1d4ed8"/>
<circle cx="1154.60" cy="201.65" r="3.2" fill="#1d4ed8"/>
<circle cx="1156.72" cy="201.65" r="3.2" fill="#1d4ed8"/>
<circle cx="1158.83" cy="186.69" r="3.2" fill="#1d4ed8"/>
<circle cx="1160.95" cy="176.18" r="3.2" fill="#1d4ed8"/>
<circle cx="1163.07" cy="174.15" r="3.2" fill="#1d4ed8"/>
<circle cx="1165.18" cy="172.94" r="3.2" fill="#1d4ed8"/>
<circle cx="1167.30" cy="172.94" r="3.2" fill="#1d4ed8"/>
<circle cx="1169.42" cy="162.02" r="3.2" fill="#1d4ed8"/>
<circle cx="1171.53" cy="161.21" r="3.2" fill="#1d4ed8"/>
<circle cx="1173.65" cy="148.27" r="3.2" fill="#1d4ed8"/>
<circle cx="1175.77" cy="155.96" r="3.2" fill="#1d4ed8"/>
<circle cx="1177.88" cy="139.78" r="3.2" fill="#1d4ed8"/>
<circle cx="1180.00" cy="135.33" r="3.2" fill="#1d4ed8"/>
<text x="635" y="695" text-anchor="middle" font-size="14" fill="#111" font-family="sans-serif">Date</text>
<text x="24" y="325" text-anchor="middle" font-size="14" fill="#111" transform="rotate(-90 24,325)" font-family="sans-serif">Passed files</text>
</svg>
