<?xml version="1.0" encoding="UTF-8"?>
<svg xmlns="http://www.w3.org/2000/svg" width="1280" height="720" viewBox="0 0 1280 720">
<rect width="100%" height="100%" fill="#ffffff"/>
<text x="640" y="30" text-anchor="middle" font-size="22" font-family="sans-serif">Roast passed files history</text>
<line x1="90" y1="600" x2="1180" y2="600" stroke="#333" stroke-width="1.5"/>
<line x1="90" y1="50" x2="90" y2="600" stroke="#333" stroke-width="1.5"/>
<line x1="90" y1="600.00" x2="1180" y2="600.00" stroke="#e5e7eb" stroke-width="1"/>
<text x="78" y="605.00" text-anchor="end" font-size="12" fill="#111" font-family="sans-serif">0</text>
<line x1="90" y1="397.79" x2="1180" y2="397.79" stroke="#e5e7eb" stroke-width="1"/>
<text x="78" y="402.79" text-anchor="end" font-size="12" fill="#111" font-family="sans-serif">500</text>
<line x1="90" y1="195.59" x2="1180" y2="195.59" stroke="#e5e7eb" stroke-width="1"/>
<text x="78" y="200.59" text-anchor="end" font-size="12" fill="#111" font-family="sans-serif">1000</text>
<line x1="90.00" y1="600" x2="90.00" y2="606" stroke="#333" stroke-width="1"/>
<text x="90.00" y="624" text-anchor="end" font-size="11" fill="#111" transform="rotate(-40 90.00,624)" font-family="sans-serif">2026-02-12</text>
<line x1="224.92" y1="600" x2="224.92" y2="606" stroke="#333" stroke-width="1"/>
<text x="224.92" y="624" text-anchor="end" font-size="11" fill="#111" transform="rotate(-40 224.92,624)" font-family="sans-serif">2026-02-17</text>
<line x1="359.84" y1="600" x2="359.84" y2="606" stroke="#333" stroke-width="1"/>
<text x="359.84" y="624" text-anchor="end" font-size="11" fill="#111" transform="rotate(-40 359.84,624)" font-family="sans-serif">2026-02-20</text>
<line x1="494.76" y1="600" x2="494.76" y2="606" stroke="#333" stroke-width="1"/>
<text x="494.76" y="624" text-anchor="end" font-size="11" fill="#111" transform="rotate(-40 494.76,624)" font-family="sans-serif">2026-02-24</text>
<line x1="629.67" y1="600" x2="629.67" y2="606" stroke="#333" stroke-width="1"/>
<text x="629.67" y="624" text-anchor="end" font-size="11" fill="#111" transform="rotate(-40 629.67,624)" font-family="sans-serif">2026-02-26</text>
<line x1="764.59" y1="600" x2="764.59" y2="606" stroke="#333" stroke-width="1"/>
<text x="764.59" y="624" text-anchor="end" font-size="11" fill="#111" transform="rotate(-40 764.59,624)" font-family="sans-serif">2026-02-28</text>
<line x1="899.51" y1="600" x2="899.51" y2="606" stroke="#333" stroke-width="1"/>
<text x="899.51" y="624" text-anchor="end" font-size="11" fill="#111" transform="rotate(-40 899.51,624)" font-family="sans-serif">2026-03-06</text>
<line x1="1034.43" y1="600" x2="1034.43" y2="606" stroke="#333" stroke-width="1"/>
<text x="1034.43" y="624" text-anchor="end" font-size="11" fill="#111" transform="rotate(-40 1034.43,624)" font-family="sans-serif">2026-03-06</text>
<line x1="1169.35" y1="600" x2="1169.35" y2="606" stroke="#333" stroke-width="1"/>
<text x="1169.35" y="624" text-anchor="end" font-size="11" fill="#111" transform="rotate(-40 1169.35,624)" font-family="sans-serif">2026-03-11</text>
<line x1="1180.00" y1="600" x2="1180.00" y2="606" stroke="#333" stroke-width="1"/>
<text x="1180.00" y="624" text-anchor="end" font-size="11" fill="#111" transform="rotate(-40 1180.00,624)" font-family="sans-serif">2026-03-11</text>
<line x1="90" y1="75.88" x2="1180" y2="75.88" stroke="#dc2626" stroke-width="1.5" stroke-dasharray="8,4"/>
<text x="1184" y="79.88" font-size="12" fill="#dc2626" font-family="sans-serif">Goal: 1296</text>
<polyline fill="none" stroke="#2563eb" stroke-width="3" points="90.00,540.55 93.55,538.53 97.10,536.91 100.65,534.49 104.20,534.49 107.75,533.27 111.30,532.46 114.85,532.87 118.40,532.06 121.95,532.46 125.50,532.06 129.06,568.46 132.61,568.46 136.16,566.43 139.71,545.00 143.26,545.00 146.81,544.19 150.36,543.79 153.91,543.79 157.46,543.38 161.01,541.76 164.56,541.36 168.11,540.96 171.66,540.96 175.21,539.34 178.76,539.34 182.31,556.73 185.86,556.73 189.41,555.51 192.96,551.07 196.51,538.93 200.07,538.93 203.62,538.93 207.17,538.12 210.72,536.91 214.27,536.91 217.82,536.51 221.37,536.51 224.92,556.73 228.47,556.73 232.02,556.73 235.57,556.73 239.12,535.29 242.67,535.29 246.22,535.29 249.77,535.29 253.32,534.49 256.87,534.08 260.42,533.68 263.97,532.87 267.52,532.06 271.07,532.06 274.63,531.25 278.18,530.85 281.73,530.44 285.28,530.04 288.83,530.04 292.38,529.23 295.93,529.23 299.48,529.23 303.03,528.42 306.58,528.42 310.13,527.61 313.68,527.21 317.23,526.80 320.78,526.40 324.33,525.18 327.88,523.57 331.43,523.57 334.98,523.16 338.53,522.76 342.08,522.35 345.64,521.54 349.19,519.52 352.74,517.50 356.29,517.50 359.84,517.50 363.39,517.50 366.94,517.50 370.49,517.50 374.04,517.10 377.59,516.69 381.14,515.48 384.69,515.07 388.24,514.67 391.79,513.86 395.34,514.26 398.89,512.24 402.44,511.84 405.99,511.84 409.54,511.03 413.09,509.82 416.64,507.79 420.20,506.99 423.75,506.58 427.30,509.41 430.85,509.01 434.40,504.96 437.95,504.56 441.50,504.15 445.05,504.56 448.60,503.75 452.15,503.75 455.70,503.35 459.25,499.30 462.80,496.47 466.35,490.00 469.90,484.34 473.45,481.10 477.00,480.29 480.55,480.70 484.10,460.88 487.65,459.26 491.21,458.05 494.76,456.03 498.31,456.03 501.86,454.41 505.41,450.77 508.96,444.30 512.51,443.90 516.06,600.00 519.61,441.88 523.16,440.66 526.71,439.45 530.26,439.04 533.81,438.64 537.36,437.83 540.91,436.62 544.46,436.62 548.01,434.60 551.56,432.17 555.11,429.34 558.66,428.93 562.21,428.53 565.77,427.72 569.32,426.91 572.87,426.10 576.42,426.10 579.97,426.10 583.52,419.63 587.07,419.23 590.62,418.42 594.17,418.01 597.72,417.61 601.27,417.61 604.82,417.61 608.37,417.21 611.92,417.21 615.47,413.57 619.02,411.95 622.57,412.76 626.12,410.74 629.67,410.74 633.22,410.33 636.78,410.33 640.33,410.33 643.88,409.93 647.43,409.93 650.98,409.93 654.53,409.52 658.08,409.52 661.63,409.12 665.18,409.52 668.73,409.12 672.28,407.50 675.83,407.10 679.38,403.05 682.93,399.82 686.48,400.22 690.03,400.62 693.58,400.62 697.13,399.41 700.68,392.94 704.23,391.32 707.79,389.30 711.34,389.30 714.89,388.49 718.44,375.15 721.99,374.74 725.54,374.74 729.09,374.74 732.64,374.74 736.19,374.34 739.74,374.34 743.29,374.34 746.84,374.34 750.39,374.34 753.94,373.93 757.49,373.12 761.04,372.72 764.59,373.53 768.14,435.81 771.69,372.32 775.24,372.72 778.79,371.91 782.35,371.91 785.90,372.32 789.45,371.10 793.00,369.89 796.55,369.89 800.10,369.89 803.65,369.49 807.20,369.89 810.75,369.08 814.30,368.68 817.85,368.27 821.40,367.87 824.95,367.06 828.50,367.46 832.05,367.06 835.60,366.25 839.15,368.27 842.70,368.68 846.25,368.68 849.80,368.27 853.36,369.08 856.91,367.87 860.46,367.46 864.01,367.06 867.56,360.18 871.11,359.78 874.66,359.38 878.21,356.95 881.76,357.35 885.31,357.76 888.86,355.33 892.41,355.74 895.96,357.35 899.51,355.33 903.06,356.14 906.61,355.74 910.16,356.14 913.71,354.12 917.26,354.93 920.81,356.14 924.36,354.52 927.92,353.71 931.47,354.12 935.02,354.93 938.57,352.90 942.12,353.71 945.67,353.31 949.22,353.31 952.77,354.52 956.32,352.90 959.87,352.50 963.42,352.50 966.97,353.31 970.52,352.50 974.07,353.71 977.62,354.12 981.17,352.50 984.72,352.90 988.27,352.50 991.82,352.10 995.37,351.69 998.93,352.10 1002.48,354.12 1006.03,352.50 1009.58,352.10 1013.13,352.10 1016.68,349.67 1020.23,349.67 1023.78,350.88 1027.33,351.29 1030.88,350.48 1034.43,352.10 1037.98,350.48 1041.53,350.48 1045.08,350.48 1048.63,350.07 1052.18,348.46 1055.73,351.29 1059.28,349.67 1062.83,351.29 1066.38,349.67 1069.93,348.86 1073.49,348.46 1077.04,348.46 1080.59,347.24 1084.14,348.86 1087.69,346.84 1091.24,348.46 1094.79,348.86 1098.34,346.84 1101.89,349.26 1105.44,348.05 1108.99,349.26 1112.54,349.26 1116.09,350.48 1119.64,352.90 1123.19,349.67 1126.74,348.46 1130.29,345.62 1133.84,344.82 1137.39,344.41 1140.94,342.39 1144.50,341.18 1148.05,341.58 1151.60,339.15 1155.15,338.35 1158.70,337.54 1162.25,336.73 1165.80,335.92 1169.35,337.54 1172.90,338.35 1176.45,337.54 1180.00,337.54"/>
<circle cx="90.00" cy="540.55" r="3.2" fill="#1d4ed8"/>
<circle cx="93.55" cy="538.53" r="3.2" fill="#1d4ed8"/>
<circle cx="97.10" cy="536.91" r="3.2" fill="#1d4ed8"/>
<circle cx="100.65" cy="534.49" r="3.2" fill="#1d4ed8"/>
<circle cx="104.20" cy="534.49" r="3.2" fill="#1d4ed8"/>
<circle cx="107.75" cy="533.27" r="3.2" fill="#1d4ed8"/>
<circle cx="111.30" cy="532.46" r="3.2" fill="#1d4ed8"/>
<circle cx="114.85" cy="532.87" r="3.2" fill="#1d4ed8"/>
<circle cx="118.40" cy="532.06" r="3.2" fill="#1d4ed8"/>
<circle cx="121.95" cy="532.46" r="3.2" fill="#1d4ed8"/>
<circle cx="125.50" cy="532.06" r="3.2" fill="#1d4ed8"/>
<circle cx="129.06" cy="568.46" r="3.2" fill="#1d4ed8"/>
<circle cx="132.61" cy="568.46" r="3.2" fill="#1d4ed8"/>
<circle cx="136.16" cy="566.43" r="3.2" fill="#1d4ed8"/>
<circle cx="139.71" cy="545.00" r="3.2" fill="#1d4ed8"/>
<circle cx="143.26" cy="545.00" r="3.2" fill="#1d4ed8"/>
<circle cx="146.81" cy="544.19" r="3.2" fill="#1d4ed8"/>
<circle cx="150.36" cy="543.79" r="3.2" fill="#1d4ed8"/>
<circle cx="153.91" cy="543.79" r="3.2" fill="#1d4ed8"/>
<circle cx="157.46" cy="543.38" r="3.2" fill="#1d4ed8"/>
<circle cx="161.01" cy="541.76" r="3.2" fill="#1d4ed8"/>
<circle cx="164.56" cy="541.36" r="3.2" fill="#1d4ed8"/>
<circle cx="168.11" cy="540.96" r="3.2" fill="#1d4ed8"/>
<circle cx="171.66" cy="540.96" r="3.2" fill="#1d4ed8"/>
<circle cx="175.21" cy="539.34" r="3.2" fill="#1d4ed8"/>
<circle cx="178.76" cy="539.34" r="3.2" fill="#1d4ed8"/>
<circle cx="182.31" cy="556.73" r="3.2" fill="#1d4ed8"/>
<circle cx="185.86" cy="556.73" r="3.2" fill="#1d4ed8"/>
<circle cx="189.41" cy="555.51" r="3.2" fill="#1d4ed8"/>
<circle cx="192.96" cy="551.07" r="3.2" fill="#1d4ed8"/>
<circle cx="196.51" cy="538.93" r="3.2" fill="#1d4ed8"/>
<circle cx="200.07" cy="538.93" r="3.2" fill="#1d4ed8"/>
<circle cx="203.62" cy="538.93" r="3.2" fill="#1d4ed8"/>
<circle cx="207.17" cy="538.12" r="3.2" fill="#1d4ed8"/>
<circle cx="210.72" cy="536.91" r="3.2" fill="#1d4ed8"/>
<circle cx="214.27" cy="536.91" r="3.2" fill="#1d4ed8"/>
<circle cx="217.82" cy="536.51" r="3.2" fill="#1d4ed8"/>
<circle cx="221.37" cy="536.51" r="3.2" fill="#1d4ed8"/>
<circle cx="224.92" cy="556.73" r="3.2" fill="#1d4ed8"/>
<circle cx="228.47" cy="556.73" r="3.2" fill="#1d4ed8"/>
<circle cx="232.02" cy="556.73" r="3.2" fill="#1d4ed8"/>
<circle cx="235.57" cy="556.73" r="3.2" fill="#1d4ed8"/>
<circle cx="239.12" cy="535.29" r="3.2" fill="#1d4ed8"/>
<circle cx="242.67" cy="535.29" r="3.2" fill="#1d4ed8"/>
<circle cx="246.22" cy="535.29" r="3.2" fill="#1d4ed8"/>
<circle cx="249.77" cy="535.29" r="3.2" fill="#1d4ed8"/>
<circle cx="253.32" cy="534.49" r="3.2" fill="#1d4ed8"/>
<circle cx="256.87" cy="534.08" r="3.2" fill="#1d4ed8"/>
<circle cx="260.42" cy="533.68" r="3.2" fill="#1d4ed8"/>
<circle cx="263.97" cy="532.87" r="3.2" fill="#1d4ed8"/>
<circle cx="267.52" cy="532.06" r="3.2" fill="#1d4ed8"/>
<circle cx="271.07" cy="532.06" r="3.2" fill="#1d4ed8"/>
<circle cx="274.63" cy="531.25" r="3.2" fill="#1d4ed8"/>
<circle cx="278.18" cy="530.85" r="3.2" fill="#1d4ed8"/>
<circle cx="281.73" cy="530.44" r="3.2" fill="#1d4ed8"/>
<circle cx="285.28" cy="530.04" r="3.2" fill="#1d4ed8"/>
<circle cx="288.83" cy="530.04" r="3.2" fill="#1d4ed8"/>
<circle cx="292.38" cy="529.23" r="3.2" fill="#1d4ed8"/>
<circle cx="295.93" cy="529.23" r="3.2" fill="#1d4ed8"/>
<circle cx="299.48" cy="529.23" r="3.2" fill="#1d4ed8"/>
<circle cx="303.03" cy="528.42" r="3.2" fill="#1d4ed8"/>
<circle cx="306.58" cy="528.42" r="3.2" fill="#1d4ed8"/>
<circle cx="310.13" cy="527.61" r="3.2" fill="#1d4ed8"/>
<circle cx="313.68" cy="527.21" r="3.2" fill="#1d4ed8"/>
<circle cx="317.23" cy="526.80" r="3.2" fill="#1d4ed8"/>
<circle cx="320.78" cy="526.40" r="3.2" fill="#1d4ed8"/>
<circle cx="324.33" cy="525.18" r="3.2" fill="#1d4ed8"/>
<circle cx="327.88" cy="523.57" r="3.2" fill="#1d4ed8"/>
<circle cx="331.43" cy="523.57" r="3.2" fill="#1d4ed8"/>
<circle cx="334.98" cy="523.16" r="3.2" fill="#1d4ed8"/>
<circle cx="338.53" cy="522.76" r="3.2" fill="#1d4ed8"/>
<circle cx="342.08" cy="522.35" r="3.2" fill="#1d4ed8"/>
<circle cx="345.64" cy="521.54" r="3.2" fill="#1d4ed8"/>
<circle cx="349.19" cy="519.52" r="3.2" fill="#1d4ed8"/>
<circle cx="352.74" cy="517.50" r="3.2" fill="#1d4ed8"/>
<circle cx="356.29" cy="517.50" r="3.2" fill="#1d4ed8"/>
<circle cx="359.84" cy="517.50" r="3.2" fill="#1d4ed8"/>
<circle cx="363.39" cy="517.50" r="3.2" fill="#1d4ed8"/>
<circle cx="366.94" cy="517.50" r="3.2" fill="#1d4ed8"/>
<circle cx="370.49" cy="517.50" r="3.2" fill="#1d4ed8"/>
<circle cx="374.04" cy="517.10" r="3.2" fill="#1d4ed8"/>
<circle cx="377.59" cy="516.69" r="3.2" fill="#1d4ed8"/>
<circle cx="381.14" cy="515.48" r="3.2" fill="#1d4ed8"/>
<circle cx="384.69" cy="515.07" r="3.2" fill="#1d4ed8"/>
<circle cx="388.24" cy="514.67" r="3.2" fill="#1d4ed8"/>
<circle cx="391.79" cy="513.86" r="3.2" fill="#1d4ed8"/>
<circle cx="395.34" cy="514.26" r="3.2" fill="#1d4ed8"/>
<circle cx="398.89" cy="512.24" r="3.2" fill="#1d4ed8"/>
<circle cx="402.44" cy="511.84" r="3.2" fill="#1d4ed8"/>
<circle cx="405.99" cy="511.84" r="3.2" fill="#1d4ed8"/>
<circle cx="409.54" cy="511.03" r="3.2" fill="#1d4ed8"/>
<circle cx="413.09" cy="509.82" r="3.2" fill="#1d4ed8"/>
<circle cx="416.64" cy="507.79" r="3.2" fill="#1d4ed8"/>
<circle cx="420.20" cy="506.99" r="3.2" fill="#1d4ed8"/>
<circle cx="423.75" cy="506.58" r="3.2" fill="#1d4ed8"/>
<circle cx="427.30" cy="509.41" r="3.2" fill="#1d4ed8"/>
<circle cx="430.85" cy="509.01" r="3.2" fill="#1d4ed8"/>
<circle cx="434.40" cy="504.96" r="3.2" fill="#1d4ed8"/>
<circle cx="437.95" cy="504.56" r="3.2" fill="#1d4ed8"/>
<circle cx="441.50" cy="504.15" r="3.2" fill="#1d4ed8"/>
<circle cx="445.05" cy="504.56" r="3.2" fill="#1d4ed8"/>
<circle cx="448.60" cy="503.75" r="3.2" fill="#1d4ed8"/>
<circle cx="452.15" cy="503.75" r="3.2" fill="#1d4ed8"/>
<circle cx="455.70" cy="503.35" r="3.2" fill="#1d4ed8"/>
<circle cx="459.25" cy="499.30" r="3.2" fill="#1d4ed8"/>
<circle cx="462.80" cy="496.47" r="3.2" fill="#1d4ed8"/>
<circle cx="466.35" cy="490.00" r="3.2" fill="#1d4ed8"/>
<circle cx="469.90" cy="484.34" r="3.2" fill="#1d4ed8"/>
<circle cx="473.45" cy="481.10" r="3.2" fill="#1d4ed8"/>
<circle cx="477.00" cy="480.29" r="3.2" fill="#1d4ed8"/>
<circle cx="480.55" cy="480.70" r="3.2" fill="#1d4ed8"/>
<circle cx="484.10" cy="460.88" r="3.2" fill="#1d4ed8"/>
<circle cx="487.65" cy="459.26" r="3.2" fill="#1d4ed8"/>
<circle cx="491.21" cy="458.05" r="3.2" fill="#1d4ed8"/>
<circle cx="494.76" cy="456.03" r="3.2" fill="#1d4ed8"/>
<circle cx="498.31" cy="456.03" r="3.2" fill="#1d4ed8"/>
<circle cx="501.86" cy="454.41" r="3.2" fill="#1d4ed8"/>
<circle cx="505.41" cy="450.77" r="3.2" fill="#1d4ed8"/>
<circle cx="508.96" cy="444.30" r="3.2" fill="#1d4ed8"/>
<circle cx="512.51" cy="443.90" r="3.2" fill="#1d4ed8"/>
<circle cx="516.06" cy="600.00" r="3.2" fill="#1d4ed8"/>
<circle cx="519.61" cy="441.88" r="3.2" fill="#1d4ed8"/>
<circle cx="523.16" cy="440.66" r="3.2" fill="#1d4ed8"/>
<circle cx="526.71" cy="439.45" r="3.2" fill="#1d4ed8"/>
<circle cx="530.26" cy="439.04" r="3.2" fill="#1d4ed8"/>
<circle cx="533.81" cy="438.64" r="3.2" fill="#1d4ed8"/>
<circle cx="537.36" cy="437.83" r="3.2" fill="#1d4ed8"/>
<circle cx="540.91" cy="436.62" r="3.2" fill="#1d4ed8"/>
<circle cx="544.46" cy="436.62" r="3.2" fill="#1d4ed8"/>
<circle cx="548.01" cy="434.60" r="3.2" fill="#1d4ed8"/>
<circle cx="551.56" cy="432.17" r="3.2" fill="#1d4ed8"/>
<circle cx="555.11" cy="429.34" r="3.2" fill="#1d4ed8"/>
<circle cx="558.66" cy="428.93" r="3.2" fill="#1d4ed8"/>
<circle cx="562.21" cy="428.53" r="3.2" fill="#1d4ed8"/>
<circle cx="565.77" cy="427.72" r="3.2" fill="#1d4ed8"/>
<circle cx="569.32" cy="426.91" r="3.2" fill="#1d4ed8"/>
<circle cx="572.87" cy="426.10" r="3.2" fill="#1d4ed8"/>
<circle cx="576.42" cy="426.10" r="3.2" fill="#1d4ed8"/>
<circle cx="579.97" cy="426.10" r="3.2" fill="#1d4ed8"/>
<circle cx="583.52" cy="419.63" r="3.2" fill="#1d4ed8"/>
<circle cx="587.07" cy="419.23" r="3.2" fill="#1d4ed8"/>
<circle cx="590.62" cy="418.42" r="3.2" fill="#1d4ed8"/>
<circle cx="594.17" cy="418.01" r="3.2" fill="#1d4ed8"/>
<circle cx="597.72" cy="417.61" r="3.2" fill="#1d4ed8"/>
<circle cx="601.27" cy="417.61" r="3.2" fill="#1d4ed8"/>
<circle cx="604.82" cy="417.61" r="3.2" fill="#1d4ed8"/>
<circle cx="608.37" cy="417.21" r="3.2" fill="#1d4ed8"/>
<circle cx="611.92" cy="417.21" r="3.2" fill="#1d4ed8"/>
<circle cx="615.47" cy="413.57" r="3.2" fill="#1d4ed8"/>
<circle cx="619.02" cy="411.95" r="3.2" fill="#1d4ed8"/>
<circle cx="622.57" cy="412.76" r="3.2" fill="#1d4ed8"/>
<circle cx="626.12" cy="410.74" r="3.2" fill="#1d4ed8"/>
<circle cx="629.67" cy="410.74" r="3.2" fill="#1d4ed8"/>
<circle cx="633.22" cy="410.33" r="3.2" fill="#1d4ed8"/>
<circle cx="636.78" cy="410.33" r="3.2" fill="#1d4ed8"/>
<circle cx="640.33" cy="410.33" r="3.2" fill="#1d4ed8"/>
<circle cx="643.88" cy="409.93" r="3.2" fill="#1d4ed8"/>
<circle cx="647.43" cy="409.93" r="3.2" fill="#1d4ed8"/>
<circle cx="650.98" cy="409.93" r="3.2" fill="#1d4ed8"/>
<circle cx="654.53" cy="409.52" r="3.2" fill="#1d4ed8"/>
<circle cx="658.08" cy="409.52" r="3.2" fill="#1d4ed8"/>
<circle cx="661.63" cy="409.12" r="3.2" fill="#1d4ed8"/>
<circle cx="665.18" cy="409.52" r="3.2" fill="#1d4ed8"/>
<circle cx="668.73" cy="409.12" r="3.2" fill="#1d4ed8"/>
<circle cx="672.28" cy="407.50" r="3.2" fill="#1d4ed8"/>
<circle cx="675.83" cy="407.10" r="3.2" fill="#1d4ed8"/>
<circle cx="679.38" cy="403.05" r="3.2" fill="#1d4ed8"/>
<circle cx="682.93" cy="399.82" r="3.2" fill="#1d4ed8"/>
<circle cx="686.48" cy="400.22" r="3.2" fill="#1d4ed8"/>
<circle cx="690.03" cy="400.62" r="3.2" fill="#1d4ed8"/>
<circle cx="693.58" cy="400.62" r="3.2" fill="#1d4ed8"/>
<circle cx="697.13" cy="399.41" r="3.2" fill="#1d4ed8"/>
<circle cx="700.68" cy="392.94" r="3.2" fill="#1d4ed8"/>
<circle cx="704.23" cy="391.32" r="3.2" fill="#1d4ed8"/>
<circle cx="707.79" cy="389.30" r="3.2" fill="#1d4ed8"/>
<circle cx="711.34" cy="389.30" r="3.2" fill="#1d4ed8"/>
<circle cx="714.89" cy="388.49" r="3.2" fill="#1d4ed8"/>
<circle cx="718.44" cy="375.15" r="3.2" fill="#1d4ed8"/>
<circle cx="721.99" cy="374.74" r="3.2" fill="#1d4ed8"/>
<circle cx="725.54" cy="374.74" r="3.2" fill="#1d4ed8"/>
<circle cx="729.09" cy="374.74" r="3.2" fill="#1d4ed8"/>
<circle cx="732.64" cy="374.74" r="3.2" fill="#1d4ed8"/>
<circle cx="736.19" cy="374.34" r="3.2" fill="#1d4ed8"/>
<circle cx="739.74" cy="374.34" r="3.2" fill="#1d4ed8"/>
<circle cx="743.29" cy="374.34" r="3.2" fill="#1d4ed8"/>
<circle cx="746.84" cy="374.34" r="3.2" fill="#1d4ed8"/>
<circle cx="750.39" cy="374.34" r="3.2" fill="#1d4ed8"/>
<circle cx="753.94" cy="373.93" r="3.2" fill="#1d4ed8"/>
<circle cx="757.49" cy="373.12" r="3.2" fill="#1d4ed8"/>
<circle cx="761.04" cy="372.72" r="3.2" fill="#1d4ed8"/>
<circle cx="764.59" cy="373.53" r="3.2" fill="#1d4ed8"/>
<circle cx="768.14" cy="435.81" r="3.2" fill="#1d4ed8"/>
<circle cx="771.69" cy="372.32" r="3.2" fill="#1d4ed8"/>
<circle cx="775.24" cy="372.72" r="3.2" fill="#1d4ed8"/>
<circle cx="778.79" cy="371.91" r="3.2" fill="#1d4ed8"/>
<circle cx="782.35" cy="371.91" r="3.2" fill="#1d4ed8"/>
<circle cx="785.90" cy="372.32" r="3.2" fill="#1d4ed8"/>
<circle cx="789.45" cy="371.10" r="3.2" fill="#1d4ed8"/>
<circle cx="793.00" cy="369.89" r="3.2" fill="#1d4ed8"/>
<circle cx="796.55" cy="369.89" r="3.2" fill="#1d4ed8"/>
<circle cx="800.10" cy="369.89" r="3.2" fill="#1d4ed8"/>
<circle cx="803.65" cy="369.49" r="3.2" fill="#1d4ed8"/>
<circle cx="807.20" cy="369.89" r="3.2" fill="#1d4ed8"/>
<circle cx="810.75" cy="369.08" r="3.2" fill="#1d4ed8"/>
<circle cx="814.30" cy="368.68" r="3.2" fill="#1d4ed8"/>
<circle cx="817.85" cy="368.27" r="3.2" fill="#1d4ed8"/>
<circle cx="821.40" cy="367.87" r="3.2" fill="#1d4ed8"/>
<circle cx="824.95" cy="367.06" r="3.2" fill="#1d4ed8"/>
<circle cx="828.50" cy="367.46" r="3.2" fill="#1d4ed8"/>
<circle cx="832.05" cy="367.06" r="3.2" fill="#1d4ed8"/>
<circle cx="835.60" cy="366.25" r="3.2" fill="#1d4ed8"/>
<circle cx="839.15" cy="368.27" r="3.2" fill="#1d4ed8"/>
<circle cx="842.70" cy="368.68" r="3.2" fill="#1d4ed8"/>
<circle cx="846.25" cy="368.68" r="3.2" fill="#1d4ed8"/>
<circle cx="849.80" cy="368.27" r="3.2" fill="#1d4ed8"/>
<circle cx="853.36" cy="369.08" r="3.2" fill="#1d4ed8"/>
<circle cx="856.91" cy="367.87" r="3.2" fill="#1d4ed8"/>
<circle cx="860.46" cy="367.46" r="3.2" fill="#1d4ed8"/>
<circle cx="864.01" cy="367.06" r="3.2" fill="#1d4ed8"/>
<circle cx="867.56" cy="360.18" r="3.2" fill="#1d4ed8"/>
<circle cx="871.11" cy="359.78" r="3.2" fill="#1d4ed8"/>
<circle cx="874.66" cy="359.38" r="3.2" fill="#1d4ed8"/>
<circle cx="878.21" cy="356.95" r="3.2" fill="#1d4ed8"/>
<circle cx="881.76" cy="357.35" r="3.2" fill="#1d4ed8"/>
<circle cx="885.31" cy="357.76" r="3.2" fill="#1d4ed8"/>
<circle cx="888.86" cy="355.33" r="3.2" fill="#1d4ed8"/>
<circle cx="892.41" cy="355.74" r="3.2" fill="#1d4ed8"/>
<circle cx="895.96" cy="357.35" r="3.2" fill="#1d4ed8"/>
<circle cx="899.51" cy="355.33" r="3.2" fill="#1d4ed8"/>
<circle cx="903.06" cy="356.14" r="3.2" fill="#1d4ed8"/>
<circle cx="906.61" cy="355.74" r="3.2" fill="#1d4ed8"/>
<circle cx="910.16" cy="356.14" r="3.2" fill="#1d4ed8"/>
<circle cx="913.71" cy="354.12" r="3.2" fill="#1d4ed8"/>
<circle cx="917.26" cy="354.93" r="3.2" fill="#1d4ed8"/>
<circle cx="920.81" cy="356.14" r="3.2" fill="#1d4ed8"/>
<circle cx="924.36" cy="354.52" r="3.2" fill="#1d4ed8"/>
<circle cx="927.92" cy="353.71" r="3.2" fill="#1d4ed8"/>
<circle cx="931.47" cy="354.12" r="3.2" fill="#1d4ed8"/>
<circle cx="935.02" cy="354.93" r="3.2" fill="#1d4ed8"/>
<circle cx="938.57" cy="352.90" r="3.2" fill="#1d4ed8"/>
<circle cx="942.12" cy="353.71" r="3.2" fill="#1d4ed8"/>
<circle cx="945.67" cy="353.31" r="3.2" fill="#1d4ed8"/>
<circle cx="949.22" cy="353.31" r="3.2" fill="#1d4ed8"/>
<circle cx="952.77" cy="354.52" r="3.2" fill="#1d4ed8"/>
<circle cx="956.32" cy="352.90" r="3.2" fill="#1d4ed8"/>
<circle cx="959.87" cy="352.50" r="3.2" fill="#1d4ed8"/>
<circle cx="963.42" cy="352.50" r="3.2" fill="#1d4ed8"/>
<circle cx="966.97" cy="353.31" r="3.2" fill="#1d4ed8"/>
<circle cx="970.52" cy="352.50" r="3.2" fill="#1d4ed8"/>
<circle cx="974.07" cy="353.71" r="3.2" fill="#1d4ed8"/>
<circle cx="977.62" cy="354.12" r="3.2" fill="#1d4ed8"/>
<circle cx="981.17" cy="352.50" r="3.2" fill="#1d4ed8"/>
<circle cx="984.72" cy="352.90" r="3.2" fill="#1d4ed8"/>
<circle cx="988.27" cy="352.50" r="3.2" fill="#1d4ed8"/>
<circle cx="991.82" cy="352.10" r="3.2" fill="#1d4ed8"/>
<circle cx="995.37" cy="351.69" r="3.2" fill="#1d4ed8"/>
<circle cx="998.93" cy="352.10" r="3.2" fill="#1d4ed8"/>
<circle cx="1002.48" cy="354.12" r="3.2" fill="#1d4ed8"/>
<circle cx="1006.03" cy="352.50" r="3.2" fill="#1d4ed8"/>
<circle cx="1009.58" cy="352.10" r="3.2" fill="#1d4ed8"/>
<circle cx="1013.13" cy="352.10" r="3.2" fill="#1d4ed8"/>
<circle cx="1016.68" cy="349.67" r="3.2" fill="#1d4ed8"/>
<circle cx="1020.23" cy="349.67" r="3.2" fill="#1d4ed8"/>
<circle cx="1023.78" cy="350.88" r="3.2" fill="#1d4ed8"/>
<circle cx="1027.33" cy="351.29" r="3.2" fill="#1d4ed8"/>
<circle cx="1030.88" cy="350.48" r="3.2" fill="#1d4ed8"/>
<circle cx="1034.43" cy="352.10" r="3.2" fill="#1d4ed8"/>
<circle cx="1037.98" cy="350.48" r="3.2" fill="#1d4ed8"/>
<circle cx="1041.53" cy="350.48" r="3.2" fill="#1d4ed8"/>
<circle cx="1045.08" cy="350.48" r="3.2" fill="#1d4ed8"/>
<circle cx="1048.63" cy="350.07" r="3.2" fill="#1d4ed8"/>
<circle cx="1052.18" cy="348.46" r="3.2" fill="#1d4ed8"/>
<circle cx="1055.73" cy="351.29" r="3.2" fill="#1d4ed8"/>
<circle cx="1059.28" cy="349.67" r="3.2" fill="#1d4ed8"/>
<circle cx="1062.83" cy="351.29" r="3.2" fill="#1d4ed8"/>
<circle cx="1066.38" cy="349.67" r="3.2" fill="#1d4ed8"/>
<circle cx="1069.93" cy="348.86" r="3.2" fill="#1d4ed8"/>
<circle cx="1073.49" cy="348.46" r="3.2" fill="#1d4ed8"/>
<circle cx="1077.04" cy="348.46" r="3.2" fill="#1d4ed8"/>
<circle cx="1080.59" cy="347.24" r="3.2" fill="#1d4ed8"/>
<circle cx="1084.14" cy="348.86" r="3.2" fill="#1d4ed8"/>
<circle cx="1087.69" cy="346.84" r="3.2" fill="#1d4ed8"/>
<circle cx="1091.24" cy="348.46" r="3.2" fill="#1d4ed8"/>
<circle cx="1094.79" cy="348.86" r="3.2" fill="#1d4ed8"/>
<circle cx="1098.34" cy="346.84" r="3.2" fill="#1d4ed8"/>
<circle cx="1101.89" cy="349.26" r="3.2" fill="#1d4ed8"/>
<circle cx="1105.44" cy="348.05" r="3.2" fill="#1d4ed8"/>
<circle cx="1108.99" cy="349.26" r="3.2" fill="#1d4ed8"/>
<circle cx="1112.54" cy="349.26" r="3.2" fill="#1d4ed8"/>
<circle cx="1116.09" cy="350.48" r="3.2" fill="#1d4ed8"/>
<circle cx="1119.64" cy="352.90" r="3.2" fill="#1d4ed8"/>
<circle cx="1123.19" cy="349.67" r="3.2" fill="#1d4ed8"/>
<circle cx="1126.74" cy="348.46" r="3.2" fill="#1d4ed8"/>
<circle cx="1130.29" cy="345.62" r="3.2" fill="#1d4ed8"/>
<circle cx="1133.84" cy="344.82" r="3.2" fill="#1d4ed8"/>
<circle cx="1137.39" cy="344.41" r="3.2" fill="#1d4ed8"/>
<circle cx="1140.94" cy="342.39" r="3.2" fill="#1d4ed8"/>
<circle cx="1144.50" cy="341.18" r="3.2" fill="#1d4ed8"/>
<circle cx="1148.05" cy="341.58" r="3.2" fill="#1d4ed8"/>
<circle cx="1151.60" cy="339.15" r="3.2" fill="#1d4ed8"/>
<circle cx="1155.15" cy="338.35" r="3.2" fill="#1d4ed8"/>
<circle cx="1158.70" cy="337.54" r="3.2" fill="#1d4ed8"/>
<circle cx="1162.25" cy="336.73" r="3.2" fill="#1d4ed8"/>
<circle cx="1165.80" cy="335.92" r="3.2" fill="#1d4ed8"/>
<circle cx="1169.35" cy="337.54" r="3.2" fill="#1d4ed8"/>
<circle cx="1172.90" cy="338.35" r="3.2" fill="#1d4ed8"/>
<circle cx="1176.45" cy="337.54" r="3.2" fill="#1d4ed8"/>
<circle cx="1180.00" cy="337.54" r="3.2" fill="#1d4ed8"/>
<text x="635" y="695" text-anchor="middle" font-size="14" fill="#111" font-family="sans-serif">Date</text>
<text x="24" y="325" text-anchor="middle" font-size="14" fill="#111" transform="rotate(-90 24,325)" font-family="sans-serif">Passed files</text>
</svg>
