<?xml version="1.0" encoding="UTF-8"?>
<svg xmlns="http://www.w3.org/2000/svg" width="1280" height="720" viewBox="0 0 1280 720">
<rect width="100%" height="100%" fill="#ffffff"/>
<text x="640" y="30" text-anchor="middle" font-size="22" font-family="sans-serif">Roast passed files history</text>
<line x1="90" y1="600" x2="1180" y2="600" stroke="#333" stroke-width="1.5"/>
<line x1="90" y1="50" x2="90" y2="600" stroke="#333" stroke-width="1.5"/>
<line x1="90" y1="600.00" x2="1180" y2="600.00" stroke="#e5e7eb" stroke-width="1"/>
<text x="78" y="605.00" text-anchor="end" font-size="12" fill="#111" font-family="sans-serif">0</text>
<line x1="90" y1="397.79" x2="1180" y2="397.79" stroke="#e5e7eb" stroke-width="1"/>
<text x="78" y="402.79" text-anchor="end" font-size="12" fill="#111" font-family="sans-serif">500</text>
<line x1="90" y1="195.59" x2="1180" y2="195.59" stroke="#e5e7eb" stroke-width="1"/>
<text x="78" y="200.59" text-anchor="end" font-size="12" fill="#111" font-family="sans-serif">1000</text>
<line x1="90.00" y1="600" x2="90.00" y2="606" stroke="#333" stroke-width="1"/>
<text x="90.00" y="624" text-anchor="end" font-size="11" fill="#111" transform="rotate(-40 90.00,624)" font-family="sans-serif">2026-02-12</text>
<line x1="224.82" y1="600" x2="224.82" y2="606" stroke="#333" stroke-width="1"/>
<text x="224.82" y="624" text-anchor="end" font-size="11" fill="#111" transform="rotate(-40 224.82,624)" font-family="sans-serif">2026-02-17</text>
<line x1="359.63" y1="600" x2="359.63" y2="606" stroke="#333" stroke-width="1"/>
<text x="359.63" y="624" text-anchor="end" font-size="11" fill="#111" transform="rotate(-40 359.63,624)" font-family="sans-serif">2026-02-22</text>
<line x1="494.45" y1="600" x2="494.45" y2="606" stroke="#333" stroke-width="1"/>
<text x="494.45" y="624" text-anchor="end" font-size="11" fill="#111" transform="rotate(-40 494.45,624)" font-family="sans-serif">2026-02-26</text>
<line x1="629.26" y1="600" x2="629.26" y2="606" stroke="#333" stroke-width="1"/>
<text x="629.26" y="624" text-anchor="end" font-size="11" fill="#111" transform="rotate(-40 629.26,624)" font-family="sans-serif">2026-02-28</text>
<line x1="764.08" y1="600" x2="764.08" y2="606" stroke="#333" stroke-width="1"/>
<text x="764.08" y="624" text-anchor="end" font-size="11" fill="#111" transform="rotate(-40 764.08,624)" font-family="sans-serif">2026-03-06</text>
<line x1="898.89" y1="600" x2="898.89" y2="606" stroke="#333" stroke-width="1"/>
<text x="898.89" y="624" text-anchor="end" font-size="11" fill="#111" transform="rotate(-40 898.89,624)" font-family="sans-serif">2026-03-07</text>
<line x1="1033.71" y1="600" x2="1033.71" y2="606" stroke="#333" stroke-width="1"/>
<text x="1033.71" y="624" text-anchor="end" font-size="11" fill="#111" transform="rotate(-40 1033.71,624)" font-family="sans-serif">2026-03-11</text>
<line x1="1168.53" y1="600" x2="1168.53" y2="606" stroke="#333" stroke-width="1"/>
<text x="1168.53" y="624" text-anchor="end" font-size="11" fill="#111" transform="rotate(-40 1168.53,624)" font-family="sans-serif">2026-03-18</text>
<line x1="1180.00" y1="600" x2="1180.00" y2="606" stroke="#333" stroke-width="1"/>
<text x="1180.00" y="624" text-anchor="end" font-size="11" fill="#111" transform="rotate(-40 1180.00,624)" font-family="sans-serif">2026-03-19</text>
<line x1="90" y1="75.88" x2="1180" y2="75.88" stroke="#dc2626" stroke-width="1.5" stroke-dasharray="8,4"/>
<text x="1184" y="79.88" font-size="12" fill="#dc2626" font-family="sans-serif">Goal: 1296</text>
<polyline fill="none" stroke="#2563eb" stroke-width="3" points="90.00,540.55 92.87,538.53 95.74,536.91 98.61,534.49 101.47,534.49 104.34,533.27 107.21,532.46 110.08,532.87 112.95,532.06 115.82,532.46 118.68,532.06 121.55,568.46 124.42,568.46 127.29,566.43 130.16,545.00 133.03,545.00 135.89,544.19 138.76,543.79 141.63,543.79 144.50,543.38 147.37,541.76 150.24,541.36 153.11,540.96 155.97,540.96 158.84,539.34 161.71,539.34 164.58,556.73 167.45,556.73 170.32,555.51 173.18,551.07 176.05,538.93 178.92,538.93 181.79,538.93 184.66,538.12 187.53,536.91 190.39,536.91 193.26,536.51 196.13,536.51 199.00,556.73 201.87,556.73 204.74,556.73 207.61,556.73 210.47,535.29 213.34,535.29 216.21,535.29 219.08,535.29 221.95,534.49 224.82,534.08 227.68,533.68 230.55,532.87 233.42,532.06 236.29,532.06 239.16,531.25 242.03,530.85 244.89,530.44 247.76,530.04 250.63,530.04 253.50,529.23 256.37,529.23 259.24,529.23 262.11,528.42 264.97,528.42 267.84,527.61 270.71,527.21 273.58,526.80 276.45,526.40 279.32,525.18 282.18,523.57 285.05,523.57 287.92,523.16 290.79,522.76 293.66,522.35 296.53,521.54 299.39,519.52 302.26,517.50 305.13,517.50 308.00,517.50 310.87,517.50 313.74,517.50 316.61,517.50 319.47,517.10 322.34,516.69 325.21,515.48 328.08,515.07 330.95,514.67 333.82,513.86 336.68,514.26 339.55,512.24 342.42,511.84 345.29,511.84 348.16,511.03 351.03,509.82 353.89,507.79 356.76,506.99 359.63,506.58 362.50,509.41 365.37,509.01 368.24,504.96 371.11,504.56 373.97,504.15 376.84,504.56 379.71,503.75 382.58,503.75 385.45,503.35 388.32,499.30 391.18,496.47 394.05,490.00 396.92,484.34 399.79,481.10 402.66,480.29 405.53,480.70 408.39,460.88 411.26,459.26 414.13,458.05 417.00,456.03 419.87,456.03 422.74,454.41 425.61,450.77 428.47,444.30 431.34,443.90 434.21,600.00 437.08,441.88 439.95,440.66 442.82,439.45 445.68,439.04 448.55,438.64 451.42,437.83 454.29,436.62 457.16,436.62 460.03,434.60 462.89,432.17 465.76,429.34 468.63,428.93 471.50,428.53 474.37,427.72 477.24,426.91 480.11,426.10 482.97,426.10 485.84,426.10 488.71,419.63 491.58,419.23 494.45,418.42 497.32,418.01 500.18,417.61 503.05,417.61 505.92,417.61 508.79,417.21 511.66,417.21 514.53,413.57 517.39,411.95 520.26,412.76 523.13,410.74 526.00,410.74 528.87,410.33 531.74,410.33 534.61,410.33 537.47,409.93 540.34,409.93 543.21,409.93 546.08,409.52 548.95,409.52 551.82,409.12 554.68,409.52 557.55,409.12 560.42,407.50 563.29,407.10 566.16,403.05 569.03,399.82 571.89,400.22 574.76,400.62 577.63,400.62 580.50,399.41 583.37,392.94 586.24,391.32 589.11,389.30 591.97,389.30 594.84,388.49 597.71,375.15 600.58,374.74 603.45,374.74 606.32,374.74 609.18,374.74 612.05,374.34 614.92,374.34 617.79,374.34 620.66,374.34 623.53,374.34 626.39,373.93 629.26,373.12 632.13,372.72 635.00,373.53 637.87,435.81 640.74,372.32 643.61,372.72 646.47,371.91 649.34,371.91 652.21,372.32 655.08,371.10 657.95,369.89 660.82,369.89 663.68,369.89 666.55,369.49 669.42,369.89 672.29,369.08 675.16,368.68 678.03,368.27 680.89,367.87 683.76,367.06 686.63,367.46 689.50,367.06 692.37,366.25 695.24,368.27 698.11,368.68 700.97,368.68 703.84,368.27 706.71,369.08 709.58,367.87 712.45,367.46 715.32,367.06 718.18,360.18 721.05,359.78 723.92,359.38 726.79,356.95 729.66,357.35 732.53,357.76 735.39,355.33 738.26,355.74 741.13,357.35 744.00,355.33 746.87,356.14 749.74,355.74 752.61,356.14 755.47,354.12 758.34,354.93 761.21,356.14 764.08,354.52 766.95,353.71 769.82,354.12 772.68,354.93 775.55,352.90 778.42,353.71 781.29,353.31 784.16,353.31 787.03,354.52 789.89,352.90 792.76,352.50 795.63,352.50 798.50,353.31 801.37,352.50 804.24,353.71 807.11,354.12 809.97,352.50 812.84,352.90 815.71,352.50 818.58,352.10 821.45,351.69 824.32,352.10 827.18,354.12 830.05,352.50 832.92,352.10 835.79,352.10 838.66,349.67 841.53,349.67 844.39,350.88 847.26,351.29 850.13,350.48 853.00,352.10 855.87,350.48 858.74,350.48 861.61,350.48 864.47,350.07 867.34,348.46 870.21,351.29 873.08,349.67 875.95,351.29 878.82,349.67 881.68,348.86 884.55,348.46 887.42,348.46 890.29,347.24 893.16,348.86 896.03,346.84 898.89,348.46 901.76,348.86 904.63,346.84 907.50,349.26 910.37,348.05 913.24,349.26 916.11,349.26 918.97,350.48 921.84,352.90 924.71,349.67 927.58,348.46 930.45,345.62 933.32,344.82 936.18,344.41 939.05,342.39 941.92,341.18 944.79,341.58 947.66,339.15 950.53,338.35 953.39,337.54 956.26,336.73 959.13,335.92 962.00,337.54 964.87,338.35 967.74,337.54 970.61,337.54 973.47,337.54 976.34,333.09 979.21,333.90 982.08,335.92 984.95,336.73 987.82,335.51 990.68,332.28 993.55,331.47 996.42,331.07 999.29,331.47 1002.16,331.07 1005.03,331.07 1007.89,331.07 1010.76,331.07 1013.63,331.07 1016.50,331.07 1019.37,331.07 1022.24,331.07 1025.11,331.07 1027.97,331.07 1030.84,331.47 1033.71,331.88 1036.58,331.07 1039.45,331.47 1042.32,331.07 1045.18,331.47 1048.05,331.07 1050.92,324.19 1053.79,324.19 1056.66,318.93 1059.53,316.51 1062.39,310.44 1065.26,308.01 1068.13,600.00 1071.00,301.54 1073.87,290.22 1076.74,287.79 1079.61,286.18 1082.47,285.77 1085.34,285.77 1088.21,285.77 1091.08,286.18 1093.95,285.77 1096.82,285.77 1099.68,285.77 1102.55,283.35 1105.42,282.94 1108.29,282.94 1111.16,283.35 1114.03,282.94 1116.89,282.94 1119.76,283.75 1122.63,282.13 1125.50,282.13 1128.37,282.54 1131.24,282.13 1134.11,282.54 1136.97,282.94 1139.84,281.73 1142.71,282.54 1145.58,281.73 1148.45,282.54 1151.32,282.13 1154.18,282.13 1157.05,281.73 1159.92,281.73 1162.79,281.32 1165.66,281.73 1168.53,282.13 1171.39,281.32 1174.26,281.32 1177.13,282.54 1180.00,282.13"/>
<circle cx="90.00" cy="540.55" r="3.2" fill="#1d4ed8"/>
<circle cx="92.87" cy="538.53" r="3.2" fill="#1d4ed8"/>
<circle cx="95.74" cy="536.91" r="3.2" fill="#1d4ed8"/>
<circle cx="98.61" cy="534.49" r="3.2" fill="#1d4ed8"/>
<circle cx="101.47" cy="534.49" r="3.2" fill="#1d4ed8"/>
<circle cx="104.34" cy="533.27" r="3.2" fill="#1d4ed8"/>
<circle cx="107.21" cy="532.46" r="3.2" fill="#1d4ed8"/>
<circle cx="110.08" cy="532.87" r="3.2" fill="#1d4ed8"/>
<circle cx="112.95" cy="532.06" r="3.2" fill="#1d4ed8"/>
<circle cx="115.82" cy="532.46" r="3.2" fill="#1d4ed8"/>
<circle cx="118.68" cy="532.06" r="3.2" fill="#1d4ed8"/>
<circle cx="121.55" cy="568.46" r="3.2" fill="#1d4ed8"/>
<circle cx="124.42" cy="568.46" r="3.2" fill="#1d4ed8"/>
<circle cx="127.29" cy="566.43" r="3.2" fill="#1d4ed8"/>
<circle cx="130.16" cy="545.00" r="3.2" fill="#1d4ed8"/>
<circle cx="133.03" cy="545.00" r="3.2" fill="#1d4ed8"/>
<circle cx="135.89" cy="544.19" r="3.2" fill="#1d4ed8"/>
<circle cx="138.76" cy="543.79" r="3.2" fill="#1d4ed8"/>
<circle cx="141.63" cy="543.79" r="3.2" fill="#1d4ed8"/>
<circle cx="144.50" cy="543.38" r="3.2" fill="#1d4ed8"/>
<circle cx="147.37" cy="541.76" r="3.2" fill="#1d4ed8"/>
<circle cx="150.24" cy="541.36" r="3.2" fill="#1d4ed8"/>
<circle cx="153.11" cy="540.96" r="3.2" fill="#1d4ed8"/>
<circle cx="155.97" cy="540.96" r="3.2" fill="#1d4ed8"/>
<circle cx="158.84" cy="539.34" r="3.2" fill="#1d4ed8"/>
<circle cx="161.71" cy="539.34" r="3.2" fill="#1d4ed8"/>
<circle cx="164.58" cy="556.73" r="3.2" fill="#1d4ed8"/>
<circle cx="167.45" cy="556.73" r="3.2" fill="#1d4ed8"/>
<circle cx="170.32" cy="555.51" r="3.2" fill="#1d4ed8"/>
<circle cx="173.18" cy="551.07" r="3.2" fill="#1d4ed8"/>
<circle cx="176.05" cy="538.93" r="3.2" fill="#1d4ed8"/>
<circle cx="178.92" cy="538.93" r="3.2" fill="#1d4ed8"/>
<circle cx="181.79" cy="538.93" r="3.2" fill="#1d4ed8"/>
<circle cx="184.66" cy="538.12" r="3.2" fill="#1d4ed8"/>
<circle cx="187.53" cy="536.91" r="3.2" fill="#1d4ed8"/>
<circle cx="190.39" cy="536.91" r="3.2" fill="#1d4ed8"/>
<circle cx="193.26" cy="536.51" r="3.2" fill="#1d4ed8"/>
<circle cx="196.13" cy="536.51" r="3.2" fill="#1d4ed8"/>
<circle cx="199.00" cy="556.73" r="3.2" fill="#1d4ed8"/>
<circle cx="201.87" cy="556.73" r="3.2" fill="#1d4ed8"/>
<circle cx="204.74" cy="556.73" r="3.2" fill="#1d4ed8"/>
<circle cx="207.61" cy="556.73" r="3.2" fill="#1d4ed8"/>
<circle cx="210.47" cy="535.29" r="3.2" fill="#1d4ed8"/>
<circle cx="213.34" cy="535.29" r="3.2" fill="#1d4ed8"/>
<circle cx="216.21" cy="535.29" r="3.2" fill="#1d4ed8"/>
<circle cx="219.08" cy="535.29" r="3.2" fill="#1d4ed8"/>
<circle cx="221.95" cy="534.49" r="3.2" fill="#1d4ed8"/>
<circle cx="224.82" cy="534.08" r="3.2" fill="#1d4ed8"/>
<circle cx="227.68" cy="533.68" r="3.2" fill="#1d4ed8"/>
<circle cx="230.55" cy="532.87" r="3.2" fill="#1d4ed8"/>
<circle cx="233.42" cy="532.06" r="3.2" fill="#1d4ed8"/>
<circle cx="236.29" cy="532.06" r="3.2" fill="#1d4ed8"/>
<circle cx="239.16" cy="531.25" r="3.2" fill="#1d4ed8"/>
<circle cx="242.03" cy="530.85" r="3.2" fill="#1d4ed8"/>
<circle cx="244.89" cy="530.44" r="3.2" fill="#1d4ed8"/>
<circle cx="247.76" cy="530.04" r="3.2" fill="#1d4ed8"/>
<circle cx="250.63" cy="530.04" r="3.2" fill="#1d4ed8"/>
<circle cx="253.50" cy="529.23" r="3.2" fill="#1d4ed8"/>
<circle cx="256.37" cy="529.23" r="3.2" fill="#1d4ed8"/>
<circle cx="259.24" cy="529.23" r="3.2" fill="#1d4ed8"/>
<circle cx="262.11" cy="528.42" r="3.2" fill="#1d4ed8"/>
<circle cx="264.97" cy="528.42" r="3.2" fill="#1d4ed8"/>
<circle cx="267.84" cy="527.61" r="3.2" fill="#1d4ed8"/>
<circle cx="270.71" cy="527.21" r="3.2" fill="#1d4ed8"/>
<circle cx="273.58" cy="526.80" r="3.2" fill="#1d4ed8"/>
<circle cx="276.45" cy="526.40" r="3.2" fill="#1d4ed8"/>
<circle cx="279.32" cy="525.18" r="3.2" fill="#1d4ed8"/>
<circle cx="282.18" cy="523.57" r="3.2" fill="#1d4ed8"/>
<circle cx="285.05" cy="523.57" r="3.2" fill="#1d4ed8"/>
<circle cx="287.92" cy="523.16" r="3.2" fill="#1d4ed8"/>
<circle cx="290.79" cy="522.76" r="3.2" fill="#1d4ed8"/>
<circle cx="293.66" cy="522.35" r="3.2" fill="#1d4ed8"/>
<circle cx="296.53" cy="521.54" r="3.2" fill="#1d4ed8"/>
<circle cx="299.39" cy="519.52" r="3.2" fill="#1d4ed8"/>
<circle cx="302.26" cy="517.50" r="3.2" fill="#1d4ed8"/>
<circle cx="305.13" cy="517.50" r="3.2" fill="#1d4ed8"/>
<circle cx="308.00" cy="517.50" r="3.2" fill="#1d4ed8"/>
<circle cx="310.87" cy="517.50" r="3.2" fill="#1d4ed8"/>
<circle cx="313.74" cy="517.50" r="3.2" fill="#1d4ed8"/>
<circle cx="316.61" cy="517.50" r="3.2" fill="#1d4ed8"/>
<circle cx="319.47" cy="517.10" r="3.2" fill="#1d4ed8"/>
<circle cx="322.34" cy="516.69" r="3.2" fill="#1d4ed8"/>
<circle cx="325.21" cy="515.48" r="3.2" fill="#1d4ed8"/>
<circle cx="328.08" cy="515.07" r="3.2" fill="#1d4ed8"/>
<circle cx="330.95" cy="514.67" r="3.2" fill="#1d4ed8"/>
<circle cx="333.82" cy="513.86" r="3.2" fill="#1d4ed8"/>
<circle cx="336.68" cy="514.26" r="3.2" fill="#1d4ed8"/>
<circle cx="339.55" cy="512.24" r="3.2" fill="#1d4ed8"/>
<circle cx="342.42" cy="511.84" r="3.2" fill="#1d4ed8"/>
<circle cx="345.29" cy="511.84" r="3.2" fill="#1d4ed8"/>
<circle cx="348.16" cy="511.03" r="3.2" fill="#1d4ed8"/>
<circle cx="351.03" cy="509.82" r="3.2" fill="#1d4ed8"/>
<circle cx="353.89" cy="507.79" r="3.2" fill="#1d4ed8"/>
<circle cx="356.76" cy="506.99" r="3.2" fill="#1d4ed8"/>
<circle cx="359.63" cy="506.58" r="3.2" fill="#1d4ed8"/>
<circle cx="362.50" cy="509.41" r="3.2" fill="#1d4ed8"/>
<circle cx="365.37" cy="509.01" r="3.2" fill="#1d4ed8"/>
<circle cx="368.24" cy="504.96" r="3.2" fill="#1d4ed8"/>
<circle cx="371.11" cy="504.56" r="3.2" fill="#1d4ed8"/>
<circle cx="373.97" cy="504.15" r="3.2" fill="#1d4ed8"/>
<circle cx="376.84" cy="504.56" r="3.2" fill="#1d4ed8"/>
<circle cx="379.71" cy="503.75" r="3.2" fill="#1d4ed8"/>
<circle cx="382.58" cy="503.75" r="3.2" fill="#1d4ed8"/>
<circle cx="385.45" cy="503.35" r="3.2" fill="#1d4ed8"/>
<circle cx="388.32" cy="499.30" r="3.2" fill="#1d4ed8"/>
<circle cx="391.18" cy="496.47" r="3.2" fill="#1d4ed8"/>
<circle cx="394.05" cy="490.00" r="3.2" fill="#1d4ed8"/>
<circle cx="396.92" cy="484.34" r="3.2" fill="#1d4ed8"/>
<circle cx="399.79" cy="481.10" r="3.2" fill="#1d4ed8"/>
<circle cx="402.66" cy="480.29" r="3.2" fill="#1d4ed8"/>
<circle cx="405.53" cy="480.70" r="3.2" fill="#1d4ed8"/>
<circle cx="408.39" cy="460.88" r="3.2" fill="#1d4ed8"/>
<circle cx="411.26" cy="459.26" r="3.2" fill="#1d4ed8"/>
<circle cx="414.13" cy="458.05" r="3.2" fill="#1d4ed8"/>
<circle cx="417.00" cy="456.03" r="3.2" fill="#1d4ed8"/>
<circle cx="419.87" cy="456.03" r="3.2" fill="#1d4ed8"/>
<circle cx="422.74" cy="454.41" r="3.2" fill="#1d4ed8"/>
<circle cx="425.61" cy="450.77" r="3.2" fill="#1d4ed8"/>
<circle cx="428.47" cy="444.30" r="3.2" fill="#1d4ed8"/>
<circle cx="431.34" cy="443.90" r="3.2" fill="#1d4ed8"/>
<circle cx="434.21" cy="600.00" r="3.2" fill="#1d4ed8"/>
<circle cx="437.08" cy="441.88" r="3.2" fill="#1d4ed8"/>
<circle cx="439.95" cy="440.66" r="3.2" fill="#1d4ed8"/>
<circle cx="442.82" cy="439.45" r="3.2" fill="#1d4ed8"/>
<circle cx="445.68" cy="439.04" r="3.2" fill="#1d4ed8"/>
<circle cx="448.55" cy="438.64" r="3.2" fill="#1d4ed8"/>
<circle cx="451.42" cy="437.83" r="3.2" fill="#1d4ed8"/>
<circle cx="454.29" cy="436.62" r="3.2" fill="#1d4ed8"/>
<circle cx="457.16" cy="436.62" r="3.2" fill="#1d4ed8"/>
<circle cx="460.03" cy="434.60" r="3.2" fill="#1d4ed8"/>
<circle cx="462.89" cy="432.17" r="3.2" fill="#1d4ed8"/>
<circle cx="465.76" cy="429.34" r="3.2" fill="#1d4ed8"/>
<circle cx="468.63" cy="428.93" r="3.2" fill="#1d4ed8"/>
<circle cx="471.50" cy="428.53" r="3.2" fill="#1d4ed8"/>
<circle cx="474.37" cy="427.72" r="3.2" fill="#1d4ed8"/>
<circle cx="477.24" cy="426.91" r="3.2" fill="#1d4ed8"/>
<circle cx="480.11" cy="426.10" r="3.2" fill="#1d4ed8"/>
<circle cx="482.97" cy="426.10" r="3.2" fill="#1d4ed8"/>
<circle cx="485.84" cy="426.10" r="3.2" fill="#1d4ed8"/>
<circle cx="488.71" cy="419.63" r="3.2" fill="#1d4ed8"/>
<circle cx="491.58" cy="419.23" r="3.2" fill="#1d4ed8"/>
<circle cx="494.45" cy="418.42" r="3.2" fill="#1d4ed8"/>
<circle cx="497.32" cy="418.01" r="3.2" fill="#1d4ed8"/>
<circle cx="500.18" cy="417.61" r="3.2" fill="#1d4ed8"/>
<circle cx="503.05" cy="417.61" r="3.2" fill="#1d4ed8"/>
<circle cx="505.92" cy="417.61" r="3.2" fill="#1d4ed8"/>
<circle cx="508.79" cy="417.21" r="3.2" fill="#1d4ed8"/>
<circle cx="511.66" cy="417.21" r="3.2" fill="#1d4ed8"/>
<circle cx="514.53" cy="413.57" r="3.2" fill="#1d4ed8"/>
<circle cx="517.39" cy="411.95" r="3.2" fill="#1d4ed8"/>
<circle cx="520.26" cy="412.76" r="3.2" fill="#1d4ed8"/>
<circle cx="523.13" cy="410.74" r="3.2" fill="#1d4ed8"/>
<circle cx="526.00" cy="410.74" r="3.2" fill="#1d4ed8"/>
<circle cx="528.87" cy="410.33" r="3.2" fill="#1d4ed8"/>
<circle cx="531.74" cy="410.33" r="3.2" fill="#1d4ed8"/>
<circle cx="534.61" cy="410.33" r="3.2" fill="#1d4ed8"/>
<circle cx="537.47" cy="409.93" r="3.2" fill="#1d4ed8"/>
<circle cx="540.34" cy="409.93" r="3.2" fill="#1d4ed8"/>
<circle cx="543.21" cy="409.93" r="3.2" fill="#1d4ed8"/>
<circle cx="546.08" cy="409.52" r="3.2" fill="#1d4ed8"/>
<circle cx="548.95" cy="409.52" r="3.2" fill="#1d4ed8"/>
<circle cx="551.82" cy="409.12" r="3.2" fill="#1d4ed8"/>
<circle cx="554.68" cy="409.52" r="3.2" fill="#1d4ed8"/>
<circle cx="557.55" cy="409.12" r="3.2" fill="#1d4ed8"/>
<circle cx="560.42" cy="407.50" r="3.2" fill="#1d4ed8"/>
<circle cx="563.29" cy="407.10" r="3.2" fill="#1d4ed8"/>
<circle cx="566.16" cy="403.05" r="3.2" fill="#1d4ed8"/>
<circle cx="569.03" cy="399.82" r="3.2" fill="#1d4ed8"/>
<circle cx="571.89" cy="400.22" r="3.2" fill="#1d4ed8"/>
<circle cx="574.76" cy="400.62" r="3.2" fill="#1d4ed8"/>
<circle cx="577.63" cy="400.62" r="3.2" fill="#1d4ed8"/>
<circle cx="580.50" cy="399.41" r="3.2" fill="#1d4ed8"/>
<circle cx="583.37" cy="392.94" r="3.2" fill="#1d4ed8"/>
<circle cx="586.24" cy="391.32" r="3.2" fill="#1d4ed8"/>
<circle cx="589.11" cy="389.30" r="3.2" fill="#1d4ed8"/>
<circle cx="591.97" cy="389.30" r="3.2" fill="#1d4ed8"/>
<circle cx="594.84" cy="388.49" r="3.2" fill="#1d4ed8"/>
<circle cx="597.71" cy="375.15" r="3.2" fill="#1d4ed8"/>
<circle cx="600.58" cy="374.74" r="3.2" fill="#1d4ed8"/>
<circle cx="603.45" cy="374.74" r="3.2" fill="#1d4ed8"/>
<circle cx="606.32" cy="374.74" r="3.2" fill="#1d4ed8"/>
<circle cx="609.18" cy="374.74" r="3.2" fill="#1d4ed8"/>
<circle cx="612.05" cy="374.34" r="3.2" fill="#1d4ed8"/>
<circle cx="614.92" cy="374.34" r="3.2" fill="#1d4ed8"/>
<circle cx="617.79" cy="374.34" r="3.2" fill="#1d4ed8"/>
<circle cx="620.66" cy="374.34" r="3.2" fill="#1d4ed8"/>
<circle cx="623.53" cy="374.34" r="3.2" fill="#1d4ed8"/>
<circle cx="626.39" cy="373.93" r="3.2" fill="#1d4ed8"/>
<circle cx="629.26" cy="373.12" r="3.2" fill="#1d4ed8"/>
<circle cx="632.13" cy="372.72" r="3.2" fill="#1d4ed8"/>
<circle cx="635.00" cy="373.53" r="3.2" fill="#1d4ed8"/>
<circle cx="637.87" cy="435.81" r="3.2" fill="#1d4ed8"/>
<circle cx="640.74" cy="372.32" r="3.2" fill="#1d4ed8"/>
<circle cx="643.61" cy="372.72" r="3.2" fill="#1d4ed8"/>
<circle cx="646.47" cy="371.91" r="3.2" fill="#1d4ed8"/>
<circle cx="649.34" cy="371.91" r="3.2" fill="#1d4ed8"/>
<circle cx="652.21" cy="372.32" r="3.2" fill="#1d4ed8"/>
<circle cx="655.08" cy="371.10" r="3.2" fill="#1d4ed8"/>
<circle cx="657.95" cy="369.89" r="3.2" fill="#1d4ed8"/>
<circle cx="660.82" cy="369.89" r="3.2" fill="#1d4ed8"/>
<circle cx="663.68" cy="369.89" r="3.2" fill="#1d4ed8"/>
<circle cx="666.55" cy="369.49" r="3.2" fill="#1d4ed8"/>
<circle cx="669.42" cy="369.89" r="3.2" fill="#1d4ed8"/>
<circle cx="672.29" cy="369.08" r="3.2" fill="#1d4ed8"/>
<circle cx="675.16" cy="368.68" r="3.2" fill="#1d4ed8"/>
<circle cx="678.03" cy="368.27" r="3.2" fill="#1d4ed8"/>
<circle cx="680.89" cy="367.87" r="3.2" fill="#1d4ed8"/>
<circle cx="683.76" cy="367.06" r="3.2" fill="#1d4ed8"/>
<circle cx="686.63" cy="367.46" r="3.2" fill="#1d4ed8"/>
<circle cx="689.50" cy="367.06" r="3.2" fill="#1d4ed8"/>
<circle cx="692.37" cy="366.25" r="3.2" fill="#1d4ed8"/>
<circle cx="695.24" cy="368.27" r="3.2" fill="#1d4ed8"/>
<circle cx="698.11" cy="368.68" r="3.2" fill="#1d4ed8"/>
<circle cx="700.97" cy="368.68" r="3.2" fill="#1d4ed8"/>
<circle cx="703.84" cy="368.27" r="3.2" fill="#1d4ed8"/>
<circle cx="706.71" cy="369.08" r="3.2" fill="#1d4ed8"/>
<circle cx="709.58" cy="367.87" r="3.2" fill="#1d4ed8"/>
<circle cx="712.45" cy="367.46" r="3.2" fill="#1d4ed8"/>
<circle cx="715.32" cy="367.06" r="3.2" fill="#1d4ed8"/>
<circle cx="718.18" cy="360.18" r="3.2" fill="#1d4ed8"/>
<circle cx="721.05" cy="359.78" r="3.2" fill="#1d4ed8"/>
<circle cx="723.92" cy="359.38" r="3.2" fill="#1d4ed8"/>
<circle cx="726.79" cy="356.95" r="3.2" fill="#1d4ed8"/>
<circle cx="729.66" cy="357.35" r="3.2" fill="#1d4ed8"/>
<circle cx="732.53" cy="357.76" r="3.2" fill="#1d4ed8"/>
<circle cx="735.39" cy="355.33" r="3.2" fill="#1d4ed8"/>
<circle cx="738.26" cy="355.74" r="3.2" fill="#1d4ed8"/>
<circle cx="741.13" cy="357.35" r="3.2" fill="#1d4ed8"/>
<circle cx="744.00" cy="355.33" r="3.2" fill="#1d4ed8"/>
<circle cx="746.87" cy="356.14" r="3.2" fill="#1d4ed8"/>
<circle cx="749.74" cy="355.74" r="3.2" fill="#1d4ed8"/>
<circle cx="752.61" cy="356.14" r="3.2" fill="#1d4ed8"/>
<circle cx="755.47" cy="354.12" r="3.2" fill="#1d4ed8"/>
<circle cx="758.34" cy="354.93" r="3.2" fill="#1d4ed8"/>
<circle cx="761.21" cy="356.14" r="3.2" fill="#1d4ed8"/>
<circle cx="764.08" cy="354.52" r="3.2" fill="#1d4ed8"/>
<circle cx="766.95" cy="353.71" r="3.2" fill="#1d4ed8"/>
<circle cx="769.82" cy="354.12" r="3.2" fill="#1d4ed8"/>
<circle cx="772.68" cy="354.93" r="3.2" fill="#1d4ed8"/>
<circle cx="775.55" cy="352.90" r="3.2" fill="#1d4ed8"/>
<circle cx="778.42" cy="353.71" r="3.2" fill="#1d4ed8"/>
<circle cx="781.29" cy="353.31" r="3.2" fill="#1d4ed8"/>
<circle cx="784.16" cy="353.31" r="3.2" fill="#1d4ed8"/>
<circle cx="787.03" cy="354.52" r="3.2" fill="#1d4ed8"/>
<circle cx="789.89" cy="352.90" r="3.2" fill="#1d4ed8"/>
<circle cx="792.76" cy="352.50" r="3.2" fill="#1d4ed8"/>
<circle cx="795.63" cy="352.50" r="3.2" fill="#1d4ed8"/>
<circle cx="798.50" cy="353.31" r="3.2" fill="#1d4ed8"/>
<circle cx="801.37" cy="352.50" r="3.2" fill="#1d4ed8"/>
<circle cx="804.24" cy="353.71" r="3.2" fill="#1d4ed8"/>
<circle cx="807.11" cy="354.12" r="3.2" fill="#1d4ed8"/>
<circle cx="809.97" cy="352.50" r="3.2" fill="#1d4ed8"/>
<circle cx="812.84" cy="352.90" r="3.2" fill="#1d4ed8"/>
<circle cx="815.71" cy="352.50" r="3.2" fill="#1d4ed8"/>
<circle cx="818.58" cy="352.10" r="3.2" fill="#1d4ed8"/>
<circle cx="821.45" cy="351.69" r="3.2" fill="#1d4ed8"/>
<circle cx="824.32" cy="352.10" r="3.2" fill="#1d4ed8"/>
<circle cx="827.18" cy="354.12" r="3.2" fill="#1d4ed8"/>
<circle cx="830.05" cy="352.50" r="3.2" fill="#1d4ed8"/>
<circle cx="832.92" cy="352.10" r="3.2" fill="#1d4ed8"/>
<circle cx="835.79" cy="352.10" r="3.2" fill="#1d4ed8"/>
<circle cx="838.66" cy="349.67" r="3.2" fill="#1d4ed8"/>
<circle cx="841.53" cy="349.67" r="3.2" fill="#1d4ed8"/>
<circle cx="844.39" cy="350.88" r="3.2" fill="#1d4ed8"/>
<circle cx="847.26" cy="351.29" r="3.2" fill="#1d4ed8"/>
<circle cx="850.13" cy="350.48" r="3.2" fill="#1d4ed8"/>
<circle cx="853.00" cy="352.10" r="3.2" fill="#1d4ed8"/>
<circle cx="855.87" cy="350.48" r="3.2" fill="#1d4ed8"/>
<circle cx="858.74" cy="350.48" r="3.2" fill="#1d4ed8"/>
<circle cx="861.61" cy="350.48" r="3.2" fill="#1d4ed8"/>
<circle cx="864.47" cy="350.07" r="3.2" fill="#1d4ed8"/>
<circle cx="867.34" cy="348.46" r="3.2" fill="#1d4ed8"/>
<circle cx="870.21" cy="351.29" r="3.2" fill="#1d4ed8"/>
<circle cx="873.08" cy="349.67" r="3.2" fill="#1d4ed8"/>
<circle cx="875.95" cy="351.29" r="3.2" fill="#1d4ed8"/>
<circle cx="878.82" cy="349.67" r="3.2" fill="#1d4ed8"/>
<circle cx="881.68" cy="348.86" r="3.2" fill="#1d4ed8"/>
<circle cx="884.55" cy="348.46" r="3.2" fill="#1d4ed8"/>
<circle cx="887.42" cy="348.46" r="3.2" fill="#1d4ed8"/>
<circle cx="890.29" cy="347.24" r="3.2" fill="#1d4ed8"/>
<circle cx="893.16" cy="348.86" r="3.2" fill="#1d4ed8"/>
<circle cx="896.03" cy="346.84" r="3.2" fill="#1d4ed8"/>
<circle cx="898.89" cy="348.46" r="3.2" fill="#1d4ed8"/>
<circle cx="901.76" cy="348.86" r="3.2" fill="#1d4ed8"/>
<circle cx="904.63" cy="346.84" r="3.2" fill="#1d4ed8"/>
<circle cx="907.50" cy="349.26" r="3.2" fill="#1d4ed8"/>
<circle cx="910.37" cy="348.05" r="3.2" fill="#1d4ed8"/>
<circle cx="913.24" cy="349.26" r="3.2" fill="#1d4ed8"/>
<circle cx="916.11" cy="349.26" r="3.2" fill="#1d4ed8"/>
<circle cx="918.97" cy="350.48" r="3.2" fill="#1d4ed8"/>
<circle cx="921.84" cy="352.90" r="3.2" fill="#1d4ed8"/>
<circle cx="924.71" cy="349.67" r="3.2" fill="#1d4ed8"/>
<circle cx="927.58" cy="348.46" r="3.2" fill="#1d4ed8"/>
<circle cx="930.45" cy="345.62" r="3.2" fill="#1d4ed8"/>
<circle cx="933.32" cy="344.82" r="3.2" fill="#1d4ed8"/>
<circle cx="936.18" cy="344.41" r="3.2" fill="#1d4ed8"/>
<circle cx="939.05" cy="342.39" r="3.2" fill="#1d4ed8"/>
<circle cx="941.92" cy="341.18" r="3.2" fill="#1d4ed8"/>
<circle cx="944.79" cy="341.58" r="3.2" fill="#1d4ed8"/>
<circle cx="947.66" cy="339.15" r="3.2" fill="#1d4ed8"/>
<circle cx="950.53" cy="338.35" r="3.2" fill="#1d4ed8"/>
<circle cx="953.39" cy="337.54" r="3.2" fill="#1d4ed8"/>
<circle cx="956.26" cy="336.73" r="3.2" fill="#1d4ed8"/>
<circle cx="959.13" cy="335.92" r="3.2" fill="#1d4ed8"/>
<circle cx="962.00" cy="337.54" r="3.2" fill="#1d4ed8"/>
<circle cx="964.87" cy="338.35" r="3.2" fill="#1d4ed8"/>
<circle cx="967.74" cy="337.54" r="3.2" fill="#1d4ed8"/>
<circle cx="970.61" cy="337.54" r="3.2" fill="#1d4ed8"/>
<circle cx="973.47" cy="337.54" r="3.2" fill="#1d4ed8"/>
<circle cx="976.34" cy="333.09" r="3.2" fill="#1d4ed8"/>
<circle cx="979.21" cy="333.90" r="3.2" fill="#1d4ed8"/>
<circle cx="982.08" cy="335.92" r="3.2" fill="#1d4ed8"/>
<circle cx="984.95" cy="336.73" r="3.2" fill="#1d4ed8"/>
<circle cx="987.82" cy="335.51" r="3.2" fill="#1d4ed8"/>
<circle cx="990.68" cy="332.28" r="3.2" fill="#1d4ed8"/>
<circle cx="993.55" cy="331.47" r="3.2" fill="#1d4ed8"/>
<circle cx="996.42" cy="331.07" r="3.2" fill="#1d4ed8"/>
<circle cx="999.29" cy="331.47" r="3.2" fill="#1d4ed8"/>
<circle cx="1002.16" cy="331.07" r="3.2" fill="#1d4ed8"/>
<circle cx="1005.03" cy="331.07" r="3.2" fill="#1d4ed8"/>
<circle cx="1007.89" cy="331.07" r="3.2" fill="#1d4ed8"/>
<circle cx="1010.76" cy="331.07" r="3.2" fill="#1d4ed8"/>
<circle cx="1013.63" cy="331.07" r="3.2" fill="#1d4ed8"/>
<circle cx="1016.50" cy="331.07" r="3.2" fill="#1d4ed8"/>
<circle cx="1019.37" cy="331.07" r="3.2" fill="#1d4ed8"/>
<circle cx="1022.24" cy="331.07" r="3.2" fill="#1d4ed8"/>
<circle cx="1025.11" cy="331.07" r="3.2" fill="#1d4ed8"/>
<circle cx="1027.97" cy="331.07" r="3.2" fill="#1d4ed8"/>
<circle cx="1030.84" cy="331.47" r="3.2" fill="#1d4ed8"/>
<circle cx="1033.71" cy="331.88" r="3.2" fill="#1d4ed8"/>
<circle cx="1036.58" cy="331.07" r="3.2" fill="#1d4ed8"/>
<circle cx="1039.45" cy="331.47" r="3.2" fill="#1d4ed8"/>
<circle cx="1042.32" cy="331.07" r="3.2" fill="#1d4ed8"/>
<circle cx="1045.18" cy="331.47" r="3.2" fill="#1d4ed8"/>
<circle cx="1048.05" cy="331.07" r="3.2" fill="#1d4ed8"/>
<circle cx="1050.92" cy="324.19" r="3.2" fill="#1d4ed8"/>
<circle cx="1053.79" cy="324.19" r="3.2" fill="#1d4ed8"/>
<circle cx="1056.66" cy="318.93" r="3.2" fill="#1d4ed8"/>
<circle cx="1059.53" cy="316.51" r="3.2" fill="#1d4ed8"/>
<circle cx="1062.39" cy="310.44" r="3.2" fill="#1d4ed8"/>
<circle cx="1065.26" cy="308.01" r="3.2" fill="#1d4ed8"/>
<circle cx="1068.13" cy="600.00" r="3.2" fill="#1d4ed8"/>
<circle cx="1071.00" cy="301.54" r="3.2" fill="#1d4ed8"/>
<circle cx="1073.87" cy="290.22" r="3.2" fill="#1d4ed8"/>
<circle cx="1076.74" cy="287.79" r="3.2" fill="#1d4ed8"/>
<circle cx="1079.61" cy="286.18" r="3.2" fill="#1d4ed8"/>
<circle cx="1082.47" cy="285.77" r="3.2" fill="#1d4ed8"/>
<circle cx="1085.34" cy="285.77" r="3.2" fill="#1d4ed8"/>
<circle cx="1088.21" cy="285.77" r="3.2" fill="#1d4ed8"/>
<circle cx="1091.08" cy="286.18" r="3.2" fill="#1d4ed8"/>
<circle cx="1093.95" cy="285.77" r="3.2" fill="#1d4ed8"/>
<circle cx="1096.82" cy="285.77" r="3.2" fill="#1d4ed8"/>
<circle cx="1099.68" cy="285.77" r="3.2" fill="#1d4ed8"/>
<circle cx="1102.55" cy="283.35" r="3.2" fill="#1d4ed8"/>
<circle cx="1105.42" cy="282.94" r="3.2" fill="#1d4ed8"/>
<circle cx="1108.29" cy="282.94" r="3.2" fill="#1d4ed8"/>
<circle cx="1111.16" cy="283.35" r="3.2" fill="#1d4ed8"/>
<circle cx="1114.03" cy="282.94" r="3.2" fill="#1d4ed8"/>
<circle cx="1116.89" cy="282.94" r="3.2" fill="#1d4ed8"/>
<circle cx="1119.76" cy="283.75" r="3.2" fill="#1d4ed8"/>
<circle cx="1122.63" cy="282.13" r="3.2" fill="#1d4ed8"/>
<circle cx="1125.50" cy="282.13" r="3.2" fill="#1d4ed8"/>
<circle cx="1128.37" cy="282.54" r="3.2" fill="#1d4ed8"/>
<circle cx="1131.24" cy="282.13" r="3.2" fill="#1d4ed8"/>
<circle cx="1134.11" cy="282.54" r="3.2" fill="#1d4ed8"/>
<circle cx="1136.97" cy="282.94" r="3.2" fill="#1d4ed8"/>
<circle cx="1139.84" cy="281.73" r="3.2" fill="#1d4ed8"/>
<circle cx="1142.71" cy="282.54" r="3.2" fill="#1d4ed8"/>
<circle cx="1145.58" cy="281.73" r="3.2" fill="#1d4ed8"/>
<circle cx="1148.45" cy="282.54" r="3.2" fill="#1d4ed8"/>
<circle cx="1151.32" cy="282.13" r="3.2" fill="#1d4ed8"/>
<circle cx="1154.18" cy="282.13" r="3.2" fill="#1d4ed8"/>
<circle cx="1157.05" cy="281.73" r="3.2" fill="#1d4ed8"/>
<circle cx="1159.92" cy="281.73" r="3.2" fill="#1d4ed8"/>
<circle cx="1162.79" cy="281.32" r="3.2" fill="#1d4ed8"/>
<circle cx="1165.66" cy="281.73" r="3.2" fill="#1d4ed8"/>
<circle cx="1168.53" cy="282.13" r="3.2" fill="#1d4ed8"/>
<circle cx="1171.39" cy="281.32" r="3.2" fill="#1d4ed8"/>
<circle cx="1174.26" cy="281.32" r="3.2" fill="#1d4ed8"/>
<circle cx="1177.13" cy="282.54" r="3.2" fill="#1d4ed8"/>
<circle cx="1180.00" cy="282.13" r="3.2" fill="#1d4ed8"/>
<text x="635" y="695" text-anchor="middle" font-size="14" fill="#111" font-family="sans-serif">Date</text>
<text x="24" y="325" text-anchor="middle" font-size="14" fill="#111" transform="rotate(-90 24,325)" font-family="sans-serif">Passed files</text>
</svg>
