<?xml version="1.0" encoding="UTF-8"?>
<svg xmlns="http://www.w3.org/2000/svg" width="1280" height="720" viewBox="0 0 1280 720">
<rect width="100%" height="100%" fill="#ffffff"/>
<text x="640" y="30" text-anchor="middle" font-size="22" font-family="sans-serif">Roast passed files history</text>
<line x1="90" y1="600" x2="1180" y2="600" stroke="#333" stroke-width="1.5"/>
<line x1="90" y1="50" x2="90" y2="600" stroke="#333" stroke-width="1.5"/>
<line x1="90" y1="600.00" x2="1180" y2="600.00" stroke="#e5e7eb" stroke-width="1"/>
<text x="78" y="605.00" text-anchor="end" font-size="12" fill="#111" font-family="sans-serif">0</text>
<line x1="90" y1="397.79" x2="1180" y2="397.79" stroke="#e5e7eb" stroke-width="1"/>
<text x="78" y="402.79" text-anchor="end" font-size="12" fill="#111" font-family="sans-serif">500</text>
<line x1="90" y1="195.59" x2="1180" y2="195.59" stroke="#e5e7eb" stroke-width="1"/>
<text x="78" y="200.59" text-anchor="end" font-size="12" fill="#111" font-family="sans-serif">1000</text>
<line x1="90.00" y1="600" x2="90.00" y2="606" stroke="#333" stroke-width="1"/>
<text x="90.00" y="624" text-anchor="end" font-size="11" fill="#111" transform="rotate(-40 90.00,624)" font-family="sans-serif">2026-02-12</text>
<line x1="225.04" y1="600" x2="225.04" y2="606" stroke="#333" stroke-width="1"/>
<text x="225.04" y="624" text-anchor="end" font-size="11" fill="#111" transform="rotate(-40 225.04,624)" font-family="sans-serif">2026-02-18</text>
<line x1="360.09" y1="600" x2="360.09" y2="606" stroke="#333" stroke-width="1"/>
<text x="360.09" y="624" text-anchor="end" font-size="11" fill="#111" transform="rotate(-40 360.09,624)" font-family="sans-serif">2026-02-24</text>
<line x1="495.13" y1="600" x2="495.13" y2="606" stroke="#333" stroke-width="1"/>
<text x="495.13" y="624" text-anchor="end" font-size="11" fill="#111" transform="rotate(-40 495.13,624)" font-family="sans-serif">2026-02-27</text>
<line x1="630.18" y1="600" x2="630.18" y2="606" stroke="#333" stroke-width="1"/>
<text x="630.18" y="624" text-anchor="end" font-size="11" fill="#111" transform="rotate(-40 630.18,624)" font-family="sans-serif">2026-03-06</text>
<line x1="765.22" y1="600" x2="765.22" y2="606" stroke="#333" stroke-width="1"/>
<text x="765.22" y="624" text-anchor="end" font-size="11" fill="#111" transform="rotate(-40 765.22,624)" font-family="sans-serif">2026-03-07</text>
<line x1="900.27" y1="600" x2="900.27" y2="606" stroke="#333" stroke-width="1"/>
<text x="900.27" y="624" text-anchor="end" font-size="11" fill="#111" transform="rotate(-40 900.27,624)" font-family="sans-serif">2026-03-15</text>
<line x1="1035.31" y1="600" x2="1035.31" y2="606" stroke="#333" stroke-width="1"/>
<text x="1035.31" y="624" text-anchor="end" font-size="11" fill="#111" transform="rotate(-40 1035.31,624)" font-family="sans-serif">2026-03-19</text>
<line x1="1170.35" y1="600" x2="1170.35" y2="606" stroke="#333" stroke-width="1"/>
<text x="1170.35" y="624" text-anchor="end" font-size="11" fill="#111" transform="rotate(-40 1170.35,624)" font-family="sans-serif">2026-03-29</text>
<line x1="1180.00" y1="600" x2="1180.00" y2="606" stroke="#333" stroke-width="1"/>
<text x="1180.00" y="624" text-anchor="end" font-size="11" fill="#111" transform="rotate(-40 1180.00,624)" font-family="sans-serif">2026-03-29</text>
<line x1="90" y1="75.88" x2="1180" y2="75.88" stroke="#dc2626" stroke-width="1.5" stroke-dasharray="8,4"/>
<text x="1184" y="79.88" font-size="12" fill="#dc2626" font-family="sans-serif">Goal: 1296</text>
<polyline fill="none" stroke="#2563eb" stroke-width="3" points="90.00,540.55 92.41,538.53 94.82,536.91 97.23,534.49 99.65,534.49 102.06,533.27 104.47,532.46 106.88,532.87 109.29,532.06 111.70,532.46 114.12,532.06 116.53,568.46 118.94,568.46 121.35,566.43 123.76,545.00 126.17,545.00 128.58,544.19 131.00,543.79 133.41,543.79 135.82,543.38 138.23,541.76 140.64,541.36 143.05,540.96 145.46,540.96 147.88,539.34 150.29,539.34 152.70,556.73 155.11,556.73 157.52,555.51 159.93,551.07 162.35,538.93 164.76,538.93 167.17,538.93 169.58,538.12 171.99,536.91 174.40,536.91 176.81,536.51 179.23,536.51 181.64,556.73 184.05,556.73 186.46,556.73 188.87,556.73 191.28,535.29 193.69,535.29 196.11,535.29 198.52,535.29 200.93,534.49 203.34,534.08 205.75,533.68 208.16,532.87 210.58,532.06 212.99,532.06 215.40,531.25 217.81,530.85 220.22,530.44 222.63,530.04 225.04,530.04 227.46,529.23 229.87,529.23 232.28,529.23 234.69,528.42 237.10,528.42 239.51,527.61 241.92,527.21 244.34,526.80 246.75,526.40 249.16,525.18 251.57,523.57 253.98,523.57 256.39,523.16 258.81,522.76 261.22,522.35 263.63,521.54 266.04,519.52 268.45,517.50 270.86,517.50 273.27,517.50 275.69,517.50 278.10,517.50 280.51,517.50 282.92,517.10 285.33,516.69 287.74,515.48 290.15,515.07 292.57,514.67 294.98,513.86 297.39,514.26 299.80,512.24 302.21,511.84 304.62,511.84 307.04,511.03 309.45,509.82 311.86,507.79 314.27,506.99 316.68,506.58 319.09,509.41 321.50,509.01 323.92,504.96 326.33,504.56 328.74,504.15 331.15,504.56 333.56,503.75 335.97,503.75 338.38,503.35 340.80,499.30 343.21,496.47 345.62,490.00 348.03,484.34 350.44,481.10 352.85,480.29 355.27,480.70 357.68,460.88 360.09,459.26 362.50,458.05 364.91,456.03 367.32,456.03 369.73,454.41 372.15,450.77 374.56,444.30 376.97,443.90 379.38,600.00 381.79,441.88 384.20,440.66 386.62,439.45 389.03,439.04 391.44,438.64 393.85,437.83 396.26,436.62 398.67,436.62 401.08,434.60 403.50,432.17 405.91,429.34 408.32,428.93 410.73,428.53 413.14,427.72 415.55,426.91 417.96,426.10 420.38,426.10 422.79,426.10 425.20,419.63 427.61,419.23 430.02,418.42 432.43,418.01 434.85,417.61 437.26,417.61 439.67,417.61 442.08,417.21 444.49,417.21 446.90,413.57 449.31,411.95 451.73,412.76 454.14,410.74 456.55,410.74 458.96,410.33 461.37,410.33 463.78,410.33 466.19,409.93 468.61,409.93 471.02,409.93 473.43,409.52 475.84,409.52 478.25,409.12 480.66,409.52 483.08,409.12 485.49,407.50 487.90,407.10 490.31,403.05 492.72,399.82 495.13,400.22 497.54,400.62 499.96,400.62 502.37,399.41 504.78,392.94 507.19,391.32 509.60,389.30 512.01,389.30 514.42,388.49 516.84,375.15 519.25,374.74 521.66,374.74 524.07,374.74 526.48,374.74 528.89,374.34 531.31,374.34 533.72,374.34 536.13,374.34 538.54,374.34 540.95,373.93 543.36,373.12 545.77,372.72 548.19,373.53 550.60,435.81 553.01,372.32 555.42,372.72 557.83,371.91 560.24,371.91 562.65,372.32 565.07,371.10 567.48,369.89 569.89,369.89 572.30,369.89 574.71,369.49 577.12,369.89 579.54,369.08 581.95,368.68 584.36,368.27 586.77,367.87 589.18,367.06 591.59,367.46 594.00,367.06 596.42,366.25 598.83,368.27 601.24,368.68 603.65,368.68 606.06,368.27 608.47,369.08 610.88,367.87 613.30,367.46 615.71,367.06 618.12,360.18 620.53,359.78 622.94,359.38 625.35,356.95 627.77,357.35 630.18,357.76 632.59,355.33 635.00,355.74 637.41,357.35 639.82,355.33 642.23,356.14 644.65,355.74 647.06,356.14 649.47,354.12 651.88,354.93 654.29,356.14 656.70,354.52 659.12,353.71 661.53,354.12 663.94,354.93 666.35,352.90 668.76,353.71 671.17,353.31 673.58,353.31 676.00,354.52 678.41,352.90 680.82,352.50 683.23,352.50 685.64,353.31 688.05,352.50 690.46,353.71 692.88,354.12 695.29,352.50 697.70,352.90 700.11,352.50 702.52,352.10 704.93,351.69 707.35,352.10 709.76,354.12 712.17,352.50 714.58,352.10 716.99,352.10 719.40,349.67 721.81,349.67 724.23,350.88 726.64,351.29 729.05,350.48 731.46,352.10 733.87,350.48 736.28,350.48 738.69,350.48 741.11,350.07 743.52,348.46 745.93,351.29 748.34,349.67 750.75,351.29 753.16,349.67 755.58,348.86 757.99,348.46 760.40,348.46 762.81,347.24 765.22,348.86 767.63,346.84 770.04,348.46 772.46,348.86 774.87,346.84 777.28,349.26 779.69,348.05 782.10,349.26 784.51,349.26 786.92,350.48 789.34,352.90 791.75,349.67 794.16,348.46 796.57,345.62 798.98,344.82 801.39,344.41 803.81,342.39 806.22,341.18 808.63,341.58 811.04,339.15 813.45,338.35 815.86,337.54 818.27,336.73 820.69,335.92 823.10,337.54 825.51,338.35 827.92,337.54 830.33,337.54 832.74,337.54 835.15,333.09 837.57,333.90 839.98,335.92 842.39,336.73 844.80,335.51 847.21,332.28 849.62,331.47 852.04,331.07 854.45,331.47 856.86,331.07 859.27,331.07 861.68,331.07 864.09,331.07 866.50,331.07 868.92,331.07 871.33,331.07 873.74,331.07 876.15,331.07 878.56,331.07 880.97,331.47 883.38,331.88 885.80,331.07 888.21,331.47 890.62,331.07 893.03,331.47 895.44,331.07 897.85,324.19 900.27,324.19 902.68,318.93 905.09,316.51 907.50,310.44 909.91,308.01 912.32,600.00 914.73,301.54 917.15,290.22 919.56,287.79 921.97,286.18 924.38,285.77 926.79,285.77 929.20,285.77 931.62,286.18 934.03,285.77 936.44,285.77 938.85,285.77 941.26,283.35 943.67,282.94 946.08,282.94 948.50,283.35 950.91,282.94 953.32,282.94 955.73,283.75 958.14,282.13 960.55,282.13 962.96,282.54 965.38,282.13 967.79,282.54 970.20,282.94 972.61,281.73 975.02,282.54 977.43,281.73 979.85,282.54 982.26,282.13 984.67,282.13 987.08,281.73 989.49,281.73 991.90,281.32 994.31,281.73 996.73,282.13 999.14,281.32 1001.55,281.32 1003.96,282.54 1006.37,282.13 1008.78,281.32 1011.19,281.32 1013.61,281.32 1016.02,282.54 1018.43,282.13 1020.84,281.32 1023.25,282.13 1025.66,281.73 1028.08,282.13 1030.49,280.11 1032.90,280.11 1035.31,280.51 1037.72,279.71 1040.13,280.11 1042.54,280.51 1044.96,279.71 1047.37,280.11 1049.78,280.11 1052.19,279.30 1054.60,278.90 1057.01,278.90 1059.42,280.51 1061.84,279.30 1064.25,278.09 1066.66,278.49 1069.07,278.49 1071.48,277.28 1073.89,277.68 1076.31,277.68 1078.72,278.09 1081.13,277.28 1083.54,600.00 1085.95,278.90 1088.36,279.30 1090.77,278.90 1093.19,278.49 1095.60,278.49 1098.01,278.49 1100.42,278.49 1102.83,278.49 1105.24,278.49 1107.65,278.49 1110.07,278.49 1112.48,278.49 1114.89,278.49 1117.30,278.49 1119.71,278.49 1122.12,600.00 1124.54,600.00 1126.95,254.63 1129.36,600.00 1131.77,245.74 1134.18,245.74 1136.59,246.14 1139.00,245.74 1141.42,245.74 1143.83,245.74 1146.24,245.74 1148.65,245.74 1151.06,240.07 1153.47,238.05 1155.88,238.05 1158.30,227.13 1160.71,227.13 1163.12,226.32 1165.53,227.54 1167.94,226.73 1170.35,226.32 1172.77,227.13 1175.18,227.13 1177.59,226.73 1180.00,226.32"/>
<circle cx="90.00" cy="540.55" r="3.2" fill="#1d4ed8"/>
<circle cx="92.41" cy="538.53" r="3.2" fill="#1d4ed8"/>
<circle cx="94.82" cy="536.91" r="3.2" fill="#1d4ed8"/>
<circle cx="97.23" cy="534.49" r="3.2" fill="#1d4ed8"/>
<circle cx="99.65" cy="534.49" r="3.2" fill="#1d4ed8"/>
<circle cx="102.06" cy="533.27" r="3.2" fill="#1d4ed8"/>
<circle cx="104.47" cy="532.46" r="3.2" fill="#1d4ed8"/>
<circle cx="106.88" cy="532.87" r="3.2" fill="#1d4ed8"/>
<circle cx="109.29" cy="532.06" r="3.2" fill="#1d4ed8"/>
<circle cx="111.70" cy="532.46" r="3.2" fill="#1d4ed8"/>
<circle cx="114.12" cy="532.06" r="3.2" fill="#1d4ed8"/>
<circle cx="116.53" cy="568.46" r="3.2" fill="#1d4ed8"/>
<circle cx="118.94" cy="568.46" r="3.2" fill="#1d4ed8"/>
<circle cx="121.35" cy="566.43" r="3.2" fill="#1d4ed8"/>
<circle cx="123.76" cy="545.00" r="3.2" fill="#1d4ed8"/>
<circle cx="126.17" cy="545.00" r="3.2" fill="#1d4ed8"/>
<circle cx="128.58" cy="544.19" r="3.2" fill="#1d4ed8"/>
<circle cx="131.00" cy="543.79" r="3.2" fill="#1d4ed8"/>
<circle cx="133.41" cy="543.79" r="3.2" fill="#1d4ed8"/>
<circle cx="135.82" cy="543.38" r="3.2" fill="#1d4ed8"/>
<circle cx="138.23" cy="541.76" r="3.2" fill="#1d4ed8"/>
<circle cx="140.64" cy="541.36" r="3.2" fill="#1d4ed8"/>
<circle cx="143.05" cy="540.96" r="3.2" fill="#1d4ed8"/>
<circle cx="145.46" cy="540.96" r="3.2" fill="#1d4ed8"/>
<circle cx="147.88" cy="539.34" r="3.2" fill="#1d4ed8"/>
<circle cx="150.29" cy="539.34" r="3.2" fill="#1d4ed8"/>
<circle cx="152.70" cy="556.73" r="3.2" fill="#1d4ed8"/>
<circle cx="155.11" cy="556.73" r="3.2" fill="#1d4ed8"/>
<circle cx="157.52" cy="555.51" r="3.2" fill="#1d4ed8"/>
<circle cx="159.93" cy="551.07" r="3.2" fill="#1d4ed8"/>
<circle cx="162.35" cy="538.93" r="3.2" fill="#1d4ed8"/>
<circle cx="164.76" cy="538.93" r="3.2" fill="#1d4ed8"/>
<circle cx="167.17" cy="538.93" r="3.2" fill="#1d4ed8"/>
<circle cx="169.58" cy="538.12" r="3.2" fill="#1d4ed8"/>
<circle cx="171.99" cy="536.91" r="3.2" fill="#1d4ed8"/>
<circle cx="174.40" cy="536.91" r="3.2" fill="#1d4ed8"/>
<circle cx="176.81" cy="536.51" r="3.2" fill="#1d4ed8"/>
<circle cx="179.23" cy="536.51" r="3.2" fill="#1d4ed8"/>
<circle cx="181.64" cy="556.73" r="3.2" fill="#1d4ed8"/>
<circle cx="184.05" cy="556.73" r="3.2" fill="#1d4ed8"/>
<circle cx="186.46" cy="556.73" r="3.2" fill="#1d4ed8"/>
<circle cx="188.87" cy="556.73" r="3.2" fill="#1d4ed8"/>
<circle cx="191.28" cy="535.29" r="3.2" fill="#1d4ed8"/>
<circle cx="193.69" cy="535.29" r="3.2" fill="#1d4ed8"/>
<circle cx="196.11" cy="535.29" r="3.2" fill="#1d4ed8"/>
<circle cx="198.52" cy="535.29" r="3.2" fill="#1d4ed8"/>
<circle cx="200.93" cy="534.49" r="3.2" fill="#1d4ed8"/>
<circle cx="203.34" cy="534.08" r="3.2" fill="#1d4ed8"/>
<circle cx="205.75" cy="533.68" r="3.2" fill="#1d4ed8"/>
<circle cx="208.16" cy="532.87" r="3.2" fill="#1d4ed8"/>
<circle cx="210.58" cy="532.06" r="3.2" fill="#1d4ed8"/>
<circle cx="212.99" cy="532.06" r="3.2" fill="#1d4ed8"/>
<circle cx="215.40" cy="531.25" r="3.2" fill="#1d4ed8"/>
<circle cx="217.81" cy="530.85" r="3.2" fill="#1d4ed8"/>
<circle cx="220.22" cy="530.44" r="3.2" fill="#1d4ed8"/>
<circle cx="222.63" cy="530.04" r="3.2" fill="#1d4ed8"/>
<circle cx="225.04" cy="530.04" r="3.2" fill="#1d4ed8"/>
<circle cx="227.46" cy="529.23" r="3.2" fill="#1d4ed8"/>
<circle cx="229.87" cy="529.23" r="3.2" fill="#1d4ed8"/>
<circle cx="232.28" cy="529.23" r="3.2" fill="#1d4ed8"/>
<circle cx="234.69" cy="528.42" r="3.2" fill="#1d4ed8"/>
<circle cx="237.10" cy="528.42" r="3.2" fill="#1d4ed8"/>
<circle cx="239.51" cy="527.61" r="3.2" fill="#1d4ed8"/>
<circle cx="241.92" cy="527.21" r="3.2" fill="#1d4ed8"/>
<circle cx="244.34" cy="526.80" r="3.2" fill="#1d4ed8"/>
<circle cx="246.75" cy="526.40" r="3.2" fill="#1d4ed8"/>
<circle cx="249.16" cy="525.18" r="3.2" fill="#1d4ed8"/>
<circle cx="251.57" cy="523.57" r="3.2" fill="#1d4ed8"/>
<circle cx="253.98" cy="523.57" r="3.2" fill="#1d4ed8"/>
<circle cx="256.39" cy="523.16" r="3.2" fill="#1d4ed8"/>
<circle cx="258.81" cy="522.76" r="3.2" fill="#1d4ed8"/>
<circle cx="261.22" cy="522.35" r="3.2" fill="#1d4ed8"/>
<circle cx="263.63" cy="521.54" r="3.2" fill="#1d4ed8"/>
<circle cx="266.04" cy="519.52" r="3.2" fill="#1d4ed8"/>
<circle cx="268.45" cy="517.50" r="3.2" fill="#1d4ed8"/>
<circle cx="270.86" cy="517.50" r="3.2" fill="#1d4ed8"/>
<circle cx="273.27" cy="517.50" r="3.2" fill="#1d4ed8"/>
<circle cx="275.69" cy="517.50" r="3.2" fill="#1d4ed8"/>
<circle cx="278.10" cy="517.50" r="3.2" fill="#1d4ed8"/>
<circle cx="280.51" cy="517.50" r="3.2" fill="#1d4ed8"/>
<circle cx="282.92" cy="517.10" r="3.2" fill="#1d4ed8"/>
<circle cx="285.33" cy="516.69" r="3.2" fill="#1d4ed8"/>
<circle cx="287.74" cy="515.48" r="3.2" fill="#1d4ed8"/>
<circle cx="290.15" cy="515.07" r="3.2" fill="#1d4ed8"/>
<circle cx="292.57" cy="514.67" r="3.2" fill="#1d4ed8"/>
<circle cx="294.98" cy="513.86" r="3.2" fill="#1d4ed8"/>
<circle cx="297.39" cy="514.26" r="3.2" fill="#1d4ed8"/>
<circle cx="299.80" cy="512.24" r="3.2" fill="#1d4ed8"/>
<circle cx="302.21" cy="511.84" r="3.2" fill="#1d4ed8"/>
<circle cx="304.62" cy="511.84" r="3.2" fill="#1d4ed8"/>
<circle cx="307.04" cy="511.03" r="3.2" fill="#1d4ed8"/>
<circle cx="309.45" cy="509.82" r="3.2" fill="#1d4ed8"/>
<circle cx="311.86" cy="507.79" r="3.2" fill="#1d4ed8"/>
<circle cx="314.27" cy="506.99" r="3.2" fill="#1d4ed8"/>
<circle cx="316.68" cy="506.58" r="3.2" fill="#1d4ed8"/>
<circle cx="319.09" cy="509.41" r="3.2" fill="#1d4ed8"/>
<circle cx="321.50" cy="509.01" r="3.2" fill="#1d4ed8"/>
<circle cx="323.92" cy="504.96" r="3.2" fill="#1d4ed8"/>
<circle cx="326.33" cy="504.56" r="3.2" fill="#1d4ed8"/>
<circle cx="328.74" cy="504.15" r="3.2" fill="#1d4ed8"/>
<circle cx="331.15" cy="504.56" r="3.2" fill="#1d4ed8"/>
<circle cx="333.56" cy="503.75" r="3.2" fill="#1d4ed8"/>
<circle cx="335.97" cy="503.75" r="3.2" fill="#1d4ed8"/>
<circle cx="338.38" cy="503.35" r="3.2" fill="#1d4ed8"/>
<circle cx="340.80" cy="499.30" r="3.2" fill="#1d4ed8"/>
<circle cx="343.21" cy="496.47" r="3.2" fill="#1d4ed8"/>
<circle cx="345.62" cy="490.00" r="3.2" fill="#1d4ed8"/>
<circle cx="348.03" cy="484.34" r="3.2" fill="#1d4ed8"/>
<circle cx="350.44" cy="481.10" r="3.2" fill="#1d4ed8"/>
<circle cx="352.85" cy="480.29" r="3.2" fill="#1d4ed8"/>
<circle cx="355.27" cy="480.70" r="3.2" fill="#1d4ed8"/>
<circle cx="357.68" cy="460.88" r="3.2" fill="#1d4ed8"/>
<circle cx="360.09" cy="459.26" r="3.2" fill="#1d4ed8"/>
<circle cx="362.50" cy="458.05" r="3.2" fill="#1d4ed8"/>
<circle cx="364.91" cy="456.03" r="3.2" fill="#1d4ed8"/>
<circle cx="367.32" cy="456.03" r="3.2" fill="#1d4ed8"/>
<circle cx="369.73" cy="454.41" r="3.2" fill="#1d4ed8"/>
<circle cx="372.15" cy="450.77" r="3.2" fill="#1d4ed8"/>
<circle cx="374.56" cy="444.30" r="3.2" fill="#1d4ed8"/>
<circle cx="376.97" cy="443.90" r="3.2" fill="#1d4ed8"/>
<circle cx="379.38" cy="600.00" r="3.2" fill="#1d4ed8"/>
<circle cx="381.79" cy="441.88" r="3.2" fill="#1d4ed8"/>
<circle cx="384.20" cy="440.66" r="3.2" fill="#1d4ed8"/>
<circle cx="386.62" cy="439.45" r="3.2" fill="#1d4ed8"/>
<circle cx="389.03" cy="439.04" r="3.2" fill="#1d4ed8"/>
<circle cx="391.44" cy="438.64" r="3.2" fill="#1d4ed8"/>
<circle cx="393.85" cy="437.83" r="3.2" fill="#1d4ed8"/>
<circle cx="396.26" cy="436.62" r="3.2" fill="#1d4ed8"/>
<circle cx="398.67" cy="436.62" r="3.2" fill="#1d4ed8"/>
<circle cx="401.08" cy="434.60" r="3.2" fill="#1d4ed8"/>
<circle cx="403.50" cy="432.17" r="3.2" fill="#1d4ed8"/>
<circle cx="405.91" cy="429.34" r="3.2" fill="#1d4ed8"/>
<circle cx="408.32" cy="428.93" r="3.2" fill="#1d4ed8"/>
<circle cx="410.73" cy="428.53" r="3.2" fill="#1d4ed8"/>
<circle cx="413.14" cy="427.72" r="3.2" fill="#1d4ed8"/>
<circle cx="415.55" cy="426.91" r="3.2" fill="#1d4ed8"/>
<circle cx="417.96" cy="426.10" r="3.2" fill="#1d4ed8"/>
<circle cx="420.38" cy="426.10" r="3.2" fill="#1d4ed8"/>
<circle cx="422.79" cy="426.10" r="3.2" fill="#1d4ed8"/>
<circle cx="425.20" cy="419.63" r="3.2" fill="#1d4ed8"/>
<circle cx="427.61" cy="419.23" r="3.2" fill="#1d4ed8"/>
<circle cx="430.02" cy="418.42" r="3.2" fill="#1d4ed8"/>
<circle cx="432.43" cy="418.01" r="3.2" fill="#1d4ed8"/>
<circle cx="434.85" cy="417.61" r="3.2" fill="#1d4ed8"/>
<circle cx="437.26" cy="417.61" r="3.2" fill="#1d4ed8"/>
<circle cx="439.67" cy="417.61" r="3.2" fill="#1d4ed8"/>
<circle cx="442.08" cy="417.21" r="3.2" fill="#1d4ed8"/>
<circle cx="444.49" cy="417.21" r="3.2" fill="#1d4ed8"/>
<circle cx="446.90" cy="413.57" r="3.2" fill="#1d4ed8"/>
<circle cx="449.31" cy="411.95" r="3.2" fill="#1d4ed8"/>
<circle cx="451.73" cy="412.76" r="3.2" fill="#1d4ed8"/>
<circle cx="454.14" cy="410.74" r="3.2" fill="#1d4ed8"/>
<circle cx="456.55" cy="410.74" r="3.2" fill="#1d4ed8"/>
<circle cx="458.96" cy="410.33" r="3.2" fill="#1d4ed8"/>
<circle cx="461.37" cy="410.33" r="3.2" fill="#1d4ed8"/>
<circle cx="463.78" cy="410.33" r="3.2" fill="#1d4ed8"/>
<circle cx="466.19" cy="409.93" r="3.2" fill="#1d4ed8"/>
<circle cx="468.61" cy="409.93" r="3.2" fill="#1d4ed8"/>
<circle cx="471.02" cy="409.93" r="3.2" fill="#1d4ed8"/>
<circle cx="473.43" cy="409.52" r="3.2" fill="#1d4ed8"/>
<circle cx="475.84" cy="409.52" r="3.2" fill="#1d4ed8"/>
<circle cx="478.25" cy="409.12" r="3.2" fill="#1d4ed8"/>
<circle cx="480.66" cy="409.52" r="3.2" fill="#1d4ed8"/>
<circle cx="483.08" cy="409.12" r="3.2" fill="#1d4ed8"/>
<circle cx="485.49" cy="407.50" r="3.2" fill="#1d4ed8"/>
<circle cx="487.90" cy="407.10" r="3.2" fill="#1d4ed8"/>
<circle cx="490.31" cy="403.05" r="3.2" fill="#1d4ed8"/>
<circle cx="492.72" cy="399.82" r="3.2" fill="#1d4ed8"/>
<circle cx="495.13" cy="400.22" r="3.2" fill="#1d4ed8"/>
<circle cx="497.54" cy="400.62" r="3.2" fill="#1d4ed8"/>
<circle cx="499.96" cy="400.62" r="3.2" fill="#1d4ed8"/>
<circle cx="502.37" cy="399.41" r="3.2" fill="#1d4ed8"/>
<circle cx="504.78" cy="392.94" r="3.2" fill="#1d4ed8"/>
<circle cx="507.19" cy="391.32" r="3.2" fill="#1d4ed8"/>
<circle cx="509.60" cy="389.30" r="3.2" fill="#1d4ed8"/>
<circle cx="512.01" cy="389.30" r="3.2" fill="#1d4ed8"/>
<circle cx="514.42" cy="388.49" r="3.2" fill="#1d4ed8"/>
<circle cx="516.84" cy="375.15" r="3.2" fill="#1d4ed8"/>
<circle cx="519.25" cy="374.74" r="3.2" fill="#1d4ed8"/>
<circle cx="521.66" cy="374.74" r="3.2" fill="#1d4ed8"/>
<circle cx="524.07" cy="374.74" r="3.2" fill="#1d4ed8"/>
<circle cx="526.48" cy="374.74" r="3.2" fill="#1d4ed8"/>
<circle cx="528.89" cy="374.34" r="3.2" fill="#1d4ed8"/>
<circle cx="531.31" cy="374.34" r="3.2" fill="#1d4ed8"/>
<circle cx="533.72" cy="374.34" r="3.2" fill="#1d4ed8"/>
<circle cx="536.13" cy="374.34" r="3.2" fill="#1d4ed8"/>
<circle cx="538.54" cy="374.34" r="3.2" fill="#1d4ed8"/>
<circle cx="540.95" cy="373.93" r="3.2" fill="#1d4ed8"/>
<circle cx="543.36" cy="373.12" r="3.2" fill="#1d4ed8"/>
<circle cx="545.77" cy="372.72" r="3.2" fill="#1d4ed8"/>
<circle cx="548.19" cy="373.53" r="3.2" fill="#1d4ed8"/>
<circle cx="550.60" cy="435.81" r="3.2" fill="#1d4ed8"/>
<circle cx="553.01" cy="372.32" r="3.2" fill="#1d4ed8"/>
<circle cx="555.42" cy="372.72" r="3.2" fill="#1d4ed8"/>
<circle cx="557.83" cy="371.91" r="3.2" fill="#1d4ed8"/>
<circle cx="560.24" cy="371.91" r="3.2" fill="#1d4ed8"/>
<circle cx="562.65" cy="372.32" r="3.2" fill="#1d4ed8"/>
<circle cx="565.07" cy="371.10" r="3.2" fill="#1d4ed8"/>
<circle cx="567.48" cy="369.89" r="3.2" fill="#1d4ed8"/>
<circle cx="569.89" cy="369.89" r="3.2" fill="#1d4ed8"/>
<circle cx="572.30" cy="369.89" r="3.2" fill="#1d4ed8"/>
<circle cx="574.71" cy="369.49" r="3.2" fill="#1d4ed8"/>
<circle cx="577.12" cy="369.89" r="3.2" fill="#1d4ed8"/>
<circle cx="579.54" cy="369.08" r="3.2" fill="#1d4ed8"/>
<circle cx="581.95" cy="368.68" r="3.2" fill="#1d4ed8"/>
<circle cx="584.36" cy="368.27" r="3.2" fill="#1d4ed8"/>
<circle cx="586.77" cy="367.87" r="3.2" fill="#1d4ed8"/>
<circle cx="589.18" cy="367.06" r="3.2" fill="#1d4ed8"/>
<circle cx="591.59" cy="367.46" r="3.2" fill="#1d4ed8"/>
<circle cx="594.00" cy="367.06" r="3.2" fill="#1d4ed8"/>
<circle cx="596.42" cy="366.25" r="3.2" fill="#1d4ed8"/>
<circle cx="598.83" cy="368.27" r="3.2" fill="#1d4ed8"/>
<circle cx="601.24" cy="368.68" r="3.2" fill="#1d4ed8"/>
<circle cx="603.65" cy="368.68" r="3.2" fill="#1d4ed8"/>
<circle cx="606.06" cy="368.27" r="3.2" fill="#1d4ed8"/>
<circle cx="608.47" cy="369.08" r="3.2" fill="#1d4ed8"/>
<circle cx="610.88" cy="367.87" r="3.2" fill="#1d4ed8"/>
<circle cx="613.30" cy="367.46" r="3.2" fill="#1d4ed8"/>
<circle cx="615.71" cy="367.06" r="3.2" fill="#1d4ed8"/>
<circle cx="618.12" cy="360.18" r="3.2" fill="#1d4ed8"/>
<circle cx="620.53" cy="359.78" r="3.2" fill="#1d4ed8"/>
<circle cx="622.94" cy="359.38" r="3.2" fill="#1d4ed8"/>
<circle cx="625.35" cy="356.95" r="3.2" fill="#1d4ed8"/>
<circle cx="627.77" cy="357.35" r="3.2" fill="#1d4ed8"/>
<circle cx="630.18" cy="357.76" r="3.2" fill="#1d4ed8"/>
<circle cx="632.59" cy="355.33" r="3.2" fill="#1d4ed8"/>
<circle cx="635.00" cy="355.74" r="3.2" fill="#1d4ed8"/>
<circle cx="637.41" cy="357.35" r="3.2" fill="#1d4ed8"/>
<circle cx="639.82" cy="355.33" r="3.2" fill="#1d4ed8"/>
<circle cx="642.23" cy="356.14" r="3.2" fill="#1d4ed8"/>
<circle cx="644.65" cy="355.74" r="3.2" fill="#1d4ed8"/>
<circle cx="647.06" cy="356.14" r="3.2" fill="#1d4ed8"/>
<circle cx="649.47" cy="354.12" r="3.2" fill="#1d4ed8"/>
<circle cx="651.88" cy="354.93" r="3.2" fill="#1d4ed8"/>
<circle cx="654.29" cy="356.14" r="3.2" fill="#1d4ed8"/>
<circle cx="656.70" cy="354.52" r="3.2" fill="#1d4ed8"/>
<circle cx="659.12" cy="353.71" r="3.2" fill="#1d4ed8"/>
<circle cx="661.53" cy="354.12" r="3.2" fill="#1d4ed8"/>
<circle cx="663.94" cy="354.93" r="3.2" fill="#1d4ed8"/>
<circle cx="666.35" cy="352.90" r="3.2" fill="#1d4ed8"/>
<circle cx="668.76" cy="353.71" r="3.2" fill="#1d4ed8"/>
<circle cx="671.17" cy="353.31" r="3.2" fill="#1d4ed8"/>
<circle cx="673.58" cy="353.31" r="3.2" fill="#1d4ed8"/>
<circle cx="676.00" cy="354.52" r="3.2" fill="#1d4ed8"/>
<circle cx="678.41" cy="352.90" r="3.2" fill="#1d4ed8"/>
<circle cx="680.82" cy="352.50" r="3.2" fill="#1d4ed8"/>
<circle cx="683.23" cy="352.50" r="3.2" fill="#1d4ed8"/>
<circle cx="685.64" cy="353.31" r="3.2" fill="#1d4ed8"/>
<circle cx="688.05" cy="352.50" r="3.2" fill="#1d4ed8"/>
<circle cx="690.46" cy="353.71" r="3.2" fill="#1d4ed8"/>
<circle cx="692.88" cy="354.12" r="3.2" fill="#1d4ed8"/>
<circle cx="695.29" cy="352.50" r="3.2" fill="#1d4ed8"/>
<circle cx="697.70" cy="352.90" r="3.2" fill="#1d4ed8"/>
<circle cx="700.11" cy="352.50" r="3.2" fill="#1d4ed8"/>
<circle cx="702.52" cy="352.10" r="3.2" fill="#1d4ed8"/>
<circle cx="704.93" cy="351.69" r="3.2" fill="#1d4ed8"/>
<circle cx="707.35" cy="352.10" r="3.2" fill="#1d4ed8"/>
<circle cx="709.76" cy="354.12" r="3.2" fill="#1d4ed8"/>
<circle cx="712.17" cy="352.50" r="3.2" fill="#1d4ed8"/>
<circle cx="714.58" cy="352.10" r="3.2" fill="#1d4ed8"/>
<circle cx="716.99" cy="352.10" r="3.2" fill="#1d4ed8"/>
<circle cx="719.40" cy="349.67" r="3.2" fill="#1d4ed8"/>
<circle cx="721.81" cy="349.67" r="3.2" fill="#1d4ed8"/>
<circle cx="724.23" cy="350.88" r="3.2" fill="#1d4ed8"/>
<circle cx="726.64" cy="351.29" r="3.2" fill="#1d4ed8"/>
<circle cx="729.05" cy="350.48" r="3.2" fill="#1d4ed8"/>
<circle cx="731.46" cy="352.10" r="3.2" fill="#1d4ed8"/>
<circle cx="733.87" cy="350.48" r="3.2" fill="#1d4ed8"/>
<circle cx="736.28" cy="350.48" r="3.2" fill="#1d4ed8"/>
<circle cx="738.69" cy="350.48" r="3.2" fill="#1d4ed8"/>
<circle cx="741.11" cy="350.07" r="3.2" fill="#1d4ed8"/>
<circle cx="743.52" cy="348.46" r="3.2" fill="#1d4ed8"/>
<circle cx="745.93" cy="351.29" r="3.2" fill="#1d4ed8"/>
<circle cx="748.34" cy="349.67" r="3.2" fill="#1d4ed8"/>
<circle cx="750.75" cy="351.29" r="3.2" fill="#1d4ed8"/>
<circle cx="753.16" cy="349.67" r="3.2" fill="#1d4ed8"/>
<circle cx="755.58" cy="348.86" r="3.2" fill="#1d4ed8"/>
<circle cx="757.99" cy="348.46" r="3.2" fill="#1d4ed8"/>
<circle cx="760.40" cy="348.46" r="3.2" fill="#1d4ed8"/>
<circle cx="762.81" cy="347.24" r="3.2" fill="#1d4ed8"/>
<circle cx="765.22" cy="348.86" r="3.2" fill="#1d4ed8"/>
<circle cx="767.63" cy="346.84" r="3.2" fill="#1d4ed8"/>
<circle cx="770.04" cy="348.46" r="3.2" fill="#1d4ed8"/>
<circle cx="772.46" cy="348.86" r="3.2" fill="#1d4ed8"/>
<circle cx="774.87" cy="346.84" r="3.2" fill="#1d4ed8"/>
<circle cx="777.28" cy="349.26" r="3.2" fill="#1d4ed8"/>
<circle cx="779.69" cy="348.05" r="3.2" fill="#1d4ed8"/>
<circle cx="782.10" cy="349.26" r="3.2" fill="#1d4ed8"/>
<circle cx="784.51" cy="349.26" r="3.2" fill="#1d4ed8"/>
<circle cx="786.92" cy="350.48" r="3.2" fill="#1d4ed8"/>
<circle cx="789.34" cy="352.90" r="3.2" fill="#1d4ed8"/>
<circle cx="791.75" cy="349.67" r="3.2" fill="#1d4ed8"/>
<circle cx="794.16" cy="348.46" r="3.2" fill="#1d4ed8"/>
<circle cx="796.57" cy="345.62" r="3.2" fill="#1d4ed8"/>
<circle cx="798.98" cy="344.82" r="3.2" fill="#1d4ed8"/>
<circle cx="801.39" cy="344.41" r="3.2" fill="#1d4ed8"/>
<circle cx="803.81" cy="342.39" r="3.2" fill="#1d4ed8"/>
<circle cx="806.22" cy="341.18" r="3.2" fill="#1d4ed8"/>
<circle cx="808.63" cy="341.58" r="3.2" fill="#1d4ed8"/>
<circle cx="811.04" cy="339.15" r="3.2" fill="#1d4ed8"/>
<circle cx="813.45" cy="338.35" r="3.2" fill="#1d4ed8"/>
<circle cx="815.86" cy="337.54" r="3.2" fill="#1d4ed8"/>
<circle cx="818.27" cy="336.73" r="3.2" fill="#1d4ed8"/>
<circle cx="820.69" cy="335.92" r="3.2" fill="#1d4ed8"/>
<circle cx="823.10" cy="337.54" r="3.2" fill="#1d4ed8"/>
<circle cx="825.51" cy="338.35" r="3.2" fill="#1d4ed8"/>
<circle cx="827.92" cy="337.54" r="3.2" fill="#1d4ed8"/>
<circle cx="830.33" cy="337.54" r="3.2" fill="#1d4ed8"/>
<circle cx="832.74" cy="337.54" r="3.2" fill="#1d4ed8"/>
<circle cx="835.15" cy="333.09" r="3.2" fill="#1d4ed8"/>
<circle cx="837.57" cy="333.90" r="3.2" fill="#1d4ed8"/>
<circle cx="839.98" cy="335.92" r="3.2" fill="#1d4ed8"/>
<circle cx="842.39" cy="336.73" r="3.2" fill="#1d4ed8"/>
<circle cx="844.80" cy="335.51" r="3.2" fill="#1d4ed8"/>
<circle cx="847.21" cy="332.28" r="3.2" fill="#1d4ed8"/>
<circle cx="849.62" cy="331.47" r="3.2" fill="#1d4ed8"/>
<circle cx="852.04" cy="331.07" r="3.2" fill="#1d4ed8"/>
<circle cx="854.45" cy="331.47" r="3.2" fill="#1d4ed8"/>
<circle cx="856.86" cy="331.07" r="3.2" fill="#1d4ed8"/>
<circle cx="859.27" cy="331.07" r="3.2" fill="#1d4ed8"/>
<circle cx="861.68" cy="331.07" r="3.2" fill="#1d4ed8"/>
<circle cx="864.09" cy="331.07" r="3.2" fill="#1d4ed8"/>
<circle cx="866.50" cy="331.07" r="3.2" fill="#1d4ed8"/>
<circle cx="868.92" cy="331.07" r="3.2" fill="#1d4ed8"/>
<circle cx="871.33" cy="331.07" r="3.2" fill="#1d4ed8"/>
<circle cx="873.74" cy="331.07" r="3.2" fill="#1d4ed8"/>
<circle cx="876.15" cy="331.07" r="3.2" fill="#1d4ed8"/>
<circle cx="878.56" cy="331.07" r="3.2" fill="#1d4ed8"/>
<circle cx="880.97" cy="331.47" r="3.2" fill="#1d4ed8"/>
<circle cx="883.38" cy="331.88" r="3.2" fill="#1d4ed8"/>
<circle cx="885.80" cy="331.07" r="3.2" fill="#1d4ed8"/>
<circle cx="888.21" cy="331.47" r="3.2" fill="#1d4ed8"/>
<circle cx="890.62" cy="331.07" r="3.2" fill="#1d4ed8"/>
<circle cx="893.03" cy="331.47" r="3.2" fill="#1d4ed8"/>
<circle cx="895.44" cy="331.07" r="3.2" fill="#1d4ed8"/>
<circle cx="897.85" cy="324.19" r="3.2" fill="#1d4ed8"/>
<circle cx="900.27" cy="324.19" r="3.2" fill="#1d4ed8"/>
<circle cx="902.68" cy="318.93" r="3.2" fill="#1d4ed8"/>
<circle cx="905.09" cy="316.51" r="3.2" fill="#1d4ed8"/>
<circle cx="907.50" cy="310.44" r="3.2" fill="#1d4ed8"/>
<circle cx="909.91" cy="308.01" r="3.2" fill="#1d4ed8"/>
<circle cx="912.32" cy="600.00" r="3.2" fill="#1d4ed8"/>
<circle cx="914.73" cy="301.54" r="3.2" fill="#1d4ed8"/>
<circle cx="917.15" cy="290.22" r="3.2" fill="#1d4ed8"/>
<circle cx="919.56" cy="287.79" r="3.2" fill="#1d4ed8"/>
<circle cx="921.97" cy="286.18" r="3.2" fill="#1d4ed8"/>
<circle cx="924.38" cy="285.77" r="3.2" fill="#1d4ed8"/>
<circle cx="926.79" cy="285.77" r="3.2" fill="#1d4ed8"/>
<circle cx="929.20" cy="285.77" r="3.2" fill="#1d4ed8"/>
<circle cx="931.62" cy="286.18" r="3.2" fill="#1d4ed8"/>
<circle cx="934.03" cy="285.77" r="3.2" fill="#1d4ed8"/>
<circle cx="936.44" cy="285.77" r="3.2" fill="#1d4ed8"/>
<circle cx="938.85" cy="285.77" r="3.2" fill="#1d4ed8"/>
<circle cx="941.26" cy="283.35" r="3.2" fill="#1d4ed8"/>
<circle cx="943.67" cy="282.94" r="3.2" fill="#1d4ed8"/>
<circle cx="946.08" cy="282.94" r="3.2" fill="#1d4ed8"/>
<circle cx="948.50" cy="283.35" r="3.2" fill="#1d4ed8"/>
<circle cx="950.91" cy="282.94" r="3.2" fill="#1d4ed8"/>
<circle cx="953.32" cy="282.94" r="3.2" fill="#1d4ed8"/>
<circle cx="955.73" cy="283.75" r="3.2" fill="#1d4ed8"/>
<circle cx="958.14" cy="282.13" r="3.2" fill="#1d4ed8"/>
<circle cx="960.55" cy="282.13" r="3.2" fill="#1d4ed8"/>
<circle cx="962.96" cy="282.54" r="3.2" fill="#1d4ed8"/>
<circle cx="965.38" cy="282.13" r="3.2" fill="#1d4ed8"/>
<circle cx="967.79" cy="282.54" r="3.2" fill="#1d4ed8"/>
<circle cx="970.20" cy="282.94" r="3.2" fill="#1d4ed8"/>
<circle cx="972.61" cy="281.73" r="3.2" fill="#1d4ed8"/>
<circle cx="975.02" cy="282.54" r="3.2" fill="#1d4ed8"/>
<circle cx="977.43" cy="281.73" r="3.2" fill="#1d4ed8"/>
<circle cx="979.85" cy="282.54" r="3.2" fill="#1d4ed8"/>
<circle cx="982.26" cy="282.13" r="3.2" fill="#1d4ed8"/>
<circle cx="984.67" cy="282.13" r="3.2" fill="#1d4ed8"/>
<circle cx="987.08" cy="281.73" r="3.2" fill="#1d4ed8"/>
<circle cx="989.49" cy="281.73" r="3.2" fill="#1d4ed8"/>
<circle cx="991.90" cy="281.32" r="3.2" fill="#1d4ed8"/>
<circle cx="994.31" cy="281.73" r="3.2" fill="#1d4ed8"/>
<circle cx="996.73" cy="282.13" r="3.2" fill="#1d4ed8"/>
<circle cx="999.14" cy="281.32" r="3.2" fill="#1d4ed8"/>
<circle cx="1001.55" cy="281.32" r="3.2" fill="#1d4ed8"/>
<circle cx="1003.96" cy="282.54" r="3.2" fill="#1d4ed8"/>
<circle cx="1006.37" cy="282.13" r="3.2" fill="#1d4ed8"/>
<circle cx="1008.78" cy="281.32" r="3.2" fill="#1d4ed8"/>
<circle cx="1011.19" cy="281.32" r="3.2" fill="#1d4ed8"/>
<circle cx="1013.61" cy="281.32" r="3.2" fill="#1d4ed8"/>
<circle cx="1016.02" cy="282.54" r="3.2" fill="#1d4ed8"/>
<circle cx="1018.43" cy="282.13" r="3.2" fill="#1d4ed8"/>
<circle cx="1020.84" cy="281.32" r="3.2" fill="#1d4ed8"/>
<circle cx="1023.25" cy="282.13" r="3.2" fill="#1d4ed8"/>
<circle cx="1025.66" cy="281.73" r="3.2" fill="#1d4ed8"/>
<circle cx="1028.08" cy="282.13" r="3.2" fill="#1d4ed8"/>
<circle cx="1030.49" cy="280.11" r="3.2" fill="#1d4ed8"/>
<circle cx="1032.90" cy="280.11" r="3.2" fill="#1d4ed8"/>
<circle cx="1035.31" cy="280.51" r="3.2" fill="#1d4ed8"/>
<circle cx="1037.72" cy="279.71" r="3.2" fill="#1d4ed8"/>
<circle cx="1040.13" cy="280.11" r="3.2" fill="#1d4ed8"/>
<circle cx="1042.54" cy="280.51" r="3.2" fill="#1d4ed8"/>
<circle cx="1044.96" cy="279.71" r="3.2" fill="#1d4ed8"/>
<circle cx="1047.37" cy="280.11" r="3.2" fill="#1d4ed8"/>
<circle cx="1049.78" cy="280.11" r="3.2" fill="#1d4ed8"/>
<circle cx="1052.19" cy="279.30" r="3.2" fill="#1d4ed8"/>
<circle cx="1054.60" cy="278.90" r="3.2" fill="#1d4ed8"/>
<circle cx="1057.01" cy="278.90" r="3.2" fill="#1d4ed8"/>
<circle cx="1059.42" cy="280.51" r="3.2" fill="#1d4ed8"/>
<circle cx="1061.84" cy="279.30" r="3.2" fill="#1d4ed8"/>
<circle cx="1064.25" cy="278.09" r="3.2" fill="#1d4ed8"/>
<circle cx="1066.66" cy="278.49" r="3.2" fill="#1d4ed8"/>
<circle cx="1069.07" cy="278.49" r="3.2" fill="#1d4ed8"/>
<circle cx="1071.48" cy="277.28" r="3.2" fill="#1d4ed8"/>
<circle cx="1073.89" cy="277.68" r="3.2" fill="#1d4ed8"/>
<circle cx="1076.31" cy="277.68" r="3.2" fill="#1d4ed8"/>
<circle cx="1078.72" cy="278.09" r="3.2" fill="#1d4ed8"/>
<circle cx="1081.13" cy="277.28" r="3.2" fill="#1d4ed8"/>
<circle cx="1083.54" cy="600.00" r="3.2" fill="#1d4ed8"/>
<circle cx="1085.95" cy="278.90" r="3.2" fill="#1d4ed8"/>
<circle cx="1088.36" cy="279.30" r="3.2" fill="#1d4ed8"/>
<circle cx="1090.77" cy="278.90" r="3.2" fill="#1d4ed8"/>
<circle cx="1093.19" cy="278.49" r="3.2" fill="#1d4ed8"/>
<circle cx="1095.60" cy="278.49" r="3.2" fill="#1d4ed8"/>
<circle cx="1098.01" cy="278.49" r="3.2" fill="#1d4ed8"/>
<circle cx="1100.42" cy="278.49" r="3.2" fill="#1d4ed8"/>
<circle cx="1102.83" cy="278.49" r="3.2" fill="#1d4ed8"/>
<circle cx="1105.24" cy="278.49" r="3.2" fill="#1d4ed8"/>
<circle cx="1107.65" cy="278.49" r="3.2" fill="#1d4ed8"/>
<circle cx="1110.07" cy="278.49" r="3.2" fill="#1d4ed8"/>
<circle cx="1112.48" cy="278.49" r="3.2" fill="#1d4ed8"/>
<circle cx="1114.89" cy="278.49" r="3.2" fill="#1d4ed8"/>
<circle cx="1117.30" cy="278.49" r="3.2" fill="#1d4ed8"/>
<circle cx="1119.71" cy="278.49" r="3.2" fill="#1d4ed8"/>
<circle cx="1122.12" cy="600.00" r="3.2" fill="#1d4ed8"/>
<circle cx="1124.54" cy="600.00" r="3.2" fill="#1d4ed8"/>
<circle cx="1126.95" cy="254.63" r="3.2" fill="#1d4ed8"/>
<circle cx="1129.36" cy="600.00" r="3.2" fill="#1d4ed8"/>
<circle cx="1131.77" cy="245.74" r="3.2" fill="#1d4ed8"/>
<circle cx="1134.18" cy="245.74" r="3.2" fill="#1d4ed8"/>
<circle cx="1136.59" cy="246.14" r="3.2" fill="#1d4ed8"/>
<circle cx="1139.00" cy="245.74" r="3.2" fill="#1d4ed8"/>
<circle cx="1141.42" cy="245.74" r="3.2" fill="#1d4ed8"/>
<circle cx="1143.83" cy="245.74" r="3.2" fill="#1d4ed8"/>
<circle cx="1146.24" cy="245.74" r="3.2" fill="#1d4ed8"/>
<circle cx="1148.65" cy="245.74" r="3.2" fill="#1d4ed8"/>
<circle cx="1151.06" cy="240.07" r="3.2" fill="#1d4ed8"/>
<circle cx="1153.47" cy="238.05" r="3.2" fill="#1d4ed8"/>
<circle cx="1155.88" cy="238.05" r="3.2" fill="#1d4ed8"/>
<circle cx="1158.30" cy="227.13" r="3.2" fill="#1d4ed8"/>
<circle cx="1160.71" cy="227.13" r="3.2" fill="#1d4ed8"/>
<circle cx="1163.12" cy="226.32" r="3.2" fill="#1d4ed8"/>
<circle cx="1165.53" cy="227.54" r="3.2" fill="#1d4ed8"/>
<circle cx="1167.94" cy="226.73" r="3.2" fill="#1d4ed8"/>
<circle cx="1170.35" cy="226.32" r="3.2" fill="#1d4ed8"/>
<circle cx="1172.77" cy="227.13" r="3.2" fill="#1d4ed8"/>
<circle cx="1175.18" cy="227.13" r="3.2" fill="#1d4ed8"/>
<circle cx="1177.59" cy="226.73" r="3.2" fill="#1d4ed8"/>
<circle cx="1180.00" cy="226.32" r="3.2" fill="#1d4ed8"/>
<text x="635" y="695" text-anchor="middle" font-size="14" fill="#111" font-family="sans-serif">Date</text>
<text x="24" y="325" text-anchor="middle" font-size="14" fill="#111" transform="rotate(-90 24,325)" font-family="sans-serif">Passed files</text>
</svg>
