<?xml version="1.0" encoding="UTF-8"?>
<svg xmlns="http://www.w3.org/2000/svg" width="1280" height="720" viewBox="0 0 1280 720">
<rect width="100%" height="100%" fill="#ffffff"/>
<text x="640" y="30" text-anchor="middle" font-size="22" font-family="sans-serif">Roast passed files history</text>
<line x1="90" y1="600" x2="1180" y2="600" stroke="#333" stroke-width="1.5"/>
<line x1="90" y1="50" x2="90" y2="600" stroke="#333" stroke-width="1.5"/>
<line x1="90" y1="600.00" x2="1180" y2="600.00" stroke="#e5e7eb" stroke-width="1"/>
<text x="78" y="605.00" text-anchor="end" font-size="12" fill="#111" font-family="sans-serif">0</text>
<line x1="90" y1="397.79" x2="1180" y2="397.79" stroke="#e5e7eb" stroke-width="1"/>
<text x="78" y="402.79" text-anchor="end" font-size="12" fill="#111" font-family="sans-serif">500</text>
<line x1="90" y1="195.59" x2="1180" y2="195.59" stroke="#e5e7eb" stroke-width="1"/>
<text x="78" y="200.59" text-anchor="end" font-size="12" fill="#111" font-family="sans-serif">1000</text>
<line x1="90.00" y1="600" x2="90.00" y2="606" stroke="#333" stroke-width="1"/>
<text x="90.00" y="624" text-anchor="end" font-size="11" fill="#111" transform="rotate(-40 90.00,624)" font-family="sans-serif">2026-02-12</text>
<line x1="225.79" y1="600" x2="225.79" y2="606" stroke="#333" stroke-width="1"/>
<text x="225.79" y="624" text-anchor="end" font-size="11" fill="#111" transform="rotate(-40 225.79,624)" font-family="sans-serif">2026-02-17</text>
<line x1="361.58" y1="600" x2="361.58" y2="606" stroke="#333" stroke-width="1"/>
<text x="361.58" y="624" text-anchor="end" font-size="11" fill="#111" transform="rotate(-40 361.58,624)" font-family="sans-serif">2026-02-20</text>
<line x1="497.37" y1="600" x2="497.37" y2="606" stroke="#333" stroke-width="1"/>
<text x="497.37" y="624" text-anchor="end" font-size="11" fill="#111" transform="rotate(-40 497.37,624)" font-family="sans-serif">2026-02-24</text>
<line x1="633.16" y1="600" x2="633.16" y2="606" stroke="#333" stroke-width="1"/>
<text x="633.16" y="624" text-anchor="end" font-size="11" fill="#111" transform="rotate(-40 633.16,624)" font-family="sans-serif">2026-02-26</text>
<line x1="768.96" y1="600" x2="768.96" y2="606" stroke="#333" stroke-width="1"/>
<text x="768.96" y="624" text-anchor="end" font-size="11" fill="#111" transform="rotate(-40 768.96,624)" font-family="sans-serif">2026-02-28</text>
<line x1="904.75" y1="600" x2="904.75" y2="606" stroke="#333" stroke-width="1"/>
<text x="904.75" y="624" text-anchor="end" font-size="11" fill="#111" transform="rotate(-40 904.75,624)" font-family="sans-serif">2026-03-06</text>
<line x1="1040.54" y1="600" x2="1040.54" y2="606" stroke="#333" stroke-width="1"/>
<text x="1040.54" y="624" text-anchor="end" font-size="11" fill="#111" transform="rotate(-40 1040.54,624)" font-family="sans-serif">2026-03-06</text>
<line x1="1176.33" y1="600" x2="1176.33" y2="606" stroke="#333" stroke-width="1"/>
<text x="1176.33" y="624" text-anchor="end" font-size="11" fill="#111" transform="rotate(-40 1176.33,624)" font-family="sans-serif">2026-03-08</text>
<line x1="1180.00" y1="600" x2="1180.00" y2="606" stroke="#333" stroke-width="1"/>
<text x="1180.00" y="624" text-anchor="end" font-size="11" fill="#111" transform="rotate(-40 1180.00,624)" font-family="sans-serif">2026-03-08</text>
<line x1="90" y1="75.88" x2="1180" y2="75.88" stroke="#dc2626" stroke-width="1.5" stroke-dasharray="8,4"/>
<text x="1184" y="79.88" font-size="12" fill="#dc2626" font-family="sans-serif">Goal: 1296</text>
<polyline fill="none" stroke="#2563eb" stroke-width="3" points="90.00,540.55 93.67,538.53 97.34,536.91 101.01,534.49 104.68,534.49 108.35,533.27 112.02,532.46 115.69,532.87 119.36,532.06 123.03,532.46 126.70,532.06 130.37,568.46 134.04,568.46 137.71,566.43 141.38,545.00 145.05,545.00 148.72,544.19 152.39,543.79 156.06,543.79 159.73,543.38 163.40,541.76 167.07,541.36 170.74,540.96 174.41,540.96 178.08,539.34 181.75,539.34 185.42,556.73 189.09,556.73 192.76,555.51 196.43,551.07 200.10,538.93 203.77,538.93 207.44,538.93 211.11,538.12 214.78,536.91 218.45,536.91 222.12,536.51 225.79,536.51 229.46,556.73 233.13,556.73 236.80,556.73 240.47,556.73 244.14,535.29 247.81,535.29 251.48,535.29 255.15,535.29 258.82,534.49 262.49,534.08 266.16,533.68 269.83,532.87 273.50,532.06 277.17,532.06 280.84,531.25 284.51,530.85 288.18,530.44 291.85,530.04 295.52,530.04 299.19,529.23 302.86,529.23 306.53,529.23 310.20,528.42 313.87,528.42 317.54,527.61 321.21,527.21 324.88,526.80 328.55,526.40 332.22,525.18 335.89,523.57 339.56,523.57 343.23,523.16 346.90,522.76 350.57,522.35 354.24,521.54 357.91,519.52 361.58,517.50 365.25,517.50 368.92,517.50 372.59,517.50 376.26,517.50 379.93,517.50 383.60,517.10 387.27,516.69 390.94,515.48 394.61,515.07 398.28,514.67 401.95,513.86 405.62,514.26 409.29,512.24 412.96,511.84 416.63,511.84 420.30,511.03 423.97,509.82 427.64,507.79 431.31,506.99 434.98,506.58 438.65,509.41 442.32,509.01 445.99,504.96 449.66,504.56 453.33,504.15 457.00,504.56 460.67,503.75 464.34,503.75 468.01,503.35 471.68,499.30 475.35,496.47 479.02,490.00 482.69,484.34 486.36,481.10 490.03,480.29 493.70,480.70 497.37,460.88 501.04,459.26 504.71,458.05 508.38,456.03 512.05,456.03 515.72,454.41 519.39,450.77 523.06,444.30 526.73,443.90 530.40,600.00 534.07,441.88 537.74,440.66 541.41,439.45 545.08,439.04 548.75,438.64 552.42,437.83 556.09,436.62 559.76,436.62 563.43,434.60 567.10,432.17 570.77,429.34 574.44,428.93 578.11,428.53 581.78,427.72 585.45,426.91 589.12,426.10 592.79,426.10 596.46,426.10 600.13,419.63 603.80,419.23 607.47,418.42 611.14,418.01 614.81,417.61 618.48,417.61 622.15,417.61 625.82,417.21 629.49,417.21 633.16,413.57 636.84,411.95 640.51,412.76 644.18,410.74 647.85,410.74 651.52,410.33 655.19,410.33 658.86,410.33 662.53,409.93 666.20,409.93 669.87,409.93 673.54,409.52 677.21,409.52 680.88,409.12 684.55,409.52 688.22,409.12 691.89,407.50 695.56,407.10 699.23,403.05 702.90,399.82 706.57,400.22 710.24,400.62 713.91,400.62 717.58,399.41 721.25,392.94 724.92,391.32 728.59,389.30 732.26,389.30 735.93,388.49 739.60,375.15 743.27,374.74 746.94,374.74 750.61,374.74 754.28,374.74 757.95,374.34 761.62,374.34 765.29,374.34 768.96,374.34 772.63,374.34 776.30,373.93 779.97,373.12 783.64,372.72 787.31,373.53 790.98,435.81 794.65,372.32 798.32,372.72 801.99,371.91 805.66,371.91 809.33,372.32 813.00,371.10 816.67,369.89 820.34,369.89 824.01,369.89 827.68,369.49 831.35,369.89 835.02,369.08 838.69,368.68 842.36,368.27 846.03,367.87 849.70,367.06 853.37,367.46 857.04,367.06 860.71,366.25 864.38,368.27 868.05,368.68 871.72,368.68 875.39,368.27 879.06,369.08 882.73,367.87 886.40,367.46 890.07,367.06 893.74,360.18 897.41,359.78 901.08,359.38 904.75,356.95 908.42,357.35 912.09,357.76 915.76,355.33 919.43,355.74 923.10,357.35 926.77,355.33 930.44,356.14 934.11,355.74 937.78,356.14 941.45,354.12 945.12,354.93 948.79,356.14 952.46,354.52 956.13,353.71 959.80,354.12 963.47,354.93 967.14,352.90 970.81,353.71 974.48,353.31 978.15,353.31 981.82,354.52 985.49,352.90 989.16,352.50 992.83,352.50 996.50,353.31 1000.17,352.50 1003.84,353.71 1007.51,354.12 1011.18,352.50 1014.85,352.90 1018.52,352.50 1022.19,352.10 1025.86,351.69 1029.53,352.10 1033.20,354.12 1036.87,352.50 1040.54,352.10 1044.21,352.10 1047.88,349.67 1051.55,349.67 1055.22,350.88 1058.89,351.29 1062.56,350.48 1066.23,352.10 1069.90,350.48 1073.57,350.48 1077.24,350.48 1080.91,350.07 1084.58,348.46 1088.25,351.29 1091.92,349.67 1095.59,351.29 1099.26,349.67 1102.93,348.86 1106.60,348.46 1110.27,348.46 1113.94,347.24 1117.61,348.86 1121.28,346.84 1124.95,348.46 1128.62,348.86 1132.29,346.84 1135.96,349.26 1139.63,348.05 1143.30,349.26 1146.97,349.26 1150.64,350.48 1154.31,352.90 1157.98,349.67 1161.65,348.46 1165.32,345.62 1168.99,344.82 1172.66,344.41 1176.33,342.39 1180.00,341.18"/>
<circle cx="90.00" cy="540.55" r="3.2" fill="#1d4ed8"/>
<circle cx="93.67" cy="538.53" r="3.2" fill="#1d4ed8"/>
<circle cx="97.34" cy="536.91" r="3.2" fill="#1d4ed8"/>
<circle cx="101.01" cy="534.49" r="3.2" fill="#1d4ed8"/>
<circle cx="104.68" cy="534.49" r="3.2" fill="#1d4ed8"/>
<circle cx="108.35" cy="533.27" r="3.2" fill="#1d4ed8"/>
<circle cx="112.02" cy="532.46" r="3.2" fill="#1d4ed8"/>
<circle cx="115.69" cy="532.87" r="3.2" fill="#1d4ed8"/>
<circle cx="119.36" cy="532.06" r="3.2" fill="#1d4ed8"/>
<circle cx="123.03" cy="532.46" r="3.2" fill="#1d4ed8"/>
<circle cx="126.70" cy="532.06" r="3.2" fill="#1d4ed8"/>
<circle cx="130.37" cy="568.46" r="3.2" fill="#1d4ed8"/>
<circle cx="134.04" cy="568.46" r="3.2" fill="#1d4ed8"/>
<circle cx="137.71" cy="566.43" r="3.2" fill="#1d4ed8"/>
<circle cx="141.38" cy="545.00" r="3.2" fill="#1d4ed8"/>
<circle cx="145.05" cy="545.00" r="3.2" fill="#1d4ed8"/>
<circle cx="148.72" cy="544.19" r="3.2" fill="#1d4ed8"/>
<circle cx="152.39" cy="543.79" r="3.2" fill="#1d4ed8"/>
<circle cx="156.06" cy="543.79" r="3.2" fill="#1d4ed8"/>
<circle cx="159.73" cy="543.38" r="3.2" fill="#1d4ed8"/>
<circle cx="163.40" cy="541.76" r="3.2" fill="#1d4ed8"/>
<circle cx="167.07" cy="541.36" r="3.2" fill="#1d4ed8"/>
<circle cx="170.74" cy="540.96" r="3.2" fill="#1d4ed8"/>
<circle cx="174.41" cy="540.96" r="3.2" fill="#1d4ed8"/>
<circle cx="178.08" cy="539.34" r="3.2" fill="#1d4ed8"/>
<circle cx="181.75" cy="539.34" r="3.2" fill="#1d4ed8"/>
<circle cx="185.42" cy="556.73" r="3.2" fill="#1d4ed8"/>
<circle cx="189.09" cy="556.73" r="3.2" fill="#1d4ed8"/>
<circle cx="192.76" cy="555.51" r="3.2" fill="#1d4ed8"/>
<circle cx="196.43" cy="551.07" r="3.2" fill="#1d4ed8"/>
<circle cx="200.10" cy="538.93" r="3.2" fill="#1d4ed8"/>
<circle cx="203.77" cy="538.93" r="3.2" fill="#1d4ed8"/>
<circle cx="207.44" cy="538.93" r="3.2" fill="#1d4ed8"/>
<circle cx="211.11" cy="538.12" r="3.2" fill="#1d4ed8"/>
<circle cx="214.78" cy="536.91" r="3.2" fill="#1d4ed8"/>
<circle cx="218.45" cy="536.91" r="3.2" fill="#1d4ed8"/>
<circle cx="222.12" cy="536.51" r="3.2" fill="#1d4ed8"/>
<circle cx="225.79" cy="536.51" r="3.2" fill="#1d4ed8"/>
<circle cx="229.46" cy="556.73" r="3.2" fill="#1d4ed8"/>
<circle cx="233.13" cy="556.73" r="3.2" fill="#1d4ed8"/>
<circle cx="236.80" cy="556.73" r="3.2" fill="#1d4ed8"/>
<circle cx="240.47" cy="556.73" r="3.2" fill="#1d4ed8"/>
<circle cx="244.14" cy="535.29" r="3.2" fill="#1d4ed8"/>
<circle cx="247.81" cy="535.29" r="3.2" fill="#1d4ed8"/>
<circle cx="251.48" cy="535.29" r="3.2" fill="#1d4ed8"/>
<circle cx="255.15" cy="535.29" r="3.2" fill="#1d4ed8"/>
<circle cx="258.82" cy="534.49" r="3.2" fill="#1d4ed8"/>
<circle cx="262.49" cy="534.08" r="3.2" fill="#1d4ed8"/>
<circle cx="266.16" cy="533.68" r="3.2" fill="#1d4ed8"/>
<circle cx="269.83" cy="532.87" r="3.2" fill="#1d4ed8"/>
<circle cx="273.50" cy="532.06" r="3.2" fill="#1d4ed8"/>
<circle cx="277.17" cy="532.06" r="3.2" fill="#1d4ed8"/>
<circle cx="280.84" cy="531.25" r="3.2" fill="#1d4ed8"/>
<circle cx="284.51" cy="530.85" r="3.2" fill="#1d4ed8"/>
<circle cx="288.18" cy="530.44" r="3.2" fill="#1d4ed8"/>
<circle cx="291.85" cy="530.04" r="3.2" fill="#1d4ed8"/>
<circle cx="295.52" cy="530.04" r="3.2" fill="#1d4ed8"/>
<circle cx="299.19" cy="529.23" r="3.2" fill="#1d4ed8"/>
<circle cx="302.86" cy="529.23" r="3.2" fill="#1d4ed8"/>
<circle cx="306.53" cy="529.23" r="3.2" fill="#1d4ed8"/>
<circle cx="310.20" cy="528.42" r="3.2" fill="#1d4ed8"/>
<circle cx="313.87" cy="528.42" r="3.2" fill="#1d4ed8"/>
<circle cx="317.54" cy="527.61" r="3.2" fill="#1d4ed8"/>
<circle cx="321.21" cy="527.21" r="3.2" fill="#1d4ed8"/>
<circle cx="324.88" cy="526.80" r="3.2" fill="#1d4ed8"/>
<circle cx="328.55" cy="526.40" r="3.2" fill="#1d4ed8"/>
<circle cx="332.22" cy="525.18" r="3.2" fill="#1d4ed8"/>
<circle cx="335.89" cy="523.57" r="3.2" fill="#1d4ed8"/>
<circle cx="339.56" cy="523.57" r="3.2" fill="#1d4ed8"/>
<circle cx="343.23" cy="523.16" r="3.2" fill="#1d4ed8"/>
<circle cx="346.90" cy="522.76" r="3.2" fill="#1d4ed8"/>
<circle cx="350.57" cy="522.35" r="3.2" fill="#1d4ed8"/>
<circle cx="354.24" cy="521.54" r="3.2" fill="#1d4ed8"/>
<circle cx="357.91" cy="519.52" r="3.2" fill="#1d4ed8"/>
<circle cx="361.58" cy="517.50" r="3.2" fill="#1d4ed8"/>
<circle cx="365.25" cy="517.50" r="3.2" fill="#1d4ed8"/>
<circle cx="368.92" cy="517.50" r="3.2" fill="#1d4ed8"/>
<circle cx="372.59" cy="517.50" r="3.2" fill="#1d4ed8"/>
<circle cx="376.26" cy="517.50" r="3.2" fill="#1d4ed8"/>
<circle cx="379.93" cy="517.50" r="3.2" fill="#1d4ed8"/>
<circle cx="383.60" cy="517.10" r="3.2" fill="#1d4ed8"/>
<circle cx="387.27" cy="516.69" r="3.2" fill="#1d4ed8"/>
<circle cx="390.94" cy="515.48" r="3.2" fill="#1d4ed8"/>
<circle cx="394.61" cy="515.07" r="3.2" fill="#1d4ed8"/>
<circle cx="398.28" cy="514.67" r="3.2" fill="#1d4ed8"/>
<circle cx="401.95" cy="513.86" r="3.2" fill="#1d4ed8"/>
<circle cx="405.62" cy="514.26" r="3.2" fill="#1d4ed8"/>
<circle cx="409.29" cy="512.24" r="3.2" fill="#1d4ed8"/>
<circle cx="412.96" cy="511.84" r="3.2" fill="#1d4ed8"/>
<circle cx="416.63" cy="511.84" r="3.2" fill="#1d4ed8"/>
<circle cx="420.30" cy="511.03" r="3.2" fill="#1d4ed8"/>
<circle cx="423.97" cy="509.82" r="3.2" fill="#1d4ed8"/>
<circle cx="427.64" cy="507.79" r="3.2" fill="#1d4ed8"/>
<circle cx="431.31" cy="506.99" r="3.2" fill="#1d4ed8"/>
<circle cx="434.98" cy="506.58" r="3.2" fill="#1d4ed8"/>
<circle cx="438.65" cy="509.41" r="3.2" fill="#1d4ed8"/>
<circle cx="442.32" cy="509.01" r="3.2" fill="#1d4ed8"/>
<circle cx="445.99" cy="504.96" r="3.2" fill="#1d4ed8"/>
<circle cx="449.66" cy="504.56" r="3.2" fill="#1d4ed8"/>
<circle cx="453.33" cy="504.15" r="3.2" fill="#1d4ed8"/>
<circle cx="457.00" cy="504.56" r="3.2" fill="#1d4ed8"/>
<circle cx="460.67" cy="503.75" r="3.2" fill="#1d4ed8"/>
<circle cx="464.34" cy="503.75" r="3.2" fill="#1d4ed8"/>
<circle cx="468.01" cy="503.35" r="3.2" fill="#1d4ed8"/>
<circle cx="471.68" cy="499.30" r="3.2" fill="#1d4ed8"/>
<circle cx="475.35" cy="496.47" r="3.2" fill="#1d4ed8"/>
<circle cx="479.02" cy="490.00" r="3.2" fill="#1d4ed8"/>
<circle cx="482.69" cy="484.34" r="3.2" fill="#1d4ed8"/>
<circle cx="486.36" cy="481.10" r="3.2" fill="#1d4ed8"/>
<circle cx="490.03" cy="480.29" r="3.2" fill="#1d4ed8"/>
<circle cx="493.70" cy="480.70" r="3.2" fill="#1d4ed8"/>
<circle cx="497.37" cy="460.88" r="3.2" fill="#1d4ed8"/>
<circle cx="501.04" cy="459.26" r="3.2" fill="#1d4ed8"/>
<circle cx="504.71" cy="458.05" r="3.2" fill="#1d4ed8"/>
<circle cx="508.38" cy="456.03" r="3.2" fill="#1d4ed8"/>
<circle cx="512.05" cy="456.03" r="3.2" fill="#1d4ed8"/>
<circle cx="515.72" cy="454.41" r="3.2" fill="#1d4ed8"/>
<circle cx="519.39" cy="450.77" r="3.2" fill="#1d4ed8"/>
<circle cx="523.06" cy="444.30" r="3.2" fill="#1d4ed8"/>
<circle cx="526.73" cy="443.90" r="3.2" fill="#1d4ed8"/>
<circle cx="530.40" cy="600.00" r="3.2" fill="#1d4ed8"/>
<circle cx="534.07" cy="441.88" r="3.2" fill="#1d4ed8"/>
<circle cx="537.74" cy="440.66" r="3.2" fill="#1d4ed8"/>
<circle cx="541.41" cy="439.45" r="3.2" fill="#1d4ed8"/>
<circle cx="545.08" cy="439.04" r="3.2" fill="#1d4ed8"/>
<circle cx="548.75" cy="438.64" r="3.2" fill="#1d4ed8"/>
<circle cx="552.42" cy="437.83" r="3.2" fill="#1d4ed8"/>
<circle cx="556.09" cy="436.62" r="3.2" fill="#1d4ed8"/>
<circle cx="559.76" cy="436.62" r="3.2" fill="#1d4ed8"/>
<circle cx="563.43" cy="434.60" r="3.2" fill="#1d4ed8"/>
<circle cx="567.10" cy="432.17" r="3.2" fill="#1d4ed8"/>
<circle cx="570.77" cy="429.34" r="3.2" fill="#1d4ed8"/>
<circle cx="574.44" cy="428.93" r="3.2" fill="#1d4ed8"/>
<circle cx="578.11" cy="428.53" r="3.2" fill="#1d4ed8"/>
<circle cx="581.78" cy="427.72" r="3.2" fill="#1d4ed8"/>
<circle cx="585.45" cy="426.91" r="3.2" fill="#1d4ed8"/>
<circle cx="589.12" cy="426.10" r="3.2" fill="#1d4ed8"/>
<circle cx="592.79" cy="426.10" r="3.2" fill="#1d4ed8"/>
<circle cx="596.46" cy="426.10" r="3.2" fill="#1d4ed8"/>
<circle cx="600.13" cy="419.63" r="3.2" fill="#1d4ed8"/>
<circle cx="603.80" cy="419.23" r="3.2" fill="#1d4ed8"/>
<circle cx="607.47" cy="418.42" r="3.2" fill="#1d4ed8"/>
<circle cx="611.14" cy="418.01" r="3.2" fill="#1d4ed8"/>
<circle cx="614.81" cy="417.61" r="3.2" fill="#1d4ed8"/>
<circle cx="618.48" cy="417.61" r="3.2" fill="#1d4ed8"/>
<circle cx="622.15" cy="417.61" r="3.2" fill="#1d4ed8"/>
<circle cx="625.82" cy="417.21" r="3.2" fill="#1d4ed8"/>
<circle cx="629.49" cy="417.21" r="3.2" fill="#1d4ed8"/>
<circle cx="633.16" cy="413.57" r="3.2" fill="#1d4ed8"/>
<circle cx="636.84" cy="411.95" r="3.2" fill="#1d4ed8"/>
<circle cx="640.51" cy="412.76" r="3.2" fill="#1d4ed8"/>
<circle cx="644.18" cy="410.74" r="3.2" fill="#1d4ed8"/>
<circle cx="647.85" cy="410.74" r="3.2" fill="#1d4ed8"/>
<circle cx="651.52" cy="410.33" r="3.2" fill="#1d4ed8"/>
<circle cx="655.19" cy="410.33" r="3.2" fill="#1d4ed8"/>
<circle cx="658.86" cy="410.33" r="3.2" fill="#1d4ed8"/>
<circle cx="662.53" cy="409.93" r="3.2" fill="#1d4ed8"/>
<circle cx="666.20" cy="409.93" r="3.2" fill="#1d4ed8"/>
<circle cx="669.87" cy="409.93" r="3.2" fill="#1d4ed8"/>
<circle cx="673.54" cy="409.52" r="3.2" fill="#1d4ed8"/>
<circle cx="677.21" cy="409.52" r="3.2" fill="#1d4ed8"/>
<circle cx="680.88" cy="409.12" r="3.2" fill="#1d4ed8"/>
<circle cx="684.55" cy="409.52" r="3.2" fill="#1d4ed8"/>
<circle cx="688.22" cy="409.12" r="3.2" fill="#1d4ed8"/>
<circle cx="691.89" cy="407.50" r="3.2" fill="#1d4ed8"/>
<circle cx="695.56" cy="407.10" r="3.2" fill="#1d4ed8"/>
<circle cx="699.23" cy="403.05" r="3.2" fill="#1d4ed8"/>
<circle cx="702.90" cy="399.82" r="3.2" fill="#1d4ed8"/>
<circle cx="706.57" cy="400.22" r="3.2" fill="#1d4ed8"/>
<circle cx="710.24" cy="400.62" r="3.2" fill="#1d4ed8"/>
<circle cx="713.91" cy="400.62" r="3.2" fill="#1d4ed8"/>
<circle cx="717.58" cy="399.41" r="3.2" fill="#1d4ed8"/>
<circle cx="721.25" cy="392.94" r="3.2" fill="#1d4ed8"/>
<circle cx="724.92" cy="391.32" r="3.2" fill="#1d4ed8"/>
<circle cx="728.59" cy="389.30" r="3.2" fill="#1d4ed8"/>
<circle cx="732.26" cy="389.30" r="3.2" fill="#1d4ed8"/>
<circle cx="735.93" cy="388.49" r="3.2" fill="#1d4ed8"/>
<circle cx="739.60" cy="375.15" r="3.2" fill="#1d4ed8"/>
<circle cx="743.27" cy="374.74" r="3.2" fill="#1d4ed8"/>
<circle cx="746.94" cy="374.74" r="3.2" fill="#1d4ed8"/>
<circle cx="750.61" cy="374.74" r="3.2" fill="#1d4ed8"/>
<circle cx="754.28" cy="374.74" r="3.2" fill="#1d4ed8"/>
<circle cx="757.95" cy="374.34" r="3.2" fill="#1d4ed8"/>
<circle cx="761.62" cy="374.34" r="3.2" fill="#1d4ed8"/>
<circle cx="765.29" cy="374.34" r="3.2" fill="#1d4ed8"/>
<circle cx="768.96" cy="374.34" r="3.2" fill="#1d4ed8"/>
<circle cx="772.63" cy="374.34" r="3.2" fill="#1d4ed8"/>
<circle cx="776.30" cy="373.93" r="3.2" fill="#1d4ed8"/>
<circle cx="779.97" cy="373.12" r="3.2" fill="#1d4ed8"/>
<circle cx="783.64" cy="372.72" r="3.2" fill="#1d4ed8"/>
<circle cx="787.31" cy="373.53" r="3.2" fill="#1d4ed8"/>
<circle cx="790.98" cy="435.81" r="3.2" fill="#1d4ed8"/>
<circle cx="794.65" cy="372.32" r="3.2" fill="#1d4ed8"/>
<circle cx="798.32" cy="372.72" r="3.2" fill="#1d4ed8"/>
<circle cx="801.99" cy="371.91" r="3.2" fill="#1d4ed8"/>
<circle cx="805.66" cy="371.91" r="3.2" fill="#1d4ed8"/>
<circle cx="809.33" cy="372.32" r="3.2" fill="#1d4ed8"/>
<circle cx="813.00" cy="371.10" r="3.2" fill="#1d4ed8"/>
<circle cx="816.67" cy="369.89" r="3.2" fill="#1d4ed8"/>
<circle cx="820.34" cy="369.89" r="3.2" fill="#1d4ed8"/>
<circle cx="824.01" cy="369.89" r="3.2" fill="#1d4ed8"/>
<circle cx="827.68" cy="369.49" r="3.2" fill="#1d4ed8"/>
<circle cx="831.35" cy="369.89" r="3.2" fill="#1d4ed8"/>
<circle cx="835.02" cy="369.08" r="3.2" fill="#1d4ed8"/>
<circle cx="838.69" cy="368.68" r="3.2" fill="#1d4ed8"/>
<circle cx="842.36" cy="368.27" r="3.2" fill="#1d4ed8"/>
<circle cx="846.03" cy="367.87" r="3.2" fill="#1d4ed8"/>
<circle cx="849.70" cy="367.06" r="3.2" fill="#1d4ed8"/>
<circle cx="853.37" cy="367.46" r="3.2" fill="#1d4ed8"/>
<circle cx="857.04" cy="367.06" r="3.2" fill="#1d4ed8"/>
<circle cx="860.71" cy="366.25" r="3.2" fill="#1d4ed8"/>
<circle cx="864.38" cy="368.27" r="3.2" fill="#1d4ed8"/>
<circle cx="868.05" cy="368.68" r="3.2" fill="#1d4ed8"/>
<circle cx="871.72" cy="368.68" r="3.2" fill="#1d4ed8"/>
<circle cx="875.39" cy="368.27" r="3.2" fill="#1d4ed8"/>
<circle cx="879.06" cy="369.08" r="3.2" fill="#1d4ed8"/>
<circle cx="882.73" cy="367.87" r="3.2" fill="#1d4ed8"/>
<circle cx="886.40" cy="367.46" r="3.2" fill="#1d4ed8"/>
<circle cx="890.07" cy="367.06" r="3.2" fill="#1d4ed8"/>
<circle cx="893.74" cy="360.18" r="3.2" fill="#1d4ed8"/>
<circle cx="897.41" cy="359.78" r="3.2" fill="#1d4ed8"/>
<circle cx="901.08" cy="359.38" r="3.2" fill="#1d4ed8"/>
<circle cx="904.75" cy="356.95" r="3.2" fill="#1d4ed8"/>
<circle cx="908.42" cy="357.35" r="3.2" fill="#1d4ed8"/>
<circle cx="912.09" cy="357.76" r="3.2" fill="#1d4ed8"/>
<circle cx="915.76" cy="355.33" r="3.2" fill="#1d4ed8"/>
<circle cx="919.43" cy="355.74" r="3.2" fill="#1d4ed8"/>
<circle cx="923.10" cy="357.35" r="3.2" fill="#1d4ed8"/>
<circle cx="926.77" cy="355.33" r="3.2" fill="#1d4ed8"/>
<circle cx="930.44" cy="356.14" r="3.2" fill="#1d4ed8"/>
<circle cx="934.11" cy="355.74" r="3.2" fill="#1d4ed8"/>
<circle cx="937.78" cy="356.14" r="3.2" fill="#1d4ed8"/>
<circle cx="941.45" cy="354.12" r="3.2" fill="#1d4ed8"/>
<circle cx="945.12" cy="354.93" r="3.2" fill="#1d4ed8"/>
<circle cx="948.79" cy="356.14" r="3.2" fill="#1d4ed8"/>
<circle cx="952.46" cy="354.52" r="3.2" fill="#1d4ed8"/>
<circle cx="956.13" cy="353.71" r="3.2" fill="#1d4ed8"/>
<circle cx="959.80" cy="354.12" r="3.2" fill="#1d4ed8"/>
<circle cx="963.47" cy="354.93" r="3.2" fill="#1d4ed8"/>
<circle cx="967.14" cy="352.90" r="3.2" fill="#1d4ed8"/>
<circle cx="970.81" cy="353.71" r="3.2" fill="#1d4ed8"/>
<circle cx="974.48" cy="353.31" r="3.2" fill="#1d4ed8"/>
<circle cx="978.15" cy="353.31" r="3.2" fill="#1d4ed8"/>
<circle cx="981.82" cy="354.52" r="3.2" fill="#1d4ed8"/>
<circle cx="985.49" cy="352.90" r="3.2" fill="#1d4ed8"/>
<circle cx="989.16" cy="352.50" r="3.2" fill="#1d4ed8"/>
<circle cx="992.83" cy="352.50" r="3.2" fill="#1d4ed8"/>
<circle cx="996.50" cy="353.31" r="3.2" fill="#1d4ed8"/>
<circle cx="1000.17" cy="352.50" r="3.2" fill="#1d4ed8"/>
<circle cx="1003.84" cy="353.71" r="3.2" fill="#1d4ed8"/>
<circle cx="1007.51" cy="354.12" r="3.2" fill="#1d4ed8"/>
<circle cx="1011.18" cy="352.50" r="3.2" fill="#1d4ed8"/>
<circle cx="1014.85" cy="352.90" r="3.2" fill="#1d4ed8"/>
<circle cx="1018.52" cy="352.50" r="3.2" fill="#1d4ed8"/>
<circle cx="1022.19" cy="352.10" r="3.2" fill="#1d4ed8"/>
<circle cx="1025.86" cy="351.69" r="3.2" fill="#1d4ed8"/>
<circle cx="1029.53" cy="352.10" r="3.2" fill="#1d4ed8"/>
<circle cx="1033.20" cy="354.12" r="3.2" fill="#1d4ed8"/>
<circle cx="1036.87" cy="352.50" r="3.2" fill="#1d4ed8"/>
<circle cx="1040.54" cy="352.10" r="3.2" fill="#1d4ed8"/>
<circle cx="1044.21" cy="352.10" r="3.2" fill="#1d4ed8"/>
<circle cx="1047.88" cy="349.67" r="3.2" fill="#1d4ed8"/>
<circle cx="1051.55" cy="349.67" r="3.2" fill="#1d4ed8"/>
<circle cx="1055.22" cy="350.88" r="3.2" fill="#1d4ed8"/>
<circle cx="1058.89" cy="351.29" r="3.2" fill="#1d4ed8"/>
<circle cx="1062.56" cy="350.48" r="3.2" fill="#1d4ed8"/>
<circle cx="1066.23" cy="352.10" r="3.2" fill="#1d4ed8"/>
<circle cx="1069.90" cy="350.48" r="3.2" fill="#1d4ed8"/>
<circle cx="1073.57" cy="350.48" r="3.2" fill="#1d4ed8"/>
<circle cx="1077.24" cy="350.48" r="3.2" fill="#1d4ed8"/>
<circle cx="1080.91" cy="350.07" r="3.2" fill="#1d4ed8"/>
<circle cx="1084.58" cy="348.46" r="3.2" fill="#1d4ed8"/>
<circle cx="1088.25" cy="351.29" r="3.2" fill="#1d4ed8"/>
<circle cx="1091.92" cy="349.67" r="3.2" fill="#1d4ed8"/>
<circle cx="1095.59" cy="351.29" r="3.2" fill="#1d4ed8"/>
<circle cx="1099.26" cy="349.67" r="3.2" fill="#1d4ed8"/>
<circle cx="1102.93" cy="348.86" r="3.2" fill="#1d4ed8"/>
<circle cx="1106.60" cy="348.46" r="3.2" fill="#1d4ed8"/>
<circle cx="1110.27" cy="348.46" r="3.2" fill="#1d4ed8"/>
<circle cx="1113.94" cy="347.24" r="3.2" fill="#1d4ed8"/>
<circle cx="1117.61" cy="348.86" r="3.2" fill="#1d4ed8"/>
<circle cx="1121.28" cy="346.84" r="3.2" fill="#1d4ed8"/>
<circle cx="1124.95" cy="348.46" r="3.2" fill="#1d4ed8"/>
<circle cx="1128.62" cy="348.86" r="3.2" fill="#1d4ed8"/>
<circle cx="1132.29" cy="346.84" r="3.2" fill="#1d4ed8"/>
<circle cx="1135.96" cy="349.26" r="3.2" fill="#1d4ed8"/>
<circle cx="1139.63" cy="348.05" r="3.2" fill="#1d4ed8"/>
<circle cx="1143.30" cy="349.26" r="3.2" fill="#1d4ed8"/>
<circle cx="1146.97" cy="349.26" r="3.2" fill="#1d4ed8"/>
<circle cx="1150.64" cy="350.48" r="3.2" fill="#1d4ed8"/>
<circle cx="1154.31" cy="352.90" r="3.2" fill="#1d4ed8"/>
<circle cx="1157.98" cy="349.67" r="3.2" fill="#1d4ed8"/>
<circle cx="1161.65" cy="348.46" r="3.2" fill="#1d4ed8"/>
<circle cx="1165.32" cy="345.62" r="3.2" fill="#1d4ed8"/>
<circle cx="1168.99" cy="344.82" r="3.2" fill="#1d4ed8"/>
<circle cx="1172.66" cy="344.41" r="3.2" fill="#1d4ed8"/>
<circle cx="1176.33" cy="342.39" r="3.2" fill="#1d4ed8"/>
<circle cx="1180.00" cy="341.18" r="3.2" fill="#1d4ed8"/>
<text x="635" y="695" text-anchor="middle" font-size="14" fill="#111" font-family="sans-serif">Date</text>
<text x="24" y="325" text-anchor="middle" font-size="14" fill="#111" transform="rotate(-90 24,325)" font-family="sans-serif">Passed files</text>
</svg>
