<?xml version="1.0" encoding="UTF-8"?>
<svg xmlns="http://www.w3.org/2000/svg" width="1280" height="720" viewBox="0 0 1280 720">
<rect width="100%" height="100%" fill="#ffffff"/>
<text x="640" y="30" text-anchor="middle" font-size="22" font-family="sans-serif">Roast passed files history</text>
<line x1="90" y1="600" x2="1180" y2="600" stroke="#333" stroke-width="1.5"/>
<line x1="90" y1="50" x2="90" y2="600" stroke="#333" stroke-width="1.5"/>
<line x1="90" y1="600.00" x2="1180" y2="600.00" stroke="#e5e7eb" stroke-width="1"/>
<text x="78" y="605.00" text-anchor="end" font-size="12" fill="#111" font-family="sans-serif">0</text>
<line x1="90" y1="397.79" x2="1180" y2="397.79" stroke="#e5e7eb" stroke-width="1"/>
<text x="78" y="402.79" text-anchor="end" font-size="12" fill="#111" font-family="sans-serif">500</text>
<line x1="90" y1="195.59" x2="1180" y2="195.59" stroke="#e5e7eb" stroke-width="1"/>
<text x="78" y="200.59" text-anchor="end" font-size="12" fill="#111" font-family="sans-serif">1000</text>
<line x1="90.00" y1="600" x2="90.00" y2="606" stroke="#333" stroke-width="1"/>
<text x="90.00" y="624" text-anchor="end" font-size="11" fill="#111" transform="rotate(-40 90.00,624)" font-family="sans-serif">2026-02-12</text>
<line x1="225.78" y1="600" x2="225.78" y2="606" stroke="#333" stroke-width="1"/>
<text x="225.78" y="624" text-anchor="end" font-size="11" fill="#111" transform="rotate(-40 225.78,624)" font-family="sans-serif">2026-02-17</text>
<line x1="361.56" y1="600" x2="361.56" y2="606" stroke="#333" stroke-width="1"/>
<text x="361.56" y="624" text-anchor="end" font-size="11" fill="#111" transform="rotate(-40 361.56,624)" font-family="sans-serif">2026-02-20</text>
<line x1="497.34" y1="600" x2="497.34" y2="606" stroke="#333" stroke-width="1"/>
<text x="497.34" y="624" text-anchor="end" font-size="11" fill="#111" transform="rotate(-40 497.34,624)" font-family="sans-serif">2026-02-24</text>
<line x1="633.11" y1="600" x2="633.11" y2="606" stroke="#333" stroke-width="1"/>
<text x="633.11" y="624" text-anchor="end" font-size="11" fill="#111" transform="rotate(-40 633.11,624)" font-family="sans-serif">2026-02-26</text>
<line x1="768.89" y1="600" x2="768.89" y2="606" stroke="#333" stroke-width="1"/>
<text x="768.89" y="624" text-anchor="end" font-size="11" fill="#111" transform="rotate(-40 768.89,624)" font-family="sans-serif">2026-02-28</text>
<line x1="904.67" y1="600" x2="904.67" y2="606" stroke="#333" stroke-width="1"/>
<text x="904.67" y="624" text-anchor="end" font-size="11" fill="#111" transform="rotate(-40 904.67,624)" font-family="sans-serif">2026-03-04</text>
<line x1="1040.45" y1="600" x2="1040.45" y2="606" stroke="#333" stroke-width="1"/>
<text x="1040.45" y="624" text-anchor="end" font-size="11" fill="#111" transform="rotate(-40 1040.45,624)" font-family="sans-serif">2026-03-06</text>
<line x1="1176.23" y1="600" x2="1176.23" y2="606" stroke="#333" stroke-width="1"/>
<text x="1176.23" y="624" text-anchor="end" font-size="11" fill="#111" transform="rotate(-40 1176.23,624)" font-family="sans-serif">2026-03-07</text>
<line x1="1180.00" y1="600" x2="1180.00" y2="606" stroke="#333" stroke-width="1"/>
<text x="1180.00" y="624" text-anchor="end" font-size="11" fill="#111" transform="rotate(-40 1180.00,624)" font-family="sans-serif">2026-03-07</text>
<line x1="90" y1="75.88" x2="1180" y2="75.88" stroke="#dc2626" stroke-width="1.5" stroke-dasharray="8,4"/>
<text x="1184" y="79.88" font-size="12" fill="#dc2626" font-family="sans-serif">Goal: 1296</text>
<polyline fill="none" stroke="#2563eb" stroke-width="3" points="90.00,540.55 93.77,538.53 97.54,536.91 101.31,534.49 105.09,534.49 108.86,533.27 112.63,532.46 116.40,532.87 120.17,532.06 123.94,532.46 127.72,532.06 131.49,568.46 135.26,568.46 139.03,566.43 142.80,545.00 146.57,545.00 150.35,544.19 154.12,543.79 157.89,543.79 161.66,543.38 165.43,541.76 169.20,541.36 172.98,540.96 176.75,540.96 180.52,539.34 184.29,539.34 188.06,556.73 191.83,556.73 195.61,555.51 199.38,551.07 203.15,538.93 206.92,538.93 210.69,538.93 214.46,538.12 218.24,536.91 222.01,536.91 225.78,536.51 229.55,536.51 233.32,556.73 237.09,556.73 240.87,556.73 244.64,556.73 248.41,535.29 252.18,535.29 255.95,535.29 259.72,535.29 263.49,534.49 267.27,534.08 271.04,533.68 274.81,532.87 278.58,532.06 282.35,532.06 286.12,531.25 289.90,530.85 293.67,530.44 297.44,530.04 301.21,530.04 304.98,529.23 308.75,529.23 312.53,529.23 316.30,528.42 320.07,528.42 323.84,527.61 327.61,527.21 331.38,526.80 335.16,526.40 338.93,525.18 342.70,523.57 346.47,523.57 350.24,523.16 354.01,522.76 357.79,522.35 361.56,521.54 365.33,519.52 369.10,517.50 372.87,517.50 376.64,517.50 380.42,517.50 384.19,517.50 387.96,517.50 391.73,517.10 395.50,516.69 399.27,515.48 403.04,515.07 406.82,514.67 410.59,513.86 414.36,514.26 418.13,512.24 421.90,511.84 425.67,511.84 429.45,511.03 433.22,509.82 436.99,507.79 440.76,506.99 444.53,506.58 448.30,509.41 452.08,509.01 455.85,504.96 459.62,504.56 463.39,504.15 467.16,504.56 470.93,503.75 474.71,503.75 478.48,503.35 482.25,499.30 486.02,496.47 489.79,490.00 493.56,484.34 497.34,481.10 501.11,480.29 504.88,480.70 508.65,460.88 512.42,459.26 516.19,458.05 519.97,456.03 523.74,456.03 527.51,454.41 531.28,450.77 535.05,444.30 538.82,443.90 542.60,600.00 546.37,441.88 550.14,440.66 553.91,439.45 557.68,439.04 561.45,438.64 565.22,437.83 569.00,436.62 572.77,436.62 576.54,434.60 580.31,432.17 584.08,429.34 587.85,428.93 591.63,428.53 595.40,427.72 599.17,426.91 602.94,426.10 606.71,426.10 610.48,426.10 614.26,419.63 618.03,419.23 621.80,418.42 625.57,418.01 629.34,417.61 633.11,417.61 636.89,417.61 640.66,417.21 644.43,417.21 648.20,413.57 651.97,411.95 655.74,412.76 659.52,410.74 663.29,410.74 667.06,410.33 670.83,410.33 674.60,410.33 678.37,409.93 682.15,409.93 685.92,409.93 689.69,409.52 693.46,409.52 697.23,409.12 701.00,409.52 704.78,409.12 708.55,407.50 712.32,407.10 716.09,403.05 719.86,399.82 723.63,400.22 727.40,400.62 731.18,400.62 734.95,399.41 738.72,392.94 742.49,391.32 746.26,389.30 750.03,389.30 753.81,388.49 757.58,375.15 761.35,374.74 765.12,374.74 768.89,374.74 772.66,374.74 776.44,374.34 780.21,374.34 783.98,374.34 787.75,374.34 791.52,374.34 795.29,373.93 799.07,373.12 802.84,372.72 806.61,373.53 810.38,435.81 814.15,372.32 817.92,372.72 821.70,371.91 825.47,371.91 829.24,372.32 833.01,371.10 836.78,369.89 840.55,369.89 844.33,369.89 848.10,369.49 851.87,369.89 855.64,369.08 859.41,368.68 863.18,368.27 866.96,367.87 870.73,367.06 874.50,367.46 878.27,367.06 882.04,366.25 885.81,368.27 889.58,368.68 893.36,368.68 897.13,368.27 900.90,369.08 904.67,367.87 908.44,367.46 912.21,367.06 915.99,360.18 919.76,359.78 923.53,359.38 927.30,356.95 931.07,357.35 934.84,357.76 938.62,355.33 942.39,355.74 946.16,357.35 949.93,355.33 953.70,356.14 957.47,355.74 961.25,356.14 965.02,354.12 968.79,354.93 972.56,356.14 976.33,354.52 980.10,353.71 983.88,354.12 987.65,354.93 991.42,352.90 995.19,353.71 998.96,353.31 1002.73,353.31 1006.51,354.52 1010.28,352.90 1014.05,352.50 1017.82,352.50 1021.59,353.31 1025.36,352.50 1029.13,353.71 1032.91,354.12 1036.68,352.50 1040.45,352.90 1044.22,352.50 1047.99,352.10 1051.76,351.69 1055.54,352.10 1059.31,354.12 1063.08,352.50 1066.85,352.10 1070.62,352.10 1074.39,349.67 1078.17,349.67 1081.94,350.88 1085.71,351.29 1089.48,350.48 1093.25,352.10 1097.02,350.48 1100.80,350.48 1104.57,350.48 1108.34,350.07 1112.11,348.46 1115.88,351.29 1119.65,349.67 1123.43,351.29 1127.20,349.67 1130.97,348.86 1134.74,348.46 1138.51,348.46 1142.28,347.24 1146.06,348.86 1149.83,346.84 1153.60,348.46 1157.37,348.86 1161.14,346.84 1164.91,349.26 1168.69,348.05 1172.46,349.26 1176.23,349.26 1180.00,350.48"/>
<circle cx="90.00" cy="540.55" r="3.2" fill="#1d4ed8"/>
<circle cx="93.77" cy="538.53" r="3.2" fill="#1d4ed8"/>
<circle cx="97.54" cy="536.91" r="3.2" fill="#1d4ed8"/>
<circle cx="101.31" cy="534.49" r="3.2" fill="#1d4ed8"/>
<circle cx="105.09" cy="534.49" r="3.2" fill="#1d4ed8"/>
<circle cx="108.86" cy="533.27" r="3.2" fill="#1d4ed8"/>
<circle cx="112.63" cy="532.46" r="3.2" fill="#1d4ed8"/>
<circle cx="116.40" cy="532.87" r="3.2" fill="#1d4ed8"/>
<circle cx="120.17" cy="532.06" r="3.2" fill="#1d4ed8"/>
<circle cx="123.94" cy="532.46" r="3.2" fill="#1d4ed8"/>
<circle cx="127.72" cy="532.06" r="3.2" fill="#1d4ed8"/>
<circle cx="131.49" cy="568.46" r="3.2" fill="#1d4ed8"/>
<circle cx="135.26" cy="568.46" r="3.2" fill="#1d4ed8"/>
<circle cx="139.03" cy="566.43" r="3.2" fill="#1d4ed8"/>
<circle cx="142.80" cy="545.00" r="3.2" fill="#1d4ed8"/>
<circle cx="146.57" cy="545.00" r="3.2" fill="#1d4ed8"/>
<circle cx="150.35" cy="544.19" r="3.2" fill="#1d4ed8"/>
<circle cx="154.12" cy="543.79" r="3.2" fill="#1d4ed8"/>
<circle cx="157.89" cy="543.79" r="3.2" fill="#1d4ed8"/>
<circle cx="161.66" cy="543.38" r="3.2" fill="#1d4ed8"/>
<circle cx="165.43" cy="541.76" r="3.2" fill="#1d4ed8"/>
<circle cx="169.20" cy="541.36" r="3.2" fill="#1d4ed8"/>
<circle cx="172.98" cy="540.96" r="3.2" fill="#1d4ed8"/>
<circle cx="176.75" cy="540.96" r="3.2" fill="#1d4ed8"/>
<circle cx="180.52" cy="539.34" r="3.2" fill="#1d4ed8"/>
<circle cx="184.29" cy="539.34" r="3.2" fill="#1d4ed8"/>
<circle cx="188.06" cy="556.73" r="3.2" fill="#1d4ed8"/>
<circle cx="191.83" cy="556.73" r="3.2" fill="#1d4ed8"/>
<circle cx="195.61" cy="555.51" r="3.2" fill="#1d4ed8"/>
<circle cx="199.38" cy="551.07" r="3.2" fill="#1d4ed8"/>
<circle cx="203.15" cy="538.93" r="3.2" fill="#1d4ed8"/>
<circle cx="206.92" cy="538.93" r="3.2" fill="#1d4ed8"/>
<circle cx="210.69" cy="538.93" r="3.2" fill="#1d4ed8"/>
<circle cx="214.46" cy="538.12" r="3.2" fill="#1d4ed8"/>
<circle cx="218.24" cy="536.91" r="3.2" fill="#1d4ed8"/>
<circle cx="222.01" cy="536.91" r="3.2" fill="#1d4ed8"/>
<circle cx="225.78" cy="536.51" r="3.2" fill="#1d4ed8"/>
<circle cx="229.55" cy="536.51" r="3.2" fill="#1d4ed8"/>
<circle cx="233.32" cy="556.73" r="3.2" fill="#1d4ed8"/>
<circle cx="237.09" cy="556.73" r="3.2" fill="#1d4ed8"/>
<circle cx="240.87" cy="556.73" r="3.2" fill="#1d4ed8"/>
<circle cx="244.64" cy="556.73" r="3.2" fill="#1d4ed8"/>
<circle cx="248.41" cy="535.29" r="3.2" fill="#1d4ed8"/>
<circle cx="252.18" cy="535.29" r="3.2" fill="#1d4ed8"/>
<circle cx="255.95" cy="535.29" r="3.2" fill="#1d4ed8"/>
<circle cx="259.72" cy="535.29" r="3.2" fill="#1d4ed8"/>
<circle cx="263.49" cy="534.49" r="3.2" fill="#1d4ed8"/>
<circle cx="267.27" cy="534.08" r="3.2" fill="#1d4ed8"/>
<circle cx="271.04" cy="533.68" r="3.2" fill="#1d4ed8"/>
<circle cx="274.81" cy="532.87" r="3.2" fill="#1d4ed8"/>
<circle cx="278.58" cy="532.06" r="3.2" fill="#1d4ed8"/>
<circle cx="282.35" cy="532.06" r="3.2" fill="#1d4ed8"/>
<circle cx="286.12" cy="531.25" r="3.2" fill="#1d4ed8"/>
<circle cx="289.90" cy="530.85" r="3.2" fill="#1d4ed8"/>
<circle cx="293.67" cy="530.44" r="3.2" fill="#1d4ed8"/>
<circle cx="297.44" cy="530.04" r="3.2" fill="#1d4ed8"/>
<circle cx="301.21" cy="530.04" r="3.2" fill="#1d4ed8"/>
<circle cx="304.98" cy="529.23" r="3.2" fill="#1d4ed8"/>
<circle cx="308.75" cy="529.23" r="3.2" fill="#1d4ed8"/>
<circle cx="312.53" cy="529.23" r="3.2" fill="#1d4ed8"/>
<circle cx="316.30" cy="528.42" r="3.2" fill="#1d4ed8"/>
<circle cx="320.07" cy="528.42" r="3.2" fill="#1d4ed8"/>
<circle cx="323.84" cy="527.61" r="3.2" fill="#1d4ed8"/>
<circle cx="327.61" cy="527.21" r="3.2" fill="#1d4ed8"/>
<circle cx="331.38" cy="526.80" r="3.2" fill="#1d4ed8"/>
<circle cx="335.16" cy="526.40" r="3.2" fill="#1d4ed8"/>
<circle cx="338.93" cy="525.18" r="3.2" fill="#1d4ed8"/>
<circle cx="342.70" cy="523.57" r="3.2" fill="#1d4ed8"/>
<circle cx="346.47" cy="523.57" r="3.2" fill="#1d4ed8"/>
<circle cx="350.24" cy="523.16" r="3.2" fill="#1d4ed8"/>
<circle cx="354.01" cy="522.76" r="3.2" fill="#1d4ed8"/>
<circle cx="357.79" cy="522.35" r="3.2" fill="#1d4ed8"/>
<circle cx="361.56" cy="521.54" r="3.2" fill="#1d4ed8"/>
<circle cx="365.33" cy="519.52" r="3.2" fill="#1d4ed8"/>
<circle cx="369.10" cy="517.50" r="3.2" fill="#1d4ed8"/>
<circle cx="372.87" cy="517.50" r="3.2" fill="#1d4ed8"/>
<circle cx="376.64" cy="517.50" r="3.2" fill="#1d4ed8"/>
<circle cx="380.42" cy="517.50" r="3.2" fill="#1d4ed8"/>
<circle cx="384.19" cy="517.50" r="3.2" fill="#1d4ed8"/>
<circle cx="387.96" cy="517.50" r="3.2" fill="#1d4ed8"/>
<circle cx="391.73" cy="517.10" r="3.2" fill="#1d4ed8"/>
<circle cx="395.50" cy="516.69" r="3.2" fill="#1d4ed8"/>
<circle cx="399.27" cy="515.48" r="3.2" fill="#1d4ed8"/>
<circle cx="403.04" cy="515.07" r="3.2" fill="#1d4ed8"/>
<circle cx="406.82" cy="514.67" r="3.2" fill="#1d4ed8"/>
<circle cx="410.59" cy="513.86" r="3.2" fill="#1d4ed8"/>
<circle cx="414.36" cy="514.26" r="3.2" fill="#1d4ed8"/>
<circle cx="418.13" cy="512.24" r="3.2" fill="#1d4ed8"/>
<circle cx="421.90" cy="511.84" r="3.2" fill="#1d4ed8"/>
<circle cx="425.67" cy="511.84" r="3.2" fill="#1d4ed8"/>
<circle cx="429.45" cy="511.03" r="3.2" fill="#1d4ed8"/>
<circle cx="433.22" cy="509.82" r="3.2" fill="#1d4ed8"/>
<circle cx="436.99" cy="507.79" r="3.2" fill="#1d4ed8"/>
<circle cx="440.76" cy="506.99" r="3.2" fill="#1d4ed8"/>
<circle cx="444.53" cy="506.58" r="3.2" fill="#1d4ed8"/>
<circle cx="448.30" cy="509.41" r="3.2" fill="#1d4ed8"/>
<circle cx="452.08" cy="509.01" r="3.2" fill="#1d4ed8"/>
<circle cx="455.85" cy="504.96" r="3.2" fill="#1d4ed8"/>
<circle cx="459.62" cy="504.56" r="3.2" fill="#1d4ed8"/>
<circle cx="463.39" cy="504.15" r="3.2" fill="#1d4ed8"/>
<circle cx="467.16" cy="504.56" r="3.2" fill="#1d4ed8"/>
<circle cx="470.93" cy="503.75" r="3.2" fill="#1d4ed8"/>
<circle cx="474.71" cy="503.75" r="3.2" fill="#1d4ed8"/>
<circle cx="478.48" cy="503.35" r="3.2" fill="#1d4ed8"/>
<circle cx="482.25" cy="499.30" r="3.2" fill="#1d4ed8"/>
<circle cx="486.02" cy="496.47" r="3.2" fill="#1d4ed8"/>
<circle cx="489.79" cy="490.00" r="3.2" fill="#1d4ed8"/>
<circle cx="493.56" cy="484.34" r="3.2" fill="#1d4ed8"/>
<circle cx="497.34" cy="481.10" r="3.2" fill="#1d4ed8"/>
<circle cx="501.11" cy="480.29" r="3.2" fill="#1d4ed8"/>
<circle cx="504.88" cy="480.70" r="3.2" fill="#1d4ed8"/>
<circle cx="508.65" cy="460.88" r="3.2" fill="#1d4ed8"/>
<circle cx="512.42" cy="459.26" r="3.2" fill="#1d4ed8"/>
<circle cx="516.19" cy="458.05" r="3.2" fill="#1d4ed8"/>
<circle cx="519.97" cy="456.03" r="3.2" fill="#1d4ed8"/>
<circle cx="523.74" cy="456.03" r="3.2" fill="#1d4ed8"/>
<circle cx="527.51" cy="454.41" r="3.2" fill="#1d4ed8"/>
<circle cx="531.28" cy="450.77" r="3.2" fill="#1d4ed8"/>
<circle cx="535.05" cy="444.30" r="3.2" fill="#1d4ed8"/>
<circle cx="538.82" cy="443.90" r="3.2" fill="#1d4ed8"/>
<circle cx="542.60" cy="600.00" r="3.2" fill="#1d4ed8"/>
<circle cx="546.37" cy="441.88" r="3.2" fill="#1d4ed8"/>
<circle cx="550.14" cy="440.66" r="3.2" fill="#1d4ed8"/>
<circle cx="553.91" cy="439.45" r="3.2" fill="#1d4ed8"/>
<circle cx="557.68" cy="439.04" r="3.2" fill="#1d4ed8"/>
<circle cx="561.45" cy="438.64" r="3.2" fill="#1d4ed8"/>
<circle cx="565.22" cy="437.83" r="3.2" fill="#1d4ed8"/>
<circle cx="569.00" cy="436.62" r="3.2" fill="#1d4ed8"/>
<circle cx="572.77" cy="436.62" r="3.2" fill="#1d4ed8"/>
<circle cx="576.54" cy="434.60" r="3.2" fill="#1d4ed8"/>
<circle cx="580.31" cy="432.17" r="3.2" fill="#1d4ed8"/>
<circle cx="584.08" cy="429.34" r="3.2" fill="#1d4ed8"/>
<circle cx="587.85" cy="428.93" r="3.2" fill="#1d4ed8"/>
<circle cx="591.63" cy="428.53" r="3.2" fill="#1d4ed8"/>
<circle cx="595.40" cy="427.72" r="3.2" fill="#1d4ed8"/>
<circle cx="599.17" cy="426.91" r="3.2" fill="#1d4ed8"/>
<circle cx="602.94" cy="426.10" r="3.2" fill="#1d4ed8"/>
<circle cx="606.71" cy="426.10" r="3.2" fill="#1d4ed8"/>
<circle cx="610.48" cy="426.10" r="3.2" fill="#1d4ed8"/>
<circle cx="614.26" cy="419.63" r="3.2" fill="#1d4ed8"/>
<circle cx="618.03" cy="419.23" r="3.2" fill="#1d4ed8"/>
<circle cx="621.80" cy="418.42" r="3.2" fill="#1d4ed8"/>
<circle cx="625.57" cy="418.01" r="3.2" fill="#1d4ed8"/>
<circle cx="629.34" cy="417.61" r="3.2" fill="#1d4ed8"/>
<circle cx="633.11" cy="417.61" r="3.2" fill="#1d4ed8"/>
<circle cx="636.89" cy="417.61" r="3.2" fill="#1d4ed8"/>
<circle cx="640.66" cy="417.21" r="3.2" fill="#1d4ed8"/>
<circle cx="644.43" cy="417.21" r="3.2" fill="#1d4ed8"/>
<circle cx="648.20" cy="413.57" r="3.2" fill="#1d4ed8"/>
<circle cx="651.97" cy="411.95" r="3.2" fill="#1d4ed8"/>
<circle cx="655.74" cy="412.76" r="3.2" fill="#1d4ed8"/>
<circle cx="659.52" cy="410.74" r="3.2" fill="#1d4ed8"/>
<circle cx="663.29" cy="410.74" r="3.2" fill="#1d4ed8"/>
<circle cx="667.06" cy="410.33" r="3.2" fill="#1d4ed8"/>
<circle cx="670.83" cy="410.33" r="3.2" fill="#1d4ed8"/>
<circle cx="674.60" cy="410.33" r="3.2" fill="#1d4ed8"/>
<circle cx="678.37" cy="409.93" r="3.2" fill="#1d4ed8"/>
<circle cx="682.15" cy="409.93" r="3.2" fill="#1d4ed8"/>
<circle cx="685.92" cy="409.93" r="3.2" fill="#1d4ed8"/>
<circle cx="689.69" cy="409.52" r="3.2" fill="#1d4ed8"/>
<circle cx="693.46" cy="409.52" r="3.2" fill="#1d4ed8"/>
<circle cx="697.23" cy="409.12" r="3.2" fill="#1d4ed8"/>
<circle cx="701.00" cy="409.52" r="3.2" fill="#1d4ed8"/>
<circle cx="704.78" cy="409.12" r="3.2" fill="#1d4ed8"/>
<circle cx="708.55" cy="407.50" r="3.2" fill="#1d4ed8"/>
<circle cx="712.32" cy="407.10" r="3.2" fill="#1d4ed8"/>
<circle cx="716.09" cy="403.05" r="3.2" fill="#1d4ed8"/>
<circle cx="719.86" cy="399.82" r="3.2" fill="#1d4ed8"/>
<circle cx="723.63" cy="400.22" r="3.2" fill="#1d4ed8"/>
<circle cx="727.40" cy="400.62" r="3.2" fill="#1d4ed8"/>
<circle cx="731.18" cy="400.62" r="3.2" fill="#1d4ed8"/>
<circle cx="734.95" cy="399.41" r="3.2" fill="#1d4ed8"/>
<circle cx="738.72" cy="392.94" r="3.2" fill="#1d4ed8"/>
<circle cx="742.49" cy="391.32" r="3.2" fill="#1d4ed8"/>
<circle cx="746.26" cy="389.30" r="3.2" fill="#1d4ed8"/>
<circle cx="750.03" cy="389.30" r="3.2" fill="#1d4ed8"/>
<circle cx="753.81" cy="388.49" r="3.2" fill="#1d4ed8"/>
<circle cx="757.58" cy="375.15" r="3.2" fill="#1d4ed8"/>
<circle cx="761.35" cy="374.74" r="3.2" fill="#1d4ed8"/>
<circle cx="765.12" cy="374.74" r="3.2" fill="#1d4ed8"/>
<circle cx="768.89" cy="374.74" r="3.2" fill="#1d4ed8"/>
<circle cx="772.66" cy="374.74" r="3.2" fill="#1d4ed8"/>
<circle cx="776.44" cy="374.34" r="3.2" fill="#1d4ed8"/>
<circle cx="780.21" cy="374.34" r="3.2" fill="#1d4ed8"/>
<circle cx="783.98" cy="374.34" r="3.2" fill="#1d4ed8"/>
<circle cx="787.75" cy="374.34" r="3.2" fill="#1d4ed8"/>
<circle cx="791.52" cy="374.34" r="3.2" fill="#1d4ed8"/>
<circle cx="795.29" cy="373.93" r="3.2" fill="#1d4ed8"/>
<circle cx="799.07" cy="373.12" r="3.2" fill="#1d4ed8"/>
<circle cx="802.84" cy="372.72" r="3.2" fill="#1d4ed8"/>
<circle cx="806.61" cy="373.53" r="3.2" fill="#1d4ed8"/>
<circle cx="810.38" cy="435.81" r="3.2" fill="#1d4ed8"/>
<circle cx="814.15" cy="372.32" r="3.2" fill="#1d4ed8"/>
<circle cx="817.92" cy="372.72" r="3.2" fill="#1d4ed8"/>
<circle cx="821.70" cy="371.91" r="3.2" fill="#1d4ed8"/>
<circle cx="825.47" cy="371.91" r="3.2" fill="#1d4ed8"/>
<circle cx="829.24" cy="372.32" r="3.2" fill="#1d4ed8"/>
<circle cx="833.01" cy="371.10" r="3.2" fill="#1d4ed8"/>
<circle cx="836.78" cy="369.89" r="3.2" fill="#1d4ed8"/>
<circle cx="840.55" cy="369.89" r="3.2" fill="#1d4ed8"/>
<circle cx="844.33" cy="369.89" r="3.2" fill="#1d4ed8"/>
<circle cx="848.10" cy="369.49" r="3.2" fill="#1d4ed8"/>
<circle cx="851.87" cy="369.89" r="3.2" fill="#1d4ed8"/>
<circle cx="855.64" cy="369.08" r="3.2" fill="#1d4ed8"/>
<circle cx="859.41" cy="368.68" r="3.2" fill="#1d4ed8"/>
<circle cx="863.18" cy="368.27" r="3.2" fill="#1d4ed8"/>
<circle cx="866.96" cy="367.87" r="3.2" fill="#1d4ed8"/>
<circle cx="870.73" cy="367.06" r="3.2" fill="#1d4ed8"/>
<circle cx="874.50" cy="367.46" r="3.2" fill="#1d4ed8"/>
<circle cx="878.27" cy="367.06" r="3.2" fill="#1d4ed8"/>
<circle cx="882.04" cy="366.25" r="3.2" fill="#1d4ed8"/>
<circle cx="885.81" cy="368.27" r="3.2" fill="#1d4ed8"/>
<circle cx="889.58" cy="368.68" r="3.2" fill="#1d4ed8"/>
<circle cx="893.36" cy="368.68" r="3.2" fill="#1d4ed8"/>
<circle cx="897.13" cy="368.27" r="3.2" fill="#1d4ed8"/>
<circle cx="900.90" cy="369.08" r="3.2" fill="#1d4ed8"/>
<circle cx="904.67" cy="367.87" r="3.2" fill="#1d4ed8"/>
<circle cx="908.44" cy="367.46" r="3.2" fill="#1d4ed8"/>
<circle cx="912.21" cy="367.06" r="3.2" fill="#1d4ed8"/>
<circle cx="915.99" cy="360.18" r="3.2" fill="#1d4ed8"/>
<circle cx="919.76" cy="359.78" r="3.2" fill="#1d4ed8"/>
<circle cx="923.53" cy="359.38" r="3.2" fill="#1d4ed8"/>
<circle cx="927.30" cy="356.95" r="3.2" fill="#1d4ed8"/>
<circle cx="931.07" cy="357.35" r="3.2" fill="#1d4ed8"/>
<circle cx="934.84" cy="357.76" r="3.2" fill="#1d4ed8"/>
<circle cx="938.62" cy="355.33" r="3.2" fill="#1d4ed8"/>
<circle cx="942.39" cy="355.74" r="3.2" fill="#1d4ed8"/>
<circle cx="946.16" cy="357.35" r="3.2" fill="#1d4ed8"/>
<circle cx="949.93" cy="355.33" r="3.2" fill="#1d4ed8"/>
<circle cx="953.70" cy="356.14" r="3.2" fill="#1d4ed8"/>
<circle cx="957.47" cy="355.74" r="3.2" fill="#1d4ed8"/>
<circle cx="961.25" cy="356.14" r="3.2" fill="#1d4ed8"/>
<circle cx="965.02" cy="354.12" r="3.2" fill="#1d4ed8"/>
<circle cx="968.79" cy="354.93" r="3.2" fill="#1d4ed8"/>
<circle cx="972.56" cy="356.14" r="3.2" fill="#1d4ed8"/>
<circle cx="976.33" cy="354.52" r="3.2" fill="#1d4ed8"/>
<circle cx="980.10" cy="353.71" r="3.2" fill="#1d4ed8"/>
<circle cx="983.88" cy="354.12" r="3.2" fill="#1d4ed8"/>
<circle cx="987.65" cy="354.93" r="3.2" fill="#1d4ed8"/>
<circle cx="991.42" cy="352.90" r="3.2" fill="#1d4ed8"/>
<circle cx="995.19" cy="353.71" r="3.2" fill="#1d4ed8"/>
<circle cx="998.96" cy="353.31" r="3.2" fill="#1d4ed8"/>
<circle cx="1002.73" cy="353.31" r="3.2" fill="#1d4ed8"/>
<circle cx="1006.51" cy="354.52" r="3.2" fill="#1d4ed8"/>
<circle cx="1010.28" cy="352.90" r="3.2" fill="#1d4ed8"/>
<circle cx="1014.05" cy="352.50" r="3.2" fill="#1d4ed8"/>
<circle cx="1017.82" cy="352.50" r="3.2" fill="#1d4ed8"/>
<circle cx="1021.59" cy="353.31" r="3.2" fill="#1d4ed8"/>
<circle cx="1025.36" cy="352.50" r="3.2" fill="#1d4ed8"/>
<circle cx="1029.13" cy="353.71" r="3.2" fill="#1d4ed8"/>
<circle cx="1032.91" cy="354.12" r="3.2" fill="#1d4ed8"/>
<circle cx="1036.68" cy="352.50" r="3.2" fill="#1d4ed8"/>
<circle cx="1040.45" cy="352.90" r="3.2" fill="#1d4ed8"/>
<circle cx="1044.22" cy="352.50" r="3.2" fill="#1d4ed8"/>
<circle cx="1047.99" cy="352.10" r="3.2" fill="#1d4ed8"/>
<circle cx="1051.76" cy="351.69" r="3.2" fill="#1d4ed8"/>
<circle cx="1055.54" cy="352.10" r="3.2" fill="#1d4ed8"/>
<circle cx="1059.31" cy="354.12" r="3.2" fill="#1d4ed8"/>
<circle cx="1063.08" cy="352.50" r="3.2" fill="#1d4ed8"/>
<circle cx="1066.85" cy="352.10" r="3.2" fill="#1d4ed8"/>
<circle cx="1070.62" cy="352.10" r="3.2" fill="#1d4ed8"/>
<circle cx="1074.39" cy="349.67" r="3.2" fill="#1d4ed8"/>
<circle cx="1078.17" cy="349.67" r="3.2" fill="#1d4ed8"/>
<circle cx="1081.94" cy="350.88" r="3.2" fill="#1d4ed8"/>
<circle cx="1085.71" cy="351.29" r="3.2" fill="#1d4ed8"/>
<circle cx="1089.48" cy="350.48" r="3.2" fill="#1d4ed8"/>
<circle cx="1093.25" cy="352.10" r="3.2" fill="#1d4ed8"/>
<circle cx="1097.02" cy="350.48" r="3.2" fill="#1d4ed8"/>
<circle cx="1100.80" cy="350.48" r="3.2" fill="#1d4ed8"/>
<circle cx="1104.57" cy="350.48" r="3.2" fill="#1d4ed8"/>
<circle cx="1108.34" cy="350.07" r="3.2" fill="#1d4ed8"/>
<circle cx="1112.11" cy="348.46" r="3.2" fill="#1d4ed8"/>
<circle cx="1115.88" cy="351.29" r="3.2" fill="#1d4ed8"/>
<circle cx="1119.65" cy="349.67" r="3.2" fill="#1d4ed8"/>
<circle cx="1123.43" cy="351.29" r="3.2" fill="#1d4ed8"/>
<circle cx="1127.20" cy="349.67" r="3.2" fill="#1d4ed8"/>
<circle cx="1130.97" cy="348.86" r="3.2" fill="#1d4ed8"/>
<circle cx="1134.74" cy="348.46" r="3.2" fill="#1d4ed8"/>
<circle cx="1138.51" cy="348.46" r="3.2" fill="#1d4ed8"/>
<circle cx="1142.28" cy="347.24" r="3.2" fill="#1d4ed8"/>
<circle cx="1146.06" cy="348.86" r="3.2" fill="#1d4ed8"/>
<circle cx="1149.83" cy="346.84" r="3.2" fill="#1d4ed8"/>
<circle cx="1153.60" cy="348.46" r="3.2" fill="#1d4ed8"/>
<circle cx="1157.37" cy="348.86" r="3.2" fill="#1d4ed8"/>
<circle cx="1161.14" cy="346.84" r="3.2" fill="#1d4ed8"/>
<circle cx="1164.91" cy="349.26" r="3.2" fill="#1d4ed8"/>
<circle cx="1168.69" cy="348.05" r="3.2" fill="#1d4ed8"/>
<circle cx="1172.46" cy="349.26" r="3.2" fill="#1d4ed8"/>
<circle cx="1176.23" cy="349.26" r="3.2" fill="#1d4ed8"/>
<circle cx="1180.00" cy="350.48" r="3.2" fill="#1d4ed8"/>
<text x="635" y="695" text-anchor="middle" font-size="14" fill="#111" font-family="sans-serif">Date</text>
<text x="24" y="325" text-anchor="middle" font-size="14" fill="#111" transform="rotate(-90 24,325)" font-family="sans-serif">Passed files</text>
</svg>
