<?xml version="1.0" encoding="UTF-8"?>
<svg xmlns="http://www.w3.org/2000/svg" width="1280" height="720" viewBox="0 0 1280 720">
<rect width="100%" height="100%" fill="#ffffff"/>
<text x="640" y="30" text-anchor="middle" font-size="22" font-family="sans-serif">Roast passed files history</text>
<line x1="90" y1="600" x2="1180" y2="600" stroke="#333" stroke-width="1.5"/>
<line x1="90" y1="50" x2="90" y2="600" stroke="#333" stroke-width="1.5"/>
<line x1="90" y1="600.00" x2="1180" y2="600.00" stroke="#e5e7eb" stroke-width="1"/>
<text x="78" y="605.00" text-anchor="end" font-size="12" fill="#111" font-family="sans-serif">0</text>
<line x1="90" y1="397.79" x2="1180" y2="397.79" stroke="#e5e7eb" stroke-width="1"/>
<text x="78" y="402.79" text-anchor="end" font-size="12" fill="#111" font-family="sans-serif">500</text>
<line x1="90" y1="195.59" x2="1180" y2="195.59" stroke="#e5e7eb" stroke-width="1"/>
<text x="78" y="200.59" text-anchor="end" font-size="12" fill="#111" font-family="sans-serif">1000</text>
<line x1="90.00" y1="600" x2="90.00" y2="606" stroke="#333" stroke-width="1"/>
<text x="90.00" y="624" text-anchor="end" font-size="11" fill="#111" transform="rotate(-40 90.00,624)" font-family="sans-serif">2026-02-12</text>
<line x1="225.39" y1="600" x2="225.39" y2="606" stroke="#333" stroke-width="1"/>
<text x="225.39" y="624" text-anchor="end" font-size="11" fill="#111" transform="rotate(-40 225.39,624)" font-family="sans-serif">2026-02-18</text>
<line x1="360.78" y1="600" x2="360.78" y2="606" stroke="#333" stroke-width="1"/>
<text x="360.78" y="624" text-anchor="end" font-size="11" fill="#111" transform="rotate(-40 360.78,624)" font-family="sans-serif">2026-02-25</text>
<line x1="496.17" y1="600" x2="496.17" y2="606" stroke="#333" stroke-width="1"/>
<text x="496.17" y="624" text-anchor="end" font-size="11" fill="#111" transform="rotate(-40 496.17,624)" font-family="sans-serif">2026-02-28</text>
<line x1="631.56" y1="600" x2="631.56" y2="606" stroke="#333" stroke-width="1"/>
<text x="631.56" y="624" text-anchor="end" font-size="11" fill="#111" transform="rotate(-40 631.56,624)" font-family="sans-serif">2026-03-06</text>
<line x1="766.95" y1="600" x2="766.95" y2="606" stroke="#333" stroke-width="1"/>
<text x="766.95" y="624" text-anchor="end" font-size="11" fill="#111" transform="rotate(-40 766.95,624)" font-family="sans-serif">2026-03-08</text>
<line x1="902.34" y1="600" x2="902.34" y2="606" stroke="#333" stroke-width="1"/>
<text x="902.34" y="624" text-anchor="end" font-size="11" fill="#111" transform="rotate(-40 902.34,624)" font-family="sans-serif">2026-03-18</text>
<line x1="1037.73" y1="600" x2="1037.73" y2="606" stroke="#333" stroke-width="1"/>
<text x="1037.73" y="624" text-anchor="end" font-size="11" fill="#111" transform="rotate(-40 1037.73,624)" font-family="sans-serif">2026-03-20</text>
<line x1="1173.12" y1="600" x2="1173.12" y2="606" stroke="#333" stroke-width="1"/>
<text x="1173.12" y="624" text-anchor="end" font-size="11" fill="#111" transform="rotate(-40 1173.12,624)" font-family="sans-serif">2026-03-30</text>
<line x1="1180.00" y1="600" x2="1180.00" y2="606" stroke="#333" stroke-width="1"/>
<text x="1180.00" y="624" text-anchor="end" font-size="11" fill="#111" transform="rotate(-40 1180.00,624)" font-family="sans-serif">2026-03-30</text>
<line x1="90" y1="75.88" x2="1180" y2="75.88" stroke="#dc2626" stroke-width="1.5" stroke-dasharray="8,4"/>
<text x="1184" y="79.88" font-size="12" fill="#dc2626" font-family="sans-serif">Goal: 1296</text>
<polyline fill="none" stroke="#2563eb" stroke-width="3" points="90.00,540.55 92.29,538.53 94.59,536.91 96.88,534.49 99.18,534.49 101.47,533.27 103.77,532.46 106.06,532.87 108.36,532.06 110.65,532.46 112.95,532.06 115.24,568.46 117.54,568.46 119.83,566.43 122.13,545.00 124.42,545.00 126.72,544.19 129.01,543.79 131.31,543.79 133.60,543.38 135.89,541.76 138.19,541.36 140.48,540.96 142.78,540.96 145.07,539.34 147.37,539.34 149.66,556.73 151.96,556.73 154.25,555.51 156.55,551.07 158.84,538.93 161.14,538.93 163.43,538.93 165.73,538.12 168.02,536.91 170.32,536.91 172.61,536.51 174.91,536.51 177.20,556.73 179.49,556.73 181.79,556.73 184.08,556.73 186.38,535.29 188.67,535.29 190.97,535.29 193.26,535.29 195.56,534.49 197.85,534.08 200.15,533.68 202.44,532.87 204.74,532.06 207.03,532.06 209.33,531.25 211.62,530.85 213.92,530.44 216.21,530.04 218.51,530.04 220.80,529.23 223.09,529.23 225.39,529.23 227.68,528.42 229.98,528.42 232.27,527.61 234.57,527.21 236.86,526.80 239.16,526.40 241.45,525.18 243.75,523.57 246.04,523.57 248.34,523.16 250.63,522.76 252.93,522.35 255.22,521.54 257.52,519.52 259.81,517.50 262.11,517.50 264.40,517.50 266.69,517.50 268.99,517.50 271.28,517.50 273.58,517.10 275.87,516.69 278.17,515.48 280.46,515.07 282.76,514.67 285.05,513.86 287.35,514.26 289.64,512.24 291.94,511.84 294.23,511.84 296.53,511.03 298.82,509.82 301.12,507.79 303.41,506.99 305.71,506.58 308.00,509.41 310.29,509.01 312.59,504.96 314.88,504.56 317.18,504.15 319.47,504.56 321.77,503.75 324.06,503.75 326.36,503.35 328.65,499.30 330.95,496.47 333.24,490.00 335.54,484.34 337.83,481.10 340.13,480.29 342.42,480.70 344.72,460.88 347.01,459.26 349.31,458.05 351.60,456.03 353.89,456.03 356.19,454.41 358.48,450.77 360.78,444.30 363.07,443.90 365.37,600.00 367.66,441.88 369.96,440.66 372.25,439.45 374.55,439.04 376.84,438.64 379.14,437.83 381.43,436.62 383.73,436.62 386.02,434.60 388.32,432.17 390.61,429.34 392.91,428.93 395.20,428.53 397.49,427.72 399.79,426.91 402.08,426.10 404.38,426.10 406.67,426.10 408.97,419.63 411.26,419.23 413.56,418.42 415.85,418.01 418.15,417.61 420.44,417.61 422.74,417.61 425.03,417.21 427.33,417.21 429.62,413.57 431.92,411.95 434.21,412.76 436.51,410.74 438.80,410.74 441.09,410.33 443.39,410.33 445.68,410.33 447.98,409.93 450.27,409.93 452.57,409.93 454.86,409.52 457.16,409.52 459.45,409.12 461.75,409.52 464.04,409.12 466.34,407.50 468.63,407.10 470.93,403.05 473.22,399.82 475.52,400.22 477.81,400.62 480.11,400.62 482.40,399.41 484.69,392.94 486.99,391.32 489.28,389.30 491.58,389.30 493.87,388.49 496.17,375.15 498.46,374.74 500.76,374.74 503.05,374.74 505.35,374.74 507.64,374.34 509.94,374.34 512.23,374.34 514.53,374.34 516.82,374.34 519.12,373.93 521.41,373.12 523.71,372.72 526.00,373.53 528.29,435.81 530.59,372.32 532.88,372.72 535.18,371.91 537.47,371.91 539.77,372.32 542.06,371.10 544.36,369.89 546.65,369.89 548.95,369.89 551.24,369.49 553.54,369.89 555.83,369.08 558.13,368.68 560.42,368.27 562.72,367.87 565.01,367.06 567.31,367.46 569.60,367.06 571.89,366.25 574.19,368.27 576.48,368.68 578.78,368.68 581.07,368.27 583.37,369.08 585.66,367.87 587.96,367.46 590.25,367.06 592.55,360.18 594.84,359.78 597.14,359.38 599.43,356.95 601.73,357.35 604.02,357.76 606.32,355.33 608.61,355.74 610.91,357.35 613.20,355.33 615.49,356.14 617.79,355.74 620.08,356.14 622.38,354.12 624.67,354.93 626.97,356.14 629.26,354.52 631.56,353.71 633.85,354.12 636.15,354.93 638.44,352.90 640.74,353.71 643.03,353.31 645.33,353.31 647.62,354.52 649.92,352.90 652.21,352.50 654.51,352.50 656.80,353.31 659.09,352.50 661.39,353.71 663.68,354.12 665.98,352.50 668.27,352.90 670.57,352.50 672.86,352.10 675.16,351.69 677.45,352.10 679.75,354.12 682.04,352.50 684.34,352.10 686.63,352.10 688.93,349.67 691.22,349.67 693.52,350.88 695.81,351.29 698.11,350.48 700.40,352.10 702.69,350.48 704.99,350.48 707.28,350.48 709.58,350.07 711.87,348.46 714.17,351.29 716.46,349.67 718.76,351.29 721.05,349.67 723.35,348.86 725.64,348.46 727.94,348.46 730.23,347.24 732.53,348.86 734.82,346.84 737.12,348.46 739.41,348.86 741.71,346.84 744.00,349.26 746.29,348.05 748.59,349.26 750.88,349.26 753.18,350.48 755.47,352.90 757.77,349.67 760.06,348.46 762.36,345.62 764.65,344.82 766.95,344.41 769.24,342.39 771.54,341.18 773.83,341.58 776.13,339.15 778.42,338.35 780.72,337.54 783.01,336.73 785.31,335.92 787.60,337.54 789.89,338.35 792.19,337.54 794.48,337.54 796.78,337.54 799.07,333.09 801.37,333.90 803.66,335.92 805.96,336.73 808.25,335.51 810.55,332.28 812.84,331.47 815.14,331.07 817.43,331.47 819.73,331.07 822.02,331.07 824.32,331.07 826.61,331.07 828.91,331.07 831.20,331.07 833.49,331.07 835.79,331.07 838.08,331.07 840.38,331.07 842.67,331.47 844.97,331.88 847.26,331.07 849.56,331.47 851.85,331.07 854.15,331.47 856.44,331.07 858.74,324.19 861.03,324.19 863.33,318.93 865.62,316.51 867.92,310.44 870.21,308.01 872.51,600.00 874.80,301.54 877.09,290.22 879.39,287.79 881.68,286.18 883.98,285.77 886.27,285.77 888.57,285.77 890.86,286.18 893.16,285.77 895.45,285.77 897.75,285.77 900.04,283.35 902.34,282.94 904.63,282.94 906.93,283.35 909.22,282.94 911.52,282.94 913.81,283.75 916.11,282.13 918.40,282.13 920.69,282.54 922.99,282.13 925.28,282.54 927.58,282.94 929.87,281.73 932.17,282.54 934.46,281.73 936.76,282.54 939.05,282.13 941.35,282.13 943.64,281.73 945.94,281.73 948.23,281.32 950.53,281.73 952.82,282.13 955.12,281.32 957.41,281.32 959.71,282.54 962.00,282.13 964.29,281.32 966.59,281.32 968.88,281.32 971.18,282.54 973.47,282.13 975.77,281.32 978.06,282.13 980.36,281.73 982.65,282.13 984.95,280.11 987.24,280.11 989.54,280.51 991.83,279.71 994.13,280.11 996.42,280.51 998.72,279.71 1001.01,280.11 1003.31,280.11 1005.60,279.30 1007.89,278.90 1010.19,278.90 1012.48,280.51 1014.78,279.30 1017.07,278.09 1019.37,278.49 1021.66,278.49 1023.96,277.28 1026.25,277.68 1028.55,277.68 1030.84,278.09 1033.14,277.28 1035.43,600.00 1037.73,278.90 1040.02,279.30 1042.32,278.90 1044.61,278.49 1046.91,278.49 1049.20,278.49 1051.49,278.49 1053.79,278.49 1056.08,278.49 1058.38,278.49 1060.67,278.49 1062.97,278.49 1065.26,278.49 1067.56,278.49 1069.85,278.49 1072.15,600.00 1074.44,600.00 1076.74,254.63 1079.03,600.00 1081.33,245.74 1083.62,245.74 1085.92,246.14 1088.21,245.74 1090.51,245.74 1092.80,245.74 1095.09,245.74 1097.39,245.74 1099.68,240.07 1101.98,238.05 1104.27,238.05 1106.57,227.13 1108.86,227.13 1111.16,226.32 1113.45,227.54 1115.75,226.73 1118.04,226.32 1120.34,227.13 1122.63,227.13 1124.93,226.73 1127.22,226.32 1129.52,226.73 1131.81,226.73 1134.11,226.73 1136.40,225.11 1138.69,224.71 1140.99,225.11 1143.28,224.30 1145.58,226.32 1147.87,224.30 1150.17,225.51 1152.46,225.51 1154.76,225.51 1157.05,225.92 1159.35,223.09 1161.64,223.49 1163.94,223.09 1166.23,223.09 1168.53,223.90 1170.82,223.49 1173.12,223.49 1175.41,223.09 1177.71,223.09 1180.00,223.49"/>
<circle cx="90.00" cy="540.55" r="3.2" fill="#1d4ed8"/>
<circle cx="92.29" cy="538.53" r="3.2" fill="#1d4ed8"/>
<circle cx="94.59" cy="536.91" r="3.2" fill="#1d4ed8"/>
<circle cx="96.88" cy="534.49" r="3.2" fill="#1d4ed8"/>
<circle cx="99.18" cy="534.49" r="3.2" fill="#1d4ed8"/>
<circle cx="101.47" cy="533.27" r="3.2" fill="#1d4ed8"/>
<circle cx="103.77" cy="532.46" r="3.2" fill="#1d4ed8"/>
<circle cx="106.06" cy="532.87" r="3.2" fill="#1d4ed8"/>
<circle cx="108.36" cy="532.06" r="3.2" fill="#1d4ed8"/>
<circle cx="110.65" cy="532.46" r="3.2" fill="#1d4ed8"/>
<circle cx="112.95" cy="532.06" r="3.2" fill="#1d4ed8"/>
<circle cx="115.24" cy="568.46" r="3.2" fill="#1d4ed8"/>
<circle cx="117.54" cy="568.46" r="3.2" fill="#1d4ed8"/>
<circle cx="119.83" cy="566.43" r="3.2" fill="#1d4ed8"/>
<circle cx="122.13" cy="545.00" r="3.2" fill="#1d4ed8"/>
<circle cx="124.42" cy="545.00" r="3.2" fill="#1d4ed8"/>
<circle cx="126.72" cy="544.19" r="3.2" fill="#1d4ed8"/>
<circle cx="129.01" cy="543.79" r="3.2" fill="#1d4ed8"/>
<circle cx="131.31" cy="543.79" r="3.2" fill="#1d4ed8"/>
<circle cx="133.60" cy="543.38" r="3.2" fill="#1d4ed8"/>
<circle cx="135.89" cy="541.76" r="3.2" fill="#1d4ed8"/>
<circle cx="138.19" cy="541.36" r="3.2" fill="#1d4ed8"/>
<circle cx="140.48" cy="540.96" r="3.2" fill="#1d4ed8"/>
<circle cx="142.78" cy="540.96" r="3.2" fill="#1d4ed8"/>
<circle cx="145.07" cy="539.34" r="3.2" fill="#1d4ed8"/>
<circle cx="147.37" cy="539.34" r="3.2" fill="#1d4ed8"/>
<circle cx="149.66" cy="556.73" r="3.2" fill="#1d4ed8"/>
<circle cx="151.96" cy="556.73" r="3.2" fill="#1d4ed8"/>
<circle cx="154.25" cy="555.51" r="3.2" fill="#1d4ed8"/>
<circle cx="156.55" cy="551.07" r="3.2" fill="#1d4ed8"/>
<circle cx="158.84" cy="538.93" r="3.2" fill="#1d4ed8"/>
<circle cx="161.14" cy="538.93" r="3.2" fill="#1d4ed8"/>
<circle cx="163.43" cy="538.93" r="3.2" fill="#1d4ed8"/>
<circle cx="165.73" cy="538.12" r="3.2" fill="#1d4ed8"/>
<circle cx="168.02" cy="536.91" r="3.2" fill="#1d4ed8"/>
<circle cx="170.32" cy="536.91" r="3.2" fill="#1d4ed8"/>
<circle cx="172.61" cy="536.51" r="3.2" fill="#1d4ed8"/>
<circle cx="174.91" cy="536.51" r="3.2" fill="#1d4ed8"/>
<circle cx="177.20" cy="556.73" r="3.2" fill="#1d4ed8"/>
<circle cx="179.49" cy="556.73" r="3.2" fill="#1d4ed8"/>
<circle cx="181.79" cy="556.73" r="3.2" fill="#1d4ed8"/>
<circle cx="184.08" cy="556.73" r="3.2" fill="#1d4ed8"/>
<circle cx="186.38" cy="535.29" r="3.2" fill="#1d4ed8"/>
<circle cx="188.67" cy="535.29" r="3.2" fill="#1d4ed8"/>
<circle cx="190.97" cy="535.29" r="3.2" fill="#1d4ed8"/>
<circle cx="193.26" cy="535.29" r="3.2" fill="#1d4ed8"/>
<circle cx="195.56" cy="534.49" r="3.2" fill="#1d4ed8"/>
<circle cx="197.85" cy="534.08" r="3.2" fill="#1d4ed8"/>
<circle cx="200.15" cy="533.68" r="3.2" fill="#1d4ed8"/>
<circle cx="202.44" cy="532.87" r="3.2" fill="#1d4ed8"/>
<circle cx="204.74" cy="532.06" r="3.2" fill="#1d4ed8"/>
<circle cx="207.03" cy="532.06" r="3.2" fill="#1d4ed8"/>
<circle cx="209.33" cy="531.25" r="3.2" fill="#1d4ed8"/>
<circle cx="211.62" cy="530.85" r="3.2" fill="#1d4ed8"/>
<circle cx="213.92" cy="530.44" r="3.2" fill="#1d4ed8"/>
<circle cx="216.21" cy="530.04" r="3.2" fill="#1d4ed8"/>
<circle cx="218.51" cy="530.04" r="3.2" fill="#1d4ed8"/>
<circle cx="220.80" cy="529.23" r="3.2" fill="#1d4ed8"/>
<circle cx="223.09" cy="529.23" r="3.2" fill="#1d4ed8"/>
<circle cx="225.39" cy="529.23" r="3.2" fill="#1d4ed8"/>
<circle cx="227.68" cy="528.42" r="3.2" fill="#1d4ed8"/>
<circle cx="229.98" cy="528.42" r="3.2" fill="#1d4ed8"/>
<circle cx="232.27" cy="527.61" r="3.2" fill="#1d4ed8"/>
<circle cx="234.57" cy="527.21" r="3.2" fill="#1d4ed8"/>
<circle cx="236.86" cy="526.80" r="3.2" fill="#1d4ed8"/>
<circle cx="239.16" cy="526.40" r="3.2" fill="#1d4ed8"/>
<circle cx="241.45" cy="525.18" r="3.2" fill="#1d4ed8"/>
<circle cx="243.75" cy="523.57" r="3.2" fill="#1d4ed8"/>
<circle cx="246.04" cy="523.57" r="3.2" fill="#1d4ed8"/>
<circle cx="248.34" cy="523.16" r="3.2" fill="#1d4ed8"/>
<circle cx="250.63" cy="522.76" r="3.2" fill="#1d4ed8"/>
<circle cx="252.93" cy="522.35" r="3.2" fill="#1d4ed8"/>
<circle cx="255.22" cy="521.54" r="3.2" fill="#1d4ed8"/>
<circle cx="257.52" cy="519.52" r="3.2" fill="#1d4ed8"/>
<circle cx="259.81" cy="517.50" r="3.2" fill="#1d4ed8"/>
<circle cx="262.11" cy="517.50" r="3.2" fill="#1d4ed8"/>
<circle cx="264.40" cy="517.50" r="3.2" fill="#1d4ed8"/>
<circle cx="266.69" cy="517.50" r="3.2" fill="#1d4ed8"/>
<circle cx="268.99" cy="517.50" r="3.2" fill="#1d4ed8"/>
<circle cx="271.28" cy="517.50" r="3.2" fill="#1d4ed8"/>
<circle cx="273.58" cy="517.10" r="3.2" fill="#1d4ed8"/>
<circle cx="275.87" cy="516.69" r="3.2" fill="#1d4ed8"/>
<circle cx="278.17" cy="515.48" r="3.2" fill="#1d4ed8"/>
<circle cx="280.46" cy="515.07" r="3.2" fill="#1d4ed8"/>
<circle cx="282.76" cy="514.67" r="3.2" fill="#1d4ed8"/>
<circle cx="285.05" cy="513.86" r="3.2" fill="#1d4ed8"/>
<circle cx="287.35" cy="514.26" r="3.2" fill="#1d4ed8"/>
<circle cx="289.64" cy="512.24" r="3.2" fill="#1d4ed8"/>
<circle cx="291.94" cy="511.84" r="3.2" fill="#1d4ed8"/>
<circle cx="294.23" cy="511.84" r="3.2" fill="#1d4ed8"/>
<circle cx="296.53" cy="511.03" r="3.2" fill="#1d4ed8"/>
<circle cx="298.82" cy="509.82" r="3.2" fill="#1d4ed8"/>
<circle cx="301.12" cy="507.79" r="3.2" fill="#1d4ed8"/>
<circle cx="303.41" cy="506.99" r="3.2" fill="#1d4ed8"/>
<circle cx="305.71" cy="506.58" r="3.2" fill="#1d4ed8"/>
<circle cx="308.00" cy="509.41" r="3.2" fill="#1d4ed8"/>
<circle cx="310.29" cy="509.01" r="3.2" fill="#1d4ed8"/>
<circle cx="312.59" cy="504.96" r="3.2" fill="#1d4ed8"/>
<circle cx="314.88" cy="504.56" r="3.2" fill="#1d4ed8"/>
<circle cx="317.18" cy="504.15" r="3.2" fill="#1d4ed8"/>
<circle cx="319.47" cy="504.56" r="3.2" fill="#1d4ed8"/>
<circle cx="321.77" cy="503.75" r="3.2" fill="#1d4ed8"/>
<circle cx="324.06" cy="503.75" r="3.2" fill="#1d4ed8"/>
<circle cx="326.36" cy="503.35" r="3.2" fill="#1d4ed8"/>
<circle cx="328.65" cy="499.30" r="3.2" fill="#1d4ed8"/>
<circle cx="330.95" cy="496.47" r="3.2" fill="#1d4ed8"/>
<circle cx="333.24" cy="490.00" r="3.2" fill="#1d4ed8"/>
<circle cx="335.54" cy="484.34" r="3.2" fill="#1d4ed8"/>
<circle cx="337.83" cy="481.10" r="3.2" fill="#1d4ed8"/>
<circle cx="340.13" cy="480.29" r="3.2" fill="#1d4ed8"/>
<circle cx="342.42" cy="480.70" r="3.2" fill="#1d4ed8"/>
<circle cx="344.72" cy="460.88" r="3.2" fill="#1d4ed8"/>
<circle cx="347.01" cy="459.26" r="3.2" fill="#1d4ed8"/>
<circle cx="349.31" cy="458.05" r="3.2" fill="#1d4ed8"/>
<circle cx="351.60" cy="456.03" r="3.2" fill="#1d4ed8"/>
<circle cx="353.89" cy="456.03" r="3.2" fill="#1d4ed8"/>
<circle cx="356.19" cy="454.41" r="3.2" fill="#1d4ed8"/>
<circle cx="358.48" cy="450.77" r="3.2" fill="#1d4ed8"/>
<circle cx="360.78" cy="444.30" r="3.2" fill="#1d4ed8"/>
<circle cx="363.07" cy="443.90" r="3.2" fill="#1d4ed8"/>
<circle cx="365.37" cy="600.00" r="3.2" fill="#1d4ed8"/>
<circle cx="367.66" cy="441.88" r="3.2" fill="#1d4ed8"/>
<circle cx="369.96" cy="440.66" r="3.2" fill="#1d4ed8"/>
<circle cx="372.25" cy="439.45" r="3.2" fill="#1d4ed8"/>
<circle cx="374.55" cy="439.04" r="3.2" fill="#1d4ed8"/>
<circle cx="376.84" cy="438.64" r="3.2" fill="#1d4ed8"/>
<circle cx="379.14" cy="437.83" r="3.2" fill="#1d4ed8"/>
<circle cx="381.43" cy="436.62" r="3.2" fill="#1d4ed8"/>
<circle cx="383.73" cy="436.62" r="3.2" fill="#1d4ed8"/>
<circle cx="386.02" cy="434.60" r="3.2" fill="#1d4ed8"/>
<circle cx="388.32" cy="432.17" r="3.2" fill="#1d4ed8"/>
<circle cx="390.61" cy="429.34" r="3.2" fill="#1d4ed8"/>
<circle cx="392.91" cy="428.93" r="3.2" fill="#1d4ed8"/>
<circle cx="395.20" cy="428.53" r="3.2" fill="#1d4ed8"/>
<circle cx="397.49" cy="427.72" r="3.2" fill="#1d4ed8"/>
<circle cx="399.79" cy="426.91" r="3.2" fill="#1d4ed8"/>
<circle cx="402.08" cy="426.10" r="3.2" fill="#1d4ed8"/>
<circle cx="404.38" cy="426.10" r="3.2" fill="#1d4ed8"/>
<circle cx="406.67" cy="426.10" r="3.2" fill="#1d4ed8"/>
<circle cx="408.97" cy="419.63" r="3.2" fill="#1d4ed8"/>
<circle cx="411.26" cy="419.23" r="3.2" fill="#1d4ed8"/>
<circle cx="413.56" cy="418.42" r="3.2" fill="#1d4ed8"/>
<circle cx="415.85" cy="418.01" r="3.2" fill="#1d4ed8"/>
<circle cx="418.15" cy="417.61" r="3.2" fill="#1d4ed8"/>
<circle cx="420.44" cy="417.61" r="3.2" fill="#1d4ed8"/>
<circle cx="422.74" cy="417.61" r="3.2" fill="#1d4ed8"/>
<circle cx="425.03" cy="417.21" r="3.2" fill="#1d4ed8"/>
<circle cx="427.33" cy="417.21" r="3.2" fill="#1d4ed8"/>
<circle cx="429.62" cy="413.57" r="3.2" fill="#1d4ed8"/>
<circle cx="431.92" cy="411.95" r="3.2" fill="#1d4ed8"/>
<circle cx="434.21" cy="412.76" r="3.2" fill="#1d4ed8"/>
<circle cx="436.51" cy="410.74" r="3.2" fill="#1d4ed8"/>
<circle cx="438.80" cy="410.74" r="3.2" fill="#1d4ed8"/>
<circle cx="441.09" cy="410.33" r="3.2" fill="#1d4ed8"/>
<circle cx="443.39" cy="410.33" r="3.2" fill="#1d4ed8"/>
<circle cx="445.68" cy="410.33" r="3.2" fill="#1d4ed8"/>
<circle cx="447.98" cy="409.93" r="3.2" fill="#1d4ed8"/>
<circle cx="450.27" cy="409.93" r="3.2" fill="#1d4ed8"/>
<circle cx="452.57" cy="409.93" r="3.2" fill="#1d4ed8"/>
<circle cx="454.86" cy="409.52" r="3.2" fill="#1d4ed8"/>
<circle cx="457.16" cy="409.52" r="3.2" fill="#1d4ed8"/>
<circle cx="459.45" cy="409.12" r="3.2" fill="#1d4ed8"/>
<circle cx="461.75" cy="409.52" r="3.2" fill="#1d4ed8"/>
<circle cx="464.04" cy="409.12" r="3.2" fill="#1d4ed8"/>
<circle cx="466.34" cy="407.50" r="3.2" fill="#1d4ed8"/>
<circle cx="468.63" cy="407.10" r="3.2" fill="#1d4ed8"/>
<circle cx="470.93" cy="403.05" r="3.2" fill="#1d4ed8"/>
<circle cx="473.22" cy="399.82" r="3.2" fill="#1d4ed8"/>
<circle cx="475.52" cy="400.22" r="3.2" fill="#1d4ed8"/>
<circle cx="477.81" cy="400.62" r="3.2" fill="#1d4ed8"/>
<circle cx="480.11" cy="400.62" r="3.2" fill="#1d4ed8"/>
<circle cx="482.40" cy="399.41" r="3.2" fill="#1d4ed8"/>
<circle cx="484.69" cy="392.94" r="3.2" fill="#1d4ed8"/>
<circle cx="486.99" cy="391.32" r="3.2" fill="#1d4ed8"/>
<circle cx="489.28" cy="389.30" r="3.2" fill="#1d4ed8"/>
<circle cx="491.58" cy="389.30" r="3.2" fill="#1d4ed8"/>
<circle cx="493.87" cy="388.49" r="3.2" fill="#1d4ed8"/>
<circle cx="496.17" cy="375.15" r="3.2" fill="#1d4ed8"/>
<circle cx="498.46" cy="374.74" r="3.2" fill="#1d4ed8"/>
<circle cx="500.76" cy="374.74" r="3.2" fill="#1d4ed8"/>
<circle cx="503.05" cy="374.74" r="3.2" fill="#1d4ed8"/>
<circle cx="505.35" cy="374.74" r="3.2" fill="#1d4ed8"/>
<circle cx="507.64" cy="374.34" r="3.2" fill="#1d4ed8"/>
<circle cx="509.94" cy="374.34" r="3.2" fill="#1d4ed8"/>
<circle cx="512.23" cy="374.34" r="3.2" fill="#1d4ed8"/>
<circle cx="514.53" cy="374.34" r="3.2" fill="#1d4ed8"/>
<circle cx="516.82" cy="374.34" r="3.2" fill="#1d4ed8"/>
<circle cx="519.12" cy="373.93" r="3.2" fill="#1d4ed8"/>
<circle cx="521.41" cy="373.12" r="3.2" fill="#1d4ed8"/>
<circle cx="523.71" cy="372.72" r="3.2" fill="#1d4ed8"/>
<circle cx="526.00" cy="373.53" r="3.2" fill="#1d4ed8"/>
<circle cx="528.29" cy="435.81" r="3.2" fill="#1d4ed8"/>
<circle cx="530.59" cy="372.32" r="3.2" fill="#1d4ed8"/>
<circle cx="532.88" cy="372.72" r="3.2" fill="#1d4ed8"/>
<circle cx="535.18" cy="371.91" r="3.2" fill="#1d4ed8"/>
<circle cx="537.47" cy="371.91" r="3.2" fill="#1d4ed8"/>
<circle cx="539.77" cy="372.32" r="3.2" fill="#1d4ed8"/>
<circle cx="542.06" cy="371.10" r="3.2" fill="#1d4ed8"/>
<circle cx="544.36" cy="369.89" r="3.2" fill="#1d4ed8"/>
<circle cx="546.65" cy="369.89" r="3.2" fill="#1d4ed8"/>
<circle cx="548.95" cy="369.89" r="3.2" fill="#1d4ed8"/>
<circle cx="551.24" cy="369.49" r="3.2" fill="#1d4ed8"/>
<circle cx="553.54" cy="369.89" r="3.2" fill="#1d4ed8"/>
<circle cx="555.83" cy="369.08" r="3.2" fill="#1d4ed8"/>
<circle cx="558.13" cy="368.68" r="3.2" fill="#1d4ed8"/>
<circle cx="560.42" cy="368.27" r="3.2" fill="#1d4ed8"/>
<circle cx="562.72" cy="367.87" r="3.2" fill="#1d4ed8"/>
<circle cx="565.01" cy="367.06" r="3.2" fill="#1d4ed8"/>
<circle cx="567.31" cy="367.46" r="3.2" fill="#1d4ed8"/>
<circle cx="569.60" cy="367.06" r="3.2" fill="#1d4ed8"/>
<circle cx="571.89" cy="366.25" r="3.2" fill="#1d4ed8"/>
<circle cx="574.19" cy="368.27" r="3.2" fill="#1d4ed8"/>
<circle cx="576.48" cy="368.68" r="3.2" fill="#1d4ed8"/>
<circle cx="578.78" cy="368.68" r="3.2" fill="#1d4ed8"/>
<circle cx="581.07" cy="368.27" r="3.2" fill="#1d4ed8"/>
<circle cx="583.37" cy="369.08" r="3.2" fill="#1d4ed8"/>
<circle cx="585.66" cy="367.87" r="3.2" fill="#1d4ed8"/>
<circle cx="587.96" cy="367.46" r="3.2" fill="#1d4ed8"/>
<circle cx="590.25" cy="367.06" r="3.2" fill="#1d4ed8"/>
<circle cx="592.55" cy="360.18" r="3.2" fill="#1d4ed8"/>
<circle cx="594.84" cy="359.78" r="3.2" fill="#1d4ed8"/>
<circle cx="597.14" cy="359.38" r="3.2" fill="#1d4ed8"/>
<circle cx="599.43" cy="356.95" r="3.2" fill="#1d4ed8"/>
<circle cx="601.73" cy="357.35" r="3.2" fill="#1d4ed8"/>
<circle cx="604.02" cy="357.76" r="3.2" fill="#1d4ed8"/>
<circle cx="606.32" cy="355.33" r="3.2" fill="#1d4ed8"/>
<circle cx="608.61" cy="355.74" r="3.2" fill="#1d4ed8"/>
<circle cx="610.91" cy="357.35" r="3.2" fill="#1d4ed8"/>
<circle cx="613.20" cy="355.33" r="3.2" fill="#1d4ed8"/>
<circle cx="615.49" cy="356.14" r="3.2" fill="#1d4ed8"/>
<circle cx="617.79" cy="355.74" r="3.2" fill="#1d4ed8"/>
<circle cx="620.08" cy="356.14" r="3.2" fill="#1d4ed8"/>
<circle cx="622.38" cy="354.12" r="3.2" fill="#1d4ed8"/>
<circle cx="624.67" cy="354.93" r="3.2" fill="#1d4ed8"/>
<circle cx="626.97" cy="356.14" r="3.2" fill="#1d4ed8"/>
<circle cx="629.26" cy="354.52" r="3.2" fill="#1d4ed8"/>
<circle cx="631.56" cy="353.71" r="3.2" fill="#1d4ed8"/>
<circle cx="633.85" cy="354.12" r="3.2" fill="#1d4ed8"/>
<circle cx="636.15" cy="354.93" r="3.2" fill="#1d4ed8"/>
<circle cx="638.44" cy="352.90" r="3.2" fill="#1d4ed8"/>
<circle cx="640.74" cy="353.71" r="3.2" fill="#1d4ed8"/>
<circle cx="643.03" cy="353.31" r="3.2" fill="#1d4ed8"/>
<circle cx="645.33" cy="353.31" r="3.2" fill="#1d4ed8"/>
<circle cx="647.62" cy="354.52" r="3.2" fill="#1d4ed8"/>
<circle cx="649.92" cy="352.90" r="3.2" fill="#1d4ed8"/>
<circle cx="652.21" cy="352.50" r="3.2" fill="#1d4ed8"/>
<circle cx="654.51" cy="352.50" r="3.2" fill="#1d4ed8"/>
<circle cx="656.80" cy="353.31" r="3.2" fill="#1d4ed8"/>
<circle cx="659.09" cy="352.50" r="3.2" fill="#1d4ed8"/>
<circle cx="661.39" cy="353.71" r="3.2" fill="#1d4ed8"/>
<circle cx="663.68" cy="354.12" r="3.2" fill="#1d4ed8"/>
<circle cx="665.98" cy="352.50" r="3.2" fill="#1d4ed8"/>
<circle cx="668.27" cy="352.90" r="3.2" fill="#1d4ed8"/>
<circle cx="670.57" cy="352.50" r="3.2" fill="#1d4ed8"/>
<circle cx="672.86" cy="352.10" r="3.2" fill="#1d4ed8"/>
<circle cx="675.16" cy="351.69" r="3.2" fill="#1d4ed8"/>
<circle cx="677.45" cy="352.10" r="3.2" fill="#1d4ed8"/>
<circle cx="679.75" cy="354.12" r="3.2" fill="#1d4ed8"/>
<circle cx="682.04" cy="352.50" r="3.2" fill="#1d4ed8"/>
<circle cx="684.34" cy="352.10" r="3.2" fill="#1d4ed8"/>
<circle cx="686.63" cy="352.10" r="3.2" fill="#1d4ed8"/>
<circle cx="688.93" cy="349.67" r="3.2" fill="#1d4ed8"/>
<circle cx="691.22" cy="349.67" r="3.2" fill="#1d4ed8"/>
<circle cx="693.52" cy="350.88" r="3.2" fill="#1d4ed8"/>
<circle cx="695.81" cy="351.29" r="3.2" fill="#1d4ed8"/>
<circle cx="698.11" cy="350.48" r="3.2" fill="#1d4ed8"/>
<circle cx="700.40" cy="352.10" r="3.2" fill="#1d4ed8"/>
<circle cx="702.69" cy="350.48" r="3.2" fill="#1d4ed8"/>
<circle cx="704.99" cy="350.48" r="3.2" fill="#1d4ed8"/>
<circle cx="707.28" cy="350.48" r="3.2" fill="#1d4ed8"/>
<circle cx="709.58" cy="350.07" r="3.2" fill="#1d4ed8"/>
<circle cx="711.87" cy="348.46" r="3.2" fill="#1d4ed8"/>
<circle cx="714.17" cy="351.29" r="3.2" fill="#1d4ed8"/>
<circle cx="716.46" cy="349.67" r="3.2" fill="#1d4ed8"/>
<circle cx="718.76" cy="351.29" r="3.2" fill="#1d4ed8"/>
<circle cx="721.05" cy="349.67" r="3.2" fill="#1d4ed8"/>
<circle cx="723.35" cy="348.86" r="3.2" fill="#1d4ed8"/>
<circle cx="725.64" cy="348.46" r="3.2" fill="#1d4ed8"/>
<circle cx="727.94" cy="348.46" r="3.2" fill="#1d4ed8"/>
<circle cx="730.23" cy="347.24" r="3.2" fill="#1d4ed8"/>
<circle cx="732.53" cy="348.86" r="3.2" fill="#1d4ed8"/>
<circle cx="734.82" cy="346.84" r="3.2" fill="#1d4ed8"/>
<circle cx="737.12" cy="348.46" r="3.2" fill="#1d4ed8"/>
<circle cx="739.41" cy="348.86" r="3.2" fill="#1d4ed8"/>
<circle cx="741.71" cy="346.84" r="3.2" fill="#1d4ed8"/>
<circle cx="744.00" cy="349.26" r="3.2" fill="#1d4ed8"/>
<circle cx="746.29" cy="348.05" r="3.2" fill="#1d4ed8"/>
<circle cx="748.59" cy="349.26" r="3.2" fill="#1d4ed8"/>
<circle cx="750.88" cy="349.26" r="3.2" fill="#1d4ed8"/>
<circle cx="753.18" cy="350.48" r="3.2" fill="#1d4ed8"/>
<circle cx="755.47" cy="352.90" r="3.2" fill="#1d4ed8"/>
<circle cx="757.77" cy="349.67" r="3.2" fill="#1d4ed8"/>
<circle cx="760.06" cy="348.46" r="3.2" fill="#1d4ed8"/>
<circle cx="762.36" cy="345.62" r="3.2" fill="#1d4ed8"/>
<circle cx="764.65" cy="344.82" r="3.2" fill="#1d4ed8"/>
<circle cx="766.95" cy="344.41" r="3.2" fill="#1d4ed8"/>
<circle cx="769.24" cy="342.39" r="3.2" fill="#1d4ed8"/>
<circle cx="771.54" cy="341.18" r="3.2" fill="#1d4ed8"/>
<circle cx="773.83" cy="341.58" r="3.2" fill="#1d4ed8"/>
<circle cx="776.13" cy="339.15" r="3.2" fill="#1d4ed8"/>
<circle cx="778.42" cy="338.35" r="3.2" fill="#1d4ed8"/>
<circle cx="780.72" cy="337.54" r="3.2" fill="#1d4ed8"/>
<circle cx="783.01" cy="336.73" r="3.2" fill="#1d4ed8"/>
<circle cx="785.31" cy="335.92" r="3.2" fill="#1d4ed8"/>
<circle cx="787.60" cy="337.54" r="3.2" fill="#1d4ed8"/>
<circle cx="789.89" cy="338.35" r="3.2" fill="#1d4ed8"/>
<circle cx="792.19" cy="337.54" r="3.2" fill="#1d4ed8"/>
<circle cx="794.48" cy="337.54" r="3.2" fill="#1d4ed8"/>
<circle cx="796.78" cy="337.54" r="3.2" fill="#1d4ed8"/>
<circle cx="799.07" cy="333.09" r="3.2" fill="#1d4ed8"/>
<circle cx="801.37" cy="333.90" r="3.2" fill="#1d4ed8"/>
<circle cx="803.66" cy="335.92" r="3.2" fill="#1d4ed8"/>
<circle cx="805.96" cy="336.73" r="3.2" fill="#1d4ed8"/>
<circle cx="808.25" cy="335.51" r="3.2" fill="#1d4ed8"/>
<circle cx="810.55" cy="332.28" r="3.2" fill="#1d4ed8"/>
<circle cx="812.84" cy="331.47" r="3.2" fill="#1d4ed8"/>
<circle cx="815.14" cy="331.07" r="3.2" fill="#1d4ed8"/>
<circle cx="817.43" cy="331.47" r="3.2" fill="#1d4ed8"/>
<circle cx="819.73" cy="331.07" r="3.2" fill="#1d4ed8"/>
<circle cx="822.02" cy="331.07" r="3.2" fill="#1d4ed8"/>
<circle cx="824.32" cy="331.07" r="3.2" fill="#1d4ed8"/>
<circle cx="826.61" cy="331.07" r="3.2" fill="#1d4ed8"/>
<circle cx="828.91" cy="331.07" r="3.2" fill="#1d4ed8"/>
<circle cx="831.20" cy="331.07" r="3.2" fill="#1d4ed8"/>
<circle cx="833.49" cy="331.07" r="3.2" fill="#1d4ed8"/>
<circle cx="835.79" cy="331.07" r="3.2" fill="#1d4ed8"/>
<circle cx="838.08" cy="331.07" r="3.2" fill="#1d4ed8"/>
<circle cx="840.38" cy="331.07" r="3.2" fill="#1d4ed8"/>
<circle cx="842.67" cy="331.47" r="3.2" fill="#1d4ed8"/>
<circle cx="844.97" cy="331.88" r="3.2" fill="#1d4ed8"/>
<circle cx="847.26" cy="331.07" r="3.2" fill="#1d4ed8"/>
<circle cx="849.56" cy="331.47" r="3.2" fill="#1d4ed8"/>
<circle cx="851.85" cy="331.07" r="3.2" fill="#1d4ed8"/>
<circle cx="854.15" cy="331.47" r="3.2" fill="#1d4ed8"/>
<circle cx="856.44" cy="331.07" r="3.2" fill="#1d4ed8"/>
<circle cx="858.74" cy="324.19" r="3.2" fill="#1d4ed8"/>
<circle cx="861.03" cy="324.19" r="3.2" fill="#1d4ed8"/>
<circle cx="863.33" cy="318.93" r="3.2" fill="#1d4ed8"/>
<circle cx="865.62" cy="316.51" r="3.2" fill="#1d4ed8"/>
<circle cx="867.92" cy="310.44" r="3.2" fill="#1d4ed8"/>
<circle cx="870.21" cy="308.01" r="3.2" fill="#1d4ed8"/>
<circle cx="872.51" cy="600.00" r="3.2" fill="#1d4ed8"/>
<circle cx="874.80" cy="301.54" r="3.2" fill="#1d4ed8"/>
<circle cx="877.09" cy="290.22" r="3.2" fill="#1d4ed8"/>
<circle cx="879.39" cy="287.79" r="3.2" fill="#1d4ed8"/>
<circle cx="881.68" cy="286.18" r="3.2" fill="#1d4ed8"/>
<circle cx="883.98" cy="285.77" r="3.2" fill="#1d4ed8"/>
<circle cx="886.27" cy="285.77" r="3.2" fill="#1d4ed8"/>
<circle cx="888.57" cy="285.77" r="3.2" fill="#1d4ed8"/>
<circle cx="890.86" cy="286.18" r="3.2" fill="#1d4ed8"/>
<circle cx="893.16" cy="285.77" r="3.2" fill="#1d4ed8"/>
<circle cx="895.45" cy="285.77" r="3.2" fill="#1d4ed8"/>
<circle cx="897.75" cy="285.77" r="3.2" fill="#1d4ed8"/>
<circle cx="900.04" cy="283.35" r="3.2" fill="#1d4ed8"/>
<circle cx="902.34" cy="282.94" r="3.2" fill="#1d4ed8"/>
<circle cx="904.63" cy="282.94" r="3.2" fill="#1d4ed8"/>
<circle cx="906.93" cy="283.35" r="3.2" fill="#1d4ed8"/>
<circle cx="909.22" cy="282.94" r="3.2" fill="#1d4ed8"/>
<circle cx="911.52" cy="282.94" r="3.2" fill="#1d4ed8"/>
<circle cx="913.81" cy="283.75" r="3.2" fill="#1d4ed8"/>
<circle cx="916.11" cy="282.13" r="3.2" fill="#1d4ed8"/>
<circle cx="918.40" cy="282.13" r="3.2" fill="#1d4ed8"/>
<circle cx="920.69" cy="282.54" r="3.2" fill="#1d4ed8"/>
<circle cx="922.99" cy="282.13" r="3.2" fill="#1d4ed8"/>
<circle cx="925.28" cy="282.54" r="3.2" fill="#1d4ed8"/>
<circle cx="927.58" cy="282.94" r="3.2" fill="#1d4ed8"/>
<circle cx="929.87" cy="281.73" r="3.2" fill="#1d4ed8"/>
<circle cx="932.17" cy="282.54" r="3.2" fill="#1d4ed8"/>
<circle cx="934.46" cy="281.73" r="3.2" fill="#1d4ed8"/>
<circle cx="936.76" cy="282.54" r="3.2" fill="#1d4ed8"/>
<circle cx="939.05" cy="282.13" r="3.2" fill="#1d4ed8"/>
<circle cx="941.35" cy="282.13" r="3.2" fill="#1d4ed8"/>
<circle cx="943.64" cy="281.73" r="3.2" fill="#1d4ed8"/>
<circle cx="945.94" cy="281.73" r="3.2" fill="#1d4ed8"/>
<circle cx="948.23" cy="281.32" r="3.2" fill="#1d4ed8"/>
<circle cx="950.53" cy="281.73" r="3.2" fill="#1d4ed8"/>
<circle cx="952.82" cy="282.13" r="3.2" fill="#1d4ed8"/>
<circle cx="955.12" cy="281.32" r="3.2" fill="#1d4ed8"/>
<circle cx="957.41" cy="281.32" r="3.2" fill="#1d4ed8"/>
<circle cx="959.71" cy="282.54" r="3.2" fill="#1d4ed8"/>
<circle cx="962.00" cy="282.13" r="3.2" fill="#1d4ed8"/>
<circle cx="964.29" cy="281.32" r="3.2" fill="#1d4ed8"/>
<circle cx="966.59" cy="281.32" r="3.2" fill="#1d4ed8"/>
<circle cx="968.88" cy="281.32" r="3.2" fill="#1d4ed8"/>
<circle cx="971.18" cy="282.54" r="3.2" fill="#1d4ed8"/>
<circle cx="973.47" cy="282.13" r="3.2" fill="#1d4ed8"/>
<circle cx="975.77" cy="281.32" r="3.2" fill="#1d4ed8"/>
<circle cx="978.06" cy="282.13" r="3.2" fill="#1d4ed8"/>
<circle cx="980.36" cy="281.73" r="3.2" fill="#1d4ed8"/>
<circle cx="982.65" cy="282.13" r="3.2" fill="#1d4ed8"/>
<circle cx="984.95" cy="280.11" r="3.2" fill="#1d4ed8"/>
<circle cx="987.24" cy="280.11" r="3.2" fill="#1d4ed8"/>
<circle cx="989.54" cy="280.51" r="3.2" fill="#1d4ed8"/>
<circle cx="991.83" cy="279.71" r="3.2" fill="#1d4ed8"/>
<circle cx="994.13" cy="280.11" r="3.2" fill="#1d4ed8"/>
<circle cx="996.42" cy="280.51" r="3.2" fill="#1d4ed8"/>
<circle cx="998.72" cy="279.71" r="3.2" fill="#1d4ed8"/>
<circle cx="1001.01" cy="280.11" r="3.2" fill="#1d4ed8"/>
<circle cx="1003.31" cy="280.11" r="3.2" fill="#1d4ed8"/>
<circle cx="1005.60" cy="279.30" r="3.2" fill="#1d4ed8"/>
<circle cx="1007.89" cy="278.90" r="3.2" fill="#1d4ed8"/>
<circle cx="1010.19" cy="278.90" r="3.2" fill="#1d4ed8"/>
<circle cx="1012.48" cy="280.51" r="3.2" fill="#1d4ed8"/>
<circle cx="1014.78" cy="279.30" r="3.2" fill="#1d4ed8"/>
<circle cx="1017.07" cy="278.09" r="3.2" fill="#1d4ed8"/>
<circle cx="1019.37" cy="278.49" r="3.2" fill="#1d4ed8"/>
<circle cx="1021.66" cy="278.49" r="3.2" fill="#1d4ed8"/>
<circle cx="1023.96" cy="277.28" r="3.2" fill="#1d4ed8"/>
<circle cx="1026.25" cy="277.68" r="3.2" fill="#1d4ed8"/>
<circle cx="1028.55" cy="277.68" r="3.2" fill="#1d4ed8"/>
<circle cx="1030.84" cy="278.09" r="3.2" fill="#1d4ed8"/>
<circle cx="1033.14" cy="277.28" r="3.2" fill="#1d4ed8"/>
<circle cx="1035.43" cy="600.00" r="3.2" fill="#1d4ed8"/>
<circle cx="1037.73" cy="278.90" r="3.2" fill="#1d4ed8"/>
<circle cx="1040.02" cy="279.30" r="3.2" fill="#1d4ed8"/>
<circle cx="1042.32" cy="278.90" r="3.2" fill="#1d4ed8"/>
<circle cx="1044.61" cy="278.49" r="3.2" fill="#1d4ed8"/>
<circle cx="1046.91" cy="278.49" r="3.2" fill="#1d4ed8"/>
<circle cx="1049.20" cy="278.49" r="3.2" fill="#1d4ed8"/>
<circle cx="1051.49" cy="278.49" r="3.2" fill="#1d4ed8"/>
<circle cx="1053.79" cy="278.49" r="3.2" fill="#1d4ed8"/>
<circle cx="1056.08" cy="278.49" r="3.2" fill="#1d4ed8"/>
<circle cx="1058.38" cy="278.49" r="3.2" fill="#1d4ed8"/>
<circle cx="1060.67" cy="278.49" r="3.2" fill="#1d4ed8"/>
<circle cx="1062.97" cy="278.49" r="3.2" fill="#1d4ed8"/>
<circle cx="1065.26" cy="278.49" r="3.2" fill="#1d4ed8"/>
<circle cx="1067.56" cy="278.49" r="3.2" fill="#1d4ed8"/>
<circle cx="1069.85" cy="278.49" r="3.2" fill="#1d4ed8"/>
<circle cx="1072.15" cy="600.00" r="3.2" fill="#1d4ed8"/>
<circle cx="1074.44" cy="600.00" r="3.2" fill="#1d4ed8"/>
<circle cx="1076.74" cy="254.63" r="3.2" fill="#1d4ed8"/>
<circle cx="1079.03" cy="600.00" r="3.2" fill="#1d4ed8"/>
<circle cx="1081.33" cy="245.74" r="3.2" fill="#1d4ed8"/>
<circle cx="1083.62" cy="245.74" r="3.2" fill="#1d4ed8"/>
<circle cx="1085.92" cy="246.14" r="3.2" fill="#1d4ed8"/>
<circle cx="1088.21" cy="245.74" r="3.2" fill="#1d4ed8"/>
<circle cx="1090.51" cy="245.74" r="3.2" fill="#1d4ed8"/>
<circle cx="1092.80" cy="245.74" r="3.2" fill="#1d4ed8"/>
<circle cx="1095.09" cy="245.74" r="3.2" fill="#1d4ed8"/>
<circle cx="1097.39" cy="245.74" r="3.2" fill="#1d4ed8"/>
<circle cx="1099.68" cy="240.07" r="3.2" fill="#1d4ed8"/>
<circle cx="1101.98" cy="238.05" r="3.2" fill="#1d4ed8"/>
<circle cx="1104.27" cy="238.05" r="3.2" fill="#1d4ed8"/>
<circle cx="1106.57" cy="227.13" r="3.2" fill="#1d4ed8"/>
<circle cx="1108.86" cy="227.13" r="3.2" fill="#1d4ed8"/>
<circle cx="1111.16" cy="226.32" r="3.2" fill="#1d4ed8"/>
<circle cx="1113.45" cy="227.54" r="3.2" fill="#1d4ed8"/>
<circle cx="1115.75" cy="226.73" r="3.2" fill="#1d4ed8"/>
<circle cx="1118.04" cy="226.32" r="3.2" fill="#1d4ed8"/>
<circle cx="1120.34" cy="227.13" r="3.2" fill="#1d4ed8"/>
<circle cx="1122.63" cy="227.13" r="3.2" fill="#1d4ed8"/>
<circle cx="1124.93" cy="226.73" r="3.2" fill="#1d4ed8"/>
<circle cx="1127.22" cy="226.32" r="3.2" fill="#1d4ed8"/>
<circle cx="1129.52" cy="226.73" r="3.2" fill="#1d4ed8"/>
<circle cx="1131.81" cy="226.73" r="3.2" fill="#1d4ed8"/>
<circle cx="1134.11" cy="226.73" r="3.2" fill="#1d4ed8"/>
<circle cx="1136.40" cy="225.11" r="3.2" fill="#1d4ed8"/>
<circle cx="1138.69" cy="224.71" r="3.2" fill="#1d4ed8"/>
<circle cx="1140.99" cy="225.11" r="3.2" fill="#1d4ed8"/>
<circle cx="1143.28" cy="224.30" r="3.2" fill="#1d4ed8"/>
<circle cx="1145.58" cy="226.32" r="3.2" fill="#1d4ed8"/>
<circle cx="1147.87" cy="224.30" r="3.2" fill="#1d4ed8"/>
<circle cx="1150.17" cy="225.51" r="3.2" fill="#1d4ed8"/>
<circle cx="1152.46" cy="225.51" r="3.2" fill="#1d4ed8"/>
<circle cx="1154.76" cy="225.51" r="3.2" fill="#1d4ed8"/>
<circle cx="1157.05" cy="225.92" r="3.2" fill="#1d4ed8"/>
<circle cx="1159.35" cy="223.09" r="3.2" fill="#1d4ed8"/>
<circle cx="1161.64" cy="223.49" r="3.2" fill="#1d4ed8"/>
<circle cx="1163.94" cy="223.09" r="3.2" fill="#1d4ed8"/>
<circle cx="1166.23" cy="223.09" r="3.2" fill="#1d4ed8"/>
<circle cx="1168.53" cy="223.90" r="3.2" fill="#1d4ed8"/>
<circle cx="1170.82" cy="223.49" r="3.2" fill="#1d4ed8"/>
<circle cx="1173.12" cy="223.49" r="3.2" fill="#1d4ed8"/>
<circle cx="1175.41" cy="223.09" r="3.2" fill="#1d4ed8"/>
<circle cx="1177.71" cy="223.09" r="3.2" fill="#1d4ed8"/>
<circle cx="1180.00" cy="223.49" r="3.2" fill="#1d4ed8"/>
<text x="635" y="695" text-anchor="middle" font-size="14" fill="#111" font-family="sans-serif">Date</text>
<text x="24" y="325" text-anchor="middle" font-size="14" fill="#111" transform="rotate(-90 24,325)" font-family="sans-serif">Passed files</text>
</svg>
