<?xml version="1.0" encoding="UTF-8"?>
<svg xmlns="http://www.w3.org/2000/svg" width="1280" height="720" viewBox="0 0 1280 720">
<rect width="100%" height="100%" fill="#ffffff"/>
<text x="640" y="30" text-anchor="middle" font-size="22" font-family="sans-serif">Roast passed files history</text>
<line x1="90" y1="600" x2="1180" y2="600" stroke="#333" stroke-width="1.5"/>
<line x1="90" y1="50" x2="90" y2="600" stroke="#333" stroke-width="1.5"/>
<line x1="90" y1="600.00" x2="1180" y2="600.00" stroke="#e5e7eb" stroke-width="1"/>
<text x="78" y="605.00" text-anchor="end" font-size="12" fill="#111" font-family="sans-serif">0</text>
<line x1="90" y1="397.79" x2="1180" y2="397.79" stroke="#e5e7eb" stroke-width="1"/>
<text x="78" y="402.79" text-anchor="end" font-size="12" fill="#111" font-family="sans-serif">500</text>
<line x1="90" y1="195.59" x2="1180" y2="195.59" stroke="#e5e7eb" stroke-width="1"/>
<text x="78" y="200.59" text-anchor="end" font-size="12" fill="#111" font-family="sans-serif">1000</text>
<line x1="90.00" y1="600" x2="90.00" y2="606" stroke="#333" stroke-width="1"/>
<text x="90.00" y="624" text-anchor="end" font-size="11" fill="#111" transform="rotate(-40 90.00,624)" font-family="sans-serif">2026-02-12</text>
<line x1="225.00" y1="600" x2="225.00" y2="606" stroke="#333" stroke-width="1"/>
<text x="225.00" y="624" text-anchor="end" font-size="11" fill="#111" transform="rotate(-40 225.00,624)" font-family="sans-serif">2026-02-17</text>
<line x1="360.00" y1="600" x2="360.00" y2="606" stroke="#333" stroke-width="1"/>
<text x="360.00" y="624" text-anchor="end" font-size="11" fill="#111" transform="rotate(-40 360.00,624)" font-family="sans-serif">2026-02-18</text>
<line x1="495.00" y1="600" x2="495.00" y2="606" stroke="#333" stroke-width="1"/>
<text x="495.00" y="624" text-anchor="end" font-size="11" fill="#111" transform="rotate(-40 495.00,624)" font-family="sans-serif">2026-02-20</text>
<line x1="630.00" y1="600" x2="630.00" y2="606" stroke="#333" stroke-width="1"/>
<text x="630.00" y="624" text-anchor="end" font-size="11" fill="#111" transform="rotate(-40 630.00,624)" font-family="sans-serif">2026-02-24</text>
<line x1="765.00" y1="600" x2="765.00" y2="606" stroke="#333" stroke-width="1"/>
<text x="765.00" y="624" text-anchor="end" font-size="11" fill="#111" transform="rotate(-40 765.00,624)" font-family="sans-serif">2026-02-25</text>
<line x1="900.00" y1="600" x2="900.00" y2="606" stroke="#333" stroke-width="1"/>
<text x="900.00" y="624" text-anchor="end" font-size="11" fill="#111" transform="rotate(-40 900.00,624)" font-family="sans-serif">2026-02-27</text>
<line x1="1035.00" y1="600" x2="1035.00" y2="606" stroke="#333" stroke-width="1"/>
<text x="1035.00" y="624" text-anchor="end" font-size="11" fill="#111" transform="rotate(-40 1035.00,624)" font-family="sans-serif">2026-02-28</text>
<line x1="1170.00" y1="600" x2="1170.00" y2="606" stroke="#333" stroke-width="1"/>
<text x="1170.00" y="624" text-anchor="end" font-size="11" fill="#111" transform="rotate(-40 1170.00,624)" font-family="sans-serif">2026-03-04</text>
<line x1="1180.00" y1="600" x2="1180.00" y2="606" stroke="#333" stroke-width="1"/>
<text x="1180.00" y="624" text-anchor="end" font-size="11" fill="#111" transform="rotate(-40 1180.00,624)" font-family="sans-serif">2026-03-05</text>
<line x1="90" y1="75.88" x2="1180" y2="75.88" stroke="#dc2626" stroke-width="1.5" stroke-dasharray="8,4"/>
<text x="1184" y="79.88" font-size="12" fill="#dc2626" font-family="sans-serif">Goal: 1296</text>
<polyline fill="none" stroke="#2563eb" stroke-width="3" points="90.00,540.55 95.00,538.53 100.00,536.91 105.00,534.49 110.00,534.49 115.00,533.27 120.00,532.46 125.00,532.87 130.00,532.06 135.00,532.46 140.00,532.06 145.00,568.46 150.00,568.46 155.00,566.43 160.00,545.00 165.00,545.00 170.00,544.19 175.00,543.79 180.00,543.79 185.00,543.38 190.00,541.76 195.00,541.36 200.00,540.96 205.00,540.96 210.00,539.34 215.00,539.34 220.00,556.73 225.00,556.73 230.00,555.51 235.00,551.07 240.00,538.93 245.00,538.93 250.00,538.93 255.00,538.12 260.00,536.91 265.00,536.91 270.00,536.51 275.00,536.51 280.00,556.73 285.00,556.73 290.00,556.73 295.00,556.73 300.00,535.29 305.00,535.29 310.00,535.29 315.00,535.29 320.00,534.49 325.00,534.08 330.00,533.68 335.00,532.87 340.00,532.06 345.00,532.06 350.00,531.25 355.00,530.85 360.00,530.44 365.00,530.04 370.00,530.04 375.00,529.23 380.00,529.23 385.00,529.23 390.00,528.42 395.00,528.42 400.00,527.61 405.00,527.21 410.00,526.80 415.00,526.40 420.00,525.18 425.00,523.57 430.00,523.57 435.00,523.16 440.00,522.76 445.00,522.35 450.00,521.54 455.00,519.52 460.00,517.50 465.00,517.50 470.00,517.50 475.00,517.50 480.00,517.50 485.00,517.50 490.00,517.10 495.00,516.69 500.00,515.48 505.00,515.07 510.00,514.67 515.00,513.86 520.00,514.26 525.00,512.24 530.00,511.84 535.00,511.84 540.00,511.03 545.00,509.82 550.00,507.79 555.00,506.99 560.00,506.58 565.00,509.41 570.00,509.01 575.00,504.96 580.00,504.56 585.00,504.15 590.00,504.56 595.00,503.75 600.00,503.75 605.00,503.35 610.00,499.30 615.00,496.47 620.00,490.00 625.00,484.34 630.00,481.10 635.00,480.29 640.00,480.70 645.00,460.88 650.00,459.26 655.00,458.05 660.00,456.03 665.00,456.03 670.00,454.41 675.00,450.77 680.00,444.30 685.00,443.90 690.00,600.00 695.00,441.88 700.00,440.66 705.00,439.45 710.00,439.04 715.00,438.64 720.00,437.83 725.00,436.62 730.00,436.62 735.00,434.60 740.00,432.17 745.00,429.34 750.00,428.93 755.00,428.53 760.00,427.72 765.00,426.91 770.00,426.10 775.00,426.10 780.00,426.10 785.00,419.63 790.00,419.23 795.00,418.42 800.00,418.01 805.00,417.61 810.00,417.61 815.00,417.61 820.00,417.21 825.00,417.21 830.00,413.57 835.00,411.95 840.00,412.76 845.00,410.74 850.00,410.74 855.00,410.33 860.00,410.33 865.00,410.33 870.00,409.93 875.00,409.93 880.00,409.93 885.00,409.52 890.00,409.52 895.00,409.12 900.00,409.52 905.00,409.12 910.00,407.50 915.00,407.10 920.00,403.05 925.00,399.82 930.00,400.22 935.00,400.62 940.00,400.62 945.00,399.41 950.00,392.94 955.00,391.32 960.00,389.30 965.00,389.30 970.00,388.49 975.00,375.15 980.00,374.74 985.00,374.74 990.00,374.74 995.00,374.74 1000.00,374.34 1005.00,374.34 1010.00,374.34 1015.00,374.34 1020.00,374.34 1025.00,373.93 1030.00,373.12 1035.00,372.72 1040.00,373.53 1045.00,435.81 1050.00,372.32 1055.00,372.72 1060.00,371.91 1065.00,371.91 1070.00,372.32 1075.00,371.10 1080.00,369.89 1085.00,369.89 1090.00,369.89 1095.00,369.49 1100.00,369.89 1105.00,369.08 1110.00,368.68 1115.00,368.27 1120.00,367.87 1125.00,367.06 1130.00,367.46 1135.00,367.06 1140.00,366.25 1145.00,368.27 1150.00,368.68 1155.00,368.68 1160.00,368.27 1165.00,369.08 1170.00,367.87 1175.00,367.46 1180.00,367.06"/>
<circle cx="90.00" cy="540.55" r="3.2" fill="#1d4ed8"/>
<circle cx="95.00" cy="538.53" r="3.2" fill="#1d4ed8"/>
<circle cx="100.00" cy="536.91" r="3.2" fill="#1d4ed8"/>
<circle cx="105.00" cy="534.49" r="3.2" fill="#1d4ed8"/>
<circle cx="110.00" cy="534.49" r="3.2" fill="#1d4ed8"/>
<circle cx="115.00" cy="533.27" r="3.2" fill="#1d4ed8"/>
<circle cx="120.00" cy="532.46" r="3.2" fill="#1d4ed8"/>
<circle cx="125.00" cy="532.87" r="3.2" fill="#1d4ed8"/>
<circle cx="130.00" cy="532.06" r="3.2" fill="#1d4ed8"/>
<circle cx="135.00" cy="532.46" r="3.2" fill="#1d4ed8"/>
<circle cx="140.00" cy="532.06" r="3.2" fill="#1d4ed8"/>
<circle cx="145.00" cy="568.46" r="3.2" fill="#1d4ed8"/>
<circle cx="150.00" cy="568.46" r="3.2" fill="#1d4ed8"/>
<circle cx="155.00" cy="566.43" r="3.2" fill="#1d4ed8"/>
<circle cx="160.00" cy="545.00" r="3.2" fill="#1d4ed8"/>
<circle cx="165.00" cy="545.00" r="3.2" fill="#1d4ed8"/>
<circle cx="170.00" cy="544.19" r="3.2" fill="#1d4ed8"/>
<circle cx="175.00" cy="543.79" r="3.2" fill="#1d4ed8"/>
<circle cx="180.00" cy="543.79" r="3.2" fill="#1d4ed8"/>
<circle cx="185.00" cy="543.38" r="3.2" fill="#1d4ed8"/>
<circle cx="190.00" cy="541.76" r="3.2" fill="#1d4ed8"/>
<circle cx="195.00" cy="541.36" r="3.2" fill="#1d4ed8"/>
<circle cx="200.00" cy="540.96" r="3.2" fill="#1d4ed8"/>
<circle cx="205.00" cy="540.96" r="3.2" fill="#1d4ed8"/>
<circle cx="210.00" cy="539.34" r="3.2" fill="#1d4ed8"/>
<circle cx="215.00" cy="539.34" r="3.2" fill="#1d4ed8"/>
<circle cx="220.00" cy="556.73" r="3.2" fill="#1d4ed8"/>
<circle cx="225.00" cy="556.73" r="3.2" fill="#1d4ed8"/>
<circle cx="230.00" cy="555.51" r="3.2" fill="#1d4ed8"/>
<circle cx="235.00" cy="551.07" r="3.2" fill="#1d4ed8"/>
<circle cx="240.00" cy="538.93" r="3.2" fill="#1d4ed8"/>
<circle cx="245.00" cy="538.93" r="3.2" fill="#1d4ed8"/>
<circle cx="250.00" cy="538.93" r="3.2" fill="#1d4ed8"/>
<circle cx="255.00" cy="538.12" r="3.2" fill="#1d4ed8"/>
<circle cx="260.00" cy="536.91" r="3.2" fill="#1d4ed8"/>
<circle cx="265.00" cy="536.91" r="3.2" fill="#1d4ed8"/>
<circle cx="270.00" cy="536.51" r="3.2" fill="#1d4ed8"/>
<circle cx="275.00" cy="536.51" r="3.2" fill="#1d4ed8"/>
<circle cx="280.00" cy="556.73" r="3.2" fill="#1d4ed8"/>
<circle cx="285.00" cy="556.73" r="3.2" fill="#1d4ed8"/>
<circle cx="290.00" cy="556.73" r="3.2" fill="#1d4ed8"/>
<circle cx="295.00" cy="556.73" r="3.2" fill="#1d4ed8"/>
<circle cx="300.00" cy="535.29" r="3.2" fill="#1d4ed8"/>
<circle cx="305.00" cy="535.29" r="3.2" fill="#1d4ed8"/>
<circle cx="310.00" cy="535.29" r="3.2" fill="#1d4ed8"/>
<circle cx="315.00" cy="535.29" r="3.2" fill="#1d4ed8"/>
<circle cx="320.00" cy="534.49" r="3.2" fill="#1d4ed8"/>
<circle cx="325.00" cy="534.08" r="3.2" fill="#1d4ed8"/>
<circle cx="330.00" cy="533.68" r="3.2" fill="#1d4ed8"/>
<circle cx="335.00" cy="532.87" r="3.2" fill="#1d4ed8"/>
<circle cx="340.00" cy="532.06" r="3.2" fill="#1d4ed8"/>
<circle cx="345.00" cy="532.06" r="3.2" fill="#1d4ed8"/>
<circle cx="350.00" cy="531.25" r="3.2" fill="#1d4ed8"/>
<circle cx="355.00" cy="530.85" r="3.2" fill="#1d4ed8"/>
<circle cx="360.00" cy="530.44" r="3.2" fill="#1d4ed8"/>
<circle cx="365.00" cy="530.04" r="3.2" fill="#1d4ed8"/>
<circle cx="370.00" cy="530.04" r="3.2" fill="#1d4ed8"/>
<circle cx="375.00" cy="529.23" r="3.2" fill="#1d4ed8"/>
<circle cx="380.00" cy="529.23" r="3.2" fill="#1d4ed8"/>
<circle cx="385.00" cy="529.23" r="3.2" fill="#1d4ed8"/>
<circle cx="390.00" cy="528.42" r="3.2" fill="#1d4ed8"/>
<circle cx="395.00" cy="528.42" r="3.2" fill="#1d4ed8"/>
<circle cx="400.00" cy="527.61" r="3.2" fill="#1d4ed8"/>
<circle cx="405.00" cy="527.21" r="3.2" fill="#1d4ed8"/>
<circle cx="410.00" cy="526.80" r="3.2" fill="#1d4ed8"/>
<circle cx="415.00" cy="526.40" r="3.2" fill="#1d4ed8"/>
<circle cx="420.00" cy="525.18" r="3.2" fill="#1d4ed8"/>
<circle cx="425.00" cy="523.57" r="3.2" fill="#1d4ed8"/>
<circle cx="430.00" cy="523.57" r="3.2" fill="#1d4ed8"/>
<circle cx="435.00" cy="523.16" r="3.2" fill="#1d4ed8"/>
<circle cx="440.00" cy="522.76" r="3.2" fill="#1d4ed8"/>
<circle cx="445.00" cy="522.35" r="3.2" fill="#1d4ed8"/>
<circle cx="450.00" cy="521.54" r="3.2" fill="#1d4ed8"/>
<circle cx="455.00" cy="519.52" r="3.2" fill="#1d4ed8"/>
<circle cx="460.00" cy="517.50" r="3.2" fill="#1d4ed8"/>
<circle cx="465.00" cy="517.50" r="3.2" fill="#1d4ed8"/>
<circle cx="470.00" cy="517.50" r="3.2" fill="#1d4ed8"/>
<circle cx="475.00" cy="517.50" r="3.2" fill="#1d4ed8"/>
<circle cx="480.00" cy="517.50" r="3.2" fill="#1d4ed8"/>
<circle cx="485.00" cy="517.50" r="3.2" fill="#1d4ed8"/>
<circle cx="490.00" cy="517.10" r="3.2" fill="#1d4ed8"/>
<circle cx="495.00" cy="516.69" r="3.2" fill="#1d4ed8"/>
<circle cx="500.00" cy="515.48" r="3.2" fill="#1d4ed8"/>
<circle cx="505.00" cy="515.07" r="3.2" fill="#1d4ed8"/>
<circle cx="510.00" cy="514.67" r="3.2" fill="#1d4ed8"/>
<circle cx="515.00" cy="513.86" r="3.2" fill="#1d4ed8"/>
<circle cx="520.00" cy="514.26" r="3.2" fill="#1d4ed8"/>
<circle cx="525.00" cy="512.24" r="3.2" fill="#1d4ed8"/>
<circle cx="530.00" cy="511.84" r="3.2" fill="#1d4ed8"/>
<circle cx="535.00" cy="511.84" r="3.2" fill="#1d4ed8"/>
<circle cx="540.00" cy="511.03" r="3.2" fill="#1d4ed8"/>
<circle cx="545.00" cy="509.82" r="3.2" fill="#1d4ed8"/>
<circle cx="550.00" cy="507.79" r="3.2" fill="#1d4ed8"/>
<circle cx="555.00" cy="506.99" r="3.2" fill="#1d4ed8"/>
<circle cx="560.00" cy="506.58" r="3.2" fill="#1d4ed8"/>
<circle cx="565.00" cy="509.41" r="3.2" fill="#1d4ed8"/>
<circle cx="570.00" cy="509.01" r="3.2" fill="#1d4ed8"/>
<circle cx="575.00" cy="504.96" r="3.2" fill="#1d4ed8"/>
<circle cx="580.00" cy="504.56" r="3.2" fill="#1d4ed8"/>
<circle cx="585.00" cy="504.15" r="3.2" fill="#1d4ed8"/>
<circle cx="590.00" cy="504.56" r="3.2" fill="#1d4ed8"/>
<circle cx="595.00" cy="503.75" r="3.2" fill="#1d4ed8"/>
<circle cx="600.00" cy="503.75" r="3.2" fill="#1d4ed8"/>
<circle cx="605.00" cy="503.35" r="3.2" fill="#1d4ed8"/>
<circle cx="610.00" cy="499.30" r="3.2" fill="#1d4ed8"/>
<circle cx="615.00" cy="496.47" r="3.2" fill="#1d4ed8"/>
<circle cx="620.00" cy="490.00" r="3.2" fill="#1d4ed8"/>
<circle cx="625.00" cy="484.34" r="3.2" fill="#1d4ed8"/>
<circle cx="630.00" cy="481.10" r="3.2" fill="#1d4ed8"/>
<circle cx="635.00" cy="480.29" r="3.2" fill="#1d4ed8"/>
<circle cx="640.00" cy="480.70" r="3.2" fill="#1d4ed8"/>
<circle cx="645.00" cy="460.88" r="3.2" fill="#1d4ed8"/>
<circle cx="650.00" cy="459.26" r="3.2" fill="#1d4ed8"/>
<circle cx="655.00" cy="458.05" r="3.2" fill="#1d4ed8"/>
<circle cx="660.00" cy="456.03" r="3.2" fill="#1d4ed8"/>
<circle cx="665.00" cy="456.03" r="3.2" fill="#1d4ed8"/>
<circle cx="670.00" cy="454.41" r="3.2" fill="#1d4ed8"/>
<circle cx="675.00" cy="450.77" r="3.2" fill="#1d4ed8"/>
<circle cx="680.00" cy="444.30" r="3.2" fill="#1d4ed8"/>
<circle cx="685.00" cy="443.90" r="3.2" fill="#1d4ed8"/>
<circle cx="690.00" cy="600.00" r="3.2" fill="#1d4ed8"/>
<circle cx="695.00" cy="441.88" r="3.2" fill="#1d4ed8"/>
<circle cx="700.00" cy="440.66" r="3.2" fill="#1d4ed8"/>
<circle cx="705.00" cy="439.45" r="3.2" fill="#1d4ed8"/>
<circle cx="710.00" cy="439.04" r="3.2" fill="#1d4ed8"/>
<circle cx="715.00" cy="438.64" r="3.2" fill="#1d4ed8"/>
<circle cx="720.00" cy="437.83" r="3.2" fill="#1d4ed8"/>
<circle cx="725.00" cy="436.62" r="3.2" fill="#1d4ed8"/>
<circle cx="730.00" cy="436.62" r="3.2" fill="#1d4ed8"/>
<circle cx="735.00" cy="434.60" r="3.2" fill="#1d4ed8"/>
<circle cx="740.00" cy="432.17" r="3.2" fill="#1d4ed8"/>
<circle cx="745.00" cy="429.34" r="3.2" fill="#1d4ed8"/>
<circle cx="750.00" cy="428.93" r="3.2" fill="#1d4ed8"/>
<circle cx="755.00" cy="428.53" r="3.2" fill="#1d4ed8"/>
<circle cx="760.00" cy="427.72" r="3.2" fill="#1d4ed8"/>
<circle cx="765.00" cy="426.91" r="3.2" fill="#1d4ed8"/>
<circle cx="770.00" cy="426.10" r="3.2" fill="#1d4ed8"/>
<circle cx="775.00" cy="426.10" r="3.2" fill="#1d4ed8"/>
<circle cx="780.00" cy="426.10" r="3.2" fill="#1d4ed8"/>
<circle cx="785.00" cy="419.63" r="3.2" fill="#1d4ed8"/>
<circle cx="790.00" cy="419.23" r="3.2" fill="#1d4ed8"/>
<circle cx="795.00" cy="418.42" r="3.2" fill="#1d4ed8"/>
<circle cx="800.00" cy="418.01" r="3.2" fill="#1d4ed8"/>
<circle cx="805.00" cy="417.61" r="3.2" fill="#1d4ed8"/>
<circle cx="810.00" cy="417.61" r="3.2" fill="#1d4ed8"/>
<circle cx="815.00" cy="417.61" r="3.2" fill="#1d4ed8"/>
<circle cx="820.00" cy="417.21" r="3.2" fill="#1d4ed8"/>
<circle cx="825.00" cy="417.21" r="3.2" fill="#1d4ed8"/>
<circle cx="830.00" cy="413.57" r="3.2" fill="#1d4ed8"/>
<circle cx="835.00" cy="411.95" r="3.2" fill="#1d4ed8"/>
<circle cx="840.00" cy="412.76" r="3.2" fill="#1d4ed8"/>
<circle cx="845.00" cy="410.74" r="3.2" fill="#1d4ed8"/>
<circle cx="850.00" cy="410.74" r="3.2" fill="#1d4ed8"/>
<circle cx="855.00" cy="410.33" r="3.2" fill="#1d4ed8"/>
<circle cx="860.00" cy="410.33" r="3.2" fill="#1d4ed8"/>
<circle cx="865.00" cy="410.33" r="3.2" fill="#1d4ed8"/>
<circle cx="870.00" cy="409.93" r="3.2" fill="#1d4ed8"/>
<circle cx="875.00" cy="409.93" r="3.2" fill="#1d4ed8"/>
<circle cx="880.00" cy="409.93" r="3.2" fill="#1d4ed8"/>
<circle cx="885.00" cy="409.52" r="3.2" fill="#1d4ed8"/>
<circle cx="890.00" cy="409.52" r="3.2" fill="#1d4ed8"/>
<circle cx="895.00" cy="409.12" r="3.2" fill="#1d4ed8"/>
<circle cx="900.00" cy="409.52" r="3.2" fill="#1d4ed8"/>
<circle cx="905.00" cy="409.12" r="3.2" fill="#1d4ed8"/>
<circle cx="910.00" cy="407.50" r="3.2" fill="#1d4ed8"/>
<circle cx="915.00" cy="407.10" r="3.2" fill="#1d4ed8"/>
<circle cx="920.00" cy="403.05" r="3.2" fill="#1d4ed8"/>
<circle cx="925.00" cy="399.82" r="3.2" fill="#1d4ed8"/>
<circle cx="930.00" cy="400.22" r="3.2" fill="#1d4ed8"/>
<circle cx="935.00" cy="400.62" r="3.2" fill="#1d4ed8"/>
<circle cx="940.00" cy="400.62" r="3.2" fill="#1d4ed8"/>
<circle cx="945.00" cy="399.41" r="3.2" fill="#1d4ed8"/>
<circle cx="950.00" cy="392.94" r="3.2" fill="#1d4ed8"/>
<circle cx="955.00" cy="391.32" r="3.2" fill="#1d4ed8"/>
<circle cx="960.00" cy="389.30" r="3.2" fill="#1d4ed8"/>
<circle cx="965.00" cy="389.30" r="3.2" fill="#1d4ed8"/>
<circle cx="970.00" cy="388.49" r="3.2" fill="#1d4ed8"/>
<circle cx="975.00" cy="375.15" r="3.2" fill="#1d4ed8"/>
<circle cx="980.00" cy="374.74" r="3.2" fill="#1d4ed8"/>
<circle cx="985.00" cy="374.74" r="3.2" fill="#1d4ed8"/>
<circle cx="990.00" cy="374.74" r="3.2" fill="#1d4ed8"/>
<circle cx="995.00" cy="374.74" r="3.2" fill="#1d4ed8"/>
<circle cx="1000.00" cy="374.34" r="3.2" fill="#1d4ed8"/>
<circle cx="1005.00" cy="374.34" r="3.2" fill="#1d4ed8"/>
<circle cx="1010.00" cy="374.34" r="3.2" fill="#1d4ed8"/>
<circle cx="1015.00" cy="374.34" r="3.2" fill="#1d4ed8"/>
<circle cx="1020.00" cy="374.34" r="3.2" fill="#1d4ed8"/>
<circle cx="1025.00" cy="373.93" r="3.2" fill="#1d4ed8"/>
<circle cx="1030.00" cy="373.12" r="3.2" fill="#1d4ed8"/>
<circle cx="1035.00" cy="372.72" r="3.2" fill="#1d4ed8"/>
<circle cx="1040.00" cy="373.53" r="3.2" fill="#1d4ed8"/>
<circle cx="1045.00" cy="435.81" r="3.2" fill="#1d4ed8"/>
<circle cx="1050.00" cy="372.32" r="3.2" fill="#1d4ed8"/>
<circle cx="1055.00" cy="372.72" r="3.2" fill="#1d4ed8"/>
<circle cx="1060.00" cy="371.91" r="3.2" fill="#1d4ed8"/>
<circle cx="1065.00" cy="371.91" r="3.2" fill="#1d4ed8"/>
<circle cx="1070.00" cy="372.32" r="3.2" fill="#1d4ed8"/>
<circle cx="1075.00" cy="371.10" r="3.2" fill="#1d4ed8"/>
<circle cx="1080.00" cy="369.89" r="3.2" fill="#1d4ed8"/>
<circle cx="1085.00" cy="369.89" r="3.2" fill="#1d4ed8"/>
<circle cx="1090.00" cy="369.89" r="3.2" fill="#1d4ed8"/>
<circle cx="1095.00" cy="369.49" r="3.2" fill="#1d4ed8"/>
<circle cx="1100.00" cy="369.89" r="3.2" fill="#1d4ed8"/>
<circle cx="1105.00" cy="369.08" r="3.2" fill="#1d4ed8"/>
<circle cx="1110.00" cy="368.68" r="3.2" fill="#1d4ed8"/>
<circle cx="1115.00" cy="368.27" r="3.2" fill="#1d4ed8"/>
<circle cx="1120.00" cy="367.87" r="3.2" fill="#1d4ed8"/>
<circle cx="1125.00" cy="367.06" r="3.2" fill="#1d4ed8"/>
<circle cx="1130.00" cy="367.46" r="3.2" fill="#1d4ed8"/>
<circle cx="1135.00" cy="367.06" r="3.2" fill="#1d4ed8"/>
<circle cx="1140.00" cy="366.25" r="3.2" fill="#1d4ed8"/>
<circle cx="1145.00" cy="368.27" r="3.2" fill="#1d4ed8"/>
<circle cx="1150.00" cy="368.68" r="3.2" fill="#1d4ed8"/>
<circle cx="1155.00" cy="368.68" r="3.2" fill="#1d4ed8"/>
<circle cx="1160.00" cy="368.27" r="3.2" fill="#1d4ed8"/>
<circle cx="1165.00" cy="369.08" r="3.2" fill="#1d4ed8"/>
<circle cx="1170.00" cy="367.87" r="3.2" fill="#1d4ed8"/>
<circle cx="1175.00" cy="367.46" r="3.2" fill="#1d4ed8"/>
<circle cx="1180.00" cy="367.06" r="3.2" fill="#1d4ed8"/>
<text x="635" y="695" text-anchor="middle" font-size="14" fill="#111" font-family="sans-serif">Date</text>
<text x="24" y="325" text-anchor="middle" font-size="14" fill="#111" transform="rotate(-90 24,325)" font-family="sans-serif">Passed files</text>
</svg>
