<?xml version="1.0" encoding="UTF-8"?>
<svg xmlns="http://www.w3.org/2000/svg" width="1280" height="720" viewBox="0 0 1280 720">
<rect width="100%" height="100%" fill="#ffffff"/>
<text x="640" y="30" text-anchor="middle" font-size="22" font-family="sans-serif">Roast passed files history</text>
<line x1="90" y1="600" x2="1180" y2="600" stroke="#333" stroke-width="1.5"/>
<line x1="90" y1="50" x2="90" y2="600" stroke="#333" stroke-width="1.5"/>
<line x1="90" y1="600.00" x2="1180" y2="600.00" stroke="#e5e7eb" stroke-width="1"/>
<text x="78" y="605.00" text-anchor="end" font-size="12" fill="#111" font-family="sans-serif">0</text>
<line x1="90" y1="397.79" x2="1180" y2="397.79" stroke="#e5e7eb" stroke-width="1"/>
<text x="78" y="402.79" text-anchor="end" font-size="12" fill="#111" font-family="sans-serif">500</text>
<line x1="90" y1="195.59" x2="1180" y2="195.59" stroke="#e5e7eb" stroke-width="1"/>
<text x="78" y="200.59" text-anchor="end" font-size="12" fill="#111" font-family="sans-serif">1000</text>
<line x1="90.00" y1="600" x2="90.00" y2="606" stroke="#333" stroke-width="1"/>
<text x="90.00" y="624" text-anchor="end" font-size="11" fill="#111" transform="rotate(-40 90.00,624)" font-family="sans-serif">2026-02-12</text>
<line x1="225.17" y1="600" x2="225.17" y2="606" stroke="#333" stroke-width="1"/>
<text x="225.17" y="624" text-anchor="end" font-size="11" fill="#111" transform="rotate(-40 225.17,624)" font-family="sans-serif">2026-02-17</text>
<line x1="360.34" y1="600" x2="360.34" y2="606" stroke="#333" stroke-width="1"/>
<text x="360.34" y="624" text-anchor="end" font-size="11" fill="#111" transform="rotate(-40 360.34,624)" font-family="sans-serif">2026-02-22</text>
<line x1="495.51" y1="600" x2="495.51" y2="606" stroke="#333" stroke-width="1"/>
<text x="495.51" y="624" text-anchor="end" font-size="11" fill="#111" transform="rotate(-40 495.51,624)" font-family="sans-serif">2026-02-26</text>
<line x1="630.69" y1="600" x2="630.69" y2="606" stroke="#333" stroke-width="1"/>
<text x="630.69" y="624" text-anchor="end" font-size="11" fill="#111" transform="rotate(-40 630.69,624)" font-family="sans-serif">2026-02-28</text>
<line x1="765.86" y1="600" x2="765.86" y2="606" stroke="#333" stroke-width="1"/>
<text x="765.86" y="624" text-anchor="end" font-size="11" fill="#111" transform="rotate(-40 765.86,624)" font-family="sans-serif">2026-03-06</text>
<line x1="901.03" y1="600" x2="901.03" y2="606" stroke="#333" stroke-width="1"/>
<text x="901.03" y="624" text-anchor="end" font-size="11" fill="#111" transform="rotate(-40 901.03,624)" font-family="sans-serif">2026-03-07</text>
<line x1="1036.20" y1="600" x2="1036.20" y2="606" stroke="#333" stroke-width="1"/>
<text x="1036.20" y="624" text-anchor="end" font-size="11" fill="#111" transform="rotate(-40 1036.20,624)" font-family="sans-serif">2026-03-11</text>
<line x1="1171.37" y1="600" x2="1171.37" y2="606" stroke="#333" stroke-width="1"/>
<text x="1171.37" y="624" text-anchor="end" font-size="11" fill="#111" transform="rotate(-40 1171.37,624)" font-family="sans-serif">2026-03-18</text>
<line x1="1180.00" y1="600" x2="1180.00" y2="606" stroke="#333" stroke-width="1"/>
<text x="1180.00" y="624" text-anchor="end" font-size="11" fill="#111" transform="rotate(-40 1180.00,624)" font-family="sans-serif">2026-03-19</text>
<line x1="90" y1="75.88" x2="1180" y2="75.88" stroke="#dc2626" stroke-width="1.5" stroke-dasharray="8,4"/>
<text x="1184" y="79.88" font-size="12" fill="#dc2626" font-family="sans-serif">Goal: 1296</text>
<polyline fill="none" stroke="#2563eb" stroke-width="3" points="90.00,540.55 92.88,538.53 95.75,536.91 98.63,534.49 101.50,534.49 104.38,533.27 107.26,532.46 110.13,532.87 113.01,532.06 115.88,532.46 118.76,532.06 121.64,568.46 124.51,568.46 127.39,566.43 130.26,545.00 133.14,545.00 136.02,544.19 138.89,543.79 141.77,543.79 144.64,543.38 147.52,541.76 150.40,541.36 153.27,540.96 156.15,540.96 159.02,539.34 161.90,539.34 164.78,556.73 167.65,556.73 170.53,555.51 173.40,551.07 176.28,538.93 179.16,538.93 182.03,538.93 184.91,538.12 187.78,536.91 190.66,536.91 193.54,536.51 196.41,536.51 199.29,556.73 202.16,556.73 205.04,556.73 207.92,556.73 210.79,535.29 213.67,535.29 216.54,535.29 219.42,535.29 222.30,534.49 225.17,534.08 228.05,533.68 230.92,532.87 233.80,532.06 236.68,532.06 239.55,531.25 242.43,530.85 245.30,530.44 248.18,530.04 251.06,530.04 253.93,529.23 256.81,529.23 259.68,529.23 262.56,528.42 265.44,528.42 268.31,527.61 271.19,527.21 274.06,526.80 276.94,526.40 279.82,525.18 282.69,523.57 285.57,523.57 288.44,523.16 291.32,522.76 294.20,522.35 297.07,521.54 299.95,519.52 302.82,517.50 305.70,517.50 308.58,517.50 311.45,517.50 314.33,517.50 317.20,517.50 320.08,517.10 322.96,516.69 325.83,515.48 328.71,515.07 331.58,514.67 334.46,513.86 337.34,514.26 340.21,512.24 343.09,511.84 345.96,511.84 348.84,511.03 351.72,509.82 354.59,507.79 357.47,506.99 360.34,506.58 363.22,509.41 366.09,509.01 368.97,504.96 371.85,504.56 374.72,504.15 377.60,504.56 380.47,503.75 383.35,503.75 386.23,503.35 389.10,499.30 391.98,496.47 394.85,490.00 397.73,484.34 400.61,481.10 403.48,480.29 406.36,480.70 409.23,460.88 412.11,459.26 414.99,458.05 417.86,456.03 420.74,456.03 423.61,454.41 426.49,450.77 429.37,444.30 432.24,443.90 435.12,600.00 437.99,441.88 440.87,440.66 443.75,439.45 446.62,439.04 449.50,438.64 452.37,437.83 455.25,436.62 458.13,436.62 461.00,434.60 463.88,432.17 466.75,429.34 469.63,428.93 472.51,428.53 475.38,427.72 478.26,426.91 481.13,426.10 484.01,426.10 486.89,426.10 489.76,419.63 492.64,419.23 495.51,418.42 498.39,418.01 501.27,417.61 504.14,417.61 507.02,417.61 509.89,417.21 512.77,417.21 515.65,413.57 518.52,411.95 521.40,412.76 524.27,410.74 527.15,410.74 530.03,410.33 532.90,410.33 535.78,410.33 538.65,409.93 541.53,409.93 544.41,409.93 547.28,409.52 550.16,409.52 553.03,409.12 555.91,409.52 558.79,409.12 561.66,407.50 564.54,407.10 567.41,403.05 570.29,399.82 573.17,400.22 576.04,400.62 578.92,400.62 581.79,399.41 584.67,392.94 587.55,391.32 590.42,389.30 593.30,389.30 596.17,388.49 599.05,375.15 601.93,374.74 604.80,374.74 607.68,374.74 610.55,374.74 613.43,374.34 616.31,374.34 619.18,374.34 622.06,374.34 624.93,374.34 627.81,373.93 630.69,373.12 633.56,372.72 636.44,373.53 639.31,435.81 642.19,372.32 645.07,372.72 647.94,371.91 650.82,371.91 653.69,372.32 656.57,371.10 659.45,369.89 662.32,369.89 665.20,369.89 668.07,369.49 670.95,369.89 673.83,369.08 676.70,368.68 679.58,368.27 682.45,367.87 685.33,367.06 688.21,367.46 691.08,367.06 693.96,366.25 696.83,368.27 699.71,368.68 702.59,368.68 705.46,368.27 708.34,369.08 711.21,367.87 714.09,367.46 716.97,367.06 719.84,360.18 722.72,359.78 725.59,359.38 728.47,356.95 731.35,357.35 734.22,357.76 737.10,355.33 739.97,355.74 742.85,357.35 745.73,355.33 748.60,356.14 751.48,355.74 754.35,356.14 757.23,354.12 760.11,354.93 762.98,356.14 765.86,354.52 768.73,353.71 771.61,354.12 774.49,354.93 777.36,352.90 780.24,353.71 783.11,353.31 785.99,353.31 788.87,354.52 791.74,352.90 794.62,352.50 797.49,352.50 800.37,353.31 803.25,352.50 806.12,353.71 809.00,354.12 811.87,352.50 814.75,352.90 817.63,352.50 820.50,352.10 823.38,351.69 826.25,352.10 829.13,354.12 832.01,352.50 834.88,352.10 837.76,352.10 840.63,349.67 843.51,349.67 846.39,350.88 849.26,351.29 852.14,350.48 855.01,352.10 857.89,350.48 860.77,350.48 863.64,350.48 866.52,350.07 869.39,348.46 872.27,351.29 875.15,349.67 878.02,351.29 880.90,349.67 883.77,348.86 886.65,348.46 889.53,348.46 892.40,347.24 895.28,348.86 898.15,346.84 901.03,348.46 903.91,348.86 906.78,346.84 909.66,349.26 912.53,348.05 915.41,349.26 918.28,349.26 921.16,350.48 924.04,352.90 926.91,349.67 929.79,348.46 932.66,345.62 935.54,344.82 938.42,344.41 941.29,342.39 944.17,341.18 947.04,341.58 949.92,339.15 952.80,338.35 955.67,337.54 958.55,336.73 961.42,335.92 964.30,337.54 967.18,338.35 970.05,337.54 972.93,337.54 975.80,337.54 978.68,333.09 981.56,333.90 984.43,335.92 987.31,336.73 990.18,335.51 993.06,332.28 995.94,331.47 998.81,331.07 1001.69,331.47 1004.56,331.07 1007.44,331.07 1010.32,331.07 1013.19,331.07 1016.07,331.07 1018.94,331.07 1021.82,331.07 1024.70,331.07 1027.57,331.07 1030.45,331.07 1033.32,331.47 1036.20,331.88 1039.08,331.07 1041.95,331.47 1044.83,331.07 1047.70,331.47 1050.58,331.07 1053.46,324.19 1056.33,324.19 1059.21,318.93 1062.08,316.51 1064.96,310.44 1067.84,308.01 1070.71,600.00 1073.59,301.54 1076.46,290.22 1079.34,287.79 1082.22,286.18 1085.09,285.77 1087.97,285.77 1090.84,285.77 1093.72,286.18 1096.60,285.77 1099.47,285.77 1102.35,285.77 1105.22,283.35 1108.10,282.94 1110.98,282.94 1113.85,283.35 1116.73,282.94 1119.60,282.94 1122.48,283.75 1125.36,282.13 1128.23,282.13 1131.11,282.54 1133.98,282.13 1136.86,282.54 1139.74,282.94 1142.61,281.73 1145.49,282.54 1148.36,281.73 1151.24,282.54 1154.12,282.13 1156.99,282.13 1159.87,281.73 1162.74,281.73 1165.62,281.32 1168.50,281.73 1171.37,282.13 1174.25,281.32 1177.12,281.32 1180.00,282.54"/>
<circle cx="90.00" cy="540.55" r="3.2" fill="#1d4ed8"/>
<circle cx="92.88" cy="538.53" r="3.2" fill="#1d4ed8"/>
<circle cx="95.75" cy="536.91" r="3.2" fill="#1d4ed8"/>
<circle cx="98.63" cy="534.49" r="3.2" fill="#1d4ed8"/>
<circle cx="101.50" cy="534.49" r="3.2" fill="#1d4ed8"/>
<circle cx="104.38" cy="533.27" r="3.2" fill="#1d4ed8"/>
<circle cx="107.26" cy="532.46" r="3.2" fill="#1d4ed8"/>
<circle cx="110.13" cy="532.87" r="3.2" fill="#1d4ed8"/>
<circle cx="113.01" cy="532.06" r="3.2" fill="#1d4ed8"/>
<circle cx="115.88" cy="532.46" r="3.2" fill="#1d4ed8"/>
<circle cx="118.76" cy="532.06" r="3.2" fill="#1d4ed8"/>
<circle cx="121.64" cy="568.46" r="3.2" fill="#1d4ed8"/>
<circle cx="124.51" cy="568.46" r="3.2" fill="#1d4ed8"/>
<circle cx="127.39" cy="566.43" r="3.2" fill="#1d4ed8"/>
<circle cx="130.26" cy="545.00" r="3.2" fill="#1d4ed8"/>
<circle cx="133.14" cy="545.00" r="3.2" fill="#1d4ed8"/>
<circle cx="136.02" cy="544.19" r="3.2" fill="#1d4ed8"/>
<circle cx="138.89" cy="543.79" r="3.2" fill="#1d4ed8"/>
<circle cx="141.77" cy="543.79" r="3.2" fill="#1d4ed8"/>
<circle cx="144.64" cy="543.38" r="3.2" fill="#1d4ed8"/>
<circle cx="147.52" cy="541.76" r="3.2" fill="#1d4ed8"/>
<circle cx="150.40" cy="541.36" r="3.2" fill="#1d4ed8"/>
<circle cx="153.27" cy="540.96" r="3.2" fill="#1d4ed8"/>
<circle cx="156.15" cy="540.96" r="3.2" fill="#1d4ed8"/>
<circle cx="159.02" cy="539.34" r="3.2" fill="#1d4ed8"/>
<circle cx="161.90" cy="539.34" r="3.2" fill="#1d4ed8"/>
<circle cx="164.78" cy="556.73" r="3.2" fill="#1d4ed8"/>
<circle cx="167.65" cy="556.73" r="3.2" fill="#1d4ed8"/>
<circle cx="170.53" cy="555.51" r="3.2" fill="#1d4ed8"/>
<circle cx="173.40" cy="551.07" r="3.2" fill="#1d4ed8"/>
<circle cx="176.28" cy="538.93" r="3.2" fill="#1d4ed8"/>
<circle cx="179.16" cy="538.93" r="3.2" fill="#1d4ed8"/>
<circle cx="182.03" cy="538.93" r="3.2" fill="#1d4ed8"/>
<circle cx="184.91" cy="538.12" r="3.2" fill="#1d4ed8"/>
<circle cx="187.78" cy="536.91" r="3.2" fill="#1d4ed8"/>
<circle cx="190.66" cy="536.91" r="3.2" fill="#1d4ed8"/>
<circle cx="193.54" cy="536.51" r="3.2" fill="#1d4ed8"/>
<circle cx="196.41" cy="536.51" r="3.2" fill="#1d4ed8"/>
<circle cx="199.29" cy="556.73" r="3.2" fill="#1d4ed8"/>
<circle cx="202.16" cy="556.73" r="3.2" fill="#1d4ed8"/>
<circle cx="205.04" cy="556.73" r="3.2" fill="#1d4ed8"/>
<circle cx="207.92" cy="556.73" r="3.2" fill="#1d4ed8"/>
<circle cx="210.79" cy="535.29" r="3.2" fill="#1d4ed8"/>
<circle cx="213.67" cy="535.29" r="3.2" fill="#1d4ed8"/>
<circle cx="216.54" cy="535.29" r="3.2" fill="#1d4ed8"/>
<circle cx="219.42" cy="535.29" r="3.2" fill="#1d4ed8"/>
<circle cx="222.30" cy="534.49" r="3.2" fill="#1d4ed8"/>
<circle cx="225.17" cy="534.08" r="3.2" fill="#1d4ed8"/>
<circle cx="228.05" cy="533.68" r="3.2" fill="#1d4ed8"/>
<circle cx="230.92" cy="532.87" r="3.2" fill="#1d4ed8"/>
<circle cx="233.80" cy="532.06" r="3.2" fill="#1d4ed8"/>
<circle cx="236.68" cy="532.06" r="3.2" fill="#1d4ed8"/>
<circle cx="239.55" cy="531.25" r="3.2" fill="#1d4ed8"/>
<circle cx="242.43" cy="530.85" r="3.2" fill="#1d4ed8"/>
<circle cx="245.30" cy="530.44" r="3.2" fill="#1d4ed8"/>
<circle cx="248.18" cy="530.04" r="3.2" fill="#1d4ed8"/>
<circle cx="251.06" cy="530.04" r="3.2" fill="#1d4ed8"/>
<circle cx="253.93" cy="529.23" r="3.2" fill="#1d4ed8"/>
<circle cx="256.81" cy="529.23" r="3.2" fill="#1d4ed8"/>
<circle cx="259.68" cy="529.23" r="3.2" fill="#1d4ed8"/>
<circle cx="262.56" cy="528.42" r="3.2" fill="#1d4ed8"/>
<circle cx="265.44" cy="528.42" r="3.2" fill="#1d4ed8"/>
<circle cx="268.31" cy="527.61" r="3.2" fill="#1d4ed8"/>
<circle cx="271.19" cy="527.21" r="3.2" fill="#1d4ed8"/>
<circle cx="274.06" cy="526.80" r="3.2" fill="#1d4ed8"/>
<circle cx="276.94" cy="526.40" r="3.2" fill="#1d4ed8"/>
<circle cx="279.82" cy="525.18" r="3.2" fill="#1d4ed8"/>
<circle cx="282.69" cy="523.57" r="3.2" fill="#1d4ed8"/>
<circle cx="285.57" cy="523.57" r="3.2" fill="#1d4ed8"/>
<circle cx="288.44" cy="523.16" r="3.2" fill="#1d4ed8"/>
<circle cx="291.32" cy="522.76" r="3.2" fill="#1d4ed8"/>
<circle cx="294.20" cy="522.35" r="3.2" fill="#1d4ed8"/>
<circle cx="297.07" cy="521.54" r="3.2" fill="#1d4ed8"/>
<circle cx="299.95" cy="519.52" r="3.2" fill="#1d4ed8"/>
<circle cx="302.82" cy="517.50" r="3.2" fill="#1d4ed8"/>
<circle cx="305.70" cy="517.50" r="3.2" fill="#1d4ed8"/>
<circle cx="308.58" cy="517.50" r="3.2" fill="#1d4ed8"/>
<circle cx="311.45" cy="517.50" r="3.2" fill="#1d4ed8"/>
<circle cx="314.33" cy="517.50" r="3.2" fill="#1d4ed8"/>
<circle cx="317.20" cy="517.50" r="3.2" fill="#1d4ed8"/>
<circle cx="320.08" cy="517.10" r="3.2" fill="#1d4ed8"/>
<circle cx="322.96" cy="516.69" r="3.2" fill="#1d4ed8"/>
<circle cx="325.83" cy="515.48" r="3.2" fill="#1d4ed8"/>
<circle cx="328.71" cy="515.07" r="3.2" fill="#1d4ed8"/>
<circle cx="331.58" cy="514.67" r="3.2" fill="#1d4ed8"/>
<circle cx="334.46" cy="513.86" r="3.2" fill="#1d4ed8"/>
<circle cx="337.34" cy="514.26" r="3.2" fill="#1d4ed8"/>
<circle cx="340.21" cy="512.24" r="3.2" fill="#1d4ed8"/>
<circle cx="343.09" cy="511.84" r="3.2" fill="#1d4ed8"/>
<circle cx="345.96" cy="511.84" r="3.2" fill="#1d4ed8"/>
<circle cx="348.84" cy="511.03" r="3.2" fill="#1d4ed8"/>
<circle cx="351.72" cy="509.82" r="3.2" fill="#1d4ed8"/>
<circle cx="354.59" cy="507.79" r="3.2" fill="#1d4ed8"/>
<circle cx="357.47" cy="506.99" r="3.2" fill="#1d4ed8"/>
<circle cx="360.34" cy="506.58" r="3.2" fill="#1d4ed8"/>
<circle cx="363.22" cy="509.41" r="3.2" fill="#1d4ed8"/>
<circle cx="366.09" cy="509.01" r="3.2" fill="#1d4ed8"/>
<circle cx="368.97" cy="504.96" r="3.2" fill="#1d4ed8"/>
<circle cx="371.85" cy="504.56" r="3.2" fill="#1d4ed8"/>
<circle cx="374.72" cy="504.15" r="3.2" fill="#1d4ed8"/>
<circle cx="377.60" cy="504.56" r="3.2" fill="#1d4ed8"/>
<circle cx="380.47" cy="503.75" r="3.2" fill="#1d4ed8"/>
<circle cx="383.35" cy="503.75" r="3.2" fill="#1d4ed8"/>
<circle cx="386.23" cy="503.35" r="3.2" fill="#1d4ed8"/>
<circle cx="389.10" cy="499.30" r="3.2" fill="#1d4ed8"/>
<circle cx="391.98" cy="496.47" r="3.2" fill="#1d4ed8"/>
<circle cx="394.85" cy="490.00" r="3.2" fill="#1d4ed8"/>
<circle cx="397.73" cy="484.34" r="3.2" fill="#1d4ed8"/>
<circle cx="400.61" cy="481.10" r="3.2" fill="#1d4ed8"/>
<circle cx="403.48" cy="480.29" r="3.2" fill="#1d4ed8"/>
<circle cx="406.36" cy="480.70" r="3.2" fill="#1d4ed8"/>
<circle cx="409.23" cy="460.88" r="3.2" fill="#1d4ed8"/>
<circle cx="412.11" cy="459.26" r="3.2" fill="#1d4ed8"/>
<circle cx="414.99" cy="458.05" r="3.2" fill="#1d4ed8"/>
<circle cx="417.86" cy="456.03" r="3.2" fill="#1d4ed8"/>
<circle cx="420.74" cy="456.03" r="3.2" fill="#1d4ed8"/>
<circle cx="423.61" cy="454.41" r="3.2" fill="#1d4ed8"/>
<circle cx="426.49" cy="450.77" r="3.2" fill="#1d4ed8"/>
<circle cx="429.37" cy="444.30" r="3.2" fill="#1d4ed8"/>
<circle cx="432.24" cy="443.90" r="3.2" fill="#1d4ed8"/>
<circle cx="435.12" cy="600.00" r="3.2" fill="#1d4ed8"/>
<circle cx="437.99" cy="441.88" r="3.2" fill="#1d4ed8"/>
<circle cx="440.87" cy="440.66" r="3.2" fill="#1d4ed8"/>
<circle cx="443.75" cy="439.45" r="3.2" fill="#1d4ed8"/>
<circle cx="446.62" cy="439.04" r="3.2" fill="#1d4ed8"/>
<circle cx="449.50" cy="438.64" r="3.2" fill="#1d4ed8"/>
<circle cx="452.37" cy="437.83" r="3.2" fill="#1d4ed8"/>
<circle cx="455.25" cy="436.62" r="3.2" fill="#1d4ed8"/>
<circle cx="458.13" cy="436.62" r="3.2" fill="#1d4ed8"/>
<circle cx="461.00" cy="434.60" r="3.2" fill="#1d4ed8"/>
<circle cx="463.88" cy="432.17" r="3.2" fill="#1d4ed8"/>
<circle cx="466.75" cy="429.34" r="3.2" fill="#1d4ed8"/>
<circle cx="469.63" cy="428.93" r="3.2" fill="#1d4ed8"/>
<circle cx="472.51" cy="428.53" r="3.2" fill="#1d4ed8"/>
<circle cx="475.38" cy="427.72" r="3.2" fill="#1d4ed8"/>
<circle cx="478.26" cy="426.91" r="3.2" fill="#1d4ed8"/>
<circle cx="481.13" cy="426.10" r="3.2" fill="#1d4ed8"/>
<circle cx="484.01" cy="426.10" r="3.2" fill="#1d4ed8"/>
<circle cx="486.89" cy="426.10" r="3.2" fill="#1d4ed8"/>
<circle cx="489.76" cy="419.63" r="3.2" fill="#1d4ed8"/>
<circle cx="492.64" cy="419.23" r="3.2" fill="#1d4ed8"/>
<circle cx="495.51" cy="418.42" r="3.2" fill="#1d4ed8"/>
<circle cx="498.39" cy="418.01" r="3.2" fill="#1d4ed8"/>
<circle cx="501.27" cy="417.61" r="3.2" fill="#1d4ed8"/>
<circle cx="504.14" cy="417.61" r="3.2" fill="#1d4ed8"/>
<circle cx="507.02" cy="417.61" r="3.2" fill="#1d4ed8"/>
<circle cx="509.89" cy="417.21" r="3.2" fill="#1d4ed8"/>
<circle cx="512.77" cy="417.21" r="3.2" fill="#1d4ed8"/>
<circle cx="515.65" cy="413.57" r="3.2" fill="#1d4ed8"/>
<circle cx="518.52" cy="411.95" r="3.2" fill="#1d4ed8"/>
<circle cx="521.40" cy="412.76" r="3.2" fill="#1d4ed8"/>
<circle cx="524.27" cy="410.74" r="3.2" fill="#1d4ed8"/>
<circle cx="527.15" cy="410.74" r="3.2" fill="#1d4ed8"/>
<circle cx="530.03" cy="410.33" r="3.2" fill="#1d4ed8"/>
<circle cx="532.90" cy="410.33" r="3.2" fill="#1d4ed8"/>
<circle cx="535.78" cy="410.33" r="3.2" fill="#1d4ed8"/>
<circle cx="538.65" cy="409.93" r="3.2" fill="#1d4ed8"/>
<circle cx="541.53" cy="409.93" r="3.2" fill="#1d4ed8"/>
<circle cx="544.41" cy="409.93" r="3.2" fill="#1d4ed8"/>
<circle cx="547.28" cy="409.52" r="3.2" fill="#1d4ed8"/>
<circle cx="550.16" cy="409.52" r="3.2" fill="#1d4ed8"/>
<circle cx="553.03" cy="409.12" r="3.2" fill="#1d4ed8"/>
<circle cx="555.91" cy="409.52" r="3.2" fill="#1d4ed8"/>
<circle cx="558.79" cy="409.12" r="3.2" fill="#1d4ed8"/>
<circle cx="561.66" cy="407.50" r="3.2" fill="#1d4ed8"/>
<circle cx="564.54" cy="407.10" r="3.2" fill="#1d4ed8"/>
<circle cx="567.41" cy="403.05" r="3.2" fill="#1d4ed8"/>
<circle cx="570.29" cy="399.82" r="3.2" fill="#1d4ed8"/>
<circle cx="573.17" cy="400.22" r="3.2" fill="#1d4ed8"/>
<circle cx="576.04" cy="400.62" r="3.2" fill="#1d4ed8"/>
<circle cx="578.92" cy="400.62" r="3.2" fill="#1d4ed8"/>
<circle cx="581.79" cy="399.41" r="3.2" fill="#1d4ed8"/>
<circle cx="584.67" cy="392.94" r="3.2" fill="#1d4ed8"/>
<circle cx="587.55" cy="391.32" r="3.2" fill="#1d4ed8"/>
<circle cx="590.42" cy="389.30" r="3.2" fill="#1d4ed8"/>
<circle cx="593.30" cy="389.30" r="3.2" fill="#1d4ed8"/>
<circle cx="596.17" cy="388.49" r="3.2" fill="#1d4ed8"/>
<circle cx="599.05" cy="375.15" r="3.2" fill="#1d4ed8"/>
<circle cx="601.93" cy="374.74" r="3.2" fill="#1d4ed8"/>
<circle cx="604.80" cy="374.74" r="3.2" fill="#1d4ed8"/>
<circle cx="607.68" cy="374.74" r="3.2" fill="#1d4ed8"/>
<circle cx="610.55" cy="374.74" r="3.2" fill="#1d4ed8"/>
<circle cx="613.43" cy="374.34" r="3.2" fill="#1d4ed8"/>
<circle cx="616.31" cy="374.34" r="3.2" fill="#1d4ed8"/>
<circle cx="619.18" cy="374.34" r="3.2" fill="#1d4ed8"/>
<circle cx="622.06" cy="374.34" r="3.2" fill="#1d4ed8"/>
<circle cx="624.93" cy="374.34" r="3.2" fill="#1d4ed8"/>
<circle cx="627.81" cy="373.93" r="3.2" fill="#1d4ed8"/>
<circle cx="630.69" cy="373.12" r="3.2" fill="#1d4ed8"/>
<circle cx="633.56" cy="372.72" r="3.2" fill="#1d4ed8"/>
<circle cx="636.44" cy="373.53" r="3.2" fill="#1d4ed8"/>
<circle cx="639.31" cy="435.81" r="3.2" fill="#1d4ed8"/>
<circle cx="642.19" cy="372.32" r="3.2" fill="#1d4ed8"/>
<circle cx="645.07" cy="372.72" r="3.2" fill="#1d4ed8"/>
<circle cx="647.94" cy="371.91" r="3.2" fill="#1d4ed8"/>
<circle cx="650.82" cy="371.91" r="3.2" fill="#1d4ed8"/>
<circle cx="653.69" cy="372.32" r="3.2" fill="#1d4ed8"/>
<circle cx="656.57" cy="371.10" r="3.2" fill="#1d4ed8"/>
<circle cx="659.45" cy="369.89" r="3.2" fill="#1d4ed8"/>
<circle cx="662.32" cy="369.89" r="3.2" fill="#1d4ed8"/>
<circle cx="665.20" cy="369.89" r="3.2" fill="#1d4ed8"/>
<circle cx="668.07" cy="369.49" r="3.2" fill="#1d4ed8"/>
<circle cx="670.95" cy="369.89" r="3.2" fill="#1d4ed8"/>
<circle cx="673.83" cy="369.08" r="3.2" fill="#1d4ed8"/>
<circle cx="676.70" cy="368.68" r="3.2" fill="#1d4ed8"/>
<circle cx="679.58" cy="368.27" r="3.2" fill="#1d4ed8"/>
<circle cx="682.45" cy="367.87" r="3.2" fill="#1d4ed8"/>
<circle cx="685.33" cy="367.06" r="3.2" fill="#1d4ed8"/>
<circle cx="688.21" cy="367.46" r="3.2" fill="#1d4ed8"/>
<circle cx="691.08" cy="367.06" r="3.2" fill="#1d4ed8"/>
<circle cx="693.96" cy="366.25" r="3.2" fill="#1d4ed8"/>
<circle cx="696.83" cy="368.27" r="3.2" fill="#1d4ed8"/>
<circle cx="699.71" cy="368.68" r="3.2" fill="#1d4ed8"/>
<circle cx="702.59" cy="368.68" r="3.2" fill="#1d4ed8"/>
<circle cx="705.46" cy="368.27" r="3.2" fill="#1d4ed8"/>
<circle cx="708.34" cy="369.08" r="3.2" fill="#1d4ed8"/>
<circle cx="711.21" cy="367.87" r="3.2" fill="#1d4ed8"/>
<circle cx="714.09" cy="367.46" r="3.2" fill="#1d4ed8"/>
<circle cx="716.97" cy="367.06" r="3.2" fill="#1d4ed8"/>
<circle cx="719.84" cy="360.18" r="3.2" fill="#1d4ed8"/>
<circle cx="722.72" cy="359.78" r="3.2" fill="#1d4ed8"/>
<circle cx="725.59" cy="359.38" r="3.2" fill="#1d4ed8"/>
<circle cx="728.47" cy="356.95" r="3.2" fill="#1d4ed8"/>
<circle cx="731.35" cy="357.35" r="3.2" fill="#1d4ed8"/>
<circle cx="734.22" cy="357.76" r="3.2" fill="#1d4ed8"/>
<circle cx="737.10" cy="355.33" r="3.2" fill="#1d4ed8"/>
<circle cx="739.97" cy="355.74" r="3.2" fill="#1d4ed8"/>
<circle cx="742.85" cy="357.35" r="3.2" fill="#1d4ed8"/>
<circle cx="745.73" cy="355.33" r="3.2" fill="#1d4ed8"/>
<circle cx="748.60" cy="356.14" r="3.2" fill="#1d4ed8"/>
<circle cx="751.48" cy="355.74" r="3.2" fill="#1d4ed8"/>
<circle cx="754.35" cy="356.14" r="3.2" fill="#1d4ed8"/>
<circle cx="757.23" cy="354.12" r="3.2" fill="#1d4ed8"/>
<circle cx="760.11" cy="354.93" r="3.2" fill="#1d4ed8"/>
<circle cx="762.98" cy="356.14" r="3.2" fill="#1d4ed8"/>
<circle cx="765.86" cy="354.52" r="3.2" fill="#1d4ed8"/>
<circle cx="768.73" cy="353.71" r="3.2" fill="#1d4ed8"/>
<circle cx="771.61" cy="354.12" r="3.2" fill="#1d4ed8"/>
<circle cx="774.49" cy="354.93" r="3.2" fill="#1d4ed8"/>
<circle cx="777.36" cy="352.90" r="3.2" fill="#1d4ed8"/>
<circle cx="780.24" cy="353.71" r="3.2" fill="#1d4ed8"/>
<circle cx="783.11" cy="353.31" r="3.2" fill="#1d4ed8"/>
<circle cx="785.99" cy="353.31" r="3.2" fill="#1d4ed8"/>
<circle cx="788.87" cy="354.52" r="3.2" fill="#1d4ed8"/>
<circle cx="791.74" cy="352.90" r="3.2" fill="#1d4ed8"/>
<circle cx="794.62" cy="352.50" r="3.2" fill="#1d4ed8"/>
<circle cx="797.49" cy="352.50" r="3.2" fill="#1d4ed8"/>
<circle cx="800.37" cy="353.31" r="3.2" fill="#1d4ed8"/>
<circle cx="803.25" cy="352.50" r="3.2" fill="#1d4ed8"/>
<circle cx="806.12" cy="353.71" r="3.2" fill="#1d4ed8"/>
<circle cx="809.00" cy="354.12" r="3.2" fill="#1d4ed8"/>
<circle cx="811.87" cy="352.50" r="3.2" fill="#1d4ed8"/>
<circle cx="814.75" cy="352.90" r="3.2" fill="#1d4ed8"/>
<circle cx="817.63" cy="352.50" r="3.2" fill="#1d4ed8"/>
<circle cx="820.50" cy="352.10" r="3.2" fill="#1d4ed8"/>
<circle cx="823.38" cy="351.69" r="3.2" fill="#1d4ed8"/>
<circle cx="826.25" cy="352.10" r="3.2" fill="#1d4ed8"/>
<circle cx="829.13" cy="354.12" r="3.2" fill="#1d4ed8"/>
<circle cx="832.01" cy="352.50" r="3.2" fill="#1d4ed8"/>
<circle cx="834.88" cy="352.10" r="3.2" fill="#1d4ed8"/>
<circle cx="837.76" cy="352.10" r="3.2" fill="#1d4ed8"/>
<circle cx="840.63" cy="349.67" r="3.2" fill="#1d4ed8"/>
<circle cx="843.51" cy="349.67" r="3.2" fill="#1d4ed8"/>
<circle cx="846.39" cy="350.88" r="3.2" fill="#1d4ed8"/>
<circle cx="849.26" cy="351.29" r="3.2" fill="#1d4ed8"/>
<circle cx="852.14" cy="350.48" r="3.2" fill="#1d4ed8"/>
<circle cx="855.01" cy="352.10" r="3.2" fill="#1d4ed8"/>
<circle cx="857.89" cy="350.48" r="3.2" fill="#1d4ed8"/>
<circle cx="860.77" cy="350.48" r="3.2" fill="#1d4ed8"/>
<circle cx="863.64" cy="350.48" r="3.2" fill="#1d4ed8"/>
<circle cx="866.52" cy="350.07" r="3.2" fill="#1d4ed8"/>
<circle cx="869.39" cy="348.46" r="3.2" fill="#1d4ed8"/>
<circle cx="872.27" cy="351.29" r="3.2" fill="#1d4ed8"/>
<circle cx="875.15" cy="349.67" r="3.2" fill="#1d4ed8"/>
<circle cx="878.02" cy="351.29" r="3.2" fill="#1d4ed8"/>
<circle cx="880.90" cy="349.67" r="3.2" fill="#1d4ed8"/>
<circle cx="883.77" cy="348.86" r="3.2" fill="#1d4ed8"/>
<circle cx="886.65" cy="348.46" r="3.2" fill="#1d4ed8"/>
<circle cx="889.53" cy="348.46" r="3.2" fill="#1d4ed8"/>
<circle cx="892.40" cy="347.24" r="3.2" fill="#1d4ed8"/>
<circle cx="895.28" cy="348.86" r="3.2" fill="#1d4ed8"/>
<circle cx="898.15" cy="346.84" r="3.2" fill="#1d4ed8"/>
<circle cx="901.03" cy="348.46" r="3.2" fill="#1d4ed8"/>
<circle cx="903.91" cy="348.86" r="3.2" fill="#1d4ed8"/>
<circle cx="906.78" cy="346.84" r="3.2" fill="#1d4ed8"/>
<circle cx="909.66" cy="349.26" r="3.2" fill="#1d4ed8"/>
<circle cx="912.53" cy="348.05" r="3.2" fill="#1d4ed8"/>
<circle cx="915.41" cy="349.26" r="3.2" fill="#1d4ed8"/>
<circle cx="918.28" cy="349.26" r="3.2" fill="#1d4ed8"/>
<circle cx="921.16" cy="350.48" r="3.2" fill="#1d4ed8"/>
<circle cx="924.04" cy="352.90" r="3.2" fill="#1d4ed8"/>
<circle cx="926.91" cy="349.67" r="3.2" fill="#1d4ed8"/>
<circle cx="929.79" cy="348.46" r="3.2" fill="#1d4ed8"/>
<circle cx="932.66" cy="345.62" r="3.2" fill="#1d4ed8"/>
<circle cx="935.54" cy="344.82" r="3.2" fill="#1d4ed8"/>
<circle cx="938.42" cy="344.41" r="3.2" fill="#1d4ed8"/>
<circle cx="941.29" cy="342.39" r="3.2" fill="#1d4ed8"/>
<circle cx="944.17" cy="341.18" r="3.2" fill="#1d4ed8"/>
<circle cx="947.04" cy="341.58" r="3.2" fill="#1d4ed8"/>
<circle cx="949.92" cy="339.15" r="3.2" fill="#1d4ed8"/>
<circle cx="952.80" cy="338.35" r="3.2" fill="#1d4ed8"/>
<circle cx="955.67" cy="337.54" r="3.2" fill="#1d4ed8"/>
<circle cx="958.55" cy="336.73" r="3.2" fill="#1d4ed8"/>
<circle cx="961.42" cy="335.92" r="3.2" fill="#1d4ed8"/>
<circle cx="964.30" cy="337.54" r="3.2" fill="#1d4ed8"/>
<circle cx="967.18" cy="338.35" r="3.2" fill="#1d4ed8"/>
<circle cx="970.05" cy="337.54" r="3.2" fill="#1d4ed8"/>
<circle cx="972.93" cy="337.54" r="3.2" fill="#1d4ed8"/>
<circle cx="975.80" cy="337.54" r="3.2" fill="#1d4ed8"/>
<circle cx="978.68" cy="333.09" r="3.2" fill="#1d4ed8"/>
<circle cx="981.56" cy="333.90" r="3.2" fill="#1d4ed8"/>
<circle cx="984.43" cy="335.92" r="3.2" fill="#1d4ed8"/>
<circle cx="987.31" cy="336.73" r="3.2" fill="#1d4ed8"/>
<circle cx="990.18" cy="335.51" r="3.2" fill="#1d4ed8"/>
<circle cx="993.06" cy="332.28" r="3.2" fill="#1d4ed8"/>
<circle cx="995.94" cy="331.47" r="3.2" fill="#1d4ed8"/>
<circle cx="998.81" cy="331.07" r="3.2" fill="#1d4ed8"/>
<circle cx="1001.69" cy="331.47" r="3.2" fill="#1d4ed8"/>
<circle cx="1004.56" cy="331.07" r="3.2" fill="#1d4ed8"/>
<circle cx="1007.44" cy="331.07" r="3.2" fill="#1d4ed8"/>
<circle cx="1010.32" cy="331.07" r="3.2" fill="#1d4ed8"/>
<circle cx="1013.19" cy="331.07" r="3.2" fill="#1d4ed8"/>
<circle cx="1016.07" cy="331.07" r="3.2" fill="#1d4ed8"/>
<circle cx="1018.94" cy="331.07" r="3.2" fill="#1d4ed8"/>
<circle cx="1021.82" cy="331.07" r="3.2" fill="#1d4ed8"/>
<circle cx="1024.70" cy="331.07" r="3.2" fill="#1d4ed8"/>
<circle cx="1027.57" cy="331.07" r="3.2" fill="#1d4ed8"/>
<circle cx="1030.45" cy="331.07" r="3.2" fill="#1d4ed8"/>
<circle cx="1033.32" cy="331.47" r="3.2" fill="#1d4ed8"/>
<circle cx="1036.20" cy="331.88" r="3.2" fill="#1d4ed8"/>
<circle cx="1039.08" cy="331.07" r="3.2" fill="#1d4ed8"/>
<circle cx="1041.95" cy="331.47" r="3.2" fill="#1d4ed8"/>
<circle cx="1044.83" cy="331.07" r="3.2" fill="#1d4ed8"/>
<circle cx="1047.70" cy="331.47" r="3.2" fill="#1d4ed8"/>
<circle cx="1050.58" cy="331.07" r="3.2" fill="#1d4ed8"/>
<circle cx="1053.46" cy="324.19" r="3.2" fill="#1d4ed8"/>
<circle cx="1056.33" cy="324.19" r="3.2" fill="#1d4ed8"/>
<circle cx="1059.21" cy="318.93" r="3.2" fill="#1d4ed8"/>
<circle cx="1062.08" cy="316.51" r="3.2" fill="#1d4ed8"/>
<circle cx="1064.96" cy="310.44" r="3.2" fill="#1d4ed8"/>
<circle cx="1067.84" cy="308.01" r="3.2" fill="#1d4ed8"/>
<circle cx="1070.71" cy="600.00" r="3.2" fill="#1d4ed8"/>
<circle cx="1073.59" cy="301.54" r="3.2" fill="#1d4ed8"/>
<circle cx="1076.46" cy="290.22" r="3.2" fill="#1d4ed8"/>
<circle cx="1079.34" cy="287.79" r="3.2" fill="#1d4ed8"/>
<circle cx="1082.22" cy="286.18" r="3.2" fill="#1d4ed8"/>
<circle cx="1085.09" cy="285.77" r="3.2" fill="#1d4ed8"/>
<circle cx="1087.97" cy="285.77" r="3.2" fill="#1d4ed8"/>
<circle cx="1090.84" cy="285.77" r="3.2" fill="#1d4ed8"/>
<circle cx="1093.72" cy="286.18" r="3.2" fill="#1d4ed8"/>
<circle cx="1096.60" cy="285.77" r="3.2" fill="#1d4ed8"/>
<circle cx="1099.47" cy="285.77" r="3.2" fill="#1d4ed8"/>
<circle cx="1102.35" cy="285.77" r="3.2" fill="#1d4ed8"/>
<circle cx="1105.22" cy="283.35" r="3.2" fill="#1d4ed8"/>
<circle cx="1108.10" cy="282.94" r="3.2" fill="#1d4ed8"/>
<circle cx="1110.98" cy="282.94" r="3.2" fill="#1d4ed8"/>
<circle cx="1113.85" cy="283.35" r="3.2" fill="#1d4ed8"/>
<circle cx="1116.73" cy="282.94" r="3.2" fill="#1d4ed8"/>
<circle cx="1119.60" cy="282.94" r="3.2" fill="#1d4ed8"/>
<circle cx="1122.48" cy="283.75" r="3.2" fill="#1d4ed8"/>
<circle cx="1125.36" cy="282.13" r="3.2" fill="#1d4ed8"/>
<circle cx="1128.23" cy="282.13" r="3.2" fill="#1d4ed8"/>
<circle cx="1131.11" cy="282.54" r="3.2" fill="#1d4ed8"/>
<circle cx="1133.98" cy="282.13" r="3.2" fill="#1d4ed8"/>
<circle cx="1136.86" cy="282.54" r="3.2" fill="#1d4ed8"/>
<circle cx="1139.74" cy="282.94" r="3.2" fill="#1d4ed8"/>
<circle cx="1142.61" cy="281.73" r="3.2" fill="#1d4ed8"/>
<circle cx="1145.49" cy="282.54" r="3.2" fill="#1d4ed8"/>
<circle cx="1148.36" cy="281.73" r="3.2" fill="#1d4ed8"/>
<circle cx="1151.24" cy="282.54" r="3.2" fill="#1d4ed8"/>
<circle cx="1154.12" cy="282.13" r="3.2" fill="#1d4ed8"/>
<circle cx="1156.99" cy="282.13" r="3.2" fill="#1d4ed8"/>
<circle cx="1159.87" cy="281.73" r="3.2" fill="#1d4ed8"/>
<circle cx="1162.74" cy="281.73" r="3.2" fill="#1d4ed8"/>
<circle cx="1165.62" cy="281.32" r="3.2" fill="#1d4ed8"/>
<circle cx="1168.50" cy="281.73" r="3.2" fill="#1d4ed8"/>
<circle cx="1171.37" cy="282.13" r="3.2" fill="#1d4ed8"/>
<circle cx="1174.25" cy="281.32" r="3.2" fill="#1d4ed8"/>
<circle cx="1177.12" cy="281.32" r="3.2" fill="#1d4ed8"/>
<circle cx="1180.00" cy="282.54" r="3.2" fill="#1d4ed8"/>
<text x="635" y="695" text-anchor="middle" font-size="14" fill="#111" font-family="sans-serif">Date</text>
<text x="24" y="325" text-anchor="middle" font-size="14" fill="#111" transform="rotate(-90 24,325)" font-family="sans-serif">Passed files</text>
</svg>
