<?xml version="1.0" encoding="UTF-8"?>
<svg xmlns="http://www.w3.org/2000/svg" width="1280" height="720" viewBox="0 0 1280 720">
<rect width="100%" height="100%" fill="#ffffff"/>
<text x="640" y="30" text-anchor="middle" font-size="22" font-family="sans-serif">Roast passed files history</text>
<line x1="90" y1="600" x2="1180" y2="600" stroke="#333" stroke-width="1.5"/>
<line x1="90" y1="50" x2="90" y2="600" stroke="#333" stroke-width="1.5"/>
<line x1="90" y1="600.00" x2="1180" y2="600.00" stroke="#e5e7eb" stroke-width="1"/>
<text x="78" y="605.00" text-anchor="end" font-size="12" fill="#111" font-family="sans-serif">0</text>
<line x1="90" y1="397.79" x2="1180" y2="397.79" stroke="#e5e7eb" stroke-width="1"/>
<text x="78" y="402.79" text-anchor="end" font-size="12" fill="#111" font-family="sans-serif">500</text>
<line x1="90" y1="195.59" x2="1180" y2="195.59" stroke="#e5e7eb" stroke-width="1"/>
<text x="78" y="200.59" text-anchor="end" font-size="12" fill="#111" font-family="sans-serif">1000</text>
<line x1="90.00" y1="600" x2="90.00" y2="606" stroke="#333" stroke-width="1"/>
<text x="90.00" y="624" text-anchor="end" font-size="11" fill="#111" transform="rotate(-40 90.00,624)" font-family="sans-serif">2026-02-12</text>
<line x1="226.25" y1="600" x2="226.25" y2="606" stroke="#333" stroke-width="1"/>
<text x="226.25" y="624" text-anchor="end" font-size="11" fill="#111" transform="rotate(-40 226.25,624)" font-family="sans-serif">2026-02-19</text>
<line x1="362.50" y1="600" x2="362.50" y2="606" stroke="#333" stroke-width="1"/>
<text x="362.50" y="624" text-anchor="end" font-size="11" fill="#111" transform="rotate(-40 362.50,624)" font-family="sans-serif">2026-02-25</text>
<line x1="498.75" y1="600" x2="498.75" y2="606" stroke="#333" stroke-width="1"/>
<text x="498.75" y="624" text-anchor="end" font-size="11" fill="#111" transform="rotate(-40 498.75,624)" font-family="sans-serif">2026-02-28</text>
<line x1="635.00" y1="600" x2="635.00" y2="606" stroke="#333" stroke-width="1"/>
<text x="635.00" y="624" text-anchor="end" font-size="11" fill="#111" transform="rotate(-40 635.00,624)" font-family="sans-serif">2026-03-06</text>
<line x1="771.25" y1="600" x2="771.25" y2="606" stroke="#333" stroke-width="1"/>
<text x="771.25" y="624" text-anchor="end" font-size="11" fill="#111" transform="rotate(-40 771.25,624)" font-family="sans-serif">2026-03-11</text>
<line x1="907.50" y1="600" x2="907.50" y2="606" stroke="#333" stroke-width="1"/>
<text x="907.50" y="624" text-anchor="end" font-size="11" fill="#111" transform="rotate(-40 907.50,624)" font-family="sans-serif">2026-03-19</text>
<line x1="1043.75" y1="600" x2="1043.75" y2="606" stroke="#333" stroke-width="1"/>
<text x="1043.75" y="624" text-anchor="end" font-size="11" fill="#111" transform="rotate(-40 1043.75,624)" font-family="sans-serif">2026-03-29</text>
<line x1="1180.00" y1="600" x2="1180.00" y2="606" stroke="#333" stroke-width="1"/>
<text x="1180.00" y="624" text-anchor="end" font-size="11" fill="#111" transform="rotate(-40 1180.00,624)" font-family="sans-serif">2026-05-17</text>
<line x1="90" y1="75.88" x2="1180" y2="75.88" stroke="#dc2626" stroke-width="1.5" stroke-dasharray="8,4"/>
<text x="1184" y="79.88" font-size="12" fill="#dc2626" font-family="sans-serif">Goal: 1296</text>
<polyline fill="none" stroke="#2563eb" stroke-width="3" points="90.00,540.55 92.13,538.53 94.26,536.91 96.39,534.49 98.52,534.49 100.64,533.27 102.77,532.46 104.90,532.87 107.03,532.06 109.16,532.46 111.29,532.06 113.42,568.46 115.55,568.46 117.68,566.43 119.80,545.00 121.93,545.00 124.06,544.19 126.19,543.79 128.32,543.79 130.45,543.38 132.58,541.76 134.71,541.36 136.84,540.96 138.96,540.96 141.09,539.34 143.22,539.34 145.35,556.73 147.48,556.73 149.61,555.51 151.74,551.07 153.87,538.93 156.00,538.93 158.12,538.93 160.25,538.12 162.38,536.91 164.51,536.91 166.64,536.51 168.77,536.51 170.90,556.73 173.03,556.73 175.16,556.73 177.29,556.73 179.41,535.29 181.54,535.29 183.67,535.29 185.80,535.29 187.93,534.49 190.06,534.08 192.19,533.68 194.32,532.87 196.45,532.06 198.57,532.06 200.70,531.25 202.83,530.85 204.96,530.44 207.09,530.04 209.22,530.04 211.35,529.23 213.48,529.23 215.61,529.23 217.73,528.42 219.86,528.42 221.99,527.61 224.12,527.21 226.25,526.80 228.38,526.40 230.51,525.18 232.64,523.57 234.77,523.57 236.89,523.16 239.02,522.76 241.15,522.35 243.28,521.54 245.41,519.52 247.54,517.50 249.67,517.50 251.80,517.50 253.93,517.50 256.05,517.50 258.18,517.50 260.31,517.10 262.44,516.69 264.57,515.48 266.70,515.07 268.83,514.67 270.96,513.86 273.09,514.26 275.21,512.24 277.34,511.84 279.47,511.84 281.60,511.03 283.73,509.82 285.86,507.79 287.99,506.99 290.12,506.58 292.25,509.41 294.38,509.01 296.50,504.96 298.63,504.56 300.76,504.15 302.89,504.56 305.02,503.75 307.15,503.75 309.28,503.35 311.41,499.30 313.54,496.47 315.66,490.00 317.79,484.34 319.92,481.10 322.05,480.29 324.18,480.70 326.31,460.88 328.44,459.26 330.57,458.05 332.70,456.03 334.82,456.03 336.95,454.41 339.08,450.77 341.21,444.30 343.34,443.90 345.47,600.00 347.60,441.88 349.73,440.66 351.86,439.45 353.98,439.04 356.11,438.64 358.24,437.83 360.37,436.62 362.50,436.62 364.63,434.60 366.76,432.17 368.89,429.34 371.02,428.93 373.14,428.53 375.27,427.72 377.40,426.91 379.53,426.10 381.66,426.10 383.79,426.10 385.92,419.63 388.05,419.23 390.18,418.42 392.30,418.01 394.43,417.61 396.56,417.61 398.69,417.61 400.82,417.21 402.95,417.21 405.08,413.57 407.21,411.95 409.34,412.76 411.46,410.74 413.59,410.74 415.72,410.33 417.85,410.33 419.98,410.33 422.11,409.93 424.24,409.93 426.37,409.93 428.50,409.52 430.62,409.52 432.75,409.12 434.88,409.52 437.01,409.12 439.14,407.50 441.27,407.10 443.40,403.05 445.53,399.82 447.66,400.22 449.79,400.62 451.91,400.62 454.04,399.41 456.17,392.94 458.30,391.32 460.43,389.30 462.56,389.30 464.69,388.49 466.82,375.15 468.95,374.74 471.07,374.74 473.20,374.74 475.33,374.74 477.46,374.34 479.59,374.34 481.72,374.34 483.85,374.34 485.98,374.34 488.11,373.93 490.23,373.12 492.36,372.72 494.49,373.53 496.62,435.81 498.75,372.32 500.88,372.72 503.01,371.91 505.14,371.91 507.27,372.32 509.39,371.10 511.52,369.89 513.65,369.89 515.78,369.89 517.91,369.49 520.04,369.89 522.17,369.08 524.30,368.68 526.43,368.27 528.55,367.87 530.68,367.06 532.81,367.46 534.94,367.06 537.07,366.25 539.20,368.27 541.33,368.68 543.46,368.68 545.59,368.27 547.71,369.08 549.84,367.87 551.97,367.46 554.10,367.06 556.23,360.18 558.36,359.78 560.49,359.38 562.62,356.95 564.75,357.35 566.88,357.76 569.00,355.33 571.13,355.74 573.26,357.35 575.39,355.33 577.52,356.14 579.65,355.74 581.78,356.14 583.91,354.12 586.04,354.93 588.16,356.14 590.29,354.52 592.42,353.71 594.55,354.12 596.68,354.93 598.81,352.90 600.94,353.71 603.07,353.31 605.20,353.31 607.32,354.52 609.45,352.90 611.58,352.50 613.71,352.50 615.84,353.31 617.97,352.50 620.10,353.71 622.23,354.12 624.36,352.50 626.48,352.90 628.61,352.50 630.74,352.10 632.87,351.69 635.00,352.10 637.13,354.12 639.26,352.50 641.39,352.10 643.52,352.10 645.64,349.67 647.77,349.67 649.90,350.88 652.03,351.29 654.16,350.48 656.29,352.10 658.42,350.48 660.55,350.48 662.68,350.48 664.80,350.07 666.93,348.46 669.06,351.29 671.19,349.67 673.32,351.29 675.45,349.67 677.58,348.86 679.71,348.46 681.84,348.46 683.96,347.24 686.09,348.86 688.22,346.84 690.35,348.46 692.48,348.86 694.61,346.84 696.74,349.26 698.87,348.05 701.00,349.26 703.12,349.26 705.25,350.48 707.38,352.90 709.51,349.67 711.64,348.46 713.77,345.62 715.90,344.82 718.03,344.41 720.16,342.39 722.29,341.18 724.41,341.58 726.54,339.15 728.67,338.35 730.80,337.54 732.93,336.73 735.06,335.92 737.19,337.54 739.32,338.35 741.45,337.54 743.57,337.54 745.70,337.54 747.83,333.09 749.96,333.90 752.09,335.92 754.22,336.73 756.35,335.51 758.48,332.28 760.61,331.47 762.73,331.07 764.86,331.47 766.99,331.07 769.12,331.07 771.25,331.07 773.38,331.07 775.51,331.07 777.64,331.07 779.77,331.07 781.89,331.07 784.02,331.07 786.15,331.07 788.28,331.47 790.41,331.88 792.54,331.07 794.67,331.47 796.80,331.07 798.93,331.47 801.05,331.07 803.18,324.19 805.31,324.19 807.44,318.93 809.57,316.51 811.70,310.44 813.83,308.01 815.96,600.00 818.09,301.54 820.21,290.22 822.34,287.79 824.47,286.18 826.60,285.77 828.73,285.77 830.86,285.77 832.99,286.18 835.12,285.77 837.25,285.77 839.38,285.77 841.50,283.35 843.63,282.94 845.76,282.94 847.89,283.35 850.02,282.94 852.15,282.94 854.28,283.75 856.41,282.13 858.54,282.13 860.66,282.54 862.79,282.13 864.92,282.54 867.05,282.94 869.18,281.73 871.31,282.54 873.44,281.73 875.57,282.54 877.70,282.13 879.82,282.13 881.95,281.73 884.08,281.73 886.21,281.32 888.34,281.73 890.47,282.13 892.60,281.32 894.73,281.32 896.86,282.54 898.98,282.13 901.11,281.32 903.24,281.32 905.37,281.32 907.50,282.54 909.63,282.13 911.76,281.32 913.89,282.13 916.02,281.73 918.14,282.13 920.27,280.11 922.40,280.11 924.53,280.51 926.66,279.71 928.79,280.11 930.92,280.51 933.05,279.71 935.18,280.11 937.30,280.11 939.43,279.30 941.56,278.90 943.69,278.90 945.82,280.51 947.95,279.30 950.08,278.09 952.21,278.49 954.34,278.49 956.46,277.28 958.59,277.68 960.72,277.68 962.85,278.09 964.98,277.28 967.11,600.00 969.24,278.90 971.37,279.30 973.50,278.90 975.62,278.49 977.75,278.49 979.88,278.49 982.01,278.49 984.14,278.49 986.27,278.49 988.40,278.49 990.53,278.49 992.66,278.49 994.79,278.49 996.91,278.49 999.04,278.49 1001.17,600.00 1003.30,600.00 1005.43,254.63 1007.56,600.00 1009.69,245.74 1011.82,245.74 1013.95,246.14 1016.07,245.74 1018.20,245.74 1020.33,245.74 1022.46,245.74 1024.59,245.74 1026.72,240.07 1028.85,238.05 1030.98,238.05 1033.11,227.13 1035.23,227.13 1037.36,226.32 1039.49,227.54 1041.62,226.73 1043.75,226.32 1045.88,227.13 1048.01,227.13 1050.14,226.73 1052.27,226.32 1054.39,226.73 1056.52,226.73 1058.65,226.73 1060.78,225.11 1062.91,224.71 1065.04,225.11 1067.17,224.30 1069.30,226.32 1071.43,224.30 1073.55,225.51 1075.68,225.51 1077.81,225.51 1079.94,225.92 1082.07,223.09 1084.20,223.49 1086.33,223.09 1088.46,223.09 1090.59,223.90 1092.71,223.49 1094.84,223.49 1096.97,223.09 1099.10,223.09 1101.23,223.49 1103.36,223.09 1105.49,223.09 1107.62,223.49 1109.75,223.49 1111.88,223.09 1114.00,223.09 1116.13,223.49 1118.26,223.09 1120.39,223.09 1122.52,223.09 1124.65,223.49 1126.78,223.49 1128.91,223.49 1131.04,223.09 1133.16,223.49 1135.29,223.09 1137.42,223.09 1139.55,223.49 1141.68,223.09 1143.81,223.09 1145.94,223.49 1148.07,222.68 1150.20,221.88 1152.32,223.49 1154.45,223.09 1156.58,223.49 1158.71,224.30 1160.84,201.65 1162.97,201.65 1165.10,186.69 1167.23,176.18 1169.36,174.15 1171.48,172.94 1173.61,172.94 1175.74,162.02 1177.87,161.21 1180.00,148.27"/>
<circle cx="90.00" cy="540.55" r="3.2" fill="#1d4ed8"/>
<circle cx="92.13" cy="538.53" r="3.2" fill="#1d4ed8"/>
<circle cx="94.26" cy="536.91" r="3.2" fill="#1d4ed8"/>
<circle cx="96.39" cy="534.49" r="3.2" fill="#1d4ed8"/>
<circle cx="98.52" cy="534.49" r="3.2" fill="#1d4ed8"/>
<circle cx="100.64" cy="533.27" r="3.2" fill="#1d4ed8"/>
<circle cx="102.77" cy="532.46" r="3.2" fill="#1d4ed8"/>
<circle cx="104.90" cy="532.87" r="3.2" fill="#1d4ed8"/>
<circle cx="107.03" cy="532.06" r="3.2" fill="#1d4ed8"/>
<circle cx="109.16" cy="532.46" r="3.2" fill="#1d4ed8"/>
<circle cx="111.29" cy="532.06" r="3.2" fill="#1d4ed8"/>
<circle cx="113.42" cy="568.46" r="3.2" fill="#1d4ed8"/>
<circle cx="115.55" cy="568.46" r="3.2" fill="#1d4ed8"/>
<circle cx="117.68" cy="566.43" r="3.2" fill="#1d4ed8"/>
<circle cx="119.80" cy="545.00" r="3.2" fill="#1d4ed8"/>
<circle cx="121.93" cy="545.00" r="3.2" fill="#1d4ed8"/>
<circle cx="124.06" cy="544.19" r="3.2" fill="#1d4ed8"/>
<circle cx="126.19" cy="543.79" r="3.2" fill="#1d4ed8"/>
<circle cx="128.32" cy="543.79" r="3.2" fill="#1d4ed8"/>
<circle cx="130.45" cy="543.38" r="3.2" fill="#1d4ed8"/>
<circle cx="132.58" cy="541.76" r="3.2" fill="#1d4ed8"/>
<circle cx="134.71" cy="541.36" r="3.2" fill="#1d4ed8"/>
<circle cx="136.84" cy="540.96" r="3.2" fill="#1d4ed8"/>
<circle cx="138.96" cy="540.96" r="3.2" fill="#1d4ed8"/>
<circle cx="141.09" cy="539.34" r="3.2" fill="#1d4ed8"/>
<circle cx="143.22" cy="539.34" r="3.2" fill="#1d4ed8"/>
<circle cx="145.35" cy="556.73" r="3.2" fill="#1d4ed8"/>
<circle cx="147.48" cy="556.73" r="3.2" fill="#1d4ed8"/>
<circle cx="149.61" cy="555.51" r="3.2" fill="#1d4ed8"/>
<circle cx="151.74" cy="551.07" r="3.2" fill="#1d4ed8"/>
<circle cx="153.87" cy="538.93" r="3.2" fill="#1d4ed8"/>
<circle cx="156.00" cy="538.93" r="3.2" fill="#1d4ed8"/>
<circle cx="158.12" cy="538.93" r="3.2" fill="#1d4ed8"/>
<circle cx="160.25" cy="538.12" r="3.2" fill="#1d4ed8"/>
<circle cx="162.38" cy="536.91" r="3.2" fill="#1d4ed8"/>
<circle cx="164.51" cy="536.91" r="3.2" fill="#1d4ed8"/>
<circle cx="166.64" cy="536.51" r="3.2" fill="#1d4ed8"/>
<circle cx="168.77" cy="536.51" r="3.2" fill="#1d4ed8"/>
<circle cx="170.90" cy="556.73" r="3.2" fill="#1d4ed8"/>
<circle cx="173.03" cy="556.73" r="3.2" fill="#1d4ed8"/>
<circle cx="175.16" cy="556.73" r="3.2" fill="#1d4ed8"/>
<circle cx="177.29" cy="556.73" r="3.2" fill="#1d4ed8"/>
<circle cx="179.41" cy="535.29" r="3.2" fill="#1d4ed8"/>
<circle cx="181.54" cy="535.29" r="3.2" fill="#1d4ed8"/>
<circle cx="183.67" cy="535.29" r="3.2" fill="#1d4ed8"/>
<circle cx="185.80" cy="535.29" r="3.2" fill="#1d4ed8"/>
<circle cx="187.93" cy="534.49" r="3.2" fill="#1d4ed8"/>
<circle cx="190.06" cy="534.08" r="3.2" fill="#1d4ed8"/>
<circle cx="192.19" cy="533.68" r="3.2" fill="#1d4ed8"/>
<circle cx="194.32" cy="532.87" r="3.2" fill="#1d4ed8"/>
<circle cx="196.45" cy="532.06" r="3.2" fill="#1d4ed8"/>
<circle cx="198.57" cy="532.06" r="3.2" fill="#1d4ed8"/>
<circle cx="200.70" cy="531.25" r="3.2" fill="#1d4ed8"/>
<circle cx="202.83" cy="530.85" r="3.2" fill="#1d4ed8"/>
<circle cx="204.96" cy="530.44" r="3.2" fill="#1d4ed8"/>
<circle cx="207.09" cy="530.04" r="3.2" fill="#1d4ed8"/>
<circle cx="209.22" cy="530.04" r="3.2" fill="#1d4ed8"/>
<circle cx="211.35" cy="529.23" r="3.2" fill="#1d4ed8"/>
<circle cx="213.48" cy="529.23" r="3.2" fill="#1d4ed8"/>
<circle cx="215.61" cy="529.23" r="3.2" fill="#1d4ed8"/>
<circle cx="217.73" cy="528.42" r="3.2" fill="#1d4ed8"/>
<circle cx="219.86" cy="528.42" r="3.2" fill="#1d4ed8"/>
<circle cx="221.99" cy="527.61" r="3.2" fill="#1d4ed8"/>
<circle cx="224.12" cy="527.21" r="3.2" fill="#1d4ed8"/>
<circle cx="226.25" cy="526.80" r="3.2" fill="#1d4ed8"/>
<circle cx="228.38" cy="526.40" r="3.2" fill="#1d4ed8"/>
<circle cx="230.51" cy="525.18" r="3.2" fill="#1d4ed8"/>
<circle cx="232.64" cy="523.57" r="3.2" fill="#1d4ed8"/>
<circle cx="234.77" cy="523.57" r="3.2" fill="#1d4ed8"/>
<circle cx="236.89" cy="523.16" r="3.2" fill="#1d4ed8"/>
<circle cx="239.02" cy="522.76" r="3.2" fill="#1d4ed8"/>
<circle cx="241.15" cy="522.35" r="3.2" fill="#1d4ed8"/>
<circle cx="243.28" cy="521.54" r="3.2" fill="#1d4ed8"/>
<circle cx="245.41" cy="519.52" r="3.2" fill="#1d4ed8"/>
<circle cx="247.54" cy="517.50" r="3.2" fill="#1d4ed8"/>
<circle cx="249.67" cy="517.50" r="3.2" fill="#1d4ed8"/>
<circle cx="251.80" cy="517.50" r="3.2" fill="#1d4ed8"/>
<circle cx="253.93" cy="517.50" r="3.2" fill="#1d4ed8"/>
<circle cx="256.05" cy="517.50" r="3.2" fill="#1d4ed8"/>
<circle cx="258.18" cy="517.50" r="3.2" fill="#1d4ed8"/>
<circle cx="260.31" cy="517.10" r="3.2" fill="#1d4ed8"/>
<circle cx="262.44" cy="516.69" r="3.2" fill="#1d4ed8"/>
<circle cx="264.57" cy="515.48" r="3.2" fill="#1d4ed8"/>
<circle cx="266.70" cy="515.07" r="3.2" fill="#1d4ed8"/>
<circle cx="268.83" cy="514.67" r="3.2" fill="#1d4ed8"/>
<circle cx="270.96" cy="513.86" r="3.2" fill="#1d4ed8"/>
<circle cx="273.09" cy="514.26" r="3.2" fill="#1d4ed8"/>
<circle cx="275.21" cy="512.24" r="3.2" fill="#1d4ed8"/>
<circle cx="277.34" cy="511.84" r="3.2" fill="#1d4ed8"/>
<circle cx="279.47" cy="511.84" r="3.2" fill="#1d4ed8"/>
<circle cx="281.60" cy="511.03" r="3.2" fill="#1d4ed8"/>
<circle cx="283.73" cy="509.82" r="3.2" fill="#1d4ed8"/>
<circle cx="285.86" cy="507.79" r="3.2" fill="#1d4ed8"/>
<circle cx="287.99" cy="506.99" r="3.2" fill="#1d4ed8"/>
<circle cx="290.12" cy="506.58" r="3.2" fill="#1d4ed8"/>
<circle cx="292.25" cy="509.41" r="3.2" fill="#1d4ed8"/>
<circle cx="294.38" cy="509.01" r="3.2" fill="#1d4ed8"/>
<circle cx="296.50" cy="504.96" r="3.2" fill="#1d4ed8"/>
<circle cx="298.63" cy="504.56" r="3.2" fill="#1d4ed8"/>
<circle cx="300.76" cy="504.15" r="3.2" fill="#1d4ed8"/>
<circle cx="302.89" cy="504.56" r="3.2" fill="#1d4ed8"/>
<circle cx="305.02" cy="503.75" r="3.2" fill="#1d4ed8"/>
<circle cx="307.15" cy="503.75" r="3.2" fill="#1d4ed8"/>
<circle cx="309.28" cy="503.35" r="3.2" fill="#1d4ed8"/>
<circle cx="311.41" cy="499.30" r="3.2" fill="#1d4ed8"/>
<circle cx="313.54" cy="496.47" r="3.2" fill="#1d4ed8"/>
<circle cx="315.66" cy="490.00" r="3.2" fill="#1d4ed8"/>
<circle cx="317.79" cy="484.34" r="3.2" fill="#1d4ed8"/>
<circle cx="319.92" cy="481.10" r="3.2" fill="#1d4ed8"/>
<circle cx="322.05" cy="480.29" r="3.2" fill="#1d4ed8"/>
<circle cx="324.18" cy="480.70" r="3.2" fill="#1d4ed8"/>
<circle cx="326.31" cy="460.88" r="3.2" fill="#1d4ed8"/>
<circle cx="328.44" cy="459.26" r="3.2" fill="#1d4ed8"/>
<circle cx="330.57" cy="458.05" r="3.2" fill="#1d4ed8"/>
<circle cx="332.70" cy="456.03" r="3.2" fill="#1d4ed8"/>
<circle cx="334.82" cy="456.03" r="3.2" fill="#1d4ed8"/>
<circle cx="336.95" cy="454.41" r="3.2" fill="#1d4ed8"/>
<circle cx="339.08" cy="450.77" r="3.2" fill="#1d4ed8"/>
<circle cx="341.21" cy="444.30" r="3.2" fill="#1d4ed8"/>
<circle cx="343.34" cy="443.90" r="3.2" fill="#1d4ed8"/>
<circle cx="345.47" cy="600.00" r="3.2" fill="#1d4ed8"/>
<circle cx="347.60" cy="441.88" r="3.2" fill="#1d4ed8"/>
<circle cx="349.73" cy="440.66" r="3.2" fill="#1d4ed8"/>
<circle cx="351.86" cy="439.45" r="3.2" fill="#1d4ed8"/>
<circle cx="353.98" cy="439.04" r="3.2" fill="#1d4ed8"/>
<circle cx="356.11" cy="438.64" r="3.2" fill="#1d4ed8"/>
<circle cx="358.24" cy="437.83" r="3.2" fill="#1d4ed8"/>
<circle cx="360.37" cy="436.62" r="3.2" fill="#1d4ed8"/>
<circle cx="362.50" cy="436.62" r="3.2" fill="#1d4ed8"/>
<circle cx="364.63" cy="434.60" r="3.2" fill="#1d4ed8"/>
<circle cx="366.76" cy="432.17" r="3.2" fill="#1d4ed8"/>
<circle cx="368.89" cy="429.34" r="3.2" fill="#1d4ed8"/>
<circle cx="371.02" cy="428.93" r="3.2" fill="#1d4ed8"/>
<circle cx="373.14" cy="428.53" r="3.2" fill="#1d4ed8"/>
<circle cx="375.27" cy="427.72" r="3.2" fill="#1d4ed8"/>
<circle cx="377.40" cy="426.91" r="3.2" fill="#1d4ed8"/>
<circle cx="379.53" cy="426.10" r="3.2" fill="#1d4ed8"/>
<circle cx="381.66" cy="426.10" r="3.2" fill="#1d4ed8"/>
<circle cx="383.79" cy="426.10" r="3.2" fill="#1d4ed8"/>
<circle cx="385.92" cy="419.63" r="3.2" fill="#1d4ed8"/>
<circle cx="388.05" cy="419.23" r="3.2" fill="#1d4ed8"/>
<circle cx="390.18" cy="418.42" r="3.2" fill="#1d4ed8"/>
<circle cx="392.30" cy="418.01" r="3.2" fill="#1d4ed8"/>
<circle cx="394.43" cy="417.61" r="3.2" fill="#1d4ed8"/>
<circle cx="396.56" cy="417.61" r="3.2" fill="#1d4ed8"/>
<circle cx="398.69" cy="417.61" r="3.2" fill="#1d4ed8"/>
<circle cx="400.82" cy="417.21" r="3.2" fill="#1d4ed8"/>
<circle cx="402.95" cy="417.21" r="3.2" fill="#1d4ed8"/>
<circle cx="405.08" cy="413.57" r="3.2" fill="#1d4ed8"/>
<circle cx="407.21" cy="411.95" r="3.2" fill="#1d4ed8"/>
<circle cx="409.34" cy="412.76" r="3.2" fill="#1d4ed8"/>
<circle cx="411.46" cy="410.74" r="3.2" fill="#1d4ed8"/>
<circle cx="413.59" cy="410.74" r="3.2" fill="#1d4ed8"/>
<circle cx="415.72" cy="410.33" r="3.2" fill="#1d4ed8"/>
<circle cx="417.85" cy="410.33" r="3.2" fill="#1d4ed8"/>
<circle cx="419.98" cy="410.33" r="3.2" fill="#1d4ed8"/>
<circle cx="422.11" cy="409.93" r="3.2" fill="#1d4ed8"/>
<circle cx="424.24" cy="409.93" r="3.2" fill="#1d4ed8"/>
<circle cx="426.37" cy="409.93" r="3.2" fill="#1d4ed8"/>
<circle cx="428.50" cy="409.52" r="3.2" fill="#1d4ed8"/>
<circle cx="430.62" cy="409.52" r="3.2" fill="#1d4ed8"/>
<circle cx="432.75" cy="409.12" r="3.2" fill="#1d4ed8"/>
<circle cx="434.88" cy="409.52" r="3.2" fill="#1d4ed8"/>
<circle cx="437.01" cy="409.12" r="3.2" fill="#1d4ed8"/>
<circle cx="439.14" cy="407.50" r="3.2" fill="#1d4ed8"/>
<circle cx="441.27" cy="407.10" r="3.2" fill="#1d4ed8"/>
<circle cx="443.40" cy="403.05" r="3.2" fill="#1d4ed8"/>
<circle cx="445.53" cy="399.82" r="3.2" fill="#1d4ed8"/>
<circle cx="447.66" cy="400.22" r="3.2" fill="#1d4ed8"/>
<circle cx="449.79" cy="400.62" r="3.2" fill="#1d4ed8"/>
<circle cx="451.91" cy="400.62" r="3.2" fill="#1d4ed8"/>
<circle cx="454.04" cy="399.41" r="3.2" fill="#1d4ed8"/>
<circle cx="456.17" cy="392.94" r="3.2" fill="#1d4ed8"/>
<circle cx="458.30" cy="391.32" r="3.2" fill="#1d4ed8"/>
<circle cx="460.43" cy="389.30" r="3.2" fill="#1d4ed8"/>
<circle cx="462.56" cy="389.30" r="3.2" fill="#1d4ed8"/>
<circle cx="464.69" cy="388.49" r="3.2" fill="#1d4ed8"/>
<circle cx="466.82" cy="375.15" r="3.2" fill="#1d4ed8"/>
<circle cx="468.95" cy="374.74" r="3.2" fill="#1d4ed8"/>
<circle cx="471.07" cy="374.74" r="3.2" fill="#1d4ed8"/>
<circle cx="473.20" cy="374.74" r="3.2" fill="#1d4ed8"/>
<circle cx="475.33" cy="374.74" r="3.2" fill="#1d4ed8"/>
<circle cx="477.46" cy="374.34" r="3.2" fill="#1d4ed8"/>
<circle cx="479.59" cy="374.34" r="3.2" fill="#1d4ed8"/>
<circle cx="481.72" cy="374.34" r="3.2" fill="#1d4ed8"/>
<circle cx="483.85" cy="374.34" r="3.2" fill="#1d4ed8"/>
<circle cx="485.98" cy="374.34" r="3.2" fill="#1d4ed8"/>
<circle cx="488.11" cy="373.93" r="3.2" fill="#1d4ed8"/>
<circle cx="490.23" cy="373.12" r="3.2" fill="#1d4ed8"/>
<circle cx="492.36" cy="372.72" r="3.2" fill="#1d4ed8"/>
<circle cx="494.49" cy="373.53" r="3.2" fill="#1d4ed8"/>
<circle cx="496.62" cy="435.81" r="3.2" fill="#1d4ed8"/>
<circle cx="498.75" cy="372.32" r="3.2" fill="#1d4ed8"/>
<circle cx="500.88" cy="372.72" r="3.2" fill="#1d4ed8"/>
<circle cx="503.01" cy="371.91" r="3.2" fill="#1d4ed8"/>
<circle cx="505.14" cy="371.91" r="3.2" fill="#1d4ed8"/>
<circle cx="507.27" cy="372.32" r="3.2" fill="#1d4ed8"/>
<circle cx="509.39" cy="371.10" r="3.2" fill="#1d4ed8"/>
<circle cx="511.52" cy="369.89" r="3.2" fill="#1d4ed8"/>
<circle cx="513.65" cy="369.89" r="3.2" fill="#1d4ed8"/>
<circle cx="515.78" cy="369.89" r="3.2" fill="#1d4ed8"/>
<circle cx="517.91" cy="369.49" r="3.2" fill="#1d4ed8"/>
<circle cx="520.04" cy="369.89" r="3.2" fill="#1d4ed8"/>
<circle cx="522.17" cy="369.08" r="3.2" fill="#1d4ed8"/>
<circle cx="524.30" cy="368.68" r="3.2" fill="#1d4ed8"/>
<circle cx="526.43" cy="368.27" r="3.2" fill="#1d4ed8"/>
<circle cx="528.55" cy="367.87" r="3.2" fill="#1d4ed8"/>
<circle cx="530.68" cy="367.06" r="3.2" fill="#1d4ed8"/>
<circle cx="532.81" cy="367.46" r="3.2" fill="#1d4ed8"/>
<circle cx="534.94" cy="367.06" r="3.2" fill="#1d4ed8"/>
<circle cx="537.07" cy="366.25" r="3.2" fill="#1d4ed8"/>
<circle cx="539.20" cy="368.27" r="3.2" fill="#1d4ed8"/>
<circle cx="541.33" cy="368.68" r="3.2" fill="#1d4ed8"/>
<circle cx="543.46" cy="368.68" r="3.2" fill="#1d4ed8"/>
<circle cx="545.59" cy="368.27" r="3.2" fill="#1d4ed8"/>
<circle cx="547.71" cy="369.08" r="3.2" fill="#1d4ed8"/>
<circle cx="549.84" cy="367.87" r="3.2" fill="#1d4ed8"/>
<circle cx="551.97" cy="367.46" r="3.2" fill="#1d4ed8"/>
<circle cx="554.10" cy="367.06" r="3.2" fill="#1d4ed8"/>
<circle cx="556.23" cy="360.18" r="3.2" fill="#1d4ed8"/>
<circle cx="558.36" cy="359.78" r="3.2" fill="#1d4ed8"/>
<circle cx="560.49" cy="359.38" r="3.2" fill="#1d4ed8"/>
<circle cx="562.62" cy="356.95" r="3.2" fill="#1d4ed8"/>
<circle cx="564.75" cy="357.35" r="3.2" fill="#1d4ed8"/>
<circle cx="566.88" cy="357.76" r="3.2" fill="#1d4ed8"/>
<circle cx="569.00" cy="355.33" r="3.2" fill="#1d4ed8"/>
<circle cx="571.13" cy="355.74" r="3.2" fill="#1d4ed8"/>
<circle cx="573.26" cy="357.35" r="3.2" fill="#1d4ed8"/>
<circle cx="575.39" cy="355.33" r="3.2" fill="#1d4ed8"/>
<circle cx="577.52" cy="356.14" r="3.2" fill="#1d4ed8"/>
<circle cx="579.65" cy="355.74" r="3.2" fill="#1d4ed8"/>
<circle cx="581.78" cy="356.14" r="3.2" fill="#1d4ed8"/>
<circle cx="583.91" cy="354.12" r="3.2" fill="#1d4ed8"/>
<circle cx="586.04" cy="354.93" r="3.2" fill="#1d4ed8"/>
<circle cx="588.16" cy="356.14" r="3.2" fill="#1d4ed8"/>
<circle cx="590.29" cy="354.52" r="3.2" fill="#1d4ed8"/>
<circle cx="592.42" cy="353.71" r="3.2" fill="#1d4ed8"/>
<circle cx="594.55" cy="354.12" r="3.2" fill="#1d4ed8"/>
<circle cx="596.68" cy="354.93" r="3.2" fill="#1d4ed8"/>
<circle cx="598.81" cy="352.90" r="3.2" fill="#1d4ed8"/>
<circle cx="600.94" cy="353.71" r="3.2" fill="#1d4ed8"/>
<circle cx="603.07" cy="353.31" r="3.2" fill="#1d4ed8"/>
<circle cx="605.20" cy="353.31" r="3.2" fill="#1d4ed8"/>
<circle cx="607.32" cy="354.52" r="3.2" fill="#1d4ed8"/>
<circle cx="609.45" cy="352.90" r="3.2" fill="#1d4ed8"/>
<circle cx="611.58" cy="352.50" r="3.2" fill="#1d4ed8"/>
<circle cx="613.71" cy="352.50" r="3.2" fill="#1d4ed8"/>
<circle cx="615.84" cy="353.31" r="3.2" fill="#1d4ed8"/>
<circle cx="617.97" cy="352.50" r="3.2" fill="#1d4ed8"/>
<circle cx="620.10" cy="353.71" r="3.2" fill="#1d4ed8"/>
<circle cx="622.23" cy="354.12" r="3.2" fill="#1d4ed8"/>
<circle cx="624.36" cy="352.50" r="3.2" fill="#1d4ed8"/>
<circle cx="626.48" cy="352.90" r="3.2" fill="#1d4ed8"/>
<circle cx="628.61" cy="352.50" r="3.2" fill="#1d4ed8"/>
<circle cx="630.74" cy="352.10" r="3.2" fill="#1d4ed8"/>
<circle cx="632.87" cy="351.69" r="3.2" fill="#1d4ed8"/>
<circle cx="635.00" cy="352.10" r="3.2" fill="#1d4ed8"/>
<circle cx="637.13" cy="354.12" r="3.2" fill="#1d4ed8"/>
<circle cx="639.26" cy="352.50" r="3.2" fill="#1d4ed8"/>
<circle cx="641.39" cy="352.10" r="3.2" fill="#1d4ed8"/>
<circle cx="643.52" cy="352.10" r="3.2" fill="#1d4ed8"/>
<circle cx="645.64" cy="349.67" r="3.2" fill="#1d4ed8"/>
<circle cx="647.77" cy="349.67" r="3.2" fill="#1d4ed8"/>
<circle cx="649.90" cy="350.88" r="3.2" fill="#1d4ed8"/>
<circle cx="652.03" cy="351.29" r="3.2" fill="#1d4ed8"/>
<circle cx="654.16" cy="350.48" r="3.2" fill="#1d4ed8"/>
<circle cx="656.29" cy="352.10" r="3.2" fill="#1d4ed8"/>
<circle cx="658.42" cy="350.48" r="3.2" fill="#1d4ed8"/>
<circle cx="660.55" cy="350.48" r="3.2" fill="#1d4ed8"/>
<circle cx="662.68" cy="350.48" r="3.2" fill="#1d4ed8"/>
<circle cx="664.80" cy="350.07" r="3.2" fill="#1d4ed8"/>
<circle cx="666.93" cy="348.46" r="3.2" fill="#1d4ed8"/>
<circle cx="669.06" cy="351.29" r="3.2" fill="#1d4ed8"/>
<circle cx="671.19" cy="349.67" r="3.2" fill="#1d4ed8"/>
<circle cx="673.32" cy="351.29" r="3.2" fill="#1d4ed8"/>
<circle cx="675.45" cy="349.67" r="3.2" fill="#1d4ed8"/>
<circle cx="677.58" cy="348.86" r="3.2" fill="#1d4ed8"/>
<circle cx="679.71" cy="348.46" r="3.2" fill="#1d4ed8"/>
<circle cx="681.84" cy="348.46" r="3.2" fill="#1d4ed8"/>
<circle cx="683.96" cy="347.24" r="3.2" fill="#1d4ed8"/>
<circle cx="686.09" cy="348.86" r="3.2" fill="#1d4ed8"/>
<circle cx="688.22" cy="346.84" r="3.2" fill="#1d4ed8"/>
<circle cx="690.35" cy="348.46" r="3.2" fill="#1d4ed8"/>
<circle cx="692.48" cy="348.86" r="3.2" fill="#1d4ed8"/>
<circle cx="694.61" cy="346.84" r="3.2" fill="#1d4ed8"/>
<circle cx="696.74" cy="349.26" r="3.2" fill="#1d4ed8"/>
<circle cx="698.87" cy="348.05" r="3.2" fill="#1d4ed8"/>
<circle cx="701.00" cy="349.26" r="3.2" fill="#1d4ed8"/>
<circle cx="703.12" cy="349.26" r="3.2" fill="#1d4ed8"/>
<circle cx="705.25" cy="350.48" r="3.2" fill="#1d4ed8"/>
<circle cx="707.38" cy="352.90" r="3.2" fill="#1d4ed8"/>
<circle cx="709.51" cy="349.67" r="3.2" fill="#1d4ed8"/>
<circle cx="711.64" cy="348.46" r="3.2" fill="#1d4ed8"/>
<circle cx="713.77" cy="345.62" r="3.2" fill="#1d4ed8"/>
<circle cx="715.90" cy="344.82" r="3.2" fill="#1d4ed8"/>
<circle cx="718.03" cy="344.41" r="3.2" fill="#1d4ed8"/>
<circle cx="720.16" cy="342.39" r="3.2" fill="#1d4ed8"/>
<circle cx="722.29" cy="341.18" r="3.2" fill="#1d4ed8"/>
<circle cx="724.41" cy="341.58" r="3.2" fill="#1d4ed8"/>
<circle cx="726.54" cy="339.15" r="3.2" fill="#1d4ed8"/>
<circle cx="728.67" cy="338.35" r="3.2" fill="#1d4ed8"/>
<circle cx="730.80" cy="337.54" r="3.2" fill="#1d4ed8"/>
<circle cx="732.93" cy="336.73" r="3.2" fill="#1d4ed8"/>
<circle cx="735.06" cy="335.92" r="3.2" fill="#1d4ed8"/>
<circle cx="737.19" cy="337.54" r="3.2" fill="#1d4ed8"/>
<circle cx="739.32" cy="338.35" r="3.2" fill="#1d4ed8"/>
<circle cx="741.45" cy="337.54" r="3.2" fill="#1d4ed8"/>
<circle cx="743.57" cy="337.54" r="3.2" fill="#1d4ed8"/>
<circle cx="745.70" cy="337.54" r="3.2" fill="#1d4ed8"/>
<circle cx="747.83" cy="333.09" r="3.2" fill="#1d4ed8"/>
<circle cx="749.96" cy="333.90" r="3.2" fill="#1d4ed8"/>
<circle cx="752.09" cy="335.92" r="3.2" fill="#1d4ed8"/>
<circle cx="754.22" cy="336.73" r="3.2" fill="#1d4ed8"/>
<circle cx="756.35" cy="335.51" r="3.2" fill="#1d4ed8"/>
<circle cx="758.48" cy="332.28" r="3.2" fill="#1d4ed8"/>
<circle cx="760.61" cy="331.47" r="3.2" fill="#1d4ed8"/>
<circle cx="762.73" cy="331.07" r="3.2" fill="#1d4ed8"/>
<circle cx="764.86" cy="331.47" r="3.2" fill="#1d4ed8"/>
<circle cx="766.99" cy="331.07" r="3.2" fill="#1d4ed8"/>
<circle cx="769.12" cy="331.07" r="3.2" fill="#1d4ed8"/>
<circle cx="771.25" cy="331.07" r="3.2" fill="#1d4ed8"/>
<circle cx="773.38" cy="331.07" r="3.2" fill="#1d4ed8"/>
<circle cx="775.51" cy="331.07" r="3.2" fill="#1d4ed8"/>
<circle cx="777.64" cy="331.07" r="3.2" fill="#1d4ed8"/>
<circle cx="779.77" cy="331.07" r="3.2" fill="#1d4ed8"/>
<circle cx="781.89" cy="331.07" r="3.2" fill="#1d4ed8"/>
<circle cx="784.02" cy="331.07" r="3.2" fill="#1d4ed8"/>
<circle cx="786.15" cy="331.07" r="3.2" fill="#1d4ed8"/>
<circle cx="788.28" cy="331.47" r="3.2" fill="#1d4ed8"/>
<circle cx="790.41" cy="331.88" r="3.2" fill="#1d4ed8"/>
<circle cx="792.54" cy="331.07" r="3.2" fill="#1d4ed8"/>
<circle cx="794.67" cy="331.47" r="3.2" fill="#1d4ed8"/>
<circle cx="796.80" cy="331.07" r="3.2" fill="#1d4ed8"/>
<circle cx="798.93" cy="331.47" r="3.2" fill="#1d4ed8"/>
<circle cx="801.05" cy="331.07" r="3.2" fill="#1d4ed8"/>
<circle cx="803.18" cy="324.19" r="3.2" fill="#1d4ed8"/>
<circle cx="805.31" cy="324.19" r="3.2" fill="#1d4ed8"/>
<circle cx="807.44" cy="318.93" r="3.2" fill="#1d4ed8"/>
<circle cx="809.57" cy="316.51" r="3.2" fill="#1d4ed8"/>
<circle cx="811.70" cy="310.44" r="3.2" fill="#1d4ed8"/>
<circle cx="813.83" cy="308.01" r="3.2" fill="#1d4ed8"/>
<circle cx="815.96" cy="600.00" r="3.2" fill="#1d4ed8"/>
<circle cx="818.09" cy="301.54" r="3.2" fill="#1d4ed8"/>
<circle cx="820.21" cy="290.22" r="3.2" fill="#1d4ed8"/>
<circle cx="822.34" cy="287.79" r="3.2" fill="#1d4ed8"/>
<circle cx="824.47" cy="286.18" r="3.2" fill="#1d4ed8"/>
<circle cx="826.60" cy="285.77" r="3.2" fill="#1d4ed8"/>
<circle cx="828.73" cy="285.77" r="3.2" fill="#1d4ed8"/>
<circle cx="830.86" cy="285.77" r="3.2" fill="#1d4ed8"/>
<circle cx="832.99" cy="286.18" r="3.2" fill="#1d4ed8"/>
<circle cx="835.12" cy="285.77" r="3.2" fill="#1d4ed8"/>
<circle cx="837.25" cy="285.77" r="3.2" fill="#1d4ed8"/>
<circle cx="839.38" cy="285.77" r="3.2" fill="#1d4ed8"/>
<circle cx="841.50" cy="283.35" r="3.2" fill="#1d4ed8"/>
<circle cx="843.63" cy="282.94" r="3.2" fill="#1d4ed8"/>
<circle cx="845.76" cy="282.94" r="3.2" fill="#1d4ed8"/>
<circle cx="847.89" cy="283.35" r="3.2" fill="#1d4ed8"/>
<circle cx="850.02" cy="282.94" r="3.2" fill="#1d4ed8"/>
<circle cx="852.15" cy="282.94" r="3.2" fill="#1d4ed8"/>
<circle cx="854.28" cy="283.75" r="3.2" fill="#1d4ed8"/>
<circle cx="856.41" cy="282.13" r="3.2" fill="#1d4ed8"/>
<circle cx="858.54" cy="282.13" r="3.2" fill="#1d4ed8"/>
<circle cx="860.66" cy="282.54" r="3.2" fill="#1d4ed8"/>
<circle cx="862.79" cy="282.13" r="3.2" fill="#1d4ed8"/>
<circle cx="864.92" cy="282.54" r="3.2" fill="#1d4ed8"/>
<circle cx="867.05" cy="282.94" r="3.2" fill="#1d4ed8"/>
<circle cx="869.18" cy="281.73" r="3.2" fill="#1d4ed8"/>
<circle cx="871.31" cy="282.54" r="3.2" fill="#1d4ed8"/>
<circle cx="873.44" cy="281.73" r="3.2" fill="#1d4ed8"/>
<circle cx="875.57" cy="282.54" r="3.2" fill="#1d4ed8"/>
<circle cx="877.70" cy="282.13" r="3.2" fill="#1d4ed8"/>
<circle cx="879.82" cy="282.13" r="3.2" fill="#1d4ed8"/>
<circle cx="881.95" cy="281.73" r="3.2" fill="#1d4ed8"/>
<circle cx="884.08" cy="281.73" r="3.2" fill="#1d4ed8"/>
<circle cx="886.21" cy="281.32" r="3.2" fill="#1d4ed8"/>
<circle cx="888.34" cy="281.73" r="3.2" fill="#1d4ed8"/>
<circle cx="890.47" cy="282.13" r="3.2" fill="#1d4ed8"/>
<circle cx="892.60" cy="281.32" r="3.2" fill="#1d4ed8"/>
<circle cx="894.73" cy="281.32" r="3.2" fill="#1d4ed8"/>
<circle cx="896.86" cy="282.54" r="3.2" fill="#1d4ed8"/>
<circle cx="898.98" cy="282.13" r="3.2" fill="#1d4ed8"/>
<circle cx="901.11" cy="281.32" r="3.2" fill="#1d4ed8"/>
<circle cx="903.24" cy="281.32" r="3.2" fill="#1d4ed8"/>
<circle cx="905.37" cy="281.32" r="3.2" fill="#1d4ed8"/>
<circle cx="907.50" cy="282.54" r="3.2" fill="#1d4ed8"/>
<circle cx="909.63" cy="282.13" r="3.2" fill="#1d4ed8"/>
<circle cx="911.76" cy="281.32" r="3.2" fill="#1d4ed8"/>
<circle cx="913.89" cy="282.13" r="3.2" fill="#1d4ed8"/>
<circle cx="916.02" cy="281.73" r="3.2" fill="#1d4ed8"/>
<circle cx="918.14" cy="282.13" r="3.2" fill="#1d4ed8"/>
<circle cx="920.27" cy="280.11" r="3.2" fill="#1d4ed8"/>
<circle cx="922.40" cy="280.11" r="3.2" fill="#1d4ed8"/>
<circle cx="924.53" cy="280.51" r="3.2" fill="#1d4ed8"/>
<circle cx="926.66" cy="279.71" r="3.2" fill="#1d4ed8"/>
<circle cx="928.79" cy="280.11" r="3.2" fill="#1d4ed8"/>
<circle cx="930.92" cy="280.51" r="3.2" fill="#1d4ed8"/>
<circle cx="933.05" cy="279.71" r="3.2" fill="#1d4ed8"/>
<circle cx="935.18" cy="280.11" r="3.2" fill="#1d4ed8"/>
<circle cx="937.30" cy="280.11" r="3.2" fill="#1d4ed8"/>
<circle cx="939.43" cy="279.30" r="3.2" fill="#1d4ed8"/>
<circle cx="941.56" cy="278.90" r="3.2" fill="#1d4ed8"/>
<circle cx="943.69" cy="278.90" r="3.2" fill="#1d4ed8"/>
<circle cx="945.82" cy="280.51" r="3.2" fill="#1d4ed8"/>
<circle cx="947.95" cy="279.30" r="3.2" fill="#1d4ed8"/>
<circle cx="950.08" cy="278.09" r="3.2" fill="#1d4ed8"/>
<circle cx="952.21" cy="278.49" r="3.2" fill="#1d4ed8"/>
<circle cx="954.34" cy="278.49" r="3.2" fill="#1d4ed8"/>
<circle cx="956.46" cy="277.28" r="3.2" fill="#1d4ed8"/>
<circle cx="958.59" cy="277.68" r="3.2" fill="#1d4ed8"/>
<circle cx="960.72" cy="277.68" r="3.2" fill="#1d4ed8"/>
<circle cx="962.85" cy="278.09" r="3.2" fill="#1d4ed8"/>
<circle cx="964.98" cy="277.28" r="3.2" fill="#1d4ed8"/>
<circle cx="967.11" cy="600.00" r="3.2" fill="#1d4ed8"/>
<circle cx="969.24" cy="278.90" r="3.2" fill="#1d4ed8"/>
<circle cx="971.37" cy="279.30" r="3.2" fill="#1d4ed8"/>
<circle cx="973.50" cy="278.90" r="3.2" fill="#1d4ed8"/>
<circle cx="975.62" cy="278.49" r="3.2" fill="#1d4ed8"/>
<circle cx="977.75" cy="278.49" r="3.2" fill="#1d4ed8"/>
<circle cx="979.88" cy="278.49" r="3.2" fill="#1d4ed8"/>
<circle cx="982.01" cy="278.49" r="3.2" fill="#1d4ed8"/>
<circle cx="984.14" cy="278.49" r="3.2" fill="#1d4ed8"/>
<circle cx="986.27" cy="278.49" r="3.2" fill="#1d4ed8"/>
<circle cx="988.40" cy="278.49" r="3.2" fill="#1d4ed8"/>
<circle cx="990.53" cy="278.49" r="3.2" fill="#1d4ed8"/>
<circle cx="992.66" cy="278.49" r="3.2" fill="#1d4ed8"/>
<circle cx="994.79" cy="278.49" r="3.2" fill="#1d4ed8"/>
<circle cx="996.91" cy="278.49" r="3.2" fill="#1d4ed8"/>
<circle cx="999.04" cy="278.49" r="3.2" fill="#1d4ed8"/>
<circle cx="1001.17" cy="600.00" r="3.2" fill="#1d4ed8"/>
<circle cx="1003.30" cy="600.00" r="3.2" fill="#1d4ed8"/>
<circle cx="1005.43" cy="254.63" r="3.2" fill="#1d4ed8"/>
<circle cx="1007.56" cy="600.00" r="3.2" fill="#1d4ed8"/>
<circle cx="1009.69" cy="245.74" r="3.2" fill="#1d4ed8"/>
<circle cx="1011.82" cy="245.74" r="3.2" fill="#1d4ed8"/>
<circle cx="1013.95" cy="246.14" r="3.2" fill="#1d4ed8"/>
<circle cx="1016.07" cy="245.74" r="3.2" fill="#1d4ed8"/>
<circle cx="1018.20" cy="245.74" r="3.2" fill="#1d4ed8"/>
<circle cx="1020.33" cy="245.74" r="3.2" fill="#1d4ed8"/>
<circle cx="1022.46" cy="245.74" r="3.2" fill="#1d4ed8"/>
<circle cx="1024.59" cy="245.74" r="3.2" fill="#1d4ed8"/>
<circle cx="1026.72" cy="240.07" r="3.2" fill="#1d4ed8"/>
<circle cx="1028.85" cy="238.05" r="3.2" fill="#1d4ed8"/>
<circle cx="1030.98" cy="238.05" r="3.2" fill="#1d4ed8"/>
<circle cx="1033.11" cy="227.13" r="3.2" fill="#1d4ed8"/>
<circle cx="1035.23" cy="227.13" r="3.2" fill="#1d4ed8"/>
<circle cx="1037.36" cy="226.32" r="3.2" fill="#1d4ed8"/>
<circle cx="1039.49" cy="227.54" r="3.2" fill="#1d4ed8"/>
<circle cx="1041.62" cy="226.73" r="3.2" fill="#1d4ed8"/>
<circle cx="1043.75" cy="226.32" r="3.2" fill="#1d4ed8"/>
<circle cx="1045.88" cy="227.13" r="3.2" fill="#1d4ed8"/>
<circle cx="1048.01" cy="227.13" r="3.2" fill="#1d4ed8"/>
<circle cx="1050.14" cy="226.73" r="3.2" fill="#1d4ed8"/>
<circle cx="1052.27" cy="226.32" r="3.2" fill="#1d4ed8"/>
<circle cx="1054.39" cy="226.73" r="3.2" fill="#1d4ed8"/>
<circle cx="1056.52" cy="226.73" r="3.2" fill="#1d4ed8"/>
<circle cx="1058.65" cy="226.73" r="3.2" fill="#1d4ed8"/>
<circle cx="1060.78" cy="225.11" r="3.2" fill="#1d4ed8"/>
<circle cx="1062.91" cy="224.71" r="3.2" fill="#1d4ed8"/>
<circle cx="1065.04" cy="225.11" r="3.2" fill="#1d4ed8"/>
<circle cx="1067.17" cy="224.30" r="3.2" fill="#1d4ed8"/>
<circle cx="1069.30" cy="226.32" r="3.2" fill="#1d4ed8"/>
<circle cx="1071.43" cy="224.30" r="3.2" fill="#1d4ed8"/>
<circle cx="1073.55" cy="225.51" r="3.2" fill="#1d4ed8"/>
<circle cx="1075.68" cy="225.51" r="3.2" fill="#1d4ed8"/>
<circle cx="1077.81" cy="225.51" r="3.2" fill="#1d4ed8"/>
<circle cx="1079.94" cy="225.92" r="3.2" fill="#1d4ed8"/>
<circle cx="1082.07" cy="223.09" r="3.2" fill="#1d4ed8"/>
<circle cx="1084.20" cy="223.49" r="3.2" fill="#1d4ed8"/>
<circle cx="1086.33" cy="223.09" r="3.2" fill="#1d4ed8"/>
<circle cx="1088.46" cy="223.09" r="3.2" fill="#1d4ed8"/>
<circle cx="1090.59" cy="223.90" r="3.2" fill="#1d4ed8"/>
<circle cx="1092.71" cy="223.49" r="3.2" fill="#1d4ed8"/>
<circle cx="1094.84" cy="223.49" r="3.2" fill="#1d4ed8"/>
<circle cx="1096.97" cy="223.09" r="3.2" fill="#1d4ed8"/>
<circle cx="1099.10" cy="223.09" r="3.2" fill="#1d4ed8"/>
<circle cx="1101.23" cy="223.49" r="3.2" fill="#1d4ed8"/>
<circle cx="1103.36" cy="223.09" r="3.2" fill="#1d4ed8"/>
<circle cx="1105.49" cy="223.09" r="3.2" fill="#1d4ed8"/>
<circle cx="1107.62" cy="223.49" r="3.2" fill="#1d4ed8"/>
<circle cx="1109.75" cy="223.49" r="3.2" fill="#1d4ed8"/>
<circle cx="1111.88" cy="223.09" r="3.2" fill="#1d4ed8"/>
<circle cx="1114.00" cy="223.09" r="3.2" fill="#1d4ed8"/>
<circle cx="1116.13" cy="223.49" r="3.2" fill="#1d4ed8"/>
<circle cx="1118.26" cy="223.09" r="3.2" fill="#1d4ed8"/>
<circle cx="1120.39" cy="223.09" r="3.2" fill="#1d4ed8"/>
<circle cx="1122.52" cy="223.09" r="3.2" fill="#1d4ed8"/>
<circle cx="1124.65" cy="223.49" r="3.2" fill="#1d4ed8"/>
<circle cx="1126.78" cy="223.49" r="3.2" fill="#1d4ed8"/>
<circle cx="1128.91" cy="223.49" r="3.2" fill="#1d4ed8"/>
<circle cx="1131.04" cy="223.09" r="3.2" fill="#1d4ed8"/>
<circle cx="1133.16" cy="223.49" r="3.2" fill="#1d4ed8"/>
<circle cx="1135.29" cy="223.09" r="3.2" fill="#1d4ed8"/>
<circle cx="1137.42" cy="223.09" r="3.2" fill="#1d4ed8"/>
<circle cx="1139.55" cy="223.49" r="3.2" fill="#1d4ed8"/>
<circle cx="1141.68" cy="223.09" r="3.2" fill="#1d4ed8"/>
<circle cx="1143.81" cy="223.09" r="3.2" fill="#1d4ed8"/>
<circle cx="1145.94" cy="223.49" r="3.2" fill="#1d4ed8"/>
<circle cx="1148.07" cy="222.68" r="3.2" fill="#1d4ed8"/>
<circle cx="1150.20" cy="221.88" r="3.2" fill="#1d4ed8"/>
<circle cx="1152.32" cy="223.49" r="3.2" fill="#1d4ed8"/>
<circle cx="1154.45" cy="223.09" r="3.2" fill="#1d4ed8"/>
<circle cx="1156.58" cy="223.49" r="3.2" fill="#1d4ed8"/>
<circle cx="1158.71" cy="224.30" r="3.2" fill="#1d4ed8"/>
<circle cx="1160.84" cy="201.65" r="3.2" fill="#1d4ed8"/>
<circle cx="1162.97" cy="201.65" r="3.2" fill="#1d4ed8"/>
<circle cx="1165.10" cy="186.69" r="3.2" fill="#1d4ed8"/>
<circle cx="1167.23" cy="176.18" r="3.2" fill="#1d4ed8"/>
<circle cx="1169.36" cy="174.15" r="3.2" fill="#1d4ed8"/>
<circle cx="1171.48" cy="172.94" r="3.2" fill="#1d4ed8"/>
<circle cx="1173.61" cy="172.94" r="3.2" fill="#1d4ed8"/>
<circle cx="1175.74" cy="162.02" r="3.2" fill="#1d4ed8"/>
<circle cx="1177.87" cy="161.21" r="3.2" fill="#1d4ed8"/>
<circle cx="1180.00" cy="148.27" r="3.2" fill="#1d4ed8"/>
<text x="635" y="695" text-anchor="middle" font-size="14" fill="#111" font-family="sans-serif">Date</text>
<text x="24" y="325" text-anchor="middle" font-size="14" fill="#111" transform="rotate(-90 24,325)" font-family="sans-serif">Passed files</text>
</svg>
