<?xml version="1.0" encoding="UTF-8"?>
<svg xmlns="http://www.w3.org/2000/svg" width="1280" height="720" viewBox="0 0 1280 720">
<rect width="100%" height="100%" fill="#ffffff"/>
<text x="640" y="30" text-anchor="middle" font-size="22" font-family="sans-serif">Roast passed files history</text>
<line x1="90" y1="600" x2="1180" y2="600" stroke="#333" stroke-width="1.5"/>
<line x1="90" y1="50" x2="90" y2="600" stroke="#333" stroke-width="1.5"/>
<line x1="90" y1="600.00" x2="1180" y2="600.00" stroke="#e5e7eb" stroke-width="1"/>
<text x="78" y="605.00" text-anchor="end" font-size="12" fill="#111" font-family="sans-serif">0</text>
<line x1="90" y1="398.09" x2="1180" y2="398.09" stroke="#e5e7eb" stroke-width="1"/>
<text x="78" y="403.09" text-anchor="end" font-size="12" fill="#111" font-family="sans-serif">500</text>
<line x1="90" y1="196.18" x2="1180" y2="196.18" stroke="#e5e7eb" stroke-width="1"/>
<text x="78" y="201.18" text-anchor="end" font-size="12" fill="#111" font-family="sans-serif">1000</text>
<line x1="90.00" y1="600" x2="90.00" y2="606" stroke="#333" stroke-width="1"/>
<text x="90.00" y="624" text-anchor="end" font-size="11" fill="#111" transform="rotate(-40 90.00,624)" font-family="sans-serif">2026-02-12</text>
<line x1="228.73" y1="600" x2="228.73" y2="606" stroke="#333" stroke-width="1"/>
<text x="228.73" y="624" text-anchor="end" font-size="11" fill="#111" transform="rotate(-40 228.73,624)" font-family="sans-serif">2026-02-14</text>
<line x1="367.45" y1="600" x2="367.45" y2="606" stroke="#333" stroke-width="1"/>
<text x="367.45" y="624" text-anchor="end" font-size="11" fill="#111" transform="rotate(-40 367.45,624)" font-family="sans-serif">2026-02-15</text>
<line x1="506.18" y1="600" x2="506.18" y2="606" stroke="#333" stroke-width="1"/>
<text x="506.18" y="624" text-anchor="end" font-size="11" fill="#111" transform="rotate(-40 506.18,624)" font-family="sans-serif">2026-02-15</text>
<line x1="644.91" y1="600" x2="644.91" y2="606" stroke="#333" stroke-width="1"/>
<text x="644.91" y="624" text-anchor="end" font-size="11" fill="#111" transform="rotate(-40 644.91,624)" font-family="sans-serif">2026-02-17</text>
<line x1="783.64" y1="600" x2="783.64" y2="606" stroke="#333" stroke-width="1"/>
<text x="783.64" y="624" text-anchor="end" font-size="11" fill="#111" transform="rotate(-40 783.64,624)" font-family="sans-serif">2026-02-17</text>
<line x1="922.36" y1="600" x2="922.36" y2="606" stroke="#333" stroke-width="1"/>
<text x="922.36" y="624" text-anchor="end" font-size="11" fill="#111" transform="rotate(-40 922.36,624)" font-family="sans-serif">2026-02-17</text>
<line x1="1061.09" y1="600" x2="1061.09" y2="606" stroke="#333" stroke-width="1"/>
<text x="1061.09" y="624" text-anchor="end" font-size="11" fill="#111" transform="rotate(-40 1061.09,624)" font-family="sans-serif">2026-02-17</text>
<line x1="1180.00" y1="600" x2="1180.00" y2="606" stroke="#333" stroke-width="1"/>
<text x="1180.00" y="624" text-anchor="end" font-size="11" fill="#111" transform="rotate(-40 1180.00,624)" font-family="sans-serif">2026-02-18</text>
<line x1="90" y1="75.84" x2="1180" y2="75.84" stroke="#dc2626" stroke-width="1.5" stroke-dasharray="8,4"/>
<text x="1184" y="79.84" font-size="12" fill="#dc2626" font-family="sans-serif">Goal: 1298</text>
<polyline fill="none" stroke="#2563eb" stroke-width="3" points="90.00,540.64 109.82,538.62 129.64,537.00 149.45,534.58 169.27,534.58 189.09,533.37 208.91,532.56 228.73,532.97 248.55,532.16 268.36,532.56 288.18,532.16 308.00,568.50 327.82,568.50 347.64,566.48 367.45,545.08 387.27,545.08 407.09,544.27 426.91,543.87 446.73,543.87 466.55,543.47 486.36,541.85 506.18,541.45 526.00,541.04 545.82,541.04 565.64,539.43 585.45,539.43 605.27,556.79 625.09,556.79 644.91,555.58 664.73,551.14 684.55,539.02 704.36,539.02 724.18,539.02 744.00,538.22 763.82,537.00 783.64,537.00 803.45,536.60 823.27,536.60 843.09,556.79 862.91,556.79 882.73,556.79 902.55,556.79 922.36,535.39 942.18,535.39 962.00,535.39 981.82,535.39 1001.64,534.58 1021.45,534.18 1041.27,533.77 1061.09,532.97 1080.91,532.16 1100.73,532.16 1120.55,531.35 1140.36,530.95 1160.18,530.54 1180.00,530.14"/>
<circle cx="90.00" cy="540.64" r="3.2" fill="#1d4ed8"/>
<circle cx="109.82" cy="538.62" r="3.2" fill="#1d4ed8"/>
<circle cx="129.64" cy="537.00" r="3.2" fill="#1d4ed8"/>
<circle cx="149.45" cy="534.58" r="3.2" fill="#1d4ed8"/>
<circle cx="169.27" cy="534.58" r="3.2" fill="#1d4ed8"/>
<circle cx="189.09" cy="533.37" r="3.2" fill="#1d4ed8"/>
<circle cx="208.91" cy="532.56" r="3.2" fill="#1d4ed8"/>
<circle cx="228.73" cy="532.97" r="3.2" fill="#1d4ed8"/>
<circle cx="248.55" cy="532.16" r="3.2" fill="#1d4ed8"/>
<circle cx="268.36" cy="532.56" r="3.2" fill="#1d4ed8"/>
<circle cx="288.18" cy="532.16" r="3.2" fill="#1d4ed8"/>
<circle cx="308.00" cy="568.50" r="3.2" fill="#1d4ed8"/>
<circle cx="327.82" cy="568.50" r="3.2" fill="#1d4ed8"/>
<circle cx="347.64" cy="566.48" r="3.2" fill="#1d4ed8"/>
<circle cx="367.45" cy="545.08" r="3.2" fill="#1d4ed8"/>
<circle cx="387.27" cy="545.08" r="3.2" fill="#1d4ed8"/>
<circle cx="407.09" cy="544.27" r="3.2" fill="#1d4ed8"/>
<circle cx="426.91" cy="543.87" r="3.2" fill="#1d4ed8"/>
<circle cx="446.73" cy="543.87" r="3.2" fill="#1d4ed8"/>
<circle cx="466.55" cy="543.47" r="3.2" fill="#1d4ed8"/>
<circle cx="486.36" cy="541.85" r="3.2" fill="#1d4ed8"/>
<circle cx="506.18" cy="541.45" r="3.2" fill="#1d4ed8"/>
<circle cx="526.00" cy="541.04" r="3.2" fill="#1d4ed8"/>
<circle cx="545.82" cy="541.04" r="3.2" fill="#1d4ed8"/>
<circle cx="565.64" cy="539.43" r="3.2" fill="#1d4ed8"/>
<circle cx="585.45" cy="539.43" r="3.2" fill="#1d4ed8"/>
<circle cx="605.27" cy="556.79" r="3.2" fill="#1d4ed8"/>
<circle cx="625.09" cy="556.79" r="3.2" fill="#1d4ed8"/>
<circle cx="644.91" cy="555.58" r="3.2" fill="#1d4ed8"/>
<circle cx="664.73" cy="551.14" r="3.2" fill="#1d4ed8"/>
<circle cx="684.55" cy="539.02" r="3.2" fill="#1d4ed8"/>
<circle cx="704.36" cy="539.02" r="3.2" fill="#1d4ed8"/>
<circle cx="724.18" cy="539.02" r="3.2" fill="#1d4ed8"/>
<circle cx="744.00" cy="538.22" r="3.2" fill="#1d4ed8"/>
<circle cx="763.82" cy="537.00" r="3.2" fill="#1d4ed8"/>
<circle cx="783.64" cy="537.00" r="3.2" fill="#1d4ed8"/>
<circle cx="803.45" cy="536.60" r="3.2" fill="#1d4ed8"/>
<circle cx="823.27" cy="536.60" r="3.2" fill="#1d4ed8"/>
<circle cx="843.09" cy="556.79" r="3.2" fill="#1d4ed8"/>
<circle cx="862.91" cy="556.79" r="3.2" fill="#1d4ed8"/>
<circle cx="882.73" cy="556.79" r="3.2" fill="#1d4ed8"/>
<circle cx="902.55" cy="556.79" r="3.2" fill="#1d4ed8"/>
<circle cx="922.36" cy="535.39" r="3.2" fill="#1d4ed8"/>
<circle cx="942.18" cy="535.39" r="3.2" fill="#1d4ed8"/>
<circle cx="962.00" cy="535.39" r="3.2" fill="#1d4ed8"/>
<circle cx="981.82" cy="535.39" r="3.2" fill="#1d4ed8"/>
<circle cx="1001.64" cy="534.58" r="3.2" fill="#1d4ed8"/>
<circle cx="1021.45" cy="534.18" r="3.2" fill="#1d4ed8"/>
<circle cx="1041.27" cy="533.77" r="3.2" fill="#1d4ed8"/>
<circle cx="1061.09" cy="532.97" r="3.2" fill="#1d4ed8"/>
<circle cx="1080.91" cy="532.16" r="3.2" fill="#1d4ed8"/>
<circle cx="1100.73" cy="532.16" r="3.2" fill="#1d4ed8"/>
<circle cx="1120.55" cy="531.35" r="3.2" fill="#1d4ed8"/>
<circle cx="1140.36" cy="530.95" r="3.2" fill="#1d4ed8"/>
<circle cx="1160.18" cy="530.54" r="3.2" fill="#1d4ed8"/>
<circle cx="1180.00" cy="530.14" r="3.2" fill="#1d4ed8"/>
<text x="635" y="695" text-anchor="middle" font-size="14" fill="#111" font-family="sans-serif">Date</text>
<text x="24" y="325" text-anchor="middle" font-size="14" fill="#111" transform="rotate(-90 24,325)" font-family="sans-serif">Passed files</text>
</svg>
