<?xml version="1.0" encoding="UTF-8"?>
<svg xmlns="http://www.w3.org/2000/svg" width="1280" height="720" viewBox="0 0 1280 720">
<rect width="100%" height="100%" fill="#ffffff"/>
<text x="640" y="30" text-anchor="middle" font-size="22" font-family="sans-serif">Roast passed files history</text>
<line x1="90" y1="600" x2="1180" y2="600" stroke="#333" stroke-width="1.5"/>
<line x1="90" y1="50" x2="90" y2="600" stroke="#333" stroke-width="1.5"/>
<line x1="90" y1="600.00" x2="1180" y2="600.00" stroke="#e5e7eb" stroke-width="1"/>
<text x="78" y="605.00" text-anchor="end" font-size="12" fill="#111" font-family="sans-serif">0</text>
<line x1="90" y1="397.79" x2="1180" y2="397.79" stroke="#e5e7eb" stroke-width="1"/>
<text x="78" y="402.79" text-anchor="end" font-size="12" fill="#111" font-family="sans-serif">500</text>
<line x1="90" y1="195.59" x2="1180" y2="195.59" stroke="#e5e7eb" stroke-width="1"/>
<text x="78" y="200.59" text-anchor="end" font-size="12" fill="#111" font-family="sans-serif">1000</text>
<line x1="90.00" y1="600" x2="90.00" y2="606" stroke="#333" stroke-width="1"/>
<text x="90.00" y="624" text-anchor="end" font-size="11" fill="#111" transform="rotate(-40 90.00,624)" font-family="sans-serif">2026-02-12</text>
<line x1="224.43" y1="600" x2="224.43" y2="606" stroke="#333" stroke-width="1"/>
<text x="224.43" y="624" text-anchor="end" font-size="11" fill="#111" transform="rotate(-40 224.43,624)" font-family="sans-serif">2026-02-17</text>
<line x1="358.87" y1="600" x2="358.87" y2="606" stroke="#333" stroke-width="1"/>
<text x="358.87" y="624" text-anchor="end" font-size="11" fill="#111" transform="rotate(-40 358.87,624)" font-family="sans-serif">2026-02-20</text>
<line x1="493.30" y1="600" x2="493.30" y2="606" stroke="#333" stroke-width="1"/>
<text x="493.30" y="624" text-anchor="end" font-size="11" fill="#111" transform="rotate(-40 493.30,624)" font-family="sans-serif">2026-02-24</text>
<line x1="627.73" y1="600" x2="627.73" y2="606" stroke="#333" stroke-width="1"/>
<text x="627.73" y="624" text-anchor="end" font-size="11" fill="#111" transform="rotate(-40 627.73,624)" font-family="sans-serif">2026-02-26</text>
<line x1="762.17" y1="600" x2="762.17" y2="606" stroke="#333" stroke-width="1"/>
<text x="762.17" y="624" text-anchor="end" font-size="11" fill="#111" transform="rotate(-40 762.17,624)" font-family="sans-serif">2026-02-28</text>
<line x1="896.60" y1="600" x2="896.60" y2="606" stroke="#333" stroke-width="1"/>
<text x="896.60" y="624" text-anchor="end" font-size="11" fill="#111" transform="rotate(-40 896.60,624)" font-family="sans-serif">2026-03-06</text>
<line x1="1031.03" y1="600" x2="1031.03" y2="606" stroke="#333" stroke-width="1"/>
<text x="1031.03" y="624" text-anchor="end" font-size="11" fill="#111" transform="rotate(-40 1031.03,624)" font-family="sans-serif">2026-03-06</text>
<line x1="1165.47" y1="600" x2="1165.47" y2="606" stroke="#333" stroke-width="1"/>
<text x="1165.47" y="624" text-anchor="end" font-size="11" fill="#111" transform="rotate(-40 1165.47,624)" font-family="sans-serif">2026-03-08</text>
<line x1="1180.00" y1="600" x2="1180.00" y2="606" stroke="#333" stroke-width="1"/>
<text x="1180.00" y="624" text-anchor="end" font-size="11" fill="#111" transform="rotate(-40 1180.00,624)" font-family="sans-serif">2026-03-08</text>
<line x1="90" y1="75.88" x2="1180" y2="75.88" stroke="#dc2626" stroke-width="1.5" stroke-dasharray="8,4"/>
<text x="1184" y="79.88" font-size="12" fill="#dc2626" font-family="sans-serif">Goal: 1296</text>
<polyline fill="none" stroke="#2563eb" stroke-width="3" points="90.00,540.55 93.63,538.53 97.27,536.91 100.90,534.49 104.53,534.49 108.17,533.27 111.80,532.46 115.43,532.87 119.07,532.06 122.70,532.46 126.33,532.06 129.97,568.46 133.60,568.46 137.23,566.43 140.87,545.00 144.50,545.00 148.13,544.19 151.77,543.79 155.40,543.79 159.03,543.38 162.67,541.76 166.30,541.36 169.93,540.96 173.57,540.96 177.20,539.34 180.83,539.34 184.47,556.73 188.10,556.73 191.73,555.51 195.37,551.07 199.00,538.93 202.63,538.93 206.27,538.93 209.90,538.12 213.53,536.91 217.17,536.91 220.80,536.51 224.43,536.51 228.07,556.73 231.70,556.73 235.33,556.73 238.97,556.73 242.60,535.29 246.23,535.29 249.87,535.29 253.50,535.29 257.13,534.49 260.77,534.08 264.40,533.68 268.03,532.87 271.67,532.06 275.30,532.06 278.93,531.25 282.57,530.85 286.20,530.44 289.83,530.04 293.47,530.04 297.10,529.23 300.73,529.23 304.37,529.23 308.00,528.42 311.63,528.42 315.27,527.61 318.90,527.21 322.53,526.80 326.17,526.40 329.80,525.18 333.43,523.57 337.07,523.57 340.70,523.16 344.33,522.76 347.97,522.35 351.60,521.54 355.23,519.52 358.87,517.50 362.50,517.50 366.13,517.50 369.77,517.50 373.40,517.50 377.03,517.50 380.67,517.10 384.30,516.69 387.93,515.48 391.57,515.07 395.20,514.67 398.83,513.86 402.47,514.26 406.10,512.24 409.73,511.84 413.37,511.84 417.00,511.03 420.63,509.82 424.27,507.79 427.90,506.99 431.53,506.58 435.17,509.41 438.80,509.01 442.43,504.96 446.07,504.56 449.70,504.15 453.33,504.56 456.97,503.75 460.60,503.75 464.23,503.35 467.87,499.30 471.50,496.47 475.13,490.00 478.77,484.34 482.40,481.10 486.03,480.29 489.67,480.70 493.30,460.88 496.93,459.26 500.57,458.05 504.20,456.03 507.83,456.03 511.47,454.41 515.10,450.77 518.73,444.30 522.37,443.90 526.00,600.00 529.63,441.88 533.27,440.66 536.90,439.45 540.53,439.04 544.17,438.64 547.80,437.83 551.43,436.62 555.07,436.62 558.70,434.60 562.33,432.17 565.97,429.34 569.60,428.93 573.23,428.53 576.87,427.72 580.50,426.91 584.13,426.10 587.77,426.10 591.40,426.10 595.03,419.63 598.67,419.23 602.30,418.42 605.93,418.01 609.57,417.61 613.20,417.61 616.83,417.61 620.47,417.21 624.10,417.21 627.73,413.57 631.37,411.95 635.00,412.76 638.63,410.74 642.27,410.74 645.90,410.33 649.53,410.33 653.17,410.33 656.80,409.93 660.43,409.93 664.07,409.93 667.70,409.52 671.33,409.52 674.97,409.12 678.60,409.52 682.23,409.12 685.87,407.50 689.50,407.10 693.13,403.05 696.77,399.82 700.40,400.22 704.03,400.62 707.67,400.62 711.30,399.41 714.93,392.94 718.57,391.32 722.20,389.30 725.83,389.30 729.47,388.49 733.10,375.15 736.73,374.74 740.37,374.74 744.00,374.74 747.63,374.74 751.27,374.34 754.90,374.34 758.53,374.34 762.17,374.34 765.80,374.34 769.43,373.93 773.07,373.12 776.70,372.72 780.33,373.53 783.97,435.81 787.60,372.32 791.23,372.72 794.87,371.91 798.50,371.91 802.13,372.32 805.77,371.10 809.40,369.89 813.03,369.89 816.67,369.89 820.30,369.49 823.93,369.89 827.57,369.08 831.20,368.68 834.83,368.27 838.47,367.87 842.10,367.06 845.73,367.46 849.37,367.06 853.00,366.25 856.63,368.27 860.27,368.68 863.90,368.68 867.53,368.27 871.17,369.08 874.80,367.87 878.43,367.46 882.07,367.06 885.70,360.18 889.33,359.78 892.97,359.38 896.60,356.95 900.23,357.35 903.87,357.76 907.50,355.33 911.13,355.74 914.77,357.35 918.40,355.33 922.03,356.14 925.67,355.74 929.30,356.14 932.93,354.12 936.57,354.93 940.20,356.14 943.83,354.52 947.47,353.71 951.10,354.12 954.73,354.93 958.37,352.90 962.00,353.71 965.63,353.31 969.27,353.31 972.90,354.52 976.53,352.90 980.17,352.50 983.80,352.50 987.43,353.31 991.07,352.50 994.70,353.71 998.33,354.12 1001.97,352.50 1005.60,352.90 1009.23,352.50 1012.87,352.10 1016.50,351.69 1020.13,352.10 1023.77,354.12 1027.40,352.50 1031.03,352.10 1034.67,352.10 1038.30,349.67 1041.93,349.67 1045.57,350.88 1049.20,351.29 1052.83,350.48 1056.47,352.10 1060.10,350.48 1063.73,350.48 1067.37,350.48 1071.00,350.07 1074.63,348.46 1078.27,351.29 1081.90,349.67 1085.53,351.29 1089.17,349.67 1092.80,348.86 1096.43,348.46 1100.07,348.46 1103.70,347.24 1107.33,348.86 1110.97,346.84 1114.60,348.46 1118.23,348.86 1121.87,346.84 1125.50,349.26 1129.13,348.05 1132.77,349.26 1136.40,349.26 1140.03,350.48 1143.67,352.90 1147.30,349.67 1150.93,348.46 1154.57,345.62 1158.20,344.82 1161.83,344.41 1165.47,342.39 1169.10,341.18 1172.73,341.58 1176.37,339.15 1180.00,338.35"/>
<circle cx="90.00" cy="540.55" r="3.2" fill="#1d4ed8"/>
<circle cx="93.63" cy="538.53" r="3.2" fill="#1d4ed8"/>
<circle cx="97.27" cy="536.91" r="3.2" fill="#1d4ed8"/>
<circle cx="100.90" cy="534.49" r="3.2" fill="#1d4ed8"/>
<circle cx="104.53" cy="534.49" r="3.2" fill="#1d4ed8"/>
<circle cx="108.17" cy="533.27" r="3.2" fill="#1d4ed8"/>
<circle cx="111.80" cy="532.46" r="3.2" fill="#1d4ed8"/>
<circle cx="115.43" cy="532.87" r="3.2" fill="#1d4ed8"/>
<circle cx="119.07" cy="532.06" r="3.2" fill="#1d4ed8"/>
<circle cx="122.70" cy="532.46" r="3.2" fill="#1d4ed8"/>
<circle cx="126.33" cy="532.06" r="3.2" fill="#1d4ed8"/>
<circle cx="129.97" cy="568.46" r="3.2" fill="#1d4ed8"/>
<circle cx="133.60" cy="568.46" r="3.2" fill="#1d4ed8"/>
<circle cx="137.23" cy="566.43" r="3.2" fill="#1d4ed8"/>
<circle cx="140.87" cy="545.00" r="3.2" fill="#1d4ed8"/>
<circle cx="144.50" cy="545.00" r="3.2" fill="#1d4ed8"/>
<circle cx="148.13" cy="544.19" r="3.2" fill="#1d4ed8"/>
<circle cx="151.77" cy="543.79" r="3.2" fill="#1d4ed8"/>
<circle cx="155.40" cy="543.79" r="3.2" fill="#1d4ed8"/>
<circle cx="159.03" cy="543.38" r="3.2" fill="#1d4ed8"/>
<circle cx="162.67" cy="541.76" r="3.2" fill="#1d4ed8"/>
<circle cx="166.30" cy="541.36" r="3.2" fill="#1d4ed8"/>
<circle cx="169.93" cy="540.96" r="3.2" fill="#1d4ed8"/>
<circle cx="173.57" cy="540.96" r="3.2" fill="#1d4ed8"/>
<circle cx="177.20" cy="539.34" r="3.2" fill="#1d4ed8"/>
<circle cx="180.83" cy="539.34" r="3.2" fill="#1d4ed8"/>
<circle cx="184.47" cy="556.73" r="3.2" fill="#1d4ed8"/>
<circle cx="188.10" cy="556.73" r="3.2" fill="#1d4ed8"/>
<circle cx="191.73" cy="555.51" r="3.2" fill="#1d4ed8"/>
<circle cx="195.37" cy="551.07" r="3.2" fill="#1d4ed8"/>
<circle cx="199.00" cy="538.93" r="3.2" fill="#1d4ed8"/>
<circle cx="202.63" cy="538.93" r="3.2" fill="#1d4ed8"/>
<circle cx="206.27" cy="538.93" r="3.2" fill="#1d4ed8"/>
<circle cx="209.90" cy="538.12" r="3.2" fill="#1d4ed8"/>
<circle cx="213.53" cy="536.91" r="3.2" fill="#1d4ed8"/>
<circle cx="217.17" cy="536.91" r="3.2" fill="#1d4ed8"/>
<circle cx="220.80" cy="536.51" r="3.2" fill="#1d4ed8"/>
<circle cx="224.43" cy="536.51" r="3.2" fill="#1d4ed8"/>
<circle cx="228.07" cy="556.73" r="3.2" fill="#1d4ed8"/>
<circle cx="231.70" cy="556.73" r="3.2" fill="#1d4ed8"/>
<circle cx="235.33" cy="556.73" r="3.2" fill="#1d4ed8"/>
<circle cx="238.97" cy="556.73" r="3.2" fill="#1d4ed8"/>
<circle cx="242.60" cy="535.29" r="3.2" fill="#1d4ed8"/>
<circle cx="246.23" cy="535.29" r="3.2" fill="#1d4ed8"/>
<circle cx="249.87" cy="535.29" r="3.2" fill="#1d4ed8"/>
<circle cx="253.50" cy="535.29" r="3.2" fill="#1d4ed8"/>
<circle cx="257.13" cy="534.49" r="3.2" fill="#1d4ed8"/>
<circle cx="260.77" cy="534.08" r="3.2" fill="#1d4ed8"/>
<circle cx="264.40" cy="533.68" r="3.2" fill="#1d4ed8"/>
<circle cx="268.03" cy="532.87" r="3.2" fill="#1d4ed8"/>
<circle cx="271.67" cy="532.06" r="3.2" fill="#1d4ed8"/>
<circle cx="275.30" cy="532.06" r="3.2" fill="#1d4ed8"/>
<circle cx="278.93" cy="531.25" r="3.2" fill="#1d4ed8"/>
<circle cx="282.57" cy="530.85" r="3.2" fill="#1d4ed8"/>
<circle cx="286.20" cy="530.44" r="3.2" fill="#1d4ed8"/>
<circle cx="289.83" cy="530.04" r="3.2" fill="#1d4ed8"/>
<circle cx="293.47" cy="530.04" r="3.2" fill="#1d4ed8"/>
<circle cx="297.10" cy="529.23" r="3.2" fill="#1d4ed8"/>
<circle cx="300.73" cy="529.23" r="3.2" fill="#1d4ed8"/>
<circle cx="304.37" cy="529.23" r="3.2" fill="#1d4ed8"/>
<circle cx="308.00" cy="528.42" r="3.2" fill="#1d4ed8"/>
<circle cx="311.63" cy="528.42" r="3.2" fill="#1d4ed8"/>
<circle cx="315.27" cy="527.61" r="3.2" fill="#1d4ed8"/>
<circle cx="318.90" cy="527.21" r="3.2" fill="#1d4ed8"/>
<circle cx="322.53" cy="526.80" r="3.2" fill="#1d4ed8"/>
<circle cx="326.17" cy="526.40" r="3.2" fill="#1d4ed8"/>
<circle cx="329.80" cy="525.18" r="3.2" fill="#1d4ed8"/>
<circle cx="333.43" cy="523.57" r="3.2" fill="#1d4ed8"/>
<circle cx="337.07" cy="523.57" r="3.2" fill="#1d4ed8"/>
<circle cx="340.70" cy="523.16" r="3.2" fill="#1d4ed8"/>
<circle cx="344.33" cy="522.76" r="3.2" fill="#1d4ed8"/>
<circle cx="347.97" cy="522.35" r="3.2" fill="#1d4ed8"/>
<circle cx="351.60" cy="521.54" r="3.2" fill="#1d4ed8"/>
<circle cx="355.23" cy="519.52" r="3.2" fill="#1d4ed8"/>
<circle cx="358.87" cy="517.50" r="3.2" fill="#1d4ed8"/>
<circle cx="362.50" cy="517.50" r="3.2" fill="#1d4ed8"/>
<circle cx="366.13" cy="517.50" r="3.2" fill="#1d4ed8"/>
<circle cx="369.77" cy="517.50" r="3.2" fill="#1d4ed8"/>
<circle cx="373.40" cy="517.50" r="3.2" fill="#1d4ed8"/>
<circle cx="377.03" cy="517.50" r="3.2" fill="#1d4ed8"/>
<circle cx="380.67" cy="517.10" r="3.2" fill="#1d4ed8"/>
<circle cx="384.30" cy="516.69" r="3.2" fill="#1d4ed8"/>
<circle cx="387.93" cy="515.48" r="3.2" fill="#1d4ed8"/>
<circle cx="391.57" cy="515.07" r="3.2" fill="#1d4ed8"/>
<circle cx="395.20" cy="514.67" r="3.2" fill="#1d4ed8"/>
<circle cx="398.83" cy="513.86" r="3.2" fill="#1d4ed8"/>
<circle cx="402.47" cy="514.26" r="3.2" fill="#1d4ed8"/>
<circle cx="406.10" cy="512.24" r="3.2" fill="#1d4ed8"/>
<circle cx="409.73" cy="511.84" r="3.2" fill="#1d4ed8"/>
<circle cx="413.37" cy="511.84" r="3.2" fill="#1d4ed8"/>
<circle cx="417.00" cy="511.03" r="3.2" fill="#1d4ed8"/>
<circle cx="420.63" cy="509.82" r="3.2" fill="#1d4ed8"/>
<circle cx="424.27" cy="507.79" r="3.2" fill="#1d4ed8"/>
<circle cx="427.90" cy="506.99" r="3.2" fill="#1d4ed8"/>
<circle cx="431.53" cy="506.58" r="3.2" fill="#1d4ed8"/>
<circle cx="435.17" cy="509.41" r="3.2" fill="#1d4ed8"/>
<circle cx="438.80" cy="509.01" r="3.2" fill="#1d4ed8"/>
<circle cx="442.43" cy="504.96" r="3.2" fill="#1d4ed8"/>
<circle cx="446.07" cy="504.56" r="3.2" fill="#1d4ed8"/>
<circle cx="449.70" cy="504.15" r="3.2" fill="#1d4ed8"/>
<circle cx="453.33" cy="504.56" r="3.2" fill="#1d4ed8"/>
<circle cx="456.97" cy="503.75" r="3.2" fill="#1d4ed8"/>
<circle cx="460.60" cy="503.75" r="3.2" fill="#1d4ed8"/>
<circle cx="464.23" cy="503.35" r="3.2" fill="#1d4ed8"/>
<circle cx="467.87" cy="499.30" r="3.2" fill="#1d4ed8"/>
<circle cx="471.50" cy="496.47" r="3.2" fill="#1d4ed8"/>
<circle cx="475.13" cy="490.00" r="3.2" fill="#1d4ed8"/>
<circle cx="478.77" cy="484.34" r="3.2" fill="#1d4ed8"/>
<circle cx="482.40" cy="481.10" r="3.2" fill="#1d4ed8"/>
<circle cx="486.03" cy="480.29" r="3.2" fill="#1d4ed8"/>
<circle cx="489.67" cy="480.70" r="3.2" fill="#1d4ed8"/>
<circle cx="493.30" cy="460.88" r="3.2" fill="#1d4ed8"/>
<circle cx="496.93" cy="459.26" r="3.2" fill="#1d4ed8"/>
<circle cx="500.57" cy="458.05" r="3.2" fill="#1d4ed8"/>
<circle cx="504.20" cy="456.03" r="3.2" fill="#1d4ed8"/>
<circle cx="507.83" cy="456.03" r="3.2" fill="#1d4ed8"/>
<circle cx="511.47" cy="454.41" r="3.2" fill="#1d4ed8"/>
<circle cx="515.10" cy="450.77" r="3.2" fill="#1d4ed8"/>
<circle cx="518.73" cy="444.30" r="3.2" fill="#1d4ed8"/>
<circle cx="522.37" cy="443.90" r="3.2" fill="#1d4ed8"/>
<circle cx="526.00" cy="600.00" r="3.2" fill="#1d4ed8"/>
<circle cx="529.63" cy="441.88" r="3.2" fill="#1d4ed8"/>
<circle cx="533.27" cy="440.66" r="3.2" fill="#1d4ed8"/>
<circle cx="536.90" cy="439.45" r="3.2" fill="#1d4ed8"/>
<circle cx="540.53" cy="439.04" r="3.2" fill="#1d4ed8"/>
<circle cx="544.17" cy="438.64" r="3.2" fill="#1d4ed8"/>
<circle cx="547.80" cy="437.83" r="3.2" fill="#1d4ed8"/>
<circle cx="551.43" cy="436.62" r="3.2" fill="#1d4ed8"/>
<circle cx="555.07" cy="436.62" r="3.2" fill="#1d4ed8"/>
<circle cx="558.70" cy="434.60" r="3.2" fill="#1d4ed8"/>
<circle cx="562.33" cy="432.17" r="3.2" fill="#1d4ed8"/>
<circle cx="565.97" cy="429.34" r="3.2" fill="#1d4ed8"/>
<circle cx="569.60" cy="428.93" r="3.2" fill="#1d4ed8"/>
<circle cx="573.23" cy="428.53" r="3.2" fill="#1d4ed8"/>
<circle cx="576.87" cy="427.72" r="3.2" fill="#1d4ed8"/>
<circle cx="580.50" cy="426.91" r="3.2" fill="#1d4ed8"/>
<circle cx="584.13" cy="426.10" r="3.2" fill="#1d4ed8"/>
<circle cx="587.77" cy="426.10" r="3.2" fill="#1d4ed8"/>
<circle cx="591.40" cy="426.10" r="3.2" fill="#1d4ed8"/>
<circle cx="595.03" cy="419.63" r="3.2" fill="#1d4ed8"/>
<circle cx="598.67" cy="419.23" r="3.2" fill="#1d4ed8"/>
<circle cx="602.30" cy="418.42" r="3.2" fill="#1d4ed8"/>
<circle cx="605.93" cy="418.01" r="3.2" fill="#1d4ed8"/>
<circle cx="609.57" cy="417.61" r="3.2" fill="#1d4ed8"/>
<circle cx="613.20" cy="417.61" r="3.2" fill="#1d4ed8"/>
<circle cx="616.83" cy="417.61" r="3.2" fill="#1d4ed8"/>
<circle cx="620.47" cy="417.21" r="3.2" fill="#1d4ed8"/>
<circle cx="624.10" cy="417.21" r="3.2" fill="#1d4ed8"/>
<circle cx="627.73" cy="413.57" r="3.2" fill="#1d4ed8"/>
<circle cx="631.37" cy="411.95" r="3.2" fill="#1d4ed8"/>
<circle cx="635.00" cy="412.76" r="3.2" fill="#1d4ed8"/>
<circle cx="638.63" cy="410.74" r="3.2" fill="#1d4ed8"/>
<circle cx="642.27" cy="410.74" r="3.2" fill="#1d4ed8"/>
<circle cx="645.90" cy="410.33" r="3.2" fill="#1d4ed8"/>
<circle cx="649.53" cy="410.33" r="3.2" fill="#1d4ed8"/>
<circle cx="653.17" cy="410.33" r="3.2" fill="#1d4ed8"/>
<circle cx="656.80" cy="409.93" r="3.2" fill="#1d4ed8"/>
<circle cx="660.43" cy="409.93" r="3.2" fill="#1d4ed8"/>
<circle cx="664.07" cy="409.93" r="3.2" fill="#1d4ed8"/>
<circle cx="667.70" cy="409.52" r="3.2" fill="#1d4ed8"/>
<circle cx="671.33" cy="409.52" r="3.2" fill="#1d4ed8"/>
<circle cx="674.97" cy="409.12" r="3.2" fill="#1d4ed8"/>
<circle cx="678.60" cy="409.52" r="3.2" fill="#1d4ed8"/>
<circle cx="682.23" cy="409.12" r="3.2" fill="#1d4ed8"/>
<circle cx="685.87" cy="407.50" r="3.2" fill="#1d4ed8"/>
<circle cx="689.50" cy="407.10" r="3.2" fill="#1d4ed8"/>
<circle cx="693.13" cy="403.05" r="3.2" fill="#1d4ed8"/>
<circle cx="696.77" cy="399.82" r="3.2" fill="#1d4ed8"/>
<circle cx="700.40" cy="400.22" r="3.2" fill="#1d4ed8"/>
<circle cx="704.03" cy="400.62" r="3.2" fill="#1d4ed8"/>
<circle cx="707.67" cy="400.62" r="3.2" fill="#1d4ed8"/>
<circle cx="711.30" cy="399.41" r="3.2" fill="#1d4ed8"/>
<circle cx="714.93" cy="392.94" r="3.2" fill="#1d4ed8"/>
<circle cx="718.57" cy="391.32" r="3.2" fill="#1d4ed8"/>
<circle cx="722.20" cy="389.30" r="3.2" fill="#1d4ed8"/>
<circle cx="725.83" cy="389.30" r="3.2" fill="#1d4ed8"/>
<circle cx="729.47" cy="388.49" r="3.2" fill="#1d4ed8"/>
<circle cx="733.10" cy="375.15" r="3.2" fill="#1d4ed8"/>
<circle cx="736.73" cy="374.74" r="3.2" fill="#1d4ed8"/>
<circle cx="740.37" cy="374.74" r="3.2" fill="#1d4ed8"/>
<circle cx="744.00" cy="374.74" r="3.2" fill="#1d4ed8"/>
<circle cx="747.63" cy="374.74" r="3.2" fill="#1d4ed8"/>
<circle cx="751.27" cy="374.34" r="3.2" fill="#1d4ed8"/>
<circle cx="754.90" cy="374.34" r="3.2" fill="#1d4ed8"/>
<circle cx="758.53" cy="374.34" r="3.2" fill="#1d4ed8"/>
<circle cx="762.17" cy="374.34" r="3.2" fill="#1d4ed8"/>
<circle cx="765.80" cy="374.34" r="3.2" fill="#1d4ed8"/>
<circle cx="769.43" cy="373.93" r="3.2" fill="#1d4ed8"/>
<circle cx="773.07" cy="373.12" r="3.2" fill="#1d4ed8"/>
<circle cx="776.70" cy="372.72" r="3.2" fill="#1d4ed8"/>
<circle cx="780.33" cy="373.53" r="3.2" fill="#1d4ed8"/>
<circle cx="783.97" cy="435.81" r="3.2" fill="#1d4ed8"/>
<circle cx="787.60" cy="372.32" r="3.2" fill="#1d4ed8"/>
<circle cx="791.23" cy="372.72" r="3.2" fill="#1d4ed8"/>
<circle cx="794.87" cy="371.91" r="3.2" fill="#1d4ed8"/>
<circle cx="798.50" cy="371.91" r="3.2" fill="#1d4ed8"/>
<circle cx="802.13" cy="372.32" r="3.2" fill="#1d4ed8"/>
<circle cx="805.77" cy="371.10" r="3.2" fill="#1d4ed8"/>
<circle cx="809.40" cy="369.89" r="3.2" fill="#1d4ed8"/>
<circle cx="813.03" cy="369.89" r="3.2" fill="#1d4ed8"/>
<circle cx="816.67" cy="369.89" r="3.2" fill="#1d4ed8"/>
<circle cx="820.30" cy="369.49" r="3.2" fill="#1d4ed8"/>
<circle cx="823.93" cy="369.89" r="3.2" fill="#1d4ed8"/>
<circle cx="827.57" cy="369.08" r="3.2" fill="#1d4ed8"/>
<circle cx="831.20" cy="368.68" r="3.2" fill="#1d4ed8"/>
<circle cx="834.83" cy="368.27" r="3.2" fill="#1d4ed8"/>
<circle cx="838.47" cy="367.87" r="3.2" fill="#1d4ed8"/>
<circle cx="842.10" cy="367.06" r="3.2" fill="#1d4ed8"/>
<circle cx="845.73" cy="367.46" r="3.2" fill="#1d4ed8"/>
<circle cx="849.37" cy="367.06" r="3.2" fill="#1d4ed8"/>
<circle cx="853.00" cy="366.25" r="3.2" fill="#1d4ed8"/>
<circle cx="856.63" cy="368.27" r="3.2" fill="#1d4ed8"/>
<circle cx="860.27" cy="368.68" r="3.2" fill="#1d4ed8"/>
<circle cx="863.90" cy="368.68" r="3.2" fill="#1d4ed8"/>
<circle cx="867.53" cy="368.27" r="3.2" fill="#1d4ed8"/>
<circle cx="871.17" cy="369.08" r="3.2" fill="#1d4ed8"/>
<circle cx="874.80" cy="367.87" r="3.2" fill="#1d4ed8"/>
<circle cx="878.43" cy="367.46" r="3.2" fill="#1d4ed8"/>
<circle cx="882.07" cy="367.06" r="3.2" fill="#1d4ed8"/>
<circle cx="885.70" cy="360.18" r="3.2" fill="#1d4ed8"/>
<circle cx="889.33" cy="359.78" r="3.2" fill="#1d4ed8"/>
<circle cx="892.97" cy="359.38" r="3.2" fill="#1d4ed8"/>
<circle cx="896.60" cy="356.95" r="3.2" fill="#1d4ed8"/>
<circle cx="900.23" cy="357.35" r="3.2" fill="#1d4ed8"/>
<circle cx="903.87" cy="357.76" r="3.2" fill="#1d4ed8"/>
<circle cx="907.50" cy="355.33" r="3.2" fill="#1d4ed8"/>
<circle cx="911.13" cy="355.74" r="3.2" fill="#1d4ed8"/>
<circle cx="914.77" cy="357.35" r="3.2" fill="#1d4ed8"/>
<circle cx="918.40" cy="355.33" r="3.2" fill="#1d4ed8"/>
<circle cx="922.03" cy="356.14" r="3.2" fill="#1d4ed8"/>
<circle cx="925.67" cy="355.74" r="3.2" fill="#1d4ed8"/>
<circle cx="929.30" cy="356.14" r="3.2" fill="#1d4ed8"/>
<circle cx="932.93" cy="354.12" r="3.2" fill="#1d4ed8"/>
<circle cx="936.57" cy="354.93" r="3.2" fill="#1d4ed8"/>
<circle cx="940.20" cy="356.14" r="3.2" fill="#1d4ed8"/>
<circle cx="943.83" cy="354.52" r="3.2" fill="#1d4ed8"/>
<circle cx="947.47" cy="353.71" r="3.2" fill="#1d4ed8"/>
<circle cx="951.10" cy="354.12" r="3.2" fill="#1d4ed8"/>
<circle cx="954.73" cy="354.93" r="3.2" fill="#1d4ed8"/>
<circle cx="958.37" cy="352.90" r="3.2" fill="#1d4ed8"/>
<circle cx="962.00" cy="353.71" r="3.2" fill="#1d4ed8"/>
<circle cx="965.63" cy="353.31" r="3.2" fill="#1d4ed8"/>
<circle cx="969.27" cy="353.31" r="3.2" fill="#1d4ed8"/>
<circle cx="972.90" cy="354.52" r="3.2" fill="#1d4ed8"/>
<circle cx="976.53" cy="352.90" r="3.2" fill="#1d4ed8"/>
<circle cx="980.17" cy="352.50" r="3.2" fill="#1d4ed8"/>
<circle cx="983.80" cy="352.50" r="3.2" fill="#1d4ed8"/>
<circle cx="987.43" cy="353.31" r="3.2" fill="#1d4ed8"/>
<circle cx="991.07" cy="352.50" r="3.2" fill="#1d4ed8"/>
<circle cx="994.70" cy="353.71" r="3.2" fill="#1d4ed8"/>
<circle cx="998.33" cy="354.12" r="3.2" fill="#1d4ed8"/>
<circle cx="1001.97" cy="352.50" r="3.2" fill="#1d4ed8"/>
<circle cx="1005.60" cy="352.90" r="3.2" fill="#1d4ed8"/>
<circle cx="1009.23" cy="352.50" r="3.2" fill="#1d4ed8"/>
<circle cx="1012.87" cy="352.10" r="3.2" fill="#1d4ed8"/>
<circle cx="1016.50" cy="351.69" r="3.2" fill="#1d4ed8"/>
<circle cx="1020.13" cy="352.10" r="3.2" fill="#1d4ed8"/>
<circle cx="1023.77" cy="354.12" r="3.2" fill="#1d4ed8"/>
<circle cx="1027.40" cy="352.50" r="3.2" fill="#1d4ed8"/>
<circle cx="1031.03" cy="352.10" r="3.2" fill="#1d4ed8"/>
<circle cx="1034.67" cy="352.10" r="3.2" fill="#1d4ed8"/>
<circle cx="1038.30" cy="349.67" r="3.2" fill="#1d4ed8"/>
<circle cx="1041.93" cy="349.67" r="3.2" fill="#1d4ed8"/>
<circle cx="1045.57" cy="350.88" r="3.2" fill="#1d4ed8"/>
<circle cx="1049.20" cy="351.29" r="3.2" fill="#1d4ed8"/>
<circle cx="1052.83" cy="350.48" r="3.2" fill="#1d4ed8"/>
<circle cx="1056.47" cy="352.10" r="3.2" fill="#1d4ed8"/>
<circle cx="1060.10" cy="350.48" r="3.2" fill="#1d4ed8"/>
<circle cx="1063.73" cy="350.48" r="3.2" fill="#1d4ed8"/>
<circle cx="1067.37" cy="350.48" r="3.2" fill="#1d4ed8"/>
<circle cx="1071.00" cy="350.07" r="3.2" fill="#1d4ed8"/>
<circle cx="1074.63" cy="348.46" r="3.2" fill="#1d4ed8"/>
<circle cx="1078.27" cy="351.29" r="3.2" fill="#1d4ed8"/>
<circle cx="1081.90" cy="349.67" r="3.2" fill="#1d4ed8"/>
<circle cx="1085.53" cy="351.29" r="3.2" fill="#1d4ed8"/>
<circle cx="1089.17" cy="349.67" r="3.2" fill="#1d4ed8"/>
<circle cx="1092.80" cy="348.86" r="3.2" fill="#1d4ed8"/>
<circle cx="1096.43" cy="348.46" r="3.2" fill="#1d4ed8"/>
<circle cx="1100.07" cy="348.46" r="3.2" fill="#1d4ed8"/>
<circle cx="1103.70" cy="347.24" r="3.2" fill="#1d4ed8"/>
<circle cx="1107.33" cy="348.86" r="3.2" fill="#1d4ed8"/>
<circle cx="1110.97" cy="346.84" r="3.2" fill="#1d4ed8"/>
<circle cx="1114.60" cy="348.46" r="3.2" fill="#1d4ed8"/>
<circle cx="1118.23" cy="348.86" r="3.2" fill="#1d4ed8"/>
<circle cx="1121.87" cy="346.84" r="3.2" fill="#1d4ed8"/>
<circle cx="1125.50" cy="349.26" r="3.2" fill="#1d4ed8"/>
<circle cx="1129.13" cy="348.05" r="3.2" fill="#1d4ed8"/>
<circle cx="1132.77" cy="349.26" r="3.2" fill="#1d4ed8"/>
<circle cx="1136.40" cy="349.26" r="3.2" fill="#1d4ed8"/>
<circle cx="1140.03" cy="350.48" r="3.2" fill="#1d4ed8"/>
<circle cx="1143.67" cy="352.90" r="3.2" fill="#1d4ed8"/>
<circle cx="1147.30" cy="349.67" r="3.2" fill="#1d4ed8"/>
<circle cx="1150.93" cy="348.46" r="3.2" fill="#1d4ed8"/>
<circle cx="1154.57" cy="345.62" r="3.2" fill="#1d4ed8"/>
<circle cx="1158.20" cy="344.82" r="3.2" fill="#1d4ed8"/>
<circle cx="1161.83" cy="344.41" r="3.2" fill="#1d4ed8"/>
<circle cx="1165.47" cy="342.39" r="3.2" fill="#1d4ed8"/>
<circle cx="1169.10" cy="341.18" r="3.2" fill="#1d4ed8"/>
<circle cx="1172.73" cy="341.58" r="3.2" fill="#1d4ed8"/>
<circle cx="1176.37" cy="339.15" r="3.2" fill="#1d4ed8"/>
<circle cx="1180.00" cy="338.35" r="3.2" fill="#1d4ed8"/>
<text x="635" y="695" text-anchor="middle" font-size="14" fill="#111" font-family="sans-serif">Date</text>
<text x="24" y="325" text-anchor="middle" font-size="14" fill="#111" transform="rotate(-90 24,325)" font-family="sans-serif">Passed files</text>
</svg>
