<?xml version="1.0" encoding="UTF-8"?>
<svg xmlns="http://www.w3.org/2000/svg" width="1280" height="720" viewBox="0 0 1280 720">
<rect width="100%" height="100%" fill="#ffffff"/>
<text x="640" y="30" text-anchor="middle" font-size="22" font-family="sans-serif">Roast passed files history</text>
<line x1="90" y1="600" x2="1180" y2="600" stroke="#333" stroke-width="1.5"/>
<line x1="90" y1="50" x2="90" y2="600" stroke="#333" stroke-width="1.5"/>
<line x1="90" y1="600.00" x2="1180" y2="600.00" stroke="#e5e7eb" stroke-width="1"/>
<text x="78" y="605.00" text-anchor="end" font-size="12" fill="#111" font-family="sans-serif">0</text>
<line x1="90" y1="398.09" x2="1180" y2="398.09" stroke="#e5e7eb" stroke-width="1"/>
<text x="78" y="403.09" text-anchor="end" font-size="12" fill="#111" font-family="sans-serif">500</text>
<line x1="90" y1="196.18" x2="1180" y2="196.18" stroke="#e5e7eb" stroke-width="1"/>
<text x="78" y="201.18" text-anchor="end" font-size="12" fill="#111" font-family="sans-serif">1000</text>
<line x1="90.00" y1="600" x2="90.00" y2="606" stroke="#333" stroke-width="1"/>
<text x="90.00" y="624" text-anchor="end" font-size="11" fill="#111" transform="rotate(-40 90.00,624)" font-family="sans-serif">2026-02-12</text>
<line x1="217.17" y1="600" x2="217.17" y2="606" stroke="#333" stroke-width="1"/>
<text x="217.17" y="624" text-anchor="end" font-size="11" fill="#111" transform="rotate(-40 217.17,624)" font-family="sans-serif">2026-02-14</text>
<line x1="344.33" y1="600" x2="344.33" y2="606" stroke="#333" stroke-width="1"/>
<text x="344.33" y="624" text-anchor="end" font-size="11" fill="#111" transform="rotate(-40 344.33,624)" font-family="sans-serif">2026-02-15</text>
<line x1="471.50" y1="600" x2="471.50" y2="606" stroke="#333" stroke-width="1"/>
<text x="471.50" y="624" text-anchor="end" font-size="11" fill="#111" transform="rotate(-40 471.50,624)" font-family="sans-serif">2026-02-15</text>
<line x1="598.67" y1="600" x2="598.67" y2="606" stroke="#333" stroke-width="1"/>
<text x="598.67" y="624" text-anchor="end" font-size="11" fill="#111" transform="rotate(-40 598.67,624)" font-family="sans-serif">2026-02-17</text>
<line x1="725.83" y1="600" x2="725.83" y2="606" stroke="#333" stroke-width="1"/>
<text x="725.83" y="624" text-anchor="end" font-size="11" fill="#111" transform="rotate(-40 725.83,624)" font-family="sans-serif">2026-02-17</text>
<line x1="853.00" y1="600" x2="853.00" y2="606" stroke="#333" stroke-width="1"/>
<text x="853.00" y="624" text-anchor="end" font-size="11" fill="#111" transform="rotate(-40 853.00,624)" font-family="sans-serif">2026-02-17</text>
<line x1="980.17" y1="600" x2="980.17" y2="606" stroke="#333" stroke-width="1"/>
<text x="980.17" y="624" text-anchor="end" font-size="11" fill="#111" transform="rotate(-40 980.17,624)" font-family="sans-serif">2026-02-17</text>
<line x1="1107.33" y1="600" x2="1107.33" y2="606" stroke="#333" stroke-width="1"/>
<text x="1107.33" y="624" text-anchor="end" font-size="11" fill="#111" transform="rotate(-40 1107.33,624)" font-family="sans-serif">2026-02-18</text>
<line x1="1180.00" y1="600" x2="1180.00" y2="606" stroke="#333" stroke-width="1"/>
<text x="1180.00" y="624" text-anchor="end" font-size="11" fill="#111" transform="rotate(-40 1180.00,624)" font-family="sans-serif">2026-02-18</text>
<line x1="90" y1="75.84" x2="1180" y2="75.84" stroke="#dc2626" stroke-width="1.5" stroke-dasharray="8,4"/>
<text x="1184" y="79.84" font-size="12" fill="#dc2626" font-family="sans-serif">Goal: 1298</text>
<polyline fill="none" stroke="#2563eb" stroke-width="3" points="90.00,540.64 108.17,538.62 126.33,537.00 144.50,534.58 162.67,534.58 180.83,533.37 199.00,532.56 217.17,532.97 235.33,532.16 253.50,532.56 271.67,532.16 289.83,568.50 308.00,568.50 326.17,566.48 344.33,545.08 362.50,545.08 380.67,544.27 398.83,543.87 417.00,543.87 435.17,543.47 453.33,541.85 471.50,541.45 489.67,541.04 507.83,541.04 526.00,539.43 544.17,539.43 562.33,556.79 580.50,556.79 598.67,555.58 616.83,551.14 635.00,539.02 653.17,539.02 671.33,539.02 689.50,538.22 707.67,537.00 725.83,537.00 744.00,536.60 762.17,536.60 780.33,556.79 798.50,556.79 816.67,556.79 834.83,556.79 853.00,535.39 871.17,535.39 889.33,535.39 907.50,535.39 925.67,534.58 943.83,534.18 962.00,533.77 980.17,532.97 998.33,532.16 1016.50,532.16 1034.67,531.35 1052.83,530.95 1071.00,530.54 1089.17,530.14 1107.33,530.14 1125.50,529.33 1143.67,529.33 1161.83,529.33 1180.00,528.52"/>
<circle cx="90.00" cy="540.64" r="3.2" fill="#1d4ed8"/>
<circle cx="108.17" cy="538.62" r="3.2" fill="#1d4ed8"/>
<circle cx="126.33" cy="537.00" r="3.2" fill="#1d4ed8"/>
<circle cx="144.50" cy="534.58" r="3.2" fill="#1d4ed8"/>
<circle cx="162.67" cy="534.58" r="3.2" fill="#1d4ed8"/>
<circle cx="180.83" cy="533.37" r="3.2" fill="#1d4ed8"/>
<circle cx="199.00" cy="532.56" r="3.2" fill="#1d4ed8"/>
<circle cx="217.17" cy="532.97" r="3.2" fill="#1d4ed8"/>
<circle cx="235.33" cy="532.16" r="3.2" fill="#1d4ed8"/>
<circle cx="253.50" cy="532.56" r="3.2" fill="#1d4ed8"/>
<circle cx="271.67" cy="532.16" r="3.2" fill="#1d4ed8"/>
<circle cx="289.83" cy="568.50" r="3.2" fill="#1d4ed8"/>
<circle cx="308.00" cy="568.50" r="3.2" fill="#1d4ed8"/>
<circle cx="326.17" cy="566.48" r="3.2" fill="#1d4ed8"/>
<circle cx="344.33" cy="545.08" r="3.2" fill="#1d4ed8"/>
<circle cx="362.50" cy="545.08" r="3.2" fill="#1d4ed8"/>
<circle cx="380.67" cy="544.27" r="3.2" fill="#1d4ed8"/>
<circle cx="398.83" cy="543.87" r="3.2" fill="#1d4ed8"/>
<circle cx="417.00" cy="543.87" r="3.2" fill="#1d4ed8"/>
<circle cx="435.17" cy="543.47" r="3.2" fill="#1d4ed8"/>
<circle cx="453.33" cy="541.85" r="3.2" fill="#1d4ed8"/>
<circle cx="471.50" cy="541.45" r="3.2" fill="#1d4ed8"/>
<circle cx="489.67" cy="541.04" r="3.2" fill="#1d4ed8"/>
<circle cx="507.83" cy="541.04" r="3.2" fill="#1d4ed8"/>
<circle cx="526.00" cy="539.43" r="3.2" fill="#1d4ed8"/>
<circle cx="544.17" cy="539.43" r="3.2" fill="#1d4ed8"/>
<circle cx="562.33" cy="556.79" r="3.2" fill="#1d4ed8"/>
<circle cx="580.50" cy="556.79" r="3.2" fill="#1d4ed8"/>
<circle cx="598.67" cy="555.58" r="3.2" fill="#1d4ed8"/>
<circle cx="616.83" cy="551.14" r="3.2" fill="#1d4ed8"/>
<circle cx="635.00" cy="539.02" r="3.2" fill="#1d4ed8"/>
<circle cx="653.17" cy="539.02" r="3.2" fill="#1d4ed8"/>
<circle cx="671.33" cy="539.02" r="3.2" fill="#1d4ed8"/>
<circle cx="689.50" cy="538.22" r="3.2" fill="#1d4ed8"/>
<circle cx="707.67" cy="537.00" r="3.2" fill="#1d4ed8"/>
<circle cx="725.83" cy="537.00" r="3.2" fill="#1d4ed8"/>
<circle cx="744.00" cy="536.60" r="3.2" fill="#1d4ed8"/>
<circle cx="762.17" cy="536.60" r="3.2" fill="#1d4ed8"/>
<circle cx="780.33" cy="556.79" r="3.2" fill="#1d4ed8"/>
<circle cx="798.50" cy="556.79" r="3.2" fill="#1d4ed8"/>
<circle cx="816.67" cy="556.79" r="3.2" fill="#1d4ed8"/>
<circle cx="834.83" cy="556.79" r="3.2" fill="#1d4ed8"/>
<circle cx="853.00" cy="535.39" r="3.2" fill="#1d4ed8"/>
<circle cx="871.17" cy="535.39" r="3.2" fill="#1d4ed8"/>
<circle cx="889.33" cy="535.39" r="3.2" fill="#1d4ed8"/>
<circle cx="907.50" cy="535.39" r="3.2" fill="#1d4ed8"/>
<circle cx="925.67" cy="534.58" r="3.2" fill="#1d4ed8"/>
<circle cx="943.83" cy="534.18" r="3.2" fill="#1d4ed8"/>
<circle cx="962.00" cy="533.77" r="3.2" fill="#1d4ed8"/>
<circle cx="980.17" cy="532.97" r="3.2" fill="#1d4ed8"/>
<circle cx="998.33" cy="532.16" r="3.2" fill="#1d4ed8"/>
<circle cx="1016.50" cy="532.16" r="3.2" fill="#1d4ed8"/>
<circle cx="1034.67" cy="531.35" r="3.2" fill="#1d4ed8"/>
<circle cx="1052.83" cy="530.95" r="3.2" fill="#1d4ed8"/>
<circle cx="1071.00" cy="530.54" r="3.2" fill="#1d4ed8"/>
<circle cx="1089.17" cy="530.14" r="3.2" fill="#1d4ed8"/>
<circle cx="1107.33" cy="530.14" r="3.2" fill="#1d4ed8"/>
<circle cx="1125.50" cy="529.33" r="3.2" fill="#1d4ed8"/>
<circle cx="1143.67" cy="529.33" r="3.2" fill="#1d4ed8"/>
<circle cx="1161.83" cy="529.33" r="3.2" fill="#1d4ed8"/>
<circle cx="1180.00" cy="528.52" r="3.2" fill="#1d4ed8"/>
<text x="635" y="695" text-anchor="middle" font-size="14" fill="#111" font-family="sans-serif">Date</text>
<text x="24" y="325" text-anchor="middle" font-size="14" fill="#111" transform="rotate(-90 24,325)" font-family="sans-serif">Passed files</text>
</svg>
