<?xml version="1.0" encoding="UTF-8"?>
<svg xmlns="http://www.w3.org/2000/svg" width="1280" height="720" viewBox="0 0 1280 720">
<rect width="100%" height="100%" fill="#ffffff"/>
<text x="640" y="30" text-anchor="middle" font-size="22" font-family="sans-serif">Roast passed files history</text>
<line x1="90" y1="600" x2="1180" y2="600" stroke="#333" stroke-width="1.5"/>
<line x1="90" y1="50" x2="90" y2="600" stroke="#333" stroke-width="1.5"/>
<line x1="90" y1="600.00" x2="1180" y2="600.00" stroke="#e5e7eb" stroke-width="1"/>
<text x="78" y="605.00" text-anchor="end" font-size="12" fill="#111" font-family="sans-serif">0</text>
<line x1="90" y1="397.79" x2="1180" y2="397.79" stroke="#e5e7eb" stroke-width="1"/>
<text x="78" y="402.79" text-anchor="end" font-size="12" fill="#111" font-family="sans-serif">500</text>
<line x1="90" y1="195.59" x2="1180" y2="195.59" stroke="#e5e7eb" stroke-width="1"/>
<text x="78" y="200.59" text-anchor="end" font-size="12" fill="#111" font-family="sans-serif">1000</text>
<line x1="90.00" y1="600" x2="90.00" y2="606" stroke="#333" stroke-width="1"/>
<text x="90.00" y="624" text-anchor="end" font-size="11" fill="#111" transform="rotate(-40 90.00,624)" font-family="sans-serif">2026-02-12</text>
<line x1="226.25" y1="600" x2="226.25" y2="606" stroke="#333" stroke-width="1"/>
<text x="226.25" y="624" text-anchor="end" font-size="11" fill="#111" transform="rotate(-40 226.25,624)" font-family="sans-serif">2026-02-17</text>
<line x1="362.50" y1="600" x2="362.50" y2="606" stroke="#333" stroke-width="1"/>
<text x="362.50" y="624" text-anchor="end" font-size="11" fill="#111" transform="rotate(-40 362.50,624)" font-family="sans-serif">2026-02-19</text>
<line x1="498.75" y1="600" x2="498.75" y2="606" stroke="#333" stroke-width="1"/>
<text x="498.75" y="624" text-anchor="end" font-size="11" fill="#111" transform="rotate(-40 498.75,624)" font-family="sans-serif">2026-02-22</text>
<line x1="635.00" y1="600" x2="635.00" y2="606" stroke="#333" stroke-width="1"/>
<text x="635.00" y="624" text-anchor="end" font-size="11" fill="#111" transform="rotate(-40 635.00,624)" font-family="sans-serif">2026-02-25</text>
<line x1="771.25" y1="600" x2="771.25" y2="606" stroke="#333" stroke-width="1"/>
<text x="771.25" y="624" text-anchor="end" font-size="11" fill="#111" transform="rotate(-40 771.25,624)" font-family="sans-serif">2026-02-27</text>
<line x1="907.50" y1="600" x2="907.50" y2="606" stroke="#333" stroke-width="1"/>
<text x="907.50" y="624" text-anchor="end" font-size="11" fill="#111" transform="rotate(-40 907.50,624)" font-family="sans-serif">2026-03-01</text>
<line x1="1043.75" y1="600" x2="1043.75" y2="606" stroke="#333" stroke-width="1"/>
<text x="1043.75" y="624" text-anchor="end" font-size="11" fill="#111" transform="rotate(-40 1043.75,624)" font-family="sans-serif">2026-03-06</text>
<line x1="1180.00" y1="600" x2="1180.00" y2="606" stroke="#333" stroke-width="1"/>
<text x="1180.00" y="624" text-anchor="end" font-size="11" fill="#111" transform="rotate(-40 1180.00,624)" font-family="sans-serif">2026-03-06</text>
<line x1="90" y1="75.88" x2="1180" y2="75.88" stroke="#dc2626" stroke-width="1.5" stroke-dasharray="8,4"/>
<text x="1184" y="79.88" font-size="12" fill="#dc2626" font-family="sans-serif">Goal: 1296</text>
<polyline fill="none" stroke="#2563eb" stroke-width="3" points="90.00,540.55 94.13,538.53 98.26,536.91 102.39,534.49 106.52,534.49 110.64,533.27 114.77,532.46 118.90,532.87 123.03,532.06 127.16,532.46 131.29,532.06 135.42,568.46 139.55,568.46 143.67,566.43 147.80,545.00 151.93,545.00 156.06,544.19 160.19,543.79 164.32,543.79 168.45,543.38 172.58,541.76 176.70,541.36 180.83,540.96 184.96,540.96 189.09,539.34 193.22,539.34 197.35,556.73 201.48,556.73 205.61,555.51 209.73,551.07 213.86,538.93 217.99,538.93 222.12,538.93 226.25,538.12 230.38,536.91 234.51,536.91 238.64,536.51 242.77,536.51 246.89,556.73 251.02,556.73 255.15,556.73 259.28,556.73 263.41,535.29 267.54,535.29 271.67,535.29 275.80,535.29 279.92,534.49 284.05,534.08 288.18,533.68 292.31,532.87 296.44,532.06 300.57,532.06 304.70,531.25 308.83,530.85 312.95,530.44 317.08,530.04 321.21,530.04 325.34,529.23 329.47,529.23 333.60,529.23 337.73,528.42 341.86,528.42 345.98,527.61 350.11,527.21 354.24,526.80 358.37,526.40 362.50,525.18 366.63,523.57 370.76,523.57 374.89,523.16 379.02,522.76 383.14,522.35 387.27,521.54 391.40,519.52 395.53,517.50 399.66,517.50 403.79,517.50 407.92,517.50 412.05,517.50 416.17,517.50 420.30,517.10 424.43,516.69 428.56,515.48 432.69,515.07 436.82,514.67 440.95,513.86 445.08,514.26 449.20,512.24 453.33,511.84 457.46,511.84 461.59,511.03 465.72,509.82 469.85,507.79 473.98,506.99 478.11,506.58 482.23,509.41 486.36,509.01 490.49,504.96 494.62,504.56 498.75,504.15 502.88,504.56 507.01,503.75 511.14,503.75 515.27,503.35 519.39,499.30 523.52,496.47 527.65,490.00 531.78,484.34 535.91,481.10 540.04,480.29 544.17,480.70 548.30,460.88 552.42,459.26 556.55,458.05 560.68,456.03 564.81,456.03 568.94,454.41 573.07,450.77 577.20,444.30 581.33,443.90 585.45,600.00 589.58,441.88 593.71,440.66 597.84,439.45 601.97,439.04 606.10,438.64 610.23,437.83 614.36,436.62 618.48,436.62 622.61,434.60 626.74,432.17 630.87,429.34 635.00,428.93 639.13,428.53 643.26,427.72 647.39,426.91 651.52,426.10 655.64,426.10 659.77,426.10 663.90,419.63 668.03,419.23 672.16,418.42 676.29,418.01 680.42,417.61 684.55,417.61 688.67,417.61 692.80,417.21 696.93,417.21 701.06,413.57 705.19,411.95 709.32,412.76 713.45,410.74 717.58,410.74 721.70,410.33 725.83,410.33 729.96,410.33 734.09,409.93 738.22,409.93 742.35,409.93 746.48,409.52 750.61,409.52 754.73,409.12 758.86,409.52 762.99,409.12 767.12,407.50 771.25,407.10 775.38,403.05 779.51,399.82 783.64,400.22 787.77,400.62 791.89,400.62 796.02,399.41 800.15,392.94 804.28,391.32 808.41,389.30 812.54,389.30 816.67,388.49 820.80,375.15 824.92,374.74 829.05,374.74 833.18,374.74 837.31,374.74 841.44,374.34 845.57,374.34 849.70,374.34 853.83,374.34 857.95,374.34 862.08,373.93 866.21,373.12 870.34,372.72 874.47,373.53 878.60,435.81 882.73,372.32 886.86,372.72 890.98,371.91 895.11,371.91 899.24,372.32 903.37,371.10 907.50,369.89 911.63,369.89 915.76,369.89 919.89,369.49 924.02,369.89 928.14,369.08 932.27,368.68 936.40,368.27 940.53,367.87 944.66,367.06 948.79,367.46 952.92,367.06 957.05,366.25 961.17,368.27 965.30,368.68 969.43,368.68 973.56,368.27 977.69,369.08 981.82,367.87 985.95,367.46 990.08,367.06 994.20,360.18 998.33,359.78 1002.46,359.38 1006.59,356.95 1010.72,357.35 1014.85,357.76 1018.98,355.33 1023.11,355.74 1027.23,357.35 1031.36,355.33 1035.49,356.14 1039.62,355.74 1043.75,356.14 1047.88,354.12 1052.01,354.93 1056.14,356.14 1060.27,354.52 1064.39,353.71 1068.52,354.12 1072.65,354.93 1076.78,352.90 1080.91,353.71 1085.04,353.31 1089.17,353.31 1093.30,354.52 1097.42,352.90 1101.55,352.50 1105.68,352.50 1109.81,353.31 1113.94,352.50 1118.07,353.71 1122.20,354.12 1126.33,352.50 1130.45,352.90 1134.58,352.50 1138.71,352.10 1142.84,351.69 1146.97,352.10 1151.10,354.12 1155.23,352.50 1159.36,352.10 1163.48,352.10 1167.61,349.67 1171.74,349.67 1175.87,350.88 1180.00,351.29"/>
<circle cx="90.00" cy="540.55" r="3.2" fill="#1d4ed8"/>
<circle cx="94.13" cy="538.53" r="3.2" fill="#1d4ed8"/>
<circle cx="98.26" cy="536.91" r="3.2" fill="#1d4ed8"/>
<circle cx="102.39" cy="534.49" r="3.2" fill="#1d4ed8"/>
<circle cx="106.52" cy="534.49" r="3.2" fill="#1d4ed8"/>
<circle cx="110.64" cy="533.27" r="3.2" fill="#1d4ed8"/>
<circle cx="114.77" cy="532.46" r="3.2" fill="#1d4ed8"/>
<circle cx="118.90" cy="532.87" r="3.2" fill="#1d4ed8"/>
<circle cx="123.03" cy="532.06" r="3.2" fill="#1d4ed8"/>
<circle cx="127.16" cy="532.46" r="3.2" fill="#1d4ed8"/>
<circle cx="131.29" cy="532.06" r="3.2" fill="#1d4ed8"/>
<circle cx="135.42" cy="568.46" r="3.2" fill="#1d4ed8"/>
<circle cx="139.55" cy="568.46" r="3.2" fill="#1d4ed8"/>
<circle cx="143.67" cy="566.43" r="3.2" fill="#1d4ed8"/>
<circle cx="147.80" cy="545.00" r="3.2" fill="#1d4ed8"/>
<circle cx="151.93" cy="545.00" r="3.2" fill="#1d4ed8"/>
<circle cx="156.06" cy="544.19" r="3.2" fill="#1d4ed8"/>
<circle cx="160.19" cy="543.79" r="3.2" fill="#1d4ed8"/>
<circle cx="164.32" cy="543.79" r="3.2" fill="#1d4ed8"/>
<circle cx="168.45" cy="543.38" r="3.2" fill="#1d4ed8"/>
<circle cx="172.58" cy="541.76" r="3.2" fill="#1d4ed8"/>
<circle cx="176.70" cy="541.36" r="3.2" fill="#1d4ed8"/>
<circle cx="180.83" cy="540.96" r="3.2" fill="#1d4ed8"/>
<circle cx="184.96" cy="540.96" r="3.2" fill="#1d4ed8"/>
<circle cx="189.09" cy="539.34" r="3.2" fill="#1d4ed8"/>
<circle cx="193.22" cy="539.34" r="3.2" fill="#1d4ed8"/>
<circle cx="197.35" cy="556.73" r="3.2" fill="#1d4ed8"/>
<circle cx="201.48" cy="556.73" r="3.2" fill="#1d4ed8"/>
<circle cx="205.61" cy="555.51" r="3.2" fill="#1d4ed8"/>
<circle cx="209.73" cy="551.07" r="3.2" fill="#1d4ed8"/>
<circle cx="213.86" cy="538.93" r="3.2" fill="#1d4ed8"/>
<circle cx="217.99" cy="538.93" r="3.2" fill="#1d4ed8"/>
<circle cx="222.12" cy="538.93" r="3.2" fill="#1d4ed8"/>
<circle cx="226.25" cy="538.12" r="3.2" fill="#1d4ed8"/>
<circle cx="230.38" cy="536.91" r="3.2" fill="#1d4ed8"/>
<circle cx="234.51" cy="536.91" r="3.2" fill="#1d4ed8"/>
<circle cx="238.64" cy="536.51" r="3.2" fill="#1d4ed8"/>
<circle cx="242.77" cy="536.51" r="3.2" fill="#1d4ed8"/>
<circle cx="246.89" cy="556.73" r="3.2" fill="#1d4ed8"/>
<circle cx="251.02" cy="556.73" r="3.2" fill="#1d4ed8"/>
<circle cx="255.15" cy="556.73" r="3.2" fill="#1d4ed8"/>
<circle cx="259.28" cy="556.73" r="3.2" fill="#1d4ed8"/>
<circle cx="263.41" cy="535.29" r="3.2" fill="#1d4ed8"/>
<circle cx="267.54" cy="535.29" r="3.2" fill="#1d4ed8"/>
<circle cx="271.67" cy="535.29" r="3.2" fill="#1d4ed8"/>
<circle cx="275.80" cy="535.29" r="3.2" fill="#1d4ed8"/>
<circle cx="279.92" cy="534.49" r="3.2" fill="#1d4ed8"/>
<circle cx="284.05" cy="534.08" r="3.2" fill="#1d4ed8"/>
<circle cx="288.18" cy="533.68" r="3.2" fill="#1d4ed8"/>
<circle cx="292.31" cy="532.87" r="3.2" fill="#1d4ed8"/>
<circle cx="296.44" cy="532.06" r="3.2" fill="#1d4ed8"/>
<circle cx="300.57" cy="532.06" r="3.2" fill="#1d4ed8"/>
<circle cx="304.70" cy="531.25" r="3.2" fill="#1d4ed8"/>
<circle cx="308.83" cy="530.85" r="3.2" fill="#1d4ed8"/>
<circle cx="312.95" cy="530.44" r="3.2" fill="#1d4ed8"/>
<circle cx="317.08" cy="530.04" r="3.2" fill="#1d4ed8"/>
<circle cx="321.21" cy="530.04" r="3.2" fill="#1d4ed8"/>
<circle cx="325.34" cy="529.23" r="3.2" fill="#1d4ed8"/>
<circle cx="329.47" cy="529.23" r="3.2" fill="#1d4ed8"/>
<circle cx="333.60" cy="529.23" r="3.2" fill="#1d4ed8"/>
<circle cx="337.73" cy="528.42" r="3.2" fill="#1d4ed8"/>
<circle cx="341.86" cy="528.42" r="3.2" fill="#1d4ed8"/>
<circle cx="345.98" cy="527.61" r="3.2" fill="#1d4ed8"/>
<circle cx="350.11" cy="527.21" r="3.2" fill="#1d4ed8"/>
<circle cx="354.24" cy="526.80" r="3.2" fill="#1d4ed8"/>
<circle cx="358.37" cy="526.40" r="3.2" fill="#1d4ed8"/>
<circle cx="362.50" cy="525.18" r="3.2" fill="#1d4ed8"/>
<circle cx="366.63" cy="523.57" r="3.2" fill="#1d4ed8"/>
<circle cx="370.76" cy="523.57" r="3.2" fill="#1d4ed8"/>
<circle cx="374.89" cy="523.16" r="3.2" fill="#1d4ed8"/>
<circle cx="379.02" cy="522.76" r="3.2" fill="#1d4ed8"/>
<circle cx="383.14" cy="522.35" r="3.2" fill="#1d4ed8"/>
<circle cx="387.27" cy="521.54" r="3.2" fill="#1d4ed8"/>
<circle cx="391.40" cy="519.52" r="3.2" fill="#1d4ed8"/>
<circle cx="395.53" cy="517.50" r="3.2" fill="#1d4ed8"/>
<circle cx="399.66" cy="517.50" r="3.2" fill="#1d4ed8"/>
<circle cx="403.79" cy="517.50" r="3.2" fill="#1d4ed8"/>
<circle cx="407.92" cy="517.50" r="3.2" fill="#1d4ed8"/>
<circle cx="412.05" cy="517.50" r="3.2" fill="#1d4ed8"/>
<circle cx="416.17" cy="517.50" r="3.2" fill="#1d4ed8"/>
<circle cx="420.30" cy="517.10" r="3.2" fill="#1d4ed8"/>
<circle cx="424.43" cy="516.69" r="3.2" fill="#1d4ed8"/>
<circle cx="428.56" cy="515.48" r="3.2" fill="#1d4ed8"/>
<circle cx="432.69" cy="515.07" r="3.2" fill="#1d4ed8"/>
<circle cx="436.82" cy="514.67" r="3.2" fill="#1d4ed8"/>
<circle cx="440.95" cy="513.86" r="3.2" fill="#1d4ed8"/>
<circle cx="445.08" cy="514.26" r="3.2" fill="#1d4ed8"/>
<circle cx="449.20" cy="512.24" r="3.2" fill="#1d4ed8"/>
<circle cx="453.33" cy="511.84" r="3.2" fill="#1d4ed8"/>
<circle cx="457.46" cy="511.84" r="3.2" fill="#1d4ed8"/>
<circle cx="461.59" cy="511.03" r="3.2" fill="#1d4ed8"/>
<circle cx="465.72" cy="509.82" r="3.2" fill="#1d4ed8"/>
<circle cx="469.85" cy="507.79" r="3.2" fill="#1d4ed8"/>
<circle cx="473.98" cy="506.99" r="3.2" fill="#1d4ed8"/>
<circle cx="478.11" cy="506.58" r="3.2" fill="#1d4ed8"/>
<circle cx="482.23" cy="509.41" r="3.2" fill="#1d4ed8"/>
<circle cx="486.36" cy="509.01" r="3.2" fill="#1d4ed8"/>
<circle cx="490.49" cy="504.96" r="3.2" fill="#1d4ed8"/>
<circle cx="494.62" cy="504.56" r="3.2" fill="#1d4ed8"/>
<circle cx="498.75" cy="504.15" r="3.2" fill="#1d4ed8"/>
<circle cx="502.88" cy="504.56" r="3.2" fill="#1d4ed8"/>
<circle cx="507.01" cy="503.75" r="3.2" fill="#1d4ed8"/>
<circle cx="511.14" cy="503.75" r="3.2" fill="#1d4ed8"/>
<circle cx="515.27" cy="503.35" r="3.2" fill="#1d4ed8"/>
<circle cx="519.39" cy="499.30" r="3.2" fill="#1d4ed8"/>
<circle cx="523.52" cy="496.47" r="3.2" fill="#1d4ed8"/>
<circle cx="527.65" cy="490.00" r="3.2" fill="#1d4ed8"/>
<circle cx="531.78" cy="484.34" r="3.2" fill="#1d4ed8"/>
<circle cx="535.91" cy="481.10" r="3.2" fill="#1d4ed8"/>
<circle cx="540.04" cy="480.29" r="3.2" fill="#1d4ed8"/>
<circle cx="544.17" cy="480.70" r="3.2" fill="#1d4ed8"/>
<circle cx="548.30" cy="460.88" r="3.2" fill="#1d4ed8"/>
<circle cx="552.42" cy="459.26" r="3.2" fill="#1d4ed8"/>
<circle cx="556.55" cy="458.05" r="3.2" fill="#1d4ed8"/>
<circle cx="560.68" cy="456.03" r="3.2" fill="#1d4ed8"/>
<circle cx="564.81" cy="456.03" r="3.2" fill="#1d4ed8"/>
<circle cx="568.94" cy="454.41" r="3.2" fill="#1d4ed8"/>
<circle cx="573.07" cy="450.77" r="3.2" fill="#1d4ed8"/>
<circle cx="577.20" cy="444.30" r="3.2" fill="#1d4ed8"/>
<circle cx="581.33" cy="443.90" r="3.2" fill="#1d4ed8"/>
<circle cx="585.45" cy="600.00" r="3.2" fill="#1d4ed8"/>
<circle cx="589.58" cy="441.88" r="3.2" fill="#1d4ed8"/>
<circle cx="593.71" cy="440.66" r="3.2" fill="#1d4ed8"/>
<circle cx="597.84" cy="439.45" r="3.2" fill="#1d4ed8"/>
<circle cx="601.97" cy="439.04" r="3.2" fill="#1d4ed8"/>
<circle cx="606.10" cy="438.64" r="3.2" fill="#1d4ed8"/>
<circle cx="610.23" cy="437.83" r="3.2" fill="#1d4ed8"/>
<circle cx="614.36" cy="436.62" r="3.2" fill="#1d4ed8"/>
<circle cx="618.48" cy="436.62" r="3.2" fill="#1d4ed8"/>
<circle cx="622.61" cy="434.60" r="3.2" fill="#1d4ed8"/>
<circle cx="626.74" cy="432.17" r="3.2" fill="#1d4ed8"/>
<circle cx="630.87" cy="429.34" r="3.2" fill="#1d4ed8"/>
<circle cx="635.00" cy="428.93" r="3.2" fill="#1d4ed8"/>
<circle cx="639.13" cy="428.53" r="3.2" fill="#1d4ed8"/>
<circle cx="643.26" cy="427.72" r="3.2" fill="#1d4ed8"/>
<circle cx="647.39" cy="426.91" r="3.2" fill="#1d4ed8"/>
<circle cx="651.52" cy="426.10" r="3.2" fill="#1d4ed8"/>
<circle cx="655.64" cy="426.10" r="3.2" fill="#1d4ed8"/>
<circle cx="659.77" cy="426.10" r="3.2" fill="#1d4ed8"/>
<circle cx="663.90" cy="419.63" r="3.2" fill="#1d4ed8"/>
<circle cx="668.03" cy="419.23" r="3.2" fill="#1d4ed8"/>
<circle cx="672.16" cy="418.42" r="3.2" fill="#1d4ed8"/>
<circle cx="676.29" cy="418.01" r="3.2" fill="#1d4ed8"/>
<circle cx="680.42" cy="417.61" r="3.2" fill="#1d4ed8"/>
<circle cx="684.55" cy="417.61" r="3.2" fill="#1d4ed8"/>
<circle cx="688.67" cy="417.61" r="3.2" fill="#1d4ed8"/>
<circle cx="692.80" cy="417.21" r="3.2" fill="#1d4ed8"/>
<circle cx="696.93" cy="417.21" r="3.2" fill="#1d4ed8"/>
<circle cx="701.06" cy="413.57" r="3.2" fill="#1d4ed8"/>
<circle cx="705.19" cy="411.95" r="3.2" fill="#1d4ed8"/>
<circle cx="709.32" cy="412.76" r="3.2" fill="#1d4ed8"/>
<circle cx="713.45" cy="410.74" r="3.2" fill="#1d4ed8"/>
<circle cx="717.58" cy="410.74" r="3.2" fill="#1d4ed8"/>
<circle cx="721.70" cy="410.33" r="3.2" fill="#1d4ed8"/>
<circle cx="725.83" cy="410.33" r="3.2" fill="#1d4ed8"/>
<circle cx="729.96" cy="410.33" r="3.2" fill="#1d4ed8"/>
<circle cx="734.09" cy="409.93" r="3.2" fill="#1d4ed8"/>
<circle cx="738.22" cy="409.93" r="3.2" fill="#1d4ed8"/>
<circle cx="742.35" cy="409.93" r="3.2" fill="#1d4ed8"/>
<circle cx="746.48" cy="409.52" r="3.2" fill="#1d4ed8"/>
<circle cx="750.61" cy="409.52" r="3.2" fill="#1d4ed8"/>
<circle cx="754.73" cy="409.12" r="3.2" fill="#1d4ed8"/>
<circle cx="758.86" cy="409.52" r="3.2" fill="#1d4ed8"/>
<circle cx="762.99" cy="409.12" r="3.2" fill="#1d4ed8"/>
<circle cx="767.12" cy="407.50" r="3.2" fill="#1d4ed8"/>
<circle cx="771.25" cy="407.10" r="3.2" fill="#1d4ed8"/>
<circle cx="775.38" cy="403.05" r="3.2" fill="#1d4ed8"/>
<circle cx="779.51" cy="399.82" r="3.2" fill="#1d4ed8"/>
<circle cx="783.64" cy="400.22" r="3.2" fill="#1d4ed8"/>
<circle cx="787.77" cy="400.62" r="3.2" fill="#1d4ed8"/>
<circle cx="791.89" cy="400.62" r="3.2" fill="#1d4ed8"/>
<circle cx="796.02" cy="399.41" r="3.2" fill="#1d4ed8"/>
<circle cx="800.15" cy="392.94" r="3.2" fill="#1d4ed8"/>
<circle cx="804.28" cy="391.32" r="3.2" fill="#1d4ed8"/>
<circle cx="808.41" cy="389.30" r="3.2" fill="#1d4ed8"/>
<circle cx="812.54" cy="389.30" r="3.2" fill="#1d4ed8"/>
<circle cx="816.67" cy="388.49" r="3.2" fill="#1d4ed8"/>
<circle cx="820.80" cy="375.15" r="3.2" fill="#1d4ed8"/>
<circle cx="824.92" cy="374.74" r="3.2" fill="#1d4ed8"/>
<circle cx="829.05" cy="374.74" r="3.2" fill="#1d4ed8"/>
<circle cx="833.18" cy="374.74" r="3.2" fill="#1d4ed8"/>
<circle cx="837.31" cy="374.74" r="3.2" fill="#1d4ed8"/>
<circle cx="841.44" cy="374.34" r="3.2" fill="#1d4ed8"/>
<circle cx="845.57" cy="374.34" r="3.2" fill="#1d4ed8"/>
<circle cx="849.70" cy="374.34" r="3.2" fill="#1d4ed8"/>
<circle cx="853.83" cy="374.34" r="3.2" fill="#1d4ed8"/>
<circle cx="857.95" cy="374.34" r="3.2" fill="#1d4ed8"/>
<circle cx="862.08" cy="373.93" r="3.2" fill="#1d4ed8"/>
<circle cx="866.21" cy="373.12" r="3.2" fill="#1d4ed8"/>
<circle cx="870.34" cy="372.72" r="3.2" fill="#1d4ed8"/>
<circle cx="874.47" cy="373.53" r="3.2" fill="#1d4ed8"/>
<circle cx="878.60" cy="435.81" r="3.2" fill="#1d4ed8"/>
<circle cx="882.73" cy="372.32" r="3.2" fill="#1d4ed8"/>
<circle cx="886.86" cy="372.72" r="3.2" fill="#1d4ed8"/>
<circle cx="890.98" cy="371.91" r="3.2" fill="#1d4ed8"/>
<circle cx="895.11" cy="371.91" r="3.2" fill="#1d4ed8"/>
<circle cx="899.24" cy="372.32" r="3.2" fill="#1d4ed8"/>
<circle cx="903.37" cy="371.10" r="3.2" fill="#1d4ed8"/>
<circle cx="907.50" cy="369.89" r="3.2" fill="#1d4ed8"/>
<circle cx="911.63" cy="369.89" r="3.2" fill="#1d4ed8"/>
<circle cx="915.76" cy="369.89" r="3.2" fill="#1d4ed8"/>
<circle cx="919.89" cy="369.49" r="3.2" fill="#1d4ed8"/>
<circle cx="924.02" cy="369.89" r="3.2" fill="#1d4ed8"/>
<circle cx="928.14" cy="369.08" r="3.2" fill="#1d4ed8"/>
<circle cx="932.27" cy="368.68" r="3.2" fill="#1d4ed8"/>
<circle cx="936.40" cy="368.27" r="3.2" fill="#1d4ed8"/>
<circle cx="940.53" cy="367.87" r="3.2" fill="#1d4ed8"/>
<circle cx="944.66" cy="367.06" r="3.2" fill="#1d4ed8"/>
<circle cx="948.79" cy="367.46" r="3.2" fill="#1d4ed8"/>
<circle cx="952.92" cy="367.06" r="3.2" fill="#1d4ed8"/>
<circle cx="957.05" cy="366.25" r="3.2" fill="#1d4ed8"/>
<circle cx="961.17" cy="368.27" r="3.2" fill="#1d4ed8"/>
<circle cx="965.30" cy="368.68" r="3.2" fill="#1d4ed8"/>
<circle cx="969.43" cy="368.68" r="3.2" fill="#1d4ed8"/>
<circle cx="973.56" cy="368.27" r="3.2" fill="#1d4ed8"/>
<circle cx="977.69" cy="369.08" r="3.2" fill="#1d4ed8"/>
<circle cx="981.82" cy="367.87" r="3.2" fill="#1d4ed8"/>
<circle cx="985.95" cy="367.46" r="3.2" fill="#1d4ed8"/>
<circle cx="990.08" cy="367.06" r="3.2" fill="#1d4ed8"/>
<circle cx="994.20" cy="360.18" r="3.2" fill="#1d4ed8"/>
<circle cx="998.33" cy="359.78" r="3.2" fill="#1d4ed8"/>
<circle cx="1002.46" cy="359.38" r="3.2" fill="#1d4ed8"/>
<circle cx="1006.59" cy="356.95" r="3.2" fill="#1d4ed8"/>
<circle cx="1010.72" cy="357.35" r="3.2" fill="#1d4ed8"/>
<circle cx="1014.85" cy="357.76" r="3.2" fill="#1d4ed8"/>
<circle cx="1018.98" cy="355.33" r="3.2" fill="#1d4ed8"/>
<circle cx="1023.11" cy="355.74" r="3.2" fill="#1d4ed8"/>
<circle cx="1027.23" cy="357.35" r="3.2" fill="#1d4ed8"/>
<circle cx="1031.36" cy="355.33" r="3.2" fill="#1d4ed8"/>
<circle cx="1035.49" cy="356.14" r="3.2" fill="#1d4ed8"/>
<circle cx="1039.62" cy="355.74" r="3.2" fill="#1d4ed8"/>
<circle cx="1043.75" cy="356.14" r="3.2" fill="#1d4ed8"/>
<circle cx="1047.88" cy="354.12" r="3.2" fill="#1d4ed8"/>
<circle cx="1052.01" cy="354.93" r="3.2" fill="#1d4ed8"/>
<circle cx="1056.14" cy="356.14" r="3.2" fill="#1d4ed8"/>
<circle cx="1060.27" cy="354.52" r="3.2" fill="#1d4ed8"/>
<circle cx="1064.39" cy="353.71" r="3.2" fill="#1d4ed8"/>
<circle cx="1068.52" cy="354.12" r="3.2" fill="#1d4ed8"/>
<circle cx="1072.65" cy="354.93" r="3.2" fill="#1d4ed8"/>
<circle cx="1076.78" cy="352.90" r="3.2" fill="#1d4ed8"/>
<circle cx="1080.91" cy="353.71" r="3.2" fill="#1d4ed8"/>
<circle cx="1085.04" cy="353.31" r="3.2" fill="#1d4ed8"/>
<circle cx="1089.17" cy="353.31" r="3.2" fill="#1d4ed8"/>
<circle cx="1093.30" cy="354.52" r="3.2" fill="#1d4ed8"/>
<circle cx="1097.42" cy="352.90" r="3.2" fill="#1d4ed8"/>
<circle cx="1101.55" cy="352.50" r="3.2" fill="#1d4ed8"/>
<circle cx="1105.68" cy="352.50" r="3.2" fill="#1d4ed8"/>
<circle cx="1109.81" cy="353.31" r="3.2" fill="#1d4ed8"/>
<circle cx="1113.94" cy="352.50" r="3.2" fill="#1d4ed8"/>
<circle cx="1118.07" cy="353.71" r="3.2" fill="#1d4ed8"/>
<circle cx="1122.20" cy="354.12" r="3.2" fill="#1d4ed8"/>
<circle cx="1126.33" cy="352.50" r="3.2" fill="#1d4ed8"/>
<circle cx="1130.45" cy="352.90" r="3.2" fill="#1d4ed8"/>
<circle cx="1134.58" cy="352.50" r="3.2" fill="#1d4ed8"/>
<circle cx="1138.71" cy="352.10" r="3.2" fill="#1d4ed8"/>
<circle cx="1142.84" cy="351.69" r="3.2" fill="#1d4ed8"/>
<circle cx="1146.97" cy="352.10" r="3.2" fill="#1d4ed8"/>
<circle cx="1151.10" cy="354.12" r="3.2" fill="#1d4ed8"/>
<circle cx="1155.23" cy="352.50" r="3.2" fill="#1d4ed8"/>
<circle cx="1159.36" cy="352.10" r="3.2" fill="#1d4ed8"/>
<circle cx="1163.48" cy="352.10" r="3.2" fill="#1d4ed8"/>
<circle cx="1167.61" cy="349.67" r="3.2" fill="#1d4ed8"/>
<circle cx="1171.74" cy="349.67" r="3.2" fill="#1d4ed8"/>
<circle cx="1175.87" cy="350.88" r="3.2" fill="#1d4ed8"/>
<circle cx="1180.00" cy="351.29" r="3.2" fill="#1d4ed8"/>
<text x="635" y="695" text-anchor="middle" font-size="14" fill="#111" font-family="sans-serif">Date</text>
<text x="24" y="325" text-anchor="middle" font-size="14" fill="#111" transform="rotate(-90 24,325)" font-family="sans-serif">Passed files</text>
</svg>
