<?xml version="1.0" encoding="UTF-8"?>
<svg xmlns="http://www.w3.org/2000/svg" width="1280" height="720" viewBox="0 0 1280 720">
<rect width="100%" height="100%" fill="#ffffff"/>
<text x="640" y="30" text-anchor="middle" font-size="22" font-family="sans-serif">Roast passed files history</text>
<line x1="90" y1="600" x2="1180" y2="600" stroke="#333" stroke-width="1.5"/>
<line x1="90" y1="50" x2="90" y2="600" stroke="#333" stroke-width="1.5"/>
<line x1="90" y1="600.00" x2="1180" y2="600.00" stroke="#e5e7eb" stroke-width="1"/>
<text x="78" y="605.00" text-anchor="end" font-size="12" fill="#111" font-family="sans-serif">0</text>
<line x1="90" y1="397.79" x2="1180" y2="397.79" stroke="#e5e7eb" stroke-width="1"/>
<text x="78" y="402.79" text-anchor="end" font-size="12" fill="#111" font-family="sans-serif">500</text>
<line x1="90" y1="195.59" x2="1180" y2="195.59" stroke="#e5e7eb" stroke-width="1"/>
<text x="78" y="200.59" text-anchor="end" font-size="12" fill="#111" font-family="sans-serif">1000</text>
<line x1="90.00" y1="600" x2="90.00" y2="606" stroke="#333" stroke-width="1"/>
<text x="90.00" y="624" text-anchor="end" font-size="11" fill="#111" transform="rotate(-40 90.00,624)" font-family="sans-serif">2026-02-12</text>
<line x1="225.15" y1="600" x2="225.15" y2="606" stroke="#333" stroke-width="1"/>
<text x="225.15" y="624" text-anchor="end" font-size="11" fill="#111" transform="rotate(-40 225.15,624)" font-family="sans-serif">2026-02-17</text>
<line x1="360.30" y1="600" x2="360.30" y2="606" stroke="#333" stroke-width="1"/>
<text x="360.30" y="624" text-anchor="end" font-size="11" fill="#111" transform="rotate(-40 360.30,624)" font-family="sans-serif">2026-02-22</text>
<line x1="495.44" y1="600" x2="495.44" y2="606" stroke="#333" stroke-width="1"/>
<text x="495.44" y="624" text-anchor="end" font-size="11" fill="#111" transform="rotate(-40 495.44,624)" font-family="sans-serif">2026-02-25</text>
<line x1="630.59" y1="600" x2="630.59" y2="606" stroke="#333" stroke-width="1"/>
<text x="630.59" y="624" text-anchor="end" font-size="11" fill="#111" transform="rotate(-40 630.59,624)" font-family="sans-serif">2026-02-28</text>
<line x1="765.74" y1="600" x2="765.74" y2="606" stroke="#333" stroke-width="1"/>
<text x="765.74" y="624" text-anchor="end" font-size="11" fill="#111" transform="rotate(-40 765.74,624)" font-family="sans-serif">2026-03-06</text>
<line x1="900.89" y1="600" x2="900.89" y2="606" stroke="#333" stroke-width="1"/>
<text x="900.89" y="624" text-anchor="end" font-size="11" fill="#111" transform="rotate(-40 900.89,624)" font-family="sans-serif">2026-03-07</text>
<line x1="1036.04" y1="600" x2="1036.04" y2="606" stroke="#333" stroke-width="1"/>
<text x="1036.04" y="624" text-anchor="end" font-size="11" fill="#111" transform="rotate(-40 1036.04,624)" font-family="sans-serif">2026-03-11</text>
<line x1="1171.19" y1="600" x2="1171.19" y2="606" stroke="#333" stroke-width="1"/>
<text x="1171.19" y="624" text-anchor="end" font-size="11" fill="#111" transform="rotate(-40 1171.19,624)" font-family="sans-serif">2026-03-18</text>
<line x1="1180.00" y1="600" x2="1180.00" y2="606" stroke="#333" stroke-width="1"/>
<text x="1180.00" y="624" text-anchor="end" font-size="11" fill="#111" transform="rotate(-40 1180.00,624)" font-family="sans-serif">2026-03-18</text>
<line x1="90" y1="75.88" x2="1180" y2="75.88" stroke="#dc2626" stroke-width="1.5" stroke-dasharray="8,4"/>
<text x="1184" y="79.88" font-size="12" fill="#dc2626" font-family="sans-serif">Goal: 1296</text>
<polyline fill="none" stroke="#2563eb" stroke-width="3" points="90.00,540.55 92.94,538.53 95.88,536.91 98.81,534.49 101.75,534.49 104.69,533.27 107.63,532.46 110.57,532.87 113.50,532.06 116.44,532.46 119.38,532.06 122.32,568.46 125.26,568.46 128.19,566.43 131.13,545.00 134.07,545.00 137.01,544.19 139.95,543.79 142.88,543.79 145.82,543.38 148.76,541.76 151.70,541.36 154.64,540.96 157.57,540.96 160.51,539.34 163.45,539.34 166.39,556.73 169.33,556.73 172.26,555.51 175.20,551.07 178.14,538.93 181.08,538.93 184.02,538.93 186.95,538.12 189.89,536.91 192.83,536.91 195.77,536.51 198.71,536.51 201.64,556.73 204.58,556.73 207.52,556.73 210.46,556.73 213.40,535.29 216.33,535.29 219.27,535.29 222.21,535.29 225.15,534.49 228.09,534.08 231.02,533.68 233.96,532.87 236.90,532.06 239.84,532.06 242.78,531.25 245.71,530.85 248.65,530.44 251.59,530.04 254.53,530.04 257.47,529.23 260.40,529.23 263.34,529.23 266.28,528.42 269.22,528.42 272.16,527.61 275.09,527.21 278.03,526.80 280.97,526.40 283.91,525.18 286.85,523.57 289.78,523.57 292.72,523.16 295.66,522.76 298.60,522.35 301.54,521.54 304.47,519.52 307.41,517.50 310.35,517.50 313.29,517.50 316.23,517.50 319.16,517.50 322.10,517.50 325.04,517.10 327.98,516.69 330.92,515.48 333.85,515.07 336.79,514.67 339.73,513.86 342.67,514.26 345.61,512.24 348.54,511.84 351.48,511.84 354.42,511.03 357.36,509.82 360.30,507.79 363.23,506.99 366.17,506.58 369.11,509.41 372.05,509.01 374.99,504.96 377.92,504.56 380.86,504.15 383.80,504.56 386.74,503.75 389.68,503.75 392.61,503.35 395.55,499.30 398.49,496.47 401.43,490.00 404.37,484.34 407.30,481.10 410.24,480.29 413.18,480.70 416.12,460.88 419.06,459.26 421.99,458.05 424.93,456.03 427.87,456.03 430.81,454.41 433.75,450.77 436.68,444.30 439.62,443.90 442.56,600.00 445.50,441.88 448.44,440.66 451.37,439.45 454.31,439.04 457.25,438.64 460.19,437.83 463.13,436.62 466.06,436.62 469.00,434.60 471.94,432.17 474.88,429.34 477.82,428.93 480.75,428.53 483.69,427.72 486.63,426.91 489.57,426.10 492.51,426.10 495.44,426.10 498.38,419.63 501.32,419.23 504.26,418.42 507.20,418.01 510.13,417.61 513.07,417.61 516.01,417.61 518.95,417.21 521.89,417.21 524.82,413.57 527.76,411.95 530.70,412.76 533.64,410.74 536.58,410.74 539.51,410.33 542.45,410.33 545.39,410.33 548.33,409.93 551.27,409.93 554.20,409.93 557.14,409.52 560.08,409.52 563.02,409.12 565.96,409.52 568.89,409.12 571.83,407.50 574.77,407.10 577.71,403.05 580.65,399.82 583.58,400.22 586.52,400.62 589.46,400.62 592.40,399.41 595.34,392.94 598.27,391.32 601.21,389.30 604.15,389.30 607.09,388.49 610.03,375.15 612.96,374.74 615.90,374.74 618.84,374.74 621.78,374.74 624.72,374.34 627.65,374.34 630.59,374.34 633.53,374.34 636.47,374.34 639.41,373.93 642.35,373.12 645.28,372.72 648.22,373.53 651.16,435.81 654.10,372.32 657.04,372.72 659.97,371.91 662.91,371.91 665.85,372.32 668.79,371.10 671.73,369.89 674.66,369.89 677.60,369.89 680.54,369.49 683.48,369.89 686.42,369.08 689.35,368.68 692.29,368.27 695.23,367.87 698.17,367.06 701.11,367.46 704.04,367.06 706.98,366.25 709.92,368.27 712.86,368.68 715.80,368.68 718.73,368.27 721.67,369.08 724.61,367.87 727.55,367.46 730.49,367.06 733.42,360.18 736.36,359.78 739.30,359.38 742.24,356.95 745.18,357.35 748.11,357.76 751.05,355.33 753.99,355.74 756.93,357.35 759.87,355.33 762.80,356.14 765.74,355.74 768.68,356.14 771.62,354.12 774.56,354.93 777.49,356.14 780.43,354.52 783.37,353.71 786.31,354.12 789.25,354.93 792.18,352.90 795.12,353.71 798.06,353.31 801.00,353.31 803.94,354.52 806.87,352.90 809.81,352.50 812.75,352.50 815.69,353.31 818.63,352.50 821.56,353.71 824.50,354.12 827.44,352.50 830.38,352.90 833.32,352.50 836.25,352.10 839.19,351.69 842.13,352.10 845.07,354.12 848.01,352.50 850.94,352.10 853.88,352.10 856.82,349.67 859.76,349.67 862.70,350.88 865.63,351.29 868.57,350.48 871.51,352.10 874.45,350.48 877.39,350.48 880.32,350.48 883.26,350.07 886.20,348.46 889.14,351.29 892.08,349.67 895.01,351.29 897.95,349.67 900.89,348.86 903.83,348.46 906.77,348.46 909.70,347.24 912.64,348.86 915.58,346.84 918.52,348.46 921.46,348.86 924.39,346.84 927.33,349.26 930.27,348.05 933.21,349.26 936.15,349.26 939.08,350.48 942.02,352.90 944.96,349.67 947.90,348.46 950.84,345.62 953.77,344.82 956.71,344.41 959.65,342.39 962.59,341.18 965.53,341.58 968.46,339.15 971.40,338.35 974.34,337.54 977.28,336.73 980.22,335.92 983.15,337.54 986.09,338.35 989.03,337.54 991.97,337.54 994.91,337.54 997.84,333.09 1000.78,333.90 1003.72,335.92 1006.66,336.73 1009.60,335.51 1012.53,332.28 1015.47,331.47 1018.41,331.07 1021.35,331.47 1024.29,331.07 1027.22,331.07 1030.16,331.07 1033.10,331.07 1036.04,331.07 1038.98,331.07 1041.91,331.07 1044.85,331.07 1047.79,331.07 1050.73,331.07 1053.67,331.47 1056.60,331.88 1059.54,331.07 1062.48,331.47 1065.42,331.07 1068.36,331.47 1071.29,331.07 1074.23,324.19 1077.17,324.19 1080.11,318.93 1083.05,316.51 1085.98,310.44 1088.92,308.01 1091.86,600.00 1094.80,301.54 1097.74,290.22 1100.67,287.79 1103.61,286.18 1106.55,285.77 1109.49,285.77 1112.43,285.77 1115.36,286.18 1118.30,285.77 1121.24,285.77 1124.18,285.77 1127.12,283.35 1130.05,282.94 1132.99,282.94 1135.93,283.35 1138.87,282.94 1141.81,282.94 1144.74,283.75 1147.68,282.13 1150.62,282.13 1153.56,282.54 1156.50,282.13 1159.43,282.54 1162.37,282.94 1165.31,281.73 1168.25,282.54 1171.19,281.73 1174.12,282.54 1177.06,282.13 1180.00,281.73"/>
<circle cx="90.00" cy="540.55" r="3.2" fill="#1d4ed8"/>
<circle cx="92.94" cy="538.53" r="3.2" fill="#1d4ed8"/>
<circle cx="95.88" cy="536.91" r="3.2" fill="#1d4ed8"/>
<circle cx="98.81" cy="534.49" r="3.2" fill="#1d4ed8"/>
<circle cx="101.75" cy="534.49" r="3.2" fill="#1d4ed8"/>
<circle cx="104.69" cy="533.27" r="3.2" fill="#1d4ed8"/>
<circle cx="107.63" cy="532.46" r="3.2" fill="#1d4ed8"/>
<circle cx="110.57" cy="532.87" r="3.2" fill="#1d4ed8"/>
<circle cx="113.50" cy="532.06" r="3.2" fill="#1d4ed8"/>
<circle cx="116.44" cy="532.46" r="3.2" fill="#1d4ed8"/>
<circle cx="119.38" cy="532.06" r="3.2" fill="#1d4ed8"/>
<circle cx="122.32" cy="568.46" r="3.2" fill="#1d4ed8"/>
<circle cx="125.26" cy="568.46" r="3.2" fill="#1d4ed8"/>
<circle cx="128.19" cy="566.43" r="3.2" fill="#1d4ed8"/>
<circle cx="131.13" cy="545.00" r="3.2" fill="#1d4ed8"/>
<circle cx="134.07" cy="545.00" r="3.2" fill="#1d4ed8"/>
<circle cx="137.01" cy="544.19" r="3.2" fill="#1d4ed8"/>
<circle cx="139.95" cy="543.79" r="3.2" fill="#1d4ed8"/>
<circle cx="142.88" cy="543.79" r="3.2" fill="#1d4ed8"/>
<circle cx="145.82" cy="543.38" r="3.2" fill="#1d4ed8"/>
<circle cx="148.76" cy="541.76" r="3.2" fill="#1d4ed8"/>
<circle cx="151.70" cy="541.36" r="3.2" fill="#1d4ed8"/>
<circle cx="154.64" cy="540.96" r="3.2" fill="#1d4ed8"/>
<circle cx="157.57" cy="540.96" r="3.2" fill="#1d4ed8"/>
<circle cx="160.51" cy="539.34" r="3.2" fill="#1d4ed8"/>
<circle cx="163.45" cy="539.34" r="3.2" fill="#1d4ed8"/>
<circle cx="166.39" cy="556.73" r="3.2" fill="#1d4ed8"/>
<circle cx="169.33" cy="556.73" r="3.2" fill="#1d4ed8"/>
<circle cx="172.26" cy="555.51" r="3.2" fill="#1d4ed8"/>
<circle cx="175.20" cy="551.07" r="3.2" fill="#1d4ed8"/>
<circle cx="178.14" cy="538.93" r="3.2" fill="#1d4ed8"/>
<circle cx="181.08" cy="538.93" r="3.2" fill="#1d4ed8"/>
<circle cx="184.02" cy="538.93" r="3.2" fill="#1d4ed8"/>
<circle cx="186.95" cy="538.12" r="3.2" fill="#1d4ed8"/>
<circle cx="189.89" cy="536.91" r="3.2" fill="#1d4ed8"/>
<circle cx="192.83" cy="536.91" r="3.2" fill="#1d4ed8"/>
<circle cx="195.77" cy="536.51" r="3.2" fill="#1d4ed8"/>
<circle cx="198.71" cy="536.51" r="3.2" fill="#1d4ed8"/>
<circle cx="201.64" cy="556.73" r="3.2" fill="#1d4ed8"/>
<circle cx="204.58" cy="556.73" r="3.2" fill="#1d4ed8"/>
<circle cx="207.52" cy="556.73" r="3.2" fill="#1d4ed8"/>
<circle cx="210.46" cy="556.73" r="3.2" fill="#1d4ed8"/>
<circle cx="213.40" cy="535.29" r="3.2" fill="#1d4ed8"/>
<circle cx="216.33" cy="535.29" r="3.2" fill="#1d4ed8"/>
<circle cx="219.27" cy="535.29" r="3.2" fill="#1d4ed8"/>
<circle cx="222.21" cy="535.29" r="3.2" fill="#1d4ed8"/>
<circle cx="225.15" cy="534.49" r="3.2" fill="#1d4ed8"/>
<circle cx="228.09" cy="534.08" r="3.2" fill="#1d4ed8"/>
<circle cx="231.02" cy="533.68" r="3.2" fill="#1d4ed8"/>
<circle cx="233.96" cy="532.87" r="3.2" fill="#1d4ed8"/>
<circle cx="236.90" cy="532.06" r="3.2" fill="#1d4ed8"/>
<circle cx="239.84" cy="532.06" r="3.2" fill="#1d4ed8"/>
<circle cx="242.78" cy="531.25" r="3.2" fill="#1d4ed8"/>
<circle cx="245.71" cy="530.85" r="3.2" fill="#1d4ed8"/>
<circle cx="248.65" cy="530.44" r="3.2" fill="#1d4ed8"/>
<circle cx="251.59" cy="530.04" r="3.2" fill="#1d4ed8"/>
<circle cx="254.53" cy="530.04" r="3.2" fill="#1d4ed8"/>
<circle cx="257.47" cy="529.23" r="3.2" fill="#1d4ed8"/>
<circle cx="260.40" cy="529.23" r="3.2" fill="#1d4ed8"/>
<circle cx="263.34" cy="529.23" r="3.2" fill="#1d4ed8"/>
<circle cx="266.28" cy="528.42" r="3.2" fill="#1d4ed8"/>
<circle cx="269.22" cy="528.42" r="3.2" fill="#1d4ed8"/>
<circle cx="272.16" cy="527.61" r="3.2" fill="#1d4ed8"/>
<circle cx="275.09" cy="527.21" r="3.2" fill="#1d4ed8"/>
<circle cx="278.03" cy="526.80" r="3.2" fill="#1d4ed8"/>
<circle cx="280.97" cy="526.40" r="3.2" fill="#1d4ed8"/>
<circle cx="283.91" cy="525.18" r="3.2" fill="#1d4ed8"/>
<circle cx="286.85" cy="523.57" r="3.2" fill="#1d4ed8"/>
<circle cx="289.78" cy="523.57" r="3.2" fill="#1d4ed8"/>
<circle cx="292.72" cy="523.16" r="3.2" fill="#1d4ed8"/>
<circle cx="295.66" cy="522.76" r="3.2" fill="#1d4ed8"/>
<circle cx="298.60" cy="522.35" r="3.2" fill="#1d4ed8"/>
<circle cx="301.54" cy="521.54" r="3.2" fill="#1d4ed8"/>
<circle cx="304.47" cy="519.52" r="3.2" fill="#1d4ed8"/>
<circle cx="307.41" cy="517.50" r="3.2" fill="#1d4ed8"/>
<circle cx="310.35" cy="517.50" r="3.2" fill="#1d4ed8"/>
<circle cx="313.29" cy="517.50" r="3.2" fill="#1d4ed8"/>
<circle cx="316.23" cy="517.50" r="3.2" fill="#1d4ed8"/>
<circle cx="319.16" cy="517.50" r="3.2" fill="#1d4ed8"/>
<circle cx="322.10" cy="517.50" r="3.2" fill="#1d4ed8"/>
<circle cx="325.04" cy="517.10" r="3.2" fill="#1d4ed8"/>
<circle cx="327.98" cy="516.69" r="3.2" fill="#1d4ed8"/>
<circle cx="330.92" cy="515.48" r="3.2" fill="#1d4ed8"/>
<circle cx="333.85" cy="515.07" r="3.2" fill="#1d4ed8"/>
<circle cx="336.79" cy="514.67" r="3.2" fill="#1d4ed8"/>
<circle cx="339.73" cy="513.86" r="3.2" fill="#1d4ed8"/>
<circle cx="342.67" cy="514.26" r="3.2" fill="#1d4ed8"/>
<circle cx="345.61" cy="512.24" r="3.2" fill="#1d4ed8"/>
<circle cx="348.54" cy="511.84" r="3.2" fill="#1d4ed8"/>
<circle cx="351.48" cy="511.84" r="3.2" fill="#1d4ed8"/>
<circle cx="354.42" cy="511.03" r="3.2" fill="#1d4ed8"/>
<circle cx="357.36" cy="509.82" r="3.2" fill="#1d4ed8"/>
<circle cx="360.30" cy="507.79" r="3.2" fill="#1d4ed8"/>
<circle cx="363.23" cy="506.99" r="3.2" fill="#1d4ed8"/>
<circle cx="366.17" cy="506.58" r="3.2" fill="#1d4ed8"/>
<circle cx="369.11" cy="509.41" r="3.2" fill="#1d4ed8"/>
<circle cx="372.05" cy="509.01" r="3.2" fill="#1d4ed8"/>
<circle cx="374.99" cy="504.96" r="3.2" fill="#1d4ed8"/>
<circle cx="377.92" cy="504.56" r="3.2" fill="#1d4ed8"/>
<circle cx="380.86" cy="504.15" r="3.2" fill="#1d4ed8"/>
<circle cx="383.80" cy="504.56" r="3.2" fill="#1d4ed8"/>
<circle cx="386.74" cy="503.75" r="3.2" fill="#1d4ed8"/>
<circle cx="389.68" cy="503.75" r="3.2" fill="#1d4ed8"/>
<circle cx="392.61" cy="503.35" r="3.2" fill="#1d4ed8"/>
<circle cx="395.55" cy="499.30" r="3.2" fill="#1d4ed8"/>
<circle cx="398.49" cy="496.47" r="3.2" fill="#1d4ed8"/>
<circle cx="401.43" cy="490.00" r="3.2" fill="#1d4ed8"/>
<circle cx="404.37" cy="484.34" r="3.2" fill="#1d4ed8"/>
<circle cx="407.30" cy="481.10" r="3.2" fill="#1d4ed8"/>
<circle cx="410.24" cy="480.29" r="3.2" fill="#1d4ed8"/>
<circle cx="413.18" cy="480.70" r="3.2" fill="#1d4ed8"/>
<circle cx="416.12" cy="460.88" r="3.2" fill="#1d4ed8"/>
<circle cx="419.06" cy="459.26" r="3.2" fill="#1d4ed8"/>
<circle cx="421.99" cy="458.05" r="3.2" fill="#1d4ed8"/>
<circle cx="424.93" cy="456.03" r="3.2" fill="#1d4ed8"/>
<circle cx="427.87" cy="456.03" r="3.2" fill="#1d4ed8"/>
<circle cx="430.81" cy="454.41" r="3.2" fill="#1d4ed8"/>
<circle cx="433.75" cy="450.77" r="3.2" fill="#1d4ed8"/>
<circle cx="436.68" cy="444.30" r="3.2" fill="#1d4ed8"/>
<circle cx="439.62" cy="443.90" r="3.2" fill="#1d4ed8"/>
<circle cx="442.56" cy="600.00" r="3.2" fill="#1d4ed8"/>
<circle cx="445.50" cy="441.88" r="3.2" fill="#1d4ed8"/>
<circle cx="448.44" cy="440.66" r="3.2" fill="#1d4ed8"/>
<circle cx="451.37" cy="439.45" r="3.2" fill="#1d4ed8"/>
<circle cx="454.31" cy="439.04" r="3.2" fill="#1d4ed8"/>
<circle cx="457.25" cy="438.64" r="3.2" fill="#1d4ed8"/>
<circle cx="460.19" cy="437.83" r="3.2" fill="#1d4ed8"/>
<circle cx="463.13" cy="436.62" r="3.2" fill="#1d4ed8"/>
<circle cx="466.06" cy="436.62" r="3.2" fill="#1d4ed8"/>
<circle cx="469.00" cy="434.60" r="3.2" fill="#1d4ed8"/>
<circle cx="471.94" cy="432.17" r="3.2" fill="#1d4ed8"/>
<circle cx="474.88" cy="429.34" r="3.2" fill="#1d4ed8"/>
<circle cx="477.82" cy="428.93" r="3.2" fill="#1d4ed8"/>
<circle cx="480.75" cy="428.53" r="3.2" fill="#1d4ed8"/>
<circle cx="483.69" cy="427.72" r="3.2" fill="#1d4ed8"/>
<circle cx="486.63" cy="426.91" r="3.2" fill="#1d4ed8"/>
<circle cx="489.57" cy="426.10" r="3.2" fill="#1d4ed8"/>
<circle cx="492.51" cy="426.10" r="3.2" fill="#1d4ed8"/>
<circle cx="495.44" cy="426.10" r="3.2" fill="#1d4ed8"/>
<circle cx="498.38" cy="419.63" r="3.2" fill="#1d4ed8"/>
<circle cx="501.32" cy="419.23" r="3.2" fill="#1d4ed8"/>
<circle cx="504.26" cy="418.42" r="3.2" fill="#1d4ed8"/>
<circle cx="507.20" cy="418.01" r="3.2" fill="#1d4ed8"/>
<circle cx="510.13" cy="417.61" r="3.2" fill="#1d4ed8"/>
<circle cx="513.07" cy="417.61" r="3.2" fill="#1d4ed8"/>
<circle cx="516.01" cy="417.61" r="3.2" fill="#1d4ed8"/>
<circle cx="518.95" cy="417.21" r="3.2" fill="#1d4ed8"/>
<circle cx="521.89" cy="417.21" r="3.2" fill="#1d4ed8"/>
<circle cx="524.82" cy="413.57" r="3.2" fill="#1d4ed8"/>
<circle cx="527.76" cy="411.95" r="3.2" fill="#1d4ed8"/>
<circle cx="530.70" cy="412.76" r="3.2" fill="#1d4ed8"/>
<circle cx="533.64" cy="410.74" r="3.2" fill="#1d4ed8"/>
<circle cx="536.58" cy="410.74" r="3.2" fill="#1d4ed8"/>
<circle cx="539.51" cy="410.33" r="3.2" fill="#1d4ed8"/>
<circle cx="542.45" cy="410.33" r="3.2" fill="#1d4ed8"/>
<circle cx="545.39" cy="410.33" r="3.2" fill="#1d4ed8"/>
<circle cx="548.33" cy="409.93" r="3.2" fill="#1d4ed8"/>
<circle cx="551.27" cy="409.93" r="3.2" fill="#1d4ed8"/>
<circle cx="554.20" cy="409.93" r="3.2" fill="#1d4ed8"/>
<circle cx="557.14" cy="409.52" r="3.2" fill="#1d4ed8"/>
<circle cx="560.08" cy="409.52" r="3.2" fill="#1d4ed8"/>
<circle cx="563.02" cy="409.12" r="3.2" fill="#1d4ed8"/>
<circle cx="565.96" cy="409.52" r="3.2" fill="#1d4ed8"/>
<circle cx="568.89" cy="409.12" r="3.2" fill="#1d4ed8"/>
<circle cx="571.83" cy="407.50" r="3.2" fill="#1d4ed8"/>
<circle cx="574.77" cy="407.10" r="3.2" fill="#1d4ed8"/>
<circle cx="577.71" cy="403.05" r="3.2" fill="#1d4ed8"/>
<circle cx="580.65" cy="399.82" r="3.2" fill="#1d4ed8"/>
<circle cx="583.58" cy="400.22" r="3.2" fill="#1d4ed8"/>
<circle cx="586.52" cy="400.62" r="3.2" fill="#1d4ed8"/>
<circle cx="589.46" cy="400.62" r="3.2" fill="#1d4ed8"/>
<circle cx="592.40" cy="399.41" r="3.2" fill="#1d4ed8"/>
<circle cx="595.34" cy="392.94" r="3.2" fill="#1d4ed8"/>
<circle cx="598.27" cy="391.32" r="3.2" fill="#1d4ed8"/>
<circle cx="601.21" cy="389.30" r="3.2" fill="#1d4ed8"/>
<circle cx="604.15" cy="389.30" r="3.2" fill="#1d4ed8"/>
<circle cx="607.09" cy="388.49" r="3.2" fill="#1d4ed8"/>
<circle cx="610.03" cy="375.15" r="3.2" fill="#1d4ed8"/>
<circle cx="612.96" cy="374.74" r="3.2" fill="#1d4ed8"/>
<circle cx="615.90" cy="374.74" r="3.2" fill="#1d4ed8"/>
<circle cx="618.84" cy="374.74" r="3.2" fill="#1d4ed8"/>
<circle cx="621.78" cy="374.74" r="3.2" fill="#1d4ed8"/>
<circle cx="624.72" cy="374.34" r="3.2" fill="#1d4ed8"/>
<circle cx="627.65" cy="374.34" r="3.2" fill="#1d4ed8"/>
<circle cx="630.59" cy="374.34" r="3.2" fill="#1d4ed8"/>
<circle cx="633.53" cy="374.34" r="3.2" fill="#1d4ed8"/>
<circle cx="636.47" cy="374.34" r="3.2" fill="#1d4ed8"/>
<circle cx="639.41" cy="373.93" r="3.2" fill="#1d4ed8"/>
<circle cx="642.35" cy="373.12" r="3.2" fill="#1d4ed8"/>
<circle cx="645.28" cy="372.72" r="3.2" fill="#1d4ed8"/>
<circle cx="648.22" cy="373.53" r="3.2" fill="#1d4ed8"/>
<circle cx="651.16" cy="435.81" r="3.2" fill="#1d4ed8"/>
<circle cx="654.10" cy="372.32" r="3.2" fill="#1d4ed8"/>
<circle cx="657.04" cy="372.72" r="3.2" fill="#1d4ed8"/>
<circle cx="659.97" cy="371.91" r="3.2" fill="#1d4ed8"/>
<circle cx="662.91" cy="371.91" r="3.2" fill="#1d4ed8"/>
<circle cx="665.85" cy="372.32" r="3.2" fill="#1d4ed8"/>
<circle cx="668.79" cy="371.10" r="3.2" fill="#1d4ed8"/>
<circle cx="671.73" cy="369.89" r="3.2" fill="#1d4ed8"/>
<circle cx="674.66" cy="369.89" r="3.2" fill="#1d4ed8"/>
<circle cx="677.60" cy="369.89" r="3.2" fill="#1d4ed8"/>
<circle cx="680.54" cy="369.49" r="3.2" fill="#1d4ed8"/>
<circle cx="683.48" cy="369.89" r="3.2" fill="#1d4ed8"/>
<circle cx="686.42" cy="369.08" r="3.2" fill="#1d4ed8"/>
<circle cx="689.35" cy="368.68" r="3.2" fill="#1d4ed8"/>
<circle cx="692.29" cy="368.27" r="3.2" fill="#1d4ed8"/>
<circle cx="695.23" cy="367.87" r="3.2" fill="#1d4ed8"/>
<circle cx="698.17" cy="367.06" r="3.2" fill="#1d4ed8"/>
<circle cx="701.11" cy="367.46" r="3.2" fill="#1d4ed8"/>
<circle cx="704.04" cy="367.06" r="3.2" fill="#1d4ed8"/>
<circle cx="706.98" cy="366.25" r="3.2" fill="#1d4ed8"/>
<circle cx="709.92" cy="368.27" r="3.2" fill="#1d4ed8"/>
<circle cx="712.86" cy="368.68" r="3.2" fill="#1d4ed8"/>
<circle cx="715.80" cy="368.68" r="3.2" fill="#1d4ed8"/>
<circle cx="718.73" cy="368.27" r="3.2" fill="#1d4ed8"/>
<circle cx="721.67" cy="369.08" r="3.2" fill="#1d4ed8"/>
<circle cx="724.61" cy="367.87" r="3.2" fill="#1d4ed8"/>
<circle cx="727.55" cy="367.46" r="3.2" fill="#1d4ed8"/>
<circle cx="730.49" cy="367.06" r="3.2" fill="#1d4ed8"/>
<circle cx="733.42" cy="360.18" r="3.2" fill="#1d4ed8"/>
<circle cx="736.36" cy="359.78" r="3.2" fill="#1d4ed8"/>
<circle cx="739.30" cy="359.38" r="3.2" fill="#1d4ed8"/>
<circle cx="742.24" cy="356.95" r="3.2" fill="#1d4ed8"/>
<circle cx="745.18" cy="357.35" r="3.2" fill="#1d4ed8"/>
<circle cx="748.11" cy="357.76" r="3.2" fill="#1d4ed8"/>
<circle cx="751.05" cy="355.33" r="3.2" fill="#1d4ed8"/>
<circle cx="753.99" cy="355.74" r="3.2" fill="#1d4ed8"/>
<circle cx="756.93" cy="357.35" r="3.2" fill="#1d4ed8"/>
<circle cx="759.87" cy="355.33" r="3.2" fill="#1d4ed8"/>
<circle cx="762.80" cy="356.14" r="3.2" fill="#1d4ed8"/>
<circle cx="765.74" cy="355.74" r="3.2" fill="#1d4ed8"/>
<circle cx="768.68" cy="356.14" r="3.2" fill="#1d4ed8"/>
<circle cx="771.62" cy="354.12" r="3.2" fill="#1d4ed8"/>
<circle cx="774.56" cy="354.93" r="3.2" fill="#1d4ed8"/>
<circle cx="777.49" cy="356.14" r="3.2" fill="#1d4ed8"/>
<circle cx="780.43" cy="354.52" r="3.2" fill="#1d4ed8"/>
<circle cx="783.37" cy="353.71" r="3.2" fill="#1d4ed8"/>
<circle cx="786.31" cy="354.12" r="3.2" fill="#1d4ed8"/>
<circle cx="789.25" cy="354.93" r="3.2" fill="#1d4ed8"/>
<circle cx="792.18" cy="352.90" r="3.2" fill="#1d4ed8"/>
<circle cx="795.12" cy="353.71" r="3.2" fill="#1d4ed8"/>
<circle cx="798.06" cy="353.31" r="3.2" fill="#1d4ed8"/>
<circle cx="801.00" cy="353.31" r="3.2" fill="#1d4ed8"/>
<circle cx="803.94" cy="354.52" r="3.2" fill="#1d4ed8"/>
<circle cx="806.87" cy="352.90" r="3.2" fill="#1d4ed8"/>
<circle cx="809.81" cy="352.50" r="3.2" fill="#1d4ed8"/>
<circle cx="812.75" cy="352.50" r="3.2" fill="#1d4ed8"/>
<circle cx="815.69" cy="353.31" r="3.2" fill="#1d4ed8"/>
<circle cx="818.63" cy="352.50" r="3.2" fill="#1d4ed8"/>
<circle cx="821.56" cy="353.71" r="3.2" fill="#1d4ed8"/>
<circle cx="824.50" cy="354.12" r="3.2" fill="#1d4ed8"/>
<circle cx="827.44" cy="352.50" r="3.2" fill="#1d4ed8"/>
<circle cx="830.38" cy="352.90" r="3.2" fill="#1d4ed8"/>
<circle cx="833.32" cy="352.50" r="3.2" fill="#1d4ed8"/>
<circle cx="836.25" cy="352.10" r="3.2" fill="#1d4ed8"/>
<circle cx="839.19" cy="351.69" r="3.2" fill="#1d4ed8"/>
<circle cx="842.13" cy="352.10" r="3.2" fill="#1d4ed8"/>
<circle cx="845.07" cy="354.12" r="3.2" fill="#1d4ed8"/>
<circle cx="848.01" cy="352.50" r="3.2" fill="#1d4ed8"/>
<circle cx="850.94" cy="352.10" r="3.2" fill="#1d4ed8"/>
<circle cx="853.88" cy="352.10" r="3.2" fill="#1d4ed8"/>
<circle cx="856.82" cy="349.67" r="3.2" fill="#1d4ed8"/>
<circle cx="859.76" cy="349.67" r="3.2" fill="#1d4ed8"/>
<circle cx="862.70" cy="350.88" r="3.2" fill="#1d4ed8"/>
<circle cx="865.63" cy="351.29" r="3.2" fill="#1d4ed8"/>
<circle cx="868.57" cy="350.48" r="3.2" fill="#1d4ed8"/>
<circle cx="871.51" cy="352.10" r="3.2" fill="#1d4ed8"/>
<circle cx="874.45" cy="350.48" r="3.2" fill="#1d4ed8"/>
<circle cx="877.39" cy="350.48" r="3.2" fill="#1d4ed8"/>
<circle cx="880.32" cy="350.48" r="3.2" fill="#1d4ed8"/>
<circle cx="883.26" cy="350.07" r="3.2" fill="#1d4ed8"/>
<circle cx="886.20" cy="348.46" r="3.2" fill="#1d4ed8"/>
<circle cx="889.14" cy="351.29" r="3.2" fill="#1d4ed8"/>
<circle cx="892.08" cy="349.67" r="3.2" fill="#1d4ed8"/>
<circle cx="895.01" cy="351.29" r="3.2" fill="#1d4ed8"/>
<circle cx="897.95" cy="349.67" r="3.2" fill="#1d4ed8"/>
<circle cx="900.89" cy="348.86" r="3.2" fill="#1d4ed8"/>
<circle cx="903.83" cy="348.46" r="3.2" fill="#1d4ed8"/>
<circle cx="906.77" cy="348.46" r="3.2" fill="#1d4ed8"/>
<circle cx="909.70" cy="347.24" r="3.2" fill="#1d4ed8"/>
<circle cx="912.64" cy="348.86" r="3.2" fill="#1d4ed8"/>
<circle cx="915.58" cy="346.84" r="3.2" fill="#1d4ed8"/>
<circle cx="918.52" cy="348.46" r="3.2" fill="#1d4ed8"/>
<circle cx="921.46" cy="348.86" r="3.2" fill="#1d4ed8"/>
<circle cx="924.39" cy="346.84" r="3.2" fill="#1d4ed8"/>
<circle cx="927.33" cy="349.26" r="3.2" fill="#1d4ed8"/>
<circle cx="930.27" cy="348.05" r="3.2" fill="#1d4ed8"/>
<circle cx="933.21" cy="349.26" r="3.2" fill="#1d4ed8"/>
<circle cx="936.15" cy="349.26" r="3.2" fill="#1d4ed8"/>
<circle cx="939.08" cy="350.48" r="3.2" fill="#1d4ed8"/>
<circle cx="942.02" cy="352.90" r="3.2" fill="#1d4ed8"/>
<circle cx="944.96" cy="349.67" r="3.2" fill="#1d4ed8"/>
<circle cx="947.90" cy="348.46" r="3.2" fill="#1d4ed8"/>
<circle cx="950.84" cy="345.62" r="3.2" fill="#1d4ed8"/>
<circle cx="953.77" cy="344.82" r="3.2" fill="#1d4ed8"/>
<circle cx="956.71" cy="344.41" r="3.2" fill="#1d4ed8"/>
<circle cx="959.65" cy="342.39" r="3.2" fill="#1d4ed8"/>
<circle cx="962.59" cy="341.18" r="3.2" fill="#1d4ed8"/>
<circle cx="965.53" cy="341.58" r="3.2" fill="#1d4ed8"/>
<circle cx="968.46" cy="339.15" r="3.2" fill="#1d4ed8"/>
<circle cx="971.40" cy="338.35" r="3.2" fill="#1d4ed8"/>
<circle cx="974.34" cy="337.54" r="3.2" fill="#1d4ed8"/>
<circle cx="977.28" cy="336.73" r="3.2" fill="#1d4ed8"/>
<circle cx="980.22" cy="335.92" r="3.2" fill="#1d4ed8"/>
<circle cx="983.15" cy="337.54" r="3.2" fill="#1d4ed8"/>
<circle cx="986.09" cy="338.35" r="3.2" fill="#1d4ed8"/>
<circle cx="989.03" cy="337.54" r="3.2" fill="#1d4ed8"/>
<circle cx="991.97" cy="337.54" r="3.2" fill="#1d4ed8"/>
<circle cx="994.91" cy="337.54" r="3.2" fill="#1d4ed8"/>
<circle cx="997.84" cy="333.09" r="3.2" fill="#1d4ed8"/>
<circle cx="1000.78" cy="333.90" r="3.2" fill="#1d4ed8"/>
<circle cx="1003.72" cy="335.92" r="3.2" fill="#1d4ed8"/>
<circle cx="1006.66" cy="336.73" r="3.2" fill="#1d4ed8"/>
<circle cx="1009.60" cy="335.51" r="3.2" fill="#1d4ed8"/>
<circle cx="1012.53" cy="332.28" r="3.2" fill="#1d4ed8"/>
<circle cx="1015.47" cy="331.47" r="3.2" fill="#1d4ed8"/>
<circle cx="1018.41" cy="331.07" r="3.2" fill="#1d4ed8"/>
<circle cx="1021.35" cy="331.47" r="3.2" fill="#1d4ed8"/>
<circle cx="1024.29" cy="331.07" r="3.2" fill="#1d4ed8"/>
<circle cx="1027.22" cy="331.07" r="3.2" fill="#1d4ed8"/>
<circle cx="1030.16" cy="331.07" r="3.2" fill="#1d4ed8"/>
<circle cx="1033.10" cy="331.07" r="3.2" fill="#1d4ed8"/>
<circle cx="1036.04" cy="331.07" r="3.2" fill="#1d4ed8"/>
<circle cx="1038.98" cy="331.07" r="3.2" fill="#1d4ed8"/>
<circle cx="1041.91" cy="331.07" r="3.2" fill="#1d4ed8"/>
<circle cx="1044.85" cy="331.07" r="3.2" fill="#1d4ed8"/>
<circle cx="1047.79" cy="331.07" r="3.2" fill="#1d4ed8"/>
<circle cx="1050.73" cy="331.07" r="3.2" fill="#1d4ed8"/>
<circle cx="1053.67" cy="331.47" r="3.2" fill="#1d4ed8"/>
<circle cx="1056.60" cy="331.88" r="3.2" fill="#1d4ed8"/>
<circle cx="1059.54" cy="331.07" r="3.2" fill="#1d4ed8"/>
<circle cx="1062.48" cy="331.47" r="3.2" fill="#1d4ed8"/>
<circle cx="1065.42" cy="331.07" r="3.2" fill="#1d4ed8"/>
<circle cx="1068.36" cy="331.47" r="3.2" fill="#1d4ed8"/>
<circle cx="1071.29" cy="331.07" r="3.2" fill="#1d4ed8"/>
<circle cx="1074.23" cy="324.19" r="3.2" fill="#1d4ed8"/>
<circle cx="1077.17" cy="324.19" r="3.2" fill="#1d4ed8"/>
<circle cx="1080.11" cy="318.93" r="3.2" fill="#1d4ed8"/>
<circle cx="1083.05" cy="316.51" r="3.2" fill="#1d4ed8"/>
<circle cx="1085.98" cy="310.44" r="3.2" fill="#1d4ed8"/>
<circle cx="1088.92" cy="308.01" r="3.2" fill="#1d4ed8"/>
<circle cx="1091.86" cy="600.00" r="3.2" fill="#1d4ed8"/>
<circle cx="1094.80" cy="301.54" r="3.2" fill="#1d4ed8"/>
<circle cx="1097.74" cy="290.22" r="3.2" fill="#1d4ed8"/>
<circle cx="1100.67" cy="287.79" r="3.2" fill="#1d4ed8"/>
<circle cx="1103.61" cy="286.18" r="3.2" fill="#1d4ed8"/>
<circle cx="1106.55" cy="285.77" r="3.2" fill="#1d4ed8"/>
<circle cx="1109.49" cy="285.77" r="3.2" fill="#1d4ed8"/>
<circle cx="1112.43" cy="285.77" r="3.2" fill="#1d4ed8"/>
<circle cx="1115.36" cy="286.18" r="3.2" fill="#1d4ed8"/>
<circle cx="1118.30" cy="285.77" r="3.2" fill="#1d4ed8"/>
<circle cx="1121.24" cy="285.77" r="3.2" fill="#1d4ed8"/>
<circle cx="1124.18" cy="285.77" r="3.2" fill="#1d4ed8"/>
<circle cx="1127.12" cy="283.35" r="3.2" fill="#1d4ed8"/>
<circle cx="1130.05" cy="282.94" r="3.2" fill="#1d4ed8"/>
<circle cx="1132.99" cy="282.94" r="3.2" fill="#1d4ed8"/>
<circle cx="1135.93" cy="283.35" r="3.2" fill="#1d4ed8"/>
<circle cx="1138.87" cy="282.94" r="3.2" fill="#1d4ed8"/>
<circle cx="1141.81" cy="282.94" r="3.2" fill="#1d4ed8"/>
<circle cx="1144.74" cy="283.75" r="3.2" fill="#1d4ed8"/>
<circle cx="1147.68" cy="282.13" r="3.2" fill="#1d4ed8"/>
<circle cx="1150.62" cy="282.13" r="3.2" fill="#1d4ed8"/>
<circle cx="1153.56" cy="282.54" r="3.2" fill="#1d4ed8"/>
<circle cx="1156.50" cy="282.13" r="3.2" fill="#1d4ed8"/>
<circle cx="1159.43" cy="282.54" r="3.2" fill="#1d4ed8"/>
<circle cx="1162.37" cy="282.94" r="3.2" fill="#1d4ed8"/>
<circle cx="1165.31" cy="281.73" r="3.2" fill="#1d4ed8"/>
<circle cx="1168.25" cy="282.54" r="3.2" fill="#1d4ed8"/>
<circle cx="1171.19" cy="281.73" r="3.2" fill="#1d4ed8"/>
<circle cx="1174.12" cy="282.54" r="3.2" fill="#1d4ed8"/>
<circle cx="1177.06" cy="282.13" r="3.2" fill="#1d4ed8"/>
<circle cx="1180.00" cy="281.73" r="3.2" fill="#1d4ed8"/>
<text x="635" y="695" text-anchor="middle" font-size="14" fill="#111" font-family="sans-serif">Date</text>
<text x="24" y="325" text-anchor="middle" font-size="14" fill="#111" transform="rotate(-90 24,325)" font-family="sans-serif">Passed files</text>
</svg>
