<?xml version="1.0" encoding="UTF-8"?>
<svg xmlns="http://www.w3.org/2000/svg" width="1280" height="720" viewBox="0 0 1280 720">
<rect width="100%" height="100%" fill="#ffffff"/>
<text x="640" y="30" text-anchor="middle" font-size="22" font-family="sans-serif">Roast passed files history</text>
<line x1="90" y1="600" x2="1180" y2="600" stroke="#333" stroke-width="1.5"/>
<line x1="90" y1="50" x2="90" y2="600" stroke="#333" stroke-width="1.5"/>
<line x1="90" y1="600.00" x2="1180" y2="600.00" stroke="#e5e7eb" stroke-width="1"/>
<text x="78" y="605.00" text-anchor="end" font-size="12" fill="#111" font-family="sans-serif">0</text>
<line x1="90" y1="397.79" x2="1180" y2="397.79" stroke="#e5e7eb" stroke-width="1"/>
<text x="78" y="402.79" text-anchor="end" font-size="12" fill="#111" font-family="sans-serif">500</text>
<line x1="90" y1="195.59" x2="1180" y2="195.59" stroke="#e5e7eb" stroke-width="1"/>
<text x="78" y="200.59" text-anchor="end" font-size="12" fill="#111" font-family="sans-serif">1000</text>
<line x1="90.00" y1="600" x2="90.00" y2="606" stroke="#333" stroke-width="1"/>
<text x="90.00" y="624" text-anchor="end" font-size="11" fill="#111" transform="rotate(-40 90.00,624)" font-family="sans-serif">2026-02-12</text>
<line x1="225.19" y1="600" x2="225.19" y2="606" stroke="#333" stroke-width="1"/>
<text x="225.19" y="624" text-anchor="end" font-size="11" fill="#111" transform="rotate(-40 225.19,624)" font-family="sans-serif">2026-02-19</text>
<line x1="360.39" y1="600" x2="360.39" y2="606" stroke="#333" stroke-width="1"/>
<text x="360.39" y="624" text-anchor="end" font-size="11" fill="#111" transform="rotate(-40 360.39,624)" font-family="sans-serif">2026-02-25</text>
<line x1="495.58" y1="600" x2="495.58" y2="606" stroke="#333" stroke-width="1"/>
<text x="495.58" y="624" text-anchor="end" font-size="11" fill="#111" transform="rotate(-40 495.58,624)" font-family="sans-serif">2026-02-28</text>
<line x1="630.78" y1="600" x2="630.78" y2="606" stroke="#333" stroke-width="1"/>
<text x="630.78" y="624" text-anchor="end" font-size="11" fill="#111" transform="rotate(-40 630.78,624)" font-family="sans-serif">2026-03-06</text>
<line x1="765.97" y1="600" x2="765.97" y2="606" stroke="#333" stroke-width="1"/>
<text x="765.97" y="624" text-anchor="end" font-size="11" fill="#111" transform="rotate(-40 765.97,624)" font-family="sans-serif">2026-03-11</text>
<line x1="901.16" y1="600" x2="901.16" y2="606" stroke="#333" stroke-width="1"/>
<text x="901.16" y="624" text-anchor="end" font-size="11" fill="#111" transform="rotate(-40 901.16,624)" font-family="sans-serif">2026-03-19</text>
<line x1="1036.36" y1="600" x2="1036.36" y2="606" stroke="#333" stroke-width="1"/>
<text x="1036.36" y="624" text-anchor="end" font-size="11" fill="#111" transform="rotate(-40 1036.36,624)" font-family="sans-serif">2026-03-29</text>
<line x1="1171.55" y1="600" x2="1171.55" y2="606" stroke="#333" stroke-width="1"/>
<text x="1171.55" y="624" text-anchor="end" font-size="11" fill="#111" transform="rotate(-40 1171.55,624)" font-family="sans-serif">2026-05-17</text>
<line x1="1180.00" y1="600" x2="1180.00" y2="606" stroke="#333" stroke-width="1"/>
<text x="1180.00" y="624" text-anchor="end" font-size="11" fill="#111" transform="rotate(-40 1180.00,624)" font-family="sans-serif">2026-05-31</text>
<line x1="90" y1="75.88" x2="1180" y2="75.88" stroke="#dc2626" stroke-width="1.5" stroke-dasharray="8,4"/>
<text x="1184" y="79.88" font-size="12" fill="#dc2626" font-family="sans-serif">Goal: 1296</text>
<polyline fill="none" stroke="#2563eb" stroke-width="3" points="90.00,540.55 92.11,538.53 94.22,536.91 96.34,534.49 98.45,534.49 100.56,533.27 102.67,532.46 104.79,532.87 106.90,532.06 109.01,532.46 111.12,532.06 113.24,568.46 115.35,568.46 117.46,566.43 119.57,545.00 121.69,545.00 123.80,544.19 125.91,543.79 128.02,543.79 130.14,543.38 132.25,541.76 134.36,541.36 136.47,540.96 138.59,540.96 140.70,539.34 142.81,539.34 144.92,556.73 147.03,556.73 149.15,555.51 151.26,551.07 153.37,538.93 155.48,538.93 157.60,538.93 159.71,538.12 161.82,536.91 163.93,536.91 166.05,536.51 168.16,536.51 170.27,556.73 172.38,556.73 174.50,556.73 176.61,556.73 178.72,535.29 180.83,535.29 182.95,535.29 185.06,535.29 187.17,534.49 189.28,534.08 191.40,533.68 193.51,532.87 195.62,532.06 197.73,532.06 199.84,531.25 201.96,530.85 204.07,530.44 206.18,530.04 208.29,530.04 210.41,529.23 212.52,529.23 214.63,529.23 216.74,528.42 218.86,528.42 220.97,527.61 223.08,527.21 225.19,526.80 227.31,526.40 229.42,525.18 231.53,523.57 233.64,523.57 235.76,523.16 237.87,522.76 239.98,522.35 242.09,521.54 244.21,519.52 246.32,517.50 248.43,517.50 250.54,517.50 252.66,517.50 254.77,517.50 256.88,517.50 258.99,517.10 261.10,516.69 263.22,515.48 265.33,515.07 267.44,514.67 269.55,513.86 271.67,514.26 273.78,512.24 275.89,511.84 278.00,511.84 280.12,511.03 282.23,509.82 284.34,507.79 286.45,506.99 288.57,506.58 290.68,509.41 292.79,509.01 294.90,504.96 297.02,504.56 299.13,504.15 301.24,504.56 303.35,503.75 305.47,503.75 307.58,503.35 309.69,499.30 311.80,496.47 313.91,490.00 316.03,484.34 318.14,481.10 320.25,480.29 322.36,480.70 324.48,460.88 326.59,459.26 328.70,458.05 330.81,456.03 332.93,456.03 335.04,454.41 337.15,450.77 339.26,444.30 341.38,443.90 343.49,600.00 345.60,441.88 347.71,440.66 349.83,439.45 351.94,439.04 354.05,438.64 356.16,437.83 358.28,436.62 360.39,436.62 362.50,434.60 364.61,432.17 366.72,429.34 368.84,428.93 370.95,428.53 373.06,427.72 375.17,426.91 377.29,426.10 379.40,426.10 381.51,426.10 383.62,419.63 385.74,419.23 387.85,418.42 389.96,418.01 392.07,417.61 394.19,417.61 396.30,417.61 398.41,417.21 400.52,417.21 402.64,413.57 404.75,411.95 406.86,412.76 408.97,410.74 411.09,410.74 413.20,410.33 415.31,410.33 417.42,410.33 419.53,409.93 421.65,409.93 423.76,409.93 425.87,409.52 427.98,409.52 430.10,409.12 432.21,409.52 434.32,409.12 436.43,407.50 438.55,407.10 440.66,403.05 442.77,399.82 444.88,400.22 447.00,400.62 449.11,400.62 451.22,399.41 453.33,392.94 455.45,391.32 457.56,389.30 459.67,389.30 461.78,388.49 463.90,375.15 466.01,374.74 468.12,374.74 470.23,374.74 472.34,374.74 474.46,374.34 476.57,374.34 478.68,374.34 480.79,374.34 482.91,374.34 485.02,373.93 487.13,373.12 489.24,372.72 491.36,373.53 493.47,435.81 495.58,372.32 497.69,372.72 499.81,371.91 501.92,371.91 504.03,372.32 506.14,371.10 508.26,369.89 510.37,369.89 512.48,369.89 514.59,369.49 516.71,369.89 518.82,369.08 520.93,368.68 523.04,368.27 525.16,367.87 527.27,367.06 529.38,367.46 531.49,367.06 533.60,366.25 535.72,368.27 537.83,368.68 539.94,368.68 542.05,368.27 544.17,369.08 546.28,367.87 548.39,367.46 550.50,367.06 552.62,360.18 554.73,359.78 556.84,359.38 558.95,356.95 561.07,357.35 563.18,357.76 565.29,355.33 567.40,355.74 569.52,357.35 571.63,355.33 573.74,356.14 575.85,355.74 577.97,356.14 580.08,354.12 582.19,354.93 584.30,356.14 586.41,354.52 588.53,353.71 590.64,354.12 592.75,354.93 594.86,352.90 596.98,353.71 599.09,353.31 601.20,353.31 603.31,354.52 605.43,352.90 607.54,352.50 609.65,352.50 611.76,353.31 613.88,352.50 615.99,353.71 618.10,354.12 620.21,352.50 622.33,352.90 624.44,352.50 626.55,352.10 628.66,351.69 630.78,352.10 632.89,354.12 635.00,352.50 637.11,352.10 639.22,352.10 641.34,349.67 643.45,349.67 645.56,350.88 647.67,351.29 649.79,350.48 651.90,352.10 654.01,350.48 656.12,350.48 658.24,350.48 660.35,350.07 662.46,348.46 664.57,351.29 666.69,349.67 668.80,351.29 670.91,349.67 673.02,348.86 675.14,348.46 677.25,348.46 679.36,347.24 681.47,348.86 683.59,346.84 685.70,348.46 687.81,348.86 689.92,346.84 692.03,349.26 694.15,348.05 696.26,349.26 698.37,349.26 700.48,350.48 702.60,352.90 704.71,349.67 706.82,348.46 708.93,345.62 711.05,344.82 713.16,344.41 715.27,342.39 717.38,341.18 719.50,341.58 721.61,339.15 723.72,338.35 725.83,337.54 727.95,336.73 730.06,335.92 732.17,337.54 734.28,338.35 736.40,337.54 738.51,337.54 740.62,337.54 742.73,333.09 744.84,333.90 746.96,335.92 749.07,336.73 751.18,335.51 753.29,332.28 755.41,331.47 757.52,331.07 759.63,331.47 761.74,331.07 763.86,331.07 765.97,331.07 768.08,331.07 770.19,331.07 772.31,331.07 774.42,331.07 776.53,331.07 778.64,331.07 780.76,331.07 782.87,331.47 784.98,331.88 787.09,331.07 789.21,331.47 791.32,331.07 793.43,331.47 795.54,331.07 797.66,324.19 799.77,324.19 801.88,318.93 803.99,316.51 806.10,310.44 808.22,308.01 810.33,600.00 812.44,301.54 814.55,290.22 816.67,287.79 818.78,286.18 820.89,285.77 823.00,285.77 825.12,285.77 827.23,286.18 829.34,285.77 831.45,285.77 833.57,285.77 835.68,283.35 837.79,282.94 839.90,282.94 842.02,283.35 844.13,282.94 846.24,282.94 848.35,283.75 850.47,282.13 852.58,282.13 854.69,282.54 856.80,282.13 858.91,282.54 861.03,282.94 863.14,281.73 865.25,282.54 867.36,281.73 869.48,282.54 871.59,282.13 873.70,282.13 875.81,281.73 877.93,281.73 880.04,281.32 882.15,281.73 884.26,282.13 886.38,281.32 888.49,281.32 890.60,282.54 892.71,282.13 894.83,281.32 896.94,281.32 899.05,281.32 901.16,282.54 903.28,282.13 905.39,281.32 907.50,282.13 909.61,281.73 911.72,282.13 913.84,280.11 915.95,280.11 918.06,280.51 920.17,279.71 922.29,280.11 924.40,280.51 926.51,279.71 928.62,280.11 930.74,280.11 932.85,279.30 934.96,278.90 937.07,278.90 939.19,280.51 941.30,279.30 943.41,278.09 945.52,278.49 947.64,278.49 949.75,277.28 951.86,277.68 953.97,277.68 956.09,278.09 958.20,277.28 960.31,600.00 962.42,278.90 964.53,279.30 966.65,278.90 968.76,278.49 970.87,278.49 972.98,278.49 975.10,278.49 977.21,278.49 979.32,278.49 981.43,278.49 983.55,278.49 985.66,278.49 987.77,278.49 989.88,278.49 992.00,278.49 994.11,600.00 996.22,600.00 998.33,254.63 1000.45,600.00 1002.56,245.74 1004.67,245.74 1006.78,246.14 1008.90,245.74 1011.01,245.74 1013.12,245.74 1015.23,245.74 1017.34,245.74 1019.46,240.07 1021.57,238.05 1023.68,238.05 1025.79,227.13 1027.91,227.13 1030.02,226.32 1032.13,227.54 1034.24,226.73 1036.36,226.32 1038.47,227.13 1040.58,227.13 1042.69,226.73 1044.81,226.32 1046.92,226.73 1049.03,226.73 1051.14,226.73 1053.26,225.11 1055.37,224.71 1057.48,225.11 1059.59,224.30 1061.71,226.32 1063.82,224.30 1065.93,225.51 1068.04,225.51 1070.16,225.51 1072.27,225.92 1074.38,223.09 1076.49,223.49 1078.60,223.09 1080.72,223.09 1082.83,223.90 1084.94,223.49 1087.05,223.49 1089.17,223.09 1091.28,223.09 1093.39,223.49 1095.50,223.09 1097.62,223.09 1099.73,223.49 1101.84,223.49 1103.95,223.09 1106.07,223.09 1108.18,223.49 1110.29,223.09 1112.40,223.09 1114.52,223.09 1116.63,223.49 1118.74,223.49 1120.85,223.49 1122.97,223.09 1125.08,223.49 1127.19,223.09 1129.30,223.09 1131.41,223.49 1133.53,223.09 1135.64,223.09 1137.75,223.49 1139.86,222.68 1141.98,221.88 1144.09,223.49 1146.20,223.09 1148.31,223.49 1150.43,224.30 1152.54,201.65 1154.65,201.65 1156.76,186.69 1158.88,176.18 1160.99,174.15 1163.10,172.94 1165.21,172.94 1167.33,162.02 1169.44,161.21 1171.55,148.27 1173.66,155.96 1175.78,139.78 1177.89,135.33 1180.00,147.06"/>
<circle cx="90.00" cy="540.55" r="3.2" fill="#1d4ed8"/>
<circle cx="92.11" cy="538.53" r="3.2" fill="#1d4ed8"/>
<circle cx="94.22" cy="536.91" r="3.2" fill="#1d4ed8"/>
<circle cx="96.34" cy="534.49" r="3.2" fill="#1d4ed8"/>
<circle cx="98.45" cy="534.49" r="3.2" fill="#1d4ed8"/>
<circle cx="100.56" cy="533.27" r="3.2" fill="#1d4ed8"/>
<circle cx="102.67" cy="532.46" r="3.2" fill="#1d4ed8"/>
<circle cx="104.79" cy="532.87" r="3.2" fill="#1d4ed8"/>
<circle cx="106.90" cy="532.06" r="3.2" fill="#1d4ed8"/>
<circle cx="109.01" cy="532.46" r="3.2" fill="#1d4ed8"/>
<circle cx="111.12" cy="532.06" r="3.2" fill="#1d4ed8"/>
<circle cx="113.24" cy="568.46" r="3.2" fill="#1d4ed8"/>
<circle cx="115.35" cy="568.46" r="3.2" fill="#1d4ed8"/>
<circle cx="117.46" cy="566.43" r="3.2" fill="#1d4ed8"/>
<circle cx="119.57" cy="545.00" r="3.2" fill="#1d4ed8"/>
<circle cx="121.69" cy="545.00" r="3.2" fill="#1d4ed8"/>
<circle cx="123.80" cy="544.19" r="3.2" fill="#1d4ed8"/>
<circle cx="125.91" cy="543.79" r="3.2" fill="#1d4ed8"/>
<circle cx="128.02" cy="543.79" r="3.2" fill="#1d4ed8"/>
<circle cx="130.14" cy="543.38" r="3.2" fill="#1d4ed8"/>
<circle cx="132.25" cy="541.76" r="3.2" fill="#1d4ed8"/>
<circle cx="134.36" cy="541.36" r="3.2" fill="#1d4ed8"/>
<circle cx="136.47" cy="540.96" r="3.2" fill="#1d4ed8"/>
<circle cx="138.59" cy="540.96" r="3.2" fill="#1d4ed8"/>
<circle cx="140.70" cy="539.34" r="3.2" fill="#1d4ed8"/>
<circle cx="142.81" cy="539.34" r="3.2" fill="#1d4ed8"/>
<circle cx="144.92" cy="556.73" r="3.2" fill="#1d4ed8"/>
<circle cx="147.03" cy="556.73" r="3.2" fill="#1d4ed8"/>
<circle cx="149.15" cy="555.51" r="3.2" fill="#1d4ed8"/>
<circle cx="151.26" cy="551.07" r="3.2" fill="#1d4ed8"/>
<circle cx="153.37" cy="538.93" r="3.2" fill="#1d4ed8"/>
<circle cx="155.48" cy="538.93" r="3.2" fill="#1d4ed8"/>
<circle cx="157.60" cy="538.93" r="3.2" fill="#1d4ed8"/>
<circle cx="159.71" cy="538.12" r="3.2" fill="#1d4ed8"/>
<circle cx="161.82" cy="536.91" r="3.2" fill="#1d4ed8"/>
<circle cx="163.93" cy="536.91" r="3.2" fill="#1d4ed8"/>
<circle cx="166.05" cy="536.51" r="3.2" fill="#1d4ed8"/>
<circle cx="168.16" cy="536.51" r="3.2" fill="#1d4ed8"/>
<circle cx="170.27" cy="556.73" r="3.2" fill="#1d4ed8"/>
<circle cx="172.38" cy="556.73" r="3.2" fill="#1d4ed8"/>
<circle cx="174.50" cy="556.73" r="3.2" fill="#1d4ed8"/>
<circle cx="176.61" cy="556.73" r="3.2" fill="#1d4ed8"/>
<circle cx="178.72" cy="535.29" r="3.2" fill="#1d4ed8"/>
<circle cx="180.83" cy="535.29" r="3.2" fill="#1d4ed8"/>
<circle cx="182.95" cy="535.29" r="3.2" fill="#1d4ed8"/>
<circle cx="185.06" cy="535.29" r="3.2" fill="#1d4ed8"/>
<circle cx="187.17" cy="534.49" r="3.2" fill="#1d4ed8"/>
<circle cx="189.28" cy="534.08" r="3.2" fill="#1d4ed8"/>
<circle cx="191.40" cy="533.68" r="3.2" fill="#1d4ed8"/>
<circle cx="193.51" cy="532.87" r="3.2" fill="#1d4ed8"/>
<circle cx="195.62" cy="532.06" r="3.2" fill="#1d4ed8"/>
<circle cx="197.73" cy="532.06" r="3.2" fill="#1d4ed8"/>
<circle cx="199.84" cy="531.25" r="3.2" fill="#1d4ed8"/>
<circle cx="201.96" cy="530.85" r="3.2" fill="#1d4ed8"/>
<circle cx="204.07" cy="530.44" r="3.2" fill="#1d4ed8"/>
<circle cx="206.18" cy="530.04" r="3.2" fill="#1d4ed8"/>
<circle cx="208.29" cy="530.04" r="3.2" fill="#1d4ed8"/>
<circle cx="210.41" cy="529.23" r="3.2" fill="#1d4ed8"/>
<circle cx="212.52" cy="529.23" r="3.2" fill="#1d4ed8"/>
<circle cx="214.63" cy="529.23" r="3.2" fill="#1d4ed8"/>
<circle cx="216.74" cy="528.42" r="3.2" fill="#1d4ed8"/>
<circle cx="218.86" cy="528.42" r="3.2" fill="#1d4ed8"/>
<circle cx="220.97" cy="527.61" r="3.2" fill="#1d4ed8"/>
<circle cx="223.08" cy="527.21" r="3.2" fill="#1d4ed8"/>
<circle cx="225.19" cy="526.80" r="3.2" fill="#1d4ed8"/>
<circle cx="227.31" cy="526.40" r="3.2" fill="#1d4ed8"/>
<circle cx="229.42" cy="525.18" r="3.2" fill="#1d4ed8"/>
<circle cx="231.53" cy="523.57" r="3.2" fill="#1d4ed8"/>
<circle cx="233.64" cy="523.57" r="3.2" fill="#1d4ed8"/>
<circle cx="235.76" cy="523.16" r="3.2" fill="#1d4ed8"/>
<circle cx="237.87" cy="522.76" r="3.2" fill="#1d4ed8"/>
<circle cx="239.98" cy="522.35" r="3.2" fill="#1d4ed8"/>
<circle cx="242.09" cy="521.54" r="3.2" fill="#1d4ed8"/>
<circle cx="244.21" cy="519.52" r="3.2" fill="#1d4ed8"/>
<circle cx="246.32" cy="517.50" r="3.2" fill="#1d4ed8"/>
<circle cx="248.43" cy="517.50" r="3.2" fill="#1d4ed8"/>
<circle cx="250.54" cy="517.50" r="3.2" fill="#1d4ed8"/>
<circle cx="252.66" cy="517.50" r="3.2" fill="#1d4ed8"/>
<circle cx="254.77" cy="517.50" r="3.2" fill="#1d4ed8"/>
<circle cx="256.88" cy="517.50" r="3.2" fill="#1d4ed8"/>
<circle cx="258.99" cy="517.10" r="3.2" fill="#1d4ed8"/>
<circle cx="261.10" cy="516.69" r="3.2" fill="#1d4ed8"/>
<circle cx="263.22" cy="515.48" r="3.2" fill="#1d4ed8"/>
<circle cx="265.33" cy="515.07" r="3.2" fill="#1d4ed8"/>
<circle cx="267.44" cy="514.67" r="3.2" fill="#1d4ed8"/>
<circle cx="269.55" cy="513.86" r="3.2" fill="#1d4ed8"/>
<circle cx="271.67" cy="514.26" r="3.2" fill="#1d4ed8"/>
<circle cx="273.78" cy="512.24" r="3.2" fill="#1d4ed8"/>
<circle cx="275.89" cy="511.84" r="3.2" fill="#1d4ed8"/>
<circle cx="278.00" cy="511.84" r="3.2" fill="#1d4ed8"/>
<circle cx="280.12" cy="511.03" r="3.2" fill="#1d4ed8"/>
<circle cx="282.23" cy="509.82" r="3.2" fill="#1d4ed8"/>
<circle cx="284.34" cy="507.79" r="3.2" fill="#1d4ed8"/>
<circle cx="286.45" cy="506.99" r="3.2" fill="#1d4ed8"/>
<circle cx="288.57" cy="506.58" r="3.2" fill="#1d4ed8"/>
<circle cx="290.68" cy="509.41" r="3.2" fill="#1d4ed8"/>
<circle cx="292.79" cy="509.01" r="3.2" fill="#1d4ed8"/>
<circle cx="294.90" cy="504.96" r="3.2" fill="#1d4ed8"/>
<circle cx="297.02" cy="504.56" r="3.2" fill="#1d4ed8"/>
<circle cx="299.13" cy="504.15" r="3.2" fill="#1d4ed8"/>
<circle cx="301.24" cy="504.56" r="3.2" fill="#1d4ed8"/>
<circle cx="303.35" cy="503.75" r="3.2" fill="#1d4ed8"/>
<circle cx="305.47" cy="503.75" r="3.2" fill="#1d4ed8"/>
<circle cx="307.58" cy="503.35" r="3.2" fill="#1d4ed8"/>
<circle cx="309.69" cy="499.30" r="3.2" fill="#1d4ed8"/>
<circle cx="311.80" cy="496.47" r="3.2" fill="#1d4ed8"/>
<circle cx="313.91" cy="490.00" r="3.2" fill="#1d4ed8"/>
<circle cx="316.03" cy="484.34" r="3.2" fill="#1d4ed8"/>
<circle cx="318.14" cy="481.10" r="3.2" fill="#1d4ed8"/>
<circle cx="320.25" cy="480.29" r="3.2" fill="#1d4ed8"/>
<circle cx="322.36" cy="480.70" r="3.2" fill="#1d4ed8"/>
<circle cx="324.48" cy="460.88" r="3.2" fill="#1d4ed8"/>
<circle cx="326.59" cy="459.26" r="3.2" fill="#1d4ed8"/>
<circle cx="328.70" cy="458.05" r="3.2" fill="#1d4ed8"/>
<circle cx="330.81" cy="456.03" r="3.2" fill="#1d4ed8"/>
<circle cx="332.93" cy="456.03" r="3.2" fill="#1d4ed8"/>
<circle cx="335.04" cy="454.41" r="3.2" fill="#1d4ed8"/>
<circle cx="337.15" cy="450.77" r="3.2" fill="#1d4ed8"/>
<circle cx="339.26" cy="444.30" r="3.2" fill="#1d4ed8"/>
<circle cx="341.38" cy="443.90" r="3.2" fill="#1d4ed8"/>
<circle cx="343.49" cy="600.00" r="3.2" fill="#1d4ed8"/>
<circle cx="345.60" cy="441.88" r="3.2" fill="#1d4ed8"/>
<circle cx="347.71" cy="440.66" r="3.2" fill="#1d4ed8"/>
<circle cx="349.83" cy="439.45" r="3.2" fill="#1d4ed8"/>
<circle cx="351.94" cy="439.04" r="3.2" fill="#1d4ed8"/>
<circle cx="354.05" cy="438.64" r="3.2" fill="#1d4ed8"/>
<circle cx="356.16" cy="437.83" r="3.2" fill="#1d4ed8"/>
<circle cx="358.28" cy="436.62" r="3.2" fill="#1d4ed8"/>
<circle cx="360.39" cy="436.62" r="3.2" fill="#1d4ed8"/>
<circle cx="362.50" cy="434.60" r="3.2" fill="#1d4ed8"/>
<circle cx="364.61" cy="432.17" r="3.2" fill="#1d4ed8"/>
<circle cx="366.72" cy="429.34" r="3.2" fill="#1d4ed8"/>
<circle cx="368.84" cy="428.93" r="3.2" fill="#1d4ed8"/>
<circle cx="370.95" cy="428.53" r="3.2" fill="#1d4ed8"/>
<circle cx="373.06" cy="427.72" r="3.2" fill="#1d4ed8"/>
<circle cx="375.17" cy="426.91" r="3.2" fill="#1d4ed8"/>
<circle cx="377.29" cy="426.10" r="3.2" fill="#1d4ed8"/>
<circle cx="379.40" cy="426.10" r="3.2" fill="#1d4ed8"/>
<circle cx="381.51" cy="426.10" r="3.2" fill="#1d4ed8"/>
<circle cx="383.62" cy="419.63" r="3.2" fill="#1d4ed8"/>
<circle cx="385.74" cy="419.23" r="3.2" fill="#1d4ed8"/>
<circle cx="387.85" cy="418.42" r="3.2" fill="#1d4ed8"/>
<circle cx="389.96" cy="418.01" r="3.2" fill="#1d4ed8"/>
<circle cx="392.07" cy="417.61" r="3.2" fill="#1d4ed8"/>
<circle cx="394.19" cy="417.61" r="3.2" fill="#1d4ed8"/>
<circle cx="396.30" cy="417.61" r="3.2" fill="#1d4ed8"/>
<circle cx="398.41" cy="417.21" r="3.2" fill="#1d4ed8"/>
<circle cx="400.52" cy="417.21" r="3.2" fill="#1d4ed8"/>
<circle cx="402.64" cy="413.57" r="3.2" fill="#1d4ed8"/>
<circle cx="404.75" cy="411.95" r="3.2" fill="#1d4ed8"/>
<circle cx="406.86" cy="412.76" r="3.2" fill="#1d4ed8"/>
<circle cx="408.97" cy="410.74" r="3.2" fill="#1d4ed8"/>
<circle cx="411.09" cy="410.74" r="3.2" fill="#1d4ed8"/>
<circle cx="413.20" cy="410.33" r="3.2" fill="#1d4ed8"/>
<circle cx="415.31" cy="410.33" r="3.2" fill="#1d4ed8"/>
<circle cx="417.42" cy="410.33" r="3.2" fill="#1d4ed8"/>
<circle cx="419.53" cy="409.93" r="3.2" fill="#1d4ed8"/>
<circle cx="421.65" cy="409.93" r="3.2" fill="#1d4ed8"/>
<circle cx="423.76" cy="409.93" r="3.2" fill="#1d4ed8"/>
<circle cx="425.87" cy="409.52" r="3.2" fill="#1d4ed8"/>
<circle cx="427.98" cy="409.52" r="3.2" fill="#1d4ed8"/>
<circle cx="430.10" cy="409.12" r="3.2" fill="#1d4ed8"/>
<circle cx="432.21" cy="409.52" r="3.2" fill="#1d4ed8"/>
<circle cx="434.32" cy="409.12" r="3.2" fill="#1d4ed8"/>
<circle cx="436.43" cy="407.50" r="3.2" fill="#1d4ed8"/>
<circle cx="438.55" cy="407.10" r="3.2" fill="#1d4ed8"/>
<circle cx="440.66" cy="403.05" r="3.2" fill="#1d4ed8"/>
<circle cx="442.77" cy="399.82" r="3.2" fill="#1d4ed8"/>
<circle cx="444.88" cy="400.22" r="3.2" fill="#1d4ed8"/>
<circle cx="447.00" cy="400.62" r="3.2" fill="#1d4ed8"/>
<circle cx="449.11" cy="400.62" r="3.2" fill="#1d4ed8"/>
<circle cx="451.22" cy="399.41" r="3.2" fill="#1d4ed8"/>
<circle cx="453.33" cy="392.94" r="3.2" fill="#1d4ed8"/>
<circle cx="455.45" cy="391.32" r="3.2" fill="#1d4ed8"/>
<circle cx="457.56" cy="389.30" r="3.2" fill="#1d4ed8"/>
<circle cx="459.67" cy="389.30" r="3.2" fill="#1d4ed8"/>
<circle cx="461.78" cy="388.49" r="3.2" fill="#1d4ed8"/>
<circle cx="463.90" cy="375.15" r="3.2" fill="#1d4ed8"/>
<circle cx="466.01" cy="374.74" r="3.2" fill="#1d4ed8"/>
<circle cx="468.12" cy="374.74" r="3.2" fill="#1d4ed8"/>
<circle cx="470.23" cy="374.74" r="3.2" fill="#1d4ed8"/>
<circle cx="472.34" cy="374.74" r="3.2" fill="#1d4ed8"/>
<circle cx="474.46" cy="374.34" r="3.2" fill="#1d4ed8"/>
<circle cx="476.57" cy="374.34" r="3.2" fill="#1d4ed8"/>
<circle cx="478.68" cy="374.34" r="3.2" fill="#1d4ed8"/>
<circle cx="480.79" cy="374.34" r="3.2" fill="#1d4ed8"/>
<circle cx="482.91" cy="374.34" r="3.2" fill="#1d4ed8"/>
<circle cx="485.02" cy="373.93" r="3.2" fill="#1d4ed8"/>
<circle cx="487.13" cy="373.12" r="3.2" fill="#1d4ed8"/>
<circle cx="489.24" cy="372.72" r="3.2" fill="#1d4ed8"/>
<circle cx="491.36" cy="373.53" r="3.2" fill="#1d4ed8"/>
<circle cx="493.47" cy="435.81" r="3.2" fill="#1d4ed8"/>
<circle cx="495.58" cy="372.32" r="3.2" fill="#1d4ed8"/>
<circle cx="497.69" cy="372.72" r="3.2" fill="#1d4ed8"/>
<circle cx="499.81" cy="371.91" r="3.2" fill="#1d4ed8"/>
<circle cx="501.92" cy="371.91" r="3.2" fill="#1d4ed8"/>
<circle cx="504.03" cy="372.32" r="3.2" fill="#1d4ed8"/>
<circle cx="506.14" cy="371.10" r="3.2" fill="#1d4ed8"/>
<circle cx="508.26" cy="369.89" r="3.2" fill="#1d4ed8"/>
<circle cx="510.37" cy="369.89" r="3.2" fill="#1d4ed8"/>
<circle cx="512.48" cy="369.89" r="3.2" fill="#1d4ed8"/>
<circle cx="514.59" cy="369.49" r="3.2" fill="#1d4ed8"/>
<circle cx="516.71" cy="369.89" r="3.2" fill="#1d4ed8"/>
<circle cx="518.82" cy="369.08" r="3.2" fill="#1d4ed8"/>
<circle cx="520.93" cy="368.68" r="3.2" fill="#1d4ed8"/>
<circle cx="523.04" cy="368.27" r="3.2" fill="#1d4ed8"/>
<circle cx="525.16" cy="367.87" r="3.2" fill="#1d4ed8"/>
<circle cx="527.27" cy="367.06" r="3.2" fill="#1d4ed8"/>
<circle cx="529.38" cy="367.46" r="3.2" fill="#1d4ed8"/>
<circle cx="531.49" cy="367.06" r="3.2" fill="#1d4ed8"/>
<circle cx="533.60" cy="366.25" r="3.2" fill="#1d4ed8"/>
<circle cx="535.72" cy="368.27" r="3.2" fill="#1d4ed8"/>
<circle cx="537.83" cy="368.68" r="3.2" fill="#1d4ed8"/>
<circle cx="539.94" cy="368.68" r="3.2" fill="#1d4ed8"/>
<circle cx="542.05" cy="368.27" r="3.2" fill="#1d4ed8"/>
<circle cx="544.17" cy="369.08" r="3.2" fill="#1d4ed8"/>
<circle cx="546.28" cy="367.87" r="3.2" fill="#1d4ed8"/>
<circle cx="548.39" cy="367.46" r="3.2" fill="#1d4ed8"/>
<circle cx="550.50" cy="367.06" r="3.2" fill="#1d4ed8"/>
<circle cx="552.62" cy="360.18" r="3.2" fill="#1d4ed8"/>
<circle cx="554.73" cy="359.78" r="3.2" fill="#1d4ed8"/>
<circle cx="556.84" cy="359.38" r="3.2" fill="#1d4ed8"/>
<circle cx="558.95" cy="356.95" r="3.2" fill="#1d4ed8"/>
<circle cx="561.07" cy="357.35" r="3.2" fill="#1d4ed8"/>
<circle cx="563.18" cy="357.76" r="3.2" fill="#1d4ed8"/>
<circle cx="565.29" cy="355.33" r="3.2" fill="#1d4ed8"/>
<circle cx="567.40" cy="355.74" r="3.2" fill="#1d4ed8"/>
<circle cx="569.52" cy="357.35" r="3.2" fill="#1d4ed8"/>
<circle cx="571.63" cy="355.33" r="3.2" fill="#1d4ed8"/>
<circle cx="573.74" cy="356.14" r="3.2" fill="#1d4ed8"/>
<circle cx="575.85" cy="355.74" r="3.2" fill="#1d4ed8"/>
<circle cx="577.97" cy="356.14" r="3.2" fill="#1d4ed8"/>
<circle cx="580.08" cy="354.12" r="3.2" fill="#1d4ed8"/>
<circle cx="582.19" cy="354.93" r="3.2" fill="#1d4ed8"/>
<circle cx="584.30" cy="356.14" r="3.2" fill="#1d4ed8"/>
<circle cx="586.41" cy="354.52" r="3.2" fill="#1d4ed8"/>
<circle cx="588.53" cy="353.71" r="3.2" fill="#1d4ed8"/>
<circle cx="590.64" cy="354.12" r="3.2" fill="#1d4ed8"/>
<circle cx="592.75" cy="354.93" r="3.2" fill="#1d4ed8"/>
<circle cx="594.86" cy="352.90" r="3.2" fill="#1d4ed8"/>
<circle cx="596.98" cy="353.71" r="3.2" fill="#1d4ed8"/>
<circle cx="599.09" cy="353.31" r="3.2" fill="#1d4ed8"/>
<circle cx="601.20" cy="353.31" r="3.2" fill="#1d4ed8"/>
<circle cx="603.31" cy="354.52" r="3.2" fill="#1d4ed8"/>
<circle cx="605.43" cy="352.90" r="3.2" fill="#1d4ed8"/>
<circle cx="607.54" cy="352.50" r="3.2" fill="#1d4ed8"/>
<circle cx="609.65" cy="352.50" r="3.2" fill="#1d4ed8"/>
<circle cx="611.76" cy="353.31" r="3.2" fill="#1d4ed8"/>
<circle cx="613.88" cy="352.50" r="3.2" fill="#1d4ed8"/>
<circle cx="615.99" cy="353.71" r="3.2" fill="#1d4ed8"/>
<circle cx="618.10" cy="354.12" r="3.2" fill="#1d4ed8"/>
<circle cx="620.21" cy="352.50" r="3.2" fill="#1d4ed8"/>
<circle cx="622.33" cy="352.90" r="3.2" fill="#1d4ed8"/>
<circle cx="624.44" cy="352.50" r="3.2" fill="#1d4ed8"/>
<circle cx="626.55" cy="352.10" r="3.2" fill="#1d4ed8"/>
<circle cx="628.66" cy="351.69" r="3.2" fill="#1d4ed8"/>
<circle cx="630.78" cy="352.10" r="3.2" fill="#1d4ed8"/>
<circle cx="632.89" cy="354.12" r="3.2" fill="#1d4ed8"/>
<circle cx="635.00" cy="352.50" r="3.2" fill="#1d4ed8"/>
<circle cx="637.11" cy="352.10" r="3.2" fill="#1d4ed8"/>
<circle cx="639.22" cy="352.10" r="3.2" fill="#1d4ed8"/>
<circle cx="641.34" cy="349.67" r="3.2" fill="#1d4ed8"/>
<circle cx="643.45" cy="349.67" r="3.2" fill="#1d4ed8"/>
<circle cx="645.56" cy="350.88" r="3.2" fill="#1d4ed8"/>
<circle cx="647.67" cy="351.29" r="3.2" fill="#1d4ed8"/>
<circle cx="649.79" cy="350.48" r="3.2" fill="#1d4ed8"/>
<circle cx="651.90" cy="352.10" r="3.2" fill="#1d4ed8"/>
<circle cx="654.01" cy="350.48" r="3.2" fill="#1d4ed8"/>
<circle cx="656.12" cy="350.48" r="3.2" fill="#1d4ed8"/>
<circle cx="658.24" cy="350.48" r="3.2" fill="#1d4ed8"/>
<circle cx="660.35" cy="350.07" r="3.2" fill="#1d4ed8"/>
<circle cx="662.46" cy="348.46" r="3.2" fill="#1d4ed8"/>
<circle cx="664.57" cy="351.29" r="3.2" fill="#1d4ed8"/>
<circle cx="666.69" cy="349.67" r="3.2" fill="#1d4ed8"/>
<circle cx="668.80" cy="351.29" r="3.2" fill="#1d4ed8"/>
<circle cx="670.91" cy="349.67" r="3.2" fill="#1d4ed8"/>
<circle cx="673.02" cy="348.86" r="3.2" fill="#1d4ed8"/>
<circle cx="675.14" cy="348.46" r="3.2" fill="#1d4ed8"/>
<circle cx="677.25" cy="348.46" r="3.2" fill="#1d4ed8"/>
<circle cx="679.36" cy="347.24" r="3.2" fill="#1d4ed8"/>
<circle cx="681.47" cy="348.86" r="3.2" fill="#1d4ed8"/>
<circle cx="683.59" cy="346.84" r="3.2" fill="#1d4ed8"/>
<circle cx="685.70" cy="348.46" r="3.2" fill="#1d4ed8"/>
<circle cx="687.81" cy="348.86" r="3.2" fill="#1d4ed8"/>
<circle cx="689.92" cy="346.84" r="3.2" fill="#1d4ed8"/>
<circle cx="692.03" cy="349.26" r="3.2" fill="#1d4ed8"/>
<circle cx="694.15" cy="348.05" r="3.2" fill="#1d4ed8"/>
<circle cx="696.26" cy="349.26" r="3.2" fill="#1d4ed8"/>
<circle cx="698.37" cy="349.26" r="3.2" fill="#1d4ed8"/>
<circle cx="700.48" cy="350.48" r="3.2" fill="#1d4ed8"/>
<circle cx="702.60" cy="352.90" r="3.2" fill="#1d4ed8"/>
<circle cx="704.71" cy="349.67" r="3.2" fill="#1d4ed8"/>
<circle cx="706.82" cy="348.46" r="3.2" fill="#1d4ed8"/>
<circle cx="708.93" cy="345.62" r="3.2" fill="#1d4ed8"/>
<circle cx="711.05" cy="344.82" r="3.2" fill="#1d4ed8"/>
<circle cx="713.16" cy="344.41" r="3.2" fill="#1d4ed8"/>
<circle cx="715.27" cy="342.39" r="3.2" fill="#1d4ed8"/>
<circle cx="717.38" cy="341.18" r="3.2" fill="#1d4ed8"/>
<circle cx="719.50" cy="341.58" r="3.2" fill="#1d4ed8"/>
<circle cx="721.61" cy="339.15" r="3.2" fill="#1d4ed8"/>
<circle cx="723.72" cy="338.35" r="3.2" fill="#1d4ed8"/>
<circle cx="725.83" cy="337.54" r="3.2" fill="#1d4ed8"/>
<circle cx="727.95" cy="336.73" r="3.2" fill="#1d4ed8"/>
<circle cx="730.06" cy="335.92" r="3.2" fill="#1d4ed8"/>
<circle cx="732.17" cy="337.54" r="3.2" fill="#1d4ed8"/>
<circle cx="734.28" cy="338.35" r="3.2" fill="#1d4ed8"/>
<circle cx="736.40" cy="337.54" r="3.2" fill="#1d4ed8"/>
<circle cx="738.51" cy="337.54" r="3.2" fill="#1d4ed8"/>
<circle cx="740.62" cy="337.54" r="3.2" fill="#1d4ed8"/>
<circle cx="742.73" cy="333.09" r="3.2" fill="#1d4ed8"/>
<circle cx="744.84" cy="333.90" r="3.2" fill="#1d4ed8"/>
<circle cx="746.96" cy="335.92" r="3.2" fill="#1d4ed8"/>
<circle cx="749.07" cy="336.73" r="3.2" fill="#1d4ed8"/>
<circle cx="751.18" cy="335.51" r="3.2" fill="#1d4ed8"/>
<circle cx="753.29" cy="332.28" r="3.2" fill="#1d4ed8"/>
<circle cx="755.41" cy="331.47" r="3.2" fill="#1d4ed8"/>
<circle cx="757.52" cy="331.07" r="3.2" fill="#1d4ed8"/>
<circle cx="759.63" cy="331.47" r="3.2" fill="#1d4ed8"/>
<circle cx="761.74" cy="331.07" r="3.2" fill="#1d4ed8"/>
<circle cx="763.86" cy="331.07" r="3.2" fill="#1d4ed8"/>
<circle cx="765.97" cy="331.07" r="3.2" fill="#1d4ed8"/>
<circle cx="768.08" cy="331.07" r="3.2" fill="#1d4ed8"/>
<circle cx="770.19" cy="331.07" r="3.2" fill="#1d4ed8"/>
<circle cx="772.31" cy="331.07" r="3.2" fill="#1d4ed8"/>
<circle cx="774.42" cy="331.07" r="3.2" fill="#1d4ed8"/>
<circle cx="776.53" cy="331.07" r="3.2" fill="#1d4ed8"/>
<circle cx="778.64" cy="331.07" r="3.2" fill="#1d4ed8"/>
<circle cx="780.76" cy="331.07" r="3.2" fill="#1d4ed8"/>
<circle cx="782.87" cy="331.47" r="3.2" fill="#1d4ed8"/>
<circle cx="784.98" cy="331.88" r="3.2" fill="#1d4ed8"/>
<circle cx="787.09" cy="331.07" r="3.2" fill="#1d4ed8"/>
<circle cx="789.21" cy="331.47" r="3.2" fill="#1d4ed8"/>
<circle cx="791.32" cy="331.07" r="3.2" fill="#1d4ed8"/>
<circle cx="793.43" cy="331.47" r="3.2" fill="#1d4ed8"/>
<circle cx="795.54" cy="331.07" r="3.2" fill="#1d4ed8"/>
<circle cx="797.66" cy="324.19" r="3.2" fill="#1d4ed8"/>
<circle cx="799.77" cy="324.19" r="3.2" fill="#1d4ed8"/>
<circle cx="801.88" cy="318.93" r="3.2" fill="#1d4ed8"/>
<circle cx="803.99" cy="316.51" r="3.2" fill="#1d4ed8"/>
<circle cx="806.10" cy="310.44" r="3.2" fill="#1d4ed8"/>
<circle cx="808.22" cy="308.01" r="3.2" fill="#1d4ed8"/>
<circle cx="810.33" cy="600.00" r="3.2" fill="#1d4ed8"/>
<circle cx="812.44" cy="301.54" r="3.2" fill="#1d4ed8"/>
<circle cx="814.55" cy="290.22" r="3.2" fill="#1d4ed8"/>
<circle cx="816.67" cy="287.79" r="3.2" fill="#1d4ed8"/>
<circle cx="818.78" cy="286.18" r="3.2" fill="#1d4ed8"/>
<circle cx="820.89" cy="285.77" r="3.2" fill="#1d4ed8"/>
<circle cx="823.00" cy="285.77" r="3.2" fill="#1d4ed8"/>
<circle cx="825.12" cy="285.77" r="3.2" fill="#1d4ed8"/>
<circle cx="827.23" cy="286.18" r="3.2" fill="#1d4ed8"/>
<circle cx="829.34" cy="285.77" r="3.2" fill="#1d4ed8"/>
<circle cx="831.45" cy="285.77" r="3.2" fill="#1d4ed8"/>
<circle cx="833.57" cy="285.77" r="3.2" fill="#1d4ed8"/>
<circle cx="835.68" cy="283.35" r="3.2" fill="#1d4ed8"/>
<circle cx="837.79" cy="282.94" r="3.2" fill="#1d4ed8"/>
<circle cx="839.90" cy="282.94" r="3.2" fill="#1d4ed8"/>
<circle cx="842.02" cy="283.35" r="3.2" fill="#1d4ed8"/>
<circle cx="844.13" cy="282.94" r="3.2" fill="#1d4ed8"/>
<circle cx="846.24" cy="282.94" r="3.2" fill="#1d4ed8"/>
<circle cx="848.35" cy="283.75" r="3.2" fill="#1d4ed8"/>
<circle cx="850.47" cy="282.13" r="3.2" fill="#1d4ed8"/>
<circle cx="852.58" cy="282.13" r="3.2" fill="#1d4ed8"/>
<circle cx="854.69" cy="282.54" r="3.2" fill="#1d4ed8"/>
<circle cx="856.80" cy="282.13" r="3.2" fill="#1d4ed8"/>
<circle cx="858.91" cy="282.54" r="3.2" fill="#1d4ed8"/>
<circle cx="861.03" cy="282.94" r="3.2" fill="#1d4ed8"/>
<circle cx="863.14" cy="281.73" r="3.2" fill="#1d4ed8"/>
<circle cx="865.25" cy="282.54" r="3.2" fill="#1d4ed8"/>
<circle cx="867.36" cy="281.73" r="3.2" fill="#1d4ed8"/>
<circle cx="869.48" cy="282.54" r="3.2" fill="#1d4ed8"/>
<circle cx="871.59" cy="282.13" r="3.2" fill="#1d4ed8"/>
<circle cx="873.70" cy="282.13" r="3.2" fill="#1d4ed8"/>
<circle cx="875.81" cy="281.73" r="3.2" fill="#1d4ed8"/>
<circle cx="877.93" cy="281.73" r="3.2" fill="#1d4ed8"/>
<circle cx="880.04" cy="281.32" r="3.2" fill="#1d4ed8"/>
<circle cx="882.15" cy="281.73" r="3.2" fill="#1d4ed8"/>
<circle cx="884.26" cy="282.13" r="3.2" fill="#1d4ed8"/>
<circle cx="886.38" cy="281.32" r="3.2" fill="#1d4ed8"/>
<circle cx="888.49" cy="281.32" r="3.2" fill="#1d4ed8"/>
<circle cx="890.60" cy="282.54" r="3.2" fill="#1d4ed8"/>
<circle cx="892.71" cy="282.13" r="3.2" fill="#1d4ed8"/>
<circle cx="894.83" cy="281.32" r="3.2" fill="#1d4ed8"/>
<circle cx="896.94" cy="281.32" r="3.2" fill="#1d4ed8"/>
<circle cx="899.05" cy="281.32" r="3.2" fill="#1d4ed8"/>
<circle cx="901.16" cy="282.54" r="3.2" fill="#1d4ed8"/>
<circle cx="903.28" cy="282.13" r="3.2" fill="#1d4ed8"/>
<circle cx="905.39" cy="281.32" r="3.2" fill="#1d4ed8"/>
<circle cx="907.50" cy="282.13" r="3.2" fill="#1d4ed8"/>
<circle cx="909.61" cy="281.73" r="3.2" fill="#1d4ed8"/>
<circle cx="911.72" cy="282.13" r="3.2" fill="#1d4ed8"/>
<circle cx="913.84" cy="280.11" r="3.2" fill="#1d4ed8"/>
<circle cx="915.95" cy="280.11" r="3.2" fill="#1d4ed8"/>
<circle cx="918.06" cy="280.51" r="3.2" fill="#1d4ed8"/>
<circle cx="920.17" cy="279.71" r="3.2" fill="#1d4ed8"/>
<circle cx="922.29" cy="280.11" r="3.2" fill="#1d4ed8"/>
<circle cx="924.40" cy="280.51" r="3.2" fill="#1d4ed8"/>
<circle cx="926.51" cy="279.71" r="3.2" fill="#1d4ed8"/>
<circle cx="928.62" cy="280.11" r="3.2" fill="#1d4ed8"/>
<circle cx="930.74" cy="280.11" r="3.2" fill="#1d4ed8"/>
<circle cx="932.85" cy="279.30" r="3.2" fill="#1d4ed8"/>
<circle cx="934.96" cy="278.90" r="3.2" fill="#1d4ed8"/>
<circle cx="937.07" cy="278.90" r="3.2" fill="#1d4ed8"/>
<circle cx="939.19" cy="280.51" r="3.2" fill="#1d4ed8"/>
<circle cx="941.30" cy="279.30" r="3.2" fill="#1d4ed8"/>
<circle cx="943.41" cy="278.09" r="3.2" fill="#1d4ed8"/>
<circle cx="945.52" cy="278.49" r="3.2" fill="#1d4ed8"/>
<circle cx="947.64" cy="278.49" r="3.2" fill="#1d4ed8"/>
<circle cx="949.75" cy="277.28" r="3.2" fill="#1d4ed8"/>
<circle cx="951.86" cy="277.68" r="3.2" fill="#1d4ed8"/>
<circle cx="953.97" cy="277.68" r="3.2" fill="#1d4ed8"/>
<circle cx="956.09" cy="278.09" r="3.2" fill="#1d4ed8"/>
<circle cx="958.20" cy="277.28" r="3.2" fill="#1d4ed8"/>
<circle cx="960.31" cy="600.00" r="3.2" fill="#1d4ed8"/>
<circle cx="962.42" cy="278.90" r="3.2" fill="#1d4ed8"/>
<circle cx="964.53" cy="279.30" r="3.2" fill="#1d4ed8"/>
<circle cx="966.65" cy="278.90" r="3.2" fill="#1d4ed8"/>
<circle cx="968.76" cy="278.49" r="3.2" fill="#1d4ed8"/>
<circle cx="970.87" cy="278.49" r="3.2" fill="#1d4ed8"/>
<circle cx="972.98" cy="278.49" r="3.2" fill="#1d4ed8"/>
<circle cx="975.10" cy="278.49" r="3.2" fill="#1d4ed8"/>
<circle cx="977.21" cy="278.49" r="3.2" fill="#1d4ed8"/>
<circle cx="979.32" cy="278.49" r="3.2" fill="#1d4ed8"/>
<circle cx="981.43" cy="278.49" r="3.2" fill="#1d4ed8"/>
<circle cx="983.55" cy="278.49" r="3.2" fill="#1d4ed8"/>
<circle cx="985.66" cy="278.49" r="3.2" fill="#1d4ed8"/>
<circle cx="987.77" cy="278.49" r="3.2" fill="#1d4ed8"/>
<circle cx="989.88" cy="278.49" r="3.2" fill="#1d4ed8"/>
<circle cx="992.00" cy="278.49" r="3.2" fill="#1d4ed8"/>
<circle cx="994.11" cy="600.00" r="3.2" fill="#1d4ed8"/>
<circle cx="996.22" cy="600.00" r="3.2" fill="#1d4ed8"/>
<circle cx="998.33" cy="254.63" r="3.2" fill="#1d4ed8"/>
<circle cx="1000.45" cy="600.00" r="3.2" fill="#1d4ed8"/>
<circle cx="1002.56" cy="245.74" r="3.2" fill="#1d4ed8"/>
<circle cx="1004.67" cy="245.74" r="3.2" fill="#1d4ed8"/>
<circle cx="1006.78" cy="246.14" r="3.2" fill="#1d4ed8"/>
<circle cx="1008.90" cy="245.74" r="3.2" fill="#1d4ed8"/>
<circle cx="1011.01" cy="245.74" r="3.2" fill="#1d4ed8"/>
<circle cx="1013.12" cy="245.74" r="3.2" fill="#1d4ed8"/>
<circle cx="1015.23" cy="245.74" r="3.2" fill="#1d4ed8"/>
<circle cx="1017.34" cy="245.74" r="3.2" fill="#1d4ed8"/>
<circle cx="1019.46" cy="240.07" r="3.2" fill="#1d4ed8"/>
<circle cx="1021.57" cy="238.05" r="3.2" fill="#1d4ed8"/>
<circle cx="1023.68" cy="238.05" r="3.2" fill="#1d4ed8"/>
<circle cx="1025.79" cy="227.13" r="3.2" fill="#1d4ed8"/>
<circle cx="1027.91" cy="227.13" r="3.2" fill="#1d4ed8"/>
<circle cx="1030.02" cy="226.32" r="3.2" fill="#1d4ed8"/>
<circle cx="1032.13" cy="227.54" r="3.2" fill="#1d4ed8"/>
<circle cx="1034.24" cy="226.73" r="3.2" fill="#1d4ed8"/>
<circle cx="1036.36" cy="226.32" r="3.2" fill="#1d4ed8"/>
<circle cx="1038.47" cy="227.13" r="3.2" fill="#1d4ed8"/>
<circle cx="1040.58" cy="227.13" r="3.2" fill="#1d4ed8"/>
<circle cx="1042.69" cy="226.73" r="3.2" fill="#1d4ed8"/>
<circle cx="1044.81" cy="226.32" r="3.2" fill="#1d4ed8"/>
<circle cx="1046.92" cy="226.73" r="3.2" fill="#1d4ed8"/>
<circle cx="1049.03" cy="226.73" r="3.2" fill="#1d4ed8"/>
<circle cx="1051.14" cy="226.73" r="3.2" fill="#1d4ed8"/>
<circle cx="1053.26" cy="225.11" r="3.2" fill="#1d4ed8"/>
<circle cx="1055.37" cy="224.71" r="3.2" fill="#1d4ed8"/>
<circle cx="1057.48" cy="225.11" r="3.2" fill="#1d4ed8"/>
<circle cx="1059.59" cy="224.30" r="3.2" fill="#1d4ed8"/>
<circle cx="1061.71" cy="226.32" r="3.2" fill="#1d4ed8"/>
<circle cx="1063.82" cy="224.30" r="3.2" fill="#1d4ed8"/>
<circle cx="1065.93" cy="225.51" r="3.2" fill="#1d4ed8"/>
<circle cx="1068.04" cy="225.51" r="3.2" fill="#1d4ed8"/>
<circle cx="1070.16" cy="225.51" r="3.2" fill="#1d4ed8"/>
<circle cx="1072.27" cy="225.92" r="3.2" fill="#1d4ed8"/>
<circle cx="1074.38" cy="223.09" r="3.2" fill="#1d4ed8"/>
<circle cx="1076.49" cy="223.49" r="3.2" fill="#1d4ed8"/>
<circle cx="1078.60" cy="223.09" r="3.2" fill="#1d4ed8"/>
<circle cx="1080.72" cy="223.09" r="3.2" fill="#1d4ed8"/>
<circle cx="1082.83" cy="223.90" r="3.2" fill="#1d4ed8"/>
<circle cx="1084.94" cy="223.49" r="3.2" fill="#1d4ed8"/>
<circle cx="1087.05" cy="223.49" r="3.2" fill="#1d4ed8"/>
<circle cx="1089.17" cy="223.09" r="3.2" fill="#1d4ed8"/>
<circle cx="1091.28" cy="223.09" r="3.2" fill="#1d4ed8"/>
<circle cx="1093.39" cy="223.49" r="3.2" fill="#1d4ed8"/>
<circle cx="1095.50" cy="223.09" r="3.2" fill="#1d4ed8"/>
<circle cx="1097.62" cy="223.09" r="3.2" fill="#1d4ed8"/>
<circle cx="1099.73" cy="223.49" r="3.2" fill="#1d4ed8"/>
<circle cx="1101.84" cy="223.49" r="3.2" fill="#1d4ed8"/>
<circle cx="1103.95" cy="223.09" r="3.2" fill="#1d4ed8"/>
<circle cx="1106.07" cy="223.09" r="3.2" fill="#1d4ed8"/>
<circle cx="1108.18" cy="223.49" r="3.2" fill="#1d4ed8"/>
<circle cx="1110.29" cy="223.09" r="3.2" fill="#1d4ed8"/>
<circle cx="1112.40" cy="223.09" r="3.2" fill="#1d4ed8"/>
<circle cx="1114.52" cy="223.09" r="3.2" fill="#1d4ed8"/>
<circle cx="1116.63" cy="223.49" r="3.2" fill="#1d4ed8"/>
<circle cx="1118.74" cy="223.49" r="3.2" fill="#1d4ed8"/>
<circle cx="1120.85" cy="223.49" r="3.2" fill="#1d4ed8"/>
<circle cx="1122.97" cy="223.09" r="3.2" fill="#1d4ed8"/>
<circle cx="1125.08" cy="223.49" r="3.2" fill="#1d4ed8"/>
<circle cx="1127.19" cy="223.09" r="3.2" fill="#1d4ed8"/>
<circle cx="1129.30" cy="223.09" r="3.2" fill="#1d4ed8"/>
<circle cx="1131.41" cy="223.49" r="3.2" fill="#1d4ed8"/>
<circle cx="1133.53" cy="223.09" r="3.2" fill="#1d4ed8"/>
<circle cx="1135.64" cy="223.09" r="3.2" fill="#1d4ed8"/>
<circle cx="1137.75" cy="223.49" r="3.2" fill="#1d4ed8"/>
<circle cx="1139.86" cy="222.68" r="3.2" fill="#1d4ed8"/>
<circle cx="1141.98" cy="221.88" r="3.2" fill="#1d4ed8"/>
<circle cx="1144.09" cy="223.49" r="3.2" fill="#1d4ed8"/>
<circle cx="1146.20" cy="223.09" r="3.2" fill="#1d4ed8"/>
<circle cx="1148.31" cy="223.49" r="3.2" fill="#1d4ed8"/>
<circle cx="1150.43" cy="224.30" r="3.2" fill="#1d4ed8"/>
<circle cx="1152.54" cy="201.65" r="3.2" fill="#1d4ed8"/>
<circle cx="1154.65" cy="201.65" r="3.2" fill="#1d4ed8"/>
<circle cx="1156.76" cy="186.69" r="3.2" fill="#1d4ed8"/>
<circle cx="1158.88" cy="176.18" r="3.2" fill="#1d4ed8"/>
<circle cx="1160.99" cy="174.15" r="3.2" fill="#1d4ed8"/>
<circle cx="1163.10" cy="172.94" r="3.2" fill="#1d4ed8"/>
<circle cx="1165.21" cy="172.94" r="3.2" fill="#1d4ed8"/>
<circle cx="1167.33" cy="162.02" r="3.2" fill="#1d4ed8"/>
<circle cx="1169.44" cy="161.21" r="3.2" fill="#1d4ed8"/>
<circle cx="1171.55" cy="148.27" r="3.2" fill="#1d4ed8"/>
<circle cx="1173.66" cy="155.96" r="3.2" fill="#1d4ed8"/>
<circle cx="1175.78" cy="139.78" r="3.2" fill="#1d4ed8"/>
<circle cx="1177.89" cy="135.33" r="3.2" fill="#1d4ed8"/>
<circle cx="1180.00" cy="147.06" r="3.2" fill="#1d4ed8"/>
<text x="635" y="695" text-anchor="middle" font-size="14" fill="#111" font-family="sans-serif">Date</text>
<text x="24" y="325" text-anchor="middle" font-size="14" fill="#111" transform="rotate(-90 24,325)" font-family="sans-serif">Passed files</text>
</svg>
