<?xml version="1.0" encoding="UTF-8"?>
<svg xmlns="http://www.w3.org/2000/svg" width="1280" height="720" viewBox="0 0 1280 720">
<rect width="100%" height="100%" fill="#ffffff"/>
<text x="640" y="30" text-anchor="middle" font-size="22" font-family="sans-serif">Roast passed files history</text>
<line x1="90" y1="600" x2="1180" y2="600" stroke="#333" stroke-width="1.5"/>
<line x1="90" y1="50" x2="90" y2="600" stroke="#333" stroke-width="1.5"/>
<line x1="90" y1="600.00" x2="1180" y2="600.00" stroke="#e5e7eb" stroke-width="1"/>
<text x="78" y="605.00" text-anchor="end" font-size="12" fill="#111" font-family="sans-serif">0</text>
<line x1="90" y1="397.79" x2="1180" y2="397.79" stroke="#e5e7eb" stroke-width="1"/>
<text x="78" y="402.79" text-anchor="end" font-size="12" fill="#111" font-family="sans-serif">500</text>
<line x1="90" y1="195.59" x2="1180" y2="195.59" stroke="#e5e7eb" stroke-width="1"/>
<text x="78" y="200.59" text-anchor="end" font-size="12" fill="#111" font-family="sans-serif">1000</text>
<line x1="90.00" y1="600" x2="90.00" y2="606" stroke="#333" stroke-width="1"/>
<text x="90.00" y="624" text-anchor="end" font-size="11" fill="#111" transform="rotate(-40 90.00,624)" font-family="sans-serif">2026-02-12</text>
<line x1="226.25" y1="600" x2="226.25" y2="606" stroke="#333" stroke-width="1"/>
<text x="226.25" y="624" text-anchor="end" font-size="11" fill="#111" transform="rotate(-40 226.25,624)" font-family="sans-serif">2026-02-18</text>
<line x1="362.50" y1="600" x2="362.50" y2="606" stroke="#333" stroke-width="1"/>
<text x="362.50" y="624" text-anchor="end" font-size="11" fill="#111" transform="rotate(-40 362.50,624)" font-family="sans-serif">2026-02-25</text>
<line x1="498.75" y1="600" x2="498.75" y2="606" stroke="#333" stroke-width="1"/>
<text x="498.75" y="624" text-anchor="end" font-size="11" fill="#111" transform="rotate(-40 498.75,624)" font-family="sans-serif">2026-02-28</text>
<line x1="635.00" y1="600" x2="635.00" y2="606" stroke="#333" stroke-width="1"/>
<text x="635.00" y="624" text-anchor="end" font-size="11" fill="#111" transform="rotate(-40 635.00,624)" font-family="sans-serif">2026-03-06</text>
<line x1="771.25" y1="600" x2="771.25" y2="606" stroke="#333" stroke-width="1"/>
<text x="771.25" y="624" text-anchor="end" font-size="11" fill="#111" transform="rotate(-40 771.25,624)" font-family="sans-serif">2026-03-08</text>
<line x1="907.50" y1="600" x2="907.50" y2="606" stroke="#333" stroke-width="1"/>
<text x="907.50" y="624" text-anchor="end" font-size="11" fill="#111" transform="rotate(-40 907.50,624)" font-family="sans-serif">2026-03-18</text>
<line x1="1043.75" y1="600" x2="1043.75" y2="606" stroke="#333" stroke-width="1"/>
<text x="1043.75" y="624" text-anchor="end" font-size="11" fill="#111" transform="rotate(-40 1043.75,624)" font-family="sans-serif">2026-03-20</text>
<line x1="1180.00" y1="600" x2="1180.00" y2="606" stroke="#333" stroke-width="1"/>
<text x="1180.00" y="624" text-anchor="end" font-size="11" fill="#111" transform="rotate(-40 1180.00,624)" font-family="sans-serif">2026-03-30</text>
<line x1="90" y1="75.88" x2="1180" y2="75.88" stroke="#dc2626" stroke-width="1.5" stroke-dasharray="8,4"/>
<text x="1184" y="79.88" font-size="12" fill="#dc2626" font-family="sans-serif">Goal: 1296</text>
<polyline fill="none" stroke="#2563eb" stroke-width="3" points="90.00,540.55 92.27,538.53 94.54,536.91 96.81,534.49 99.08,534.49 101.35,533.27 103.62,532.46 105.90,532.87 108.17,532.06 110.44,532.46 112.71,532.06 114.98,568.46 117.25,568.46 119.52,566.43 121.79,545.00 124.06,545.00 126.33,544.19 128.60,543.79 130.88,543.79 133.15,543.38 135.42,541.76 137.69,541.36 139.96,540.96 142.23,540.96 144.50,539.34 146.77,539.34 149.04,556.73 151.31,556.73 153.58,555.51 155.85,551.07 158.12,538.93 160.40,538.93 162.67,538.93 164.94,538.12 167.21,536.91 169.48,536.91 171.75,536.51 174.02,536.51 176.29,556.73 178.56,556.73 180.83,556.73 183.10,556.73 185.38,535.29 187.65,535.29 189.92,535.29 192.19,535.29 194.46,534.49 196.73,534.08 199.00,533.68 201.27,532.87 203.54,532.06 205.81,532.06 208.08,531.25 210.35,530.85 212.62,530.44 214.90,530.04 217.17,530.04 219.44,529.23 221.71,529.23 223.98,529.23 226.25,528.42 228.52,528.42 230.79,527.61 233.06,527.21 235.33,526.80 237.60,526.40 239.88,525.18 242.15,523.57 244.42,523.57 246.69,523.16 248.96,522.76 251.23,522.35 253.50,521.54 255.77,519.52 258.04,517.50 260.31,517.50 262.58,517.50 264.85,517.50 267.12,517.50 269.40,517.50 271.67,517.10 273.94,516.69 276.21,515.48 278.48,515.07 280.75,514.67 283.02,513.86 285.29,514.26 287.56,512.24 289.83,511.84 292.10,511.84 294.38,511.03 296.65,509.82 298.92,507.79 301.19,506.99 303.46,506.58 305.73,509.41 308.00,509.01 310.27,504.96 312.54,504.56 314.81,504.15 317.08,504.56 319.35,503.75 321.62,503.75 323.90,503.35 326.17,499.30 328.44,496.47 330.71,490.00 332.98,484.34 335.25,481.10 337.52,480.29 339.79,480.70 342.06,460.88 344.33,459.26 346.60,458.05 348.88,456.03 351.15,456.03 353.42,454.41 355.69,450.77 357.96,444.30 360.23,443.90 362.50,600.00 364.77,441.88 367.04,440.66 369.31,439.45 371.58,439.04 373.85,438.64 376.12,437.83 378.40,436.62 380.67,436.62 382.94,434.60 385.21,432.17 387.48,429.34 389.75,428.93 392.02,428.53 394.29,427.72 396.56,426.91 398.83,426.10 401.10,426.10 403.38,426.10 405.65,419.63 407.92,419.23 410.19,418.42 412.46,418.01 414.73,417.61 417.00,417.61 419.27,417.61 421.54,417.21 423.81,417.21 426.08,413.57 428.35,411.95 430.62,412.76 432.90,410.74 435.17,410.74 437.44,410.33 439.71,410.33 441.98,410.33 444.25,409.93 446.52,409.93 448.79,409.93 451.06,409.52 453.33,409.52 455.60,409.12 457.88,409.52 460.15,409.12 462.42,407.50 464.69,407.10 466.96,403.05 469.23,399.82 471.50,400.22 473.77,400.62 476.04,400.62 478.31,399.41 480.58,392.94 482.85,391.32 485.12,389.30 487.40,389.30 489.67,388.49 491.94,375.15 494.21,374.74 496.48,374.74 498.75,374.74 501.02,374.74 503.29,374.34 505.56,374.34 507.83,374.34 510.10,374.34 512.38,374.34 514.65,373.93 516.92,373.12 519.19,372.72 521.46,373.53 523.73,435.81 526.00,372.32 528.27,372.72 530.54,371.91 532.81,371.91 535.08,372.32 537.35,371.10 539.62,369.89 541.90,369.89 544.17,369.89 546.44,369.49 548.71,369.89 550.98,369.08 553.25,368.68 555.52,368.27 557.79,367.87 560.06,367.06 562.33,367.46 564.60,367.06 566.88,366.25 569.15,368.27 571.42,368.68 573.69,368.68 575.96,368.27 578.23,369.08 580.50,367.87 582.77,367.46 585.04,367.06 587.31,360.18 589.58,359.78 591.85,359.38 594.12,356.95 596.40,357.35 598.67,357.76 600.94,355.33 603.21,355.74 605.48,357.35 607.75,355.33 610.02,356.14 612.29,355.74 614.56,356.14 616.83,354.12 619.10,354.93 621.38,356.14 623.65,354.52 625.92,353.71 628.19,354.12 630.46,354.93 632.73,352.90 635.00,353.71 637.27,353.31 639.54,353.31 641.81,354.52 644.08,352.90 646.35,352.50 648.62,352.50 650.90,353.31 653.17,352.50 655.44,353.71 657.71,354.12 659.98,352.50 662.25,352.90 664.52,352.50 666.79,352.10 669.06,351.69 671.33,352.10 673.60,354.12 675.88,352.50 678.15,352.10 680.42,352.10 682.69,349.67 684.96,349.67 687.23,350.88 689.50,351.29 691.77,350.48 694.04,352.10 696.31,350.48 698.58,350.48 700.85,350.48 703.12,350.07 705.40,348.46 707.67,351.29 709.94,349.67 712.21,351.29 714.48,349.67 716.75,348.86 719.02,348.46 721.29,348.46 723.56,347.24 725.83,348.86 728.10,346.84 730.38,348.46 732.65,348.86 734.92,346.84 737.19,349.26 739.46,348.05 741.73,349.26 744.00,349.26 746.27,350.48 748.54,352.90 750.81,349.67 753.08,348.46 755.35,345.62 757.62,344.82 759.90,344.41 762.17,342.39 764.44,341.18 766.71,341.58 768.98,339.15 771.25,338.35 773.52,337.54 775.79,336.73 778.06,335.92 780.33,337.54 782.60,338.35 784.88,337.54 787.15,337.54 789.42,337.54 791.69,333.09 793.96,333.90 796.23,335.92 798.50,336.73 800.77,335.51 803.04,332.28 805.31,331.47 807.58,331.07 809.85,331.47 812.12,331.07 814.40,331.07 816.67,331.07 818.94,331.07 821.21,331.07 823.48,331.07 825.75,331.07 828.02,331.07 830.29,331.07 832.56,331.07 834.83,331.47 837.10,331.88 839.38,331.07 841.65,331.47 843.92,331.07 846.19,331.47 848.46,331.07 850.73,324.19 853.00,324.19 855.27,318.93 857.54,316.51 859.81,310.44 862.08,308.01 864.35,600.00 866.62,301.54 868.90,290.22 871.17,287.79 873.44,286.18 875.71,285.77 877.98,285.77 880.25,285.77 882.52,286.18 884.79,285.77 887.06,285.77 889.33,285.77 891.60,283.35 893.88,282.94 896.15,282.94 898.42,283.35 900.69,282.94 902.96,282.94 905.23,283.75 907.50,282.13 909.77,282.13 912.04,282.54 914.31,282.13 916.58,282.54 918.85,282.94 921.12,281.73 923.40,282.54 925.67,281.73 927.94,282.54 930.21,282.13 932.48,282.13 934.75,281.73 937.02,281.73 939.29,281.32 941.56,281.73 943.83,282.13 946.10,281.32 948.38,281.32 950.65,282.54 952.92,282.13 955.19,281.32 957.46,281.32 959.73,281.32 962.00,282.54 964.27,282.13 966.54,281.32 968.81,282.13 971.08,281.73 973.35,282.13 975.62,280.11 977.90,280.11 980.17,280.51 982.44,279.71 984.71,280.11 986.98,280.51 989.25,279.71 991.52,280.11 993.79,280.11 996.06,279.30 998.33,278.90 1000.60,278.90 1002.88,280.51 1005.15,279.30 1007.42,278.09 1009.69,278.49 1011.96,278.49 1014.23,277.28 1016.50,277.68 1018.77,277.68 1021.04,278.09 1023.31,277.28 1025.58,600.00 1027.85,278.90 1030.12,279.30 1032.40,278.90 1034.67,278.49 1036.94,278.49 1039.21,278.49 1041.48,278.49 1043.75,278.49 1046.02,278.49 1048.29,278.49 1050.56,278.49 1052.83,278.49 1055.10,278.49 1057.38,278.49 1059.65,278.49 1061.92,600.00 1064.19,600.00 1066.46,254.63 1068.73,600.00 1071.00,245.74 1073.27,245.74 1075.54,246.14 1077.81,245.74 1080.08,245.74 1082.35,245.74 1084.62,245.74 1086.90,245.74 1089.17,240.07 1091.44,238.05 1093.71,238.05 1095.98,227.13 1098.25,227.13 1100.52,226.32 1102.79,227.54 1105.06,226.73 1107.33,226.32 1109.60,227.13 1111.88,227.13 1114.15,226.73 1116.42,226.32 1118.69,226.73 1120.96,226.73 1123.23,226.73 1125.50,225.11 1127.77,224.71 1130.04,225.11 1132.31,224.30 1134.58,226.32 1136.85,224.30 1139.12,225.51 1141.40,225.51 1143.67,225.51 1145.94,225.92 1148.21,223.09 1150.48,223.49 1152.75,223.09 1155.02,223.09 1157.29,223.90 1159.56,223.49 1161.83,223.49 1164.10,223.09 1166.38,223.09 1168.65,223.49 1170.92,223.09 1173.19,223.09 1175.46,223.49 1177.73,223.49 1180.00,223.09"/>
<circle cx="90.00" cy="540.55" r="3.2" fill="#1d4ed8"/>
<circle cx="92.27" cy="538.53" r="3.2" fill="#1d4ed8"/>
<circle cx="94.54" cy="536.91" r="3.2" fill="#1d4ed8"/>
<circle cx="96.81" cy="534.49" r="3.2" fill="#1d4ed8"/>
<circle cx="99.08" cy="534.49" r="3.2" fill="#1d4ed8"/>
<circle cx="101.35" cy="533.27" r="3.2" fill="#1d4ed8"/>
<circle cx="103.62" cy="532.46" r="3.2" fill="#1d4ed8"/>
<circle cx="105.90" cy="532.87" r="3.2" fill="#1d4ed8"/>
<circle cx="108.17" cy="532.06" r="3.2" fill="#1d4ed8"/>
<circle cx="110.44" cy="532.46" r="3.2" fill="#1d4ed8"/>
<circle cx="112.71" cy="532.06" r="3.2" fill="#1d4ed8"/>
<circle cx="114.98" cy="568.46" r="3.2" fill="#1d4ed8"/>
<circle cx="117.25" cy="568.46" r="3.2" fill="#1d4ed8"/>
<circle cx="119.52" cy="566.43" r="3.2" fill="#1d4ed8"/>
<circle cx="121.79" cy="545.00" r="3.2" fill="#1d4ed8"/>
<circle cx="124.06" cy="545.00" r="3.2" fill="#1d4ed8"/>
<circle cx="126.33" cy="544.19" r="3.2" fill="#1d4ed8"/>
<circle cx="128.60" cy="543.79" r="3.2" fill="#1d4ed8"/>
<circle cx="130.88" cy="543.79" r="3.2" fill="#1d4ed8"/>
<circle cx="133.15" cy="543.38" r="3.2" fill="#1d4ed8"/>
<circle cx="135.42" cy="541.76" r="3.2" fill="#1d4ed8"/>
<circle cx="137.69" cy="541.36" r="3.2" fill="#1d4ed8"/>
<circle cx="139.96" cy="540.96" r="3.2" fill="#1d4ed8"/>
<circle cx="142.23" cy="540.96" r="3.2" fill="#1d4ed8"/>
<circle cx="144.50" cy="539.34" r="3.2" fill="#1d4ed8"/>
<circle cx="146.77" cy="539.34" r="3.2" fill="#1d4ed8"/>
<circle cx="149.04" cy="556.73" r="3.2" fill="#1d4ed8"/>
<circle cx="151.31" cy="556.73" r="3.2" fill="#1d4ed8"/>
<circle cx="153.58" cy="555.51" r="3.2" fill="#1d4ed8"/>
<circle cx="155.85" cy="551.07" r="3.2" fill="#1d4ed8"/>
<circle cx="158.12" cy="538.93" r="3.2" fill="#1d4ed8"/>
<circle cx="160.40" cy="538.93" r="3.2" fill="#1d4ed8"/>
<circle cx="162.67" cy="538.93" r="3.2" fill="#1d4ed8"/>
<circle cx="164.94" cy="538.12" r="3.2" fill="#1d4ed8"/>
<circle cx="167.21" cy="536.91" r="3.2" fill="#1d4ed8"/>
<circle cx="169.48" cy="536.91" r="3.2" fill="#1d4ed8"/>
<circle cx="171.75" cy="536.51" r="3.2" fill="#1d4ed8"/>
<circle cx="174.02" cy="536.51" r="3.2" fill="#1d4ed8"/>
<circle cx="176.29" cy="556.73" r="3.2" fill="#1d4ed8"/>
<circle cx="178.56" cy="556.73" r="3.2" fill="#1d4ed8"/>
<circle cx="180.83" cy="556.73" r="3.2" fill="#1d4ed8"/>
<circle cx="183.10" cy="556.73" r="3.2" fill="#1d4ed8"/>
<circle cx="185.38" cy="535.29" r="3.2" fill="#1d4ed8"/>
<circle cx="187.65" cy="535.29" r="3.2" fill="#1d4ed8"/>
<circle cx="189.92" cy="535.29" r="3.2" fill="#1d4ed8"/>
<circle cx="192.19" cy="535.29" r="3.2" fill="#1d4ed8"/>
<circle cx="194.46" cy="534.49" r="3.2" fill="#1d4ed8"/>
<circle cx="196.73" cy="534.08" r="3.2" fill="#1d4ed8"/>
<circle cx="199.00" cy="533.68" r="3.2" fill="#1d4ed8"/>
<circle cx="201.27" cy="532.87" r="3.2" fill="#1d4ed8"/>
<circle cx="203.54" cy="532.06" r="3.2" fill="#1d4ed8"/>
<circle cx="205.81" cy="532.06" r="3.2" fill="#1d4ed8"/>
<circle cx="208.08" cy="531.25" r="3.2" fill="#1d4ed8"/>
<circle cx="210.35" cy="530.85" r="3.2" fill="#1d4ed8"/>
<circle cx="212.62" cy="530.44" r="3.2" fill="#1d4ed8"/>
<circle cx="214.90" cy="530.04" r="3.2" fill="#1d4ed8"/>
<circle cx="217.17" cy="530.04" r="3.2" fill="#1d4ed8"/>
<circle cx="219.44" cy="529.23" r="3.2" fill="#1d4ed8"/>
<circle cx="221.71" cy="529.23" r="3.2" fill="#1d4ed8"/>
<circle cx="223.98" cy="529.23" r="3.2" fill="#1d4ed8"/>
<circle cx="226.25" cy="528.42" r="3.2" fill="#1d4ed8"/>
<circle cx="228.52" cy="528.42" r="3.2" fill="#1d4ed8"/>
<circle cx="230.79" cy="527.61" r="3.2" fill="#1d4ed8"/>
<circle cx="233.06" cy="527.21" r="3.2" fill="#1d4ed8"/>
<circle cx="235.33" cy="526.80" r="3.2" fill="#1d4ed8"/>
<circle cx="237.60" cy="526.40" r="3.2" fill="#1d4ed8"/>
<circle cx="239.88" cy="525.18" r="3.2" fill="#1d4ed8"/>
<circle cx="242.15" cy="523.57" r="3.2" fill="#1d4ed8"/>
<circle cx="244.42" cy="523.57" r="3.2" fill="#1d4ed8"/>
<circle cx="246.69" cy="523.16" r="3.2" fill="#1d4ed8"/>
<circle cx="248.96" cy="522.76" r="3.2" fill="#1d4ed8"/>
<circle cx="251.23" cy="522.35" r="3.2" fill="#1d4ed8"/>
<circle cx="253.50" cy="521.54" r="3.2" fill="#1d4ed8"/>
<circle cx="255.77" cy="519.52" r="3.2" fill="#1d4ed8"/>
<circle cx="258.04" cy="517.50" r="3.2" fill="#1d4ed8"/>
<circle cx="260.31" cy="517.50" r="3.2" fill="#1d4ed8"/>
<circle cx="262.58" cy="517.50" r="3.2" fill="#1d4ed8"/>
<circle cx="264.85" cy="517.50" r="3.2" fill="#1d4ed8"/>
<circle cx="267.12" cy="517.50" r="3.2" fill="#1d4ed8"/>
<circle cx="269.40" cy="517.50" r="3.2" fill="#1d4ed8"/>
<circle cx="271.67" cy="517.10" r="3.2" fill="#1d4ed8"/>
<circle cx="273.94" cy="516.69" r="3.2" fill="#1d4ed8"/>
<circle cx="276.21" cy="515.48" r="3.2" fill="#1d4ed8"/>
<circle cx="278.48" cy="515.07" r="3.2" fill="#1d4ed8"/>
<circle cx="280.75" cy="514.67" r="3.2" fill="#1d4ed8"/>
<circle cx="283.02" cy="513.86" r="3.2" fill="#1d4ed8"/>
<circle cx="285.29" cy="514.26" r="3.2" fill="#1d4ed8"/>
<circle cx="287.56" cy="512.24" r="3.2" fill="#1d4ed8"/>
<circle cx="289.83" cy="511.84" r="3.2" fill="#1d4ed8"/>
<circle cx="292.10" cy="511.84" r="3.2" fill="#1d4ed8"/>
<circle cx="294.38" cy="511.03" r="3.2" fill="#1d4ed8"/>
<circle cx="296.65" cy="509.82" r="3.2" fill="#1d4ed8"/>
<circle cx="298.92" cy="507.79" r="3.2" fill="#1d4ed8"/>
<circle cx="301.19" cy="506.99" r="3.2" fill="#1d4ed8"/>
<circle cx="303.46" cy="506.58" r="3.2" fill="#1d4ed8"/>
<circle cx="305.73" cy="509.41" r="3.2" fill="#1d4ed8"/>
<circle cx="308.00" cy="509.01" r="3.2" fill="#1d4ed8"/>
<circle cx="310.27" cy="504.96" r="3.2" fill="#1d4ed8"/>
<circle cx="312.54" cy="504.56" r="3.2" fill="#1d4ed8"/>
<circle cx="314.81" cy="504.15" r="3.2" fill="#1d4ed8"/>
<circle cx="317.08" cy="504.56" r="3.2" fill="#1d4ed8"/>
<circle cx="319.35" cy="503.75" r="3.2" fill="#1d4ed8"/>
<circle cx="321.62" cy="503.75" r="3.2" fill="#1d4ed8"/>
<circle cx="323.90" cy="503.35" r="3.2" fill="#1d4ed8"/>
<circle cx="326.17" cy="499.30" r="3.2" fill="#1d4ed8"/>
<circle cx="328.44" cy="496.47" r="3.2" fill="#1d4ed8"/>
<circle cx="330.71" cy="490.00" r="3.2" fill="#1d4ed8"/>
<circle cx="332.98" cy="484.34" r="3.2" fill="#1d4ed8"/>
<circle cx="335.25" cy="481.10" r="3.2" fill="#1d4ed8"/>
<circle cx="337.52" cy="480.29" r="3.2" fill="#1d4ed8"/>
<circle cx="339.79" cy="480.70" r="3.2" fill="#1d4ed8"/>
<circle cx="342.06" cy="460.88" r="3.2" fill="#1d4ed8"/>
<circle cx="344.33" cy="459.26" r="3.2" fill="#1d4ed8"/>
<circle cx="346.60" cy="458.05" r="3.2" fill="#1d4ed8"/>
<circle cx="348.88" cy="456.03" r="3.2" fill="#1d4ed8"/>
<circle cx="351.15" cy="456.03" r="3.2" fill="#1d4ed8"/>
<circle cx="353.42" cy="454.41" r="3.2" fill="#1d4ed8"/>
<circle cx="355.69" cy="450.77" r="3.2" fill="#1d4ed8"/>
<circle cx="357.96" cy="444.30" r="3.2" fill="#1d4ed8"/>
<circle cx="360.23" cy="443.90" r="3.2" fill="#1d4ed8"/>
<circle cx="362.50" cy="600.00" r="3.2" fill="#1d4ed8"/>
<circle cx="364.77" cy="441.88" r="3.2" fill="#1d4ed8"/>
<circle cx="367.04" cy="440.66" r="3.2" fill="#1d4ed8"/>
<circle cx="369.31" cy="439.45" r="3.2" fill="#1d4ed8"/>
<circle cx="371.58" cy="439.04" r="3.2" fill="#1d4ed8"/>
<circle cx="373.85" cy="438.64" r="3.2" fill="#1d4ed8"/>
<circle cx="376.12" cy="437.83" r="3.2" fill="#1d4ed8"/>
<circle cx="378.40" cy="436.62" r="3.2" fill="#1d4ed8"/>
<circle cx="380.67" cy="436.62" r="3.2" fill="#1d4ed8"/>
<circle cx="382.94" cy="434.60" r="3.2" fill="#1d4ed8"/>
<circle cx="385.21" cy="432.17" r="3.2" fill="#1d4ed8"/>
<circle cx="387.48" cy="429.34" r="3.2" fill="#1d4ed8"/>
<circle cx="389.75" cy="428.93" r="3.2" fill="#1d4ed8"/>
<circle cx="392.02" cy="428.53" r="3.2" fill="#1d4ed8"/>
<circle cx="394.29" cy="427.72" r="3.2" fill="#1d4ed8"/>
<circle cx="396.56" cy="426.91" r="3.2" fill="#1d4ed8"/>
<circle cx="398.83" cy="426.10" r="3.2" fill="#1d4ed8"/>
<circle cx="401.10" cy="426.10" r="3.2" fill="#1d4ed8"/>
<circle cx="403.38" cy="426.10" r="3.2" fill="#1d4ed8"/>
<circle cx="405.65" cy="419.63" r="3.2" fill="#1d4ed8"/>
<circle cx="407.92" cy="419.23" r="3.2" fill="#1d4ed8"/>
<circle cx="410.19" cy="418.42" r="3.2" fill="#1d4ed8"/>
<circle cx="412.46" cy="418.01" r="3.2" fill="#1d4ed8"/>
<circle cx="414.73" cy="417.61" r="3.2" fill="#1d4ed8"/>
<circle cx="417.00" cy="417.61" r="3.2" fill="#1d4ed8"/>
<circle cx="419.27" cy="417.61" r="3.2" fill="#1d4ed8"/>
<circle cx="421.54" cy="417.21" r="3.2" fill="#1d4ed8"/>
<circle cx="423.81" cy="417.21" r="3.2" fill="#1d4ed8"/>
<circle cx="426.08" cy="413.57" r="3.2" fill="#1d4ed8"/>
<circle cx="428.35" cy="411.95" r="3.2" fill="#1d4ed8"/>
<circle cx="430.62" cy="412.76" r="3.2" fill="#1d4ed8"/>
<circle cx="432.90" cy="410.74" r="3.2" fill="#1d4ed8"/>
<circle cx="435.17" cy="410.74" r="3.2" fill="#1d4ed8"/>
<circle cx="437.44" cy="410.33" r="3.2" fill="#1d4ed8"/>
<circle cx="439.71" cy="410.33" r="3.2" fill="#1d4ed8"/>
<circle cx="441.98" cy="410.33" r="3.2" fill="#1d4ed8"/>
<circle cx="444.25" cy="409.93" r="3.2" fill="#1d4ed8"/>
<circle cx="446.52" cy="409.93" r="3.2" fill="#1d4ed8"/>
<circle cx="448.79" cy="409.93" r="3.2" fill="#1d4ed8"/>
<circle cx="451.06" cy="409.52" r="3.2" fill="#1d4ed8"/>
<circle cx="453.33" cy="409.52" r="3.2" fill="#1d4ed8"/>
<circle cx="455.60" cy="409.12" r="3.2" fill="#1d4ed8"/>
<circle cx="457.88" cy="409.52" r="3.2" fill="#1d4ed8"/>
<circle cx="460.15" cy="409.12" r="3.2" fill="#1d4ed8"/>
<circle cx="462.42" cy="407.50" r="3.2" fill="#1d4ed8"/>
<circle cx="464.69" cy="407.10" r="3.2" fill="#1d4ed8"/>
<circle cx="466.96" cy="403.05" r="3.2" fill="#1d4ed8"/>
<circle cx="469.23" cy="399.82" r="3.2" fill="#1d4ed8"/>
<circle cx="471.50" cy="400.22" r="3.2" fill="#1d4ed8"/>
<circle cx="473.77" cy="400.62" r="3.2" fill="#1d4ed8"/>
<circle cx="476.04" cy="400.62" r="3.2" fill="#1d4ed8"/>
<circle cx="478.31" cy="399.41" r="3.2" fill="#1d4ed8"/>
<circle cx="480.58" cy="392.94" r="3.2" fill="#1d4ed8"/>
<circle cx="482.85" cy="391.32" r="3.2" fill="#1d4ed8"/>
<circle cx="485.12" cy="389.30" r="3.2" fill="#1d4ed8"/>
<circle cx="487.40" cy="389.30" r="3.2" fill="#1d4ed8"/>
<circle cx="489.67" cy="388.49" r="3.2" fill="#1d4ed8"/>
<circle cx="491.94" cy="375.15" r="3.2" fill="#1d4ed8"/>
<circle cx="494.21" cy="374.74" r="3.2" fill="#1d4ed8"/>
<circle cx="496.48" cy="374.74" r="3.2" fill="#1d4ed8"/>
<circle cx="498.75" cy="374.74" r="3.2" fill="#1d4ed8"/>
<circle cx="501.02" cy="374.74" r="3.2" fill="#1d4ed8"/>
<circle cx="503.29" cy="374.34" r="3.2" fill="#1d4ed8"/>
<circle cx="505.56" cy="374.34" r="3.2" fill="#1d4ed8"/>
<circle cx="507.83" cy="374.34" r="3.2" fill="#1d4ed8"/>
<circle cx="510.10" cy="374.34" r="3.2" fill="#1d4ed8"/>
<circle cx="512.38" cy="374.34" r="3.2" fill="#1d4ed8"/>
<circle cx="514.65" cy="373.93" r="3.2" fill="#1d4ed8"/>
<circle cx="516.92" cy="373.12" r="3.2" fill="#1d4ed8"/>
<circle cx="519.19" cy="372.72" r="3.2" fill="#1d4ed8"/>
<circle cx="521.46" cy="373.53" r="3.2" fill="#1d4ed8"/>
<circle cx="523.73" cy="435.81" r="3.2" fill="#1d4ed8"/>
<circle cx="526.00" cy="372.32" r="3.2" fill="#1d4ed8"/>
<circle cx="528.27" cy="372.72" r="3.2" fill="#1d4ed8"/>
<circle cx="530.54" cy="371.91" r="3.2" fill="#1d4ed8"/>
<circle cx="532.81" cy="371.91" r="3.2" fill="#1d4ed8"/>
<circle cx="535.08" cy="372.32" r="3.2" fill="#1d4ed8"/>
<circle cx="537.35" cy="371.10" r="3.2" fill="#1d4ed8"/>
<circle cx="539.62" cy="369.89" r="3.2" fill="#1d4ed8"/>
<circle cx="541.90" cy="369.89" r="3.2" fill="#1d4ed8"/>
<circle cx="544.17" cy="369.89" r="3.2" fill="#1d4ed8"/>
<circle cx="546.44" cy="369.49" r="3.2" fill="#1d4ed8"/>
<circle cx="548.71" cy="369.89" r="3.2" fill="#1d4ed8"/>
<circle cx="550.98" cy="369.08" r="3.2" fill="#1d4ed8"/>
<circle cx="553.25" cy="368.68" r="3.2" fill="#1d4ed8"/>
<circle cx="555.52" cy="368.27" r="3.2" fill="#1d4ed8"/>
<circle cx="557.79" cy="367.87" r="3.2" fill="#1d4ed8"/>
<circle cx="560.06" cy="367.06" r="3.2" fill="#1d4ed8"/>
<circle cx="562.33" cy="367.46" r="3.2" fill="#1d4ed8"/>
<circle cx="564.60" cy="367.06" r="3.2" fill="#1d4ed8"/>
<circle cx="566.88" cy="366.25" r="3.2" fill="#1d4ed8"/>
<circle cx="569.15" cy="368.27" r="3.2" fill="#1d4ed8"/>
<circle cx="571.42" cy="368.68" r="3.2" fill="#1d4ed8"/>
<circle cx="573.69" cy="368.68" r="3.2" fill="#1d4ed8"/>
<circle cx="575.96" cy="368.27" r="3.2" fill="#1d4ed8"/>
<circle cx="578.23" cy="369.08" r="3.2" fill="#1d4ed8"/>
<circle cx="580.50" cy="367.87" r="3.2" fill="#1d4ed8"/>
<circle cx="582.77" cy="367.46" r="3.2" fill="#1d4ed8"/>
<circle cx="585.04" cy="367.06" r="3.2" fill="#1d4ed8"/>
<circle cx="587.31" cy="360.18" r="3.2" fill="#1d4ed8"/>
<circle cx="589.58" cy="359.78" r="3.2" fill="#1d4ed8"/>
<circle cx="591.85" cy="359.38" r="3.2" fill="#1d4ed8"/>
<circle cx="594.12" cy="356.95" r="3.2" fill="#1d4ed8"/>
<circle cx="596.40" cy="357.35" r="3.2" fill="#1d4ed8"/>
<circle cx="598.67" cy="357.76" r="3.2" fill="#1d4ed8"/>
<circle cx="600.94" cy="355.33" r="3.2" fill="#1d4ed8"/>
<circle cx="603.21" cy="355.74" r="3.2" fill="#1d4ed8"/>
<circle cx="605.48" cy="357.35" r="3.2" fill="#1d4ed8"/>
<circle cx="607.75" cy="355.33" r="3.2" fill="#1d4ed8"/>
<circle cx="610.02" cy="356.14" r="3.2" fill="#1d4ed8"/>
<circle cx="612.29" cy="355.74" r="3.2" fill="#1d4ed8"/>
<circle cx="614.56" cy="356.14" r="3.2" fill="#1d4ed8"/>
<circle cx="616.83" cy="354.12" r="3.2" fill="#1d4ed8"/>
<circle cx="619.10" cy="354.93" r="3.2" fill="#1d4ed8"/>
<circle cx="621.38" cy="356.14" r="3.2" fill="#1d4ed8"/>
<circle cx="623.65" cy="354.52" r="3.2" fill="#1d4ed8"/>
<circle cx="625.92" cy="353.71" r="3.2" fill="#1d4ed8"/>
<circle cx="628.19" cy="354.12" r="3.2" fill="#1d4ed8"/>
<circle cx="630.46" cy="354.93" r="3.2" fill="#1d4ed8"/>
<circle cx="632.73" cy="352.90" r="3.2" fill="#1d4ed8"/>
<circle cx="635.00" cy="353.71" r="3.2" fill="#1d4ed8"/>
<circle cx="637.27" cy="353.31" r="3.2" fill="#1d4ed8"/>
<circle cx="639.54" cy="353.31" r="3.2" fill="#1d4ed8"/>
<circle cx="641.81" cy="354.52" r="3.2" fill="#1d4ed8"/>
<circle cx="644.08" cy="352.90" r="3.2" fill="#1d4ed8"/>
<circle cx="646.35" cy="352.50" r="3.2" fill="#1d4ed8"/>
<circle cx="648.62" cy="352.50" r="3.2" fill="#1d4ed8"/>
<circle cx="650.90" cy="353.31" r="3.2" fill="#1d4ed8"/>
<circle cx="653.17" cy="352.50" r="3.2" fill="#1d4ed8"/>
<circle cx="655.44" cy="353.71" r="3.2" fill="#1d4ed8"/>
<circle cx="657.71" cy="354.12" r="3.2" fill="#1d4ed8"/>
<circle cx="659.98" cy="352.50" r="3.2" fill="#1d4ed8"/>
<circle cx="662.25" cy="352.90" r="3.2" fill="#1d4ed8"/>
<circle cx="664.52" cy="352.50" r="3.2" fill="#1d4ed8"/>
<circle cx="666.79" cy="352.10" r="3.2" fill="#1d4ed8"/>
<circle cx="669.06" cy="351.69" r="3.2" fill="#1d4ed8"/>
<circle cx="671.33" cy="352.10" r="3.2" fill="#1d4ed8"/>
<circle cx="673.60" cy="354.12" r="3.2" fill="#1d4ed8"/>
<circle cx="675.88" cy="352.50" r="3.2" fill="#1d4ed8"/>
<circle cx="678.15" cy="352.10" r="3.2" fill="#1d4ed8"/>
<circle cx="680.42" cy="352.10" r="3.2" fill="#1d4ed8"/>
<circle cx="682.69" cy="349.67" r="3.2" fill="#1d4ed8"/>
<circle cx="684.96" cy="349.67" r="3.2" fill="#1d4ed8"/>
<circle cx="687.23" cy="350.88" r="3.2" fill="#1d4ed8"/>
<circle cx="689.50" cy="351.29" r="3.2" fill="#1d4ed8"/>
<circle cx="691.77" cy="350.48" r="3.2" fill="#1d4ed8"/>
<circle cx="694.04" cy="352.10" r="3.2" fill="#1d4ed8"/>
<circle cx="696.31" cy="350.48" r="3.2" fill="#1d4ed8"/>
<circle cx="698.58" cy="350.48" r="3.2" fill="#1d4ed8"/>
<circle cx="700.85" cy="350.48" r="3.2" fill="#1d4ed8"/>
<circle cx="703.12" cy="350.07" r="3.2" fill="#1d4ed8"/>
<circle cx="705.40" cy="348.46" r="3.2" fill="#1d4ed8"/>
<circle cx="707.67" cy="351.29" r="3.2" fill="#1d4ed8"/>
<circle cx="709.94" cy="349.67" r="3.2" fill="#1d4ed8"/>
<circle cx="712.21" cy="351.29" r="3.2" fill="#1d4ed8"/>
<circle cx="714.48" cy="349.67" r="3.2" fill="#1d4ed8"/>
<circle cx="716.75" cy="348.86" r="3.2" fill="#1d4ed8"/>
<circle cx="719.02" cy="348.46" r="3.2" fill="#1d4ed8"/>
<circle cx="721.29" cy="348.46" r="3.2" fill="#1d4ed8"/>
<circle cx="723.56" cy="347.24" r="3.2" fill="#1d4ed8"/>
<circle cx="725.83" cy="348.86" r="3.2" fill="#1d4ed8"/>
<circle cx="728.10" cy="346.84" r="3.2" fill="#1d4ed8"/>
<circle cx="730.38" cy="348.46" r="3.2" fill="#1d4ed8"/>
<circle cx="732.65" cy="348.86" r="3.2" fill="#1d4ed8"/>
<circle cx="734.92" cy="346.84" r="3.2" fill="#1d4ed8"/>
<circle cx="737.19" cy="349.26" r="3.2" fill="#1d4ed8"/>
<circle cx="739.46" cy="348.05" r="3.2" fill="#1d4ed8"/>
<circle cx="741.73" cy="349.26" r="3.2" fill="#1d4ed8"/>
<circle cx="744.00" cy="349.26" r="3.2" fill="#1d4ed8"/>
<circle cx="746.27" cy="350.48" r="3.2" fill="#1d4ed8"/>
<circle cx="748.54" cy="352.90" r="3.2" fill="#1d4ed8"/>
<circle cx="750.81" cy="349.67" r="3.2" fill="#1d4ed8"/>
<circle cx="753.08" cy="348.46" r="3.2" fill="#1d4ed8"/>
<circle cx="755.35" cy="345.62" r="3.2" fill="#1d4ed8"/>
<circle cx="757.62" cy="344.82" r="3.2" fill="#1d4ed8"/>
<circle cx="759.90" cy="344.41" r="3.2" fill="#1d4ed8"/>
<circle cx="762.17" cy="342.39" r="3.2" fill="#1d4ed8"/>
<circle cx="764.44" cy="341.18" r="3.2" fill="#1d4ed8"/>
<circle cx="766.71" cy="341.58" r="3.2" fill="#1d4ed8"/>
<circle cx="768.98" cy="339.15" r="3.2" fill="#1d4ed8"/>
<circle cx="771.25" cy="338.35" r="3.2" fill="#1d4ed8"/>
<circle cx="773.52" cy="337.54" r="3.2" fill="#1d4ed8"/>
<circle cx="775.79" cy="336.73" r="3.2" fill="#1d4ed8"/>
<circle cx="778.06" cy="335.92" r="3.2" fill="#1d4ed8"/>
<circle cx="780.33" cy="337.54" r="3.2" fill="#1d4ed8"/>
<circle cx="782.60" cy="338.35" r="3.2" fill="#1d4ed8"/>
<circle cx="784.88" cy="337.54" r="3.2" fill="#1d4ed8"/>
<circle cx="787.15" cy="337.54" r="3.2" fill="#1d4ed8"/>
<circle cx="789.42" cy="337.54" r="3.2" fill="#1d4ed8"/>
<circle cx="791.69" cy="333.09" r="3.2" fill="#1d4ed8"/>
<circle cx="793.96" cy="333.90" r="3.2" fill="#1d4ed8"/>
<circle cx="796.23" cy="335.92" r="3.2" fill="#1d4ed8"/>
<circle cx="798.50" cy="336.73" r="3.2" fill="#1d4ed8"/>
<circle cx="800.77" cy="335.51" r="3.2" fill="#1d4ed8"/>
<circle cx="803.04" cy="332.28" r="3.2" fill="#1d4ed8"/>
<circle cx="805.31" cy="331.47" r="3.2" fill="#1d4ed8"/>
<circle cx="807.58" cy="331.07" r="3.2" fill="#1d4ed8"/>
<circle cx="809.85" cy="331.47" r="3.2" fill="#1d4ed8"/>
<circle cx="812.12" cy="331.07" r="3.2" fill="#1d4ed8"/>
<circle cx="814.40" cy="331.07" r="3.2" fill="#1d4ed8"/>
<circle cx="816.67" cy="331.07" r="3.2" fill="#1d4ed8"/>
<circle cx="818.94" cy="331.07" r="3.2" fill="#1d4ed8"/>
<circle cx="821.21" cy="331.07" r="3.2" fill="#1d4ed8"/>
<circle cx="823.48" cy="331.07" r="3.2" fill="#1d4ed8"/>
<circle cx="825.75" cy="331.07" r="3.2" fill="#1d4ed8"/>
<circle cx="828.02" cy="331.07" r="3.2" fill="#1d4ed8"/>
<circle cx="830.29" cy="331.07" r="3.2" fill="#1d4ed8"/>
<circle cx="832.56" cy="331.07" r="3.2" fill="#1d4ed8"/>
<circle cx="834.83" cy="331.47" r="3.2" fill="#1d4ed8"/>
<circle cx="837.10" cy="331.88" r="3.2" fill="#1d4ed8"/>
<circle cx="839.38" cy="331.07" r="3.2" fill="#1d4ed8"/>
<circle cx="841.65" cy="331.47" r="3.2" fill="#1d4ed8"/>
<circle cx="843.92" cy="331.07" r="3.2" fill="#1d4ed8"/>
<circle cx="846.19" cy="331.47" r="3.2" fill="#1d4ed8"/>
<circle cx="848.46" cy="331.07" r="3.2" fill="#1d4ed8"/>
<circle cx="850.73" cy="324.19" r="3.2" fill="#1d4ed8"/>
<circle cx="853.00" cy="324.19" r="3.2" fill="#1d4ed8"/>
<circle cx="855.27" cy="318.93" r="3.2" fill="#1d4ed8"/>
<circle cx="857.54" cy="316.51" r="3.2" fill="#1d4ed8"/>
<circle cx="859.81" cy="310.44" r="3.2" fill="#1d4ed8"/>
<circle cx="862.08" cy="308.01" r="3.2" fill="#1d4ed8"/>
<circle cx="864.35" cy="600.00" r="3.2" fill="#1d4ed8"/>
<circle cx="866.62" cy="301.54" r="3.2" fill="#1d4ed8"/>
<circle cx="868.90" cy="290.22" r="3.2" fill="#1d4ed8"/>
<circle cx="871.17" cy="287.79" r="3.2" fill="#1d4ed8"/>
<circle cx="873.44" cy="286.18" r="3.2" fill="#1d4ed8"/>
<circle cx="875.71" cy="285.77" r="3.2" fill="#1d4ed8"/>
<circle cx="877.98" cy="285.77" r="3.2" fill="#1d4ed8"/>
<circle cx="880.25" cy="285.77" r="3.2" fill="#1d4ed8"/>
<circle cx="882.52" cy="286.18" r="3.2" fill="#1d4ed8"/>
<circle cx="884.79" cy="285.77" r="3.2" fill="#1d4ed8"/>
<circle cx="887.06" cy="285.77" r="3.2" fill="#1d4ed8"/>
<circle cx="889.33" cy="285.77" r="3.2" fill="#1d4ed8"/>
<circle cx="891.60" cy="283.35" r="3.2" fill="#1d4ed8"/>
<circle cx="893.88" cy="282.94" r="3.2" fill="#1d4ed8"/>
<circle cx="896.15" cy="282.94" r="3.2" fill="#1d4ed8"/>
<circle cx="898.42" cy="283.35" r="3.2" fill="#1d4ed8"/>
<circle cx="900.69" cy="282.94" r="3.2" fill="#1d4ed8"/>
<circle cx="902.96" cy="282.94" r="3.2" fill="#1d4ed8"/>
<circle cx="905.23" cy="283.75" r="3.2" fill="#1d4ed8"/>
<circle cx="907.50" cy="282.13" r="3.2" fill="#1d4ed8"/>
<circle cx="909.77" cy="282.13" r="3.2" fill="#1d4ed8"/>
<circle cx="912.04" cy="282.54" r="3.2" fill="#1d4ed8"/>
<circle cx="914.31" cy="282.13" r="3.2" fill="#1d4ed8"/>
<circle cx="916.58" cy="282.54" r="3.2" fill="#1d4ed8"/>
<circle cx="918.85" cy="282.94" r="3.2" fill="#1d4ed8"/>
<circle cx="921.12" cy="281.73" r="3.2" fill="#1d4ed8"/>
<circle cx="923.40" cy="282.54" r="3.2" fill="#1d4ed8"/>
<circle cx="925.67" cy="281.73" r="3.2" fill="#1d4ed8"/>
<circle cx="927.94" cy="282.54" r="3.2" fill="#1d4ed8"/>
<circle cx="930.21" cy="282.13" r="3.2" fill="#1d4ed8"/>
<circle cx="932.48" cy="282.13" r="3.2" fill="#1d4ed8"/>
<circle cx="934.75" cy="281.73" r="3.2" fill="#1d4ed8"/>
<circle cx="937.02" cy="281.73" r="3.2" fill="#1d4ed8"/>
<circle cx="939.29" cy="281.32" r="3.2" fill="#1d4ed8"/>
<circle cx="941.56" cy="281.73" r="3.2" fill="#1d4ed8"/>
<circle cx="943.83" cy="282.13" r="3.2" fill="#1d4ed8"/>
<circle cx="946.10" cy="281.32" r="3.2" fill="#1d4ed8"/>
<circle cx="948.38" cy="281.32" r="3.2" fill="#1d4ed8"/>
<circle cx="950.65" cy="282.54" r="3.2" fill="#1d4ed8"/>
<circle cx="952.92" cy="282.13" r="3.2" fill="#1d4ed8"/>
<circle cx="955.19" cy="281.32" r="3.2" fill="#1d4ed8"/>
<circle cx="957.46" cy="281.32" r="3.2" fill="#1d4ed8"/>
<circle cx="959.73" cy="281.32" r="3.2" fill="#1d4ed8"/>
<circle cx="962.00" cy="282.54" r="3.2" fill="#1d4ed8"/>
<circle cx="964.27" cy="282.13" r="3.2" fill="#1d4ed8"/>
<circle cx="966.54" cy="281.32" r="3.2" fill="#1d4ed8"/>
<circle cx="968.81" cy="282.13" r="3.2" fill="#1d4ed8"/>
<circle cx="971.08" cy="281.73" r="3.2" fill="#1d4ed8"/>
<circle cx="973.35" cy="282.13" r="3.2" fill="#1d4ed8"/>
<circle cx="975.62" cy="280.11" r="3.2" fill="#1d4ed8"/>
<circle cx="977.90" cy="280.11" r="3.2" fill="#1d4ed8"/>
<circle cx="980.17" cy="280.51" r="3.2" fill="#1d4ed8"/>
<circle cx="982.44" cy="279.71" r="3.2" fill="#1d4ed8"/>
<circle cx="984.71" cy="280.11" r="3.2" fill="#1d4ed8"/>
<circle cx="986.98" cy="280.51" r="3.2" fill="#1d4ed8"/>
<circle cx="989.25" cy="279.71" r="3.2" fill="#1d4ed8"/>
<circle cx="991.52" cy="280.11" r="3.2" fill="#1d4ed8"/>
<circle cx="993.79" cy="280.11" r="3.2" fill="#1d4ed8"/>
<circle cx="996.06" cy="279.30" r="3.2" fill="#1d4ed8"/>
<circle cx="998.33" cy="278.90" r="3.2" fill="#1d4ed8"/>
<circle cx="1000.60" cy="278.90" r="3.2" fill="#1d4ed8"/>
<circle cx="1002.88" cy="280.51" r="3.2" fill="#1d4ed8"/>
<circle cx="1005.15" cy="279.30" r="3.2" fill="#1d4ed8"/>
<circle cx="1007.42" cy="278.09" r="3.2" fill="#1d4ed8"/>
<circle cx="1009.69" cy="278.49" r="3.2" fill="#1d4ed8"/>
<circle cx="1011.96" cy="278.49" r="3.2" fill="#1d4ed8"/>
<circle cx="1014.23" cy="277.28" r="3.2" fill="#1d4ed8"/>
<circle cx="1016.50" cy="277.68" r="3.2" fill="#1d4ed8"/>
<circle cx="1018.77" cy="277.68" r="3.2" fill="#1d4ed8"/>
<circle cx="1021.04" cy="278.09" r="3.2" fill="#1d4ed8"/>
<circle cx="1023.31" cy="277.28" r="3.2" fill="#1d4ed8"/>
<circle cx="1025.58" cy="600.00" r="3.2" fill="#1d4ed8"/>
<circle cx="1027.85" cy="278.90" r="3.2" fill="#1d4ed8"/>
<circle cx="1030.12" cy="279.30" r="3.2" fill="#1d4ed8"/>
<circle cx="1032.40" cy="278.90" r="3.2" fill="#1d4ed8"/>
<circle cx="1034.67" cy="278.49" r="3.2" fill="#1d4ed8"/>
<circle cx="1036.94" cy="278.49" r="3.2" fill="#1d4ed8"/>
<circle cx="1039.21" cy="278.49" r="3.2" fill="#1d4ed8"/>
<circle cx="1041.48" cy="278.49" r="3.2" fill="#1d4ed8"/>
<circle cx="1043.75" cy="278.49" r="3.2" fill="#1d4ed8"/>
<circle cx="1046.02" cy="278.49" r="3.2" fill="#1d4ed8"/>
<circle cx="1048.29" cy="278.49" r="3.2" fill="#1d4ed8"/>
<circle cx="1050.56" cy="278.49" r="3.2" fill="#1d4ed8"/>
<circle cx="1052.83" cy="278.49" r="3.2" fill="#1d4ed8"/>
<circle cx="1055.10" cy="278.49" r="3.2" fill="#1d4ed8"/>
<circle cx="1057.38" cy="278.49" r="3.2" fill="#1d4ed8"/>
<circle cx="1059.65" cy="278.49" r="3.2" fill="#1d4ed8"/>
<circle cx="1061.92" cy="600.00" r="3.2" fill="#1d4ed8"/>
<circle cx="1064.19" cy="600.00" r="3.2" fill="#1d4ed8"/>
<circle cx="1066.46" cy="254.63" r="3.2" fill="#1d4ed8"/>
<circle cx="1068.73" cy="600.00" r="3.2" fill="#1d4ed8"/>
<circle cx="1071.00" cy="245.74" r="3.2" fill="#1d4ed8"/>
<circle cx="1073.27" cy="245.74" r="3.2" fill="#1d4ed8"/>
<circle cx="1075.54" cy="246.14" r="3.2" fill="#1d4ed8"/>
<circle cx="1077.81" cy="245.74" r="3.2" fill="#1d4ed8"/>
<circle cx="1080.08" cy="245.74" r="3.2" fill="#1d4ed8"/>
<circle cx="1082.35" cy="245.74" r="3.2" fill="#1d4ed8"/>
<circle cx="1084.62" cy="245.74" r="3.2" fill="#1d4ed8"/>
<circle cx="1086.90" cy="245.74" r="3.2" fill="#1d4ed8"/>
<circle cx="1089.17" cy="240.07" r="3.2" fill="#1d4ed8"/>
<circle cx="1091.44" cy="238.05" r="3.2" fill="#1d4ed8"/>
<circle cx="1093.71" cy="238.05" r="3.2" fill="#1d4ed8"/>
<circle cx="1095.98" cy="227.13" r="3.2" fill="#1d4ed8"/>
<circle cx="1098.25" cy="227.13" r="3.2" fill="#1d4ed8"/>
<circle cx="1100.52" cy="226.32" r="3.2" fill="#1d4ed8"/>
<circle cx="1102.79" cy="227.54" r="3.2" fill="#1d4ed8"/>
<circle cx="1105.06" cy="226.73" r="3.2" fill="#1d4ed8"/>
<circle cx="1107.33" cy="226.32" r="3.2" fill="#1d4ed8"/>
<circle cx="1109.60" cy="227.13" r="3.2" fill="#1d4ed8"/>
<circle cx="1111.88" cy="227.13" r="3.2" fill="#1d4ed8"/>
<circle cx="1114.15" cy="226.73" r="3.2" fill="#1d4ed8"/>
<circle cx="1116.42" cy="226.32" r="3.2" fill="#1d4ed8"/>
<circle cx="1118.69" cy="226.73" r="3.2" fill="#1d4ed8"/>
<circle cx="1120.96" cy="226.73" r="3.2" fill="#1d4ed8"/>
<circle cx="1123.23" cy="226.73" r="3.2" fill="#1d4ed8"/>
<circle cx="1125.50" cy="225.11" r="3.2" fill="#1d4ed8"/>
<circle cx="1127.77" cy="224.71" r="3.2" fill="#1d4ed8"/>
<circle cx="1130.04" cy="225.11" r="3.2" fill="#1d4ed8"/>
<circle cx="1132.31" cy="224.30" r="3.2" fill="#1d4ed8"/>
<circle cx="1134.58" cy="226.32" r="3.2" fill="#1d4ed8"/>
<circle cx="1136.85" cy="224.30" r="3.2" fill="#1d4ed8"/>
<circle cx="1139.12" cy="225.51" r="3.2" fill="#1d4ed8"/>
<circle cx="1141.40" cy="225.51" r="3.2" fill="#1d4ed8"/>
<circle cx="1143.67" cy="225.51" r="3.2" fill="#1d4ed8"/>
<circle cx="1145.94" cy="225.92" r="3.2" fill="#1d4ed8"/>
<circle cx="1148.21" cy="223.09" r="3.2" fill="#1d4ed8"/>
<circle cx="1150.48" cy="223.49" r="3.2" fill="#1d4ed8"/>
<circle cx="1152.75" cy="223.09" r="3.2" fill="#1d4ed8"/>
<circle cx="1155.02" cy="223.09" r="3.2" fill="#1d4ed8"/>
<circle cx="1157.29" cy="223.90" r="3.2" fill="#1d4ed8"/>
<circle cx="1159.56" cy="223.49" r="3.2" fill="#1d4ed8"/>
<circle cx="1161.83" cy="223.49" r="3.2" fill="#1d4ed8"/>
<circle cx="1164.10" cy="223.09" r="3.2" fill="#1d4ed8"/>
<circle cx="1166.38" cy="223.09" r="3.2" fill="#1d4ed8"/>
<circle cx="1168.65" cy="223.49" r="3.2" fill="#1d4ed8"/>
<circle cx="1170.92" cy="223.09" r="3.2" fill="#1d4ed8"/>
<circle cx="1173.19" cy="223.09" r="3.2" fill="#1d4ed8"/>
<circle cx="1175.46" cy="223.49" r="3.2" fill="#1d4ed8"/>
<circle cx="1177.73" cy="223.49" r="3.2" fill="#1d4ed8"/>
<circle cx="1180.00" cy="223.09" r="3.2" fill="#1d4ed8"/>
<text x="635" y="695" text-anchor="middle" font-size="14" fill="#111" font-family="sans-serif">Date</text>
<text x="24" y="325" text-anchor="middle" font-size="14" fill="#111" transform="rotate(-90 24,325)" font-family="sans-serif">Passed files</text>
</svg>
