<?xml version="1.0" encoding="UTF-8"?>
<svg xmlns="http://www.w3.org/2000/svg" width="1280" height="720" viewBox="0 0 1280 720">
<rect width="100%" height="100%" fill="#ffffff"/>
<text x="640" y="30" text-anchor="middle" font-size="22" font-family="sans-serif">Roast passed files history</text>
<line x1="90" y1="600" x2="1180" y2="600" stroke="#333" stroke-width="1.5"/>
<line x1="90" y1="50" x2="90" y2="600" stroke="#333" stroke-width="1.5"/>
<line x1="90" y1="600.00" x2="1180" y2="600.00" stroke="#e5e7eb" stroke-width="1"/>
<text x="78" y="605.00" text-anchor="end" font-size="12" fill="#111" font-family="sans-serif">0</text>
<line x1="90" y1="397.79" x2="1180" y2="397.79" stroke="#e5e7eb" stroke-width="1"/>
<text x="78" y="402.79" text-anchor="end" font-size="12" fill="#111" font-family="sans-serif">500</text>
<line x1="90" y1="195.59" x2="1180" y2="195.59" stroke="#e5e7eb" stroke-width="1"/>
<text x="78" y="200.59" text-anchor="end" font-size="12" fill="#111" font-family="sans-serif">1000</text>
<line x1="90.00" y1="600" x2="90.00" y2="606" stroke="#333" stroke-width="1"/>
<text x="90.00" y="624" text-anchor="end" font-size="11" fill="#111" transform="rotate(-40 90.00,624)" font-family="sans-serif">2026-02-12</text>
<line x1="224.81" y1="600" x2="224.81" y2="606" stroke="#333" stroke-width="1"/>
<text x="224.81" y="624" text-anchor="end" font-size="11" fill="#111" transform="rotate(-40 224.81,624)" font-family="sans-serif">2026-02-17</text>
<line x1="359.61" y1="600" x2="359.61" y2="606" stroke="#333" stroke-width="1"/>
<text x="359.61" y="624" text-anchor="end" font-size="11" fill="#111" transform="rotate(-40 359.61,624)" font-family="sans-serif">2026-02-19</text>
<line x1="494.42" y1="600" x2="494.42" y2="606" stroke="#333" stroke-width="1"/>
<text x="494.42" y="624" text-anchor="end" font-size="11" fill="#111" transform="rotate(-40 494.42,624)" font-family="sans-serif">2026-02-23</text>
<line x1="629.22" y1="600" x2="629.22" y2="606" stroke="#333" stroke-width="1"/>
<text x="629.22" y="624" text-anchor="end" font-size="11" fill="#111" transform="rotate(-40 629.22,624)" font-family="sans-serif">2026-02-25</text>
<line x1="764.03" y1="600" x2="764.03" y2="606" stroke="#333" stroke-width="1"/>
<text x="764.03" y="624" text-anchor="end" font-size="11" fill="#111" transform="rotate(-40 764.03,624)" font-family="sans-serif">2026-02-28</text>
<line x1="898.83" y1="600" x2="898.83" y2="606" stroke="#333" stroke-width="1"/>
<text x="898.83" y="624" text-anchor="end" font-size="11" fill="#111" transform="rotate(-40 898.83,624)" font-family="sans-serif">2026-03-01</text>
<line x1="1033.64" y1="600" x2="1033.64" y2="606" stroke="#333" stroke-width="1"/>
<text x="1033.64" y="624" text-anchor="end" font-size="11" fill="#111" transform="rotate(-40 1033.64,624)" font-family="sans-serif">2026-03-06</text>
<line x1="1168.45" y1="600" x2="1168.45" y2="606" stroke="#333" stroke-width="1"/>
<text x="1168.45" y="624" text-anchor="end" font-size="11" fill="#111" transform="rotate(-40 1168.45,624)" font-family="sans-serif">2026-03-07</text>
<line x1="1180.00" y1="600" x2="1180.00" y2="606" stroke="#333" stroke-width="1"/>
<text x="1180.00" y="624" text-anchor="end" font-size="11" fill="#111" transform="rotate(-40 1180.00,624)" font-family="sans-serif">2026-03-07</text>
<line x1="90" y1="75.88" x2="1180" y2="75.88" stroke="#dc2626" stroke-width="1.5" stroke-dasharray="8,4"/>
<text x="1184" y="79.88" font-size="12" fill="#dc2626" font-family="sans-serif">Goal: 1296</text>
<polyline fill="none" stroke="#2563eb" stroke-width="3" points="90.00,540.55 93.85,538.53 97.70,536.91 101.55,534.49 105.41,534.49 109.26,533.27 113.11,532.46 116.96,532.87 120.81,532.06 124.66,532.46 128.52,532.06 132.37,568.46 136.22,568.46 140.07,566.43 143.92,545.00 147.77,545.00 151.63,544.19 155.48,543.79 159.33,543.79 163.18,543.38 167.03,541.76 170.88,541.36 174.73,540.96 178.59,540.96 182.44,539.34 186.29,539.34 190.14,556.73 193.99,556.73 197.84,555.51 201.70,551.07 205.55,538.93 209.40,538.93 213.25,538.93 217.10,538.12 220.95,536.91 224.81,536.91 228.66,536.51 232.51,536.51 236.36,556.73 240.21,556.73 244.06,556.73 247.92,556.73 251.77,535.29 255.62,535.29 259.47,535.29 263.32,535.29 267.17,534.49 271.02,534.08 274.88,533.68 278.73,532.87 282.58,532.06 286.43,532.06 290.28,531.25 294.13,530.85 297.99,530.44 301.84,530.04 305.69,530.04 309.54,529.23 313.39,529.23 317.24,529.23 321.10,528.42 324.95,528.42 328.80,527.61 332.65,527.21 336.50,526.80 340.35,526.40 344.20,525.18 348.06,523.57 351.91,523.57 355.76,523.16 359.61,522.76 363.46,522.35 367.31,521.54 371.17,519.52 375.02,517.50 378.87,517.50 382.72,517.50 386.57,517.50 390.42,517.50 394.28,517.50 398.13,517.10 401.98,516.69 405.83,515.48 409.68,515.07 413.53,514.67 417.39,513.86 421.24,514.26 425.09,512.24 428.94,511.84 432.79,511.84 436.64,511.03 440.49,509.82 444.35,507.79 448.20,506.99 452.05,506.58 455.90,509.41 459.75,509.01 463.60,504.96 467.46,504.56 471.31,504.15 475.16,504.56 479.01,503.75 482.86,503.75 486.71,503.35 490.57,499.30 494.42,496.47 498.27,490.00 502.12,484.34 505.97,481.10 509.82,480.29 513.67,480.70 517.53,460.88 521.38,459.26 525.23,458.05 529.08,456.03 532.93,456.03 536.78,454.41 540.64,450.77 544.49,444.30 548.34,443.90 552.19,600.00 556.04,441.88 559.89,440.66 563.75,439.45 567.60,439.04 571.45,438.64 575.30,437.83 579.15,436.62 583.00,436.62 586.86,434.60 590.71,432.17 594.56,429.34 598.41,428.93 602.26,428.53 606.11,427.72 609.96,426.91 613.82,426.10 617.67,426.10 621.52,426.10 625.37,419.63 629.22,419.23 633.07,418.42 636.93,418.01 640.78,417.61 644.63,417.61 648.48,417.61 652.33,417.21 656.18,417.21 660.04,413.57 663.89,411.95 667.74,412.76 671.59,410.74 675.44,410.74 679.29,410.33 683.14,410.33 687.00,410.33 690.85,409.93 694.70,409.93 698.55,409.93 702.40,409.52 706.25,409.52 710.11,409.12 713.96,409.52 717.81,409.12 721.66,407.50 725.51,407.10 729.36,403.05 733.22,399.82 737.07,400.22 740.92,400.62 744.77,400.62 748.62,399.41 752.47,392.94 756.33,391.32 760.18,389.30 764.03,389.30 767.88,388.49 771.73,375.15 775.58,374.74 779.43,374.74 783.29,374.74 787.14,374.74 790.99,374.34 794.84,374.34 798.69,374.34 802.54,374.34 806.40,374.34 810.25,373.93 814.10,373.12 817.95,372.72 821.80,373.53 825.65,435.81 829.51,372.32 833.36,372.72 837.21,371.91 841.06,371.91 844.91,372.32 848.76,371.10 852.61,369.89 856.47,369.89 860.32,369.89 864.17,369.49 868.02,369.89 871.87,369.08 875.72,368.68 879.58,368.27 883.43,367.87 887.28,367.06 891.13,367.46 894.98,367.06 898.83,366.25 902.69,368.27 906.54,368.68 910.39,368.68 914.24,368.27 918.09,369.08 921.94,367.87 925.80,367.46 929.65,367.06 933.50,360.18 937.35,359.78 941.20,359.38 945.05,356.95 948.90,357.35 952.76,357.76 956.61,355.33 960.46,355.74 964.31,357.35 968.16,355.33 972.01,356.14 975.87,355.74 979.72,356.14 983.57,354.12 987.42,354.93 991.27,356.14 995.12,354.52 998.98,353.71 1002.83,354.12 1006.68,354.93 1010.53,352.90 1014.38,353.71 1018.23,353.31 1022.08,353.31 1025.94,354.52 1029.79,352.90 1033.64,352.50 1037.49,352.50 1041.34,353.31 1045.19,352.50 1049.05,353.71 1052.90,354.12 1056.75,352.50 1060.60,352.90 1064.45,352.50 1068.30,352.10 1072.16,351.69 1076.01,352.10 1079.86,354.12 1083.71,352.50 1087.56,352.10 1091.41,352.10 1095.27,349.67 1099.12,349.67 1102.97,350.88 1106.82,351.29 1110.67,350.48 1114.52,352.10 1118.37,350.48 1122.23,350.48 1126.08,350.48 1129.93,350.07 1133.78,348.46 1137.63,351.29 1141.48,349.67 1145.34,351.29 1149.19,349.67 1153.04,348.86 1156.89,348.46 1160.74,348.46 1164.59,347.24 1168.45,348.86 1172.30,346.84 1176.15,348.46 1180.00,348.86"/>
<circle cx="90.00" cy="540.55" r="3.2" fill="#1d4ed8"/>
<circle cx="93.85" cy="538.53" r="3.2" fill="#1d4ed8"/>
<circle cx="97.70" cy="536.91" r="3.2" fill="#1d4ed8"/>
<circle cx="101.55" cy="534.49" r="3.2" fill="#1d4ed8"/>
<circle cx="105.41" cy="534.49" r="3.2" fill="#1d4ed8"/>
<circle cx="109.26" cy="533.27" r="3.2" fill="#1d4ed8"/>
<circle cx="113.11" cy="532.46" r="3.2" fill="#1d4ed8"/>
<circle cx="116.96" cy="532.87" r="3.2" fill="#1d4ed8"/>
<circle cx="120.81" cy="532.06" r="3.2" fill="#1d4ed8"/>
<circle cx="124.66" cy="532.46" r="3.2" fill="#1d4ed8"/>
<circle cx="128.52" cy="532.06" r="3.2" fill="#1d4ed8"/>
<circle cx="132.37" cy="568.46" r="3.2" fill="#1d4ed8"/>
<circle cx="136.22" cy="568.46" r="3.2" fill="#1d4ed8"/>
<circle cx="140.07" cy="566.43" r="3.2" fill="#1d4ed8"/>
<circle cx="143.92" cy="545.00" r="3.2" fill="#1d4ed8"/>
<circle cx="147.77" cy="545.00" r="3.2" fill="#1d4ed8"/>
<circle cx="151.63" cy="544.19" r="3.2" fill="#1d4ed8"/>
<circle cx="155.48" cy="543.79" r="3.2" fill="#1d4ed8"/>
<circle cx="159.33" cy="543.79" r="3.2" fill="#1d4ed8"/>
<circle cx="163.18" cy="543.38" r="3.2" fill="#1d4ed8"/>
<circle cx="167.03" cy="541.76" r="3.2" fill="#1d4ed8"/>
<circle cx="170.88" cy="541.36" r="3.2" fill="#1d4ed8"/>
<circle cx="174.73" cy="540.96" r="3.2" fill="#1d4ed8"/>
<circle cx="178.59" cy="540.96" r="3.2" fill="#1d4ed8"/>
<circle cx="182.44" cy="539.34" r="3.2" fill="#1d4ed8"/>
<circle cx="186.29" cy="539.34" r="3.2" fill="#1d4ed8"/>
<circle cx="190.14" cy="556.73" r="3.2" fill="#1d4ed8"/>
<circle cx="193.99" cy="556.73" r="3.2" fill="#1d4ed8"/>
<circle cx="197.84" cy="555.51" r="3.2" fill="#1d4ed8"/>
<circle cx="201.70" cy="551.07" r="3.2" fill="#1d4ed8"/>
<circle cx="205.55" cy="538.93" r="3.2" fill="#1d4ed8"/>
<circle cx="209.40" cy="538.93" r="3.2" fill="#1d4ed8"/>
<circle cx="213.25" cy="538.93" r="3.2" fill="#1d4ed8"/>
<circle cx="217.10" cy="538.12" r="3.2" fill="#1d4ed8"/>
<circle cx="220.95" cy="536.91" r="3.2" fill="#1d4ed8"/>
<circle cx="224.81" cy="536.91" r="3.2" fill="#1d4ed8"/>
<circle cx="228.66" cy="536.51" r="3.2" fill="#1d4ed8"/>
<circle cx="232.51" cy="536.51" r="3.2" fill="#1d4ed8"/>
<circle cx="236.36" cy="556.73" r="3.2" fill="#1d4ed8"/>
<circle cx="240.21" cy="556.73" r="3.2" fill="#1d4ed8"/>
<circle cx="244.06" cy="556.73" r="3.2" fill="#1d4ed8"/>
<circle cx="247.92" cy="556.73" r="3.2" fill="#1d4ed8"/>
<circle cx="251.77" cy="535.29" r="3.2" fill="#1d4ed8"/>
<circle cx="255.62" cy="535.29" r="3.2" fill="#1d4ed8"/>
<circle cx="259.47" cy="535.29" r="3.2" fill="#1d4ed8"/>
<circle cx="263.32" cy="535.29" r="3.2" fill="#1d4ed8"/>
<circle cx="267.17" cy="534.49" r="3.2" fill="#1d4ed8"/>
<circle cx="271.02" cy="534.08" r="3.2" fill="#1d4ed8"/>
<circle cx="274.88" cy="533.68" r="3.2" fill="#1d4ed8"/>
<circle cx="278.73" cy="532.87" r="3.2" fill="#1d4ed8"/>
<circle cx="282.58" cy="532.06" r="3.2" fill="#1d4ed8"/>
<circle cx="286.43" cy="532.06" r="3.2" fill="#1d4ed8"/>
<circle cx="290.28" cy="531.25" r="3.2" fill="#1d4ed8"/>
<circle cx="294.13" cy="530.85" r="3.2" fill="#1d4ed8"/>
<circle cx="297.99" cy="530.44" r="3.2" fill="#1d4ed8"/>
<circle cx="301.84" cy="530.04" r="3.2" fill="#1d4ed8"/>
<circle cx="305.69" cy="530.04" r="3.2" fill="#1d4ed8"/>
<circle cx="309.54" cy="529.23" r="3.2" fill="#1d4ed8"/>
<circle cx="313.39" cy="529.23" r="3.2" fill="#1d4ed8"/>
<circle cx="317.24" cy="529.23" r="3.2" fill="#1d4ed8"/>
<circle cx="321.10" cy="528.42" r="3.2" fill="#1d4ed8"/>
<circle cx="324.95" cy="528.42" r="3.2" fill="#1d4ed8"/>
<circle cx="328.80" cy="527.61" r="3.2" fill="#1d4ed8"/>
<circle cx="332.65" cy="527.21" r="3.2" fill="#1d4ed8"/>
<circle cx="336.50" cy="526.80" r="3.2" fill="#1d4ed8"/>
<circle cx="340.35" cy="526.40" r="3.2" fill="#1d4ed8"/>
<circle cx="344.20" cy="525.18" r="3.2" fill="#1d4ed8"/>
<circle cx="348.06" cy="523.57" r="3.2" fill="#1d4ed8"/>
<circle cx="351.91" cy="523.57" r="3.2" fill="#1d4ed8"/>
<circle cx="355.76" cy="523.16" r="3.2" fill="#1d4ed8"/>
<circle cx="359.61" cy="522.76" r="3.2" fill="#1d4ed8"/>
<circle cx="363.46" cy="522.35" r="3.2" fill="#1d4ed8"/>
<circle cx="367.31" cy="521.54" r="3.2" fill="#1d4ed8"/>
<circle cx="371.17" cy="519.52" r="3.2" fill="#1d4ed8"/>
<circle cx="375.02" cy="517.50" r="3.2" fill="#1d4ed8"/>
<circle cx="378.87" cy="517.50" r="3.2" fill="#1d4ed8"/>
<circle cx="382.72" cy="517.50" r="3.2" fill="#1d4ed8"/>
<circle cx="386.57" cy="517.50" r="3.2" fill="#1d4ed8"/>
<circle cx="390.42" cy="517.50" r="3.2" fill="#1d4ed8"/>
<circle cx="394.28" cy="517.50" r="3.2" fill="#1d4ed8"/>
<circle cx="398.13" cy="517.10" r="3.2" fill="#1d4ed8"/>
<circle cx="401.98" cy="516.69" r="3.2" fill="#1d4ed8"/>
<circle cx="405.83" cy="515.48" r="3.2" fill="#1d4ed8"/>
<circle cx="409.68" cy="515.07" r="3.2" fill="#1d4ed8"/>
<circle cx="413.53" cy="514.67" r="3.2" fill="#1d4ed8"/>
<circle cx="417.39" cy="513.86" r="3.2" fill="#1d4ed8"/>
<circle cx="421.24" cy="514.26" r="3.2" fill="#1d4ed8"/>
<circle cx="425.09" cy="512.24" r="3.2" fill="#1d4ed8"/>
<circle cx="428.94" cy="511.84" r="3.2" fill="#1d4ed8"/>
<circle cx="432.79" cy="511.84" r="3.2" fill="#1d4ed8"/>
<circle cx="436.64" cy="511.03" r="3.2" fill="#1d4ed8"/>
<circle cx="440.49" cy="509.82" r="3.2" fill="#1d4ed8"/>
<circle cx="444.35" cy="507.79" r="3.2" fill="#1d4ed8"/>
<circle cx="448.20" cy="506.99" r="3.2" fill="#1d4ed8"/>
<circle cx="452.05" cy="506.58" r="3.2" fill="#1d4ed8"/>
<circle cx="455.90" cy="509.41" r="3.2" fill="#1d4ed8"/>
<circle cx="459.75" cy="509.01" r="3.2" fill="#1d4ed8"/>
<circle cx="463.60" cy="504.96" r="3.2" fill="#1d4ed8"/>
<circle cx="467.46" cy="504.56" r="3.2" fill="#1d4ed8"/>
<circle cx="471.31" cy="504.15" r="3.2" fill="#1d4ed8"/>
<circle cx="475.16" cy="504.56" r="3.2" fill="#1d4ed8"/>
<circle cx="479.01" cy="503.75" r="3.2" fill="#1d4ed8"/>
<circle cx="482.86" cy="503.75" r="3.2" fill="#1d4ed8"/>
<circle cx="486.71" cy="503.35" r="3.2" fill="#1d4ed8"/>
<circle cx="490.57" cy="499.30" r="3.2" fill="#1d4ed8"/>
<circle cx="494.42" cy="496.47" r="3.2" fill="#1d4ed8"/>
<circle cx="498.27" cy="490.00" r="3.2" fill="#1d4ed8"/>
<circle cx="502.12" cy="484.34" r="3.2" fill="#1d4ed8"/>
<circle cx="505.97" cy="481.10" r="3.2" fill="#1d4ed8"/>
<circle cx="509.82" cy="480.29" r="3.2" fill="#1d4ed8"/>
<circle cx="513.67" cy="480.70" r="3.2" fill="#1d4ed8"/>
<circle cx="517.53" cy="460.88" r="3.2" fill="#1d4ed8"/>
<circle cx="521.38" cy="459.26" r="3.2" fill="#1d4ed8"/>
<circle cx="525.23" cy="458.05" r="3.2" fill="#1d4ed8"/>
<circle cx="529.08" cy="456.03" r="3.2" fill="#1d4ed8"/>
<circle cx="532.93" cy="456.03" r="3.2" fill="#1d4ed8"/>
<circle cx="536.78" cy="454.41" r="3.2" fill="#1d4ed8"/>
<circle cx="540.64" cy="450.77" r="3.2" fill="#1d4ed8"/>
<circle cx="544.49" cy="444.30" r="3.2" fill="#1d4ed8"/>
<circle cx="548.34" cy="443.90" r="3.2" fill="#1d4ed8"/>
<circle cx="552.19" cy="600.00" r="3.2" fill="#1d4ed8"/>
<circle cx="556.04" cy="441.88" r="3.2" fill="#1d4ed8"/>
<circle cx="559.89" cy="440.66" r="3.2" fill="#1d4ed8"/>
<circle cx="563.75" cy="439.45" r="3.2" fill="#1d4ed8"/>
<circle cx="567.60" cy="439.04" r="3.2" fill="#1d4ed8"/>
<circle cx="571.45" cy="438.64" r="3.2" fill="#1d4ed8"/>
<circle cx="575.30" cy="437.83" r="3.2" fill="#1d4ed8"/>
<circle cx="579.15" cy="436.62" r="3.2" fill="#1d4ed8"/>
<circle cx="583.00" cy="436.62" r="3.2" fill="#1d4ed8"/>
<circle cx="586.86" cy="434.60" r="3.2" fill="#1d4ed8"/>
<circle cx="590.71" cy="432.17" r="3.2" fill="#1d4ed8"/>
<circle cx="594.56" cy="429.34" r="3.2" fill="#1d4ed8"/>
<circle cx="598.41" cy="428.93" r="3.2" fill="#1d4ed8"/>
<circle cx="602.26" cy="428.53" r="3.2" fill="#1d4ed8"/>
<circle cx="606.11" cy="427.72" r="3.2" fill="#1d4ed8"/>
<circle cx="609.96" cy="426.91" r="3.2" fill="#1d4ed8"/>
<circle cx="613.82" cy="426.10" r="3.2" fill="#1d4ed8"/>
<circle cx="617.67" cy="426.10" r="3.2" fill="#1d4ed8"/>
<circle cx="621.52" cy="426.10" r="3.2" fill="#1d4ed8"/>
<circle cx="625.37" cy="419.63" r="3.2" fill="#1d4ed8"/>
<circle cx="629.22" cy="419.23" r="3.2" fill="#1d4ed8"/>
<circle cx="633.07" cy="418.42" r="3.2" fill="#1d4ed8"/>
<circle cx="636.93" cy="418.01" r="3.2" fill="#1d4ed8"/>
<circle cx="640.78" cy="417.61" r="3.2" fill="#1d4ed8"/>
<circle cx="644.63" cy="417.61" r="3.2" fill="#1d4ed8"/>
<circle cx="648.48" cy="417.61" r="3.2" fill="#1d4ed8"/>
<circle cx="652.33" cy="417.21" r="3.2" fill="#1d4ed8"/>
<circle cx="656.18" cy="417.21" r="3.2" fill="#1d4ed8"/>
<circle cx="660.04" cy="413.57" r="3.2" fill="#1d4ed8"/>
<circle cx="663.89" cy="411.95" r="3.2" fill="#1d4ed8"/>
<circle cx="667.74" cy="412.76" r="3.2" fill="#1d4ed8"/>
<circle cx="671.59" cy="410.74" r="3.2" fill="#1d4ed8"/>
<circle cx="675.44" cy="410.74" r="3.2" fill="#1d4ed8"/>
<circle cx="679.29" cy="410.33" r="3.2" fill="#1d4ed8"/>
<circle cx="683.14" cy="410.33" r="3.2" fill="#1d4ed8"/>
<circle cx="687.00" cy="410.33" r="3.2" fill="#1d4ed8"/>
<circle cx="690.85" cy="409.93" r="3.2" fill="#1d4ed8"/>
<circle cx="694.70" cy="409.93" r="3.2" fill="#1d4ed8"/>
<circle cx="698.55" cy="409.93" r="3.2" fill="#1d4ed8"/>
<circle cx="702.40" cy="409.52" r="3.2" fill="#1d4ed8"/>
<circle cx="706.25" cy="409.52" r="3.2" fill="#1d4ed8"/>
<circle cx="710.11" cy="409.12" r="3.2" fill="#1d4ed8"/>
<circle cx="713.96" cy="409.52" r="3.2" fill="#1d4ed8"/>
<circle cx="717.81" cy="409.12" r="3.2" fill="#1d4ed8"/>
<circle cx="721.66" cy="407.50" r="3.2" fill="#1d4ed8"/>
<circle cx="725.51" cy="407.10" r="3.2" fill="#1d4ed8"/>
<circle cx="729.36" cy="403.05" r="3.2" fill="#1d4ed8"/>
<circle cx="733.22" cy="399.82" r="3.2" fill="#1d4ed8"/>
<circle cx="737.07" cy="400.22" r="3.2" fill="#1d4ed8"/>
<circle cx="740.92" cy="400.62" r="3.2" fill="#1d4ed8"/>
<circle cx="744.77" cy="400.62" r="3.2" fill="#1d4ed8"/>
<circle cx="748.62" cy="399.41" r="3.2" fill="#1d4ed8"/>
<circle cx="752.47" cy="392.94" r="3.2" fill="#1d4ed8"/>
<circle cx="756.33" cy="391.32" r="3.2" fill="#1d4ed8"/>
<circle cx="760.18" cy="389.30" r="3.2" fill="#1d4ed8"/>
<circle cx="764.03" cy="389.30" r="3.2" fill="#1d4ed8"/>
<circle cx="767.88" cy="388.49" r="3.2" fill="#1d4ed8"/>
<circle cx="771.73" cy="375.15" r="3.2" fill="#1d4ed8"/>
<circle cx="775.58" cy="374.74" r="3.2" fill="#1d4ed8"/>
<circle cx="779.43" cy="374.74" r="3.2" fill="#1d4ed8"/>
<circle cx="783.29" cy="374.74" r="3.2" fill="#1d4ed8"/>
<circle cx="787.14" cy="374.74" r="3.2" fill="#1d4ed8"/>
<circle cx="790.99" cy="374.34" r="3.2" fill="#1d4ed8"/>
<circle cx="794.84" cy="374.34" r="3.2" fill="#1d4ed8"/>
<circle cx="798.69" cy="374.34" r="3.2" fill="#1d4ed8"/>
<circle cx="802.54" cy="374.34" r="3.2" fill="#1d4ed8"/>
<circle cx="806.40" cy="374.34" r="3.2" fill="#1d4ed8"/>
<circle cx="810.25" cy="373.93" r="3.2" fill="#1d4ed8"/>
<circle cx="814.10" cy="373.12" r="3.2" fill="#1d4ed8"/>
<circle cx="817.95" cy="372.72" r="3.2" fill="#1d4ed8"/>
<circle cx="821.80" cy="373.53" r="3.2" fill="#1d4ed8"/>
<circle cx="825.65" cy="435.81" r="3.2" fill="#1d4ed8"/>
<circle cx="829.51" cy="372.32" r="3.2" fill="#1d4ed8"/>
<circle cx="833.36" cy="372.72" r="3.2" fill="#1d4ed8"/>
<circle cx="837.21" cy="371.91" r="3.2" fill="#1d4ed8"/>
<circle cx="841.06" cy="371.91" r="3.2" fill="#1d4ed8"/>
<circle cx="844.91" cy="372.32" r="3.2" fill="#1d4ed8"/>
<circle cx="848.76" cy="371.10" r="3.2" fill="#1d4ed8"/>
<circle cx="852.61" cy="369.89" r="3.2" fill="#1d4ed8"/>
<circle cx="856.47" cy="369.89" r="3.2" fill="#1d4ed8"/>
<circle cx="860.32" cy="369.89" r="3.2" fill="#1d4ed8"/>
<circle cx="864.17" cy="369.49" r="3.2" fill="#1d4ed8"/>
<circle cx="868.02" cy="369.89" r="3.2" fill="#1d4ed8"/>
<circle cx="871.87" cy="369.08" r="3.2" fill="#1d4ed8"/>
<circle cx="875.72" cy="368.68" r="3.2" fill="#1d4ed8"/>
<circle cx="879.58" cy="368.27" r="3.2" fill="#1d4ed8"/>
<circle cx="883.43" cy="367.87" r="3.2" fill="#1d4ed8"/>
<circle cx="887.28" cy="367.06" r="3.2" fill="#1d4ed8"/>
<circle cx="891.13" cy="367.46" r="3.2" fill="#1d4ed8"/>
<circle cx="894.98" cy="367.06" r="3.2" fill="#1d4ed8"/>
<circle cx="898.83" cy="366.25" r="3.2" fill="#1d4ed8"/>
<circle cx="902.69" cy="368.27" r="3.2" fill="#1d4ed8"/>
<circle cx="906.54" cy="368.68" r="3.2" fill="#1d4ed8"/>
<circle cx="910.39" cy="368.68" r="3.2" fill="#1d4ed8"/>
<circle cx="914.24" cy="368.27" r="3.2" fill="#1d4ed8"/>
<circle cx="918.09" cy="369.08" r="3.2" fill="#1d4ed8"/>
<circle cx="921.94" cy="367.87" r="3.2" fill="#1d4ed8"/>
<circle cx="925.80" cy="367.46" r="3.2" fill="#1d4ed8"/>
<circle cx="929.65" cy="367.06" r="3.2" fill="#1d4ed8"/>
<circle cx="933.50" cy="360.18" r="3.2" fill="#1d4ed8"/>
<circle cx="937.35" cy="359.78" r="3.2" fill="#1d4ed8"/>
<circle cx="941.20" cy="359.38" r="3.2" fill="#1d4ed8"/>
<circle cx="945.05" cy="356.95" r="3.2" fill="#1d4ed8"/>
<circle cx="948.90" cy="357.35" r="3.2" fill="#1d4ed8"/>
<circle cx="952.76" cy="357.76" r="3.2" fill="#1d4ed8"/>
<circle cx="956.61" cy="355.33" r="3.2" fill="#1d4ed8"/>
<circle cx="960.46" cy="355.74" r="3.2" fill="#1d4ed8"/>
<circle cx="964.31" cy="357.35" r="3.2" fill="#1d4ed8"/>
<circle cx="968.16" cy="355.33" r="3.2" fill="#1d4ed8"/>
<circle cx="972.01" cy="356.14" r="3.2" fill="#1d4ed8"/>
<circle cx="975.87" cy="355.74" r="3.2" fill="#1d4ed8"/>
<circle cx="979.72" cy="356.14" r="3.2" fill="#1d4ed8"/>
<circle cx="983.57" cy="354.12" r="3.2" fill="#1d4ed8"/>
<circle cx="987.42" cy="354.93" r="3.2" fill="#1d4ed8"/>
<circle cx="991.27" cy="356.14" r="3.2" fill="#1d4ed8"/>
<circle cx="995.12" cy="354.52" r="3.2" fill="#1d4ed8"/>
<circle cx="998.98" cy="353.71" r="3.2" fill="#1d4ed8"/>
<circle cx="1002.83" cy="354.12" r="3.2" fill="#1d4ed8"/>
<circle cx="1006.68" cy="354.93" r="3.2" fill="#1d4ed8"/>
<circle cx="1010.53" cy="352.90" r="3.2" fill="#1d4ed8"/>
<circle cx="1014.38" cy="353.71" r="3.2" fill="#1d4ed8"/>
<circle cx="1018.23" cy="353.31" r="3.2" fill="#1d4ed8"/>
<circle cx="1022.08" cy="353.31" r="3.2" fill="#1d4ed8"/>
<circle cx="1025.94" cy="354.52" r="3.2" fill="#1d4ed8"/>
<circle cx="1029.79" cy="352.90" r="3.2" fill="#1d4ed8"/>
<circle cx="1033.64" cy="352.50" r="3.2" fill="#1d4ed8"/>
<circle cx="1037.49" cy="352.50" r="3.2" fill="#1d4ed8"/>
<circle cx="1041.34" cy="353.31" r="3.2" fill="#1d4ed8"/>
<circle cx="1045.19" cy="352.50" r="3.2" fill="#1d4ed8"/>
<circle cx="1049.05" cy="353.71" r="3.2" fill="#1d4ed8"/>
<circle cx="1052.90" cy="354.12" r="3.2" fill="#1d4ed8"/>
<circle cx="1056.75" cy="352.50" r="3.2" fill="#1d4ed8"/>
<circle cx="1060.60" cy="352.90" r="3.2" fill="#1d4ed8"/>
<circle cx="1064.45" cy="352.50" r="3.2" fill="#1d4ed8"/>
<circle cx="1068.30" cy="352.10" r="3.2" fill="#1d4ed8"/>
<circle cx="1072.16" cy="351.69" r="3.2" fill="#1d4ed8"/>
<circle cx="1076.01" cy="352.10" r="3.2" fill="#1d4ed8"/>
<circle cx="1079.86" cy="354.12" r="3.2" fill="#1d4ed8"/>
<circle cx="1083.71" cy="352.50" r="3.2" fill="#1d4ed8"/>
<circle cx="1087.56" cy="352.10" r="3.2" fill="#1d4ed8"/>
<circle cx="1091.41" cy="352.10" r="3.2" fill="#1d4ed8"/>
<circle cx="1095.27" cy="349.67" r="3.2" fill="#1d4ed8"/>
<circle cx="1099.12" cy="349.67" r="3.2" fill="#1d4ed8"/>
<circle cx="1102.97" cy="350.88" r="3.2" fill="#1d4ed8"/>
<circle cx="1106.82" cy="351.29" r="3.2" fill="#1d4ed8"/>
<circle cx="1110.67" cy="350.48" r="3.2" fill="#1d4ed8"/>
<circle cx="1114.52" cy="352.10" r="3.2" fill="#1d4ed8"/>
<circle cx="1118.37" cy="350.48" r="3.2" fill="#1d4ed8"/>
<circle cx="1122.23" cy="350.48" r="3.2" fill="#1d4ed8"/>
<circle cx="1126.08" cy="350.48" r="3.2" fill="#1d4ed8"/>
<circle cx="1129.93" cy="350.07" r="3.2" fill="#1d4ed8"/>
<circle cx="1133.78" cy="348.46" r="3.2" fill="#1d4ed8"/>
<circle cx="1137.63" cy="351.29" r="3.2" fill="#1d4ed8"/>
<circle cx="1141.48" cy="349.67" r="3.2" fill="#1d4ed8"/>
<circle cx="1145.34" cy="351.29" r="3.2" fill="#1d4ed8"/>
<circle cx="1149.19" cy="349.67" r="3.2" fill="#1d4ed8"/>
<circle cx="1153.04" cy="348.86" r="3.2" fill="#1d4ed8"/>
<circle cx="1156.89" cy="348.46" r="3.2" fill="#1d4ed8"/>
<circle cx="1160.74" cy="348.46" r="3.2" fill="#1d4ed8"/>
<circle cx="1164.59" cy="347.24" r="3.2" fill="#1d4ed8"/>
<circle cx="1168.45" cy="348.86" r="3.2" fill="#1d4ed8"/>
<circle cx="1172.30" cy="346.84" r="3.2" fill="#1d4ed8"/>
<circle cx="1176.15" cy="348.46" r="3.2" fill="#1d4ed8"/>
<circle cx="1180.00" cy="348.86" r="3.2" fill="#1d4ed8"/>
<text x="635" y="695" text-anchor="middle" font-size="14" fill="#111" font-family="sans-serif">Date</text>
<text x="24" y="325" text-anchor="middle" font-size="14" fill="#111" transform="rotate(-90 24,325)" font-family="sans-serif">Passed files</text>
</svg>
