<?xml version="1.0" encoding="UTF-8"?>
<svg xmlns="http://www.w3.org/2000/svg" width="1280" height="720" viewBox="0 0 1280 720">
<rect width="100%" height="100%" fill="#ffffff"/>
<text x="640" y="30" text-anchor="middle" font-size="22" font-family="sans-serif">Roast passed files history</text>
<line x1="90" y1="600" x2="1180" y2="600" stroke="#333" stroke-width="1.5"/>
<line x1="90" y1="50" x2="90" y2="600" stroke="#333" stroke-width="1.5"/>
<line x1="90" y1="600.00" x2="1180" y2="600.00" stroke="#e5e7eb" stroke-width="1"/>
<text x="78" y="605.00" text-anchor="end" font-size="12" fill="#111" font-family="sans-serif">0</text>
<line x1="90" y1="397.79" x2="1180" y2="397.79" stroke="#e5e7eb" stroke-width="1"/>
<text x="78" y="402.79" text-anchor="end" font-size="12" fill="#111" font-family="sans-serif">500</text>
<line x1="90" y1="195.59" x2="1180" y2="195.59" stroke="#e5e7eb" stroke-width="1"/>
<text x="78" y="200.59" text-anchor="end" font-size="12" fill="#111" font-family="sans-serif">1000</text>
<line x1="90.00" y1="600" x2="90.00" y2="606" stroke="#333" stroke-width="1"/>
<text x="90.00" y="624" text-anchor="end" font-size="11" fill="#111" transform="rotate(-40 90.00,624)" font-family="sans-serif">2026-02-12</text>
<line x1="226.69" y1="600" x2="226.69" y2="606" stroke="#333" stroke-width="1"/>
<text x="226.69" y="624" text-anchor="end" font-size="11" fill="#111" transform="rotate(-40 226.69,624)" font-family="sans-serif">2026-02-17</text>
<line x1="363.38" y1="600" x2="363.38" y2="606" stroke="#333" stroke-width="1"/>
<text x="363.38" y="624" text-anchor="end" font-size="11" fill="#111" transform="rotate(-40 363.38,624)" font-family="sans-serif">2026-02-20</text>
<line x1="500.06" y1="600" x2="500.06" y2="606" stroke="#333" stroke-width="1"/>
<text x="500.06" y="624" text-anchor="end" font-size="11" fill="#111" transform="rotate(-40 500.06,624)" font-family="sans-serif">2026-02-25</text>
<line x1="636.75" y1="600" x2="636.75" y2="606" stroke="#333" stroke-width="1"/>
<text x="636.75" y="624" text-anchor="end" font-size="11" fill="#111" transform="rotate(-40 636.75,624)" font-family="sans-serif">2026-02-26</text>
<line x1="773.44" y1="600" x2="773.44" y2="606" stroke="#333" stroke-width="1"/>
<text x="773.44" y="624" text-anchor="end" font-size="11" fill="#111" transform="rotate(-40 773.44,624)" font-family="sans-serif">2026-02-28</text>
<line x1="910.13" y1="600" x2="910.13" y2="606" stroke="#333" stroke-width="1"/>
<text x="910.13" y="624" text-anchor="end" font-size="11" fill="#111" transform="rotate(-40 910.13,624)" font-family="sans-serif">2026-03-06</text>
<line x1="1046.82" y1="600" x2="1046.82" y2="606" stroke="#333" stroke-width="1"/>
<text x="1046.82" y="624" text-anchor="end" font-size="11" fill="#111" transform="rotate(-40 1046.82,624)" font-family="sans-serif">2026-03-07</text>
<line x1="1180.00" y1="600" x2="1180.00" y2="606" stroke="#333" stroke-width="1"/>
<text x="1180.00" y="624" text-anchor="end" font-size="11" fill="#111" transform="rotate(-40 1180.00,624)" font-family="sans-serif">2026-03-11</text>
<line x1="90" y1="75.88" x2="1180" y2="75.88" stroke="#dc2626" stroke-width="1.5" stroke-dasharray="8,4"/>
<text x="1184" y="79.88" font-size="12" fill="#dc2626" font-family="sans-serif">Goal: 1296</text>
<polyline fill="none" stroke="#2563eb" stroke-width="3" points="90.00,540.55 93.50,538.53 97.01,536.91 100.51,534.49 104.02,534.49 107.52,533.27 111.03,532.46 114.53,532.87 118.04,532.06 121.54,532.46 125.05,532.06 128.55,568.46 132.06,568.46 135.56,566.43 139.07,545.00 142.57,545.00 146.08,544.19 149.58,543.79 153.09,543.79 156.59,543.38 160.10,541.76 163.60,541.36 167.11,540.96 170.61,540.96 174.12,539.34 177.62,539.34 181.13,556.73 184.63,556.73 188.14,555.51 191.64,551.07 195.14,538.93 198.65,538.93 202.15,538.93 205.66,538.12 209.16,536.91 212.67,536.91 216.17,536.51 219.68,536.51 223.18,556.73 226.69,556.73 230.19,556.73 233.70,556.73 237.20,535.29 240.71,535.29 244.21,535.29 247.72,535.29 251.22,534.49 254.73,534.08 258.23,533.68 261.74,532.87 265.24,532.06 268.75,532.06 272.25,531.25 275.76,530.85 279.26,530.44 282.77,530.04 286.27,530.04 289.77,529.23 293.28,529.23 296.78,529.23 300.29,528.42 303.79,528.42 307.30,527.61 310.80,527.21 314.31,526.80 317.81,526.40 321.32,525.18 324.82,523.57 328.33,523.57 331.83,523.16 335.34,522.76 338.84,522.35 342.35,521.54 345.85,519.52 349.36,517.50 352.86,517.50 356.37,517.50 359.87,517.50 363.38,517.50 366.88,517.50 370.39,517.10 373.89,516.69 377.40,515.48 380.90,515.07 384.41,514.67 387.91,513.86 391.41,514.26 394.92,512.24 398.42,511.84 401.93,511.84 405.43,511.03 408.94,509.82 412.44,507.79 415.95,506.99 419.45,506.58 422.96,509.41 426.46,509.01 429.97,504.96 433.47,504.56 436.98,504.15 440.48,504.56 443.99,503.75 447.49,503.75 451.00,503.35 454.50,499.30 458.01,496.47 461.51,490.00 465.02,484.34 468.52,481.10 472.03,480.29 475.53,480.70 479.04,460.88 482.54,459.26 486.05,458.05 489.55,456.03 493.05,456.03 496.56,454.41 500.06,450.77 503.57,444.30 507.07,443.90 510.58,600.00 514.08,441.88 517.59,440.66 521.09,439.45 524.60,439.04 528.10,438.64 531.61,437.83 535.11,436.62 538.62,436.62 542.12,434.60 545.63,432.17 549.13,429.34 552.64,428.93 556.14,428.53 559.65,427.72 563.15,426.91 566.66,426.10 570.16,426.10 573.67,426.10 577.17,419.63 580.68,419.23 584.18,418.42 587.68,418.01 591.19,417.61 594.69,417.61 598.20,417.61 601.70,417.21 605.21,417.21 608.71,413.57 612.22,411.95 615.72,412.76 619.23,410.74 622.73,410.74 626.24,410.33 629.74,410.33 633.25,410.33 636.75,409.93 640.26,409.93 643.76,409.93 647.27,409.52 650.77,409.52 654.28,409.12 657.78,409.52 661.29,409.12 664.79,407.50 668.30,407.10 671.80,403.05 675.31,399.82 678.81,400.22 682.32,400.62 685.82,400.62 689.32,399.41 692.83,392.94 696.33,391.32 699.84,389.30 703.34,389.30 706.85,388.49 710.35,375.15 713.86,374.74 717.36,374.74 720.87,374.74 724.37,374.74 727.88,374.34 731.38,374.34 734.89,374.34 738.39,374.34 741.90,374.34 745.40,373.93 748.91,373.12 752.41,372.72 755.92,373.53 759.42,435.81 762.93,372.32 766.43,372.72 769.94,371.91 773.44,371.91 776.95,372.32 780.45,371.10 783.95,369.89 787.46,369.89 790.96,369.89 794.47,369.49 797.97,369.89 801.48,369.08 804.98,368.68 808.49,368.27 811.99,367.87 815.50,367.06 819.00,367.46 822.51,367.06 826.01,366.25 829.52,368.27 833.02,368.68 836.53,368.68 840.03,368.27 843.54,369.08 847.04,367.87 850.55,367.46 854.05,367.06 857.56,360.18 861.06,359.78 864.57,359.38 868.07,356.95 871.58,357.35 875.08,357.76 878.59,355.33 882.09,355.74 885.59,357.35 889.10,355.33 892.60,356.14 896.11,355.74 899.61,356.14 903.12,354.12 906.62,354.93 910.13,356.14 913.63,354.52 917.14,353.71 920.64,354.12 924.15,354.93 927.65,352.90 931.16,353.71 934.66,353.31 938.17,353.31 941.67,354.52 945.18,352.90 948.68,352.50 952.19,352.50 955.69,353.31 959.20,352.50 962.70,353.71 966.21,354.12 969.71,352.50 973.22,352.90 976.72,352.50 980.23,352.10 983.73,351.69 987.23,352.10 990.74,354.12 994.24,352.50 997.75,352.10 1001.25,352.10 1004.76,349.67 1008.26,349.67 1011.77,350.88 1015.27,351.29 1018.78,350.48 1022.28,352.10 1025.79,350.48 1029.29,350.48 1032.80,350.48 1036.30,350.07 1039.81,348.46 1043.31,351.29 1046.82,349.67 1050.32,351.29 1053.83,349.67 1057.33,348.86 1060.84,348.46 1064.34,348.46 1067.85,347.24 1071.35,348.86 1074.86,346.84 1078.36,348.46 1081.86,348.86 1085.37,346.84 1088.87,349.26 1092.38,348.05 1095.88,349.26 1099.39,349.26 1102.89,350.48 1106.40,352.90 1109.90,349.67 1113.41,348.46 1116.91,345.62 1120.42,344.82 1123.92,344.41 1127.43,342.39 1130.93,341.18 1134.44,341.58 1137.94,339.15 1141.45,338.35 1144.95,337.54 1148.46,336.73 1151.96,335.92 1155.47,337.54 1158.97,338.35 1162.48,337.54 1165.98,337.54 1169.49,337.54 1172.99,333.09 1176.50,333.90 1180.00,335.92"/>
<circle cx="90.00" cy="540.55" r="3.2" fill="#1d4ed8"/>
<circle cx="93.50" cy="538.53" r="3.2" fill="#1d4ed8"/>
<circle cx="97.01" cy="536.91" r="3.2" fill="#1d4ed8"/>
<circle cx="100.51" cy="534.49" r="3.2" fill="#1d4ed8"/>
<circle cx="104.02" cy="534.49" r="3.2" fill="#1d4ed8"/>
<circle cx="107.52" cy="533.27" r="3.2" fill="#1d4ed8"/>
<circle cx="111.03" cy="532.46" r="3.2" fill="#1d4ed8"/>
<circle cx="114.53" cy="532.87" r="3.2" fill="#1d4ed8"/>
<circle cx="118.04" cy="532.06" r="3.2" fill="#1d4ed8"/>
<circle cx="121.54" cy="532.46" r="3.2" fill="#1d4ed8"/>
<circle cx="125.05" cy="532.06" r="3.2" fill="#1d4ed8"/>
<circle cx="128.55" cy="568.46" r="3.2" fill="#1d4ed8"/>
<circle cx="132.06" cy="568.46" r="3.2" fill="#1d4ed8"/>
<circle cx="135.56" cy="566.43" r="3.2" fill="#1d4ed8"/>
<circle cx="139.07" cy="545.00" r="3.2" fill="#1d4ed8"/>
<circle cx="142.57" cy="545.00" r="3.2" fill="#1d4ed8"/>
<circle cx="146.08" cy="544.19" r="3.2" fill="#1d4ed8"/>
<circle cx="149.58" cy="543.79" r="3.2" fill="#1d4ed8"/>
<circle cx="153.09" cy="543.79" r="3.2" fill="#1d4ed8"/>
<circle cx="156.59" cy="543.38" r="3.2" fill="#1d4ed8"/>
<circle cx="160.10" cy="541.76" r="3.2" fill="#1d4ed8"/>
<circle cx="163.60" cy="541.36" r="3.2" fill="#1d4ed8"/>
<circle cx="167.11" cy="540.96" r="3.2" fill="#1d4ed8"/>
<circle cx="170.61" cy="540.96" r="3.2" fill="#1d4ed8"/>
<circle cx="174.12" cy="539.34" r="3.2" fill="#1d4ed8"/>
<circle cx="177.62" cy="539.34" r="3.2" fill="#1d4ed8"/>
<circle cx="181.13" cy="556.73" r="3.2" fill="#1d4ed8"/>
<circle cx="184.63" cy="556.73" r="3.2" fill="#1d4ed8"/>
<circle cx="188.14" cy="555.51" r="3.2" fill="#1d4ed8"/>
<circle cx="191.64" cy="551.07" r="3.2" fill="#1d4ed8"/>
<circle cx="195.14" cy="538.93" r="3.2" fill="#1d4ed8"/>
<circle cx="198.65" cy="538.93" r="3.2" fill="#1d4ed8"/>
<circle cx="202.15" cy="538.93" r="3.2" fill="#1d4ed8"/>
<circle cx="205.66" cy="538.12" r="3.2" fill="#1d4ed8"/>
<circle cx="209.16" cy="536.91" r="3.2" fill="#1d4ed8"/>
<circle cx="212.67" cy="536.91" r="3.2" fill="#1d4ed8"/>
<circle cx="216.17" cy="536.51" r="3.2" fill="#1d4ed8"/>
<circle cx="219.68" cy="536.51" r="3.2" fill="#1d4ed8"/>
<circle cx="223.18" cy="556.73" r="3.2" fill="#1d4ed8"/>
<circle cx="226.69" cy="556.73" r="3.2" fill="#1d4ed8"/>
<circle cx="230.19" cy="556.73" r="3.2" fill="#1d4ed8"/>
<circle cx="233.70" cy="556.73" r="3.2" fill="#1d4ed8"/>
<circle cx="237.20" cy="535.29" r="3.2" fill="#1d4ed8"/>
<circle cx="240.71" cy="535.29" r="3.2" fill="#1d4ed8"/>
<circle cx="244.21" cy="535.29" r="3.2" fill="#1d4ed8"/>
<circle cx="247.72" cy="535.29" r="3.2" fill="#1d4ed8"/>
<circle cx="251.22" cy="534.49" r="3.2" fill="#1d4ed8"/>
<circle cx="254.73" cy="534.08" r="3.2" fill="#1d4ed8"/>
<circle cx="258.23" cy="533.68" r="3.2" fill="#1d4ed8"/>
<circle cx="261.74" cy="532.87" r="3.2" fill="#1d4ed8"/>
<circle cx="265.24" cy="532.06" r="3.2" fill="#1d4ed8"/>
<circle cx="268.75" cy="532.06" r="3.2" fill="#1d4ed8"/>
<circle cx="272.25" cy="531.25" r="3.2" fill="#1d4ed8"/>
<circle cx="275.76" cy="530.85" r="3.2" fill="#1d4ed8"/>
<circle cx="279.26" cy="530.44" r="3.2" fill="#1d4ed8"/>
<circle cx="282.77" cy="530.04" r="3.2" fill="#1d4ed8"/>
<circle cx="286.27" cy="530.04" r="3.2" fill="#1d4ed8"/>
<circle cx="289.77" cy="529.23" r="3.2" fill="#1d4ed8"/>
<circle cx="293.28" cy="529.23" r="3.2" fill="#1d4ed8"/>
<circle cx="296.78" cy="529.23" r="3.2" fill="#1d4ed8"/>
<circle cx="300.29" cy="528.42" r="3.2" fill="#1d4ed8"/>
<circle cx="303.79" cy="528.42" r="3.2" fill="#1d4ed8"/>
<circle cx="307.30" cy="527.61" r="3.2" fill="#1d4ed8"/>
<circle cx="310.80" cy="527.21" r="3.2" fill="#1d4ed8"/>
<circle cx="314.31" cy="526.80" r="3.2" fill="#1d4ed8"/>
<circle cx="317.81" cy="526.40" r="3.2" fill="#1d4ed8"/>
<circle cx="321.32" cy="525.18" r="3.2" fill="#1d4ed8"/>
<circle cx="324.82" cy="523.57" r="3.2" fill="#1d4ed8"/>
<circle cx="328.33" cy="523.57" r="3.2" fill="#1d4ed8"/>
<circle cx="331.83" cy="523.16" r="3.2" fill="#1d4ed8"/>
<circle cx="335.34" cy="522.76" r="3.2" fill="#1d4ed8"/>
<circle cx="338.84" cy="522.35" r="3.2" fill="#1d4ed8"/>
<circle cx="342.35" cy="521.54" r="3.2" fill="#1d4ed8"/>
<circle cx="345.85" cy="519.52" r="3.2" fill="#1d4ed8"/>
<circle cx="349.36" cy="517.50" r="3.2" fill="#1d4ed8"/>
<circle cx="352.86" cy="517.50" r="3.2" fill="#1d4ed8"/>
<circle cx="356.37" cy="517.50" r="3.2" fill="#1d4ed8"/>
<circle cx="359.87" cy="517.50" r="3.2" fill="#1d4ed8"/>
<circle cx="363.38" cy="517.50" r="3.2" fill="#1d4ed8"/>
<circle cx="366.88" cy="517.50" r="3.2" fill="#1d4ed8"/>
<circle cx="370.39" cy="517.10" r="3.2" fill="#1d4ed8"/>
<circle cx="373.89" cy="516.69" r="3.2" fill="#1d4ed8"/>
<circle cx="377.40" cy="515.48" r="3.2" fill="#1d4ed8"/>
<circle cx="380.90" cy="515.07" r="3.2" fill="#1d4ed8"/>
<circle cx="384.41" cy="514.67" r="3.2" fill="#1d4ed8"/>
<circle cx="387.91" cy="513.86" r="3.2" fill="#1d4ed8"/>
<circle cx="391.41" cy="514.26" r="3.2" fill="#1d4ed8"/>
<circle cx="394.92" cy="512.24" r="3.2" fill="#1d4ed8"/>
<circle cx="398.42" cy="511.84" r="3.2" fill="#1d4ed8"/>
<circle cx="401.93" cy="511.84" r="3.2" fill="#1d4ed8"/>
<circle cx="405.43" cy="511.03" r="3.2" fill="#1d4ed8"/>
<circle cx="408.94" cy="509.82" r="3.2" fill="#1d4ed8"/>
<circle cx="412.44" cy="507.79" r="3.2" fill="#1d4ed8"/>
<circle cx="415.95" cy="506.99" r="3.2" fill="#1d4ed8"/>
<circle cx="419.45" cy="506.58" r="3.2" fill="#1d4ed8"/>
<circle cx="422.96" cy="509.41" r="3.2" fill="#1d4ed8"/>
<circle cx="426.46" cy="509.01" r="3.2" fill="#1d4ed8"/>
<circle cx="429.97" cy="504.96" r="3.2" fill="#1d4ed8"/>
<circle cx="433.47" cy="504.56" r="3.2" fill="#1d4ed8"/>
<circle cx="436.98" cy="504.15" r="3.2" fill="#1d4ed8"/>
<circle cx="440.48" cy="504.56" r="3.2" fill="#1d4ed8"/>
<circle cx="443.99" cy="503.75" r="3.2" fill="#1d4ed8"/>
<circle cx="447.49" cy="503.75" r="3.2" fill="#1d4ed8"/>
<circle cx="451.00" cy="503.35" r="3.2" fill="#1d4ed8"/>
<circle cx="454.50" cy="499.30" r="3.2" fill="#1d4ed8"/>
<circle cx="458.01" cy="496.47" r="3.2" fill="#1d4ed8"/>
<circle cx="461.51" cy="490.00" r="3.2" fill="#1d4ed8"/>
<circle cx="465.02" cy="484.34" r="3.2" fill="#1d4ed8"/>
<circle cx="468.52" cy="481.10" r="3.2" fill="#1d4ed8"/>
<circle cx="472.03" cy="480.29" r="3.2" fill="#1d4ed8"/>
<circle cx="475.53" cy="480.70" r="3.2" fill="#1d4ed8"/>
<circle cx="479.04" cy="460.88" r="3.2" fill="#1d4ed8"/>
<circle cx="482.54" cy="459.26" r="3.2" fill="#1d4ed8"/>
<circle cx="486.05" cy="458.05" r="3.2" fill="#1d4ed8"/>
<circle cx="489.55" cy="456.03" r="3.2" fill="#1d4ed8"/>
<circle cx="493.05" cy="456.03" r="3.2" fill="#1d4ed8"/>
<circle cx="496.56" cy="454.41" r="3.2" fill="#1d4ed8"/>
<circle cx="500.06" cy="450.77" r="3.2" fill="#1d4ed8"/>
<circle cx="503.57" cy="444.30" r="3.2" fill="#1d4ed8"/>
<circle cx="507.07" cy="443.90" r="3.2" fill="#1d4ed8"/>
<circle cx="510.58" cy="600.00" r="3.2" fill="#1d4ed8"/>
<circle cx="514.08" cy="441.88" r="3.2" fill="#1d4ed8"/>
<circle cx="517.59" cy="440.66" r="3.2" fill="#1d4ed8"/>
<circle cx="521.09" cy="439.45" r="3.2" fill="#1d4ed8"/>
<circle cx="524.60" cy="439.04" r="3.2" fill="#1d4ed8"/>
<circle cx="528.10" cy="438.64" r="3.2" fill="#1d4ed8"/>
<circle cx="531.61" cy="437.83" r="3.2" fill="#1d4ed8"/>
<circle cx="535.11" cy="436.62" r="3.2" fill="#1d4ed8"/>
<circle cx="538.62" cy="436.62" r="3.2" fill="#1d4ed8"/>
<circle cx="542.12" cy="434.60" r="3.2" fill="#1d4ed8"/>
<circle cx="545.63" cy="432.17" r="3.2" fill="#1d4ed8"/>
<circle cx="549.13" cy="429.34" r="3.2" fill="#1d4ed8"/>
<circle cx="552.64" cy="428.93" r="3.2" fill="#1d4ed8"/>
<circle cx="556.14" cy="428.53" r="3.2" fill="#1d4ed8"/>
<circle cx="559.65" cy="427.72" r="3.2" fill="#1d4ed8"/>
<circle cx="563.15" cy="426.91" r="3.2" fill="#1d4ed8"/>
<circle cx="566.66" cy="426.10" r="3.2" fill="#1d4ed8"/>
<circle cx="570.16" cy="426.10" r="3.2" fill="#1d4ed8"/>
<circle cx="573.67" cy="426.10" r="3.2" fill="#1d4ed8"/>
<circle cx="577.17" cy="419.63" r="3.2" fill="#1d4ed8"/>
<circle cx="580.68" cy="419.23" r="3.2" fill="#1d4ed8"/>
<circle cx="584.18" cy="418.42" r="3.2" fill="#1d4ed8"/>
<circle cx="587.68" cy="418.01" r="3.2" fill="#1d4ed8"/>
<circle cx="591.19" cy="417.61" r="3.2" fill="#1d4ed8"/>
<circle cx="594.69" cy="417.61" r="3.2" fill="#1d4ed8"/>
<circle cx="598.20" cy="417.61" r="3.2" fill="#1d4ed8"/>
<circle cx="601.70" cy="417.21" r="3.2" fill="#1d4ed8"/>
<circle cx="605.21" cy="417.21" r="3.2" fill="#1d4ed8"/>
<circle cx="608.71" cy="413.57" r="3.2" fill="#1d4ed8"/>
<circle cx="612.22" cy="411.95" r="3.2" fill="#1d4ed8"/>
<circle cx="615.72" cy="412.76" r="3.2" fill="#1d4ed8"/>
<circle cx="619.23" cy="410.74" r="3.2" fill="#1d4ed8"/>
<circle cx="622.73" cy="410.74" r="3.2" fill="#1d4ed8"/>
<circle cx="626.24" cy="410.33" r="3.2" fill="#1d4ed8"/>
<circle cx="629.74" cy="410.33" r="3.2" fill="#1d4ed8"/>
<circle cx="633.25" cy="410.33" r="3.2" fill="#1d4ed8"/>
<circle cx="636.75" cy="409.93" r="3.2" fill="#1d4ed8"/>
<circle cx="640.26" cy="409.93" r="3.2" fill="#1d4ed8"/>
<circle cx="643.76" cy="409.93" r="3.2" fill="#1d4ed8"/>
<circle cx="647.27" cy="409.52" r="3.2" fill="#1d4ed8"/>
<circle cx="650.77" cy="409.52" r="3.2" fill="#1d4ed8"/>
<circle cx="654.28" cy="409.12" r="3.2" fill="#1d4ed8"/>
<circle cx="657.78" cy="409.52" r="3.2" fill="#1d4ed8"/>
<circle cx="661.29" cy="409.12" r="3.2" fill="#1d4ed8"/>
<circle cx="664.79" cy="407.50" r="3.2" fill="#1d4ed8"/>
<circle cx="668.30" cy="407.10" r="3.2" fill="#1d4ed8"/>
<circle cx="671.80" cy="403.05" r="3.2" fill="#1d4ed8"/>
<circle cx="675.31" cy="399.82" r="3.2" fill="#1d4ed8"/>
<circle cx="678.81" cy="400.22" r="3.2" fill="#1d4ed8"/>
<circle cx="682.32" cy="400.62" r="3.2" fill="#1d4ed8"/>
<circle cx="685.82" cy="400.62" r="3.2" fill="#1d4ed8"/>
<circle cx="689.32" cy="399.41" r="3.2" fill="#1d4ed8"/>
<circle cx="692.83" cy="392.94" r="3.2" fill="#1d4ed8"/>
<circle cx="696.33" cy="391.32" r="3.2" fill="#1d4ed8"/>
<circle cx="699.84" cy="389.30" r="3.2" fill="#1d4ed8"/>
<circle cx="703.34" cy="389.30" r="3.2" fill="#1d4ed8"/>
<circle cx="706.85" cy="388.49" r="3.2" fill="#1d4ed8"/>
<circle cx="710.35" cy="375.15" r="3.2" fill="#1d4ed8"/>
<circle cx="713.86" cy="374.74" r="3.2" fill="#1d4ed8"/>
<circle cx="717.36" cy="374.74" r="3.2" fill="#1d4ed8"/>
<circle cx="720.87" cy="374.74" r="3.2" fill="#1d4ed8"/>
<circle cx="724.37" cy="374.74" r="3.2" fill="#1d4ed8"/>
<circle cx="727.88" cy="374.34" r="3.2" fill="#1d4ed8"/>
<circle cx="731.38" cy="374.34" r="3.2" fill="#1d4ed8"/>
<circle cx="734.89" cy="374.34" r="3.2" fill="#1d4ed8"/>
<circle cx="738.39" cy="374.34" r="3.2" fill="#1d4ed8"/>
<circle cx="741.90" cy="374.34" r="3.2" fill="#1d4ed8"/>
<circle cx="745.40" cy="373.93" r="3.2" fill="#1d4ed8"/>
<circle cx="748.91" cy="373.12" r="3.2" fill="#1d4ed8"/>
<circle cx="752.41" cy="372.72" r="3.2" fill="#1d4ed8"/>
<circle cx="755.92" cy="373.53" r="3.2" fill="#1d4ed8"/>
<circle cx="759.42" cy="435.81" r="3.2" fill="#1d4ed8"/>
<circle cx="762.93" cy="372.32" r="3.2" fill="#1d4ed8"/>
<circle cx="766.43" cy="372.72" r="3.2" fill="#1d4ed8"/>
<circle cx="769.94" cy="371.91" r="3.2" fill="#1d4ed8"/>
<circle cx="773.44" cy="371.91" r="3.2" fill="#1d4ed8"/>
<circle cx="776.95" cy="372.32" r="3.2" fill="#1d4ed8"/>
<circle cx="780.45" cy="371.10" r="3.2" fill="#1d4ed8"/>
<circle cx="783.95" cy="369.89" r="3.2" fill="#1d4ed8"/>
<circle cx="787.46" cy="369.89" r="3.2" fill="#1d4ed8"/>
<circle cx="790.96" cy="369.89" r="3.2" fill="#1d4ed8"/>
<circle cx="794.47" cy="369.49" r="3.2" fill="#1d4ed8"/>
<circle cx="797.97" cy="369.89" r="3.2" fill="#1d4ed8"/>
<circle cx="801.48" cy="369.08" r="3.2" fill="#1d4ed8"/>
<circle cx="804.98" cy="368.68" r="3.2" fill="#1d4ed8"/>
<circle cx="808.49" cy="368.27" r="3.2" fill="#1d4ed8"/>
<circle cx="811.99" cy="367.87" r="3.2" fill="#1d4ed8"/>
<circle cx="815.50" cy="367.06" r="3.2" fill="#1d4ed8"/>
<circle cx="819.00" cy="367.46" r="3.2" fill="#1d4ed8"/>
<circle cx="822.51" cy="367.06" r="3.2" fill="#1d4ed8"/>
<circle cx="826.01" cy="366.25" r="3.2" fill="#1d4ed8"/>
<circle cx="829.52" cy="368.27" r="3.2" fill="#1d4ed8"/>
<circle cx="833.02" cy="368.68" r="3.2" fill="#1d4ed8"/>
<circle cx="836.53" cy="368.68" r="3.2" fill="#1d4ed8"/>
<circle cx="840.03" cy="368.27" r="3.2" fill="#1d4ed8"/>
<circle cx="843.54" cy="369.08" r="3.2" fill="#1d4ed8"/>
<circle cx="847.04" cy="367.87" r="3.2" fill="#1d4ed8"/>
<circle cx="850.55" cy="367.46" r="3.2" fill="#1d4ed8"/>
<circle cx="854.05" cy="367.06" r="3.2" fill="#1d4ed8"/>
<circle cx="857.56" cy="360.18" r="3.2" fill="#1d4ed8"/>
<circle cx="861.06" cy="359.78" r="3.2" fill="#1d4ed8"/>
<circle cx="864.57" cy="359.38" r="3.2" fill="#1d4ed8"/>
<circle cx="868.07" cy="356.95" r="3.2" fill="#1d4ed8"/>
<circle cx="871.58" cy="357.35" r="3.2" fill="#1d4ed8"/>
<circle cx="875.08" cy="357.76" r="3.2" fill="#1d4ed8"/>
<circle cx="878.59" cy="355.33" r="3.2" fill="#1d4ed8"/>
<circle cx="882.09" cy="355.74" r="3.2" fill="#1d4ed8"/>
<circle cx="885.59" cy="357.35" r="3.2" fill="#1d4ed8"/>
<circle cx="889.10" cy="355.33" r="3.2" fill="#1d4ed8"/>
<circle cx="892.60" cy="356.14" r="3.2" fill="#1d4ed8"/>
<circle cx="896.11" cy="355.74" r="3.2" fill="#1d4ed8"/>
<circle cx="899.61" cy="356.14" r="3.2" fill="#1d4ed8"/>
<circle cx="903.12" cy="354.12" r="3.2" fill="#1d4ed8"/>
<circle cx="906.62" cy="354.93" r="3.2" fill="#1d4ed8"/>
<circle cx="910.13" cy="356.14" r="3.2" fill="#1d4ed8"/>
<circle cx="913.63" cy="354.52" r="3.2" fill="#1d4ed8"/>
<circle cx="917.14" cy="353.71" r="3.2" fill="#1d4ed8"/>
<circle cx="920.64" cy="354.12" r="3.2" fill="#1d4ed8"/>
<circle cx="924.15" cy="354.93" r="3.2" fill="#1d4ed8"/>
<circle cx="927.65" cy="352.90" r="3.2" fill="#1d4ed8"/>
<circle cx="931.16" cy="353.71" r="3.2" fill="#1d4ed8"/>
<circle cx="934.66" cy="353.31" r="3.2" fill="#1d4ed8"/>
<circle cx="938.17" cy="353.31" r="3.2" fill="#1d4ed8"/>
<circle cx="941.67" cy="354.52" r="3.2" fill="#1d4ed8"/>
<circle cx="945.18" cy="352.90" r="3.2" fill="#1d4ed8"/>
<circle cx="948.68" cy="352.50" r="3.2" fill="#1d4ed8"/>
<circle cx="952.19" cy="352.50" r="3.2" fill="#1d4ed8"/>
<circle cx="955.69" cy="353.31" r="3.2" fill="#1d4ed8"/>
<circle cx="959.20" cy="352.50" r="3.2" fill="#1d4ed8"/>
<circle cx="962.70" cy="353.71" r="3.2" fill="#1d4ed8"/>
<circle cx="966.21" cy="354.12" r="3.2" fill="#1d4ed8"/>
<circle cx="969.71" cy="352.50" r="3.2" fill="#1d4ed8"/>
<circle cx="973.22" cy="352.90" r="3.2" fill="#1d4ed8"/>
<circle cx="976.72" cy="352.50" r="3.2" fill="#1d4ed8"/>
<circle cx="980.23" cy="352.10" r="3.2" fill="#1d4ed8"/>
<circle cx="983.73" cy="351.69" r="3.2" fill="#1d4ed8"/>
<circle cx="987.23" cy="352.10" r="3.2" fill="#1d4ed8"/>
<circle cx="990.74" cy="354.12" r="3.2" fill="#1d4ed8"/>
<circle cx="994.24" cy="352.50" r="3.2" fill="#1d4ed8"/>
<circle cx="997.75" cy="352.10" r="3.2" fill="#1d4ed8"/>
<circle cx="1001.25" cy="352.10" r="3.2" fill="#1d4ed8"/>
<circle cx="1004.76" cy="349.67" r="3.2" fill="#1d4ed8"/>
<circle cx="1008.26" cy="349.67" r="3.2" fill="#1d4ed8"/>
<circle cx="1011.77" cy="350.88" r="3.2" fill="#1d4ed8"/>
<circle cx="1015.27" cy="351.29" r="3.2" fill="#1d4ed8"/>
<circle cx="1018.78" cy="350.48" r="3.2" fill="#1d4ed8"/>
<circle cx="1022.28" cy="352.10" r="3.2" fill="#1d4ed8"/>
<circle cx="1025.79" cy="350.48" r="3.2" fill="#1d4ed8"/>
<circle cx="1029.29" cy="350.48" r="3.2" fill="#1d4ed8"/>
<circle cx="1032.80" cy="350.48" r="3.2" fill="#1d4ed8"/>
<circle cx="1036.30" cy="350.07" r="3.2" fill="#1d4ed8"/>
<circle cx="1039.81" cy="348.46" r="3.2" fill="#1d4ed8"/>
<circle cx="1043.31" cy="351.29" r="3.2" fill="#1d4ed8"/>
<circle cx="1046.82" cy="349.67" r="3.2" fill="#1d4ed8"/>
<circle cx="1050.32" cy="351.29" r="3.2" fill="#1d4ed8"/>
<circle cx="1053.83" cy="349.67" r="3.2" fill="#1d4ed8"/>
<circle cx="1057.33" cy="348.86" r="3.2" fill="#1d4ed8"/>
<circle cx="1060.84" cy="348.46" r="3.2" fill="#1d4ed8"/>
<circle cx="1064.34" cy="348.46" r="3.2" fill="#1d4ed8"/>
<circle cx="1067.85" cy="347.24" r="3.2" fill="#1d4ed8"/>
<circle cx="1071.35" cy="348.86" r="3.2" fill="#1d4ed8"/>
<circle cx="1074.86" cy="346.84" r="3.2" fill="#1d4ed8"/>
<circle cx="1078.36" cy="348.46" r="3.2" fill="#1d4ed8"/>
<circle cx="1081.86" cy="348.86" r="3.2" fill="#1d4ed8"/>
<circle cx="1085.37" cy="346.84" r="3.2" fill="#1d4ed8"/>
<circle cx="1088.87" cy="349.26" r="3.2" fill="#1d4ed8"/>
<circle cx="1092.38" cy="348.05" r="3.2" fill="#1d4ed8"/>
<circle cx="1095.88" cy="349.26" r="3.2" fill="#1d4ed8"/>
<circle cx="1099.39" cy="349.26" r="3.2" fill="#1d4ed8"/>
<circle cx="1102.89" cy="350.48" r="3.2" fill="#1d4ed8"/>
<circle cx="1106.40" cy="352.90" r="3.2" fill="#1d4ed8"/>
<circle cx="1109.90" cy="349.67" r="3.2" fill="#1d4ed8"/>
<circle cx="1113.41" cy="348.46" r="3.2" fill="#1d4ed8"/>
<circle cx="1116.91" cy="345.62" r="3.2" fill="#1d4ed8"/>
<circle cx="1120.42" cy="344.82" r="3.2" fill="#1d4ed8"/>
<circle cx="1123.92" cy="344.41" r="3.2" fill="#1d4ed8"/>
<circle cx="1127.43" cy="342.39" r="3.2" fill="#1d4ed8"/>
<circle cx="1130.93" cy="341.18" r="3.2" fill="#1d4ed8"/>
<circle cx="1134.44" cy="341.58" r="3.2" fill="#1d4ed8"/>
<circle cx="1137.94" cy="339.15" r="3.2" fill="#1d4ed8"/>
<circle cx="1141.45" cy="338.35" r="3.2" fill="#1d4ed8"/>
<circle cx="1144.95" cy="337.54" r="3.2" fill="#1d4ed8"/>
<circle cx="1148.46" cy="336.73" r="3.2" fill="#1d4ed8"/>
<circle cx="1151.96" cy="335.92" r="3.2" fill="#1d4ed8"/>
<circle cx="1155.47" cy="337.54" r="3.2" fill="#1d4ed8"/>
<circle cx="1158.97" cy="338.35" r="3.2" fill="#1d4ed8"/>
<circle cx="1162.48" cy="337.54" r="3.2" fill="#1d4ed8"/>
<circle cx="1165.98" cy="337.54" r="3.2" fill="#1d4ed8"/>
<circle cx="1169.49" cy="337.54" r="3.2" fill="#1d4ed8"/>
<circle cx="1172.99" cy="333.09" r="3.2" fill="#1d4ed8"/>
<circle cx="1176.50" cy="333.90" r="3.2" fill="#1d4ed8"/>
<circle cx="1180.00" cy="335.92" r="3.2" fill="#1d4ed8"/>
<text x="635" y="695" text-anchor="middle" font-size="14" fill="#111" font-family="sans-serif">Date</text>
<text x="24" y="325" text-anchor="middle" font-size="14" fill="#111" transform="rotate(-90 24,325)" font-family="sans-serif">Passed files</text>
</svg>
