<?xml version="1.0" encoding="UTF-8"?>
<svg xmlns="http://www.w3.org/2000/svg" width="1280" height="720" viewBox="0 0 1280 720">
<rect width="100%" height="100%" fill="#ffffff"/>
<text x="640" y="30" text-anchor="middle" font-size="22" font-family="sans-serif">Roast passed files history</text>
<line x1="90" y1="600" x2="1180" y2="600" stroke="#333" stroke-width="1.5"/>
<line x1="90" y1="50" x2="90" y2="600" stroke="#333" stroke-width="1.5"/>
<line x1="90" y1="600.00" x2="1180" y2="600.00" stroke="#e5e7eb" stroke-width="1"/>
<text x="78" y="605.00" text-anchor="end" font-size="12" fill="#111" font-family="sans-serif">0</text>
<line x1="90" y1="397.79" x2="1180" y2="397.79" stroke="#e5e7eb" stroke-width="1"/>
<text x="78" y="402.79" text-anchor="end" font-size="12" fill="#111" font-family="sans-serif">500</text>
<line x1="90" y1="195.59" x2="1180" y2="195.59" stroke="#e5e7eb" stroke-width="1"/>
<text x="78" y="200.59" text-anchor="end" font-size="12" fill="#111" font-family="sans-serif">1000</text>
<line x1="90.00" y1="600" x2="90.00" y2="606" stroke="#333" stroke-width="1"/>
<text x="90.00" y="624" text-anchor="end" font-size="11" fill="#111" transform="rotate(-40 90.00,624)" font-family="sans-serif">2026-02-12</text>
<line x1="225.02" y1="600" x2="225.02" y2="606" stroke="#333" stroke-width="1"/>
<text x="225.02" y="624" text-anchor="end" font-size="11" fill="#111" transform="rotate(-40 225.02,624)" font-family="sans-serif">2026-02-17</text>
<line x1="360.03" y1="600" x2="360.03" y2="606" stroke="#333" stroke-width="1"/>
<text x="360.03" y="624" text-anchor="end" font-size="11" fill="#111" transform="rotate(-40 360.03,624)" font-family="sans-serif">2026-02-21</text>
<line x1="495.05" y1="600" x2="495.05" y2="606" stroke="#333" stroke-width="1"/>
<text x="495.05" y="624" text-anchor="end" font-size="11" fill="#111" transform="rotate(-40 495.05,624)" font-family="sans-serif">2026-02-25</text>
<line x1="630.06" y1="600" x2="630.06" y2="606" stroke="#333" stroke-width="1"/>
<text x="630.06" y="624" text-anchor="end" font-size="11" fill="#111" transform="rotate(-40 630.06,624)" font-family="sans-serif">2026-02-27</text>
<line x1="765.08" y1="600" x2="765.08" y2="606" stroke="#333" stroke-width="1"/>
<text x="765.08" y="624" text-anchor="end" font-size="11" fill="#111" transform="rotate(-40 765.08,624)" font-family="sans-serif">2026-03-01</text>
<line x1="900.09" y1="600" x2="900.09" y2="606" stroke="#333" stroke-width="1"/>
<text x="900.09" y="624" text-anchor="end" font-size="11" fill="#111" transform="rotate(-40 900.09,624)" font-family="sans-serif">2026-03-06</text>
<line x1="1035.11" y1="600" x2="1035.11" y2="606" stroke="#333" stroke-width="1"/>
<text x="1035.11" y="624" text-anchor="end" font-size="11" fill="#111" transform="rotate(-40 1035.11,624)" font-family="sans-serif">2026-03-07</text>
<line x1="1170.12" y1="600" x2="1170.12" y2="606" stroke="#333" stroke-width="1"/>
<text x="1170.12" y="624" text-anchor="end" font-size="11" fill="#111" transform="rotate(-40 1170.12,624)" font-family="sans-serif">2026-03-11</text>
<line x1="1180.00" y1="600" x2="1180.00" y2="606" stroke="#333" stroke-width="1"/>
<text x="1180.00" y="624" text-anchor="end" font-size="11" fill="#111" transform="rotate(-40 1180.00,624)" font-family="sans-serif">2026-03-11</text>
<line x1="90" y1="75.88" x2="1180" y2="75.88" stroke="#dc2626" stroke-width="1.5" stroke-dasharray="8,4"/>
<text x="1184" y="79.88" font-size="12" fill="#dc2626" font-family="sans-serif">Goal: 1296</text>
<polyline fill="none" stroke="#2563eb" stroke-width="3" points="90.00,540.55 93.29,538.53 96.59,536.91 99.88,534.49 103.17,534.49 106.47,533.27 109.76,532.46 113.05,532.87 116.34,532.06 119.64,532.46 122.93,532.06 126.22,568.46 129.52,568.46 132.81,566.43 136.10,545.00 139.40,545.00 142.69,544.19 145.98,543.79 149.27,543.79 152.57,543.38 155.86,541.76 159.15,541.36 162.45,540.96 165.74,540.96 169.03,539.34 172.33,539.34 175.62,556.73 178.91,556.73 182.21,555.51 185.50,551.07 188.79,538.93 192.08,538.93 195.38,538.93 198.67,538.12 201.96,536.91 205.26,536.91 208.55,536.51 211.84,536.51 215.14,556.73 218.43,556.73 221.72,556.73 225.02,556.73 228.31,535.29 231.60,535.29 234.89,535.29 238.19,535.29 241.48,534.49 244.77,534.08 248.07,533.68 251.36,532.87 254.65,532.06 257.95,532.06 261.24,531.25 264.53,530.85 267.82,530.44 271.12,530.04 274.41,530.04 277.70,529.23 281.00,529.23 284.29,529.23 287.58,528.42 290.88,528.42 294.17,527.61 297.46,527.21 300.76,526.80 304.05,526.40 307.34,525.18 310.63,523.57 313.93,523.57 317.22,523.16 320.51,522.76 323.81,522.35 327.10,521.54 330.39,519.52 333.69,517.50 336.98,517.50 340.27,517.50 343.56,517.50 346.86,517.50 350.15,517.50 353.44,517.10 356.74,516.69 360.03,515.48 363.32,515.07 366.62,514.67 369.91,513.86 373.20,514.26 376.50,512.24 379.79,511.84 383.08,511.84 386.37,511.03 389.67,509.82 392.96,507.79 396.25,506.99 399.55,506.58 402.84,509.41 406.13,509.01 409.43,504.96 412.72,504.56 416.01,504.15 419.31,504.56 422.60,503.75 425.89,503.75 429.18,503.35 432.48,499.30 435.77,496.47 439.06,490.00 442.36,484.34 445.65,481.10 448.94,480.29 452.24,480.70 455.53,460.88 458.82,459.26 462.11,458.05 465.41,456.03 468.70,456.03 471.99,454.41 475.29,450.77 478.58,444.30 481.87,443.90 485.17,600.00 488.46,441.88 491.75,440.66 495.05,439.45 498.34,439.04 501.63,438.64 504.92,437.83 508.22,436.62 511.51,436.62 514.80,434.60 518.10,432.17 521.39,429.34 524.68,428.93 527.98,428.53 531.27,427.72 534.56,426.91 537.85,426.10 541.15,426.10 544.44,426.10 547.73,419.63 551.03,419.23 554.32,418.42 557.61,418.01 560.91,417.61 564.20,417.61 567.49,417.61 570.79,417.21 574.08,417.21 577.37,413.57 580.66,411.95 583.96,412.76 587.25,410.74 590.54,410.74 593.84,410.33 597.13,410.33 600.42,410.33 603.72,409.93 607.01,409.93 610.30,409.93 613.60,409.52 616.89,409.52 620.18,409.12 623.47,409.52 626.77,409.12 630.06,407.50 633.35,407.10 636.65,403.05 639.94,399.82 643.23,400.22 646.53,400.62 649.82,400.62 653.11,399.41 656.40,392.94 659.70,391.32 662.99,389.30 666.28,389.30 669.58,388.49 672.87,375.15 676.16,374.74 679.46,374.74 682.75,374.74 686.04,374.74 689.34,374.34 692.63,374.34 695.92,374.34 699.21,374.34 702.51,374.34 705.80,373.93 709.09,373.12 712.39,372.72 715.68,373.53 718.97,435.81 722.27,372.32 725.56,372.72 728.85,371.91 732.15,371.91 735.44,372.32 738.73,371.10 742.02,369.89 745.32,369.89 748.61,369.89 751.90,369.49 755.20,369.89 758.49,369.08 761.78,368.68 765.08,368.27 768.37,367.87 771.66,367.06 774.95,367.46 778.25,367.06 781.54,366.25 784.83,368.27 788.13,368.68 791.42,368.68 794.71,368.27 798.01,369.08 801.30,367.87 804.59,367.46 807.89,367.06 811.18,360.18 814.47,359.78 817.76,359.38 821.06,356.95 824.35,357.35 827.64,357.76 830.94,355.33 834.23,355.74 837.52,357.35 840.82,355.33 844.11,356.14 847.40,355.74 850.69,356.14 853.99,354.12 857.28,354.93 860.57,356.14 863.87,354.52 867.16,353.71 870.45,354.12 873.75,354.93 877.04,352.90 880.33,353.71 883.63,353.31 886.92,353.31 890.21,354.52 893.50,352.90 896.80,352.50 900.09,352.50 903.38,353.31 906.68,352.50 909.97,353.71 913.26,354.12 916.56,352.50 919.85,352.90 923.14,352.50 926.44,352.10 929.73,351.69 933.02,352.10 936.31,354.12 939.61,352.50 942.90,352.10 946.19,352.10 949.49,349.67 952.78,349.67 956.07,350.88 959.37,351.29 962.66,350.48 965.95,352.10 969.24,350.48 972.54,350.48 975.83,350.48 979.12,350.07 982.42,348.46 985.71,351.29 989.00,349.67 992.30,351.29 995.59,349.67 998.88,348.86 1002.18,348.46 1005.47,348.46 1008.76,347.24 1012.05,348.86 1015.35,346.84 1018.64,348.46 1021.93,348.86 1025.23,346.84 1028.52,349.26 1031.81,348.05 1035.11,349.26 1038.40,349.26 1041.69,350.48 1044.98,352.90 1048.28,349.67 1051.57,348.46 1054.86,345.62 1058.16,344.82 1061.45,344.41 1064.74,342.39 1068.04,341.18 1071.33,341.58 1074.62,339.15 1077.92,338.35 1081.21,337.54 1084.50,336.73 1087.79,335.92 1091.09,337.54 1094.38,338.35 1097.67,337.54 1100.97,337.54 1104.26,337.54 1107.55,333.09 1110.85,333.90 1114.14,335.92 1117.43,336.73 1120.73,335.51 1124.02,332.28 1127.31,331.47 1130.60,331.07 1133.90,331.47 1137.19,331.07 1140.48,331.07 1143.78,331.07 1147.07,331.07 1150.36,331.07 1153.66,331.07 1156.95,331.07 1160.24,331.07 1163.53,331.07 1166.83,331.07 1170.12,331.47 1173.41,331.88 1176.71,331.07 1180.00,331.47"/>
<circle cx="90.00" cy="540.55" r="3.2" fill="#1d4ed8"/>
<circle cx="93.29" cy="538.53" r="3.2" fill="#1d4ed8"/>
<circle cx="96.59" cy="536.91" r="3.2" fill="#1d4ed8"/>
<circle cx="99.88" cy="534.49" r="3.2" fill="#1d4ed8"/>
<circle cx="103.17" cy="534.49" r="3.2" fill="#1d4ed8"/>
<circle cx="106.47" cy="533.27" r="3.2" fill="#1d4ed8"/>
<circle cx="109.76" cy="532.46" r="3.2" fill="#1d4ed8"/>
<circle cx="113.05" cy="532.87" r="3.2" fill="#1d4ed8"/>
<circle cx="116.34" cy="532.06" r="3.2" fill="#1d4ed8"/>
<circle cx="119.64" cy="532.46" r="3.2" fill="#1d4ed8"/>
<circle cx="122.93" cy="532.06" r="3.2" fill="#1d4ed8"/>
<circle cx="126.22" cy="568.46" r="3.2" fill="#1d4ed8"/>
<circle cx="129.52" cy="568.46" r="3.2" fill="#1d4ed8"/>
<circle cx="132.81" cy="566.43" r="3.2" fill="#1d4ed8"/>
<circle cx="136.10" cy="545.00" r="3.2" fill="#1d4ed8"/>
<circle cx="139.40" cy="545.00" r="3.2" fill="#1d4ed8"/>
<circle cx="142.69" cy="544.19" r="3.2" fill="#1d4ed8"/>
<circle cx="145.98" cy="543.79" r="3.2" fill="#1d4ed8"/>
<circle cx="149.27" cy="543.79" r="3.2" fill="#1d4ed8"/>
<circle cx="152.57" cy="543.38" r="3.2" fill="#1d4ed8"/>
<circle cx="155.86" cy="541.76" r="3.2" fill="#1d4ed8"/>
<circle cx="159.15" cy="541.36" r="3.2" fill="#1d4ed8"/>
<circle cx="162.45" cy="540.96" r="3.2" fill="#1d4ed8"/>
<circle cx="165.74" cy="540.96" r="3.2" fill="#1d4ed8"/>
<circle cx="169.03" cy="539.34" r="3.2" fill="#1d4ed8"/>
<circle cx="172.33" cy="539.34" r="3.2" fill="#1d4ed8"/>
<circle cx="175.62" cy="556.73" r="3.2" fill="#1d4ed8"/>
<circle cx="178.91" cy="556.73" r="3.2" fill="#1d4ed8"/>
<circle cx="182.21" cy="555.51" r="3.2" fill="#1d4ed8"/>
<circle cx="185.50" cy="551.07" r="3.2" fill="#1d4ed8"/>
<circle cx="188.79" cy="538.93" r="3.2" fill="#1d4ed8"/>
<circle cx="192.08" cy="538.93" r="3.2" fill="#1d4ed8"/>
<circle cx="195.38" cy="538.93" r="3.2" fill="#1d4ed8"/>
<circle cx="198.67" cy="538.12" r="3.2" fill="#1d4ed8"/>
<circle cx="201.96" cy="536.91" r="3.2" fill="#1d4ed8"/>
<circle cx="205.26" cy="536.91" r="3.2" fill="#1d4ed8"/>
<circle cx="208.55" cy="536.51" r="3.2" fill="#1d4ed8"/>
<circle cx="211.84" cy="536.51" r="3.2" fill="#1d4ed8"/>
<circle cx="215.14" cy="556.73" r="3.2" fill="#1d4ed8"/>
<circle cx="218.43" cy="556.73" r="3.2" fill="#1d4ed8"/>
<circle cx="221.72" cy="556.73" r="3.2" fill="#1d4ed8"/>
<circle cx="225.02" cy="556.73" r="3.2" fill="#1d4ed8"/>
<circle cx="228.31" cy="535.29" r="3.2" fill="#1d4ed8"/>
<circle cx="231.60" cy="535.29" r="3.2" fill="#1d4ed8"/>
<circle cx="234.89" cy="535.29" r="3.2" fill="#1d4ed8"/>
<circle cx="238.19" cy="535.29" r="3.2" fill="#1d4ed8"/>
<circle cx="241.48" cy="534.49" r="3.2" fill="#1d4ed8"/>
<circle cx="244.77" cy="534.08" r="3.2" fill="#1d4ed8"/>
<circle cx="248.07" cy="533.68" r="3.2" fill="#1d4ed8"/>
<circle cx="251.36" cy="532.87" r="3.2" fill="#1d4ed8"/>
<circle cx="254.65" cy="532.06" r="3.2" fill="#1d4ed8"/>
<circle cx="257.95" cy="532.06" r="3.2" fill="#1d4ed8"/>
<circle cx="261.24" cy="531.25" r="3.2" fill="#1d4ed8"/>
<circle cx="264.53" cy="530.85" r="3.2" fill="#1d4ed8"/>
<circle cx="267.82" cy="530.44" r="3.2" fill="#1d4ed8"/>
<circle cx="271.12" cy="530.04" r="3.2" fill="#1d4ed8"/>
<circle cx="274.41" cy="530.04" r="3.2" fill="#1d4ed8"/>
<circle cx="277.70" cy="529.23" r="3.2" fill="#1d4ed8"/>
<circle cx="281.00" cy="529.23" r="3.2" fill="#1d4ed8"/>
<circle cx="284.29" cy="529.23" r="3.2" fill="#1d4ed8"/>
<circle cx="287.58" cy="528.42" r="3.2" fill="#1d4ed8"/>
<circle cx="290.88" cy="528.42" r="3.2" fill="#1d4ed8"/>
<circle cx="294.17" cy="527.61" r="3.2" fill="#1d4ed8"/>
<circle cx="297.46" cy="527.21" r="3.2" fill="#1d4ed8"/>
<circle cx="300.76" cy="526.80" r="3.2" fill="#1d4ed8"/>
<circle cx="304.05" cy="526.40" r="3.2" fill="#1d4ed8"/>
<circle cx="307.34" cy="525.18" r="3.2" fill="#1d4ed8"/>
<circle cx="310.63" cy="523.57" r="3.2" fill="#1d4ed8"/>
<circle cx="313.93" cy="523.57" r="3.2" fill="#1d4ed8"/>
<circle cx="317.22" cy="523.16" r="3.2" fill="#1d4ed8"/>
<circle cx="320.51" cy="522.76" r="3.2" fill="#1d4ed8"/>
<circle cx="323.81" cy="522.35" r="3.2" fill="#1d4ed8"/>
<circle cx="327.10" cy="521.54" r="3.2" fill="#1d4ed8"/>
<circle cx="330.39" cy="519.52" r="3.2" fill="#1d4ed8"/>
<circle cx="333.69" cy="517.50" r="3.2" fill="#1d4ed8"/>
<circle cx="336.98" cy="517.50" r="3.2" fill="#1d4ed8"/>
<circle cx="340.27" cy="517.50" r="3.2" fill="#1d4ed8"/>
<circle cx="343.56" cy="517.50" r="3.2" fill="#1d4ed8"/>
<circle cx="346.86" cy="517.50" r="3.2" fill="#1d4ed8"/>
<circle cx="350.15" cy="517.50" r="3.2" fill="#1d4ed8"/>
<circle cx="353.44" cy="517.10" r="3.2" fill="#1d4ed8"/>
<circle cx="356.74" cy="516.69" r="3.2" fill="#1d4ed8"/>
<circle cx="360.03" cy="515.48" r="3.2" fill="#1d4ed8"/>
<circle cx="363.32" cy="515.07" r="3.2" fill="#1d4ed8"/>
<circle cx="366.62" cy="514.67" r="3.2" fill="#1d4ed8"/>
<circle cx="369.91" cy="513.86" r="3.2" fill="#1d4ed8"/>
<circle cx="373.20" cy="514.26" r="3.2" fill="#1d4ed8"/>
<circle cx="376.50" cy="512.24" r="3.2" fill="#1d4ed8"/>
<circle cx="379.79" cy="511.84" r="3.2" fill="#1d4ed8"/>
<circle cx="383.08" cy="511.84" r="3.2" fill="#1d4ed8"/>
<circle cx="386.37" cy="511.03" r="3.2" fill="#1d4ed8"/>
<circle cx="389.67" cy="509.82" r="3.2" fill="#1d4ed8"/>
<circle cx="392.96" cy="507.79" r="3.2" fill="#1d4ed8"/>
<circle cx="396.25" cy="506.99" r="3.2" fill="#1d4ed8"/>
<circle cx="399.55" cy="506.58" r="3.2" fill="#1d4ed8"/>
<circle cx="402.84" cy="509.41" r="3.2" fill="#1d4ed8"/>
<circle cx="406.13" cy="509.01" r="3.2" fill="#1d4ed8"/>
<circle cx="409.43" cy="504.96" r="3.2" fill="#1d4ed8"/>
<circle cx="412.72" cy="504.56" r="3.2" fill="#1d4ed8"/>
<circle cx="416.01" cy="504.15" r="3.2" fill="#1d4ed8"/>
<circle cx="419.31" cy="504.56" r="3.2" fill="#1d4ed8"/>
<circle cx="422.60" cy="503.75" r="3.2" fill="#1d4ed8"/>
<circle cx="425.89" cy="503.75" r="3.2" fill="#1d4ed8"/>
<circle cx="429.18" cy="503.35" r="3.2" fill="#1d4ed8"/>
<circle cx="432.48" cy="499.30" r="3.2" fill="#1d4ed8"/>
<circle cx="435.77" cy="496.47" r="3.2" fill="#1d4ed8"/>
<circle cx="439.06" cy="490.00" r="3.2" fill="#1d4ed8"/>
<circle cx="442.36" cy="484.34" r="3.2" fill="#1d4ed8"/>
<circle cx="445.65" cy="481.10" r="3.2" fill="#1d4ed8"/>
<circle cx="448.94" cy="480.29" r="3.2" fill="#1d4ed8"/>
<circle cx="452.24" cy="480.70" r="3.2" fill="#1d4ed8"/>
<circle cx="455.53" cy="460.88" r="3.2" fill="#1d4ed8"/>
<circle cx="458.82" cy="459.26" r="3.2" fill="#1d4ed8"/>
<circle cx="462.11" cy="458.05" r="3.2" fill="#1d4ed8"/>
<circle cx="465.41" cy="456.03" r="3.2" fill="#1d4ed8"/>
<circle cx="468.70" cy="456.03" r="3.2" fill="#1d4ed8"/>
<circle cx="471.99" cy="454.41" r="3.2" fill="#1d4ed8"/>
<circle cx="475.29" cy="450.77" r="3.2" fill="#1d4ed8"/>
<circle cx="478.58" cy="444.30" r="3.2" fill="#1d4ed8"/>
<circle cx="481.87" cy="443.90" r="3.2" fill="#1d4ed8"/>
<circle cx="485.17" cy="600.00" r="3.2" fill="#1d4ed8"/>
<circle cx="488.46" cy="441.88" r="3.2" fill="#1d4ed8"/>
<circle cx="491.75" cy="440.66" r="3.2" fill="#1d4ed8"/>
<circle cx="495.05" cy="439.45" r="3.2" fill="#1d4ed8"/>
<circle cx="498.34" cy="439.04" r="3.2" fill="#1d4ed8"/>
<circle cx="501.63" cy="438.64" r="3.2" fill="#1d4ed8"/>
<circle cx="504.92" cy="437.83" r="3.2" fill="#1d4ed8"/>
<circle cx="508.22" cy="436.62" r="3.2" fill="#1d4ed8"/>
<circle cx="511.51" cy="436.62" r="3.2" fill="#1d4ed8"/>
<circle cx="514.80" cy="434.60" r="3.2" fill="#1d4ed8"/>
<circle cx="518.10" cy="432.17" r="3.2" fill="#1d4ed8"/>
<circle cx="521.39" cy="429.34" r="3.2" fill="#1d4ed8"/>
<circle cx="524.68" cy="428.93" r="3.2" fill="#1d4ed8"/>
<circle cx="527.98" cy="428.53" r="3.2" fill="#1d4ed8"/>
<circle cx="531.27" cy="427.72" r="3.2" fill="#1d4ed8"/>
<circle cx="534.56" cy="426.91" r="3.2" fill="#1d4ed8"/>
<circle cx="537.85" cy="426.10" r="3.2" fill="#1d4ed8"/>
<circle cx="541.15" cy="426.10" r="3.2" fill="#1d4ed8"/>
<circle cx="544.44" cy="426.10" r="3.2" fill="#1d4ed8"/>
<circle cx="547.73" cy="419.63" r="3.2" fill="#1d4ed8"/>
<circle cx="551.03" cy="419.23" r="3.2" fill="#1d4ed8"/>
<circle cx="554.32" cy="418.42" r="3.2" fill="#1d4ed8"/>
<circle cx="557.61" cy="418.01" r="3.2" fill="#1d4ed8"/>
<circle cx="560.91" cy="417.61" r="3.2" fill="#1d4ed8"/>
<circle cx="564.20" cy="417.61" r="3.2" fill="#1d4ed8"/>
<circle cx="567.49" cy="417.61" r="3.2" fill="#1d4ed8"/>
<circle cx="570.79" cy="417.21" r="3.2" fill="#1d4ed8"/>
<circle cx="574.08" cy="417.21" r="3.2" fill="#1d4ed8"/>
<circle cx="577.37" cy="413.57" r="3.2" fill="#1d4ed8"/>
<circle cx="580.66" cy="411.95" r="3.2" fill="#1d4ed8"/>
<circle cx="583.96" cy="412.76" r="3.2" fill="#1d4ed8"/>
<circle cx="587.25" cy="410.74" r="3.2" fill="#1d4ed8"/>
<circle cx="590.54" cy="410.74" r="3.2" fill="#1d4ed8"/>
<circle cx="593.84" cy="410.33" r="3.2" fill="#1d4ed8"/>
<circle cx="597.13" cy="410.33" r="3.2" fill="#1d4ed8"/>
<circle cx="600.42" cy="410.33" r="3.2" fill="#1d4ed8"/>
<circle cx="603.72" cy="409.93" r="3.2" fill="#1d4ed8"/>
<circle cx="607.01" cy="409.93" r="3.2" fill="#1d4ed8"/>
<circle cx="610.30" cy="409.93" r="3.2" fill="#1d4ed8"/>
<circle cx="613.60" cy="409.52" r="3.2" fill="#1d4ed8"/>
<circle cx="616.89" cy="409.52" r="3.2" fill="#1d4ed8"/>
<circle cx="620.18" cy="409.12" r="3.2" fill="#1d4ed8"/>
<circle cx="623.47" cy="409.52" r="3.2" fill="#1d4ed8"/>
<circle cx="626.77" cy="409.12" r="3.2" fill="#1d4ed8"/>
<circle cx="630.06" cy="407.50" r="3.2" fill="#1d4ed8"/>
<circle cx="633.35" cy="407.10" r="3.2" fill="#1d4ed8"/>
<circle cx="636.65" cy="403.05" r="3.2" fill="#1d4ed8"/>
<circle cx="639.94" cy="399.82" r="3.2" fill="#1d4ed8"/>
<circle cx="643.23" cy="400.22" r="3.2" fill="#1d4ed8"/>
<circle cx="646.53" cy="400.62" r="3.2" fill="#1d4ed8"/>
<circle cx="649.82" cy="400.62" r="3.2" fill="#1d4ed8"/>
<circle cx="653.11" cy="399.41" r="3.2" fill="#1d4ed8"/>
<circle cx="656.40" cy="392.94" r="3.2" fill="#1d4ed8"/>
<circle cx="659.70" cy="391.32" r="3.2" fill="#1d4ed8"/>
<circle cx="662.99" cy="389.30" r="3.2" fill="#1d4ed8"/>
<circle cx="666.28" cy="389.30" r="3.2" fill="#1d4ed8"/>
<circle cx="669.58" cy="388.49" r="3.2" fill="#1d4ed8"/>
<circle cx="672.87" cy="375.15" r="3.2" fill="#1d4ed8"/>
<circle cx="676.16" cy="374.74" r="3.2" fill="#1d4ed8"/>
<circle cx="679.46" cy="374.74" r="3.2" fill="#1d4ed8"/>
<circle cx="682.75" cy="374.74" r="3.2" fill="#1d4ed8"/>
<circle cx="686.04" cy="374.74" r="3.2" fill="#1d4ed8"/>
<circle cx="689.34" cy="374.34" r="3.2" fill="#1d4ed8"/>
<circle cx="692.63" cy="374.34" r="3.2" fill="#1d4ed8"/>
<circle cx="695.92" cy="374.34" r="3.2" fill="#1d4ed8"/>
<circle cx="699.21" cy="374.34" r="3.2" fill="#1d4ed8"/>
<circle cx="702.51" cy="374.34" r="3.2" fill="#1d4ed8"/>
<circle cx="705.80" cy="373.93" r="3.2" fill="#1d4ed8"/>
<circle cx="709.09" cy="373.12" r="3.2" fill="#1d4ed8"/>
<circle cx="712.39" cy="372.72" r="3.2" fill="#1d4ed8"/>
<circle cx="715.68" cy="373.53" r="3.2" fill="#1d4ed8"/>
<circle cx="718.97" cy="435.81" r="3.2" fill="#1d4ed8"/>
<circle cx="722.27" cy="372.32" r="3.2" fill="#1d4ed8"/>
<circle cx="725.56" cy="372.72" r="3.2" fill="#1d4ed8"/>
<circle cx="728.85" cy="371.91" r="3.2" fill="#1d4ed8"/>
<circle cx="732.15" cy="371.91" r="3.2" fill="#1d4ed8"/>
<circle cx="735.44" cy="372.32" r="3.2" fill="#1d4ed8"/>
<circle cx="738.73" cy="371.10" r="3.2" fill="#1d4ed8"/>
<circle cx="742.02" cy="369.89" r="3.2" fill="#1d4ed8"/>
<circle cx="745.32" cy="369.89" r="3.2" fill="#1d4ed8"/>
<circle cx="748.61" cy="369.89" r="3.2" fill="#1d4ed8"/>
<circle cx="751.90" cy="369.49" r="3.2" fill="#1d4ed8"/>
<circle cx="755.20" cy="369.89" r="3.2" fill="#1d4ed8"/>
<circle cx="758.49" cy="369.08" r="3.2" fill="#1d4ed8"/>
<circle cx="761.78" cy="368.68" r="3.2" fill="#1d4ed8"/>
<circle cx="765.08" cy="368.27" r="3.2" fill="#1d4ed8"/>
<circle cx="768.37" cy="367.87" r="3.2" fill="#1d4ed8"/>
<circle cx="771.66" cy="367.06" r="3.2" fill="#1d4ed8"/>
<circle cx="774.95" cy="367.46" r="3.2" fill="#1d4ed8"/>
<circle cx="778.25" cy="367.06" r="3.2" fill="#1d4ed8"/>
<circle cx="781.54" cy="366.25" r="3.2" fill="#1d4ed8"/>
<circle cx="784.83" cy="368.27" r="3.2" fill="#1d4ed8"/>
<circle cx="788.13" cy="368.68" r="3.2" fill="#1d4ed8"/>
<circle cx="791.42" cy="368.68" r="3.2" fill="#1d4ed8"/>
<circle cx="794.71" cy="368.27" r="3.2" fill="#1d4ed8"/>
<circle cx="798.01" cy="369.08" r="3.2" fill="#1d4ed8"/>
<circle cx="801.30" cy="367.87" r="3.2" fill="#1d4ed8"/>
<circle cx="804.59" cy="367.46" r="3.2" fill="#1d4ed8"/>
<circle cx="807.89" cy="367.06" r="3.2" fill="#1d4ed8"/>
<circle cx="811.18" cy="360.18" r="3.2" fill="#1d4ed8"/>
<circle cx="814.47" cy="359.78" r="3.2" fill="#1d4ed8"/>
<circle cx="817.76" cy="359.38" r="3.2" fill="#1d4ed8"/>
<circle cx="821.06" cy="356.95" r="3.2" fill="#1d4ed8"/>
<circle cx="824.35" cy="357.35" r="3.2" fill="#1d4ed8"/>
<circle cx="827.64" cy="357.76" r="3.2" fill="#1d4ed8"/>
<circle cx="830.94" cy="355.33" r="3.2" fill="#1d4ed8"/>
<circle cx="834.23" cy="355.74" r="3.2" fill="#1d4ed8"/>
<circle cx="837.52" cy="357.35" r="3.2" fill="#1d4ed8"/>
<circle cx="840.82" cy="355.33" r="3.2" fill="#1d4ed8"/>
<circle cx="844.11" cy="356.14" r="3.2" fill="#1d4ed8"/>
<circle cx="847.40" cy="355.74" r="3.2" fill="#1d4ed8"/>
<circle cx="850.69" cy="356.14" r="3.2" fill="#1d4ed8"/>
<circle cx="853.99" cy="354.12" r="3.2" fill="#1d4ed8"/>
<circle cx="857.28" cy="354.93" r="3.2" fill="#1d4ed8"/>
<circle cx="860.57" cy="356.14" r="3.2" fill="#1d4ed8"/>
<circle cx="863.87" cy="354.52" r="3.2" fill="#1d4ed8"/>
<circle cx="867.16" cy="353.71" r="3.2" fill="#1d4ed8"/>
<circle cx="870.45" cy="354.12" r="3.2" fill="#1d4ed8"/>
<circle cx="873.75" cy="354.93" r="3.2" fill="#1d4ed8"/>
<circle cx="877.04" cy="352.90" r="3.2" fill="#1d4ed8"/>
<circle cx="880.33" cy="353.71" r="3.2" fill="#1d4ed8"/>
<circle cx="883.63" cy="353.31" r="3.2" fill="#1d4ed8"/>
<circle cx="886.92" cy="353.31" r="3.2" fill="#1d4ed8"/>
<circle cx="890.21" cy="354.52" r="3.2" fill="#1d4ed8"/>
<circle cx="893.50" cy="352.90" r="3.2" fill="#1d4ed8"/>
<circle cx="896.80" cy="352.50" r="3.2" fill="#1d4ed8"/>
<circle cx="900.09" cy="352.50" r="3.2" fill="#1d4ed8"/>
<circle cx="903.38" cy="353.31" r="3.2" fill="#1d4ed8"/>
<circle cx="906.68" cy="352.50" r="3.2" fill="#1d4ed8"/>
<circle cx="909.97" cy="353.71" r="3.2" fill="#1d4ed8"/>
<circle cx="913.26" cy="354.12" r="3.2" fill="#1d4ed8"/>
<circle cx="916.56" cy="352.50" r="3.2" fill="#1d4ed8"/>
<circle cx="919.85" cy="352.90" r="3.2" fill="#1d4ed8"/>
<circle cx="923.14" cy="352.50" r="3.2" fill="#1d4ed8"/>
<circle cx="926.44" cy="352.10" r="3.2" fill="#1d4ed8"/>
<circle cx="929.73" cy="351.69" r="3.2" fill="#1d4ed8"/>
<circle cx="933.02" cy="352.10" r="3.2" fill="#1d4ed8"/>
<circle cx="936.31" cy="354.12" r="3.2" fill="#1d4ed8"/>
<circle cx="939.61" cy="352.50" r="3.2" fill="#1d4ed8"/>
<circle cx="942.90" cy="352.10" r="3.2" fill="#1d4ed8"/>
<circle cx="946.19" cy="352.10" r="3.2" fill="#1d4ed8"/>
<circle cx="949.49" cy="349.67" r="3.2" fill="#1d4ed8"/>
<circle cx="952.78" cy="349.67" r="3.2" fill="#1d4ed8"/>
<circle cx="956.07" cy="350.88" r="3.2" fill="#1d4ed8"/>
<circle cx="959.37" cy="351.29" r="3.2" fill="#1d4ed8"/>
<circle cx="962.66" cy="350.48" r="3.2" fill="#1d4ed8"/>
<circle cx="965.95" cy="352.10" r="3.2" fill="#1d4ed8"/>
<circle cx="969.24" cy="350.48" r="3.2" fill="#1d4ed8"/>
<circle cx="972.54" cy="350.48" r="3.2" fill="#1d4ed8"/>
<circle cx="975.83" cy="350.48" r="3.2" fill="#1d4ed8"/>
<circle cx="979.12" cy="350.07" r="3.2" fill="#1d4ed8"/>
<circle cx="982.42" cy="348.46" r="3.2" fill="#1d4ed8"/>
<circle cx="985.71" cy="351.29" r="3.2" fill="#1d4ed8"/>
<circle cx="989.00" cy="349.67" r="3.2" fill="#1d4ed8"/>
<circle cx="992.30" cy="351.29" r="3.2" fill="#1d4ed8"/>
<circle cx="995.59" cy="349.67" r="3.2" fill="#1d4ed8"/>
<circle cx="998.88" cy="348.86" r="3.2" fill="#1d4ed8"/>
<circle cx="1002.18" cy="348.46" r="3.2" fill="#1d4ed8"/>
<circle cx="1005.47" cy="348.46" r="3.2" fill="#1d4ed8"/>
<circle cx="1008.76" cy="347.24" r="3.2" fill="#1d4ed8"/>
<circle cx="1012.05" cy="348.86" r="3.2" fill="#1d4ed8"/>
<circle cx="1015.35" cy="346.84" r="3.2" fill="#1d4ed8"/>
<circle cx="1018.64" cy="348.46" r="3.2" fill="#1d4ed8"/>
<circle cx="1021.93" cy="348.86" r="3.2" fill="#1d4ed8"/>
<circle cx="1025.23" cy="346.84" r="3.2" fill="#1d4ed8"/>
<circle cx="1028.52" cy="349.26" r="3.2" fill="#1d4ed8"/>
<circle cx="1031.81" cy="348.05" r="3.2" fill="#1d4ed8"/>
<circle cx="1035.11" cy="349.26" r="3.2" fill="#1d4ed8"/>
<circle cx="1038.40" cy="349.26" r="3.2" fill="#1d4ed8"/>
<circle cx="1041.69" cy="350.48" r="3.2" fill="#1d4ed8"/>
<circle cx="1044.98" cy="352.90" r="3.2" fill="#1d4ed8"/>
<circle cx="1048.28" cy="349.67" r="3.2" fill="#1d4ed8"/>
<circle cx="1051.57" cy="348.46" r="3.2" fill="#1d4ed8"/>
<circle cx="1054.86" cy="345.62" r="3.2" fill="#1d4ed8"/>
<circle cx="1058.16" cy="344.82" r="3.2" fill="#1d4ed8"/>
<circle cx="1061.45" cy="344.41" r="3.2" fill="#1d4ed8"/>
<circle cx="1064.74" cy="342.39" r="3.2" fill="#1d4ed8"/>
<circle cx="1068.04" cy="341.18" r="3.2" fill="#1d4ed8"/>
<circle cx="1071.33" cy="341.58" r="3.2" fill="#1d4ed8"/>
<circle cx="1074.62" cy="339.15" r="3.2" fill="#1d4ed8"/>
<circle cx="1077.92" cy="338.35" r="3.2" fill="#1d4ed8"/>
<circle cx="1081.21" cy="337.54" r="3.2" fill="#1d4ed8"/>
<circle cx="1084.50" cy="336.73" r="3.2" fill="#1d4ed8"/>
<circle cx="1087.79" cy="335.92" r="3.2" fill="#1d4ed8"/>
<circle cx="1091.09" cy="337.54" r="3.2" fill="#1d4ed8"/>
<circle cx="1094.38" cy="338.35" r="3.2" fill="#1d4ed8"/>
<circle cx="1097.67" cy="337.54" r="3.2" fill="#1d4ed8"/>
<circle cx="1100.97" cy="337.54" r="3.2" fill="#1d4ed8"/>
<circle cx="1104.26" cy="337.54" r="3.2" fill="#1d4ed8"/>
<circle cx="1107.55" cy="333.09" r="3.2" fill="#1d4ed8"/>
<circle cx="1110.85" cy="333.90" r="3.2" fill="#1d4ed8"/>
<circle cx="1114.14" cy="335.92" r="3.2" fill="#1d4ed8"/>
<circle cx="1117.43" cy="336.73" r="3.2" fill="#1d4ed8"/>
<circle cx="1120.73" cy="335.51" r="3.2" fill="#1d4ed8"/>
<circle cx="1124.02" cy="332.28" r="3.2" fill="#1d4ed8"/>
<circle cx="1127.31" cy="331.47" r="3.2" fill="#1d4ed8"/>
<circle cx="1130.60" cy="331.07" r="3.2" fill="#1d4ed8"/>
<circle cx="1133.90" cy="331.47" r="3.2" fill="#1d4ed8"/>
<circle cx="1137.19" cy="331.07" r="3.2" fill="#1d4ed8"/>
<circle cx="1140.48" cy="331.07" r="3.2" fill="#1d4ed8"/>
<circle cx="1143.78" cy="331.07" r="3.2" fill="#1d4ed8"/>
<circle cx="1147.07" cy="331.07" r="3.2" fill="#1d4ed8"/>
<circle cx="1150.36" cy="331.07" r="3.2" fill="#1d4ed8"/>
<circle cx="1153.66" cy="331.07" r="3.2" fill="#1d4ed8"/>
<circle cx="1156.95" cy="331.07" r="3.2" fill="#1d4ed8"/>
<circle cx="1160.24" cy="331.07" r="3.2" fill="#1d4ed8"/>
<circle cx="1163.53" cy="331.07" r="3.2" fill="#1d4ed8"/>
<circle cx="1166.83" cy="331.07" r="3.2" fill="#1d4ed8"/>
<circle cx="1170.12" cy="331.47" r="3.2" fill="#1d4ed8"/>
<circle cx="1173.41" cy="331.88" r="3.2" fill="#1d4ed8"/>
<circle cx="1176.71" cy="331.07" r="3.2" fill="#1d4ed8"/>
<circle cx="1180.00" cy="331.47" r="3.2" fill="#1d4ed8"/>
<text x="635" y="695" text-anchor="middle" font-size="14" fill="#111" font-family="sans-serif">Date</text>
<text x="24" y="325" text-anchor="middle" font-size="14" fill="#111" transform="rotate(-90 24,325)" font-family="sans-serif">Passed files</text>
</svg>
