<?xml version="1.0" encoding="UTF-8"?>
<svg xmlns="http://www.w3.org/2000/svg" width="1280" height="720" viewBox="0 0 1280 720">
<rect width="100%" height="100%" fill="#ffffff"/>
<text x="640" y="30" text-anchor="middle" font-size="22" font-family="sans-serif">Roast passed files history</text>
<line x1="90" y1="600" x2="1180" y2="600" stroke="#333" stroke-width="1.5"/>
<line x1="90" y1="50" x2="90" y2="600" stroke="#333" stroke-width="1.5"/>
<line x1="90" y1="600.00" x2="1180" y2="600.00" stroke="#e5e7eb" stroke-width="1"/>
<text x="78" y="605.00" text-anchor="end" font-size="12" fill="#111" font-family="sans-serif">0</text>
<line x1="90" y1="398.09" x2="1180" y2="398.09" stroke="#e5e7eb" stroke-width="1"/>
<text x="78" y="403.09" text-anchor="end" font-size="12" fill="#111" font-family="sans-serif">500</text>
<line x1="90" y1="196.18" x2="1180" y2="196.18" stroke="#e5e7eb" stroke-width="1"/>
<text x="78" y="201.18" text-anchor="end" font-size="12" fill="#111" font-family="sans-serif">1000</text>
<line x1="90.00" y1="600" x2="90.00" y2="606" stroke="#333" stroke-width="1"/>
<text x="90.00" y="624" text-anchor="end" font-size="11" fill="#111" transform="rotate(-40 90.00,624)" font-family="sans-serif">2026-02-12</text>
<line x1="219.76" y1="600" x2="219.76" y2="606" stroke="#333" stroke-width="1"/>
<text x="219.76" y="624" text-anchor="end" font-size="11" fill="#111" transform="rotate(-40 219.76,624)" font-family="sans-serif">2026-02-14</text>
<line x1="349.52" y1="600" x2="349.52" y2="606" stroke="#333" stroke-width="1"/>
<text x="349.52" y="624" text-anchor="end" font-size="11" fill="#111" transform="rotate(-40 349.52,624)" font-family="sans-serif">2026-02-15</text>
<line x1="479.29" y1="600" x2="479.29" y2="606" stroke="#333" stroke-width="1"/>
<text x="479.29" y="624" text-anchor="end" font-size="11" fill="#111" transform="rotate(-40 479.29,624)" font-family="sans-serif">2026-02-17</text>
<line x1="609.05" y1="600" x2="609.05" y2="606" stroke="#333" stroke-width="1"/>
<text x="609.05" y="624" text-anchor="end" font-size="11" fill="#111" transform="rotate(-40 609.05,624)" font-family="sans-serif">2026-02-17</text>
<line x1="738.81" y1="600" x2="738.81" y2="606" stroke="#333" stroke-width="1"/>
<text x="738.81" y="624" text-anchor="end" font-size="11" fill="#111" transform="rotate(-40 738.81,624)" font-family="sans-serif">2026-02-18</text>
<line x1="868.57" y1="600" x2="868.57" y2="606" stroke="#333" stroke-width="1"/>
<text x="868.57" y="624" text-anchor="end" font-size="11" fill="#111" transform="rotate(-40 868.57,624)" font-family="sans-serif">2026-02-18</text>
<line x1="998.33" y1="600" x2="998.33" y2="606" stroke="#333" stroke-width="1"/>
<text x="998.33" y="624" text-anchor="end" font-size="11" fill="#111" transform="rotate(-40 998.33,624)" font-family="sans-serif">2026-02-19</text>
<line x1="1128.10" y1="600" x2="1128.10" y2="606" stroke="#333" stroke-width="1"/>
<text x="1128.10" y="624" text-anchor="end" font-size="11" fill="#111" transform="rotate(-40 1128.10,624)" font-family="sans-serif">2026-02-20</text>
<line x1="1180.00" y1="600" x2="1180.00" y2="606" stroke="#333" stroke-width="1"/>
<text x="1180.00" y="624" text-anchor="end" font-size="11" fill="#111" transform="rotate(-40 1180.00,624)" font-family="sans-serif">2026-02-21</text>
<line x1="90" y1="75.84" x2="1180" y2="75.84" stroke="#dc2626" stroke-width="1.5" stroke-dasharray="8,4"/>
<text x="1184" y="79.84" font-size="12" fill="#dc2626" font-family="sans-serif">Goal: 1298</text>
<polyline fill="none" stroke="#2563eb" stroke-width="3" points="90.00,540.64 102.98,538.62 115.95,537.00 128.93,534.58 141.90,534.58 154.88,533.37 167.86,532.56 180.83,532.97 193.81,532.16 206.79,532.56 219.76,532.16 232.74,568.50 245.71,568.50 258.69,566.48 271.67,545.08 284.64,545.08 297.62,544.27 310.60,543.87 323.57,543.87 336.55,543.47 349.52,541.85 362.50,541.45 375.48,541.04 388.45,541.04 401.43,539.43 414.40,539.43 427.38,556.79 440.36,556.79 453.33,555.58 466.31,551.14 479.29,539.02 492.26,539.02 505.24,539.02 518.21,538.22 531.19,537.00 544.17,537.00 557.14,536.60 570.12,536.60 583.10,556.79 596.07,556.79 609.05,556.79 622.02,556.79 635.00,535.39 647.98,535.39 660.95,535.39 673.93,535.39 686.90,534.58 699.88,534.18 712.86,533.77 725.83,532.97 738.81,532.16 751.79,532.16 764.76,531.35 777.74,530.95 790.71,530.54 803.69,530.14 816.67,530.14 829.64,529.33 842.62,529.33 855.60,529.33 868.57,528.52 881.55,528.52 894.52,527.72 907.50,527.31 920.48,526.91 933.45,526.51 946.43,525.29 959.40,523.68 972.38,523.68 985.36,523.27 998.33,522.87 1011.31,522.47 1024.29,521.66 1037.26,519.64 1050.24,517.62 1063.21,517.62 1076.19,517.62 1089.17,517.62 1102.14,517.62 1115.12,517.62 1128.10,517.22 1141.07,516.81 1154.05,515.60 1167.02,515.20 1180.00,514.79"/>
<circle cx="90.00" cy="540.64" r="3.2" fill="#1d4ed8"/>
<circle cx="102.98" cy="538.62" r="3.2" fill="#1d4ed8"/>
<circle cx="115.95" cy="537.00" r="3.2" fill="#1d4ed8"/>
<circle cx="128.93" cy="534.58" r="3.2" fill="#1d4ed8"/>
<circle cx="141.90" cy="534.58" r="3.2" fill="#1d4ed8"/>
<circle cx="154.88" cy="533.37" r="3.2" fill="#1d4ed8"/>
<circle cx="167.86" cy="532.56" r="3.2" fill="#1d4ed8"/>
<circle cx="180.83" cy="532.97" r="3.2" fill="#1d4ed8"/>
<circle cx="193.81" cy="532.16" r="3.2" fill="#1d4ed8"/>
<circle cx="206.79" cy="532.56" r="3.2" fill="#1d4ed8"/>
<circle cx="219.76" cy="532.16" r="3.2" fill="#1d4ed8"/>
<circle cx="232.74" cy="568.50" r="3.2" fill="#1d4ed8"/>
<circle cx="245.71" cy="568.50" r="3.2" fill="#1d4ed8"/>
<circle cx="258.69" cy="566.48" r="3.2" fill="#1d4ed8"/>
<circle cx="271.67" cy="545.08" r="3.2" fill="#1d4ed8"/>
<circle cx="284.64" cy="545.08" r="3.2" fill="#1d4ed8"/>
<circle cx="297.62" cy="544.27" r="3.2" fill="#1d4ed8"/>
<circle cx="310.60" cy="543.87" r="3.2" fill="#1d4ed8"/>
<circle cx="323.57" cy="543.87" r="3.2" fill="#1d4ed8"/>
<circle cx="336.55" cy="543.47" r="3.2" fill="#1d4ed8"/>
<circle cx="349.52" cy="541.85" r="3.2" fill="#1d4ed8"/>
<circle cx="362.50" cy="541.45" r="3.2" fill="#1d4ed8"/>
<circle cx="375.48" cy="541.04" r="3.2" fill="#1d4ed8"/>
<circle cx="388.45" cy="541.04" r="3.2" fill="#1d4ed8"/>
<circle cx="401.43" cy="539.43" r="3.2" fill="#1d4ed8"/>
<circle cx="414.40" cy="539.43" r="3.2" fill="#1d4ed8"/>
<circle cx="427.38" cy="556.79" r="3.2" fill="#1d4ed8"/>
<circle cx="440.36" cy="556.79" r="3.2" fill="#1d4ed8"/>
<circle cx="453.33" cy="555.58" r="3.2" fill="#1d4ed8"/>
<circle cx="466.31" cy="551.14" r="3.2" fill="#1d4ed8"/>
<circle cx="479.29" cy="539.02" r="3.2" fill="#1d4ed8"/>
<circle cx="492.26" cy="539.02" r="3.2" fill="#1d4ed8"/>
<circle cx="505.24" cy="539.02" r="3.2" fill="#1d4ed8"/>
<circle cx="518.21" cy="538.22" r="3.2" fill="#1d4ed8"/>
<circle cx="531.19" cy="537.00" r="3.2" fill="#1d4ed8"/>
<circle cx="544.17" cy="537.00" r="3.2" fill="#1d4ed8"/>
<circle cx="557.14" cy="536.60" r="3.2" fill="#1d4ed8"/>
<circle cx="570.12" cy="536.60" r="3.2" fill="#1d4ed8"/>
<circle cx="583.10" cy="556.79" r="3.2" fill="#1d4ed8"/>
<circle cx="596.07" cy="556.79" r="3.2" fill="#1d4ed8"/>
<circle cx="609.05" cy="556.79" r="3.2" fill="#1d4ed8"/>
<circle cx="622.02" cy="556.79" r="3.2" fill="#1d4ed8"/>
<circle cx="635.00" cy="535.39" r="3.2" fill="#1d4ed8"/>
<circle cx="647.98" cy="535.39" r="3.2" fill="#1d4ed8"/>
<circle cx="660.95" cy="535.39" r="3.2" fill="#1d4ed8"/>
<circle cx="673.93" cy="535.39" r="3.2" fill="#1d4ed8"/>
<circle cx="686.90" cy="534.58" r="3.2" fill="#1d4ed8"/>
<circle cx="699.88" cy="534.18" r="3.2" fill="#1d4ed8"/>
<circle cx="712.86" cy="533.77" r="3.2" fill="#1d4ed8"/>
<circle cx="725.83" cy="532.97" r="3.2" fill="#1d4ed8"/>
<circle cx="738.81" cy="532.16" r="3.2" fill="#1d4ed8"/>
<circle cx="751.79" cy="532.16" r="3.2" fill="#1d4ed8"/>
<circle cx="764.76" cy="531.35" r="3.2" fill="#1d4ed8"/>
<circle cx="777.74" cy="530.95" r="3.2" fill="#1d4ed8"/>
<circle cx="790.71" cy="530.54" r="3.2" fill="#1d4ed8"/>
<circle cx="803.69" cy="530.14" r="3.2" fill="#1d4ed8"/>
<circle cx="816.67" cy="530.14" r="3.2" fill="#1d4ed8"/>
<circle cx="829.64" cy="529.33" r="3.2" fill="#1d4ed8"/>
<circle cx="842.62" cy="529.33" r="3.2" fill="#1d4ed8"/>
<circle cx="855.60" cy="529.33" r="3.2" fill="#1d4ed8"/>
<circle cx="868.57" cy="528.52" r="3.2" fill="#1d4ed8"/>
<circle cx="881.55" cy="528.52" r="3.2" fill="#1d4ed8"/>
<circle cx="894.52" cy="527.72" r="3.2" fill="#1d4ed8"/>
<circle cx="907.50" cy="527.31" r="3.2" fill="#1d4ed8"/>
<circle cx="920.48" cy="526.91" r="3.2" fill="#1d4ed8"/>
<circle cx="933.45" cy="526.51" r="3.2" fill="#1d4ed8"/>
<circle cx="946.43" cy="525.29" r="3.2" fill="#1d4ed8"/>
<circle cx="959.40" cy="523.68" r="3.2" fill="#1d4ed8"/>
<circle cx="972.38" cy="523.68" r="3.2" fill="#1d4ed8"/>
<circle cx="985.36" cy="523.27" r="3.2" fill="#1d4ed8"/>
<circle cx="998.33" cy="522.87" r="3.2" fill="#1d4ed8"/>
<circle cx="1011.31" cy="522.47" r="3.2" fill="#1d4ed8"/>
<circle cx="1024.29" cy="521.66" r="3.2" fill="#1d4ed8"/>
<circle cx="1037.26" cy="519.64" r="3.2" fill="#1d4ed8"/>
<circle cx="1050.24" cy="517.62" r="3.2" fill="#1d4ed8"/>
<circle cx="1063.21" cy="517.62" r="3.2" fill="#1d4ed8"/>
<circle cx="1076.19" cy="517.62" r="3.2" fill="#1d4ed8"/>
<circle cx="1089.17" cy="517.62" r="3.2" fill="#1d4ed8"/>
<circle cx="1102.14" cy="517.62" r="3.2" fill="#1d4ed8"/>
<circle cx="1115.12" cy="517.62" r="3.2" fill="#1d4ed8"/>
<circle cx="1128.10" cy="517.22" r="3.2" fill="#1d4ed8"/>
<circle cx="1141.07" cy="516.81" r="3.2" fill="#1d4ed8"/>
<circle cx="1154.05" cy="515.60" r="3.2" fill="#1d4ed8"/>
<circle cx="1167.02" cy="515.20" r="3.2" fill="#1d4ed8"/>
<circle cx="1180.00" cy="514.79" r="3.2" fill="#1d4ed8"/>
<text x="635" y="695" text-anchor="middle" font-size="14" fill="#111" font-family="sans-serif">Date</text>
<text x="24" y="325" text-anchor="middle" font-size="14" fill="#111" transform="rotate(-90 24,325)" font-family="sans-serif">Passed files</text>
</svg>
