<?xml version="1.0" encoding="UTF-8"?>
<svg xmlns="http://www.w3.org/2000/svg" width="1280" height="720" viewBox="0 0 1280 720">
<rect width="100%" height="100%" fill="#ffffff"/>
<text x="640" y="30" text-anchor="middle" font-size="22" font-family="sans-serif">Roast passed files history</text>
<line x1="90" y1="600" x2="1180" y2="600" stroke="#333" stroke-width="1.5"/>
<line x1="90" y1="50" x2="90" y2="600" stroke="#333" stroke-width="1.5"/>
<line x1="90" y1="600.00" x2="1180" y2="600.00" stroke="#e5e7eb" stroke-width="1"/>
<text x="78" y="605.00" text-anchor="end" font-size="12" fill="#111" font-family="sans-serif">0</text>
<line x1="90" y1="397.79" x2="1180" y2="397.79" stroke="#e5e7eb" stroke-width="1"/>
<text x="78" y="402.79" text-anchor="end" font-size="12" fill="#111" font-family="sans-serif">500</text>
<line x1="90" y1="195.59" x2="1180" y2="195.59" stroke="#e5e7eb" stroke-width="1"/>
<text x="78" y="200.59" text-anchor="end" font-size="12" fill="#111" font-family="sans-serif">1000</text>
<line x1="90.00" y1="600" x2="90.00" y2="606" stroke="#333" stroke-width="1"/>
<text x="90.00" y="624" text-anchor="end" font-size="11" fill="#111" transform="rotate(-40 90.00,624)" font-family="sans-serif">2026-02-12</text>
<line x1="225.12" y1="600" x2="225.12" y2="606" stroke="#333" stroke-width="1"/>
<text x="225.12" y="624" text-anchor="end" font-size="11" fill="#111" transform="rotate(-40 225.12,624)" font-family="sans-serif">2026-02-17</text>
<line x1="360.25" y1="600" x2="360.25" y2="606" stroke="#333" stroke-width="1"/>
<text x="360.25" y="624" text-anchor="end" font-size="11" fill="#111" transform="rotate(-40 360.25,624)" font-family="sans-serif">2026-02-21</text>
<line x1="495.37" y1="600" x2="495.37" y2="606" stroke="#333" stroke-width="1"/>
<text x="495.37" y="624" text-anchor="end" font-size="11" fill="#111" transform="rotate(-40 495.37,624)" font-family="sans-serif">2026-02-25</text>
<line x1="630.50" y1="600" x2="630.50" y2="606" stroke="#333" stroke-width="1"/>
<text x="630.50" y="624" text-anchor="end" font-size="11" fill="#111" transform="rotate(-40 630.50,624)" font-family="sans-serif">2026-02-28</text>
<line x1="765.62" y1="600" x2="765.62" y2="606" stroke="#333" stroke-width="1"/>
<text x="765.62" y="624" text-anchor="end" font-size="11" fill="#111" transform="rotate(-40 765.62,624)" font-family="sans-serif">2026-03-06</text>
<line x1="900.74" y1="600" x2="900.74" y2="606" stroke="#333" stroke-width="1"/>
<text x="900.74" y="624" text-anchor="end" font-size="11" fill="#111" transform="rotate(-40 900.74,624)" font-family="sans-serif">2026-03-06</text>
<line x1="1035.87" y1="600" x2="1035.87" y2="606" stroke="#333" stroke-width="1"/>
<text x="1035.87" y="624" text-anchor="end" font-size="11" fill="#111" transform="rotate(-40 1035.87,624)" font-family="sans-serif">2026-03-11</text>
<line x1="1170.99" y1="600" x2="1170.99" y2="606" stroke="#333" stroke-width="1"/>
<text x="1170.99" y="624" text-anchor="end" font-size="11" fill="#111" transform="rotate(-40 1170.99,624)" font-family="sans-serif">2026-03-18</text>
<line x1="1180.00" y1="600" x2="1180.00" y2="606" stroke="#333" stroke-width="1"/>
<text x="1180.00" y="624" text-anchor="end" font-size="11" fill="#111" transform="rotate(-40 1180.00,624)" font-family="sans-serif">2026-03-18</text>
<line x1="90" y1="75.88" x2="1180" y2="75.88" stroke="#dc2626" stroke-width="1.5" stroke-dasharray="8,4"/>
<text x="1184" y="79.88" font-size="12" fill="#dc2626" font-family="sans-serif">Goal: 1296</text>
<polyline fill="none" stroke="#2563eb" stroke-width="3" points="90.00,540.55 93.00,538.53 96.01,536.91 99.01,534.49 102.01,534.49 105.01,533.27 108.02,532.46 111.02,532.87 114.02,532.06 117.02,532.46 120.03,532.06 123.03,568.46 126.03,568.46 129.04,566.43 132.04,545.00 135.04,545.00 138.04,544.19 141.05,543.79 144.05,543.79 147.05,543.38 150.06,541.76 153.06,541.36 156.06,540.96 159.06,540.96 162.07,539.34 165.07,539.34 168.07,556.73 171.07,556.73 174.08,555.51 177.08,551.07 180.08,538.93 183.09,538.93 186.09,538.93 189.09,538.12 192.09,536.91 195.10,536.91 198.10,536.51 201.10,536.51 204.10,556.73 207.11,556.73 210.11,556.73 213.11,556.73 216.12,535.29 219.12,535.29 222.12,535.29 225.12,535.29 228.13,534.49 231.13,534.08 234.13,533.68 237.13,532.87 240.14,532.06 243.14,532.06 246.14,531.25 249.15,530.85 252.15,530.44 255.15,530.04 258.15,530.04 261.16,529.23 264.16,529.23 267.16,529.23 270.17,528.42 273.17,528.42 276.17,527.61 279.17,527.21 282.18,526.80 285.18,526.40 288.18,525.18 291.18,523.57 294.19,523.57 297.19,523.16 300.19,522.76 303.20,522.35 306.20,521.54 309.20,519.52 312.20,517.50 315.21,517.50 318.21,517.50 321.21,517.50 324.21,517.50 327.22,517.50 330.22,517.10 333.22,516.69 336.23,515.48 339.23,515.07 342.23,514.67 345.23,513.86 348.24,514.26 351.24,512.24 354.24,511.84 357.25,511.84 360.25,511.03 363.25,509.82 366.25,507.79 369.26,506.99 372.26,506.58 375.26,509.41 378.26,509.01 381.27,504.96 384.27,504.56 387.27,504.15 390.28,504.56 393.28,503.75 396.28,503.75 399.28,503.35 402.29,499.30 405.29,496.47 408.29,490.00 411.29,484.34 414.30,481.10 417.30,480.29 420.30,480.70 423.31,460.88 426.31,459.26 429.31,458.05 432.31,456.03 435.32,456.03 438.32,454.41 441.32,450.77 444.33,444.30 447.33,443.90 450.33,600.00 453.33,441.88 456.34,440.66 459.34,439.45 462.34,439.04 465.34,438.64 468.35,437.83 471.35,436.62 474.35,436.62 477.36,434.60 480.36,432.17 483.36,429.34 486.36,428.93 489.37,428.53 492.37,427.72 495.37,426.91 498.37,426.10 501.38,426.10 504.38,426.10 507.38,419.63 510.39,419.23 513.39,418.42 516.39,418.01 519.39,417.61 522.40,417.61 525.40,417.61 528.40,417.21 531.40,417.21 534.41,413.57 537.41,411.95 540.41,412.76 543.42,410.74 546.42,410.74 549.42,410.33 552.42,410.33 555.43,410.33 558.43,409.93 561.43,409.93 564.44,409.93 567.44,409.52 570.44,409.52 573.44,409.12 576.45,409.52 579.45,409.12 582.45,407.50 585.45,407.10 588.46,403.05 591.46,399.82 594.46,400.22 597.47,400.62 600.47,400.62 603.47,399.41 606.47,392.94 609.48,391.32 612.48,389.30 615.48,389.30 618.48,388.49 621.49,375.15 624.49,374.74 627.49,374.74 630.50,374.74 633.50,374.74 636.50,374.34 639.50,374.34 642.51,374.34 645.51,374.34 648.51,374.34 651.52,373.93 654.52,373.12 657.52,372.72 660.52,373.53 663.53,435.81 666.53,372.32 669.53,372.72 672.53,371.91 675.54,371.91 678.54,372.32 681.54,371.10 684.55,369.89 687.55,369.89 690.55,369.89 693.55,369.49 696.56,369.89 699.56,369.08 702.56,368.68 705.56,368.27 708.57,367.87 711.57,367.06 714.57,367.46 717.58,367.06 720.58,366.25 723.58,368.27 726.58,368.68 729.59,368.68 732.59,368.27 735.59,369.08 738.60,367.87 741.60,367.46 744.60,367.06 747.60,360.18 750.61,359.78 753.61,359.38 756.61,356.95 759.61,357.35 762.62,357.76 765.62,355.33 768.62,355.74 771.63,357.35 774.63,355.33 777.63,356.14 780.63,355.74 783.64,356.14 786.64,354.12 789.64,354.93 792.64,356.14 795.65,354.52 798.65,353.71 801.65,354.12 804.66,354.93 807.66,352.90 810.66,353.71 813.66,353.31 816.67,353.31 819.67,354.52 822.67,352.90 825.67,352.50 828.68,352.50 831.68,353.31 834.68,352.50 837.69,353.71 840.69,354.12 843.69,352.50 846.69,352.90 849.70,352.50 852.70,352.10 855.70,351.69 858.71,352.10 861.71,354.12 864.71,352.50 867.71,352.10 870.72,352.10 873.72,349.67 876.72,349.67 879.72,350.88 882.73,351.29 885.73,350.48 888.73,352.10 891.74,350.48 894.74,350.48 897.74,350.48 900.74,350.07 903.75,348.46 906.75,351.29 909.75,349.67 912.75,351.29 915.76,349.67 918.76,348.86 921.76,348.46 924.77,348.46 927.77,347.24 930.77,348.86 933.77,346.84 936.78,348.46 939.78,348.86 942.78,346.84 945.79,349.26 948.79,348.05 951.79,349.26 954.79,349.26 957.80,350.48 960.80,352.90 963.80,349.67 966.80,348.46 969.81,345.62 972.81,344.82 975.81,344.41 978.82,342.39 981.82,341.18 984.82,341.58 987.82,339.15 990.83,338.35 993.83,337.54 996.83,336.73 999.83,335.92 1002.84,337.54 1005.84,338.35 1008.84,337.54 1011.85,337.54 1014.85,337.54 1017.85,333.09 1020.85,333.90 1023.86,335.92 1026.86,336.73 1029.86,335.51 1032.87,332.28 1035.87,331.47 1038.87,331.07 1041.87,331.47 1044.88,331.07 1047.88,331.07 1050.88,331.07 1053.88,331.07 1056.89,331.07 1059.89,331.07 1062.89,331.07 1065.90,331.07 1068.90,331.07 1071.90,331.07 1074.90,331.47 1077.91,331.88 1080.91,331.07 1083.91,331.47 1086.91,331.07 1089.92,331.47 1092.92,331.07 1095.92,324.19 1098.93,324.19 1101.93,318.93 1104.93,316.51 1107.93,310.44 1110.94,308.01 1113.94,600.00 1116.94,301.54 1119.94,290.22 1122.95,287.79 1125.95,286.18 1128.95,285.77 1131.96,285.77 1134.96,285.77 1137.96,286.18 1140.96,285.77 1143.97,285.77 1146.97,285.77 1149.97,283.35 1152.98,282.94 1155.98,282.94 1158.98,283.35 1161.98,282.94 1164.99,282.94 1167.99,283.75 1170.99,282.13 1173.99,282.13 1177.00,282.54 1180.00,282.13"/>
<circle cx="90.00" cy="540.55" r="3.2" fill="#1d4ed8"/>
<circle cx="93.00" cy="538.53" r="3.2" fill="#1d4ed8"/>
<circle cx="96.01" cy="536.91" r="3.2" fill="#1d4ed8"/>
<circle cx="99.01" cy="534.49" r="3.2" fill="#1d4ed8"/>
<circle cx="102.01" cy="534.49" r="3.2" fill="#1d4ed8"/>
<circle cx="105.01" cy="533.27" r="3.2" fill="#1d4ed8"/>
<circle cx="108.02" cy="532.46" r="3.2" fill="#1d4ed8"/>
<circle cx="111.02" cy="532.87" r="3.2" fill="#1d4ed8"/>
<circle cx="114.02" cy="532.06" r="3.2" fill="#1d4ed8"/>
<circle cx="117.02" cy="532.46" r="3.2" fill="#1d4ed8"/>
<circle cx="120.03" cy="532.06" r="3.2" fill="#1d4ed8"/>
<circle cx="123.03" cy="568.46" r="3.2" fill="#1d4ed8"/>
<circle cx="126.03" cy="568.46" r="3.2" fill="#1d4ed8"/>
<circle cx="129.04" cy="566.43" r="3.2" fill="#1d4ed8"/>
<circle cx="132.04" cy="545.00" r="3.2" fill="#1d4ed8"/>
<circle cx="135.04" cy="545.00" r="3.2" fill="#1d4ed8"/>
<circle cx="138.04" cy="544.19" r="3.2" fill="#1d4ed8"/>
<circle cx="141.05" cy="543.79" r="3.2" fill="#1d4ed8"/>
<circle cx="144.05" cy="543.79" r="3.2" fill="#1d4ed8"/>
<circle cx="147.05" cy="543.38" r="3.2" fill="#1d4ed8"/>
<circle cx="150.06" cy="541.76" r="3.2" fill="#1d4ed8"/>
<circle cx="153.06" cy="541.36" r="3.2" fill="#1d4ed8"/>
<circle cx="156.06" cy="540.96" r="3.2" fill="#1d4ed8"/>
<circle cx="159.06" cy="540.96" r="3.2" fill="#1d4ed8"/>
<circle cx="162.07" cy="539.34" r="3.2" fill="#1d4ed8"/>
<circle cx="165.07" cy="539.34" r="3.2" fill="#1d4ed8"/>
<circle cx="168.07" cy="556.73" r="3.2" fill="#1d4ed8"/>
<circle cx="171.07" cy="556.73" r="3.2" fill="#1d4ed8"/>
<circle cx="174.08" cy="555.51" r="3.2" fill="#1d4ed8"/>
<circle cx="177.08" cy="551.07" r="3.2" fill="#1d4ed8"/>
<circle cx="180.08" cy="538.93" r="3.2" fill="#1d4ed8"/>
<circle cx="183.09" cy="538.93" r="3.2" fill="#1d4ed8"/>
<circle cx="186.09" cy="538.93" r="3.2" fill="#1d4ed8"/>
<circle cx="189.09" cy="538.12" r="3.2" fill="#1d4ed8"/>
<circle cx="192.09" cy="536.91" r="3.2" fill="#1d4ed8"/>
<circle cx="195.10" cy="536.91" r="3.2" fill="#1d4ed8"/>
<circle cx="198.10" cy="536.51" r="3.2" fill="#1d4ed8"/>
<circle cx="201.10" cy="536.51" r="3.2" fill="#1d4ed8"/>
<circle cx="204.10" cy="556.73" r="3.2" fill="#1d4ed8"/>
<circle cx="207.11" cy="556.73" r="3.2" fill="#1d4ed8"/>
<circle cx="210.11" cy="556.73" r="3.2" fill="#1d4ed8"/>
<circle cx="213.11" cy="556.73" r="3.2" fill="#1d4ed8"/>
<circle cx="216.12" cy="535.29" r="3.2" fill="#1d4ed8"/>
<circle cx="219.12" cy="535.29" r="3.2" fill="#1d4ed8"/>
<circle cx="222.12" cy="535.29" r="3.2" fill="#1d4ed8"/>
<circle cx="225.12" cy="535.29" r="3.2" fill="#1d4ed8"/>
<circle cx="228.13" cy="534.49" r="3.2" fill="#1d4ed8"/>
<circle cx="231.13" cy="534.08" r="3.2" fill="#1d4ed8"/>
<circle cx="234.13" cy="533.68" r="3.2" fill="#1d4ed8"/>
<circle cx="237.13" cy="532.87" r="3.2" fill="#1d4ed8"/>
<circle cx="240.14" cy="532.06" r="3.2" fill="#1d4ed8"/>
<circle cx="243.14" cy="532.06" r="3.2" fill="#1d4ed8"/>
<circle cx="246.14" cy="531.25" r="3.2" fill="#1d4ed8"/>
<circle cx="249.15" cy="530.85" r="3.2" fill="#1d4ed8"/>
<circle cx="252.15" cy="530.44" r="3.2" fill="#1d4ed8"/>
<circle cx="255.15" cy="530.04" r="3.2" fill="#1d4ed8"/>
<circle cx="258.15" cy="530.04" r="3.2" fill="#1d4ed8"/>
<circle cx="261.16" cy="529.23" r="3.2" fill="#1d4ed8"/>
<circle cx="264.16" cy="529.23" r="3.2" fill="#1d4ed8"/>
<circle cx="267.16" cy="529.23" r="3.2" fill="#1d4ed8"/>
<circle cx="270.17" cy="528.42" r="3.2" fill="#1d4ed8"/>
<circle cx="273.17" cy="528.42" r="3.2" fill="#1d4ed8"/>
<circle cx="276.17" cy="527.61" r="3.2" fill="#1d4ed8"/>
<circle cx="279.17" cy="527.21" r="3.2" fill="#1d4ed8"/>
<circle cx="282.18" cy="526.80" r="3.2" fill="#1d4ed8"/>
<circle cx="285.18" cy="526.40" r="3.2" fill="#1d4ed8"/>
<circle cx="288.18" cy="525.18" r="3.2" fill="#1d4ed8"/>
<circle cx="291.18" cy="523.57" r="3.2" fill="#1d4ed8"/>
<circle cx="294.19" cy="523.57" r="3.2" fill="#1d4ed8"/>
<circle cx="297.19" cy="523.16" r="3.2" fill="#1d4ed8"/>
<circle cx="300.19" cy="522.76" r="3.2" fill="#1d4ed8"/>
<circle cx="303.20" cy="522.35" r="3.2" fill="#1d4ed8"/>
<circle cx="306.20" cy="521.54" r="3.2" fill="#1d4ed8"/>
<circle cx="309.20" cy="519.52" r="3.2" fill="#1d4ed8"/>
<circle cx="312.20" cy="517.50" r="3.2" fill="#1d4ed8"/>
<circle cx="315.21" cy="517.50" r="3.2" fill="#1d4ed8"/>
<circle cx="318.21" cy="517.50" r="3.2" fill="#1d4ed8"/>
<circle cx="321.21" cy="517.50" r="3.2" fill="#1d4ed8"/>
<circle cx="324.21" cy="517.50" r="3.2" fill="#1d4ed8"/>
<circle cx="327.22" cy="517.50" r="3.2" fill="#1d4ed8"/>
<circle cx="330.22" cy="517.10" r="3.2" fill="#1d4ed8"/>
<circle cx="333.22" cy="516.69" r="3.2" fill="#1d4ed8"/>
<circle cx="336.23" cy="515.48" r="3.2" fill="#1d4ed8"/>
<circle cx="339.23" cy="515.07" r="3.2" fill="#1d4ed8"/>
<circle cx="342.23" cy="514.67" r="3.2" fill="#1d4ed8"/>
<circle cx="345.23" cy="513.86" r="3.2" fill="#1d4ed8"/>
<circle cx="348.24" cy="514.26" r="3.2" fill="#1d4ed8"/>
<circle cx="351.24" cy="512.24" r="3.2" fill="#1d4ed8"/>
<circle cx="354.24" cy="511.84" r="3.2" fill="#1d4ed8"/>
<circle cx="357.25" cy="511.84" r="3.2" fill="#1d4ed8"/>
<circle cx="360.25" cy="511.03" r="3.2" fill="#1d4ed8"/>
<circle cx="363.25" cy="509.82" r="3.2" fill="#1d4ed8"/>
<circle cx="366.25" cy="507.79" r="3.2" fill="#1d4ed8"/>
<circle cx="369.26" cy="506.99" r="3.2" fill="#1d4ed8"/>
<circle cx="372.26" cy="506.58" r="3.2" fill="#1d4ed8"/>
<circle cx="375.26" cy="509.41" r="3.2" fill="#1d4ed8"/>
<circle cx="378.26" cy="509.01" r="3.2" fill="#1d4ed8"/>
<circle cx="381.27" cy="504.96" r="3.2" fill="#1d4ed8"/>
<circle cx="384.27" cy="504.56" r="3.2" fill="#1d4ed8"/>
<circle cx="387.27" cy="504.15" r="3.2" fill="#1d4ed8"/>
<circle cx="390.28" cy="504.56" r="3.2" fill="#1d4ed8"/>
<circle cx="393.28" cy="503.75" r="3.2" fill="#1d4ed8"/>
<circle cx="396.28" cy="503.75" r="3.2" fill="#1d4ed8"/>
<circle cx="399.28" cy="503.35" r="3.2" fill="#1d4ed8"/>
<circle cx="402.29" cy="499.30" r="3.2" fill="#1d4ed8"/>
<circle cx="405.29" cy="496.47" r="3.2" fill="#1d4ed8"/>
<circle cx="408.29" cy="490.00" r="3.2" fill="#1d4ed8"/>
<circle cx="411.29" cy="484.34" r="3.2" fill="#1d4ed8"/>
<circle cx="414.30" cy="481.10" r="3.2" fill="#1d4ed8"/>
<circle cx="417.30" cy="480.29" r="3.2" fill="#1d4ed8"/>
<circle cx="420.30" cy="480.70" r="3.2" fill="#1d4ed8"/>
<circle cx="423.31" cy="460.88" r="3.2" fill="#1d4ed8"/>
<circle cx="426.31" cy="459.26" r="3.2" fill="#1d4ed8"/>
<circle cx="429.31" cy="458.05" r="3.2" fill="#1d4ed8"/>
<circle cx="432.31" cy="456.03" r="3.2" fill="#1d4ed8"/>
<circle cx="435.32" cy="456.03" r="3.2" fill="#1d4ed8"/>
<circle cx="438.32" cy="454.41" r="3.2" fill="#1d4ed8"/>
<circle cx="441.32" cy="450.77" r="3.2" fill="#1d4ed8"/>
<circle cx="444.33" cy="444.30" r="3.2" fill="#1d4ed8"/>
<circle cx="447.33" cy="443.90" r="3.2" fill="#1d4ed8"/>
<circle cx="450.33" cy="600.00" r="3.2" fill="#1d4ed8"/>
<circle cx="453.33" cy="441.88" r="3.2" fill="#1d4ed8"/>
<circle cx="456.34" cy="440.66" r="3.2" fill="#1d4ed8"/>
<circle cx="459.34" cy="439.45" r="3.2" fill="#1d4ed8"/>
<circle cx="462.34" cy="439.04" r="3.2" fill="#1d4ed8"/>
<circle cx="465.34" cy="438.64" r="3.2" fill="#1d4ed8"/>
<circle cx="468.35" cy="437.83" r="3.2" fill="#1d4ed8"/>
<circle cx="471.35" cy="436.62" r="3.2" fill="#1d4ed8"/>
<circle cx="474.35" cy="436.62" r="3.2" fill="#1d4ed8"/>
<circle cx="477.36" cy="434.60" r="3.2" fill="#1d4ed8"/>
<circle cx="480.36" cy="432.17" r="3.2" fill="#1d4ed8"/>
<circle cx="483.36" cy="429.34" r="3.2" fill="#1d4ed8"/>
<circle cx="486.36" cy="428.93" r="3.2" fill="#1d4ed8"/>
<circle cx="489.37" cy="428.53" r="3.2" fill="#1d4ed8"/>
<circle cx="492.37" cy="427.72" r="3.2" fill="#1d4ed8"/>
<circle cx="495.37" cy="426.91" r="3.2" fill="#1d4ed8"/>
<circle cx="498.37" cy="426.10" r="3.2" fill="#1d4ed8"/>
<circle cx="501.38" cy="426.10" r="3.2" fill="#1d4ed8"/>
<circle cx="504.38" cy="426.10" r="3.2" fill="#1d4ed8"/>
<circle cx="507.38" cy="419.63" r="3.2" fill="#1d4ed8"/>
<circle cx="510.39" cy="419.23" r="3.2" fill="#1d4ed8"/>
<circle cx="513.39" cy="418.42" r="3.2" fill="#1d4ed8"/>
<circle cx="516.39" cy="418.01" r="3.2" fill="#1d4ed8"/>
<circle cx="519.39" cy="417.61" r="3.2" fill="#1d4ed8"/>
<circle cx="522.40" cy="417.61" r="3.2" fill="#1d4ed8"/>
<circle cx="525.40" cy="417.61" r="3.2" fill="#1d4ed8"/>
<circle cx="528.40" cy="417.21" r="3.2" fill="#1d4ed8"/>
<circle cx="531.40" cy="417.21" r="3.2" fill="#1d4ed8"/>
<circle cx="534.41" cy="413.57" r="3.2" fill="#1d4ed8"/>
<circle cx="537.41" cy="411.95" r="3.2" fill="#1d4ed8"/>
<circle cx="540.41" cy="412.76" r="3.2" fill="#1d4ed8"/>
<circle cx="543.42" cy="410.74" r="3.2" fill="#1d4ed8"/>
<circle cx="546.42" cy="410.74" r="3.2" fill="#1d4ed8"/>
<circle cx="549.42" cy="410.33" r="3.2" fill="#1d4ed8"/>
<circle cx="552.42" cy="410.33" r="3.2" fill="#1d4ed8"/>
<circle cx="555.43" cy="410.33" r="3.2" fill="#1d4ed8"/>
<circle cx="558.43" cy="409.93" r="3.2" fill="#1d4ed8"/>
<circle cx="561.43" cy="409.93" r="3.2" fill="#1d4ed8"/>
<circle cx="564.44" cy="409.93" r="3.2" fill="#1d4ed8"/>
<circle cx="567.44" cy="409.52" r="3.2" fill="#1d4ed8"/>
<circle cx="570.44" cy="409.52" r="3.2" fill="#1d4ed8"/>
<circle cx="573.44" cy="409.12" r="3.2" fill="#1d4ed8"/>
<circle cx="576.45" cy="409.52" r="3.2" fill="#1d4ed8"/>
<circle cx="579.45" cy="409.12" r="3.2" fill="#1d4ed8"/>
<circle cx="582.45" cy="407.50" r="3.2" fill="#1d4ed8"/>
<circle cx="585.45" cy="407.10" r="3.2" fill="#1d4ed8"/>
<circle cx="588.46" cy="403.05" r="3.2" fill="#1d4ed8"/>
<circle cx="591.46" cy="399.82" r="3.2" fill="#1d4ed8"/>
<circle cx="594.46" cy="400.22" r="3.2" fill="#1d4ed8"/>
<circle cx="597.47" cy="400.62" r="3.2" fill="#1d4ed8"/>
<circle cx="600.47" cy="400.62" r="3.2" fill="#1d4ed8"/>
<circle cx="603.47" cy="399.41" r="3.2" fill="#1d4ed8"/>
<circle cx="606.47" cy="392.94" r="3.2" fill="#1d4ed8"/>
<circle cx="609.48" cy="391.32" r="3.2" fill="#1d4ed8"/>
<circle cx="612.48" cy="389.30" r="3.2" fill="#1d4ed8"/>
<circle cx="615.48" cy="389.30" r="3.2" fill="#1d4ed8"/>
<circle cx="618.48" cy="388.49" r="3.2" fill="#1d4ed8"/>
<circle cx="621.49" cy="375.15" r="3.2" fill="#1d4ed8"/>
<circle cx="624.49" cy="374.74" r="3.2" fill="#1d4ed8"/>
<circle cx="627.49" cy="374.74" r="3.2" fill="#1d4ed8"/>
<circle cx="630.50" cy="374.74" r="3.2" fill="#1d4ed8"/>
<circle cx="633.50" cy="374.74" r="3.2" fill="#1d4ed8"/>
<circle cx="636.50" cy="374.34" r="3.2" fill="#1d4ed8"/>
<circle cx="639.50" cy="374.34" r="3.2" fill="#1d4ed8"/>
<circle cx="642.51" cy="374.34" r="3.2" fill="#1d4ed8"/>
<circle cx="645.51" cy="374.34" r="3.2" fill="#1d4ed8"/>
<circle cx="648.51" cy="374.34" r="3.2" fill="#1d4ed8"/>
<circle cx="651.52" cy="373.93" r="3.2" fill="#1d4ed8"/>
<circle cx="654.52" cy="373.12" r="3.2" fill="#1d4ed8"/>
<circle cx="657.52" cy="372.72" r="3.2" fill="#1d4ed8"/>
<circle cx="660.52" cy="373.53" r="3.2" fill="#1d4ed8"/>
<circle cx="663.53" cy="435.81" r="3.2" fill="#1d4ed8"/>
<circle cx="666.53" cy="372.32" r="3.2" fill="#1d4ed8"/>
<circle cx="669.53" cy="372.72" r="3.2" fill="#1d4ed8"/>
<circle cx="672.53" cy="371.91" r="3.2" fill="#1d4ed8"/>
<circle cx="675.54" cy="371.91" r="3.2" fill="#1d4ed8"/>
<circle cx="678.54" cy="372.32" r="3.2" fill="#1d4ed8"/>
<circle cx="681.54" cy="371.10" r="3.2" fill="#1d4ed8"/>
<circle cx="684.55" cy="369.89" r="3.2" fill="#1d4ed8"/>
<circle cx="687.55" cy="369.89" r="3.2" fill="#1d4ed8"/>
<circle cx="690.55" cy="369.89" r="3.2" fill="#1d4ed8"/>
<circle cx="693.55" cy="369.49" r="3.2" fill="#1d4ed8"/>
<circle cx="696.56" cy="369.89" r="3.2" fill="#1d4ed8"/>
<circle cx="699.56" cy="369.08" r="3.2" fill="#1d4ed8"/>
<circle cx="702.56" cy="368.68" r="3.2" fill="#1d4ed8"/>
<circle cx="705.56" cy="368.27" r="3.2" fill="#1d4ed8"/>
<circle cx="708.57" cy="367.87" r="3.2" fill="#1d4ed8"/>
<circle cx="711.57" cy="367.06" r="3.2" fill="#1d4ed8"/>
<circle cx="714.57" cy="367.46" r="3.2" fill="#1d4ed8"/>
<circle cx="717.58" cy="367.06" r="3.2" fill="#1d4ed8"/>
<circle cx="720.58" cy="366.25" r="3.2" fill="#1d4ed8"/>
<circle cx="723.58" cy="368.27" r="3.2" fill="#1d4ed8"/>
<circle cx="726.58" cy="368.68" r="3.2" fill="#1d4ed8"/>
<circle cx="729.59" cy="368.68" r="3.2" fill="#1d4ed8"/>
<circle cx="732.59" cy="368.27" r="3.2" fill="#1d4ed8"/>
<circle cx="735.59" cy="369.08" r="3.2" fill="#1d4ed8"/>
<circle cx="738.60" cy="367.87" r="3.2" fill="#1d4ed8"/>
<circle cx="741.60" cy="367.46" r="3.2" fill="#1d4ed8"/>
<circle cx="744.60" cy="367.06" r="3.2" fill="#1d4ed8"/>
<circle cx="747.60" cy="360.18" r="3.2" fill="#1d4ed8"/>
<circle cx="750.61" cy="359.78" r="3.2" fill="#1d4ed8"/>
<circle cx="753.61" cy="359.38" r="3.2" fill="#1d4ed8"/>
<circle cx="756.61" cy="356.95" r="3.2" fill="#1d4ed8"/>
<circle cx="759.61" cy="357.35" r="3.2" fill="#1d4ed8"/>
<circle cx="762.62" cy="357.76" r="3.2" fill="#1d4ed8"/>
<circle cx="765.62" cy="355.33" r="3.2" fill="#1d4ed8"/>
<circle cx="768.62" cy="355.74" r="3.2" fill="#1d4ed8"/>
<circle cx="771.63" cy="357.35" r="3.2" fill="#1d4ed8"/>
<circle cx="774.63" cy="355.33" r="3.2" fill="#1d4ed8"/>
<circle cx="777.63" cy="356.14" r="3.2" fill="#1d4ed8"/>
<circle cx="780.63" cy="355.74" r="3.2" fill="#1d4ed8"/>
<circle cx="783.64" cy="356.14" r="3.2" fill="#1d4ed8"/>
<circle cx="786.64" cy="354.12" r="3.2" fill="#1d4ed8"/>
<circle cx="789.64" cy="354.93" r="3.2" fill="#1d4ed8"/>
<circle cx="792.64" cy="356.14" r="3.2" fill="#1d4ed8"/>
<circle cx="795.65" cy="354.52" r="3.2" fill="#1d4ed8"/>
<circle cx="798.65" cy="353.71" r="3.2" fill="#1d4ed8"/>
<circle cx="801.65" cy="354.12" r="3.2" fill="#1d4ed8"/>
<circle cx="804.66" cy="354.93" r="3.2" fill="#1d4ed8"/>
<circle cx="807.66" cy="352.90" r="3.2" fill="#1d4ed8"/>
<circle cx="810.66" cy="353.71" r="3.2" fill="#1d4ed8"/>
<circle cx="813.66" cy="353.31" r="3.2" fill="#1d4ed8"/>
<circle cx="816.67" cy="353.31" r="3.2" fill="#1d4ed8"/>
<circle cx="819.67" cy="354.52" r="3.2" fill="#1d4ed8"/>
<circle cx="822.67" cy="352.90" r="3.2" fill="#1d4ed8"/>
<circle cx="825.67" cy="352.50" r="3.2" fill="#1d4ed8"/>
<circle cx="828.68" cy="352.50" r="3.2" fill="#1d4ed8"/>
<circle cx="831.68" cy="353.31" r="3.2" fill="#1d4ed8"/>
<circle cx="834.68" cy="352.50" r="3.2" fill="#1d4ed8"/>
<circle cx="837.69" cy="353.71" r="3.2" fill="#1d4ed8"/>
<circle cx="840.69" cy="354.12" r="3.2" fill="#1d4ed8"/>
<circle cx="843.69" cy="352.50" r="3.2" fill="#1d4ed8"/>
<circle cx="846.69" cy="352.90" r="3.2" fill="#1d4ed8"/>
<circle cx="849.70" cy="352.50" r="3.2" fill="#1d4ed8"/>
<circle cx="852.70" cy="352.10" r="3.2" fill="#1d4ed8"/>
<circle cx="855.70" cy="351.69" r="3.2" fill="#1d4ed8"/>
<circle cx="858.71" cy="352.10" r="3.2" fill="#1d4ed8"/>
<circle cx="861.71" cy="354.12" r="3.2" fill="#1d4ed8"/>
<circle cx="864.71" cy="352.50" r="3.2" fill="#1d4ed8"/>
<circle cx="867.71" cy="352.10" r="3.2" fill="#1d4ed8"/>
<circle cx="870.72" cy="352.10" r="3.2" fill="#1d4ed8"/>
<circle cx="873.72" cy="349.67" r="3.2" fill="#1d4ed8"/>
<circle cx="876.72" cy="349.67" r="3.2" fill="#1d4ed8"/>
<circle cx="879.72" cy="350.88" r="3.2" fill="#1d4ed8"/>
<circle cx="882.73" cy="351.29" r="3.2" fill="#1d4ed8"/>
<circle cx="885.73" cy="350.48" r="3.2" fill="#1d4ed8"/>
<circle cx="888.73" cy="352.10" r="3.2" fill="#1d4ed8"/>
<circle cx="891.74" cy="350.48" r="3.2" fill="#1d4ed8"/>
<circle cx="894.74" cy="350.48" r="3.2" fill="#1d4ed8"/>
<circle cx="897.74" cy="350.48" r="3.2" fill="#1d4ed8"/>
<circle cx="900.74" cy="350.07" r="3.2" fill="#1d4ed8"/>
<circle cx="903.75" cy="348.46" r="3.2" fill="#1d4ed8"/>
<circle cx="906.75" cy="351.29" r="3.2" fill="#1d4ed8"/>
<circle cx="909.75" cy="349.67" r="3.2" fill="#1d4ed8"/>
<circle cx="912.75" cy="351.29" r="3.2" fill="#1d4ed8"/>
<circle cx="915.76" cy="349.67" r="3.2" fill="#1d4ed8"/>
<circle cx="918.76" cy="348.86" r="3.2" fill="#1d4ed8"/>
<circle cx="921.76" cy="348.46" r="3.2" fill="#1d4ed8"/>
<circle cx="924.77" cy="348.46" r="3.2" fill="#1d4ed8"/>
<circle cx="927.77" cy="347.24" r="3.2" fill="#1d4ed8"/>
<circle cx="930.77" cy="348.86" r="3.2" fill="#1d4ed8"/>
<circle cx="933.77" cy="346.84" r="3.2" fill="#1d4ed8"/>
<circle cx="936.78" cy="348.46" r="3.2" fill="#1d4ed8"/>
<circle cx="939.78" cy="348.86" r="3.2" fill="#1d4ed8"/>
<circle cx="942.78" cy="346.84" r="3.2" fill="#1d4ed8"/>
<circle cx="945.79" cy="349.26" r="3.2" fill="#1d4ed8"/>
<circle cx="948.79" cy="348.05" r="3.2" fill="#1d4ed8"/>
<circle cx="951.79" cy="349.26" r="3.2" fill="#1d4ed8"/>
<circle cx="954.79" cy="349.26" r="3.2" fill="#1d4ed8"/>
<circle cx="957.80" cy="350.48" r="3.2" fill="#1d4ed8"/>
<circle cx="960.80" cy="352.90" r="3.2" fill="#1d4ed8"/>
<circle cx="963.80" cy="349.67" r="3.2" fill="#1d4ed8"/>
<circle cx="966.80" cy="348.46" r="3.2" fill="#1d4ed8"/>
<circle cx="969.81" cy="345.62" r="3.2" fill="#1d4ed8"/>
<circle cx="972.81" cy="344.82" r="3.2" fill="#1d4ed8"/>
<circle cx="975.81" cy="344.41" r="3.2" fill="#1d4ed8"/>
<circle cx="978.82" cy="342.39" r="3.2" fill="#1d4ed8"/>
<circle cx="981.82" cy="341.18" r="3.2" fill="#1d4ed8"/>
<circle cx="984.82" cy="341.58" r="3.2" fill="#1d4ed8"/>
<circle cx="987.82" cy="339.15" r="3.2" fill="#1d4ed8"/>
<circle cx="990.83" cy="338.35" r="3.2" fill="#1d4ed8"/>
<circle cx="993.83" cy="337.54" r="3.2" fill="#1d4ed8"/>
<circle cx="996.83" cy="336.73" r="3.2" fill="#1d4ed8"/>
<circle cx="999.83" cy="335.92" r="3.2" fill="#1d4ed8"/>
<circle cx="1002.84" cy="337.54" r="3.2" fill="#1d4ed8"/>
<circle cx="1005.84" cy="338.35" r="3.2" fill="#1d4ed8"/>
<circle cx="1008.84" cy="337.54" r="3.2" fill="#1d4ed8"/>
<circle cx="1011.85" cy="337.54" r="3.2" fill="#1d4ed8"/>
<circle cx="1014.85" cy="337.54" r="3.2" fill="#1d4ed8"/>
<circle cx="1017.85" cy="333.09" r="3.2" fill="#1d4ed8"/>
<circle cx="1020.85" cy="333.90" r="3.2" fill="#1d4ed8"/>
<circle cx="1023.86" cy="335.92" r="3.2" fill="#1d4ed8"/>
<circle cx="1026.86" cy="336.73" r="3.2" fill="#1d4ed8"/>
<circle cx="1029.86" cy="335.51" r="3.2" fill="#1d4ed8"/>
<circle cx="1032.87" cy="332.28" r="3.2" fill="#1d4ed8"/>
<circle cx="1035.87" cy="331.47" r="3.2" fill="#1d4ed8"/>
<circle cx="1038.87" cy="331.07" r="3.2" fill="#1d4ed8"/>
<circle cx="1041.87" cy="331.47" r="3.2" fill="#1d4ed8"/>
<circle cx="1044.88" cy="331.07" r="3.2" fill="#1d4ed8"/>
<circle cx="1047.88" cy="331.07" r="3.2" fill="#1d4ed8"/>
<circle cx="1050.88" cy="331.07" r="3.2" fill="#1d4ed8"/>
<circle cx="1053.88" cy="331.07" r="3.2" fill="#1d4ed8"/>
<circle cx="1056.89" cy="331.07" r="3.2" fill="#1d4ed8"/>
<circle cx="1059.89" cy="331.07" r="3.2" fill="#1d4ed8"/>
<circle cx="1062.89" cy="331.07" r="3.2" fill="#1d4ed8"/>
<circle cx="1065.90" cy="331.07" r="3.2" fill="#1d4ed8"/>
<circle cx="1068.90" cy="331.07" r="3.2" fill="#1d4ed8"/>
<circle cx="1071.90" cy="331.07" r="3.2" fill="#1d4ed8"/>
<circle cx="1074.90" cy="331.47" r="3.2" fill="#1d4ed8"/>
<circle cx="1077.91" cy="331.88" r="3.2" fill="#1d4ed8"/>
<circle cx="1080.91" cy="331.07" r="3.2" fill="#1d4ed8"/>
<circle cx="1083.91" cy="331.47" r="3.2" fill="#1d4ed8"/>
<circle cx="1086.91" cy="331.07" r="3.2" fill="#1d4ed8"/>
<circle cx="1089.92" cy="331.47" r="3.2" fill="#1d4ed8"/>
<circle cx="1092.92" cy="331.07" r="3.2" fill="#1d4ed8"/>
<circle cx="1095.92" cy="324.19" r="3.2" fill="#1d4ed8"/>
<circle cx="1098.93" cy="324.19" r="3.2" fill="#1d4ed8"/>
<circle cx="1101.93" cy="318.93" r="3.2" fill="#1d4ed8"/>
<circle cx="1104.93" cy="316.51" r="3.2" fill="#1d4ed8"/>
<circle cx="1107.93" cy="310.44" r="3.2" fill="#1d4ed8"/>
<circle cx="1110.94" cy="308.01" r="3.2" fill="#1d4ed8"/>
<circle cx="1113.94" cy="600.00" r="3.2" fill="#1d4ed8"/>
<circle cx="1116.94" cy="301.54" r="3.2" fill="#1d4ed8"/>
<circle cx="1119.94" cy="290.22" r="3.2" fill="#1d4ed8"/>
<circle cx="1122.95" cy="287.79" r="3.2" fill="#1d4ed8"/>
<circle cx="1125.95" cy="286.18" r="3.2" fill="#1d4ed8"/>
<circle cx="1128.95" cy="285.77" r="3.2" fill="#1d4ed8"/>
<circle cx="1131.96" cy="285.77" r="3.2" fill="#1d4ed8"/>
<circle cx="1134.96" cy="285.77" r="3.2" fill="#1d4ed8"/>
<circle cx="1137.96" cy="286.18" r="3.2" fill="#1d4ed8"/>
<circle cx="1140.96" cy="285.77" r="3.2" fill="#1d4ed8"/>
<circle cx="1143.97" cy="285.77" r="3.2" fill="#1d4ed8"/>
<circle cx="1146.97" cy="285.77" r="3.2" fill="#1d4ed8"/>
<circle cx="1149.97" cy="283.35" r="3.2" fill="#1d4ed8"/>
<circle cx="1152.98" cy="282.94" r="3.2" fill="#1d4ed8"/>
<circle cx="1155.98" cy="282.94" r="3.2" fill="#1d4ed8"/>
<circle cx="1158.98" cy="283.35" r="3.2" fill="#1d4ed8"/>
<circle cx="1161.98" cy="282.94" r="3.2" fill="#1d4ed8"/>
<circle cx="1164.99" cy="282.94" r="3.2" fill="#1d4ed8"/>
<circle cx="1167.99" cy="283.75" r="3.2" fill="#1d4ed8"/>
<circle cx="1170.99" cy="282.13" r="3.2" fill="#1d4ed8"/>
<circle cx="1173.99" cy="282.13" r="3.2" fill="#1d4ed8"/>
<circle cx="1177.00" cy="282.54" r="3.2" fill="#1d4ed8"/>
<circle cx="1180.00" cy="282.13" r="3.2" fill="#1d4ed8"/>
<text x="635" y="695" text-anchor="middle" font-size="14" fill="#111" font-family="sans-serif">Date</text>
<text x="24" y="325" text-anchor="middle" font-size="14" fill="#111" transform="rotate(-90 24,325)" font-family="sans-serif">Passed files</text>
</svg>
