<?xml version="1.0" encoding="UTF-8"?>
<svg xmlns="http://www.w3.org/2000/svg" width="1280" height="720" viewBox="0 0 1280 720">
<rect width="100%" height="100%" fill="#ffffff"/>
<text x="640" y="30" text-anchor="middle" font-size="22" font-family="sans-serif">Roast passed files history</text>
<line x1="90" y1="600" x2="1180" y2="600" stroke="#333" stroke-width="1.5"/>
<line x1="90" y1="50" x2="90" y2="600" stroke="#333" stroke-width="1.5"/>
<line x1="90" y1="600.00" x2="1180" y2="600.00" stroke="#e5e7eb" stroke-width="1"/>
<text x="78" y="605.00" text-anchor="end" font-size="12" fill="#111" font-family="sans-serif">0</text>
<line x1="90" y1="398.09" x2="1180" y2="398.09" stroke="#e5e7eb" stroke-width="1"/>
<text x="78" y="403.09" text-anchor="end" font-size="12" fill="#111" font-family="sans-serif">500</text>
<line x1="90" y1="196.18" x2="1180" y2="196.18" stroke="#e5e7eb" stroke-width="1"/>
<text x="78" y="201.18" text-anchor="end" font-size="12" fill="#111" font-family="sans-serif">1000</text>
<line x1="90.00" y1="600" x2="90.00" y2="606" stroke="#333" stroke-width="1"/>
<text x="90.00" y="624" text-anchor="end" font-size="11" fill="#111" transform="rotate(-40 90.00,624)" font-family="sans-serif">2026-02-12</text>
<line x1="222.93" y1="600" x2="222.93" y2="606" stroke="#333" stroke-width="1"/>
<text x="222.93" y="624" text-anchor="end" font-size="11" fill="#111" transform="rotate(-40 222.93,624)" font-family="sans-serif">2026-02-13</text>
<line x1="355.85" y1="600" x2="355.85" y2="606" stroke="#333" stroke-width="1"/>
<text x="355.85" y="624" text-anchor="end" font-size="11" fill="#111" transform="rotate(-40 355.85,624)" font-family="sans-serif">2026-02-14</text>
<line x1="488.78" y1="600" x2="488.78" y2="606" stroke="#333" stroke-width="1"/>
<text x="488.78" y="624" text-anchor="end" font-size="11" fill="#111" transform="rotate(-40 488.78,624)" font-family="sans-serif">2026-02-15</text>
<line x1="621.71" y1="600" x2="621.71" y2="606" stroke="#333" stroke-width="1"/>
<text x="621.71" y="624" text-anchor="end" font-size="11" fill="#111" transform="rotate(-40 621.71,624)" font-family="sans-serif">2026-02-15</text>
<line x1="754.63" y1="600" x2="754.63" y2="606" stroke="#333" stroke-width="1"/>
<text x="754.63" y="624" text-anchor="end" font-size="11" fill="#111" transform="rotate(-40 754.63,624)" font-family="sans-serif">2026-02-16</text>
<line x1="887.56" y1="600" x2="887.56" y2="606" stroke="#333" stroke-width="1"/>
<text x="887.56" y="624" text-anchor="end" font-size="11" fill="#111" transform="rotate(-40 887.56,624)" font-family="sans-serif">2026-02-17</text>
<line x1="1020.49" y1="600" x2="1020.49" y2="606" stroke="#333" stroke-width="1"/>
<text x="1020.49" y="624" text-anchor="end" font-size="11" fill="#111" transform="rotate(-40 1020.49,624)" font-family="sans-serif">2026-02-17</text>
<line x1="1153.41" y1="600" x2="1153.41" y2="606" stroke="#333" stroke-width="1"/>
<text x="1153.41" y="624" text-anchor="end" font-size="11" fill="#111" transform="rotate(-40 1153.41,624)" font-family="sans-serif">2026-02-17</text>
<line x1="1180.00" y1="600" x2="1180.00" y2="606" stroke="#333" stroke-width="1"/>
<text x="1180.00" y="624" text-anchor="end" font-size="11" fill="#111" transform="rotate(-40 1180.00,624)" font-family="sans-serif">2026-02-17</text>
<line x1="90" y1="75.84" x2="1180" y2="75.84" stroke="#dc2626" stroke-width="1.5" stroke-dasharray="8,4"/>
<text x="1184" y="79.84" font-size="12" fill="#dc2626" font-family="sans-serif">Goal: 1298</text>
<polyline fill="none" stroke="#2563eb" stroke-width="3" points="90.00,540.64 116.59,538.62 143.17,537.00 169.76,534.58 196.34,534.58 222.93,533.37 249.51,532.56 276.10,532.97 302.68,532.16 329.27,532.56 355.85,532.16 382.44,568.50 409.02,568.50 435.61,566.48 462.20,545.08 488.78,545.08 515.37,544.27 541.95,543.87 568.54,543.87 595.12,543.47 621.71,541.85 648.29,541.45 674.88,541.04 701.46,541.04 728.05,539.43 754.63,539.43 781.22,556.79 807.80,556.79 834.39,555.58 860.98,551.14 887.56,539.02 914.15,539.02 940.73,539.02 967.32,538.22 993.90,537.00 1020.49,537.00 1047.07,536.60 1073.66,536.60 1100.24,556.79 1126.83,556.79 1153.41,556.79 1180.00,556.79"/>
<circle cx="90.00" cy="540.64" r="3.2" fill="#1d4ed8"/>
<circle cx="116.59" cy="538.62" r="3.2" fill="#1d4ed8"/>
<circle cx="143.17" cy="537.00" r="3.2" fill="#1d4ed8"/>
<circle cx="169.76" cy="534.58" r="3.2" fill="#1d4ed8"/>
<circle cx="196.34" cy="534.58" r="3.2" fill="#1d4ed8"/>
<circle cx="222.93" cy="533.37" r="3.2" fill="#1d4ed8"/>
<circle cx="249.51" cy="532.56" r="3.2" fill="#1d4ed8"/>
<circle cx="276.10" cy="532.97" r="3.2" fill="#1d4ed8"/>
<circle cx="302.68" cy="532.16" r="3.2" fill="#1d4ed8"/>
<circle cx="329.27" cy="532.56" r="3.2" fill="#1d4ed8"/>
<circle cx="355.85" cy="532.16" r="3.2" fill="#1d4ed8"/>
<circle cx="382.44" cy="568.50" r="3.2" fill="#1d4ed8"/>
<circle cx="409.02" cy="568.50" r="3.2" fill="#1d4ed8"/>
<circle cx="435.61" cy="566.48" r="3.2" fill="#1d4ed8"/>
<circle cx="462.20" cy="545.08" r="3.2" fill="#1d4ed8"/>
<circle cx="488.78" cy="545.08" r="3.2" fill="#1d4ed8"/>
<circle cx="515.37" cy="544.27" r="3.2" fill="#1d4ed8"/>
<circle cx="541.95" cy="543.87" r="3.2" fill="#1d4ed8"/>
<circle cx="568.54" cy="543.87" r="3.2" fill="#1d4ed8"/>
<circle cx="595.12" cy="543.47" r="3.2" fill="#1d4ed8"/>
<circle cx="621.71" cy="541.85" r="3.2" fill="#1d4ed8"/>
<circle cx="648.29" cy="541.45" r="3.2" fill="#1d4ed8"/>
<circle cx="674.88" cy="541.04" r="3.2" fill="#1d4ed8"/>
<circle cx="701.46" cy="541.04" r="3.2" fill="#1d4ed8"/>
<circle cx="728.05" cy="539.43" r="3.2" fill="#1d4ed8"/>
<circle cx="754.63" cy="539.43" r="3.2" fill="#1d4ed8"/>
<circle cx="781.22" cy="556.79" r="3.2" fill="#1d4ed8"/>
<circle cx="807.80" cy="556.79" r="3.2" fill="#1d4ed8"/>
<circle cx="834.39" cy="555.58" r="3.2" fill="#1d4ed8"/>
<circle cx="860.98" cy="551.14" r="3.2" fill="#1d4ed8"/>
<circle cx="887.56" cy="539.02" r="3.2" fill="#1d4ed8"/>
<circle cx="914.15" cy="539.02" r="3.2" fill="#1d4ed8"/>
<circle cx="940.73" cy="539.02" r="3.2" fill="#1d4ed8"/>
<circle cx="967.32" cy="538.22" r="3.2" fill="#1d4ed8"/>
<circle cx="993.90" cy="537.00" r="3.2" fill="#1d4ed8"/>
<circle cx="1020.49" cy="537.00" r="3.2" fill="#1d4ed8"/>
<circle cx="1047.07" cy="536.60" r="3.2" fill="#1d4ed8"/>
<circle cx="1073.66" cy="536.60" r="3.2" fill="#1d4ed8"/>
<circle cx="1100.24" cy="556.79" r="3.2" fill="#1d4ed8"/>
<circle cx="1126.83" cy="556.79" r="3.2" fill="#1d4ed8"/>
<circle cx="1153.41" cy="556.79" r="3.2" fill="#1d4ed8"/>
<circle cx="1180.00" cy="556.79" r="3.2" fill="#1d4ed8"/>
<text x="635" y="695" text-anchor="middle" font-size="14" fill="#111" font-family="sans-serif">Date</text>
<text x="24" y="325" text-anchor="middle" font-size="14" fill="#111" transform="rotate(-90 24,325)" font-family="sans-serif">Passed files</text>
</svg>
