<?xml version="1.0" encoding="UTF-8"?>
<svg xmlns="http://www.w3.org/2000/svg" width="1280" height="720" viewBox="0 0 1280 720">
<rect width="100%" height="100%" fill="#ffffff"/>
<text x="640" y="30" text-anchor="middle" font-size="22" font-family="sans-serif">Roast passed files history</text>
<line x1="90" y1="600" x2="1180" y2="600" stroke="#333" stroke-width="1.5"/>
<line x1="90" y1="50" x2="90" y2="600" stroke="#333" stroke-width="1.5"/>
<line x1="90" y1="600.00" x2="1180" y2="600.00" stroke="#e5e7eb" stroke-width="1"/>
<text x="78" y="605.00" text-anchor="end" font-size="12" fill="#111" font-family="sans-serif">0</text>
<line x1="90" y1="397.79" x2="1180" y2="397.79" stroke="#e5e7eb" stroke-width="1"/>
<text x="78" y="402.79" text-anchor="end" font-size="12" fill="#111" font-family="sans-serif">500</text>
<line x1="90" y1="195.59" x2="1180" y2="195.59" stroke="#e5e7eb" stroke-width="1"/>
<text x="78" y="200.59" text-anchor="end" font-size="12" fill="#111" font-family="sans-serif">1000</text>
<line x1="90.00" y1="600" x2="90.00" y2="606" stroke="#333" stroke-width="1"/>
<text x="90.00" y="624" text-anchor="end" font-size="11" fill="#111" transform="rotate(-40 90.00,624)" font-family="sans-serif">2026-02-12</text>
<line x1="224.53" y1="600" x2="224.53" y2="606" stroke="#333" stroke-width="1"/>
<text x="224.53" y="624" text-anchor="end" font-size="11" fill="#111" transform="rotate(-40 224.53,624)" font-family="sans-serif">2026-02-17</text>
<line x1="359.05" y1="600" x2="359.05" y2="606" stroke="#333" stroke-width="1"/>
<text x="359.05" y="624" text-anchor="end" font-size="11" fill="#111" transform="rotate(-40 359.05,624)" font-family="sans-serif">2026-02-20</text>
<line x1="493.58" y1="600" x2="493.58" y2="606" stroke="#333" stroke-width="1"/>
<text x="493.58" y="624" text-anchor="end" font-size="11" fill="#111" transform="rotate(-40 493.58,624)" font-family="sans-serif">2026-02-25</text>
<line x1="628.10" y1="600" x2="628.10" y2="606" stroke="#333" stroke-width="1"/>
<text x="628.10" y="624" text-anchor="end" font-size="11" fill="#111" transform="rotate(-40 628.10,624)" font-family="sans-serif">2026-02-26</text>
<line x1="762.63" y1="600" x2="762.63" y2="606" stroke="#333" stroke-width="1"/>
<text x="762.63" y="624" text-anchor="end" font-size="11" fill="#111" transform="rotate(-40 762.63,624)" font-family="sans-serif">2026-02-28</text>
<line x1="897.15" y1="600" x2="897.15" y2="606" stroke="#333" stroke-width="1"/>
<text x="897.15" y="624" text-anchor="end" font-size="11" fill="#111" transform="rotate(-40 897.15,624)" font-family="sans-serif">2026-03-06</text>
<line x1="1031.68" y1="600" x2="1031.68" y2="606" stroke="#333" stroke-width="1"/>
<text x="1031.68" y="624" text-anchor="end" font-size="11" fill="#111" transform="rotate(-40 1031.68,624)" font-family="sans-serif">2026-03-07</text>
<line x1="1166.20" y1="600" x2="1166.20" y2="606" stroke="#333" stroke-width="1"/>
<text x="1166.20" y="624" text-anchor="end" font-size="11" fill="#111" transform="rotate(-40 1166.20,624)" font-family="sans-serif">2026-03-11</text>
<line x1="1180.00" y1="600" x2="1180.00" y2="606" stroke="#333" stroke-width="1"/>
<text x="1180.00" y="624" text-anchor="end" font-size="11" fill="#111" transform="rotate(-40 1180.00,624)" font-family="sans-serif">2026-03-11</text>
<line x1="90" y1="75.88" x2="1180" y2="75.88" stroke="#dc2626" stroke-width="1.5" stroke-dasharray="8,4"/>
<text x="1184" y="79.88" font-size="12" fill="#dc2626" font-family="sans-serif">Goal: 1296</text>
<polyline fill="none" stroke="#2563eb" stroke-width="3" points="90.00,540.55 93.45,538.53 96.90,536.91 100.35,534.49 103.80,534.49 107.25,533.27 110.70,532.46 114.15,532.87 117.59,532.06 121.04,532.46 124.49,532.06 127.94,568.46 131.39,568.46 134.84,566.43 138.29,545.00 141.74,545.00 145.19,544.19 148.64,543.79 152.09,543.79 155.54,543.38 158.99,541.76 162.44,541.36 165.89,540.96 169.34,540.96 172.78,539.34 176.23,539.34 179.68,556.73 183.13,556.73 186.58,555.51 190.03,551.07 193.48,538.93 196.93,538.93 200.38,538.93 203.83,538.12 207.28,536.91 210.73,536.91 214.18,536.51 217.63,536.51 221.08,556.73 224.53,556.73 227.97,556.73 231.42,556.73 234.87,535.29 238.32,535.29 241.77,535.29 245.22,535.29 248.67,534.49 252.12,534.08 255.57,533.68 259.02,532.87 262.47,532.06 265.92,532.06 269.37,531.25 272.82,530.85 276.27,530.44 279.72,530.04 283.16,530.04 286.61,529.23 290.06,529.23 293.51,529.23 296.96,528.42 300.41,528.42 303.86,527.61 307.31,527.21 310.76,526.80 314.21,526.40 317.66,525.18 321.11,523.57 324.56,523.57 328.01,523.16 331.46,522.76 334.91,522.35 338.35,521.54 341.80,519.52 345.25,517.50 348.70,517.50 352.15,517.50 355.60,517.50 359.05,517.50 362.50,517.50 365.95,517.10 369.40,516.69 372.85,515.48 376.30,515.07 379.75,514.67 383.20,513.86 386.65,514.26 390.09,512.24 393.54,511.84 396.99,511.84 400.44,511.03 403.89,509.82 407.34,507.79 410.79,506.99 414.24,506.58 417.69,509.41 421.14,509.01 424.59,504.96 428.04,504.56 431.49,504.15 434.94,504.56 438.39,503.75 441.84,503.75 445.28,503.35 448.73,499.30 452.18,496.47 455.63,490.00 459.08,484.34 462.53,481.10 465.98,480.29 469.43,480.70 472.88,460.88 476.33,459.26 479.78,458.05 483.23,456.03 486.68,456.03 490.13,454.41 493.58,450.77 497.03,444.30 500.47,443.90 503.92,600.00 507.37,441.88 510.82,440.66 514.27,439.45 517.72,439.04 521.17,438.64 524.62,437.83 528.07,436.62 531.52,436.62 534.97,434.60 538.42,432.17 541.87,429.34 545.32,428.93 548.77,428.53 552.22,427.72 555.66,426.91 559.11,426.10 562.56,426.10 566.01,426.10 569.46,419.63 572.91,419.23 576.36,418.42 579.81,418.01 583.26,417.61 586.71,417.61 590.16,417.61 593.61,417.21 597.06,417.21 600.51,413.57 603.96,411.95 607.41,412.76 610.85,410.74 614.30,410.74 617.75,410.33 621.20,410.33 624.65,410.33 628.10,409.93 631.55,409.93 635.00,409.93 638.45,409.52 641.90,409.52 645.35,409.12 648.80,409.52 652.25,409.12 655.70,407.50 659.15,407.10 662.59,403.05 666.04,399.82 669.49,400.22 672.94,400.62 676.39,400.62 679.84,399.41 683.29,392.94 686.74,391.32 690.19,389.30 693.64,389.30 697.09,388.49 700.54,375.15 703.99,374.74 707.44,374.74 710.89,374.74 714.34,374.74 717.78,374.34 721.23,374.34 724.68,374.34 728.13,374.34 731.58,374.34 735.03,373.93 738.48,373.12 741.93,372.72 745.38,373.53 748.83,435.81 752.28,372.32 755.73,372.72 759.18,371.91 762.63,371.91 766.08,372.32 769.53,371.10 772.97,369.89 776.42,369.89 779.87,369.89 783.32,369.49 786.77,369.89 790.22,369.08 793.67,368.68 797.12,368.27 800.57,367.87 804.02,367.06 807.47,367.46 810.92,367.06 814.37,366.25 817.82,368.27 821.27,368.68 824.72,368.68 828.16,368.27 831.61,369.08 835.06,367.87 838.51,367.46 841.96,367.06 845.41,360.18 848.86,359.78 852.31,359.38 855.76,356.95 859.21,357.35 862.66,357.76 866.11,355.33 869.56,355.74 873.01,357.35 876.46,355.33 879.91,356.14 883.35,355.74 886.80,356.14 890.25,354.12 893.70,354.93 897.15,356.14 900.60,354.52 904.05,353.71 907.50,354.12 910.95,354.93 914.40,352.90 917.85,353.71 921.30,353.31 924.75,353.31 928.20,354.52 931.65,352.90 935.09,352.50 938.54,352.50 941.99,353.31 945.44,352.50 948.89,353.71 952.34,354.12 955.79,352.50 959.24,352.90 962.69,352.50 966.14,352.10 969.59,351.69 973.04,352.10 976.49,354.12 979.94,352.50 983.39,352.10 986.84,352.10 990.28,349.67 993.73,349.67 997.18,350.88 1000.63,351.29 1004.08,350.48 1007.53,352.10 1010.98,350.48 1014.43,350.48 1017.88,350.48 1021.33,350.07 1024.78,348.46 1028.23,351.29 1031.68,349.67 1035.13,351.29 1038.58,349.67 1042.03,348.86 1045.47,348.46 1048.92,348.46 1052.37,347.24 1055.82,348.86 1059.27,346.84 1062.72,348.46 1066.17,348.86 1069.62,346.84 1073.07,349.26 1076.52,348.05 1079.97,349.26 1083.42,349.26 1086.87,350.48 1090.32,352.90 1093.77,349.67 1097.22,348.46 1100.66,345.62 1104.11,344.82 1107.56,344.41 1111.01,342.39 1114.46,341.18 1117.91,341.58 1121.36,339.15 1124.81,338.35 1128.26,337.54 1131.71,336.73 1135.16,335.92 1138.61,337.54 1142.06,338.35 1145.51,337.54 1148.96,337.54 1152.41,337.54 1155.85,333.09 1159.30,333.90 1162.75,335.92 1166.20,336.73 1169.65,335.51 1173.10,332.28 1176.55,331.47 1180.00,331.07"/>
<circle cx="90.00" cy="540.55" r="3.2" fill="#1d4ed8"/>
<circle cx="93.45" cy="538.53" r="3.2" fill="#1d4ed8"/>
<circle cx="96.90" cy="536.91" r="3.2" fill="#1d4ed8"/>
<circle cx="100.35" cy="534.49" r="3.2" fill="#1d4ed8"/>
<circle cx="103.80" cy="534.49" r="3.2" fill="#1d4ed8"/>
<circle cx="107.25" cy="533.27" r="3.2" fill="#1d4ed8"/>
<circle cx="110.70" cy="532.46" r="3.2" fill="#1d4ed8"/>
<circle cx="114.15" cy="532.87" r="3.2" fill="#1d4ed8"/>
<circle cx="117.59" cy="532.06" r="3.2" fill="#1d4ed8"/>
<circle cx="121.04" cy="532.46" r="3.2" fill="#1d4ed8"/>
<circle cx="124.49" cy="532.06" r="3.2" fill="#1d4ed8"/>
<circle cx="127.94" cy="568.46" r="3.2" fill="#1d4ed8"/>
<circle cx="131.39" cy="568.46" r="3.2" fill="#1d4ed8"/>
<circle cx="134.84" cy="566.43" r="3.2" fill="#1d4ed8"/>
<circle cx="138.29" cy="545.00" r="3.2" fill="#1d4ed8"/>
<circle cx="141.74" cy="545.00" r="3.2" fill="#1d4ed8"/>
<circle cx="145.19" cy="544.19" r="3.2" fill="#1d4ed8"/>
<circle cx="148.64" cy="543.79" r="3.2" fill="#1d4ed8"/>
<circle cx="152.09" cy="543.79" r="3.2" fill="#1d4ed8"/>
<circle cx="155.54" cy="543.38" r="3.2" fill="#1d4ed8"/>
<circle cx="158.99" cy="541.76" r="3.2" fill="#1d4ed8"/>
<circle cx="162.44" cy="541.36" r="3.2" fill="#1d4ed8"/>
<circle cx="165.89" cy="540.96" r="3.2" fill="#1d4ed8"/>
<circle cx="169.34" cy="540.96" r="3.2" fill="#1d4ed8"/>
<circle cx="172.78" cy="539.34" r="3.2" fill="#1d4ed8"/>
<circle cx="176.23" cy="539.34" r="3.2" fill="#1d4ed8"/>
<circle cx="179.68" cy="556.73" r="3.2" fill="#1d4ed8"/>
<circle cx="183.13" cy="556.73" r="3.2" fill="#1d4ed8"/>
<circle cx="186.58" cy="555.51" r="3.2" fill="#1d4ed8"/>
<circle cx="190.03" cy="551.07" r="3.2" fill="#1d4ed8"/>
<circle cx="193.48" cy="538.93" r="3.2" fill="#1d4ed8"/>
<circle cx="196.93" cy="538.93" r="3.2" fill="#1d4ed8"/>
<circle cx="200.38" cy="538.93" r="3.2" fill="#1d4ed8"/>
<circle cx="203.83" cy="538.12" r="3.2" fill="#1d4ed8"/>
<circle cx="207.28" cy="536.91" r="3.2" fill="#1d4ed8"/>
<circle cx="210.73" cy="536.91" r="3.2" fill="#1d4ed8"/>
<circle cx="214.18" cy="536.51" r="3.2" fill="#1d4ed8"/>
<circle cx="217.63" cy="536.51" r="3.2" fill="#1d4ed8"/>
<circle cx="221.08" cy="556.73" r="3.2" fill="#1d4ed8"/>
<circle cx="224.53" cy="556.73" r="3.2" fill="#1d4ed8"/>
<circle cx="227.97" cy="556.73" r="3.2" fill="#1d4ed8"/>
<circle cx="231.42" cy="556.73" r="3.2" fill="#1d4ed8"/>
<circle cx="234.87" cy="535.29" r="3.2" fill="#1d4ed8"/>
<circle cx="238.32" cy="535.29" r="3.2" fill="#1d4ed8"/>
<circle cx="241.77" cy="535.29" r="3.2" fill="#1d4ed8"/>
<circle cx="245.22" cy="535.29" r="3.2" fill="#1d4ed8"/>
<circle cx="248.67" cy="534.49" r="3.2" fill="#1d4ed8"/>
<circle cx="252.12" cy="534.08" r="3.2" fill="#1d4ed8"/>
<circle cx="255.57" cy="533.68" r="3.2" fill="#1d4ed8"/>
<circle cx="259.02" cy="532.87" r="3.2" fill="#1d4ed8"/>
<circle cx="262.47" cy="532.06" r="3.2" fill="#1d4ed8"/>
<circle cx="265.92" cy="532.06" r="3.2" fill="#1d4ed8"/>
<circle cx="269.37" cy="531.25" r="3.2" fill="#1d4ed8"/>
<circle cx="272.82" cy="530.85" r="3.2" fill="#1d4ed8"/>
<circle cx="276.27" cy="530.44" r="3.2" fill="#1d4ed8"/>
<circle cx="279.72" cy="530.04" r="3.2" fill="#1d4ed8"/>
<circle cx="283.16" cy="530.04" r="3.2" fill="#1d4ed8"/>
<circle cx="286.61" cy="529.23" r="3.2" fill="#1d4ed8"/>
<circle cx="290.06" cy="529.23" r="3.2" fill="#1d4ed8"/>
<circle cx="293.51" cy="529.23" r="3.2" fill="#1d4ed8"/>
<circle cx="296.96" cy="528.42" r="3.2" fill="#1d4ed8"/>
<circle cx="300.41" cy="528.42" r="3.2" fill="#1d4ed8"/>
<circle cx="303.86" cy="527.61" r="3.2" fill="#1d4ed8"/>
<circle cx="307.31" cy="527.21" r="3.2" fill="#1d4ed8"/>
<circle cx="310.76" cy="526.80" r="3.2" fill="#1d4ed8"/>
<circle cx="314.21" cy="526.40" r="3.2" fill="#1d4ed8"/>
<circle cx="317.66" cy="525.18" r="3.2" fill="#1d4ed8"/>
<circle cx="321.11" cy="523.57" r="3.2" fill="#1d4ed8"/>
<circle cx="324.56" cy="523.57" r="3.2" fill="#1d4ed8"/>
<circle cx="328.01" cy="523.16" r="3.2" fill="#1d4ed8"/>
<circle cx="331.46" cy="522.76" r="3.2" fill="#1d4ed8"/>
<circle cx="334.91" cy="522.35" r="3.2" fill="#1d4ed8"/>
<circle cx="338.35" cy="521.54" r="3.2" fill="#1d4ed8"/>
<circle cx="341.80" cy="519.52" r="3.2" fill="#1d4ed8"/>
<circle cx="345.25" cy="517.50" r="3.2" fill="#1d4ed8"/>
<circle cx="348.70" cy="517.50" r="3.2" fill="#1d4ed8"/>
<circle cx="352.15" cy="517.50" r="3.2" fill="#1d4ed8"/>
<circle cx="355.60" cy="517.50" r="3.2" fill="#1d4ed8"/>
<circle cx="359.05" cy="517.50" r="3.2" fill="#1d4ed8"/>
<circle cx="362.50" cy="517.50" r="3.2" fill="#1d4ed8"/>
<circle cx="365.95" cy="517.10" r="3.2" fill="#1d4ed8"/>
<circle cx="369.40" cy="516.69" r="3.2" fill="#1d4ed8"/>
<circle cx="372.85" cy="515.48" r="3.2" fill="#1d4ed8"/>
<circle cx="376.30" cy="515.07" r="3.2" fill="#1d4ed8"/>
<circle cx="379.75" cy="514.67" r="3.2" fill="#1d4ed8"/>
<circle cx="383.20" cy="513.86" r="3.2" fill="#1d4ed8"/>
<circle cx="386.65" cy="514.26" r="3.2" fill="#1d4ed8"/>
<circle cx="390.09" cy="512.24" r="3.2" fill="#1d4ed8"/>
<circle cx="393.54" cy="511.84" r="3.2" fill="#1d4ed8"/>
<circle cx="396.99" cy="511.84" r="3.2" fill="#1d4ed8"/>
<circle cx="400.44" cy="511.03" r="3.2" fill="#1d4ed8"/>
<circle cx="403.89" cy="509.82" r="3.2" fill="#1d4ed8"/>
<circle cx="407.34" cy="507.79" r="3.2" fill="#1d4ed8"/>
<circle cx="410.79" cy="506.99" r="3.2" fill="#1d4ed8"/>
<circle cx="414.24" cy="506.58" r="3.2" fill="#1d4ed8"/>
<circle cx="417.69" cy="509.41" r="3.2" fill="#1d4ed8"/>
<circle cx="421.14" cy="509.01" r="3.2" fill="#1d4ed8"/>
<circle cx="424.59" cy="504.96" r="3.2" fill="#1d4ed8"/>
<circle cx="428.04" cy="504.56" r="3.2" fill="#1d4ed8"/>
<circle cx="431.49" cy="504.15" r="3.2" fill="#1d4ed8"/>
<circle cx="434.94" cy="504.56" r="3.2" fill="#1d4ed8"/>
<circle cx="438.39" cy="503.75" r="3.2" fill="#1d4ed8"/>
<circle cx="441.84" cy="503.75" r="3.2" fill="#1d4ed8"/>
<circle cx="445.28" cy="503.35" r="3.2" fill="#1d4ed8"/>
<circle cx="448.73" cy="499.30" r="3.2" fill="#1d4ed8"/>
<circle cx="452.18" cy="496.47" r="3.2" fill="#1d4ed8"/>
<circle cx="455.63" cy="490.00" r="3.2" fill="#1d4ed8"/>
<circle cx="459.08" cy="484.34" r="3.2" fill="#1d4ed8"/>
<circle cx="462.53" cy="481.10" r="3.2" fill="#1d4ed8"/>
<circle cx="465.98" cy="480.29" r="3.2" fill="#1d4ed8"/>
<circle cx="469.43" cy="480.70" r="3.2" fill="#1d4ed8"/>
<circle cx="472.88" cy="460.88" r="3.2" fill="#1d4ed8"/>
<circle cx="476.33" cy="459.26" r="3.2" fill="#1d4ed8"/>
<circle cx="479.78" cy="458.05" r="3.2" fill="#1d4ed8"/>
<circle cx="483.23" cy="456.03" r="3.2" fill="#1d4ed8"/>
<circle cx="486.68" cy="456.03" r="3.2" fill="#1d4ed8"/>
<circle cx="490.13" cy="454.41" r="3.2" fill="#1d4ed8"/>
<circle cx="493.58" cy="450.77" r="3.2" fill="#1d4ed8"/>
<circle cx="497.03" cy="444.30" r="3.2" fill="#1d4ed8"/>
<circle cx="500.47" cy="443.90" r="3.2" fill="#1d4ed8"/>
<circle cx="503.92" cy="600.00" r="3.2" fill="#1d4ed8"/>
<circle cx="507.37" cy="441.88" r="3.2" fill="#1d4ed8"/>
<circle cx="510.82" cy="440.66" r="3.2" fill="#1d4ed8"/>
<circle cx="514.27" cy="439.45" r="3.2" fill="#1d4ed8"/>
<circle cx="517.72" cy="439.04" r="3.2" fill="#1d4ed8"/>
<circle cx="521.17" cy="438.64" r="3.2" fill="#1d4ed8"/>
<circle cx="524.62" cy="437.83" r="3.2" fill="#1d4ed8"/>
<circle cx="528.07" cy="436.62" r="3.2" fill="#1d4ed8"/>
<circle cx="531.52" cy="436.62" r="3.2" fill="#1d4ed8"/>
<circle cx="534.97" cy="434.60" r="3.2" fill="#1d4ed8"/>
<circle cx="538.42" cy="432.17" r="3.2" fill="#1d4ed8"/>
<circle cx="541.87" cy="429.34" r="3.2" fill="#1d4ed8"/>
<circle cx="545.32" cy="428.93" r="3.2" fill="#1d4ed8"/>
<circle cx="548.77" cy="428.53" r="3.2" fill="#1d4ed8"/>
<circle cx="552.22" cy="427.72" r="3.2" fill="#1d4ed8"/>
<circle cx="555.66" cy="426.91" r="3.2" fill="#1d4ed8"/>
<circle cx="559.11" cy="426.10" r="3.2" fill="#1d4ed8"/>
<circle cx="562.56" cy="426.10" r="3.2" fill="#1d4ed8"/>
<circle cx="566.01" cy="426.10" r="3.2" fill="#1d4ed8"/>
<circle cx="569.46" cy="419.63" r="3.2" fill="#1d4ed8"/>
<circle cx="572.91" cy="419.23" r="3.2" fill="#1d4ed8"/>
<circle cx="576.36" cy="418.42" r="3.2" fill="#1d4ed8"/>
<circle cx="579.81" cy="418.01" r="3.2" fill="#1d4ed8"/>
<circle cx="583.26" cy="417.61" r="3.2" fill="#1d4ed8"/>
<circle cx="586.71" cy="417.61" r="3.2" fill="#1d4ed8"/>
<circle cx="590.16" cy="417.61" r="3.2" fill="#1d4ed8"/>
<circle cx="593.61" cy="417.21" r="3.2" fill="#1d4ed8"/>
<circle cx="597.06" cy="417.21" r="3.2" fill="#1d4ed8"/>
<circle cx="600.51" cy="413.57" r="3.2" fill="#1d4ed8"/>
<circle cx="603.96" cy="411.95" r="3.2" fill="#1d4ed8"/>
<circle cx="607.41" cy="412.76" r="3.2" fill="#1d4ed8"/>
<circle cx="610.85" cy="410.74" r="3.2" fill="#1d4ed8"/>
<circle cx="614.30" cy="410.74" r="3.2" fill="#1d4ed8"/>
<circle cx="617.75" cy="410.33" r="3.2" fill="#1d4ed8"/>
<circle cx="621.20" cy="410.33" r="3.2" fill="#1d4ed8"/>
<circle cx="624.65" cy="410.33" r="3.2" fill="#1d4ed8"/>
<circle cx="628.10" cy="409.93" r="3.2" fill="#1d4ed8"/>
<circle cx="631.55" cy="409.93" r="3.2" fill="#1d4ed8"/>
<circle cx="635.00" cy="409.93" r="3.2" fill="#1d4ed8"/>
<circle cx="638.45" cy="409.52" r="3.2" fill="#1d4ed8"/>
<circle cx="641.90" cy="409.52" r="3.2" fill="#1d4ed8"/>
<circle cx="645.35" cy="409.12" r="3.2" fill="#1d4ed8"/>
<circle cx="648.80" cy="409.52" r="3.2" fill="#1d4ed8"/>
<circle cx="652.25" cy="409.12" r="3.2" fill="#1d4ed8"/>
<circle cx="655.70" cy="407.50" r="3.2" fill="#1d4ed8"/>
<circle cx="659.15" cy="407.10" r="3.2" fill="#1d4ed8"/>
<circle cx="662.59" cy="403.05" r="3.2" fill="#1d4ed8"/>
<circle cx="666.04" cy="399.82" r="3.2" fill="#1d4ed8"/>
<circle cx="669.49" cy="400.22" r="3.2" fill="#1d4ed8"/>
<circle cx="672.94" cy="400.62" r="3.2" fill="#1d4ed8"/>
<circle cx="676.39" cy="400.62" r="3.2" fill="#1d4ed8"/>
<circle cx="679.84" cy="399.41" r="3.2" fill="#1d4ed8"/>
<circle cx="683.29" cy="392.94" r="3.2" fill="#1d4ed8"/>
<circle cx="686.74" cy="391.32" r="3.2" fill="#1d4ed8"/>
<circle cx="690.19" cy="389.30" r="3.2" fill="#1d4ed8"/>
<circle cx="693.64" cy="389.30" r="3.2" fill="#1d4ed8"/>
<circle cx="697.09" cy="388.49" r="3.2" fill="#1d4ed8"/>
<circle cx="700.54" cy="375.15" r="3.2" fill="#1d4ed8"/>
<circle cx="703.99" cy="374.74" r="3.2" fill="#1d4ed8"/>
<circle cx="707.44" cy="374.74" r="3.2" fill="#1d4ed8"/>
<circle cx="710.89" cy="374.74" r="3.2" fill="#1d4ed8"/>
<circle cx="714.34" cy="374.74" r="3.2" fill="#1d4ed8"/>
<circle cx="717.78" cy="374.34" r="3.2" fill="#1d4ed8"/>
<circle cx="721.23" cy="374.34" r="3.2" fill="#1d4ed8"/>
<circle cx="724.68" cy="374.34" r="3.2" fill="#1d4ed8"/>
<circle cx="728.13" cy="374.34" r="3.2" fill="#1d4ed8"/>
<circle cx="731.58" cy="374.34" r="3.2" fill="#1d4ed8"/>
<circle cx="735.03" cy="373.93" r="3.2" fill="#1d4ed8"/>
<circle cx="738.48" cy="373.12" r="3.2" fill="#1d4ed8"/>
<circle cx="741.93" cy="372.72" r="3.2" fill="#1d4ed8"/>
<circle cx="745.38" cy="373.53" r="3.2" fill="#1d4ed8"/>
<circle cx="748.83" cy="435.81" r="3.2" fill="#1d4ed8"/>
<circle cx="752.28" cy="372.32" r="3.2" fill="#1d4ed8"/>
<circle cx="755.73" cy="372.72" r="3.2" fill="#1d4ed8"/>
<circle cx="759.18" cy="371.91" r="3.2" fill="#1d4ed8"/>
<circle cx="762.63" cy="371.91" r="3.2" fill="#1d4ed8"/>
<circle cx="766.08" cy="372.32" r="3.2" fill="#1d4ed8"/>
<circle cx="769.53" cy="371.10" r="3.2" fill="#1d4ed8"/>
<circle cx="772.97" cy="369.89" r="3.2" fill="#1d4ed8"/>
<circle cx="776.42" cy="369.89" r="3.2" fill="#1d4ed8"/>
<circle cx="779.87" cy="369.89" r="3.2" fill="#1d4ed8"/>
<circle cx="783.32" cy="369.49" r="3.2" fill="#1d4ed8"/>
<circle cx="786.77" cy="369.89" r="3.2" fill="#1d4ed8"/>
<circle cx="790.22" cy="369.08" r="3.2" fill="#1d4ed8"/>
<circle cx="793.67" cy="368.68" r="3.2" fill="#1d4ed8"/>
<circle cx="797.12" cy="368.27" r="3.2" fill="#1d4ed8"/>
<circle cx="800.57" cy="367.87" r="3.2" fill="#1d4ed8"/>
<circle cx="804.02" cy="367.06" r="3.2" fill="#1d4ed8"/>
<circle cx="807.47" cy="367.46" r="3.2" fill="#1d4ed8"/>
<circle cx="810.92" cy="367.06" r="3.2" fill="#1d4ed8"/>
<circle cx="814.37" cy="366.25" r="3.2" fill="#1d4ed8"/>
<circle cx="817.82" cy="368.27" r="3.2" fill="#1d4ed8"/>
<circle cx="821.27" cy="368.68" r="3.2" fill="#1d4ed8"/>
<circle cx="824.72" cy="368.68" r="3.2" fill="#1d4ed8"/>
<circle cx="828.16" cy="368.27" r="3.2" fill="#1d4ed8"/>
<circle cx="831.61" cy="369.08" r="3.2" fill="#1d4ed8"/>
<circle cx="835.06" cy="367.87" r="3.2" fill="#1d4ed8"/>
<circle cx="838.51" cy="367.46" r="3.2" fill="#1d4ed8"/>
<circle cx="841.96" cy="367.06" r="3.2" fill="#1d4ed8"/>
<circle cx="845.41" cy="360.18" r="3.2" fill="#1d4ed8"/>
<circle cx="848.86" cy="359.78" r="3.2" fill="#1d4ed8"/>
<circle cx="852.31" cy="359.38" r="3.2" fill="#1d4ed8"/>
<circle cx="855.76" cy="356.95" r="3.2" fill="#1d4ed8"/>
<circle cx="859.21" cy="357.35" r="3.2" fill="#1d4ed8"/>
<circle cx="862.66" cy="357.76" r="3.2" fill="#1d4ed8"/>
<circle cx="866.11" cy="355.33" r="3.2" fill="#1d4ed8"/>
<circle cx="869.56" cy="355.74" r="3.2" fill="#1d4ed8"/>
<circle cx="873.01" cy="357.35" r="3.2" fill="#1d4ed8"/>
<circle cx="876.46" cy="355.33" r="3.2" fill="#1d4ed8"/>
<circle cx="879.91" cy="356.14" r="3.2" fill="#1d4ed8"/>
<circle cx="883.35" cy="355.74" r="3.2" fill="#1d4ed8"/>
<circle cx="886.80" cy="356.14" r="3.2" fill="#1d4ed8"/>
<circle cx="890.25" cy="354.12" r="3.2" fill="#1d4ed8"/>
<circle cx="893.70" cy="354.93" r="3.2" fill="#1d4ed8"/>
<circle cx="897.15" cy="356.14" r="3.2" fill="#1d4ed8"/>
<circle cx="900.60" cy="354.52" r="3.2" fill="#1d4ed8"/>
<circle cx="904.05" cy="353.71" r="3.2" fill="#1d4ed8"/>
<circle cx="907.50" cy="354.12" r="3.2" fill="#1d4ed8"/>
<circle cx="910.95" cy="354.93" r="3.2" fill="#1d4ed8"/>
<circle cx="914.40" cy="352.90" r="3.2" fill="#1d4ed8"/>
<circle cx="917.85" cy="353.71" r="3.2" fill="#1d4ed8"/>
<circle cx="921.30" cy="353.31" r="3.2" fill="#1d4ed8"/>
<circle cx="924.75" cy="353.31" r="3.2" fill="#1d4ed8"/>
<circle cx="928.20" cy="354.52" r="3.2" fill="#1d4ed8"/>
<circle cx="931.65" cy="352.90" r="3.2" fill="#1d4ed8"/>
<circle cx="935.09" cy="352.50" r="3.2" fill="#1d4ed8"/>
<circle cx="938.54" cy="352.50" r="3.2" fill="#1d4ed8"/>
<circle cx="941.99" cy="353.31" r="3.2" fill="#1d4ed8"/>
<circle cx="945.44" cy="352.50" r="3.2" fill="#1d4ed8"/>
<circle cx="948.89" cy="353.71" r="3.2" fill="#1d4ed8"/>
<circle cx="952.34" cy="354.12" r="3.2" fill="#1d4ed8"/>
<circle cx="955.79" cy="352.50" r="3.2" fill="#1d4ed8"/>
<circle cx="959.24" cy="352.90" r="3.2" fill="#1d4ed8"/>
<circle cx="962.69" cy="352.50" r="3.2" fill="#1d4ed8"/>
<circle cx="966.14" cy="352.10" r="3.2" fill="#1d4ed8"/>
<circle cx="969.59" cy="351.69" r="3.2" fill="#1d4ed8"/>
<circle cx="973.04" cy="352.10" r="3.2" fill="#1d4ed8"/>
<circle cx="976.49" cy="354.12" r="3.2" fill="#1d4ed8"/>
<circle cx="979.94" cy="352.50" r="3.2" fill="#1d4ed8"/>
<circle cx="983.39" cy="352.10" r="3.2" fill="#1d4ed8"/>
<circle cx="986.84" cy="352.10" r="3.2" fill="#1d4ed8"/>
<circle cx="990.28" cy="349.67" r="3.2" fill="#1d4ed8"/>
<circle cx="993.73" cy="349.67" r="3.2" fill="#1d4ed8"/>
<circle cx="997.18" cy="350.88" r="3.2" fill="#1d4ed8"/>
<circle cx="1000.63" cy="351.29" r="3.2" fill="#1d4ed8"/>
<circle cx="1004.08" cy="350.48" r="3.2" fill="#1d4ed8"/>
<circle cx="1007.53" cy="352.10" r="3.2" fill="#1d4ed8"/>
<circle cx="1010.98" cy="350.48" r="3.2" fill="#1d4ed8"/>
<circle cx="1014.43" cy="350.48" r="3.2" fill="#1d4ed8"/>
<circle cx="1017.88" cy="350.48" r="3.2" fill="#1d4ed8"/>
<circle cx="1021.33" cy="350.07" r="3.2" fill="#1d4ed8"/>
<circle cx="1024.78" cy="348.46" r="3.2" fill="#1d4ed8"/>
<circle cx="1028.23" cy="351.29" r="3.2" fill="#1d4ed8"/>
<circle cx="1031.68" cy="349.67" r="3.2" fill="#1d4ed8"/>
<circle cx="1035.13" cy="351.29" r="3.2" fill="#1d4ed8"/>
<circle cx="1038.58" cy="349.67" r="3.2" fill="#1d4ed8"/>
<circle cx="1042.03" cy="348.86" r="3.2" fill="#1d4ed8"/>
<circle cx="1045.47" cy="348.46" r="3.2" fill="#1d4ed8"/>
<circle cx="1048.92" cy="348.46" r="3.2" fill="#1d4ed8"/>
<circle cx="1052.37" cy="347.24" r="3.2" fill="#1d4ed8"/>
<circle cx="1055.82" cy="348.86" r="3.2" fill="#1d4ed8"/>
<circle cx="1059.27" cy="346.84" r="3.2" fill="#1d4ed8"/>
<circle cx="1062.72" cy="348.46" r="3.2" fill="#1d4ed8"/>
<circle cx="1066.17" cy="348.86" r="3.2" fill="#1d4ed8"/>
<circle cx="1069.62" cy="346.84" r="3.2" fill="#1d4ed8"/>
<circle cx="1073.07" cy="349.26" r="3.2" fill="#1d4ed8"/>
<circle cx="1076.52" cy="348.05" r="3.2" fill="#1d4ed8"/>
<circle cx="1079.97" cy="349.26" r="3.2" fill="#1d4ed8"/>
<circle cx="1083.42" cy="349.26" r="3.2" fill="#1d4ed8"/>
<circle cx="1086.87" cy="350.48" r="3.2" fill="#1d4ed8"/>
<circle cx="1090.32" cy="352.90" r="3.2" fill="#1d4ed8"/>
<circle cx="1093.77" cy="349.67" r="3.2" fill="#1d4ed8"/>
<circle cx="1097.22" cy="348.46" r="3.2" fill="#1d4ed8"/>
<circle cx="1100.66" cy="345.62" r="3.2" fill="#1d4ed8"/>
<circle cx="1104.11" cy="344.82" r="3.2" fill="#1d4ed8"/>
<circle cx="1107.56" cy="344.41" r="3.2" fill="#1d4ed8"/>
<circle cx="1111.01" cy="342.39" r="3.2" fill="#1d4ed8"/>
<circle cx="1114.46" cy="341.18" r="3.2" fill="#1d4ed8"/>
<circle cx="1117.91" cy="341.58" r="3.2" fill="#1d4ed8"/>
<circle cx="1121.36" cy="339.15" r="3.2" fill="#1d4ed8"/>
<circle cx="1124.81" cy="338.35" r="3.2" fill="#1d4ed8"/>
<circle cx="1128.26" cy="337.54" r="3.2" fill="#1d4ed8"/>
<circle cx="1131.71" cy="336.73" r="3.2" fill="#1d4ed8"/>
<circle cx="1135.16" cy="335.92" r="3.2" fill="#1d4ed8"/>
<circle cx="1138.61" cy="337.54" r="3.2" fill="#1d4ed8"/>
<circle cx="1142.06" cy="338.35" r="3.2" fill="#1d4ed8"/>
<circle cx="1145.51" cy="337.54" r="3.2" fill="#1d4ed8"/>
<circle cx="1148.96" cy="337.54" r="3.2" fill="#1d4ed8"/>
<circle cx="1152.41" cy="337.54" r="3.2" fill="#1d4ed8"/>
<circle cx="1155.85" cy="333.09" r="3.2" fill="#1d4ed8"/>
<circle cx="1159.30" cy="333.90" r="3.2" fill="#1d4ed8"/>
<circle cx="1162.75" cy="335.92" r="3.2" fill="#1d4ed8"/>
<circle cx="1166.20" cy="336.73" r="3.2" fill="#1d4ed8"/>
<circle cx="1169.65" cy="335.51" r="3.2" fill="#1d4ed8"/>
<circle cx="1173.10" cy="332.28" r="3.2" fill="#1d4ed8"/>
<circle cx="1176.55" cy="331.47" r="3.2" fill="#1d4ed8"/>
<circle cx="1180.00" cy="331.07" r="3.2" fill="#1d4ed8"/>
<text x="635" y="695" text-anchor="middle" font-size="14" fill="#111" font-family="sans-serif">Date</text>
<text x="24" y="325" text-anchor="middle" font-size="14" fill="#111" transform="rotate(-90 24,325)" font-family="sans-serif">Passed files</text>
</svg>
