<?xml version="1.0" encoding="UTF-8"?>
<svg xmlns="http://www.w3.org/2000/svg" width="1280" height="720" viewBox="0 0 1280 720">
<rect width="100%" height="100%" fill="#ffffff"/>
<text x="640" y="30" text-anchor="middle" font-size="22" font-family="sans-serif">Roast passed files history</text>
<line x1="90" y1="600" x2="1180" y2="600" stroke="#333" stroke-width="1.5"/>
<line x1="90" y1="50" x2="90" y2="600" stroke="#333" stroke-width="1.5"/>
<line x1="90" y1="600.00" x2="1180" y2="600.00" stroke="#e5e7eb" stroke-width="1"/>
<text x="78" y="605.00" text-anchor="end" font-size="12" fill="#111" font-family="sans-serif">0</text>
<line x1="90" y1="397.79" x2="1180" y2="397.79" stroke="#e5e7eb" stroke-width="1"/>
<text x="78" y="402.79" text-anchor="end" font-size="12" fill="#111" font-family="sans-serif">500</text>
<line x1="90" y1="195.59" x2="1180" y2="195.59" stroke="#e5e7eb" stroke-width="1"/>
<text x="78" y="200.59" text-anchor="end" font-size="12" fill="#111" font-family="sans-serif">1000</text>
<line x1="90.00" y1="600" x2="90.00" y2="606" stroke="#333" stroke-width="1"/>
<text x="90.00" y="624" text-anchor="end" font-size="11" fill="#111" transform="rotate(-40 90.00,624)" font-family="sans-serif">2026-02-12</text>
<line x1="226.82" y1="600" x2="226.82" y2="606" stroke="#333" stroke-width="1"/>
<text x="226.82" y="624" text-anchor="end" font-size="11" fill="#111" transform="rotate(-40 226.82,624)" font-family="sans-serif">2026-02-17</text>
<line x1="363.64" y1="600" x2="363.64" y2="606" stroke="#333" stroke-width="1"/>
<text x="363.64" y="624" text-anchor="end" font-size="11" fill="#111" transform="rotate(-40 363.64,624)" font-family="sans-serif">2026-02-18</text>
<line x1="500.46" y1="600" x2="500.46" y2="606" stroke="#333" stroke-width="1"/>
<text x="500.46" y="624" text-anchor="end" font-size="11" fill="#111" transform="rotate(-40 500.46,624)" font-family="sans-serif">2026-02-21</text>
<line x1="637.28" y1="600" x2="637.28" y2="606" stroke="#333" stroke-width="1"/>
<text x="637.28" y="624" text-anchor="end" font-size="11" fill="#111" transform="rotate(-40 637.28,624)" font-family="sans-serif">2026-02-25</text>
<line x1="774.10" y1="600" x2="774.10" y2="606" stroke="#333" stroke-width="1"/>
<text x="774.10" y="624" text-anchor="end" font-size="11" fill="#111" transform="rotate(-40 774.10,624)" font-family="sans-serif">2026-02-26</text>
<line x1="910.92" y1="600" x2="910.92" y2="606" stroke="#333" stroke-width="1"/>
<text x="910.92" y="624" text-anchor="end" font-size="11" fill="#111" transform="rotate(-40 910.92,624)" font-family="sans-serif">2026-02-28</text>
<line x1="1047.74" y1="600" x2="1047.74" y2="606" stroke="#333" stroke-width="1"/>
<text x="1047.74" y="624" text-anchor="end" font-size="11" fill="#111" transform="rotate(-40 1047.74,624)" font-family="sans-serif">2026-03-01</text>
<line x1="1180.00" y1="600" x2="1180.00" y2="606" stroke="#333" stroke-width="1"/>
<text x="1180.00" y="624" text-anchor="end" font-size="11" fill="#111" transform="rotate(-40 1180.00,624)" font-family="sans-serif">2026-03-06</text>
<line x1="90" y1="75.88" x2="1180" y2="75.88" stroke="#dc2626" stroke-width="1.5" stroke-dasharray="8,4"/>
<text x="1184" y="79.88" font-size="12" fill="#dc2626" font-family="sans-serif">Goal: 1296</text>
<polyline fill="none" stroke="#2563eb" stroke-width="3" points="90.00,540.55 94.56,538.53 99.12,536.91 103.68,534.49 108.24,534.49 112.80,533.27 117.36,532.46 121.92,532.87 126.49,532.06 131.05,532.46 135.61,532.06 140.17,568.46 144.73,568.46 149.29,566.43 153.85,545.00 158.41,545.00 162.97,544.19 167.53,543.79 172.09,543.79 176.65,543.38 181.21,541.76 185.77,541.36 190.33,540.96 194.90,540.96 199.46,539.34 204.02,539.34 208.58,556.73 213.14,556.73 217.70,555.51 222.26,551.07 226.82,538.93 231.38,538.93 235.94,538.93 240.50,538.12 245.06,536.91 249.62,536.91 254.18,536.51 258.74,536.51 263.31,556.73 267.87,556.73 272.43,556.73 276.99,556.73 281.55,535.29 286.11,535.29 290.67,535.29 295.23,535.29 299.79,534.49 304.35,534.08 308.91,533.68 313.47,532.87 318.03,532.06 322.59,532.06 327.15,531.25 331.72,530.85 336.28,530.44 340.84,530.04 345.40,530.04 349.96,529.23 354.52,529.23 359.08,529.23 363.64,528.42 368.20,528.42 372.76,527.61 377.32,527.21 381.88,526.80 386.44,526.40 391.00,525.18 395.56,523.57 400.13,523.57 404.69,523.16 409.25,522.76 413.81,522.35 418.37,521.54 422.93,519.52 427.49,517.50 432.05,517.50 436.61,517.50 441.17,517.50 445.73,517.50 450.29,517.50 454.85,517.10 459.41,516.69 463.97,515.48 468.54,515.07 473.10,514.67 477.66,513.86 482.22,514.26 486.78,512.24 491.34,511.84 495.90,511.84 500.46,511.03 505.02,509.82 509.58,507.79 514.14,506.99 518.70,506.58 523.26,509.41 527.82,509.01 532.38,504.96 536.95,504.56 541.51,504.15 546.07,504.56 550.63,503.75 555.19,503.75 559.75,503.35 564.31,499.30 568.87,496.47 573.43,490.00 577.99,484.34 582.55,481.10 587.11,480.29 591.67,480.70 596.23,460.88 600.79,459.26 605.36,458.05 609.92,456.03 614.48,456.03 619.04,454.41 623.60,450.77 628.16,444.30 632.72,443.90 637.28,600.00 641.84,441.88 646.40,440.66 650.96,439.45 655.52,439.04 660.08,438.64 664.64,437.83 669.21,436.62 673.77,436.62 678.33,434.60 682.89,432.17 687.45,429.34 692.01,428.93 696.57,428.53 701.13,427.72 705.69,426.91 710.25,426.10 714.81,426.10 719.37,426.10 723.93,419.63 728.49,419.23 733.05,418.42 737.62,418.01 742.18,417.61 746.74,417.61 751.30,417.61 755.86,417.21 760.42,417.21 764.98,413.57 769.54,411.95 774.10,412.76 778.66,410.74 783.22,410.74 787.78,410.33 792.34,410.33 796.90,410.33 801.46,409.93 806.03,409.93 810.59,409.93 815.15,409.52 819.71,409.52 824.27,409.12 828.83,409.52 833.39,409.12 837.95,407.50 842.51,407.10 847.07,403.05 851.63,399.82 856.19,400.22 860.75,400.62 865.31,400.62 869.87,399.41 874.44,392.94 879.00,391.32 883.56,389.30 888.12,389.30 892.68,388.49 897.24,375.15 901.80,374.74 906.36,374.74 910.92,374.74 915.48,374.74 920.04,374.34 924.60,374.34 929.16,374.34 933.72,374.34 938.28,374.34 942.85,373.93 947.41,373.12 951.97,372.72 956.53,373.53 961.09,435.81 965.65,372.32 970.21,372.72 974.77,371.91 979.33,371.91 983.89,372.32 988.45,371.10 993.01,369.89 997.57,369.89 1002.13,369.89 1006.69,369.49 1011.26,369.89 1015.82,369.08 1020.38,368.68 1024.94,368.27 1029.50,367.87 1034.06,367.06 1038.62,367.46 1043.18,367.06 1047.74,366.25 1052.30,368.27 1056.86,368.68 1061.42,368.68 1065.98,368.27 1070.54,369.08 1075.10,367.87 1079.67,367.46 1084.23,367.06 1088.79,360.18 1093.35,359.78 1097.91,359.38 1102.47,356.95 1107.03,357.35 1111.59,357.76 1116.15,355.33 1120.71,355.74 1125.27,357.35 1129.83,355.33 1134.39,356.14 1138.95,355.74 1143.51,356.14 1148.08,354.12 1152.64,354.93 1157.20,356.14 1161.76,354.52 1166.32,353.71 1170.88,354.12 1175.44,354.93 1180.00,352.90"/>
<circle cx="90.00" cy="540.55" r="3.2" fill="#1d4ed8"/>
<circle cx="94.56" cy="538.53" r="3.2" fill="#1d4ed8"/>
<circle cx="99.12" cy="536.91" r="3.2" fill="#1d4ed8"/>
<circle cx="103.68" cy="534.49" r="3.2" fill="#1d4ed8"/>
<circle cx="108.24" cy="534.49" r="3.2" fill="#1d4ed8"/>
<circle cx="112.80" cy="533.27" r="3.2" fill="#1d4ed8"/>
<circle cx="117.36" cy="532.46" r="3.2" fill="#1d4ed8"/>
<circle cx="121.92" cy="532.87" r="3.2" fill="#1d4ed8"/>
<circle cx="126.49" cy="532.06" r="3.2" fill="#1d4ed8"/>
<circle cx="131.05" cy="532.46" r="3.2" fill="#1d4ed8"/>
<circle cx="135.61" cy="532.06" r="3.2" fill="#1d4ed8"/>
<circle cx="140.17" cy="568.46" r="3.2" fill="#1d4ed8"/>
<circle cx="144.73" cy="568.46" r="3.2" fill="#1d4ed8"/>
<circle cx="149.29" cy="566.43" r="3.2" fill="#1d4ed8"/>
<circle cx="153.85" cy="545.00" r="3.2" fill="#1d4ed8"/>
<circle cx="158.41" cy="545.00" r="3.2" fill="#1d4ed8"/>
<circle cx="162.97" cy="544.19" r="3.2" fill="#1d4ed8"/>
<circle cx="167.53" cy="543.79" r="3.2" fill="#1d4ed8"/>
<circle cx="172.09" cy="543.79" r="3.2" fill="#1d4ed8"/>
<circle cx="176.65" cy="543.38" r="3.2" fill="#1d4ed8"/>
<circle cx="181.21" cy="541.76" r="3.2" fill="#1d4ed8"/>
<circle cx="185.77" cy="541.36" r="3.2" fill="#1d4ed8"/>
<circle cx="190.33" cy="540.96" r="3.2" fill="#1d4ed8"/>
<circle cx="194.90" cy="540.96" r="3.2" fill="#1d4ed8"/>
<circle cx="199.46" cy="539.34" r="3.2" fill="#1d4ed8"/>
<circle cx="204.02" cy="539.34" r="3.2" fill="#1d4ed8"/>
<circle cx="208.58" cy="556.73" r="3.2" fill="#1d4ed8"/>
<circle cx="213.14" cy="556.73" r="3.2" fill="#1d4ed8"/>
<circle cx="217.70" cy="555.51" r="3.2" fill="#1d4ed8"/>
<circle cx="222.26" cy="551.07" r="3.2" fill="#1d4ed8"/>
<circle cx="226.82" cy="538.93" r="3.2" fill="#1d4ed8"/>
<circle cx="231.38" cy="538.93" r="3.2" fill="#1d4ed8"/>
<circle cx="235.94" cy="538.93" r="3.2" fill="#1d4ed8"/>
<circle cx="240.50" cy="538.12" r="3.2" fill="#1d4ed8"/>
<circle cx="245.06" cy="536.91" r="3.2" fill="#1d4ed8"/>
<circle cx="249.62" cy="536.91" r="3.2" fill="#1d4ed8"/>
<circle cx="254.18" cy="536.51" r="3.2" fill="#1d4ed8"/>
<circle cx="258.74" cy="536.51" r="3.2" fill="#1d4ed8"/>
<circle cx="263.31" cy="556.73" r="3.2" fill="#1d4ed8"/>
<circle cx="267.87" cy="556.73" r="3.2" fill="#1d4ed8"/>
<circle cx="272.43" cy="556.73" r="3.2" fill="#1d4ed8"/>
<circle cx="276.99" cy="556.73" r="3.2" fill="#1d4ed8"/>
<circle cx="281.55" cy="535.29" r="3.2" fill="#1d4ed8"/>
<circle cx="286.11" cy="535.29" r="3.2" fill="#1d4ed8"/>
<circle cx="290.67" cy="535.29" r="3.2" fill="#1d4ed8"/>
<circle cx="295.23" cy="535.29" r="3.2" fill="#1d4ed8"/>
<circle cx="299.79" cy="534.49" r="3.2" fill="#1d4ed8"/>
<circle cx="304.35" cy="534.08" r="3.2" fill="#1d4ed8"/>
<circle cx="308.91" cy="533.68" r="3.2" fill="#1d4ed8"/>
<circle cx="313.47" cy="532.87" r="3.2" fill="#1d4ed8"/>
<circle cx="318.03" cy="532.06" r="3.2" fill="#1d4ed8"/>
<circle cx="322.59" cy="532.06" r="3.2" fill="#1d4ed8"/>
<circle cx="327.15" cy="531.25" r="3.2" fill="#1d4ed8"/>
<circle cx="331.72" cy="530.85" r="3.2" fill="#1d4ed8"/>
<circle cx="336.28" cy="530.44" r="3.2" fill="#1d4ed8"/>
<circle cx="340.84" cy="530.04" r="3.2" fill="#1d4ed8"/>
<circle cx="345.40" cy="530.04" r="3.2" fill="#1d4ed8"/>
<circle cx="349.96" cy="529.23" r="3.2" fill="#1d4ed8"/>
<circle cx="354.52" cy="529.23" r="3.2" fill="#1d4ed8"/>
<circle cx="359.08" cy="529.23" r="3.2" fill="#1d4ed8"/>
<circle cx="363.64" cy="528.42" r="3.2" fill="#1d4ed8"/>
<circle cx="368.20" cy="528.42" r="3.2" fill="#1d4ed8"/>
<circle cx="372.76" cy="527.61" r="3.2" fill="#1d4ed8"/>
<circle cx="377.32" cy="527.21" r="3.2" fill="#1d4ed8"/>
<circle cx="381.88" cy="526.80" r="3.2" fill="#1d4ed8"/>
<circle cx="386.44" cy="526.40" r="3.2" fill="#1d4ed8"/>
<circle cx="391.00" cy="525.18" r="3.2" fill="#1d4ed8"/>
<circle cx="395.56" cy="523.57" r="3.2" fill="#1d4ed8"/>
<circle cx="400.13" cy="523.57" r="3.2" fill="#1d4ed8"/>
<circle cx="404.69" cy="523.16" r="3.2" fill="#1d4ed8"/>
<circle cx="409.25" cy="522.76" r="3.2" fill="#1d4ed8"/>
<circle cx="413.81" cy="522.35" r="3.2" fill="#1d4ed8"/>
<circle cx="418.37" cy="521.54" r="3.2" fill="#1d4ed8"/>
<circle cx="422.93" cy="519.52" r="3.2" fill="#1d4ed8"/>
<circle cx="427.49" cy="517.50" r="3.2" fill="#1d4ed8"/>
<circle cx="432.05" cy="517.50" r="3.2" fill="#1d4ed8"/>
<circle cx="436.61" cy="517.50" r="3.2" fill="#1d4ed8"/>
<circle cx="441.17" cy="517.50" r="3.2" fill="#1d4ed8"/>
<circle cx="445.73" cy="517.50" r="3.2" fill="#1d4ed8"/>
<circle cx="450.29" cy="517.50" r="3.2" fill="#1d4ed8"/>
<circle cx="454.85" cy="517.10" r="3.2" fill="#1d4ed8"/>
<circle cx="459.41" cy="516.69" r="3.2" fill="#1d4ed8"/>
<circle cx="463.97" cy="515.48" r="3.2" fill="#1d4ed8"/>
<circle cx="468.54" cy="515.07" r="3.2" fill="#1d4ed8"/>
<circle cx="473.10" cy="514.67" r="3.2" fill="#1d4ed8"/>
<circle cx="477.66" cy="513.86" r="3.2" fill="#1d4ed8"/>
<circle cx="482.22" cy="514.26" r="3.2" fill="#1d4ed8"/>
<circle cx="486.78" cy="512.24" r="3.2" fill="#1d4ed8"/>
<circle cx="491.34" cy="511.84" r="3.2" fill="#1d4ed8"/>
<circle cx="495.90" cy="511.84" r="3.2" fill="#1d4ed8"/>
<circle cx="500.46" cy="511.03" r="3.2" fill="#1d4ed8"/>
<circle cx="505.02" cy="509.82" r="3.2" fill="#1d4ed8"/>
<circle cx="509.58" cy="507.79" r="3.2" fill="#1d4ed8"/>
<circle cx="514.14" cy="506.99" r="3.2" fill="#1d4ed8"/>
<circle cx="518.70" cy="506.58" r="3.2" fill="#1d4ed8"/>
<circle cx="523.26" cy="509.41" r="3.2" fill="#1d4ed8"/>
<circle cx="527.82" cy="509.01" r="3.2" fill="#1d4ed8"/>
<circle cx="532.38" cy="504.96" r="3.2" fill="#1d4ed8"/>
<circle cx="536.95" cy="504.56" r="3.2" fill="#1d4ed8"/>
<circle cx="541.51" cy="504.15" r="3.2" fill="#1d4ed8"/>
<circle cx="546.07" cy="504.56" r="3.2" fill="#1d4ed8"/>
<circle cx="550.63" cy="503.75" r="3.2" fill="#1d4ed8"/>
<circle cx="555.19" cy="503.75" r="3.2" fill="#1d4ed8"/>
<circle cx="559.75" cy="503.35" r="3.2" fill="#1d4ed8"/>
<circle cx="564.31" cy="499.30" r="3.2" fill="#1d4ed8"/>
<circle cx="568.87" cy="496.47" r="3.2" fill="#1d4ed8"/>
<circle cx="573.43" cy="490.00" r="3.2" fill="#1d4ed8"/>
<circle cx="577.99" cy="484.34" r="3.2" fill="#1d4ed8"/>
<circle cx="582.55" cy="481.10" r="3.2" fill="#1d4ed8"/>
<circle cx="587.11" cy="480.29" r="3.2" fill="#1d4ed8"/>
<circle cx="591.67" cy="480.70" r="3.2" fill="#1d4ed8"/>
<circle cx="596.23" cy="460.88" r="3.2" fill="#1d4ed8"/>
<circle cx="600.79" cy="459.26" r="3.2" fill="#1d4ed8"/>
<circle cx="605.36" cy="458.05" r="3.2" fill="#1d4ed8"/>
<circle cx="609.92" cy="456.03" r="3.2" fill="#1d4ed8"/>
<circle cx="614.48" cy="456.03" r="3.2" fill="#1d4ed8"/>
<circle cx="619.04" cy="454.41" r="3.2" fill="#1d4ed8"/>
<circle cx="623.60" cy="450.77" r="3.2" fill="#1d4ed8"/>
<circle cx="628.16" cy="444.30" r="3.2" fill="#1d4ed8"/>
<circle cx="632.72" cy="443.90" r="3.2" fill="#1d4ed8"/>
<circle cx="637.28" cy="600.00" r="3.2" fill="#1d4ed8"/>
<circle cx="641.84" cy="441.88" r="3.2" fill="#1d4ed8"/>
<circle cx="646.40" cy="440.66" r="3.2" fill="#1d4ed8"/>
<circle cx="650.96" cy="439.45" r="3.2" fill="#1d4ed8"/>
<circle cx="655.52" cy="439.04" r="3.2" fill="#1d4ed8"/>
<circle cx="660.08" cy="438.64" r="3.2" fill="#1d4ed8"/>
<circle cx="664.64" cy="437.83" r="3.2" fill="#1d4ed8"/>
<circle cx="669.21" cy="436.62" r="3.2" fill="#1d4ed8"/>
<circle cx="673.77" cy="436.62" r="3.2" fill="#1d4ed8"/>
<circle cx="678.33" cy="434.60" r="3.2" fill="#1d4ed8"/>
<circle cx="682.89" cy="432.17" r="3.2" fill="#1d4ed8"/>
<circle cx="687.45" cy="429.34" r="3.2" fill="#1d4ed8"/>
<circle cx="692.01" cy="428.93" r="3.2" fill="#1d4ed8"/>
<circle cx="696.57" cy="428.53" r="3.2" fill="#1d4ed8"/>
<circle cx="701.13" cy="427.72" r="3.2" fill="#1d4ed8"/>
<circle cx="705.69" cy="426.91" r="3.2" fill="#1d4ed8"/>
<circle cx="710.25" cy="426.10" r="3.2" fill="#1d4ed8"/>
<circle cx="714.81" cy="426.10" r="3.2" fill="#1d4ed8"/>
<circle cx="719.37" cy="426.10" r="3.2" fill="#1d4ed8"/>
<circle cx="723.93" cy="419.63" r="3.2" fill="#1d4ed8"/>
<circle cx="728.49" cy="419.23" r="3.2" fill="#1d4ed8"/>
<circle cx="733.05" cy="418.42" r="3.2" fill="#1d4ed8"/>
<circle cx="737.62" cy="418.01" r="3.2" fill="#1d4ed8"/>
<circle cx="742.18" cy="417.61" r="3.2" fill="#1d4ed8"/>
<circle cx="746.74" cy="417.61" r="3.2" fill="#1d4ed8"/>
<circle cx="751.30" cy="417.61" r="3.2" fill="#1d4ed8"/>
<circle cx="755.86" cy="417.21" r="3.2" fill="#1d4ed8"/>
<circle cx="760.42" cy="417.21" r="3.2" fill="#1d4ed8"/>
<circle cx="764.98" cy="413.57" r="3.2" fill="#1d4ed8"/>
<circle cx="769.54" cy="411.95" r="3.2" fill="#1d4ed8"/>
<circle cx="774.10" cy="412.76" r="3.2" fill="#1d4ed8"/>
<circle cx="778.66" cy="410.74" r="3.2" fill="#1d4ed8"/>
<circle cx="783.22" cy="410.74" r="3.2" fill="#1d4ed8"/>
<circle cx="787.78" cy="410.33" r="3.2" fill="#1d4ed8"/>
<circle cx="792.34" cy="410.33" r="3.2" fill="#1d4ed8"/>
<circle cx="796.90" cy="410.33" r="3.2" fill="#1d4ed8"/>
<circle cx="801.46" cy="409.93" r="3.2" fill="#1d4ed8"/>
<circle cx="806.03" cy="409.93" r="3.2" fill="#1d4ed8"/>
<circle cx="810.59" cy="409.93" r="3.2" fill="#1d4ed8"/>
<circle cx="815.15" cy="409.52" r="3.2" fill="#1d4ed8"/>
<circle cx="819.71" cy="409.52" r="3.2" fill="#1d4ed8"/>
<circle cx="824.27" cy="409.12" r="3.2" fill="#1d4ed8"/>
<circle cx="828.83" cy="409.52" r="3.2" fill="#1d4ed8"/>
<circle cx="833.39" cy="409.12" r="3.2" fill="#1d4ed8"/>
<circle cx="837.95" cy="407.50" r="3.2" fill="#1d4ed8"/>
<circle cx="842.51" cy="407.10" r="3.2" fill="#1d4ed8"/>
<circle cx="847.07" cy="403.05" r="3.2" fill="#1d4ed8"/>
<circle cx="851.63" cy="399.82" r="3.2" fill="#1d4ed8"/>
<circle cx="856.19" cy="400.22" r="3.2" fill="#1d4ed8"/>
<circle cx="860.75" cy="400.62" r="3.2" fill="#1d4ed8"/>
<circle cx="865.31" cy="400.62" r="3.2" fill="#1d4ed8"/>
<circle cx="869.87" cy="399.41" r="3.2" fill="#1d4ed8"/>
<circle cx="874.44" cy="392.94" r="3.2" fill="#1d4ed8"/>
<circle cx="879.00" cy="391.32" r="3.2" fill="#1d4ed8"/>
<circle cx="883.56" cy="389.30" r="3.2" fill="#1d4ed8"/>
<circle cx="888.12" cy="389.30" r="3.2" fill="#1d4ed8"/>
<circle cx="892.68" cy="388.49" r="3.2" fill="#1d4ed8"/>
<circle cx="897.24" cy="375.15" r="3.2" fill="#1d4ed8"/>
<circle cx="901.80" cy="374.74" r="3.2" fill="#1d4ed8"/>
<circle cx="906.36" cy="374.74" r="3.2" fill="#1d4ed8"/>
<circle cx="910.92" cy="374.74" r="3.2" fill="#1d4ed8"/>
<circle cx="915.48" cy="374.74" r="3.2" fill="#1d4ed8"/>
<circle cx="920.04" cy="374.34" r="3.2" fill="#1d4ed8"/>
<circle cx="924.60" cy="374.34" r="3.2" fill="#1d4ed8"/>
<circle cx="929.16" cy="374.34" r="3.2" fill="#1d4ed8"/>
<circle cx="933.72" cy="374.34" r="3.2" fill="#1d4ed8"/>
<circle cx="938.28" cy="374.34" r="3.2" fill="#1d4ed8"/>
<circle cx="942.85" cy="373.93" r="3.2" fill="#1d4ed8"/>
<circle cx="947.41" cy="373.12" r="3.2" fill="#1d4ed8"/>
<circle cx="951.97" cy="372.72" r="3.2" fill="#1d4ed8"/>
<circle cx="956.53" cy="373.53" r="3.2" fill="#1d4ed8"/>
<circle cx="961.09" cy="435.81" r="3.2" fill="#1d4ed8"/>
<circle cx="965.65" cy="372.32" r="3.2" fill="#1d4ed8"/>
<circle cx="970.21" cy="372.72" r="3.2" fill="#1d4ed8"/>
<circle cx="974.77" cy="371.91" r="3.2" fill="#1d4ed8"/>
<circle cx="979.33" cy="371.91" r="3.2" fill="#1d4ed8"/>
<circle cx="983.89" cy="372.32" r="3.2" fill="#1d4ed8"/>
<circle cx="988.45" cy="371.10" r="3.2" fill="#1d4ed8"/>
<circle cx="993.01" cy="369.89" r="3.2" fill="#1d4ed8"/>
<circle cx="997.57" cy="369.89" r="3.2" fill="#1d4ed8"/>
<circle cx="1002.13" cy="369.89" r="3.2" fill="#1d4ed8"/>
<circle cx="1006.69" cy="369.49" r="3.2" fill="#1d4ed8"/>
<circle cx="1011.26" cy="369.89" r="3.2" fill="#1d4ed8"/>
<circle cx="1015.82" cy="369.08" r="3.2" fill="#1d4ed8"/>
<circle cx="1020.38" cy="368.68" r="3.2" fill="#1d4ed8"/>
<circle cx="1024.94" cy="368.27" r="3.2" fill="#1d4ed8"/>
<circle cx="1029.50" cy="367.87" r="3.2" fill="#1d4ed8"/>
<circle cx="1034.06" cy="367.06" r="3.2" fill="#1d4ed8"/>
<circle cx="1038.62" cy="367.46" r="3.2" fill="#1d4ed8"/>
<circle cx="1043.18" cy="367.06" r="3.2" fill="#1d4ed8"/>
<circle cx="1047.74" cy="366.25" r="3.2" fill="#1d4ed8"/>
<circle cx="1052.30" cy="368.27" r="3.2" fill="#1d4ed8"/>
<circle cx="1056.86" cy="368.68" r="3.2" fill="#1d4ed8"/>
<circle cx="1061.42" cy="368.68" r="3.2" fill="#1d4ed8"/>
<circle cx="1065.98" cy="368.27" r="3.2" fill="#1d4ed8"/>
<circle cx="1070.54" cy="369.08" r="3.2" fill="#1d4ed8"/>
<circle cx="1075.10" cy="367.87" r="3.2" fill="#1d4ed8"/>
<circle cx="1079.67" cy="367.46" r="3.2" fill="#1d4ed8"/>
<circle cx="1084.23" cy="367.06" r="3.2" fill="#1d4ed8"/>
<circle cx="1088.79" cy="360.18" r="3.2" fill="#1d4ed8"/>
<circle cx="1093.35" cy="359.78" r="3.2" fill="#1d4ed8"/>
<circle cx="1097.91" cy="359.38" r="3.2" fill="#1d4ed8"/>
<circle cx="1102.47" cy="356.95" r="3.2" fill="#1d4ed8"/>
<circle cx="1107.03" cy="357.35" r="3.2" fill="#1d4ed8"/>
<circle cx="1111.59" cy="357.76" r="3.2" fill="#1d4ed8"/>
<circle cx="1116.15" cy="355.33" r="3.2" fill="#1d4ed8"/>
<circle cx="1120.71" cy="355.74" r="3.2" fill="#1d4ed8"/>
<circle cx="1125.27" cy="357.35" r="3.2" fill="#1d4ed8"/>
<circle cx="1129.83" cy="355.33" r="3.2" fill="#1d4ed8"/>
<circle cx="1134.39" cy="356.14" r="3.2" fill="#1d4ed8"/>
<circle cx="1138.95" cy="355.74" r="3.2" fill="#1d4ed8"/>
<circle cx="1143.51" cy="356.14" r="3.2" fill="#1d4ed8"/>
<circle cx="1148.08" cy="354.12" r="3.2" fill="#1d4ed8"/>
<circle cx="1152.64" cy="354.93" r="3.2" fill="#1d4ed8"/>
<circle cx="1157.20" cy="356.14" r="3.2" fill="#1d4ed8"/>
<circle cx="1161.76" cy="354.52" r="3.2" fill="#1d4ed8"/>
<circle cx="1166.32" cy="353.71" r="3.2" fill="#1d4ed8"/>
<circle cx="1170.88" cy="354.12" r="3.2" fill="#1d4ed8"/>
<circle cx="1175.44" cy="354.93" r="3.2" fill="#1d4ed8"/>
<circle cx="1180.00" cy="352.90" r="3.2" fill="#1d4ed8"/>
<text x="635" y="695" text-anchor="middle" font-size="14" fill="#111" font-family="sans-serif">Date</text>
<text x="24" y="325" text-anchor="middle" font-size="14" fill="#111" transform="rotate(-90 24,325)" font-family="sans-serif">Passed files</text>
</svg>
