<?xml version="1.0" encoding="UTF-8"?>
<svg xmlns="http://www.w3.org/2000/svg" width="1280" height="720" viewBox="0 0 1280 720">
<rect width="100%" height="100%" fill="#ffffff"/>
<text x="640" y="30" text-anchor="middle" font-size="22" font-family="sans-serif">Roast passed files history</text>
<line x1="90" y1="600" x2="1180" y2="600" stroke="#333" stroke-width="1.5"/>
<line x1="90" y1="50" x2="90" y2="600" stroke="#333" stroke-width="1.5"/>
<line x1="90" y1="600.00" x2="1180" y2="600.00" stroke="#e5e7eb" stroke-width="1"/>
<text x="78" y="605.00" text-anchor="end" font-size="12" fill="#111" font-family="sans-serif">0</text>
<line x1="90" y1="397.79" x2="1180" y2="397.79" stroke="#e5e7eb" stroke-width="1"/>
<text x="78" y="402.79" text-anchor="end" font-size="12" fill="#111" font-family="sans-serif">500</text>
<line x1="90" y1="195.59" x2="1180" y2="195.59" stroke="#e5e7eb" stroke-width="1"/>
<text x="78" y="200.59" text-anchor="end" font-size="12" fill="#111" font-family="sans-serif">1000</text>
<line x1="90.00" y1="600" x2="90.00" y2="606" stroke="#333" stroke-width="1"/>
<text x="90.00" y="624" text-anchor="end" font-size="11" fill="#111" transform="rotate(-40 90.00,624)" font-family="sans-serif">2026-02-12</text>
<line x1="225.57" y1="600" x2="225.57" y2="606" stroke="#333" stroke-width="1"/>
<text x="225.57" y="624" text-anchor="end" font-size="11" fill="#111" transform="rotate(-40 225.57,624)" font-family="sans-serif">2026-02-17</text>
<line x1="361.14" y1="600" x2="361.14" y2="606" stroke="#333" stroke-width="1"/>
<text x="361.14" y="624" text-anchor="end" font-size="11" fill="#111" transform="rotate(-40 361.14,624)" font-family="sans-serif">2026-02-23</text>
<line x1="496.72" y1="600" x2="496.72" y2="606" stroke="#333" stroke-width="1"/>
<text x="496.72" y="624" text-anchor="end" font-size="11" fill="#111" transform="rotate(-40 496.72,624)" font-family="sans-serif">2026-02-26</text>
<line x1="632.29" y1="600" x2="632.29" y2="606" stroke="#333" stroke-width="1"/>
<text x="632.29" y="624" text-anchor="end" font-size="11" fill="#111" transform="rotate(-40 632.29,624)" font-family="sans-serif">2026-03-01</text>
<line x1="767.86" y1="600" x2="767.86" y2="606" stroke="#333" stroke-width="1"/>
<text x="767.86" y="624" text-anchor="end" font-size="11" fill="#111" transform="rotate(-40 767.86,624)" font-family="sans-serif">2026-03-06</text>
<line x1="903.43" y1="600" x2="903.43" y2="606" stroke="#333" stroke-width="1"/>
<text x="903.43" y="624" text-anchor="end" font-size="11" fill="#111" transform="rotate(-40 903.43,624)" font-family="sans-serif">2026-03-08</text>
<line x1="1039.00" y1="600" x2="1039.00" y2="606" stroke="#333" stroke-width="1"/>
<text x="1039.00" y="624" text-anchor="end" font-size="11" fill="#111" transform="rotate(-40 1039.00,624)" font-family="sans-serif">2026-03-18</text>
<line x1="1174.58" y1="600" x2="1174.58" y2="606" stroke="#333" stroke-width="1"/>
<text x="1174.58" y="624" text-anchor="end" font-size="11" fill="#111" transform="rotate(-40 1174.58,624)" font-family="sans-serif">2026-03-19</text>
<line x1="1180.00" y1="600" x2="1180.00" y2="606" stroke="#333" stroke-width="1"/>
<text x="1180.00" y="624" text-anchor="end" font-size="11" fill="#111" transform="rotate(-40 1180.00,624)" font-family="sans-serif">2026-03-19</text>
<line x1="90" y1="75.88" x2="1180" y2="75.88" stroke="#dc2626" stroke-width="1.5" stroke-dasharray="8,4"/>
<text x="1184" y="79.88" font-size="12" fill="#dc2626" font-family="sans-serif">Goal: 1296</text>
<polyline fill="none" stroke="#2563eb" stroke-width="3" points="90.00,540.55 92.71,538.53 95.42,536.91 98.13,534.49 100.85,534.49 103.56,533.27 106.27,532.46 108.98,532.87 111.69,532.06 114.40,532.46 117.11,532.06 119.83,568.46 122.54,568.46 125.25,566.43 127.96,545.00 130.67,545.00 133.38,544.19 136.09,543.79 138.81,543.79 141.52,543.38 144.23,541.76 146.94,541.36 149.65,540.96 152.36,540.96 155.07,539.34 157.79,539.34 160.50,556.73 163.21,556.73 165.92,555.51 168.63,551.07 171.34,538.93 174.05,538.93 176.77,538.93 179.48,538.12 182.19,536.91 184.90,536.91 187.61,536.51 190.32,536.51 193.03,556.73 195.75,556.73 198.46,556.73 201.17,556.73 203.88,535.29 206.59,535.29 209.30,535.29 212.01,535.29 214.73,534.49 217.44,534.08 220.15,533.68 222.86,532.87 225.57,532.06 228.28,532.06 231.00,531.25 233.71,530.85 236.42,530.44 239.13,530.04 241.84,530.04 244.55,529.23 247.26,529.23 249.98,529.23 252.69,528.42 255.40,528.42 258.11,527.61 260.82,527.21 263.53,526.80 266.24,526.40 268.96,525.18 271.67,523.57 274.38,523.57 277.09,523.16 279.80,522.76 282.51,522.35 285.22,521.54 287.94,519.52 290.65,517.50 293.36,517.50 296.07,517.50 298.78,517.50 301.49,517.50 304.20,517.50 306.92,517.10 309.63,516.69 312.34,515.48 315.05,515.07 317.76,514.67 320.47,513.86 323.18,514.26 325.90,512.24 328.61,511.84 331.32,511.84 334.03,511.03 336.74,509.82 339.45,507.79 342.16,506.99 344.88,506.58 347.59,509.41 350.30,509.01 353.01,504.96 355.72,504.56 358.43,504.15 361.14,504.56 363.86,503.75 366.57,503.75 369.28,503.35 371.99,499.30 374.70,496.47 377.41,490.00 380.12,484.34 382.84,481.10 385.55,480.29 388.26,480.70 390.97,460.88 393.68,459.26 396.39,458.05 399.10,456.03 401.82,456.03 404.53,454.41 407.24,450.77 409.95,444.30 412.66,443.90 415.37,600.00 418.08,441.88 420.80,440.66 423.51,439.45 426.22,439.04 428.93,438.64 431.64,437.83 434.35,436.62 437.06,436.62 439.78,434.60 442.49,432.17 445.20,429.34 447.91,428.93 450.62,428.53 453.33,427.72 456.04,426.91 458.76,426.10 461.47,426.10 464.18,426.10 466.89,419.63 469.60,419.23 472.31,418.42 475.02,418.01 477.74,417.61 480.45,417.61 483.16,417.61 485.87,417.21 488.58,417.21 491.29,413.57 494.00,411.95 496.72,412.76 499.43,410.74 502.14,410.74 504.85,410.33 507.56,410.33 510.27,410.33 512.99,409.93 515.70,409.93 518.41,409.93 521.12,409.52 523.83,409.52 526.54,409.12 529.25,409.52 531.97,409.12 534.68,407.50 537.39,407.10 540.10,403.05 542.81,399.82 545.52,400.22 548.23,400.62 550.95,400.62 553.66,399.41 556.37,392.94 559.08,391.32 561.79,389.30 564.50,389.30 567.21,388.49 569.93,375.15 572.64,374.74 575.35,374.74 578.06,374.74 580.77,374.74 583.48,374.34 586.19,374.34 588.91,374.34 591.62,374.34 594.33,374.34 597.04,373.93 599.75,373.12 602.46,372.72 605.17,373.53 607.89,435.81 610.60,372.32 613.31,372.72 616.02,371.91 618.73,371.91 621.44,372.32 624.15,371.10 626.87,369.89 629.58,369.89 632.29,369.89 635.00,369.49 637.71,369.89 640.42,369.08 643.13,368.68 645.85,368.27 648.56,367.87 651.27,367.06 653.98,367.46 656.69,367.06 659.40,366.25 662.11,368.27 664.83,368.68 667.54,368.68 670.25,368.27 672.96,369.08 675.67,367.87 678.38,367.46 681.09,367.06 683.81,360.18 686.52,359.78 689.23,359.38 691.94,356.95 694.65,357.35 697.36,357.76 700.07,355.33 702.79,355.74 705.50,357.35 708.21,355.33 710.92,356.14 713.63,355.74 716.34,356.14 719.05,354.12 721.77,354.93 724.48,356.14 727.19,354.52 729.90,353.71 732.61,354.12 735.32,354.93 738.03,352.90 740.75,353.71 743.46,353.31 746.17,353.31 748.88,354.52 751.59,352.90 754.30,352.50 757.01,352.50 759.73,353.31 762.44,352.50 765.15,353.71 767.86,354.12 770.57,352.50 773.28,352.90 776.00,352.50 778.71,352.10 781.42,351.69 784.13,352.10 786.84,354.12 789.55,352.50 792.26,352.10 794.98,352.10 797.69,349.67 800.40,349.67 803.11,350.88 805.82,351.29 808.53,350.48 811.24,352.10 813.96,350.48 816.67,350.48 819.38,350.48 822.09,350.07 824.80,348.46 827.51,351.29 830.22,349.67 832.94,351.29 835.65,349.67 838.36,348.86 841.07,348.46 843.78,348.46 846.49,347.24 849.20,348.86 851.92,346.84 854.63,348.46 857.34,348.86 860.05,346.84 862.76,349.26 865.47,348.05 868.18,349.26 870.90,349.26 873.61,350.48 876.32,352.90 879.03,349.67 881.74,348.46 884.45,345.62 887.16,344.82 889.88,344.41 892.59,342.39 895.30,341.18 898.01,341.58 900.72,339.15 903.43,338.35 906.14,337.54 908.86,336.73 911.57,335.92 914.28,337.54 916.99,338.35 919.70,337.54 922.41,337.54 925.12,337.54 927.84,333.09 930.55,333.90 933.26,335.92 935.97,336.73 938.68,335.51 941.39,332.28 944.10,331.47 946.82,331.07 949.53,331.47 952.24,331.07 954.95,331.07 957.66,331.07 960.37,331.07 963.08,331.07 965.80,331.07 968.51,331.07 971.22,331.07 973.93,331.07 976.64,331.07 979.35,331.47 982.06,331.88 984.78,331.07 987.49,331.47 990.20,331.07 992.91,331.47 995.62,331.07 998.33,324.19 1001.04,324.19 1003.76,318.93 1006.47,316.51 1009.18,310.44 1011.89,308.01 1014.60,600.00 1017.31,301.54 1020.02,290.22 1022.74,287.79 1025.45,286.18 1028.16,285.77 1030.87,285.77 1033.58,285.77 1036.29,286.18 1039.00,285.77 1041.72,285.77 1044.43,285.77 1047.14,283.35 1049.85,282.94 1052.56,282.94 1055.27,283.35 1057.99,282.94 1060.70,282.94 1063.41,283.75 1066.12,282.13 1068.83,282.13 1071.54,282.54 1074.25,282.13 1076.97,282.54 1079.68,282.94 1082.39,281.73 1085.10,282.54 1087.81,281.73 1090.52,282.54 1093.23,282.13 1095.95,282.13 1098.66,281.73 1101.37,281.73 1104.08,281.32 1106.79,281.73 1109.50,282.13 1112.21,281.32 1114.93,281.32 1117.64,282.54 1120.35,282.13 1123.06,281.32 1125.77,281.32 1128.48,281.32 1131.19,282.54 1133.91,282.13 1136.62,281.32 1139.33,282.13 1142.04,281.73 1144.75,282.13 1147.46,280.11 1150.17,280.11 1152.89,280.51 1155.60,279.71 1158.31,280.11 1161.02,280.51 1163.73,279.71 1166.44,280.11 1169.15,280.11 1171.87,279.30 1174.58,278.90 1177.29,278.90 1180.00,280.51"/>
<circle cx="90.00" cy="540.55" r="3.2" fill="#1d4ed8"/>
<circle cx="92.71" cy="538.53" r="3.2" fill="#1d4ed8"/>
<circle cx="95.42" cy="536.91" r="3.2" fill="#1d4ed8"/>
<circle cx="98.13" cy="534.49" r="3.2" fill="#1d4ed8"/>
<circle cx="100.85" cy="534.49" r="3.2" fill="#1d4ed8"/>
<circle cx="103.56" cy="533.27" r="3.2" fill="#1d4ed8"/>
<circle cx="106.27" cy="532.46" r="3.2" fill="#1d4ed8"/>
<circle cx="108.98" cy="532.87" r="3.2" fill="#1d4ed8"/>
<circle cx="111.69" cy="532.06" r="3.2" fill="#1d4ed8"/>
<circle cx="114.40" cy="532.46" r="3.2" fill="#1d4ed8"/>
<circle cx="117.11" cy="532.06" r="3.2" fill="#1d4ed8"/>
<circle cx="119.83" cy="568.46" r="3.2" fill="#1d4ed8"/>
<circle cx="122.54" cy="568.46" r="3.2" fill="#1d4ed8"/>
<circle cx="125.25" cy="566.43" r="3.2" fill="#1d4ed8"/>
<circle cx="127.96" cy="545.00" r="3.2" fill="#1d4ed8"/>
<circle cx="130.67" cy="545.00" r="3.2" fill="#1d4ed8"/>
<circle cx="133.38" cy="544.19" r="3.2" fill="#1d4ed8"/>
<circle cx="136.09" cy="543.79" r="3.2" fill="#1d4ed8"/>
<circle cx="138.81" cy="543.79" r="3.2" fill="#1d4ed8"/>
<circle cx="141.52" cy="543.38" r="3.2" fill="#1d4ed8"/>
<circle cx="144.23" cy="541.76" r="3.2" fill="#1d4ed8"/>
<circle cx="146.94" cy="541.36" r="3.2" fill="#1d4ed8"/>
<circle cx="149.65" cy="540.96" r="3.2" fill="#1d4ed8"/>
<circle cx="152.36" cy="540.96" r="3.2" fill="#1d4ed8"/>
<circle cx="155.07" cy="539.34" r="3.2" fill="#1d4ed8"/>
<circle cx="157.79" cy="539.34" r="3.2" fill="#1d4ed8"/>
<circle cx="160.50" cy="556.73" r="3.2" fill="#1d4ed8"/>
<circle cx="163.21" cy="556.73" r="3.2" fill="#1d4ed8"/>
<circle cx="165.92" cy="555.51" r="3.2" fill="#1d4ed8"/>
<circle cx="168.63" cy="551.07" r="3.2" fill="#1d4ed8"/>
<circle cx="171.34" cy="538.93" r="3.2" fill="#1d4ed8"/>
<circle cx="174.05" cy="538.93" r="3.2" fill="#1d4ed8"/>
<circle cx="176.77" cy="538.93" r="3.2" fill="#1d4ed8"/>
<circle cx="179.48" cy="538.12" r="3.2" fill="#1d4ed8"/>
<circle cx="182.19" cy="536.91" r="3.2" fill="#1d4ed8"/>
<circle cx="184.90" cy="536.91" r="3.2" fill="#1d4ed8"/>
<circle cx="187.61" cy="536.51" r="3.2" fill="#1d4ed8"/>
<circle cx="190.32" cy="536.51" r="3.2" fill="#1d4ed8"/>
<circle cx="193.03" cy="556.73" r="3.2" fill="#1d4ed8"/>
<circle cx="195.75" cy="556.73" r="3.2" fill="#1d4ed8"/>
<circle cx="198.46" cy="556.73" r="3.2" fill="#1d4ed8"/>
<circle cx="201.17" cy="556.73" r="3.2" fill="#1d4ed8"/>
<circle cx="203.88" cy="535.29" r="3.2" fill="#1d4ed8"/>
<circle cx="206.59" cy="535.29" r="3.2" fill="#1d4ed8"/>
<circle cx="209.30" cy="535.29" r="3.2" fill="#1d4ed8"/>
<circle cx="212.01" cy="535.29" r="3.2" fill="#1d4ed8"/>
<circle cx="214.73" cy="534.49" r="3.2" fill="#1d4ed8"/>
<circle cx="217.44" cy="534.08" r="3.2" fill="#1d4ed8"/>
<circle cx="220.15" cy="533.68" r="3.2" fill="#1d4ed8"/>
<circle cx="222.86" cy="532.87" r="3.2" fill="#1d4ed8"/>
<circle cx="225.57" cy="532.06" r="3.2" fill="#1d4ed8"/>
<circle cx="228.28" cy="532.06" r="3.2" fill="#1d4ed8"/>
<circle cx="231.00" cy="531.25" r="3.2" fill="#1d4ed8"/>
<circle cx="233.71" cy="530.85" r="3.2" fill="#1d4ed8"/>
<circle cx="236.42" cy="530.44" r="3.2" fill="#1d4ed8"/>
<circle cx="239.13" cy="530.04" r="3.2" fill="#1d4ed8"/>
<circle cx="241.84" cy="530.04" r="3.2" fill="#1d4ed8"/>
<circle cx="244.55" cy="529.23" r="3.2" fill="#1d4ed8"/>
<circle cx="247.26" cy="529.23" r="3.2" fill="#1d4ed8"/>
<circle cx="249.98" cy="529.23" r="3.2" fill="#1d4ed8"/>
<circle cx="252.69" cy="528.42" r="3.2" fill="#1d4ed8"/>
<circle cx="255.40" cy="528.42" r="3.2" fill="#1d4ed8"/>
<circle cx="258.11" cy="527.61" r="3.2" fill="#1d4ed8"/>
<circle cx="260.82" cy="527.21" r="3.2" fill="#1d4ed8"/>
<circle cx="263.53" cy="526.80" r="3.2" fill="#1d4ed8"/>
<circle cx="266.24" cy="526.40" r="3.2" fill="#1d4ed8"/>
<circle cx="268.96" cy="525.18" r="3.2" fill="#1d4ed8"/>
<circle cx="271.67" cy="523.57" r="3.2" fill="#1d4ed8"/>
<circle cx="274.38" cy="523.57" r="3.2" fill="#1d4ed8"/>
<circle cx="277.09" cy="523.16" r="3.2" fill="#1d4ed8"/>
<circle cx="279.80" cy="522.76" r="3.2" fill="#1d4ed8"/>
<circle cx="282.51" cy="522.35" r="3.2" fill="#1d4ed8"/>
<circle cx="285.22" cy="521.54" r="3.2" fill="#1d4ed8"/>
<circle cx="287.94" cy="519.52" r="3.2" fill="#1d4ed8"/>
<circle cx="290.65" cy="517.50" r="3.2" fill="#1d4ed8"/>
<circle cx="293.36" cy="517.50" r="3.2" fill="#1d4ed8"/>
<circle cx="296.07" cy="517.50" r="3.2" fill="#1d4ed8"/>
<circle cx="298.78" cy="517.50" r="3.2" fill="#1d4ed8"/>
<circle cx="301.49" cy="517.50" r="3.2" fill="#1d4ed8"/>
<circle cx="304.20" cy="517.50" r="3.2" fill="#1d4ed8"/>
<circle cx="306.92" cy="517.10" r="3.2" fill="#1d4ed8"/>
<circle cx="309.63" cy="516.69" r="3.2" fill="#1d4ed8"/>
<circle cx="312.34" cy="515.48" r="3.2" fill="#1d4ed8"/>
<circle cx="315.05" cy="515.07" r="3.2" fill="#1d4ed8"/>
<circle cx="317.76" cy="514.67" r="3.2" fill="#1d4ed8"/>
<circle cx="320.47" cy="513.86" r="3.2" fill="#1d4ed8"/>
<circle cx="323.18" cy="514.26" r="3.2" fill="#1d4ed8"/>
<circle cx="325.90" cy="512.24" r="3.2" fill="#1d4ed8"/>
<circle cx="328.61" cy="511.84" r="3.2" fill="#1d4ed8"/>
<circle cx="331.32" cy="511.84" r="3.2" fill="#1d4ed8"/>
<circle cx="334.03" cy="511.03" r="3.2" fill="#1d4ed8"/>
<circle cx="336.74" cy="509.82" r="3.2" fill="#1d4ed8"/>
<circle cx="339.45" cy="507.79" r="3.2" fill="#1d4ed8"/>
<circle cx="342.16" cy="506.99" r="3.2" fill="#1d4ed8"/>
<circle cx="344.88" cy="506.58" r="3.2" fill="#1d4ed8"/>
<circle cx="347.59" cy="509.41" r="3.2" fill="#1d4ed8"/>
<circle cx="350.30" cy="509.01" r="3.2" fill="#1d4ed8"/>
<circle cx="353.01" cy="504.96" r="3.2" fill="#1d4ed8"/>
<circle cx="355.72" cy="504.56" r="3.2" fill="#1d4ed8"/>
<circle cx="358.43" cy="504.15" r="3.2" fill="#1d4ed8"/>
<circle cx="361.14" cy="504.56" r="3.2" fill="#1d4ed8"/>
<circle cx="363.86" cy="503.75" r="3.2" fill="#1d4ed8"/>
<circle cx="366.57" cy="503.75" r="3.2" fill="#1d4ed8"/>
<circle cx="369.28" cy="503.35" r="3.2" fill="#1d4ed8"/>
<circle cx="371.99" cy="499.30" r="3.2" fill="#1d4ed8"/>
<circle cx="374.70" cy="496.47" r="3.2" fill="#1d4ed8"/>
<circle cx="377.41" cy="490.00" r="3.2" fill="#1d4ed8"/>
<circle cx="380.12" cy="484.34" r="3.2" fill="#1d4ed8"/>
<circle cx="382.84" cy="481.10" r="3.2" fill="#1d4ed8"/>
<circle cx="385.55" cy="480.29" r="3.2" fill="#1d4ed8"/>
<circle cx="388.26" cy="480.70" r="3.2" fill="#1d4ed8"/>
<circle cx="390.97" cy="460.88" r="3.2" fill="#1d4ed8"/>
<circle cx="393.68" cy="459.26" r="3.2" fill="#1d4ed8"/>
<circle cx="396.39" cy="458.05" r="3.2" fill="#1d4ed8"/>
<circle cx="399.10" cy="456.03" r="3.2" fill="#1d4ed8"/>
<circle cx="401.82" cy="456.03" r="3.2" fill="#1d4ed8"/>
<circle cx="404.53" cy="454.41" r="3.2" fill="#1d4ed8"/>
<circle cx="407.24" cy="450.77" r="3.2" fill="#1d4ed8"/>
<circle cx="409.95" cy="444.30" r="3.2" fill="#1d4ed8"/>
<circle cx="412.66" cy="443.90" r="3.2" fill="#1d4ed8"/>
<circle cx="415.37" cy="600.00" r="3.2" fill="#1d4ed8"/>
<circle cx="418.08" cy="441.88" r="3.2" fill="#1d4ed8"/>
<circle cx="420.80" cy="440.66" r="3.2" fill="#1d4ed8"/>
<circle cx="423.51" cy="439.45" r="3.2" fill="#1d4ed8"/>
<circle cx="426.22" cy="439.04" r="3.2" fill="#1d4ed8"/>
<circle cx="428.93" cy="438.64" r="3.2" fill="#1d4ed8"/>
<circle cx="431.64" cy="437.83" r="3.2" fill="#1d4ed8"/>
<circle cx="434.35" cy="436.62" r="3.2" fill="#1d4ed8"/>
<circle cx="437.06" cy="436.62" r="3.2" fill="#1d4ed8"/>
<circle cx="439.78" cy="434.60" r="3.2" fill="#1d4ed8"/>
<circle cx="442.49" cy="432.17" r="3.2" fill="#1d4ed8"/>
<circle cx="445.20" cy="429.34" r="3.2" fill="#1d4ed8"/>
<circle cx="447.91" cy="428.93" r="3.2" fill="#1d4ed8"/>
<circle cx="450.62" cy="428.53" r="3.2" fill="#1d4ed8"/>
<circle cx="453.33" cy="427.72" r="3.2" fill="#1d4ed8"/>
<circle cx="456.04" cy="426.91" r="3.2" fill="#1d4ed8"/>
<circle cx="458.76" cy="426.10" r="3.2" fill="#1d4ed8"/>
<circle cx="461.47" cy="426.10" r="3.2" fill="#1d4ed8"/>
<circle cx="464.18" cy="426.10" r="3.2" fill="#1d4ed8"/>
<circle cx="466.89" cy="419.63" r="3.2" fill="#1d4ed8"/>
<circle cx="469.60" cy="419.23" r="3.2" fill="#1d4ed8"/>
<circle cx="472.31" cy="418.42" r="3.2" fill="#1d4ed8"/>
<circle cx="475.02" cy="418.01" r="3.2" fill="#1d4ed8"/>
<circle cx="477.74" cy="417.61" r="3.2" fill="#1d4ed8"/>
<circle cx="480.45" cy="417.61" r="3.2" fill="#1d4ed8"/>
<circle cx="483.16" cy="417.61" r="3.2" fill="#1d4ed8"/>
<circle cx="485.87" cy="417.21" r="3.2" fill="#1d4ed8"/>
<circle cx="488.58" cy="417.21" r="3.2" fill="#1d4ed8"/>
<circle cx="491.29" cy="413.57" r="3.2" fill="#1d4ed8"/>
<circle cx="494.00" cy="411.95" r="3.2" fill="#1d4ed8"/>
<circle cx="496.72" cy="412.76" r="3.2" fill="#1d4ed8"/>
<circle cx="499.43" cy="410.74" r="3.2" fill="#1d4ed8"/>
<circle cx="502.14" cy="410.74" r="3.2" fill="#1d4ed8"/>
<circle cx="504.85" cy="410.33" r="3.2" fill="#1d4ed8"/>
<circle cx="507.56" cy="410.33" r="3.2" fill="#1d4ed8"/>
<circle cx="510.27" cy="410.33" r="3.2" fill="#1d4ed8"/>
<circle cx="512.99" cy="409.93" r="3.2" fill="#1d4ed8"/>
<circle cx="515.70" cy="409.93" r="3.2" fill="#1d4ed8"/>
<circle cx="518.41" cy="409.93" r="3.2" fill="#1d4ed8"/>
<circle cx="521.12" cy="409.52" r="3.2" fill="#1d4ed8"/>
<circle cx="523.83" cy="409.52" r="3.2" fill="#1d4ed8"/>
<circle cx="526.54" cy="409.12" r="3.2" fill="#1d4ed8"/>
<circle cx="529.25" cy="409.52" r="3.2" fill="#1d4ed8"/>
<circle cx="531.97" cy="409.12" r="3.2" fill="#1d4ed8"/>
<circle cx="534.68" cy="407.50" r="3.2" fill="#1d4ed8"/>
<circle cx="537.39" cy="407.10" r="3.2" fill="#1d4ed8"/>
<circle cx="540.10" cy="403.05" r="3.2" fill="#1d4ed8"/>
<circle cx="542.81" cy="399.82" r="3.2" fill="#1d4ed8"/>
<circle cx="545.52" cy="400.22" r="3.2" fill="#1d4ed8"/>
<circle cx="548.23" cy="400.62" r="3.2" fill="#1d4ed8"/>
<circle cx="550.95" cy="400.62" r="3.2" fill="#1d4ed8"/>
<circle cx="553.66" cy="399.41" r="3.2" fill="#1d4ed8"/>
<circle cx="556.37" cy="392.94" r="3.2" fill="#1d4ed8"/>
<circle cx="559.08" cy="391.32" r="3.2" fill="#1d4ed8"/>
<circle cx="561.79" cy="389.30" r="3.2" fill="#1d4ed8"/>
<circle cx="564.50" cy="389.30" r="3.2" fill="#1d4ed8"/>
<circle cx="567.21" cy="388.49" r="3.2" fill="#1d4ed8"/>
<circle cx="569.93" cy="375.15" r="3.2" fill="#1d4ed8"/>
<circle cx="572.64" cy="374.74" r="3.2" fill="#1d4ed8"/>
<circle cx="575.35" cy="374.74" r="3.2" fill="#1d4ed8"/>
<circle cx="578.06" cy="374.74" r="3.2" fill="#1d4ed8"/>
<circle cx="580.77" cy="374.74" r="3.2" fill="#1d4ed8"/>
<circle cx="583.48" cy="374.34" r="3.2" fill="#1d4ed8"/>
<circle cx="586.19" cy="374.34" r="3.2" fill="#1d4ed8"/>
<circle cx="588.91" cy="374.34" r="3.2" fill="#1d4ed8"/>
<circle cx="591.62" cy="374.34" r="3.2" fill="#1d4ed8"/>
<circle cx="594.33" cy="374.34" r="3.2" fill="#1d4ed8"/>
<circle cx="597.04" cy="373.93" r="3.2" fill="#1d4ed8"/>
<circle cx="599.75" cy="373.12" r="3.2" fill="#1d4ed8"/>
<circle cx="602.46" cy="372.72" r="3.2" fill="#1d4ed8"/>
<circle cx="605.17" cy="373.53" r="3.2" fill="#1d4ed8"/>
<circle cx="607.89" cy="435.81" r="3.2" fill="#1d4ed8"/>
<circle cx="610.60" cy="372.32" r="3.2" fill="#1d4ed8"/>
<circle cx="613.31" cy="372.72" r="3.2" fill="#1d4ed8"/>
<circle cx="616.02" cy="371.91" r="3.2" fill="#1d4ed8"/>
<circle cx="618.73" cy="371.91" r="3.2" fill="#1d4ed8"/>
<circle cx="621.44" cy="372.32" r="3.2" fill="#1d4ed8"/>
<circle cx="624.15" cy="371.10" r="3.2" fill="#1d4ed8"/>
<circle cx="626.87" cy="369.89" r="3.2" fill="#1d4ed8"/>
<circle cx="629.58" cy="369.89" r="3.2" fill="#1d4ed8"/>
<circle cx="632.29" cy="369.89" r="3.2" fill="#1d4ed8"/>
<circle cx="635.00" cy="369.49" r="3.2" fill="#1d4ed8"/>
<circle cx="637.71" cy="369.89" r="3.2" fill="#1d4ed8"/>
<circle cx="640.42" cy="369.08" r="3.2" fill="#1d4ed8"/>
<circle cx="643.13" cy="368.68" r="3.2" fill="#1d4ed8"/>
<circle cx="645.85" cy="368.27" r="3.2" fill="#1d4ed8"/>
<circle cx="648.56" cy="367.87" r="3.2" fill="#1d4ed8"/>
<circle cx="651.27" cy="367.06" r="3.2" fill="#1d4ed8"/>
<circle cx="653.98" cy="367.46" r="3.2" fill="#1d4ed8"/>
<circle cx="656.69" cy="367.06" r="3.2" fill="#1d4ed8"/>
<circle cx="659.40" cy="366.25" r="3.2" fill="#1d4ed8"/>
<circle cx="662.11" cy="368.27" r="3.2" fill="#1d4ed8"/>
<circle cx="664.83" cy="368.68" r="3.2" fill="#1d4ed8"/>
<circle cx="667.54" cy="368.68" r="3.2" fill="#1d4ed8"/>
<circle cx="670.25" cy="368.27" r="3.2" fill="#1d4ed8"/>
<circle cx="672.96" cy="369.08" r="3.2" fill="#1d4ed8"/>
<circle cx="675.67" cy="367.87" r="3.2" fill="#1d4ed8"/>
<circle cx="678.38" cy="367.46" r="3.2" fill="#1d4ed8"/>
<circle cx="681.09" cy="367.06" r="3.2" fill="#1d4ed8"/>
<circle cx="683.81" cy="360.18" r="3.2" fill="#1d4ed8"/>
<circle cx="686.52" cy="359.78" r="3.2" fill="#1d4ed8"/>
<circle cx="689.23" cy="359.38" r="3.2" fill="#1d4ed8"/>
<circle cx="691.94" cy="356.95" r="3.2" fill="#1d4ed8"/>
<circle cx="694.65" cy="357.35" r="3.2" fill="#1d4ed8"/>
<circle cx="697.36" cy="357.76" r="3.2" fill="#1d4ed8"/>
<circle cx="700.07" cy="355.33" r="3.2" fill="#1d4ed8"/>
<circle cx="702.79" cy="355.74" r="3.2" fill="#1d4ed8"/>
<circle cx="705.50" cy="357.35" r="3.2" fill="#1d4ed8"/>
<circle cx="708.21" cy="355.33" r="3.2" fill="#1d4ed8"/>
<circle cx="710.92" cy="356.14" r="3.2" fill="#1d4ed8"/>
<circle cx="713.63" cy="355.74" r="3.2" fill="#1d4ed8"/>
<circle cx="716.34" cy="356.14" r="3.2" fill="#1d4ed8"/>
<circle cx="719.05" cy="354.12" r="3.2" fill="#1d4ed8"/>
<circle cx="721.77" cy="354.93" r="3.2" fill="#1d4ed8"/>
<circle cx="724.48" cy="356.14" r="3.2" fill="#1d4ed8"/>
<circle cx="727.19" cy="354.52" r="3.2" fill="#1d4ed8"/>
<circle cx="729.90" cy="353.71" r="3.2" fill="#1d4ed8"/>
<circle cx="732.61" cy="354.12" r="3.2" fill="#1d4ed8"/>
<circle cx="735.32" cy="354.93" r="3.2" fill="#1d4ed8"/>
<circle cx="738.03" cy="352.90" r="3.2" fill="#1d4ed8"/>
<circle cx="740.75" cy="353.71" r="3.2" fill="#1d4ed8"/>
<circle cx="743.46" cy="353.31" r="3.2" fill="#1d4ed8"/>
<circle cx="746.17" cy="353.31" r="3.2" fill="#1d4ed8"/>
<circle cx="748.88" cy="354.52" r="3.2" fill="#1d4ed8"/>
<circle cx="751.59" cy="352.90" r="3.2" fill="#1d4ed8"/>
<circle cx="754.30" cy="352.50" r="3.2" fill="#1d4ed8"/>
<circle cx="757.01" cy="352.50" r="3.2" fill="#1d4ed8"/>
<circle cx="759.73" cy="353.31" r="3.2" fill="#1d4ed8"/>
<circle cx="762.44" cy="352.50" r="3.2" fill="#1d4ed8"/>
<circle cx="765.15" cy="353.71" r="3.2" fill="#1d4ed8"/>
<circle cx="767.86" cy="354.12" r="3.2" fill="#1d4ed8"/>
<circle cx="770.57" cy="352.50" r="3.2" fill="#1d4ed8"/>
<circle cx="773.28" cy="352.90" r="3.2" fill="#1d4ed8"/>
<circle cx="776.00" cy="352.50" r="3.2" fill="#1d4ed8"/>
<circle cx="778.71" cy="352.10" r="3.2" fill="#1d4ed8"/>
<circle cx="781.42" cy="351.69" r="3.2" fill="#1d4ed8"/>
<circle cx="784.13" cy="352.10" r="3.2" fill="#1d4ed8"/>
<circle cx="786.84" cy="354.12" r="3.2" fill="#1d4ed8"/>
<circle cx="789.55" cy="352.50" r="3.2" fill="#1d4ed8"/>
<circle cx="792.26" cy="352.10" r="3.2" fill="#1d4ed8"/>
<circle cx="794.98" cy="352.10" r="3.2" fill="#1d4ed8"/>
<circle cx="797.69" cy="349.67" r="3.2" fill="#1d4ed8"/>
<circle cx="800.40" cy="349.67" r="3.2" fill="#1d4ed8"/>
<circle cx="803.11" cy="350.88" r="3.2" fill="#1d4ed8"/>
<circle cx="805.82" cy="351.29" r="3.2" fill="#1d4ed8"/>
<circle cx="808.53" cy="350.48" r="3.2" fill="#1d4ed8"/>
<circle cx="811.24" cy="352.10" r="3.2" fill="#1d4ed8"/>
<circle cx="813.96" cy="350.48" r="3.2" fill="#1d4ed8"/>
<circle cx="816.67" cy="350.48" r="3.2" fill="#1d4ed8"/>
<circle cx="819.38" cy="350.48" r="3.2" fill="#1d4ed8"/>
<circle cx="822.09" cy="350.07" r="3.2" fill="#1d4ed8"/>
<circle cx="824.80" cy="348.46" r="3.2" fill="#1d4ed8"/>
<circle cx="827.51" cy="351.29" r="3.2" fill="#1d4ed8"/>
<circle cx="830.22" cy="349.67" r="3.2" fill="#1d4ed8"/>
<circle cx="832.94" cy="351.29" r="3.2" fill="#1d4ed8"/>
<circle cx="835.65" cy="349.67" r="3.2" fill="#1d4ed8"/>
<circle cx="838.36" cy="348.86" r="3.2" fill="#1d4ed8"/>
<circle cx="841.07" cy="348.46" r="3.2" fill="#1d4ed8"/>
<circle cx="843.78" cy="348.46" r="3.2" fill="#1d4ed8"/>
<circle cx="846.49" cy="347.24" r="3.2" fill="#1d4ed8"/>
<circle cx="849.20" cy="348.86" r="3.2" fill="#1d4ed8"/>
<circle cx="851.92" cy="346.84" r="3.2" fill="#1d4ed8"/>
<circle cx="854.63" cy="348.46" r="3.2" fill="#1d4ed8"/>
<circle cx="857.34" cy="348.86" r="3.2" fill="#1d4ed8"/>
<circle cx="860.05" cy="346.84" r="3.2" fill="#1d4ed8"/>
<circle cx="862.76" cy="349.26" r="3.2" fill="#1d4ed8"/>
<circle cx="865.47" cy="348.05" r="3.2" fill="#1d4ed8"/>
<circle cx="868.18" cy="349.26" r="3.2" fill="#1d4ed8"/>
<circle cx="870.90" cy="349.26" r="3.2" fill="#1d4ed8"/>
<circle cx="873.61" cy="350.48" r="3.2" fill="#1d4ed8"/>
<circle cx="876.32" cy="352.90" r="3.2" fill="#1d4ed8"/>
<circle cx="879.03" cy="349.67" r="3.2" fill="#1d4ed8"/>
<circle cx="881.74" cy="348.46" r="3.2" fill="#1d4ed8"/>
<circle cx="884.45" cy="345.62" r="3.2" fill="#1d4ed8"/>
<circle cx="887.16" cy="344.82" r="3.2" fill="#1d4ed8"/>
<circle cx="889.88" cy="344.41" r="3.2" fill="#1d4ed8"/>
<circle cx="892.59" cy="342.39" r="3.2" fill="#1d4ed8"/>
<circle cx="895.30" cy="341.18" r="3.2" fill="#1d4ed8"/>
<circle cx="898.01" cy="341.58" r="3.2" fill="#1d4ed8"/>
<circle cx="900.72" cy="339.15" r="3.2" fill="#1d4ed8"/>
<circle cx="903.43" cy="338.35" r="3.2" fill="#1d4ed8"/>
<circle cx="906.14" cy="337.54" r="3.2" fill="#1d4ed8"/>
<circle cx="908.86" cy="336.73" r="3.2" fill="#1d4ed8"/>
<circle cx="911.57" cy="335.92" r="3.2" fill="#1d4ed8"/>
<circle cx="914.28" cy="337.54" r="3.2" fill="#1d4ed8"/>
<circle cx="916.99" cy="338.35" r="3.2" fill="#1d4ed8"/>
<circle cx="919.70" cy="337.54" r="3.2" fill="#1d4ed8"/>
<circle cx="922.41" cy="337.54" r="3.2" fill="#1d4ed8"/>
<circle cx="925.12" cy="337.54" r="3.2" fill="#1d4ed8"/>
<circle cx="927.84" cy="333.09" r="3.2" fill="#1d4ed8"/>
<circle cx="930.55" cy="333.90" r="3.2" fill="#1d4ed8"/>
<circle cx="933.26" cy="335.92" r="3.2" fill="#1d4ed8"/>
<circle cx="935.97" cy="336.73" r="3.2" fill="#1d4ed8"/>
<circle cx="938.68" cy="335.51" r="3.2" fill="#1d4ed8"/>
<circle cx="941.39" cy="332.28" r="3.2" fill="#1d4ed8"/>
<circle cx="944.10" cy="331.47" r="3.2" fill="#1d4ed8"/>
<circle cx="946.82" cy="331.07" r="3.2" fill="#1d4ed8"/>
<circle cx="949.53" cy="331.47" r="3.2" fill="#1d4ed8"/>
<circle cx="952.24" cy="331.07" r="3.2" fill="#1d4ed8"/>
<circle cx="954.95" cy="331.07" r="3.2" fill="#1d4ed8"/>
<circle cx="957.66" cy="331.07" r="3.2" fill="#1d4ed8"/>
<circle cx="960.37" cy="331.07" r="3.2" fill="#1d4ed8"/>
<circle cx="963.08" cy="331.07" r="3.2" fill="#1d4ed8"/>
<circle cx="965.80" cy="331.07" r="3.2" fill="#1d4ed8"/>
<circle cx="968.51" cy="331.07" r="3.2" fill="#1d4ed8"/>
<circle cx="971.22" cy="331.07" r="3.2" fill="#1d4ed8"/>
<circle cx="973.93" cy="331.07" r="3.2" fill="#1d4ed8"/>
<circle cx="976.64" cy="331.07" r="3.2" fill="#1d4ed8"/>
<circle cx="979.35" cy="331.47" r="3.2" fill="#1d4ed8"/>
<circle cx="982.06" cy="331.88" r="3.2" fill="#1d4ed8"/>
<circle cx="984.78" cy="331.07" r="3.2" fill="#1d4ed8"/>
<circle cx="987.49" cy="331.47" r="3.2" fill="#1d4ed8"/>
<circle cx="990.20" cy="331.07" r="3.2" fill="#1d4ed8"/>
<circle cx="992.91" cy="331.47" r="3.2" fill="#1d4ed8"/>
<circle cx="995.62" cy="331.07" r="3.2" fill="#1d4ed8"/>
<circle cx="998.33" cy="324.19" r="3.2" fill="#1d4ed8"/>
<circle cx="1001.04" cy="324.19" r="3.2" fill="#1d4ed8"/>
<circle cx="1003.76" cy="318.93" r="3.2" fill="#1d4ed8"/>
<circle cx="1006.47" cy="316.51" r="3.2" fill="#1d4ed8"/>
<circle cx="1009.18" cy="310.44" r="3.2" fill="#1d4ed8"/>
<circle cx="1011.89" cy="308.01" r="3.2" fill="#1d4ed8"/>
<circle cx="1014.60" cy="600.00" r="3.2" fill="#1d4ed8"/>
<circle cx="1017.31" cy="301.54" r="3.2" fill="#1d4ed8"/>
<circle cx="1020.02" cy="290.22" r="3.2" fill="#1d4ed8"/>
<circle cx="1022.74" cy="287.79" r="3.2" fill="#1d4ed8"/>
<circle cx="1025.45" cy="286.18" r="3.2" fill="#1d4ed8"/>
<circle cx="1028.16" cy="285.77" r="3.2" fill="#1d4ed8"/>
<circle cx="1030.87" cy="285.77" r="3.2" fill="#1d4ed8"/>
<circle cx="1033.58" cy="285.77" r="3.2" fill="#1d4ed8"/>
<circle cx="1036.29" cy="286.18" r="3.2" fill="#1d4ed8"/>
<circle cx="1039.00" cy="285.77" r="3.2" fill="#1d4ed8"/>
<circle cx="1041.72" cy="285.77" r="3.2" fill="#1d4ed8"/>
<circle cx="1044.43" cy="285.77" r="3.2" fill="#1d4ed8"/>
<circle cx="1047.14" cy="283.35" r="3.2" fill="#1d4ed8"/>
<circle cx="1049.85" cy="282.94" r="3.2" fill="#1d4ed8"/>
<circle cx="1052.56" cy="282.94" r="3.2" fill="#1d4ed8"/>
<circle cx="1055.27" cy="283.35" r="3.2" fill="#1d4ed8"/>
<circle cx="1057.99" cy="282.94" r="3.2" fill="#1d4ed8"/>
<circle cx="1060.70" cy="282.94" r="3.2" fill="#1d4ed8"/>
<circle cx="1063.41" cy="283.75" r="3.2" fill="#1d4ed8"/>
<circle cx="1066.12" cy="282.13" r="3.2" fill="#1d4ed8"/>
<circle cx="1068.83" cy="282.13" r="3.2" fill="#1d4ed8"/>
<circle cx="1071.54" cy="282.54" r="3.2" fill="#1d4ed8"/>
<circle cx="1074.25" cy="282.13" r="3.2" fill="#1d4ed8"/>
<circle cx="1076.97" cy="282.54" r="3.2" fill="#1d4ed8"/>
<circle cx="1079.68" cy="282.94" r="3.2" fill="#1d4ed8"/>
<circle cx="1082.39" cy="281.73" r="3.2" fill="#1d4ed8"/>
<circle cx="1085.10" cy="282.54" r="3.2" fill="#1d4ed8"/>
<circle cx="1087.81" cy="281.73" r="3.2" fill="#1d4ed8"/>
<circle cx="1090.52" cy="282.54" r="3.2" fill="#1d4ed8"/>
<circle cx="1093.23" cy="282.13" r="3.2" fill="#1d4ed8"/>
<circle cx="1095.95" cy="282.13" r="3.2" fill="#1d4ed8"/>
<circle cx="1098.66" cy="281.73" r="3.2" fill="#1d4ed8"/>
<circle cx="1101.37" cy="281.73" r="3.2" fill="#1d4ed8"/>
<circle cx="1104.08" cy="281.32" r="3.2" fill="#1d4ed8"/>
<circle cx="1106.79" cy="281.73" r="3.2" fill="#1d4ed8"/>
<circle cx="1109.50" cy="282.13" r="3.2" fill="#1d4ed8"/>
<circle cx="1112.21" cy="281.32" r="3.2" fill="#1d4ed8"/>
<circle cx="1114.93" cy="281.32" r="3.2" fill="#1d4ed8"/>
<circle cx="1117.64" cy="282.54" r="3.2" fill="#1d4ed8"/>
<circle cx="1120.35" cy="282.13" r="3.2" fill="#1d4ed8"/>
<circle cx="1123.06" cy="281.32" r="3.2" fill="#1d4ed8"/>
<circle cx="1125.77" cy="281.32" r="3.2" fill="#1d4ed8"/>
<circle cx="1128.48" cy="281.32" r="3.2" fill="#1d4ed8"/>
<circle cx="1131.19" cy="282.54" r="3.2" fill="#1d4ed8"/>
<circle cx="1133.91" cy="282.13" r="3.2" fill="#1d4ed8"/>
<circle cx="1136.62" cy="281.32" r="3.2" fill="#1d4ed8"/>
<circle cx="1139.33" cy="282.13" r="3.2" fill="#1d4ed8"/>
<circle cx="1142.04" cy="281.73" r="3.2" fill="#1d4ed8"/>
<circle cx="1144.75" cy="282.13" r="3.2" fill="#1d4ed8"/>
<circle cx="1147.46" cy="280.11" r="3.2" fill="#1d4ed8"/>
<circle cx="1150.17" cy="280.11" r="3.2" fill="#1d4ed8"/>
<circle cx="1152.89" cy="280.51" r="3.2" fill="#1d4ed8"/>
<circle cx="1155.60" cy="279.71" r="3.2" fill="#1d4ed8"/>
<circle cx="1158.31" cy="280.11" r="3.2" fill="#1d4ed8"/>
<circle cx="1161.02" cy="280.51" r="3.2" fill="#1d4ed8"/>
<circle cx="1163.73" cy="279.71" r="3.2" fill="#1d4ed8"/>
<circle cx="1166.44" cy="280.11" r="3.2" fill="#1d4ed8"/>
<circle cx="1169.15" cy="280.11" r="3.2" fill="#1d4ed8"/>
<circle cx="1171.87" cy="279.30" r="3.2" fill="#1d4ed8"/>
<circle cx="1174.58" cy="278.90" r="3.2" fill="#1d4ed8"/>
<circle cx="1177.29" cy="278.90" r="3.2" fill="#1d4ed8"/>
<circle cx="1180.00" cy="280.51" r="3.2" fill="#1d4ed8"/>
<text x="635" y="695" text-anchor="middle" font-size="14" fill="#111" font-family="sans-serif">Date</text>
<text x="24" y="325" text-anchor="middle" font-size="14" fill="#111" transform="rotate(-90 24,325)" font-family="sans-serif">Passed files</text>
</svg>
