<?xml version="1.0" encoding="UTF-8"?>
<svg xmlns="http://www.w3.org/2000/svg" width="1280" height="720" viewBox="0 0 1280 720">
<rect width="100%" height="100%" fill="#ffffff"/>
<text x="640" y="30" text-anchor="middle" font-size="22" font-family="sans-serif">Roast passed files history</text>
<line x1="90" y1="600" x2="1180" y2="600" stroke="#333" stroke-width="1.5"/>
<line x1="90" y1="50" x2="90" y2="600" stroke="#333" stroke-width="1.5"/>
<line x1="90" y1="600.00" x2="1180" y2="600.00" stroke="#e5e7eb" stroke-width="1"/>
<text x="78" y="605.00" text-anchor="end" font-size="12" fill="#111" font-family="sans-serif">0</text>
<line x1="90" y1="397.79" x2="1180" y2="397.79" stroke="#e5e7eb" stroke-width="1"/>
<text x="78" y="402.79" text-anchor="end" font-size="12" fill="#111" font-family="sans-serif">500</text>
<line x1="90" y1="195.59" x2="1180" y2="195.59" stroke="#e5e7eb" stroke-width="1"/>
<text x="78" y="200.59" text-anchor="end" font-size="12" fill="#111" font-family="sans-serif">1000</text>
<line x1="90.00" y1="600" x2="90.00" y2="606" stroke="#333" stroke-width="1"/>
<text x="90.00" y="624" text-anchor="end" font-size="11" fill="#111" transform="rotate(-40 90.00,624)" font-family="sans-serif">2026-02-12</text>
<line x1="224.82" y1="600" x2="224.82" y2="606" stroke="#333" stroke-width="1"/>
<text x="224.82" y="624" text-anchor="end" font-size="11" fill="#111" transform="rotate(-40 224.82,624)" font-family="sans-serif">2026-02-18</text>
<line x1="359.64" y1="600" x2="359.64" y2="606" stroke="#333" stroke-width="1"/>
<text x="359.64" y="624" text-anchor="end" font-size="11" fill="#111" transform="rotate(-40 359.64,624)" font-family="sans-serif">2026-02-25</text>
<line x1="494.47" y1="600" x2="494.47" y2="606" stroke="#333" stroke-width="1"/>
<text x="494.47" y="624" text-anchor="end" font-size="11" fill="#111" transform="rotate(-40 494.47,624)" font-family="sans-serif">2026-02-28</text>
<line x1="629.29" y1="600" x2="629.29" y2="606" stroke="#333" stroke-width="1"/>
<text x="629.29" y="624" text-anchor="end" font-size="11" fill="#111" transform="rotate(-40 629.29,624)" font-family="sans-serif">2026-03-06</text>
<line x1="764.11" y1="600" x2="764.11" y2="606" stroke="#333" stroke-width="1"/>
<text x="764.11" y="624" text-anchor="end" font-size="11" fill="#111" transform="rotate(-40 764.11,624)" font-family="sans-serif">2026-03-08</text>
<line x1="898.93" y1="600" x2="898.93" y2="606" stroke="#333" stroke-width="1"/>
<text x="898.93" y="624" text-anchor="end" font-size="11" fill="#111" transform="rotate(-40 898.93,624)" font-family="sans-serif">2026-03-18</text>
<line x1="1033.75" y1="600" x2="1033.75" y2="606" stroke="#333" stroke-width="1"/>
<text x="1033.75" y="624" text-anchor="end" font-size="11" fill="#111" transform="rotate(-40 1033.75,624)" font-family="sans-serif">2026-03-20</text>
<line x1="1168.57" y1="600" x2="1168.57" y2="606" stroke="#333" stroke-width="1"/>
<text x="1168.57" y="624" text-anchor="end" font-size="11" fill="#111" transform="rotate(-40 1168.57,624)" font-family="sans-serif">2026-03-30</text>
<line x1="1180.00" y1="600" x2="1180.00" y2="606" stroke="#333" stroke-width="1"/>
<text x="1180.00" y="624" text-anchor="end" font-size="11" fill="#111" transform="rotate(-40 1180.00,624)" font-family="sans-serif">2026-03-30</text>
<line x1="90" y1="75.88" x2="1180" y2="75.88" stroke="#dc2626" stroke-width="1.5" stroke-dasharray="8,4"/>
<text x="1184" y="79.88" font-size="12" fill="#dc2626" font-family="sans-serif">Goal: 1296</text>
<polyline fill="none" stroke="#2563eb" stroke-width="3" points="90.00,540.55 92.29,538.53 94.57,536.91 96.86,534.49 99.14,534.49 101.43,533.27 103.71,532.46 106.00,532.87 108.28,532.06 110.57,532.46 112.85,532.06 115.14,568.46 117.42,568.46 119.71,566.43 121.99,545.00 124.28,545.00 126.56,544.19 128.85,543.79 131.13,543.79 133.42,543.38 135.70,541.76 137.99,541.36 140.27,540.96 142.56,540.96 144.84,539.34 147.13,539.34 149.41,556.73 151.70,556.73 153.98,555.51 156.27,551.07 158.55,538.93 160.84,538.93 163.12,538.93 165.41,538.12 167.69,536.91 169.98,536.91 172.26,536.51 174.55,536.51 176.83,556.73 179.12,556.73 181.40,556.73 183.69,556.73 185.97,535.29 188.26,535.29 190.55,535.29 192.83,535.29 195.12,534.49 197.40,534.08 199.69,533.68 201.97,532.87 204.26,532.06 206.54,532.06 208.83,531.25 211.11,530.85 213.40,530.44 215.68,530.04 217.97,530.04 220.25,529.23 222.54,529.23 224.82,529.23 227.11,528.42 229.39,528.42 231.68,527.61 233.96,527.21 236.25,526.80 238.53,526.40 240.82,525.18 243.10,523.57 245.39,523.57 247.67,523.16 249.96,522.76 252.24,522.35 254.53,521.54 256.81,519.52 259.10,517.50 261.38,517.50 263.67,517.50 265.95,517.50 268.24,517.50 270.52,517.50 272.81,517.10 275.09,516.69 277.38,515.48 279.66,515.07 281.95,514.67 284.23,513.86 286.52,514.26 288.81,512.24 291.09,511.84 293.38,511.84 295.66,511.03 297.95,509.82 300.23,507.79 302.52,506.99 304.80,506.58 307.09,509.41 309.37,509.01 311.66,504.96 313.94,504.56 316.23,504.15 318.51,504.56 320.80,503.75 323.08,503.75 325.37,503.35 327.65,499.30 329.94,496.47 332.22,490.00 334.51,484.34 336.79,481.10 339.08,480.29 341.36,480.70 343.65,460.88 345.93,459.26 348.22,458.05 350.50,456.03 352.79,456.03 355.07,454.41 357.36,450.77 359.64,444.30 361.93,443.90 364.21,600.00 366.50,441.88 368.78,440.66 371.07,439.45 373.35,439.04 375.64,438.64 377.92,437.83 380.21,436.62 382.49,436.62 384.78,434.60 387.06,432.17 389.35,429.34 391.64,428.93 393.92,428.53 396.21,427.72 398.49,426.91 400.78,426.10 403.06,426.10 405.35,426.10 407.63,419.63 409.92,419.23 412.20,418.42 414.49,418.01 416.77,417.61 419.06,417.61 421.34,417.61 423.63,417.21 425.91,417.21 428.20,413.57 430.48,411.95 432.77,412.76 435.05,410.74 437.34,410.74 439.62,410.33 441.91,410.33 444.19,410.33 446.48,409.93 448.76,409.93 451.05,409.93 453.33,409.52 455.62,409.52 457.90,409.12 460.19,409.52 462.47,409.12 464.76,407.50 467.04,407.10 469.33,403.05 471.61,399.82 473.90,400.22 476.18,400.62 478.47,400.62 480.75,399.41 483.04,392.94 485.32,391.32 487.61,389.30 489.90,389.30 492.18,388.49 494.47,375.15 496.75,374.74 499.04,374.74 501.32,374.74 503.61,374.74 505.89,374.34 508.18,374.34 510.46,374.34 512.75,374.34 515.03,374.34 517.32,373.93 519.60,373.12 521.89,372.72 524.17,373.53 526.46,435.81 528.74,372.32 531.03,372.72 533.31,371.91 535.60,371.91 537.88,372.32 540.17,371.10 542.45,369.89 544.74,369.89 547.02,369.89 549.31,369.49 551.59,369.89 553.88,369.08 556.16,368.68 558.45,368.27 560.73,367.87 563.02,367.06 565.30,367.46 567.59,367.06 569.87,366.25 572.16,368.27 574.44,368.68 576.73,368.68 579.01,368.27 581.30,369.08 583.58,367.87 585.87,367.46 588.16,367.06 590.44,360.18 592.73,359.78 595.01,359.38 597.30,356.95 599.58,357.35 601.87,357.76 604.15,355.33 606.44,355.74 608.72,357.35 611.01,355.33 613.29,356.14 615.58,355.74 617.86,356.14 620.15,354.12 622.43,354.93 624.72,356.14 627.00,354.52 629.29,353.71 631.57,354.12 633.86,354.93 636.14,352.90 638.43,353.71 640.71,353.31 643.00,353.31 645.28,354.52 647.57,352.90 649.85,352.50 652.14,352.50 654.42,353.31 656.71,352.50 658.99,353.71 661.28,354.12 663.56,352.50 665.85,352.90 668.13,352.50 670.42,352.10 672.70,351.69 674.99,352.10 677.27,354.12 679.56,352.50 681.84,352.10 684.13,352.10 686.42,349.67 688.70,349.67 690.99,350.88 693.27,351.29 695.56,350.48 697.84,352.10 700.13,350.48 702.41,350.48 704.70,350.48 706.98,350.07 709.27,348.46 711.55,351.29 713.84,349.67 716.12,351.29 718.41,349.67 720.69,348.86 722.98,348.46 725.26,348.46 727.55,347.24 729.83,348.86 732.12,346.84 734.40,348.46 736.69,348.86 738.97,346.84 741.26,349.26 743.54,348.05 745.83,349.26 748.11,349.26 750.40,350.48 752.68,352.90 754.97,349.67 757.25,348.46 759.54,345.62 761.82,344.82 764.11,344.41 766.39,342.39 768.68,341.18 770.96,341.58 773.25,339.15 775.53,338.35 777.82,337.54 780.10,336.73 782.39,335.92 784.68,337.54 786.96,338.35 789.25,337.54 791.53,337.54 793.82,337.54 796.10,333.09 798.39,333.90 800.67,335.92 802.96,336.73 805.24,335.51 807.53,332.28 809.81,331.47 812.10,331.07 814.38,331.47 816.67,331.07 818.95,331.07 821.24,331.07 823.52,331.07 825.81,331.07 828.09,331.07 830.38,331.07 832.66,331.07 834.95,331.07 837.23,331.07 839.52,331.47 841.80,331.88 844.09,331.07 846.37,331.47 848.66,331.07 850.94,331.47 853.23,331.07 855.51,324.19 857.80,324.19 860.08,318.93 862.37,316.51 864.65,310.44 866.94,308.01 869.22,600.00 871.51,301.54 873.79,290.22 876.08,287.79 878.36,286.18 880.65,285.77 882.94,285.77 885.22,285.77 887.51,286.18 889.79,285.77 892.08,285.77 894.36,285.77 896.65,283.35 898.93,282.94 901.22,282.94 903.50,283.35 905.79,282.94 908.07,282.94 910.36,283.75 912.64,282.13 914.93,282.13 917.21,282.54 919.50,282.13 921.78,282.54 924.07,282.94 926.35,281.73 928.64,282.54 930.92,281.73 933.21,282.54 935.49,282.13 937.78,282.13 940.06,281.73 942.35,281.73 944.63,281.32 946.92,281.73 949.20,282.13 951.49,281.32 953.77,281.32 956.06,282.54 958.34,282.13 960.63,281.32 962.91,281.32 965.20,281.32 967.48,282.54 969.77,282.13 972.05,281.32 974.34,282.13 976.62,281.73 978.91,282.13 981.19,280.11 983.48,280.11 985.77,280.51 988.05,279.71 990.34,280.11 992.62,280.51 994.91,279.71 997.19,280.11 999.48,280.11 1001.76,279.30 1004.05,278.90 1006.33,278.90 1008.62,280.51 1010.90,279.30 1013.19,278.09 1015.47,278.49 1017.76,278.49 1020.04,277.28 1022.33,277.68 1024.61,277.68 1026.90,278.09 1029.18,277.28 1031.47,600.00 1033.75,278.90 1036.04,279.30 1038.32,278.90 1040.61,278.49 1042.89,278.49 1045.18,278.49 1047.46,278.49 1049.75,278.49 1052.03,278.49 1054.32,278.49 1056.60,278.49 1058.89,278.49 1061.17,278.49 1063.46,278.49 1065.74,278.49 1068.03,600.00 1070.31,600.00 1072.60,254.63 1074.88,600.00 1077.17,245.74 1079.45,245.74 1081.74,246.14 1084.03,245.74 1086.31,245.74 1088.60,245.74 1090.88,245.74 1093.17,245.74 1095.45,240.07 1097.74,238.05 1100.02,238.05 1102.31,227.13 1104.59,227.13 1106.88,226.32 1109.16,227.54 1111.45,226.73 1113.73,226.32 1116.02,227.13 1118.30,227.13 1120.59,226.73 1122.87,226.32 1125.16,226.73 1127.44,226.73 1129.73,226.73 1132.01,225.11 1134.30,224.71 1136.58,225.11 1138.87,224.30 1141.15,226.32 1143.44,224.30 1145.72,225.51 1148.01,225.51 1150.29,225.51 1152.58,225.92 1154.86,223.09 1157.15,223.49 1159.43,223.09 1161.72,223.09 1164.00,223.90 1166.29,223.49 1168.57,223.49 1170.86,223.09 1173.14,223.09 1175.43,223.49 1177.71,223.09 1180.00,223.09"/>
<circle cx="90.00" cy="540.55" r="3.2" fill="#1d4ed8"/>
<circle cx="92.29" cy="538.53" r="3.2" fill="#1d4ed8"/>
<circle cx="94.57" cy="536.91" r="3.2" fill="#1d4ed8"/>
<circle cx="96.86" cy="534.49" r="3.2" fill="#1d4ed8"/>
<circle cx="99.14" cy="534.49" r="3.2" fill="#1d4ed8"/>
<circle cx="101.43" cy="533.27" r="3.2" fill="#1d4ed8"/>
<circle cx="103.71" cy="532.46" r="3.2" fill="#1d4ed8"/>
<circle cx="106.00" cy="532.87" r="3.2" fill="#1d4ed8"/>
<circle cx="108.28" cy="532.06" r="3.2" fill="#1d4ed8"/>
<circle cx="110.57" cy="532.46" r="3.2" fill="#1d4ed8"/>
<circle cx="112.85" cy="532.06" r="3.2" fill="#1d4ed8"/>
<circle cx="115.14" cy="568.46" r="3.2" fill="#1d4ed8"/>
<circle cx="117.42" cy="568.46" r="3.2" fill="#1d4ed8"/>
<circle cx="119.71" cy="566.43" r="3.2" fill="#1d4ed8"/>
<circle cx="121.99" cy="545.00" r="3.2" fill="#1d4ed8"/>
<circle cx="124.28" cy="545.00" r="3.2" fill="#1d4ed8"/>
<circle cx="126.56" cy="544.19" r="3.2" fill="#1d4ed8"/>
<circle cx="128.85" cy="543.79" r="3.2" fill="#1d4ed8"/>
<circle cx="131.13" cy="543.79" r="3.2" fill="#1d4ed8"/>
<circle cx="133.42" cy="543.38" r="3.2" fill="#1d4ed8"/>
<circle cx="135.70" cy="541.76" r="3.2" fill="#1d4ed8"/>
<circle cx="137.99" cy="541.36" r="3.2" fill="#1d4ed8"/>
<circle cx="140.27" cy="540.96" r="3.2" fill="#1d4ed8"/>
<circle cx="142.56" cy="540.96" r="3.2" fill="#1d4ed8"/>
<circle cx="144.84" cy="539.34" r="3.2" fill="#1d4ed8"/>
<circle cx="147.13" cy="539.34" r="3.2" fill="#1d4ed8"/>
<circle cx="149.41" cy="556.73" r="3.2" fill="#1d4ed8"/>
<circle cx="151.70" cy="556.73" r="3.2" fill="#1d4ed8"/>
<circle cx="153.98" cy="555.51" r="3.2" fill="#1d4ed8"/>
<circle cx="156.27" cy="551.07" r="3.2" fill="#1d4ed8"/>
<circle cx="158.55" cy="538.93" r="3.2" fill="#1d4ed8"/>
<circle cx="160.84" cy="538.93" r="3.2" fill="#1d4ed8"/>
<circle cx="163.12" cy="538.93" r="3.2" fill="#1d4ed8"/>
<circle cx="165.41" cy="538.12" r="3.2" fill="#1d4ed8"/>
<circle cx="167.69" cy="536.91" r="3.2" fill="#1d4ed8"/>
<circle cx="169.98" cy="536.91" r="3.2" fill="#1d4ed8"/>
<circle cx="172.26" cy="536.51" r="3.2" fill="#1d4ed8"/>
<circle cx="174.55" cy="536.51" r="3.2" fill="#1d4ed8"/>
<circle cx="176.83" cy="556.73" r="3.2" fill="#1d4ed8"/>
<circle cx="179.12" cy="556.73" r="3.2" fill="#1d4ed8"/>
<circle cx="181.40" cy="556.73" r="3.2" fill="#1d4ed8"/>
<circle cx="183.69" cy="556.73" r="3.2" fill="#1d4ed8"/>
<circle cx="185.97" cy="535.29" r="3.2" fill="#1d4ed8"/>
<circle cx="188.26" cy="535.29" r="3.2" fill="#1d4ed8"/>
<circle cx="190.55" cy="535.29" r="3.2" fill="#1d4ed8"/>
<circle cx="192.83" cy="535.29" r="3.2" fill="#1d4ed8"/>
<circle cx="195.12" cy="534.49" r="3.2" fill="#1d4ed8"/>
<circle cx="197.40" cy="534.08" r="3.2" fill="#1d4ed8"/>
<circle cx="199.69" cy="533.68" r="3.2" fill="#1d4ed8"/>
<circle cx="201.97" cy="532.87" r="3.2" fill="#1d4ed8"/>
<circle cx="204.26" cy="532.06" r="3.2" fill="#1d4ed8"/>
<circle cx="206.54" cy="532.06" r="3.2" fill="#1d4ed8"/>
<circle cx="208.83" cy="531.25" r="3.2" fill="#1d4ed8"/>
<circle cx="211.11" cy="530.85" r="3.2" fill="#1d4ed8"/>
<circle cx="213.40" cy="530.44" r="3.2" fill="#1d4ed8"/>
<circle cx="215.68" cy="530.04" r="3.2" fill="#1d4ed8"/>
<circle cx="217.97" cy="530.04" r="3.2" fill="#1d4ed8"/>
<circle cx="220.25" cy="529.23" r="3.2" fill="#1d4ed8"/>
<circle cx="222.54" cy="529.23" r="3.2" fill="#1d4ed8"/>
<circle cx="224.82" cy="529.23" r="3.2" fill="#1d4ed8"/>
<circle cx="227.11" cy="528.42" r="3.2" fill="#1d4ed8"/>
<circle cx="229.39" cy="528.42" r="3.2" fill="#1d4ed8"/>
<circle cx="231.68" cy="527.61" r="3.2" fill="#1d4ed8"/>
<circle cx="233.96" cy="527.21" r="3.2" fill="#1d4ed8"/>
<circle cx="236.25" cy="526.80" r="3.2" fill="#1d4ed8"/>
<circle cx="238.53" cy="526.40" r="3.2" fill="#1d4ed8"/>
<circle cx="240.82" cy="525.18" r="3.2" fill="#1d4ed8"/>
<circle cx="243.10" cy="523.57" r="3.2" fill="#1d4ed8"/>
<circle cx="245.39" cy="523.57" r="3.2" fill="#1d4ed8"/>
<circle cx="247.67" cy="523.16" r="3.2" fill="#1d4ed8"/>
<circle cx="249.96" cy="522.76" r="3.2" fill="#1d4ed8"/>
<circle cx="252.24" cy="522.35" r="3.2" fill="#1d4ed8"/>
<circle cx="254.53" cy="521.54" r="3.2" fill="#1d4ed8"/>
<circle cx="256.81" cy="519.52" r="3.2" fill="#1d4ed8"/>
<circle cx="259.10" cy="517.50" r="3.2" fill="#1d4ed8"/>
<circle cx="261.38" cy="517.50" r="3.2" fill="#1d4ed8"/>
<circle cx="263.67" cy="517.50" r="3.2" fill="#1d4ed8"/>
<circle cx="265.95" cy="517.50" r="3.2" fill="#1d4ed8"/>
<circle cx="268.24" cy="517.50" r="3.2" fill="#1d4ed8"/>
<circle cx="270.52" cy="517.50" r="3.2" fill="#1d4ed8"/>
<circle cx="272.81" cy="517.10" r="3.2" fill="#1d4ed8"/>
<circle cx="275.09" cy="516.69" r="3.2" fill="#1d4ed8"/>
<circle cx="277.38" cy="515.48" r="3.2" fill="#1d4ed8"/>
<circle cx="279.66" cy="515.07" r="3.2" fill="#1d4ed8"/>
<circle cx="281.95" cy="514.67" r="3.2" fill="#1d4ed8"/>
<circle cx="284.23" cy="513.86" r="3.2" fill="#1d4ed8"/>
<circle cx="286.52" cy="514.26" r="3.2" fill="#1d4ed8"/>
<circle cx="288.81" cy="512.24" r="3.2" fill="#1d4ed8"/>
<circle cx="291.09" cy="511.84" r="3.2" fill="#1d4ed8"/>
<circle cx="293.38" cy="511.84" r="3.2" fill="#1d4ed8"/>
<circle cx="295.66" cy="511.03" r="3.2" fill="#1d4ed8"/>
<circle cx="297.95" cy="509.82" r="3.2" fill="#1d4ed8"/>
<circle cx="300.23" cy="507.79" r="3.2" fill="#1d4ed8"/>
<circle cx="302.52" cy="506.99" r="3.2" fill="#1d4ed8"/>
<circle cx="304.80" cy="506.58" r="3.2" fill="#1d4ed8"/>
<circle cx="307.09" cy="509.41" r="3.2" fill="#1d4ed8"/>
<circle cx="309.37" cy="509.01" r="3.2" fill="#1d4ed8"/>
<circle cx="311.66" cy="504.96" r="3.2" fill="#1d4ed8"/>
<circle cx="313.94" cy="504.56" r="3.2" fill="#1d4ed8"/>
<circle cx="316.23" cy="504.15" r="3.2" fill="#1d4ed8"/>
<circle cx="318.51" cy="504.56" r="3.2" fill="#1d4ed8"/>
<circle cx="320.80" cy="503.75" r="3.2" fill="#1d4ed8"/>
<circle cx="323.08" cy="503.75" r="3.2" fill="#1d4ed8"/>
<circle cx="325.37" cy="503.35" r="3.2" fill="#1d4ed8"/>
<circle cx="327.65" cy="499.30" r="3.2" fill="#1d4ed8"/>
<circle cx="329.94" cy="496.47" r="3.2" fill="#1d4ed8"/>
<circle cx="332.22" cy="490.00" r="3.2" fill="#1d4ed8"/>
<circle cx="334.51" cy="484.34" r="3.2" fill="#1d4ed8"/>
<circle cx="336.79" cy="481.10" r="3.2" fill="#1d4ed8"/>
<circle cx="339.08" cy="480.29" r="3.2" fill="#1d4ed8"/>
<circle cx="341.36" cy="480.70" r="3.2" fill="#1d4ed8"/>
<circle cx="343.65" cy="460.88" r="3.2" fill="#1d4ed8"/>
<circle cx="345.93" cy="459.26" r="3.2" fill="#1d4ed8"/>
<circle cx="348.22" cy="458.05" r="3.2" fill="#1d4ed8"/>
<circle cx="350.50" cy="456.03" r="3.2" fill="#1d4ed8"/>
<circle cx="352.79" cy="456.03" r="3.2" fill="#1d4ed8"/>
<circle cx="355.07" cy="454.41" r="3.2" fill="#1d4ed8"/>
<circle cx="357.36" cy="450.77" r="3.2" fill="#1d4ed8"/>
<circle cx="359.64" cy="444.30" r="3.2" fill="#1d4ed8"/>
<circle cx="361.93" cy="443.90" r="3.2" fill="#1d4ed8"/>
<circle cx="364.21" cy="600.00" r="3.2" fill="#1d4ed8"/>
<circle cx="366.50" cy="441.88" r="3.2" fill="#1d4ed8"/>
<circle cx="368.78" cy="440.66" r="3.2" fill="#1d4ed8"/>
<circle cx="371.07" cy="439.45" r="3.2" fill="#1d4ed8"/>
<circle cx="373.35" cy="439.04" r="3.2" fill="#1d4ed8"/>
<circle cx="375.64" cy="438.64" r="3.2" fill="#1d4ed8"/>
<circle cx="377.92" cy="437.83" r="3.2" fill="#1d4ed8"/>
<circle cx="380.21" cy="436.62" r="3.2" fill="#1d4ed8"/>
<circle cx="382.49" cy="436.62" r="3.2" fill="#1d4ed8"/>
<circle cx="384.78" cy="434.60" r="3.2" fill="#1d4ed8"/>
<circle cx="387.06" cy="432.17" r="3.2" fill="#1d4ed8"/>
<circle cx="389.35" cy="429.34" r="3.2" fill="#1d4ed8"/>
<circle cx="391.64" cy="428.93" r="3.2" fill="#1d4ed8"/>
<circle cx="393.92" cy="428.53" r="3.2" fill="#1d4ed8"/>
<circle cx="396.21" cy="427.72" r="3.2" fill="#1d4ed8"/>
<circle cx="398.49" cy="426.91" r="3.2" fill="#1d4ed8"/>
<circle cx="400.78" cy="426.10" r="3.2" fill="#1d4ed8"/>
<circle cx="403.06" cy="426.10" r="3.2" fill="#1d4ed8"/>
<circle cx="405.35" cy="426.10" r="3.2" fill="#1d4ed8"/>
<circle cx="407.63" cy="419.63" r="3.2" fill="#1d4ed8"/>
<circle cx="409.92" cy="419.23" r="3.2" fill="#1d4ed8"/>
<circle cx="412.20" cy="418.42" r="3.2" fill="#1d4ed8"/>
<circle cx="414.49" cy="418.01" r="3.2" fill="#1d4ed8"/>
<circle cx="416.77" cy="417.61" r="3.2" fill="#1d4ed8"/>
<circle cx="419.06" cy="417.61" r="3.2" fill="#1d4ed8"/>
<circle cx="421.34" cy="417.61" r="3.2" fill="#1d4ed8"/>
<circle cx="423.63" cy="417.21" r="3.2" fill="#1d4ed8"/>
<circle cx="425.91" cy="417.21" r="3.2" fill="#1d4ed8"/>
<circle cx="428.20" cy="413.57" r="3.2" fill="#1d4ed8"/>
<circle cx="430.48" cy="411.95" r="3.2" fill="#1d4ed8"/>
<circle cx="432.77" cy="412.76" r="3.2" fill="#1d4ed8"/>
<circle cx="435.05" cy="410.74" r="3.2" fill="#1d4ed8"/>
<circle cx="437.34" cy="410.74" r="3.2" fill="#1d4ed8"/>
<circle cx="439.62" cy="410.33" r="3.2" fill="#1d4ed8"/>
<circle cx="441.91" cy="410.33" r="3.2" fill="#1d4ed8"/>
<circle cx="444.19" cy="410.33" r="3.2" fill="#1d4ed8"/>
<circle cx="446.48" cy="409.93" r="3.2" fill="#1d4ed8"/>
<circle cx="448.76" cy="409.93" r="3.2" fill="#1d4ed8"/>
<circle cx="451.05" cy="409.93" r="3.2" fill="#1d4ed8"/>
<circle cx="453.33" cy="409.52" r="3.2" fill="#1d4ed8"/>
<circle cx="455.62" cy="409.52" r="3.2" fill="#1d4ed8"/>
<circle cx="457.90" cy="409.12" r="3.2" fill="#1d4ed8"/>
<circle cx="460.19" cy="409.52" r="3.2" fill="#1d4ed8"/>
<circle cx="462.47" cy="409.12" r="3.2" fill="#1d4ed8"/>
<circle cx="464.76" cy="407.50" r="3.2" fill="#1d4ed8"/>
<circle cx="467.04" cy="407.10" r="3.2" fill="#1d4ed8"/>
<circle cx="469.33" cy="403.05" r="3.2" fill="#1d4ed8"/>
<circle cx="471.61" cy="399.82" r="3.2" fill="#1d4ed8"/>
<circle cx="473.90" cy="400.22" r="3.2" fill="#1d4ed8"/>
<circle cx="476.18" cy="400.62" r="3.2" fill="#1d4ed8"/>
<circle cx="478.47" cy="400.62" r="3.2" fill="#1d4ed8"/>
<circle cx="480.75" cy="399.41" r="3.2" fill="#1d4ed8"/>
<circle cx="483.04" cy="392.94" r="3.2" fill="#1d4ed8"/>
<circle cx="485.32" cy="391.32" r="3.2" fill="#1d4ed8"/>
<circle cx="487.61" cy="389.30" r="3.2" fill="#1d4ed8"/>
<circle cx="489.90" cy="389.30" r="3.2" fill="#1d4ed8"/>
<circle cx="492.18" cy="388.49" r="3.2" fill="#1d4ed8"/>
<circle cx="494.47" cy="375.15" r="3.2" fill="#1d4ed8"/>
<circle cx="496.75" cy="374.74" r="3.2" fill="#1d4ed8"/>
<circle cx="499.04" cy="374.74" r="3.2" fill="#1d4ed8"/>
<circle cx="501.32" cy="374.74" r="3.2" fill="#1d4ed8"/>
<circle cx="503.61" cy="374.74" r="3.2" fill="#1d4ed8"/>
<circle cx="505.89" cy="374.34" r="3.2" fill="#1d4ed8"/>
<circle cx="508.18" cy="374.34" r="3.2" fill="#1d4ed8"/>
<circle cx="510.46" cy="374.34" r="3.2" fill="#1d4ed8"/>
<circle cx="512.75" cy="374.34" r="3.2" fill="#1d4ed8"/>
<circle cx="515.03" cy="374.34" r="3.2" fill="#1d4ed8"/>
<circle cx="517.32" cy="373.93" r="3.2" fill="#1d4ed8"/>
<circle cx="519.60" cy="373.12" r="3.2" fill="#1d4ed8"/>
<circle cx="521.89" cy="372.72" r="3.2" fill="#1d4ed8"/>
<circle cx="524.17" cy="373.53" r="3.2" fill="#1d4ed8"/>
<circle cx="526.46" cy="435.81" r="3.2" fill="#1d4ed8"/>
<circle cx="528.74" cy="372.32" r="3.2" fill="#1d4ed8"/>
<circle cx="531.03" cy="372.72" r="3.2" fill="#1d4ed8"/>
<circle cx="533.31" cy="371.91" r="3.2" fill="#1d4ed8"/>
<circle cx="535.60" cy="371.91" r="3.2" fill="#1d4ed8"/>
<circle cx="537.88" cy="372.32" r="3.2" fill="#1d4ed8"/>
<circle cx="540.17" cy="371.10" r="3.2" fill="#1d4ed8"/>
<circle cx="542.45" cy="369.89" r="3.2" fill="#1d4ed8"/>
<circle cx="544.74" cy="369.89" r="3.2" fill="#1d4ed8"/>
<circle cx="547.02" cy="369.89" r="3.2" fill="#1d4ed8"/>
<circle cx="549.31" cy="369.49" r="3.2" fill="#1d4ed8"/>
<circle cx="551.59" cy="369.89" r="3.2" fill="#1d4ed8"/>
<circle cx="553.88" cy="369.08" r="3.2" fill="#1d4ed8"/>
<circle cx="556.16" cy="368.68" r="3.2" fill="#1d4ed8"/>
<circle cx="558.45" cy="368.27" r="3.2" fill="#1d4ed8"/>
<circle cx="560.73" cy="367.87" r="3.2" fill="#1d4ed8"/>
<circle cx="563.02" cy="367.06" r="3.2" fill="#1d4ed8"/>
<circle cx="565.30" cy="367.46" r="3.2" fill="#1d4ed8"/>
<circle cx="567.59" cy="367.06" r="3.2" fill="#1d4ed8"/>
<circle cx="569.87" cy="366.25" r="3.2" fill="#1d4ed8"/>
<circle cx="572.16" cy="368.27" r="3.2" fill="#1d4ed8"/>
<circle cx="574.44" cy="368.68" r="3.2" fill="#1d4ed8"/>
<circle cx="576.73" cy="368.68" r="3.2" fill="#1d4ed8"/>
<circle cx="579.01" cy="368.27" r="3.2" fill="#1d4ed8"/>
<circle cx="581.30" cy="369.08" r="3.2" fill="#1d4ed8"/>
<circle cx="583.58" cy="367.87" r="3.2" fill="#1d4ed8"/>
<circle cx="585.87" cy="367.46" r="3.2" fill="#1d4ed8"/>
<circle cx="588.16" cy="367.06" r="3.2" fill="#1d4ed8"/>
<circle cx="590.44" cy="360.18" r="3.2" fill="#1d4ed8"/>
<circle cx="592.73" cy="359.78" r="3.2" fill="#1d4ed8"/>
<circle cx="595.01" cy="359.38" r="3.2" fill="#1d4ed8"/>
<circle cx="597.30" cy="356.95" r="3.2" fill="#1d4ed8"/>
<circle cx="599.58" cy="357.35" r="3.2" fill="#1d4ed8"/>
<circle cx="601.87" cy="357.76" r="3.2" fill="#1d4ed8"/>
<circle cx="604.15" cy="355.33" r="3.2" fill="#1d4ed8"/>
<circle cx="606.44" cy="355.74" r="3.2" fill="#1d4ed8"/>
<circle cx="608.72" cy="357.35" r="3.2" fill="#1d4ed8"/>
<circle cx="611.01" cy="355.33" r="3.2" fill="#1d4ed8"/>
<circle cx="613.29" cy="356.14" r="3.2" fill="#1d4ed8"/>
<circle cx="615.58" cy="355.74" r="3.2" fill="#1d4ed8"/>
<circle cx="617.86" cy="356.14" r="3.2" fill="#1d4ed8"/>
<circle cx="620.15" cy="354.12" r="3.2" fill="#1d4ed8"/>
<circle cx="622.43" cy="354.93" r="3.2" fill="#1d4ed8"/>
<circle cx="624.72" cy="356.14" r="3.2" fill="#1d4ed8"/>
<circle cx="627.00" cy="354.52" r="3.2" fill="#1d4ed8"/>
<circle cx="629.29" cy="353.71" r="3.2" fill="#1d4ed8"/>
<circle cx="631.57" cy="354.12" r="3.2" fill="#1d4ed8"/>
<circle cx="633.86" cy="354.93" r="3.2" fill="#1d4ed8"/>
<circle cx="636.14" cy="352.90" r="3.2" fill="#1d4ed8"/>
<circle cx="638.43" cy="353.71" r="3.2" fill="#1d4ed8"/>
<circle cx="640.71" cy="353.31" r="3.2" fill="#1d4ed8"/>
<circle cx="643.00" cy="353.31" r="3.2" fill="#1d4ed8"/>
<circle cx="645.28" cy="354.52" r="3.2" fill="#1d4ed8"/>
<circle cx="647.57" cy="352.90" r="3.2" fill="#1d4ed8"/>
<circle cx="649.85" cy="352.50" r="3.2" fill="#1d4ed8"/>
<circle cx="652.14" cy="352.50" r="3.2" fill="#1d4ed8"/>
<circle cx="654.42" cy="353.31" r="3.2" fill="#1d4ed8"/>
<circle cx="656.71" cy="352.50" r="3.2" fill="#1d4ed8"/>
<circle cx="658.99" cy="353.71" r="3.2" fill="#1d4ed8"/>
<circle cx="661.28" cy="354.12" r="3.2" fill="#1d4ed8"/>
<circle cx="663.56" cy="352.50" r="3.2" fill="#1d4ed8"/>
<circle cx="665.85" cy="352.90" r="3.2" fill="#1d4ed8"/>
<circle cx="668.13" cy="352.50" r="3.2" fill="#1d4ed8"/>
<circle cx="670.42" cy="352.10" r="3.2" fill="#1d4ed8"/>
<circle cx="672.70" cy="351.69" r="3.2" fill="#1d4ed8"/>
<circle cx="674.99" cy="352.10" r="3.2" fill="#1d4ed8"/>
<circle cx="677.27" cy="354.12" r="3.2" fill="#1d4ed8"/>
<circle cx="679.56" cy="352.50" r="3.2" fill="#1d4ed8"/>
<circle cx="681.84" cy="352.10" r="3.2" fill="#1d4ed8"/>
<circle cx="684.13" cy="352.10" r="3.2" fill="#1d4ed8"/>
<circle cx="686.42" cy="349.67" r="3.2" fill="#1d4ed8"/>
<circle cx="688.70" cy="349.67" r="3.2" fill="#1d4ed8"/>
<circle cx="690.99" cy="350.88" r="3.2" fill="#1d4ed8"/>
<circle cx="693.27" cy="351.29" r="3.2" fill="#1d4ed8"/>
<circle cx="695.56" cy="350.48" r="3.2" fill="#1d4ed8"/>
<circle cx="697.84" cy="352.10" r="3.2" fill="#1d4ed8"/>
<circle cx="700.13" cy="350.48" r="3.2" fill="#1d4ed8"/>
<circle cx="702.41" cy="350.48" r="3.2" fill="#1d4ed8"/>
<circle cx="704.70" cy="350.48" r="3.2" fill="#1d4ed8"/>
<circle cx="706.98" cy="350.07" r="3.2" fill="#1d4ed8"/>
<circle cx="709.27" cy="348.46" r="3.2" fill="#1d4ed8"/>
<circle cx="711.55" cy="351.29" r="3.2" fill="#1d4ed8"/>
<circle cx="713.84" cy="349.67" r="3.2" fill="#1d4ed8"/>
<circle cx="716.12" cy="351.29" r="3.2" fill="#1d4ed8"/>
<circle cx="718.41" cy="349.67" r="3.2" fill="#1d4ed8"/>
<circle cx="720.69" cy="348.86" r="3.2" fill="#1d4ed8"/>
<circle cx="722.98" cy="348.46" r="3.2" fill="#1d4ed8"/>
<circle cx="725.26" cy="348.46" r="3.2" fill="#1d4ed8"/>
<circle cx="727.55" cy="347.24" r="3.2" fill="#1d4ed8"/>
<circle cx="729.83" cy="348.86" r="3.2" fill="#1d4ed8"/>
<circle cx="732.12" cy="346.84" r="3.2" fill="#1d4ed8"/>
<circle cx="734.40" cy="348.46" r="3.2" fill="#1d4ed8"/>
<circle cx="736.69" cy="348.86" r="3.2" fill="#1d4ed8"/>
<circle cx="738.97" cy="346.84" r="3.2" fill="#1d4ed8"/>
<circle cx="741.26" cy="349.26" r="3.2" fill="#1d4ed8"/>
<circle cx="743.54" cy="348.05" r="3.2" fill="#1d4ed8"/>
<circle cx="745.83" cy="349.26" r="3.2" fill="#1d4ed8"/>
<circle cx="748.11" cy="349.26" r="3.2" fill="#1d4ed8"/>
<circle cx="750.40" cy="350.48" r="3.2" fill="#1d4ed8"/>
<circle cx="752.68" cy="352.90" r="3.2" fill="#1d4ed8"/>
<circle cx="754.97" cy="349.67" r="3.2" fill="#1d4ed8"/>
<circle cx="757.25" cy="348.46" r="3.2" fill="#1d4ed8"/>
<circle cx="759.54" cy="345.62" r="3.2" fill="#1d4ed8"/>
<circle cx="761.82" cy="344.82" r="3.2" fill="#1d4ed8"/>
<circle cx="764.11" cy="344.41" r="3.2" fill="#1d4ed8"/>
<circle cx="766.39" cy="342.39" r="3.2" fill="#1d4ed8"/>
<circle cx="768.68" cy="341.18" r="3.2" fill="#1d4ed8"/>
<circle cx="770.96" cy="341.58" r="3.2" fill="#1d4ed8"/>
<circle cx="773.25" cy="339.15" r="3.2" fill="#1d4ed8"/>
<circle cx="775.53" cy="338.35" r="3.2" fill="#1d4ed8"/>
<circle cx="777.82" cy="337.54" r="3.2" fill="#1d4ed8"/>
<circle cx="780.10" cy="336.73" r="3.2" fill="#1d4ed8"/>
<circle cx="782.39" cy="335.92" r="3.2" fill="#1d4ed8"/>
<circle cx="784.68" cy="337.54" r="3.2" fill="#1d4ed8"/>
<circle cx="786.96" cy="338.35" r="3.2" fill="#1d4ed8"/>
<circle cx="789.25" cy="337.54" r="3.2" fill="#1d4ed8"/>
<circle cx="791.53" cy="337.54" r="3.2" fill="#1d4ed8"/>
<circle cx="793.82" cy="337.54" r="3.2" fill="#1d4ed8"/>
<circle cx="796.10" cy="333.09" r="3.2" fill="#1d4ed8"/>
<circle cx="798.39" cy="333.90" r="3.2" fill="#1d4ed8"/>
<circle cx="800.67" cy="335.92" r="3.2" fill="#1d4ed8"/>
<circle cx="802.96" cy="336.73" r="3.2" fill="#1d4ed8"/>
<circle cx="805.24" cy="335.51" r="3.2" fill="#1d4ed8"/>
<circle cx="807.53" cy="332.28" r="3.2" fill="#1d4ed8"/>
<circle cx="809.81" cy="331.47" r="3.2" fill="#1d4ed8"/>
<circle cx="812.10" cy="331.07" r="3.2" fill="#1d4ed8"/>
<circle cx="814.38" cy="331.47" r="3.2" fill="#1d4ed8"/>
<circle cx="816.67" cy="331.07" r="3.2" fill="#1d4ed8"/>
<circle cx="818.95" cy="331.07" r="3.2" fill="#1d4ed8"/>
<circle cx="821.24" cy="331.07" r="3.2" fill="#1d4ed8"/>
<circle cx="823.52" cy="331.07" r="3.2" fill="#1d4ed8"/>
<circle cx="825.81" cy="331.07" r="3.2" fill="#1d4ed8"/>
<circle cx="828.09" cy="331.07" r="3.2" fill="#1d4ed8"/>
<circle cx="830.38" cy="331.07" r="3.2" fill="#1d4ed8"/>
<circle cx="832.66" cy="331.07" r="3.2" fill="#1d4ed8"/>
<circle cx="834.95" cy="331.07" r="3.2" fill="#1d4ed8"/>
<circle cx="837.23" cy="331.07" r="3.2" fill="#1d4ed8"/>
<circle cx="839.52" cy="331.47" r="3.2" fill="#1d4ed8"/>
<circle cx="841.80" cy="331.88" r="3.2" fill="#1d4ed8"/>
<circle cx="844.09" cy="331.07" r="3.2" fill="#1d4ed8"/>
<circle cx="846.37" cy="331.47" r="3.2" fill="#1d4ed8"/>
<circle cx="848.66" cy="331.07" r="3.2" fill="#1d4ed8"/>
<circle cx="850.94" cy="331.47" r="3.2" fill="#1d4ed8"/>
<circle cx="853.23" cy="331.07" r="3.2" fill="#1d4ed8"/>
<circle cx="855.51" cy="324.19" r="3.2" fill="#1d4ed8"/>
<circle cx="857.80" cy="324.19" r="3.2" fill="#1d4ed8"/>
<circle cx="860.08" cy="318.93" r="3.2" fill="#1d4ed8"/>
<circle cx="862.37" cy="316.51" r="3.2" fill="#1d4ed8"/>
<circle cx="864.65" cy="310.44" r="3.2" fill="#1d4ed8"/>
<circle cx="866.94" cy="308.01" r="3.2" fill="#1d4ed8"/>
<circle cx="869.22" cy="600.00" r="3.2" fill="#1d4ed8"/>
<circle cx="871.51" cy="301.54" r="3.2" fill="#1d4ed8"/>
<circle cx="873.79" cy="290.22" r="3.2" fill="#1d4ed8"/>
<circle cx="876.08" cy="287.79" r="3.2" fill="#1d4ed8"/>
<circle cx="878.36" cy="286.18" r="3.2" fill="#1d4ed8"/>
<circle cx="880.65" cy="285.77" r="3.2" fill="#1d4ed8"/>
<circle cx="882.94" cy="285.77" r="3.2" fill="#1d4ed8"/>
<circle cx="885.22" cy="285.77" r="3.2" fill="#1d4ed8"/>
<circle cx="887.51" cy="286.18" r="3.2" fill="#1d4ed8"/>
<circle cx="889.79" cy="285.77" r="3.2" fill="#1d4ed8"/>
<circle cx="892.08" cy="285.77" r="3.2" fill="#1d4ed8"/>
<circle cx="894.36" cy="285.77" r="3.2" fill="#1d4ed8"/>
<circle cx="896.65" cy="283.35" r="3.2" fill="#1d4ed8"/>
<circle cx="898.93" cy="282.94" r="3.2" fill="#1d4ed8"/>
<circle cx="901.22" cy="282.94" r="3.2" fill="#1d4ed8"/>
<circle cx="903.50" cy="283.35" r="3.2" fill="#1d4ed8"/>
<circle cx="905.79" cy="282.94" r="3.2" fill="#1d4ed8"/>
<circle cx="908.07" cy="282.94" r="3.2" fill="#1d4ed8"/>
<circle cx="910.36" cy="283.75" r="3.2" fill="#1d4ed8"/>
<circle cx="912.64" cy="282.13" r="3.2" fill="#1d4ed8"/>
<circle cx="914.93" cy="282.13" r="3.2" fill="#1d4ed8"/>
<circle cx="917.21" cy="282.54" r="3.2" fill="#1d4ed8"/>
<circle cx="919.50" cy="282.13" r="3.2" fill="#1d4ed8"/>
<circle cx="921.78" cy="282.54" r="3.2" fill="#1d4ed8"/>
<circle cx="924.07" cy="282.94" r="3.2" fill="#1d4ed8"/>
<circle cx="926.35" cy="281.73" r="3.2" fill="#1d4ed8"/>
<circle cx="928.64" cy="282.54" r="3.2" fill="#1d4ed8"/>
<circle cx="930.92" cy="281.73" r="3.2" fill="#1d4ed8"/>
<circle cx="933.21" cy="282.54" r="3.2" fill="#1d4ed8"/>
<circle cx="935.49" cy="282.13" r="3.2" fill="#1d4ed8"/>
<circle cx="937.78" cy="282.13" r="3.2" fill="#1d4ed8"/>
<circle cx="940.06" cy="281.73" r="3.2" fill="#1d4ed8"/>
<circle cx="942.35" cy="281.73" r="3.2" fill="#1d4ed8"/>
<circle cx="944.63" cy="281.32" r="3.2" fill="#1d4ed8"/>
<circle cx="946.92" cy="281.73" r="3.2" fill="#1d4ed8"/>
<circle cx="949.20" cy="282.13" r="3.2" fill="#1d4ed8"/>
<circle cx="951.49" cy="281.32" r="3.2" fill="#1d4ed8"/>
<circle cx="953.77" cy="281.32" r="3.2" fill="#1d4ed8"/>
<circle cx="956.06" cy="282.54" r="3.2" fill="#1d4ed8"/>
<circle cx="958.34" cy="282.13" r="3.2" fill="#1d4ed8"/>
<circle cx="960.63" cy="281.32" r="3.2" fill="#1d4ed8"/>
<circle cx="962.91" cy="281.32" r="3.2" fill="#1d4ed8"/>
<circle cx="965.20" cy="281.32" r="3.2" fill="#1d4ed8"/>
<circle cx="967.48" cy="282.54" r="3.2" fill="#1d4ed8"/>
<circle cx="969.77" cy="282.13" r="3.2" fill="#1d4ed8"/>
<circle cx="972.05" cy="281.32" r="3.2" fill="#1d4ed8"/>
<circle cx="974.34" cy="282.13" r="3.2" fill="#1d4ed8"/>
<circle cx="976.62" cy="281.73" r="3.2" fill="#1d4ed8"/>
<circle cx="978.91" cy="282.13" r="3.2" fill="#1d4ed8"/>
<circle cx="981.19" cy="280.11" r="3.2" fill="#1d4ed8"/>
<circle cx="983.48" cy="280.11" r="3.2" fill="#1d4ed8"/>
<circle cx="985.77" cy="280.51" r="3.2" fill="#1d4ed8"/>
<circle cx="988.05" cy="279.71" r="3.2" fill="#1d4ed8"/>
<circle cx="990.34" cy="280.11" r="3.2" fill="#1d4ed8"/>
<circle cx="992.62" cy="280.51" r="3.2" fill="#1d4ed8"/>
<circle cx="994.91" cy="279.71" r="3.2" fill="#1d4ed8"/>
<circle cx="997.19" cy="280.11" r="3.2" fill="#1d4ed8"/>
<circle cx="999.48" cy="280.11" r="3.2" fill="#1d4ed8"/>
<circle cx="1001.76" cy="279.30" r="3.2" fill="#1d4ed8"/>
<circle cx="1004.05" cy="278.90" r="3.2" fill="#1d4ed8"/>
<circle cx="1006.33" cy="278.90" r="3.2" fill="#1d4ed8"/>
<circle cx="1008.62" cy="280.51" r="3.2" fill="#1d4ed8"/>
<circle cx="1010.90" cy="279.30" r="3.2" fill="#1d4ed8"/>
<circle cx="1013.19" cy="278.09" r="3.2" fill="#1d4ed8"/>
<circle cx="1015.47" cy="278.49" r="3.2" fill="#1d4ed8"/>
<circle cx="1017.76" cy="278.49" r="3.2" fill="#1d4ed8"/>
<circle cx="1020.04" cy="277.28" r="3.2" fill="#1d4ed8"/>
<circle cx="1022.33" cy="277.68" r="3.2" fill="#1d4ed8"/>
<circle cx="1024.61" cy="277.68" r="3.2" fill="#1d4ed8"/>
<circle cx="1026.90" cy="278.09" r="3.2" fill="#1d4ed8"/>
<circle cx="1029.18" cy="277.28" r="3.2" fill="#1d4ed8"/>
<circle cx="1031.47" cy="600.00" r="3.2" fill="#1d4ed8"/>
<circle cx="1033.75" cy="278.90" r="3.2" fill="#1d4ed8"/>
<circle cx="1036.04" cy="279.30" r="3.2" fill="#1d4ed8"/>
<circle cx="1038.32" cy="278.90" r="3.2" fill="#1d4ed8"/>
<circle cx="1040.61" cy="278.49" r="3.2" fill="#1d4ed8"/>
<circle cx="1042.89" cy="278.49" r="3.2" fill="#1d4ed8"/>
<circle cx="1045.18" cy="278.49" r="3.2" fill="#1d4ed8"/>
<circle cx="1047.46" cy="278.49" r="3.2" fill="#1d4ed8"/>
<circle cx="1049.75" cy="278.49" r="3.2" fill="#1d4ed8"/>
<circle cx="1052.03" cy="278.49" r="3.2" fill="#1d4ed8"/>
<circle cx="1054.32" cy="278.49" r="3.2" fill="#1d4ed8"/>
<circle cx="1056.60" cy="278.49" r="3.2" fill="#1d4ed8"/>
<circle cx="1058.89" cy="278.49" r="3.2" fill="#1d4ed8"/>
<circle cx="1061.17" cy="278.49" r="3.2" fill="#1d4ed8"/>
<circle cx="1063.46" cy="278.49" r="3.2" fill="#1d4ed8"/>
<circle cx="1065.74" cy="278.49" r="3.2" fill="#1d4ed8"/>
<circle cx="1068.03" cy="600.00" r="3.2" fill="#1d4ed8"/>
<circle cx="1070.31" cy="600.00" r="3.2" fill="#1d4ed8"/>
<circle cx="1072.60" cy="254.63" r="3.2" fill="#1d4ed8"/>
<circle cx="1074.88" cy="600.00" r="3.2" fill="#1d4ed8"/>
<circle cx="1077.17" cy="245.74" r="3.2" fill="#1d4ed8"/>
<circle cx="1079.45" cy="245.74" r="3.2" fill="#1d4ed8"/>
<circle cx="1081.74" cy="246.14" r="3.2" fill="#1d4ed8"/>
<circle cx="1084.03" cy="245.74" r="3.2" fill="#1d4ed8"/>
<circle cx="1086.31" cy="245.74" r="3.2" fill="#1d4ed8"/>
<circle cx="1088.60" cy="245.74" r="3.2" fill="#1d4ed8"/>
<circle cx="1090.88" cy="245.74" r="3.2" fill="#1d4ed8"/>
<circle cx="1093.17" cy="245.74" r="3.2" fill="#1d4ed8"/>
<circle cx="1095.45" cy="240.07" r="3.2" fill="#1d4ed8"/>
<circle cx="1097.74" cy="238.05" r="3.2" fill="#1d4ed8"/>
<circle cx="1100.02" cy="238.05" r="3.2" fill="#1d4ed8"/>
<circle cx="1102.31" cy="227.13" r="3.2" fill="#1d4ed8"/>
<circle cx="1104.59" cy="227.13" r="3.2" fill="#1d4ed8"/>
<circle cx="1106.88" cy="226.32" r="3.2" fill="#1d4ed8"/>
<circle cx="1109.16" cy="227.54" r="3.2" fill="#1d4ed8"/>
<circle cx="1111.45" cy="226.73" r="3.2" fill="#1d4ed8"/>
<circle cx="1113.73" cy="226.32" r="3.2" fill="#1d4ed8"/>
<circle cx="1116.02" cy="227.13" r="3.2" fill="#1d4ed8"/>
<circle cx="1118.30" cy="227.13" r="3.2" fill="#1d4ed8"/>
<circle cx="1120.59" cy="226.73" r="3.2" fill="#1d4ed8"/>
<circle cx="1122.87" cy="226.32" r="3.2" fill="#1d4ed8"/>
<circle cx="1125.16" cy="226.73" r="3.2" fill="#1d4ed8"/>
<circle cx="1127.44" cy="226.73" r="3.2" fill="#1d4ed8"/>
<circle cx="1129.73" cy="226.73" r="3.2" fill="#1d4ed8"/>
<circle cx="1132.01" cy="225.11" r="3.2" fill="#1d4ed8"/>
<circle cx="1134.30" cy="224.71" r="3.2" fill="#1d4ed8"/>
<circle cx="1136.58" cy="225.11" r="3.2" fill="#1d4ed8"/>
<circle cx="1138.87" cy="224.30" r="3.2" fill="#1d4ed8"/>
<circle cx="1141.15" cy="226.32" r="3.2" fill="#1d4ed8"/>
<circle cx="1143.44" cy="224.30" r="3.2" fill="#1d4ed8"/>
<circle cx="1145.72" cy="225.51" r="3.2" fill="#1d4ed8"/>
<circle cx="1148.01" cy="225.51" r="3.2" fill="#1d4ed8"/>
<circle cx="1150.29" cy="225.51" r="3.2" fill="#1d4ed8"/>
<circle cx="1152.58" cy="225.92" r="3.2" fill="#1d4ed8"/>
<circle cx="1154.86" cy="223.09" r="3.2" fill="#1d4ed8"/>
<circle cx="1157.15" cy="223.49" r="3.2" fill="#1d4ed8"/>
<circle cx="1159.43" cy="223.09" r="3.2" fill="#1d4ed8"/>
<circle cx="1161.72" cy="223.09" r="3.2" fill="#1d4ed8"/>
<circle cx="1164.00" cy="223.90" r="3.2" fill="#1d4ed8"/>
<circle cx="1166.29" cy="223.49" r="3.2" fill="#1d4ed8"/>
<circle cx="1168.57" cy="223.49" r="3.2" fill="#1d4ed8"/>
<circle cx="1170.86" cy="223.09" r="3.2" fill="#1d4ed8"/>
<circle cx="1173.14" cy="223.09" r="3.2" fill="#1d4ed8"/>
<circle cx="1175.43" cy="223.49" r="3.2" fill="#1d4ed8"/>
<circle cx="1177.71" cy="223.09" r="3.2" fill="#1d4ed8"/>
<circle cx="1180.00" cy="223.09" r="3.2" fill="#1d4ed8"/>
<text x="635" y="695" text-anchor="middle" font-size="14" fill="#111" font-family="sans-serif">Date</text>
<text x="24" y="325" text-anchor="middle" font-size="14" fill="#111" transform="rotate(-90 24,325)" font-family="sans-serif">Passed files</text>
</svg>
