<?xml version="1.0" encoding="UTF-8"?>
<svg xmlns="http://www.w3.org/2000/svg" width="1280" height="720" viewBox="0 0 1280 720">
<rect width="100%" height="100%" fill="#ffffff"/>
<text x="640" y="30" text-anchor="middle" font-size="22" font-family="sans-serif">Roast passed files history</text>
<line x1="90" y1="600" x2="1180" y2="600" stroke="#333" stroke-width="1.5"/>
<line x1="90" y1="50" x2="90" y2="600" stroke="#333" stroke-width="1.5"/>
<line x1="90" y1="600.00" x2="1180" y2="600.00" stroke="#e5e7eb" stroke-width="1"/>
<text x="78" y="605.00" text-anchor="end" font-size="12" fill="#111" font-family="sans-serif">0</text>
<line x1="90" y1="398.09" x2="1180" y2="398.09" stroke="#e5e7eb" stroke-width="1"/>
<text x="78" y="403.09" text-anchor="end" font-size="12" fill="#111" font-family="sans-serif">500</text>
<line x1="90" y1="196.18" x2="1180" y2="196.18" stroke="#e5e7eb" stroke-width="1"/>
<text x="78" y="201.18" text-anchor="end" font-size="12" fill="#111" font-family="sans-serif">1000</text>
<line x1="90.00" y1="600" x2="90.00" y2="606" stroke="#333" stroke-width="1"/>
<text x="90.00" y="624" text-anchor="end" font-size="11" fill="#111" transform="rotate(-40 90.00,624)" font-family="sans-serif">2026-02-12</text>
<line x1="224.28" y1="600" x2="224.28" y2="606" stroke="#333" stroke-width="1"/>
<text x="224.28" y="624" text-anchor="end" font-size="11" fill="#111" transform="rotate(-40 224.28,624)" font-family="sans-serif">2026-02-15</text>
<line x1="358.55" y1="600" x2="358.55" y2="606" stroke="#333" stroke-width="1"/>
<text x="358.55" y="624" text-anchor="end" font-size="11" fill="#111" transform="rotate(-40 358.55,624)" font-family="sans-serif">2026-02-17</text>
<line x1="492.83" y1="600" x2="492.83" y2="606" stroke="#333" stroke-width="1"/>
<text x="492.83" y="624" text-anchor="end" font-size="11" fill="#111" transform="rotate(-40 492.83,624)" font-family="sans-serif">2026-02-18</text>
<line x1="627.10" y1="600" x2="627.10" y2="606" stroke="#333" stroke-width="1"/>
<text x="627.10" y="624" text-anchor="end" font-size="11" fill="#111" transform="rotate(-40 627.10,624)" font-family="sans-serif">2026-02-19</text>
<line x1="761.38" y1="600" x2="761.38" y2="606" stroke="#333" stroke-width="1"/>
<text x="761.38" y="624" text-anchor="end" font-size="11" fill="#111" transform="rotate(-40 761.38,624)" font-family="sans-serif">2026-02-21</text>
<line x1="895.65" y1="600" x2="895.65" y2="606" stroke="#333" stroke-width="1"/>
<text x="895.65" y="624" text-anchor="end" font-size="11" fill="#111" transform="rotate(-40 895.65,624)" font-family="sans-serif">2026-02-23</text>
<line x1="1029.93" y1="600" x2="1029.93" y2="606" stroke="#333" stroke-width="1"/>
<text x="1029.93" y="624" text-anchor="end" font-size="11" fill="#111" transform="rotate(-40 1029.93,624)" font-family="sans-serif">2026-02-25</text>
<line x1="1164.20" y1="600" x2="1164.20" y2="606" stroke="#333" stroke-width="1"/>
<text x="1164.20" y="624" text-anchor="end" font-size="11" fill="#111" transform="rotate(-40 1164.20,624)" font-family="sans-serif">2026-02-25</text>
<line x1="1180.00" y1="600" x2="1180.00" y2="606" stroke="#333" stroke-width="1"/>
<text x="1180.00" y="624" text-anchor="end" font-size="11" fill="#111" transform="rotate(-40 1180.00,624)" font-family="sans-serif">2026-02-25</text>
<line x1="90" y1="75.84" x2="1180" y2="75.84" stroke="#dc2626" stroke-width="1.5" stroke-dasharray="8,4"/>
<text x="1184" y="79.84" font-size="12" fill="#dc2626" font-family="sans-serif">Goal: 1298</text>
<polyline fill="none" stroke="#2563eb" stroke-width="3" points="90.00,540.64 97.90,538.62 105.80,537.00 113.70,534.58 121.59,534.58 129.49,533.37 137.39,532.56 145.29,532.97 153.19,532.16 161.09,532.56 168.99,532.16 176.88,568.50 184.78,568.50 192.68,566.48 200.58,545.08 208.48,545.08 216.38,544.27 224.28,543.87 232.17,543.87 240.07,543.47 247.97,541.85 255.87,541.45 263.77,541.04 271.67,541.04 279.57,539.43 287.46,539.43 295.36,556.79 303.26,556.79 311.16,555.58 319.06,551.14 326.96,539.02 334.86,539.02 342.75,539.02 350.65,538.22 358.55,537.00 366.45,537.00 374.35,536.60 382.25,536.60 390.14,556.79 398.04,556.79 405.94,556.79 413.84,556.79 421.74,535.39 429.64,535.39 437.54,535.39 445.43,535.39 453.33,534.58 461.23,534.18 469.13,533.77 477.03,532.97 484.93,532.16 492.83,532.16 500.72,531.35 508.62,530.95 516.52,530.54 524.42,530.14 532.32,530.14 540.22,529.33 548.12,529.33 556.01,529.33 563.91,528.52 571.81,528.52 579.71,527.72 587.61,527.31 595.51,526.91 603.41,526.51 611.30,525.29 619.20,523.68 627.10,523.68 635.00,523.27 642.90,522.87 650.80,522.47 658.70,521.66 666.59,519.64 674.49,517.62 682.39,517.62 690.29,517.62 698.19,517.62 706.09,517.62 713.99,517.62 721.88,517.22 729.78,516.81 737.68,515.60 745.58,515.20 753.48,514.79 761.38,513.99 769.28,514.39 777.17,512.37 785.07,511.97 792.97,511.97 800.87,511.16 808.77,509.95 816.67,507.93 824.57,507.12 832.46,506.72 840.36,509.54 848.26,509.14 856.16,505.10 864.06,504.70 871.96,504.30 879.86,504.70 887.75,503.89 895.65,503.89 903.55,503.49 911.45,499.45 919.35,496.62 927.25,490.16 935.14,484.51 943.04,481.28 950.94,480.47 958.84,480.87 966.74,461.09 974.64,459.47 982.54,458.26 990.43,456.24 998.33,456.24 1006.23,454.63 1014.13,450.99 1022.03,444.53 1029.93,444.13 1037.83,600.00 1045.72,442.11 1053.62,440.90 1061.52,439.68 1069.42,439.28 1077.32,438.88 1085.22,438.07 1093.12,436.86 1101.01,436.86 1108.91,434.84 1116.81,432.42 1124.71,429.59 1132.61,429.19 1140.51,428.78 1148.41,427.97 1156.30,427.17 1164.20,426.36 1172.10,426.36 1180.00,426.36"/>
<circle cx="90.00" cy="540.64" r="3.2" fill="#1d4ed8"/>
<circle cx="97.90" cy="538.62" r="3.2" fill="#1d4ed8"/>
<circle cx="105.80" cy="537.00" r="3.2" fill="#1d4ed8"/>
<circle cx="113.70" cy="534.58" r="3.2" fill="#1d4ed8"/>
<circle cx="121.59" cy="534.58" r="3.2" fill="#1d4ed8"/>
<circle cx="129.49" cy="533.37" r="3.2" fill="#1d4ed8"/>
<circle cx="137.39" cy="532.56" r="3.2" fill="#1d4ed8"/>
<circle cx="145.29" cy="532.97" r="3.2" fill="#1d4ed8"/>
<circle cx="153.19" cy="532.16" r="3.2" fill="#1d4ed8"/>
<circle cx="161.09" cy="532.56" r="3.2" fill="#1d4ed8"/>
<circle cx="168.99" cy="532.16" r="3.2" fill="#1d4ed8"/>
<circle cx="176.88" cy="568.50" r="3.2" fill="#1d4ed8"/>
<circle cx="184.78" cy="568.50" r="3.2" fill="#1d4ed8"/>
<circle cx="192.68" cy="566.48" r="3.2" fill="#1d4ed8"/>
<circle cx="200.58" cy="545.08" r="3.2" fill="#1d4ed8"/>
<circle cx="208.48" cy="545.08" r="3.2" fill="#1d4ed8"/>
<circle cx="216.38" cy="544.27" r="3.2" fill="#1d4ed8"/>
<circle cx="224.28" cy="543.87" r="3.2" fill="#1d4ed8"/>
<circle cx="232.17" cy="543.87" r="3.2" fill="#1d4ed8"/>
<circle cx="240.07" cy="543.47" r="3.2" fill="#1d4ed8"/>
<circle cx="247.97" cy="541.85" r="3.2" fill="#1d4ed8"/>
<circle cx="255.87" cy="541.45" r="3.2" fill="#1d4ed8"/>
<circle cx="263.77" cy="541.04" r="3.2" fill="#1d4ed8"/>
<circle cx="271.67" cy="541.04" r="3.2" fill="#1d4ed8"/>
<circle cx="279.57" cy="539.43" r="3.2" fill="#1d4ed8"/>
<circle cx="287.46" cy="539.43" r="3.2" fill="#1d4ed8"/>
<circle cx="295.36" cy="556.79" r="3.2" fill="#1d4ed8"/>
<circle cx="303.26" cy="556.79" r="3.2" fill="#1d4ed8"/>
<circle cx="311.16" cy="555.58" r="3.2" fill="#1d4ed8"/>
<circle cx="319.06" cy="551.14" r="3.2" fill="#1d4ed8"/>
<circle cx="326.96" cy="539.02" r="3.2" fill="#1d4ed8"/>
<circle cx="334.86" cy="539.02" r="3.2" fill="#1d4ed8"/>
<circle cx="342.75" cy="539.02" r="3.2" fill="#1d4ed8"/>
<circle cx="350.65" cy="538.22" r="3.2" fill="#1d4ed8"/>
<circle cx="358.55" cy="537.00" r="3.2" fill="#1d4ed8"/>
<circle cx="366.45" cy="537.00" r="3.2" fill="#1d4ed8"/>
<circle cx="374.35" cy="536.60" r="3.2" fill="#1d4ed8"/>
<circle cx="382.25" cy="536.60" r="3.2" fill="#1d4ed8"/>
<circle cx="390.14" cy="556.79" r="3.2" fill="#1d4ed8"/>
<circle cx="398.04" cy="556.79" r="3.2" fill="#1d4ed8"/>
<circle cx="405.94" cy="556.79" r="3.2" fill="#1d4ed8"/>
<circle cx="413.84" cy="556.79" r="3.2" fill="#1d4ed8"/>
<circle cx="421.74" cy="535.39" r="3.2" fill="#1d4ed8"/>
<circle cx="429.64" cy="535.39" r="3.2" fill="#1d4ed8"/>
<circle cx="437.54" cy="535.39" r="3.2" fill="#1d4ed8"/>
<circle cx="445.43" cy="535.39" r="3.2" fill="#1d4ed8"/>
<circle cx="453.33" cy="534.58" r="3.2" fill="#1d4ed8"/>
<circle cx="461.23" cy="534.18" r="3.2" fill="#1d4ed8"/>
<circle cx="469.13" cy="533.77" r="3.2" fill="#1d4ed8"/>
<circle cx="477.03" cy="532.97" r="3.2" fill="#1d4ed8"/>
<circle cx="484.93" cy="532.16" r="3.2" fill="#1d4ed8"/>
<circle cx="492.83" cy="532.16" r="3.2" fill="#1d4ed8"/>
<circle cx="500.72" cy="531.35" r="3.2" fill="#1d4ed8"/>
<circle cx="508.62" cy="530.95" r="3.2" fill="#1d4ed8"/>
<circle cx="516.52" cy="530.54" r="3.2" fill="#1d4ed8"/>
<circle cx="524.42" cy="530.14" r="3.2" fill="#1d4ed8"/>
<circle cx="532.32" cy="530.14" r="3.2" fill="#1d4ed8"/>
<circle cx="540.22" cy="529.33" r="3.2" fill="#1d4ed8"/>
<circle cx="548.12" cy="529.33" r="3.2" fill="#1d4ed8"/>
<circle cx="556.01" cy="529.33" r="3.2" fill="#1d4ed8"/>
<circle cx="563.91" cy="528.52" r="3.2" fill="#1d4ed8"/>
<circle cx="571.81" cy="528.52" r="3.2" fill="#1d4ed8"/>
<circle cx="579.71" cy="527.72" r="3.2" fill="#1d4ed8"/>
<circle cx="587.61" cy="527.31" r="3.2" fill="#1d4ed8"/>
<circle cx="595.51" cy="526.91" r="3.2" fill="#1d4ed8"/>
<circle cx="603.41" cy="526.51" r="3.2" fill="#1d4ed8"/>
<circle cx="611.30" cy="525.29" r="3.2" fill="#1d4ed8"/>
<circle cx="619.20" cy="523.68" r="3.2" fill="#1d4ed8"/>
<circle cx="627.10" cy="523.68" r="3.2" fill="#1d4ed8"/>
<circle cx="635.00" cy="523.27" r="3.2" fill="#1d4ed8"/>
<circle cx="642.90" cy="522.87" r="3.2" fill="#1d4ed8"/>
<circle cx="650.80" cy="522.47" r="3.2" fill="#1d4ed8"/>
<circle cx="658.70" cy="521.66" r="3.2" fill="#1d4ed8"/>
<circle cx="666.59" cy="519.64" r="3.2" fill="#1d4ed8"/>
<circle cx="674.49" cy="517.62" r="3.2" fill="#1d4ed8"/>
<circle cx="682.39" cy="517.62" r="3.2" fill="#1d4ed8"/>
<circle cx="690.29" cy="517.62" r="3.2" fill="#1d4ed8"/>
<circle cx="698.19" cy="517.62" r="3.2" fill="#1d4ed8"/>
<circle cx="706.09" cy="517.62" r="3.2" fill="#1d4ed8"/>
<circle cx="713.99" cy="517.62" r="3.2" fill="#1d4ed8"/>
<circle cx="721.88" cy="517.22" r="3.2" fill="#1d4ed8"/>
<circle cx="729.78" cy="516.81" r="3.2" fill="#1d4ed8"/>
<circle cx="737.68" cy="515.60" r="3.2" fill="#1d4ed8"/>
<circle cx="745.58" cy="515.20" r="3.2" fill="#1d4ed8"/>
<circle cx="753.48" cy="514.79" r="3.2" fill="#1d4ed8"/>
<circle cx="761.38" cy="513.99" r="3.2" fill="#1d4ed8"/>
<circle cx="769.28" cy="514.39" r="3.2" fill="#1d4ed8"/>
<circle cx="777.17" cy="512.37" r="3.2" fill="#1d4ed8"/>
<circle cx="785.07" cy="511.97" r="3.2" fill="#1d4ed8"/>
<circle cx="792.97" cy="511.97" r="3.2" fill="#1d4ed8"/>
<circle cx="800.87" cy="511.16" r="3.2" fill="#1d4ed8"/>
<circle cx="808.77" cy="509.95" r="3.2" fill="#1d4ed8"/>
<circle cx="816.67" cy="507.93" r="3.2" fill="#1d4ed8"/>
<circle cx="824.57" cy="507.12" r="3.2" fill="#1d4ed8"/>
<circle cx="832.46" cy="506.72" r="3.2" fill="#1d4ed8"/>
<circle cx="840.36" cy="509.54" r="3.2" fill="#1d4ed8"/>
<circle cx="848.26" cy="509.14" r="3.2" fill="#1d4ed8"/>
<circle cx="856.16" cy="505.10" r="3.2" fill="#1d4ed8"/>
<circle cx="864.06" cy="504.70" r="3.2" fill="#1d4ed8"/>
<circle cx="871.96" cy="504.30" r="3.2" fill="#1d4ed8"/>
<circle cx="879.86" cy="504.70" r="3.2" fill="#1d4ed8"/>
<circle cx="887.75" cy="503.89" r="3.2" fill="#1d4ed8"/>
<circle cx="895.65" cy="503.89" r="3.2" fill="#1d4ed8"/>
<circle cx="903.55" cy="503.49" r="3.2" fill="#1d4ed8"/>
<circle cx="911.45" cy="499.45" r="3.2" fill="#1d4ed8"/>
<circle cx="919.35" cy="496.62" r="3.2" fill="#1d4ed8"/>
<circle cx="927.25" cy="490.16" r="3.2" fill="#1d4ed8"/>
<circle cx="935.14" cy="484.51" r="3.2" fill="#1d4ed8"/>
<circle cx="943.04" cy="481.28" r="3.2" fill="#1d4ed8"/>
<circle cx="950.94" cy="480.47" r="3.2" fill="#1d4ed8"/>
<circle cx="958.84" cy="480.87" r="3.2" fill="#1d4ed8"/>
<circle cx="966.74" cy="461.09" r="3.2" fill="#1d4ed8"/>
<circle cx="974.64" cy="459.47" r="3.2" fill="#1d4ed8"/>
<circle cx="982.54" cy="458.26" r="3.2" fill="#1d4ed8"/>
<circle cx="990.43" cy="456.24" r="3.2" fill="#1d4ed8"/>
<circle cx="998.33" cy="456.24" r="3.2" fill="#1d4ed8"/>
<circle cx="1006.23" cy="454.63" r="3.2" fill="#1d4ed8"/>
<circle cx="1014.13" cy="450.99" r="3.2" fill="#1d4ed8"/>
<circle cx="1022.03" cy="444.53" r="3.2" fill="#1d4ed8"/>
<circle cx="1029.93" cy="444.13" r="3.2" fill="#1d4ed8"/>
<circle cx="1037.83" cy="600.00" r="3.2" fill="#1d4ed8"/>
<circle cx="1045.72" cy="442.11" r="3.2" fill="#1d4ed8"/>
<circle cx="1053.62" cy="440.90" r="3.2" fill="#1d4ed8"/>
<circle cx="1061.52" cy="439.68" r="3.2" fill="#1d4ed8"/>
<circle cx="1069.42" cy="439.28" r="3.2" fill="#1d4ed8"/>
<circle cx="1077.32" cy="438.88" r="3.2" fill="#1d4ed8"/>
<circle cx="1085.22" cy="438.07" r="3.2" fill="#1d4ed8"/>
<circle cx="1093.12" cy="436.86" r="3.2" fill="#1d4ed8"/>
<circle cx="1101.01" cy="436.86" r="3.2" fill="#1d4ed8"/>
<circle cx="1108.91" cy="434.84" r="3.2" fill="#1d4ed8"/>
<circle cx="1116.81" cy="432.42" r="3.2" fill="#1d4ed8"/>
<circle cx="1124.71" cy="429.59" r="3.2" fill="#1d4ed8"/>
<circle cx="1132.61" cy="429.19" r="3.2" fill="#1d4ed8"/>
<circle cx="1140.51" cy="428.78" r="3.2" fill="#1d4ed8"/>
<circle cx="1148.41" cy="427.97" r="3.2" fill="#1d4ed8"/>
<circle cx="1156.30" cy="427.17" r="3.2" fill="#1d4ed8"/>
<circle cx="1164.20" cy="426.36" r="3.2" fill="#1d4ed8"/>
<circle cx="1172.10" cy="426.36" r="3.2" fill="#1d4ed8"/>
<circle cx="1180.00" cy="426.36" r="3.2" fill="#1d4ed8"/>
<text x="635" y="695" text-anchor="middle" font-size="14" fill="#111" font-family="sans-serif">Date</text>
<text x="24" y="325" text-anchor="middle" font-size="14" fill="#111" transform="rotate(-90 24,325)" font-family="sans-serif">Passed files</text>
</svg>
