<?xml version="1.0" encoding="UTF-8"?>
<svg xmlns="http://www.w3.org/2000/svg" width="1280" height="720" viewBox="0 0 1280 720">
<rect width="100%" height="100%" fill="#ffffff"/>
<text x="640" y="30" text-anchor="middle" font-size="22" font-family="sans-serif">Roast passed files history</text>
<line x1="90" y1="600" x2="1180" y2="600" stroke="#333" stroke-width="1.5"/>
<line x1="90" y1="50" x2="90" y2="600" stroke="#333" stroke-width="1.5"/>
<line x1="90" y1="600.00" x2="1180" y2="600.00" stroke="#e5e7eb" stroke-width="1"/>
<text x="78" y="605.00" text-anchor="end" font-size="12" fill="#111" font-family="sans-serif">0</text>
<line x1="90" y1="397.79" x2="1180" y2="397.79" stroke="#e5e7eb" stroke-width="1"/>
<text x="78" y="402.79" text-anchor="end" font-size="12" fill="#111" font-family="sans-serif">500</text>
<line x1="90" y1="195.59" x2="1180" y2="195.59" stroke="#e5e7eb" stroke-width="1"/>
<text x="78" y="200.59" text-anchor="end" font-size="12" fill="#111" font-family="sans-serif">1000</text>
<line x1="90.00" y1="600" x2="90.00" y2="606" stroke="#333" stroke-width="1"/>
<text x="90.00" y="624" text-anchor="end" font-size="11" fill="#111" transform="rotate(-40 90.00,624)" font-family="sans-serif">2026-02-12</text>
<line x1="224.67" y1="600" x2="224.67" y2="606" stroke="#333" stroke-width="1"/>
<text x="224.67" y="624" text-anchor="end" font-size="11" fill="#111" transform="rotate(-40 224.67,624)" font-family="sans-serif">2026-02-19</text>
<line x1="359.34" y1="600" x2="359.34" y2="606" stroke="#333" stroke-width="1"/>
<text x="359.34" y="624" text-anchor="end" font-size="11" fill="#111" transform="rotate(-40 359.34,624)" font-family="sans-serif">2026-02-25</text>
<line x1="494.02" y1="600" x2="494.02" y2="606" stroke="#333" stroke-width="1"/>
<text x="494.02" y="624" text-anchor="end" font-size="11" fill="#111" transform="rotate(-40 494.02,624)" font-family="sans-serif">2026-02-28</text>
<line x1="628.69" y1="600" x2="628.69" y2="606" stroke="#333" stroke-width="1"/>
<text x="628.69" y="624" text-anchor="end" font-size="11" fill="#111" transform="rotate(-40 628.69,624)" font-family="sans-serif">2026-03-06</text>
<line x1="763.36" y1="600" x2="763.36" y2="606" stroke="#333" stroke-width="1"/>
<text x="763.36" y="624" text-anchor="end" font-size="11" fill="#111" transform="rotate(-40 763.36,624)" font-family="sans-serif">2026-03-11</text>
<line x1="898.03" y1="600" x2="898.03" y2="606" stroke="#333" stroke-width="1"/>
<text x="898.03" y="624" text-anchor="end" font-size="11" fill="#111" transform="rotate(-40 898.03,624)" font-family="sans-serif">2026-03-19</text>
<line x1="1032.70" y1="600" x2="1032.70" y2="606" stroke="#333" stroke-width="1"/>
<text x="1032.70" y="624" text-anchor="end" font-size="11" fill="#111" transform="rotate(-40 1032.70,624)" font-family="sans-serif">2026-03-29</text>
<line x1="1167.37" y1="600" x2="1167.37" y2="606" stroke="#333" stroke-width="1"/>
<text x="1167.37" y="624" text-anchor="end" font-size="11" fill="#111" transform="rotate(-40 1167.37,624)" font-family="sans-serif">2026-05-17</text>
<line x1="1180.00" y1="600" x2="1180.00" y2="606" stroke="#333" stroke-width="1"/>
<text x="1180.00" y="624" text-anchor="end" font-size="11" fill="#111" transform="rotate(-40 1180.00,624)" font-family="sans-serif">2026-06-07</text>
<line x1="90" y1="75.88" x2="1180" y2="75.88" stroke="#dc2626" stroke-width="1.5" stroke-dasharray="8,4"/>
<text x="1184" y="79.88" font-size="12" fill="#dc2626" font-family="sans-serif">Goal: 1296</text>
<polyline fill="none" stroke="#2563eb" stroke-width="3" points="90.00,540.55 92.10,538.53 94.21,536.91 96.31,534.49 98.42,534.49 100.52,533.27 102.63,532.46 104.73,532.87 106.83,532.06 108.94,532.46 111.04,532.06 113.15,568.46 115.25,568.46 117.36,566.43 119.46,545.00 121.56,545.00 123.67,544.19 125.77,543.79 127.88,543.79 129.98,543.38 132.08,541.76 134.19,541.36 136.29,540.96 138.40,540.96 140.50,539.34 142.61,539.34 144.71,556.73 146.81,556.73 148.92,555.51 151.02,551.07 153.13,538.93 155.23,538.93 157.34,538.93 159.44,538.12 161.54,536.91 163.65,536.91 165.75,536.51 167.86,536.51 169.96,556.73 172.07,556.73 174.17,556.73 176.27,556.73 178.38,535.29 180.48,535.29 182.59,535.29 184.69,535.29 186.80,534.49 188.90,534.08 191.00,533.68 193.11,532.87 195.21,532.06 197.32,532.06 199.42,531.25 201.53,530.85 203.63,530.44 205.73,530.04 207.84,530.04 209.94,529.23 212.05,529.23 214.15,529.23 216.25,528.42 218.36,528.42 220.46,527.61 222.57,527.21 224.67,526.80 226.78,526.40 228.88,525.18 230.98,523.57 233.09,523.57 235.19,523.16 237.30,522.76 239.40,522.35 241.51,521.54 243.61,519.52 245.71,517.50 247.82,517.50 249.92,517.50 252.03,517.50 254.13,517.50 256.24,517.50 258.34,517.10 260.44,516.69 262.55,515.48 264.65,515.07 266.76,514.67 268.86,513.86 270.97,514.26 273.07,512.24 275.17,511.84 277.28,511.84 279.38,511.03 281.49,509.82 283.59,507.79 285.69,506.99 287.80,506.58 289.90,509.41 292.01,509.01 294.11,504.96 296.22,504.56 298.32,504.15 300.42,504.56 302.53,503.75 304.63,503.75 306.74,503.35 308.84,499.30 310.95,496.47 313.05,490.00 315.15,484.34 317.26,481.10 319.36,480.29 321.47,480.70 323.57,460.88 325.68,459.26 327.78,458.05 329.88,456.03 331.99,456.03 334.09,454.41 336.20,450.77 338.30,444.30 340.41,443.90 342.51,600.00 344.61,441.88 346.72,440.66 348.82,439.45 350.93,439.04 353.03,438.64 355.14,437.83 357.24,436.62 359.34,436.62 361.45,434.60 363.55,432.17 365.66,429.34 367.76,428.93 369.86,428.53 371.97,427.72 374.07,426.91 376.18,426.10 378.28,426.10 380.39,426.10 382.49,419.63 384.59,419.23 386.70,418.42 388.80,418.01 390.91,417.61 393.01,417.61 395.12,417.61 397.22,417.21 399.32,417.21 401.43,413.57 403.53,411.95 405.64,412.76 407.74,410.74 409.85,410.74 411.95,410.33 414.05,410.33 416.16,410.33 418.26,409.93 420.37,409.93 422.47,409.93 424.58,409.52 426.68,409.52 428.78,409.12 430.89,409.52 432.99,409.12 435.10,407.50 437.20,407.10 439.31,403.05 441.41,399.82 443.51,400.22 445.62,400.62 447.72,400.62 449.83,399.41 451.93,392.94 454.03,391.32 456.14,389.30 458.24,389.30 460.35,388.49 462.45,375.15 464.56,374.74 466.66,374.74 468.76,374.74 470.87,374.74 472.97,374.34 475.08,374.34 477.18,374.34 479.29,374.34 481.39,374.34 483.49,373.93 485.60,373.12 487.70,372.72 489.81,373.53 491.91,435.81 494.02,372.32 496.12,372.72 498.22,371.91 500.33,371.91 502.43,372.32 504.54,371.10 506.64,369.89 508.75,369.89 510.85,369.89 512.95,369.49 515.06,369.89 517.16,369.08 519.27,368.68 521.37,368.27 523.47,367.87 525.58,367.06 527.68,367.46 529.79,367.06 531.89,366.25 534.00,368.27 536.10,368.68 538.20,368.68 540.31,368.27 542.41,369.08 544.52,367.87 546.62,367.46 548.73,367.06 550.83,360.18 552.93,359.78 555.04,359.38 557.14,356.95 559.25,357.35 561.35,357.76 563.46,355.33 565.56,355.74 567.66,357.35 569.77,355.33 571.87,356.14 573.98,355.74 576.08,356.14 578.19,354.12 580.29,354.93 582.39,356.14 584.50,354.52 586.60,353.71 588.71,354.12 590.81,354.93 592.92,352.90 595.02,353.71 597.12,353.31 599.23,353.31 601.33,354.52 603.44,352.90 605.54,352.50 607.64,352.50 609.75,353.31 611.85,352.50 613.96,353.71 616.06,354.12 618.17,352.50 620.27,352.90 622.37,352.50 624.48,352.10 626.58,351.69 628.69,352.10 630.79,354.12 632.90,352.50 635.00,352.10 637.10,352.10 639.21,349.67 641.31,349.67 643.42,350.88 645.52,351.29 647.63,350.48 649.73,352.10 651.83,350.48 653.94,350.48 656.04,350.48 658.15,350.07 660.25,348.46 662.36,351.29 664.46,349.67 666.56,351.29 668.67,349.67 670.77,348.86 672.88,348.46 674.98,348.46 677.08,347.24 679.19,348.86 681.29,346.84 683.40,348.46 685.50,348.86 687.61,346.84 689.71,349.26 691.81,348.05 693.92,349.26 696.02,349.26 698.13,350.48 700.23,352.90 702.34,349.67 704.44,348.46 706.54,345.62 708.65,344.82 710.75,344.41 712.86,342.39 714.96,341.18 717.07,341.58 719.17,339.15 721.27,338.35 723.38,337.54 725.48,336.73 727.59,335.92 729.69,337.54 731.80,338.35 733.90,337.54 736.00,337.54 738.11,337.54 740.21,333.09 742.32,333.90 744.42,335.92 746.53,336.73 748.63,335.51 750.73,332.28 752.84,331.47 754.94,331.07 757.05,331.47 759.15,331.07 761.25,331.07 763.36,331.07 765.46,331.07 767.57,331.07 769.67,331.07 771.78,331.07 773.88,331.07 775.98,331.07 778.09,331.07 780.19,331.47 782.30,331.88 784.40,331.07 786.51,331.47 788.61,331.07 790.71,331.47 792.82,331.07 794.92,324.19 797.03,324.19 799.13,318.93 801.24,316.51 803.34,310.44 805.44,308.01 807.55,600.00 809.65,301.54 811.76,290.22 813.86,287.79 815.97,286.18 818.07,285.77 820.17,285.77 822.28,285.77 824.38,286.18 826.49,285.77 828.59,285.77 830.69,285.77 832.80,283.35 834.90,282.94 837.01,282.94 839.11,283.35 841.22,282.94 843.32,282.94 845.42,283.75 847.53,282.13 849.63,282.13 851.74,282.54 853.84,282.13 855.95,282.54 858.05,282.94 860.15,281.73 862.26,282.54 864.36,281.73 866.47,282.54 868.57,282.13 870.68,282.13 872.78,281.73 874.88,281.73 876.99,281.32 879.09,281.73 881.20,282.13 883.30,281.32 885.41,281.32 887.51,282.54 889.61,282.13 891.72,281.32 893.82,281.32 895.93,281.32 898.03,282.54 900.14,282.13 902.24,281.32 904.34,282.13 906.45,281.73 908.55,282.13 910.66,280.11 912.76,280.11 914.86,280.51 916.97,279.71 919.07,280.11 921.18,280.51 923.28,279.71 925.39,280.11 927.49,280.11 929.59,279.30 931.70,278.90 933.80,278.90 935.91,280.51 938.01,279.30 940.12,278.09 942.22,278.49 944.32,278.49 946.43,277.28 948.53,277.68 950.64,277.68 952.74,278.09 954.85,277.28 956.95,600.00 959.05,278.90 961.16,279.30 963.26,278.90 965.37,278.49 967.47,278.49 969.58,278.49 971.68,278.49 973.78,278.49 975.89,278.49 977.99,278.49 980.10,278.49 982.20,278.49 984.31,278.49 986.41,278.49 988.51,278.49 990.62,600.00 992.72,600.00 994.83,254.63 996.93,600.00 999.03,245.74 1001.14,245.74 1003.24,246.14 1005.35,245.74 1007.45,245.74 1009.56,245.74 1011.66,245.74 1013.76,245.74 1015.87,240.07 1017.97,238.05 1020.08,238.05 1022.18,227.13 1024.29,227.13 1026.39,226.32 1028.49,227.54 1030.60,226.73 1032.70,226.32 1034.81,227.13 1036.91,227.13 1039.02,226.73 1041.12,226.32 1043.22,226.73 1045.33,226.73 1047.43,226.73 1049.54,225.11 1051.64,224.71 1053.75,225.11 1055.85,224.30 1057.95,226.32 1060.06,224.30 1062.16,225.51 1064.27,225.51 1066.37,225.51 1068.47,225.92 1070.58,223.09 1072.68,223.49 1074.79,223.09 1076.89,223.09 1079.00,223.90 1081.10,223.49 1083.20,223.49 1085.31,223.09 1087.41,223.09 1089.52,223.49 1091.62,223.09 1093.73,223.09 1095.83,223.49 1097.93,223.49 1100.04,223.09 1102.14,223.09 1104.25,223.49 1106.35,223.09 1108.46,223.09 1110.56,223.09 1112.66,223.49 1114.77,223.49 1116.87,223.49 1118.98,223.09 1121.08,223.49 1123.19,223.09 1125.29,223.09 1127.39,223.49 1129.50,223.09 1131.60,223.09 1133.71,223.49 1135.81,222.68 1137.92,221.88 1140.02,223.49 1142.12,223.09 1144.23,223.49 1146.33,224.30 1148.44,201.65 1150.54,201.65 1152.64,186.69 1154.75,176.18 1156.85,174.15 1158.96,172.94 1161.06,172.94 1163.17,162.02 1165.27,161.21 1167.37,148.27 1169.48,155.96 1171.58,139.78 1173.69,135.33 1175.79,147.06 1177.90,131.29 1180.00,119.56"/>
<circle cx="90.00" cy="540.55" r="3.2" fill="#1d4ed8"/>
<circle cx="92.10" cy="538.53" r="3.2" fill="#1d4ed8"/>
<circle cx="94.21" cy="536.91" r="3.2" fill="#1d4ed8"/>
<circle cx="96.31" cy="534.49" r="3.2" fill="#1d4ed8"/>
<circle cx="98.42" cy="534.49" r="3.2" fill="#1d4ed8"/>
<circle cx="100.52" cy="533.27" r="3.2" fill="#1d4ed8"/>
<circle cx="102.63" cy="532.46" r="3.2" fill="#1d4ed8"/>
<circle cx="104.73" cy="532.87" r="3.2" fill="#1d4ed8"/>
<circle cx="106.83" cy="532.06" r="3.2" fill="#1d4ed8"/>
<circle cx="108.94" cy="532.46" r="3.2" fill="#1d4ed8"/>
<circle cx="111.04" cy="532.06" r="3.2" fill="#1d4ed8"/>
<circle cx="113.15" cy="568.46" r="3.2" fill="#1d4ed8"/>
<circle cx="115.25" cy="568.46" r="3.2" fill="#1d4ed8"/>
<circle cx="117.36" cy="566.43" r="3.2" fill="#1d4ed8"/>
<circle cx="119.46" cy="545.00" r="3.2" fill="#1d4ed8"/>
<circle cx="121.56" cy="545.00" r="3.2" fill="#1d4ed8"/>
<circle cx="123.67" cy="544.19" r="3.2" fill="#1d4ed8"/>
<circle cx="125.77" cy="543.79" r="3.2" fill="#1d4ed8"/>
<circle cx="127.88" cy="543.79" r="3.2" fill="#1d4ed8"/>
<circle cx="129.98" cy="543.38" r="3.2" fill="#1d4ed8"/>
<circle cx="132.08" cy="541.76" r="3.2" fill="#1d4ed8"/>
<circle cx="134.19" cy="541.36" r="3.2" fill="#1d4ed8"/>
<circle cx="136.29" cy="540.96" r="3.2" fill="#1d4ed8"/>
<circle cx="138.40" cy="540.96" r="3.2" fill="#1d4ed8"/>
<circle cx="140.50" cy="539.34" r="3.2" fill="#1d4ed8"/>
<circle cx="142.61" cy="539.34" r="3.2" fill="#1d4ed8"/>
<circle cx="144.71" cy="556.73" r="3.2" fill="#1d4ed8"/>
<circle cx="146.81" cy="556.73" r="3.2" fill="#1d4ed8"/>
<circle cx="148.92" cy="555.51" r="3.2" fill="#1d4ed8"/>
<circle cx="151.02" cy="551.07" r="3.2" fill="#1d4ed8"/>
<circle cx="153.13" cy="538.93" r="3.2" fill="#1d4ed8"/>
<circle cx="155.23" cy="538.93" r="3.2" fill="#1d4ed8"/>
<circle cx="157.34" cy="538.93" r="3.2" fill="#1d4ed8"/>
<circle cx="159.44" cy="538.12" r="3.2" fill="#1d4ed8"/>
<circle cx="161.54" cy="536.91" r="3.2" fill="#1d4ed8"/>
<circle cx="163.65" cy="536.91" r="3.2" fill="#1d4ed8"/>
<circle cx="165.75" cy="536.51" r="3.2" fill="#1d4ed8"/>
<circle cx="167.86" cy="536.51" r="3.2" fill="#1d4ed8"/>
<circle cx="169.96" cy="556.73" r="3.2" fill="#1d4ed8"/>
<circle cx="172.07" cy="556.73" r="3.2" fill="#1d4ed8"/>
<circle cx="174.17" cy="556.73" r="3.2" fill="#1d4ed8"/>
<circle cx="176.27" cy="556.73" r="3.2" fill="#1d4ed8"/>
<circle cx="178.38" cy="535.29" r="3.2" fill="#1d4ed8"/>
<circle cx="180.48" cy="535.29" r="3.2" fill="#1d4ed8"/>
<circle cx="182.59" cy="535.29" r="3.2" fill="#1d4ed8"/>
<circle cx="184.69" cy="535.29" r="3.2" fill="#1d4ed8"/>
<circle cx="186.80" cy="534.49" r="3.2" fill="#1d4ed8"/>
<circle cx="188.90" cy="534.08" r="3.2" fill="#1d4ed8"/>
<circle cx="191.00" cy="533.68" r="3.2" fill="#1d4ed8"/>
<circle cx="193.11" cy="532.87" r="3.2" fill="#1d4ed8"/>
<circle cx="195.21" cy="532.06" r="3.2" fill="#1d4ed8"/>
<circle cx="197.32" cy="532.06" r="3.2" fill="#1d4ed8"/>
<circle cx="199.42" cy="531.25" r="3.2" fill="#1d4ed8"/>
<circle cx="201.53" cy="530.85" r="3.2" fill="#1d4ed8"/>
<circle cx="203.63" cy="530.44" r="3.2" fill="#1d4ed8"/>
<circle cx="205.73" cy="530.04" r="3.2" fill="#1d4ed8"/>
<circle cx="207.84" cy="530.04" r="3.2" fill="#1d4ed8"/>
<circle cx="209.94" cy="529.23" r="3.2" fill="#1d4ed8"/>
<circle cx="212.05" cy="529.23" r="3.2" fill="#1d4ed8"/>
<circle cx="214.15" cy="529.23" r="3.2" fill="#1d4ed8"/>
<circle cx="216.25" cy="528.42" r="3.2" fill="#1d4ed8"/>
<circle cx="218.36" cy="528.42" r="3.2" fill="#1d4ed8"/>
<circle cx="220.46" cy="527.61" r="3.2" fill="#1d4ed8"/>
<circle cx="222.57" cy="527.21" r="3.2" fill="#1d4ed8"/>
<circle cx="224.67" cy="526.80" r="3.2" fill="#1d4ed8"/>
<circle cx="226.78" cy="526.40" r="3.2" fill="#1d4ed8"/>
<circle cx="228.88" cy="525.18" r="3.2" fill="#1d4ed8"/>
<circle cx="230.98" cy="523.57" r="3.2" fill="#1d4ed8"/>
<circle cx="233.09" cy="523.57" r="3.2" fill="#1d4ed8"/>
<circle cx="235.19" cy="523.16" r="3.2" fill="#1d4ed8"/>
<circle cx="237.30" cy="522.76" r="3.2" fill="#1d4ed8"/>
<circle cx="239.40" cy="522.35" r="3.2" fill="#1d4ed8"/>
<circle cx="241.51" cy="521.54" r="3.2" fill="#1d4ed8"/>
<circle cx="243.61" cy="519.52" r="3.2" fill="#1d4ed8"/>
<circle cx="245.71" cy="517.50" r="3.2" fill="#1d4ed8"/>
<circle cx="247.82" cy="517.50" r="3.2" fill="#1d4ed8"/>
<circle cx="249.92" cy="517.50" r="3.2" fill="#1d4ed8"/>
<circle cx="252.03" cy="517.50" r="3.2" fill="#1d4ed8"/>
<circle cx="254.13" cy="517.50" r="3.2" fill="#1d4ed8"/>
<circle cx="256.24" cy="517.50" r="3.2" fill="#1d4ed8"/>
<circle cx="258.34" cy="517.10" r="3.2" fill="#1d4ed8"/>
<circle cx="260.44" cy="516.69" r="3.2" fill="#1d4ed8"/>
<circle cx="262.55" cy="515.48" r="3.2" fill="#1d4ed8"/>
<circle cx="264.65" cy="515.07" r="3.2" fill="#1d4ed8"/>
<circle cx="266.76" cy="514.67" r="3.2" fill="#1d4ed8"/>
<circle cx="268.86" cy="513.86" r="3.2" fill="#1d4ed8"/>
<circle cx="270.97" cy="514.26" r="3.2" fill="#1d4ed8"/>
<circle cx="273.07" cy="512.24" r="3.2" fill="#1d4ed8"/>
<circle cx="275.17" cy="511.84" r="3.2" fill="#1d4ed8"/>
<circle cx="277.28" cy="511.84" r="3.2" fill="#1d4ed8"/>
<circle cx="279.38" cy="511.03" r="3.2" fill="#1d4ed8"/>
<circle cx="281.49" cy="509.82" r="3.2" fill="#1d4ed8"/>
<circle cx="283.59" cy="507.79" r="3.2" fill="#1d4ed8"/>
<circle cx="285.69" cy="506.99" r="3.2" fill="#1d4ed8"/>
<circle cx="287.80" cy="506.58" r="3.2" fill="#1d4ed8"/>
<circle cx="289.90" cy="509.41" r="3.2" fill="#1d4ed8"/>
<circle cx="292.01" cy="509.01" r="3.2" fill="#1d4ed8"/>
<circle cx="294.11" cy="504.96" r="3.2" fill="#1d4ed8"/>
<circle cx="296.22" cy="504.56" r="3.2" fill="#1d4ed8"/>
<circle cx="298.32" cy="504.15" r="3.2" fill="#1d4ed8"/>
<circle cx="300.42" cy="504.56" r="3.2" fill="#1d4ed8"/>
<circle cx="302.53" cy="503.75" r="3.2" fill="#1d4ed8"/>
<circle cx="304.63" cy="503.75" r="3.2" fill="#1d4ed8"/>
<circle cx="306.74" cy="503.35" r="3.2" fill="#1d4ed8"/>
<circle cx="308.84" cy="499.30" r="3.2" fill="#1d4ed8"/>
<circle cx="310.95" cy="496.47" r="3.2" fill="#1d4ed8"/>
<circle cx="313.05" cy="490.00" r="3.2" fill="#1d4ed8"/>
<circle cx="315.15" cy="484.34" r="3.2" fill="#1d4ed8"/>
<circle cx="317.26" cy="481.10" r="3.2" fill="#1d4ed8"/>
<circle cx="319.36" cy="480.29" r="3.2" fill="#1d4ed8"/>
<circle cx="321.47" cy="480.70" r="3.2" fill="#1d4ed8"/>
<circle cx="323.57" cy="460.88" r="3.2" fill="#1d4ed8"/>
<circle cx="325.68" cy="459.26" r="3.2" fill="#1d4ed8"/>
<circle cx="327.78" cy="458.05" r="3.2" fill="#1d4ed8"/>
<circle cx="329.88" cy="456.03" r="3.2" fill="#1d4ed8"/>
<circle cx="331.99" cy="456.03" r="3.2" fill="#1d4ed8"/>
<circle cx="334.09" cy="454.41" r="3.2" fill="#1d4ed8"/>
<circle cx="336.20" cy="450.77" r="3.2" fill="#1d4ed8"/>
<circle cx="338.30" cy="444.30" r="3.2" fill="#1d4ed8"/>
<circle cx="340.41" cy="443.90" r="3.2" fill="#1d4ed8"/>
<circle cx="342.51" cy="600.00" r="3.2" fill="#1d4ed8"/>
<circle cx="344.61" cy="441.88" r="3.2" fill="#1d4ed8"/>
<circle cx="346.72" cy="440.66" r="3.2" fill="#1d4ed8"/>
<circle cx="348.82" cy="439.45" r="3.2" fill="#1d4ed8"/>
<circle cx="350.93" cy="439.04" r="3.2" fill="#1d4ed8"/>
<circle cx="353.03" cy="438.64" r="3.2" fill="#1d4ed8"/>
<circle cx="355.14" cy="437.83" r="3.2" fill="#1d4ed8"/>
<circle cx="357.24" cy="436.62" r="3.2" fill="#1d4ed8"/>
<circle cx="359.34" cy="436.62" r="3.2" fill="#1d4ed8"/>
<circle cx="361.45" cy="434.60" r="3.2" fill="#1d4ed8"/>
<circle cx="363.55" cy="432.17" r="3.2" fill="#1d4ed8"/>
<circle cx="365.66" cy="429.34" r="3.2" fill="#1d4ed8"/>
<circle cx="367.76" cy="428.93" r="3.2" fill="#1d4ed8"/>
<circle cx="369.86" cy="428.53" r="3.2" fill="#1d4ed8"/>
<circle cx="371.97" cy="427.72" r="3.2" fill="#1d4ed8"/>
<circle cx="374.07" cy="426.91" r="3.2" fill="#1d4ed8"/>
<circle cx="376.18" cy="426.10" r="3.2" fill="#1d4ed8"/>
<circle cx="378.28" cy="426.10" r="3.2" fill="#1d4ed8"/>
<circle cx="380.39" cy="426.10" r="3.2" fill="#1d4ed8"/>
<circle cx="382.49" cy="419.63" r="3.2" fill="#1d4ed8"/>
<circle cx="384.59" cy="419.23" r="3.2" fill="#1d4ed8"/>
<circle cx="386.70" cy="418.42" r="3.2" fill="#1d4ed8"/>
<circle cx="388.80" cy="418.01" r="3.2" fill="#1d4ed8"/>
<circle cx="390.91" cy="417.61" r="3.2" fill="#1d4ed8"/>
<circle cx="393.01" cy="417.61" r="3.2" fill="#1d4ed8"/>
<circle cx="395.12" cy="417.61" r="3.2" fill="#1d4ed8"/>
<circle cx="397.22" cy="417.21" r="3.2" fill="#1d4ed8"/>
<circle cx="399.32" cy="417.21" r="3.2" fill="#1d4ed8"/>
<circle cx="401.43" cy="413.57" r="3.2" fill="#1d4ed8"/>
<circle cx="403.53" cy="411.95" r="3.2" fill="#1d4ed8"/>
<circle cx="405.64" cy="412.76" r="3.2" fill="#1d4ed8"/>
<circle cx="407.74" cy="410.74" r="3.2" fill="#1d4ed8"/>
<circle cx="409.85" cy="410.74" r="3.2" fill="#1d4ed8"/>
<circle cx="411.95" cy="410.33" r="3.2" fill="#1d4ed8"/>
<circle cx="414.05" cy="410.33" r="3.2" fill="#1d4ed8"/>
<circle cx="416.16" cy="410.33" r="3.2" fill="#1d4ed8"/>
<circle cx="418.26" cy="409.93" r="3.2" fill="#1d4ed8"/>
<circle cx="420.37" cy="409.93" r="3.2" fill="#1d4ed8"/>
<circle cx="422.47" cy="409.93" r="3.2" fill="#1d4ed8"/>
<circle cx="424.58" cy="409.52" r="3.2" fill="#1d4ed8"/>
<circle cx="426.68" cy="409.52" r="3.2" fill="#1d4ed8"/>
<circle cx="428.78" cy="409.12" r="3.2" fill="#1d4ed8"/>
<circle cx="430.89" cy="409.52" r="3.2" fill="#1d4ed8"/>
<circle cx="432.99" cy="409.12" r="3.2" fill="#1d4ed8"/>
<circle cx="435.10" cy="407.50" r="3.2" fill="#1d4ed8"/>
<circle cx="437.20" cy="407.10" r="3.2" fill="#1d4ed8"/>
<circle cx="439.31" cy="403.05" r="3.2" fill="#1d4ed8"/>
<circle cx="441.41" cy="399.82" r="3.2" fill="#1d4ed8"/>
<circle cx="443.51" cy="400.22" r="3.2" fill="#1d4ed8"/>
<circle cx="445.62" cy="400.62" r="3.2" fill="#1d4ed8"/>
<circle cx="447.72" cy="400.62" r="3.2" fill="#1d4ed8"/>
<circle cx="449.83" cy="399.41" r="3.2" fill="#1d4ed8"/>
<circle cx="451.93" cy="392.94" r="3.2" fill="#1d4ed8"/>
<circle cx="454.03" cy="391.32" r="3.2" fill="#1d4ed8"/>
<circle cx="456.14" cy="389.30" r="3.2" fill="#1d4ed8"/>
<circle cx="458.24" cy="389.30" r="3.2" fill="#1d4ed8"/>
<circle cx="460.35" cy="388.49" r="3.2" fill="#1d4ed8"/>
<circle cx="462.45" cy="375.15" r="3.2" fill="#1d4ed8"/>
<circle cx="464.56" cy="374.74" r="3.2" fill="#1d4ed8"/>
<circle cx="466.66" cy="374.74" r="3.2" fill="#1d4ed8"/>
<circle cx="468.76" cy="374.74" r="3.2" fill="#1d4ed8"/>
<circle cx="470.87" cy="374.74" r="3.2" fill="#1d4ed8"/>
<circle cx="472.97" cy="374.34" r="3.2" fill="#1d4ed8"/>
<circle cx="475.08" cy="374.34" r="3.2" fill="#1d4ed8"/>
<circle cx="477.18" cy="374.34" r="3.2" fill="#1d4ed8"/>
<circle cx="479.29" cy="374.34" r="3.2" fill="#1d4ed8"/>
<circle cx="481.39" cy="374.34" r="3.2" fill="#1d4ed8"/>
<circle cx="483.49" cy="373.93" r="3.2" fill="#1d4ed8"/>
<circle cx="485.60" cy="373.12" r="3.2" fill="#1d4ed8"/>
<circle cx="487.70" cy="372.72" r="3.2" fill="#1d4ed8"/>
<circle cx="489.81" cy="373.53" r="3.2" fill="#1d4ed8"/>
<circle cx="491.91" cy="435.81" r="3.2" fill="#1d4ed8"/>
<circle cx="494.02" cy="372.32" r="3.2" fill="#1d4ed8"/>
<circle cx="496.12" cy="372.72" r="3.2" fill="#1d4ed8"/>
<circle cx="498.22" cy="371.91" r="3.2" fill="#1d4ed8"/>
<circle cx="500.33" cy="371.91" r="3.2" fill="#1d4ed8"/>
<circle cx="502.43" cy="372.32" r="3.2" fill="#1d4ed8"/>
<circle cx="504.54" cy="371.10" r="3.2" fill="#1d4ed8"/>
<circle cx="506.64" cy="369.89" r="3.2" fill="#1d4ed8"/>
<circle cx="508.75" cy="369.89" r="3.2" fill="#1d4ed8"/>
<circle cx="510.85" cy="369.89" r="3.2" fill="#1d4ed8"/>
<circle cx="512.95" cy="369.49" r="3.2" fill="#1d4ed8"/>
<circle cx="515.06" cy="369.89" r="3.2" fill="#1d4ed8"/>
<circle cx="517.16" cy="369.08" r="3.2" fill="#1d4ed8"/>
<circle cx="519.27" cy="368.68" r="3.2" fill="#1d4ed8"/>
<circle cx="521.37" cy="368.27" r="3.2" fill="#1d4ed8"/>
<circle cx="523.47" cy="367.87" r="3.2" fill="#1d4ed8"/>
<circle cx="525.58" cy="367.06" r="3.2" fill="#1d4ed8"/>
<circle cx="527.68" cy="367.46" r="3.2" fill="#1d4ed8"/>
<circle cx="529.79" cy="367.06" r="3.2" fill="#1d4ed8"/>
<circle cx="531.89" cy="366.25" r="3.2" fill="#1d4ed8"/>
<circle cx="534.00" cy="368.27" r="3.2" fill="#1d4ed8"/>
<circle cx="536.10" cy="368.68" r="3.2" fill="#1d4ed8"/>
<circle cx="538.20" cy="368.68" r="3.2" fill="#1d4ed8"/>
<circle cx="540.31" cy="368.27" r="3.2" fill="#1d4ed8"/>
<circle cx="542.41" cy="369.08" r="3.2" fill="#1d4ed8"/>
<circle cx="544.52" cy="367.87" r="3.2" fill="#1d4ed8"/>
<circle cx="546.62" cy="367.46" r="3.2" fill="#1d4ed8"/>
<circle cx="548.73" cy="367.06" r="3.2" fill="#1d4ed8"/>
<circle cx="550.83" cy="360.18" r="3.2" fill="#1d4ed8"/>
<circle cx="552.93" cy="359.78" r="3.2" fill="#1d4ed8"/>
<circle cx="555.04" cy="359.38" r="3.2" fill="#1d4ed8"/>
<circle cx="557.14" cy="356.95" r="3.2" fill="#1d4ed8"/>
<circle cx="559.25" cy="357.35" r="3.2" fill="#1d4ed8"/>
<circle cx="561.35" cy="357.76" r="3.2" fill="#1d4ed8"/>
<circle cx="563.46" cy="355.33" r="3.2" fill="#1d4ed8"/>
<circle cx="565.56" cy="355.74" r="3.2" fill="#1d4ed8"/>
<circle cx="567.66" cy="357.35" r="3.2" fill="#1d4ed8"/>
<circle cx="569.77" cy="355.33" r="3.2" fill="#1d4ed8"/>
<circle cx="571.87" cy="356.14" r="3.2" fill="#1d4ed8"/>
<circle cx="573.98" cy="355.74" r="3.2" fill="#1d4ed8"/>
<circle cx="576.08" cy="356.14" r="3.2" fill="#1d4ed8"/>
<circle cx="578.19" cy="354.12" r="3.2" fill="#1d4ed8"/>
<circle cx="580.29" cy="354.93" r="3.2" fill="#1d4ed8"/>
<circle cx="582.39" cy="356.14" r="3.2" fill="#1d4ed8"/>
<circle cx="584.50" cy="354.52" r="3.2" fill="#1d4ed8"/>
<circle cx="586.60" cy="353.71" r="3.2" fill="#1d4ed8"/>
<circle cx="588.71" cy="354.12" r="3.2" fill="#1d4ed8"/>
<circle cx="590.81" cy="354.93" r="3.2" fill="#1d4ed8"/>
<circle cx="592.92" cy="352.90" r="3.2" fill="#1d4ed8"/>
<circle cx="595.02" cy="353.71" r="3.2" fill="#1d4ed8"/>
<circle cx="597.12" cy="353.31" r="3.2" fill="#1d4ed8"/>
<circle cx="599.23" cy="353.31" r="3.2" fill="#1d4ed8"/>
<circle cx="601.33" cy="354.52" r="3.2" fill="#1d4ed8"/>
<circle cx="603.44" cy="352.90" r="3.2" fill="#1d4ed8"/>
<circle cx="605.54" cy="352.50" r="3.2" fill="#1d4ed8"/>
<circle cx="607.64" cy="352.50" r="3.2" fill="#1d4ed8"/>
<circle cx="609.75" cy="353.31" r="3.2" fill="#1d4ed8"/>
<circle cx="611.85" cy="352.50" r="3.2" fill="#1d4ed8"/>
<circle cx="613.96" cy="353.71" r="3.2" fill="#1d4ed8"/>
<circle cx="616.06" cy="354.12" r="3.2" fill="#1d4ed8"/>
<circle cx="618.17" cy="352.50" r="3.2" fill="#1d4ed8"/>
<circle cx="620.27" cy="352.90" r="3.2" fill="#1d4ed8"/>
<circle cx="622.37" cy="352.50" r="3.2" fill="#1d4ed8"/>
<circle cx="624.48" cy="352.10" r="3.2" fill="#1d4ed8"/>
<circle cx="626.58" cy="351.69" r="3.2" fill="#1d4ed8"/>
<circle cx="628.69" cy="352.10" r="3.2" fill="#1d4ed8"/>
<circle cx="630.79" cy="354.12" r="3.2" fill="#1d4ed8"/>
<circle cx="632.90" cy="352.50" r="3.2" fill="#1d4ed8"/>
<circle cx="635.00" cy="352.10" r="3.2" fill="#1d4ed8"/>
<circle cx="637.10" cy="352.10" r="3.2" fill="#1d4ed8"/>
<circle cx="639.21" cy="349.67" r="3.2" fill="#1d4ed8"/>
<circle cx="641.31" cy="349.67" r="3.2" fill="#1d4ed8"/>
<circle cx="643.42" cy="350.88" r="3.2" fill="#1d4ed8"/>
<circle cx="645.52" cy="351.29" r="3.2" fill="#1d4ed8"/>
<circle cx="647.63" cy="350.48" r="3.2" fill="#1d4ed8"/>
<circle cx="649.73" cy="352.10" r="3.2" fill="#1d4ed8"/>
<circle cx="651.83" cy="350.48" r="3.2" fill="#1d4ed8"/>
<circle cx="653.94" cy="350.48" r="3.2" fill="#1d4ed8"/>
<circle cx="656.04" cy="350.48" r="3.2" fill="#1d4ed8"/>
<circle cx="658.15" cy="350.07" r="3.2" fill="#1d4ed8"/>
<circle cx="660.25" cy="348.46" r="3.2" fill="#1d4ed8"/>
<circle cx="662.36" cy="351.29" r="3.2" fill="#1d4ed8"/>
<circle cx="664.46" cy="349.67" r="3.2" fill="#1d4ed8"/>
<circle cx="666.56" cy="351.29" r="3.2" fill="#1d4ed8"/>
<circle cx="668.67" cy="349.67" r="3.2" fill="#1d4ed8"/>
<circle cx="670.77" cy="348.86" r="3.2" fill="#1d4ed8"/>
<circle cx="672.88" cy="348.46" r="3.2" fill="#1d4ed8"/>
<circle cx="674.98" cy="348.46" r="3.2" fill="#1d4ed8"/>
<circle cx="677.08" cy="347.24" r="3.2" fill="#1d4ed8"/>
<circle cx="679.19" cy="348.86" r="3.2" fill="#1d4ed8"/>
<circle cx="681.29" cy="346.84" r="3.2" fill="#1d4ed8"/>
<circle cx="683.40" cy="348.46" r="3.2" fill="#1d4ed8"/>
<circle cx="685.50" cy="348.86" r="3.2" fill="#1d4ed8"/>
<circle cx="687.61" cy="346.84" r="3.2" fill="#1d4ed8"/>
<circle cx="689.71" cy="349.26" r="3.2" fill="#1d4ed8"/>
<circle cx="691.81" cy="348.05" r="3.2" fill="#1d4ed8"/>
<circle cx="693.92" cy="349.26" r="3.2" fill="#1d4ed8"/>
<circle cx="696.02" cy="349.26" r="3.2" fill="#1d4ed8"/>
<circle cx="698.13" cy="350.48" r="3.2" fill="#1d4ed8"/>
<circle cx="700.23" cy="352.90" r="3.2" fill="#1d4ed8"/>
<circle cx="702.34" cy="349.67" r="3.2" fill="#1d4ed8"/>
<circle cx="704.44" cy="348.46" r="3.2" fill="#1d4ed8"/>
<circle cx="706.54" cy="345.62" r="3.2" fill="#1d4ed8"/>
<circle cx="708.65" cy="344.82" r="3.2" fill="#1d4ed8"/>
<circle cx="710.75" cy="344.41" r="3.2" fill="#1d4ed8"/>
<circle cx="712.86" cy="342.39" r="3.2" fill="#1d4ed8"/>
<circle cx="714.96" cy="341.18" r="3.2" fill="#1d4ed8"/>
<circle cx="717.07" cy="341.58" r="3.2" fill="#1d4ed8"/>
<circle cx="719.17" cy="339.15" r="3.2" fill="#1d4ed8"/>
<circle cx="721.27" cy="338.35" r="3.2" fill="#1d4ed8"/>
<circle cx="723.38" cy="337.54" r="3.2" fill="#1d4ed8"/>
<circle cx="725.48" cy="336.73" r="3.2" fill="#1d4ed8"/>
<circle cx="727.59" cy="335.92" r="3.2" fill="#1d4ed8"/>
<circle cx="729.69" cy="337.54" r="3.2" fill="#1d4ed8"/>
<circle cx="731.80" cy="338.35" r="3.2" fill="#1d4ed8"/>
<circle cx="733.90" cy="337.54" r="3.2" fill="#1d4ed8"/>
<circle cx="736.00" cy="337.54" r="3.2" fill="#1d4ed8"/>
<circle cx="738.11" cy="337.54" r="3.2" fill="#1d4ed8"/>
<circle cx="740.21" cy="333.09" r="3.2" fill="#1d4ed8"/>
<circle cx="742.32" cy="333.90" r="3.2" fill="#1d4ed8"/>
<circle cx="744.42" cy="335.92" r="3.2" fill="#1d4ed8"/>
<circle cx="746.53" cy="336.73" r="3.2" fill="#1d4ed8"/>
<circle cx="748.63" cy="335.51" r="3.2" fill="#1d4ed8"/>
<circle cx="750.73" cy="332.28" r="3.2" fill="#1d4ed8"/>
<circle cx="752.84" cy="331.47" r="3.2" fill="#1d4ed8"/>
<circle cx="754.94" cy="331.07" r="3.2" fill="#1d4ed8"/>
<circle cx="757.05" cy="331.47" r="3.2" fill="#1d4ed8"/>
<circle cx="759.15" cy="331.07" r="3.2" fill="#1d4ed8"/>
<circle cx="761.25" cy="331.07" r="3.2" fill="#1d4ed8"/>
<circle cx="763.36" cy="331.07" r="3.2" fill="#1d4ed8"/>
<circle cx="765.46" cy="331.07" r="3.2" fill="#1d4ed8"/>
<circle cx="767.57" cy="331.07" r="3.2" fill="#1d4ed8"/>
<circle cx="769.67" cy="331.07" r="3.2" fill="#1d4ed8"/>
<circle cx="771.78" cy="331.07" r="3.2" fill="#1d4ed8"/>
<circle cx="773.88" cy="331.07" r="3.2" fill="#1d4ed8"/>
<circle cx="775.98" cy="331.07" r="3.2" fill="#1d4ed8"/>
<circle cx="778.09" cy="331.07" r="3.2" fill="#1d4ed8"/>
<circle cx="780.19" cy="331.47" r="3.2" fill="#1d4ed8"/>
<circle cx="782.30" cy="331.88" r="3.2" fill="#1d4ed8"/>
<circle cx="784.40" cy="331.07" r="3.2" fill="#1d4ed8"/>
<circle cx="786.51" cy="331.47" r="3.2" fill="#1d4ed8"/>
<circle cx="788.61" cy="331.07" r="3.2" fill="#1d4ed8"/>
<circle cx="790.71" cy="331.47" r="3.2" fill="#1d4ed8"/>
<circle cx="792.82" cy="331.07" r="3.2" fill="#1d4ed8"/>
<circle cx="794.92" cy="324.19" r="3.2" fill="#1d4ed8"/>
<circle cx="797.03" cy="324.19" r="3.2" fill="#1d4ed8"/>
<circle cx="799.13" cy="318.93" r="3.2" fill="#1d4ed8"/>
<circle cx="801.24" cy="316.51" r="3.2" fill="#1d4ed8"/>
<circle cx="803.34" cy="310.44" r="3.2" fill="#1d4ed8"/>
<circle cx="805.44" cy="308.01" r="3.2" fill="#1d4ed8"/>
<circle cx="807.55" cy="600.00" r="3.2" fill="#1d4ed8"/>
<circle cx="809.65" cy="301.54" r="3.2" fill="#1d4ed8"/>
<circle cx="811.76" cy="290.22" r="3.2" fill="#1d4ed8"/>
<circle cx="813.86" cy="287.79" r="3.2" fill="#1d4ed8"/>
<circle cx="815.97" cy="286.18" r="3.2" fill="#1d4ed8"/>
<circle cx="818.07" cy="285.77" r="3.2" fill="#1d4ed8"/>
<circle cx="820.17" cy="285.77" r="3.2" fill="#1d4ed8"/>
<circle cx="822.28" cy="285.77" r="3.2" fill="#1d4ed8"/>
<circle cx="824.38" cy="286.18" r="3.2" fill="#1d4ed8"/>
<circle cx="826.49" cy="285.77" r="3.2" fill="#1d4ed8"/>
<circle cx="828.59" cy="285.77" r="3.2" fill="#1d4ed8"/>
<circle cx="830.69" cy="285.77" r="3.2" fill="#1d4ed8"/>
<circle cx="832.80" cy="283.35" r="3.2" fill="#1d4ed8"/>
<circle cx="834.90" cy="282.94" r="3.2" fill="#1d4ed8"/>
<circle cx="837.01" cy="282.94" r="3.2" fill="#1d4ed8"/>
<circle cx="839.11" cy="283.35" r="3.2" fill="#1d4ed8"/>
<circle cx="841.22" cy="282.94" r="3.2" fill="#1d4ed8"/>
<circle cx="843.32" cy="282.94" r="3.2" fill="#1d4ed8"/>
<circle cx="845.42" cy="283.75" r="3.2" fill="#1d4ed8"/>
<circle cx="847.53" cy="282.13" r="3.2" fill="#1d4ed8"/>
<circle cx="849.63" cy="282.13" r="3.2" fill="#1d4ed8"/>
<circle cx="851.74" cy="282.54" r="3.2" fill="#1d4ed8"/>
<circle cx="853.84" cy="282.13" r="3.2" fill="#1d4ed8"/>
<circle cx="855.95" cy="282.54" r="3.2" fill="#1d4ed8"/>
<circle cx="858.05" cy="282.94" r="3.2" fill="#1d4ed8"/>
<circle cx="860.15" cy="281.73" r="3.2" fill="#1d4ed8"/>
<circle cx="862.26" cy="282.54" r="3.2" fill="#1d4ed8"/>
<circle cx="864.36" cy="281.73" r="3.2" fill="#1d4ed8"/>
<circle cx="866.47" cy="282.54" r="3.2" fill="#1d4ed8"/>
<circle cx="868.57" cy="282.13" r="3.2" fill="#1d4ed8"/>
<circle cx="870.68" cy="282.13" r="3.2" fill="#1d4ed8"/>
<circle cx="872.78" cy="281.73" r="3.2" fill="#1d4ed8"/>
<circle cx="874.88" cy="281.73" r="3.2" fill="#1d4ed8"/>
<circle cx="876.99" cy="281.32" r="3.2" fill="#1d4ed8"/>
<circle cx="879.09" cy="281.73" r="3.2" fill="#1d4ed8"/>
<circle cx="881.20" cy="282.13" r="3.2" fill="#1d4ed8"/>
<circle cx="883.30" cy="281.32" r="3.2" fill="#1d4ed8"/>
<circle cx="885.41" cy="281.32" r="3.2" fill="#1d4ed8"/>
<circle cx="887.51" cy="282.54" r="3.2" fill="#1d4ed8"/>
<circle cx="889.61" cy="282.13" r="3.2" fill="#1d4ed8"/>
<circle cx="891.72" cy="281.32" r="3.2" fill="#1d4ed8"/>
<circle cx="893.82" cy="281.32" r="3.2" fill="#1d4ed8"/>
<circle cx="895.93" cy="281.32" r="3.2" fill="#1d4ed8"/>
<circle cx="898.03" cy="282.54" r="3.2" fill="#1d4ed8"/>
<circle cx="900.14" cy="282.13" r="3.2" fill="#1d4ed8"/>
<circle cx="902.24" cy="281.32" r="3.2" fill="#1d4ed8"/>
<circle cx="904.34" cy="282.13" r="3.2" fill="#1d4ed8"/>
<circle cx="906.45" cy="281.73" r="3.2" fill="#1d4ed8"/>
<circle cx="908.55" cy="282.13" r="3.2" fill="#1d4ed8"/>
<circle cx="910.66" cy="280.11" r="3.2" fill="#1d4ed8"/>
<circle cx="912.76" cy="280.11" r="3.2" fill="#1d4ed8"/>
<circle cx="914.86" cy="280.51" r="3.2" fill="#1d4ed8"/>
<circle cx="916.97" cy="279.71" r="3.2" fill="#1d4ed8"/>
<circle cx="919.07" cy="280.11" r="3.2" fill="#1d4ed8"/>
<circle cx="921.18" cy="280.51" r="3.2" fill="#1d4ed8"/>
<circle cx="923.28" cy="279.71" r="3.2" fill="#1d4ed8"/>
<circle cx="925.39" cy="280.11" r="3.2" fill="#1d4ed8"/>
<circle cx="927.49" cy="280.11" r="3.2" fill="#1d4ed8"/>
<circle cx="929.59" cy="279.30" r="3.2" fill="#1d4ed8"/>
<circle cx="931.70" cy="278.90" r="3.2" fill="#1d4ed8"/>
<circle cx="933.80" cy="278.90" r="3.2" fill="#1d4ed8"/>
<circle cx="935.91" cy="280.51" r="3.2" fill="#1d4ed8"/>
<circle cx="938.01" cy="279.30" r="3.2" fill="#1d4ed8"/>
<circle cx="940.12" cy="278.09" r="3.2" fill="#1d4ed8"/>
<circle cx="942.22" cy="278.49" r="3.2" fill="#1d4ed8"/>
<circle cx="944.32" cy="278.49" r="3.2" fill="#1d4ed8"/>
<circle cx="946.43" cy="277.28" r="3.2" fill="#1d4ed8"/>
<circle cx="948.53" cy="277.68" r="3.2" fill="#1d4ed8"/>
<circle cx="950.64" cy="277.68" r="3.2" fill="#1d4ed8"/>
<circle cx="952.74" cy="278.09" r="3.2" fill="#1d4ed8"/>
<circle cx="954.85" cy="277.28" r="3.2" fill="#1d4ed8"/>
<circle cx="956.95" cy="600.00" r="3.2" fill="#1d4ed8"/>
<circle cx="959.05" cy="278.90" r="3.2" fill="#1d4ed8"/>
<circle cx="961.16" cy="279.30" r="3.2" fill="#1d4ed8"/>
<circle cx="963.26" cy="278.90" r="3.2" fill="#1d4ed8"/>
<circle cx="965.37" cy="278.49" r="3.2" fill="#1d4ed8"/>
<circle cx="967.47" cy="278.49" r="3.2" fill="#1d4ed8"/>
<circle cx="969.58" cy="278.49" r="3.2" fill="#1d4ed8"/>
<circle cx="971.68" cy="278.49" r="3.2" fill="#1d4ed8"/>
<circle cx="973.78" cy="278.49" r="3.2" fill="#1d4ed8"/>
<circle cx="975.89" cy="278.49" r="3.2" fill="#1d4ed8"/>
<circle cx="977.99" cy="278.49" r="3.2" fill="#1d4ed8"/>
<circle cx="980.10" cy="278.49" r="3.2" fill="#1d4ed8"/>
<circle cx="982.20" cy="278.49" r="3.2" fill="#1d4ed8"/>
<circle cx="984.31" cy="278.49" r="3.2" fill="#1d4ed8"/>
<circle cx="986.41" cy="278.49" r="3.2" fill="#1d4ed8"/>
<circle cx="988.51" cy="278.49" r="3.2" fill="#1d4ed8"/>
<circle cx="990.62" cy="600.00" r="3.2" fill="#1d4ed8"/>
<circle cx="992.72" cy="600.00" r="3.2" fill="#1d4ed8"/>
<circle cx="994.83" cy="254.63" r="3.2" fill="#1d4ed8"/>
<circle cx="996.93" cy="600.00" r="3.2" fill="#1d4ed8"/>
<circle cx="999.03" cy="245.74" r="3.2" fill="#1d4ed8"/>
<circle cx="1001.14" cy="245.74" r="3.2" fill="#1d4ed8"/>
<circle cx="1003.24" cy="246.14" r="3.2" fill="#1d4ed8"/>
<circle cx="1005.35" cy="245.74" r="3.2" fill="#1d4ed8"/>
<circle cx="1007.45" cy="245.74" r="3.2" fill="#1d4ed8"/>
<circle cx="1009.56" cy="245.74" r="3.2" fill="#1d4ed8"/>
<circle cx="1011.66" cy="245.74" r="3.2" fill="#1d4ed8"/>
<circle cx="1013.76" cy="245.74" r="3.2" fill="#1d4ed8"/>
<circle cx="1015.87" cy="240.07" r="3.2" fill="#1d4ed8"/>
<circle cx="1017.97" cy="238.05" r="3.2" fill="#1d4ed8"/>
<circle cx="1020.08" cy="238.05" r="3.2" fill="#1d4ed8"/>
<circle cx="1022.18" cy="227.13" r="3.2" fill="#1d4ed8"/>
<circle cx="1024.29" cy="227.13" r="3.2" fill="#1d4ed8"/>
<circle cx="1026.39" cy="226.32" r="3.2" fill="#1d4ed8"/>
<circle cx="1028.49" cy="227.54" r="3.2" fill="#1d4ed8"/>
<circle cx="1030.60" cy="226.73" r="3.2" fill="#1d4ed8"/>
<circle cx="1032.70" cy="226.32" r="3.2" fill="#1d4ed8"/>
<circle cx="1034.81" cy="227.13" r="3.2" fill="#1d4ed8"/>
<circle cx="1036.91" cy="227.13" r="3.2" fill="#1d4ed8"/>
<circle cx="1039.02" cy="226.73" r="3.2" fill="#1d4ed8"/>
<circle cx="1041.12" cy="226.32" r="3.2" fill="#1d4ed8"/>
<circle cx="1043.22" cy="226.73" r="3.2" fill="#1d4ed8"/>
<circle cx="1045.33" cy="226.73" r="3.2" fill="#1d4ed8"/>
<circle cx="1047.43" cy="226.73" r="3.2" fill="#1d4ed8"/>
<circle cx="1049.54" cy="225.11" r="3.2" fill="#1d4ed8"/>
<circle cx="1051.64" cy="224.71" r="3.2" fill="#1d4ed8"/>
<circle cx="1053.75" cy="225.11" r="3.2" fill="#1d4ed8"/>
<circle cx="1055.85" cy="224.30" r="3.2" fill="#1d4ed8"/>
<circle cx="1057.95" cy="226.32" r="3.2" fill="#1d4ed8"/>
<circle cx="1060.06" cy="224.30" r="3.2" fill="#1d4ed8"/>
<circle cx="1062.16" cy="225.51" r="3.2" fill="#1d4ed8"/>
<circle cx="1064.27" cy="225.51" r="3.2" fill="#1d4ed8"/>
<circle cx="1066.37" cy="225.51" r="3.2" fill="#1d4ed8"/>
<circle cx="1068.47" cy="225.92" r="3.2" fill="#1d4ed8"/>
<circle cx="1070.58" cy="223.09" r="3.2" fill="#1d4ed8"/>
<circle cx="1072.68" cy="223.49" r="3.2" fill="#1d4ed8"/>
<circle cx="1074.79" cy="223.09" r="3.2" fill="#1d4ed8"/>
<circle cx="1076.89" cy="223.09" r="3.2" fill="#1d4ed8"/>
<circle cx="1079.00" cy="223.90" r="3.2" fill="#1d4ed8"/>
<circle cx="1081.10" cy="223.49" r="3.2" fill="#1d4ed8"/>
<circle cx="1083.20" cy="223.49" r="3.2" fill="#1d4ed8"/>
<circle cx="1085.31" cy="223.09" r="3.2" fill="#1d4ed8"/>
<circle cx="1087.41" cy="223.09" r="3.2" fill="#1d4ed8"/>
<circle cx="1089.52" cy="223.49" r="3.2" fill="#1d4ed8"/>
<circle cx="1091.62" cy="223.09" r="3.2" fill="#1d4ed8"/>
<circle cx="1093.73" cy="223.09" r="3.2" fill="#1d4ed8"/>
<circle cx="1095.83" cy="223.49" r="3.2" fill="#1d4ed8"/>
<circle cx="1097.93" cy="223.49" r="3.2" fill="#1d4ed8"/>
<circle cx="1100.04" cy="223.09" r="3.2" fill="#1d4ed8"/>
<circle cx="1102.14" cy="223.09" r="3.2" fill="#1d4ed8"/>
<circle cx="1104.25" cy="223.49" r="3.2" fill="#1d4ed8"/>
<circle cx="1106.35" cy="223.09" r="3.2" fill="#1d4ed8"/>
<circle cx="1108.46" cy="223.09" r="3.2" fill="#1d4ed8"/>
<circle cx="1110.56" cy="223.09" r="3.2" fill="#1d4ed8"/>
<circle cx="1112.66" cy="223.49" r="3.2" fill="#1d4ed8"/>
<circle cx="1114.77" cy="223.49" r="3.2" fill="#1d4ed8"/>
<circle cx="1116.87" cy="223.49" r="3.2" fill="#1d4ed8"/>
<circle cx="1118.98" cy="223.09" r="3.2" fill="#1d4ed8"/>
<circle cx="1121.08" cy="223.49" r="3.2" fill="#1d4ed8"/>
<circle cx="1123.19" cy="223.09" r="3.2" fill="#1d4ed8"/>
<circle cx="1125.29" cy="223.09" r="3.2" fill="#1d4ed8"/>
<circle cx="1127.39" cy="223.49" r="3.2" fill="#1d4ed8"/>
<circle cx="1129.50" cy="223.09" r="3.2" fill="#1d4ed8"/>
<circle cx="1131.60" cy="223.09" r="3.2" fill="#1d4ed8"/>
<circle cx="1133.71" cy="223.49" r="3.2" fill="#1d4ed8"/>
<circle cx="1135.81" cy="222.68" r="3.2" fill="#1d4ed8"/>
<circle cx="1137.92" cy="221.88" r="3.2" fill="#1d4ed8"/>
<circle cx="1140.02" cy="223.49" r="3.2" fill="#1d4ed8"/>
<circle cx="1142.12" cy="223.09" r="3.2" fill="#1d4ed8"/>
<circle cx="1144.23" cy="223.49" r="3.2" fill="#1d4ed8"/>
<circle cx="1146.33" cy="224.30" r="3.2" fill="#1d4ed8"/>
<circle cx="1148.44" cy="201.65" r="3.2" fill="#1d4ed8"/>
<circle cx="1150.54" cy="201.65" r="3.2" fill="#1d4ed8"/>
<circle cx="1152.64" cy="186.69" r="3.2" fill="#1d4ed8"/>
<circle cx="1154.75" cy="176.18" r="3.2" fill="#1d4ed8"/>
<circle cx="1156.85" cy="174.15" r="3.2" fill="#1d4ed8"/>
<circle cx="1158.96" cy="172.94" r="3.2" fill="#1d4ed8"/>
<circle cx="1161.06" cy="172.94" r="3.2" fill="#1d4ed8"/>
<circle cx="1163.17" cy="162.02" r="3.2" fill="#1d4ed8"/>
<circle cx="1165.27" cy="161.21" r="3.2" fill="#1d4ed8"/>
<circle cx="1167.37" cy="148.27" r="3.2" fill="#1d4ed8"/>
<circle cx="1169.48" cy="155.96" r="3.2" fill="#1d4ed8"/>
<circle cx="1171.58" cy="139.78" r="3.2" fill="#1d4ed8"/>
<circle cx="1173.69" cy="135.33" r="3.2" fill="#1d4ed8"/>
<circle cx="1175.79" cy="147.06" r="3.2" fill="#1d4ed8"/>
<circle cx="1177.90" cy="131.29" r="3.2" fill="#1d4ed8"/>
<circle cx="1180.00" cy="119.56" r="3.2" fill="#1d4ed8"/>
<text x="635" y="695" text-anchor="middle" font-size="14" fill="#111" font-family="sans-serif">Date</text>
<text x="24" y="325" text-anchor="middle" font-size="14" fill="#111" transform="rotate(-90 24,325)" font-family="sans-serif">Passed files</text>
</svg>
