<?xml version="1.0" encoding="UTF-8"?>
<svg xmlns="http://www.w3.org/2000/svg" width="1280" height="720" viewBox="0 0 1280 720">
<rect width="100%" height="100%" fill="#ffffff"/>
<text x="640" y="30" text-anchor="middle" font-size="22" font-family="sans-serif">Roast passed files history</text>
<line x1="90" y1="600" x2="1180" y2="600" stroke="#333" stroke-width="1.5"/>
<line x1="90" y1="50" x2="90" y2="600" stroke="#333" stroke-width="1.5"/>
<line x1="90" y1="600.00" x2="1180" y2="600.00" stroke="#e5e7eb" stroke-width="1"/>
<text x="78" y="605.00" text-anchor="end" font-size="12" fill="#111" font-family="sans-serif">0</text>
<line x1="90" y1="398.09" x2="1180" y2="398.09" stroke="#e5e7eb" stroke-width="1"/>
<text x="78" y="403.09" text-anchor="end" font-size="12" fill="#111" font-family="sans-serif">500</text>
<line x1="90" y1="196.18" x2="1180" y2="196.18" stroke="#e5e7eb" stroke-width="1"/>
<text x="78" y="201.18" text-anchor="end" font-size="12" fill="#111" font-family="sans-serif">1000</text>
<line x1="90.00" y1="600" x2="90.00" y2="606" stroke="#333" stroke-width="1"/>
<text x="90.00" y="624" text-anchor="end" font-size="11" fill="#111" transform="rotate(-40 90.00,624)" font-family="sans-serif">2026-02-12</text>
<line x1="225.26" y1="600" x2="225.26" y2="606" stroke="#333" stroke-width="1"/>
<text x="225.26" y="624" text-anchor="end" font-size="11" fill="#111" transform="rotate(-40 225.26,624)" font-family="sans-serif">2026-02-15</text>
<line x1="360.51" y1="600" x2="360.51" y2="606" stroke="#333" stroke-width="1"/>
<text x="360.51" y="624" text-anchor="end" font-size="11" fill="#111" transform="rotate(-40 360.51,624)" font-family="sans-serif">2026-02-17</text>
<line x1="495.77" y1="600" x2="495.77" y2="606" stroke="#333" stroke-width="1"/>
<text x="495.77" y="624" text-anchor="end" font-size="11" fill="#111" transform="rotate(-40 495.77,624)" font-family="sans-serif">2026-02-18</text>
<line x1="631.02" y1="600" x2="631.02" y2="606" stroke="#333" stroke-width="1"/>
<text x="631.02" y="624" text-anchor="end" font-size="11" fill="#111" transform="rotate(-40 631.02,624)" font-family="sans-serif">2026-02-19</text>
<line x1="766.28" y1="600" x2="766.28" y2="606" stroke="#333" stroke-width="1"/>
<text x="766.28" y="624" text-anchor="end" font-size="11" fill="#111" transform="rotate(-40 766.28,624)" font-family="sans-serif">2026-02-21</text>
<line x1="901.53" y1="600" x2="901.53" y2="606" stroke="#333" stroke-width="1"/>
<text x="901.53" y="624" text-anchor="end" font-size="11" fill="#111" transform="rotate(-40 901.53,624)" font-family="sans-serif">2026-02-23</text>
<line x1="1036.79" y1="600" x2="1036.79" y2="606" stroke="#333" stroke-width="1"/>
<text x="1036.79" y="624" text-anchor="end" font-size="11" fill="#111" transform="rotate(-40 1036.79,624)" font-family="sans-serif">2026-02-25</text>
<line x1="1172.04" y1="600" x2="1172.04" y2="606" stroke="#333" stroke-width="1"/>
<text x="1172.04" y="624" text-anchor="end" font-size="11" fill="#111" transform="rotate(-40 1172.04,624)" font-family="sans-serif">2026-02-25</text>
<line x1="1180.00" y1="600" x2="1180.00" y2="606" stroke="#333" stroke-width="1"/>
<text x="1180.00" y="624" text-anchor="end" font-size="11" fill="#111" transform="rotate(-40 1180.00,624)" font-family="sans-serif">2026-02-25</text>
<line x1="90" y1="75.84" x2="1180" y2="75.84" stroke="#dc2626" stroke-width="1.5" stroke-dasharray="8,4"/>
<text x="1184" y="79.84" font-size="12" fill="#dc2626" font-family="sans-serif">Goal: 1298</text>
<polyline fill="none" stroke="#2563eb" stroke-width="3" points="90.00,540.64 97.96,538.62 105.91,537.00 113.87,534.58 121.82,534.58 129.78,533.37 137.74,532.56 145.69,532.97 153.65,532.16 161.61,532.56 169.56,532.16 177.52,568.50 185.47,568.50 193.43,566.48 201.39,545.08 209.34,545.08 217.30,544.27 225.26,543.87 233.21,543.87 241.17,543.47 249.12,541.85 257.08,541.45 265.04,541.04 272.99,541.04 280.95,539.43 288.91,539.43 296.86,556.79 304.82,556.79 312.77,555.58 320.73,551.14 328.69,539.02 336.64,539.02 344.60,539.02 352.55,538.22 360.51,537.00 368.47,537.00 376.42,536.60 384.38,536.60 392.34,556.79 400.29,556.79 408.25,556.79 416.20,556.79 424.16,535.39 432.12,535.39 440.07,535.39 448.03,535.39 455.99,534.58 463.94,534.18 471.90,533.77 479.85,532.97 487.81,532.16 495.77,532.16 503.72,531.35 511.68,530.95 519.64,530.54 527.59,530.14 535.55,530.14 543.50,529.33 551.46,529.33 559.42,529.33 567.37,528.52 575.33,528.52 583.28,527.72 591.24,527.31 599.20,526.91 607.15,526.51 615.11,525.29 623.07,523.68 631.02,523.68 638.98,523.27 646.93,522.87 654.89,522.47 662.85,521.66 670.80,519.64 678.76,517.62 686.72,517.62 694.67,517.62 702.63,517.62 710.58,517.62 718.54,517.62 726.50,517.22 734.45,516.81 742.41,515.60 750.36,515.20 758.32,514.79 766.28,513.99 774.23,514.39 782.19,512.37 790.15,511.97 798.10,511.97 806.06,511.16 814.01,509.95 821.97,507.93 829.93,507.12 837.88,506.72 845.84,509.54 853.80,509.14 861.75,505.10 869.71,504.70 877.66,504.30 885.62,504.70 893.58,503.89 901.53,503.89 909.49,503.49 917.45,499.45 925.40,496.62 933.36,490.16 941.31,484.51 949.27,481.28 957.23,480.47 965.18,480.87 973.14,461.09 981.09,459.47 989.05,458.26 997.01,456.24 1004.96,456.24 1012.92,454.63 1020.88,450.99 1028.83,444.53 1036.79,444.13 1044.74,600.00 1052.70,442.11 1060.66,440.90 1068.61,439.68 1076.57,439.28 1084.53,438.88 1092.48,438.07 1100.44,436.86 1108.39,436.86 1116.35,434.84 1124.31,432.42 1132.26,429.59 1140.22,429.19 1148.18,428.78 1156.13,427.97 1164.09,427.17 1172.04,426.36 1180.00,425.95"/>
<circle cx="90.00" cy="540.64" r="3.2" fill="#1d4ed8"/>
<circle cx="97.96" cy="538.62" r="3.2" fill="#1d4ed8"/>
<circle cx="105.91" cy="537.00" r="3.2" fill="#1d4ed8"/>
<circle cx="113.87" cy="534.58" r="3.2" fill="#1d4ed8"/>
<circle cx="121.82" cy="534.58" r="3.2" fill="#1d4ed8"/>
<circle cx="129.78" cy="533.37" r="3.2" fill="#1d4ed8"/>
<circle cx="137.74" cy="532.56" r="3.2" fill="#1d4ed8"/>
<circle cx="145.69" cy="532.97" r="3.2" fill="#1d4ed8"/>
<circle cx="153.65" cy="532.16" r="3.2" fill="#1d4ed8"/>
<circle cx="161.61" cy="532.56" r="3.2" fill="#1d4ed8"/>
<circle cx="169.56" cy="532.16" r="3.2" fill="#1d4ed8"/>
<circle cx="177.52" cy="568.50" r="3.2" fill="#1d4ed8"/>
<circle cx="185.47" cy="568.50" r="3.2" fill="#1d4ed8"/>
<circle cx="193.43" cy="566.48" r="3.2" fill="#1d4ed8"/>
<circle cx="201.39" cy="545.08" r="3.2" fill="#1d4ed8"/>
<circle cx="209.34" cy="545.08" r="3.2" fill="#1d4ed8"/>
<circle cx="217.30" cy="544.27" r="3.2" fill="#1d4ed8"/>
<circle cx="225.26" cy="543.87" r="3.2" fill="#1d4ed8"/>
<circle cx="233.21" cy="543.87" r="3.2" fill="#1d4ed8"/>
<circle cx="241.17" cy="543.47" r="3.2" fill="#1d4ed8"/>
<circle cx="249.12" cy="541.85" r="3.2" fill="#1d4ed8"/>
<circle cx="257.08" cy="541.45" r="3.2" fill="#1d4ed8"/>
<circle cx="265.04" cy="541.04" r="3.2" fill="#1d4ed8"/>
<circle cx="272.99" cy="541.04" r="3.2" fill="#1d4ed8"/>
<circle cx="280.95" cy="539.43" r="3.2" fill="#1d4ed8"/>
<circle cx="288.91" cy="539.43" r="3.2" fill="#1d4ed8"/>
<circle cx="296.86" cy="556.79" r="3.2" fill="#1d4ed8"/>
<circle cx="304.82" cy="556.79" r="3.2" fill="#1d4ed8"/>
<circle cx="312.77" cy="555.58" r="3.2" fill="#1d4ed8"/>
<circle cx="320.73" cy="551.14" r="3.2" fill="#1d4ed8"/>
<circle cx="328.69" cy="539.02" r="3.2" fill="#1d4ed8"/>
<circle cx="336.64" cy="539.02" r="3.2" fill="#1d4ed8"/>
<circle cx="344.60" cy="539.02" r="3.2" fill="#1d4ed8"/>
<circle cx="352.55" cy="538.22" r="3.2" fill="#1d4ed8"/>
<circle cx="360.51" cy="537.00" r="3.2" fill="#1d4ed8"/>
<circle cx="368.47" cy="537.00" r="3.2" fill="#1d4ed8"/>
<circle cx="376.42" cy="536.60" r="3.2" fill="#1d4ed8"/>
<circle cx="384.38" cy="536.60" r="3.2" fill="#1d4ed8"/>
<circle cx="392.34" cy="556.79" r="3.2" fill="#1d4ed8"/>
<circle cx="400.29" cy="556.79" r="3.2" fill="#1d4ed8"/>
<circle cx="408.25" cy="556.79" r="3.2" fill="#1d4ed8"/>
<circle cx="416.20" cy="556.79" r="3.2" fill="#1d4ed8"/>
<circle cx="424.16" cy="535.39" r="3.2" fill="#1d4ed8"/>
<circle cx="432.12" cy="535.39" r="3.2" fill="#1d4ed8"/>
<circle cx="440.07" cy="535.39" r="3.2" fill="#1d4ed8"/>
<circle cx="448.03" cy="535.39" r="3.2" fill="#1d4ed8"/>
<circle cx="455.99" cy="534.58" r="3.2" fill="#1d4ed8"/>
<circle cx="463.94" cy="534.18" r="3.2" fill="#1d4ed8"/>
<circle cx="471.90" cy="533.77" r="3.2" fill="#1d4ed8"/>
<circle cx="479.85" cy="532.97" r="3.2" fill="#1d4ed8"/>
<circle cx="487.81" cy="532.16" r="3.2" fill="#1d4ed8"/>
<circle cx="495.77" cy="532.16" r="3.2" fill="#1d4ed8"/>
<circle cx="503.72" cy="531.35" r="3.2" fill="#1d4ed8"/>
<circle cx="511.68" cy="530.95" r="3.2" fill="#1d4ed8"/>
<circle cx="519.64" cy="530.54" r="3.2" fill="#1d4ed8"/>
<circle cx="527.59" cy="530.14" r="3.2" fill="#1d4ed8"/>
<circle cx="535.55" cy="530.14" r="3.2" fill="#1d4ed8"/>
<circle cx="543.50" cy="529.33" r="3.2" fill="#1d4ed8"/>
<circle cx="551.46" cy="529.33" r="3.2" fill="#1d4ed8"/>
<circle cx="559.42" cy="529.33" r="3.2" fill="#1d4ed8"/>
<circle cx="567.37" cy="528.52" r="3.2" fill="#1d4ed8"/>
<circle cx="575.33" cy="528.52" r="3.2" fill="#1d4ed8"/>
<circle cx="583.28" cy="527.72" r="3.2" fill="#1d4ed8"/>
<circle cx="591.24" cy="527.31" r="3.2" fill="#1d4ed8"/>
<circle cx="599.20" cy="526.91" r="3.2" fill="#1d4ed8"/>
<circle cx="607.15" cy="526.51" r="3.2" fill="#1d4ed8"/>
<circle cx="615.11" cy="525.29" r="3.2" fill="#1d4ed8"/>
<circle cx="623.07" cy="523.68" r="3.2" fill="#1d4ed8"/>
<circle cx="631.02" cy="523.68" r="3.2" fill="#1d4ed8"/>
<circle cx="638.98" cy="523.27" r="3.2" fill="#1d4ed8"/>
<circle cx="646.93" cy="522.87" r="3.2" fill="#1d4ed8"/>
<circle cx="654.89" cy="522.47" r="3.2" fill="#1d4ed8"/>
<circle cx="662.85" cy="521.66" r="3.2" fill="#1d4ed8"/>
<circle cx="670.80" cy="519.64" r="3.2" fill="#1d4ed8"/>
<circle cx="678.76" cy="517.62" r="3.2" fill="#1d4ed8"/>
<circle cx="686.72" cy="517.62" r="3.2" fill="#1d4ed8"/>
<circle cx="694.67" cy="517.62" r="3.2" fill="#1d4ed8"/>
<circle cx="702.63" cy="517.62" r="3.2" fill="#1d4ed8"/>
<circle cx="710.58" cy="517.62" r="3.2" fill="#1d4ed8"/>
<circle cx="718.54" cy="517.62" r="3.2" fill="#1d4ed8"/>
<circle cx="726.50" cy="517.22" r="3.2" fill="#1d4ed8"/>
<circle cx="734.45" cy="516.81" r="3.2" fill="#1d4ed8"/>
<circle cx="742.41" cy="515.60" r="3.2" fill="#1d4ed8"/>
<circle cx="750.36" cy="515.20" r="3.2" fill="#1d4ed8"/>
<circle cx="758.32" cy="514.79" r="3.2" fill="#1d4ed8"/>
<circle cx="766.28" cy="513.99" r="3.2" fill="#1d4ed8"/>
<circle cx="774.23" cy="514.39" r="3.2" fill="#1d4ed8"/>
<circle cx="782.19" cy="512.37" r="3.2" fill="#1d4ed8"/>
<circle cx="790.15" cy="511.97" r="3.2" fill="#1d4ed8"/>
<circle cx="798.10" cy="511.97" r="3.2" fill="#1d4ed8"/>
<circle cx="806.06" cy="511.16" r="3.2" fill="#1d4ed8"/>
<circle cx="814.01" cy="509.95" r="3.2" fill="#1d4ed8"/>
<circle cx="821.97" cy="507.93" r="3.2" fill="#1d4ed8"/>
<circle cx="829.93" cy="507.12" r="3.2" fill="#1d4ed8"/>
<circle cx="837.88" cy="506.72" r="3.2" fill="#1d4ed8"/>
<circle cx="845.84" cy="509.54" r="3.2" fill="#1d4ed8"/>
<circle cx="853.80" cy="509.14" r="3.2" fill="#1d4ed8"/>
<circle cx="861.75" cy="505.10" r="3.2" fill="#1d4ed8"/>
<circle cx="869.71" cy="504.70" r="3.2" fill="#1d4ed8"/>
<circle cx="877.66" cy="504.30" r="3.2" fill="#1d4ed8"/>
<circle cx="885.62" cy="504.70" r="3.2" fill="#1d4ed8"/>
<circle cx="893.58" cy="503.89" r="3.2" fill="#1d4ed8"/>
<circle cx="901.53" cy="503.89" r="3.2" fill="#1d4ed8"/>
<circle cx="909.49" cy="503.49" r="3.2" fill="#1d4ed8"/>
<circle cx="917.45" cy="499.45" r="3.2" fill="#1d4ed8"/>
<circle cx="925.40" cy="496.62" r="3.2" fill="#1d4ed8"/>
<circle cx="933.36" cy="490.16" r="3.2" fill="#1d4ed8"/>
<circle cx="941.31" cy="484.51" r="3.2" fill="#1d4ed8"/>
<circle cx="949.27" cy="481.28" r="3.2" fill="#1d4ed8"/>
<circle cx="957.23" cy="480.47" r="3.2" fill="#1d4ed8"/>
<circle cx="965.18" cy="480.87" r="3.2" fill="#1d4ed8"/>
<circle cx="973.14" cy="461.09" r="3.2" fill="#1d4ed8"/>
<circle cx="981.09" cy="459.47" r="3.2" fill="#1d4ed8"/>
<circle cx="989.05" cy="458.26" r="3.2" fill="#1d4ed8"/>
<circle cx="997.01" cy="456.24" r="3.2" fill="#1d4ed8"/>
<circle cx="1004.96" cy="456.24" r="3.2" fill="#1d4ed8"/>
<circle cx="1012.92" cy="454.63" r="3.2" fill="#1d4ed8"/>
<circle cx="1020.88" cy="450.99" r="3.2" fill="#1d4ed8"/>
<circle cx="1028.83" cy="444.53" r="3.2" fill="#1d4ed8"/>
<circle cx="1036.79" cy="444.13" r="3.2" fill="#1d4ed8"/>
<circle cx="1044.74" cy="600.00" r="3.2" fill="#1d4ed8"/>
<circle cx="1052.70" cy="442.11" r="3.2" fill="#1d4ed8"/>
<circle cx="1060.66" cy="440.90" r="3.2" fill="#1d4ed8"/>
<circle cx="1068.61" cy="439.68" r="3.2" fill="#1d4ed8"/>
<circle cx="1076.57" cy="439.28" r="3.2" fill="#1d4ed8"/>
<circle cx="1084.53" cy="438.88" r="3.2" fill="#1d4ed8"/>
<circle cx="1092.48" cy="438.07" r="3.2" fill="#1d4ed8"/>
<circle cx="1100.44" cy="436.86" r="3.2" fill="#1d4ed8"/>
<circle cx="1108.39" cy="436.86" r="3.2" fill="#1d4ed8"/>
<circle cx="1116.35" cy="434.84" r="3.2" fill="#1d4ed8"/>
<circle cx="1124.31" cy="432.42" r="3.2" fill="#1d4ed8"/>
<circle cx="1132.26" cy="429.59" r="3.2" fill="#1d4ed8"/>
<circle cx="1140.22" cy="429.19" r="3.2" fill="#1d4ed8"/>
<circle cx="1148.18" cy="428.78" r="3.2" fill="#1d4ed8"/>
<circle cx="1156.13" cy="427.97" r="3.2" fill="#1d4ed8"/>
<circle cx="1164.09" cy="427.17" r="3.2" fill="#1d4ed8"/>
<circle cx="1172.04" cy="426.36" r="3.2" fill="#1d4ed8"/>
<circle cx="1180.00" cy="425.95" r="3.2" fill="#1d4ed8"/>
<text x="635" y="695" text-anchor="middle" font-size="14" fill="#111" font-family="sans-serif">Date</text>
<text x="24" y="325" text-anchor="middle" font-size="14" fill="#111" transform="rotate(-90 24,325)" font-family="sans-serif">Passed files</text>
</svg>
