<?xml version="1.0" encoding="UTF-8"?>
<svg xmlns="http://www.w3.org/2000/svg" width="1280" height="720" viewBox="0 0 1280 720">
<rect width="100%" height="100%" fill="#ffffff"/>
<text x="640" y="30" text-anchor="middle" font-size="22" font-family="sans-serif">Roast passed files history</text>
<line x1="90" y1="600" x2="1180" y2="600" stroke="#333" stroke-width="1.5"/>
<line x1="90" y1="50" x2="90" y2="600" stroke="#333" stroke-width="1.5"/>
<line x1="90" y1="600.00" x2="1180" y2="600.00" stroke="#e5e7eb" stroke-width="1"/>
<text x="78" y="605.00" text-anchor="end" font-size="12" fill="#111" font-family="sans-serif">0</text>
<line x1="90" y1="397.79" x2="1180" y2="397.79" stroke="#e5e7eb" stroke-width="1"/>
<text x="78" y="402.79" text-anchor="end" font-size="12" fill="#111" font-family="sans-serif">500</text>
<line x1="90" y1="195.59" x2="1180" y2="195.59" stroke="#e5e7eb" stroke-width="1"/>
<text x="78" y="200.59" text-anchor="end" font-size="12" fill="#111" font-family="sans-serif">1000</text>
<line x1="90.00" y1="600" x2="90.00" y2="606" stroke="#333" stroke-width="1"/>
<text x="90.00" y="624" text-anchor="end" font-size="11" fill="#111" transform="rotate(-40 90.00,624)" font-family="sans-serif">2026-02-12</text>
<line x1="226.25" y1="600" x2="226.25" y2="606" stroke="#333" stroke-width="1"/>
<text x="226.25" y="624" text-anchor="end" font-size="11" fill="#111" transform="rotate(-40 226.25,624)" font-family="sans-serif">2026-02-18</text>
<line x1="362.50" y1="600" x2="362.50" y2="606" stroke="#333" stroke-width="1"/>
<text x="362.50" y="624" text-anchor="end" font-size="11" fill="#111" transform="rotate(-40 362.50,624)" font-family="sans-serif">2026-02-24</text>
<line x1="498.75" y1="600" x2="498.75" y2="606" stroke="#333" stroke-width="1"/>
<text x="498.75" y="624" text-anchor="end" font-size="11" fill="#111" transform="rotate(-40 498.75,624)" font-family="sans-serif">2026-02-27</text>
<line x1="635.00" y1="600" x2="635.00" y2="606" stroke="#333" stroke-width="1"/>
<text x="635.00" y="624" text-anchor="end" font-size="11" fill="#111" transform="rotate(-40 635.00,624)" font-family="sans-serif">2026-03-06</text>
<line x1="771.25" y1="600" x2="771.25" y2="606" stroke="#333" stroke-width="1"/>
<text x="771.25" y="624" text-anchor="end" font-size="11" fill="#111" transform="rotate(-40 771.25,624)" font-family="sans-serif">2026-03-07</text>
<line x1="907.50" y1="600" x2="907.50" y2="606" stroke="#333" stroke-width="1"/>
<text x="907.50" y="624" text-anchor="end" font-size="11" fill="#111" transform="rotate(-40 907.50,624)" font-family="sans-serif">2026-03-17</text>
<line x1="1043.75" y1="600" x2="1043.75" y2="606" stroke="#333" stroke-width="1"/>
<text x="1043.75" y="624" text-anchor="end" font-size="11" fill="#111" transform="rotate(-40 1043.75,624)" font-family="sans-serif">2026-03-19</text>
<line x1="1180.00" y1="600" x2="1180.00" y2="606" stroke="#333" stroke-width="1"/>
<text x="1180.00" y="624" text-anchor="end" font-size="11" fill="#111" transform="rotate(-40 1180.00,624)" font-family="sans-serif">2026-03-30</text>
<line x1="90" y1="75.88" x2="1180" y2="75.88" stroke="#dc2626" stroke-width="1.5" stroke-dasharray="8,4"/>
<text x="1184" y="79.88" font-size="12" fill="#dc2626" font-family="sans-serif">Goal: 1296</text>
<polyline fill="none" stroke="#2563eb" stroke-width="3" points="90.00,540.55 92.39,538.53 94.78,536.91 97.17,534.49 99.56,534.49 101.95,533.27 104.34,532.46 106.73,532.87 109.12,532.06 111.51,532.46 113.90,532.06 116.29,568.46 118.68,568.46 121.07,566.43 123.46,545.00 125.86,545.00 128.25,544.19 130.64,543.79 133.03,543.79 135.42,543.38 137.81,541.76 140.20,541.36 142.59,540.96 144.98,540.96 147.37,539.34 149.76,539.34 152.15,556.73 154.54,556.73 156.93,555.51 159.32,551.07 161.71,538.93 164.10,538.93 166.49,538.93 168.88,538.12 171.27,536.91 173.66,536.91 176.05,536.51 178.44,536.51 180.83,556.73 183.22,556.73 185.61,556.73 188.00,556.73 190.39,535.29 192.79,535.29 195.18,535.29 197.57,535.29 199.96,534.49 202.35,534.08 204.74,533.68 207.13,532.87 209.52,532.06 211.91,532.06 214.30,531.25 216.69,530.85 219.08,530.44 221.47,530.04 223.86,530.04 226.25,529.23 228.64,529.23 231.03,529.23 233.42,528.42 235.81,528.42 238.20,527.61 240.59,527.21 242.98,526.80 245.37,526.40 247.76,525.18 250.15,523.57 252.54,523.57 254.93,523.16 257.32,522.76 259.71,522.35 262.11,521.54 264.50,519.52 266.89,517.50 269.28,517.50 271.67,517.50 274.06,517.50 276.45,517.50 278.84,517.50 281.23,517.10 283.62,516.69 286.01,515.48 288.40,515.07 290.79,514.67 293.18,513.86 295.57,514.26 297.96,512.24 300.35,511.84 302.74,511.84 305.13,511.03 307.52,509.82 309.91,507.79 312.30,506.99 314.69,506.58 317.08,509.41 319.47,509.01 321.86,504.96 324.25,504.56 326.64,504.15 329.04,504.56 331.43,503.75 333.82,503.75 336.21,503.35 338.60,499.30 340.99,496.47 343.38,490.00 345.77,484.34 348.16,481.10 350.55,480.29 352.94,480.70 355.33,460.88 357.72,459.26 360.11,458.05 362.50,456.03 364.89,456.03 367.28,454.41 369.67,450.77 372.06,444.30 374.45,443.90 376.84,600.00 379.23,441.88 381.62,440.66 384.01,439.45 386.40,439.04 388.79,438.64 391.18,437.83 393.57,436.62 395.96,436.62 398.36,434.60 400.75,432.17 403.14,429.34 405.53,428.93 407.92,428.53 410.31,427.72 412.70,426.91 415.09,426.10 417.48,426.10 419.87,426.10 422.26,419.63 424.65,419.23 427.04,418.42 429.43,418.01 431.82,417.61 434.21,417.61 436.60,417.61 438.99,417.21 441.38,417.21 443.77,413.57 446.16,411.95 448.55,412.76 450.94,410.74 453.33,410.74 455.72,410.33 458.11,410.33 460.50,410.33 462.89,409.93 465.29,409.93 467.68,409.93 470.07,409.52 472.46,409.52 474.85,409.12 477.24,409.52 479.63,409.12 482.02,407.50 484.41,407.10 486.80,403.05 489.19,399.82 491.58,400.22 493.97,400.62 496.36,400.62 498.75,399.41 501.14,392.94 503.53,391.32 505.92,389.30 508.31,389.30 510.70,388.49 513.09,375.15 515.48,374.74 517.87,374.74 520.26,374.74 522.65,374.74 525.04,374.34 527.43,374.34 529.82,374.34 532.21,374.34 534.61,374.34 537.00,373.93 539.39,373.12 541.78,372.72 544.17,373.53 546.56,435.81 548.95,372.32 551.34,372.72 553.73,371.91 556.12,371.91 558.51,372.32 560.90,371.10 563.29,369.89 565.68,369.89 568.07,369.89 570.46,369.49 572.85,369.89 575.24,369.08 577.63,368.68 580.02,368.27 582.41,367.87 584.80,367.06 587.19,367.46 589.58,367.06 591.97,366.25 594.36,368.27 596.75,368.68 599.14,368.68 601.54,368.27 603.93,369.08 606.32,367.87 608.71,367.46 611.10,367.06 613.49,360.18 615.88,359.78 618.27,359.38 620.66,356.95 623.05,357.35 625.44,357.76 627.83,355.33 630.22,355.74 632.61,357.35 635.00,355.33 637.39,356.14 639.78,355.74 642.17,356.14 644.56,354.12 646.95,354.93 649.34,356.14 651.73,354.52 654.12,353.71 656.51,354.12 658.90,354.93 661.29,352.90 663.68,353.71 666.07,353.31 668.46,353.31 670.86,354.52 673.25,352.90 675.64,352.50 678.03,352.50 680.42,353.31 682.81,352.50 685.20,353.71 687.59,354.12 689.98,352.50 692.37,352.90 694.76,352.50 697.15,352.10 699.54,351.69 701.93,352.10 704.32,354.12 706.71,352.50 709.10,352.10 711.49,352.10 713.88,349.67 716.27,349.67 718.66,350.88 721.05,351.29 723.44,350.48 725.83,352.10 728.22,350.48 730.61,350.48 733.00,350.48 735.39,350.07 737.79,348.46 740.18,351.29 742.57,349.67 744.96,351.29 747.35,349.67 749.74,348.86 752.13,348.46 754.52,348.46 756.91,347.24 759.30,348.86 761.69,346.84 764.08,348.46 766.47,348.86 768.86,346.84 771.25,349.26 773.64,348.05 776.03,349.26 778.42,349.26 780.81,350.48 783.20,352.90 785.59,349.67 787.98,348.46 790.37,345.62 792.76,344.82 795.15,344.41 797.54,342.39 799.93,341.18 802.32,341.58 804.71,339.15 807.11,338.35 809.50,337.54 811.89,336.73 814.28,335.92 816.67,337.54 819.06,338.35 821.45,337.54 823.84,337.54 826.23,337.54 828.62,333.09 831.01,333.90 833.40,335.92 835.79,336.73 838.18,335.51 840.57,332.28 842.96,331.47 845.35,331.07 847.74,331.47 850.13,331.07 852.52,331.07 854.91,331.07 857.30,331.07 859.69,331.07 862.08,331.07 864.47,331.07 866.86,331.07 869.25,331.07 871.64,331.07 874.04,331.47 876.43,331.88 878.82,331.07 881.21,331.47 883.60,331.07 885.99,331.47 888.38,331.07 890.77,324.19 893.16,324.19 895.55,318.93 897.94,316.51 900.33,310.44 902.72,308.01 905.11,600.00 907.50,301.54 909.89,290.22 912.28,287.79 914.67,286.18 917.06,285.77 919.45,285.77 921.84,285.77 924.23,286.18 926.62,285.77 929.01,285.77 931.40,285.77 933.79,283.35 936.18,282.94 938.57,282.94 940.96,283.35 943.36,282.94 945.75,282.94 948.14,283.75 950.53,282.13 952.92,282.13 955.31,282.54 957.70,282.13 960.09,282.54 962.48,282.94 964.87,281.73 967.26,282.54 969.65,281.73 972.04,282.54 974.43,282.13 976.82,282.13 979.21,281.73 981.60,281.73 983.99,281.32 986.38,281.73 988.77,282.13 991.16,281.32 993.55,281.32 995.94,282.54 998.33,282.13 1000.72,281.32 1003.11,281.32 1005.50,281.32 1007.89,282.54 1010.29,282.13 1012.68,281.32 1015.07,282.13 1017.46,281.73 1019.85,282.13 1022.24,280.11 1024.63,280.11 1027.02,280.51 1029.41,279.71 1031.80,280.11 1034.19,280.51 1036.58,279.71 1038.97,280.11 1041.36,280.11 1043.75,279.30 1046.14,278.90 1048.53,278.90 1050.92,280.51 1053.31,279.30 1055.70,278.09 1058.09,278.49 1060.48,278.49 1062.87,277.28 1065.26,277.68 1067.65,277.68 1070.04,278.09 1072.43,277.28 1074.82,600.00 1077.21,278.90 1079.61,279.30 1082.00,278.90 1084.39,278.49 1086.78,278.49 1089.17,278.49 1091.56,278.49 1093.95,278.49 1096.34,278.49 1098.73,278.49 1101.12,278.49 1103.51,278.49 1105.90,278.49 1108.29,278.49 1110.68,278.49 1113.07,600.00 1115.46,600.00 1117.85,254.63 1120.24,600.00 1122.63,245.74 1125.02,245.74 1127.41,246.14 1129.80,245.74 1132.19,245.74 1134.58,245.74 1136.97,245.74 1139.36,245.74 1141.75,240.07 1144.14,238.05 1146.54,238.05 1148.93,227.13 1151.32,227.13 1153.71,226.32 1156.10,227.54 1158.49,226.73 1160.88,226.32 1163.27,227.13 1165.66,227.13 1168.05,226.73 1170.44,226.32 1172.83,226.73 1175.22,226.73 1177.61,226.73 1180.00,225.11"/>
<circle cx="90.00" cy="540.55" r="3.2" fill="#1d4ed8"/>
<circle cx="92.39" cy="538.53" r="3.2" fill="#1d4ed8"/>
<circle cx="94.78" cy="536.91" r="3.2" fill="#1d4ed8"/>
<circle cx="97.17" cy="534.49" r="3.2" fill="#1d4ed8"/>
<circle cx="99.56" cy="534.49" r="3.2" fill="#1d4ed8"/>
<circle cx="101.95" cy="533.27" r="3.2" fill="#1d4ed8"/>
<circle cx="104.34" cy="532.46" r="3.2" fill="#1d4ed8"/>
<circle cx="106.73" cy="532.87" r="3.2" fill="#1d4ed8"/>
<circle cx="109.12" cy="532.06" r="3.2" fill="#1d4ed8"/>
<circle cx="111.51" cy="532.46" r="3.2" fill="#1d4ed8"/>
<circle cx="113.90" cy="532.06" r="3.2" fill="#1d4ed8"/>
<circle cx="116.29" cy="568.46" r="3.2" fill="#1d4ed8"/>
<circle cx="118.68" cy="568.46" r="3.2" fill="#1d4ed8"/>
<circle cx="121.07" cy="566.43" r="3.2" fill="#1d4ed8"/>
<circle cx="123.46" cy="545.00" r="3.2" fill="#1d4ed8"/>
<circle cx="125.86" cy="545.00" r="3.2" fill="#1d4ed8"/>
<circle cx="128.25" cy="544.19" r="3.2" fill="#1d4ed8"/>
<circle cx="130.64" cy="543.79" r="3.2" fill="#1d4ed8"/>
<circle cx="133.03" cy="543.79" r="3.2" fill="#1d4ed8"/>
<circle cx="135.42" cy="543.38" r="3.2" fill="#1d4ed8"/>
<circle cx="137.81" cy="541.76" r="3.2" fill="#1d4ed8"/>
<circle cx="140.20" cy="541.36" r="3.2" fill="#1d4ed8"/>
<circle cx="142.59" cy="540.96" r="3.2" fill="#1d4ed8"/>
<circle cx="144.98" cy="540.96" r="3.2" fill="#1d4ed8"/>
<circle cx="147.37" cy="539.34" r="3.2" fill="#1d4ed8"/>
<circle cx="149.76" cy="539.34" r="3.2" fill="#1d4ed8"/>
<circle cx="152.15" cy="556.73" r="3.2" fill="#1d4ed8"/>
<circle cx="154.54" cy="556.73" r="3.2" fill="#1d4ed8"/>
<circle cx="156.93" cy="555.51" r="3.2" fill="#1d4ed8"/>
<circle cx="159.32" cy="551.07" r="3.2" fill="#1d4ed8"/>
<circle cx="161.71" cy="538.93" r="3.2" fill="#1d4ed8"/>
<circle cx="164.10" cy="538.93" r="3.2" fill="#1d4ed8"/>
<circle cx="166.49" cy="538.93" r="3.2" fill="#1d4ed8"/>
<circle cx="168.88" cy="538.12" r="3.2" fill="#1d4ed8"/>
<circle cx="171.27" cy="536.91" r="3.2" fill="#1d4ed8"/>
<circle cx="173.66" cy="536.91" r="3.2" fill="#1d4ed8"/>
<circle cx="176.05" cy="536.51" r="3.2" fill="#1d4ed8"/>
<circle cx="178.44" cy="536.51" r="3.2" fill="#1d4ed8"/>
<circle cx="180.83" cy="556.73" r="3.2" fill="#1d4ed8"/>
<circle cx="183.22" cy="556.73" r="3.2" fill="#1d4ed8"/>
<circle cx="185.61" cy="556.73" r="3.2" fill="#1d4ed8"/>
<circle cx="188.00" cy="556.73" r="3.2" fill="#1d4ed8"/>
<circle cx="190.39" cy="535.29" r="3.2" fill="#1d4ed8"/>
<circle cx="192.79" cy="535.29" r="3.2" fill="#1d4ed8"/>
<circle cx="195.18" cy="535.29" r="3.2" fill="#1d4ed8"/>
<circle cx="197.57" cy="535.29" r="3.2" fill="#1d4ed8"/>
<circle cx="199.96" cy="534.49" r="3.2" fill="#1d4ed8"/>
<circle cx="202.35" cy="534.08" r="3.2" fill="#1d4ed8"/>
<circle cx="204.74" cy="533.68" r="3.2" fill="#1d4ed8"/>
<circle cx="207.13" cy="532.87" r="3.2" fill="#1d4ed8"/>
<circle cx="209.52" cy="532.06" r="3.2" fill="#1d4ed8"/>
<circle cx="211.91" cy="532.06" r="3.2" fill="#1d4ed8"/>
<circle cx="214.30" cy="531.25" r="3.2" fill="#1d4ed8"/>
<circle cx="216.69" cy="530.85" r="3.2" fill="#1d4ed8"/>
<circle cx="219.08" cy="530.44" r="3.2" fill="#1d4ed8"/>
<circle cx="221.47" cy="530.04" r="3.2" fill="#1d4ed8"/>
<circle cx="223.86" cy="530.04" r="3.2" fill="#1d4ed8"/>
<circle cx="226.25" cy="529.23" r="3.2" fill="#1d4ed8"/>
<circle cx="228.64" cy="529.23" r="3.2" fill="#1d4ed8"/>
<circle cx="231.03" cy="529.23" r="3.2" fill="#1d4ed8"/>
<circle cx="233.42" cy="528.42" r="3.2" fill="#1d4ed8"/>
<circle cx="235.81" cy="528.42" r="3.2" fill="#1d4ed8"/>
<circle cx="238.20" cy="527.61" r="3.2" fill="#1d4ed8"/>
<circle cx="240.59" cy="527.21" r="3.2" fill="#1d4ed8"/>
<circle cx="242.98" cy="526.80" r="3.2" fill="#1d4ed8"/>
<circle cx="245.37" cy="526.40" r="3.2" fill="#1d4ed8"/>
<circle cx="247.76" cy="525.18" r="3.2" fill="#1d4ed8"/>
<circle cx="250.15" cy="523.57" r="3.2" fill="#1d4ed8"/>
<circle cx="252.54" cy="523.57" r="3.2" fill="#1d4ed8"/>
<circle cx="254.93" cy="523.16" r="3.2" fill="#1d4ed8"/>
<circle cx="257.32" cy="522.76" r="3.2" fill="#1d4ed8"/>
<circle cx="259.71" cy="522.35" r="3.2" fill="#1d4ed8"/>
<circle cx="262.11" cy="521.54" r="3.2" fill="#1d4ed8"/>
<circle cx="264.50" cy="519.52" r="3.2" fill="#1d4ed8"/>
<circle cx="266.89" cy="517.50" r="3.2" fill="#1d4ed8"/>
<circle cx="269.28" cy="517.50" r="3.2" fill="#1d4ed8"/>
<circle cx="271.67" cy="517.50" r="3.2" fill="#1d4ed8"/>
<circle cx="274.06" cy="517.50" r="3.2" fill="#1d4ed8"/>
<circle cx="276.45" cy="517.50" r="3.2" fill="#1d4ed8"/>
<circle cx="278.84" cy="517.50" r="3.2" fill="#1d4ed8"/>
<circle cx="281.23" cy="517.10" r="3.2" fill="#1d4ed8"/>
<circle cx="283.62" cy="516.69" r="3.2" fill="#1d4ed8"/>
<circle cx="286.01" cy="515.48" r="3.2" fill="#1d4ed8"/>
<circle cx="288.40" cy="515.07" r="3.2" fill="#1d4ed8"/>
<circle cx="290.79" cy="514.67" r="3.2" fill="#1d4ed8"/>
<circle cx="293.18" cy="513.86" r="3.2" fill="#1d4ed8"/>
<circle cx="295.57" cy="514.26" r="3.2" fill="#1d4ed8"/>
<circle cx="297.96" cy="512.24" r="3.2" fill="#1d4ed8"/>
<circle cx="300.35" cy="511.84" r="3.2" fill="#1d4ed8"/>
<circle cx="302.74" cy="511.84" r="3.2" fill="#1d4ed8"/>
<circle cx="305.13" cy="511.03" r="3.2" fill="#1d4ed8"/>
<circle cx="307.52" cy="509.82" r="3.2" fill="#1d4ed8"/>
<circle cx="309.91" cy="507.79" r="3.2" fill="#1d4ed8"/>
<circle cx="312.30" cy="506.99" r="3.2" fill="#1d4ed8"/>
<circle cx="314.69" cy="506.58" r="3.2" fill="#1d4ed8"/>
<circle cx="317.08" cy="509.41" r="3.2" fill="#1d4ed8"/>
<circle cx="319.47" cy="509.01" r="3.2" fill="#1d4ed8"/>
<circle cx="321.86" cy="504.96" r="3.2" fill="#1d4ed8"/>
<circle cx="324.25" cy="504.56" r="3.2" fill="#1d4ed8"/>
<circle cx="326.64" cy="504.15" r="3.2" fill="#1d4ed8"/>
<circle cx="329.04" cy="504.56" r="3.2" fill="#1d4ed8"/>
<circle cx="331.43" cy="503.75" r="3.2" fill="#1d4ed8"/>
<circle cx="333.82" cy="503.75" r="3.2" fill="#1d4ed8"/>
<circle cx="336.21" cy="503.35" r="3.2" fill="#1d4ed8"/>
<circle cx="338.60" cy="499.30" r="3.2" fill="#1d4ed8"/>
<circle cx="340.99" cy="496.47" r="3.2" fill="#1d4ed8"/>
<circle cx="343.38" cy="490.00" r="3.2" fill="#1d4ed8"/>
<circle cx="345.77" cy="484.34" r="3.2" fill="#1d4ed8"/>
<circle cx="348.16" cy="481.10" r="3.2" fill="#1d4ed8"/>
<circle cx="350.55" cy="480.29" r="3.2" fill="#1d4ed8"/>
<circle cx="352.94" cy="480.70" r="3.2" fill="#1d4ed8"/>
<circle cx="355.33" cy="460.88" r="3.2" fill="#1d4ed8"/>
<circle cx="357.72" cy="459.26" r="3.2" fill="#1d4ed8"/>
<circle cx="360.11" cy="458.05" r="3.2" fill="#1d4ed8"/>
<circle cx="362.50" cy="456.03" r="3.2" fill="#1d4ed8"/>
<circle cx="364.89" cy="456.03" r="3.2" fill="#1d4ed8"/>
<circle cx="367.28" cy="454.41" r="3.2" fill="#1d4ed8"/>
<circle cx="369.67" cy="450.77" r="3.2" fill="#1d4ed8"/>
<circle cx="372.06" cy="444.30" r="3.2" fill="#1d4ed8"/>
<circle cx="374.45" cy="443.90" r="3.2" fill="#1d4ed8"/>
<circle cx="376.84" cy="600.00" r="3.2" fill="#1d4ed8"/>
<circle cx="379.23" cy="441.88" r="3.2" fill="#1d4ed8"/>
<circle cx="381.62" cy="440.66" r="3.2" fill="#1d4ed8"/>
<circle cx="384.01" cy="439.45" r="3.2" fill="#1d4ed8"/>
<circle cx="386.40" cy="439.04" r="3.2" fill="#1d4ed8"/>
<circle cx="388.79" cy="438.64" r="3.2" fill="#1d4ed8"/>
<circle cx="391.18" cy="437.83" r="3.2" fill="#1d4ed8"/>
<circle cx="393.57" cy="436.62" r="3.2" fill="#1d4ed8"/>
<circle cx="395.96" cy="436.62" r="3.2" fill="#1d4ed8"/>
<circle cx="398.36" cy="434.60" r="3.2" fill="#1d4ed8"/>
<circle cx="400.75" cy="432.17" r="3.2" fill="#1d4ed8"/>
<circle cx="403.14" cy="429.34" r="3.2" fill="#1d4ed8"/>
<circle cx="405.53" cy="428.93" r="3.2" fill="#1d4ed8"/>
<circle cx="407.92" cy="428.53" r="3.2" fill="#1d4ed8"/>
<circle cx="410.31" cy="427.72" r="3.2" fill="#1d4ed8"/>
<circle cx="412.70" cy="426.91" r="3.2" fill="#1d4ed8"/>
<circle cx="415.09" cy="426.10" r="3.2" fill="#1d4ed8"/>
<circle cx="417.48" cy="426.10" r="3.2" fill="#1d4ed8"/>
<circle cx="419.87" cy="426.10" r="3.2" fill="#1d4ed8"/>
<circle cx="422.26" cy="419.63" r="3.2" fill="#1d4ed8"/>
<circle cx="424.65" cy="419.23" r="3.2" fill="#1d4ed8"/>
<circle cx="427.04" cy="418.42" r="3.2" fill="#1d4ed8"/>
<circle cx="429.43" cy="418.01" r="3.2" fill="#1d4ed8"/>
<circle cx="431.82" cy="417.61" r="3.2" fill="#1d4ed8"/>
<circle cx="434.21" cy="417.61" r="3.2" fill="#1d4ed8"/>
<circle cx="436.60" cy="417.61" r="3.2" fill="#1d4ed8"/>
<circle cx="438.99" cy="417.21" r="3.2" fill="#1d4ed8"/>
<circle cx="441.38" cy="417.21" r="3.2" fill="#1d4ed8"/>
<circle cx="443.77" cy="413.57" r="3.2" fill="#1d4ed8"/>
<circle cx="446.16" cy="411.95" r="3.2" fill="#1d4ed8"/>
<circle cx="448.55" cy="412.76" r="3.2" fill="#1d4ed8"/>
<circle cx="450.94" cy="410.74" r="3.2" fill="#1d4ed8"/>
<circle cx="453.33" cy="410.74" r="3.2" fill="#1d4ed8"/>
<circle cx="455.72" cy="410.33" r="3.2" fill="#1d4ed8"/>
<circle cx="458.11" cy="410.33" r="3.2" fill="#1d4ed8"/>
<circle cx="460.50" cy="410.33" r="3.2" fill="#1d4ed8"/>
<circle cx="462.89" cy="409.93" r="3.2" fill="#1d4ed8"/>
<circle cx="465.29" cy="409.93" r="3.2" fill="#1d4ed8"/>
<circle cx="467.68" cy="409.93" r="3.2" fill="#1d4ed8"/>
<circle cx="470.07" cy="409.52" r="3.2" fill="#1d4ed8"/>
<circle cx="472.46" cy="409.52" r="3.2" fill="#1d4ed8"/>
<circle cx="474.85" cy="409.12" r="3.2" fill="#1d4ed8"/>
<circle cx="477.24" cy="409.52" r="3.2" fill="#1d4ed8"/>
<circle cx="479.63" cy="409.12" r="3.2" fill="#1d4ed8"/>
<circle cx="482.02" cy="407.50" r="3.2" fill="#1d4ed8"/>
<circle cx="484.41" cy="407.10" r="3.2" fill="#1d4ed8"/>
<circle cx="486.80" cy="403.05" r="3.2" fill="#1d4ed8"/>
<circle cx="489.19" cy="399.82" r="3.2" fill="#1d4ed8"/>
<circle cx="491.58" cy="400.22" r="3.2" fill="#1d4ed8"/>
<circle cx="493.97" cy="400.62" r="3.2" fill="#1d4ed8"/>
<circle cx="496.36" cy="400.62" r="3.2" fill="#1d4ed8"/>
<circle cx="498.75" cy="399.41" r="3.2" fill="#1d4ed8"/>
<circle cx="501.14" cy="392.94" r="3.2" fill="#1d4ed8"/>
<circle cx="503.53" cy="391.32" r="3.2" fill="#1d4ed8"/>
<circle cx="505.92" cy="389.30" r="3.2" fill="#1d4ed8"/>
<circle cx="508.31" cy="389.30" r="3.2" fill="#1d4ed8"/>
<circle cx="510.70" cy="388.49" r="3.2" fill="#1d4ed8"/>
<circle cx="513.09" cy="375.15" r="3.2" fill="#1d4ed8"/>
<circle cx="515.48" cy="374.74" r="3.2" fill="#1d4ed8"/>
<circle cx="517.87" cy="374.74" r="3.2" fill="#1d4ed8"/>
<circle cx="520.26" cy="374.74" r="3.2" fill="#1d4ed8"/>
<circle cx="522.65" cy="374.74" r="3.2" fill="#1d4ed8"/>
<circle cx="525.04" cy="374.34" r="3.2" fill="#1d4ed8"/>
<circle cx="527.43" cy="374.34" r="3.2" fill="#1d4ed8"/>
<circle cx="529.82" cy="374.34" r="3.2" fill="#1d4ed8"/>
<circle cx="532.21" cy="374.34" r="3.2" fill="#1d4ed8"/>
<circle cx="534.61" cy="374.34" r="3.2" fill="#1d4ed8"/>
<circle cx="537.00" cy="373.93" r="3.2" fill="#1d4ed8"/>
<circle cx="539.39" cy="373.12" r="3.2" fill="#1d4ed8"/>
<circle cx="541.78" cy="372.72" r="3.2" fill="#1d4ed8"/>
<circle cx="544.17" cy="373.53" r="3.2" fill="#1d4ed8"/>
<circle cx="546.56" cy="435.81" r="3.2" fill="#1d4ed8"/>
<circle cx="548.95" cy="372.32" r="3.2" fill="#1d4ed8"/>
<circle cx="551.34" cy="372.72" r="3.2" fill="#1d4ed8"/>
<circle cx="553.73" cy="371.91" r="3.2" fill="#1d4ed8"/>
<circle cx="556.12" cy="371.91" r="3.2" fill="#1d4ed8"/>
<circle cx="558.51" cy="372.32" r="3.2" fill="#1d4ed8"/>
<circle cx="560.90" cy="371.10" r="3.2" fill="#1d4ed8"/>
<circle cx="563.29" cy="369.89" r="3.2" fill="#1d4ed8"/>
<circle cx="565.68" cy="369.89" r="3.2" fill="#1d4ed8"/>
<circle cx="568.07" cy="369.89" r="3.2" fill="#1d4ed8"/>
<circle cx="570.46" cy="369.49" r="3.2" fill="#1d4ed8"/>
<circle cx="572.85" cy="369.89" r="3.2" fill="#1d4ed8"/>
<circle cx="575.24" cy="369.08" r="3.2" fill="#1d4ed8"/>
<circle cx="577.63" cy="368.68" r="3.2" fill="#1d4ed8"/>
<circle cx="580.02" cy="368.27" r="3.2" fill="#1d4ed8"/>
<circle cx="582.41" cy="367.87" r="3.2" fill="#1d4ed8"/>
<circle cx="584.80" cy="367.06" r="3.2" fill="#1d4ed8"/>
<circle cx="587.19" cy="367.46" r="3.2" fill="#1d4ed8"/>
<circle cx="589.58" cy="367.06" r="3.2" fill="#1d4ed8"/>
<circle cx="591.97" cy="366.25" r="3.2" fill="#1d4ed8"/>
<circle cx="594.36" cy="368.27" r="3.2" fill="#1d4ed8"/>
<circle cx="596.75" cy="368.68" r="3.2" fill="#1d4ed8"/>
<circle cx="599.14" cy="368.68" r="3.2" fill="#1d4ed8"/>
<circle cx="601.54" cy="368.27" r="3.2" fill="#1d4ed8"/>
<circle cx="603.93" cy="369.08" r="3.2" fill="#1d4ed8"/>
<circle cx="606.32" cy="367.87" r="3.2" fill="#1d4ed8"/>
<circle cx="608.71" cy="367.46" r="3.2" fill="#1d4ed8"/>
<circle cx="611.10" cy="367.06" r="3.2" fill="#1d4ed8"/>
<circle cx="613.49" cy="360.18" r="3.2" fill="#1d4ed8"/>
<circle cx="615.88" cy="359.78" r="3.2" fill="#1d4ed8"/>
<circle cx="618.27" cy="359.38" r="3.2" fill="#1d4ed8"/>
<circle cx="620.66" cy="356.95" r="3.2" fill="#1d4ed8"/>
<circle cx="623.05" cy="357.35" r="3.2" fill="#1d4ed8"/>
<circle cx="625.44" cy="357.76" r="3.2" fill="#1d4ed8"/>
<circle cx="627.83" cy="355.33" r="3.2" fill="#1d4ed8"/>
<circle cx="630.22" cy="355.74" r="3.2" fill="#1d4ed8"/>
<circle cx="632.61" cy="357.35" r="3.2" fill="#1d4ed8"/>
<circle cx="635.00" cy="355.33" r="3.2" fill="#1d4ed8"/>
<circle cx="637.39" cy="356.14" r="3.2" fill="#1d4ed8"/>
<circle cx="639.78" cy="355.74" r="3.2" fill="#1d4ed8"/>
<circle cx="642.17" cy="356.14" r="3.2" fill="#1d4ed8"/>
<circle cx="644.56" cy="354.12" r="3.2" fill="#1d4ed8"/>
<circle cx="646.95" cy="354.93" r="3.2" fill="#1d4ed8"/>
<circle cx="649.34" cy="356.14" r="3.2" fill="#1d4ed8"/>
<circle cx="651.73" cy="354.52" r="3.2" fill="#1d4ed8"/>
<circle cx="654.12" cy="353.71" r="3.2" fill="#1d4ed8"/>
<circle cx="656.51" cy="354.12" r="3.2" fill="#1d4ed8"/>
<circle cx="658.90" cy="354.93" r="3.2" fill="#1d4ed8"/>
<circle cx="661.29" cy="352.90" r="3.2" fill="#1d4ed8"/>
<circle cx="663.68" cy="353.71" r="3.2" fill="#1d4ed8"/>
<circle cx="666.07" cy="353.31" r="3.2" fill="#1d4ed8"/>
<circle cx="668.46" cy="353.31" r="3.2" fill="#1d4ed8"/>
<circle cx="670.86" cy="354.52" r="3.2" fill="#1d4ed8"/>
<circle cx="673.25" cy="352.90" r="3.2" fill="#1d4ed8"/>
<circle cx="675.64" cy="352.50" r="3.2" fill="#1d4ed8"/>
<circle cx="678.03" cy="352.50" r="3.2" fill="#1d4ed8"/>
<circle cx="680.42" cy="353.31" r="3.2" fill="#1d4ed8"/>
<circle cx="682.81" cy="352.50" r="3.2" fill="#1d4ed8"/>
<circle cx="685.20" cy="353.71" r="3.2" fill="#1d4ed8"/>
<circle cx="687.59" cy="354.12" r="3.2" fill="#1d4ed8"/>
<circle cx="689.98" cy="352.50" r="3.2" fill="#1d4ed8"/>
<circle cx="692.37" cy="352.90" r="3.2" fill="#1d4ed8"/>
<circle cx="694.76" cy="352.50" r="3.2" fill="#1d4ed8"/>
<circle cx="697.15" cy="352.10" r="3.2" fill="#1d4ed8"/>
<circle cx="699.54" cy="351.69" r="3.2" fill="#1d4ed8"/>
<circle cx="701.93" cy="352.10" r="3.2" fill="#1d4ed8"/>
<circle cx="704.32" cy="354.12" r="3.2" fill="#1d4ed8"/>
<circle cx="706.71" cy="352.50" r="3.2" fill="#1d4ed8"/>
<circle cx="709.10" cy="352.10" r="3.2" fill="#1d4ed8"/>
<circle cx="711.49" cy="352.10" r="3.2" fill="#1d4ed8"/>
<circle cx="713.88" cy="349.67" r="3.2" fill="#1d4ed8"/>
<circle cx="716.27" cy="349.67" r="3.2" fill="#1d4ed8"/>
<circle cx="718.66" cy="350.88" r="3.2" fill="#1d4ed8"/>
<circle cx="721.05" cy="351.29" r="3.2" fill="#1d4ed8"/>
<circle cx="723.44" cy="350.48" r="3.2" fill="#1d4ed8"/>
<circle cx="725.83" cy="352.10" r="3.2" fill="#1d4ed8"/>
<circle cx="728.22" cy="350.48" r="3.2" fill="#1d4ed8"/>
<circle cx="730.61" cy="350.48" r="3.2" fill="#1d4ed8"/>
<circle cx="733.00" cy="350.48" r="3.2" fill="#1d4ed8"/>
<circle cx="735.39" cy="350.07" r="3.2" fill="#1d4ed8"/>
<circle cx="737.79" cy="348.46" r="3.2" fill="#1d4ed8"/>
<circle cx="740.18" cy="351.29" r="3.2" fill="#1d4ed8"/>
<circle cx="742.57" cy="349.67" r="3.2" fill="#1d4ed8"/>
<circle cx="744.96" cy="351.29" r="3.2" fill="#1d4ed8"/>
<circle cx="747.35" cy="349.67" r="3.2" fill="#1d4ed8"/>
<circle cx="749.74" cy="348.86" r="3.2" fill="#1d4ed8"/>
<circle cx="752.13" cy="348.46" r="3.2" fill="#1d4ed8"/>
<circle cx="754.52" cy="348.46" r="3.2" fill="#1d4ed8"/>
<circle cx="756.91" cy="347.24" r="3.2" fill="#1d4ed8"/>
<circle cx="759.30" cy="348.86" r="3.2" fill="#1d4ed8"/>
<circle cx="761.69" cy="346.84" r="3.2" fill="#1d4ed8"/>
<circle cx="764.08" cy="348.46" r="3.2" fill="#1d4ed8"/>
<circle cx="766.47" cy="348.86" r="3.2" fill="#1d4ed8"/>
<circle cx="768.86" cy="346.84" r="3.2" fill="#1d4ed8"/>
<circle cx="771.25" cy="349.26" r="3.2" fill="#1d4ed8"/>
<circle cx="773.64" cy="348.05" r="3.2" fill="#1d4ed8"/>
<circle cx="776.03" cy="349.26" r="3.2" fill="#1d4ed8"/>
<circle cx="778.42" cy="349.26" r="3.2" fill="#1d4ed8"/>
<circle cx="780.81" cy="350.48" r="3.2" fill="#1d4ed8"/>
<circle cx="783.20" cy="352.90" r="3.2" fill="#1d4ed8"/>
<circle cx="785.59" cy="349.67" r="3.2" fill="#1d4ed8"/>
<circle cx="787.98" cy="348.46" r="3.2" fill="#1d4ed8"/>
<circle cx="790.37" cy="345.62" r="3.2" fill="#1d4ed8"/>
<circle cx="792.76" cy="344.82" r="3.2" fill="#1d4ed8"/>
<circle cx="795.15" cy="344.41" r="3.2" fill="#1d4ed8"/>
<circle cx="797.54" cy="342.39" r="3.2" fill="#1d4ed8"/>
<circle cx="799.93" cy="341.18" r="3.2" fill="#1d4ed8"/>
<circle cx="802.32" cy="341.58" r="3.2" fill="#1d4ed8"/>
<circle cx="804.71" cy="339.15" r="3.2" fill="#1d4ed8"/>
<circle cx="807.11" cy="338.35" r="3.2" fill="#1d4ed8"/>
<circle cx="809.50" cy="337.54" r="3.2" fill="#1d4ed8"/>
<circle cx="811.89" cy="336.73" r="3.2" fill="#1d4ed8"/>
<circle cx="814.28" cy="335.92" r="3.2" fill="#1d4ed8"/>
<circle cx="816.67" cy="337.54" r="3.2" fill="#1d4ed8"/>
<circle cx="819.06" cy="338.35" r="3.2" fill="#1d4ed8"/>
<circle cx="821.45" cy="337.54" r="3.2" fill="#1d4ed8"/>
<circle cx="823.84" cy="337.54" r="3.2" fill="#1d4ed8"/>
<circle cx="826.23" cy="337.54" r="3.2" fill="#1d4ed8"/>
<circle cx="828.62" cy="333.09" r="3.2" fill="#1d4ed8"/>
<circle cx="831.01" cy="333.90" r="3.2" fill="#1d4ed8"/>
<circle cx="833.40" cy="335.92" r="3.2" fill="#1d4ed8"/>
<circle cx="835.79" cy="336.73" r="3.2" fill="#1d4ed8"/>
<circle cx="838.18" cy="335.51" r="3.2" fill="#1d4ed8"/>
<circle cx="840.57" cy="332.28" r="3.2" fill="#1d4ed8"/>
<circle cx="842.96" cy="331.47" r="3.2" fill="#1d4ed8"/>
<circle cx="845.35" cy="331.07" r="3.2" fill="#1d4ed8"/>
<circle cx="847.74" cy="331.47" r="3.2" fill="#1d4ed8"/>
<circle cx="850.13" cy="331.07" r="3.2" fill="#1d4ed8"/>
<circle cx="852.52" cy="331.07" r="3.2" fill="#1d4ed8"/>
<circle cx="854.91" cy="331.07" r="3.2" fill="#1d4ed8"/>
<circle cx="857.30" cy="331.07" r="3.2" fill="#1d4ed8"/>
<circle cx="859.69" cy="331.07" r="3.2" fill="#1d4ed8"/>
<circle cx="862.08" cy="331.07" r="3.2" fill="#1d4ed8"/>
<circle cx="864.47" cy="331.07" r="3.2" fill="#1d4ed8"/>
<circle cx="866.86" cy="331.07" r="3.2" fill="#1d4ed8"/>
<circle cx="869.25" cy="331.07" r="3.2" fill="#1d4ed8"/>
<circle cx="871.64" cy="331.07" r="3.2" fill="#1d4ed8"/>
<circle cx="874.04" cy="331.47" r="3.2" fill="#1d4ed8"/>
<circle cx="876.43" cy="331.88" r="3.2" fill="#1d4ed8"/>
<circle cx="878.82" cy="331.07" r="3.2" fill="#1d4ed8"/>
<circle cx="881.21" cy="331.47" r="3.2" fill="#1d4ed8"/>
<circle cx="883.60" cy="331.07" r="3.2" fill="#1d4ed8"/>
<circle cx="885.99" cy="331.47" r="3.2" fill="#1d4ed8"/>
<circle cx="888.38" cy="331.07" r="3.2" fill="#1d4ed8"/>
<circle cx="890.77" cy="324.19" r="3.2" fill="#1d4ed8"/>
<circle cx="893.16" cy="324.19" r="3.2" fill="#1d4ed8"/>
<circle cx="895.55" cy="318.93" r="3.2" fill="#1d4ed8"/>
<circle cx="897.94" cy="316.51" r="3.2" fill="#1d4ed8"/>
<circle cx="900.33" cy="310.44" r="3.2" fill="#1d4ed8"/>
<circle cx="902.72" cy="308.01" r="3.2" fill="#1d4ed8"/>
<circle cx="905.11" cy="600.00" r="3.2" fill="#1d4ed8"/>
<circle cx="907.50" cy="301.54" r="3.2" fill="#1d4ed8"/>
<circle cx="909.89" cy="290.22" r="3.2" fill="#1d4ed8"/>
<circle cx="912.28" cy="287.79" r="3.2" fill="#1d4ed8"/>
<circle cx="914.67" cy="286.18" r="3.2" fill="#1d4ed8"/>
<circle cx="917.06" cy="285.77" r="3.2" fill="#1d4ed8"/>
<circle cx="919.45" cy="285.77" r="3.2" fill="#1d4ed8"/>
<circle cx="921.84" cy="285.77" r="3.2" fill="#1d4ed8"/>
<circle cx="924.23" cy="286.18" r="3.2" fill="#1d4ed8"/>
<circle cx="926.62" cy="285.77" r="3.2" fill="#1d4ed8"/>
<circle cx="929.01" cy="285.77" r="3.2" fill="#1d4ed8"/>
<circle cx="931.40" cy="285.77" r="3.2" fill="#1d4ed8"/>
<circle cx="933.79" cy="283.35" r="3.2" fill="#1d4ed8"/>
<circle cx="936.18" cy="282.94" r="3.2" fill="#1d4ed8"/>
<circle cx="938.57" cy="282.94" r="3.2" fill="#1d4ed8"/>
<circle cx="940.96" cy="283.35" r="3.2" fill="#1d4ed8"/>
<circle cx="943.36" cy="282.94" r="3.2" fill="#1d4ed8"/>
<circle cx="945.75" cy="282.94" r="3.2" fill="#1d4ed8"/>
<circle cx="948.14" cy="283.75" r="3.2" fill="#1d4ed8"/>
<circle cx="950.53" cy="282.13" r="3.2" fill="#1d4ed8"/>
<circle cx="952.92" cy="282.13" r="3.2" fill="#1d4ed8"/>
<circle cx="955.31" cy="282.54" r="3.2" fill="#1d4ed8"/>
<circle cx="957.70" cy="282.13" r="3.2" fill="#1d4ed8"/>
<circle cx="960.09" cy="282.54" r="3.2" fill="#1d4ed8"/>
<circle cx="962.48" cy="282.94" r="3.2" fill="#1d4ed8"/>
<circle cx="964.87" cy="281.73" r="3.2" fill="#1d4ed8"/>
<circle cx="967.26" cy="282.54" r="3.2" fill="#1d4ed8"/>
<circle cx="969.65" cy="281.73" r="3.2" fill="#1d4ed8"/>
<circle cx="972.04" cy="282.54" r="3.2" fill="#1d4ed8"/>
<circle cx="974.43" cy="282.13" r="3.2" fill="#1d4ed8"/>
<circle cx="976.82" cy="282.13" r="3.2" fill="#1d4ed8"/>
<circle cx="979.21" cy="281.73" r="3.2" fill="#1d4ed8"/>
<circle cx="981.60" cy="281.73" r="3.2" fill="#1d4ed8"/>
<circle cx="983.99" cy="281.32" r="3.2" fill="#1d4ed8"/>
<circle cx="986.38" cy="281.73" r="3.2" fill="#1d4ed8"/>
<circle cx="988.77" cy="282.13" r="3.2" fill="#1d4ed8"/>
<circle cx="991.16" cy="281.32" r="3.2" fill="#1d4ed8"/>
<circle cx="993.55" cy="281.32" r="3.2" fill="#1d4ed8"/>
<circle cx="995.94" cy="282.54" r="3.2" fill="#1d4ed8"/>
<circle cx="998.33" cy="282.13" r="3.2" fill="#1d4ed8"/>
<circle cx="1000.72" cy="281.32" r="3.2" fill="#1d4ed8"/>
<circle cx="1003.11" cy="281.32" r="3.2" fill="#1d4ed8"/>
<circle cx="1005.50" cy="281.32" r="3.2" fill="#1d4ed8"/>
<circle cx="1007.89" cy="282.54" r="3.2" fill="#1d4ed8"/>
<circle cx="1010.29" cy="282.13" r="3.2" fill="#1d4ed8"/>
<circle cx="1012.68" cy="281.32" r="3.2" fill="#1d4ed8"/>
<circle cx="1015.07" cy="282.13" r="3.2" fill="#1d4ed8"/>
<circle cx="1017.46" cy="281.73" r="3.2" fill="#1d4ed8"/>
<circle cx="1019.85" cy="282.13" r="3.2" fill="#1d4ed8"/>
<circle cx="1022.24" cy="280.11" r="3.2" fill="#1d4ed8"/>
<circle cx="1024.63" cy="280.11" r="3.2" fill="#1d4ed8"/>
<circle cx="1027.02" cy="280.51" r="3.2" fill="#1d4ed8"/>
<circle cx="1029.41" cy="279.71" r="3.2" fill="#1d4ed8"/>
<circle cx="1031.80" cy="280.11" r="3.2" fill="#1d4ed8"/>
<circle cx="1034.19" cy="280.51" r="3.2" fill="#1d4ed8"/>
<circle cx="1036.58" cy="279.71" r="3.2" fill="#1d4ed8"/>
<circle cx="1038.97" cy="280.11" r="3.2" fill="#1d4ed8"/>
<circle cx="1041.36" cy="280.11" r="3.2" fill="#1d4ed8"/>
<circle cx="1043.75" cy="279.30" r="3.2" fill="#1d4ed8"/>
<circle cx="1046.14" cy="278.90" r="3.2" fill="#1d4ed8"/>
<circle cx="1048.53" cy="278.90" r="3.2" fill="#1d4ed8"/>
<circle cx="1050.92" cy="280.51" r="3.2" fill="#1d4ed8"/>
<circle cx="1053.31" cy="279.30" r="3.2" fill="#1d4ed8"/>
<circle cx="1055.70" cy="278.09" r="3.2" fill="#1d4ed8"/>
<circle cx="1058.09" cy="278.49" r="3.2" fill="#1d4ed8"/>
<circle cx="1060.48" cy="278.49" r="3.2" fill="#1d4ed8"/>
<circle cx="1062.87" cy="277.28" r="3.2" fill="#1d4ed8"/>
<circle cx="1065.26" cy="277.68" r="3.2" fill="#1d4ed8"/>
<circle cx="1067.65" cy="277.68" r="3.2" fill="#1d4ed8"/>
<circle cx="1070.04" cy="278.09" r="3.2" fill="#1d4ed8"/>
<circle cx="1072.43" cy="277.28" r="3.2" fill="#1d4ed8"/>
<circle cx="1074.82" cy="600.00" r="3.2" fill="#1d4ed8"/>
<circle cx="1077.21" cy="278.90" r="3.2" fill="#1d4ed8"/>
<circle cx="1079.61" cy="279.30" r="3.2" fill="#1d4ed8"/>
<circle cx="1082.00" cy="278.90" r="3.2" fill="#1d4ed8"/>
<circle cx="1084.39" cy="278.49" r="3.2" fill="#1d4ed8"/>
<circle cx="1086.78" cy="278.49" r="3.2" fill="#1d4ed8"/>
<circle cx="1089.17" cy="278.49" r="3.2" fill="#1d4ed8"/>
<circle cx="1091.56" cy="278.49" r="3.2" fill="#1d4ed8"/>
<circle cx="1093.95" cy="278.49" r="3.2" fill="#1d4ed8"/>
<circle cx="1096.34" cy="278.49" r="3.2" fill="#1d4ed8"/>
<circle cx="1098.73" cy="278.49" r="3.2" fill="#1d4ed8"/>
<circle cx="1101.12" cy="278.49" r="3.2" fill="#1d4ed8"/>
<circle cx="1103.51" cy="278.49" r="3.2" fill="#1d4ed8"/>
<circle cx="1105.90" cy="278.49" r="3.2" fill="#1d4ed8"/>
<circle cx="1108.29" cy="278.49" r="3.2" fill="#1d4ed8"/>
<circle cx="1110.68" cy="278.49" r="3.2" fill="#1d4ed8"/>
<circle cx="1113.07" cy="600.00" r="3.2" fill="#1d4ed8"/>
<circle cx="1115.46" cy="600.00" r="3.2" fill="#1d4ed8"/>
<circle cx="1117.85" cy="254.63" r="3.2" fill="#1d4ed8"/>
<circle cx="1120.24" cy="600.00" r="3.2" fill="#1d4ed8"/>
<circle cx="1122.63" cy="245.74" r="3.2" fill="#1d4ed8"/>
<circle cx="1125.02" cy="245.74" r="3.2" fill="#1d4ed8"/>
<circle cx="1127.41" cy="246.14" r="3.2" fill="#1d4ed8"/>
<circle cx="1129.80" cy="245.74" r="3.2" fill="#1d4ed8"/>
<circle cx="1132.19" cy="245.74" r="3.2" fill="#1d4ed8"/>
<circle cx="1134.58" cy="245.74" r="3.2" fill="#1d4ed8"/>
<circle cx="1136.97" cy="245.74" r="3.2" fill="#1d4ed8"/>
<circle cx="1139.36" cy="245.74" r="3.2" fill="#1d4ed8"/>
<circle cx="1141.75" cy="240.07" r="3.2" fill="#1d4ed8"/>
<circle cx="1144.14" cy="238.05" r="3.2" fill="#1d4ed8"/>
<circle cx="1146.54" cy="238.05" r="3.2" fill="#1d4ed8"/>
<circle cx="1148.93" cy="227.13" r="3.2" fill="#1d4ed8"/>
<circle cx="1151.32" cy="227.13" r="3.2" fill="#1d4ed8"/>
<circle cx="1153.71" cy="226.32" r="3.2" fill="#1d4ed8"/>
<circle cx="1156.10" cy="227.54" r="3.2" fill="#1d4ed8"/>
<circle cx="1158.49" cy="226.73" r="3.2" fill="#1d4ed8"/>
<circle cx="1160.88" cy="226.32" r="3.2" fill="#1d4ed8"/>
<circle cx="1163.27" cy="227.13" r="3.2" fill="#1d4ed8"/>
<circle cx="1165.66" cy="227.13" r="3.2" fill="#1d4ed8"/>
<circle cx="1168.05" cy="226.73" r="3.2" fill="#1d4ed8"/>
<circle cx="1170.44" cy="226.32" r="3.2" fill="#1d4ed8"/>
<circle cx="1172.83" cy="226.73" r="3.2" fill="#1d4ed8"/>
<circle cx="1175.22" cy="226.73" r="3.2" fill="#1d4ed8"/>
<circle cx="1177.61" cy="226.73" r="3.2" fill="#1d4ed8"/>
<circle cx="1180.00" cy="225.11" r="3.2" fill="#1d4ed8"/>
<text x="635" y="695" text-anchor="middle" font-size="14" fill="#111" font-family="sans-serif">Date</text>
<text x="24" y="325" text-anchor="middle" font-size="14" fill="#111" transform="rotate(-90 24,325)" font-family="sans-serif">Passed files</text>
</svg>
