<?xml version="1.0" encoding="UTF-8"?>
<svg xmlns="http://www.w3.org/2000/svg" width="1280" height="720" viewBox="0 0 1280 720">
<rect width="100%" height="100%" fill="#ffffff"/>
<text x="640" y="30" text-anchor="middle" font-size="22" font-family="sans-serif">Roast passed files history</text>
<line x1="90" y1="600" x2="1180" y2="600" stroke="#333" stroke-width="1.5"/>
<line x1="90" y1="50" x2="90" y2="600" stroke="#333" stroke-width="1.5"/>
<line x1="90" y1="600.00" x2="1180" y2="600.00" stroke="#e5e7eb" stroke-width="1"/>
<text x="78" y="605.00" text-anchor="end" font-size="12" fill="#111" font-family="sans-serif">0</text>
<line x1="90" y1="397.79" x2="1180" y2="397.79" stroke="#e5e7eb" stroke-width="1"/>
<text x="78" y="402.79" text-anchor="end" font-size="12" fill="#111" font-family="sans-serif">500</text>
<line x1="90" y1="195.59" x2="1180" y2="195.59" stroke="#e5e7eb" stroke-width="1"/>
<text x="78" y="200.59" text-anchor="end" font-size="12" fill="#111" font-family="sans-serif">1000</text>
<line x1="90.00" y1="600" x2="90.00" y2="606" stroke="#333" stroke-width="1"/>
<text x="90.00" y="624" text-anchor="end" font-size="11" fill="#111" transform="rotate(-40 90.00,624)" font-family="sans-serif">2026-02-12</text>
<line x1="221.55" y1="600" x2="221.55" y2="606" stroke="#333" stroke-width="1"/>
<text x="221.55" y="624" text-anchor="end" font-size="11" fill="#111" transform="rotate(-40 221.55,624)" font-family="sans-serif">2026-02-15</text>
<line x1="353.10" y1="600" x2="353.10" y2="606" stroke="#333" stroke-width="1"/>
<text x="353.10" y="624" text-anchor="end" font-size="11" fill="#111" transform="rotate(-40 353.10,624)" font-family="sans-serif">2026-02-17</text>
<line x1="484.66" y1="600" x2="484.66" y2="606" stroke="#333" stroke-width="1"/>
<text x="484.66" y="624" text-anchor="end" font-size="11" fill="#111" transform="rotate(-40 484.66,624)" font-family="sans-serif">2026-02-19</text>
<line x1="616.21" y1="600" x2="616.21" y2="606" stroke="#333" stroke-width="1"/>
<text x="616.21" y="624" text-anchor="end" font-size="11" fill="#111" transform="rotate(-40 616.21,624)" font-family="sans-serif">2026-02-21</text>
<line x1="747.76" y1="600" x2="747.76" y2="606" stroke="#333" stroke-width="1"/>
<text x="747.76" y="624" text-anchor="end" font-size="11" fill="#111" transform="rotate(-40 747.76,624)" font-family="sans-serif">2026-02-23</text>
<line x1="879.31" y1="600" x2="879.31" y2="606" stroke="#333" stroke-width="1"/>
<text x="879.31" y="624" text-anchor="end" font-size="11" fill="#111" transform="rotate(-40 879.31,624)" font-family="sans-serif">2026-02-25</text>
<line x1="1010.86" y1="600" x2="1010.86" y2="606" stroke="#333" stroke-width="1"/>
<text x="1010.86" y="624" text-anchor="end" font-size="11" fill="#111" transform="rotate(-40 1010.86,624)" font-family="sans-serif">2026-02-26</text>
<line x1="1142.41" y1="600" x2="1142.41" y2="606" stroke="#333" stroke-width="1"/>
<text x="1142.41" y="624" text-anchor="end" font-size="11" fill="#111" transform="rotate(-40 1142.41,624)" font-family="sans-serif">2026-02-27</text>
<line x1="1180.00" y1="600" x2="1180.00" y2="606" stroke="#333" stroke-width="1"/>
<text x="1180.00" y="624" text-anchor="end" font-size="11" fill="#111" transform="rotate(-40 1180.00,624)" font-family="sans-serif">2026-02-28</text>
<line x1="90" y1="75.88" x2="1180" y2="75.88" stroke="#dc2626" stroke-width="1.5" stroke-dasharray="8,4"/>
<text x="1184" y="79.88" font-size="12" fill="#dc2626" font-family="sans-serif">Goal: 1296</text>
<polyline fill="none" stroke="#2563eb" stroke-width="3" points="90.00,540.55 96.26,538.53 102.53,536.91 108.79,534.49 115.06,534.49 121.32,533.27 127.59,532.46 133.85,532.87 140.11,532.06 146.38,532.46 152.64,532.06 158.91,568.46 165.17,568.46 171.44,566.43 177.70,545.00 183.97,545.00 190.23,544.19 196.49,543.79 202.76,543.79 209.02,543.38 215.29,541.76 221.55,541.36 227.82,540.96 234.08,540.96 240.34,539.34 246.61,539.34 252.87,556.73 259.14,556.73 265.40,555.51 271.67,551.07 277.93,538.93 284.20,538.93 290.46,538.93 296.72,538.12 302.99,536.91 309.25,536.91 315.52,536.51 321.78,536.51 328.05,556.73 334.31,556.73 340.57,556.73 346.84,556.73 353.10,535.29 359.37,535.29 365.63,535.29 371.90,535.29 378.16,534.49 384.43,534.08 390.69,533.68 396.95,532.87 403.22,532.06 409.48,532.06 415.75,531.25 422.01,530.85 428.28,530.44 434.54,530.04 440.80,530.04 447.07,529.23 453.33,529.23 459.60,529.23 465.86,528.42 472.13,528.42 478.39,527.61 484.66,527.21 490.92,526.80 497.18,526.40 503.45,525.18 509.71,523.57 515.98,523.57 522.24,523.16 528.51,522.76 534.77,522.35 541.03,521.54 547.30,519.52 553.56,517.50 559.83,517.50 566.09,517.50 572.36,517.50 578.62,517.50 584.89,517.50 591.15,517.10 597.41,516.69 603.68,515.48 609.94,515.07 616.21,514.67 622.47,513.86 628.74,514.26 635.00,512.24 641.26,511.84 647.53,511.84 653.79,511.03 660.06,509.82 666.32,507.79 672.59,506.99 678.85,506.58 685.11,509.41 691.38,509.01 697.64,504.96 703.91,504.56 710.17,504.15 716.44,504.56 722.70,503.75 728.97,503.75 735.23,503.35 741.49,499.30 747.76,496.47 754.02,490.00 760.29,484.34 766.55,481.10 772.82,480.29 779.08,480.70 785.34,460.88 791.61,459.26 797.87,458.05 804.14,456.03 810.40,456.03 816.67,454.41 822.93,450.77 829.20,444.30 835.46,443.90 841.72,600.00 847.99,441.88 854.25,440.66 860.52,439.45 866.78,439.04 873.05,438.64 879.31,437.83 885.57,436.62 891.84,436.62 898.10,434.60 904.37,432.17 910.63,429.34 916.90,428.93 923.16,428.53 929.43,427.72 935.69,426.91 941.95,426.10 948.22,426.10 954.48,426.10 960.75,419.63 967.01,419.23 973.28,418.42 979.54,418.01 985.80,417.61 992.07,417.61 998.33,417.61 1004.60,417.21 1010.86,417.21 1017.13,413.57 1023.39,411.95 1029.66,412.76 1035.92,410.74 1042.18,410.74 1048.45,410.33 1054.71,410.33 1060.98,410.33 1067.24,409.93 1073.51,409.93 1079.77,409.93 1086.03,409.52 1092.30,409.52 1098.56,409.12 1104.83,409.52 1111.09,409.12 1117.36,407.50 1123.62,407.10 1129.89,403.05 1136.15,399.82 1142.41,400.22 1148.68,400.62 1154.94,400.62 1161.21,399.41 1167.47,392.94 1173.74,391.32 1180.00,389.71"/>
<circle cx="90.00" cy="540.55" r="3.2" fill="#1d4ed8"/>
<circle cx="96.26" cy="538.53" r="3.2" fill="#1d4ed8"/>
<circle cx="102.53" cy="536.91" r="3.2" fill="#1d4ed8"/>
<circle cx="108.79" cy="534.49" r="3.2" fill="#1d4ed8"/>
<circle cx="115.06" cy="534.49" r="3.2" fill="#1d4ed8"/>
<circle cx="121.32" cy="533.27" r="3.2" fill="#1d4ed8"/>
<circle cx="127.59" cy="532.46" r="3.2" fill="#1d4ed8"/>
<circle cx="133.85" cy="532.87" r="3.2" fill="#1d4ed8"/>
<circle cx="140.11" cy="532.06" r="3.2" fill="#1d4ed8"/>
<circle cx="146.38" cy="532.46" r="3.2" fill="#1d4ed8"/>
<circle cx="152.64" cy="532.06" r="3.2" fill="#1d4ed8"/>
<circle cx="158.91" cy="568.46" r="3.2" fill="#1d4ed8"/>
<circle cx="165.17" cy="568.46" r="3.2" fill="#1d4ed8"/>
<circle cx="171.44" cy="566.43" r="3.2" fill="#1d4ed8"/>
<circle cx="177.70" cy="545.00" r="3.2" fill="#1d4ed8"/>
<circle cx="183.97" cy="545.00" r="3.2" fill="#1d4ed8"/>
<circle cx="190.23" cy="544.19" r="3.2" fill="#1d4ed8"/>
<circle cx="196.49" cy="543.79" r="3.2" fill="#1d4ed8"/>
<circle cx="202.76" cy="543.79" r="3.2" fill="#1d4ed8"/>
<circle cx="209.02" cy="543.38" r="3.2" fill="#1d4ed8"/>
<circle cx="215.29" cy="541.76" r="3.2" fill="#1d4ed8"/>
<circle cx="221.55" cy="541.36" r="3.2" fill="#1d4ed8"/>
<circle cx="227.82" cy="540.96" r="3.2" fill="#1d4ed8"/>
<circle cx="234.08" cy="540.96" r="3.2" fill="#1d4ed8"/>
<circle cx="240.34" cy="539.34" r="3.2" fill="#1d4ed8"/>
<circle cx="246.61" cy="539.34" r="3.2" fill="#1d4ed8"/>
<circle cx="252.87" cy="556.73" r="3.2" fill="#1d4ed8"/>
<circle cx="259.14" cy="556.73" r="3.2" fill="#1d4ed8"/>
<circle cx="265.40" cy="555.51" r="3.2" fill="#1d4ed8"/>
<circle cx="271.67" cy="551.07" r="3.2" fill="#1d4ed8"/>
<circle cx="277.93" cy="538.93" r="3.2" fill="#1d4ed8"/>
<circle cx="284.20" cy="538.93" r="3.2" fill="#1d4ed8"/>
<circle cx="290.46" cy="538.93" r="3.2" fill="#1d4ed8"/>
<circle cx="296.72" cy="538.12" r="3.2" fill="#1d4ed8"/>
<circle cx="302.99" cy="536.91" r="3.2" fill="#1d4ed8"/>
<circle cx="309.25" cy="536.91" r="3.2" fill="#1d4ed8"/>
<circle cx="315.52" cy="536.51" r="3.2" fill="#1d4ed8"/>
<circle cx="321.78" cy="536.51" r="3.2" fill="#1d4ed8"/>
<circle cx="328.05" cy="556.73" r="3.2" fill="#1d4ed8"/>
<circle cx="334.31" cy="556.73" r="3.2" fill="#1d4ed8"/>
<circle cx="340.57" cy="556.73" r="3.2" fill="#1d4ed8"/>
<circle cx="346.84" cy="556.73" r="3.2" fill="#1d4ed8"/>
<circle cx="353.10" cy="535.29" r="3.2" fill="#1d4ed8"/>
<circle cx="359.37" cy="535.29" r="3.2" fill="#1d4ed8"/>
<circle cx="365.63" cy="535.29" r="3.2" fill="#1d4ed8"/>
<circle cx="371.90" cy="535.29" r="3.2" fill="#1d4ed8"/>
<circle cx="378.16" cy="534.49" r="3.2" fill="#1d4ed8"/>
<circle cx="384.43" cy="534.08" r="3.2" fill="#1d4ed8"/>
<circle cx="390.69" cy="533.68" r="3.2" fill="#1d4ed8"/>
<circle cx="396.95" cy="532.87" r="3.2" fill="#1d4ed8"/>
<circle cx="403.22" cy="532.06" r="3.2" fill="#1d4ed8"/>
<circle cx="409.48" cy="532.06" r="3.2" fill="#1d4ed8"/>
<circle cx="415.75" cy="531.25" r="3.2" fill="#1d4ed8"/>
<circle cx="422.01" cy="530.85" r="3.2" fill="#1d4ed8"/>
<circle cx="428.28" cy="530.44" r="3.2" fill="#1d4ed8"/>
<circle cx="434.54" cy="530.04" r="3.2" fill="#1d4ed8"/>
<circle cx="440.80" cy="530.04" r="3.2" fill="#1d4ed8"/>
<circle cx="447.07" cy="529.23" r="3.2" fill="#1d4ed8"/>
<circle cx="453.33" cy="529.23" r="3.2" fill="#1d4ed8"/>
<circle cx="459.60" cy="529.23" r="3.2" fill="#1d4ed8"/>
<circle cx="465.86" cy="528.42" r="3.2" fill="#1d4ed8"/>
<circle cx="472.13" cy="528.42" r="3.2" fill="#1d4ed8"/>
<circle cx="478.39" cy="527.61" r="3.2" fill="#1d4ed8"/>
<circle cx="484.66" cy="527.21" r="3.2" fill="#1d4ed8"/>
<circle cx="490.92" cy="526.80" r="3.2" fill="#1d4ed8"/>
<circle cx="497.18" cy="526.40" r="3.2" fill="#1d4ed8"/>
<circle cx="503.45" cy="525.18" r="3.2" fill="#1d4ed8"/>
<circle cx="509.71" cy="523.57" r="3.2" fill="#1d4ed8"/>
<circle cx="515.98" cy="523.57" r="3.2" fill="#1d4ed8"/>
<circle cx="522.24" cy="523.16" r="3.2" fill="#1d4ed8"/>
<circle cx="528.51" cy="522.76" r="3.2" fill="#1d4ed8"/>
<circle cx="534.77" cy="522.35" r="3.2" fill="#1d4ed8"/>
<circle cx="541.03" cy="521.54" r="3.2" fill="#1d4ed8"/>
<circle cx="547.30" cy="519.52" r="3.2" fill="#1d4ed8"/>
<circle cx="553.56" cy="517.50" r="3.2" fill="#1d4ed8"/>
<circle cx="559.83" cy="517.50" r="3.2" fill="#1d4ed8"/>
<circle cx="566.09" cy="517.50" r="3.2" fill="#1d4ed8"/>
<circle cx="572.36" cy="517.50" r="3.2" fill="#1d4ed8"/>
<circle cx="578.62" cy="517.50" r="3.2" fill="#1d4ed8"/>
<circle cx="584.89" cy="517.50" r="3.2" fill="#1d4ed8"/>
<circle cx="591.15" cy="517.10" r="3.2" fill="#1d4ed8"/>
<circle cx="597.41" cy="516.69" r="3.2" fill="#1d4ed8"/>
<circle cx="603.68" cy="515.48" r="3.2" fill="#1d4ed8"/>
<circle cx="609.94" cy="515.07" r="3.2" fill="#1d4ed8"/>
<circle cx="616.21" cy="514.67" r="3.2" fill="#1d4ed8"/>
<circle cx="622.47" cy="513.86" r="3.2" fill="#1d4ed8"/>
<circle cx="628.74" cy="514.26" r="3.2" fill="#1d4ed8"/>
<circle cx="635.00" cy="512.24" r="3.2" fill="#1d4ed8"/>
<circle cx="641.26" cy="511.84" r="3.2" fill="#1d4ed8"/>
<circle cx="647.53" cy="511.84" r="3.2" fill="#1d4ed8"/>
<circle cx="653.79" cy="511.03" r="3.2" fill="#1d4ed8"/>
<circle cx="660.06" cy="509.82" r="3.2" fill="#1d4ed8"/>
<circle cx="666.32" cy="507.79" r="3.2" fill="#1d4ed8"/>
<circle cx="672.59" cy="506.99" r="3.2" fill="#1d4ed8"/>
<circle cx="678.85" cy="506.58" r="3.2" fill="#1d4ed8"/>
<circle cx="685.11" cy="509.41" r="3.2" fill="#1d4ed8"/>
<circle cx="691.38" cy="509.01" r="3.2" fill="#1d4ed8"/>
<circle cx="697.64" cy="504.96" r="3.2" fill="#1d4ed8"/>
<circle cx="703.91" cy="504.56" r="3.2" fill="#1d4ed8"/>
<circle cx="710.17" cy="504.15" r="3.2" fill="#1d4ed8"/>
<circle cx="716.44" cy="504.56" r="3.2" fill="#1d4ed8"/>
<circle cx="722.70" cy="503.75" r="3.2" fill="#1d4ed8"/>
<circle cx="728.97" cy="503.75" r="3.2" fill="#1d4ed8"/>
<circle cx="735.23" cy="503.35" r="3.2" fill="#1d4ed8"/>
<circle cx="741.49" cy="499.30" r="3.2" fill="#1d4ed8"/>
<circle cx="747.76" cy="496.47" r="3.2" fill="#1d4ed8"/>
<circle cx="754.02" cy="490.00" r="3.2" fill="#1d4ed8"/>
<circle cx="760.29" cy="484.34" r="3.2" fill="#1d4ed8"/>
<circle cx="766.55" cy="481.10" r="3.2" fill="#1d4ed8"/>
<circle cx="772.82" cy="480.29" r="3.2" fill="#1d4ed8"/>
<circle cx="779.08" cy="480.70" r="3.2" fill="#1d4ed8"/>
<circle cx="785.34" cy="460.88" r="3.2" fill="#1d4ed8"/>
<circle cx="791.61" cy="459.26" r="3.2" fill="#1d4ed8"/>
<circle cx="797.87" cy="458.05" r="3.2" fill="#1d4ed8"/>
<circle cx="804.14" cy="456.03" r="3.2" fill="#1d4ed8"/>
<circle cx="810.40" cy="456.03" r="3.2" fill="#1d4ed8"/>
<circle cx="816.67" cy="454.41" r="3.2" fill="#1d4ed8"/>
<circle cx="822.93" cy="450.77" r="3.2" fill="#1d4ed8"/>
<circle cx="829.20" cy="444.30" r="3.2" fill="#1d4ed8"/>
<circle cx="835.46" cy="443.90" r="3.2" fill="#1d4ed8"/>
<circle cx="841.72" cy="600.00" r="3.2" fill="#1d4ed8"/>
<circle cx="847.99" cy="441.88" r="3.2" fill="#1d4ed8"/>
<circle cx="854.25" cy="440.66" r="3.2" fill="#1d4ed8"/>
<circle cx="860.52" cy="439.45" r="3.2" fill="#1d4ed8"/>
<circle cx="866.78" cy="439.04" r="3.2" fill="#1d4ed8"/>
<circle cx="873.05" cy="438.64" r="3.2" fill="#1d4ed8"/>
<circle cx="879.31" cy="437.83" r="3.2" fill="#1d4ed8"/>
<circle cx="885.57" cy="436.62" r="3.2" fill="#1d4ed8"/>
<circle cx="891.84" cy="436.62" r="3.2" fill="#1d4ed8"/>
<circle cx="898.10" cy="434.60" r="3.2" fill="#1d4ed8"/>
<circle cx="904.37" cy="432.17" r="3.2" fill="#1d4ed8"/>
<circle cx="910.63" cy="429.34" r="3.2" fill="#1d4ed8"/>
<circle cx="916.90" cy="428.93" r="3.2" fill="#1d4ed8"/>
<circle cx="923.16" cy="428.53" r="3.2" fill="#1d4ed8"/>
<circle cx="929.43" cy="427.72" r="3.2" fill="#1d4ed8"/>
<circle cx="935.69" cy="426.91" r="3.2" fill="#1d4ed8"/>
<circle cx="941.95" cy="426.10" r="3.2" fill="#1d4ed8"/>
<circle cx="948.22" cy="426.10" r="3.2" fill="#1d4ed8"/>
<circle cx="954.48" cy="426.10" r="3.2" fill="#1d4ed8"/>
<circle cx="960.75" cy="419.63" r="3.2" fill="#1d4ed8"/>
<circle cx="967.01" cy="419.23" r="3.2" fill="#1d4ed8"/>
<circle cx="973.28" cy="418.42" r="3.2" fill="#1d4ed8"/>
<circle cx="979.54" cy="418.01" r="3.2" fill="#1d4ed8"/>
<circle cx="985.80" cy="417.61" r="3.2" fill="#1d4ed8"/>
<circle cx="992.07" cy="417.61" r="3.2" fill="#1d4ed8"/>
<circle cx="998.33" cy="417.61" r="3.2" fill="#1d4ed8"/>
<circle cx="1004.60" cy="417.21" r="3.2" fill="#1d4ed8"/>
<circle cx="1010.86" cy="417.21" r="3.2" fill="#1d4ed8"/>
<circle cx="1017.13" cy="413.57" r="3.2" fill="#1d4ed8"/>
<circle cx="1023.39" cy="411.95" r="3.2" fill="#1d4ed8"/>
<circle cx="1029.66" cy="412.76" r="3.2" fill="#1d4ed8"/>
<circle cx="1035.92" cy="410.74" r="3.2" fill="#1d4ed8"/>
<circle cx="1042.18" cy="410.74" r="3.2" fill="#1d4ed8"/>
<circle cx="1048.45" cy="410.33" r="3.2" fill="#1d4ed8"/>
<circle cx="1054.71" cy="410.33" r="3.2" fill="#1d4ed8"/>
<circle cx="1060.98" cy="410.33" r="3.2" fill="#1d4ed8"/>
<circle cx="1067.24" cy="409.93" r="3.2" fill="#1d4ed8"/>
<circle cx="1073.51" cy="409.93" r="3.2" fill="#1d4ed8"/>
<circle cx="1079.77" cy="409.93" r="3.2" fill="#1d4ed8"/>
<circle cx="1086.03" cy="409.52" r="3.2" fill="#1d4ed8"/>
<circle cx="1092.30" cy="409.52" r="3.2" fill="#1d4ed8"/>
<circle cx="1098.56" cy="409.12" r="3.2" fill="#1d4ed8"/>
<circle cx="1104.83" cy="409.52" r="3.2" fill="#1d4ed8"/>
<circle cx="1111.09" cy="409.12" r="3.2" fill="#1d4ed8"/>
<circle cx="1117.36" cy="407.50" r="3.2" fill="#1d4ed8"/>
<circle cx="1123.62" cy="407.10" r="3.2" fill="#1d4ed8"/>
<circle cx="1129.89" cy="403.05" r="3.2" fill="#1d4ed8"/>
<circle cx="1136.15" cy="399.82" r="3.2" fill="#1d4ed8"/>
<circle cx="1142.41" cy="400.22" r="3.2" fill="#1d4ed8"/>
<circle cx="1148.68" cy="400.62" r="3.2" fill="#1d4ed8"/>
<circle cx="1154.94" cy="400.62" r="3.2" fill="#1d4ed8"/>
<circle cx="1161.21" cy="399.41" r="3.2" fill="#1d4ed8"/>
<circle cx="1167.47" cy="392.94" r="3.2" fill="#1d4ed8"/>
<circle cx="1173.74" cy="391.32" r="3.2" fill="#1d4ed8"/>
<circle cx="1180.00" cy="389.71" r="3.2" fill="#1d4ed8"/>
<text x="635" y="695" text-anchor="middle" font-size="14" fill="#111" font-family="sans-serif">Date</text>
<text x="24" y="325" text-anchor="middle" font-size="14" fill="#111" transform="rotate(-90 24,325)" font-family="sans-serif">Passed files</text>
</svg>
