<?xml version="1.0" encoding="UTF-8"?>
<svg xmlns="http://www.w3.org/2000/svg" width="1280" height="720" viewBox="0 0 1280 720">
<rect width="100%" height="100%" fill="#ffffff"/>
<text x="640" y="30" text-anchor="middle" font-size="22" font-family="sans-serif">Roast passed files history</text>
<line x1="90" y1="600" x2="1180" y2="600" stroke="#333" stroke-width="1.5"/>
<line x1="90" y1="50" x2="90" y2="600" stroke="#333" stroke-width="1.5"/>
<line x1="90" y1="600.00" x2="1180" y2="600.00" stroke="#e5e7eb" stroke-width="1"/>
<text x="78" y="605.00" text-anchor="end" font-size="12" fill="#111" font-family="sans-serif">0</text>
<line x1="90" y1="397.79" x2="1180" y2="397.79" stroke="#e5e7eb" stroke-width="1"/>
<text x="78" y="402.79" text-anchor="end" font-size="12" fill="#111" font-family="sans-serif">500</text>
<line x1="90" y1="195.59" x2="1180" y2="195.59" stroke="#e5e7eb" stroke-width="1"/>
<text x="78" y="200.59" text-anchor="end" font-size="12" fill="#111" font-family="sans-serif">1000</text>
<line x1="90.00" y1="600" x2="90.00" y2="606" stroke="#333" stroke-width="1"/>
<text x="90.00" y="624" text-anchor="end" font-size="11" fill="#111" transform="rotate(-40 90.00,624)" font-family="sans-serif">2026-02-12</text>
<line x1="224.02" y1="600" x2="224.02" y2="606" stroke="#333" stroke-width="1"/>
<text x="224.02" y="624" text-anchor="end" font-size="11" fill="#111" transform="rotate(-40 224.02,624)" font-family="sans-serif">2026-02-17</text>
<line x1="358.03" y1="600" x2="358.03" y2="606" stroke="#333" stroke-width="1"/>
<text x="358.03" y="624" text-anchor="end" font-size="11" fill="#111" transform="rotate(-40 358.03,624)" font-family="sans-serif">2026-02-18</text>
<line x1="492.05" y1="600" x2="492.05" y2="606" stroke="#333" stroke-width="1"/>
<text x="492.05" y="624" text-anchor="end" font-size="11" fill="#111" transform="rotate(-40 492.05,624)" font-family="sans-serif">2026-02-21</text>
<line x1="626.07" y1="600" x2="626.07" y2="606" stroke="#333" stroke-width="1"/>
<text x="626.07" y="624" text-anchor="end" font-size="11" fill="#111" transform="rotate(-40 626.07,624)" font-family="sans-serif">2026-02-25</text>
<line x1="760.08" y1="600" x2="760.08" y2="606" stroke="#333" stroke-width="1"/>
<text x="760.08" y="624" text-anchor="end" font-size="11" fill="#111" transform="rotate(-40 760.08,624)" font-family="sans-serif">2026-02-26</text>
<line x1="894.10" y1="600" x2="894.10" y2="606" stroke="#333" stroke-width="1"/>
<text x="894.10" y="624" text-anchor="end" font-size="11" fill="#111" transform="rotate(-40 894.10,624)" font-family="sans-serif">2026-02-28</text>
<line x1="1028.11" y1="600" x2="1028.11" y2="606" stroke="#333" stroke-width="1"/>
<text x="1028.11" y="624" text-anchor="end" font-size="11" fill="#111" transform="rotate(-40 1028.11,624)" font-family="sans-serif">2026-03-01</text>
<line x1="1162.13" y1="600" x2="1162.13" y2="606" stroke="#333" stroke-width="1"/>
<text x="1162.13" y="624" text-anchor="end" font-size="11" fill="#111" transform="rotate(-40 1162.13,624)" font-family="sans-serif">2026-03-06</text>
<line x1="1180.00" y1="600" x2="1180.00" y2="606" stroke="#333" stroke-width="1"/>
<text x="1180.00" y="624" text-anchor="end" font-size="11" fill="#111" transform="rotate(-40 1180.00,624)" font-family="sans-serif">2026-03-06</text>
<line x1="90" y1="75.88" x2="1180" y2="75.88" stroke="#dc2626" stroke-width="1.5" stroke-dasharray="8,4"/>
<text x="1184" y="79.88" font-size="12" fill="#dc2626" font-family="sans-serif">Goal: 1296</text>
<polyline fill="none" stroke="#2563eb" stroke-width="3" points="90.00,540.55 94.47,538.53 98.93,536.91 103.40,534.49 107.87,534.49 112.34,533.27 116.80,532.46 121.27,532.87 125.74,532.06 130.20,532.46 134.67,532.06 139.14,568.46 143.61,568.46 148.07,566.43 152.54,545.00 157.01,545.00 161.48,544.19 165.94,543.79 170.41,543.79 174.88,543.38 179.34,541.76 183.81,541.36 188.28,540.96 192.75,540.96 197.21,539.34 201.68,539.34 206.15,556.73 210.61,556.73 215.08,555.51 219.55,551.07 224.02,538.93 228.48,538.93 232.95,538.93 237.42,538.12 241.89,536.91 246.35,536.91 250.82,536.51 255.29,536.51 259.75,556.73 264.22,556.73 268.69,556.73 273.16,556.73 277.62,535.29 282.09,535.29 286.56,535.29 291.02,535.29 295.49,534.49 299.96,534.08 304.43,533.68 308.89,532.87 313.36,532.06 317.83,532.06 322.30,531.25 326.76,530.85 331.23,530.44 335.70,530.04 340.16,530.04 344.63,529.23 349.10,529.23 353.57,529.23 358.03,528.42 362.50,528.42 366.97,527.61 371.43,527.21 375.90,526.80 380.37,526.40 384.84,525.18 389.30,523.57 393.77,523.57 398.24,523.16 402.70,522.76 407.17,522.35 411.64,521.54 416.11,519.52 420.57,517.50 425.04,517.50 429.51,517.50 433.98,517.50 438.44,517.50 442.91,517.50 447.38,517.10 451.84,516.69 456.31,515.48 460.78,515.07 465.25,514.67 469.71,513.86 474.18,514.26 478.65,512.24 483.11,511.84 487.58,511.84 492.05,511.03 496.52,509.82 500.98,507.79 505.45,506.99 509.92,506.58 514.39,509.41 518.85,509.01 523.32,504.96 527.79,504.56 532.25,504.15 536.72,504.56 541.19,503.75 545.66,503.75 550.12,503.35 554.59,499.30 559.06,496.47 563.52,490.00 567.99,484.34 572.46,481.10 576.93,480.29 581.39,480.70 585.86,460.88 590.33,459.26 594.80,458.05 599.26,456.03 603.73,456.03 608.20,454.41 612.66,450.77 617.13,444.30 621.60,443.90 626.07,600.00 630.53,441.88 635.00,440.66 639.47,439.45 643.93,439.04 648.40,438.64 652.87,437.83 657.34,436.62 661.80,436.62 666.27,434.60 670.74,432.17 675.20,429.34 679.67,428.93 684.14,428.53 688.61,427.72 693.07,426.91 697.54,426.10 702.01,426.10 706.48,426.10 710.94,419.63 715.41,419.23 719.88,418.42 724.34,418.01 728.81,417.61 733.28,417.61 737.75,417.61 742.21,417.21 746.68,417.21 751.15,413.57 755.61,411.95 760.08,412.76 764.55,410.74 769.02,410.74 773.48,410.33 777.95,410.33 782.42,410.33 786.89,409.93 791.35,409.93 795.82,409.93 800.29,409.52 804.75,409.52 809.22,409.12 813.69,409.52 818.16,409.12 822.62,407.50 827.09,407.10 831.56,403.05 836.02,399.82 840.49,400.22 844.96,400.62 849.43,400.62 853.89,399.41 858.36,392.94 862.83,391.32 867.30,389.30 871.76,389.30 876.23,388.49 880.70,375.15 885.16,374.74 889.63,374.74 894.10,374.74 898.57,374.74 903.03,374.34 907.50,374.34 911.97,374.34 916.43,374.34 920.90,374.34 925.37,373.93 929.84,373.12 934.30,372.72 938.77,373.53 943.24,435.81 947.70,372.32 952.17,372.72 956.64,371.91 961.11,371.91 965.57,372.32 970.04,371.10 974.51,369.89 978.98,369.89 983.44,369.89 987.91,369.49 992.38,369.89 996.84,369.08 1001.31,368.68 1005.78,368.27 1010.25,367.87 1014.71,367.06 1019.18,367.46 1023.65,367.06 1028.11,366.25 1032.58,368.27 1037.05,368.68 1041.52,368.68 1045.98,368.27 1050.45,369.08 1054.92,367.87 1059.39,367.46 1063.85,367.06 1068.32,360.18 1072.79,359.78 1077.25,359.38 1081.72,356.95 1086.19,357.35 1090.66,357.76 1095.12,355.33 1099.59,355.74 1104.06,357.35 1108.52,355.33 1112.99,356.14 1117.46,355.74 1121.93,356.14 1126.39,354.12 1130.86,354.93 1135.33,356.14 1139.80,354.52 1144.26,353.71 1148.73,354.12 1153.20,354.93 1157.66,352.90 1162.13,353.71 1166.60,353.31 1171.07,353.31 1175.53,354.52 1180.00,352.90"/>
<circle cx="90.00" cy="540.55" r="3.2" fill="#1d4ed8"/>
<circle cx="94.47" cy="538.53" r="3.2" fill="#1d4ed8"/>
<circle cx="98.93" cy="536.91" r="3.2" fill="#1d4ed8"/>
<circle cx="103.40" cy="534.49" r="3.2" fill="#1d4ed8"/>
<circle cx="107.87" cy="534.49" r="3.2" fill="#1d4ed8"/>
<circle cx="112.34" cy="533.27" r="3.2" fill="#1d4ed8"/>
<circle cx="116.80" cy="532.46" r="3.2" fill="#1d4ed8"/>
<circle cx="121.27" cy="532.87" r="3.2" fill="#1d4ed8"/>
<circle cx="125.74" cy="532.06" r="3.2" fill="#1d4ed8"/>
<circle cx="130.20" cy="532.46" r="3.2" fill="#1d4ed8"/>
<circle cx="134.67" cy="532.06" r="3.2" fill="#1d4ed8"/>
<circle cx="139.14" cy="568.46" r="3.2" fill="#1d4ed8"/>
<circle cx="143.61" cy="568.46" r="3.2" fill="#1d4ed8"/>
<circle cx="148.07" cy="566.43" r="3.2" fill="#1d4ed8"/>
<circle cx="152.54" cy="545.00" r="3.2" fill="#1d4ed8"/>
<circle cx="157.01" cy="545.00" r="3.2" fill="#1d4ed8"/>
<circle cx="161.48" cy="544.19" r="3.2" fill="#1d4ed8"/>
<circle cx="165.94" cy="543.79" r="3.2" fill="#1d4ed8"/>
<circle cx="170.41" cy="543.79" r="3.2" fill="#1d4ed8"/>
<circle cx="174.88" cy="543.38" r="3.2" fill="#1d4ed8"/>
<circle cx="179.34" cy="541.76" r="3.2" fill="#1d4ed8"/>
<circle cx="183.81" cy="541.36" r="3.2" fill="#1d4ed8"/>
<circle cx="188.28" cy="540.96" r="3.2" fill="#1d4ed8"/>
<circle cx="192.75" cy="540.96" r="3.2" fill="#1d4ed8"/>
<circle cx="197.21" cy="539.34" r="3.2" fill="#1d4ed8"/>
<circle cx="201.68" cy="539.34" r="3.2" fill="#1d4ed8"/>
<circle cx="206.15" cy="556.73" r="3.2" fill="#1d4ed8"/>
<circle cx="210.61" cy="556.73" r="3.2" fill="#1d4ed8"/>
<circle cx="215.08" cy="555.51" r="3.2" fill="#1d4ed8"/>
<circle cx="219.55" cy="551.07" r="3.2" fill="#1d4ed8"/>
<circle cx="224.02" cy="538.93" r="3.2" fill="#1d4ed8"/>
<circle cx="228.48" cy="538.93" r="3.2" fill="#1d4ed8"/>
<circle cx="232.95" cy="538.93" r="3.2" fill="#1d4ed8"/>
<circle cx="237.42" cy="538.12" r="3.2" fill="#1d4ed8"/>
<circle cx="241.89" cy="536.91" r="3.2" fill="#1d4ed8"/>
<circle cx="246.35" cy="536.91" r="3.2" fill="#1d4ed8"/>
<circle cx="250.82" cy="536.51" r="3.2" fill="#1d4ed8"/>
<circle cx="255.29" cy="536.51" r="3.2" fill="#1d4ed8"/>
<circle cx="259.75" cy="556.73" r="3.2" fill="#1d4ed8"/>
<circle cx="264.22" cy="556.73" r="3.2" fill="#1d4ed8"/>
<circle cx="268.69" cy="556.73" r="3.2" fill="#1d4ed8"/>
<circle cx="273.16" cy="556.73" r="3.2" fill="#1d4ed8"/>
<circle cx="277.62" cy="535.29" r="3.2" fill="#1d4ed8"/>
<circle cx="282.09" cy="535.29" r="3.2" fill="#1d4ed8"/>
<circle cx="286.56" cy="535.29" r="3.2" fill="#1d4ed8"/>
<circle cx="291.02" cy="535.29" r="3.2" fill="#1d4ed8"/>
<circle cx="295.49" cy="534.49" r="3.2" fill="#1d4ed8"/>
<circle cx="299.96" cy="534.08" r="3.2" fill="#1d4ed8"/>
<circle cx="304.43" cy="533.68" r="3.2" fill="#1d4ed8"/>
<circle cx="308.89" cy="532.87" r="3.2" fill="#1d4ed8"/>
<circle cx="313.36" cy="532.06" r="3.2" fill="#1d4ed8"/>
<circle cx="317.83" cy="532.06" r="3.2" fill="#1d4ed8"/>
<circle cx="322.30" cy="531.25" r="3.2" fill="#1d4ed8"/>
<circle cx="326.76" cy="530.85" r="3.2" fill="#1d4ed8"/>
<circle cx="331.23" cy="530.44" r="3.2" fill="#1d4ed8"/>
<circle cx="335.70" cy="530.04" r="3.2" fill="#1d4ed8"/>
<circle cx="340.16" cy="530.04" r="3.2" fill="#1d4ed8"/>
<circle cx="344.63" cy="529.23" r="3.2" fill="#1d4ed8"/>
<circle cx="349.10" cy="529.23" r="3.2" fill="#1d4ed8"/>
<circle cx="353.57" cy="529.23" r="3.2" fill="#1d4ed8"/>
<circle cx="358.03" cy="528.42" r="3.2" fill="#1d4ed8"/>
<circle cx="362.50" cy="528.42" r="3.2" fill="#1d4ed8"/>
<circle cx="366.97" cy="527.61" r="3.2" fill="#1d4ed8"/>
<circle cx="371.43" cy="527.21" r="3.2" fill="#1d4ed8"/>
<circle cx="375.90" cy="526.80" r="3.2" fill="#1d4ed8"/>
<circle cx="380.37" cy="526.40" r="3.2" fill="#1d4ed8"/>
<circle cx="384.84" cy="525.18" r="3.2" fill="#1d4ed8"/>
<circle cx="389.30" cy="523.57" r="3.2" fill="#1d4ed8"/>
<circle cx="393.77" cy="523.57" r="3.2" fill="#1d4ed8"/>
<circle cx="398.24" cy="523.16" r="3.2" fill="#1d4ed8"/>
<circle cx="402.70" cy="522.76" r="3.2" fill="#1d4ed8"/>
<circle cx="407.17" cy="522.35" r="3.2" fill="#1d4ed8"/>
<circle cx="411.64" cy="521.54" r="3.2" fill="#1d4ed8"/>
<circle cx="416.11" cy="519.52" r="3.2" fill="#1d4ed8"/>
<circle cx="420.57" cy="517.50" r="3.2" fill="#1d4ed8"/>
<circle cx="425.04" cy="517.50" r="3.2" fill="#1d4ed8"/>
<circle cx="429.51" cy="517.50" r="3.2" fill="#1d4ed8"/>
<circle cx="433.98" cy="517.50" r="3.2" fill="#1d4ed8"/>
<circle cx="438.44" cy="517.50" r="3.2" fill="#1d4ed8"/>
<circle cx="442.91" cy="517.50" r="3.2" fill="#1d4ed8"/>
<circle cx="447.38" cy="517.10" r="3.2" fill="#1d4ed8"/>
<circle cx="451.84" cy="516.69" r="3.2" fill="#1d4ed8"/>
<circle cx="456.31" cy="515.48" r="3.2" fill="#1d4ed8"/>
<circle cx="460.78" cy="515.07" r="3.2" fill="#1d4ed8"/>
<circle cx="465.25" cy="514.67" r="3.2" fill="#1d4ed8"/>
<circle cx="469.71" cy="513.86" r="3.2" fill="#1d4ed8"/>
<circle cx="474.18" cy="514.26" r="3.2" fill="#1d4ed8"/>
<circle cx="478.65" cy="512.24" r="3.2" fill="#1d4ed8"/>
<circle cx="483.11" cy="511.84" r="3.2" fill="#1d4ed8"/>
<circle cx="487.58" cy="511.84" r="3.2" fill="#1d4ed8"/>
<circle cx="492.05" cy="511.03" r="3.2" fill="#1d4ed8"/>
<circle cx="496.52" cy="509.82" r="3.2" fill="#1d4ed8"/>
<circle cx="500.98" cy="507.79" r="3.2" fill="#1d4ed8"/>
<circle cx="505.45" cy="506.99" r="3.2" fill="#1d4ed8"/>
<circle cx="509.92" cy="506.58" r="3.2" fill="#1d4ed8"/>
<circle cx="514.39" cy="509.41" r="3.2" fill="#1d4ed8"/>
<circle cx="518.85" cy="509.01" r="3.2" fill="#1d4ed8"/>
<circle cx="523.32" cy="504.96" r="3.2" fill="#1d4ed8"/>
<circle cx="527.79" cy="504.56" r="3.2" fill="#1d4ed8"/>
<circle cx="532.25" cy="504.15" r="3.2" fill="#1d4ed8"/>
<circle cx="536.72" cy="504.56" r="3.2" fill="#1d4ed8"/>
<circle cx="541.19" cy="503.75" r="3.2" fill="#1d4ed8"/>
<circle cx="545.66" cy="503.75" r="3.2" fill="#1d4ed8"/>
<circle cx="550.12" cy="503.35" r="3.2" fill="#1d4ed8"/>
<circle cx="554.59" cy="499.30" r="3.2" fill="#1d4ed8"/>
<circle cx="559.06" cy="496.47" r="3.2" fill="#1d4ed8"/>
<circle cx="563.52" cy="490.00" r="3.2" fill="#1d4ed8"/>
<circle cx="567.99" cy="484.34" r="3.2" fill="#1d4ed8"/>
<circle cx="572.46" cy="481.10" r="3.2" fill="#1d4ed8"/>
<circle cx="576.93" cy="480.29" r="3.2" fill="#1d4ed8"/>
<circle cx="581.39" cy="480.70" r="3.2" fill="#1d4ed8"/>
<circle cx="585.86" cy="460.88" r="3.2" fill="#1d4ed8"/>
<circle cx="590.33" cy="459.26" r="3.2" fill="#1d4ed8"/>
<circle cx="594.80" cy="458.05" r="3.2" fill="#1d4ed8"/>
<circle cx="599.26" cy="456.03" r="3.2" fill="#1d4ed8"/>
<circle cx="603.73" cy="456.03" r="3.2" fill="#1d4ed8"/>
<circle cx="608.20" cy="454.41" r="3.2" fill="#1d4ed8"/>
<circle cx="612.66" cy="450.77" r="3.2" fill="#1d4ed8"/>
<circle cx="617.13" cy="444.30" r="3.2" fill="#1d4ed8"/>
<circle cx="621.60" cy="443.90" r="3.2" fill="#1d4ed8"/>
<circle cx="626.07" cy="600.00" r="3.2" fill="#1d4ed8"/>
<circle cx="630.53" cy="441.88" r="3.2" fill="#1d4ed8"/>
<circle cx="635.00" cy="440.66" r="3.2" fill="#1d4ed8"/>
<circle cx="639.47" cy="439.45" r="3.2" fill="#1d4ed8"/>
<circle cx="643.93" cy="439.04" r="3.2" fill="#1d4ed8"/>
<circle cx="648.40" cy="438.64" r="3.2" fill="#1d4ed8"/>
<circle cx="652.87" cy="437.83" r="3.2" fill="#1d4ed8"/>
<circle cx="657.34" cy="436.62" r="3.2" fill="#1d4ed8"/>
<circle cx="661.80" cy="436.62" r="3.2" fill="#1d4ed8"/>
<circle cx="666.27" cy="434.60" r="3.2" fill="#1d4ed8"/>
<circle cx="670.74" cy="432.17" r="3.2" fill="#1d4ed8"/>
<circle cx="675.20" cy="429.34" r="3.2" fill="#1d4ed8"/>
<circle cx="679.67" cy="428.93" r="3.2" fill="#1d4ed8"/>
<circle cx="684.14" cy="428.53" r="3.2" fill="#1d4ed8"/>
<circle cx="688.61" cy="427.72" r="3.2" fill="#1d4ed8"/>
<circle cx="693.07" cy="426.91" r="3.2" fill="#1d4ed8"/>
<circle cx="697.54" cy="426.10" r="3.2" fill="#1d4ed8"/>
<circle cx="702.01" cy="426.10" r="3.2" fill="#1d4ed8"/>
<circle cx="706.48" cy="426.10" r="3.2" fill="#1d4ed8"/>
<circle cx="710.94" cy="419.63" r="3.2" fill="#1d4ed8"/>
<circle cx="715.41" cy="419.23" r="3.2" fill="#1d4ed8"/>
<circle cx="719.88" cy="418.42" r="3.2" fill="#1d4ed8"/>
<circle cx="724.34" cy="418.01" r="3.2" fill="#1d4ed8"/>
<circle cx="728.81" cy="417.61" r="3.2" fill="#1d4ed8"/>
<circle cx="733.28" cy="417.61" r="3.2" fill="#1d4ed8"/>
<circle cx="737.75" cy="417.61" r="3.2" fill="#1d4ed8"/>
<circle cx="742.21" cy="417.21" r="3.2" fill="#1d4ed8"/>
<circle cx="746.68" cy="417.21" r="3.2" fill="#1d4ed8"/>
<circle cx="751.15" cy="413.57" r="3.2" fill="#1d4ed8"/>
<circle cx="755.61" cy="411.95" r="3.2" fill="#1d4ed8"/>
<circle cx="760.08" cy="412.76" r="3.2" fill="#1d4ed8"/>
<circle cx="764.55" cy="410.74" r="3.2" fill="#1d4ed8"/>
<circle cx="769.02" cy="410.74" r="3.2" fill="#1d4ed8"/>
<circle cx="773.48" cy="410.33" r="3.2" fill="#1d4ed8"/>
<circle cx="777.95" cy="410.33" r="3.2" fill="#1d4ed8"/>
<circle cx="782.42" cy="410.33" r="3.2" fill="#1d4ed8"/>
<circle cx="786.89" cy="409.93" r="3.2" fill="#1d4ed8"/>
<circle cx="791.35" cy="409.93" r="3.2" fill="#1d4ed8"/>
<circle cx="795.82" cy="409.93" r="3.2" fill="#1d4ed8"/>
<circle cx="800.29" cy="409.52" r="3.2" fill="#1d4ed8"/>
<circle cx="804.75" cy="409.52" r="3.2" fill="#1d4ed8"/>
<circle cx="809.22" cy="409.12" r="3.2" fill="#1d4ed8"/>
<circle cx="813.69" cy="409.52" r="3.2" fill="#1d4ed8"/>
<circle cx="818.16" cy="409.12" r="3.2" fill="#1d4ed8"/>
<circle cx="822.62" cy="407.50" r="3.2" fill="#1d4ed8"/>
<circle cx="827.09" cy="407.10" r="3.2" fill="#1d4ed8"/>
<circle cx="831.56" cy="403.05" r="3.2" fill="#1d4ed8"/>
<circle cx="836.02" cy="399.82" r="3.2" fill="#1d4ed8"/>
<circle cx="840.49" cy="400.22" r="3.2" fill="#1d4ed8"/>
<circle cx="844.96" cy="400.62" r="3.2" fill="#1d4ed8"/>
<circle cx="849.43" cy="400.62" r="3.2" fill="#1d4ed8"/>
<circle cx="853.89" cy="399.41" r="3.2" fill="#1d4ed8"/>
<circle cx="858.36" cy="392.94" r="3.2" fill="#1d4ed8"/>
<circle cx="862.83" cy="391.32" r="3.2" fill="#1d4ed8"/>
<circle cx="867.30" cy="389.30" r="3.2" fill="#1d4ed8"/>
<circle cx="871.76" cy="389.30" r="3.2" fill="#1d4ed8"/>
<circle cx="876.23" cy="388.49" r="3.2" fill="#1d4ed8"/>
<circle cx="880.70" cy="375.15" r="3.2" fill="#1d4ed8"/>
<circle cx="885.16" cy="374.74" r="3.2" fill="#1d4ed8"/>
<circle cx="889.63" cy="374.74" r="3.2" fill="#1d4ed8"/>
<circle cx="894.10" cy="374.74" r="3.2" fill="#1d4ed8"/>
<circle cx="898.57" cy="374.74" r="3.2" fill="#1d4ed8"/>
<circle cx="903.03" cy="374.34" r="3.2" fill="#1d4ed8"/>
<circle cx="907.50" cy="374.34" r="3.2" fill="#1d4ed8"/>
<circle cx="911.97" cy="374.34" r="3.2" fill="#1d4ed8"/>
<circle cx="916.43" cy="374.34" r="3.2" fill="#1d4ed8"/>
<circle cx="920.90" cy="374.34" r="3.2" fill="#1d4ed8"/>
<circle cx="925.37" cy="373.93" r="3.2" fill="#1d4ed8"/>
<circle cx="929.84" cy="373.12" r="3.2" fill="#1d4ed8"/>
<circle cx="934.30" cy="372.72" r="3.2" fill="#1d4ed8"/>
<circle cx="938.77" cy="373.53" r="3.2" fill="#1d4ed8"/>
<circle cx="943.24" cy="435.81" r="3.2" fill="#1d4ed8"/>
<circle cx="947.70" cy="372.32" r="3.2" fill="#1d4ed8"/>
<circle cx="952.17" cy="372.72" r="3.2" fill="#1d4ed8"/>
<circle cx="956.64" cy="371.91" r="3.2" fill="#1d4ed8"/>
<circle cx="961.11" cy="371.91" r="3.2" fill="#1d4ed8"/>
<circle cx="965.57" cy="372.32" r="3.2" fill="#1d4ed8"/>
<circle cx="970.04" cy="371.10" r="3.2" fill="#1d4ed8"/>
<circle cx="974.51" cy="369.89" r="3.2" fill="#1d4ed8"/>
<circle cx="978.98" cy="369.89" r="3.2" fill="#1d4ed8"/>
<circle cx="983.44" cy="369.89" r="3.2" fill="#1d4ed8"/>
<circle cx="987.91" cy="369.49" r="3.2" fill="#1d4ed8"/>
<circle cx="992.38" cy="369.89" r="3.2" fill="#1d4ed8"/>
<circle cx="996.84" cy="369.08" r="3.2" fill="#1d4ed8"/>
<circle cx="1001.31" cy="368.68" r="3.2" fill="#1d4ed8"/>
<circle cx="1005.78" cy="368.27" r="3.2" fill="#1d4ed8"/>
<circle cx="1010.25" cy="367.87" r="3.2" fill="#1d4ed8"/>
<circle cx="1014.71" cy="367.06" r="3.2" fill="#1d4ed8"/>
<circle cx="1019.18" cy="367.46" r="3.2" fill="#1d4ed8"/>
<circle cx="1023.65" cy="367.06" r="3.2" fill="#1d4ed8"/>
<circle cx="1028.11" cy="366.25" r="3.2" fill="#1d4ed8"/>
<circle cx="1032.58" cy="368.27" r="3.2" fill="#1d4ed8"/>
<circle cx="1037.05" cy="368.68" r="3.2" fill="#1d4ed8"/>
<circle cx="1041.52" cy="368.68" r="3.2" fill="#1d4ed8"/>
<circle cx="1045.98" cy="368.27" r="3.2" fill="#1d4ed8"/>
<circle cx="1050.45" cy="369.08" r="3.2" fill="#1d4ed8"/>
<circle cx="1054.92" cy="367.87" r="3.2" fill="#1d4ed8"/>
<circle cx="1059.39" cy="367.46" r="3.2" fill="#1d4ed8"/>
<circle cx="1063.85" cy="367.06" r="3.2" fill="#1d4ed8"/>
<circle cx="1068.32" cy="360.18" r="3.2" fill="#1d4ed8"/>
<circle cx="1072.79" cy="359.78" r="3.2" fill="#1d4ed8"/>
<circle cx="1077.25" cy="359.38" r="3.2" fill="#1d4ed8"/>
<circle cx="1081.72" cy="356.95" r="3.2" fill="#1d4ed8"/>
<circle cx="1086.19" cy="357.35" r="3.2" fill="#1d4ed8"/>
<circle cx="1090.66" cy="357.76" r="3.2" fill="#1d4ed8"/>
<circle cx="1095.12" cy="355.33" r="3.2" fill="#1d4ed8"/>
<circle cx="1099.59" cy="355.74" r="3.2" fill="#1d4ed8"/>
<circle cx="1104.06" cy="357.35" r="3.2" fill="#1d4ed8"/>
<circle cx="1108.52" cy="355.33" r="3.2" fill="#1d4ed8"/>
<circle cx="1112.99" cy="356.14" r="3.2" fill="#1d4ed8"/>
<circle cx="1117.46" cy="355.74" r="3.2" fill="#1d4ed8"/>
<circle cx="1121.93" cy="356.14" r="3.2" fill="#1d4ed8"/>
<circle cx="1126.39" cy="354.12" r="3.2" fill="#1d4ed8"/>
<circle cx="1130.86" cy="354.93" r="3.2" fill="#1d4ed8"/>
<circle cx="1135.33" cy="356.14" r="3.2" fill="#1d4ed8"/>
<circle cx="1139.80" cy="354.52" r="3.2" fill="#1d4ed8"/>
<circle cx="1144.26" cy="353.71" r="3.2" fill="#1d4ed8"/>
<circle cx="1148.73" cy="354.12" r="3.2" fill="#1d4ed8"/>
<circle cx="1153.20" cy="354.93" r="3.2" fill="#1d4ed8"/>
<circle cx="1157.66" cy="352.90" r="3.2" fill="#1d4ed8"/>
<circle cx="1162.13" cy="353.71" r="3.2" fill="#1d4ed8"/>
<circle cx="1166.60" cy="353.31" r="3.2" fill="#1d4ed8"/>
<circle cx="1171.07" cy="353.31" r="3.2" fill="#1d4ed8"/>
<circle cx="1175.53" cy="354.52" r="3.2" fill="#1d4ed8"/>
<circle cx="1180.00" cy="352.90" r="3.2" fill="#1d4ed8"/>
<text x="635" y="695" text-anchor="middle" font-size="14" fill="#111" font-family="sans-serif">Date</text>
<text x="24" y="325" text-anchor="middle" font-size="14" fill="#111" transform="rotate(-90 24,325)" font-family="sans-serif">Passed files</text>
</svg>
