<?xml version="1.0" encoding="UTF-8"?>
<svg xmlns="http://www.w3.org/2000/svg" width="1280" height="720" viewBox="0 0 1280 720">
<rect width="100%" height="100%" fill="#ffffff"/>
<text x="640" y="30" text-anchor="middle" font-size="22" font-family="sans-serif">Roast passed files history</text>
<line x1="90" y1="600" x2="1180" y2="600" stroke="#333" stroke-width="1.5"/>
<line x1="90" y1="50" x2="90" y2="600" stroke="#333" stroke-width="1.5"/>
<line x1="90" y1="600.00" x2="1180" y2="600.00" stroke="#e5e7eb" stroke-width="1"/>
<text x="78" y="605.00" text-anchor="end" font-size="12" fill="#111" font-family="sans-serif">0</text>
<line x1="90" y1="397.79" x2="1180" y2="397.79" stroke="#e5e7eb" stroke-width="1"/>
<text x="78" y="402.79" text-anchor="end" font-size="12" fill="#111" font-family="sans-serif">500</text>
<line x1="90" y1="195.59" x2="1180" y2="195.59" stroke="#e5e7eb" stroke-width="1"/>
<text x="78" y="200.59" text-anchor="end" font-size="12" fill="#111" font-family="sans-serif">1000</text>
<line x1="90.00" y1="600" x2="90.00" y2="606" stroke="#333" stroke-width="1"/>
<text x="90.00" y="624" text-anchor="end" font-size="11" fill="#111" transform="rotate(-40 90.00,624)" font-family="sans-serif">2026-02-12</text>
<line x1="226.25" y1="600" x2="226.25" y2="606" stroke="#333" stroke-width="1"/>
<text x="226.25" y="624" text-anchor="end" font-size="11" fill="#111" transform="rotate(-40 226.25,624)" font-family="sans-serif">2026-02-17</text>
<line x1="362.50" y1="600" x2="362.50" y2="606" stroke="#333" stroke-width="1"/>
<text x="362.50" y="624" text-anchor="end" font-size="11" fill="#111" transform="rotate(-40 362.50,624)" font-family="sans-serif">2026-02-20</text>
<line x1="498.75" y1="600" x2="498.75" y2="606" stroke="#333" stroke-width="1"/>
<text x="498.75" y="624" text-anchor="end" font-size="11" fill="#111" transform="rotate(-40 498.75,624)" font-family="sans-serif">2026-02-24</text>
<line x1="635.00" y1="600" x2="635.00" y2="606" stroke="#333" stroke-width="1"/>
<text x="635.00" y="624" text-anchor="end" font-size="11" fill="#111" transform="rotate(-40 635.00,624)" font-family="sans-serif">2026-02-26</text>
<line x1="771.25" y1="600" x2="771.25" y2="606" stroke="#333" stroke-width="1"/>
<text x="771.25" y="624" text-anchor="end" font-size="11" fill="#111" transform="rotate(-40 771.25,624)" font-family="sans-serif">2026-02-28</text>
<line x1="907.50" y1="600" x2="907.50" y2="606" stroke="#333" stroke-width="1"/>
<text x="907.50" y="624" text-anchor="end" font-size="11" fill="#111" transform="rotate(-40 907.50,624)" font-family="sans-serif">2026-03-04</text>
<line x1="1043.75" y1="600" x2="1043.75" y2="606" stroke="#333" stroke-width="1"/>
<text x="1043.75" y="624" text-anchor="end" font-size="11" fill="#111" transform="rotate(-40 1043.75,624)" font-family="sans-serif">2026-03-06</text>
<line x1="1180.00" y1="600" x2="1180.00" y2="606" stroke="#333" stroke-width="1"/>
<text x="1180.00" y="624" text-anchor="end" font-size="11" fill="#111" transform="rotate(-40 1180.00,624)" font-family="sans-serif">2026-03-07</text>
<line x1="90" y1="75.88" x2="1180" y2="75.88" stroke="#dc2626" stroke-width="1.5" stroke-dasharray="8,4"/>
<text x="1184" y="79.88" font-size="12" fill="#dc2626" font-family="sans-serif">Goal: 1296</text>
<polyline fill="none" stroke="#2563eb" stroke-width="3" points="90.00,540.55 93.78,538.53 97.57,536.91 101.35,534.49 105.14,534.49 108.92,533.27 112.71,532.46 116.49,532.87 120.28,532.06 124.06,532.46 127.85,532.06 131.63,568.46 135.42,568.46 139.20,566.43 142.99,545.00 146.77,545.00 150.56,544.19 154.34,543.79 158.12,543.79 161.91,543.38 165.69,541.76 169.48,541.36 173.26,540.96 177.05,540.96 180.83,539.34 184.62,539.34 188.40,556.73 192.19,556.73 195.97,555.51 199.76,551.07 203.54,538.93 207.33,538.93 211.11,538.93 214.90,538.12 218.68,536.91 222.47,536.91 226.25,536.51 230.03,536.51 233.82,556.73 237.60,556.73 241.39,556.73 245.17,556.73 248.96,535.29 252.74,535.29 256.53,535.29 260.31,535.29 264.10,534.49 267.88,534.08 271.67,533.68 275.45,532.87 279.24,532.06 283.02,532.06 286.81,531.25 290.59,530.85 294.38,530.44 298.16,530.04 301.94,530.04 305.73,529.23 309.51,529.23 313.30,529.23 317.08,528.42 320.87,528.42 324.65,527.61 328.44,527.21 332.22,526.80 336.01,526.40 339.79,525.18 343.58,523.57 347.36,523.57 351.15,523.16 354.93,522.76 358.72,522.35 362.50,521.54 366.28,519.52 370.07,517.50 373.85,517.50 377.64,517.50 381.42,517.50 385.21,517.50 388.99,517.50 392.78,517.10 396.56,516.69 400.35,515.48 404.13,515.07 407.92,514.67 411.70,513.86 415.49,514.26 419.27,512.24 423.06,511.84 426.84,511.84 430.62,511.03 434.41,509.82 438.19,507.79 441.98,506.99 445.76,506.58 449.55,509.41 453.33,509.01 457.12,504.96 460.90,504.56 464.69,504.15 468.47,504.56 472.26,503.75 476.04,503.75 479.83,503.35 483.61,499.30 487.40,496.47 491.18,490.00 494.97,484.34 498.75,481.10 502.53,480.29 506.32,480.70 510.10,460.88 513.89,459.26 517.67,458.05 521.46,456.03 525.24,456.03 529.03,454.41 532.81,450.77 536.60,444.30 540.38,443.90 544.17,600.00 547.95,441.88 551.74,440.66 555.52,439.45 559.31,439.04 563.09,438.64 566.88,437.83 570.66,436.62 574.44,436.62 578.23,434.60 582.01,432.17 585.80,429.34 589.58,428.93 593.37,428.53 597.15,427.72 600.94,426.91 604.72,426.10 608.51,426.10 612.29,426.10 616.08,419.63 619.86,419.23 623.65,418.42 627.43,418.01 631.22,417.61 635.00,417.61 638.78,417.61 642.57,417.21 646.35,417.21 650.14,413.57 653.92,411.95 657.71,412.76 661.49,410.74 665.28,410.74 669.06,410.33 672.85,410.33 676.63,410.33 680.42,409.93 684.20,409.93 687.99,409.93 691.77,409.52 695.56,409.52 699.34,409.12 703.12,409.52 706.91,409.12 710.69,407.50 714.48,407.10 718.26,403.05 722.05,399.82 725.83,400.22 729.62,400.62 733.40,400.62 737.19,399.41 740.97,392.94 744.76,391.32 748.54,389.30 752.33,389.30 756.11,388.49 759.90,375.15 763.68,374.74 767.47,374.74 771.25,374.74 775.03,374.74 778.82,374.34 782.60,374.34 786.39,374.34 790.17,374.34 793.96,374.34 797.74,373.93 801.53,373.12 805.31,372.72 809.10,373.53 812.88,435.81 816.67,372.32 820.45,372.72 824.24,371.91 828.02,371.91 831.81,372.32 835.59,371.10 839.38,369.89 843.16,369.89 846.94,369.89 850.73,369.49 854.51,369.89 858.30,369.08 862.08,368.68 865.87,368.27 869.65,367.87 873.44,367.06 877.22,367.46 881.01,367.06 884.79,366.25 888.58,368.27 892.36,368.68 896.15,368.68 899.93,368.27 903.72,369.08 907.50,367.87 911.28,367.46 915.07,367.06 918.85,360.18 922.64,359.78 926.42,359.38 930.21,356.95 933.99,357.35 937.78,357.76 941.56,355.33 945.35,355.74 949.13,357.35 952.92,355.33 956.70,356.14 960.49,355.74 964.27,356.14 968.06,354.12 971.84,354.93 975.62,356.14 979.41,354.52 983.19,353.71 986.98,354.12 990.76,354.93 994.55,352.90 998.33,353.71 1002.12,353.31 1005.90,353.31 1009.69,354.52 1013.47,352.90 1017.26,352.50 1021.04,352.50 1024.83,353.31 1028.61,352.50 1032.40,353.71 1036.18,354.12 1039.97,352.50 1043.75,352.90 1047.53,352.50 1051.32,352.10 1055.10,351.69 1058.89,352.10 1062.67,354.12 1066.46,352.50 1070.24,352.10 1074.03,352.10 1077.81,349.67 1081.60,349.67 1085.38,350.88 1089.17,351.29 1092.95,350.48 1096.74,352.10 1100.52,350.48 1104.31,350.48 1108.09,350.48 1111.88,350.07 1115.66,348.46 1119.44,351.29 1123.23,349.67 1127.01,351.29 1130.80,349.67 1134.58,348.86 1138.37,348.46 1142.15,348.46 1145.94,347.24 1149.72,348.86 1153.51,346.84 1157.29,348.46 1161.08,348.86 1164.86,346.84 1168.65,349.26 1172.43,348.05 1176.22,349.26 1180.00,349.26"/>
<circle cx="90.00" cy="540.55" r="3.2" fill="#1d4ed8"/>
<circle cx="93.78" cy="538.53" r="3.2" fill="#1d4ed8"/>
<circle cx="97.57" cy="536.91" r="3.2" fill="#1d4ed8"/>
<circle cx="101.35" cy="534.49" r="3.2" fill="#1d4ed8"/>
<circle cx="105.14" cy="534.49" r="3.2" fill="#1d4ed8"/>
<circle cx="108.92" cy="533.27" r="3.2" fill="#1d4ed8"/>
<circle cx="112.71" cy="532.46" r="3.2" fill="#1d4ed8"/>
<circle cx="116.49" cy="532.87" r="3.2" fill="#1d4ed8"/>
<circle cx="120.28" cy="532.06" r="3.2" fill="#1d4ed8"/>
<circle cx="124.06" cy="532.46" r="3.2" fill="#1d4ed8"/>
<circle cx="127.85" cy="532.06" r="3.2" fill="#1d4ed8"/>
<circle cx="131.63" cy="568.46" r="3.2" fill="#1d4ed8"/>
<circle cx="135.42" cy="568.46" r="3.2" fill="#1d4ed8"/>
<circle cx="139.20" cy="566.43" r="3.2" fill="#1d4ed8"/>
<circle cx="142.99" cy="545.00" r="3.2" fill="#1d4ed8"/>
<circle cx="146.77" cy="545.00" r="3.2" fill="#1d4ed8"/>
<circle cx="150.56" cy="544.19" r="3.2" fill="#1d4ed8"/>
<circle cx="154.34" cy="543.79" r="3.2" fill="#1d4ed8"/>
<circle cx="158.12" cy="543.79" r="3.2" fill="#1d4ed8"/>
<circle cx="161.91" cy="543.38" r="3.2" fill="#1d4ed8"/>
<circle cx="165.69" cy="541.76" r="3.2" fill="#1d4ed8"/>
<circle cx="169.48" cy="541.36" r="3.2" fill="#1d4ed8"/>
<circle cx="173.26" cy="540.96" r="3.2" fill="#1d4ed8"/>
<circle cx="177.05" cy="540.96" r="3.2" fill="#1d4ed8"/>
<circle cx="180.83" cy="539.34" r="3.2" fill="#1d4ed8"/>
<circle cx="184.62" cy="539.34" r="3.2" fill="#1d4ed8"/>
<circle cx="188.40" cy="556.73" r="3.2" fill="#1d4ed8"/>
<circle cx="192.19" cy="556.73" r="3.2" fill="#1d4ed8"/>
<circle cx="195.97" cy="555.51" r="3.2" fill="#1d4ed8"/>
<circle cx="199.76" cy="551.07" r="3.2" fill="#1d4ed8"/>
<circle cx="203.54" cy="538.93" r="3.2" fill="#1d4ed8"/>
<circle cx="207.33" cy="538.93" r="3.2" fill="#1d4ed8"/>
<circle cx="211.11" cy="538.93" r="3.2" fill="#1d4ed8"/>
<circle cx="214.90" cy="538.12" r="3.2" fill="#1d4ed8"/>
<circle cx="218.68" cy="536.91" r="3.2" fill="#1d4ed8"/>
<circle cx="222.47" cy="536.91" r="3.2" fill="#1d4ed8"/>
<circle cx="226.25" cy="536.51" r="3.2" fill="#1d4ed8"/>
<circle cx="230.03" cy="536.51" r="3.2" fill="#1d4ed8"/>
<circle cx="233.82" cy="556.73" r="3.2" fill="#1d4ed8"/>
<circle cx="237.60" cy="556.73" r="3.2" fill="#1d4ed8"/>
<circle cx="241.39" cy="556.73" r="3.2" fill="#1d4ed8"/>
<circle cx="245.17" cy="556.73" r="3.2" fill="#1d4ed8"/>
<circle cx="248.96" cy="535.29" r="3.2" fill="#1d4ed8"/>
<circle cx="252.74" cy="535.29" r="3.2" fill="#1d4ed8"/>
<circle cx="256.53" cy="535.29" r="3.2" fill="#1d4ed8"/>
<circle cx="260.31" cy="535.29" r="3.2" fill="#1d4ed8"/>
<circle cx="264.10" cy="534.49" r="3.2" fill="#1d4ed8"/>
<circle cx="267.88" cy="534.08" r="3.2" fill="#1d4ed8"/>
<circle cx="271.67" cy="533.68" r="3.2" fill="#1d4ed8"/>
<circle cx="275.45" cy="532.87" r="3.2" fill="#1d4ed8"/>
<circle cx="279.24" cy="532.06" r="3.2" fill="#1d4ed8"/>
<circle cx="283.02" cy="532.06" r="3.2" fill="#1d4ed8"/>
<circle cx="286.81" cy="531.25" r="3.2" fill="#1d4ed8"/>
<circle cx="290.59" cy="530.85" r="3.2" fill="#1d4ed8"/>
<circle cx="294.38" cy="530.44" r="3.2" fill="#1d4ed8"/>
<circle cx="298.16" cy="530.04" r="3.2" fill="#1d4ed8"/>
<circle cx="301.94" cy="530.04" r="3.2" fill="#1d4ed8"/>
<circle cx="305.73" cy="529.23" r="3.2" fill="#1d4ed8"/>
<circle cx="309.51" cy="529.23" r="3.2" fill="#1d4ed8"/>
<circle cx="313.30" cy="529.23" r="3.2" fill="#1d4ed8"/>
<circle cx="317.08" cy="528.42" r="3.2" fill="#1d4ed8"/>
<circle cx="320.87" cy="528.42" r="3.2" fill="#1d4ed8"/>
<circle cx="324.65" cy="527.61" r="3.2" fill="#1d4ed8"/>
<circle cx="328.44" cy="527.21" r="3.2" fill="#1d4ed8"/>
<circle cx="332.22" cy="526.80" r="3.2" fill="#1d4ed8"/>
<circle cx="336.01" cy="526.40" r="3.2" fill="#1d4ed8"/>
<circle cx="339.79" cy="525.18" r="3.2" fill="#1d4ed8"/>
<circle cx="343.58" cy="523.57" r="3.2" fill="#1d4ed8"/>
<circle cx="347.36" cy="523.57" r="3.2" fill="#1d4ed8"/>
<circle cx="351.15" cy="523.16" r="3.2" fill="#1d4ed8"/>
<circle cx="354.93" cy="522.76" r="3.2" fill="#1d4ed8"/>
<circle cx="358.72" cy="522.35" r="3.2" fill="#1d4ed8"/>
<circle cx="362.50" cy="521.54" r="3.2" fill="#1d4ed8"/>
<circle cx="366.28" cy="519.52" r="3.2" fill="#1d4ed8"/>
<circle cx="370.07" cy="517.50" r="3.2" fill="#1d4ed8"/>
<circle cx="373.85" cy="517.50" r="3.2" fill="#1d4ed8"/>
<circle cx="377.64" cy="517.50" r="3.2" fill="#1d4ed8"/>
<circle cx="381.42" cy="517.50" r="3.2" fill="#1d4ed8"/>
<circle cx="385.21" cy="517.50" r="3.2" fill="#1d4ed8"/>
<circle cx="388.99" cy="517.50" r="3.2" fill="#1d4ed8"/>
<circle cx="392.78" cy="517.10" r="3.2" fill="#1d4ed8"/>
<circle cx="396.56" cy="516.69" r="3.2" fill="#1d4ed8"/>
<circle cx="400.35" cy="515.48" r="3.2" fill="#1d4ed8"/>
<circle cx="404.13" cy="515.07" r="3.2" fill="#1d4ed8"/>
<circle cx="407.92" cy="514.67" r="3.2" fill="#1d4ed8"/>
<circle cx="411.70" cy="513.86" r="3.2" fill="#1d4ed8"/>
<circle cx="415.49" cy="514.26" r="3.2" fill="#1d4ed8"/>
<circle cx="419.27" cy="512.24" r="3.2" fill="#1d4ed8"/>
<circle cx="423.06" cy="511.84" r="3.2" fill="#1d4ed8"/>
<circle cx="426.84" cy="511.84" r="3.2" fill="#1d4ed8"/>
<circle cx="430.62" cy="511.03" r="3.2" fill="#1d4ed8"/>
<circle cx="434.41" cy="509.82" r="3.2" fill="#1d4ed8"/>
<circle cx="438.19" cy="507.79" r="3.2" fill="#1d4ed8"/>
<circle cx="441.98" cy="506.99" r="3.2" fill="#1d4ed8"/>
<circle cx="445.76" cy="506.58" r="3.2" fill="#1d4ed8"/>
<circle cx="449.55" cy="509.41" r="3.2" fill="#1d4ed8"/>
<circle cx="453.33" cy="509.01" r="3.2" fill="#1d4ed8"/>
<circle cx="457.12" cy="504.96" r="3.2" fill="#1d4ed8"/>
<circle cx="460.90" cy="504.56" r="3.2" fill="#1d4ed8"/>
<circle cx="464.69" cy="504.15" r="3.2" fill="#1d4ed8"/>
<circle cx="468.47" cy="504.56" r="3.2" fill="#1d4ed8"/>
<circle cx="472.26" cy="503.75" r="3.2" fill="#1d4ed8"/>
<circle cx="476.04" cy="503.75" r="3.2" fill="#1d4ed8"/>
<circle cx="479.83" cy="503.35" r="3.2" fill="#1d4ed8"/>
<circle cx="483.61" cy="499.30" r="3.2" fill="#1d4ed8"/>
<circle cx="487.40" cy="496.47" r="3.2" fill="#1d4ed8"/>
<circle cx="491.18" cy="490.00" r="3.2" fill="#1d4ed8"/>
<circle cx="494.97" cy="484.34" r="3.2" fill="#1d4ed8"/>
<circle cx="498.75" cy="481.10" r="3.2" fill="#1d4ed8"/>
<circle cx="502.53" cy="480.29" r="3.2" fill="#1d4ed8"/>
<circle cx="506.32" cy="480.70" r="3.2" fill="#1d4ed8"/>
<circle cx="510.10" cy="460.88" r="3.2" fill="#1d4ed8"/>
<circle cx="513.89" cy="459.26" r="3.2" fill="#1d4ed8"/>
<circle cx="517.67" cy="458.05" r="3.2" fill="#1d4ed8"/>
<circle cx="521.46" cy="456.03" r="3.2" fill="#1d4ed8"/>
<circle cx="525.24" cy="456.03" r="3.2" fill="#1d4ed8"/>
<circle cx="529.03" cy="454.41" r="3.2" fill="#1d4ed8"/>
<circle cx="532.81" cy="450.77" r="3.2" fill="#1d4ed8"/>
<circle cx="536.60" cy="444.30" r="3.2" fill="#1d4ed8"/>
<circle cx="540.38" cy="443.90" r="3.2" fill="#1d4ed8"/>
<circle cx="544.17" cy="600.00" r="3.2" fill="#1d4ed8"/>
<circle cx="547.95" cy="441.88" r="3.2" fill="#1d4ed8"/>
<circle cx="551.74" cy="440.66" r="3.2" fill="#1d4ed8"/>
<circle cx="555.52" cy="439.45" r="3.2" fill="#1d4ed8"/>
<circle cx="559.31" cy="439.04" r="3.2" fill="#1d4ed8"/>
<circle cx="563.09" cy="438.64" r="3.2" fill="#1d4ed8"/>
<circle cx="566.88" cy="437.83" r="3.2" fill="#1d4ed8"/>
<circle cx="570.66" cy="436.62" r="3.2" fill="#1d4ed8"/>
<circle cx="574.44" cy="436.62" r="3.2" fill="#1d4ed8"/>
<circle cx="578.23" cy="434.60" r="3.2" fill="#1d4ed8"/>
<circle cx="582.01" cy="432.17" r="3.2" fill="#1d4ed8"/>
<circle cx="585.80" cy="429.34" r="3.2" fill="#1d4ed8"/>
<circle cx="589.58" cy="428.93" r="3.2" fill="#1d4ed8"/>
<circle cx="593.37" cy="428.53" r="3.2" fill="#1d4ed8"/>
<circle cx="597.15" cy="427.72" r="3.2" fill="#1d4ed8"/>
<circle cx="600.94" cy="426.91" r="3.2" fill="#1d4ed8"/>
<circle cx="604.72" cy="426.10" r="3.2" fill="#1d4ed8"/>
<circle cx="608.51" cy="426.10" r="3.2" fill="#1d4ed8"/>
<circle cx="612.29" cy="426.10" r="3.2" fill="#1d4ed8"/>
<circle cx="616.08" cy="419.63" r="3.2" fill="#1d4ed8"/>
<circle cx="619.86" cy="419.23" r="3.2" fill="#1d4ed8"/>
<circle cx="623.65" cy="418.42" r="3.2" fill="#1d4ed8"/>
<circle cx="627.43" cy="418.01" r="3.2" fill="#1d4ed8"/>
<circle cx="631.22" cy="417.61" r="3.2" fill="#1d4ed8"/>
<circle cx="635.00" cy="417.61" r="3.2" fill="#1d4ed8"/>
<circle cx="638.78" cy="417.61" r="3.2" fill="#1d4ed8"/>
<circle cx="642.57" cy="417.21" r="3.2" fill="#1d4ed8"/>
<circle cx="646.35" cy="417.21" r="3.2" fill="#1d4ed8"/>
<circle cx="650.14" cy="413.57" r="3.2" fill="#1d4ed8"/>
<circle cx="653.92" cy="411.95" r="3.2" fill="#1d4ed8"/>
<circle cx="657.71" cy="412.76" r="3.2" fill="#1d4ed8"/>
<circle cx="661.49" cy="410.74" r="3.2" fill="#1d4ed8"/>
<circle cx="665.28" cy="410.74" r="3.2" fill="#1d4ed8"/>
<circle cx="669.06" cy="410.33" r="3.2" fill="#1d4ed8"/>
<circle cx="672.85" cy="410.33" r="3.2" fill="#1d4ed8"/>
<circle cx="676.63" cy="410.33" r="3.2" fill="#1d4ed8"/>
<circle cx="680.42" cy="409.93" r="3.2" fill="#1d4ed8"/>
<circle cx="684.20" cy="409.93" r="3.2" fill="#1d4ed8"/>
<circle cx="687.99" cy="409.93" r="3.2" fill="#1d4ed8"/>
<circle cx="691.77" cy="409.52" r="3.2" fill="#1d4ed8"/>
<circle cx="695.56" cy="409.52" r="3.2" fill="#1d4ed8"/>
<circle cx="699.34" cy="409.12" r="3.2" fill="#1d4ed8"/>
<circle cx="703.12" cy="409.52" r="3.2" fill="#1d4ed8"/>
<circle cx="706.91" cy="409.12" r="3.2" fill="#1d4ed8"/>
<circle cx="710.69" cy="407.50" r="3.2" fill="#1d4ed8"/>
<circle cx="714.48" cy="407.10" r="3.2" fill="#1d4ed8"/>
<circle cx="718.26" cy="403.05" r="3.2" fill="#1d4ed8"/>
<circle cx="722.05" cy="399.82" r="3.2" fill="#1d4ed8"/>
<circle cx="725.83" cy="400.22" r="3.2" fill="#1d4ed8"/>
<circle cx="729.62" cy="400.62" r="3.2" fill="#1d4ed8"/>
<circle cx="733.40" cy="400.62" r="3.2" fill="#1d4ed8"/>
<circle cx="737.19" cy="399.41" r="3.2" fill="#1d4ed8"/>
<circle cx="740.97" cy="392.94" r="3.2" fill="#1d4ed8"/>
<circle cx="744.76" cy="391.32" r="3.2" fill="#1d4ed8"/>
<circle cx="748.54" cy="389.30" r="3.2" fill="#1d4ed8"/>
<circle cx="752.33" cy="389.30" r="3.2" fill="#1d4ed8"/>
<circle cx="756.11" cy="388.49" r="3.2" fill="#1d4ed8"/>
<circle cx="759.90" cy="375.15" r="3.2" fill="#1d4ed8"/>
<circle cx="763.68" cy="374.74" r="3.2" fill="#1d4ed8"/>
<circle cx="767.47" cy="374.74" r="3.2" fill="#1d4ed8"/>
<circle cx="771.25" cy="374.74" r="3.2" fill="#1d4ed8"/>
<circle cx="775.03" cy="374.74" r="3.2" fill="#1d4ed8"/>
<circle cx="778.82" cy="374.34" r="3.2" fill="#1d4ed8"/>
<circle cx="782.60" cy="374.34" r="3.2" fill="#1d4ed8"/>
<circle cx="786.39" cy="374.34" r="3.2" fill="#1d4ed8"/>
<circle cx="790.17" cy="374.34" r="3.2" fill="#1d4ed8"/>
<circle cx="793.96" cy="374.34" r="3.2" fill="#1d4ed8"/>
<circle cx="797.74" cy="373.93" r="3.2" fill="#1d4ed8"/>
<circle cx="801.53" cy="373.12" r="3.2" fill="#1d4ed8"/>
<circle cx="805.31" cy="372.72" r="3.2" fill="#1d4ed8"/>
<circle cx="809.10" cy="373.53" r="3.2" fill="#1d4ed8"/>
<circle cx="812.88" cy="435.81" r="3.2" fill="#1d4ed8"/>
<circle cx="816.67" cy="372.32" r="3.2" fill="#1d4ed8"/>
<circle cx="820.45" cy="372.72" r="3.2" fill="#1d4ed8"/>
<circle cx="824.24" cy="371.91" r="3.2" fill="#1d4ed8"/>
<circle cx="828.02" cy="371.91" r="3.2" fill="#1d4ed8"/>
<circle cx="831.81" cy="372.32" r="3.2" fill="#1d4ed8"/>
<circle cx="835.59" cy="371.10" r="3.2" fill="#1d4ed8"/>
<circle cx="839.38" cy="369.89" r="3.2" fill="#1d4ed8"/>
<circle cx="843.16" cy="369.89" r="3.2" fill="#1d4ed8"/>
<circle cx="846.94" cy="369.89" r="3.2" fill="#1d4ed8"/>
<circle cx="850.73" cy="369.49" r="3.2" fill="#1d4ed8"/>
<circle cx="854.51" cy="369.89" r="3.2" fill="#1d4ed8"/>
<circle cx="858.30" cy="369.08" r="3.2" fill="#1d4ed8"/>
<circle cx="862.08" cy="368.68" r="3.2" fill="#1d4ed8"/>
<circle cx="865.87" cy="368.27" r="3.2" fill="#1d4ed8"/>
<circle cx="869.65" cy="367.87" r="3.2" fill="#1d4ed8"/>
<circle cx="873.44" cy="367.06" r="3.2" fill="#1d4ed8"/>
<circle cx="877.22" cy="367.46" r="3.2" fill="#1d4ed8"/>
<circle cx="881.01" cy="367.06" r="3.2" fill="#1d4ed8"/>
<circle cx="884.79" cy="366.25" r="3.2" fill="#1d4ed8"/>
<circle cx="888.58" cy="368.27" r="3.2" fill="#1d4ed8"/>
<circle cx="892.36" cy="368.68" r="3.2" fill="#1d4ed8"/>
<circle cx="896.15" cy="368.68" r="3.2" fill="#1d4ed8"/>
<circle cx="899.93" cy="368.27" r="3.2" fill="#1d4ed8"/>
<circle cx="903.72" cy="369.08" r="3.2" fill="#1d4ed8"/>
<circle cx="907.50" cy="367.87" r="3.2" fill="#1d4ed8"/>
<circle cx="911.28" cy="367.46" r="3.2" fill="#1d4ed8"/>
<circle cx="915.07" cy="367.06" r="3.2" fill="#1d4ed8"/>
<circle cx="918.85" cy="360.18" r="3.2" fill="#1d4ed8"/>
<circle cx="922.64" cy="359.78" r="3.2" fill="#1d4ed8"/>
<circle cx="926.42" cy="359.38" r="3.2" fill="#1d4ed8"/>
<circle cx="930.21" cy="356.95" r="3.2" fill="#1d4ed8"/>
<circle cx="933.99" cy="357.35" r="3.2" fill="#1d4ed8"/>
<circle cx="937.78" cy="357.76" r="3.2" fill="#1d4ed8"/>
<circle cx="941.56" cy="355.33" r="3.2" fill="#1d4ed8"/>
<circle cx="945.35" cy="355.74" r="3.2" fill="#1d4ed8"/>
<circle cx="949.13" cy="357.35" r="3.2" fill="#1d4ed8"/>
<circle cx="952.92" cy="355.33" r="3.2" fill="#1d4ed8"/>
<circle cx="956.70" cy="356.14" r="3.2" fill="#1d4ed8"/>
<circle cx="960.49" cy="355.74" r="3.2" fill="#1d4ed8"/>
<circle cx="964.27" cy="356.14" r="3.2" fill="#1d4ed8"/>
<circle cx="968.06" cy="354.12" r="3.2" fill="#1d4ed8"/>
<circle cx="971.84" cy="354.93" r="3.2" fill="#1d4ed8"/>
<circle cx="975.62" cy="356.14" r="3.2" fill="#1d4ed8"/>
<circle cx="979.41" cy="354.52" r="3.2" fill="#1d4ed8"/>
<circle cx="983.19" cy="353.71" r="3.2" fill="#1d4ed8"/>
<circle cx="986.98" cy="354.12" r="3.2" fill="#1d4ed8"/>
<circle cx="990.76" cy="354.93" r="3.2" fill="#1d4ed8"/>
<circle cx="994.55" cy="352.90" r="3.2" fill="#1d4ed8"/>
<circle cx="998.33" cy="353.71" r="3.2" fill="#1d4ed8"/>
<circle cx="1002.12" cy="353.31" r="3.2" fill="#1d4ed8"/>
<circle cx="1005.90" cy="353.31" r="3.2" fill="#1d4ed8"/>
<circle cx="1009.69" cy="354.52" r="3.2" fill="#1d4ed8"/>
<circle cx="1013.47" cy="352.90" r="3.2" fill="#1d4ed8"/>
<circle cx="1017.26" cy="352.50" r="3.2" fill="#1d4ed8"/>
<circle cx="1021.04" cy="352.50" r="3.2" fill="#1d4ed8"/>
<circle cx="1024.83" cy="353.31" r="3.2" fill="#1d4ed8"/>
<circle cx="1028.61" cy="352.50" r="3.2" fill="#1d4ed8"/>
<circle cx="1032.40" cy="353.71" r="3.2" fill="#1d4ed8"/>
<circle cx="1036.18" cy="354.12" r="3.2" fill="#1d4ed8"/>
<circle cx="1039.97" cy="352.50" r="3.2" fill="#1d4ed8"/>
<circle cx="1043.75" cy="352.90" r="3.2" fill="#1d4ed8"/>
<circle cx="1047.53" cy="352.50" r="3.2" fill="#1d4ed8"/>
<circle cx="1051.32" cy="352.10" r="3.2" fill="#1d4ed8"/>
<circle cx="1055.10" cy="351.69" r="3.2" fill="#1d4ed8"/>
<circle cx="1058.89" cy="352.10" r="3.2" fill="#1d4ed8"/>
<circle cx="1062.67" cy="354.12" r="3.2" fill="#1d4ed8"/>
<circle cx="1066.46" cy="352.50" r="3.2" fill="#1d4ed8"/>
<circle cx="1070.24" cy="352.10" r="3.2" fill="#1d4ed8"/>
<circle cx="1074.03" cy="352.10" r="3.2" fill="#1d4ed8"/>
<circle cx="1077.81" cy="349.67" r="3.2" fill="#1d4ed8"/>
<circle cx="1081.60" cy="349.67" r="3.2" fill="#1d4ed8"/>
<circle cx="1085.38" cy="350.88" r="3.2" fill="#1d4ed8"/>
<circle cx="1089.17" cy="351.29" r="3.2" fill="#1d4ed8"/>
<circle cx="1092.95" cy="350.48" r="3.2" fill="#1d4ed8"/>
<circle cx="1096.74" cy="352.10" r="3.2" fill="#1d4ed8"/>
<circle cx="1100.52" cy="350.48" r="3.2" fill="#1d4ed8"/>
<circle cx="1104.31" cy="350.48" r="3.2" fill="#1d4ed8"/>
<circle cx="1108.09" cy="350.48" r="3.2" fill="#1d4ed8"/>
<circle cx="1111.88" cy="350.07" r="3.2" fill="#1d4ed8"/>
<circle cx="1115.66" cy="348.46" r="3.2" fill="#1d4ed8"/>
<circle cx="1119.44" cy="351.29" r="3.2" fill="#1d4ed8"/>
<circle cx="1123.23" cy="349.67" r="3.2" fill="#1d4ed8"/>
<circle cx="1127.01" cy="351.29" r="3.2" fill="#1d4ed8"/>
<circle cx="1130.80" cy="349.67" r="3.2" fill="#1d4ed8"/>
<circle cx="1134.58" cy="348.86" r="3.2" fill="#1d4ed8"/>
<circle cx="1138.37" cy="348.46" r="3.2" fill="#1d4ed8"/>
<circle cx="1142.15" cy="348.46" r="3.2" fill="#1d4ed8"/>
<circle cx="1145.94" cy="347.24" r="3.2" fill="#1d4ed8"/>
<circle cx="1149.72" cy="348.86" r="3.2" fill="#1d4ed8"/>
<circle cx="1153.51" cy="346.84" r="3.2" fill="#1d4ed8"/>
<circle cx="1157.29" cy="348.46" r="3.2" fill="#1d4ed8"/>
<circle cx="1161.08" cy="348.86" r="3.2" fill="#1d4ed8"/>
<circle cx="1164.86" cy="346.84" r="3.2" fill="#1d4ed8"/>
<circle cx="1168.65" cy="349.26" r="3.2" fill="#1d4ed8"/>
<circle cx="1172.43" cy="348.05" r="3.2" fill="#1d4ed8"/>
<circle cx="1176.22" cy="349.26" r="3.2" fill="#1d4ed8"/>
<circle cx="1180.00" cy="349.26" r="3.2" fill="#1d4ed8"/>
<text x="635" y="695" text-anchor="middle" font-size="14" fill="#111" font-family="sans-serif">Date</text>
<text x="24" y="325" text-anchor="middle" font-size="14" fill="#111" transform="rotate(-90 24,325)" font-family="sans-serif">Passed files</text>
</svg>
