<?xml version="1.0" encoding="UTF-8"?>
<svg xmlns="http://www.w3.org/2000/svg" width="1280" height="720" viewBox="0 0 1280 720">
<rect width="100%" height="100%" fill="#ffffff"/>
<text x="640" y="30" text-anchor="middle" font-size="22" font-family="sans-serif">Roast passed files history</text>
<line x1="90" y1="600" x2="1180" y2="600" stroke="#333" stroke-width="1.5"/>
<line x1="90" y1="50" x2="90" y2="600" stroke="#333" stroke-width="1.5"/>
<line x1="90" y1="600.00" x2="1180" y2="600.00" stroke="#e5e7eb" stroke-width="1"/>
<text x="78" y="605.00" text-anchor="end" font-size="12" fill="#111" font-family="sans-serif">0</text>
<line x1="90" y1="397.79" x2="1180" y2="397.79" stroke="#e5e7eb" stroke-width="1"/>
<text x="78" y="402.79" text-anchor="end" font-size="12" fill="#111" font-family="sans-serif">500</text>
<line x1="90" y1="195.59" x2="1180" y2="195.59" stroke="#e5e7eb" stroke-width="1"/>
<text x="78" y="200.59" text-anchor="end" font-size="12" fill="#111" font-family="sans-serif">1000</text>
<line x1="90.00" y1="600" x2="90.00" y2="606" stroke="#333" stroke-width="1"/>
<text x="90.00" y="624" text-anchor="end" font-size="11" fill="#111" transform="rotate(-40 90.00,624)" font-family="sans-serif">2026-02-12</text>
<line x1="224.78" y1="600" x2="224.78" y2="606" stroke="#333" stroke-width="1"/>
<text x="224.78" y="624" text-anchor="end" font-size="11" fill="#111" transform="rotate(-40 224.78,624)" font-family="sans-serif">2026-02-15</text>
<line x1="359.57" y1="600" x2="359.57" y2="606" stroke="#333" stroke-width="1"/>
<text x="359.57" y="624" text-anchor="end" font-size="11" fill="#111" transform="rotate(-40 359.57,624)" font-family="sans-serif">2026-02-17</text>
<line x1="494.35" y1="600" x2="494.35" y2="606" stroke="#333" stroke-width="1"/>
<text x="494.35" y="624" text-anchor="end" font-size="11" fill="#111" transform="rotate(-40 494.35,624)" font-family="sans-serif">2026-02-19</text>
<line x1="629.14" y1="600" x2="629.14" y2="606" stroke="#333" stroke-width="1"/>
<text x="629.14" y="624" text-anchor="end" font-size="11" fill="#111" transform="rotate(-40 629.14,624)" font-family="sans-serif">2026-02-22</text>
<line x1="763.92" y1="600" x2="763.92" y2="606" stroke="#333" stroke-width="1"/>
<text x="763.92" y="624" text-anchor="end" font-size="11" fill="#111" transform="rotate(-40 763.92,624)" font-family="sans-serif">2026-02-24</text>
<line x1="898.71" y1="600" x2="898.71" y2="606" stroke="#333" stroke-width="1"/>
<text x="898.71" y="624" text-anchor="end" font-size="11" fill="#111" transform="rotate(-40 898.71,624)" font-family="sans-serif">2026-02-25</text>
<line x1="1033.49" y1="600" x2="1033.49" y2="606" stroke="#333" stroke-width="1"/>
<text x="1033.49" y="624" text-anchor="end" font-size="11" fill="#111" transform="rotate(-40 1033.49,624)" font-family="sans-serif">2026-02-27</text>
<line x1="1168.28" y1="600" x2="1168.28" y2="606" stroke="#333" stroke-width="1"/>
<text x="1168.28" y="624" text-anchor="end" font-size="11" fill="#111" transform="rotate(-40 1168.28,624)" font-family="sans-serif">2026-02-28</text>
<line x1="1180.00" y1="600" x2="1180.00" y2="606" stroke="#333" stroke-width="1"/>
<text x="1180.00" y="624" text-anchor="end" font-size="11" fill="#111" transform="rotate(-40 1180.00,624)" font-family="sans-serif">2026-02-28</text>
<line x1="90" y1="75.88" x2="1180" y2="75.88" stroke="#dc2626" stroke-width="1.5" stroke-dasharray="8,4"/>
<text x="1184" y="79.88" font-size="12" fill="#dc2626" font-family="sans-serif">Goal: 1296</text>
<polyline fill="none" stroke="#2563eb" stroke-width="3" points="90.00,540.55 95.86,538.53 101.72,536.91 107.58,534.49 113.44,534.49 119.30,533.27 125.16,532.46 131.02,532.87 136.88,532.06 142.74,532.46 148.60,532.06 154.46,568.46 160.32,568.46 166.18,566.43 172.04,545.00 177.90,545.00 183.76,544.19 189.62,543.79 195.48,543.79 201.34,543.38 207.20,541.76 213.06,541.36 218.92,540.96 224.78,540.96 230.65,539.34 236.51,539.34 242.37,556.73 248.23,556.73 254.09,555.51 259.95,551.07 265.81,538.93 271.67,538.93 277.53,538.93 283.39,538.12 289.25,536.91 295.11,536.91 300.97,536.51 306.83,536.51 312.69,556.73 318.55,556.73 324.41,556.73 330.27,556.73 336.13,535.29 341.99,535.29 347.85,535.29 353.71,535.29 359.57,534.49 365.43,534.08 371.29,533.68 377.15,532.87 383.01,532.06 388.87,532.06 394.73,531.25 400.59,530.85 406.45,530.44 412.31,530.04 418.17,530.04 424.03,529.23 429.89,529.23 435.75,529.23 441.61,528.42 447.47,528.42 453.33,527.61 459.19,527.21 465.05,526.80 470.91,526.40 476.77,525.18 482.63,523.57 488.49,523.57 494.35,523.16 500.22,522.76 506.08,522.35 511.94,521.54 517.80,519.52 523.66,517.50 529.52,517.50 535.38,517.50 541.24,517.50 547.10,517.50 552.96,517.50 558.82,517.10 564.68,516.69 570.54,515.48 576.40,515.07 582.26,514.67 588.12,513.86 593.98,514.26 599.84,512.24 605.70,511.84 611.56,511.84 617.42,511.03 623.28,509.82 629.14,507.79 635.00,506.99 640.86,506.58 646.72,509.41 652.58,509.01 658.44,504.96 664.30,504.56 670.16,504.15 676.02,504.56 681.88,503.75 687.74,503.75 693.60,503.35 699.46,499.30 705.32,496.47 711.18,490.00 717.04,484.34 722.90,481.10 728.76,480.29 734.62,480.70 740.48,460.88 746.34,459.26 752.20,458.05 758.06,456.03 763.92,456.03 769.78,454.41 775.65,450.77 781.51,444.30 787.37,443.90 793.23,600.00 799.09,441.88 804.95,440.66 810.81,439.45 816.67,439.04 822.53,438.64 828.39,437.83 834.25,436.62 840.11,436.62 845.97,434.60 851.83,432.17 857.69,429.34 863.55,428.93 869.41,428.53 875.27,427.72 881.13,426.91 886.99,426.10 892.85,426.10 898.71,426.10 904.57,419.63 910.43,419.23 916.29,418.42 922.15,418.01 928.01,417.61 933.87,417.61 939.73,417.61 945.59,417.21 951.45,417.21 957.31,413.57 963.17,411.95 969.03,412.76 974.89,410.74 980.75,410.74 986.61,410.33 992.47,410.33 998.33,410.33 1004.19,409.93 1010.05,409.93 1015.91,409.93 1021.77,409.52 1027.63,409.52 1033.49,409.12 1039.35,409.52 1045.22,409.12 1051.08,407.50 1056.94,407.10 1062.80,403.05 1068.66,399.82 1074.52,400.22 1080.38,400.62 1086.24,400.62 1092.10,399.41 1097.96,392.94 1103.82,391.32 1109.68,389.30 1115.54,389.30 1121.40,388.49 1127.26,375.15 1133.12,374.74 1138.98,374.74 1144.84,374.74 1150.70,374.74 1156.56,374.34 1162.42,374.34 1168.28,374.34 1174.14,374.34 1180.00,374.34"/>
<circle cx="90.00" cy="540.55" r="3.2" fill="#1d4ed8"/>
<circle cx="95.86" cy="538.53" r="3.2" fill="#1d4ed8"/>
<circle cx="101.72" cy="536.91" r="3.2" fill="#1d4ed8"/>
<circle cx="107.58" cy="534.49" r="3.2" fill="#1d4ed8"/>
<circle cx="113.44" cy="534.49" r="3.2" fill="#1d4ed8"/>
<circle cx="119.30" cy="533.27" r="3.2" fill="#1d4ed8"/>
<circle cx="125.16" cy="532.46" r="3.2" fill="#1d4ed8"/>
<circle cx="131.02" cy="532.87" r="3.2" fill="#1d4ed8"/>
<circle cx="136.88" cy="532.06" r="3.2" fill="#1d4ed8"/>
<circle cx="142.74" cy="532.46" r="3.2" fill="#1d4ed8"/>
<circle cx="148.60" cy="532.06" r="3.2" fill="#1d4ed8"/>
<circle cx="154.46" cy="568.46" r="3.2" fill="#1d4ed8"/>
<circle cx="160.32" cy="568.46" r="3.2" fill="#1d4ed8"/>
<circle cx="166.18" cy="566.43" r="3.2" fill="#1d4ed8"/>
<circle cx="172.04" cy="545.00" r="3.2" fill="#1d4ed8"/>
<circle cx="177.90" cy="545.00" r="3.2" fill="#1d4ed8"/>
<circle cx="183.76" cy="544.19" r="3.2" fill="#1d4ed8"/>
<circle cx="189.62" cy="543.79" r="3.2" fill="#1d4ed8"/>
<circle cx="195.48" cy="543.79" r="3.2" fill="#1d4ed8"/>
<circle cx="201.34" cy="543.38" r="3.2" fill="#1d4ed8"/>
<circle cx="207.20" cy="541.76" r="3.2" fill="#1d4ed8"/>
<circle cx="213.06" cy="541.36" r="3.2" fill="#1d4ed8"/>
<circle cx="218.92" cy="540.96" r="3.2" fill="#1d4ed8"/>
<circle cx="224.78" cy="540.96" r="3.2" fill="#1d4ed8"/>
<circle cx="230.65" cy="539.34" r="3.2" fill="#1d4ed8"/>
<circle cx="236.51" cy="539.34" r="3.2" fill="#1d4ed8"/>
<circle cx="242.37" cy="556.73" r="3.2" fill="#1d4ed8"/>
<circle cx="248.23" cy="556.73" r="3.2" fill="#1d4ed8"/>
<circle cx="254.09" cy="555.51" r="3.2" fill="#1d4ed8"/>
<circle cx="259.95" cy="551.07" r="3.2" fill="#1d4ed8"/>
<circle cx="265.81" cy="538.93" r="3.2" fill="#1d4ed8"/>
<circle cx="271.67" cy="538.93" r="3.2" fill="#1d4ed8"/>
<circle cx="277.53" cy="538.93" r="3.2" fill="#1d4ed8"/>
<circle cx="283.39" cy="538.12" r="3.2" fill="#1d4ed8"/>
<circle cx="289.25" cy="536.91" r="3.2" fill="#1d4ed8"/>
<circle cx="295.11" cy="536.91" r="3.2" fill="#1d4ed8"/>
<circle cx="300.97" cy="536.51" r="3.2" fill="#1d4ed8"/>
<circle cx="306.83" cy="536.51" r="3.2" fill="#1d4ed8"/>
<circle cx="312.69" cy="556.73" r="3.2" fill="#1d4ed8"/>
<circle cx="318.55" cy="556.73" r="3.2" fill="#1d4ed8"/>
<circle cx="324.41" cy="556.73" r="3.2" fill="#1d4ed8"/>
<circle cx="330.27" cy="556.73" r="3.2" fill="#1d4ed8"/>
<circle cx="336.13" cy="535.29" r="3.2" fill="#1d4ed8"/>
<circle cx="341.99" cy="535.29" r="3.2" fill="#1d4ed8"/>
<circle cx="347.85" cy="535.29" r="3.2" fill="#1d4ed8"/>
<circle cx="353.71" cy="535.29" r="3.2" fill="#1d4ed8"/>
<circle cx="359.57" cy="534.49" r="3.2" fill="#1d4ed8"/>
<circle cx="365.43" cy="534.08" r="3.2" fill="#1d4ed8"/>
<circle cx="371.29" cy="533.68" r="3.2" fill="#1d4ed8"/>
<circle cx="377.15" cy="532.87" r="3.2" fill="#1d4ed8"/>
<circle cx="383.01" cy="532.06" r="3.2" fill="#1d4ed8"/>
<circle cx="388.87" cy="532.06" r="3.2" fill="#1d4ed8"/>
<circle cx="394.73" cy="531.25" r="3.2" fill="#1d4ed8"/>
<circle cx="400.59" cy="530.85" r="3.2" fill="#1d4ed8"/>
<circle cx="406.45" cy="530.44" r="3.2" fill="#1d4ed8"/>
<circle cx="412.31" cy="530.04" r="3.2" fill="#1d4ed8"/>
<circle cx="418.17" cy="530.04" r="3.2" fill="#1d4ed8"/>
<circle cx="424.03" cy="529.23" r="3.2" fill="#1d4ed8"/>
<circle cx="429.89" cy="529.23" r="3.2" fill="#1d4ed8"/>
<circle cx="435.75" cy="529.23" r="3.2" fill="#1d4ed8"/>
<circle cx="441.61" cy="528.42" r="3.2" fill="#1d4ed8"/>
<circle cx="447.47" cy="528.42" r="3.2" fill="#1d4ed8"/>
<circle cx="453.33" cy="527.61" r="3.2" fill="#1d4ed8"/>
<circle cx="459.19" cy="527.21" r="3.2" fill="#1d4ed8"/>
<circle cx="465.05" cy="526.80" r="3.2" fill="#1d4ed8"/>
<circle cx="470.91" cy="526.40" r="3.2" fill="#1d4ed8"/>
<circle cx="476.77" cy="525.18" r="3.2" fill="#1d4ed8"/>
<circle cx="482.63" cy="523.57" r="3.2" fill="#1d4ed8"/>
<circle cx="488.49" cy="523.57" r="3.2" fill="#1d4ed8"/>
<circle cx="494.35" cy="523.16" r="3.2" fill="#1d4ed8"/>
<circle cx="500.22" cy="522.76" r="3.2" fill="#1d4ed8"/>
<circle cx="506.08" cy="522.35" r="3.2" fill="#1d4ed8"/>
<circle cx="511.94" cy="521.54" r="3.2" fill="#1d4ed8"/>
<circle cx="517.80" cy="519.52" r="3.2" fill="#1d4ed8"/>
<circle cx="523.66" cy="517.50" r="3.2" fill="#1d4ed8"/>
<circle cx="529.52" cy="517.50" r="3.2" fill="#1d4ed8"/>
<circle cx="535.38" cy="517.50" r="3.2" fill="#1d4ed8"/>
<circle cx="541.24" cy="517.50" r="3.2" fill="#1d4ed8"/>
<circle cx="547.10" cy="517.50" r="3.2" fill="#1d4ed8"/>
<circle cx="552.96" cy="517.50" r="3.2" fill="#1d4ed8"/>
<circle cx="558.82" cy="517.10" r="3.2" fill="#1d4ed8"/>
<circle cx="564.68" cy="516.69" r="3.2" fill="#1d4ed8"/>
<circle cx="570.54" cy="515.48" r="3.2" fill="#1d4ed8"/>
<circle cx="576.40" cy="515.07" r="3.2" fill="#1d4ed8"/>
<circle cx="582.26" cy="514.67" r="3.2" fill="#1d4ed8"/>
<circle cx="588.12" cy="513.86" r="3.2" fill="#1d4ed8"/>
<circle cx="593.98" cy="514.26" r="3.2" fill="#1d4ed8"/>
<circle cx="599.84" cy="512.24" r="3.2" fill="#1d4ed8"/>
<circle cx="605.70" cy="511.84" r="3.2" fill="#1d4ed8"/>
<circle cx="611.56" cy="511.84" r="3.2" fill="#1d4ed8"/>
<circle cx="617.42" cy="511.03" r="3.2" fill="#1d4ed8"/>
<circle cx="623.28" cy="509.82" r="3.2" fill="#1d4ed8"/>
<circle cx="629.14" cy="507.79" r="3.2" fill="#1d4ed8"/>
<circle cx="635.00" cy="506.99" r="3.2" fill="#1d4ed8"/>
<circle cx="640.86" cy="506.58" r="3.2" fill="#1d4ed8"/>
<circle cx="646.72" cy="509.41" r="3.2" fill="#1d4ed8"/>
<circle cx="652.58" cy="509.01" r="3.2" fill="#1d4ed8"/>
<circle cx="658.44" cy="504.96" r="3.2" fill="#1d4ed8"/>
<circle cx="664.30" cy="504.56" r="3.2" fill="#1d4ed8"/>
<circle cx="670.16" cy="504.15" r="3.2" fill="#1d4ed8"/>
<circle cx="676.02" cy="504.56" r="3.2" fill="#1d4ed8"/>
<circle cx="681.88" cy="503.75" r="3.2" fill="#1d4ed8"/>
<circle cx="687.74" cy="503.75" r="3.2" fill="#1d4ed8"/>
<circle cx="693.60" cy="503.35" r="3.2" fill="#1d4ed8"/>
<circle cx="699.46" cy="499.30" r="3.2" fill="#1d4ed8"/>
<circle cx="705.32" cy="496.47" r="3.2" fill="#1d4ed8"/>
<circle cx="711.18" cy="490.00" r="3.2" fill="#1d4ed8"/>
<circle cx="717.04" cy="484.34" r="3.2" fill="#1d4ed8"/>
<circle cx="722.90" cy="481.10" r="3.2" fill="#1d4ed8"/>
<circle cx="728.76" cy="480.29" r="3.2" fill="#1d4ed8"/>
<circle cx="734.62" cy="480.70" r="3.2" fill="#1d4ed8"/>
<circle cx="740.48" cy="460.88" r="3.2" fill="#1d4ed8"/>
<circle cx="746.34" cy="459.26" r="3.2" fill="#1d4ed8"/>
<circle cx="752.20" cy="458.05" r="3.2" fill="#1d4ed8"/>
<circle cx="758.06" cy="456.03" r="3.2" fill="#1d4ed8"/>
<circle cx="763.92" cy="456.03" r="3.2" fill="#1d4ed8"/>
<circle cx="769.78" cy="454.41" r="3.2" fill="#1d4ed8"/>
<circle cx="775.65" cy="450.77" r="3.2" fill="#1d4ed8"/>
<circle cx="781.51" cy="444.30" r="3.2" fill="#1d4ed8"/>
<circle cx="787.37" cy="443.90" r="3.2" fill="#1d4ed8"/>
<circle cx="793.23" cy="600.00" r="3.2" fill="#1d4ed8"/>
<circle cx="799.09" cy="441.88" r="3.2" fill="#1d4ed8"/>
<circle cx="804.95" cy="440.66" r="3.2" fill="#1d4ed8"/>
<circle cx="810.81" cy="439.45" r="3.2" fill="#1d4ed8"/>
<circle cx="816.67" cy="439.04" r="3.2" fill="#1d4ed8"/>
<circle cx="822.53" cy="438.64" r="3.2" fill="#1d4ed8"/>
<circle cx="828.39" cy="437.83" r="3.2" fill="#1d4ed8"/>
<circle cx="834.25" cy="436.62" r="3.2" fill="#1d4ed8"/>
<circle cx="840.11" cy="436.62" r="3.2" fill="#1d4ed8"/>
<circle cx="845.97" cy="434.60" r="3.2" fill="#1d4ed8"/>
<circle cx="851.83" cy="432.17" r="3.2" fill="#1d4ed8"/>
<circle cx="857.69" cy="429.34" r="3.2" fill="#1d4ed8"/>
<circle cx="863.55" cy="428.93" r="3.2" fill="#1d4ed8"/>
<circle cx="869.41" cy="428.53" r="3.2" fill="#1d4ed8"/>
<circle cx="875.27" cy="427.72" r="3.2" fill="#1d4ed8"/>
<circle cx="881.13" cy="426.91" r="3.2" fill="#1d4ed8"/>
<circle cx="886.99" cy="426.10" r="3.2" fill="#1d4ed8"/>
<circle cx="892.85" cy="426.10" r="3.2" fill="#1d4ed8"/>
<circle cx="898.71" cy="426.10" r="3.2" fill="#1d4ed8"/>
<circle cx="904.57" cy="419.63" r="3.2" fill="#1d4ed8"/>
<circle cx="910.43" cy="419.23" r="3.2" fill="#1d4ed8"/>
<circle cx="916.29" cy="418.42" r="3.2" fill="#1d4ed8"/>
<circle cx="922.15" cy="418.01" r="3.2" fill="#1d4ed8"/>
<circle cx="928.01" cy="417.61" r="3.2" fill="#1d4ed8"/>
<circle cx="933.87" cy="417.61" r="3.2" fill="#1d4ed8"/>
<circle cx="939.73" cy="417.61" r="3.2" fill="#1d4ed8"/>
<circle cx="945.59" cy="417.21" r="3.2" fill="#1d4ed8"/>
<circle cx="951.45" cy="417.21" r="3.2" fill="#1d4ed8"/>
<circle cx="957.31" cy="413.57" r="3.2" fill="#1d4ed8"/>
<circle cx="963.17" cy="411.95" r="3.2" fill="#1d4ed8"/>
<circle cx="969.03" cy="412.76" r="3.2" fill="#1d4ed8"/>
<circle cx="974.89" cy="410.74" r="3.2" fill="#1d4ed8"/>
<circle cx="980.75" cy="410.74" r="3.2" fill="#1d4ed8"/>
<circle cx="986.61" cy="410.33" r="3.2" fill="#1d4ed8"/>
<circle cx="992.47" cy="410.33" r="3.2" fill="#1d4ed8"/>
<circle cx="998.33" cy="410.33" r="3.2" fill="#1d4ed8"/>
<circle cx="1004.19" cy="409.93" r="3.2" fill="#1d4ed8"/>
<circle cx="1010.05" cy="409.93" r="3.2" fill="#1d4ed8"/>
<circle cx="1015.91" cy="409.93" r="3.2" fill="#1d4ed8"/>
<circle cx="1021.77" cy="409.52" r="3.2" fill="#1d4ed8"/>
<circle cx="1027.63" cy="409.52" r="3.2" fill="#1d4ed8"/>
<circle cx="1033.49" cy="409.12" r="3.2" fill="#1d4ed8"/>
<circle cx="1039.35" cy="409.52" r="3.2" fill="#1d4ed8"/>
<circle cx="1045.22" cy="409.12" r="3.2" fill="#1d4ed8"/>
<circle cx="1051.08" cy="407.50" r="3.2" fill="#1d4ed8"/>
<circle cx="1056.94" cy="407.10" r="3.2" fill="#1d4ed8"/>
<circle cx="1062.80" cy="403.05" r="3.2" fill="#1d4ed8"/>
<circle cx="1068.66" cy="399.82" r="3.2" fill="#1d4ed8"/>
<circle cx="1074.52" cy="400.22" r="3.2" fill="#1d4ed8"/>
<circle cx="1080.38" cy="400.62" r="3.2" fill="#1d4ed8"/>
<circle cx="1086.24" cy="400.62" r="3.2" fill="#1d4ed8"/>
<circle cx="1092.10" cy="399.41" r="3.2" fill="#1d4ed8"/>
<circle cx="1097.96" cy="392.94" r="3.2" fill="#1d4ed8"/>
<circle cx="1103.82" cy="391.32" r="3.2" fill="#1d4ed8"/>
<circle cx="1109.68" cy="389.30" r="3.2" fill="#1d4ed8"/>
<circle cx="1115.54" cy="389.30" r="3.2" fill="#1d4ed8"/>
<circle cx="1121.40" cy="388.49" r="3.2" fill="#1d4ed8"/>
<circle cx="1127.26" cy="375.15" r="3.2" fill="#1d4ed8"/>
<circle cx="1133.12" cy="374.74" r="3.2" fill="#1d4ed8"/>
<circle cx="1138.98" cy="374.74" r="3.2" fill="#1d4ed8"/>
<circle cx="1144.84" cy="374.74" r="3.2" fill="#1d4ed8"/>
<circle cx="1150.70" cy="374.74" r="3.2" fill="#1d4ed8"/>
<circle cx="1156.56" cy="374.34" r="3.2" fill="#1d4ed8"/>
<circle cx="1162.42" cy="374.34" r="3.2" fill="#1d4ed8"/>
<circle cx="1168.28" cy="374.34" r="3.2" fill="#1d4ed8"/>
<circle cx="1174.14" cy="374.34" r="3.2" fill="#1d4ed8"/>
<circle cx="1180.00" cy="374.34" r="3.2" fill="#1d4ed8"/>
<text x="635" y="695" text-anchor="middle" font-size="14" fill="#111" font-family="sans-serif">Date</text>
<text x="24" y="325" text-anchor="middle" font-size="14" fill="#111" transform="rotate(-90 24,325)" font-family="sans-serif">Passed files</text>
</svg>
