<?xml version="1.0" encoding="UTF-8"?>
<svg xmlns="http://www.w3.org/2000/svg" width="1280" height="720" viewBox="0 0 1280 720">
<rect width="100%" height="100%" fill="#ffffff"/>
<text x="640" y="30" text-anchor="middle" font-size="22" font-family="sans-serif">Roast passed files history</text>
<line x1="90" y1="600" x2="1180" y2="600" stroke="#333" stroke-width="1.5"/>
<line x1="90" y1="50" x2="90" y2="600" stroke="#333" stroke-width="1.5"/>
<line x1="90" y1="600.00" x2="1180" y2="600.00" stroke="#e5e7eb" stroke-width="1"/>
<text x="78" y="605.00" text-anchor="end" font-size="12" fill="#111" font-family="sans-serif">0</text>
<line x1="90" y1="397.79" x2="1180" y2="397.79" stroke="#e5e7eb" stroke-width="1"/>
<text x="78" y="402.79" text-anchor="end" font-size="12" fill="#111" font-family="sans-serif">500</text>
<line x1="90" y1="195.59" x2="1180" y2="195.59" stroke="#e5e7eb" stroke-width="1"/>
<text x="78" y="200.59" text-anchor="end" font-size="12" fill="#111" font-family="sans-serif">1000</text>
<line x1="90.00" y1="600" x2="90.00" y2="606" stroke="#333" stroke-width="1"/>
<text x="90.00" y="624" text-anchor="end" font-size="11" fill="#111" transform="rotate(-40 90.00,624)" font-family="sans-serif">2026-02-12</text>
<line x1="226.25" y1="600" x2="226.25" y2="606" stroke="#333" stroke-width="1"/>
<text x="226.25" y="624" text-anchor="end" font-size="11" fill="#111" transform="rotate(-40 226.25,624)" font-family="sans-serif">2026-02-18</text>
<line x1="362.50" y1="600" x2="362.50" y2="606" stroke="#333" stroke-width="1"/>
<text x="362.50" y="624" text-anchor="end" font-size="11" fill="#111" transform="rotate(-40 362.50,624)" font-family="sans-serif">2026-02-24</text>
<line x1="498.75" y1="600" x2="498.75" y2="606" stroke="#333" stroke-width="1"/>
<text x="498.75" y="624" text-anchor="end" font-size="11" fill="#111" transform="rotate(-40 498.75,624)" font-family="sans-serif">2026-02-27</text>
<line x1="635.00" y1="600" x2="635.00" y2="606" stroke="#333" stroke-width="1"/>
<text x="635.00" y="624" text-anchor="end" font-size="11" fill="#111" transform="rotate(-40 635.00,624)" font-family="sans-serif">2026-03-05</text>
<line x1="771.25" y1="600" x2="771.25" y2="606" stroke="#333" stroke-width="1"/>
<text x="771.25" y="624" text-anchor="end" font-size="11" fill="#111" transform="rotate(-40 771.25,624)" font-family="sans-serif">2026-03-07</text>
<line x1="907.50" y1="600" x2="907.50" y2="606" stroke="#333" stroke-width="1"/>
<text x="907.50" y="624" text-anchor="end" font-size="11" fill="#111" transform="rotate(-40 907.50,624)" font-family="sans-serif">2026-03-11</text>
<line x1="1043.75" y1="600" x2="1043.75" y2="606" stroke="#333" stroke-width="1"/>
<text x="1043.75" y="624" text-anchor="end" font-size="11" fill="#111" transform="rotate(-40 1043.75,624)" font-family="sans-serif">2026-03-19</text>
<line x1="1180.00" y1="600" x2="1180.00" y2="606" stroke="#333" stroke-width="1"/>
<text x="1180.00" y="624" text-anchor="end" font-size="11" fill="#111" transform="rotate(-40 1180.00,624)" font-family="sans-serif">2026-03-25</text>
<line x1="90" y1="75.88" x2="1180" y2="75.88" stroke="#dc2626" stroke-width="1.5" stroke-dasharray="8,4"/>
<text x="1184" y="79.88" font-size="12" fill="#dc2626" font-family="sans-serif">Goal: 1296</text>
<polyline fill="none" stroke="#2563eb" stroke-width="3" points="90.00,540.55 92.48,538.53 94.95,536.91 97.43,534.49 99.91,534.49 102.39,533.27 104.86,532.46 107.34,532.87 109.82,532.06 112.30,532.46 114.77,532.06 117.25,568.46 119.73,568.46 122.20,566.43 124.68,545.00 127.16,545.00 129.64,544.19 132.11,543.79 134.59,543.79 137.07,543.38 139.55,541.76 142.02,541.36 144.50,540.96 146.98,540.96 149.45,539.34 151.93,539.34 154.41,556.73 156.89,556.73 159.36,555.51 161.84,551.07 164.32,538.93 166.80,538.93 169.27,538.93 171.75,538.12 174.23,536.91 176.70,536.91 179.18,536.51 181.66,536.51 184.14,556.73 186.61,556.73 189.09,556.73 191.57,556.73 194.05,535.29 196.52,535.29 199.00,535.29 201.48,535.29 203.95,534.49 206.43,534.08 208.91,533.68 211.39,532.87 213.86,532.06 216.34,532.06 218.82,531.25 221.30,530.85 223.77,530.44 226.25,530.04 228.73,530.04 231.20,529.23 233.68,529.23 236.16,529.23 238.64,528.42 241.11,528.42 243.59,527.61 246.07,527.21 248.55,526.80 251.02,526.40 253.50,525.18 255.98,523.57 258.45,523.57 260.93,523.16 263.41,522.76 265.89,522.35 268.36,521.54 270.84,519.52 273.32,517.50 275.80,517.50 278.27,517.50 280.75,517.50 283.23,517.50 285.70,517.50 288.18,517.10 290.66,516.69 293.14,515.48 295.61,515.07 298.09,514.67 300.57,513.86 303.05,514.26 305.52,512.24 308.00,511.84 310.48,511.84 312.95,511.03 315.43,509.82 317.91,507.79 320.39,506.99 322.86,506.58 325.34,509.41 327.82,509.01 330.30,504.96 332.77,504.56 335.25,504.15 337.73,504.56 340.20,503.75 342.68,503.75 345.16,503.35 347.64,499.30 350.11,496.47 352.59,490.00 355.07,484.34 357.55,481.10 360.02,480.29 362.50,480.70 364.98,460.88 367.45,459.26 369.93,458.05 372.41,456.03 374.89,456.03 377.36,454.41 379.84,450.77 382.32,444.30 384.80,443.90 387.27,600.00 389.75,441.88 392.23,440.66 394.70,439.45 397.18,439.04 399.66,438.64 402.14,437.83 404.61,436.62 407.09,436.62 409.57,434.60 412.05,432.17 414.52,429.34 417.00,428.93 419.48,428.53 421.95,427.72 424.43,426.91 426.91,426.10 429.39,426.10 431.86,426.10 434.34,419.63 436.82,419.23 439.30,418.42 441.77,418.01 444.25,417.61 446.73,417.61 449.20,417.61 451.68,417.21 454.16,417.21 456.64,413.57 459.11,411.95 461.59,412.76 464.07,410.74 466.55,410.74 469.02,410.33 471.50,410.33 473.98,410.33 476.45,409.93 478.93,409.93 481.41,409.93 483.89,409.52 486.36,409.52 488.84,409.12 491.32,409.52 493.80,409.12 496.27,407.50 498.75,407.10 501.23,403.05 503.70,399.82 506.18,400.22 508.66,400.62 511.14,400.62 513.61,399.41 516.09,392.94 518.57,391.32 521.05,389.30 523.52,389.30 526.00,388.49 528.48,375.15 530.95,374.74 533.43,374.74 535.91,374.74 538.39,374.74 540.86,374.34 543.34,374.34 545.82,374.34 548.30,374.34 550.77,374.34 553.25,373.93 555.73,373.12 558.20,372.72 560.68,373.53 563.16,435.81 565.64,372.32 568.11,372.72 570.59,371.91 573.07,371.91 575.55,372.32 578.02,371.10 580.50,369.89 582.98,369.89 585.45,369.89 587.93,369.49 590.41,369.89 592.89,369.08 595.36,368.68 597.84,368.27 600.32,367.87 602.80,367.06 605.27,367.46 607.75,367.06 610.23,366.25 612.70,368.27 615.18,368.68 617.66,368.68 620.14,368.27 622.61,369.08 625.09,367.87 627.57,367.46 630.05,367.06 632.52,360.18 635.00,359.78 637.48,359.38 639.95,356.95 642.43,357.35 644.91,357.76 647.39,355.33 649.86,355.74 652.34,357.35 654.82,355.33 657.30,356.14 659.77,355.74 662.25,356.14 664.73,354.12 667.20,354.93 669.68,356.14 672.16,354.52 674.64,353.71 677.11,354.12 679.59,354.93 682.07,352.90 684.55,353.71 687.02,353.31 689.50,353.31 691.98,354.52 694.45,352.90 696.93,352.50 699.41,352.50 701.89,353.31 704.36,352.50 706.84,353.71 709.32,354.12 711.80,352.50 714.27,352.90 716.75,352.50 719.23,352.10 721.70,351.69 724.18,352.10 726.66,354.12 729.14,352.50 731.61,352.10 734.09,352.10 736.57,349.67 739.05,349.67 741.52,350.88 744.00,351.29 746.48,350.48 748.95,352.10 751.43,350.48 753.91,350.48 756.39,350.48 758.86,350.07 761.34,348.46 763.82,351.29 766.30,349.67 768.77,351.29 771.25,349.67 773.73,348.86 776.20,348.46 778.68,348.46 781.16,347.24 783.64,348.86 786.11,346.84 788.59,348.46 791.07,348.86 793.55,346.84 796.02,349.26 798.50,348.05 800.98,349.26 803.45,349.26 805.93,350.48 808.41,352.90 810.89,349.67 813.36,348.46 815.84,345.62 818.32,344.82 820.80,344.41 823.27,342.39 825.75,341.18 828.23,341.58 830.70,339.15 833.18,338.35 835.66,337.54 838.14,336.73 840.61,335.92 843.09,337.54 845.57,338.35 848.05,337.54 850.52,337.54 853.00,337.54 855.48,333.09 857.95,333.90 860.43,335.92 862.91,336.73 865.39,335.51 867.86,332.28 870.34,331.47 872.82,331.07 875.30,331.47 877.77,331.07 880.25,331.07 882.73,331.07 885.20,331.07 887.68,331.07 890.16,331.07 892.64,331.07 895.11,331.07 897.59,331.07 900.07,331.07 902.55,331.47 905.02,331.88 907.50,331.07 909.98,331.47 912.45,331.07 914.93,331.47 917.41,331.07 919.89,324.19 922.36,324.19 924.84,318.93 927.32,316.51 929.80,310.44 932.27,308.01 934.75,600.00 937.23,301.54 939.70,290.22 942.18,287.79 944.66,286.18 947.14,285.77 949.61,285.77 952.09,285.77 954.57,286.18 957.05,285.77 959.52,285.77 962.00,285.77 964.48,283.35 966.95,282.94 969.43,282.94 971.91,283.35 974.39,282.94 976.86,282.94 979.34,283.75 981.82,282.13 984.30,282.13 986.77,282.54 989.25,282.13 991.73,282.54 994.20,282.94 996.68,281.73 999.16,282.54 1001.64,281.73 1004.11,282.54 1006.59,282.13 1009.07,282.13 1011.55,281.73 1014.02,281.73 1016.50,281.32 1018.98,281.73 1021.45,282.13 1023.93,281.32 1026.41,281.32 1028.89,282.54 1031.36,282.13 1033.84,281.32 1036.32,281.32 1038.80,281.32 1041.27,282.54 1043.75,282.13 1046.23,281.32 1048.70,282.13 1051.18,281.73 1053.66,282.13 1056.14,280.11 1058.61,280.11 1061.09,280.51 1063.57,279.71 1066.05,280.11 1068.52,280.51 1071.00,279.71 1073.48,280.11 1075.95,280.11 1078.43,279.30 1080.91,278.90 1083.39,278.90 1085.86,280.51 1088.34,279.30 1090.82,278.09 1093.30,278.49 1095.77,278.49 1098.25,277.28 1100.73,277.68 1103.20,277.68 1105.68,278.09 1108.16,277.28 1110.64,600.00 1113.11,278.90 1115.59,279.30 1118.07,278.90 1120.55,278.49 1123.02,278.49 1125.50,278.49 1127.98,278.49 1130.45,278.49 1132.93,278.49 1135.41,278.49 1137.89,278.49 1140.36,278.49 1142.84,278.49 1145.32,278.49 1147.80,278.49 1150.27,600.00 1152.75,600.00 1155.23,254.63 1157.70,600.00 1160.18,245.74 1162.66,245.74 1165.14,246.14 1167.61,245.74 1170.09,245.74 1172.57,245.74 1175.05,245.74 1177.52,245.74 1180.00,240.07"/>
<circle cx="90.00" cy="540.55" r="3.2" fill="#1d4ed8"/>
<circle cx="92.48" cy="538.53" r="3.2" fill="#1d4ed8"/>
<circle cx="94.95" cy="536.91" r="3.2" fill="#1d4ed8"/>
<circle cx="97.43" cy="534.49" r="3.2" fill="#1d4ed8"/>
<circle cx="99.91" cy="534.49" r="3.2" fill="#1d4ed8"/>
<circle cx="102.39" cy="533.27" r="3.2" fill="#1d4ed8"/>
<circle cx="104.86" cy="532.46" r="3.2" fill="#1d4ed8"/>
<circle cx="107.34" cy="532.87" r="3.2" fill="#1d4ed8"/>
<circle cx="109.82" cy="532.06" r="3.2" fill="#1d4ed8"/>
<circle cx="112.30" cy="532.46" r="3.2" fill="#1d4ed8"/>
<circle cx="114.77" cy="532.06" r="3.2" fill="#1d4ed8"/>
<circle cx="117.25" cy="568.46" r="3.2" fill="#1d4ed8"/>
<circle cx="119.73" cy="568.46" r="3.2" fill="#1d4ed8"/>
<circle cx="122.20" cy="566.43" r="3.2" fill="#1d4ed8"/>
<circle cx="124.68" cy="545.00" r="3.2" fill="#1d4ed8"/>
<circle cx="127.16" cy="545.00" r="3.2" fill="#1d4ed8"/>
<circle cx="129.64" cy="544.19" r="3.2" fill="#1d4ed8"/>
<circle cx="132.11" cy="543.79" r="3.2" fill="#1d4ed8"/>
<circle cx="134.59" cy="543.79" r="3.2" fill="#1d4ed8"/>
<circle cx="137.07" cy="543.38" r="3.2" fill="#1d4ed8"/>
<circle cx="139.55" cy="541.76" r="3.2" fill="#1d4ed8"/>
<circle cx="142.02" cy="541.36" r="3.2" fill="#1d4ed8"/>
<circle cx="144.50" cy="540.96" r="3.2" fill="#1d4ed8"/>
<circle cx="146.98" cy="540.96" r="3.2" fill="#1d4ed8"/>
<circle cx="149.45" cy="539.34" r="3.2" fill="#1d4ed8"/>
<circle cx="151.93" cy="539.34" r="3.2" fill="#1d4ed8"/>
<circle cx="154.41" cy="556.73" r="3.2" fill="#1d4ed8"/>
<circle cx="156.89" cy="556.73" r="3.2" fill="#1d4ed8"/>
<circle cx="159.36" cy="555.51" r="3.2" fill="#1d4ed8"/>
<circle cx="161.84" cy="551.07" r="3.2" fill="#1d4ed8"/>
<circle cx="164.32" cy="538.93" r="3.2" fill="#1d4ed8"/>
<circle cx="166.80" cy="538.93" r="3.2" fill="#1d4ed8"/>
<circle cx="169.27" cy="538.93" r="3.2" fill="#1d4ed8"/>
<circle cx="171.75" cy="538.12" r="3.2" fill="#1d4ed8"/>
<circle cx="174.23" cy="536.91" r="3.2" fill="#1d4ed8"/>
<circle cx="176.70" cy="536.91" r="3.2" fill="#1d4ed8"/>
<circle cx="179.18" cy="536.51" r="3.2" fill="#1d4ed8"/>
<circle cx="181.66" cy="536.51" r="3.2" fill="#1d4ed8"/>
<circle cx="184.14" cy="556.73" r="3.2" fill="#1d4ed8"/>
<circle cx="186.61" cy="556.73" r="3.2" fill="#1d4ed8"/>
<circle cx="189.09" cy="556.73" r="3.2" fill="#1d4ed8"/>
<circle cx="191.57" cy="556.73" r="3.2" fill="#1d4ed8"/>
<circle cx="194.05" cy="535.29" r="3.2" fill="#1d4ed8"/>
<circle cx="196.52" cy="535.29" r="3.2" fill="#1d4ed8"/>
<circle cx="199.00" cy="535.29" r="3.2" fill="#1d4ed8"/>
<circle cx="201.48" cy="535.29" r="3.2" fill="#1d4ed8"/>
<circle cx="203.95" cy="534.49" r="3.2" fill="#1d4ed8"/>
<circle cx="206.43" cy="534.08" r="3.2" fill="#1d4ed8"/>
<circle cx="208.91" cy="533.68" r="3.2" fill="#1d4ed8"/>
<circle cx="211.39" cy="532.87" r="3.2" fill="#1d4ed8"/>
<circle cx="213.86" cy="532.06" r="3.2" fill="#1d4ed8"/>
<circle cx="216.34" cy="532.06" r="3.2" fill="#1d4ed8"/>
<circle cx="218.82" cy="531.25" r="3.2" fill="#1d4ed8"/>
<circle cx="221.30" cy="530.85" r="3.2" fill="#1d4ed8"/>
<circle cx="223.77" cy="530.44" r="3.2" fill="#1d4ed8"/>
<circle cx="226.25" cy="530.04" r="3.2" fill="#1d4ed8"/>
<circle cx="228.73" cy="530.04" r="3.2" fill="#1d4ed8"/>
<circle cx="231.20" cy="529.23" r="3.2" fill="#1d4ed8"/>
<circle cx="233.68" cy="529.23" r="3.2" fill="#1d4ed8"/>
<circle cx="236.16" cy="529.23" r="3.2" fill="#1d4ed8"/>
<circle cx="238.64" cy="528.42" r="3.2" fill="#1d4ed8"/>
<circle cx="241.11" cy="528.42" r="3.2" fill="#1d4ed8"/>
<circle cx="243.59" cy="527.61" r="3.2" fill="#1d4ed8"/>
<circle cx="246.07" cy="527.21" r="3.2" fill="#1d4ed8"/>
<circle cx="248.55" cy="526.80" r="3.2" fill="#1d4ed8"/>
<circle cx="251.02" cy="526.40" r="3.2" fill="#1d4ed8"/>
<circle cx="253.50" cy="525.18" r="3.2" fill="#1d4ed8"/>
<circle cx="255.98" cy="523.57" r="3.2" fill="#1d4ed8"/>
<circle cx="258.45" cy="523.57" r="3.2" fill="#1d4ed8"/>
<circle cx="260.93" cy="523.16" r="3.2" fill="#1d4ed8"/>
<circle cx="263.41" cy="522.76" r="3.2" fill="#1d4ed8"/>
<circle cx="265.89" cy="522.35" r="3.2" fill="#1d4ed8"/>
<circle cx="268.36" cy="521.54" r="3.2" fill="#1d4ed8"/>
<circle cx="270.84" cy="519.52" r="3.2" fill="#1d4ed8"/>
<circle cx="273.32" cy="517.50" r="3.2" fill="#1d4ed8"/>
<circle cx="275.80" cy="517.50" r="3.2" fill="#1d4ed8"/>
<circle cx="278.27" cy="517.50" r="3.2" fill="#1d4ed8"/>
<circle cx="280.75" cy="517.50" r="3.2" fill="#1d4ed8"/>
<circle cx="283.23" cy="517.50" r="3.2" fill="#1d4ed8"/>
<circle cx="285.70" cy="517.50" r="3.2" fill="#1d4ed8"/>
<circle cx="288.18" cy="517.10" r="3.2" fill="#1d4ed8"/>
<circle cx="290.66" cy="516.69" r="3.2" fill="#1d4ed8"/>
<circle cx="293.14" cy="515.48" r="3.2" fill="#1d4ed8"/>
<circle cx="295.61" cy="515.07" r="3.2" fill="#1d4ed8"/>
<circle cx="298.09" cy="514.67" r="3.2" fill="#1d4ed8"/>
<circle cx="300.57" cy="513.86" r="3.2" fill="#1d4ed8"/>
<circle cx="303.05" cy="514.26" r="3.2" fill="#1d4ed8"/>
<circle cx="305.52" cy="512.24" r="3.2" fill="#1d4ed8"/>
<circle cx="308.00" cy="511.84" r="3.2" fill="#1d4ed8"/>
<circle cx="310.48" cy="511.84" r="3.2" fill="#1d4ed8"/>
<circle cx="312.95" cy="511.03" r="3.2" fill="#1d4ed8"/>
<circle cx="315.43" cy="509.82" r="3.2" fill="#1d4ed8"/>
<circle cx="317.91" cy="507.79" r="3.2" fill="#1d4ed8"/>
<circle cx="320.39" cy="506.99" r="3.2" fill="#1d4ed8"/>
<circle cx="322.86" cy="506.58" r="3.2" fill="#1d4ed8"/>
<circle cx="325.34" cy="509.41" r="3.2" fill="#1d4ed8"/>
<circle cx="327.82" cy="509.01" r="3.2" fill="#1d4ed8"/>
<circle cx="330.30" cy="504.96" r="3.2" fill="#1d4ed8"/>
<circle cx="332.77" cy="504.56" r="3.2" fill="#1d4ed8"/>
<circle cx="335.25" cy="504.15" r="3.2" fill="#1d4ed8"/>
<circle cx="337.73" cy="504.56" r="3.2" fill="#1d4ed8"/>
<circle cx="340.20" cy="503.75" r="3.2" fill="#1d4ed8"/>
<circle cx="342.68" cy="503.75" r="3.2" fill="#1d4ed8"/>
<circle cx="345.16" cy="503.35" r="3.2" fill="#1d4ed8"/>
<circle cx="347.64" cy="499.30" r="3.2" fill="#1d4ed8"/>
<circle cx="350.11" cy="496.47" r="3.2" fill="#1d4ed8"/>
<circle cx="352.59" cy="490.00" r="3.2" fill="#1d4ed8"/>
<circle cx="355.07" cy="484.34" r="3.2" fill="#1d4ed8"/>
<circle cx="357.55" cy="481.10" r="3.2" fill="#1d4ed8"/>
<circle cx="360.02" cy="480.29" r="3.2" fill="#1d4ed8"/>
<circle cx="362.50" cy="480.70" r="3.2" fill="#1d4ed8"/>
<circle cx="364.98" cy="460.88" r="3.2" fill="#1d4ed8"/>
<circle cx="367.45" cy="459.26" r="3.2" fill="#1d4ed8"/>
<circle cx="369.93" cy="458.05" r="3.2" fill="#1d4ed8"/>
<circle cx="372.41" cy="456.03" r="3.2" fill="#1d4ed8"/>
<circle cx="374.89" cy="456.03" r="3.2" fill="#1d4ed8"/>
<circle cx="377.36" cy="454.41" r="3.2" fill="#1d4ed8"/>
<circle cx="379.84" cy="450.77" r="3.2" fill="#1d4ed8"/>
<circle cx="382.32" cy="444.30" r="3.2" fill="#1d4ed8"/>
<circle cx="384.80" cy="443.90" r="3.2" fill="#1d4ed8"/>
<circle cx="387.27" cy="600.00" r="3.2" fill="#1d4ed8"/>
<circle cx="389.75" cy="441.88" r="3.2" fill="#1d4ed8"/>
<circle cx="392.23" cy="440.66" r="3.2" fill="#1d4ed8"/>
<circle cx="394.70" cy="439.45" r="3.2" fill="#1d4ed8"/>
<circle cx="397.18" cy="439.04" r="3.2" fill="#1d4ed8"/>
<circle cx="399.66" cy="438.64" r="3.2" fill="#1d4ed8"/>
<circle cx="402.14" cy="437.83" r="3.2" fill="#1d4ed8"/>
<circle cx="404.61" cy="436.62" r="3.2" fill="#1d4ed8"/>
<circle cx="407.09" cy="436.62" r="3.2" fill="#1d4ed8"/>
<circle cx="409.57" cy="434.60" r="3.2" fill="#1d4ed8"/>
<circle cx="412.05" cy="432.17" r="3.2" fill="#1d4ed8"/>
<circle cx="414.52" cy="429.34" r="3.2" fill="#1d4ed8"/>
<circle cx="417.00" cy="428.93" r="3.2" fill="#1d4ed8"/>
<circle cx="419.48" cy="428.53" r="3.2" fill="#1d4ed8"/>
<circle cx="421.95" cy="427.72" r="3.2" fill="#1d4ed8"/>
<circle cx="424.43" cy="426.91" r="3.2" fill="#1d4ed8"/>
<circle cx="426.91" cy="426.10" r="3.2" fill="#1d4ed8"/>
<circle cx="429.39" cy="426.10" r="3.2" fill="#1d4ed8"/>
<circle cx="431.86" cy="426.10" r="3.2" fill="#1d4ed8"/>
<circle cx="434.34" cy="419.63" r="3.2" fill="#1d4ed8"/>
<circle cx="436.82" cy="419.23" r="3.2" fill="#1d4ed8"/>
<circle cx="439.30" cy="418.42" r="3.2" fill="#1d4ed8"/>
<circle cx="441.77" cy="418.01" r="3.2" fill="#1d4ed8"/>
<circle cx="444.25" cy="417.61" r="3.2" fill="#1d4ed8"/>
<circle cx="446.73" cy="417.61" r="3.2" fill="#1d4ed8"/>
<circle cx="449.20" cy="417.61" r="3.2" fill="#1d4ed8"/>
<circle cx="451.68" cy="417.21" r="3.2" fill="#1d4ed8"/>
<circle cx="454.16" cy="417.21" r="3.2" fill="#1d4ed8"/>
<circle cx="456.64" cy="413.57" r="3.2" fill="#1d4ed8"/>
<circle cx="459.11" cy="411.95" r="3.2" fill="#1d4ed8"/>
<circle cx="461.59" cy="412.76" r="3.2" fill="#1d4ed8"/>
<circle cx="464.07" cy="410.74" r="3.2" fill="#1d4ed8"/>
<circle cx="466.55" cy="410.74" r="3.2" fill="#1d4ed8"/>
<circle cx="469.02" cy="410.33" r="3.2" fill="#1d4ed8"/>
<circle cx="471.50" cy="410.33" r="3.2" fill="#1d4ed8"/>
<circle cx="473.98" cy="410.33" r="3.2" fill="#1d4ed8"/>
<circle cx="476.45" cy="409.93" r="3.2" fill="#1d4ed8"/>
<circle cx="478.93" cy="409.93" r="3.2" fill="#1d4ed8"/>
<circle cx="481.41" cy="409.93" r="3.2" fill="#1d4ed8"/>
<circle cx="483.89" cy="409.52" r="3.2" fill="#1d4ed8"/>
<circle cx="486.36" cy="409.52" r="3.2" fill="#1d4ed8"/>
<circle cx="488.84" cy="409.12" r="3.2" fill="#1d4ed8"/>
<circle cx="491.32" cy="409.52" r="3.2" fill="#1d4ed8"/>
<circle cx="493.80" cy="409.12" r="3.2" fill="#1d4ed8"/>
<circle cx="496.27" cy="407.50" r="3.2" fill="#1d4ed8"/>
<circle cx="498.75" cy="407.10" r="3.2" fill="#1d4ed8"/>
<circle cx="501.23" cy="403.05" r="3.2" fill="#1d4ed8"/>
<circle cx="503.70" cy="399.82" r="3.2" fill="#1d4ed8"/>
<circle cx="506.18" cy="400.22" r="3.2" fill="#1d4ed8"/>
<circle cx="508.66" cy="400.62" r="3.2" fill="#1d4ed8"/>
<circle cx="511.14" cy="400.62" r="3.2" fill="#1d4ed8"/>
<circle cx="513.61" cy="399.41" r="3.2" fill="#1d4ed8"/>
<circle cx="516.09" cy="392.94" r="3.2" fill="#1d4ed8"/>
<circle cx="518.57" cy="391.32" r="3.2" fill="#1d4ed8"/>
<circle cx="521.05" cy="389.30" r="3.2" fill="#1d4ed8"/>
<circle cx="523.52" cy="389.30" r="3.2" fill="#1d4ed8"/>
<circle cx="526.00" cy="388.49" r="3.2" fill="#1d4ed8"/>
<circle cx="528.48" cy="375.15" r="3.2" fill="#1d4ed8"/>
<circle cx="530.95" cy="374.74" r="3.2" fill="#1d4ed8"/>
<circle cx="533.43" cy="374.74" r="3.2" fill="#1d4ed8"/>
<circle cx="535.91" cy="374.74" r="3.2" fill="#1d4ed8"/>
<circle cx="538.39" cy="374.74" r="3.2" fill="#1d4ed8"/>
<circle cx="540.86" cy="374.34" r="3.2" fill="#1d4ed8"/>
<circle cx="543.34" cy="374.34" r="3.2" fill="#1d4ed8"/>
<circle cx="545.82" cy="374.34" r="3.2" fill="#1d4ed8"/>
<circle cx="548.30" cy="374.34" r="3.2" fill="#1d4ed8"/>
<circle cx="550.77" cy="374.34" r="3.2" fill="#1d4ed8"/>
<circle cx="553.25" cy="373.93" r="3.2" fill="#1d4ed8"/>
<circle cx="555.73" cy="373.12" r="3.2" fill="#1d4ed8"/>
<circle cx="558.20" cy="372.72" r="3.2" fill="#1d4ed8"/>
<circle cx="560.68" cy="373.53" r="3.2" fill="#1d4ed8"/>
<circle cx="563.16" cy="435.81" r="3.2" fill="#1d4ed8"/>
<circle cx="565.64" cy="372.32" r="3.2" fill="#1d4ed8"/>
<circle cx="568.11" cy="372.72" r="3.2" fill="#1d4ed8"/>
<circle cx="570.59" cy="371.91" r="3.2" fill="#1d4ed8"/>
<circle cx="573.07" cy="371.91" r="3.2" fill="#1d4ed8"/>
<circle cx="575.55" cy="372.32" r="3.2" fill="#1d4ed8"/>
<circle cx="578.02" cy="371.10" r="3.2" fill="#1d4ed8"/>
<circle cx="580.50" cy="369.89" r="3.2" fill="#1d4ed8"/>
<circle cx="582.98" cy="369.89" r="3.2" fill="#1d4ed8"/>
<circle cx="585.45" cy="369.89" r="3.2" fill="#1d4ed8"/>
<circle cx="587.93" cy="369.49" r="3.2" fill="#1d4ed8"/>
<circle cx="590.41" cy="369.89" r="3.2" fill="#1d4ed8"/>
<circle cx="592.89" cy="369.08" r="3.2" fill="#1d4ed8"/>
<circle cx="595.36" cy="368.68" r="3.2" fill="#1d4ed8"/>
<circle cx="597.84" cy="368.27" r="3.2" fill="#1d4ed8"/>
<circle cx="600.32" cy="367.87" r="3.2" fill="#1d4ed8"/>
<circle cx="602.80" cy="367.06" r="3.2" fill="#1d4ed8"/>
<circle cx="605.27" cy="367.46" r="3.2" fill="#1d4ed8"/>
<circle cx="607.75" cy="367.06" r="3.2" fill="#1d4ed8"/>
<circle cx="610.23" cy="366.25" r="3.2" fill="#1d4ed8"/>
<circle cx="612.70" cy="368.27" r="3.2" fill="#1d4ed8"/>
<circle cx="615.18" cy="368.68" r="3.2" fill="#1d4ed8"/>
<circle cx="617.66" cy="368.68" r="3.2" fill="#1d4ed8"/>
<circle cx="620.14" cy="368.27" r="3.2" fill="#1d4ed8"/>
<circle cx="622.61" cy="369.08" r="3.2" fill="#1d4ed8"/>
<circle cx="625.09" cy="367.87" r="3.2" fill="#1d4ed8"/>
<circle cx="627.57" cy="367.46" r="3.2" fill="#1d4ed8"/>
<circle cx="630.05" cy="367.06" r="3.2" fill="#1d4ed8"/>
<circle cx="632.52" cy="360.18" r="3.2" fill="#1d4ed8"/>
<circle cx="635.00" cy="359.78" r="3.2" fill="#1d4ed8"/>
<circle cx="637.48" cy="359.38" r="3.2" fill="#1d4ed8"/>
<circle cx="639.95" cy="356.95" r="3.2" fill="#1d4ed8"/>
<circle cx="642.43" cy="357.35" r="3.2" fill="#1d4ed8"/>
<circle cx="644.91" cy="357.76" r="3.2" fill="#1d4ed8"/>
<circle cx="647.39" cy="355.33" r="3.2" fill="#1d4ed8"/>
<circle cx="649.86" cy="355.74" r="3.2" fill="#1d4ed8"/>
<circle cx="652.34" cy="357.35" r="3.2" fill="#1d4ed8"/>
<circle cx="654.82" cy="355.33" r="3.2" fill="#1d4ed8"/>
<circle cx="657.30" cy="356.14" r="3.2" fill="#1d4ed8"/>
<circle cx="659.77" cy="355.74" r="3.2" fill="#1d4ed8"/>
<circle cx="662.25" cy="356.14" r="3.2" fill="#1d4ed8"/>
<circle cx="664.73" cy="354.12" r="3.2" fill="#1d4ed8"/>
<circle cx="667.20" cy="354.93" r="3.2" fill="#1d4ed8"/>
<circle cx="669.68" cy="356.14" r="3.2" fill="#1d4ed8"/>
<circle cx="672.16" cy="354.52" r="3.2" fill="#1d4ed8"/>
<circle cx="674.64" cy="353.71" r="3.2" fill="#1d4ed8"/>
<circle cx="677.11" cy="354.12" r="3.2" fill="#1d4ed8"/>
<circle cx="679.59" cy="354.93" r="3.2" fill="#1d4ed8"/>
<circle cx="682.07" cy="352.90" r="3.2" fill="#1d4ed8"/>
<circle cx="684.55" cy="353.71" r="3.2" fill="#1d4ed8"/>
<circle cx="687.02" cy="353.31" r="3.2" fill="#1d4ed8"/>
<circle cx="689.50" cy="353.31" r="3.2" fill="#1d4ed8"/>
<circle cx="691.98" cy="354.52" r="3.2" fill="#1d4ed8"/>
<circle cx="694.45" cy="352.90" r="3.2" fill="#1d4ed8"/>
<circle cx="696.93" cy="352.50" r="3.2" fill="#1d4ed8"/>
<circle cx="699.41" cy="352.50" r="3.2" fill="#1d4ed8"/>
<circle cx="701.89" cy="353.31" r="3.2" fill="#1d4ed8"/>
<circle cx="704.36" cy="352.50" r="3.2" fill="#1d4ed8"/>
<circle cx="706.84" cy="353.71" r="3.2" fill="#1d4ed8"/>
<circle cx="709.32" cy="354.12" r="3.2" fill="#1d4ed8"/>
<circle cx="711.80" cy="352.50" r="3.2" fill="#1d4ed8"/>
<circle cx="714.27" cy="352.90" r="3.2" fill="#1d4ed8"/>
<circle cx="716.75" cy="352.50" r="3.2" fill="#1d4ed8"/>
<circle cx="719.23" cy="352.10" r="3.2" fill="#1d4ed8"/>
<circle cx="721.70" cy="351.69" r="3.2" fill="#1d4ed8"/>
<circle cx="724.18" cy="352.10" r="3.2" fill="#1d4ed8"/>
<circle cx="726.66" cy="354.12" r="3.2" fill="#1d4ed8"/>
<circle cx="729.14" cy="352.50" r="3.2" fill="#1d4ed8"/>
<circle cx="731.61" cy="352.10" r="3.2" fill="#1d4ed8"/>
<circle cx="734.09" cy="352.10" r="3.2" fill="#1d4ed8"/>
<circle cx="736.57" cy="349.67" r="3.2" fill="#1d4ed8"/>
<circle cx="739.05" cy="349.67" r="3.2" fill="#1d4ed8"/>
<circle cx="741.52" cy="350.88" r="3.2" fill="#1d4ed8"/>
<circle cx="744.00" cy="351.29" r="3.2" fill="#1d4ed8"/>
<circle cx="746.48" cy="350.48" r="3.2" fill="#1d4ed8"/>
<circle cx="748.95" cy="352.10" r="3.2" fill="#1d4ed8"/>
<circle cx="751.43" cy="350.48" r="3.2" fill="#1d4ed8"/>
<circle cx="753.91" cy="350.48" r="3.2" fill="#1d4ed8"/>
<circle cx="756.39" cy="350.48" r="3.2" fill="#1d4ed8"/>
<circle cx="758.86" cy="350.07" r="3.2" fill="#1d4ed8"/>
<circle cx="761.34" cy="348.46" r="3.2" fill="#1d4ed8"/>
<circle cx="763.82" cy="351.29" r="3.2" fill="#1d4ed8"/>
<circle cx="766.30" cy="349.67" r="3.2" fill="#1d4ed8"/>
<circle cx="768.77" cy="351.29" r="3.2" fill="#1d4ed8"/>
<circle cx="771.25" cy="349.67" r="3.2" fill="#1d4ed8"/>
<circle cx="773.73" cy="348.86" r="3.2" fill="#1d4ed8"/>
<circle cx="776.20" cy="348.46" r="3.2" fill="#1d4ed8"/>
<circle cx="778.68" cy="348.46" r="3.2" fill="#1d4ed8"/>
<circle cx="781.16" cy="347.24" r="3.2" fill="#1d4ed8"/>
<circle cx="783.64" cy="348.86" r="3.2" fill="#1d4ed8"/>
<circle cx="786.11" cy="346.84" r="3.2" fill="#1d4ed8"/>
<circle cx="788.59" cy="348.46" r="3.2" fill="#1d4ed8"/>
<circle cx="791.07" cy="348.86" r="3.2" fill="#1d4ed8"/>
<circle cx="793.55" cy="346.84" r="3.2" fill="#1d4ed8"/>
<circle cx="796.02" cy="349.26" r="3.2" fill="#1d4ed8"/>
<circle cx="798.50" cy="348.05" r="3.2" fill="#1d4ed8"/>
<circle cx="800.98" cy="349.26" r="3.2" fill="#1d4ed8"/>
<circle cx="803.45" cy="349.26" r="3.2" fill="#1d4ed8"/>
<circle cx="805.93" cy="350.48" r="3.2" fill="#1d4ed8"/>
<circle cx="808.41" cy="352.90" r="3.2" fill="#1d4ed8"/>
<circle cx="810.89" cy="349.67" r="3.2" fill="#1d4ed8"/>
<circle cx="813.36" cy="348.46" r="3.2" fill="#1d4ed8"/>
<circle cx="815.84" cy="345.62" r="3.2" fill="#1d4ed8"/>
<circle cx="818.32" cy="344.82" r="3.2" fill="#1d4ed8"/>
<circle cx="820.80" cy="344.41" r="3.2" fill="#1d4ed8"/>
<circle cx="823.27" cy="342.39" r="3.2" fill="#1d4ed8"/>
<circle cx="825.75" cy="341.18" r="3.2" fill="#1d4ed8"/>
<circle cx="828.23" cy="341.58" r="3.2" fill="#1d4ed8"/>
<circle cx="830.70" cy="339.15" r="3.2" fill="#1d4ed8"/>
<circle cx="833.18" cy="338.35" r="3.2" fill="#1d4ed8"/>
<circle cx="835.66" cy="337.54" r="3.2" fill="#1d4ed8"/>
<circle cx="838.14" cy="336.73" r="3.2" fill="#1d4ed8"/>
<circle cx="840.61" cy="335.92" r="3.2" fill="#1d4ed8"/>
<circle cx="843.09" cy="337.54" r="3.2" fill="#1d4ed8"/>
<circle cx="845.57" cy="338.35" r="3.2" fill="#1d4ed8"/>
<circle cx="848.05" cy="337.54" r="3.2" fill="#1d4ed8"/>
<circle cx="850.52" cy="337.54" r="3.2" fill="#1d4ed8"/>
<circle cx="853.00" cy="337.54" r="3.2" fill="#1d4ed8"/>
<circle cx="855.48" cy="333.09" r="3.2" fill="#1d4ed8"/>
<circle cx="857.95" cy="333.90" r="3.2" fill="#1d4ed8"/>
<circle cx="860.43" cy="335.92" r="3.2" fill="#1d4ed8"/>
<circle cx="862.91" cy="336.73" r="3.2" fill="#1d4ed8"/>
<circle cx="865.39" cy="335.51" r="3.2" fill="#1d4ed8"/>
<circle cx="867.86" cy="332.28" r="3.2" fill="#1d4ed8"/>
<circle cx="870.34" cy="331.47" r="3.2" fill="#1d4ed8"/>
<circle cx="872.82" cy="331.07" r="3.2" fill="#1d4ed8"/>
<circle cx="875.30" cy="331.47" r="3.2" fill="#1d4ed8"/>
<circle cx="877.77" cy="331.07" r="3.2" fill="#1d4ed8"/>
<circle cx="880.25" cy="331.07" r="3.2" fill="#1d4ed8"/>
<circle cx="882.73" cy="331.07" r="3.2" fill="#1d4ed8"/>
<circle cx="885.20" cy="331.07" r="3.2" fill="#1d4ed8"/>
<circle cx="887.68" cy="331.07" r="3.2" fill="#1d4ed8"/>
<circle cx="890.16" cy="331.07" r="3.2" fill="#1d4ed8"/>
<circle cx="892.64" cy="331.07" r="3.2" fill="#1d4ed8"/>
<circle cx="895.11" cy="331.07" r="3.2" fill="#1d4ed8"/>
<circle cx="897.59" cy="331.07" r="3.2" fill="#1d4ed8"/>
<circle cx="900.07" cy="331.07" r="3.2" fill="#1d4ed8"/>
<circle cx="902.55" cy="331.47" r="3.2" fill="#1d4ed8"/>
<circle cx="905.02" cy="331.88" r="3.2" fill="#1d4ed8"/>
<circle cx="907.50" cy="331.07" r="3.2" fill="#1d4ed8"/>
<circle cx="909.98" cy="331.47" r="3.2" fill="#1d4ed8"/>
<circle cx="912.45" cy="331.07" r="3.2" fill="#1d4ed8"/>
<circle cx="914.93" cy="331.47" r="3.2" fill="#1d4ed8"/>
<circle cx="917.41" cy="331.07" r="3.2" fill="#1d4ed8"/>
<circle cx="919.89" cy="324.19" r="3.2" fill="#1d4ed8"/>
<circle cx="922.36" cy="324.19" r="3.2" fill="#1d4ed8"/>
<circle cx="924.84" cy="318.93" r="3.2" fill="#1d4ed8"/>
<circle cx="927.32" cy="316.51" r="3.2" fill="#1d4ed8"/>
<circle cx="929.80" cy="310.44" r="3.2" fill="#1d4ed8"/>
<circle cx="932.27" cy="308.01" r="3.2" fill="#1d4ed8"/>
<circle cx="934.75" cy="600.00" r="3.2" fill="#1d4ed8"/>
<circle cx="937.23" cy="301.54" r="3.2" fill="#1d4ed8"/>
<circle cx="939.70" cy="290.22" r="3.2" fill="#1d4ed8"/>
<circle cx="942.18" cy="287.79" r="3.2" fill="#1d4ed8"/>
<circle cx="944.66" cy="286.18" r="3.2" fill="#1d4ed8"/>
<circle cx="947.14" cy="285.77" r="3.2" fill="#1d4ed8"/>
<circle cx="949.61" cy="285.77" r="3.2" fill="#1d4ed8"/>
<circle cx="952.09" cy="285.77" r="3.2" fill="#1d4ed8"/>
<circle cx="954.57" cy="286.18" r="3.2" fill="#1d4ed8"/>
<circle cx="957.05" cy="285.77" r="3.2" fill="#1d4ed8"/>
<circle cx="959.52" cy="285.77" r="3.2" fill="#1d4ed8"/>
<circle cx="962.00" cy="285.77" r="3.2" fill="#1d4ed8"/>
<circle cx="964.48" cy="283.35" r="3.2" fill="#1d4ed8"/>
<circle cx="966.95" cy="282.94" r="3.2" fill="#1d4ed8"/>
<circle cx="969.43" cy="282.94" r="3.2" fill="#1d4ed8"/>
<circle cx="971.91" cy="283.35" r="3.2" fill="#1d4ed8"/>
<circle cx="974.39" cy="282.94" r="3.2" fill="#1d4ed8"/>
<circle cx="976.86" cy="282.94" r="3.2" fill="#1d4ed8"/>
<circle cx="979.34" cy="283.75" r="3.2" fill="#1d4ed8"/>
<circle cx="981.82" cy="282.13" r="3.2" fill="#1d4ed8"/>
<circle cx="984.30" cy="282.13" r="3.2" fill="#1d4ed8"/>
<circle cx="986.77" cy="282.54" r="3.2" fill="#1d4ed8"/>
<circle cx="989.25" cy="282.13" r="3.2" fill="#1d4ed8"/>
<circle cx="991.73" cy="282.54" r="3.2" fill="#1d4ed8"/>
<circle cx="994.20" cy="282.94" r="3.2" fill="#1d4ed8"/>
<circle cx="996.68" cy="281.73" r="3.2" fill="#1d4ed8"/>
<circle cx="999.16" cy="282.54" r="3.2" fill="#1d4ed8"/>
<circle cx="1001.64" cy="281.73" r="3.2" fill="#1d4ed8"/>
<circle cx="1004.11" cy="282.54" r="3.2" fill="#1d4ed8"/>
<circle cx="1006.59" cy="282.13" r="3.2" fill="#1d4ed8"/>
<circle cx="1009.07" cy="282.13" r="3.2" fill="#1d4ed8"/>
<circle cx="1011.55" cy="281.73" r="3.2" fill="#1d4ed8"/>
<circle cx="1014.02" cy="281.73" r="3.2" fill="#1d4ed8"/>
<circle cx="1016.50" cy="281.32" r="3.2" fill="#1d4ed8"/>
<circle cx="1018.98" cy="281.73" r="3.2" fill="#1d4ed8"/>
<circle cx="1021.45" cy="282.13" r="3.2" fill="#1d4ed8"/>
<circle cx="1023.93" cy="281.32" r="3.2" fill="#1d4ed8"/>
<circle cx="1026.41" cy="281.32" r="3.2" fill="#1d4ed8"/>
<circle cx="1028.89" cy="282.54" r="3.2" fill="#1d4ed8"/>
<circle cx="1031.36" cy="282.13" r="3.2" fill="#1d4ed8"/>
<circle cx="1033.84" cy="281.32" r="3.2" fill="#1d4ed8"/>
<circle cx="1036.32" cy="281.32" r="3.2" fill="#1d4ed8"/>
<circle cx="1038.80" cy="281.32" r="3.2" fill="#1d4ed8"/>
<circle cx="1041.27" cy="282.54" r="3.2" fill="#1d4ed8"/>
<circle cx="1043.75" cy="282.13" r="3.2" fill="#1d4ed8"/>
<circle cx="1046.23" cy="281.32" r="3.2" fill="#1d4ed8"/>
<circle cx="1048.70" cy="282.13" r="3.2" fill="#1d4ed8"/>
<circle cx="1051.18" cy="281.73" r="3.2" fill="#1d4ed8"/>
<circle cx="1053.66" cy="282.13" r="3.2" fill="#1d4ed8"/>
<circle cx="1056.14" cy="280.11" r="3.2" fill="#1d4ed8"/>
<circle cx="1058.61" cy="280.11" r="3.2" fill="#1d4ed8"/>
<circle cx="1061.09" cy="280.51" r="3.2" fill="#1d4ed8"/>
<circle cx="1063.57" cy="279.71" r="3.2" fill="#1d4ed8"/>
<circle cx="1066.05" cy="280.11" r="3.2" fill="#1d4ed8"/>
<circle cx="1068.52" cy="280.51" r="3.2" fill="#1d4ed8"/>
<circle cx="1071.00" cy="279.71" r="3.2" fill="#1d4ed8"/>
<circle cx="1073.48" cy="280.11" r="3.2" fill="#1d4ed8"/>
<circle cx="1075.95" cy="280.11" r="3.2" fill="#1d4ed8"/>
<circle cx="1078.43" cy="279.30" r="3.2" fill="#1d4ed8"/>
<circle cx="1080.91" cy="278.90" r="3.2" fill="#1d4ed8"/>
<circle cx="1083.39" cy="278.90" r="3.2" fill="#1d4ed8"/>
<circle cx="1085.86" cy="280.51" r="3.2" fill="#1d4ed8"/>
<circle cx="1088.34" cy="279.30" r="3.2" fill="#1d4ed8"/>
<circle cx="1090.82" cy="278.09" r="3.2" fill="#1d4ed8"/>
<circle cx="1093.30" cy="278.49" r="3.2" fill="#1d4ed8"/>
<circle cx="1095.77" cy="278.49" r="3.2" fill="#1d4ed8"/>
<circle cx="1098.25" cy="277.28" r="3.2" fill="#1d4ed8"/>
<circle cx="1100.73" cy="277.68" r="3.2" fill="#1d4ed8"/>
<circle cx="1103.20" cy="277.68" r="3.2" fill="#1d4ed8"/>
<circle cx="1105.68" cy="278.09" r="3.2" fill="#1d4ed8"/>
<circle cx="1108.16" cy="277.28" r="3.2" fill="#1d4ed8"/>
<circle cx="1110.64" cy="600.00" r="3.2" fill="#1d4ed8"/>
<circle cx="1113.11" cy="278.90" r="3.2" fill="#1d4ed8"/>
<circle cx="1115.59" cy="279.30" r="3.2" fill="#1d4ed8"/>
<circle cx="1118.07" cy="278.90" r="3.2" fill="#1d4ed8"/>
<circle cx="1120.55" cy="278.49" r="3.2" fill="#1d4ed8"/>
<circle cx="1123.02" cy="278.49" r="3.2" fill="#1d4ed8"/>
<circle cx="1125.50" cy="278.49" r="3.2" fill="#1d4ed8"/>
<circle cx="1127.98" cy="278.49" r="3.2" fill="#1d4ed8"/>
<circle cx="1130.45" cy="278.49" r="3.2" fill="#1d4ed8"/>
<circle cx="1132.93" cy="278.49" r="3.2" fill="#1d4ed8"/>
<circle cx="1135.41" cy="278.49" r="3.2" fill="#1d4ed8"/>
<circle cx="1137.89" cy="278.49" r="3.2" fill="#1d4ed8"/>
<circle cx="1140.36" cy="278.49" r="3.2" fill="#1d4ed8"/>
<circle cx="1142.84" cy="278.49" r="3.2" fill="#1d4ed8"/>
<circle cx="1145.32" cy="278.49" r="3.2" fill="#1d4ed8"/>
<circle cx="1147.80" cy="278.49" r="3.2" fill="#1d4ed8"/>
<circle cx="1150.27" cy="600.00" r="3.2" fill="#1d4ed8"/>
<circle cx="1152.75" cy="600.00" r="3.2" fill="#1d4ed8"/>
<circle cx="1155.23" cy="254.63" r="3.2" fill="#1d4ed8"/>
<circle cx="1157.70" cy="600.00" r="3.2" fill="#1d4ed8"/>
<circle cx="1160.18" cy="245.74" r="3.2" fill="#1d4ed8"/>
<circle cx="1162.66" cy="245.74" r="3.2" fill="#1d4ed8"/>
<circle cx="1165.14" cy="246.14" r="3.2" fill="#1d4ed8"/>
<circle cx="1167.61" cy="245.74" r="3.2" fill="#1d4ed8"/>
<circle cx="1170.09" cy="245.74" r="3.2" fill="#1d4ed8"/>
<circle cx="1172.57" cy="245.74" r="3.2" fill="#1d4ed8"/>
<circle cx="1175.05" cy="245.74" r="3.2" fill="#1d4ed8"/>
<circle cx="1177.52" cy="245.74" r="3.2" fill="#1d4ed8"/>
<circle cx="1180.00" cy="240.07" r="3.2" fill="#1d4ed8"/>
<text x="635" y="695" text-anchor="middle" font-size="14" fill="#111" font-family="sans-serif">Date</text>
<text x="24" y="325" text-anchor="middle" font-size="14" fill="#111" transform="rotate(-90 24,325)" font-family="sans-serif">Passed files</text>
</svg>
