<?xml version="1.0" encoding="UTF-8"?>
<svg xmlns="http://www.w3.org/2000/svg" width="1280" height="720" viewBox="0 0 1280 720">
<rect width="100%" height="100%" fill="#ffffff"/>
<text x="640" y="30" text-anchor="middle" font-size="22" font-family="sans-serif">Roast passed files history</text>
<line x1="90" y1="600" x2="1180" y2="600" stroke="#333" stroke-width="1.5"/>
<line x1="90" y1="50" x2="90" y2="600" stroke="#333" stroke-width="1.5"/>
<line x1="90" y1="600.00" x2="1180" y2="600.00" stroke="#e5e7eb" stroke-width="1"/>
<text x="78" y="605.00" text-anchor="end" font-size="12" fill="#111" font-family="sans-serif">0</text>
<line x1="90" y1="397.79" x2="1180" y2="397.79" stroke="#e5e7eb" stroke-width="1"/>
<text x="78" y="402.79" text-anchor="end" font-size="12" fill="#111" font-family="sans-serif">500</text>
<line x1="90" y1="195.59" x2="1180" y2="195.59" stroke="#e5e7eb" stroke-width="1"/>
<text x="78" y="200.59" text-anchor="end" font-size="12" fill="#111" font-family="sans-serif">1000</text>
<line x1="90.00" y1="600" x2="90.00" y2="606" stroke="#333" stroke-width="1"/>
<text x="90.00" y="624" text-anchor="end" font-size="11" fill="#111" transform="rotate(-40 90.00,624)" font-family="sans-serif">2026-02-12</text>
<line x1="223.22" y1="600" x2="223.22" y2="606" stroke="#333" stroke-width="1"/>
<text x="223.22" y="624" text-anchor="end" font-size="11" fill="#111" transform="rotate(-40 223.22,624)" font-family="sans-serif">2026-02-17</text>
<line x1="356.44" y1="600" x2="356.44" y2="606" stroke="#333" stroke-width="1"/>
<text x="356.44" y="624" text-anchor="end" font-size="11" fill="#111" transform="rotate(-40 356.44,624)" font-family="sans-serif">2026-02-19</text>
<line x1="489.67" y1="600" x2="489.67" y2="606" stroke="#333" stroke-width="1"/>
<text x="489.67" y="624" text-anchor="end" font-size="11" fill="#111" transform="rotate(-40 489.67,624)" font-family="sans-serif">2026-02-22</text>
<line x1="622.89" y1="600" x2="622.89" y2="606" stroke="#333" stroke-width="1"/>
<text x="622.89" y="624" text-anchor="end" font-size="11" fill="#111" transform="rotate(-40 622.89,624)" font-family="sans-serif">2026-02-25</text>
<line x1="756.11" y1="600" x2="756.11" y2="606" stroke="#333" stroke-width="1"/>
<text x="756.11" y="624" text-anchor="end" font-size="11" fill="#111" transform="rotate(-40 756.11,624)" font-family="sans-serif">2026-02-27</text>
<line x1="889.33" y1="600" x2="889.33" y2="606" stroke="#333" stroke-width="1"/>
<text x="889.33" y="624" text-anchor="end" font-size="11" fill="#111" transform="rotate(-40 889.33,624)" font-family="sans-serif">2026-03-01</text>
<line x1="1022.56" y1="600" x2="1022.56" y2="606" stroke="#333" stroke-width="1"/>
<text x="1022.56" y="624" text-anchor="end" font-size="11" fill="#111" transform="rotate(-40 1022.56,624)" font-family="sans-serif">2026-03-06</text>
<line x1="1155.78" y1="600" x2="1155.78" y2="606" stroke="#333" stroke-width="1"/>
<text x="1155.78" y="624" text-anchor="end" font-size="11" fill="#111" transform="rotate(-40 1155.78,624)" font-family="sans-serif">2026-03-06</text>
<line x1="1180.00" y1="600" x2="1180.00" y2="606" stroke="#333" stroke-width="1"/>
<text x="1180.00" y="624" text-anchor="end" font-size="11" fill="#111" transform="rotate(-40 1180.00,624)" font-family="sans-serif">2026-03-06</text>
<line x1="90" y1="75.88" x2="1180" y2="75.88" stroke="#dc2626" stroke-width="1.5" stroke-dasharray="8,4"/>
<text x="1184" y="79.88" font-size="12" fill="#dc2626" font-family="sans-serif">Goal: 1296</text>
<polyline fill="none" stroke="#2563eb" stroke-width="3" points="90.00,540.55 94.04,538.53 98.07,536.91 102.11,534.49 106.15,534.49 110.19,533.27 114.22,532.46 118.26,532.87 122.30,532.06 126.33,532.46 130.37,532.06 134.41,568.46 138.44,568.46 142.48,566.43 146.52,545.00 150.56,545.00 154.59,544.19 158.63,543.79 162.67,543.79 166.70,543.38 170.74,541.76 174.78,541.36 178.81,540.96 182.85,540.96 186.89,539.34 190.93,539.34 194.96,556.73 199.00,556.73 203.04,555.51 207.07,551.07 211.11,538.93 215.15,538.93 219.19,538.93 223.22,538.12 227.26,536.91 231.30,536.91 235.33,536.51 239.37,536.51 243.41,556.73 247.44,556.73 251.48,556.73 255.52,556.73 259.56,535.29 263.59,535.29 267.63,535.29 271.67,535.29 275.70,534.49 279.74,534.08 283.78,533.68 287.81,532.87 291.85,532.06 295.89,532.06 299.93,531.25 303.96,530.85 308.00,530.44 312.04,530.04 316.07,530.04 320.11,529.23 324.15,529.23 328.19,529.23 332.22,528.42 336.26,528.42 340.30,527.61 344.33,527.21 348.37,526.80 352.41,526.40 356.44,525.18 360.48,523.57 364.52,523.57 368.56,523.16 372.59,522.76 376.63,522.35 380.67,521.54 384.70,519.52 388.74,517.50 392.78,517.50 396.81,517.50 400.85,517.50 404.89,517.50 408.93,517.50 412.96,517.10 417.00,516.69 421.04,515.48 425.07,515.07 429.11,514.67 433.15,513.86 437.19,514.26 441.22,512.24 445.26,511.84 449.30,511.84 453.33,511.03 457.37,509.82 461.41,507.79 465.44,506.99 469.48,506.58 473.52,509.41 477.56,509.01 481.59,504.96 485.63,504.56 489.67,504.15 493.70,504.56 497.74,503.75 501.78,503.75 505.81,503.35 509.85,499.30 513.89,496.47 517.93,490.00 521.96,484.34 526.00,481.10 530.04,480.29 534.07,480.70 538.11,460.88 542.15,459.26 546.19,458.05 550.22,456.03 554.26,456.03 558.30,454.41 562.33,450.77 566.37,444.30 570.41,443.90 574.44,600.00 578.48,441.88 582.52,440.66 586.56,439.45 590.59,439.04 594.63,438.64 598.67,437.83 602.70,436.62 606.74,436.62 610.78,434.60 614.81,432.17 618.85,429.34 622.89,428.93 626.93,428.53 630.96,427.72 635.00,426.91 639.04,426.10 643.07,426.10 647.11,426.10 651.15,419.63 655.19,419.23 659.22,418.42 663.26,418.01 667.30,417.61 671.33,417.61 675.37,417.61 679.41,417.21 683.44,417.21 687.48,413.57 691.52,411.95 695.56,412.76 699.59,410.74 703.63,410.74 707.67,410.33 711.70,410.33 715.74,410.33 719.78,409.93 723.81,409.93 727.85,409.93 731.89,409.52 735.93,409.52 739.96,409.12 744.00,409.52 748.04,409.12 752.07,407.50 756.11,407.10 760.15,403.05 764.19,399.82 768.22,400.22 772.26,400.62 776.30,400.62 780.33,399.41 784.37,392.94 788.41,391.32 792.44,389.30 796.48,389.30 800.52,388.49 804.56,375.15 808.59,374.74 812.63,374.74 816.67,374.74 820.70,374.74 824.74,374.34 828.78,374.34 832.81,374.34 836.85,374.34 840.89,374.34 844.93,373.93 848.96,373.12 853.00,372.72 857.04,373.53 861.07,435.81 865.11,372.32 869.15,372.72 873.19,371.91 877.22,371.91 881.26,372.32 885.30,371.10 889.33,369.89 893.37,369.89 897.41,369.89 901.44,369.49 905.48,369.89 909.52,369.08 913.56,368.68 917.59,368.27 921.63,367.87 925.67,367.06 929.70,367.46 933.74,367.06 937.78,366.25 941.81,368.27 945.85,368.68 949.89,368.68 953.93,368.27 957.96,369.08 962.00,367.87 966.04,367.46 970.07,367.06 974.11,360.18 978.15,359.78 982.19,359.38 986.22,356.95 990.26,357.35 994.30,357.76 998.33,355.33 1002.37,355.74 1006.41,357.35 1010.44,355.33 1014.48,356.14 1018.52,355.74 1022.56,356.14 1026.59,354.12 1030.63,354.93 1034.67,356.14 1038.70,354.52 1042.74,353.71 1046.78,354.12 1050.81,354.93 1054.85,352.90 1058.89,353.71 1062.93,353.31 1066.96,353.31 1071.00,354.52 1075.04,352.90 1079.07,352.50 1083.11,352.50 1087.15,353.31 1091.19,352.50 1095.22,353.71 1099.26,354.12 1103.30,352.50 1107.33,352.90 1111.37,352.50 1115.41,352.10 1119.44,351.69 1123.48,352.10 1127.52,354.12 1131.56,352.50 1135.59,352.10 1139.63,352.10 1143.67,349.67 1147.70,349.67 1151.74,350.88 1155.78,351.29 1159.81,350.48 1163.85,352.10 1167.89,350.48 1171.93,350.48 1175.96,350.48 1180.00,350.07"/>
<circle cx="90.00" cy="540.55" r="3.2" fill="#1d4ed8"/>
<circle cx="94.04" cy="538.53" r="3.2" fill="#1d4ed8"/>
<circle cx="98.07" cy="536.91" r="3.2" fill="#1d4ed8"/>
<circle cx="102.11" cy="534.49" r="3.2" fill="#1d4ed8"/>
<circle cx="106.15" cy="534.49" r="3.2" fill="#1d4ed8"/>
<circle cx="110.19" cy="533.27" r="3.2" fill="#1d4ed8"/>
<circle cx="114.22" cy="532.46" r="3.2" fill="#1d4ed8"/>
<circle cx="118.26" cy="532.87" r="3.2" fill="#1d4ed8"/>
<circle cx="122.30" cy="532.06" r="3.2" fill="#1d4ed8"/>
<circle cx="126.33" cy="532.46" r="3.2" fill="#1d4ed8"/>
<circle cx="130.37" cy="532.06" r="3.2" fill="#1d4ed8"/>
<circle cx="134.41" cy="568.46" r="3.2" fill="#1d4ed8"/>
<circle cx="138.44" cy="568.46" r="3.2" fill="#1d4ed8"/>
<circle cx="142.48" cy="566.43" r="3.2" fill="#1d4ed8"/>
<circle cx="146.52" cy="545.00" r="3.2" fill="#1d4ed8"/>
<circle cx="150.56" cy="545.00" r="3.2" fill="#1d4ed8"/>
<circle cx="154.59" cy="544.19" r="3.2" fill="#1d4ed8"/>
<circle cx="158.63" cy="543.79" r="3.2" fill="#1d4ed8"/>
<circle cx="162.67" cy="543.79" r="3.2" fill="#1d4ed8"/>
<circle cx="166.70" cy="543.38" r="3.2" fill="#1d4ed8"/>
<circle cx="170.74" cy="541.76" r="3.2" fill="#1d4ed8"/>
<circle cx="174.78" cy="541.36" r="3.2" fill="#1d4ed8"/>
<circle cx="178.81" cy="540.96" r="3.2" fill="#1d4ed8"/>
<circle cx="182.85" cy="540.96" r="3.2" fill="#1d4ed8"/>
<circle cx="186.89" cy="539.34" r="3.2" fill="#1d4ed8"/>
<circle cx="190.93" cy="539.34" r="3.2" fill="#1d4ed8"/>
<circle cx="194.96" cy="556.73" r="3.2" fill="#1d4ed8"/>
<circle cx="199.00" cy="556.73" r="3.2" fill="#1d4ed8"/>
<circle cx="203.04" cy="555.51" r="3.2" fill="#1d4ed8"/>
<circle cx="207.07" cy="551.07" r="3.2" fill="#1d4ed8"/>
<circle cx="211.11" cy="538.93" r="3.2" fill="#1d4ed8"/>
<circle cx="215.15" cy="538.93" r="3.2" fill="#1d4ed8"/>
<circle cx="219.19" cy="538.93" r="3.2" fill="#1d4ed8"/>
<circle cx="223.22" cy="538.12" r="3.2" fill="#1d4ed8"/>
<circle cx="227.26" cy="536.91" r="3.2" fill="#1d4ed8"/>
<circle cx="231.30" cy="536.91" r="3.2" fill="#1d4ed8"/>
<circle cx="235.33" cy="536.51" r="3.2" fill="#1d4ed8"/>
<circle cx="239.37" cy="536.51" r="3.2" fill="#1d4ed8"/>
<circle cx="243.41" cy="556.73" r="3.2" fill="#1d4ed8"/>
<circle cx="247.44" cy="556.73" r="3.2" fill="#1d4ed8"/>
<circle cx="251.48" cy="556.73" r="3.2" fill="#1d4ed8"/>
<circle cx="255.52" cy="556.73" r="3.2" fill="#1d4ed8"/>
<circle cx="259.56" cy="535.29" r="3.2" fill="#1d4ed8"/>
<circle cx="263.59" cy="535.29" r="3.2" fill="#1d4ed8"/>
<circle cx="267.63" cy="535.29" r="3.2" fill="#1d4ed8"/>
<circle cx="271.67" cy="535.29" r="3.2" fill="#1d4ed8"/>
<circle cx="275.70" cy="534.49" r="3.2" fill="#1d4ed8"/>
<circle cx="279.74" cy="534.08" r="3.2" fill="#1d4ed8"/>
<circle cx="283.78" cy="533.68" r="3.2" fill="#1d4ed8"/>
<circle cx="287.81" cy="532.87" r="3.2" fill="#1d4ed8"/>
<circle cx="291.85" cy="532.06" r="3.2" fill="#1d4ed8"/>
<circle cx="295.89" cy="532.06" r="3.2" fill="#1d4ed8"/>
<circle cx="299.93" cy="531.25" r="3.2" fill="#1d4ed8"/>
<circle cx="303.96" cy="530.85" r="3.2" fill="#1d4ed8"/>
<circle cx="308.00" cy="530.44" r="3.2" fill="#1d4ed8"/>
<circle cx="312.04" cy="530.04" r="3.2" fill="#1d4ed8"/>
<circle cx="316.07" cy="530.04" r="3.2" fill="#1d4ed8"/>
<circle cx="320.11" cy="529.23" r="3.2" fill="#1d4ed8"/>
<circle cx="324.15" cy="529.23" r="3.2" fill="#1d4ed8"/>
<circle cx="328.19" cy="529.23" r="3.2" fill="#1d4ed8"/>
<circle cx="332.22" cy="528.42" r="3.2" fill="#1d4ed8"/>
<circle cx="336.26" cy="528.42" r="3.2" fill="#1d4ed8"/>
<circle cx="340.30" cy="527.61" r="3.2" fill="#1d4ed8"/>
<circle cx="344.33" cy="527.21" r="3.2" fill="#1d4ed8"/>
<circle cx="348.37" cy="526.80" r="3.2" fill="#1d4ed8"/>
<circle cx="352.41" cy="526.40" r="3.2" fill="#1d4ed8"/>
<circle cx="356.44" cy="525.18" r="3.2" fill="#1d4ed8"/>
<circle cx="360.48" cy="523.57" r="3.2" fill="#1d4ed8"/>
<circle cx="364.52" cy="523.57" r="3.2" fill="#1d4ed8"/>
<circle cx="368.56" cy="523.16" r="3.2" fill="#1d4ed8"/>
<circle cx="372.59" cy="522.76" r="3.2" fill="#1d4ed8"/>
<circle cx="376.63" cy="522.35" r="3.2" fill="#1d4ed8"/>
<circle cx="380.67" cy="521.54" r="3.2" fill="#1d4ed8"/>
<circle cx="384.70" cy="519.52" r="3.2" fill="#1d4ed8"/>
<circle cx="388.74" cy="517.50" r="3.2" fill="#1d4ed8"/>
<circle cx="392.78" cy="517.50" r="3.2" fill="#1d4ed8"/>
<circle cx="396.81" cy="517.50" r="3.2" fill="#1d4ed8"/>
<circle cx="400.85" cy="517.50" r="3.2" fill="#1d4ed8"/>
<circle cx="404.89" cy="517.50" r="3.2" fill="#1d4ed8"/>
<circle cx="408.93" cy="517.50" r="3.2" fill="#1d4ed8"/>
<circle cx="412.96" cy="517.10" r="3.2" fill="#1d4ed8"/>
<circle cx="417.00" cy="516.69" r="3.2" fill="#1d4ed8"/>
<circle cx="421.04" cy="515.48" r="3.2" fill="#1d4ed8"/>
<circle cx="425.07" cy="515.07" r="3.2" fill="#1d4ed8"/>
<circle cx="429.11" cy="514.67" r="3.2" fill="#1d4ed8"/>
<circle cx="433.15" cy="513.86" r="3.2" fill="#1d4ed8"/>
<circle cx="437.19" cy="514.26" r="3.2" fill="#1d4ed8"/>
<circle cx="441.22" cy="512.24" r="3.2" fill="#1d4ed8"/>
<circle cx="445.26" cy="511.84" r="3.2" fill="#1d4ed8"/>
<circle cx="449.30" cy="511.84" r="3.2" fill="#1d4ed8"/>
<circle cx="453.33" cy="511.03" r="3.2" fill="#1d4ed8"/>
<circle cx="457.37" cy="509.82" r="3.2" fill="#1d4ed8"/>
<circle cx="461.41" cy="507.79" r="3.2" fill="#1d4ed8"/>
<circle cx="465.44" cy="506.99" r="3.2" fill="#1d4ed8"/>
<circle cx="469.48" cy="506.58" r="3.2" fill="#1d4ed8"/>
<circle cx="473.52" cy="509.41" r="3.2" fill="#1d4ed8"/>
<circle cx="477.56" cy="509.01" r="3.2" fill="#1d4ed8"/>
<circle cx="481.59" cy="504.96" r="3.2" fill="#1d4ed8"/>
<circle cx="485.63" cy="504.56" r="3.2" fill="#1d4ed8"/>
<circle cx="489.67" cy="504.15" r="3.2" fill="#1d4ed8"/>
<circle cx="493.70" cy="504.56" r="3.2" fill="#1d4ed8"/>
<circle cx="497.74" cy="503.75" r="3.2" fill="#1d4ed8"/>
<circle cx="501.78" cy="503.75" r="3.2" fill="#1d4ed8"/>
<circle cx="505.81" cy="503.35" r="3.2" fill="#1d4ed8"/>
<circle cx="509.85" cy="499.30" r="3.2" fill="#1d4ed8"/>
<circle cx="513.89" cy="496.47" r="3.2" fill="#1d4ed8"/>
<circle cx="517.93" cy="490.00" r="3.2" fill="#1d4ed8"/>
<circle cx="521.96" cy="484.34" r="3.2" fill="#1d4ed8"/>
<circle cx="526.00" cy="481.10" r="3.2" fill="#1d4ed8"/>
<circle cx="530.04" cy="480.29" r="3.2" fill="#1d4ed8"/>
<circle cx="534.07" cy="480.70" r="3.2" fill="#1d4ed8"/>
<circle cx="538.11" cy="460.88" r="3.2" fill="#1d4ed8"/>
<circle cx="542.15" cy="459.26" r="3.2" fill="#1d4ed8"/>
<circle cx="546.19" cy="458.05" r="3.2" fill="#1d4ed8"/>
<circle cx="550.22" cy="456.03" r="3.2" fill="#1d4ed8"/>
<circle cx="554.26" cy="456.03" r="3.2" fill="#1d4ed8"/>
<circle cx="558.30" cy="454.41" r="3.2" fill="#1d4ed8"/>
<circle cx="562.33" cy="450.77" r="3.2" fill="#1d4ed8"/>
<circle cx="566.37" cy="444.30" r="3.2" fill="#1d4ed8"/>
<circle cx="570.41" cy="443.90" r="3.2" fill="#1d4ed8"/>
<circle cx="574.44" cy="600.00" r="3.2" fill="#1d4ed8"/>
<circle cx="578.48" cy="441.88" r="3.2" fill="#1d4ed8"/>
<circle cx="582.52" cy="440.66" r="3.2" fill="#1d4ed8"/>
<circle cx="586.56" cy="439.45" r="3.2" fill="#1d4ed8"/>
<circle cx="590.59" cy="439.04" r="3.2" fill="#1d4ed8"/>
<circle cx="594.63" cy="438.64" r="3.2" fill="#1d4ed8"/>
<circle cx="598.67" cy="437.83" r="3.2" fill="#1d4ed8"/>
<circle cx="602.70" cy="436.62" r="3.2" fill="#1d4ed8"/>
<circle cx="606.74" cy="436.62" r="3.2" fill="#1d4ed8"/>
<circle cx="610.78" cy="434.60" r="3.2" fill="#1d4ed8"/>
<circle cx="614.81" cy="432.17" r="3.2" fill="#1d4ed8"/>
<circle cx="618.85" cy="429.34" r="3.2" fill="#1d4ed8"/>
<circle cx="622.89" cy="428.93" r="3.2" fill="#1d4ed8"/>
<circle cx="626.93" cy="428.53" r="3.2" fill="#1d4ed8"/>
<circle cx="630.96" cy="427.72" r="3.2" fill="#1d4ed8"/>
<circle cx="635.00" cy="426.91" r="3.2" fill="#1d4ed8"/>
<circle cx="639.04" cy="426.10" r="3.2" fill="#1d4ed8"/>
<circle cx="643.07" cy="426.10" r="3.2" fill="#1d4ed8"/>
<circle cx="647.11" cy="426.10" r="3.2" fill="#1d4ed8"/>
<circle cx="651.15" cy="419.63" r="3.2" fill="#1d4ed8"/>
<circle cx="655.19" cy="419.23" r="3.2" fill="#1d4ed8"/>
<circle cx="659.22" cy="418.42" r="3.2" fill="#1d4ed8"/>
<circle cx="663.26" cy="418.01" r="3.2" fill="#1d4ed8"/>
<circle cx="667.30" cy="417.61" r="3.2" fill="#1d4ed8"/>
<circle cx="671.33" cy="417.61" r="3.2" fill="#1d4ed8"/>
<circle cx="675.37" cy="417.61" r="3.2" fill="#1d4ed8"/>
<circle cx="679.41" cy="417.21" r="3.2" fill="#1d4ed8"/>
<circle cx="683.44" cy="417.21" r="3.2" fill="#1d4ed8"/>
<circle cx="687.48" cy="413.57" r="3.2" fill="#1d4ed8"/>
<circle cx="691.52" cy="411.95" r="3.2" fill="#1d4ed8"/>
<circle cx="695.56" cy="412.76" r="3.2" fill="#1d4ed8"/>
<circle cx="699.59" cy="410.74" r="3.2" fill="#1d4ed8"/>
<circle cx="703.63" cy="410.74" r="3.2" fill="#1d4ed8"/>
<circle cx="707.67" cy="410.33" r="3.2" fill="#1d4ed8"/>
<circle cx="711.70" cy="410.33" r="3.2" fill="#1d4ed8"/>
<circle cx="715.74" cy="410.33" r="3.2" fill="#1d4ed8"/>
<circle cx="719.78" cy="409.93" r="3.2" fill="#1d4ed8"/>
<circle cx="723.81" cy="409.93" r="3.2" fill="#1d4ed8"/>
<circle cx="727.85" cy="409.93" r="3.2" fill="#1d4ed8"/>
<circle cx="731.89" cy="409.52" r="3.2" fill="#1d4ed8"/>
<circle cx="735.93" cy="409.52" r="3.2" fill="#1d4ed8"/>
<circle cx="739.96" cy="409.12" r="3.2" fill="#1d4ed8"/>
<circle cx="744.00" cy="409.52" r="3.2" fill="#1d4ed8"/>
<circle cx="748.04" cy="409.12" r="3.2" fill="#1d4ed8"/>
<circle cx="752.07" cy="407.50" r="3.2" fill="#1d4ed8"/>
<circle cx="756.11" cy="407.10" r="3.2" fill="#1d4ed8"/>
<circle cx="760.15" cy="403.05" r="3.2" fill="#1d4ed8"/>
<circle cx="764.19" cy="399.82" r="3.2" fill="#1d4ed8"/>
<circle cx="768.22" cy="400.22" r="3.2" fill="#1d4ed8"/>
<circle cx="772.26" cy="400.62" r="3.2" fill="#1d4ed8"/>
<circle cx="776.30" cy="400.62" r="3.2" fill="#1d4ed8"/>
<circle cx="780.33" cy="399.41" r="3.2" fill="#1d4ed8"/>
<circle cx="784.37" cy="392.94" r="3.2" fill="#1d4ed8"/>
<circle cx="788.41" cy="391.32" r="3.2" fill="#1d4ed8"/>
<circle cx="792.44" cy="389.30" r="3.2" fill="#1d4ed8"/>
<circle cx="796.48" cy="389.30" r="3.2" fill="#1d4ed8"/>
<circle cx="800.52" cy="388.49" r="3.2" fill="#1d4ed8"/>
<circle cx="804.56" cy="375.15" r="3.2" fill="#1d4ed8"/>
<circle cx="808.59" cy="374.74" r="3.2" fill="#1d4ed8"/>
<circle cx="812.63" cy="374.74" r="3.2" fill="#1d4ed8"/>
<circle cx="816.67" cy="374.74" r="3.2" fill="#1d4ed8"/>
<circle cx="820.70" cy="374.74" r="3.2" fill="#1d4ed8"/>
<circle cx="824.74" cy="374.34" r="3.2" fill="#1d4ed8"/>
<circle cx="828.78" cy="374.34" r="3.2" fill="#1d4ed8"/>
<circle cx="832.81" cy="374.34" r="3.2" fill="#1d4ed8"/>
<circle cx="836.85" cy="374.34" r="3.2" fill="#1d4ed8"/>
<circle cx="840.89" cy="374.34" r="3.2" fill="#1d4ed8"/>
<circle cx="844.93" cy="373.93" r="3.2" fill="#1d4ed8"/>
<circle cx="848.96" cy="373.12" r="3.2" fill="#1d4ed8"/>
<circle cx="853.00" cy="372.72" r="3.2" fill="#1d4ed8"/>
<circle cx="857.04" cy="373.53" r="3.2" fill="#1d4ed8"/>
<circle cx="861.07" cy="435.81" r="3.2" fill="#1d4ed8"/>
<circle cx="865.11" cy="372.32" r="3.2" fill="#1d4ed8"/>
<circle cx="869.15" cy="372.72" r="3.2" fill="#1d4ed8"/>
<circle cx="873.19" cy="371.91" r="3.2" fill="#1d4ed8"/>
<circle cx="877.22" cy="371.91" r="3.2" fill="#1d4ed8"/>
<circle cx="881.26" cy="372.32" r="3.2" fill="#1d4ed8"/>
<circle cx="885.30" cy="371.10" r="3.2" fill="#1d4ed8"/>
<circle cx="889.33" cy="369.89" r="3.2" fill="#1d4ed8"/>
<circle cx="893.37" cy="369.89" r="3.2" fill="#1d4ed8"/>
<circle cx="897.41" cy="369.89" r="3.2" fill="#1d4ed8"/>
<circle cx="901.44" cy="369.49" r="3.2" fill="#1d4ed8"/>
<circle cx="905.48" cy="369.89" r="3.2" fill="#1d4ed8"/>
<circle cx="909.52" cy="369.08" r="3.2" fill="#1d4ed8"/>
<circle cx="913.56" cy="368.68" r="3.2" fill="#1d4ed8"/>
<circle cx="917.59" cy="368.27" r="3.2" fill="#1d4ed8"/>
<circle cx="921.63" cy="367.87" r="3.2" fill="#1d4ed8"/>
<circle cx="925.67" cy="367.06" r="3.2" fill="#1d4ed8"/>
<circle cx="929.70" cy="367.46" r="3.2" fill="#1d4ed8"/>
<circle cx="933.74" cy="367.06" r="3.2" fill="#1d4ed8"/>
<circle cx="937.78" cy="366.25" r="3.2" fill="#1d4ed8"/>
<circle cx="941.81" cy="368.27" r="3.2" fill="#1d4ed8"/>
<circle cx="945.85" cy="368.68" r="3.2" fill="#1d4ed8"/>
<circle cx="949.89" cy="368.68" r="3.2" fill="#1d4ed8"/>
<circle cx="953.93" cy="368.27" r="3.2" fill="#1d4ed8"/>
<circle cx="957.96" cy="369.08" r="3.2" fill="#1d4ed8"/>
<circle cx="962.00" cy="367.87" r="3.2" fill="#1d4ed8"/>
<circle cx="966.04" cy="367.46" r="3.2" fill="#1d4ed8"/>
<circle cx="970.07" cy="367.06" r="3.2" fill="#1d4ed8"/>
<circle cx="974.11" cy="360.18" r="3.2" fill="#1d4ed8"/>
<circle cx="978.15" cy="359.78" r="3.2" fill="#1d4ed8"/>
<circle cx="982.19" cy="359.38" r="3.2" fill="#1d4ed8"/>
<circle cx="986.22" cy="356.95" r="3.2" fill="#1d4ed8"/>
<circle cx="990.26" cy="357.35" r="3.2" fill="#1d4ed8"/>
<circle cx="994.30" cy="357.76" r="3.2" fill="#1d4ed8"/>
<circle cx="998.33" cy="355.33" r="3.2" fill="#1d4ed8"/>
<circle cx="1002.37" cy="355.74" r="3.2" fill="#1d4ed8"/>
<circle cx="1006.41" cy="357.35" r="3.2" fill="#1d4ed8"/>
<circle cx="1010.44" cy="355.33" r="3.2" fill="#1d4ed8"/>
<circle cx="1014.48" cy="356.14" r="3.2" fill="#1d4ed8"/>
<circle cx="1018.52" cy="355.74" r="3.2" fill="#1d4ed8"/>
<circle cx="1022.56" cy="356.14" r="3.2" fill="#1d4ed8"/>
<circle cx="1026.59" cy="354.12" r="3.2" fill="#1d4ed8"/>
<circle cx="1030.63" cy="354.93" r="3.2" fill="#1d4ed8"/>
<circle cx="1034.67" cy="356.14" r="3.2" fill="#1d4ed8"/>
<circle cx="1038.70" cy="354.52" r="3.2" fill="#1d4ed8"/>
<circle cx="1042.74" cy="353.71" r="3.2" fill="#1d4ed8"/>
<circle cx="1046.78" cy="354.12" r="3.2" fill="#1d4ed8"/>
<circle cx="1050.81" cy="354.93" r="3.2" fill="#1d4ed8"/>
<circle cx="1054.85" cy="352.90" r="3.2" fill="#1d4ed8"/>
<circle cx="1058.89" cy="353.71" r="3.2" fill="#1d4ed8"/>
<circle cx="1062.93" cy="353.31" r="3.2" fill="#1d4ed8"/>
<circle cx="1066.96" cy="353.31" r="3.2" fill="#1d4ed8"/>
<circle cx="1071.00" cy="354.52" r="3.2" fill="#1d4ed8"/>
<circle cx="1075.04" cy="352.90" r="3.2" fill="#1d4ed8"/>
<circle cx="1079.07" cy="352.50" r="3.2" fill="#1d4ed8"/>
<circle cx="1083.11" cy="352.50" r="3.2" fill="#1d4ed8"/>
<circle cx="1087.15" cy="353.31" r="3.2" fill="#1d4ed8"/>
<circle cx="1091.19" cy="352.50" r="3.2" fill="#1d4ed8"/>
<circle cx="1095.22" cy="353.71" r="3.2" fill="#1d4ed8"/>
<circle cx="1099.26" cy="354.12" r="3.2" fill="#1d4ed8"/>
<circle cx="1103.30" cy="352.50" r="3.2" fill="#1d4ed8"/>
<circle cx="1107.33" cy="352.90" r="3.2" fill="#1d4ed8"/>
<circle cx="1111.37" cy="352.50" r="3.2" fill="#1d4ed8"/>
<circle cx="1115.41" cy="352.10" r="3.2" fill="#1d4ed8"/>
<circle cx="1119.44" cy="351.69" r="3.2" fill="#1d4ed8"/>
<circle cx="1123.48" cy="352.10" r="3.2" fill="#1d4ed8"/>
<circle cx="1127.52" cy="354.12" r="3.2" fill="#1d4ed8"/>
<circle cx="1131.56" cy="352.50" r="3.2" fill="#1d4ed8"/>
<circle cx="1135.59" cy="352.10" r="3.2" fill="#1d4ed8"/>
<circle cx="1139.63" cy="352.10" r="3.2" fill="#1d4ed8"/>
<circle cx="1143.67" cy="349.67" r="3.2" fill="#1d4ed8"/>
<circle cx="1147.70" cy="349.67" r="3.2" fill="#1d4ed8"/>
<circle cx="1151.74" cy="350.88" r="3.2" fill="#1d4ed8"/>
<circle cx="1155.78" cy="351.29" r="3.2" fill="#1d4ed8"/>
<circle cx="1159.81" cy="350.48" r="3.2" fill="#1d4ed8"/>
<circle cx="1163.85" cy="352.10" r="3.2" fill="#1d4ed8"/>
<circle cx="1167.89" cy="350.48" r="3.2" fill="#1d4ed8"/>
<circle cx="1171.93" cy="350.48" r="3.2" fill="#1d4ed8"/>
<circle cx="1175.96" cy="350.48" r="3.2" fill="#1d4ed8"/>
<circle cx="1180.00" cy="350.07" r="3.2" fill="#1d4ed8"/>
<text x="635" y="695" text-anchor="middle" font-size="14" fill="#111" font-family="sans-serif">Date</text>
<text x="24" y="325" text-anchor="middle" font-size="14" fill="#111" transform="rotate(-90 24,325)" font-family="sans-serif">Passed files</text>
</svg>
