<?xml version="1.0" encoding="UTF-8"?>
<svg xmlns="http://www.w3.org/2000/svg" width="1280" height="720" viewBox="0 0 1280 720">
<rect width="100%" height="100%" fill="#ffffff"/>
<text x="640" y="30" text-anchor="middle" font-size="22" font-family="sans-serif">Roast passed files history</text>
<line x1="90" y1="600" x2="1180" y2="600" stroke="#333" stroke-width="1.5"/>
<line x1="90" y1="50" x2="90" y2="600" stroke="#333" stroke-width="1.5"/>
<line x1="90" y1="600.00" x2="1180" y2="600.00" stroke="#e5e7eb" stroke-width="1"/>
<text x="78" y="605.00" text-anchor="end" font-size="12" fill="#111" font-family="sans-serif">0</text>
<line x1="90" y1="398.09" x2="1180" y2="398.09" stroke="#e5e7eb" stroke-width="1"/>
<text x="78" y="403.09" text-anchor="end" font-size="12" fill="#111" font-family="sans-serif">500</text>
<line x1="90" y1="196.18" x2="1180" y2="196.18" stroke="#e5e7eb" stroke-width="1"/>
<text x="78" y="201.18" text-anchor="end" font-size="12" fill="#111" font-family="sans-serif">1000</text>
<line x1="90.00" y1="600" x2="90.00" y2="606" stroke="#333" stroke-width="1"/>
<text x="90.00" y="624" text-anchor="end" font-size="11" fill="#111" transform="rotate(-40 90.00,624)" font-family="sans-serif">2026-02-12</text>
<line x1="226.25" y1="600" x2="226.25" y2="606" stroke="#333" stroke-width="1"/>
<text x="226.25" y="624" text-anchor="end" font-size="11" fill="#111" transform="rotate(-40 226.25,624)" font-family="sans-serif">2026-02-13</text>
<line x1="362.50" y1="600" x2="362.50" y2="606" stroke="#333" stroke-width="1"/>
<text x="362.50" y="624" text-anchor="end" font-size="11" fill="#111" transform="rotate(-40 362.50,624)" font-family="sans-serif">2026-02-13</text>
<line x1="498.75" y1="600" x2="498.75" y2="606" stroke="#333" stroke-width="1"/>
<text x="498.75" y="624" text-anchor="end" font-size="11" fill="#111" transform="rotate(-40 498.75,624)" font-family="sans-serif">2026-02-14</text>
<line x1="635.00" y1="600" x2="635.00" y2="606" stroke="#333" stroke-width="1"/>
<text x="635.00" y="624" text-anchor="end" font-size="11" fill="#111" transform="rotate(-40 635.00,624)" font-family="sans-serif">2026-02-15</text>
<line x1="771.25" y1="600" x2="771.25" y2="606" stroke="#333" stroke-width="1"/>
<text x="771.25" y="624" text-anchor="end" font-size="11" fill="#111" transform="rotate(-40 771.25,624)" font-family="sans-serif">2026-02-15</text>
<line x1="907.50" y1="600" x2="907.50" y2="606" stroke="#333" stroke-width="1"/>
<text x="907.50" y="624" text-anchor="end" font-size="11" fill="#111" transform="rotate(-40 907.50,624)" font-family="sans-serif">2026-02-15</text>
<line x1="1043.75" y1="600" x2="1043.75" y2="606" stroke="#333" stroke-width="1"/>
<text x="1043.75" y="624" text-anchor="end" font-size="11" fill="#111" transform="rotate(-40 1043.75,624)" font-family="sans-serif">2026-02-15</text>
<line x1="1180.00" y1="600" x2="1180.00" y2="606" stroke="#333" stroke-width="1"/>
<text x="1180.00" y="624" text-anchor="end" font-size="11" fill="#111" transform="rotate(-40 1180.00,624)" font-family="sans-serif">2026-02-16</text>
<line x1="90" y1="75.84" x2="1180" y2="75.84" stroke="#dc2626" stroke-width="1.5" stroke-dasharray="8,4"/>
<text x="1184" y="79.84" font-size="12" fill="#dc2626" font-family="sans-serif">Goal: 1298</text>
<polyline fill="none" stroke="#2563eb" stroke-width="3" points="90.00,540.64 135.42,538.62 180.83,537.00 226.25,534.58 271.67,534.58 317.08,533.37 362.50,532.56 407.92,532.97 453.33,532.16 498.75,532.56 544.17,532.16 589.58,568.50 635.00,568.50 680.42,566.48 725.83,545.08 771.25,545.08 816.67,544.27 862.08,543.87 907.50,543.87 952.92,543.47 998.33,541.85 1043.75,541.45 1089.17,541.04 1134.58,541.04 1180.00,539.43"/>
<circle cx="90.00" cy="540.64" r="3.2" fill="#1d4ed8"/>
<circle cx="135.42" cy="538.62" r="3.2" fill="#1d4ed8"/>
<circle cx="180.83" cy="537.00" r="3.2" fill="#1d4ed8"/>
<circle cx="226.25" cy="534.58" r="3.2" fill="#1d4ed8"/>
<circle cx="271.67" cy="534.58" r="3.2" fill="#1d4ed8"/>
<circle cx="317.08" cy="533.37" r="3.2" fill="#1d4ed8"/>
<circle cx="362.50" cy="532.56" r="3.2" fill="#1d4ed8"/>
<circle cx="407.92" cy="532.97" r="3.2" fill="#1d4ed8"/>
<circle cx="453.33" cy="532.16" r="3.2" fill="#1d4ed8"/>
<circle cx="498.75" cy="532.56" r="3.2" fill="#1d4ed8"/>
<circle cx="544.17" cy="532.16" r="3.2" fill="#1d4ed8"/>
<circle cx="589.58" cy="568.50" r="3.2" fill="#1d4ed8"/>
<circle cx="635.00" cy="568.50" r="3.2" fill="#1d4ed8"/>
<circle cx="680.42" cy="566.48" r="3.2" fill="#1d4ed8"/>
<circle cx="725.83" cy="545.08" r="3.2" fill="#1d4ed8"/>
<circle cx="771.25" cy="545.08" r="3.2" fill="#1d4ed8"/>
<circle cx="816.67" cy="544.27" r="3.2" fill="#1d4ed8"/>
<circle cx="862.08" cy="543.87" r="3.2" fill="#1d4ed8"/>
<circle cx="907.50" cy="543.87" r="3.2" fill="#1d4ed8"/>
<circle cx="952.92" cy="543.47" r="3.2" fill="#1d4ed8"/>
<circle cx="998.33" cy="541.85" r="3.2" fill="#1d4ed8"/>
<circle cx="1043.75" cy="541.45" r="3.2" fill="#1d4ed8"/>
<circle cx="1089.17" cy="541.04" r="3.2" fill="#1d4ed8"/>
<circle cx="1134.58" cy="541.04" r="3.2" fill="#1d4ed8"/>
<circle cx="1180.00" cy="539.43" r="3.2" fill="#1d4ed8"/>
<text x="635" y="695" text-anchor="middle" font-size="14" fill="#111" font-family="sans-serif">Date</text>
<text x="24" y="325" text-anchor="middle" font-size="14" fill="#111" transform="rotate(-90 24,325)" font-family="sans-serif">Passed files</text>
</svg>
