<?xml version="1.0" encoding="UTF-8"?>
<svg xmlns="http://www.w3.org/2000/svg" width="1280" height="720" viewBox="0 0 1280 720">
<rect width="100%" height="100%" fill="#ffffff"/>
<text x="640" y="30" text-anchor="middle" font-size="22" font-family="sans-serif">Roast passed files history</text>
<line x1="90" y1="600" x2="1180" y2="600" stroke="#333" stroke-width="1.5"/>
<line x1="90" y1="50" x2="90" y2="600" stroke="#333" stroke-width="1.5"/>
<line x1="90" y1="600.00" x2="1180" y2="600.00" stroke="#e5e7eb" stroke-width="1"/>
<text x="78" y="605.00" text-anchor="end" font-size="12" fill="#111" font-family="sans-serif">0</text>
<line x1="90" y1="397.79" x2="1180" y2="397.79" stroke="#e5e7eb" stroke-width="1"/>
<text x="78" y="402.79" text-anchor="end" font-size="12" fill="#111" font-family="sans-serif">500</text>
<line x1="90" y1="195.59" x2="1180" y2="195.59" stroke="#e5e7eb" stroke-width="1"/>
<text x="78" y="200.59" text-anchor="end" font-size="12" fill="#111" font-family="sans-serif">1000</text>
<line x1="90.00" y1="600" x2="90.00" y2="606" stroke="#333" stroke-width="1"/>
<text x="90.00" y="624" text-anchor="end" font-size="11" fill="#111" transform="rotate(-40 90.00,624)" font-family="sans-serif">2026-02-12</text>
<line x1="224.25" y1="600" x2="224.25" y2="606" stroke="#333" stroke-width="1"/>
<text x="224.25" y="624" text-anchor="end" font-size="11" fill="#111" transform="rotate(-40 224.25,624)" font-family="sans-serif">2026-02-17</text>
<line x1="358.50" y1="600" x2="358.50" y2="606" stroke="#333" stroke-width="1"/>
<text x="358.50" y="624" text-anchor="end" font-size="11" fill="#111" transform="rotate(-40 358.50,624)" font-family="sans-serif">2026-02-21</text>
<line x1="492.76" y1="600" x2="492.76" y2="606" stroke="#333" stroke-width="1"/>
<text x="492.76" y="624" text-anchor="end" font-size="11" fill="#111" transform="rotate(-40 492.76,624)" font-family="sans-serif">2026-02-25</text>
<line x1="627.01" y1="600" x2="627.01" y2="606" stroke="#333" stroke-width="1"/>
<text x="627.01" y="624" text-anchor="end" font-size="11" fill="#111" transform="rotate(-40 627.01,624)" font-family="sans-serif">2026-02-27</text>
<line x1="761.26" y1="600" x2="761.26" y2="606" stroke="#333" stroke-width="1"/>
<text x="761.26" y="624" text-anchor="end" font-size="11" fill="#111" transform="rotate(-40 761.26,624)" font-family="sans-serif">2026-03-01</text>
<line x1="895.51" y1="600" x2="895.51" y2="606" stroke="#333" stroke-width="1"/>
<text x="895.51" y="624" text-anchor="end" font-size="11" fill="#111" transform="rotate(-40 895.51,624)" font-family="sans-serif">2026-03-06</text>
<line x1="1029.77" y1="600" x2="1029.77" y2="606" stroke="#333" stroke-width="1"/>
<text x="1029.77" y="624" text-anchor="end" font-size="11" fill="#111" transform="rotate(-40 1029.77,624)" font-family="sans-serif">2026-03-08</text>
<line x1="1164.02" y1="600" x2="1164.02" y2="606" stroke="#333" stroke-width="1"/>
<text x="1164.02" y="624" text-anchor="end" font-size="11" fill="#111" transform="rotate(-40 1164.02,624)" font-family="sans-serif">2026-03-11</text>
<line x1="1180.00" y1="600" x2="1180.00" y2="606" stroke="#333" stroke-width="1"/>
<text x="1180.00" y="624" text-anchor="end" font-size="11" fill="#111" transform="rotate(-40 1180.00,624)" font-family="sans-serif">2026-03-11</text>
<line x1="90" y1="75.88" x2="1180" y2="75.88" stroke="#dc2626" stroke-width="1.5" stroke-dasharray="8,4"/>
<text x="1184" y="79.88" font-size="12" fill="#dc2626" font-family="sans-serif">Goal: 1296</text>
<polyline fill="none" stroke="#2563eb" stroke-width="3" points="90.00,540.55 93.20,538.53 96.39,536.91 99.59,534.49 102.79,534.49 105.98,533.27 109.18,532.46 112.38,532.87 115.57,532.06 118.77,532.46 121.96,532.06 125.16,568.46 128.36,568.46 131.55,566.43 134.75,545.00 137.95,545.00 141.14,544.19 144.34,543.79 147.54,543.79 150.73,543.38 153.93,541.76 157.13,541.36 160.32,540.96 163.52,540.96 166.72,539.34 169.91,539.34 173.11,556.73 176.30,556.73 179.50,555.51 182.70,551.07 185.89,538.93 189.09,538.93 192.29,538.93 195.48,538.12 198.68,536.91 201.88,536.91 205.07,536.51 208.27,536.51 211.47,556.73 214.66,556.73 217.86,556.73 221.06,556.73 224.25,535.29 227.45,535.29 230.65,535.29 233.84,535.29 237.04,534.49 240.23,534.08 243.43,533.68 246.63,532.87 249.82,532.06 253.02,532.06 256.22,531.25 259.41,530.85 262.61,530.44 265.81,530.04 269.00,530.04 272.20,529.23 275.40,529.23 278.59,529.23 281.79,528.42 284.99,528.42 288.18,527.61 291.38,527.21 294.57,526.80 297.77,526.40 300.97,525.18 304.16,523.57 307.36,523.57 310.56,523.16 313.75,522.76 316.95,522.35 320.15,521.54 323.34,519.52 326.54,517.50 329.74,517.50 332.93,517.50 336.13,517.50 339.33,517.50 342.52,517.50 345.72,517.10 348.91,516.69 352.11,515.48 355.31,515.07 358.50,514.67 361.70,513.86 364.90,514.26 368.09,512.24 371.29,511.84 374.49,511.84 377.68,511.03 380.88,509.82 384.08,507.79 387.27,506.99 390.47,506.58 393.67,509.41 396.86,509.01 400.06,504.96 403.26,504.56 406.45,504.15 409.65,504.56 412.84,503.75 416.04,503.75 419.24,503.35 422.43,499.30 425.63,496.47 428.83,490.00 432.02,484.34 435.22,481.10 438.42,480.29 441.61,480.70 444.81,460.88 448.01,459.26 451.20,458.05 454.40,456.03 457.60,456.03 460.79,454.41 463.99,450.77 467.18,444.30 470.38,443.90 473.58,600.00 476.77,441.88 479.97,440.66 483.17,439.45 486.36,439.04 489.56,438.64 492.76,437.83 495.95,436.62 499.15,436.62 502.35,434.60 505.54,432.17 508.74,429.34 511.94,428.93 515.13,428.53 518.33,427.72 521.52,426.91 524.72,426.10 527.92,426.10 531.11,426.10 534.31,419.63 537.51,419.23 540.70,418.42 543.90,418.01 547.10,417.61 550.29,417.61 553.49,417.61 556.69,417.21 559.88,417.21 563.08,413.57 566.28,411.95 569.47,412.76 572.67,410.74 575.87,410.74 579.06,410.33 582.26,410.33 585.45,410.33 588.65,409.93 591.85,409.93 595.04,409.93 598.24,409.52 601.44,409.52 604.63,409.12 607.83,409.52 611.03,409.12 614.22,407.50 617.42,407.10 620.62,403.05 623.81,399.82 627.01,400.22 630.21,400.62 633.40,400.62 636.60,399.41 639.79,392.94 642.99,391.32 646.19,389.30 649.38,389.30 652.58,388.49 655.78,375.15 658.97,374.74 662.17,374.74 665.37,374.74 668.56,374.74 671.76,374.34 674.96,374.34 678.15,374.34 681.35,374.34 684.55,374.34 687.74,373.93 690.94,373.12 694.13,372.72 697.33,373.53 700.53,435.81 703.72,372.32 706.92,372.72 710.12,371.91 713.31,371.91 716.51,372.32 719.71,371.10 722.90,369.89 726.10,369.89 729.30,369.89 732.49,369.49 735.69,369.89 738.89,369.08 742.08,368.68 745.28,368.27 748.48,367.87 751.67,367.06 754.87,367.46 758.06,367.06 761.26,366.25 764.46,368.27 767.65,368.68 770.85,368.68 774.05,368.27 777.24,369.08 780.44,367.87 783.64,367.46 786.83,367.06 790.03,360.18 793.23,359.78 796.42,359.38 799.62,356.95 802.82,357.35 806.01,357.76 809.21,355.33 812.40,355.74 815.60,357.35 818.80,355.33 821.99,356.14 825.19,355.74 828.39,356.14 831.58,354.12 834.78,354.93 837.98,356.14 841.17,354.52 844.37,353.71 847.57,354.12 850.76,354.93 853.96,352.90 857.16,353.71 860.35,353.31 863.55,353.31 866.74,354.52 869.94,352.90 873.14,352.50 876.33,352.50 879.53,353.31 882.73,352.50 885.92,353.71 889.12,354.12 892.32,352.50 895.51,352.90 898.71,352.50 901.91,352.10 905.10,351.69 908.30,352.10 911.50,354.12 914.69,352.50 917.89,352.10 921.09,352.10 924.28,349.67 927.48,349.67 930.67,350.88 933.87,351.29 937.07,350.48 940.26,352.10 943.46,350.48 946.66,350.48 949.85,350.48 953.05,350.07 956.25,348.46 959.44,351.29 962.64,349.67 965.84,351.29 969.03,349.67 972.23,348.86 975.43,348.46 978.62,348.46 981.82,347.24 985.01,348.86 988.21,346.84 991.41,348.46 994.60,348.86 997.80,346.84 1001.00,349.26 1004.19,348.05 1007.39,349.26 1010.59,349.26 1013.78,350.48 1016.98,352.90 1020.18,349.67 1023.37,348.46 1026.57,345.62 1029.77,344.82 1032.96,344.41 1036.16,342.39 1039.35,341.18 1042.55,341.58 1045.75,339.15 1048.94,338.35 1052.14,337.54 1055.34,336.73 1058.53,335.92 1061.73,337.54 1064.93,338.35 1068.12,337.54 1071.32,337.54 1074.52,337.54 1077.71,333.09 1080.91,333.90 1084.11,335.92 1087.30,336.73 1090.50,335.51 1093.70,332.28 1096.89,331.47 1100.09,331.07 1103.28,331.47 1106.48,331.07 1109.68,331.07 1112.87,331.07 1116.07,331.07 1119.27,331.07 1122.46,331.07 1125.66,331.07 1128.86,331.07 1132.05,331.07 1135.25,331.07 1138.45,331.47 1141.64,331.88 1144.84,331.07 1148.04,331.47 1151.23,331.07 1154.43,331.47 1157.62,331.07 1160.82,331.88 1164.02,331.07 1167.21,331.47 1170.41,331.47 1173.61,331.07 1176.80,331.47 1180.00,331.47"/>
<circle cx="90.00" cy="540.55" r="3.2" fill="#1d4ed8"/>
<circle cx="93.20" cy="538.53" r="3.2" fill="#1d4ed8"/>
<circle cx="96.39" cy="536.91" r="3.2" fill="#1d4ed8"/>
<circle cx="99.59" cy="534.49" r="3.2" fill="#1d4ed8"/>
<circle cx="102.79" cy="534.49" r="3.2" fill="#1d4ed8"/>
<circle cx="105.98" cy="533.27" r="3.2" fill="#1d4ed8"/>
<circle cx="109.18" cy="532.46" r="3.2" fill="#1d4ed8"/>
<circle cx="112.38" cy="532.87" r="3.2" fill="#1d4ed8"/>
<circle cx="115.57" cy="532.06" r="3.2" fill="#1d4ed8"/>
<circle cx="118.77" cy="532.46" r="3.2" fill="#1d4ed8"/>
<circle cx="121.96" cy="532.06" r="3.2" fill="#1d4ed8"/>
<circle cx="125.16" cy="568.46" r="3.2" fill="#1d4ed8"/>
<circle cx="128.36" cy="568.46" r="3.2" fill="#1d4ed8"/>
<circle cx="131.55" cy="566.43" r="3.2" fill="#1d4ed8"/>
<circle cx="134.75" cy="545.00" r="3.2" fill="#1d4ed8"/>
<circle cx="137.95" cy="545.00" r="3.2" fill="#1d4ed8"/>
<circle cx="141.14" cy="544.19" r="3.2" fill="#1d4ed8"/>
<circle cx="144.34" cy="543.79" r="3.2" fill="#1d4ed8"/>
<circle cx="147.54" cy="543.79" r="3.2" fill="#1d4ed8"/>
<circle cx="150.73" cy="543.38" r="3.2" fill="#1d4ed8"/>
<circle cx="153.93" cy="541.76" r="3.2" fill="#1d4ed8"/>
<circle cx="157.13" cy="541.36" r="3.2" fill="#1d4ed8"/>
<circle cx="160.32" cy="540.96" r="3.2" fill="#1d4ed8"/>
<circle cx="163.52" cy="540.96" r="3.2" fill="#1d4ed8"/>
<circle cx="166.72" cy="539.34" r="3.2" fill="#1d4ed8"/>
<circle cx="169.91" cy="539.34" r="3.2" fill="#1d4ed8"/>
<circle cx="173.11" cy="556.73" r="3.2" fill="#1d4ed8"/>
<circle cx="176.30" cy="556.73" r="3.2" fill="#1d4ed8"/>
<circle cx="179.50" cy="555.51" r="3.2" fill="#1d4ed8"/>
<circle cx="182.70" cy="551.07" r="3.2" fill="#1d4ed8"/>
<circle cx="185.89" cy="538.93" r="3.2" fill="#1d4ed8"/>
<circle cx="189.09" cy="538.93" r="3.2" fill="#1d4ed8"/>
<circle cx="192.29" cy="538.93" r="3.2" fill="#1d4ed8"/>
<circle cx="195.48" cy="538.12" r="3.2" fill="#1d4ed8"/>
<circle cx="198.68" cy="536.91" r="3.2" fill="#1d4ed8"/>
<circle cx="201.88" cy="536.91" r="3.2" fill="#1d4ed8"/>
<circle cx="205.07" cy="536.51" r="3.2" fill="#1d4ed8"/>
<circle cx="208.27" cy="536.51" r="3.2" fill="#1d4ed8"/>
<circle cx="211.47" cy="556.73" r="3.2" fill="#1d4ed8"/>
<circle cx="214.66" cy="556.73" r="3.2" fill="#1d4ed8"/>
<circle cx="217.86" cy="556.73" r="3.2" fill="#1d4ed8"/>
<circle cx="221.06" cy="556.73" r="3.2" fill="#1d4ed8"/>
<circle cx="224.25" cy="535.29" r="3.2" fill="#1d4ed8"/>
<circle cx="227.45" cy="535.29" r="3.2" fill="#1d4ed8"/>
<circle cx="230.65" cy="535.29" r="3.2" fill="#1d4ed8"/>
<circle cx="233.84" cy="535.29" r="3.2" fill="#1d4ed8"/>
<circle cx="237.04" cy="534.49" r="3.2" fill="#1d4ed8"/>
<circle cx="240.23" cy="534.08" r="3.2" fill="#1d4ed8"/>
<circle cx="243.43" cy="533.68" r="3.2" fill="#1d4ed8"/>
<circle cx="246.63" cy="532.87" r="3.2" fill="#1d4ed8"/>
<circle cx="249.82" cy="532.06" r="3.2" fill="#1d4ed8"/>
<circle cx="253.02" cy="532.06" r="3.2" fill="#1d4ed8"/>
<circle cx="256.22" cy="531.25" r="3.2" fill="#1d4ed8"/>
<circle cx="259.41" cy="530.85" r="3.2" fill="#1d4ed8"/>
<circle cx="262.61" cy="530.44" r="3.2" fill="#1d4ed8"/>
<circle cx="265.81" cy="530.04" r="3.2" fill="#1d4ed8"/>
<circle cx="269.00" cy="530.04" r="3.2" fill="#1d4ed8"/>
<circle cx="272.20" cy="529.23" r="3.2" fill="#1d4ed8"/>
<circle cx="275.40" cy="529.23" r="3.2" fill="#1d4ed8"/>
<circle cx="278.59" cy="529.23" r="3.2" fill="#1d4ed8"/>
<circle cx="281.79" cy="528.42" r="3.2" fill="#1d4ed8"/>
<circle cx="284.99" cy="528.42" r="3.2" fill="#1d4ed8"/>
<circle cx="288.18" cy="527.61" r="3.2" fill="#1d4ed8"/>
<circle cx="291.38" cy="527.21" r="3.2" fill="#1d4ed8"/>
<circle cx="294.57" cy="526.80" r="3.2" fill="#1d4ed8"/>
<circle cx="297.77" cy="526.40" r="3.2" fill="#1d4ed8"/>
<circle cx="300.97" cy="525.18" r="3.2" fill="#1d4ed8"/>
<circle cx="304.16" cy="523.57" r="3.2" fill="#1d4ed8"/>
<circle cx="307.36" cy="523.57" r="3.2" fill="#1d4ed8"/>
<circle cx="310.56" cy="523.16" r="3.2" fill="#1d4ed8"/>
<circle cx="313.75" cy="522.76" r="3.2" fill="#1d4ed8"/>
<circle cx="316.95" cy="522.35" r="3.2" fill="#1d4ed8"/>
<circle cx="320.15" cy="521.54" r="3.2" fill="#1d4ed8"/>
<circle cx="323.34" cy="519.52" r="3.2" fill="#1d4ed8"/>
<circle cx="326.54" cy="517.50" r="3.2" fill="#1d4ed8"/>
<circle cx="329.74" cy="517.50" r="3.2" fill="#1d4ed8"/>
<circle cx="332.93" cy="517.50" r="3.2" fill="#1d4ed8"/>
<circle cx="336.13" cy="517.50" r="3.2" fill="#1d4ed8"/>
<circle cx="339.33" cy="517.50" r="3.2" fill="#1d4ed8"/>
<circle cx="342.52" cy="517.50" r="3.2" fill="#1d4ed8"/>
<circle cx="345.72" cy="517.10" r="3.2" fill="#1d4ed8"/>
<circle cx="348.91" cy="516.69" r="3.2" fill="#1d4ed8"/>
<circle cx="352.11" cy="515.48" r="3.2" fill="#1d4ed8"/>
<circle cx="355.31" cy="515.07" r="3.2" fill="#1d4ed8"/>
<circle cx="358.50" cy="514.67" r="3.2" fill="#1d4ed8"/>
<circle cx="361.70" cy="513.86" r="3.2" fill="#1d4ed8"/>
<circle cx="364.90" cy="514.26" r="3.2" fill="#1d4ed8"/>
<circle cx="368.09" cy="512.24" r="3.2" fill="#1d4ed8"/>
<circle cx="371.29" cy="511.84" r="3.2" fill="#1d4ed8"/>
<circle cx="374.49" cy="511.84" r="3.2" fill="#1d4ed8"/>
<circle cx="377.68" cy="511.03" r="3.2" fill="#1d4ed8"/>
<circle cx="380.88" cy="509.82" r="3.2" fill="#1d4ed8"/>
<circle cx="384.08" cy="507.79" r="3.2" fill="#1d4ed8"/>
<circle cx="387.27" cy="506.99" r="3.2" fill="#1d4ed8"/>
<circle cx="390.47" cy="506.58" r="3.2" fill="#1d4ed8"/>
<circle cx="393.67" cy="509.41" r="3.2" fill="#1d4ed8"/>
<circle cx="396.86" cy="509.01" r="3.2" fill="#1d4ed8"/>
<circle cx="400.06" cy="504.96" r="3.2" fill="#1d4ed8"/>
<circle cx="403.26" cy="504.56" r="3.2" fill="#1d4ed8"/>
<circle cx="406.45" cy="504.15" r="3.2" fill="#1d4ed8"/>
<circle cx="409.65" cy="504.56" r="3.2" fill="#1d4ed8"/>
<circle cx="412.84" cy="503.75" r="3.2" fill="#1d4ed8"/>
<circle cx="416.04" cy="503.75" r="3.2" fill="#1d4ed8"/>
<circle cx="419.24" cy="503.35" r="3.2" fill="#1d4ed8"/>
<circle cx="422.43" cy="499.30" r="3.2" fill="#1d4ed8"/>
<circle cx="425.63" cy="496.47" r="3.2" fill="#1d4ed8"/>
<circle cx="428.83" cy="490.00" r="3.2" fill="#1d4ed8"/>
<circle cx="432.02" cy="484.34" r="3.2" fill="#1d4ed8"/>
<circle cx="435.22" cy="481.10" r="3.2" fill="#1d4ed8"/>
<circle cx="438.42" cy="480.29" r="3.2" fill="#1d4ed8"/>
<circle cx="441.61" cy="480.70" r="3.2" fill="#1d4ed8"/>
<circle cx="444.81" cy="460.88" r="3.2" fill="#1d4ed8"/>
<circle cx="448.01" cy="459.26" r="3.2" fill="#1d4ed8"/>
<circle cx="451.20" cy="458.05" r="3.2" fill="#1d4ed8"/>
<circle cx="454.40" cy="456.03" r="3.2" fill="#1d4ed8"/>
<circle cx="457.60" cy="456.03" r="3.2" fill="#1d4ed8"/>
<circle cx="460.79" cy="454.41" r="3.2" fill="#1d4ed8"/>
<circle cx="463.99" cy="450.77" r="3.2" fill="#1d4ed8"/>
<circle cx="467.18" cy="444.30" r="3.2" fill="#1d4ed8"/>
<circle cx="470.38" cy="443.90" r="3.2" fill="#1d4ed8"/>
<circle cx="473.58" cy="600.00" r="3.2" fill="#1d4ed8"/>
<circle cx="476.77" cy="441.88" r="3.2" fill="#1d4ed8"/>
<circle cx="479.97" cy="440.66" r="3.2" fill="#1d4ed8"/>
<circle cx="483.17" cy="439.45" r="3.2" fill="#1d4ed8"/>
<circle cx="486.36" cy="439.04" r="3.2" fill="#1d4ed8"/>
<circle cx="489.56" cy="438.64" r="3.2" fill="#1d4ed8"/>
<circle cx="492.76" cy="437.83" r="3.2" fill="#1d4ed8"/>
<circle cx="495.95" cy="436.62" r="3.2" fill="#1d4ed8"/>
<circle cx="499.15" cy="436.62" r="3.2" fill="#1d4ed8"/>
<circle cx="502.35" cy="434.60" r="3.2" fill="#1d4ed8"/>
<circle cx="505.54" cy="432.17" r="3.2" fill="#1d4ed8"/>
<circle cx="508.74" cy="429.34" r="3.2" fill="#1d4ed8"/>
<circle cx="511.94" cy="428.93" r="3.2" fill="#1d4ed8"/>
<circle cx="515.13" cy="428.53" r="3.2" fill="#1d4ed8"/>
<circle cx="518.33" cy="427.72" r="3.2" fill="#1d4ed8"/>
<circle cx="521.52" cy="426.91" r="3.2" fill="#1d4ed8"/>
<circle cx="524.72" cy="426.10" r="3.2" fill="#1d4ed8"/>
<circle cx="527.92" cy="426.10" r="3.2" fill="#1d4ed8"/>
<circle cx="531.11" cy="426.10" r="3.2" fill="#1d4ed8"/>
<circle cx="534.31" cy="419.63" r="3.2" fill="#1d4ed8"/>
<circle cx="537.51" cy="419.23" r="3.2" fill="#1d4ed8"/>
<circle cx="540.70" cy="418.42" r="3.2" fill="#1d4ed8"/>
<circle cx="543.90" cy="418.01" r="3.2" fill="#1d4ed8"/>
<circle cx="547.10" cy="417.61" r="3.2" fill="#1d4ed8"/>
<circle cx="550.29" cy="417.61" r="3.2" fill="#1d4ed8"/>
<circle cx="553.49" cy="417.61" r="3.2" fill="#1d4ed8"/>
<circle cx="556.69" cy="417.21" r="3.2" fill="#1d4ed8"/>
<circle cx="559.88" cy="417.21" r="3.2" fill="#1d4ed8"/>
<circle cx="563.08" cy="413.57" r="3.2" fill="#1d4ed8"/>
<circle cx="566.28" cy="411.95" r="3.2" fill="#1d4ed8"/>
<circle cx="569.47" cy="412.76" r="3.2" fill="#1d4ed8"/>
<circle cx="572.67" cy="410.74" r="3.2" fill="#1d4ed8"/>
<circle cx="575.87" cy="410.74" r="3.2" fill="#1d4ed8"/>
<circle cx="579.06" cy="410.33" r="3.2" fill="#1d4ed8"/>
<circle cx="582.26" cy="410.33" r="3.2" fill="#1d4ed8"/>
<circle cx="585.45" cy="410.33" r="3.2" fill="#1d4ed8"/>
<circle cx="588.65" cy="409.93" r="3.2" fill="#1d4ed8"/>
<circle cx="591.85" cy="409.93" r="3.2" fill="#1d4ed8"/>
<circle cx="595.04" cy="409.93" r="3.2" fill="#1d4ed8"/>
<circle cx="598.24" cy="409.52" r="3.2" fill="#1d4ed8"/>
<circle cx="601.44" cy="409.52" r="3.2" fill="#1d4ed8"/>
<circle cx="604.63" cy="409.12" r="3.2" fill="#1d4ed8"/>
<circle cx="607.83" cy="409.52" r="3.2" fill="#1d4ed8"/>
<circle cx="611.03" cy="409.12" r="3.2" fill="#1d4ed8"/>
<circle cx="614.22" cy="407.50" r="3.2" fill="#1d4ed8"/>
<circle cx="617.42" cy="407.10" r="3.2" fill="#1d4ed8"/>
<circle cx="620.62" cy="403.05" r="3.2" fill="#1d4ed8"/>
<circle cx="623.81" cy="399.82" r="3.2" fill="#1d4ed8"/>
<circle cx="627.01" cy="400.22" r="3.2" fill="#1d4ed8"/>
<circle cx="630.21" cy="400.62" r="3.2" fill="#1d4ed8"/>
<circle cx="633.40" cy="400.62" r="3.2" fill="#1d4ed8"/>
<circle cx="636.60" cy="399.41" r="3.2" fill="#1d4ed8"/>
<circle cx="639.79" cy="392.94" r="3.2" fill="#1d4ed8"/>
<circle cx="642.99" cy="391.32" r="3.2" fill="#1d4ed8"/>
<circle cx="646.19" cy="389.30" r="3.2" fill="#1d4ed8"/>
<circle cx="649.38" cy="389.30" r="3.2" fill="#1d4ed8"/>
<circle cx="652.58" cy="388.49" r="3.2" fill="#1d4ed8"/>
<circle cx="655.78" cy="375.15" r="3.2" fill="#1d4ed8"/>
<circle cx="658.97" cy="374.74" r="3.2" fill="#1d4ed8"/>
<circle cx="662.17" cy="374.74" r="3.2" fill="#1d4ed8"/>
<circle cx="665.37" cy="374.74" r="3.2" fill="#1d4ed8"/>
<circle cx="668.56" cy="374.74" r="3.2" fill="#1d4ed8"/>
<circle cx="671.76" cy="374.34" r="3.2" fill="#1d4ed8"/>
<circle cx="674.96" cy="374.34" r="3.2" fill="#1d4ed8"/>
<circle cx="678.15" cy="374.34" r="3.2" fill="#1d4ed8"/>
<circle cx="681.35" cy="374.34" r="3.2" fill="#1d4ed8"/>
<circle cx="684.55" cy="374.34" r="3.2" fill="#1d4ed8"/>
<circle cx="687.74" cy="373.93" r="3.2" fill="#1d4ed8"/>
<circle cx="690.94" cy="373.12" r="3.2" fill="#1d4ed8"/>
<circle cx="694.13" cy="372.72" r="3.2" fill="#1d4ed8"/>
<circle cx="697.33" cy="373.53" r="3.2" fill="#1d4ed8"/>
<circle cx="700.53" cy="435.81" r="3.2" fill="#1d4ed8"/>
<circle cx="703.72" cy="372.32" r="3.2" fill="#1d4ed8"/>
<circle cx="706.92" cy="372.72" r="3.2" fill="#1d4ed8"/>
<circle cx="710.12" cy="371.91" r="3.2" fill="#1d4ed8"/>
<circle cx="713.31" cy="371.91" r="3.2" fill="#1d4ed8"/>
<circle cx="716.51" cy="372.32" r="3.2" fill="#1d4ed8"/>
<circle cx="719.71" cy="371.10" r="3.2" fill="#1d4ed8"/>
<circle cx="722.90" cy="369.89" r="3.2" fill="#1d4ed8"/>
<circle cx="726.10" cy="369.89" r="3.2" fill="#1d4ed8"/>
<circle cx="729.30" cy="369.89" r="3.2" fill="#1d4ed8"/>
<circle cx="732.49" cy="369.49" r="3.2" fill="#1d4ed8"/>
<circle cx="735.69" cy="369.89" r="3.2" fill="#1d4ed8"/>
<circle cx="738.89" cy="369.08" r="3.2" fill="#1d4ed8"/>
<circle cx="742.08" cy="368.68" r="3.2" fill="#1d4ed8"/>
<circle cx="745.28" cy="368.27" r="3.2" fill="#1d4ed8"/>
<circle cx="748.48" cy="367.87" r="3.2" fill="#1d4ed8"/>
<circle cx="751.67" cy="367.06" r="3.2" fill="#1d4ed8"/>
<circle cx="754.87" cy="367.46" r="3.2" fill="#1d4ed8"/>
<circle cx="758.06" cy="367.06" r="3.2" fill="#1d4ed8"/>
<circle cx="761.26" cy="366.25" r="3.2" fill="#1d4ed8"/>
<circle cx="764.46" cy="368.27" r="3.2" fill="#1d4ed8"/>
<circle cx="767.65" cy="368.68" r="3.2" fill="#1d4ed8"/>
<circle cx="770.85" cy="368.68" r="3.2" fill="#1d4ed8"/>
<circle cx="774.05" cy="368.27" r="3.2" fill="#1d4ed8"/>
<circle cx="777.24" cy="369.08" r="3.2" fill="#1d4ed8"/>
<circle cx="780.44" cy="367.87" r="3.2" fill="#1d4ed8"/>
<circle cx="783.64" cy="367.46" r="3.2" fill="#1d4ed8"/>
<circle cx="786.83" cy="367.06" r="3.2" fill="#1d4ed8"/>
<circle cx="790.03" cy="360.18" r="3.2" fill="#1d4ed8"/>
<circle cx="793.23" cy="359.78" r="3.2" fill="#1d4ed8"/>
<circle cx="796.42" cy="359.38" r="3.2" fill="#1d4ed8"/>
<circle cx="799.62" cy="356.95" r="3.2" fill="#1d4ed8"/>
<circle cx="802.82" cy="357.35" r="3.2" fill="#1d4ed8"/>
<circle cx="806.01" cy="357.76" r="3.2" fill="#1d4ed8"/>
<circle cx="809.21" cy="355.33" r="3.2" fill="#1d4ed8"/>
<circle cx="812.40" cy="355.74" r="3.2" fill="#1d4ed8"/>
<circle cx="815.60" cy="357.35" r="3.2" fill="#1d4ed8"/>
<circle cx="818.80" cy="355.33" r="3.2" fill="#1d4ed8"/>
<circle cx="821.99" cy="356.14" r="3.2" fill="#1d4ed8"/>
<circle cx="825.19" cy="355.74" r="3.2" fill="#1d4ed8"/>
<circle cx="828.39" cy="356.14" r="3.2" fill="#1d4ed8"/>
<circle cx="831.58" cy="354.12" r="3.2" fill="#1d4ed8"/>
<circle cx="834.78" cy="354.93" r="3.2" fill="#1d4ed8"/>
<circle cx="837.98" cy="356.14" r="3.2" fill="#1d4ed8"/>
<circle cx="841.17" cy="354.52" r="3.2" fill="#1d4ed8"/>
<circle cx="844.37" cy="353.71" r="3.2" fill="#1d4ed8"/>
<circle cx="847.57" cy="354.12" r="3.2" fill="#1d4ed8"/>
<circle cx="850.76" cy="354.93" r="3.2" fill="#1d4ed8"/>
<circle cx="853.96" cy="352.90" r="3.2" fill="#1d4ed8"/>
<circle cx="857.16" cy="353.71" r="3.2" fill="#1d4ed8"/>
<circle cx="860.35" cy="353.31" r="3.2" fill="#1d4ed8"/>
<circle cx="863.55" cy="353.31" r="3.2" fill="#1d4ed8"/>
<circle cx="866.74" cy="354.52" r="3.2" fill="#1d4ed8"/>
<circle cx="869.94" cy="352.90" r="3.2" fill="#1d4ed8"/>
<circle cx="873.14" cy="352.50" r="3.2" fill="#1d4ed8"/>
<circle cx="876.33" cy="352.50" r="3.2" fill="#1d4ed8"/>
<circle cx="879.53" cy="353.31" r="3.2" fill="#1d4ed8"/>
<circle cx="882.73" cy="352.50" r="3.2" fill="#1d4ed8"/>
<circle cx="885.92" cy="353.71" r="3.2" fill="#1d4ed8"/>
<circle cx="889.12" cy="354.12" r="3.2" fill="#1d4ed8"/>
<circle cx="892.32" cy="352.50" r="3.2" fill="#1d4ed8"/>
<circle cx="895.51" cy="352.90" r="3.2" fill="#1d4ed8"/>
<circle cx="898.71" cy="352.50" r="3.2" fill="#1d4ed8"/>
<circle cx="901.91" cy="352.10" r="3.2" fill="#1d4ed8"/>
<circle cx="905.10" cy="351.69" r="3.2" fill="#1d4ed8"/>
<circle cx="908.30" cy="352.10" r="3.2" fill="#1d4ed8"/>
<circle cx="911.50" cy="354.12" r="3.2" fill="#1d4ed8"/>
<circle cx="914.69" cy="352.50" r="3.2" fill="#1d4ed8"/>
<circle cx="917.89" cy="352.10" r="3.2" fill="#1d4ed8"/>
<circle cx="921.09" cy="352.10" r="3.2" fill="#1d4ed8"/>
<circle cx="924.28" cy="349.67" r="3.2" fill="#1d4ed8"/>
<circle cx="927.48" cy="349.67" r="3.2" fill="#1d4ed8"/>
<circle cx="930.67" cy="350.88" r="3.2" fill="#1d4ed8"/>
<circle cx="933.87" cy="351.29" r="3.2" fill="#1d4ed8"/>
<circle cx="937.07" cy="350.48" r="3.2" fill="#1d4ed8"/>
<circle cx="940.26" cy="352.10" r="3.2" fill="#1d4ed8"/>
<circle cx="943.46" cy="350.48" r="3.2" fill="#1d4ed8"/>
<circle cx="946.66" cy="350.48" r="3.2" fill="#1d4ed8"/>
<circle cx="949.85" cy="350.48" r="3.2" fill="#1d4ed8"/>
<circle cx="953.05" cy="350.07" r="3.2" fill="#1d4ed8"/>
<circle cx="956.25" cy="348.46" r="3.2" fill="#1d4ed8"/>
<circle cx="959.44" cy="351.29" r="3.2" fill="#1d4ed8"/>
<circle cx="962.64" cy="349.67" r="3.2" fill="#1d4ed8"/>
<circle cx="965.84" cy="351.29" r="3.2" fill="#1d4ed8"/>
<circle cx="969.03" cy="349.67" r="3.2" fill="#1d4ed8"/>
<circle cx="972.23" cy="348.86" r="3.2" fill="#1d4ed8"/>
<circle cx="975.43" cy="348.46" r="3.2" fill="#1d4ed8"/>
<circle cx="978.62" cy="348.46" r="3.2" fill="#1d4ed8"/>
<circle cx="981.82" cy="347.24" r="3.2" fill="#1d4ed8"/>
<circle cx="985.01" cy="348.86" r="3.2" fill="#1d4ed8"/>
<circle cx="988.21" cy="346.84" r="3.2" fill="#1d4ed8"/>
<circle cx="991.41" cy="348.46" r="3.2" fill="#1d4ed8"/>
<circle cx="994.60" cy="348.86" r="3.2" fill="#1d4ed8"/>
<circle cx="997.80" cy="346.84" r="3.2" fill="#1d4ed8"/>
<circle cx="1001.00" cy="349.26" r="3.2" fill="#1d4ed8"/>
<circle cx="1004.19" cy="348.05" r="3.2" fill="#1d4ed8"/>
<circle cx="1007.39" cy="349.26" r="3.2" fill="#1d4ed8"/>
<circle cx="1010.59" cy="349.26" r="3.2" fill="#1d4ed8"/>
<circle cx="1013.78" cy="350.48" r="3.2" fill="#1d4ed8"/>
<circle cx="1016.98" cy="352.90" r="3.2" fill="#1d4ed8"/>
<circle cx="1020.18" cy="349.67" r="3.2" fill="#1d4ed8"/>
<circle cx="1023.37" cy="348.46" r="3.2" fill="#1d4ed8"/>
<circle cx="1026.57" cy="345.62" r="3.2" fill="#1d4ed8"/>
<circle cx="1029.77" cy="344.82" r="3.2" fill="#1d4ed8"/>
<circle cx="1032.96" cy="344.41" r="3.2" fill="#1d4ed8"/>
<circle cx="1036.16" cy="342.39" r="3.2" fill="#1d4ed8"/>
<circle cx="1039.35" cy="341.18" r="3.2" fill="#1d4ed8"/>
<circle cx="1042.55" cy="341.58" r="3.2" fill="#1d4ed8"/>
<circle cx="1045.75" cy="339.15" r="3.2" fill="#1d4ed8"/>
<circle cx="1048.94" cy="338.35" r="3.2" fill="#1d4ed8"/>
<circle cx="1052.14" cy="337.54" r="3.2" fill="#1d4ed8"/>
<circle cx="1055.34" cy="336.73" r="3.2" fill="#1d4ed8"/>
<circle cx="1058.53" cy="335.92" r="3.2" fill="#1d4ed8"/>
<circle cx="1061.73" cy="337.54" r="3.2" fill="#1d4ed8"/>
<circle cx="1064.93" cy="338.35" r="3.2" fill="#1d4ed8"/>
<circle cx="1068.12" cy="337.54" r="3.2" fill="#1d4ed8"/>
<circle cx="1071.32" cy="337.54" r="3.2" fill="#1d4ed8"/>
<circle cx="1074.52" cy="337.54" r="3.2" fill="#1d4ed8"/>
<circle cx="1077.71" cy="333.09" r="3.2" fill="#1d4ed8"/>
<circle cx="1080.91" cy="333.90" r="3.2" fill="#1d4ed8"/>
<circle cx="1084.11" cy="335.92" r="3.2" fill="#1d4ed8"/>
<circle cx="1087.30" cy="336.73" r="3.2" fill="#1d4ed8"/>
<circle cx="1090.50" cy="335.51" r="3.2" fill="#1d4ed8"/>
<circle cx="1093.70" cy="332.28" r="3.2" fill="#1d4ed8"/>
<circle cx="1096.89" cy="331.47" r="3.2" fill="#1d4ed8"/>
<circle cx="1100.09" cy="331.07" r="3.2" fill="#1d4ed8"/>
<circle cx="1103.28" cy="331.47" r="3.2" fill="#1d4ed8"/>
<circle cx="1106.48" cy="331.07" r="3.2" fill="#1d4ed8"/>
<circle cx="1109.68" cy="331.07" r="3.2" fill="#1d4ed8"/>
<circle cx="1112.87" cy="331.07" r="3.2" fill="#1d4ed8"/>
<circle cx="1116.07" cy="331.07" r="3.2" fill="#1d4ed8"/>
<circle cx="1119.27" cy="331.07" r="3.2" fill="#1d4ed8"/>
<circle cx="1122.46" cy="331.07" r="3.2" fill="#1d4ed8"/>
<circle cx="1125.66" cy="331.07" r="3.2" fill="#1d4ed8"/>
<circle cx="1128.86" cy="331.07" r="3.2" fill="#1d4ed8"/>
<circle cx="1132.05" cy="331.07" r="3.2" fill="#1d4ed8"/>
<circle cx="1135.25" cy="331.07" r="3.2" fill="#1d4ed8"/>
<circle cx="1138.45" cy="331.47" r="3.2" fill="#1d4ed8"/>
<circle cx="1141.64" cy="331.88" r="3.2" fill="#1d4ed8"/>
<circle cx="1144.84" cy="331.07" r="3.2" fill="#1d4ed8"/>
<circle cx="1148.04" cy="331.47" r="3.2" fill="#1d4ed8"/>
<circle cx="1151.23" cy="331.07" r="3.2" fill="#1d4ed8"/>
<circle cx="1154.43" cy="331.47" r="3.2" fill="#1d4ed8"/>
<circle cx="1157.62" cy="331.07" r="3.2" fill="#1d4ed8"/>
<circle cx="1160.82" cy="331.88" r="3.2" fill="#1d4ed8"/>
<circle cx="1164.02" cy="331.07" r="3.2" fill="#1d4ed8"/>
<circle cx="1167.21" cy="331.47" r="3.2" fill="#1d4ed8"/>
<circle cx="1170.41" cy="331.47" r="3.2" fill="#1d4ed8"/>
<circle cx="1173.61" cy="331.07" r="3.2" fill="#1d4ed8"/>
<circle cx="1176.80" cy="331.47" r="3.2" fill="#1d4ed8"/>
<circle cx="1180.00" cy="331.47" r="3.2" fill="#1d4ed8"/>
<text x="635" y="695" text-anchor="middle" font-size="14" fill="#111" font-family="sans-serif">Date</text>
<text x="24" y="325" text-anchor="middle" font-size="14" fill="#111" transform="rotate(-90 24,325)" font-family="sans-serif">Passed files</text>
</svg>
