<?xml version="1.0" encoding="UTF-8"?>
<svg xmlns="http://www.w3.org/2000/svg" width="1280" height="720" viewBox="0 0 1280 720">
<rect width="100%" height="100%" fill="#ffffff"/>
<text x="640" y="30" text-anchor="middle" font-size="22" font-family="sans-serif">Roast passed files history</text>
<line x1="90" y1="600" x2="1180" y2="600" stroke="#333" stroke-width="1.5"/>
<line x1="90" y1="50" x2="90" y2="600" stroke="#333" stroke-width="1.5"/>
<line x1="90" y1="600.00" x2="1180" y2="600.00" stroke="#e5e7eb" stroke-width="1"/>
<text x="78" y="605.00" text-anchor="end" font-size="12" fill="#111" font-family="sans-serif">0</text>
<line x1="90" y1="397.79" x2="1180" y2="397.79" stroke="#e5e7eb" stroke-width="1"/>
<text x="78" y="402.79" text-anchor="end" font-size="12" fill="#111" font-family="sans-serif">500</text>
<line x1="90" y1="195.59" x2="1180" y2="195.59" stroke="#e5e7eb" stroke-width="1"/>
<text x="78" y="200.59" text-anchor="end" font-size="12" fill="#111" font-family="sans-serif">1000</text>
<line x1="90.00" y1="600" x2="90.00" y2="606" stroke="#333" stroke-width="1"/>
<text x="90.00" y="624" text-anchor="end" font-size="11" fill="#111" transform="rotate(-40 90.00,624)" font-family="sans-serif">2026-02-12</text>
<line x1="224.11" y1="600" x2="224.11" y2="606" stroke="#333" stroke-width="1"/>
<text x="224.11" y="624" text-anchor="end" font-size="11" fill="#111" transform="rotate(-40 224.11,624)" font-family="sans-serif">2026-02-17</text>
<line x1="358.22" y1="600" x2="358.22" y2="606" stroke="#333" stroke-width="1"/>
<text x="358.22" y="624" text-anchor="end" font-size="11" fill="#111" transform="rotate(-40 358.22,624)" font-family="sans-serif">2026-02-22</text>
<line x1="492.33" y1="600" x2="492.33" y2="606" stroke="#333" stroke-width="1"/>
<text x="492.33" y="624" text-anchor="end" font-size="11" fill="#111" transform="rotate(-40 492.33,624)" font-family="sans-serif">2026-02-26</text>
<line x1="626.44" y1="600" x2="626.44" y2="606" stroke="#333" stroke-width="1"/>
<text x="626.44" y="624" text-anchor="end" font-size="11" fill="#111" transform="rotate(-40 626.44,624)" font-family="sans-serif">2026-02-28</text>
<line x1="760.55" y1="600" x2="760.55" y2="606" stroke="#333" stroke-width="1"/>
<text x="760.55" y="624" text-anchor="end" font-size="11" fill="#111" transform="rotate(-40 760.55,624)" font-family="sans-serif">2026-03-06</text>
<line x1="894.66" y1="600" x2="894.66" y2="606" stroke="#333" stroke-width="1"/>
<text x="894.66" y="624" text-anchor="end" font-size="11" fill="#111" transform="rotate(-40 894.66,624)" font-family="sans-serif">2026-03-07</text>
<line x1="1028.77" y1="600" x2="1028.77" y2="606" stroke="#333" stroke-width="1"/>
<text x="1028.77" y="624" text-anchor="end" font-size="11" fill="#111" transform="rotate(-40 1028.77,624)" font-family="sans-serif">2026-03-11</text>
<line x1="1162.88" y1="600" x2="1162.88" y2="606" stroke="#333" stroke-width="1"/>
<text x="1162.88" y="624" text-anchor="end" font-size="11" fill="#111" transform="rotate(-40 1162.88,624)" font-family="sans-serif">2026-03-18</text>
<line x1="1180.00" y1="600" x2="1180.00" y2="606" stroke="#333" stroke-width="1"/>
<text x="1180.00" y="624" text-anchor="end" font-size="11" fill="#111" transform="rotate(-40 1180.00,624)" font-family="sans-serif">2026-03-19</text>
<line x1="90" y1="75.88" x2="1180" y2="75.88" stroke="#dc2626" stroke-width="1.5" stroke-dasharray="8,4"/>
<text x="1184" y="79.88" font-size="12" fill="#dc2626" font-family="sans-serif">Goal: 1296</text>
<polyline fill="none" stroke="#2563eb" stroke-width="3" points="90.00,540.55 92.85,538.53 95.71,536.91 98.56,534.49 101.41,534.49 104.27,533.27 107.12,532.46 109.97,532.87 112.83,532.06 115.68,532.46 118.53,532.06 121.39,568.46 124.24,568.46 127.09,566.43 129.95,545.00 132.80,545.00 135.65,544.19 138.51,543.79 141.36,543.79 144.21,543.38 147.07,541.76 149.92,541.36 152.77,540.96 155.63,540.96 158.48,539.34 161.34,539.34 164.19,556.73 167.04,556.73 169.90,555.51 172.75,551.07 175.60,538.93 178.46,538.93 181.31,538.93 184.16,538.12 187.02,536.91 189.87,536.91 192.72,536.51 195.58,536.51 198.43,556.73 201.28,556.73 204.14,556.73 206.99,556.73 209.84,535.29 212.70,535.29 215.55,535.29 218.40,535.29 221.26,534.49 224.11,534.08 226.96,533.68 229.82,532.87 232.67,532.06 235.52,532.06 238.38,531.25 241.23,530.85 244.08,530.44 246.94,530.04 249.79,530.04 252.64,529.23 255.50,529.23 258.35,529.23 261.20,528.42 264.06,528.42 266.91,527.61 269.76,527.21 272.62,526.80 275.47,526.40 278.32,525.18 281.18,523.57 284.03,523.57 286.88,523.16 289.74,522.76 292.59,522.35 295.45,521.54 298.30,519.52 301.15,517.50 304.01,517.50 306.86,517.50 309.71,517.50 312.57,517.50 315.42,517.50 318.27,517.10 321.13,516.69 323.98,515.48 326.83,515.07 329.69,514.67 332.54,513.86 335.39,514.26 338.25,512.24 341.10,511.84 343.95,511.84 346.81,511.03 349.66,509.82 352.51,507.79 355.37,506.99 358.22,506.58 361.07,509.41 363.93,509.01 366.78,504.96 369.63,504.56 372.49,504.15 375.34,504.56 378.19,503.75 381.05,503.75 383.90,503.35 386.75,499.30 389.61,496.47 392.46,490.00 395.31,484.34 398.17,481.10 401.02,480.29 403.87,480.70 406.73,460.88 409.58,459.26 412.43,458.05 415.29,456.03 418.14,456.03 420.99,454.41 423.85,450.77 426.70,444.30 429.55,443.90 432.41,600.00 435.26,441.88 438.12,440.66 440.97,439.45 443.82,439.04 446.68,438.64 449.53,437.83 452.38,436.62 455.24,436.62 458.09,434.60 460.94,432.17 463.80,429.34 466.65,428.93 469.50,428.53 472.36,427.72 475.21,426.91 478.06,426.10 480.92,426.10 483.77,426.10 486.62,419.63 489.48,419.23 492.33,418.42 495.18,418.01 498.04,417.61 500.89,417.61 503.74,417.61 506.60,417.21 509.45,417.21 512.30,413.57 515.16,411.95 518.01,412.76 520.86,410.74 523.72,410.74 526.57,410.33 529.42,410.33 532.28,410.33 535.13,409.93 537.98,409.93 540.84,409.93 543.69,409.52 546.54,409.52 549.40,409.12 552.25,409.52 555.10,409.12 557.96,407.50 560.81,407.10 563.66,403.05 566.52,399.82 569.37,400.22 572.23,400.62 575.08,400.62 577.93,399.41 580.79,392.94 583.64,391.32 586.49,389.30 589.35,389.30 592.20,388.49 595.05,375.15 597.91,374.74 600.76,374.74 603.61,374.74 606.47,374.74 609.32,374.34 612.17,374.34 615.03,374.34 617.88,374.34 620.73,374.34 623.59,373.93 626.44,373.12 629.29,372.72 632.15,373.53 635.00,435.81 637.85,372.32 640.71,372.72 643.56,371.91 646.41,371.91 649.27,372.32 652.12,371.10 654.97,369.89 657.83,369.89 660.68,369.89 663.53,369.49 666.39,369.89 669.24,369.08 672.09,368.68 674.95,368.27 677.80,367.87 680.65,367.06 683.51,367.46 686.36,367.06 689.21,366.25 692.07,368.27 694.92,368.68 697.77,368.68 700.63,368.27 703.48,369.08 706.34,367.87 709.19,367.46 712.04,367.06 714.90,360.18 717.75,359.78 720.60,359.38 723.46,356.95 726.31,357.35 729.16,357.76 732.02,355.33 734.87,355.74 737.72,357.35 740.58,355.33 743.43,356.14 746.28,355.74 749.14,356.14 751.99,354.12 754.84,354.93 757.70,356.14 760.55,354.52 763.40,353.71 766.26,354.12 769.11,354.93 771.96,352.90 774.82,353.71 777.67,353.31 780.52,353.31 783.38,354.52 786.23,352.90 789.08,352.50 791.94,352.50 794.79,353.31 797.64,352.50 800.50,353.71 803.35,354.12 806.20,352.50 809.06,352.90 811.91,352.50 814.76,352.10 817.62,351.69 820.47,352.10 823.32,354.12 826.18,352.50 829.03,352.10 831.88,352.10 834.74,349.67 837.59,349.67 840.45,350.88 843.30,351.29 846.15,350.48 849.01,352.10 851.86,350.48 854.71,350.48 857.57,350.48 860.42,350.07 863.27,348.46 866.13,351.29 868.98,349.67 871.83,351.29 874.69,349.67 877.54,348.86 880.39,348.46 883.25,348.46 886.10,347.24 888.95,348.86 891.81,346.84 894.66,348.46 897.51,348.86 900.37,346.84 903.22,349.26 906.07,348.05 908.93,349.26 911.78,349.26 914.63,350.48 917.49,352.90 920.34,349.67 923.19,348.46 926.05,345.62 928.90,344.82 931.75,344.41 934.61,342.39 937.46,341.18 940.31,341.58 943.17,339.15 946.02,338.35 948.87,337.54 951.73,336.73 954.58,335.92 957.43,337.54 960.29,338.35 963.14,337.54 965.99,337.54 968.85,337.54 971.70,333.09 974.55,333.90 977.41,335.92 980.26,336.73 983.12,335.51 985.97,332.28 988.82,331.47 991.68,331.07 994.53,331.47 997.38,331.07 1000.24,331.07 1003.09,331.07 1005.94,331.07 1008.80,331.07 1011.65,331.07 1014.50,331.07 1017.36,331.07 1020.21,331.07 1023.06,331.07 1025.92,331.47 1028.77,331.88 1031.62,331.07 1034.48,331.47 1037.33,331.07 1040.18,331.47 1043.04,331.07 1045.89,324.19 1048.74,324.19 1051.60,318.93 1054.45,316.51 1057.30,310.44 1060.16,308.01 1063.01,600.00 1065.86,301.54 1068.72,290.22 1071.57,287.79 1074.42,286.18 1077.28,285.77 1080.13,285.77 1082.98,285.77 1085.84,286.18 1088.69,285.77 1091.54,285.77 1094.40,285.77 1097.25,283.35 1100.10,282.94 1102.96,282.94 1105.81,283.35 1108.66,282.94 1111.52,282.94 1114.37,283.75 1117.23,282.13 1120.08,282.13 1122.93,282.54 1125.79,282.13 1128.64,282.54 1131.49,282.94 1134.35,281.73 1137.20,282.54 1140.05,281.73 1142.91,282.54 1145.76,282.13 1148.61,282.13 1151.47,281.73 1154.32,281.73 1157.17,281.32 1160.03,281.73 1162.88,282.13 1165.73,281.32 1168.59,281.32 1171.44,282.54 1174.29,282.13 1177.15,281.32 1180.00,281.32"/>
<circle cx="90.00" cy="540.55" r="3.2" fill="#1d4ed8"/>
<circle cx="92.85" cy="538.53" r="3.2" fill="#1d4ed8"/>
<circle cx="95.71" cy="536.91" r="3.2" fill="#1d4ed8"/>
<circle cx="98.56" cy="534.49" r="3.2" fill="#1d4ed8"/>
<circle cx="101.41" cy="534.49" r="3.2" fill="#1d4ed8"/>
<circle cx="104.27" cy="533.27" r="3.2" fill="#1d4ed8"/>
<circle cx="107.12" cy="532.46" r="3.2" fill="#1d4ed8"/>
<circle cx="109.97" cy="532.87" r="3.2" fill="#1d4ed8"/>
<circle cx="112.83" cy="532.06" r="3.2" fill="#1d4ed8"/>
<circle cx="115.68" cy="532.46" r="3.2" fill="#1d4ed8"/>
<circle cx="118.53" cy="532.06" r="3.2" fill="#1d4ed8"/>
<circle cx="121.39" cy="568.46" r="3.2" fill="#1d4ed8"/>
<circle cx="124.24" cy="568.46" r="3.2" fill="#1d4ed8"/>
<circle cx="127.09" cy="566.43" r="3.2" fill="#1d4ed8"/>
<circle cx="129.95" cy="545.00" r="3.2" fill="#1d4ed8"/>
<circle cx="132.80" cy="545.00" r="3.2" fill="#1d4ed8"/>
<circle cx="135.65" cy="544.19" r="3.2" fill="#1d4ed8"/>
<circle cx="138.51" cy="543.79" r="3.2" fill="#1d4ed8"/>
<circle cx="141.36" cy="543.79" r="3.2" fill="#1d4ed8"/>
<circle cx="144.21" cy="543.38" r="3.2" fill="#1d4ed8"/>
<circle cx="147.07" cy="541.76" r="3.2" fill="#1d4ed8"/>
<circle cx="149.92" cy="541.36" r="3.2" fill="#1d4ed8"/>
<circle cx="152.77" cy="540.96" r="3.2" fill="#1d4ed8"/>
<circle cx="155.63" cy="540.96" r="3.2" fill="#1d4ed8"/>
<circle cx="158.48" cy="539.34" r="3.2" fill="#1d4ed8"/>
<circle cx="161.34" cy="539.34" r="3.2" fill="#1d4ed8"/>
<circle cx="164.19" cy="556.73" r="3.2" fill="#1d4ed8"/>
<circle cx="167.04" cy="556.73" r="3.2" fill="#1d4ed8"/>
<circle cx="169.90" cy="555.51" r="3.2" fill="#1d4ed8"/>
<circle cx="172.75" cy="551.07" r="3.2" fill="#1d4ed8"/>
<circle cx="175.60" cy="538.93" r="3.2" fill="#1d4ed8"/>
<circle cx="178.46" cy="538.93" r="3.2" fill="#1d4ed8"/>
<circle cx="181.31" cy="538.93" r="3.2" fill="#1d4ed8"/>
<circle cx="184.16" cy="538.12" r="3.2" fill="#1d4ed8"/>
<circle cx="187.02" cy="536.91" r="3.2" fill="#1d4ed8"/>
<circle cx="189.87" cy="536.91" r="3.2" fill="#1d4ed8"/>
<circle cx="192.72" cy="536.51" r="3.2" fill="#1d4ed8"/>
<circle cx="195.58" cy="536.51" r="3.2" fill="#1d4ed8"/>
<circle cx="198.43" cy="556.73" r="3.2" fill="#1d4ed8"/>
<circle cx="201.28" cy="556.73" r="3.2" fill="#1d4ed8"/>
<circle cx="204.14" cy="556.73" r="3.2" fill="#1d4ed8"/>
<circle cx="206.99" cy="556.73" r="3.2" fill="#1d4ed8"/>
<circle cx="209.84" cy="535.29" r="3.2" fill="#1d4ed8"/>
<circle cx="212.70" cy="535.29" r="3.2" fill="#1d4ed8"/>
<circle cx="215.55" cy="535.29" r="3.2" fill="#1d4ed8"/>
<circle cx="218.40" cy="535.29" r="3.2" fill="#1d4ed8"/>
<circle cx="221.26" cy="534.49" r="3.2" fill="#1d4ed8"/>
<circle cx="224.11" cy="534.08" r="3.2" fill="#1d4ed8"/>
<circle cx="226.96" cy="533.68" r="3.2" fill="#1d4ed8"/>
<circle cx="229.82" cy="532.87" r="3.2" fill="#1d4ed8"/>
<circle cx="232.67" cy="532.06" r="3.2" fill="#1d4ed8"/>
<circle cx="235.52" cy="532.06" r="3.2" fill="#1d4ed8"/>
<circle cx="238.38" cy="531.25" r="3.2" fill="#1d4ed8"/>
<circle cx="241.23" cy="530.85" r="3.2" fill="#1d4ed8"/>
<circle cx="244.08" cy="530.44" r="3.2" fill="#1d4ed8"/>
<circle cx="246.94" cy="530.04" r="3.2" fill="#1d4ed8"/>
<circle cx="249.79" cy="530.04" r="3.2" fill="#1d4ed8"/>
<circle cx="252.64" cy="529.23" r="3.2" fill="#1d4ed8"/>
<circle cx="255.50" cy="529.23" r="3.2" fill="#1d4ed8"/>
<circle cx="258.35" cy="529.23" r="3.2" fill="#1d4ed8"/>
<circle cx="261.20" cy="528.42" r="3.2" fill="#1d4ed8"/>
<circle cx="264.06" cy="528.42" r="3.2" fill="#1d4ed8"/>
<circle cx="266.91" cy="527.61" r="3.2" fill="#1d4ed8"/>
<circle cx="269.76" cy="527.21" r="3.2" fill="#1d4ed8"/>
<circle cx="272.62" cy="526.80" r="3.2" fill="#1d4ed8"/>
<circle cx="275.47" cy="526.40" r="3.2" fill="#1d4ed8"/>
<circle cx="278.32" cy="525.18" r="3.2" fill="#1d4ed8"/>
<circle cx="281.18" cy="523.57" r="3.2" fill="#1d4ed8"/>
<circle cx="284.03" cy="523.57" r="3.2" fill="#1d4ed8"/>
<circle cx="286.88" cy="523.16" r="3.2" fill="#1d4ed8"/>
<circle cx="289.74" cy="522.76" r="3.2" fill="#1d4ed8"/>
<circle cx="292.59" cy="522.35" r="3.2" fill="#1d4ed8"/>
<circle cx="295.45" cy="521.54" r="3.2" fill="#1d4ed8"/>
<circle cx="298.30" cy="519.52" r="3.2" fill="#1d4ed8"/>
<circle cx="301.15" cy="517.50" r="3.2" fill="#1d4ed8"/>
<circle cx="304.01" cy="517.50" r="3.2" fill="#1d4ed8"/>
<circle cx="306.86" cy="517.50" r="3.2" fill="#1d4ed8"/>
<circle cx="309.71" cy="517.50" r="3.2" fill="#1d4ed8"/>
<circle cx="312.57" cy="517.50" r="3.2" fill="#1d4ed8"/>
<circle cx="315.42" cy="517.50" r="3.2" fill="#1d4ed8"/>
<circle cx="318.27" cy="517.10" r="3.2" fill="#1d4ed8"/>
<circle cx="321.13" cy="516.69" r="3.2" fill="#1d4ed8"/>
<circle cx="323.98" cy="515.48" r="3.2" fill="#1d4ed8"/>
<circle cx="326.83" cy="515.07" r="3.2" fill="#1d4ed8"/>
<circle cx="329.69" cy="514.67" r="3.2" fill="#1d4ed8"/>
<circle cx="332.54" cy="513.86" r="3.2" fill="#1d4ed8"/>
<circle cx="335.39" cy="514.26" r="3.2" fill="#1d4ed8"/>
<circle cx="338.25" cy="512.24" r="3.2" fill="#1d4ed8"/>
<circle cx="341.10" cy="511.84" r="3.2" fill="#1d4ed8"/>
<circle cx="343.95" cy="511.84" r="3.2" fill="#1d4ed8"/>
<circle cx="346.81" cy="511.03" r="3.2" fill="#1d4ed8"/>
<circle cx="349.66" cy="509.82" r="3.2" fill="#1d4ed8"/>
<circle cx="352.51" cy="507.79" r="3.2" fill="#1d4ed8"/>
<circle cx="355.37" cy="506.99" r="3.2" fill="#1d4ed8"/>
<circle cx="358.22" cy="506.58" r="3.2" fill="#1d4ed8"/>
<circle cx="361.07" cy="509.41" r="3.2" fill="#1d4ed8"/>
<circle cx="363.93" cy="509.01" r="3.2" fill="#1d4ed8"/>
<circle cx="366.78" cy="504.96" r="3.2" fill="#1d4ed8"/>
<circle cx="369.63" cy="504.56" r="3.2" fill="#1d4ed8"/>
<circle cx="372.49" cy="504.15" r="3.2" fill="#1d4ed8"/>
<circle cx="375.34" cy="504.56" r="3.2" fill="#1d4ed8"/>
<circle cx="378.19" cy="503.75" r="3.2" fill="#1d4ed8"/>
<circle cx="381.05" cy="503.75" r="3.2" fill="#1d4ed8"/>
<circle cx="383.90" cy="503.35" r="3.2" fill="#1d4ed8"/>
<circle cx="386.75" cy="499.30" r="3.2" fill="#1d4ed8"/>
<circle cx="389.61" cy="496.47" r="3.2" fill="#1d4ed8"/>
<circle cx="392.46" cy="490.00" r="3.2" fill="#1d4ed8"/>
<circle cx="395.31" cy="484.34" r="3.2" fill="#1d4ed8"/>
<circle cx="398.17" cy="481.10" r="3.2" fill="#1d4ed8"/>
<circle cx="401.02" cy="480.29" r="3.2" fill="#1d4ed8"/>
<circle cx="403.87" cy="480.70" r="3.2" fill="#1d4ed8"/>
<circle cx="406.73" cy="460.88" r="3.2" fill="#1d4ed8"/>
<circle cx="409.58" cy="459.26" r="3.2" fill="#1d4ed8"/>
<circle cx="412.43" cy="458.05" r="3.2" fill="#1d4ed8"/>
<circle cx="415.29" cy="456.03" r="3.2" fill="#1d4ed8"/>
<circle cx="418.14" cy="456.03" r="3.2" fill="#1d4ed8"/>
<circle cx="420.99" cy="454.41" r="3.2" fill="#1d4ed8"/>
<circle cx="423.85" cy="450.77" r="3.2" fill="#1d4ed8"/>
<circle cx="426.70" cy="444.30" r="3.2" fill="#1d4ed8"/>
<circle cx="429.55" cy="443.90" r="3.2" fill="#1d4ed8"/>
<circle cx="432.41" cy="600.00" r="3.2" fill="#1d4ed8"/>
<circle cx="435.26" cy="441.88" r="3.2" fill="#1d4ed8"/>
<circle cx="438.12" cy="440.66" r="3.2" fill="#1d4ed8"/>
<circle cx="440.97" cy="439.45" r="3.2" fill="#1d4ed8"/>
<circle cx="443.82" cy="439.04" r="3.2" fill="#1d4ed8"/>
<circle cx="446.68" cy="438.64" r="3.2" fill="#1d4ed8"/>
<circle cx="449.53" cy="437.83" r="3.2" fill="#1d4ed8"/>
<circle cx="452.38" cy="436.62" r="3.2" fill="#1d4ed8"/>
<circle cx="455.24" cy="436.62" r="3.2" fill="#1d4ed8"/>
<circle cx="458.09" cy="434.60" r="3.2" fill="#1d4ed8"/>
<circle cx="460.94" cy="432.17" r="3.2" fill="#1d4ed8"/>
<circle cx="463.80" cy="429.34" r="3.2" fill="#1d4ed8"/>
<circle cx="466.65" cy="428.93" r="3.2" fill="#1d4ed8"/>
<circle cx="469.50" cy="428.53" r="3.2" fill="#1d4ed8"/>
<circle cx="472.36" cy="427.72" r="3.2" fill="#1d4ed8"/>
<circle cx="475.21" cy="426.91" r="3.2" fill="#1d4ed8"/>
<circle cx="478.06" cy="426.10" r="3.2" fill="#1d4ed8"/>
<circle cx="480.92" cy="426.10" r="3.2" fill="#1d4ed8"/>
<circle cx="483.77" cy="426.10" r="3.2" fill="#1d4ed8"/>
<circle cx="486.62" cy="419.63" r="3.2" fill="#1d4ed8"/>
<circle cx="489.48" cy="419.23" r="3.2" fill="#1d4ed8"/>
<circle cx="492.33" cy="418.42" r="3.2" fill="#1d4ed8"/>
<circle cx="495.18" cy="418.01" r="3.2" fill="#1d4ed8"/>
<circle cx="498.04" cy="417.61" r="3.2" fill="#1d4ed8"/>
<circle cx="500.89" cy="417.61" r="3.2" fill="#1d4ed8"/>
<circle cx="503.74" cy="417.61" r="3.2" fill="#1d4ed8"/>
<circle cx="506.60" cy="417.21" r="3.2" fill="#1d4ed8"/>
<circle cx="509.45" cy="417.21" r="3.2" fill="#1d4ed8"/>
<circle cx="512.30" cy="413.57" r="3.2" fill="#1d4ed8"/>
<circle cx="515.16" cy="411.95" r="3.2" fill="#1d4ed8"/>
<circle cx="518.01" cy="412.76" r="3.2" fill="#1d4ed8"/>
<circle cx="520.86" cy="410.74" r="3.2" fill="#1d4ed8"/>
<circle cx="523.72" cy="410.74" r="3.2" fill="#1d4ed8"/>
<circle cx="526.57" cy="410.33" r="3.2" fill="#1d4ed8"/>
<circle cx="529.42" cy="410.33" r="3.2" fill="#1d4ed8"/>
<circle cx="532.28" cy="410.33" r="3.2" fill="#1d4ed8"/>
<circle cx="535.13" cy="409.93" r="3.2" fill="#1d4ed8"/>
<circle cx="537.98" cy="409.93" r="3.2" fill="#1d4ed8"/>
<circle cx="540.84" cy="409.93" r="3.2" fill="#1d4ed8"/>
<circle cx="543.69" cy="409.52" r="3.2" fill="#1d4ed8"/>
<circle cx="546.54" cy="409.52" r="3.2" fill="#1d4ed8"/>
<circle cx="549.40" cy="409.12" r="3.2" fill="#1d4ed8"/>
<circle cx="552.25" cy="409.52" r="3.2" fill="#1d4ed8"/>
<circle cx="555.10" cy="409.12" r="3.2" fill="#1d4ed8"/>
<circle cx="557.96" cy="407.50" r="3.2" fill="#1d4ed8"/>
<circle cx="560.81" cy="407.10" r="3.2" fill="#1d4ed8"/>
<circle cx="563.66" cy="403.05" r="3.2" fill="#1d4ed8"/>
<circle cx="566.52" cy="399.82" r="3.2" fill="#1d4ed8"/>
<circle cx="569.37" cy="400.22" r="3.2" fill="#1d4ed8"/>
<circle cx="572.23" cy="400.62" r="3.2" fill="#1d4ed8"/>
<circle cx="575.08" cy="400.62" r="3.2" fill="#1d4ed8"/>
<circle cx="577.93" cy="399.41" r="3.2" fill="#1d4ed8"/>
<circle cx="580.79" cy="392.94" r="3.2" fill="#1d4ed8"/>
<circle cx="583.64" cy="391.32" r="3.2" fill="#1d4ed8"/>
<circle cx="586.49" cy="389.30" r="3.2" fill="#1d4ed8"/>
<circle cx="589.35" cy="389.30" r="3.2" fill="#1d4ed8"/>
<circle cx="592.20" cy="388.49" r="3.2" fill="#1d4ed8"/>
<circle cx="595.05" cy="375.15" r="3.2" fill="#1d4ed8"/>
<circle cx="597.91" cy="374.74" r="3.2" fill="#1d4ed8"/>
<circle cx="600.76" cy="374.74" r="3.2" fill="#1d4ed8"/>
<circle cx="603.61" cy="374.74" r="3.2" fill="#1d4ed8"/>
<circle cx="606.47" cy="374.74" r="3.2" fill="#1d4ed8"/>
<circle cx="609.32" cy="374.34" r="3.2" fill="#1d4ed8"/>
<circle cx="612.17" cy="374.34" r="3.2" fill="#1d4ed8"/>
<circle cx="615.03" cy="374.34" r="3.2" fill="#1d4ed8"/>
<circle cx="617.88" cy="374.34" r="3.2" fill="#1d4ed8"/>
<circle cx="620.73" cy="374.34" r="3.2" fill="#1d4ed8"/>
<circle cx="623.59" cy="373.93" r="3.2" fill="#1d4ed8"/>
<circle cx="626.44" cy="373.12" r="3.2" fill="#1d4ed8"/>
<circle cx="629.29" cy="372.72" r="3.2" fill="#1d4ed8"/>
<circle cx="632.15" cy="373.53" r="3.2" fill="#1d4ed8"/>
<circle cx="635.00" cy="435.81" r="3.2" fill="#1d4ed8"/>
<circle cx="637.85" cy="372.32" r="3.2" fill="#1d4ed8"/>
<circle cx="640.71" cy="372.72" r="3.2" fill="#1d4ed8"/>
<circle cx="643.56" cy="371.91" r="3.2" fill="#1d4ed8"/>
<circle cx="646.41" cy="371.91" r="3.2" fill="#1d4ed8"/>
<circle cx="649.27" cy="372.32" r="3.2" fill="#1d4ed8"/>
<circle cx="652.12" cy="371.10" r="3.2" fill="#1d4ed8"/>
<circle cx="654.97" cy="369.89" r="3.2" fill="#1d4ed8"/>
<circle cx="657.83" cy="369.89" r="3.2" fill="#1d4ed8"/>
<circle cx="660.68" cy="369.89" r="3.2" fill="#1d4ed8"/>
<circle cx="663.53" cy="369.49" r="3.2" fill="#1d4ed8"/>
<circle cx="666.39" cy="369.89" r="3.2" fill="#1d4ed8"/>
<circle cx="669.24" cy="369.08" r="3.2" fill="#1d4ed8"/>
<circle cx="672.09" cy="368.68" r="3.2" fill="#1d4ed8"/>
<circle cx="674.95" cy="368.27" r="3.2" fill="#1d4ed8"/>
<circle cx="677.80" cy="367.87" r="3.2" fill="#1d4ed8"/>
<circle cx="680.65" cy="367.06" r="3.2" fill="#1d4ed8"/>
<circle cx="683.51" cy="367.46" r="3.2" fill="#1d4ed8"/>
<circle cx="686.36" cy="367.06" r="3.2" fill="#1d4ed8"/>
<circle cx="689.21" cy="366.25" r="3.2" fill="#1d4ed8"/>
<circle cx="692.07" cy="368.27" r="3.2" fill="#1d4ed8"/>
<circle cx="694.92" cy="368.68" r="3.2" fill="#1d4ed8"/>
<circle cx="697.77" cy="368.68" r="3.2" fill="#1d4ed8"/>
<circle cx="700.63" cy="368.27" r="3.2" fill="#1d4ed8"/>
<circle cx="703.48" cy="369.08" r="3.2" fill="#1d4ed8"/>
<circle cx="706.34" cy="367.87" r="3.2" fill="#1d4ed8"/>
<circle cx="709.19" cy="367.46" r="3.2" fill="#1d4ed8"/>
<circle cx="712.04" cy="367.06" r="3.2" fill="#1d4ed8"/>
<circle cx="714.90" cy="360.18" r="3.2" fill="#1d4ed8"/>
<circle cx="717.75" cy="359.78" r="3.2" fill="#1d4ed8"/>
<circle cx="720.60" cy="359.38" r="3.2" fill="#1d4ed8"/>
<circle cx="723.46" cy="356.95" r="3.2" fill="#1d4ed8"/>
<circle cx="726.31" cy="357.35" r="3.2" fill="#1d4ed8"/>
<circle cx="729.16" cy="357.76" r="3.2" fill="#1d4ed8"/>
<circle cx="732.02" cy="355.33" r="3.2" fill="#1d4ed8"/>
<circle cx="734.87" cy="355.74" r="3.2" fill="#1d4ed8"/>
<circle cx="737.72" cy="357.35" r="3.2" fill="#1d4ed8"/>
<circle cx="740.58" cy="355.33" r="3.2" fill="#1d4ed8"/>
<circle cx="743.43" cy="356.14" r="3.2" fill="#1d4ed8"/>
<circle cx="746.28" cy="355.74" r="3.2" fill="#1d4ed8"/>
<circle cx="749.14" cy="356.14" r="3.2" fill="#1d4ed8"/>
<circle cx="751.99" cy="354.12" r="3.2" fill="#1d4ed8"/>
<circle cx="754.84" cy="354.93" r="3.2" fill="#1d4ed8"/>
<circle cx="757.70" cy="356.14" r="3.2" fill="#1d4ed8"/>
<circle cx="760.55" cy="354.52" r="3.2" fill="#1d4ed8"/>
<circle cx="763.40" cy="353.71" r="3.2" fill="#1d4ed8"/>
<circle cx="766.26" cy="354.12" r="3.2" fill="#1d4ed8"/>
<circle cx="769.11" cy="354.93" r="3.2" fill="#1d4ed8"/>
<circle cx="771.96" cy="352.90" r="3.2" fill="#1d4ed8"/>
<circle cx="774.82" cy="353.71" r="3.2" fill="#1d4ed8"/>
<circle cx="777.67" cy="353.31" r="3.2" fill="#1d4ed8"/>
<circle cx="780.52" cy="353.31" r="3.2" fill="#1d4ed8"/>
<circle cx="783.38" cy="354.52" r="3.2" fill="#1d4ed8"/>
<circle cx="786.23" cy="352.90" r="3.2" fill="#1d4ed8"/>
<circle cx="789.08" cy="352.50" r="3.2" fill="#1d4ed8"/>
<circle cx="791.94" cy="352.50" r="3.2" fill="#1d4ed8"/>
<circle cx="794.79" cy="353.31" r="3.2" fill="#1d4ed8"/>
<circle cx="797.64" cy="352.50" r="3.2" fill="#1d4ed8"/>
<circle cx="800.50" cy="353.71" r="3.2" fill="#1d4ed8"/>
<circle cx="803.35" cy="354.12" r="3.2" fill="#1d4ed8"/>
<circle cx="806.20" cy="352.50" r="3.2" fill="#1d4ed8"/>
<circle cx="809.06" cy="352.90" r="3.2" fill="#1d4ed8"/>
<circle cx="811.91" cy="352.50" r="3.2" fill="#1d4ed8"/>
<circle cx="814.76" cy="352.10" r="3.2" fill="#1d4ed8"/>
<circle cx="817.62" cy="351.69" r="3.2" fill="#1d4ed8"/>
<circle cx="820.47" cy="352.10" r="3.2" fill="#1d4ed8"/>
<circle cx="823.32" cy="354.12" r="3.2" fill="#1d4ed8"/>
<circle cx="826.18" cy="352.50" r="3.2" fill="#1d4ed8"/>
<circle cx="829.03" cy="352.10" r="3.2" fill="#1d4ed8"/>
<circle cx="831.88" cy="352.10" r="3.2" fill="#1d4ed8"/>
<circle cx="834.74" cy="349.67" r="3.2" fill="#1d4ed8"/>
<circle cx="837.59" cy="349.67" r="3.2" fill="#1d4ed8"/>
<circle cx="840.45" cy="350.88" r="3.2" fill="#1d4ed8"/>
<circle cx="843.30" cy="351.29" r="3.2" fill="#1d4ed8"/>
<circle cx="846.15" cy="350.48" r="3.2" fill="#1d4ed8"/>
<circle cx="849.01" cy="352.10" r="3.2" fill="#1d4ed8"/>
<circle cx="851.86" cy="350.48" r="3.2" fill="#1d4ed8"/>
<circle cx="854.71" cy="350.48" r="3.2" fill="#1d4ed8"/>
<circle cx="857.57" cy="350.48" r="3.2" fill="#1d4ed8"/>
<circle cx="860.42" cy="350.07" r="3.2" fill="#1d4ed8"/>
<circle cx="863.27" cy="348.46" r="3.2" fill="#1d4ed8"/>
<circle cx="866.13" cy="351.29" r="3.2" fill="#1d4ed8"/>
<circle cx="868.98" cy="349.67" r="3.2" fill="#1d4ed8"/>
<circle cx="871.83" cy="351.29" r="3.2" fill="#1d4ed8"/>
<circle cx="874.69" cy="349.67" r="3.2" fill="#1d4ed8"/>
<circle cx="877.54" cy="348.86" r="3.2" fill="#1d4ed8"/>
<circle cx="880.39" cy="348.46" r="3.2" fill="#1d4ed8"/>
<circle cx="883.25" cy="348.46" r="3.2" fill="#1d4ed8"/>
<circle cx="886.10" cy="347.24" r="3.2" fill="#1d4ed8"/>
<circle cx="888.95" cy="348.86" r="3.2" fill="#1d4ed8"/>
<circle cx="891.81" cy="346.84" r="3.2" fill="#1d4ed8"/>
<circle cx="894.66" cy="348.46" r="3.2" fill="#1d4ed8"/>
<circle cx="897.51" cy="348.86" r="3.2" fill="#1d4ed8"/>
<circle cx="900.37" cy="346.84" r="3.2" fill="#1d4ed8"/>
<circle cx="903.22" cy="349.26" r="3.2" fill="#1d4ed8"/>
<circle cx="906.07" cy="348.05" r="3.2" fill="#1d4ed8"/>
<circle cx="908.93" cy="349.26" r="3.2" fill="#1d4ed8"/>
<circle cx="911.78" cy="349.26" r="3.2" fill="#1d4ed8"/>
<circle cx="914.63" cy="350.48" r="3.2" fill="#1d4ed8"/>
<circle cx="917.49" cy="352.90" r="3.2" fill="#1d4ed8"/>
<circle cx="920.34" cy="349.67" r="3.2" fill="#1d4ed8"/>
<circle cx="923.19" cy="348.46" r="3.2" fill="#1d4ed8"/>
<circle cx="926.05" cy="345.62" r="3.2" fill="#1d4ed8"/>
<circle cx="928.90" cy="344.82" r="3.2" fill="#1d4ed8"/>
<circle cx="931.75" cy="344.41" r="3.2" fill="#1d4ed8"/>
<circle cx="934.61" cy="342.39" r="3.2" fill="#1d4ed8"/>
<circle cx="937.46" cy="341.18" r="3.2" fill="#1d4ed8"/>
<circle cx="940.31" cy="341.58" r="3.2" fill="#1d4ed8"/>
<circle cx="943.17" cy="339.15" r="3.2" fill="#1d4ed8"/>
<circle cx="946.02" cy="338.35" r="3.2" fill="#1d4ed8"/>
<circle cx="948.87" cy="337.54" r="3.2" fill="#1d4ed8"/>
<circle cx="951.73" cy="336.73" r="3.2" fill="#1d4ed8"/>
<circle cx="954.58" cy="335.92" r="3.2" fill="#1d4ed8"/>
<circle cx="957.43" cy="337.54" r="3.2" fill="#1d4ed8"/>
<circle cx="960.29" cy="338.35" r="3.2" fill="#1d4ed8"/>
<circle cx="963.14" cy="337.54" r="3.2" fill="#1d4ed8"/>
<circle cx="965.99" cy="337.54" r="3.2" fill="#1d4ed8"/>
<circle cx="968.85" cy="337.54" r="3.2" fill="#1d4ed8"/>
<circle cx="971.70" cy="333.09" r="3.2" fill="#1d4ed8"/>
<circle cx="974.55" cy="333.90" r="3.2" fill="#1d4ed8"/>
<circle cx="977.41" cy="335.92" r="3.2" fill="#1d4ed8"/>
<circle cx="980.26" cy="336.73" r="3.2" fill="#1d4ed8"/>
<circle cx="983.12" cy="335.51" r="3.2" fill="#1d4ed8"/>
<circle cx="985.97" cy="332.28" r="3.2" fill="#1d4ed8"/>
<circle cx="988.82" cy="331.47" r="3.2" fill="#1d4ed8"/>
<circle cx="991.68" cy="331.07" r="3.2" fill="#1d4ed8"/>
<circle cx="994.53" cy="331.47" r="3.2" fill="#1d4ed8"/>
<circle cx="997.38" cy="331.07" r="3.2" fill="#1d4ed8"/>
<circle cx="1000.24" cy="331.07" r="3.2" fill="#1d4ed8"/>
<circle cx="1003.09" cy="331.07" r="3.2" fill="#1d4ed8"/>
<circle cx="1005.94" cy="331.07" r="3.2" fill="#1d4ed8"/>
<circle cx="1008.80" cy="331.07" r="3.2" fill="#1d4ed8"/>
<circle cx="1011.65" cy="331.07" r="3.2" fill="#1d4ed8"/>
<circle cx="1014.50" cy="331.07" r="3.2" fill="#1d4ed8"/>
<circle cx="1017.36" cy="331.07" r="3.2" fill="#1d4ed8"/>
<circle cx="1020.21" cy="331.07" r="3.2" fill="#1d4ed8"/>
<circle cx="1023.06" cy="331.07" r="3.2" fill="#1d4ed8"/>
<circle cx="1025.92" cy="331.47" r="3.2" fill="#1d4ed8"/>
<circle cx="1028.77" cy="331.88" r="3.2" fill="#1d4ed8"/>
<circle cx="1031.62" cy="331.07" r="3.2" fill="#1d4ed8"/>
<circle cx="1034.48" cy="331.47" r="3.2" fill="#1d4ed8"/>
<circle cx="1037.33" cy="331.07" r="3.2" fill="#1d4ed8"/>
<circle cx="1040.18" cy="331.47" r="3.2" fill="#1d4ed8"/>
<circle cx="1043.04" cy="331.07" r="3.2" fill="#1d4ed8"/>
<circle cx="1045.89" cy="324.19" r="3.2" fill="#1d4ed8"/>
<circle cx="1048.74" cy="324.19" r="3.2" fill="#1d4ed8"/>
<circle cx="1051.60" cy="318.93" r="3.2" fill="#1d4ed8"/>
<circle cx="1054.45" cy="316.51" r="3.2" fill="#1d4ed8"/>
<circle cx="1057.30" cy="310.44" r="3.2" fill="#1d4ed8"/>
<circle cx="1060.16" cy="308.01" r="3.2" fill="#1d4ed8"/>
<circle cx="1063.01" cy="600.00" r="3.2" fill="#1d4ed8"/>
<circle cx="1065.86" cy="301.54" r="3.2" fill="#1d4ed8"/>
<circle cx="1068.72" cy="290.22" r="3.2" fill="#1d4ed8"/>
<circle cx="1071.57" cy="287.79" r="3.2" fill="#1d4ed8"/>
<circle cx="1074.42" cy="286.18" r="3.2" fill="#1d4ed8"/>
<circle cx="1077.28" cy="285.77" r="3.2" fill="#1d4ed8"/>
<circle cx="1080.13" cy="285.77" r="3.2" fill="#1d4ed8"/>
<circle cx="1082.98" cy="285.77" r="3.2" fill="#1d4ed8"/>
<circle cx="1085.84" cy="286.18" r="3.2" fill="#1d4ed8"/>
<circle cx="1088.69" cy="285.77" r="3.2" fill="#1d4ed8"/>
<circle cx="1091.54" cy="285.77" r="3.2" fill="#1d4ed8"/>
<circle cx="1094.40" cy="285.77" r="3.2" fill="#1d4ed8"/>
<circle cx="1097.25" cy="283.35" r="3.2" fill="#1d4ed8"/>
<circle cx="1100.10" cy="282.94" r="3.2" fill="#1d4ed8"/>
<circle cx="1102.96" cy="282.94" r="3.2" fill="#1d4ed8"/>
<circle cx="1105.81" cy="283.35" r="3.2" fill="#1d4ed8"/>
<circle cx="1108.66" cy="282.94" r="3.2" fill="#1d4ed8"/>
<circle cx="1111.52" cy="282.94" r="3.2" fill="#1d4ed8"/>
<circle cx="1114.37" cy="283.75" r="3.2" fill="#1d4ed8"/>
<circle cx="1117.23" cy="282.13" r="3.2" fill="#1d4ed8"/>
<circle cx="1120.08" cy="282.13" r="3.2" fill="#1d4ed8"/>
<circle cx="1122.93" cy="282.54" r="3.2" fill="#1d4ed8"/>
<circle cx="1125.79" cy="282.13" r="3.2" fill="#1d4ed8"/>
<circle cx="1128.64" cy="282.54" r="3.2" fill="#1d4ed8"/>
<circle cx="1131.49" cy="282.94" r="3.2" fill="#1d4ed8"/>
<circle cx="1134.35" cy="281.73" r="3.2" fill="#1d4ed8"/>
<circle cx="1137.20" cy="282.54" r="3.2" fill="#1d4ed8"/>
<circle cx="1140.05" cy="281.73" r="3.2" fill="#1d4ed8"/>
<circle cx="1142.91" cy="282.54" r="3.2" fill="#1d4ed8"/>
<circle cx="1145.76" cy="282.13" r="3.2" fill="#1d4ed8"/>
<circle cx="1148.61" cy="282.13" r="3.2" fill="#1d4ed8"/>
<circle cx="1151.47" cy="281.73" r="3.2" fill="#1d4ed8"/>
<circle cx="1154.32" cy="281.73" r="3.2" fill="#1d4ed8"/>
<circle cx="1157.17" cy="281.32" r="3.2" fill="#1d4ed8"/>
<circle cx="1160.03" cy="281.73" r="3.2" fill="#1d4ed8"/>
<circle cx="1162.88" cy="282.13" r="3.2" fill="#1d4ed8"/>
<circle cx="1165.73" cy="281.32" r="3.2" fill="#1d4ed8"/>
<circle cx="1168.59" cy="281.32" r="3.2" fill="#1d4ed8"/>
<circle cx="1171.44" cy="282.54" r="3.2" fill="#1d4ed8"/>
<circle cx="1174.29" cy="282.13" r="3.2" fill="#1d4ed8"/>
<circle cx="1177.15" cy="281.32" r="3.2" fill="#1d4ed8"/>
<circle cx="1180.00" cy="281.32" r="3.2" fill="#1d4ed8"/>
<text x="635" y="695" text-anchor="middle" font-size="14" fill="#111" font-family="sans-serif">Date</text>
<text x="24" y="325" text-anchor="middle" font-size="14" fill="#111" transform="rotate(-90 24,325)" font-family="sans-serif">Passed files</text>
</svg>
