<?xml version="1.0" encoding="UTF-8"?>
<svg xmlns="http://www.w3.org/2000/svg" width="1280" height="720" viewBox="0 0 1280 720">
<rect width="100%" height="100%" fill="#ffffff"/>
<text x="640" y="30" text-anchor="middle" font-size="22" font-family="sans-serif">Roast passed files history</text>
<line x1="90" y1="600" x2="1180" y2="600" stroke="#333" stroke-width="1.5"/>
<line x1="90" y1="50" x2="90" y2="600" stroke="#333" stroke-width="1.5"/>
<line x1="90" y1="600.00" x2="1180" y2="600.00" stroke="#e5e7eb" stroke-width="1"/>
<text x="78" y="605.00" text-anchor="end" font-size="12" fill="#111" font-family="sans-serif">0</text>
<line x1="90" y1="397.79" x2="1180" y2="397.79" stroke="#e5e7eb" stroke-width="1"/>
<text x="78" y="402.79" text-anchor="end" font-size="12" fill="#111" font-family="sans-serif">500</text>
<line x1="90" y1="195.59" x2="1180" y2="195.59" stroke="#e5e7eb" stroke-width="1"/>
<text x="78" y="200.59" text-anchor="end" font-size="12" fill="#111" font-family="sans-serif">1000</text>
<line x1="90.00" y1="600" x2="90.00" y2="606" stroke="#333" stroke-width="1"/>
<text x="90.00" y="624" text-anchor="end" font-size="11" fill="#111" transform="rotate(-40 90.00,624)" font-family="sans-serif">2026-02-12</text>
<line x1="225.97" y1="600" x2="225.97" y2="606" stroke="#333" stroke-width="1"/>
<text x="225.97" y="624" text-anchor="end" font-size="11" fill="#111" transform="rotate(-40 225.97,624)" font-family="sans-serif">2026-02-18</text>
<line x1="361.93" y1="600" x2="361.93" y2="606" stroke="#333" stroke-width="1"/>
<text x="361.93" y="624" text-anchor="end" font-size="11" fill="#111" transform="rotate(-40 361.93,624)" font-family="sans-serif">2026-02-25</text>
<line x1="497.90" y1="600" x2="497.90" y2="606" stroke="#333" stroke-width="1"/>
<text x="497.90" y="624" text-anchor="end" font-size="11" fill="#111" transform="rotate(-40 497.90,624)" font-family="sans-serif">2026-02-28</text>
<line x1="633.87" y1="600" x2="633.87" y2="606" stroke="#333" stroke-width="1"/>
<text x="633.87" y="624" text-anchor="end" font-size="11" fill="#111" transform="rotate(-40 633.87,624)" font-family="sans-serif">2026-03-06</text>
<line x1="769.83" y1="600" x2="769.83" y2="606" stroke="#333" stroke-width="1"/>
<text x="769.83" y="624" text-anchor="end" font-size="11" fill="#111" transform="rotate(-40 769.83,624)" font-family="sans-serif">2026-03-08</text>
<line x1="905.80" y1="600" x2="905.80" y2="606" stroke="#333" stroke-width="1"/>
<text x="905.80" y="624" text-anchor="end" font-size="11" fill="#111" transform="rotate(-40 905.80,624)" font-family="sans-serif">2026-03-18</text>
<line x1="1041.77" y1="600" x2="1041.77" y2="606" stroke="#333" stroke-width="1"/>
<text x="1041.77" y="624" text-anchor="end" font-size="11" fill="#111" transform="rotate(-40 1041.77,624)" font-family="sans-serif">2026-03-20</text>
<line x1="1177.73" y1="600" x2="1177.73" y2="606" stroke="#333" stroke-width="1"/>
<text x="1177.73" y="624" text-anchor="end" font-size="11" fill="#111" transform="rotate(-40 1177.73,624)" font-family="sans-serif">2026-03-30</text>
<line x1="1180.00" y1="600" x2="1180.00" y2="606" stroke="#333" stroke-width="1"/>
<text x="1180.00" y="624" text-anchor="end" font-size="11" fill="#111" transform="rotate(-40 1180.00,624)" font-family="sans-serif">2026-03-30</text>
<line x1="90" y1="75.88" x2="1180" y2="75.88" stroke="#dc2626" stroke-width="1.5" stroke-dasharray="8,4"/>
<text x="1184" y="79.88" font-size="12" fill="#dc2626" font-family="sans-serif">Goal: 1296</text>
<polyline fill="none" stroke="#2563eb" stroke-width="3" points="90.00,540.55 92.27,538.53 94.53,536.91 96.80,534.49 99.06,534.49 101.33,533.27 103.60,532.46 105.86,532.87 108.13,532.06 110.40,532.46 112.66,532.06 114.93,568.46 117.19,568.46 119.46,566.43 121.73,545.00 123.99,545.00 126.26,544.19 128.52,543.79 130.79,543.79 133.06,543.38 135.32,541.76 137.59,541.36 139.85,540.96 142.12,540.96 144.39,539.34 146.65,539.34 148.92,556.73 151.19,556.73 153.45,555.51 155.72,551.07 157.98,538.93 160.25,538.93 162.52,538.93 164.78,538.12 167.05,536.91 169.31,536.91 171.58,536.51 173.85,536.51 176.11,556.73 178.38,556.73 180.64,556.73 182.91,556.73 185.18,535.29 187.44,535.29 189.71,535.29 191.98,535.29 194.24,534.49 196.51,534.08 198.77,533.68 201.04,532.87 203.31,532.06 205.57,532.06 207.84,531.25 210.10,530.85 212.37,530.44 214.64,530.04 216.90,530.04 219.17,529.23 221.43,529.23 223.70,529.23 225.97,528.42 228.23,528.42 230.50,527.61 232.77,527.21 235.03,526.80 237.30,526.40 239.56,525.18 241.83,523.57 244.10,523.57 246.36,523.16 248.63,522.76 250.89,522.35 253.16,521.54 255.43,519.52 257.69,517.50 259.96,517.50 262.22,517.50 264.49,517.50 266.76,517.50 269.02,517.50 271.29,517.10 273.56,516.69 275.82,515.48 278.09,515.07 280.35,514.67 282.62,513.86 284.89,514.26 287.15,512.24 289.42,511.84 291.68,511.84 293.95,511.03 296.22,509.82 298.48,507.79 300.75,506.99 303.01,506.58 305.28,509.41 307.55,509.01 309.81,504.96 312.08,504.56 314.35,504.15 316.61,504.56 318.88,503.75 321.14,503.75 323.41,503.35 325.68,499.30 327.94,496.47 330.21,490.00 332.47,484.34 334.74,481.10 337.01,480.29 339.27,480.70 341.54,460.88 343.80,459.26 346.07,458.05 348.34,456.03 350.60,456.03 352.87,454.41 355.14,450.77 357.40,444.30 359.67,443.90 361.93,600.00 364.20,441.88 366.47,440.66 368.73,439.45 371.00,439.04 373.26,438.64 375.53,437.83 377.80,436.62 380.06,436.62 382.33,434.60 384.59,432.17 386.86,429.34 389.13,428.93 391.39,428.53 393.66,427.72 395.93,426.91 398.19,426.10 400.46,426.10 402.72,426.10 404.99,419.63 407.26,419.23 409.52,418.42 411.79,418.01 414.05,417.61 416.32,417.61 418.59,417.61 420.85,417.21 423.12,417.21 425.38,413.57 427.65,411.95 429.92,412.76 432.18,410.74 434.45,410.74 436.72,410.33 438.98,410.33 441.25,410.33 443.51,409.93 445.78,409.93 448.05,409.93 450.31,409.52 452.58,409.52 454.84,409.12 457.11,409.52 459.38,409.12 461.64,407.50 463.91,407.10 466.17,403.05 468.44,399.82 470.71,400.22 472.97,400.62 475.24,400.62 477.51,399.41 479.77,392.94 482.04,391.32 484.30,389.30 486.57,389.30 488.84,388.49 491.10,375.15 493.37,374.74 495.63,374.74 497.90,374.74 500.17,374.74 502.43,374.34 504.70,374.34 506.96,374.34 509.23,374.34 511.50,374.34 513.76,373.93 516.03,373.12 518.30,372.72 520.56,373.53 522.83,435.81 525.09,372.32 527.36,372.72 529.63,371.91 531.89,371.91 534.16,372.32 536.42,371.10 538.69,369.89 540.96,369.89 543.22,369.89 545.49,369.49 547.75,369.89 550.02,369.08 552.29,368.68 554.55,368.27 556.82,367.87 559.09,367.06 561.35,367.46 563.62,367.06 565.88,366.25 568.15,368.27 570.42,368.68 572.68,368.68 574.95,368.27 577.21,369.08 579.48,367.87 581.75,367.46 584.01,367.06 586.28,360.18 588.54,359.78 590.81,359.38 593.08,356.95 595.34,357.35 597.61,357.76 599.88,355.33 602.14,355.74 604.41,357.35 606.67,355.33 608.94,356.14 611.21,355.74 613.47,356.14 615.74,354.12 618.00,354.93 620.27,356.14 622.54,354.52 624.80,353.71 627.07,354.12 629.33,354.93 631.60,352.90 633.87,353.71 636.13,353.31 638.40,353.31 640.67,354.52 642.93,352.90 645.20,352.50 647.46,352.50 649.73,353.31 652.00,352.50 654.26,353.71 656.53,354.12 658.79,352.50 661.06,352.90 663.33,352.50 665.59,352.10 667.86,351.69 670.12,352.10 672.39,354.12 674.66,352.50 676.92,352.10 679.19,352.10 681.46,349.67 683.72,349.67 685.99,350.88 688.25,351.29 690.52,350.48 692.79,352.10 695.05,350.48 697.32,350.48 699.58,350.48 701.85,350.07 704.12,348.46 706.38,351.29 708.65,349.67 710.91,351.29 713.18,349.67 715.45,348.86 717.71,348.46 719.98,348.46 722.25,347.24 724.51,348.86 726.78,346.84 729.04,348.46 731.31,348.86 733.58,346.84 735.84,349.26 738.11,348.05 740.37,349.26 742.64,349.26 744.91,350.48 747.17,352.90 749.44,349.67 751.70,348.46 753.97,345.62 756.24,344.82 758.50,344.41 760.77,342.39 763.04,341.18 765.30,341.58 767.57,339.15 769.83,338.35 772.10,337.54 774.37,336.73 776.63,335.92 778.90,337.54 781.16,338.35 783.43,337.54 785.70,337.54 787.96,337.54 790.23,333.09 792.49,333.90 794.76,335.92 797.03,336.73 799.29,335.51 801.56,332.28 803.83,331.47 806.09,331.07 808.36,331.47 810.62,331.07 812.89,331.07 815.16,331.07 817.42,331.07 819.69,331.07 821.95,331.07 824.22,331.07 826.49,331.07 828.75,331.07 831.02,331.07 833.28,331.47 835.55,331.88 837.82,331.07 840.08,331.47 842.35,331.07 844.62,331.47 846.88,331.07 849.15,324.19 851.41,324.19 853.68,318.93 855.95,316.51 858.21,310.44 860.48,308.01 862.74,600.00 865.01,301.54 867.28,290.22 869.54,287.79 871.81,286.18 874.07,285.77 876.34,285.77 878.61,285.77 880.87,286.18 883.14,285.77 885.41,285.77 887.67,285.77 889.94,283.35 892.20,282.94 894.47,282.94 896.74,283.35 899.00,282.94 901.27,282.94 903.53,283.75 905.80,282.13 908.07,282.13 910.33,282.54 912.60,282.13 914.86,282.54 917.13,282.94 919.40,281.73 921.66,282.54 923.93,281.73 926.20,282.54 928.46,282.13 930.73,282.13 932.99,281.73 935.26,281.73 937.53,281.32 939.79,281.73 942.06,282.13 944.32,281.32 946.59,281.32 948.86,282.54 951.12,282.13 953.39,281.32 955.65,281.32 957.92,281.32 960.19,282.54 962.45,282.13 964.72,281.32 966.99,282.13 969.25,281.73 971.52,282.13 973.78,280.11 976.05,280.11 978.32,280.51 980.58,279.71 982.85,280.11 985.11,280.51 987.38,279.71 989.65,280.11 991.91,280.11 994.18,279.30 996.44,278.90 998.71,278.90 1000.98,280.51 1003.24,279.30 1005.51,278.09 1007.78,278.49 1010.04,278.49 1012.31,277.28 1014.57,277.68 1016.84,277.68 1019.11,278.09 1021.37,277.28 1023.64,600.00 1025.90,278.90 1028.17,279.30 1030.44,278.90 1032.70,278.49 1034.97,278.49 1037.23,278.49 1039.50,278.49 1041.77,278.49 1044.03,278.49 1046.30,278.49 1048.57,278.49 1050.83,278.49 1053.10,278.49 1055.36,278.49 1057.63,278.49 1059.90,600.00 1062.16,600.00 1064.43,254.63 1066.69,600.00 1068.96,245.74 1071.23,245.74 1073.49,246.14 1075.76,245.74 1078.02,245.74 1080.29,245.74 1082.56,245.74 1084.82,245.74 1087.09,240.07 1089.36,238.05 1091.62,238.05 1093.89,227.13 1096.15,227.13 1098.42,226.32 1100.69,227.54 1102.95,226.73 1105.22,226.32 1107.48,227.13 1109.75,227.13 1112.02,226.73 1114.28,226.32 1116.55,226.73 1118.81,226.73 1121.08,226.73 1123.35,225.11 1125.61,224.71 1127.88,225.11 1130.15,224.30 1132.41,226.32 1134.68,224.30 1136.94,225.51 1139.21,225.51 1141.48,225.51 1143.74,225.92 1146.01,223.09 1148.27,223.49 1150.54,223.09 1152.81,223.09 1155.07,223.90 1157.34,223.49 1159.60,223.49 1161.87,223.09 1164.14,223.09 1166.40,223.49 1168.67,223.09 1170.94,223.09 1173.20,223.49 1175.47,223.49 1177.73,223.09 1180.00,223.09"/>
<circle cx="90.00" cy="540.55" r="3.2" fill="#1d4ed8"/>
<circle cx="92.27" cy="538.53" r="3.2" fill="#1d4ed8"/>
<circle cx="94.53" cy="536.91" r="3.2" fill="#1d4ed8"/>
<circle cx="96.80" cy="534.49" r="3.2" fill="#1d4ed8"/>
<circle cx="99.06" cy="534.49" r="3.2" fill="#1d4ed8"/>
<circle cx="101.33" cy="533.27" r="3.2" fill="#1d4ed8"/>
<circle cx="103.60" cy="532.46" r="3.2" fill="#1d4ed8"/>
<circle cx="105.86" cy="532.87" r="3.2" fill="#1d4ed8"/>
<circle cx="108.13" cy="532.06" r="3.2" fill="#1d4ed8"/>
<circle cx="110.40" cy="532.46" r="3.2" fill="#1d4ed8"/>
<circle cx="112.66" cy="532.06" r="3.2" fill="#1d4ed8"/>
<circle cx="114.93" cy="568.46" r="3.2" fill="#1d4ed8"/>
<circle cx="117.19" cy="568.46" r="3.2" fill="#1d4ed8"/>
<circle cx="119.46" cy="566.43" r="3.2" fill="#1d4ed8"/>
<circle cx="121.73" cy="545.00" r="3.2" fill="#1d4ed8"/>
<circle cx="123.99" cy="545.00" r="3.2" fill="#1d4ed8"/>
<circle cx="126.26" cy="544.19" r="3.2" fill="#1d4ed8"/>
<circle cx="128.52" cy="543.79" r="3.2" fill="#1d4ed8"/>
<circle cx="130.79" cy="543.79" r="3.2" fill="#1d4ed8"/>
<circle cx="133.06" cy="543.38" r="3.2" fill="#1d4ed8"/>
<circle cx="135.32" cy="541.76" r="3.2" fill="#1d4ed8"/>
<circle cx="137.59" cy="541.36" r="3.2" fill="#1d4ed8"/>
<circle cx="139.85" cy="540.96" r="3.2" fill="#1d4ed8"/>
<circle cx="142.12" cy="540.96" r="3.2" fill="#1d4ed8"/>
<circle cx="144.39" cy="539.34" r="3.2" fill="#1d4ed8"/>
<circle cx="146.65" cy="539.34" r="3.2" fill="#1d4ed8"/>
<circle cx="148.92" cy="556.73" r="3.2" fill="#1d4ed8"/>
<circle cx="151.19" cy="556.73" r="3.2" fill="#1d4ed8"/>
<circle cx="153.45" cy="555.51" r="3.2" fill="#1d4ed8"/>
<circle cx="155.72" cy="551.07" r="3.2" fill="#1d4ed8"/>
<circle cx="157.98" cy="538.93" r="3.2" fill="#1d4ed8"/>
<circle cx="160.25" cy="538.93" r="3.2" fill="#1d4ed8"/>
<circle cx="162.52" cy="538.93" r="3.2" fill="#1d4ed8"/>
<circle cx="164.78" cy="538.12" r="3.2" fill="#1d4ed8"/>
<circle cx="167.05" cy="536.91" r="3.2" fill="#1d4ed8"/>
<circle cx="169.31" cy="536.91" r="3.2" fill="#1d4ed8"/>
<circle cx="171.58" cy="536.51" r="3.2" fill="#1d4ed8"/>
<circle cx="173.85" cy="536.51" r="3.2" fill="#1d4ed8"/>
<circle cx="176.11" cy="556.73" r="3.2" fill="#1d4ed8"/>
<circle cx="178.38" cy="556.73" r="3.2" fill="#1d4ed8"/>
<circle cx="180.64" cy="556.73" r="3.2" fill="#1d4ed8"/>
<circle cx="182.91" cy="556.73" r="3.2" fill="#1d4ed8"/>
<circle cx="185.18" cy="535.29" r="3.2" fill="#1d4ed8"/>
<circle cx="187.44" cy="535.29" r="3.2" fill="#1d4ed8"/>
<circle cx="189.71" cy="535.29" r="3.2" fill="#1d4ed8"/>
<circle cx="191.98" cy="535.29" r="3.2" fill="#1d4ed8"/>
<circle cx="194.24" cy="534.49" r="3.2" fill="#1d4ed8"/>
<circle cx="196.51" cy="534.08" r="3.2" fill="#1d4ed8"/>
<circle cx="198.77" cy="533.68" r="3.2" fill="#1d4ed8"/>
<circle cx="201.04" cy="532.87" r="3.2" fill="#1d4ed8"/>
<circle cx="203.31" cy="532.06" r="3.2" fill="#1d4ed8"/>
<circle cx="205.57" cy="532.06" r="3.2" fill="#1d4ed8"/>
<circle cx="207.84" cy="531.25" r="3.2" fill="#1d4ed8"/>
<circle cx="210.10" cy="530.85" r="3.2" fill="#1d4ed8"/>
<circle cx="212.37" cy="530.44" r="3.2" fill="#1d4ed8"/>
<circle cx="214.64" cy="530.04" r="3.2" fill="#1d4ed8"/>
<circle cx="216.90" cy="530.04" r="3.2" fill="#1d4ed8"/>
<circle cx="219.17" cy="529.23" r="3.2" fill="#1d4ed8"/>
<circle cx="221.43" cy="529.23" r="3.2" fill="#1d4ed8"/>
<circle cx="223.70" cy="529.23" r="3.2" fill="#1d4ed8"/>
<circle cx="225.97" cy="528.42" r="3.2" fill="#1d4ed8"/>
<circle cx="228.23" cy="528.42" r="3.2" fill="#1d4ed8"/>
<circle cx="230.50" cy="527.61" r="3.2" fill="#1d4ed8"/>
<circle cx="232.77" cy="527.21" r="3.2" fill="#1d4ed8"/>
<circle cx="235.03" cy="526.80" r="3.2" fill="#1d4ed8"/>
<circle cx="237.30" cy="526.40" r="3.2" fill="#1d4ed8"/>
<circle cx="239.56" cy="525.18" r="3.2" fill="#1d4ed8"/>
<circle cx="241.83" cy="523.57" r="3.2" fill="#1d4ed8"/>
<circle cx="244.10" cy="523.57" r="3.2" fill="#1d4ed8"/>
<circle cx="246.36" cy="523.16" r="3.2" fill="#1d4ed8"/>
<circle cx="248.63" cy="522.76" r="3.2" fill="#1d4ed8"/>
<circle cx="250.89" cy="522.35" r="3.2" fill="#1d4ed8"/>
<circle cx="253.16" cy="521.54" r="3.2" fill="#1d4ed8"/>
<circle cx="255.43" cy="519.52" r="3.2" fill="#1d4ed8"/>
<circle cx="257.69" cy="517.50" r="3.2" fill="#1d4ed8"/>
<circle cx="259.96" cy="517.50" r="3.2" fill="#1d4ed8"/>
<circle cx="262.22" cy="517.50" r="3.2" fill="#1d4ed8"/>
<circle cx="264.49" cy="517.50" r="3.2" fill="#1d4ed8"/>
<circle cx="266.76" cy="517.50" r="3.2" fill="#1d4ed8"/>
<circle cx="269.02" cy="517.50" r="3.2" fill="#1d4ed8"/>
<circle cx="271.29" cy="517.10" r="3.2" fill="#1d4ed8"/>
<circle cx="273.56" cy="516.69" r="3.2" fill="#1d4ed8"/>
<circle cx="275.82" cy="515.48" r="3.2" fill="#1d4ed8"/>
<circle cx="278.09" cy="515.07" r="3.2" fill="#1d4ed8"/>
<circle cx="280.35" cy="514.67" r="3.2" fill="#1d4ed8"/>
<circle cx="282.62" cy="513.86" r="3.2" fill="#1d4ed8"/>
<circle cx="284.89" cy="514.26" r="3.2" fill="#1d4ed8"/>
<circle cx="287.15" cy="512.24" r="3.2" fill="#1d4ed8"/>
<circle cx="289.42" cy="511.84" r="3.2" fill="#1d4ed8"/>
<circle cx="291.68" cy="511.84" r="3.2" fill="#1d4ed8"/>
<circle cx="293.95" cy="511.03" r="3.2" fill="#1d4ed8"/>
<circle cx="296.22" cy="509.82" r="3.2" fill="#1d4ed8"/>
<circle cx="298.48" cy="507.79" r="3.2" fill="#1d4ed8"/>
<circle cx="300.75" cy="506.99" r="3.2" fill="#1d4ed8"/>
<circle cx="303.01" cy="506.58" r="3.2" fill="#1d4ed8"/>
<circle cx="305.28" cy="509.41" r="3.2" fill="#1d4ed8"/>
<circle cx="307.55" cy="509.01" r="3.2" fill="#1d4ed8"/>
<circle cx="309.81" cy="504.96" r="3.2" fill="#1d4ed8"/>
<circle cx="312.08" cy="504.56" r="3.2" fill="#1d4ed8"/>
<circle cx="314.35" cy="504.15" r="3.2" fill="#1d4ed8"/>
<circle cx="316.61" cy="504.56" r="3.2" fill="#1d4ed8"/>
<circle cx="318.88" cy="503.75" r="3.2" fill="#1d4ed8"/>
<circle cx="321.14" cy="503.75" r="3.2" fill="#1d4ed8"/>
<circle cx="323.41" cy="503.35" r="3.2" fill="#1d4ed8"/>
<circle cx="325.68" cy="499.30" r="3.2" fill="#1d4ed8"/>
<circle cx="327.94" cy="496.47" r="3.2" fill="#1d4ed8"/>
<circle cx="330.21" cy="490.00" r="3.2" fill="#1d4ed8"/>
<circle cx="332.47" cy="484.34" r="3.2" fill="#1d4ed8"/>
<circle cx="334.74" cy="481.10" r="3.2" fill="#1d4ed8"/>
<circle cx="337.01" cy="480.29" r="3.2" fill="#1d4ed8"/>
<circle cx="339.27" cy="480.70" r="3.2" fill="#1d4ed8"/>
<circle cx="341.54" cy="460.88" r="3.2" fill="#1d4ed8"/>
<circle cx="343.80" cy="459.26" r="3.2" fill="#1d4ed8"/>
<circle cx="346.07" cy="458.05" r="3.2" fill="#1d4ed8"/>
<circle cx="348.34" cy="456.03" r="3.2" fill="#1d4ed8"/>
<circle cx="350.60" cy="456.03" r="3.2" fill="#1d4ed8"/>
<circle cx="352.87" cy="454.41" r="3.2" fill="#1d4ed8"/>
<circle cx="355.14" cy="450.77" r="3.2" fill="#1d4ed8"/>
<circle cx="357.40" cy="444.30" r="3.2" fill="#1d4ed8"/>
<circle cx="359.67" cy="443.90" r="3.2" fill="#1d4ed8"/>
<circle cx="361.93" cy="600.00" r="3.2" fill="#1d4ed8"/>
<circle cx="364.20" cy="441.88" r="3.2" fill="#1d4ed8"/>
<circle cx="366.47" cy="440.66" r="3.2" fill="#1d4ed8"/>
<circle cx="368.73" cy="439.45" r="3.2" fill="#1d4ed8"/>
<circle cx="371.00" cy="439.04" r="3.2" fill="#1d4ed8"/>
<circle cx="373.26" cy="438.64" r="3.2" fill="#1d4ed8"/>
<circle cx="375.53" cy="437.83" r="3.2" fill="#1d4ed8"/>
<circle cx="377.80" cy="436.62" r="3.2" fill="#1d4ed8"/>
<circle cx="380.06" cy="436.62" r="3.2" fill="#1d4ed8"/>
<circle cx="382.33" cy="434.60" r="3.2" fill="#1d4ed8"/>
<circle cx="384.59" cy="432.17" r="3.2" fill="#1d4ed8"/>
<circle cx="386.86" cy="429.34" r="3.2" fill="#1d4ed8"/>
<circle cx="389.13" cy="428.93" r="3.2" fill="#1d4ed8"/>
<circle cx="391.39" cy="428.53" r="3.2" fill="#1d4ed8"/>
<circle cx="393.66" cy="427.72" r="3.2" fill="#1d4ed8"/>
<circle cx="395.93" cy="426.91" r="3.2" fill="#1d4ed8"/>
<circle cx="398.19" cy="426.10" r="3.2" fill="#1d4ed8"/>
<circle cx="400.46" cy="426.10" r="3.2" fill="#1d4ed8"/>
<circle cx="402.72" cy="426.10" r="3.2" fill="#1d4ed8"/>
<circle cx="404.99" cy="419.63" r="3.2" fill="#1d4ed8"/>
<circle cx="407.26" cy="419.23" r="3.2" fill="#1d4ed8"/>
<circle cx="409.52" cy="418.42" r="3.2" fill="#1d4ed8"/>
<circle cx="411.79" cy="418.01" r="3.2" fill="#1d4ed8"/>
<circle cx="414.05" cy="417.61" r="3.2" fill="#1d4ed8"/>
<circle cx="416.32" cy="417.61" r="3.2" fill="#1d4ed8"/>
<circle cx="418.59" cy="417.61" r="3.2" fill="#1d4ed8"/>
<circle cx="420.85" cy="417.21" r="3.2" fill="#1d4ed8"/>
<circle cx="423.12" cy="417.21" r="3.2" fill="#1d4ed8"/>
<circle cx="425.38" cy="413.57" r="3.2" fill="#1d4ed8"/>
<circle cx="427.65" cy="411.95" r="3.2" fill="#1d4ed8"/>
<circle cx="429.92" cy="412.76" r="3.2" fill="#1d4ed8"/>
<circle cx="432.18" cy="410.74" r="3.2" fill="#1d4ed8"/>
<circle cx="434.45" cy="410.74" r="3.2" fill="#1d4ed8"/>
<circle cx="436.72" cy="410.33" r="3.2" fill="#1d4ed8"/>
<circle cx="438.98" cy="410.33" r="3.2" fill="#1d4ed8"/>
<circle cx="441.25" cy="410.33" r="3.2" fill="#1d4ed8"/>
<circle cx="443.51" cy="409.93" r="3.2" fill="#1d4ed8"/>
<circle cx="445.78" cy="409.93" r="3.2" fill="#1d4ed8"/>
<circle cx="448.05" cy="409.93" r="3.2" fill="#1d4ed8"/>
<circle cx="450.31" cy="409.52" r="3.2" fill="#1d4ed8"/>
<circle cx="452.58" cy="409.52" r="3.2" fill="#1d4ed8"/>
<circle cx="454.84" cy="409.12" r="3.2" fill="#1d4ed8"/>
<circle cx="457.11" cy="409.52" r="3.2" fill="#1d4ed8"/>
<circle cx="459.38" cy="409.12" r="3.2" fill="#1d4ed8"/>
<circle cx="461.64" cy="407.50" r="3.2" fill="#1d4ed8"/>
<circle cx="463.91" cy="407.10" r="3.2" fill="#1d4ed8"/>
<circle cx="466.17" cy="403.05" r="3.2" fill="#1d4ed8"/>
<circle cx="468.44" cy="399.82" r="3.2" fill="#1d4ed8"/>
<circle cx="470.71" cy="400.22" r="3.2" fill="#1d4ed8"/>
<circle cx="472.97" cy="400.62" r="3.2" fill="#1d4ed8"/>
<circle cx="475.24" cy="400.62" r="3.2" fill="#1d4ed8"/>
<circle cx="477.51" cy="399.41" r="3.2" fill="#1d4ed8"/>
<circle cx="479.77" cy="392.94" r="3.2" fill="#1d4ed8"/>
<circle cx="482.04" cy="391.32" r="3.2" fill="#1d4ed8"/>
<circle cx="484.30" cy="389.30" r="3.2" fill="#1d4ed8"/>
<circle cx="486.57" cy="389.30" r="3.2" fill="#1d4ed8"/>
<circle cx="488.84" cy="388.49" r="3.2" fill="#1d4ed8"/>
<circle cx="491.10" cy="375.15" r="3.2" fill="#1d4ed8"/>
<circle cx="493.37" cy="374.74" r="3.2" fill="#1d4ed8"/>
<circle cx="495.63" cy="374.74" r="3.2" fill="#1d4ed8"/>
<circle cx="497.90" cy="374.74" r="3.2" fill="#1d4ed8"/>
<circle cx="500.17" cy="374.74" r="3.2" fill="#1d4ed8"/>
<circle cx="502.43" cy="374.34" r="3.2" fill="#1d4ed8"/>
<circle cx="504.70" cy="374.34" r="3.2" fill="#1d4ed8"/>
<circle cx="506.96" cy="374.34" r="3.2" fill="#1d4ed8"/>
<circle cx="509.23" cy="374.34" r="3.2" fill="#1d4ed8"/>
<circle cx="511.50" cy="374.34" r="3.2" fill="#1d4ed8"/>
<circle cx="513.76" cy="373.93" r="3.2" fill="#1d4ed8"/>
<circle cx="516.03" cy="373.12" r="3.2" fill="#1d4ed8"/>
<circle cx="518.30" cy="372.72" r="3.2" fill="#1d4ed8"/>
<circle cx="520.56" cy="373.53" r="3.2" fill="#1d4ed8"/>
<circle cx="522.83" cy="435.81" r="3.2" fill="#1d4ed8"/>
<circle cx="525.09" cy="372.32" r="3.2" fill="#1d4ed8"/>
<circle cx="527.36" cy="372.72" r="3.2" fill="#1d4ed8"/>
<circle cx="529.63" cy="371.91" r="3.2" fill="#1d4ed8"/>
<circle cx="531.89" cy="371.91" r="3.2" fill="#1d4ed8"/>
<circle cx="534.16" cy="372.32" r="3.2" fill="#1d4ed8"/>
<circle cx="536.42" cy="371.10" r="3.2" fill="#1d4ed8"/>
<circle cx="538.69" cy="369.89" r="3.2" fill="#1d4ed8"/>
<circle cx="540.96" cy="369.89" r="3.2" fill="#1d4ed8"/>
<circle cx="543.22" cy="369.89" r="3.2" fill="#1d4ed8"/>
<circle cx="545.49" cy="369.49" r="3.2" fill="#1d4ed8"/>
<circle cx="547.75" cy="369.89" r="3.2" fill="#1d4ed8"/>
<circle cx="550.02" cy="369.08" r="3.2" fill="#1d4ed8"/>
<circle cx="552.29" cy="368.68" r="3.2" fill="#1d4ed8"/>
<circle cx="554.55" cy="368.27" r="3.2" fill="#1d4ed8"/>
<circle cx="556.82" cy="367.87" r="3.2" fill="#1d4ed8"/>
<circle cx="559.09" cy="367.06" r="3.2" fill="#1d4ed8"/>
<circle cx="561.35" cy="367.46" r="3.2" fill="#1d4ed8"/>
<circle cx="563.62" cy="367.06" r="3.2" fill="#1d4ed8"/>
<circle cx="565.88" cy="366.25" r="3.2" fill="#1d4ed8"/>
<circle cx="568.15" cy="368.27" r="3.2" fill="#1d4ed8"/>
<circle cx="570.42" cy="368.68" r="3.2" fill="#1d4ed8"/>
<circle cx="572.68" cy="368.68" r="3.2" fill="#1d4ed8"/>
<circle cx="574.95" cy="368.27" r="3.2" fill="#1d4ed8"/>
<circle cx="577.21" cy="369.08" r="3.2" fill="#1d4ed8"/>
<circle cx="579.48" cy="367.87" r="3.2" fill="#1d4ed8"/>
<circle cx="581.75" cy="367.46" r="3.2" fill="#1d4ed8"/>
<circle cx="584.01" cy="367.06" r="3.2" fill="#1d4ed8"/>
<circle cx="586.28" cy="360.18" r="3.2" fill="#1d4ed8"/>
<circle cx="588.54" cy="359.78" r="3.2" fill="#1d4ed8"/>
<circle cx="590.81" cy="359.38" r="3.2" fill="#1d4ed8"/>
<circle cx="593.08" cy="356.95" r="3.2" fill="#1d4ed8"/>
<circle cx="595.34" cy="357.35" r="3.2" fill="#1d4ed8"/>
<circle cx="597.61" cy="357.76" r="3.2" fill="#1d4ed8"/>
<circle cx="599.88" cy="355.33" r="3.2" fill="#1d4ed8"/>
<circle cx="602.14" cy="355.74" r="3.2" fill="#1d4ed8"/>
<circle cx="604.41" cy="357.35" r="3.2" fill="#1d4ed8"/>
<circle cx="606.67" cy="355.33" r="3.2" fill="#1d4ed8"/>
<circle cx="608.94" cy="356.14" r="3.2" fill="#1d4ed8"/>
<circle cx="611.21" cy="355.74" r="3.2" fill="#1d4ed8"/>
<circle cx="613.47" cy="356.14" r="3.2" fill="#1d4ed8"/>
<circle cx="615.74" cy="354.12" r="3.2" fill="#1d4ed8"/>
<circle cx="618.00" cy="354.93" r="3.2" fill="#1d4ed8"/>
<circle cx="620.27" cy="356.14" r="3.2" fill="#1d4ed8"/>
<circle cx="622.54" cy="354.52" r="3.2" fill="#1d4ed8"/>
<circle cx="624.80" cy="353.71" r="3.2" fill="#1d4ed8"/>
<circle cx="627.07" cy="354.12" r="3.2" fill="#1d4ed8"/>
<circle cx="629.33" cy="354.93" r="3.2" fill="#1d4ed8"/>
<circle cx="631.60" cy="352.90" r="3.2" fill="#1d4ed8"/>
<circle cx="633.87" cy="353.71" r="3.2" fill="#1d4ed8"/>
<circle cx="636.13" cy="353.31" r="3.2" fill="#1d4ed8"/>
<circle cx="638.40" cy="353.31" r="3.2" fill="#1d4ed8"/>
<circle cx="640.67" cy="354.52" r="3.2" fill="#1d4ed8"/>
<circle cx="642.93" cy="352.90" r="3.2" fill="#1d4ed8"/>
<circle cx="645.20" cy="352.50" r="3.2" fill="#1d4ed8"/>
<circle cx="647.46" cy="352.50" r="3.2" fill="#1d4ed8"/>
<circle cx="649.73" cy="353.31" r="3.2" fill="#1d4ed8"/>
<circle cx="652.00" cy="352.50" r="3.2" fill="#1d4ed8"/>
<circle cx="654.26" cy="353.71" r="3.2" fill="#1d4ed8"/>
<circle cx="656.53" cy="354.12" r="3.2" fill="#1d4ed8"/>
<circle cx="658.79" cy="352.50" r="3.2" fill="#1d4ed8"/>
<circle cx="661.06" cy="352.90" r="3.2" fill="#1d4ed8"/>
<circle cx="663.33" cy="352.50" r="3.2" fill="#1d4ed8"/>
<circle cx="665.59" cy="352.10" r="3.2" fill="#1d4ed8"/>
<circle cx="667.86" cy="351.69" r="3.2" fill="#1d4ed8"/>
<circle cx="670.12" cy="352.10" r="3.2" fill="#1d4ed8"/>
<circle cx="672.39" cy="354.12" r="3.2" fill="#1d4ed8"/>
<circle cx="674.66" cy="352.50" r="3.2" fill="#1d4ed8"/>
<circle cx="676.92" cy="352.10" r="3.2" fill="#1d4ed8"/>
<circle cx="679.19" cy="352.10" r="3.2" fill="#1d4ed8"/>
<circle cx="681.46" cy="349.67" r="3.2" fill="#1d4ed8"/>
<circle cx="683.72" cy="349.67" r="3.2" fill="#1d4ed8"/>
<circle cx="685.99" cy="350.88" r="3.2" fill="#1d4ed8"/>
<circle cx="688.25" cy="351.29" r="3.2" fill="#1d4ed8"/>
<circle cx="690.52" cy="350.48" r="3.2" fill="#1d4ed8"/>
<circle cx="692.79" cy="352.10" r="3.2" fill="#1d4ed8"/>
<circle cx="695.05" cy="350.48" r="3.2" fill="#1d4ed8"/>
<circle cx="697.32" cy="350.48" r="3.2" fill="#1d4ed8"/>
<circle cx="699.58" cy="350.48" r="3.2" fill="#1d4ed8"/>
<circle cx="701.85" cy="350.07" r="3.2" fill="#1d4ed8"/>
<circle cx="704.12" cy="348.46" r="3.2" fill="#1d4ed8"/>
<circle cx="706.38" cy="351.29" r="3.2" fill="#1d4ed8"/>
<circle cx="708.65" cy="349.67" r="3.2" fill="#1d4ed8"/>
<circle cx="710.91" cy="351.29" r="3.2" fill="#1d4ed8"/>
<circle cx="713.18" cy="349.67" r="3.2" fill="#1d4ed8"/>
<circle cx="715.45" cy="348.86" r="3.2" fill="#1d4ed8"/>
<circle cx="717.71" cy="348.46" r="3.2" fill="#1d4ed8"/>
<circle cx="719.98" cy="348.46" r="3.2" fill="#1d4ed8"/>
<circle cx="722.25" cy="347.24" r="3.2" fill="#1d4ed8"/>
<circle cx="724.51" cy="348.86" r="3.2" fill="#1d4ed8"/>
<circle cx="726.78" cy="346.84" r="3.2" fill="#1d4ed8"/>
<circle cx="729.04" cy="348.46" r="3.2" fill="#1d4ed8"/>
<circle cx="731.31" cy="348.86" r="3.2" fill="#1d4ed8"/>
<circle cx="733.58" cy="346.84" r="3.2" fill="#1d4ed8"/>
<circle cx="735.84" cy="349.26" r="3.2" fill="#1d4ed8"/>
<circle cx="738.11" cy="348.05" r="3.2" fill="#1d4ed8"/>
<circle cx="740.37" cy="349.26" r="3.2" fill="#1d4ed8"/>
<circle cx="742.64" cy="349.26" r="3.2" fill="#1d4ed8"/>
<circle cx="744.91" cy="350.48" r="3.2" fill="#1d4ed8"/>
<circle cx="747.17" cy="352.90" r="3.2" fill="#1d4ed8"/>
<circle cx="749.44" cy="349.67" r="3.2" fill="#1d4ed8"/>
<circle cx="751.70" cy="348.46" r="3.2" fill="#1d4ed8"/>
<circle cx="753.97" cy="345.62" r="3.2" fill="#1d4ed8"/>
<circle cx="756.24" cy="344.82" r="3.2" fill="#1d4ed8"/>
<circle cx="758.50" cy="344.41" r="3.2" fill="#1d4ed8"/>
<circle cx="760.77" cy="342.39" r="3.2" fill="#1d4ed8"/>
<circle cx="763.04" cy="341.18" r="3.2" fill="#1d4ed8"/>
<circle cx="765.30" cy="341.58" r="3.2" fill="#1d4ed8"/>
<circle cx="767.57" cy="339.15" r="3.2" fill="#1d4ed8"/>
<circle cx="769.83" cy="338.35" r="3.2" fill="#1d4ed8"/>
<circle cx="772.10" cy="337.54" r="3.2" fill="#1d4ed8"/>
<circle cx="774.37" cy="336.73" r="3.2" fill="#1d4ed8"/>
<circle cx="776.63" cy="335.92" r="3.2" fill="#1d4ed8"/>
<circle cx="778.90" cy="337.54" r="3.2" fill="#1d4ed8"/>
<circle cx="781.16" cy="338.35" r="3.2" fill="#1d4ed8"/>
<circle cx="783.43" cy="337.54" r="3.2" fill="#1d4ed8"/>
<circle cx="785.70" cy="337.54" r="3.2" fill="#1d4ed8"/>
<circle cx="787.96" cy="337.54" r="3.2" fill="#1d4ed8"/>
<circle cx="790.23" cy="333.09" r="3.2" fill="#1d4ed8"/>
<circle cx="792.49" cy="333.90" r="3.2" fill="#1d4ed8"/>
<circle cx="794.76" cy="335.92" r="3.2" fill="#1d4ed8"/>
<circle cx="797.03" cy="336.73" r="3.2" fill="#1d4ed8"/>
<circle cx="799.29" cy="335.51" r="3.2" fill="#1d4ed8"/>
<circle cx="801.56" cy="332.28" r="3.2" fill="#1d4ed8"/>
<circle cx="803.83" cy="331.47" r="3.2" fill="#1d4ed8"/>
<circle cx="806.09" cy="331.07" r="3.2" fill="#1d4ed8"/>
<circle cx="808.36" cy="331.47" r="3.2" fill="#1d4ed8"/>
<circle cx="810.62" cy="331.07" r="3.2" fill="#1d4ed8"/>
<circle cx="812.89" cy="331.07" r="3.2" fill="#1d4ed8"/>
<circle cx="815.16" cy="331.07" r="3.2" fill="#1d4ed8"/>
<circle cx="817.42" cy="331.07" r="3.2" fill="#1d4ed8"/>
<circle cx="819.69" cy="331.07" r="3.2" fill="#1d4ed8"/>
<circle cx="821.95" cy="331.07" r="3.2" fill="#1d4ed8"/>
<circle cx="824.22" cy="331.07" r="3.2" fill="#1d4ed8"/>
<circle cx="826.49" cy="331.07" r="3.2" fill="#1d4ed8"/>
<circle cx="828.75" cy="331.07" r="3.2" fill="#1d4ed8"/>
<circle cx="831.02" cy="331.07" r="3.2" fill="#1d4ed8"/>
<circle cx="833.28" cy="331.47" r="3.2" fill="#1d4ed8"/>
<circle cx="835.55" cy="331.88" r="3.2" fill="#1d4ed8"/>
<circle cx="837.82" cy="331.07" r="3.2" fill="#1d4ed8"/>
<circle cx="840.08" cy="331.47" r="3.2" fill="#1d4ed8"/>
<circle cx="842.35" cy="331.07" r="3.2" fill="#1d4ed8"/>
<circle cx="844.62" cy="331.47" r="3.2" fill="#1d4ed8"/>
<circle cx="846.88" cy="331.07" r="3.2" fill="#1d4ed8"/>
<circle cx="849.15" cy="324.19" r="3.2" fill="#1d4ed8"/>
<circle cx="851.41" cy="324.19" r="3.2" fill="#1d4ed8"/>
<circle cx="853.68" cy="318.93" r="3.2" fill="#1d4ed8"/>
<circle cx="855.95" cy="316.51" r="3.2" fill="#1d4ed8"/>
<circle cx="858.21" cy="310.44" r="3.2" fill="#1d4ed8"/>
<circle cx="860.48" cy="308.01" r="3.2" fill="#1d4ed8"/>
<circle cx="862.74" cy="600.00" r="3.2" fill="#1d4ed8"/>
<circle cx="865.01" cy="301.54" r="3.2" fill="#1d4ed8"/>
<circle cx="867.28" cy="290.22" r="3.2" fill="#1d4ed8"/>
<circle cx="869.54" cy="287.79" r="3.2" fill="#1d4ed8"/>
<circle cx="871.81" cy="286.18" r="3.2" fill="#1d4ed8"/>
<circle cx="874.07" cy="285.77" r="3.2" fill="#1d4ed8"/>
<circle cx="876.34" cy="285.77" r="3.2" fill="#1d4ed8"/>
<circle cx="878.61" cy="285.77" r="3.2" fill="#1d4ed8"/>
<circle cx="880.87" cy="286.18" r="3.2" fill="#1d4ed8"/>
<circle cx="883.14" cy="285.77" r="3.2" fill="#1d4ed8"/>
<circle cx="885.41" cy="285.77" r="3.2" fill="#1d4ed8"/>
<circle cx="887.67" cy="285.77" r="3.2" fill="#1d4ed8"/>
<circle cx="889.94" cy="283.35" r="3.2" fill="#1d4ed8"/>
<circle cx="892.20" cy="282.94" r="3.2" fill="#1d4ed8"/>
<circle cx="894.47" cy="282.94" r="3.2" fill="#1d4ed8"/>
<circle cx="896.74" cy="283.35" r="3.2" fill="#1d4ed8"/>
<circle cx="899.00" cy="282.94" r="3.2" fill="#1d4ed8"/>
<circle cx="901.27" cy="282.94" r="3.2" fill="#1d4ed8"/>
<circle cx="903.53" cy="283.75" r="3.2" fill="#1d4ed8"/>
<circle cx="905.80" cy="282.13" r="3.2" fill="#1d4ed8"/>
<circle cx="908.07" cy="282.13" r="3.2" fill="#1d4ed8"/>
<circle cx="910.33" cy="282.54" r="3.2" fill="#1d4ed8"/>
<circle cx="912.60" cy="282.13" r="3.2" fill="#1d4ed8"/>
<circle cx="914.86" cy="282.54" r="3.2" fill="#1d4ed8"/>
<circle cx="917.13" cy="282.94" r="3.2" fill="#1d4ed8"/>
<circle cx="919.40" cy="281.73" r="3.2" fill="#1d4ed8"/>
<circle cx="921.66" cy="282.54" r="3.2" fill="#1d4ed8"/>
<circle cx="923.93" cy="281.73" r="3.2" fill="#1d4ed8"/>
<circle cx="926.20" cy="282.54" r="3.2" fill="#1d4ed8"/>
<circle cx="928.46" cy="282.13" r="3.2" fill="#1d4ed8"/>
<circle cx="930.73" cy="282.13" r="3.2" fill="#1d4ed8"/>
<circle cx="932.99" cy="281.73" r="3.2" fill="#1d4ed8"/>
<circle cx="935.26" cy="281.73" r="3.2" fill="#1d4ed8"/>
<circle cx="937.53" cy="281.32" r="3.2" fill="#1d4ed8"/>
<circle cx="939.79" cy="281.73" r="3.2" fill="#1d4ed8"/>
<circle cx="942.06" cy="282.13" r="3.2" fill="#1d4ed8"/>
<circle cx="944.32" cy="281.32" r="3.2" fill="#1d4ed8"/>
<circle cx="946.59" cy="281.32" r="3.2" fill="#1d4ed8"/>
<circle cx="948.86" cy="282.54" r="3.2" fill="#1d4ed8"/>
<circle cx="951.12" cy="282.13" r="3.2" fill="#1d4ed8"/>
<circle cx="953.39" cy="281.32" r="3.2" fill="#1d4ed8"/>
<circle cx="955.65" cy="281.32" r="3.2" fill="#1d4ed8"/>
<circle cx="957.92" cy="281.32" r="3.2" fill="#1d4ed8"/>
<circle cx="960.19" cy="282.54" r="3.2" fill="#1d4ed8"/>
<circle cx="962.45" cy="282.13" r="3.2" fill="#1d4ed8"/>
<circle cx="964.72" cy="281.32" r="3.2" fill="#1d4ed8"/>
<circle cx="966.99" cy="282.13" r="3.2" fill="#1d4ed8"/>
<circle cx="969.25" cy="281.73" r="3.2" fill="#1d4ed8"/>
<circle cx="971.52" cy="282.13" r="3.2" fill="#1d4ed8"/>
<circle cx="973.78" cy="280.11" r="3.2" fill="#1d4ed8"/>
<circle cx="976.05" cy="280.11" r="3.2" fill="#1d4ed8"/>
<circle cx="978.32" cy="280.51" r="3.2" fill="#1d4ed8"/>
<circle cx="980.58" cy="279.71" r="3.2" fill="#1d4ed8"/>
<circle cx="982.85" cy="280.11" r="3.2" fill="#1d4ed8"/>
<circle cx="985.11" cy="280.51" r="3.2" fill="#1d4ed8"/>
<circle cx="987.38" cy="279.71" r="3.2" fill="#1d4ed8"/>
<circle cx="989.65" cy="280.11" r="3.2" fill="#1d4ed8"/>
<circle cx="991.91" cy="280.11" r="3.2" fill="#1d4ed8"/>
<circle cx="994.18" cy="279.30" r="3.2" fill="#1d4ed8"/>
<circle cx="996.44" cy="278.90" r="3.2" fill="#1d4ed8"/>
<circle cx="998.71" cy="278.90" r="3.2" fill="#1d4ed8"/>
<circle cx="1000.98" cy="280.51" r="3.2" fill="#1d4ed8"/>
<circle cx="1003.24" cy="279.30" r="3.2" fill="#1d4ed8"/>
<circle cx="1005.51" cy="278.09" r="3.2" fill="#1d4ed8"/>
<circle cx="1007.78" cy="278.49" r="3.2" fill="#1d4ed8"/>
<circle cx="1010.04" cy="278.49" r="3.2" fill="#1d4ed8"/>
<circle cx="1012.31" cy="277.28" r="3.2" fill="#1d4ed8"/>
<circle cx="1014.57" cy="277.68" r="3.2" fill="#1d4ed8"/>
<circle cx="1016.84" cy="277.68" r="3.2" fill="#1d4ed8"/>
<circle cx="1019.11" cy="278.09" r="3.2" fill="#1d4ed8"/>
<circle cx="1021.37" cy="277.28" r="3.2" fill="#1d4ed8"/>
<circle cx="1023.64" cy="600.00" r="3.2" fill="#1d4ed8"/>
<circle cx="1025.90" cy="278.90" r="3.2" fill="#1d4ed8"/>
<circle cx="1028.17" cy="279.30" r="3.2" fill="#1d4ed8"/>
<circle cx="1030.44" cy="278.90" r="3.2" fill="#1d4ed8"/>
<circle cx="1032.70" cy="278.49" r="3.2" fill="#1d4ed8"/>
<circle cx="1034.97" cy="278.49" r="3.2" fill="#1d4ed8"/>
<circle cx="1037.23" cy="278.49" r="3.2" fill="#1d4ed8"/>
<circle cx="1039.50" cy="278.49" r="3.2" fill="#1d4ed8"/>
<circle cx="1041.77" cy="278.49" r="3.2" fill="#1d4ed8"/>
<circle cx="1044.03" cy="278.49" r="3.2" fill="#1d4ed8"/>
<circle cx="1046.30" cy="278.49" r="3.2" fill="#1d4ed8"/>
<circle cx="1048.57" cy="278.49" r="3.2" fill="#1d4ed8"/>
<circle cx="1050.83" cy="278.49" r="3.2" fill="#1d4ed8"/>
<circle cx="1053.10" cy="278.49" r="3.2" fill="#1d4ed8"/>
<circle cx="1055.36" cy="278.49" r="3.2" fill="#1d4ed8"/>
<circle cx="1057.63" cy="278.49" r="3.2" fill="#1d4ed8"/>
<circle cx="1059.90" cy="600.00" r="3.2" fill="#1d4ed8"/>
<circle cx="1062.16" cy="600.00" r="3.2" fill="#1d4ed8"/>
<circle cx="1064.43" cy="254.63" r="3.2" fill="#1d4ed8"/>
<circle cx="1066.69" cy="600.00" r="3.2" fill="#1d4ed8"/>
<circle cx="1068.96" cy="245.74" r="3.2" fill="#1d4ed8"/>
<circle cx="1071.23" cy="245.74" r="3.2" fill="#1d4ed8"/>
<circle cx="1073.49" cy="246.14" r="3.2" fill="#1d4ed8"/>
<circle cx="1075.76" cy="245.74" r="3.2" fill="#1d4ed8"/>
<circle cx="1078.02" cy="245.74" r="3.2" fill="#1d4ed8"/>
<circle cx="1080.29" cy="245.74" r="3.2" fill="#1d4ed8"/>
<circle cx="1082.56" cy="245.74" r="3.2" fill="#1d4ed8"/>
<circle cx="1084.82" cy="245.74" r="3.2" fill="#1d4ed8"/>
<circle cx="1087.09" cy="240.07" r="3.2" fill="#1d4ed8"/>
<circle cx="1089.36" cy="238.05" r="3.2" fill="#1d4ed8"/>
<circle cx="1091.62" cy="238.05" r="3.2" fill="#1d4ed8"/>
<circle cx="1093.89" cy="227.13" r="3.2" fill="#1d4ed8"/>
<circle cx="1096.15" cy="227.13" r="3.2" fill="#1d4ed8"/>
<circle cx="1098.42" cy="226.32" r="3.2" fill="#1d4ed8"/>
<circle cx="1100.69" cy="227.54" r="3.2" fill="#1d4ed8"/>
<circle cx="1102.95" cy="226.73" r="3.2" fill="#1d4ed8"/>
<circle cx="1105.22" cy="226.32" r="3.2" fill="#1d4ed8"/>
<circle cx="1107.48" cy="227.13" r="3.2" fill="#1d4ed8"/>
<circle cx="1109.75" cy="227.13" r="3.2" fill="#1d4ed8"/>
<circle cx="1112.02" cy="226.73" r="3.2" fill="#1d4ed8"/>
<circle cx="1114.28" cy="226.32" r="3.2" fill="#1d4ed8"/>
<circle cx="1116.55" cy="226.73" r="3.2" fill="#1d4ed8"/>
<circle cx="1118.81" cy="226.73" r="3.2" fill="#1d4ed8"/>
<circle cx="1121.08" cy="226.73" r="3.2" fill="#1d4ed8"/>
<circle cx="1123.35" cy="225.11" r="3.2" fill="#1d4ed8"/>
<circle cx="1125.61" cy="224.71" r="3.2" fill="#1d4ed8"/>
<circle cx="1127.88" cy="225.11" r="3.2" fill="#1d4ed8"/>
<circle cx="1130.15" cy="224.30" r="3.2" fill="#1d4ed8"/>
<circle cx="1132.41" cy="226.32" r="3.2" fill="#1d4ed8"/>
<circle cx="1134.68" cy="224.30" r="3.2" fill="#1d4ed8"/>
<circle cx="1136.94" cy="225.51" r="3.2" fill="#1d4ed8"/>
<circle cx="1139.21" cy="225.51" r="3.2" fill="#1d4ed8"/>
<circle cx="1141.48" cy="225.51" r="3.2" fill="#1d4ed8"/>
<circle cx="1143.74" cy="225.92" r="3.2" fill="#1d4ed8"/>
<circle cx="1146.01" cy="223.09" r="3.2" fill="#1d4ed8"/>
<circle cx="1148.27" cy="223.49" r="3.2" fill="#1d4ed8"/>
<circle cx="1150.54" cy="223.09" r="3.2" fill="#1d4ed8"/>
<circle cx="1152.81" cy="223.09" r="3.2" fill="#1d4ed8"/>
<circle cx="1155.07" cy="223.90" r="3.2" fill="#1d4ed8"/>
<circle cx="1157.34" cy="223.49" r="3.2" fill="#1d4ed8"/>
<circle cx="1159.60" cy="223.49" r="3.2" fill="#1d4ed8"/>
<circle cx="1161.87" cy="223.09" r="3.2" fill="#1d4ed8"/>
<circle cx="1164.14" cy="223.09" r="3.2" fill="#1d4ed8"/>
<circle cx="1166.40" cy="223.49" r="3.2" fill="#1d4ed8"/>
<circle cx="1168.67" cy="223.09" r="3.2" fill="#1d4ed8"/>
<circle cx="1170.94" cy="223.09" r="3.2" fill="#1d4ed8"/>
<circle cx="1173.20" cy="223.49" r="3.2" fill="#1d4ed8"/>
<circle cx="1175.47" cy="223.49" r="3.2" fill="#1d4ed8"/>
<circle cx="1177.73" cy="223.09" r="3.2" fill="#1d4ed8"/>
<circle cx="1180.00" cy="223.09" r="3.2" fill="#1d4ed8"/>
<text x="635" y="695" text-anchor="middle" font-size="14" fill="#111" font-family="sans-serif">Date</text>
<text x="24" y="325" text-anchor="middle" font-size="14" fill="#111" transform="rotate(-90 24,325)" font-family="sans-serif">Passed files</text>
</svg>
