<?xml version="1.0" encoding="UTF-8"?>
<svg xmlns="http://www.w3.org/2000/svg" width="1280" height="720" viewBox="0 0 1280 720">
<rect width="100%" height="100%" fill="#ffffff"/>
<text x="640" y="30" text-anchor="middle" font-size="22" font-family="sans-serif">Roast passed files history</text>
<line x1="90" y1="600" x2="1180" y2="600" stroke="#333" stroke-width="1.5"/>
<line x1="90" y1="50" x2="90" y2="600" stroke="#333" stroke-width="1.5"/>
<line x1="90" y1="600.00" x2="1180" y2="600.00" stroke="#e5e7eb" stroke-width="1"/>
<text x="78" y="605.00" text-anchor="end" font-size="12" fill="#111" font-family="sans-serif">0</text>
<line x1="90" y1="398.09" x2="1180" y2="398.09" stroke="#e5e7eb" stroke-width="1"/>
<text x="78" y="403.09" text-anchor="end" font-size="12" fill="#111" font-family="sans-serif">500</text>
<line x1="90" y1="196.18" x2="1180" y2="196.18" stroke="#e5e7eb" stroke-width="1"/>
<text x="78" y="201.18" text-anchor="end" font-size="12" fill="#111" font-family="sans-serif">1000</text>
<line x1="90.00" y1="600" x2="90.00" y2="606" stroke="#333" stroke-width="1"/>
<text x="90.00" y="624" text-anchor="end" font-size="11" fill="#111" transform="rotate(-40 90.00,624)" font-family="sans-serif">2026-02-12</text>
<line x1="222.12" y1="600" x2="222.12" y2="606" stroke="#333" stroke-width="1"/>
<text x="222.12" y="624" text-anchor="end" font-size="11" fill="#111" transform="rotate(-40 222.12,624)" font-family="sans-serif">2026-02-14</text>
<line x1="354.24" y1="600" x2="354.24" y2="606" stroke="#333" stroke-width="1"/>
<text x="354.24" y="624" text-anchor="end" font-size="11" fill="#111" transform="rotate(-40 354.24,624)" font-family="sans-serif">2026-02-15</text>
<line x1="486.36" y1="600" x2="486.36" y2="606" stroke="#333" stroke-width="1"/>
<text x="486.36" y="624" text-anchor="end" font-size="11" fill="#111" transform="rotate(-40 486.36,624)" font-family="sans-serif">2026-02-16</text>
<line x1="618.48" y1="600" x2="618.48" y2="606" stroke="#333" stroke-width="1"/>
<text x="618.48" y="624" text-anchor="end" font-size="11" fill="#111" transform="rotate(-40 618.48,624)" font-family="sans-serif">2026-02-17</text>
<line x1="750.61" y1="600" x2="750.61" y2="606" stroke="#333" stroke-width="1"/>
<text x="750.61" y="624" text-anchor="end" font-size="11" fill="#111" transform="rotate(-40 750.61,624)" font-family="sans-serif">2026-02-17</text>
<line x1="882.73" y1="600" x2="882.73" y2="606" stroke="#333" stroke-width="1"/>
<text x="882.73" y="624" text-anchor="end" font-size="11" fill="#111" transform="rotate(-40 882.73,624)" font-family="sans-serif">2026-02-17</text>
<line x1="1014.85" y1="600" x2="1014.85" y2="606" stroke="#333" stroke-width="1"/>
<text x="1014.85" y="624" text-anchor="end" font-size="11" fill="#111" transform="rotate(-40 1014.85,624)" font-family="sans-serif">2026-02-18</text>
<line x1="1146.97" y1="600" x2="1146.97" y2="606" stroke="#333" stroke-width="1"/>
<text x="1146.97" y="624" text-anchor="end" font-size="11" fill="#111" transform="rotate(-40 1146.97,624)" font-family="sans-serif">2026-02-19</text>
<line x1="1180.00" y1="600" x2="1180.00" y2="606" stroke="#333" stroke-width="1"/>
<text x="1180.00" y="624" text-anchor="end" font-size="11" fill="#111" transform="rotate(-40 1180.00,624)" font-family="sans-serif">2026-02-19</text>
<line x1="90" y1="75.84" x2="1180" y2="75.84" stroke="#dc2626" stroke-width="1.5" stroke-dasharray="8,4"/>
<text x="1184" y="79.84" font-size="12" fill="#dc2626" font-family="sans-serif">Goal: 1298</text>
<polyline fill="none" stroke="#2563eb" stroke-width="3" points="90.00,540.64 106.52,538.62 123.03,537.00 139.55,534.58 156.06,534.58 172.58,533.37 189.09,532.56 205.61,532.97 222.12,532.16 238.64,532.56 255.15,532.16 271.67,568.50 288.18,568.50 304.70,566.48 321.21,545.08 337.73,545.08 354.24,544.27 370.76,543.87 387.27,543.87 403.79,543.47 420.30,541.85 436.82,541.45 453.33,541.04 469.85,541.04 486.36,539.43 502.88,539.43 519.39,556.79 535.91,556.79 552.42,555.58 568.94,551.14 585.45,539.02 601.97,539.02 618.48,539.02 635.00,538.22 651.52,537.00 668.03,537.00 684.55,536.60 701.06,536.60 717.58,556.79 734.09,556.79 750.61,556.79 767.12,556.79 783.64,535.39 800.15,535.39 816.67,535.39 833.18,535.39 849.70,534.58 866.21,534.18 882.73,533.77 899.24,532.97 915.76,532.16 932.27,532.16 948.79,531.35 965.30,530.95 981.82,530.54 998.33,530.14 1014.85,530.14 1031.36,529.33 1047.88,529.33 1064.39,529.33 1080.91,528.52 1097.42,528.52 1113.94,527.72 1130.45,527.31 1146.97,526.91 1163.48,526.51 1180.00,525.29"/>
<circle cx="90.00" cy="540.64" r="3.2" fill="#1d4ed8"/>
<circle cx="106.52" cy="538.62" r="3.2" fill="#1d4ed8"/>
<circle cx="123.03" cy="537.00" r="3.2" fill="#1d4ed8"/>
<circle cx="139.55" cy="534.58" r="3.2" fill="#1d4ed8"/>
<circle cx="156.06" cy="534.58" r="3.2" fill="#1d4ed8"/>
<circle cx="172.58" cy="533.37" r="3.2" fill="#1d4ed8"/>
<circle cx="189.09" cy="532.56" r="3.2" fill="#1d4ed8"/>
<circle cx="205.61" cy="532.97" r="3.2" fill="#1d4ed8"/>
<circle cx="222.12" cy="532.16" r="3.2" fill="#1d4ed8"/>
<circle cx="238.64" cy="532.56" r="3.2" fill="#1d4ed8"/>
<circle cx="255.15" cy="532.16" r="3.2" fill="#1d4ed8"/>
<circle cx="271.67" cy="568.50" r="3.2" fill="#1d4ed8"/>
<circle cx="288.18" cy="568.50" r="3.2" fill="#1d4ed8"/>
<circle cx="304.70" cy="566.48" r="3.2" fill="#1d4ed8"/>
<circle cx="321.21" cy="545.08" r="3.2" fill="#1d4ed8"/>
<circle cx="337.73" cy="545.08" r="3.2" fill="#1d4ed8"/>
<circle cx="354.24" cy="544.27" r="3.2" fill="#1d4ed8"/>
<circle cx="370.76" cy="543.87" r="3.2" fill="#1d4ed8"/>
<circle cx="387.27" cy="543.87" r="3.2" fill="#1d4ed8"/>
<circle cx="403.79" cy="543.47" r="3.2" fill="#1d4ed8"/>
<circle cx="420.30" cy="541.85" r="3.2" fill="#1d4ed8"/>
<circle cx="436.82" cy="541.45" r="3.2" fill="#1d4ed8"/>
<circle cx="453.33" cy="541.04" r="3.2" fill="#1d4ed8"/>
<circle cx="469.85" cy="541.04" r="3.2" fill="#1d4ed8"/>
<circle cx="486.36" cy="539.43" r="3.2" fill="#1d4ed8"/>
<circle cx="502.88" cy="539.43" r="3.2" fill="#1d4ed8"/>
<circle cx="519.39" cy="556.79" r="3.2" fill="#1d4ed8"/>
<circle cx="535.91" cy="556.79" r="3.2" fill="#1d4ed8"/>
<circle cx="552.42" cy="555.58" r="3.2" fill="#1d4ed8"/>
<circle cx="568.94" cy="551.14" r="3.2" fill="#1d4ed8"/>
<circle cx="585.45" cy="539.02" r="3.2" fill="#1d4ed8"/>
<circle cx="601.97" cy="539.02" r="3.2" fill="#1d4ed8"/>
<circle cx="618.48" cy="539.02" r="3.2" fill="#1d4ed8"/>
<circle cx="635.00" cy="538.22" r="3.2" fill="#1d4ed8"/>
<circle cx="651.52" cy="537.00" r="3.2" fill="#1d4ed8"/>
<circle cx="668.03" cy="537.00" r="3.2" fill="#1d4ed8"/>
<circle cx="684.55" cy="536.60" r="3.2" fill="#1d4ed8"/>
<circle cx="701.06" cy="536.60" r="3.2" fill="#1d4ed8"/>
<circle cx="717.58" cy="556.79" r="3.2" fill="#1d4ed8"/>
<circle cx="734.09" cy="556.79" r="3.2" fill="#1d4ed8"/>
<circle cx="750.61" cy="556.79" r="3.2" fill="#1d4ed8"/>
<circle cx="767.12" cy="556.79" r="3.2" fill="#1d4ed8"/>
<circle cx="783.64" cy="535.39" r="3.2" fill="#1d4ed8"/>
<circle cx="800.15" cy="535.39" r="3.2" fill="#1d4ed8"/>
<circle cx="816.67" cy="535.39" r="3.2" fill="#1d4ed8"/>
<circle cx="833.18" cy="535.39" r="3.2" fill="#1d4ed8"/>
<circle cx="849.70" cy="534.58" r="3.2" fill="#1d4ed8"/>
<circle cx="866.21" cy="534.18" r="3.2" fill="#1d4ed8"/>
<circle cx="882.73" cy="533.77" r="3.2" fill="#1d4ed8"/>
<circle cx="899.24" cy="532.97" r="3.2" fill="#1d4ed8"/>
<circle cx="915.76" cy="532.16" r="3.2" fill="#1d4ed8"/>
<circle cx="932.27" cy="532.16" r="3.2" fill="#1d4ed8"/>
<circle cx="948.79" cy="531.35" r="3.2" fill="#1d4ed8"/>
<circle cx="965.30" cy="530.95" r="3.2" fill="#1d4ed8"/>
<circle cx="981.82" cy="530.54" r="3.2" fill="#1d4ed8"/>
<circle cx="998.33" cy="530.14" r="3.2" fill="#1d4ed8"/>
<circle cx="1014.85" cy="530.14" r="3.2" fill="#1d4ed8"/>
<circle cx="1031.36" cy="529.33" r="3.2" fill="#1d4ed8"/>
<circle cx="1047.88" cy="529.33" r="3.2" fill="#1d4ed8"/>
<circle cx="1064.39" cy="529.33" r="3.2" fill="#1d4ed8"/>
<circle cx="1080.91" cy="528.52" r="3.2" fill="#1d4ed8"/>
<circle cx="1097.42" cy="528.52" r="3.2" fill="#1d4ed8"/>
<circle cx="1113.94" cy="527.72" r="3.2" fill="#1d4ed8"/>
<circle cx="1130.45" cy="527.31" r="3.2" fill="#1d4ed8"/>
<circle cx="1146.97" cy="526.91" r="3.2" fill="#1d4ed8"/>
<circle cx="1163.48" cy="526.51" r="3.2" fill="#1d4ed8"/>
<circle cx="1180.00" cy="525.29" r="3.2" fill="#1d4ed8"/>
<text x="635" y="695" text-anchor="middle" font-size="14" fill="#111" font-family="sans-serif">Date</text>
<text x="24" y="325" text-anchor="middle" font-size="14" fill="#111" transform="rotate(-90 24,325)" font-family="sans-serif">Passed files</text>
</svg>
