<?xml version="1.0" encoding="UTF-8"?>
<svg xmlns="http://www.w3.org/2000/svg" width="1280" height="720" viewBox="0 0 1280 720">
<rect width="100%" height="100%" fill="#ffffff"/>
<text x="640" y="30" text-anchor="middle" font-size="22" font-family="sans-serif">Roast passed files history</text>
<line x1="90" y1="600" x2="1180" y2="600" stroke="#333" stroke-width="1.5"/>
<line x1="90" y1="50" x2="90" y2="600" stroke="#333" stroke-width="1.5"/>
<line x1="90" y1="600.00" x2="1180" y2="600.00" stroke="#e5e7eb" stroke-width="1"/>
<text x="78" y="605.00" text-anchor="end" font-size="12" fill="#111" font-family="sans-serif">0</text>
<line x1="90" y1="397.79" x2="1180" y2="397.79" stroke="#e5e7eb" stroke-width="1"/>
<text x="78" y="402.79" text-anchor="end" font-size="12" fill="#111" font-family="sans-serif">500</text>
<line x1="90" y1="195.59" x2="1180" y2="195.59" stroke="#e5e7eb" stroke-width="1"/>
<text x="78" y="200.59" text-anchor="end" font-size="12" fill="#111" font-family="sans-serif">1000</text>
<line x1="90.00" y1="600" x2="90.00" y2="606" stroke="#333" stroke-width="1"/>
<text x="90.00" y="624" text-anchor="end" font-size="11" fill="#111" transform="rotate(-40 90.00,624)" font-family="sans-serif">2026-02-12</text>
<line x1="226.51" y1="600" x2="226.51" y2="606" stroke="#333" stroke-width="1"/>
<text x="226.51" y="624" text-anchor="end" font-size="11" fill="#111" transform="rotate(-40 226.51,624)" font-family="sans-serif">2026-02-19</text>
<line x1="363.03" y1="600" x2="363.03" y2="606" stroke="#333" stroke-width="1"/>
<text x="363.03" y="624" text-anchor="end" font-size="11" fill="#111" transform="rotate(-40 363.03,624)" font-family="sans-serif">2026-02-25</text>
<line x1="499.54" y1="600" x2="499.54" y2="606" stroke="#333" stroke-width="1"/>
<text x="499.54" y="624" text-anchor="end" font-size="11" fill="#111" transform="rotate(-40 499.54,624)" font-family="sans-serif">2026-02-28</text>
<line x1="636.05" y1="600" x2="636.05" y2="606" stroke="#333" stroke-width="1"/>
<text x="636.05" y="624" text-anchor="end" font-size="11" fill="#111" transform="rotate(-40 636.05,624)" font-family="sans-serif">2026-03-06</text>
<line x1="772.56" y1="600" x2="772.56" y2="606" stroke="#333" stroke-width="1"/>
<text x="772.56" y="624" text-anchor="end" font-size="11" fill="#111" transform="rotate(-40 772.56,624)" font-family="sans-serif">2026-03-11</text>
<line x1="909.08" y1="600" x2="909.08" y2="606" stroke="#333" stroke-width="1"/>
<text x="909.08" y="624" text-anchor="end" font-size="11" fill="#111" transform="rotate(-40 909.08,624)" font-family="sans-serif">2026-03-19</text>
<line x1="1045.59" y1="600" x2="1045.59" y2="606" stroke="#333" stroke-width="1"/>
<text x="1045.59" y="624" text-anchor="end" font-size="11" fill="#111" transform="rotate(-40 1045.59,624)" font-family="sans-serif">2026-03-29</text>
<line x1="1180.00" y1="600" x2="1180.00" y2="606" stroke="#333" stroke-width="1"/>
<text x="1180.00" y="624" text-anchor="end" font-size="11" fill="#111" transform="rotate(-40 1180.00,624)" font-family="sans-serif">2026-06-12</text>
<line x1="90" y1="75.88" x2="1180" y2="75.88" stroke="#dc2626" stroke-width="1.5" stroke-dasharray="8,4"/>
<text x="1184" y="79.88" font-size="12" fill="#dc2626" font-family="sans-serif">Goal: 1296</text>
<polyline fill="none" stroke="#2563eb" stroke-width="3" points="90.00,540.55 92.10,538.53 94.20,536.91 96.30,534.49 98.40,534.49 100.50,533.27 102.60,532.46 104.70,532.87 106.80,532.06 108.90,532.46 111.00,532.06 113.10,568.46 115.20,568.46 117.30,566.43 119.40,545.00 121.50,545.00 123.60,544.19 125.70,543.79 127.80,543.79 129.90,543.38 132.00,541.76 134.10,541.36 136.20,540.96 138.30,540.96 140.40,539.34 142.50,539.34 144.61,556.73 146.71,556.73 148.81,555.51 150.91,551.07 153.01,538.93 155.11,538.93 157.21,538.93 159.31,538.12 161.41,536.91 163.51,536.91 165.61,536.51 167.71,536.51 169.81,556.73 171.91,556.73 174.01,556.73 176.11,556.73 178.21,535.29 180.31,535.29 182.41,535.29 184.51,535.29 186.61,534.49 188.71,534.08 190.81,533.68 192.91,532.87 195.01,532.06 197.11,532.06 199.21,531.25 201.31,530.85 203.41,530.44 205.51,530.04 207.61,530.04 209.71,529.23 211.81,529.23 213.91,529.23 216.01,528.42 218.11,528.42 220.21,527.61 222.31,527.21 224.41,526.80 226.51,526.40 228.61,525.18 230.71,523.57 232.81,523.57 234.91,523.16 237.01,522.76 239.11,522.35 241.21,521.54 243.31,519.52 245.41,517.50 247.51,517.50 249.61,517.50 251.71,517.50 253.82,517.50 255.92,517.50 258.02,517.10 260.12,516.69 262.22,515.48 264.32,515.07 266.42,514.67 268.52,513.86 270.62,514.26 272.72,512.24 274.82,511.84 276.92,511.84 279.02,511.03 281.12,509.82 283.22,507.79 285.32,506.99 287.42,506.58 289.52,509.41 291.62,509.01 293.72,504.96 295.82,504.56 297.92,504.15 300.02,504.56 302.12,503.75 304.22,503.75 306.32,503.35 308.42,499.30 310.52,496.47 312.62,490.00 314.72,484.34 316.82,481.10 318.92,480.29 321.02,480.70 323.12,460.88 325.22,459.26 327.32,458.05 329.42,456.03 331.52,456.03 333.62,454.41 335.72,450.77 337.82,444.30 339.92,443.90 342.02,600.00 344.12,441.88 346.22,440.66 348.32,439.45 350.42,439.04 352.52,438.64 354.62,437.83 356.72,436.62 358.82,436.62 360.92,434.60 363.03,432.17 365.13,429.34 367.23,428.93 369.33,428.53 371.43,427.72 373.53,426.91 375.63,426.10 377.73,426.10 379.83,426.10 381.93,419.63 384.03,419.23 386.13,418.42 388.23,418.01 390.33,417.61 392.43,417.61 394.53,417.61 396.63,417.21 398.73,417.21 400.83,413.57 402.93,411.95 405.03,412.76 407.13,410.74 409.23,410.74 411.33,410.33 413.43,410.33 415.53,410.33 417.63,409.93 419.73,409.93 421.83,409.93 423.93,409.52 426.03,409.52 428.13,409.12 430.23,409.52 432.33,409.12 434.43,407.50 436.53,407.10 438.63,403.05 440.73,399.82 442.83,400.22 444.93,400.62 447.03,400.62 449.13,399.41 451.23,392.94 453.33,391.32 455.43,389.30 457.53,389.30 459.63,388.49 461.73,375.15 463.83,374.74 465.93,374.74 468.03,374.74 470.13,374.74 472.24,374.34 474.34,374.34 476.44,374.34 478.54,374.34 480.64,374.34 482.74,373.93 484.84,373.12 486.94,372.72 489.04,373.53 491.14,435.81 493.24,372.32 495.34,372.72 497.44,371.91 499.54,371.91 501.64,372.32 503.74,371.10 505.84,369.89 507.94,369.89 510.04,369.89 512.14,369.49 514.24,369.89 516.34,369.08 518.44,368.68 520.54,368.27 522.64,367.87 524.74,367.06 526.84,367.46 528.94,367.06 531.04,366.25 533.14,368.27 535.24,368.68 537.34,368.68 539.44,368.27 541.54,369.08 543.64,367.87 545.74,367.46 547.84,367.06 549.94,360.18 552.04,359.78 554.14,359.38 556.24,356.95 558.34,357.35 560.44,357.76 562.54,355.33 564.64,355.74 566.74,357.35 568.84,355.33 570.94,356.14 573.04,355.74 575.14,356.14 577.24,354.12 579.34,354.93 581.45,356.14 583.55,354.52 585.65,353.71 587.75,354.12 589.85,354.93 591.95,352.90 594.05,353.71 596.15,353.31 598.25,353.31 600.35,354.52 602.45,352.90 604.55,352.50 606.65,352.50 608.75,353.31 610.85,352.50 612.95,353.71 615.05,354.12 617.15,352.50 619.25,352.90 621.35,352.50 623.45,352.10 625.55,351.69 627.65,352.10 629.75,354.12 631.85,352.50 633.95,352.10 636.05,352.10 638.15,349.67 640.25,349.67 642.35,350.88 644.45,351.29 646.55,350.48 648.65,352.10 650.75,350.48 652.85,350.48 654.95,350.48 657.05,350.07 659.15,348.46 661.25,351.29 663.35,349.67 665.45,351.29 667.55,349.67 669.65,348.86 671.75,348.46 673.85,348.46 675.95,347.24 678.05,348.86 680.15,346.84 682.25,348.46 684.35,348.86 686.45,346.84 688.55,349.26 690.66,348.05 692.76,349.26 694.86,349.26 696.96,350.48 699.06,352.90 701.16,349.67 703.26,348.46 705.36,345.62 707.46,344.82 709.56,344.41 711.66,342.39 713.76,341.18 715.86,341.58 717.96,339.15 720.06,338.35 722.16,337.54 724.26,336.73 726.36,335.92 728.46,337.54 730.56,338.35 732.66,337.54 734.76,337.54 736.86,337.54 738.96,333.09 741.06,333.90 743.16,335.92 745.26,336.73 747.36,335.51 749.46,332.28 751.56,331.47 753.66,331.07 755.76,331.47 757.86,331.07 759.96,331.07 762.06,331.07 764.16,331.07 766.26,331.07 768.36,331.07 770.46,331.07 772.56,331.07 774.66,331.07 776.76,331.07 778.86,331.47 780.96,331.88 783.06,331.07 785.16,331.47 787.26,331.07 789.36,331.47 791.46,331.07 793.56,324.19 795.66,324.19 797.76,318.93 799.87,316.51 801.97,310.44 804.07,308.01 806.17,600.00 808.27,301.54 810.37,290.22 812.47,287.79 814.57,286.18 816.67,285.77 818.77,285.77 820.87,285.77 822.97,286.18 825.07,285.77 827.17,285.77 829.27,285.77 831.37,283.35 833.47,282.94 835.57,282.94 837.67,283.35 839.77,282.94 841.87,282.94 843.97,283.75 846.07,282.13 848.17,282.13 850.27,282.54 852.37,282.13 854.47,282.54 856.57,282.94 858.67,281.73 860.77,282.54 862.87,281.73 864.97,282.54 867.07,282.13 869.17,282.13 871.27,281.73 873.37,281.73 875.47,281.32 877.57,281.73 879.67,282.13 881.77,281.32 883.87,281.32 885.97,282.54 888.07,282.13 890.17,281.32 892.27,281.32 894.37,281.32 896.47,282.54 898.57,282.13 900.67,281.32 902.77,282.13 904.87,281.73 906.97,282.13 909.08,280.11 911.18,280.11 913.28,280.51 915.38,279.71 917.48,280.11 919.58,280.51 921.68,279.71 923.78,280.11 925.88,280.11 927.98,279.30 930.08,278.90 932.18,278.90 934.28,280.51 936.38,279.30 938.48,278.09 940.58,278.49 942.68,278.49 944.78,277.28 946.88,277.68 948.98,277.68 951.08,278.09 953.18,277.28 955.28,600.00 957.38,278.90 959.48,279.30 961.58,278.90 963.68,278.49 965.78,278.49 967.88,278.49 969.98,278.49 972.08,278.49 974.18,278.49 976.28,278.49 978.38,278.49 980.48,278.49 982.58,278.49 984.68,278.49 986.78,278.49 988.88,600.00 990.98,600.00 993.08,254.63 995.18,600.00 997.28,245.74 999.38,245.74 1001.48,246.14 1003.58,245.74 1005.68,245.74 1007.78,245.74 1009.88,245.74 1011.98,245.74 1014.08,240.07 1016.18,238.05 1018.29,238.05 1020.39,227.13 1022.49,227.13 1024.59,226.32 1026.69,227.54 1028.79,226.73 1030.89,226.32 1032.99,227.13 1035.09,227.13 1037.19,226.73 1039.29,226.32 1041.39,226.73 1043.49,226.73 1045.59,226.73 1047.69,225.11 1049.79,224.71 1051.89,225.11 1053.99,224.30 1056.09,226.32 1058.19,224.30 1060.29,225.51 1062.39,225.51 1064.49,225.51 1066.59,225.92 1068.69,223.09 1070.79,223.49 1072.89,223.09 1074.99,223.09 1077.09,223.90 1079.19,223.49 1081.29,223.49 1083.39,223.09 1085.49,223.09 1087.59,223.49 1089.69,223.09 1091.79,223.09 1093.89,223.49 1095.99,223.49 1098.09,223.09 1100.19,223.09 1102.29,223.49 1104.39,223.09 1106.49,223.09 1108.59,223.09 1110.69,223.49 1112.79,223.49 1114.89,223.49 1116.99,223.09 1119.09,223.49 1121.19,223.09 1123.29,223.09 1125.39,223.49 1127.50,223.09 1129.60,223.09 1131.70,223.49 1133.80,222.68 1135.90,221.88 1138.00,223.49 1140.10,223.09 1142.20,223.49 1144.30,224.30 1146.40,201.65 1148.50,201.65 1150.60,186.69 1152.70,176.18 1154.80,174.15 1156.90,172.94 1159.00,172.94 1161.10,162.02 1163.20,161.21 1165.30,148.27 1167.40,155.96 1169.50,139.78 1171.60,135.33 1173.70,147.06 1175.80,131.29 1177.90,119.56 1180.00,114.71"/>
<circle cx="90.00" cy="540.55" r="3.2" fill="#1d4ed8"/>
<circle cx="92.10" cy="538.53" r="3.2" fill="#1d4ed8"/>
<circle cx="94.20" cy="536.91" r="3.2" fill="#1d4ed8"/>
<circle cx="96.30" cy="534.49" r="3.2" fill="#1d4ed8"/>
<circle cx="98.40" cy="534.49" r="3.2" fill="#1d4ed8"/>
<circle cx="100.50" cy="533.27" r="3.2" fill="#1d4ed8"/>
<circle cx="102.60" cy="532.46" r="3.2" fill="#1d4ed8"/>
<circle cx="104.70" cy="532.87" r="3.2" fill="#1d4ed8"/>
<circle cx="106.80" cy="532.06" r="3.2" fill="#1d4ed8"/>
<circle cx="108.90" cy="532.46" r="3.2" fill="#1d4ed8"/>
<circle cx="111.00" cy="532.06" r="3.2" fill="#1d4ed8"/>
<circle cx="113.10" cy="568.46" r="3.2" fill="#1d4ed8"/>
<circle cx="115.20" cy="568.46" r="3.2" fill="#1d4ed8"/>
<circle cx="117.30" cy="566.43" r="3.2" fill="#1d4ed8"/>
<circle cx="119.40" cy="545.00" r="3.2" fill="#1d4ed8"/>
<circle cx="121.50" cy="545.00" r="3.2" fill="#1d4ed8"/>
<circle cx="123.60" cy="544.19" r="3.2" fill="#1d4ed8"/>
<circle cx="125.70" cy="543.79" r="3.2" fill="#1d4ed8"/>
<circle cx="127.80" cy="543.79" r="3.2" fill="#1d4ed8"/>
<circle cx="129.90" cy="543.38" r="3.2" fill="#1d4ed8"/>
<circle cx="132.00" cy="541.76" r="3.2" fill="#1d4ed8"/>
<circle cx="134.10" cy="541.36" r="3.2" fill="#1d4ed8"/>
<circle cx="136.20" cy="540.96" r="3.2" fill="#1d4ed8"/>
<circle cx="138.30" cy="540.96" r="3.2" fill="#1d4ed8"/>
<circle cx="140.40" cy="539.34" r="3.2" fill="#1d4ed8"/>
<circle cx="142.50" cy="539.34" r="3.2" fill="#1d4ed8"/>
<circle cx="144.61" cy="556.73" r="3.2" fill="#1d4ed8"/>
<circle cx="146.71" cy="556.73" r="3.2" fill="#1d4ed8"/>
<circle cx="148.81" cy="555.51" r="3.2" fill="#1d4ed8"/>
<circle cx="150.91" cy="551.07" r="3.2" fill="#1d4ed8"/>
<circle cx="153.01" cy="538.93" r="3.2" fill="#1d4ed8"/>
<circle cx="155.11" cy="538.93" r="3.2" fill="#1d4ed8"/>
<circle cx="157.21" cy="538.93" r="3.2" fill="#1d4ed8"/>
<circle cx="159.31" cy="538.12" r="3.2" fill="#1d4ed8"/>
<circle cx="161.41" cy="536.91" r="3.2" fill="#1d4ed8"/>
<circle cx="163.51" cy="536.91" r="3.2" fill="#1d4ed8"/>
<circle cx="165.61" cy="536.51" r="3.2" fill="#1d4ed8"/>
<circle cx="167.71" cy="536.51" r="3.2" fill="#1d4ed8"/>
<circle cx="169.81" cy="556.73" r="3.2" fill="#1d4ed8"/>
<circle cx="171.91" cy="556.73" r="3.2" fill="#1d4ed8"/>
<circle cx="174.01" cy="556.73" r="3.2" fill="#1d4ed8"/>
<circle cx="176.11" cy="556.73" r="3.2" fill="#1d4ed8"/>
<circle cx="178.21" cy="535.29" r="3.2" fill="#1d4ed8"/>
<circle cx="180.31" cy="535.29" r="3.2" fill="#1d4ed8"/>
<circle cx="182.41" cy="535.29" r="3.2" fill="#1d4ed8"/>
<circle cx="184.51" cy="535.29" r="3.2" fill="#1d4ed8"/>
<circle cx="186.61" cy="534.49" r="3.2" fill="#1d4ed8"/>
<circle cx="188.71" cy="534.08" r="3.2" fill="#1d4ed8"/>
<circle cx="190.81" cy="533.68" r="3.2" fill="#1d4ed8"/>
<circle cx="192.91" cy="532.87" r="3.2" fill="#1d4ed8"/>
<circle cx="195.01" cy="532.06" r="3.2" fill="#1d4ed8"/>
<circle cx="197.11" cy="532.06" r="3.2" fill="#1d4ed8"/>
<circle cx="199.21" cy="531.25" r="3.2" fill="#1d4ed8"/>
<circle cx="201.31" cy="530.85" r="3.2" fill="#1d4ed8"/>
<circle cx="203.41" cy="530.44" r="3.2" fill="#1d4ed8"/>
<circle cx="205.51" cy="530.04" r="3.2" fill="#1d4ed8"/>
<circle cx="207.61" cy="530.04" r="3.2" fill="#1d4ed8"/>
<circle cx="209.71" cy="529.23" r="3.2" fill="#1d4ed8"/>
<circle cx="211.81" cy="529.23" r="3.2" fill="#1d4ed8"/>
<circle cx="213.91" cy="529.23" r="3.2" fill="#1d4ed8"/>
<circle cx="216.01" cy="528.42" r="3.2" fill="#1d4ed8"/>
<circle cx="218.11" cy="528.42" r="3.2" fill="#1d4ed8"/>
<circle cx="220.21" cy="527.61" r="3.2" fill="#1d4ed8"/>
<circle cx="222.31" cy="527.21" r="3.2" fill="#1d4ed8"/>
<circle cx="224.41" cy="526.80" r="3.2" fill="#1d4ed8"/>
<circle cx="226.51" cy="526.40" r="3.2" fill="#1d4ed8"/>
<circle cx="228.61" cy="525.18" r="3.2" fill="#1d4ed8"/>
<circle cx="230.71" cy="523.57" r="3.2" fill="#1d4ed8"/>
<circle cx="232.81" cy="523.57" r="3.2" fill="#1d4ed8"/>
<circle cx="234.91" cy="523.16" r="3.2" fill="#1d4ed8"/>
<circle cx="237.01" cy="522.76" r="3.2" fill="#1d4ed8"/>
<circle cx="239.11" cy="522.35" r="3.2" fill="#1d4ed8"/>
<circle cx="241.21" cy="521.54" r="3.2" fill="#1d4ed8"/>
<circle cx="243.31" cy="519.52" r="3.2" fill="#1d4ed8"/>
<circle cx="245.41" cy="517.50" r="3.2" fill="#1d4ed8"/>
<circle cx="247.51" cy="517.50" r="3.2" fill="#1d4ed8"/>
<circle cx="249.61" cy="517.50" r="3.2" fill="#1d4ed8"/>
<circle cx="251.71" cy="517.50" r="3.2" fill="#1d4ed8"/>
<circle cx="253.82" cy="517.50" r="3.2" fill="#1d4ed8"/>
<circle cx="255.92" cy="517.50" r="3.2" fill="#1d4ed8"/>
<circle cx="258.02" cy="517.10" r="3.2" fill="#1d4ed8"/>
<circle cx="260.12" cy="516.69" r="3.2" fill="#1d4ed8"/>
<circle cx="262.22" cy="515.48" r="3.2" fill="#1d4ed8"/>
<circle cx="264.32" cy="515.07" r="3.2" fill="#1d4ed8"/>
<circle cx="266.42" cy="514.67" r="3.2" fill="#1d4ed8"/>
<circle cx="268.52" cy="513.86" r="3.2" fill="#1d4ed8"/>
<circle cx="270.62" cy="514.26" r="3.2" fill="#1d4ed8"/>
<circle cx="272.72" cy="512.24" r="3.2" fill="#1d4ed8"/>
<circle cx="274.82" cy="511.84" r="3.2" fill="#1d4ed8"/>
<circle cx="276.92" cy="511.84" r="3.2" fill="#1d4ed8"/>
<circle cx="279.02" cy="511.03" r="3.2" fill="#1d4ed8"/>
<circle cx="281.12" cy="509.82" r="3.2" fill="#1d4ed8"/>
<circle cx="283.22" cy="507.79" r="3.2" fill="#1d4ed8"/>
<circle cx="285.32" cy="506.99" r="3.2" fill="#1d4ed8"/>
<circle cx="287.42" cy="506.58" r="3.2" fill="#1d4ed8"/>
<circle cx="289.52" cy="509.41" r="3.2" fill="#1d4ed8"/>
<circle cx="291.62" cy="509.01" r="3.2" fill="#1d4ed8"/>
<circle cx="293.72" cy="504.96" r="3.2" fill="#1d4ed8"/>
<circle cx="295.82" cy="504.56" r="3.2" fill="#1d4ed8"/>
<circle cx="297.92" cy="504.15" r="3.2" fill="#1d4ed8"/>
<circle cx="300.02" cy="504.56" r="3.2" fill="#1d4ed8"/>
<circle cx="302.12" cy="503.75" r="3.2" fill="#1d4ed8"/>
<circle cx="304.22" cy="503.75" r="3.2" fill="#1d4ed8"/>
<circle cx="306.32" cy="503.35" r="3.2" fill="#1d4ed8"/>
<circle cx="308.42" cy="499.30" r="3.2" fill="#1d4ed8"/>
<circle cx="310.52" cy="496.47" r="3.2" fill="#1d4ed8"/>
<circle cx="312.62" cy="490.00" r="3.2" fill="#1d4ed8"/>
<circle cx="314.72" cy="484.34" r="3.2" fill="#1d4ed8"/>
<circle cx="316.82" cy="481.10" r="3.2" fill="#1d4ed8"/>
<circle cx="318.92" cy="480.29" r="3.2" fill="#1d4ed8"/>
<circle cx="321.02" cy="480.70" r="3.2" fill="#1d4ed8"/>
<circle cx="323.12" cy="460.88" r="3.2" fill="#1d4ed8"/>
<circle cx="325.22" cy="459.26" r="3.2" fill="#1d4ed8"/>
<circle cx="327.32" cy="458.05" r="3.2" fill="#1d4ed8"/>
<circle cx="329.42" cy="456.03" r="3.2" fill="#1d4ed8"/>
<circle cx="331.52" cy="456.03" r="3.2" fill="#1d4ed8"/>
<circle cx="333.62" cy="454.41" r="3.2" fill="#1d4ed8"/>
<circle cx="335.72" cy="450.77" r="3.2" fill="#1d4ed8"/>
<circle cx="337.82" cy="444.30" r="3.2" fill="#1d4ed8"/>
<circle cx="339.92" cy="443.90" r="3.2" fill="#1d4ed8"/>
<circle cx="342.02" cy="600.00" r="3.2" fill="#1d4ed8"/>
<circle cx="344.12" cy="441.88" r="3.2" fill="#1d4ed8"/>
<circle cx="346.22" cy="440.66" r="3.2" fill="#1d4ed8"/>
<circle cx="348.32" cy="439.45" r="3.2" fill="#1d4ed8"/>
<circle cx="350.42" cy="439.04" r="3.2" fill="#1d4ed8"/>
<circle cx="352.52" cy="438.64" r="3.2" fill="#1d4ed8"/>
<circle cx="354.62" cy="437.83" r="3.2" fill="#1d4ed8"/>
<circle cx="356.72" cy="436.62" r="3.2" fill="#1d4ed8"/>
<circle cx="358.82" cy="436.62" r="3.2" fill="#1d4ed8"/>
<circle cx="360.92" cy="434.60" r="3.2" fill="#1d4ed8"/>
<circle cx="363.03" cy="432.17" r="3.2" fill="#1d4ed8"/>
<circle cx="365.13" cy="429.34" r="3.2" fill="#1d4ed8"/>
<circle cx="367.23" cy="428.93" r="3.2" fill="#1d4ed8"/>
<circle cx="369.33" cy="428.53" r="3.2" fill="#1d4ed8"/>
<circle cx="371.43" cy="427.72" r="3.2" fill="#1d4ed8"/>
<circle cx="373.53" cy="426.91" r="3.2" fill="#1d4ed8"/>
<circle cx="375.63" cy="426.10" r="3.2" fill="#1d4ed8"/>
<circle cx="377.73" cy="426.10" r="3.2" fill="#1d4ed8"/>
<circle cx="379.83" cy="426.10" r="3.2" fill="#1d4ed8"/>
<circle cx="381.93" cy="419.63" r="3.2" fill="#1d4ed8"/>
<circle cx="384.03" cy="419.23" r="3.2" fill="#1d4ed8"/>
<circle cx="386.13" cy="418.42" r="3.2" fill="#1d4ed8"/>
<circle cx="388.23" cy="418.01" r="3.2" fill="#1d4ed8"/>
<circle cx="390.33" cy="417.61" r="3.2" fill="#1d4ed8"/>
<circle cx="392.43" cy="417.61" r="3.2" fill="#1d4ed8"/>
<circle cx="394.53" cy="417.61" r="3.2" fill="#1d4ed8"/>
<circle cx="396.63" cy="417.21" r="3.2" fill="#1d4ed8"/>
<circle cx="398.73" cy="417.21" r="3.2" fill="#1d4ed8"/>
<circle cx="400.83" cy="413.57" r="3.2" fill="#1d4ed8"/>
<circle cx="402.93" cy="411.95" r="3.2" fill="#1d4ed8"/>
<circle cx="405.03" cy="412.76" r="3.2" fill="#1d4ed8"/>
<circle cx="407.13" cy="410.74" r="3.2" fill="#1d4ed8"/>
<circle cx="409.23" cy="410.74" r="3.2" fill="#1d4ed8"/>
<circle cx="411.33" cy="410.33" r="3.2" fill="#1d4ed8"/>
<circle cx="413.43" cy="410.33" r="3.2" fill="#1d4ed8"/>
<circle cx="415.53" cy="410.33" r="3.2" fill="#1d4ed8"/>
<circle cx="417.63" cy="409.93" r="3.2" fill="#1d4ed8"/>
<circle cx="419.73" cy="409.93" r="3.2" fill="#1d4ed8"/>
<circle cx="421.83" cy="409.93" r="3.2" fill="#1d4ed8"/>
<circle cx="423.93" cy="409.52" r="3.2" fill="#1d4ed8"/>
<circle cx="426.03" cy="409.52" r="3.2" fill="#1d4ed8"/>
<circle cx="428.13" cy="409.12" r="3.2" fill="#1d4ed8"/>
<circle cx="430.23" cy="409.52" r="3.2" fill="#1d4ed8"/>
<circle cx="432.33" cy="409.12" r="3.2" fill="#1d4ed8"/>
<circle cx="434.43" cy="407.50" r="3.2" fill="#1d4ed8"/>
<circle cx="436.53" cy="407.10" r="3.2" fill="#1d4ed8"/>
<circle cx="438.63" cy="403.05" r="3.2" fill="#1d4ed8"/>
<circle cx="440.73" cy="399.82" r="3.2" fill="#1d4ed8"/>
<circle cx="442.83" cy="400.22" r="3.2" fill="#1d4ed8"/>
<circle cx="444.93" cy="400.62" r="3.2" fill="#1d4ed8"/>
<circle cx="447.03" cy="400.62" r="3.2" fill="#1d4ed8"/>
<circle cx="449.13" cy="399.41" r="3.2" fill="#1d4ed8"/>
<circle cx="451.23" cy="392.94" r="3.2" fill="#1d4ed8"/>
<circle cx="453.33" cy="391.32" r="3.2" fill="#1d4ed8"/>
<circle cx="455.43" cy="389.30" r="3.2" fill="#1d4ed8"/>
<circle cx="457.53" cy="389.30" r="3.2" fill="#1d4ed8"/>
<circle cx="459.63" cy="388.49" r="3.2" fill="#1d4ed8"/>
<circle cx="461.73" cy="375.15" r="3.2" fill="#1d4ed8"/>
<circle cx="463.83" cy="374.74" r="3.2" fill="#1d4ed8"/>
<circle cx="465.93" cy="374.74" r="3.2" fill="#1d4ed8"/>
<circle cx="468.03" cy="374.74" r="3.2" fill="#1d4ed8"/>
<circle cx="470.13" cy="374.74" r="3.2" fill="#1d4ed8"/>
<circle cx="472.24" cy="374.34" r="3.2" fill="#1d4ed8"/>
<circle cx="474.34" cy="374.34" r="3.2" fill="#1d4ed8"/>
<circle cx="476.44" cy="374.34" r="3.2" fill="#1d4ed8"/>
<circle cx="478.54" cy="374.34" r="3.2" fill="#1d4ed8"/>
<circle cx="480.64" cy="374.34" r="3.2" fill="#1d4ed8"/>
<circle cx="482.74" cy="373.93" r="3.2" fill="#1d4ed8"/>
<circle cx="484.84" cy="373.12" r="3.2" fill="#1d4ed8"/>
<circle cx="486.94" cy="372.72" r="3.2" fill="#1d4ed8"/>
<circle cx="489.04" cy="373.53" r="3.2" fill="#1d4ed8"/>
<circle cx="491.14" cy="435.81" r="3.2" fill="#1d4ed8"/>
<circle cx="493.24" cy="372.32" r="3.2" fill="#1d4ed8"/>
<circle cx="495.34" cy="372.72" r="3.2" fill="#1d4ed8"/>
<circle cx="497.44" cy="371.91" r="3.2" fill="#1d4ed8"/>
<circle cx="499.54" cy="371.91" r="3.2" fill="#1d4ed8"/>
<circle cx="501.64" cy="372.32" r="3.2" fill="#1d4ed8"/>
<circle cx="503.74" cy="371.10" r="3.2" fill="#1d4ed8"/>
<circle cx="505.84" cy="369.89" r="3.2" fill="#1d4ed8"/>
<circle cx="507.94" cy="369.89" r="3.2" fill="#1d4ed8"/>
<circle cx="510.04" cy="369.89" r="3.2" fill="#1d4ed8"/>
<circle cx="512.14" cy="369.49" r="3.2" fill="#1d4ed8"/>
<circle cx="514.24" cy="369.89" r="3.2" fill="#1d4ed8"/>
<circle cx="516.34" cy="369.08" r="3.2" fill="#1d4ed8"/>
<circle cx="518.44" cy="368.68" r="3.2" fill="#1d4ed8"/>
<circle cx="520.54" cy="368.27" r="3.2" fill="#1d4ed8"/>
<circle cx="522.64" cy="367.87" r="3.2" fill="#1d4ed8"/>
<circle cx="524.74" cy="367.06" r="3.2" fill="#1d4ed8"/>
<circle cx="526.84" cy="367.46" r="3.2" fill="#1d4ed8"/>
<circle cx="528.94" cy="367.06" r="3.2" fill="#1d4ed8"/>
<circle cx="531.04" cy="366.25" r="3.2" fill="#1d4ed8"/>
<circle cx="533.14" cy="368.27" r="3.2" fill="#1d4ed8"/>
<circle cx="535.24" cy="368.68" r="3.2" fill="#1d4ed8"/>
<circle cx="537.34" cy="368.68" r="3.2" fill="#1d4ed8"/>
<circle cx="539.44" cy="368.27" r="3.2" fill="#1d4ed8"/>
<circle cx="541.54" cy="369.08" r="3.2" fill="#1d4ed8"/>
<circle cx="543.64" cy="367.87" r="3.2" fill="#1d4ed8"/>
<circle cx="545.74" cy="367.46" r="3.2" fill="#1d4ed8"/>
<circle cx="547.84" cy="367.06" r="3.2" fill="#1d4ed8"/>
<circle cx="549.94" cy="360.18" r="3.2" fill="#1d4ed8"/>
<circle cx="552.04" cy="359.78" r="3.2" fill="#1d4ed8"/>
<circle cx="554.14" cy="359.38" r="3.2" fill="#1d4ed8"/>
<circle cx="556.24" cy="356.95" r="3.2" fill="#1d4ed8"/>
<circle cx="558.34" cy="357.35" r="3.2" fill="#1d4ed8"/>
<circle cx="560.44" cy="357.76" r="3.2" fill="#1d4ed8"/>
<circle cx="562.54" cy="355.33" r="3.2" fill="#1d4ed8"/>
<circle cx="564.64" cy="355.74" r="3.2" fill="#1d4ed8"/>
<circle cx="566.74" cy="357.35" r="3.2" fill="#1d4ed8"/>
<circle cx="568.84" cy="355.33" r="3.2" fill="#1d4ed8"/>
<circle cx="570.94" cy="356.14" r="3.2" fill="#1d4ed8"/>
<circle cx="573.04" cy="355.74" r="3.2" fill="#1d4ed8"/>
<circle cx="575.14" cy="356.14" r="3.2" fill="#1d4ed8"/>
<circle cx="577.24" cy="354.12" r="3.2" fill="#1d4ed8"/>
<circle cx="579.34" cy="354.93" r="3.2" fill="#1d4ed8"/>
<circle cx="581.45" cy="356.14" r="3.2" fill="#1d4ed8"/>
<circle cx="583.55" cy="354.52" r="3.2" fill="#1d4ed8"/>
<circle cx="585.65" cy="353.71" r="3.2" fill="#1d4ed8"/>
<circle cx="587.75" cy="354.12" r="3.2" fill="#1d4ed8"/>
<circle cx="589.85" cy="354.93" r="3.2" fill="#1d4ed8"/>
<circle cx="591.95" cy="352.90" r="3.2" fill="#1d4ed8"/>
<circle cx="594.05" cy="353.71" r="3.2" fill="#1d4ed8"/>
<circle cx="596.15" cy="353.31" r="3.2" fill="#1d4ed8"/>
<circle cx="598.25" cy="353.31" r="3.2" fill="#1d4ed8"/>
<circle cx="600.35" cy="354.52" r="3.2" fill="#1d4ed8"/>
<circle cx="602.45" cy="352.90" r="3.2" fill="#1d4ed8"/>
<circle cx="604.55" cy="352.50" r="3.2" fill="#1d4ed8"/>
<circle cx="606.65" cy="352.50" r="3.2" fill="#1d4ed8"/>
<circle cx="608.75" cy="353.31" r="3.2" fill="#1d4ed8"/>
<circle cx="610.85" cy="352.50" r="3.2" fill="#1d4ed8"/>
<circle cx="612.95" cy="353.71" r="3.2" fill="#1d4ed8"/>
<circle cx="615.05" cy="354.12" r="3.2" fill="#1d4ed8"/>
<circle cx="617.15" cy="352.50" r="3.2" fill="#1d4ed8"/>
<circle cx="619.25" cy="352.90" r="3.2" fill="#1d4ed8"/>
<circle cx="621.35" cy="352.50" r="3.2" fill="#1d4ed8"/>
<circle cx="623.45" cy="352.10" r="3.2" fill="#1d4ed8"/>
<circle cx="625.55" cy="351.69" r="3.2" fill="#1d4ed8"/>
<circle cx="627.65" cy="352.10" r="3.2" fill="#1d4ed8"/>
<circle cx="629.75" cy="354.12" r="3.2" fill="#1d4ed8"/>
<circle cx="631.85" cy="352.50" r="3.2" fill="#1d4ed8"/>
<circle cx="633.95" cy="352.10" r="3.2" fill="#1d4ed8"/>
<circle cx="636.05" cy="352.10" r="3.2" fill="#1d4ed8"/>
<circle cx="638.15" cy="349.67" r="3.2" fill="#1d4ed8"/>
<circle cx="640.25" cy="349.67" r="3.2" fill="#1d4ed8"/>
<circle cx="642.35" cy="350.88" r="3.2" fill="#1d4ed8"/>
<circle cx="644.45" cy="351.29" r="3.2" fill="#1d4ed8"/>
<circle cx="646.55" cy="350.48" r="3.2" fill="#1d4ed8"/>
<circle cx="648.65" cy="352.10" r="3.2" fill="#1d4ed8"/>
<circle cx="650.75" cy="350.48" r="3.2" fill="#1d4ed8"/>
<circle cx="652.85" cy="350.48" r="3.2" fill="#1d4ed8"/>
<circle cx="654.95" cy="350.48" r="3.2" fill="#1d4ed8"/>
<circle cx="657.05" cy="350.07" r="3.2" fill="#1d4ed8"/>
<circle cx="659.15" cy="348.46" r="3.2" fill="#1d4ed8"/>
<circle cx="661.25" cy="351.29" r="3.2" fill="#1d4ed8"/>
<circle cx="663.35" cy="349.67" r="3.2" fill="#1d4ed8"/>
<circle cx="665.45" cy="351.29" r="3.2" fill="#1d4ed8"/>
<circle cx="667.55" cy="349.67" r="3.2" fill="#1d4ed8"/>
<circle cx="669.65" cy="348.86" r="3.2" fill="#1d4ed8"/>
<circle cx="671.75" cy="348.46" r="3.2" fill="#1d4ed8"/>
<circle cx="673.85" cy="348.46" r="3.2" fill="#1d4ed8"/>
<circle cx="675.95" cy="347.24" r="3.2" fill="#1d4ed8"/>
<circle cx="678.05" cy="348.86" r="3.2" fill="#1d4ed8"/>
<circle cx="680.15" cy="346.84" r="3.2" fill="#1d4ed8"/>
<circle cx="682.25" cy="348.46" r="3.2" fill="#1d4ed8"/>
<circle cx="684.35" cy="348.86" r="3.2" fill="#1d4ed8"/>
<circle cx="686.45" cy="346.84" r="3.2" fill="#1d4ed8"/>
<circle cx="688.55" cy="349.26" r="3.2" fill="#1d4ed8"/>
<circle cx="690.66" cy="348.05" r="3.2" fill="#1d4ed8"/>
<circle cx="692.76" cy="349.26" r="3.2" fill="#1d4ed8"/>
<circle cx="694.86" cy="349.26" r="3.2" fill="#1d4ed8"/>
<circle cx="696.96" cy="350.48" r="3.2" fill="#1d4ed8"/>
<circle cx="699.06" cy="352.90" r="3.2" fill="#1d4ed8"/>
<circle cx="701.16" cy="349.67" r="3.2" fill="#1d4ed8"/>
<circle cx="703.26" cy="348.46" r="3.2" fill="#1d4ed8"/>
<circle cx="705.36" cy="345.62" r="3.2" fill="#1d4ed8"/>
<circle cx="707.46" cy="344.82" r="3.2" fill="#1d4ed8"/>
<circle cx="709.56" cy="344.41" r="3.2" fill="#1d4ed8"/>
<circle cx="711.66" cy="342.39" r="3.2" fill="#1d4ed8"/>
<circle cx="713.76" cy="341.18" r="3.2" fill="#1d4ed8"/>
<circle cx="715.86" cy="341.58" r="3.2" fill="#1d4ed8"/>
<circle cx="717.96" cy="339.15" r="3.2" fill="#1d4ed8"/>
<circle cx="720.06" cy="338.35" r="3.2" fill="#1d4ed8"/>
<circle cx="722.16" cy="337.54" r="3.2" fill="#1d4ed8"/>
<circle cx="724.26" cy="336.73" r="3.2" fill="#1d4ed8"/>
<circle cx="726.36" cy="335.92" r="3.2" fill="#1d4ed8"/>
<circle cx="728.46" cy="337.54" r="3.2" fill="#1d4ed8"/>
<circle cx="730.56" cy="338.35" r="3.2" fill="#1d4ed8"/>
<circle cx="732.66" cy="337.54" r="3.2" fill="#1d4ed8"/>
<circle cx="734.76" cy="337.54" r="3.2" fill="#1d4ed8"/>
<circle cx="736.86" cy="337.54" r="3.2" fill="#1d4ed8"/>
<circle cx="738.96" cy="333.09" r="3.2" fill="#1d4ed8"/>
<circle cx="741.06" cy="333.90" r="3.2" fill="#1d4ed8"/>
<circle cx="743.16" cy="335.92" r="3.2" fill="#1d4ed8"/>
<circle cx="745.26" cy="336.73" r="3.2" fill="#1d4ed8"/>
<circle cx="747.36" cy="335.51" r="3.2" fill="#1d4ed8"/>
<circle cx="749.46" cy="332.28" r="3.2" fill="#1d4ed8"/>
<circle cx="751.56" cy="331.47" r="3.2" fill="#1d4ed8"/>
<circle cx="753.66" cy="331.07" r="3.2" fill="#1d4ed8"/>
<circle cx="755.76" cy="331.47" r="3.2" fill="#1d4ed8"/>
<circle cx="757.86" cy="331.07" r="3.2" fill="#1d4ed8"/>
<circle cx="759.96" cy="331.07" r="3.2" fill="#1d4ed8"/>
<circle cx="762.06" cy="331.07" r="3.2" fill="#1d4ed8"/>
<circle cx="764.16" cy="331.07" r="3.2" fill="#1d4ed8"/>
<circle cx="766.26" cy="331.07" r="3.2" fill="#1d4ed8"/>
<circle cx="768.36" cy="331.07" r="3.2" fill="#1d4ed8"/>
<circle cx="770.46" cy="331.07" r="3.2" fill="#1d4ed8"/>
<circle cx="772.56" cy="331.07" r="3.2" fill="#1d4ed8"/>
<circle cx="774.66" cy="331.07" r="3.2" fill="#1d4ed8"/>
<circle cx="776.76" cy="331.07" r="3.2" fill="#1d4ed8"/>
<circle cx="778.86" cy="331.47" r="3.2" fill="#1d4ed8"/>
<circle cx="780.96" cy="331.88" r="3.2" fill="#1d4ed8"/>
<circle cx="783.06" cy="331.07" r="3.2" fill="#1d4ed8"/>
<circle cx="785.16" cy="331.47" r="3.2" fill="#1d4ed8"/>
<circle cx="787.26" cy="331.07" r="3.2" fill="#1d4ed8"/>
<circle cx="789.36" cy="331.47" r="3.2" fill="#1d4ed8"/>
<circle cx="791.46" cy="331.07" r="3.2" fill="#1d4ed8"/>
<circle cx="793.56" cy="324.19" r="3.2" fill="#1d4ed8"/>
<circle cx="795.66" cy="324.19" r="3.2" fill="#1d4ed8"/>
<circle cx="797.76" cy="318.93" r="3.2" fill="#1d4ed8"/>
<circle cx="799.87" cy="316.51" r="3.2" fill="#1d4ed8"/>
<circle cx="801.97" cy="310.44" r="3.2" fill="#1d4ed8"/>
<circle cx="804.07" cy="308.01" r="3.2" fill="#1d4ed8"/>
<circle cx="806.17" cy="600.00" r="3.2" fill="#1d4ed8"/>
<circle cx="808.27" cy="301.54" r="3.2" fill="#1d4ed8"/>
<circle cx="810.37" cy="290.22" r="3.2" fill="#1d4ed8"/>
<circle cx="812.47" cy="287.79" r="3.2" fill="#1d4ed8"/>
<circle cx="814.57" cy="286.18" r="3.2" fill="#1d4ed8"/>
<circle cx="816.67" cy="285.77" r="3.2" fill="#1d4ed8"/>
<circle cx="818.77" cy="285.77" r="3.2" fill="#1d4ed8"/>
<circle cx="820.87" cy="285.77" r="3.2" fill="#1d4ed8"/>
<circle cx="822.97" cy="286.18" r="3.2" fill="#1d4ed8"/>
<circle cx="825.07" cy="285.77" r="3.2" fill="#1d4ed8"/>
<circle cx="827.17" cy="285.77" r="3.2" fill="#1d4ed8"/>
<circle cx="829.27" cy="285.77" r="3.2" fill="#1d4ed8"/>
<circle cx="831.37" cy="283.35" r="3.2" fill="#1d4ed8"/>
<circle cx="833.47" cy="282.94" r="3.2" fill="#1d4ed8"/>
<circle cx="835.57" cy="282.94" r="3.2" fill="#1d4ed8"/>
<circle cx="837.67" cy="283.35" r="3.2" fill="#1d4ed8"/>
<circle cx="839.77" cy="282.94" r="3.2" fill="#1d4ed8"/>
<circle cx="841.87" cy="282.94" r="3.2" fill="#1d4ed8"/>
<circle cx="843.97" cy="283.75" r="3.2" fill="#1d4ed8"/>
<circle cx="846.07" cy="282.13" r="3.2" fill="#1d4ed8"/>
<circle cx="848.17" cy="282.13" r="3.2" fill="#1d4ed8"/>
<circle cx="850.27" cy="282.54" r="3.2" fill="#1d4ed8"/>
<circle cx="852.37" cy="282.13" r="3.2" fill="#1d4ed8"/>
<circle cx="854.47" cy="282.54" r="3.2" fill="#1d4ed8"/>
<circle cx="856.57" cy="282.94" r="3.2" fill="#1d4ed8"/>
<circle cx="858.67" cy="281.73" r="3.2" fill="#1d4ed8"/>
<circle cx="860.77" cy="282.54" r="3.2" fill="#1d4ed8"/>
<circle cx="862.87" cy="281.73" r="3.2" fill="#1d4ed8"/>
<circle cx="864.97" cy="282.54" r="3.2" fill="#1d4ed8"/>
<circle cx="867.07" cy="282.13" r="3.2" fill="#1d4ed8"/>
<circle cx="869.17" cy="282.13" r="3.2" fill="#1d4ed8"/>
<circle cx="871.27" cy="281.73" r="3.2" fill="#1d4ed8"/>
<circle cx="873.37" cy="281.73" r="3.2" fill="#1d4ed8"/>
<circle cx="875.47" cy="281.32" r="3.2" fill="#1d4ed8"/>
<circle cx="877.57" cy="281.73" r="3.2" fill="#1d4ed8"/>
<circle cx="879.67" cy="282.13" r="3.2" fill="#1d4ed8"/>
<circle cx="881.77" cy="281.32" r="3.2" fill="#1d4ed8"/>
<circle cx="883.87" cy="281.32" r="3.2" fill="#1d4ed8"/>
<circle cx="885.97" cy="282.54" r="3.2" fill="#1d4ed8"/>
<circle cx="888.07" cy="282.13" r="3.2" fill="#1d4ed8"/>
<circle cx="890.17" cy="281.32" r="3.2" fill="#1d4ed8"/>
<circle cx="892.27" cy="281.32" r="3.2" fill="#1d4ed8"/>
<circle cx="894.37" cy="281.32" r="3.2" fill="#1d4ed8"/>
<circle cx="896.47" cy="282.54" r="3.2" fill="#1d4ed8"/>
<circle cx="898.57" cy="282.13" r="3.2" fill="#1d4ed8"/>
<circle cx="900.67" cy="281.32" r="3.2" fill="#1d4ed8"/>
<circle cx="902.77" cy="282.13" r="3.2" fill="#1d4ed8"/>
<circle cx="904.87" cy="281.73" r="3.2" fill="#1d4ed8"/>
<circle cx="906.97" cy="282.13" r="3.2" fill="#1d4ed8"/>
<circle cx="909.08" cy="280.11" r="3.2" fill="#1d4ed8"/>
<circle cx="911.18" cy="280.11" r="3.2" fill="#1d4ed8"/>
<circle cx="913.28" cy="280.51" r="3.2" fill="#1d4ed8"/>
<circle cx="915.38" cy="279.71" r="3.2" fill="#1d4ed8"/>
<circle cx="917.48" cy="280.11" r="3.2" fill="#1d4ed8"/>
<circle cx="919.58" cy="280.51" r="3.2" fill="#1d4ed8"/>
<circle cx="921.68" cy="279.71" r="3.2" fill="#1d4ed8"/>
<circle cx="923.78" cy="280.11" r="3.2" fill="#1d4ed8"/>
<circle cx="925.88" cy="280.11" r="3.2" fill="#1d4ed8"/>
<circle cx="927.98" cy="279.30" r="3.2" fill="#1d4ed8"/>
<circle cx="930.08" cy="278.90" r="3.2" fill="#1d4ed8"/>
<circle cx="932.18" cy="278.90" r="3.2" fill="#1d4ed8"/>
<circle cx="934.28" cy="280.51" r="3.2" fill="#1d4ed8"/>
<circle cx="936.38" cy="279.30" r="3.2" fill="#1d4ed8"/>
<circle cx="938.48" cy="278.09" r="3.2" fill="#1d4ed8"/>
<circle cx="940.58" cy="278.49" r="3.2" fill="#1d4ed8"/>
<circle cx="942.68" cy="278.49" r="3.2" fill="#1d4ed8"/>
<circle cx="944.78" cy="277.28" r="3.2" fill="#1d4ed8"/>
<circle cx="946.88" cy="277.68" r="3.2" fill="#1d4ed8"/>
<circle cx="948.98" cy="277.68" r="3.2" fill="#1d4ed8"/>
<circle cx="951.08" cy="278.09" r="3.2" fill="#1d4ed8"/>
<circle cx="953.18" cy="277.28" r="3.2" fill="#1d4ed8"/>
<circle cx="955.28" cy="600.00" r="3.2" fill="#1d4ed8"/>
<circle cx="957.38" cy="278.90" r="3.2" fill="#1d4ed8"/>
<circle cx="959.48" cy="279.30" r="3.2" fill="#1d4ed8"/>
<circle cx="961.58" cy="278.90" r="3.2" fill="#1d4ed8"/>
<circle cx="963.68" cy="278.49" r="3.2" fill="#1d4ed8"/>
<circle cx="965.78" cy="278.49" r="3.2" fill="#1d4ed8"/>
<circle cx="967.88" cy="278.49" r="3.2" fill="#1d4ed8"/>
<circle cx="969.98" cy="278.49" r="3.2" fill="#1d4ed8"/>
<circle cx="972.08" cy="278.49" r="3.2" fill="#1d4ed8"/>
<circle cx="974.18" cy="278.49" r="3.2" fill="#1d4ed8"/>
<circle cx="976.28" cy="278.49" r="3.2" fill="#1d4ed8"/>
<circle cx="978.38" cy="278.49" r="3.2" fill="#1d4ed8"/>
<circle cx="980.48" cy="278.49" r="3.2" fill="#1d4ed8"/>
<circle cx="982.58" cy="278.49" r="3.2" fill="#1d4ed8"/>
<circle cx="984.68" cy="278.49" r="3.2" fill="#1d4ed8"/>
<circle cx="986.78" cy="278.49" r="3.2" fill="#1d4ed8"/>
<circle cx="988.88" cy="600.00" r="3.2" fill="#1d4ed8"/>
<circle cx="990.98" cy="600.00" r="3.2" fill="#1d4ed8"/>
<circle cx="993.08" cy="254.63" r="3.2" fill="#1d4ed8"/>
<circle cx="995.18" cy="600.00" r="3.2" fill="#1d4ed8"/>
<circle cx="997.28" cy="245.74" r="3.2" fill="#1d4ed8"/>
<circle cx="999.38" cy="245.74" r="3.2" fill="#1d4ed8"/>
<circle cx="1001.48" cy="246.14" r="3.2" fill="#1d4ed8"/>
<circle cx="1003.58" cy="245.74" r="3.2" fill="#1d4ed8"/>
<circle cx="1005.68" cy="245.74" r="3.2" fill="#1d4ed8"/>
<circle cx="1007.78" cy="245.74" r="3.2" fill="#1d4ed8"/>
<circle cx="1009.88" cy="245.74" r="3.2" fill="#1d4ed8"/>
<circle cx="1011.98" cy="245.74" r="3.2" fill="#1d4ed8"/>
<circle cx="1014.08" cy="240.07" r="3.2" fill="#1d4ed8"/>
<circle cx="1016.18" cy="238.05" r="3.2" fill="#1d4ed8"/>
<circle cx="1018.29" cy="238.05" r="3.2" fill="#1d4ed8"/>
<circle cx="1020.39" cy="227.13" r="3.2" fill="#1d4ed8"/>
<circle cx="1022.49" cy="227.13" r="3.2" fill="#1d4ed8"/>
<circle cx="1024.59" cy="226.32" r="3.2" fill="#1d4ed8"/>
<circle cx="1026.69" cy="227.54" r="3.2" fill="#1d4ed8"/>
<circle cx="1028.79" cy="226.73" r="3.2" fill="#1d4ed8"/>
<circle cx="1030.89" cy="226.32" r="3.2" fill="#1d4ed8"/>
<circle cx="1032.99" cy="227.13" r="3.2" fill="#1d4ed8"/>
<circle cx="1035.09" cy="227.13" r="3.2" fill="#1d4ed8"/>
<circle cx="1037.19" cy="226.73" r="3.2" fill="#1d4ed8"/>
<circle cx="1039.29" cy="226.32" r="3.2" fill="#1d4ed8"/>
<circle cx="1041.39" cy="226.73" r="3.2" fill="#1d4ed8"/>
<circle cx="1043.49" cy="226.73" r="3.2" fill="#1d4ed8"/>
<circle cx="1045.59" cy="226.73" r="3.2" fill="#1d4ed8"/>
<circle cx="1047.69" cy="225.11" r="3.2" fill="#1d4ed8"/>
<circle cx="1049.79" cy="224.71" r="3.2" fill="#1d4ed8"/>
<circle cx="1051.89" cy="225.11" r="3.2" fill="#1d4ed8"/>
<circle cx="1053.99" cy="224.30" r="3.2" fill="#1d4ed8"/>
<circle cx="1056.09" cy="226.32" r="3.2" fill="#1d4ed8"/>
<circle cx="1058.19" cy="224.30" r="3.2" fill="#1d4ed8"/>
<circle cx="1060.29" cy="225.51" r="3.2" fill="#1d4ed8"/>
<circle cx="1062.39" cy="225.51" r="3.2" fill="#1d4ed8"/>
<circle cx="1064.49" cy="225.51" r="3.2" fill="#1d4ed8"/>
<circle cx="1066.59" cy="225.92" r="3.2" fill="#1d4ed8"/>
<circle cx="1068.69" cy="223.09" r="3.2" fill="#1d4ed8"/>
<circle cx="1070.79" cy="223.49" r="3.2" fill="#1d4ed8"/>
<circle cx="1072.89" cy="223.09" r="3.2" fill="#1d4ed8"/>
<circle cx="1074.99" cy="223.09" r="3.2" fill="#1d4ed8"/>
<circle cx="1077.09" cy="223.90" r="3.2" fill="#1d4ed8"/>
<circle cx="1079.19" cy="223.49" r="3.2" fill="#1d4ed8"/>
<circle cx="1081.29" cy="223.49" r="3.2" fill="#1d4ed8"/>
<circle cx="1083.39" cy="223.09" r="3.2" fill="#1d4ed8"/>
<circle cx="1085.49" cy="223.09" r="3.2" fill="#1d4ed8"/>
<circle cx="1087.59" cy="223.49" r="3.2" fill="#1d4ed8"/>
<circle cx="1089.69" cy="223.09" r="3.2" fill="#1d4ed8"/>
<circle cx="1091.79" cy="223.09" r="3.2" fill="#1d4ed8"/>
<circle cx="1093.89" cy="223.49" r="3.2" fill="#1d4ed8"/>
<circle cx="1095.99" cy="223.49" r="3.2" fill="#1d4ed8"/>
<circle cx="1098.09" cy="223.09" r="3.2" fill="#1d4ed8"/>
<circle cx="1100.19" cy="223.09" r="3.2" fill="#1d4ed8"/>
<circle cx="1102.29" cy="223.49" r="3.2" fill="#1d4ed8"/>
<circle cx="1104.39" cy="223.09" r="3.2" fill="#1d4ed8"/>
<circle cx="1106.49" cy="223.09" r="3.2" fill="#1d4ed8"/>
<circle cx="1108.59" cy="223.09" r="3.2" fill="#1d4ed8"/>
<circle cx="1110.69" cy="223.49" r="3.2" fill="#1d4ed8"/>
<circle cx="1112.79" cy="223.49" r="3.2" fill="#1d4ed8"/>
<circle cx="1114.89" cy="223.49" r="3.2" fill="#1d4ed8"/>
<circle cx="1116.99" cy="223.09" r="3.2" fill="#1d4ed8"/>
<circle cx="1119.09" cy="223.49" r="3.2" fill="#1d4ed8"/>
<circle cx="1121.19" cy="223.09" r="3.2" fill="#1d4ed8"/>
<circle cx="1123.29" cy="223.09" r="3.2" fill="#1d4ed8"/>
<circle cx="1125.39" cy="223.49" r="3.2" fill="#1d4ed8"/>
<circle cx="1127.50" cy="223.09" r="3.2" fill="#1d4ed8"/>
<circle cx="1129.60" cy="223.09" r="3.2" fill="#1d4ed8"/>
<circle cx="1131.70" cy="223.49" r="3.2" fill="#1d4ed8"/>
<circle cx="1133.80" cy="222.68" r="3.2" fill="#1d4ed8"/>
<circle cx="1135.90" cy="221.88" r="3.2" fill="#1d4ed8"/>
<circle cx="1138.00" cy="223.49" r="3.2" fill="#1d4ed8"/>
<circle cx="1140.10" cy="223.09" r="3.2" fill="#1d4ed8"/>
<circle cx="1142.20" cy="223.49" r="3.2" fill="#1d4ed8"/>
<circle cx="1144.30" cy="224.30" r="3.2" fill="#1d4ed8"/>
<circle cx="1146.40" cy="201.65" r="3.2" fill="#1d4ed8"/>
<circle cx="1148.50" cy="201.65" r="3.2" fill="#1d4ed8"/>
<circle cx="1150.60" cy="186.69" r="3.2" fill="#1d4ed8"/>
<circle cx="1152.70" cy="176.18" r="3.2" fill="#1d4ed8"/>
<circle cx="1154.80" cy="174.15" r="3.2" fill="#1d4ed8"/>
<circle cx="1156.90" cy="172.94" r="3.2" fill="#1d4ed8"/>
<circle cx="1159.00" cy="172.94" r="3.2" fill="#1d4ed8"/>
<circle cx="1161.10" cy="162.02" r="3.2" fill="#1d4ed8"/>
<circle cx="1163.20" cy="161.21" r="3.2" fill="#1d4ed8"/>
<circle cx="1165.30" cy="148.27" r="3.2" fill="#1d4ed8"/>
<circle cx="1167.40" cy="155.96" r="3.2" fill="#1d4ed8"/>
<circle cx="1169.50" cy="139.78" r="3.2" fill="#1d4ed8"/>
<circle cx="1171.60" cy="135.33" r="3.2" fill="#1d4ed8"/>
<circle cx="1173.70" cy="147.06" r="3.2" fill="#1d4ed8"/>
<circle cx="1175.80" cy="131.29" r="3.2" fill="#1d4ed8"/>
<circle cx="1177.90" cy="119.56" r="3.2" fill="#1d4ed8"/>
<circle cx="1180.00" cy="114.71" r="3.2" fill="#1d4ed8"/>
<text x="635" y="695" text-anchor="middle" font-size="14" fill="#111" font-family="sans-serif">Date</text>
<text x="24" y="325" text-anchor="middle" font-size="14" fill="#111" transform="rotate(-90 24,325)" font-family="sans-serif">Passed files</text>
</svg>
