<?xml version="1.0" encoding="UTF-8"?>
<svg xmlns="http://www.w3.org/2000/svg" width="1280" height="720" viewBox="0 0 1280 720">
<rect width="100%" height="100%" fill="#ffffff"/>
<text x="640" y="30" text-anchor="middle" font-size="22" font-family="sans-serif">Roast passed files history</text>
<line x1="90" y1="600" x2="1180" y2="600" stroke="#333" stroke-width="1.5"/>
<line x1="90" y1="50" x2="90" y2="600" stroke="#333" stroke-width="1.5"/>
<line x1="90" y1="600.00" x2="1180" y2="600.00" stroke="#e5e7eb" stroke-width="1"/>
<text x="78" y="605.00" text-anchor="end" font-size="12" fill="#111" font-family="sans-serif">0</text>
<line x1="90" y1="397.79" x2="1180" y2="397.79" stroke="#e5e7eb" stroke-width="1"/>
<text x="78" y="402.79" text-anchor="end" font-size="12" fill="#111" font-family="sans-serif">500</text>
<line x1="90" y1="195.59" x2="1180" y2="195.59" stroke="#e5e7eb" stroke-width="1"/>
<text x="78" y="200.59" text-anchor="end" font-size="12" fill="#111" font-family="sans-serif">1000</text>
<line x1="90.00" y1="600" x2="90.00" y2="606" stroke="#333" stroke-width="1"/>
<text x="90.00" y="624" text-anchor="end" font-size="11" fill="#111" transform="rotate(-40 90.00,624)" font-family="sans-serif">2026-02-12</text>
<line x1="226.53" y1="600" x2="226.53" y2="606" stroke="#333" stroke-width="1"/>
<text x="226.53" y="624" text-anchor="end" font-size="11" fill="#111" transform="rotate(-40 226.53,624)" font-family="sans-serif">2026-02-18</text>
<line x1="363.05" y1="600" x2="363.05" y2="606" stroke="#333" stroke-width="1"/>
<text x="363.05" y="624" text-anchor="end" font-size="11" fill="#111" transform="rotate(-40 363.05,624)" font-family="sans-serif">2026-02-25</text>
<line x1="499.58" y1="600" x2="499.58" y2="606" stroke="#333" stroke-width="1"/>
<text x="499.58" y="624" text-anchor="end" font-size="11" fill="#111" transform="rotate(-40 499.58,624)" font-family="sans-serif">2026-02-28</text>
<line x1="636.10" y1="600" x2="636.10" y2="606" stroke="#333" stroke-width="1"/>
<text x="636.10" y="624" text-anchor="end" font-size="11" fill="#111" transform="rotate(-40 636.10,624)" font-family="sans-serif">2026-03-06</text>
<line x1="772.63" y1="600" x2="772.63" y2="606" stroke="#333" stroke-width="1"/>
<text x="772.63" y="624" text-anchor="end" font-size="11" fill="#111" transform="rotate(-40 772.63,624)" font-family="sans-serif">2026-03-11</text>
<line x1="909.15" y1="600" x2="909.15" y2="606" stroke="#333" stroke-width="1"/>
<text x="909.15" y="624" text-anchor="end" font-size="11" fill="#111" transform="rotate(-40 909.15,624)" font-family="sans-serif">2026-03-18</text>
<line x1="1045.68" y1="600" x2="1045.68" y2="606" stroke="#333" stroke-width="1"/>
<text x="1045.68" y="624" text-anchor="end" font-size="11" fill="#111" transform="rotate(-40 1045.68,624)" font-family="sans-serif">2026-03-24</text>
<line x1="1180.00" y1="600" x2="1180.00" y2="606" stroke="#333" stroke-width="1"/>
<text x="1180.00" y="624" text-anchor="end" font-size="11" fill="#111" transform="rotate(-40 1180.00,624)" font-family="sans-serif">2026-03-31</text>
<line x1="90" y1="75.88" x2="1180" y2="75.88" stroke="#dc2626" stroke-width="1.5" stroke-dasharray="8,4"/>
<text x="1184" y="79.88" font-size="12" fill="#dc2626" font-family="sans-serif">Goal: 1296</text>
<polyline fill="none" stroke="#2563eb" stroke-width="3" points="90.00,540.55 92.20,538.53 94.40,536.91 96.61,534.49 98.81,534.49 101.01,533.27 103.21,532.46 105.41,532.87 107.62,532.06 109.82,532.46 112.02,532.06 114.22,568.46 116.42,568.46 118.63,566.43 120.83,545.00 123.03,545.00 125.23,544.19 127.43,543.79 129.64,543.79 131.84,543.38 134.04,541.76 136.24,541.36 138.44,540.96 140.65,540.96 142.85,539.34 145.05,539.34 147.25,556.73 149.45,556.73 151.66,555.51 153.86,551.07 156.06,538.93 158.26,538.93 160.46,538.93 162.67,538.12 164.87,536.91 167.07,536.91 169.27,536.51 171.47,536.51 173.68,556.73 175.88,556.73 178.08,556.73 180.28,556.73 182.48,535.29 184.69,535.29 186.89,535.29 189.09,535.29 191.29,534.49 193.49,534.08 195.70,533.68 197.90,532.87 200.10,532.06 202.30,532.06 204.51,531.25 206.71,530.85 208.91,530.44 211.11,530.04 213.31,530.04 215.52,529.23 217.72,529.23 219.92,529.23 222.12,528.42 224.32,528.42 226.53,527.61 228.73,527.21 230.93,526.80 233.13,526.40 235.33,525.18 237.54,523.57 239.74,523.57 241.94,523.16 244.14,522.76 246.34,522.35 248.55,521.54 250.75,519.52 252.95,517.50 255.15,517.50 257.35,517.50 259.56,517.50 261.76,517.50 263.96,517.50 266.16,517.10 268.36,516.69 270.57,515.48 272.77,515.07 274.97,514.67 277.17,513.86 279.37,514.26 281.58,512.24 283.78,511.84 285.98,511.84 288.18,511.03 290.38,509.82 292.59,507.79 294.79,506.99 296.99,506.58 299.19,509.41 301.39,509.01 303.60,504.96 305.80,504.56 308.00,504.15 310.20,504.56 312.40,503.75 314.61,503.75 316.81,503.35 319.01,499.30 321.21,496.47 323.41,490.00 325.62,484.34 327.82,481.10 330.02,480.29 332.22,480.70 334.42,460.88 336.63,459.26 338.83,458.05 341.03,456.03 343.23,456.03 345.43,454.41 347.64,450.77 349.84,444.30 352.04,443.90 354.24,600.00 356.44,441.88 358.65,440.66 360.85,439.45 363.05,439.04 365.25,438.64 367.45,437.83 369.66,436.62 371.86,436.62 374.06,434.60 376.26,432.17 378.46,429.34 380.67,428.93 382.87,428.53 385.07,427.72 387.27,426.91 389.47,426.10 391.68,426.10 393.88,426.10 396.08,419.63 398.28,419.23 400.48,418.42 402.69,418.01 404.89,417.61 407.09,417.61 409.29,417.61 411.49,417.21 413.70,417.21 415.90,413.57 418.10,411.95 420.30,412.76 422.51,410.74 424.71,410.74 426.91,410.33 429.11,410.33 431.31,410.33 433.52,409.93 435.72,409.93 437.92,409.93 440.12,409.52 442.32,409.52 444.53,409.12 446.73,409.52 448.93,409.12 451.13,407.50 453.33,407.10 455.54,403.05 457.74,399.82 459.94,400.22 462.14,400.62 464.34,400.62 466.55,399.41 468.75,392.94 470.95,391.32 473.15,389.30 475.35,389.30 477.56,388.49 479.76,375.15 481.96,374.74 484.16,374.74 486.36,374.74 488.57,374.74 490.77,374.34 492.97,374.34 495.17,374.34 497.37,374.34 499.58,374.34 501.78,373.93 503.98,373.12 506.18,372.72 508.38,373.53 510.59,435.81 512.79,372.32 514.99,372.72 517.19,371.91 519.39,371.91 521.60,372.32 523.80,371.10 526.00,369.89 528.20,369.89 530.40,369.89 532.61,369.49 534.81,369.89 537.01,369.08 539.21,368.68 541.41,368.27 543.62,367.87 545.82,367.06 548.02,367.46 550.22,367.06 552.42,366.25 554.63,368.27 556.83,368.68 559.03,368.68 561.23,368.27 563.43,369.08 565.64,367.87 567.84,367.46 570.04,367.06 572.24,360.18 574.44,359.78 576.65,359.38 578.85,356.95 581.05,357.35 583.25,357.76 585.45,355.33 587.66,355.74 589.86,357.35 592.06,355.33 594.26,356.14 596.46,355.74 598.67,356.14 600.87,354.12 603.07,354.93 605.27,356.14 607.47,354.52 609.68,353.71 611.88,354.12 614.08,354.93 616.28,352.90 618.48,353.71 620.69,353.31 622.89,353.31 625.09,354.52 627.29,352.90 629.49,352.50 631.70,352.50 633.90,353.31 636.10,352.50 638.30,353.71 640.51,354.12 642.71,352.50 644.91,352.90 647.11,352.50 649.31,352.10 651.52,351.69 653.72,352.10 655.92,354.12 658.12,352.50 660.32,352.10 662.53,352.10 664.73,349.67 666.93,349.67 669.13,350.88 671.33,351.29 673.54,350.48 675.74,352.10 677.94,350.48 680.14,350.48 682.34,350.48 684.55,350.07 686.75,348.46 688.95,351.29 691.15,349.67 693.35,351.29 695.56,349.67 697.76,348.86 699.96,348.46 702.16,348.46 704.36,347.24 706.57,348.86 708.77,346.84 710.97,348.46 713.17,348.86 715.37,346.84 717.58,349.26 719.78,348.05 721.98,349.26 724.18,349.26 726.38,350.48 728.59,352.90 730.79,349.67 732.99,348.46 735.19,345.62 737.39,344.82 739.60,344.41 741.80,342.39 744.00,341.18 746.20,341.58 748.40,339.15 750.61,338.35 752.81,337.54 755.01,336.73 757.21,335.92 759.41,337.54 761.62,338.35 763.82,337.54 766.02,337.54 768.22,337.54 770.42,333.09 772.63,333.90 774.83,335.92 777.03,336.73 779.23,335.51 781.43,332.28 783.64,331.47 785.84,331.07 788.04,331.47 790.24,331.07 792.44,331.07 794.65,331.07 796.85,331.07 799.05,331.07 801.25,331.07 803.45,331.07 805.66,331.07 807.86,331.07 810.06,331.07 812.26,331.47 814.46,331.88 816.67,331.07 818.87,331.47 821.07,331.07 823.27,331.47 825.47,331.07 827.68,324.19 829.88,324.19 832.08,318.93 834.28,316.51 836.48,310.44 838.69,308.01 840.89,600.00 843.09,301.54 845.29,290.22 847.49,287.79 849.70,286.18 851.90,285.77 854.10,285.77 856.30,285.77 858.51,286.18 860.71,285.77 862.91,285.77 865.11,285.77 867.31,283.35 869.52,282.94 871.72,282.94 873.92,283.35 876.12,282.94 878.32,282.94 880.53,283.75 882.73,282.13 884.93,282.13 887.13,282.54 889.33,282.13 891.54,282.54 893.74,282.94 895.94,281.73 898.14,282.54 900.34,281.73 902.55,282.54 904.75,282.13 906.95,282.13 909.15,281.73 911.35,281.73 913.56,281.32 915.76,281.73 917.96,282.13 920.16,281.32 922.36,281.32 924.57,282.54 926.77,282.13 928.97,281.32 931.17,281.32 933.37,281.32 935.58,282.54 937.78,282.13 939.98,281.32 942.18,282.13 944.38,281.73 946.59,282.13 948.79,280.11 950.99,280.11 953.19,280.51 955.39,279.71 957.60,280.11 959.80,280.51 962.00,279.71 964.20,280.11 966.40,280.11 968.61,279.30 970.81,278.90 973.01,278.90 975.21,280.51 977.41,279.30 979.62,278.09 981.82,278.49 984.02,278.49 986.22,277.28 988.42,277.68 990.63,277.68 992.83,278.09 995.03,277.28 997.23,600.00 999.43,278.90 1001.64,279.30 1003.84,278.90 1006.04,278.49 1008.24,278.49 1010.44,278.49 1012.65,278.49 1014.85,278.49 1017.05,278.49 1019.25,278.49 1021.45,278.49 1023.66,278.49 1025.86,278.49 1028.06,278.49 1030.26,278.49 1032.46,600.00 1034.67,600.00 1036.87,254.63 1039.07,600.00 1041.27,245.74 1043.47,245.74 1045.68,246.14 1047.88,245.74 1050.08,245.74 1052.28,245.74 1054.48,245.74 1056.69,245.74 1058.89,240.07 1061.09,238.05 1063.29,238.05 1065.49,227.13 1067.70,227.13 1069.90,226.32 1072.10,227.54 1074.30,226.73 1076.51,226.32 1078.71,227.13 1080.91,227.13 1083.11,226.73 1085.31,226.32 1087.52,226.73 1089.72,226.73 1091.92,226.73 1094.12,225.11 1096.32,224.71 1098.53,225.11 1100.73,224.30 1102.93,226.32 1105.13,224.30 1107.33,225.51 1109.54,225.51 1111.74,225.51 1113.94,225.92 1116.14,223.09 1118.34,223.49 1120.55,223.09 1122.75,223.09 1124.95,223.90 1127.15,223.49 1129.35,223.49 1131.56,223.09 1133.76,223.09 1135.96,223.49 1138.16,223.09 1140.36,223.09 1142.57,223.49 1144.77,223.49 1146.97,223.09 1149.17,223.09 1151.37,223.49 1153.58,223.09 1155.78,223.09 1157.98,223.09 1160.18,223.49 1162.38,223.49 1164.59,223.49 1166.79,223.09 1168.99,223.49 1171.19,223.09 1173.39,223.09 1175.60,223.49 1177.80,223.09 1180.00,223.09"/>
<circle cx="90.00" cy="540.55" r="3.2" fill="#1d4ed8"/>
<circle cx="92.20" cy="538.53" r="3.2" fill="#1d4ed8"/>
<circle cx="94.40" cy="536.91" r="3.2" fill="#1d4ed8"/>
<circle cx="96.61" cy="534.49" r="3.2" fill="#1d4ed8"/>
<circle cx="98.81" cy="534.49" r="3.2" fill="#1d4ed8"/>
<circle cx="101.01" cy="533.27" r="3.2" fill="#1d4ed8"/>
<circle cx="103.21" cy="532.46" r="3.2" fill="#1d4ed8"/>
<circle cx="105.41" cy="532.87" r="3.2" fill="#1d4ed8"/>
<circle cx="107.62" cy="532.06" r="3.2" fill="#1d4ed8"/>
<circle cx="109.82" cy="532.46" r="3.2" fill="#1d4ed8"/>
<circle cx="112.02" cy="532.06" r="3.2" fill="#1d4ed8"/>
<circle cx="114.22" cy="568.46" r="3.2" fill="#1d4ed8"/>
<circle cx="116.42" cy="568.46" r="3.2" fill="#1d4ed8"/>
<circle cx="118.63" cy="566.43" r="3.2" fill="#1d4ed8"/>
<circle cx="120.83" cy="545.00" r="3.2" fill="#1d4ed8"/>
<circle cx="123.03" cy="545.00" r="3.2" fill="#1d4ed8"/>
<circle cx="125.23" cy="544.19" r="3.2" fill="#1d4ed8"/>
<circle cx="127.43" cy="543.79" r="3.2" fill="#1d4ed8"/>
<circle cx="129.64" cy="543.79" r="3.2" fill="#1d4ed8"/>
<circle cx="131.84" cy="543.38" r="3.2" fill="#1d4ed8"/>
<circle cx="134.04" cy="541.76" r="3.2" fill="#1d4ed8"/>
<circle cx="136.24" cy="541.36" r="3.2" fill="#1d4ed8"/>
<circle cx="138.44" cy="540.96" r="3.2" fill="#1d4ed8"/>
<circle cx="140.65" cy="540.96" r="3.2" fill="#1d4ed8"/>
<circle cx="142.85" cy="539.34" r="3.2" fill="#1d4ed8"/>
<circle cx="145.05" cy="539.34" r="3.2" fill="#1d4ed8"/>
<circle cx="147.25" cy="556.73" r="3.2" fill="#1d4ed8"/>
<circle cx="149.45" cy="556.73" r="3.2" fill="#1d4ed8"/>
<circle cx="151.66" cy="555.51" r="3.2" fill="#1d4ed8"/>
<circle cx="153.86" cy="551.07" r="3.2" fill="#1d4ed8"/>
<circle cx="156.06" cy="538.93" r="3.2" fill="#1d4ed8"/>
<circle cx="158.26" cy="538.93" r="3.2" fill="#1d4ed8"/>
<circle cx="160.46" cy="538.93" r="3.2" fill="#1d4ed8"/>
<circle cx="162.67" cy="538.12" r="3.2" fill="#1d4ed8"/>
<circle cx="164.87" cy="536.91" r="3.2" fill="#1d4ed8"/>
<circle cx="167.07" cy="536.91" r="3.2" fill="#1d4ed8"/>
<circle cx="169.27" cy="536.51" r="3.2" fill="#1d4ed8"/>
<circle cx="171.47" cy="536.51" r="3.2" fill="#1d4ed8"/>
<circle cx="173.68" cy="556.73" r="3.2" fill="#1d4ed8"/>
<circle cx="175.88" cy="556.73" r="3.2" fill="#1d4ed8"/>
<circle cx="178.08" cy="556.73" r="3.2" fill="#1d4ed8"/>
<circle cx="180.28" cy="556.73" r="3.2" fill="#1d4ed8"/>
<circle cx="182.48" cy="535.29" r="3.2" fill="#1d4ed8"/>
<circle cx="184.69" cy="535.29" r="3.2" fill="#1d4ed8"/>
<circle cx="186.89" cy="535.29" r="3.2" fill="#1d4ed8"/>
<circle cx="189.09" cy="535.29" r="3.2" fill="#1d4ed8"/>
<circle cx="191.29" cy="534.49" r="3.2" fill="#1d4ed8"/>
<circle cx="193.49" cy="534.08" r="3.2" fill="#1d4ed8"/>
<circle cx="195.70" cy="533.68" r="3.2" fill="#1d4ed8"/>
<circle cx="197.90" cy="532.87" r="3.2" fill="#1d4ed8"/>
<circle cx="200.10" cy="532.06" r="3.2" fill="#1d4ed8"/>
<circle cx="202.30" cy="532.06" r="3.2" fill="#1d4ed8"/>
<circle cx="204.51" cy="531.25" r="3.2" fill="#1d4ed8"/>
<circle cx="206.71" cy="530.85" r="3.2" fill="#1d4ed8"/>
<circle cx="208.91" cy="530.44" r="3.2" fill="#1d4ed8"/>
<circle cx="211.11" cy="530.04" r="3.2" fill="#1d4ed8"/>
<circle cx="213.31" cy="530.04" r="3.2" fill="#1d4ed8"/>
<circle cx="215.52" cy="529.23" r="3.2" fill="#1d4ed8"/>
<circle cx="217.72" cy="529.23" r="3.2" fill="#1d4ed8"/>
<circle cx="219.92" cy="529.23" r="3.2" fill="#1d4ed8"/>
<circle cx="222.12" cy="528.42" r="3.2" fill="#1d4ed8"/>
<circle cx="224.32" cy="528.42" r="3.2" fill="#1d4ed8"/>
<circle cx="226.53" cy="527.61" r="3.2" fill="#1d4ed8"/>
<circle cx="228.73" cy="527.21" r="3.2" fill="#1d4ed8"/>
<circle cx="230.93" cy="526.80" r="3.2" fill="#1d4ed8"/>
<circle cx="233.13" cy="526.40" r="3.2" fill="#1d4ed8"/>
<circle cx="235.33" cy="525.18" r="3.2" fill="#1d4ed8"/>
<circle cx="237.54" cy="523.57" r="3.2" fill="#1d4ed8"/>
<circle cx="239.74" cy="523.57" r="3.2" fill="#1d4ed8"/>
<circle cx="241.94" cy="523.16" r="3.2" fill="#1d4ed8"/>
<circle cx="244.14" cy="522.76" r="3.2" fill="#1d4ed8"/>
<circle cx="246.34" cy="522.35" r="3.2" fill="#1d4ed8"/>
<circle cx="248.55" cy="521.54" r="3.2" fill="#1d4ed8"/>
<circle cx="250.75" cy="519.52" r="3.2" fill="#1d4ed8"/>
<circle cx="252.95" cy="517.50" r="3.2" fill="#1d4ed8"/>
<circle cx="255.15" cy="517.50" r="3.2" fill="#1d4ed8"/>
<circle cx="257.35" cy="517.50" r="3.2" fill="#1d4ed8"/>
<circle cx="259.56" cy="517.50" r="3.2" fill="#1d4ed8"/>
<circle cx="261.76" cy="517.50" r="3.2" fill="#1d4ed8"/>
<circle cx="263.96" cy="517.50" r="3.2" fill="#1d4ed8"/>
<circle cx="266.16" cy="517.10" r="3.2" fill="#1d4ed8"/>
<circle cx="268.36" cy="516.69" r="3.2" fill="#1d4ed8"/>
<circle cx="270.57" cy="515.48" r="3.2" fill="#1d4ed8"/>
<circle cx="272.77" cy="515.07" r="3.2" fill="#1d4ed8"/>
<circle cx="274.97" cy="514.67" r="3.2" fill="#1d4ed8"/>
<circle cx="277.17" cy="513.86" r="3.2" fill="#1d4ed8"/>
<circle cx="279.37" cy="514.26" r="3.2" fill="#1d4ed8"/>
<circle cx="281.58" cy="512.24" r="3.2" fill="#1d4ed8"/>
<circle cx="283.78" cy="511.84" r="3.2" fill="#1d4ed8"/>
<circle cx="285.98" cy="511.84" r="3.2" fill="#1d4ed8"/>
<circle cx="288.18" cy="511.03" r="3.2" fill="#1d4ed8"/>
<circle cx="290.38" cy="509.82" r="3.2" fill="#1d4ed8"/>
<circle cx="292.59" cy="507.79" r="3.2" fill="#1d4ed8"/>
<circle cx="294.79" cy="506.99" r="3.2" fill="#1d4ed8"/>
<circle cx="296.99" cy="506.58" r="3.2" fill="#1d4ed8"/>
<circle cx="299.19" cy="509.41" r="3.2" fill="#1d4ed8"/>
<circle cx="301.39" cy="509.01" r="3.2" fill="#1d4ed8"/>
<circle cx="303.60" cy="504.96" r="3.2" fill="#1d4ed8"/>
<circle cx="305.80" cy="504.56" r="3.2" fill="#1d4ed8"/>
<circle cx="308.00" cy="504.15" r="3.2" fill="#1d4ed8"/>
<circle cx="310.20" cy="504.56" r="3.2" fill="#1d4ed8"/>
<circle cx="312.40" cy="503.75" r="3.2" fill="#1d4ed8"/>
<circle cx="314.61" cy="503.75" r="3.2" fill="#1d4ed8"/>
<circle cx="316.81" cy="503.35" r="3.2" fill="#1d4ed8"/>
<circle cx="319.01" cy="499.30" r="3.2" fill="#1d4ed8"/>
<circle cx="321.21" cy="496.47" r="3.2" fill="#1d4ed8"/>
<circle cx="323.41" cy="490.00" r="3.2" fill="#1d4ed8"/>
<circle cx="325.62" cy="484.34" r="3.2" fill="#1d4ed8"/>
<circle cx="327.82" cy="481.10" r="3.2" fill="#1d4ed8"/>
<circle cx="330.02" cy="480.29" r="3.2" fill="#1d4ed8"/>
<circle cx="332.22" cy="480.70" r="3.2" fill="#1d4ed8"/>
<circle cx="334.42" cy="460.88" r="3.2" fill="#1d4ed8"/>
<circle cx="336.63" cy="459.26" r="3.2" fill="#1d4ed8"/>
<circle cx="338.83" cy="458.05" r="3.2" fill="#1d4ed8"/>
<circle cx="341.03" cy="456.03" r="3.2" fill="#1d4ed8"/>
<circle cx="343.23" cy="456.03" r="3.2" fill="#1d4ed8"/>
<circle cx="345.43" cy="454.41" r="3.2" fill="#1d4ed8"/>
<circle cx="347.64" cy="450.77" r="3.2" fill="#1d4ed8"/>
<circle cx="349.84" cy="444.30" r="3.2" fill="#1d4ed8"/>
<circle cx="352.04" cy="443.90" r="3.2" fill="#1d4ed8"/>
<circle cx="354.24" cy="600.00" r="3.2" fill="#1d4ed8"/>
<circle cx="356.44" cy="441.88" r="3.2" fill="#1d4ed8"/>
<circle cx="358.65" cy="440.66" r="3.2" fill="#1d4ed8"/>
<circle cx="360.85" cy="439.45" r="3.2" fill="#1d4ed8"/>
<circle cx="363.05" cy="439.04" r="3.2" fill="#1d4ed8"/>
<circle cx="365.25" cy="438.64" r="3.2" fill="#1d4ed8"/>
<circle cx="367.45" cy="437.83" r="3.2" fill="#1d4ed8"/>
<circle cx="369.66" cy="436.62" r="3.2" fill="#1d4ed8"/>
<circle cx="371.86" cy="436.62" r="3.2" fill="#1d4ed8"/>
<circle cx="374.06" cy="434.60" r="3.2" fill="#1d4ed8"/>
<circle cx="376.26" cy="432.17" r="3.2" fill="#1d4ed8"/>
<circle cx="378.46" cy="429.34" r="3.2" fill="#1d4ed8"/>
<circle cx="380.67" cy="428.93" r="3.2" fill="#1d4ed8"/>
<circle cx="382.87" cy="428.53" r="3.2" fill="#1d4ed8"/>
<circle cx="385.07" cy="427.72" r="3.2" fill="#1d4ed8"/>
<circle cx="387.27" cy="426.91" r="3.2" fill="#1d4ed8"/>
<circle cx="389.47" cy="426.10" r="3.2" fill="#1d4ed8"/>
<circle cx="391.68" cy="426.10" r="3.2" fill="#1d4ed8"/>
<circle cx="393.88" cy="426.10" r="3.2" fill="#1d4ed8"/>
<circle cx="396.08" cy="419.63" r="3.2" fill="#1d4ed8"/>
<circle cx="398.28" cy="419.23" r="3.2" fill="#1d4ed8"/>
<circle cx="400.48" cy="418.42" r="3.2" fill="#1d4ed8"/>
<circle cx="402.69" cy="418.01" r="3.2" fill="#1d4ed8"/>
<circle cx="404.89" cy="417.61" r="3.2" fill="#1d4ed8"/>
<circle cx="407.09" cy="417.61" r="3.2" fill="#1d4ed8"/>
<circle cx="409.29" cy="417.61" r="3.2" fill="#1d4ed8"/>
<circle cx="411.49" cy="417.21" r="3.2" fill="#1d4ed8"/>
<circle cx="413.70" cy="417.21" r="3.2" fill="#1d4ed8"/>
<circle cx="415.90" cy="413.57" r="3.2" fill="#1d4ed8"/>
<circle cx="418.10" cy="411.95" r="3.2" fill="#1d4ed8"/>
<circle cx="420.30" cy="412.76" r="3.2" fill="#1d4ed8"/>
<circle cx="422.51" cy="410.74" r="3.2" fill="#1d4ed8"/>
<circle cx="424.71" cy="410.74" r="3.2" fill="#1d4ed8"/>
<circle cx="426.91" cy="410.33" r="3.2" fill="#1d4ed8"/>
<circle cx="429.11" cy="410.33" r="3.2" fill="#1d4ed8"/>
<circle cx="431.31" cy="410.33" r="3.2" fill="#1d4ed8"/>
<circle cx="433.52" cy="409.93" r="3.2" fill="#1d4ed8"/>
<circle cx="435.72" cy="409.93" r="3.2" fill="#1d4ed8"/>
<circle cx="437.92" cy="409.93" r="3.2" fill="#1d4ed8"/>
<circle cx="440.12" cy="409.52" r="3.2" fill="#1d4ed8"/>
<circle cx="442.32" cy="409.52" r="3.2" fill="#1d4ed8"/>
<circle cx="444.53" cy="409.12" r="3.2" fill="#1d4ed8"/>
<circle cx="446.73" cy="409.52" r="3.2" fill="#1d4ed8"/>
<circle cx="448.93" cy="409.12" r="3.2" fill="#1d4ed8"/>
<circle cx="451.13" cy="407.50" r="3.2" fill="#1d4ed8"/>
<circle cx="453.33" cy="407.10" r="3.2" fill="#1d4ed8"/>
<circle cx="455.54" cy="403.05" r="3.2" fill="#1d4ed8"/>
<circle cx="457.74" cy="399.82" r="3.2" fill="#1d4ed8"/>
<circle cx="459.94" cy="400.22" r="3.2" fill="#1d4ed8"/>
<circle cx="462.14" cy="400.62" r="3.2" fill="#1d4ed8"/>
<circle cx="464.34" cy="400.62" r="3.2" fill="#1d4ed8"/>
<circle cx="466.55" cy="399.41" r="3.2" fill="#1d4ed8"/>
<circle cx="468.75" cy="392.94" r="3.2" fill="#1d4ed8"/>
<circle cx="470.95" cy="391.32" r="3.2" fill="#1d4ed8"/>
<circle cx="473.15" cy="389.30" r="3.2" fill="#1d4ed8"/>
<circle cx="475.35" cy="389.30" r="3.2" fill="#1d4ed8"/>
<circle cx="477.56" cy="388.49" r="3.2" fill="#1d4ed8"/>
<circle cx="479.76" cy="375.15" r="3.2" fill="#1d4ed8"/>
<circle cx="481.96" cy="374.74" r="3.2" fill="#1d4ed8"/>
<circle cx="484.16" cy="374.74" r="3.2" fill="#1d4ed8"/>
<circle cx="486.36" cy="374.74" r="3.2" fill="#1d4ed8"/>
<circle cx="488.57" cy="374.74" r="3.2" fill="#1d4ed8"/>
<circle cx="490.77" cy="374.34" r="3.2" fill="#1d4ed8"/>
<circle cx="492.97" cy="374.34" r="3.2" fill="#1d4ed8"/>
<circle cx="495.17" cy="374.34" r="3.2" fill="#1d4ed8"/>
<circle cx="497.37" cy="374.34" r="3.2" fill="#1d4ed8"/>
<circle cx="499.58" cy="374.34" r="3.2" fill="#1d4ed8"/>
<circle cx="501.78" cy="373.93" r="3.2" fill="#1d4ed8"/>
<circle cx="503.98" cy="373.12" r="3.2" fill="#1d4ed8"/>
<circle cx="506.18" cy="372.72" r="3.2" fill="#1d4ed8"/>
<circle cx="508.38" cy="373.53" r="3.2" fill="#1d4ed8"/>
<circle cx="510.59" cy="435.81" r="3.2" fill="#1d4ed8"/>
<circle cx="512.79" cy="372.32" r="3.2" fill="#1d4ed8"/>
<circle cx="514.99" cy="372.72" r="3.2" fill="#1d4ed8"/>
<circle cx="517.19" cy="371.91" r="3.2" fill="#1d4ed8"/>
<circle cx="519.39" cy="371.91" r="3.2" fill="#1d4ed8"/>
<circle cx="521.60" cy="372.32" r="3.2" fill="#1d4ed8"/>
<circle cx="523.80" cy="371.10" r="3.2" fill="#1d4ed8"/>
<circle cx="526.00" cy="369.89" r="3.2" fill="#1d4ed8"/>
<circle cx="528.20" cy="369.89" r="3.2" fill="#1d4ed8"/>
<circle cx="530.40" cy="369.89" r="3.2" fill="#1d4ed8"/>
<circle cx="532.61" cy="369.49" r="3.2" fill="#1d4ed8"/>
<circle cx="534.81" cy="369.89" r="3.2" fill="#1d4ed8"/>
<circle cx="537.01" cy="369.08" r="3.2" fill="#1d4ed8"/>
<circle cx="539.21" cy="368.68" r="3.2" fill="#1d4ed8"/>
<circle cx="541.41" cy="368.27" r="3.2" fill="#1d4ed8"/>
<circle cx="543.62" cy="367.87" r="3.2" fill="#1d4ed8"/>
<circle cx="545.82" cy="367.06" r="3.2" fill="#1d4ed8"/>
<circle cx="548.02" cy="367.46" r="3.2" fill="#1d4ed8"/>
<circle cx="550.22" cy="367.06" r="3.2" fill="#1d4ed8"/>
<circle cx="552.42" cy="366.25" r="3.2" fill="#1d4ed8"/>
<circle cx="554.63" cy="368.27" r="3.2" fill="#1d4ed8"/>
<circle cx="556.83" cy="368.68" r="3.2" fill="#1d4ed8"/>
<circle cx="559.03" cy="368.68" r="3.2" fill="#1d4ed8"/>
<circle cx="561.23" cy="368.27" r="3.2" fill="#1d4ed8"/>
<circle cx="563.43" cy="369.08" r="3.2" fill="#1d4ed8"/>
<circle cx="565.64" cy="367.87" r="3.2" fill="#1d4ed8"/>
<circle cx="567.84" cy="367.46" r="3.2" fill="#1d4ed8"/>
<circle cx="570.04" cy="367.06" r="3.2" fill="#1d4ed8"/>
<circle cx="572.24" cy="360.18" r="3.2" fill="#1d4ed8"/>
<circle cx="574.44" cy="359.78" r="3.2" fill="#1d4ed8"/>
<circle cx="576.65" cy="359.38" r="3.2" fill="#1d4ed8"/>
<circle cx="578.85" cy="356.95" r="3.2" fill="#1d4ed8"/>
<circle cx="581.05" cy="357.35" r="3.2" fill="#1d4ed8"/>
<circle cx="583.25" cy="357.76" r="3.2" fill="#1d4ed8"/>
<circle cx="585.45" cy="355.33" r="3.2" fill="#1d4ed8"/>
<circle cx="587.66" cy="355.74" r="3.2" fill="#1d4ed8"/>
<circle cx="589.86" cy="357.35" r="3.2" fill="#1d4ed8"/>
<circle cx="592.06" cy="355.33" r="3.2" fill="#1d4ed8"/>
<circle cx="594.26" cy="356.14" r="3.2" fill="#1d4ed8"/>
<circle cx="596.46" cy="355.74" r="3.2" fill="#1d4ed8"/>
<circle cx="598.67" cy="356.14" r="3.2" fill="#1d4ed8"/>
<circle cx="600.87" cy="354.12" r="3.2" fill="#1d4ed8"/>
<circle cx="603.07" cy="354.93" r="3.2" fill="#1d4ed8"/>
<circle cx="605.27" cy="356.14" r="3.2" fill="#1d4ed8"/>
<circle cx="607.47" cy="354.52" r="3.2" fill="#1d4ed8"/>
<circle cx="609.68" cy="353.71" r="3.2" fill="#1d4ed8"/>
<circle cx="611.88" cy="354.12" r="3.2" fill="#1d4ed8"/>
<circle cx="614.08" cy="354.93" r="3.2" fill="#1d4ed8"/>
<circle cx="616.28" cy="352.90" r="3.2" fill="#1d4ed8"/>
<circle cx="618.48" cy="353.71" r="3.2" fill="#1d4ed8"/>
<circle cx="620.69" cy="353.31" r="3.2" fill="#1d4ed8"/>
<circle cx="622.89" cy="353.31" r="3.2" fill="#1d4ed8"/>
<circle cx="625.09" cy="354.52" r="3.2" fill="#1d4ed8"/>
<circle cx="627.29" cy="352.90" r="3.2" fill="#1d4ed8"/>
<circle cx="629.49" cy="352.50" r="3.2" fill="#1d4ed8"/>
<circle cx="631.70" cy="352.50" r="3.2" fill="#1d4ed8"/>
<circle cx="633.90" cy="353.31" r="3.2" fill="#1d4ed8"/>
<circle cx="636.10" cy="352.50" r="3.2" fill="#1d4ed8"/>
<circle cx="638.30" cy="353.71" r="3.2" fill="#1d4ed8"/>
<circle cx="640.51" cy="354.12" r="3.2" fill="#1d4ed8"/>
<circle cx="642.71" cy="352.50" r="3.2" fill="#1d4ed8"/>
<circle cx="644.91" cy="352.90" r="3.2" fill="#1d4ed8"/>
<circle cx="647.11" cy="352.50" r="3.2" fill="#1d4ed8"/>
<circle cx="649.31" cy="352.10" r="3.2" fill="#1d4ed8"/>
<circle cx="651.52" cy="351.69" r="3.2" fill="#1d4ed8"/>
<circle cx="653.72" cy="352.10" r="3.2" fill="#1d4ed8"/>
<circle cx="655.92" cy="354.12" r="3.2" fill="#1d4ed8"/>
<circle cx="658.12" cy="352.50" r="3.2" fill="#1d4ed8"/>
<circle cx="660.32" cy="352.10" r="3.2" fill="#1d4ed8"/>
<circle cx="662.53" cy="352.10" r="3.2" fill="#1d4ed8"/>
<circle cx="664.73" cy="349.67" r="3.2" fill="#1d4ed8"/>
<circle cx="666.93" cy="349.67" r="3.2" fill="#1d4ed8"/>
<circle cx="669.13" cy="350.88" r="3.2" fill="#1d4ed8"/>
<circle cx="671.33" cy="351.29" r="3.2" fill="#1d4ed8"/>
<circle cx="673.54" cy="350.48" r="3.2" fill="#1d4ed8"/>
<circle cx="675.74" cy="352.10" r="3.2" fill="#1d4ed8"/>
<circle cx="677.94" cy="350.48" r="3.2" fill="#1d4ed8"/>
<circle cx="680.14" cy="350.48" r="3.2" fill="#1d4ed8"/>
<circle cx="682.34" cy="350.48" r="3.2" fill="#1d4ed8"/>
<circle cx="684.55" cy="350.07" r="3.2" fill="#1d4ed8"/>
<circle cx="686.75" cy="348.46" r="3.2" fill="#1d4ed8"/>
<circle cx="688.95" cy="351.29" r="3.2" fill="#1d4ed8"/>
<circle cx="691.15" cy="349.67" r="3.2" fill="#1d4ed8"/>
<circle cx="693.35" cy="351.29" r="3.2" fill="#1d4ed8"/>
<circle cx="695.56" cy="349.67" r="3.2" fill="#1d4ed8"/>
<circle cx="697.76" cy="348.86" r="3.2" fill="#1d4ed8"/>
<circle cx="699.96" cy="348.46" r="3.2" fill="#1d4ed8"/>
<circle cx="702.16" cy="348.46" r="3.2" fill="#1d4ed8"/>
<circle cx="704.36" cy="347.24" r="3.2" fill="#1d4ed8"/>
<circle cx="706.57" cy="348.86" r="3.2" fill="#1d4ed8"/>
<circle cx="708.77" cy="346.84" r="3.2" fill="#1d4ed8"/>
<circle cx="710.97" cy="348.46" r="3.2" fill="#1d4ed8"/>
<circle cx="713.17" cy="348.86" r="3.2" fill="#1d4ed8"/>
<circle cx="715.37" cy="346.84" r="3.2" fill="#1d4ed8"/>
<circle cx="717.58" cy="349.26" r="3.2" fill="#1d4ed8"/>
<circle cx="719.78" cy="348.05" r="3.2" fill="#1d4ed8"/>
<circle cx="721.98" cy="349.26" r="3.2" fill="#1d4ed8"/>
<circle cx="724.18" cy="349.26" r="3.2" fill="#1d4ed8"/>
<circle cx="726.38" cy="350.48" r="3.2" fill="#1d4ed8"/>
<circle cx="728.59" cy="352.90" r="3.2" fill="#1d4ed8"/>
<circle cx="730.79" cy="349.67" r="3.2" fill="#1d4ed8"/>
<circle cx="732.99" cy="348.46" r="3.2" fill="#1d4ed8"/>
<circle cx="735.19" cy="345.62" r="3.2" fill="#1d4ed8"/>
<circle cx="737.39" cy="344.82" r="3.2" fill="#1d4ed8"/>
<circle cx="739.60" cy="344.41" r="3.2" fill="#1d4ed8"/>
<circle cx="741.80" cy="342.39" r="3.2" fill="#1d4ed8"/>
<circle cx="744.00" cy="341.18" r="3.2" fill="#1d4ed8"/>
<circle cx="746.20" cy="341.58" r="3.2" fill="#1d4ed8"/>
<circle cx="748.40" cy="339.15" r="3.2" fill="#1d4ed8"/>
<circle cx="750.61" cy="338.35" r="3.2" fill="#1d4ed8"/>
<circle cx="752.81" cy="337.54" r="3.2" fill="#1d4ed8"/>
<circle cx="755.01" cy="336.73" r="3.2" fill="#1d4ed8"/>
<circle cx="757.21" cy="335.92" r="3.2" fill="#1d4ed8"/>
<circle cx="759.41" cy="337.54" r="3.2" fill="#1d4ed8"/>
<circle cx="761.62" cy="338.35" r="3.2" fill="#1d4ed8"/>
<circle cx="763.82" cy="337.54" r="3.2" fill="#1d4ed8"/>
<circle cx="766.02" cy="337.54" r="3.2" fill="#1d4ed8"/>
<circle cx="768.22" cy="337.54" r="3.2" fill="#1d4ed8"/>
<circle cx="770.42" cy="333.09" r="3.2" fill="#1d4ed8"/>
<circle cx="772.63" cy="333.90" r="3.2" fill="#1d4ed8"/>
<circle cx="774.83" cy="335.92" r="3.2" fill="#1d4ed8"/>
<circle cx="777.03" cy="336.73" r="3.2" fill="#1d4ed8"/>
<circle cx="779.23" cy="335.51" r="3.2" fill="#1d4ed8"/>
<circle cx="781.43" cy="332.28" r="3.2" fill="#1d4ed8"/>
<circle cx="783.64" cy="331.47" r="3.2" fill="#1d4ed8"/>
<circle cx="785.84" cy="331.07" r="3.2" fill="#1d4ed8"/>
<circle cx="788.04" cy="331.47" r="3.2" fill="#1d4ed8"/>
<circle cx="790.24" cy="331.07" r="3.2" fill="#1d4ed8"/>
<circle cx="792.44" cy="331.07" r="3.2" fill="#1d4ed8"/>
<circle cx="794.65" cy="331.07" r="3.2" fill="#1d4ed8"/>
<circle cx="796.85" cy="331.07" r="3.2" fill="#1d4ed8"/>
<circle cx="799.05" cy="331.07" r="3.2" fill="#1d4ed8"/>
<circle cx="801.25" cy="331.07" r="3.2" fill="#1d4ed8"/>
<circle cx="803.45" cy="331.07" r="3.2" fill="#1d4ed8"/>
<circle cx="805.66" cy="331.07" r="3.2" fill="#1d4ed8"/>
<circle cx="807.86" cy="331.07" r="3.2" fill="#1d4ed8"/>
<circle cx="810.06" cy="331.07" r="3.2" fill="#1d4ed8"/>
<circle cx="812.26" cy="331.47" r="3.2" fill="#1d4ed8"/>
<circle cx="814.46" cy="331.88" r="3.2" fill="#1d4ed8"/>
<circle cx="816.67" cy="331.07" r="3.2" fill="#1d4ed8"/>
<circle cx="818.87" cy="331.47" r="3.2" fill="#1d4ed8"/>
<circle cx="821.07" cy="331.07" r="3.2" fill="#1d4ed8"/>
<circle cx="823.27" cy="331.47" r="3.2" fill="#1d4ed8"/>
<circle cx="825.47" cy="331.07" r="3.2" fill="#1d4ed8"/>
<circle cx="827.68" cy="324.19" r="3.2" fill="#1d4ed8"/>
<circle cx="829.88" cy="324.19" r="3.2" fill="#1d4ed8"/>
<circle cx="832.08" cy="318.93" r="3.2" fill="#1d4ed8"/>
<circle cx="834.28" cy="316.51" r="3.2" fill="#1d4ed8"/>
<circle cx="836.48" cy="310.44" r="3.2" fill="#1d4ed8"/>
<circle cx="838.69" cy="308.01" r="3.2" fill="#1d4ed8"/>
<circle cx="840.89" cy="600.00" r="3.2" fill="#1d4ed8"/>
<circle cx="843.09" cy="301.54" r="3.2" fill="#1d4ed8"/>
<circle cx="845.29" cy="290.22" r="3.2" fill="#1d4ed8"/>
<circle cx="847.49" cy="287.79" r="3.2" fill="#1d4ed8"/>
<circle cx="849.70" cy="286.18" r="3.2" fill="#1d4ed8"/>
<circle cx="851.90" cy="285.77" r="3.2" fill="#1d4ed8"/>
<circle cx="854.10" cy="285.77" r="3.2" fill="#1d4ed8"/>
<circle cx="856.30" cy="285.77" r="3.2" fill="#1d4ed8"/>
<circle cx="858.51" cy="286.18" r="3.2" fill="#1d4ed8"/>
<circle cx="860.71" cy="285.77" r="3.2" fill="#1d4ed8"/>
<circle cx="862.91" cy="285.77" r="3.2" fill="#1d4ed8"/>
<circle cx="865.11" cy="285.77" r="3.2" fill="#1d4ed8"/>
<circle cx="867.31" cy="283.35" r="3.2" fill="#1d4ed8"/>
<circle cx="869.52" cy="282.94" r="3.2" fill="#1d4ed8"/>
<circle cx="871.72" cy="282.94" r="3.2" fill="#1d4ed8"/>
<circle cx="873.92" cy="283.35" r="3.2" fill="#1d4ed8"/>
<circle cx="876.12" cy="282.94" r="3.2" fill="#1d4ed8"/>
<circle cx="878.32" cy="282.94" r="3.2" fill="#1d4ed8"/>
<circle cx="880.53" cy="283.75" r="3.2" fill="#1d4ed8"/>
<circle cx="882.73" cy="282.13" r="3.2" fill="#1d4ed8"/>
<circle cx="884.93" cy="282.13" r="3.2" fill="#1d4ed8"/>
<circle cx="887.13" cy="282.54" r="3.2" fill="#1d4ed8"/>
<circle cx="889.33" cy="282.13" r="3.2" fill="#1d4ed8"/>
<circle cx="891.54" cy="282.54" r="3.2" fill="#1d4ed8"/>
<circle cx="893.74" cy="282.94" r="3.2" fill="#1d4ed8"/>
<circle cx="895.94" cy="281.73" r="3.2" fill="#1d4ed8"/>
<circle cx="898.14" cy="282.54" r="3.2" fill="#1d4ed8"/>
<circle cx="900.34" cy="281.73" r="3.2" fill="#1d4ed8"/>
<circle cx="902.55" cy="282.54" r="3.2" fill="#1d4ed8"/>
<circle cx="904.75" cy="282.13" r="3.2" fill="#1d4ed8"/>
<circle cx="906.95" cy="282.13" r="3.2" fill="#1d4ed8"/>
<circle cx="909.15" cy="281.73" r="3.2" fill="#1d4ed8"/>
<circle cx="911.35" cy="281.73" r="3.2" fill="#1d4ed8"/>
<circle cx="913.56" cy="281.32" r="3.2" fill="#1d4ed8"/>
<circle cx="915.76" cy="281.73" r="3.2" fill="#1d4ed8"/>
<circle cx="917.96" cy="282.13" r="3.2" fill="#1d4ed8"/>
<circle cx="920.16" cy="281.32" r="3.2" fill="#1d4ed8"/>
<circle cx="922.36" cy="281.32" r="3.2" fill="#1d4ed8"/>
<circle cx="924.57" cy="282.54" r="3.2" fill="#1d4ed8"/>
<circle cx="926.77" cy="282.13" r="3.2" fill="#1d4ed8"/>
<circle cx="928.97" cy="281.32" r="3.2" fill="#1d4ed8"/>
<circle cx="931.17" cy="281.32" r="3.2" fill="#1d4ed8"/>
<circle cx="933.37" cy="281.32" r="3.2" fill="#1d4ed8"/>
<circle cx="935.58" cy="282.54" r="3.2" fill="#1d4ed8"/>
<circle cx="937.78" cy="282.13" r="3.2" fill="#1d4ed8"/>
<circle cx="939.98" cy="281.32" r="3.2" fill="#1d4ed8"/>
<circle cx="942.18" cy="282.13" r="3.2" fill="#1d4ed8"/>
<circle cx="944.38" cy="281.73" r="3.2" fill="#1d4ed8"/>
<circle cx="946.59" cy="282.13" r="3.2" fill="#1d4ed8"/>
<circle cx="948.79" cy="280.11" r="3.2" fill="#1d4ed8"/>
<circle cx="950.99" cy="280.11" r="3.2" fill="#1d4ed8"/>
<circle cx="953.19" cy="280.51" r="3.2" fill="#1d4ed8"/>
<circle cx="955.39" cy="279.71" r="3.2" fill="#1d4ed8"/>
<circle cx="957.60" cy="280.11" r="3.2" fill="#1d4ed8"/>
<circle cx="959.80" cy="280.51" r="3.2" fill="#1d4ed8"/>
<circle cx="962.00" cy="279.71" r="3.2" fill="#1d4ed8"/>
<circle cx="964.20" cy="280.11" r="3.2" fill="#1d4ed8"/>
<circle cx="966.40" cy="280.11" r="3.2" fill="#1d4ed8"/>
<circle cx="968.61" cy="279.30" r="3.2" fill="#1d4ed8"/>
<circle cx="970.81" cy="278.90" r="3.2" fill="#1d4ed8"/>
<circle cx="973.01" cy="278.90" r="3.2" fill="#1d4ed8"/>
<circle cx="975.21" cy="280.51" r="3.2" fill="#1d4ed8"/>
<circle cx="977.41" cy="279.30" r="3.2" fill="#1d4ed8"/>
<circle cx="979.62" cy="278.09" r="3.2" fill="#1d4ed8"/>
<circle cx="981.82" cy="278.49" r="3.2" fill="#1d4ed8"/>
<circle cx="984.02" cy="278.49" r="3.2" fill="#1d4ed8"/>
<circle cx="986.22" cy="277.28" r="3.2" fill="#1d4ed8"/>
<circle cx="988.42" cy="277.68" r="3.2" fill="#1d4ed8"/>
<circle cx="990.63" cy="277.68" r="3.2" fill="#1d4ed8"/>
<circle cx="992.83" cy="278.09" r="3.2" fill="#1d4ed8"/>
<circle cx="995.03" cy="277.28" r="3.2" fill="#1d4ed8"/>
<circle cx="997.23" cy="600.00" r="3.2" fill="#1d4ed8"/>
<circle cx="999.43" cy="278.90" r="3.2" fill="#1d4ed8"/>
<circle cx="1001.64" cy="279.30" r="3.2" fill="#1d4ed8"/>
<circle cx="1003.84" cy="278.90" r="3.2" fill="#1d4ed8"/>
<circle cx="1006.04" cy="278.49" r="3.2" fill="#1d4ed8"/>
<circle cx="1008.24" cy="278.49" r="3.2" fill="#1d4ed8"/>
<circle cx="1010.44" cy="278.49" r="3.2" fill="#1d4ed8"/>
<circle cx="1012.65" cy="278.49" r="3.2" fill="#1d4ed8"/>
<circle cx="1014.85" cy="278.49" r="3.2" fill="#1d4ed8"/>
<circle cx="1017.05" cy="278.49" r="3.2" fill="#1d4ed8"/>
<circle cx="1019.25" cy="278.49" r="3.2" fill="#1d4ed8"/>
<circle cx="1021.45" cy="278.49" r="3.2" fill="#1d4ed8"/>
<circle cx="1023.66" cy="278.49" r="3.2" fill="#1d4ed8"/>
<circle cx="1025.86" cy="278.49" r="3.2" fill="#1d4ed8"/>
<circle cx="1028.06" cy="278.49" r="3.2" fill="#1d4ed8"/>
<circle cx="1030.26" cy="278.49" r="3.2" fill="#1d4ed8"/>
<circle cx="1032.46" cy="600.00" r="3.2" fill="#1d4ed8"/>
<circle cx="1034.67" cy="600.00" r="3.2" fill="#1d4ed8"/>
<circle cx="1036.87" cy="254.63" r="3.2" fill="#1d4ed8"/>
<circle cx="1039.07" cy="600.00" r="3.2" fill="#1d4ed8"/>
<circle cx="1041.27" cy="245.74" r="3.2" fill="#1d4ed8"/>
<circle cx="1043.47" cy="245.74" r="3.2" fill="#1d4ed8"/>
<circle cx="1045.68" cy="246.14" r="3.2" fill="#1d4ed8"/>
<circle cx="1047.88" cy="245.74" r="3.2" fill="#1d4ed8"/>
<circle cx="1050.08" cy="245.74" r="3.2" fill="#1d4ed8"/>
<circle cx="1052.28" cy="245.74" r="3.2" fill="#1d4ed8"/>
<circle cx="1054.48" cy="245.74" r="3.2" fill="#1d4ed8"/>
<circle cx="1056.69" cy="245.74" r="3.2" fill="#1d4ed8"/>
<circle cx="1058.89" cy="240.07" r="3.2" fill="#1d4ed8"/>
<circle cx="1061.09" cy="238.05" r="3.2" fill="#1d4ed8"/>
<circle cx="1063.29" cy="238.05" r="3.2" fill="#1d4ed8"/>
<circle cx="1065.49" cy="227.13" r="3.2" fill="#1d4ed8"/>
<circle cx="1067.70" cy="227.13" r="3.2" fill="#1d4ed8"/>
<circle cx="1069.90" cy="226.32" r="3.2" fill="#1d4ed8"/>
<circle cx="1072.10" cy="227.54" r="3.2" fill="#1d4ed8"/>
<circle cx="1074.30" cy="226.73" r="3.2" fill="#1d4ed8"/>
<circle cx="1076.51" cy="226.32" r="3.2" fill="#1d4ed8"/>
<circle cx="1078.71" cy="227.13" r="3.2" fill="#1d4ed8"/>
<circle cx="1080.91" cy="227.13" r="3.2" fill="#1d4ed8"/>
<circle cx="1083.11" cy="226.73" r="3.2" fill="#1d4ed8"/>
<circle cx="1085.31" cy="226.32" r="3.2" fill="#1d4ed8"/>
<circle cx="1087.52" cy="226.73" r="3.2" fill="#1d4ed8"/>
<circle cx="1089.72" cy="226.73" r="3.2" fill="#1d4ed8"/>
<circle cx="1091.92" cy="226.73" r="3.2" fill="#1d4ed8"/>
<circle cx="1094.12" cy="225.11" r="3.2" fill="#1d4ed8"/>
<circle cx="1096.32" cy="224.71" r="3.2" fill="#1d4ed8"/>
<circle cx="1098.53" cy="225.11" r="3.2" fill="#1d4ed8"/>
<circle cx="1100.73" cy="224.30" r="3.2" fill="#1d4ed8"/>
<circle cx="1102.93" cy="226.32" r="3.2" fill="#1d4ed8"/>
<circle cx="1105.13" cy="224.30" r="3.2" fill="#1d4ed8"/>
<circle cx="1107.33" cy="225.51" r="3.2" fill="#1d4ed8"/>
<circle cx="1109.54" cy="225.51" r="3.2" fill="#1d4ed8"/>
<circle cx="1111.74" cy="225.51" r="3.2" fill="#1d4ed8"/>
<circle cx="1113.94" cy="225.92" r="3.2" fill="#1d4ed8"/>
<circle cx="1116.14" cy="223.09" r="3.2" fill="#1d4ed8"/>
<circle cx="1118.34" cy="223.49" r="3.2" fill="#1d4ed8"/>
<circle cx="1120.55" cy="223.09" r="3.2" fill="#1d4ed8"/>
<circle cx="1122.75" cy="223.09" r="3.2" fill="#1d4ed8"/>
<circle cx="1124.95" cy="223.90" r="3.2" fill="#1d4ed8"/>
<circle cx="1127.15" cy="223.49" r="3.2" fill="#1d4ed8"/>
<circle cx="1129.35" cy="223.49" r="3.2" fill="#1d4ed8"/>
<circle cx="1131.56" cy="223.09" r="3.2" fill="#1d4ed8"/>
<circle cx="1133.76" cy="223.09" r="3.2" fill="#1d4ed8"/>
<circle cx="1135.96" cy="223.49" r="3.2" fill="#1d4ed8"/>
<circle cx="1138.16" cy="223.09" r="3.2" fill="#1d4ed8"/>
<circle cx="1140.36" cy="223.09" r="3.2" fill="#1d4ed8"/>
<circle cx="1142.57" cy="223.49" r="3.2" fill="#1d4ed8"/>
<circle cx="1144.77" cy="223.49" r="3.2" fill="#1d4ed8"/>
<circle cx="1146.97" cy="223.09" r="3.2" fill="#1d4ed8"/>
<circle cx="1149.17" cy="223.09" r="3.2" fill="#1d4ed8"/>
<circle cx="1151.37" cy="223.49" r="3.2" fill="#1d4ed8"/>
<circle cx="1153.58" cy="223.09" r="3.2" fill="#1d4ed8"/>
<circle cx="1155.78" cy="223.09" r="3.2" fill="#1d4ed8"/>
<circle cx="1157.98" cy="223.09" r="3.2" fill="#1d4ed8"/>
<circle cx="1160.18" cy="223.49" r="3.2" fill="#1d4ed8"/>
<circle cx="1162.38" cy="223.49" r="3.2" fill="#1d4ed8"/>
<circle cx="1164.59" cy="223.49" r="3.2" fill="#1d4ed8"/>
<circle cx="1166.79" cy="223.09" r="3.2" fill="#1d4ed8"/>
<circle cx="1168.99" cy="223.49" r="3.2" fill="#1d4ed8"/>
<circle cx="1171.19" cy="223.09" r="3.2" fill="#1d4ed8"/>
<circle cx="1173.39" cy="223.09" r="3.2" fill="#1d4ed8"/>
<circle cx="1175.60" cy="223.49" r="3.2" fill="#1d4ed8"/>
<circle cx="1177.80" cy="223.09" r="3.2" fill="#1d4ed8"/>
<circle cx="1180.00" cy="223.09" r="3.2" fill="#1d4ed8"/>
<text x="635" y="695" text-anchor="middle" font-size="14" fill="#111" font-family="sans-serif">Date</text>
<text x="24" y="325" text-anchor="middle" font-size="14" fill="#111" transform="rotate(-90 24,325)" font-family="sans-serif">Passed files</text>
</svg>
