<?xml version="1.0" encoding="UTF-8"?>
<svg xmlns="http://www.w3.org/2000/svg" width="1280" height="720" viewBox="0 0 1280 720">
<rect width="100%" height="100%" fill="#ffffff"/>
<text x="640" y="30" text-anchor="middle" font-size="22" font-family="sans-serif">Roast passed files history</text>
<line x1="90" y1="600" x2="1180" y2="600" stroke="#333" stroke-width="1.5"/>
<line x1="90" y1="50" x2="90" y2="600" stroke="#333" stroke-width="1.5"/>
<line x1="90" y1="600.00" x2="1180" y2="600.00" stroke="#e5e7eb" stroke-width="1"/>
<text x="78" y="605.00" text-anchor="end" font-size="12" fill="#111" font-family="sans-serif">0</text>
<line x1="90" y1="397.79" x2="1180" y2="397.79" stroke="#e5e7eb" stroke-width="1"/>
<text x="78" y="402.79" text-anchor="end" font-size="12" fill="#111" font-family="sans-serif">500</text>
<line x1="90" y1="195.59" x2="1180" y2="195.59" stroke="#e5e7eb" stroke-width="1"/>
<text x="78" y="200.59" text-anchor="end" font-size="12" fill="#111" font-family="sans-serif">1000</text>
<line x1="90.00" y1="600" x2="90.00" y2="606" stroke="#333" stroke-width="1"/>
<text x="90.00" y="624" text-anchor="end" font-size="11" fill="#111" transform="rotate(-40 90.00,624)" font-family="sans-serif">2026-02-12</text>
<line x1="223.74" y1="600" x2="223.74" y2="606" stroke="#333" stroke-width="1"/>
<text x="223.74" y="624" text-anchor="end" font-size="11" fill="#111" transform="rotate(-40 223.74,624)" font-family="sans-serif">2026-02-17</text>
<line x1="357.48" y1="600" x2="357.48" y2="606" stroke="#333" stroke-width="1"/>
<text x="357.48" y="624" text-anchor="end" font-size="11" fill="#111" transform="rotate(-40 357.48,624)" font-family="sans-serif">2026-02-20</text>
<line x1="491.23" y1="600" x2="491.23" y2="606" stroke="#333" stroke-width="1"/>
<text x="491.23" y="624" text-anchor="end" font-size="11" fill="#111" transform="rotate(-40 491.23,624)" font-family="sans-serif">2026-02-25</text>
<line x1="624.97" y1="600" x2="624.97" y2="606" stroke="#333" stroke-width="1"/>
<text x="624.97" y="624" text-anchor="end" font-size="11" fill="#111" transform="rotate(-40 624.97,624)" font-family="sans-serif">2026-02-27</text>
<line x1="758.71" y1="600" x2="758.71" y2="606" stroke="#333" stroke-width="1"/>
<text x="758.71" y="624" text-anchor="end" font-size="11" fill="#111" transform="rotate(-40 758.71,624)" font-family="sans-serif">2026-03-01</text>
<line x1="892.45" y1="600" x2="892.45" y2="606" stroke="#333" stroke-width="1"/>
<text x="892.45" y="624" text-anchor="end" font-size="11" fill="#111" transform="rotate(-40 892.45,624)" font-family="sans-serif">2026-03-06</text>
<line x1="1026.20" y1="600" x2="1026.20" y2="606" stroke="#333" stroke-width="1"/>
<text x="1026.20" y="624" text-anchor="end" font-size="11" fill="#111" transform="rotate(-40 1026.20,624)" font-family="sans-serif">2026-03-07</text>
<line x1="1159.94" y1="600" x2="1159.94" y2="606" stroke="#333" stroke-width="1"/>
<text x="1159.94" y="624" text-anchor="end" font-size="11" fill="#111" transform="rotate(-40 1159.94,624)" font-family="sans-serif">2026-03-11</text>
<line x1="1180.00" y1="600" x2="1180.00" y2="606" stroke="#333" stroke-width="1"/>
<text x="1180.00" y="624" text-anchor="end" font-size="11" fill="#111" transform="rotate(-40 1180.00,624)" font-family="sans-serif">2026-03-11</text>
<line x1="90" y1="75.88" x2="1180" y2="75.88" stroke="#dc2626" stroke-width="1.5" stroke-dasharray="8,4"/>
<text x="1184" y="79.88" font-size="12" fill="#dc2626" font-family="sans-serif">Goal: 1296</text>
<polyline fill="none" stroke="#2563eb" stroke-width="3" points="90.00,540.55 93.34,538.53 96.69,536.91 100.03,534.49 103.37,534.49 106.72,533.27 110.06,532.46 113.40,532.87 116.75,532.06 120.09,532.46 123.44,532.06 126.78,568.46 130.12,568.46 133.47,566.43 136.81,545.00 140.15,545.00 143.50,544.19 146.84,543.79 150.18,543.79 153.53,543.38 156.87,541.76 160.21,541.36 163.56,540.96 166.90,540.96 170.25,539.34 173.59,539.34 176.93,556.73 180.28,556.73 183.62,555.51 186.96,551.07 190.31,538.93 193.65,538.93 196.99,538.93 200.34,538.12 203.68,536.91 207.02,536.91 210.37,536.51 213.71,536.51 217.06,556.73 220.40,556.73 223.74,556.73 227.09,556.73 230.43,535.29 233.77,535.29 237.12,535.29 240.46,535.29 243.80,534.49 247.15,534.08 250.49,533.68 253.83,532.87 257.18,532.06 260.52,532.06 263.87,531.25 267.21,530.85 270.55,530.44 273.90,530.04 277.24,530.04 280.58,529.23 283.93,529.23 287.27,529.23 290.61,528.42 293.96,528.42 297.30,527.61 300.64,527.21 303.99,526.80 307.33,526.40 310.67,525.18 314.02,523.57 317.36,523.57 320.71,523.16 324.05,522.76 327.39,522.35 330.74,521.54 334.08,519.52 337.42,517.50 340.77,517.50 344.11,517.50 347.45,517.50 350.80,517.50 354.14,517.50 357.48,517.10 360.83,516.69 364.17,515.48 367.52,515.07 370.86,514.67 374.20,513.86 377.55,514.26 380.89,512.24 384.23,511.84 387.58,511.84 390.92,511.03 394.26,509.82 397.61,507.79 400.95,506.99 404.29,506.58 407.64,509.41 410.98,509.01 414.33,504.96 417.67,504.56 421.01,504.15 424.36,504.56 427.70,503.75 431.04,503.75 434.39,503.35 437.73,499.30 441.07,496.47 444.42,490.00 447.76,484.34 451.10,481.10 454.45,480.29 457.79,480.70 461.13,460.88 464.48,459.26 467.82,458.05 471.17,456.03 474.51,456.03 477.85,454.41 481.20,450.77 484.54,444.30 487.88,443.90 491.23,600.00 494.57,441.88 497.91,440.66 501.26,439.45 504.60,439.04 507.94,438.64 511.29,437.83 514.63,436.62 517.98,436.62 521.32,434.60 524.66,432.17 528.01,429.34 531.35,428.93 534.69,428.53 538.04,427.72 541.38,426.91 544.72,426.10 548.07,426.10 551.41,426.10 554.75,419.63 558.10,419.23 561.44,418.42 564.79,418.01 568.13,417.61 571.47,417.61 574.82,417.61 578.16,417.21 581.50,417.21 584.85,413.57 588.19,411.95 591.53,412.76 594.88,410.74 598.22,410.74 601.56,410.33 604.91,410.33 608.25,410.33 611.60,409.93 614.94,409.93 618.28,409.93 621.63,409.52 624.97,409.52 628.31,409.12 631.66,409.52 635.00,409.12 638.34,407.50 641.69,407.10 645.03,403.05 648.37,399.82 651.72,400.22 655.06,400.62 658.40,400.62 661.75,399.41 665.09,392.94 668.44,391.32 671.78,389.30 675.12,389.30 678.47,388.49 681.81,375.15 685.15,374.74 688.50,374.74 691.84,374.74 695.18,374.74 698.53,374.34 701.87,374.34 705.21,374.34 708.56,374.34 711.90,374.34 715.25,373.93 718.59,373.12 721.93,372.72 725.28,373.53 728.62,435.81 731.96,372.32 735.31,372.72 738.65,371.91 741.99,371.91 745.34,372.32 748.68,371.10 752.02,369.89 755.37,369.89 758.71,369.89 762.06,369.49 765.40,369.89 768.74,369.08 772.09,368.68 775.43,368.27 778.77,367.87 782.12,367.06 785.46,367.46 788.80,367.06 792.15,366.25 795.49,368.27 798.83,368.68 802.18,368.68 805.52,368.27 808.87,369.08 812.21,367.87 815.55,367.46 818.90,367.06 822.24,360.18 825.58,359.78 828.93,359.38 832.27,356.95 835.61,357.35 838.96,357.76 842.30,355.33 845.64,355.74 848.99,357.35 852.33,355.33 855.67,356.14 859.02,355.74 862.36,356.14 865.71,354.12 869.05,354.93 872.39,356.14 875.74,354.52 879.08,353.71 882.42,354.12 885.77,354.93 889.11,352.90 892.45,353.71 895.80,353.31 899.14,353.31 902.48,354.52 905.83,352.90 909.17,352.50 912.52,352.50 915.86,353.31 919.20,352.50 922.55,353.71 925.89,354.12 929.23,352.50 932.58,352.90 935.92,352.50 939.26,352.10 942.61,351.69 945.95,352.10 949.29,354.12 952.64,352.50 955.98,352.10 959.33,352.10 962.67,349.67 966.01,349.67 969.36,350.88 972.70,351.29 976.04,350.48 979.39,352.10 982.73,350.48 986.07,350.48 989.42,350.48 992.76,350.07 996.10,348.46 999.45,351.29 1002.79,349.67 1006.13,351.29 1009.48,349.67 1012.82,348.86 1016.17,348.46 1019.51,348.46 1022.85,347.24 1026.20,348.86 1029.54,346.84 1032.88,348.46 1036.23,348.86 1039.57,346.84 1042.91,349.26 1046.26,348.05 1049.60,349.26 1052.94,349.26 1056.29,350.48 1059.63,352.90 1062.98,349.67 1066.32,348.46 1069.66,345.62 1073.01,344.82 1076.35,344.41 1079.69,342.39 1083.04,341.18 1086.38,341.58 1089.72,339.15 1093.07,338.35 1096.41,337.54 1099.75,336.73 1103.10,335.92 1106.44,337.54 1109.79,338.35 1113.13,337.54 1116.47,337.54 1119.82,337.54 1123.16,333.09 1126.50,333.90 1129.85,335.92 1133.19,336.73 1136.53,335.51 1139.88,332.28 1143.22,331.47 1146.56,331.07 1149.91,331.47 1153.25,331.07 1156.60,331.07 1159.94,331.07 1163.28,331.07 1166.63,331.07 1169.97,331.07 1173.31,331.07 1176.66,331.07 1180.00,331.07"/>
<circle cx="90.00" cy="540.55" r="3.2" fill="#1d4ed8"/>
<circle cx="93.34" cy="538.53" r="3.2" fill="#1d4ed8"/>
<circle cx="96.69" cy="536.91" r="3.2" fill="#1d4ed8"/>
<circle cx="100.03" cy="534.49" r="3.2" fill="#1d4ed8"/>
<circle cx="103.37" cy="534.49" r="3.2" fill="#1d4ed8"/>
<circle cx="106.72" cy="533.27" r="3.2" fill="#1d4ed8"/>
<circle cx="110.06" cy="532.46" r="3.2" fill="#1d4ed8"/>
<circle cx="113.40" cy="532.87" r="3.2" fill="#1d4ed8"/>
<circle cx="116.75" cy="532.06" r="3.2" fill="#1d4ed8"/>
<circle cx="120.09" cy="532.46" r="3.2" fill="#1d4ed8"/>
<circle cx="123.44" cy="532.06" r="3.2" fill="#1d4ed8"/>
<circle cx="126.78" cy="568.46" r="3.2" fill="#1d4ed8"/>
<circle cx="130.12" cy="568.46" r="3.2" fill="#1d4ed8"/>
<circle cx="133.47" cy="566.43" r="3.2" fill="#1d4ed8"/>
<circle cx="136.81" cy="545.00" r="3.2" fill="#1d4ed8"/>
<circle cx="140.15" cy="545.00" r="3.2" fill="#1d4ed8"/>
<circle cx="143.50" cy="544.19" r="3.2" fill="#1d4ed8"/>
<circle cx="146.84" cy="543.79" r="3.2" fill="#1d4ed8"/>
<circle cx="150.18" cy="543.79" r="3.2" fill="#1d4ed8"/>
<circle cx="153.53" cy="543.38" r="3.2" fill="#1d4ed8"/>
<circle cx="156.87" cy="541.76" r="3.2" fill="#1d4ed8"/>
<circle cx="160.21" cy="541.36" r="3.2" fill="#1d4ed8"/>
<circle cx="163.56" cy="540.96" r="3.2" fill="#1d4ed8"/>
<circle cx="166.90" cy="540.96" r="3.2" fill="#1d4ed8"/>
<circle cx="170.25" cy="539.34" r="3.2" fill="#1d4ed8"/>
<circle cx="173.59" cy="539.34" r="3.2" fill="#1d4ed8"/>
<circle cx="176.93" cy="556.73" r="3.2" fill="#1d4ed8"/>
<circle cx="180.28" cy="556.73" r="3.2" fill="#1d4ed8"/>
<circle cx="183.62" cy="555.51" r="3.2" fill="#1d4ed8"/>
<circle cx="186.96" cy="551.07" r="3.2" fill="#1d4ed8"/>
<circle cx="190.31" cy="538.93" r="3.2" fill="#1d4ed8"/>
<circle cx="193.65" cy="538.93" r="3.2" fill="#1d4ed8"/>
<circle cx="196.99" cy="538.93" r="3.2" fill="#1d4ed8"/>
<circle cx="200.34" cy="538.12" r="3.2" fill="#1d4ed8"/>
<circle cx="203.68" cy="536.91" r="3.2" fill="#1d4ed8"/>
<circle cx="207.02" cy="536.91" r="3.2" fill="#1d4ed8"/>
<circle cx="210.37" cy="536.51" r="3.2" fill="#1d4ed8"/>
<circle cx="213.71" cy="536.51" r="3.2" fill="#1d4ed8"/>
<circle cx="217.06" cy="556.73" r="3.2" fill="#1d4ed8"/>
<circle cx="220.40" cy="556.73" r="3.2" fill="#1d4ed8"/>
<circle cx="223.74" cy="556.73" r="3.2" fill="#1d4ed8"/>
<circle cx="227.09" cy="556.73" r="3.2" fill="#1d4ed8"/>
<circle cx="230.43" cy="535.29" r="3.2" fill="#1d4ed8"/>
<circle cx="233.77" cy="535.29" r="3.2" fill="#1d4ed8"/>
<circle cx="237.12" cy="535.29" r="3.2" fill="#1d4ed8"/>
<circle cx="240.46" cy="535.29" r="3.2" fill="#1d4ed8"/>
<circle cx="243.80" cy="534.49" r="3.2" fill="#1d4ed8"/>
<circle cx="247.15" cy="534.08" r="3.2" fill="#1d4ed8"/>
<circle cx="250.49" cy="533.68" r="3.2" fill="#1d4ed8"/>
<circle cx="253.83" cy="532.87" r="3.2" fill="#1d4ed8"/>
<circle cx="257.18" cy="532.06" r="3.2" fill="#1d4ed8"/>
<circle cx="260.52" cy="532.06" r="3.2" fill="#1d4ed8"/>
<circle cx="263.87" cy="531.25" r="3.2" fill="#1d4ed8"/>
<circle cx="267.21" cy="530.85" r="3.2" fill="#1d4ed8"/>
<circle cx="270.55" cy="530.44" r="3.2" fill="#1d4ed8"/>
<circle cx="273.90" cy="530.04" r="3.2" fill="#1d4ed8"/>
<circle cx="277.24" cy="530.04" r="3.2" fill="#1d4ed8"/>
<circle cx="280.58" cy="529.23" r="3.2" fill="#1d4ed8"/>
<circle cx="283.93" cy="529.23" r="3.2" fill="#1d4ed8"/>
<circle cx="287.27" cy="529.23" r="3.2" fill="#1d4ed8"/>
<circle cx="290.61" cy="528.42" r="3.2" fill="#1d4ed8"/>
<circle cx="293.96" cy="528.42" r="3.2" fill="#1d4ed8"/>
<circle cx="297.30" cy="527.61" r="3.2" fill="#1d4ed8"/>
<circle cx="300.64" cy="527.21" r="3.2" fill="#1d4ed8"/>
<circle cx="303.99" cy="526.80" r="3.2" fill="#1d4ed8"/>
<circle cx="307.33" cy="526.40" r="3.2" fill="#1d4ed8"/>
<circle cx="310.67" cy="525.18" r="3.2" fill="#1d4ed8"/>
<circle cx="314.02" cy="523.57" r="3.2" fill="#1d4ed8"/>
<circle cx="317.36" cy="523.57" r="3.2" fill="#1d4ed8"/>
<circle cx="320.71" cy="523.16" r="3.2" fill="#1d4ed8"/>
<circle cx="324.05" cy="522.76" r="3.2" fill="#1d4ed8"/>
<circle cx="327.39" cy="522.35" r="3.2" fill="#1d4ed8"/>
<circle cx="330.74" cy="521.54" r="3.2" fill="#1d4ed8"/>
<circle cx="334.08" cy="519.52" r="3.2" fill="#1d4ed8"/>
<circle cx="337.42" cy="517.50" r="3.2" fill="#1d4ed8"/>
<circle cx="340.77" cy="517.50" r="3.2" fill="#1d4ed8"/>
<circle cx="344.11" cy="517.50" r="3.2" fill="#1d4ed8"/>
<circle cx="347.45" cy="517.50" r="3.2" fill="#1d4ed8"/>
<circle cx="350.80" cy="517.50" r="3.2" fill="#1d4ed8"/>
<circle cx="354.14" cy="517.50" r="3.2" fill="#1d4ed8"/>
<circle cx="357.48" cy="517.10" r="3.2" fill="#1d4ed8"/>
<circle cx="360.83" cy="516.69" r="3.2" fill="#1d4ed8"/>
<circle cx="364.17" cy="515.48" r="3.2" fill="#1d4ed8"/>
<circle cx="367.52" cy="515.07" r="3.2" fill="#1d4ed8"/>
<circle cx="370.86" cy="514.67" r="3.2" fill="#1d4ed8"/>
<circle cx="374.20" cy="513.86" r="3.2" fill="#1d4ed8"/>
<circle cx="377.55" cy="514.26" r="3.2" fill="#1d4ed8"/>
<circle cx="380.89" cy="512.24" r="3.2" fill="#1d4ed8"/>
<circle cx="384.23" cy="511.84" r="3.2" fill="#1d4ed8"/>
<circle cx="387.58" cy="511.84" r="3.2" fill="#1d4ed8"/>
<circle cx="390.92" cy="511.03" r="3.2" fill="#1d4ed8"/>
<circle cx="394.26" cy="509.82" r="3.2" fill="#1d4ed8"/>
<circle cx="397.61" cy="507.79" r="3.2" fill="#1d4ed8"/>
<circle cx="400.95" cy="506.99" r="3.2" fill="#1d4ed8"/>
<circle cx="404.29" cy="506.58" r="3.2" fill="#1d4ed8"/>
<circle cx="407.64" cy="509.41" r="3.2" fill="#1d4ed8"/>
<circle cx="410.98" cy="509.01" r="3.2" fill="#1d4ed8"/>
<circle cx="414.33" cy="504.96" r="3.2" fill="#1d4ed8"/>
<circle cx="417.67" cy="504.56" r="3.2" fill="#1d4ed8"/>
<circle cx="421.01" cy="504.15" r="3.2" fill="#1d4ed8"/>
<circle cx="424.36" cy="504.56" r="3.2" fill="#1d4ed8"/>
<circle cx="427.70" cy="503.75" r="3.2" fill="#1d4ed8"/>
<circle cx="431.04" cy="503.75" r="3.2" fill="#1d4ed8"/>
<circle cx="434.39" cy="503.35" r="3.2" fill="#1d4ed8"/>
<circle cx="437.73" cy="499.30" r="3.2" fill="#1d4ed8"/>
<circle cx="441.07" cy="496.47" r="3.2" fill="#1d4ed8"/>
<circle cx="444.42" cy="490.00" r="3.2" fill="#1d4ed8"/>
<circle cx="447.76" cy="484.34" r="3.2" fill="#1d4ed8"/>
<circle cx="451.10" cy="481.10" r="3.2" fill="#1d4ed8"/>
<circle cx="454.45" cy="480.29" r="3.2" fill="#1d4ed8"/>
<circle cx="457.79" cy="480.70" r="3.2" fill="#1d4ed8"/>
<circle cx="461.13" cy="460.88" r="3.2" fill="#1d4ed8"/>
<circle cx="464.48" cy="459.26" r="3.2" fill="#1d4ed8"/>
<circle cx="467.82" cy="458.05" r="3.2" fill="#1d4ed8"/>
<circle cx="471.17" cy="456.03" r="3.2" fill="#1d4ed8"/>
<circle cx="474.51" cy="456.03" r="3.2" fill="#1d4ed8"/>
<circle cx="477.85" cy="454.41" r="3.2" fill="#1d4ed8"/>
<circle cx="481.20" cy="450.77" r="3.2" fill="#1d4ed8"/>
<circle cx="484.54" cy="444.30" r="3.2" fill="#1d4ed8"/>
<circle cx="487.88" cy="443.90" r="3.2" fill="#1d4ed8"/>
<circle cx="491.23" cy="600.00" r="3.2" fill="#1d4ed8"/>
<circle cx="494.57" cy="441.88" r="3.2" fill="#1d4ed8"/>
<circle cx="497.91" cy="440.66" r="3.2" fill="#1d4ed8"/>
<circle cx="501.26" cy="439.45" r="3.2" fill="#1d4ed8"/>
<circle cx="504.60" cy="439.04" r="3.2" fill="#1d4ed8"/>
<circle cx="507.94" cy="438.64" r="3.2" fill="#1d4ed8"/>
<circle cx="511.29" cy="437.83" r="3.2" fill="#1d4ed8"/>
<circle cx="514.63" cy="436.62" r="3.2" fill="#1d4ed8"/>
<circle cx="517.98" cy="436.62" r="3.2" fill="#1d4ed8"/>
<circle cx="521.32" cy="434.60" r="3.2" fill="#1d4ed8"/>
<circle cx="524.66" cy="432.17" r="3.2" fill="#1d4ed8"/>
<circle cx="528.01" cy="429.34" r="3.2" fill="#1d4ed8"/>
<circle cx="531.35" cy="428.93" r="3.2" fill="#1d4ed8"/>
<circle cx="534.69" cy="428.53" r="3.2" fill="#1d4ed8"/>
<circle cx="538.04" cy="427.72" r="3.2" fill="#1d4ed8"/>
<circle cx="541.38" cy="426.91" r="3.2" fill="#1d4ed8"/>
<circle cx="544.72" cy="426.10" r="3.2" fill="#1d4ed8"/>
<circle cx="548.07" cy="426.10" r="3.2" fill="#1d4ed8"/>
<circle cx="551.41" cy="426.10" r="3.2" fill="#1d4ed8"/>
<circle cx="554.75" cy="419.63" r="3.2" fill="#1d4ed8"/>
<circle cx="558.10" cy="419.23" r="3.2" fill="#1d4ed8"/>
<circle cx="561.44" cy="418.42" r="3.2" fill="#1d4ed8"/>
<circle cx="564.79" cy="418.01" r="3.2" fill="#1d4ed8"/>
<circle cx="568.13" cy="417.61" r="3.2" fill="#1d4ed8"/>
<circle cx="571.47" cy="417.61" r="3.2" fill="#1d4ed8"/>
<circle cx="574.82" cy="417.61" r="3.2" fill="#1d4ed8"/>
<circle cx="578.16" cy="417.21" r="3.2" fill="#1d4ed8"/>
<circle cx="581.50" cy="417.21" r="3.2" fill="#1d4ed8"/>
<circle cx="584.85" cy="413.57" r="3.2" fill="#1d4ed8"/>
<circle cx="588.19" cy="411.95" r="3.2" fill="#1d4ed8"/>
<circle cx="591.53" cy="412.76" r="3.2" fill="#1d4ed8"/>
<circle cx="594.88" cy="410.74" r="3.2" fill="#1d4ed8"/>
<circle cx="598.22" cy="410.74" r="3.2" fill="#1d4ed8"/>
<circle cx="601.56" cy="410.33" r="3.2" fill="#1d4ed8"/>
<circle cx="604.91" cy="410.33" r="3.2" fill="#1d4ed8"/>
<circle cx="608.25" cy="410.33" r="3.2" fill="#1d4ed8"/>
<circle cx="611.60" cy="409.93" r="3.2" fill="#1d4ed8"/>
<circle cx="614.94" cy="409.93" r="3.2" fill="#1d4ed8"/>
<circle cx="618.28" cy="409.93" r="3.2" fill="#1d4ed8"/>
<circle cx="621.63" cy="409.52" r="3.2" fill="#1d4ed8"/>
<circle cx="624.97" cy="409.52" r="3.2" fill="#1d4ed8"/>
<circle cx="628.31" cy="409.12" r="3.2" fill="#1d4ed8"/>
<circle cx="631.66" cy="409.52" r="3.2" fill="#1d4ed8"/>
<circle cx="635.00" cy="409.12" r="3.2" fill="#1d4ed8"/>
<circle cx="638.34" cy="407.50" r="3.2" fill="#1d4ed8"/>
<circle cx="641.69" cy="407.10" r="3.2" fill="#1d4ed8"/>
<circle cx="645.03" cy="403.05" r="3.2" fill="#1d4ed8"/>
<circle cx="648.37" cy="399.82" r="3.2" fill="#1d4ed8"/>
<circle cx="651.72" cy="400.22" r="3.2" fill="#1d4ed8"/>
<circle cx="655.06" cy="400.62" r="3.2" fill="#1d4ed8"/>
<circle cx="658.40" cy="400.62" r="3.2" fill="#1d4ed8"/>
<circle cx="661.75" cy="399.41" r="3.2" fill="#1d4ed8"/>
<circle cx="665.09" cy="392.94" r="3.2" fill="#1d4ed8"/>
<circle cx="668.44" cy="391.32" r="3.2" fill="#1d4ed8"/>
<circle cx="671.78" cy="389.30" r="3.2" fill="#1d4ed8"/>
<circle cx="675.12" cy="389.30" r="3.2" fill="#1d4ed8"/>
<circle cx="678.47" cy="388.49" r="3.2" fill="#1d4ed8"/>
<circle cx="681.81" cy="375.15" r="3.2" fill="#1d4ed8"/>
<circle cx="685.15" cy="374.74" r="3.2" fill="#1d4ed8"/>
<circle cx="688.50" cy="374.74" r="3.2" fill="#1d4ed8"/>
<circle cx="691.84" cy="374.74" r="3.2" fill="#1d4ed8"/>
<circle cx="695.18" cy="374.74" r="3.2" fill="#1d4ed8"/>
<circle cx="698.53" cy="374.34" r="3.2" fill="#1d4ed8"/>
<circle cx="701.87" cy="374.34" r="3.2" fill="#1d4ed8"/>
<circle cx="705.21" cy="374.34" r="3.2" fill="#1d4ed8"/>
<circle cx="708.56" cy="374.34" r="3.2" fill="#1d4ed8"/>
<circle cx="711.90" cy="374.34" r="3.2" fill="#1d4ed8"/>
<circle cx="715.25" cy="373.93" r="3.2" fill="#1d4ed8"/>
<circle cx="718.59" cy="373.12" r="3.2" fill="#1d4ed8"/>
<circle cx="721.93" cy="372.72" r="3.2" fill="#1d4ed8"/>
<circle cx="725.28" cy="373.53" r="3.2" fill="#1d4ed8"/>
<circle cx="728.62" cy="435.81" r="3.2" fill="#1d4ed8"/>
<circle cx="731.96" cy="372.32" r="3.2" fill="#1d4ed8"/>
<circle cx="735.31" cy="372.72" r="3.2" fill="#1d4ed8"/>
<circle cx="738.65" cy="371.91" r="3.2" fill="#1d4ed8"/>
<circle cx="741.99" cy="371.91" r="3.2" fill="#1d4ed8"/>
<circle cx="745.34" cy="372.32" r="3.2" fill="#1d4ed8"/>
<circle cx="748.68" cy="371.10" r="3.2" fill="#1d4ed8"/>
<circle cx="752.02" cy="369.89" r="3.2" fill="#1d4ed8"/>
<circle cx="755.37" cy="369.89" r="3.2" fill="#1d4ed8"/>
<circle cx="758.71" cy="369.89" r="3.2" fill="#1d4ed8"/>
<circle cx="762.06" cy="369.49" r="3.2" fill="#1d4ed8"/>
<circle cx="765.40" cy="369.89" r="3.2" fill="#1d4ed8"/>
<circle cx="768.74" cy="369.08" r="3.2" fill="#1d4ed8"/>
<circle cx="772.09" cy="368.68" r="3.2" fill="#1d4ed8"/>
<circle cx="775.43" cy="368.27" r="3.2" fill="#1d4ed8"/>
<circle cx="778.77" cy="367.87" r="3.2" fill="#1d4ed8"/>
<circle cx="782.12" cy="367.06" r="3.2" fill="#1d4ed8"/>
<circle cx="785.46" cy="367.46" r="3.2" fill="#1d4ed8"/>
<circle cx="788.80" cy="367.06" r="3.2" fill="#1d4ed8"/>
<circle cx="792.15" cy="366.25" r="3.2" fill="#1d4ed8"/>
<circle cx="795.49" cy="368.27" r="3.2" fill="#1d4ed8"/>
<circle cx="798.83" cy="368.68" r="3.2" fill="#1d4ed8"/>
<circle cx="802.18" cy="368.68" r="3.2" fill="#1d4ed8"/>
<circle cx="805.52" cy="368.27" r="3.2" fill="#1d4ed8"/>
<circle cx="808.87" cy="369.08" r="3.2" fill="#1d4ed8"/>
<circle cx="812.21" cy="367.87" r="3.2" fill="#1d4ed8"/>
<circle cx="815.55" cy="367.46" r="3.2" fill="#1d4ed8"/>
<circle cx="818.90" cy="367.06" r="3.2" fill="#1d4ed8"/>
<circle cx="822.24" cy="360.18" r="3.2" fill="#1d4ed8"/>
<circle cx="825.58" cy="359.78" r="3.2" fill="#1d4ed8"/>
<circle cx="828.93" cy="359.38" r="3.2" fill="#1d4ed8"/>
<circle cx="832.27" cy="356.95" r="3.2" fill="#1d4ed8"/>
<circle cx="835.61" cy="357.35" r="3.2" fill="#1d4ed8"/>
<circle cx="838.96" cy="357.76" r="3.2" fill="#1d4ed8"/>
<circle cx="842.30" cy="355.33" r="3.2" fill="#1d4ed8"/>
<circle cx="845.64" cy="355.74" r="3.2" fill="#1d4ed8"/>
<circle cx="848.99" cy="357.35" r="3.2" fill="#1d4ed8"/>
<circle cx="852.33" cy="355.33" r="3.2" fill="#1d4ed8"/>
<circle cx="855.67" cy="356.14" r="3.2" fill="#1d4ed8"/>
<circle cx="859.02" cy="355.74" r="3.2" fill="#1d4ed8"/>
<circle cx="862.36" cy="356.14" r="3.2" fill="#1d4ed8"/>
<circle cx="865.71" cy="354.12" r="3.2" fill="#1d4ed8"/>
<circle cx="869.05" cy="354.93" r="3.2" fill="#1d4ed8"/>
<circle cx="872.39" cy="356.14" r="3.2" fill="#1d4ed8"/>
<circle cx="875.74" cy="354.52" r="3.2" fill="#1d4ed8"/>
<circle cx="879.08" cy="353.71" r="3.2" fill="#1d4ed8"/>
<circle cx="882.42" cy="354.12" r="3.2" fill="#1d4ed8"/>
<circle cx="885.77" cy="354.93" r="3.2" fill="#1d4ed8"/>
<circle cx="889.11" cy="352.90" r="3.2" fill="#1d4ed8"/>
<circle cx="892.45" cy="353.71" r="3.2" fill="#1d4ed8"/>
<circle cx="895.80" cy="353.31" r="3.2" fill="#1d4ed8"/>
<circle cx="899.14" cy="353.31" r="3.2" fill="#1d4ed8"/>
<circle cx="902.48" cy="354.52" r="3.2" fill="#1d4ed8"/>
<circle cx="905.83" cy="352.90" r="3.2" fill="#1d4ed8"/>
<circle cx="909.17" cy="352.50" r="3.2" fill="#1d4ed8"/>
<circle cx="912.52" cy="352.50" r="3.2" fill="#1d4ed8"/>
<circle cx="915.86" cy="353.31" r="3.2" fill="#1d4ed8"/>
<circle cx="919.20" cy="352.50" r="3.2" fill="#1d4ed8"/>
<circle cx="922.55" cy="353.71" r="3.2" fill="#1d4ed8"/>
<circle cx="925.89" cy="354.12" r="3.2" fill="#1d4ed8"/>
<circle cx="929.23" cy="352.50" r="3.2" fill="#1d4ed8"/>
<circle cx="932.58" cy="352.90" r="3.2" fill="#1d4ed8"/>
<circle cx="935.92" cy="352.50" r="3.2" fill="#1d4ed8"/>
<circle cx="939.26" cy="352.10" r="3.2" fill="#1d4ed8"/>
<circle cx="942.61" cy="351.69" r="3.2" fill="#1d4ed8"/>
<circle cx="945.95" cy="352.10" r="3.2" fill="#1d4ed8"/>
<circle cx="949.29" cy="354.12" r="3.2" fill="#1d4ed8"/>
<circle cx="952.64" cy="352.50" r="3.2" fill="#1d4ed8"/>
<circle cx="955.98" cy="352.10" r="3.2" fill="#1d4ed8"/>
<circle cx="959.33" cy="352.10" r="3.2" fill="#1d4ed8"/>
<circle cx="962.67" cy="349.67" r="3.2" fill="#1d4ed8"/>
<circle cx="966.01" cy="349.67" r="3.2" fill="#1d4ed8"/>
<circle cx="969.36" cy="350.88" r="3.2" fill="#1d4ed8"/>
<circle cx="972.70" cy="351.29" r="3.2" fill="#1d4ed8"/>
<circle cx="976.04" cy="350.48" r="3.2" fill="#1d4ed8"/>
<circle cx="979.39" cy="352.10" r="3.2" fill="#1d4ed8"/>
<circle cx="982.73" cy="350.48" r="3.2" fill="#1d4ed8"/>
<circle cx="986.07" cy="350.48" r="3.2" fill="#1d4ed8"/>
<circle cx="989.42" cy="350.48" r="3.2" fill="#1d4ed8"/>
<circle cx="992.76" cy="350.07" r="3.2" fill="#1d4ed8"/>
<circle cx="996.10" cy="348.46" r="3.2" fill="#1d4ed8"/>
<circle cx="999.45" cy="351.29" r="3.2" fill="#1d4ed8"/>
<circle cx="1002.79" cy="349.67" r="3.2" fill="#1d4ed8"/>
<circle cx="1006.13" cy="351.29" r="3.2" fill="#1d4ed8"/>
<circle cx="1009.48" cy="349.67" r="3.2" fill="#1d4ed8"/>
<circle cx="1012.82" cy="348.86" r="3.2" fill="#1d4ed8"/>
<circle cx="1016.17" cy="348.46" r="3.2" fill="#1d4ed8"/>
<circle cx="1019.51" cy="348.46" r="3.2" fill="#1d4ed8"/>
<circle cx="1022.85" cy="347.24" r="3.2" fill="#1d4ed8"/>
<circle cx="1026.20" cy="348.86" r="3.2" fill="#1d4ed8"/>
<circle cx="1029.54" cy="346.84" r="3.2" fill="#1d4ed8"/>
<circle cx="1032.88" cy="348.46" r="3.2" fill="#1d4ed8"/>
<circle cx="1036.23" cy="348.86" r="3.2" fill="#1d4ed8"/>
<circle cx="1039.57" cy="346.84" r="3.2" fill="#1d4ed8"/>
<circle cx="1042.91" cy="349.26" r="3.2" fill="#1d4ed8"/>
<circle cx="1046.26" cy="348.05" r="3.2" fill="#1d4ed8"/>
<circle cx="1049.60" cy="349.26" r="3.2" fill="#1d4ed8"/>
<circle cx="1052.94" cy="349.26" r="3.2" fill="#1d4ed8"/>
<circle cx="1056.29" cy="350.48" r="3.2" fill="#1d4ed8"/>
<circle cx="1059.63" cy="352.90" r="3.2" fill="#1d4ed8"/>
<circle cx="1062.98" cy="349.67" r="3.2" fill="#1d4ed8"/>
<circle cx="1066.32" cy="348.46" r="3.2" fill="#1d4ed8"/>
<circle cx="1069.66" cy="345.62" r="3.2" fill="#1d4ed8"/>
<circle cx="1073.01" cy="344.82" r="3.2" fill="#1d4ed8"/>
<circle cx="1076.35" cy="344.41" r="3.2" fill="#1d4ed8"/>
<circle cx="1079.69" cy="342.39" r="3.2" fill="#1d4ed8"/>
<circle cx="1083.04" cy="341.18" r="3.2" fill="#1d4ed8"/>
<circle cx="1086.38" cy="341.58" r="3.2" fill="#1d4ed8"/>
<circle cx="1089.72" cy="339.15" r="3.2" fill="#1d4ed8"/>
<circle cx="1093.07" cy="338.35" r="3.2" fill="#1d4ed8"/>
<circle cx="1096.41" cy="337.54" r="3.2" fill="#1d4ed8"/>
<circle cx="1099.75" cy="336.73" r="3.2" fill="#1d4ed8"/>
<circle cx="1103.10" cy="335.92" r="3.2" fill="#1d4ed8"/>
<circle cx="1106.44" cy="337.54" r="3.2" fill="#1d4ed8"/>
<circle cx="1109.79" cy="338.35" r="3.2" fill="#1d4ed8"/>
<circle cx="1113.13" cy="337.54" r="3.2" fill="#1d4ed8"/>
<circle cx="1116.47" cy="337.54" r="3.2" fill="#1d4ed8"/>
<circle cx="1119.82" cy="337.54" r="3.2" fill="#1d4ed8"/>
<circle cx="1123.16" cy="333.09" r="3.2" fill="#1d4ed8"/>
<circle cx="1126.50" cy="333.90" r="3.2" fill="#1d4ed8"/>
<circle cx="1129.85" cy="335.92" r="3.2" fill="#1d4ed8"/>
<circle cx="1133.19" cy="336.73" r="3.2" fill="#1d4ed8"/>
<circle cx="1136.53" cy="335.51" r="3.2" fill="#1d4ed8"/>
<circle cx="1139.88" cy="332.28" r="3.2" fill="#1d4ed8"/>
<circle cx="1143.22" cy="331.47" r="3.2" fill="#1d4ed8"/>
<circle cx="1146.56" cy="331.07" r="3.2" fill="#1d4ed8"/>
<circle cx="1149.91" cy="331.47" r="3.2" fill="#1d4ed8"/>
<circle cx="1153.25" cy="331.07" r="3.2" fill="#1d4ed8"/>
<circle cx="1156.60" cy="331.07" r="3.2" fill="#1d4ed8"/>
<circle cx="1159.94" cy="331.07" r="3.2" fill="#1d4ed8"/>
<circle cx="1163.28" cy="331.07" r="3.2" fill="#1d4ed8"/>
<circle cx="1166.63" cy="331.07" r="3.2" fill="#1d4ed8"/>
<circle cx="1169.97" cy="331.07" r="3.2" fill="#1d4ed8"/>
<circle cx="1173.31" cy="331.07" r="3.2" fill="#1d4ed8"/>
<circle cx="1176.66" cy="331.07" r="3.2" fill="#1d4ed8"/>
<circle cx="1180.00" cy="331.07" r="3.2" fill="#1d4ed8"/>
<text x="635" y="695" text-anchor="middle" font-size="14" fill="#111" font-family="sans-serif">Date</text>
<text x="24" y="325" text-anchor="middle" font-size="14" fill="#111" transform="rotate(-90 24,325)" font-family="sans-serif">Passed files</text>
</svg>
