<?xml version="1.0" encoding="UTF-8"?>
<svg xmlns="http://www.w3.org/2000/svg" width="1280" height="720" viewBox="0 0 1280 720">
<rect width="100%" height="100%" fill="#ffffff"/>
<text x="640" y="30" text-anchor="middle" font-size="22" font-family="sans-serif">Roast passed files history</text>
<line x1="90" y1="600" x2="1180" y2="600" stroke="#333" stroke-width="1.5"/>
<line x1="90" y1="50" x2="90" y2="600" stroke="#333" stroke-width="1.5"/>
<line x1="90" y1="600.00" x2="1180" y2="600.00" stroke="#e5e7eb" stroke-width="1"/>
<text x="78" y="605.00" text-anchor="end" font-size="12" fill="#111" font-family="sans-serif">0</text>
<line x1="90" y1="397.79" x2="1180" y2="397.79" stroke="#e5e7eb" stroke-width="1"/>
<text x="78" y="402.79" text-anchor="end" font-size="12" fill="#111" font-family="sans-serif">500</text>
<line x1="90" y1="195.59" x2="1180" y2="195.59" stroke="#e5e7eb" stroke-width="1"/>
<text x="78" y="200.59" text-anchor="end" font-size="12" fill="#111" font-family="sans-serif">1000</text>
<line x1="90.00" y1="600" x2="90.00" y2="606" stroke="#333" stroke-width="1"/>
<text x="90.00" y="624" text-anchor="end" font-size="11" fill="#111" transform="rotate(-40 90.00,624)" font-family="sans-serif">2026-02-12</text>
<line x1="226.53" y1="600" x2="226.53" y2="606" stroke="#333" stroke-width="1"/>
<text x="226.53" y="624" text-anchor="end" font-size="11" fill="#111" transform="rotate(-40 226.53,624)" font-family="sans-serif">2026-02-18</text>
<line x1="363.06" y1="600" x2="363.06" y2="606" stroke="#333" stroke-width="1"/>
<text x="363.06" y="624" text-anchor="end" font-size="11" fill="#111" transform="rotate(-40 363.06,624)" font-family="sans-serif">2026-02-25</text>
<line x1="499.59" y1="600" x2="499.59" y2="606" stroke="#333" stroke-width="1"/>
<text x="499.59" y="624" text-anchor="end" font-size="11" fill="#111" transform="rotate(-40 499.59,624)" font-family="sans-serif">2026-02-28</text>
<line x1="636.12" y1="600" x2="636.12" y2="606" stroke="#333" stroke-width="1"/>
<text x="636.12" y="624" text-anchor="end" font-size="11" fill="#111" transform="rotate(-40 636.12,624)" font-family="sans-serif">2026-03-06</text>
<line x1="772.65" y1="600" x2="772.65" y2="606" stroke="#333" stroke-width="1"/>
<text x="772.65" y="624" text-anchor="end" font-size="11" fill="#111" transform="rotate(-40 772.65,624)" font-family="sans-serif">2026-03-11</text>
<line x1="909.18" y1="600" x2="909.18" y2="606" stroke="#333" stroke-width="1"/>
<text x="909.18" y="624" text-anchor="end" font-size="11" fill="#111" transform="rotate(-40 909.18,624)" font-family="sans-serif">2026-03-18</text>
<line x1="1045.71" y1="600" x2="1045.71" y2="606" stroke="#333" stroke-width="1"/>
<text x="1045.71" y="624" text-anchor="end" font-size="11" fill="#111" transform="rotate(-40 1045.71,624)" font-family="sans-serif">2026-03-20</text>
<line x1="1180.00" y1="600" x2="1180.00" y2="606" stroke="#333" stroke-width="1"/>
<text x="1180.00" y="624" text-anchor="end" font-size="11" fill="#111" transform="rotate(-40 1180.00,624)" font-family="sans-serif">2026-03-30</text>
<line x1="90" y1="75.88" x2="1180" y2="75.88" stroke="#dc2626" stroke-width="1.5" stroke-dasharray="8,4"/>
<text x="1184" y="79.88" font-size="12" fill="#dc2626" font-family="sans-serif">Goal: 1296</text>
<polyline fill="none" stroke="#2563eb" stroke-width="3" points="90.00,540.55 92.24,538.53 94.48,536.91 96.71,534.49 98.95,534.49 101.19,533.27 103.43,532.46 105.67,532.87 107.91,532.06 110.14,532.46 112.38,532.06 114.62,568.46 116.86,568.46 119.10,566.43 121.33,545.00 123.57,545.00 125.81,544.19 128.05,543.79 130.29,543.79 132.53,543.38 134.76,541.76 137.00,541.36 139.24,540.96 141.48,540.96 143.72,539.34 145.95,539.34 148.19,556.73 150.43,556.73 152.67,555.51 154.91,551.07 157.15,538.93 159.38,538.93 161.62,538.93 163.86,538.12 166.10,536.91 168.34,536.91 170.57,536.51 172.81,536.51 175.05,556.73 177.29,556.73 179.53,556.73 181.77,556.73 184.00,535.29 186.24,535.29 188.48,535.29 190.72,535.29 192.96,534.49 195.20,534.08 197.43,533.68 199.67,532.87 201.91,532.06 204.15,532.06 206.39,531.25 208.62,530.85 210.86,530.44 213.10,530.04 215.34,530.04 217.58,529.23 219.82,529.23 222.05,529.23 224.29,528.42 226.53,528.42 228.77,527.61 231.01,527.21 233.24,526.80 235.48,526.40 237.72,525.18 239.96,523.57 242.20,523.57 244.44,523.16 246.67,522.76 248.91,522.35 251.15,521.54 253.39,519.52 255.63,517.50 257.86,517.50 260.10,517.50 262.34,517.50 264.58,517.50 266.82,517.50 269.06,517.10 271.29,516.69 273.53,515.48 275.77,515.07 278.01,514.67 280.25,513.86 282.48,514.26 284.72,512.24 286.96,511.84 289.20,511.84 291.44,511.03 293.68,509.82 295.91,507.79 298.15,506.99 300.39,506.58 302.63,509.41 304.87,509.01 307.10,504.96 309.34,504.56 311.58,504.15 313.82,504.56 316.06,503.75 318.30,503.75 320.53,503.35 322.77,499.30 325.01,496.47 327.25,490.00 329.49,484.34 331.72,481.10 333.96,480.29 336.20,480.70 338.44,460.88 340.68,459.26 342.92,458.05 345.15,456.03 347.39,456.03 349.63,454.41 351.87,450.77 354.11,444.30 356.34,443.90 358.58,600.00 360.82,441.88 363.06,440.66 365.30,439.45 367.54,439.04 369.77,438.64 372.01,437.83 374.25,436.62 376.49,436.62 378.73,434.60 380.97,432.17 383.20,429.34 385.44,428.93 387.68,428.53 389.92,427.72 392.16,426.91 394.39,426.10 396.63,426.10 398.87,426.10 401.11,419.63 403.35,419.23 405.59,418.42 407.82,418.01 410.06,417.61 412.30,417.61 414.54,417.61 416.78,417.21 419.01,417.21 421.25,413.57 423.49,411.95 425.73,412.76 427.97,410.74 430.21,410.74 432.44,410.33 434.68,410.33 436.92,410.33 439.16,409.93 441.40,409.93 443.63,409.93 445.87,409.52 448.11,409.52 450.35,409.12 452.59,409.52 454.83,409.12 457.06,407.50 459.30,407.10 461.54,403.05 463.78,399.82 466.02,400.22 468.25,400.62 470.49,400.62 472.73,399.41 474.97,392.94 477.21,391.32 479.45,389.30 481.68,389.30 483.92,388.49 486.16,375.15 488.40,374.74 490.64,374.74 492.87,374.74 495.11,374.74 497.35,374.34 499.59,374.34 501.83,374.34 504.07,374.34 506.30,374.34 508.54,373.93 510.78,373.12 513.02,372.72 515.26,373.53 517.49,435.81 519.73,372.32 521.97,372.72 524.21,371.91 526.45,371.91 528.69,372.32 530.92,371.10 533.16,369.89 535.40,369.89 537.64,369.89 539.88,369.49 542.11,369.89 544.35,369.08 546.59,368.68 548.83,368.27 551.07,367.87 553.31,367.06 555.54,367.46 557.78,367.06 560.02,366.25 562.26,368.27 564.50,368.68 566.74,368.68 568.97,368.27 571.21,369.08 573.45,367.87 575.69,367.46 577.93,367.06 580.16,360.18 582.40,359.78 584.64,359.38 586.88,356.95 589.12,357.35 591.36,357.76 593.59,355.33 595.83,355.74 598.07,357.35 600.31,355.33 602.55,356.14 604.78,355.74 607.02,356.14 609.26,354.12 611.50,354.93 613.74,356.14 615.98,354.52 618.21,353.71 620.45,354.12 622.69,354.93 624.93,352.90 627.17,353.71 629.40,353.31 631.64,353.31 633.88,354.52 636.12,352.90 638.36,352.50 640.60,352.50 642.83,353.31 645.07,352.50 647.31,353.71 649.55,354.12 651.79,352.50 654.02,352.90 656.26,352.50 658.50,352.10 660.74,351.69 662.98,352.10 665.22,354.12 667.45,352.50 669.69,352.10 671.93,352.10 674.17,349.67 676.41,349.67 678.64,350.88 680.88,351.29 683.12,350.48 685.36,352.10 687.60,350.48 689.84,350.48 692.07,350.48 694.31,350.07 696.55,348.46 698.79,351.29 701.03,349.67 703.26,351.29 705.50,349.67 707.74,348.86 709.98,348.46 712.22,348.46 714.46,347.24 716.69,348.86 718.93,346.84 721.17,348.46 723.41,348.86 725.65,346.84 727.89,349.26 730.12,348.05 732.36,349.26 734.60,349.26 736.84,350.48 739.08,352.90 741.31,349.67 743.55,348.46 745.79,345.62 748.03,344.82 750.27,344.41 752.51,342.39 754.74,341.18 756.98,341.58 759.22,339.15 761.46,338.35 763.70,337.54 765.93,336.73 768.17,335.92 770.41,337.54 772.65,338.35 774.89,337.54 777.13,337.54 779.36,337.54 781.60,333.09 783.84,333.90 786.08,335.92 788.32,336.73 790.55,335.51 792.79,332.28 795.03,331.47 797.27,331.07 799.51,331.47 801.75,331.07 803.98,331.07 806.22,331.07 808.46,331.07 810.70,331.07 812.94,331.07 815.17,331.07 817.41,331.07 819.65,331.07 821.89,331.07 824.13,331.47 826.37,331.88 828.60,331.07 830.84,331.47 833.08,331.07 835.32,331.47 837.56,331.07 839.79,324.19 842.03,324.19 844.27,318.93 846.51,316.51 848.75,310.44 850.99,308.01 853.22,600.00 855.46,301.54 857.70,290.22 859.94,287.79 862.18,286.18 864.41,285.77 866.65,285.77 868.89,285.77 871.13,286.18 873.37,285.77 875.61,285.77 877.84,285.77 880.08,283.35 882.32,282.94 884.56,282.94 886.80,283.35 889.03,282.94 891.27,282.94 893.51,283.75 895.75,282.13 897.99,282.13 900.23,282.54 902.46,282.13 904.70,282.54 906.94,282.94 909.18,281.73 911.42,282.54 913.66,281.73 915.89,282.54 918.13,282.13 920.37,282.13 922.61,281.73 924.85,281.73 927.08,281.32 929.32,281.73 931.56,282.13 933.80,281.32 936.04,281.32 938.28,282.54 940.51,282.13 942.75,281.32 944.99,281.32 947.23,281.32 949.47,282.54 951.70,282.13 953.94,281.32 956.18,282.13 958.42,281.73 960.66,282.13 962.90,280.11 965.13,280.11 967.37,280.51 969.61,279.71 971.85,280.11 974.09,280.51 976.32,279.71 978.56,280.11 980.80,280.11 983.04,279.30 985.28,278.90 987.52,278.90 989.75,280.51 991.99,279.30 994.23,278.09 996.47,278.49 998.71,278.49 1000.94,277.28 1003.18,277.68 1005.42,277.68 1007.66,278.09 1009.90,277.28 1012.14,600.00 1014.37,278.90 1016.61,279.30 1018.85,278.90 1021.09,278.49 1023.33,278.49 1025.56,278.49 1027.80,278.49 1030.04,278.49 1032.28,278.49 1034.52,278.49 1036.76,278.49 1038.99,278.49 1041.23,278.49 1043.47,278.49 1045.71,278.49 1047.95,600.00 1050.18,600.00 1052.42,254.63 1054.66,600.00 1056.90,245.74 1059.14,245.74 1061.38,246.14 1063.61,245.74 1065.85,245.74 1068.09,245.74 1070.33,245.74 1072.57,245.74 1074.80,240.07 1077.04,238.05 1079.28,238.05 1081.52,227.13 1083.76,227.13 1086.00,226.32 1088.23,227.54 1090.47,226.73 1092.71,226.32 1094.95,227.13 1097.19,227.13 1099.43,226.73 1101.66,226.32 1103.90,226.73 1106.14,226.73 1108.38,226.73 1110.62,225.11 1112.85,224.71 1115.09,225.11 1117.33,224.30 1119.57,226.32 1121.81,224.30 1124.05,225.51 1126.28,225.51 1128.52,225.51 1130.76,225.92 1133.00,223.09 1135.24,223.49 1137.47,223.09 1139.71,223.09 1141.95,223.90 1144.19,223.49 1146.43,223.49 1148.67,223.09 1150.90,223.09 1153.14,223.49 1155.38,223.09 1157.62,223.09 1159.86,223.49 1162.09,223.49 1164.33,223.09 1166.57,223.09 1168.81,223.49 1171.05,223.09 1173.29,223.09 1175.52,223.09 1177.76,223.49 1180.00,223.49"/>
<circle cx="90.00" cy="540.55" r="3.2" fill="#1d4ed8"/>
<circle cx="92.24" cy="538.53" r="3.2" fill="#1d4ed8"/>
<circle cx="94.48" cy="536.91" r="3.2" fill="#1d4ed8"/>
<circle cx="96.71" cy="534.49" r="3.2" fill="#1d4ed8"/>
<circle cx="98.95" cy="534.49" r="3.2" fill="#1d4ed8"/>
<circle cx="101.19" cy="533.27" r="3.2" fill="#1d4ed8"/>
<circle cx="103.43" cy="532.46" r="3.2" fill="#1d4ed8"/>
<circle cx="105.67" cy="532.87" r="3.2" fill="#1d4ed8"/>
<circle cx="107.91" cy="532.06" r="3.2" fill="#1d4ed8"/>
<circle cx="110.14" cy="532.46" r="3.2" fill="#1d4ed8"/>
<circle cx="112.38" cy="532.06" r="3.2" fill="#1d4ed8"/>
<circle cx="114.62" cy="568.46" r="3.2" fill="#1d4ed8"/>
<circle cx="116.86" cy="568.46" r="3.2" fill="#1d4ed8"/>
<circle cx="119.10" cy="566.43" r="3.2" fill="#1d4ed8"/>
<circle cx="121.33" cy="545.00" r="3.2" fill="#1d4ed8"/>
<circle cx="123.57" cy="545.00" r="3.2" fill="#1d4ed8"/>
<circle cx="125.81" cy="544.19" r="3.2" fill="#1d4ed8"/>
<circle cx="128.05" cy="543.79" r="3.2" fill="#1d4ed8"/>
<circle cx="130.29" cy="543.79" r="3.2" fill="#1d4ed8"/>
<circle cx="132.53" cy="543.38" r="3.2" fill="#1d4ed8"/>
<circle cx="134.76" cy="541.76" r="3.2" fill="#1d4ed8"/>
<circle cx="137.00" cy="541.36" r="3.2" fill="#1d4ed8"/>
<circle cx="139.24" cy="540.96" r="3.2" fill="#1d4ed8"/>
<circle cx="141.48" cy="540.96" r="3.2" fill="#1d4ed8"/>
<circle cx="143.72" cy="539.34" r="3.2" fill="#1d4ed8"/>
<circle cx="145.95" cy="539.34" r="3.2" fill="#1d4ed8"/>
<circle cx="148.19" cy="556.73" r="3.2" fill="#1d4ed8"/>
<circle cx="150.43" cy="556.73" r="3.2" fill="#1d4ed8"/>
<circle cx="152.67" cy="555.51" r="3.2" fill="#1d4ed8"/>
<circle cx="154.91" cy="551.07" r="3.2" fill="#1d4ed8"/>
<circle cx="157.15" cy="538.93" r="3.2" fill="#1d4ed8"/>
<circle cx="159.38" cy="538.93" r="3.2" fill="#1d4ed8"/>
<circle cx="161.62" cy="538.93" r="3.2" fill="#1d4ed8"/>
<circle cx="163.86" cy="538.12" r="3.2" fill="#1d4ed8"/>
<circle cx="166.10" cy="536.91" r="3.2" fill="#1d4ed8"/>
<circle cx="168.34" cy="536.91" r="3.2" fill="#1d4ed8"/>
<circle cx="170.57" cy="536.51" r="3.2" fill="#1d4ed8"/>
<circle cx="172.81" cy="536.51" r="3.2" fill="#1d4ed8"/>
<circle cx="175.05" cy="556.73" r="3.2" fill="#1d4ed8"/>
<circle cx="177.29" cy="556.73" r="3.2" fill="#1d4ed8"/>
<circle cx="179.53" cy="556.73" r="3.2" fill="#1d4ed8"/>
<circle cx="181.77" cy="556.73" r="3.2" fill="#1d4ed8"/>
<circle cx="184.00" cy="535.29" r="3.2" fill="#1d4ed8"/>
<circle cx="186.24" cy="535.29" r="3.2" fill="#1d4ed8"/>
<circle cx="188.48" cy="535.29" r="3.2" fill="#1d4ed8"/>
<circle cx="190.72" cy="535.29" r="3.2" fill="#1d4ed8"/>
<circle cx="192.96" cy="534.49" r="3.2" fill="#1d4ed8"/>
<circle cx="195.20" cy="534.08" r="3.2" fill="#1d4ed8"/>
<circle cx="197.43" cy="533.68" r="3.2" fill="#1d4ed8"/>
<circle cx="199.67" cy="532.87" r="3.2" fill="#1d4ed8"/>
<circle cx="201.91" cy="532.06" r="3.2" fill="#1d4ed8"/>
<circle cx="204.15" cy="532.06" r="3.2" fill="#1d4ed8"/>
<circle cx="206.39" cy="531.25" r="3.2" fill="#1d4ed8"/>
<circle cx="208.62" cy="530.85" r="3.2" fill="#1d4ed8"/>
<circle cx="210.86" cy="530.44" r="3.2" fill="#1d4ed8"/>
<circle cx="213.10" cy="530.04" r="3.2" fill="#1d4ed8"/>
<circle cx="215.34" cy="530.04" r="3.2" fill="#1d4ed8"/>
<circle cx="217.58" cy="529.23" r="3.2" fill="#1d4ed8"/>
<circle cx="219.82" cy="529.23" r="3.2" fill="#1d4ed8"/>
<circle cx="222.05" cy="529.23" r="3.2" fill="#1d4ed8"/>
<circle cx="224.29" cy="528.42" r="3.2" fill="#1d4ed8"/>
<circle cx="226.53" cy="528.42" r="3.2" fill="#1d4ed8"/>
<circle cx="228.77" cy="527.61" r="3.2" fill="#1d4ed8"/>
<circle cx="231.01" cy="527.21" r="3.2" fill="#1d4ed8"/>
<circle cx="233.24" cy="526.80" r="3.2" fill="#1d4ed8"/>
<circle cx="235.48" cy="526.40" r="3.2" fill="#1d4ed8"/>
<circle cx="237.72" cy="525.18" r="3.2" fill="#1d4ed8"/>
<circle cx="239.96" cy="523.57" r="3.2" fill="#1d4ed8"/>
<circle cx="242.20" cy="523.57" r="3.2" fill="#1d4ed8"/>
<circle cx="244.44" cy="523.16" r="3.2" fill="#1d4ed8"/>
<circle cx="246.67" cy="522.76" r="3.2" fill="#1d4ed8"/>
<circle cx="248.91" cy="522.35" r="3.2" fill="#1d4ed8"/>
<circle cx="251.15" cy="521.54" r="3.2" fill="#1d4ed8"/>
<circle cx="253.39" cy="519.52" r="3.2" fill="#1d4ed8"/>
<circle cx="255.63" cy="517.50" r="3.2" fill="#1d4ed8"/>
<circle cx="257.86" cy="517.50" r="3.2" fill="#1d4ed8"/>
<circle cx="260.10" cy="517.50" r="3.2" fill="#1d4ed8"/>
<circle cx="262.34" cy="517.50" r="3.2" fill="#1d4ed8"/>
<circle cx="264.58" cy="517.50" r="3.2" fill="#1d4ed8"/>
<circle cx="266.82" cy="517.50" r="3.2" fill="#1d4ed8"/>
<circle cx="269.06" cy="517.10" r="3.2" fill="#1d4ed8"/>
<circle cx="271.29" cy="516.69" r="3.2" fill="#1d4ed8"/>
<circle cx="273.53" cy="515.48" r="3.2" fill="#1d4ed8"/>
<circle cx="275.77" cy="515.07" r="3.2" fill="#1d4ed8"/>
<circle cx="278.01" cy="514.67" r="3.2" fill="#1d4ed8"/>
<circle cx="280.25" cy="513.86" r="3.2" fill="#1d4ed8"/>
<circle cx="282.48" cy="514.26" r="3.2" fill="#1d4ed8"/>
<circle cx="284.72" cy="512.24" r="3.2" fill="#1d4ed8"/>
<circle cx="286.96" cy="511.84" r="3.2" fill="#1d4ed8"/>
<circle cx="289.20" cy="511.84" r="3.2" fill="#1d4ed8"/>
<circle cx="291.44" cy="511.03" r="3.2" fill="#1d4ed8"/>
<circle cx="293.68" cy="509.82" r="3.2" fill="#1d4ed8"/>
<circle cx="295.91" cy="507.79" r="3.2" fill="#1d4ed8"/>
<circle cx="298.15" cy="506.99" r="3.2" fill="#1d4ed8"/>
<circle cx="300.39" cy="506.58" r="3.2" fill="#1d4ed8"/>
<circle cx="302.63" cy="509.41" r="3.2" fill="#1d4ed8"/>
<circle cx="304.87" cy="509.01" r="3.2" fill="#1d4ed8"/>
<circle cx="307.10" cy="504.96" r="3.2" fill="#1d4ed8"/>
<circle cx="309.34" cy="504.56" r="3.2" fill="#1d4ed8"/>
<circle cx="311.58" cy="504.15" r="3.2" fill="#1d4ed8"/>
<circle cx="313.82" cy="504.56" r="3.2" fill="#1d4ed8"/>
<circle cx="316.06" cy="503.75" r="3.2" fill="#1d4ed8"/>
<circle cx="318.30" cy="503.75" r="3.2" fill="#1d4ed8"/>
<circle cx="320.53" cy="503.35" r="3.2" fill="#1d4ed8"/>
<circle cx="322.77" cy="499.30" r="3.2" fill="#1d4ed8"/>
<circle cx="325.01" cy="496.47" r="3.2" fill="#1d4ed8"/>
<circle cx="327.25" cy="490.00" r="3.2" fill="#1d4ed8"/>
<circle cx="329.49" cy="484.34" r="3.2" fill="#1d4ed8"/>
<circle cx="331.72" cy="481.10" r="3.2" fill="#1d4ed8"/>
<circle cx="333.96" cy="480.29" r="3.2" fill="#1d4ed8"/>
<circle cx="336.20" cy="480.70" r="3.2" fill="#1d4ed8"/>
<circle cx="338.44" cy="460.88" r="3.2" fill="#1d4ed8"/>
<circle cx="340.68" cy="459.26" r="3.2" fill="#1d4ed8"/>
<circle cx="342.92" cy="458.05" r="3.2" fill="#1d4ed8"/>
<circle cx="345.15" cy="456.03" r="3.2" fill="#1d4ed8"/>
<circle cx="347.39" cy="456.03" r="3.2" fill="#1d4ed8"/>
<circle cx="349.63" cy="454.41" r="3.2" fill="#1d4ed8"/>
<circle cx="351.87" cy="450.77" r="3.2" fill="#1d4ed8"/>
<circle cx="354.11" cy="444.30" r="3.2" fill="#1d4ed8"/>
<circle cx="356.34" cy="443.90" r="3.2" fill="#1d4ed8"/>
<circle cx="358.58" cy="600.00" r="3.2" fill="#1d4ed8"/>
<circle cx="360.82" cy="441.88" r="3.2" fill="#1d4ed8"/>
<circle cx="363.06" cy="440.66" r="3.2" fill="#1d4ed8"/>
<circle cx="365.30" cy="439.45" r="3.2" fill="#1d4ed8"/>
<circle cx="367.54" cy="439.04" r="3.2" fill="#1d4ed8"/>
<circle cx="369.77" cy="438.64" r="3.2" fill="#1d4ed8"/>
<circle cx="372.01" cy="437.83" r="3.2" fill="#1d4ed8"/>
<circle cx="374.25" cy="436.62" r="3.2" fill="#1d4ed8"/>
<circle cx="376.49" cy="436.62" r="3.2" fill="#1d4ed8"/>
<circle cx="378.73" cy="434.60" r="3.2" fill="#1d4ed8"/>
<circle cx="380.97" cy="432.17" r="3.2" fill="#1d4ed8"/>
<circle cx="383.20" cy="429.34" r="3.2" fill="#1d4ed8"/>
<circle cx="385.44" cy="428.93" r="3.2" fill="#1d4ed8"/>
<circle cx="387.68" cy="428.53" r="3.2" fill="#1d4ed8"/>
<circle cx="389.92" cy="427.72" r="3.2" fill="#1d4ed8"/>
<circle cx="392.16" cy="426.91" r="3.2" fill="#1d4ed8"/>
<circle cx="394.39" cy="426.10" r="3.2" fill="#1d4ed8"/>
<circle cx="396.63" cy="426.10" r="3.2" fill="#1d4ed8"/>
<circle cx="398.87" cy="426.10" r="3.2" fill="#1d4ed8"/>
<circle cx="401.11" cy="419.63" r="3.2" fill="#1d4ed8"/>
<circle cx="403.35" cy="419.23" r="3.2" fill="#1d4ed8"/>
<circle cx="405.59" cy="418.42" r="3.2" fill="#1d4ed8"/>
<circle cx="407.82" cy="418.01" r="3.2" fill="#1d4ed8"/>
<circle cx="410.06" cy="417.61" r="3.2" fill="#1d4ed8"/>
<circle cx="412.30" cy="417.61" r="3.2" fill="#1d4ed8"/>
<circle cx="414.54" cy="417.61" r="3.2" fill="#1d4ed8"/>
<circle cx="416.78" cy="417.21" r="3.2" fill="#1d4ed8"/>
<circle cx="419.01" cy="417.21" r="3.2" fill="#1d4ed8"/>
<circle cx="421.25" cy="413.57" r="3.2" fill="#1d4ed8"/>
<circle cx="423.49" cy="411.95" r="3.2" fill="#1d4ed8"/>
<circle cx="425.73" cy="412.76" r="3.2" fill="#1d4ed8"/>
<circle cx="427.97" cy="410.74" r="3.2" fill="#1d4ed8"/>
<circle cx="430.21" cy="410.74" r="3.2" fill="#1d4ed8"/>
<circle cx="432.44" cy="410.33" r="3.2" fill="#1d4ed8"/>
<circle cx="434.68" cy="410.33" r="3.2" fill="#1d4ed8"/>
<circle cx="436.92" cy="410.33" r="3.2" fill="#1d4ed8"/>
<circle cx="439.16" cy="409.93" r="3.2" fill="#1d4ed8"/>
<circle cx="441.40" cy="409.93" r="3.2" fill="#1d4ed8"/>
<circle cx="443.63" cy="409.93" r="3.2" fill="#1d4ed8"/>
<circle cx="445.87" cy="409.52" r="3.2" fill="#1d4ed8"/>
<circle cx="448.11" cy="409.52" r="3.2" fill="#1d4ed8"/>
<circle cx="450.35" cy="409.12" r="3.2" fill="#1d4ed8"/>
<circle cx="452.59" cy="409.52" r="3.2" fill="#1d4ed8"/>
<circle cx="454.83" cy="409.12" r="3.2" fill="#1d4ed8"/>
<circle cx="457.06" cy="407.50" r="3.2" fill="#1d4ed8"/>
<circle cx="459.30" cy="407.10" r="3.2" fill="#1d4ed8"/>
<circle cx="461.54" cy="403.05" r="3.2" fill="#1d4ed8"/>
<circle cx="463.78" cy="399.82" r="3.2" fill="#1d4ed8"/>
<circle cx="466.02" cy="400.22" r="3.2" fill="#1d4ed8"/>
<circle cx="468.25" cy="400.62" r="3.2" fill="#1d4ed8"/>
<circle cx="470.49" cy="400.62" r="3.2" fill="#1d4ed8"/>
<circle cx="472.73" cy="399.41" r="3.2" fill="#1d4ed8"/>
<circle cx="474.97" cy="392.94" r="3.2" fill="#1d4ed8"/>
<circle cx="477.21" cy="391.32" r="3.2" fill="#1d4ed8"/>
<circle cx="479.45" cy="389.30" r="3.2" fill="#1d4ed8"/>
<circle cx="481.68" cy="389.30" r="3.2" fill="#1d4ed8"/>
<circle cx="483.92" cy="388.49" r="3.2" fill="#1d4ed8"/>
<circle cx="486.16" cy="375.15" r="3.2" fill="#1d4ed8"/>
<circle cx="488.40" cy="374.74" r="3.2" fill="#1d4ed8"/>
<circle cx="490.64" cy="374.74" r="3.2" fill="#1d4ed8"/>
<circle cx="492.87" cy="374.74" r="3.2" fill="#1d4ed8"/>
<circle cx="495.11" cy="374.74" r="3.2" fill="#1d4ed8"/>
<circle cx="497.35" cy="374.34" r="3.2" fill="#1d4ed8"/>
<circle cx="499.59" cy="374.34" r="3.2" fill="#1d4ed8"/>
<circle cx="501.83" cy="374.34" r="3.2" fill="#1d4ed8"/>
<circle cx="504.07" cy="374.34" r="3.2" fill="#1d4ed8"/>
<circle cx="506.30" cy="374.34" r="3.2" fill="#1d4ed8"/>
<circle cx="508.54" cy="373.93" r="3.2" fill="#1d4ed8"/>
<circle cx="510.78" cy="373.12" r="3.2" fill="#1d4ed8"/>
<circle cx="513.02" cy="372.72" r="3.2" fill="#1d4ed8"/>
<circle cx="515.26" cy="373.53" r="3.2" fill="#1d4ed8"/>
<circle cx="517.49" cy="435.81" r="3.2" fill="#1d4ed8"/>
<circle cx="519.73" cy="372.32" r="3.2" fill="#1d4ed8"/>
<circle cx="521.97" cy="372.72" r="3.2" fill="#1d4ed8"/>
<circle cx="524.21" cy="371.91" r="3.2" fill="#1d4ed8"/>
<circle cx="526.45" cy="371.91" r="3.2" fill="#1d4ed8"/>
<circle cx="528.69" cy="372.32" r="3.2" fill="#1d4ed8"/>
<circle cx="530.92" cy="371.10" r="3.2" fill="#1d4ed8"/>
<circle cx="533.16" cy="369.89" r="3.2" fill="#1d4ed8"/>
<circle cx="535.40" cy="369.89" r="3.2" fill="#1d4ed8"/>
<circle cx="537.64" cy="369.89" r="3.2" fill="#1d4ed8"/>
<circle cx="539.88" cy="369.49" r="3.2" fill="#1d4ed8"/>
<circle cx="542.11" cy="369.89" r="3.2" fill="#1d4ed8"/>
<circle cx="544.35" cy="369.08" r="3.2" fill="#1d4ed8"/>
<circle cx="546.59" cy="368.68" r="3.2" fill="#1d4ed8"/>
<circle cx="548.83" cy="368.27" r="3.2" fill="#1d4ed8"/>
<circle cx="551.07" cy="367.87" r="3.2" fill="#1d4ed8"/>
<circle cx="553.31" cy="367.06" r="3.2" fill="#1d4ed8"/>
<circle cx="555.54" cy="367.46" r="3.2" fill="#1d4ed8"/>
<circle cx="557.78" cy="367.06" r="3.2" fill="#1d4ed8"/>
<circle cx="560.02" cy="366.25" r="3.2" fill="#1d4ed8"/>
<circle cx="562.26" cy="368.27" r="3.2" fill="#1d4ed8"/>
<circle cx="564.50" cy="368.68" r="3.2" fill="#1d4ed8"/>
<circle cx="566.74" cy="368.68" r="3.2" fill="#1d4ed8"/>
<circle cx="568.97" cy="368.27" r="3.2" fill="#1d4ed8"/>
<circle cx="571.21" cy="369.08" r="3.2" fill="#1d4ed8"/>
<circle cx="573.45" cy="367.87" r="3.2" fill="#1d4ed8"/>
<circle cx="575.69" cy="367.46" r="3.2" fill="#1d4ed8"/>
<circle cx="577.93" cy="367.06" r="3.2" fill="#1d4ed8"/>
<circle cx="580.16" cy="360.18" r="3.2" fill="#1d4ed8"/>
<circle cx="582.40" cy="359.78" r="3.2" fill="#1d4ed8"/>
<circle cx="584.64" cy="359.38" r="3.2" fill="#1d4ed8"/>
<circle cx="586.88" cy="356.95" r="3.2" fill="#1d4ed8"/>
<circle cx="589.12" cy="357.35" r="3.2" fill="#1d4ed8"/>
<circle cx="591.36" cy="357.76" r="3.2" fill="#1d4ed8"/>
<circle cx="593.59" cy="355.33" r="3.2" fill="#1d4ed8"/>
<circle cx="595.83" cy="355.74" r="3.2" fill="#1d4ed8"/>
<circle cx="598.07" cy="357.35" r="3.2" fill="#1d4ed8"/>
<circle cx="600.31" cy="355.33" r="3.2" fill="#1d4ed8"/>
<circle cx="602.55" cy="356.14" r="3.2" fill="#1d4ed8"/>
<circle cx="604.78" cy="355.74" r="3.2" fill="#1d4ed8"/>
<circle cx="607.02" cy="356.14" r="3.2" fill="#1d4ed8"/>
<circle cx="609.26" cy="354.12" r="3.2" fill="#1d4ed8"/>
<circle cx="611.50" cy="354.93" r="3.2" fill="#1d4ed8"/>
<circle cx="613.74" cy="356.14" r="3.2" fill="#1d4ed8"/>
<circle cx="615.98" cy="354.52" r="3.2" fill="#1d4ed8"/>
<circle cx="618.21" cy="353.71" r="3.2" fill="#1d4ed8"/>
<circle cx="620.45" cy="354.12" r="3.2" fill="#1d4ed8"/>
<circle cx="622.69" cy="354.93" r="3.2" fill="#1d4ed8"/>
<circle cx="624.93" cy="352.90" r="3.2" fill="#1d4ed8"/>
<circle cx="627.17" cy="353.71" r="3.2" fill="#1d4ed8"/>
<circle cx="629.40" cy="353.31" r="3.2" fill="#1d4ed8"/>
<circle cx="631.64" cy="353.31" r="3.2" fill="#1d4ed8"/>
<circle cx="633.88" cy="354.52" r="3.2" fill="#1d4ed8"/>
<circle cx="636.12" cy="352.90" r="3.2" fill="#1d4ed8"/>
<circle cx="638.36" cy="352.50" r="3.2" fill="#1d4ed8"/>
<circle cx="640.60" cy="352.50" r="3.2" fill="#1d4ed8"/>
<circle cx="642.83" cy="353.31" r="3.2" fill="#1d4ed8"/>
<circle cx="645.07" cy="352.50" r="3.2" fill="#1d4ed8"/>
<circle cx="647.31" cy="353.71" r="3.2" fill="#1d4ed8"/>
<circle cx="649.55" cy="354.12" r="3.2" fill="#1d4ed8"/>
<circle cx="651.79" cy="352.50" r="3.2" fill="#1d4ed8"/>
<circle cx="654.02" cy="352.90" r="3.2" fill="#1d4ed8"/>
<circle cx="656.26" cy="352.50" r="3.2" fill="#1d4ed8"/>
<circle cx="658.50" cy="352.10" r="3.2" fill="#1d4ed8"/>
<circle cx="660.74" cy="351.69" r="3.2" fill="#1d4ed8"/>
<circle cx="662.98" cy="352.10" r="3.2" fill="#1d4ed8"/>
<circle cx="665.22" cy="354.12" r="3.2" fill="#1d4ed8"/>
<circle cx="667.45" cy="352.50" r="3.2" fill="#1d4ed8"/>
<circle cx="669.69" cy="352.10" r="3.2" fill="#1d4ed8"/>
<circle cx="671.93" cy="352.10" r="3.2" fill="#1d4ed8"/>
<circle cx="674.17" cy="349.67" r="3.2" fill="#1d4ed8"/>
<circle cx="676.41" cy="349.67" r="3.2" fill="#1d4ed8"/>
<circle cx="678.64" cy="350.88" r="3.2" fill="#1d4ed8"/>
<circle cx="680.88" cy="351.29" r="3.2" fill="#1d4ed8"/>
<circle cx="683.12" cy="350.48" r="3.2" fill="#1d4ed8"/>
<circle cx="685.36" cy="352.10" r="3.2" fill="#1d4ed8"/>
<circle cx="687.60" cy="350.48" r="3.2" fill="#1d4ed8"/>
<circle cx="689.84" cy="350.48" r="3.2" fill="#1d4ed8"/>
<circle cx="692.07" cy="350.48" r="3.2" fill="#1d4ed8"/>
<circle cx="694.31" cy="350.07" r="3.2" fill="#1d4ed8"/>
<circle cx="696.55" cy="348.46" r="3.2" fill="#1d4ed8"/>
<circle cx="698.79" cy="351.29" r="3.2" fill="#1d4ed8"/>
<circle cx="701.03" cy="349.67" r="3.2" fill="#1d4ed8"/>
<circle cx="703.26" cy="351.29" r="3.2" fill="#1d4ed8"/>
<circle cx="705.50" cy="349.67" r="3.2" fill="#1d4ed8"/>
<circle cx="707.74" cy="348.86" r="3.2" fill="#1d4ed8"/>
<circle cx="709.98" cy="348.46" r="3.2" fill="#1d4ed8"/>
<circle cx="712.22" cy="348.46" r="3.2" fill="#1d4ed8"/>
<circle cx="714.46" cy="347.24" r="3.2" fill="#1d4ed8"/>
<circle cx="716.69" cy="348.86" r="3.2" fill="#1d4ed8"/>
<circle cx="718.93" cy="346.84" r="3.2" fill="#1d4ed8"/>
<circle cx="721.17" cy="348.46" r="3.2" fill="#1d4ed8"/>
<circle cx="723.41" cy="348.86" r="3.2" fill="#1d4ed8"/>
<circle cx="725.65" cy="346.84" r="3.2" fill="#1d4ed8"/>
<circle cx="727.89" cy="349.26" r="3.2" fill="#1d4ed8"/>
<circle cx="730.12" cy="348.05" r="3.2" fill="#1d4ed8"/>
<circle cx="732.36" cy="349.26" r="3.2" fill="#1d4ed8"/>
<circle cx="734.60" cy="349.26" r="3.2" fill="#1d4ed8"/>
<circle cx="736.84" cy="350.48" r="3.2" fill="#1d4ed8"/>
<circle cx="739.08" cy="352.90" r="3.2" fill="#1d4ed8"/>
<circle cx="741.31" cy="349.67" r="3.2" fill="#1d4ed8"/>
<circle cx="743.55" cy="348.46" r="3.2" fill="#1d4ed8"/>
<circle cx="745.79" cy="345.62" r="3.2" fill="#1d4ed8"/>
<circle cx="748.03" cy="344.82" r="3.2" fill="#1d4ed8"/>
<circle cx="750.27" cy="344.41" r="3.2" fill="#1d4ed8"/>
<circle cx="752.51" cy="342.39" r="3.2" fill="#1d4ed8"/>
<circle cx="754.74" cy="341.18" r="3.2" fill="#1d4ed8"/>
<circle cx="756.98" cy="341.58" r="3.2" fill="#1d4ed8"/>
<circle cx="759.22" cy="339.15" r="3.2" fill="#1d4ed8"/>
<circle cx="761.46" cy="338.35" r="3.2" fill="#1d4ed8"/>
<circle cx="763.70" cy="337.54" r="3.2" fill="#1d4ed8"/>
<circle cx="765.93" cy="336.73" r="3.2" fill="#1d4ed8"/>
<circle cx="768.17" cy="335.92" r="3.2" fill="#1d4ed8"/>
<circle cx="770.41" cy="337.54" r="3.2" fill="#1d4ed8"/>
<circle cx="772.65" cy="338.35" r="3.2" fill="#1d4ed8"/>
<circle cx="774.89" cy="337.54" r="3.2" fill="#1d4ed8"/>
<circle cx="777.13" cy="337.54" r="3.2" fill="#1d4ed8"/>
<circle cx="779.36" cy="337.54" r="3.2" fill="#1d4ed8"/>
<circle cx="781.60" cy="333.09" r="3.2" fill="#1d4ed8"/>
<circle cx="783.84" cy="333.90" r="3.2" fill="#1d4ed8"/>
<circle cx="786.08" cy="335.92" r="3.2" fill="#1d4ed8"/>
<circle cx="788.32" cy="336.73" r="3.2" fill="#1d4ed8"/>
<circle cx="790.55" cy="335.51" r="3.2" fill="#1d4ed8"/>
<circle cx="792.79" cy="332.28" r="3.2" fill="#1d4ed8"/>
<circle cx="795.03" cy="331.47" r="3.2" fill="#1d4ed8"/>
<circle cx="797.27" cy="331.07" r="3.2" fill="#1d4ed8"/>
<circle cx="799.51" cy="331.47" r="3.2" fill="#1d4ed8"/>
<circle cx="801.75" cy="331.07" r="3.2" fill="#1d4ed8"/>
<circle cx="803.98" cy="331.07" r="3.2" fill="#1d4ed8"/>
<circle cx="806.22" cy="331.07" r="3.2" fill="#1d4ed8"/>
<circle cx="808.46" cy="331.07" r="3.2" fill="#1d4ed8"/>
<circle cx="810.70" cy="331.07" r="3.2" fill="#1d4ed8"/>
<circle cx="812.94" cy="331.07" r="3.2" fill="#1d4ed8"/>
<circle cx="815.17" cy="331.07" r="3.2" fill="#1d4ed8"/>
<circle cx="817.41" cy="331.07" r="3.2" fill="#1d4ed8"/>
<circle cx="819.65" cy="331.07" r="3.2" fill="#1d4ed8"/>
<circle cx="821.89" cy="331.07" r="3.2" fill="#1d4ed8"/>
<circle cx="824.13" cy="331.47" r="3.2" fill="#1d4ed8"/>
<circle cx="826.37" cy="331.88" r="3.2" fill="#1d4ed8"/>
<circle cx="828.60" cy="331.07" r="3.2" fill="#1d4ed8"/>
<circle cx="830.84" cy="331.47" r="3.2" fill="#1d4ed8"/>
<circle cx="833.08" cy="331.07" r="3.2" fill="#1d4ed8"/>
<circle cx="835.32" cy="331.47" r="3.2" fill="#1d4ed8"/>
<circle cx="837.56" cy="331.07" r="3.2" fill="#1d4ed8"/>
<circle cx="839.79" cy="324.19" r="3.2" fill="#1d4ed8"/>
<circle cx="842.03" cy="324.19" r="3.2" fill="#1d4ed8"/>
<circle cx="844.27" cy="318.93" r="3.2" fill="#1d4ed8"/>
<circle cx="846.51" cy="316.51" r="3.2" fill="#1d4ed8"/>
<circle cx="848.75" cy="310.44" r="3.2" fill="#1d4ed8"/>
<circle cx="850.99" cy="308.01" r="3.2" fill="#1d4ed8"/>
<circle cx="853.22" cy="600.00" r="3.2" fill="#1d4ed8"/>
<circle cx="855.46" cy="301.54" r="3.2" fill="#1d4ed8"/>
<circle cx="857.70" cy="290.22" r="3.2" fill="#1d4ed8"/>
<circle cx="859.94" cy="287.79" r="3.2" fill="#1d4ed8"/>
<circle cx="862.18" cy="286.18" r="3.2" fill="#1d4ed8"/>
<circle cx="864.41" cy="285.77" r="3.2" fill="#1d4ed8"/>
<circle cx="866.65" cy="285.77" r="3.2" fill="#1d4ed8"/>
<circle cx="868.89" cy="285.77" r="3.2" fill="#1d4ed8"/>
<circle cx="871.13" cy="286.18" r="3.2" fill="#1d4ed8"/>
<circle cx="873.37" cy="285.77" r="3.2" fill="#1d4ed8"/>
<circle cx="875.61" cy="285.77" r="3.2" fill="#1d4ed8"/>
<circle cx="877.84" cy="285.77" r="3.2" fill="#1d4ed8"/>
<circle cx="880.08" cy="283.35" r="3.2" fill="#1d4ed8"/>
<circle cx="882.32" cy="282.94" r="3.2" fill="#1d4ed8"/>
<circle cx="884.56" cy="282.94" r="3.2" fill="#1d4ed8"/>
<circle cx="886.80" cy="283.35" r="3.2" fill="#1d4ed8"/>
<circle cx="889.03" cy="282.94" r="3.2" fill="#1d4ed8"/>
<circle cx="891.27" cy="282.94" r="3.2" fill="#1d4ed8"/>
<circle cx="893.51" cy="283.75" r="3.2" fill="#1d4ed8"/>
<circle cx="895.75" cy="282.13" r="3.2" fill="#1d4ed8"/>
<circle cx="897.99" cy="282.13" r="3.2" fill="#1d4ed8"/>
<circle cx="900.23" cy="282.54" r="3.2" fill="#1d4ed8"/>
<circle cx="902.46" cy="282.13" r="3.2" fill="#1d4ed8"/>
<circle cx="904.70" cy="282.54" r="3.2" fill="#1d4ed8"/>
<circle cx="906.94" cy="282.94" r="3.2" fill="#1d4ed8"/>
<circle cx="909.18" cy="281.73" r="3.2" fill="#1d4ed8"/>
<circle cx="911.42" cy="282.54" r="3.2" fill="#1d4ed8"/>
<circle cx="913.66" cy="281.73" r="3.2" fill="#1d4ed8"/>
<circle cx="915.89" cy="282.54" r="3.2" fill="#1d4ed8"/>
<circle cx="918.13" cy="282.13" r="3.2" fill="#1d4ed8"/>
<circle cx="920.37" cy="282.13" r="3.2" fill="#1d4ed8"/>
<circle cx="922.61" cy="281.73" r="3.2" fill="#1d4ed8"/>
<circle cx="924.85" cy="281.73" r="3.2" fill="#1d4ed8"/>
<circle cx="927.08" cy="281.32" r="3.2" fill="#1d4ed8"/>
<circle cx="929.32" cy="281.73" r="3.2" fill="#1d4ed8"/>
<circle cx="931.56" cy="282.13" r="3.2" fill="#1d4ed8"/>
<circle cx="933.80" cy="281.32" r="3.2" fill="#1d4ed8"/>
<circle cx="936.04" cy="281.32" r="3.2" fill="#1d4ed8"/>
<circle cx="938.28" cy="282.54" r="3.2" fill="#1d4ed8"/>
<circle cx="940.51" cy="282.13" r="3.2" fill="#1d4ed8"/>
<circle cx="942.75" cy="281.32" r="3.2" fill="#1d4ed8"/>
<circle cx="944.99" cy="281.32" r="3.2" fill="#1d4ed8"/>
<circle cx="947.23" cy="281.32" r="3.2" fill="#1d4ed8"/>
<circle cx="949.47" cy="282.54" r="3.2" fill="#1d4ed8"/>
<circle cx="951.70" cy="282.13" r="3.2" fill="#1d4ed8"/>
<circle cx="953.94" cy="281.32" r="3.2" fill="#1d4ed8"/>
<circle cx="956.18" cy="282.13" r="3.2" fill="#1d4ed8"/>
<circle cx="958.42" cy="281.73" r="3.2" fill="#1d4ed8"/>
<circle cx="960.66" cy="282.13" r="3.2" fill="#1d4ed8"/>
<circle cx="962.90" cy="280.11" r="3.2" fill="#1d4ed8"/>
<circle cx="965.13" cy="280.11" r="3.2" fill="#1d4ed8"/>
<circle cx="967.37" cy="280.51" r="3.2" fill="#1d4ed8"/>
<circle cx="969.61" cy="279.71" r="3.2" fill="#1d4ed8"/>
<circle cx="971.85" cy="280.11" r="3.2" fill="#1d4ed8"/>
<circle cx="974.09" cy="280.51" r="3.2" fill="#1d4ed8"/>
<circle cx="976.32" cy="279.71" r="3.2" fill="#1d4ed8"/>
<circle cx="978.56" cy="280.11" r="3.2" fill="#1d4ed8"/>
<circle cx="980.80" cy="280.11" r="3.2" fill="#1d4ed8"/>
<circle cx="983.04" cy="279.30" r="3.2" fill="#1d4ed8"/>
<circle cx="985.28" cy="278.90" r="3.2" fill="#1d4ed8"/>
<circle cx="987.52" cy="278.90" r="3.2" fill="#1d4ed8"/>
<circle cx="989.75" cy="280.51" r="3.2" fill="#1d4ed8"/>
<circle cx="991.99" cy="279.30" r="3.2" fill="#1d4ed8"/>
<circle cx="994.23" cy="278.09" r="3.2" fill="#1d4ed8"/>
<circle cx="996.47" cy="278.49" r="3.2" fill="#1d4ed8"/>
<circle cx="998.71" cy="278.49" r="3.2" fill="#1d4ed8"/>
<circle cx="1000.94" cy="277.28" r="3.2" fill="#1d4ed8"/>
<circle cx="1003.18" cy="277.68" r="3.2" fill="#1d4ed8"/>
<circle cx="1005.42" cy="277.68" r="3.2" fill="#1d4ed8"/>
<circle cx="1007.66" cy="278.09" r="3.2" fill="#1d4ed8"/>
<circle cx="1009.90" cy="277.28" r="3.2" fill="#1d4ed8"/>
<circle cx="1012.14" cy="600.00" r="3.2" fill="#1d4ed8"/>
<circle cx="1014.37" cy="278.90" r="3.2" fill="#1d4ed8"/>
<circle cx="1016.61" cy="279.30" r="3.2" fill="#1d4ed8"/>
<circle cx="1018.85" cy="278.90" r="3.2" fill="#1d4ed8"/>
<circle cx="1021.09" cy="278.49" r="3.2" fill="#1d4ed8"/>
<circle cx="1023.33" cy="278.49" r="3.2" fill="#1d4ed8"/>
<circle cx="1025.56" cy="278.49" r="3.2" fill="#1d4ed8"/>
<circle cx="1027.80" cy="278.49" r="3.2" fill="#1d4ed8"/>
<circle cx="1030.04" cy="278.49" r="3.2" fill="#1d4ed8"/>
<circle cx="1032.28" cy="278.49" r="3.2" fill="#1d4ed8"/>
<circle cx="1034.52" cy="278.49" r="3.2" fill="#1d4ed8"/>
<circle cx="1036.76" cy="278.49" r="3.2" fill="#1d4ed8"/>
<circle cx="1038.99" cy="278.49" r="3.2" fill="#1d4ed8"/>
<circle cx="1041.23" cy="278.49" r="3.2" fill="#1d4ed8"/>
<circle cx="1043.47" cy="278.49" r="3.2" fill="#1d4ed8"/>
<circle cx="1045.71" cy="278.49" r="3.2" fill="#1d4ed8"/>
<circle cx="1047.95" cy="600.00" r="3.2" fill="#1d4ed8"/>
<circle cx="1050.18" cy="600.00" r="3.2" fill="#1d4ed8"/>
<circle cx="1052.42" cy="254.63" r="3.2" fill="#1d4ed8"/>
<circle cx="1054.66" cy="600.00" r="3.2" fill="#1d4ed8"/>
<circle cx="1056.90" cy="245.74" r="3.2" fill="#1d4ed8"/>
<circle cx="1059.14" cy="245.74" r="3.2" fill="#1d4ed8"/>
<circle cx="1061.38" cy="246.14" r="3.2" fill="#1d4ed8"/>
<circle cx="1063.61" cy="245.74" r="3.2" fill="#1d4ed8"/>
<circle cx="1065.85" cy="245.74" r="3.2" fill="#1d4ed8"/>
<circle cx="1068.09" cy="245.74" r="3.2" fill="#1d4ed8"/>
<circle cx="1070.33" cy="245.74" r="3.2" fill="#1d4ed8"/>
<circle cx="1072.57" cy="245.74" r="3.2" fill="#1d4ed8"/>
<circle cx="1074.80" cy="240.07" r="3.2" fill="#1d4ed8"/>
<circle cx="1077.04" cy="238.05" r="3.2" fill="#1d4ed8"/>
<circle cx="1079.28" cy="238.05" r="3.2" fill="#1d4ed8"/>
<circle cx="1081.52" cy="227.13" r="3.2" fill="#1d4ed8"/>
<circle cx="1083.76" cy="227.13" r="3.2" fill="#1d4ed8"/>
<circle cx="1086.00" cy="226.32" r="3.2" fill="#1d4ed8"/>
<circle cx="1088.23" cy="227.54" r="3.2" fill="#1d4ed8"/>
<circle cx="1090.47" cy="226.73" r="3.2" fill="#1d4ed8"/>
<circle cx="1092.71" cy="226.32" r="3.2" fill="#1d4ed8"/>
<circle cx="1094.95" cy="227.13" r="3.2" fill="#1d4ed8"/>
<circle cx="1097.19" cy="227.13" r="3.2" fill="#1d4ed8"/>
<circle cx="1099.43" cy="226.73" r="3.2" fill="#1d4ed8"/>
<circle cx="1101.66" cy="226.32" r="3.2" fill="#1d4ed8"/>
<circle cx="1103.90" cy="226.73" r="3.2" fill="#1d4ed8"/>
<circle cx="1106.14" cy="226.73" r="3.2" fill="#1d4ed8"/>
<circle cx="1108.38" cy="226.73" r="3.2" fill="#1d4ed8"/>
<circle cx="1110.62" cy="225.11" r="3.2" fill="#1d4ed8"/>
<circle cx="1112.85" cy="224.71" r="3.2" fill="#1d4ed8"/>
<circle cx="1115.09" cy="225.11" r="3.2" fill="#1d4ed8"/>
<circle cx="1117.33" cy="224.30" r="3.2" fill="#1d4ed8"/>
<circle cx="1119.57" cy="226.32" r="3.2" fill="#1d4ed8"/>
<circle cx="1121.81" cy="224.30" r="3.2" fill="#1d4ed8"/>
<circle cx="1124.05" cy="225.51" r="3.2" fill="#1d4ed8"/>
<circle cx="1126.28" cy="225.51" r="3.2" fill="#1d4ed8"/>
<circle cx="1128.52" cy="225.51" r="3.2" fill="#1d4ed8"/>
<circle cx="1130.76" cy="225.92" r="3.2" fill="#1d4ed8"/>
<circle cx="1133.00" cy="223.09" r="3.2" fill="#1d4ed8"/>
<circle cx="1135.24" cy="223.49" r="3.2" fill="#1d4ed8"/>
<circle cx="1137.47" cy="223.09" r="3.2" fill="#1d4ed8"/>
<circle cx="1139.71" cy="223.09" r="3.2" fill="#1d4ed8"/>
<circle cx="1141.95" cy="223.90" r="3.2" fill="#1d4ed8"/>
<circle cx="1144.19" cy="223.49" r="3.2" fill="#1d4ed8"/>
<circle cx="1146.43" cy="223.49" r="3.2" fill="#1d4ed8"/>
<circle cx="1148.67" cy="223.09" r="3.2" fill="#1d4ed8"/>
<circle cx="1150.90" cy="223.09" r="3.2" fill="#1d4ed8"/>
<circle cx="1153.14" cy="223.49" r="3.2" fill="#1d4ed8"/>
<circle cx="1155.38" cy="223.09" r="3.2" fill="#1d4ed8"/>
<circle cx="1157.62" cy="223.09" r="3.2" fill="#1d4ed8"/>
<circle cx="1159.86" cy="223.49" r="3.2" fill="#1d4ed8"/>
<circle cx="1162.09" cy="223.49" r="3.2" fill="#1d4ed8"/>
<circle cx="1164.33" cy="223.09" r="3.2" fill="#1d4ed8"/>
<circle cx="1166.57" cy="223.09" r="3.2" fill="#1d4ed8"/>
<circle cx="1168.81" cy="223.49" r="3.2" fill="#1d4ed8"/>
<circle cx="1171.05" cy="223.09" r="3.2" fill="#1d4ed8"/>
<circle cx="1173.29" cy="223.09" r="3.2" fill="#1d4ed8"/>
<circle cx="1175.52" cy="223.09" r="3.2" fill="#1d4ed8"/>
<circle cx="1177.76" cy="223.49" r="3.2" fill="#1d4ed8"/>
<circle cx="1180.00" cy="223.49" r="3.2" fill="#1d4ed8"/>
<text x="635" y="695" text-anchor="middle" font-size="14" fill="#111" font-family="sans-serif">Date</text>
<text x="24" y="325" text-anchor="middle" font-size="14" fill="#111" transform="rotate(-90 24,325)" font-family="sans-serif">Passed files</text>
</svg>
