<?xml version="1.0" encoding="UTF-8"?>
<svg xmlns="http://www.w3.org/2000/svg" width="1280" height="720" viewBox="0 0 1280 720">
<rect width="100%" height="100%" fill="#ffffff"/>
<text x="640" y="30" text-anchor="middle" font-size="22" font-family="sans-serif">Roast passed files history</text>
<line x1="90" y1="600" x2="1180" y2="600" stroke="#333" stroke-width="1.5"/>
<line x1="90" y1="50" x2="90" y2="600" stroke="#333" stroke-width="1.5"/>
<line x1="90" y1="600.00" x2="1180" y2="600.00" stroke="#e5e7eb" stroke-width="1"/>
<text x="78" y="605.00" text-anchor="end" font-size="12" fill="#111" font-family="sans-serif">0</text>
<line x1="90" y1="397.79" x2="1180" y2="397.79" stroke="#e5e7eb" stroke-width="1"/>
<text x="78" y="402.79" text-anchor="end" font-size="12" fill="#111" font-family="sans-serif">500</text>
<line x1="90" y1="195.59" x2="1180" y2="195.59" stroke="#e5e7eb" stroke-width="1"/>
<text x="78" y="200.59" text-anchor="end" font-size="12" fill="#111" font-family="sans-serif">1000</text>
<line x1="90.00" y1="600" x2="90.00" y2="606" stroke="#333" stroke-width="1"/>
<text x="90.00" y="624" text-anchor="end" font-size="11" fill="#111" transform="rotate(-40 90.00,624)" font-family="sans-serif">2026-02-12</text>
<line x1="224.72" y1="600" x2="224.72" y2="606" stroke="#333" stroke-width="1"/>
<text x="224.72" y="624" text-anchor="end" font-size="11" fill="#111" transform="rotate(-40 224.72,624)" font-family="sans-serif">2026-02-17</text>
<line x1="359.44" y1="600" x2="359.44" y2="606" stroke="#333" stroke-width="1"/>
<text x="359.44" y="624" text-anchor="end" font-size="11" fill="#111" transform="rotate(-40 359.44,624)" font-family="sans-serif">2026-02-21</text>
<line x1="494.16" y1="600" x2="494.16" y2="606" stroke="#333" stroke-width="1"/>
<text x="494.16" y="624" text-anchor="end" font-size="11" fill="#111" transform="rotate(-40 494.16,624)" font-family="sans-serif">2026-02-25</text>
<line x1="628.88" y1="600" x2="628.88" y2="606" stroke="#333" stroke-width="1"/>
<text x="628.88" y="624" text-anchor="end" font-size="11" fill="#111" transform="rotate(-40 628.88,624)" font-family="sans-serif">2026-02-28</text>
<line x1="763.60" y1="600" x2="763.60" y2="606" stroke="#333" stroke-width="1"/>
<text x="763.60" y="624" text-anchor="end" font-size="11" fill="#111" transform="rotate(-40 763.60,624)" font-family="sans-serif">2026-03-05</text>
<line x1="898.31" y1="600" x2="898.31" y2="606" stroke="#333" stroke-width="1"/>
<text x="898.31" y="624" text-anchor="end" font-size="11" fill="#111" transform="rotate(-40 898.31,624)" font-family="sans-serif">2026-03-06</text>
<line x1="1033.03" y1="600" x2="1033.03" y2="606" stroke="#333" stroke-width="1"/>
<text x="1033.03" y="624" text-anchor="end" font-size="11" fill="#111" transform="rotate(-40 1033.03,624)" font-family="sans-serif">2026-03-11</text>
<line x1="1167.75" y1="600" x2="1167.75" y2="606" stroke="#333" stroke-width="1"/>
<text x="1167.75" y="624" text-anchor="end" font-size="11" fill="#111" transform="rotate(-40 1167.75,624)" font-family="sans-serif">2026-03-18</text>
<line x1="1180.00" y1="600" x2="1180.00" y2="606" stroke="#333" stroke-width="1"/>
<text x="1180.00" y="624" text-anchor="end" font-size="11" fill="#111" transform="rotate(-40 1180.00,624)" font-family="sans-serif">2026-03-18</text>
<line x1="90" y1="75.88" x2="1180" y2="75.88" stroke="#dc2626" stroke-width="1.5" stroke-dasharray="8,4"/>
<text x="1184" y="79.88" font-size="12" fill="#dc2626" font-family="sans-serif">Goal: 1296</text>
<polyline fill="none" stroke="#2563eb" stroke-width="3" points="90.00,540.55 93.06,538.53 96.12,536.91 99.19,534.49 102.25,534.49 105.31,533.27 108.37,532.46 111.43,532.87 114.49,532.06 117.56,532.46 120.62,532.06 123.68,568.46 126.74,568.46 129.80,566.43 132.87,545.00 135.93,545.00 138.99,544.19 142.05,543.79 145.11,543.79 148.17,543.38 151.24,541.76 154.30,541.36 157.36,540.96 160.42,540.96 163.48,539.34 166.54,539.34 169.61,556.73 172.67,556.73 175.73,555.51 178.79,551.07 181.85,538.93 184.92,538.93 187.98,538.93 191.04,538.12 194.10,536.91 197.16,536.91 200.22,536.51 203.29,536.51 206.35,556.73 209.41,556.73 212.47,556.73 215.53,556.73 218.60,535.29 221.66,535.29 224.72,535.29 227.78,535.29 230.84,534.49 233.90,534.08 236.97,533.68 240.03,532.87 243.09,532.06 246.15,532.06 249.21,531.25 252.28,530.85 255.34,530.44 258.40,530.04 261.46,530.04 264.52,529.23 267.58,529.23 270.65,529.23 273.71,528.42 276.77,528.42 279.83,527.61 282.89,527.21 285.96,526.80 289.02,526.40 292.08,525.18 295.14,523.57 298.20,523.57 301.26,523.16 304.33,522.76 307.39,522.35 310.45,521.54 313.51,519.52 316.57,517.50 319.63,517.50 322.70,517.50 325.76,517.50 328.82,517.50 331.88,517.50 334.94,517.10 338.01,516.69 341.07,515.48 344.13,515.07 347.19,514.67 350.25,513.86 353.31,514.26 356.38,512.24 359.44,511.84 362.50,511.84 365.56,511.03 368.62,509.82 371.69,507.79 374.75,506.99 377.81,506.58 380.87,509.41 383.93,509.01 386.99,504.96 390.06,504.56 393.12,504.15 396.18,504.56 399.24,503.75 402.30,503.75 405.37,503.35 408.43,499.30 411.49,496.47 414.55,490.00 417.61,484.34 420.67,481.10 423.74,480.29 426.80,480.70 429.86,460.88 432.92,459.26 435.98,458.05 439.04,456.03 442.11,456.03 445.17,454.41 448.23,450.77 451.29,444.30 454.35,443.90 457.42,600.00 460.48,441.88 463.54,440.66 466.60,439.45 469.66,439.04 472.72,438.64 475.79,437.83 478.85,436.62 481.91,436.62 484.97,434.60 488.03,432.17 491.10,429.34 494.16,428.93 497.22,428.53 500.28,427.72 503.34,426.91 506.40,426.10 509.47,426.10 512.53,426.10 515.59,419.63 518.65,419.23 521.71,418.42 524.78,418.01 527.84,417.61 530.90,417.61 533.96,417.61 537.02,417.21 540.08,417.21 543.15,413.57 546.21,411.95 549.27,412.76 552.33,410.74 555.39,410.74 558.46,410.33 561.52,410.33 564.58,410.33 567.64,409.93 570.70,409.93 573.76,409.93 576.83,409.52 579.89,409.52 582.95,409.12 586.01,409.52 589.07,409.12 592.13,407.50 595.20,407.10 598.26,403.05 601.32,399.82 604.38,400.22 607.44,400.62 610.51,400.62 613.57,399.41 616.63,392.94 619.69,391.32 622.75,389.30 625.81,389.30 628.88,388.49 631.94,375.15 635.00,374.74 638.06,374.74 641.12,374.74 644.19,374.74 647.25,374.34 650.31,374.34 653.37,374.34 656.43,374.34 659.49,374.34 662.56,373.93 665.62,373.12 668.68,372.72 671.74,373.53 674.80,435.81 677.87,372.32 680.93,372.72 683.99,371.91 687.05,371.91 690.11,372.32 693.17,371.10 696.24,369.89 699.30,369.89 702.36,369.89 705.42,369.49 708.48,369.89 711.54,369.08 714.61,368.68 717.67,368.27 720.73,367.87 723.79,367.06 726.85,367.46 729.92,367.06 732.98,366.25 736.04,368.27 739.10,368.68 742.16,368.68 745.22,368.27 748.29,369.08 751.35,367.87 754.41,367.46 757.47,367.06 760.53,360.18 763.60,359.78 766.66,359.38 769.72,356.95 772.78,357.35 775.84,357.76 778.90,355.33 781.97,355.74 785.03,357.35 788.09,355.33 791.15,356.14 794.21,355.74 797.28,356.14 800.34,354.12 803.40,354.93 806.46,356.14 809.52,354.52 812.58,353.71 815.65,354.12 818.71,354.93 821.77,352.90 824.83,353.71 827.89,353.31 830.96,353.31 834.02,354.52 837.08,352.90 840.14,352.50 843.20,352.50 846.26,353.31 849.33,352.50 852.39,353.71 855.45,354.12 858.51,352.50 861.57,352.90 864.63,352.50 867.70,352.10 870.76,351.69 873.82,352.10 876.88,354.12 879.94,352.50 883.01,352.10 886.07,352.10 889.13,349.67 892.19,349.67 895.25,350.88 898.31,351.29 901.38,350.48 904.44,352.10 907.50,350.48 910.56,350.48 913.62,350.48 916.69,350.07 919.75,348.46 922.81,351.29 925.87,349.67 928.93,351.29 931.99,349.67 935.06,348.86 938.12,348.46 941.18,348.46 944.24,347.24 947.30,348.86 950.37,346.84 953.43,348.46 956.49,348.86 959.55,346.84 962.61,349.26 965.67,348.05 968.74,349.26 971.80,349.26 974.86,350.48 977.92,352.90 980.98,349.67 984.04,348.46 987.11,345.62 990.17,344.82 993.23,344.41 996.29,342.39 999.35,341.18 1002.42,341.58 1005.48,339.15 1008.54,338.35 1011.60,337.54 1014.66,336.73 1017.72,335.92 1020.79,337.54 1023.85,338.35 1026.91,337.54 1029.97,337.54 1033.03,337.54 1036.10,333.09 1039.16,333.90 1042.22,335.92 1045.28,336.73 1048.34,335.51 1051.40,332.28 1054.47,331.47 1057.53,331.07 1060.59,331.47 1063.65,331.07 1066.71,331.07 1069.78,331.07 1072.84,331.07 1075.90,331.07 1078.96,331.07 1082.02,331.07 1085.08,331.07 1088.15,331.07 1091.21,331.07 1094.27,331.47 1097.33,331.88 1100.39,331.07 1103.46,331.47 1106.52,331.07 1109.58,331.47 1112.64,331.07 1115.70,324.19 1118.76,324.19 1121.83,318.93 1124.89,316.51 1127.95,310.44 1131.01,308.01 1134.07,600.00 1137.13,301.54 1140.20,290.22 1143.26,287.79 1146.32,286.18 1149.38,285.77 1152.44,285.77 1155.51,285.77 1158.57,286.18 1161.63,285.77 1164.69,285.77 1167.75,285.77 1170.81,283.35 1173.88,282.94 1176.94,282.94 1180.00,283.35"/>
<circle cx="90.00" cy="540.55" r="3.2" fill="#1d4ed8"/>
<circle cx="93.06" cy="538.53" r="3.2" fill="#1d4ed8"/>
<circle cx="96.12" cy="536.91" r="3.2" fill="#1d4ed8"/>
<circle cx="99.19" cy="534.49" r="3.2" fill="#1d4ed8"/>
<circle cx="102.25" cy="534.49" r="3.2" fill="#1d4ed8"/>
<circle cx="105.31" cy="533.27" r="3.2" fill="#1d4ed8"/>
<circle cx="108.37" cy="532.46" r="3.2" fill="#1d4ed8"/>
<circle cx="111.43" cy="532.87" r="3.2" fill="#1d4ed8"/>
<circle cx="114.49" cy="532.06" r="3.2" fill="#1d4ed8"/>
<circle cx="117.56" cy="532.46" r="3.2" fill="#1d4ed8"/>
<circle cx="120.62" cy="532.06" r="3.2" fill="#1d4ed8"/>
<circle cx="123.68" cy="568.46" r="3.2" fill="#1d4ed8"/>
<circle cx="126.74" cy="568.46" r="3.2" fill="#1d4ed8"/>
<circle cx="129.80" cy="566.43" r="3.2" fill="#1d4ed8"/>
<circle cx="132.87" cy="545.00" r="3.2" fill="#1d4ed8"/>
<circle cx="135.93" cy="545.00" r="3.2" fill="#1d4ed8"/>
<circle cx="138.99" cy="544.19" r="3.2" fill="#1d4ed8"/>
<circle cx="142.05" cy="543.79" r="3.2" fill="#1d4ed8"/>
<circle cx="145.11" cy="543.79" r="3.2" fill="#1d4ed8"/>
<circle cx="148.17" cy="543.38" r="3.2" fill="#1d4ed8"/>
<circle cx="151.24" cy="541.76" r="3.2" fill="#1d4ed8"/>
<circle cx="154.30" cy="541.36" r="3.2" fill="#1d4ed8"/>
<circle cx="157.36" cy="540.96" r="3.2" fill="#1d4ed8"/>
<circle cx="160.42" cy="540.96" r="3.2" fill="#1d4ed8"/>
<circle cx="163.48" cy="539.34" r="3.2" fill="#1d4ed8"/>
<circle cx="166.54" cy="539.34" r="3.2" fill="#1d4ed8"/>
<circle cx="169.61" cy="556.73" r="3.2" fill="#1d4ed8"/>
<circle cx="172.67" cy="556.73" r="3.2" fill="#1d4ed8"/>
<circle cx="175.73" cy="555.51" r="3.2" fill="#1d4ed8"/>
<circle cx="178.79" cy="551.07" r="3.2" fill="#1d4ed8"/>
<circle cx="181.85" cy="538.93" r="3.2" fill="#1d4ed8"/>
<circle cx="184.92" cy="538.93" r="3.2" fill="#1d4ed8"/>
<circle cx="187.98" cy="538.93" r="3.2" fill="#1d4ed8"/>
<circle cx="191.04" cy="538.12" r="3.2" fill="#1d4ed8"/>
<circle cx="194.10" cy="536.91" r="3.2" fill="#1d4ed8"/>
<circle cx="197.16" cy="536.91" r="3.2" fill="#1d4ed8"/>
<circle cx="200.22" cy="536.51" r="3.2" fill="#1d4ed8"/>
<circle cx="203.29" cy="536.51" r="3.2" fill="#1d4ed8"/>
<circle cx="206.35" cy="556.73" r="3.2" fill="#1d4ed8"/>
<circle cx="209.41" cy="556.73" r="3.2" fill="#1d4ed8"/>
<circle cx="212.47" cy="556.73" r="3.2" fill="#1d4ed8"/>
<circle cx="215.53" cy="556.73" r="3.2" fill="#1d4ed8"/>
<circle cx="218.60" cy="535.29" r="3.2" fill="#1d4ed8"/>
<circle cx="221.66" cy="535.29" r="3.2" fill="#1d4ed8"/>
<circle cx="224.72" cy="535.29" r="3.2" fill="#1d4ed8"/>
<circle cx="227.78" cy="535.29" r="3.2" fill="#1d4ed8"/>
<circle cx="230.84" cy="534.49" r="3.2" fill="#1d4ed8"/>
<circle cx="233.90" cy="534.08" r="3.2" fill="#1d4ed8"/>
<circle cx="236.97" cy="533.68" r="3.2" fill="#1d4ed8"/>
<circle cx="240.03" cy="532.87" r="3.2" fill="#1d4ed8"/>
<circle cx="243.09" cy="532.06" r="3.2" fill="#1d4ed8"/>
<circle cx="246.15" cy="532.06" r="3.2" fill="#1d4ed8"/>
<circle cx="249.21" cy="531.25" r="3.2" fill="#1d4ed8"/>
<circle cx="252.28" cy="530.85" r="3.2" fill="#1d4ed8"/>
<circle cx="255.34" cy="530.44" r="3.2" fill="#1d4ed8"/>
<circle cx="258.40" cy="530.04" r="3.2" fill="#1d4ed8"/>
<circle cx="261.46" cy="530.04" r="3.2" fill="#1d4ed8"/>
<circle cx="264.52" cy="529.23" r="3.2" fill="#1d4ed8"/>
<circle cx="267.58" cy="529.23" r="3.2" fill="#1d4ed8"/>
<circle cx="270.65" cy="529.23" r="3.2" fill="#1d4ed8"/>
<circle cx="273.71" cy="528.42" r="3.2" fill="#1d4ed8"/>
<circle cx="276.77" cy="528.42" r="3.2" fill="#1d4ed8"/>
<circle cx="279.83" cy="527.61" r="3.2" fill="#1d4ed8"/>
<circle cx="282.89" cy="527.21" r="3.2" fill="#1d4ed8"/>
<circle cx="285.96" cy="526.80" r="3.2" fill="#1d4ed8"/>
<circle cx="289.02" cy="526.40" r="3.2" fill="#1d4ed8"/>
<circle cx="292.08" cy="525.18" r="3.2" fill="#1d4ed8"/>
<circle cx="295.14" cy="523.57" r="3.2" fill="#1d4ed8"/>
<circle cx="298.20" cy="523.57" r="3.2" fill="#1d4ed8"/>
<circle cx="301.26" cy="523.16" r="3.2" fill="#1d4ed8"/>
<circle cx="304.33" cy="522.76" r="3.2" fill="#1d4ed8"/>
<circle cx="307.39" cy="522.35" r="3.2" fill="#1d4ed8"/>
<circle cx="310.45" cy="521.54" r="3.2" fill="#1d4ed8"/>
<circle cx="313.51" cy="519.52" r="3.2" fill="#1d4ed8"/>
<circle cx="316.57" cy="517.50" r="3.2" fill="#1d4ed8"/>
<circle cx="319.63" cy="517.50" r="3.2" fill="#1d4ed8"/>
<circle cx="322.70" cy="517.50" r="3.2" fill="#1d4ed8"/>
<circle cx="325.76" cy="517.50" r="3.2" fill="#1d4ed8"/>
<circle cx="328.82" cy="517.50" r="3.2" fill="#1d4ed8"/>
<circle cx="331.88" cy="517.50" r="3.2" fill="#1d4ed8"/>
<circle cx="334.94" cy="517.10" r="3.2" fill="#1d4ed8"/>
<circle cx="338.01" cy="516.69" r="3.2" fill="#1d4ed8"/>
<circle cx="341.07" cy="515.48" r="3.2" fill="#1d4ed8"/>
<circle cx="344.13" cy="515.07" r="3.2" fill="#1d4ed8"/>
<circle cx="347.19" cy="514.67" r="3.2" fill="#1d4ed8"/>
<circle cx="350.25" cy="513.86" r="3.2" fill="#1d4ed8"/>
<circle cx="353.31" cy="514.26" r="3.2" fill="#1d4ed8"/>
<circle cx="356.38" cy="512.24" r="3.2" fill="#1d4ed8"/>
<circle cx="359.44" cy="511.84" r="3.2" fill="#1d4ed8"/>
<circle cx="362.50" cy="511.84" r="3.2" fill="#1d4ed8"/>
<circle cx="365.56" cy="511.03" r="3.2" fill="#1d4ed8"/>
<circle cx="368.62" cy="509.82" r="3.2" fill="#1d4ed8"/>
<circle cx="371.69" cy="507.79" r="3.2" fill="#1d4ed8"/>
<circle cx="374.75" cy="506.99" r="3.2" fill="#1d4ed8"/>
<circle cx="377.81" cy="506.58" r="3.2" fill="#1d4ed8"/>
<circle cx="380.87" cy="509.41" r="3.2" fill="#1d4ed8"/>
<circle cx="383.93" cy="509.01" r="3.2" fill="#1d4ed8"/>
<circle cx="386.99" cy="504.96" r="3.2" fill="#1d4ed8"/>
<circle cx="390.06" cy="504.56" r="3.2" fill="#1d4ed8"/>
<circle cx="393.12" cy="504.15" r="3.2" fill="#1d4ed8"/>
<circle cx="396.18" cy="504.56" r="3.2" fill="#1d4ed8"/>
<circle cx="399.24" cy="503.75" r="3.2" fill="#1d4ed8"/>
<circle cx="402.30" cy="503.75" r="3.2" fill="#1d4ed8"/>
<circle cx="405.37" cy="503.35" r="3.2" fill="#1d4ed8"/>
<circle cx="408.43" cy="499.30" r="3.2" fill="#1d4ed8"/>
<circle cx="411.49" cy="496.47" r="3.2" fill="#1d4ed8"/>
<circle cx="414.55" cy="490.00" r="3.2" fill="#1d4ed8"/>
<circle cx="417.61" cy="484.34" r="3.2" fill="#1d4ed8"/>
<circle cx="420.67" cy="481.10" r="3.2" fill="#1d4ed8"/>
<circle cx="423.74" cy="480.29" r="3.2" fill="#1d4ed8"/>
<circle cx="426.80" cy="480.70" r="3.2" fill="#1d4ed8"/>
<circle cx="429.86" cy="460.88" r="3.2" fill="#1d4ed8"/>
<circle cx="432.92" cy="459.26" r="3.2" fill="#1d4ed8"/>
<circle cx="435.98" cy="458.05" r="3.2" fill="#1d4ed8"/>
<circle cx="439.04" cy="456.03" r="3.2" fill="#1d4ed8"/>
<circle cx="442.11" cy="456.03" r="3.2" fill="#1d4ed8"/>
<circle cx="445.17" cy="454.41" r="3.2" fill="#1d4ed8"/>
<circle cx="448.23" cy="450.77" r="3.2" fill="#1d4ed8"/>
<circle cx="451.29" cy="444.30" r="3.2" fill="#1d4ed8"/>
<circle cx="454.35" cy="443.90" r="3.2" fill="#1d4ed8"/>
<circle cx="457.42" cy="600.00" r="3.2" fill="#1d4ed8"/>
<circle cx="460.48" cy="441.88" r="3.2" fill="#1d4ed8"/>
<circle cx="463.54" cy="440.66" r="3.2" fill="#1d4ed8"/>
<circle cx="466.60" cy="439.45" r="3.2" fill="#1d4ed8"/>
<circle cx="469.66" cy="439.04" r="3.2" fill="#1d4ed8"/>
<circle cx="472.72" cy="438.64" r="3.2" fill="#1d4ed8"/>
<circle cx="475.79" cy="437.83" r="3.2" fill="#1d4ed8"/>
<circle cx="478.85" cy="436.62" r="3.2" fill="#1d4ed8"/>
<circle cx="481.91" cy="436.62" r="3.2" fill="#1d4ed8"/>
<circle cx="484.97" cy="434.60" r="3.2" fill="#1d4ed8"/>
<circle cx="488.03" cy="432.17" r="3.2" fill="#1d4ed8"/>
<circle cx="491.10" cy="429.34" r="3.2" fill="#1d4ed8"/>
<circle cx="494.16" cy="428.93" r="3.2" fill="#1d4ed8"/>
<circle cx="497.22" cy="428.53" r="3.2" fill="#1d4ed8"/>
<circle cx="500.28" cy="427.72" r="3.2" fill="#1d4ed8"/>
<circle cx="503.34" cy="426.91" r="3.2" fill="#1d4ed8"/>
<circle cx="506.40" cy="426.10" r="3.2" fill="#1d4ed8"/>
<circle cx="509.47" cy="426.10" r="3.2" fill="#1d4ed8"/>
<circle cx="512.53" cy="426.10" r="3.2" fill="#1d4ed8"/>
<circle cx="515.59" cy="419.63" r="3.2" fill="#1d4ed8"/>
<circle cx="518.65" cy="419.23" r="3.2" fill="#1d4ed8"/>
<circle cx="521.71" cy="418.42" r="3.2" fill="#1d4ed8"/>
<circle cx="524.78" cy="418.01" r="3.2" fill="#1d4ed8"/>
<circle cx="527.84" cy="417.61" r="3.2" fill="#1d4ed8"/>
<circle cx="530.90" cy="417.61" r="3.2" fill="#1d4ed8"/>
<circle cx="533.96" cy="417.61" r="3.2" fill="#1d4ed8"/>
<circle cx="537.02" cy="417.21" r="3.2" fill="#1d4ed8"/>
<circle cx="540.08" cy="417.21" r="3.2" fill="#1d4ed8"/>
<circle cx="543.15" cy="413.57" r="3.2" fill="#1d4ed8"/>
<circle cx="546.21" cy="411.95" r="3.2" fill="#1d4ed8"/>
<circle cx="549.27" cy="412.76" r="3.2" fill="#1d4ed8"/>
<circle cx="552.33" cy="410.74" r="3.2" fill="#1d4ed8"/>
<circle cx="555.39" cy="410.74" r="3.2" fill="#1d4ed8"/>
<circle cx="558.46" cy="410.33" r="3.2" fill="#1d4ed8"/>
<circle cx="561.52" cy="410.33" r="3.2" fill="#1d4ed8"/>
<circle cx="564.58" cy="410.33" r="3.2" fill="#1d4ed8"/>
<circle cx="567.64" cy="409.93" r="3.2" fill="#1d4ed8"/>
<circle cx="570.70" cy="409.93" r="3.2" fill="#1d4ed8"/>
<circle cx="573.76" cy="409.93" r="3.2" fill="#1d4ed8"/>
<circle cx="576.83" cy="409.52" r="3.2" fill="#1d4ed8"/>
<circle cx="579.89" cy="409.52" r="3.2" fill="#1d4ed8"/>
<circle cx="582.95" cy="409.12" r="3.2" fill="#1d4ed8"/>
<circle cx="586.01" cy="409.52" r="3.2" fill="#1d4ed8"/>
<circle cx="589.07" cy="409.12" r="3.2" fill="#1d4ed8"/>
<circle cx="592.13" cy="407.50" r="3.2" fill="#1d4ed8"/>
<circle cx="595.20" cy="407.10" r="3.2" fill="#1d4ed8"/>
<circle cx="598.26" cy="403.05" r="3.2" fill="#1d4ed8"/>
<circle cx="601.32" cy="399.82" r="3.2" fill="#1d4ed8"/>
<circle cx="604.38" cy="400.22" r="3.2" fill="#1d4ed8"/>
<circle cx="607.44" cy="400.62" r="3.2" fill="#1d4ed8"/>
<circle cx="610.51" cy="400.62" r="3.2" fill="#1d4ed8"/>
<circle cx="613.57" cy="399.41" r="3.2" fill="#1d4ed8"/>
<circle cx="616.63" cy="392.94" r="3.2" fill="#1d4ed8"/>
<circle cx="619.69" cy="391.32" r="3.2" fill="#1d4ed8"/>
<circle cx="622.75" cy="389.30" r="3.2" fill="#1d4ed8"/>
<circle cx="625.81" cy="389.30" r="3.2" fill="#1d4ed8"/>
<circle cx="628.88" cy="388.49" r="3.2" fill="#1d4ed8"/>
<circle cx="631.94" cy="375.15" r="3.2" fill="#1d4ed8"/>
<circle cx="635.00" cy="374.74" r="3.2" fill="#1d4ed8"/>
<circle cx="638.06" cy="374.74" r="3.2" fill="#1d4ed8"/>
<circle cx="641.12" cy="374.74" r="3.2" fill="#1d4ed8"/>
<circle cx="644.19" cy="374.74" r="3.2" fill="#1d4ed8"/>
<circle cx="647.25" cy="374.34" r="3.2" fill="#1d4ed8"/>
<circle cx="650.31" cy="374.34" r="3.2" fill="#1d4ed8"/>
<circle cx="653.37" cy="374.34" r="3.2" fill="#1d4ed8"/>
<circle cx="656.43" cy="374.34" r="3.2" fill="#1d4ed8"/>
<circle cx="659.49" cy="374.34" r="3.2" fill="#1d4ed8"/>
<circle cx="662.56" cy="373.93" r="3.2" fill="#1d4ed8"/>
<circle cx="665.62" cy="373.12" r="3.2" fill="#1d4ed8"/>
<circle cx="668.68" cy="372.72" r="3.2" fill="#1d4ed8"/>
<circle cx="671.74" cy="373.53" r="3.2" fill="#1d4ed8"/>
<circle cx="674.80" cy="435.81" r="3.2" fill="#1d4ed8"/>
<circle cx="677.87" cy="372.32" r="3.2" fill="#1d4ed8"/>
<circle cx="680.93" cy="372.72" r="3.2" fill="#1d4ed8"/>
<circle cx="683.99" cy="371.91" r="3.2" fill="#1d4ed8"/>
<circle cx="687.05" cy="371.91" r="3.2" fill="#1d4ed8"/>
<circle cx="690.11" cy="372.32" r="3.2" fill="#1d4ed8"/>
<circle cx="693.17" cy="371.10" r="3.2" fill="#1d4ed8"/>
<circle cx="696.24" cy="369.89" r="3.2" fill="#1d4ed8"/>
<circle cx="699.30" cy="369.89" r="3.2" fill="#1d4ed8"/>
<circle cx="702.36" cy="369.89" r="3.2" fill="#1d4ed8"/>
<circle cx="705.42" cy="369.49" r="3.2" fill="#1d4ed8"/>
<circle cx="708.48" cy="369.89" r="3.2" fill="#1d4ed8"/>
<circle cx="711.54" cy="369.08" r="3.2" fill="#1d4ed8"/>
<circle cx="714.61" cy="368.68" r="3.2" fill="#1d4ed8"/>
<circle cx="717.67" cy="368.27" r="3.2" fill="#1d4ed8"/>
<circle cx="720.73" cy="367.87" r="3.2" fill="#1d4ed8"/>
<circle cx="723.79" cy="367.06" r="3.2" fill="#1d4ed8"/>
<circle cx="726.85" cy="367.46" r="3.2" fill="#1d4ed8"/>
<circle cx="729.92" cy="367.06" r="3.2" fill="#1d4ed8"/>
<circle cx="732.98" cy="366.25" r="3.2" fill="#1d4ed8"/>
<circle cx="736.04" cy="368.27" r="3.2" fill="#1d4ed8"/>
<circle cx="739.10" cy="368.68" r="3.2" fill="#1d4ed8"/>
<circle cx="742.16" cy="368.68" r="3.2" fill="#1d4ed8"/>
<circle cx="745.22" cy="368.27" r="3.2" fill="#1d4ed8"/>
<circle cx="748.29" cy="369.08" r="3.2" fill="#1d4ed8"/>
<circle cx="751.35" cy="367.87" r="3.2" fill="#1d4ed8"/>
<circle cx="754.41" cy="367.46" r="3.2" fill="#1d4ed8"/>
<circle cx="757.47" cy="367.06" r="3.2" fill="#1d4ed8"/>
<circle cx="760.53" cy="360.18" r="3.2" fill="#1d4ed8"/>
<circle cx="763.60" cy="359.78" r="3.2" fill="#1d4ed8"/>
<circle cx="766.66" cy="359.38" r="3.2" fill="#1d4ed8"/>
<circle cx="769.72" cy="356.95" r="3.2" fill="#1d4ed8"/>
<circle cx="772.78" cy="357.35" r="3.2" fill="#1d4ed8"/>
<circle cx="775.84" cy="357.76" r="3.2" fill="#1d4ed8"/>
<circle cx="778.90" cy="355.33" r="3.2" fill="#1d4ed8"/>
<circle cx="781.97" cy="355.74" r="3.2" fill="#1d4ed8"/>
<circle cx="785.03" cy="357.35" r="3.2" fill="#1d4ed8"/>
<circle cx="788.09" cy="355.33" r="3.2" fill="#1d4ed8"/>
<circle cx="791.15" cy="356.14" r="3.2" fill="#1d4ed8"/>
<circle cx="794.21" cy="355.74" r="3.2" fill="#1d4ed8"/>
<circle cx="797.28" cy="356.14" r="3.2" fill="#1d4ed8"/>
<circle cx="800.34" cy="354.12" r="3.2" fill="#1d4ed8"/>
<circle cx="803.40" cy="354.93" r="3.2" fill="#1d4ed8"/>
<circle cx="806.46" cy="356.14" r="3.2" fill="#1d4ed8"/>
<circle cx="809.52" cy="354.52" r="3.2" fill="#1d4ed8"/>
<circle cx="812.58" cy="353.71" r="3.2" fill="#1d4ed8"/>
<circle cx="815.65" cy="354.12" r="3.2" fill="#1d4ed8"/>
<circle cx="818.71" cy="354.93" r="3.2" fill="#1d4ed8"/>
<circle cx="821.77" cy="352.90" r="3.2" fill="#1d4ed8"/>
<circle cx="824.83" cy="353.71" r="3.2" fill="#1d4ed8"/>
<circle cx="827.89" cy="353.31" r="3.2" fill="#1d4ed8"/>
<circle cx="830.96" cy="353.31" r="3.2" fill="#1d4ed8"/>
<circle cx="834.02" cy="354.52" r="3.2" fill="#1d4ed8"/>
<circle cx="837.08" cy="352.90" r="3.2" fill="#1d4ed8"/>
<circle cx="840.14" cy="352.50" r="3.2" fill="#1d4ed8"/>
<circle cx="843.20" cy="352.50" r="3.2" fill="#1d4ed8"/>
<circle cx="846.26" cy="353.31" r="3.2" fill="#1d4ed8"/>
<circle cx="849.33" cy="352.50" r="3.2" fill="#1d4ed8"/>
<circle cx="852.39" cy="353.71" r="3.2" fill="#1d4ed8"/>
<circle cx="855.45" cy="354.12" r="3.2" fill="#1d4ed8"/>
<circle cx="858.51" cy="352.50" r="3.2" fill="#1d4ed8"/>
<circle cx="861.57" cy="352.90" r="3.2" fill="#1d4ed8"/>
<circle cx="864.63" cy="352.50" r="3.2" fill="#1d4ed8"/>
<circle cx="867.70" cy="352.10" r="3.2" fill="#1d4ed8"/>
<circle cx="870.76" cy="351.69" r="3.2" fill="#1d4ed8"/>
<circle cx="873.82" cy="352.10" r="3.2" fill="#1d4ed8"/>
<circle cx="876.88" cy="354.12" r="3.2" fill="#1d4ed8"/>
<circle cx="879.94" cy="352.50" r="3.2" fill="#1d4ed8"/>
<circle cx="883.01" cy="352.10" r="3.2" fill="#1d4ed8"/>
<circle cx="886.07" cy="352.10" r="3.2" fill="#1d4ed8"/>
<circle cx="889.13" cy="349.67" r="3.2" fill="#1d4ed8"/>
<circle cx="892.19" cy="349.67" r="3.2" fill="#1d4ed8"/>
<circle cx="895.25" cy="350.88" r="3.2" fill="#1d4ed8"/>
<circle cx="898.31" cy="351.29" r="3.2" fill="#1d4ed8"/>
<circle cx="901.38" cy="350.48" r="3.2" fill="#1d4ed8"/>
<circle cx="904.44" cy="352.10" r="3.2" fill="#1d4ed8"/>
<circle cx="907.50" cy="350.48" r="3.2" fill="#1d4ed8"/>
<circle cx="910.56" cy="350.48" r="3.2" fill="#1d4ed8"/>
<circle cx="913.62" cy="350.48" r="3.2" fill="#1d4ed8"/>
<circle cx="916.69" cy="350.07" r="3.2" fill="#1d4ed8"/>
<circle cx="919.75" cy="348.46" r="3.2" fill="#1d4ed8"/>
<circle cx="922.81" cy="351.29" r="3.2" fill="#1d4ed8"/>
<circle cx="925.87" cy="349.67" r="3.2" fill="#1d4ed8"/>
<circle cx="928.93" cy="351.29" r="3.2" fill="#1d4ed8"/>
<circle cx="931.99" cy="349.67" r="3.2" fill="#1d4ed8"/>
<circle cx="935.06" cy="348.86" r="3.2" fill="#1d4ed8"/>
<circle cx="938.12" cy="348.46" r="3.2" fill="#1d4ed8"/>
<circle cx="941.18" cy="348.46" r="3.2" fill="#1d4ed8"/>
<circle cx="944.24" cy="347.24" r="3.2" fill="#1d4ed8"/>
<circle cx="947.30" cy="348.86" r="3.2" fill="#1d4ed8"/>
<circle cx="950.37" cy="346.84" r="3.2" fill="#1d4ed8"/>
<circle cx="953.43" cy="348.46" r="3.2" fill="#1d4ed8"/>
<circle cx="956.49" cy="348.86" r="3.2" fill="#1d4ed8"/>
<circle cx="959.55" cy="346.84" r="3.2" fill="#1d4ed8"/>
<circle cx="962.61" cy="349.26" r="3.2" fill="#1d4ed8"/>
<circle cx="965.67" cy="348.05" r="3.2" fill="#1d4ed8"/>
<circle cx="968.74" cy="349.26" r="3.2" fill="#1d4ed8"/>
<circle cx="971.80" cy="349.26" r="3.2" fill="#1d4ed8"/>
<circle cx="974.86" cy="350.48" r="3.2" fill="#1d4ed8"/>
<circle cx="977.92" cy="352.90" r="3.2" fill="#1d4ed8"/>
<circle cx="980.98" cy="349.67" r="3.2" fill="#1d4ed8"/>
<circle cx="984.04" cy="348.46" r="3.2" fill="#1d4ed8"/>
<circle cx="987.11" cy="345.62" r="3.2" fill="#1d4ed8"/>
<circle cx="990.17" cy="344.82" r="3.2" fill="#1d4ed8"/>
<circle cx="993.23" cy="344.41" r="3.2" fill="#1d4ed8"/>
<circle cx="996.29" cy="342.39" r="3.2" fill="#1d4ed8"/>
<circle cx="999.35" cy="341.18" r="3.2" fill="#1d4ed8"/>
<circle cx="1002.42" cy="341.58" r="3.2" fill="#1d4ed8"/>
<circle cx="1005.48" cy="339.15" r="3.2" fill="#1d4ed8"/>
<circle cx="1008.54" cy="338.35" r="3.2" fill="#1d4ed8"/>
<circle cx="1011.60" cy="337.54" r="3.2" fill="#1d4ed8"/>
<circle cx="1014.66" cy="336.73" r="3.2" fill="#1d4ed8"/>
<circle cx="1017.72" cy="335.92" r="3.2" fill="#1d4ed8"/>
<circle cx="1020.79" cy="337.54" r="3.2" fill="#1d4ed8"/>
<circle cx="1023.85" cy="338.35" r="3.2" fill="#1d4ed8"/>
<circle cx="1026.91" cy="337.54" r="3.2" fill="#1d4ed8"/>
<circle cx="1029.97" cy="337.54" r="3.2" fill="#1d4ed8"/>
<circle cx="1033.03" cy="337.54" r="3.2" fill="#1d4ed8"/>
<circle cx="1036.10" cy="333.09" r="3.2" fill="#1d4ed8"/>
<circle cx="1039.16" cy="333.90" r="3.2" fill="#1d4ed8"/>
<circle cx="1042.22" cy="335.92" r="3.2" fill="#1d4ed8"/>
<circle cx="1045.28" cy="336.73" r="3.2" fill="#1d4ed8"/>
<circle cx="1048.34" cy="335.51" r="3.2" fill="#1d4ed8"/>
<circle cx="1051.40" cy="332.28" r="3.2" fill="#1d4ed8"/>
<circle cx="1054.47" cy="331.47" r="3.2" fill="#1d4ed8"/>
<circle cx="1057.53" cy="331.07" r="3.2" fill="#1d4ed8"/>
<circle cx="1060.59" cy="331.47" r="3.2" fill="#1d4ed8"/>
<circle cx="1063.65" cy="331.07" r="3.2" fill="#1d4ed8"/>
<circle cx="1066.71" cy="331.07" r="3.2" fill="#1d4ed8"/>
<circle cx="1069.78" cy="331.07" r="3.2" fill="#1d4ed8"/>
<circle cx="1072.84" cy="331.07" r="3.2" fill="#1d4ed8"/>
<circle cx="1075.90" cy="331.07" r="3.2" fill="#1d4ed8"/>
<circle cx="1078.96" cy="331.07" r="3.2" fill="#1d4ed8"/>
<circle cx="1082.02" cy="331.07" r="3.2" fill="#1d4ed8"/>
<circle cx="1085.08" cy="331.07" r="3.2" fill="#1d4ed8"/>
<circle cx="1088.15" cy="331.07" r="3.2" fill="#1d4ed8"/>
<circle cx="1091.21" cy="331.07" r="3.2" fill="#1d4ed8"/>
<circle cx="1094.27" cy="331.47" r="3.2" fill="#1d4ed8"/>
<circle cx="1097.33" cy="331.88" r="3.2" fill="#1d4ed8"/>
<circle cx="1100.39" cy="331.07" r="3.2" fill="#1d4ed8"/>
<circle cx="1103.46" cy="331.47" r="3.2" fill="#1d4ed8"/>
<circle cx="1106.52" cy="331.07" r="3.2" fill="#1d4ed8"/>
<circle cx="1109.58" cy="331.47" r="3.2" fill="#1d4ed8"/>
<circle cx="1112.64" cy="331.07" r="3.2" fill="#1d4ed8"/>
<circle cx="1115.70" cy="324.19" r="3.2" fill="#1d4ed8"/>
<circle cx="1118.76" cy="324.19" r="3.2" fill="#1d4ed8"/>
<circle cx="1121.83" cy="318.93" r="3.2" fill="#1d4ed8"/>
<circle cx="1124.89" cy="316.51" r="3.2" fill="#1d4ed8"/>
<circle cx="1127.95" cy="310.44" r="3.2" fill="#1d4ed8"/>
<circle cx="1131.01" cy="308.01" r="3.2" fill="#1d4ed8"/>
<circle cx="1134.07" cy="600.00" r="3.2" fill="#1d4ed8"/>
<circle cx="1137.13" cy="301.54" r="3.2" fill="#1d4ed8"/>
<circle cx="1140.20" cy="290.22" r="3.2" fill="#1d4ed8"/>
<circle cx="1143.26" cy="287.79" r="3.2" fill="#1d4ed8"/>
<circle cx="1146.32" cy="286.18" r="3.2" fill="#1d4ed8"/>
<circle cx="1149.38" cy="285.77" r="3.2" fill="#1d4ed8"/>
<circle cx="1152.44" cy="285.77" r="3.2" fill="#1d4ed8"/>
<circle cx="1155.51" cy="285.77" r="3.2" fill="#1d4ed8"/>
<circle cx="1158.57" cy="286.18" r="3.2" fill="#1d4ed8"/>
<circle cx="1161.63" cy="285.77" r="3.2" fill="#1d4ed8"/>
<circle cx="1164.69" cy="285.77" r="3.2" fill="#1d4ed8"/>
<circle cx="1167.75" cy="285.77" r="3.2" fill="#1d4ed8"/>
<circle cx="1170.81" cy="283.35" r="3.2" fill="#1d4ed8"/>
<circle cx="1173.88" cy="282.94" r="3.2" fill="#1d4ed8"/>
<circle cx="1176.94" cy="282.94" r="3.2" fill="#1d4ed8"/>
<circle cx="1180.00" cy="283.35" r="3.2" fill="#1d4ed8"/>
<text x="635" y="695" text-anchor="middle" font-size="14" fill="#111" font-family="sans-serif">Date</text>
<text x="24" y="325" text-anchor="middle" font-size="14" fill="#111" transform="rotate(-90 24,325)" font-family="sans-serif">Passed files</text>
</svg>
