<?xml version="1.0" encoding="UTF-8"?>
<svg xmlns="http://www.w3.org/2000/svg" width="1280" height="720" viewBox="0 0 1280 720">
<rect width="100%" height="100%" fill="#ffffff"/>
<text x="640" y="30" text-anchor="middle" font-size="22" font-family="sans-serif">Roast passed files history</text>
<line x1="90" y1="600" x2="1180" y2="600" stroke="#333" stroke-width="1.5"/>
<line x1="90" y1="50" x2="90" y2="600" stroke="#333" stroke-width="1.5"/>
<line x1="90" y1="600.00" x2="1180" y2="600.00" stroke="#e5e7eb" stroke-width="1"/>
<text x="78" y="605.00" text-anchor="end" font-size="12" fill="#111" font-family="sans-serif">0</text>
<line x1="90" y1="397.79" x2="1180" y2="397.79" stroke="#e5e7eb" stroke-width="1"/>
<text x="78" y="402.79" text-anchor="end" font-size="12" fill="#111" font-family="sans-serif">500</text>
<line x1="90" y1="195.59" x2="1180" y2="195.59" stroke="#e5e7eb" stroke-width="1"/>
<text x="78" y="200.59" text-anchor="end" font-size="12" fill="#111" font-family="sans-serif">1000</text>
<line x1="90.00" y1="600" x2="90.00" y2="606" stroke="#333" stroke-width="1"/>
<text x="90.00" y="624" text-anchor="end" font-size="11" fill="#111" transform="rotate(-40 90.00,624)" font-family="sans-serif">2026-02-12</text>
<line x1="226.71" y1="600" x2="226.71" y2="606" stroke="#333" stroke-width="1"/>
<text x="226.71" y="624" text-anchor="end" font-size="11" fill="#111" transform="rotate(-40 226.71,624)" font-family="sans-serif">2026-02-17</text>
<line x1="363.42" y1="600" x2="363.42" y2="606" stroke="#333" stroke-width="1"/>
<text x="363.42" y="624" text-anchor="end" font-size="11" fill="#111" transform="rotate(-40 363.42,624)" font-family="sans-serif">2026-02-20</text>
<line x1="500.14" y1="600" x2="500.14" y2="606" stroke="#333" stroke-width="1"/>
<text x="500.14" y="624" text-anchor="end" font-size="11" fill="#111" transform="rotate(-40 500.14,624)" font-family="sans-serif">2026-02-24</text>
<line x1="636.85" y1="600" x2="636.85" y2="606" stroke="#333" stroke-width="1"/>
<text x="636.85" y="624" text-anchor="end" font-size="11" fill="#111" transform="rotate(-40 636.85,624)" font-family="sans-serif">2026-02-26</text>
<line x1="773.56" y1="600" x2="773.56" y2="606" stroke="#333" stroke-width="1"/>
<text x="773.56" y="624" text-anchor="end" font-size="11" fill="#111" transform="rotate(-40 773.56,624)" font-family="sans-serif">2026-02-28</text>
<line x1="910.27" y1="600" x2="910.27" y2="606" stroke="#333" stroke-width="1"/>
<text x="910.27" y="624" text-anchor="end" font-size="11" fill="#111" transform="rotate(-40 910.27,624)" font-family="sans-serif">2026-03-06</text>
<line x1="1046.98" y1="600" x2="1046.98" y2="606" stroke="#333" stroke-width="1"/>
<text x="1046.98" y="624" text-anchor="end" font-size="11" fill="#111" transform="rotate(-40 1046.98,624)" font-family="sans-serif">2026-03-06</text>
<line x1="1180.00" y1="600" x2="1180.00" y2="606" stroke="#333" stroke-width="1"/>
<text x="1180.00" y="624" text-anchor="end" font-size="11" fill="#111" transform="rotate(-40 1180.00,624)" font-family="sans-serif">2026-03-08</text>
<line x1="90" y1="75.88" x2="1180" y2="75.88" stroke="#dc2626" stroke-width="1.5" stroke-dasharray="8,4"/>
<text x="1184" y="79.88" font-size="12" fill="#dc2626" font-family="sans-serif">Goal: 1296</text>
<polyline fill="none" stroke="#2563eb" stroke-width="3" points="90.00,540.55 93.69,538.53 97.39,536.91 101.08,534.49 104.78,534.49 108.47,533.27 112.17,532.46 115.86,532.87 119.56,532.06 123.25,532.46 126.95,532.06 130.64,568.46 134.34,568.46 138.03,566.43 141.73,545.00 145.42,545.00 149.12,544.19 152.81,543.79 156.51,543.79 160.20,543.38 163.90,541.76 167.59,541.36 171.29,540.96 174.98,540.96 178.68,539.34 182.37,539.34 186.07,556.73 189.76,556.73 193.46,555.51 197.15,551.07 200.85,538.93 204.54,538.93 208.24,538.93 211.93,538.12 215.63,536.91 219.32,536.91 223.02,536.51 226.71,536.51 230.41,556.73 234.10,556.73 237.80,556.73 241.49,556.73 245.19,535.29 248.88,535.29 252.58,535.29 256.27,535.29 259.97,534.49 263.66,534.08 267.36,533.68 271.05,532.87 274.75,532.06 278.44,532.06 282.14,531.25 285.83,530.85 289.53,530.44 293.22,530.04 296.92,530.04 300.61,529.23 304.31,529.23 308.00,529.23 311.69,528.42 315.39,528.42 319.08,527.61 322.78,527.21 326.47,526.80 330.17,526.40 333.86,525.18 337.56,523.57 341.25,523.57 344.95,523.16 348.64,522.76 352.34,522.35 356.03,521.54 359.73,519.52 363.42,517.50 367.12,517.50 370.81,517.50 374.51,517.50 378.20,517.50 381.90,517.50 385.59,517.10 389.29,516.69 392.98,515.48 396.68,515.07 400.37,514.67 404.07,513.86 407.76,514.26 411.46,512.24 415.15,511.84 418.85,511.84 422.54,511.03 426.24,509.82 429.93,507.79 433.63,506.99 437.32,506.58 441.02,509.41 444.71,509.01 448.41,504.96 452.10,504.56 455.80,504.15 459.49,504.56 463.19,503.75 466.88,503.75 470.58,503.35 474.27,499.30 477.97,496.47 481.66,490.00 485.36,484.34 489.05,481.10 492.75,480.29 496.44,480.70 500.14,460.88 503.83,459.26 507.53,458.05 511.22,456.03 514.92,456.03 518.61,454.41 522.31,450.77 526.00,444.30 529.69,443.90 533.39,600.00 537.08,441.88 540.78,440.66 544.47,439.45 548.17,439.04 551.86,438.64 555.56,437.83 559.25,436.62 562.95,436.62 566.64,434.60 570.34,432.17 574.03,429.34 577.73,428.93 581.42,428.53 585.12,427.72 588.81,426.91 592.51,426.10 596.20,426.10 599.90,426.10 603.59,419.63 607.29,419.23 610.98,418.42 614.68,418.01 618.37,417.61 622.07,417.61 625.76,417.61 629.46,417.21 633.15,417.21 636.85,413.57 640.54,411.95 644.24,412.76 647.93,410.74 651.63,410.74 655.32,410.33 659.02,410.33 662.71,410.33 666.41,409.93 670.10,409.93 673.80,409.93 677.49,409.52 681.19,409.52 684.88,409.12 688.58,409.52 692.27,409.12 695.97,407.50 699.66,407.10 703.36,403.05 707.05,399.82 710.75,400.22 714.44,400.62 718.14,400.62 721.83,399.41 725.53,392.94 729.22,391.32 732.92,389.30 736.61,389.30 740.31,388.49 744.00,375.15 747.69,374.74 751.39,374.74 755.08,374.74 758.78,374.74 762.47,374.34 766.17,374.34 769.86,374.34 773.56,374.34 777.25,374.34 780.95,373.93 784.64,373.12 788.34,372.72 792.03,373.53 795.73,435.81 799.42,372.32 803.12,372.72 806.81,371.91 810.51,371.91 814.20,372.32 817.90,371.10 821.59,369.89 825.29,369.89 828.98,369.89 832.68,369.49 836.37,369.89 840.07,369.08 843.76,368.68 847.46,368.27 851.15,367.87 854.85,367.06 858.54,367.46 862.24,367.06 865.93,366.25 869.63,368.27 873.32,368.68 877.02,368.68 880.71,368.27 884.41,369.08 888.10,367.87 891.80,367.46 895.49,367.06 899.19,360.18 902.88,359.78 906.58,359.38 910.27,356.95 913.97,357.35 917.66,357.76 921.36,355.33 925.05,355.74 928.75,357.35 932.44,355.33 936.14,356.14 939.83,355.74 943.53,356.14 947.22,354.12 950.92,354.93 954.61,356.14 958.31,354.52 962.00,353.71 965.69,354.12 969.39,354.93 973.08,352.90 976.78,353.71 980.47,353.31 984.17,353.31 987.86,354.52 991.56,352.90 995.25,352.50 998.95,352.50 1002.64,353.31 1006.34,352.50 1010.03,353.71 1013.73,354.12 1017.42,352.50 1021.12,352.90 1024.81,352.50 1028.51,352.10 1032.20,351.69 1035.90,352.10 1039.59,354.12 1043.29,352.50 1046.98,352.10 1050.68,352.10 1054.37,349.67 1058.07,349.67 1061.76,350.88 1065.46,351.29 1069.15,350.48 1072.85,352.10 1076.54,350.48 1080.24,350.48 1083.93,350.48 1087.63,350.07 1091.32,348.46 1095.02,351.29 1098.71,349.67 1102.41,351.29 1106.10,349.67 1109.80,348.86 1113.49,348.46 1117.19,348.46 1120.88,347.24 1124.58,348.86 1128.27,346.84 1131.97,348.46 1135.66,348.86 1139.36,346.84 1143.05,349.26 1146.75,348.05 1150.44,349.26 1154.14,349.26 1157.83,350.48 1161.53,352.90 1165.22,349.67 1168.92,348.46 1172.61,345.62 1176.31,344.82 1180.00,344.41"/>
<circle cx="90.00" cy="540.55" r="3.2" fill="#1d4ed8"/>
<circle cx="93.69" cy="538.53" r="3.2" fill="#1d4ed8"/>
<circle cx="97.39" cy="536.91" r="3.2" fill="#1d4ed8"/>
<circle cx="101.08" cy="534.49" r="3.2" fill="#1d4ed8"/>
<circle cx="104.78" cy="534.49" r="3.2" fill="#1d4ed8"/>
<circle cx="108.47" cy="533.27" r="3.2" fill="#1d4ed8"/>
<circle cx="112.17" cy="532.46" r="3.2" fill="#1d4ed8"/>
<circle cx="115.86" cy="532.87" r="3.2" fill="#1d4ed8"/>
<circle cx="119.56" cy="532.06" r="3.2" fill="#1d4ed8"/>
<circle cx="123.25" cy="532.46" r="3.2" fill="#1d4ed8"/>
<circle cx="126.95" cy="532.06" r="3.2" fill="#1d4ed8"/>
<circle cx="130.64" cy="568.46" r="3.2" fill="#1d4ed8"/>
<circle cx="134.34" cy="568.46" r="3.2" fill="#1d4ed8"/>
<circle cx="138.03" cy="566.43" r="3.2" fill="#1d4ed8"/>
<circle cx="141.73" cy="545.00" r="3.2" fill="#1d4ed8"/>
<circle cx="145.42" cy="545.00" r="3.2" fill="#1d4ed8"/>
<circle cx="149.12" cy="544.19" r="3.2" fill="#1d4ed8"/>
<circle cx="152.81" cy="543.79" r="3.2" fill="#1d4ed8"/>
<circle cx="156.51" cy="543.79" r="3.2" fill="#1d4ed8"/>
<circle cx="160.20" cy="543.38" r="3.2" fill="#1d4ed8"/>
<circle cx="163.90" cy="541.76" r="3.2" fill="#1d4ed8"/>
<circle cx="167.59" cy="541.36" r="3.2" fill="#1d4ed8"/>
<circle cx="171.29" cy="540.96" r="3.2" fill="#1d4ed8"/>
<circle cx="174.98" cy="540.96" r="3.2" fill="#1d4ed8"/>
<circle cx="178.68" cy="539.34" r="3.2" fill="#1d4ed8"/>
<circle cx="182.37" cy="539.34" r="3.2" fill="#1d4ed8"/>
<circle cx="186.07" cy="556.73" r="3.2" fill="#1d4ed8"/>
<circle cx="189.76" cy="556.73" r="3.2" fill="#1d4ed8"/>
<circle cx="193.46" cy="555.51" r="3.2" fill="#1d4ed8"/>
<circle cx="197.15" cy="551.07" r="3.2" fill="#1d4ed8"/>
<circle cx="200.85" cy="538.93" r="3.2" fill="#1d4ed8"/>
<circle cx="204.54" cy="538.93" r="3.2" fill="#1d4ed8"/>
<circle cx="208.24" cy="538.93" r="3.2" fill="#1d4ed8"/>
<circle cx="211.93" cy="538.12" r="3.2" fill="#1d4ed8"/>
<circle cx="215.63" cy="536.91" r="3.2" fill="#1d4ed8"/>
<circle cx="219.32" cy="536.91" r="3.2" fill="#1d4ed8"/>
<circle cx="223.02" cy="536.51" r="3.2" fill="#1d4ed8"/>
<circle cx="226.71" cy="536.51" r="3.2" fill="#1d4ed8"/>
<circle cx="230.41" cy="556.73" r="3.2" fill="#1d4ed8"/>
<circle cx="234.10" cy="556.73" r="3.2" fill="#1d4ed8"/>
<circle cx="237.80" cy="556.73" r="3.2" fill="#1d4ed8"/>
<circle cx="241.49" cy="556.73" r="3.2" fill="#1d4ed8"/>
<circle cx="245.19" cy="535.29" r="3.2" fill="#1d4ed8"/>
<circle cx="248.88" cy="535.29" r="3.2" fill="#1d4ed8"/>
<circle cx="252.58" cy="535.29" r="3.2" fill="#1d4ed8"/>
<circle cx="256.27" cy="535.29" r="3.2" fill="#1d4ed8"/>
<circle cx="259.97" cy="534.49" r="3.2" fill="#1d4ed8"/>
<circle cx="263.66" cy="534.08" r="3.2" fill="#1d4ed8"/>
<circle cx="267.36" cy="533.68" r="3.2" fill="#1d4ed8"/>
<circle cx="271.05" cy="532.87" r="3.2" fill="#1d4ed8"/>
<circle cx="274.75" cy="532.06" r="3.2" fill="#1d4ed8"/>
<circle cx="278.44" cy="532.06" r="3.2" fill="#1d4ed8"/>
<circle cx="282.14" cy="531.25" r="3.2" fill="#1d4ed8"/>
<circle cx="285.83" cy="530.85" r="3.2" fill="#1d4ed8"/>
<circle cx="289.53" cy="530.44" r="3.2" fill="#1d4ed8"/>
<circle cx="293.22" cy="530.04" r="3.2" fill="#1d4ed8"/>
<circle cx="296.92" cy="530.04" r="3.2" fill="#1d4ed8"/>
<circle cx="300.61" cy="529.23" r="3.2" fill="#1d4ed8"/>
<circle cx="304.31" cy="529.23" r="3.2" fill="#1d4ed8"/>
<circle cx="308.00" cy="529.23" r="3.2" fill="#1d4ed8"/>
<circle cx="311.69" cy="528.42" r="3.2" fill="#1d4ed8"/>
<circle cx="315.39" cy="528.42" r="3.2" fill="#1d4ed8"/>
<circle cx="319.08" cy="527.61" r="3.2" fill="#1d4ed8"/>
<circle cx="322.78" cy="527.21" r="3.2" fill="#1d4ed8"/>
<circle cx="326.47" cy="526.80" r="3.2" fill="#1d4ed8"/>
<circle cx="330.17" cy="526.40" r="3.2" fill="#1d4ed8"/>
<circle cx="333.86" cy="525.18" r="3.2" fill="#1d4ed8"/>
<circle cx="337.56" cy="523.57" r="3.2" fill="#1d4ed8"/>
<circle cx="341.25" cy="523.57" r="3.2" fill="#1d4ed8"/>
<circle cx="344.95" cy="523.16" r="3.2" fill="#1d4ed8"/>
<circle cx="348.64" cy="522.76" r="3.2" fill="#1d4ed8"/>
<circle cx="352.34" cy="522.35" r="3.2" fill="#1d4ed8"/>
<circle cx="356.03" cy="521.54" r="3.2" fill="#1d4ed8"/>
<circle cx="359.73" cy="519.52" r="3.2" fill="#1d4ed8"/>
<circle cx="363.42" cy="517.50" r="3.2" fill="#1d4ed8"/>
<circle cx="367.12" cy="517.50" r="3.2" fill="#1d4ed8"/>
<circle cx="370.81" cy="517.50" r="3.2" fill="#1d4ed8"/>
<circle cx="374.51" cy="517.50" r="3.2" fill="#1d4ed8"/>
<circle cx="378.20" cy="517.50" r="3.2" fill="#1d4ed8"/>
<circle cx="381.90" cy="517.50" r="3.2" fill="#1d4ed8"/>
<circle cx="385.59" cy="517.10" r="3.2" fill="#1d4ed8"/>
<circle cx="389.29" cy="516.69" r="3.2" fill="#1d4ed8"/>
<circle cx="392.98" cy="515.48" r="3.2" fill="#1d4ed8"/>
<circle cx="396.68" cy="515.07" r="3.2" fill="#1d4ed8"/>
<circle cx="400.37" cy="514.67" r="3.2" fill="#1d4ed8"/>
<circle cx="404.07" cy="513.86" r="3.2" fill="#1d4ed8"/>
<circle cx="407.76" cy="514.26" r="3.2" fill="#1d4ed8"/>
<circle cx="411.46" cy="512.24" r="3.2" fill="#1d4ed8"/>
<circle cx="415.15" cy="511.84" r="3.2" fill="#1d4ed8"/>
<circle cx="418.85" cy="511.84" r="3.2" fill="#1d4ed8"/>
<circle cx="422.54" cy="511.03" r="3.2" fill="#1d4ed8"/>
<circle cx="426.24" cy="509.82" r="3.2" fill="#1d4ed8"/>
<circle cx="429.93" cy="507.79" r="3.2" fill="#1d4ed8"/>
<circle cx="433.63" cy="506.99" r="3.2" fill="#1d4ed8"/>
<circle cx="437.32" cy="506.58" r="3.2" fill="#1d4ed8"/>
<circle cx="441.02" cy="509.41" r="3.2" fill="#1d4ed8"/>
<circle cx="444.71" cy="509.01" r="3.2" fill="#1d4ed8"/>
<circle cx="448.41" cy="504.96" r="3.2" fill="#1d4ed8"/>
<circle cx="452.10" cy="504.56" r="3.2" fill="#1d4ed8"/>
<circle cx="455.80" cy="504.15" r="3.2" fill="#1d4ed8"/>
<circle cx="459.49" cy="504.56" r="3.2" fill="#1d4ed8"/>
<circle cx="463.19" cy="503.75" r="3.2" fill="#1d4ed8"/>
<circle cx="466.88" cy="503.75" r="3.2" fill="#1d4ed8"/>
<circle cx="470.58" cy="503.35" r="3.2" fill="#1d4ed8"/>
<circle cx="474.27" cy="499.30" r="3.2" fill="#1d4ed8"/>
<circle cx="477.97" cy="496.47" r="3.2" fill="#1d4ed8"/>
<circle cx="481.66" cy="490.00" r="3.2" fill="#1d4ed8"/>
<circle cx="485.36" cy="484.34" r="3.2" fill="#1d4ed8"/>
<circle cx="489.05" cy="481.10" r="3.2" fill="#1d4ed8"/>
<circle cx="492.75" cy="480.29" r="3.2" fill="#1d4ed8"/>
<circle cx="496.44" cy="480.70" r="3.2" fill="#1d4ed8"/>
<circle cx="500.14" cy="460.88" r="3.2" fill="#1d4ed8"/>
<circle cx="503.83" cy="459.26" r="3.2" fill="#1d4ed8"/>
<circle cx="507.53" cy="458.05" r="3.2" fill="#1d4ed8"/>
<circle cx="511.22" cy="456.03" r="3.2" fill="#1d4ed8"/>
<circle cx="514.92" cy="456.03" r="3.2" fill="#1d4ed8"/>
<circle cx="518.61" cy="454.41" r="3.2" fill="#1d4ed8"/>
<circle cx="522.31" cy="450.77" r="3.2" fill="#1d4ed8"/>
<circle cx="526.00" cy="444.30" r="3.2" fill="#1d4ed8"/>
<circle cx="529.69" cy="443.90" r="3.2" fill="#1d4ed8"/>
<circle cx="533.39" cy="600.00" r="3.2" fill="#1d4ed8"/>
<circle cx="537.08" cy="441.88" r="3.2" fill="#1d4ed8"/>
<circle cx="540.78" cy="440.66" r="3.2" fill="#1d4ed8"/>
<circle cx="544.47" cy="439.45" r="3.2" fill="#1d4ed8"/>
<circle cx="548.17" cy="439.04" r="3.2" fill="#1d4ed8"/>
<circle cx="551.86" cy="438.64" r="3.2" fill="#1d4ed8"/>
<circle cx="555.56" cy="437.83" r="3.2" fill="#1d4ed8"/>
<circle cx="559.25" cy="436.62" r="3.2" fill="#1d4ed8"/>
<circle cx="562.95" cy="436.62" r="3.2" fill="#1d4ed8"/>
<circle cx="566.64" cy="434.60" r="3.2" fill="#1d4ed8"/>
<circle cx="570.34" cy="432.17" r="3.2" fill="#1d4ed8"/>
<circle cx="574.03" cy="429.34" r="3.2" fill="#1d4ed8"/>
<circle cx="577.73" cy="428.93" r="3.2" fill="#1d4ed8"/>
<circle cx="581.42" cy="428.53" r="3.2" fill="#1d4ed8"/>
<circle cx="585.12" cy="427.72" r="3.2" fill="#1d4ed8"/>
<circle cx="588.81" cy="426.91" r="3.2" fill="#1d4ed8"/>
<circle cx="592.51" cy="426.10" r="3.2" fill="#1d4ed8"/>
<circle cx="596.20" cy="426.10" r="3.2" fill="#1d4ed8"/>
<circle cx="599.90" cy="426.10" r="3.2" fill="#1d4ed8"/>
<circle cx="603.59" cy="419.63" r="3.2" fill="#1d4ed8"/>
<circle cx="607.29" cy="419.23" r="3.2" fill="#1d4ed8"/>
<circle cx="610.98" cy="418.42" r="3.2" fill="#1d4ed8"/>
<circle cx="614.68" cy="418.01" r="3.2" fill="#1d4ed8"/>
<circle cx="618.37" cy="417.61" r="3.2" fill="#1d4ed8"/>
<circle cx="622.07" cy="417.61" r="3.2" fill="#1d4ed8"/>
<circle cx="625.76" cy="417.61" r="3.2" fill="#1d4ed8"/>
<circle cx="629.46" cy="417.21" r="3.2" fill="#1d4ed8"/>
<circle cx="633.15" cy="417.21" r="3.2" fill="#1d4ed8"/>
<circle cx="636.85" cy="413.57" r="3.2" fill="#1d4ed8"/>
<circle cx="640.54" cy="411.95" r="3.2" fill="#1d4ed8"/>
<circle cx="644.24" cy="412.76" r="3.2" fill="#1d4ed8"/>
<circle cx="647.93" cy="410.74" r="3.2" fill="#1d4ed8"/>
<circle cx="651.63" cy="410.74" r="3.2" fill="#1d4ed8"/>
<circle cx="655.32" cy="410.33" r="3.2" fill="#1d4ed8"/>
<circle cx="659.02" cy="410.33" r="3.2" fill="#1d4ed8"/>
<circle cx="662.71" cy="410.33" r="3.2" fill="#1d4ed8"/>
<circle cx="666.41" cy="409.93" r="3.2" fill="#1d4ed8"/>
<circle cx="670.10" cy="409.93" r="3.2" fill="#1d4ed8"/>
<circle cx="673.80" cy="409.93" r="3.2" fill="#1d4ed8"/>
<circle cx="677.49" cy="409.52" r="3.2" fill="#1d4ed8"/>
<circle cx="681.19" cy="409.52" r="3.2" fill="#1d4ed8"/>
<circle cx="684.88" cy="409.12" r="3.2" fill="#1d4ed8"/>
<circle cx="688.58" cy="409.52" r="3.2" fill="#1d4ed8"/>
<circle cx="692.27" cy="409.12" r="3.2" fill="#1d4ed8"/>
<circle cx="695.97" cy="407.50" r="3.2" fill="#1d4ed8"/>
<circle cx="699.66" cy="407.10" r="3.2" fill="#1d4ed8"/>
<circle cx="703.36" cy="403.05" r="3.2" fill="#1d4ed8"/>
<circle cx="707.05" cy="399.82" r="3.2" fill="#1d4ed8"/>
<circle cx="710.75" cy="400.22" r="3.2" fill="#1d4ed8"/>
<circle cx="714.44" cy="400.62" r="3.2" fill="#1d4ed8"/>
<circle cx="718.14" cy="400.62" r="3.2" fill="#1d4ed8"/>
<circle cx="721.83" cy="399.41" r="3.2" fill="#1d4ed8"/>
<circle cx="725.53" cy="392.94" r="3.2" fill="#1d4ed8"/>
<circle cx="729.22" cy="391.32" r="3.2" fill="#1d4ed8"/>
<circle cx="732.92" cy="389.30" r="3.2" fill="#1d4ed8"/>
<circle cx="736.61" cy="389.30" r="3.2" fill="#1d4ed8"/>
<circle cx="740.31" cy="388.49" r="3.2" fill="#1d4ed8"/>
<circle cx="744.00" cy="375.15" r="3.2" fill="#1d4ed8"/>
<circle cx="747.69" cy="374.74" r="3.2" fill="#1d4ed8"/>
<circle cx="751.39" cy="374.74" r="3.2" fill="#1d4ed8"/>
<circle cx="755.08" cy="374.74" r="3.2" fill="#1d4ed8"/>
<circle cx="758.78" cy="374.74" r="3.2" fill="#1d4ed8"/>
<circle cx="762.47" cy="374.34" r="3.2" fill="#1d4ed8"/>
<circle cx="766.17" cy="374.34" r="3.2" fill="#1d4ed8"/>
<circle cx="769.86" cy="374.34" r="3.2" fill="#1d4ed8"/>
<circle cx="773.56" cy="374.34" r="3.2" fill="#1d4ed8"/>
<circle cx="777.25" cy="374.34" r="3.2" fill="#1d4ed8"/>
<circle cx="780.95" cy="373.93" r="3.2" fill="#1d4ed8"/>
<circle cx="784.64" cy="373.12" r="3.2" fill="#1d4ed8"/>
<circle cx="788.34" cy="372.72" r="3.2" fill="#1d4ed8"/>
<circle cx="792.03" cy="373.53" r="3.2" fill="#1d4ed8"/>
<circle cx="795.73" cy="435.81" r="3.2" fill="#1d4ed8"/>
<circle cx="799.42" cy="372.32" r="3.2" fill="#1d4ed8"/>
<circle cx="803.12" cy="372.72" r="3.2" fill="#1d4ed8"/>
<circle cx="806.81" cy="371.91" r="3.2" fill="#1d4ed8"/>
<circle cx="810.51" cy="371.91" r="3.2" fill="#1d4ed8"/>
<circle cx="814.20" cy="372.32" r="3.2" fill="#1d4ed8"/>
<circle cx="817.90" cy="371.10" r="3.2" fill="#1d4ed8"/>
<circle cx="821.59" cy="369.89" r="3.2" fill="#1d4ed8"/>
<circle cx="825.29" cy="369.89" r="3.2" fill="#1d4ed8"/>
<circle cx="828.98" cy="369.89" r="3.2" fill="#1d4ed8"/>
<circle cx="832.68" cy="369.49" r="3.2" fill="#1d4ed8"/>
<circle cx="836.37" cy="369.89" r="3.2" fill="#1d4ed8"/>
<circle cx="840.07" cy="369.08" r="3.2" fill="#1d4ed8"/>
<circle cx="843.76" cy="368.68" r="3.2" fill="#1d4ed8"/>
<circle cx="847.46" cy="368.27" r="3.2" fill="#1d4ed8"/>
<circle cx="851.15" cy="367.87" r="3.2" fill="#1d4ed8"/>
<circle cx="854.85" cy="367.06" r="3.2" fill="#1d4ed8"/>
<circle cx="858.54" cy="367.46" r="3.2" fill="#1d4ed8"/>
<circle cx="862.24" cy="367.06" r="3.2" fill="#1d4ed8"/>
<circle cx="865.93" cy="366.25" r="3.2" fill="#1d4ed8"/>
<circle cx="869.63" cy="368.27" r="3.2" fill="#1d4ed8"/>
<circle cx="873.32" cy="368.68" r="3.2" fill="#1d4ed8"/>
<circle cx="877.02" cy="368.68" r="3.2" fill="#1d4ed8"/>
<circle cx="880.71" cy="368.27" r="3.2" fill="#1d4ed8"/>
<circle cx="884.41" cy="369.08" r="3.2" fill="#1d4ed8"/>
<circle cx="888.10" cy="367.87" r="3.2" fill="#1d4ed8"/>
<circle cx="891.80" cy="367.46" r="3.2" fill="#1d4ed8"/>
<circle cx="895.49" cy="367.06" r="3.2" fill="#1d4ed8"/>
<circle cx="899.19" cy="360.18" r="3.2" fill="#1d4ed8"/>
<circle cx="902.88" cy="359.78" r="3.2" fill="#1d4ed8"/>
<circle cx="906.58" cy="359.38" r="3.2" fill="#1d4ed8"/>
<circle cx="910.27" cy="356.95" r="3.2" fill="#1d4ed8"/>
<circle cx="913.97" cy="357.35" r="3.2" fill="#1d4ed8"/>
<circle cx="917.66" cy="357.76" r="3.2" fill="#1d4ed8"/>
<circle cx="921.36" cy="355.33" r="3.2" fill="#1d4ed8"/>
<circle cx="925.05" cy="355.74" r="3.2" fill="#1d4ed8"/>
<circle cx="928.75" cy="357.35" r="3.2" fill="#1d4ed8"/>
<circle cx="932.44" cy="355.33" r="3.2" fill="#1d4ed8"/>
<circle cx="936.14" cy="356.14" r="3.2" fill="#1d4ed8"/>
<circle cx="939.83" cy="355.74" r="3.2" fill="#1d4ed8"/>
<circle cx="943.53" cy="356.14" r="3.2" fill="#1d4ed8"/>
<circle cx="947.22" cy="354.12" r="3.2" fill="#1d4ed8"/>
<circle cx="950.92" cy="354.93" r="3.2" fill="#1d4ed8"/>
<circle cx="954.61" cy="356.14" r="3.2" fill="#1d4ed8"/>
<circle cx="958.31" cy="354.52" r="3.2" fill="#1d4ed8"/>
<circle cx="962.00" cy="353.71" r="3.2" fill="#1d4ed8"/>
<circle cx="965.69" cy="354.12" r="3.2" fill="#1d4ed8"/>
<circle cx="969.39" cy="354.93" r="3.2" fill="#1d4ed8"/>
<circle cx="973.08" cy="352.90" r="3.2" fill="#1d4ed8"/>
<circle cx="976.78" cy="353.71" r="3.2" fill="#1d4ed8"/>
<circle cx="980.47" cy="353.31" r="3.2" fill="#1d4ed8"/>
<circle cx="984.17" cy="353.31" r="3.2" fill="#1d4ed8"/>
<circle cx="987.86" cy="354.52" r="3.2" fill="#1d4ed8"/>
<circle cx="991.56" cy="352.90" r="3.2" fill="#1d4ed8"/>
<circle cx="995.25" cy="352.50" r="3.2" fill="#1d4ed8"/>
<circle cx="998.95" cy="352.50" r="3.2" fill="#1d4ed8"/>
<circle cx="1002.64" cy="353.31" r="3.2" fill="#1d4ed8"/>
<circle cx="1006.34" cy="352.50" r="3.2" fill="#1d4ed8"/>
<circle cx="1010.03" cy="353.71" r="3.2" fill="#1d4ed8"/>
<circle cx="1013.73" cy="354.12" r="3.2" fill="#1d4ed8"/>
<circle cx="1017.42" cy="352.50" r="3.2" fill="#1d4ed8"/>
<circle cx="1021.12" cy="352.90" r="3.2" fill="#1d4ed8"/>
<circle cx="1024.81" cy="352.50" r="3.2" fill="#1d4ed8"/>
<circle cx="1028.51" cy="352.10" r="3.2" fill="#1d4ed8"/>
<circle cx="1032.20" cy="351.69" r="3.2" fill="#1d4ed8"/>
<circle cx="1035.90" cy="352.10" r="3.2" fill="#1d4ed8"/>
<circle cx="1039.59" cy="354.12" r="3.2" fill="#1d4ed8"/>
<circle cx="1043.29" cy="352.50" r="3.2" fill="#1d4ed8"/>
<circle cx="1046.98" cy="352.10" r="3.2" fill="#1d4ed8"/>
<circle cx="1050.68" cy="352.10" r="3.2" fill="#1d4ed8"/>
<circle cx="1054.37" cy="349.67" r="3.2" fill="#1d4ed8"/>
<circle cx="1058.07" cy="349.67" r="3.2" fill="#1d4ed8"/>
<circle cx="1061.76" cy="350.88" r="3.2" fill="#1d4ed8"/>
<circle cx="1065.46" cy="351.29" r="3.2" fill="#1d4ed8"/>
<circle cx="1069.15" cy="350.48" r="3.2" fill="#1d4ed8"/>
<circle cx="1072.85" cy="352.10" r="3.2" fill="#1d4ed8"/>
<circle cx="1076.54" cy="350.48" r="3.2" fill="#1d4ed8"/>
<circle cx="1080.24" cy="350.48" r="3.2" fill="#1d4ed8"/>
<circle cx="1083.93" cy="350.48" r="3.2" fill="#1d4ed8"/>
<circle cx="1087.63" cy="350.07" r="3.2" fill="#1d4ed8"/>
<circle cx="1091.32" cy="348.46" r="3.2" fill="#1d4ed8"/>
<circle cx="1095.02" cy="351.29" r="3.2" fill="#1d4ed8"/>
<circle cx="1098.71" cy="349.67" r="3.2" fill="#1d4ed8"/>
<circle cx="1102.41" cy="351.29" r="3.2" fill="#1d4ed8"/>
<circle cx="1106.10" cy="349.67" r="3.2" fill="#1d4ed8"/>
<circle cx="1109.80" cy="348.86" r="3.2" fill="#1d4ed8"/>
<circle cx="1113.49" cy="348.46" r="3.2" fill="#1d4ed8"/>
<circle cx="1117.19" cy="348.46" r="3.2" fill="#1d4ed8"/>
<circle cx="1120.88" cy="347.24" r="3.2" fill="#1d4ed8"/>
<circle cx="1124.58" cy="348.86" r="3.2" fill="#1d4ed8"/>
<circle cx="1128.27" cy="346.84" r="3.2" fill="#1d4ed8"/>
<circle cx="1131.97" cy="348.46" r="3.2" fill="#1d4ed8"/>
<circle cx="1135.66" cy="348.86" r="3.2" fill="#1d4ed8"/>
<circle cx="1139.36" cy="346.84" r="3.2" fill="#1d4ed8"/>
<circle cx="1143.05" cy="349.26" r="3.2" fill="#1d4ed8"/>
<circle cx="1146.75" cy="348.05" r="3.2" fill="#1d4ed8"/>
<circle cx="1150.44" cy="349.26" r="3.2" fill="#1d4ed8"/>
<circle cx="1154.14" cy="349.26" r="3.2" fill="#1d4ed8"/>
<circle cx="1157.83" cy="350.48" r="3.2" fill="#1d4ed8"/>
<circle cx="1161.53" cy="352.90" r="3.2" fill="#1d4ed8"/>
<circle cx="1165.22" cy="349.67" r="3.2" fill="#1d4ed8"/>
<circle cx="1168.92" cy="348.46" r="3.2" fill="#1d4ed8"/>
<circle cx="1172.61" cy="345.62" r="3.2" fill="#1d4ed8"/>
<circle cx="1176.31" cy="344.82" r="3.2" fill="#1d4ed8"/>
<circle cx="1180.00" cy="344.41" r="3.2" fill="#1d4ed8"/>
<text x="635" y="695" text-anchor="middle" font-size="14" fill="#111" font-family="sans-serif">Date</text>
<text x="24" y="325" text-anchor="middle" font-size="14" fill="#111" transform="rotate(-90 24,325)" font-family="sans-serif">Passed files</text>
</svg>
