<?xml version="1.0" encoding="UTF-8"?>
<svg xmlns="http://www.w3.org/2000/svg" width="1280" height="720" viewBox="0 0 1280 720">
<rect width="100%" height="100%" fill="#ffffff"/>
<text x="640" y="30" text-anchor="middle" font-size="22" font-family="sans-serif">Roast passed files history</text>
<line x1="90" y1="600" x2="1180" y2="600" stroke="#333" stroke-width="1.5"/>
<line x1="90" y1="50" x2="90" y2="600" stroke="#333" stroke-width="1.5"/>
<line x1="90" y1="600.00" x2="1180" y2="600.00" stroke="#e5e7eb" stroke-width="1"/>
<text x="78" y="605.00" text-anchor="end" font-size="12" fill="#111" font-family="sans-serif">0</text>
<line x1="90" y1="397.79" x2="1180" y2="397.79" stroke="#e5e7eb" stroke-width="1"/>
<text x="78" y="402.79" text-anchor="end" font-size="12" fill="#111" font-family="sans-serif">500</text>
<line x1="90" y1="195.59" x2="1180" y2="195.59" stroke="#e5e7eb" stroke-width="1"/>
<text x="78" y="200.59" text-anchor="end" font-size="12" fill="#111" font-family="sans-serif">1000</text>
<line x1="90.00" y1="600" x2="90.00" y2="606" stroke="#333" stroke-width="1"/>
<text x="90.00" y="624" text-anchor="end" font-size="11" fill="#111" transform="rotate(-40 90.00,624)" font-family="sans-serif">2026-02-12</text>
<line x1="225.75" y1="600" x2="225.75" y2="606" stroke="#333" stroke-width="1"/>
<text x="225.75" y="624" text-anchor="end" font-size="11" fill="#111" transform="rotate(-40 225.75,624)" font-family="sans-serif">2026-02-17</text>
<line x1="361.50" y1="600" x2="361.50" y2="606" stroke="#333" stroke-width="1"/>
<text x="361.50" y="624" text-anchor="end" font-size="11" fill="#111" transform="rotate(-40 361.50,624)" font-family="sans-serif">2026-02-19</text>
<line x1="497.25" y1="600" x2="497.25" y2="606" stroke="#333" stroke-width="1"/>
<text x="497.25" y="624" text-anchor="end" font-size="11" fill="#111" transform="rotate(-40 497.25,624)" font-family="sans-serif">2026-02-23</text>
<line x1="633.00" y1="600" x2="633.00" y2="606" stroke="#333" stroke-width="1"/>
<text x="633.00" y="624" text-anchor="end" font-size="11" fill="#111" transform="rotate(-40 633.00,624)" font-family="sans-serif">2026-02-25</text>
<line x1="768.75" y1="600" x2="768.75" y2="606" stroke="#333" stroke-width="1"/>
<text x="768.75" y="624" text-anchor="end" font-size="11" fill="#111" transform="rotate(-40 768.75,624)" font-family="sans-serif">2026-02-27</text>
<line x1="904.51" y1="600" x2="904.51" y2="606" stroke="#333" stroke-width="1"/>
<text x="904.51" y="624" text-anchor="end" font-size="11" fill="#111" transform="rotate(-40 904.51,624)" font-family="sans-serif">2026-03-01</text>
<line x1="1040.26" y1="600" x2="1040.26" y2="606" stroke="#333" stroke-width="1"/>
<text x="1040.26" y="624" text-anchor="end" font-size="11" fill="#111" transform="rotate(-40 1040.26,624)" font-family="sans-serif">2026-03-06</text>
<line x1="1176.01" y1="600" x2="1176.01" y2="606" stroke="#333" stroke-width="1"/>
<text x="1176.01" y="624" text-anchor="end" font-size="11" fill="#111" transform="rotate(-40 1176.01,624)" font-family="sans-serif">2026-03-07</text>
<line x1="1180.00" y1="600" x2="1180.00" y2="606" stroke="#333" stroke-width="1"/>
<text x="1180.00" y="624" text-anchor="end" font-size="11" fill="#111" transform="rotate(-40 1180.00,624)" font-family="sans-serif">2026-03-07</text>
<line x1="90" y1="75.88" x2="1180" y2="75.88" stroke="#dc2626" stroke-width="1.5" stroke-dasharray="8,4"/>
<text x="1184" y="79.88" font-size="12" fill="#dc2626" font-family="sans-serif">Goal: 1296</text>
<polyline fill="none" stroke="#2563eb" stroke-width="3" points="90.00,540.55 93.99,538.53 97.99,536.91 101.98,534.49 105.97,534.49 109.96,533.27 113.96,532.46 117.95,532.87 121.94,532.06 125.93,532.46 129.93,532.06 133.92,568.46 137.91,568.46 141.90,566.43 145.90,545.00 149.89,545.00 153.88,544.19 157.88,543.79 161.87,543.79 165.86,543.38 169.85,541.76 173.85,541.36 177.84,540.96 181.83,540.96 185.82,539.34 189.82,539.34 193.81,556.73 197.80,556.73 201.79,555.51 205.79,551.07 209.78,538.93 213.77,538.93 217.77,538.93 221.76,538.12 225.75,536.91 229.74,536.91 233.74,536.51 237.73,536.51 241.72,556.73 245.71,556.73 249.71,556.73 253.70,556.73 257.69,535.29 261.68,535.29 265.68,535.29 269.67,535.29 273.66,534.49 277.66,534.08 281.65,533.68 285.64,532.87 289.63,532.06 293.63,532.06 297.62,531.25 301.61,530.85 305.60,530.44 309.60,530.04 313.59,530.04 317.58,529.23 321.58,529.23 325.57,529.23 329.56,528.42 333.55,528.42 337.55,527.61 341.54,527.21 345.53,526.80 349.52,526.40 353.52,525.18 357.51,523.57 361.50,523.57 365.49,523.16 369.49,522.76 373.48,522.35 377.47,521.54 381.47,519.52 385.46,517.50 389.45,517.50 393.44,517.50 397.44,517.50 401.43,517.50 405.42,517.50 409.41,517.10 413.41,516.69 417.40,515.48 421.39,515.07 425.38,514.67 429.38,513.86 433.37,514.26 437.36,512.24 441.36,511.84 445.35,511.84 449.34,511.03 453.33,509.82 457.33,507.79 461.32,506.99 465.31,506.58 469.30,509.41 473.30,509.01 477.29,504.96 481.28,504.56 485.27,504.15 489.27,504.56 493.26,503.75 497.25,503.75 501.25,503.35 505.24,499.30 509.23,496.47 513.22,490.00 517.22,484.34 521.21,481.10 525.20,480.29 529.19,480.70 533.19,460.88 537.18,459.26 541.17,458.05 545.16,456.03 549.16,456.03 553.15,454.41 557.14,450.77 561.14,444.30 565.13,443.90 569.12,600.00 573.11,441.88 577.11,440.66 581.10,439.45 585.09,439.04 589.08,438.64 593.08,437.83 597.07,436.62 601.06,436.62 605.05,434.60 609.05,432.17 613.04,429.34 617.03,428.93 621.03,428.53 625.02,427.72 629.01,426.91 633.00,426.10 637.00,426.10 640.99,426.10 644.98,419.63 648.97,419.23 652.97,418.42 656.96,418.01 660.95,417.61 664.95,417.61 668.94,417.61 672.93,417.21 676.92,417.21 680.92,413.57 684.91,411.95 688.90,412.76 692.89,410.74 696.89,410.74 700.88,410.33 704.87,410.33 708.86,410.33 712.86,409.93 716.85,409.93 720.84,409.93 724.84,409.52 728.83,409.52 732.82,409.12 736.81,409.52 740.81,409.12 744.80,407.50 748.79,407.10 752.78,403.05 756.78,399.82 760.77,400.22 764.76,400.62 768.75,400.62 772.75,399.41 776.74,392.94 780.73,391.32 784.73,389.30 788.72,389.30 792.71,388.49 796.70,375.15 800.70,374.74 804.69,374.74 808.68,374.74 812.67,374.74 816.67,374.34 820.66,374.34 824.65,374.34 828.64,374.34 832.64,374.34 836.63,373.93 840.62,373.12 844.62,372.72 848.61,373.53 852.60,435.81 856.59,372.32 860.59,372.72 864.58,371.91 868.57,371.91 872.56,372.32 876.56,371.10 880.55,369.89 884.54,369.89 888.53,369.89 892.53,369.49 896.52,369.89 900.51,369.08 904.51,368.68 908.50,368.27 912.49,367.87 916.48,367.06 920.48,367.46 924.47,367.06 928.46,366.25 932.45,368.27 936.45,368.68 940.44,368.68 944.43,368.27 948.42,369.08 952.42,367.87 956.41,367.46 960.40,367.06 964.40,360.18 968.39,359.78 972.38,359.38 976.37,356.95 980.37,357.35 984.36,357.76 988.35,355.33 992.34,355.74 996.34,357.35 1000.33,355.33 1004.32,356.14 1008.32,355.74 1012.31,356.14 1016.30,354.12 1020.29,354.93 1024.29,356.14 1028.28,354.52 1032.27,353.71 1036.26,354.12 1040.26,354.93 1044.25,352.90 1048.24,353.71 1052.23,353.31 1056.23,353.31 1060.22,354.52 1064.21,352.90 1068.21,352.50 1072.20,352.50 1076.19,353.31 1080.18,352.50 1084.18,353.71 1088.17,354.12 1092.16,352.50 1096.15,352.90 1100.15,352.50 1104.14,352.10 1108.13,351.69 1112.12,352.10 1116.12,354.12 1120.11,352.50 1124.10,352.10 1128.10,352.10 1132.09,349.67 1136.08,349.67 1140.07,350.88 1144.07,351.29 1148.06,350.48 1152.05,352.10 1156.04,350.48 1160.04,350.48 1164.03,350.48 1168.02,350.07 1172.01,348.46 1176.01,351.29 1180.00,349.67"/>
<circle cx="90.00" cy="540.55" r="3.2" fill="#1d4ed8"/>
<circle cx="93.99" cy="538.53" r="3.2" fill="#1d4ed8"/>
<circle cx="97.99" cy="536.91" r="3.2" fill="#1d4ed8"/>
<circle cx="101.98" cy="534.49" r="3.2" fill="#1d4ed8"/>
<circle cx="105.97" cy="534.49" r="3.2" fill="#1d4ed8"/>
<circle cx="109.96" cy="533.27" r="3.2" fill="#1d4ed8"/>
<circle cx="113.96" cy="532.46" r="3.2" fill="#1d4ed8"/>
<circle cx="117.95" cy="532.87" r="3.2" fill="#1d4ed8"/>
<circle cx="121.94" cy="532.06" r="3.2" fill="#1d4ed8"/>
<circle cx="125.93" cy="532.46" r="3.2" fill="#1d4ed8"/>
<circle cx="129.93" cy="532.06" r="3.2" fill="#1d4ed8"/>
<circle cx="133.92" cy="568.46" r="3.2" fill="#1d4ed8"/>
<circle cx="137.91" cy="568.46" r="3.2" fill="#1d4ed8"/>
<circle cx="141.90" cy="566.43" r="3.2" fill="#1d4ed8"/>
<circle cx="145.90" cy="545.00" r="3.2" fill="#1d4ed8"/>
<circle cx="149.89" cy="545.00" r="3.2" fill="#1d4ed8"/>
<circle cx="153.88" cy="544.19" r="3.2" fill="#1d4ed8"/>
<circle cx="157.88" cy="543.79" r="3.2" fill="#1d4ed8"/>
<circle cx="161.87" cy="543.79" r="3.2" fill="#1d4ed8"/>
<circle cx="165.86" cy="543.38" r="3.2" fill="#1d4ed8"/>
<circle cx="169.85" cy="541.76" r="3.2" fill="#1d4ed8"/>
<circle cx="173.85" cy="541.36" r="3.2" fill="#1d4ed8"/>
<circle cx="177.84" cy="540.96" r="3.2" fill="#1d4ed8"/>
<circle cx="181.83" cy="540.96" r="3.2" fill="#1d4ed8"/>
<circle cx="185.82" cy="539.34" r="3.2" fill="#1d4ed8"/>
<circle cx="189.82" cy="539.34" r="3.2" fill="#1d4ed8"/>
<circle cx="193.81" cy="556.73" r="3.2" fill="#1d4ed8"/>
<circle cx="197.80" cy="556.73" r="3.2" fill="#1d4ed8"/>
<circle cx="201.79" cy="555.51" r="3.2" fill="#1d4ed8"/>
<circle cx="205.79" cy="551.07" r="3.2" fill="#1d4ed8"/>
<circle cx="209.78" cy="538.93" r="3.2" fill="#1d4ed8"/>
<circle cx="213.77" cy="538.93" r="3.2" fill="#1d4ed8"/>
<circle cx="217.77" cy="538.93" r="3.2" fill="#1d4ed8"/>
<circle cx="221.76" cy="538.12" r="3.2" fill="#1d4ed8"/>
<circle cx="225.75" cy="536.91" r="3.2" fill="#1d4ed8"/>
<circle cx="229.74" cy="536.91" r="3.2" fill="#1d4ed8"/>
<circle cx="233.74" cy="536.51" r="3.2" fill="#1d4ed8"/>
<circle cx="237.73" cy="536.51" r="3.2" fill="#1d4ed8"/>
<circle cx="241.72" cy="556.73" r="3.2" fill="#1d4ed8"/>
<circle cx="245.71" cy="556.73" r="3.2" fill="#1d4ed8"/>
<circle cx="249.71" cy="556.73" r="3.2" fill="#1d4ed8"/>
<circle cx="253.70" cy="556.73" r="3.2" fill="#1d4ed8"/>
<circle cx="257.69" cy="535.29" r="3.2" fill="#1d4ed8"/>
<circle cx="261.68" cy="535.29" r="3.2" fill="#1d4ed8"/>
<circle cx="265.68" cy="535.29" r="3.2" fill="#1d4ed8"/>
<circle cx="269.67" cy="535.29" r="3.2" fill="#1d4ed8"/>
<circle cx="273.66" cy="534.49" r="3.2" fill="#1d4ed8"/>
<circle cx="277.66" cy="534.08" r="3.2" fill="#1d4ed8"/>
<circle cx="281.65" cy="533.68" r="3.2" fill="#1d4ed8"/>
<circle cx="285.64" cy="532.87" r="3.2" fill="#1d4ed8"/>
<circle cx="289.63" cy="532.06" r="3.2" fill="#1d4ed8"/>
<circle cx="293.63" cy="532.06" r="3.2" fill="#1d4ed8"/>
<circle cx="297.62" cy="531.25" r="3.2" fill="#1d4ed8"/>
<circle cx="301.61" cy="530.85" r="3.2" fill="#1d4ed8"/>
<circle cx="305.60" cy="530.44" r="3.2" fill="#1d4ed8"/>
<circle cx="309.60" cy="530.04" r="3.2" fill="#1d4ed8"/>
<circle cx="313.59" cy="530.04" r="3.2" fill="#1d4ed8"/>
<circle cx="317.58" cy="529.23" r="3.2" fill="#1d4ed8"/>
<circle cx="321.58" cy="529.23" r="3.2" fill="#1d4ed8"/>
<circle cx="325.57" cy="529.23" r="3.2" fill="#1d4ed8"/>
<circle cx="329.56" cy="528.42" r="3.2" fill="#1d4ed8"/>
<circle cx="333.55" cy="528.42" r="3.2" fill="#1d4ed8"/>
<circle cx="337.55" cy="527.61" r="3.2" fill="#1d4ed8"/>
<circle cx="341.54" cy="527.21" r="3.2" fill="#1d4ed8"/>
<circle cx="345.53" cy="526.80" r="3.2" fill="#1d4ed8"/>
<circle cx="349.52" cy="526.40" r="3.2" fill="#1d4ed8"/>
<circle cx="353.52" cy="525.18" r="3.2" fill="#1d4ed8"/>
<circle cx="357.51" cy="523.57" r="3.2" fill="#1d4ed8"/>
<circle cx="361.50" cy="523.57" r="3.2" fill="#1d4ed8"/>
<circle cx="365.49" cy="523.16" r="3.2" fill="#1d4ed8"/>
<circle cx="369.49" cy="522.76" r="3.2" fill="#1d4ed8"/>
<circle cx="373.48" cy="522.35" r="3.2" fill="#1d4ed8"/>
<circle cx="377.47" cy="521.54" r="3.2" fill="#1d4ed8"/>
<circle cx="381.47" cy="519.52" r="3.2" fill="#1d4ed8"/>
<circle cx="385.46" cy="517.50" r="3.2" fill="#1d4ed8"/>
<circle cx="389.45" cy="517.50" r="3.2" fill="#1d4ed8"/>
<circle cx="393.44" cy="517.50" r="3.2" fill="#1d4ed8"/>
<circle cx="397.44" cy="517.50" r="3.2" fill="#1d4ed8"/>
<circle cx="401.43" cy="517.50" r="3.2" fill="#1d4ed8"/>
<circle cx="405.42" cy="517.50" r="3.2" fill="#1d4ed8"/>
<circle cx="409.41" cy="517.10" r="3.2" fill="#1d4ed8"/>
<circle cx="413.41" cy="516.69" r="3.2" fill="#1d4ed8"/>
<circle cx="417.40" cy="515.48" r="3.2" fill="#1d4ed8"/>
<circle cx="421.39" cy="515.07" r="3.2" fill="#1d4ed8"/>
<circle cx="425.38" cy="514.67" r="3.2" fill="#1d4ed8"/>
<circle cx="429.38" cy="513.86" r="3.2" fill="#1d4ed8"/>
<circle cx="433.37" cy="514.26" r="3.2" fill="#1d4ed8"/>
<circle cx="437.36" cy="512.24" r="3.2" fill="#1d4ed8"/>
<circle cx="441.36" cy="511.84" r="3.2" fill="#1d4ed8"/>
<circle cx="445.35" cy="511.84" r="3.2" fill="#1d4ed8"/>
<circle cx="449.34" cy="511.03" r="3.2" fill="#1d4ed8"/>
<circle cx="453.33" cy="509.82" r="3.2" fill="#1d4ed8"/>
<circle cx="457.33" cy="507.79" r="3.2" fill="#1d4ed8"/>
<circle cx="461.32" cy="506.99" r="3.2" fill="#1d4ed8"/>
<circle cx="465.31" cy="506.58" r="3.2" fill="#1d4ed8"/>
<circle cx="469.30" cy="509.41" r="3.2" fill="#1d4ed8"/>
<circle cx="473.30" cy="509.01" r="3.2" fill="#1d4ed8"/>
<circle cx="477.29" cy="504.96" r="3.2" fill="#1d4ed8"/>
<circle cx="481.28" cy="504.56" r="3.2" fill="#1d4ed8"/>
<circle cx="485.27" cy="504.15" r="3.2" fill="#1d4ed8"/>
<circle cx="489.27" cy="504.56" r="3.2" fill="#1d4ed8"/>
<circle cx="493.26" cy="503.75" r="3.2" fill="#1d4ed8"/>
<circle cx="497.25" cy="503.75" r="3.2" fill="#1d4ed8"/>
<circle cx="501.25" cy="503.35" r="3.2" fill="#1d4ed8"/>
<circle cx="505.24" cy="499.30" r="3.2" fill="#1d4ed8"/>
<circle cx="509.23" cy="496.47" r="3.2" fill="#1d4ed8"/>
<circle cx="513.22" cy="490.00" r="3.2" fill="#1d4ed8"/>
<circle cx="517.22" cy="484.34" r="3.2" fill="#1d4ed8"/>
<circle cx="521.21" cy="481.10" r="3.2" fill="#1d4ed8"/>
<circle cx="525.20" cy="480.29" r="3.2" fill="#1d4ed8"/>
<circle cx="529.19" cy="480.70" r="3.2" fill="#1d4ed8"/>
<circle cx="533.19" cy="460.88" r="3.2" fill="#1d4ed8"/>
<circle cx="537.18" cy="459.26" r="3.2" fill="#1d4ed8"/>
<circle cx="541.17" cy="458.05" r="3.2" fill="#1d4ed8"/>
<circle cx="545.16" cy="456.03" r="3.2" fill="#1d4ed8"/>
<circle cx="549.16" cy="456.03" r="3.2" fill="#1d4ed8"/>
<circle cx="553.15" cy="454.41" r="3.2" fill="#1d4ed8"/>
<circle cx="557.14" cy="450.77" r="3.2" fill="#1d4ed8"/>
<circle cx="561.14" cy="444.30" r="3.2" fill="#1d4ed8"/>
<circle cx="565.13" cy="443.90" r="3.2" fill="#1d4ed8"/>
<circle cx="569.12" cy="600.00" r="3.2" fill="#1d4ed8"/>
<circle cx="573.11" cy="441.88" r="3.2" fill="#1d4ed8"/>
<circle cx="577.11" cy="440.66" r="3.2" fill="#1d4ed8"/>
<circle cx="581.10" cy="439.45" r="3.2" fill="#1d4ed8"/>
<circle cx="585.09" cy="439.04" r="3.2" fill="#1d4ed8"/>
<circle cx="589.08" cy="438.64" r="3.2" fill="#1d4ed8"/>
<circle cx="593.08" cy="437.83" r="3.2" fill="#1d4ed8"/>
<circle cx="597.07" cy="436.62" r="3.2" fill="#1d4ed8"/>
<circle cx="601.06" cy="436.62" r="3.2" fill="#1d4ed8"/>
<circle cx="605.05" cy="434.60" r="3.2" fill="#1d4ed8"/>
<circle cx="609.05" cy="432.17" r="3.2" fill="#1d4ed8"/>
<circle cx="613.04" cy="429.34" r="3.2" fill="#1d4ed8"/>
<circle cx="617.03" cy="428.93" r="3.2" fill="#1d4ed8"/>
<circle cx="621.03" cy="428.53" r="3.2" fill="#1d4ed8"/>
<circle cx="625.02" cy="427.72" r="3.2" fill="#1d4ed8"/>
<circle cx="629.01" cy="426.91" r="3.2" fill="#1d4ed8"/>
<circle cx="633.00" cy="426.10" r="3.2" fill="#1d4ed8"/>
<circle cx="637.00" cy="426.10" r="3.2" fill="#1d4ed8"/>
<circle cx="640.99" cy="426.10" r="3.2" fill="#1d4ed8"/>
<circle cx="644.98" cy="419.63" r="3.2" fill="#1d4ed8"/>
<circle cx="648.97" cy="419.23" r="3.2" fill="#1d4ed8"/>
<circle cx="652.97" cy="418.42" r="3.2" fill="#1d4ed8"/>
<circle cx="656.96" cy="418.01" r="3.2" fill="#1d4ed8"/>
<circle cx="660.95" cy="417.61" r="3.2" fill="#1d4ed8"/>
<circle cx="664.95" cy="417.61" r="3.2" fill="#1d4ed8"/>
<circle cx="668.94" cy="417.61" r="3.2" fill="#1d4ed8"/>
<circle cx="672.93" cy="417.21" r="3.2" fill="#1d4ed8"/>
<circle cx="676.92" cy="417.21" r="3.2" fill="#1d4ed8"/>
<circle cx="680.92" cy="413.57" r="3.2" fill="#1d4ed8"/>
<circle cx="684.91" cy="411.95" r="3.2" fill="#1d4ed8"/>
<circle cx="688.90" cy="412.76" r="3.2" fill="#1d4ed8"/>
<circle cx="692.89" cy="410.74" r="3.2" fill="#1d4ed8"/>
<circle cx="696.89" cy="410.74" r="3.2" fill="#1d4ed8"/>
<circle cx="700.88" cy="410.33" r="3.2" fill="#1d4ed8"/>
<circle cx="704.87" cy="410.33" r="3.2" fill="#1d4ed8"/>
<circle cx="708.86" cy="410.33" r="3.2" fill="#1d4ed8"/>
<circle cx="712.86" cy="409.93" r="3.2" fill="#1d4ed8"/>
<circle cx="716.85" cy="409.93" r="3.2" fill="#1d4ed8"/>
<circle cx="720.84" cy="409.93" r="3.2" fill="#1d4ed8"/>
<circle cx="724.84" cy="409.52" r="3.2" fill="#1d4ed8"/>
<circle cx="728.83" cy="409.52" r="3.2" fill="#1d4ed8"/>
<circle cx="732.82" cy="409.12" r="3.2" fill="#1d4ed8"/>
<circle cx="736.81" cy="409.52" r="3.2" fill="#1d4ed8"/>
<circle cx="740.81" cy="409.12" r="3.2" fill="#1d4ed8"/>
<circle cx="744.80" cy="407.50" r="3.2" fill="#1d4ed8"/>
<circle cx="748.79" cy="407.10" r="3.2" fill="#1d4ed8"/>
<circle cx="752.78" cy="403.05" r="3.2" fill="#1d4ed8"/>
<circle cx="756.78" cy="399.82" r="3.2" fill="#1d4ed8"/>
<circle cx="760.77" cy="400.22" r="3.2" fill="#1d4ed8"/>
<circle cx="764.76" cy="400.62" r="3.2" fill="#1d4ed8"/>
<circle cx="768.75" cy="400.62" r="3.2" fill="#1d4ed8"/>
<circle cx="772.75" cy="399.41" r="3.2" fill="#1d4ed8"/>
<circle cx="776.74" cy="392.94" r="3.2" fill="#1d4ed8"/>
<circle cx="780.73" cy="391.32" r="3.2" fill="#1d4ed8"/>
<circle cx="784.73" cy="389.30" r="3.2" fill="#1d4ed8"/>
<circle cx="788.72" cy="389.30" r="3.2" fill="#1d4ed8"/>
<circle cx="792.71" cy="388.49" r="3.2" fill="#1d4ed8"/>
<circle cx="796.70" cy="375.15" r="3.2" fill="#1d4ed8"/>
<circle cx="800.70" cy="374.74" r="3.2" fill="#1d4ed8"/>
<circle cx="804.69" cy="374.74" r="3.2" fill="#1d4ed8"/>
<circle cx="808.68" cy="374.74" r="3.2" fill="#1d4ed8"/>
<circle cx="812.67" cy="374.74" r="3.2" fill="#1d4ed8"/>
<circle cx="816.67" cy="374.34" r="3.2" fill="#1d4ed8"/>
<circle cx="820.66" cy="374.34" r="3.2" fill="#1d4ed8"/>
<circle cx="824.65" cy="374.34" r="3.2" fill="#1d4ed8"/>
<circle cx="828.64" cy="374.34" r="3.2" fill="#1d4ed8"/>
<circle cx="832.64" cy="374.34" r="3.2" fill="#1d4ed8"/>
<circle cx="836.63" cy="373.93" r="3.2" fill="#1d4ed8"/>
<circle cx="840.62" cy="373.12" r="3.2" fill="#1d4ed8"/>
<circle cx="844.62" cy="372.72" r="3.2" fill="#1d4ed8"/>
<circle cx="848.61" cy="373.53" r="3.2" fill="#1d4ed8"/>
<circle cx="852.60" cy="435.81" r="3.2" fill="#1d4ed8"/>
<circle cx="856.59" cy="372.32" r="3.2" fill="#1d4ed8"/>
<circle cx="860.59" cy="372.72" r="3.2" fill="#1d4ed8"/>
<circle cx="864.58" cy="371.91" r="3.2" fill="#1d4ed8"/>
<circle cx="868.57" cy="371.91" r="3.2" fill="#1d4ed8"/>
<circle cx="872.56" cy="372.32" r="3.2" fill="#1d4ed8"/>
<circle cx="876.56" cy="371.10" r="3.2" fill="#1d4ed8"/>
<circle cx="880.55" cy="369.89" r="3.2" fill="#1d4ed8"/>
<circle cx="884.54" cy="369.89" r="3.2" fill="#1d4ed8"/>
<circle cx="888.53" cy="369.89" r="3.2" fill="#1d4ed8"/>
<circle cx="892.53" cy="369.49" r="3.2" fill="#1d4ed8"/>
<circle cx="896.52" cy="369.89" r="3.2" fill="#1d4ed8"/>
<circle cx="900.51" cy="369.08" r="3.2" fill="#1d4ed8"/>
<circle cx="904.51" cy="368.68" r="3.2" fill="#1d4ed8"/>
<circle cx="908.50" cy="368.27" r="3.2" fill="#1d4ed8"/>
<circle cx="912.49" cy="367.87" r="3.2" fill="#1d4ed8"/>
<circle cx="916.48" cy="367.06" r="3.2" fill="#1d4ed8"/>
<circle cx="920.48" cy="367.46" r="3.2" fill="#1d4ed8"/>
<circle cx="924.47" cy="367.06" r="3.2" fill="#1d4ed8"/>
<circle cx="928.46" cy="366.25" r="3.2" fill="#1d4ed8"/>
<circle cx="932.45" cy="368.27" r="3.2" fill="#1d4ed8"/>
<circle cx="936.45" cy="368.68" r="3.2" fill="#1d4ed8"/>
<circle cx="940.44" cy="368.68" r="3.2" fill="#1d4ed8"/>
<circle cx="944.43" cy="368.27" r="3.2" fill="#1d4ed8"/>
<circle cx="948.42" cy="369.08" r="3.2" fill="#1d4ed8"/>
<circle cx="952.42" cy="367.87" r="3.2" fill="#1d4ed8"/>
<circle cx="956.41" cy="367.46" r="3.2" fill="#1d4ed8"/>
<circle cx="960.40" cy="367.06" r="3.2" fill="#1d4ed8"/>
<circle cx="964.40" cy="360.18" r="3.2" fill="#1d4ed8"/>
<circle cx="968.39" cy="359.78" r="3.2" fill="#1d4ed8"/>
<circle cx="972.38" cy="359.38" r="3.2" fill="#1d4ed8"/>
<circle cx="976.37" cy="356.95" r="3.2" fill="#1d4ed8"/>
<circle cx="980.37" cy="357.35" r="3.2" fill="#1d4ed8"/>
<circle cx="984.36" cy="357.76" r="3.2" fill="#1d4ed8"/>
<circle cx="988.35" cy="355.33" r="3.2" fill="#1d4ed8"/>
<circle cx="992.34" cy="355.74" r="3.2" fill="#1d4ed8"/>
<circle cx="996.34" cy="357.35" r="3.2" fill="#1d4ed8"/>
<circle cx="1000.33" cy="355.33" r="3.2" fill="#1d4ed8"/>
<circle cx="1004.32" cy="356.14" r="3.2" fill="#1d4ed8"/>
<circle cx="1008.32" cy="355.74" r="3.2" fill="#1d4ed8"/>
<circle cx="1012.31" cy="356.14" r="3.2" fill="#1d4ed8"/>
<circle cx="1016.30" cy="354.12" r="3.2" fill="#1d4ed8"/>
<circle cx="1020.29" cy="354.93" r="3.2" fill="#1d4ed8"/>
<circle cx="1024.29" cy="356.14" r="3.2" fill="#1d4ed8"/>
<circle cx="1028.28" cy="354.52" r="3.2" fill="#1d4ed8"/>
<circle cx="1032.27" cy="353.71" r="3.2" fill="#1d4ed8"/>
<circle cx="1036.26" cy="354.12" r="3.2" fill="#1d4ed8"/>
<circle cx="1040.26" cy="354.93" r="3.2" fill="#1d4ed8"/>
<circle cx="1044.25" cy="352.90" r="3.2" fill="#1d4ed8"/>
<circle cx="1048.24" cy="353.71" r="3.2" fill="#1d4ed8"/>
<circle cx="1052.23" cy="353.31" r="3.2" fill="#1d4ed8"/>
<circle cx="1056.23" cy="353.31" r="3.2" fill="#1d4ed8"/>
<circle cx="1060.22" cy="354.52" r="3.2" fill="#1d4ed8"/>
<circle cx="1064.21" cy="352.90" r="3.2" fill="#1d4ed8"/>
<circle cx="1068.21" cy="352.50" r="3.2" fill="#1d4ed8"/>
<circle cx="1072.20" cy="352.50" r="3.2" fill="#1d4ed8"/>
<circle cx="1076.19" cy="353.31" r="3.2" fill="#1d4ed8"/>
<circle cx="1080.18" cy="352.50" r="3.2" fill="#1d4ed8"/>
<circle cx="1084.18" cy="353.71" r="3.2" fill="#1d4ed8"/>
<circle cx="1088.17" cy="354.12" r="3.2" fill="#1d4ed8"/>
<circle cx="1092.16" cy="352.50" r="3.2" fill="#1d4ed8"/>
<circle cx="1096.15" cy="352.90" r="3.2" fill="#1d4ed8"/>
<circle cx="1100.15" cy="352.50" r="3.2" fill="#1d4ed8"/>
<circle cx="1104.14" cy="352.10" r="3.2" fill="#1d4ed8"/>
<circle cx="1108.13" cy="351.69" r="3.2" fill="#1d4ed8"/>
<circle cx="1112.12" cy="352.10" r="3.2" fill="#1d4ed8"/>
<circle cx="1116.12" cy="354.12" r="3.2" fill="#1d4ed8"/>
<circle cx="1120.11" cy="352.50" r="3.2" fill="#1d4ed8"/>
<circle cx="1124.10" cy="352.10" r="3.2" fill="#1d4ed8"/>
<circle cx="1128.10" cy="352.10" r="3.2" fill="#1d4ed8"/>
<circle cx="1132.09" cy="349.67" r="3.2" fill="#1d4ed8"/>
<circle cx="1136.08" cy="349.67" r="3.2" fill="#1d4ed8"/>
<circle cx="1140.07" cy="350.88" r="3.2" fill="#1d4ed8"/>
<circle cx="1144.07" cy="351.29" r="3.2" fill="#1d4ed8"/>
<circle cx="1148.06" cy="350.48" r="3.2" fill="#1d4ed8"/>
<circle cx="1152.05" cy="352.10" r="3.2" fill="#1d4ed8"/>
<circle cx="1156.04" cy="350.48" r="3.2" fill="#1d4ed8"/>
<circle cx="1160.04" cy="350.48" r="3.2" fill="#1d4ed8"/>
<circle cx="1164.03" cy="350.48" r="3.2" fill="#1d4ed8"/>
<circle cx="1168.02" cy="350.07" r="3.2" fill="#1d4ed8"/>
<circle cx="1172.01" cy="348.46" r="3.2" fill="#1d4ed8"/>
<circle cx="1176.01" cy="351.29" r="3.2" fill="#1d4ed8"/>
<circle cx="1180.00" cy="349.67" r="3.2" fill="#1d4ed8"/>
<text x="635" y="695" text-anchor="middle" font-size="14" fill="#111" font-family="sans-serif">Date</text>
<text x="24" y="325" text-anchor="middle" font-size="14" fill="#111" transform="rotate(-90 24,325)" font-family="sans-serif">Passed files</text>
</svg>
