<?xml version="1.0" encoding="UTF-8"?>
<svg xmlns="http://www.w3.org/2000/svg" width="1280" height="720" viewBox="0 0 1280 720">
<rect width="100%" height="100%" fill="#ffffff"/>
<text x="640" y="30" text-anchor="middle" font-size="22" font-family="sans-serif">Roast passed files history</text>
<line x1="90" y1="600" x2="1180" y2="600" stroke="#333" stroke-width="1.5"/>
<line x1="90" y1="50" x2="90" y2="600" stroke="#333" stroke-width="1.5"/>
<line x1="90" y1="600.00" x2="1180" y2="600.00" stroke="#e5e7eb" stroke-width="1"/>
<text x="78" y="605.00" text-anchor="end" font-size="12" fill="#111" font-family="sans-serif">0</text>
<line x1="90" y1="397.79" x2="1180" y2="397.79" stroke="#e5e7eb" stroke-width="1"/>
<text x="78" y="402.79" text-anchor="end" font-size="12" fill="#111" font-family="sans-serif">500</text>
<line x1="90" y1="195.59" x2="1180" y2="195.59" stroke="#e5e7eb" stroke-width="1"/>
<text x="78" y="200.59" text-anchor="end" font-size="12" fill="#111" font-family="sans-serif">1000</text>
<line x1="90.00" y1="600" x2="90.00" y2="606" stroke="#333" stroke-width="1"/>
<text x="90.00" y="624" text-anchor="end" font-size="11" fill="#111" transform="rotate(-40 90.00,624)" font-family="sans-serif">2026-02-12</text>
<line x1="225.27" y1="600" x2="225.27" y2="606" stroke="#333" stroke-width="1"/>
<text x="225.27" y="624" text-anchor="end" font-size="11" fill="#111" transform="rotate(-40 225.27,624)" font-family="sans-serif">2026-02-18</text>
<line x1="360.55" y1="600" x2="360.55" y2="606" stroke="#333" stroke-width="1"/>
<text x="360.55" y="624" text-anchor="end" font-size="11" fill="#111" transform="rotate(-40 360.55,624)" font-family="sans-serif">2026-02-23</text>
<line x1="495.82" y1="600" x2="495.82" y2="606" stroke="#333" stroke-width="1"/>
<text x="495.82" y="624" text-anchor="end" font-size="11" fill="#111" transform="rotate(-40 495.82,624)" font-family="sans-serif">2026-02-26</text>
<line x1="631.10" y1="600" x2="631.10" y2="606" stroke="#333" stroke-width="1"/>
<text x="631.10" y="624" text-anchor="end" font-size="11" fill="#111" transform="rotate(-40 631.10,624)" font-family="sans-serif">2026-03-01</text>
<line x1="766.37" y1="600" x2="766.37" y2="606" stroke="#333" stroke-width="1"/>
<text x="766.37" y="624" text-anchor="end" font-size="11" fill="#111" transform="rotate(-40 766.37,624)" font-family="sans-serif">2026-03-06</text>
<line x1="901.65" y1="600" x2="901.65" y2="606" stroke="#333" stroke-width="1"/>
<text x="901.65" y="624" text-anchor="end" font-size="11" fill="#111" transform="rotate(-40 901.65,624)" font-family="sans-serif">2026-03-11</text>
<line x1="1036.92" y1="600" x2="1036.92" y2="606" stroke="#333" stroke-width="1"/>
<text x="1036.92" y="624" text-anchor="end" font-size="11" fill="#111" transform="rotate(-40 1036.92,624)" font-family="sans-serif">2026-03-18</text>
<line x1="1172.20" y1="600" x2="1172.20" y2="606" stroke="#333" stroke-width="1"/>
<text x="1172.20" y="624" text-anchor="end" font-size="11" fill="#111" transform="rotate(-40 1172.20,624)" font-family="sans-serif">2026-03-20</text>
<line x1="1180.00" y1="600" x2="1180.00" y2="606" stroke="#333" stroke-width="1"/>
<text x="1180.00" y="624" text-anchor="end" font-size="11" fill="#111" transform="rotate(-40 1180.00,624)" font-family="sans-serif">2026-03-20</text>
<line x1="90" y1="75.88" x2="1180" y2="75.88" stroke="#dc2626" stroke-width="1.5" stroke-dasharray="8,4"/>
<text x="1184" y="79.88" font-size="12" fill="#dc2626" font-family="sans-serif">Goal: 1296</text>
<polyline fill="none" stroke="#2563eb" stroke-width="3" points="90.00,540.55 92.60,538.53 95.20,536.91 97.80,534.49 100.41,534.49 103.01,533.27 105.61,532.46 108.21,532.87 110.81,532.06 113.41,532.46 116.01,532.06 118.62,568.46 121.22,568.46 123.82,566.43 126.42,545.00 129.02,545.00 131.62,544.19 134.22,543.79 136.83,543.79 139.43,543.38 142.03,541.76 144.63,541.36 147.23,540.96 149.83,540.96 152.43,539.34 155.04,539.34 157.64,556.73 160.24,556.73 162.84,555.51 165.44,551.07 168.04,538.93 170.64,538.93 173.25,538.93 175.85,538.12 178.45,536.91 181.05,536.91 183.65,536.51 186.25,536.51 188.85,556.73 191.46,556.73 194.06,556.73 196.66,556.73 199.26,535.29 201.86,535.29 204.46,535.29 207.06,535.29 209.67,534.49 212.27,534.08 214.87,533.68 217.47,532.87 220.07,532.06 222.67,532.06 225.27,531.25 227.88,530.85 230.48,530.44 233.08,530.04 235.68,530.04 238.28,529.23 240.88,529.23 243.48,529.23 246.09,528.42 248.69,528.42 251.29,527.61 253.89,527.21 256.49,526.80 259.09,526.40 261.69,525.18 264.30,523.57 266.90,523.57 269.50,523.16 272.10,522.76 274.70,522.35 277.30,521.54 279.90,519.52 282.51,517.50 285.11,517.50 287.71,517.50 290.31,517.50 292.91,517.50 295.51,517.50 298.11,517.10 300.72,516.69 303.32,515.48 305.92,515.07 308.52,514.67 311.12,513.86 313.72,514.26 316.32,512.24 318.93,511.84 321.53,511.84 324.13,511.03 326.73,509.82 329.33,507.79 331.93,506.99 334.53,506.58 337.14,509.41 339.74,509.01 342.34,504.96 344.94,504.56 347.54,504.15 350.14,504.56 352.74,503.75 355.35,503.75 357.95,503.35 360.55,499.30 363.15,496.47 365.75,490.00 368.35,484.34 370.95,481.10 373.56,480.29 376.16,480.70 378.76,460.88 381.36,459.26 383.96,458.05 386.56,456.03 389.16,456.03 391.77,454.41 394.37,450.77 396.97,444.30 399.57,443.90 402.17,600.00 404.77,441.88 407.37,440.66 409.98,439.45 412.58,439.04 415.18,438.64 417.78,437.83 420.38,436.62 422.98,436.62 425.58,434.60 428.19,432.17 430.79,429.34 433.39,428.93 435.99,428.53 438.59,427.72 441.19,426.91 443.79,426.10 446.40,426.10 449.00,426.10 451.60,419.63 454.20,419.23 456.80,418.42 459.40,418.01 462.00,417.61 464.61,417.61 467.21,417.61 469.81,417.21 472.41,417.21 475.01,413.57 477.61,411.95 480.21,412.76 482.82,410.74 485.42,410.74 488.02,410.33 490.62,410.33 493.22,410.33 495.82,409.93 498.42,409.93 501.03,409.93 503.63,409.52 506.23,409.52 508.83,409.12 511.43,409.52 514.03,409.12 516.63,407.50 519.24,407.10 521.84,403.05 524.44,399.82 527.04,400.22 529.64,400.62 532.24,400.62 534.84,399.41 537.45,392.94 540.05,391.32 542.65,389.30 545.25,389.30 547.85,388.49 550.45,375.15 553.05,374.74 555.66,374.74 558.26,374.74 560.86,374.74 563.46,374.34 566.06,374.34 568.66,374.34 571.26,374.34 573.87,374.34 576.47,373.93 579.07,373.12 581.67,372.72 584.27,373.53 586.87,435.81 589.47,372.32 592.08,372.72 594.68,371.91 597.28,371.91 599.88,372.32 602.48,371.10 605.08,369.89 607.68,369.89 610.29,369.89 612.89,369.49 615.49,369.89 618.09,369.08 620.69,368.68 623.29,368.27 625.89,367.87 628.50,367.06 631.10,367.46 633.70,367.06 636.30,366.25 638.90,368.27 641.50,368.68 644.11,368.68 646.71,368.27 649.31,369.08 651.91,367.87 654.51,367.46 657.11,367.06 659.71,360.18 662.32,359.78 664.92,359.38 667.52,356.95 670.12,357.35 672.72,357.76 675.32,355.33 677.92,355.74 680.53,357.35 683.13,355.33 685.73,356.14 688.33,355.74 690.93,356.14 693.53,354.12 696.13,354.93 698.74,356.14 701.34,354.52 703.94,353.71 706.54,354.12 709.14,354.93 711.74,352.90 714.34,353.71 716.95,353.31 719.55,353.31 722.15,354.52 724.75,352.90 727.35,352.50 729.95,352.50 732.55,353.31 735.16,352.50 737.76,353.71 740.36,354.12 742.96,352.50 745.56,352.90 748.16,352.50 750.76,352.10 753.37,351.69 755.97,352.10 758.57,354.12 761.17,352.50 763.77,352.10 766.37,352.10 768.97,349.67 771.58,349.67 774.18,350.88 776.78,351.29 779.38,350.48 781.98,352.10 784.58,350.48 787.18,350.48 789.79,350.48 792.39,350.07 794.99,348.46 797.59,351.29 800.19,349.67 802.79,351.29 805.39,349.67 808.00,348.86 810.60,348.46 813.20,348.46 815.80,347.24 818.40,348.86 821.00,346.84 823.60,348.46 826.21,348.86 828.81,346.84 831.41,349.26 834.01,348.05 836.61,349.26 839.21,349.26 841.81,350.48 844.42,352.90 847.02,349.67 849.62,348.46 852.22,345.62 854.82,344.82 857.42,344.41 860.02,342.39 862.63,341.18 865.23,341.58 867.83,339.15 870.43,338.35 873.03,337.54 875.63,336.73 878.23,335.92 880.84,337.54 883.44,338.35 886.04,337.54 888.64,337.54 891.24,337.54 893.84,333.09 896.44,333.90 899.05,335.92 901.65,336.73 904.25,335.51 906.85,332.28 909.45,331.47 912.05,331.07 914.65,331.47 917.26,331.07 919.86,331.07 922.46,331.07 925.06,331.07 927.66,331.07 930.26,331.07 932.86,331.07 935.47,331.07 938.07,331.07 940.67,331.07 943.27,331.47 945.87,331.88 948.47,331.07 951.07,331.47 953.68,331.07 956.28,331.47 958.88,331.07 961.48,324.19 964.08,324.19 966.68,318.93 969.28,316.51 971.89,310.44 974.49,308.01 977.09,600.00 979.69,301.54 982.29,290.22 984.89,287.79 987.49,286.18 990.10,285.77 992.70,285.77 995.30,285.77 997.90,286.18 1000.50,285.77 1003.10,285.77 1005.70,285.77 1008.31,283.35 1010.91,282.94 1013.51,282.94 1016.11,283.35 1018.71,282.94 1021.31,282.94 1023.91,283.75 1026.52,282.13 1029.12,282.13 1031.72,282.54 1034.32,282.13 1036.92,282.54 1039.52,282.94 1042.12,281.73 1044.73,282.54 1047.33,281.73 1049.93,282.54 1052.53,282.13 1055.13,282.13 1057.73,281.73 1060.33,281.73 1062.94,281.32 1065.54,281.73 1068.14,282.13 1070.74,281.32 1073.34,281.32 1075.94,282.54 1078.54,282.13 1081.15,281.32 1083.75,281.32 1086.35,281.32 1088.95,282.54 1091.55,282.13 1094.15,281.32 1096.75,282.13 1099.36,281.73 1101.96,282.13 1104.56,280.11 1107.16,280.11 1109.76,280.51 1112.36,279.71 1114.96,280.11 1117.57,280.51 1120.17,279.71 1122.77,280.11 1125.37,280.11 1127.97,279.30 1130.57,278.90 1133.17,278.90 1135.78,280.51 1138.38,279.30 1140.98,278.09 1143.58,278.49 1146.18,278.49 1148.78,277.28 1151.38,277.68 1153.99,277.68 1156.59,278.09 1159.19,277.28 1161.79,600.00 1164.39,278.90 1166.99,279.30 1169.59,278.90 1172.20,278.49 1174.80,278.49 1177.40,278.49 1180.00,278.49"/>
<circle cx="90.00" cy="540.55" r="3.2" fill="#1d4ed8"/>
<circle cx="92.60" cy="538.53" r="3.2" fill="#1d4ed8"/>
<circle cx="95.20" cy="536.91" r="3.2" fill="#1d4ed8"/>
<circle cx="97.80" cy="534.49" r="3.2" fill="#1d4ed8"/>
<circle cx="100.41" cy="534.49" r="3.2" fill="#1d4ed8"/>
<circle cx="103.01" cy="533.27" r="3.2" fill="#1d4ed8"/>
<circle cx="105.61" cy="532.46" r="3.2" fill="#1d4ed8"/>
<circle cx="108.21" cy="532.87" r="3.2" fill="#1d4ed8"/>
<circle cx="110.81" cy="532.06" r="3.2" fill="#1d4ed8"/>
<circle cx="113.41" cy="532.46" r="3.2" fill="#1d4ed8"/>
<circle cx="116.01" cy="532.06" r="3.2" fill="#1d4ed8"/>
<circle cx="118.62" cy="568.46" r="3.2" fill="#1d4ed8"/>
<circle cx="121.22" cy="568.46" r="3.2" fill="#1d4ed8"/>
<circle cx="123.82" cy="566.43" r="3.2" fill="#1d4ed8"/>
<circle cx="126.42" cy="545.00" r="3.2" fill="#1d4ed8"/>
<circle cx="129.02" cy="545.00" r="3.2" fill="#1d4ed8"/>
<circle cx="131.62" cy="544.19" r="3.2" fill="#1d4ed8"/>
<circle cx="134.22" cy="543.79" r="3.2" fill="#1d4ed8"/>
<circle cx="136.83" cy="543.79" r="3.2" fill="#1d4ed8"/>
<circle cx="139.43" cy="543.38" r="3.2" fill="#1d4ed8"/>
<circle cx="142.03" cy="541.76" r="3.2" fill="#1d4ed8"/>
<circle cx="144.63" cy="541.36" r="3.2" fill="#1d4ed8"/>
<circle cx="147.23" cy="540.96" r="3.2" fill="#1d4ed8"/>
<circle cx="149.83" cy="540.96" r="3.2" fill="#1d4ed8"/>
<circle cx="152.43" cy="539.34" r="3.2" fill="#1d4ed8"/>
<circle cx="155.04" cy="539.34" r="3.2" fill="#1d4ed8"/>
<circle cx="157.64" cy="556.73" r="3.2" fill="#1d4ed8"/>
<circle cx="160.24" cy="556.73" r="3.2" fill="#1d4ed8"/>
<circle cx="162.84" cy="555.51" r="3.2" fill="#1d4ed8"/>
<circle cx="165.44" cy="551.07" r="3.2" fill="#1d4ed8"/>
<circle cx="168.04" cy="538.93" r="3.2" fill="#1d4ed8"/>
<circle cx="170.64" cy="538.93" r="3.2" fill="#1d4ed8"/>
<circle cx="173.25" cy="538.93" r="3.2" fill="#1d4ed8"/>
<circle cx="175.85" cy="538.12" r="3.2" fill="#1d4ed8"/>
<circle cx="178.45" cy="536.91" r="3.2" fill="#1d4ed8"/>
<circle cx="181.05" cy="536.91" r="3.2" fill="#1d4ed8"/>
<circle cx="183.65" cy="536.51" r="3.2" fill="#1d4ed8"/>
<circle cx="186.25" cy="536.51" r="3.2" fill="#1d4ed8"/>
<circle cx="188.85" cy="556.73" r="3.2" fill="#1d4ed8"/>
<circle cx="191.46" cy="556.73" r="3.2" fill="#1d4ed8"/>
<circle cx="194.06" cy="556.73" r="3.2" fill="#1d4ed8"/>
<circle cx="196.66" cy="556.73" r="3.2" fill="#1d4ed8"/>
<circle cx="199.26" cy="535.29" r="3.2" fill="#1d4ed8"/>
<circle cx="201.86" cy="535.29" r="3.2" fill="#1d4ed8"/>
<circle cx="204.46" cy="535.29" r="3.2" fill="#1d4ed8"/>
<circle cx="207.06" cy="535.29" r="3.2" fill="#1d4ed8"/>
<circle cx="209.67" cy="534.49" r="3.2" fill="#1d4ed8"/>
<circle cx="212.27" cy="534.08" r="3.2" fill="#1d4ed8"/>
<circle cx="214.87" cy="533.68" r="3.2" fill="#1d4ed8"/>
<circle cx="217.47" cy="532.87" r="3.2" fill="#1d4ed8"/>
<circle cx="220.07" cy="532.06" r="3.2" fill="#1d4ed8"/>
<circle cx="222.67" cy="532.06" r="3.2" fill="#1d4ed8"/>
<circle cx="225.27" cy="531.25" r="3.2" fill="#1d4ed8"/>
<circle cx="227.88" cy="530.85" r="3.2" fill="#1d4ed8"/>
<circle cx="230.48" cy="530.44" r="3.2" fill="#1d4ed8"/>
<circle cx="233.08" cy="530.04" r="3.2" fill="#1d4ed8"/>
<circle cx="235.68" cy="530.04" r="3.2" fill="#1d4ed8"/>
<circle cx="238.28" cy="529.23" r="3.2" fill="#1d4ed8"/>
<circle cx="240.88" cy="529.23" r="3.2" fill="#1d4ed8"/>
<circle cx="243.48" cy="529.23" r="3.2" fill="#1d4ed8"/>
<circle cx="246.09" cy="528.42" r="3.2" fill="#1d4ed8"/>
<circle cx="248.69" cy="528.42" r="3.2" fill="#1d4ed8"/>
<circle cx="251.29" cy="527.61" r="3.2" fill="#1d4ed8"/>
<circle cx="253.89" cy="527.21" r="3.2" fill="#1d4ed8"/>
<circle cx="256.49" cy="526.80" r="3.2" fill="#1d4ed8"/>
<circle cx="259.09" cy="526.40" r="3.2" fill="#1d4ed8"/>
<circle cx="261.69" cy="525.18" r="3.2" fill="#1d4ed8"/>
<circle cx="264.30" cy="523.57" r="3.2" fill="#1d4ed8"/>
<circle cx="266.90" cy="523.57" r="3.2" fill="#1d4ed8"/>
<circle cx="269.50" cy="523.16" r="3.2" fill="#1d4ed8"/>
<circle cx="272.10" cy="522.76" r="3.2" fill="#1d4ed8"/>
<circle cx="274.70" cy="522.35" r="3.2" fill="#1d4ed8"/>
<circle cx="277.30" cy="521.54" r="3.2" fill="#1d4ed8"/>
<circle cx="279.90" cy="519.52" r="3.2" fill="#1d4ed8"/>
<circle cx="282.51" cy="517.50" r="3.2" fill="#1d4ed8"/>
<circle cx="285.11" cy="517.50" r="3.2" fill="#1d4ed8"/>
<circle cx="287.71" cy="517.50" r="3.2" fill="#1d4ed8"/>
<circle cx="290.31" cy="517.50" r="3.2" fill="#1d4ed8"/>
<circle cx="292.91" cy="517.50" r="3.2" fill="#1d4ed8"/>
<circle cx="295.51" cy="517.50" r="3.2" fill="#1d4ed8"/>
<circle cx="298.11" cy="517.10" r="3.2" fill="#1d4ed8"/>
<circle cx="300.72" cy="516.69" r="3.2" fill="#1d4ed8"/>
<circle cx="303.32" cy="515.48" r="3.2" fill="#1d4ed8"/>
<circle cx="305.92" cy="515.07" r="3.2" fill="#1d4ed8"/>
<circle cx="308.52" cy="514.67" r="3.2" fill="#1d4ed8"/>
<circle cx="311.12" cy="513.86" r="3.2" fill="#1d4ed8"/>
<circle cx="313.72" cy="514.26" r="3.2" fill="#1d4ed8"/>
<circle cx="316.32" cy="512.24" r="3.2" fill="#1d4ed8"/>
<circle cx="318.93" cy="511.84" r="3.2" fill="#1d4ed8"/>
<circle cx="321.53" cy="511.84" r="3.2" fill="#1d4ed8"/>
<circle cx="324.13" cy="511.03" r="3.2" fill="#1d4ed8"/>
<circle cx="326.73" cy="509.82" r="3.2" fill="#1d4ed8"/>
<circle cx="329.33" cy="507.79" r="3.2" fill="#1d4ed8"/>
<circle cx="331.93" cy="506.99" r="3.2" fill="#1d4ed8"/>
<circle cx="334.53" cy="506.58" r="3.2" fill="#1d4ed8"/>
<circle cx="337.14" cy="509.41" r="3.2" fill="#1d4ed8"/>
<circle cx="339.74" cy="509.01" r="3.2" fill="#1d4ed8"/>
<circle cx="342.34" cy="504.96" r="3.2" fill="#1d4ed8"/>
<circle cx="344.94" cy="504.56" r="3.2" fill="#1d4ed8"/>
<circle cx="347.54" cy="504.15" r="3.2" fill="#1d4ed8"/>
<circle cx="350.14" cy="504.56" r="3.2" fill="#1d4ed8"/>
<circle cx="352.74" cy="503.75" r="3.2" fill="#1d4ed8"/>
<circle cx="355.35" cy="503.75" r="3.2" fill="#1d4ed8"/>
<circle cx="357.95" cy="503.35" r="3.2" fill="#1d4ed8"/>
<circle cx="360.55" cy="499.30" r="3.2" fill="#1d4ed8"/>
<circle cx="363.15" cy="496.47" r="3.2" fill="#1d4ed8"/>
<circle cx="365.75" cy="490.00" r="3.2" fill="#1d4ed8"/>
<circle cx="368.35" cy="484.34" r="3.2" fill="#1d4ed8"/>
<circle cx="370.95" cy="481.10" r="3.2" fill="#1d4ed8"/>
<circle cx="373.56" cy="480.29" r="3.2" fill="#1d4ed8"/>
<circle cx="376.16" cy="480.70" r="3.2" fill="#1d4ed8"/>
<circle cx="378.76" cy="460.88" r="3.2" fill="#1d4ed8"/>
<circle cx="381.36" cy="459.26" r="3.2" fill="#1d4ed8"/>
<circle cx="383.96" cy="458.05" r="3.2" fill="#1d4ed8"/>
<circle cx="386.56" cy="456.03" r="3.2" fill="#1d4ed8"/>
<circle cx="389.16" cy="456.03" r="3.2" fill="#1d4ed8"/>
<circle cx="391.77" cy="454.41" r="3.2" fill="#1d4ed8"/>
<circle cx="394.37" cy="450.77" r="3.2" fill="#1d4ed8"/>
<circle cx="396.97" cy="444.30" r="3.2" fill="#1d4ed8"/>
<circle cx="399.57" cy="443.90" r="3.2" fill="#1d4ed8"/>
<circle cx="402.17" cy="600.00" r="3.2" fill="#1d4ed8"/>
<circle cx="404.77" cy="441.88" r="3.2" fill="#1d4ed8"/>
<circle cx="407.37" cy="440.66" r="3.2" fill="#1d4ed8"/>
<circle cx="409.98" cy="439.45" r="3.2" fill="#1d4ed8"/>
<circle cx="412.58" cy="439.04" r="3.2" fill="#1d4ed8"/>
<circle cx="415.18" cy="438.64" r="3.2" fill="#1d4ed8"/>
<circle cx="417.78" cy="437.83" r="3.2" fill="#1d4ed8"/>
<circle cx="420.38" cy="436.62" r="3.2" fill="#1d4ed8"/>
<circle cx="422.98" cy="436.62" r="3.2" fill="#1d4ed8"/>
<circle cx="425.58" cy="434.60" r="3.2" fill="#1d4ed8"/>
<circle cx="428.19" cy="432.17" r="3.2" fill="#1d4ed8"/>
<circle cx="430.79" cy="429.34" r="3.2" fill="#1d4ed8"/>
<circle cx="433.39" cy="428.93" r="3.2" fill="#1d4ed8"/>
<circle cx="435.99" cy="428.53" r="3.2" fill="#1d4ed8"/>
<circle cx="438.59" cy="427.72" r="3.2" fill="#1d4ed8"/>
<circle cx="441.19" cy="426.91" r="3.2" fill="#1d4ed8"/>
<circle cx="443.79" cy="426.10" r="3.2" fill="#1d4ed8"/>
<circle cx="446.40" cy="426.10" r="3.2" fill="#1d4ed8"/>
<circle cx="449.00" cy="426.10" r="3.2" fill="#1d4ed8"/>
<circle cx="451.60" cy="419.63" r="3.2" fill="#1d4ed8"/>
<circle cx="454.20" cy="419.23" r="3.2" fill="#1d4ed8"/>
<circle cx="456.80" cy="418.42" r="3.2" fill="#1d4ed8"/>
<circle cx="459.40" cy="418.01" r="3.2" fill="#1d4ed8"/>
<circle cx="462.00" cy="417.61" r="3.2" fill="#1d4ed8"/>
<circle cx="464.61" cy="417.61" r="3.2" fill="#1d4ed8"/>
<circle cx="467.21" cy="417.61" r="3.2" fill="#1d4ed8"/>
<circle cx="469.81" cy="417.21" r="3.2" fill="#1d4ed8"/>
<circle cx="472.41" cy="417.21" r="3.2" fill="#1d4ed8"/>
<circle cx="475.01" cy="413.57" r="3.2" fill="#1d4ed8"/>
<circle cx="477.61" cy="411.95" r="3.2" fill="#1d4ed8"/>
<circle cx="480.21" cy="412.76" r="3.2" fill="#1d4ed8"/>
<circle cx="482.82" cy="410.74" r="3.2" fill="#1d4ed8"/>
<circle cx="485.42" cy="410.74" r="3.2" fill="#1d4ed8"/>
<circle cx="488.02" cy="410.33" r="3.2" fill="#1d4ed8"/>
<circle cx="490.62" cy="410.33" r="3.2" fill="#1d4ed8"/>
<circle cx="493.22" cy="410.33" r="3.2" fill="#1d4ed8"/>
<circle cx="495.82" cy="409.93" r="3.2" fill="#1d4ed8"/>
<circle cx="498.42" cy="409.93" r="3.2" fill="#1d4ed8"/>
<circle cx="501.03" cy="409.93" r="3.2" fill="#1d4ed8"/>
<circle cx="503.63" cy="409.52" r="3.2" fill="#1d4ed8"/>
<circle cx="506.23" cy="409.52" r="3.2" fill="#1d4ed8"/>
<circle cx="508.83" cy="409.12" r="3.2" fill="#1d4ed8"/>
<circle cx="511.43" cy="409.52" r="3.2" fill="#1d4ed8"/>
<circle cx="514.03" cy="409.12" r="3.2" fill="#1d4ed8"/>
<circle cx="516.63" cy="407.50" r="3.2" fill="#1d4ed8"/>
<circle cx="519.24" cy="407.10" r="3.2" fill="#1d4ed8"/>
<circle cx="521.84" cy="403.05" r="3.2" fill="#1d4ed8"/>
<circle cx="524.44" cy="399.82" r="3.2" fill="#1d4ed8"/>
<circle cx="527.04" cy="400.22" r="3.2" fill="#1d4ed8"/>
<circle cx="529.64" cy="400.62" r="3.2" fill="#1d4ed8"/>
<circle cx="532.24" cy="400.62" r="3.2" fill="#1d4ed8"/>
<circle cx="534.84" cy="399.41" r="3.2" fill="#1d4ed8"/>
<circle cx="537.45" cy="392.94" r="3.2" fill="#1d4ed8"/>
<circle cx="540.05" cy="391.32" r="3.2" fill="#1d4ed8"/>
<circle cx="542.65" cy="389.30" r="3.2" fill="#1d4ed8"/>
<circle cx="545.25" cy="389.30" r="3.2" fill="#1d4ed8"/>
<circle cx="547.85" cy="388.49" r="3.2" fill="#1d4ed8"/>
<circle cx="550.45" cy="375.15" r="3.2" fill="#1d4ed8"/>
<circle cx="553.05" cy="374.74" r="3.2" fill="#1d4ed8"/>
<circle cx="555.66" cy="374.74" r="3.2" fill="#1d4ed8"/>
<circle cx="558.26" cy="374.74" r="3.2" fill="#1d4ed8"/>
<circle cx="560.86" cy="374.74" r="3.2" fill="#1d4ed8"/>
<circle cx="563.46" cy="374.34" r="3.2" fill="#1d4ed8"/>
<circle cx="566.06" cy="374.34" r="3.2" fill="#1d4ed8"/>
<circle cx="568.66" cy="374.34" r="3.2" fill="#1d4ed8"/>
<circle cx="571.26" cy="374.34" r="3.2" fill="#1d4ed8"/>
<circle cx="573.87" cy="374.34" r="3.2" fill="#1d4ed8"/>
<circle cx="576.47" cy="373.93" r="3.2" fill="#1d4ed8"/>
<circle cx="579.07" cy="373.12" r="3.2" fill="#1d4ed8"/>
<circle cx="581.67" cy="372.72" r="3.2" fill="#1d4ed8"/>
<circle cx="584.27" cy="373.53" r="3.2" fill="#1d4ed8"/>
<circle cx="586.87" cy="435.81" r="3.2" fill="#1d4ed8"/>
<circle cx="589.47" cy="372.32" r="3.2" fill="#1d4ed8"/>
<circle cx="592.08" cy="372.72" r="3.2" fill="#1d4ed8"/>
<circle cx="594.68" cy="371.91" r="3.2" fill="#1d4ed8"/>
<circle cx="597.28" cy="371.91" r="3.2" fill="#1d4ed8"/>
<circle cx="599.88" cy="372.32" r="3.2" fill="#1d4ed8"/>
<circle cx="602.48" cy="371.10" r="3.2" fill="#1d4ed8"/>
<circle cx="605.08" cy="369.89" r="3.2" fill="#1d4ed8"/>
<circle cx="607.68" cy="369.89" r="3.2" fill="#1d4ed8"/>
<circle cx="610.29" cy="369.89" r="3.2" fill="#1d4ed8"/>
<circle cx="612.89" cy="369.49" r="3.2" fill="#1d4ed8"/>
<circle cx="615.49" cy="369.89" r="3.2" fill="#1d4ed8"/>
<circle cx="618.09" cy="369.08" r="3.2" fill="#1d4ed8"/>
<circle cx="620.69" cy="368.68" r="3.2" fill="#1d4ed8"/>
<circle cx="623.29" cy="368.27" r="3.2" fill="#1d4ed8"/>
<circle cx="625.89" cy="367.87" r="3.2" fill="#1d4ed8"/>
<circle cx="628.50" cy="367.06" r="3.2" fill="#1d4ed8"/>
<circle cx="631.10" cy="367.46" r="3.2" fill="#1d4ed8"/>
<circle cx="633.70" cy="367.06" r="3.2" fill="#1d4ed8"/>
<circle cx="636.30" cy="366.25" r="3.2" fill="#1d4ed8"/>
<circle cx="638.90" cy="368.27" r="3.2" fill="#1d4ed8"/>
<circle cx="641.50" cy="368.68" r="3.2" fill="#1d4ed8"/>
<circle cx="644.11" cy="368.68" r="3.2" fill="#1d4ed8"/>
<circle cx="646.71" cy="368.27" r="3.2" fill="#1d4ed8"/>
<circle cx="649.31" cy="369.08" r="3.2" fill="#1d4ed8"/>
<circle cx="651.91" cy="367.87" r="3.2" fill="#1d4ed8"/>
<circle cx="654.51" cy="367.46" r="3.2" fill="#1d4ed8"/>
<circle cx="657.11" cy="367.06" r="3.2" fill="#1d4ed8"/>
<circle cx="659.71" cy="360.18" r="3.2" fill="#1d4ed8"/>
<circle cx="662.32" cy="359.78" r="3.2" fill="#1d4ed8"/>
<circle cx="664.92" cy="359.38" r="3.2" fill="#1d4ed8"/>
<circle cx="667.52" cy="356.95" r="3.2" fill="#1d4ed8"/>
<circle cx="670.12" cy="357.35" r="3.2" fill="#1d4ed8"/>
<circle cx="672.72" cy="357.76" r="3.2" fill="#1d4ed8"/>
<circle cx="675.32" cy="355.33" r="3.2" fill="#1d4ed8"/>
<circle cx="677.92" cy="355.74" r="3.2" fill="#1d4ed8"/>
<circle cx="680.53" cy="357.35" r="3.2" fill="#1d4ed8"/>
<circle cx="683.13" cy="355.33" r="3.2" fill="#1d4ed8"/>
<circle cx="685.73" cy="356.14" r="3.2" fill="#1d4ed8"/>
<circle cx="688.33" cy="355.74" r="3.2" fill="#1d4ed8"/>
<circle cx="690.93" cy="356.14" r="3.2" fill="#1d4ed8"/>
<circle cx="693.53" cy="354.12" r="3.2" fill="#1d4ed8"/>
<circle cx="696.13" cy="354.93" r="3.2" fill="#1d4ed8"/>
<circle cx="698.74" cy="356.14" r="3.2" fill="#1d4ed8"/>
<circle cx="701.34" cy="354.52" r="3.2" fill="#1d4ed8"/>
<circle cx="703.94" cy="353.71" r="3.2" fill="#1d4ed8"/>
<circle cx="706.54" cy="354.12" r="3.2" fill="#1d4ed8"/>
<circle cx="709.14" cy="354.93" r="3.2" fill="#1d4ed8"/>
<circle cx="711.74" cy="352.90" r="3.2" fill="#1d4ed8"/>
<circle cx="714.34" cy="353.71" r="3.2" fill="#1d4ed8"/>
<circle cx="716.95" cy="353.31" r="3.2" fill="#1d4ed8"/>
<circle cx="719.55" cy="353.31" r="3.2" fill="#1d4ed8"/>
<circle cx="722.15" cy="354.52" r="3.2" fill="#1d4ed8"/>
<circle cx="724.75" cy="352.90" r="3.2" fill="#1d4ed8"/>
<circle cx="727.35" cy="352.50" r="3.2" fill="#1d4ed8"/>
<circle cx="729.95" cy="352.50" r="3.2" fill="#1d4ed8"/>
<circle cx="732.55" cy="353.31" r="3.2" fill="#1d4ed8"/>
<circle cx="735.16" cy="352.50" r="3.2" fill="#1d4ed8"/>
<circle cx="737.76" cy="353.71" r="3.2" fill="#1d4ed8"/>
<circle cx="740.36" cy="354.12" r="3.2" fill="#1d4ed8"/>
<circle cx="742.96" cy="352.50" r="3.2" fill="#1d4ed8"/>
<circle cx="745.56" cy="352.90" r="3.2" fill="#1d4ed8"/>
<circle cx="748.16" cy="352.50" r="3.2" fill="#1d4ed8"/>
<circle cx="750.76" cy="352.10" r="3.2" fill="#1d4ed8"/>
<circle cx="753.37" cy="351.69" r="3.2" fill="#1d4ed8"/>
<circle cx="755.97" cy="352.10" r="3.2" fill="#1d4ed8"/>
<circle cx="758.57" cy="354.12" r="3.2" fill="#1d4ed8"/>
<circle cx="761.17" cy="352.50" r="3.2" fill="#1d4ed8"/>
<circle cx="763.77" cy="352.10" r="3.2" fill="#1d4ed8"/>
<circle cx="766.37" cy="352.10" r="3.2" fill="#1d4ed8"/>
<circle cx="768.97" cy="349.67" r="3.2" fill="#1d4ed8"/>
<circle cx="771.58" cy="349.67" r="3.2" fill="#1d4ed8"/>
<circle cx="774.18" cy="350.88" r="3.2" fill="#1d4ed8"/>
<circle cx="776.78" cy="351.29" r="3.2" fill="#1d4ed8"/>
<circle cx="779.38" cy="350.48" r="3.2" fill="#1d4ed8"/>
<circle cx="781.98" cy="352.10" r="3.2" fill="#1d4ed8"/>
<circle cx="784.58" cy="350.48" r="3.2" fill="#1d4ed8"/>
<circle cx="787.18" cy="350.48" r="3.2" fill="#1d4ed8"/>
<circle cx="789.79" cy="350.48" r="3.2" fill="#1d4ed8"/>
<circle cx="792.39" cy="350.07" r="3.2" fill="#1d4ed8"/>
<circle cx="794.99" cy="348.46" r="3.2" fill="#1d4ed8"/>
<circle cx="797.59" cy="351.29" r="3.2" fill="#1d4ed8"/>
<circle cx="800.19" cy="349.67" r="3.2" fill="#1d4ed8"/>
<circle cx="802.79" cy="351.29" r="3.2" fill="#1d4ed8"/>
<circle cx="805.39" cy="349.67" r="3.2" fill="#1d4ed8"/>
<circle cx="808.00" cy="348.86" r="3.2" fill="#1d4ed8"/>
<circle cx="810.60" cy="348.46" r="3.2" fill="#1d4ed8"/>
<circle cx="813.20" cy="348.46" r="3.2" fill="#1d4ed8"/>
<circle cx="815.80" cy="347.24" r="3.2" fill="#1d4ed8"/>
<circle cx="818.40" cy="348.86" r="3.2" fill="#1d4ed8"/>
<circle cx="821.00" cy="346.84" r="3.2" fill="#1d4ed8"/>
<circle cx="823.60" cy="348.46" r="3.2" fill="#1d4ed8"/>
<circle cx="826.21" cy="348.86" r="3.2" fill="#1d4ed8"/>
<circle cx="828.81" cy="346.84" r="3.2" fill="#1d4ed8"/>
<circle cx="831.41" cy="349.26" r="3.2" fill="#1d4ed8"/>
<circle cx="834.01" cy="348.05" r="3.2" fill="#1d4ed8"/>
<circle cx="836.61" cy="349.26" r="3.2" fill="#1d4ed8"/>
<circle cx="839.21" cy="349.26" r="3.2" fill="#1d4ed8"/>
<circle cx="841.81" cy="350.48" r="3.2" fill="#1d4ed8"/>
<circle cx="844.42" cy="352.90" r="3.2" fill="#1d4ed8"/>
<circle cx="847.02" cy="349.67" r="3.2" fill="#1d4ed8"/>
<circle cx="849.62" cy="348.46" r="3.2" fill="#1d4ed8"/>
<circle cx="852.22" cy="345.62" r="3.2" fill="#1d4ed8"/>
<circle cx="854.82" cy="344.82" r="3.2" fill="#1d4ed8"/>
<circle cx="857.42" cy="344.41" r="3.2" fill="#1d4ed8"/>
<circle cx="860.02" cy="342.39" r="3.2" fill="#1d4ed8"/>
<circle cx="862.63" cy="341.18" r="3.2" fill="#1d4ed8"/>
<circle cx="865.23" cy="341.58" r="3.2" fill="#1d4ed8"/>
<circle cx="867.83" cy="339.15" r="3.2" fill="#1d4ed8"/>
<circle cx="870.43" cy="338.35" r="3.2" fill="#1d4ed8"/>
<circle cx="873.03" cy="337.54" r="3.2" fill="#1d4ed8"/>
<circle cx="875.63" cy="336.73" r="3.2" fill="#1d4ed8"/>
<circle cx="878.23" cy="335.92" r="3.2" fill="#1d4ed8"/>
<circle cx="880.84" cy="337.54" r="3.2" fill="#1d4ed8"/>
<circle cx="883.44" cy="338.35" r="3.2" fill="#1d4ed8"/>
<circle cx="886.04" cy="337.54" r="3.2" fill="#1d4ed8"/>
<circle cx="888.64" cy="337.54" r="3.2" fill="#1d4ed8"/>
<circle cx="891.24" cy="337.54" r="3.2" fill="#1d4ed8"/>
<circle cx="893.84" cy="333.09" r="3.2" fill="#1d4ed8"/>
<circle cx="896.44" cy="333.90" r="3.2" fill="#1d4ed8"/>
<circle cx="899.05" cy="335.92" r="3.2" fill="#1d4ed8"/>
<circle cx="901.65" cy="336.73" r="3.2" fill="#1d4ed8"/>
<circle cx="904.25" cy="335.51" r="3.2" fill="#1d4ed8"/>
<circle cx="906.85" cy="332.28" r="3.2" fill="#1d4ed8"/>
<circle cx="909.45" cy="331.47" r="3.2" fill="#1d4ed8"/>
<circle cx="912.05" cy="331.07" r="3.2" fill="#1d4ed8"/>
<circle cx="914.65" cy="331.47" r="3.2" fill="#1d4ed8"/>
<circle cx="917.26" cy="331.07" r="3.2" fill="#1d4ed8"/>
<circle cx="919.86" cy="331.07" r="3.2" fill="#1d4ed8"/>
<circle cx="922.46" cy="331.07" r="3.2" fill="#1d4ed8"/>
<circle cx="925.06" cy="331.07" r="3.2" fill="#1d4ed8"/>
<circle cx="927.66" cy="331.07" r="3.2" fill="#1d4ed8"/>
<circle cx="930.26" cy="331.07" r="3.2" fill="#1d4ed8"/>
<circle cx="932.86" cy="331.07" r="3.2" fill="#1d4ed8"/>
<circle cx="935.47" cy="331.07" r="3.2" fill="#1d4ed8"/>
<circle cx="938.07" cy="331.07" r="3.2" fill="#1d4ed8"/>
<circle cx="940.67" cy="331.07" r="3.2" fill="#1d4ed8"/>
<circle cx="943.27" cy="331.47" r="3.2" fill="#1d4ed8"/>
<circle cx="945.87" cy="331.88" r="3.2" fill="#1d4ed8"/>
<circle cx="948.47" cy="331.07" r="3.2" fill="#1d4ed8"/>
<circle cx="951.07" cy="331.47" r="3.2" fill="#1d4ed8"/>
<circle cx="953.68" cy="331.07" r="3.2" fill="#1d4ed8"/>
<circle cx="956.28" cy="331.47" r="3.2" fill="#1d4ed8"/>
<circle cx="958.88" cy="331.07" r="3.2" fill="#1d4ed8"/>
<circle cx="961.48" cy="324.19" r="3.2" fill="#1d4ed8"/>
<circle cx="964.08" cy="324.19" r="3.2" fill="#1d4ed8"/>
<circle cx="966.68" cy="318.93" r="3.2" fill="#1d4ed8"/>
<circle cx="969.28" cy="316.51" r="3.2" fill="#1d4ed8"/>
<circle cx="971.89" cy="310.44" r="3.2" fill="#1d4ed8"/>
<circle cx="974.49" cy="308.01" r="3.2" fill="#1d4ed8"/>
<circle cx="977.09" cy="600.00" r="3.2" fill="#1d4ed8"/>
<circle cx="979.69" cy="301.54" r="3.2" fill="#1d4ed8"/>
<circle cx="982.29" cy="290.22" r="3.2" fill="#1d4ed8"/>
<circle cx="984.89" cy="287.79" r="3.2" fill="#1d4ed8"/>
<circle cx="987.49" cy="286.18" r="3.2" fill="#1d4ed8"/>
<circle cx="990.10" cy="285.77" r="3.2" fill="#1d4ed8"/>
<circle cx="992.70" cy="285.77" r="3.2" fill="#1d4ed8"/>
<circle cx="995.30" cy="285.77" r="3.2" fill="#1d4ed8"/>
<circle cx="997.90" cy="286.18" r="3.2" fill="#1d4ed8"/>
<circle cx="1000.50" cy="285.77" r="3.2" fill="#1d4ed8"/>
<circle cx="1003.10" cy="285.77" r="3.2" fill="#1d4ed8"/>
<circle cx="1005.70" cy="285.77" r="3.2" fill="#1d4ed8"/>
<circle cx="1008.31" cy="283.35" r="3.2" fill="#1d4ed8"/>
<circle cx="1010.91" cy="282.94" r="3.2" fill="#1d4ed8"/>
<circle cx="1013.51" cy="282.94" r="3.2" fill="#1d4ed8"/>
<circle cx="1016.11" cy="283.35" r="3.2" fill="#1d4ed8"/>
<circle cx="1018.71" cy="282.94" r="3.2" fill="#1d4ed8"/>
<circle cx="1021.31" cy="282.94" r="3.2" fill="#1d4ed8"/>
<circle cx="1023.91" cy="283.75" r="3.2" fill="#1d4ed8"/>
<circle cx="1026.52" cy="282.13" r="3.2" fill="#1d4ed8"/>
<circle cx="1029.12" cy="282.13" r="3.2" fill="#1d4ed8"/>
<circle cx="1031.72" cy="282.54" r="3.2" fill="#1d4ed8"/>
<circle cx="1034.32" cy="282.13" r="3.2" fill="#1d4ed8"/>
<circle cx="1036.92" cy="282.54" r="3.2" fill="#1d4ed8"/>
<circle cx="1039.52" cy="282.94" r="3.2" fill="#1d4ed8"/>
<circle cx="1042.12" cy="281.73" r="3.2" fill="#1d4ed8"/>
<circle cx="1044.73" cy="282.54" r="3.2" fill="#1d4ed8"/>
<circle cx="1047.33" cy="281.73" r="3.2" fill="#1d4ed8"/>
<circle cx="1049.93" cy="282.54" r="3.2" fill="#1d4ed8"/>
<circle cx="1052.53" cy="282.13" r="3.2" fill="#1d4ed8"/>
<circle cx="1055.13" cy="282.13" r="3.2" fill="#1d4ed8"/>
<circle cx="1057.73" cy="281.73" r="3.2" fill="#1d4ed8"/>
<circle cx="1060.33" cy="281.73" r="3.2" fill="#1d4ed8"/>
<circle cx="1062.94" cy="281.32" r="3.2" fill="#1d4ed8"/>
<circle cx="1065.54" cy="281.73" r="3.2" fill="#1d4ed8"/>
<circle cx="1068.14" cy="282.13" r="3.2" fill="#1d4ed8"/>
<circle cx="1070.74" cy="281.32" r="3.2" fill="#1d4ed8"/>
<circle cx="1073.34" cy="281.32" r="3.2" fill="#1d4ed8"/>
<circle cx="1075.94" cy="282.54" r="3.2" fill="#1d4ed8"/>
<circle cx="1078.54" cy="282.13" r="3.2" fill="#1d4ed8"/>
<circle cx="1081.15" cy="281.32" r="3.2" fill="#1d4ed8"/>
<circle cx="1083.75" cy="281.32" r="3.2" fill="#1d4ed8"/>
<circle cx="1086.35" cy="281.32" r="3.2" fill="#1d4ed8"/>
<circle cx="1088.95" cy="282.54" r="3.2" fill="#1d4ed8"/>
<circle cx="1091.55" cy="282.13" r="3.2" fill="#1d4ed8"/>
<circle cx="1094.15" cy="281.32" r="3.2" fill="#1d4ed8"/>
<circle cx="1096.75" cy="282.13" r="3.2" fill="#1d4ed8"/>
<circle cx="1099.36" cy="281.73" r="3.2" fill="#1d4ed8"/>
<circle cx="1101.96" cy="282.13" r="3.2" fill="#1d4ed8"/>
<circle cx="1104.56" cy="280.11" r="3.2" fill="#1d4ed8"/>
<circle cx="1107.16" cy="280.11" r="3.2" fill="#1d4ed8"/>
<circle cx="1109.76" cy="280.51" r="3.2" fill="#1d4ed8"/>
<circle cx="1112.36" cy="279.71" r="3.2" fill="#1d4ed8"/>
<circle cx="1114.96" cy="280.11" r="3.2" fill="#1d4ed8"/>
<circle cx="1117.57" cy="280.51" r="3.2" fill="#1d4ed8"/>
<circle cx="1120.17" cy="279.71" r="3.2" fill="#1d4ed8"/>
<circle cx="1122.77" cy="280.11" r="3.2" fill="#1d4ed8"/>
<circle cx="1125.37" cy="280.11" r="3.2" fill="#1d4ed8"/>
<circle cx="1127.97" cy="279.30" r="3.2" fill="#1d4ed8"/>
<circle cx="1130.57" cy="278.90" r="3.2" fill="#1d4ed8"/>
<circle cx="1133.17" cy="278.90" r="3.2" fill="#1d4ed8"/>
<circle cx="1135.78" cy="280.51" r="3.2" fill="#1d4ed8"/>
<circle cx="1138.38" cy="279.30" r="3.2" fill="#1d4ed8"/>
<circle cx="1140.98" cy="278.09" r="3.2" fill="#1d4ed8"/>
<circle cx="1143.58" cy="278.49" r="3.2" fill="#1d4ed8"/>
<circle cx="1146.18" cy="278.49" r="3.2" fill="#1d4ed8"/>
<circle cx="1148.78" cy="277.28" r="3.2" fill="#1d4ed8"/>
<circle cx="1151.38" cy="277.68" r="3.2" fill="#1d4ed8"/>
<circle cx="1153.99" cy="277.68" r="3.2" fill="#1d4ed8"/>
<circle cx="1156.59" cy="278.09" r="3.2" fill="#1d4ed8"/>
<circle cx="1159.19" cy="277.28" r="3.2" fill="#1d4ed8"/>
<circle cx="1161.79" cy="600.00" r="3.2" fill="#1d4ed8"/>
<circle cx="1164.39" cy="278.90" r="3.2" fill="#1d4ed8"/>
<circle cx="1166.99" cy="279.30" r="3.2" fill="#1d4ed8"/>
<circle cx="1169.59" cy="278.90" r="3.2" fill="#1d4ed8"/>
<circle cx="1172.20" cy="278.49" r="3.2" fill="#1d4ed8"/>
<circle cx="1174.80" cy="278.49" r="3.2" fill="#1d4ed8"/>
<circle cx="1177.40" cy="278.49" r="3.2" fill="#1d4ed8"/>
<circle cx="1180.00" cy="278.49" r="3.2" fill="#1d4ed8"/>
<text x="635" y="695" text-anchor="middle" font-size="14" fill="#111" font-family="sans-serif">Date</text>
<text x="24" y="325" text-anchor="middle" font-size="14" fill="#111" transform="rotate(-90 24,325)" font-family="sans-serif">Passed files</text>
</svg>
