<?xml version="1.0" encoding="UTF-8"?>
<svg xmlns="http://www.w3.org/2000/svg" width="1280" height="720" viewBox="0 0 1280 720">
<rect width="100%" height="100%" fill="#ffffff"/>
<text x="640" y="30" text-anchor="middle" font-size="22" font-family="sans-serif">Roast passed files history</text>
<line x1="90" y1="600" x2="1240" y2="600" stroke="#333" stroke-width="1.5"/>
<line x1="90" y1="50" x2="90" y2="600" stroke="#333" stroke-width="1.5"/>
<line x1="90" y1="442.13" x2="1240" y2="442.13" stroke="#e5e7eb" stroke-width="1"/>
<text x="78" y="447.13" text-anchor="end" font-size="12" fill="#111" font-family="sans-serif">100</text>
<line x1="90" y1="187.50" x2="1240" y2="187.50" stroke="#e5e7eb" stroke-width="1"/>
<text x="78" y="192.50" text-anchor="end" font-size="12" fill="#111" font-family="sans-serif">150</text>
<line x1="90.00" y1="600" x2="90.00" y2="606" stroke="#333" stroke-width="1"/>
<text x="90.00" y="624" text-anchor="end" font-size="11" fill="#111" transform="rotate(-40 90.00,624)" font-family="sans-serif">2026-02-12</text>
<line x1="217.78" y1="600" x2="217.78" y2="606" stroke="#333" stroke-width="1"/>
<text x="217.78" y="624" text-anchor="end" font-size="11" fill="#111" transform="rotate(-40 217.78,624)" font-family="sans-serif">2026-02-13</text>
<line x1="345.56" y1="600" x2="345.56" y2="606" stroke="#333" stroke-width="1"/>
<text x="345.56" y="624" text-anchor="end" font-size="11" fill="#111" transform="rotate(-40 345.56,624)" font-family="sans-serif">2026-02-13</text>
<line x1="473.33" y1="600" x2="473.33" y2="606" stroke="#333" stroke-width="1"/>
<text x="473.33" y="624" text-anchor="end" font-size="11" fill="#111" transform="rotate(-40 473.33,624)" font-family="sans-serif">2026-02-13</text>
<line x1="601.11" y1="600" x2="601.11" y2="606" stroke="#333" stroke-width="1"/>
<text x="601.11" y="624" text-anchor="end" font-size="11" fill="#111" transform="rotate(-40 601.11,624)" font-family="sans-serif">2026-02-14</text>
<line x1="728.89" y1="600" x2="728.89" y2="606" stroke="#333" stroke-width="1"/>
<text x="728.89" y="624" text-anchor="end" font-size="11" fill="#111" transform="rotate(-40 728.89,624)" font-family="sans-serif">2026-02-14</text>
<line x1="856.67" y1="600" x2="856.67" y2="606" stroke="#333" stroke-width="1"/>
<text x="856.67" y="624" text-anchor="end" font-size="11" fill="#111" transform="rotate(-40 856.67,624)" font-family="sans-serif">2026-02-15</text>
<line x1="984.44" y1="600" x2="984.44" y2="606" stroke="#333" stroke-width="1"/>
<text x="984.44" y="624" text-anchor="end" font-size="11" fill="#111" transform="rotate(-40 984.44,624)" font-family="sans-serif">2026-02-15</text>
<line x1="1112.22" y1="600" x2="1112.22" y2="606" stroke="#333" stroke-width="1"/>
<text x="1112.22" y="624" text-anchor="end" font-size="11" fill="#111" transform="rotate(-40 1112.22,624)" font-family="sans-serif">2026-02-15</text>
<line x1="1240.00" y1="600" x2="1240.00" y2="606" stroke="#333" stroke-width="1"/>
<text x="1240.00" y="624" text-anchor="end" font-size="11" fill="#111" transform="rotate(-40 1240.00,624)" font-family="sans-serif">2026-02-15</text>
<polyline fill="none" stroke="#2563eb" stroke-width="3" points="90.00,202.78 153.89,177.31 217.78,156.94 281.67,126.39 345.56,126.39 409.44,111.11 473.33,100.93 537.22,106.02 601.11,95.83 665.00,100.93 728.89,95.83 792.78,554.17 856.67,554.17 920.56,528.70 984.44,258.80 1048.33,258.80 1112.22,248.61 1176.11,243.52 1240.00,243.52"/>
<circle cx="90.00" cy="202.78" r="3.2" fill="#1d4ed8"/>
<circle cx="153.89" cy="177.31" r="3.2" fill="#1d4ed8"/>
<circle cx="217.78" cy="156.94" r="3.2" fill="#1d4ed8"/>
<circle cx="281.67" cy="126.39" r="3.2" fill="#1d4ed8"/>
<circle cx="345.56" cy="126.39" r="3.2" fill="#1d4ed8"/>
<circle cx="409.44" cy="111.11" r="3.2" fill="#1d4ed8"/>
<circle cx="473.33" cy="100.93" r="3.2" fill="#1d4ed8"/>
<circle cx="537.22" cy="106.02" r="3.2" fill="#1d4ed8"/>
<circle cx="601.11" cy="95.83" r="3.2" fill="#1d4ed8"/>
<circle cx="665.00" cy="100.93" r="3.2" fill="#1d4ed8"/>
<circle cx="728.89" cy="95.83" r="3.2" fill="#1d4ed8"/>
<circle cx="792.78" cy="554.17" r="3.2" fill="#1d4ed8"/>
<circle cx="856.67" cy="554.17" r="3.2" fill="#1d4ed8"/>
<circle cx="920.56" cy="528.70" r="3.2" fill="#1d4ed8"/>
<circle cx="984.44" cy="258.80" r="3.2" fill="#1d4ed8"/>
<circle cx="1048.33" cy="258.80" r="3.2" fill="#1d4ed8"/>
<circle cx="1112.22" cy="248.61" r="3.2" fill="#1d4ed8"/>
<circle cx="1176.11" cy="243.52" r="3.2" fill="#1d4ed8"/>
<circle cx="1240.00" cy="243.52" r="3.2" fill="#1d4ed8"/>
<text x="665" y="695" text-anchor="middle" font-size="14" fill="#111" font-family="sans-serif">Date</text>
<text x="24" y="325" text-anchor="middle" font-size="14" fill="#111" transform="rotate(-90 24,325)" font-family="sans-serif">Passed files</text>
</svg>
