<?xml version="1.0" encoding="UTF-8"?>
<svg xmlns="http://www.w3.org/2000/svg" width="1280" height="720" viewBox="0 0 1280 720">
<rect width="100%" height="100%" fill="#ffffff"/>
<text x="640" y="30" text-anchor="middle" font-size="22" font-family="sans-serif">Roast passed files history</text>
<line x1="90" y1="600" x2="1180" y2="600" stroke="#333" stroke-width="1.5"/>
<line x1="90" y1="50" x2="90" y2="600" stroke="#333" stroke-width="1.5"/>
<line x1="90" y1="600.00" x2="1180" y2="600.00" stroke="#e5e7eb" stroke-width="1"/>
<text x="78" y="605.00" text-anchor="end" font-size="12" fill="#111" font-family="sans-serif">0</text>
<line x1="90" y1="397.79" x2="1180" y2="397.79" stroke="#e5e7eb" stroke-width="1"/>
<text x="78" y="402.79" text-anchor="end" font-size="12" fill="#111" font-family="sans-serif">500</text>
<line x1="90" y1="195.59" x2="1180" y2="195.59" stroke="#e5e7eb" stroke-width="1"/>
<text x="78" y="200.59" text-anchor="end" font-size="12" fill="#111" font-family="sans-serif">1000</text>
<line x1="90.00" y1="600" x2="90.00" y2="606" stroke="#333" stroke-width="1"/>
<text x="90.00" y="624" text-anchor="end" font-size="11" fill="#111" transform="rotate(-40 90.00,624)" font-family="sans-serif">2026-02-12</text>
<line x1="225.16" y1="600" x2="225.16" y2="606" stroke="#333" stroke-width="1"/>
<text x="225.16" y="624" text-anchor="end" font-size="11" fill="#111" transform="rotate(-40 225.16,624)" font-family="sans-serif">2026-02-17</text>
<line x1="360.32" y1="600" x2="360.32" y2="606" stroke="#333" stroke-width="1"/>
<text x="360.32" y="624" text-anchor="end" font-size="11" fill="#111" transform="rotate(-40 360.32,624)" font-family="sans-serif">2026-02-18</text>
<line x1="495.48" y1="600" x2="495.48" y2="606" stroke="#333" stroke-width="1"/>
<text x="495.48" y="624" text-anchor="end" font-size="11" fill="#111" transform="rotate(-40 495.48,624)" font-family="sans-serif">2026-02-22</text>
<line x1="630.64" y1="600" x2="630.64" y2="606" stroke="#333" stroke-width="1"/>
<text x="630.64" y="624" text-anchor="end" font-size="11" fill="#111" transform="rotate(-40 630.64,624)" font-family="sans-serif">2026-02-25</text>
<line x1="765.80" y1="600" x2="765.80" y2="606" stroke="#333" stroke-width="1"/>
<text x="765.80" y="624" text-anchor="end" font-size="11" fill="#111" transform="rotate(-40 765.80,624)" font-family="sans-serif">2026-02-26</text>
<line x1="900.96" y1="600" x2="900.96" y2="606" stroke="#333" stroke-width="1"/>
<text x="900.96" y="624" text-anchor="end" font-size="11" fill="#111" transform="rotate(-40 900.96,624)" font-family="sans-serif">2026-02-28</text>
<line x1="1036.12" y1="600" x2="1036.12" y2="606" stroke="#333" stroke-width="1"/>
<text x="1036.12" y="624" text-anchor="end" font-size="11" fill="#111" transform="rotate(-40 1036.12,624)" font-family="sans-serif">2026-03-04</text>
<line x1="1171.28" y1="600" x2="1171.28" y2="606" stroke="#333" stroke-width="1"/>
<text x="1171.28" y="624" text-anchor="end" font-size="11" fill="#111" transform="rotate(-40 1171.28,624)" font-family="sans-serif">2026-03-06</text>
<line x1="1180.00" y1="600" x2="1180.00" y2="606" stroke="#333" stroke-width="1"/>
<text x="1180.00" y="624" text-anchor="end" font-size="11" fill="#111" transform="rotate(-40 1180.00,624)" font-family="sans-serif">2026-03-06</text>
<line x1="90" y1="75.88" x2="1180" y2="75.88" stroke="#dc2626" stroke-width="1.5" stroke-dasharray="8,4"/>
<text x="1184" y="79.88" font-size="12" fill="#dc2626" font-family="sans-serif">Goal: 1296</text>
<polyline fill="none" stroke="#2563eb" stroke-width="3" points="90.00,540.55 94.36,538.53 98.72,536.91 103.08,534.49 107.44,534.49 111.80,533.27 116.16,532.46 120.52,532.87 124.88,532.06 129.24,532.46 133.60,532.06 137.96,568.46 142.32,568.46 146.68,566.43 151.04,545.00 155.40,545.00 159.76,544.19 164.12,543.79 168.48,543.79 172.84,543.38 177.20,541.76 181.56,541.36 185.92,540.96 190.28,540.96 194.64,539.34 199.00,539.34 203.36,556.73 207.72,556.73 212.08,555.51 216.44,551.07 220.80,538.93 225.16,538.93 229.52,538.93 233.88,538.12 238.24,536.91 242.60,536.91 246.96,536.51 251.32,536.51 255.68,556.73 260.04,556.73 264.40,556.73 268.76,556.73 273.12,535.29 277.48,535.29 281.84,535.29 286.20,535.29 290.56,534.49 294.92,534.08 299.28,533.68 303.64,532.87 308.00,532.06 312.36,532.06 316.72,531.25 321.08,530.85 325.44,530.44 329.80,530.04 334.16,530.04 338.52,529.23 342.88,529.23 347.24,529.23 351.60,528.42 355.96,528.42 360.32,527.61 364.68,527.21 369.04,526.80 373.40,526.40 377.76,525.18 382.12,523.57 386.48,523.57 390.84,523.16 395.20,522.76 399.56,522.35 403.92,521.54 408.28,519.52 412.64,517.50 417.00,517.50 421.36,517.50 425.72,517.50 430.08,517.50 434.44,517.50 438.80,517.10 443.16,516.69 447.52,515.48 451.88,515.07 456.24,514.67 460.60,513.86 464.96,514.26 469.32,512.24 473.68,511.84 478.04,511.84 482.40,511.03 486.76,509.82 491.12,507.79 495.48,506.99 499.84,506.58 504.20,509.41 508.56,509.01 512.92,504.96 517.28,504.56 521.64,504.15 526.00,504.56 530.36,503.75 534.72,503.75 539.08,503.35 543.44,499.30 547.80,496.47 552.16,490.00 556.52,484.34 560.88,481.10 565.24,480.29 569.60,480.70 573.96,460.88 578.32,459.26 582.68,458.05 587.04,456.03 591.40,456.03 595.76,454.41 600.12,450.77 604.48,444.30 608.84,443.90 613.20,600.00 617.56,441.88 621.92,440.66 626.28,439.45 630.64,439.04 635.00,438.64 639.36,437.83 643.72,436.62 648.08,436.62 652.44,434.60 656.80,432.17 661.16,429.34 665.52,428.93 669.88,428.53 674.24,427.72 678.60,426.91 682.96,426.10 687.32,426.10 691.68,426.10 696.04,419.63 700.40,419.23 704.76,418.42 709.12,418.01 713.48,417.61 717.84,417.61 722.20,417.61 726.56,417.21 730.92,417.21 735.28,413.57 739.64,411.95 744.00,412.76 748.36,410.74 752.72,410.74 757.08,410.33 761.44,410.33 765.80,410.33 770.16,409.93 774.52,409.93 778.88,409.93 783.24,409.52 787.60,409.52 791.96,409.12 796.32,409.52 800.68,409.12 805.04,407.50 809.40,407.10 813.76,403.05 818.12,399.82 822.48,400.22 826.84,400.62 831.20,400.62 835.56,399.41 839.92,392.94 844.28,391.32 848.64,389.30 853.00,389.30 857.36,388.49 861.72,375.15 866.08,374.74 870.44,374.74 874.80,374.74 879.16,374.74 883.52,374.34 887.88,374.34 892.24,374.34 896.60,374.34 900.96,374.34 905.32,373.93 909.68,373.12 914.04,372.72 918.40,373.53 922.76,435.81 927.12,372.32 931.48,372.72 935.84,371.91 940.20,371.91 944.56,372.32 948.92,371.10 953.28,369.89 957.64,369.89 962.00,369.89 966.36,369.49 970.72,369.89 975.08,369.08 979.44,368.68 983.80,368.27 988.16,367.87 992.52,367.06 996.88,367.46 1001.24,367.06 1005.60,366.25 1009.96,368.27 1014.32,368.68 1018.68,368.68 1023.04,368.27 1027.40,369.08 1031.76,367.87 1036.12,367.46 1040.48,367.06 1044.84,360.18 1049.20,359.78 1053.56,359.38 1057.92,356.95 1062.28,357.35 1066.64,357.76 1071.00,355.33 1075.36,355.74 1079.72,357.35 1084.08,355.33 1088.44,356.14 1092.80,355.74 1097.16,356.14 1101.52,354.12 1105.88,354.93 1110.24,356.14 1114.60,354.52 1118.96,353.71 1123.32,354.12 1127.68,354.93 1132.04,352.90 1136.40,353.71 1140.76,353.31 1145.12,353.31 1149.48,354.52 1153.84,352.90 1158.20,352.50 1162.56,352.50 1166.92,353.31 1171.28,352.50 1175.64,353.71 1180.00,354.12"/>
<circle cx="90.00" cy="540.55" r="3.2" fill="#1d4ed8"/>
<circle cx="94.36" cy="538.53" r="3.2" fill="#1d4ed8"/>
<circle cx="98.72" cy="536.91" r="3.2" fill="#1d4ed8"/>
<circle cx="103.08" cy="534.49" r="3.2" fill="#1d4ed8"/>
<circle cx="107.44" cy="534.49" r="3.2" fill="#1d4ed8"/>
<circle cx="111.80" cy="533.27" r="3.2" fill="#1d4ed8"/>
<circle cx="116.16" cy="532.46" r="3.2" fill="#1d4ed8"/>
<circle cx="120.52" cy="532.87" r="3.2" fill="#1d4ed8"/>
<circle cx="124.88" cy="532.06" r="3.2" fill="#1d4ed8"/>
<circle cx="129.24" cy="532.46" r="3.2" fill="#1d4ed8"/>
<circle cx="133.60" cy="532.06" r="3.2" fill="#1d4ed8"/>
<circle cx="137.96" cy="568.46" r="3.2" fill="#1d4ed8"/>
<circle cx="142.32" cy="568.46" r="3.2" fill="#1d4ed8"/>
<circle cx="146.68" cy="566.43" r="3.2" fill="#1d4ed8"/>
<circle cx="151.04" cy="545.00" r="3.2" fill="#1d4ed8"/>
<circle cx="155.40" cy="545.00" r="3.2" fill="#1d4ed8"/>
<circle cx="159.76" cy="544.19" r="3.2" fill="#1d4ed8"/>
<circle cx="164.12" cy="543.79" r="3.2" fill="#1d4ed8"/>
<circle cx="168.48" cy="543.79" r="3.2" fill="#1d4ed8"/>
<circle cx="172.84" cy="543.38" r="3.2" fill="#1d4ed8"/>
<circle cx="177.20" cy="541.76" r="3.2" fill="#1d4ed8"/>
<circle cx="181.56" cy="541.36" r="3.2" fill="#1d4ed8"/>
<circle cx="185.92" cy="540.96" r="3.2" fill="#1d4ed8"/>
<circle cx="190.28" cy="540.96" r="3.2" fill="#1d4ed8"/>
<circle cx="194.64" cy="539.34" r="3.2" fill="#1d4ed8"/>
<circle cx="199.00" cy="539.34" r="3.2" fill="#1d4ed8"/>
<circle cx="203.36" cy="556.73" r="3.2" fill="#1d4ed8"/>
<circle cx="207.72" cy="556.73" r="3.2" fill="#1d4ed8"/>
<circle cx="212.08" cy="555.51" r="3.2" fill="#1d4ed8"/>
<circle cx="216.44" cy="551.07" r="3.2" fill="#1d4ed8"/>
<circle cx="220.80" cy="538.93" r="3.2" fill="#1d4ed8"/>
<circle cx="225.16" cy="538.93" r="3.2" fill="#1d4ed8"/>
<circle cx="229.52" cy="538.93" r="3.2" fill="#1d4ed8"/>
<circle cx="233.88" cy="538.12" r="3.2" fill="#1d4ed8"/>
<circle cx="238.24" cy="536.91" r="3.2" fill="#1d4ed8"/>
<circle cx="242.60" cy="536.91" r="3.2" fill="#1d4ed8"/>
<circle cx="246.96" cy="536.51" r="3.2" fill="#1d4ed8"/>
<circle cx="251.32" cy="536.51" r="3.2" fill="#1d4ed8"/>
<circle cx="255.68" cy="556.73" r="3.2" fill="#1d4ed8"/>
<circle cx="260.04" cy="556.73" r="3.2" fill="#1d4ed8"/>
<circle cx="264.40" cy="556.73" r="3.2" fill="#1d4ed8"/>
<circle cx="268.76" cy="556.73" r="3.2" fill="#1d4ed8"/>
<circle cx="273.12" cy="535.29" r="3.2" fill="#1d4ed8"/>
<circle cx="277.48" cy="535.29" r="3.2" fill="#1d4ed8"/>
<circle cx="281.84" cy="535.29" r="3.2" fill="#1d4ed8"/>
<circle cx="286.20" cy="535.29" r="3.2" fill="#1d4ed8"/>
<circle cx="290.56" cy="534.49" r="3.2" fill="#1d4ed8"/>
<circle cx="294.92" cy="534.08" r="3.2" fill="#1d4ed8"/>
<circle cx="299.28" cy="533.68" r="3.2" fill="#1d4ed8"/>
<circle cx="303.64" cy="532.87" r="3.2" fill="#1d4ed8"/>
<circle cx="308.00" cy="532.06" r="3.2" fill="#1d4ed8"/>
<circle cx="312.36" cy="532.06" r="3.2" fill="#1d4ed8"/>
<circle cx="316.72" cy="531.25" r="3.2" fill="#1d4ed8"/>
<circle cx="321.08" cy="530.85" r="3.2" fill="#1d4ed8"/>
<circle cx="325.44" cy="530.44" r="3.2" fill="#1d4ed8"/>
<circle cx="329.80" cy="530.04" r="3.2" fill="#1d4ed8"/>
<circle cx="334.16" cy="530.04" r="3.2" fill="#1d4ed8"/>
<circle cx="338.52" cy="529.23" r="3.2" fill="#1d4ed8"/>
<circle cx="342.88" cy="529.23" r="3.2" fill="#1d4ed8"/>
<circle cx="347.24" cy="529.23" r="3.2" fill="#1d4ed8"/>
<circle cx="351.60" cy="528.42" r="3.2" fill="#1d4ed8"/>
<circle cx="355.96" cy="528.42" r="3.2" fill="#1d4ed8"/>
<circle cx="360.32" cy="527.61" r="3.2" fill="#1d4ed8"/>
<circle cx="364.68" cy="527.21" r="3.2" fill="#1d4ed8"/>
<circle cx="369.04" cy="526.80" r="3.2" fill="#1d4ed8"/>
<circle cx="373.40" cy="526.40" r="3.2" fill="#1d4ed8"/>
<circle cx="377.76" cy="525.18" r="3.2" fill="#1d4ed8"/>
<circle cx="382.12" cy="523.57" r="3.2" fill="#1d4ed8"/>
<circle cx="386.48" cy="523.57" r="3.2" fill="#1d4ed8"/>
<circle cx="390.84" cy="523.16" r="3.2" fill="#1d4ed8"/>
<circle cx="395.20" cy="522.76" r="3.2" fill="#1d4ed8"/>
<circle cx="399.56" cy="522.35" r="3.2" fill="#1d4ed8"/>
<circle cx="403.92" cy="521.54" r="3.2" fill="#1d4ed8"/>
<circle cx="408.28" cy="519.52" r="3.2" fill="#1d4ed8"/>
<circle cx="412.64" cy="517.50" r="3.2" fill="#1d4ed8"/>
<circle cx="417.00" cy="517.50" r="3.2" fill="#1d4ed8"/>
<circle cx="421.36" cy="517.50" r="3.2" fill="#1d4ed8"/>
<circle cx="425.72" cy="517.50" r="3.2" fill="#1d4ed8"/>
<circle cx="430.08" cy="517.50" r="3.2" fill="#1d4ed8"/>
<circle cx="434.44" cy="517.50" r="3.2" fill="#1d4ed8"/>
<circle cx="438.80" cy="517.10" r="3.2" fill="#1d4ed8"/>
<circle cx="443.16" cy="516.69" r="3.2" fill="#1d4ed8"/>
<circle cx="447.52" cy="515.48" r="3.2" fill="#1d4ed8"/>
<circle cx="451.88" cy="515.07" r="3.2" fill="#1d4ed8"/>
<circle cx="456.24" cy="514.67" r="3.2" fill="#1d4ed8"/>
<circle cx="460.60" cy="513.86" r="3.2" fill="#1d4ed8"/>
<circle cx="464.96" cy="514.26" r="3.2" fill="#1d4ed8"/>
<circle cx="469.32" cy="512.24" r="3.2" fill="#1d4ed8"/>
<circle cx="473.68" cy="511.84" r="3.2" fill="#1d4ed8"/>
<circle cx="478.04" cy="511.84" r="3.2" fill="#1d4ed8"/>
<circle cx="482.40" cy="511.03" r="3.2" fill="#1d4ed8"/>
<circle cx="486.76" cy="509.82" r="3.2" fill="#1d4ed8"/>
<circle cx="491.12" cy="507.79" r="3.2" fill="#1d4ed8"/>
<circle cx="495.48" cy="506.99" r="3.2" fill="#1d4ed8"/>
<circle cx="499.84" cy="506.58" r="3.2" fill="#1d4ed8"/>
<circle cx="504.20" cy="509.41" r="3.2" fill="#1d4ed8"/>
<circle cx="508.56" cy="509.01" r="3.2" fill="#1d4ed8"/>
<circle cx="512.92" cy="504.96" r="3.2" fill="#1d4ed8"/>
<circle cx="517.28" cy="504.56" r="3.2" fill="#1d4ed8"/>
<circle cx="521.64" cy="504.15" r="3.2" fill="#1d4ed8"/>
<circle cx="526.00" cy="504.56" r="3.2" fill="#1d4ed8"/>
<circle cx="530.36" cy="503.75" r="3.2" fill="#1d4ed8"/>
<circle cx="534.72" cy="503.75" r="3.2" fill="#1d4ed8"/>
<circle cx="539.08" cy="503.35" r="3.2" fill="#1d4ed8"/>
<circle cx="543.44" cy="499.30" r="3.2" fill="#1d4ed8"/>
<circle cx="547.80" cy="496.47" r="3.2" fill="#1d4ed8"/>
<circle cx="552.16" cy="490.00" r="3.2" fill="#1d4ed8"/>
<circle cx="556.52" cy="484.34" r="3.2" fill="#1d4ed8"/>
<circle cx="560.88" cy="481.10" r="3.2" fill="#1d4ed8"/>
<circle cx="565.24" cy="480.29" r="3.2" fill="#1d4ed8"/>
<circle cx="569.60" cy="480.70" r="3.2" fill="#1d4ed8"/>
<circle cx="573.96" cy="460.88" r="3.2" fill="#1d4ed8"/>
<circle cx="578.32" cy="459.26" r="3.2" fill="#1d4ed8"/>
<circle cx="582.68" cy="458.05" r="3.2" fill="#1d4ed8"/>
<circle cx="587.04" cy="456.03" r="3.2" fill="#1d4ed8"/>
<circle cx="591.40" cy="456.03" r="3.2" fill="#1d4ed8"/>
<circle cx="595.76" cy="454.41" r="3.2" fill="#1d4ed8"/>
<circle cx="600.12" cy="450.77" r="3.2" fill="#1d4ed8"/>
<circle cx="604.48" cy="444.30" r="3.2" fill="#1d4ed8"/>
<circle cx="608.84" cy="443.90" r="3.2" fill="#1d4ed8"/>
<circle cx="613.20" cy="600.00" r="3.2" fill="#1d4ed8"/>
<circle cx="617.56" cy="441.88" r="3.2" fill="#1d4ed8"/>
<circle cx="621.92" cy="440.66" r="3.2" fill="#1d4ed8"/>
<circle cx="626.28" cy="439.45" r="3.2" fill="#1d4ed8"/>
<circle cx="630.64" cy="439.04" r="3.2" fill="#1d4ed8"/>
<circle cx="635.00" cy="438.64" r="3.2" fill="#1d4ed8"/>
<circle cx="639.36" cy="437.83" r="3.2" fill="#1d4ed8"/>
<circle cx="643.72" cy="436.62" r="3.2" fill="#1d4ed8"/>
<circle cx="648.08" cy="436.62" r="3.2" fill="#1d4ed8"/>
<circle cx="652.44" cy="434.60" r="3.2" fill="#1d4ed8"/>
<circle cx="656.80" cy="432.17" r="3.2" fill="#1d4ed8"/>
<circle cx="661.16" cy="429.34" r="3.2" fill="#1d4ed8"/>
<circle cx="665.52" cy="428.93" r="3.2" fill="#1d4ed8"/>
<circle cx="669.88" cy="428.53" r="3.2" fill="#1d4ed8"/>
<circle cx="674.24" cy="427.72" r="3.2" fill="#1d4ed8"/>
<circle cx="678.60" cy="426.91" r="3.2" fill="#1d4ed8"/>
<circle cx="682.96" cy="426.10" r="3.2" fill="#1d4ed8"/>
<circle cx="687.32" cy="426.10" r="3.2" fill="#1d4ed8"/>
<circle cx="691.68" cy="426.10" r="3.2" fill="#1d4ed8"/>
<circle cx="696.04" cy="419.63" r="3.2" fill="#1d4ed8"/>
<circle cx="700.40" cy="419.23" r="3.2" fill="#1d4ed8"/>
<circle cx="704.76" cy="418.42" r="3.2" fill="#1d4ed8"/>
<circle cx="709.12" cy="418.01" r="3.2" fill="#1d4ed8"/>
<circle cx="713.48" cy="417.61" r="3.2" fill="#1d4ed8"/>
<circle cx="717.84" cy="417.61" r="3.2" fill="#1d4ed8"/>
<circle cx="722.20" cy="417.61" r="3.2" fill="#1d4ed8"/>
<circle cx="726.56" cy="417.21" r="3.2" fill="#1d4ed8"/>
<circle cx="730.92" cy="417.21" r="3.2" fill="#1d4ed8"/>
<circle cx="735.28" cy="413.57" r="3.2" fill="#1d4ed8"/>
<circle cx="739.64" cy="411.95" r="3.2" fill="#1d4ed8"/>
<circle cx="744.00" cy="412.76" r="3.2" fill="#1d4ed8"/>
<circle cx="748.36" cy="410.74" r="3.2" fill="#1d4ed8"/>
<circle cx="752.72" cy="410.74" r="3.2" fill="#1d4ed8"/>
<circle cx="757.08" cy="410.33" r="3.2" fill="#1d4ed8"/>
<circle cx="761.44" cy="410.33" r="3.2" fill="#1d4ed8"/>
<circle cx="765.80" cy="410.33" r="3.2" fill="#1d4ed8"/>
<circle cx="770.16" cy="409.93" r="3.2" fill="#1d4ed8"/>
<circle cx="774.52" cy="409.93" r="3.2" fill="#1d4ed8"/>
<circle cx="778.88" cy="409.93" r="3.2" fill="#1d4ed8"/>
<circle cx="783.24" cy="409.52" r="3.2" fill="#1d4ed8"/>
<circle cx="787.60" cy="409.52" r="3.2" fill="#1d4ed8"/>
<circle cx="791.96" cy="409.12" r="3.2" fill="#1d4ed8"/>
<circle cx="796.32" cy="409.52" r="3.2" fill="#1d4ed8"/>
<circle cx="800.68" cy="409.12" r="3.2" fill="#1d4ed8"/>
<circle cx="805.04" cy="407.50" r="3.2" fill="#1d4ed8"/>
<circle cx="809.40" cy="407.10" r="3.2" fill="#1d4ed8"/>
<circle cx="813.76" cy="403.05" r="3.2" fill="#1d4ed8"/>
<circle cx="818.12" cy="399.82" r="3.2" fill="#1d4ed8"/>
<circle cx="822.48" cy="400.22" r="3.2" fill="#1d4ed8"/>
<circle cx="826.84" cy="400.62" r="3.2" fill="#1d4ed8"/>
<circle cx="831.20" cy="400.62" r="3.2" fill="#1d4ed8"/>
<circle cx="835.56" cy="399.41" r="3.2" fill="#1d4ed8"/>
<circle cx="839.92" cy="392.94" r="3.2" fill="#1d4ed8"/>
<circle cx="844.28" cy="391.32" r="3.2" fill="#1d4ed8"/>
<circle cx="848.64" cy="389.30" r="3.2" fill="#1d4ed8"/>
<circle cx="853.00" cy="389.30" r="3.2" fill="#1d4ed8"/>
<circle cx="857.36" cy="388.49" r="3.2" fill="#1d4ed8"/>
<circle cx="861.72" cy="375.15" r="3.2" fill="#1d4ed8"/>
<circle cx="866.08" cy="374.74" r="3.2" fill="#1d4ed8"/>
<circle cx="870.44" cy="374.74" r="3.2" fill="#1d4ed8"/>
<circle cx="874.80" cy="374.74" r="3.2" fill="#1d4ed8"/>
<circle cx="879.16" cy="374.74" r="3.2" fill="#1d4ed8"/>
<circle cx="883.52" cy="374.34" r="3.2" fill="#1d4ed8"/>
<circle cx="887.88" cy="374.34" r="3.2" fill="#1d4ed8"/>
<circle cx="892.24" cy="374.34" r="3.2" fill="#1d4ed8"/>
<circle cx="896.60" cy="374.34" r="3.2" fill="#1d4ed8"/>
<circle cx="900.96" cy="374.34" r="3.2" fill="#1d4ed8"/>
<circle cx="905.32" cy="373.93" r="3.2" fill="#1d4ed8"/>
<circle cx="909.68" cy="373.12" r="3.2" fill="#1d4ed8"/>
<circle cx="914.04" cy="372.72" r="3.2" fill="#1d4ed8"/>
<circle cx="918.40" cy="373.53" r="3.2" fill="#1d4ed8"/>
<circle cx="922.76" cy="435.81" r="3.2" fill="#1d4ed8"/>
<circle cx="927.12" cy="372.32" r="3.2" fill="#1d4ed8"/>
<circle cx="931.48" cy="372.72" r="3.2" fill="#1d4ed8"/>
<circle cx="935.84" cy="371.91" r="3.2" fill="#1d4ed8"/>
<circle cx="940.20" cy="371.91" r="3.2" fill="#1d4ed8"/>
<circle cx="944.56" cy="372.32" r="3.2" fill="#1d4ed8"/>
<circle cx="948.92" cy="371.10" r="3.2" fill="#1d4ed8"/>
<circle cx="953.28" cy="369.89" r="3.2" fill="#1d4ed8"/>
<circle cx="957.64" cy="369.89" r="3.2" fill="#1d4ed8"/>
<circle cx="962.00" cy="369.89" r="3.2" fill="#1d4ed8"/>
<circle cx="966.36" cy="369.49" r="3.2" fill="#1d4ed8"/>
<circle cx="970.72" cy="369.89" r="3.2" fill="#1d4ed8"/>
<circle cx="975.08" cy="369.08" r="3.2" fill="#1d4ed8"/>
<circle cx="979.44" cy="368.68" r="3.2" fill="#1d4ed8"/>
<circle cx="983.80" cy="368.27" r="3.2" fill="#1d4ed8"/>
<circle cx="988.16" cy="367.87" r="3.2" fill="#1d4ed8"/>
<circle cx="992.52" cy="367.06" r="3.2" fill="#1d4ed8"/>
<circle cx="996.88" cy="367.46" r="3.2" fill="#1d4ed8"/>
<circle cx="1001.24" cy="367.06" r="3.2" fill="#1d4ed8"/>
<circle cx="1005.60" cy="366.25" r="3.2" fill="#1d4ed8"/>
<circle cx="1009.96" cy="368.27" r="3.2" fill="#1d4ed8"/>
<circle cx="1014.32" cy="368.68" r="3.2" fill="#1d4ed8"/>
<circle cx="1018.68" cy="368.68" r="3.2" fill="#1d4ed8"/>
<circle cx="1023.04" cy="368.27" r="3.2" fill="#1d4ed8"/>
<circle cx="1027.40" cy="369.08" r="3.2" fill="#1d4ed8"/>
<circle cx="1031.76" cy="367.87" r="3.2" fill="#1d4ed8"/>
<circle cx="1036.12" cy="367.46" r="3.2" fill="#1d4ed8"/>
<circle cx="1040.48" cy="367.06" r="3.2" fill="#1d4ed8"/>
<circle cx="1044.84" cy="360.18" r="3.2" fill="#1d4ed8"/>
<circle cx="1049.20" cy="359.78" r="3.2" fill="#1d4ed8"/>
<circle cx="1053.56" cy="359.38" r="3.2" fill="#1d4ed8"/>
<circle cx="1057.92" cy="356.95" r="3.2" fill="#1d4ed8"/>
<circle cx="1062.28" cy="357.35" r="3.2" fill="#1d4ed8"/>
<circle cx="1066.64" cy="357.76" r="3.2" fill="#1d4ed8"/>
<circle cx="1071.00" cy="355.33" r="3.2" fill="#1d4ed8"/>
<circle cx="1075.36" cy="355.74" r="3.2" fill="#1d4ed8"/>
<circle cx="1079.72" cy="357.35" r="3.2" fill="#1d4ed8"/>
<circle cx="1084.08" cy="355.33" r="3.2" fill="#1d4ed8"/>
<circle cx="1088.44" cy="356.14" r="3.2" fill="#1d4ed8"/>
<circle cx="1092.80" cy="355.74" r="3.2" fill="#1d4ed8"/>
<circle cx="1097.16" cy="356.14" r="3.2" fill="#1d4ed8"/>
<circle cx="1101.52" cy="354.12" r="3.2" fill="#1d4ed8"/>
<circle cx="1105.88" cy="354.93" r="3.2" fill="#1d4ed8"/>
<circle cx="1110.24" cy="356.14" r="3.2" fill="#1d4ed8"/>
<circle cx="1114.60" cy="354.52" r="3.2" fill="#1d4ed8"/>
<circle cx="1118.96" cy="353.71" r="3.2" fill="#1d4ed8"/>
<circle cx="1123.32" cy="354.12" r="3.2" fill="#1d4ed8"/>
<circle cx="1127.68" cy="354.93" r="3.2" fill="#1d4ed8"/>
<circle cx="1132.04" cy="352.90" r="3.2" fill="#1d4ed8"/>
<circle cx="1136.40" cy="353.71" r="3.2" fill="#1d4ed8"/>
<circle cx="1140.76" cy="353.31" r="3.2" fill="#1d4ed8"/>
<circle cx="1145.12" cy="353.31" r="3.2" fill="#1d4ed8"/>
<circle cx="1149.48" cy="354.52" r="3.2" fill="#1d4ed8"/>
<circle cx="1153.84" cy="352.90" r="3.2" fill="#1d4ed8"/>
<circle cx="1158.20" cy="352.50" r="3.2" fill="#1d4ed8"/>
<circle cx="1162.56" cy="352.50" r="3.2" fill="#1d4ed8"/>
<circle cx="1166.92" cy="353.31" r="3.2" fill="#1d4ed8"/>
<circle cx="1171.28" cy="352.50" r="3.2" fill="#1d4ed8"/>
<circle cx="1175.64" cy="353.71" r="3.2" fill="#1d4ed8"/>
<circle cx="1180.00" cy="354.12" r="3.2" fill="#1d4ed8"/>
<text x="635" y="695" text-anchor="middle" font-size="14" fill="#111" font-family="sans-serif">Date</text>
<text x="24" y="325" text-anchor="middle" font-size="14" fill="#111" transform="rotate(-90 24,325)" font-family="sans-serif">Passed files</text>
</svg>
