<?xml version="1.0" encoding="UTF-8"?>
<svg xmlns="http://www.w3.org/2000/svg" width="1280" height="720" viewBox="0 0 1280 720">
<rect width="100%" height="100%" fill="#ffffff"/>
<text x="640" y="30" text-anchor="middle" font-size="22" font-family="sans-serif">Roast passed files history</text>
<line x1="90" y1="600" x2="1180" y2="600" stroke="#333" stroke-width="1.5"/>
<line x1="90" y1="50" x2="90" y2="600" stroke="#333" stroke-width="1.5"/>
<line x1="90" y1="600.00" x2="1180" y2="600.00" stroke="#e5e7eb" stroke-width="1"/>
<text x="78" y="605.00" text-anchor="end" font-size="12" fill="#111" font-family="sans-serif">0</text>
<line x1="90" y1="397.79" x2="1180" y2="397.79" stroke="#e5e7eb" stroke-width="1"/>
<text x="78" y="402.79" text-anchor="end" font-size="12" fill="#111" font-family="sans-serif">500</text>
<line x1="90" y1="195.59" x2="1180" y2="195.59" stroke="#e5e7eb" stroke-width="1"/>
<text x="78" y="200.59" text-anchor="end" font-size="12" fill="#111" font-family="sans-serif">1000</text>
<line x1="90.00" y1="600" x2="90.00" y2="606" stroke="#333" stroke-width="1"/>
<text x="90.00" y="624" text-anchor="end" font-size="11" fill="#111" transform="rotate(-40 90.00,624)" font-family="sans-serif">2026-02-12</text>
<line x1="224.57" y1="600" x2="224.57" y2="606" stroke="#333" stroke-width="1"/>
<text x="224.57" y="624" text-anchor="end" font-size="11" fill="#111" transform="rotate(-40 224.57,624)" font-family="sans-serif">2026-02-18</text>
<line x1="359.14" y1="600" x2="359.14" y2="606" stroke="#333" stroke-width="1"/>
<text x="359.14" y="624" text-anchor="end" font-size="11" fill="#111" transform="rotate(-40 359.14,624)" font-family="sans-serif">2026-02-25</text>
<line x1="493.70" y1="600" x2="493.70" y2="606" stroke="#333" stroke-width="1"/>
<text x="493.70" y="624" text-anchor="end" font-size="11" fill="#111" transform="rotate(-40 493.70,624)" font-family="sans-serif">2026-02-28</text>
<line x1="628.27" y1="600" x2="628.27" y2="606" stroke="#333" stroke-width="1"/>
<text x="628.27" y="624" text-anchor="end" font-size="11" fill="#111" transform="rotate(-40 628.27,624)" font-family="sans-serif">2026-03-06</text>
<line x1="762.84" y1="600" x2="762.84" y2="606" stroke="#333" stroke-width="1"/>
<text x="762.84" y="624" text-anchor="end" font-size="11" fill="#111" transform="rotate(-40 762.84,624)" font-family="sans-serif">2026-03-08</text>
<line x1="897.41" y1="600" x2="897.41" y2="606" stroke="#333" stroke-width="1"/>
<text x="897.41" y="624" text-anchor="end" font-size="11" fill="#111" transform="rotate(-40 897.41,624)" font-family="sans-serif">2026-03-18</text>
<line x1="1031.98" y1="600" x2="1031.98" y2="606" stroke="#333" stroke-width="1"/>
<text x="1031.98" y="624" text-anchor="end" font-size="11" fill="#111" transform="rotate(-40 1031.98,624)" font-family="sans-serif">2026-03-20</text>
<line x1="1166.54" y1="600" x2="1166.54" y2="606" stroke="#333" stroke-width="1"/>
<text x="1166.54" y="624" text-anchor="end" font-size="11" fill="#111" transform="rotate(-40 1166.54,624)" font-family="sans-serif">2026-03-30</text>
<line x1="1180.00" y1="600" x2="1180.00" y2="606" stroke="#333" stroke-width="1"/>
<text x="1180.00" y="624" text-anchor="end" font-size="11" fill="#111" transform="rotate(-40 1180.00,624)" font-family="sans-serif">2026-03-30</text>
<line x1="90" y1="75.88" x2="1180" y2="75.88" stroke="#dc2626" stroke-width="1.5" stroke-dasharray="8,4"/>
<text x="1184" y="79.88" font-size="12" fill="#dc2626" font-family="sans-serif">Goal: 1296</text>
<polyline fill="none" stroke="#2563eb" stroke-width="3" points="90.00,540.55 92.24,538.53 94.49,536.91 96.73,534.49 98.97,534.49 101.21,533.27 103.46,532.46 105.70,532.87 107.94,532.06 110.19,532.46 112.43,532.06 114.67,568.46 116.91,568.46 119.16,566.43 121.40,545.00 123.64,545.00 125.88,544.19 128.13,543.79 130.37,543.79 132.61,543.38 134.86,541.76 137.10,541.36 139.34,540.96 141.58,540.96 143.83,539.34 146.07,539.34 148.31,556.73 150.56,556.73 152.80,555.51 155.04,551.07 157.28,538.93 159.53,538.93 161.77,538.93 164.01,538.12 166.26,536.91 168.50,536.91 170.74,536.51 172.98,536.51 175.23,556.73 177.47,556.73 179.71,556.73 181.95,556.73 184.20,535.29 186.44,535.29 188.68,535.29 190.93,535.29 193.17,534.49 195.41,534.08 197.65,533.68 199.90,532.87 202.14,532.06 204.38,532.06 206.63,531.25 208.87,530.85 211.11,530.44 213.35,530.04 215.60,530.04 217.84,529.23 220.08,529.23 222.33,529.23 224.57,528.42 226.81,528.42 229.05,527.61 231.30,527.21 233.54,526.80 235.78,526.40 238.02,525.18 240.27,523.57 242.51,523.57 244.75,523.16 247.00,522.76 249.24,522.35 251.48,521.54 253.72,519.52 255.97,517.50 258.21,517.50 260.45,517.50 262.70,517.50 264.94,517.50 267.18,517.50 269.42,517.10 271.67,516.69 273.91,515.48 276.15,515.07 278.40,514.67 280.64,513.86 282.88,514.26 285.12,512.24 287.37,511.84 289.61,511.84 291.85,511.03 294.09,509.82 296.34,507.79 298.58,506.99 300.82,506.58 303.07,509.41 305.31,509.01 307.55,504.96 309.79,504.56 312.04,504.15 314.28,504.56 316.52,503.75 318.77,503.75 321.01,503.35 323.25,499.30 325.49,496.47 327.74,490.00 329.98,484.34 332.22,481.10 334.47,480.29 336.71,480.70 338.95,460.88 341.19,459.26 343.44,458.05 345.68,456.03 347.92,456.03 350.16,454.41 352.41,450.77 354.65,444.30 356.89,443.90 359.14,600.00 361.38,441.88 363.62,440.66 365.86,439.45 368.11,439.04 370.35,438.64 372.59,437.83 374.84,436.62 377.08,436.62 379.32,434.60 381.56,432.17 383.81,429.34 386.05,428.93 388.29,428.53 390.53,427.72 392.78,426.91 395.02,426.10 397.26,426.10 399.51,426.10 401.75,419.63 403.99,419.23 406.23,418.42 408.48,418.01 410.72,417.61 412.96,417.61 415.21,417.61 417.45,417.21 419.69,417.21 421.93,413.57 424.18,411.95 426.42,412.76 428.66,410.74 430.91,410.74 433.15,410.33 435.39,410.33 437.63,410.33 439.88,409.93 442.12,409.93 444.36,409.93 446.60,409.52 448.85,409.52 451.09,409.12 453.33,409.52 455.58,409.12 457.82,407.50 460.06,407.10 462.30,403.05 464.55,399.82 466.79,400.22 469.03,400.62 471.28,400.62 473.52,399.41 475.76,392.94 478.00,391.32 480.25,389.30 482.49,389.30 484.73,388.49 486.98,375.15 489.22,374.74 491.46,374.74 493.70,374.74 495.95,374.74 498.19,374.34 500.43,374.34 502.67,374.34 504.92,374.34 507.16,374.34 509.40,373.93 511.65,373.12 513.89,372.72 516.13,373.53 518.37,435.81 520.62,372.32 522.86,372.72 525.10,371.91 527.35,371.91 529.59,372.32 531.83,371.10 534.07,369.89 536.32,369.89 538.56,369.89 540.80,369.49 543.05,369.89 545.29,369.08 547.53,368.68 549.77,368.27 552.02,367.87 554.26,367.06 556.50,367.46 558.74,367.06 560.99,366.25 563.23,368.27 565.47,368.68 567.72,368.68 569.96,368.27 572.20,369.08 574.44,367.87 576.69,367.46 578.93,367.06 581.17,360.18 583.42,359.78 585.66,359.38 587.90,356.95 590.14,357.35 592.39,357.76 594.63,355.33 596.87,355.74 599.12,357.35 601.36,355.33 603.60,356.14 605.84,355.74 608.09,356.14 610.33,354.12 612.57,354.93 614.81,356.14 617.06,354.52 619.30,353.71 621.54,354.12 623.79,354.93 626.03,352.90 628.27,353.71 630.51,353.31 632.76,353.31 635.00,354.52 637.24,352.90 639.49,352.50 641.73,352.50 643.97,353.31 646.21,352.50 648.46,353.71 650.70,354.12 652.94,352.50 655.19,352.90 657.43,352.50 659.67,352.10 661.91,351.69 664.16,352.10 666.40,354.12 668.64,352.50 670.88,352.10 673.13,352.10 675.37,349.67 677.61,349.67 679.86,350.88 682.10,351.29 684.34,350.48 686.58,352.10 688.83,350.48 691.07,350.48 693.31,350.48 695.56,350.07 697.80,348.46 700.04,351.29 702.28,349.67 704.53,351.29 706.77,349.67 709.01,348.86 711.26,348.46 713.50,348.46 715.74,347.24 717.98,348.86 720.23,346.84 722.47,348.46 724.71,348.86 726.95,346.84 729.20,349.26 731.44,348.05 733.68,349.26 735.93,349.26 738.17,350.48 740.41,352.90 742.65,349.67 744.90,348.46 747.14,345.62 749.38,344.82 751.63,344.41 753.87,342.39 756.11,341.18 758.35,341.58 760.60,339.15 762.84,338.35 765.08,337.54 767.33,336.73 769.57,335.92 771.81,337.54 774.05,338.35 776.30,337.54 778.54,337.54 780.78,337.54 783.02,333.09 785.27,333.90 787.51,335.92 789.75,336.73 792.00,335.51 794.24,332.28 796.48,331.47 798.72,331.07 800.97,331.47 803.21,331.07 805.45,331.07 807.70,331.07 809.94,331.07 812.18,331.07 814.42,331.07 816.67,331.07 818.91,331.07 821.15,331.07 823.40,331.07 825.64,331.47 827.88,331.88 830.12,331.07 832.37,331.47 834.61,331.07 836.85,331.47 839.09,331.07 841.34,324.19 843.58,324.19 845.82,318.93 848.07,316.51 850.31,310.44 852.55,308.01 854.79,600.00 857.04,301.54 859.28,290.22 861.52,287.79 863.77,286.18 866.01,285.77 868.25,285.77 870.49,285.77 872.74,286.18 874.98,285.77 877.22,285.77 879.47,285.77 881.71,283.35 883.95,282.94 886.19,282.94 888.44,283.35 890.68,282.94 892.92,282.94 895.16,283.75 897.41,282.13 899.65,282.13 901.89,282.54 904.14,282.13 906.38,282.54 908.62,282.94 910.86,281.73 913.11,282.54 915.35,281.73 917.59,282.54 919.84,282.13 922.08,282.13 924.32,281.73 926.56,281.73 928.81,281.32 931.05,281.73 933.29,282.13 935.53,281.32 937.78,281.32 940.02,282.54 942.26,282.13 944.51,281.32 946.75,281.32 948.99,281.32 951.23,282.54 953.48,282.13 955.72,281.32 957.96,282.13 960.21,281.73 962.45,282.13 964.69,280.11 966.93,280.11 969.18,280.51 971.42,279.71 973.66,280.11 975.91,280.51 978.15,279.71 980.39,280.11 982.63,280.11 984.88,279.30 987.12,278.90 989.36,278.90 991.60,280.51 993.85,279.30 996.09,278.09 998.33,278.49 1000.58,278.49 1002.82,277.28 1005.06,277.68 1007.30,277.68 1009.55,278.09 1011.79,277.28 1014.03,600.00 1016.28,278.90 1018.52,279.30 1020.76,278.90 1023.00,278.49 1025.25,278.49 1027.49,278.49 1029.73,278.49 1031.98,278.49 1034.22,278.49 1036.46,278.49 1038.70,278.49 1040.95,278.49 1043.19,278.49 1045.43,278.49 1047.67,278.49 1049.92,600.00 1052.16,600.00 1054.40,254.63 1056.65,600.00 1058.89,245.74 1061.13,245.74 1063.37,246.14 1065.62,245.74 1067.86,245.74 1070.10,245.74 1072.35,245.74 1074.59,245.74 1076.83,240.07 1079.07,238.05 1081.32,238.05 1083.56,227.13 1085.80,227.13 1088.05,226.32 1090.29,227.54 1092.53,226.73 1094.77,226.32 1097.02,227.13 1099.26,227.13 1101.50,226.73 1103.74,226.32 1105.99,226.73 1108.23,226.73 1110.47,226.73 1112.72,225.11 1114.96,224.71 1117.20,225.11 1119.44,224.30 1121.69,226.32 1123.93,224.30 1126.17,225.51 1128.42,225.51 1130.66,225.51 1132.90,225.92 1135.14,223.09 1137.39,223.49 1139.63,223.09 1141.87,223.09 1144.12,223.90 1146.36,223.49 1148.60,223.49 1150.84,223.09 1153.09,223.09 1155.33,223.49 1157.57,223.09 1159.81,223.09 1162.06,223.49 1164.30,223.49 1166.54,223.09 1168.79,223.09 1171.03,223.49 1173.27,223.09 1175.51,223.09 1177.76,223.09 1180.00,223.49"/>
<circle cx="90.00" cy="540.55" r="3.2" fill="#1d4ed8"/>
<circle cx="92.24" cy="538.53" r="3.2" fill="#1d4ed8"/>
<circle cx="94.49" cy="536.91" r="3.2" fill="#1d4ed8"/>
<circle cx="96.73" cy="534.49" r="3.2" fill="#1d4ed8"/>
<circle cx="98.97" cy="534.49" r="3.2" fill="#1d4ed8"/>
<circle cx="101.21" cy="533.27" r="3.2" fill="#1d4ed8"/>
<circle cx="103.46" cy="532.46" r="3.2" fill="#1d4ed8"/>
<circle cx="105.70" cy="532.87" r="3.2" fill="#1d4ed8"/>
<circle cx="107.94" cy="532.06" r="3.2" fill="#1d4ed8"/>
<circle cx="110.19" cy="532.46" r="3.2" fill="#1d4ed8"/>
<circle cx="112.43" cy="532.06" r="3.2" fill="#1d4ed8"/>
<circle cx="114.67" cy="568.46" r="3.2" fill="#1d4ed8"/>
<circle cx="116.91" cy="568.46" r="3.2" fill="#1d4ed8"/>
<circle cx="119.16" cy="566.43" r="3.2" fill="#1d4ed8"/>
<circle cx="121.40" cy="545.00" r="3.2" fill="#1d4ed8"/>
<circle cx="123.64" cy="545.00" r="3.2" fill="#1d4ed8"/>
<circle cx="125.88" cy="544.19" r="3.2" fill="#1d4ed8"/>
<circle cx="128.13" cy="543.79" r="3.2" fill="#1d4ed8"/>
<circle cx="130.37" cy="543.79" r="3.2" fill="#1d4ed8"/>
<circle cx="132.61" cy="543.38" r="3.2" fill="#1d4ed8"/>
<circle cx="134.86" cy="541.76" r="3.2" fill="#1d4ed8"/>
<circle cx="137.10" cy="541.36" r="3.2" fill="#1d4ed8"/>
<circle cx="139.34" cy="540.96" r="3.2" fill="#1d4ed8"/>
<circle cx="141.58" cy="540.96" r="3.2" fill="#1d4ed8"/>
<circle cx="143.83" cy="539.34" r="3.2" fill="#1d4ed8"/>
<circle cx="146.07" cy="539.34" r="3.2" fill="#1d4ed8"/>
<circle cx="148.31" cy="556.73" r="3.2" fill="#1d4ed8"/>
<circle cx="150.56" cy="556.73" r="3.2" fill="#1d4ed8"/>
<circle cx="152.80" cy="555.51" r="3.2" fill="#1d4ed8"/>
<circle cx="155.04" cy="551.07" r="3.2" fill="#1d4ed8"/>
<circle cx="157.28" cy="538.93" r="3.2" fill="#1d4ed8"/>
<circle cx="159.53" cy="538.93" r="3.2" fill="#1d4ed8"/>
<circle cx="161.77" cy="538.93" r="3.2" fill="#1d4ed8"/>
<circle cx="164.01" cy="538.12" r="3.2" fill="#1d4ed8"/>
<circle cx="166.26" cy="536.91" r="3.2" fill="#1d4ed8"/>
<circle cx="168.50" cy="536.91" r="3.2" fill="#1d4ed8"/>
<circle cx="170.74" cy="536.51" r="3.2" fill="#1d4ed8"/>
<circle cx="172.98" cy="536.51" r="3.2" fill="#1d4ed8"/>
<circle cx="175.23" cy="556.73" r="3.2" fill="#1d4ed8"/>
<circle cx="177.47" cy="556.73" r="3.2" fill="#1d4ed8"/>
<circle cx="179.71" cy="556.73" r="3.2" fill="#1d4ed8"/>
<circle cx="181.95" cy="556.73" r="3.2" fill="#1d4ed8"/>
<circle cx="184.20" cy="535.29" r="3.2" fill="#1d4ed8"/>
<circle cx="186.44" cy="535.29" r="3.2" fill="#1d4ed8"/>
<circle cx="188.68" cy="535.29" r="3.2" fill="#1d4ed8"/>
<circle cx="190.93" cy="535.29" r="3.2" fill="#1d4ed8"/>
<circle cx="193.17" cy="534.49" r="3.2" fill="#1d4ed8"/>
<circle cx="195.41" cy="534.08" r="3.2" fill="#1d4ed8"/>
<circle cx="197.65" cy="533.68" r="3.2" fill="#1d4ed8"/>
<circle cx="199.90" cy="532.87" r="3.2" fill="#1d4ed8"/>
<circle cx="202.14" cy="532.06" r="3.2" fill="#1d4ed8"/>
<circle cx="204.38" cy="532.06" r="3.2" fill="#1d4ed8"/>
<circle cx="206.63" cy="531.25" r="3.2" fill="#1d4ed8"/>
<circle cx="208.87" cy="530.85" r="3.2" fill="#1d4ed8"/>
<circle cx="211.11" cy="530.44" r="3.2" fill="#1d4ed8"/>
<circle cx="213.35" cy="530.04" r="3.2" fill="#1d4ed8"/>
<circle cx="215.60" cy="530.04" r="3.2" fill="#1d4ed8"/>
<circle cx="217.84" cy="529.23" r="3.2" fill="#1d4ed8"/>
<circle cx="220.08" cy="529.23" r="3.2" fill="#1d4ed8"/>
<circle cx="222.33" cy="529.23" r="3.2" fill="#1d4ed8"/>
<circle cx="224.57" cy="528.42" r="3.2" fill="#1d4ed8"/>
<circle cx="226.81" cy="528.42" r="3.2" fill="#1d4ed8"/>
<circle cx="229.05" cy="527.61" r="3.2" fill="#1d4ed8"/>
<circle cx="231.30" cy="527.21" r="3.2" fill="#1d4ed8"/>
<circle cx="233.54" cy="526.80" r="3.2" fill="#1d4ed8"/>
<circle cx="235.78" cy="526.40" r="3.2" fill="#1d4ed8"/>
<circle cx="238.02" cy="525.18" r="3.2" fill="#1d4ed8"/>
<circle cx="240.27" cy="523.57" r="3.2" fill="#1d4ed8"/>
<circle cx="242.51" cy="523.57" r="3.2" fill="#1d4ed8"/>
<circle cx="244.75" cy="523.16" r="3.2" fill="#1d4ed8"/>
<circle cx="247.00" cy="522.76" r="3.2" fill="#1d4ed8"/>
<circle cx="249.24" cy="522.35" r="3.2" fill="#1d4ed8"/>
<circle cx="251.48" cy="521.54" r="3.2" fill="#1d4ed8"/>
<circle cx="253.72" cy="519.52" r="3.2" fill="#1d4ed8"/>
<circle cx="255.97" cy="517.50" r="3.2" fill="#1d4ed8"/>
<circle cx="258.21" cy="517.50" r="3.2" fill="#1d4ed8"/>
<circle cx="260.45" cy="517.50" r="3.2" fill="#1d4ed8"/>
<circle cx="262.70" cy="517.50" r="3.2" fill="#1d4ed8"/>
<circle cx="264.94" cy="517.50" r="3.2" fill="#1d4ed8"/>
<circle cx="267.18" cy="517.50" r="3.2" fill="#1d4ed8"/>
<circle cx="269.42" cy="517.10" r="3.2" fill="#1d4ed8"/>
<circle cx="271.67" cy="516.69" r="3.2" fill="#1d4ed8"/>
<circle cx="273.91" cy="515.48" r="3.2" fill="#1d4ed8"/>
<circle cx="276.15" cy="515.07" r="3.2" fill="#1d4ed8"/>
<circle cx="278.40" cy="514.67" r="3.2" fill="#1d4ed8"/>
<circle cx="280.64" cy="513.86" r="3.2" fill="#1d4ed8"/>
<circle cx="282.88" cy="514.26" r="3.2" fill="#1d4ed8"/>
<circle cx="285.12" cy="512.24" r="3.2" fill="#1d4ed8"/>
<circle cx="287.37" cy="511.84" r="3.2" fill="#1d4ed8"/>
<circle cx="289.61" cy="511.84" r="3.2" fill="#1d4ed8"/>
<circle cx="291.85" cy="511.03" r="3.2" fill="#1d4ed8"/>
<circle cx="294.09" cy="509.82" r="3.2" fill="#1d4ed8"/>
<circle cx="296.34" cy="507.79" r="3.2" fill="#1d4ed8"/>
<circle cx="298.58" cy="506.99" r="3.2" fill="#1d4ed8"/>
<circle cx="300.82" cy="506.58" r="3.2" fill="#1d4ed8"/>
<circle cx="303.07" cy="509.41" r="3.2" fill="#1d4ed8"/>
<circle cx="305.31" cy="509.01" r="3.2" fill="#1d4ed8"/>
<circle cx="307.55" cy="504.96" r="3.2" fill="#1d4ed8"/>
<circle cx="309.79" cy="504.56" r="3.2" fill="#1d4ed8"/>
<circle cx="312.04" cy="504.15" r="3.2" fill="#1d4ed8"/>
<circle cx="314.28" cy="504.56" r="3.2" fill="#1d4ed8"/>
<circle cx="316.52" cy="503.75" r="3.2" fill="#1d4ed8"/>
<circle cx="318.77" cy="503.75" r="3.2" fill="#1d4ed8"/>
<circle cx="321.01" cy="503.35" r="3.2" fill="#1d4ed8"/>
<circle cx="323.25" cy="499.30" r="3.2" fill="#1d4ed8"/>
<circle cx="325.49" cy="496.47" r="3.2" fill="#1d4ed8"/>
<circle cx="327.74" cy="490.00" r="3.2" fill="#1d4ed8"/>
<circle cx="329.98" cy="484.34" r="3.2" fill="#1d4ed8"/>
<circle cx="332.22" cy="481.10" r="3.2" fill="#1d4ed8"/>
<circle cx="334.47" cy="480.29" r="3.2" fill="#1d4ed8"/>
<circle cx="336.71" cy="480.70" r="3.2" fill="#1d4ed8"/>
<circle cx="338.95" cy="460.88" r="3.2" fill="#1d4ed8"/>
<circle cx="341.19" cy="459.26" r="3.2" fill="#1d4ed8"/>
<circle cx="343.44" cy="458.05" r="3.2" fill="#1d4ed8"/>
<circle cx="345.68" cy="456.03" r="3.2" fill="#1d4ed8"/>
<circle cx="347.92" cy="456.03" r="3.2" fill="#1d4ed8"/>
<circle cx="350.16" cy="454.41" r="3.2" fill="#1d4ed8"/>
<circle cx="352.41" cy="450.77" r="3.2" fill="#1d4ed8"/>
<circle cx="354.65" cy="444.30" r="3.2" fill="#1d4ed8"/>
<circle cx="356.89" cy="443.90" r="3.2" fill="#1d4ed8"/>
<circle cx="359.14" cy="600.00" r="3.2" fill="#1d4ed8"/>
<circle cx="361.38" cy="441.88" r="3.2" fill="#1d4ed8"/>
<circle cx="363.62" cy="440.66" r="3.2" fill="#1d4ed8"/>
<circle cx="365.86" cy="439.45" r="3.2" fill="#1d4ed8"/>
<circle cx="368.11" cy="439.04" r="3.2" fill="#1d4ed8"/>
<circle cx="370.35" cy="438.64" r="3.2" fill="#1d4ed8"/>
<circle cx="372.59" cy="437.83" r="3.2" fill="#1d4ed8"/>
<circle cx="374.84" cy="436.62" r="3.2" fill="#1d4ed8"/>
<circle cx="377.08" cy="436.62" r="3.2" fill="#1d4ed8"/>
<circle cx="379.32" cy="434.60" r="3.2" fill="#1d4ed8"/>
<circle cx="381.56" cy="432.17" r="3.2" fill="#1d4ed8"/>
<circle cx="383.81" cy="429.34" r="3.2" fill="#1d4ed8"/>
<circle cx="386.05" cy="428.93" r="3.2" fill="#1d4ed8"/>
<circle cx="388.29" cy="428.53" r="3.2" fill="#1d4ed8"/>
<circle cx="390.53" cy="427.72" r="3.2" fill="#1d4ed8"/>
<circle cx="392.78" cy="426.91" r="3.2" fill="#1d4ed8"/>
<circle cx="395.02" cy="426.10" r="3.2" fill="#1d4ed8"/>
<circle cx="397.26" cy="426.10" r="3.2" fill="#1d4ed8"/>
<circle cx="399.51" cy="426.10" r="3.2" fill="#1d4ed8"/>
<circle cx="401.75" cy="419.63" r="3.2" fill="#1d4ed8"/>
<circle cx="403.99" cy="419.23" r="3.2" fill="#1d4ed8"/>
<circle cx="406.23" cy="418.42" r="3.2" fill="#1d4ed8"/>
<circle cx="408.48" cy="418.01" r="3.2" fill="#1d4ed8"/>
<circle cx="410.72" cy="417.61" r="3.2" fill="#1d4ed8"/>
<circle cx="412.96" cy="417.61" r="3.2" fill="#1d4ed8"/>
<circle cx="415.21" cy="417.61" r="3.2" fill="#1d4ed8"/>
<circle cx="417.45" cy="417.21" r="3.2" fill="#1d4ed8"/>
<circle cx="419.69" cy="417.21" r="3.2" fill="#1d4ed8"/>
<circle cx="421.93" cy="413.57" r="3.2" fill="#1d4ed8"/>
<circle cx="424.18" cy="411.95" r="3.2" fill="#1d4ed8"/>
<circle cx="426.42" cy="412.76" r="3.2" fill="#1d4ed8"/>
<circle cx="428.66" cy="410.74" r="3.2" fill="#1d4ed8"/>
<circle cx="430.91" cy="410.74" r="3.2" fill="#1d4ed8"/>
<circle cx="433.15" cy="410.33" r="3.2" fill="#1d4ed8"/>
<circle cx="435.39" cy="410.33" r="3.2" fill="#1d4ed8"/>
<circle cx="437.63" cy="410.33" r="3.2" fill="#1d4ed8"/>
<circle cx="439.88" cy="409.93" r="3.2" fill="#1d4ed8"/>
<circle cx="442.12" cy="409.93" r="3.2" fill="#1d4ed8"/>
<circle cx="444.36" cy="409.93" r="3.2" fill="#1d4ed8"/>
<circle cx="446.60" cy="409.52" r="3.2" fill="#1d4ed8"/>
<circle cx="448.85" cy="409.52" r="3.2" fill="#1d4ed8"/>
<circle cx="451.09" cy="409.12" r="3.2" fill="#1d4ed8"/>
<circle cx="453.33" cy="409.52" r="3.2" fill="#1d4ed8"/>
<circle cx="455.58" cy="409.12" r="3.2" fill="#1d4ed8"/>
<circle cx="457.82" cy="407.50" r="3.2" fill="#1d4ed8"/>
<circle cx="460.06" cy="407.10" r="3.2" fill="#1d4ed8"/>
<circle cx="462.30" cy="403.05" r="3.2" fill="#1d4ed8"/>
<circle cx="464.55" cy="399.82" r="3.2" fill="#1d4ed8"/>
<circle cx="466.79" cy="400.22" r="3.2" fill="#1d4ed8"/>
<circle cx="469.03" cy="400.62" r="3.2" fill="#1d4ed8"/>
<circle cx="471.28" cy="400.62" r="3.2" fill="#1d4ed8"/>
<circle cx="473.52" cy="399.41" r="3.2" fill="#1d4ed8"/>
<circle cx="475.76" cy="392.94" r="3.2" fill="#1d4ed8"/>
<circle cx="478.00" cy="391.32" r="3.2" fill="#1d4ed8"/>
<circle cx="480.25" cy="389.30" r="3.2" fill="#1d4ed8"/>
<circle cx="482.49" cy="389.30" r="3.2" fill="#1d4ed8"/>
<circle cx="484.73" cy="388.49" r="3.2" fill="#1d4ed8"/>
<circle cx="486.98" cy="375.15" r="3.2" fill="#1d4ed8"/>
<circle cx="489.22" cy="374.74" r="3.2" fill="#1d4ed8"/>
<circle cx="491.46" cy="374.74" r="3.2" fill="#1d4ed8"/>
<circle cx="493.70" cy="374.74" r="3.2" fill="#1d4ed8"/>
<circle cx="495.95" cy="374.74" r="3.2" fill="#1d4ed8"/>
<circle cx="498.19" cy="374.34" r="3.2" fill="#1d4ed8"/>
<circle cx="500.43" cy="374.34" r="3.2" fill="#1d4ed8"/>
<circle cx="502.67" cy="374.34" r="3.2" fill="#1d4ed8"/>
<circle cx="504.92" cy="374.34" r="3.2" fill="#1d4ed8"/>
<circle cx="507.16" cy="374.34" r="3.2" fill="#1d4ed8"/>
<circle cx="509.40" cy="373.93" r="3.2" fill="#1d4ed8"/>
<circle cx="511.65" cy="373.12" r="3.2" fill="#1d4ed8"/>
<circle cx="513.89" cy="372.72" r="3.2" fill="#1d4ed8"/>
<circle cx="516.13" cy="373.53" r="3.2" fill="#1d4ed8"/>
<circle cx="518.37" cy="435.81" r="3.2" fill="#1d4ed8"/>
<circle cx="520.62" cy="372.32" r="3.2" fill="#1d4ed8"/>
<circle cx="522.86" cy="372.72" r="3.2" fill="#1d4ed8"/>
<circle cx="525.10" cy="371.91" r="3.2" fill="#1d4ed8"/>
<circle cx="527.35" cy="371.91" r="3.2" fill="#1d4ed8"/>
<circle cx="529.59" cy="372.32" r="3.2" fill="#1d4ed8"/>
<circle cx="531.83" cy="371.10" r="3.2" fill="#1d4ed8"/>
<circle cx="534.07" cy="369.89" r="3.2" fill="#1d4ed8"/>
<circle cx="536.32" cy="369.89" r="3.2" fill="#1d4ed8"/>
<circle cx="538.56" cy="369.89" r="3.2" fill="#1d4ed8"/>
<circle cx="540.80" cy="369.49" r="3.2" fill="#1d4ed8"/>
<circle cx="543.05" cy="369.89" r="3.2" fill="#1d4ed8"/>
<circle cx="545.29" cy="369.08" r="3.2" fill="#1d4ed8"/>
<circle cx="547.53" cy="368.68" r="3.2" fill="#1d4ed8"/>
<circle cx="549.77" cy="368.27" r="3.2" fill="#1d4ed8"/>
<circle cx="552.02" cy="367.87" r="3.2" fill="#1d4ed8"/>
<circle cx="554.26" cy="367.06" r="3.2" fill="#1d4ed8"/>
<circle cx="556.50" cy="367.46" r="3.2" fill="#1d4ed8"/>
<circle cx="558.74" cy="367.06" r="3.2" fill="#1d4ed8"/>
<circle cx="560.99" cy="366.25" r="3.2" fill="#1d4ed8"/>
<circle cx="563.23" cy="368.27" r="3.2" fill="#1d4ed8"/>
<circle cx="565.47" cy="368.68" r="3.2" fill="#1d4ed8"/>
<circle cx="567.72" cy="368.68" r="3.2" fill="#1d4ed8"/>
<circle cx="569.96" cy="368.27" r="3.2" fill="#1d4ed8"/>
<circle cx="572.20" cy="369.08" r="3.2" fill="#1d4ed8"/>
<circle cx="574.44" cy="367.87" r="3.2" fill="#1d4ed8"/>
<circle cx="576.69" cy="367.46" r="3.2" fill="#1d4ed8"/>
<circle cx="578.93" cy="367.06" r="3.2" fill="#1d4ed8"/>
<circle cx="581.17" cy="360.18" r="3.2" fill="#1d4ed8"/>
<circle cx="583.42" cy="359.78" r="3.2" fill="#1d4ed8"/>
<circle cx="585.66" cy="359.38" r="3.2" fill="#1d4ed8"/>
<circle cx="587.90" cy="356.95" r="3.2" fill="#1d4ed8"/>
<circle cx="590.14" cy="357.35" r="3.2" fill="#1d4ed8"/>
<circle cx="592.39" cy="357.76" r="3.2" fill="#1d4ed8"/>
<circle cx="594.63" cy="355.33" r="3.2" fill="#1d4ed8"/>
<circle cx="596.87" cy="355.74" r="3.2" fill="#1d4ed8"/>
<circle cx="599.12" cy="357.35" r="3.2" fill="#1d4ed8"/>
<circle cx="601.36" cy="355.33" r="3.2" fill="#1d4ed8"/>
<circle cx="603.60" cy="356.14" r="3.2" fill="#1d4ed8"/>
<circle cx="605.84" cy="355.74" r="3.2" fill="#1d4ed8"/>
<circle cx="608.09" cy="356.14" r="3.2" fill="#1d4ed8"/>
<circle cx="610.33" cy="354.12" r="3.2" fill="#1d4ed8"/>
<circle cx="612.57" cy="354.93" r="3.2" fill="#1d4ed8"/>
<circle cx="614.81" cy="356.14" r="3.2" fill="#1d4ed8"/>
<circle cx="617.06" cy="354.52" r="3.2" fill="#1d4ed8"/>
<circle cx="619.30" cy="353.71" r="3.2" fill="#1d4ed8"/>
<circle cx="621.54" cy="354.12" r="3.2" fill="#1d4ed8"/>
<circle cx="623.79" cy="354.93" r="3.2" fill="#1d4ed8"/>
<circle cx="626.03" cy="352.90" r="3.2" fill="#1d4ed8"/>
<circle cx="628.27" cy="353.71" r="3.2" fill="#1d4ed8"/>
<circle cx="630.51" cy="353.31" r="3.2" fill="#1d4ed8"/>
<circle cx="632.76" cy="353.31" r="3.2" fill="#1d4ed8"/>
<circle cx="635.00" cy="354.52" r="3.2" fill="#1d4ed8"/>
<circle cx="637.24" cy="352.90" r="3.2" fill="#1d4ed8"/>
<circle cx="639.49" cy="352.50" r="3.2" fill="#1d4ed8"/>
<circle cx="641.73" cy="352.50" r="3.2" fill="#1d4ed8"/>
<circle cx="643.97" cy="353.31" r="3.2" fill="#1d4ed8"/>
<circle cx="646.21" cy="352.50" r="3.2" fill="#1d4ed8"/>
<circle cx="648.46" cy="353.71" r="3.2" fill="#1d4ed8"/>
<circle cx="650.70" cy="354.12" r="3.2" fill="#1d4ed8"/>
<circle cx="652.94" cy="352.50" r="3.2" fill="#1d4ed8"/>
<circle cx="655.19" cy="352.90" r="3.2" fill="#1d4ed8"/>
<circle cx="657.43" cy="352.50" r="3.2" fill="#1d4ed8"/>
<circle cx="659.67" cy="352.10" r="3.2" fill="#1d4ed8"/>
<circle cx="661.91" cy="351.69" r="3.2" fill="#1d4ed8"/>
<circle cx="664.16" cy="352.10" r="3.2" fill="#1d4ed8"/>
<circle cx="666.40" cy="354.12" r="3.2" fill="#1d4ed8"/>
<circle cx="668.64" cy="352.50" r="3.2" fill="#1d4ed8"/>
<circle cx="670.88" cy="352.10" r="3.2" fill="#1d4ed8"/>
<circle cx="673.13" cy="352.10" r="3.2" fill="#1d4ed8"/>
<circle cx="675.37" cy="349.67" r="3.2" fill="#1d4ed8"/>
<circle cx="677.61" cy="349.67" r="3.2" fill="#1d4ed8"/>
<circle cx="679.86" cy="350.88" r="3.2" fill="#1d4ed8"/>
<circle cx="682.10" cy="351.29" r="3.2" fill="#1d4ed8"/>
<circle cx="684.34" cy="350.48" r="3.2" fill="#1d4ed8"/>
<circle cx="686.58" cy="352.10" r="3.2" fill="#1d4ed8"/>
<circle cx="688.83" cy="350.48" r="3.2" fill="#1d4ed8"/>
<circle cx="691.07" cy="350.48" r="3.2" fill="#1d4ed8"/>
<circle cx="693.31" cy="350.48" r="3.2" fill="#1d4ed8"/>
<circle cx="695.56" cy="350.07" r="3.2" fill="#1d4ed8"/>
<circle cx="697.80" cy="348.46" r="3.2" fill="#1d4ed8"/>
<circle cx="700.04" cy="351.29" r="3.2" fill="#1d4ed8"/>
<circle cx="702.28" cy="349.67" r="3.2" fill="#1d4ed8"/>
<circle cx="704.53" cy="351.29" r="3.2" fill="#1d4ed8"/>
<circle cx="706.77" cy="349.67" r="3.2" fill="#1d4ed8"/>
<circle cx="709.01" cy="348.86" r="3.2" fill="#1d4ed8"/>
<circle cx="711.26" cy="348.46" r="3.2" fill="#1d4ed8"/>
<circle cx="713.50" cy="348.46" r="3.2" fill="#1d4ed8"/>
<circle cx="715.74" cy="347.24" r="3.2" fill="#1d4ed8"/>
<circle cx="717.98" cy="348.86" r="3.2" fill="#1d4ed8"/>
<circle cx="720.23" cy="346.84" r="3.2" fill="#1d4ed8"/>
<circle cx="722.47" cy="348.46" r="3.2" fill="#1d4ed8"/>
<circle cx="724.71" cy="348.86" r="3.2" fill="#1d4ed8"/>
<circle cx="726.95" cy="346.84" r="3.2" fill="#1d4ed8"/>
<circle cx="729.20" cy="349.26" r="3.2" fill="#1d4ed8"/>
<circle cx="731.44" cy="348.05" r="3.2" fill="#1d4ed8"/>
<circle cx="733.68" cy="349.26" r="3.2" fill="#1d4ed8"/>
<circle cx="735.93" cy="349.26" r="3.2" fill="#1d4ed8"/>
<circle cx="738.17" cy="350.48" r="3.2" fill="#1d4ed8"/>
<circle cx="740.41" cy="352.90" r="3.2" fill="#1d4ed8"/>
<circle cx="742.65" cy="349.67" r="3.2" fill="#1d4ed8"/>
<circle cx="744.90" cy="348.46" r="3.2" fill="#1d4ed8"/>
<circle cx="747.14" cy="345.62" r="3.2" fill="#1d4ed8"/>
<circle cx="749.38" cy="344.82" r="3.2" fill="#1d4ed8"/>
<circle cx="751.63" cy="344.41" r="3.2" fill="#1d4ed8"/>
<circle cx="753.87" cy="342.39" r="3.2" fill="#1d4ed8"/>
<circle cx="756.11" cy="341.18" r="3.2" fill="#1d4ed8"/>
<circle cx="758.35" cy="341.58" r="3.2" fill="#1d4ed8"/>
<circle cx="760.60" cy="339.15" r="3.2" fill="#1d4ed8"/>
<circle cx="762.84" cy="338.35" r="3.2" fill="#1d4ed8"/>
<circle cx="765.08" cy="337.54" r="3.2" fill="#1d4ed8"/>
<circle cx="767.33" cy="336.73" r="3.2" fill="#1d4ed8"/>
<circle cx="769.57" cy="335.92" r="3.2" fill="#1d4ed8"/>
<circle cx="771.81" cy="337.54" r="3.2" fill="#1d4ed8"/>
<circle cx="774.05" cy="338.35" r="3.2" fill="#1d4ed8"/>
<circle cx="776.30" cy="337.54" r="3.2" fill="#1d4ed8"/>
<circle cx="778.54" cy="337.54" r="3.2" fill="#1d4ed8"/>
<circle cx="780.78" cy="337.54" r="3.2" fill="#1d4ed8"/>
<circle cx="783.02" cy="333.09" r="3.2" fill="#1d4ed8"/>
<circle cx="785.27" cy="333.90" r="3.2" fill="#1d4ed8"/>
<circle cx="787.51" cy="335.92" r="3.2" fill="#1d4ed8"/>
<circle cx="789.75" cy="336.73" r="3.2" fill="#1d4ed8"/>
<circle cx="792.00" cy="335.51" r="3.2" fill="#1d4ed8"/>
<circle cx="794.24" cy="332.28" r="3.2" fill="#1d4ed8"/>
<circle cx="796.48" cy="331.47" r="3.2" fill="#1d4ed8"/>
<circle cx="798.72" cy="331.07" r="3.2" fill="#1d4ed8"/>
<circle cx="800.97" cy="331.47" r="3.2" fill="#1d4ed8"/>
<circle cx="803.21" cy="331.07" r="3.2" fill="#1d4ed8"/>
<circle cx="805.45" cy="331.07" r="3.2" fill="#1d4ed8"/>
<circle cx="807.70" cy="331.07" r="3.2" fill="#1d4ed8"/>
<circle cx="809.94" cy="331.07" r="3.2" fill="#1d4ed8"/>
<circle cx="812.18" cy="331.07" r="3.2" fill="#1d4ed8"/>
<circle cx="814.42" cy="331.07" r="3.2" fill="#1d4ed8"/>
<circle cx="816.67" cy="331.07" r="3.2" fill="#1d4ed8"/>
<circle cx="818.91" cy="331.07" r="3.2" fill="#1d4ed8"/>
<circle cx="821.15" cy="331.07" r="3.2" fill="#1d4ed8"/>
<circle cx="823.40" cy="331.07" r="3.2" fill="#1d4ed8"/>
<circle cx="825.64" cy="331.47" r="3.2" fill="#1d4ed8"/>
<circle cx="827.88" cy="331.88" r="3.2" fill="#1d4ed8"/>
<circle cx="830.12" cy="331.07" r="3.2" fill="#1d4ed8"/>
<circle cx="832.37" cy="331.47" r="3.2" fill="#1d4ed8"/>
<circle cx="834.61" cy="331.07" r="3.2" fill="#1d4ed8"/>
<circle cx="836.85" cy="331.47" r="3.2" fill="#1d4ed8"/>
<circle cx="839.09" cy="331.07" r="3.2" fill="#1d4ed8"/>
<circle cx="841.34" cy="324.19" r="3.2" fill="#1d4ed8"/>
<circle cx="843.58" cy="324.19" r="3.2" fill="#1d4ed8"/>
<circle cx="845.82" cy="318.93" r="3.2" fill="#1d4ed8"/>
<circle cx="848.07" cy="316.51" r="3.2" fill="#1d4ed8"/>
<circle cx="850.31" cy="310.44" r="3.2" fill="#1d4ed8"/>
<circle cx="852.55" cy="308.01" r="3.2" fill="#1d4ed8"/>
<circle cx="854.79" cy="600.00" r="3.2" fill="#1d4ed8"/>
<circle cx="857.04" cy="301.54" r="3.2" fill="#1d4ed8"/>
<circle cx="859.28" cy="290.22" r="3.2" fill="#1d4ed8"/>
<circle cx="861.52" cy="287.79" r="3.2" fill="#1d4ed8"/>
<circle cx="863.77" cy="286.18" r="3.2" fill="#1d4ed8"/>
<circle cx="866.01" cy="285.77" r="3.2" fill="#1d4ed8"/>
<circle cx="868.25" cy="285.77" r="3.2" fill="#1d4ed8"/>
<circle cx="870.49" cy="285.77" r="3.2" fill="#1d4ed8"/>
<circle cx="872.74" cy="286.18" r="3.2" fill="#1d4ed8"/>
<circle cx="874.98" cy="285.77" r="3.2" fill="#1d4ed8"/>
<circle cx="877.22" cy="285.77" r="3.2" fill="#1d4ed8"/>
<circle cx="879.47" cy="285.77" r="3.2" fill="#1d4ed8"/>
<circle cx="881.71" cy="283.35" r="3.2" fill="#1d4ed8"/>
<circle cx="883.95" cy="282.94" r="3.2" fill="#1d4ed8"/>
<circle cx="886.19" cy="282.94" r="3.2" fill="#1d4ed8"/>
<circle cx="888.44" cy="283.35" r="3.2" fill="#1d4ed8"/>
<circle cx="890.68" cy="282.94" r="3.2" fill="#1d4ed8"/>
<circle cx="892.92" cy="282.94" r="3.2" fill="#1d4ed8"/>
<circle cx="895.16" cy="283.75" r="3.2" fill="#1d4ed8"/>
<circle cx="897.41" cy="282.13" r="3.2" fill="#1d4ed8"/>
<circle cx="899.65" cy="282.13" r="3.2" fill="#1d4ed8"/>
<circle cx="901.89" cy="282.54" r="3.2" fill="#1d4ed8"/>
<circle cx="904.14" cy="282.13" r="3.2" fill="#1d4ed8"/>
<circle cx="906.38" cy="282.54" r="3.2" fill="#1d4ed8"/>
<circle cx="908.62" cy="282.94" r="3.2" fill="#1d4ed8"/>
<circle cx="910.86" cy="281.73" r="3.2" fill="#1d4ed8"/>
<circle cx="913.11" cy="282.54" r="3.2" fill="#1d4ed8"/>
<circle cx="915.35" cy="281.73" r="3.2" fill="#1d4ed8"/>
<circle cx="917.59" cy="282.54" r="3.2" fill="#1d4ed8"/>
<circle cx="919.84" cy="282.13" r="3.2" fill="#1d4ed8"/>
<circle cx="922.08" cy="282.13" r="3.2" fill="#1d4ed8"/>
<circle cx="924.32" cy="281.73" r="3.2" fill="#1d4ed8"/>
<circle cx="926.56" cy="281.73" r="3.2" fill="#1d4ed8"/>
<circle cx="928.81" cy="281.32" r="3.2" fill="#1d4ed8"/>
<circle cx="931.05" cy="281.73" r="3.2" fill="#1d4ed8"/>
<circle cx="933.29" cy="282.13" r="3.2" fill="#1d4ed8"/>
<circle cx="935.53" cy="281.32" r="3.2" fill="#1d4ed8"/>
<circle cx="937.78" cy="281.32" r="3.2" fill="#1d4ed8"/>
<circle cx="940.02" cy="282.54" r="3.2" fill="#1d4ed8"/>
<circle cx="942.26" cy="282.13" r="3.2" fill="#1d4ed8"/>
<circle cx="944.51" cy="281.32" r="3.2" fill="#1d4ed8"/>
<circle cx="946.75" cy="281.32" r="3.2" fill="#1d4ed8"/>
<circle cx="948.99" cy="281.32" r="3.2" fill="#1d4ed8"/>
<circle cx="951.23" cy="282.54" r="3.2" fill="#1d4ed8"/>
<circle cx="953.48" cy="282.13" r="3.2" fill="#1d4ed8"/>
<circle cx="955.72" cy="281.32" r="3.2" fill="#1d4ed8"/>
<circle cx="957.96" cy="282.13" r="3.2" fill="#1d4ed8"/>
<circle cx="960.21" cy="281.73" r="3.2" fill="#1d4ed8"/>
<circle cx="962.45" cy="282.13" r="3.2" fill="#1d4ed8"/>
<circle cx="964.69" cy="280.11" r="3.2" fill="#1d4ed8"/>
<circle cx="966.93" cy="280.11" r="3.2" fill="#1d4ed8"/>
<circle cx="969.18" cy="280.51" r="3.2" fill="#1d4ed8"/>
<circle cx="971.42" cy="279.71" r="3.2" fill="#1d4ed8"/>
<circle cx="973.66" cy="280.11" r="3.2" fill="#1d4ed8"/>
<circle cx="975.91" cy="280.51" r="3.2" fill="#1d4ed8"/>
<circle cx="978.15" cy="279.71" r="3.2" fill="#1d4ed8"/>
<circle cx="980.39" cy="280.11" r="3.2" fill="#1d4ed8"/>
<circle cx="982.63" cy="280.11" r="3.2" fill="#1d4ed8"/>
<circle cx="984.88" cy="279.30" r="3.2" fill="#1d4ed8"/>
<circle cx="987.12" cy="278.90" r="3.2" fill="#1d4ed8"/>
<circle cx="989.36" cy="278.90" r="3.2" fill="#1d4ed8"/>
<circle cx="991.60" cy="280.51" r="3.2" fill="#1d4ed8"/>
<circle cx="993.85" cy="279.30" r="3.2" fill="#1d4ed8"/>
<circle cx="996.09" cy="278.09" r="3.2" fill="#1d4ed8"/>
<circle cx="998.33" cy="278.49" r="3.2" fill="#1d4ed8"/>
<circle cx="1000.58" cy="278.49" r="3.2" fill="#1d4ed8"/>
<circle cx="1002.82" cy="277.28" r="3.2" fill="#1d4ed8"/>
<circle cx="1005.06" cy="277.68" r="3.2" fill="#1d4ed8"/>
<circle cx="1007.30" cy="277.68" r="3.2" fill="#1d4ed8"/>
<circle cx="1009.55" cy="278.09" r="3.2" fill="#1d4ed8"/>
<circle cx="1011.79" cy="277.28" r="3.2" fill="#1d4ed8"/>
<circle cx="1014.03" cy="600.00" r="3.2" fill="#1d4ed8"/>
<circle cx="1016.28" cy="278.90" r="3.2" fill="#1d4ed8"/>
<circle cx="1018.52" cy="279.30" r="3.2" fill="#1d4ed8"/>
<circle cx="1020.76" cy="278.90" r="3.2" fill="#1d4ed8"/>
<circle cx="1023.00" cy="278.49" r="3.2" fill="#1d4ed8"/>
<circle cx="1025.25" cy="278.49" r="3.2" fill="#1d4ed8"/>
<circle cx="1027.49" cy="278.49" r="3.2" fill="#1d4ed8"/>
<circle cx="1029.73" cy="278.49" r="3.2" fill="#1d4ed8"/>
<circle cx="1031.98" cy="278.49" r="3.2" fill="#1d4ed8"/>
<circle cx="1034.22" cy="278.49" r="3.2" fill="#1d4ed8"/>
<circle cx="1036.46" cy="278.49" r="3.2" fill="#1d4ed8"/>
<circle cx="1038.70" cy="278.49" r="3.2" fill="#1d4ed8"/>
<circle cx="1040.95" cy="278.49" r="3.2" fill="#1d4ed8"/>
<circle cx="1043.19" cy="278.49" r="3.2" fill="#1d4ed8"/>
<circle cx="1045.43" cy="278.49" r="3.2" fill="#1d4ed8"/>
<circle cx="1047.67" cy="278.49" r="3.2" fill="#1d4ed8"/>
<circle cx="1049.92" cy="600.00" r="3.2" fill="#1d4ed8"/>
<circle cx="1052.16" cy="600.00" r="3.2" fill="#1d4ed8"/>
<circle cx="1054.40" cy="254.63" r="3.2" fill="#1d4ed8"/>
<circle cx="1056.65" cy="600.00" r="3.2" fill="#1d4ed8"/>
<circle cx="1058.89" cy="245.74" r="3.2" fill="#1d4ed8"/>
<circle cx="1061.13" cy="245.74" r="3.2" fill="#1d4ed8"/>
<circle cx="1063.37" cy="246.14" r="3.2" fill="#1d4ed8"/>
<circle cx="1065.62" cy="245.74" r="3.2" fill="#1d4ed8"/>
<circle cx="1067.86" cy="245.74" r="3.2" fill="#1d4ed8"/>
<circle cx="1070.10" cy="245.74" r="3.2" fill="#1d4ed8"/>
<circle cx="1072.35" cy="245.74" r="3.2" fill="#1d4ed8"/>
<circle cx="1074.59" cy="245.74" r="3.2" fill="#1d4ed8"/>
<circle cx="1076.83" cy="240.07" r="3.2" fill="#1d4ed8"/>
<circle cx="1079.07" cy="238.05" r="3.2" fill="#1d4ed8"/>
<circle cx="1081.32" cy="238.05" r="3.2" fill="#1d4ed8"/>
<circle cx="1083.56" cy="227.13" r="3.2" fill="#1d4ed8"/>
<circle cx="1085.80" cy="227.13" r="3.2" fill="#1d4ed8"/>
<circle cx="1088.05" cy="226.32" r="3.2" fill="#1d4ed8"/>
<circle cx="1090.29" cy="227.54" r="3.2" fill="#1d4ed8"/>
<circle cx="1092.53" cy="226.73" r="3.2" fill="#1d4ed8"/>
<circle cx="1094.77" cy="226.32" r="3.2" fill="#1d4ed8"/>
<circle cx="1097.02" cy="227.13" r="3.2" fill="#1d4ed8"/>
<circle cx="1099.26" cy="227.13" r="3.2" fill="#1d4ed8"/>
<circle cx="1101.50" cy="226.73" r="3.2" fill="#1d4ed8"/>
<circle cx="1103.74" cy="226.32" r="3.2" fill="#1d4ed8"/>
<circle cx="1105.99" cy="226.73" r="3.2" fill="#1d4ed8"/>
<circle cx="1108.23" cy="226.73" r="3.2" fill="#1d4ed8"/>
<circle cx="1110.47" cy="226.73" r="3.2" fill="#1d4ed8"/>
<circle cx="1112.72" cy="225.11" r="3.2" fill="#1d4ed8"/>
<circle cx="1114.96" cy="224.71" r="3.2" fill="#1d4ed8"/>
<circle cx="1117.20" cy="225.11" r="3.2" fill="#1d4ed8"/>
<circle cx="1119.44" cy="224.30" r="3.2" fill="#1d4ed8"/>
<circle cx="1121.69" cy="226.32" r="3.2" fill="#1d4ed8"/>
<circle cx="1123.93" cy="224.30" r="3.2" fill="#1d4ed8"/>
<circle cx="1126.17" cy="225.51" r="3.2" fill="#1d4ed8"/>
<circle cx="1128.42" cy="225.51" r="3.2" fill="#1d4ed8"/>
<circle cx="1130.66" cy="225.51" r="3.2" fill="#1d4ed8"/>
<circle cx="1132.90" cy="225.92" r="3.2" fill="#1d4ed8"/>
<circle cx="1135.14" cy="223.09" r="3.2" fill="#1d4ed8"/>
<circle cx="1137.39" cy="223.49" r="3.2" fill="#1d4ed8"/>
<circle cx="1139.63" cy="223.09" r="3.2" fill="#1d4ed8"/>
<circle cx="1141.87" cy="223.09" r="3.2" fill="#1d4ed8"/>
<circle cx="1144.12" cy="223.90" r="3.2" fill="#1d4ed8"/>
<circle cx="1146.36" cy="223.49" r="3.2" fill="#1d4ed8"/>
<circle cx="1148.60" cy="223.49" r="3.2" fill="#1d4ed8"/>
<circle cx="1150.84" cy="223.09" r="3.2" fill="#1d4ed8"/>
<circle cx="1153.09" cy="223.09" r="3.2" fill="#1d4ed8"/>
<circle cx="1155.33" cy="223.49" r="3.2" fill="#1d4ed8"/>
<circle cx="1157.57" cy="223.09" r="3.2" fill="#1d4ed8"/>
<circle cx="1159.81" cy="223.09" r="3.2" fill="#1d4ed8"/>
<circle cx="1162.06" cy="223.49" r="3.2" fill="#1d4ed8"/>
<circle cx="1164.30" cy="223.49" r="3.2" fill="#1d4ed8"/>
<circle cx="1166.54" cy="223.09" r="3.2" fill="#1d4ed8"/>
<circle cx="1168.79" cy="223.09" r="3.2" fill="#1d4ed8"/>
<circle cx="1171.03" cy="223.49" r="3.2" fill="#1d4ed8"/>
<circle cx="1173.27" cy="223.09" r="3.2" fill="#1d4ed8"/>
<circle cx="1175.51" cy="223.09" r="3.2" fill="#1d4ed8"/>
<circle cx="1177.76" cy="223.09" r="3.2" fill="#1d4ed8"/>
<circle cx="1180.00" cy="223.49" r="3.2" fill="#1d4ed8"/>
<text x="635" y="695" text-anchor="middle" font-size="14" fill="#111" font-family="sans-serif">Date</text>
<text x="24" y="325" text-anchor="middle" font-size="14" fill="#111" transform="rotate(-90 24,325)" font-family="sans-serif">Passed files</text>
</svg>
