<?xml version="1.0" encoding="UTF-8"?>
<svg xmlns="http://www.w3.org/2000/svg" width="1280" height="720" viewBox="0 0 1280 720">
<rect width="100%" height="100%" fill="#ffffff"/>
<text x="640" y="30" text-anchor="middle" font-size="22" font-family="sans-serif">Roast passed files history</text>
<line x1="90" y1="600" x2="1180" y2="600" stroke="#333" stroke-width="1.5"/>
<line x1="90" y1="50" x2="90" y2="600" stroke="#333" stroke-width="1.5"/>
<line x1="90" y1="600.00" x2="1180" y2="600.00" stroke="#e5e7eb" stroke-width="1"/>
<text x="78" y="605.00" text-anchor="end" font-size="12" fill="#111" font-family="sans-serif">0</text>
<line x1="90" y1="397.79" x2="1180" y2="397.79" stroke="#e5e7eb" stroke-width="1"/>
<text x="78" y="402.79" text-anchor="end" font-size="12" fill="#111" font-family="sans-serif">500</text>
<line x1="90" y1="195.59" x2="1180" y2="195.59" stroke="#e5e7eb" stroke-width="1"/>
<text x="78" y="200.59" text-anchor="end" font-size="12" fill="#111" font-family="sans-serif">1000</text>
<line x1="90.00" y1="600" x2="90.00" y2="606" stroke="#333" stroke-width="1"/>
<text x="90.00" y="624" text-anchor="end" font-size="11" fill="#111" transform="rotate(-40 90.00,624)" font-family="sans-serif">2026-02-12</text>
<line x1="225.12" y1="600" x2="225.12" y2="606" stroke="#333" stroke-width="1"/>
<text x="225.12" y="624" text-anchor="end" font-size="11" fill="#111" transform="rotate(-40 225.12,624)" font-family="sans-serif">2026-02-17</text>
<line x1="360.25" y1="600" x2="360.25" y2="606" stroke="#333" stroke-width="1"/>
<text x="360.25" y="624" text-anchor="end" font-size="11" fill="#111" transform="rotate(-40 360.25,624)" font-family="sans-serif">2026-02-18</text>
<line x1="495.37" y1="600" x2="495.37" y2="606" stroke="#333" stroke-width="1"/>
<text x="495.37" y="624" text-anchor="end" font-size="11" fill="#111" transform="rotate(-40 495.37,624)" font-family="sans-serif">2026-02-21</text>
<line x1="630.50" y1="600" x2="630.50" y2="606" stroke="#333" stroke-width="1"/>
<text x="630.50" y="624" text-anchor="end" font-size="11" fill="#111" transform="rotate(-40 630.50,624)" font-family="sans-serif">2026-02-25</text>
<line x1="765.62" y1="600" x2="765.62" y2="606" stroke="#333" stroke-width="1"/>
<text x="765.62" y="624" text-anchor="end" font-size="11" fill="#111" transform="rotate(-40 765.62,624)" font-family="sans-serif">2026-02-26</text>
<line x1="900.74" y1="600" x2="900.74" y2="606" stroke="#333" stroke-width="1"/>
<text x="900.74" y="624" text-anchor="end" font-size="11" fill="#111" transform="rotate(-40 900.74,624)" font-family="sans-serif">2026-02-28</text>
<line x1="1035.87" y1="600" x2="1035.87" y2="606" stroke="#333" stroke-width="1"/>
<text x="1035.87" y="624" text-anchor="end" font-size="11" fill="#111" transform="rotate(-40 1035.87,624)" font-family="sans-serif">2026-03-01</text>
<line x1="1170.99" y1="600" x2="1170.99" y2="606" stroke="#333" stroke-width="1"/>
<text x="1170.99" y="624" text-anchor="end" font-size="11" fill="#111" transform="rotate(-40 1170.99,624)" font-family="sans-serif">2026-03-06</text>
<line x1="1180.00" y1="600" x2="1180.00" y2="606" stroke="#333" stroke-width="1"/>
<text x="1180.00" y="624" text-anchor="end" font-size="11" fill="#111" transform="rotate(-40 1180.00,624)" font-family="sans-serif">2026-03-06</text>
<line x1="90" y1="75.88" x2="1180" y2="75.88" stroke="#dc2626" stroke-width="1.5" stroke-dasharray="8,4"/>
<text x="1184" y="79.88" font-size="12" fill="#dc2626" font-family="sans-serif">Goal: 1296</text>
<polyline fill="none" stroke="#2563eb" stroke-width="3" points="90.00,540.55 94.50,538.53 99.01,536.91 103.51,534.49 108.02,534.49 112.52,533.27 117.02,532.46 121.53,532.87 126.03,532.06 130.54,532.46 135.04,532.06 139.55,568.46 144.05,568.46 148.55,566.43 153.06,545.00 157.56,545.00 162.07,544.19 166.57,543.79 171.07,543.79 175.58,543.38 180.08,541.76 184.59,541.36 189.09,540.96 193.60,540.96 198.10,539.34 202.60,539.34 207.11,556.73 211.61,556.73 216.12,555.51 220.62,551.07 225.12,538.93 229.63,538.93 234.13,538.93 238.64,538.12 243.14,536.91 247.64,536.91 252.15,536.51 256.65,536.51 261.16,556.73 265.66,556.73 270.17,556.73 274.67,556.73 279.17,535.29 283.68,535.29 288.18,535.29 292.69,535.29 297.19,534.49 301.69,534.08 306.20,533.68 310.70,532.87 315.21,532.06 319.71,532.06 324.21,531.25 328.72,530.85 333.22,530.44 337.73,530.04 342.23,530.04 346.74,529.23 351.24,529.23 355.74,529.23 360.25,528.42 364.75,528.42 369.26,527.61 373.76,527.21 378.26,526.80 382.77,526.40 387.27,525.18 391.78,523.57 396.28,523.57 400.79,523.16 405.29,522.76 409.79,522.35 414.30,521.54 418.80,519.52 423.31,517.50 427.81,517.50 432.31,517.50 436.82,517.50 441.32,517.50 445.83,517.50 450.33,517.10 454.83,516.69 459.34,515.48 463.84,515.07 468.35,514.67 472.85,513.86 477.36,514.26 481.86,512.24 486.36,511.84 490.87,511.84 495.37,511.03 499.88,509.82 504.38,507.79 508.88,506.99 513.39,506.58 517.89,509.41 522.40,509.01 526.90,504.96 531.40,504.56 535.91,504.15 540.41,504.56 544.92,503.75 549.42,503.75 553.93,503.35 558.43,499.30 562.93,496.47 567.44,490.00 571.94,484.34 576.45,481.10 580.95,480.29 585.45,480.70 589.96,460.88 594.46,459.26 598.97,458.05 603.47,456.03 607.98,456.03 612.48,454.41 616.98,450.77 621.49,444.30 625.99,443.90 630.50,600.00 635.00,441.88 639.50,440.66 644.01,439.45 648.51,439.04 653.02,438.64 657.52,437.83 662.02,436.62 666.53,436.62 671.03,434.60 675.54,432.17 680.04,429.34 684.55,428.93 689.05,428.53 693.55,427.72 698.06,426.91 702.56,426.10 707.07,426.10 711.57,426.10 716.07,419.63 720.58,419.23 725.08,418.42 729.59,418.01 734.09,417.61 738.60,417.61 743.10,417.61 747.60,417.21 752.11,417.21 756.61,413.57 761.12,411.95 765.62,412.76 770.12,410.74 774.63,410.74 779.13,410.33 783.64,410.33 788.14,410.33 792.64,409.93 797.15,409.93 801.65,409.93 806.16,409.52 810.66,409.52 815.17,409.12 819.67,409.52 824.17,409.12 828.68,407.50 833.18,407.10 837.69,403.05 842.19,399.82 846.69,400.22 851.20,400.62 855.70,400.62 860.21,399.41 864.71,392.94 869.21,391.32 873.72,389.30 878.22,389.30 882.73,388.49 887.23,375.15 891.74,374.74 896.24,374.74 900.74,374.74 905.25,374.74 909.75,374.34 914.26,374.34 918.76,374.34 923.26,374.34 927.77,374.34 932.27,373.93 936.78,373.12 941.28,372.72 945.79,373.53 950.29,435.81 954.79,372.32 959.30,372.72 963.80,371.91 968.31,371.91 972.81,372.32 977.31,371.10 981.82,369.89 986.32,369.89 990.83,369.89 995.33,369.49 999.83,369.89 1004.34,369.08 1008.84,368.68 1013.35,368.27 1017.85,367.87 1022.36,367.06 1026.86,367.46 1031.36,367.06 1035.87,366.25 1040.37,368.27 1044.88,368.68 1049.38,368.68 1053.88,368.27 1058.39,369.08 1062.89,367.87 1067.40,367.46 1071.90,367.06 1076.40,360.18 1080.91,359.78 1085.41,359.38 1089.92,356.95 1094.42,357.35 1098.93,357.76 1103.43,355.33 1107.93,355.74 1112.44,357.35 1116.94,355.33 1121.45,356.14 1125.95,355.74 1130.45,356.14 1134.96,354.12 1139.46,354.93 1143.97,356.14 1148.47,354.52 1152.98,353.71 1157.48,354.12 1161.98,354.93 1166.49,352.90 1170.99,353.71 1175.50,353.31 1180.00,353.31"/>
<circle cx="90.00" cy="540.55" r="3.2" fill="#1d4ed8"/>
<circle cx="94.50" cy="538.53" r="3.2" fill="#1d4ed8"/>
<circle cx="99.01" cy="536.91" r="3.2" fill="#1d4ed8"/>
<circle cx="103.51" cy="534.49" r="3.2" fill="#1d4ed8"/>
<circle cx="108.02" cy="534.49" r="3.2" fill="#1d4ed8"/>
<circle cx="112.52" cy="533.27" r="3.2" fill="#1d4ed8"/>
<circle cx="117.02" cy="532.46" r="3.2" fill="#1d4ed8"/>
<circle cx="121.53" cy="532.87" r="3.2" fill="#1d4ed8"/>
<circle cx="126.03" cy="532.06" r="3.2" fill="#1d4ed8"/>
<circle cx="130.54" cy="532.46" r="3.2" fill="#1d4ed8"/>
<circle cx="135.04" cy="532.06" r="3.2" fill="#1d4ed8"/>
<circle cx="139.55" cy="568.46" r="3.2" fill="#1d4ed8"/>
<circle cx="144.05" cy="568.46" r="3.2" fill="#1d4ed8"/>
<circle cx="148.55" cy="566.43" r="3.2" fill="#1d4ed8"/>
<circle cx="153.06" cy="545.00" r="3.2" fill="#1d4ed8"/>
<circle cx="157.56" cy="545.00" r="3.2" fill="#1d4ed8"/>
<circle cx="162.07" cy="544.19" r="3.2" fill="#1d4ed8"/>
<circle cx="166.57" cy="543.79" r="3.2" fill="#1d4ed8"/>
<circle cx="171.07" cy="543.79" r="3.2" fill="#1d4ed8"/>
<circle cx="175.58" cy="543.38" r="3.2" fill="#1d4ed8"/>
<circle cx="180.08" cy="541.76" r="3.2" fill="#1d4ed8"/>
<circle cx="184.59" cy="541.36" r="3.2" fill="#1d4ed8"/>
<circle cx="189.09" cy="540.96" r="3.2" fill="#1d4ed8"/>
<circle cx="193.60" cy="540.96" r="3.2" fill="#1d4ed8"/>
<circle cx="198.10" cy="539.34" r="3.2" fill="#1d4ed8"/>
<circle cx="202.60" cy="539.34" r="3.2" fill="#1d4ed8"/>
<circle cx="207.11" cy="556.73" r="3.2" fill="#1d4ed8"/>
<circle cx="211.61" cy="556.73" r="3.2" fill="#1d4ed8"/>
<circle cx="216.12" cy="555.51" r="3.2" fill="#1d4ed8"/>
<circle cx="220.62" cy="551.07" r="3.2" fill="#1d4ed8"/>
<circle cx="225.12" cy="538.93" r="3.2" fill="#1d4ed8"/>
<circle cx="229.63" cy="538.93" r="3.2" fill="#1d4ed8"/>
<circle cx="234.13" cy="538.93" r="3.2" fill="#1d4ed8"/>
<circle cx="238.64" cy="538.12" r="3.2" fill="#1d4ed8"/>
<circle cx="243.14" cy="536.91" r="3.2" fill="#1d4ed8"/>
<circle cx="247.64" cy="536.91" r="3.2" fill="#1d4ed8"/>
<circle cx="252.15" cy="536.51" r="3.2" fill="#1d4ed8"/>
<circle cx="256.65" cy="536.51" r="3.2" fill="#1d4ed8"/>
<circle cx="261.16" cy="556.73" r="3.2" fill="#1d4ed8"/>
<circle cx="265.66" cy="556.73" r="3.2" fill="#1d4ed8"/>
<circle cx="270.17" cy="556.73" r="3.2" fill="#1d4ed8"/>
<circle cx="274.67" cy="556.73" r="3.2" fill="#1d4ed8"/>
<circle cx="279.17" cy="535.29" r="3.2" fill="#1d4ed8"/>
<circle cx="283.68" cy="535.29" r="3.2" fill="#1d4ed8"/>
<circle cx="288.18" cy="535.29" r="3.2" fill="#1d4ed8"/>
<circle cx="292.69" cy="535.29" r="3.2" fill="#1d4ed8"/>
<circle cx="297.19" cy="534.49" r="3.2" fill="#1d4ed8"/>
<circle cx="301.69" cy="534.08" r="3.2" fill="#1d4ed8"/>
<circle cx="306.20" cy="533.68" r="3.2" fill="#1d4ed8"/>
<circle cx="310.70" cy="532.87" r="3.2" fill="#1d4ed8"/>
<circle cx="315.21" cy="532.06" r="3.2" fill="#1d4ed8"/>
<circle cx="319.71" cy="532.06" r="3.2" fill="#1d4ed8"/>
<circle cx="324.21" cy="531.25" r="3.2" fill="#1d4ed8"/>
<circle cx="328.72" cy="530.85" r="3.2" fill="#1d4ed8"/>
<circle cx="333.22" cy="530.44" r="3.2" fill="#1d4ed8"/>
<circle cx="337.73" cy="530.04" r="3.2" fill="#1d4ed8"/>
<circle cx="342.23" cy="530.04" r="3.2" fill="#1d4ed8"/>
<circle cx="346.74" cy="529.23" r="3.2" fill="#1d4ed8"/>
<circle cx="351.24" cy="529.23" r="3.2" fill="#1d4ed8"/>
<circle cx="355.74" cy="529.23" r="3.2" fill="#1d4ed8"/>
<circle cx="360.25" cy="528.42" r="3.2" fill="#1d4ed8"/>
<circle cx="364.75" cy="528.42" r="3.2" fill="#1d4ed8"/>
<circle cx="369.26" cy="527.61" r="3.2" fill="#1d4ed8"/>
<circle cx="373.76" cy="527.21" r="3.2" fill="#1d4ed8"/>
<circle cx="378.26" cy="526.80" r="3.2" fill="#1d4ed8"/>
<circle cx="382.77" cy="526.40" r="3.2" fill="#1d4ed8"/>
<circle cx="387.27" cy="525.18" r="3.2" fill="#1d4ed8"/>
<circle cx="391.78" cy="523.57" r="3.2" fill="#1d4ed8"/>
<circle cx="396.28" cy="523.57" r="3.2" fill="#1d4ed8"/>
<circle cx="400.79" cy="523.16" r="3.2" fill="#1d4ed8"/>
<circle cx="405.29" cy="522.76" r="3.2" fill="#1d4ed8"/>
<circle cx="409.79" cy="522.35" r="3.2" fill="#1d4ed8"/>
<circle cx="414.30" cy="521.54" r="3.2" fill="#1d4ed8"/>
<circle cx="418.80" cy="519.52" r="3.2" fill="#1d4ed8"/>
<circle cx="423.31" cy="517.50" r="3.2" fill="#1d4ed8"/>
<circle cx="427.81" cy="517.50" r="3.2" fill="#1d4ed8"/>
<circle cx="432.31" cy="517.50" r="3.2" fill="#1d4ed8"/>
<circle cx="436.82" cy="517.50" r="3.2" fill="#1d4ed8"/>
<circle cx="441.32" cy="517.50" r="3.2" fill="#1d4ed8"/>
<circle cx="445.83" cy="517.50" r="3.2" fill="#1d4ed8"/>
<circle cx="450.33" cy="517.10" r="3.2" fill="#1d4ed8"/>
<circle cx="454.83" cy="516.69" r="3.2" fill="#1d4ed8"/>
<circle cx="459.34" cy="515.48" r="3.2" fill="#1d4ed8"/>
<circle cx="463.84" cy="515.07" r="3.2" fill="#1d4ed8"/>
<circle cx="468.35" cy="514.67" r="3.2" fill="#1d4ed8"/>
<circle cx="472.85" cy="513.86" r="3.2" fill="#1d4ed8"/>
<circle cx="477.36" cy="514.26" r="3.2" fill="#1d4ed8"/>
<circle cx="481.86" cy="512.24" r="3.2" fill="#1d4ed8"/>
<circle cx="486.36" cy="511.84" r="3.2" fill="#1d4ed8"/>
<circle cx="490.87" cy="511.84" r="3.2" fill="#1d4ed8"/>
<circle cx="495.37" cy="511.03" r="3.2" fill="#1d4ed8"/>
<circle cx="499.88" cy="509.82" r="3.2" fill="#1d4ed8"/>
<circle cx="504.38" cy="507.79" r="3.2" fill="#1d4ed8"/>
<circle cx="508.88" cy="506.99" r="3.2" fill="#1d4ed8"/>
<circle cx="513.39" cy="506.58" r="3.2" fill="#1d4ed8"/>
<circle cx="517.89" cy="509.41" r="3.2" fill="#1d4ed8"/>
<circle cx="522.40" cy="509.01" r="3.2" fill="#1d4ed8"/>
<circle cx="526.90" cy="504.96" r="3.2" fill="#1d4ed8"/>
<circle cx="531.40" cy="504.56" r="3.2" fill="#1d4ed8"/>
<circle cx="535.91" cy="504.15" r="3.2" fill="#1d4ed8"/>
<circle cx="540.41" cy="504.56" r="3.2" fill="#1d4ed8"/>
<circle cx="544.92" cy="503.75" r="3.2" fill="#1d4ed8"/>
<circle cx="549.42" cy="503.75" r="3.2" fill="#1d4ed8"/>
<circle cx="553.93" cy="503.35" r="3.2" fill="#1d4ed8"/>
<circle cx="558.43" cy="499.30" r="3.2" fill="#1d4ed8"/>
<circle cx="562.93" cy="496.47" r="3.2" fill="#1d4ed8"/>
<circle cx="567.44" cy="490.00" r="3.2" fill="#1d4ed8"/>
<circle cx="571.94" cy="484.34" r="3.2" fill="#1d4ed8"/>
<circle cx="576.45" cy="481.10" r="3.2" fill="#1d4ed8"/>
<circle cx="580.95" cy="480.29" r="3.2" fill="#1d4ed8"/>
<circle cx="585.45" cy="480.70" r="3.2" fill="#1d4ed8"/>
<circle cx="589.96" cy="460.88" r="3.2" fill="#1d4ed8"/>
<circle cx="594.46" cy="459.26" r="3.2" fill="#1d4ed8"/>
<circle cx="598.97" cy="458.05" r="3.2" fill="#1d4ed8"/>
<circle cx="603.47" cy="456.03" r="3.2" fill="#1d4ed8"/>
<circle cx="607.98" cy="456.03" r="3.2" fill="#1d4ed8"/>
<circle cx="612.48" cy="454.41" r="3.2" fill="#1d4ed8"/>
<circle cx="616.98" cy="450.77" r="3.2" fill="#1d4ed8"/>
<circle cx="621.49" cy="444.30" r="3.2" fill="#1d4ed8"/>
<circle cx="625.99" cy="443.90" r="3.2" fill="#1d4ed8"/>
<circle cx="630.50" cy="600.00" r="3.2" fill="#1d4ed8"/>
<circle cx="635.00" cy="441.88" r="3.2" fill="#1d4ed8"/>
<circle cx="639.50" cy="440.66" r="3.2" fill="#1d4ed8"/>
<circle cx="644.01" cy="439.45" r="3.2" fill="#1d4ed8"/>
<circle cx="648.51" cy="439.04" r="3.2" fill="#1d4ed8"/>
<circle cx="653.02" cy="438.64" r="3.2" fill="#1d4ed8"/>
<circle cx="657.52" cy="437.83" r="3.2" fill="#1d4ed8"/>
<circle cx="662.02" cy="436.62" r="3.2" fill="#1d4ed8"/>
<circle cx="666.53" cy="436.62" r="3.2" fill="#1d4ed8"/>
<circle cx="671.03" cy="434.60" r="3.2" fill="#1d4ed8"/>
<circle cx="675.54" cy="432.17" r="3.2" fill="#1d4ed8"/>
<circle cx="680.04" cy="429.34" r="3.2" fill="#1d4ed8"/>
<circle cx="684.55" cy="428.93" r="3.2" fill="#1d4ed8"/>
<circle cx="689.05" cy="428.53" r="3.2" fill="#1d4ed8"/>
<circle cx="693.55" cy="427.72" r="3.2" fill="#1d4ed8"/>
<circle cx="698.06" cy="426.91" r="3.2" fill="#1d4ed8"/>
<circle cx="702.56" cy="426.10" r="3.2" fill="#1d4ed8"/>
<circle cx="707.07" cy="426.10" r="3.2" fill="#1d4ed8"/>
<circle cx="711.57" cy="426.10" r="3.2" fill="#1d4ed8"/>
<circle cx="716.07" cy="419.63" r="3.2" fill="#1d4ed8"/>
<circle cx="720.58" cy="419.23" r="3.2" fill="#1d4ed8"/>
<circle cx="725.08" cy="418.42" r="3.2" fill="#1d4ed8"/>
<circle cx="729.59" cy="418.01" r="3.2" fill="#1d4ed8"/>
<circle cx="734.09" cy="417.61" r="3.2" fill="#1d4ed8"/>
<circle cx="738.60" cy="417.61" r="3.2" fill="#1d4ed8"/>
<circle cx="743.10" cy="417.61" r="3.2" fill="#1d4ed8"/>
<circle cx="747.60" cy="417.21" r="3.2" fill="#1d4ed8"/>
<circle cx="752.11" cy="417.21" r="3.2" fill="#1d4ed8"/>
<circle cx="756.61" cy="413.57" r="3.2" fill="#1d4ed8"/>
<circle cx="761.12" cy="411.95" r="3.2" fill="#1d4ed8"/>
<circle cx="765.62" cy="412.76" r="3.2" fill="#1d4ed8"/>
<circle cx="770.12" cy="410.74" r="3.2" fill="#1d4ed8"/>
<circle cx="774.63" cy="410.74" r="3.2" fill="#1d4ed8"/>
<circle cx="779.13" cy="410.33" r="3.2" fill="#1d4ed8"/>
<circle cx="783.64" cy="410.33" r="3.2" fill="#1d4ed8"/>
<circle cx="788.14" cy="410.33" r="3.2" fill="#1d4ed8"/>
<circle cx="792.64" cy="409.93" r="3.2" fill="#1d4ed8"/>
<circle cx="797.15" cy="409.93" r="3.2" fill="#1d4ed8"/>
<circle cx="801.65" cy="409.93" r="3.2" fill="#1d4ed8"/>
<circle cx="806.16" cy="409.52" r="3.2" fill="#1d4ed8"/>
<circle cx="810.66" cy="409.52" r="3.2" fill="#1d4ed8"/>
<circle cx="815.17" cy="409.12" r="3.2" fill="#1d4ed8"/>
<circle cx="819.67" cy="409.52" r="3.2" fill="#1d4ed8"/>
<circle cx="824.17" cy="409.12" r="3.2" fill="#1d4ed8"/>
<circle cx="828.68" cy="407.50" r="3.2" fill="#1d4ed8"/>
<circle cx="833.18" cy="407.10" r="3.2" fill="#1d4ed8"/>
<circle cx="837.69" cy="403.05" r="3.2" fill="#1d4ed8"/>
<circle cx="842.19" cy="399.82" r="3.2" fill="#1d4ed8"/>
<circle cx="846.69" cy="400.22" r="3.2" fill="#1d4ed8"/>
<circle cx="851.20" cy="400.62" r="3.2" fill="#1d4ed8"/>
<circle cx="855.70" cy="400.62" r="3.2" fill="#1d4ed8"/>
<circle cx="860.21" cy="399.41" r="3.2" fill="#1d4ed8"/>
<circle cx="864.71" cy="392.94" r="3.2" fill="#1d4ed8"/>
<circle cx="869.21" cy="391.32" r="3.2" fill="#1d4ed8"/>
<circle cx="873.72" cy="389.30" r="3.2" fill="#1d4ed8"/>
<circle cx="878.22" cy="389.30" r="3.2" fill="#1d4ed8"/>
<circle cx="882.73" cy="388.49" r="3.2" fill="#1d4ed8"/>
<circle cx="887.23" cy="375.15" r="3.2" fill="#1d4ed8"/>
<circle cx="891.74" cy="374.74" r="3.2" fill="#1d4ed8"/>
<circle cx="896.24" cy="374.74" r="3.2" fill="#1d4ed8"/>
<circle cx="900.74" cy="374.74" r="3.2" fill="#1d4ed8"/>
<circle cx="905.25" cy="374.74" r="3.2" fill="#1d4ed8"/>
<circle cx="909.75" cy="374.34" r="3.2" fill="#1d4ed8"/>
<circle cx="914.26" cy="374.34" r="3.2" fill="#1d4ed8"/>
<circle cx="918.76" cy="374.34" r="3.2" fill="#1d4ed8"/>
<circle cx="923.26" cy="374.34" r="3.2" fill="#1d4ed8"/>
<circle cx="927.77" cy="374.34" r="3.2" fill="#1d4ed8"/>
<circle cx="932.27" cy="373.93" r="3.2" fill="#1d4ed8"/>
<circle cx="936.78" cy="373.12" r="3.2" fill="#1d4ed8"/>
<circle cx="941.28" cy="372.72" r="3.2" fill="#1d4ed8"/>
<circle cx="945.79" cy="373.53" r="3.2" fill="#1d4ed8"/>
<circle cx="950.29" cy="435.81" r="3.2" fill="#1d4ed8"/>
<circle cx="954.79" cy="372.32" r="3.2" fill="#1d4ed8"/>
<circle cx="959.30" cy="372.72" r="3.2" fill="#1d4ed8"/>
<circle cx="963.80" cy="371.91" r="3.2" fill="#1d4ed8"/>
<circle cx="968.31" cy="371.91" r="3.2" fill="#1d4ed8"/>
<circle cx="972.81" cy="372.32" r="3.2" fill="#1d4ed8"/>
<circle cx="977.31" cy="371.10" r="3.2" fill="#1d4ed8"/>
<circle cx="981.82" cy="369.89" r="3.2" fill="#1d4ed8"/>
<circle cx="986.32" cy="369.89" r="3.2" fill="#1d4ed8"/>
<circle cx="990.83" cy="369.89" r="3.2" fill="#1d4ed8"/>
<circle cx="995.33" cy="369.49" r="3.2" fill="#1d4ed8"/>
<circle cx="999.83" cy="369.89" r="3.2" fill="#1d4ed8"/>
<circle cx="1004.34" cy="369.08" r="3.2" fill="#1d4ed8"/>
<circle cx="1008.84" cy="368.68" r="3.2" fill="#1d4ed8"/>
<circle cx="1013.35" cy="368.27" r="3.2" fill="#1d4ed8"/>
<circle cx="1017.85" cy="367.87" r="3.2" fill="#1d4ed8"/>
<circle cx="1022.36" cy="367.06" r="3.2" fill="#1d4ed8"/>
<circle cx="1026.86" cy="367.46" r="3.2" fill="#1d4ed8"/>
<circle cx="1031.36" cy="367.06" r="3.2" fill="#1d4ed8"/>
<circle cx="1035.87" cy="366.25" r="3.2" fill="#1d4ed8"/>
<circle cx="1040.37" cy="368.27" r="3.2" fill="#1d4ed8"/>
<circle cx="1044.88" cy="368.68" r="3.2" fill="#1d4ed8"/>
<circle cx="1049.38" cy="368.68" r="3.2" fill="#1d4ed8"/>
<circle cx="1053.88" cy="368.27" r="3.2" fill="#1d4ed8"/>
<circle cx="1058.39" cy="369.08" r="3.2" fill="#1d4ed8"/>
<circle cx="1062.89" cy="367.87" r="3.2" fill="#1d4ed8"/>
<circle cx="1067.40" cy="367.46" r="3.2" fill="#1d4ed8"/>
<circle cx="1071.90" cy="367.06" r="3.2" fill="#1d4ed8"/>
<circle cx="1076.40" cy="360.18" r="3.2" fill="#1d4ed8"/>
<circle cx="1080.91" cy="359.78" r="3.2" fill="#1d4ed8"/>
<circle cx="1085.41" cy="359.38" r="3.2" fill="#1d4ed8"/>
<circle cx="1089.92" cy="356.95" r="3.2" fill="#1d4ed8"/>
<circle cx="1094.42" cy="357.35" r="3.2" fill="#1d4ed8"/>
<circle cx="1098.93" cy="357.76" r="3.2" fill="#1d4ed8"/>
<circle cx="1103.43" cy="355.33" r="3.2" fill="#1d4ed8"/>
<circle cx="1107.93" cy="355.74" r="3.2" fill="#1d4ed8"/>
<circle cx="1112.44" cy="357.35" r="3.2" fill="#1d4ed8"/>
<circle cx="1116.94" cy="355.33" r="3.2" fill="#1d4ed8"/>
<circle cx="1121.45" cy="356.14" r="3.2" fill="#1d4ed8"/>
<circle cx="1125.95" cy="355.74" r="3.2" fill="#1d4ed8"/>
<circle cx="1130.45" cy="356.14" r="3.2" fill="#1d4ed8"/>
<circle cx="1134.96" cy="354.12" r="3.2" fill="#1d4ed8"/>
<circle cx="1139.46" cy="354.93" r="3.2" fill="#1d4ed8"/>
<circle cx="1143.97" cy="356.14" r="3.2" fill="#1d4ed8"/>
<circle cx="1148.47" cy="354.52" r="3.2" fill="#1d4ed8"/>
<circle cx="1152.98" cy="353.71" r="3.2" fill="#1d4ed8"/>
<circle cx="1157.48" cy="354.12" r="3.2" fill="#1d4ed8"/>
<circle cx="1161.98" cy="354.93" r="3.2" fill="#1d4ed8"/>
<circle cx="1166.49" cy="352.90" r="3.2" fill="#1d4ed8"/>
<circle cx="1170.99" cy="353.71" r="3.2" fill="#1d4ed8"/>
<circle cx="1175.50" cy="353.31" r="3.2" fill="#1d4ed8"/>
<circle cx="1180.00" cy="353.31" r="3.2" fill="#1d4ed8"/>
<text x="635" y="695" text-anchor="middle" font-size="14" fill="#111" font-family="sans-serif">Date</text>
<text x="24" y="325" text-anchor="middle" font-size="14" fill="#111" transform="rotate(-90 24,325)" font-family="sans-serif">Passed files</text>
</svg>
