<?xml version="1.0" encoding="UTF-8"?>
<svg xmlns="http://www.w3.org/2000/svg" width="1280" height="720" viewBox="0 0 1280 720">
<rect width="100%" height="100%" fill="#ffffff"/>
<text x="640" y="30" text-anchor="middle" font-size="22" font-family="sans-serif">Roast passed files history</text>
<line x1="90" y1="600" x2="1180" y2="600" stroke="#333" stroke-width="1.5"/>
<line x1="90" y1="50" x2="90" y2="600" stroke="#333" stroke-width="1.5"/>
<line x1="90" y1="600.00" x2="1180" y2="600.00" stroke="#e5e7eb" stroke-width="1"/>
<text x="78" y="605.00" text-anchor="end" font-size="12" fill="#111" font-family="sans-serif">0</text>
<line x1="90" y1="397.79" x2="1180" y2="397.79" stroke="#e5e7eb" stroke-width="1"/>
<text x="78" y="402.79" text-anchor="end" font-size="12" fill="#111" font-family="sans-serif">500</text>
<line x1="90" y1="195.59" x2="1180" y2="195.59" stroke="#e5e7eb" stroke-width="1"/>
<text x="78" y="200.59" text-anchor="end" font-size="12" fill="#111" font-family="sans-serif">1000</text>
<line x1="90.00" y1="600" x2="90.00" y2="606" stroke="#333" stroke-width="1"/>
<text x="90.00" y="624" text-anchor="end" font-size="11" fill="#111" transform="rotate(-40 90.00,624)" font-family="sans-serif">2026-02-12</text>
<line x1="224.91" y1="600" x2="224.91" y2="606" stroke="#333" stroke-width="1"/>
<text x="224.91" y="624" text-anchor="end" font-size="11" fill="#111" transform="rotate(-40 224.91,624)" font-family="sans-serif">2026-02-19</text>
<line x1="359.82" y1="600" x2="359.82" y2="606" stroke="#333" stroke-width="1"/>
<text x="359.82" y="624" text-anchor="end" font-size="11" fill="#111" transform="rotate(-40 359.82,624)" font-family="sans-serif">2026-02-25</text>
<line x1="494.73" y1="600" x2="494.73" y2="606" stroke="#333" stroke-width="1"/>
<text x="494.73" y="624" text-anchor="end" font-size="11" fill="#111" transform="rotate(-40 494.73,624)" font-family="sans-serif">2026-02-28</text>
<line x1="629.65" y1="600" x2="629.65" y2="606" stroke="#333" stroke-width="1"/>
<text x="629.65" y="624" text-anchor="end" font-size="11" fill="#111" transform="rotate(-40 629.65,624)" font-family="sans-serif">2026-03-06</text>
<line x1="764.56" y1="600" x2="764.56" y2="606" stroke="#333" stroke-width="1"/>
<text x="764.56" y="624" text-anchor="end" font-size="11" fill="#111" transform="rotate(-40 764.56,624)" font-family="sans-serif">2026-03-11</text>
<line x1="899.47" y1="600" x2="899.47" y2="606" stroke="#333" stroke-width="1"/>
<text x="899.47" y="624" text-anchor="end" font-size="11" fill="#111" transform="rotate(-40 899.47,624)" font-family="sans-serif">2026-03-19</text>
<line x1="1034.38" y1="600" x2="1034.38" y2="606" stroke="#333" stroke-width="1"/>
<text x="1034.38" y="624" text-anchor="end" font-size="11" fill="#111" transform="rotate(-40 1034.38,624)" font-family="sans-serif">2026-03-26</text>
<line x1="1169.29" y1="600" x2="1169.29" y2="606" stroke="#333" stroke-width="1"/>
<text x="1169.29" y="624" text-anchor="end" font-size="11" fill="#111" transform="rotate(-40 1169.29,624)" font-family="sans-serif">2026-04-10</text>
<line x1="1180.00" y1="600" x2="1180.00" y2="606" stroke="#333" stroke-width="1"/>
<text x="1180.00" y="624" text-anchor="end" font-size="11" fill="#111" transform="rotate(-40 1180.00,624)" font-family="sans-serif">2026-04-22</text>
<line x1="90" y1="75.88" x2="1180" y2="75.88" stroke="#dc2626" stroke-width="1.5" stroke-dasharray="8,4"/>
<text x="1184" y="79.88" font-size="12" fill="#dc2626" font-family="sans-serif">Goal: 1296</text>
<polyline fill="none" stroke="#2563eb" stroke-width="3" points="90.00,540.55 92.14,538.53 94.28,536.91 96.42,534.49 98.57,534.49 100.71,533.27 102.85,532.46 104.99,532.87 107.13,532.06 109.27,532.46 111.41,532.06 113.56,568.46 115.70,568.46 117.84,566.43 119.98,545.00 122.12,545.00 124.26,544.19 126.40,543.79 128.55,543.79 130.69,543.38 132.83,541.76 134.97,541.36 137.11,540.96 139.25,540.96 141.39,539.34 143.54,539.34 145.68,556.73 147.82,556.73 149.96,555.51 152.10,551.07 154.24,538.93 156.39,538.93 158.53,538.93 160.67,538.12 162.81,536.91 164.95,536.91 167.09,536.51 169.23,536.51 171.38,556.73 173.52,556.73 175.66,556.73 177.80,556.73 179.94,535.29 182.08,535.29 184.22,535.29 186.37,535.29 188.51,534.49 190.65,534.08 192.79,533.68 194.93,532.87 197.07,532.06 199.21,532.06 201.36,531.25 203.50,530.85 205.64,530.44 207.78,530.04 209.92,530.04 212.06,529.23 214.20,529.23 216.35,529.23 218.49,528.42 220.63,528.42 222.77,527.61 224.91,527.21 227.05,526.80 229.19,526.40 231.34,525.18 233.48,523.57 235.62,523.57 237.76,523.16 239.90,522.76 242.04,522.35 244.18,521.54 246.33,519.52 248.47,517.50 250.61,517.50 252.75,517.50 254.89,517.50 257.03,517.50 259.17,517.50 261.32,517.10 263.46,516.69 265.60,515.48 267.74,515.07 269.88,514.67 272.02,513.86 274.17,514.26 276.31,512.24 278.45,511.84 280.59,511.84 282.73,511.03 284.87,509.82 287.01,507.79 289.16,506.99 291.30,506.58 293.44,509.41 295.58,509.01 297.72,504.96 299.86,504.56 302.00,504.15 304.15,504.56 306.29,503.75 308.43,503.75 310.57,503.35 312.71,499.30 314.85,496.47 316.99,490.00 319.14,484.34 321.28,481.10 323.42,480.29 325.56,480.70 327.70,460.88 329.84,459.26 331.98,458.05 334.13,456.03 336.27,456.03 338.41,454.41 340.55,450.77 342.69,444.30 344.83,443.90 346.97,600.00 349.12,441.88 351.26,440.66 353.40,439.45 355.54,439.04 357.68,438.64 359.82,437.83 361.96,436.62 364.11,436.62 366.25,434.60 368.39,432.17 370.53,429.34 372.67,428.93 374.81,428.53 376.95,427.72 379.10,426.91 381.24,426.10 383.38,426.10 385.52,426.10 387.66,419.63 389.80,419.23 391.94,418.42 394.09,418.01 396.23,417.61 398.37,417.61 400.51,417.61 402.65,417.21 404.79,417.21 406.94,413.57 409.08,411.95 411.22,412.76 413.36,410.74 415.50,410.74 417.64,410.33 419.78,410.33 421.93,410.33 424.07,409.93 426.21,409.93 428.35,409.93 430.49,409.52 432.63,409.52 434.77,409.12 436.92,409.52 439.06,409.12 441.20,407.50 443.34,407.10 445.48,403.05 447.62,399.82 449.76,400.22 451.91,400.62 454.05,400.62 456.19,399.41 458.33,392.94 460.47,391.32 462.61,389.30 464.75,389.30 466.90,388.49 469.04,375.15 471.18,374.74 473.32,374.74 475.46,374.74 477.60,374.74 479.74,374.34 481.89,374.34 484.03,374.34 486.17,374.34 488.31,374.34 490.45,373.93 492.59,373.12 494.73,372.72 496.88,373.53 499.02,435.81 501.16,372.32 503.30,372.72 505.44,371.91 507.58,371.91 509.72,372.32 511.87,371.10 514.01,369.89 516.15,369.89 518.29,369.89 520.43,369.49 522.57,369.89 524.72,369.08 526.86,368.68 529.00,368.27 531.14,367.87 533.28,367.06 535.42,367.46 537.56,367.06 539.71,366.25 541.85,368.27 543.99,368.68 546.13,368.68 548.27,368.27 550.41,369.08 552.55,367.87 554.70,367.46 556.84,367.06 558.98,360.18 561.12,359.78 563.26,359.38 565.40,356.95 567.54,357.35 569.69,357.76 571.83,355.33 573.97,355.74 576.11,357.35 578.25,355.33 580.39,356.14 582.53,355.74 584.68,356.14 586.82,354.12 588.96,354.93 591.10,356.14 593.24,354.52 595.38,353.71 597.52,354.12 599.67,354.93 601.81,352.90 603.95,353.71 606.09,353.31 608.23,353.31 610.37,354.52 612.51,352.90 614.66,352.50 616.80,352.50 618.94,353.31 621.08,352.50 623.22,353.71 625.36,354.12 627.50,352.50 629.65,352.90 631.79,352.50 633.93,352.10 636.07,351.69 638.21,352.10 640.35,354.12 642.50,352.50 644.64,352.10 646.78,352.10 648.92,349.67 651.06,349.67 653.20,350.88 655.34,351.29 657.49,350.48 659.63,352.10 661.77,350.48 663.91,350.48 666.05,350.48 668.19,350.07 670.33,348.46 672.48,351.29 674.62,349.67 676.76,351.29 678.90,349.67 681.04,348.86 683.18,348.46 685.32,348.46 687.47,347.24 689.61,348.86 691.75,346.84 693.89,348.46 696.03,348.86 698.17,346.84 700.31,349.26 702.46,348.05 704.60,349.26 706.74,349.26 708.88,350.48 711.02,352.90 713.16,349.67 715.30,348.46 717.45,345.62 719.59,344.82 721.73,344.41 723.87,342.39 726.01,341.18 728.15,341.58 730.29,339.15 732.44,338.35 734.58,337.54 736.72,336.73 738.86,335.92 741.00,337.54 743.14,338.35 745.28,337.54 747.43,337.54 749.57,337.54 751.71,333.09 753.85,333.90 755.99,335.92 758.13,336.73 760.28,335.51 762.42,332.28 764.56,331.47 766.70,331.07 768.84,331.47 770.98,331.07 773.12,331.07 775.27,331.07 777.41,331.07 779.55,331.07 781.69,331.07 783.83,331.07 785.97,331.07 788.11,331.07 790.26,331.07 792.40,331.47 794.54,331.88 796.68,331.07 798.82,331.47 800.96,331.07 803.10,331.47 805.25,331.07 807.39,324.19 809.53,324.19 811.67,318.93 813.81,316.51 815.95,310.44 818.09,308.01 820.24,600.00 822.38,301.54 824.52,290.22 826.66,287.79 828.80,286.18 830.94,285.77 833.08,285.77 835.23,285.77 837.37,286.18 839.51,285.77 841.65,285.77 843.79,285.77 845.93,283.35 848.07,282.94 850.22,282.94 852.36,283.35 854.50,282.94 856.64,282.94 858.78,283.75 860.92,282.13 863.06,282.13 865.21,282.54 867.35,282.13 869.49,282.54 871.63,282.94 873.77,281.73 875.91,282.54 878.06,281.73 880.20,282.54 882.34,282.13 884.48,282.13 886.62,281.73 888.76,281.73 890.90,281.32 893.05,281.73 895.19,282.13 897.33,281.32 899.47,281.32 901.61,282.54 903.75,282.13 905.89,281.32 908.04,281.32 910.18,281.32 912.32,282.54 914.46,282.13 916.60,281.32 918.74,282.13 920.88,281.73 923.03,282.13 925.17,280.11 927.31,280.11 929.45,280.51 931.59,279.71 933.73,280.11 935.87,280.51 938.02,279.71 940.16,280.11 942.30,280.11 944.44,279.30 946.58,278.90 948.72,278.90 950.86,280.51 953.01,279.30 955.15,278.09 957.29,278.49 959.43,278.49 961.57,277.28 963.71,277.68 965.85,277.68 968.00,278.09 970.14,277.28 972.28,600.00 974.42,278.90 976.56,279.30 978.70,278.90 980.84,278.49 982.99,278.49 985.13,278.49 987.27,278.49 989.41,278.49 991.55,278.49 993.69,278.49 995.83,278.49 997.98,278.49 1000.12,278.49 1002.26,278.49 1004.40,278.49 1006.54,600.00 1008.68,600.00 1010.83,254.63 1012.97,600.00 1015.11,245.74 1017.25,245.74 1019.39,246.14 1021.53,245.74 1023.67,245.74 1025.82,245.74 1027.96,245.74 1030.10,245.74 1032.24,240.07 1034.38,238.05 1036.52,238.05 1038.66,227.13 1040.81,227.13 1042.95,226.32 1045.09,227.54 1047.23,226.73 1049.37,226.32 1051.51,227.13 1053.65,227.13 1055.80,226.73 1057.94,226.32 1060.08,226.73 1062.22,226.73 1064.36,226.73 1066.50,225.11 1068.64,224.71 1070.79,225.11 1072.93,224.30 1075.07,226.32 1077.21,224.30 1079.35,225.51 1081.49,225.51 1083.63,225.51 1085.78,225.92 1087.92,223.09 1090.06,223.49 1092.20,223.09 1094.34,223.09 1096.48,223.90 1098.62,223.49 1100.77,223.49 1102.91,223.09 1105.05,223.09 1107.19,223.49 1109.33,223.09 1111.47,223.09 1113.61,223.49 1115.76,223.49 1117.90,223.09 1120.04,223.09 1122.18,223.49 1124.32,223.09 1126.46,223.09 1128.61,223.09 1130.75,223.49 1132.89,223.49 1135.03,223.49 1137.17,223.09 1139.31,223.49 1141.45,223.09 1143.60,223.09 1145.74,223.49 1147.88,223.09 1150.02,223.09 1152.16,223.49 1154.30,222.68 1156.44,221.88 1158.59,223.49 1160.73,223.09 1162.87,223.49 1165.01,224.30 1167.15,201.65 1169.29,201.65 1171.43,186.69 1173.58,176.18 1175.72,174.15 1177.86,172.94 1180.00,172.94"/>
<circle cx="90.00" cy="540.55" r="3.2" fill="#1d4ed8"/>
<circle cx="92.14" cy="538.53" r="3.2" fill="#1d4ed8"/>
<circle cx="94.28" cy="536.91" r="3.2" fill="#1d4ed8"/>
<circle cx="96.42" cy="534.49" r="3.2" fill="#1d4ed8"/>
<circle cx="98.57" cy="534.49" r="3.2" fill="#1d4ed8"/>
<circle cx="100.71" cy="533.27" r="3.2" fill="#1d4ed8"/>
<circle cx="102.85" cy="532.46" r="3.2" fill="#1d4ed8"/>
<circle cx="104.99" cy="532.87" r="3.2" fill="#1d4ed8"/>
<circle cx="107.13" cy="532.06" r="3.2" fill="#1d4ed8"/>
<circle cx="109.27" cy="532.46" r="3.2" fill="#1d4ed8"/>
<circle cx="111.41" cy="532.06" r="3.2" fill="#1d4ed8"/>
<circle cx="113.56" cy="568.46" r="3.2" fill="#1d4ed8"/>
<circle cx="115.70" cy="568.46" r="3.2" fill="#1d4ed8"/>
<circle cx="117.84" cy="566.43" r="3.2" fill="#1d4ed8"/>
<circle cx="119.98" cy="545.00" r="3.2" fill="#1d4ed8"/>
<circle cx="122.12" cy="545.00" r="3.2" fill="#1d4ed8"/>
<circle cx="124.26" cy="544.19" r="3.2" fill="#1d4ed8"/>
<circle cx="126.40" cy="543.79" r="3.2" fill="#1d4ed8"/>
<circle cx="128.55" cy="543.79" r="3.2" fill="#1d4ed8"/>
<circle cx="130.69" cy="543.38" r="3.2" fill="#1d4ed8"/>
<circle cx="132.83" cy="541.76" r="3.2" fill="#1d4ed8"/>
<circle cx="134.97" cy="541.36" r="3.2" fill="#1d4ed8"/>
<circle cx="137.11" cy="540.96" r="3.2" fill="#1d4ed8"/>
<circle cx="139.25" cy="540.96" r="3.2" fill="#1d4ed8"/>
<circle cx="141.39" cy="539.34" r="3.2" fill="#1d4ed8"/>
<circle cx="143.54" cy="539.34" r="3.2" fill="#1d4ed8"/>
<circle cx="145.68" cy="556.73" r="3.2" fill="#1d4ed8"/>
<circle cx="147.82" cy="556.73" r="3.2" fill="#1d4ed8"/>
<circle cx="149.96" cy="555.51" r="3.2" fill="#1d4ed8"/>
<circle cx="152.10" cy="551.07" r="3.2" fill="#1d4ed8"/>
<circle cx="154.24" cy="538.93" r="3.2" fill="#1d4ed8"/>
<circle cx="156.39" cy="538.93" r="3.2" fill="#1d4ed8"/>
<circle cx="158.53" cy="538.93" r="3.2" fill="#1d4ed8"/>
<circle cx="160.67" cy="538.12" r="3.2" fill="#1d4ed8"/>
<circle cx="162.81" cy="536.91" r="3.2" fill="#1d4ed8"/>
<circle cx="164.95" cy="536.91" r="3.2" fill="#1d4ed8"/>
<circle cx="167.09" cy="536.51" r="3.2" fill="#1d4ed8"/>
<circle cx="169.23" cy="536.51" r="3.2" fill="#1d4ed8"/>
<circle cx="171.38" cy="556.73" r="3.2" fill="#1d4ed8"/>
<circle cx="173.52" cy="556.73" r="3.2" fill="#1d4ed8"/>
<circle cx="175.66" cy="556.73" r="3.2" fill="#1d4ed8"/>
<circle cx="177.80" cy="556.73" r="3.2" fill="#1d4ed8"/>
<circle cx="179.94" cy="535.29" r="3.2" fill="#1d4ed8"/>
<circle cx="182.08" cy="535.29" r="3.2" fill="#1d4ed8"/>
<circle cx="184.22" cy="535.29" r="3.2" fill="#1d4ed8"/>
<circle cx="186.37" cy="535.29" r="3.2" fill="#1d4ed8"/>
<circle cx="188.51" cy="534.49" r="3.2" fill="#1d4ed8"/>
<circle cx="190.65" cy="534.08" r="3.2" fill="#1d4ed8"/>
<circle cx="192.79" cy="533.68" r="3.2" fill="#1d4ed8"/>
<circle cx="194.93" cy="532.87" r="3.2" fill="#1d4ed8"/>
<circle cx="197.07" cy="532.06" r="3.2" fill="#1d4ed8"/>
<circle cx="199.21" cy="532.06" r="3.2" fill="#1d4ed8"/>
<circle cx="201.36" cy="531.25" r="3.2" fill="#1d4ed8"/>
<circle cx="203.50" cy="530.85" r="3.2" fill="#1d4ed8"/>
<circle cx="205.64" cy="530.44" r="3.2" fill="#1d4ed8"/>
<circle cx="207.78" cy="530.04" r="3.2" fill="#1d4ed8"/>
<circle cx="209.92" cy="530.04" r="3.2" fill="#1d4ed8"/>
<circle cx="212.06" cy="529.23" r="3.2" fill="#1d4ed8"/>
<circle cx="214.20" cy="529.23" r="3.2" fill="#1d4ed8"/>
<circle cx="216.35" cy="529.23" r="3.2" fill="#1d4ed8"/>
<circle cx="218.49" cy="528.42" r="3.2" fill="#1d4ed8"/>
<circle cx="220.63" cy="528.42" r="3.2" fill="#1d4ed8"/>
<circle cx="222.77" cy="527.61" r="3.2" fill="#1d4ed8"/>
<circle cx="224.91" cy="527.21" r="3.2" fill="#1d4ed8"/>
<circle cx="227.05" cy="526.80" r="3.2" fill="#1d4ed8"/>
<circle cx="229.19" cy="526.40" r="3.2" fill="#1d4ed8"/>
<circle cx="231.34" cy="525.18" r="3.2" fill="#1d4ed8"/>
<circle cx="233.48" cy="523.57" r="3.2" fill="#1d4ed8"/>
<circle cx="235.62" cy="523.57" r="3.2" fill="#1d4ed8"/>
<circle cx="237.76" cy="523.16" r="3.2" fill="#1d4ed8"/>
<circle cx="239.90" cy="522.76" r="3.2" fill="#1d4ed8"/>
<circle cx="242.04" cy="522.35" r="3.2" fill="#1d4ed8"/>
<circle cx="244.18" cy="521.54" r="3.2" fill="#1d4ed8"/>
<circle cx="246.33" cy="519.52" r="3.2" fill="#1d4ed8"/>
<circle cx="248.47" cy="517.50" r="3.2" fill="#1d4ed8"/>
<circle cx="250.61" cy="517.50" r="3.2" fill="#1d4ed8"/>
<circle cx="252.75" cy="517.50" r="3.2" fill="#1d4ed8"/>
<circle cx="254.89" cy="517.50" r="3.2" fill="#1d4ed8"/>
<circle cx="257.03" cy="517.50" r="3.2" fill="#1d4ed8"/>
<circle cx="259.17" cy="517.50" r="3.2" fill="#1d4ed8"/>
<circle cx="261.32" cy="517.10" r="3.2" fill="#1d4ed8"/>
<circle cx="263.46" cy="516.69" r="3.2" fill="#1d4ed8"/>
<circle cx="265.60" cy="515.48" r="3.2" fill="#1d4ed8"/>
<circle cx="267.74" cy="515.07" r="3.2" fill="#1d4ed8"/>
<circle cx="269.88" cy="514.67" r="3.2" fill="#1d4ed8"/>
<circle cx="272.02" cy="513.86" r="3.2" fill="#1d4ed8"/>
<circle cx="274.17" cy="514.26" r="3.2" fill="#1d4ed8"/>
<circle cx="276.31" cy="512.24" r="3.2" fill="#1d4ed8"/>
<circle cx="278.45" cy="511.84" r="3.2" fill="#1d4ed8"/>
<circle cx="280.59" cy="511.84" r="3.2" fill="#1d4ed8"/>
<circle cx="282.73" cy="511.03" r="3.2" fill="#1d4ed8"/>
<circle cx="284.87" cy="509.82" r="3.2" fill="#1d4ed8"/>
<circle cx="287.01" cy="507.79" r="3.2" fill="#1d4ed8"/>
<circle cx="289.16" cy="506.99" r="3.2" fill="#1d4ed8"/>
<circle cx="291.30" cy="506.58" r="3.2" fill="#1d4ed8"/>
<circle cx="293.44" cy="509.41" r="3.2" fill="#1d4ed8"/>
<circle cx="295.58" cy="509.01" r="3.2" fill="#1d4ed8"/>
<circle cx="297.72" cy="504.96" r="3.2" fill="#1d4ed8"/>
<circle cx="299.86" cy="504.56" r="3.2" fill="#1d4ed8"/>
<circle cx="302.00" cy="504.15" r="3.2" fill="#1d4ed8"/>
<circle cx="304.15" cy="504.56" r="3.2" fill="#1d4ed8"/>
<circle cx="306.29" cy="503.75" r="3.2" fill="#1d4ed8"/>
<circle cx="308.43" cy="503.75" r="3.2" fill="#1d4ed8"/>
<circle cx="310.57" cy="503.35" r="3.2" fill="#1d4ed8"/>
<circle cx="312.71" cy="499.30" r="3.2" fill="#1d4ed8"/>
<circle cx="314.85" cy="496.47" r="3.2" fill="#1d4ed8"/>
<circle cx="316.99" cy="490.00" r="3.2" fill="#1d4ed8"/>
<circle cx="319.14" cy="484.34" r="3.2" fill="#1d4ed8"/>
<circle cx="321.28" cy="481.10" r="3.2" fill="#1d4ed8"/>
<circle cx="323.42" cy="480.29" r="3.2" fill="#1d4ed8"/>
<circle cx="325.56" cy="480.70" r="3.2" fill="#1d4ed8"/>
<circle cx="327.70" cy="460.88" r="3.2" fill="#1d4ed8"/>
<circle cx="329.84" cy="459.26" r="3.2" fill="#1d4ed8"/>
<circle cx="331.98" cy="458.05" r="3.2" fill="#1d4ed8"/>
<circle cx="334.13" cy="456.03" r="3.2" fill="#1d4ed8"/>
<circle cx="336.27" cy="456.03" r="3.2" fill="#1d4ed8"/>
<circle cx="338.41" cy="454.41" r="3.2" fill="#1d4ed8"/>
<circle cx="340.55" cy="450.77" r="3.2" fill="#1d4ed8"/>
<circle cx="342.69" cy="444.30" r="3.2" fill="#1d4ed8"/>
<circle cx="344.83" cy="443.90" r="3.2" fill="#1d4ed8"/>
<circle cx="346.97" cy="600.00" r="3.2" fill="#1d4ed8"/>
<circle cx="349.12" cy="441.88" r="3.2" fill="#1d4ed8"/>
<circle cx="351.26" cy="440.66" r="3.2" fill="#1d4ed8"/>
<circle cx="353.40" cy="439.45" r="3.2" fill="#1d4ed8"/>
<circle cx="355.54" cy="439.04" r="3.2" fill="#1d4ed8"/>
<circle cx="357.68" cy="438.64" r="3.2" fill="#1d4ed8"/>
<circle cx="359.82" cy="437.83" r="3.2" fill="#1d4ed8"/>
<circle cx="361.96" cy="436.62" r="3.2" fill="#1d4ed8"/>
<circle cx="364.11" cy="436.62" r="3.2" fill="#1d4ed8"/>
<circle cx="366.25" cy="434.60" r="3.2" fill="#1d4ed8"/>
<circle cx="368.39" cy="432.17" r="3.2" fill="#1d4ed8"/>
<circle cx="370.53" cy="429.34" r="3.2" fill="#1d4ed8"/>
<circle cx="372.67" cy="428.93" r="3.2" fill="#1d4ed8"/>
<circle cx="374.81" cy="428.53" r="3.2" fill="#1d4ed8"/>
<circle cx="376.95" cy="427.72" r="3.2" fill="#1d4ed8"/>
<circle cx="379.10" cy="426.91" r="3.2" fill="#1d4ed8"/>
<circle cx="381.24" cy="426.10" r="3.2" fill="#1d4ed8"/>
<circle cx="383.38" cy="426.10" r="3.2" fill="#1d4ed8"/>
<circle cx="385.52" cy="426.10" r="3.2" fill="#1d4ed8"/>
<circle cx="387.66" cy="419.63" r="3.2" fill="#1d4ed8"/>
<circle cx="389.80" cy="419.23" r="3.2" fill="#1d4ed8"/>
<circle cx="391.94" cy="418.42" r="3.2" fill="#1d4ed8"/>
<circle cx="394.09" cy="418.01" r="3.2" fill="#1d4ed8"/>
<circle cx="396.23" cy="417.61" r="3.2" fill="#1d4ed8"/>
<circle cx="398.37" cy="417.61" r="3.2" fill="#1d4ed8"/>
<circle cx="400.51" cy="417.61" r="3.2" fill="#1d4ed8"/>
<circle cx="402.65" cy="417.21" r="3.2" fill="#1d4ed8"/>
<circle cx="404.79" cy="417.21" r="3.2" fill="#1d4ed8"/>
<circle cx="406.94" cy="413.57" r="3.2" fill="#1d4ed8"/>
<circle cx="409.08" cy="411.95" r="3.2" fill="#1d4ed8"/>
<circle cx="411.22" cy="412.76" r="3.2" fill="#1d4ed8"/>
<circle cx="413.36" cy="410.74" r="3.2" fill="#1d4ed8"/>
<circle cx="415.50" cy="410.74" r="3.2" fill="#1d4ed8"/>
<circle cx="417.64" cy="410.33" r="3.2" fill="#1d4ed8"/>
<circle cx="419.78" cy="410.33" r="3.2" fill="#1d4ed8"/>
<circle cx="421.93" cy="410.33" r="3.2" fill="#1d4ed8"/>
<circle cx="424.07" cy="409.93" r="3.2" fill="#1d4ed8"/>
<circle cx="426.21" cy="409.93" r="3.2" fill="#1d4ed8"/>
<circle cx="428.35" cy="409.93" r="3.2" fill="#1d4ed8"/>
<circle cx="430.49" cy="409.52" r="3.2" fill="#1d4ed8"/>
<circle cx="432.63" cy="409.52" r="3.2" fill="#1d4ed8"/>
<circle cx="434.77" cy="409.12" r="3.2" fill="#1d4ed8"/>
<circle cx="436.92" cy="409.52" r="3.2" fill="#1d4ed8"/>
<circle cx="439.06" cy="409.12" r="3.2" fill="#1d4ed8"/>
<circle cx="441.20" cy="407.50" r="3.2" fill="#1d4ed8"/>
<circle cx="443.34" cy="407.10" r="3.2" fill="#1d4ed8"/>
<circle cx="445.48" cy="403.05" r="3.2" fill="#1d4ed8"/>
<circle cx="447.62" cy="399.82" r="3.2" fill="#1d4ed8"/>
<circle cx="449.76" cy="400.22" r="3.2" fill="#1d4ed8"/>
<circle cx="451.91" cy="400.62" r="3.2" fill="#1d4ed8"/>
<circle cx="454.05" cy="400.62" r="3.2" fill="#1d4ed8"/>
<circle cx="456.19" cy="399.41" r="3.2" fill="#1d4ed8"/>
<circle cx="458.33" cy="392.94" r="3.2" fill="#1d4ed8"/>
<circle cx="460.47" cy="391.32" r="3.2" fill="#1d4ed8"/>
<circle cx="462.61" cy="389.30" r="3.2" fill="#1d4ed8"/>
<circle cx="464.75" cy="389.30" r="3.2" fill="#1d4ed8"/>
<circle cx="466.90" cy="388.49" r="3.2" fill="#1d4ed8"/>
<circle cx="469.04" cy="375.15" r="3.2" fill="#1d4ed8"/>
<circle cx="471.18" cy="374.74" r="3.2" fill="#1d4ed8"/>
<circle cx="473.32" cy="374.74" r="3.2" fill="#1d4ed8"/>
<circle cx="475.46" cy="374.74" r="3.2" fill="#1d4ed8"/>
<circle cx="477.60" cy="374.74" r="3.2" fill="#1d4ed8"/>
<circle cx="479.74" cy="374.34" r="3.2" fill="#1d4ed8"/>
<circle cx="481.89" cy="374.34" r="3.2" fill="#1d4ed8"/>
<circle cx="484.03" cy="374.34" r="3.2" fill="#1d4ed8"/>
<circle cx="486.17" cy="374.34" r="3.2" fill="#1d4ed8"/>
<circle cx="488.31" cy="374.34" r="3.2" fill="#1d4ed8"/>
<circle cx="490.45" cy="373.93" r="3.2" fill="#1d4ed8"/>
<circle cx="492.59" cy="373.12" r="3.2" fill="#1d4ed8"/>
<circle cx="494.73" cy="372.72" r="3.2" fill="#1d4ed8"/>
<circle cx="496.88" cy="373.53" r="3.2" fill="#1d4ed8"/>
<circle cx="499.02" cy="435.81" r="3.2" fill="#1d4ed8"/>
<circle cx="501.16" cy="372.32" r="3.2" fill="#1d4ed8"/>
<circle cx="503.30" cy="372.72" r="3.2" fill="#1d4ed8"/>
<circle cx="505.44" cy="371.91" r="3.2" fill="#1d4ed8"/>
<circle cx="507.58" cy="371.91" r="3.2" fill="#1d4ed8"/>
<circle cx="509.72" cy="372.32" r="3.2" fill="#1d4ed8"/>
<circle cx="511.87" cy="371.10" r="3.2" fill="#1d4ed8"/>
<circle cx="514.01" cy="369.89" r="3.2" fill="#1d4ed8"/>
<circle cx="516.15" cy="369.89" r="3.2" fill="#1d4ed8"/>
<circle cx="518.29" cy="369.89" r="3.2" fill="#1d4ed8"/>
<circle cx="520.43" cy="369.49" r="3.2" fill="#1d4ed8"/>
<circle cx="522.57" cy="369.89" r="3.2" fill="#1d4ed8"/>
<circle cx="524.72" cy="369.08" r="3.2" fill="#1d4ed8"/>
<circle cx="526.86" cy="368.68" r="3.2" fill="#1d4ed8"/>
<circle cx="529.00" cy="368.27" r="3.2" fill="#1d4ed8"/>
<circle cx="531.14" cy="367.87" r="3.2" fill="#1d4ed8"/>
<circle cx="533.28" cy="367.06" r="3.2" fill="#1d4ed8"/>
<circle cx="535.42" cy="367.46" r="3.2" fill="#1d4ed8"/>
<circle cx="537.56" cy="367.06" r="3.2" fill="#1d4ed8"/>
<circle cx="539.71" cy="366.25" r="3.2" fill="#1d4ed8"/>
<circle cx="541.85" cy="368.27" r="3.2" fill="#1d4ed8"/>
<circle cx="543.99" cy="368.68" r="3.2" fill="#1d4ed8"/>
<circle cx="546.13" cy="368.68" r="3.2" fill="#1d4ed8"/>
<circle cx="548.27" cy="368.27" r="3.2" fill="#1d4ed8"/>
<circle cx="550.41" cy="369.08" r="3.2" fill="#1d4ed8"/>
<circle cx="552.55" cy="367.87" r="3.2" fill="#1d4ed8"/>
<circle cx="554.70" cy="367.46" r="3.2" fill="#1d4ed8"/>
<circle cx="556.84" cy="367.06" r="3.2" fill="#1d4ed8"/>
<circle cx="558.98" cy="360.18" r="3.2" fill="#1d4ed8"/>
<circle cx="561.12" cy="359.78" r="3.2" fill="#1d4ed8"/>
<circle cx="563.26" cy="359.38" r="3.2" fill="#1d4ed8"/>
<circle cx="565.40" cy="356.95" r="3.2" fill="#1d4ed8"/>
<circle cx="567.54" cy="357.35" r="3.2" fill="#1d4ed8"/>
<circle cx="569.69" cy="357.76" r="3.2" fill="#1d4ed8"/>
<circle cx="571.83" cy="355.33" r="3.2" fill="#1d4ed8"/>
<circle cx="573.97" cy="355.74" r="3.2" fill="#1d4ed8"/>
<circle cx="576.11" cy="357.35" r="3.2" fill="#1d4ed8"/>
<circle cx="578.25" cy="355.33" r="3.2" fill="#1d4ed8"/>
<circle cx="580.39" cy="356.14" r="3.2" fill="#1d4ed8"/>
<circle cx="582.53" cy="355.74" r="3.2" fill="#1d4ed8"/>
<circle cx="584.68" cy="356.14" r="3.2" fill="#1d4ed8"/>
<circle cx="586.82" cy="354.12" r="3.2" fill="#1d4ed8"/>
<circle cx="588.96" cy="354.93" r="3.2" fill="#1d4ed8"/>
<circle cx="591.10" cy="356.14" r="3.2" fill="#1d4ed8"/>
<circle cx="593.24" cy="354.52" r="3.2" fill="#1d4ed8"/>
<circle cx="595.38" cy="353.71" r="3.2" fill="#1d4ed8"/>
<circle cx="597.52" cy="354.12" r="3.2" fill="#1d4ed8"/>
<circle cx="599.67" cy="354.93" r="3.2" fill="#1d4ed8"/>
<circle cx="601.81" cy="352.90" r="3.2" fill="#1d4ed8"/>
<circle cx="603.95" cy="353.71" r="3.2" fill="#1d4ed8"/>
<circle cx="606.09" cy="353.31" r="3.2" fill="#1d4ed8"/>
<circle cx="608.23" cy="353.31" r="3.2" fill="#1d4ed8"/>
<circle cx="610.37" cy="354.52" r="3.2" fill="#1d4ed8"/>
<circle cx="612.51" cy="352.90" r="3.2" fill="#1d4ed8"/>
<circle cx="614.66" cy="352.50" r="3.2" fill="#1d4ed8"/>
<circle cx="616.80" cy="352.50" r="3.2" fill="#1d4ed8"/>
<circle cx="618.94" cy="353.31" r="3.2" fill="#1d4ed8"/>
<circle cx="621.08" cy="352.50" r="3.2" fill="#1d4ed8"/>
<circle cx="623.22" cy="353.71" r="3.2" fill="#1d4ed8"/>
<circle cx="625.36" cy="354.12" r="3.2" fill="#1d4ed8"/>
<circle cx="627.50" cy="352.50" r="3.2" fill="#1d4ed8"/>
<circle cx="629.65" cy="352.90" r="3.2" fill="#1d4ed8"/>
<circle cx="631.79" cy="352.50" r="3.2" fill="#1d4ed8"/>
<circle cx="633.93" cy="352.10" r="3.2" fill="#1d4ed8"/>
<circle cx="636.07" cy="351.69" r="3.2" fill="#1d4ed8"/>
<circle cx="638.21" cy="352.10" r="3.2" fill="#1d4ed8"/>
<circle cx="640.35" cy="354.12" r="3.2" fill="#1d4ed8"/>
<circle cx="642.50" cy="352.50" r="3.2" fill="#1d4ed8"/>
<circle cx="644.64" cy="352.10" r="3.2" fill="#1d4ed8"/>
<circle cx="646.78" cy="352.10" r="3.2" fill="#1d4ed8"/>
<circle cx="648.92" cy="349.67" r="3.2" fill="#1d4ed8"/>
<circle cx="651.06" cy="349.67" r="3.2" fill="#1d4ed8"/>
<circle cx="653.20" cy="350.88" r="3.2" fill="#1d4ed8"/>
<circle cx="655.34" cy="351.29" r="3.2" fill="#1d4ed8"/>
<circle cx="657.49" cy="350.48" r="3.2" fill="#1d4ed8"/>
<circle cx="659.63" cy="352.10" r="3.2" fill="#1d4ed8"/>
<circle cx="661.77" cy="350.48" r="3.2" fill="#1d4ed8"/>
<circle cx="663.91" cy="350.48" r="3.2" fill="#1d4ed8"/>
<circle cx="666.05" cy="350.48" r="3.2" fill="#1d4ed8"/>
<circle cx="668.19" cy="350.07" r="3.2" fill="#1d4ed8"/>
<circle cx="670.33" cy="348.46" r="3.2" fill="#1d4ed8"/>
<circle cx="672.48" cy="351.29" r="3.2" fill="#1d4ed8"/>
<circle cx="674.62" cy="349.67" r="3.2" fill="#1d4ed8"/>
<circle cx="676.76" cy="351.29" r="3.2" fill="#1d4ed8"/>
<circle cx="678.90" cy="349.67" r="3.2" fill="#1d4ed8"/>
<circle cx="681.04" cy="348.86" r="3.2" fill="#1d4ed8"/>
<circle cx="683.18" cy="348.46" r="3.2" fill="#1d4ed8"/>
<circle cx="685.32" cy="348.46" r="3.2" fill="#1d4ed8"/>
<circle cx="687.47" cy="347.24" r="3.2" fill="#1d4ed8"/>
<circle cx="689.61" cy="348.86" r="3.2" fill="#1d4ed8"/>
<circle cx="691.75" cy="346.84" r="3.2" fill="#1d4ed8"/>
<circle cx="693.89" cy="348.46" r="3.2" fill="#1d4ed8"/>
<circle cx="696.03" cy="348.86" r="3.2" fill="#1d4ed8"/>
<circle cx="698.17" cy="346.84" r="3.2" fill="#1d4ed8"/>
<circle cx="700.31" cy="349.26" r="3.2" fill="#1d4ed8"/>
<circle cx="702.46" cy="348.05" r="3.2" fill="#1d4ed8"/>
<circle cx="704.60" cy="349.26" r="3.2" fill="#1d4ed8"/>
<circle cx="706.74" cy="349.26" r="3.2" fill="#1d4ed8"/>
<circle cx="708.88" cy="350.48" r="3.2" fill="#1d4ed8"/>
<circle cx="711.02" cy="352.90" r="3.2" fill="#1d4ed8"/>
<circle cx="713.16" cy="349.67" r="3.2" fill="#1d4ed8"/>
<circle cx="715.30" cy="348.46" r="3.2" fill="#1d4ed8"/>
<circle cx="717.45" cy="345.62" r="3.2" fill="#1d4ed8"/>
<circle cx="719.59" cy="344.82" r="3.2" fill="#1d4ed8"/>
<circle cx="721.73" cy="344.41" r="3.2" fill="#1d4ed8"/>
<circle cx="723.87" cy="342.39" r="3.2" fill="#1d4ed8"/>
<circle cx="726.01" cy="341.18" r="3.2" fill="#1d4ed8"/>
<circle cx="728.15" cy="341.58" r="3.2" fill="#1d4ed8"/>
<circle cx="730.29" cy="339.15" r="3.2" fill="#1d4ed8"/>
<circle cx="732.44" cy="338.35" r="3.2" fill="#1d4ed8"/>
<circle cx="734.58" cy="337.54" r="3.2" fill="#1d4ed8"/>
<circle cx="736.72" cy="336.73" r="3.2" fill="#1d4ed8"/>
<circle cx="738.86" cy="335.92" r="3.2" fill="#1d4ed8"/>
<circle cx="741.00" cy="337.54" r="3.2" fill="#1d4ed8"/>
<circle cx="743.14" cy="338.35" r="3.2" fill="#1d4ed8"/>
<circle cx="745.28" cy="337.54" r="3.2" fill="#1d4ed8"/>
<circle cx="747.43" cy="337.54" r="3.2" fill="#1d4ed8"/>
<circle cx="749.57" cy="337.54" r="3.2" fill="#1d4ed8"/>
<circle cx="751.71" cy="333.09" r="3.2" fill="#1d4ed8"/>
<circle cx="753.85" cy="333.90" r="3.2" fill="#1d4ed8"/>
<circle cx="755.99" cy="335.92" r="3.2" fill="#1d4ed8"/>
<circle cx="758.13" cy="336.73" r="3.2" fill="#1d4ed8"/>
<circle cx="760.28" cy="335.51" r="3.2" fill="#1d4ed8"/>
<circle cx="762.42" cy="332.28" r="3.2" fill="#1d4ed8"/>
<circle cx="764.56" cy="331.47" r="3.2" fill="#1d4ed8"/>
<circle cx="766.70" cy="331.07" r="3.2" fill="#1d4ed8"/>
<circle cx="768.84" cy="331.47" r="3.2" fill="#1d4ed8"/>
<circle cx="770.98" cy="331.07" r="3.2" fill="#1d4ed8"/>
<circle cx="773.12" cy="331.07" r="3.2" fill="#1d4ed8"/>
<circle cx="775.27" cy="331.07" r="3.2" fill="#1d4ed8"/>
<circle cx="777.41" cy="331.07" r="3.2" fill="#1d4ed8"/>
<circle cx="779.55" cy="331.07" r="3.2" fill="#1d4ed8"/>
<circle cx="781.69" cy="331.07" r="3.2" fill="#1d4ed8"/>
<circle cx="783.83" cy="331.07" r="3.2" fill="#1d4ed8"/>
<circle cx="785.97" cy="331.07" r="3.2" fill="#1d4ed8"/>
<circle cx="788.11" cy="331.07" r="3.2" fill="#1d4ed8"/>
<circle cx="790.26" cy="331.07" r="3.2" fill="#1d4ed8"/>
<circle cx="792.40" cy="331.47" r="3.2" fill="#1d4ed8"/>
<circle cx="794.54" cy="331.88" r="3.2" fill="#1d4ed8"/>
<circle cx="796.68" cy="331.07" r="3.2" fill="#1d4ed8"/>
<circle cx="798.82" cy="331.47" r="3.2" fill="#1d4ed8"/>
<circle cx="800.96" cy="331.07" r="3.2" fill="#1d4ed8"/>
<circle cx="803.10" cy="331.47" r="3.2" fill="#1d4ed8"/>
<circle cx="805.25" cy="331.07" r="3.2" fill="#1d4ed8"/>
<circle cx="807.39" cy="324.19" r="3.2" fill="#1d4ed8"/>
<circle cx="809.53" cy="324.19" r="3.2" fill="#1d4ed8"/>
<circle cx="811.67" cy="318.93" r="3.2" fill="#1d4ed8"/>
<circle cx="813.81" cy="316.51" r="3.2" fill="#1d4ed8"/>
<circle cx="815.95" cy="310.44" r="3.2" fill="#1d4ed8"/>
<circle cx="818.09" cy="308.01" r="3.2" fill="#1d4ed8"/>
<circle cx="820.24" cy="600.00" r="3.2" fill="#1d4ed8"/>
<circle cx="822.38" cy="301.54" r="3.2" fill="#1d4ed8"/>
<circle cx="824.52" cy="290.22" r="3.2" fill="#1d4ed8"/>
<circle cx="826.66" cy="287.79" r="3.2" fill="#1d4ed8"/>
<circle cx="828.80" cy="286.18" r="3.2" fill="#1d4ed8"/>
<circle cx="830.94" cy="285.77" r="3.2" fill="#1d4ed8"/>
<circle cx="833.08" cy="285.77" r="3.2" fill="#1d4ed8"/>
<circle cx="835.23" cy="285.77" r="3.2" fill="#1d4ed8"/>
<circle cx="837.37" cy="286.18" r="3.2" fill="#1d4ed8"/>
<circle cx="839.51" cy="285.77" r="3.2" fill="#1d4ed8"/>
<circle cx="841.65" cy="285.77" r="3.2" fill="#1d4ed8"/>
<circle cx="843.79" cy="285.77" r="3.2" fill="#1d4ed8"/>
<circle cx="845.93" cy="283.35" r="3.2" fill="#1d4ed8"/>
<circle cx="848.07" cy="282.94" r="3.2" fill="#1d4ed8"/>
<circle cx="850.22" cy="282.94" r="3.2" fill="#1d4ed8"/>
<circle cx="852.36" cy="283.35" r="3.2" fill="#1d4ed8"/>
<circle cx="854.50" cy="282.94" r="3.2" fill="#1d4ed8"/>
<circle cx="856.64" cy="282.94" r="3.2" fill="#1d4ed8"/>
<circle cx="858.78" cy="283.75" r="3.2" fill="#1d4ed8"/>
<circle cx="860.92" cy="282.13" r="3.2" fill="#1d4ed8"/>
<circle cx="863.06" cy="282.13" r="3.2" fill="#1d4ed8"/>
<circle cx="865.21" cy="282.54" r="3.2" fill="#1d4ed8"/>
<circle cx="867.35" cy="282.13" r="3.2" fill="#1d4ed8"/>
<circle cx="869.49" cy="282.54" r="3.2" fill="#1d4ed8"/>
<circle cx="871.63" cy="282.94" r="3.2" fill="#1d4ed8"/>
<circle cx="873.77" cy="281.73" r="3.2" fill="#1d4ed8"/>
<circle cx="875.91" cy="282.54" r="3.2" fill="#1d4ed8"/>
<circle cx="878.06" cy="281.73" r="3.2" fill="#1d4ed8"/>
<circle cx="880.20" cy="282.54" r="3.2" fill="#1d4ed8"/>
<circle cx="882.34" cy="282.13" r="3.2" fill="#1d4ed8"/>
<circle cx="884.48" cy="282.13" r="3.2" fill="#1d4ed8"/>
<circle cx="886.62" cy="281.73" r="3.2" fill="#1d4ed8"/>
<circle cx="888.76" cy="281.73" r="3.2" fill="#1d4ed8"/>
<circle cx="890.90" cy="281.32" r="3.2" fill="#1d4ed8"/>
<circle cx="893.05" cy="281.73" r="3.2" fill="#1d4ed8"/>
<circle cx="895.19" cy="282.13" r="3.2" fill="#1d4ed8"/>
<circle cx="897.33" cy="281.32" r="3.2" fill="#1d4ed8"/>
<circle cx="899.47" cy="281.32" r="3.2" fill="#1d4ed8"/>
<circle cx="901.61" cy="282.54" r="3.2" fill="#1d4ed8"/>
<circle cx="903.75" cy="282.13" r="3.2" fill="#1d4ed8"/>
<circle cx="905.89" cy="281.32" r="3.2" fill="#1d4ed8"/>
<circle cx="908.04" cy="281.32" r="3.2" fill="#1d4ed8"/>
<circle cx="910.18" cy="281.32" r="3.2" fill="#1d4ed8"/>
<circle cx="912.32" cy="282.54" r="3.2" fill="#1d4ed8"/>
<circle cx="914.46" cy="282.13" r="3.2" fill="#1d4ed8"/>
<circle cx="916.60" cy="281.32" r="3.2" fill="#1d4ed8"/>
<circle cx="918.74" cy="282.13" r="3.2" fill="#1d4ed8"/>
<circle cx="920.88" cy="281.73" r="3.2" fill="#1d4ed8"/>
<circle cx="923.03" cy="282.13" r="3.2" fill="#1d4ed8"/>
<circle cx="925.17" cy="280.11" r="3.2" fill="#1d4ed8"/>
<circle cx="927.31" cy="280.11" r="3.2" fill="#1d4ed8"/>
<circle cx="929.45" cy="280.51" r="3.2" fill="#1d4ed8"/>
<circle cx="931.59" cy="279.71" r="3.2" fill="#1d4ed8"/>
<circle cx="933.73" cy="280.11" r="3.2" fill="#1d4ed8"/>
<circle cx="935.87" cy="280.51" r="3.2" fill="#1d4ed8"/>
<circle cx="938.02" cy="279.71" r="3.2" fill="#1d4ed8"/>
<circle cx="940.16" cy="280.11" r="3.2" fill="#1d4ed8"/>
<circle cx="942.30" cy="280.11" r="3.2" fill="#1d4ed8"/>
<circle cx="944.44" cy="279.30" r="3.2" fill="#1d4ed8"/>
<circle cx="946.58" cy="278.90" r="3.2" fill="#1d4ed8"/>
<circle cx="948.72" cy="278.90" r="3.2" fill="#1d4ed8"/>
<circle cx="950.86" cy="280.51" r="3.2" fill="#1d4ed8"/>
<circle cx="953.01" cy="279.30" r="3.2" fill="#1d4ed8"/>
<circle cx="955.15" cy="278.09" r="3.2" fill="#1d4ed8"/>
<circle cx="957.29" cy="278.49" r="3.2" fill="#1d4ed8"/>
<circle cx="959.43" cy="278.49" r="3.2" fill="#1d4ed8"/>
<circle cx="961.57" cy="277.28" r="3.2" fill="#1d4ed8"/>
<circle cx="963.71" cy="277.68" r="3.2" fill="#1d4ed8"/>
<circle cx="965.85" cy="277.68" r="3.2" fill="#1d4ed8"/>
<circle cx="968.00" cy="278.09" r="3.2" fill="#1d4ed8"/>
<circle cx="970.14" cy="277.28" r="3.2" fill="#1d4ed8"/>
<circle cx="972.28" cy="600.00" r="3.2" fill="#1d4ed8"/>
<circle cx="974.42" cy="278.90" r="3.2" fill="#1d4ed8"/>
<circle cx="976.56" cy="279.30" r="3.2" fill="#1d4ed8"/>
<circle cx="978.70" cy="278.90" r="3.2" fill="#1d4ed8"/>
<circle cx="980.84" cy="278.49" r="3.2" fill="#1d4ed8"/>
<circle cx="982.99" cy="278.49" r="3.2" fill="#1d4ed8"/>
<circle cx="985.13" cy="278.49" r="3.2" fill="#1d4ed8"/>
<circle cx="987.27" cy="278.49" r="3.2" fill="#1d4ed8"/>
<circle cx="989.41" cy="278.49" r="3.2" fill="#1d4ed8"/>
<circle cx="991.55" cy="278.49" r="3.2" fill="#1d4ed8"/>
<circle cx="993.69" cy="278.49" r="3.2" fill="#1d4ed8"/>
<circle cx="995.83" cy="278.49" r="3.2" fill="#1d4ed8"/>
<circle cx="997.98" cy="278.49" r="3.2" fill="#1d4ed8"/>
<circle cx="1000.12" cy="278.49" r="3.2" fill="#1d4ed8"/>
<circle cx="1002.26" cy="278.49" r="3.2" fill="#1d4ed8"/>
<circle cx="1004.40" cy="278.49" r="3.2" fill="#1d4ed8"/>
<circle cx="1006.54" cy="600.00" r="3.2" fill="#1d4ed8"/>
<circle cx="1008.68" cy="600.00" r="3.2" fill="#1d4ed8"/>
<circle cx="1010.83" cy="254.63" r="3.2" fill="#1d4ed8"/>
<circle cx="1012.97" cy="600.00" r="3.2" fill="#1d4ed8"/>
<circle cx="1015.11" cy="245.74" r="3.2" fill="#1d4ed8"/>
<circle cx="1017.25" cy="245.74" r="3.2" fill="#1d4ed8"/>
<circle cx="1019.39" cy="246.14" r="3.2" fill="#1d4ed8"/>
<circle cx="1021.53" cy="245.74" r="3.2" fill="#1d4ed8"/>
<circle cx="1023.67" cy="245.74" r="3.2" fill="#1d4ed8"/>
<circle cx="1025.82" cy="245.74" r="3.2" fill="#1d4ed8"/>
<circle cx="1027.96" cy="245.74" r="3.2" fill="#1d4ed8"/>
<circle cx="1030.10" cy="245.74" r="3.2" fill="#1d4ed8"/>
<circle cx="1032.24" cy="240.07" r="3.2" fill="#1d4ed8"/>
<circle cx="1034.38" cy="238.05" r="3.2" fill="#1d4ed8"/>
<circle cx="1036.52" cy="238.05" r="3.2" fill="#1d4ed8"/>
<circle cx="1038.66" cy="227.13" r="3.2" fill="#1d4ed8"/>
<circle cx="1040.81" cy="227.13" r="3.2" fill="#1d4ed8"/>
<circle cx="1042.95" cy="226.32" r="3.2" fill="#1d4ed8"/>
<circle cx="1045.09" cy="227.54" r="3.2" fill="#1d4ed8"/>
<circle cx="1047.23" cy="226.73" r="3.2" fill="#1d4ed8"/>
<circle cx="1049.37" cy="226.32" r="3.2" fill="#1d4ed8"/>
<circle cx="1051.51" cy="227.13" r="3.2" fill="#1d4ed8"/>
<circle cx="1053.65" cy="227.13" r="3.2" fill="#1d4ed8"/>
<circle cx="1055.80" cy="226.73" r="3.2" fill="#1d4ed8"/>
<circle cx="1057.94" cy="226.32" r="3.2" fill="#1d4ed8"/>
<circle cx="1060.08" cy="226.73" r="3.2" fill="#1d4ed8"/>
<circle cx="1062.22" cy="226.73" r="3.2" fill="#1d4ed8"/>
<circle cx="1064.36" cy="226.73" r="3.2" fill="#1d4ed8"/>
<circle cx="1066.50" cy="225.11" r="3.2" fill="#1d4ed8"/>
<circle cx="1068.64" cy="224.71" r="3.2" fill="#1d4ed8"/>
<circle cx="1070.79" cy="225.11" r="3.2" fill="#1d4ed8"/>
<circle cx="1072.93" cy="224.30" r="3.2" fill="#1d4ed8"/>
<circle cx="1075.07" cy="226.32" r="3.2" fill="#1d4ed8"/>
<circle cx="1077.21" cy="224.30" r="3.2" fill="#1d4ed8"/>
<circle cx="1079.35" cy="225.51" r="3.2" fill="#1d4ed8"/>
<circle cx="1081.49" cy="225.51" r="3.2" fill="#1d4ed8"/>
<circle cx="1083.63" cy="225.51" r="3.2" fill="#1d4ed8"/>
<circle cx="1085.78" cy="225.92" r="3.2" fill="#1d4ed8"/>
<circle cx="1087.92" cy="223.09" r="3.2" fill="#1d4ed8"/>
<circle cx="1090.06" cy="223.49" r="3.2" fill="#1d4ed8"/>
<circle cx="1092.20" cy="223.09" r="3.2" fill="#1d4ed8"/>
<circle cx="1094.34" cy="223.09" r="3.2" fill="#1d4ed8"/>
<circle cx="1096.48" cy="223.90" r="3.2" fill="#1d4ed8"/>
<circle cx="1098.62" cy="223.49" r="3.2" fill="#1d4ed8"/>
<circle cx="1100.77" cy="223.49" r="3.2" fill="#1d4ed8"/>
<circle cx="1102.91" cy="223.09" r="3.2" fill="#1d4ed8"/>
<circle cx="1105.05" cy="223.09" r="3.2" fill="#1d4ed8"/>
<circle cx="1107.19" cy="223.49" r="3.2" fill="#1d4ed8"/>
<circle cx="1109.33" cy="223.09" r="3.2" fill="#1d4ed8"/>
<circle cx="1111.47" cy="223.09" r="3.2" fill="#1d4ed8"/>
<circle cx="1113.61" cy="223.49" r="3.2" fill="#1d4ed8"/>
<circle cx="1115.76" cy="223.49" r="3.2" fill="#1d4ed8"/>
<circle cx="1117.90" cy="223.09" r="3.2" fill="#1d4ed8"/>
<circle cx="1120.04" cy="223.09" r="3.2" fill="#1d4ed8"/>
<circle cx="1122.18" cy="223.49" r="3.2" fill="#1d4ed8"/>
<circle cx="1124.32" cy="223.09" r="3.2" fill="#1d4ed8"/>
<circle cx="1126.46" cy="223.09" r="3.2" fill="#1d4ed8"/>
<circle cx="1128.61" cy="223.09" r="3.2" fill="#1d4ed8"/>
<circle cx="1130.75" cy="223.49" r="3.2" fill="#1d4ed8"/>
<circle cx="1132.89" cy="223.49" r="3.2" fill="#1d4ed8"/>
<circle cx="1135.03" cy="223.49" r="3.2" fill="#1d4ed8"/>
<circle cx="1137.17" cy="223.09" r="3.2" fill="#1d4ed8"/>
<circle cx="1139.31" cy="223.49" r="3.2" fill="#1d4ed8"/>
<circle cx="1141.45" cy="223.09" r="3.2" fill="#1d4ed8"/>
<circle cx="1143.60" cy="223.09" r="3.2" fill="#1d4ed8"/>
<circle cx="1145.74" cy="223.49" r="3.2" fill="#1d4ed8"/>
<circle cx="1147.88" cy="223.09" r="3.2" fill="#1d4ed8"/>
<circle cx="1150.02" cy="223.09" r="3.2" fill="#1d4ed8"/>
<circle cx="1152.16" cy="223.49" r="3.2" fill="#1d4ed8"/>
<circle cx="1154.30" cy="222.68" r="3.2" fill="#1d4ed8"/>
<circle cx="1156.44" cy="221.88" r="3.2" fill="#1d4ed8"/>
<circle cx="1158.59" cy="223.49" r="3.2" fill="#1d4ed8"/>
<circle cx="1160.73" cy="223.09" r="3.2" fill="#1d4ed8"/>
<circle cx="1162.87" cy="223.49" r="3.2" fill="#1d4ed8"/>
<circle cx="1165.01" cy="224.30" r="3.2" fill="#1d4ed8"/>
<circle cx="1167.15" cy="201.65" r="3.2" fill="#1d4ed8"/>
<circle cx="1169.29" cy="201.65" r="3.2" fill="#1d4ed8"/>
<circle cx="1171.43" cy="186.69" r="3.2" fill="#1d4ed8"/>
<circle cx="1173.58" cy="176.18" r="3.2" fill="#1d4ed8"/>
<circle cx="1175.72" cy="174.15" r="3.2" fill="#1d4ed8"/>
<circle cx="1177.86" cy="172.94" r="3.2" fill="#1d4ed8"/>
<circle cx="1180.00" cy="172.94" r="3.2" fill="#1d4ed8"/>
<text x="635" y="695" text-anchor="middle" font-size="14" fill="#111" font-family="sans-serif">Date</text>
<text x="24" y="325" text-anchor="middle" font-size="14" fill="#111" transform="rotate(-90 24,325)" font-family="sans-serif">Passed files</text>
</svg>
