<?xml version="1.0" encoding="UTF-8"?>
<svg xmlns="http://www.w3.org/2000/svg" width="1280" height="720" viewBox="0 0 1280 720">
<rect width="100%" height="100%" fill="#ffffff"/>
<text x="640" y="30" text-anchor="middle" font-size="22" font-family="sans-serif">Roast passed files history</text>
<line x1="90" y1="600" x2="1180" y2="600" stroke="#333" stroke-width="1.5"/>
<line x1="90" y1="50" x2="90" y2="600" stroke="#333" stroke-width="1.5"/>
<line x1="90" y1="600.00" x2="1180" y2="600.00" stroke="#e5e7eb" stroke-width="1"/>
<text x="78" y="605.00" text-anchor="end" font-size="12" fill="#111" font-family="sans-serif">0</text>
<line x1="90" y1="397.79" x2="1180" y2="397.79" stroke="#e5e7eb" stroke-width="1"/>
<text x="78" y="402.79" text-anchor="end" font-size="12" fill="#111" font-family="sans-serif">500</text>
<line x1="90" y1="195.59" x2="1180" y2="195.59" stroke="#e5e7eb" stroke-width="1"/>
<text x="78" y="200.59" text-anchor="end" font-size="12" fill="#111" font-family="sans-serif">1000</text>
<line x1="90.00" y1="600" x2="90.00" y2="606" stroke="#333" stroke-width="1"/>
<text x="90.00" y="624" text-anchor="end" font-size="11" fill="#111" transform="rotate(-40 90.00,624)" font-family="sans-serif">2026-02-12</text>
<line x1="223.08" y1="600" x2="223.08" y2="606" stroke="#333" stroke-width="1"/>
<text x="223.08" y="624" text-anchor="end" font-size="11" fill="#111" transform="rotate(-40 223.08,624)" font-family="sans-serif">2026-02-15</text>
<line x1="356.16" y1="600" x2="356.16" y2="606" stroke="#333" stroke-width="1"/>
<text x="356.16" y="624" text-anchor="end" font-size="11" fill="#111" transform="rotate(-40 356.16,624)" font-family="sans-serif">2026-02-17</text>
<line x1="489.24" y1="600" x2="489.24" y2="606" stroke="#333" stroke-width="1"/>
<text x="489.24" y="624" text-anchor="end" font-size="11" fill="#111" transform="rotate(-40 489.24,624)" font-family="sans-serif">2026-02-19</text>
<line x1="622.33" y1="600" x2="622.33" y2="606" stroke="#333" stroke-width="1"/>
<text x="622.33" y="624" text-anchor="end" font-size="11" fill="#111" transform="rotate(-40 622.33,624)" font-family="sans-serif">2026-02-21</text>
<line x1="755.41" y1="600" x2="755.41" y2="606" stroke="#333" stroke-width="1"/>
<text x="755.41" y="624" text-anchor="end" font-size="11" fill="#111" transform="rotate(-40 755.41,624)" font-family="sans-serif">2026-02-23</text>
<line x1="888.49" y1="600" x2="888.49" y2="606" stroke="#333" stroke-width="1"/>
<text x="888.49" y="624" text-anchor="end" font-size="11" fill="#111" transform="rotate(-40 888.49,624)" font-family="sans-serif">2026-02-25</text>
<line x1="1021.57" y1="600" x2="1021.57" y2="606" stroke="#333" stroke-width="1"/>
<text x="1021.57" y="624" text-anchor="end" font-size="11" fill="#111" transform="rotate(-40 1021.57,624)" font-family="sans-serif">2026-02-26</text>
<line x1="1154.65" y1="600" x2="1154.65" y2="606" stroke="#333" stroke-width="1"/>
<text x="1154.65" y="624" text-anchor="end" font-size="11" fill="#111" transform="rotate(-40 1154.65,624)" font-family="sans-serif">2026-02-27</text>
<line x1="1180.00" y1="600" x2="1180.00" y2="606" stroke="#333" stroke-width="1"/>
<text x="1180.00" y="624" text-anchor="end" font-size="11" fill="#111" transform="rotate(-40 1180.00,624)" font-family="sans-serif">2026-02-28</text>
<line x1="90" y1="75.88" x2="1180" y2="75.88" stroke="#dc2626" stroke-width="1.5" stroke-dasharray="8,4"/>
<text x="1184" y="79.88" font-size="12" fill="#dc2626" font-family="sans-serif">Goal: 1296</text>
<polyline fill="none" stroke="#2563eb" stroke-width="3" points="90.00,540.55 96.34,538.53 102.67,536.91 109.01,534.49 115.35,534.49 121.69,533.27 128.02,532.46 134.36,532.87 140.70,532.06 147.03,532.46 153.37,532.06 159.71,568.46 166.05,568.46 172.38,566.43 178.72,545.00 185.06,545.00 191.40,544.19 197.73,543.79 204.07,543.79 210.41,543.38 216.74,541.76 223.08,541.36 229.42,540.96 235.76,540.96 242.09,539.34 248.43,539.34 254.77,556.73 261.10,556.73 267.44,555.51 273.78,551.07 280.12,538.93 286.45,538.93 292.79,538.93 299.13,538.12 305.47,536.91 311.80,536.91 318.14,536.51 324.48,536.51 330.81,556.73 337.15,556.73 343.49,556.73 349.83,556.73 356.16,535.29 362.50,535.29 368.84,535.29 375.17,535.29 381.51,534.49 387.85,534.08 394.19,533.68 400.52,532.87 406.86,532.06 413.20,532.06 419.53,531.25 425.87,530.85 432.21,530.44 438.55,530.04 444.88,530.04 451.22,529.23 457.56,529.23 463.90,529.23 470.23,528.42 476.57,528.42 482.91,527.61 489.24,527.21 495.58,526.80 501.92,526.40 508.26,525.18 514.59,523.57 520.93,523.57 527.27,523.16 533.60,522.76 539.94,522.35 546.28,521.54 552.62,519.52 558.95,517.50 565.29,517.50 571.63,517.50 577.97,517.50 584.30,517.50 590.64,517.50 596.98,517.10 603.31,516.69 609.65,515.48 615.99,515.07 622.33,514.67 628.66,513.86 635.00,514.26 641.34,512.24 647.67,511.84 654.01,511.84 660.35,511.03 666.69,509.82 673.02,507.79 679.36,506.99 685.70,506.58 692.03,509.41 698.37,509.01 704.71,504.96 711.05,504.56 717.38,504.15 723.72,504.56 730.06,503.75 736.40,503.75 742.73,503.35 749.07,499.30 755.41,496.47 761.74,490.00 768.08,484.34 774.42,481.10 780.76,480.29 787.09,480.70 793.43,460.88 799.77,459.26 806.10,458.05 812.44,456.03 818.78,456.03 825.12,454.41 831.45,450.77 837.79,444.30 844.13,443.90 850.47,600.00 856.80,441.88 863.14,440.66 869.48,439.45 875.81,439.04 882.15,438.64 888.49,437.83 894.83,436.62 901.16,436.62 907.50,434.60 913.84,432.17 920.17,429.34 926.51,428.93 932.85,428.53 939.19,427.72 945.52,426.91 951.86,426.10 958.20,426.10 964.53,426.10 970.87,419.63 977.21,419.23 983.55,418.42 989.88,418.01 996.22,417.61 1002.56,417.61 1008.90,417.61 1015.23,417.21 1021.57,417.21 1027.91,413.57 1034.24,411.95 1040.58,412.76 1046.92,410.74 1053.26,410.74 1059.59,410.33 1065.93,410.33 1072.27,410.33 1078.60,409.93 1084.94,409.93 1091.28,409.93 1097.62,409.52 1103.95,409.52 1110.29,409.12 1116.63,409.52 1122.97,409.12 1129.30,407.50 1135.64,407.10 1141.98,403.05 1148.31,399.82 1154.65,400.22 1160.99,400.62 1167.33,400.62 1173.66,399.41 1180.00,392.94"/>
<circle cx="90.00" cy="540.55" r="3.2" fill="#1d4ed8"/>
<circle cx="96.34" cy="538.53" r="3.2" fill="#1d4ed8"/>
<circle cx="102.67" cy="536.91" r="3.2" fill="#1d4ed8"/>
<circle cx="109.01" cy="534.49" r="3.2" fill="#1d4ed8"/>
<circle cx="115.35" cy="534.49" r="3.2" fill="#1d4ed8"/>
<circle cx="121.69" cy="533.27" r="3.2" fill="#1d4ed8"/>
<circle cx="128.02" cy="532.46" r="3.2" fill="#1d4ed8"/>
<circle cx="134.36" cy="532.87" r="3.2" fill="#1d4ed8"/>
<circle cx="140.70" cy="532.06" r="3.2" fill="#1d4ed8"/>
<circle cx="147.03" cy="532.46" r="3.2" fill="#1d4ed8"/>
<circle cx="153.37" cy="532.06" r="3.2" fill="#1d4ed8"/>
<circle cx="159.71" cy="568.46" r="3.2" fill="#1d4ed8"/>
<circle cx="166.05" cy="568.46" r="3.2" fill="#1d4ed8"/>
<circle cx="172.38" cy="566.43" r="3.2" fill="#1d4ed8"/>
<circle cx="178.72" cy="545.00" r="3.2" fill="#1d4ed8"/>
<circle cx="185.06" cy="545.00" r="3.2" fill="#1d4ed8"/>
<circle cx="191.40" cy="544.19" r="3.2" fill="#1d4ed8"/>
<circle cx="197.73" cy="543.79" r="3.2" fill="#1d4ed8"/>
<circle cx="204.07" cy="543.79" r="3.2" fill="#1d4ed8"/>
<circle cx="210.41" cy="543.38" r="3.2" fill="#1d4ed8"/>
<circle cx="216.74" cy="541.76" r="3.2" fill="#1d4ed8"/>
<circle cx="223.08" cy="541.36" r="3.2" fill="#1d4ed8"/>
<circle cx="229.42" cy="540.96" r="3.2" fill="#1d4ed8"/>
<circle cx="235.76" cy="540.96" r="3.2" fill="#1d4ed8"/>
<circle cx="242.09" cy="539.34" r="3.2" fill="#1d4ed8"/>
<circle cx="248.43" cy="539.34" r="3.2" fill="#1d4ed8"/>
<circle cx="254.77" cy="556.73" r="3.2" fill="#1d4ed8"/>
<circle cx="261.10" cy="556.73" r="3.2" fill="#1d4ed8"/>
<circle cx="267.44" cy="555.51" r="3.2" fill="#1d4ed8"/>
<circle cx="273.78" cy="551.07" r="3.2" fill="#1d4ed8"/>
<circle cx="280.12" cy="538.93" r="3.2" fill="#1d4ed8"/>
<circle cx="286.45" cy="538.93" r="3.2" fill="#1d4ed8"/>
<circle cx="292.79" cy="538.93" r="3.2" fill="#1d4ed8"/>
<circle cx="299.13" cy="538.12" r="3.2" fill="#1d4ed8"/>
<circle cx="305.47" cy="536.91" r="3.2" fill="#1d4ed8"/>
<circle cx="311.80" cy="536.91" r="3.2" fill="#1d4ed8"/>
<circle cx="318.14" cy="536.51" r="3.2" fill="#1d4ed8"/>
<circle cx="324.48" cy="536.51" r="3.2" fill="#1d4ed8"/>
<circle cx="330.81" cy="556.73" r="3.2" fill="#1d4ed8"/>
<circle cx="337.15" cy="556.73" r="3.2" fill="#1d4ed8"/>
<circle cx="343.49" cy="556.73" r="3.2" fill="#1d4ed8"/>
<circle cx="349.83" cy="556.73" r="3.2" fill="#1d4ed8"/>
<circle cx="356.16" cy="535.29" r="3.2" fill="#1d4ed8"/>
<circle cx="362.50" cy="535.29" r="3.2" fill="#1d4ed8"/>
<circle cx="368.84" cy="535.29" r="3.2" fill="#1d4ed8"/>
<circle cx="375.17" cy="535.29" r="3.2" fill="#1d4ed8"/>
<circle cx="381.51" cy="534.49" r="3.2" fill="#1d4ed8"/>
<circle cx="387.85" cy="534.08" r="3.2" fill="#1d4ed8"/>
<circle cx="394.19" cy="533.68" r="3.2" fill="#1d4ed8"/>
<circle cx="400.52" cy="532.87" r="3.2" fill="#1d4ed8"/>
<circle cx="406.86" cy="532.06" r="3.2" fill="#1d4ed8"/>
<circle cx="413.20" cy="532.06" r="3.2" fill="#1d4ed8"/>
<circle cx="419.53" cy="531.25" r="3.2" fill="#1d4ed8"/>
<circle cx="425.87" cy="530.85" r="3.2" fill="#1d4ed8"/>
<circle cx="432.21" cy="530.44" r="3.2" fill="#1d4ed8"/>
<circle cx="438.55" cy="530.04" r="3.2" fill="#1d4ed8"/>
<circle cx="444.88" cy="530.04" r="3.2" fill="#1d4ed8"/>
<circle cx="451.22" cy="529.23" r="3.2" fill="#1d4ed8"/>
<circle cx="457.56" cy="529.23" r="3.2" fill="#1d4ed8"/>
<circle cx="463.90" cy="529.23" r="3.2" fill="#1d4ed8"/>
<circle cx="470.23" cy="528.42" r="3.2" fill="#1d4ed8"/>
<circle cx="476.57" cy="528.42" r="3.2" fill="#1d4ed8"/>
<circle cx="482.91" cy="527.61" r="3.2" fill="#1d4ed8"/>
<circle cx="489.24" cy="527.21" r="3.2" fill="#1d4ed8"/>
<circle cx="495.58" cy="526.80" r="3.2" fill="#1d4ed8"/>
<circle cx="501.92" cy="526.40" r="3.2" fill="#1d4ed8"/>
<circle cx="508.26" cy="525.18" r="3.2" fill="#1d4ed8"/>
<circle cx="514.59" cy="523.57" r="3.2" fill="#1d4ed8"/>
<circle cx="520.93" cy="523.57" r="3.2" fill="#1d4ed8"/>
<circle cx="527.27" cy="523.16" r="3.2" fill="#1d4ed8"/>
<circle cx="533.60" cy="522.76" r="3.2" fill="#1d4ed8"/>
<circle cx="539.94" cy="522.35" r="3.2" fill="#1d4ed8"/>
<circle cx="546.28" cy="521.54" r="3.2" fill="#1d4ed8"/>
<circle cx="552.62" cy="519.52" r="3.2" fill="#1d4ed8"/>
<circle cx="558.95" cy="517.50" r="3.2" fill="#1d4ed8"/>
<circle cx="565.29" cy="517.50" r="3.2" fill="#1d4ed8"/>
<circle cx="571.63" cy="517.50" r="3.2" fill="#1d4ed8"/>
<circle cx="577.97" cy="517.50" r="3.2" fill="#1d4ed8"/>
<circle cx="584.30" cy="517.50" r="3.2" fill="#1d4ed8"/>
<circle cx="590.64" cy="517.50" r="3.2" fill="#1d4ed8"/>
<circle cx="596.98" cy="517.10" r="3.2" fill="#1d4ed8"/>
<circle cx="603.31" cy="516.69" r="3.2" fill="#1d4ed8"/>
<circle cx="609.65" cy="515.48" r="3.2" fill="#1d4ed8"/>
<circle cx="615.99" cy="515.07" r="3.2" fill="#1d4ed8"/>
<circle cx="622.33" cy="514.67" r="3.2" fill="#1d4ed8"/>
<circle cx="628.66" cy="513.86" r="3.2" fill="#1d4ed8"/>
<circle cx="635.00" cy="514.26" r="3.2" fill="#1d4ed8"/>
<circle cx="641.34" cy="512.24" r="3.2" fill="#1d4ed8"/>
<circle cx="647.67" cy="511.84" r="3.2" fill="#1d4ed8"/>
<circle cx="654.01" cy="511.84" r="3.2" fill="#1d4ed8"/>
<circle cx="660.35" cy="511.03" r="3.2" fill="#1d4ed8"/>
<circle cx="666.69" cy="509.82" r="3.2" fill="#1d4ed8"/>
<circle cx="673.02" cy="507.79" r="3.2" fill="#1d4ed8"/>
<circle cx="679.36" cy="506.99" r="3.2" fill="#1d4ed8"/>
<circle cx="685.70" cy="506.58" r="3.2" fill="#1d4ed8"/>
<circle cx="692.03" cy="509.41" r="3.2" fill="#1d4ed8"/>
<circle cx="698.37" cy="509.01" r="3.2" fill="#1d4ed8"/>
<circle cx="704.71" cy="504.96" r="3.2" fill="#1d4ed8"/>
<circle cx="711.05" cy="504.56" r="3.2" fill="#1d4ed8"/>
<circle cx="717.38" cy="504.15" r="3.2" fill="#1d4ed8"/>
<circle cx="723.72" cy="504.56" r="3.2" fill="#1d4ed8"/>
<circle cx="730.06" cy="503.75" r="3.2" fill="#1d4ed8"/>
<circle cx="736.40" cy="503.75" r="3.2" fill="#1d4ed8"/>
<circle cx="742.73" cy="503.35" r="3.2" fill="#1d4ed8"/>
<circle cx="749.07" cy="499.30" r="3.2" fill="#1d4ed8"/>
<circle cx="755.41" cy="496.47" r="3.2" fill="#1d4ed8"/>
<circle cx="761.74" cy="490.00" r="3.2" fill="#1d4ed8"/>
<circle cx="768.08" cy="484.34" r="3.2" fill="#1d4ed8"/>
<circle cx="774.42" cy="481.10" r="3.2" fill="#1d4ed8"/>
<circle cx="780.76" cy="480.29" r="3.2" fill="#1d4ed8"/>
<circle cx="787.09" cy="480.70" r="3.2" fill="#1d4ed8"/>
<circle cx="793.43" cy="460.88" r="3.2" fill="#1d4ed8"/>
<circle cx="799.77" cy="459.26" r="3.2" fill="#1d4ed8"/>
<circle cx="806.10" cy="458.05" r="3.2" fill="#1d4ed8"/>
<circle cx="812.44" cy="456.03" r="3.2" fill="#1d4ed8"/>
<circle cx="818.78" cy="456.03" r="3.2" fill="#1d4ed8"/>
<circle cx="825.12" cy="454.41" r="3.2" fill="#1d4ed8"/>
<circle cx="831.45" cy="450.77" r="3.2" fill="#1d4ed8"/>
<circle cx="837.79" cy="444.30" r="3.2" fill="#1d4ed8"/>
<circle cx="844.13" cy="443.90" r="3.2" fill="#1d4ed8"/>
<circle cx="850.47" cy="600.00" r="3.2" fill="#1d4ed8"/>
<circle cx="856.80" cy="441.88" r="3.2" fill="#1d4ed8"/>
<circle cx="863.14" cy="440.66" r="3.2" fill="#1d4ed8"/>
<circle cx="869.48" cy="439.45" r="3.2" fill="#1d4ed8"/>
<circle cx="875.81" cy="439.04" r="3.2" fill="#1d4ed8"/>
<circle cx="882.15" cy="438.64" r="3.2" fill="#1d4ed8"/>
<circle cx="888.49" cy="437.83" r="3.2" fill="#1d4ed8"/>
<circle cx="894.83" cy="436.62" r="3.2" fill="#1d4ed8"/>
<circle cx="901.16" cy="436.62" r="3.2" fill="#1d4ed8"/>
<circle cx="907.50" cy="434.60" r="3.2" fill="#1d4ed8"/>
<circle cx="913.84" cy="432.17" r="3.2" fill="#1d4ed8"/>
<circle cx="920.17" cy="429.34" r="3.2" fill="#1d4ed8"/>
<circle cx="926.51" cy="428.93" r="3.2" fill="#1d4ed8"/>
<circle cx="932.85" cy="428.53" r="3.2" fill="#1d4ed8"/>
<circle cx="939.19" cy="427.72" r="3.2" fill="#1d4ed8"/>
<circle cx="945.52" cy="426.91" r="3.2" fill="#1d4ed8"/>
<circle cx="951.86" cy="426.10" r="3.2" fill="#1d4ed8"/>
<circle cx="958.20" cy="426.10" r="3.2" fill="#1d4ed8"/>
<circle cx="964.53" cy="426.10" r="3.2" fill="#1d4ed8"/>
<circle cx="970.87" cy="419.63" r="3.2" fill="#1d4ed8"/>
<circle cx="977.21" cy="419.23" r="3.2" fill="#1d4ed8"/>
<circle cx="983.55" cy="418.42" r="3.2" fill="#1d4ed8"/>
<circle cx="989.88" cy="418.01" r="3.2" fill="#1d4ed8"/>
<circle cx="996.22" cy="417.61" r="3.2" fill="#1d4ed8"/>
<circle cx="1002.56" cy="417.61" r="3.2" fill="#1d4ed8"/>
<circle cx="1008.90" cy="417.61" r="3.2" fill="#1d4ed8"/>
<circle cx="1015.23" cy="417.21" r="3.2" fill="#1d4ed8"/>
<circle cx="1021.57" cy="417.21" r="3.2" fill="#1d4ed8"/>
<circle cx="1027.91" cy="413.57" r="3.2" fill="#1d4ed8"/>
<circle cx="1034.24" cy="411.95" r="3.2" fill="#1d4ed8"/>
<circle cx="1040.58" cy="412.76" r="3.2" fill="#1d4ed8"/>
<circle cx="1046.92" cy="410.74" r="3.2" fill="#1d4ed8"/>
<circle cx="1053.26" cy="410.74" r="3.2" fill="#1d4ed8"/>
<circle cx="1059.59" cy="410.33" r="3.2" fill="#1d4ed8"/>
<circle cx="1065.93" cy="410.33" r="3.2" fill="#1d4ed8"/>
<circle cx="1072.27" cy="410.33" r="3.2" fill="#1d4ed8"/>
<circle cx="1078.60" cy="409.93" r="3.2" fill="#1d4ed8"/>
<circle cx="1084.94" cy="409.93" r="3.2" fill="#1d4ed8"/>
<circle cx="1091.28" cy="409.93" r="3.2" fill="#1d4ed8"/>
<circle cx="1097.62" cy="409.52" r="3.2" fill="#1d4ed8"/>
<circle cx="1103.95" cy="409.52" r="3.2" fill="#1d4ed8"/>
<circle cx="1110.29" cy="409.12" r="3.2" fill="#1d4ed8"/>
<circle cx="1116.63" cy="409.52" r="3.2" fill="#1d4ed8"/>
<circle cx="1122.97" cy="409.12" r="3.2" fill="#1d4ed8"/>
<circle cx="1129.30" cy="407.50" r="3.2" fill="#1d4ed8"/>
<circle cx="1135.64" cy="407.10" r="3.2" fill="#1d4ed8"/>
<circle cx="1141.98" cy="403.05" r="3.2" fill="#1d4ed8"/>
<circle cx="1148.31" cy="399.82" r="3.2" fill="#1d4ed8"/>
<circle cx="1154.65" cy="400.22" r="3.2" fill="#1d4ed8"/>
<circle cx="1160.99" cy="400.62" r="3.2" fill="#1d4ed8"/>
<circle cx="1167.33" cy="400.62" r="3.2" fill="#1d4ed8"/>
<circle cx="1173.66" cy="399.41" r="3.2" fill="#1d4ed8"/>
<circle cx="1180.00" cy="392.94" r="3.2" fill="#1d4ed8"/>
<text x="635" y="695" text-anchor="middle" font-size="14" fill="#111" font-family="sans-serif">Date</text>
<text x="24" y="325" text-anchor="middle" font-size="14" fill="#111" transform="rotate(-90 24,325)" font-family="sans-serif">Passed files</text>
</svg>
