<?xml version="1.0" encoding="UTF-8"?>
<svg xmlns="http://www.w3.org/2000/svg" width="1280" height="720" viewBox="0 0 1280 720">
<rect width="100%" height="100%" fill="#ffffff"/>
<text x="640" y="30" text-anchor="middle" font-size="22" font-family="sans-serif">Roast passed files history</text>
<line x1="90" y1="600" x2="1180" y2="600" stroke="#333" stroke-width="1.5"/>
<line x1="90" y1="50" x2="90" y2="600" stroke="#333" stroke-width="1.5"/>
<line x1="90" y1="600.00" x2="1180" y2="600.00" stroke="#e5e7eb" stroke-width="1"/>
<text x="78" y="605.00" text-anchor="end" font-size="12" fill="#111" font-family="sans-serif">0</text>
<line x1="90" y1="398.09" x2="1180" y2="398.09" stroke="#e5e7eb" stroke-width="1"/>
<text x="78" y="403.09" text-anchor="end" font-size="12" fill="#111" font-family="sans-serif">500</text>
<line x1="90" y1="196.18" x2="1180" y2="196.18" stroke="#e5e7eb" stroke-width="1"/>
<text x="78" y="201.18" text-anchor="end" font-size="12" fill="#111" font-family="sans-serif">1000</text>
<line x1="90.00" y1="600" x2="90.00" y2="606" stroke="#333" stroke-width="1"/>
<text x="90.00" y="624" text-anchor="end" font-size="11" fill="#111" transform="rotate(-40 90.00,624)" font-family="sans-serif">2026-02-12</text>
<line x1="211.11" y1="600" x2="211.11" y2="606" stroke="#333" stroke-width="1"/>
<text x="211.11" y="624" text-anchor="end" font-size="11" fill="#111" transform="rotate(-40 211.11,624)" font-family="sans-serif">2026-02-13</text>
<line x1="332.22" y1="600" x2="332.22" y2="606" stroke="#333" stroke-width="1"/>
<text x="332.22" y="624" text-anchor="end" font-size="11" fill="#111" transform="rotate(-40 332.22,624)" font-family="sans-serif">2026-02-15</text>
<line x1="453.33" y1="600" x2="453.33" y2="606" stroke="#333" stroke-width="1"/>
<text x="453.33" y="624" text-anchor="end" font-size="11" fill="#111" transform="rotate(-40 453.33,624)" font-family="sans-serif">2026-02-15</text>
<line x1="574.44" y1="600" x2="574.44" y2="606" stroke="#333" stroke-width="1"/>
<text x="574.44" y="624" text-anchor="end" font-size="11" fill="#111" transform="rotate(-40 574.44,624)" font-family="sans-serif">2026-02-16</text>
<line x1="695.56" y1="600" x2="695.56" y2="606" stroke="#333" stroke-width="1"/>
<text x="695.56" y="624" text-anchor="end" font-size="11" fill="#111" transform="rotate(-40 695.56,624)" font-family="sans-serif">2026-02-17</text>
<line x1="816.67" y1="600" x2="816.67" y2="606" stroke="#333" stroke-width="1"/>
<text x="816.67" y="624" text-anchor="end" font-size="11" fill="#111" transform="rotate(-40 816.67,624)" font-family="sans-serif">2026-02-17</text>
<line x1="937.78" y1="600" x2="937.78" y2="606" stroke="#333" stroke-width="1"/>
<text x="937.78" y="624" text-anchor="end" font-size="11" fill="#111" transform="rotate(-40 937.78,624)" font-family="sans-serif">2026-02-17</text>
<line x1="1058.89" y1="600" x2="1058.89" y2="606" stroke="#333" stroke-width="1"/>
<text x="1058.89" y="624" text-anchor="end" font-size="11" fill="#111" transform="rotate(-40 1058.89,624)" font-family="sans-serif">2026-02-17</text>
<line x1="1180.00" y1="600" x2="1180.00" y2="606" stroke="#333" stroke-width="1"/>
<text x="1180.00" y="624" text-anchor="end" font-size="11" fill="#111" transform="rotate(-40 1180.00,624)" font-family="sans-serif">2026-02-18</text>
<line x1="90" y1="75.84" x2="1180" y2="75.84" stroke="#dc2626" stroke-width="1.5" stroke-dasharray="8,4"/>
<text x="1184" y="79.84" font-size="12" fill="#dc2626" font-family="sans-serif">Goal: 1298</text>
<polyline fill="none" stroke="#2563eb" stroke-width="3" points="90.00,540.64 110.19,538.62 130.37,537.00 150.56,534.58 170.74,534.58 190.93,533.37 211.11,532.56 231.30,532.97 251.48,532.16 271.67,532.56 291.85,532.16 312.04,568.50 332.22,568.50 352.41,566.48 372.59,545.08 392.78,545.08 412.96,544.27 433.15,543.87 453.33,543.87 473.52,543.47 493.70,541.85 513.89,541.45 534.07,541.04 554.26,541.04 574.44,539.43 594.63,539.43 614.81,556.79 635.00,556.79 655.19,555.58 675.37,551.14 695.56,539.02 715.74,539.02 735.93,539.02 756.11,538.22 776.30,537.00 796.48,537.00 816.67,536.60 836.85,536.60 857.04,556.79 877.22,556.79 897.41,556.79 917.59,556.79 937.78,535.39 957.96,535.39 978.15,535.39 998.33,535.39 1018.52,534.58 1038.70,534.18 1058.89,533.77 1079.07,532.97 1099.26,532.16 1119.44,532.16 1139.63,531.35 1159.81,530.95 1180.00,530.54"/>
<circle cx="90.00" cy="540.64" r="3.2" fill="#1d4ed8"/>
<circle cx="110.19" cy="538.62" r="3.2" fill="#1d4ed8"/>
<circle cx="130.37" cy="537.00" r="3.2" fill="#1d4ed8"/>
<circle cx="150.56" cy="534.58" r="3.2" fill="#1d4ed8"/>
<circle cx="170.74" cy="534.58" r="3.2" fill="#1d4ed8"/>
<circle cx="190.93" cy="533.37" r="3.2" fill="#1d4ed8"/>
<circle cx="211.11" cy="532.56" r="3.2" fill="#1d4ed8"/>
<circle cx="231.30" cy="532.97" r="3.2" fill="#1d4ed8"/>
<circle cx="251.48" cy="532.16" r="3.2" fill="#1d4ed8"/>
<circle cx="271.67" cy="532.56" r="3.2" fill="#1d4ed8"/>
<circle cx="291.85" cy="532.16" r="3.2" fill="#1d4ed8"/>
<circle cx="312.04" cy="568.50" r="3.2" fill="#1d4ed8"/>
<circle cx="332.22" cy="568.50" r="3.2" fill="#1d4ed8"/>
<circle cx="352.41" cy="566.48" r="3.2" fill="#1d4ed8"/>
<circle cx="372.59" cy="545.08" r="3.2" fill="#1d4ed8"/>
<circle cx="392.78" cy="545.08" r="3.2" fill="#1d4ed8"/>
<circle cx="412.96" cy="544.27" r="3.2" fill="#1d4ed8"/>
<circle cx="433.15" cy="543.87" r="3.2" fill="#1d4ed8"/>
<circle cx="453.33" cy="543.87" r="3.2" fill="#1d4ed8"/>
<circle cx="473.52" cy="543.47" r="3.2" fill="#1d4ed8"/>
<circle cx="493.70" cy="541.85" r="3.2" fill="#1d4ed8"/>
<circle cx="513.89" cy="541.45" r="3.2" fill="#1d4ed8"/>
<circle cx="534.07" cy="541.04" r="3.2" fill="#1d4ed8"/>
<circle cx="554.26" cy="541.04" r="3.2" fill="#1d4ed8"/>
<circle cx="574.44" cy="539.43" r="3.2" fill="#1d4ed8"/>
<circle cx="594.63" cy="539.43" r="3.2" fill="#1d4ed8"/>
<circle cx="614.81" cy="556.79" r="3.2" fill="#1d4ed8"/>
<circle cx="635.00" cy="556.79" r="3.2" fill="#1d4ed8"/>
<circle cx="655.19" cy="555.58" r="3.2" fill="#1d4ed8"/>
<circle cx="675.37" cy="551.14" r="3.2" fill="#1d4ed8"/>
<circle cx="695.56" cy="539.02" r="3.2" fill="#1d4ed8"/>
<circle cx="715.74" cy="539.02" r="3.2" fill="#1d4ed8"/>
<circle cx="735.93" cy="539.02" r="3.2" fill="#1d4ed8"/>
<circle cx="756.11" cy="538.22" r="3.2" fill="#1d4ed8"/>
<circle cx="776.30" cy="537.00" r="3.2" fill="#1d4ed8"/>
<circle cx="796.48" cy="537.00" r="3.2" fill="#1d4ed8"/>
<circle cx="816.67" cy="536.60" r="3.2" fill="#1d4ed8"/>
<circle cx="836.85" cy="536.60" r="3.2" fill="#1d4ed8"/>
<circle cx="857.04" cy="556.79" r="3.2" fill="#1d4ed8"/>
<circle cx="877.22" cy="556.79" r="3.2" fill="#1d4ed8"/>
<circle cx="897.41" cy="556.79" r="3.2" fill="#1d4ed8"/>
<circle cx="917.59" cy="556.79" r="3.2" fill="#1d4ed8"/>
<circle cx="937.78" cy="535.39" r="3.2" fill="#1d4ed8"/>
<circle cx="957.96" cy="535.39" r="3.2" fill="#1d4ed8"/>
<circle cx="978.15" cy="535.39" r="3.2" fill="#1d4ed8"/>
<circle cx="998.33" cy="535.39" r="3.2" fill="#1d4ed8"/>
<circle cx="1018.52" cy="534.58" r="3.2" fill="#1d4ed8"/>
<circle cx="1038.70" cy="534.18" r="3.2" fill="#1d4ed8"/>
<circle cx="1058.89" cy="533.77" r="3.2" fill="#1d4ed8"/>
<circle cx="1079.07" cy="532.97" r="3.2" fill="#1d4ed8"/>
<circle cx="1099.26" cy="532.16" r="3.2" fill="#1d4ed8"/>
<circle cx="1119.44" cy="532.16" r="3.2" fill="#1d4ed8"/>
<circle cx="1139.63" cy="531.35" r="3.2" fill="#1d4ed8"/>
<circle cx="1159.81" cy="530.95" r="3.2" fill="#1d4ed8"/>
<circle cx="1180.00" cy="530.54" r="3.2" fill="#1d4ed8"/>
<text x="635" y="695" text-anchor="middle" font-size="14" fill="#111" font-family="sans-serif">Date</text>
<text x="24" y="325" text-anchor="middle" font-size="14" fill="#111" transform="rotate(-90 24,325)" font-family="sans-serif">Passed files</text>
</svg>
