<?xml version="1.0" encoding="UTF-8"?>
<svg xmlns="http://www.w3.org/2000/svg" width="1280" height="720" viewBox="0 0 1280 720">
<rect width="100%" height="100%" fill="#ffffff"/>
<text x="640" y="30" text-anchor="middle" font-size="22" font-family="sans-serif">Roast passed files history</text>
<line x1="90" y1="600" x2="1180" y2="600" stroke="#333" stroke-width="1.5"/>
<line x1="90" y1="50" x2="90" y2="600" stroke="#333" stroke-width="1.5"/>
<line x1="90" y1="600.00" x2="1180" y2="600.00" stroke="#e5e7eb" stroke-width="1"/>
<text x="78" y="605.00" text-anchor="end" font-size="12" fill="#111" font-family="sans-serif">0</text>
<line x1="90" y1="397.79" x2="1180" y2="397.79" stroke="#e5e7eb" stroke-width="1"/>
<text x="78" y="402.79" text-anchor="end" font-size="12" fill="#111" font-family="sans-serif">500</text>
<line x1="90" y1="195.59" x2="1180" y2="195.59" stroke="#e5e7eb" stroke-width="1"/>
<text x="78" y="200.59" text-anchor="end" font-size="12" fill="#111" font-family="sans-serif">1000</text>
<line x1="90.00" y1="600" x2="90.00" y2="606" stroke="#333" stroke-width="1"/>
<text x="90.00" y="624" text-anchor="end" font-size="11" fill="#111" transform="rotate(-40 90.00,624)" font-family="sans-serif">2026-02-12</text>
<line x1="224.38" y1="600" x2="224.38" y2="606" stroke="#333" stroke-width="1"/>
<text x="224.38" y="624" text-anchor="end" font-size="11" fill="#111" transform="rotate(-40 224.38,624)" font-family="sans-serif">2026-02-18</text>
<line x1="358.77" y1="600" x2="358.77" y2="606" stroke="#333" stroke-width="1"/>
<text x="358.77" y="624" text-anchor="end" font-size="11" fill="#111" transform="rotate(-40 358.77,624)" font-family="sans-serif">2026-02-24</text>
<line x1="493.15" y1="600" x2="493.15" y2="606" stroke="#333" stroke-width="1"/>
<text x="493.15" y="624" text-anchor="end" font-size="11" fill="#111" transform="rotate(-40 493.15,624)" font-family="sans-serif">2026-02-27</text>
<line x1="627.53" y1="600" x2="627.53" y2="606" stroke="#333" stroke-width="1"/>
<text x="627.53" y="624" text-anchor="end" font-size="11" fill="#111" transform="rotate(-40 627.53,624)" font-family="sans-serif">2026-03-04</text>
<line x1="761.92" y1="600" x2="761.92" y2="606" stroke="#333" stroke-width="1"/>
<text x="761.92" y="624" text-anchor="end" font-size="11" fill="#111" transform="rotate(-40 761.92,624)" font-family="sans-serif">2026-03-06</text>
<line x1="896.30" y1="600" x2="896.30" y2="606" stroke="#333" stroke-width="1"/>
<text x="896.30" y="624" text-anchor="end" font-size="11" fill="#111" transform="rotate(-40 896.30,624)" font-family="sans-serif">2026-03-11</text>
<line x1="1030.68" y1="600" x2="1030.68" y2="606" stroke="#333" stroke-width="1"/>
<text x="1030.68" y="624" text-anchor="end" font-size="11" fill="#111" transform="rotate(-40 1030.68,624)" font-family="sans-serif">2026-03-19</text>
<line x1="1165.07" y1="600" x2="1165.07" y2="606" stroke="#333" stroke-width="1"/>
<text x="1165.07" y="624" text-anchor="end" font-size="11" fill="#111" transform="rotate(-40 1165.07,624)" font-family="sans-serif">2026-03-24</text>
<line x1="1180.00" y1="600" x2="1180.00" y2="606" stroke="#333" stroke-width="1"/>
<text x="1180.00" y="624" text-anchor="end" font-size="11" fill="#111" transform="rotate(-40 1180.00,624)" font-family="sans-serif">2026-03-24</text>
<line x1="90" y1="75.88" x2="1180" y2="75.88" stroke="#dc2626" stroke-width="1.5" stroke-dasharray="8,4"/>
<text x="1184" y="79.88" font-size="12" fill="#dc2626" font-family="sans-serif">Goal: 1296</text>
<polyline fill="none" stroke="#2563eb" stroke-width="3" points="90.00,540.55 92.49,538.53 94.98,536.91 97.47,534.49 99.95,534.49 102.44,533.27 104.93,532.46 107.42,532.87 109.91,532.06 112.40,532.46 114.89,532.06 117.37,568.46 119.86,568.46 122.35,566.43 124.84,545.00 127.33,545.00 129.82,544.19 132.31,543.79 134.79,543.79 137.28,543.38 139.77,541.76 142.26,541.36 144.75,540.96 147.24,540.96 149.73,539.34 152.21,539.34 154.70,556.73 157.19,556.73 159.68,555.51 162.17,551.07 164.66,538.93 167.15,538.93 169.63,538.93 172.12,538.12 174.61,536.91 177.10,536.91 179.59,536.51 182.08,536.51 184.57,556.73 187.05,556.73 189.54,556.73 192.03,556.73 194.52,535.29 197.01,535.29 199.50,535.29 201.99,535.29 204.47,534.49 206.96,534.08 209.45,533.68 211.94,532.87 214.43,532.06 216.92,532.06 219.41,531.25 221.89,530.85 224.38,530.44 226.87,530.04 229.36,530.04 231.85,529.23 234.34,529.23 236.83,529.23 239.32,528.42 241.80,528.42 244.29,527.61 246.78,527.21 249.27,526.80 251.76,526.40 254.25,525.18 256.74,523.57 259.22,523.57 261.71,523.16 264.20,522.76 266.69,522.35 269.18,521.54 271.67,519.52 274.16,517.50 276.64,517.50 279.13,517.50 281.62,517.50 284.11,517.50 286.60,517.50 289.09,517.10 291.58,516.69 294.06,515.48 296.55,515.07 299.04,514.67 301.53,513.86 304.02,514.26 306.51,512.24 309.00,511.84 311.48,511.84 313.97,511.03 316.46,509.82 318.95,507.79 321.44,506.99 323.93,506.58 326.42,509.41 328.90,509.01 331.39,504.96 333.88,504.56 336.37,504.15 338.86,504.56 341.35,503.75 343.84,503.75 346.32,503.35 348.81,499.30 351.30,496.47 353.79,490.00 356.28,484.34 358.77,481.10 361.26,480.29 363.74,480.70 366.23,460.88 368.72,459.26 371.21,458.05 373.70,456.03 376.19,456.03 378.68,454.41 381.16,450.77 383.65,444.30 386.14,443.90 388.63,600.00 391.12,441.88 393.61,440.66 396.10,439.45 398.58,439.04 401.07,438.64 403.56,437.83 406.05,436.62 408.54,436.62 411.03,434.60 413.52,432.17 416.00,429.34 418.49,428.93 420.98,428.53 423.47,427.72 425.96,426.91 428.45,426.10 430.94,426.10 433.42,426.10 435.91,419.63 438.40,419.23 440.89,418.42 443.38,418.01 445.87,417.61 448.36,417.61 450.84,417.61 453.33,417.21 455.82,417.21 458.31,413.57 460.80,411.95 463.29,412.76 465.78,410.74 468.26,410.74 470.75,410.33 473.24,410.33 475.73,410.33 478.22,409.93 480.71,409.93 483.20,409.93 485.68,409.52 488.17,409.52 490.66,409.12 493.15,409.52 495.64,409.12 498.13,407.50 500.62,407.10 503.11,403.05 505.59,399.82 508.08,400.22 510.57,400.62 513.06,400.62 515.55,399.41 518.04,392.94 520.53,391.32 523.01,389.30 525.50,389.30 527.99,388.49 530.48,375.15 532.97,374.74 535.46,374.74 537.95,374.74 540.43,374.74 542.92,374.34 545.41,374.34 547.90,374.34 550.39,374.34 552.88,374.34 555.37,373.93 557.85,373.12 560.34,372.72 562.83,373.53 565.32,435.81 567.81,372.32 570.30,372.72 572.79,371.91 575.27,371.91 577.76,372.32 580.25,371.10 582.74,369.89 585.23,369.89 587.72,369.89 590.21,369.49 592.69,369.89 595.18,369.08 597.67,368.68 600.16,368.27 602.65,367.87 605.14,367.06 607.63,367.46 610.11,367.06 612.60,366.25 615.09,368.27 617.58,368.68 620.07,368.68 622.56,368.27 625.05,369.08 627.53,367.87 630.02,367.46 632.51,367.06 635.00,360.18 637.49,359.78 639.98,359.38 642.47,356.95 644.95,357.35 647.44,357.76 649.93,355.33 652.42,355.74 654.91,357.35 657.40,355.33 659.89,356.14 662.37,355.74 664.86,356.14 667.35,354.12 669.84,354.93 672.33,356.14 674.82,354.52 677.31,353.71 679.79,354.12 682.28,354.93 684.77,352.90 687.26,353.71 689.75,353.31 692.24,353.31 694.73,354.52 697.21,352.90 699.70,352.50 702.19,352.50 704.68,353.31 707.17,352.50 709.66,353.71 712.15,354.12 714.63,352.50 717.12,352.90 719.61,352.50 722.10,352.10 724.59,351.69 727.08,352.10 729.57,354.12 732.05,352.50 734.54,352.10 737.03,352.10 739.52,349.67 742.01,349.67 744.50,350.88 746.99,351.29 749.47,350.48 751.96,352.10 754.45,350.48 756.94,350.48 759.43,350.48 761.92,350.07 764.41,348.46 766.89,351.29 769.38,349.67 771.87,351.29 774.36,349.67 776.85,348.86 779.34,348.46 781.83,348.46 784.32,347.24 786.80,348.86 789.29,346.84 791.78,348.46 794.27,348.86 796.76,346.84 799.25,349.26 801.74,348.05 804.22,349.26 806.71,349.26 809.20,350.48 811.69,352.90 814.18,349.67 816.67,348.46 819.16,345.62 821.64,344.82 824.13,344.41 826.62,342.39 829.11,341.18 831.60,341.58 834.09,339.15 836.58,338.35 839.06,337.54 841.55,336.73 844.04,335.92 846.53,337.54 849.02,338.35 851.51,337.54 854.00,337.54 856.48,337.54 858.97,333.09 861.46,333.90 863.95,335.92 866.44,336.73 868.93,335.51 871.42,332.28 873.90,331.47 876.39,331.07 878.88,331.47 881.37,331.07 883.86,331.07 886.35,331.07 888.84,331.07 891.32,331.07 893.81,331.07 896.30,331.07 898.79,331.07 901.28,331.07 903.77,331.07 906.26,331.47 908.74,331.88 911.23,331.07 913.72,331.47 916.21,331.07 918.70,331.47 921.19,331.07 923.68,324.19 926.16,324.19 928.65,318.93 931.14,316.51 933.63,310.44 936.12,308.01 938.61,600.00 941.10,301.54 943.58,290.22 946.07,287.79 948.56,286.18 951.05,285.77 953.54,285.77 956.03,285.77 958.52,286.18 961.00,285.77 963.49,285.77 965.98,285.77 968.47,283.35 970.96,282.94 973.45,282.94 975.94,283.35 978.42,282.94 980.91,282.94 983.40,283.75 985.89,282.13 988.38,282.13 990.87,282.54 993.36,282.13 995.84,282.54 998.33,282.94 1000.82,281.73 1003.31,282.54 1005.80,281.73 1008.29,282.54 1010.78,282.13 1013.26,282.13 1015.75,281.73 1018.24,281.73 1020.73,281.32 1023.22,281.73 1025.71,282.13 1028.20,281.32 1030.68,281.32 1033.17,282.54 1035.66,282.13 1038.15,281.32 1040.64,281.32 1043.13,281.32 1045.62,282.54 1048.11,282.13 1050.59,281.32 1053.08,282.13 1055.57,281.73 1058.06,282.13 1060.55,280.11 1063.04,280.11 1065.53,280.51 1068.01,279.71 1070.50,280.11 1072.99,280.51 1075.48,279.71 1077.97,280.11 1080.46,280.11 1082.95,279.30 1085.43,278.90 1087.92,278.90 1090.41,280.51 1092.90,279.30 1095.39,278.09 1097.88,278.49 1100.37,278.49 1102.85,277.28 1105.34,277.68 1107.83,277.68 1110.32,278.09 1112.81,277.28 1115.30,600.00 1117.79,278.90 1120.27,279.30 1122.76,278.90 1125.25,278.49 1127.74,278.49 1130.23,278.49 1132.72,278.49 1135.21,278.49 1137.69,278.49 1140.18,278.49 1142.67,278.49 1145.16,278.49 1147.65,278.49 1150.14,278.49 1152.63,278.49 1155.11,600.00 1157.60,600.00 1160.09,254.63 1162.58,600.00 1165.07,245.74 1167.56,245.74 1170.05,246.14 1172.53,245.74 1175.02,245.74 1177.51,245.74 1180.00,245.74"/>
<circle cx="90.00" cy="540.55" r="3.2" fill="#1d4ed8"/>
<circle cx="92.49" cy="538.53" r="3.2" fill="#1d4ed8"/>
<circle cx="94.98" cy="536.91" r="3.2" fill="#1d4ed8"/>
<circle cx="97.47" cy="534.49" r="3.2" fill="#1d4ed8"/>
<circle cx="99.95" cy="534.49" r="3.2" fill="#1d4ed8"/>
<circle cx="102.44" cy="533.27" r="3.2" fill="#1d4ed8"/>
<circle cx="104.93" cy="532.46" r="3.2" fill="#1d4ed8"/>
<circle cx="107.42" cy="532.87" r="3.2" fill="#1d4ed8"/>
<circle cx="109.91" cy="532.06" r="3.2" fill="#1d4ed8"/>
<circle cx="112.40" cy="532.46" r="3.2" fill="#1d4ed8"/>
<circle cx="114.89" cy="532.06" r="3.2" fill="#1d4ed8"/>
<circle cx="117.37" cy="568.46" r="3.2" fill="#1d4ed8"/>
<circle cx="119.86" cy="568.46" r="3.2" fill="#1d4ed8"/>
<circle cx="122.35" cy="566.43" r="3.2" fill="#1d4ed8"/>
<circle cx="124.84" cy="545.00" r="3.2" fill="#1d4ed8"/>
<circle cx="127.33" cy="545.00" r="3.2" fill="#1d4ed8"/>
<circle cx="129.82" cy="544.19" r="3.2" fill="#1d4ed8"/>
<circle cx="132.31" cy="543.79" r="3.2" fill="#1d4ed8"/>
<circle cx="134.79" cy="543.79" r="3.2" fill="#1d4ed8"/>
<circle cx="137.28" cy="543.38" r="3.2" fill="#1d4ed8"/>
<circle cx="139.77" cy="541.76" r="3.2" fill="#1d4ed8"/>
<circle cx="142.26" cy="541.36" r="3.2" fill="#1d4ed8"/>
<circle cx="144.75" cy="540.96" r="3.2" fill="#1d4ed8"/>
<circle cx="147.24" cy="540.96" r="3.2" fill="#1d4ed8"/>
<circle cx="149.73" cy="539.34" r="3.2" fill="#1d4ed8"/>
<circle cx="152.21" cy="539.34" r="3.2" fill="#1d4ed8"/>
<circle cx="154.70" cy="556.73" r="3.2" fill="#1d4ed8"/>
<circle cx="157.19" cy="556.73" r="3.2" fill="#1d4ed8"/>
<circle cx="159.68" cy="555.51" r="3.2" fill="#1d4ed8"/>
<circle cx="162.17" cy="551.07" r="3.2" fill="#1d4ed8"/>
<circle cx="164.66" cy="538.93" r="3.2" fill="#1d4ed8"/>
<circle cx="167.15" cy="538.93" r="3.2" fill="#1d4ed8"/>
<circle cx="169.63" cy="538.93" r="3.2" fill="#1d4ed8"/>
<circle cx="172.12" cy="538.12" r="3.2" fill="#1d4ed8"/>
<circle cx="174.61" cy="536.91" r="3.2" fill="#1d4ed8"/>
<circle cx="177.10" cy="536.91" r="3.2" fill="#1d4ed8"/>
<circle cx="179.59" cy="536.51" r="3.2" fill="#1d4ed8"/>
<circle cx="182.08" cy="536.51" r="3.2" fill="#1d4ed8"/>
<circle cx="184.57" cy="556.73" r="3.2" fill="#1d4ed8"/>
<circle cx="187.05" cy="556.73" r="3.2" fill="#1d4ed8"/>
<circle cx="189.54" cy="556.73" r="3.2" fill="#1d4ed8"/>
<circle cx="192.03" cy="556.73" r="3.2" fill="#1d4ed8"/>
<circle cx="194.52" cy="535.29" r="3.2" fill="#1d4ed8"/>
<circle cx="197.01" cy="535.29" r="3.2" fill="#1d4ed8"/>
<circle cx="199.50" cy="535.29" r="3.2" fill="#1d4ed8"/>
<circle cx="201.99" cy="535.29" r="3.2" fill="#1d4ed8"/>
<circle cx="204.47" cy="534.49" r="3.2" fill="#1d4ed8"/>
<circle cx="206.96" cy="534.08" r="3.2" fill="#1d4ed8"/>
<circle cx="209.45" cy="533.68" r="3.2" fill="#1d4ed8"/>
<circle cx="211.94" cy="532.87" r="3.2" fill="#1d4ed8"/>
<circle cx="214.43" cy="532.06" r="3.2" fill="#1d4ed8"/>
<circle cx="216.92" cy="532.06" r="3.2" fill="#1d4ed8"/>
<circle cx="219.41" cy="531.25" r="3.2" fill="#1d4ed8"/>
<circle cx="221.89" cy="530.85" r="3.2" fill="#1d4ed8"/>
<circle cx="224.38" cy="530.44" r="3.2" fill="#1d4ed8"/>
<circle cx="226.87" cy="530.04" r="3.2" fill="#1d4ed8"/>
<circle cx="229.36" cy="530.04" r="3.2" fill="#1d4ed8"/>
<circle cx="231.85" cy="529.23" r="3.2" fill="#1d4ed8"/>
<circle cx="234.34" cy="529.23" r="3.2" fill="#1d4ed8"/>
<circle cx="236.83" cy="529.23" r="3.2" fill="#1d4ed8"/>
<circle cx="239.32" cy="528.42" r="3.2" fill="#1d4ed8"/>
<circle cx="241.80" cy="528.42" r="3.2" fill="#1d4ed8"/>
<circle cx="244.29" cy="527.61" r="3.2" fill="#1d4ed8"/>
<circle cx="246.78" cy="527.21" r="3.2" fill="#1d4ed8"/>
<circle cx="249.27" cy="526.80" r="3.2" fill="#1d4ed8"/>
<circle cx="251.76" cy="526.40" r="3.2" fill="#1d4ed8"/>
<circle cx="254.25" cy="525.18" r="3.2" fill="#1d4ed8"/>
<circle cx="256.74" cy="523.57" r="3.2" fill="#1d4ed8"/>
<circle cx="259.22" cy="523.57" r="3.2" fill="#1d4ed8"/>
<circle cx="261.71" cy="523.16" r="3.2" fill="#1d4ed8"/>
<circle cx="264.20" cy="522.76" r="3.2" fill="#1d4ed8"/>
<circle cx="266.69" cy="522.35" r="3.2" fill="#1d4ed8"/>
<circle cx="269.18" cy="521.54" r="3.2" fill="#1d4ed8"/>
<circle cx="271.67" cy="519.52" r="3.2" fill="#1d4ed8"/>
<circle cx="274.16" cy="517.50" r="3.2" fill="#1d4ed8"/>
<circle cx="276.64" cy="517.50" r="3.2" fill="#1d4ed8"/>
<circle cx="279.13" cy="517.50" r="3.2" fill="#1d4ed8"/>
<circle cx="281.62" cy="517.50" r="3.2" fill="#1d4ed8"/>
<circle cx="284.11" cy="517.50" r="3.2" fill="#1d4ed8"/>
<circle cx="286.60" cy="517.50" r="3.2" fill="#1d4ed8"/>
<circle cx="289.09" cy="517.10" r="3.2" fill="#1d4ed8"/>
<circle cx="291.58" cy="516.69" r="3.2" fill="#1d4ed8"/>
<circle cx="294.06" cy="515.48" r="3.2" fill="#1d4ed8"/>
<circle cx="296.55" cy="515.07" r="3.2" fill="#1d4ed8"/>
<circle cx="299.04" cy="514.67" r="3.2" fill="#1d4ed8"/>
<circle cx="301.53" cy="513.86" r="3.2" fill="#1d4ed8"/>
<circle cx="304.02" cy="514.26" r="3.2" fill="#1d4ed8"/>
<circle cx="306.51" cy="512.24" r="3.2" fill="#1d4ed8"/>
<circle cx="309.00" cy="511.84" r="3.2" fill="#1d4ed8"/>
<circle cx="311.48" cy="511.84" r="3.2" fill="#1d4ed8"/>
<circle cx="313.97" cy="511.03" r="3.2" fill="#1d4ed8"/>
<circle cx="316.46" cy="509.82" r="3.2" fill="#1d4ed8"/>
<circle cx="318.95" cy="507.79" r="3.2" fill="#1d4ed8"/>
<circle cx="321.44" cy="506.99" r="3.2" fill="#1d4ed8"/>
<circle cx="323.93" cy="506.58" r="3.2" fill="#1d4ed8"/>
<circle cx="326.42" cy="509.41" r="3.2" fill="#1d4ed8"/>
<circle cx="328.90" cy="509.01" r="3.2" fill="#1d4ed8"/>
<circle cx="331.39" cy="504.96" r="3.2" fill="#1d4ed8"/>
<circle cx="333.88" cy="504.56" r="3.2" fill="#1d4ed8"/>
<circle cx="336.37" cy="504.15" r="3.2" fill="#1d4ed8"/>
<circle cx="338.86" cy="504.56" r="3.2" fill="#1d4ed8"/>
<circle cx="341.35" cy="503.75" r="3.2" fill="#1d4ed8"/>
<circle cx="343.84" cy="503.75" r="3.2" fill="#1d4ed8"/>
<circle cx="346.32" cy="503.35" r="3.2" fill="#1d4ed8"/>
<circle cx="348.81" cy="499.30" r="3.2" fill="#1d4ed8"/>
<circle cx="351.30" cy="496.47" r="3.2" fill="#1d4ed8"/>
<circle cx="353.79" cy="490.00" r="3.2" fill="#1d4ed8"/>
<circle cx="356.28" cy="484.34" r="3.2" fill="#1d4ed8"/>
<circle cx="358.77" cy="481.10" r="3.2" fill="#1d4ed8"/>
<circle cx="361.26" cy="480.29" r="3.2" fill="#1d4ed8"/>
<circle cx="363.74" cy="480.70" r="3.2" fill="#1d4ed8"/>
<circle cx="366.23" cy="460.88" r="3.2" fill="#1d4ed8"/>
<circle cx="368.72" cy="459.26" r="3.2" fill="#1d4ed8"/>
<circle cx="371.21" cy="458.05" r="3.2" fill="#1d4ed8"/>
<circle cx="373.70" cy="456.03" r="3.2" fill="#1d4ed8"/>
<circle cx="376.19" cy="456.03" r="3.2" fill="#1d4ed8"/>
<circle cx="378.68" cy="454.41" r="3.2" fill="#1d4ed8"/>
<circle cx="381.16" cy="450.77" r="3.2" fill="#1d4ed8"/>
<circle cx="383.65" cy="444.30" r="3.2" fill="#1d4ed8"/>
<circle cx="386.14" cy="443.90" r="3.2" fill="#1d4ed8"/>
<circle cx="388.63" cy="600.00" r="3.2" fill="#1d4ed8"/>
<circle cx="391.12" cy="441.88" r="3.2" fill="#1d4ed8"/>
<circle cx="393.61" cy="440.66" r="3.2" fill="#1d4ed8"/>
<circle cx="396.10" cy="439.45" r="3.2" fill="#1d4ed8"/>
<circle cx="398.58" cy="439.04" r="3.2" fill="#1d4ed8"/>
<circle cx="401.07" cy="438.64" r="3.2" fill="#1d4ed8"/>
<circle cx="403.56" cy="437.83" r="3.2" fill="#1d4ed8"/>
<circle cx="406.05" cy="436.62" r="3.2" fill="#1d4ed8"/>
<circle cx="408.54" cy="436.62" r="3.2" fill="#1d4ed8"/>
<circle cx="411.03" cy="434.60" r="3.2" fill="#1d4ed8"/>
<circle cx="413.52" cy="432.17" r="3.2" fill="#1d4ed8"/>
<circle cx="416.00" cy="429.34" r="3.2" fill="#1d4ed8"/>
<circle cx="418.49" cy="428.93" r="3.2" fill="#1d4ed8"/>
<circle cx="420.98" cy="428.53" r="3.2" fill="#1d4ed8"/>
<circle cx="423.47" cy="427.72" r="3.2" fill="#1d4ed8"/>
<circle cx="425.96" cy="426.91" r="3.2" fill="#1d4ed8"/>
<circle cx="428.45" cy="426.10" r="3.2" fill="#1d4ed8"/>
<circle cx="430.94" cy="426.10" r="3.2" fill="#1d4ed8"/>
<circle cx="433.42" cy="426.10" r="3.2" fill="#1d4ed8"/>
<circle cx="435.91" cy="419.63" r="3.2" fill="#1d4ed8"/>
<circle cx="438.40" cy="419.23" r="3.2" fill="#1d4ed8"/>
<circle cx="440.89" cy="418.42" r="3.2" fill="#1d4ed8"/>
<circle cx="443.38" cy="418.01" r="3.2" fill="#1d4ed8"/>
<circle cx="445.87" cy="417.61" r="3.2" fill="#1d4ed8"/>
<circle cx="448.36" cy="417.61" r="3.2" fill="#1d4ed8"/>
<circle cx="450.84" cy="417.61" r="3.2" fill="#1d4ed8"/>
<circle cx="453.33" cy="417.21" r="3.2" fill="#1d4ed8"/>
<circle cx="455.82" cy="417.21" r="3.2" fill="#1d4ed8"/>
<circle cx="458.31" cy="413.57" r="3.2" fill="#1d4ed8"/>
<circle cx="460.80" cy="411.95" r="3.2" fill="#1d4ed8"/>
<circle cx="463.29" cy="412.76" r="3.2" fill="#1d4ed8"/>
<circle cx="465.78" cy="410.74" r="3.2" fill="#1d4ed8"/>
<circle cx="468.26" cy="410.74" r="3.2" fill="#1d4ed8"/>
<circle cx="470.75" cy="410.33" r="3.2" fill="#1d4ed8"/>
<circle cx="473.24" cy="410.33" r="3.2" fill="#1d4ed8"/>
<circle cx="475.73" cy="410.33" r="3.2" fill="#1d4ed8"/>
<circle cx="478.22" cy="409.93" r="3.2" fill="#1d4ed8"/>
<circle cx="480.71" cy="409.93" r="3.2" fill="#1d4ed8"/>
<circle cx="483.20" cy="409.93" r="3.2" fill="#1d4ed8"/>
<circle cx="485.68" cy="409.52" r="3.2" fill="#1d4ed8"/>
<circle cx="488.17" cy="409.52" r="3.2" fill="#1d4ed8"/>
<circle cx="490.66" cy="409.12" r="3.2" fill="#1d4ed8"/>
<circle cx="493.15" cy="409.52" r="3.2" fill="#1d4ed8"/>
<circle cx="495.64" cy="409.12" r="3.2" fill="#1d4ed8"/>
<circle cx="498.13" cy="407.50" r="3.2" fill="#1d4ed8"/>
<circle cx="500.62" cy="407.10" r="3.2" fill="#1d4ed8"/>
<circle cx="503.11" cy="403.05" r="3.2" fill="#1d4ed8"/>
<circle cx="505.59" cy="399.82" r="3.2" fill="#1d4ed8"/>
<circle cx="508.08" cy="400.22" r="3.2" fill="#1d4ed8"/>
<circle cx="510.57" cy="400.62" r="3.2" fill="#1d4ed8"/>
<circle cx="513.06" cy="400.62" r="3.2" fill="#1d4ed8"/>
<circle cx="515.55" cy="399.41" r="3.2" fill="#1d4ed8"/>
<circle cx="518.04" cy="392.94" r="3.2" fill="#1d4ed8"/>
<circle cx="520.53" cy="391.32" r="3.2" fill="#1d4ed8"/>
<circle cx="523.01" cy="389.30" r="3.2" fill="#1d4ed8"/>
<circle cx="525.50" cy="389.30" r="3.2" fill="#1d4ed8"/>
<circle cx="527.99" cy="388.49" r="3.2" fill="#1d4ed8"/>
<circle cx="530.48" cy="375.15" r="3.2" fill="#1d4ed8"/>
<circle cx="532.97" cy="374.74" r="3.2" fill="#1d4ed8"/>
<circle cx="535.46" cy="374.74" r="3.2" fill="#1d4ed8"/>
<circle cx="537.95" cy="374.74" r="3.2" fill="#1d4ed8"/>
<circle cx="540.43" cy="374.74" r="3.2" fill="#1d4ed8"/>
<circle cx="542.92" cy="374.34" r="3.2" fill="#1d4ed8"/>
<circle cx="545.41" cy="374.34" r="3.2" fill="#1d4ed8"/>
<circle cx="547.90" cy="374.34" r="3.2" fill="#1d4ed8"/>
<circle cx="550.39" cy="374.34" r="3.2" fill="#1d4ed8"/>
<circle cx="552.88" cy="374.34" r="3.2" fill="#1d4ed8"/>
<circle cx="555.37" cy="373.93" r="3.2" fill="#1d4ed8"/>
<circle cx="557.85" cy="373.12" r="3.2" fill="#1d4ed8"/>
<circle cx="560.34" cy="372.72" r="3.2" fill="#1d4ed8"/>
<circle cx="562.83" cy="373.53" r="3.2" fill="#1d4ed8"/>
<circle cx="565.32" cy="435.81" r="3.2" fill="#1d4ed8"/>
<circle cx="567.81" cy="372.32" r="3.2" fill="#1d4ed8"/>
<circle cx="570.30" cy="372.72" r="3.2" fill="#1d4ed8"/>
<circle cx="572.79" cy="371.91" r="3.2" fill="#1d4ed8"/>
<circle cx="575.27" cy="371.91" r="3.2" fill="#1d4ed8"/>
<circle cx="577.76" cy="372.32" r="3.2" fill="#1d4ed8"/>
<circle cx="580.25" cy="371.10" r="3.2" fill="#1d4ed8"/>
<circle cx="582.74" cy="369.89" r="3.2" fill="#1d4ed8"/>
<circle cx="585.23" cy="369.89" r="3.2" fill="#1d4ed8"/>
<circle cx="587.72" cy="369.89" r="3.2" fill="#1d4ed8"/>
<circle cx="590.21" cy="369.49" r="3.2" fill="#1d4ed8"/>
<circle cx="592.69" cy="369.89" r="3.2" fill="#1d4ed8"/>
<circle cx="595.18" cy="369.08" r="3.2" fill="#1d4ed8"/>
<circle cx="597.67" cy="368.68" r="3.2" fill="#1d4ed8"/>
<circle cx="600.16" cy="368.27" r="3.2" fill="#1d4ed8"/>
<circle cx="602.65" cy="367.87" r="3.2" fill="#1d4ed8"/>
<circle cx="605.14" cy="367.06" r="3.2" fill="#1d4ed8"/>
<circle cx="607.63" cy="367.46" r="3.2" fill="#1d4ed8"/>
<circle cx="610.11" cy="367.06" r="3.2" fill="#1d4ed8"/>
<circle cx="612.60" cy="366.25" r="3.2" fill="#1d4ed8"/>
<circle cx="615.09" cy="368.27" r="3.2" fill="#1d4ed8"/>
<circle cx="617.58" cy="368.68" r="3.2" fill="#1d4ed8"/>
<circle cx="620.07" cy="368.68" r="3.2" fill="#1d4ed8"/>
<circle cx="622.56" cy="368.27" r="3.2" fill="#1d4ed8"/>
<circle cx="625.05" cy="369.08" r="3.2" fill="#1d4ed8"/>
<circle cx="627.53" cy="367.87" r="3.2" fill="#1d4ed8"/>
<circle cx="630.02" cy="367.46" r="3.2" fill="#1d4ed8"/>
<circle cx="632.51" cy="367.06" r="3.2" fill="#1d4ed8"/>
<circle cx="635.00" cy="360.18" r="3.2" fill="#1d4ed8"/>
<circle cx="637.49" cy="359.78" r="3.2" fill="#1d4ed8"/>
<circle cx="639.98" cy="359.38" r="3.2" fill="#1d4ed8"/>
<circle cx="642.47" cy="356.95" r="3.2" fill="#1d4ed8"/>
<circle cx="644.95" cy="357.35" r="3.2" fill="#1d4ed8"/>
<circle cx="647.44" cy="357.76" r="3.2" fill="#1d4ed8"/>
<circle cx="649.93" cy="355.33" r="3.2" fill="#1d4ed8"/>
<circle cx="652.42" cy="355.74" r="3.2" fill="#1d4ed8"/>
<circle cx="654.91" cy="357.35" r="3.2" fill="#1d4ed8"/>
<circle cx="657.40" cy="355.33" r="3.2" fill="#1d4ed8"/>
<circle cx="659.89" cy="356.14" r="3.2" fill="#1d4ed8"/>
<circle cx="662.37" cy="355.74" r="3.2" fill="#1d4ed8"/>
<circle cx="664.86" cy="356.14" r="3.2" fill="#1d4ed8"/>
<circle cx="667.35" cy="354.12" r="3.2" fill="#1d4ed8"/>
<circle cx="669.84" cy="354.93" r="3.2" fill="#1d4ed8"/>
<circle cx="672.33" cy="356.14" r="3.2" fill="#1d4ed8"/>
<circle cx="674.82" cy="354.52" r="3.2" fill="#1d4ed8"/>
<circle cx="677.31" cy="353.71" r="3.2" fill="#1d4ed8"/>
<circle cx="679.79" cy="354.12" r="3.2" fill="#1d4ed8"/>
<circle cx="682.28" cy="354.93" r="3.2" fill="#1d4ed8"/>
<circle cx="684.77" cy="352.90" r="3.2" fill="#1d4ed8"/>
<circle cx="687.26" cy="353.71" r="3.2" fill="#1d4ed8"/>
<circle cx="689.75" cy="353.31" r="3.2" fill="#1d4ed8"/>
<circle cx="692.24" cy="353.31" r="3.2" fill="#1d4ed8"/>
<circle cx="694.73" cy="354.52" r="3.2" fill="#1d4ed8"/>
<circle cx="697.21" cy="352.90" r="3.2" fill="#1d4ed8"/>
<circle cx="699.70" cy="352.50" r="3.2" fill="#1d4ed8"/>
<circle cx="702.19" cy="352.50" r="3.2" fill="#1d4ed8"/>
<circle cx="704.68" cy="353.31" r="3.2" fill="#1d4ed8"/>
<circle cx="707.17" cy="352.50" r="3.2" fill="#1d4ed8"/>
<circle cx="709.66" cy="353.71" r="3.2" fill="#1d4ed8"/>
<circle cx="712.15" cy="354.12" r="3.2" fill="#1d4ed8"/>
<circle cx="714.63" cy="352.50" r="3.2" fill="#1d4ed8"/>
<circle cx="717.12" cy="352.90" r="3.2" fill="#1d4ed8"/>
<circle cx="719.61" cy="352.50" r="3.2" fill="#1d4ed8"/>
<circle cx="722.10" cy="352.10" r="3.2" fill="#1d4ed8"/>
<circle cx="724.59" cy="351.69" r="3.2" fill="#1d4ed8"/>
<circle cx="727.08" cy="352.10" r="3.2" fill="#1d4ed8"/>
<circle cx="729.57" cy="354.12" r="3.2" fill="#1d4ed8"/>
<circle cx="732.05" cy="352.50" r="3.2" fill="#1d4ed8"/>
<circle cx="734.54" cy="352.10" r="3.2" fill="#1d4ed8"/>
<circle cx="737.03" cy="352.10" r="3.2" fill="#1d4ed8"/>
<circle cx="739.52" cy="349.67" r="3.2" fill="#1d4ed8"/>
<circle cx="742.01" cy="349.67" r="3.2" fill="#1d4ed8"/>
<circle cx="744.50" cy="350.88" r="3.2" fill="#1d4ed8"/>
<circle cx="746.99" cy="351.29" r="3.2" fill="#1d4ed8"/>
<circle cx="749.47" cy="350.48" r="3.2" fill="#1d4ed8"/>
<circle cx="751.96" cy="352.10" r="3.2" fill="#1d4ed8"/>
<circle cx="754.45" cy="350.48" r="3.2" fill="#1d4ed8"/>
<circle cx="756.94" cy="350.48" r="3.2" fill="#1d4ed8"/>
<circle cx="759.43" cy="350.48" r="3.2" fill="#1d4ed8"/>
<circle cx="761.92" cy="350.07" r="3.2" fill="#1d4ed8"/>
<circle cx="764.41" cy="348.46" r="3.2" fill="#1d4ed8"/>
<circle cx="766.89" cy="351.29" r="3.2" fill="#1d4ed8"/>
<circle cx="769.38" cy="349.67" r="3.2" fill="#1d4ed8"/>
<circle cx="771.87" cy="351.29" r="3.2" fill="#1d4ed8"/>
<circle cx="774.36" cy="349.67" r="3.2" fill="#1d4ed8"/>
<circle cx="776.85" cy="348.86" r="3.2" fill="#1d4ed8"/>
<circle cx="779.34" cy="348.46" r="3.2" fill="#1d4ed8"/>
<circle cx="781.83" cy="348.46" r="3.2" fill="#1d4ed8"/>
<circle cx="784.32" cy="347.24" r="3.2" fill="#1d4ed8"/>
<circle cx="786.80" cy="348.86" r="3.2" fill="#1d4ed8"/>
<circle cx="789.29" cy="346.84" r="3.2" fill="#1d4ed8"/>
<circle cx="791.78" cy="348.46" r="3.2" fill="#1d4ed8"/>
<circle cx="794.27" cy="348.86" r="3.2" fill="#1d4ed8"/>
<circle cx="796.76" cy="346.84" r="3.2" fill="#1d4ed8"/>
<circle cx="799.25" cy="349.26" r="3.2" fill="#1d4ed8"/>
<circle cx="801.74" cy="348.05" r="3.2" fill="#1d4ed8"/>
<circle cx="804.22" cy="349.26" r="3.2" fill="#1d4ed8"/>
<circle cx="806.71" cy="349.26" r="3.2" fill="#1d4ed8"/>
<circle cx="809.20" cy="350.48" r="3.2" fill="#1d4ed8"/>
<circle cx="811.69" cy="352.90" r="3.2" fill="#1d4ed8"/>
<circle cx="814.18" cy="349.67" r="3.2" fill="#1d4ed8"/>
<circle cx="816.67" cy="348.46" r="3.2" fill="#1d4ed8"/>
<circle cx="819.16" cy="345.62" r="3.2" fill="#1d4ed8"/>
<circle cx="821.64" cy="344.82" r="3.2" fill="#1d4ed8"/>
<circle cx="824.13" cy="344.41" r="3.2" fill="#1d4ed8"/>
<circle cx="826.62" cy="342.39" r="3.2" fill="#1d4ed8"/>
<circle cx="829.11" cy="341.18" r="3.2" fill="#1d4ed8"/>
<circle cx="831.60" cy="341.58" r="3.2" fill="#1d4ed8"/>
<circle cx="834.09" cy="339.15" r="3.2" fill="#1d4ed8"/>
<circle cx="836.58" cy="338.35" r="3.2" fill="#1d4ed8"/>
<circle cx="839.06" cy="337.54" r="3.2" fill="#1d4ed8"/>
<circle cx="841.55" cy="336.73" r="3.2" fill="#1d4ed8"/>
<circle cx="844.04" cy="335.92" r="3.2" fill="#1d4ed8"/>
<circle cx="846.53" cy="337.54" r="3.2" fill="#1d4ed8"/>
<circle cx="849.02" cy="338.35" r="3.2" fill="#1d4ed8"/>
<circle cx="851.51" cy="337.54" r="3.2" fill="#1d4ed8"/>
<circle cx="854.00" cy="337.54" r="3.2" fill="#1d4ed8"/>
<circle cx="856.48" cy="337.54" r="3.2" fill="#1d4ed8"/>
<circle cx="858.97" cy="333.09" r="3.2" fill="#1d4ed8"/>
<circle cx="861.46" cy="333.90" r="3.2" fill="#1d4ed8"/>
<circle cx="863.95" cy="335.92" r="3.2" fill="#1d4ed8"/>
<circle cx="866.44" cy="336.73" r="3.2" fill="#1d4ed8"/>
<circle cx="868.93" cy="335.51" r="3.2" fill="#1d4ed8"/>
<circle cx="871.42" cy="332.28" r="3.2" fill="#1d4ed8"/>
<circle cx="873.90" cy="331.47" r="3.2" fill="#1d4ed8"/>
<circle cx="876.39" cy="331.07" r="3.2" fill="#1d4ed8"/>
<circle cx="878.88" cy="331.47" r="3.2" fill="#1d4ed8"/>
<circle cx="881.37" cy="331.07" r="3.2" fill="#1d4ed8"/>
<circle cx="883.86" cy="331.07" r="3.2" fill="#1d4ed8"/>
<circle cx="886.35" cy="331.07" r="3.2" fill="#1d4ed8"/>
<circle cx="888.84" cy="331.07" r="3.2" fill="#1d4ed8"/>
<circle cx="891.32" cy="331.07" r="3.2" fill="#1d4ed8"/>
<circle cx="893.81" cy="331.07" r="3.2" fill="#1d4ed8"/>
<circle cx="896.30" cy="331.07" r="3.2" fill="#1d4ed8"/>
<circle cx="898.79" cy="331.07" r="3.2" fill="#1d4ed8"/>
<circle cx="901.28" cy="331.07" r="3.2" fill="#1d4ed8"/>
<circle cx="903.77" cy="331.07" r="3.2" fill="#1d4ed8"/>
<circle cx="906.26" cy="331.47" r="3.2" fill="#1d4ed8"/>
<circle cx="908.74" cy="331.88" r="3.2" fill="#1d4ed8"/>
<circle cx="911.23" cy="331.07" r="3.2" fill="#1d4ed8"/>
<circle cx="913.72" cy="331.47" r="3.2" fill="#1d4ed8"/>
<circle cx="916.21" cy="331.07" r="3.2" fill="#1d4ed8"/>
<circle cx="918.70" cy="331.47" r="3.2" fill="#1d4ed8"/>
<circle cx="921.19" cy="331.07" r="3.2" fill="#1d4ed8"/>
<circle cx="923.68" cy="324.19" r="3.2" fill="#1d4ed8"/>
<circle cx="926.16" cy="324.19" r="3.2" fill="#1d4ed8"/>
<circle cx="928.65" cy="318.93" r="3.2" fill="#1d4ed8"/>
<circle cx="931.14" cy="316.51" r="3.2" fill="#1d4ed8"/>
<circle cx="933.63" cy="310.44" r="3.2" fill="#1d4ed8"/>
<circle cx="936.12" cy="308.01" r="3.2" fill="#1d4ed8"/>
<circle cx="938.61" cy="600.00" r="3.2" fill="#1d4ed8"/>
<circle cx="941.10" cy="301.54" r="3.2" fill="#1d4ed8"/>
<circle cx="943.58" cy="290.22" r="3.2" fill="#1d4ed8"/>
<circle cx="946.07" cy="287.79" r="3.2" fill="#1d4ed8"/>
<circle cx="948.56" cy="286.18" r="3.2" fill="#1d4ed8"/>
<circle cx="951.05" cy="285.77" r="3.2" fill="#1d4ed8"/>
<circle cx="953.54" cy="285.77" r="3.2" fill="#1d4ed8"/>
<circle cx="956.03" cy="285.77" r="3.2" fill="#1d4ed8"/>
<circle cx="958.52" cy="286.18" r="3.2" fill="#1d4ed8"/>
<circle cx="961.00" cy="285.77" r="3.2" fill="#1d4ed8"/>
<circle cx="963.49" cy="285.77" r="3.2" fill="#1d4ed8"/>
<circle cx="965.98" cy="285.77" r="3.2" fill="#1d4ed8"/>
<circle cx="968.47" cy="283.35" r="3.2" fill="#1d4ed8"/>
<circle cx="970.96" cy="282.94" r="3.2" fill="#1d4ed8"/>
<circle cx="973.45" cy="282.94" r="3.2" fill="#1d4ed8"/>
<circle cx="975.94" cy="283.35" r="3.2" fill="#1d4ed8"/>
<circle cx="978.42" cy="282.94" r="3.2" fill="#1d4ed8"/>
<circle cx="980.91" cy="282.94" r="3.2" fill="#1d4ed8"/>
<circle cx="983.40" cy="283.75" r="3.2" fill="#1d4ed8"/>
<circle cx="985.89" cy="282.13" r="3.2" fill="#1d4ed8"/>
<circle cx="988.38" cy="282.13" r="3.2" fill="#1d4ed8"/>
<circle cx="990.87" cy="282.54" r="3.2" fill="#1d4ed8"/>
<circle cx="993.36" cy="282.13" r="3.2" fill="#1d4ed8"/>
<circle cx="995.84" cy="282.54" r="3.2" fill="#1d4ed8"/>
<circle cx="998.33" cy="282.94" r="3.2" fill="#1d4ed8"/>
<circle cx="1000.82" cy="281.73" r="3.2" fill="#1d4ed8"/>
<circle cx="1003.31" cy="282.54" r="3.2" fill="#1d4ed8"/>
<circle cx="1005.80" cy="281.73" r="3.2" fill="#1d4ed8"/>
<circle cx="1008.29" cy="282.54" r="3.2" fill="#1d4ed8"/>
<circle cx="1010.78" cy="282.13" r="3.2" fill="#1d4ed8"/>
<circle cx="1013.26" cy="282.13" r="3.2" fill="#1d4ed8"/>
<circle cx="1015.75" cy="281.73" r="3.2" fill="#1d4ed8"/>
<circle cx="1018.24" cy="281.73" r="3.2" fill="#1d4ed8"/>
<circle cx="1020.73" cy="281.32" r="3.2" fill="#1d4ed8"/>
<circle cx="1023.22" cy="281.73" r="3.2" fill="#1d4ed8"/>
<circle cx="1025.71" cy="282.13" r="3.2" fill="#1d4ed8"/>
<circle cx="1028.20" cy="281.32" r="3.2" fill="#1d4ed8"/>
<circle cx="1030.68" cy="281.32" r="3.2" fill="#1d4ed8"/>
<circle cx="1033.17" cy="282.54" r="3.2" fill="#1d4ed8"/>
<circle cx="1035.66" cy="282.13" r="3.2" fill="#1d4ed8"/>
<circle cx="1038.15" cy="281.32" r="3.2" fill="#1d4ed8"/>
<circle cx="1040.64" cy="281.32" r="3.2" fill="#1d4ed8"/>
<circle cx="1043.13" cy="281.32" r="3.2" fill="#1d4ed8"/>
<circle cx="1045.62" cy="282.54" r="3.2" fill="#1d4ed8"/>
<circle cx="1048.11" cy="282.13" r="3.2" fill="#1d4ed8"/>
<circle cx="1050.59" cy="281.32" r="3.2" fill="#1d4ed8"/>
<circle cx="1053.08" cy="282.13" r="3.2" fill="#1d4ed8"/>
<circle cx="1055.57" cy="281.73" r="3.2" fill="#1d4ed8"/>
<circle cx="1058.06" cy="282.13" r="3.2" fill="#1d4ed8"/>
<circle cx="1060.55" cy="280.11" r="3.2" fill="#1d4ed8"/>
<circle cx="1063.04" cy="280.11" r="3.2" fill="#1d4ed8"/>
<circle cx="1065.53" cy="280.51" r="3.2" fill="#1d4ed8"/>
<circle cx="1068.01" cy="279.71" r="3.2" fill="#1d4ed8"/>
<circle cx="1070.50" cy="280.11" r="3.2" fill="#1d4ed8"/>
<circle cx="1072.99" cy="280.51" r="3.2" fill="#1d4ed8"/>
<circle cx="1075.48" cy="279.71" r="3.2" fill="#1d4ed8"/>
<circle cx="1077.97" cy="280.11" r="3.2" fill="#1d4ed8"/>
<circle cx="1080.46" cy="280.11" r="3.2" fill="#1d4ed8"/>
<circle cx="1082.95" cy="279.30" r="3.2" fill="#1d4ed8"/>
<circle cx="1085.43" cy="278.90" r="3.2" fill="#1d4ed8"/>
<circle cx="1087.92" cy="278.90" r="3.2" fill="#1d4ed8"/>
<circle cx="1090.41" cy="280.51" r="3.2" fill="#1d4ed8"/>
<circle cx="1092.90" cy="279.30" r="3.2" fill="#1d4ed8"/>
<circle cx="1095.39" cy="278.09" r="3.2" fill="#1d4ed8"/>
<circle cx="1097.88" cy="278.49" r="3.2" fill="#1d4ed8"/>
<circle cx="1100.37" cy="278.49" r="3.2" fill="#1d4ed8"/>
<circle cx="1102.85" cy="277.28" r="3.2" fill="#1d4ed8"/>
<circle cx="1105.34" cy="277.68" r="3.2" fill="#1d4ed8"/>
<circle cx="1107.83" cy="277.68" r="3.2" fill="#1d4ed8"/>
<circle cx="1110.32" cy="278.09" r="3.2" fill="#1d4ed8"/>
<circle cx="1112.81" cy="277.28" r="3.2" fill="#1d4ed8"/>
<circle cx="1115.30" cy="600.00" r="3.2" fill="#1d4ed8"/>
<circle cx="1117.79" cy="278.90" r="3.2" fill="#1d4ed8"/>
<circle cx="1120.27" cy="279.30" r="3.2" fill="#1d4ed8"/>
<circle cx="1122.76" cy="278.90" r="3.2" fill="#1d4ed8"/>
<circle cx="1125.25" cy="278.49" r="3.2" fill="#1d4ed8"/>
<circle cx="1127.74" cy="278.49" r="3.2" fill="#1d4ed8"/>
<circle cx="1130.23" cy="278.49" r="3.2" fill="#1d4ed8"/>
<circle cx="1132.72" cy="278.49" r="3.2" fill="#1d4ed8"/>
<circle cx="1135.21" cy="278.49" r="3.2" fill="#1d4ed8"/>
<circle cx="1137.69" cy="278.49" r="3.2" fill="#1d4ed8"/>
<circle cx="1140.18" cy="278.49" r="3.2" fill="#1d4ed8"/>
<circle cx="1142.67" cy="278.49" r="3.2" fill="#1d4ed8"/>
<circle cx="1145.16" cy="278.49" r="3.2" fill="#1d4ed8"/>
<circle cx="1147.65" cy="278.49" r="3.2" fill="#1d4ed8"/>
<circle cx="1150.14" cy="278.49" r="3.2" fill="#1d4ed8"/>
<circle cx="1152.63" cy="278.49" r="3.2" fill="#1d4ed8"/>
<circle cx="1155.11" cy="600.00" r="3.2" fill="#1d4ed8"/>
<circle cx="1157.60" cy="600.00" r="3.2" fill="#1d4ed8"/>
<circle cx="1160.09" cy="254.63" r="3.2" fill="#1d4ed8"/>
<circle cx="1162.58" cy="600.00" r="3.2" fill="#1d4ed8"/>
<circle cx="1165.07" cy="245.74" r="3.2" fill="#1d4ed8"/>
<circle cx="1167.56" cy="245.74" r="3.2" fill="#1d4ed8"/>
<circle cx="1170.05" cy="246.14" r="3.2" fill="#1d4ed8"/>
<circle cx="1172.53" cy="245.74" r="3.2" fill="#1d4ed8"/>
<circle cx="1175.02" cy="245.74" r="3.2" fill="#1d4ed8"/>
<circle cx="1177.51" cy="245.74" r="3.2" fill="#1d4ed8"/>
<circle cx="1180.00" cy="245.74" r="3.2" fill="#1d4ed8"/>
<text x="635" y="695" text-anchor="middle" font-size="14" fill="#111" font-family="sans-serif">Date</text>
<text x="24" y="325" text-anchor="middle" font-size="14" fill="#111" transform="rotate(-90 24,325)" font-family="sans-serif">Passed files</text>
</svg>
