<?xml version="1.0" encoding="UTF-8"?>
<svg xmlns="http://www.w3.org/2000/svg" width="1280" height="720" viewBox="0 0 1280 720">
<rect width="100%" height="100%" fill="#ffffff"/>
<text x="640" y="30" text-anchor="middle" font-size="22" font-family="sans-serif">Roast passed files history</text>
<line x1="90" y1="600" x2="1180" y2="600" stroke="#333" stroke-width="1.5"/>
<line x1="90" y1="50" x2="90" y2="600" stroke="#333" stroke-width="1.5"/>
<line x1="90" y1="600.00" x2="1180" y2="600.00" stroke="#e5e7eb" stroke-width="1"/>
<text x="78" y="605.00" text-anchor="end" font-size="12" fill="#111" font-family="sans-serif">0</text>
<line x1="90" y1="397.79" x2="1180" y2="397.79" stroke="#e5e7eb" stroke-width="1"/>
<text x="78" y="402.79" text-anchor="end" font-size="12" fill="#111" font-family="sans-serif">500</text>
<line x1="90" y1="195.59" x2="1180" y2="195.59" stroke="#e5e7eb" stroke-width="1"/>
<text x="78" y="200.59" text-anchor="end" font-size="12" fill="#111" font-family="sans-serif">1000</text>
<line x1="90.00" y1="600" x2="90.00" y2="606" stroke="#333" stroke-width="1"/>
<text x="90.00" y="624" text-anchor="end" font-size="11" fill="#111" transform="rotate(-40 90.00,624)" font-family="sans-serif">2026-02-12</text>
<line x1="226.91" y1="600" x2="226.91" y2="606" stroke="#333" stroke-width="1"/>
<text x="226.91" y="624" text-anchor="end" font-size="11" fill="#111" transform="rotate(-40 226.91,624)" font-family="sans-serif">2026-02-17</text>
<line x1="363.82" y1="600" x2="363.82" y2="606" stroke="#333" stroke-width="1"/>
<text x="363.82" y="624" text-anchor="end" font-size="11" fill="#111" transform="rotate(-40 363.82,624)" font-family="sans-serif">2026-02-18</text>
<line x1="500.72" y1="600" x2="500.72" y2="606" stroke="#333" stroke-width="1"/>
<text x="500.72" y="624" text-anchor="end" font-size="11" fill="#111" transform="rotate(-40 500.72,624)" font-family="sans-serif">2026-02-20</text>
<line x1="637.63" y1="600" x2="637.63" y2="606" stroke="#333" stroke-width="1"/>
<text x="637.63" y="624" text-anchor="end" font-size="11" fill="#111" transform="rotate(-40 637.63,624)" font-family="sans-serif">2026-02-23</text>
<line x1="774.54" y1="600" x2="774.54" y2="606" stroke="#333" stroke-width="1"/>
<text x="774.54" y="624" text-anchor="end" font-size="11" fill="#111" transform="rotate(-40 774.54,624)" font-family="sans-serif">2026-02-25</text>
<line x1="911.45" y1="600" x2="911.45" y2="606" stroke="#333" stroke-width="1"/>
<text x="911.45" y="624" text-anchor="end" font-size="11" fill="#111" transform="rotate(-40 911.45,624)" font-family="sans-serif">2026-02-26</text>
<line x1="1048.36" y1="600" x2="1048.36" y2="606" stroke="#333" stroke-width="1"/>
<text x="1048.36" y="624" text-anchor="end" font-size="11" fill="#111" transform="rotate(-40 1048.36,624)" font-family="sans-serif">2026-02-28</text>
<line x1="1180.00" y1="600" x2="1180.00" y2="606" stroke="#333" stroke-width="1"/>
<text x="1180.00" y="624" text-anchor="end" font-size="11" fill="#111" transform="rotate(-40 1180.00,624)" font-family="sans-serif">2026-03-01</text>
<line x1="90" y1="75.88" x2="1180" y2="75.88" stroke="#dc2626" stroke-width="1.5" stroke-dasharray="8,4"/>
<text x="1184" y="79.88" font-size="12" fill="#dc2626" font-family="sans-serif">Goal: 1296</text>
<polyline fill="none" stroke="#2563eb" stroke-width="3" points="90.00,540.55 95.27,538.53 100.53,536.91 105.80,534.49 111.06,534.49 116.33,533.27 121.59,532.46 126.86,532.87 132.13,532.06 137.39,532.46 142.66,532.06 147.92,568.46 153.19,568.46 158.45,566.43 163.72,545.00 168.99,545.00 174.25,544.19 179.52,543.79 184.78,543.79 190.05,543.38 195.31,541.76 200.58,541.36 205.85,540.96 211.11,540.96 216.38,539.34 221.64,539.34 226.91,556.73 232.17,556.73 237.44,555.51 242.71,551.07 247.97,538.93 253.24,538.93 258.50,538.93 263.77,538.12 269.03,536.91 274.30,536.91 279.57,536.51 284.83,536.51 290.10,556.73 295.36,556.73 300.63,556.73 305.89,556.73 311.16,535.29 316.43,535.29 321.69,535.29 326.96,535.29 332.22,534.49 337.49,534.08 342.75,533.68 348.02,532.87 353.29,532.06 358.55,532.06 363.82,531.25 369.08,530.85 374.35,530.44 379.61,530.04 384.88,530.04 390.14,529.23 395.41,529.23 400.68,529.23 405.94,528.42 411.21,528.42 416.47,527.61 421.74,527.21 427.00,526.80 432.27,526.40 437.54,525.18 442.80,523.57 448.07,523.57 453.33,523.16 458.60,522.76 463.86,522.35 469.13,521.54 474.40,519.52 479.66,517.50 484.93,517.50 490.19,517.50 495.46,517.50 500.72,517.50 505.99,517.50 511.26,517.10 516.52,516.69 521.79,515.48 527.05,515.07 532.32,514.67 537.58,513.86 542.85,514.26 548.12,512.24 553.38,511.84 558.65,511.84 563.91,511.03 569.18,509.82 574.44,507.79 579.71,506.99 584.98,506.58 590.24,509.41 595.51,509.01 600.77,504.96 606.04,504.56 611.30,504.15 616.57,504.56 621.84,503.75 627.10,503.75 632.37,503.35 637.63,499.30 642.90,496.47 648.16,490.00 653.43,484.34 658.70,481.10 663.96,480.29 669.23,480.70 674.49,460.88 679.76,459.26 685.02,458.05 690.29,456.03 695.56,456.03 700.82,454.41 706.09,450.77 711.35,444.30 716.62,443.90 721.88,600.00 727.15,441.88 732.42,440.66 737.68,439.45 742.95,439.04 748.21,438.64 753.48,437.83 758.74,436.62 764.01,436.62 769.28,434.60 774.54,432.17 779.81,429.34 785.07,428.93 790.34,428.53 795.60,427.72 800.87,426.91 806.14,426.10 811.40,426.10 816.67,426.10 821.93,419.63 827.20,419.23 832.46,418.42 837.73,418.01 843.00,417.61 848.26,417.61 853.53,417.61 858.79,417.21 864.06,417.21 869.32,413.57 874.59,411.95 879.86,412.76 885.12,410.74 890.39,410.74 895.65,410.33 900.92,410.33 906.18,410.33 911.45,409.93 916.71,409.93 921.98,409.93 927.25,409.52 932.51,409.52 937.78,409.12 943.04,409.52 948.31,409.12 953.57,407.50 958.84,407.10 964.11,403.05 969.37,399.82 974.64,400.22 979.90,400.62 985.17,400.62 990.43,399.41 995.70,392.94 1000.97,391.32 1006.23,389.30 1011.50,389.30 1016.76,388.49 1022.03,375.15 1027.29,374.74 1032.56,374.74 1037.83,374.74 1043.09,374.74 1048.36,374.34 1053.62,374.34 1058.89,374.34 1064.15,374.34 1069.42,374.34 1074.69,373.93 1079.95,373.12 1085.22,372.72 1090.48,373.53 1095.75,435.81 1101.01,372.32 1106.28,372.72 1111.55,371.91 1116.81,371.91 1122.08,372.32 1127.34,371.10 1132.61,369.89 1137.87,369.89 1143.14,369.89 1148.41,369.49 1153.67,369.89 1158.94,369.08 1164.20,368.68 1169.47,368.27 1174.73,367.87 1180.00,367.06"/>
<circle cx="90.00" cy="540.55" r="3.2" fill="#1d4ed8"/>
<circle cx="95.27" cy="538.53" r="3.2" fill="#1d4ed8"/>
<circle cx="100.53" cy="536.91" r="3.2" fill="#1d4ed8"/>
<circle cx="105.80" cy="534.49" r="3.2" fill="#1d4ed8"/>
<circle cx="111.06" cy="534.49" r="3.2" fill="#1d4ed8"/>
<circle cx="116.33" cy="533.27" r="3.2" fill="#1d4ed8"/>
<circle cx="121.59" cy="532.46" r="3.2" fill="#1d4ed8"/>
<circle cx="126.86" cy="532.87" r="3.2" fill="#1d4ed8"/>
<circle cx="132.13" cy="532.06" r="3.2" fill="#1d4ed8"/>
<circle cx="137.39" cy="532.46" r="3.2" fill="#1d4ed8"/>
<circle cx="142.66" cy="532.06" r="3.2" fill="#1d4ed8"/>
<circle cx="147.92" cy="568.46" r="3.2" fill="#1d4ed8"/>
<circle cx="153.19" cy="568.46" r="3.2" fill="#1d4ed8"/>
<circle cx="158.45" cy="566.43" r="3.2" fill="#1d4ed8"/>
<circle cx="163.72" cy="545.00" r="3.2" fill="#1d4ed8"/>
<circle cx="168.99" cy="545.00" r="3.2" fill="#1d4ed8"/>
<circle cx="174.25" cy="544.19" r="3.2" fill="#1d4ed8"/>
<circle cx="179.52" cy="543.79" r="3.2" fill="#1d4ed8"/>
<circle cx="184.78" cy="543.79" r="3.2" fill="#1d4ed8"/>
<circle cx="190.05" cy="543.38" r="3.2" fill="#1d4ed8"/>
<circle cx="195.31" cy="541.76" r="3.2" fill="#1d4ed8"/>
<circle cx="200.58" cy="541.36" r="3.2" fill="#1d4ed8"/>
<circle cx="205.85" cy="540.96" r="3.2" fill="#1d4ed8"/>
<circle cx="211.11" cy="540.96" r="3.2" fill="#1d4ed8"/>
<circle cx="216.38" cy="539.34" r="3.2" fill="#1d4ed8"/>
<circle cx="221.64" cy="539.34" r="3.2" fill="#1d4ed8"/>
<circle cx="226.91" cy="556.73" r="3.2" fill="#1d4ed8"/>
<circle cx="232.17" cy="556.73" r="3.2" fill="#1d4ed8"/>
<circle cx="237.44" cy="555.51" r="3.2" fill="#1d4ed8"/>
<circle cx="242.71" cy="551.07" r="3.2" fill="#1d4ed8"/>
<circle cx="247.97" cy="538.93" r="3.2" fill="#1d4ed8"/>
<circle cx="253.24" cy="538.93" r="3.2" fill="#1d4ed8"/>
<circle cx="258.50" cy="538.93" r="3.2" fill="#1d4ed8"/>
<circle cx="263.77" cy="538.12" r="3.2" fill="#1d4ed8"/>
<circle cx="269.03" cy="536.91" r="3.2" fill="#1d4ed8"/>
<circle cx="274.30" cy="536.91" r="3.2" fill="#1d4ed8"/>
<circle cx="279.57" cy="536.51" r="3.2" fill="#1d4ed8"/>
<circle cx="284.83" cy="536.51" r="3.2" fill="#1d4ed8"/>
<circle cx="290.10" cy="556.73" r="3.2" fill="#1d4ed8"/>
<circle cx="295.36" cy="556.73" r="3.2" fill="#1d4ed8"/>
<circle cx="300.63" cy="556.73" r="3.2" fill="#1d4ed8"/>
<circle cx="305.89" cy="556.73" r="3.2" fill="#1d4ed8"/>
<circle cx="311.16" cy="535.29" r="3.2" fill="#1d4ed8"/>
<circle cx="316.43" cy="535.29" r="3.2" fill="#1d4ed8"/>
<circle cx="321.69" cy="535.29" r="3.2" fill="#1d4ed8"/>
<circle cx="326.96" cy="535.29" r="3.2" fill="#1d4ed8"/>
<circle cx="332.22" cy="534.49" r="3.2" fill="#1d4ed8"/>
<circle cx="337.49" cy="534.08" r="3.2" fill="#1d4ed8"/>
<circle cx="342.75" cy="533.68" r="3.2" fill="#1d4ed8"/>
<circle cx="348.02" cy="532.87" r="3.2" fill="#1d4ed8"/>
<circle cx="353.29" cy="532.06" r="3.2" fill="#1d4ed8"/>
<circle cx="358.55" cy="532.06" r="3.2" fill="#1d4ed8"/>
<circle cx="363.82" cy="531.25" r="3.2" fill="#1d4ed8"/>
<circle cx="369.08" cy="530.85" r="3.2" fill="#1d4ed8"/>
<circle cx="374.35" cy="530.44" r="3.2" fill="#1d4ed8"/>
<circle cx="379.61" cy="530.04" r="3.2" fill="#1d4ed8"/>
<circle cx="384.88" cy="530.04" r="3.2" fill="#1d4ed8"/>
<circle cx="390.14" cy="529.23" r="3.2" fill="#1d4ed8"/>
<circle cx="395.41" cy="529.23" r="3.2" fill="#1d4ed8"/>
<circle cx="400.68" cy="529.23" r="3.2" fill="#1d4ed8"/>
<circle cx="405.94" cy="528.42" r="3.2" fill="#1d4ed8"/>
<circle cx="411.21" cy="528.42" r="3.2" fill="#1d4ed8"/>
<circle cx="416.47" cy="527.61" r="3.2" fill="#1d4ed8"/>
<circle cx="421.74" cy="527.21" r="3.2" fill="#1d4ed8"/>
<circle cx="427.00" cy="526.80" r="3.2" fill="#1d4ed8"/>
<circle cx="432.27" cy="526.40" r="3.2" fill="#1d4ed8"/>
<circle cx="437.54" cy="525.18" r="3.2" fill="#1d4ed8"/>
<circle cx="442.80" cy="523.57" r="3.2" fill="#1d4ed8"/>
<circle cx="448.07" cy="523.57" r="3.2" fill="#1d4ed8"/>
<circle cx="453.33" cy="523.16" r="3.2" fill="#1d4ed8"/>
<circle cx="458.60" cy="522.76" r="3.2" fill="#1d4ed8"/>
<circle cx="463.86" cy="522.35" r="3.2" fill="#1d4ed8"/>
<circle cx="469.13" cy="521.54" r="3.2" fill="#1d4ed8"/>
<circle cx="474.40" cy="519.52" r="3.2" fill="#1d4ed8"/>
<circle cx="479.66" cy="517.50" r="3.2" fill="#1d4ed8"/>
<circle cx="484.93" cy="517.50" r="3.2" fill="#1d4ed8"/>
<circle cx="490.19" cy="517.50" r="3.2" fill="#1d4ed8"/>
<circle cx="495.46" cy="517.50" r="3.2" fill="#1d4ed8"/>
<circle cx="500.72" cy="517.50" r="3.2" fill="#1d4ed8"/>
<circle cx="505.99" cy="517.50" r="3.2" fill="#1d4ed8"/>
<circle cx="511.26" cy="517.10" r="3.2" fill="#1d4ed8"/>
<circle cx="516.52" cy="516.69" r="3.2" fill="#1d4ed8"/>
<circle cx="521.79" cy="515.48" r="3.2" fill="#1d4ed8"/>
<circle cx="527.05" cy="515.07" r="3.2" fill="#1d4ed8"/>
<circle cx="532.32" cy="514.67" r="3.2" fill="#1d4ed8"/>
<circle cx="537.58" cy="513.86" r="3.2" fill="#1d4ed8"/>
<circle cx="542.85" cy="514.26" r="3.2" fill="#1d4ed8"/>
<circle cx="548.12" cy="512.24" r="3.2" fill="#1d4ed8"/>
<circle cx="553.38" cy="511.84" r="3.2" fill="#1d4ed8"/>
<circle cx="558.65" cy="511.84" r="3.2" fill="#1d4ed8"/>
<circle cx="563.91" cy="511.03" r="3.2" fill="#1d4ed8"/>
<circle cx="569.18" cy="509.82" r="3.2" fill="#1d4ed8"/>
<circle cx="574.44" cy="507.79" r="3.2" fill="#1d4ed8"/>
<circle cx="579.71" cy="506.99" r="3.2" fill="#1d4ed8"/>
<circle cx="584.98" cy="506.58" r="3.2" fill="#1d4ed8"/>
<circle cx="590.24" cy="509.41" r="3.2" fill="#1d4ed8"/>
<circle cx="595.51" cy="509.01" r="3.2" fill="#1d4ed8"/>
<circle cx="600.77" cy="504.96" r="3.2" fill="#1d4ed8"/>
<circle cx="606.04" cy="504.56" r="3.2" fill="#1d4ed8"/>
<circle cx="611.30" cy="504.15" r="3.2" fill="#1d4ed8"/>
<circle cx="616.57" cy="504.56" r="3.2" fill="#1d4ed8"/>
<circle cx="621.84" cy="503.75" r="3.2" fill="#1d4ed8"/>
<circle cx="627.10" cy="503.75" r="3.2" fill="#1d4ed8"/>
<circle cx="632.37" cy="503.35" r="3.2" fill="#1d4ed8"/>
<circle cx="637.63" cy="499.30" r="3.2" fill="#1d4ed8"/>
<circle cx="642.90" cy="496.47" r="3.2" fill="#1d4ed8"/>
<circle cx="648.16" cy="490.00" r="3.2" fill="#1d4ed8"/>
<circle cx="653.43" cy="484.34" r="3.2" fill="#1d4ed8"/>
<circle cx="658.70" cy="481.10" r="3.2" fill="#1d4ed8"/>
<circle cx="663.96" cy="480.29" r="3.2" fill="#1d4ed8"/>
<circle cx="669.23" cy="480.70" r="3.2" fill="#1d4ed8"/>
<circle cx="674.49" cy="460.88" r="3.2" fill="#1d4ed8"/>
<circle cx="679.76" cy="459.26" r="3.2" fill="#1d4ed8"/>
<circle cx="685.02" cy="458.05" r="3.2" fill="#1d4ed8"/>
<circle cx="690.29" cy="456.03" r="3.2" fill="#1d4ed8"/>
<circle cx="695.56" cy="456.03" r="3.2" fill="#1d4ed8"/>
<circle cx="700.82" cy="454.41" r="3.2" fill="#1d4ed8"/>
<circle cx="706.09" cy="450.77" r="3.2" fill="#1d4ed8"/>
<circle cx="711.35" cy="444.30" r="3.2" fill="#1d4ed8"/>
<circle cx="716.62" cy="443.90" r="3.2" fill="#1d4ed8"/>
<circle cx="721.88" cy="600.00" r="3.2" fill="#1d4ed8"/>
<circle cx="727.15" cy="441.88" r="3.2" fill="#1d4ed8"/>
<circle cx="732.42" cy="440.66" r="3.2" fill="#1d4ed8"/>
<circle cx="737.68" cy="439.45" r="3.2" fill="#1d4ed8"/>
<circle cx="742.95" cy="439.04" r="3.2" fill="#1d4ed8"/>
<circle cx="748.21" cy="438.64" r="3.2" fill="#1d4ed8"/>
<circle cx="753.48" cy="437.83" r="3.2" fill="#1d4ed8"/>
<circle cx="758.74" cy="436.62" r="3.2" fill="#1d4ed8"/>
<circle cx="764.01" cy="436.62" r="3.2" fill="#1d4ed8"/>
<circle cx="769.28" cy="434.60" r="3.2" fill="#1d4ed8"/>
<circle cx="774.54" cy="432.17" r="3.2" fill="#1d4ed8"/>
<circle cx="779.81" cy="429.34" r="3.2" fill="#1d4ed8"/>
<circle cx="785.07" cy="428.93" r="3.2" fill="#1d4ed8"/>
<circle cx="790.34" cy="428.53" r="3.2" fill="#1d4ed8"/>
<circle cx="795.60" cy="427.72" r="3.2" fill="#1d4ed8"/>
<circle cx="800.87" cy="426.91" r="3.2" fill="#1d4ed8"/>
<circle cx="806.14" cy="426.10" r="3.2" fill="#1d4ed8"/>
<circle cx="811.40" cy="426.10" r="3.2" fill="#1d4ed8"/>
<circle cx="816.67" cy="426.10" r="3.2" fill="#1d4ed8"/>
<circle cx="821.93" cy="419.63" r="3.2" fill="#1d4ed8"/>
<circle cx="827.20" cy="419.23" r="3.2" fill="#1d4ed8"/>
<circle cx="832.46" cy="418.42" r="3.2" fill="#1d4ed8"/>
<circle cx="837.73" cy="418.01" r="3.2" fill="#1d4ed8"/>
<circle cx="843.00" cy="417.61" r="3.2" fill="#1d4ed8"/>
<circle cx="848.26" cy="417.61" r="3.2" fill="#1d4ed8"/>
<circle cx="853.53" cy="417.61" r="3.2" fill="#1d4ed8"/>
<circle cx="858.79" cy="417.21" r="3.2" fill="#1d4ed8"/>
<circle cx="864.06" cy="417.21" r="3.2" fill="#1d4ed8"/>
<circle cx="869.32" cy="413.57" r="3.2" fill="#1d4ed8"/>
<circle cx="874.59" cy="411.95" r="3.2" fill="#1d4ed8"/>
<circle cx="879.86" cy="412.76" r="3.2" fill="#1d4ed8"/>
<circle cx="885.12" cy="410.74" r="3.2" fill="#1d4ed8"/>
<circle cx="890.39" cy="410.74" r="3.2" fill="#1d4ed8"/>
<circle cx="895.65" cy="410.33" r="3.2" fill="#1d4ed8"/>
<circle cx="900.92" cy="410.33" r="3.2" fill="#1d4ed8"/>
<circle cx="906.18" cy="410.33" r="3.2" fill="#1d4ed8"/>
<circle cx="911.45" cy="409.93" r="3.2" fill="#1d4ed8"/>
<circle cx="916.71" cy="409.93" r="3.2" fill="#1d4ed8"/>
<circle cx="921.98" cy="409.93" r="3.2" fill="#1d4ed8"/>
<circle cx="927.25" cy="409.52" r="3.2" fill="#1d4ed8"/>
<circle cx="932.51" cy="409.52" r="3.2" fill="#1d4ed8"/>
<circle cx="937.78" cy="409.12" r="3.2" fill="#1d4ed8"/>
<circle cx="943.04" cy="409.52" r="3.2" fill="#1d4ed8"/>
<circle cx="948.31" cy="409.12" r="3.2" fill="#1d4ed8"/>
<circle cx="953.57" cy="407.50" r="3.2" fill="#1d4ed8"/>
<circle cx="958.84" cy="407.10" r="3.2" fill="#1d4ed8"/>
<circle cx="964.11" cy="403.05" r="3.2" fill="#1d4ed8"/>
<circle cx="969.37" cy="399.82" r="3.2" fill="#1d4ed8"/>
<circle cx="974.64" cy="400.22" r="3.2" fill="#1d4ed8"/>
<circle cx="979.90" cy="400.62" r="3.2" fill="#1d4ed8"/>
<circle cx="985.17" cy="400.62" r="3.2" fill="#1d4ed8"/>
<circle cx="990.43" cy="399.41" r="3.2" fill="#1d4ed8"/>
<circle cx="995.70" cy="392.94" r="3.2" fill="#1d4ed8"/>
<circle cx="1000.97" cy="391.32" r="3.2" fill="#1d4ed8"/>
<circle cx="1006.23" cy="389.30" r="3.2" fill="#1d4ed8"/>
<circle cx="1011.50" cy="389.30" r="3.2" fill="#1d4ed8"/>
<circle cx="1016.76" cy="388.49" r="3.2" fill="#1d4ed8"/>
<circle cx="1022.03" cy="375.15" r="3.2" fill="#1d4ed8"/>
<circle cx="1027.29" cy="374.74" r="3.2" fill="#1d4ed8"/>
<circle cx="1032.56" cy="374.74" r="3.2" fill="#1d4ed8"/>
<circle cx="1037.83" cy="374.74" r="3.2" fill="#1d4ed8"/>
<circle cx="1043.09" cy="374.74" r="3.2" fill="#1d4ed8"/>
<circle cx="1048.36" cy="374.34" r="3.2" fill="#1d4ed8"/>
<circle cx="1053.62" cy="374.34" r="3.2" fill="#1d4ed8"/>
<circle cx="1058.89" cy="374.34" r="3.2" fill="#1d4ed8"/>
<circle cx="1064.15" cy="374.34" r="3.2" fill="#1d4ed8"/>
<circle cx="1069.42" cy="374.34" r="3.2" fill="#1d4ed8"/>
<circle cx="1074.69" cy="373.93" r="3.2" fill="#1d4ed8"/>
<circle cx="1079.95" cy="373.12" r="3.2" fill="#1d4ed8"/>
<circle cx="1085.22" cy="372.72" r="3.2" fill="#1d4ed8"/>
<circle cx="1090.48" cy="373.53" r="3.2" fill="#1d4ed8"/>
<circle cx="1095.75" cy="435.81" r="3.2" fill="#1d4ed8"/>
<circle cx="1101.01" cy="372.32" r="3.2" fill="#1d4ed8"/>
<circle cx="1106.28" cy="372.72" r="3.2" fill="#1d4ed8"/>
<circle cx="1111.55" cy="371.91" r="3.2" fill="#1d4ed8"/>
<circle cx="1116.81" cy="371.91" r="3.2" fill="#1d4ed8"/>
<circle cx="1122.08" cy="372.32" r="3.2" fill="#1d4ed8"/>
<circle cx="1127.34" cy="371.10" r="3.2" fill="#1d4ed8"/>
<circle cx="1132.61" cy="369.89" r="3.2" fill="#1d4ed8"/>
<circle cx="1137.87" cy="369.89" r="3.2" fill="#1d4ed8"/>
<circle cx="1143.14" cy="369.89" r="3.2" fill="#1d4ed8"/>
<circle cx="1148.41" cy="369.49" r="3.2" fill="#1d4ed8"/>
<circle cx="1153.67" cy="369.89" r="3.2" fill="#1d4ed8"/>
<circle cx="1158.94" cy="369.08" r="3.2" fill="#1d4ed8"/>
<circle cx="1164.20" cy="368.68" r="3.2" fill="#1d4ed8"/>
<circle cx="1169.47" cy="368.27" r="3.2" fill="#1d4ed8"/>
<circle cx="1174.73" cy="367.87" r="3.2" fill="#1d4ed8"/>
<circle cx="1180.00" cy="367.06" r="3.2" fill="#1d4ed8"/>
<text x="635" y="695" text-anchor="middle" font-size="14" fill="#111" font-family="sans-serif">Date</text>
<text x="24" y="325" text-anchor="middle" font-size="14" fill="#111" transform="rotate(-90 24,325)" font-family="sans-serif">Passed files</text>
</svg>
