<?xml version="1.0" encoding="UTF-8"?>
<svg xmlns="http://www.w3.org/2000/svg" width="1280" height="720" viewBox="0 0 1280 720">
<rect width="100%" height="100%" fill="#ffffff"/>
<text x="640" y="30" text-anchor="middle" font-size="22" font-family="sans-serif">Roast passed files history</text>
<line x1="90" y1="600" x2="1180" y2="600" stroke="#333" stroke-width="1.5"/>
<line x1="90" y1="50" x2="90" y2="600" stroke="#333" stroke-width="1.5"/>
<line x1="90" y1="600.00" x2="1180" y2="600.00" stroke="#e5e7eb" stroke-width="1"/>
<text x="78" y="605.00" text-anchor="end" font-size="12" fill="#111" font-family="sans-serif">0</text>
<line x1="90" y1="397.79" x2="1180" y2="397.79" stroke="#e5e7eb" stroke-width="1"/>
<text x="78" y="402.79" text-anchor="end" font-size="12" fill="#111" font-family="sans-serif">500</text>
<line x1="90" y1="195.59" x2="1180" y2="195.59" stroke="#e5e7eb" stroke-width="1"/>
<text x="78" y="200.59" text-anchor="end" font-size="12" fill="#111" font-family="sans-serif">1000</text>
<line x1="90.00" y1="600" x2="90.00" y2="606" stroke="#333" stroke-width="1"/>
<text x="90.00" y="624" text-anchor="end" font-size="11" fill="#111" transform="rotate(-40 90.00,624)" font-family="sans-serif">2026-02-12</text>
<line x1="226.25" y1="600" x2="226.25" y2="606" stroke="#333" stroke-width="1"/>
<text x="226.25" y="624" text-anchor="end" font-size="11" fill="#111" transform="rotate(-40 226.25,624)" font-family="sans-serif">2026-02-17</text>
<line x1="362.50" y1="600" x2="362.50" y2="606" stroke="#333" stroke-width="1"/>
<text x="362.50" y="624" text-anchor="end" font-size="11" fill="#111" transform="rotate(-40 362.50,624)" font-family="sans-serif">2026-02-19</text>
<line x1="498.75" y1="600" x2="498.75" y2="606" stroke="#333" stroke-width="1"/>
<text x="498.75" y="624" text-anchor="end" font-size="11" fill="#111" transform="rotate(-40 498.75,624)" font-family="sans-serif">2026-02-23</text>
<line x1="635.00" y1="600" x2="635.00" y2="606" stroke="#333" stroke-width="1"/>
<text x="635.00" y="624" text-anchor="end" font-size="11" fill="#111" transform="rotate(-40 635.00,624)" font-family="sans-serif">2026-02-25</text>
<line x1="771.25" y1="600" x2="771.25" y2="606" stroke="#333" stroke-width="1"/>
<text x="771.25" y="624" text-anchor="end" font-size="11" fill="#111" transform="rotate(-40 771.25,624)" font-family="sans-serif">2026-02-28</text>
<line x1="907.50" y1="600" x2="907.50" y2="606" stroke="#333" stroke-width="1"/>
<text x="907.50" y="624" text-anchor="end" font-size="11" fill="#111" transform="rotate(-40 907.50,624)" font-family="sans-serif">2026-03-01</text>
<line x1="1043.75" y1="600" x2="1043.75" y2="606" stroke="#333" stroke-width="1"/>
<text x="1043.75" y="624" text-anchor="end" font-size="11" fill="#111" transform="rotate(-40 1043.75,624)" font-family="sans-serif">2026-03-06</text>
<line x1="1180.00" y1="600" x2="1180.00" y2="606" stroke="#333" stroke-width="1"/>
<text x="1180.00" y="624" text-anchor="end" font-size="11" fill="#111" transform="rotate(-40 1180.00,624)" font-family="sans-serif">2026-03-07</text>
<line x1="90" y1="75.88" x2="1180" y2="75.88" stroke="#dc2626" stroke-width="1.5" stroke-dasharray="8,4"/>
<text x="1184" y="79.88" font-size="12" fill="#dc2626" font-family="sans-serif">Goal: 1296</text>
<polyline fill="none" stroke="#2563eb" stroke-width="3" points="90.00,540.55 93.89,538.53 97.79,536.91 101.68,534.49 105.57,534.49 109.46,533.27 113.36,532.46 117.25,532.87 121.14,532.06 125.04,532.46 128.93,532.06 132.82,568.46 136.71,568.46 140.61,566.43 144.50,545.00 148.39,545.00 152.29,544.19 156.18,543.79 160.07,543.79 163.96,543.38 167.86,541.76 171.75,541.36 175.64,540.96 179.54,540.96 183.43,539.34 187.32,539.34 191.21,556.73 195.11,556.73 199.00,555.51 202.89,551.07 206.79,538.93 210.68,538.93 214.57,538.93 218.46,538.12 222.36,536.91 226.25,536.91 230.14,536.51 234.04,536.51 237.93,556.73 241.82,556.73 245.71,556.73 249.61,556.73 253.50,535.29 257.39,535.29 261.29,535.29 265.18,535.29 269.07,534.49 272.96,534.08 276.86,533.68 280.75,532.87 284.64,532.06 288.54,532.06 292.43,531.25 296.32,530.85 300.21,530.44 304.11,530.04 308.00,530.04 311.89,529.23 315.79,529.23 319.68,529.23 323.57,528.42 327.46,528.42 331.36,527.61 335.25,527.21 339.14,526.80 343.04,526.40 346.93,525.18 350.82,523.57 354.71,523.57 358.61,523.16 362.50,522.76 366.39,522.35 370.29,521.54 374.18,519.52 378.07,517.50 381.96,517.50 385.86,517.50 389.75,517.50 393.64,517.50 397.54,517.50 401.43,517.10 405.32,516.69 409.21,515.48 413.11,515.07 417.00,514.67 420.89,513.86 424.79,514.26 428.68,512.24 432.57,511.84 436.46,511.84 440.36,511.03 444.25,509.82 448.14,507.79 452.04,506.99 455.93,506.58 459.82,509.41 463.71,509.01 467.61,504.96 471.50,504.56 475.39,504.15 479.29,504.56 483.18,503.75 487.07,503.75 490.96,503.35 494.86,499.30 498.75,496.47 502.64,490.00 506.54,484.34 510.43,481.10 514.32,480.29 518.21,480.70 522.11,460.88 526.00,459.26 529.89,458.05 533.79,456.03 537.68,456.03 541.57,454.41 545.46,450.77 549.36,444.30 553.25,443.90 557.14,600.00 561.04,441.88 564.93,440.66 568.82,439.45 572.71,439.04 576.61,438.64 580.50,437.83 584.39,436.62 588.29,436.62 592.18,434.60 596.07,432.17 599.96,429.34 603.86,428.93 607.75,428.53 611.64,427.72 615.54,426.91 619.43,426.10 623.32,426.10 627.21,426.10 631.11,419.63 635.00,419.23 638.89,418.42 642.79,418.01 646.68,417.61 650.57,417.61 654.46,417.61 658.36,417.21 662.25,417.21 666.14,413.57 670.04,411.95 673.93,412.76 677.82,410.74 681.71,410.74 685.61,410.33 689.50,410.33 693.39,410.33 697.29,409.93 701.18,409.93 705.07,409.93 708.96,409.52 712.86,409.52 716.75,409.12 720.64,409.52 724.54,409.12 728.43,407.50 732.32,407.10 736.21,403.05 740.11,399.82 744.00,400.22 747.89,400.62 751.79,400.62 755.68,399.41 759.57,392.94 763.46,391.32 767.36,389.30 771.25,389.30 775.14,388.49 779.04,375.15 782.93,374.74 786.82,374.74 790.71,374.74 794.61,374.74 798.50,374.34 802.39,374.34 806.29,374.34 810.18,374.34 814.07,374.34 817.96,373.93 821.86,373.12 825.75,372.72 829.64,373.53 833.54,435.81 837.43,372.32 841.32,372.72 845.21,371.91 849.11,371.91 853.00,372.32 856.89,371.10 860.79,369.89 864.68,369.89 868.57,369.89 872.46,369.49 876.36,369.89 880.25,369.08 884.14,368.68 888.04,368.27 891.93,367.87 895.82,367.06 899.71,367.46 903.61,367.06 907.50,366.25 911.39,368.27 915.29,368.68 919.18,368.68 923.07,368.27 926.96,369.08 930.86,367.87 934.75,367.46 938.64,367.06 942.54,360.18 946.43,359.78 950.32,359.38 954.21,356.95 958.11,357.35 962.00,357.76 965.89,355.33 969.79,355.74 973.68,357.35 977.57,355.33 981.46,356.14 985.36,355.74 989.25,356.14 993.14,354.12 997.04,354.93 1000.93,356.14 1004.82,354.52 1008.71,353.71 1012.61,354.12 1016.50,354.93 1020.39,352.90 1024.29,353.71 1028.18,353.31 1032.07,353.31 1035.96,354.52 1039.86,352.90 1043.75,352.50 1047.64,352.50 1051.54,353.31 1055.43,352.50 1059.32,353.71 1063.21,354.12 1067.11,352.50 1071.00,352.90 1074.89,352.50 1078.79,352.10 1082.68,351.69 1086.57,352.10 1090.46,354.12 1094.36,352.50 1098.25,352.10 1102.14,352.10 1106.04,349.67 1109.93,349.67 1113.82,350.88 1117.71,351.29 1121.61,350.48 1125.50,352.10 1129.39,350.48 1133.29,350.48 1137.18,350.48 1141.07,350.07 1144.96,348.46 1148.86,351.29 1152.75,349.67 1156.64,351.29 1160.54,349.67 1164.43,348.86 1168.32,348.46 1172.21,348.46 1176.11,347.24 1180.00,348.86"/>
<circle cx="90.00" cy="540.55" r="3.2" fill="#1d4ed8"/>
<circle cx="93.89" cy="538.53" r="3.2" fill="#1d4ed8"/>
<circle cx="97.79" cy="536.91" r="3.2" fill="#1d4ed8"/>
<circle cx="101.68" cy="534.49" r="3.2" fill="#1d4ed8"/>
<circle cx="105.57" cy="534.49" r="3.2" fill="#1d4ed8"/>
<circle cx="109.46" cy="533.27" r="3.2" fill="#1d4ed8"/>
<circle cx="113.36" cy="532.46" r="3.2" fill="#1d4ed8"/>
<circle cx="117.25" cy="532.87" r="3.2" fill="#1d4ed8"/>
<circle cx="121.14" cy="532.06" r="3.2" fill="#1d4ed8"/>
<circle cx="125.04" cy="532.46" r="3.2" fill="#1d4ed8"/>
<circle cx="128.93" cy="532.06" r="3.2" fill="#1d4ed8"/>
<circle cx="132.82" cy="568.46" r="3.2" fill="#1d4ed8"/>
<circle cx="136.71" cy="568.46" r="3.2" fill="#1d4ed8"/>
<circle cx="140.61" cy="566.43" r="3.2" fill="#1d4ed8"/>
<circle cx="144.50" cy="545.00" r="3.2" fill="#1d4ed8"/>
<circle cx="148.39" cy="545.00" r="3.2" fill="#1d4ed8"/>
<circle cx="152.29" cy="544.19" r="3.2" fill="#1d4ed8"/>
<circle cx="156.18" cy="543.79" r="3.2" fill="#1d4ed8"/>
<circle cx="160.07" cy="543.79" r="3.2" fill="#1d4ed8"/>
<circle cx="163.96" cy="543.38" r="3.2" fill="#1d4ed8"/>
<circle cx="167.86" cy="541.76" r="3.2" fill="#1d4ed8"/>
<circle cx="171.75" cy="541.36" r="3.2" fill="#1d4ed8"/>
<circle cx="175.64" cy="540.96" r="3.2" fill="#1d4ed8"/>
<circle cx="179.54" cy="540.96" r="3.2" fill="#1d4ed8"/>
<circle cx="183.43" cy="539.34" r="3.2" fill="#1d4ed8"/>
<circle cx="187.32" cy="539.34" r="3.2" fill="#1d4ed8"/>
<circle cx="191.21" cy="556.73" r="3.2" fill="#1d4ed8"/>
<circle cx="195.11" cy="556.73" r="3.2" fill="#1d4ed8"/>
<circle cx="199.00" cy="555.51" r="3.2" fill="#1d4ed8"/>
<circle cx="202.89" cy="551.07" r="3.2" fill="#1d4ed8"/>
<circle cx="206.79" cy="538.93" r="3.2" fill="#1d4ed8"/>
<circle cx="210.68" cy="538.93" r="3.2" fill="#1d4ed8"/>
<circle cx="214.57" cy="538.93" r="3.2" fill="#1d4ed8"/>
<circle cx="218.46" cy="538.12" r="3.2" fill="#1d4ed8"/>
<circle cx="222.36" cy="536.91" r="3.2" fill="#1d4ed8"/>
<circle cx="226.25" cy="536.91" r="3.2" fill="#1d4ed8"/>
<circle cx="230.14" cy="536.51" r="3.2" fill="#1d4ed8"/>
<circle cx="234.04" cy="536.51" r="3.2" fill="#1d4ed8"/>
<circle cx="237.93" cy="556.73" r="3.2" fill="#1d4ed8"/>
<circle cx="241.82" cy="556.73" r="3.2" fill="#1d4ed8"/>
<circle cx="245.71" cy="556.73" r="3.2" fill="#1d4ed8"/>
<circle cx="249.61" cy="556.73" r="3.2" fill="#1d4ed8"/>
<circle cx="253.50" cy="535.29" r="3.2" fill="#1d4ed8"/>
<circle cx="257.39" cy="535.29" r="3.2" fill="#1d4ed8"/>
<circle cx="261.29" cy="535.29" r="3.2" fill="#1d4ed8"/>
<circle cx="265.18" cy="535.29" r="3.2" fill="#1d4ed8"/>
<circle cx="269.07" cy="534.49" r="3.2" fill="#1d4ed8"/>
<circle cx="272.96" cy="534.08" r="3.2" fill="#1d4ed8"/>
<circle cx="276.86" cy="533.68" r="3.2" fill="#1d4ed8"/>
<circle cx="280.75" cy="532.87" r="3.2" fill="#1d4ed8"/>
<circle cx="284.64" cy="532.06" r="3.2" fill="#1d4ed8"/>
<circle cx="288.54" cy="532.06" r="3.2" fill="#1d4ed8"/>
<circle cx="292.43" cy="531.25" r="3.2" fill="#1d4ed8"/>
<circle cx="296.32" cy="530.85" r="3.2" fill="#1d4ed8"/>
<circle cx="300.21" cy="530.44" r="3.2" fill="#1d4ed8"/>
<circle cx="304.11" cy="530.04" r="3.2" fill="#1d4ed8"/>
<circle cx="308.00" cy="530.04" r="3.2" fill="#1d4ed8"/>
<circle cx="311.89" cy="529.23" r="3.2" fill="#1d4ed8"/>
<circle cx="315.79" cy="529.23" r="3.2" fill="#1d4ed8"/>
<circle cx="319.68" cy="529.23" r="3.2" fill="#1d4ed8"/>
<circle cx="323.57" cy="528.42" r="3.2" fill="#1d4ed8"/>
<circle cx="327.46" cy="528.42" r="3.2" fill="#1d4ed8"/>
<circle cx="331.36" cy="527.61" r="3.2" fill="#1d4ed8"/>
<circle cx="335.25" cy="527.21" r="3.2" fill="#1d4ed8"/>
<circle cx="339.14" cy="526.80" r="3.2" fill="#1d4ed8"/>
<circle cx="343.04" cy="526.40" r="3.2" fill="#1d4ed8"/>
<circle cx="346.93" cy="525.18" r="3.2" fill="#1d4ed8"/>
<circle cx="350.82" cy="523.57" r="3.2" fill="#1d4ed8"/>
<circle cx="354.71" cy="523.57" r="3.2" fill="#1d4ed8"/>
<circle cx="358.61" cy="523.16" r="3.2" fill="#1d4ed8"/>
<circle cx="362.50" cy="522.76" r="3.2" fill="#1d4ed8"/>
<circle cx="366.39" cy="522.35" r="3.2" fill="#1d4ed8"/>
<circle cx="370.29" cy="521.54" r="3.2" fill="#1d4ed8"/>
<circle cx="374.18" cy="519.52" r="3.2" fill="#1d4ed8"/>
<circle cx="378.07" cy="517.50" r="3.2" fill="#1d4ed8"/>
<circle cx="381.96" cy="517.50" r="3.2" fill="#1d4ed8"/>
<circle cx="385.86" cy="517.50" r="3.2" fill="#1d4ed8"/>
<circle cx="389.75" cy="517.50" r="3.2" fill="#1d4ed8"/>
<circle cx="393.64" cy="517.50" r="3.2" fill="#1d4ed8"/>
<circle cx="397.54" cy="517.50" r="3.2" fill="#1d4ed8"/>
<circle cx="401.43" cy="517.10" r="3.2" fill="#1d4ed8"/>
<circle cx="405.32" cy="516.69" r="3.2" fill="#1d4ed8"/>
<circle cx="409.21" cy="515.48" r="3.2" fill="#1d4ed8"/>
<circle cx="413.11" cy="515.07" r="3.2" fill="#1d4ed8"/>
<circle cx="417.00" cy="514.67" r="3.2" fill="#1d4ed8"/>
<circle cx="420.89" cy="513.86" r="3.2" fill="#1d4ed8"/>
<circle cx="424.79" cy="514.26" r="3.2" fill="#1d4ed8"/>
<circle cx="428.68" cy="512.24" r="3.2" fill="#1d4ed8"/>
<circle cx="432.57" cy="511.84" r="3.2" fill="#1d4ed8"/>
<circle cx="436.46" cy="511.84" r="3.2" fill="#1d4ed8"/>
<circle cx="440.36" cy="511.03" r="3.2" fill="#1d4ed8"/>
<circle cx="444.25" cy="509.82" r="3.2" fill="#1d4ed8"/>
<circle cx="448.14" cy="507.79" r="3.2" fill="#1d4ed8"/>
<circle cx="452.04" cy="506.99" r="3.2" fill="#1d4ed8"/>
<circle cx="455.93" cy="506.58" r="3.2" fill="#1d4ed8"/>
<circle cx="459.82" cy="509.41" r="3.2" fill="#1d4ed8"/>
<circle cx="463.71" cy="509.01" r="3.2" fill="#1d4ed8"/>
<circle cx="467.61" cy="504.96" r="3.2" fill="#1d4ed8"/>
<circle cx="471.50" cy="504.56" r="3.2" fill="#1d4ed8"/>
<circle cx="475.39" cy="504.15" r="3.2" fill="#1d4ed8"/>
<circle cx="479.29" cy="504.56" r="3.2" fill="#1d4ed8"/>
<circle cx="483.18" cy="503.75" r="3.2" fill="#1d4ed8"/>
<circle cx="487.07" cy="503.75" r="3.2" fill="#1d4ed8"/>
<circle cx="490.96" cy="503.35" r="3.2" fill="#1d4ed8"/>
<circle cx="494.86" cy="499.30" r="3.2" fill="#1d4ed8"/>
<circle cx="498.75" cy="496.47" r="3.2" fill="#1d4ed8"/>
<circle cx="502.64" cy="490.00" r="3.2" fill="#1d4ed8"/>
<circle cx="506.54" cy="484.34" r="3.2" fill="#1d4ed8"/>
<circle cx="510.43" cy="481.10" r="3.2" fill="#1d4ed8"/>
<circle cx="514.32" cy="480.29" r="3.2" fill="#1d4ed8"/>
<circle cx="518.21" cy="480.70" r="3.2" fill="#1d4ed8"/>
<circle cx="522.11" cy="460.88" r="3.2" fill="#1d4ed8"/>
<circle cx="526.00" cy="459.26" r="3.2" fill="#1d4ed8"/>
<circle cx="529.89" cy="458.05" r="3.2" fill="#1d4ed8"/>
<circle cx="533.79" cy="456.03" r="3.2" fill="#1d4ed8"/>
<circle cx="537.68" cy="456.03" r="3.2" fill="#1d4ed8"/>
<circle cx="541.57" cy="454.41" r="3.2" fill="#1d4ed8"/>
<circle cx="545.46" cy="450.77" r="3.2" fill="#1d4ed8"/>
<circle cx="549.36" cy="444.30" r="3.2" fill="#1d4ed8"/>
<circle cx="553.25" cy="443.90" r="3.2" fill="#1d4ed8"/>
<circle cx="557.14" cy="600.00" r="3.2" fill="#1d4ed8"/>
<circle cx="561.04" cy="441.88" r="3.2" fill="#1d4ed8"/>
<circle cx="564.93" cy="440.66" r="3.2" fill="#1d4ed8"/>
<circle cx="568.82" cy="439.45" r="3.2" fill="#1d4ed8"/>
<circle cx="572.71" cy="439.04" r="3.2" fill="#1d4ed8"/>
<circle cx="576.61" cy="438.64" r="3.2" fill="#1d4ed8"/>
<circle cx="580.50" cy="437.83" r="3.2" fill="#1d4ed8"/>
<circle cx="584.39" cy="436.62" r="3.2" fill="#1d4ed8"/>
<circle cx="588.29" cy="436.62" r="3.2" fill="#1d4ed8"/>
<circle cx="592.18" cy="434.60" r="3.2" fill="#1d4ed8"/>
<circle cx="596.07" cy="432.17" r="3.2" fill="#1d4ed8"/>
<circle cx="599.96" cy="429.34" r="3.2" fill="#1d4ed8"/>
<circle cx="603.86" cy="428.93" r="3.2" fill="#1d4ed8"/>
<circle cx="607.75" cy="428.53" r="3.2" fill="#1d4ed8"/>
<circle cx="611.64" cy="427.72" r="3.2" fill="#1d4ed8"/>
<circle cx="615.54" cy="426.91" r="3.2" fill="#1d4ed8"/>
<circle cx="619.43" cy="426.10" r="3.2" fill="#1d4ed8"/>
<circle cx="623.32" cy="426.10" r="3.2" fill="#1d4ed8"/>
<circle cx="627.21" cy="426.10" r="3.2" fill="#1d4ed8"/>
<circle cx="631.11" cy="419.63" r="3.2" fill="#1d4ed8"/>
<circle cx="635.00" cy="419.23" r="3.2" fill="#1d4ed8"/>
<circle cx="638.89" cy="418.42" r="3.2" fill="#1d4ed8"/>
<circle cx="642.79" cy="418.01" r="3.2" fill="#1d4ed8"/>
<circle cx="646.68" cy="417.61" r="3.2" fill="#1d4ed8"/>
<circle cx="650.57" cy="417.61" r="3.2" fill="#1d4ed8"/>
<circle cx="654.46" cy="417.61" r="3.2" fill="#1d4ed8"/>
<circle cx="658.36" cy="417.21" r="3.2" fill="#1d4ed8"/>
<circle cx="662.25" cy="417.21" r="3.2" fill="#1d4ed8"/>
<circle cx="666.14" cy="413.57" r="3.2" fill="#1d4ed8"/>
<circle cx="670.04" cy="411.95" r="3.2" fill="#1d4ed8"/>
<circle cx="673.93" cy="412.76" r="3.2" fill="#1d4ed8"/>
<circle cx="677.82" cy="410.74" r="3.2" fill="#1d4ed8"/>
<circle cx="681.71" cy="410.74" r="3.2" fill="#1d4ed8"/>
<circle cx="685.61" cy="410.33" r="3.2" fill="#1d4ed8"/>
<circle cx="689.50" cy="410.33" r="3.2" fill="#1d4ed8"/>
<circle cx="693.39" cy="410.33" r="3.2" fill="#1d4ed8"/>
<circle cx="697.29" cy="409.93" r="3.2" fill="#1d4ed8"/>
<circle cx="701.18" cy="409.93" r="3.2" fill="#1d4ed8"/>
<circle cx="705.07" cy="409.93" r="3.2" fill="#1d4ed8"/>
<circle cx="708.96" cy="409.52" r="3.2" fill="#1d4ed8"/>
<circle cx="712.86" cy="409.52" r="3.2" fill="#1d4ed8"/>
<circle cx="716.75" cy="409.12" r="3.2" fill="#1d4ed8"/>
<circle cx="720.64" cy="409.52" r="3.2" fill="#1d4ed8"/>
<circle cx="724.54" cy="409.12" r="3.2" fill="#1d4ed8"/>
<circle cx="728.43" cy="407.50" r="3.2" fill="#1d4ed8"/>
<circle cx="732.32" cy="407.10" r="3.2" fill="#1d4ed8"/>
<circle cx="736.21" cy="403.05" r="3.2" fill="#1d4ed8"/>
<circle cx="740.11" cy="399.82" r="3.2" fill="#1d4ed8"/>
<circle cx="744.00" cy="400.22" r="3.2" fill="#1d4ed8"/>
<circle cx="747.89" cy="400.62" r="3.2" fill="#1d4ed8"/>
<circle cx="751.79" cy="400.62" r="3.2" fill="#1d4ed8"/>
<circle cx="755.68" cy="399.41" r="3.2" fill="#1d4ed8"/>
<circle cx="759.57" cy="392.94" r="3.2" fill="#1d4ed8"/>
<circle cx="763.46" cy="391.32" r="3.2" fill="#1d4ed8"/>
<circle cx="767.36" cy="389.30" r="3.2" fill="#1d4ed8"/>
<circle cx="771.25" cy="389.30" r="3.2" fill="#1d4ed8"/>
<circle cx="775.14" cy="388.49" r="3.2" fill="#1d4ed8"/>
<circle cx="779.04" cy="375.15" r="3.2" fill="#1d4ed8"/>
<circle cx="782.93" cy="374.74" r="3.2" fill="#1d4ed8"/>
<circle cx="786.82" cy="374.74" r="3.2" fill="#1d4ed8"/>
<circle cx="790.71" cy="374.74" r="3.2" fill="#1d4ed8"/>
<circle cx="794.61" cy="374.74" r="3.2" fill="#1d4ed8"/>
<circle cx="798.50" cy="374.34" r="3.2" fill="#1d4ed8"/>
<circle cx="802.39" cy="374.34" r="3.2" fill="#1d4ed8"/>
<circle cx="806.29" cy="374.34" r="3.2" fill="#1d4ed8"/>
<circle cx="810.18" cy="374.34" r="3.2" fill="#1d4ed8"/>
<circle cx="814.07" cy="374.34" r="3.2" fill="#1d4ed8"/>
<circle cx="817.96" cy="373.93" r="3.2" fill="#1d4ed8"/>
<circle cx="821.86" cy="373.12" r="3.2" fill="#1d4ed8"/>
<circle cx="825.75" cy="372.72" r="3.2" fill="#1d4ed8"/>
<circle cx="829.64" cy="373.53" r="3.2" fill="#1d4ed8"/>
<circle cx="833.54" cy="435.81" r="3.2" fill="#1d4ed8"/>
<circle cx="837.43" cy="372.32" r="3.2" fill="#1d4ed8"/>
<circle cx="841.32" cy="372.72" r="3.2" fill="#1d4ed8"/>
<circle cx="845.21" cy="371.91" r="3.2" fill="#1d4ed8"/>
<circle cx="849.11" cy="371.91" r="3.2" fill="#1d4ed8"/>
<circle cx="853.00" cy="372.32" r="3.2" fill="#1d4ed8"/>
<circle cx="856.89" cy="371.10" r="3.2" fill="#1d4ed8"/>
<circle cx="860.79" cy="369.89" r="3.2" fill="#1d4ed8"/>
<circle cx="864.68" cy="369.89" r="3.2" fill="#1d4ed8"/>
<circle cx="868.57" cy="369.89" r="3.2" fill="#1d4ed8"/>
<circle cx="872.46" cy="369.49" r="3.2" fill="#1d4ed8"/>
<circle cx="876.36" cy="369.89" r="3.2" fill="#1d4ed8"/>
<circle cx="880.25" cy="369.08" r="3.2" fill="#1d4ed8"/>
<circle cx="884.14" cy="368.68" r="3.2" fill="#1d4ed8"/>
<circle cx="888.04" cy="368.27" r="3.2" fill="#1d4ed8"/>
<circle cx="891.93" cy="367.87" r="3.2" fill="#1d4ed8"/>
<circle cx="895.82" cy="367.06" r="3.2" fill="#1d4ed8"/>
<circle cx="899.71" cy="367.46" r="3.2" fill="#1d4ed8"/>
<circle cx="903.61" cy="367.06" r="3.2" fill="#1d4ed8"/>
<circle cx="907.50" cy="366.25" r="3.2" fill="#1d4ed8"/>
<circle cx="911.39" cy="368.27" r="3.2" fill="#1d4ed8"/>
<circle cx="915.29" cy="368.68" r="3.2" fill="#1d4ed8"/>
<circle cx="919.18" cy="368.68" r="3.2" fill="#1d4ed8"/>
<circle cx="923.07" cy="368.27" r="3.2" fill="#1d4ed8"/>
<circle cx="926.96" cy="369.08" r="3.2" fill="#1d4ed8"/>
<circle cx="930.86" cy="367.87" r="3.2" fill="#1d4ed8"/>
<circle cx="934.75" cy="367.46" r="3.2" fill="#1d4ed8"/>
<circle cx="938.64" cy="367.06" r="3.2" fill="#1d4ed8"/>
<circle cx="942.54" cy="360.18" r="3.2" fill="#1d4ed8"/>
<circle cx="946.43" cy="359.78" r="3.2" fill="#1d4ed8"/>
<circle cx="950.32" cy="359.38" r="3.2" fill="#1d4ed8"/>
<circle cx="954.21" cy="356.95" r="3.2" fill="#1d4ed8"/>
<circle cx="958.11" cy="357.35" r="3.2" fill="#1d4ed8"/>
<circle cx="962.00" cy="357.76" r="3.2" fill="#1d4ed8"/>
<circle cx="965.89" cy="355.33" r="3.2" fill="#1d4ed8"/>
<circle cx="969.79" cy="355.74" r="3.2" fill="#1d4ed8"/>
<circle cx="973.68" cy="357.35" r="3.2" fill="#1d4ed8"/>
<circle cx="977.57" cy="355.33" r="3.2" fill="#1d4ed8"/>
<circle cx="981.46" cy="356.14" r="3.2" fill="#1d4ed8"/>
<circle cx="985.36" cy="355.74" r="3.2" fill="#1d4ed8"/>
<circle cx="989.25" cy="356.14" r="3.2" fill="#1d4ed8"/>
<circle cx="993.14" cy="354.12" r="3.2" fill="#1d4ed8"/>
<circle cx="997.04" cy="354.93" r="3.2" fill="#1d4ed8"/>
<circle cx="1000.93" cy="356.14" r="3.2" fill="#1d4ed8"/>
<circle cx="1004.82" cy="354.52" r="3.2" fill="#1d4ed8"/>
<circle cx="1008.71" cy="353.71" r="3.2" fill="#1d4ed8"/>
<circle cx="1012.61" cy="354.12" r="3.2" fill="#1d4ed8"/>
<circle cx="1016.50" cy="354.93" r="3.2" fill="#1d4ed8"/>
<circle cx="1020.39" cy="352.90" r="3.2" fill="#1d4ed8"/>
<circle cx="1024.29" cy="353.71" r="3.2" fill="#1d4ed8"/>
<circle cx="1028.18" cy="353.31" r="3.2" fill="#1d4ed8"/>
<circle cx="1032.07" cy="353.31" r="3.2" fill="#1d4ed8"/>
<circle cx="1035.96" cy="354.52" r="3.2" fill="#1d4ed8"/>
<circle cx="1039.86" cy="352.90" r="3.2" fill="#1d4ed8"/>
<circle cx="1043.75" cy="352.50" r="3.2" fill="#1d4ed8"/>
<circle cx="1047.64" cy="352.50" r="3.2" fill="#1d4ed8"/>
<circle cx="1051.54" cy="353.31" r="3.2" fill="#1d4ed8"/>
<circle cx="1055.43" cy="352.50" r="3.2" fill="#1d4ed8"/>
<circle cx="1059.32" cy="353.71" r="3.2" fill="#1d4ed8"/>
<circle cx="1063.21" cy="354.12" r="3.2" fill="#1d4ed8"/>
<circle cx="1067.11" cy="352.50" r="3.2" fill="#1d4ed8"/>
<circle cx="1071.00" cy="352.90" r="3.2" fill="#1d4ed8"/>
<circle cx="1074.89" cy="352.50" r="3.2" fill="#1d4ed8"/>
<circle cx="1078.79" cy="352.10" r="3.2" fill="#1d4ed8"/>
<circle cx="1082.68" cy="351.69" r="3.2" fill="#1d4ed8"/>
<circle cx="1086.57" cy="352.10" r="3.2" fill="#1d4ed8"/>
<circle cx="1090.46" cy="354.12" r="3.2" fill="#1d4ed8"/>
<circle cx="1094.36" cy="352.50" r="3.2" fill="#1d4ed8"/>
<circle cx="1098.25" cy="352.10" r="3.2" fill="#1d4ed8"/>
<circle cx="1102.14" cy="352.10" r="3.2" fill="#1d4ed8"/>
<circle cx="1106.04" cy="349.67" r="3.2" fill="#1d4ed8"/>
<circle cx="1109.93" cy="349.67" r="3.2" fill="#1d4ed8"/>
<circle cx="1113.82" cy="350.88" r="3.2" fill="#1d4ed8"/>
<circle cx="1117.71" cy="351.29" r="3.2" fill="#1d4ed8"/>
<circle cx="1121.61" cy="350.48" r="3.2" fill="#1d4ed8"/>
<circle cx="1125.50" cy="352.10" r="3.2" fill="#1d4ed8"/>
<circle cx="1129.39" cy="350.48" r="3.2" fill="#1d4ed8"/>
<circle cx="1133.29" cy="350.48" r="3.2" fill="#1d4ed8"/>
<circle cx="1137.18" cy="350.48" r="3.2" fill="#1d4ed8"/>
<circle cx="1141.07" cy="350.07" r="3.2" fill="#1d4ed8"/>
<circle cx="1144.96" cy="348.46" r="3.2" fill="#1d4ed8"/>
<circle cx="1148.86" cy="351.29" r="3.2" fill="#1d4ed8"/>
<circle cx="1152.75" cy="349.67" r="3.2" fill="#1d4ed8"/>
<circle cx="1156.64" cy="351.29" r="3.2" fill="#1d4ed8"/>
<circle cx="1160.54" cy="349.67" r="3.2" fill="#1d4ed8"/>
<circle cx="1164.43" cy="348.86" r="3.2" fill="#1d4ed8"/>
<circle cx="1168.32" cy="348.46" r="3.2" fill="#1d4ed8"/>
<circle cx="1172.21" cy="348.46" r="3.2" fill="#1d4ed8"/>
<circle cx="1176.11" cy="347.24" r="3.2" fill="#1d4ed8"/>
<circle cx="1180.00" cy="348.86" r="3.2" fill="#1d4ed8"/>
<text x="635" y="695" text-anchor="middle" font-size="14" fill="#111" font-family="sans-serif">Date</text>
<text x="24" y="325" text-anchor="middle" font-size="14" fill="#111" transform="rotate(-90 24,325)" font-family="sans-serif">Passed files</text>
</svg>
