<?xml version="1.0" encoding="UTF-8"?>
<svg xmlns="http://www.w3.org/2000/svg" width="1280" height="720" viewBox="0 0 1280 720">
<rect width="100%" height="100%" fill="#ffffff"/>
<text x="640" y="30" text-anchor="middle" font-size="22" font-family="sans-serif">Roast passed files history</text>
<line x1="90" y1="600" x2="1180" y2="600" stroke="#333" stroke-width="1.5"/>
<line x1="90" y1="50" x2="90" y2="600" stroke="#333" stroke-width="1.5"/>
<line x1="90" y1="600.00" x2="1180" y2="600.00" stroke="#e5e7eb" stroke-width="1"/>
<text x="78" y="605.00" text-anchor="end" font-size="12" fill="#111" font-family="sans-serif">0</text>
<line x1="90" y1="398.09" x2="1180" y2="398.09" stroke="#e5e7eb" stroke-width="1"/>
<text x="78" y="403.09" text-anchor="end" font-size="12" fill="#111" font-family="sans-serif">500</text>
<line x1="90" y1="196.18" x2="1180" y2="196.18" stroke="#e5e7eb" stroke-width="1"/>
<text x="78" y="201.18" text-anchor="end" font-size="12" fill="#111" font-family="sans-serif">1000</text>
<line x1="90.00" y1="600" x2="90.00" y2="606" stroke="#333" stroke-width="1"/>
<text x="90.00" y="624" text-anchor="end" font-size="11" fill="#111" transform="rotate(-40 90.00,624)" font-family="sans-serif">2026-02-12</text>
<line x1="223.47" y1="600" x2="223.47" y2="606" stroke="#333" stroke-width="1"/>
<text x="223.47" y="624" text-anchor="end" font-size="11" fill="#111" transform="rotate(-40 223.47,624)" font-family="sans-serif">2026-02-15</text>
<line x1="356.94" y1="600" x2="356.94" y2="606" stroke="#333" stroke-width="1"/>
<text x="356.94" y="624" text-anchor="end" font-size="11" fill="#111" transform="rotate(-40 356.94,624)" font-family="sans-serif">2026-02-16</text>
<line x1="490.41" y1="600" x2="490.41" y2="606" stroke="#333" stroke-width="1"/>
<text x="490.41" y="624" text-anchor="end" font-size="11" fill="#111" transform="rotate(-40 490.41,624)" font-family="sans-serif">2026-02-17</text>
<line x1="623.88" y1="600" x2="623.88" y2="606" stroke="#333" stroke-width="1"/>
<text x="623.88" y="624" text-anchor="end" font-size="11" fill="#111" transform="rotate(-40 623.88,624)" font-family="sans-serif">2026-02-17</text>
<line x1="757.35" y1="600" x2="757.35" y2="606" stroke="#333" stroke-width="1"/>
<text x="757.35" y="624" text-anchor="end" font-size="11" fill="#111" transform="rotate(-40 757.35,624)" font-family="sans-serif">2026-02-18</text>
<line x1="890.82" y1="600" x2="890.82" y2="606" stroke="#333" stroke-width="1"/>
<text x="890.82" y="624" text-anchor="end" font-size="11" fill="#111" transform="rotate(-40 890.82,624)" font-family="sans-serif">2026-02-20</text>
<line x1="1024.29" y1="600" x2="1024.29" y2="606" stroke="#333" stroke-width="1"/>
<text x="1024.29" y="624" text-anchor="end" font-size="11" fill="#111" transform="rotate(-40 1024.29,624)" font-family="sans-serif">2026-02-21</text>
<line x1="1157.76" y1="600" x2="1157.76" y2="606" stroke="#333" stroke-width="1"/>
<text x="1157.76" y="624" text-anchor="end" font-size="11" fill="#111" transform="rotate(-40 1157.76,624)" font-family="sans-serif">2026-02-22</text>
<line x1="1180.00" y1="600" x2="1180.00" y2="606" stroke="#333" stroke-width="1"/>
<text x="1180.00" y="624" text-anchor="end" font-size="11" fill="#111" transform="rotate(-40 1180.00,624)" font-family="sans-serif">2026-02-22</text>
<line x1="90" y1="75.84" x2="1180" y2="75.84" stroke="#dc2626" stroke-width="1.5" stroke-dasharray="8,4"/>
<text x="1184" y="79.84" font-size="12" fill="#dc2626" font-family="sans-serif">Goal: 1298</text>
<polyline fill="none" stroke="#2563eb" stroke-width="3" points="90.00,540.64 101.12,538.62 112.24,537.00 123.37,534.58 134.49,534.58 145.61,533.37 156.73,532.56 167.86,532.97 178.98,532.16 190.10,532.56 201.22,532.16 212.35,568.50 223.47,568.50 234.59,566.48 245.71,545.08 256.84,545.08 267.96,544.27 279.08,543.87 290.20,543.87 301.33,543.47 312.45,541.85 323.57,541.45 334.69,541.04 345.82,541.04 356.94,539.43 368.06,539.43 379.18,556.79 390.31,556.79 401.43,555.58 412.55,551.14 423.67,539.02 434.80,539.02 445.92,539.02 457.04,538.22 468.16,537.00 479.29,537.00 490.41,536.60 501.53,536.60 512.65,556.79 523.78,556.79 534.90,556.79 546.02,556.79 557.14,535.39 568.27,535.39 579.39,535.39 590.51,535.39 601.63,534.58 612.76,534.18 623.88,533.77 635.00,532.97 646.12,532.16 657.24,532.16 668.37,531.35 679.49,530.95 690.61,530.54 701.73,530.14 712.86,530.14 723.98,529.33 735.10,529.33 746.22,529.33 757.35,528.52 768.47,528.52 779.59,527.72 790.71,527.31 801.84,526.91 812.96,526.51 824.08,525.29 835.20,523.68 846.33,523.68 857.45,523.27 868.57,522.87 879.69,522.47 890.82,521.66 901.94,519.64 913.06,517.62 924.18,517.62 935.31,517.62 946.43,517.62 957.55,517.62 968.67,517.62 979.80,517.22 990.92,516.81 1002.04,515.60 1013.16,515.20 1024.29,514.79 1035.41,513.99 1046.53,514.39 1057.65,512.37 1068.78,511.97 1079.90,511.97 1091.02,511.16 1102.14,509.95 1113.27,507.93 1124.39,507.12 1135.51,506.72 1146.63,509.54 1157.76,509.14 1168.88,505.10 1180.00,504.70"/>
<circle cx="90.00" cy="540.64" r="3.2" fill="#1d4ed8"/>
<circle cx="101.12" cy="538.62" r="3.2" fill="#1d4ed8"/>
<circle cx="112.24" cy="537.00" r="3.2" fill="#1d4ed8"/>
<circle cx="123.37" cy="534.58" r="3.2" fill="#1d4ed8"/>
<circle cx="134.49" cy="534.58" r="3.2" fill="#1d4ed8"/>
<circle cx="145.61" cy="533.37" r="3.2" fill="#1d4ed8"/>
<circle cx="156.73" cy="532.56" r="3.2" fill="#1d4ed8"/>
<circle cx="167.86" cy="532.97" r="3.2" fill="#1d4ed8"/>
<circle cx="178.98" cy="532.16" r="3.2" fill="#1d4ed8"/>
<circle cx="190.10" cy="532.56" r="3.2" fill="#1d4ed8"/>
<circle cx="201.22" cy="532.16" r="3.2" fill="#1d4ed8"/>
<circle cx="212.35" cy="568.50" r="3.2" fill="#1d4ed8"/>
<circle cx="223.47" cy="568.50" r="3.2" fill="#1d4ed8"/>
<circle cx="234.59" cy="566.48" r="3.2" fill="#1d4ed8"/>
<circle cx="245.71" cy="545.08" r="3.2" fill="#1d4ed8"/>
<circle cx="256.84" cy="545.08" r="3.2" fill="#1d4ed8"/>
<circle cx="267.96" cy="544.27" r="3.2" fill="#1d4ed8"/>
<circle cx="279.08" cy="543.87" r="3.2" fill="#1d4ed8"/>
<circle cx="290.20" cy="543.87" r="3.2" fill="#1d4ed8"/>
<circle cx="301.33" cy="543.47" r="3.2" fill="#1d4ed8"/>
<circle cx="312.45" cy="541.85" r="3.2" fill="#1d4ed8"/>
<circle cx="323.57" cy="541.45" r="3.2" fill="#1d4ed8"/>
<circle cx="334.69" cy="541.04" r="3.2" fill="#1d4ed8"/>
<circle cx="345.82" cy="541.04" r="3.2" fill="#1d4ed8"/>
<circle cx="356.94" cy="539.43" r="3.2" fill="#1d4ed8"/>
<circle cx="368.06" cy="539.43" r="3.2" fill="#1d4ed8"/>
<circle cx="379.18" cy="556.79" r="3.2" fill="#1d4ed8"/>
<circle cx="390.31" cy="556.79" r="3.2" fill="#1d4ed8"/>
<circle cx="401.43" cy="555.58" r="3.2" fill="#1d4ed8"/>
<circle cx="412.55" cy="551.14" r="3.2" fill="#1d4ed8"/>
<circle cx="423.67" cy="539.02" r="3.2" fill="#1d4ed8"/>
<circle cx="434.80" cy="539.02" r="3.2" fill="#1d4ed8"/>
<circle cx="445.92" cy="539.02" r="3.2" fill="#1d4ed8"/>
<circle cx="457.04" cy="538.22" r="3.2" fill="#1d4ed8"/>
<circle cx="468.16" cy="537.00" r="3.2" fill="#1d4ed8"/>
<circle cx="479.29" cy="537.00" r="3.2" fill="#1d4ed8"/>
<circle cx="490.41" cy="536.60" r="3.2" fill="#1d4ed8"/>
<circle cx="501.53" cy="536.60" r="3.2" fill="#1d4ed8"/>
<circle cx="512.65" cy="556.79" r="3.2" fill="#1d4ed8"/>
<circle cx="523.78" cy="556.79" r="3.2" fill="#1d4ed8"/>
<circle cx="534.90" cy="556.79" r="3.2" fill="#1d4ed8"/>
<circle cx="546.02" cy="556.79" r="3.2" fill="#1d4ed8"/>
<circle cx="557.14" cy="535.39" r="3.2" fill="#1d4ed8"/>
<circle cx="568.27" cy="535.39" r="3.2" fill="#1d4ed8"/>
<circle cx="579.39" cy="535.39" r="3.2" fill="#1d4ed8"/>
<circle cx="590.51" cy="535.39" r="3.2" fill="#1d4ed8"/>
<circle cx="601.63" cy="534.58" r="3.2" fill="#1d4ed8"/>
<circle cx="612.76" cy="534.18" r="3.2" fill="#1d4ed8"/>
<circle cx="623.88" cy="533.77" r="3.2" fill="#1d4ed8"/>
<circle cx="635.00" cy="532.97" r="3.2" fill="#1d4ed8"/>
<circle cx="646.12" cy="532.16" r="3.2" fill="#1d4ed8"/>
<circle cx="657.24" cy="532.16" r="3.2" fill="#1d4ed8"/>
<circle cx="668.37" cy="531.35" r="3.2" fill="#1d4ed8"/>
<circle cx="679.49" cy="530.95" r="3.2" fill="#1d4ed8"/>
<circle cx="690.61" cy="530.54" r="3.2" fill="#1d4ed8"/>
<circle cx="701.73" cy="530.14" r="3.2" fill="#1d4ed8"/>
<circle cx="712.86" cy="530.14" r="3.2" fill="#1d4ed8"/>
<circle cx="723.98" cy="529.33" r="3.2" fill="#1d4ed8"/>
<circle cx="735.10" cy="529.33" r="3.2" fill="#1d4ed8"/>
<circle cx="746.22" cy="529.33" r="3.2" fill="#1d4ed8"/>
<circle cx="757.35" cy="528.52" r="3.2" fill="#1d4ed8"/>
<circle cx="768.47" cy="528.52" r="3.2" fill="#1d4ed8"/>
<circle cx="779.59" cy="527.72" r="3.2" fill="#1d4ed8"/>
<circle cx="790.71" cy="527.31" r="3.2" fill="#1d4ed8"/>
<circle cx="801.84" cy="526.91" r="3.2" fill="#1d4ed8"/>
<circle cx="812.96" cy="526.51" r="3.2" fill="#1d4ed8"/>
<circle cx="824.08" cy="525.29" r="3.2" fill="#1d4ed8"/>
<circle cx="835.20" cy="523.68" r="3.2" fill="#1d4ed8"/>
<circle cx="846.33" cy="523.68" r="3.2" fill="#1d4ed8"/>
<circle cx="857.45" cy="523.27" r="3.2" fill="#1d4ed8"/>
<circle cx="868.57" cy="522.87" r="3.2" fill="#1d4ed8"/>
<circle cx="879.69" cy="522.47" r="3.2" fill="#1d4ed8"/>
<circle cx="890.82" cy="521.66" r="3.2" fill="#1d4ed8"/>
<circle cx="901.94" cy="519.64" r="3.2" fill="#1d4ed8"/>
<circle cx="913.06" cy="517.62" r="3.2" fill="#1d4ed8"/>
<circle cx="924.18" cy="517.62" r="3.2" fill="#1d4ed8"/>
<circle cx="935.31" cy="517.62" r="3.2" fill="#1d4ed8"/>
<circle cx="946.43" cy="517.62" r="3.2" fill="#1d4ed8"/>
<circle cx="957.55" cy="517.62" r="3.2" fill="#1d4ed8"/>
<circle cx="968.67" cy="517.62" r="3.2" fill="#1d4ed8"/>
<circle cx="979.80" cy="517.22" r="3.2" fill="#1d4ed8"/>
<circle cx="990.92" cy="516.81" r="3.2" fill="#1d4ed8"/>
<circle cx="1002.04" cy="515.60" r="3.2" fill="#1d4ed8"/>
<circle cx="1013.16" cy="515.20" r="3.2" fill="#1d4ed8"/>
<circle cx="1024.29" cy="514.79" r="3.2" fill="#1d4ed8"/>
<circle cx="1035.41" cy="513.99" r="3.2" fill="#1d4ed8"/>
<circle cx="1046.53" cy="514.39" r="3.2" fill="#1d4ed8"/>
<circle cx="1057.65" cy="512.37" r="3.2" fill="#1d4ed8"/>
<circle cx="1068.78" cy="511.97" r="3.2" fill="#1d4ed8"/>
<circle cx="1079.90" cy="511.97" r="3.2" fill="#1d4ed8"/>
<circle cx="1091.02" cy="511.16" r="3.2" fill="#1d4ed8"/>
<circle cx="1102.14" cy="509.95" r="3.2" fill="#1d4ed8"/>
<circle cx="1113.27" cy="507.93" r="3.2" fill="#1d4ed8"/>
<circle cx="1124.39" cy="507.12" r="3.2" fill="#1d4ed8"/>
<circle cx="1135.51" cy="506.72" r="3.2" fill="#1d4ed8"/>
<circle cx="1146.63" cy="509.54" r="3.2" fill="#1d4ed8"/>
<circle cx="1157.76" cy="509.14" r="3.2" fill="#1d4ed8"/>
<circle cx="1168.88" cy="505.10" r="3.2" fill="#1d4ed8"/>
<circle cx="1180.00" cy="504.70" r="3.2" fill="#1d4ed8"/>
<text x="635" y="695" text-anchor="middle" font-size="14" fill="#111" font-family="sans-serif">Date</text>
<text x="24" y="325" text-anchor="middle" font-size="14" fill="#111" transform="rotate(-90 24,325)" font-family="sans-serif">Passed files</text>
</svg>
