<?xml version="1.0" encoding="UTF-8"?>
<svg xmlns="http://www.w3.org/2000/svg" width="1280" height="720" viewBox="0 0 1280 720">
<rect width="100%" height="100%" fill="#ffffff"/>
<text x="640" y="30" text-anchor="middle" font-size="22" font-family="sans-serif">Roast passed files history</text>
<line x1="90" y1="600" x2="1180" y2="600" stroke="#333" stroke-width="1.5"/>
<line x1="90" y1="50" x2="90" y2="600" stroke="#333" stroke-width="1.5"/>
<line x1="90" y1="600.00" x2="1180" y2="600.00" stroke="#e5e7eb" stroke-width="1"/>
<text x="78" y="605.00" text-anchor="end" font-size="12" fill="#111" font-family="sans-serif">0</text>
<line x1="90" y1="397.79" x2="1180" y2="397.79" stroke="#e5e7eb" stroke-width="1"/>
<text x="78" y="402.79" text-anchor="end" font-size="12" fill="#111" font-family="sans-serif">500</text>
<line x1="90" y1="195.59" x2="1180" y2="195.59" stroke="#e5e7eb" stroke-width="1"/>
<text x="78" y="200.59" text-anchor="end" font-size="12" fill="#111" font-family="sans-serif">1000</text>
<line x1="90.00" y1="600" x2="90.00" y2="606" stroke="#333" stroke-width="1"/>
<text x="90.00" y="624" text-anchor="end" font-size="11" fill="#111" transform="rotate(-40 90.00,624)" font-family="sans-serif">2026-02-12</text>
<line x1="226.77" y1="600" x2="226.77" y2="606" stroke="#333" stroke-width="1"/>
<text x="226.77" y="624" text-anchor="end" font-size="11" fill="#111" transform="rotate(-40 226.77,624)" font-family="sans-serif">2026-02-17</text>
<line x1="363.54" y1="600" x2="363.54" y2="606" stroke="#333" stroke-width="1"/>
<text x="363.54" y="624" text-anchor="end" font-size="11" fill="#111" transform="rotate(-40 363.54,624)" font-family="sans-serif">2026-02-19</text>
<line x1="500.30" y1="600" x2="500.30" y2="606" stroke="#333" stroke-width="1"/>
<text x="500.30" y="624" text-anchor="end" font-size="11" fill="#111" transform="rotate(-40 500.30,624)" font-family="sans-serif">2026-02-22</text>
<line x1="637.07" y1="600" x2="637.07" y2="606" stroke="#333" stroke-width="1"/>
<text x="637.07" y="624" text-anchor="end" font-size="11" fill="#111" transform="rotate(-40 637.07,624)" font-family="sans-serif">2026-02-25</text>
<line x1="773.84" y1="600" x2="773.84" y2="606" stroke="#333" stroke-width="1"/>
<text x="773.84" y="624" text-anchor="end" font-size="11" fill="#111" transform="rotate(-40 773.84,624)" font-family="sans-serif">2026-02-27</text>
<line x1="910.61" y1="600" x2="910.61" y2="606" stroke="#333" stroke-width="1"/>
<text x="910.61" y="624" text-anchor="end" font-size="11" fill="#111" transform="rotate(-40 910.61,624)" font-family="sans-serif">2026-03-01</text>
<line x1="1047.38" y1="600" x2="1047.38" y2="606" stroke="#333" stroke-width="1"/>
<text x="1047.38" y="624" text-anchor="end" font-size="11" fill="#111" transform="rotate(-40 1047.38,624)" font-family="sans-serif">2026-03-06</text>
<line x1="1180.00" y1="600" x2="1180.00" y2="606" stroke="#333" stroke-width="1"/>
<text x="1180.00" y="624" text-anchor="end" font-size="11" fill="#111" transform="rotate(-40 1180.00,624)" font-family="sans-serif">2026-03-06</text>
<line x1="90" y1="75.88" x2="1180" y2="75.88" stroke="#dc2626" stroke-width="1.5" stroke-dasharray="8,4"/>
<text x="1184" y="79.88" font-size="12" fill="#dc2626" font-family="sans-serif">Goal: 1296</text>
<polyline fill="none" stroke="#2563eb" stroke-width="3" points="90.00,540.55 94.14,538.53 98.29,536.91 102.43,534.49 106.58,534.49 110.72,533.27 114.87,532.46 119.01,532.87 123.16,532.06 127.30,532.46 131.44,532.06 135.59,568.46 139.73,568.46 143.88,566.43 148.02,545.00 152.17,545.00 156.31,544.19 160.46,543.79 164.60,543.79 168.75,543.38 172.89,541.76 177.03,541.36 181.18,540.96 185.32,540.96 189.47,539.34 193.61,539.34 197.76,556.73 201.90,556.73 206.05,555.51 210.19,551.07 214.33,538.93 218.48,538.93 222.62,538.93 226.77,538.12 230.91,536.91 235.06,536.91 239.20,536.51 243.35,536.51 247.49,556.73 251.63,556.73 255.78,556.73 259.92,556.73 264.07,535.29 268.21,535.29 272.36,535.29 276.50,535.29 280.65,534.49 284.79,534.08 288.94,533.68 293.08,532.87 297.22,532.06 301.37,532.06 305.51,531.25 309.66,530.85 313.80,530.44 317.95,530.04 322.09,530.04 326.24,529.23 330.38,529.23 334.52,529.23 338.67,528.42 342.81,528.42 346.96,527.61 351.10,527.21 355.25,526.80 359.39,526.40 363.54,525.18 367.68,523.57 371.83,523.57 375.97,523.16 380.11,522.76 384.26,522.35 388.40,521.54 392.55,519.52 396.69,517.50 400.84,517.50 404.98,517.50 409.13,517.50 413.27,517.50 417.41,517.50 421.56,517.10 425.70,516.69 429.85,515.48 433.99,515.07 438.14,514.67 442.28,513.86 446.43,514.26 450.57,512.24 454.71,511.84 458.86,511.84 463.00,511.03 467.15,509.82 471.29,507.79 475.44,506.99 479.58,506.58 483.73,509.41 487.87,509.01 492.02,504.96 496.16,504.56 500.30,504.15 504.45,504.56 508.59,503.75 512.74,503.75 516.88,503.35 521.03,499.30 525.17,496.47 529.32,490.00 533.46,484.34 537.60,481.10 541.75,480.29 545.89,480.70 550.04,460.88 554.18,459.26 558.33,458.05 562.47,456.03 566.62,456.03 570.76,454.41 574.90,450.77 579.05,444.30 583.19,443.90 587.34,600.00 591.48,441.88 595.63,440.66 599.77,439.45 603.92,439.04 608.06,438.64 612.21,437.83 616.35,436.62 620.49,436.62 624.64,434.60 628.78,432.17 632.93,429.34 637.07,428.93 641.22,428.53 645.36,427.72 649.51,426.91 653.65,426.10 657.79,426.10 661.94,426.10 666.08,419.63 670.23,419.23 674.37,418.42 678.52,418.01 682.66,417.61 686.81,417.61 690.95,417.61 695.10,417.21 699.24,417.21 703.38,413.57 707.53,411.95 711.67,412.76 715.82,410.74 719.96,410.74 724.11,410.33 728.25,410.33 732.40,410.33 736.54,409.93 740.68,409.93 744.83,409.93 748.97,409.52 753.12,409.52 757.26,409.12 761.41,409.52 765.55,409.12 769.70,407.50 773.84,407.10 777.98,403.05 782.13,399.82 786.27,400.22 790.42,400.62 794.56,400.62 798.71,399.41 802.85,392.94 807.00,391.32 811.14,389.30 815.29,389.30 819.43,388.49 823.57,375.15 827.72,374.74 831.86,374.74 836.01,374.74 840.15,374.74 844.30,374.34 848.44,374.34 852.59,374.34 856.73,374.34 860.87,374.34 865.02,373.93 869.16,373.12 873.31,372.72 877.45,373.53 881.60,435.81 885.74,372.32 889.89,372.72 894.03,371.91 898.17,371.91 902.32,372.32 906.46,371.10 910.61,369.89 914.75,369.89 918.90,369.89 923.04,369.49 927.19,369.89 931.33,369.08 935.48,368.68 939.62,368.27 943.76,367.87 947.91,367.06 952.05,367.46 956.20,367.06 960.34,366.25 964.49,368.27 968.63,368.68 972.78,368.68 976.92,368.27 981.06,369.08 985.21,367.87 989.35,367.46 993.50,367.06 997.64,360.18 1001.79,359.78 1005.93,359.38 1010.08,356.95 1014.22,357.35 1018.37,357.76 1022.51,355.33 1026.65,355.74 1030.80,357.35 1034.94,355.33 1039.09,356.14 1043.23,355.74 1047.38,356.14 1051.52,354.12 1055.67,354.93 1059.81,356.14 1063.95,354.52 1068.10,353.71 1072.24,354.12 1076.39,354.93 1080.53,352.90 1084.68,353.71 1088.82,353.31 1092.97,353.31 1097.11,354.52 1101.25,352.90 1105.40,352.50 1109.54,352.50 1113.69,353.31 1117.83,352.50 1121.98,353.71 1126.12,354.12 1130.27,352.50 1134.41,352.90 1138.56,352.50 1142.70,352.10 1146.84,351.69 1150.99,352.10 1155.13,354.12 1159.28,352.50 1163.42,352.10 1167.57,352.10 1171.71,349.67 1175.86,349.67 1180.00,350.88"/>
<circle cx="90.00" cy="540.55" r="3.2" fill="#1d4ed8"/>
<circle cx="94.14" cy="538.53" r="3.2" fill="#1d4ed8"/>
<circle cx="98.29" cy="536.91" r="3.2" fill="#1d4ed8"/>
<circle cx="102.43" cy="534.49" r="3.2" fill="#1d4ed8"/>
<circle cx="106.58" cy="534.49" r="3.2" fill="#1d4ed8"/>
<circle cx="110.72" cy="533.27" r="3.2" fill="#1d4ed8"/>
<circle cx="114.87" cy="532.46" r="3.2" fill="#1d4ed8"/>
<circle cx="119.01" cy="532.87" r="3.2" fill="#1d4ed8"/>
<circle cx="123.16" cy="532.06" r="3.2" fill="#1d4ed8"/>
<circle cx="127.30" cy="532.46" r="3.2" fill="#1d4ed8"/>
<circle cx="131.44" cy="532.06" r="3.2" fill="#1d4ed8"/>
<circle cx="135.59" cy="568.46" r="3.2" fill="#1d4ed8"/>
<circle cx="139.73" cy="568.46" r="3.2" fill="#1d4ed8"/>
<circle cx="143.88" cy="566.43" r="3.2" fill="#1d4ed8"/>
<circle cx="148.02" cy="545.00" r="3.2" fill="#1d4ed8"/>
<circle cx="152.17" cy="545.00" r="3.2" fill="#1d4ed8"/>
<circle cx="156.31" cy="544.19" r="3.2" fill="#1d4ed8"/>
<circle cx="160.46" cy="543.79" r="3.2" fill="#1d4ed8"/>
<circle cx="164.60" cy="543.79" r="3.2" fill="#1d4ed8"/>
<circle cx="168.75" cy="543.38" r="3.2" fill="#1d4ed8"/>
<circle cx="172.89" cy="541.76" r="3.2" fill="#1d4ed8"/>
<circle cx="177.03" cy="541.36" r="3.2" fill="#1d4ed8"/>
<circle cx="181.18" cy="540.96" r="3.2" fill="#1d4ed8"/>
<circle cx="185.32" cy="540.96" r="3.2" fill="#1d4ed8"/>
<circle cx="189.47" cy="539.34" r="3.2" fill="#1d4ed8"/>
<circle cx="193.61" cy="539.34" r="3.2" fill="#1d4ed8"/>
<circle cx="197.76" cy="556.73" r="3.2" fill="#1d4ed8"/>
<circle cx="201.90" cy="556.73" r="3.2" fill="#1d4ed8"/>
<circle cx="206.05" cy="555.51" r="3.2" fill="#1d4ed8"/>
<circle cx="210.19" cy="551.07" r="3.2" fill="#1d4ed8"/>
<circle cx="214.33" cy="538.93" r="3.2" fill="#1d4ed8"/>
<circle cx="218.48" cy="538.93" r="3.2" fill="#1d4ed8"/>
<circle cx="222.62" cy="538.93" r="3.2" fill="#1d4ed8"/>
<circle cx="226.77" cy="538.12" r="3.2" fill="#1d4ed8"/>
<circle cx="230.91" cy="536.91" r="3.2" fill="#1d4ed8"/>
<circle cx="235.06" cy="536.91" r="3.2" fill="#1d4ed8"/>
<circle cx="239.20" cy="536.51" r="3.2" fill="#1d4ed8"/>
<circle cx="243.35" cy="536.51" r="3.2" fill="#1d4ed8"/>
<circle cx="247.49" cy="556.73" r="3.2" fill="#1d4ed8"/>
<circle cx="251.63" cy="556.73" r="3.2" fill="#1d4ed8"/>
<circle cx="255.78" cy="556.73" r="3.2" fill="#1d4ed8"/>
<circle cx="259.92" cy="556.73" r="3.2" fill="#1d4ed8"/>
<circle cx="264.07" cy="535.29" r="3.2" fill="#1d4ed8"/>
<circle cx="268.21" cy="535.29" r="3.2" fill="#1d4ed8"/>
<circle cx="272.36" cy="535.29" r="3.2" fill="#1d4ed8"/>
<circle cx="276.50" cy="535.29" r="3.2" fill="#1d4ed8"/>
<circle cx="280.65" cy="534.49" r="3.2" fill="#1d4ed8"/>
<circle cx="284.79" cy="534.08" r="3.2" fill="#1d4ed8"/>
<circle cx="288.94" cy="533.68" r="3.2" fill="#1d4ed8"/>
<circle cx="293.08" cy="532.87" r="3.2" fill="#1d4ed8"/>
<circle cx="297.22" cy="532.06" r="3.2" fill="#1d4ed8"/>
<circle cx="301.37" cy="532.06" r="3.2" fill="#1d4ed8"/>
<circle cx="305.51" cy="531.25" r="3.2" fill="#1d4ed8"/>
<circle cx="309.66" cy="530.85" r="3.2" fill="#1d4ed8"/>
<circle cx="313.80" cy="530.44" r="3.2" fill="#1d4ed8"/>
<circle cx="317.95" cy="530.04" r="3.2" fill="#1d4ed8"/>
<circle cx="322.09" cy="530.04" r="3.2" fill="#1d4ed8"/>
<circle cx="326.24" cy="529.23" r="3.2" fill="#1d4ed8"/>
<circle cx="330.38" cy="529.23" r="3.2" fill="#1d4ed8"/>
<circle cx="334.52" cy="529.23" r="3.2" fill="#1d4ed8"/>
<circle cx="338.67" cy="528.42" r="3.2" fill="#1d4ed8"/>
<circle cx="342.81" cy="528.42" r="3.2" fill="#1d4ed8"/>
<circle cx="346.96" cy="527.61" r="3.2" fill="#1d4ed8"/>
<circle cx="351.10" cy="527.21" r="3.2" fill="#1d4ed8"/>
<circle cx="355.25" cy="526.80" r="3.2" fill="#1d4ed8"/>
<circle cx="359.39" cy="526.40" r="3.2" fill="#1d4ed8"/>
<circle cx="363.54" cy="525.18" r="3.2" fill="#1d4ed8"/>
<circle cx="367.68" cy="523.57" r="3.2" fill="#1d4ed8"/>
<circle cx="371.83" cy="523.57" r="3.2" fill="#1d4ed8"/>
<circle cx="375.97" cy="523.16" r="3.2" fill="#1d4ed8"/>
<circle cx="380.11" cy="522.76" r="3.2" fill="#1d4ed8"/>
<circle cx="384.26" cy="522.35" r="3.2" fill="#1d4ed8"/>
<circle cx="388.40" cy="521.54" r="3.2" fill="#1d4ed8"/>
<circle cx="392.55" cy="519.52" r="3.2" fill="#1d4ed8"/>
<circle cx="396.69" cy="517.50" r="3.2" fill="#1d4ed8"/>
<circle cx="400.84" cy="517.50" r="3.2" fill="#1d4ed8"/>
<circle cx="404.98" cy="517.50" r="3.2" fill="#1d4ed8"/>
<circle cx="409.13" cy="517.50" r="3.2" fill="#1d4ed8"/>
<circle cx="413.27" cy="517.50" r="3.2" fill="#1d4ed8"/>
<circle cx="417.41" cy="517.50" r="3.2" fill="#1d4ed8"/>
<circle cx="421.56" cy="517.10" r="3.2" fill="#1d4ed8"/>
<circle cx="425.70" cy="516.69" r="3.2" fill="#1d4ed8"/>
<circle cx="429.85" cy="515.48" r="3.2" fill="#1d4ed8"/>
<circle cx="433.99" cy="515.07" r="3.2" fill="#1d4ed8"/>
<circle cx="438.14" cy="514.67" r="3.2" fill="#1d4ed8"/>
<circle cx="442.28" cy="513.86" r="3.2" fill="#1d4ed8"/>
<circle cx="446.43" cy="514.26" r="3.2" fill="#1d4ed8"/>
<circle cx="450.57" cy="512.24" r="3.2" fill="#1d4ed8"/>
<circle cx="454.71" cy="511.84" r="3.2" fill="#1d4ed8"/>
<circle cx="458.86" cy="511.84" r="3.2" fill="#1d4ed8"/>
<circle cx="463.00" cy="511.03" r="3.2" fill="#1d4ed8"/>
<circle cx="467.15" cy="509.82" r="3.2" fill="#1d4ed8"/>
<circle cx="471.29" cy="507.79" r="3.2" fill="#1d4ed8"/>
<circle cx="475.44" cy="506.99" r="3.2" fill="#1d4ed8"/>
<circle cx="479.58" cy="506.58" r="3.2" fill="#1d4ed8"/>
<circle cx="483.73" cy="509.41" r="3.2" fill="#1d4ed8"/>
<circle cx="487.87" cy="509.01" r="3.2" fill="#1d4ed8"/>
<circle cx="492.02" cy="504.96" r="3.2" fill="#1d4ed8"/>
<circle cx="496.16" cy="504.56" r="3.2" fill="#1d4ed8"/>
<circle cx="500.30" cy="504.15" r="3.2" fill="#1d4ed8"/>
<circle cx="504.45" cy="504.56" r="3.2" fill="#1d4ed8"/>
<circle cx="508.59" cy="503.75" r="3.2" fill="#1d4ed8"/>
<circle cx="512.74" cy="503.75" r="3.2" fill="#1d4ed8"/>
<circle cx="516.88" cy="503.35" r="3.2" fill="#1d4ed8"/>
<circle cx="521.03" cy="499.30" r="3.2" fill="#1d4ed8"/>
<circle cx="525.17" cy="496.47" r="3.2" fill="#1d4ed8"/>
<circle cx="529.32" cy="490.00" r="3.2" fill="#1d4ed8"/>
<circle cx="533.46" cy="484.34" r="3.2" fill="#1d4ed8"/>
<circle cx="537.60" cy="481.10" r="3.2" fill="#1d4ed8"/>
<circle cx="541.75" cy="480.29" r="3.2" fill="#1d4ed8"/>
<circle cx="545.89" cy="480.70" r="3.2" fill="#1d4ed8"/>
<circle cx="550.04" cy="460.88" r="3.2" fill="#1d4ed8"/>
<circle cx="554.18" cy="459.26" r="3.2" fill="#1d4ed8"/>
<circle cx="558.33" cy="458.05" r="3.2" fill="#1d4ed8"/>
<circle cx="562.47" cy="456.03" r="3.2" fill="#1d4ed8"/>
<circle cx="566.62" cy="456.03" r="3.2" fill="#1d4ed8"/>
<circle cx="570.76" cy="454.41" r="3.2" fill="#1d4ed8"/>
<circle cx="574.90" cy="450.77" r="3.2" fill="#1d4ed8"/>
<circle cx="579.05" cy="444.30" r="3.2" fill="#1d4ed8"/>
<circle cx="583.19" cy="443.90" r="3.2" fill="#1d4ed8"/>
<circle cx="587.34" cy="600.00" r="3.2" fill="#1d4ed8"/>
<circle cx="591.48" cy="441.88" r="3.2" fill="#1d4ed8"/>
<circle cx="595.63" cy="440.66" r="3.2" fill="#1d4ed8"/>
<circle cx="599.77" cy="439.45" r="3.2" fill="#1d4ed8"/>
<circle cx="603.92" cy="439.04" r="3.2" fill="#1d4ed8"/>
<circle cx="608.06" cy="438.64" r="3.2" fill="#1d4ed8"/>
<circle cx="612.21" cy="437.83" r="3.2" fill="#1d4ed8"/>
<circle cx="616.35" cy="436.62" r="3.2" fill="#1d4ed8"/>
<circle cx="620.49" cy="436.62" r="3.2" fill="#1d4ed8"/>
<circle cx="624.64" cy="434.60" r="3.2" fill="#1d4ed8"/>
<circle cx="628.78" cy="432.17" r="3.2" fill="#1d4ed8"/>
<circle cx="632.93" cy="429.34" r="3.2" fill="#1d4ed8"/>
<circle cx="637.07" cy="428.93" r="3.2" fill="#1d4ed8"/>
<circle cx="641.22" cy="428.53" r="3.2" fill="#1d4ed8"/>
<circle cx="645.36" cy="427.72" r="3.2" fill="#1d4ed8"/>
<circle cx="649.51" cy="426.91" r="3.2" fill="#1d4ed8"/>
<circle cx="653.65" cy="426.10" r="3.2" fill="#1d4ed8"/>
<circle cx="657.79" cy="426.10" r="3.2" fill="#1d4ed8"/>
<circle cx="661.94" cy="426.10" r="3.2" fill="#1d4ed8"/>
<circle cx="666.08" cy="419.63" r="3.2" fill="#1d4ed8"/>
<circle cx="670.23" cy="419.23" r="3.2" fill="#1d4ed8"/>
<circle cx="674.37" cy="418.42" r="3.2" fill="#1d4ed8"/>
<circle cx="678.52" cy="418.01" r="3.2" fill="#1d4ed8"/>
<circle cx="682.66" cy="417.61" r="3.2" fill="#1d4ed8"/>
<circle cx="686.81" cy="417.61" r="3.2" fill="#1d4ed8"/>
<circle cx="690.95" cy="417.61" r="3.2" fill="#1d4ed8"/>
<circle cx="695.10" cy="417.21" r="3.2" fill="#1d4ed8"/>
<circle cx="699.24" cy="417.21" r="3.2" fill="#1d4ed8"/>
<circle cx="703.38" cy="413.57" r="3.2" fill="#1d4ed8"/>
<circle cx="707.53" cy="411.95" r="3.2" fill="#1d4ed8"/>
<circle cx="711.67" cy="412.76" r="3.2" fill="#1d4ed8"/>
<circle cx="715.82" cy="410.74" r="3.2" fill="#1d4ed8"/>
<circle cx="719.96" cy="410.74" r="3.2" fill="#1d4ed8"/>
<circle cx="724.11" cy="410.33" r="3.2" fill="#1d4ed8"/>
<circle cx="728.25" cy="410.33" r="3.2" fill="#1d4ed8"/>
<circle cx="732.40" cy="410.33" r="3.2" fill="#1d4ed8"/>
<circle cx="736.54" cy="409.93" r="3.2" fill="#1d4ed8"/>
<circle cx="740.68" cy="409.93" r="3.2" fill="#1d4ed8"/>
<circle cx="744.83" cy="409.93" r="3.2" fill="#1d4ed8"/>
<circle cx="748.97" cy="409.52" r="3.2" fill="#1d4ed8"/>
<circle cx="753.12" cy="409.52" r="3.2" fill="#1d4ed8"/>
<circle cx="757.26" cy="409.12" r="3.2" fill="#1d4ed8"/>
<circle cx="761.41" cy="409.52" r="3.2" fill="#1d4ed8"/>
<circle cx="765.55" cy="409.12" r="3.2" fill="#1d4ed8"/>
<circle cx="769.70" cy="407.50" r="3.2" fill="#1d4ed8"/>
<circle cx="773.84" cy="407.10" r="3.2" fill="#1d4ed8"/>
<circle cx="777.98" cy="403.05" r="3.2" fill="#1d4ed8"/>
<circle cx="782.13" cy="399.82" r="3.2" fill="#1d4ed8"/>
<circle cx="786.27" cy="400.22" r="3.2" fill="#1d4ed8"/>
<circle cx="790.42" cy="400.62" r="3.2" fill="#1d4ed8"/>
<circle cx="794.56" cy="400.62" r="3.2" fill="#1d4ed8"/>
<circle cx="798.71" cy="399.41" r="3.2" fill="#1d4ed8"/>
<circle cx="802.85" cy="392.94" r="3.2" fill="#1d4ed8"/>
<circle cx="807.00" cy="391.32" r="3.2" fill="#1d4ed8"/>
<circle cx="811.14" cy="389.30" r="3.2" fill="#1d4ed8"/>
<circle cx="815.29" cy="389.30" r="3.2" fill="#1d4ed8"/>
<circle cx="819.43" cy="388.49" r="3.2" fill="#1d4ed8"/>
<circle cx="823.57" cy="375.15" r="3.2" fill="#1d4ed8"/>
<circle cx="827.72" cy="374.74" r="3.2" fill="#1d4ed8"/>
<circle cx="831.86" cy="374.74" r="3.2" fill="#1d4ed8"/>
<circle cx="836.01" cy="374.74" r="3.2" fill="#1d4ed8"/>
<circle cx="840.15" cy="374.74" r="3.2" fill="#1d4ed8"/>
<circle cx="844.30" cy="374.34" r="3.2" fill="#1d4ed8"/>
<circle cx="848.44" cy="374.34" r="3.2" fill="#1d4ed8"/>
<circle cx="852.59" cy="374.34" r="3.2" fill="#1d4ed8"/>
<circle cx="856.73" cy="374.34" r="3.2" fill="#1d4ed8"/>
<circle cx="860.87" cy="374.34" r="3.2" fill="#1d4ed8"/>
<circle cx="865.02" cy="373.93" r="3.2" fill="#1d4ed8"/>
<circle cx="869.16" cy="373.12" r="3.2" fill="#1d4ed8"/>
<circle cx="873.31" cy="372.72" r="3.2" fill="#1d4ed8"/>
<circle cx="877.45" cy="373.53" r="3.2" fill="#1d4ed8"/>
<circle cx="881.60" cy="435.81" r="3.2" fill="#1d4ed8"/>
<circle cx="885.74" cy="372.32" r="3.2" fill="#1d4ed8"/>
<circle cx="889.89" cy="372.72" r="3.2" fill="#1d4ed8"/>
<circle cx="894.03" cy="371.91" r="3.2" fill="#1d4ed8"/>
<circle cx="898.17" cy="371.91" r="3.2" fill="#1d4ed8"/>
<circle cx="902.32" cy="372.32" r="3.2" fill="#1d4ed8"/>
<circle cx="906.46" cy="371.10" r="3.2" fill="#1d4ed8"/>
<circle cx="910.61" cy="369.89" r="3.2" fill="#1d4ed8"/>
<circle cx="914.75" cy="369.89" r="3.2" fill="#1d4ed8"/>
<circle cx="918.90" cy="369.89" r="3.2" fill="#1d4ed8"/>
<circle cx="923.04" cy="369.49" r="3.2" fill="#1d4ed8"/>
<circle cx="927.19" cy="369.89" r="3.2" fill="#1d4ed8"/>
<circle cx="931.33" cy="369.08" r="3.2" fill="#1d4ed8"/>
<circle cx="935.48" cy="368.68" r="3.2" fill="#1d4ed8"/>
<circle cx="939.62" cy="368.27" r="3.2" fill="#1d4ed8"/>
<circle cx="943.76" cy="367.87" r="3.2" fill="#1d4ed8"/>
<circle cx="947.91" cy="367.06" r="3.2" fill="#1d4ed8"/>
<circle cx="952.05" cy="367.46" r="3.2" fill="#1d4ed8"/>
<circle cx="956.20" cy="367.06" r="3.2" fill="#1d4ed8"/>
<circle cx="960.34" cy="366.25" r="3.2" fill="#1d4ed8"/>
<circle cx="964.49" cy="368.27" r="3.2" fill="#1d4ed8"/>
<circle cx="968.63" cy="368.68" r="3.2" fill="#1d4ed8"/>
<circle cx="972.78" cy="368.68" r="3.2" fill="#1d4ed8"/>
<circle cx="976.92" cy="368.27" r="3.2" fill="#1d4ed8"/>
<circle cx="981.06" cy="369.08" r="3.2" fill="#1d4ed8"/>
<circle cx="985.21" cy="367.87" r="3.2" fill="#1d4ed8"/>
<circle cx="989.35" cy="367.46" r="3.2" fill="#1d4ed8"/>
<circle cx="993.50" cy="367.06" r="3.2" fill="#1d4ed8"/>
<circle cx="997.64" cy="360.18" r="3.2" fill="#1d4ed8"/>
<circle cx="1001.79" cy="359.78" r="3.2" fill="#1d4ed8"/>
<circle cx="1005.93" cy="359.38" r="3.2" fill="#1d4ed8"/>
<circle cx="1010.08" cy="356.95" r="3.2" fill="#1d4ed8"/>
<circle cx="1014.22" cy="357.35" r="3.2" fill="#1d4ed8"/>
<circle cx="1018.37" cy="357.76" r="3.2" fill="#1d4ed8"/>
<circle cx="1022.51" cy="355.33" r="3.2" fill="#1d4ed8"/>
<circle cx="1026.65" cy="355.74" r="3.2" fill="#1d4ed8"/>
<circle cx="1030.80" cy="357.35" r="3.2" fill="#1d4ed8"/>
<circle cx="1034.94" cy="355.33" r="3.2" fill="#1d4ed8"/>
<circle cx="1039.09" cy="356.14" r="3.2" fill="#1d4ed8"/>
<circle cx="1043.23" cy="355.74" r="3.2" fill="#1d4ed8"/>
<circle cx="1047.38" cy="356.14" r="3.2" fill="#1d4ed8"/>
<circle cx="1051.52" cy="354.12" r="3.2" fill="#1d4ed8"/>
<circle cx="1055.67" cy="354.93" r="3.2" fill="#1d4ed8"/>
<circle cx="1059.81" cy="356.14" r="3.2" fill="#1d4ed8"/>
<circle cx="1063.95" cy="354.52" r="3.2" fill="#1d4ed8"/>
<circle cx="1068.10" cy="353.71" r="3.2" fill="#1d4ed8"/>
<circle cx="1072.24" cy="354.12" r="3.2" fill="#1d4ed8"/>
<circle cx="1076.39" cy="354.93" r="3.2" fill="#1d4ed8"/>
<circle cx="1080.53" cy="352.90" r="3.2" fill="#1d4ed8"/>
<circle cx="1084.68" cy="353.71" r="3.2" fill="#1d4ed8"/>
<circle cx="1088.82" cy="353.31" r="3.2" fill="#1d4ed8"/>
<circle cx="1092.97" cy="353.31" r="3.2" fill="#1d4ed8"/>
<circle cx="1097.11" cy="354.52" r="3.2" fill="#1d4ed8"/>
<circle cx="1101.25" cy="352.90" r="3.2" fill="#1d4ed8"/>
<circle cx="1105.40" cy="352.50" r="3.2" fill="#1d4ed8"/>
<circle cx="1109.54" cy="352.50" r="3.2" fill="#1d4ed8"/>
<circle cx="1113.69" cy="353.31" r="3.2" fill="#1d4ed8"/>
<circle cx="1117.83" cy="352.50" r="3.2" fill="#1d4ed8"/>
<circle cx="1121.98" cy="353.71" r="3.2" fill="#1d4ed8"/>
<circle cx="1126.12" cy="354.12" r="3.2" fill="#1d4ed8"/>
<circle cx="1130.27" cy="352.50" r="3.2" fill="#1d4ed8"/>
<circle cx="1134.41" cy="352.90" r="3.2" fill="#1d4ed8"/>
<circle cx="1138.56" cy="352.50" r="3.2" fill="#1d4ed8"/>
<circle cx="1142.70" cy="352.10" r="3.2" fill="#1d4ed8"/>
<circle cx="1146.84" cy="351.69" r="3.2" fill="#1d4ed8"/>
<circle cx="1150.99" cy="352.10" r="3.2" fill="#1d4ed8"/>
<circle cx="1155.13" cy="354.12" r="3.2" fill="#1d4ed8"/>
<circle cx="1159.28" cy="352.50" r="3.2" fill="#1d4ed8"/>
<circle cx="1163.42" cy="352.10" r="3.2" fill="#1d4ed8"/>
<circle cx="1167.57" cy="352.10" r="3.2" fill="#1d4ed8"/>
<circle cx="1171.71" cy="349.67" r="3.2" fill="#1d4ed8"/>
<circle cx="1175.86" cy="349.67" r="3.2" fill="#1d4ed8"/>
<circle cx="1180.00" cy="350.88" r="3.2" fill="#1d4ed8"/>
<text x="635" y="695" text-anchor="middle" font-size="14" fill="#111" font-family="sans-serif">Date</text>
<text x="24" y="325" text-anchor="middle" font-size="14" fill="#111" transform="rotate(-90 24,325)" font-family="sans-serif">Passed files</text>
</svg>
