<?xml version="1.0" encoding="UTF-8"?>
<svg xmlns="http://www.w3.org/2000/svg" width="1280" height="720" viewBox="0 0 1280 720">
<rect width="100%" height="100%" fill="#ffffff"/>
<text x="640" y="30" text-anchor="middle" font-size="22" font-family="sans-serif">Roast passed files history</text>
<line x1="90" y1="600" x2="1180" y2="600" stroke="#333" stroke-width="1.5"/>
<line x1="90" y1="50" x2="90" y2="600" stroke="#333" stroke-width="1.5"/>
<line x1="90" y1="600.00" x2="1180" y2="600.00" stroke="#e5e7eb" stroke-width="1"/>
<text x="78" y="605.00" text-anchor="end" font-size="12" fill="#111" font-family="sans-serif">0</text>
<line x1="90" y1="398.09" x2="1180" y2="398.09" stroke="#e5e7eb" stroke-width="1"/>
<text x="78" y="403.09" text-anchor="end" font-size="12" fill="#111" font-family="sans-serif">500</text>
<line x1="90" y1="196.18" x2="1180" y2="196.18" stroke="#e5e7eb" stroke-width="1"/>
<text x="78" y="201.18" text-anchor="end" font-size="12" fill="#111" font-family="sans-serif">1000</text>
<line x1="90.00" y1="600" x2="90.00" y2="606" stroke="#333" stroke-width="1"/>
<text x="90.00" y="624" text-anchor="end" font-size="11" fill="#111" transform="rotate(-40 90.00,624)" font-family="sans-serif">2026-02-12</text>
<line x1="213.06" y1="600" x2="213.06" y2="606" stroke="#333" stroke-width="1"/>
<text x="213.06" y="624" text-anchor="end" font-size="11" fill="#111" transform="rotate(-40 213.06,624)" font-family="sans-serif">2026-02-14</text>
<line x1="336.13" y1="600" x2="336.13" y2="606" stroke="#333" stroke-width="1"/>
<text x="336.13" y="624" text-anchor="end" font-size="11" fill="#111" transform="rotate(-40 336.13,624)" font-family="sans-serif">2026-02-15</text>
<line x1="459.19" y1="600" x2="459.19" y2="606" stroke="#333" stroke-width="1"/>
<text x="459.19" y="624" text-anchor="end" font-size="11" fill="#111" transform="rotate(-40 459.19,624)" font-family="sans-serif">2026-02-15</text>
<line x1="582.26" y1="600" x2="582.26" y2="606" stroke="#333" stroke-width="1"/>
<text x="582.26" y="624" text-anchor="end" font-size="11" fill="#111" transform="rotate(-40 582.26,624)" font-family="sans-serif">2026-02-17</text>
<line x1="705.32" y1="600" x2="705.32" y2="606" stroke="#333" stroke-width="1"/>
<text x="705.32" y="624" text-anchor="end" font-size="11" fill="#111" transform="rotate(-40 705.32,624)" font-family="sans-serif">2026-02-17</text>
<line x1="828.39" y1="600" x2="828.39" y2="606" stroke="#333" stroke-width="1"/>
<text x="828.39" y="624" text-anchor="end" font-size="11" fill="#111" transform="rotate(-40 828.39,624)" font-family="sans-serif">2026-02-17</text>
<line x1="951.45" y1="600" x2="951.45" y2="606" stroke="#333" stroke-width="1"/>
<text x="951.45" y="624" text-anchor="end" font-size="11" fill="#111" transform="rotate(-40 951.45,624)" font-family="sans-serif">2026-02-17</text>
<line x1="1074.52" y1="600" x2="1074.52" y2="606" stroke="#333" stroke-width="1"/>
<text x="1074.52" y="624" text-anchor="end" font-size="11" fill="#111" transform="rotate(-40 1074.52,624)" font-family="sans-serif">2026-02-18</text>
<line x1="1180.00" y1="600" x2="1180.00" y2="606" stroke="#333" stroke-width="1"/>
<text x="1180.00" y="624" text-anchor="end" font-size="11" fill="#111" transform="rotate(-40 1180.00,624)" font-family="sans-serif">2026-02-18</text>
<line x1="90" y1="75.84" x2="1180" y2="75.84" stroke="#dc2626" stroke-width="1.5" stroke-dasharray="8,4"/>
<text x="1184" y="79.84" font-size="12" fill="#dc2626" font-family="sans-serif">Goal: 1298</text>
<polyline fill="none" stroke="#2563eb" stroke-width="3" points="90.00,540.64 107.58,538.62 125.16,537.00 142.74,534.58 160.32,534.58 177.90,533.37 195.48,532.56 213.06,532.97 230.65,532.16 248.23,532.56 265.81,532.16 283.39,568.50 300.97,568.50 318.55,566.48 336.13,545.08 353.71,545.08 371.29,544.27 388.87,543.87 406.45,543.87 424.03,543.47 441.61,541.85 459.19,541.45 476.77,541.04 494.35,541.04 511.94,539.43 529.52,539.43 547.10,556.79 564.68,556.79 582.26,555.58 599.84,551.14 617.42,539.02 635.00,539.02 652.58,539.02 670.16,538.22 687.74,537.00 705.32,537.00 722.90,536.60 740.48,536.60 758.06,556.79 775.65,556.79 793.23,556.79 810.81,556.79 828.39,535.39 845.97,535.39 863.55,535.39 881.13,535.39 898.71,534.58 916.29,534.18 933.87,533.77 951.45,532.97 969.03,532.16 986.61,532.16 1004.19,531.35 1021.77,530.95 1039.35,530.54 1056.94,530.14 1074.52,530.14 1092.10,529.33 1109.68,529.33 1127.26,529.33 1144.84,528.52 1162.42,528.52 1180.00,527.72"/>
<circle cx="90.00" cy="540.64" r="3.2" fill="#1d4ed8"/>
<circle cx="107.58" cy="538.62" r="3.2" fill="#1d4ed8"/>
<circle cx="125.16" cy="537.00" r="3.2" fill="#1d4ed8"/>
<circle cx="142.74" cy="534.58" r="3.2" fill="#1d4ed8"/>
<circle cx="160.32" cy="534.58" r="3.2" fill="#1d4ed8"/>
<circle cx="177.90" cy="533.37" r="3.2" fill="#1d4ed8"/>
<circle cx="195.48" cy="532.56" r="3.2" fill="#1d4ed8"/>
<circle cx="213.06" cy="532.97" r="3.2" fill="#1d4ed8"/>
<circle cx="230.65" cy="532.16" r="3.2" fill="#1d4ed8"/>
<circle cx="248.23" cy="532.56" r="3.2" fill="#1d4ed8"/>
<circle cx="265.81" cy="532.16" r="3.2" fill="#1d4ed8"/>
<circle cx="283.39" cy="568.50" r="3.2" fill="#1d4ed8"/>
<circle cx="300.97" cy="568.50" r="3.2" fill="#1d4ed8"/>
<circle cx="318.55" cy="566.48" r="3.2" fill="#1d4ed8"/>
<circle cx="336.13" cy="545.08" r="3.2" fill="#1d4ed8"/>
<circle cx="353.71" cy="545.08" r="3.2" fill="#1d4ed8"/>
<circle cx="371.29" cy="544.27" r="3.2" fill="#1d4ed8"/>
<circle cx="388.87" cy="543.87" r="3.2" fill="#1d4ed8"/>
<circle cx="406.45" cy="543.87" r="3.2" fill="#1d4ed8"/>
<circle cx="424.03" cy="543.47" r="3.2" fill="#1d4ed8"/>
<circle cx="441.61" cy="541.85" r="3.2" fill="#1d4ed8"/>
<circle cx="459.19" cy="541.45" r="3.2" fill="#1d4ed8"/>
<circle cx="476.77" cy="541.04" r="3.2" fill="#1d4ed8"/>
<circle cx="494.35" cy="541.04" r="3.2" fill="#1d4ed8"/>
<circle cx="511.94" cy="539.43" r="3.2" fill="#1d4ed8"/>
<circle cx="529.52" cy="539.43" r="3.2" fill="#1d4ed8"/>
<circle cx="547.10" cy="556.79" r="3.2" fill="#1d4ed8"/>
<circle cx="564.68" cy="556.79" r="3.2" fill="#1d4ed8"/>
<circle cx="582.26" cy="555.58" r="3.2" fill="#1d4ed8"/>
<circle cx="599.84" cy="551.14" r="3.2" fill="#1d4ed8"/>
<circle cx="617.42" cy="539.02" r="3.2" fill="#1d4ed8"/>
<circle cx="635.00" cy="539.02" r="3.2" fill="#1d4ed8"/>
<circle cx="652.58" cy="539.02" r="3.2" fill="#1d4ed8"/>
<circle cx="670.16" cy="538.22" r="3.2" fill="#1d4ed8"/>
<circle cx="687.74" cy="537.00" r="3.2" fill="#1d4ed8"/>
<circle cx="705.32" cy="537.00" r="3.2" fill="#1d4ed8"/>
<circle cx="722.90" cy="536.60" r="3.2" fill="#1d4ed8"/>
<circle cx="740.48" cy="536.60" r="3.2" fill="#1d4ed8"/>
<circle cx="758.06" cy="556.79" r="3.2" fill="#1d4ed8"/>
<circle cx="775.65" cy="556.79" r="3.2" fill="#1d4ed8"/>
<circle cx="793.23" cy="556.79" r="3.2" fill="#1d4ed8"/>
<circle cx="810.81" cy="556.79" r="3.2" fill="#1d4ed8"/>
<circle cx="828.39" cy="535.39" r="3.2" fill="#1d4ed8"/>
<circle cx="845.97" cy="535.39" r="3.2" fill="#1d4ed8"/>
<circle cx="863.55" cy="535.39" r="3.2" fill="#1d4ed8"/>
<circle cx="881.13" cy="535.39" r="3.2" fill="#1d4ed8"/>
<circle cx="898.71" cy="534.58" r="3.2" fill="#1d4ed8"/>
<circle cx="916.29" cy="534.18" r="3.2" fill="#1d4ed8"/>
<circle cx="933.87" cy="533.77" r="3.2" fill="#1d4ed8"/>
<circle cx="951.45" cy="532.97" r="3.2" fill="#1d4ed8"/>
<circle cx="969.03" cy="532.16" r="3.2" fill="#1d4ed8"/>
<circle cx="986.61" cy="532.16" r="3.2" fill="#1d4ed8"/>
<circle cx="1004.19" cy="531.35" r="3.2" fill="#1d4ed8"/>
<circle cx="1021.77" cy="530.95" r="3.2" fill="#1d4ed8"/>
<circle cx="1039.35" cy="530.54" r="3.2" fill="#1d4ed8"/>
<circle cx="1056.94" cy="530.14" r="3.2" fill="#1d4ed8"/>
<circle cx="1074.52" cy="530.14" r="3.2" fill="#1d4ed8"/>
<circle cx="1092.10" cy="529.33" r="3.2" fill="#1d4ed8"/>
<circle cx="1109.68" cy="529.33" r="3.2" fill="#1d4ed8"/>
<circle cx="1127.26" cy="529.33" r="3.2" fill="#1d4ed8"/>
<circle cx="1144.84" cy="528.52" r="3.2" fill="#1d4ed8"/>
<circle cx="1162.42" cy="528.52" r="3.2" fill="#1d4ed8"/>
<circle cx="1180.00" cy="527.72" r="3.2" fill="#1d4ed8"/>
<text x="635" y="695" text-anchor="middle" font-size="14" fill="#111" font-family="sans-serif">Date</text>
<text x="24" y="325" text-anchor="middle" font-size="14" fill="#111" transform="rotate(-90 24,325)" font-family="sans-serif">Passed files</text>
</svg>
