<?xml version="1.0" encoding="UTF-8"?>
<svg xmlns="http://www.w3.org/2000/svg" width="1280" height="720" viewBox="0 0 1280 720">
<rect width="100%" height="100%" fill="#ffffff"/>
<text x="640" y="30" text-anchor="middle" font-size="22" font-family="sans-serif">Roast passed files history</text>
<line x1="90" y1="600" x2="1180" y2="600" stroke="#333" stroke-width="1.5"/>
<line x1="90" y1="50" x2="90" y2="600" stroke="#333" stroke-width="1.5"/>
<line x1="90" y1="600.00" x2="1180" y2="600.00" stroke="#e5e7eb" stroke-width="1"/>
<text x="78" y="605.00" text-anchor="end" font-size="12" fill="#111" font-family="sans-serif">0</text>
<line x1="90" y1="397.79" x2="1180" y2="397.79" stroke="#e5e7eb" stroke-width="1"/>
<text x="78" y="402.79" text-anchor="end" font-size="12" fill="#111" font-family="sans-serif">500</text>
<line x1="90" y1="195.59" x2="1180" y2="195.59" stroke="#e5e7eb" stroke-width="1"/>
<text x="78" y="200.59" text-anchor="end" font-size="12" fill="#111" font-family="sans-serif">1000</text>
<line x1="90.00" y1="600" x2="90.00" y2="606" stroke="#333" stroke-width="1"/>
<text x="90.00" y="624" text-anchor="end" font-size="11" fill="#111" transform="rotate(-40 90.00,624)" font-family="sans-serif">2026-02-12</text>
<line x1="226.58" y1="600" x2="226.58" y2="606" stroke="#333" stroke-width="1"/>
<text x="226.58" y="624" text-anchor="end" font-size="11" fill="#111" transform="rotate(-40 226.58,624)" font-family="sans-serif">2026-02-18</text>
<line x1="363.17" y1="600" x2="363.17" y2="606" stroke="#333" stroke-width="1"/>
<text x="363.17" y="624" text-anchor="end" font-size="11" fill="#111" transform="rotate(-40 363.17,624)" font-family="sans-serif">2026-02-23</text>
<line x1="499.75" y1="600" x2="499.75" y2="606" stroke="#333" stroke-width="1"/>
<text x="499.75" y="624" text-anchor="end" font-size="11" fill="#111" transform="rotate(-40 499.75,624)" font-family="sans-serif">2026-02-26</text>
<line x1="636.34" y1="600" x2="636.34" y2="606" stroke="#333" stroke-width="1"/>
<text x="636.34" y="624" text-anchor="end" font-size="11" fill="#111" transform="rotate(-40 636.34,624)" font-family="sans-serif">2026-03-01</text>
<line x1="772.92" y1="600" x2="772.92" y2="606" stroke="#333" stroke-width="1"/>
<text x="772.92" y="624" text-anchor="end" font-size="11" fill="#111" transform="rotate(-40 772.92,624)" font-family="sans-serif">2026-03-06</text>
<line x1="909.51" y1="600" x2="909.51" y2="606" stroke="#333" stroke-width="1"/>
<text x="909.51" y="624" text-anchor="end" font-size="11" fill="#111" transform="rotate(-40 909.51,624)" font-family="sans-serif">2026-03-11</text>
<line x1="1046.09" y1="600" x2="1046.09" y2="606" stroke="#333" stroke-width="1"/>
<text x="1046.09" y="624" text-anchor="end" font-size="11" fill="#111" transform="rotate(-40 1046.09,624)" font-family="sans-serif">2026-03-18</text>
<line x1="1180.00" y1="600" x2="1180.00" y2="606" stroke="#333" stroke-width="1"/>
<text x="1180.00" y="624" text-anchor="end" font-size="11" fill="#111" transform="rotate(-40 1180.00,624)" font-family="sans-serif">2026-03-19</text>
<line x1="90" y1="75.88" x2="1180" y2="75.88" stroke="#dc2626" stroke-width="1.5" stroke-dasharray="8,4"/>
<text x="1184" y="79.88" font-size="12" fill="#dc2626" font-family="sans-serif">Goal: 1296</text>
<polyline fill="none" stroke="#2563eb" stroke-width="3" points="90.00,540.55 92.68,538.53 95.36,536.91 98.03,534.49 100.71,534.49 103.39,533.27 106.07,532.46 108.75,532.87 111.43,532.06 114.10,532.46 116.78,532.06 119.46,568.46 122.14,568.46 124.82,566.43 127.49,545.00 130.17,545.00 132.85,544.19 135.53,543.79 138.21,543.79 140.88,543.38 143.56,541.76 146.24,541.36 148.92,540.96 151.60,540.96 154.28,539.34 156.95,539.34 159.63,556.73 162.31,556.73 164.99,555.51 167.67,551.07 170.34,538.93 173.02,538.93 175.70,538.93 178.38,538.12 181.06,536.91 183.73,536.91 186.41,536.51 189.09,536.51 191.77,556.73 194.45,556.73 197.13,556.73 199.80,556.73 202.48,535.29 205.16,535.29 207.84,535.29 210.52,535.29 213.19,534.49 215.87,534.08 218.55,533.68 221.23,532.87 223.91,532.06 226.58,532.06 229.26,531.25 231.94,530.85 234.62,530.44 237.30,530.04 239.98,530.04 242.65,529.23 245.33,529.23 248.01,529.23 250.69,528.42 253.37,528.42 256.04,527.61 258.72,527.21 261.40,526.80 264.08,526.40 266.76,525.18 269.43,523.57 272.11,523.57 274.79,523.16 277.47,522.76 280.15,522.35 282.83,521.54 285.50,519.52 288.18,517.50 290.86,517.50 293.54,517.50 296.22,517.50 298.89,517.50 301.57,517.50 304.25,517.10 306.93,516.69 309.61,515.48 312.29,515.07 314.96,514.67 317.64,513.86 320.32,514.26 323.00,512.24 325.68,511.84 328.35,511.84 331.03,511.03 333.71,509.82 336.39,507.79 339.07,506.99 341.74,506.58 344.42,509.41 347.10,509.01 349.78,504.96 352.46,504.56 355.14,504.15 357.81,504.56 360.49,503.75 363.17,503.75 365.85,503.35 368.53,499.30 371.20,496.47 373.88,490.00 376.56,484.34 379.24,481.10 381.92,480.29 384.59,480.70 387.27,460.88 389.95,459.26 392.63,458.05 395.31,456.03 397.99,456.03 400.66,454.41 403.34,450.77 406.02,444.30 408.70,443.90 411.38,600.00 414.05,441.88 416.73,440.66 419.41,439.45 422.09,439.04 424.77,438.64 427.44,437.83 430.12,436.62 432.80,436.62 435.48,434.60 438.16,432.17 440.84,429.34 443.51,428.93 446.19,428.53 448.87,427.72 451.55,426.91 454.23,426.10 456.90,426.10 459.58,426.10 462.26,419.63 464.94,419.23 467.62,418.42 470.29,418.01 472.97,417.61 475.65,417.61 478.33,417.61 481.01,417.21 483.69,417.21 486.36,413.57 489.04,411.95 491.72,412.76 494.40,410.74 497.08,410.74 499.75,410.33 502.43,410.33 505.11,410.33 507.79,409.93 510.47,409.93 513.14,409.93 515.82,409.52 518.50,409.52 521.18,409.12 523.86,409.52 526.54,409.12 529.21,407.50 531.89,407.10 534.57,403.05 537.25,399.82 539.93,400.22 542.60,400.62 545.28,400.62 547.96,399.41 550.64,392.94 553.32,391.32 556.00,389.30 558.67,389.30 561.35,388.49 564.03,375.15 566.71,374.74 569.39,374.74 572.06,374.74 574.74,374.74 577.42,374.34 580.10,374.34 582.78,374.34 585.45,374.34 588.13,374.34 590.81,373.93 593.49,373.12 596.17,372.72 598.85,373.53 601.52,435.81 604.20,372.32 606.88,372.72 609.56,371.91 612.24,371.91 614.91,372.32 617.59,371.10 620.27,369.89 622.95,369.89 625.63,369.89 628.30,369.49 630.98,369.89 633.66,369.08 636.34,368.68 639.02,368.27 641.70,367.87 644.37,367.06 647.05,367.46 649.73,367.06 652.41,366.25 655.09,368.27 657.76,368.68 660.44,368.68 663.12,368.27 665.80,369.08 668.48,367.87 671.15,367.46 673.83,367.06 676.51,360.18 679.19,359.78 681.87,359.38 684.55,356.95 687.22,357.35 689.90,357.76 692.58,355.33 695.26,355.74 697.94,357.35 700.61,355.33 703.29,356.14 705.97,355.74 708.65,356.14 711.33,354.12 714.00,354.93 716.68,356.14 719.36,354.52 722.04,353.71 724.72,354.12 727.40,354.93 730.07,352.90 732.75,353.71 735.43,353.31 738.11,353.31 740.79,354.52 743.46,352.90 746.14,352.50 748.82,352.50 751.50,353.31 754.18,352.50 756.86,353.71 759.53,354.12 762.21,352.50 764.89,352.90 767.57,352.50 770.25,352.10 772.92,351.69 775.60,352.10 778.28,354.12 780.96,352.50 783.64,352.10 786.31,352.10 788.99,349.67 791.67,349.67 794.35,350.88 797.03,351.29 799.71,350.48 802.38,352.10 805.06,350.48 807.74,350.48 810.42,350.48 813.10,350.07 815.77,348.46 818.45,351.29 821.13,349.67 823.81,351.29 826.49,349.67 829.16,348.86 831.84,348.46 834.52,348.46 837.20,347.24 839.88,348.86 842.56,346.84 845.23,348.46 847.91,348.86 850.59,346.84 853.27,349.26 855.95,348.05 858.62,349.26 861.30,349.26 863.98,350.48 866.66,352.90 869.34,349.67 872.01,348.46 874.69,345.62 877.37,344.82 880.05,344.41 882.73,342.39 885.41,341.18 888.08,341.58 890.76,339.15 893.44,338.35 896.12,337.54 898.80,336.73 901.47,335.92 904.15,337.54 906.83,338.35 909.51,337.54 912.19,337.54 914.86,337.54 917.54,333.09 920.22,333.90 922.90,335.92 925.58,336.73 928.26,335.51 930.93,332.28 933.61,331.47 936.29,331.07 938.97,331.47 941.65,331.07 944.32,331.07 947.00,331.07 949.68,331.07 952.36,331.07 955.04,331.07 957.71,331.07 960.39,331.07 963.07,331.07 965.75,331.07 968.43,331.47 971.11,331.88 973.78,331.07 976.46,331.47 979.14,331.07 981.82,331.47 984.50,331.07 987.17,324.19 989.85,324.19 992.53,318.93 995.21,316.51 997.89,310.44 1000.57,308.01 1003.24,600.00 1005.92,301.54 1008.60,290.22 1011.28,287.79 1013.96,286.18 1016.63,285.77 1019.31,285.77 1021.99,285.77 1024.67,286.18 1027.35,285.77 1030.02,285.77 1032.70,285.77 1035.38,283.35 1038.06,282.94 1040.74,282.94 1043.42,283.35 1046.09,282.94 1048.77,282.94 1051.45,283.75 1054.13,282.13 1056.81,282.13 1059.48,282.54 1062.16,282.13 1064.84,282.54 1067.52,282.94 1070.20,281.73 1072.87,282.54 1075.55,281.73 1078.23,282.54 1080.91,282.13 1083.59,282.13 1086.27,281.73 1088.94,281.73 1091.62,281.32 1094.30,281.73 1096.98,282.13 1099.66,281.32 1102.33,281.32 1105.01,282.54 1107.69,282.13 1110.37,281.32 1113.05,281.32 1115.72,281.32 1118.40,282.54 1121.08,282.13 1123.76,281.32 1126.44,282.13 1129.12,281.73 1131.79,282.13 1134.47,280.11 1137.15,280.11 1139.83,280.51 1142.51,279.71 1145.18,280.11 1147.86,280.51 1150.54,279.71 1153.22,280.11 1155.90,280.11 1158.57,279.30 1161.25,278.90 1163.93,278.90 1166.61,280.51 1169.29,279.30 1171.97,278.09 1174.64,278.49 1177.32,278.49 1180.00,277.28"/>
<circle cx="90.00" cy="540.55" r="3.2" fill="#1d4ed8"/>
<circle cx="92.68" cy="538.53" r="3.2" fill="#1d4ed8"/>
<circle cx="95.36" cy="536.91" r="3.2" fill="#1d4ed8"/>
<circle cx="98.03" cy="534.49" r="3.2" fill="#1d4ed8"/>
<circle cx="100.71" cy="534.49" r="3.2" fill="#1d4ed8"/>
<circle cx="103.39" cy="533.27" r="3.2" fill="#1d4ed8"/>
<circle cx="106.07" cy="532.46" r="3.2" fill="#1d4ed8"/>
<circle cx="108.75" cy="532.87" r="3.2" fill="#1d4ed8"/>
<circle cx="111.43" cy="532.06" r="3.2" fill="#1d4ed8"/>
<circle cx="114.10" cy="532.46" r="3.2" fill="#1d4ed8"/>
<circle cx="116.78" cy="532.06" r="3.2" fill="#1d4ed8"/>
<circle cx="119.46" cy="568.46" r="3.2" fill="#1d4ed8"/>
<circle cx="122.14" cy="568.46" r="3.2" fill="#1d4ed8"/>
<circle cx="124.82" cy="566.43" r="3.2" fill="#1d4ed8"/>
<circle cx="127.49" cy="545.00" r="3.2" fill="#1d4ed8"/>
<circle cx="130.17" cy="545.00" r="3.2" fill="#1d4ed8"/>
<circle cx="132.85" cy="544.19" r="3.2" fill="#1d4ed8"/>
<circle cx="135.53" cy="543.79" r="3.2" fill="#1d4ed8"/>
<circle cx="138.21" cy="543.79" r="3.2" fill="#1d4ed8"/>
<circle cx="140.88" cy="543.38" r="3.2" fill="#1d4ed8"/>
<circle cx="143.56" cy="541.76" r="3.2" fill="#1d4ed8"/>
<circle cx="146.24" cy="541.36" r="3.2" fill="#1d4ed8"/>
<circle cx="148.92" cy="540.96" r="3.2" fill="#1d4ed8"/>
<circle cx="151.60" cy="540.96" r="3.2" fill="#1d4ed8"/>
<circle cx="154.28" cy="539.34" r="3.2" fill="#1d4ed8"/>
<circle cx="156.95" cy="539.34" r="3.2" fill="#1d4ed8"/>
<circle cx="159.63" cy="556.73" r="3.2" fill="#1d4ed8"/>
<circle cx="162.31" cy="556.73" r="3.2" fill="#1d4ed8"/>
<circle cx="164.99" cy="555.51" r="3.2" fill="#1d4ed8"/>
<circle cx="167.67" cy="551.07" r="3.2" fill="#1d4ed8"/>
<circle cx="170.34" cy="538.93" r="3.2" fill="#1d4ed8"/>
<circle cx="173.02" cy="538.93" r="3.2" fill="#1d4ed8"/>
<circle cx="175.70" cy="538.93" r="3.2" fill="#1d4ed8"/>
<circle cx="178.38" cy="538.12" r="3.2" fill="#1d4ed8"/>
<circle cx="181.06" cy="536.91" r="3.2" fill="#1d4ed8"/>
<circle cx="183.73" cy="536.91" r="3.2" fill="#1d4ed8"/>
<circle cx="186.41" cy="536.51" r="3.2" fill="#1d4ed8"/>
<circle cx="189.09" cy="536.51" r="3.2" fill="#1d4ed8"/>
<circle cx="191.77" cy="556.73" r="3.2" fill="#1d4ed8"/>
<circle cx="194.45" cy="556.73" r="3.2" fill="#1d4ed8"/>
<circle cx="197.13" cy="556.73" r="3.2" fill="#1d4ed8"/>
<circle cx="199.80" cy="556.73" r="3.2" fill="#1d4ed8"/>
<circle cx="202.48" cy="535.29" r="3.2" fill="#1d4ed8"/>
<circle cx="205.16" cy="535.29" r="3.2" fill="#1d4ed8"/>
<circle cx="207.84" cy="535.29" r="3.2" fill="#1d4ed8"/>
<circle cx="210.52" cy="535.29" r="3.2" fill="#1d4ed8"/>
<circle cx="213.19" cy="534.49" r="3.2" fill="#1d4ed8"/>
<circle cx="215.87" cy="534.08" r="3.2" fill="#1d4ed8"/>
<circle cx="218.55" cy="533.68" r="3.2" fill="#1d4ed8"/>
<circle cx="221.23" cy="532.87" r="3.2" fill="#1d4ed8"/>
<circle cx="223.91" cy="532.06" r="3.2" fill="#1d4ed8"/>
<circle cx="226.58" cy="532.06" r="3.2" fill="#1d4ed8"/>
<circle cx="229.26" cy="531.25" r="3.2" fill="#1d4ed8"/>
<circle cx="231.94" cy="530.85" r="3.2" fill="#1d4ed8"/>
<circle cx="234.62" cy="530.44" r="3.2" fill="#1d4ed8"/>
<circle cx="237.30" cy="530.04" r="3.2" fill="#1d4ed8"/>
<circle cx="239.98" cy="530.04" r="3.2" fill="#1d4ed8"/>
<circle cx="242.65" cy="529.23" r="3.2" fill="#1d4ed8"/>
<circle cx="245.33" cy="529.23" r="3.2" fill="#1d4ed8"/>
<circle cx="248.01" cy="529.23" r="3.2" fill="#1d4ed8"/>
<circle cx="250.69" cy="528.42" r="3.2" fill="#1d4ed8"/>
<circle cx="253.37" cy="528.42" r="3.2" fill="#1d4ed8"/>
<circle cx="256.04" cy="527.61" r="3.2" fill="#1d4ed8"/>
<circle cx="258.72" cy="527.21" r="3.2" fill="#1d4ed8"/>
<circle cx="261.40" cy="526.80" r="3.2" fill="#1d4ed8"/>
<circle cx="264.08" cy="526.40" r="3.2" fill="#1d4ed8"/>
<circle cx="266.76" cy="525.18" r="3.2" fill="#1d4ed8"/>
<circle cx="269.43" cy="523.57" r="3.2" fill="#1d4ed8"/>
<circle cx="272.11" cy="523.57" r="3.2" fill="#1d4ed8"/>
<circle cx="274.79" cy="523.16" r="3.2" fill="#1d4ed8"/>
<circle cx="277.47" cy="522.76" r="3.2" fill="#1d4ed8"/>
<circle cx="280.15" cy="522.35" r="3.2" fill="#1d4ed8"/>
<circle cx="282.83" cy="521.54" r="3.2" fill="#1d4ed8"/>
<circle cx="285.50" cy="519.52" r="3.2" fill="#1d4ed8"/>
<circle cx="288.18" cy="517.50" r="3.2" fill="#1d4ed8"/>
<circle cx="290.86" cy="517.50" r="3.2" fill="#1d4ed8"/>
<circle cx="293.54" cy="517.50" r="3.2" fill="#1d4ed8"/>
<circle cx="296.22" cy="517.50" r="3.2" fill="#1d4ed8"/>
<circle cx="298.89" cy="517.50" r="3.2" fill="#1d4ed8"/>
<circle cx="301.57" cy="517.50" r="3.2" fill="#1d4ed8"/>
<circle cx="304.25" cy="517.10" r="3.2" fill="#1d4ed8"/>
<circle cx="306.93" cy="516.69" r="3.2" fill="#1d4ed8"/>
<circle cx="309.61" cy="515.48" r="3.2" fill="#1d4ed8"/>
<circle cx="312.29" cy="515.07" r="3.2" fill="#1d4ed8"/>
<circle cx="314.96" cy="514.67" r="3.2" fill="#1d4ed8"/>
<circle cx="317.64" cy="513.86" r="3.2" fill="#1d4ed8"/>
<circle cx="320.32" cy="514.26" r="3.2" fill="#1d4ed8"/>
<circle cx="323.00" cy="512.24" r="3.2" fill="#1d4ed8"/>
<circle cx="325.68" cy="511.84" r="3.2" fill="#1d4ed8"/>
<circle cx="328.35" cy="511.84" r="3.2" fill="#1d4ed8"/>
<circle cx="331.03" cy="511.03" r="3.2" fill="#1d4ed8"/>
<circle cx="333.71" cy="509.82" r="3.2" fill="#1d4ed8"/>
<circle cx="336.39" cy="507.79" r="3.2" fill="#1d4ed8"/>
<circle cx="339.07" cy="506.99" r="3.2" fill="#1d4ed8"/>
<circle cx="341.74" cy="506.58" r="3.2" fill="#1d4ed8"/>
<circle cx="344.42" cy="509.41" r="3.2" fill="#1d4ed8"/>
<circle cx="347.10" cy="509.01" r="3.2" fill="#1d4ed8"/>
<circle cx="349.78" cy="504.96" r="3.2" fill="#1d4ed8"/>
<circle cx="352.46" cy="504.56" r="3.2" fill="#1d4ed8"/>
<circle cx="355.14" cy="504.15" r="3.2" fill="#1d4ed8"/>
<circle cx="357.81" cy="504.56" r="3.2" fill="#1d4ed8"/>
<circle cx="360.49" cy="503.75" r="3.2" fill="#1d4ed8"/>
<circle cx="363.17" cy="503.75" r="3.2" fill="#1d4ed8"/>
<circle cx="365.85" cy="503.35" r="3.2" fill="#1d4ed8"/>
<circle cx="368.53" cy="499.30" r="3.2" fill="#1d4ed8"/>
<circle cx="371.20" cy="496.47" r="3.2" fill="#1d4ed8"/>
<circle cx="373.88" cy="490.00" r="3.2" fill="#1d4ed8"/>
<circle cx="376.56" cy="484.34" r="3.2" fill="#1d4ed8"/>
<circle cx="379.24" cy="481.10" r="3.2" fill="#1d4ed8"/>
<circle cx="381.92" cy="480.29" r="3.2" fill="#1d4ed8"/>
<circle cx="384.59" cy="480.70" r="3.2" fill="#1d4ed8"/>
<circle cx="387.27" cy="460.88" r="3.2" fill="#1d4ed8"/>
<circle cx="389.95" cy="459.26" r="3.2" fill="#1d4ed8"/>
<circle cx="392.63" cy="458.05" r="3.2" fill="#1d4ed8"/>
<circle cx="395.31" cy="456.03" r="3.2" fill="#1d4ed8"/>
<circle cx="397.99" cy="456.03" r="3.2" fill="#1d4ed8"/>
<circle cx="400.66" cy="454.41" r="3.2" fill="#1d4ed8"/>
<circle cx="403.34" cy="450.77" r="3.2" fill="#1d4ed8"/>
<circle cx="406.02" cy="444.30" r="3.2" fill="#1d4ed8"/>
<circle cx="408.70" cy="443.90" r="3.2" fill="#1d4ed8"/>
<circle cx="411.38" cy="600.00" r="3.2" fill="#1d4ed8"/>
<circle cx="414.05" cy="441.88" r="3.2" fill="#1d4ed8"/>
<circle cx="416.73" cy="440.66" r="3.2" fill="#1d4ed8"/>
<circle cx="419.41" cy="439.45" r="3.2" fill="#1d4ed8"/>
<circle cx="422.09" cy="439.04" r="3.2" fill="#1d4ed8"/>
<circle cx="424.77" cy="438.64" r="3.2" fill="#1d4ed8"/>
<circle cx="427.44" cy="437.83" r="3.2" fill="#1d4ed8"/>
<circle cx="430.12" cy="436.62" r="3.2" fill="#1d4ed8"/>
<circle cx="432.80" cy="436.62" r="3.2" fill="#1d4ed8"/>
<circle cx="435.48" cy="434.60" r="3.2" fill="#1d4ed8"/>
<circle cx="438.16" cy="432.17" r="3.2" fill="#1d4ed8"/>
<circle cx="440.84" cy="429.34" r="3.2" fill="#1d4ed8"/>
<circle cx="443.51" cy="428.93" r="3.2" fill="#1d4ed8"/>
<circle cx="446.19" cy="428.53" r="3.2" fill="#1d4ed8"/>
<circle cx="448.87" cy="427.72" r="3.2" fill="#1d4ed8"/>
<circle cx="451.55" cy="426.91" r="3.2" fill="#1d4ed8"/>
<circle cx="454.23" cy="426.10" r="3.2" fill="#1d4ed8"/>
<circle cx="456.90" cy="426.10" r="3.2" fill="#1d4ed8"/>
<circle cx="459.58" cy="426.10" r="3.2" fill="#1d4ed8"/>
<circle cx="462.26" cy="419.63" r="3.2" fill="#1d4ed8"/>
<circle cx="464.94" cy="419.23" r="3.2" fill="#1d4ed8"/>
<circle cx="467.62" cy="418.42" r="3.2" fill="#1d4ed8"/>
<circle cx="470.29" cy="418.01" r="3.2" fill="#1d4ed8"/>
<circle cx="472.97" cy="417.61" r="3.2" fill="#1d4ed8"/>
<circle cx="475.65" cy="417.61" r="3.2" fill="#1d4ed8"/>
<circle cx="478.33" cy="417.61" r="3.2" fill="#1d4ed8"/>
<circle cx="481.01" cy="417.21" r="3.2" fill="#1d4ed8"/>
<circle cx="483.69" cy="417.21" r="3.2" fill="#1d4ed8"/>
<circle cx="486.36" cy="413.57" r="3.2" fill="#1d4ed8"/>
<circle cx="489.04" cy="411.95" r="3.2" fill="#1d4ed8"/>
<circle cx="491.72" cy="412.76" r="3.2" fill="#1d4ed8"/>
<circle cx="494.40" cy="410.74" r="3.2" fill="#1d4ed8"/>
<circle cx="497.08" cy="410.74" r="3.2" fill="#1d4ed8"/>
<circle cx="499.75" cy="410.33" r="3.2" fill="#1d4ed8"/>
<circle cx="502.43" cy="410.33" r="3.2" fill="#1d4ed8"/>
<circle cx="505.11" cy="410.33" r="3.2" fill="#1d4ed8"/>
<circle cx="507.79" cy="409.93" r="3.2" fill="#1d4ed8"/>
<circle cx="510.47" cy="409.93" r="3.2" fill="#1d4ed8"/>
<circle cx="513.14" cy="409.93" r="3.2" fill="#1d4ed8"/>
<circle cx="515.82" cy="409.52" r="3.2" fill="#1d4ed8"/>
<circle cx="518.50" cy="409.52" r="3.2" fill="#1d4ed8"/>
<circle cx="521.18" cy="409.12" r="3.2" fill="#1d4ed8"/>
<circle cx="523.86" cy="409.52" r="3.2" fill="#1d4ed8"/>
<circle cx="526.54" cy="409.12" r="3.2" fill="#1d4ed8"/>
<circle cx="529.21" cy="407.50" r="3.2" fill="#1d4ed8"/>
<circle cx="531.89" cy="407.10" r="3.2" fill="#1d4ed8"/>
<circle cx="534.57" cy="403.05" r="3.2" fill="#1d4ed8"/>
<circle cx="537.25" cy="399.82" r="3.2" fill="#1d4ed8"/>
<circle cx="539.93" cy="400.22" r="3.2" fill="#1d4ed8"/>
<circle cx="542.60" cy="400.62" r="3.2" fill="#1d4ed8"/>
<circle cx="545.28" cy="400.62" r="3.2" fill="#1d4ed8"/>
<circle cx="547.96" cy="399.41" r="3.2" fill="#1d4ed8"/>
<circle cx="550.64" cy="392.94" r="3.2" fill="#1d4ed8"/>
<circle cx="553.32" cy="391.32" r="3.2" fill="#1d4ed8"/>
<circle cx="556.00" cy="389.30" r="3.2" fill="#1d4ed8"/>
<circle cx="558.67" cy="389.30" r="3.2" fill="#1d4ed8"/>
<circle cx="561.35" cy="388.49" r="3.2" fill="#1d4ed8"/>
<circle cx="564.03" cy="375.15" r="3.2" fill="#1d4ed8"/>
<circle cx="566.71" cy="374.74" r="3.2" fill="#1d4ed8"/>
<circle cx="569.39" cy="374.74" r="3.2" fill="#1d4ed8"/>
<circle cx="572.06" cy="374.74" r="3.2" fill="#1d4ed8"/>
<circle cx="574.74" cy="374.74" r="3.2" fill="#1d4ed8"/>
<circle cx="577.42" cy="374.34" r="3.2" fill="#1d4ed8"/>
<circle cx="580.10" cy="374.34" r="3.2" fill="#1d4ed8"/>
<circle cx="582.78" cy="374.34" r="3.2" fill="#1d4ed8"/>
<circle cx="585.45" cy="374.34" r="3.2" fill="#1d4ed8"/>
<circle cx="588.13" cy="374.34" r="3.2" fill="#1d4ed8"/>
<circle cx="590.81" cy="373.93" r="3.2" fill="#1d4ed8"/>
<circle cx="593.49" cy="373.12" r="3.2" fill="#1d4ed8"/>
<circle cx="596.17" cy="372.72" r="3.2" fill="#1d4ed8"/>
<circle cx="598.85" cy="373.53" r="3.2" fill="#1d4ed8"/>
<circle cx="601.52" cy="435.81" r="3.2" fill="#1d4ed8"/>
<circle cx="604.20" cy="372.32" r="3.2" fill="#1d4ed8"/>
<circle cx="606.88" cy="372.72" r="3.2" fill="#1d4ed8"/>
<circle cx="609.56" cy="371.91" r="3.2" fill="#1d4ed8"/>
<circle cx="612.24" cy="371.91" r="3.2" fill="#1d4ed8"/>
<circle cx="614.91" cy="372.32" r="3.2" fill="#1d4ed8"/>
<circle cx="617.59" cy="371.10" r="3.2" fill="#1d4ed8"/>
<circle cx="620.27" cy="369.89" r="3.2" fill="#1d4ed8"/>
<circle cx="622.95" cy="369.89" r="3.2" fill="#1d4ed8"/>
<circle cx="625.63" cy="369.89" r="3.2" fill="#1d4ed8"/>
<circle cx="628.30" cy="369.49" r="3.2" fill="#1d4ed8"/>
<circle cx="630.98" cy="369.89" r="3.2" fill="#1d4ed8"/>
<circle cx="633.66" cy="369.08" r="3.2" fill="#1d4ed8"/>
<circle cx="636.34" cy="368.68" r="3.2" fill="#1d4ed8"/>
<circle cx="639.02" cy="368.27" r="3.2" fill="#1d4ed8"/>
<circle cx="641.70" cy="367.87" r="3.2" fill="#1d4ed8"/>
<circle cx="644.37" cy="367.06" r="3.2" fill="#1d4ed8"/>
<circle cx="647.05" cy="367.46" r="3.2" fill="#1d4ed8"/>
<circle cx="649.73" cy="367.06" r="3.2" fill="#1d4ed8"/>
<circle cx="652.41" cy="366.25" r="3.2" fill="#1d4ed8"/>
<circle cx="655.09" cy="368.27" r="3.2" fill="#1d4ed8"/>
<circle cx="657.76" cy="368.68" r="3.2" fill="#1d4ed8"/>
<circle cx="660.44" cy="368.68" r="3.2" fill="#1d4ed8"/>
<circle cx="663.12" cy="368.27" r="3.2" fill="#1d4ed8"/>
<circle cx="665.80" cy="369.08" r="3.2" fill="#1d4ed8"/>
<circle cx="668.48" cy="367.87" r="3.2" fill="#1d4ed8"/>
<circle cx="671.15" cy="367.46" r="3.2" fill="#1d4ed8"/>
<circle cx="673.83" cy="367.06" r="3.2" fill="#1d4ed8"/>
<circle cx="676.51" cy="360.18" r="3.2" fill="#1d4ed8"/>
<circle cx="679.19" cy="359.78" r="3.2" fill="#1d4ed8"/>
<circle cx="681.87" cy="359.38" r="3.2" fill="#1d4ed8"/>
<circle cx="684.55" cy="356.95" r="3.2" fill="#1d4ed8"/>
<circle cx="687.22" cy="357.35" r="3.2" fill="#1d4ed8"/>
<circle cx="689.90" cy="357.76" r="3.2" fill="#1d4ed8"/>
<circle cx="692.58" cy="355.33" r="3.2" fill="#1d4ed8"/>
<circle cx="695.26" cy="355.74" r="3.2" fill="#1d4ed8"/>
<circle cx="697.94" cy="357.35" r="3.2" fill="#1d4ed8"/>
<circle cx="700.61" cy="355.33" r="3.2" fill="#1d4ed8"/>
<circle cx="703.29" cy="356.14" r="3.2" fill="#1d4ed8"/>
<circle cx="705.97" cy="355.74" r="3.2" fill="#1d4ed8"/>
<circle cx="708.65" cy="356.14" r="3.2" fill="#1d4ed8"/>
<circle cx="711.33" cy="354.12" r="3.2" fill="#1d4ed8"/>
<circle cx="714.00" cy="354.93" r="3.2" fill="#1d4ed8"/>
<circle cx="716.68" cy="356.14" r="3.2" fill="#1d4ed8"/>
<circle cx="719.36" cy="354.52" r="3.2" fill="#1d4ed8"/>
<circle cx="722.04" cy="353.71" r="3.2" fill="#1d4ed8"/>
<circle cx="724.72" cy="354.12" r="3.2" fill="#1d4ed8"/>
<circle cx="727.40" cy="354.93" r="3.2" fill="#1d4ed8"/>
<circle cx="730.07" cy="352.90" r="3.2" fill="#1d4ed8"/>
<circle cx="732.75" cy="353.71" r="3.2" fill="#1d4ed8"/>
<circle cx="735.43" cy="353.31" r="3.2" fill="#1d4ed8"/>
<circle cx="738.11" cy="353.31" r="3.2" fill="#1d4ed8"/>
<circle cx="740.79" cy="354.52" r="3.2" fill="#1d4ed8"/>
<circle cx="743.46" cy="352.90" r="3.2" fill="#1d4ed8"/>
<circle cx="746.14" cy="352.50" r="3.2" fill="#1d4ed8"/>
<circle cx="748.82" cy="352.50" r="3.2" fill="#1d4ed8"/>
<circle cx="751.50" cy="353.31" r="3.2" fill="#1d4ed8"/>
<circle cx="754.18" cy="352.50" r="3.2" fill="#1d4ed8"/>
<circle cx="756.86" cy="353.71" r="3.2" fill="#1d4ed8"/>
<circle cx="759.53" cy="354.12" r="3.2" fill="#1d4ed8"/>
<circle cx="762.21" cy="352.50" r="3.2" fill="#1d4ed8"/>
<circle cx="764.89" cy="352.90" r="3.2" fill="#1d4ed8"/>
<circle cx="767.57" cy="352.50" r="3.2" fill="#1d4ed8"/>
<circle cx="770.25" cy="352.10" r="3.2" fill="#1d4ed8"/>
<circle cx="772.92" cy="351.69" r="3.2" fill="#1d4ed8"/>
<circle cx="775.60" cy="352.10" r="3.2" fill="#1d4ed8"/>
<circle cx="778.28" cy="354.12" r="3.2" fill="#1d4ed8"/>
<circle cx="780.96" cy="352.50" r="3.2" fill="#1d4ed8"/>
<circle cx="783.64" cy="352.10" r="3.2" fill="#1d4ed8"/>
<circle cx="786.31" cy="352.10" r="3.2" fill="#1d4ed8"/>
<circle cx="788.99" cy="349.67" r="3.2" fill="#1d4ed8"/>
<circle cx="791.67" cy="349.67" r="3.2" fill="#1d4ed8"/>
<circle cx="794.35" cy="350.88" r="3.2" fill="#1d4ed8"/>
<circle cx="797.03" cy="351.29" r="3.2" fill="#1d4ed8"/>
<circle cx="799.71" cy="350.48" r="3.2" fill="#1d4ed8"/>
<circle cx="802.38" cy="352.10" r="3.2" fill="#1d4ed8"/>
<circle cx="805.06" cy="350.48" r="3.2" fill="#1d4ed8"/>
<circle cx="807.74" cy="350.48" r="3.2" fill="#1d4ed8"/>
<circle cx="810.42" cy="350.48" r="3.2" fill="#1d4ed8"/>
<circle cx="813.10" cy="350.07" r="3.2" fill="#1d4ed8"/>
<circle cx="815.77" cy="348.46" r="3.2" fill="#1d4ed8"/>
<circle cx="818.45" cy="351.29" r="3.2" fill="#1d4ed8"/>
<circle cx="821.13" cy="349.67" r="3.2" fill="#1d4ed8"/>
<circle cx="823.81" cy="351.29" r="3.2" fill="#1d4ed8"/>
<circle cx="826.49" cy="349.67" r="3.2" fill="#1d4ed8"/>
<circle cx="829.16" cy="348.86" r="3.2" fill="#1d4ed8"/>
<circle cx="831.84" cy="348.46" r="3.2" fill="#1d4ed8"/>
<circle cx="834.52" cy="348.46" r="3.2" fill="#1d4ed8"/>
<circle cx="837.20" cy="347.24" r="3.2" fill="#1d4ed8"/>
<circle cx="839.88" cy="348.86" r="3.2" fill="#1d4ed8"/>
<circle cx="842.56" cy="346.84" r="3.2" fill="#1d4ed8"/>
<circle cx="845.23" cy="348.46" r="3.2" fill="#1d4ed8"/>
<circle cx="847.91" cy="348.86" r="3.2" fill="#1d4ed8"/>
<circle cx="850.59" cy="346.84" r="3.2" fill="#1d4ed8"/>
<circle cx="853.27" cy="349.26" r="3.2" fill="#1d4ed8"/>
<circle cx="855.95" cy="348.05" r="3.2" fill="#1d4ed8"/>
<circle cx="858.62" cy="349.26" r="3.2" fill="#1d4ed8"/>
<circle cx="861.30" cy="349.26" r="3.2" fill="#1d4ed8"/>
<circle cx="863.98" cy="350.48" r="3.2" fill="#1d4ed8"/>
<circle cx="866.66" cy="352.90" r="3.2" fill="#1d4ed8"/>
<circle cx="869.34" cy="349.67" r="3.2" fill="#1d4ed8"/>
<circle cx="872.01" cy="348.46" r="3.2" fill="#1d4ed8"/>
<circle cx="874.69" cy="345.62" r="3.2" fill="#1d4ed8"/>
<circle cx="877.37" cy="344.82" r="3.2" fill="#1d4ed8"/>
<circle cx="880.05" cy="344.41" r="3.2" fill="#1d4ed8"/>
<circle cx="882.73" cy="342.39" r="3.2" fill="#1d4ed8"/>
<circle cx="885.41" cy="341.18" r="3.2" fill="#1d4ed8"/>
<circle cx="888.08" cy="341.58" r="3.2" fill="#1d4ed8"/>
<circle cx="890.76" cy="339.15" r="3.2" fill="#1d4ed8"/>
<circle cx="893.44" cy="338.35" r="3.2" fill="#1d4ed8"/>
<circle cx="896.12" cy="337.54" r="3.2" fill="#1d4ed8"/>
<circle cx="898.80" cy="336.73" r="3.2" fill="#1d4ed8"/>
<circle cx="901.47" cy="335.92" r="3.2" fill="#1d4ed8"/>
<circle cx="904.15" cy="337.54" r="3.2" fill="#1d4ed8"/>
<circle cx="906.83" cy="338.35" r="3.2" fill="#1d4ed8"/>
<circle cx="909.51" cy="337.54" r="3.2" fill="#1d4ed8"/>
<circle cx="912.19" cy="337.54" r="3.2" fill="#1d4ed8"/>
<circle cx="914.86" cy="337.54" r="3.2" fill="#1d4ed8"/>
<circle cx="917.54" cy="333.09" r="3.2" fill="#1d4ed8"/>
<circle cx="920.22" cy="333.90" r="3.2" fill="#1d4ed8"/>
<circle cx="922.90" cy="335.92" r="3.2" fill="#1d4ed8"/>
<circle cx="925.58" cy="336.73" r="3.2" fill="#1d4ed8"/>
<circle cx="928.26" cy="335.51" r="3.2" fill="#1d4ed8"/>
<circle cx="930.93" cy="332.28" r="3.2" fill="#1d4ed8"/>
<circle cx="933.61" cy="331.47" r="3.2" fill="#1d4ed8"/>
<circle cx="936.29" cy="331.07" r="3.2" fill="#1d4ed8"/>
<circle cx="938.97" cy="331.47" r="3.2" fill="#1d4ed8"/>
<circle cx="941.65" cy="331.07" r="3.2" fill="#1d4ed8"/>
<circle cx="944.32" cy="331.07" r="3.2" fill="#1d4ed8"/>
<circle cx="947.00" cy="331.07" r="3.2" fill="#1d4ed8"/>
<circle cx="949.68" cy="331.07" r="3.2" fill="#1d4ed8"/>
<circle cx="952.36" cy="331.07" r="3.2" fill="#1d4ed8"/>
<circle cx="955.04" cy="331.07" r="3.2" fill="#1d4ed8"/>
<circle cx="957.71" cy="331.07" r="3.2" fill="#1d4ed8"/>
<circle cx="960.39" cy="331.07" r="3.2" fill="#1d4ed8"/>
<circle cx="963.07" cy="331.07" r="3.2" fill="#1d4ed8"/>
<circle cx="965.75" cy="331.07" r="3.2" fill="#1d4ed8"/>
<circle cx="968.43" cy="331.47" r="3.2" fill="#1d4ed8"/>
<circle cx="971.11" cy="331.88" r="3.2" fill="#1d4ed8"/>
<circle cx="973.78" cy="331.07" r="3.2" fill="#1d4ed8"/>
<circle cx="976.46" cy="331.47" r="3.2" fill="#1d4ed8"/>
<circle cx="979.14" cy="331.07" r="3.2" fill="#1d4ed8"/>
<circle cx="981.82" cy="331.47" r="3.2" fill="#1d4ed8"/>
<circle cx="984.50" cy="331.07" r="3.2" fill="#1d4ed8"/>
<circle cx="987.17" cy="324.19" r="3.2" fill="#1d4ed8"/>
<circle cx="989.85" cy="324.19" r="3.2" fill="#1d4ed8"/>
<circle cx="992.53" cy="318.93" r="3.2" fill="#1d4ed8"/>
<circle cx="995.21" cy="316.51" r="3.2" fill="#1d4ed8"/>
<circle cx="997.89" cy="310.44" r="3.2" fill="#1d4ed8"/>
<circle cx="1000.57" cy="308.01" r="3.2" fill="#1d4ed8"/>
<circle cx="1003.24" cy="600.00" r="3.2" fill="#1d4ed8"/>
<circle cx="1005.92" cy="301.54" r="3.2" fill="#1d4ed8"/>
<circle cx="1008.60" cy="290.22" r="3.2" fill="#1d4ed8"/>
<circle cx="1011.28" cy="287.79" r="3.2" fill="#1d4ed8"/>
<circle cx="1013.96" cy="286.18" r="3.2" fill="#1d4ed8"/>
<circle cx="1016.63" cy="285.77" r="3.2" fill="#1d4ed8"/>
<circle cx="1019.31" cy="285.77" r="3.2" fill="#1d4ed8"/>
<circle cx="1021.99" cy="285.77" r="3.2" fill="#1d4ed8"/>
<circle cx="1024.67" cy="286.18" r="3.2" fill="#1d4ed8"/>
<circle cx="1027.35" cy="285.77" r="3.2" fill="#1d4ed8"/>
<circle cx="1030.02" cy="285.77" r="3.2" fill="#1d4ed8"/>
<circle cx="1032.70" cy="285.77" r="3.2" fill="#1d4ed8"/>
<circle cx="1035.38" cy="283.35" r="3.2" fill="#1d4ed8"/>
<circle cx="1038.06" cy="282.94" r="3.2" fill="#1d4ed8"/>
<circle cx="1040.74" cy="282.94" r="3.2" fill="#1d4ed8"/>
<circle cx="1043.42" cy="283.35" r="3.2" fill="#1d4ed8"/>
<circle cx="1046.09" cy="282.94" r="3.2" fill="#1d4ed8"/>
<circle cx="1048.77" cy="282.94" r="3.2" fill="#1d4ed8"/>
<circle cx="1051.45" cy="283.75" r="3.2" fill="#1d4ed8"/>
<circle cx="1054.13" cy="282.13" r="3.2" fill="#1d4ed8"/>
<circle cx="1056.81" cy="282.13" r="3.2" fill="#1d4ed8"/>
<circle cx="1059.48" cy="282.54" r="3.2" fill="#1d4ed8"/>
<circle cx="1062.16" cy="282.13" r="3.2" fill="#1d4ed8"/>
<circle cx="1064.84" cy="282.54" r="3.2" fill="#1d4ed8"/>
<circle cx="1067.52" cy="282.94" r="3.2" fill="#1d4ed8"/>
<circle cx="1070.20" cy="281.73" r="3.2" fill="#1d4ed8"/>
<circle cx="1072.87" cy="282.54" r="3.2" fill="#1d4ed8"/>
<circle cx="1075.55" cy="281.73" r="3.2" fill="#1d4ed8"/>
<circle cx="1078.23" cy="282.54" r="3.2" fill="#1d4ed8"/>
<circle cx="1080.91" cy="282.13" r="3.2" fill="#1d4ed8"/>
<circle cx="1083.59" cy="282.13" r="3.2" fill="#1d4ed8"/>
<circle cx="1086.27" cy="281.73" r="3.2" fill="#1d4ed8"/>
<circle cx="1088.94" cy="281.73" r="3.2" fill="#1d4ed8"/>
<circle cx="1091.62" cy="281.32" r="3.2" fill="#1d4ed8"/>
<circle cx="1094.30" cy="281.73" r="3.2" fill="#1d4ed8"/>
<circle cx="1096.98" cy="282.13" r="3.2" fill="#1d4ed8"/>
<circle cx="1099.66" cy="281.32" r="3.2" fill="#1d4ed8"/>
<circle cx="1102.33" cy="281.32" r="3.2" fill="#1d4ed8"/>
<circle cx="1105.01" cy="282.54" r="3.2" fill="#1d4ed8"/>
<circle cx="1107.69" cy="282.13" r="3.2" fill="#1d4ed8"/>
<circle cx="1110.37" cy="281.32" r="3.2" fill="#1d4ed8"/>
<circle cx="1113.05" cy="281.32" r="3.2" fill="#1d4ed8"/>
<circle cx="1115.72" cy="281.32" r="3.2" fill="#1d4ed8"/>
<circle cx="1118.40" cy="282.54" r="3.2" fill="#1d4ed8"/>
<circle cx="1121.08" cy="282.13" r="3.2" fill="#1d4ed8"/>
<circle cx="1123.76" cy="281.32" r="3.2" fill="#1d4ed8"/>
<circle cx="1126.44" cy="282.13" r="3.2" fill="#1d4ed8"/>
<circle cx="1129.12" cy="281.73" r="3.2" fill="#1d4ed8"/>
<circle cx="1131.79" cy="282.13" r="3.2" fill="#1d4ed8"/>
<circle cx="1134.47" cy="280.11" r="3.2" fill="#1d4ed8"/>
<circle cx="1137.15" cy="280.11" r="3.2" fill="#1d4ed8"/>
<circle cx="1139.83" cy="280.51" r="3.2" fill="#1d4ed8"/>
<circle cx="1142.51" cy="279.71" r="3.2" fill="#1d4ed8"/>
<circle cx="1145.18" cy="280.11" r="3.2" fill="#1d4ed8"/>
<circle cx="1147.86" cy="280.51" r="3.2" fill="#1d4ed8"/>
<circle cx="1150.54" cy="279.71" r="3.2" fill="#1d4ed8"/>
<circle cx="1153.22" cy="280.11" r="3.2" fill="#1d4ed8"/>
<circle cx="1155.90" cy="280.11" r="3.2" fill="#1d4ed8"/>
<circle cx="1158.57" cy="279.30" r="3.2" fill="#1d4ed8"/>
<circle cx="1161.25" cy="278.90" r="3.2" fill="#1d4ed8"/>
<circle cx="1163.93" cy="278.90" r="3.2" fill="#1d4ed8"/>
<circle cx="1166.61" cy="280.51" r="3.2" fill="#1d4ed8"/>
<circle cx="1169.29" cy="279.30" r="3.2" fill="#1d4ed8"/>
<circle cx="1171.97" cy="278.09" r="3.2" fill="#1d4ed8"/>
<circle cx="1174.64" cy="278.49" r="3.2" fill="#1d4ed8"/>
<circle cx="1177.32" cy="278.49" r="3.2" fill="#1d4ed8"/>
<circle cx="1180.00" cy="277.28" r="3.2" fill="#1d4ed8"/>
<text x="635" y="695" text-anchor="middle" font-size="14" fill="#111" font-family="sans-serif">Date</text>
<text x="24" y="325" text-anchor="middle" font-size="14" fill="#111" transform="rotate(-90 24,325)" font-family="sans-serif">Passed files</text>
</svg>
