<?xml version="1.0" encoding="UTF-8"?>
<svg xmlns="http://www.w3.org/2000/svg" width="1280" height="720" viewBox="0 0 1280 720">
<rect width="100%" height="100%" fill="#ffffff"/>
<text x="640" y="30" text-anchor="middle" font-size="22" font-family="sans-serif">Roast passed files history</text>
<line x1="90" y1="600" x2="1180" y2="600" stroke="#333" stroke-width="1.5"/>
<line x1="90" y1="50" x2="90" y2="600" stroke="#333" stroke-width="1.5"/>
<line x1="90" y1="600.00" x2="1180" y2="600.00" stroke="#e5e7eb" stroke-width="1"/>
<text x="78" y="605.00" text-anchor="end" font-size="12" fill="#111" font-family="sans-serif">0</text>
<line x1="90" y1="397.79" x2="1180" y2="397.79" stroke="#e5e7eb" stroke-width="1"/>
<text x="78" y="402.79" text-anchor="end" font-size="12" fill="#111" font-family="sans-serif">500</text>
<line x1="90" y1="195.59" x2="1180" y2="195.59" stroke="#e5e7eb" stroke-width="1"/>
<text x="78" y="200.59" text-anchor="end" font-size="12" fill="#111" font-family="sans-serif">1000</text>
<line x1="90.00" y1="600" x2="90.00" y2="606" stroke="#333" stroke-width="1"/>
<text x="90.00" y="624" text-anchor="end" font-size="11" fill="#111" transform="rotate(-40 90.00,624)" font-family="sans-serif">2026-02-12</text>
<line x1="226.25" y1="600" x2="226.25" y2="606" stroke="#333" stroke-width="1"/>
<text x="226.25" y="624" text-anchor="end" font-size="11" fill="#111" transform="rotate(-40 226.25,624)" font-family="sans-serif">2026-02-17</text>
<line x1="362.50" y1="600" x2="362.50" y2="606" stroke="#333" stroke-width="1"/>
<text x="362.50" y="624" text-anchor="end" font-size="11" fill="#111" transform="rotate(-40 362.50,624)" font-family="sans-serif">2026-02-19</text>
<line x1="498.75" y1="600" x2="498.75" y2="606" stroke="#333" stroke-width="1"/>
<text x="498.75" y="624" text-anchor="end" font-size="11" fill="#111" transform="rotate(-40 498.75,624)" font-family="sans-serif">2026-02-23</text>
<line x1="635.00" y1="600" x2="635.00" y2="606" stroke="#333" stroke-width="1"/>
<text x="635.00" y="624" text-anchor="end" font-size="11" fill="#111" transform="rotate(-40 635.00,624)" font-family="sans-serif">2026-02-25</text>
<line x1="771.25" y1="600" x2="771.25" y2="606" stroke="#333" stroke-width="1"/>
<text x="771.25" y="624" text-anchor="end" font-size="11" fill="#111" transform="rotate(-40 771.25,624)" font-family="sans-serif">2026-02-27</text>
<line x1="907.50" y1="600" x2="907.50" y2="606" stroke="#333" stroke-width="1"/>
<text x="907.50" y="624" text-anchor="end" font-size="11" fill="#111" transform="rotate(-40 907.50,624)" font-family="sans-serif">2026-03-01</text>
<line x1="1043.75" y1="600" x2="1043.75" y2="606" stroke="#333" stroke-width="1"/>
<text x="1043.75" y="624" text-anchor="end" font-size="11" fill="#111" transform="rotate(-40 1043.75,624)" font-family="sans-serif">2026-03-06</text>
<line x1="1180.00" y1="600" x2="1180.00" y2="606" stroke="#333" stroke-width="1"/>
<text x="1180.00" y="624" text-anchor="end" font-size="11" fill="#111" transform="rotate(-40 1180.00,624)" font-family="sans-serif">2026-03-07</text>
<line x1="90" y1="75.88" x2="1180" y2="75.88" stroke="#dc2626" stroke-width="1.5" stroke-dasharray="8,4"/>
<text x="1184" y="79.88" font-size="12" fill="#dc2626" font-family="sans-serif">Goal: 1296</text>
<polyline fill="none" stroke="#2563eb" stroke-width="3" points="90.00,540.55 94.01,538.53 98.01,536.91 102.02,534.49 106.03,534.49 110.04,533.27 114.04,532.46 118.05,532.87 122.06,532.06 126.07,532.46 130.07,532.06 134.08,568.46 138.09,568.46 142.10,566.43 146.10,545.00 150.11,545.00 154.12,544.19 158.12,543.79 162.13,543.79 166.14,543.38 170.15,541.76 174.15,541.36 178.16,540.96 182.17,540.96 186.18,539.34 190.18,539.34 194.19,556.73 198.20,556.73 202.21,555.51 206.21,551.07 210.22,538.93 214.23,538.93 218.24,538.93 222.24,538.12 226.25,536.91 230.26,536.91 234.26,536.51 238.27,536.51 242.28,556.73 246.29,556.73 250.29,556.73 254.30,556.73 258.31,535.29 262.32,535.29 266.32,535.29 270.33,535.29 274.34,534.49 278.35,534.08 282.35,533.68 286.36,532.87 290.37,532.06 294.38,532.06 298.38,531.25 302.39,530.85 306.40,530.44 310.40,530.04 314.41,530.04 318.42,529.23 322.43,529.23 326.43,529.23 330.44,528.42 334.45,528.42 338.46,527.61 342.46,527.21 346.47,526.80 350.48,526.40 354.49,525.18 358.49,523.57 362.50,523.57 366.51,523.16 370.51,522.76 374.52,522.35 378.53,521.54 382.54,519.52 386.54,517.50 390.55,517.50 394.56,517.50 398.57,517.50 402.57,517.50 406.58,517.50 410.59,517.10 414.60,516.69 418.60,515.48 422.61,515.07 426.62,514.67 430.62,513.86 434.63,514.26 438.64,512.24 442.65,511.84 446.65,511.84 450.66,511.03 454.67,509.82 458.68,507.79 462.68,506.99 466.69,506.58 470.70,509.41 474.71,509.01 478.71,504.96 482.72,504.56 486.73,504.15 490.74,504.56 494.74,503.75 498.75,503.75 502.76,503.35 506.76,499.30 510.77,496.47 514.78,490.00 518.79,484.34 522.79,481.10 526.80,480.29 530.81,480.70 534.82,460.88 538.82,459.26 542.83,458.05 546.84,456.03 550.85,456.03 554.85,454.41 558.86,450.77 562.87,444.30 566.88,443.90 570.88,600.00 574.89,441.88 578.90,440.66 582.90,439.45 586.91,439.04 590.92,438.64 594.93,437.83 598.93,436.62 602.94,436.62 606.95,434.60 610.96,432.17 614.96,429.34 618.97,428.93 622.98,428.53 626.99,427.72 630.99,426.91 635.00,426.10 639.01,426.10 643.01,426.10 647.02,419.63 651.03,419.23 655.04,418.42 659.04,418.01 663.05,417.61 667.06,417.61 671.07,417.61 675.07,417.21 679.08,417.21 683.09,413.57 687.10,411.95 691.10,412.76 695.11,410.74 699.12,410.74 703.12,410.33 707.13,410.33 711.14,410.33 715.15,409.93 719.15,409.93 723.16,409.93 727.17,409.52 731.18,409.52 735.18,409.12 739.19,409.52 743.20,409.12 747.21,407.50 751.21,407.10 755.22,403.05 759.23,399.82 763.24,400.22 767.24,400.62 771.25,400.62 775.26,399.41 779.26,392.94 783.27,391.32 787.28,389.30 791.29,389.30 795.29,388.49 799.30,375.15 803.31,374.74 807.32,374.74 811.32,374.74 815.33,374.74 819.34,374.34 823.35,374.34 827.35,374.34 831.36,374.34 835.37,374.34 839.38,373.93 843.38,373.12 847.39,372.72 851.40,373.53 855.40,435.81 859.41,372.32 863.42,372.72 867.43,371.91 871.43,371.91 875.44,372.32 879.45,371.10 883.46,369.89 887.46,369.89 891.47,369.89 895.48,369.49 899.49,369.89 903.49,369.08 907.50,368.68 911.51,368.27 915.51,367.87 919.52,367.06 923.53,367.46 927.54,367.06 931.54,366.25 935.55,368.27 939.56,368.68 943.57,368.68 947.57,368.27 951.58,369.08 955.59,367.87 959.60,367.46 963.60,367.06 967.61,360.18 971.62,359.78 975.62,359.38 979.63,356.95 983.64,357.35 987.65,357.76 991.65,355.33 995.66,355.74 999.67,357.35 1003.68,355.33 1007.68,356.14 1011.69,355.74 1015.70,356.14 1019.71,354.12 1023.71,354.93 1027.72,356.14 1031.73,354.52 1035.74,353.71 1039.74,354.12 1043.75,354.93 1047.76,352.90 1051.76,353.71 1055.77,353.31 1059.78,353.31 1063.79,354.52 1067.79,352.90 1071.80,352.50 1075.81,352.50 1079.82,353.31 1083.82,352.50 1087.83,353.71 1091.84,354.12 1095.85,352.50 1099.85,352.90 1103.86,352.50 1107.87,352.10 1111.88,351.69 1115.88,352.10 1119.89,354.12 1123.90,352.50 1127.90,352.10 1131.91,352.10 1135.92,349.67 1139.93,349.67 1143.93,350.88 1147.94,351.29 1151.95,350.48 1155.96,352.10 1159.96,350.48 1163.97,350.48 1167.98,350.48 1171.99,350.07 1175.99,348.46 1180.00,351.29"/>
<circle cx="90.00" cy="540.55" r="3.2" fill="#1d4ed8"/>
<circle cx="94.01" cy="538.53" r="3.2" fill="#1d4ed8"/>
<circle cx="98.01" cy="536.91" r="3.2" fill="#1d4ed8"/>
<circle cx="102.02" cy="534.49" r="3.2" fill="#1d4ed8"/>
<circle cx="106.03" cy="534.49" r="3.2" fill="#1d4ed8"/>
<circle cx="110.04" cy="533.27" r="3.2" fill="#1d4ed8"/>
<circle cx="114.04" cy="532.46" r="3.2" fill="#1d4ed8"/>
<circle cx="118.05" cy="532.87" r="3.2" fill="#1d4ed8"/>
<circle cx="122.06" cy="532.06" r="3.2" fill="#1d4ed8"/>
<circle cx="126.07" cy="532.46" r="3.2" fill="#1d4ed8"/>
<circle cx="130.07" cy="532.06" r="3.2" fill="#1d4ed8"/>
<circle cx="134.08" cy="568.46" r="3.2" fill="#1d4ed8"/>
<circle cx="138.09" cy="568.46" r="3.2" fill="#1d4ed8"/>
<circle cx="142.10" cy="566.43" r="3.2" fill="#1d4ed8"/>
<circle cx="146.10" cy="545.00" r="3.2" fill="#1d4ed8"/>
<circle cx="150.11" cy="545.00" r="3.2" fill="#1d4ed8"/>
<circle cx="154.12" cy="544.19" r="3.2" fill="#1d4ed8"/>
<circle cx="158.12" cy="543.79" r="3.2" fill="#1d4ed8"/>
<circle cx="162.13" cy="543.79" r="3.2" fill="#1d4ed8"/>
<circle cx="166.14" cy="543.38" r="3.2" fill="#1d4ed8"/>
<circle cx="170.15" cy="541.76" r="3.2" fill="#1d4ed8"/>
<circle cx="174.15" cy="541.36" r="3.2" fill="#1d4ed8"/>
<circle cx="178.16" cy="540.96" r="3.2" fill="#1d4ed8"/>
<circle cx="182.17" cy="540.96" r="3.2" fill="#1d4ed8"/>
<circle cx="186.18" cy="539.34" r="3.2" fill="#1d4ed8"/>
<circle cx="190.18" cy="539.34" r="3.2" fill="#1d4ed8"/>
<circle cx="194.19" cy="556.73" r="3.2" fill="#1d4ed8"/>
<circle cx="198.20" cy="556.73" r="3.2" fill="#1d4ed8"/>
<circle cx="202.21" cy="555.51" r="3.2" fill="#1d4ed8"/>
<circle cx="206.21" cy="551.07" r="3.2" fill="#1d4ed8"/>
<circle cx="210.22" cy="538.93" r="3.2" fill="#1d4ed8"/>
<circle cx="214.23" cy="538.93" r="3.2" fill="#1d4ed8"/>
<circle cx="218.24" cy="538.93" r="3.2" fill="#1d4ed8"/>
<circle cx="222.24" cy="538.12" r="3.2" fill="#1d4ed8"/>
<circle cx="226.25" cy="536.91" r="3.2" fill="#1d4ed8"/>
<circle cx="230.26" cy="536.91" r="3.2" fill="#1d4ed8"/>
<circle cx="234.26" cy="536.51" r="3.2" fill="#1d4ed8"/>
<circle cx="238.27" cy="536.51" r="3.2" fill="#1d4ed8"/>
<circle cx="242.28" cy="556.73" r="3.2" fill="#1d4ed8"/>
<circle cx="246.29" cy="556.73" r="3.2" fill="#1d4ed8"/>
<circle cx="250.29" cy="556.73" r="3.2" fill="#1d4ed8"/>
<circle cx="254.30" cy="556.73" r="3.2" fill="#1d4ed8"/>
<circle cx="258.31" cy="535.29" r="3.2" fill="#1d4ed8"/>
<circle cx="262.32" cy="535.29" r="3.2" fill="#1d4ed8"/>
<circle cx="266.32" cy="535.29" r="3.2" fill="#1d4ed8"/>
<circle cx="270.33" cy="535.29" r="3.2" fill="#1d4ed8"/>
<circle cx="274.34" cy="534.49" r="3.2" fill="#1d4ed8"/>
<circle cx="278.35" cy="534.08" r="3.2" fill="#1d4ed8"/>
<circle cx="282.35" cy="533.68" r="3.2" fill="#1d4ed8"/>
<circle cx="286.36" cy="532.87" r="3.2" fill="#1d4ed8"/>
<circle cx="290.37" cy="532.06" r="3.2" fill="#1d4ed8"/>
<circle cx="294.38" cy="532.06" r="3.2" fill="#1d4ed8"/>
<circle cx="298.38" cy="531.25" r="3.2" fill="#1d4ed8"/>
<circle cx="302.39" cy="530.85" r="3.2" fill="#1d4ed8"/>
<circle cx="306.40" cy="530.44" r="3.2" fill="#1d4ed8"/>
<circle cx="310.40" cy="530.04" r="3.2" fill="#1d4ed8"/>
<circle cx="314.41" cy="530.04" r="3.2" fill="#1d4ed8"/>
<circle cx="318.42" cy="529.23" r="3.2" fill="#1d4ed8"/>
<circle cx="322.43" cy="529.23" r="3.2" fill="#1d4ed8"/>
<circle cx="326.43" cy="529.23" r="3.2" fill="#1d4ed8"/>
<circle cx="330.44" cy="528.42" r="3.2" fill="#1d4ed8"/>
<circle cx="334.45" cy="528.42" r="3.2" fill="#1d4ed8"/>
<circle cx="338.46" cy="527.61" r="3.2" fill="#1d4ed8"/>
<circle cx="342.46" cy="527.21" r="3.2" fill="#1d4ed8"/>
<circle cx="346.47" cy="526.80" r="3.2" fill="#1d4ed8"/>
<circle cx="350.48" cy="526.40" r="3.2" fill="#1d4ed8"/>
<circle cx="354.49" cy="525.18" r="3.2" fill="#1d4ed8"/>
<circle cx="358.49" cy="523.57" r="3.2" fill="#1d4ed8"/>
<circle cx="362.50" cy="523.57" r="3.2" fill="#1d4ed8"/>
<circle cx="366.51" cy="523.16" r="3.2" fill="#1d4ed8"/>
<circle cx="370.51" cy="522.76" r="3.2" fill="#1d4ed8"/>
<circle cx="374.52" cy="522.35" r="3.2" fill="#1d4ed8"/>
<circle cx="378.53" cy="521.54" r="3.2" fill="#1d4ed8"/>
<circle cx="382.54" cy="519.52" r="3.2" fill="#1d4ed8"/>
<circle cx="386.54" cy="517.50" r="3.2" fill="#1d4ed8"/>
<circle cx="390.55" cy="517.50" r="3.2" fill="#1d4ed8"/>
<circle cx="394.56" cy="517.50" r="3.2" fill="#1d4ed8"/>
<circle cx="398.57" cy="517.50" r="3.2" fill="#1d4ed8"/>
<circle cx="402.57" cy="517.50" r="3.2" fill="#1d4ed8"/>
<circle cx="406.58" cy="517.50" r="3.2" fill="#1d4ed8"/>
<circle cx="410.59" cy="517.10" r="3.2" fill="#1d4ed8"/>
<circle cx="414.60" cy="516.69" r="3.2" fill="#1d4ed8"/>
<circle cx="418.60" cy="515.48" r="3.2" fill="#1d4ed8"/>
<circle cx="422.61" cy="515.07" r="3.2" fill="#1d4ed8"/>
<circle cx="426.62" cy="514.67" r="3.2" fill="#1d4ed8"/>
<circle cx="430.62" cy="513.86" r="3.2" fill="#1d4ed8"/>
<circle cx="434.63" cy="514.26" r="3.2" fill="#1d4ed8"/>
<circle cx="438.64" cy="512.24" r="3.2" fill="#1d4ed8"/>
<circle cx="442.65" cy="511.84" r="3.2" fill="#1d4ed8"/>
<circle cx="446.65" cy="511.84" r="3.2" fill="#1d4ed8"/>
<circle cx="450.66" cy="511.03" r="3.2" fill="#1d4ed8"/>
<circle cx="454.67" cy="509.82" r="3.2" fill="#1d4ed8"/>
<circle cx="458.68" cy="507.79" r="3.2" fill="#1d4ed8"/>
<circle cx="462.68" cy="506.99" r="3.2" fill="#1d4ed8"/>
<circle cx="466.69" cy="506.58" r="3.2" fill="#1d4ed8"/>
<circle cx="470.70" cy="509.41" r="3.2" fill="#1d4ed8"/>
<circle cx="474.71" cy="509.01" r="3.2" fill="#1d4ed8"/>
<circle cx="478.71" cy="504.96" r="3.2" fill="#1d4ed8"/>
<circle cx="482.72" cy="504.56" r="3.2" fill="#1d4ed8"/>
<circle cx="486.73" cy="504.15" r="3.2" fill="#1d4ed8"/>
<circle cx="490.74" cy="504.56" r="3.2" fill="#1d4ed8"/>
<circle cx="494.74" cy="503.75" r="3.2" fill="#1d4ed8"/>
<circle cx="498.75" cy="503.75" r="3.2" fill="#1d4ed8"/>
<circle cx="502.76" cy="503.35" r="3.2" fill="#1d4ed8"/>
<circle cx="506.76" cy="499.30" r="3.2" fill="#1d4ed8"/>
<circle cx="510.77" cy="496.47" r="3.2" fill="#1d4ed8"/>
<circle cx="514.78" cy="490.00" r="3.2" fill="#1d4ed8"/>
<circle cx="518.79" cy="484.34" r="3.2" fill="#1d4ed8"/>
<circle cx="522.79" cy="481.10" r="3.2" fill="#1d4ed8"/>
<circle cx="526.80" cy="480.29" r="3.2" fill="#1d4ed8"/>
<circle cx="530.81" cy="480.70" r="3.2" fill="#1d4ed8"/>
<circle cx="534.82" cy="460.88" r="3.2" fill="#1d4ed8"/>
<circle cx="538.82" cy="459.26" r="3.2" fill="#1d4ed8"/>
<circle cx="542.83" cy="458.05" r="3.2" fill="#1d4ed8"/>
<circle cx="546.84" cy="456.03" r="3.2" fill="#1d4ed8"/>
<circle cx="550.85" cy="456.03" r="3.2" fill="#1d4ed8"/>
<circle cx="554.85" cy="454.41" r="3.2" fill="#1d4ed8"/>
<circle cx="558.86" cy="450.77" r="3.2" fill="#1d4ed8"/>
<circle cx="562.87" cy="444.30" r="3.2" fill="#1d4ed8"/>
<circle cx="566.88" cy="443.90" r="3.2" fill="#1d4ed8"/>
<circle cx="570.88" cy="600.00" r="3.2" fill="#1d4ed8"/>
<circle cx="574.89" cy="441.88" r="3.2" fill="#1d4ed8"/>
<circle cx="578.90" cy="440.66" r="3.2" fill="#1d4ed8"/>
<circle cx="582.90" cy="439.45" r="3.2" fill="#1d4ed8"/>
<circle cx="586.91" cy="439.04" r="3.2" fill="#1d4ed8"/>
<circle cx="590.92" cy="438.64" r="3.2" fill="#1d4ed8"/>
<circle cx="594.93" cy="437.83" r="3.2" fill="#1d4ed8"/>
<circle cx="598.93" cy="436.62" r="3.2" fill="#1d4ed8"/>
<circle cx="602.94" cy="436.62" r="3.2" fill="#1d4ed8"/>
<circle cx="606.95" cy="434.60" r="3.2" fill="#1d4ed8"/>
<circle cx="610.96" cy="432.17" r="3.2" fill="#1d4ed8"/>
<circle cx="614.96" cy="429.34" r="3.2" fill="#1d4ed8"/>
<circle cx="618.97" cy="428.93" r="3.2" fill="#1d4ed8"/>
<circle cx="622.98" cy="428.53" r="3.2" fill="#1d4ed8"/>
<circle cx="626.99" cy="427.72" r="3.2" fill="#1d4ed8"/>
<circle cx="630.99" cy="426.91" r="3.2" fill="#1d4ed8"/>
<circle cx="635.00" cy="426.10" r="3.2" fill="#1d4ed8"/>
<circle cx="639.01" cy="426.10" r="3.2" fill="#1d4ed8"/>
<circle cx="643.01" cy="426.10" r="3.2" fill="#1d4ed8"/>
<circle cx="647.02" cy="419.63" r="3.2" fill="#1d4ed8"/>
<circle cx="651.03" cy="419.23" r="3.2" fill="#1d4ed8"/>
<circle cx="655.04" cy="418.42" r="3.2" fill="#1d4ed8"/>
<circle cx="659.04" cy="418.01" r="3.2" fill="#1d4ed8"/>
<circle cx="663.05" cy="417.61" r="3.2" fill="#1d4ed8"/>
<circle cx="667.06" cy="417.61" r="3.2" fill="#1d4ed8"/>
<circle cx="671.07" cy="417.61" r="3.2" fill="#1d4ed8"/>
<circle cx="675.07" cy="417.21" r="3.2" fill="#1d4ed8"/>
<circle cx="679.08" cy="417.21" r="3.2" fill="#1d4ed8"/>
<circle cx="683.09" cy="413.57" r="3.2" fill="#1d4ed8"/>
<circle cx="687.10" cy="411.95" r="3.2" fill="#1d4ed8"/>
<circle cx="691.10" cy="412.76" r="3.2" fill="#1d4ed8"/>
<circle cx="695.11" cy="410.74" r="3.2" fill="#1d4ed8"/>
<circle cx="699.12" cy="410.74" r="3.2" fill="#1d4ed8"/>
<circle cx="703.12" cy="410.33" r="3.2" fill="#1d4ed8"/>
<circle cx="707.13" cy="410.33" r="3.2" fill="#1d4ed8"/>
<circle cx="711.14" cy="410.33" r="3.2" fill="#1d4ed8"/>
<circle cx="715.15" cy="409.93" r="3.2" fill="#1d4ed8"/>
<circle cx="719.15" cy="409.93" r="3.2" fill="#1d4ed8"/>
<circle cx="723.16" cy="409.93" r="3.2" fill="#1d4ed8"/>
<circle cx="727.17" cy="409.52" r="3.2" fill="#1d4ed8"/>
<circle cx="731.18" cy="409.52" r="3.2" fill="#1d4ed8"/>
<circle cx="735.18" cy="409.12" r="3.2" fill="#1d4ed8"/>
<circle cx="739.19" cy="409.52" r="3.2" fill="#1d4ed8"/>
<circle cx="743.20" cy="409.12" r="3.2" fill="#1d4ed8"/>
<circle cx="747.21" cy="407.50" r="3.2" fill="#1d4ed8"/>
<circle cx="751.21" cy="407.10" r="3.2" fill="#1d4ed8"/>
<circle cx="755.22" cy="403.05" r="3.2" fill="#1d4ed8"/>
<circle cx="759.23" cy="399.82" r="3.2" fill="#1d4ed8"/>
<circle cx="763.24" cy="400.22" r="3.2" fill="#1d4ed8"/>
<circle cx="767.24" cy="400.62" r="3.2" fill="#1d4ed8"/>
<circle cx="771.25" cy="400.62" r="3.2" fill="#1d4ed8"/>
<circle cx="775.26" cy="399.41" r="3.2" fill="#1d4ed8"/>
<circle cx="779.26" cy="392.94" r="3.2" fill="#1d4ed8"/>
<circle cx="783.27" cy="391.32" r="3.2" fill="#1d4ed8"/>
<circle cx="787.28" cy="389.30" r="3.2" fill="#1d4ed8"/>
<circle cx="791.29" cy="389.30" r="3.2" fill="#1d4ed8"/>
<circle cx="795.29" cy="388.49" r="3.2" fill="#1d4ed8"/>
<circle cx="799.30" cy="375.15" r="3.2" fill="#1d4ed8"/>
<circle cx="803.31" cy="374.74" r="3.2" fill="#1d4ed8"/>
<circle cx="807.32" cy="374.74" r="3.2" fill="#1d4ed8"/>
<circle cx="811.32" cy="374.74" r="3.2" fill="#1d4ed8"/>
<circle cx="815.33" cy="374.74" r="3.2" fill="#1d4ed8"/>
<circle cx="819.34" cy="374.34" r="3.2" fill="#1d4ed8"/>
<circle cx="823.35" cy="374.34" r="3.2" fill="#1d4ed8"/>
<circle cx="827.35" cy="374.34" r="3.2" fill="#1d4ed8"/>
<circle cx="831.36" cy="374.34" r="3.2" fill="#1d4ed8"/>
<circle cx="835.37" cy="374.34" r="3.2" fill="#1d4ed8"/>
<circle cx="839.38" cy="373.93" r="3.2" fill="#1d4ed8"/>
<circle cx="843.38" cy="373.12" r="3.2" fill="#1d4ed8"/>
<circle cx="847.39" cy="372.72" r="3.2" fill="#1d4ed8"/>
<circle cx="851.40" cy="373.53" r="3.2" fill="#1d4ed8"/>
<circle cx="855.40" cy="435.81" r="3.2" fill="#1d4ed8"/>
<circle cx="859.41" cy="372.32" r="3.2" fill="#1d4ed8"/>
<circle cx="863.42" cy="372.72" r="3.2" fill="#1d4ed8"/>
<circle cx="867.43" cy="371.91" r="3.2" fill="#1d4ed8"/>
<circle cx="871.43" cy="371.91" r="3.2" fill="#1d4ed8"/>
<circle cx="875.44" cy="372.32" r="3.2" fill="#1d4ed8"/>
<circle cx="879.45" cy="371.10" r="3.2" fill="#1d4ed8"/>
<circle cx="883.46" cy="369.89" r="3.2" fill="#1d4ed8"/>
<circle cx="887.46" cy="369.89" r="3.2" fill="#1d4ed8"/>
<circle cx="891.47" cy="369.89" r="3.2" fill="#1d4ed8"/>
<circle cx="895.48" cy="369.49" r="3.2" fill="#1d4ed8"/>
<circle cx="899.49" cy="369.89" r="3.2" fill="#1d4ed8"/>
<circle cx="903.49" cy="369.08" r="3.2" fill="#1d4ed8"/>
<circle cx="907.50" cy="368.68" r="3.2" fill="#1d4ed8"/>
<circle cx="911.51" cy="368.27" r="3.2" fill="#1d4ed8"/>
<circle cx="915.51" cy="367.87" r="3.2" fill="#1d4ed8"/>
<circle cx="919.52" cy="367.06" r="3.2" fill="#1d4ed8"/>
<circle cx="923.53" cy="367.46" r="3.2" fill="#1d4ed8"/>
<circle cx="927.54" cy="367.06" r="3.2" fill="#1d4ed8"/>
<circle cx="931.54" cy="366.25" r="3.2" fill="#1d4ed8"/>
<circle cx="935.55" cy="368.27" r="3.2" fill="#1d4ed8"/>
<circle cx="939.56" cy="368.68" r="3.2" fill="#1d4ed8"/>
<circle cx="943.57" cy="368.68" r="3.2" fill="#1d4ed8"/>
<circle cx="947.57" cy="368.27" r="3.2" fill="#1d4ed8"/>
<circle cx="951.58" cy="369.08" r="3.2" fill="#1d4ed8"/>
<circle cx="955.59" cy="367.87" r="3.2" fill="#1d4ed8"/>
<circle cx="959.60" cy="367.46" r="3.2" fill="#1d4ed8"/>
<circle cx="963.60" cy="367.06" r="3.2" fill="#1d4ed8"/>
<circle cx="967.61" cy="360.18" r="3.2" fill="#1d4ed8"/>
<circle cx="971.62" cy="359.78" r="3.2" fill="#1d4ed8"/>
<circle cx="975.62" cy="359.38" r="3.2" fill="#1d4ed8"/>
<circle cx="979.63" cy="356.95" r="3.2" fill="#1d4ed8"/>
<circle cx="983.64" cy="357.35" r="3.2" fill="#1d4ed8"/>
<circle cx="987.65" cy="357.76" r="3.2" fill="#1d4ed8"/>
<circle cx="991.65" cy="355.33" r="3.2" fill="#1d4ed8"/>
<circle cx="995.66" cy="355.74" r="3.2" fill="#1d4ed8"/>
<circle cx="999.67" cy="357.35" r="3.2" fill="#1d4ed8"/>
<circle cx="1003.68" cy="355.33" r="3.2" fill="#1d4ed8"/>
<circle cx="1007.68" cy="356.14" r="3.2" fill="#1d4ed8"/>
<circle cx="1011.69" cy="355.74" r="3.2" fill="#1d4ed8"/>
<circle cx="1015.70" cy="356.14" r="3.2" fill="#1d4ed8"/>
<circle cx="1019.71" cy="354.12" r="3.2" fill="#1d4ed8"/>
<circle cx="1023.71" cy="354.93" r="3.2" fill="#1d4ed8"/>
<circle cx="1027.72" cy="356.14" r="3.2" fill="#1d4ed8"/>
<circle cx="1031.73" cy="354.52" r="3.2" fill="#1d4ed8"/>
<circle cx="1035.74" cy="353.71" r="3.2" fill="#1d4ed8"/>
<circle cx="1039.74" cy="354.12" r="3.2" fill="#1d4ed8"/>
<circle cx="1043.75" cy="354.93" r="3.2" fill="#1d4ed8"/>
<circle cx="1047.76" cy="352.90" r="3.2" fill="#1d4ed8"/>
<circle cx="1051.76" cy="353.71" r="3.2" fill="#1d4ed8"/>
<circle cx="1055.77" cy="353.31" r="3.2" fill="#1d4ed8"/>
<circle cx="1059.78" cy="353.31" r="3.2" fill="#1d4ed8"/>
<circle cx="1063.79" cy="354.52" r="3.2" fill="#1d4ed8"/>
<circle cx="1067.79" cy="352.90" r="3.2" fill="#1d4ed8"/>
<circle cx="1071.80" cy="352.50" r="3.2" fill="#1d4ed8"/>
<circle cx="1075.81" cy="352.50" r="3.2" fill="#1d4ed8"/>
<circle cx="1079.82" cy="353.31" r="3.2" fill="#1d4ed8"/>
<circle cx="1083.82" cy="352.50" r="3.2" fill="#1d4ed8"/>
<circle cx="1087.83" cy="353.71" r="3.2" fill="#1d4ed8"/>
<circle cx="1091.84" cy="354.12" r="3.2" fill="#1d4ed8"/>
<circle cx="1095.85" cy="352.50" r="3.2" fill="#1d4ed8"/>
<circle cx="1099.85" cy="352.90" r="3.2" fill="#1d4ed8"/>
<circle cx="1103.86" cy="352.50" r="3.2" fill="#1d4ed8"/>
<circle cx="1107.87" cy="352.10" r="3.2" fill="#1d4ed8"/>
<circle cx="1111.88" cy="351.69" r="3.2" fill="#1d4ed8"/>
<circle cx="1115.88" cy="352.10" r="3.2" fill="#1d4ed8"/>
<circle cx="1119.89" cy="354.12" r="3.2" fill="#1d4ed8"/>
<circle cx="1123.90" cy="352.50" r="3.2" fill="#1d4ed8"/>
<circle cx="1127.90" cy="352.10" r="3.2" fill="#1d4ed8"/>
<circle cx="1131.91" cy="352.10" r="3.2" fill="#1d4ed8"/>
<circle cx="1135.92" cy="349.67" r="3.2" fill="#1d4ed8"/>
<circle cx="1139.93" cy="349.67" r="3.2" fill="#1d4ed8"/>
<circle cx="1143.93" cy="350.88" r="3.2" fill="#1d4ed8"/>
<circle cx="1147.94" cy="351.29" r="3.2" fill="#1d4ed8"/>
<circle cx="1151.95" cy="350.48" r="3.2" fill="#1d4ed8"/>
<circle cx="1155.96" cy="352.10" r="3.2" fill="#1d4ed8"/>
<circle cx="1159.96" cy="350.48" r="3.2" fill="#1d4ed8"/>
<circle cx="1163.97" cy="350.48" r="3.2" fill="#1d4ed8"/>
<circle cx="1167.98" cy="350.48" r="3.2" fill="#1d4ed8"/>
<circle cx="1171.99" cy="350.07" r="3.2" fill="#1d4ed8"/>
<circle cx="1175.99" cy="348.46" r="3.2" fill="#1d4ed8"/>
<circle cx="1180.00" cy="351.29" r="3.2" fill="#1d4ed8"/>
<text x="635" y="695" text-anchor="middle" font-size="14" fill="#111" font-family="sans-serif">Date</text>
<text x="24" y="325" text-anchor="middle" font-size="14" fill="#111" transform="rotate(-90 24,325)" font-family="sans-serif">Passed files</text>
</svg>
