<?xml version="1.0" encoding="UTF-8"?>
<svg xmlns="http://www.w3.org/2000/svg" width="1280" height="720" viewBox="0 0 1280 720">
<rect width="100%" height="100%" fill="#ffffff"/>
<text x="640" y="30" text-anchor="middle" font-size="22" font-family="sans-serif">Roast passed files history</text>
<line x1="90" y1="600" x2="1180" y2="600" stroke="#333" stroke-width="1.5"/>
<line x1="90" y1="50" x2="90" y2="600" stroke="#333" stroke-width="1.5"/>
<line x1="90" y1="600.00" x2="1180" y2="600.00" stroke="#e5e7eb" stroke-width="1"/>
<text x="78" y="605.00" text-anchor="end" font-size="12" fill="#111" font-family="sans-serif">0</text>
<line x1="90" y1="397.79" x2="1180" y2="397.79" stroke="#e5e7eb" stroke-width="1"/>
<text x="78" y="402.79" text-anchor="end" font-size="12" fill="#111" font-family="sans-serif">500</text>
<line x1="90" y1="195.59" x2="1180" y2="195.59" stroke="#e5e7eb" stroke-width="1"/>
<text x="78" y="200.59" text-anchor="end" font-size="12" fill="#111" font-family="sans-serif">1000</text>
<line x1="90.00" y1="600" x2="90.00" y2="606" stroke="#333" stroke-width="1"/>
<text x="90.00" y="624" text-anchor="end" font-size="11" fill="#111" transform="rotate(-40 90.00,624)" font-family="sans-serif">2026-02-12</text>
<line x1="225.00" y1="600" x2="225.00" y2="606" stroke="#333" stroke-width="1"/>
<text x="225.00" y="624" text-anchor="end" font-size="11" fill="#111" transform="rotate(-40 225.00,624)" font-family="sans-serif">2026-02-18</text>
<line x1="360.00" y1="600" x2="360.00" y2="606" stroke="#333" stroke-width="1"/>
<text x="360.00" y="624" text-anchor="end" font-size="11" fill="#111" transform="rotate(-40 360.00,624)" font-family="sans-serif">2026-02-24</text>
<line x1="495.00" y1="600" x2="495.00" y2="606" stroke="#333" stroke-width="1"/>
<text x="495.00" y="624" text-anchor="end" font-size="11" fill="#111" transform="rotate(-40 495.00,624)" font-family="sans-serif">2026-02-27</text>
<line x1="630.00" y1="600" x2="630.00" y2="606" stroke="#333" stroke-width="1"/>
<text x="630.00" y="624" text-anchor="end" font-size="11" fill="#111" transform="rotate(-40 630.00,624)" font-family="sans-serif">2026-03-04</text>
<line x1="765.00" y1="600" x2="765.00" y2="606" stroke="#333" stroke-width="1"/>
<text x="765.00" y="624" text-anchor="end" font-size="11" fill="#111" transform="rotate(-40 765.00,624)" font-family="sans-serif">2026-03-06</text>
<line x1="900.00" y1="600" x2="900.00" y2="606" stroke="#333" stroke-width="1"/>
<text x="900.00" y="624" text-anchor="end" font-size="11" fill="#111" transform="rotate(-40 900.00,624)" font-family="sans-serif">2026-03-11</text>
<line x1="1035.00" y1="600" x2="1035.00" y2="606" stroke="#333" stroke-width="1"/>
<text x="1035.00" y="624" text-anchor="end" font-size="11" fill="#111" transform="rotate(-40 1035.00,624)" font-family="sans-serif">2026-03-19</text>
<line x1="1170.00" y1="600" x2="1170.00" y2="606" stroke="#333" stroke-width="1"/>
<text x="1170.00" y="624" text-anchor="end" font-size="11" fill="#111" transform="rotate(-40 1170.00,624)" font-family="sans-serif">2026-03-24</text>
<line x1="1180.00" y1="600" x2="1180.00" y2="606" stroke="#333" stroke-width="1"/>
<text x="1180.00" y="624" text-anchor="end" font-size="11" fill="#111" transform="rotate(-40 1180.00,624)" font-family="sans-serif">2026-03-24</text>
<line x1="90" y1="75.88" x2="1180" y2="75.88" stroke="#dc2626" stroke-width="1.5" stroke-dasharray="8,4"/>
<text x="1184" y="79.88" font-size="12" fill="#dc2626" font-family="sans-serif">Goal: 1296</text>
<polyline fill="none" stroke="#2563eb" stroke-width="3" points="90.00,540.55 92.50,538.53 95.00,536.91 97.50,534.49 100.00,534.49 102.50,533.27 105.00,532.46 107.50,532.87 110.00,532.06 112.50,532.46 115.00,532.06 117.50,568.46 120.00,568.46 122.50,566.43 125.00,545.00 127.50,545.00 130.00,544.19 132.50,543.79 135.00,543.79 137.50,543.38 140.00,541.76 142.50,541.36 145.00,540.96 147.50,540.96 150.00,539.34 152.50,539.34 155.00,556.73 157.50,556.73 160.00,555.51 162.50,551.07 165.00,538.93 167.50,538.93 170.00,538.93 172.50,538.12 175.00,536.91 177.50,536.91 180.00,536.51 182.50,536.51 185.00,556.73 187.50,556.73 190.00,556.73 192.50,556.73 195.00,535.29 197.50,535.29 200.00,535.29 202.50,535.29 205.00,534.49 207.50,534.08 210.00,533.68 212.50,532.87 215.00,532.06 217.50,532.06 220.00,531.25 222.50,530.85 225.00,530.44 227.50,530.04 230.00,530.04 232.50,529.23 235.00,529.23 237.50,529.23 240.00,528.42 242.50,528.42 245.00,527.61 247.50,527.21 250.00,526.80 252.50,526.40 255.00,525.18 257.50,523.57 260.00,523.57 262.50,523.16 265.00,522.76 267.50,522.35 270.00,521.54 272.50,519.52 275.00,517.50 277.50,517.50 280.00,517.50 282.50,517.50 285.00,517.50 287.50,517.50 290.00,517.10 292.50,516.69 295.00,515.48 297.50,515.07 300.00,514.67 302.50,513.86 305.00,514.26 307.50,512.24 310.00,511.84 312.50,511.84 315.00,511.03 317.50,509.82 320.00,507.79 322.50,506.99 325.00,506.58 327.50,509.41 330.00,509.01 332.50,504.96 335.00,504.56 337.50,504.15 340.00,504.56 342.50,503.75 345.00,503.75 347.50,503.35 350.00,499.30 352.50,496.47 355.00,490.00 357.50,484.34 360.00,481.10 362.50,480.29 365.00,480.70 367.50,460.88 370.00,459.26 372.50,458.05 375.00,456.03 377.50,456.03 380.00,454.41 382.50,450.77 385.00,444.30 387.50,443.90 390.00,600.00 392.50,441.88 395.00,440.66 397.50,439.45 400.00,439.04 402.50,438.64 405.00,437.83 407.50,436.62 410.00,436.62 412.50,434.60 415.00,432.17 417.50,429.34 420.00,428.93 422.50,428.53 425.00,427.72 427.50,426.91 430.00,426.10 432.50,426.10 435.00,426.10 437.50,419.63 440.00,419.23 442.50,418.42 445.00,418.01 447.50,417.61 450.00,417.61 452.50,417.61 455.00,417.21 457.50,417.21 460.00,413.57 462.50,411.95 465.00,412.76 467.50,410.74 470.00,410.74 472.50,410.33 475.00,410.33 477.50,410.33 480.00,409.93 482.50,409.93 485.00,409.93 487.50,409.52 490.00,409.52 492.50,409.12 495.00,409.52 497.50,409.12 500.00,407.50 502.50,407.10 505.00,403.05 507.50,399.82 510.00,400.22 512.50,400.62 515.00,400.62 517.50,399.41 520.00,392.94 522.50,391.32 525.00,389.30 527.50,389.30 530.00,388.49 532.50,375.15 535.00,374.74 537.50,374.74 540.00,374.74 542.50,374.74 545.00,374.34 547.50,374.34 550.00,374.34 552.50,374.34 555.00,374.34 557.50,373.93 560.00,373.12 562.50,372.72 565.00,373.53 567.50,435.81 570.00,372.32 572.50,372.72 575.00,371.91 577.50,371.91 580.00,372.32 582.50,371.10 585.00,369.89 587.50,369.89 590.00,369.89 592.50,369.49 595.00,369.89 597.50,369.08 600.00,368.68 602.50,368.27 605.00,367.87 607.50,367.06 610.00,367.46 612.50,367.06 615.00,366.25 617.50,368.27 620.00,368.68 622.50,368.68 625.00,368.27 627.50,369.08 630.00,367.87 632.50,367.46 635.00,367.06 637.50,360.18 640.00,359.78 642.50,359.38 645.00,356.95 647.50,357.35 650.00,357.76 652.50,355.33 655.00,355.74 657.50,357.35 660.00,355.33 662.50,356.14 665.00,355.74 667.50,356.14 670.00,354.12 672.50,354.93 675.00,356.14 677.50,354.52 680.00,353.71 682.50,354.12 685.00,354.93 687.50,352.90 690.00,353.71 692.50,353.31 695.00,353.31 697.50,354.52 700.00,352.90 702.50,352.50 705.00,352.50 707.50,353.31 710.00,352.50 712.50,353.71 715.00,354.12 717.50,352.50 720.00,352.90 722.50,352.50 725.00,352.10 727.50,351.69 730.00,352.10 732.50,354.12 735.00,352.50 737.50,352.10 740.00,352.10 742.50,349.67 745.00,349.67 747.50,350.88 750.00,351.29 752.50,350.48 755.00,352.10 757.50,350.48 760.00,350.48 762.50,350.48 765.00,350.07 767.50,348.46 770.00,351.29 772.50,349.67 775.00,351.29 777.50,349.67 780.00,348.86 782.50,348.46 785.00,348.46 787.50,347.24 790.00,348.86 792.50,346.84 795.00,348.46 797.50,348.86 800.00,346.84 802.50,349.26 805.00,348.05 807.50,349.26 810.00,349.26 812.50,350.48 815.00,352.90 817.50,349.67 820.00,348.46 822.50,345.62 825.00,344.82 827.50,344.41 830.00,342.39 832.50,341.18 835.00,341.58 837.50,339.15 840.00,338.35 842.50,337.54 845.00,336.73 847.50,335.92 850.00,337.54 852.50,338.35 855.00,337.54 857.50,337.54 860.00,337.54 862.50,333.09 865.00,333.90 867.50,335.92 870.00,336.73 872.50,335.51 875.00,332.28 877.50,331.47 880.00,331.07 882.50,331.47 885.00,331.07 887.50,331.07 890.00,331.07 892.50,331.07 895.00,331.07 897.50,331.07 900.00,331.07 902.50,331.07 905.00,331.07 907.50,331.07 910.00,331.47 912.50,331.88 915.00,331.07 917.50,331.47 920.00,331.07 922.50,331.47 925.00,331.07 927.50,324.19 930.00,324.19 932.50,318.93 935.00,316.51 937.50,310.44 940.00,308.01 942.50,600.00 945.00,301.54 947.50,290.22 950.00,287.79 952.50,286.18 955.00,285.77 957.50,285.77 960.00,285.77 962.50,286.18 965.00,285.77 967.50,285.77 970.00,285.77 972.50,283.35 975.00,282.94 977.50,282.94 980.00,283.35 982.50,282.94 985.00,282.94 987.50,283.75 990.00,282.13 992.50,282.13 995.00,282.54 997.50,282.13 1000.00,282.54 1002.50,282.94 1005.00,281.73 1007.50,282.54 1010.00,281.73 1012.50,282.54 1015.00,282.13 1017.50,282.13 1020.00,281.73 1022.50,281.73 1025.00,281.32 1027.50,281.73 1030.00,282.13 1032.50,281.32 1035.00,281.32 1037.50,282.54 1040.00,282.13 1042.50,281.32 1045.00,281.32 1047.50,281.32 1050.00,282.54 1052.50,282.13 1055.00,281.32 1057.50,282.13 1060.00,281.73 1062.50,282.13 1065.00,280.11 1067.50,280.11 1070.00,280.51 1072.50,279.71 1075.00,280.11 1077.50,280.51 1080.00,279.71 1082.50,280.11 1085.00,280.11 1087.50,279.30 1090.00,278.90 1092.50,278.90 1095.00,280.51 1097.50,279.30 1100.00,278.09 1102.50,278.49 1105.00,278.49 1107.50,277.28 1110.00,277.68 1112.50,277.68 1115.00,278.09 1117.50,277.28 1120.00,600.00 1122.50,278.90 1125.00,279.30 1127.50,278.90 1130.00,278.49 1132.50,278.49 1135.00,278.49 1137.50,278.49 1140.00,278.49 1142.50,278.49 1145.00,278.49 1147.50,278.49 1150.00,278.49 1152.50,278.49 1155.00,278.49 1157.50,278.49 1160.00,600.00 1162.50,600.00 1165.00,254.63 1167.50,600.00 1170.00,245.74 1172.50,245.74 1175.00,246.14 1177.50,245.74 1180.00,245.74"/>
<circle cx="90.00" cy="540.55" r="3.2" fill="#1d4ed8"/>
<circle cx="92.50" cy="538.53" r="3.2" fill="#1d4ed8"/>
<circle cx="95.00" cy="536.91" r="3.2" fill="#1d4ed8"/>
<circle cx="97.50" cy="534.49" r="3.2" fill="#1d4ed8"/>
<circle cx="100.00" cy="534.49" r="3.2" fill="#1d4ed8"/>
<circle cx="102.50" cy="533.27" r="3.2" fill="#1d4ed8"/>
<circle cx="105.00" cy="532.46" r="3.2" fill="#1d4ed8"/>
<circle cx="107.50" cy="532.87" r="3.2" fill="#1d4ed8"/>
<circle cx="110.00" cy="532.06" r="3.2" fill="#1d4ed8"/>
<circle cx="112.50" cy="532.46" r="3.2" fill="#1d4ed8"/>
<circle cx="115.00" cy="532.06" r="3.2" fill="#1d4ed8"/>
<circle cx="117.50" cy="568.46" r="3.2" fill="#1d4ed8"/>
<circle cx="120.00" cy="568.46" r="3.2" fill="#1d4ed8"/>
<circle cx="122.50" cy="566.43" r="3.2" fill="#1d4ed8"/>
<circle cx="125.00" cy="545.00" r="3.2" fill="#1d4ed8"/>
<circle cx="127.50" cy="545.00" r="3.2" fill="#1d4ed8"/>
<circle cx="130.00" cy="544.19" r="3.2" fill="#1d4ed8"/>
<circle cx="132.50" cy="543.79" r="3.2" fill="#1d4ed8"/>
<circle cx="135.00" cy="543.79" r="3.2" fill="#1d4ed8"/>
<circle cx="137.50" cy="543.38" r="3.2" fill="#1d4ed8"/>
<circle cx="140.00" cy="541.76" r="3.2" fill="#1d4ed8"/>
<circle cx="142.50" cy="541.36" r="3.2" fill="#1d4ed8"/>
<circle cx="145.00" cy="540.96" r="3.2" fill="#1d4ed8"/>
<circle cx="147.50" cy="540.96" r="3.2" fill="#1d4ed8"/>
<circle cx="150.00" cy="539.34" r="3.2" fill="#1d4ed8"/>
<circle cx="152.50" cy="539.34" r="3.2" fill="#1d4ed8"/>
<circle cx="155.00" cy="556.73" r="3.2" fill="#1d4ed8"/>
<circle cx="157.50" cy="556.73" r="3.2" fill="#1d4ed8"/>
<circle cx="160.00" cy="555.51" r="3.2" fill="#1d4ed8"/>
<circle cx="162.50" cy="551.07" r="3.2" fill="#1d4ed8"/>
<circle cx="165.00" cy="538.93" r="3.2" fill="#1d4ed8"/>
<circle cx="167.50" cy="538.93" r="3.2" fill="#1d4ed8"/>
<circle cx="170.00" cy="538.93" r="3.2" fill="#1d4ed8"/>
<circle cx="172.50" cy="538.12" r="3.2" fill="#1d4ed8"/>
<circle cx="175.00" cy="536.91" r="3.2" fill="#1d4ed8"/>
<circle cx="177.50" cy="536.91" r="3.2" fill="#1d4ed8"/>
<circle cx="180.00" cy="536.51" r="3.2" fill="#1d4ed8"/>
<circle cx="182.50" cy="536.51" r="3.2" fill="#1d4ed8"/>
<circle cx="185.00" cy="556.73" r="3.2" fill="#1d4ed8"/>
<circle cx="187.50" cy="556.73" r="3.2" fill="#1d4ed8"/>
<circle cx="190.00" cy="556.73" r="3.2" fill="#1d4ed8"/>
<circle cx="192.50" cy="556.73" r="3.2" fill="#1d4ed8"/>
<circle cx="195.00" cy="535.29" r="3.2" fill="#1d4ed8"/>
<circle cx="197.50" cy="535.29" r="3.2" fill="#1d4ed8"/>
<circle cx="200.00" cy="535.29" r="3.2" fill="#1d4ed8"/>
<circle cx="202.50" cy="535.29" r="3.2" fill="#1d4ed8"/>
<circle cx="205.00" cy="534.49" r="3.2" fill="#1d4ed8"/>
<circle cx="207.50" cy="534.08" r="3.2" fill="#1d4ed8"/>
<circle cx="210.00" cy="533.68" r="3.2" fill="#1d4ed8"/>
<circle cx="212.50" cy="532.87" r="3.2" fill="#1d4ed8"/>
<circle cx="215.00" cy="532.06" r="3.2" fill="#1d4ed8"/>
<circle cx="217.50" cy="532.06" r="3.2" fill="#1d4ed8"/>
<circle cx="220.00" cy="531.25" r="3.2" fill="#1d4ed8"/>
<circle cx="222.50" cy="530.85" r="3.2" fill="#1d4ed8"/>
<circle cx="225.00" cy="530.44" r="3.2" fill="#1d4ed8"/>
<circle cx="227.50" cy="530.04" r="3.2" fill="#1d4ed8"/>
<circle cx="230.00" cy="530.04" r="3.2" fill="#1d4ed8"/>
<circle cx="232.50" cy="529.23" r="3.2" fill="#1d4ed8"/>
<circle cx="235.00" cy="529.23" r="3.2" fill="#1d4ed8"/>
<circle cx="237.50" cy="529.23" r="3.2" fill="#1d4ed8"/>
<circle cx="240.00" cy="528.42" r="3.2" fill="#1d4ed8"/>
<circle cx="242.50" cy="528.42" r="3.2" fill="#1d4ed8"/>
<circle cx="245.00" cy="527.61" r="3.2" fill="#1d4ed8"/>
<circle cx="247.50" cy="527.21" r="3.2" fill="#1d4ed8"/>
<circle cx="250.00" cy="526.80" r="3.2" fill="#1d4ed8"/>
<circle cx="252.50" cy="526.40" r="3.2" fill="#1d4ed8"/>
<circle cx="255.00" cy="525.18" r="3.2" fill="#1d4ed8"/>
<circle cx="257.50" cy="523.57" r="3.2" fill="#1d4ed8"/>
<circle cx="260.00" cy="523.57" r="3.2" fill="#1d4ed8"/>
<circle cx="262.50" cy="523.16" r="3.2" fill="#1d4ed8"/>
<circle cx="265.00" cy="522.76" r="3.2" fill="#1d4ed8"/>
<circle cx="267.50" cy="522.35" r="3.2" fill="#1d4ed8"/>
<circle cx="270.00" cy="521.54" r="3.2" fill="#1d4ed8"/>
<circle cx="272.50" cy="519.52" r="3.2" fill="#1d4ed8"/>
<circle cx="275.00" cy="517.50" r="3.2" fill="#1d4ed8"/>
<circle cx="277.50" cy="517.50" r="3.2" fill="#1d4ed8"/>
<circle cx="280.00" cy="517.50" r="3.2" fill="#1d4ed8"/>
<circle cx="282.50" cy="517.50" r="3.2" fill="#1d4ed8"/>
<circle cx="285.00" cy="517.50" r="3.2" fill="#1d4ed8"/>
<circle cx="287.50" cy="517.50" r="3.2" fill="#1d4ed8"/>
<circle cx="290.00" cy="517.10" r="3.2" fill="#1d4ed8"/>
<circle cx="292.50" cy="516.69" r="3.2" fill="#1d4ed8"/>
<circle cx="295.00" cy="515.48" r="3.2" fill="#1d4ed8"/>
<circle cx="297.50" cy="515.07" r="3.2" fill="#1d4ed8"/>
<circle cx="300.00" cy="514.67" r="3.2" fill="#1d4ed8"/>
<circle cx="302.50" cy="513.86" r="3.2" fill="#1d4ed8"/>
<circle cx="305.00" cy="514.26" r="3.2" fill="#1d4ed8"/>
<circle cx="307.50" cy="512.24" r="3.2" fill="#1d4ed8"/>
<circle cx="310.00" cy="511.84" r="3.2" fill="#1d4ed8"/>
<circle cx="312.50" cy="511.84" r="3.2" fill="#1d4ed8"/>
<circle cx="315.00" cy="511.03" r="3.2" fill="#1d4ed8"/>
<circle cx="317.50" cy="509.82" r="3.2" fill="#1d4ed8"/>
<circle cx="320.00" cy="507.79" r="3.2" fill="#1d4ed8"/>
<circle cx="322.50" cy="506.99" r="3.2" fill="#1d4ed8"/>
<circle cx="325.00" cy="506.58" r="3.2" fill="#1d4ed8"/>
<circle cx="327.50" cy="509.41" r="3.2" fill="#1d4ed8"/>
<circle cx="330.00" cy="509.01" r="3.2" fill="#1d4ed8"/>
<circle cx="332.50" cy="504.96" r="3.2" fill="#1d4ed8"/>
<circle cx="335.00" cy="504.56" r="3.2" fill="#1d4ed8"/>
<circle cx="337.50" cy="504.15" r="3.2" fill="#1d4ed8"/>
<circle cx="340.00" cy="504.56" r="3.2" fill="#1d4ed8"/>
<circle cx="342.50" cy="503.75" r="3.2" fill="#1d4ed8"/>
<circle cx="345.00" cy="503.75" r="3.2" fill="#1d4ed8"/>
<circle cx="347.50" cy="503.35" r="3.2" fill="#1d4ed8"/>
<circle cx="350.00" cy="499.30" r="3.2" fill="#1d4ed8"/>
<circle cx="352.50" cy="496.47" r="3.2" fill="#1d4ed8"/>
<circle cx="355.00" cy="490.00" r="3.2" fill="#1d4ed8"/>
<circle cx="357.50" cy="484.34" r="3.2" fill="#1d4ed8"/>
<circle cx="360.00" cy="481.10" r="3.2" fill="#1d4ed8"/>
<circle cx="362.50" cy="480.29" r="3.2" fill="#1d4ed8"/>
<circle cx="365.00" cy="480.70" r="3.2" fill="#1d4ed8"/>
<circle cx="367.50" cy="460.88" r="3.2" fill="#1d4ed8"/>
<circle cx="370.00" cy="459.26" r="3.2" fill="#1d4ed8"/>
<circle cx="372.50" cy="458.05" r="3.2" fill="#1d4ed8"/>
<circle cx="375.00" cy="456.03" r="3.2" fill="#1d4ed8"/>
<circle cx="377.50" cy="456.03" r="3.2" fill="#1d4ed8"/>
<circle cx="380.00" cy="454.41" r="3.2" fill="#1d4ed8"/>
<circle cx="382.50" cy="450.77" r="3.2" fill="#1d4ed8"/>
<circle cx="385.00" cy="444.30" r="3.2" fill="#1d4ed8"/>
<circle cx="387.50" cy="443.90" r="3.2" fill="#1d4ed8"/>
<circle cx="390.00" cy="600.00" r="3.2" fill="#1d4ed8"/>
<circle cx="392.50" cy="441.88" r="3.2" fill="#1d4ed8"/>
<circle cx="395.00" cy="440.66" r="3.2" fill="#1d4ed8"/>
<circle cx="397.50" cy="439.45" r="3.2" fill="#1d4ed8"/>
<circle cx="400.00" cy="439.04" r="3.2" fill="#1d4ed8"/>
<circle cx="402.50" cy="438.64" r="3.2" fill="#1d4ed8"/>
<circle cx="405.00" cy="437.83" r="3.2" fill="#1d4ed8"/>
<circle cx="407.50" cy="436.62" r="3.2" fill="#1d4ed8"/>
<circle cx="410.00" cy="436.62" r="3.2" fill="#1d4ed8"/>
<circle cx="412.50" cy="434.60" r="3.2" fill="#1d4ed8"/>
<circle cx="415.00" cy="432.17" r="3.2" fill="#1d4ed8"/>
<circle cx="417.50" cy="429.34" r="3.2" fill="#1d4ed8"/>
<circle cx="420.00" cy="428.93" r="3.2" fill="#1d4ed8"/>
<circle cx="422.50" cy="428.53" r="3.2" fill="#1d4ed8"/>
<circle cx="425.00" cy="427.72" r="3.2" fill="#1d4ed8"/>
<circle cx="427.50" cy="426.91" r="3.2" fill="#1d4ed8"/>
<circle cx="430.00" cy="426.10" r="3.2" fill="#1d4ed8"/>
<circle cx="432.50" cy="426.10" r="3.2" fill="#1d4ed8"/>
<circle cx="435.00" cy="426.10" r="3.2" fill="#1d4ed8"/>
<circle cx="437.50" cy="419.63" r="3.2" fill="#1d4ed8"/>
<circle cx="440.00" cy="419.23" r="3.2" fill="#1d4ed8"/>
<circle cx="442.50" cy="418.42" r="3.2" fill="#1d4ed8"/>
<circle cx="445.00" cy="418.01" r="3.2" fill="#1d4ed8"/>
<circle cx="447.50" cy="417.61" r="3.2" fill="#1d4ed8"/>
<circle cx="450.00" cy="417.61" r="3.2" fill="#1d4ed8"/>
<circle cx="452.50" cy="417.61" r="3.2" fill="#1d4ed8"/>
<circle cx="455.00" cy="417.21" r="3.2" fill="#1d4ed8"/>
<circle cx="457.50" cy="417.21" r="3.2" fill="#1d4ed8"/>
<circle cx="460.00" cy="413.57" r="3.2" fill="#1d4ed8"/>
<circle cx="462.50" cy="411.95" r="3.2" fill="#1d4ed8"/>
<circle cx="465.00" cy="412.76" r="3.2" fill="#1d4ed8"/>
<circle cx="467.50" cy="410.74" r="3.2" fill="#1d4ed8"/>
<circle cx="470.00" cy="410.74" r="3.2" fill="#1d4ed8"/>
<circle cx="472.50" cy="410.33" r="3.2" fill="#1d4ed8"/>
<circle cx="475.00" cy="410.33" r="3.2" fill="#1d4ed8"/>
<circle cx="477.50" cy="410.33" r="3.2" fill="#1d4ed8"/>
<circle cx="480.00" cy="409.93" r="3.2" fill="#1d4ed8"/>
<circle cx="482.50" cy="409.93" r="3.2" fill="#1d4ed8"/>
<circle cx="485.00" cy="409.93" r="3.2" fill="#1d4ed8"/>
<circle cx="487.50" cy="409.52" r="3.2" fill="#1d4ed8"/>
<circle cx="490.00" cy="409.52" r="3.2" fill="#1d4ed8"/>
<circle cx="492.50" cy="409.12" r="3.2" fill="#1d4ed8"/>
<circle cx="495.00" cy="409.52" r="3.2" fill="#1d4ed8"/>
<circle cx="497.50" cy="409.12" r="3.2" fill="#1d4ed8"/>
<circle cx="500.00" cy="407.50" r="3.2" fill="#1d4ed8"/>
<circle cx="502.50" cy="407.10" r="3.2" fill="#1d4ed8"/>
<circle cx="505.00" cy="403.05" r="3.2" fill="#1d4ed8"/>
<circle cx="507.50" cy="399.82" r="3.2" fill="#1d4ed8"/>
<circle cx="510.00" cy="400.22" r="3.2" fill="#1d4ed8"/>
<circle cx="512.50" cy="400.62" r="3.2" fill="#1d4ed8"/>
<circle cx="515.00" cy="400.62" r="3.2" fill="#1d4ed8"/>
<circle cx="517.50" cy="399.41" r="3.2" fill="#1d4ed8"/>
<circle cx="520.00" cy="392.94" r="3.2" fill="#1d4ed8"/>
<circle cx="522.50" cy="391.32" r="3.2" fill="#1d4ed8"/>
<circle cx="525.00" cy="389.30" r="3.2" fill="#1d4ed8"/>
<circle cx="527.50" cy="389.30" r="3.2" fill="#1d4ed8"/>
<circle cx="530.00" cy="388.49" r="3.2" fill="#1d4ed8"/>
<circle cx="532.50" cy="375.15" r="3.2" fill="#1d4ed8"/>
<circle cx="535.00" cy="374.74" r="3.2" fill="#1d4ed8"/>
<circle cx="537.50" cy="374.74" r="3.2" fill="#1d4ed8"/>
<circle cx="540.00" cy="374.74" r="3.2" fill="#1d4ed8"/>
<circle cx="542.50" cy="374.74" r="3.2" fill="#1d4ed8"/>
<circle cx="545.00" cy="374.34" r="3.2" fill="#1d4ed8"/>
<circle cx="547.50" cy="374.34" r="3.2" fill="#1d4ed8"/>
<circle cx="550.00" cy="374.34" r="3.2" fill="#1d4ed8"/>
<circle cx="552.50" cy="374.34" r="3.2" fill="#1d4ed8"/>
<circle cx="555.00" cy="374.34" r="3.2" fill="#1d4ed8"/>
<circle cx="557.50" cy="373.93" r="3.2" fill="#1d4ed8"/>
<circle cx="560.00" cy="373.12" r="3.2" fill="#1d4ed8"/>
<circle cx="562.50" cy="372.72" r="3.2" fill="#1d4ed8"/>
<circle cx="565.00" cy="373.53" r="3.2" fill="#1d4ed8"/>
<circle cx="567.50" cy="435.81" r="3.2" fill="#1d4ed8"/>
<circle cx="570.00" cy="372.32" r="3.2" fill="#1d4ed8"/>
<circle cx="572.50" cy="372.72" r="3.2" fill="#1d4ed8"/>
<circle cx="575.00" cy="371.91" r="3.2" fill="#1d4ed8"/>
<circle cx="577.50" cy="371.91" r="3.2" fill="#1d4ed8"/>
<circle cx="580.00" cy="372.32" r="3.2" fill="#1d4ed8"/>
<circle cx="582.50" cy="371.10" r="3.2" fill="#1d4ed8"/>
<circle cx="585.00" cy="369.89" r="3.2" fill="#1d4ed8"/>
<circle cx="587.50" cy="369.89" r="3.2" fill="#1d4ed8"/>
<circle cx="590.00" cy="369.89" r="3.2" fill="#1d4ed8"/>
<circle cx="592.50" cy="369.49" r="3.2" fill="#1d4ed8"/>
<circle cx="595.00" cy="369.89" r="3.2" fill="#1d4ed8"/>
<circle cx="597.50" cy="369.08" r="3.2" fill="#1d4ed8"/>
<circle cx="600.00" cy="368.68" r="3.2" fill="#1d4ed8"/>
<circle cx="602.50" cy="368.27" r="3.2" fill="#1d4ed8"/>
<circle cx="605.00" cy="367.87" r="3.2" fill="#1d4ed8"/>
<circle cx="607.50" cy="367.06" r="3.2" fill="#1d4ed8"/>
<circle cx="610.00" cy="367.46" r="3.2" fill="#1d4ed8"/>
<circle cx="612.50" cy="367.06" r="3.2" fill="#1d4ed8"/>
<circle cx="615.00" cy="366.25" r="3.2" fill="#1d4ed8"/>
<circle cx="617.50" cy="368.27" r="3.2" fill="#1d4ed8"/>
<circle cx="620.00" cy="368.68" r="3.2" fill="#1d4ed8"/>
<circle cx="622.50" cy="368.68" r="3.2" fill="#1d4ed8"/>
<circle cx="625.00" cy="368.27" r="3.2" fill="#1d4ed8"/>
<circle cx="627.50" cy="369.08" r="3.2" fill="#1d4ed8"/>
<circle cx="630.00" cy="367.87" r="3.2" fill="#1d4ed8"/>
<circle cx="632.50" cy="367.46" r="3.2" fill="#1d4ed8"/>
<circle cx="635.00" cy="367.06" r="3.2" fill="#1d4ed8"/>
<circle cx="637.50" cy="360.18" r="3.2" fill="#1d4ed8"/>
<circle cx="640.00" cy="359.78" r="3.2" fill="#1d4ed8"/>
<circle cx="642.50" cy="359.38" r="3.2" fill="#1d4ed8"/>
<circle cx="645.00" cy="356.95" r="3.2" fill="#1d4ed8"/>
<circle cx="647.50" cy="357.35" r="3.2" fill="#1d4ed8"/>
<circle cx="650.00" cy="357.76" r="3.2" fill="#1d4ed8"/>
<circle cx="652.50" cy="355.33" r="3.2" fill="#1d4ed8"/>
<circle cx="655.00" cy="355.74" r="3.2" fill="#1d4ed8"/>
<circle cx="657.50" cy="357.35" r="3.2" fill="#1d4ed8"/>
<circle cx="660.00" cy="355.33" r="3.2" fill="#1d4ed8"/>
<circle cx="662.50" cy="356.14" r="3.2" fill="#1d4ed8"/>
<circle cx="665.00" cy="355.74" r="3.2" fill="#1d4ed8"/>
<circle cx="667.50" cy="356.14" r="3.2" fill="#1d4ed8"/>
<circle cx="670.00" cy="354.12" r="3.2" fill="#1d4ed8"/>
<circle cx="672.50" cy="354.93" r="3.2" fill="#1d4ed8"/>
<circle cx="675.00" cy="356.14" r="3.2" fill="#1d4ed8"/>
<circle cx="677.50" cy="354.52" r="3.2" fill="#1d4ed8"/>
<circle cx="680.00" cy="353.71" r="3.2" fill="#1d4ed8"/>
<circle cx="682.50" cy="354.12" r="3.2" fill="#1d4ed8"/>
<circle cx="685.00" cy="354.93" r="3.2" fill="#1d4ed8"/>
<circle cx="687.50" cy="352.90" r="3.2" fill="#1d4ed8"/>
<circle cx="690.00" cy="353.71" r="3.2" fill="#1d4ed8"/>
<circle cx="692.50" cy="353.31" r="3.2" fill="#1d4ed8"/>
<circle cx="695.00" cy="353.31" r="3.2" fill="#1d4ed8"/>
<circle cx="697.50" cy="354.52" r="3.2" fill="#1d4ed8"/>
<circle cx="700.00" cy="352.90" r="3.2" fill="#1d4ed8"/>
<circle cx="702.50" cy="352.50" r="3.2" fill="#1d4ed8"/>
<circle cx="705.00" cy="352.50" r="3.2" fill="#1d4ed8"/>
<circle cx="707.50" cy="353.31" r="3.2" fill="#1d4ed8"/>
<circle cx="710.00" cy="352.50" r="3.2" fill="#1d4ed8"/>
<circle cx="712.50" cy="353.71" r="3.2" fill="#1d4ed8"/>
<circle cx="715.00" cy="354.12" r="3.2" fill="#1d4ed8"/>
<circle cx="717.50" cy="352.50" r="3.2" fill="#1d4ed8"/>
<circle cx="720.00" cy="352.90" r="3.2" fill="#1d4ed8"/>
<circle cx="722.50" cy="352.50" r="3.2" fill="#1d4ed8"/>
<circle cx="725.00" cy="352.10" r="3.2" fill="#1d4ed8"/>
<circle cx="727.50" cy="351.69" r="3.2" fill="#1d4ed8"/>
<circle cx="730.00" cy="352.10" r="3.2" fill="#1d4ed8"/>
<circle cx="732.50" cy="354.12" r="3.2" fill="#1d4ed8"/>
<circle cx="735.00" cy="352.50" r="3.2" fill="#1d4ed8"/>
<circle cx="737.50" cy="352.10" r="3.2" fill="#1d4ed8"/>
<circle cx="740.00" cy="352.10" r="3.2" fill="#1d4ed8"/>
<circle cx="742.50" cy="349.67" r="3.2" fill="#1d4ed8"/>
<circle cx="745.00" cy="349.67" r="3.2" fill="#1d4ed8"/>
<circle cx="747.50" cy="350.88" r="3.2" fill="#1d4ed8"/>
<circle cx="750.00" cy="351.29" r="3.2" fill="#1d4ed8"/>
<circle cx="752.50" cy="350.48" r="3.2" fill="#1d4ed8"/>
<circle cx="755.00" cy="352.10" r="3.2" fill="#1d4ed8"/>
<circle cx="757.50" cy="350.48" r="3.2" fill="#1d4ed8"/>
<circle cx="760.00" cy="350.48" r="3.2" fill="#1d4ed8"/>
<circle cx="762.50" cy="350.48" r="3.2" fill="#1d4ed8"/>
<circle cx="765.00" cy="350.07" r="3.2" fill="#1d4ed8"/>
<circle cx="767.50" cy="348.46" r="3.2" fill="#1d4ed8"/>
<circle cx="770.00" cy="351.29" r="3.2" fill="#1d4ed8"/>
<circle cx="772.50" cy="349.67" r="3.2" fill="#1d4ed8"/>
<circle cx="775.00" cy="351.29" r="3.2" fill="#1d4ed8"/>
<circle cx="777.50" cy="349.67" r="3.2" fill="#1d4ed8"/>
<circle cx="780.00" cy="348.86" r="3.2" fill="#1d4ed8"/>
<circle cx="782.50" cy="348.46" r="3.2" fill="#1d4ed8"/>
<circle cx="785.00" cy="348.46" r="3.2" fill="#1d4ed8"/>
<circle cx="787.50" cy="347.24" r="3.2" fill="#1d4ed8"/>
<circle cx="790.00" cy="348.86" r="3.2" fill="#1d4ed8"/>
<circle cx="792.50" cy="346.84" r="3.2" fill="#1d4ed8"/>
<circle cx="795.00" cy="348.46" r="3.2" fill="#1d4ed8"/>
<circle cx="797.50" cy="348.86" r="3.2" fill="#1d4ed8"/>
<circle cx="800.00" cy="346.84" r="3.2" fill="#1d4ed8"/>
<circle cx="802.50" cy="349.26" r="3.2" fill="#1d4ed8"/>
<circle cx="805.00" cy="348.05" r="3.2" fill="#1d4ed8"/>
<circle cx="807.50" cy="349.26" r="3.2" fill="#1d4ed8"/>
<circle cx="810.00" cy="349.26" r="3.2" fill="#1d4ed8"/>
<circle cx="812.50" cy="350.48" r="3.2" fill="#1d4ed8"/>
<circle cx="815.00" cy="352.90" r="3.2" fill="#1d4ed8"/>
<circle cx="817.50" cy="349.67" r="3.2" fill="#1d4ed8"/>
<circle cx="820.00" cy="348.46" r="3.2" fill="#1d4ed8"/>
<circle cx="822.50" cy="345.62" r="3.2" fill="#1d4ed8"/>
<circle cx="825.00" cy="344.82" r="3.2" fill="#1d4ed8"/>
<circle cx="827.50" cy="344.41" r="3.2" fill="#1d4ed8"/>
<circle cx="830.00" cy="342.39" r="3.2" fill="#1d4ed8"/>
<circle cx="832.50" cy="341.18" r="3.2" fill="#1d4ed8"/>
<circle cx="835.00" cy="341.58" r="3.2" fill="#1d4ed8"/>
<circle cx="837.50" cy="339.15" r="3.2" fill="#1d4ed8"/>
<circle cx="840.00" cy="338.35" r="3.2" fill="#1d4ed8"/>
<circle cx="842.50" cy="337.54" r="3.2" fill="#1d4ed8"/>
<circle cx="845.00" cy="336.73" r="3.2" fill="#1d4ed8"/>
<circle cx="847.50" cy="335.92" r="3.2" fill="#1d4ed8"/>
<circle cx="850.00" cy="337.54" r="3.2" fill="#1d4ed8"/>
<circle cx="852.50" cy="338.35" r="3.2" fill="#1d4ed8"/>
<circle cx="855.00" cy="337.54" r="3.2" fill="#1d4ed8"/>
<circle cx="857.50" cy="337.54" r="3.2" fill="#1d4ed8"/>
<circle cx="860.00" cy="337.54" r="3.2" fill="#1d4ed8"/>
<circle cx="862.50" cy="333.09" r="3.2" fill="#1d4ed8"/>
<circle cx="865.00" cy="333.90" r="3.2" fill="#1d4ed8"/>
<circle cx="867.50" cy="335.92" r="3.2" fill="#1d4ed8"/>
<circle cx="870.00" cy="336.73" r="3.2" fill="#1d4ed8"/>
<circle cx="872.50" cy="335.51" r="3.2" fill="#1d4ed8"/>
<circle cx="875.00" cy="332.28" r="3.2" fill="#1d4ed8"/>
<circle cx="877.50" cy="331.47" r="3.2" fill="#1d4ed8"/>
<circle cx="880.00" cy="331.07" r="3.2" fill="#1d4ed8"/>
<circle cx="882.50" cy="331.47" r="3.2" fill="#1d4ed8"/>
<circle cx="885.00" cy="331.07" r="3.2" fill="#1d4ed8"/>
<circle cx="887.50" cy="331.07" r="3.2" fill="#1d4ed8"/>
<circle cx="890.00" cy="331.07" r="3.2" fill="#1d4ed8"/>
<circle cx="892.50" cy="331.07" r="3.2" fill="#1d4ed8"/>
<circle cx="895.00" cy="331.07" r="3.2" fill="#1d4ed8"/>
<circle cx="897.50" cy="331.07" r="3.2" fill="#1d4ed8"/>
<circle cx="900.00" cy="331.07" r="3.2" fill="#1d4ed8"/>
<circle cx="902.50" cy="331.07" r="3.2" fill="#1d4ed8"/>
<circle cx="905.00" cy="331.07" r="3.2" fill="#1d4ed8"/>
<circle cx="907.50" cy="331.07" r="3.2" fill="#1d4ed8"/>
<circle cx="910.00" cy="331.47" r="3.2" fill="#1d4ed8"/>
<circle cx="912.50" cy="331.88" r="3.2" fill="#1d4ed8"/>
<circle cx="915.00" cy="331.07" r="3.2" fill="#1d4ed8"/>
<circle cx="917.50" cy="331.47" r="3.2" fill="#1d4ed8"/>
<circle cx="920.00" cy="331.07" r="3.2" fill="#1d4ed8"/>
<circle cx="922.50" cy="331.47" r="3.2" fill="#1d4ed8"/>
<circle cx="925.00" cy="331.07" r="3.2" fill="#1d4ed8"/>
<circle cx="927.50" cy="324.19" r="3.2" fill="#1d4ed8"/>
<circle cx="930.00" cy="324.19" r="3.2" fill="#1d4ed8"/>
<circle cx="932.50" cy="318.93" r="3.2" fill="#1d4ed8"/>
<circle cx="935.00" cy="316.51" r="3.2" fill="#1d4ed8"/>
<circle cx="937.50" cy="310.44" r="3.2" fill="#1d4ed8"/>
<circle cx="940.00" cy="308.01" r="3.2" fill="#1d4ed8"/>
<circle cx="942.50" cy="600.00" r="3.2" fill="#1d4ed8"/>
<circle cx="945.00" cy="301.54" r="3.2" fill="#1d4ed8"/>
<circle cx="947.50" cy="290.22" r="3.2" fill="#1d4ed8"/>
<circle cx="950.00" cy="287.79" r="3.2" fill="#1d4ed8"/>
<circle cx="952.50" cy="286.18" r="3.2" fill="#1d4ed8"/>
<circle cx="955.00" cy="285.77" r="3.2" fill="#1d4ed8"/>
<circle cx="957.50" cy="285.77" r="3.2" fill="#1d4ed8"/>
<circle cx="960.00" cy="285.77" r="3.2" fill="#1d4ed8"/>
<circle cx="962.50" cy="286.18" r="3.2" fill="#1d4ed8"/>
<circle cx="965.00" cy="285.77" r="3.2" fill="#1d4ed8"/>
<circle cx="967.50" cy="285.77" r="3.2" fill="#1d4ed8"/>
<circle cx="970.00" cy="285.77" r="3.2" fill="#1d4ed8"/>
<circle cx="972.50" cy="283.35" r="3.2" fill="#1d4ed8"/>
<circle cx="975.00" cy="282.94" r="3.2" fill="#1d4ed8"/>
<circle cx="977.50" cy="282.94" r="3.2" fill="#1d4ed8"/>
<circle cx="980.00" cy="283.35" r="3.2" fill="#1d4ed8"/>
<circle cx="982.50" cy="282.94" r="3.2" fill="#1d4ed8"/>
<circle cx="985.00" cy="282.94" r="3.2" fill="#1d4ed8"/>
<circle cx="987.50" cy="283.75" r="3.2" fill="#1d4ed8"/>
<circle cx="990.00" cy="282.13" r="3.2" fill="#1d4ed8"/>
<circle cx="992.50" cy="282.13" r="3.2" fill="#1d4ed8"/>
<circle cx="995.00" cy="282.54" r="3.2" fill="#1d4ed8"/>
<circle cx="997.50" cy="282.13" r="3.2" fill="#1d4ed8"/>
<circle cx="1000.00" cy="282.54" r="3.2" fill="#1d4ed8"/>
<circle cx="1002.50" cy="282.94" r="3.2" fill="#1d4ed8"/>
<circle cx="1005.00" cy="281.73" r="3.2" fill="#1d4ed8"/>
<circle cx="1007.50" cy="282.54" r="3.2" fill="#1d4ed8"/>
<circle cx="1010.00" cy="281.73" r="3.2" fill="#1d4ed8"/>
<circle cx="1012.50" cy="282.54" r="3.2" fill="#1d4ed8"/>
<circle cx="1015.00" cy="282.13" r="3.2" fill="#1d4ed8"/>
<circle cx="1017.50" cy="282.13" r="3.2" fill="#1d4ed8"/>
<circle cx="1020.00" cy="281.73" r="3.2" fill="#1d4ed8"/>
<circle cx="1022.50" cy="281.73" r="3.2" fill="#1d4ed8"/>
<circle cx="1025.00" cy="281.32" r="3.2" fill="#1d4ed8"/>
<circle cx="1027.50" cy="281.73" r="3.2" fill="#1d4ed8"/>
<circle cx="1030.00" cy="282.13" r="3.2" fill="#1d4ed8"/>
<circle cx="1032.50" cy="281.32" r="3.2" fill="#1d4ed8"/>
<circle cx="1035.00" cy="281.32" r="3.2" fill="#1d4ed8"/>
<circle cx="1037.50" cy="282.54" r="3.2" fill="#1d4ed8"/>
<circle cx="1040.00" cy="282.13" r="3.2" fill="#1d4ed8"/>
<circle cx="1042.50" cy="281.32" r="3.2" fill="#1d4ed8"/>
<circle cx="1045.00" cy="281.32" r="3.2" fill="#1d4ed8"/>
<circle cx="1047.50" cy="281.32" r="3.2" fill="#1d4ed8"/>
<circle cx="1050.00" cy="282.54" r="3.2" fill="#1d4ed8"/>
<circle cx="1052.50" cy="282.13" r="3.2" fill="#1d4ed8"/>
<circle cx="1055.00" cy="281.32" r="3.2" fill="#1d4ed8"/>
<circle cx="1057.50" cy="282.13" r="3.2" fill="#1d4ed8"/>
<circle cx="1060.00" cy="281.73" r="3.2" fill="#1d4ed8"/>
<circle cx="1062.50" cy="282.13" r="3.2" fill="#1d4ed8"/>
<circle cx="1065.00" cy="280.11" r="3.2" fill="#1d4ed8"/>
<circle cx="1067.50" cy="280.11" r="3.2" fill="#1d4ed8"/>
<circle cx="1070.00" cy="280.51" r="3.2" fill="#1d4ed8"/>
<circle cx="1072.50" cy="279.71" r="3.2" fill="#1d4ed8"/>
<circle cx="1075.00" cy="280.11" r="3.2" fill="#1d4ed8"/>
<circle cx="1077.50" cy="280.51" r="3.2" fill="#1d4ed8"/>
<circle cx="1080.00" cy="279.71" r="3.2" fill="#1d4ed8"/>
<circle cx="1082.50" cy="280.11" r="3.2" fill="#1d4ed8"/>
<circle cx="1085.00" cy="280.11" r="3.2" fill="#1d4ed8"/>
<circle cx="1087.50" cy="279.30" r="3.2" fill="#1d4ed8"/>
<circle cx="1090.00" cy="278.90" r="3.2" fill="#1d4ed8"/>
<circle cx="1092.50" cy="278.90" r="3.2" fill="#1d4ed8"/>
<circle cx="1095.00" cy="280.51" r="3.2" fill="#1d4ed8"/>
<circle cx="1097.50" cy="279.30" r="3.2" fill="#1d4ed8"/>
<circle cx="1100.00" cy="278.09" r="3.2" fill="#1d4ed8"/>
<circle cx="1102.50" cy="278.49" r="3.2" fill="#1d4ed8"/>
<circle cx="1105.00" cy="278.49" r="3.2" fill="#1d4ed8"/>
<circle cx="1107.50" cy="277.28" r="3.2" fill="#1d4ed8"/>
<circle cx="1110.00" cy="277.68" r="3.2" fill="#1d4ed8"/>
<circle cx="1112.50" cy="277.68" r="3.2" fill="#1d4ed8"/>
<circle cx="1115.00" cy="278.09" r="3.2" fill="#1d4ed8"/>
<circle cx="1117.50" cy="277.28" r="3.2" fill="#1d4ed8"/>
<circle cx="1120.00" cy="600.00" r="3.2" fill="#1d4ed8"/>
<circle cx="1122.50" cy="278.90" r="3.2" fill="#1d4ed8"/>
<circle cx="1125.00" cy="279.30" r="3.2" fill="#1d4ed8"/>
<circle cx="1127.50" cy="278.90" r="3.2" fill="#1d4ed8"/>
<circle cx="1130.00" cy="278.49" r="3.2" fill="#1d4ed8"/>
<circle cx="1132.50" cy="278.49" r="3.2" fill="#1d4ed8"/>
<circle cx="1135.00" cy="278.49" r="3.2" fill="#1d4ed8"/>
<circle cx="1137.50" cy="278.49" r="3.2" fill="#1d4ed8"/>
<circle cx="1140.00" cy="278.49" r="3.2" fill="#1d4ed8"/>
<circle cx="1142.50" cy="278.49" r="3.2" fill="#1d4ed8"/>
<circle cx="1145.00" cy="278.49" r="3.2" fill="#1d4ed8"/>
<circle cx="1147.50" cy="278.49" r="3.2" fill="#1d4ed8"/>
<circle cx="1150.00" cy="278.49" r="3.2" fill="#1d4ed8"/>
<circle cx="1152.50" cy="278.49" r="3.2" fill="#1d4ed8"/>
<circle cx="1155.00" cy="278.49" r="3.2" fill="#1d4ed8"/>
<circle cx="1157.50" cy="278.49" r="3.2" fill="#1d4ed8"/>
<circle cx="1160.00" cy="600.00" r="3.2" fill="#1d4ed8"/>
<circle cx="1162.50" cy="600.00" r="3.2" fill="#1d4ed8"/>
<circle cx="1165.00" cy="254.63" r="3.2" fill="#1d4ed8"/>
<circle cx="1167.50" cy="600.00" r="3.2" fill="#1d4ed8"/>
<circle cx="1170.00" cy="245.74" r="3.2" fill="#1d4ed8"/>
<circle cx="1172.50" cy="245.74" r="3.2" fill="#1d4ed8"/>
<circle cx="1175.00" cy="246.14" r="3.2" fill="#1d4ed8"/>
<circle cx="1177.50" cy="245.74" r="3.2" fill="#1d4ed8"/>
<circle cx="1180.00" cy="245.74" r="3.2" fill="#1d4ed8"/>
<text x="635" y="695" text-anchor="middle" font-size="14" fill="#111" font-family="sans-serif">Date</text>
<text x="24" y="325" text-anchor="middle" font-size="14" fill="#111" transform="rotate(-90 24,325)" font-family="sans-serif">Passed files</text>
</svg>
