<?xml version="1.0" encoding="UTF-8"?>
<svg xmlns="http://www.w3.org/2000/svg" width="1280" height="720" viewBox="0 0 1280 720">
<rect width="100%" height="100%" fill="#ffffff"/>
<text x="640" y="30" text-anchor="middle" font-size="22" font-family="sans-serif">Roast passed files history</text>
<line x1="90" y1="600" x2="1180" y2="600" stroke="#333" stroke-width="1.5"/>
<line x1="90" y1="50" x2="90" y2="600" stroke="#333" stroke-width="1.5"/>
<line x1="90" y1="600.00" x2="1180" y2="600.00" stroke="#e5e7eb" stroke-width="1"/>
<text x="78" y="605.00" text-anchor="end" font-size="12" fill="#111" font-family="sans-serif">0</text>
<line x1="90" y1="398.09" x2="1180" y2="398.09" stroke="#e5e7eb" stroke-width="1"/>
<text x="78" y="403.09" text-anchor="end" font-size="12" fill="#111" font-family="sans-serif">500</text>
<line x1="90" y1="196.18" x2="1180" y2="196.18" stroke="#e5e7eb" stroke-width="1"/>
<text x="78" y="201.18" text-anchor="end" font-size="12" fill="#111" font-family="sans-serif">1000</text>
<line x1="90.00" y1="600" x2="90.00" y2="606" stroke="#333" stroke-width="1"/>
<text x="90.00" y="624" text-anchor="end" font-size="11" fill="#111" transform="rotate(-40 90.00,624)" font-family="sans-serif">2026-02-12</text>
<line x1="225.12" y1="600" x2="225.12" y2="606" stroke="#333" stroke-width="1"/>
<text x="225.12" y="624" text-anchor="end" font-size="11" fill="#111" transform="rotate(-40 225.12,624)" font-family="sans-serif">2026-02-15</text>
<line x1="360.25" y1="600" x2="360.25" y2="606" stroke="#333" stroke-width="1"/>
<text x="360.25" y="624" text-anchor="end" font-size="11" fill="#111" transform="rotate(-40 360.25,624)" font-family="sans-serif">2026-02-17</text>
<line x1="495.37" y1="600" x2="495.37" y2="606" stroke="#333" stroke-width="1"/>
<text x="495.37" y="624" text-anchor="end" font-size="11" fill="#111" transform="rotate(-40 495.37,624)" font-family="sans-serif">2026-02-17</text>
<line x1="630.50" y1="600" x2="630.50" y2="606" stroke="#333" stroke-width="1"/>
<text x="630.50" y="624" text-anchor="end" font-size="11" fill="#111" transform="rotate(-40 630.50,624)" font-family="sans-serif">2026-02-18</text>
<line x1="765.62" y1="600" x2="765.62" y2="606" stroke="#333" stroke-width="1"/>
<text x="765.62" y="624" text-anchor="end" font-size="11" fill="#111" transform="rotate(-40 765.62,624)" font-family="sans-serif">2026-02-20</text>
<line x1="900.74" y1="600" x2="900.74" y2="606" stroke="#333" stroke-width="1"/>
<text x="900.74" y="624" text-anchor="end" font-size="11" fill="#111" transform="rotate(-40 900.74,624)" font-family="sans-serif">2026-02-21</text>
<line x1="1035.87" y1="600" x2="1035.87" y2="606" stroke="#333" stroke-width="1"/>
<text x="1035.87" y="624" text-anchor="end" font-size="11" fill="#111" transform="rotate(-40 1035.87,624)" font-family="sans-serif">2026-02-23</text>
<line x1="1170.99" y1="600" x2="1170.99" y2="606" stroke="#333" stroke-width="1"/>
<text x="1170.99" y="624" text-anchor="end" font-size="11" fill="#111" transform="rotate(-40 1170.99,624)" font-family="sans-serif">2026-02-25</text>
<line x1="1180.00" y1="600" x2="1180.00" y2="606" stroke="#333" stroke-width="1"/>
<text x="1180.00" y="624" text-anchor="end" font-size="11" fill="#111" transform="rotate(-40 1180.00,624)" font-family="sans-serif">2026-02-25</text>
<line x1="90" y1="75.84" x2="1180" y2="75.84" stroke="#dc2626" stroke-width="1.5" stroke-dasharray="8,4"/>
<text x="1184" y="79.84" font-size="12" fill="#dc2626" font-family="sans-serif">Goal: 1298</text>
<polyline fill="none" stroke="#2563eb" stroke-width="3" points="90.00,540.64 99.01,538.62 108.02,537.00 117.02,534.58 126.03,534.58 135.04,533.37 144.05,532.56 153.06,532.97 162.07,532.16 171.07,532.56 180.08,532.16 189.09,568.50 198.10,568.50 207.11,566.48 216.12,545.08 225.12,545.08 234.13,544.27 243.14,543.87 252.15,543.87 261.16,543.47 270.17,541.85 279.17,541.45 288.18,541.04 297.19,541.04 306.20,539.43 315.21,539.43 324.21,556.79 333.22,556.79 342.23,555.58 351.24,551.14 360.25,539.02 369.26,539.02 378.26,539.02 387.27,538.22 396.28,537.00 405.29,537.00 414.30,536.60 423.31,536.60 432.31,556.79 441.32,556.79 450.33,556.79 459.34,556.79 468.35,535.39 477.36,535.39 486.36,535.39 495.37,535.39 504.38,534.58 513.39,534.18 522.40,533.77 531.40,532.97 540.41,532.16 549.42,532.16 558.43,531.35 567.44,530.95 576.45,530.54 585.45,530.14 594.46,530.14 603.47,529.33 612.48,529.33 621.49,529.33 630.50,528.52 639.50,528.52 648.51,527.72 657.52,527.31 666.53,526.91 675.54,526.51 684.55,525.29 693.55,523.68 702.56,523.68 711.57,523.27 720.58,522.87 729.59,522.47 738.60,521.66 747.60,519.64 756.61,517.62 765.62,517.62 774.63,517.62 783.64,517.62 792.64,517.62 801.65,517.62 810.66,517.22 819.67,516.81 828.68,515.60 837.69,515.20 846.69,514.79 855.70,513.99 864.71,514.39 873.72,512.37 882.73,511.97 891.74,511.97 900.74,511.16 909.75,509.95 918.76,507.93 927.77,507.12 936.78,506.72 945.79,509.54 954.79,509.14 963.80,505.10 972.81,504.70 981.82,504.30 990.83,504.70 999.83,503.89 1008.84,503.89 1017.85,503.49 1026.86,499.45 1035.87,496.62 1044.88,490.16 1053.88,484.51 1062.89,481.28 1071.90,480.47 1080.91,480.87 1089.92,461.09 1098.93,459.47 1107.93,458.26 1116.94,456.24 1125.95,456.24 1134.96,454.63 1143.97,450.99 1152.98,444.53 1161.98,444.13 1170.99,600.00 1180.00,442.11"/>
<circle cx="90.00" cy="540.64" r="3.2" fill="#1d4ed8"/>
<circle cx="99.01" cy="538.62" r="3.2" fill="#1d4ed8"/>
<circle cx="108.02" cy="537.00" r="3.2" fill="#1d4ed8"/>
<circle cx="117.02" cy="534.58" r="3.2" fill="#1d4ed8"/>
<circle cx="126.03" cy="534.58" r="3.2" fill="#1d4ed8"/>
<circle cx="135.04" cy="533.37" r="3.2" fill="#1d4ed8"/>
<circle cx="144.05" cy="532.56" r="3.2" fill="#1d4ed8"/>
<circle cx="153.06" cy="532.97" r="3.2" fill="#1d4ed8"/>
<circle cx="162.07" cy="532.16" r="3.2" fill="#1d4ed8"/>
<circle cx="171.07" cy="532.56" r="3.2" fill="#1d4ed8"/>
<circle cx="180.08" cy="532.16" r="3.2" fill="#1d4ed8"/>
<circle cx="189.09" cy="568.50" r="3.2" fill="#1d4ed8"/>
<circle cx="198.10" cy="568.50" r="3.2" fill="#1d4ed8"/>
<circle cx="207.11" cy="566.48" r="3.2" fill="#1d4ed8"/>
<circle cx="216.12" cy="545.08" r="3.2" fill="#1d4ed8"/>
<circle cx="225.12" cy="545.08" r="3.2" fill="#1d4ed8"/>
<circle cx="234.13" cy="544.27" r="3.2" fill="#1d4ed8"/>
<circle cx="243.14" cy="543.87" r="3.2" fill="#1d4ed8"/>
<circle cx="252.15" cy="543.87" r="3.2" fill="#1d4ed8"/>
<circle cx="261.16" cy="543.47" r="3.2" fill="#1d4ed8"/>
<circle cx="270.17" cy="541.85" r="3.2" fill="#1d4ed8"/>
<circle cx="279.17" cy="541.45" r="3.2" fill="#1d4ed8"/>
<circle cx="288.18" cy="541.04" r="3.2" fill="#1d4ed8"/>
<circle cx="297.19" cy="541.04" r="3.2" fill="#1d4ed8"/>
<circle cx="306.20" cy="539.43" r="3.2" fill="#1d4ed8"/>
<circle cx="315.21" cy="539.43" r="3.2" fill="#1d4ed8"/>
<circle cx="324.21" cy="556.79" r="3.2" fill="#1d4ed8"/>
<circle cx="333.22" cy="556.79" r="3.2" fill="#1d4ed8"/>
<circle cx="342.23" cy="555.58" r="3.2" fill="#1d4ed8"/>
<circle cx="351.24" cy="551.14" r="3.2" fill="#1d4ed8"/>
<circle cx="360.25" cy="539.02" r="3.2" fill="#1d4ed8"/>
<circle cx="369.26" cy="539.02" r="3.2" fill="#1d4ed8"/>
<circle cx="378.26" cy="539.02" r="3.2" fill="#1d4ed8"/>
<circle cx="387.27" cy="538.22" r="3.2" fill="#1d4ed8"/>
<circle cx="396.28" cy="537.00" r="3.2" fill="#1d4ed8"/>
<circle cx="405.29" cy="537.00" r="3.2" fill="#1d4ed8"/>
<circle cx="414.30" cy="536.60" r="3.2" fill="#1d4ed8"/>
<circle cx="423.31" cy="536.60" r="3.2" fill="#1d4ed8"/>
<circle cx="432.31" cy="556.79" r="3.2" fill="#1d4ed8"/>
<circle cx="441.32" cy="556.79" r="3.2" fill="#1d4ed8"/>
<circle cx="450.33" cy="556.79" r="3.2" fill="#1d4ed8"/>
<circle cx="459.34" cy="556.79" r="3.2" fill="#1d4ed8"/>
<circle cx="468.35" cy="535.39" r="3.2" fill="#1d4ed8"/>
<circle cx="477.36" cy="535.39" r="3.2" fill="#1d4ed8"/>
<circle cx="486.36" cy="535.39" r="3.2" fill="#1d4ed8"/>
<circle cx="495.37" cy="535.39" r="3.2" fill="#1d4ed8"/>
<circle cx="504.38" cy="534.58" r="3.2" fill="#1d4ed8"/>
<circle cx="513.39" cy="534.18" r="3.2" fill="#1d4ed8"/>
<circle cx="522.40" cy="533.77" r="3.2" fill="#1d4ed8"/>
<circle cx="531.40" cy="532.97" r="3.2" fill="#1d4ed8"/>
<circle cx="540.41" cy="532.16" r="3.2" fill="#1d4ed8"/>
<circle cx="549.42" cy="532.16" r="3.2" fill="#1d4ed8"/>
<circle cx="558.43" cy="531.35" r="3.2" fill="#1d4ed8"/>
<circle cx="567.44" cy="530.95" r="3.2" fill="#1d4ed8"/>
<circle cx="576.45" cy="530.54" r="3.2" fill="#1d4ed8"/>
<circle cx="585.45" cy="530.14" r="3.2" fill="#1d4ed8"/>
<circle cx="594.46" cy="530.14" r="3.2" fill="#1d4ed8"/>
<circle cx="603.47" cy="529.33" r="3.2" fill="#1d4ed8"/>
<circle cx="612.48" cy="529.33" r="3.2" fill="#1d4ed8"/>
<circle cx="621.49" cy="529.33" r="3.2" fill="#1d4ed8"/>
<circle cx="630.50" cy="528.52" r="3.2" fill="#1d4ed8"/>
<circle cx="639.50" cy="528.52" r="3.2" fill="#1d4ed8"/>
<circle cx="648.51" cy="527.72" r="3.2" fill="#1d4ed8"/>
<circle cx="657.52" cy="527.31" r="3.2" fill="#1d4ed8"/>
<circle cx="666.53" cy="526.91" r="3.2" fill="#1d4ed8"/>
<circle cx="675.54" cy="526.51" r="3.2" fill="#1d4ed8"/>
<circle cx="684.55" cy="525.29" r="3.2" fill="#1d4ed8"/>
<circle cx="693.55" cy="523.68" r="3.2" fill="#1d4ed8"/>
<circle cx="702.56" cy="523.68" r="3.2" fill="#1d4ed8"/>
<circle cx="711.57" cy="523.27" r="3.2" fill="#1d4ed8"/>
<circle cx="720.58" cy="522.87" r="3.2" fill="#1d4ed8"/>
<circle cx="729.59" cy="522.47" r="3.2" fill="#1d4ed8"/>
<circle cx="738.60" cy="521.66" r="3.2" fill="#1d4ed8"/>
<circle cx="747.60" cy="519.64" r="3.2" fill="#1d4ed8"/>
<circle cx="756.61" cy="517.62" r="3.2" fill="#1d4ed8"/>
<circle cx="765.62" cy="517.62" r="3.2" fill="#1d4ed8"/>
<circle cx="774.63" cy="517.62" r="3.2" fill="#1d4ed8"/>
<circle cx="783.64" cy="517.62" r="3.2" fill="#1d4ed8"/>
<circle cx="792.64" cy="517.62" r="3.2" fill="#1d4ed8"/>
<circle cx="801.65" cy="517.62" r="3.2" fill="#1d4ed8"/>
<circle cx="810.66" cy="517.22" r="3.2" fill="#1d4ed8"/>
<circle cx="819.67" cy="516.81" r="3.2" fill="#1d4ed8"/>
<circle cx="828.68" cy="515.60" r="3.2" fill="#1d4ed8"/>
<circle cx="837.69" cy="515.20" r="3.2" fill="#1d4ed8"/>
<circle cx="846.69" cy="514.79" r="3.2" fill="#1d4ed8"/>
<circle cx="855.70" cy="513.99" r="3.2" fill="#1d4ed8"/>
<circle cx="864.71" cy="514.39" r="3.2" fill="#1d4ed8"/>
<circle cx="873.72" cy="512.37" r="3.2" fill="#1d4ed8"/>
<circle cx="882.73" cy="511.97" r="3.2" fill="#1d4ed8"/>
<circle cx="891.74" cy="511.97" r="3.2" fill="#1d4ed8"/>
<circle cx="900.74" cy="511.16" r="3.2" fill="#1d4ed8"/>
<circle cx="909.75" cy="509.95" r="3.2" fill="#1d4ed8"/>
<circle cx="918.76" cy="507.93" r="3.2" fill="#1d4ed8"/>
<circle cx="927.77" cy="507.12" r="3.2" fill="#1d4ed8"/>
<circle cx="936.78" cy="506.72" r="3.2" fill="#1d4ed8"/>
<circle cx="945.79" cy="509.54" r="3.2" fill="#1d4ed8"/>
<circle cx="954.79" cy="509.14" r="3.2" fill="#1d4ed8"/>
<circle cx="963.80" cy="505.10" r="3.2" fill="#1d4ed8"/>
<circle cx="972.81" cy="504.70" r="3.2" fill="#1d4ed8"/>
<circle cx="981.82" cy="504.30" r="3.2" fill="#1d4ed8"/>
<circle cx="990.83" cy="504.70" r="3.2" fill="#1d4ed8"/>
<circle cx="999.83" cy="503.89" r="3.2" fill="#1d4ed8"/>
<circle cx="1008.84" cy="503.89" r="3.2" fill="#1d4ed8"/>
<circle cx="1017.85" cy="503.49" r="3.2" fill="#1d4ed8"/>
<circle cx="1026.86" cy="499.45" r="3.2" fill="#1d4ed8"/>
<circle cx="1035.87" cy="496.62" r="3.2" fill="#1d4ed8"/>
<circle cx="1044.88" cy="490.16" r="3.2" fill="#1d4ed8"/>
<circle cx="1053.88" cy="484.51" r="3.2" fill="#1d4ed8"/>
<circle cx="1062.89" cy="481.28" r="3.2" fill="#1d4ed8"/>
<circle cx="1071.90" cy="480.47" r="3.2" fill="#1d4ed8"/>
<circle cx="1080.91" cy="480.87" r="3.2" fill="#1d4ed8"/>
<circle cx="1089.92" cy="461.09" r="3.2" fill="#1d4ed8"/>
<circle cx="1098.93" cy="459.47" r="3.2" fill="#1d4ed8"/>
<circle cx="1107.93" cy="458.26" r="3.2" fill="#1d4ed8"/>
<circle cx="1116.94" cy="456.24" r="3.2" fill="#1d4ed8"/>
<circle cx="1125.95" cy="456.24" r="3.2" fill="#1d4ed8"/>
<circle cx="1134.96" cy="454.63" r="3.2" fill="#1d4ed8"/>
<circle cx="1143.97" cy="450.99" r="3.2" fill="#1d4ed8"/>
<circle cx="1152.98" cy="444.53" r="3.2" fill="#1d4ed8"/>
<circle cx="1161.98" cy="444.13" r="3.2" fill="#1d4ed8"/>
<circle cx="1170.99" cy="600.00" r="3.2" fill="#1d4ed8"/>
<circle cx="1180.00" cy="442.11" r="3.2" fill="#1d4ed8"/>
<text x="635" y="695" text-anchor="middle" font-size="14" fill="#111" font-family="sans-serif">Date</text>
<text x="24" y="325" text-anchor="middle" font-size="14" fill="#111" transform="rotate(-90 24,325)" font-family="sans-serif">Passed files</text>
</svg>
