<?xml version="1.0" encoding="UTF-8"?>
<svg xmlns="http://www.w3.org/2000/svg" width="1280" height="720" viewBox="0 0 1280 720">
<rect width="100%" height="100%" fill="#ffffff"/>
<text x="640" y="30" text-anchor="middle" font-size="22" font-family="sans-serif">Roast passed files history</text>
<line x1="90" y1="600" x2="1180" y2="600" stroke="#333" stroke-width="1.5"/>
<line x1="90" y1="50" x2="90" y2="600" stroke="#333" stroke-width="1.5"/>
<line x1="90" y1="600.00" x2="1180" y2="600.00" stroke="#e5e7eb" stroke-width="1"/>
<text x="78" y="605.00" text-anchor="end" font-size="12" fill="#111" font-family="sans-serif">0</text>
<line x1="90" y1="397.79" x2="1180" y2="397.79" stroke="#e5e7eb" stroke-width="1"/>
<text x="78" y="402.79" text-anchor="end" font-size="12" fill="#111" font-family="sans-serif">500</text>
<line x1="90" y1="195.59" x2="1180" y2="195.59" stroke="#e5e7eb" stroke-width="1"/>
<text x="78" y="200.59" text-anchor="end" font-size="12" fill="#111" font-family="sans-serif">1000</text>
<line x1="90.00" y1="600" x2="90.00" y2="606" stroke="#333" stroke-width="1"/>
<text x="90.00" y="624" text-anchor="end" font-size="11" fill="#111" transform="rotate(-40 90.00,624)" font-family="sans-serif">2026-02-12</text>
<line x1="224.85" y1="600" x2="224.85" y2="606" stroke="#333" stroke-width="1"/>
<text x="224.85" y="624" text-anchor="end" font-size="11" fill="#111" transform="rotate(-40 224.85,624)" font-family="sans-serif">2026-02-18</text>
<line x1="359.69" y1="600" x2="359.69" y2="606" stroke="#333" stroke-width="1"/>
<text x="359.69" y="624" text-anchor="end" font-size="11" fill="#111" transform="rotate(-40 359.69,624)" font-family="sans-serif">2026-02-25</text>
<line x1="494.54" y1="600" x2="494.54" y2="606" stroke="#333" stroke-width="1"/>
<text x="494.54" y="624" text-anchor="end" font-size="11" fill="#111" transform="rotate(-40 494.54,624)" font-family="sans-serif">2026-02-28</text>
<line x1="629.38" y1="600" x2="629.38" y2="606" stroke="#333" stroke-width="1"/>
<text x="629.38" y="624" text-anchor="end" font-size="11" fill="#111" transform="rotate(-40 629.38,624)" font-family="sans-serif">2026-03-06</text>
<line x1="764.23" y1="600" x2="764.23" y2="606" stroke="#333" stroke-width="1"/>
<text x="764.23" y="624" text-anchor="end" font-size="11" fill="#111" transform="rotate(-40 764.23,624)" font-family="sans-serif">2026-03-08</text>
<line x1="899.07" y1="600" x2="899.07" y2="606" stroke="#333" stroke-width="1"/>
<text x="899.07" y="624" text-anchor="end" font-size="11" fill="#111" transform="rotate(-40 899.07,624)" font-family="sans-serif">2026-03-18</text>
<line x1="1033.92" y1="600" x2="1033.92" y2="606" stroke="#333" stroke-width="1"/>
<text x="1033.92" y="624" text-anchor="end" font-size="11" fill="#111" transform="rotate(-40 1033.92,624)" font-family="sans-serif">2026-03-20</text>
<line x1="1168.76" y1="600" x2="1168.76" y2="606" stroke="#333" stroke-width="1"/>
<text x="1168.76" y="624" text-anchor="end" font-size="11" fill="#111" transform="rotate(-40 1168.76,624)" font-family="sans-serif">2026-03-30</text>
<line x1="1180.00" y1="600" x2="1180.00" y2="606" stroke="#333" stroke-width="1"/>
<text x="1180.00" y="624" text-anchor="end" font-size="11" fill="#111" transform="rotate(-40 1180.00,624)" font-family="sans-serif">2026-03-30</text>
<line x1="90" y1="75.88" x2="1180" y2="75.88" stroke="#dc2626" stroke-width="1.5" stroke-dasharray="8,4"/>
<text x="1184" y="79.88" font-size="12" fill="#dc2626" font-family="sans-serif">Goal: 1296</text>
<polyline fill="none" stroke="#2563eb" stroke-width="3" points="90.00,540.55 92.25,538.53 94.49,536.91 96.74,534.49 98.99,534.49 101.24,533.27 103.48,532.46 105.73,532.87 107.98,532.06 110.23,532.46 112.47,532.06 114.72,568.46 116.97,568.46 119.22,566.43 121.46,545.00 123.71,545.00 125.96,544.19 128.21,543.79 130.45,543.79 132.70,543.38 134.95,541.76 137.20,541.36 139.44,540.96 141.69,540.96 143.94,539.34 146.19,539.34 148.43,556.73 150.68,556.73 152.93,555.51 155.18,551.07 157.42,538.93 159.67,538.93 161.92,538.93 164.16,538.12 166.41,536.91 168.66,536.91 170.91,536.51 173.15,536.51 175.40,556.73 177.65,556.73 179.90,556.73 182.14,556.73 184.39,535.29 186.64,535.29 188.89,535.29 191.13,535.29 193.38,534.49 195.63,534.08 197.88,533.68 200.12,532.87 202.37,532.06 204.62,532.06 206.87,531.25 209.11,530.85 211.36,530.44 213.61,530.04 215.86,530.04 218.10,529.23 220.35,529.23 222.60,529.23 224.85,528.42 227.09,528.42 229.34,527.61 231.59,527.21 233.84,526.80 236.08,526.40 238.33,525.18 240.58,523.57 242.82,523.57 245.07,523.16 247.32,522.76 249.57,522.35 251.81,521.54 254.06,519.52 256.31,517.50 258.56,517.50 260.80,517.50 263.05,517.50 265.30,517.50 267.55,517.50 269.79,517.10 272.04,516.69 274.29,515.48 276.54,515.07 278.78,514.67 281.03,513.86 283.28,514.26 285.53,512.24 287.77,511.84 290.02,511.84 292.27,511.03 294.52,509.82 296.76,507.79 299.01,506.99 301.26,506.58 303.51,509.41 305.75,509.01 308.00,504.96 310.25,504.56 312.49,504.15 314.74,504.56 316.99,503.75 319.24,503.75 321.48,503.35 323.73,499.30 325.98,496.47 328.23,490.00 330.47,484.34 332.72,481.10 334.97,480.29 337.22,480.70 339.46,460.88 341.71,459.26 343.96,458.05 346.21,456.03 348.45,456.03 350.70,454.41 352.95,450.77 355.20,444.30 357.44,443.90 359.69,600.00 361.94,441.88 364.19,440.66 366.43,439.45 368.68,439.04 370.93,438.64 373.18,437.83 375.42,436.62 377.67,436.62 379.92,434.60 382.16,432.17 384.41,429.34 386.66,428.93 388.91,428.53 391.15,427.72 393.40,426.91 395.65,426.10 397.90,426.10 400.14,426.10 402.39,419.63 404.64,419.23 406.89,418.42 409.13,418.01 411.38,417.61 413.63,417.61 415.88,417.61 418.12,417.21 420.37,417.21 422.62,413.57 424.87,411.95 427.11,412.76 429.36,410.74 431.61,410.74 433.86,410.33 436.10,410.33 438.35,410.33 440.60,409.93 442.85,409.93 445.09,409.93 447.34,409.52 449.59,409.52 451.84,409.12 454.08,409.52 456.33,409.12 458.58,407.50 460.82,407.10 463.07,403.05 465.32,399.82 467.57,400.22 469.81,400.62 472.06,400.62 474.31,399.41 476.56,392.94 478.80,391.32 481.05,389.30 483.30,389.30 485.55,388.49 487.79,375.15 490.04,374.74 492.29,374.74 494.54,374.74 496.78,374.74 499.03,374.34 501.28,374.34 503.53,374.34 505.77,374.34 508.02,374.34 510.27,373.93 512.52,373.12 514.76,372.72 517.01,373.53 519.26,435.81 521.51,372.32 523.75,372.72 526.00,371.91 528.25,371.91 530.49,372.32 532.74,371.10 534.99,369.89 537.24,369.89 539.48,369.89 541.73,369.49 543.98,369.89 546.23,369.08 548.47,368.68 550.72,368.27 552.97,367.87 555.22,367.06 557.46,367.46 559.71,367.06 561.96,366.25 564.21,368.27 566.45,368.68 568.70,368.68 570.95,368.27 573.20,369.08 575.44,367.87 577.69,367.46 579.94,367.06 582.19,360.18 584.43,359.78 586.68,359.38 588.93,356.95 591.18,357.35 593.42,357.76 595.67,355.33 597.92,355.74 600.16,357.35 602.41,355.33 604.66,356.14 606.91,355.74 609.15,356.14 611.40,354.12 613.65,354.93 615.90,356.14 618.14,354.52 620.39,353.71 622.64,354.12 624.89,354.93 627.13,352.90 629.38,353.71 631.63,353.31 633.88,353.31 636.12,354.52 638.37,352.90 640.62,352.50 642.87,352.50 645.11,353.31 647.36,352.50 649.61,353.71 651.86,354.12 654.10,352.50 656.35,352.90 658.60,352.50 660.85,352.10 663.09,351.69 665.34,352.10 667.59,354.12 669.84,352.50 672.08,352.10 674.33,352.10 676.58,349.67 678.82,349.67 681.07,350.88 683.32,351.29 685.57,350.48 687.81,352.10 690.06,350.48 692.31,350.48 694.56,350.48 696.80,350.07 699.05,348.46 701.30,351.29 703.55,349.67 705.79,351.29 708.04,349.67 710.29,348.86 712.54,348.46 714.78,348.46 717.03,347.24 719.28,348.86 721.53,346.84 723.77,348.46 726.02,348.86 728.27,346.84 730.52,349.26 732.76,348.05 735.01,349.26 737.26,349.26 739.51,350.48 741.75,352.90 744.00,349.67 746.25,348.46 748.49,345.62 750.74,344.82 752.99,344.41 755.24,342.39 757.48,341.18 759.73,341.58 761.98,339.15 764.23,338.35 766.47,337.54 768.72,336.73 770.97,335.92 773.22,337.54 775.46,338.35 777.71,337.54 779.96,337.54 782.21,337.54 784.45,333.09 786.70,333.90 788.95,335.92 791.20,336.73 793.44,335.51 795.69,332.28 797.94,331.47 800.19,331.07 802.43,331.47 804.68,331.07 806.93,331.07 809.18,331.07 811.42,331.07 813.67,331.07 815.92,331.07 818.16,331.07 820.41,331.07 822.66,331.07 824.91,331.07 827.15,331.47 829.40,331.88 831.65,331.07 833.90,331.47 836.14,331.07 838.39,331.47 840.64,331.07 842.89,324.19 845.13,324.19 847.38,318.93 849.63,316.51 851.88,310.44 854.12,308.01 856.37,600.00 858.62,301.54 860.87,290.22 863.11,287.79 865.36,286.18 867.61,285.77 869.86,285.77 872.10,285.77 874.35,286.18 876.60,285.77 878.85,285.77 881.09,285.77 883.34,283.35 885.59,282.94 887.84,282.94 890.08,283.35 892.33,282.94 894.58,282.94 896.82,283.75 899.07,282.13 901.32,282.13 903.57,282.54 905.81,282.13 908.06,282.54 910.31,282.94 912.56,281.73 914.80,282.54 917.05,281.73 919.30,282.54 921.55,282.13 923.79,282.13 926.04,281.73 928.29,281.73 930.54,281.32 932.78,281.73 935.03,282.13 937.28,281.32 939.53,281.32 941.77,282.54 944.02,282.13 946.27,281.32 948.52,281.32 950.76,281.32 953.01,282.54 955.26,282.13 957.51,281.32 959.75,282.13 962.00,281.73 964.25,282.13 966.49,280.11 968.74,280.11 970.99,280.51 973.24,279.71 975.48,280.11 977.73,280.51 979.98,279.71 982.23,280.11 984.47,280.11 986.72,279.30 988.97,278.90 991.22,278.90 993.46,280.51 995.71,279.30 997.96,278.09 1000.21,278.49 1002.45,278.49 1004.70,277.28 1006.95,277.68 1009.20,277.68 1011.44,278.09 1013.69,277.28 1015.94,600.00 1018.19,278.90 1020.43,279.30 1022.68,278.90 1024.93,278.49 1027.18,278.49 1029.42,278.49 1031.67,278.49 1033.92,278.49 1036.16,278.49 1038.41,278.49 1040.66,278.49 1042.91,278.49 1045.15,278.49 1047.40,278.49 1049.65,278.49 1051.90,600.00 1054.14,600.00 1056.39,254.63 1058.64,600.00 1060.89,245.74 1063.13,245.74 1065.38,246.14 1067.63,245.74 1069.88,245.74 1072.12,245.74 1074.37,245.74 1076.62,245.74 1078.87,240.07 1081.11,238.05 1083.36,238.05 1085.61,227.13 1087.86,227.13 1090.10,226.32 1092.35,227.54 1094.60,226.73 1096.85,226.32 1099.09,227.13 1101.34,227.13 1103.59,226.73 1105.84,226.32 1108.08,226.73 1110.33,226.73 1112.58,226.73 1114.82,225.11 1117.07,224.71 1119.32,225.11 1121.57,224.30 1123.81,226.32 1126.06,224.30 1128.31,225.51 1130.56,225.51 1132.80,225.51 1135.05,225.92 1137.30,223.09 1139.55,223.49 1141.79,223.09 1144.04,223.09 1146.29,223.90 1148.54,223.49 1150.78,223.49 1153.03,223.09 1155.28,223.09 1157.53,223.49 1159.77,223.09 1162.02,223.09 1164.27,223.49 1166.52,223.49 1168.76,223.09 1171.01,223.09 1173.26,223.49 1175.51,223.09 1177.75,223.09 1180.00,223.09"/>
<circle cx="90.00" cy="540.55" r="3.2" fill="#1d4ed8"/>
<circle cx="92.25" cy="538.53" r="3.2" fill="#1d4ed8"/>
<circle cx="94.49" cy="536.91" r="3.2" fill="#1d4ed8"/>
<circle cx="96.74" cy="534.49" r="3.2" fill="#1d4ed8"/>
<circle cx="98.99" cy="534.49" r="3.2" fill="#1d4ed8"/>
<circle cx="101.24" cy="533.27" r="3.2" fill="#1d4ed8"/>
<circle cx="103.48" cy="532.46" r="3.2" fill="#1d4ed8"/>
<circle cx="105.73" cy="532.87" r="3.2" fill="#1d4ed8"/>
<circle cx="107.98" cy="532.06" r="3.2" fill="#1d4ed8"/>
<circle cx="110.23" cy="532.46" r="3.2" fill="#1d4ed8"/>
<circle cx="112.47" cy="532.06" r="3.2" fill="#1d4ed8"/>
<circle cx="114.72" cy="568.46" r="3.2" fill="#1d4ed8"/>
<circle cx="116.97" cy="568.46" r="3.2" fill="#1d4ed8"/>
<circle cx="119.22" cy="566.43" r="3.2" fill="#1d4ed8"/>
<circle cx="121.46" cy="545.00" r="3.2" fill="#1d4ed8"/>
<circle cx="123.71" cy="545.00" r="3.2" fill="#1d4ed8"/>
<circle cx="125.96" cy="544.19" r="3.2" fill="#1d4ed8"/>
<circle cx="128.21" cy="543.79" r="3.2" fill="#1d4ed8"/>
<circle cx="130.45" cy="543.79" r="3.2" fill="#1d4ed8"/>
<circle cx="132.70" cy="543.38" r="3.2" fill="#1d4ed8"/>
<circle cx="134.95" cy="541.76" r="3.2" fill="#1d4ed8"/>
<circle cx="137.20" cy="541.36" r="3.2" fill="#1d4ed8"/>
<circle cx="139.44" cy="540.96" r="3.2" fill="#1d4ed8"/>
<circle cx="141.69" cy="540.96" r="3.2" fill="#1d4ed8"/>
<circle cx="143.94" cy="539.34" r="3.2" fill="#1d4ed8"/>
<circle cx="146.19" cy="539.34" r="3.2" fill="#1d4ed8"/>
<circle cx="148.43" cy="556.73" r="3.2" fill="#1d4ed8"/>
<circle cx="150.68" cy="556.73" r="3.2" fill="#1d4ed8"/>
<circle cx="152.93" cy="555.51" r="3.2" fill="#1d4ed8"/>
<circle cx="155.18" cy="551.07" r="3.2" fill="#1d4ed8"/>
<circle cx="157.42" cy="538.93" r="3.2" fill="#1d4ed8"/>
<circle cx="159.67" cy="538.93" r="3.2" fill="#1d4ed8"/>
<circle cx="161.92" cy="538.93" r="3.2" fill="#1d4ed8"/>
<circle cx="164.16" cy="538.12" r="3.2" fill="#1d4ed8"/>
<circle cx="166.41" cy="536.91" r="3.2" fill="#1d4ed8"/>
<circle cx="168.66" cy="536.91" r="3.2" fill="#1d4ed8"/>
<circle cx="170.91" cy="536.51" r="3.2" fill="#1d4ed8"/>
<circle cx="173.15" cy="536.51" r="3.2" fill="#1d4ed8"/>
<circle cx="175.40" cy="556.73" r="3.2" fill="#1d4ed8"/>
<circle cx="177.65" cy="556.73" r="3.2" fill="#1d4ed8"/>
<circle cx="179.90" cy="556.73" r="3.2" fill="#1d4ed8"/>
<circle cx="182.14" cy="556.73" r="3.2" fill="#1d4ed8"/>
<circle cx="184.39" cy="535.29" r="3.2" fill="#1d4ed8"/>
<circle cx="186.64" cy="535.29" r="3.2" fill="#1d4ed8"/>
<circle cx="188.89" cy="535.29" r="3.2" fill="#1d4ed8"/>
<circle cx="191.13" cy="535.29" r="3.2" fill="#1d4ed8"/>
<circle cx="193.38" cy="534.49" r="3.2" fill="#1d4ed8"/>
<circle cx="195.63" cy="534.08" r="3.2" fill="#1d4ed8"/>
<circle cx="197.88" cy="533.68" r="3.2" fill="#1d4ed8"/>
<circle cx="200.12" cy="532.87" r="3.2" fill="#1d4ed8"/>
<circle cx="202.37" cy="532.06" r="3.2" fill="#1d4ed8"/>
<circle cx="204.62" cy="532.06" r="3.2" fill="#1d4ed8"/>
<circle cx="206.87" cy="531.25" r="3.2" fill="#1d4ed8"/>
<circle cx="209.11" cy="530.85" r="3.2" fill="#1d4ed8"/>
<circle cx="211.36" cy="530.44" r="3.2" fill="#1d4ed8"/>
<circle cx="213.61" cy="530.04" r="3.2" fill="#1d4ed8"/>
<circle cx="215.86" cy="530.04" r="3.2" fill="#1d4ed8"/>
<circle cx="218.10" cy="529.23" r="3.2" fill="#1d4ed8"/>
<circle cx="220.35" cy="529.23" r="3.2" fill="#1d4ed8"/>
<circle cx="222.60" cy="529.23" r="3.2" fill="#1d4ed8"/>
<circle cx="224.85" cy="528.42" r="3.2" fill="#1d4ed8"/>
<circle cx="227.09" cy="528.42" r="3.2" fill="#1d4ed8"/>
<circle cx="229.34" cy="527.61" r="3.2" fill="#1d4ed8"/>
<circle cx="231.59" cy="527.21" r="3.2" fill="#1d4ed8"/>
<circle cx="233.84" cy="526.80" r="3.2" fill="#1d4ed8"/>
<circle cx="236.08" cy="526.40" r="3.2" fill="#1d4ed8"/>
<circle cx="238.33" cy="525.18" r="3.2" fill="#1d4ed8"/>
<circle cx="240.58" cy="523.57" r="3.2" fill="#1d4ed8"/>
<circle cx="242.82" cy="523.57" r="3.2" fill="#1d4ed8"/>
<circle cx="245.07" cy="523.16" r="3.2" fill="#1d4ed8"/>
<circle cx="247.32" cy="522.76" r="3.2" fill="#1d4ed8"/>
<circle cx="249.57" cy="522.35" r="3.2" fill="#1d4ed8"/>
<circle cx="251.81" cy="521.54" r="3.2" fill="#1d4ed8"/>
<circle cx="254.06" cy="519.52" r="3.2" fill="#1d4ed8"/>
<circle cx="256.31" cy="517.50" r="3.2" fill="#1d4ed8"/>
<circle cx="258.56" cy="517.50" r="3.2" fill="#1d4ed8"/>
<circle cx="260.80" cy="517.50" r="3.2" fill="#1d4ed8"/>
<circle cx="263.05" cy="517.50" r="3.2" fill="#1d4ed8"/>
<circle cx="265.30" cy="517.50" r="3.2" fill="#1d4ed8"/>
<circle cx="267.55" cy="517.50" r="3.2" fill="#1d4ed8"/>
<circle cx="269.79" cy="517.10" r="3.2" fill="#1d4ed8"/>
<circle cx="272.04" cy="516.69" r="3.2" fill="#1d4ed8"/>
<circle cx="274.29" cy="515.48" r="3.2" fill="#1d4ed8"/>
<circle cx="276.54" cy="515.07" r="3.2" fill="#1d4ed8"/>
<circle cx="278.78" cy="514.67" r="3.2" fill="#1d4ed8"/>
<circle cx="281.03" cy="513.86" r="3.2" fill="#1d4ed8"/>
<circle cx="283.28" cy="514.26" r="3.2" fill="#1d4ed8"/>
<circle cx="285.53" cy="512.24" r="3.2" fill="#1d4ed8"/>
<circle cx="287.77" cy="511.84" r="3.2" fill="#1d4ed8"/>
<circle cx="290.02" cy="511.84" r="3.2" fill="#1d4ed8"/>
<circle cx="292.27" cy="511.03" r="3.2" fill="#1d4ed8"/>
<circle cx="294.52" cy="509.82" r="3.2" fill="#1d4ed8"/>
<circle cx="296.76" cy="507.79" r="3.2" fill="#1d4ed8"/>
<circle cx="299.01" cy="506.99" r="3.2" fill="#1d4ed8"/>
<circle cx="301.26" cy="506.58" r="3.2" fill="#1d4ed8"/>
<circle cx="303.51" cy="509.41" r="3.2" fill="#1d4ed8"/>
<circle cx="305.75" cy="509.01" r="3.2" fill="#1d4ed8"/>
<circle cx="308.00" cy="504.96" r="3.2" fill="#1d4ed8"/>
<circle cx="310.25" cy="504.56" r="3.2" fill="#1d4ed8"/>
<circle cx="312.49" cy="504.15" r="3.2" fill="#1d4ed8"/>
<circle cx="314.74" cy="504.56" r="3.2" fill="#1d4ed8"/>
<circle cx="316.99" cy="503.75" r="3.2" fill="#1d4ed8"/>
<circle cx="319.24" cy="503.75" r="3.2" fill="#1d4ed8"/>
<circle cx="321.48" cy="503.35" r="3.2" fill="#1d4ed8"/>
<circle cx="323.73" cy="499.30" r="3.2" fill="#1d4ed8"/>
<circle cx="325.98" cy="496.47" r="3.2" fill="#1d4ed8"/>
<circle cx="328.23" cy="490.00" r="3.2" fill="#1d4ed8"/>
<circle cx="330.47" cy="484.34" r="3.2" fill="#1d4ed8"/>
<circle cx="332.72" cy="481.10" r="3.2" fill="#1d4ed8"/>
<circle cx="334.97" cy="480.29" r="3.2" fill="#1d4ed8"/>
<circle cx="337.22" cy="480.70" r="3.2" fill="#1d4ed8"/>
<circle cx="339.46" cy="460.88" r="3.2" fill="#1d4ed8"/>
<circle cx="341.71" cy="459.26" r="3.2" fill="#1d4ed8"/>
<circle cx="343.96" cy="458.05" r="3.2" fill="#1d4ed8"/>
<circle cx="346.21" cy="456.03" r="3.2" fill="#1d4ed8"/>
<circle cx="348.45" cy="456.03" r="3.2" fill="#1d4ed8"/>
<circle cx="350.70" cy="454.41" r="3.2" fill="#1d4ed8"/>
<circle cx="352.95" cy="450.77" r="3.2" fill="#1d4ed8"/>
<circle cx="355.20" cy="444.30" r="3.2" fill="#1d4ed8"/>
<circle cx="357.44" cy="443.90" r="3.2" fill="#1d4ed8"/>
<circle cx="359.69" cy="600.00" r="3.2" fill="#1d4ed8"/>
<circle cx="361.94" cy="441.88" r="3.2" fill="#1d4ed8"/>
<circle cx="364.19" cy="440.66" r="3.2" fill="#1d4ed8"/>
<circle cx="366.43" cy="439.45" r="3.2" fill="#1d4ed8"/>
<circle cx="368.68" cy="439.04" r="3.2" fill="#1d4ed8"/>
<circle cx="370.93" cy="438.64" r="3.2" fill="#1d4ed8"/>
<circle cx="373.18" cy="437.83" r="3.2" fill="#1d4ed8"/>
<circle cx="375.42" cy="436.62" r="3.2" fill="#1d4ed8"/>
<circle cx="377.67" cy="436.62" r="3.2" fill="#1d4ed8"/>
<circle cx="379.92" cy="434.60" r="3.2" fill="#1d4ed8"/>
<circle cx="382.16" cy="432.17" r="3.2" fill="#1d4ed8"/>
<circle cx="384.41" cy="429.34" r="3.2" fill="#1d4ed8"/>
<circle cx="386.66" cy="428.93" r="3.2" fill="#1d4ed8"/>
<circle cx="388.91" cy="428.53" r="3.2" fill="#1d4ed8"/>
<circle cx="391.15" cy="427.72" r="3.2" fill="#1d4ed8"/>
<circle cx="393.40" cy="426.91" r="3.2" fill="#1d4ed8"/>
<circle cx="395.65" cy="426.10" r="3.2" fill="#1d4ed8"/>
<circle cx="397.90" cy="426.10" r="3.2" fill="#1d4ed8"/>
<circle cx="400.14" cy="426.10" r="3.2" fill="#1d4ed8"/>
<circle cx="402.39" cy="419.63" r="3.2" fill="#1d4ed8"/>
<circle cx="404.64" cy="419.23" r="3.2" fill="#1d4ed8"/>
<circle cx="406.89" cy="418.42" r="3.2" fill="#1d4ed8"/>
<circle cx="409.13" cy="418.01" r="3.2" fill="#1d4ed8"/>
<circle cx="411.38" cy="417.61" r="3.2" fill="#1d4ed8"/>
<circle cx="413.63" cy="417.61" r="3.2" fill="#1d4ed8"/>
<circle cx="415.88" cy="417.61" r="3.2" fill="#1d4ed8"/>
<circle cx="418.12" cy="417.21" r="3.2" fill="#1d4ed8"/>
<circle cx="420.37" cy="417.21" r="3.2" fill="#1d4ed8"/>
<circle cx="422.62" cy="413.57" r="3.2" fill="#1d4ed8"/>
<circle cx="424.87" cy="411.95" r="3.2" fill="#1d4ed8"/>
<circle cx="427.11" cy="412.76" r="3.2" fill="#1d4ed8"/>
<circle cx="429.36" cy="410.74" r="3.2" fill="#1d4ed8"/>
<circle cx="431.61" cy="410.74" r="3.2" fill="#1d4ed8"/>
<circle cx="433.86" cy="410.33" r="3.2" fill="#1d4ed8"/>
<circle cx="436.10" cy="410.33" r="3.2" fill="#1d4ed8"/>
<circle cx="438.35" cy="410.33" r="3.2" fill="#1d4ed8"/>
<circle cx="440.60" cy="409.93" r="3.2" fill="#1d4ed8"/>
<circle cx="442.85" cy="409.93" r="3.2" fill="#1d4ed8"/>
<circle cx="445.09" cy="409.93" r="3.2" fill="#1d4ed8"/>
<circle cx="447.34" cy="409.52" r="3.2" fill="#1d4ed8"/>
<circle cx="449.59" cy="409.52" r="3.2" fill="#1d4ed8"/>
<circle cx="451.84" cy="409.12" r="3.2" fill="#1d4ed8"/>
<circle cx="454.08" cy="409.52" r="3.2" fill="#1d4ed8"/>
<circle cx="456.33" cy="409.12" r="3.2" fill="#1d4ed8"/>
<circle cx="458.58" cy="407.50" r="3.2" fill="#1d4ed8"/>
<circle cx="460.82" cy="407.10" r="3.2" fill="#1d4ed8"/>
<circle cx="463.07" cy="403.05" r="3.2" fill="#1d4ed8"/>
<circle cx="465.32" cy="399.82" r="3.2" fill="#1d4ed8"/>
<circle cx="467.57" cy="400.22" r="3.2" fill="#1d4ed8"/>
<circle cx="469.81" cy="400.62" r="3.2" fill="#1d4ed8"/>
<circle cx="472.06" cy="400.62" r="3.2" fill="#1d4ed8"/>
<circle cx="474.31" cy="399.41" r="3.2" fill="#1d4ed8"/>
<circle cx="476.56" cy="392.94" r="3.2" fill="#1d4ed8"/>
<circle cx="478.80" cy="391.32" r="3.2" fill="#1d4ed8"/>
<circle cx="481.05" cy="389.30" r="3.2" fill="#1d4ed8"/>
<circle cx="483.30" cy="389.30" r="3.2" fill="#1d4ed8"/>
<circle cx="485.55" cy="388.49" r="3.2" fill="#1d4ed8"/>
<circle cx="487.79" cy="375.15" r="3.2" fill="#1d4ed8"/>
<circle cx="490.04" cy="374.74" r="3.2" fill="#1d4ed8"/>
<circle cx="492.29" cy="374.74" r="3.2" fill="#1d4ed8"/>
<circle cx="494.54" cy="374.74" r="3.2" fill="#1d4ed8"/>
<circle cx="496.78" cy="374.74" r="3.2" fill="#1d4ed8"/>
<circle cx="499.03" cy="374.34" r="3.2" fill="#1d4ed8"/>
<circle cx="501.28" cy="374.34" r="3.2" fill="#1d4ed8"/>
<circle cx="503.53" cy="374.34" r="3.2" fill="#1d4ed8"/>
<circle cx="505.77" cy="374.34" r="3.2" fill="#1d4ed8"/>
<circle cx="508.02" cy="374.34" r="3.2" fill="#1d4ed8"/>
<circle cx="510.27" cy="373.93" r="3.2" fill="#1d4ed8"/>
<circle cx="512.52" cy="373.12" r="3.2" fill="#1d4ed8"/>
<circle cx="514.76" cy="372.72" r="3.2" fill="#1d4ed8"/>
<circle cx="517.01" cy="373.53" r="3.2" fill="#1d4ed8"/>
<circle cx="519.26" cy="435.81" r="3.2" fill="#1d4ed8"/>
<circle cx="521.51" cy="372.32" r="3.2" fill="#1d4ed8"/>
<circle cx="523.75" cy="372.72" r="3.2" fill="#1d4ed8"/>
<circle cx="526.00" cy="371.91" r="3.2" fill="#1d4ed8"/>
<circle cx="528.25" cy="371.91" r="3.2" fill="#1d4ed8"/>
<circle cx="530.49" cy="372.32" r="3.2" fill="#1d4ed8"/>
<circle cx="532.74" cy="371.10" r="3.2" fill="#1d4ed8"/>
<circle cx="534.99" cy="369.89" r="3.2" fill="#1d4ed8"/>
<circle cx="537.24" cy="369.89" r="3.2" fill="#1d4ed8"/>
<circle cx="539.48" cy="369.89" r="3.2" fill="#1d4ed8"/>
<circle cx="541.73" cy="369.49" r="3.2" fill="#1d4ed8"/>
<circle cx="543.98" cy="369.89" r="3.2" fill="#1d4ed8"/>
<circle cx="546.23" cy="369.08" r="3.2" fill="#1d4ed8"/>
<circle cx="548.47" cy="368.68" r="3.2" fill="#1d4ed8"/>
<circle cx="550.72" cy="368.27" r="3.2" fill="#1d4ed8"/>
<circle cx="552.97" cy="367.87" r="3.2" fill="#1d4ed8"/>
<circle cx="555.22" cy="367.06" r="3.2" fill="#1d4ed8"/>
<circle cx="557.46" cy="367.46" r="3.2" fill="#1d4ed8"/>
<circle cx="559.71" cy="367.06" r="3.2" fill="#1d4ed8"/>
<circle cx="561.96" cy="366.25" r="3.2" fill="#1d4ed8"/>
<circle cx="564.21" cy="368.27" r="3.2" fill="#1d4ed8"/>
<circle cx="566.45" cy="368.68" r="3.2" fill="#1d4ed8"/>
<circle cx="568.70" cy="368.68" r="3.2" fill="#1d4ed8"/>
<circle cx="570.95" cy="368.27" r="3.2" fill="#1d4ed8"/>
<circle cx="573.20" cy="369.08" r="3.2" fill="#1d4ed8"/>
<circle cx="575.44" cy="367.87" r="3.2" fill="#1d4ed8"/>
<circle cx="577.69" cy="367.46" r="3.2" fill="#1d4ed8"/>
<circle cx="579.94" cy="367.06" r="3.2" fill="#1d4ed8"/>
<circle cx="582.19" cy="360.18" r="3.2" fill="#1d4ed8"/>
<circle cx="584.43" cy="359.78" r="3.2" fill="#1d4ed8"/>
<circle cx="586.68" cy="359.38" r="3.2" fill="#1d4ed8"/>
<circle cx="588.93" cy="356.95" r="3.2" fill="#1d4ed8"/>
<circle cx="591.18" cy="357.35" r="3.2" fill="#1d4ed8"/>
<circle cx="593.42" cy="357.76" r="3.2" fill="#1d4ed8"/>
<circle cx="595.67" cy="355.33" r="3.2" fill="#1d4ed8"/>
<circle cx="597.92" cy="355.74" r="3.2" fill="#1d4ed8"/>
<circle cx="600.16" cy="357.35" r="3.2" fill="#1d4ed8"/>
<circle cx="602.41" cy="355.33" r="3.2" fill="#1d4ed8"/>
<circle cx="604.66" cy="356.14" r="3.2" fill="#1d4ed8"/>
<circle cx="606.91" cy="355.74" r="3.2" fill="#1d4ed8"/>
<circle cx="609.15" cy="356.14" r="3.2" fill="#1d4ed8"/>
<circle cx="611.40" cy="354.12" r="3.2" fill="#1d4ed8"/>
<circle cx="613.65" cy="354.93" r="3.2" fill="#1d4ed8"/>
<circle cx="615.90" cy="356.14" r="3.2" fill="#1d4ed8"/>
<circle cx="618.14" cy="354.52" r="3.2" fill="#1d4ed8"/>
<circle cx="620.39" cy="353.71" r="3.2" fill="#1d4ed8"/>
<circle cx="622.64" cy="354.12" r="3.2" fill="#1d4ed8"/>
<circle cx="624.89" cy="354.93" r="3.2" fill="#1d4ed8"/>
<circle cx="627.13" cy="352.90" r="3.2" fill="#1d4ed8"/>
<circle cx="629.38" cy="353.71" r="3.2" fill="#1d4ed8"/>
<circle cx="631.63" cy="353.31" r="3.2" fill="#1d4ed8"/>
<circle cx="633.88" cy="353.31" r="3.2" fill="#1d4ed8"/>
<circle cx="636.12" cy="354.52" r="3.2" fill="#1d4ed8"/>
<circle cx="638.37" cy="352.90" r="3.2" fill="#1d4ed8"/>
<circle cx="640.62" cy="352.50" r="3.2" fill="#1d4ed8"/>
<circle cx="642.87" cy="352.50" r="3.2" fill="#1d4ed8"/>
<circle cx="645.11" cy="353.31" r="3.2" fill="#1d4ed8"/>
<circle cx="647.36" cy="352.50" r="3.2" fill="#1d4ed8"/>
<circle cx="649.61" cy="353.71" r="3.2" fill="#1d4ed8"/>
<circle cx="651.86" cy="354.12" r="3.2" fill="#1d4ed8"/>
<circle cx="654.10" cy="352.50" r="3.2" fill="#1d4ed8"/>
<circle cx="656.35" cy="352.90" r="3.2" fill="#1d4ed8"/>
<circle cx="658.60" cy="352.50" r="3.2" fill="#1d4ed8"/>
<circle cx="660.85" cy="352.10" r="3.2" fill="#1d4ed8"/>
<circle cx="663.09" cy="351.69" r="3.2" fill="#1d4ed8"/>
<circle cx="665.34" cy="352.10" r="3.2" fill="#1d4ed8"/>
<circle cx="667.59" cy="354.12" r="3.2" fill="#1d4ed8"/>
<circle cx="669.84" cy="352.50" r="3.2" fill="#1d4ed8"/>
<circle cx="672.08" cy="352.10" r="3.2" fill="#1d4ed8"/>
<circle cx="674.33" cy="352.10" r="3.2" fill="#1d4ed8"/>
<circle cx="676.58" cy="349.67" r="3.2" fill="#1d4ed8"/>
<circle cx="678.82" cy="349.67" r="3.2" fill="#1d4ed8"/>
<circle cx="681.07" cy="350.88" r="3.2" fill="#1d4ed8"/>
<circle cx="683.32" cy="351.29" r="3.2" fill="#1d4ed8"/>
<circle cx="685.57" cy="350.48" r="3.2" fill="#1d4ed8"/>
<circle cx="687.81" cy="352.10" r="3.2" fill="#1d4ed8"/>
<circle cx="690.06" cy="350.48" r="3.2" fill="#1d4ed8"/>
<circle cx="692.31" cy="350.48" r="3.2" fill="#1d4ed8"/>
<circle cx="694.56" cy="350.48" r="3.2" fill="#1d4ed8"/>
<circle cx="696.80" cy="350.07" r="3.2" fill="#1d4ed8"/>
<circle cx="699.05" cy="348.46" r="3.2" fill="#1d4ed8"/>
<circle cx="701.30" cy="351.29" r="3.2" fill="#1d4ed8"/>
<circle cx="703.55" cy="349.67" r="3.2" fill="#1d4ed8"/>
<circle cx="705.79" cy="351.29" r="3.2" fill="#1d4ed8"/>
<circle cx="708.04" cy="349.67" r="3.2" fill="#1d4ed8"/>
<circle cx="710.29" cy="348.86" r="3.2" fill="#1d4ed8"/>
<circle cx="712.54" cy="348.46" r="3.2" fill="#1d4ed8"/>
<circle cx="714.78" cy="348.46" r="3.2" fill="#1d4ed8"/>
<circle cx="717.03" cy="347.24" r="3.2" fill="#1d4ed8"/>
<circle cx="719.28" cy="348.86" r="3.2" fill="#1d4ed8"/>
<circle cx="721.53" cy="346.84" r="3.2" fill="#1d4ed8"/>
<circle cx="723.77" cy="348.46" r="3.2" fill="#1d4ed8"/>
<circle cx="726.02" cy="348.86" r="3.2" fill="#1d4ed8"/>
<circle cx="728.27" cy="346.84" r="3.2" fill="#1d4ed8"/>
<circle cx="730.52" cy="349.26" r="3.2" fill="#1d4ed8"/>
<circle cx="732.76" cy="348.05" r="3.2" fill="#1d4ed8"/>
<circle cx="735.01" cy="349.26" r="3.2" fill="#1d4ed8"/>
<circle cx="737.26" cy="349.26" r="3.2" fill="#1d4ed8"/>
<circle cx="739.51" cy="350.48" r="3.2" fill="#1d4ed8"/>
<circle cx="741.75" cy="352.90" r="3.2" fill="#1d4ed8"/>
<circle cx="744.00" cy="349.67" r="3.2" fill="#1d4ed8"/>
<circle cx="746.25" cy="348.46" r="3.2" fill="#1d4ed8"/>
<circle cx="748.49" cy="345.62" r="3.2" fill="#1d4ed8"/>
<circle cx="750.74" cy="344.82" r="3.2" fill="#1d4ed8"/>
<circle cx="752.99" cy="344.41" r="3.2" fill="#1d4ed8"/>
<circle cx="755.24" cy="342.39" r="3.2" fill="#1d4ed8"/>
<circle cx="757.48" cy="341.18" r="3.2" fill="#1d4ed8"/>
<circle cx="759.73" cy="341.58" r="3.2" fill="#1d4ed8"/>
<circle cx="761.98" cy="339.15" r="3.2" fill="#1d4ed8"/>
<circle cx="764.23" cy="338.35" r="3.2" fill="#1d4ed8"/>
<circle cx="766.47" cy="337.54" r="3.2" fill="#1d4ed8"/>
<circle cx="768.72" cy="336.73" r="3.2" fill="#1d4ed8"/>
<circle cx="770.97" cy="335.92" r="3.2" fill="#1d4ed8"/>
<circle cx="773.22" cy="337.54" r="3.2" fill="#1d4ed8"/>
<circle cx="775.46" cy="338.35" r="3.2" fill="#1d4ed8"/>
<circle cx="777.71" cy="337.54" r="3.2" fill="#1d4ed8"/>
<circle cx="779.96" cy="337.54" r="3.2" fill="#1d4ed8"/>
<circle cx="782.21" cy="337.54" r="3.2" fill="#1d4ed8"/>
<circle cx="784.45" cy="333.09" r="3.2" fill="#1d4ed8"/>
<circle cx="786.70" cy="333.90" r="3.2" fill="#1d4ed8"/>
<circle cx="788.95" cy="335.92" r="3.2" fill="#1d4ed8"/>
<circle cx="791.20" cy="336.73" r="3.2" fill="#1d4ed8"/>
<circle cx="793.44" cy="335.51" r="3.2" fill="#1d4ed8"/>
<circle cx="795.69" cy="332.28" r="3.2" fill="#1d4ed8"/>
<circle cx="797.94" cy="331.47" r="3.2" fill="#1d4ed8"/>
<circle cx="800.19" cy="331.07" r="3.2" fill="#1d4ed8"/>
<circle cx="802.43" cy="331.47" r="3.2" fill="#1d4ed8"/>
<circle cx="804.68" cy="331.07" r="3.2" fill="#1d4ed8"/>
<circle cx="806.93" cy="331.07" r="3.2" fill="#1d4ed8"/>
<circle cx="809.18" cy="331.07" r="3.2" fill="#1d4ed8"/>
<circle cx="811.42" cy="331.07" r="3.2" fill="#1d4ed8"/>
<circle cx="813.67" cy="331.07" r="3.2" fill="#1d4ed8"/>
<circle cx="815.92" cy="331.07" r="3.2" fill="#1d4ed8"/>
<circle cx="818.16" cy="331.07" r="3.2" fill="#1d4ed8"/>
<circle cx="820.41" cy="331.07" r="3.2" fill="#1d4ed8"/>
<circle cx="822.66" cy="331.07" r="3.2" fill="#1d4ed8"/>
<circle cx="824.91" cy="331.07" r="3.2" fill="#1d4ed8"/>
<circle cx="827.15" cy="331.47" r="3.2" fill="#1d4ed8"/>
<circle cx="829.40" cy="331.88" r="3.2" fill="#1d4ed8"/>
<circle cx="831.65" cy="331.07" r="3.2" fill="#1d4ed8"/>
<circle cx="833.90" cy="331.47" r="3.2" fill="#1d4ed8"/>
<circle cx="836.14" cy="331.07" r="3.2" fill="#1d4ed8"/>
<circle cx="838.39" cy="331.47" r="3.2" fill="#1d4ed8"/>
<circle cx="840.64" cy="331.07" r="3.2" fill="#1d4ed8"/>
<circle cx="842.89" cy="324.19" r="3.2" fill="#1d4ed8"/>
<circle cx="845.13" cy="324.19" r="3.2" fill="#1d4ed8"/>
<circle cx="847.38" cy="318.93" r="3.2" fill="#1d4ed8"/>
<circle cx="849.63" cy="316.51" r="3.2" fill="#1d4ed8"/>
<circle cx="851.88" cy="310.44" r="3.2" fill="#1d4ed8"/>
<circle cx="854.12" cy="308.01" r="3.2" fill="#1d4ed8"/>
<circle cx="856.37" cy="600.00" r="3.2" fill="#1d4ed8"/>
<circle cx="858.62" cy="301.54" r="3.2" fill="#1d4ed8"/>
<circle cx="860.87" cy="290.22" r="3.2" fill="#1d4ed8"/>
<circle cx="863.11" cy="287.79" r="3.2" fill="#1d4ed8"/>
<circle cx="865.36" cy="286.18" r="3.2" fill="#1d4ed8"/>
<circle cx="867.61" cy="285.77" r="3.2" fill="#1d4ed8"/>
<circle cx="869.86" cy="285.77" r="3.2" fill="#1d4ed8"/>
<circle cx="872.10" cy="285.77" r="3.2" fill="#1d4ed8"/>
<circle cx="874.35" cy="286.18" r="3.2" fill="#1d4ed8"/>
<circle cx="876.60" cy="285.77" r="3.2" fill="#1d4ed8"/>
<circle cx="878.85" cy="285.77" r="3.2" fill="#1d4ed8"/>
<circle cx="881.09" cy="285.77" r="3.2" fill="#1d4ed8"/>
<circle cx="883.34" cy="283.35" r="3.2" fill="#1d4ed8"/>
<circle cx="885.59" cy="282.94" r="3.2" fill="#1d4ed8"/>
<circle cx="887.84" cy="282.94" r="3.2" fill="#1d4ed8"/>
<circle cx="890.08" cy="283.35" r="3.2" fill="#1d4ed8"/>
<circle cx="892.33" cy="282.94" r="3.2" fill="#1d4ed8"/>
<circle cx="894.58" cy="282.94" r="3.2" fill="#1d4ed8"/>
<circle cx="896.82" cy="283.75" r="3.2" fill="#1d4ed8"/>
<circle cx="899.07" cy="282.13" r="3.2" fill="#1d4ed8"/>
<circle cx="901.32" cy="282.13" r="3.2" fill="#1d4ed8"/>
<circle cx="903.57" cy="282.54" r="3.2" fill="#1d4ed8"/>
<circle cx="905.81" cy="282.13" r="3.2" fill="#1d4ed8"/>
<circle cx="908.06" cy="282.54" r="3.2" fill="#1d4ed8"/>
<circle cx="910.31" cy="282.94" r="3.2" fill="#1d4ed8"/>
<circle cx="912.56" cy="281.73" r="3.2" fill="#1d4ed8"/>
<circle cx="914.80" cy="282.54" r="3.2" fill="#1d4ed8"/>
<circle cx="917.05" cy="281.73" r="3.2" fill="#1d4ed8"/>
<circle cx="919.30" cy="282.54" r="3.2" fill="#1d4ed8"/>
<circle cx="921.55" cy="282.13" r="3.2" fill="#1d4ed8"/>
<circle cx="923.79" cy="282.13" r="3.2" fill="#1d4ed8"/>
<circle cx="926.04" cy="281.73" r="3.2" fill="#1d4ed8"/>
<circle cx="928.29" cy="281.73" r="3.2" fill="#1d4ed8"/>
<circle cx="930.54" cy="281.32" r="3.2" fill="#1d4ed8"/>
<circle cx="932.78" cy="281.73" r="3.2" fill="#1d4ed8"/>
<circle cx="935.03" cy="282.13" r="3.2" fill="#1d4ed8"/>
<circle cx="937.28" cy="281.32" r="3.2" fill="#1d4ed8"/>
<circle cx="939.53" cy="281.32" r="3.2" fill="#1d4ed8"/>
<circle cx="941.77" cy="282.54" r="3.2" fill="#1d4ed8"/>
<circle cx="944.02" cy="282.13" r="3.2" fill="#1d4ed8"/>
<circle cx="946.27" cy="281.32" r="3.2" fill="#1d4ed8"/>
<circle cx="948.52" cy="281.32" r="3.2" fill="#1d4ed8"/>
<circle cx="950.76" cy="281.32" r="3.2" fill="#1d4ed8"/>
<circle cx="953.01" cy="282.54" r="3.2" fill="#1d4ed8"/>
<circle cx="955.26" cy="282.13" r="3.2" fill="#1d4ed8"/>
<circle cx="957.51" cy="281.32" r="3.2" fill="#1d4ed8"/>
<circle cx="959.75" cy="282.13" r="3.2" fill="#1d4ed8"/>
<circle cx="962.00" cy="281.73" r="3.2" fill="#1d4ed8"/>
<circle cx="964.25" cy="282.13" r="3.2" fill="#1d4ed8"/>
<circle cx="966.49" cy="280.11" r="3.2" fill="#1d4ed8"/>
<circle cx="968.74" cy="280.11" r="3.2" fill="#1d4ed8"/>
<circle cx="970.99" cy="280.51" r="3.2" fill="#1d4ed8"/>
<circle cx="973.24" cy="279.71" r="3.2" fill="#1d4ed8"/>
<circle cx="975.48" cy="280.11" r="3.2" fill="#1d4ed8"/>
<circle cx="977.73" cy="280.51" r="3.2" fill="#1d4ed8"/>
<circle cx="979.98" cy="279.71" r="3.2" fill="#1d4ed8"/>
<circle cx="982.23" cy="280.11" r="3.2" fill="#1d4ed8"/>
<circle cx="984.47" cy="280.11" r="3.2" fill="#1d4ed8"/>
<circle cx="986.72" cy="279.30" r="3.2" fill="#1d4ed8"/>
<circle cx="988.97" cy="278.90" r="3.2" fill="#1d4ed8"/>
<circle cx="991.22" cy="278.90" r="3.2" fill="#1d4ed8"/>
<circle cx="993.46" cy="280.51" r="3.2" fill="#1d4ed8"/>
<circle cx="995.71" cy="279.30" r="3.2" fill="#1d4ed8"/>
<circle cx="997.96" cy="278.09" r="3.2" fill="#1d4ed8"/>
<circle cx="1000.21" cy="278.49" r="3.2" fill="#1d4ed8"/>
<circle cx="1002.45" cy="278.49" r="3.2" fill="#1d4ed8"/>
<circle cx="1004.70" cy="277.28" r="3.2" fill="#1d4ed8"/>
<circle cx="1006.95" cy="277.68" r="3.2" fill="#1d4ed8"/>
<circle cx="1009.20" cy="277.68" r="3.2" fill="#1d4ed8"/>
<circle cx="1011.44" cy="278.09" r="3.2" fill="#1d4ed8"/>
<circle cx="1013.69" cy="277.28" r="3.2" fill="#1d4ed8"/>
<circle cx="1015.94" cy="600.00" r="3.2" fill="#1d4ed8"/>
<circle cx="1018.19" cy="278.90" r="3.2" fill="#1d4ed8"/>
<circle cx="1020.43" cy="279.30" r="3.2" fill="#1d4ed8"/>
<circle cx="1022.68" cy="278.90" r="3.2" fill="#1d4ed8"/>
<circle cx="1024.93" cy="278.49" r="3.2" fill="#1d4ed8"/>
<circle cx="1027.18" cy="278.49" r="3.2" fill="#1d4ed8"/>
<circle cx="1029.42" cy="278.49" r="3.2" fill="#1d4ed8"/>
<circle cx="1031.67" cy="278.49" r="3.2" fill="#1d4ed8"/>
<circle cx="1033.92" cy="278.49" r="3.2" fill="#1d4ed8"/>
<circle cx="1036.16" cy="278.49" r="3.2" fill="#1d4ed8"/>
<circle cx="1038.41" cy="278.49" r="3.2" fill="#1d4ed8"/>
<circle cx="1040.66" cy="278.49" r="3.2" fill="#1d4ed8"/>
<circle cx="1042.91" cy="278.49" r="3.2" fill="#1d4ed8"/>
<circle cx="1045.15" cy="278.49" r="3.2" fill="#1d4ed8"/>
<circle cx="1047.40" cy="278.49" r="3.2" fill="#1d4ed8"/>
<circle cx="1049.65" cy="278.49" r="3.2" fill="#1d4ed8"/>
<circle cx="1051.90" cy="600.00" r="3.2" fill="#1d4ed8"/>
<circle cx="1054.14" cy="600.00" r="3.2" fill="#1d4ed8"/>
<circle cx="1056.39" cy="254.63" r="3.2" fill="#1d4ed8"/>
<circle cx="1058.64" cy="600.00" r="3.2" fill="#1d4ed8"/>
<circle cx="1060.89" cy="245.74" r="3.2" fill="#1d4ed8"/>
<circle cx="1063.13" cy="245.74" r="3.2" fill="#1d4ed8"/>
<circle cx="1065.38" cy="246.14" r="3.2" fill="#1d4ed8"/>
<circle cx="1067.63" cy="245.74" r="3.2" fill="#1d4ed8"/>
<circle cx="1069.88" cy="245.74" r="3.2" fill="#1d4ed8"/>
<circle cx="1072.12" cy="245.74" r="3.2" fill="#1d4ed8"/>
<circle cx="1074.37" cy="245.74" r="3.2" fill="#1d4ed8"/>
<circle cx="1076.62" cy="245.74" r="3.2" fill="#1d4ed8"/>
<circle cx="1078.87" cy="240.07" r="3.2" fill="#1d4ed8"/>
<circle cx="1081.11" cy="238.05" r="3.2" fill="#1d4ed8"/>
<circle cx="1083.36" cy="238.05" r="3.2" fill="#1d4ed8"/>
<circle cx="1085.61" cy="227.13" r="3.2" fill="#1d4ed8"/>
<circle cx="1087.86" cy="227.13" r="3.2" fill="#1d4ed8"/>
<circle cx="1090.10" cy="226.32" r="3.2" fill="#1d4ed8"/>
<circle cx="1092.35" cy="227.54" r="3.2" fill="#1d4ed8"/>
<circle cx="1094.60" cy="226.73" r="3.2" fill="#1d4ed8"/>
<circle cx="1096.85" cy="226.32" r="3.2" fill="#1d4ed8"/>
<circle cx="1099.09" cy="227.13" r="3.2" fill="#1d4ed8"/>
<circle cx="1101.34" cy="227.13" r="3.2" fill="#1d4ed8"/>
<circle cx="1103.59" cy="226.73" r="3.2" fill="#1d4ed8"/>
<circle cx="1105.84" cy="226.32" r="3.2" fill="#1d4ed8"/>
<circle cx="1108.08" cy="226.73" r="3.2" fill="#1d4ed8"/>
<circle cx="1110.33" cy="226.73" r="3.2" fill="#1d4ed8"/>
<circle cx="1112.58" cy="226.73" r="3.2" fill="#1d4ed8"/>
<circle cx="1114.82" cy="225.11" r="3.2" fill="#1d4ed8"/>
<circle cx="1117.07" cy="224.71" r="3.2" fill="#1d4ed8"/>
<circle cx="1119.32" cy="225.11" r="3.2" fill="#1d4ed8"/>
<circle cx="1121.57" cy="224.30" r="3.2" fill="#1d4ed8"/>
<circle cx="1123.81" cy="226.32" r="3.2" fill="#1d4ed8"/>
<circle cx="1126.06" cy="224.30" r="3.2" fill="#1d4ed8"/>
<circle cx="1128.31" cy="225.51" r="3.2" fill="#1d4ed8"/>
<circle cx="1130.56" cy="225.51" r="3.2" fill="#1d4ed8"/>
<circle cx="1132.80" cy="225.51" r="3.2" fill="#1d4ed8"/>
<circle cx="1135.05" cy="225.92" r="3.2" fill="#1d4ed8"/>
<circle cx="1137.30" cy="223.09" r="3.2" fill="#1d4ed8"/>
<circle cx="1139.55" cy="223.49" r="3.2" fill="#1d4ed8"/>
<circle cx="1141.79" cy="223.09" r="3.2" fill="#1d4ed8"/>
<circle cx="1144.04" cy="223.09" r="3.2" fill="#1d4ed8"/>
<circle cx="1146.29" cy="223.90" r="3.2" fill="#1d4ed8"/>
<circle cx="1148.54" cy="223.49" r="3.2" fill="#1d4ed8"/>
<circle cx="1150.78" cy="223.49" r="3.2" fill="#1d4ed8"/>
<circle cx="1153.03" cy="223.09" r="3.2" fill="#1d4ed8"/>
<circle cx="1155.28" cy="223.09" r="3.2" fill="#1d4ed8"/>
<circle cx="1157.53" cy="223.49" r="3.2" fill="#1d4ed8"/>
<circle cx="1159.77" cy="223.09" r="3.2" fill="#1d4ed8"/>
<circle cx="1162.02" cy="223.09" r="3.2" fill="#1d4ed8"/>
<circle cx="1164.27" cy="223.49" r="3.2" fill="#1d4ed8"/>
<circle cx="1166.52" cy="223.49" r="3.2" fill="#1d4ed8"/>
<circle cx="1168.76" cy="223.09" r="3.2" fill="#1d4ed8"/>
<circle cx="1171.01" cy="223.09" r="3.2" fill="#1d4ed8"/>
<circle cx="1173.26" cy="223.49" r="3.2" fill="#1d4ed8"/>
<circle cx="1175.51" cy="223.09" r="3.2" fill="#1d4ed8"/>
<circle cx="1177.75" cy="223.09" r="3.2" fill="#1d4ed8"/>
<circle cx="1180.00" cy="223.09" r="3.2" fill="#1d4ed8"/>
<text x="635" y="695" text-anchor="middle" font-size="14" fill="#111" font-family="sans-serif">Date</text>
<text x="24" y="325" text-anchor="middle" font-size="14" fill="#111" transform="rotate(-90 24,325)" font-family="sans-serif">Passed files</text>
</svg>
