<?xml version="1.0" encoding="UTF-8"?>
<svg xmlns="http://www.w3.org/2000/svg" width="1280" height="720" viewBox="0 0 1280 720">
<rect width="100%" height="100%" fill="#ffffff"/>
<text x="640" y="30" text-anchor="middle" font-size="22" font-family="sans-serif">Roast passed files history</text>
<line x1="90" y1="600" x2="1180" y2="600" stroke="#333" stroke-width="1.5"/>
<line x1="90" y1="50" x2="90" y2="600" stroke="#333" stroke-width="1.5"/>
<line x1="90" y1="600.00" x2="1180" y2="600.00" stroke="#e5e7eb" stroke-width="1"/>
<text x="78" y="605.00" text-anchor="end" font-size="12" fill="#111" font-family="sans-serif">0</text>
<line x1="90" y1="397.79" x2="1180" y2="397.79" stroke="#e5e7eb" stroke-width="1"/>
<text x="78" y="402.79" text-anchor="end" font-size="12" fill="#111" font-family="sans-serif">500</text>
<line x1="90" y1="195.59" x2="1180" y2="195.59" stroke="#e5e7eb" stroke-width="1"/>
<text x="78" y="200.59" text-anchor="end" font-size="12" fill="#111" font-family="sans-serif">1000</text>
<line x1="90.00" y1="600" x2="90.00" y2="606" stroke="#333" stroke-width="1"/>
<text x="90.00" y="624" text-anchor="end" font-size="11" fill="#111" transform="rotate(-40 90.00,624)" font-family="sans-serif">2026-02-12</text>
<line x1="225.91" y1="600" x2="225.91" y2="606" stroke="#333" stroke-width="1"/>
<text x="225.91" y="624" text-anchor="end" font-size="11" fill="#111" transform="rotate(-40 225.91,624)" font-family="sans-serif">2026-02-17</text>
<line x1="361.82" y1="600" x2="361.82" y2="606" stroke="#333" stroke-width="1"/>
<text x="361.82" y="624" text-anchor="end" font-size="11" fill="#111" transform="rotate(-40 361.82,624)" font-family="sans-serif">2026-02-23</text>
<line x1="497.73" y1="600" x2="497.73" y2="606" stroke="#333" stroke-width="1"/>
<text x="497.73" y="624" text-anchor="end" font-size="11" fill="#111" transform="rotate(-40 497.73,624)" font-family="sans-serif">2026-02-26</text>
<line x1="633.64" y1="600" x2="633.64" y2="606" stroke="#333" stroke-width="1"/>
<text x="633.64" y="624" text-anchor="end" font-size="11" fill="#111" transform="rotate(-40 633.64,624)" font-family="sans-serif">2026-03-01</text>
<line x1="769.55" y1="600" x2="769.55" y2="606" stroke="#333" stroke-width="1"/>
<text x="769.55" y="624" text-anchor="end" font-size="11" fill="#111" transform="rotate(-40 769.55,624)" font-family="sans-serif">2026-03-06</text>
<line x1="905.46" y1="600" x2="905.46" y2="606" stroke="#333" stroke-width="1"/>
<text x="905.46" y="624" text-anchor="end" font-size="11" fill="#111" transform="rotate(-40 905.46,624)" font-family="sans-serif">2026-03-08</text>
<line x1="1041.37" y1="600" x2="1041.37" y2="606" stroke="#333" stroke-width="1"/>
<text x="1041.37" y="624" text-anchor="end" font-size="11" fill="#111" transform="rotate(-40 1041.37,624)" font-family="sans-serif">2026-03-18</text>
<line x1="1177.28" y1="600" x2="1177.28" y2="606" stroke="#333" stroke-width="1"/>
<text x="1177.28" y="624" text-anchor="end" font-size="11" fill="#111" transform="rotate(-40 1177.28,624)" font-family="sans-serif">2026-03-19</text>
<line x1="1180.00" y1="600" x2="1180.00" y2="606" stroke="#333" stroke-width="1"/>
<text x="1180.00" y="624" text-anchor="end" font-size="11" fill="#111" transform="rotate(-40 1180.00,624)" font-family="sans-serif">2026-03-19</text>
<line x1="90" y1="75.88" x2="1180" y2="75.88" stroke="#dc2626" stroke-width="1.5" stroke-dasharray="8,4"/>
<text x="1184" y="79.88" font-size="12" fill="#dc2626" font-family="sans-serif">Goal: 1296</text>
<polyline fill="none" stroke="#2563eb" stroke-width="3" points="90.00,540.55 92.72,538.53 95.44,536.91 98.15,534.49 100.87,534.49 103.59,533.27 106.31,532.46 109.03,532.87 111.75,532.06 114.46,532.46 117.18,532.06 119.90,568.46 122.62,568.46 125.34,566.43 128.05,545.00 130.77,545.00 133.49,544.19 136.21,543.79 138.93,543.79 141.65,543.38 144.36,541.76 147.08,541.36 149.80,540.96 152.52,540.96 155.24,539.34 157.96,539.34 160.67,556.73 163.39,556.73 166.11,555.51 168.83,551.07 171.55,538.93 174.26,538.93 176.98,538.93 179.70,538.12 182.42,536.91 185.14,536.91 187.86,536.51 190.57,536.51 193.29,556.73 196.01,556.73 198.73,556.73 201.45,556.73 204.16,535.29 206.88,535.29 209.60,535.29 212.32,535.29 215.04,534.49 217.76,534.08 220.47,533.68 223.19,532.87 225.91,532.06 228.63,532.06 231.35,531.25 234.06,530.85 236.78,530.44 239.50,530.04 242.22,530.04 244.94,529.23 247.66,529.23 250.37,529.23 253.09,528.42 255.81,528.42 258.53,527.61 261.25,527.21 263.97,526.80 266.68,526.40 269.40,525.18 272.12,523.57 274.84,523.57 277.56,523.16 280.27,522.76 282.99,522.35 285.71,521.54 288.43,519.52 291.15,517.50 293.87,517.50 296.58,517.50 299.30,517.50 302.02,517.50 304.74,517.50 307.46,517.10 310.17,516.69 312.89,515.48 315.61,515.07 318.33,514.67 321.05,513.86 323.77,514.26 326.48,512.24 329.20,511.84 331.92,511.84 334.64,511.03 337.36,509.82 340.07,507.79 342.79,506.99 345.51,506.58 348.23,509.41 350.95,509.01 353.67,504.96 356.38,504.56 359.10,504.15 361.82,504.56 364.54,503.75 367.26,503.75 369.98,503.35 372.69,499.30 375.41,496.47 378.13,490.00 380.85,484.34 383.57,481.10 386.28,480.29 389.00,480.70 391.72,460.88 394.44,459.26 397.16,458.05 399.88,456.03 402.59,456.03 405.31,454.41 408.03,450.77 410.75,444.30 413.47,443.90 416.18,600.00 418.90,441.88 421.62,440.66 424.34,439.45 427.06,439.04 429.78,438.64 432.49,437.83 435.21,436.62 437.93,436.62 440.65,434.60 443.37,432.17 446.08,429.34 448.80,428.93 451.52,428.53 454.24,427.72 456.96,426.91 459.68,426.10 462.39,426.10 465.11,426.10 467.83,419.63 470.55,419.23 473.27,418.42 475.99,418.01 478.70,417.61 481.42,417.61 484.14,417.61 486.86,417.21 489.58,417.21 492.29,413.57 495.01,411.95 497.73,412.76 500.45,410.74 503.17,410.74 505.89,410.33 508.60,410.33 511.32,410.33 514.04,409.93 516.76,409.93 519.48,409.93 522.19,409.52 524.91,409.52 527.63,409.12 530.35,409.52 533.07,409.12 535.79,407.50 538.50,407.10 541.22,403.05 543.94,399.82 546.66,400.22 549.38,400.62 552.09,400.62 554.81,399.41 557.53,392.94 560.25,391.32 562.97,389.30 565.69,389.30 568.40,388.49 571.12,375.15 573.84,374.74 576.56,374.74 579.28,374.74 582.00,374.74 584.71,374.34 587.43,374.34 590.15,374.34 592.87,374.34 595.59,374.34 598.30,373.93 601.02,373.12 603.74,372.72 606.46,373.53 609.18,435.81 611.90,372.32 614.61,372.72 617.33,371.91 620.05,371.91 622.77,372.32 625.49,371.10 628.20,369.89 630.92,369.89 633.64,369.89 636.36,369.49 639.08,369.89 641.80,369.08 644.51,368.68 647.23,368.27 649.95,367.87 652.67,367.06 655.39,367.46 658.10,367.06 660.82,366.25 663.54,368.27 666.26,368.68 668.98,368.68 671.70,368.27 674.41,369.08 677.13,367.87 679.85,367.46 682.57,367.06 685.29,360.18 688.00,359.78 690.72,359.38 693.44,356.95 696.16,357.35 698.88,357.76 701.60,355.33 704.31,355.74 707.03,357.35 709.75,355.33 712.47,356.14 715.19,355.74 717.91,356.14 720.62,354.12 723.34,354.93 726.06,356.14 728.78,354.52 731.50,353.71 734.21,354.12 736.93,354.93 739.65,352.90 742.37,353.71 745.09,353.31 747.81,353.31 750.52,354.52 753.24,352.90 755.96,352.50 758.68,352.50 761.40,353.31 764.11,352.50 766.83,353.71 769.55,354.12 772.27,352.50 774.99,352.90 777.71,352.50 780.42,352.10 783.14,351.69 785.86,352.10 788.58,354.12 791.30,352.50 794.01,352.10 796.73,352.10 799.45,349.67 802.17,349.67 804.89,350.88 807.61,351.29 810.32,350.48 813.04,352.10 815.76,350.48 818.48,350.48 821.20,350.48 823.92,350.07 826.63,348.46 829.35,351.29 832.07,349.67 834.79,351.29 837.51,349.67 840.22,348.86 842.94,348.46 845.66,348.46 848.38,347.24 851.10,348.86 853.82,346.84 856.53,348.46 859.25,348.86 861.97,346.84 864.69,349.26 867.41,348.05 870.12,349.26 872.84,349.26 875.56,350.48 878.28,352.90 881.00,349.67 883.72,348.46 886.43,345.62 889.15,344.82 891.87,344.41 894.59,342.39 897.31,341.18 900.02,341.58 902.74,339.15 905.46,338.35 908.18,337.54 910.90,336.73 913.62,335.92 916.33,337.54 919.05,338.35 921.77,337.54 924.49,337.54 927.21,337.54 929.93,333.09 932.64,333.90 935.36,335.92 938.08,336.73 940.80,335.51 943.52,332.28 946.23,331.47 948.95,331.07 951.67,331.47 954.39,331.07 957.11,331.07 959.83,331.07 962.54,331.07 965.26,331.07 967.98,331.07 970.70,331.07 973.42,331.07 976.13,331.07 978.85,331.07 981.57,331.47 984.29,331.88 987.01,331.07 989.73,331.47 992.44,331.07 995.16,331.47 997.88,331.07 1000.60,324.19 1003.32,324.19 1006.03,318.93 1008.75,316.51 1011.47,310.44 1014.19,308.01 1016.91,600.00 1019.63,301.54 1022.34,290.22 1025.06,287.79 1027.78,286.18 1030.50,285.77 1033.22,285.77 1035.94,285.77 1038.65,286.18 1041.37,285.77 1044.09,285.77 1046.81,285.77 1049.53,283.35 1052.24,282.94 1054.96,282.94 1057.68,283.35 1060.40,282.94 1063.12,282.94 1065.84,283.75 1068.55,282.13 1071.27,282.13 1073.99,282.54 1076.71,282.13 1079.43,282.54 1082.14,282.94 1084.86,281.73 1087.58,282.54 1090.30,281.73 1093.02,282.54 1095.74,282.13 1098.45,282.13 1101.17,281.73 1103.89,281.73 1106.61,281.32 1109.33,281.73 1112.04,282.13 1114.76,281.32 1117.48,281.32 1120.20,282.54 1122.92,282.13 1125.64,281.32 1128.35,281.32 1131.07,281.32 1133.79,282.54 1136.51,282.13 1139.23,281.32 1141.95,282.13 1144.66,281.73 1147.38,282.13 1150.10,280.11 1152.82,280.11 1155.54,280.51 1158.25,279.71 1160.97,280.11 1163.69,280.51 1166.41,279.71 1169.13,280.11 1171.85,280.11 1174.56,279.30 1177.28,278.90 1180.00,278.90"/>
<circle cx="90.00" cy="540.55" r="3.2" fill="#1d4ed8"/>
<circle cx="92.72" cy="538.53" r="3.2" fill="#1d4ed8"/>
<circle cx="95.44" cy="536.91" r="3.2" fill="#1d4ed8"/>
<circle cx="98.15" cy="534.49" r="3.2" fill="#1d4ed8"/>
<circle cx="100.87" cy="534.49" r="3.2" fill="#1d4ed8"/>
<circle cx="103.59" cy="533.27" r="3.2" fill="#1d4ed8"/>
<circle cx="106.31" cy="532.46" r="3.2" fill="#1d4ed8"/>
<circle cx="109.03" cy="532.87" r="3.2" fill="#1d4ed8"/>
<circle cx="111.75" cy="532.06" r="3.2" fill="#1d4ed8"/>
<circle cx="114.46" cy="532.46" r="3.2" fill="#1d4ed8"/>
<circle cx="117.18" cy="532.06" r="3.2" fill="#1d4ed8"/>
<circle cx="119.90" cy="568.46" r="3.2" fill="#1d4ed8"/>
<circle cx="122.62" cy="568.46" r="3.2" fill="#1d4ed8"/>
<circle cx="125.34" cy="566.43" r="3.2" fill="#1d4ed8"/>
<circle cx="128.05" cy="545.00" r="3.2" fill="#1d4ed8"/>
<circle cx="130.77" cy="545.00" r="3.2" fill="#1d4ed8"/>
<circle cx="133.49" cy="544.19" r="3.2" fill="#1d4ed8"/>
<circle cx="136.21" cy="543.79" r="3.2" fill="#1d4ed8"/>
<circle cx="138.93" cy="543.79" r="3.2" fill="#1d4ed8"/>
<circle cx="141.65" cy="543.38" r="3.2" fill="#1d4ed8"/>
<circle cx="144.36" cy="541.76" r="3.2" fill="#1d4ed8"/>
<circle cx="147.08" cy="541.36" r="3.2" fill="#1d4ed8"/>
<circle cx="149.80" cy="540.96" r="3.2" fill="#1d4ed8"/>
<circle cx="152.52" cy="540.96" r="3.2" fill="#1d4ed8"/>
<circle cx="155.24" cy="539.34" r="3.2" fill="#1d4ed8"/>
<circle cx="157.96" cy="539.34" r="3.2" fill="#1d4ed8"/>
<circle cx="160.67" cy="556.73" r="3.2" fill="#1d4ed8"/>
<circle cx="163.39" cy="556.73" r="3.2" fill="#1d4ed8"/>
<circle cx="166.11" cy="555.51" r="3.2" fill="#1d4ed8"/>
<circle cx="168.83" cy="551.07" r="3.2" fill="#1d4ed8"/>
<circle cx="171.55" cy="538.93" r="3.2" fill="#1d4ed8"/>
<circle cx="174.26" cy="538.93" r="3.2" fill="#1d4ed8"/>
<circle cx="176.98" cy="538.93" r="3.2" fill="#1d4ed8"/>
<circle cx="179.70" cy="538.12" r="3.2" fill="#1d4ed8"/>
<circle cx="182.42" cy="536.91" r="3.2" fill="#1d4ed8"/>
<circle cx="185.14" cy="536.91" r="3.2" fill="#1d4ed8"/>
<circle cx="187.86" cy="536.51" r="3.2" fill="#1d4ed8"/>
<circle cx="190.57" cy="536.51" r="3.2" fill="#1d4ed8"/>
<circle cx="193.29" cy="556.73" r="3.2" fill="#1d4ed8"/>
<circle cx="196.01" cy="556.73" r="3.2" fill="#1d4ed8"/>
<circle cx="198.73" cy="556.73" r="3.2" fill="#1d4ed8"/>
<circle cx="201.45" cy="556.73" r="3.2" fill="#1d4ed8"/>
<circle cx="204.16" cy="535.29" r="3.2" fill="#1d4ed8"/>
<circle cx="206.88" cy="535.29" r="3.2" fill="#1d4ed8"/>
<circle cx="209.60" cy="535.29" r="3.2" fill="#1d4ed8"/>
<circle cx="212.32" cy="535.29" r="3.2" fill="#1d4ed8"/>
<circle cx="215.04" cy="534.49" r="3.2" fill="#1d4ed8"/>
<circle cx="217.76" cy="534.08" r="3.2" fill="#1d4ed8"/>
<circle cx="220.47" cy="533.68" r="3.2" fill="#1d4ed8"/>
<circle cx="223.19" cy="532.87" r="3.2" fill="#1d4ed8"/>
<circle cx="225.91" cy="532.06" r="3.2" fill="#1d4ed8"/>
<circle cx="228.63" cy="532.06" r="3.2" fill="#1d4ed8"/>
<circle cx="231.35" cy="531.25" r="3.2" fill="#1d4ed8"/>
<circle cx="234.06" cy="530.85" r="3.2" fill="#1d4ed8"/>
<circle cx="236.78" cy="530.44" r="3.2" fill="#1d4ed8"/>
<circle cx="239.50" cy="530.04" r="3.2" fill="#1d4ed8"/>
<circle cx="242.22" cy="530.04" r="3.2" fill="#1d4ed8"/>
<circle cx="244.94" cy="529.23" r="3.2" fill="#1d4ed8"/>
<circle cx="247.66" cy="529.23" r="3.2" fill="#1d4ed8"/>
<circle cx="250.37" cy="529.23" r="3.2" fill="#1d4ed8"/>
<circle cx="253.09" cy="528.42" r="3.2" fill="#1d4ed8"/>
<circle cx="255.81" cy="528.42" r="3.2" fill="#1d4ed8"/>
<circle cx="258.53" cy="527.61" r="3.2" fill="#1d4ed8"/>
<circle cx="261.25" cy="527.21" r="3.2" fill="#1d4ed8"/>
<circle cx="263.97" cy="526.80" r="3.2" fill="#1d4ed8"/>
<circle cx="266.68" cy="526.40" r="3.2" fill="#1d4ed8"/>
<circle cx="269.40" cy="525.18" r="3.2" fill="#1d4ed8"/>
<circle cx="272.12" cy="523.57" r="3.2" fill="#1d4ed8"/>
<circle cx="274.84" cy="523.57" r="3.2" fill="#1d4ed8"/>
<circle cx="277.56" cy="523.16" r="3.2" fill="#1d4ed8"/>
<circle cx="280.27" cy="522.76" r="3.2" fill="#1d4ed8"/>
<circle cx="282.99" cy="522.35" r="3.2" fill="#1d4ed8"/>
<circle cx="285.71" cy="521.54" r="3.2" fill="#1d4ed8"/>
<circle cx="288.43" cy="519.52" r="3.2" fill="#1d4ed8"/>
<circle cx="291.15" cy="517.50" r="3.2" fill="#1d4ed8"/>
<circle cx="293.87" cy="517.50" r="3.2" fill="#1d4ed8"/>
<circle cx="296.58" cy="517.50" r="3.2" fill="#1d4ed8"/>
<circle cx="299.30" cy="517.50" r="3.2" fill="#1d4ed8"/>
<circle cx="302.02" cy="517.50" r="3.2" fill="#1d4ed8"/>
<circle cx="304.74" cy="517.50" r="3.2" fill="#1d4ed8"/>
<circle cx="307.46" cy="517.10" r="3.2" fill="#1d4ed8"/>
<circle cx="310.17" cy="516.69" r="3.2" fill="#1d4ed8"/>
<circle cx="312.89" cy="515.48" r="3.2" fill="#1d4ed8"/>
<circle cx="315.61" cy="515.07" r="3.2" fill="#1d4ed8"/>
<circle cx="318.33" cy="514.67" r="3.2" fill="#1d4ed8"/>
<circle cx="321.05" cy="513.86" r="3.2" fill="#1d4ed8"/>
<circle cx="323.77" cy="514.26" r="3.2" fill="#1d4ed8"/>
<circle cx="326.48" cy="512.24" r="3.2" fill="#1d4ed8"/>
<circle cx="329.20" cy="511.84" r="3.2" fill="#1d4ed8"/>
<circle cx="331.92" cy="511.84" r="3.2" fill="#1d4ed8"/>
<circle cx="334.64" cy="511.03" r="3.2" fill="#1d4ed8"/>
<circle cx="337.36" cy="509.82" r="3.2" fill="#1d4ed8"/>
<circle cx="340.07" cy="507.79" r="3.2" fill="#1d4ed8"/>
<circle cx="342.79" cy="506.99" r="3.2" fill="#1d4ed8"/>
<circle cx="345.51" cy="506.58" r="3.2" fill="#1d4ed8"/>
<circle cx="348.23" cy="509.41" r="3.2" fill="#1d4ed8"/>
<circle cx="350.95" cy="509.01" r="3.2" fill="#1d4ed8"/>
<circle cx="353.67" cy="504.96" r="3.2" fill="#1d4ed8"/>
<circle cx="356.38" cy="504.56" r="3.2" fill="#1d4ed8"/>
<circle cx="359.10" cy="504.15" r="3.2" fill="#1d4ed8"/>
<circle cx="361.82" cy="504.56" r="3.2" fill="#1d4ed8"/>
<circle cx="364.54" cy="503.75" r="3.2" fill="#1d4ed8"/>
<circle cx="367.26" cy="503.75" r="3.2" fill="#1d4ed8"/>
<circle cx="369.98" cy="503.35" r="3.2" fill="#1d4ed8"/>
<circle cx="372.69" cy="499.30" r="3.2" fill="#1d4ed8"/>
<circle cx="375.41" cy="496.47" r="3.2" fill="#1d4ed8"/>
<circle cx="378.13" cy="490.00" r="3.2" fill="#1d4ed8"/>
<circle cx="380.85" cy="484.34" r="3.2" fill="#1d4ed8"/>
<circle cx="383.57" cy="481.10" r="3.2" fill="#1d4ed8"/>
<circle cx="386.28" cy="480.29" r="3.2" fill="#1d4ed8"/>
<circle cx="389.00" cy="480.70" r="3.2" fill="#1d4ed8"/>
<circle cx="391.72" cy="460.88" r="3.2" fill="#1d4ed8"/>
<circle cx="394.44" cy="459.26" r="3.2" fill="#1d4ed8"/>
<circle cx="397.16" cy="458.05" r="3.2" fill="#1d4ed8"/>
<circle cx="399.88" cy="456.03" r="3.2" fill="#1d4ed8"/>
<circle cx="402.59" cy="456.03" r="3.2" fill="#1d4ed8"/>
<circle cx="405.31" cy="454.41" r="3.2" fill="#1d4ed8"/>
<circle cx="408.03" cy="450.77" r="3.2" fill="#1d4ed8"/>
<circle cx="410.75" cy="444.30" r="3.2" fill="#1d4ed8"/>
<circle cx="413.47" cy="443.90" r="3.2" fill="#1d4ed8"/>
<circle cx="416.18" cy="600.00" r="3.2" fill="#1d4ed8"/>
<circle cx="418.90" cy="441.88" r="3.2" fill="#1d4ed8"/>
<circle cx="421.62" cy="440.66" r="3.2" fill="#1d4ed8"/>
<circle cx="424.34" cy="439.45" r="3.2" fill="#1d4ed8"/>
<circle cx="427.06" cy="439.04" r="3.2" fill="#1d4ed8"/>
<circle cx="429.78" cy="438.64" r="3.2" fill="#1d4ed8"/>
<circle cx="432.49" cy="437.83" r="3.2" fill="#1d4ed8"/>
<circle cx="435.21" cy="436.62" r="3.2" fill="#1d4ed8"/>
<circle cx="437.93" cy="436.62" r="3.2" fill="#1d4ed8"/>
<circle cx="440.65" cy="434.60" r="3.2" fill="#1d4ed8"/>
<circle cx="443.37" cy="432.17" r="3.2" fill="#1d4ed8"/>
<circle cx="446.08" cy="429.34" r="3.2" fill="#1d4ed8"/>
<circle cx="448.80" cy="428.93" r="3.2" fill="#1d4ed8"/>
<circle cx="451.52" cy="428.53" r="3.2" fill="#1d4ed8"/>
<circle cx="454.24" cy="427.72" r="3.2" fill="#1d4ed8"/>
<circle cx="456.96" cy="426.91" r="3.2" fill="#1d4ed8"/>
<circle cx="459.68" cy="426.10" r="3.2" fill="#1d4ed8"/>
<circle cx="462.39" cy="426.10" r="3.2" fill="#1d4ed8"/>
<circle cx="465.11" cy="426.10" r="3.2" fill="#1d4ed8"/>
<circle cx="467.83" cy="419.63" r="3.2" fill="#1d4ed8"/>
<circle cx="470.55" cy="419.23" r="3.2" fill="#1d4ed8"/>
<circle cx="473.27" cy="418.42" r="3.2" fill="#1d4ed8"/>
<circle cx="475.99" cy="418.01" r="3.2" fill="#1d4ed8"/>
<circle cx="478.70" cy="417.61" r="3.2" fill="#1d4ed8"/>
<circle cx="481.42" cy="417.61" r="3.2" fill="#1d4ed8"/>
<circle cx="484.14" cy="417.61" r="3.2" fill="#1d4ed8"/>
<circle cx="486.86" cy="417.21" r="3.2" fill="#1d4ed8"/>
<circle cx="489.58" cy="417.21" r="3.2" fill="#1d4ed8"/>
<circle cx="492.29" cy="413.57" r="3.2" fill="#1d4ed8"/>
<circle cx="495.01" cy="411.95" r="3.2" fill="#1d4ed8"/>
<circle cx="497.73" cy="412.76" r="3.2" fill="#1d4ed8"/>
<circle cx="500.45" cy="410.74" r="3.2" fill="#1d4ed8"/>
<circle cx="503.17" cy="410.74" r="3.2" fill="#1d4ed8"/>
<circle cx="505.89" cy="410.33" r="3.2" fill="#1d4ed8"/>
<circle cx="508.60" cy="410.33" r="3.2" fill="#1d4ed8"/>
<circle cx="511.32" cy="410.33" r="3.2" fill="#1d4ed8"/>
<circle cx="514.04" cy="409.93" r="3.2" fill="#1d4ed8"/>
<circle cx="516.76" cy="409.93" r="3.2" fill="#1d4ed8"/>
<circle cx="519.48" cy="409.93" r="3.2" fill="#1d4ed8"/>
<circle cx="522.19" cy="409.52" r="3.2" fill="#1d4ed8"/>
<circle cx="524.91" cy="409.52" r="3.2" fill="#1d4ed8"/>
<circle cx="527.63" cy="409.12" r="3.2" fill="#1d4ed8"/>
<circle cx="530.35" cy="409.52" r="3.2" fill="#1d4ed8"/>
<circle cx="533.07" cy="409.12" r="3.2" fill="#1d4ed8"/>
<circle cx="535.79" cy="407.50" r="3.2" fill="#1d4ed8"/>
<circle cx="538.50" cy="407.10" r="3.2" fill="#1d4ed8"/>
<circle cx="541.22" cy="403.05" r="3.2" fill="#1d4ed8"/>
<circle cx="543.94" cy="399.82" r="3.2" fill="#1d4ed8"/>
<circle cx="546.66" cy="400.22" r="3.2" fill="#1d4ed8"/>
<circle cx="549.38" cy="400.62" r="3.2" fill="#1d4ed8"/>
<circle cx="552.09" cy="400.62" r="3.2" fill="#1d4ed8"/>
<circle cx="554.81" cy="399.41" r="3.2" fill="#1d4ed8"/>
<circle cx="557.53" cy="392.94" r="3.2" fill="#1d4ed8"/>
<circle cx="560.25" cy="391.32" r="3.2" fill="#1d4ed8"/>
<circle cx="562.97" cy="389.30" r="3.2" fill="#1d4ed8"/>
<circle cx="565.69" cy="389.30" r="3.2" fill="#1d4ed8"/>
<circle cx="568.40" cy="388.49" r="3.2" fill="#1d4ed8"/>
<circle cx="571.12" cy="375.15" r="3.2" fill="#1d4ed8"/>
<circle cx="573.84" cy="374.74" r="3.2" fill="#1d4ed8"/>
<circle cx="576.56" cy="374.74" r="3.2" fill="#1d4ed8"/>
<circle cx="579.28" cy="374.74" r="3.2" fill="#1d4ed8"/>
<circle cx="582.00" cy="374.74" r="3.2" fill="#1d4ed8"/>
<circle cx="584.71" cy="374.34" r="3.2" fill="#1d4ed8"/>
<circle cx="587.43" cy="374.34" r="3.2" fill="#1d4ed8"/>
<circle cx="590.15" cy="374.34" r="3.2" fill="#1d4ed8"/>
<circle cx="592.87" cy="374.34" r="3.2" fill="#1d4ed8"/>
<circle cx="595.59" cy="374.34" r="3.2" fill="#1d4ed8"/>
<circle cx="598.30" cy="373.93" r="3.2" fill="#1d4ed8"/>
<circle cx="601.02" cy="373.12" r="3.2" fill="#1d4ed8"/>
<circle cx="603.74" cy="372.72" r="3.2" fill="#1d4ed8"/>
<circle cx="606.46" cy="373.53" r="3.2" fill="#1d4ed8"/>
<circle cx="609.18" cy="435.81" r="3.2" fill="#1d4ed8"/>
<circle cx="611.90" cy="372.32" r="3.2" fill="#1d4ed8"/>
<circle cx="614.61" cy="372.72" r="3.2" fill="#1d4ed8"/>
<circle cx="617.33" cy="371.91" r="3.2" fill="#1d4ed8"/>
<circle cx="620.05" cy="371.91" r="3.2" fill="#1d4ed8"/>
<circle cx="622.77" cy="372.32" r="3.2" fill="#1d4ed8"/>
<circle cx="625.49" cy="371.10" r="3.2" fill="#1d4ed8"/>
<circle cx="628.20" cy="369.89" r="3.2" fill="#1d4ed8"/>
<circle cx="630.92" cy="369.89" r="3.2" fill="#1d4ed8"/>
<circle cx="633.64" cy="369.89" r="3.2" fill="#1d4ed8"/>
<circle cx="636.36" cy="369.49" r="3.2" fill="#1d4ed8"/>
<circle cx="639.08" cy="369.89" r="3.2" fill="#1d4ed8"/>
<circle cx="641.80" cy="369.08" r="3.2" fill="#1d4ed8"/>
<circle cx="644.51" cy="368.68" r="3.2" fill="#1d4ed8"/>
<circle cx="647.23" cy="368.27" r="3.2" fill="#1d4ed8"/>
<circle cx="649.95" cy="367.87" r="3.2" fill="#1d4ed8"/>
<circle cx="652.67" cy="367.06" r="3.2" fill="#1d4ed8"/>
<circle cx="655.39" cy="367.46" r="3.2" fill="#1d4ed8"/>
<circle cx="658.10" cy="367.06" r="3.2" fill="#1d4ed8"/>
<circle cx="660.82" cy="366.25" r="3.2" fill="#1d4ed8"/>
<circle cx="663.54" cy="368.27" r="3.2" fill="#1d4ed8"/>
<circle cx="666.26" cy="368.68" r="3.2" fill="#1d4ed8"/>
<circle cx="668.98" cy="368.68" r="3.2" fill="#1d4ed8"/>
<circle cx="671.70" cy="368.27" r="3.2" fill="#1d4ed8"/>
<circle cx="674.41" cy="369.08" r="3.2" fill="#1d4ed8"/>
<circle cx="677.13" cy="367.87" r="3.2" fill="#1d4ed8"/>
<circle cx="679.85" cy="367.46" r="3.2" fill="#1d4ed8"/>
<circle cx="682.57" cy="367.06" r="3.2" fill="#1d4ed8"/>
<circle cx="685.29" cy="360.18" r="3.2" fill="#1d4ed8"/>
<circle cx="688.00" cy="359.78" r="3.2" fill="#1d4ed8"/>
<circle cx="690.72" cy="359.38" r="3.2" fill="#1d4ed8"/>
<circle cx="693.44" cy="356.95" r="3.2" fill="#1d4ed8"/>
<circle cx="696.16" cy="357.35" r="3.2" fill="#1d4ed8"/>
<circle cx="698.88" cy="357.76" r="3.2" fill="#1d4ed8"/>
<circle cx="701.60" cy="355.33" r="3.2" fill="#1d4ed8"/>
<circle cx="704.31" cy="355.74" r="3.2" fill="#1d4ed8"/>
<circle cx="707.03" cy="357.35" r="3.2" fill="#1d4ed8"/>
<circle cx="709.75" cy="355.33" r="3.2" fill="#1d4ed8"/>
<circle cx="712.47" cy="356.14" r="3.2" fill="#1d4ed8"/>
<circle cx="715.19" cy="355.74" r="3.2" fill="#1d4ed8"/>
<circle cx="717.91" cy="356.14" r="3.2" fill="#1d4ed8"/>
<circle cx="720.62" cy="354.12" r="3.2" fill="#1d4ed8"/>
<circle cx="723.34" cy="354.93" r="3.2" fill="#1d4ed8"/>
<circle cx="726.06" cy="356.14" r="3.2" fill="#1d4ed8"/>
<circle cx="728.78" cy="354.52" r="3.2" fill="#1d4ed8"/>
<circle cx="731.50" cy="353.71" r="3.2" fill="#1d4ed8"/>
<circle cx="734.21" cy="354.12" r="3.2" fill="#1d4ed8"/>
<circle cx="736.93" cy="354.93" r="3.2" fill="#1d4ed8"/>
<circle cx="739.65" cy="352.90" r="3.2" fill="#1d4ed8"/>
<circle cx="742.37" cy="353.71" r="3.2" fill="#1d4ed8"/>
<circle cx="745.09" cy="353.31" r="3.2" fill="#1d4ed8"/>
<circle cx="747.81" cy="353.31" r="3.2" fill="#1d4ed8"/>
<circle cx="750.52" cy="354.52" r="3.2" fill="#1d4ed8"/>
<circle cx="753.24" cy="352.90" r="3.2" fill="#1d4ed8"/>
<circle cx="755.96" cy="352.50" r="3.2" fill="#1d4ed8"/>
<circle cx="758.68" cy="352.50" r="3.2" fill="#1d4ed8"/>
<circle cx="761.40" cy="353.31" r="3.2" fill="#1d4ed8"/>
<circle cx="764.11" cy="352.50" r="3.2" fill="#1d4ed8"/>
<circle cx="766.83" cy="353.71" r="3.2" fill="#1d4ed8"/>
<circle cx="769.55" cy="354.12" r="3.2" fill="#1d4ed8"/>
<circle cx="772.27" cy="352.50" r="3.2" fill="#1d4ed8"/>
<circle cx="774.99" cy="352.90" r="3.2" fill="#1d4ed8"/>
<circle cx="777.71" cy="352.50" r="3.2" fill="#1d4ed8"/>
<circle cx="780.42" cy="352.10" r="3.2" fill="#1d4ed8"/>
<circle cx="783.14" cy="351.69" r="3.2" fill="#1d4ed8"/>
<circle cx="785.86" cy="352.10" r="3.2" fill="#1d4ed8"/>
<circle cx="788.58" cy="354.12" r="3.2" fill="#1d4ed8"/>
<circle cx="791.30" cy="352.50" r="3.2" fill="#1d4ed8"/>
<circle cx="794.01" cy="352.10" r="3.2" fill="#1d4ed8"/>
<circle cx="796.73" cy="352.10" r="3.2" fill="#1d4ed8"/>
<circle cx="799.45" cy="349.67" r="3.2" fill="#1d4ed8"/>
<circle cx="802.17" cy="349.67" r="3.2" fill="#1d4ed8"/>
<circle cx="804.89" cy="350.88" r="3.2" fill="#1d4ed8"/>
<circle cx="807.61" cy="351.29" r="3.2" fill="#1d4ed8"/>
<circle cx="810.32" cy="350.48" r="3.2" fill="#1d4ed8"/>
<circle cx="813.04" cy="352.10" r="3.2" fill="#1d4ed8"/>
<circle cx="815.76" cy="350.48" r="3.2" fill="#1d4ed8"/>
<circle cx="818.48" cy="350.48" r="3.2" fill="#1d4ed8"/>
<circle cx="821.20" cy="350.48" r="3.2" fill="#1d4ed8"/>
<circle cx="823.92" cy="350.07" r="3.2" fill="#1d4ed8"/>
<circle cx="826.63" cy="348.46" r="3.2" fill="#1d4ed8"/>
<circle cx="829.35" cy="351.29" r="3.2" fill="#1d4ed8"/>
<circle cx="832.07" cy="349.67" r="3.2" fill="#1d4ed8"/>
<circle cx="834.79" cy="351.29" r="3.2" fill="#1d4ed8"/>
<circle cx="837.51" cy="349.67" r="3.2" fill="#1d4ed8"/>
<circle cx="840.22" cy="348.86" r="3.2" fill="#1d4ed8"/>
<circle cx="842.94" cy="348.46" r="3.2" fill="#1d4ed8"/>
<circle cx="845.66" cy="348.46" r="3.2" fill="#1d4ed8"/>
<circle cx="848.38" cy="347.24" r="3.2" fill="#1d4ed8"/>
<circle cx="851.10" cy="348.86" r="3.2" fill="#1d4ed8"/>
<circle cx="853.82" cy="346.84" r="3.2" fill="#1d4ed8"/>
<circle cx="856.53" cy="348.46" r="3.2" fill="#1d4ed8"/>
<circle cx="859.25" cy="348.86" r="3.2" fill="#1d4ed8"/>
<circle cx="861.97" cy="346.84" r="3.2" fill="#1d4ed8"/>
<circle cx="864.69" cy="349.26" r="3.2" fill="#1d4ed8"/>
<circle cx="867.41" cy="348.05" r="3.2" fill="#1d4ed8"/>
<circle cx="870.12" cy="349.26" r="3.2" fill="#1d4ed8"/>
<circle cx="872.84" cy="349.26" r="3.2" fill="#1d4ed8"/>
<circle cx="875.56" cy="350.48" r="3.2" fill="#1d4ed8"/>
<circle cx="878.28" cy="352.90" r="3.2" fill="#1d4ed8"/>
<circle cx="881.00" cy="349.67" r="3.2" fill="#1d4ed8"/>
<circle cx="883.72" cy="348.46" r="3.2" fill="#1d4ed8"/>
<circle cx="886.43" cy="345.62" r="3.2" fill="#1d4ed8"/>
<circle cx="889.15" cy="344.82" r="3.2" fill="#1d4ed8"/>
<circle cx="891.87" cy="344.41" r="3.2" fill="#1d4ed8"/>
<circle cx="894.59" cy="342.39" r="3.2" fill="#1d4ed8"/>
<circle cx="897.31" cy="341.18" r="3.2" fill="#1d4ed8"/>
<circle cx="900.02" cy="341.58" r="3.2" fill="#1d4ed8"/>
<circle cx="902.74" cy="339.15" r="3.2" fill="#1d4ed8"/>
<circle cx="905.46" cy="338.35" r="3.2" fill="#1d4ed8"/>
<circle cx="908.18" cy="337.54" r="3.2" fill="#1d4ed8"/>
<circle cx="910.90" cy="336.73" r="3.2" fill="#1d4ed8"/>
<circle cx="913.62" cy="335.92" r="3.2" fill="#1d4ed8"/>
<circle cx="916.33" cy="337.54" r="3.2" fill="#1d4ed8"/>
<circle cx="919.05" cy="338.35" r="3.2" fill="#1d4ed8"/>
<circle cx="921.77" cy="337.54" r="3.2" fill="#1d4ed8"/>
<circle cx="924.49" cy="337.54" r="3.2" fill="#1d4ed8"/>
<circle cx="927.21" cy="337.54" r="3.2" fill="#1d4ed8"/>
<circle cx="929.93" cy="333.09" r="3.2" fill="#1d4ed8"/>
<circle cx="932.64" cy="333.90" r="3.2" fill="#1d4ed8"/>
<circle cx="935.36" cy="335.92" r="3.2" fill="#1d4ed8"/>
<circle cx="938.08" cy="336.73" r="3.2" fill="#1d4ed8"/>
<circle cx="940.80" cy="335.51" r="3.2" fill="#1d4ed8"/>
<circle cx="943.52" cy="332.28" r="3.2" fill="#1d4ed8"/>
<circle cx="946.23" cy="331.47" r="3.2" fill="#1d4ed8"/>
<circle cx="948.95" cy="331.07" r="3.2" fill="#1d4ed8"/>
<circle cx="951.67" cy="331.47" r="3.2" fill="#1d4ed8"/>
<circle cx="954.39" cy="331.07" r="3.2" fill="#1d4ed8"/>
<circle cx="957.11" cy="331.07" r="3.2" fill="#1d4ed8"/>
<circle cx="959.83" cy="331.07" r="3.2" fill="#1d4ed8"/>
<circle cx="962.54" cy="331.07" r="3.2" fill="#1d4ed8"/>
<circle cx="965.26" cy="331.07" r="3.2" fill="#1d4ed8"/>
<circle cx="967.98" cy="331.07" r="3.2" fill="#1d4ed8"/>
<circle cx="970.70" cy="331.07" r="3.2" fill="#1d4ed8"/>
<circle cx="973.42" cy="331.07" r="3.2" fill="#1d4ed8"/>
<circle cx="976.13" cy="331.07" r="3.2" fill="#1d4ed8"/>
<circle cx="978.85" cy="331.07" r="3.2" fill="#1d4ed8"/>
<circle cx="981.57" cy="331.47" r="3.2" fill="#1d4ed8"/>
<circle cx="984.29" cy="331.88" r="3.2" fill="#1d4ed8"/>
<circle cx="987.01" cy="331.07" r="3.2" fill="#1d4ed8"/>
<circle cx="989.73" cy="331.47" r="3.2" fill="#1d4ed8"/>
<circle cx="992.44" cy="331.07" r="3.2" fill="#1d4ed8"/>
<circle cx="995.16" cy="331.47" r="3.2" fill="#1d4ed8"/>
<circle cx="997.88" cy="331.07" r="3.2" fill="#1d4ed8"/>
<circle cx="1000.60" cy="324.19" r="3.2" fill="#1d4ed8"/>
<circle cx="1003.32" cy="324.19" r="3.2" fill="#1d4ed8"/>
<circle cx="1006.03" cy="318.93" r="3.2" fill="#1d4ed8"/>
<circle cx="1008.75" cy="316.51" r="3.2" fill="#1d4ed8"/>
<circle cx="1011.47" cy="310.44" r="3.2" fill="#1d4ed8"/>
<circle cx="1014.19" cy="308.01" r="3.2" fill="#1d4ed8"/>
<circle cx="1016.91" cy="600.00" r="3.2" fill="#1d4ed8"/>
<circle cx="1019.63" cy="301.54" r="3.2" fill="#1d4ed8"/>
<circle cx="1022.34" cy="290.22" r="3.2" fill="#1d4ed8"/>
<circle cx="1025.06" cy="287.79" r="3.2" fill="#1d4ed8"/>
<circle cx="1027.78" cy="286.18" r="3.2" fill="#1d4ed8"/>
<circle cx="1030.50" cy="285.77" r="3.2" fill="#1d4ed8"/>
<circle cx="1033.22" cy="285.77" r="3.2" fill="#1d4ed8"/>
<circle cx="1035.94" cy="285.77" r="3.2" fill="#1d4ed8"/>
<circle cx="1038.65" cy="286.18" r="3.2" fill="#1d4ed8"/>
<circle cx="1041.37" cy="285.77" r="3.2" fill="#1d4ed8"/>
<circle cx="1044.09" cy="285.77" r="3.2" fill="#1d4ed8"/>
<circle cx="1046.81" cy="285.77" r="3.2" fill="#1d4ed8"/>
<circle cx="1049.53" cy="283.35" r="3.2" fill="#1d4ed8"/>
<circle cx="1052.24" cy="282.94" r="3.2" fill="#1d4ed8"/>
<circle cx="1054.96" cy="282.94" r="3.2" fill="#1d4ed8"/>
<circle cx="1057.68" cy="283.35" r="3.2" fill="#1d4ed8"/>
<circle cx="1060.40" cy="282.94" r="3.2" fill="#1d4ed8"/>
<circle cx="1063.12" cy="282.94" r="3.2" fill="#1d4ed8"/>
<circle cx="1065.84" cy="283.75" r="3.2" fill="#1d4ed8"/>
<circle cx="1068.55" cy="282.13" r="3.2" fill="#1d4ed8"/>
<circle cx="1071.27" cy="282.13" r="3.2" fill="#1d4ed8"/>
<circle cx="1073.99" cy="282.54" r="3.2" fill="#1d4ed8"/>
<circle cx="1076.71" cy="282.13" r="3.2" fill="#1d4ed8"/>
<circle cx="1079.43" cy="282.54" r="3.2" fill="#1d4ed8"/>
<circle cx="1082.14" cy="282.94" r="3.2" fill="#1d4ed8"/>
<circle cx="1084.86" cy="281.73" r="3.2" fill="#1d4ed8"/>
<circle cx="1087.58" cy="282.54" r="3.2" fill="#1d4ed8"/>
<circle cx="1090.30" cy="281.73" r="3.2" fill="#1d4ed8"/>
<circle cx="1093.02" cy="282.54" r="3.2" fill="#1d4ed8"/>
<circle cx="1095.74" cy="282.13" r="3.2" fill="#1d4ed8"/>
<circle cx="1098.45" cy="282.13" r="3.2" fill="#1d4ed8"/>
<circle cx="1101.17" cy="281.73" r="3.2" fill="#1d4ed8"/>
<circle cx="1103.89" cy="281.73" r="3.2" fill="#1d4ed8"/>
<circle cx="1106.61" cy="281.32" r="3.2" fill="#1d4ed8"/>
<circle cx="1109.33" cy="281.73" r="3.2" fill="#1d4ed8"/>
<circle cx="1112.04" cy="282.13" r="3.2" fill="#1d4ed8"/>
<circle cx="1114.76" cy="281.32" r="3.2" fill="#1d4ed8"/>
<circle cx="1117.48" cy="281.32" r="3.2" fill="#1d4ed8"/>
<circle cx="1120.20" cy="282.54" r="3.2" fill="#1d4ed8"/>
<circle cx="1122.92" cy="282.13" r="3.2" fill="#1d4ed8"/>
<circle cx="1125.64" cy="281.32" r="3.2" fill="#1d4ed8"/>
<circle cx="1128.35" cy="281.32" r="3.2" fill="#1d4ed8"/>
<circle cx="1131.07" cy="281.32" r="3.2" fill="#1d4ed8"/>
<circle cx="1133.79" cy="282.54" r="3.2" fill="#1d4ed8"/>
<circle cx="1136.51" cy="282.13" r="3.2" fill="#1d4ed8"/>
<circle cx="1139.23" cy="281.32" r="3.2" fill="#1d4ed8"/>
<circle cx="1141.95" cy="282.13" r="3.2" fill="#1d4ed8"/>
<circle cx="1144.66" cy="281.73" r="3.2" fill="#1d4ed8"/>
<circle cx="1147.38" cy="282.13" r="3.2" fill="#1d4ed8"/>
<circle cx="1150.10" cy="280.11" r="3.2" fill="#1d4ed8"/>
<circle cx="1152.82" cy="280.11" r="3.2" fill="#1d4ed8"/>
<circle cx="1155.54" cy="280.51" r="3.2" fill="#1d4ed8"/>
<circle cx="1158.25" cy="279.71" r="3.2" fill="#1d4ed8"/>
<circle cx="1160.97" cy="280.11" r="3.2" fill="#1d4ed8"/>
<circle cx="1163.69" cy="280.51" r="3.2" fill="#1d4ed8"/>
<circle cx="1166.41" cy="279.71" r="3.2" fill="#1d4ed8"/>
<circle cx="1169.13" cy="280.11" r="3.2" fill="#1d4ed8"/>
<circle cx="1171.85" cy="280.11" r="3.2" fill="#1d4ed8"/>
<circle cx="1174.56" cy="279.30" r="3.2" fill="#1d4ed8"/>
<circle cx="1177.28" cy="278.90" r="3.2" fill="#1d4ed8"/>
<circle cx="1180.00" cy="278.90" r="3.2" fill="#1d4ed8"/>
<text x="635" y="695" text-anchor="middle" font-size="14" fill="#111" font-family="sans-serif">Date</text>
<text x="24" y="325" text-anchor="middle" font-size="14" fill="#111" transform="rotate(-90 24,325)" font-family="sans-serif">Passed files</text>
</svg>
