<?xml version="1.0" encoding="UTF-8"?>
<svg xmlns="http://www.w3.org/2000/svg" width="1280" height="720" viewBox="0 0 1280 720">
<rect width="100%" height="100%" fill="#ffffff"/>
<text x="640" y="30" text-anchor="middle" font-size="22" font-family="sans-serif">Roast passed files history</text>
<line x1="90" y1="600" x2="1180" y2="600" stroke="#333" stroke-width="1.5"/>
<line x1="90" y1="50" x2="90" y2="600" stroke="#333" stroke-width="1.5"/>
<line x1="90" y1="600.00" x2="1180" y2="600.00" stroke="#e5e7eb" stroke-width="1"/>
<text x="78" y="605.00" text-anchor="end" font-size="12" fill="#111" font-family="sans-serif">0</text>
<line x1="90" y1="397.79" x2="1180" y2="397.79" stroke="#e5e7eb" stroke-width="1"/>
<text x="78" y="402.79" text-anchor="end" font-size="12" fill="#111" font-family="sans-serif">500</text>
<line x1="90" y1="195.59" x2="1180" y2="195.59" stroke="#e5e7eb" stroke-width="1"/>
<text x="78" y="200.59" text-anchor="end" font-size="12" fill="#111" font-family="sans-serif">1000</text>
<line x1="90.00" y1="600" x2="90.00" y2="606" stroke="#333" stroke-width="1"/>
<text x="90.00" y="624" text-anchor="end" font-size="11" fill="#111" transform="rotate(-40 90.00,624)" font-family="sans-serif">2026-02-12</text>
<line x1="225.92" y1="600" x2="225.92" y2="606" stroke="#333" stroke-width="1"/>
<text x="225.92" y="624" text-anchor="end" font-size="11" fill="#111" transform="rotate(-40 225.92,624)" font-family="sans-serif">2026-02-18</text>
<line x1="361.85" y1="600" x2="361.85" y2="606" stroke="#333" stroke-width="1"/>
<text x="361.85" y="624" text-anchor="end" font-size="11" fill="#111" transform="rotate(-40 361.85,624)" font-family="sans-serif">2026-02-23</text>
<line x1="497.77" y1="600" x2="497.77" y2="606" stroke="#333" stroke-width="1"/>
<text x="497.77" y="624" text-anchor="end" font-size="11" fill="#111" transform="rotate(-40 497.77,624)" font-family="sans-serif">2026-02-26</text>
<line x1="633.69" y1="600" x2="633.69" y2="606" stroke="#333" stroke-width="1"/>
<text x="633.69" y="624" text-anchor="end" font-size="11" fill="#111" transform="rotate(-40 633.69,624)" font-family="sans-serif">2026-03-01</text>
<line x1="769.62" y1="600" x2="769.62" y2="606" stroke="#333" stroke-width="1"/>
<text x="769.62" y="624" text-anchor="end" font-size="11" fill="#111" transform="rotate(-40 769.62,624)" font-family="sans-serif">2026-03-06</text>
<line x1="905.54" y1="600" x2="905.54" y2="606" stroke="#333" stroke-width="1"/>
<text x="905.54" y="624" text-anchor="end" font-size="11" fill="#111" transform="rotate(-40 905.54,624)" font-family="sans-serif">2026-03-11</text>
<line x1="1041.46" y1="600" x2="1041.46" y2="606" stroke="#333" stroke-width="1"/>
<text x="1041.46" y="624" text-anchor="end" font-size="11" fill="#111" transform="rotate(-40 1041.46,624)" font-family="sans-serif">2026-03-18</text>
<line x1="1177.39" y1="600" x2="1177.39" y2="606" stroke="#333" stroke-width="1"/>
<text x="1177.39" y="624" text-anchor="end" font-size="11" fill="#111" transform="rotate(-40 1177.39,624)" font-family="sans-serif">2026-03-20</text>
<line x1="1180.00" y1="600" x2="1180.00" y2="606" stroke="#333" stroke-width="1"/>
<text x="1180.00" y="624" text-anchor="end" font-size="11" fill="#111" transform="rotate(-40 1180.00,624)" font-family="sans-serif">2026-03-20</text>
<line x1="90" y1="75.88" x2="1180" y2="75.88" stroke="#dc2626" stroke-width="1.5" stroke-dasharray="8,4"/>
<text x="1184" y="79.88" font-size="12" fill="#dc2626" font-family="sans-serif">Goal: 1296</text>
<polyline fill="none" stroke="#2563eb" stroke-width="3" points="90.00,540.55 92.61,538.53 95.23,536.91 97.84,534.49 100.46,534.49 103.07,533.27 105.68,532.46 108.30,532.87 110.91,532.06 113.53,532.46 116.14,532.06 118.75,568.46 121.37,568.46 123.98,566.43 126.59,545.00 129.21,545.00 131.82,544.19 134.44,543.79 137.05,543.79 139.66,543.38 142.28,541.76 144.89,541.36 147.51,540.96 150.12,540.96 152.73,539.34 155.35,539.34 157.96,556.73 160.58,556.73 163.19,555.51 165.80,551.07 168.42,538.93 171.03,538.93 173.65,538.93 176.26,538.12 178.87,536.91 181.49,536.91 184.10,536.51 186.71,536.51 189.33,556.73 191.94,556.73 194.56,556.73 197.17,556.73 199.78,535.29 202.40,535.29 205.01,535.29 207.63,535.29 210.24,534.49 212.85,534.08 215.47,533.68 218.08,532.87 220.70,532.06 223.31,532.06 225.92,531.25 228.54,530.85 231.15,530.44 233.76,530.04 236.38,530.04 238.99,529.23 241.61,529.23 244.22,529.23 246.83,528.42 249.45,528.42 252.06,527.61 254.68,527.21 257.29,526.80 259.90,526.40 262.52,525.18 265.13,523.57 267.75,523.57 270.36,523.16 272.97,522.76 275.59,522.35 278.20,521.54 280.82,519.52 283.43,517.50 286.04,517.50 288.66,517.50 291.27,517.50 293.88,517.50 296.50,517.50 299.11,517.10 301.73,516.69 304.34,515.48 306.95,515.07 309.57,514.67 312.18,513.86 314.80,514.26 317.41,512.24 320.02,511.84 322.64,511.84 325.25,511.03 327.87,509.82 330.48,507.79 333.09,506.99 335.71,506.58 338.32,509.41 340.94,509.01 343.55,504.96 346.16,504.56 348.78,504.15 351.39,504.56 354.00,503.75 356.62,503.75 359.23,503.35 361.85,499.30 364.46,496.47 367.07,490.00 369.69,484.34 372.30,481.10 374.92,480.29 377.53,480.70 380.14,460.88 382.76,459.26 385.37,458.05 387.99,456.03 390.60,456.03 393.21,454.41 395.83,450.77 398.44,444.30 401.06,443.90 403.67,600.00 406.28,441.88 408.90,440.66 411.51,439.45 414.12,439.04 416.74,438.64 419.35,437.83 421.97,436.62 424.58,436.62 427.19,434.60 429.81,432.17 432.42,429.34 435.04,428.93 437.65,428.53 440.26,427.72 442.88,426.91 445.49,426.10 448.11,426.10 450.72,426.10 453.33,419.63 455.95,419.23 458.56,418.42 461.18,418.01 463.79,417.61 466.40,417.61 469.02,417.61 471.63,417.21 474.24,417.21 476.86,413.57 479.47,411.95 482.09,412.76 484.70,410.74 487.31,410.74 489.93,410.33 492.54,410.33 495.16,410.33 497.77,409.93 500.38,409.93 503.00,409.93 505.61,409.52 508.23,409.52 510.84,409.12 513.45,409.52 516.07,409.12 518.68,407.50 521.29,407.10 523.91,403.05 526.52,399.82 529.14,400.22 531.75,400.62 534.36,400.62 536.98,399.41 539.59,392.94 542.21,391.32 544.82,389.30 547.43,389.30 550.05,388.49 552.66,375.15 555.28,374.74 557.89,374.74 560.50,374.74 563.12,374.74 565.73,374.34 568.35,374.34 570.96,374.34 573.57,374.34 576.19,374.34 578.80,373.93 581.41,373.12 584.03,372.72 586.64,373.53 589.26,435.81 591.87,372.32 594.48,372.72 597.10,371.91 599.71,371.91 602.33,372.32 604.94,371.10 607.55,369.89 610.17,369.89 612.78,369.89 615.40,369.49 618.01,369.89 620.62,369.08 623.24,368.68 625.85,368.27 628.47,367.87 631.08,367.06 633.69,367.46 636.31,367.06 638.92,366.25 641.53,368.27 644.15,368.68 646.76,368.68 649.38,368.27 651.99,369.08 654.60,367.87 657.22,367.46 659.83,367.06 662.45,360.18 665.06,359.78 667.67,359.38 670.29,356.95 672.90,357.35 675.52,357.76 678.13,355.33 680.74,355.74 683.36,357.35 685.97,355.33 688.59,356.14 691.20,355.74 693.81,356.14 696.43,354.12 699.04,354.93 701.65,356.14 704.27,354.52 706.88,353.71 709.50,354.12 712.11,354.93 714.72,352.90 717.34,353.71 719.95,353.31 722.57,353.31 725.18,354.52 727.79,352.90 730.41,352.50 733.02,352.50 735.64,353.31 738.25,352.50 740.86,353.71 743.48,354.12 746.09,352.50 748.71,352.90 751.32,352.50 753.93,352.10 756.55,351.69 759.16,352.10 761.77,354.12 764.39,352.50 767.00,352.10 769.62,352.10 772.23,349.67 774.84,349.67 777.46,350.88 780.07,351.29 782.69,350.48 785.30,352.10 787.91,350.48 790.53,350.48 793.14,350.48 795.76,350.07 798.37,348.46 800.98,351.29 803.60,349.67 806.21,351.29 808.82,349.67 811.44,348.86 814.05,348.46 816.67,348.46 819.28,347.24 821.89,348.86 824.51,346.84 827.12,348.46 829.74,348.86 832.35,346.84 834.96,349.26 837.58,348.05 840.19,349.26 842.81,349.26 845.42,350.48 848.03,352.90 850.65,349.67 853.26,348.46 855.88,345.62 858.49,344.82 861.10,344.41 863.72,342.39 866.33,341.18 868.94,341.58 871.56,339.15 874.17,338.35 876.79,337.54 879.40,336.73 882.01,335.92 884.63,337.54 887.24,338.35 889.86,337.54 892.47,337.54 895.08,337.54 897.70,333.09 900.31,333.90 902.93,335.92 905.54,336.73 908.15,335.51 910.77,332.28 913.38,331.47 916.00,331.07 918.61,331.47 921.22,331.07 923.84,331.07 926.45,331.07 929.06,331.07 931.68,331.07 934.29,331.07 936.91,331.07 939.52,331.07 942.13,331.07 944.75,331.07 947.36,331.47 949.98,331.88 952.59,331.07 955.20,331.47 957.82,331.07 960.43,331.47 963.05,331.07 965.66,324.19 968.27,324.19 970.89,318.93 973.50,316.51 976.12,310.44 978.73,308.01 981.34,600.00 983.96,301.54 986.57,290.22 989.18,287.79 991.80,286.18 994.41,285.77 997.03,285.77 999.64,285.77 1002.25,286.18 1004.87,285.77 1007.48,285.77 1010.10,285.77 1012.71,283.35 1015.32,282.94 1017.94,282.94 1020.55,283.35 1023.17,282.94 1025.78,282.94 1028.39,283.75 1031.01,282.13 1033.62,282.13 1036.24,282.54 1038.85,282.13 1041.46,282.54 1044.08,282.94 1046.69,281.73 1049.30,282.54 1051.92,281.73 1054.53,282.54 1057.15,282.13 1059.76,282.13 1062.37,281.73 1064.99,281.73 1067.60,281.32 1070.22,281.73 1072.83,282.13 1075.44,281.32 1078.06,281.32 1080.67,282.54 1083.29,282.13 1085.90,281.32 1088.51,281.32 1091.13,281.32 1093.74,282.54 1096.35,282.13 1098.97,281.32 1101.58,282.13 1104.20,281.73 1106.81,282.13 1109.42,280.11 1112.04,280.11 1114.65,280.51 1117.27,279.71 1119.88,280.11 1122.49,280.51 1125.11,279.71 1127.72,280.11 1130.34,280.11 1132.95,279.30 1135.56,278.90 1138.18,278.90 1140.79,280.51 1143.41,279.30 1146.02,278.09 1148.63,278.49 1151.25,278.49 1153.86,277.28 1156.47,277.68 1159.09,277.68 1161.70,278.09 1164.32,277.28 1166.93,600.00 1169.54,278.90 1172.16,279.30 1174.77,278.90 1177.39,278.49 1180.00,278.49"/>
<circle cx="90.00" cy="540.55" r="3.2" fill="#1d4ed8"/>
<circle cx="92.61" cy="538.53" r="3.2" fill="#1d4ed8"/>
<circle cx="95.23" cy="536.91" r="3.2" fill="#1d4ed8"/>
<circle cx="97.84" cy="534.49" r="3.2" fill="#1d4ed8"/>
<circle cx="100.46" cy="534.49" r="3.2" fill="#1d4ed8"/>
<circle cx="103.07" cy="533.27" r="3.2" fill="#1d4ed8"/>
<circle cx="105.68" cy="532.46" r="3.2" fill="#1d4ed8"/>
<circle cx="108.30" cy="532.87" r="3.2" fill="#1d4ed8"/>
<circle cx="110.91" cy="532.06" r="3.2" fill="#1d4ed8"/>
<circle cx="113.53" cy="532.46" r="3.2" fill="#1d4ed8"/>
<circle cx="116.14" cy="532.06" r="3.2" fill="#1d4ed8"/>
<circle cx="118.75" cy="568.46" r="3.2" fill="#1d4ed8"/>
<circle cx="121.37" cy="568.46" r="3.2" fill="#1d4ed8"/>
<circle cx="123.98" cy="566.43" r="3.2" fill="#1d4ed8"/>
<circle cx="126.59" cy="545.00" r="3.2" fill="#1d4ed8"/>
<circle cx="129.21" cy="545.00" r="3.2" fill="#1d4ed8"/>
<circle cx="131.82" cy="544.19" r="3.2" fill="#1d4ed8"/>
<circle cx="134.44" cy="543.79" r="3.2" fill="#1d4ed8"/>
<circle cx="137.05" cy="543.79" r="3.2" fill="#1d4ed8"/>
<circle cx="139.66" cy="543.38" r="3.2" fill="#1d4ed8"/>
<circle cx="142.28" cy="541.76" r="3.2" fill="#1d4ed8"/>
<circle cx="144.89" cy="541.36" r="3.2" fill="#1d4ed8"/>
<circle cx="147.51" cy="540.96" r="3.2" fill="#1d4ed8"/>
<circle cx="150.12" cy="540.96" r="3.2" fill="#1d4ed8"/>
<circle cx="152.73" cy="539.34" r="3.2" fill="#1d4ed8"/>
<circle cx="155.35" cy="539.34" r="3.2" fill="#1d4ed8"/>
<circle cx="157.96" cy="556.73" r="3.2" fill="#1d4ed8"/>
<circle cx="160.58" cy="556.73" r="3.2" fill="#1d4ed8"/>
<circle cx="163.19" cy="555.51" r="3.2" fill="#1d4ed8"/>
<circle cx="165.80" cy="551.07" r="3.2" fill="#1d4ed8"/>
<circle cx="168.42" cy="538.93" r="3.2" fill="#1d4ed8"/>
<circle cx="171.03" cy="538.93" r="3.2" fill="#1d4ed8"/>
<circle cx="173.65" cy="538.93" r="3.2" fill="#1d4ed8"/>
<circle cx="176.26" cy="538.12" r="3.2" fill="#1d4ed8"/>
<circle cx="178.87" cy="536.91" r="3.2" fill="#1d4ed8"/>
<circle cx="181.49" cy="536.91" r="3.2" fill="#1d4ed8"/>
<circle cx="184.10" cy="536.51" r="3.2" fill="#1d4ed8"/>
<circle cx="186.71" cy="536.51" r="3.2" fill="#1d4ed8"/>
<circle cx="189.33" cy="556.73" r="3.2" fill="#1d4ed8"/>
<circle cx="191.94" cy="556.73" r="3.2" fill="#1d4ed8"/>
<circle cx="194.56" cy="556.73" r="3.2" fill="#1d4ed8"/>
<circle cx="197.17" cy="556.73" r="3.2" fill="#1d4ed8"/>
<circle cx="199.78" cy="535.29" r="3.2" fill="#1d4ed8"/>
<circle cx="202.40" cy="535.29" r="3.2" fill="#1d4ed8"/>
<circle cx="205.01" cy="535.29" r="3.2" fill="#1d4ed8"/>
<circle cx="207.63" cy="535.29" r="3.2" fill="#1d4ed8"/>
<circle cx="210.24" cy="534.49" r="3.2" fill="#1d4ed8"/>
<circle cx="212.85" cy="534.08" r="3.2" fill="#1d4ed8"/>
<circle cx="215.47" cy="533.68" r="3.2" fill="#1d4ed8"/>
<circle cx="218.08" cy="532.87" r="3.2" fill="#1d4ed8"/>
<circle cx="220.70" cy="532.06" r="3.2" fill="#1d4ed8"/>
<circle cx="223.31" cy="532.06" r="3.2" fill="#1d4ed8"/>
<circle cx="225.92" cy="531.25" r="3.2" fill="#1d4ed8"/>
<circle cx="228.54" cy="530.85" r="3.2" fill="#1d4ed8"/>
<circle cx="231.15" cy="530.44" r="3.2" fill="#1d4ed8"/>
<circle cx="233.76" cy="530.04" r="3.2" fill="#1d4ed8"/>
<circle cx="236.38" cy="530.04" r="3.2" fill="#1d4ed8"/>
<circle cx="238.99" cy="529.23" r="3.2" fill="#1d4ed8"/>
<circle cx="241.61" cy="529.23" r="3.2" fill="#1d4ed8"/>
<circle cx="244.22" cy="529.23" r="3.2" fill="#1d4ed8"/>
<circle cx="246.83" cy="528.42" r="3.2" fill="#1d4ed8"/>
<circle cx="249.45" cy="528.42" r="3.2" fill="#1d4ed8"/>
<circle cx="252.06" cy="527.61" r="3.2" fill="#1d4ed8"/>
<circle cx="254.68" cy="527.21" r="3.2" fill="#1d4ed8"/>
<circle cx="257.29" cy="526.80" r="3.2" fill="#1d4ed8"/>
<circle cx="259.90" cy="526.40" r="3.2" fill="#1d4ed8"/>
<circle cx="262.52" cy="525.18" r="3.2" fill="#1d4ed8"/>
<circle cx="265.13" cy="523.57" r="3.2" fill="#1d4ed8"/>
<circle cx="267.75" cy="523.57" r="3.2" fill="#1d4ed8"/>
<circle cx="270.36" cy="523.16" r="3.2" fill="#1d4ed8"/>
<circle cx="272.97" cy="522.76" r="3.2" fill="#1d4ed8"/>
<circle cx="275.59" cy="522.35" r="3.2" fill="#1d4ed8"/>
<circle cx="278.20" cy="521.54" r="3.2" fill="#1d4ed8"/>
<circle cx="280.82" cy="519.52" r="3.2" fill="#1d4ed8"/>
<circle cx="283.43" cy="517.50" r="3.2" fill="#1d4ed8"/>
<circle cx="286.04" cy="517.50" r="3.2" fill="#1d4ed8"/>
<circle cx="288.66" cy="517.50" r="3.2" fill="#1d4ed8"/>
<circle cx="291.27" cy="517.50" r="3.2" fill="#1d4ed8"/>
<circle cx="293.88" cy="517.50" r="3.2" fill="#1d4ed8"/>
<circle cx="296.50" cy="517.50" r="3.2" fill="#1d4ed8"/>
<circle cx="299.11" cy="517.10" r="3.2" fill="#1d4ed8"/>
<circle cx="301.73" cy="516.69" r="3.2" fill="#1d4ed8"/>
<circle cx="304.34" cy="515.48" r="3.2" fill="#1d4ed8"/>
<circle cx="306.95" cy="515.07" r="3.2" fill="#1d4ed8"/>
<circle cx="309.57" cy="514.67" r="3.2" fill="#1d4ed8"/>
<circle cx="312.18" cy="513.86" r="3.2" fill="#1d4ed8"/>
<circle cx="314.80" cy="514.26" r="3.2" fill="#1d4ed8"/>
<circle cx="317.41" cy="512.24" r="3.2" fill="#1d4ed8"/>
<circle cx="320.02" cy="511.84" r="3.2" fill="#1d4ed8"/>
<circle cx="322.64" cy="511.84" r="3.2" fill="#1d4ed8"/>
<circle cx="325.25" cy="511.03" r="3.2" fill="#1d4ed8"/>
<circle cx="327.87" cy="509.82" r="3.2" fill="#1d4ed8"/>
<circle cx="330.48" cy="507.79" r="3.2" fill="#1d4ed8"/>
<circle cx="333.09" cy="506.99" r="3.2" fill="#1d4ed8"/>
<circle cx="335.71" cy="506.58" r="3.2" fill="#1d4ed8"/>
<circle cx="338.32" cy="509.41" r="3.2" fill="#1d4ed8"/>
<circle cx="340.94" cy="509.01" r="3.2" fill="#1d4ed8"/>
<circle cx="343.55" cy="504.96" r="3.2" fill="#1d4ed8"/>
<circle cx="346.16" cy="504.56" r="3.2" fill="#1d4ed8"/>
<circle cx="348.78" cy="504.15" r="3.2" fill="#1d4ed8"/>
<circle cx="351.39" cy="504.56" r="3.2" fill="#1d4ed8"/>
<circle cx="354.00" cy="503.75" r="3.2" fill="#1d4ed8"/>
<circle cx="356.62" cy="503.75" r="3.2" fill="#1d4ed8"/>
<circle cx="359.23" cy="503.35" r="3.2" fill="#1d4ed8"/>
<circle cx="361.85" cy="499.30" r="3.2" fill="#1d4ed8"/>
<circle cx="364.46" cy="496.47" r="3.2" fill="#1d4ed8"/>
<circle cx="367.07" cy="490.00" r="3.2" fill="#1d4ed8"/>
<circle cx="369.69" cy="484.34" r="3.2" fill="#1d4ed8"/>
<circle cx="372.30" cy="481.10" r="3.2" fill="#1d4ed8"/>
<circle cx="374.92" cy="480.29" r="3.2" fill="#1d4ed8"/>
<circle cx="377.53" cy="480.70" r="3.2" fill="#1d4ed8"/>
<circle cx="380.14" cy="460.88" r="3.2" fill="#1d4ed8"/>
<circle cx="382.76" cy="459.26" r="3.2" fill="#1d4ed8"/>
<circle cx="385.37" cy="458.05" r="3.2" fill="#1d4ed8"/>
<circle cx="387.99" cy="456.03" r="3.2" fill="#1d4ed8"/>
<circle cx="390.60" cy="456.03" r="3.2" fill="#1d4ed8"/>
<circle cx="393.21" cy="454.41" r="3.2" fill="#1d4ed8"/>
<circle cx="395.83" cy="450.77" r="3.2" fill="#1d4ed8"/>
<circle cx="398.44" cy="444.30" r="3.2" fill="#1d4ed8"/>
<circle cx="401.06" cy="443.90" r="3.2" fill="#1d4ed8"/>
<circle cx="403.67" cy="600.00" r="3.2" fill="#1d4ed8"/>
<circle cx="406.28" cy="441.88" r="3.2" fill="#1d4ed8"/>
<circle cx="408.90" cy="440.66" r="3.2" fill="#1d4ed8"/>
<circle cx="411.51" cy="439.45" r="3.2" fill="#1d4ed8"/>
<circle cx="414.12" cy="439.04" r="3.2" fill="#1d4ed8"/>
<circle cx="416.74" cy="438.64" r="3.2" fill="#1d4ed8"/>
<circle cx="419.35" cy="437.83" r="3.2" fill="#1d4ed8"/>
<circle cx="421.97" cy="436.62" r="3.2" fill="#1d4ed8"/>
<circle cx="424.58" cy="436.62" r="3.2" fill="#1d4ed8"/>
<circle cx="427.19" cy="434.60" r="3.2" fill="#1d4ed8"/>
<circle cx="429.81" cy="432.17" r="3.2" fill="#1d4ed8"/>
<circle cx="432.42" cy="429.34" r="3.2" fill="#1d4ed8"/>
<circle cx="435.04" cy="428.93" r="3.2" fill="#1d4ed8"/>
<circle cx="437.65" cy="428.53" r="3.2" fill="#1d4ed8"/>
<circle cx="440.26" cy="427.72" r="3.2" fill="#1d4ed8"/>
<circle cx="442.88" cy="426.91" r="3.2" fill="#1d4ed8"/>
<circle cx="445.49" cy="426.10" r="3.2" fill="#1d4ed8"/>
<circle cx="448.11" cy="426.10" r="3.2" fill="#1d4ed8"/>
<circle cx="450.72" cy="426.10" r="3.2" fill="#1d4ed8"/>
<circle cx="453.33" cy="419.63" r="3.2" fill="#1d4ed8"/>
<circle cx="455.95" cy="419.23" r="3.2" fill="#1d4ed8"/>
<circle cx="458.56" cy="418.42" r="3.2" fill="#1d4ed8"/>
<circle cx="461.18" cy="418.01" r="3.2" fill="#1d4ed8"/>
<circle cx="463.79" cy="417.61" r="3.2" fill="#1d4ed8"/>
<circle cx="466.40" cy="417.61" r="3.2" fill="#1d4ed8"/>
<circle cx="469.02" cy="417.61" r="3.2" fill="#1d4ed8"/>
<circle cx="471.63" cy="417.21" r="3.2" fill="#1d4ed8"/>
<circle cx="474.24" cy="417.21" r="3.2" fill="#1d4ed8"/>
<circle cx="476.86" cy="413.57" r="3.2" fill="#1d4ed8"/>
<circle cx="479.47" cy="411.95" r="3.2" fill="#1d4ed8"/>
<circle cx="482.09" cy="412.76" r="3.2" fill="#1d4ed8"/>
<circle cx="484.70" cy="410.74" r="3.2" fill="#1d4ed8"/>
<circle cx="487.31" cy="410.74" r="3.2" fill="#1d4ed8"/>
<circle cx="489.93" cy="410.33" r="3.2" fill="#1d4ed8"/>
<circle cx="492.54" cy="410.33" r="3.2" fill="#1d4ed8"/>
<circle cx="495.16" cy="410.33" r="3.2" fill="#1d4ed8"/>
<circle cx="497.77" cy="409.93" r="3.2" fill="#1d4ed8"/>
<circle cx="500.38" cy="409.93" r="3.2" fill="#1d4ed8"/>
<circle cx="503.00" cy="409.93" r="3.2" fill="#1d4ed8"/>
<circle cx="505.61" cy="409.52" r="3.2" fill="#1d4ed8"/>
<circle cx="508.23" cy="409.52" r="3.2" fill="#1d4ed8"/>
<circle cx="510.84" cy="409.12" r="3.2" fill="#1d4ed8"/>
<circle cx="513.45" cy="409.52" r="3.2" fill="#1d4ed8"/>
<circle cx="516.07" cy="409.12" r="3.2" fill="#1d4ed8"/>
<circle cx="518.68" cy="407.50" r="3.2" fill="#1d4ed8"/>
<circle cx="521.29" cy="407.10" r="3.2" fill="#1d4ed8"/>
<circle cx="523.91" cy="403.05" r="3.2" fill="#1d4ed8"/>
<circle cx="526.52" cy="399.82" r="3.2" fill="#1d4ed8"/>
<circle cx="529.14" cy="400.22" r="3.2" fill="#1d4ed8"/>
<circle cx="531.75" cy="400.62" r="3.2" fill="#1d4ed8"/>
<circle cx="534.36" cy="400.62" r="3.2" fill="#1d4ed8"/>
<circle cx="536.98" cy="399.41" r="3.2" fill="#1d4ed8"/>
<circle cx="539.59" cy="392.94" r="3.2" fill="#1d4ed8"/>
<circle cx="542.21" cy="391.32" r="3.2" fill="#1d4ed8"/>
<circle cx="544.82" cy="389.30" r="3.2" fill="#1d4ed8"/>
<circle cx="547.43" cy="389.30" r="3.2" fill="#1d4ed8"/>
<circle cx="550.05" cy="388.49" r="3.2" fill="#1d4ed8"/>
<circle cx="552.66" cy="375.15" r="3.2" fill="#1d4ed8"/>
<circle cx="555.28" cy="374.74" r="3.2" fill="#1d4ed8"/>
<circle cx="557.89" cy="374.74" r="3.2" fill="#1d4ed8"/>
<circle cx="560.50" cy="374.74" r="3.2" fill="#1d4ed8"/>
<circle cx="563.12" cy="374.74" r="3.2" fill="#1d4ed8"/>
<circle cx="565.73" cy="374.34" r="3.2" fill="#1d4ed8"/>
<circle cx="568.35" cy="374.34" r="3.2" fill="#1d4ed8"/>
<circle cx="570.96" cy="374.34" r="3.2" fill="#1d4ed8"/>
<circle cx="573.57" cy="374.34" r="3.2" fill="#1d4ed8"/>
<circle cx="576.19" cy="374.34" r="3.2" fill="#1d4ed8"/>
<circle cx="578.80" cy="373.93" r="3.2" fill="#1d4ed8"/>
<circle cx="581.41" cy="373.12" r="3.2" fill="#1d4ed8"/>
<circle cx="584.03" cy="372.72" r="3.2" fill="#1d4ed8"/>
<circle cx="586.64" cy="373.53" r="3.2" fill="#1d4ed8"/>
<circle cx="589.26" cy="435.81" r="3.2" fill="#1d4ed8"/>
<circle cx="591.87" cy="372.32" r="3.2" fill="#1d4ed8"/>
<circle cx="594.48" cy="372.72" r="3.2" fill="#1d4ed8"/>
<circle cx="597.10" cy="371.91" r="3.2" fill="#1d4ed8"/>
<circle cx="599.71" cy="371.91" r="3.2" fill="#1d4ed8"/>
<circle cx="602.33" cy="372.32" r="3.2" fill="#1d4ed8"/>
<circle cx="604.94" cy="371.10" r="3.2" fill="#1d4ed8"/>
<circle cx="607.55" cy="369.89" r="3.2" fill="#1d4ed8"/>
<circle cx="610.17" cy="369.89" r="3.2" fill="#1d4ed8"/>
<circle cx="612.78" cy="369.89" r="3.2" fill="#1d4ed8"/>
<circle cx="615.40" cy="369.49" r="3.2" fill="#1d4ed8"/>
<circle cx="618.01" cy="369.89" r="3.2" fill="#1d4ed8"/>
<circle cx="620.62" cy="369.08" r="3.2" fill="#1d4ed8"/>
<circle cx="623.24" cy="368.68" r="3.2" fill="#1d4ed8"/>
<circle cx="625.85" cy="368.27" r="3.2" fill="#1d4ed8"/>
<circle cx="628.47" cy="367.87" r="3.2" fill="#1d4ed8"/>
<circle cx="631.08" cy="367.06" r="3.2" fill="#1d4ed8"/>
<circle cx="633.69" cy="367.46" r="3.2" fill="#1d4ed8"/>
<circle cx="636.31" cy="367.06" r="3.2" fill="#1d4ed8"/>
<circle cx="638.92" cy="366.25" r="3.2" fill="#1d4ed8"/>
<circle cx="641.53" cy="368.27" r="3.2" fill="#1d4ed8"/>
<circle cx="644.15" cy="368.68" r="3.2" fill="#1d4ed8"/>
<circle cx="646.76" cy="368.68" r="3.2" fill="#1d4ed8"/>
<circle cx="649.38" cy="368.27" r="3.2" fill="#1d4ed8"/>
<circle cx="651.99" cy="369.08" r="3.2" fill="#1d4ed8"/>
<circle cx="654.60" cy="367.87" r="3.2" fill="#1d4ed8"/>
<circle cx="657.22" cy="367.46" r="3.2" fill="#1d4ed8"/>
<circle cx="659.83" cy="367.06" r="3.2" fill="#1d4ed8"/>
<circle cx="662.45" cy="360.18" r="3.2" fill="#1d4ed8"/>
<circle cx="665.06" cy="359.78" r="3.2" fill="#1d4ed8"/>
<circle cx="667.67" cy="359.38" r="3.2" fill="#1d4ed8"/>
<circle cx="670.29" cy="356.95" r="3.2" fill="#1d4ed8"/>
<circle cx="672.90" cy="357.35" r="3.2" fill="#1d4ed8"/>
<circle cx="675.52" cy="357.76" r="3.2" fill="#1d4ed8"/>
<circle cx="678.13" cy="355.33" r="3.2" fill="#1d4ed8"/>
<circle cx="680.74" cy="355.74" r="3.2" fill="#1d4ed8"/>
<circle cx="683.36" cy="357.35" r="3.2" fill="#1d4ed8"/>
<circle cx="685.97" cy="355.33" r="3.2" fill="#1d4ed8"/>
<circle cx="688.59" cy="356.14" r="3.2" fill="#1d4ed8"/>
<circle cx="691.20" cy="355.74" r="3.2" fill="#1d4ed8"/>
<circle cx="693.81" cy="356.14" r="3.2" fill="#1d4ed8"/>
<circle cx="696.43" cy="354.12" r="3.2" fill="#1d4ed8"/>
<circle cx="699.04" cy="354.93" r="3.2" fill="#1d4ed8"/>
<circle cx="701.65" cy="356.14" r="3.2" fill="#1d4ed8"/>
<circle cx="704.27" cy="354.52" r="3.2" fill="#1d4ed8"/>
<circle cx="706.88" cy="353.71" r="3.2" fill="#1d4ed8"/>
<circle cx="709.50" cy="354.12" r="3.2" fill="#1d4ed8"/>
<circle cx="712.11" cy="354.93" r="3.2" fill="#1d4ed8"/>
<circle cx="714.72" cy="352.90" r="3.2" fill="#1d4ed8"/>
<circle cx="717.34" cy="353.71" r="3.2" fill="#1d4ed8"/>
<circle cx="719.95" cy="353.31" r="3.2" fill="#1d4ed8"/>
<circle cx="722.57" cy="353.31" r="3.2" fill="#1d4ed8"/>
<circle cx="725.18" cy="354.52" r="3.2" fill="#1d4ed8"/>
<circle cx="727.79" cy="352.90" r="3.2" fill="#1d4ed8"/>
<circle cx="730.41" cy="352.50" r="3.2" fill="#1d4ed8"/>
<circle cx="733.02" cy="352.50" r="3.2" fill="#1d4ed8"/>
<circle cx="735.64" cy="353.31" r="3.2" fill="#1d4ed8"/>
<circle cx="738.25" cy="352.50" r="3.2" fill="#1d4ed8"/>
<circle cx="740.86" cy="353.71" r="3.2" fill="#1d4ed8"/>
<circle cx="743.48" cy="354.12" r="3.2" fill="#1d4ed8"/>
<circle cx="746.09" cy="352.50" r="3.2" fill="#1d4ed8"/>
<circle cx="748.71" cy="352.90" r="3.2" fill="#1d4ed8"/>
<circle cx="751.32" cy="352.50" r="3.2" fill="#1d4ed8"/>
<circle cx="753.93" cy="352.10" r="3.2" fill="#1d4ed8"/>
<circle cx="756.55" cy="351.69" r="3.2" fill="#1d4ed8"/>
<circle cx="759.16" cy="352.10" r="3.2" fill="#1d4ed8"/>
<circle cx="761.77" cy="354.12" r="3.2" fill="#1d4ed8"/>
<circle cx="764.39" cy="352.50" r="3.2" fill="#1d4ed8"/>
<circle cx="767.00" cy="352.10" r="3.2" fill="#1d4ed8"/>
<circle cx="769.62" cy="352.10" r="3.2" fill="#1d4ed8"/>
<circle cx="772.23" cy="349.67" r="3.2" fill="#1d4ed8"/>
<circle cx="774.84" cy="349.67" r="3.2" fill="#1d4ed8"/>
<circle cx="777.46" cy="350.88" r="3.2" fill="#1d4ed8"/>
<circle cx="780.07" cy="351.29" r="3.2" fill="#1d4ed8"/>
<circle cx="782.69" cy="350.48" r="3.2" fill="#1d4ed8"/>
<circle cx="785.30" cy="352.10" r="3.2" fill="#1d4ed8"/>
<circle cx="787.91" cy="350.48" r="3.2" fill="#1d4ed8"/>
<circle cx="790.53" cy="350.48" r="3.2" fill="#1d4ed8"/>
<circle cx="793.14" cy="350.48" r="3.2" fill="#1d4ed8"/>
<circle cx="795.76" cy="350.07" r="3.2" fill="#1d4ed8"/>
<circle cx="798.37" cy="348.46" r="3.2" fill="#1d4ed8"/>
<circle cx="800.98" cy="351.29" r="3.2" fill="#1d4ed8"/>
<circle cx="803.60" cy="349.67" r="3.2" fill="#1d4ed8"/>
<circle cx="806.21" cy="351.29" r="3.2" fill="#1d4ed8"/>
<circle cx="808.82" cy="349.67" r="3.2" fill="#1d4ed8"/>
<circle cx="811.44" cy="348.86" r="3.2" fill="#1d4ed8"/>
<circle cx="814.05" cy="348.46" r="3.2" fill="#1d4ed8"/>
<circle cx="816.67" cy="348.46" r="3.2" fill="#1d4ed8"/>
<circle cx="819.28" cy="347.24" r="3.2" fill="#1d4ed8"/>
<circle cx="821.89" cy="348.86" r="3.2" fill="#1d4ed8"/>
<circle cx="824.51" cy="346.84" r="3.2" fill="#1d4ed8"/>
<circle cx="827.12" cy="348.46" r="3.2" fill="#1d4ed8"/>
<circle cx="829.74" cy="348.86" r="3.2" fill="#1d4ed8"/>
<circle cx="832.35" cy="346.84" r="3.2" fill="#1d4ed8"/>
<circle cx="834.96" cy="349.26" r="3.2" fill="#1d4ed8"/>
<circle cx="837.58" cy="348.05" r="3.2" fill="#1d4ed8"/>
<circle cx="840.19" cy="349.26" r="3.2" fill="#1d4ed8"/>
<circle cx="842.81" cy="349.26" r="3.2" fill="#1d4ed8"/>
<circle cx="845.42" cy="350.48" r="3.2" fill="#1d4ed8"/>
<circle cx="848.03" cy="352.90" r="3.2" fill="#1d4ed8"/>
<circle cx="850.65" cy="349.67" r="3.2" fill="#1d4ed8"/>
<circle cx="853.26" cy="348.46" r="3.2" fill="#1d4ed8"/>
<circle cx="855.88" cy="345.62" r="3.2" fill="#1d4ed8"/>
<circle cx="858.49" cy="344.82" r="3.2" fill="#1d4ed8"/>
<circle cx="861.10" cy="344.41" r="3.2" fill="#1d4ed8"/>
<circle cx="863.72" cy="342.39" r="3.2" fill="#1d4ed8"/>
<circle cx="866.33" cy="341.18" r="3.2" fill="#1d4ed8"/>
<circle cx="868.94" cy="341.58" r="3.2" fill="#1d4ed8"/>
<circle cx="871.56" cy="339.15" r="3.2" fill="#1d4ed8"/>
<circle cx="874.17" cy="338.35" r="3.2" fill="#1d4ed8"/>
<circle cx="876.79" cy="337.54" r="3.2" fill="#1d4ed8"/>
<circle cx="879.40" cy="336.73" r="3.2" fill="#1d4ed8"/>
<circle cx="882.01" cy="335.92" r="3.2" fill="#1d4ed8"/>
<circle cx="884.63" cy="337.54" r="3.2" fill="#1d4ed8"/>
<circle cx="887.24" cy="338.35" r="3.2" fill="#1d4ed8"/>
<circle cx="889.86" cy="337.54" r="3.2" fill="#1d4ed8"/>
<circle cx="892.47" cy="337.54" r="3.2" fill="#1d4ed8"/>
<circle cx="895.08" cy="337.54" r="3.2" fill="#1d4ed8"/>
<circle cx="897.70" cy="333.09" r="3.2" fill="#1d4ed8"/>
<circle cx="900.31" cy="333.90" r="3.2" fill="#1d4ed8"/>
<circle cx="902.93" cy="335.92" r="3.2" fill="#1d4ed8"/>
<circle cx="905.54" cy="336.73" r="3.2" fill="#1d4ed8"/>
<circle cx="908.15" cy="335.51" r="3.2" fill="#1d4ed8"/>
<circle cx="910.77" cy="332.28" r="3.2" fill="#1d4ed8"/>
<circle cx="913.38" cy="331.47" r="3.2" fill="#1d4ed8"/>
<circle cx="916.00" cy="331.07" r="3.2" fill="#1d4ed8"/>
<circle cx="918.61" cy="331.47" r="3.2" fill="#1d4ed8"/>
<circle cx="921.22" cy="331.07" r="3.2" fill="#1d4ed8"/>
<circle cx="923.84" cy="331.07" r="3.2" fill="#1d4ed8"/>
<circle cx="926.45" cy="331.07" r="3.2" fill="#1d4ed8"/>
<circle cx="929.06" cy="331.07" r="3.2" fill="#1d4ed8"/>
<circle cx="931.68" cy="331.07" r="3.2" fill="#1d4ed8"/>
<circle cx="934.29" cy="331.07" r="3.2" fill="#1d4ed8"/>
<circle cx="936.91" cy="331.07" r="3.2" fill="#1d4ed8"/>
<circle cx="939.52" cy="331.07" r="3.2" fill="#1d4ed8"/>
<circle cx="942.13" cy="331.07" r="3.2" fill="#1d4ed8"/>
<circle cx="944.75" cy="331.07" r="3.2" fill="#1d4ed8"/>
<circle cx="947.36" cy="331.47" r="3.2" fill="#1d4ed8"/>
<circle cx="949.98" cy="331.88" r="3.2" fill="#1d4ed8"/>
<circle cx="952.59" cy="331.07" r="3.2" fill="#1d4ed8"/>
<circle cx="955.20" cy="331.47" r="3.2" fill="#1d4ed8"/>
<circle cx="957.82" cy="331.07" r="3.2" fill="#1d4ed8"/>
<circle cx="960.43" cy="331.47" r="3.2" fill="#1d4ed8"/>
<circle cx="963.05" cy="331.07" r="3.2" fill="#1d4ed8"/>
<circle cx="965.66" cy="324.19" r="3.2" fill="#1d4ed8"/>
<circle cx="968.27" cy="324.19" r="3.2" fill="#1d4ed8"/>
<circle cx="970.89" cy="318.93" r="3.2" fill="#1d4ed8"/>
<circle cx="973.50" cy="316.51" r="3.2" fill="#1d4ed8"/>
<circle cx="976.12" cy="310.44" r="3.2" fill="#1d4ed8"/>
<circle cx="978.73" cy="308.01" r="3.2" fill="#1d4ed8"/>
<circle cx="981.34" cy="600.00" r="3.2" fill="#1d4ed8"/>
<circle cx="983.96" cy="301.54" r="3.2" fill="#1d4ed8"/>
<circle cx="986.57" cy="290.22" r="3.2" fill="#1d4ed8"/>
<circle cx="989.18" cy="287.79" r="3.2" fill="#1d4ed8"/>
<circle cx="991.80" cy="286.18" r="3.2" fill="#1d4ed8"/>
<circle cx="994.41" cy="285.77" r="3.2" fill="#1d4ed8"/>
<circle cx="997.03" cy="285.77" r="3.2" fill="#1d4ed8"/>
<circle cx="999.64" cy="285.77" r="3.2" fill="#1d4ed8"/>
<circle cx="1002.25" cy="286.18" r="3.2" fill="#1d4ed8"/>
<circle cx="1004.87" cy="285.77" r="3.2" fill="#1d4ed8"/>
<circle cx="1007.48" cy="285.77" r="3.2" fill="#1d4ed8"/>
<circle cx="1010.10" cy="285.77" r="3.2" fill="#1d4ed8"/>
<circle cx="1012.71" cy="283.35" r="3.2" fill="#1d4ed8"/>
<circle cx="1015.32" cy="282.94" r="3.2" fill="#1d4ed8"/>
<circle cx="1017.94" cy="282.94" r="3.2" fill="#1d4ed8"/>
<circle cx="1020.55" cy="283.35" r="3.2" fill="#1d4ed8"/>
<circle cx="1023.17" cy="282.94" r="3.2" fill="#1d4ed8"/>
<circle cx="1025.78" cy="282.94" r="3.2" fill="#1d4ed8"/>
<circle cx="1028.39" cy="283.75" r="3.2" fill="#1d4ed8"/>
<circle cx="1031.01" cy="282.13" r="3.2" fill="#1d4ed8"/>
<circle cx="1033.62" cy="282.13" r="3.2" fill="#1d4ed8"/>
<circle cx="1036.24" cy="282.54" r="3.2" fill="#1d4ed8"/>
<circle cx="1038.85" cy="282.13" r="3.2" fill="#1d4ed8"/>
<circle cx="1041.46" cy="282.54" r="3.2" fill="#1d4ed8"/>
<circle cx="1044.08" cy="282.94" r="3.2" fill="#1d4ed8"/>
<circle cx="1046.69" cy="281.73" r="3.2" fill="#1d4ed8"/>
<circle cx="1049.30" cy="282.54" r="3.2" fill="#1d4ed8"/>
<circle cx="1051.92" cy="281.73" r="3.2" fill="#1d4ed8"/>
<circle cx="1054.53" cy="282.54" r="3.2" fill="#1d4ed8"/>
<circle cx="1057.15" cy="282.13" r="3.2" fill="#1d4ed8"/>
<circle cx="1059.76" cy="282.13" r="3.2" fill="#1d4ed8"/>
<circle cx="1062.37" cy="281.73" r="3.2" fill="#1d4ed8"/>
<circle cx="1064.99" cy="281.73" r="3.2" fill="#1d4ed8"/>
<circle cx="1067.60" cy="281.32" r="3.2" fill="#1d4ed8"/>
<circle cx="1070.22" cy="281.73" r="3.2" fill="#1d4ed8"/>
<circle cx="1072.83" cy="282.13" r="3.2" fill="#1d4ed8"/>
<circle cx="1075.44" cy="281.32" r="3.2" fill="#1d4ed8"/>
<circle cx="1078.06" cy="281.32" r="3.2" fill="#1d4ed8"/>
<circle cx="1080.67" cy="282.54" r="3.2" fill="#1d4ed8"/>
<circle cx="1083.29" cy="282.13" r="3.2" fill="#1d4ed8"/>
<circle cx="1085.90" cy="281.32" r="3.2" fill="#1d4ed8"/>
<circle cx="1088.51" cy="281.32" r="3.2" fill="#1d4ed8"/>
<circle cx="1091.13" cy="281.32" r="3.2" fill="#1d4ed8"/>
<circle cx="1093.74" cy="282.54" r="3.2" fill="#1d4ed8"/>
<circle cx="1096.35" cy="282.13" r="3.2" fill="#1d4ed8"/>
<circle cx="1098.97" cy="281.32" r="3.2" fill="#1d4ed8"/>
<circle cx="1101.58" cy="282.13" r="3.2" fill="#1d4ed8"/>
<circle cx="1104.20" cy="281.73" r="3.2" fill="#1d4ed8"/>
<circle cx="1106.81" cy="282.13" r="3.2" fill="#1d4ed8"/>
<circle cx="1109.42" cy="280.11" r="3.2" fill="#1d4ed8"/>
<circle cx="1112.04" cy="280.11" r="3.2" fill="#1d4ed8"/>
<circle cx="1114.65" cy="280.51" r="3.2" fill="#1d4ed8"/>
<circle cx="1117.27" cy="279.71" r="3.2" fill="#1d4ed8"/>
<circle cx="1119.88" cy="280.11" r="3.2" fill="#1d4ed8"/>
<circle cx="1122.49" cy="280.51" r="3.2" fill="#1d4ed8"/>
<circle cx="1125.11" cy="279.71" r="3.2" fill="#1d4ed8"/>
<circle cx="1127.72" cy="280.11" r="3.2" fill="#1d4ed8"/>
<circle cx="1130.34" cy="280.11" r="3.2" fill="#1d4ed8"/>
<circle cx="1132.95" cy="279.30" r="3.2" fill="#1d4ed8"/>
<circle cx="1135.56" cy="278.90" r="3.2" fill="#1d4ed8"/>
<circle cx="1138.18" cy="278.90" r="3.2" fill="#1d4ed8"/>
<circle cx="1140.79" cy="280.51" r="3.2" fill="#1d4ed8"/>
<circle cx="1143.41" cy="279.30" r="3.2" fill="#1d4ed8"/>
<circle cx="1146.02" cy="278.09" r="3.2" fill="#1d4ed8"/>
<circle cx="1148.63" cy="278.49" r="3.2" fill="#1d4ed8"/>
<circle cx="1151.25" cy="278.49" r="3.2" fill="#1d4ed8"/>
<circle cx="1153.86" cy="277.28" r="3.2" fill="#1d4ed8"/>
<circle cx="1156.47" cy="277.68" r="3.2" fill="#1d4ed8"/>
<circle cx="1159.09" cy="277.68" r="3.2" fill="#1d4ed8"/>
<circle cx="1161.70" cy="278.09" r="3.2" fill="#1d4ed8"/>
<circle cx="1164.32" cy="277.28" r="3.2" fill="#1d4ed8"/>
<circle cx="1166.93" cy="600.00" r="3.2" fill="#1d4ed8"/>
<circle cx="1169.54" cy="278.90" r="3.2" fill="#1d4ed8"/>
<circle cx="1172.16" cy="279.30" r="3.2" fill="#1d4ed8"/>
<circle cx="1174.77" cy="278.90" r="3.2" fill="#1d4ed8"/>
<circle cx="1177.39" cy="278.49" r="3.2" fill="#1d4ed8"/>
<circle cx="1180.00" cy="278.49" r="3.2" fill="#1d4ed8"/>
<text x="635" y="695" text-anchor="middle" font-size="14" fill="#111" font-family="sans-serif">Date</text>
<text x="24" y="325" text-anchor="middle" font-size="14" fill="#111" transform="rotate(-90 24,325)" font-family="sans-serif">Passed files</text>
</svg>
