<?xml version="1.0" encoding="UTF-8"?>
<svg xmlns="http://www.w3.org/2000/svg" width="1280" height="720" viewBox="0 0 1280 720">
<rect width="100%" height="100%" fill="#ffffff"/>
<text x="640" y="30" text-anchor="middle" font-size="22" font-family="sans-serif">Roast passed files history</text>
<line x1="90" y1="600" x2="1180" y2="600" stroke="#333" stroke-width="1.5"/>
<line x1="90" y1="50" x2="90" y2="600" stroke="#333" stroke-width="1.5"/>
<line x1="90" y1="600.00" x2="1180" y2="600.00" stroke="#e5e7eb" stroke-width="1"/>
<text x="78" y="605.00" text-anchor="end" font-size="12" fill="#111" font-family="sans-serif">0</text>
<line x1="90" y1="397.79" x2="1180" y2="397.79" stroke="#e5e7eb" stroke-width="1"/>
<text x="78" y="402.79" text-anchor="end" font-size="12" fill="#111" font-family="sans-serif">500</text>
<line x1="90" y1="195.59" x2="1180" y2="195.59" stroke="#e5e7eb" stroke-width="1"/>
<text x="78" y="200.59" text-anchor="end" font-size="12" fill="#111" font-family="sans-serif">1000</text>
<line x1="90.00" y1="600" x2="90.00" y2="606" stroke="#333" stroke-width="1"/>
<text x="90.00" y="624" text-anchor="end" font-size="11" fill="#111" transform="rotate(-40 90.00,624)" font-family="sans-serif">2026-02-12</text>
<line x1="225.67" y1="600" x2="225.67" y2="606" stroke="#333" stroke-width="1"/>
<text x="225.67" y="624" text-anchor="end" font-size="11" fill="#111" transform="rotate(-40 225.67,624)" font-family="sans-serif">2026-02-17</text>
<line x1="361.33" y1="600" x2="361.33" y2="606" stroke="#333" stroke-width="1"/>
<text x="361.33" y="624" text-anchor="end" font-size="11" fill="#111" transform="rotate(-40 361.33,624)" font-family="sans-serif">2026-02-18</text>
<line x1="497.00" y1="600" x2="497.00" y2="606" stroke="#333" stroke-width="1"/>
<text x="497.00" y="624" text-anchor="end" font-size="11" fill="#111" transform="rotate(-40 497.00,624)" font-family="sans-serif">2026-02-21</text>
<line x1="632.66" y1="600" x2="632.66" y2="606" stroke="#333" stroke-width="1"/>
<text x="632.66" y="624" text-anchor="end" font-size="11" fill="#111" transform="rotate(-40 632.66,624)" font-family="sans-serif">2026-02-25</text>
<line x1="768.33" y1="600" x2="768.33" y2="606" stroke="#333" stroke-width="1"/>
<text x="768.33" y="624" text-anchor="end" font-size="11" fill="#111" transform="rotate(-40 768.33,624)" font-family="sans-serif">2026-02-26</text>
<line x1="903.99" y1="600" x2="903.99" y2="606" stroke="#333" stroke-width="1"/>
<text x="903.99" y="624" text-anchor="end" font-size="11" fill="#111" transform="rotate(-40 903.99,624)" font-family="sans-serif">2026-02-28</text>
<line x1="1039.66" y1="600" x2="1039.66" y2="606" stroke="#333" stroke-width="1"/>
<text x="1039.66" y="624" text-anchor="end" font-size="11" fill="#111" transform="rotate(-40 1039.66,624)" font-family="sans-serif">2026-03-01</text>
<line x1="1175.32" y1="600" x2="1175.32" y2="606" stroke="#333" stroke-width="1"/>
<text x="1175.32" y="624" text-anchor="end" font-size="11" fill="#111" transform="rotate(-40 1175.32,624)" font-family="sans-serif">2026-03-06</text>
<line x1="1180.00" y1="600" x2="1180.00" y2="606" stroke="#333" stroke-width="1"/>
<text x="1180.00" y="624" text-anchor="end" font-size="11" fill="#111" transform="rotate(-40 1180.00,624)" font-family="sans-serif">2026-03-06</text>
<line x1="90" y1="75.88" x2="1180" y2="75.88" stroke="#dc2626" stroke-width="1.5" stroke-dasharray="8,4"/>
<text x="1184" y="79.88" font-size="12" fill="#dc2626" font-family="sans-serif">Goal: 1296</text>
<polyline fill="none" stroke="#2563eb" stroke-width="3" points="90.00,540.55 94.68,538.53 99.36,536.91 104.03,534.49 108.71,534.49 113.39,533.27 118.07,532.46 122.75,532.87 127.42,532.06 132.10,532.46 136.78,532.06 141.46,568.46 146.14,568.46 150.82,566.43 155.49,545.00 160.17,545.00 164.85,544.19 169.53,543.79 174.21,543.79 178.88,543.38 183.56,541.76 188.24,541.36 192.92,540.96 197.60,540.96 202.27,539.34 206.95,539.34 211.63,556.73 216.31,556.73 220.99,555.51 225.67,551.07 230.34,538.93 235.02,538.93 239.70,538.93 244.38,538.12 249.06,536.91 253.73,536.91 258.41,536.51 263.09,536.51 267.77,556.73 272.45,556.73 277.12,556.73 281.80,556.73 286.48,535.29 291.16,535.29 295.84,535.29 300.52,535.29 305.19,534.49 309.87,534.08 314.55,533.68 319.23,532.87 323.91,532.06 328.58,532.06 333.26,531.25 337.94,530.85 342.62,530.44 347.30,530.04 351.97,530.04 356.65,529.23 361.33,529.23 366.01,529.23 370.69,528.42 375.36,528.42 380.04,527.61 384.72,527.21 389.40,526.80 394.08,526.40 398.76,525.18 403.43,523.57 408.11,523.57 412.79,523.16 417.47,522.76 422.15,522.35 426.82,521.54 431.50,519.52 436.18,517.50 440.86,517.50 445.54,517.50 450.21,517.50 454.89,517.50 459.57,517.50 464.25,517.10 468.93,516.69 473.61,515.48 478.28,515.07 482.96,514.67 487.64,513.86 492.32,514.26 497.00,512.24 501.67,511.84 506.35,511.84 511.03,511.03 515.71,509.82 520.39,507.79 525.06,506.99 529.74,506.58 534.42,509.41 539.10,509.01 543.78,504.96 548.45,504.56 553.13,504.15 557.81,504.56 562.49,503.75 567.17,503.75 571.85,503.35 576.52,499.30 581.20,496.47 585.88,490.00 590.56,484.34 595.24,481.10 599.91,480.29 604.59,480.70 609.27,460.88 613.95,459.26 618.63,458.05 623.30,456.03 627.98,456.03 632.66,454.41 637.34,450.77 642.02,444.30 646.70,443.90 651.37,600.00 656.05,441.88 660.73,440.66 665.41,439.45 670.09,439.04 674.76,438.64 679.44,437.83 684.12,436.62 688.80,436.62 693.48,434.60 698.15,432.17 702.83,429.34 707.51,428.93 712.19,428.53 716.87,427.72 721.55,426.91 726.22,426.10 730.90,426.10 735.58,426.10 740.26,419.63 744.94,419.23 749.61,418.42 754.29,418.01 758.97,417.61 763.65,417.61 768.33,417.61 773.00,417.21 777.68,417.21 782.36,413.57 787.04,411.95 791.72,412.76 796.39,410.74 801.07,410.74 805.75,410.33 810.43,410.33 815.11,410.33 819.79,409.93 824.46,409.93 829.14,409.93 833.82,409.52 838.50,409.52 843.18,409.12 847.85,409.52 852.53,409.12 857.21,407.50 861.89,407.10 866.57,403.05 871.24,399.82 875.92,400.22 880.60,400.62 885.28,400.62 889.96,399.41 894.64,392.94 899.31,391.32 903.99,389.30 908.67,389.30 913.35,388.49 918.03,375.15 922.70,374.74 927.38,374.74 932.06,374.74 936.74,374.74 941.42,374.34 946.09,374.34 950.77,374.34 955.45,374.34 960.13,374.34 964.81,373.93 969.48,373.12 974.16,372.72 978.84,373.53 983.52,435.81 988.20,372.32 992.88,372.72 997.55,371.91 1002.23,371.91 1006.91,372.32 1011.59,371.10 1016.27,369.89 1020.94,369.89 1025.62,369.89 1030.30,369.49 1034.98,369.89 1039.66,369.08 1044.33,368.68 1049.01,368.27 1053.69,367.87 1058.37,367.06 1063.05,367.46 1067.73,367.06 1072.40,366.25 1077.08,368.27 1081.76,368.68 1086.44,368.68 1091.12,368.27 1095.79,369.08 1100.47,367.87 1105.15,367.46 1109.83,367.06 1114.51,360.18 1119.18,359.78 1123.86,359.38 1128.54,356.95 1133.22,357.35 1137.90,357.76 1142.58,355.33 1147.25,355.74 1151.93,357.35 1156.61,355.33 1161.29,356.14 1165.97,355.74 1170.64,356.14 1175.32,354.12 1180.00,354.93"/>
<circle cx="90.00" cy="540.55" r="3.2" fill="#1d4ed8"/>
<circle cx="94.68" cy="538.53" r="3.2" fill="#1d4ed8"/>
<circle cx="99.36" cy="536.91" r="3.2" fill="#1d4ed8"/>
<circle cx="104.03" cy="534.49" r="3.2" fill="#1d4ed8"/>
<circle cx="108.71" cy="534.49" r="3.2" fill="#1d4ed8"/>
<circle cx="113.39" cy="533.27" r="3.2" fill="#1d4ed8"/>
<circle cx="118.07" cy="532.46" r="3.2" fill="#1d4ed8"/>
<circle cx="122.75" cy="532.87" r="3.2" fill="#1d4ed8"/>
<circle cx="127.42" cy="532.06" r="3.2" fill="#1d4ed8"/>
<circle cx="132.10" cy="532.46" r="3.2" fill="#1d4ed8"/>
<circle cx="136.78" cy="532.06" r="3.2" fill="#1d4ed8"/>
<circle cx="141.46" cy="568.46" r="3.2" fill="#1d4ed8"/>
<circle cx="146.14" cy="568.46" r="3.2" fill="#1d4ed8"/>
<circle cx="150.82" cy="566.43" r="3.2" fill="#1d4ed8"/>
<circle cx="155.49" cy="545.00" r="3.2" fill="#1d4ed8"/>
<circle cx="160.17" cy="545.00" r="3.2" fill="#1d4ed8"/>
<circle cx="164.85" cy="544.19" r="3.2" fill="#1d4ed8"/>
<circle cx="169.53" cy="543.79" r="3.2" fill="#1d4ed8"/>
<circle cx="174.21" cy="543.79" r="3.2" fill="#1d4ed8"/>
<circle cx="178.88" cy="543.38" r="3.2" fill="#1d4ed8"/>
<circle cx="183.56" cy="541.76" r="3.2" fill="#1d4ed8"/>
<circle cx="188.24" cy="541.36" r="3.2" fill="#1d4ed8"/>
<circle cx="192.92" cy="540.96" r="3.2" fill="#1d4ed8"/>
<circle cx="197.60" cy="540.96" r="3.2" fill="#1d4ed8"/>
<circle cx="202.27" cy="539.34" r="3.2" fill="#1d4ed8"/>
<circle cx="206.95" cy="539.34" r="3.2" fill="#1d4ed8"/>
<circle cx="211.63" cy="556.73" r="3.2" fill="#1d4ed8"/>
<circle cx="216.31" cy="556.73" r="3.2" fill="#1d4ed8"/>
<circle cx="220.99" cy="555.51" r="3.2" fill="#1d4ed8"/>
<circle cx="225.67" cy="551.07" r="3.2" fill="#1d4ed8"/>
<circle cx="230.34" cy="538.93" r="3.2" fill="#1d4ed8"/>
<circle cx="235.02" cy="538.93" r="3.2" fill="#1d4ed8"/>
<circle cx="239.70" cy="538.93" r="3.2" fill="#1d4ed8"/>
<circle cx="244.38" cy="538.12" r="3.2" fill="#1d4ed8"/>
<circle cx="249.06" cy="536.91" r="3.2" fill="#1d4ed8"/>
<circle cx="253.73" cy="536.91" r="3.2" fill="#1d4ed8"/>
<circle cx="258.41" cy="536.51" r="3.2" fill="#1d4ed8"/>
<circle cx="263.09" cy="536.51" r="3.2" fill="#1d4ed8"/>
<circle cx="267.77" cy="556.73" r="3.2" fill="#1d4ed8"/>
<circle cx="272.45" cy="556.73" r="3.2" fill="#1d4ed8"/>
<circle cx="277.12" cy="556.73" r="3.2" fill="#1d4ed8"/>
<circle cx="281.80" cy="556.73" r="3.2" fill="#1d4ed8"/>
<circle cx="286.48" cy="535.29" r="3.2" fill="#1d4ed8"/>
<circle cx="291.16" cy="535.29" r="3.2" fill="#1d4ed8"/>
<circle cx="295.84" cy="535.29" r="3.2" fill="#1d4ed8"/>
<circle cx="300.52" cy="535.29" r="3.2" fill="#1d4ed8"/>
<circle cx="305.19" cy="534.49" r="3.2" fill="#1d4ed8"/>
<circle cx="309.87" cy="534.08" r="3.2" fill="#1d4ed8"/>
<circle cx="314.55" cy="533.68" r="3.2" fill="#1d4ed8"/>
<circle cx="319.23" cy="532.87" r="3.2" fill="#1d4ed8"/>
<circle cx="323.91" cy="532.06" r="3.2" fill="#1d4ed8"/>
<circle cx="328.58" cy="532.06" r="3.2" fill="#1d4ed8"/>
<circle cx="333.26" cy="531.25" r="3.2" fill="#1d4ed8"/>
<circle cx="337.94" cy="530.85" r="3.2" fill="#1d4ed8"/>
<circle cx="342.62" cy="530.44" r="3.2" fill="#1d4ed8"/>
<circle cx="347.30" cy="530.04" r="3.2" fill="#1d4ed8"/>
<circle cx="351.97" cy="530.04" r="3.2" fill="#1d4ed8"/>
<circle cx="356.65" cy="529.23" r="3.2" fill="#1d4ed8"/>
<circle cx="361.33" cy="529.23" r="3.2" fill="#1d4ed8"/>
<circle cx="366.01" cy="529.23" r="3.2" fill="#1d4ed8"/>
<circle cx="370.69" cy="528.42" r="3.2" fill="#1d4ed8"/>
<circle cx="375.36" cy="528.42" r="3.2" fill="#1d4ed8"/>
<circle cx="380.04" cy="527.61" r="3.2" fill="#1d4ed8"/>
<circle cx="384.72" cy="527.21" r="3.2" fill="#1d4ed8"/>
<circle cx="389.40" cy="526.80" r="3.2" fill="#1d4ed8"/>
<circle cx="394.08" cy="526.40" r="3.2" fill="#1d4ed8"/>
<circle cx="398.76" cy="525.18" r="3.2" fill="#1d4ed8"/>
<circle cx="403.43" cy="523.57" r="3.2" fill="#1d4ed8"/>
<circle cx="408.11" cy="523.57" r="3.2" fill="#1d4ed8"/>
<circle cx="412.79" cy="523.16" r="3.2" fill="#1d4ed8"/>
<circle cx="417.47" cy="522.76" r="3.2" fill="#1d4ed8"/>
<circle cx="422.15" cy="522.35" r="3.2" fill="#1d4ed8"/>
<circle cx="426.82" cy="521.54" r="3.2" fill="#1d4ed8"/>
<circle cx="431.50" cy="519.52" r="3.2" fill="#1d4ed8"/>
<circle cx="436.18" cy="517.50" r="3.2" fill="#1d4ed8"/>
<circle cx="440.86" cy="517.50" r="3.2" fill="#1d4ed8"/>
<circle cx="445.54" cy="517.50" r="3.2" fill="#1d4ed8"/>
<circle cx="450.21" cy="517.50" r="3.2" fill="#1d4ed8"/>
<circle cx="454.89" cy="517.50" r="3.2" fill="#1d4ed8"/>
<circle cx="459.57" cy="517.50" r="3.2" fill="#1d4ed8"/>
<circle cx="464.25" cy="517.10" r="3.2" fill="#1d4ed8"/>
<circle cx="468.93" cy="516.69" r="3.2" fill="#1d4ed8"/>
<circle cx="473.61" cy="515.48" r="3.2" fill="#1d4ed8"/>
<circle cx="478.28" cy="515.07" r="3.2" fill="#1d4ed8"/>
<circle cx="482.96" cy="514.67" r="3.2" fill="#1d4ed8"/>
<circle cx="487.64" cy="513.86" r="3.2" fill="#1d4ed8"/>
<circle cx="492.32" cy="514.26" r="3.2" fill="#1d4ed8"/>
<circle cx="497.00" cy="512.24" r="3.2" fill="#1d4ed8"/>
<circle cx="501.67" cy="511.84" r="3.2" fill="#1d4ed8"/>
<circle cx="506.35" cy="511.84" r="3.2" fill="#1d4ed8"/>
<circle cx="511.03" cy="511.03" r="3.2" fill="#1d4ed8"/>
<circle cx="515.71" cy="509.82" r="3.2" fill="#1d4ed8"/>
<circle cx="520.39" cy="507.79" r="3.2" fill="#1d4ed8"/>
<circle cx="525.06" cy="506.99" r="3.2" fill="#1d4ed8"/>
<circle cx="529.74" cy="506.58" r="3.2" fill="#1d4ed8"/>
<circle cx="534.42" cy="509.41" r="3.2" fill="#1d4ed8"/>
<circle cx="539.10" cy="509.01" r="3.2" fill="#1d4ed8"/>
<circle cx="543.78" cy="504.96" r="3.2" fill="#1d4ed8"/>
<circle cx="548.45" cy="504.56" r="3.2" fill="#1d4ed8"/>
<circle cx="553.13" cy="504.15" r="3.2" fill="#1d4ed8"/>
<circle cx="557.81" cy="504.56" r="3.2" fill="#1d4ed8"/>
<circle cx="562.49" cy="503.75" r="3.2" fill="#1d4ed8"/>
<circle cx="567.17" cy="503.75" r="3.2" fill="#1d4ed8"/>
<circle cx="571.85" cy="503.35" r="3.2" fill="#1d4ed8"/>
<circle cx="576.52" cy="499.30" r="3.2" fill="#1d4ed8"/>
<circle cx="581.20" cy="496.47" r="3.2" fill="#1d4ed8"/>
<circle cx="585.88" cy="490.00" r="3.2" fill="#1d4ed8"/>
<circle cx="590.56" cy="484.34" r="3.2" fill="#1d4ed8"/>
<circle cx="595.24" cy="481.10" r="3.2" fill="#1d4ed8"/>
<circle cx="599.91" cy="480.29" r="3.2" fill="#1d4ed8"/>
<circle cx="604.59" cy="480.70" r="3.2" fill="#1d4ed8"/>
<circle cx="609.27" cy="460.88" r="3.2" fill="#1d4ed8"/>
<circle cx="613.95" cy="459.26" r="3.2" fill="#1d4ed8"/>
<circle cx="618.63" cy="458.05" r="3.2" fill="#1d4ed8"/>
<circle cx="623.30" cy="456.03" r="3.2" fill="#1d4ed8"/>
<circle cx="627.98" cy="456.03" r="3.2" fill="#1d4ed8"/>
<circle cx="632.66" cy="454.41" r="3.2" fill="#1d4ed8"/>
<circle cx="637.34" cy="450.77" r="3.2" fill="#1d4ed8"/>
<circle cx="642.02" cy="444.30" r="3.2" fill="#1d4ed8"/>
<circle cx="646.70" cy="443.90" r="3.2" fill="#1d4ed8"/>
<circle cx="651.37" cy="600.00" r="3.2" fill="#1d4ed8"/>
<circle cx="656.05" cy="441.88" r="3.2" fill="#1d4ed8"/>
<circle cx="660.73" cy="440.66" r="3.2" fill="#1d4ed8"/>
<circle cx="665.41" cy="439.45" r="3.2" fill="#1d4ed8"/>
<circle cx="670.09" cy="439.04" r="3.2" fill="#1d4ed8"/>
<circle cx="674.76" cy="438.64" r="3.2" fill="#1d4ed8"/>
<circle cx="679.44" cy="437.83" r="3.2" fill="#1d4ed8"/>
<circle cx="684.12" cy="436.62" r="3.2" fill="#1d4ed8"/>
<circle cx="688.80" cy="436.62" r="3.2" fill="#1d4ed8"/>
<circle cx="693.48" cy="434.60" r="3.2" fill="#1d4ed8"/>
<circle cx="698.15" cy="432.17" r="3.2" fill="#1d4ed8"/>
<circle cx="702.83" cy="429.34" r="3.2" fill="#1d4ed8"/>
<circle cx="707.51" cy="428.93" r="3.2" fill="#1d4ed8"/>
<circle cx="712.19" cy="428.53" r="3.2" fill="#1d4ed8"/>
<circle cx="716.87" cy="427.72" r="3.2" fill="#1d4ed8"/>
<circle cx="721.55" cy="426.91" r="3.2" fill="#1d4ed8"/>
<circle cx="726.22" cy="426.10" r="3.2" fill="#1d4ed8"/>
<circle cx="730.90" cy="426.10" r="3.2" fill="#1d4ed8"/>
<circle cx="735.58" cy="426.10" r="3.2" fill="#1d4ed8"/>
<circle cx="740.26" cy="419.63" r="3.2" fill="#1d4ed8"/>
<circle cx="744.94" cy="419.23" r="3.2" fill="#1d4ed8"/>
<circle cx="749.61" cy="418.42" r="3.2" fill="#1d4ed8"/>
<circle cx="754.29" cy="418.01" r="3.2" fill="#1d4ed8"/>
<circle cx="758.97" cy="417.61" r="3.2" fill="#1d4ed8"/>
<circle cx="763.65" cy="417.61" r="3.2" fill="#1d4ed8"/>
<circle cx="768.33" cy="417.61" r="3.2" fill="#1d4ed8"/>
<circle cx="773.00" cy="417.21" r="3.2" fill="#1d4ed8"/>
<circle cx="777.68" cy="417.21" r="3.2" fill="#1d4ed8"/>
<circle cx="782.36" cy="413.57" r="3.2" fill="#1d4ed8"/>
<circle cx="787.04" cy="411.95" r="3.2" fill="#1d4ed8"/>
<circle cx="791.72" cy="412.76" r="3.2" fill="#1d4ed8"/>
<circle cx="796.39" cy="410.74" r="3.2" fill="#1d4ed8"/>
<circle cx="801.07" cy="410.74" r="3.2" fill="#1d4ed8"/>
<circle cx="805.75" cy="410.33" r="3.2" fill="#1d4ed8"/>
<circle cx="810.43" cy="410.33" r="3.2" fill="#1d4ed8"/>
<circle cx="815.11" cy="410.33" r="3.2" fill="#1d4ed8"/>
<circle cx="819.79" cy="409.93" r="3.2" fill="#1d4ed8"/>
<circle cx="824.46" cy="409.93" r="3.2" fill="#1d4ed8"/>
<circle cx="829.14" cy="409.93" r="3.2" fill="#1d4ed8"/>
<circle cx="833.82" cy="409.52" r="3.2" fill="#1d4ed8"/>
<circle cx="838.50" cy="409.52" r="3.2" fill="#1d4ed8"/>
<circle cx="843.18" cy="409.12" r="3.2" fill="#1d4ed8"/>
<circle cx="847.85" cy="409.52" r="3.2" fill="#1d4ed8"/>
<circle cx="852.53" cy="409.12" r="3.2" fill="#1d4ed8"/>
<circle cx="857.21" cy="407.50" r="3.2" fill="#1d4ed8"/>
<circle cx="861.89" cy="407.10" r="3.2" fill="#1d4ed8"/>
<circle cx="866.57" cy="403.05" r="3.2" fill="#1d4ed8"/>
<circle cx="871.24" cy="399.82" r="3.2" fill="#1d4ed8"/>
<circle cx="875.92" cy="400.22" r="3.2" fill="#1d4ed8"/>
<circle cx="880.60" cy="400.62" r="3.2" fill="#1d4ed8"/>
<circle cx="885.28" cy="400.62" r="3.2" fill="#1d4ed8"/>
<circle cx="889.96" cy="399.41" r="3.2" fill="#1d4ed8"/>
<circle cx="894.64" cy="392.94" r="3.2" fill="#1d4ed8"/>
<circle cx="899.31" cy="391.32" r="3.2" fill="#1d4ed8"/>
<circle cx="903.99" cy="389.30" r="3.2" fill="#1d4ed8"/>
<circle cx="908.67" cy="389.30" r="3.2" fill="#1d4ed8"/>
<circle cx="913.35" cy="388.49" r="3.2" fill="#1d4ed8"/>
<circle cx="918.03" cy="375.15" r="3.2" fill="#1d4ed8"/>
<circle cx="922.70" cy="374.74" r="3.2" fill="#1d4ed8"/>
<circle cx="927.38" cy="374.74" r="3.2" fill="#1d4ed8"/>
<circle cx="932.06" cy="374.74" r="3.2" fill="#1d4ed8"/>
<circle cx="936.74" cy="374.74" r="3.2" fill="#1d4ed8"/>
<circle cx="941.42" cy="374.34" r="3.2" fill="#1d4ed8"/>
<circle cx="946.09" cy="374.34" r="3.2" fill="#1d4ed8"/>
<circle cx="950.77" cy="374.34" r="3.2" fill="#1d4ed8"/>
<circle cx="955.45" cy="374.34" r="3.2" fill="#1d4ed8"/>
<circle cx="960.13" cy="374.34" r="3.2" fill="#1d4ed8"/>
<circle cx="964.81" cy="373.93" r="3.2" fill="#1d4ed8"/>
<circle cx="969.48" cy="373.12" r="3.2" fill="#1d4ed8"/>
<circle cx="974.16" cy="372.72" r="3.2" fill="#1d4ed8"/>
<circle cx="978.84" cy="373.53" r="3.2" fill="#1d4ed8"/>
<circle cx="983.52" cy="435.81" r="3.2" fill="#1d4ed8"/>
<circle cx="988.20" cy="372.32" r="3.2" fill="#1d4ed8"/>
<circle cx="992.88" cy="372.72" r="3.2" fill="#1d4ed8"/>
<circle cx="997.55" cy="371.91" r="3.2" fill="#1d4ed8"/>
<circle cx="1002.23" cy="371.91" r="3.2" fill="#1d4ed8"/>
<circle cx="1006.91" cy="372.32" r="3.2" fill="#1d4ed8"/>
<circle cx="1011.59" cy="371.10" r="3.2" fill="#1d4ed8"/>
<circle cx="1016.27" cy="369.89" r="3.2" fill="#1d4ed8"/>
<circle cx="1020.94" cy="369.89" r="3.2" fill="#1d4ed8"/>
<circle cx="1025.62" cy="369.89" r="3.2" fill="#1d4ed8"/>
<circle cx="1030.30" cy="369.49" r="3.2" fill="#1d4ed8"/>
<circle cx="1034.98" cy="369.89" r="3.2" fill="#1d4ed8"/>
<circle cx="1039.66" cy="369.08" r="3.2" fill="#1d4ed8"/>
<circle cx="1044.33" cy="368.68" r="3.2" fill="#1d4ed8"/>
<circle cx="1049.01" cy="368.27" r="3.2" fill="#1d4ed8"/>
<circle cx="1053.69" cy="367.87" r="3.2" fill="#1d4ed8"/>
<circle cx="1058.37" cy="367.06" r="3.2" fill="#1d4ed8"/>
<circle cx="1063.05" cy="367.46" r="3.2" fill="#1d4ed8"/>
<circle cx="1067.73" cy="367.06" r="3.2" fill="#1d4ed8"/>
<circle cx="1072.40" cy="366.25" r="3.2" fill="#1d4ed8"/>
<circle cx="1077.08" cy="368.27" r="3.2" fill="#1d4ed8"/>
<circle cx="1081.76" cy="368.68" r="3.2" fill="#1d4ed8"/>
<circle cx="1086.44" cy="368.68" r="3.2" fill="#1d4ed8"/>
<circle cx="1091.12" cy="368.27" r="3.2" fill="#1d4ed8"/>
<circle cx="1095.79" cy="369.08" r="3.2" fill="#1d4ed8"/>
<circle cx="1100.47" cy="367.87" r="3.2" fill="#1d4ed8"/>
<circle cx="1105.15" cy="367.46" r="3.2" fill="#1d4ed8"/>
<circle cx="1109.83" cy="367.06" r="3.2" fill="#1d4ed8"/>
<circle cx="1114.51" cy="360.18" r="3.2" fill="#1d4ed8"/>
<circle cx="1119.18" cy="359.78" r="3.2" fill="#1d4ed8"/>
<circle cx="1123.86" cy="359.38" r="3.2" fill="#1d4ed8"/>
<circle cx="1128.54" cy="356.95" r="3.2" fill="#1d4ed8"/>
<circle cx="1133.22" cy="357.35" r="3.2" fill="#1d4ed8"/>
<circle cx="1137.90" cy="357.76" r="3.2" fill="#1d4ed8"/>
<circle cx="1142.58" cy="355.33" r="3.2" fill="#1d4ed8"/>
<circle cx="1147.25" cy="355.74" r="3.2" fill="#1d4ed8"/>
<circle cx="1151.93" cy="357.35" r="3.2" fill="#1d4ed8"/>
<circle cx="1156.61" cy="355.33" r="3.2" fill="#1d4ed8"/>
<circle cx="1161.29" cy="356.14" r="3.2" fill="#1d4ed8"/>
<circle cx="1165.97" cy="355.74" r="3.2" fill="#1d4ed8"/>
<circle cx="1170.64" cy="356.14" r="3.2" fill="#1d4ed8"/>
<circle cx="1175.32" cy="354.12" r="3.2" fill="#1d4ed8"/>
<circle cx="1180.00" cy="354.93" r="3.2" fill="#1d4ed8"/>
<text x="635" y="695" text-anchor="middle" font-size="14" fill="#111" font-family="sans-serif">Date</text>
<text x="24" y="325" text-anchor="middle" font-size="14" fill="#111" transform="rotate(-90 24,325)" font-family="sans-serif">Passed files</text>
</svg>
