<?xml version="1.0" encoding="UTF-8"?>
<svg xmlns="http://www.w3.org/2000/svg" width="1280" height="720" viewBox="0 0 1280 720">
<rect width="100%" height="100%" fill="#ffffff"/>
<text x="640" y="30" text-anchor="middle" font-size="22" font-family="sans-serif">Roast passed files history</text>
<line x1="90" y1="600" x2="1180" y2="600" stroke="#333" stroke-width="1.5"/>
<line x1="90" y1="50" x2="90" y2="600" stroke="#333" stroke-width="1.5"/>
<line x1="90" y1="600.00" x2="1180" y2="600.00" stroke="#e5e7eb" stroke-width="1"/>
<text x="78" y="605.00" text-anchor="end" font-size="12" fill="#111" font-family="sans-serif">0</text>
<line x1="90" y1="397.79" x2="1180" y2="397.79" stroke="#e5e7eb" stroke-width="1"/>
<text x="78" y="402.79" text-anchor="end" font-size="12" fill="#111" font-family="sans-serif">500</text>
<line x1="90" y1="195.59" x2="1180" y2="195.59" stroke="#e5e7eb" stroke-width="1"/>
<text x="78" y="200.59" text-anchor="end" font-size="12" fill="#111" font-family="sans-serif">1000</text>
<line x1="90.00" y1="600" x2="90.00" y2="606" stroke="#333" stroke-width="1"/>
<text x="90.00" y="624" text-anchor="end" font-size="11" fill="#111" transform="rotate(-40 90.00,624)" font-family="sans-serif">2026-02-12</text>
<line x1="226.25" y1="600" x2="226.25" y2="606" stroke="#333" stroke-width="1"/>
<text x="226.25" y="624" text-anchor="end" font-size="11" fill="#111" transform="rotate(-40 226.25,624)" font-family="sans-serif">2026-02-17</text>
<line x1="362.50" y1="600" x2="362.50" y2="606" stroke="#333" stroke-width="1"/>
<text x="362.50" y="624" text-anchor="end" font-size="11" fill="#111" transform="rotate(-40 362.50,624)" font-family="sans-serif">2026-02-21</text>
<line x1="498.75" y1="600" x2="498.75" y2="606" stroke="#333" stroke-width="1"/>
<text x="498.75" y="624" text-anchor="end" font-size="11" fill="#111" transform="rotate(-40 498.75,624)" font-family="sans-serif">2026-02-25</text>
<line x1="635.00" y1="600" x2="635.00" y2="606" stroke="#333" stroke-width="1"/>
<text x="635.00" y="624" text-anchor="end" font-size="11" fill="#111" transform="rotate(-40 635.00,624)" font-family="sans-serif">2026-02-28</text>
<line x1="771.25" y1="600" x2="771.25" y2="606" stroke="#333" stroke-width="1"/>
<text x="771.25" y="624" text-anchor="end" font-size="11" fill="#111" transform="rotate(-40 771.25,624)" font-family="sans-serif">2026-03-05</text>
<line x1="907.50" y1="600" x2="907.50" y2="606" stroke="#333" stroke-width="1"/>
<text x="907.50" y="624" text-anchor="end" font-size="11" fill="#111" transform="rotate(-40 907.50,624)" font-family="sans-serif">2026-03-06</text>
<line x1="1043.75" y1="600" x2="1043.75" y2="606" stroke="#333" stroke-width="1"/>
<text x="1043.75" y="624" text-anchor="end" font-size="11" fill="#111" transform="rotate(-40 1043.75,624)" font-family="sans-serif">2026-03-11</text>
<line x1="1180.00" y1="600" x2="1180.00" y2="606" stroke="#333" stroke-width="1"/>
<text x="1180.00" y="624" text-anchor="end" font-size="11" fill="#111" transform="rotate(-40 1180.00,624)" font-family="sans-serif">2026-03-18</text>
<line x1="90" y1="75.88" x2="1180" y2="75.88" stroke="#dc2626" stroke-width="1.5" stroke-dasharray="8,4"/>
<text x="1184" y="79.88" font-size="12" fill="#dc2626" font-family="sans-serif">Goal: 1296</text>
<polyline fill="none" stroke="#2563eb" stroke-width="3" points="90.00,540.55 93.10,538.53 96.19,536.91 99.29,534.49 102.39,534.49 105.48,533.27 108.58,532.46 111.68,532.87 114.77,532.06 117.87,532.46 120.97,532.06 124.06,568.46 127.16,568.46 130.26,566.43 133.35,545.00 136.45,545.00 139.55,544.19 142.64,543.79 145.74,543.79 148.84,543.38 151.93,541.76 155.03,541.36 158.12,540.96 161.22,540.96 164.32,539.34 167.41,539.34 170.51,556.73 173.61,556.73 176.70,555.51 179.80,551.07 182.90,538.93 185.99,538.93 189.09,538.93 192.19,538.12 195.28,536.91 198.38,536.91 201.48,536.51 204.57,536.51 207.67,556.73 210.77,556.73 213.86,556.73 216.96,556.73 220.06,535.29 223.15,535.29 226.25,535.29 229.35,535.29 232.44,534.49 235.54,534.08 238.64,533.68 241.73,532.87 244.83,532.06 247.93,532.06 251.02,531.25 254.12,530.85 257.22,530.44 260.31,530.04 263.41,530.04 266.51,529.23 269.60,529.23 272.70,529.23 275.80,528.42 278.89,528.42 281.99,527.61 285.09,527.21 288.18,526.80 291.28,526.40 294.38,525.18 297.47,523.57 300.57,523.57 303.66,523.16 306.76,522.76 309.86,522.35 312.95,521.54 316.05,519.52 319.15,517.50 322.24,517.50 325.34,517.50 328.44,517.50 331.53,517.50 334.63,517.50 337.73,517.10 340.82,516.69 343.92,515.48 347.02,515.07 350.11,514.67 353.21,513.86 356.31,514.26 359.40,512.24 362.50,511.84 365.60,511.84 368.69,511.03 371.79,509.82 374.89,507.79 377.98,506.99 381.08,506.58 384.18,509.41 387.27,509.01 390.37,504.96 393.47,504.56 396.56,504.15 399.66,504.56 402.76,503.75 405.85,503.75 408.95,503.35 412.05,499.30 415.14,496.47 418.24,490.00 421.34,484.34 424.43,481.10 427.53,480.29 430.62,480.70 433.72,460.88 436.82,459.26 439.91,458.05 443.01,456.03 446.11,456.03 449.20,454.41 452.30,450.77 455.40,444.30 458.49,443.90 461.59,600.00 464.69,441.88 467.78,440.66 470.88,439.45 473.98,439.04 477.07,438.64 480.17,437.83 483.27,436.62 486.36,436.62 489.46,434.60 492.56,432.17 495.65,429.34 498.75,428.93 501.85,428.53 504.94,427.72 508.04,426.91 511.14,426.10 514.23,426.10 517.33,426.10 520.43,419.63 523.52,419.23 526.62,418.42 529.72,418.01 532.81,417.61 535.91,417.61 539.01,417.61 542.10,417.21 545.20,417.21 548.30,413.57 551.39,411.95 554.49,412.76 557.59,410.74 560.68,410.74 563.78,410.33 566.88,410.33 569.97,410.33 573.07,409.93 576.16,409.93 579.26,409.93 582.36,409.52 585.45,409.52 588.55,409.12 591.65,409.52 594.74,409.12 597.84,407.50 600.94,407.10 604.03,403.05 607.13,399.82 610.23,400.22 613.32,400.62 616.42,400.62 619.52,399.41 622.61,392.94 625.71,391.32 628.81,389.30 631.90,389.30 635.00,388.49 638.10,375.15 641.19,374.74 644.29,374.74 647.39,374.74 650.48,374.74 653.58,374.34 656.68,374.34 659.77,374.34 662.87,374.34 665.97,374.34 669.06,373.93 672.16,373.12 675.26,372.72 678.35,373.53 681.45,435.81 684.55,372.32 687.64,372.72 690.74,371.91 693.84,371.91 696.93,372.32 700.03,371.10 703.12,369.89 706.22,369.89 709.32,369.89 712.41,369.49 715.51,369.89 718.61,369.08 721.70,368.68 724.80,368.27 727.90,367.87 730.99,367.06 734.09,367.46 737.19,367.06 740.28,366.25 743.38,368.27 746.48,368.68 749.57,368.68 752.67,368.27 755.77,369.08 758.86,367.87 761.96,367.46 765.06,367.06 768.15,360.18 771.25,359.78 774.35,359.38 777.44,356.95 780.54,357.35 783.64,357.76 786.73,355.33 789.83,355.74 792.93,357.35 796.02,355.33 799.12,356.14 802.22,355.74 805.31,356.14 808.41,354.12 811.51,354.93 814.60,356.14 817.70,354.52 820.80,353.71 823.89,354.12 826.99,354.93 830.09,352.90 833.18,353.71 836.28,353.31 839.38,353.31 842.47,354.52 845.57,352.90 848.66,352.50 851.76,352.50 854.86,353.31 857.95,352.50 861.05,353.71 864.15,354.12 867.24,352.50 870.34,352.90 873.44,352.50 876.53,352.10 879.63,351.69 882.73,352.10 885.82,354.12 888.92,352.50 892.02,352.10 895.11,352.10 898.21,349.67 901.31,349.67 904.40,350.88 907.50,351.29 910.60,350.48 913.69,352.10 916.79,350.48 919.89,350.48 922.98,350.48 926.08,350.07 929.18,348.46 932.27,351.29 935.37,349.67 938.47,351.29 941.56,349.67 944.66,348.86 947.76,348.46 950.85,348.46 953.95,347.24 957.05,348.86 960.14,346.84 963.24,348.46 966.34,348.86 969.43,346.84 972.53,349.26 975.62,348.05 978.72,349.26 981.82,349.26 984.91,350.48 988.01,352.90 991.11,349.67 994.20,348.46 997.30,345.62 1000.40,344.82 1003.49,344.41 1006.59,342.39 1009.69,341.18 1012.78,341.58 1015.88,339.15 1018.98,338.35 1022.07,337.54 1025.17,336.73 1028.27,335.92 1031.36,337.54 1034.46,338.35 1037.56,337.54 1040.65,337.54 1043.75,337.54 1046.85,333.09 1049.94,333.90 1053.04,335.92 1056.14,336.73 1059.23,335.51 1062.33,332.28 1065.43,331.47 1068.52,331.07 1071.62,331.47 1074.72,331.07 1077.81,331.07 1080.91,331.07 1084.01,331.07 1087.10,331.07 1090.20,331.07 1093.30,331.07 1096.39,331.07 1099.49,331.07 1102.59,331.07 1105.68,331.47 1108.78,331.88 1111.88,331.07 1114.97,331.47 1118.07,331.07 1121.16,331.47 1124.26,331.07 1127.36,324.19 1130.45,324.19 1133.55,318.93 1136.65,316.51 1139.74,310.44 1142.84,308.01 1145.94,600.00 1149.03,301.54 1152.13,290.22 1155.23,287.79 1158.32,286.18 1161.42,285.77 1164.52,285.77 1167.61,285.77 1170.71,286.18 1173.81,285.77 1176.90,285.77 1180.00,285.77"/>
<circle cx="90.00" cy="540.55" r="3.2" fill="#1d4ed8"/>
<circle cx="93.10" cy="538.53" r="3.2" fill="#1d4ed8"/>
<circle cx="96.19" cy="536.91" r="3.2" fill="#1d4ed8"/>
<circle cx="99.29" cy="534.49" r="3.2" fill="#1d4ed8"/>
<circle cx="102.39" cy="534.49" r="3.2" fill="#1d4ed8"/>
<circle cx="105.48" cy="533.27" r="3.2" fill="#1d4ed8"/>
<circle cx="108.58" cy="532.46" r="3.2" fill="#1d4ed8"/>
<circle cx="111.68" cy="532.87" r="3.2" fill="#1d4ed8"/>
<circle cx="114.77" cy="532.06" r="3.2" fill="#1d4ed8"/>
<circle cx="117.87" cy="532.46" r="3.2" fill="#1d4ed8"/>
<circle cx="120.97" cy="532.06" r="3.2" fill="#1d4ed8"/>
<circle cx="124.06" cy="568.46" r="3.2" fill="#1d4ed8"/>
<circle cx="127.16" cy="568.46" r="3.2" fill="#1d4ed8"/>
<circle cx="130.26" cy="566.43" r="3.2" fill="#1d4ed8"/>
<circle cx="133.35" cy="545.00" r="3.2" fill="#1d4ed8"/>
<circle cx="136.45" cy="545.00" r="3.2" fill="#1d4ed8"/>
<circle cx="139.55" cy="544.19" r="3.2" fill="#1d4ed8"/>
<circle cx="142.64" cy="543.79" r="3.2" fill="#1d4ed8"/>
<circle cx="145.74" cy="543.79" r="3.2" fill="#1d4ed8"/>
<circle cx="148.84" cy="543.38" r="3.2" fill="#1d4ed8"/>
<circle cx="151.93" cy="541.76" r="3.2" fill="#1d4ed8"/>
<circle cx="155.03" cy="541.36" r="3.2" fill="#1d4ed8"/>
<circle cx="158.12" cy="540.96" r="3.2" fill="#1d4ed8"/>
<circle cx="161.22" cy="540.96" r="3.2" fill="#1d4ed8"/>
<circle cx="164.32" cy="539.34" r="3.2" fill="#1d4ed8"/>
<circle cx="167.41" cy="539.34" r="3.2" fill="#1d4ed8"/>
<circle cx="170.51" cy="556.73" r="3.2" fill="#1d4ed8"/>
<circle cx="173.61" cy="556.73" r="3.2" fill="#1d4ed8"/>
<circle cx="176.70" cy="555.51" r="3.2" fill="#1d4ed8"/>
<circle cx="179.80" cy="551.07" r="3.2" fill="#1d4ed8"/>
<circle cx="182.90" cy="538.93" r="3.2" fill="#1d4ed8"/>
<circle cx="185.99" cy="538.93" r="3.2" fill="#1d4ed8"/>
<circle cx="189.09" cy="538.93" r="3.2" fill="#1d4ed8"/>
<circle cx="192.19" cy="538.12" r="3.2" fill="#1d4ed8"/>
<circle cx="195.28" cy="536.91" r="3.2" fill="#1d4ed8"/>
<circle cx="198.38" cy="536.91" r="3.2" fill="#1d4ed8"/>
<circle cx="201.48" cy="536.51" r="3.2" fill="#1d4ed8"/>
<circle cx="204.57" cy="536.51" r="3.2" fill="#1d4ed8"/>
<circle cx="207.67" cy="556.73" r="3.2" fill="#1d4ed8"/>
<circle cx="210.77" cy="556.73" r="3.2" fill="#1d4ed8"/>
<circle cx="213.86" cy="556.73" r="3.2" fill="#1d4ed8"/>
<circle cx="216.96" cy="556.73" r="3.2" fill="#1d4ed8"/>
<circle cx="220.06" cy="535.29" r="3.2" fill="#1d4ed8"/>
<circle cx="223.15" cy="535.29" r="3.2" fill="#1d4ed8"/>
<circle cx="226.25" cy="535.29" r="3.2" fill="#1d4ed8"/>
<circle cx="229.35" cy="535.29" r="3.2" fill="#1d4ed8"/>
<circle cx="232.44" cy="534.49" r="3.2" fill="#1d4ed8"/>
<circle cx="235.54" cy="534.08" r="3.2" fill="#1d4ed8"/>
<circle cx="238.64" cy="533.68" r="3.2" fill="#1d4ed8"/>
<circle cx="241.73" cy="532.87" r="3.2" fill="#1d4ed8"/>
<circle cx="244.83" cy="532.06" r="3.2" fill="#1d4ed8"/>
<circle cx="247.93" cy="532.06" r="3.2" fill="#1d4ed8"/>
<circle cx="251.02" cy="531.25" r="3.2" fill="#1d4ed8"/>
<circle cx="254.12" cy="530.85" r="3.2" fill="#1d4ed8"/>
<circle cx="257.22" cy="530.44" r="3.2" fill="#1d4ed8"/>
<circle cx="260.31" cy="530.04" r="3.2" fill="#1d4ed8"/>
<circle cx="263.41" cy="530.04" r="3.2" fill="#1d4ed8"/>
<circle cx="266.51" cy="529.23" r="3.2" fill="#1d4ed8"/>
<circle cx="269.60" cy="529.23" r="3.2" fill="#1d4ed8"/>
<circle cx="272.70" cy="529.23" r="3.2" fill="#1d4ed8"/>
<circle cx="275.80" cy="528.42" r="3.2" fill="#1d4ed8"/>
<circle cx="278.89" cy="528.42" r="3.2" fill="#1d4ed8"/>
<circle cx="281.99" cy="527.61" r="3.2" fill="#1d4ed8"/>
<circle cx="285.09" cy="527.21" r="3.2" fill="#1d4ed8"/>
<circle cx="288.18" cy="526.80" r="3.2" fill="#1d4ed8"/>
<circle cx="291.28" cy="526.40" r="3.2" fill="#1d4ed8"/>
<circle cx="294.38" cy="525.18" r="3.2" fill="#1d4ed8"/>
<circle cx="297.47" cy="523.57" r="3.2" fill="#1d4ed8"/>
<circle cx="300.57" cy="523.57" r="3.2" fill="#1d4ed8"/>
<circle cx="303.66" cy="523.16" r="3.2" fill="#1d4ed8"/>
<circle cx="306.76" cy="522.76" r="3.2" fill="#1d4ed8"/>
<circle cx="309.86" cy="522.35" r="3.2" fill="#1d4ed8"/>
<circle cx="312.95" cy="521.54" r="3.2" fill="#1d4ed8"/>
<circle cx="316.05" cy="519.52" r="3.2" fill="#1d4ed8"/>
<circle cx="319.15" cy="517.50" r="3.2" fill="#1d4ed8"/>
<circle cx="322.24" cy="517.50" r="3.2" fill="#1d4ed8"/>
<circle cx="325.34" cy="517.50" r="3.2" fill="#1d4ed8"/>
<circle cx="328.44" cy="517.50" r="3.2" fill="#1d4ed8"/>
<circle cx="331.53" cy="517.50" r="3.2" fill="#1d4ed8"/>
<circle cx="334.63" cy="517.50" r="3.2" fill="#1d4ed8"/>
<circle cx="337.73" cy="517.10" r="3.2" fill="#1d4ed8"/>
<circle cx="340.82" cy="516.69" r="3.2" fill="#1d4ed8"/>
<circle cx="343.92" cy="515.48" r="3.2" fill="#1d4ed8"/>
<circle cx="347.02" cy="515.07" r="3.2" fill="#1d4ed8"/>
<circle cx="350.11" cy="514.67" r="3.2" fill="#1d4ed8"/>
<circle cx="353.21" cy="513.86" r="3.2" fill="#1d4ed8"/>
<circle cx="356.31" cy="514.26" r="3.2" fill="#1d4ed8"/>
<circle cx="359.40" cy="512.24" r="3.2" fill="#1d4ed8"/>
<circle cx="362.50" cy="511.84" r="3.2" fill="#1d4ed8"/>
<circle cx="365.60" cy="511.84" r="3.2" fill="#1d4ed8"/>
<circle cx="368.69" cy="511.03" r="3.2" fill="#1d4ed8"/>
<circle cx="371.79" cy="509.82" r="3.2" fill="#1d4ed8"/>
<circle cx="374.89" cy="507.79" r="3.2" fill="#1d4ed8"/>
<circle cx="377.98" cy="506.99" r="3.2" fill="#1d4ed8"/>
<circle cx="381.08" cy="506.58" r="3.2" fill="#1d4ed8"/>
<circle cx="384.18" cy="509.41" r="3.2" fill="#1d4ed8"/>
<circle cx="387.27" cy="509.01" r="3.2" fill="#1d4ed8"/>
<circle cx="390.37" cy="504.96" r="3.2" fill="#1d4ed8"/>
<circle cx="393.47" cy="504.56" r="3.2" fill="#1d4ed8"/>
<circle cx="396.56" cy="504.15" r="3.2" fill="#1d4ed8"/>
<circle cx="399.66" cy="504.56" r="3.2" fill="#1d4ed8"/>
<circle cx="402.76" cy="503.75" r="3.2" fill="#1d4ed8"/>
<circle cx="405.85" cy="503.75" r="3.2" fill="#1d4ed8"/>
<circle cx="408.95" cy="503.35" r="3.2" fill="#1d4ed8"/>
<circle cx="412.05" cy="499.30" r="3.2" fill="#1d4ed8"/>
<circle cx="415.14" cy="496.47" r="3.2" fill="#1d4ed8"/>
<circle cx="418.24" cy="490.00" r="3.2" fill="#1d4ed8"/>
<circle cx="421.34" cy="484.34" r="3.2" fill="#1d4ed8"/>
<circle cx="424.43" cy="481.10" r="3.2" fill="#1d4ed8"/>
<circle cx="427.53" cy="480.29" r="3.2" fill="#1d4ed8"/>
<circle cx="430.62" cy="480.70" r="3.2" fill="#1d4ed8"/>
<circle cx="433.72" cy="460.88" r="3.2" fill="#1d4ed8"/>
<circle cx="436.82" cy="459.26" r="3.2" fill="#1d4ed8"/>
<circle cx="439.91" cy="458.05" r="3.2" fill="#1d4ed8"/>
<circle cx="443.01" cy="456.03" r="3.2" fill="#1d4ed8"/>
<circle cx="446.11" cy="456.03" r="3.2" fill="#1d4ed8"/>
<circle cx="449.20" cy="454.41" r="3.2" fill="#1d4ed8"/>
<circle cx="452.30" cy="450.77" r="3.2" fill="#1d4ed8"/>
<circle cx="455.40" cy="444.30" r="3.2" fill="#1d4ed8"/>
<circle cx="458.49" cy="443.90" r="3.2" fill="#1d4ed8"/>
<circle cx="461.59" cy="600.00" r="3.2" fill="#1d4ed8"/>
<circle cx="464.69" cy="441.88" r="3.2" fill="#1d4ed8"/>
<circle cx="467.78" cy="440.66" r="3.2" fill="#1d4ed8"/>
<circle cx="470.88" cy="439.45" r="3.2" fill="#1d4ed8"/>
<circle cx="473.98" cy="439.04" r="3.2" fill="#1d4ed8"/>
<circle cx="477.07" cy="438.64" r="3.2" fill="#1d4ed8"/>
<circle cx="480.17" cy="437.83" r="3.2" fill="#1d4ed8"/>
<circle cx="483.27" cy="436.62" r="3.2" fill="#1d4ed8"/>
<circle cx="486.36" cy="436.62" r="3.2" fill="#1d4ed8"/>
<circle cx="489.46" cy="434.60" r="3.2" fill="#1d4ed8"/>
<circle cx="492.56" cy="432.17" r="3.2" fill="#1d4ed8"/>
<circle cx="495.65" cy="429.34" r="3.2" fill="#1d4ed8"/>
<circle cx="498.75" cy="428.93" r="3.2" fill="#1d4ed8"/>
<circle cx="501.85" cy="428.53" r="3.2" fill="#1d4ed8"/>
<circle cx="504.94" cy="427.72" r="3.2" fill="#1d4ed8"/>
<circle cx="508.04" cy="426.91" r="3.2" fill="#1d4ed8"/>
<circle cx="511.14" cy="426.10" r="3.2" fill="#1d4ed8"/>
<circle cx="514.23" cy="426.10" r="3.2" fill="#1d4ed8"/>
<circle cx="517.33" cy="426.10" r="3.2" fill="#1d4ed8"/>
<circle cx="520.43" cy="419.63" r="3.2" fill="#1d4ed8"/>
<circle cx="523.52" cy="419.23" r="3.2" fill="#1d4ed8"/>
<circle cx="526.62" cy="418.42" r="3.2" fill="#1d4ed8"/>
<circle cx="529.72" cy="418.01" r="3.2" fill="#1d4ed8"/>
<circle cx="532.81" cy="417.61" r="3.2" fill="#1d4ed8"/>
<circle cx="535.91" cy="417.61" r="3.2" fill="#1d4ed8"/>
<circle cx="539.01" cy="417.61" r="3.2" fill="#1d4ed8"/>
<circle cx="542.10" cy="417.21" r="3.2" fill="#1d4ed8"/>
<circle cx="545.20" cy="417.21" r="3.2" fill="#1d4ed8"/>
<circle cx="548.30" cy="413.57" r="3.2" fill="#1d4ed8"/>
<circle cx="551.39" cy="411.95" r="3.2" fill="#1d4ed8"/>
<circle cx="554.49" cy="412.76" r="3.2" fill="#1d4ed8"/>
<circle cx="557.59" cy="410.74" r="3.2" fill="#1d4ed8"/>
<circle cx="560.68" cy="410.74" r="3.2" fill="#1d4ed8"/>
<circle cx="563.78" cy="410.33" r="3.2" fill="#1d4ed8"/>
<circle cx="566.88" cy="410.33" r="3.2" fill="#1d4ed8"/>
<circle cx="569.97" cy="410.33" r="3.2" fill="#1d4ed8"/>
<circle cx="573.07" cy="409.93" r="3.2" fill="#1d4ed8"/>
<circle cx="576.16" cy="409.93" r="3.2" fill="#1d4ed8"/>
<circle cx="579.26" cy="409.93" r="3.2" fill="#1d4ed8"/>
<circle cx="582.36" cy="409.52" r="3.2" fill="#1d4ed8"/>
<circle cx="585.45" cy="409.52" r="3.2" fill="#1d4ed8"/>
<circle cx="588.55" cy="409.12" r="3.2" fill="#1d4ed8"/>
<circle cx="591.65" cy="409.52" r="3.2" fill="#1d4ed8"/>
<circle cx="594.74" cy="409.12" r="3.2" fill="#1d4ed8"/>
<circle cx="597.84" cy="407.50" r="3.2" fill="#1d4ed8"/>
<circle cx="600.94" cy="407.10" r="3.2" fill="#1d4ed8"/>
<circle cx="604.03" cy="403.05" r="3.2" fill="#1d4ed8"/>
<circle cx="607.13" cy="399.82" r="3.2" fill="#1d4ed8"/>
<circle cx="610.23" cy="400.22" r="3.2" fill="#1d4ed8"/>
<circle cx="613.32" cy="400.62" r="3.2" fill="#1d4ed8"/>
<circle cx="616.42" cy="400.62" r="3.2" fill="#1d4ed8"/>
<circle cx="619.52" cy="399.41" r="3.2" fill="#1d4ed8"/>
<circle cx="622.61" cy="392.94" r="3.2" fill="#1d4ed8"/>
<circle cx="625.71" cy="391.32" r="3.2" fill="#1d4ed8"/>
<circle cx="628.81" cy="389.30" r="3.2" fill="#1d4ed8"/>
<circle cx="631.90" cy="389.30" r="3.2" fill="#1d4ed8"/>
<circle cx="635.00" cy="388.49" r="3.2" fill="#1d4ed8"/>
<circle cx="638.10" cy="375.15" r="3.2" fill="#1d4ed8"/>
<circle cx="641.19" cy="374.74" r="3.2" fill="#1d4ed8"/>
<circle cx="644.29" cy="374.74" r="3.2" fill="#1d4ed8"/>
<circle cx="647.39" cy="374.74" r="3.2" fill="#1d4ed8"/>
<circle cx="650.48" cy="374.74" r="3.2" fill="#1d4ed8"/>
<circle cx="653.58" cy="374.34" r="3.2" fill="#1d4ed8"/>
<circle cx="656.68" cy="374.34" r="3.2" fill="#1d4ed8"/>
<circle cx="659.77" cy="374.34" r="3.2" fill="#1d4ed8"/>
<circle cx="662.87" cy="374.34" r="3.2" fill="#1d4ed8"/>
<circle cx="665.97" cy="374.34" r="3.2" fill="#1d4ed8"/>
<circle cx="669.06" cy="373.93" r="3.2" fill="#1d4ed8"/>
<circle cx="672.16" cy="373.12" r="3.2" fill="#1d4ed8"/>
<circle cx="675.26" cy="372.72" r="3.2" fill="#1d4ed8"/>
<circle cx="678.35" cy="373.53" r="3.2" fill="#1d4ed8"/>
<circle cx="681.45" cy="435.81" r="3.2" fill="#1d4ed8"/>
<circle cx="684.55" cy="372.32" r="3.2" fill="#1d4ed8"/>
<circle cx="687.64" cy="372.72" r="3.2" fill="#1d4ed8"/>
<circle cx="690.74" cy="371.91" r="3.2" fill="#1d4ed8"/>
<circle cx="693.84" cy="371.91" r="3.2" fill="#1d4ed8"/>
<circle cx="696.93" cy="372.32" r="3.2" fill="#1d4ed8"/>
<circle cx="700.03" cy="371.10" r="3.2" fill="#1d4ed8"/>
<circle cx="703.12" cy="369.89" r="3.2" fill="#1d4ed8"/>
<circle cx="706.22" cy="369.89" r="3.2" fill="#1d4ed8"/>
<circle cx="709.32" cy="369.89" r="3.2" fill="#1d4ed8"/>
<circle cx="712.41" cy="369.49" r="3.2" fill="#1d4ed8"/>
<circle cx="715.51" cy="369.89" r="3.2" fill="#1d4ed8"/>
<circle cx="718.61" cy="369.08" r="3.2" fill="#1d4ed8"/>
<circle cx="721.70" cy="368.68" r="3.2" fill="#1d4ed8"/>
<circle cx="724.80" cy="368.27" r="3.2" fill="#1d4ed8"/>
<circle cx="727.90" cy="367.87" r="3.2" fill="#1d4ed8"/>
<circle cx="730.99" cy="367.06" r="3.2" fill="#1d4ed8"/>
<circle cx="734.09" cy="367.46" r="3.2" fill="#1d4ed8"/>
<circle cx="737.19" cy="367.06" r="3.2" fill="#1d4ed8"/>
<circle cx="740.28" cy="366.25" r="3.2" fill="#1d4ed8"/>
<circle cx="743.38" cy="368.27" r="3.2" fill="#1d4ed8"/>
<circle cx="746.48" cy="368.68" r="3.2" fill="#1d4ed8"/>
<circle cx="749.57" cy="368.68" r="3.2" fill="#1d4ed8"/>
<circle cx="752.67" cy="368.27" r="3.2" fill="#1d4ed8"/>
<circle cx="755.77" cy="369.08" r="3.2" fill="#1d4ed8"/>
<circle cx="758.86" cy="367.87" r="3.2" fill="#1d4ed8"/>
<circle cx="761.96" cy="367.46" r="3.2" fill="#1d4ed8"/>
<circle cx="765.06" cy="367.06" r="3.2" fill="#1d4ed8"/>
<circle cx="768.15" cy="360.18" r="3.2" fill="#1d4ed8"/>
<circle cx="771.25" cy="359.78" r="3.2" fill="#1d4ed8"/>
<circle cx="774.35" cy="359.38" r="3.2" fill="#1d4ed8"/>
<circle cx="777.44" cy="356.95" r="3.2" fill="#1d4ed8"/>
<circle cx="780.54" cy="357.35" r="3.2" fill="#1d4ed8"/>
<circle cx="783.64" cy="357.76" r="3.2" fill="#1d4ed8"/>
<circle cx="786.73" cy="355.33" r="3.2" fill="#1d4ed8"/>
<circle cx="789.83" cy="355.74" r="3.2" fill="#1d4ed8"/>
<circle cx="792.93" cy="357.35" r="3.2" fill="#1d4ed8"/>
<circle cx="796.02" cy="355.33" r="3.2" fill="#1d4ed8"/>
<circle cx="799.12" cy="356.14" r="3.2" fill="#1d4ed8"/>
<circle cx="802.22" cy="355.74" r="3.2" fill="#1d4ed8"/>
<circle cx="805.31" cy="356.14" r="3.2" fill="#1d4ed8"/>
<circle cx="808.41" cy="354.12" r="3.2" fill="#1d4ed8"/>
<circle cx="811.51" cy="354.93" r="3.2" fill="#1d4ed8"/>
<circle cx="814.60" cy="356.14" r="3.2" fill="#1d4ed8"/>
<circle cx="817.70" cy="354.52" r="3.2" fill="#1d4ed8"/>
<circle cx="820.80" cy="353.71" r="3.2" fill="#1d4ed8"/>
<circle cx="823.89" cy="354.12" r="3.2" fill="#1d4ed8"/>
<circle cx="826.99" cy="354.93" r="3.2" fill="#1d4ed8"/>
<circle cx="830.09" cy="352.90" r="3.2" fill="#1d4ed8"/>
<circle cx="833.18" cy="353.71" r="3.2" fill="#1d4ed8"/>
<circle cx="836.28" cy="353.31" r="3.2" fill="#1d4ed8"/>
<circle cx="839.38" cy="353.31" r="3.2" fill="#1d4ed8"/>
<circle cx="842.47" cy="354.52" r="3.2" fill="#1d4ed8"/>
<circle cx="845.57" cy="352.90" r="3.2" fill="#1d4ed8"/>
<circle cx="848.66" cy="352.50" r="3.2" fill="#1d4ed8"/>
<circle cx="851.76" cy="352.50" r="3.2" fill="#1d4ed8"/>
<circle cx="854.86" cy="353.31" r="3.2" fill="#1d4ed8"/>
<circle cx="857.95" cy="352.50" r="3.2" fill="#1d4ed8"/>
<circle cx="861.05" cy="353.71" r="3.2" fill="#1d4ed8"/>
<circle cx="864.15" cy="354.12" r="3.2" fill="#1d4ed8"/>
<circle cx="867.24" cy="352.50" r="3.2" fill="#1d4ed8"/>
<circle cx="870.34" cy="352.90" r="3.2" fill="#1d4ed8"/>
<circle cx="873.44" cy="352.50" r="3.2" fill="#1d4ed8"/>
<circle cx="876.53" cy="352.10" r="3.2" fill="#1d4ed8"/>
<circle cx="879.63" cy="351.69" r="3.2" fill="#1d4ed8"/>
<circle cx="882.73" cy="352.10" r="3.2" fill="#1d4ed8"/>
<circle cx="885.82" cy="354.12" r="3.2" fill="#1d4ed8"/>
<circle cx="888.92" cy="352.50" r="3.2" fill="#1d4ed8"/>
<circle cx="892.02" cy="352.10" r="3.2" fill="#1d4ed8"/>
<circle cx="895.11" cy="352.10" r="3.2" fill="#1d4ed8"/>
<circle cx="898.21" cy="349.67" r="3.2" fill="#1d4ed8"/>
<circle cx="901.31" cy="349.67" r="3.2" fill="#1d4ed8"/>
<circle cx="904.40" cy="350.88" r="3.2" fill="#1d4ed8"/>
<circle cx="907.50" cy="351.29" r="3.2" fill="#1d4ed8"/>
<circle cx="910.60" cy="350.48" r="3.2" fill="#1d4ed8"/>
<circle cx="913.69" cy="352.10" r="3.2" fill="#1d4ed8"/>
<circle cx="916.79" cy="350.48" r="3.2" fill="#1d4ed8"/>
<circle cx="919.89" cy="350.48" r="3.2" fill="#1d4ed8"/>
<circle cx="922.98" cy="350.48" r="3.2" fill="#1d4ed8"/>
<circle cx="926.08" cy="350.07" r="3.2" fill="#1d4ed8"/>
<circle cx="929.18" cy="348.46" r="3.2" fill="#1d4ed8"/>
<circle cx="932.27" cy="351.29" r="3.2" fill="#1d4ed8"/>
<circle cx="935.37" cy="349.67" r="3.2" fill="#1d4ed8"/>
<circle cx="938.47" cy="351.29" r="3.2" fill="#1d4ed8"/>
<circle cx="941.56" cy="349.67" r="3.2" fill="#1d4ed8"/>
<circle cx="944.66" cy="348.86" r="3.2" fill="#1d4ed8"/>
<circle cx="947.76" cy="348.46" r="3.2" fill="#1d4ed8"/>
<circle cx="950.85" cy="348.46" r="3.2" fill="#1d4ed8"/>
<circle cx="953.95" cy="347.24" r="3.2" fill="#1d4ed8"/>
<circle cx="957.05" cy="348.86" r="3.2" fill="#1d4ed8"/>
<circle cx="960.14" cy="346.84" r="3.2" fill="#1d4ed8"/>
<circle cx="963.24" cy="348.46" r="3.2" fill="#1d4ed8"/>
<circle cx="966.34" cy="348.86" r="3.2" fill="#1d4ed8"/>
<circle cx="969.43" cy="346.84" r="3.2" fill="#1d4ed8"/>
<circle cx="972.53" cy="349.26" r="3.2" fill="#1d4ed8"/>
<circle cx="975.62" cy="348.05" r="3.2" fill="#1d4ed8"/>
<circle cx="978.72" cy="349.26" r="3.2" fill="#1d4ed8"/>
<circle cx="981.82" cy="349.26" r="3.2" fill="#1d4ed8"/>
<circle cx="984.91" cy="350.48" r="3.2" fill="#1d4ed8"/>
<circle cx="988.01" cy="352.90" r="3.2" fill="#1d4ed8"/>
<circle cx="991.11" cy="349.67" r="3.2" fill="#1d4ed8"/>
<circle cx="994.20" cy="348.46" r="3.2" fill="#1d4ed8"/>
<circle cx="997.30" cy="345.62" r="3.2" fill="#1d4ed8"/>
<circle cx="1000.40" cy="344.82" r="3.2" fill="#1d4ed8"/>
<circle cx="1003.49" cy="344.41" r="3.2" fill="#1d4ed8"/>
<circle cx="1006.59" cy="342.39" r="3.2" fill="#1d4ed8"/>
<circle cx="1009.69" cy="341.18" r="3.2" fill="#1d4ed8"/>
<circle cx="1012.78" cy="341.58" r="3.2" fill="#1d4ed8"/>
<circle cx="1015.88" cy="339.15" r="3.2" fill="#1d4ed8"/>
<circle cx="1018.98" cy="338.35" r="3.2" fill="#1d4ed8"/>
<circle cx="1022.07" cy="337.54" r="3.2" fill="#1d4ed8"/>
<circle cx="1025.17" cy="336.73" r="3.2" fill="#1d4ed8"/>
<circle cx="1028.27" cy="335.92" r="3.2" fill="#1d4ed8"/>
<circle cx="1031.36" cy="337.54" r="3.2" fill="#1d4ed8"/>
<circle cx="1034.46" cy="338.35" r="3.2" fill="#1d4ed8"/>
<circle cx="1037.56" cy="337.54" r="3.2" fill="#1d4ed8"/>
<circle cx="1040.65" cy="337.54" r="3.2" fill="#1d4ed8"/>
<circle cx="1043.75" cy="337.54" r="3.2" fill="#1d4ed8"/>
<circle cx="1046.85" cy="333.09" r="3.2" fill="#1d4ed8"/>
<circle cx="1049.94" cy="333.90" r="3.2" fill="#1d4ed8"/>
<circle cx="1053.04" cy="335.92" r="3.2" fill="#1d4ed8"/>
<circle cx="1056.14" cy="336.73" r="3.2" fill="#1d4ed8"/>
<circle cx="1059.23" cy="335.51" r="3.2" fill="#1d4ed8"/>
<circle cx="1062.33" cy="332.28" r="3.2" fill="#1d4ed8"/>
<circle cx="1065.43" cy="331.47" r="3.2" fill="#1d4ed8"/>
<circle cx="1068.52" cy="331.07" r="3.2" fill="#1d4ed8"/>
<circle cx="1071.62" cy="331.47" r="3.2" fill="#1d4ed8"/>
<circle cx="1074.72" cy="331.07" r="3.2" fill="#1d4ed8"/>
<circle cx="1077.81" cy="331.07" r="3.2" fill="#1d4ed8"/>
<circle cx="1080.91" cy="331.07" r="3.2" fill="#1d4ed8"/>
<circle cx="1084.01" cy="331.07" r="3.2" fill="#1d4ed8"/>
<circle cx="1087.10" cy="331.07" r="3.2" fill="#1d4ed8"/>
<circle cx="1090.20" cy="331.07" r="3.2" fill="#1d4ed8"/>
<circle cx="1093.30" cy="331.07" r="3.2" fill="#1d4ed8"/>
<circle cx="1096.39" cy="331.07" r="3.2" fill="#1d4ed8"/>
<circle cx="1099.49" cy="331.07" r="3.2" fill="#1d4ed8"/>
<circle cx="1102.59" cy="331.07" r="3.2" fill="#1d4ed8"/>
<circle cx="1105.68" cy="331.47" r="3.2" fill="#1d4ed8"/>
<circle cx="1108.78" cy="331.88" r="3.2" fill="#1d4ed8"/>
<circle cx="1111.88" cy="331.07" r="3.2" fill="#1d4ed8"/>
<circle cx="1114.97" cy="331.47" r="3.2" fill="#1d4ed8"/>
<circle cx="1118.07" cy="331.07" r="3.2" fill="#1d4ed8"/>
<circle cx="1121.16" cy="331.47" r="3.2" fill="#1d4ed8"/>
<circle cx="1124.26" cy="331.07" r="3.2" fill="#1d4ed8"/>
<circle cx="1127.36" cy="324.19" r="3.2" fill="#1d4ed8"/>
<circle cx="1130.45" cy="324.19" r="3.2" fill="#1d4ed8"/>
<circle cx="1133.55" cy="318.93" r="3.2" fill="#1d4ed8"/>
<circle cx="1136.65" cy="316.51" r="3.2" fill="#1d4ed8"/>
<circle cx="1139.74" cy="310.44" r="3.2" fill="#1d4ed8"/>
<circle cx="1142.84" cy="308.01" r="3.2" fill="#1d4ed8"/>
<circle cx="1145.94" cy="600.00" r="3.2" fill="#1d4ed8"/>
<circle cx="1149.03" cy="301.54" r="3.2" fill="#1d4ed8"/>
<circle cx="1152.13" cy="290.22" r="3.2" fill="#1d4ed8"/>
<circle cx="1155.23" cy="287.79" r="3.2" fill="#1d4ed8"/>
<circle cx="1158.32" cy="286.18" r="3.2" fill="#1d4ed8"/>
<circle cx="1161.42" cy="285.77" r="3.2" fill="#1d4ed8"/>
<circle cx="1164.52" cy="285.77" r="3.2" fill="#1d4ed8"/>
<circle cx="1167.61" cy="285.77" r="3.2" fill="#1d4ed8"/>
<circle cx="1170.71" cy="286.18" r="3.2" fill="#1d4ed8"/>
<circle cx="1173.81" cy="285.77" r="3.2" fill="#1d4ed8"/>
<circle cx="1176.90" cy="285.77" r="3.2" fill="#1d4ed8"/>
<circle cx="1180.00" cy="285.77" r="3.2" fill="#1d4ed8"/>
<text x="635" y="695" text-anchor="middle" font-size="14" fill="#111" font-family="sans-serif">Date</text>
<text x="24" y="325" text-anchor="middle" font-size="14" fill="#111" transform="rotate(-90 24,325)" font-family="sans-serif">Passed files</text>
</svg>
