<?xml version="1.0" encoding="UTF-8"?>
<svg xmlns="http://www.w3.org/2000/svg" width="1280" height="720" viewBox="0 0 1280 720">
<rect width="100%" height="100%" fill="#ffffff"/>
<text x="640" y="30" text-anchor="middle" font-size="22" font-family="sans-serif">Roast passed files history</text>
<line x1="90" y1="600" x2="1180" y2="600" stroke="#333" stroke-width="1.5"/>
<line x1="90" y1="50" x2="90" y2="600" stroke="#333" stroke-width="1.5"/>
<line x1="90" y1="600.00" x2="1180" y2="600.00" stroke="#e5e7eb" stroke-width="1"/>
<text x="78" y="605.00" text-anchor="end" font-size="12" fill="#111" font-family="sans-serif">0</text>
<line x1="90" y1="397.79" x2="1180" y2="397.79" stroke="#e5e7eb" stroke-width="1"/>
<text x="78" y="402.79" text-anchor="end" font-size="12" fill="#111" font-family="sans-serif">500</text>
<line x1="90" y1="195.59" x2="1180" y2="195.59" stroke="#e5e7eb" stroke-width="1"/>
<text x="78" y="200.59" text-anchor="end" font-size="12" fill="#111" font-family="sans-serif">1000</text>
<line x1="90.00" y1="600" x2="90.00" y2="606" stroke="#333" stroke-width="1"/>
<text x="90.00" y="624" text-anchor="end" font-size="11" fill="#111" transform="rotate(-40 90.00,624)" font-family="sans-serif">2026-02-12</text>
<line x1="226.55" y1="600" x2="226.55" y2="606" stroke="#333" stroke-width="1"/>
<text x="226.55" y="624" text-anchor="end" font-size="11" fill="#111" transform="rotate(-40 226.55,624)" font-family="sans-serif">2026-02-18</text>
<line x1="363.10" y1="600" x2="363.10" y2="606" stroke="#333" stroke-width="1"/>
<text x="363.10" y="624" text-anchor="end" font-size="11" fill="#111" transform="rotate(-40 363.10,624)" font-family="sans-serif">2026-02-24</text>
<line x1="499.65" y1="600" x2="499.65" y2="606" stroke="#333" stroke-width="1"/>
<text x="499.65" y="624" text-anchor="end" font-size="11" fill="#111" transform="rotate(-40 499.65,624)" font-family="sans-serif">2026-02-27</text>
<line x1="636.20" y1="600" x2="636.20" y2="606" stroke="#333" stroke-width="1"/>
<text x="636.20" y="624" text-anchor="end" font-size="11" fill="#111" transform="rotate(-40 636.20,624)" font-family="sans-serif">2026-03-06</text>
<line x1="772.75" y1="600" x2="772.75" y2="606" stroke="#333" stroke-width="1"/>
<text x="772.75" y="624" text-anchor="end" font-size="11" fill="#111" transform="rotate(-40 772.75,624)" font-family="sans-serif">2026-03-07</text>
<line x1="909.30" y1="600" x2="909.30" y2="606" stroke="#333" stroke-width="1"/>
<text x="909.30" y="624" text-anchor="end" font-size="11" fill="#111" transform="rotate(-40 909.30,624)" font-family="sans-serif">2026-03-17</text>
<line x1="1045.85" y1="600" x2="1045.85" y2="606" stroke="#333" stroke-width="1"/>
<text x="1045.85" y="624" text-anchor="end" font-size="11" fill="#111" transform="rotate(-40 1045.85,624)" font-family="sans-serif">2026-03-19</text>
<line x1="1180.00" y1="600" x2="1180.00" y2="606" stroke="#333" stroke-width="1"/>
<text x="1180.00" y="624" text-anchor="end" font-size="11" fill="#111" transform="rotate(-40 1180.00,624)" font-family="sans-serif">2026-03-29</text>
<line x1="90" y1="75.88" x2="1180" y2="75.88" stroke="#dc2626" stroke-width="1.5" stroke-dasharray="8,4"/>
<text x="1184" y="79.88" font-size="12" fill="#dc2626" font-family="sans-serif">Goal: 1296</text>
<polyline fill="none" stroke="#2563eb" stroke-width="3" points="90.00,540.55 92.40,538.53 94.79,536.91 97.19,534.49 99.58,534.49 101.98,533.27 104.37,532.46 106.77,532.87 109.16,532.06 111.56,532.46 113.96,532.06 116.35,568.46 118.75,568.46 121.14,566.43 123.54,545.00 125.93,545.00 128.33,544.19 130.73,543.79 133.12,543.79 135.52,543.38 137.91,541.76 140.31,541.36 142.70,540.96 145.10,540.96 147.49,539.34 149.89,539.34 152.29,556.73 154.68,556.73 157.08,555.51 159.47,551.07 161.87,538.93 164.26,538.93 166.66,538.93 169.05,538.12 171.45,536.91 173.85,536.91 176.24,536.51 178.64,536.51 181.03,556.73 183.43,556.73 185.82,556.73 188.22,556.73 190.62,535.29 193.01,535.29 195.41,535.29 197.80,535.29 200.20,534.49 202.59,534.08 204.99,533.68 207.38,532.87 209.78,532.06 212.18,532.06 214.57,531.25 216.97,530.85 219.36,530.44 221.76,530.04 224.15,530.04 226.55,529.23 228.95,529.23 231.34,529.23 233.74,528.42 236.13,528.42 238.53,527.61 240.92,527.21 243.32,526.80 245.71,526.40 248.11,525.18 250.51,523.57 252.90,523.57 255.30,523.16 257.69,522.76 260.09,522.35 262.48,521.54 264.88,519.52 267.27,517.50 269.67,517.50 272.07,517.50 274.46,517.50 276.86,517.50 279.25,517.50 281.65,517.10 284.04,516.69 286.44,515.48 288.84,515.07 291.23,514.67 293.63,513.86 296.02,514.26 298.42,512.24 300.81,511.84 303.21,511.84 305.60,511.03 308.00,509.82 310.40,507.79 312.79,506.99 315.19,506.58 317.58,509.41 319.98,509.01 322.37,504.96 324.77,504.56 327.16,504.15 329.56,504.56 331.96,503.75 334.35,503.75 336.75,503.35 339.14,499.30 341.54,496.47 343.93,490.00 346.33,484.34 348.73,481.10 351.12,480.29 353.52,480.70 355.91,460.88 358.31,459.26 360.70,458.05 363.10,456.03 365.49,456.03 367.89,454.41 370.29,450.77 372.68,444.30 375.08,443.90 377.47,600.00 379.87,441.88 382.26,440.66 384.66,439.45 387.05,439.04 389.45,438.64 391.85,437.83 394.24,436.62 396.64,436.62 399.03,434.60 401.43,432.17 403.82,429.34 406.22,428.93 408.62,428.53 411.01,427.72 413.41,426.91 415.80,426.10 418.20,426.10 420.59,426.10 422.99,419.63 425.38,419.23 427.78,418.42 430.18,418.01 432.57,417.61 434.97,417.61 437.36,417.61 439.76,417.21 442.15,417.21 444.55,413.57 446.95,411.95 449.34,412.76 451.74,410.74 454.13,410.74 456.53,410.33 458.92,410.33 461.32,410.33 463.71,409.93 466.11,409.93 468.51,409.93 470.90,409.52 473.30,409.52 475.69,409.12 478.09,409.52 480.48,409.12 482.88,407.50 485.27,407.10 487.67,403.05 490.07,399.82 492.46,400.22 494.86,400.62 497.25,400.62 499.65,399.41 502.04,392.94 504.44,391.32 506.84,389.30 509.23,389.30 511.63,388.49 514.02,375.15 516.42,374.74 518.81,374.74 521.21,374.74 523.60,374.74 526.00,374.34 528.40,374.34 530.79,374.34 533.19,374.34 535.58,374.34 537.98,373.93 540.37,373.12 542.77,372.72 545.16,373.53 547.56,435.81 549.96,372.32 552.35,372.72 554.75,371.91 557.14,371.91 559.54,372.32 561.93,371.10 564.33,369.89 566.73,369.89 569.12,369.89 571.52,369.49 573.91,369.89 576.31,369.08 578.70,368.68 581.10,368.27 583.49,367.87 585.89,367.06 588.29,367.46 590.68,367.06 593.08,366.25 595.47,368.27 597.87,368.68 600.26,368.68 602.66,368.27 605.05,369.08 607.45,367.87 609.85,367.46 612.24,367.06 614.64,360.18 617.03,359.78 619.43,359.38 621.82,356.95 624.22,357.35 626.62,357.76 629.01,355.33 631.41,355.74 633.80,357.35 636.20,355.33 638.59,356.14 640.99,355.74 643.38,356.14 645.78,354.12 648.18,354.93 650.57,356.14 652.97,354.52 655.36,353.71 657.76,354.12 660.15,354.93 662.55,352.90 664.95,353.71 667.34,353.31 669.74,353.31 672.13,354.52 674.53,352.90 676.92,352.50 679.32,352.50 681.71,353.31 684.11,352.50 686.51,353.71 688.90,354.12 691.30,352.50 693.69,352.90 696.09,352.50 698.48,352.10 700.88,351.69 703.27,352.10 705.67,354.12 708.07,352.50 710.46,352.10 712.86,352.10 715.25,349.67 717.65,349.67 720.04,350.88 722.44,351.29 724.84,350.48 727.23,352.10 729.63,350.48 732.02,350.48 734.42,350.48 736.81,350.07 739.21,348.46 741.60,351.29 744.00,349.67 746.40,351.29 748.79,349.67 751.19,348.86 753.58,348.46 755.98,348.46 758.37,347.24 760.77,348.86 763.16,346.84 765.56,348.46 767.96,348.86 770.35,346.84 772.75,349.26 775.14,348.05 777.54,349.26 779.93,349.26 782.33,350.48 784.73,352.90 787.12,349.67 789.52,348.46 791.91,345.62 794.31,344.82 796.70,344.41 799.10,342.39 801.49,341.18 803.89,341.58 806.29,339.15 808.68,338.35 811.08,337.54 813.47,336.73 815.87,335.92 818.26,337.54 820.66,338.35 823.05,337.54 825.45,337.54 827.85,337.54 830.24,333.09 832.64,333.90 835.03,335.92 837.43,336.73 839.82,335.51 842.22,332.28 844.62,331.47 847.01,331.07 849.41,331.47 851.80,331.07 854.20,331.07 856.59,331.07 858.99,331.07 861.38,331.07 863.78,331.07 866.18,331.07 868.57,331.07 870.97,331.07 873.36,331.07 875.76,331.47 878.15,331.88 880.55,331.07 882.95,331.47 885.34,331.07 887.74,331.47 890.13,331.07 892.53,324.19 894.92,324.19 897.32,318.93 899.71,316.51 902.11,310.44 904.51,308.01 906.90,600.00 909.30,301.54 911.69,290.22 914.09,287.79 916.48,286.18 918.88,285.77 921.27,285.77 923.67,285.77 926.07,286.18 928.46,285.77 930.86,285.77 933.25,285.77 935.65,283.35 938.04,282.94 940.44,282.94 942.84,283.35 945.23,282.94 947.63,282.94 950.02,283.75 952.42,282.13 954.81,282.13 957.21,282.54 959.60,282.13 962.00,282.54 964.40,282.94 966.79,281.73 969.19,282.54 971.58,281.73 973.98,282.54 976.37,282.13 978.77,282.13 981.16,281.73 983.56,281.73 985.96,281.32 988.35,281.73 990.75,282.13 993.14,281.32 995.54,281.32 997.93,282.54 1000.33,282.13 1002.73,281.32 1005.12,281.32 1007.52,281.32 1009.91,282.54 1012.31,282.13 1014.70,281.32 1017.10,282.13 1019.49,281.73 1021.89,282.13 1024.29,280.11 1026.68,280.11 1029.08,280.51 1031.47,279.71 1033.87,280.11 1036.26,280.51 1038.66,279.71 1041.05,280.11 1043.45,280.11 1045.85,279.30 1048.24,278.90 1050.64,278.90 1053.03,280.51 1055.43,279.30 1057.82,278.09 1060.22,278.49 1062.62,278.49 1065.01,277.28 1067.41,277.68 1069.80,277.68 1072.20,278.09 1074.59,277.28 1076.99,600.00 1079.38,278.90 1081.78,279.30 1084.18,278.90 1086.57,278.49 1088.97,278.49 1091.36,278.49 1093.76,278.49 1096.15,278.49 1098.55,278.49 1100.95,278.49 1103.34,278.49 1105.74,278.49 1108.13,278.49 1110.53,278.49 1112.92,278.49 1115.32,600.00 1117.71,600.00 1120.11,254.63 1122.51,600.00 1124.90,245.74 1127.30,245.74 1129.69,246.14 1132.09,245.74 1134.48,245.74 1136.88,245.74 1139.27,245.74 1141.67,245.74 1144.07,240.07 1146.46,238.05 1148.86,238.05 1151.25,227.13 1153.65,227.13 1156.04,226.32 1158.44,227.54 1160.84,226.73 1163.23,226.32 1165.63,227.13 1168.02,227.13 1170.42,226.73 1172.81,226.32 1175.21,226.73 1177.60,226.73 1180.00,226.73"/>
<circle cx="90.00" cy="540.55" r="3.2" fill="#1d4ed8"/>
<circle cx="92.40" cy="538.53" r="3.2" fill="#1d4ed8"/>
<circle cx="94.79" cy="536.91" r="3.2" fill="#1d4ed8"/>
<circle cx="97.19" cy="534.49" r="3.2" fill="#1d4ed8"/>
<circle cx="99.58" cy="534.49" r="3.2" fill="#1d4ed8"/>
<circle cx="101.98" cy="533.27" r="3.2" fill="#1d4ed8"/>
<circle cx="104.37" cy="532.46" r="3.2" fill="#1d4ed8"/>
<circle cx="106.77" cy="532.87" r="3.2" fill="#1d4ed8"/>
<circle cx="109.16" cy="532.06" r="3.2" fill="#1d4ed8"/>
<circle cx="111.56" cy="532.46" r="3.2" fill="#1d4ed8"/>
<circle cx="113.96" cy="532.06" r="3.2" fill="#1d4ed8"/>
<circle cx="116.35" cy="568.46" r="3.2" fill="#1d4ed8"/>
<circle cx="118.75" cy="568.46" r="3.2" fill="#1d4ed8"/>
<circle cx="121.14" cy="566.43" r="3.2" fill="#1d4ed8"/>
<circle cx="123.54" cy="545.00" r="3.2" fill="#1d4ed8"/>
<circle cx="125.93" cy="545.00" r="3.2" fill="#1d4ed8"/>
<circle cx="128.33" cy="544.19" r="3.2" fill="#1d4ed8"/>
<circle cx="130.73" cy="543.79" r="3.2" fill="#1d4ed8"/>
<circle cx="133.12" cy="543.79" r="3.2" fill="#1d4ed8"/>
<circle cx="135.52" cy="543.38" r="3.2" fill="#1d4ed8"/>
<circle cx="137.91" cy="541.76" r="3.2" fill="#1d4ed8"/>
<circle cx="140.31" cy="541.36" r="3.2" fill="#1d4ed8"/>
<circle cx="142.70" cy="540.96" r="3.2" fill="#1d4ed8"/>
<circle cx="145.10" cy="540.96" r="3.2" fill="#1d4ed8"/>
<circle cx="147.49" cy="539.34" r="3.2" fill="#1d4ed8"/>
<circle cx="149.89" cy="539.34" r="3.2" fill="#1d4ed8"/>
<circle cx="152.29" cy="556.73" r="3.2" fill="#1d4ed8"/>
<circle cx="154.68" cy="556.73" r="3.2" fill="#1d4ed8"/>
<circle cx="157.08" cy="555.51" r="3.2" fill="#1d4ed8"/>
<circle cx="159.47" cy="551.07" r="3.2" fill="#1d4ed8"/>
<circle cx="161.87" cy="538.93" r="3.2" fill="#1d4ed8"/>
<circle cx="164.26" cy="538.93" r="3.2" fill="#1d4ed8"/>
<circle cx="166.66" cy="538.93" r="3.2" fill="#1d4ed8"/>
<circle cx="169.05" cy="538.12" r="3.2" fill="#1d4ed8"/>
<circle cx="171.45" cy="536.91" r="3.2" fill="#1d4ed8"/>
<circle cx="173.85" cy="536.91" r="3.2" fill="#1d4ed8"/>
<circle cx="176.24" cy="536.51" r="3.2" fill="#1d4ed8"/>
<circle cx="178.64" cy="536.51" r="3.2" fill="#1d4ed8"/>
<circle cx="181.03" cy="556.73" r="3.2" fill="#1d4ed8"/>
<circle cx="183.43" cy="556.73" r="3.2" fill="#1d4ed8"/>
<circle cx="185.82" cy="556.73" r="3.2" fill="#1d4ed8"/>
<circle cx="188.22" cy="556.73" r="3.2" fill="#1d4ed8"/>
<circle cx="190.62" cy="535.29" r="3.2" fill="#1d4ed8"/>
<circle cx="193.01" cy="535.29" r="3.2" fill="#1d4ed8"/>
<circle cx="195.41" cy="535.29" r="3.2" fill="#1d4ed8"/>
<circle cx="197.80" cy="535.29" r="3.2" fill="#1d4ed8"/>
<circle cx="200.20" cy="534.49" r="3.2" fill="#1d4ed8"/>
<circle cx="202.59" cy="534.08" r="3.2" fill="#1d4ed8"/>
<circle cx="204.99" cy="533.68" r="3.2" fill="#1d4ed8"/>
<circle cx="207.38" cy="532.87" r="3.2" fill="#1d4ed8"/>
<circle cx="209.78" cy="532.06" r="3.2" fill="#1d4ed8"/>
<circle cx="212.18" cy="532.06" r="3.2" fill="#1d4ed8"/>
<circle cx="214.57" cy="531.25" r="3.2" fill="#1d4ed8"/>
<circle cx="216.97" cy="530.85" r="3.2" fill="#1d4ed8"/>
<circle cx="219.36" cy="530.44" r="3.2" fill="#1d4ed8"/>
<circle cx="221.76" cy="530.04" r="3.2" fill="#1d4ed8"/>
<circle cx="224.15" cy="530.04" r="3.2" fill="#1d4ed8"/>
<circle cx="226.55" cy="529.23" r="3.2" fill="#1d4ed8"/>
<circle cx="228.95" cy="529.23" r="3.2" fill="#1d4ed8"/>
<circle cx="231.34" cy="529.23" r="3.2" fill="#1d4ed8"/>
<circle cx="233.74" cy="528.42" r="3.2" fill="#1d4ed8"/>
<circle cx="236.13" cy="528.42" r="3.2" fill="#1d4ed8"/>
<circle cx="238.53" cy="527.61" r="3.2" fill="#1d4ed8"/>
<circle cx="240.92" cy="527.21" r="3.2" fill="#1d4ed8"/>
<circle cx="243.32" cy="526.80" r="3.2" fill="#1d4ed8"/>
<circle cx="245.71" cy="526.40" r="3.2" fill="#1d4ed8"/>
<circle cx="248.11" cy="525.18" r="3.2" fill="#1d4ed8"/>
<circle cx="250.51" cy="523.57" r="3.2" fill="#1d4ed8"/>
<circle cx="252.90" cy="523.57" r="3.2" fill="#1d4ed8"/>
<circle cx="255.30" cy="523.16" r="3.2" fill="#1d4ed8"/>
<circle cx="257.69" cy="522.76" r="3.2" fill="#1d4ed8"/>
<circle cx="260.09" cy="522.35" r="3.2" fill="#1d4ed8"/>
<circle cx="262.48" cy="521.54" r="3.2" fill="#1d4ed8"/>
<circle cx="264.88" cy="519.52" r="3.2" fill="#1d4ed8"/>
<circle cx="267.27" cy="517.50" r="3.2" fill="#1d4ed8"/>
<circle cx="269.67" cy="517.50" r="3.2" fill="#1d4ed8"/>
<circle cx="272.07" cy="517.50" r="3.2" fill="#1d4ed8"/>
<circle cx="274.46" cy="517.50" r="3.2" fill="#1d4ed8"/>
<circle cx="276.86" cy="517.50" r="3.2" fill="#1d4ed8"/>
<circle cx="279.25" cy="517.50" r="3.2" fill="#1d4ed8"/>
<circle cx="281.65" cy="517.10" r="3.2" fill="#1d4ed8"/>
<circle cx="284.04" cy="516.69" r="3.2" fill="#1d4ed8"/>
<circle cx="286.44" cy="515.48" r="3.2" fill="#1d4ed8"/>
<circle cx="288.84" cy="515.07" r="3.2" fill="#1d4ed8"/>
<circle cx="291.23" cy="514.67" r="3.2" fill="#1d4ed8"/>
<circle cx="293.63" cy="513.86" r="3.2" fill="#1d4ed8"/>
<circle cx="296.02" cy="514.26" r="3.2" fill="#1d4ed8"/>
<circle cx="298.42" cy="512.24" r="3.2" fill="#1d4ed8"/>
<circle cx="300.81" cy="511.84" r="3.2" fill="#1d4ed8"/>
<circle cx="303.21" cy="511.84" r="3.2" fill="#1d4ed8"/>
<circle cx="305.60" cy="511.03" r="3.2" fill="#1d4ed8"/>
<circle cx="308.00" cy="509.82" r="3.2" fill="#1d4ed8"/>
<circle cx="310.40" cy="507.79" r="3.2" fill="#1d4ed8"/>
<circle cx="312.79" cy="506.99" r="3.2" fill="#1d4ed8"/>
<circle cx="315.19" cy="506.58" r="3.2" fill="#1d4ed8"/>
<circle cx="317.58" cy="509.41" r="3.2" fill="#1d4ed8"/>
<circle cx="319.98" cy="509.01" r="3.2" fill="#1d4ed8"/>
<circle cx="322.37" cy="504.96" r="3.2" fill="#1d4ed8"/>
<circle cx="324.77" cy="504.56" r="3.2" fill="#1d4ed8"/>
<circle cx="327.16" cy="504.15" r="3.2" fill="#1d4ed8"/>
<circle cx="329.56" cy="504.56" r="3.2" fill="#1d4ed8"/>
<circle cx="331.96" cy="503.75" r="3.2" fill="#1d4ed8"/>
<circle cx="334.35" cy="503.75" r="3.2" fill="#1d4ed8"/>
<circle cx="336.75" cy="503.35" r="3.2" fill="#1d4ed8"/>
<circle cx="339.14" cy="499.30" r="3.2" fill="#1d4ed8"/>
<circle cx="341.54" cy="496.47" r="3.2" fill="#1d4ed8"/>
<circle cx="343.93" cy="490.00" r="3.2" fill="#1d4ed8"/>
<circle cx="346.33" cy="484.34" r="3.2" fill="#1d4ed8"/>
<circle cx="348.73" cy="481.10" r="3.2" fill="#1d4ed8"/>
<circle cx="351.12" cy="480.29" r="3.2" fill="#1d4ed8"/>
<circle cx="353.52" cy="480.70" r="3.2" fill="#1d4ed8"/>
<circle cx="355.91" cy="460.88" r="3.2" fill="#1d4ed8"/>
<circle cx="358.31" cy="459.26" r="3.2" fill="#1d4ed8"/>
<circle cx="360.70" cy="458.05" r="3.2" fill="#1d4ed8"/>
<circle cx="363.10" cy="456.03" r="3.2" fill="#1d4ed8"/>
<circle cx="365.49" cy="456.03" r="3.2" fill="#1d4ed8"/>
<circle cx="367.89" cy="454.41" r="3.2" fill="#1d4ed8"/>
<circle cx="370.29" cy="450.77" r="3.2" fill="#1d4ed8"/>
<circle cx="372.68" cy="444.30" r="3.2" fill="#1d4ed8"/>
<circle cx="375.08" cy="443.90" r="3.2" fill="#1d4ed8"/>
<circle cx="377.47" cy="600.00" r="3.2" fill="#1d4ed8"/>
<circle cx="379.87" cy="441.88" r="3.2" fill="#1d4ed8"/>
<circle cx="382.26" cy="440.66" r="3.2" fill="#1d4ed8"/>
<circle cx="384.66" cy="439.45" r="3.2" fill="#1d4ed8"/>
<circle cx="387.05" cy="439.04" r="3.2" fill="#1d4ed8"/>
<circle cx="389.45" cy="438.64" r="3.2" fill="#1d4ed8"/>
<circle cx="391.85" cy="437.83" r="3.2" fill="#1d4ed8"/>
<circle cx="394.24" cy="436.62" r="3.2" fill="#1d4ed8"/>
<circle cx="396.64" cy="436.62" r="3.2" fill="#1d4ed8"/>
<circle cx="399.03" cy="434.60" r="3.2" fill="#1d4ed8"/>
<circle cx="401.43" cy="432.17" r="3.2" fill="#1d4ed8"/>
<circle cx="403.82" cy="429.34" r="3.2" fill="#1d4ed8"/>
<circle cx="406.22" cy="428.93" r="3.2" fill="#1d4ed8"/>
<circle cx="408.62" cy="428.53" r="3.2" fill="#1d4ed8"/>
<circle cx="411.01" cy="427.72" r="3.2" fill="#1d4ed8"/>
<circle cx="413.41" cy="426.91" r="3.2" fill="#1d4ed8"/>
<circle cx="415.80" cy="426.10" r="3.2" fill="#1d4ed8"/>
<circle cx="418.20" cy="426.10" r="3.2" fill="#1d4ed8"/>
<circle cx="420.59" cy="426.10" r="3.2" fill="#1d4ed8"/>
<circle cx="422.99" cy="419.63" r="3.2" fill="#1d4ed8"/>
<circle cx="425.38" cy="419.23" r="3.2" fill="#1d4ed8"/>
<circle cx="427.78" cy="418.42" r="3.2" fill="#1d4ed8"/>
<circle cx="430.18" cy="418.01" r="3.2" fill="#1d4ed8"/>
<circle cx="432.57" cy="417.61" r="3.2" fill="#1d4ed8"/>
<circle cx="434.97" cy="417.61" r="3.2" fill="#1d4ed8"/>
<circle cx="437.36" cy="417.61" r="3.2" fill="#1d4ed8"/>
<circle cx="439.76" cy="417.21" r="3.2" fill="#1d4ed8"/>
<circle cx="442.15" cy="417.21" r="3.2" fill="#1d4ed8"/>
<circle cx="444.55" cy="413.57" r="3.2" fill="#1d4ed8"/>
<circle cx="446.95" cy="411.95" r="3.2" fill="#1d4ed8"/>
<circle cx="449.34" cy="412.76" r="3.2" fill="#1d4ed8"/>
<circle cx="451.74" cy="410.74" r="3.2" fill="#1d4ed8"/>
<circle cx="454.13" cy="410.74" r="3.2" fill="#1d4ed8"/>
<circle cx="456.53" cy="410.33" r="3.2" fill="#1d4ed8"/>
<circle cx="458.92" cy="410.33" r="3.2" fill="#1d4ed8"/>
<circle cx="461.32" cy="410.33" r="3.2" fill="#1d4ed8"/>
<circle cx="463.71" cy="409.93" r="3.2" fill="#1d4ed8"/>
<circle cx="466.11" cy="409.93" r="3.2" fill="#1d4ed8"/>
<circle cx="468.51" cy="409.93" r="3.2" fill="#1d4ed8"/>
<circle cx="470.90" cy="409.52" r="3.2" fill="#1d4ed8"/>
<circle cx="473.30" cy="409.52" r="3.2" fill="#1d4ed8"/>
<circle cx="475.69" cy="409.12" r="3.2" fill="#1d4ed8"/>
<circle cx="478.09" cy="409.52" r="3.2" fill="#1d4ed8"/>
<circle cx="480.48" cy="409.12" r="3.2" fill="#1d4ed8"/>
<circle cx="482.88" cy="407.50" r="3.2" fill="#1d4ed8"/>
<circle cx="485.27" cy="407.10" r="3.2" fill="#1d4ed8"/>
<circle cx="487.67" cy="403.05" r="3.2" fill="#1d4ed8"/>
<circle cx="490.07" cy="399.82" r="3.2" fill="#1d4ed8"/>
<circle cx="492.46" cy="400.22" r="3.2" fill="#1d4ed8"/>
<circle cx="494.86" cy="400.62" r="3.2" fill="#1d4ed8"/>
<circle cx="497.25" cy="400.62" r="3.2" fill="#1d4ed8"/>
<circle cx="499.65" cy="399.41" r="3.2" fill="#1d4ed8"/>
<circle cx="502.04" cy="392.94" r="3.2" fill="#1d4ed8"/>
<circle cx="504.44" cy="391.32" r="3.2" fill="#1d4ed8"/>
<circle cx="506.84" cy="389.30" r="3.2" fill="#1d4ed8"/>
<circle cx="509.23" cy="389.30" r="3.2" fill="#1d4ed8"/>
<circle cx="511.63" cy="388.49" r="3.2" fill="#1d4ed8"/>
<circle cx="514.02" cy="375.15" r="3.2" fill="#1d4ed8"/>
<circle cx="516.42" cy="374.74" r="3.2" fill="#1d4ed8"/>
<circle cx="518.81" cy="374.74" r="3.2" fill="#1d4ed8"/>
<circle cx="521.21" cy="374.74" r="3.2" fill="#1d4ed8"/>
<circle cx="523.60" cy="374.74" r="3.2" fill="#1d4ed8"/>
<circle cx="526.00" cy="374.34" r="3.2" fill="#1d4ed8"/>
<circle cx="528.40" cy="374.34" r="3.2" fill="#1d4ed8"/>
<circle cx="530.79" cy="374.34" r="3.2" fill="#1d4ed8"/>
<circle cx="533.19" cy="374.34" r="3.2" fill="#1d4ed8"/>
<circle cx="535.58" cy="374.34" r="3.2" fill="#1d4ed8"/>
<circle cx="537.98" cy="373.93" r="3.2" fill="#1d4ed8"/>
<circle cx="540.37" cy="373.12" r="3.2" fill="#1d4ed8"/>
<circle cx="542.77" cy="372.72" r="3.2" fill="#1d4ed8"/>
<circle cx="545.16" cy="373.53" r="3.2" fill="#1d4ed8"/>
<circle cx="547.56" cy="435.81" r="3.2" fill="#1d4ed8"/>
<circle cx="549.96" cy="372.32" r="3.2" fill="#1d4ed8"/>
<circle cx="552.35" cy="372.72" r="3.2" fill="#1d4ed8"/>
<circle cx="554.75" cy="371.91" r="3.2" fill="#1d4ed8"/>
<circle cx="557.14" cy="371.91" r="3.2" fill="#1d4ed8"/>
<circle cx="559.54" cy="372.32" r="3.2" fill="#1d4ed8"/>
<circle cx="561.93" cy="371.10" r="3.2" fill="#1d4ed8"/>
<circle cx="564.33" cy="369.89" r="3.2" fill="#1d4ed8"/>
<circle cx="566.73" cy="369.89" r="3.2" fill="#1d4ed8"/>
<circle cx="569.12" cy="369.89" r="3.2" fill="#1d4ed8"/>
<circle cx="571.52" cy="369.49" r="3.2" fill="#1d4ed8"/>
<circle cx="573.91" cy="369.89" r="3.2" fill="#1d4ed8"/>
<circle cx="576.31" cy="369.08" r="3.2" fill="#1d4ed8"/>
<circle cx="578.70" cy="368.68" r="3.2" fill="#1d4ed8"/>
<circle cx="581.10" cy="368.27" r="3.2" fill="#1d4ed8"/>
<circle cx="583.49" cy="367.87" r="3.2" fill="#1d4ed8"/>
<circle cx="585.89" cy="367.06" r="3.2" fill="#1d4ed8"/>
<circle cx="588.29" cy="367.46" r="3.2" fill="#1d4ed8"/>
<circle cx="590.68" cy="367.06" r="3.2" fill="#1d4ed8"/>
<circle cx="593.08" cy="366.25" r="3.2" fill="#1d4ed8"/>
<circle cx="595.47" cy="368.27" r="3.2" fill="#1d4ed8"/>
<circle cx="597.87" cy="368.68" r="3.2" fill="#1d4ed8"/>
<circle cx="600.26" cy="368.68" r="3.2" fill="#1d4ed8"/>
<circle cx="602.66" cy="368.27" r="3.2" fill="#1d4ed8"/>
<circle cx="605.05" cy="369.08" r="3.2" fill="#1d4ed8"/>
<circle cx="607.45" cy="367.87" r="3.2" fill="#1d4ed8"/>
<circle cx="609.85" cy="367.46" r="3.2" fill="#1d4ed8"/>
<circle cx="612.24" cy="367.06" r="3.2" fill="#1d4ed8"/>
<circle cx="614.64" cy="360.18" r="3.2" fill="#1d4ed8"/>
<circle cx="617.03" cy="359.78" r="3.2" fill="#1d4ed8"/>
<circle cx="619.43" cy="359.38" r="3.2" fill="#1d4ed8"/>
<circle cx="621.82" cy="356.95" r="3.2" fill="#1d4ed8"/>
<circle cx="624.22" cy="357.35" r="3.2" fill="#1d4ed8"/>
<circle cx="626.62" cy="357.76" r="3.2" fill="#1d4ed8"/>
<circle cx="629.01" cy="355.33" r="3.2" fill="#1d4ed8"/>
<circle cx="631.41" cy="355.74" r="3.2" fill="#1d4ed8"/>
<circle cx="633.80" cy="357.35" r="3.2" fill="#1d4ed8"/>
<circle cx="636.20" cy="355.33" r="3.2" fill="#1d4ed8"/>
<circle cx="638.59" cy="356.14" r="3.2" fill="#1d4ed8"/>
<circle cx="640.99" cy="355.74" r="3.2" fill="#1d4ed8"/>
<circle cx="643.38" cy="356.14" r="3.2" fill="#1d4ed8"/>
<circle cx="645.78" cy="354.12" r="3.2" fill="#1d4ed8"/>
<circle cx="648.18" cy="354.93" r="3.2" fill="#1d4ed8"/>
<circle cx="650.57" cy="356.14" r="3.2" fill="#1d4ed8"/>
<circle cx="652.97" cy="354.52" r="3.2" fill="#1d4ed8"/>
<circle cx="655.36" cy="353.71" r="3.2" fill="#1d4ed8"/>
<circle cx="657.76" cy="354.12" r="3.2" fill="#1d4ed8"/>
<circle cx="660.15" cy="354.93" r="3.2" fill="#1d4ed8"/>
<circle cx="662.55" cy="352.90" r="3.2" fill="#1d4ed8"/>
<circle cx="664.95" cy="353.71" r="3.2" fill="#1d4ed8"/>
<circle cx="667.34" cy="353.31" r="3.2" fill="#1d4ed8"/>
<circle cx="669.74" cy="353.31" r="3.2" fill="#1d4ed8"/>
<circle cx="672.13" cy="354.52" r="3.2" fill="#1d4ed8"/>
<circle cx="674.53" cy="352.90" r="3.2" fill="#1d4ed8"/>
<circle cx="676.92" cy="352.50" r="3.2" fill="#1d4ed8"/>
<circle cx="679.32" cy="352.50" r="3.2" fill="#1d4ed8"/>
<circle cx="681.71" cy="353.31" r="3.2" fill="#1d4ed8"/>
<circle cx="684.11" cy="352.50" r="3.2" fill="#1d4ed8"/>
<circle cx="686.51" cy="353.71" r="3.2" fill="#1d4ed8"/>
<circle cx="688.90" cy="354.12" r="3.2" fill="#1d4ed8"/>
<circle cx="691.30" cy="352.50" r="3.2" fill="#1d4ed8"/>
<circle cx="693.69" cy="352.90" r="3.2" fill="#1d4ed8"/>
<circle cx="696.09" cy="352.50" r="3.2" fill="#1d4ed8"/>
<circle cx="698.48" cy="352.10" r="3.2" fill="#1d4ed8"/>
<circle cx="700.88" cy="351.69" r="3.2" fill="#1d4ed8"/>
<circle cx="703.27" cy="352.10" r="3.2" fill="#1d4ed8"/>
<circle cx="705.67" cy="354.12" r="3.2" fill="#1d4ed8"/>
<circle cx="708.07" cy="352.50" r="3.2" fill="#1d4ed8"/>
<circle cx="710.46" cy="352.10" r="3.2" fill="#1d4ed8"/>
<circle cx="712.86" cy="352.10" r="3.2" fill="#1d4ed8"/>
<circle cx="715.25" cy="349.67" r="3.2" fill="#1d4ed8"/>
<circle cx="717.65" cy="349.67" r="3.2" fill="#1d4ed8"/>
<circle cx="720.04" cy="350.88" r="3.2" fill="#1d4ed8"/>
<circle cx="722.44" cy="351.29" r="3.2" fill="#1d4ed8"/>
<circle cx="724.84" cy="350.48" r="3.2" fill="#1d4ed8"/>
<circle cx="727.23" cy="352.10" r="3.2" fill="#1d4ed8"/>
<circle cx="729.63" cy="350.48" r="3.2" fill="#1d4ed8"/>
<circle cx="732.02" cy="350.48" r="3.2" fill="#1d4ed8"/>
<circle cx="734.42" cy="350.48" r="3.2" fill="#1d4ed8"/>
<circle cx="736.81" cy="350.07" r="3.2" fill="#1d4ed8"/>
<circle cx="739.21" cy="348.46" r="3.2" fill="#1d4ed8"/>
<circle cx="741.60" cy="351.29" r="3.2" fill="#1d4ed8"/>
<circle cx="744.00" cy="349.67" r="3.2" fill="#1d4ed8"/>
<circle cx="746.40" cy="351.29" r="3.2" fill="#1d4ed8"/>
<circle cx="748.79" cy="349.67" r="3.2" fill="#1d4ed8"/>
<circle cx="751.19" cy="348.86" r="3.2" fill="#1d4ed8"/>
<circle cx="753.58" cy="348.46" r="3.2" fill="#1d4ed8"/>
<circle cx="755.98" cy="348.46" r="3.2" fill="#1d4ed8"/>
<circle cx="758.37" cy="347.24" r="3.2" fill="#1d4ed8"/>
<circle cx="760.77" cy="348.86" r="3.2" fill="#1d4ed8"/>
<circle cx="763.16" cy="346.84" r="3.2" fill="#1d4ed8"/>
<circle cx="765.56" cy="348.46" r="3.2" fill="#1d4ed8"/>
<circle cx="767.96" cy="348.86" r="3.2" fill="#1d4ed8"/>
<circle cx="770.35" cy="346.84" r="3.2" fill="#1d4ed8"/>
<circle cx="772.75" cy="349.26" r="3.2" fill="#1d4ed8"/>
<circle cx="775.14" cy="348.05" r="3.2" fill="#1d4ed8"/>
<circle cx="777.54" cy="349.26" r="3.2" fill="#1d4ed8"/>
<circle cx="779.93" cy="349.26" r="3.2" fill="#1d4ed8"/>
<circle cx="782.33" cy="350.48" r="3.2" fill="#1d4ed8"/>
<circle cx="784.73" cy="352.90" r="3.2" fill="#1d4ed8"/>
<circle cx="787.12" cy="349.67" r="3.2" fill="#1d4ed8"/>
<circle cx="789.52" cy="348.46" r="3.2" fill="#1d4ed8"/>
<circle cx="791.91" cy="345.62" r="3.2" fill="#1d4ed8"/>
<circle cx="794.31" cy="344.82" r="3.2" fill="#1d4ed8"/>
<circle cx="796.70" cy="344.41" r="3.2" fill="#1d4ed8"/>
<circle cx="799.10" cy="342.39" r="3.2" fill="#1d4ed8"/>
<circle cx="801.49" cy="341.18" r="3.2" fill="#1d4ed8"/>
<circle cx="803.89" cy="341.58" r="3.2" fill="#1d4ed8"/>
<circle cx="806.29" cy="339.15" r="3.2" fill="#1d4ed8"/>
<circle cx="808.68" cy="338.35" r="3.2" fill="#1d4ed8"/>
<circle cx="811.08" cy="337.54" r="3.2" fill="#1d4ed8"/>
<circle cx="813.47" cy="336.73" r="3.2" fill="#1d4ed8"/>
<circle cx="815.87" cy="335.92" r="3.2" fill="#1d4ed8"/>
<circle cx="818.26" cy="337.54" r="3.2" fill="#1d4ed8"/>
<circle cx="820.66" cy="338.35" r="3.2" fill="#1d4ed8"/>
<circle cx="823.05" cy="337.54" r="3.2" fill="#1d4ed8"/>
<circle cx="825.45" cy="337.54" r="3.2" fill="#1d4ed8"/>
<circle cx="827.85" cy="337.54" r="3.2" fill="#1d4ed8"/>
<circle cx="830.24" cy="333.09" r="3.2" fill="#1d4ed8"/>
<circle cx="832.64" cy="333.90" r="3.2" fill="#1d4ed8"/>
<circle cx="835.03" cy="335.92" r="3.2" fill="#1d4ed8"/>
<circle cx="837.43" cy="336.73" r="3.2" fill="#1d4ed8"/>
<circle cx="839.82" cy="335.51" r="3.2" fill="#1d4ed8"/>
<circle cx="842.22" cy="332.28" r="3.2" fill="#1d4ed8"/>
<circle cx="844.62" cy="331.47" r="3.2" fill="#1d4ed8"/>
<circle cx="847.01" cy="331.07" r="3.2" fill="#1d4ed8"/>
<circle cx="849.41" cy="331.47" r="3.2" fill="#1d4ed8"/>
<circle cx="851.80" cy="331.07" r="3.2" fill="#1d4ed8"/>
<circle cx="854.20" cy="331.07" r="3.2" fill="#1d4ed8"/>
<circle cx="856.59" cy="331.07" r="3.2" fill="#1d4ed8"/>
<circle cx="858.99" cy="331.07" r="3.2" fill="#1d4ed8"/>
<circle cx="861.38" cy="331.07" r="3.2" fill="#1d4ed8"/>
<circle cx="863.78" cy="331.07" r="3.2" fill="#1d4ed8"/>
<circle cx="866.18" cy="331.07" r="3.2" fill="#1d4ed8"/>
<circle cx="868.57" cy="331.07" r="3.2" fill="#1d4ed8"/>
<circle cx="870.97" cy="331.07" r="3.2" fill="#1d4ed8"/>
<circle cx="873.36" cy="331.07" r="3.2" fill="#1d4ed8"/>
<circle cx="875.76" cy="331.47" r="3.2" fill="#1d4ed8"/>
<circle cx="878.15" cy="331.88" r="3.2" fill="#1d4ed8"/>
<circle cx="880.55" cy="331.07" r="3.2" fill="#1d4ed8"/>
<circle cx="882.95" cy="331.47" r="3.2" fill="#1d4ed8"/>
<circle cx="885.34" cy="331.07" r="3.2" fill="#1d4ed8"/>
<circle cx="887.74" cy="331.47" r="3.2" fill="#1d4ed8"/>
<circle cx="890.13" cy="331.07" r="3.2" fill="#1d4ed8"/>
<circle cx="892.53" cy="324.19" r="3.2" fill="#1d4ed8"/>
<circle cx="894.92" cy="324.19" r="3.2" fill="#1d4ed8"/>
<circle cx="897.32" cy="318.93" r="3.2" fill="#1d4ed8"/>
<circle cx="899.71" cy="316.51" r="3.2" fill="#1d4ed8"/>
<circle cx="902.11" cy="310.44" r="3.2" fill="#1d4ed8"/>
<circle cx="904.51" cy="308.01" r="3.2" fill="#1d4ed8"/>
<circle cx="906.90" cy="600.00" r="3.2" fill="#1d4ed8"/>
<circle cx="909.30" cy="301.54" r="3.2" fill="#1d4ed8"/>
<circle cx="911.69" cy="290.22" r="3.2" fill="#1d4ed8"/>
<circle cx="914.09" cy="287.79" r="3.2" fill="#1d4ed8"/>
<circle cx="916.48" cy="286.18" r="3.2" fill="#1d4ed8"/>
<circle cx="918.88" cy="285.77" r="3.2" fill="#1d4ed8"/>
<circle cx="921.27" cy="285.77" r="3.2" fill="#1d4ed8"/>
<circle cx="923.67" cy="285.77" r="3.2" fill="#1d4ed8"/>
<circle cx="926.07" cy="286.18" r="3.2" fill="#1d4ed8"/>
<circle cx="928.46" cy="285.77" r="3.2" fill="#1d4ed8"/>
<circle cx="930.86" cy="285.77" r="3.2" fill="#1d4ed8"/>
<circle cx="933.25" cy="285.77" r="3.2" fill="#1d4ed8"/>
<circle cx="935.65" cy="283.35" r="3.2" fill="#1d4ed8"/>
<circle cx="938.04" cy="282.94" r="3.2" fill="#1d4ed8"/>
<circle cx="940.44" cy="282.94" r="3.2" fill="#1d4ed8"/>
<circle cx="942.84" cy="283.35" r="3.2" fill="#1d4ed8"/>
<circle cx="945.23" cy="282.94" r="3.2" fill="#1d4ed8"/>
<circle cx="947.63" cy="282.94" r="3.2" fill="#1d4ed8"/>
<circle cx="950.02" cy="283.75" r="3.2" fill="#1d4ed8"/>
<circle cx="952.42" cy="282.13" r="3.2" fill="#1d4ed8"/>
<circle cx="954.81" cy="282.13" r="3.2" fill="#1d4ed8"/>
<circle cx="957.21" cy="282.54" r="3.2" fill="#1d4ed8"/>
<circle cx="959.60" cy="282.13" r="3.2" fill="#1d4ed8"/>
<circle cx="962.00" cy="282.54" r="3.2" fill="#1d4ed8"/>
<circle cx="964.40" cy="282.94" r="3.2" fill="#1d4ed8"/>
<circle cx="966.79" cy="281.73" r="3.2" fill="#1d4ed8"/>
<circle cx="969.19" cy="282.54" r="3.2" fill="#1d4ed8"/>
<circle cx="971.58" cy="281.73" r="3.2" fill="#1d4ed8"/>
<circle cx="973.98" cy="282.54" r="3.2" fill="#1d4ed8"/>
<circle cx="976.37" cy="282.13" r="3.2" fill="#1d4ed8"/>
<circle cx="978.77" cy="282.13" r="3.2" fill="#1d4ed8"/>
<circle cx="981.16" cy="281.73" r="3.2" fill="#1d4ed8"/>
<circle cx="983.56" cy="281.73" r="3.2" fill="#1d4ed8"/>
<circle cx="985.96" cy="281.32" r="3.2" fill="#1d4ed8"/>
<circle cx="988.35" cy="281.73" r="3.2" fill="#1d4ed8"/>
<circle cx="990.75" cy="282.13" r="3.2" fill="#1d4ed8"/>
<circle cx="993.14" cy="281.32" r="3.2" fill="#1d4ed8"/>
<circle cx="995.54" cy="281.32" r="3.2" fill="#1d4ed8"/>
<circle cx="997.93" cy="282.54" r="3.2" fill="#1d4ed8"/>
<circle cx="1000.33" cy="282.13" r="3.2" fill="#1d4ed8"/>
<circle cx="1002.73" cy="281.32" r="3.2" fill="#1d4ed8"/>
<circle cx="1005.12" cy="281.32" r="3.2" fill="#1d4ed8"/>
<circle cx="1007.52" cy="281.32" r="3.2" fill="#1d4ed8"/>
<circle cx="1009.91" cy="282.54" r="3.2" fill="#1d4ed8"/>
<circle cx="1012.31" cy="282.13" r="3.2" fill="#1d4ed8"/>
<circle cx="1014.70" cy="281.32" r="3.2" fill="#1d4ed8"/>
<circle cx="1017.10" cy="282.13" r="3.2" fill="#1d4ed8"/>
<circle cx="1019.49" cy="281.73" r="3.2" fill="#1d4ed8"/>
<circle cx="1021.89" cy="282.13" r="3.2" fill="#1d4ed8"/>
<circle cx="1024.29" cy="280.11" r="3.2" fill="#1d4ed8"/>
<circle cx="1026.68" cy="280.11" r="3.2" fill="#1d4ed8"/>
<circle cx="1029.08" cy="280.51" r="3.2" fill="#1d4ed8"/>
<circle cx="1031.47" cy="279.71" r="3.2" fill="#1d4ed8"/>
<circle cx="1033.87" cy="280.11" r="3.2" fill="#1d4ed8"/>
<circle cx="1036.26" cy="280.51" r="3.2" fill="#1d4ed8"/>
<circle cx="1038.66" cy="279.71" r="3.2" fill="#1d4ed8"/>
<circle cx="1041.05" cy="280.11" r="3.2" fill="#1d4ed8"/>
<circle cx="1043.45" cy="280.11" r="3.2" fill="#1d4ed8"/>
<circle cx="1045.85" cy="279.30" r="3.2" fill="#1d4ed8"/>
<circle cx="1048.24" cy="278.90" r="3.2" fill="#1d4ed8"/>
<circle cx="1050.64" cy="278.90" r="3.2" fill="#1d4ed8"/>
<circle cx="1053.03" cy="280.51" r="3.2" fill="#1d4ed8"/>
<circle cx="1055.43" cy="279.30" r="3.2" fill="#1d4ed8"/>
<circle cx="1057.82" cy="278.09" r="3.2" fill="#1d4ed8"/>
<circle cx="1060.22" cy="278.49" r="3.2" fill="#1d4ed8"/>
<circle cx="1062.62" cy="278.49" r="3.2" fill="#1d4ed8"/>
<circle cx="1065.01" cy="277.28" r="3.2" fill="#1d4ed8"/>
<circle cx="1067.41" cy="277.68" r="3.2" fill="#1d4ed8"/>
<circle cx="1069.80" cy="277.68" r="3.2" fill="#1d4ed8"/>
<circle cx="1072.20" cy="278.09" r="3.2" fill="#1d4ed8"/>
<circle cx="1074.59" cy="277.28" r="3.2" fill="#1d4ed8"/>
<circle cx="1076.99" cy="600.00" r="3.2" fill="#1d4ed8"/>
<circle cx="1079.38" cy="278.90" r="3.2" fill="#1d4ed8"/>
<circle cx="1081.78" cy="279.30" r="3.2" fill="#1d4ed8"/>
<circle cx="1084.18" cy="278.90" r="3.2" fill="#1d4ed8"/>
<circle cx="1086.57" cy="278.49" r="3.2" fill="#1d4ed8"/>
<circle cx="1088.97" cy="278.49" r="3.2" fill="#1d4ed8"/>
<circle cx="1091.36" cy="278.49" r="3.2" fill="#1d4ed8"/>
<circle cx="1093.76" cy="278.49" r="3.2" fill="#1d4ed8"/>
<circle cx="1096.15" cy="278.49" r="3.2" fill="#1d4ed8"/>
<circle cx="1098.55" cy="278.49" r="3.2" fill="#1d4ed8"/>
<circle cx="1100.95" cy="278.49" r="3.2" fill="#1d4ed8"/>
<circle cx="1103.34" cy="278.49" r="3.2" fill="#1d4ed8"/>
<circle cx="1105.74" cy="278.49" r="3.2" fill="#1d4ed8"/>
<circle cx="1108.13" cy="278.49" r="3.2" fill="#1d4ed8"/>
<circle cx="1110.53" cy="278.49" r="3.2" fill="#1d4ed8"/>
<circle cx="1112.92" cy="278.49" r="3.2" fill="#1d4ed8"/>
<circle cx="1115.32" cy="600.00" r="3.2" fill="#1d4ed8"/>
<circle cx="1117.71" cy="600.00" r="3.2" fill="#1d4ed8"/>
<circle cx="1120.11" cy="254.63" r="3.2" fill="#1d4ed8"/>
<circle cx="1122.51" cy="600.00" r="3.2" fill="#1d4ed8"/>
<circle cx="1124.90" cy="245.74" r="3.2" fill="#1d4ed8"/>
<circle cx="1127.30" cy="245.74" r="3.2" fill="#1d4ed8"/>
<circle cx="1129.69" cy="246.14" r="3.2" fill="#1d4ed8"/>
<circle cx="1132.09" cy="245.74" r="3.2" fill="#1d4ed8"/>
<circle cx="1134.48" cy="245.74" r="3.2" fill="#1d4ed8"/>
<circle cx="1136.88" cy="245.74" r="3.2" fill="#1d4ed8"/>
<circle cx="1139.27" cy="245.74" r="3.2" fill="#1d4ed8"/>
<circle cx="1141.67" cy="245.74" r="3.2" fill="#1d4ed8"/>
<circle cx="1144.07" cy="240.07" r="3.2" fill="#1d4ed8"/>
<circle cx="1146.46" cy="238.05" r="3.2" fill="#1d4ed8"/>
<circle cx="1148.86" cy="238.05" r="3.2" fill="#1d4ed8"/>
<circle cx="1151.25" cy="227.13" r="3.2" fill="#1d4ed8"/>
<circle cx="1153.65" cy="227.13" r="3.2" fill="#1d4ed8"/>
<circle cx="1156.04" cy="226.32" r="3.2" fill="#1d4ed8"/>
<circle cx="1158.44" cy="227.54" r="3.2" fill="#1d4ed8"/>
<circle cx="1160.84" cy="226.73" r="3.2" fill="#1d4ed8"/>
<circle cx="1163.23" cy="226.32" r="3.2" fill="#1d4ed8"/>
<circle cx="1165.63" cy="227.13" r="3.2" fill="#1d4ed8"/>
<circle cx="1168.02" cy="227.13" r="3.2" fill="#1d4ed8"/>
<circle cx="1170.42" cy="226.73" r="3.2" fill="#1d4ed8"/>
<circle cx="1172.81" cy="226.32" r="3.2" fill="#1d4ed8"/>
<circle cx="1175.21" cy="226.73" r="3.2" fill="#1d4ed8"/>
<circle cx="1177.60" cy="226.73" r="3.2" fill="#1d4ed8"/>
<circle cx="1180.00" cy="226.73" r="3.2" fill="#1d4ed8"/>
<text x="635" y="695" text-anchor="middle" font-size="14" fill="#111" font-family="sans-serif">Date</text>
<text x="24" y="325" text-anchor="middle" font-size="14" fill="#111" transform="rotate(-90 24,325)" font-family="sans-serif">Passed files</text>
</svg>
