<?xml version="1.0" encoding="UTF-8"?>
<svg xmlns="http://www.w3.org/2000/svg" width="1280" height="720" viewBox="0 0 1280 720">
<rect width="100%" height="100%" fill="#ffffff"/>
<text x="640" y="30" text-anchor="middle" font-size="22" font-family="sans-serif">Roast passed files history</text>
<line x1="90" y1="600" x2="1180" y2="600" stroke="#333" stroke-width="1.5"/>
<line x1="90" y1="50" x2="90" y2="600" stroke="#333" stroke-width="1.5"/>
<line x1="90" y1="600.00" x2="1180" y2="600.00" stroke="#e5e7eb" stroke-width="1"/>
<text x="78" y="605.00" text-anchor="end" font-size="12" fill="#111" font-family="sans-serif">0</text>
<line x1="90" y1="397.79" x2="1180" y2="397.79" stroke="#e5e7eb" stroke-width="1"/>
<text x="78" y="402.79" text-anchor="end" font-size="12" fill="#111" font-family="sans-serif">500</text>
<line x1="90" y1="195.59" x2="1180" y2="195.59" stroke="#e5e7eb" stroke-width="1"/>
<text x="78" y="200.59" text-anchor="end" font-size="12" fill="#111" font-family="sans-serif">1000</text>
<line x1="90.00" y1="600" x2="90.00" y2="606" stroke="#333" stroke-width="1"/>
<text x="90.00" y="624" text-anchor="end" font-size="11" fill="#111" transform="rotate(-40 90.00,624)" font-family="sans-serif">2026-02-12</text>
<line x1="225.19" y1="600" x2="225.19" y2="606" stroke="#333" stroke-width="1"/>
<text x="225.19" y="624" text-anchor="end" font-size="11" fill="#111" transform="rotate(-40 225.19,624)" font-family="sans-serif">2026-02-17</text>
<line x1="360.39" y1="600" x2="360.39" y2="606" stroke="#333" stroke-width="1"/>
<text x="360.39" y="624" text-anchor="end" font-size="11" fill="#111" transform="rotate(-40 360.39,624)" font-family="sans-serif">2026-02-19</text>
<line x1="495.58" y1="600" x2="495.58" y2="606" stroke="#333" stroke-width="1"/>
<text x="495.58" y="624" text-anchor="end" font-size="11" fill="#111" transform="rotate(-40 495.58,624)" font-family="sans-serif">2026-02-22</text>
<line x1="630.78" y1="600" x2="630.78" y2="606" stroke="#333" stroke-width="1"/>
<text x="630.78" y="624" text-anchor="end" font-size="11" fill="#111" transform="rotate(-40 630.78,624)" font-family="sans-serif">2026-02-25</text>
<line x1="765.97" y1="600" x2="765.97" y2="606" stroke="#333" stroke-width="1"/>
<text x="765.97" y="624" text-anchor="end" font-size="11" fill="#111" transform="rotate(-40 765.97,624)" font-family="sans-serif">2026-02-27</text>
<line x1="901.16" y1="600" x2="901.16" y2="606" stroke="#333" stroke-width="1"/>
<text x="901.16" y="624" text-anchor="end" font-size="11" fill="#111" transform="rotate(-40 901.16,624)" font-family="sans-serif">2026-02-28</text>
<line x1="1036.36" y1="600" x2="1036.36" y2="606" stroke="#333" stroke-width="1"/>
<text x="1036.36" y="624" text-anchor="end" font-size="11" fill="#111" transform="rotate(-40 1036.36,624)" font-family="sans-serif">2026-03-06</text>
<line x1="1171.55" y1="600" x2="1171.55" y2="606" stroke="#333" stroke-width="1"/>
<text x="1171.55" y="624" text-anchor="end" font-size="11" fill="#111" transform="rotate(-40 1171.55,624)" font-family="sans-serif">2026-03-06</text>
<line x1="1180.00" y1="600" x2="1180.00" y2="606" stroke="#333" stroke-width="1"/>
<text x="1180.00" y="624" text-anchor="end" font-size="11" fill="#111" transform="rotate(-40 1180.00,624)" font-family="sans-serif">2026-03-06</text>
<line x1="90" y1="75.88" x2="1180" y2="75.88" stroke="#dc2626" stroke-width="1.5" stroke-dasharray="8,4"/>
<text x="1184" y="79.88" font-size="12" fill="#dc2626" font-family="sans-serif">Goal: 1296</text>
<polyline fill="none" stroke="#2563eb" stroke-width="3" points="90.00,540.55 94.22,538.53 98.45,536.91 102.67,534.49 106.90,534.49 111.12,533.27 115.35,532.46 119.57,532.87 123.80,532.06 128.02,532.46 132.25,532.06 136.47,568.46 140.70,568.46 144.92,566.43 149.15,545.00 153.37,545.00 157.60,544.19 161.82,543.79 166.05,543.79 170.27,543.38 174.50,541.76 178.72,541.36 182.95,540.96 187.17,540.96 191.40,539.34 195.62,539.34 199.84,556.73 204.07,556.73 208.29,555.51 212.52,551.07 216.74,538.93 220.97,538.93 225.19,538.93 229.42,538.12 233.64,536.91 237.87,536.91 242.09,536.51 246.32,536.51 250.54,556.73 254.77,556.73 258.99,556.73 263.22,556.73 267.44,535.29 271.67,535.29 275.89,535.29 280.12,535.29 284.34,534.49 288.57,534.08 292.79,533.68 297.02,532.87 301.24,532.06 305.47,532.06 309.69,531.25 313.91,530.85 318.14,530.44 322.36,530.04 326.59,530.04 330.81,529.23 335.04,529.23 339.26,529.23 343.49,528.42 347.71,528.42 351.94,527.61 356.16,527.21 360.39,526.80 364.61,526.40 368.84,525.18 373.06,523.57 377.29,523.57 381.51,523.16 385.74,522.76 389.96,522.35 394.19,521.54 398.41,519.52 402.64,517.50 406.86,517.50 411.09,517.50 415.31,517.50 419.53,517.50 423.76,517.50 427.98,517.10 432.21,516.69 436.43,515.48 440.66,515.07 444.88,514.67 449.11,513.86 453.33,514.26 457.56,512.24 461.78,511.84 466.01,511.84 470.23,511.03 474.46,509.82 478.68,507.79 482.91,506.99 487.13,506.58 491.36,509.41 495.58,509.01 499.81,504.96 504.03,504.56 508.26,504.15 512.48,504.56 516.71,503.75 520.93,503.75 525.16,503.35 529.38,499.30 533.60,496.47 537.83,490.00 542.05,484.34 546.28,481.10 550.50,480.29 554.73,480.70 558.95,460.88 563.18,459.26 567.40,458.05 571.63,456.03 575.85,456.03 580.08,454.41 584.30,450.77 588.53,444.30 592.75,443.90 596.98,600.00 601.20,441.88 605.43,440.66 609.65,439.45 613.88,439.04 618.10,438.64 622.33,437.83 626.55,436.62 630.78,436.62 635.00,434.60 639.22,432.17 643.45,429.34 647.67,428.93 651.90,428.53 656.12,427.72 660.35,426.91 664.57,426.10 668.80,426.10 673.02,426.10 677.25,419.63 681.47,419.23 685.70,418.42 689.92,418.01 694.15,417.61 698.37,417.61 702.60,417.61 706.82,417.21 711.05,417.21 715.27,413.57 719.50,411.95 723.72,412.76 727.95,410.74 732.17,410.74 736.40,410.33 740.62,410.33 744.84,410.33 749.07,409.93 753.29,409.93 757.52,409.93 761.74,409.52 765.97,409.52 770.19,409.12 774.42,409.52 778.64,409.12 782.87,407.50 787.09,407.10 791.32,403.05 795.54,399.82 799.77,400.22 803.99,400.62 808.22,400.62 812.44,399.41 816.67,392.94 820.89,391.32 825.12,389.30 829.34,389.30 833.57,388.49 837.79,375.15 842.02,374.74 846.24,374.74 850.47,374.74 854.69,374.74 858.91,374.34 863.14,374.34 867.36,374.34 871.59,374.34 875.81,374.34 880.04,373.93 884.26,373.12 888.49,372.72 892.71,373.53 896.94,435.81 901.16,372.32 905.39,372.72 909.61,371.91 913.84,371.91 918.06,372.32 922.29,371.10 926.51,369.89 930.74,369.89 934.96,369.89 939.19,369.49 943.41,369.89 947.64,369.08 951.86,368.68 956.09,368.27 960.31,367.87 964.53,367.06 968.76,367.46 972.98,367.06 977.21,366.25 981.43,368.27 985.66,368.68 989.88,368.68 994.11,368.27 998.33,369.08 1002.56,367.87 1006.78,367.46 1011.01,367.06 1015.23,360.18 1019.46,359.78 1023.68,359.38 1027.91,356.95 1032.13,357.35 1036.36,357.76 1040.58,355.33 1044.81,355.74 1049.03,357.35 1053.26,355.33 1057.48,356.14 1061.71,355.74 1065.93,356.14 1070.16,354.12 1074.38,354.93 1078.60,356.14 1082.83,354.52 1087.05,353.71 1091.28,354.12 1095.50,354.93 1099.73,352.90 1103.95,353.71 1108.18,353.31 1112.40,353.31 1116.63,354.52 1120.85,352.90 1125.08,352.50 1129.30,352.50 1133.53,353.31 1137.75,352.50 1141.98,353.71 1146.20,354.12 1150.43,352.50 1154.65,352.90 1158.88,352.50 1163.10,352.10 1167.33,351.69 1171.55,352.10 1175.78,354.12 1180.00,352.50"/>
<circle cx="90.00" cy="540.55" r="3.2" fill="#1d4ed8"/>
<circle cx="94.22" cy="538.53" r="3.2" fill="#1d4ed8"/>
<circle cx="98.45" cy="536.91" r="3.2" fill="#1d4ed8"/>
<circle cx="102.67" cy="534.49" r="3.2" fill="#1d4ed8"/>
<circle cx="106.90" cy="534.49" r="3.2" fill="#1d4ed8"/>
<circle cx="111.12" cy="533.27" r="3.2" fill="#1d4ed8"/>
<circle cx="115.35" cy="532.46" r="3.2" fill="#1d4ed8"/>
<circle cx="119.57" cy="532.87" r="3.2" fill="#1d4ed8"/>
<circle cx="123.80" cy="532.06" r="3.2" fill="#1d4ed8"/>
<circle cx="128.02" cy="532.46" r="3.2" fill="#1d4ed8"/>
<circle cx="132.25" cy="532.06" r="3.2" fill="#1d4ed8"/>
<circle cx="136.47" cy="568.46" r="3.2" fill="#1d4ed8"/>
<circle cx="140.70" cy="568.46" r="3.2" fill="#1d4ed8"/>
<circle cx="144.92" cy="566.43" r="3.2" fill="#1d4ed8"/>
<circle cx="149.15" cy="545.00" r="3.2" fill="#1d4ed8"/>
<circle cx="153.37" cy="545.00" r="3.2" fill="#1d4ed8"/>
<circle cx="157.60" cy="544.19" r="3.2" fill="#1d4ed8"/>
<circle cx="161.82" cy="543.79" r="3.2" fill="#1d4ed8"/>
<circle cx="166.05" cy="543.79" r="3.2" fill="#1d4ed8"/>
<circle cx="170.27" cy="543.38" r="3.2" fill="#1d4ed8"/>
<circle cx="174.50" cy="541.76" r="3.2" fill="#1d4ed8"/>
<circle cx="178.72" cy="541.36" r="3.2" fill="#1d4ed8"/>
<circle cx="182.95" cy="540.96" r="3.2" fill="#1d4ed8"/>
<circle cx="187.17" cy="540.96" r="3.2" fill="#1d4ed8"/>
<circle cx="191.40" cy="539.34" r="3.2" fill="#1d4ed8"/>
<circle cx="195.62" cy="539.34" r="3.2" fill="#1d4ed8"/>
<circle cx="199.84" cy="556.73" r="3.2" fill="#1d4ed8"/>
<circle cx="204.07" cy="556.73" r="3.2" fill="#1d4ed8"/>
<circle cx="208.29" cy="555.51" r="3.2" fill="#1d4ed8"/>
<circle cx="212.52" cy="551.07" r="3.2" fill="#1d4ed8"/>
<circle cx="216.74" cy="538.93" r="3.2" fill="#1d4ed8"/>
<circle cx="220.97" cy="538.93" r="3.2" fill="#1d4ed8"/>
<circle cx="225.19" cy="538.93" r="3.2" fill="#1d4ed8"/>
<circle cx="229.42" cy="538.12" r="3.2" fill="#1d4ed8"/>
<circle cx="233.64" cy="536.91" r="3.2" fill="#1d4ed8"/>
<circle cx="237.87" cy="536.91" r="3.2" fill="#1d4ed8"/>
<circle cx="242.09" cy="536.51" r="3.2" fill="#1d4ed8"/>
<circle cx="246.32" cy="536.51" r="3.2" fill="#1d4ed8"/>
<circle cx="250.54" cy="556.73" r="3.2" fill="#1d4ed8"/>
<circle cx="254.77" cy="556.73" r="3.2" fill="#1d4ed8"/>
<circle cx="258.99" cy="556.73" r="3.2" fill="#1d4ed8"/>
<circle cx="263.22" cy="556.73" r="3.2" fill="#1d4ed8"/>
<circle cx="267.44" cy="535.29" r="3.2" fill="#1d4ed8"/>
<circle cx="271.67" cy="535.29" r="3.2" fill="#1d4ed8"/>
<circle cx="275.89" cy="535.29" r="3.2" fill="#1d4ed8"/>
<circle cx="280.12" cy="535.29" r="3.2" fill="#1d4ed8"/>
<circle cx="284.34" cy="534.49" r="3.2" fill="#1d4ed8"/>
<circle cx="288.57" cy="534.08" r="3.2" fill="#1d4ed8"/>
<circle cx="292.79" cy="533.68" r="3.2" fill="#1d4ed8"/>
<circle cx="297.02" cy="532.87" r="3.2" fill="#1d4ed8"/>
<circle cx="301.24" cy="532.06" r="3.2" fill="#1d4ed8"/>
<circle cx="305.47" cy="532.06" r="3.2" fill="#1d4ed8"/>
<circle cx="309.69" cy="531.25" r="3.2" fill="#1d4ed8"/>
<circle cx="313.91" cy="530.85" r="3.2" fill="#1d4ed8"/>
<circle cx="318.14" cy="530.44" r="3.2" fill="#1d4ed8"/>
<circle cx="322.36" cy="530.04" r="3.2" fill="#1d4ed8"/>
<circle cx="326.59" cy="530.04" r="3.2" fill="#1d4ed8"/>
<circle cx="330.81" cy="529.23" r="3.2" fill="#1d4ed8"/>
<circle cx="335.04" cy="529.23" r="3.2" fill="#1d4ed8"/>
<circle cx="339.26" cy="529.23" r="3.2" fill="#1d4ed8"/>
<circle cx="343.49" cy="528.42" r="3.2" fill="#1d4ed8"/>
<circle cx="347.71" cy="528.42" r="3.2" fill="#1d4ed8"/>
<circle cx="351.94" cy="527.61" r="3.2" fill="#1d4ed8"/>
<circle cx="356.16" cy="527.21" r="3.2" fill="#1d4ed8"/>
<circle cx="360.39" cy="526.80" r="3.2" fill="#1d4ed8"/>
<circle cx="364.61" cy="526.40" r="3.2" fill="#1d4ed8"/>
<circle cx="368.84" cy="525.18" r="3.2" fill="#1d4ed8"/>
<circle cx="373.06" cy="523.57" r="3.2" fill="#1d4ed8"/>
<circle cx="377.29" cy="523.57" r="3.2" fill="#1d4ed8"/>
<circle cx="381.51" cy="523.16" r="3.2" fill="#1d4ed8"/>
<circle cx="385.74" cy="522.76" r="3.2" fill="#1d4ed8"/>
<circle cx="389.96" cy="522.35" r="3.2" fill="#1d4ed8"/>
<circle cx="394.19" cy="521.54" r="3.2" fill="#1d4ed8"/>
<circle cx="398.41" cy="519.52" r="3.2" fill="#1d4ed8"/>
<circle cx="402.64" cy="517.50" r="3.2" fill="#1d4ed8"/>
<circle cx="406.86" cy="517.50" r="3.2" fill="#1d4ed8"/>
<circle cx="411.09" cy="517.50" r="3.2" fill="#1d4ed8"/>
<circle cx="415.31" cy="517.50" r="3.2" fill="#1d4ed8"/>
<circle cx="419.53" cy="517.50" r="3.2" fill="#1d4ed8"/>
<circle cx="423.76" cy="517.50" r="3.2" fill="#1d4ed8"/>
<circle cx="427.98" cy="517.10" r="3.2" fill="#1d4ed8"/>
<circle cx="432.21" cy="516.69" r="3.2" fill="#1d4ed8"/>
<circle cx="436.43" cy="515.48" r="3.2" fill="#1d4ed8"/>
<circle cx="440.66" cy="515.07" r="3.2" fill="#1d4ed8"/>
<circle cx="444.88" cy="514.67" r="3.2" fill="#1d4ed8"/>
<circle cx="449.11" cy="513.86" r="3.2" fill="#1d4ed8"/>
<circle cx="453.33" cy="514.26" r="3.2" fill="#1d4ed8"/>
<circle cx="457.56" cy="512.24" r="3.2" fill="#1d4ed8"/>
<circle cx="461.78" cy="511.84" r="3.2" fill="#1d4ed8"/>
<circle cx="466.01" cy="511.84" r="3.2" fill="#1d4ed8"/>
<circle cx="470.23" cy="511.03" r="3.2" fill="#1d4ed8"/>
<circle cx="474.46" cy="509.82" r="3.2" fill="#1d4ed8"/>
<circle cx="478.68" cy="507.79" r="3.2" fill="#1d4ed8"/>
<circle cx="482.91" cy="506.99" r="3.2" fill="#1d4ed8"/>
<circle cx="487.13" cy="506.58" r="3.2" fill="#1d4ed8"/>
<circle cx="491.36" cy="509.41" r="3.2" fill="#1d4ed8"/>
<circle cx="495.58" cy="509.01" r="3.2" fill="#1d4ed8"/>
<circle cx="499.81" cy="504.96" r="3.2" fill="#1d4ed8"/>
<circle cx="504.03" cy="504.56" r="3.2" fill="#1d4ed8"/>
<circle cx="508.26" cy="504.15" r="3.2" fill="#1d4ed8"/>
<circle cx="512.48" cy="504.56" r="3.2" fill="#1d4ed8"/>
<circle cx="516.71" cy="503.75" r="3.2" fill="#1d4ed8"/>
<circle cx="520.93" cy="503.75" r="3.2" fill="#1d4ed8"/>
<circle cx="525.16" cy="503.35" r="3.2" fill="#1d4ed8"/>
<circle cx="529.38" cy="499.30" r="3.2" fill="#1d4ed8"/>
<circle cx="533.60" cy="496.47" r="3.2" fill="#1d4ed8"/>
<circle cx="537.83" cy="490.00" r="3.2" fill="#1d4ed8"/>
<circle cx="542.05" cy="484.34" r="3.2" fill="#1d4ed8"/>
<circle cx="546.28" cy="481.10" r="3.2" fill="#1d4ed8"/>
<circle cx="550.50" cy="480.29" r="3.2" fill="#1d4ed8"/>
<circle cx="554.73" cy="480.70" r="3.2" fill="#1d4ed8"/>
<circle cx="558.95" cy="460.88" r="3.2" fill="#1d4ed8"/>
<circle cx="563.18" cy="459.26" r="3.2" fill="#1d4ed8"/>
<circle cx="567.40" cy="458.05" r="3.2" fill="#1d4ed8"/>
<circle cx="571.63" cy="456.03" r="3.2" fill="#1d4ed8"/>
<circle cx="575.85" cy="456.03" r="3.2" fill="#1d4ed8"/>
<circle cx="580.08" cy="454.41" r="3.2" fill="#1d4ed8"/>
<circle cx="584.30" cy="450.77" r="3.2" fill="#1d4ed8"/>
<circle cx="588.53" cy="444.30" r="3.2" fill="#1d4ed8"/>
<circle cx="592.75" cy="443.90" r="3.2" fill="#1d4ed8"/>
<circle cx="596.98" cy="600.00" r="3.2" fill="#1d4ed8"/>
<circle cx="601.20" cy="441.88" r="3.2" fill="#1d4ed8"/>
<circle cx="605.43" cy="440.66" r="3.2" fill="#1d4ed8"/>
<circle cx="609.65" cy="439.45" r="3.2" fill="#1d4ed8"/>
<circle cx="613.88" cy="439.04" r="3.2" fill="#1d4ed8"/>
<circle cx="618.10" cy="438.64" r="3.2" fill="#1d4ed8"/>
<circle cx="622.33" cy="437.83" r="3.2" fill="#1d4ed8"/>
<circle cx="626.55" cy="436.62" r="3.2" fill="#1d4ed8"/>
<circle cx="630.78" cy="436.62" r="3.2" fill="#1d4ed8"/>
<circle cx="635.00" cy="434.60" r="3.2" fill="#1d4ed8"/>
<circle cx="639.22" cy="432.17" r="3.2" fill="#1d4ed8"/>
<circle cx="643.45" cy="429.34" r="3.2" fill="#1d4ed8"/>
<circle cx="647.67" cy="428.93" r="3.2" fill="#1d4ed8"/>
<circle cx="651.90" cy="428.53" r="3.2" fill="#1d4ed8"/>
<circle cx="656.12" cy="427.72" r="3.2" fill="#1d4ed8"/>
<circle cx="660.35" cy="426.91" r="3.2" fill="#1d4ed8"/>
<circle cx="664.57" cy="426.10" r="3.2" fill="#1d4ed8"/>
<circle cx="668.80" cy="426.10" r="3.2" fill="#1d4ed8"/>
<circle cx="673.02" cy="426.10" r="3.2" fill="#1d4ed8"/>
<circle cx="677.25" cy="419.63" r="3.2" fill="#1d4ed8"/>
<circle cx="681.47" cy="419.23" r="3.2" fill="#1d4ed8"/>
<circle cx="685.70" cy="418.42" r="3.2" fill="#1d4ed8"/>
<circle cx="689.92" cy="418.01" r="3.2" fill="#1d4ed8"/>
<circle cx="694.15" cy="417.61" r="3.2" fill="#1d4ed8"/>
<circle cx="698.37" cy="417.61" r="3.2" fill="#1d4ed8"/>
<circle cx="702.60" cy="417.61" r="3.2" fill="#1d4ed8"/>
<circle cx="706.82" cy="417.21" r="3.2" fill="#1d4ed8"/>
<circle cx="711.05" cy="417.21" r="3.2" fill="#1d4ed8"/>
<circle cx="715.27" cy="413.57" r="3.2" fill="#1d4ed8"/>
<circle cx="719.50" cy="411.95" r="3.2" fill="#1d4ed8"/>
<circle cx="723.72" cy="412.76" r="3.2" fill="#1d4ed8"/>
<circle cx="727.95" cy="410.74" r="3.2" fill="#1d4ed8"/>
<circle cx="732.17" cy="410.74" r="3.2" fill="#1d4ed8"/>
<circle cx="736.40" cy="410.33" r="3.2" fill="#1d4ed8"/>
<circle cx="740.62" cy="410.33" r="3.2" fill="#1d4ed8"/>
<circle cx="744.84" cy="410.33" r="3.2" fill="#1d4ed8"/>
<circle cx="749.07" cy="409.93" r="3.2" fill="#1d4ed8"/>
<circle cx="753.29" cy="409.93" r="3.2" fill="#1d4ed8"/>
<circle cx="757.52" cy="409.93" r="3.2" fill="#1d4ed8"/>
<circle cx="761.74" cy="409.52" r="3.2" fill="#1d4ed8"/>
<circle cx="765.97" cy="409.52" r="3.2" fill="#1d4ed8"/>
<circle cx="770.19" cy="409.12" r="3.2" fill="#1d4ed8"/>
<circle cx="774.42" cy="409.52" r="3.2" fill="#1d4ed8"/>
<circle cx="778.64" cy="409.12" r="3.2" fill="#1d4ed8"/>
<circle cx="782.87" cy="407.50" r="3.2" fill="#1d4ed8"/>
<circle cx="787.09" cy="407.10" r="3.2" fill="#1d4ed8"/>
<circle cx="791.32" cy="403.05" r="3.2" fill="#1d4ed8"/>
<circle cx="795.54" cy="399.82" r="3.2" fill="#1d4ed8"/>
<circle cx="799.77" cy="400.22" r="3.2" fill="#1d4ed8"/>
<circle cx="803.99" cy="400.62" r="3.2" fill="#1d4ed8"/>
<circle cx="808.22" cy="400.62" r="3.2" fill="#1d4ed8"/>
<circle cx="812.44" cy="399.41" r="3.2" fill="#1d4ed8"/>
<circle cx="816.67" cy="392.94" r="3.2" fill="#1d4ed8"/>
<circle cx="820.89" cy="391.32" r="3.2" fill="#1d4ed8"/>
<circle cx="825.12" cy="389.30" r="3.2" fill="#1d4ed8"/>
<circle cx="829.34" cy="389.30" r="3.2" fill="#1d4ed8"/>
<circle cx="833.57" cy="388.49" r="3.2" fill="#1d4ed8"/>
<circle cx="837.79" cy="375.15" r="3.2" fill="#1d4ed8"/>
<circle cx="842.02" cy="374.74" r="3.2" fill="#1d4ed8"/>
<circle cx="846.24" cy="374.74" r="3.2" fill="#1d4ed8"/>
<circle cx="850.47" cy="374.74" r="3.2" fill="#1d4ed8"/>
<circle cx="854.69" cy="374.74" r="3.2" fill="#1d4ed8"/>
<circle cx="858.91" cy="374.34" r="3.2" fill="#1d4ed8"/>
<circle cx="863.14" cy="374.34" r="3.2" fill="#1d4ed8"/>
<circle cx="867.36" cy="374.34" r="3.2" fill="#1d4ed8"/>
<circle cx="871.59" cy="374.34" r="3.2" fill="#1d4ed8"/>
<circle cx="875.81" cy="374.34" r="3.2" fill="#1d4ed8"/>
<circle cx="880.04" cy="373.93" r="3.2" fill="#1d4ed8"/>
<circle cx="884.26" cy="373.12" r="3.2" fill="#1d4ed8"/>
<circle cx="888.49" cy="372.72" r="3.2" fill="#1d4ed8"/>
<circle cx="892.71" cy="373.53" r="3.2" fill="#1d4ed8"/>
<circle cx="896.94" cy="435.81" r="3.2" fill="#1d4ed8"/>
<circle cx="901.16" cy="372.32" r="3.2" fill="#1d4ed8"/>
<circle cx="905.39" cy="372.72" r="3.2" fill="#1d4ed8"/>
<circle cx="909.61" cy="371.91" r="3.2" fill="#1d4ed8"/>
<circle cx="913.84" cy="371.91" r="3.2" fill="#1d4ed8"/>
<circle cx="918.06" cy="372.32" r="3.2" fill="#1d4ed8"/>
<circle cx="922.29" cy="371.10" r="3.2" fill="#1d4ed8"/>
<circle cx="926.51" cy="369.89" r="3.2" fill="#1d4ed8"/>
<circle cx="930.74" cy="369.89" r="3.2" fill="#1d4ed8"/>
<circle cx="934.96" cy="369.89" r="3.2" fill="#1d4ed8"/>
<circle cx="939.19" cy="369.49" r="3.2" fill="#1d4ed8"/>
<circle cx="943.41" cy="369.89" r="3.2" fill="#1d4ed8"/>
<circle cx="947.64" cy="369.08" r="3.2" fill="#1d4ed8"/>
<circle cx="951.86" cy="368.68" r="3.2" fill="#1d4ed8"/>
<circle cx="956.09" cy="368.27" r="3.2" fill="#1d4ed8"/>
<circle cx="960.31" cy="367.87" r="3.2" fill="#1d4ed8"/>
<circle cx="964.53" cy="367.06" r="3.2" fill="#1d4ed8"/>
<circle cx="968.76" cy="367.46" r="3.2" fill="#1d4ed8"/>
<circle cx="972.98" cy="367.06" r="3.2" fill="#1d4ed8"/>
<circle cx="977.21" cy="366.25" r="3.2" fill="#1d4ed8"/>
<circle cx="981.43" cy="368.27" r="3.2" fill="#1d4ed8"/>
<circle cx="985.66" cy="368.68" r="3.2" fill="#1d4ed8"/>
<circle cx="989.88" cy="368.68" r="3.2" fill="#1d4ed8"/>
<circle cx="994.11" cy="368.27" r="3.2" fill="#1d4ed8"/>
<circle cx="998.33" cy="369.08" r="3.2" fill="#1d4ed8"/>
<circle cx="1002.56" cy="367.87" r="3.2" fill="#1d4ed8"/>
<circle cx="1006.78" cy="367.46" r="3.2" fill="#1d4ed8"/>
<circle cx="1011.01" cy="367.06" r="3.2" fill="#1d4ed8"/>
<circle cx="1015.23" cy="360.18" r="3.2" fill="#1d4ed8"/>
<circle cx="1019.46" cy="359.78" r="3.2" fill="#1d4ed8"/>
<circle cx="1023.68" cy="359.38" r="3.2" fill="#1d4ed8"/>
<circle cx="1027.91" cy="356.95" r="3.2" fill="#1d4ed8"/>
<circle cx="1032.13" cy="357.35" r="3.2" fill="#1d4ed8"/>
<circle cx="1036.36" cy="357.76" r="3.2" fill="#1d4ed8"/>
<circle cx="1040.58" cy="355.33" r="3.2" fill="#1d4ed8"/>
<circle cx="1044.81" cy="355.74" r="3.2" fill="#1d4ed8"/>
<circle cx="1049.03" cy="357.35" r="3.2" fill="#1d4ed8"/>
<circle cx="1053.26" cy="355.33" r="3.2" fill="#1d4ed8"/>
<circle cx="1057.48" cy="356.14" r="3.2" fill="#1d4ed8"/>
<circle cx="1061.71" cy="355.74" r="3.2" fill="#1d4ed8"/>
<circle cx="1065.93" cy="356.14" r="3.2" fill="#1d4ed8"/>
<circle cx="1070.16" cy="354.12" r="3.2" fill="#1d4ed8"/>
<circle cx="1074.38" cy="354.93" r="3.2" fill="#1d4ed8"/>
<circle cx="1078.60" cy="356.14" r="3.2" fill="#1d4ed8"/>
<circle cx="1082.83" cy="354.52" r="3.2" fill="#1d4ed8"/>
<circle cx="1087.05" cy="353.71" r="3.2" fill="#1d4ed8"/>
<circle cx="1091.28" cy="354.12" r="3.2" fill="#1d4ed8"/>
<circle cx="1095.50" cy="354.93" r="3.2" fill="#1d4ed8"/>
<circle cx="1099.73" cy="352.90" r="3.2" fill="#1d4ed8"/>
<circle cx="1103.95" cy="353.71" r="3.2" fill="#1d4ed8"/>
<circle cx="1108.18" cy="353.31" r="3.2" fill="#1d4ed8"/>
<circle cx="1112.40" cy="353.31" r="3.2" fill="#1d4ed8"/>
<circle cx="1116.63" cy="354.52" r="3.2" fill="#1d4ed8"/>
<circle cx="1120.85" cy="352.90" r="3.2" fill="#1d4ed8"/>
<circle cx="1125.08" cy="352.50" r="3.2" fill="#1d4ed8"/>
<circle cx="1129.30" cy="352.50" r="3.2" fill="#1d4ed8"/>
<circle cx="1133.53" cy="353.31" r="3.2" fill="#1d4ed8"/>
<circle cx="1137.75" cy="352.50" r="3.2" fill="#1d4ed8"/>
<circle cx="1141.98" cy="353.71" r="3.2" fill="#1d4ed8"/>
<circle cx="1146.20" cy="354.12" r="3.2" fill="#1d4ed8"/>
<circle cx="1150.43" cy="352.50" r="3.2" fill="#1d4ed8"/>
<circle cx="1154.65" cy="352.90" r="3.2" fill="#1d4ed8"/>
<circle cx="1158.88" cy="352.50" r="3.2" fill="#1d4ed8"/>
<circle cx="1163.10" cy="352.10" r="3.2" fill="#1d4ed8"/>
<circle cx="1167.33" cy="351.69" r="3.2" fill="#1d4ed8"/>
<circle cx="1171.55" cy="352.10" r="3.2" fill="#1d4ed8"/>
<circle cx="1175.78" cy="354.12" r="3.2" fill="#1d4ed8"/>
<circle cx="1180.00" cy="352.50" r="3.2" fill="#1d4ed8"/>
<text x="635" y="695" text-anchor="middle" font-size="14" fill="#111" font-family="sans-serif">Date</text>
<text x="24" y="325" text-anchor="middle" font-size="14" fill="#111" transform="rotate(-90 24,325)" font-family="sans-serif">Passed files</text>
</svg>
