<?xml version="1.0" encoding="UTF-8"?>
<svg xmlns="http://www.w3.org/2000/svg" width="1280" height="720" viewBox="0 0 1280 720">
<rect width="100%" height="100%" fill="#ffffff"/>
<text x="640" y="30" text-anchor="middle" font-size="22" font-family="sans-serif">Roast passed files history</text>
<line x1="90" y1="600" x2="1180" y2="600" stroke="#333" stroke-width="1.5"/>
<line x1="90" y1="50" x2="90" y2="600" stroke="#333" stroke-width="1.5"/>
<line x1="90" y1="600.00" x2="1180" y2="600.00" stroke="#e5e7eb" stroke-width="1"/>
<text x="78" y="605.00" text-anchor="end" font-size="12" fill="#111" font-family="sans-serif">0</text>
<line x1="90" y1="397.79" x2="1180" y2="397.79" stroke="#e5e7eb" stroke-width="1"/>
<text x="78" y="402.79" text-anchor="end" font-size="12" fill="#111" font-family="sans-serif">500</text>
<line x1="90" y1="195.59" x2="1180" y2="195.59" stroke="#e5e7eb" stroke-width="1"/>
<text x="78" y="200.59" text-anchor="end" font-size="12" fill="#111" font-family="sans-serif">1000</text>
<line x1="90.00" y1="600" x2="90.00" y2="606" stroke="#333" stroke-width="1"/>
<text x="90.00" y="624" text-anchor="end" font-size="11" fill="#111" transform="rotate(-40 90.00,624)" font-family="sans-serif">2026-02-12</text>
<line x1="224.85" y1="600" x2="224.85" y2="606" stroke="#333" stroke-width="1"/>
<text x="224.85" y="624" text-anchor="end" font-size="11" fill="#111" transform="rotate(-40 224.85,624)" font-family="sans-serif">2026-02-17</text>
<line x1="359.69" y1="600" x2="359.69" y2="606" stroke="#333" stroke-width="1"/>
<text x="359.69" y="624" text-anchor="end" font-size="11" fill="#111" transform="rotate(-40 359.69,624)" font-family="sans-serif">2026-02-22</text>
<line x1="494.54" y1="600" x2="494.54" y2="606" stroke="#333" stroke-width="1"/>
<text x="494.54" y="624" text-anchor="end" font-size="11" fill="#111" transform="rotate(-40 494.54,624)" font-family="sans-serif">2026-02-26</text>
<line x1="629.38" y1="600" x2="629.38" y2="606" stroke="#333" stroke-width="1"/>
<text x="629.38" y="624" text-anchor="end" font-size="11" fill="#111" transform="rotate(-40 629.38,624)" font-family="sans-serif">2026-02-28</text>
<line x1="764.23" y1="600" x2="764.23" y2="606" stroke="#333" stroke-width="1"/>
<text x="764.23" y="624" text-anchor="end" font-size="11" fill="#111" transform="rotate(-40 764.23,624)" font-family="sans-serif">2026-03-06</text>
<line x1="899.07" y1="600" x2="899.07" y2="606" stroke="#333" stroke-width="1"/>
<text x="899.07" y="624" text-anchor="end" font-size="11" fill="#111" transform="rotate(-40 899.07,624)" font-family="sans-serif">2026-03-07</text>
<line x1="1033.92" y1="600" x2="1033.92" y2="606" stroke="#333" stroke-width="1"/>
<text x="1033.92" y="624" text-anchor="end" font-size="11" fill="#111" transform="rotate(-40 1033.92,624)" font-family="sans-serif">2026-03-15</text>
<line x1="1168.76" y1="600" x2="1168.76" y2="606" stroke="#333" stroke-width="1"/>
<text x="1168.76" y="624" text-anchor="end" font-size="11" fill="#111" transform="rotate(-40 1168.76,624)" font-family="sans-serif">2026-03-19</text>
<line x1="1180.00" y1="600" x2="1180.00" y2="606" stroke="#333" stroke-width="1"/>
<text x="1180.00" y="624" text-anchor="end" font-size="11" fill="#111" transform="rotate(-40 1180.00,624)" font-family="sans-serif">2026-03-19</text>
<line x1="90" y1="75.88" x2="1180" y2="75.88" stroke="#dc2626" stroke-width="1.5" stroke-dasharray="8,4"/>
<text x="1184" y="79.88" font-size="12" fill="#dc2626" font-family="sans-serif">Goal: 1296</text>
<polyline fill="none" stroke="#2563eb" stroke-width="3" points="90.00,540.55 92.81,538.53 95.62,536.91 98.43,534.49 101.24,534.49 104.05,533.27 106.86,532.46 109.66,532.87 112.47,532.06 115.28,532.46 118.09,532.06 120.90,568.46 123.71,568.46 126.52,566.43 129.33,545.00 132.14,545.00 134.95,544.19 137.76,543.79 140.57,543.79 143.38,543.38 146.19,541.76 148.99,541.36 151.80,540.96 154.61,540.96 157.42,539.34 160.23,539.34 163.04,556.73 165.85,556.73 168.66,555.51 171.47,551.07 174.28,538.93 177.09,538.93 179.90,538.93 182.71,538.12 185.52,536.91 188.32,536.91 191.13,536.51 193.94,536.51 196.75,556.73 199.56,556.73 202.37,556.73 205.18,556.73 207.99,535.29 210.80,535.29 213.61,535.29 216.42,535.29 219.23,534.49 222.04,534.08 224.85,533.68 227.65,532.87 230.46,532.06 233.27,532.06 236.08,531.25 238.89,530.85 241.70,530.44 244.51,530.04 247.32,530.04 250.13,529.23 252.94,529.23 255.75,529.23 258.56,528.42 261.37,528.42 264.18,527.61 266.98,527.21 269.79,526.80 272.60,526.40 275.41,525.18 278.22,523.57 281.03,523.57 283.84,523.16 286.65,522.76 289.46,522.35 292.27,521.54 295.08,519.52 297.89,517.50 300.70,517.50 303.51,517.50 306.31,517.50 309.12,517.50 311.93,517.50 314.74,517.10 317.55,516.69 320.36,515.48 323.17,515.07 325.98,514.67 328.79,513.86 331.60,514.26 334.41,512.24 337.22,511.84 340.03,511.84 342.84,511.03 345.64,509.82 348.45,507.79 351.26,506.99 354.07,506.58 356.88,509.41 359.69,509.01 362.50,504.96 365.31,504.56 368.12,504.15 370.93,504.56 373.74,503.75 376.55,503.75 379.36,503.35 382.16,499.30 384.97,496.47 387.78,490.00 390.59,484.34 393.40,481.10 396.21,480.29 399.02,480.70 401.83,460.88 404.64,459.26 407.45,458.05 410.26,456.03 413.07,456.03 415.88,454.41 418.69,450.77 421.49,444.30 424.30,443.90 427.11,600.00 429.92,441.88 432.73,440.66 435.54,439.45 438.35,439.04 441.16,438.64 443.97,437.83 446.78,436.62 449.59,436.62 452.40,434.60 455.21,432.17 458.02,429.34 460.82,428.93 463.63,428.53 466.44,427.72 469.25,426.91 472.06,426.10 474.87,426.10 477.68,426.10 480.49,419.63 483.30,419.23 486.11,418.42 488.92,418.01 491.73,417.61 494.54,417.61 497.35,417.61 500.15,417.21 502.96,417.21 505.77,413.57 508.58,411.95 511.39,412.76 514.20,410.74 517.01,410.74 519.82,410.33 522.63,410.33 525.44,410.33 528.25,409.93 531.06,409.93 533.87,409.93 536.68,409.52 539.48,409.52 542.29,409.12 545.10,409.52 547.91,409.12 550.72,407.50 553.53,407.10 556.34,403.05 559.15,399.82 561.96,400.22 564.77,400.62 567.58,400.62 570.39,399.41 573.20,392.94 576.01,391.32 578.81,389.30 581.62,389.30 584.43,388.49 587.24,375.15 590.05,374.74 592.86,374.74 595.67,374.74 598.48,374.74 601.29,374.34 604.10,374.34 606.91,374.34 609.72,374.34 612.53,374.34 615.34,373.93 618.14,373.12 620.95,372.72 623.76,373.53 626.57,435.81 629.38,372.32 632.19,372.72 635.00,371.91 637.81,371.91 640.62,372.32 643.43,371.10 646.24,369.89 649.05,369.89 651.86,369.89 654.66,369.49 657.47,369.89 660.28,369.08 663.09,368.68 665.90,368.27 668.71,367.87 671.52,367.06 674.33,367.46 677.14,367.06 679.95,366.25 682.76,368.27 685.57,368.68 688.38,368.68 691.19,368.27 693.99,369.08 696.80,367.87 699.61,367.46 702.42,367.06 705.23,360.18 708.04,359.78 710.85,359.38 713.66,356.95 716.47,357.35 719.28,357.76 722.09,355.33 724.90,355.74 727.71,357.35 730.52,355.33 733.32,356.14 736.13,355.74 738.94,356.14 741.75,354.12 744.56,354.93 747.37,356.14 750.18,354.52 752.99,353.71 755.80,354.12 758.61,354.93 761.42,352.90 764.23,353.71 767.04,353.31 769.85,353.31 772.65,354.52 775.46,352.90 778.27,352.50 781.08,352.50 783.89,353.31 786.70,352.50 789.51,353.71 792.32,354.12 795.13,352.50 797.94,352.90 800.75,352.50 803.56,352.10 806.37,351.69 809.18,352.10 811.98,354.12 814.79,352.50 817.60,352.10 820.41,352.10 823.22,349.67 826.03,349.67 828.84,350.88 831.65,351.29 834.46,350.48 837.27,352.10 840.08,350.48 842.89,350.48 845.70,350.48 848.51,350.07 851.31,348.46 854.12,351.29 856.93,349.67 859.74,351.29 862.55,349.67 865.36,348.86 868.17,348.46 870.98,348.46 873.79,347.24 876.60,348.86 879.41,346.84 882.22,348.46 885.03,348.86 887.84,346.84 890.64,349.26 893.45,348.05 896.26,349.26 899.07,349.26 901.88,350.48 904.69,352.90 907.50,349.67 910.31,348.46 913.12,345.62 915.93,344.82 918.74,344.41 921.55,342.39 924.36,341.18 927.16,341.58 929.97,339.15 932.78,338.35 935.59,337.54 938.40,336.73 941.21,335.92 944.02,337.54 946.83,338.35 949.64,337.54 952.45,337.54 955.26,337.54 958.07,333.09 960.88,333.90 963.69,335.92 966.49,336.73 969.30,335.51 972.11,332.28 974.92,331.47 977.73,331.07 980.54,331.47 983.35,331.07 986.16,331.07 988.97,331.07 991.78,331.07 994.59,331.07 997.40,331.07 1000.21,331.07 1003.02,331.07 1005.82,331.07 1008.63,331.07 1011.44,331.47 1014.25,331.88 1017.06,331.07 1019.87,331.47 1022.68,331.07 1025.49,331.47 1028.30,331.07 1031.11,324.19 1033.92,324.19 1036.73,318.93 1039.54,316.51 1042.35,310.44 1045.15,308.01 1047.96,600.00 1050.77,301.54 1053.58,290.22 1056.39,287.79 1059.20,286.18 1062.01,285.77 1064.82,285.77 1067.63,285.77 1070.44,286.18 1073.25,285.77 1076.06,285.77 1078.87,285.77 1081.68,283.35 1084.48,282.94 1087.29,282.94 1090.10,283.35 1092.91,282.94 1095.72,282.94 1098.53,283.75 1101.34,282.13 1104.15,282.13 1106.96,282.54 1109.77,282.13 1112.58,282.54 1115.39,282.94 1118.20,281.73 1121.01,282.54 1123.81,281.73 1126.62,282.54 1129.43,282.13 1132.24,282.13 1135.05,281.73 1137.86,281.73 1140.67,281.32 1143.48,281.73 1146.29,282.13 1149.10,281.32 1151.91,281.32 1154.72,282.54 1157.53,282.13 1160.34,281.32 1163.14,281.32 1165.95,281.32 1168.76,282.54 1171.57,282.13 1174.38,281.32 1177.19,282.13 1180.00,281.73"/>
<circle cx="90.00" cy="540.55" r="3.2" fill="#1d4ed8"/>
<circle cx="92.81" cy="538.53" r="3.2" fill="#1d4ed8"/>
<circle cx="95.62" cy="536.91" r="3.2" fill="#1d4ed8"/>
<circle cx="98.43" cy="534.49" r="3.2" fill="#1d4ed8"/>
<circle cx="101.24" cy="534.49" r="3.2" fill="#1d4ed8"/>
<circle cx="104.05" cy="533.27" r="3.2" fill="#1d4ed8"/>
<circle cx="106.86" cy="532.46" r="3.2" fill="#1d4ed8"/>
<circle cx="109.66" cy="532.87" r="3.2" fill="#1d4ed8"/>
<circle cx="112.47" cy="532.06" r="3.2" fill="#1d4ed8"/>
<circle cx="115.28" cy="532.46" r="3.2" fill="#1d4ed8"/>
<circle cx="118.09" cy="532.06" r="3.2" fill="#1d4ed8"/>
<circle cx="120.90" cy="568.46" r="3.2" fill="#1d4ed8"/>
<circle cx="123.71" cy="568.46" r="3.2" fill="#1d4ed8"/>
<circle cx="126.52" cy="566.43" r="3.2" fill="#1d4ed8"/>
<circle cx="129.33" cy="545.00" r="3.2" fill="#1d4ed8"/>
<circle cx="132.14" cy="545.00" r="3.2" fill="#1d4ed8"/>
<circle cx="134.95" cy="544.19" r="3.2" fill="#1d4ed8"/>
<circle cx="137.76" cy="543.79" r="3.2" fill="#1d4ed8"/>
<circle cx="140.57" cy="543.79" r="3.2" fill="#1d4ed8"/>
<circle cx="143.38" cy="543.38" r="3.2" fill="#1d4ed8"/>
<circle cx="146.19" cy="541.76" r="3.2" fill="#1d4ed8"/>
<circle cx="148.99" cy="541.36" r="3.2" fill="#1d4ed8"/>
<circle cx="151.80" cy="540.96" r="3.2" fill="#1d4ed8"/>
<circle cx="154.61" cy="540.96" r="3.2" fill="#1d4ed8"/>
<circle cx="157.42" cy="539.34" r="3.2" fill="#1d4ed8"/>
<circle cx="160.23" cy="539.34" r="3.2" fill="#1d4ed8"/>
<circle cx="163.04" cy="556.73" r="3.2" fill="#1d4ed8"/>
<circle cx="165.85" cy="556.73" r="3.2" fill="#1d4ed8"/>
<circle cx="168.66" cy="555.51" r="3.2" fill="#1d4ed8"/>
<circle cx="171.47" cy="551.07" r="3.2" fill="#1d4ed8"/>
<circle cx="174.28" cy="538.93" r="3.2" fill="#1d4ed8"/>
<circle cx="177.09" cy="538.93" r="3.2" fill="#1d4ed8"/>
<circle cx="179.90" cy="538.93" r="3.2" fill="#1d4ed8"/>
<circle cx="182.71" cy="538.12" r="3.2" fill="#1d4ed8"/>
<circle cx="185.52" cy="536.91" r="3.2" fill="#1d4ed8"/>
<circle cx="188.32" cy="536.91" r="3.2" fill="#1d4ed8"/>
<circle cx="191.13" cy="536.51" r="3.2" fill="#1d4ed8"/>
<circle cx="193.94" cy="536.51" r="3.2" fill="#1d4ed8"/>
<circle cx="196.75" cy="556.73" r="3.2" fill="#1d4ed8"/>
<circle cx="199.56" cy="556.73" r="3.2" fill="#1d4ed8"/>
<circle cx="202.37" cy="556.73" r="3.2" fill="#1d4ed8"/>
<circle cx="205.18" cy="556.73" r="3.2" fill="#1d4ed8"/>
<circle cx="207.99" cy="535.29" r="3.2" fill="#1d4ed8"/>
<circle cx="210.80" cy="535.29" r="3.2" fill="#1d4ed8"/>
<circle cx="213.61" cy="535.29" r="3.2" fill="#1d4ed8"/>
<circle cx="216.42" cy="535.29" r="3.2" fill="#1d4ed8"/>
<circle cx="219.23" cy="534.49" r="3.2" fill="#1d4ed8"/>
<circle cx="222.04" cy="534.08" r="3.2" fill="#1d4ed8"/>
<circle cx="224.85" cy="533.68" r="3.2" fill="#1d4ed8"/>
<circle cx="227.65" cy="532.87" r="3.2" fill="#1d4ed8"/>
<circle cx="230.46" cy="532.06" r="3.2" fill="#1d4ed8"/>
<circle cx="233.27" cy="532.06" r="3.2" fill="#1d4ed8"/>
<circle cx="236.08" cy="531.25" r="3.2" fill="#1d4ed8"/>
<circle cx="238.89" cy="530.85" r="3.2" fill="#1d4ed8"/>
<circle cx="241.70" cy="530.44" r="3.2" fill="#1d4ed8"/>
<circle cx="244.51" cy="530.04" r="3.2" fill="#1d4ed8"/>
<circle cx="247.32" cy="530.04" r="3.2" fill="#1d4ed8"/>
<circle cx="250.13" cy="529.23" r="3.2" fill="#1d4ed8"/>
<circle cx="252.94" cy="529.23" r="3.2" fill="#1d4ed8"/>
<circle cx="255.75" cy="529.23" r="3.2" fill="#1d4ed8"/>
<circle cx="258.56" cy="528.42" r="3.2" fill="#1d4ed8"/>
<circle cx="261.37" cy="528.42" r="3.2" fill="#1d4ed8"/>
<circle cx="264.18" cy="527.61" r="3.2" fill="#1d4ed8"/>
<circle cx="266.98" cy="527.21" r="3.2" fill="#1d4ed8"/>
<circle cx="269.79" cy="526.80" r="3.2" fill="#1d4ed8"/>
<circle cx="272.60" cy="526.40" r="3.2" fill="#1d4ed8"/>
<circle cx="275.41" cy="525.18" r="3.2" fill="#1d4ed8"/>
<circle cx="278.22" cy="523.57" r="3.2" fill="#1d4ed8"/>
<circle cx="281.03" cy="523.57" r="3.2" fill="#1d4ed8"/>
<circle cx="283.84" cy="523.16" r="3.2" fill="#1d4ed8"/>
<circle cx="286.65" cy="522.76" r="3.2" fill="#1d4ed8"/>
<circle cx="289.46" cy="522.35" r="3.2" fill="#1d4ed8"/>
<circle cx="292.27" cy="521.54" r="3.2" fill="#1d4ed8"/>
<circle cx="295.08" cy="519.52" r="3.2" fill="#1d4ed8"/>
<circle cx="297.89" cy="517.50" r="3.2" fill="#1d4ed8"/>
<circle cx="300.70" cy="517.50" r="3.2" fill="#1d4ed8"/>
<circle cx="303.51" cy="517.50" r="3.2" fill="#1d4ed8"/>
<circle cx="306.31" cy="517.50" r="3.2" fill="#1d4ed8"/>
<circle cx="309.12" cy="517.50" r="3.2" fill="#1d4ed8"/>
<circle cx="311.93" cy="517.50" r="3.2" fill="#1d4ed8"/>
<circle cx="314.74" cy="517.10" r="3.2" fill="#1d4ed8"/>
<circle cx="317.55" cy="516.69" r="3.2" fill="#1d4ed8"/>
<circle cx="320.36" cy="515.48" r="3.2" fill="#1d4ed8"/>
<circle cx="323.17" cy="515.07" r="3.2" fill="#1d4ed8"/>
<circle cx="325.98" cy="514.67" r="3.2" fill="#1d4ed8"/>
<circle cx="328.79" cy="513.86" r="3.2" fill="#1d4ed8"/>
<circle cx="331.60" cy="514.26" r="3.2" fill="#1d4ed8"/>
<circle cx="334.41" cy="512.24" r="3.2" fill="#1d4ed8"/>
<circle cx="337.22" cy="511.84" r="3.2" fill="#1d4ed8"/>
<circle cx="340.03" cy="511.84" r="3.2" fill="#1d4ed8"/>
<circle cx="342.84" cy="511.03" r="3.2" fill="#1d4ed8"/>
<circle cx="345.64" cy="509.82" r="3.2" fill="#1d4ed8"/>
<circle cx="348.45" cy="507.79" r="3.2" fill="#1d4ed8"/>
<circle cx="351.26" cy="506.99" r="3.2" fill="#1d4ed8"/>
<circle cx="354.07" cy="506.58" r="3.2" fill="#1d4ed8"/>
<circle cx="356.88" cy="509.41" r="3.2" fill="#1d4ed8"/>
<circle cx="359.69" cy="509.01" r="3.2" fill="#1d4ed8"/>
<circle cx="362.50" cy="504.96" r="3.2" fill="#1d4ed8"/>
<circle cx="365.31" cy="504.56" r="3.2" fill="#1d4ed8"/>
<circle cx="368.12" cy="504.15" r="3.2" fill="#1d4ed8"/>
<circle cx="370.93" cy="504.56" r="3.2" fill="#1d4ed8"/>
<circle cx="373.74" cy="503.75" r="3.2" fill="#1d4ed8"/>
<circle cx="376.55" cy="503.75" r="3.2" fill="#1d4ed8"/>
<circle cx="379.36" cy="503.35" r="3.2" fill="#1d4ed8"/>
<circle cx="382.16" cy="499.30" r="3.2" fill="#1d4ed8"/>
<circle cx="384.97" cy="496.47" r="3.2" fill="#1d4ed8"/>
<circle cx="387.78" cy="490.00" r="3.2" fill="#1d4ed8"/>
<circle cx="390.59" cy="484.34" r="3.2" fill="#1d4ed8"/>
<circle cx="393.40" cy="481.10" r="3.2" fill="#1d4ed8"/>
<circle cx="396.21" cy="480.29" r="3.2" fill="#1d4ed8"/>
<circle cx="399.02" cy="480.70" r="3.2" fill="#1d4ed8"/>
<circle cx="401.83" cy="460.88" r="3.2" fill="#1d4ed8"/>
<circle cx="404.64" cy="459.26" r="3.2" fill="#1d4ed8"/>
<circle cx="407.45" cy="458.05" r="3.2" fill="#1d4ed8"/>
<circle cx="410.26" cy="456.03" r="3.2" fill="#1d4ed8"/>
<circle cx="413.07" cy="456.03" r="3.2" fill="#1d4ed8"/>
<circle cx="415.88" cy="454.41" r="3.2" fill="#1d4ed8"/>
<circle cx="418.69" cy="450.77" r="3.2" fill="#1d4ed8"/>
<circle cx="421.49" cy="444.30" r="3.2" fill="#1d4ed8"/>
<circle cx="424.30" cy="443.90" r="3.2" fill="#1d4ed8"/>
<circle cx="427.11" cy="600.00" r="3.2" fill="#1d4ed8"/>
<circle cx="429.92" cy="441.88" r="3.2" fill="#1d4ed8"/>
<circle cx="432.73" cy="440.66" r="3.2" fill="#1d4ed8"/>
<circle cx="435.54" cy="439.45" r="3.2" fill="#1d4ed8"/>
<circle cx="438.35" cy="439.04" r="3.2" fill="#1d4ed8"/>
<circle cx="441.16" cy="438.64" r="3.2" fill="#1d4ed8"/>
<circle cx="443.97" cy="437.83" r="3.2" fill="#1d4ed8"/>
<circle cx="446.78" cy="436.62" r="3.2" fill="#1d4ed8"/>
<circle cx="449.59" cy="436.62" r="3.2" fill="#1d4ed8"/>
<circle cx="452.40" cy="434.60" r="3.2" fill="#1d4ed8"/>
<circle cx="455.21" cy="432.17" r="3.2" fill="#1d4ed8"/>
<circle cx="458.02" cy="429.34" r="3.2" fill="#1d4ed8"/>
<circle cx="460.82" cy="428.93" r="3.2" fill="#1d4ed8"/>
<circle cx="463.63" cy="428.53" r="3.2" fill="#1d4ed8"/>
<circle cx="466.44" cy="427.72" r="3.2" fill="#1d4ed8"/>
<circle cx="469.25" cy="426.91" r="3.2" fill="#1d4ed8"/>
<circle cx="472.06" cy="426.10" r="3.2" fill="#1d4ed8"/>
<circle cx="474.87" cy="426.10" r="3.2" fill="#1d4ed8"/>
<circle cx="477.68" cy="426.10" r="3.2" fill="#1d4ed8"/>
<circle cx="480.49" cy="419.63" r="3.2" fill="#1d4ed8"/>
<circle cx="483.30" cy="419.23" r="3.2" fill="#1d4ed8"/>
<circle cx="486.11" cy="418.42" r="3.2" fill="#1d4ed8"/>
<circle cx="488.92" cy="418.01" r="3.2" fill="#1d4ed8"/>
<circle cx="491.73" cy="417.61" r="3.2" fill="#1d4ed8"/>
<circle cx="494.54" cy="417.61" r="3.2" fill="#1d4ed8"/>
<circle cx="497.35" cy="417.61" r="3.2" fill="#1d4ed8"/>
<circle cx="500.15" cy="417.21" r="3.2" fill="#1d4ed8"/>
<circle cx="502.96" cy="417.21" r="3.2" fill="#1d4ed8"/>
<circle cx="505.77" cy="413.57" r="3.2" fill="#1d4ed8"/>
<circle cx="508.58" cy="411.95" r="3.2" fill="#1d4ed8"/>
<circle cx="511.39" cy="412.76" r="3.2" fill="#1d4ed8"/>
<circle cx="514.20" cy="410.74" r="3.2" fill="#1d4ed8"/>
<circle cx="517.01" cy="410.74" r="3.2" fill="#1d4ed8"/>
<circle cx="519.82" cy="410.33" r="3.2" fill="#1d4ed8"/>
<circle cx="522.63" cy="410.33" r="3.2" fill="#1d4ed8"/>
<circle cx="525.44" cy="410.33" r="3.2" fill="#1d4ed8"/>
<circle cx="528.25" cy="409.93" r="3.2" fill="#1d4ed8"/>
<circle cx="531.06" cy="409.93" r="3.2" fill="#1d4ed8"/>
<circle cx="533.87" cy="409.93" r="3.2" fill="#1d4ed8"/>
<circle cx="536.68" cy="409.52" r="3.2" fill="#1d4ed8"/>
<circle cx="539.48" cy="409.52" r="3.2" fill="#1d4ed8"/>
<circle cx="542.29" cy="409.12" r="3.2" fill="#1d4ed8"/>
<circle cx="545.10" cy="409.52" r="3.2" fill="#1d4ed8"/>
<circle cx="547.91" cy="409.12" r="3.2" fill="#1d4ed8"/>
<circle cx="550.72" cy="407.50" r="3.2" fill="#1d4ed8"/>
<circle cx="553.53" cy="407.10" r="3.2" fill="#1d4ed8"/>
<circle cx="556.34" cy="403.05" r="3.2" fill="#1d4ed8"/>
<circle cx="559.15" cy="399.82" r="3.2" fill="#1d4ed8"/>
<circle cx="561.96" cy="400.22" r="3.2" fill="#1d4ed8"/>
<circle cx="564.77" cy="400.62" r="3.2" fill="#1d4ed8"/>
<circle cx="567.58" cy="400.62" r="3.2" fill="#1d4ed8"/>
<circle cx="570.39" cy="399.41" r="3.2" fill="#1d4ed8"/>
<circle cx="573.20" cy="392.94" r="3.2" fill="#1d4ed8"/>
<circle cx="576.01" cy="391.32" r="3.2" fill="#1d4ed8"/>
<circle cx="578.81" cy="389.30" r="3.2" fill="#1d4ed8"/>
<circle cx="581.62" cy="389.30" r="3.2" fill="#1d4ed8"/>
<circle cx="584.43" cy="388.49" r="3.2" fill="#1d4ed8"/>
<circle cx="587.24" cy="375.15" r="3.2" fill="#1d4ed8"/>
<circle cx="590.05" cy="374.74" r="3.2" fill="#1d4ed8"/>
<circle cx="592.86" cy="374.74" r="3.2" fill="#1d4ed8"/>
<circle cx="595.67" cy="374.74" r="3.2" fill="#1d4ed8"/>
<circle cx="598.48" cy="374.74" r="3.2" fill="#1d4ed8"/>
<circle cx="601.29" cy="374.34" r="3.2" fill="#1d4ed8"/>
<circle cx="604.10" cy="374.34" r="3.2" fill="#1d4ed8"/>
<circle cx="606.91" cy="374.34" r="3.2" fill="#1d4ed8"/>
<circle cx="609.72" cy="374.34" r="3.2" fill="#1d4ed8"/>
<circle cx="612.53" cy="374.34" r="3.2" fill="#1d4ed8"/>
<circle cx="615.34" cy="373.93" r="3.2" fill="#1d4ed8"/>
<circle cx="618.14" cy="373.12" r="3.2" fill="#1d4ed8"/>
<circle cx="620.95" cy="372.72" r="3.2" fill="#1d4ed8"/>
<circle cx="623.76" cy="373.53" r="3.2" fill="#1d4ed8"/>
<circle cx="626.57" cy="435.81" r="3.2" fill="#1d4ed8"/>
<circle cx="629.38" cy="372.32" r="3.2" fill="#1d4ed8"/>
<circle cx="632.19" cy="372.72" r="3.2" fill="#1d4ed8"/>
<circle cx="635.00" cy="371.91" r="3.2" fill="#1d4ed8"/>
<circle cx="637.81" cy="371.91" r="3.2" fill="#1d4ed8"/>
<circle cx="640.62" cy="372.32" r="3.2" fill="#1d4ed8"/>
<circle cx="643.43" cy="371.10" r="3.2" fill="#1d4ed8"/>
<circle cx="646.24" cy="369.89" r="3.2" fill="#1d4ed8"/>
<circle cx="649.05" cy="369.89" r="3.2" fill="#1d4ed8"/>
<circle cx="651.86" cy="369.89" r="3.2" fill="#1d4ed8"/>
<circle cx="654.66" cy="369.49" r="3.2" fill="#1d4ed8"/>
<circle cx="657.47" cy="369.89" r="3.2" fill="#1d4ed8"/>
<circle cx="660.28" cy="369.08" r="3.2" fill="#1d4ed8"/>
<circle cx="663.09" cy="368.68" r="3.2" fill="#1d4ed8"/>
<circle cx="665.90" cy="368.27" r="3.2" fill="#1d4ed8"/>
<circle cx="668.71" cy="367.87" r="3.2" fill="#1d4ed8"/>
<circle cx="671.52" cy="367.06" r="3.2" fill="#1d4ed8"/>
<circle cx="674.33" cy="367.46" r="3.2" fill="#1d4ed8"/>
<circle cx="677.14" cy="367.06" r="3.2" fill="#1d4ed8"/>
<circle cx="679.95" cy="366.25" r="3.2" fill="#1d4ed8"/>
<circle cx="682.76" cy="368.27" r="3.2" fill="#1d4ed8"/>
<circle cx="685.57" cy="368.68" r="3.2" fill="#1d4ed8"/>
<circle cx="688.38" cy="368.68" r="3.2" fill="#1d4ed8"/>
<circle cx="691.19" cy="368.27" r="3.2" fill="#1d4ed8"/>
<circle cx="693.99" cy="369.08" r="3.2" fill="#1d4ed8"/>
<circle cx="696.80" cy="367.87" r="3.2" fill="#1d4ed8"/>
<circle cx="699.61" cy="367.46" r="3.2" fill="#1d4ed8"/>
<circle cx="702.42" cy="367.06" r="3.2" fill="#1d4ed8"/>
<circle cx="705.23" cy="360.18" r="3.2" fill="#1d4ed8"/>
<circle cx="708.04" cy="359.78" r="3.2" fill="#1d4ed8"/>
<circle cx="710.85" cy="359.38" r="3.2" fill="#1d4ed8"/>
<circle cx="713.66" cy="356.95" r="3.2" fill="#1d4ed8"/>
<circle cx="716.47" cy="357.35" r="3.2" fill="#1d4ed8"/>
<circle cx="719.28" cy="357.76" r="3.2" fill="#1d4ed8"/>
<circle cx="722.09" cy="355.33" r="3.2" fill="#1d4ed8"/>
<circle cx="724.90" cy="355.74" r="3.2" fill="#1d4ed8"/>
<circle cx="727.71" cy="357.35" r="3.2" fill="#1d4ed8"/>
<circle cx="730.52" cy="355.33" r="3.2" fill="#1d4ed8"/>
<circle cx="733.32" cy="356.14" r="3.2" fill="#1d4ed8"/>
<circle cx="736.13" cy="355.74" r="3.2" fill="#1d4ed8"/>
<circle cx="738.94" cy="356.14" r="3.2" fill="#1d4ed8"/>
<circle cx="741.75" cy="354.12" r="3.2" fill="#1d4ed8"/>
<circle cx="744.56" cy="354.93" r="3.2" fill="#1d4ed8"/>
<circle cx="747.37" cy="356.14" r="3.2" fill="#1d4ed8"/>
<circle cx="750.18" cy="354.52" r="3.2" fill="#1d4ed8"/>
<circle cx="752.99" cy="353.71" r="3.2" fill="#1d4ed8"/>
<circle cx="755.80" cy="354.12" r="3.2" fill="#1d4ed8"/>
<circle cx="758.61" cy="354.93" r="3.2" fill="#1d4ed8"/>
<circle cx="761.42" cy="352.90" r="3.2" fill="#1d4ed8"/>
<circle cx="764.23" cy="353.71" r="3.2" fill="#1d4ed8"/>
<circle cx="767.04" cy="353.31" r="3.2" fill="#1d4ed8"/>
<circle cx="769.85" cy="353.31" r="3.2" fill="#1d4ed8"/>
<circle cx="772.65" cy="354.52" r="3.2" fill="#1d4ed8"/>
<circle cx="775.46" cy="352.90" r="3.2" fill="#1d4ed8"/>
<circle cx="778.27" cy="352.50" r="3.2" fill="#1d4ed8"/>
<circle cx="781.08" cy="352.50" r="3.2" fill="#1d4ed8"/>
<circle cx="783.89" cy="353.31" r="3.2" fill="#1d4ed8"/>
<circle cx="786.70" cy="352.50" r="3.2" fill="#1d4ed8"/>
<circle cx="789.51" cy="353.71" r="3.2" fill="#1d4ed8"/>
<circle cx="792.32" cy="354.12" r="3.2" fill="#1d4ed8"/>
<circle cx="795.13" cy="352.50" r="3.2" fill="#1d4ed8"/>
<circle cx="797.94" cy="352.90" r="3.2" fill="#1d4ed8"/>
<circle cx="800.75" cy="352.50" r="3.2" fill="#1d4ed8"/>
<circle cx="803.56" cy="352.10" r="3.2" fill="#1d4ed8"/>
<circle cx="806.37" cy="351.69" r="3.2" fill="#1d4ed8"/>
<circle cx="809.18" cy="352.10" r="3.2" fill="#1d4ed8"/>
<circle cx="811.98" cy="354.12" r="3.2" fill="#1d4ed8"/>
<circle cx="814.79" cy="352.50" r="3.2" fill="#1d4ed8"/>
<circle cx="817.60" cy="352.10" r="3.2" fill="#1d4ed8"/>
<circle cx="820.41" cy="352.10" r="3.2" fill="#1d4ed8"/>
<circle cx="823.22" cy="349.67" r="3.2" fill="#1d4ed8"/>
<circle cx="826.03" cy="349.67" r="3.2" fill="#1d4ed8"/>
<circle cx="828.84" cy="350.88" r="3.2" fill="#1d4ed8"/>
<circle cx="831.65" cy="351.29" r="3.2" fill="#1d4ed8"/>
<circle cx="834.46" cy="350.48" r="3.2" fill="#1d4ed8"/>
<circle cx="837.27" cy="352.10" r="3.2" fill="#1d4ed8"/>
<circle cx="840.08" cy="350.48" r="3.2" fill="#1d4ed8"/>
<circle cx="842.89" cy="350.48" r="3.2" fill="#1d4ed8"/>
<circle cx="845.70" cy="350.48" r="3.2" fill="#1d4ed8"/>
<circle cx="848.51" cy="350.07" r="3.2" fill="#1d4ed8"/>
<circle cx="851.31" cy="348.46" r="3.2" fill="#1d4ed8"/>
<circle cx="854.12" cy="351.29" r="3.2" fill="#1d4ed8"/>
<circle cx="856.93" cy="349.67" r="3.2" fill="#1d4ed8"/>
<circle cx="859.74" cy="351.29" r="3.2" fill="#1d4ed8"/>
<circle cx="862.55" cy="349.67" r="3.2" fill="#1d4ed8"/>
<circle cx="865.36" cy="348.86" r="3.2" fill="#1d4ed8"/>
<circle cx="868.17" cy="348.46" r="3.2" fill="#1d4ed8"/>
<circle cx="870.98" cy="348.46" r="3.2" fill="#1d4ed8"/>
<circle cx="873.79" cy="347.24" r="3.2" fill="#1d4ed8"/>
<circle cx="876.60" cy="348.86" r="3.2" fill="#1d4ed8"/>
<circle cx="879.41" cy="346.84" r="3.2" fill="#1d4ed8"/>
<circle cx="882.22" cy="348.46" r="3.2" fill="#1d4ed8"/>
<circle cx="885.03" cy="348.86" r="3.2" fill="#1d4ed8"/>
<circle cx="887.84" cy="346.84" r="3.2" fill="#1d4ed8"/>
<circle cx="890.64" cy="349.26" r="3.2" fill="#1d4ed8"/>
<circle cx="893.45" cy="348.05" r="3.2" fill="#1d4ed8"/>
<circle cx="896.26" cy="349.26" r="3.2" fill="#1d4ed8"/>
<circle cx="899.07" cy="349.26" r="3.2" fill="#1d4ed8"/>
<circle cx="901.88" cy="350.48" r="3.2" fill="#1d4ed8"/>
<circle cx="904.69" cy="352.90" r="3.2" fill="#1d4ed8"/>
<circle cx="907.50" cy="349.67" r="3.2" fill="#1d4ed8"/>
<circle cx="910.31" cy="348.46" r="3.2" fill="#1d4ed8"/>
<circle cx="913.12" cy="345.62" r="3.2" fill="#1d4ed8"/>
<circle cx="915.93" cy="344.82" r="3.2" fill="#1d4ed8"/>
<circle cx="918.74" cy="344.41" r="3.2" fill="#1d4ed8"/>
<circle cx="921.55" cy="342.39" r="3.2" fill="#1d4ed8"/>
<circle cx="924.36" cy="341.18" r="3.2" fill="#1d4ed8"/>
<circle cx="927.16" cy="341.58" r="3.2" fill="#1d4ed8"/>
<circle cx="929.97" cy="339.15" r="3.2" fill="#1d4ed8"/>
<circle cx="932.78" cy="338.35" r="3.2" fill="#1d4ed8"/>
<circle cx="935.59" cy="337.54" r="3.2" fill="#1d4ed8"/>
<circle cx="938.40" cy="336.73" r="3.2" fill="#1d4ed8"/>
<circle cx="941.21" cy="335.92" r="3.2" fill="#1d4ed8"/>
<circle cx="944.02" cy="337.54" r="3.2" fill="#1d4ed8"/>
<circle cx="946.83" cy="338.35" r="3.2" fill="#1d4ed8"/>
<circle cx="949.64" cy="337.54" r="3.2" fill="#1d4ed8"/>
<circle cx="952.45" cy="337.54" r="3.2" fill="#1d4ed8"/>
<circle cx="955.26" cy="337.54" r="3.2" fill="#1d4ed8"/>
<circle cx="958.07" cy="333.09" r="3.2" fill="#1d4ed8"/>
<circle cx="960.88" cy="333.90" r="3.2" fill="#1d4ed8"/>
<circle cx="963.69" cy="335.92" r="3.2" fill="#1d4ed8"/>
<circle cx="966.49" cy="336.73" r="3.2" fill="#1d4ed8"/>
<circle cx="969.30" cy="335.51" r="3.2" fill="#1d4ed8"/>
<circle cx="972.11" cy="332.28" r="3.2" fill="#1d4ed8"/>
<circle cx="974.92" cy="331.47" r="3.2" fill="#1d4ed8"/>
<circle cx="977.73" cy="331.07" r="3.2" fill="#1d4ed8"/>
<circle cx="980.54" cy="331.47" r="3.2" fill="#1d4ed8"/>
<circle cx="983.35" cy="331.07" r="3.2" fill="#1d4ed8"/>
<circle cx="986.16" cy="331.07" r="3.2" fill="#1d4ed8"/>
<circle cx="988.97" cy="331.07" r="3.2" fill="#1d4ed8"/>
<circle cx="991.78" cy="331.07" r="3.2" fill="#1d4ed8"/>
<circle cx="994.59" cy="331.07" r="3.2" fill="#1d4ed8"/>
<circle cx="997.40" cy="331.07" r="3.2" fill="#1d4ed8"/>
<circle cx="1000.21" cy="331.07" r="3.2" fill="#1d4ed8"/>
<circle cx="1003.02" cy="331.07" r="3.2" fill="#1d4ed8"/>
<circle cx="1005.82" cy="331.07" r="3.2" fill="#1d4ed8"/>
<circle cx="1008.63" cy="331.07" r="3.2" fill="#1d4ed8"/>
<circle cx="1011.44" cy="331.47" r="3.2" fill="#1d4ed8"/>
<circle cx="1014.25" cy="331.88" r="3.2" fill="#1d4ed8"/>
<circle cx="1017.06" cy="331.07" r="3.2" fill="#1d4ed8"/>
<circle cx="1019.87" cy="331.47" r="3.2" fill="#1d4ed8"/>
<circle cx="1022.68" cy="331.07" r="3.2" fill="#1d4ed8"/>
<circle cx="1025.49" cy="331.47" r="3.2" fill="#1d4ed8"/>
<circle cx="1028.30" cy="331.07" r="3.2" fill="#1d4ed8"/>
<circle cx="1031.11" cy="324.19" r="3.2" fill="#1d4ed8"/>
<circle cx="1033.92" cy="324.19" r="3.2" fill="#1d4ed8"/>
<circle cx="1036.73" cy="318.93" r="3.2" fill="#1d4ed8"/>
<circle cx="1039.54" cy="316.51" r="3.2" fill="#1d4ed8"/>
<circle cx="1042.35" cy="310.44" r="3.2" fill="#1d4ed8"/>
<circle cx="1045.15" cy="308.01" r="3.2" fill="#1d4ed8"/>
<circle cx="1047.96" cy="600.00" r="3.2" fill="#1d4ed8"/>
<circle cx="1050.77" cy="301.54" r="3.2" fill="#1d4ed8"/>
<circle cx="1053.58" cy="290.22" r="3.2" fill="#1d4ed8"/>
<circle cx="1056.39" cy="287.79" r="3.2" fill="#1d4ed8"/>
<circle cx="1059.20" cy="286.18" r="3.2" fill="#1d4ed8"/>
<circle cx="1062.01" cy="285.77" r="3.2" fill="#1d4ed8"/>
<circle cx="1064.82" cy="285.77" r="3.2" fill="#1d4ed8"/>
<circle cx="1067.63" cy="285.77" r="3.2" fill="#1d4ed8"/>
<circle cx="1070.44" cy="286.18" r="3.2" fill="#1d4ed8"/>
<circle cx="1073.25" cy="285.77" r="3.2" fill="#1d4ed8"/>
<circle cx="1076.06" cy="285.77" r="3.2" fill="#1d4ed8"/>
<circle cx="1078.87" cy="285.77" r="3.2" fill="#1d4ed8"/>
<circle cx="1081.68" cy="283.35" r="3.2" fill="#1d4ed8"/>
<circle cx="1084.48" cy="282.94" r="3.2" fill="#1d4ed8"/>
<circle cx="1087.29" cy="282.94" r="3.2" fill="#1d4ed8"/>
<circle cx="1090.10" cy="283.35" r="3.2" fill="#1d4ed8"/>
<circle cx="1092.91" cy="282.94" r="3.2" fill="#1d4ed8"/>
<circle cx="1095.72" cy="282.94" r="3.2" fill="#1d4ed8"/>
<circle cx="1098.53" cy="283.75" r="3.2" fill="#1d4ed8"/>
<circle cx="1101.34" cy="282.13" r="3.2" fill="#1d4ed8"/>
<circle cx="1104.15" cy="282.13" r="3.2" fill="#1d4ed8"/>
<circle cx="1106.96" cy="282.54" r="3.2" fill="#1d4ed8"/>
<circle cx="1109.77" cy="282.13" r="3.2" fill="#1d4ed8"/>
<circle cx="1112.58" cy="282.54" r="3.2" fill="#1d4ed8"/>
<circle cx="1115.39" cy="282.94" r="3.2" fill="#1d4ed8"/>
<circle cx="1118.20" cy="281.73" r="3.2" fill="#1d4ed8"/>
<circle cx="1121.01" cy="282.54" r="3.2" fill="#1d4ed8"/>
<circle cx="1123.81" cy="281.73" r="3.2" fill="#1d4ed8"/>
<circle cx="1126.62" cy="282.54" r="3.2" fill="#1d4ed8"/>
<circle cx="1129.43" cy="282.13" r="3.2" fill="#1d4ed8"/>
<circle cx="1132.24" cy="282.13" r="3.2" fill="#1d4ed8"/>
<circle cx="1135.05" cy="281.73" r="3.2" fill="#1d4ed8"/>
<circle cx="1137.86" cy="281.73" r="3.2" fill="#1d4ed8"/>
<circle cx="1140.67" cy="281.32" r="3.2" fill="#1d4ed8"/>
<circle cx="1143.48" cy="281.73" r="3.2" fill="#1d4ed8"/>
<circle cx="1146.29" cy="282.13" r="3.2" fill="#1d4ed8"/>
<circle cx="1149.10" cy="281.32" r="3.2" fill="#1d4ed8"/>
<circle cx="1151.91" cy="281.32" r="3.2" fill="#1d4ed8"/>
<circle cx="1154.72" cy="282.54" r="3.2" fill="#1d4ed8"/>
<circle cx="1157.53" cy="282.13" r="3.2" fill="#1d4ed8"/>
<circle cx="1160.34" cy="281.32" r="3.2" fill="#1d4ed8"/>
<circle cx="1163.14" cy="281.32" r="3.2" fill="#1d4ed8"/>
<circle cx="1165.95" cy="281.32" r="3.2" fill="#1d4ed8"/>
<circle cx="1168.76" cy="282.54" r="3.2" fill="#1d4ed8"/>
<circle cx="1171.57" cy="282.13" r="3.2" fill="#1d4ed8"/>
<circle cx="1174.38" cy="281.32" r="3.2" fill="#1d4ed8"/>
<circle cx="1177.19" cy="282.13" r="3.2" fill="#1d4ed8"/>
<circle cx="1180.00" cy="281.73" r="3.2" fill="#1d4ed8"/>
<text x="635" y="695" text-anchor="middle" font-size="14" fill="#111" font-family="sans-serif">Date</text>
<text x="24" y="325" text-anchor="middle" font-size="14" fill="#111" transform="rotate(-90 24,325)" font-family="sans-serif">Passed files</text>
</svg>
