<?xml version="1.0" encoding="UTF-8"?>
<svg xmlns="http://www.w3.org/2000/svg" width="1280" height="720" viewBox="0 0 1280 720">
<rect width="100%" height="100%" fill="#ffffff"/>
<text x="640" y="30" text-anchor="middle" font-size="22" font-family="sans-serif">Roast passed files history</text>
<line x1="90" y1="600" x2="1180" y2="600" stroke="#333" stroke-width="1.5"/>
<line x1="90" y1="50" x2="90" y2="600" stroke="#333" stroke-width="1.5"/>
<line x1="90" y1="600.00" x2="1180" y2="600.00" stroke="#e5e7eb" stroke-width="1"/>
<text x="78" y="605.00" text-anchor="end" font-size="12" fill="#111" font-family="sans-serif">0</text>
<line x1="90" y1="397.79" x2="1180" y2="397.79" stroke="#e5e7eb" stroke-width="1"/>
<text x="78" y="402.79" text-anchor="end" font-size="12" fill="#111" font-family="sans-serif">500</text>
<line x1="90" y1="195.59" x2="1180" y2="195.59" stroke="#e5e7eb" stroke-width="1"/>
<text x="78" y="200.59" text-anchor="end" font-size="12" fill="#111" font-family="sans-serif">1000</text>
<line x1="90.00" y1="600" x2="90.00" y2="606" stroke="#333" stroke-width="1"/>
<text x="90.00" y="624" text-anchor="end" font-size="11" fill="#111" transform="rotate(-40 90.00,624)" font-family="sans-serif">2026-02-12</text>
<line x1="224.72" y1="600" x2="224.72" y2="606" stroke="#333" stroke-width="1"/>
<text x="224.72" y="624" text-anchor="end" font-size="11" fill="#111" transform="rotate(-40 224.72,624)" font-family="sans-serif">2026-02-15</text>
<line x1="359.44" y1="600" x2="359.44" y2="606" stroke="#333" stroke-width="1"/>
<text x="359.44" y="624" text-anchor="end" font-size="11" fill="#111" transform="rotate(-40 359.44,624)" font-family="sans-serif">2026-02-17</text>
<line x1="494.16" y1="600" x2="494.16" y2="606" stroke="#333" stroke-width="1"/>
<text x="494.16" y="624" text-anchor="end" font-size="11" fill="#111" transform="rotate(-40 494.16,624)" font-family="sans-serif">2026-02-19</text>
<line x1="628.88" y1="600" x2="628.88" y2="606" stroke="#333" stroke-width="1"/>
<text x="628.88" y="624" text-anchor="end" font-size="11" fill="#111" transform="rotate(-40 628.88,624)" font-family="sans-serif">2026-02-21</text>
<line x1="763.60" y1="600" x2="763.60" y2="606" stroke="#333" stroke-width="1"/>
<text x="763.60" y="624" text-anchor="end" font-size="11" fill="#111" transform="rotate(-40 763.60,624)" font-family="sans-serif">2026-02-24</text>
<line x1="898.31" y1="600" x2="898.31" y2="606" stroke="#333" stroke-width="1"/>
<text x="898.31" y="624" text-anchor="end" font-size="11" fill="#111" transform="rotate(-40 898.31,624)" font-family="sans-serif">2026-02-25</text>
<line x1="1033.03" y1="600" x2="1033.03" y2="606" stroke="#333" stroke-width="1"/>
<text x="1033.03" y="624" text-anchor="end" font-size="11" fill="#111" transform="rotate(-40 1033.03,624)" font-family="sans-serif">2026-02-26</text>
<line x1="1167.75" y1="600" x2="1167.75" y2="606" stroke="#333" stroke-width="1"/>
<text x="1167.75" y="624" text-anchor="end" font-size="11" fill="#111" transform="rotate(-40 1167.75,624)" font-family="sans-serif">2026-02-28</text>
<line x1="1180.00" y1="600" x2="1180.00" y2="606" stroke="#333" stroke-width="1"/>
<text x="1180.00" y="624" text-anchor="end" font-size="11" fill="#111" transform="rotate(-40 1180.00,624)" font-family="sans-serif">2026-02-28</text>
<line x1="90" y1="75.88" x2="1180" y2="75.88" stroke="#dc2626" stroke-width="1.5" stroke-dasharray="8,4"/>
<text x="1184" y="79.88" font-size="12" fill="#dc2626" font-family="sans-serif">Goal: 1296</text>
<polyline fill="none" stroke="#2563eb" stroke-width="3" points="90.00,540.55 96.12,538.53 102.25,536.91 108.37,534.49 114.49,534.49 120.62,533.27 126.74,532.46 132.87,532.87 138.99,532.06 145.11,532.46 151.24,532.06 157.36,568.46 163.48,568.46 169.61,566.43 175.73,545.00 181.85,545.00 187.98,544.19 194.10,543.79 200.22,543.79 206.35,543.38 212.47,541.76 218.60,541.36 224.72,540.96 230.84,540.96 236.97,539.34 243.09,539.34 249.21,556.73 255.34,556.73 261.46,555.51 267.58,551.07 273.71,538.93 279.83,538.93 285.96,538.93 292.08,538.12 298.20,536.91 304.33,536.91 310.45,536.51 316.57,536.51 322.70,556.73 328.82,556.73 334.94,556.73 341.07,556.73 347.19,535.29 353.31,535.29 359.44,535.29 365.56,535.29 371.69,534.49 377.81,534.08 383.93,533.68 390.06,532.87 396.18,532.06 402.30,532.06 408.43,531.25 414.55,530.85 420.67,530.44 426.80,530.04 432.92,530.04 439.04,529.23 445.17,529.23 451.29,529.23 457.42,528.42 463.54,528.42 469.66,527.61 475.79,527.21 481.91,526.80 488.03,526.40 494.16,525.18 500.28,523.57 506.40,523.57 512.53,523.16 518.65,522.76 524.78,522.35 530.90,521.54 537.02,519.52 543.15,517.50 549.27,517.50 555.39,517.50 561.52,517.50 567.64,517.50 573.76,517.50 579.89,517.10 586.01,516.69 592.13,515.48 598.26,515.07 604.38,514.67 610.51,513.86 616.63,514.26 622.75,512.24 628.88,511.84 635.00,511.84 641.12,511.03 647.25,509.82 653.37,507.79 659.49,506.99 665.62,506.58 671.74,509.41 677.87,509.01 683.99,504.96 690.11,504.56 696.24,504.15 702.36,504.56 708.48,503.75 714.61,503.75 720.73,503.35 726.85,499.30 732.98,496.47 739.10,490.00 745.22,484.34 751.35,481.10 757.47,480.29 763.60,480.70 769.72,460.88 775.84,459.26 781.97,458.05 788.09,456.03 794.21,456.03 800.34,454.41 806.46,450.77 812.58,444.30 818.71,443.90 824.83,600.00 830.96,441.88 837.08,440.66 843.20,439.45 849.33,439.04 855.45,438.64 861.57,437.83 867.70,436.62 873.82,436.62 879.94,434.60 886.07,432.17 892.19,429.34 898.31,428.93 904.44,428.53 910.56,427.72 916.69,426.91 922.81,426.10 928.93,426.10 935.06,426.10 941.18,419.63 947.30,419.23 953.43,418.42 959.55,418.01 965.67,417.61 971.80,417.61 977.92,417.61 984.04,417.21 990.17,417.21 996.29,413.57 1002.42,411.95 1008.54,412.76 1014.66,410.74 1020.79,410.74 1026.91,410.33 1033.03,410.33 1039.16,410.33 1045.28,409.93 1051.40,409.93 1057.53,409.93 1063.65,409.52 1069.78,409.52 1075.90,409.12 1082.02,409.52 1088.15,409.12 1094.27,407.50 1100.39,407.10 1106.52,403.05 1112.64,399.82 1118.76,400.22 1124.89,400.62 1131.01,400.62 1137.13,399.41 1143.26,392.94 1149.38,391.32 1155.51,389.30 1161.63,389.30 1167.75,388.49 1173.88,375.15 1180.00,374.74"/>
<circle cx="90.00" cy="540.55" r="3.2" fill="#1d4ed8"/>
<circle cx="96.12" cy="538.53" r="3.2" fill="#1d4ed8"/>
<circle cx="102.25" cy="536.91" r="3.2" fill="#1d4ed8"/>
<circle cx="108.37" cy="534.49" r="3.2" fill="#1d4ed8"/>
<circle cx="114.49" cy="534.49" r="3.2" fill="#1d4ed8"/>
<circle cx="120.62" cy="533.27" r="3.2" fill="#1d4ed8"/>
<circle cx="126.74" cy="532.46" r="3.2" fill="#1d4ed8"/>
<circle cx="132.87" cy="532.87" r="3.2" fill="#1d4ed8"/>
<circle cx="138.99" cy="532.06" r="3.2" fill="#1d4ed8"/>
<circle cx="145.11" cy="532.46" r="3.2" fill="#1d4ed8"/>
<circle cx="151.24" cy="532.06" r="3.2" fill="#1d4ed8"/>
<circle cx="157.36" cy="568.46" r="3.2" fill="#1d4ed8"/>
<circle cx="163.48" cy="568.46" r="3.2" fill="#1d4ed8"/>
<circle cx="169.61" cy="566.43" r="3.2" fill="#1d4ed8"/>
<circle cx="175.73" cy="545.00" r="3.2" fill="#1d4ed8"/>
<circle cx="181.85" cy="545.00" r="3.2" fill="#1d4ed8"/>
<circle cx="187.98" cy="544.19" r="3.2" fill="#1d4ed8"/>
<circle cx="194.10" cy="543.79" r="3.2" fill="#1d4ed8"/>
<circle cx="200.22" cy="543.79" r="3.2" fill="#1d4ed8"/>
<circle cx="206.35" cy="543.38" r="3.2" fill="#1d4ed8"/>
<circle cx="212.47" cy="541.76" r="3.2" fill="#1d4ed8"/>
<circle cx="218.60" cy="541.36" r="3.2" fill="#1d4ed8"/>
<circle cx="224.72" cy="540.96" r="3.2" fill="#1d4ed8"/>
<circle cx="230.84" cy="540.96" r="3.2" fill="#1d4ed8"/>
<circle cx="236.97" cy="539.34" r="3.2" fill="#1d4ed8"/>
<circle cx="243.09" cy="539.34" r="3.2" fill="#1d4ed8"/>
<circle cx="249.21" cy="556.73" r="3.2" fill="#1d4ed8"/>
<circle cx="255.34" cy="556.73" r="3.2" fill="#1d4ed8"/>
<circle cx="261.46" cy="555.51" r="3.2" fill="#1d4ed8"/>
<circle cx="267.58" cy="551.07" r="3.2" fill="#1d4ed8"/>
<circle cx="273.71" cy="538.93" r="3.2" fill="#1d4ed8"/>
<circle cx="279.83" cy="538.93" r="3.2" fill="#1d4ed8"/>
<circle cx="285.96" cy="538.93" r="3.2" fill="#1d4ed8"/>
<circle cx="292.08" cy="538.12" r="3.2" fill="#1d4ed8"/>
<circle cx="298.20" cy="536.91" r="3.2" fill="#1d4ed8"/>
<circle cx="304.33" cy="536.91" r="3.2" fill="#1d4ed8"/>
<circle cx="310.45" cy="536.51" r="3.2" fill="#1d4ed8"/>
<circle cx="316.57" cy="536.51" r="3.2" fill="#1d4ed8"/>
<circle cx="322.70" cy="556.73" r="3.2" fill="#1d4ed8"/>
<circle cx="328.82" cy="556.73" r="3.2" fill="#1d4ed8"/>
<circle cx="334.94" cy="556.73" r="3.2" fill="#1d4ed8"/>
<circle cx="341.07" cy="556.73" r="3.2" fill="#1d4ed8"/>
<circle cx="347.19" cy="535.29" r="3.2" fill="#1d4ed8"/>
<circle cx="353.31" cy="535.29" r="3.2" fill="#1d4ed8"/>
<circle cx="359.44" cy="535.29" r="3.2" fill="#1d4ed8"/>
<circle cx="365.56" cy="535.29" r="3.2" fill="#1d4ed8"/>
<circle cx="371.69" cy="534.49" r="3.2" fill="#1d4ed8"/>
<circle cx="377.81" cy="534.08" r="3.2" fill="#1d4ed8"/>
<circle cx="383.93" cy="533.68" r="3.2" fill="#1d4ed8"/>
<circle cx="390.06" cy="532.87" r="3.2" fill="#1d4ed8"/>
<circle cx="396.18" cy="532.06" r="3.2" fill="#1d4ed8"/>
<circle cx="402.30" cy="532.06" r="3.2" fill="#1d4ed8"/>
<circle cx="408.43" cy="531.25" r="3.2" fill="#1d4ed8"/>
<circle cx="414.55" cy="530.85" r="3.2" fill="#1d4ed8"/>
<circle cx="420.67" cy="530.44" r="3.2" fill="#1d4ed8"/>
<circle cx="426.80" cy="530.04" r="3.2" fill="#1d4ed8"/>
<circle cx="432.92" cy="530.04" r="3.2" fill="#1d4ed8"/>
<circle cx="439.04" cy="529.23" r="3.2" fill="#1d4ed8"/>
<circle cx="445.17" cy="529.23" r="3.2" fill="#1d4ed8"/>
<circle cx="451.29" cy="529.23" r="3.2" fill="#1d4ed8"/>
<circle cx="457.42" cy="528.42" r="3.2" fill="#1d4ed8"/>
<circle cx="463.54" cy="528.42" r="3.2" fill="#1d4ed8"/>
<circle cx="469.66" cy="527.61" r="3.2" fill="#1d4ed8"/>
<circle cx="475.79" cy="527.21" r="3.2" fill="#1d4ed8"/>
<circle cx="481.91" cy="526.80" r="3.2" fill="#1d4ed8"/>
<circle cx="488.03" cy="526.40" r="3.2" fill="#1d4ed8"/>
<circle cx="494.16" cy="525.18" r="3.2" fill="#1d4ed8"/>
<circle cx="500.28" cy="523.57" r="3.2" fill="#1d4ed8"/>
<circle cx="506.40" cy="523.57" r="3.2" fill="#1d4ed8"/>
<circle cx="512.53" cy="523.16" r="3.2" fill="#1d4ed8"/>
<circle cx="518.65" cy="522.76" r="3.2" fill="#1d4ed8"/>
<circle cx="524.78" cy="522.35" r="3.2" fill="#1d4ed8"/>
<circle cx="530.90" cy="521.54" r="3.2" fill="#1d4ed8"/>
<circle cx="537.02" cy="519.52" r="3.2" fill="#1d4ed8"/>
<circle cx="543.15" cy="517.50" r="3.2" fill="#1d4ed8"/>
<circle cx="549.27" cy="517.50" r="3.2" fill="#1d4ed8"/>
<circle cx="555.39" cy="517.50" r="3.2" fill="#1d4ed8"/>
<circle cx="561.52" cy="517.50" r="3.2" fill="#1d4ed8"/>
<circle cx="567.64" cy="517.50" r="3.2" fill="#1d4ed8"/>
<circle cx="573.76" cy="517.50" r="3.2" fill="#1d4ed8"/>
<circle cx="579.89" cy="517.10" r="3.2" fill="#1d4ed8"/>
<circle cx="586.01" cy="516.69" r="3.2" fill="#1d4ed8"/>
<circle cx="592.13" cy="515.48" r="3.2" fill="#1d4ed8"/>
<circle cx="598.26" cy="515.07" r="3.2" fill="#1d4ed8"/>
<circle cx="604.38" cy="514.67" r="3.2" fill="#1d4ed8"/>
<circle cx="610.51" cy="513.86" r="3.2" fill="#1d4ed8"/>
<circle cx="616.63" cy="514.26" r="3.2" fill="#1d4ed8"/>
<circle cx="622.75" cy="512.24" r="3.2" fill="#1d4ed8"/>
<circle cx="628.88" cy="511.84" r="3.2" fill="#1d4ed8"/>
<circle cx="635.00" cy="511.84" r="3.2" fill="#1d4ed8"/>
<circle cx="641.12" cy="511.03" r="3.2" fill="#1d4ed8"/>
<circle cx="647.25" cy="509.82" r="3.2" fill="#1d4ed8"/>
<circle cx="653.37" cy="507.79" r="3.2" fill="#1d4ed8"/>
<circle cx="659.49" cy="506.99" r="3.2" fill="#1d4ed8"/>
<circle cx="665.62" cy="506.58" r="3.2" fill="#1d4ed8"/>
<circle cx="671.74" cy="509.41" r="3.2" fill="#1d4ed8"/>
<circle cx="677.87" cy="509.01" r="3.2" fill="#1d4ed8"/>
<circle cx="683.99" cy="504.96" r="3.2" fill="#1d4ed8"/>
<circle cx="690.11" cy="504.56" r="3.2" fill="#1d4ed8"/>
<circle cx="696.24" cy="504.15" r="3.2" fill="#1d4ed8"/>
<circle cx="702.36" cy="504.56" r="3.2" fill="#1d4ed8"/>
<circle cx="708.48" cy="503.75" r="3.2" fill="#1d4ed8"/>
<circle cx="714.61" cy="503.75" r="3.2" fill="#1d4ed8"/>
<circle cx="720.73" cy="503.35" r="3.2" fill="#1d4ed8"/>
<circle cx="726.85" cy="499.30" r="3.2" fill="#1d4ed8"/>
<circle cx="732.98" cy="496.47" r="3.2" fill="#1d4ed8"/>
<circle cx="739.10" cy="490.00" r="3.2" fill="#1d4ed8"/>
<circle cx="745.22" cy="484.34" r="3.2" fill="#1d4ed8"/>
<circle cx="751.35" cy="481.10" r="3.2" fill="#1d4ed8"/>
<circle cx="757.47" cy="480.29" r="3.2" fill="#1d4ed8"/>
<circle cx="763.60" cy="480.70" r="3.2" fill="#1d4ed8"/>
<circle cx="769.72" cy="460.88" r="3.2" fill="#1d4ed8"/>
<circle cx="775.84" cy="459.26" r="3.2" fill="#1d4ed8"/>
<circle cx="781.97" cy="458.05" r="3.2" fill="#1d4ed8"/>
<circle cx="788.09" cy="456.03" r="3.2" fill="#1d4ed8"/>
<circle cx="794.21" cy="456.03" r="3.2" fill="#1d4ed8"/>
<circle cx="800.34" cy="454.41" r="3.2" fill="#1d4ed8"/>
<circle cx="806.46" cy="450.77" r="3.2" fill="#1d4ed8"/>
<circle cx="812.58" cy="444.30" r="3.2" fill="#1d4ed8"/>
<circle cx="818.71" cy="443.90" r="3.2" fill="#1d4ed8"/>
<circle cx="824.83" cy="600.00" r="3.2" fill="#1d4ed8"/>
<circle cx="830.96" cy="441.88" r="3.2" fill="#1d4ed8"/>
<circle cx="837.08" cy="440.66" r="3.2" fill="#1d4ed8"/>
<circle cx="843.20" cy="439.45" r="3.2" fill="#1d4ed8"/>
<circle cx="849.33" cy="439.04" r="3.2" fill="#1d4ed8"/>
<circle cx="855.45" cy="438.64" r="3.2" fill="#1d4ed8"/>
<circle cx="861.57" cy="437.83" r="3.2" fill="#1d4ed8"/>
<circle cx="867.70" cy="436.62" r="3.2" fill="#1d4ed8"/>
<circle cx="873.82" cy="436.62" r="3.2" fill="#1d4ed8"/>
<circle cx="879.94" cy="434.60" r="3.2" fill="#1d4ed8"/>
<circle cx="886.07" cy="432.17" r="3.2" fill="#1d4ed8"/>
<circle cx="892.19" cy="429.34" r="3.2" fill="#1d4ed8"/>
<circle cx="898.31" cy="428.93" r="3.2" fill="#1d4ed8"/>
<circle cx="904.44" cy="428.53" r="3.2" fill="#1d4ed8"/>
<circle cx="910.56" cy="427.72" r="3.2" fill="#1d4ed8"/>
<circle cx="916.69" cy="426.91" r="3.2" fill="#1d4ed8"/>
<circle cx="922.81" cy="426.10" r="3.2" fill="#1d4ed8"/>
<circle cx="928.93" cy="426.10" r="3.2" fill="#1d4ed8"/>
<circle cx="935.06" cy="426.10" r="3.2" fill="#1d4ed8"/>
<circle cx="941.18" cy="419.63" r="3.2" fill="#1d4ed8"/>
<circle cx="947.30" cy="419.23" r="3.2" fill="#1d4ed8"/>
<circle cx="953.43" cy="418.42" r="3.2" fill="#1d4ed8"/>
<circle cx="959.55" cy="418.01" r="3.2" fill="#1d4ed8"/>
<circle cx="965.67" cy="417.61" r="3.2" fill="#1d4ed8"/>
<circle cx="971.80" cy="417.61" r="3.2" fill="#1d4ed8"/>
<circle cx="977.92" cy="417.61" r="3.2" fill="#1d4ed8"/>
<circle cx="984.04" cy="417.21" r="3.2" fill="#1d4ed8"/>
<circle cx="990.17" cy="417.21" r="3.2" fill="#1d4ed8"/>
<circle cx="996.29" cy="413.57" r="3.2" fill="#1d4ed8"/>
<circle cx="1002.42" cy="411.95" r="3.2" fill="#1d4ed8"/>
<circle cx="1008.54" cy="412.76" r="3.2" fill="#1d4ed8"/>
<circle cx="1014.66" cy="410.74" r="3.2" fill="#1d4ed8"/>
<circle cx="1020.79" cy="410.74" r="3.2" fill="#1d4ed8"/>
<circle cx="1026.91" cy="410.33" r="3.2" fill="#1d4ed8"/>
<circle cx="1033.03" cy="410.33" r="3.2" fill="#1d4ed8"/>
<circle cx="1039.16" cy="410.33" r="3.2" fill="#1d4ed8"/>
<circle cx="1045.28" cy="409.93" r="3.2" fill="#1d4ed8"/>
<circle cx="1051.40" cy="409.93" r="3.2" fill="#1d4ed8"/>
<circle cx="1057.53" cy="409.93" r="3.2" fill="#1d4ed8"/>
<circle cx="1063.65" cy="409.52" r="3.2" fill="#1d4ed8"/>
<circle cx="1069.78" cy="409.52" r="3.2" fill="#1d4ed8"/>
<circle cx="1075.90" cy="409.12" r="3.2" fill="#1d4ed8"/>
<circle cx="1082.02" cy="409.52" r="3.2" fill="#1d4ed8"/>
<circle cx="1088.15" cy="409.12" r="3.2" fill="#1d4ed8"/>
<circle cx="1094.27" cy="407.50" r="3.2" fill="#1d4ed8"/>
<circle cx="1100.39" cy="407.10" r="3.2" fill="#1d4ed8"/>
<circle cx="1106.52" cy="403.05" r="3.2" fill="#1d4ed8"/>
<circle cx="1112.64" cy="399.82" r="3.2" fill="#1d4ed8"/>
<circle cx="1118.76" cy="400.22" r="3.2" fill="#1d4ed8"/>
<circle cx="1124.89" cy="400.62" r="3.2" fill="#1d4ed8"/>
<circle cx="1131.01" cy="400.62" r="3.2" fill="#1d4ed8"/>
<circle cx="1137.13" cy="399.41" r="3.2" fill="#1d4ed8"/>
<circle cx="1143.26" cy="392.94" r="3.2" fill="#1d4ed8"/>
<circle cx="1149.38" cy="391.32" r="3.2" fill="#1d4ed8"/>
<circle cx="1155.51" cy="389.30" r="3.2" fill="#1d4ed8"/>
<circle cx="1161.63" cy="389.30" r="3.2" fill="#1d4ed8"/>
<circle cx="1167.75" cy="388.49" r="3.2" fill="#1d4ed8"/>
<circle cx="1173.88" cy="375.15" r="3.2" fill="#1d4ed8"/>
<circle cx="1180.00" cy="374.74" r="3.2" fill="#1d4ed8"/>
<text x="635" y="695" text-anchor="middle" font-size="14" fill="#111" font-family="sans-serif">Date</text>
<text x="24" y="325" text-anchor="middle" font-size="14" fill="#111" transform="rotate(-90 24,325)" font-family="sans-serif">Passed files</text>
</svg>
