<?xml version="1.0" encoding="UTF-8"?>
<svg xmlns="http://www.w3.org/2000/svg" width="1280" height="720" viewBox="0 0 1280 720">
<rect width="100%" height="100%" fill="#ffffff"/>
<text x="640" y="30" text-anchor="middle" font-size="22" font-family="sans-serif">Roast passed files history</text>
<line x1="90" y1="600" x2="1180" y2="600" stroke="#333" stroke-width="1.5"/>
<line x1="90" y1="50" x2="90" y2="600" stroke="#333" stroke-width="1.5"/>
<line x1="90" y1="600.00" x2="1180" y2="600.00" stroke="#e5e7eb" stroke-width="1"/>
<text x="78" y="605.00" text-anchor="end" font-size="12" fill="#111" font-family="sans-serif">0</text>
<line x1="90" y1="397.79" x2="1180" y2="397.79" stroke="#e5e7eb" stroke-width="1"/>
<text x="78" y="402.79" text-anchor="end" font-size="12" fill="#111" font-family="sans-serif">500</text>
<line x1="90" y1="195.59" x2="1180" y2="195.59" stroke="#e5e7eb" stroke-width="1"/>
<text x="78" y="200.59" text-anchor="end" font-size="12" fill="#111" font-family="sans-serif">1000</text>
<line x1="90.00" y1="600" x2="90.00" y2="606" stroke="#333" stroke-width="1"/>
<text x="90.00" y="624" text-anchor="end" font-size="11" fill="#111" transform="rotate(-40 90.00,624)" font-family="sans-serif">2026-02-12</text>
<line x1="226.54" y1="600" x2="226.54" y2="606" stroke="#333" stroke-width="1"/>
<text x="226.54" y="624" text-anchor="end" font-size="11" fill="#111" transform="rotate(-40 226.54,624)" font-family="sans-serif">2026-02-18</text>
<line x1="363.09" y1="600" x2="363.09" y2="606" stroke="#333" stroke-width="1"/>
<text x="363.09" y="624" text-anchor="end" font-size="11" fill="#111" transform="rotate(-40 363.09,624)" font-family="sans-serif">2026-02-25</text>
<line x1="499.63" y1="600" x2="499.63" y2="606" stroke="#333" stroke-width="1"/>
<text x="499.63" y="624" text-anchor="end" font-size="11" fill="#111" transform="rotate(-40 499.63,624)" font-family="sans-serif">2026-02-28</text>
<line x1="636.18" y1="600" x2="636.18" y2="606" stroke="#333" stroke-width="1"/>
<text x="636.18" y="624" text-anchor="end" font-size="11" fill="#111" transform="rotate(-40 636.18,624)" font-family="sans-serif">2026-03-06</text>
<line x1="772.72" y1="600" x2="772.72" y2="606" stroke="#333" stroke-width="1"/>
<text x="772.72" y="624" text-anchor="end" font-size="11" fill="#111" transform="rotate(-40 772.72,624)" font-family="sans-serif">2026-03-07</text>
<line x1="909.27" y1="600" x2="909.27" y2="606" stroke="#333" stroke-width="1"/>
<text x="909.27" y="624" text-anchor="end" font-size="11" fill="#111" transform="rotate(-40 909.27,624)" font-family="sans-serif">2026-03-18</text>
<line x1="1045.81" y1="600" x2="1045.81" y2="606" stroke="#333" stroke-width="1"/>
<text x="1045.81" y="624" text-anchor="end" font-size="11" fill="#111" transform="rotate(-40 1045.81,624)" font-family="sans-serif">2026-03-19</text>
<line x1="1180.00" y1="600" x2="1180.00" y2="606" stroke="#333" stroke-width="1"/>
<text x="1180.00" y="624" text-anchor="end" font-size="11" fill="#111" transform="rotate(-40 1180.00,624)" font-family="sans-serif">2026-03-30</text>
<line x1="90" y1="75.88" x2="1180" y2="75.88" stroke="#dc2626" stroke-width="1.5" stroke-dasharray="8,4"/>
<text x="1184" y="79.88" font-size="12" fill="#dc2626" font-family="sans-serif">Goal: 1296</text>
<polyline fill="none" stroke="#2563eb" stroke-width="3" points="90.00,540.55 92.35,538.53 94.71,536.91 97.06,534.49 99.42,534.49 101.77,533.27 104.13,532.46 106.48,532.87 108.83,532.06 111.19,532.46 113.54,532.06 115.90,568.46 118.25,568.46 120.60,566.43 122.96,545.00 125.31,545.00 127.67,544.19 130.02,543.79 132.38,543.79 134.73,543.38 137.08,541.76 139.44,541.36 141.79,540.96 144.15,540.96 146.50,539.34 148.86,539.34 151.21,556.73 153.56,556.73 155.92,555.51 158.27,551.07 160.63,538.93 162.98,538.93 165.33,538.93 167.69,538.12 170.04,536.91 172.40,536.91 174.75,536.51 177.11,536.51 179.46,556.73 181.81,556.73 184.17,556.73 186.52,556.73 188.88,535.29 191.23,535.29 193.59,535.29 195.94,535.29 198.29,534.49 200.65,534.08 203.00,533.68 205.36,532.87 207.71,532.06 210.06,532.06 212.42,531.25 214.77,530.85 217.13,530.44 219.48,530.04 221.84,530.04 224.19,529.23 226.54,529.23 228.90,529.23 231.25,528.42 233.61,528.42 235.96,527.61 238.32,527.21 240.67,526.80 243.02,526.40 245.38,525.18 247.73,523.57 250.09,523.57 252.44,523.16 254.79,522.76 257.15,522.35 259.50,521.54 261.86,519.52 264.21,517.50 266.57,517.50 268.92,517.50 271.27,517.50 273.63,517.50 275.98,517.50 278.34,517.10 280.69,516.69 283.05,515.48 285.40,515.07 287.75,514.67 290.11,513.86 292.46,514.26 294.82,512.24 297.17,511.84 299.52,511.84 301.88,511.03 304.23,509.82 306.59,507.79 308.94,506.99 311.30,506.58 313.65,509.41 316.00,509.01 318.36,504.96 320.71,504.56 323.07,504.15 325.42,504.56 327.78,503.75 330.13,503.75 332.48,503.35 334.84,499.30 337.19,496.47 339.55,490.00 341.90,484.34 344.25,481.10 346.61,480.29 348.96,480.70 351.32,460.88 353.67,459.26 356.03,458.05 358.38,456.03 360.73,456.03 363.09,454.41 365.44,450.77 367.80,444.30 370.15,443.90 372.51,600.00 374.86,441.88 377.21,440.66 379.57,439.45 381.92,439.04 384.28,438.64 386.63,437.83 388.98,436.62 391.34,436.62 393.69,434.60 396.05,432.17 398.40,429.34 400.76,428.93 403.11,428.53 405.46,427.72 407.82,426.91 410.17,426.10 412.53,426.10 414.88,426.10 417.24,419.63 419.59,419.23 421.94,418.42 424.30,418.01 426.65,417.61 429.01,417.61 431.36,417.61 433.71,417.21 436.07,417.21 438.42,413.57 440.78,411.95 443.13,412.76 445.49,410.74 447.84,410.74 450.19,410.33 452.55,410.33 454.90,410.33 457.26,409.93 459.61,409.93 461.97,409.93 464.32,409.52 466.67,409.52 469.03,409.12 471.38,409.52 473.74,409.12 476.09,407.50 478.44,407.10 480.80,403.05 483.15,399.82 485.51,400.22 487.86,400.62 490.22,400.62 492.57,399.41 494.92,392.94 497.28,391.32 499.63,389.30 501.99,389.30 504.34,388.49 506.70,375.15 509.05,374.74 511.40,374.74 513.76,374.74 516.11,374.74 518.47,374.34 520.82,374.34 523.17,374.34 525.53,374.34 527.88,374.34 530.24,373.93 532.59,373.12 534.95,372.72 537.30,373.53 539.65,435.81 542.01,372.32 544.36,372.72 546.72,371.91 549.07,371.91 551.43,372.32 553.78,371.10 556.13,369.89 558.49,369.89 560.84,369.89 563.20,369.49 565.55,369.89 567.90,369.08 570.26,368.68 572.61,368.27 574.97,367.87 577.32,367.06 579.68,367.46 582.03,367.06 584.38,366.25 586.74,368.27 589.09,368.68 591.45,368.68 593.80,368.27 596.16,369.08 598.51,367.87 600.86,367.46 603.22,367.06 605.57,360.18 607.93,359.78 610.28,359.38 612.63,356.95 614.99,357.35 617.34,357.76 619.70,355.33 622.05,355.74 624.41,357.35 626.76,355.33 629.11,356.14 631.47,355.74 633.82,356.14 636.18,354.12 638.53,354.93 640.89,356.14 643.24,354.52 645.59,353.71 647.95,354.12 650.30,354.93 652.66,352.90 655.01,353.71 657.37,353.31 659.72,353.31 662.07,354.52 664.43,352.90 666.78,352.50 669.14,352.50 671.49,353.31 673.84,352.50 676.20,353.71 678.55,354.12 680.91,352.50 683.26,352.90 685.62,352.50 687.97,352.10 690.32,351.69 692.68,352.10 695.03,354.12 697.39,352.50 699.74,352.10 702.10,352.10 704.45,349.67 706.80,349.67 709.16,350.88 711.51,351.29 713.87,350.48 716.22,352.10 718.57,350.48 720.93,350.48 723.28,350.48 725.64,350.07 727.99,348.46 730.35,351.29 732.70,349.67 735.05,351.29 737.41,349.67 739.76,348.86 742.12,348.46 744.47,348.46 746.83,347.24 749.18,348.86 751.53,346.84 753.89,348.46 756.24,348.86 758.60,346.84 760.95,349.26 763.30,348.05 765.66,349.26 768.01,349.26 770.37,350.48 772.72,352.90 775.08,349.67 777.43,348.46 779.78,345.62 782.14,344.82 784.49,344.41 786.85,342.39 789.20,341.18 791.56,341.58 793.91,339.15 796.26,338.35 798.62,337.54 800.97,336.73 803.33,335.92 805.68,337.54 808.03,338.35 810.39,337.54 812.74,337.54 815.10,337.54 817.45,333.09 819.81,333.90 822.16,335.92 824.51,336.73 826.87,335.51 829.22,332.28 831.58,331.47 833.93,331.07 836.29,331.47 838.64,331.07 840.99,331.07 843.35,331.07 845.70,331.07 848.06,331.07 850.41,331.07 852.76,331.07 855.12,331.07 857.47,331.07 859.83,331.07 862.18,331.47 864.54,331.88 866.89,331.07 869.24,331.47 871.60,331.07 873.95,331.47 876.31,331.07 878.66,324.19 881.02,324.19 883.37,318.93 885.72,316.51 888.08,310.44 890.43,308.01 892.79,600.00 895.14,301.54 897.49,290.22 899.85,287.79 902.20,286.18 904.56,285.77 906.91,285.77 909.27,285.77 911.62,286.18 913.97,285.77 916.33,285.77 918.68,285.77 921.04,283.35 923.39,282.94 925.75,282.94 928.10,283.35 930.45,282.94 932.81,282.94 935.16,283.75 937.52,282.13 939.87,282.13 942.22,282.54 944.58,282.13 946.93,282.54 949.29,282.94 951.64,281.73 954.00,282.54 956.35,281.73 958.70,282.54 961.06,282.13 963.41,282.13 965.77,281.73 968.12,281.73 970.48,281.32 972.83,281.73 975.18,282.13 977.54,281.32 979.89,281.32 982.25,282.54 984.60,282.13 986.95,281.32 989.31,281.32 991.66,281.32 994.02,282.54 996.37,282.13 998.73,281.32 1001.08,282.13 1003.43,281.73 1005.79,282.13 1008.14,280.11 1010.50,280.11 1012.85,280.51 1015.21,279.71 1017.56,280.11 1019.91,280.51 1022.27,279.71 1024.62,280.11 1026.98,280.11 1029.33,279.30 1031.68,278.90 1034.04,278.90 1036.39,280.51 1038.75,279.30 1041.10,278.09 1043.46,278.49 1045.81,278.49 1048.16,277.28 1050.52,277.68 1052.87,277.68 1055.23,278.09 1057.58,277.28 1059.94,600.00 1062.29,278.90 1064.64,279.30 1067.00,278.90 1069.35,278.49 1071.71,278.49 1074.06,278.49 1076.41,278.49 1078.77,278.49 1081.12,278.49 1083.48,278.49 1085.83,278.49 1088.19,278.49 1090.54,278.49 1092.89,278.49 1095.25,278.49 1097.60,600.00 1099.96,600.00 1102.31,254.63 1104.67,600.00 1107.02,245.74 1109.37,245.74 1111.73,246.14 1114.08,245.74 1116.44,245.74 1118.79,245.74 1121.14,245.74 1123.50,245.74 1125.85,240.07 1128.21,238.05 1130.56,238.05 1132.92,227.13 1135.27,227.13 1137.62,226.32 1139.98,227.54 1142.33,226.73 1144.69,226.32 1147.04,227.13 1149.40,227.13 1151.75,226.73 1154.10,226.32 1156.46,226.73 1158.81,226.73 1161.17,226.73 1163.52,225.11 1165.87,224.71 1168.23,225.11 1170.58,224.30 1172.94,226.32 1175.29,224.30 1177.65,225.51 1180.00,225.51"/>
<circle cx="90.00" cy="540.55" r="3.2" fill="#1d4ed8"/>
<circle cx="92.35" cy="538.53" r="3.2" fill="#1d4ed8"/>
<circle cx="94.71" cy="536.91" r="3.2" fill="#1d4ed8"/>
<circle cx="97.06" cy="534.49" r="3.2" fill="#1d4ed8"/>
<circle cx="99.42" cy="534.49" r="3.2" fill="#1d4ed8"/>
<circle cx="101.77" cy="533.27" r="3.2" fill="#1d4ed8"/>
<circle cx="104.13" cy="532.46" r="3.2" fill="#1d4ed8"/>
<circle cx="106.48" cy="532.87" r="3.2" fill="#1d4ed8"/>
<circle cx="108.83" cy="532.06" r="3.2" fill="#1d4ed8"/>
<circle cx="111.19" cy="532.46" r="3.2" fill="#1d4ed8"/>
<circle cx="113.54" cy="532.06" r="3.2" fill="#1d4ed8"/>
<circle cx="115.90" cy="568.46" r="3.2" fill="#1d4ed8"/>
<circle cx="118.25" cy="568.46" r="3.2" fill="#1d4ed8"/>
<circle cx="120.60" cy="566.43" r="3.2" fill="#1d4ed8"/>
<circle cx="122.96" cy="545.00" r="3.2" fill="#1d4ed8"/>
<circle cx="125.31" cy="545.00" r="3.2" fill="#1d4ed8"/>
<circle cx="127.67" cy="544.19" r="3.2" fill="#1d4ed8"/>
<circle cx="130.02" cy="543.79" r="3.2" fill="#1d4ed8"/>
<circle cx="132.38" cy="543.79" r="3.2" fill="#1d4ed8"/>
<circle cx="134.73" cy="543.38" r="3.2" fill="#1d4ed8"/>
<circle cx="137.08" cy="541.76" r="3.2" fill="#1d4ed8"/>
<circle cx="139.44" cy="541.36" r="3.2" fill="#1d4ed8"/>
<circle cx="141.79" cy="540.96" r="3.2" fill="#1d4ed8"/>
<circle cx="144.15" cy="540.96" r="3.2" fill="#1d4ed8"/>
<circle cx="146.50" cy="539.34" r="3.2" fill="#1d4ed8"/>
<circle cx="148.86" cy="539.34" r="3.2" fill="#1d4ed8"/>
<circle cx="151.21" cy="556.73" r="3.2" fill="#1d4ed8"/>
<circle cx="153.56" cy="556.73" r="3.2" fill="#1d4ed8"/>
<circle cx="155.92" cy="555.51" r="3.2" fill="#1d4ed8"/>
<circle cx="158.27" cy="551.07" r="3.2" fill="#1d4ed8"/>
<circle cx="160.63" cy="538.93" r="3.2" fill="#1d4ed8"/>
<circle cx="162.98" cy="538.93" r="3.2" fill="#1d4ed8"/>
<circle cx="165.33" cy="538.93" r="3.2" fill="#1d4ed8"/>
<circle cx="167.69" cy="538.12" r="3.2" fill="#1d4ed8"/>
<circle cx="170.04" cy="536.91" r="3.2" fill="#1d4ed8"/>
<circle cx="172.40" cy="536.91" r="3.2" fill="#1d4ed8"/>
<circle cx="174.75" cy="536.51" r="3.2" fill="#1d4ed8"/>
<circle cx="177.11" cy="536.51" r="3.2" fill="#1d4ed8"/>
<circle cx="179.46" cy="556.73" r="3.2" fill="#1d4ed8"/>
<circle cx="181.81" cy="556.73" r="3.2" fill="#1d4ed8"/>
<circle cx="184.17" cy="556.73" r="3.2" fill="#1d4ed8"/>
<circle cx="186.52" cy="556.73" r="3.2" fill="#1d4ed8"/>
<circle cx="188.88" cy="535.29" r="3.2" fill="#1d4ed8"/>
<circle cx="191.23" cy="535.29" r="3.2" fill="#1d4ed8"/>
<circle cx="193.59" cy="535.29" r="3.2" fill="#1d4ed8"/>
<circle cx="195.94" cy="535.29" r="3.2" fill="#1d4ed8"/>
<circle cx="198.29" cy="534.49" r="3.2" fill="#1d4ed8"/>
<circle cx="200.65" cy="534.08" r="3.2" fill="#1d4ed8"/>
<circle cx="203.00" cy="533.68" r="3.2" fill="#1d4ed8"/>
<circle cx="205.36" cy="532.87" r="3.2" fill="#1d4ed8"/>
<circle cx="207.71" cy="532.06" r="3.2" fill="#1d4ed8"/>
<circle cx="210.06" cy="532.06" r="3.2" fill="#1d4ed8"/>
<circle cx="212.42" cy="531.25" r="3.2" fill="#1d4ed8"/>
<circle cx="214.77" cy="530.85" r="3.2" fill="#1d4ed8"/>
<circle cx="217.13" cy="530.44" r="3.2" fill="#1d4ed8"/>
<circle cx="219.48" cy="530.04" r="3.2" fill="#1d4ed8"/>
<circle cx="221.84" cy="530.04" r="3.2" fill="#1d4ed8"/>
<circle cx="224.19" cy="529.23" r="3.2" fill="#1d4ed8"/>
<circle cx="226.54" cy="529.23" r="3.2" fill="#1d4ed8"/>
<circle cx="228.90" cy="529.23" r="3.2" fill="#1d4ed8"/>
<circle cx="231.25" cy="528.42" r="3.2" fill="#1d4ed8"/>
<circle cx="233.61" cy="528.42" r="3.2" fill="#1d4ed8"/>
<circle cx="235.96" cy="527.61" r="3.2" fill="#1d4ed8"/>
<circle cx="238.32" cy="527.21" r="3.2" fill="#1d4ed8"/>
<circle cx="240.67" cy="526.80" r="3.2" fill="#1d4ed8"/>
<circle cx="243.02" cy="526.40" r="3.2" fill="#1d4ed8"/>
<circle cx="245.38" cy="525.18" r="3.2" fill="#1d4ed8"/>
<circle cx="247.73" cy="523.57" r="3.2" fill="#1d4ed8"/>
<circle cx="250.09" cy="523.57" r="3.2" fill="#1d4ed8"/>
<circle cx="252.44" cy="523.16" r="3.2" fill="#1d4ed8"/>
<circle cx="254.79" cy="522.76" r="3.2" fill="#1d4ed8"/>
<circle cx="257.15" cy="522.35" r="3.2" fill="#1d4ed8"/>
<circle cx="259.50" cy="521.54" r="3.2" fill="#1d4ed8"/>
<circle cx="261.86" cy="519.52" r="3.2" fill="#1d4ed8"/>
<circle cx="264.21" cy="517.50" r="3.2" fill="#1d4ed8"/>
<circle cx="266.57" cy="517.50" r="3.2" fill="#1d4ed8"/>
<circle cx="268.92" cy="517.50" r="3.2" fill="#1d4ed8"/>
<circle cx="271.27" cy="517.50" r="3.2" fill="#1d4ed8"/>
<circle cx="273.63" cy="517.50" r="3.2" fill="#1d4ed8"/>
<circle cx="275.98" cy="517.50" r="3.2" fill="#1d4ed8"/>
<circle cx="278.34" cy="517.10" r="3.2" fill="#1d4ed8"/>
<circle cx="280.69" cy="516.69" r="3.2" fill="#1d4ed8"/>
<circle cx="283.05" cy="515.48" r="3.2" fill="#1d4ed8"/>
<circle cx="285.40" cy="515.07" r="3.2" fill="#1d4ed8"/>
<circle cx="287.75" cy="514.67" r="3.2" fill="#1d4ed8"/>
<circle cx="290.11" cy="513.86" r="3.2" fill="#1d4ed8"/>
<circle cx="292.46" cy="514.26" r="3.2" fill="#1d4ed8"/>
<circle cx="294.82" cy="512.24" r="3.2" fill="#1d4ed8"/>
<circle cx="297.17" cy="511.84" r="3.2" fill="#1d4ed8"/>
<circle cx="299.52" cy="511.84" r="3.2" fill="#1d4ed8"/>
<circle cx="301.88" cy="511.03" r="3.2" fill="#1d4ed8"/>
<circle cx="304.23" cy="509.82" r="3.2" fill="#1d4ed8"/>
<circle cx="306.59" cy="507.79" r="3.2" fill="#1d4ed8"/>
<circle cx="308.94" cy="506.99" r="3.2" fill="#1d4ed8"/>
<circle cx="311.30" cy="506.58" r="3.2" fill="#1d4ed8"/>
<circle cx="313.65" cy="509.41" r="3.2" fill="#1d4ed8"/>
<circle cx="316.00" cy="509.01" r="3.2" fill="#1d4ed8"/>
<circle cx="318.36" cy="504.96" r="3.2" fill="#1d4ed8"/>
<circle cx="320.71" cy="504.56" r="3.2" fill="#1d4ed8"/>
<circle cx="323.07" cy="504.15" r="3.2" fill="#1d4ed8"/>
<circle cx="325.42" cy="504.56" r="3.2" fill="#1d4ed8"/>
<circle cx="327.78" cy="503.75" r="3.2" fill="#1d4ed8"/>
<circle cx="330.13" cy="503.75" r="3.2" fill="#1d4ed8"/>
<circle cx="332.48" cy="503.35" r="3.2" fill="#1d4ed8"/>
<circle cx="334.84" cy="499.30" r="3.2" fill="#1d4ed8"/>
<circle cx="337.19" cy="496.47" r="3.2" fill="#1d4ed8"/>
<circle cx="339.55" cy="490.00" r="3.2" fill="#1d4ed8"/>
<circle cx="341.90" cy="484.34" r="3.2" fill="#1d4ed8"/>
<circle cx="344.25" cy="481.10" r="3.2" fill="#1d4ed8"/>
<circle cx="346.61" cy="480.29" r="3.2" fill="#1d4ed8"/>
<circle cx="348.96" cy="480.70" r="3.2" fill="#1d4ed8"/>
<circle cx="351.32" cy="460.88" r="3.2" fill="#1d4ed8"/>
<circle cx="353.67" cy="459.26" r="3.2" fill="#1d4ed8"/>
<circle cx="356.03" cy="458.05" r="3.2" fill="#1d4ed8"/>
<circle cx="358.38" cy="456.03" r="3.2" fill="#1d4ed8"/>
<circle cx="360.73" cy="456.03" r="3.2" fill="#1d4ed8"/>
<circle cx="363.09" cy="454.41" r="3.2" fill="#1d4ed8"/>
<circle cx="365.44" cy="450.77" r="3.2" fill="#1d4ed8"/>
<circle cx="367.80" cy="444.30" r="3.2" fill="#1d4ed8"/>
<circle cx="370.15" cy="443.90" r="3.2" fill="#1d4ed8"/>
<circle cx="372.51" cy="600.00" r="3.2" fill="#1d4ed8"/>
<circle cx="374.86" cy="441.88" r="3.2" fill="#1d4ed8"/>
<circle cx="377.21" cy="440.66" r="3.2" fill="#1d4ed8"/>
<circle cx="379.57" cy="439.45" r="3.2" fill="#1d4ed8"/>
<circle cx="381.92" cy="439.04" r="3.2" fill="#1d4ed8"/>
<circle cx="384.28" cy="438.64" r="3.2" fill="#1d4ed8"/>
<circle cx="386.63" cy="437.83" r="3.2" fill="#1d4ed8"/>
<circle cx="388.98" cy="436.62" r="3.2" fill="#1d4ed8"/>
<circle cx="391.34" cy="436.62" r="3.2" fill="#1d4ed8"/>
<circle cx="393.69" cy="434.60" r="3.2" fill="#1d4ed8"/>
<circle cx="396.05" cy="432.17" r="3.2" fill="#1d4ed8"/>
<circle cx="398.40" cy="429.34" r="3.2" fill="#1d4ed8"/>
<circle cx="400.76" cy="428.93" r="3.2" fill="#1d4ed8"/>
<circle cx="403.11" cy="428.53" r="3.2" fill="#1d4ed8"/>
<circle cx="405.46" cy="427.72" r="3.2" fill="#1d4ed8"/>
<circle cx="407.82" cy="426.91" r="3.2" fill="#1d4ed8"/>
<circle cx="410.17" cy="426.10" r="3.2" fill="#1d4ed8"/>
<circle cx="412.53" cy="426.10" r="3.2" fill="#1d4ed8"/>
<circle cx="414.88" cy="426.10" r="3.2" fill="#1d4ed8"/>
<circle cx="417.24" cy="419.63" r="3.2" fill="#1d4ed8"/>
<circle cx="419.59" cy="419.23" r="3.2" fill="#1d4ed8"/>
<circle cx="421.94" cy="418.42" r="3.2" fill="#1d4ed8"/>
<circle cx="424.30" cy="418.01" r="3.2" fill="#1d4ed8"/>
<circle cx="426.65" cy="417.61" r="3.2" fill="#1d4ed8"/>
<circle cx="429.01" cy="417.61" r="3.2" fill="#1d4ed8"/>
<circle cx="431.36" cy="417.61" r="3.2" fill="#1d4ed8"/>
<circle cx="433.71" cy="417.21" r="3.2" fill="#1d4ed8"/>
<circle cx="436.07" cy="417.21" r="3.2" fill="#1d4ed8"/>
<circle cx="438.42" cy="413.57" r="3.2" fill="#1d4ed8"/>
<circle cx="440.78" cy="411.95" r="3.2" fill="#1d4ed8"/>
<circle cx="443.13" cy="412.76" r="3.2" fill="#1d4ed8"/>
<circle cx="445.49" cy="410.74" r="3.2" fill="#1d4ed8"/>
<circle cx="447.84" cy="410.74" r="3.2" fill="#1d4ed8"/>
<circle cx="450.19" cy="410.33" r="3.2" fill="#1d4ed8"/>
<circle cx="452.55" cy="410.33" r="3.2" fill="#1d4ed8"/>
<circle cx="454.90" cy="410.33" r="3.2" fill="#1d4ed8"/>
<circle cx="457.26" cy="409.93" r="3.2" fill="#1d4ed8"/>
<circle cx="459.61" cy="409.93" r="3.2" fill="#1d4ed8"/>
<circle cx="461.97" cy="409.93" r="3.2" fill="#1d4ed8"/>
<circle cx="464.32" cy="409.52" r="3.2" fill="#1d4ed8"/>
<circle cx="466.67" cy="409.52" r="3.2" fill="#1d4ed8"/>
<circle cx="469.03" cy="409.12" r="3.2" fill="#1d4ed8"/>
<circle cx="471.38" cy="409.52" r="3.2" fill="#1d4ed8"/>
<circle cx="473.74" cy="409.12" r="3.2" fill="#1d4ed8"/>
<circle cx="476.09" cy="407.50" r="3.2" fill="#1d4ed8"/>
<circle cx="478.44" cy="407.10" r="3.2" fill="#1d4ed8"/>
<circle cx="480.80" cy="403.05" r="3.2" fill="#1d4ed8"/>
<circle cx="483.15" cy="399.82" r="3.2" fill="#1d4ed8"/>
<circle cx="485.51" cy="400.22" r="3.2" fill="#1d4ed8"/>
<circle cx="487.86" cy="400.62" r="3.2" fill="#1d4ed8"/>
<circle cx="490.22" cy="400.62" r="3.2" fill="#1d4ed8"/>
<circle cx="492.57" cy="399.41" r="3.2" fill="#1d4ed8"/>
<circle cx="494.92" cy="392.94" r="3.2" fill="#1d4ed8"/>
<circle cx="497.28" cy="391.32" r="3.2" fill="#1d4ed8"/>
<circle cx="499.63" cy="389.30" r="3.2" fill="#1d4ed8"/>
<circle cx="501.99" cy="389.30" r="3.2" fill="#1d4ed8"/>
<circle cx="504.34" cy="388.49" r="3.2" fill="#1d4ed8"/>
<circle cx="506.70" cy="375.15" r="3.2" fill="#1d4ed8"/>
<circle cx="509.05" cy="374.74" r="3.2" fill="#1d4ed8"/>
<circle cx="511.40" cy="374.74" r="3.2" fill="#1d4ed8"/>
<circle cx="513.76" cy="374.74" r="3.2" fill="#1d4ed8"/>
<circle cx="516.11" cy="374.74" r="3.2" fill="#1d4ed8"/>
<circle cx="518.47" cy="374.34" r="3.2" fill="#1d4ed8"/>
<circle cx="520.82" cy="374.34" r="3.2" fill="#1d4ed8"/>
<circle cx="523.17" cy="374.34" r="3.2" fill="#1d4ed8"/>
<circle cx="525.53" cy="374.34" r="3.2" fill="#1d4ed8"/>
<circle cx="527.88" cy="374.34" r="3.2" fill="#1d4ed8"/>
<circle cx="530.24" cy="373.93" r="3.2" fill="#1d4ed8"/>
<circle cx="532.59" cy="373.12" r="3.2" fill="#1d4ed8"/>
<circle cx="534.95" cy="372.72" r="3.2" fill="#1d4ed8"/>
<circle cx="537.30" cy="373.53" r="3.2" fill="#1d4ed8"/>
<circle cx="539.65" cy="435.81" r="3.2" fill="#1d4ed8"/>
<circle cx="542.01" cy="372.32" r="3.2" fill="#1d4ed8"/>
<circle cx="544.36" cy="372.72" r="3.2" fill="#1d4ed8"/>
<circle cx="546.72" cy="371.91" r="3.2" fill="#1d4ed8"/>
<circle cx="549.07" cy="371.91" r="3.2" fill="#1d4ed8"/>
<circle cx="551.43" cy="372.32" r="3.2" fill="#1d4ed8"/>
<circle cx="553.78" cy="371.10" r="3.2" fill="#1d4ed8"/>
<circle cx="556.13" cy="369.89" r="3.2" fill="#1d4ed8"/>
<circle cx="558.49" cy="369.89" r="3.2" fill="#1d4ed8"/>
<circle cx="560.84" cy="369.89" r="3.2" fill="#1d4ed8"/>
<circle cx="563.20" cy="369.49" r="3.2" fill="#1d4ed8"/>
<circle cx="565.55" cy="369.89" r="3.2" fill="#1d4ed8"/>
<circle cx="567.90" cy="369.08" r="3.2" fill="#1d4ed8"/>
<circle cx="570.26" cy="368.68" r="3.2" fill="#1d4ed8"/>
<circle cx="572.61" cy="368.27" r="3.2" fill="#1d4ed8"/>
<circle cx="574.97" cy="367.87" r="3.2" fill="#1d4ed8"/>
<circle cx="577.32" cy="367.06" r="3.2" fill="#1d4ed8"/>
<circle cx="579.68" cy="367.46" r="3.2" fill="#1d4ed8"/>
<circle cx="582.03" cy="367.06" r="3.2" fill="#1d4ed8"/>
<circle cx="584.38" cy="366.25" r="3.2" fill="#1d4ed8"/>
<circle cx="586.74" cy="368.27" r="3.2" fill="#1d4ed8"/>
<circle cx="589.09" cy="368.68" r="3.2" fill="#1d4ed8"/>
<circle cx="591.45" cy="368.68" r="3.2" fill="#1d4ed8"/>
<circle cx="593.80" cy="368.27" r="3.2" fill="#1d4ed8"/>
<circle cx="596.16" cy="369.08" r="3.2" fill="#1d4ed8"/>
<circle cx="598.51" cy="367.87" r="3.2" fill="#1d4ed8"/>
<circle cx="600.86" cy="367.46" r="3.2" fill="#1d4ed8"/>
<circle cx="603.22" cy="367.06" r="3.2" fill="#1d4ed8"/>
<circle cx="605.57" cy="360.18" r="3.2" fill="#1d4ed8"/>
<circle cx="607.93" cy="359.78" r="3.2" fill="#1d4ed8"/>
<circle cx="610.28" cy="359.38" r="3.2" fill="#1d4ed8"/>
<circle cx="612.63" cy="356.95" r="3.2" fill="#1d4ed8"/>
<circle cx="614.99" cy="357.35" r="3.2" fill="#1d4ed8"/>
<circle cx="617.34" cy="357.76" r="3.2" fill="#1d4ed8"/>
<circle cx="619.70" cy="355.33" r="3.2" fill="#1d4ed8"/>
<circle cx="622.05" cy="355.74" r="3.2" fill="#1d4ed8"/>
<circle cx="624.41" cy="357.35" r="3.2" fill="#1d4ed8"/>
<circle cx="626.76" cy="355.33" r="3.2" fill="#1d4ed8"/>
<circle cx="629.11" cy="356.14" r="3.2" fill="#1d4ed8"/>
<circle cx="631.47" cy="355.74" r="3.2" fill="#1d4ed8"/>
<circle cx="633.82" cy="356.14" r="3.2" fill="#1d4ed8"/>
<circle cx="636.18" cy="354.12" r="3.2" fill="#1d4ed8"/>
<circle cx="638.53" cy="354.93" r="3.2" fill="#1d4ed8"/>
<circle cx="640.89" cy="356.14" r="3.2" fill="#1d4ed8"/>
<circle cx="643.24" cy="354.52" r="3.2" fill="#1d4ed8"/>
<circle cx="645.59" cy="353.71" r="3.2" fill="#1d4ed8"/>
<circle cx="647.95" cy="354.12" r="3.2" fill="#1d4ed8"/>
<circle cx="650.30" cy="354.93" r="3.2" fill="#1d4ed8"/>
<circle cx="652.66" cy="352.90" r="3.2" fill="#1d4ed8"/>
<circle cx="655.01" cy="353.71" r="3.2" fill="#1d4ed8"/>
<circle cx="657.37" cy="353.31" r="3.2" fill="#1d4ed8"/>
<circle cx="659.72" cy="353.31" r="3.2" fill="#1d4ed8"/>
<circle cx="662.07" cy="354.52" r="3.2" fill="#1d4ed8"/>
<circle cx="664.43" cy="352.90" r="3.2" fill="#1d4ed8"/>
<circle cx="666.78" cy="352.50" r="3.2" fill="#1d4ed8"/>
<circle cx="669.14" cy="352.50" r="3.2" fill="#1d4ed8"/>
<circle cx="671.49" cy="353.31" r="3.2" fill="#1d4ed8"/>
<circle cx="673.84" cy="352.50" r="3.2" fill="#1d4ed8"/>
<circle cx="676.20" cy="353.71" r="3.2" fill="#1d4ed8"/>
<circle cx="678.55" cy="354.12" r="3.2" fill="#1d4ed8"/>
<circle cx="680.91" cy="352.50" r="3.2" fill="#1d4ed8"/>
<circle cx="683.26" cy="352.90" r="3.2" fill="#1d4ed8"/>
<circle cx="685.62" cy="352.50" r="3.2" fill="#1d4ed8"/>
<circle cx="687.97" cy="352.10" r="3.2" fill="#1d4ed8"/>
<circle cx="690.32" cy="351.69" r="3.2" fill="#1d4ed8"/>
<circle cx="692.68" cy="352.10" r="3.2" fill="#1d4ed8"/>
<circle cx="695.03" cy="354.12" r="3.2" fill="#1d4ed8"/>
<circle cx="697.39" cy="352.50" r="3.2" fill="#1d4ed8"/>
<circle cx="699.74" cy="352.10" r="3.2" fill="#1d4ed8"/>
<circle cx="702.10" cy="352.10" r="3.2" fill="#1d4ed8"/>
<circle cx="704.45" cy="349.67" r="3.2" fill="#1d4ed8"/>
<circle cx="706.80" cy="349.67" r="3.2" fill="#1d4ed8"/>
<circle cx="709.16" cy="350.88" r="3.2" fill="#1d4ed8"/>
<circle cx="711.51" cy="351.29" r="3.2" fill="#1d4ed8"/>
<circle cx="713.87" cy="350.48" r="3.2" fill="#1d4ed8"/>
<circle cx="716.22" cy="352.10" r="3.2" fill="#1d4ed8"/>
<circle cx="718.57" cy="350.48" r="3.2" fill="#1d4ed8"/>
<circle cx="720.93" cy="350.48" r="3.2" fill="#1d4ed8"/>
<circle cx="723.28" cy="350.48" r="3.2" fill="#1d4ed8"/>
<circle cx="725.64" cy="350.07" r="3.2" fill="#1d4ed8"/>
<circle cx="727.99" cy="348.46" r="3.2" fill="#1d4ed8"/>
<circle cx="730.35" cy="351.29" r="3.2" fill="#1d4ed8"/>
<circle cx="732.70" cy="349.67" r="3.2" fill="#1d4ed8"/>
<circle cx="735.05" cy="351.29" r="3.2" fill="#1d4ed8"/>
<circle cx="737.41" cy="349.67" r="3.2" fill="#1d4ed8"/>
<circle cx="739.76" cy="348.86" r="3.2" fill="#1d4ed8"/>
<circle cx="742.12" cy="348.46" r="3.2" fill="#1d4ed8"/>
<circle cx="744.47" cy="348.46" r="3.2" fill="#1d4ed8"/>
<circle cx="746.83" cy="347.24" r="3.2" fill="#1d4ed8"/>
<circle cx="749.18" cy="348.86" r="3.2" fill="#1d4ed8"/>
<circle cx="751.53" cy="346.84" r="3.2" fill="#1d4ed8"/>
<circle cx="753.89" cy="348.46" r="3.2" fill="#1d4ed8"/>
<circle cx="756.24" cy="348.86" r="3.2" fill="#1d4ed8"/>
<circle cx="758.60" cy="346.84" r="3.2" fill="#1d4ed8"/>
<circle cx="760.95" cy="349.26" r="3.2" fill="#1d4ed8"/>
<circle cx="763.30" cy="348.05" r="3.2" fill="#1d4ed8"/>
<circle cx="765.66" cy="349.26" r="3.2" fill="#1d4ed8"/>
<circle cx="768.01" cy="349.26" r="3.2" fill="#1d4ed8"/>
<circle cx="770.37" cy="350.48" r="3.2" fill="#1d4ed8"/>
<circle cx="772.72" cy="352.90" r="3.2" fill="#1d4ed8"/>
<circle cx="775.08" cy="349.67" r="3.2" fill="#1d4ed8"/>
<circle cx="777.43" cy="348.46" r="3.2" fill="#1d4ed8"/>
<circle cx="779.78" cy="345.62" r="3.2" fill="#1d4ed8"/>
<circle cx="782.14" cy="344.82" r="3.2" fill="#1d4ed8"/>
<circle cx="784.49" cy="344.41" r="3.2" fill="#1d4ed8"/>
<circle cx="786.85" cy="342.39" r="3.2" fill="#1d4ed8"/>
<circle cx="789.20" cy="341.18" r="3.2" fill="#1d4ed8"/>
<circle cx="791.56" cy="341.58" r="3.2" fill="#1d4ed8"/>
<circle cx="793.91" cy="339.15" r="3.2" fill="#1d4ed8"/>
<circle cx="796.26" cy="338.35" r="3.2" fill="#1d4ed8"/>
<circle cx="798.62" cy="337.54" r="3.2" fill="#1d4ed8"/>
<circle cx="800.97" cy="336.73" r="3.2" fill="#1d4ed8"/>
<circle cx="803.33" cy="335.92" r="3.2" fill="#1d4ed8"/>
<circle cx="805.68" cy="337.54" r="3.2" fill="#1d4ed8"/>
<circle cx="808.03" cy="338.35" r="3.2" fill="#1d4ed8"/>
<circle cx="810.39" cy="337.54" r="3.2" fill="#1d4ed8"/>
<circle cx="812.74" cy="337.54" r="3.2" fill="#1d4ed8"/>
<circle cx="815.10" cy="337.54" r="3.2" fill="#1d4ed8"/>
<circle cx="817.45" cy="333.09" r="3.2" fill="#1d4ed8"/>
<circle cx="819.81" cy="333.90" r="3.2" fill="#1d4ed8"/>
<circle cx="822.16" cy="335.92" r="3.2" fill="#1d4ed8"/>
<circle cx="824.51" cy="336.73" r="3.2" fill="#1d4ed8"/>
<circle cx="826.87" cy="335.51" r="3.2" fill="#1d4ed8"/>
<circle cx="829.22" cy="332.28" r="3.2" fill="#1d4ed8"/>
<circle cx="831.58" cy="331.47" r="3.2" fill="#1d4ed8"/>
<circle cx="833.93" cy="331.07" r="3.2" fill="#1d4ed8"/>
<circle cx="836.29" cy="331.47" r="3.2" fill="#1d4ed8"/>
<circle cx="838.64" cy="331.07" r="3.2" fill="#1d4ed8"/>
<circle cx="840.99" cy="331.07" r="3.2" fill="#1d4ed8"/>
<circle cx="843.35" cy="331.07" r="3.2" fill="#1d4ed8"/>
<circle cx="845.70" cy="331.07" r="3.2" fill="#1d4ed8"/>
<circle cx="848.06" cy="331.07" r="3.2" fill="#1d4ed8"/>
<circle cx="850.41" cy="331.07" r="3.2" fill="#1d4ed8"/>
<circle cx="852.76" cy="331.07" r="3.2" fill="#1d4ed8"/>
<circle cx="855.12" cy="331.07" r="3.2" fill="#1d4ed8"/>
<circle cx="857.47" cy="331.07" r="3.2" fill="#1d4ed8"/>
<circle cx="859.83" cy="331.07" r="3.2" fill="#1d4ed8"/>
<circle cx="862.18" cy="331.47" r="3.2" fill="#1d4ed8"/>
<circle cx="864.54" cy="331.88" r="3.2" fill="#1d4ed8"/>
<circle cx="866.89" cy="331.07" r="3.2" fill="#1d4ed8"/>
<circle cx="869.24" cy="331.47" r="3.2" fill="#1d4ed8"/>
<circle cx="871.60" cy="331.07" r="3.2" fill="#1d4ed8"/>
<circle cx="873.95" cy="331.47" r="3.2" fill="#1d4ed8"/>
<circle cx="876.31" cy="331.07" r="3.2" fill="#1d4ed8"/>
<circle cx="878.66" cy="324.19" r="3.2" fill="#1d4ed8"/>
<circle cx="881.02" cy="324.19" r="3.2" fill="#1d4ed8"/>
<circle cx="883.37" cy="318.93" r="3.2" fill="#1d4ed8"/>
<circle cx="885.72" cy="316.51" r="3.2" fill="#1d4ed8"/>
<circle cx="888.08" cy="310.44" r="3.2" fill="#1d4ed8"/>
<circle cx="890.43" cy="308.01" r="3.2" fill="#1d4ed8"/>
<circle cx="892.79" cy="600.00" r="3.2" fill="#1d4ed8"/>
<circle cx="895.14" cy="301.54" r="3.2" fill="#1d4ed8"/>
<circle cx="897.49" cy="290.22" r="3.2" fill="#1d4ed8"/>
<circle cx="899.85" cy="287.79" r="3.2" fill="#1d4ed8"/>
<circle cx="902.20" cy="286.18" r="3.2" fill="#1d4ed8"/>
<circle cx="904.56" cy="285.77" r="3.2" fill="#1d4ed8"/>
<circle cx="906.91" cy="285.77" r="3.2" fill="#1d4ed8"/>
<circle cx="909.27" cy="285.77" r="3.2" fill="#1d4ed8"/>
<circle cx="911.62" cy="286.18" r="3.2" fill="#1d4ed8"/>
<circle cx="913.97" cy="285.77" r="3.2" fill="#1d4ed8"/>
<circle cx="916.33" cy="285.77" r="3.2" fill="#1d4ed8"/>
<circle cx="918.68" cy="285.77" r="3.2" fill="#1d4ed8"/>
<circle cx="921.04" cy="283.35" r="3.2" fill="#1d4ed8"/>
<circle cx="923.39" cy="282.94" r="3.2" fill="#1d4ed8"/>
<circle cx="925.75" cy="282.94" r="3.2" fill="#1d4ed8"/>
<circle cx="928.10" cy="283.35" r="3.2" fill="#1d4ed8"/>
<circle cx="930.45" cy="282.94" r="3.2" fill="#1d4ed8"/>
<circle cx="932.81" cy="282.94" r="3.2" fill="#1d4ed8"/>
<circle cx="935.16" cy="283.75" r="3.2" fill="#1d4ed8"/>
<circle cx="937.52" cy="282.13" r="3.2" fill="#1d4ed8"/>
<circle cx="939.87" cy="282.13" r="3.2" fill="#1d4ed8"/>
<circle cx="942.22" cy="282.54" r="3.2" fill="#1d4ed8"/>
<circle cx="944.58" cy="282.13" r="3.2" fill="#1d4ed8"/>
<circle cx="946.93" cy="282.54" r="3.2" fill="#1d4ed8"/>
<circle cx="949.29" cy="282.94" r="3.2" fill="#1d4ed8"/>
<circle cx="951.64" cy="281.73" r="3.2" fill="#1d4ed8"/>
<circle cx="954.00" cy="282.54" r="3.2" fill="#1d4ed8"/>
<circle cx="956.35" cy="281.73" r="3.2" fill="#1d4ed8"/>
<circle cx="958.70" cy="282.54" r="3.2" fill="#1d4ed8"/>
<circle cx="961.06" cy="282.13" r="3.2" fill="#1d4ed8"/>
<circle cx="963.41" cy="282.13" r="3.2" fill="#1d4ed8"/>
<circle cx="965.77" cy="281.73" r="3.2" fill="#1d4ed8"/>
<circle cx="968.12" cy="281.73" r="3.2" fill="#1d4ed8"/>
<circle cx="970.48" cy="281.32" r="3.2" fill="#1d4ed8"/>
<circle cx="972.83" cy="281.73" r="3.2" fill="#1d4ed8"/>
<circle cx="975.18" cy="282.13" r="3.2" fill="#1d4ed8"/>
<circle cx="977.54" cy="281.32" r="3.2" fill="#1d4ed8"/>
<circle cx="979.89" cy="281.32" r="3.2" fill="#1d4ed8"/>
<circle cx="982.25" cy="282.54" r="3.2" fill="#1d4ed8"/>
<circle cx="984.60" cy="282.13" r="3.2" fill="#1d4ed8"/>
<circle cx="986.95" cy="281.32" r="3.2" fill="#1d4ed8"/>
<circle cx="989.31" cy="281.32" r="3.2" fill="#1d4ed8"/>
<circle cx="991.66" cy="281.32" r="3.2" fill="#1d4ed8"/>
<circle cx="994.02" cy="282.54" r="3.2" fill="#1d4ed8"/>
<circle cx="996.37" cy="282.13" r="3.2" fill="#1d4ed8"/>
<circle cx="998.73" cy="281.32" r="3.2" fill="#1d4ed8"/>
<circle cx="1001.08" cy="282.13" r="3.2" fill="#1d4ed8"/>
<circle cx="1003.43" cy="281.73" r="3.2" fill="#1d4ed8"/>
<circle cx="1005.79" cy="282.13" r="3.2" fill="#1d4ed8"/>
<circle cx="1008.14" cy="280.11" r="3.2" fill="#1d4ed8"/>
<circle cx="1010.50" cy="280.11" r="3.2" fill="#1d4ed8"/>
<circle cx="1012.85" cy="280.51" r="3.2" fill="#1d4ed8"/>
<circle cx="1015.21" cy="279.71" r="3.2" fill="#1d4ed8"/>
<circle cx="1017.56" cy="280.11" r="3.2" fill="#1d4ed8"/>
<circle cx="1019.91" cy="280.51" r="3.2" fill="#1d4ed8"/>
<circle cx="1022.27" cy="279.71" r="3.2" fill="#1d4ed8"/>
<circle cx="1024.62" cy="280.11" r="3.2" fill="#1d4ed8"/>
<circle cx="1026.98" cy="280.11" r="3.2" fill="#1d4ed8"/>
<circle cx="1029.33" cy="279.30" r="3.2" fill="#1d4ed8"/>
<circle cx="1031.68" cy="278.90" r="3.2" fill="#1d4ed8"/>
<circle cx="1034.04" cy="278.90" r="3.2" fill="#1d4ed8"/>
<circle cx="1036.39" cy="280.51" r="3.2" fill="#1d4ed8"/>
<circle cx="1038.75" cy="279.30" r="3.2" fill="#1d4ed8"/>
<circle cx="1041.10" cy="278.09" r="3.2" fill="#1d4ed8"/>
<circle cx="1043.46" cy="278.49" r="3.2" fill="#1d4ed8"/>
<circle cx="1045.81" cy="278.49" r="3.2" fill="#1d4ed8"/>
<circle cx="1048.16" cy="277.28" r="3.2" fill="#1d4ed8"/>
<circle cx="1050.52" cy="277.68" r="3.2" fill="#1d4ed8"/>
<circle cx="1052.87" cy="277.68" r="3.2" fill="#1d4ed8"/>
<circle cx="1055.23" cy="278.09" r="3.2" fill="#1d4ed8"/>
<circle cx="1057.58" cy="277.28" r="3.2" fill="#1d4ed8"/>
<circle cx="1059.94" cy="600.00" r="3.2" fill="#1d4ed8"/>
<circle cx="1062.29" cy="278.90" r="3.2" fill="#1d4ed8"/>
<circle cx="1064.64" cy="279.30" r="3.2" fill="#1d4ed8"/>
<circle cx="1067.00" cy="278.90" r="3.2" fill="#1d4ed8"/>
<circle cx="1069.35" cy="278.49" r="3.2" fill="#1d4ed8"/>
<circle cx="1071.71" cy="278.49" r="3.2" fill="#1d4ed8"/>
<circle cx="1074.06" cy="278.49" r="3.2" fill="#1d4ed8"/>
<circle cx="1076.41" cy="278.49" r="3.2" fill="#1d4ed8"/>
<circle cx="1078.77" cy="278.49" r="3.2" fill="#1d4ed8"/>
<circle cx="1081.12" cy="278.49" r="3.2" fill="#1d4ed8"/>
<circle cx="1083.48" cy="278.49" r="3.2" fill="#1d4ed8"/>
<circle cx="1085.83" cy="278.49" r="3.2" fill="#1d4ed8"/>
<circle cx="1088.19" cy="278.49" r="3.2" fill="#1d4ed8"/>
<circle cx="1090.54" cy="278.49" r="3.2" fill="#1d4ed8"/>
<circle cx="1092.89" cy="278.49" r="3.2" fill="#1d4ed8"/>
<circle cx="1095.25" cy="278.49" r="3.2" fill="#1d4ed8"/>
<circle cx="1097.60" cy="600.00" r="3.2" fill="#1d4ed8"/>
<circle cx="1099.96" cy="600.00" r="3.2" fill="#1d4ed8"/>
<circle cx="1102.31" cy="254.63" r="3.2" fill="#1d4ed8"/>
<circle cx="1104.67" cy="600.00" r="3.2" fill="#1d4ed8"/>
<circle cx="1107.02" cy="245.74" r="3.2" fill="#1d4ed8"/>
<circle cx="1109.37" cy="245.74" r="3.2" fill="#1d4ed8"/>
<circle cx="1111.73" cy="246.14" r="3.2" fill="#1d4ed8"/>
<circle cx="1114.08" cy="245.74" r="3.2" fill="#1d4ed8"/>
<circle cx="1116.44" cy="245.74" r="3.2" fill="#1d4ed8"/>
<circle cx="1118.79" cy="245.74" r="3.2" fill="#1d4ed8"/>
<circle cx="1121.14" cy="245.74" r="3.2" fill="#1d4ed8"/>
<circle cx="1123.50" cy="245.74" r="3.2" fill="#1d4ed8"/>
<circle cx="1125.85" cy="240.07" r="3.2" fill="#1d4ed8"/>
<circle cx="1128.21" cy="238.05" r="3.2" fill="#1d4ed8"/>
<circle cx="1130.56" cy="238.05" r="3.2" fill="#1d4ed8"/>
<circle cx="1132.92" cy="227.13" r="3.2" fill="#1d4ed8"/>
<circle cx="1135.27" cy="227.13" r="3.2" fill="#1d4ed8"/>
<circle cx="1137.62" cy="226.32" r="3.2" fill="#1d4ed8"/>
<circle cx="1139.98" cy="227.54" r="3.2" fill="#1d4ed8"/>
<circle cx="1142.33" cy="226.73" r="3.2" fill="#1d4ed8"/>
<circle cx="1144.69" cy="226.32" r="3.2" fill="#1d4ed8"/>
<circle cx="1147.04" cy="227.13" r="3.2" fill="#1d4ed8"/>
<circle cx="1149.40" cy="227.13" r="3.2" fill="#1d4ed8"/>
<circle cx="1151.75" cy="226.73" r="3.2" fill="#1d4ed8"/>
<circle cx="1154.10" cy="226.32" r="3.2" fill="#1d4ed8"/>
<circle cx="1156.46" cy="226.73" r="3.2" fill="#1d4ed8"/>
<circle cx="1158.81" cy="226.73" r="3.2" fill="#1d4ed8"/>
<circle cx="1161.17" cy="226.73" r="3.2" fill="#1d4ed8"/>
<circle cx="1163.52" cy="225.11" r="3.2" fill="#1d4ed8"/>
<circle cx="1165.87" cy="224.71" r="3.2" fill="#1d4ed8"/>
<circle cx="1168.23" cy="225.11" r="3.2" fill="#1d4ed8"/>
<circle cx="1170.58" cy="224.30" r="3.2" fill="#1d4ed8"/>
<circle cx="1172.94" cy="226.32" r="3.2" fill="#1d4ed8"/>
<circle cx="1175.29" cy="224.30" r="3.2" fill="#1d4ed8"/>
<circle cx="1177.65" cy="225.51" r="3.2" fill="#1d4ed8"/>
<circle cx="1180.00" cy="225.51" r="3.2" fill="#1d4ed8"/>
<text x="635" y="695" text-anchor="middle" font-size="14" fill="#111" font-family="sans-serif">Date</text>
<text x="24" y="325" text-anchor="middle" font-size="14" fill="#111" transform="rotate(-90 24,325)" font-family="sans-serif">Passed files</text>
</svg>
