<?xml version="1.0" encoding="UTF-8"?>
<svg xmlns="http://www.w3.org/2000/svg" width="1280" height="720" viewBox="0 0 1280 720">
<rect width="100%" height="100%" fill="#ffffff"/>
<text x="640" y="30" text-anchor="middle" font-size="22" font-family="sans-serif">Roast passed files history</text>
<line x1="90" y1="600" x2="1180" y2="600" stroke="#333" stroke-width="1.5"/>
<line x1="90" y1="50" x2="90" y2="600" stroke="#333" stroke-width="1.5"/>
<line x1="90" y1="600.00" x2="1180" y2="600.00" stroke="#e5e7eb" stroke-width="1"/>
<text x="78" y="605.00" text-anchor="end" font-size="12" fill="#111" font-family="sans-serif">0</text>
<line x1="90" y1="397.79" x2="1180" y2="397.79" stroke="#e5e7eb" stroke-width="1"/>
<text x="78" y="402.79" text-anchor="end" font-size="12" fill="#111" font-family="sans-serif">500</text>
<line x1="90" y1="195.59" x2="1180" y2="195.59" stroke="#e5e7eb" stroke-width="1"/>
<text x="78" y="200.59" text-anchor="end" font-size="12" fill="#111" font-family="sans-serif">1000</text>
<line x1="90.00" y1="600" x2="90.00" y2="606" stroke="#333" stroke-width="1"/>
<text x="90.00" y="624" text-anchor="end" font-size="11" fill="#111" transform="rotate(-40 90.00,624)" font-family="sans-serif">2026-02-12</text>
<line x1="224.33" y1="600" x2="224.33" y2="606" stroke="#333" stroke-width="1"/>
<text x="224.33" y="624" text-anchor="end" font-size="11" fill="#111" transform="rotate(-40 224.33,624)" font-family="sans-serif">2026-02-17</text>
<line x1="358.66" y1="600" x2="358.66" y2="606" stroke="#333" stroke-width="1"/>
<text x="358.66" y="624" text-anchor="end" font-size="11" fill="#111" transform="rotate(-40 358.66,624)" font-family="sans-serif">2026-02-19</text>
<line x1="492.99" y1="600" x2="492.99" y2="606" stroke="#333" stroke-width="1"/>
<text x="492.99" y="624" text-anchor="end" font-size="11" fill="#111" transform="rotate(-40 492.99,624)" font-family="sans-serif">2026-02-23</text>
<line x1="627.32" y1="600" x2="627.32" y2="606" stroke="#333" stroke-width="1"/>
<text x="627.32" y="624" text-anchor="end" font-size="11" fill="#111" transform="rotate(-40 627.32,624)" font-family="sans-serif">2026-02-25</text>
<line x1="761.65" y1="600" x2="761.65" y2="606" stroke="#333" stroke-width="1"/>
<text x="761.65" y="624" text-anchor="end" font-size="11" fill="#111" transform="rotate(-40 761.65,624)" font-family="sans-serif">2026-02-28</text>
<line x1="895.99" y1="600" x2="895.99" y2="606" stroke="#333" stroke-width="1"/>
<text x="895.99" y="624" text-anchor="end" font-size="11" fill="#111" transform="rotate(-40 895.99,624)" font-family="sans-serif">2026-03-01</text>
<line x1="1030.32" y1="600" x2="1030.32" y2="606" stroke="#333" stroke-width="1"/>
<text x="1030.32" y="624" text-anchor="end" font-size="11" fill="#111" transform="rotate(-40 1030.32,624)" font-family="sans-serif">2026-03-06</text>
<line x1="1164.65" y1="600" x2="1164.65" y2="606" stroke="#333" stroke-width="1"/>
<text x="1164.65" y="624" text-anchor="end" font-size="11" fill="#111" transform="rotate(-40 1164.65,624)" font-family="sans-serif">2026-03-07</text>
<line x1="1180.00" y1="600" x2="1180.00" y2="606" stroke="#333" stroke-width="1"/>
<text x="1180.00" y="624" text-anchor="end" font-size="11" fill="#111" transform="rotate(-40 1180.00,624)" font-family="sans-serif">2026-03-07</text>
<line x1="90" y1="75.88" x2="1180" y2="75.88" stroke="#dc2626" stroke-width="1.5" stroke-dasharray="8,4"/>
<text x="1184" y="79.88" font-size="12" fill="#dc2626" font-family="sans-serif">Goal: 1296</text>
<polyline fill="none" stroke="#2563eb" stroke-width="3" points="90.00,540.55 93.84,538.53 97.68,536.91 101.51,534.49 105.35,534.49 109.19,533.27 113.03,532.46 116.87,532.87 120.70,532.06 124.54,532.46 128.38,532.06 132.22,568.46 136.06,568.46 139.89,566.43 143.73,545.00 147.57,545.00 151.41,544.19 155.25,543.79 159.08,543.79 162.92,543.38 166.76,541.76 170.60,541.36 174.44,540.96 178.27,540.96 182.11,539.34 185.95,539.34 189.79,556.73 193.63,556.73 197.46,555.51 201.30,551.07 205.14,538.93 208.98,538.93 212.82,538.93 216.65,538.12 220.49,536.91 224.33,536.91 228.17,536.51 232.01,536.51 235.85,556.73 239.68,556.73 243.52,556.73 247.36,556.73 251.20,535.29 255.04,535.29 258.87,535.29 262.71,535.29 266.55,534.49 270.39,534.08 274.23,533.68 278.06,532.87 281.90,532.06 285.74,532.06 289.58,531.25 293.42,530.85 297.25,530.44 301.09,530.04 304.93,530.04 308.77,529.23 312.61,529.23 316.44,529.23 320.28,528.42 324.12,528.42 327.96,527.61 331.80,527.21 335.63,526.80 339.47,526.40 343.31,525.18 347.15,523.57 350.99,523.57 354.82,523.16 358.66,522.76 362.50,522.35 366.34,521.54 370.18,519.52 374.01,517.50 377.85,517.50 381.69,517.50 385.53,517.50 389.37,517.50 393.20,517.50 397.04,517.10 400.88,516.69 404.72,515.48 408.56,515.07 412.39,514.67 416.23,513.86 420.07,514.26 423.91,512.24 427.75,511.84 431.58,511.84 435.42,511.03 439.26,509.82 443.10,507.79 446.94,506.99 450.77,506.58 454.61,509.41 458.45,509.01 462.29,504.96 466.13,504.56 469.96,504.15 473.80,504.56 477.64,503.75 481.48,503.75 485.32,503.35 489.15,499.30 492.99,496.47 496.83,490.00 500.67,484.34 504.51,481.10 508.35,480.29 512.18,480.70 516.02,460.88 519.86,459.26 523.70,458.05 527.54,456.03 531.37,456.03 535.21,454.41 539.05,450.77 542.89,444.30 546.73,443.90 550.56,600.00 554.40,441.88 558.24,440.66 562.08,439.45 565.92,439.04 569.75,438.64 573.59,437.83 577.43,436.62 581.27,436.62 585.11,434.60 588.94,432.17 592.78,429.34 596.62,428.93 600.46,428.53 604.30,427.72 608.13,426.91 611.97,426.10 615.81,426.10 619.65,426.10 623.49,419.63 627.32,419.23 631.16,418.42 635.00,418.01 638.84,417.61 642.68,417.61 646.51,417.61 650.35,417.21 654.19,417.21 658.03,413.57 661.87,411.95 665.70,412.76 669.54,410.74 673.38,410.74 677.22,410.33 681.06,410.33 684.89,410.33 688.73,409.93 692.57,409.93 696.41,409.93 700.25,409.52 704.08,409.52 707.92,409.12 711.76,409.52 715.60,409.12 719.44,407.50 723.27,407.10 727.11,403.05 730.95,399.82 734.79,400.22 738.63,400.62 742.46,400.62 746.30,399.41 750.14,392.94 753.98,391.32 757.82,389.30 761.65,389.30 765.49,388.49 769.33,375.15 773.17,374.74 777.01,374.74 780.85,374.74 784.68,374.74 788.52,374.34 792.36,374.34 796.20,374.34 800.04,374.34 803.87,374.34 807.71,373.93 811.55,373.12 815.39,372.72 819.23,373.53 823.06,435.81 826.90,372.32 830.74,372.72 834.58,371.91 838.42,371.91 842.25,372.32 846.09,371.10 849.93,369.89 853.77,369.89 857.61,369.89 861.44,369.49 865.28,369.89 869.12,369.08 872.96,368.68 876.80,368.27 880.63,367.87 884.47,367.06 888.31,367.46 892.15,367.06 895.99,366.25 899.82,368.27 903.66,368.68 907.50,368.68 911.34,368.27 915.18,369.08 919.01,367.87 922.85,367.46 926.69,367.06 930.53,360.18 934.37,359.78 938.20,359.38 942.04,356.95 945.88,357.35 949.72,357.76 953.56,355.33 957.39,355.74 961.23,357.35 965.07,355.33 968.91,356.14 972.75,355.74 976.58,356.14 980.42,354.12 984.26,354.93 988.10,356.14 991.94,354.52 995.77,353.71 999.61,354.12 1003.45,354.93 1007.29,352.90 1011.13,353.71 1014.96,353.31 1018.80,353.31 1022.64,354.52 1026.48,352.90 1030.32,352.50 1034.15,352.50 1037.99,353.31 1041.83,352.50 1045.67,353.71 1049.51,354.12 1053.35,352.50 1057.18,352.90 1061.02,352.50 1064.86,352.10 1068.70,351.69 1072.54,352.10 1076.37,354.12 1080.21,352.50 1084.05,352.10 1087.89,352.10 1091.73,349.67 1095.56,349.67 1099.40,350.88 1103.24,351.29 1107.08,350.48 1110.92,352.10 1114.75,350.48 1118.59,350.48 1122.43,350.48 1126.27,350.07 1130.11,348.46 1133.94,351.29 1137.78,349.67 1141.62,351.29 1145.46,349.67 1149.30,348.86 1153.13,348.46 1156.97,348.46 1160.81,347.24 1164.65,348.86 1168.49,346.84 1172.32,348.46 1176.16,348.86 1180.00,346.84"/>
<circle cx="90.00" cy="540.55" r="3.2" fill="#1d4ed8"/>
<circle cx="93.84" cy="538.53" r="3.2" fill="#1d4ed8"/>
<circle cx="97.68" cy="536.91" r="3.2" fill="#1d4ed8"/>
<circle cx="101.51" cy="534.49" r="3.2" fill="#1d4ed8"/>
<circle cx="105.35" cy="534.49" r="3.2" fill="#1d4ed8"/>
<circle cx="109.19" cy="533.27" r="3.2" fill="#1d4ed8"/>
<circle cx="113.03" cy="532.46" r="3.2" fill="#1d4ed8"/>
<circle cx="116.87" cy="532.87" r="3.2" fill="#1d4ed8"/>
<circle cx="120.70" cy="532.06" r="3.2" fill="#1d4ed8"/>
<circle cx="124.54" cy="532.46" r="3.2" fill="#1d4ed8"/>
<circle cx="128.38" cy="532.06" r="3.2" fill="#1d4ed8"/>
<circle cx="132.22" cy="568.46" r="3.2" fill="#1d4ed8"/>
<circle cx="136.06" cy="568.46" r="3.2" fill="#1d4ed8"/>
<circle cx="139.89" cy="566.43" r="3.2" fill="#1d4ed8"/>
<circle cx="143.73" cy="545.00" r="3.2" fill="#1d4ed8"/>
<circle cx="147.57" cy="545.00" r="3.2" fill="#1d4ed8"/>
<circle cx="151.41" cy="544.19" r="3.2" fill="#1d4ed8"/>
<circle cx="155.25" cy="543.79" r="3.2" fill="#1d4ed8"/>
<circle cx="159.08" cy="543.79" r="3.2" fill="#1d4ed8"/>
<circle cx="162.92" cy="543.38" r="3.2" fill="#1d4ed8"/>
<circle cx="166.76" cy="541.76" r="3.2" fill="#1d4ed8"/>
<circle cx="170.60" cy="541.36" r="3.2" fill="#1d4ed8"/>
<circle cx="174.44" cy="540.96" r="3.2" fill="#1d4ed8"/>
<circle cx="178.27" cy="540.96" r="3.2" fill="#1d4ed8"/>
<circle cx="182.11" cy="539.34" r="3.2" fill="#1d4ed8"/>
<circle cx="185.95" cy="539.34" r="3.2" fill="#1d4ed8"/>
<circle cx="189.79" cy="556.73" r="3.2" fill="#1d4ed8"/>
<circle cx="193.63" cy="556.73" r="3.2" fill="#1d4ed8"/>
<circle cx="197.46" cy="555.51" r="3.2" fill="#1d4ed8"/>
<circle cx="201.30" cy="551.07" r="3.2" fill="#1d4ed8"/>
<circle cx="205.14" cy="538.93" r="3.2" fill="#1d4ed8"/>
<circle cx="208.98" cy="538.93" r="3.2" fill="#1d4ed8"/>
<circle cx="212.82" cy="538.93" r="3.2" fill="#1d4ed8"/>
<circle cx="216.65" cy="538.12" r="3.2" fill="#1d4ed8"/>
<circle cx="220.49" cy="536.91" r="3.2" fill="#1d4ed8"/>
<circle cx="224.33" cy="536.91" r="3.2" fill="#1d4ed8"/>
<circle cx="228.17" cy="536.51" r="3.2" fill="#1d4ed8"/>
<circle cx="232.01" cy="536.51" r="3.2" fill="#1d4ed8"/>
<circle cx="235.85" cy="556.73" r="3.2" fill="#1d4ed8"/>
<circle cx="239.68" cy="556.73" r="3.2" fill="#1d4ed8"/>
<circle cx="243.52" cy="556.73" r="3.2" fill="#1d4ed8"/>
<circle cx="247.36" cy="556.73" r="3.2" fill="#1d4ed8"/>
<circle cx="251.20" cy="535.29" r="3.2" fill="#1d4ed8"/>
<circle cx="255.04" cy="535.29" r="3.2" fill="#1d4ed8"/>
<circle cx="258.87" cy="535.29" r="3.2" fill="#1d4ed8"/>
<circle cx="262.71" cy="535.29" r="3.2" fill="#1d4ed8"/>
<circle cx="266.55" cy="534.49" r="3.2" fill="#1d4ed8"/>
<circle cx="270.39" cy="534.08" r="3.2" fill="#1d4ed8"/>
<circle cx="274.23" cy="533.68" r="3.2" fill="#1d4ed8"/>
<circle cx="278.06" cy="532.87" r="3.2" fill="#1d4ed8"/>
<circle cx="281.90" cy="532.06" r="3.2" fill="#1d4ed8"/>
<circle cx="285.74" cy="532.06" r="3.2" fill="#1d4ed8"/>
<circle cx="289.58" cy="531.25" r="3.2" fill="#1d4ed8"/>
<circle cx="293.42" cy="530.85" r="3.2" fill="#1d4ed8"/>
<circle cx="297.25" cy="530.44" r="3.2" fill="#1d4ed8"/>
<circle cx="301.09" cy="530.04" r="3.2" fill="#1d4ed8"/>
<circle cx="304.93" cy="530.04" r="3.2" fill="#1d4ed8"/>
<circle cx="308.77" cy="529.23" r="3.2" fill="#1d4ed8"/>
<circle cx="312.61" cy="529.23" r="3.2" fill="#1d4ed8"/>
<circle cx="316.44" cy="529.23" r="3.2" fill="#1d4ed8"/>
<circle cx="320.28" cy="528.42" r="3.2" fill="#1d4ed8"/>
<circle cx="324.12" cy="528.42" r="3.2" fill="#1d4ed8"/>
<circle cx="327.96" cy="527.61" r="3.2" fill="#1d4ed8"/>
<circle cx="331.80" cy="527.21" r="3.2" fill="#1d4ed8"/>
<circle cx="335.63" cy="526.80" r="3.2" fill="#1d4ed8"/>
<circle cx="339.47" cy="526.40" r="3.2" fill="#1d4ed8"/>
<circle cx="343.31" cy="525.18" r="3.2" fill="#1d4ed8"/>
<circle cx="347.15" cy="523.57" r="3.2" fill="#1d4ed8"/>
<circle cx="350.99" cy="523.57" r="3.2" fill="#1d4ed8"/>
<circle cx="354.82" cy="523.16" r="3.2" fill="#1d4ed8"/>
<circle cx="358.66" cy="522.76" r="3.2" fill="#1d4ed8"/>
<circle cx="362.50" cy="522.35" r="3.2" fill="#1d4ed8"/>
<circle cx="366.34" cy="521.54" r="3.2" fill="#1d4ed8"/>
<circle cx="370.18" cy="519.52" r="3.2" fill="#1d4ed8"/>
<circle cx="374.01" cy="517.50" r="3.2" fill="#1d4ed8"/>
<circle cx="377.85" cy="517.50" r="3.2" fill="#1d4ed8"/>
<circle cx="381.69" cy="517.50" r="3.2" fill="#1d4ed8"/>
<circle cx="385.53" cy="517.50" r="3.2" fill="#1d4ed8"/>
<circle cx="389.37" cy="517.50" r="3.2" fill="#1d4ed8"/>
<circle cx="393.20" cy="517.50" r="3.2" fill="#1d4ed8"/>
<circle cx="397.04" cy="517.10" r="3.2" fill="#1d4ed8"/>
<circle cx="400.88" cy="516.69" r="3.2" fill="#1d4ed8"/>
<circle cx="404.72" cy="515.48" r="3.2" fill="#1d4ed8"/>
<circle cx="408.56" cy="515.07" r="3.2" fill="#1d4ed8"/>
<circle cx="412.39" cy="514.67" r="3.2" fill="#1d4ed8"/>
<circle cx="416.23" cy="513.86" r="3.2" fill="#1d4ed8"/>
<circle cx="420.07" cy="514.26" r="3.2" fill="#1d4ed8"/>
<circle cx="423.91" cy="512.24" r="3.2" fill="#1d4ed8"/>
<circle cx="427.75" cy="511.84" r="3.2" fill="#1d4ed8"/>
<circle cx="431.58" cy="511.84" r="3.2" fill="#1d4ed8"/>
<circle cx="435.42" cy="511.03" r="3.2" fill="#1d4ed8"/>
<circle cx="439.26" cy="509.82" r="3.2" fill="#1d4ed8"/>
<circle cx="443.10" cy="507.79" r="3.2" fill="#1d4ed8"/>
<circle cx="446.94" cy="506.99" r="3.2" fill="#1d4ed8"/>
<circle cx="450.77" cy="506.58" r="3.2" fill="#1d4ed8"/>
<circle cx="454.61" cy="509.41" r="3.2" fill="#1d4ed8"/>
<circle cx="458.45" cy="509.01" r="3.2" fill="#1d4ed8"/>
<circle cx="462.29" cy="504.96" r="3.2" fill="#1d4ed8"/>
<circle cx="466.13" cy="504.56" r="3.2" fill="#1d4ed8"/>
<circle cx="469.96" cy="504.15" r="3.2" fill="#1d4ed8"/>
<circle cx="473.80" cy="504.56" r="3.2" fill="#1d4ed8"/>
<circle cx="477.64" cy="503.75" r="3.2" fill="#1d4ed8"/>
<circle cx="481.48" cy="503.75" r="3.2" fill="#1d4ed8"/>
<circle cx="485.32" cy="503.35" r="3.2" fill="#1d4ed8"/>
<circle cx="489.15" cy="499.30" r="3.2" fill="#1d4ed8"/>
<circle cx="492.99" cy="496.47" r="3.2" fill="#1d4ed8"/>
<circle cx="496.83" cy="490.00" r="3.2" fill="#1d4ed8"/>
<circle cx="500.67" cy="484.34" r="3.2" fill="#1d4ed8"/>
<circle cx="504.51" cy="481.10" r="3.2" fill="#1d4ed8"/>
<circle cx="508.35" cy="480.29" r="3.2" fill="#1d4ed8"/>
<circle cx="512.18" cy="480.70" r="3.2" fill="#1d4ed8"/>
<circle cx="516.02" cy="460.88" r="3.2" fill="#1d4ed8"/>
<circle cx="519.86" cy="459.26" r="3.2" fill="#1d4ed8"/>
<circle cx="523.70" cy="458.05" r="3.2" fill="#1d4ed8"/>
<circle cx="527.54" cy="456.03" r="3.2" fill="#1d4ed8"/>
<circle cx="531.37" cy="456.03" r="3.2" fill="#1d4ed8"/>
<circle cx="535.21" cy="454.41" r="3.2" fill="#1d4ed8"/>
<circle cx="539.05" cy="450.77" r="3.2" fill="#1d4ed8"/>
<circle cx="542.89" cy="444.30" r="3.2" fill="#1d4ed8"/>
<circle cx="546.73" cy="443.90" r="3.2" fill="#1d4ed8"/>
<circle cx="550.56" cy="600.00" r="3.2" fill="#1d4ed8"/>
<circle cx="554.40" cy="441.88" r="3.2" fill="#1d4ed8"/>
<circle cx="558.24" cy="440.66" r="3.2" fill="#1d4ed8"/>
<circle cx="562.08" cy="439.45" r="3.2" fill="#1d4ed8"/>
<circle cx="565.92" cy="439.04" r="3.2" fill="#1d4ed8"/>
<circle cx="569.75" cy="438.64" r="3.2" fill="#1d4ed8"/>
<circle cx="573.59" cy="437.83" r="3.2" fill="#1d4ed8"/>
<circle cx="577.43" cy="436.62" r="3.2" fill="#1d4ed8"/>
<circle cx="581.27" cy="436.62" r="3.2" fill="#1d4ed8"/>
<circle cx="585.11" cy="434.60" r="3.2" fill="#1d4ed8"/>
<circle cx="588.94" cy="432.17" r="3.2" fill="#1d4ed8"/>
<circle cx="592.78" cy="429.34" r="3.2" fill="#1d4ed8"/>
<circle cx="596.62" cy="428.93" r="3.2" fill="#1d4ed8"/>
<circle cx="600.46" cy="428.53" r="3.2" fill="#1d4ed8"/>
<circle cx="604.30" cy="427.72" r="3.2" fill="#1d4ed8"/>
<circle cx="608.13" cy="426.91" r="3.2" fill="#1d4ed8"/>
<circle cx="611.97" cy="426.10" r="3.2" fill="#1d4ed8"/>
<circle cx="615.81" cy="426.10" r="3.2" fill="#1d4ed8"/>
<circle cx="619.65" cy="426.10" r="3.2" fill="#1d4ed8"/>
<circle cx="623.49" cy="419.63" r="3.2" fill="#1d4ed8"/>
<circle cx="627.32" cy="419.23" r="3.2" fill="#1d4ed8"/>
<circle cx="631.16" cy="418.42" r="3.2" fill="#1d4ed8"/>
<circle cx="635.00" cy="418.01" r="3.2" fill="#1d4ed8"/>
<circle cx="638.84" cy="417.61" r="3.2" fill="#1d4ed8"/>
<circle cx="642.68" cy="417.61" r="3.2" fill="#1d4ed8"/>
<circle cx="646.51" cy="417.61" r="3.2" fill="#1d4ed8"/>
<circle cx="650.35" cy="417.21" r="3.2" fill="#1d4ed8"/>
<circle cx="654.19" cy="417.21" r="3.2" fill="#1d4ed8"/>
<circle cx="658.03" cy="413.57" r="3.2" fill="#1d4ed8"/>
<circle cx="661.87" cy="411.95" r="3.2" fill="#1d4ed8"/>
<circle cx="665.70" cy="412.76" r="3.2" fill="#1d4ed8"/>
<circle cx="669.54" cy="410.74" r="3.2" fill="#1d4ed8"/>
<circle cx="673.38" cy="410.74" r="3.2" fill="#1d4ed8"/>
<circle cx="677.22" cy="410.33" r="3.2" fill="#1d4ed8"/>
<circle cx="681.06" cy="410.33" r="3.2" fill="#1d4ed8"/>
<circle cx="684.89" cy="410.33" r="3.2" fill="#1d4ed8"/>
<circle cx="688.73" cy="409.93" r="3.2" fill="#1d4ed8"/>
<circle cx="692.57" cy="409.93" r="3.2" fill="#1d4ed8"/>
<circle cx="696.41" cy="409.93" r="3.2" fill="#1d4ed8"/>
<circle cx="700.25" cy="409.52" r="3.2" fill="#1d4ed8"/>
<circle cx="704.08" cy="409.52" r="3.2" fill="#1d4ed8"/>
<circle cx="707.92" cy="409.12" r="3.2" fill="#1d4ed8"/>
<circle cx="711.76" cy="409.52" r="3.2" fill="#1d4ed8"/>
<circle cx="715.60" cy="409.12" r="3.2" fill="#1d4ed8"/>
<circle cx="719.44" cy="407.50" r="3.2" fill="#1d4ed8"/>
<circle cx="723.27" cy="407.10" r="3.2" fill="#1d4ed8"/>
<circle cx="727.11" cy="403.05" r="3.2" fill="#1d4ed8"/>
<circle cx="730.95" cy="399.82" r="3.2" fill="#1d4ed8"/>
<circle cx="734.79" cy="400.22" r="3.2" fill="#1d4ed8"/>
<circle cx="738.63" cy="400.62" r="3.2" fill="#1d4ed8"/>
<circle cx="742.46" cy="400.62" r="3.2" fill="#1d4ed8"/>
<circle cx="746.30" cy="399.41" r="3.2" fill="#1d4ed8"/>
<circle cx="750.14" cy="392.94" r="3.2" fill="#1d4ed8"/>
<circle cx="753.98" cy="391.32" r="3.2" fill="#1d4ed8"/>
<circle cx="757.82" cy="389.30" r="3.2" fill="#1d4ed8"/>
<circle cx="761.65" cy="389.30" r="3.2" fill="#1d4ed8"/>
<circle cx="765.49" cy="388.49" r="3.2" fill="#1d4ed8"/>
<circle cx="769.33" cy="375.15" r="3.2" fill="#1d4ed8"/>
<circle cx="773.17" cy="374.74" r="3.2" fill="#1d4ed8"/>
<circle cx="777.01" cy="374.74" r="3.2" fill="#1d4ed8"/>
<circle cx="780.85" cy="374.74" r="3.2" fill="#1d4ed8"/>
<circle cx="784.68" cy="374.74" r="3.2" fill="#1d4ed8"/>
<circle cx="788.52" cy="374.34" r="3.2" fill="#1d4ed8"/>
<circle cx="792.36" cy="374.34" r="3.2" fill="#1d4ed8"/>
<circle cx="796.20" cy="374.34" r="3.2" fill="#1d4ed8"/>
<circle cx="800.04" cy="374.34" r="3.2" fill="#1d4ed8"/>
<circle cx="803.87" cy="374.34" r="3.2" fill="#1d4ed8"/>
<circle cx="807.71" cy="373.93" r="3.2" fill="#1d4ed8"/>
<circle cx="811.55" cy="373.12" r="3.2" fill="#1d4ed8"/>
<circle cx="815.39" cy="372.72" r="3.2" fill="#1d4ed8"/>
<circle cx="819.23" cy="373.53" r="3.2" fill="#1d4ed8"/>
<circle cx="823.06" cy="435.81" r="3.2" fill="#1d4ed8"/>
<circle cx="826.90" cy="372.32" r="3.2" fill="#1d4ed8"/>
<circle cx="830.74" cy="372.72" r="3.2" fill="#1d4ed8"/>
<circle cx="834.58" cy="371.91" r="3.2" fill="#1d4ed8"/>
<circle cx="838.42" cy="371.91" r="3.2" fill="#1d4ed8"/>
<circle cx="842.25" cy="372.32" r="3.2" fill="#1d4ed8"/>
<circle cx="846.09" cy="371.10" r="3.2" fill="#1d4ed8"/>
<circle cx="849.93" cy="369.89" r="3.2" fill="#1d4ed8"/>
<circle cx="853.77" cy="369.89" r="3.2" fill="#1d4ed8"/>
<circle cx="857.61" cy="369.89" r="3.2" fill="#1d4ed8"/>
<circle cx="861.44" cy="369.49" r="3.2" fill="#1d4ed8"/>
<circle cx="865.28" cy="369.89" r="3.2" fill="#1d4ed8"/>
<circle cx="869.12" cy="369.08" r="3.2" fill="#1d4ed8"/>
<circle cx="872.96" cy="368.68" r="3.2" fill="#1d4ed8"/>
<circle cx="876.80" cy="368.27" r="3.2" fill="#1d4ed8"/>
<circle cx="880.63" cy="367.87" r="3.2" fill="#1d4ed8"/>
<circle cx="884.47" cy="367.06" r="3.2" fill="#1d4ed8"/>
<circle cx="888.31" cy="367.46" r="3.2" fill="#1d4ed8"/>
<circle cx="892.15" cy="367.06" r="3.2" fill="#1d4ed8"/>
<circle cx="895.99" cy="366.25" r="3.2" fill="#1d4ed8"/>
<circle cx="899.82" cy="368.27" r="3.2" fill="#1d4ed8"/>
<circle cx="903.66" cy="368.68" r="3.2" fill="#1d4ed8"/>
<circle cx="907.50" cy="368.68" r="3.2" fill="#1d4ed8"/>
<circle cx="911.34" cy="368.27" r="3.2" fill="#1d4ed8"/>
<circle cx="915.18" cy="369.08" r="3.2" fill="#1d4ed8"/>
<circle cx="919.01" cy="367.87" r="3.2" fill="#1d4ed8"/>
<circle cx="922.85" cy="367.46" r="3.2" fill="#1d4ed8"/>
<circle cx="926.69" cy="367.06" r="3.2" fill="#1d4ed8"/>
<circle cx="930.53" cy="360.18" r="3.2" fill="#1d4ed8"/>
<circle cx="934.37" cy="359.78" r="3.2" fill="#1d4ed8"/>
<circle cx="938.20" cy="359.38" r="3.2" fill="#1d4ed8"/>
<circle cx="942.04" cy="356.95" r="3.2" fill="#1d4ed8"/>
<circle cx="945.88" cy="357.35" r="3.2" fill="#1d4ed8"/>
<circle cx="949.72" cy="357.76" r="3.2" fill="#1d4ed8"/>
<circle cx="953.56" cy="355.33" r="3.2" fill="#1d4ed8"/>
<circle cx="957.39" cy="355.74" r="3.2" fill="#1d4ed8"/>
<circle cx="961.23" cy="357.35" r="3.2" fill="#1d4ed8"/>
<circle cx="965.07" cy="355.33" r="3.2" fill="#1d4ed8"/>
<circle cx="968.91" cy="356.14" r="3.2" fill="#1d4ed8"/>
<circle cx="972.75" cy="355.74" r="3.2" fill="#1d4ed8"/>
<circle cx="976.58" cy="356.14" r="3.2" fill="#1d4ed8"/>
<circle cx="980.42" cy="354.12" r="3.2" fill="#1d4ed8"/>
<circle cx="984.26" cy="354.93" r="3.2" fill="#1d4ed8"/>
<circle cx="988.10" cy="356.14" r="3.2" fill="#1d4ed8"/>
<circle cx="991.94" cy="354.52" r="3.2" fill="#1d4ed8"/>
<circle cx="995.77" cy="353.71" r="3.2" fill="#1d4ed8"/>
<circle cx="999.61" cy="354.12" r="3.2" fill="#1d4ed8"/>
<circle cx="1003.45" cy="354.93" r="3.2" fill="#1d4ed8"/>
<circle cx="1007.29" cy="352.90" r="3.2" fill="#1d4ed8"/>
<circle cx="1011.13" cy="353.71" r="3.2" fill="#1d4ed8"/>
<circle cx="1014.96" cy="353.31" r="3.2" fill="#1d4ed8"/>
<circle cx="1018.80" cy="353.31" r="3.2" fill="#1d4ed8"/>
<circle cx="1022.64" cy="354.52" r="3.2" fill="#1d4ed8"/>
<circle cx="1026.48" cy="352.90" r="3.2" fill="#1d4ed8"/>
<circle cx="1030.32" cy="352.50" r="3.2" fill="#1d4ed8"/>
<circle cx="1034.15" cy="352.50" r="3.2" fill="#1d4ed8"/>
<circle cx="1037.99" cy="353.31" r="3.2" fill="#1d4ed8"/>
<circle cx="1041.83" cy="352.50" r="3.2" fill="#1d4ed8"/>
<circle cx="1045.67" cy="353.71" r="3.2" fill="#1d4ed8"/>
<circle cx="1049.51" cy="354.12" r="3.2" fill="#1d4ed8"/>
<circle cx="1053.35" cy="352.50" r="3.2" fill="#1d4ed8"/>
<circle cx="1057.18" cy="352.90" r="3.2" fill="#1d4ed8"/>
<circle cx="1061.02" cy="352.50" r="3.2" fill="#1d4ed8"/>
<circle cx="1064.86" cy="352.10" r="3.2" fill="#1d4ed8"/>
<circle cx="1068.70" cy="351.69" r="3.2" fill="#1d4ed8"/>
<circle cx="1072.54" cy="352.10" r="3.2" fill="#1d4ed8"/>
<circle cx="1076.37" cy="354.12" r="3.2" fill="#1d4ed8"/>
<circle cx="1080.21" cy="352.50" r="3.2" fill="#1d4ed8"/>
<circle cx="1084.05" cy="352.10" r="3.2" fill="#1d4ed8"/>
<circle cx="1087.89" cy="352.10" r="3.2" fill="#1d4ed8"/>
<circle cx="1091.73" cy="349.67" r="3.2" fill="#1d4ed8"/>
<circle cx="1095.56" cy="349.67" r="3.2" fill="#1d4ed8"/>
<circle cx="1099.40" cy="350.88" r="3.2" fill="#1d4ed8"/>
<circle cx="1103.24" cy="351.29" r="3.2" fill="#1d4ed8"/>
<circle cx="1107.08" cy="350.48" r="3.2" fill="#1d4ed8"/>
<circle cx="1110.92" cy="352.10" r="3.2" fill="#1d4ed8"/>
<circle cx="1114.75" cy="350.48" r="3.2" fill="#1d4ed8"/>
<circle cx="1118.59" cy="350.48" r="3.2" fill="#1d4ed8"/>
<circle cx="1122.43" cy="350.48" r="3.2" fill="#1d4ed8"/>
<circle cx="1126.27" cy="350.07" r="3.2" fill="#1d4ed8"/>
<circle cx="1130.11" cy="348.46" r="3.2" fill="#1d4ed8"/>
<circle cx="1133.94" cy="351.29" r="3.2" fill="#1d4ed8"/>
<circle cx="1137.78" cy="349.67" r="3.2" fill="#1d4ed8"/>
<circle cx="1141.62" cy="351.29" r="3.2" fill="#1d4ed8"/>
<circle cx="1145.46" cy="349.67" r="3.2" fill="#1d4ed8"/>
<circle cx="1149.30" cy="348.86" r="3.2" fill="#1d4ed8"/>
<circle cx="1153.13" cy="348.46" r="3.2" fill="#1d4ed8"/>
<circle cx="1156.97" cy="348.46" r="3.2" fill="#1d4ed8"/>
<circle cx="1160.81" cy="347.24" r="3.2" fill="#1d4ed8"/>
<circle cx="1164.65" cy="348.86" r="3.2" fill="#1d4ed8"/>
<circle cx="1168.49" cy="346.84" r="3.2" fill="#1d4ed8"/>
<circle cx="1172.32" cy="348.46" r="3.2" fill="#1d4ed8"/>
<circle cx="1176.16" cy="348.86" r="3.2" fill="#1d4ed8"/>
<circle cx="1180.00" cy="346.84" r="3.2" fill="#1d4ed8"/>
<text x="635" y="695" text-anchor="middle" font-size="14" fill="#111" font-family="sans-serif">Date</text>
<text x="24" y="325" text-anchor="middle" font-size="14" fill="#111" transform="rotate(-90 24,325)" font-family="sans-serif">Passed files</text>
</svg>
