<?xml version="1.0" encoding="UTF-8"?>
<svg xmlns="http://www.w3.org/2000/svg" width="1280" height="720" viewBox="0 0 1280 720">
<rect width="100%" height="100%" fill="#ffffff"/>
<text x="640" y="30" text-anchor="middle" font-size="22" font-family="sans-serif">Roast passed files history</text>
<line x1="90" y1="600" x2="1180" y2="600" stroke="#333" stroke-width="1.5"/>
<line x1="90" y1="50" x2="90" y2="600" stroke="#333" stroke-width="1.5"/>
<line x1="90" y1="600.00" x2="1180" y2="600.00" stroke="#e5e7eb" stroke-width="1"/>
<text x="78" y="605.00" text-anchor="end" font-size="12" fill="#111" font-family="sans-serif">0</text>
<line x1="90" y1="397.79" x2="1180" y2="397.79" stroke="#e5e7eb" stroke-width="1"/>
<text x="78" y="402.79" text-anchor="end" font-size="12" fill="#111" font-family="sans-serif">500</text>
<line x1="90" y1="195.59" x2="1180" y2="195.59" stroke="#e5e7eb" stroke-width="1"/>
<text x="78" y="200.59" text-anchor="end" font-size="12" fill="#111" font-family="sans-serif">1000</text>
<line x1="90.00" y1="600" x2="90.00" y2="606" stroke="#333" stroke-width="1"/>
<text x="90.00" y="624" text-anchor="end" font-size="11" fill="#111" transform="rotate(-40 90.00,624)" font-family="sans-serif">2026-02-12</text>
<line x1="224.48" y1="600" x2="224.48" y2="606" stroke="#333" stroke-width="1"/>
<text x="224.48" y="624" text-anchor="end" font-size="11" fill="#111" transform="rotate(-40 224.48,624)" font-family="sans-serif">2026-02-17</text>
<line x1="358.96" y1="600" x2="358.96" y2="606" stroke="#333" stroke-width="1"/>
<text x="358.96" y="624" text-anchor="end" font-size="11" fill="#111" transform="rotate(-40 358.96,624)" font-family="sans-serif">2026-02-20</text>
<line x1="493.44" y1="600" x2="493.44" y2="606" stroke="#333" stroke-width="1"/>
<text x="493.44" y="624" text-anchor="end" font-size="11" fill="#111" transform="rotate(-40 493.44,624)" font-family="sans-serif">2026-02-24</text>
<line x1="627.92" y1="600" x2="627.92" y2="606" stroke="#333" stroke-width="1"/>
<text x="627.92" y="624" text-anchor="end" font-size="11" fill="#111" transform="rotate(-40 627.92,624)" font-family="sans-serif">2026-02-26</text>
<line x1="762.40" y1="600" x2="762.40" y2="606" stroke="#333" stroke-width="1"/>
<text x="762.40" y="624" text-anchor="end" font-size="11" fill="#111" transform="rotate(-40 762.40,624)" font-family="sans-serif">2026-02-28</text>
<line x1="896.88" y1="600" x2="896.88" y2="606" stroke="#333" stroke-width="1"/>
<text x="896.88" y="624" text-anchor="end" font-size="11" fill="#111" transform="rotate(-40 896.88,624)" font-family="sans-serif">2026-03-06</text>
<line x1="1031.36" y1="600" x2="1031.36" y2="606" stroke="#333" stroke-width="1"/>
<text x="1031.36" y="624" text-anchor="end" font-size="11" fill="#111" transform="rotate(-40 1031.36,624)" font-family="sans-serif">2026-03-06</text>
<line x1="1165.84" y1="600" x2="1165.84" y2="606" stroke="#333" stroke-width="1"/>
<text x="1165.84" y="624" text-anchor="end" font-size="11" fill="#111" transform="rotate(-40 1165.84,624)" font-family="sans-serif">2026-03-11</text>
<line x1="1180.00" y1="600" x2="1180.00" y2="606" stroke="#333" stroke-width="1"/>
<text x="1180.00" y="624" text-anchor="end" font-size="11" fill="#111" transform="rotate(-40 1180.00,624)" font-family="sans-serif">2026-03-11</text>
<line x1="90" y1="75.88" x2="1180" y2="75.88" stroke="#dc2626" stroke-width="1.5" stroke-dasharray="8,4"/>
<text x="1184" y="79.88" font-size="12" fill="#dc2626" font-family="sans-serif">Goal: 1296</text>
<polyline fill="none" stroke="#2563eb" stroke-width="3" points="90.00,540.55 93.54,538.53 97.08,536.91 100.62,534.49 104.16,534.49 107.69,533.27 111.23,532.46 114.77,532.87 118.31,532.06 121.85,532.46 125.39,532.06 128.93,568.46 132.47,568.46 136.01,566.43 139.55,545.00 143.08,545.00 146.62,544.19 150.16,543.79 153.70,543.79 157.24,543.38 160.78,541.76 164.32,541.36 167.86,540.96 171.40,540.96 174.94,539.34 178.47,539.34 182.01,556.73 185.55,556.73 189.09,555.51 192.63,551.07 196.17,538.93 199.71,538.93 203.25,538.93 206.79,538.12 210.32,536.91 213.86,536.91 217.40,536.51 220.94,536.51 224.48,556.73 228.02,556.73 231.56,556.73 235.10,556.73 238.64,535.29 242.18,535.29 245.71,535.29 249.25,535.29 252.79,534.49 256.33,534.08 259.87,533.68 263.41,532.87 266.95,532.06 270.49,532.06 274.03,531.25 277.56,530.85 281.10,530.44 284.64,530.04 288.18,530.04 291.72,529.23 295.26,529.23 298.80,529.23 302.34,528.42 305.88,528.42 309.42,527.61 312.95,527.21 316.49,526.80 320.03,526.40 323.57,525.18 327.11,523.57 330.65,523.57 334.19,523.16 337.73,522.76 341.27,522.35 344.81,521.54 348.34,519.52 351.88,517.50 355.42,517.50 358.96,517.50 362.50,517.50 366.04,517.50 369.58,517.50 373.12,517.10 376.66,516.69 380.19,515.48 383.73,515.07 387.27,514.67 390.81,513.86 394.35,514.26 397.89,512.24 401.43,511.84 404.97,511.84 408.51,511.03 412.05,509.82 415.58,507.79 419.12,506.99 422.66,506.58 426.20,509.41 429.74,509.01 433.28,504.96 436.82,504.56 440.36,504.15 443.90,504.56 447.44,503.75 450.97,503.75 454.51,503.35 458.05,499.30 461.59,496.47 465.13,490.00 468.67,484.34 472.21,481.10 475.75,480.29 479.29,480.70 482.82,460.88 486.36,459.26 489.90,458.05 493.44,456.03 496.98,456.03 500.52,454.41 504.06,450.77 507.60,444.30 511.14,443.90 514.68,600.00 518.21,441.88 521.75,440.66 525.29,439.45 528.83,439.04 532.37,438.64 535.91,437.83 539.45,436.62 542.99,436.62 546.53,434.60 550.06,432.17 553.60,429.34 557.14,428.93 560.68,428.53 564.22,427.72 567.76,426.91 571.30,426.10 574.84,426.10 578.38,426.10 581.92,419.63 585.45,419.23 588.99,418.42 592.53,418.01 596.07,417.61 599.61,417.61 603.15,417.61 606.69,417.21 610.23,417.21 613.77,413.57 617.31,411.95 620.84,412.76 624.38,410.74 627.92,410.74 631.46,410.33 635.00,410.33 638.54,410.33 642.08,409.93 645.62,409.93 649.16,409.93 652.69,409.52 656.23,409.52 659.77,409.12 663.31,409.52 666.85,409.12 670.39,407.50 673.93,407.10 677.47,403.05 681.01,399.82 684.55,400.22 688.08,400.62 691.62,400.62 695.16,399.41 698.70,392.94 702.24,391.32 705.78,389.30 709.32,389.30 712.86,388.49 716.40,375.15 719.94,374.74 723.47,374.74 727.01,374.74 730.55,374.74 734.09,374.34 737.63,374.34 741.17,374.34 744.71,374.34 748.25,374.34 751.79,373.93 755.32,373.12 758.86,372.72 762.40,373.53 765.94,435.81 769.48,372.32 773.02,372.72 776.56,371.91 780.10,371.91 783.64,372.32 787.18,371.10 790.71,369.89 794.25,369.89 797.79,369.89 801.33,369.49 804.87,369.89 808.41,369.08 811.95,368.68 815.49,368.27 819.03,367.87 822.56,367.06 826.10,367.46 829.64,367.06 833.18,366.25 836.72,368.27 840.26,368.68 843.80,368.68 847.34,368.27 850.88,369.08 854.42,367.87 857.95,367.46 861.49,367.06 865.03,360.18 868.57,359.78 872.11,359.38 875.65,356.95 879.19,357.35 882.73,357.76 886.27,355.33 889.81,355.74 893.34,357.35 896.88,355.33 900.42,356.14 903.96,355.74 907.50,356.14 911.04,354.12 914.58,354.93 918.12,356.14 921.66,354.52 925.19,353.71 928.73,354.12 932.27,354.93 935.81,352.90 939.35,353.71 942.89,353.31 946.43,353.31 949.97,354.52 953.51,352.90 957.05,352.50 960.58,352.50 964.12,353.31 967.66,352.50 971.20,353.71 974.74,354.12 978.28,352.50 981.82,352.90 985.36,352.50 988.90,352.10 992.44,351.69 995.97,352.10 999.51,354.12 1003.05,352.50 1006.59,352.10 1010.13,352.10 1013.67,349.67 1017.21,349.67 1020.75,350.88 1024.29,351.29 1027.82,350.48 1031.36,352.10 1034.90,350.48 1038.44,350.48 1041.98,350.48 1045.52,350.07 1049.06,348.46 1052.60,351.29 1056.14,349.67 1059.68,351.29 1063.21,349.67 1066.75,348.86 1070.29,348.46 1073.83,348.46 1077.37,347.24 1080.91,348.86 1084.45,346.84 1087.99,348.46 1091.53,348.86 1095.06,346.84 1098.60,349.26 1102.14,348.05 1105.68,349.26 1109.22,349.26 1112.76,350.48 1116.30,352.90 1119.84,349.67 1123.38,348.46 1126.92,345.62 1130.45,344.82 1133.99,344.41 1137.53,342.39 1141.07,341.18 1144.61,341.58 1148.15,339.15 1151.69,338.35 1155.23,337.54 1158.77,336.73 1162.31,335.92 1165.84,337.54 1169.38,338.35 1172.92,337.54 1176.46,337.54 1180.00,337.54"/>
<circle cx="90.00" cy="540.55" r="3.2" fill="#1d4ed8"/>
<circle cx="93.54" cy="538.53" r="3.2" fill="#1d4ed8"/>
<circle cx="97.08" cy="536.91" r="3.2" fill="#1d4ed8"/>
<circle cx="100.62" cy="534.49" r="3.2" fill="#1d4ed8"/>
<circle cx="104.16" cy="534.49" r="3.2" fill="#1d4ed8"/>
<circle cx="107.69" cy="533.27" r="3.2" fill="#1d4ed8"/>
<circle cx="111.23" cy="532.46" r="3.2" fill="#1d4ed8"/>
<circle cx="114.77" cy="532.87" r="3.2" fill="#1d4ed8"/>
<circle cx="118.31" cy="532.06" r="3.2" fill="#1d4ed8"/>
<circle cx="121.85" cy="532.46" r="3.2" fill="#1d4ed8"/>
<circle cx="125.39" cy="532.06" r="3.2" fill="#1d4ed8"/>
<circle cx="128.93" cy="568.46" r="3.2" fill="#1d4ed8"/>
<circle cx="132.47" cy="568.46" r="3.2" fill="#1d4ed8"/>
<circle cx="136.01" cy="566.43" r="3.2" fill="#1d4ed8"/>
<circle cx="139.55" cy="545.00" r="3.2" fill="#1d4ed8"/>
<circle cx="143.08" cy="545.00" r="3.2" fill="#1d4ed8"/>
<circle cx="146.62" cy="544.19" r="3.2" fill="#1d4ed8"/>
<circle cx="150.16" cy="543.79" r="3.2" fill="#1d4ed8"/>
<circle cx="153.70" cy="543.79" r="3.2" fill="#1d4ed8"/>
<circle cx="157.24" cy="543.38" r="3.2" fill="#1d4ed8"/>
<circle cx="160.78" cy="541.76" r="3.2" fill="#1d4ed8"/>
<circle cx="164.32" cy="541.36" r="3.2" fill="#1d4ed8"/>
<circle cx="167.86" cy="540.96" r="3.2" fill="#1d4ed8"/>
<circle cx="171.40" cy="540.96" r="3.2" fill="#1d4ed8"/>
<circle cx="174.94" cy="539.34" r="3.2" fill="#1d4ed8"/>
<circle cx="178.47" cy="539.34" r="3.2" fill="#1d4ed8"/>
<circle cx="182.01" cy="556.73" r="3.2" fill="#1d4ed8"/>
<circle cx="185.55" cy="556.73" r="3.2" fill="#1d4ed8"/>
<circle cx="189.09" cy="555.51" r="3.2" fill="#1d4ed8"/>
<circle cx="192.63" cy="551.07" r="3.2" fill="#1d4ed8"/>
<circle cx="196.17" cy="538.93" r="3.2" fill="#1d4ed8"/>
<circle cx="199.71" cy="538.93" r="3.2" fill="#1d4ed8"/>
<circle cx="203.25" cy="538.93" r="3.2" fill="#1d4ed8"/>
<circle cx="206.79" cy="538.12" r="3.2" fill="#1d4ed8"/>
<circle cx="210.32" cy="536.91" r="3.2" fill="#1d4ed8"/>
<circle cx="213.86" cy="536.91" r="3.2" fill="#1d4ed8"/>
<circle cx="217.40" cy="536.51" r="3.2" fill="#1d4ed8"/>
<circle cx="220.94" cy="536.51" r="3.2" fill="#1d4ed8"/>
<circle cx="224.48" cy="556.73" r="3.2" fill="#1d4ed8"/>
<circle cx="228.02" cy="556.73" r="3.2" fill="#1d4ed8"/>
<circle cx="231.56" cy="556.73" r="3.2" fill="#1d4ed8"/>
<circle cx="235.10" cy="556.73" r="3.2" fill="#1d4ed8"/>
<circle cx="238.64" cy="535.29" r="3.2" fill="#1d4ed8"/>
<circle cx="242.18" cy="535.29" r="3.2" fill="#1d4ed8"/>
<circle cx="245.71" cy="535.29" r="3.2" fill="#1d4ed8"/>
<circle cx="249.25" cy="535.29" r="3.2" fill="#1d4ed8"/>
<circle cx="252.79" cy="534.49" r="3.2" fill="#1d4ed8"/>
<circle cx="256.33" cy="534.08" r="3.2" fill="#1d4ed8"/>
<circle cx="259.87" cy="533.68" r="3.2" fill="#1d4ed8"/>
<circle cx="263.41" cy="532.87" r="3.2" fill="#1d4ed8"/>
<circle cx="266.95" cy="532.06" r="3.2" fill="#1d4ed8"/>
<circle cx="270.49" cy="532.06" r="3.2" fill="#1d4ed8"/>
<circle cx="274.03" cy="531.25" r="3.2" fill="#1d4ed8"/>
<circle cx="277.56" cy="530.85" r="3.2" fill="#1d4ed8"/>
<circle cx="281.10" cy="530.44" r="3.2" fill="#1d4ed8"/>
<circle cx="284.64" cy="530.04" r="3.2" fill="#1d4ed8"/>
<circle cx="288.18" cy="530.04" r="3.2" fill="#1d4ed8"/>
<circle cx="291.72" cy="529.23" r="3.2" fill="#1d4ed8"/>
<circle cx="295.26" cy="529.23" r="3.2" fill="#1d4ed8"/>
<circle cx="298.80" cy="529.23" r="3.2" fill="#1d4ed8"/>
<circle cx="302.34" cy="528.42" r="3.2" fill="#1d4ed8"/>
<circle cx="305.88" cy="528.42" r="3.2" fill="#1d4ed8"/>
<circle cx="309.42" cy="527.61" r="3.2" fill="#1d4ed8"/>
<circle cx="312.95" cy="527.21" r="3.2" fill="#1d4ed8"/>
<circle cx="316.49" cy="526.80" r="3.2" fill="#1d4ed8"/>
<circle cx="320.03" cy="526.40" r="3.2" fill="#1d4ed8"/>
<circle cx="323.57" cy="525.18" r="3.2" fill="#1d4ed8"/>
<circle cx="327.11" cy="523.57" r="3.2" fill="#1d4ed8"/>
<circle cx="330.65" cy="523.57" r="3.2" fill="#1d4ed8"/>
<circle cx="334.19" cy="523.16" r="3.2" fill="#1d4ed8"/>
<circle cx="337.73" cy="522.76" r="3.2" fill="#1d4ed8"/>
<circle cx="341.27" cy="522.35" r="3.2" fill="#1d4ed8"/>
<circle cx="344.81" cy="521.54" r="3.2" fill="#1d4ed8"/>
<circle cx="348.34" cy="519.52" r="3.2" fill="#1d4ed8"/>
<circle cx="351.88" cy="517.50" r="3.2" fill="#1d4ed8"/>
<circle cx="355.42" cy="517.50" r="3.2" fill="#1d4ed8"/>
<circle cx="358.96" cy="517.50" r="3.2" fill="#1d4ed8"/>
<circle cx="362.50" cy="517.50" r="3.2" fill="#1d4ed8"/>
<circle cx="366.04" cy="517.50" r="3.2" fill="#1d4ed8"/>
<circle cx="369.58" cy="517.50" r="3.2" fill="#1d4ed8"/>
<circle cx="373.12" cy="517.10" r="3.2" fill="#1d4ed8"/>
<circle cx="376.66" cy="516.69" r="3.2" fill="#1d4ed8"/>
<circle cx="380.19" cy="515.48" r="3.2" fill="#1d4ed8"/>
<circle cx="383.73" cy="515.07" r="3.2" fill="#1d4ed8"/>
<circle cx="387.27" cy="514.67" r="3.2" fill="#1d4ed8"/>
<circle cx="390.81" cy="513.86" r="3.2" fill="#1d4ed8"/>
<circle cx="394.35" cy="514.26" r="3.2" fill="#1d4ed8"/>
<circle cx="397.89" cy="512.24" r="3.2" fill="#1d4ed8"/>
<circle cx="401.43" cy="511.84" r="3.2" fill="#1d4ed8"/>
<circle cx="404.97" cy="511.84" r="3.2" fill="#1d4ed8"/>
<circle cx="408.51" cy="511.03" r="3.2" fill="#1d4ed8"/>
<circle cx="412.05" cy="509.82" r="3.2" fill="#1d4ed8"/>
<circle cx="415.58" cy="507.79" r="3.2" fill="#1d4ed8"/>
<circle cx="419.12" cy="506.99" r="3.2" fill="#1d4ed8"/>
<circle cx="422.66" cy="506.58" r="3.2" fill="#1d4ed8"/>
<circle cx="426.20" cy="509.41" r="3.2" fill="#1d4ed8"/>
<circle cx="429.74" cy="509.01" r="3.2" fill="#1d4ed8"/>
<circle cx="433.28" cy="504.96" r="3.2" fill="#1d4ed8"/>
<circle cx="436.82" cy="504.56" r="3.2" fill="#1d4ed8"/>
<circle cx="440.36" cy="504.15" r="3.2" fill="#1d4ed8"/>
<circle cx="443.90" cy="504.56" r="3.2" fill="#1d4ed8"/>
<circle cx="447.44" cy="503.75" r="3.2" fill="#1d4ed8"/>
<circle cx="450.97" cy="503.75" r="3.2" fill="#1d4ed8"/>
<circle cx="454.51" cy="503.35" r="3.2" fill="#1d4ed8"/>
<circle cx="458.05" cy="499.30" r="3.2" fill="#1d4ed8"/>
<circle cx="461.59" cy="496.47" r="3.2" fill="#1d4ed8"/>
<circle cx="465.13" cy="490.00" r="3.2" fill="#1d4ed8"/>
<circle cx="468.67" cy="484.34" r="3.2" fill="#1d4ed8"/>
<circle cx="472.21" cy="481.10" r="3.2" fill="#1d4ed8"/>
<circle cx="475.75" cy="480.29" r="3.2" fill="#1d4ed8"/>
<circle cx="479.29" cy="480.70" r="3.2" fill="#1d4ed8"/>
<circle cx="482.82" cy="460.88" r="3.2" fill="#1d4ed8"/>
<circle cx="486.36" cy="459.26" r="3.2" fill="#1d4ed8"/>
<circle cx="489.90" cy="458.05" r="3.2" fill="#1d4ed8"/>
<circle cx="493.44" cy="456.03" r="3.2" fill="#1d4ed8"/>
<circle cx="496.98" cy="456.03" r="3.2" fill="#1d4ed8"/>
<circle cx="500.52" cy="454.41" r="3.2" fill="#1d4ed8"/>
<circle cx="504.06" cy="450.77" r="3.2" fill="#1d4ed8"/>
<circle cx="507.60" cy="444.30" r="3.2" fill="#1d4ed8"/>
<circle cx="511.14" cy="443.90" r="3.2" fill="#1d4ed8"/>
<circle cx="514.68" cy="600.00" r="3.2" fill="#1d4ed8"/>
<circle cx="518.21" cy="441.88" r="3.2" fill="#1d4ed8"/>
<circle cx="521.75" cy="440.66" r="3.2" fill="#1d4ed8"/>
<circle cx="525.29" cy="439.45" r="3.2" fill="#1d4ed8"/>
<circle cx="528.83" cy="439.04" r="3.2" fill="#1d4ed8"/>
<circle cx="532.37" cy="438.64" r="3.2" fill="#1d4ed8"/>
<circle cx="535.91" cy="437.83" r="3.2" fill="#1d4ed8"/>
<circle cx="539.45" cy="436.62" r="3.2" fill="#1d4ed8"/>
<circle cx="542.99" cy="436.62" r="3.2" fill="#1d4ed8"/>
<circle cx="546.53" cy="434.60" r="3.2" fill="#1d4ed8"/>
<circle cx="550.06" cy="432.17" r="3.2" fill="#1d4ed8"/>
<circle cx="553.60" cy="429.34" r="3.2" fill="#1d4ed8"/>
<circle cx="557.14" cy="428.93" r="3.2" fill="#1d4ed8"/>
<circle cx="560.68" cy="428.53" r="3.2" fill="#1d4ed8"/>
<circle cx="564.22" cy="427.72" r="3.2" fill="#1d4ed8"/>
<circle cx="567.76" cy="426.91" r="3.2" fill="#1d4ed8"/>
<circle cx="571.30" cy="426.10" r="3.2" fill="#1d4ed8"/>
<circle cx="574.84" cy="426.10" r="3.2" fill="#1d4ed8"/>
<circle cx="578.38" cy="426.10" r="3.2" fill="#1d4ed8"/>
<circle cx="581.92" cy="419.63" r="3.2" fill="#1d4ed8"/>
<circle cx="585.45" cy="419.23" r="3.2" fill="#1d4ed8"/>
<circle cx="588.99" cy="418.42" r="3.2" fill="#1d4ed8"/>
<circle cx="592.53" cy="418.01" r="3.2" fill="#1d4ed8"/>
<circle cx="596.07" cy="417.61" r="3.2" fill="#1d4ed8"/>
<circle cx="599.61" cy="417.61" r="3.2" fill="#1d4ed8"/>
<circle cx="603.15" cy="417.61" r="3.2" fill="#1d4ed8"/>
<circle cx="606.69" cy="417.21" r="3.2" fill="#1d4ed8"/>
<circle cx="610.23" cy="417.21" r="3.2" fill="#1d4ed8"/>
<circle cx="613.77" cy="413.57" r="3.2" fill="#1d4ed8"/>
<circle cx="617.31" cy="411.95" r="3.2" fill="#1d4ed8"/>
<circle cx="620.84" cy="412.76" r="3.2" fill="#1d4ed8"/>
<circle cx="624.38" cy="410.74" r="3.2" fill="#1d4ed8"/>
<circle cx="627.92" cy="410.74" r="3.2" fill="#1d4ed8"/>
<circle cx="631.46" cy="410.33" r="3.2" fill="#1d4ed8"/>
<circle cx="635.00" cy="410.33" r="3.2" fill="#1d4ed8"/>
<circle cx="638.54" cy="410.33" r="3.2" fill="#1d4ed8"/>
<circle cx="642.08" cy="409.93" r="3.2" fill="#1d4ed8"/>
<circle cx="645.62" cy="409.93" r="3.2" fill="#1d4ed8"/>
<circle cx="649.16" cy="409.93" r="3.2" fill="#1d4ed8"/>
<circle cx="652.69" cy="409.52" r="3.2" fill="#1d4ed8"/>
<circle cx="656.23" cy="409.52" r="3.2" fill="#1d4ed8"/>
<circle cx="659.77" cy="409.12" r="3.2" fill="#1d4ed8"/>
<circle cx="663.31" cy="409.52" r="3.2" fill="#1d4ed8"/>
<circle cx="666.85" cy="409.12" r="3.2" fill="#1d4ed8"/>
<circle cx="670.39" cy="407.50" r="3.2" fill="#1d4ed8"/>
<circle cx="673.93" cy="407.10" r="3.2" fill="#1d4ed8"/>
<circle cx="677.47" cy="403.05" r="3.2" fill="#1d4ed8"/>
<circle cx="681.01" cy="399.82" r="3.2" fill="#1d4ed8"/>
<circle cx="684.55" cy="400.22" r="3.2" fill="#1d4ed8"/>
<circle cx="688.08" cy="400.62" r="3.2" fill="#1d4ed8"/>
<circle cx="691.62" cy="400.62" r="3.2" fill="#1d4ed8"/>
<circle cx="695.16" cy="399.41" r="3.2" fill="#1d4ed8"/>
<circle cx="698.70" cy="392.94" r="3.2" fill="#1d4ed8"/>
<circle cx="702.24" cy="391.32" r="3.2" fill="#1d4ed8"/>
<circle cx="705.78" cy="389.30" r="3.2" fill="#1d4ed8"/>
<circle cx="709.32" cy="389.30" r="3.2" fill="#1d4ed8"/>
<circle cx="712.86" cy="388.49" r="3.2" fill="#1d4ed8"/>
<circle cx="716.40" cy="375.15" r="3.2" fill="#1d4ed8"/>
<circle cx="719.94" cy="374.74" r="3.2" fill="#1d4ed8"/>
<circle cx="723.47" cy="374.74" r="3.2" fill="#1d4ed8"/>
<circle cx="727.01" cy="374.74" r="3.2" fill="#1d4ed8"/>
<circle cx="730.55" cy="374.74" r="3.2" fill="#1d4ed8"/>
<circle cx="734.09" cy="374.34" r="3.2" fill="#1d4ed8"/>
<circle cx="737.63" cy="374.34" r="3.2" fill="#1d4ed8"/>
<circle cx="741.17" cy="374.34" r="3.2" fill="#1d4ed8"/>
<circle cx="744.71" cy="374.34" r="3.2" fill="#1d4ed8"/>
<circle cx="748.25" cy="374.34" r="3.2" fill="#1d4ed8"/>
<circle cx="751.79" cy="373.93" r="3.2" fill="#1d4ed8"/>
<circle cx="755.32" cy="373.12" r="3.2" fill="#1d4ed8"/>
<circle cx="758.86" cy="372.72" r="3.2" fill="#1d4ed8"/>
<circle cx="762.40" cy="373.53" r="3.2" fill="#1d4ed8"/>
<circle cx="765.94" cy="435.81" r="3.2" fill="#1d4ed8"/>
<circle cx="769.48" cy="372.32" r="3.2" fill="#1d4ed8"/>
<circle cx="773.02" cy="372.72" r="3.2" fill="#1d4ed8"/>
<circle cx="776.56" cy="371.91" r="3.2" fill="#1d4ed8"/>
<circle cx="780.10" cy="371.91" r="3.2" fill="#1d4ed8"/>
<circle cx="783.64" cy="372.32" r="3.2" fill="#1d4ed8"/>
<circle cx="787.18" cy="371.10" r="3.2" fill="#1d4ed8"/>
<circle cx="790.71" cy="369.89" r="3.2" fill="#1d4ed8"/>
<circle cx="794.25" cy="369.89" r="3.2" fill="#1d4ed8"/>
<circle cx="797.79" cy="369.89" r="3.2" fill="#1d4ed8"/>
<circle cx="801.33" cy="369.49" r="3.2" fill="#1d4ed8"/>
<circle cx="804.87" cy="369.89" r="3.2" fill="#1d4ed8"/>
<circle cx="808.41" cy="369.08" r="3.2" fill="#1d4ed8"/>
<circle cx="811.95" cy="368.68" r="3.2" fill="#1d4ed8"/>
<circle cx="815.49" cy="368.27" r="3.2" fill="#1d4ed8"/>
<circle cx="819.03" cy="367.87" r="3.2" fill="#1d4ed8"/>
<circle cx="822.56" cy="367.06" r="3.2" fill="#1d4ed8"/>
<circle cx="826.10" cy="367.46" r="3.2" fill="#1d4ed8"/>
<circle cx="829.64" cy="367.06" r="3.2" fill="#1d4ed8"/>
<circle cx="833.18" cy="366.25" r="3.2" fill="#1d4ed8"/>
<circle cx="836.72" cy="368.27" r="3.2" fill="#1d4ed8"/>
<circle cx="840.26" cy="368.68" r="3.2" fill="#1d4ed8"/>
<circle cx="843.80" cy="368.68" r="3.2" fill="#1d4ed8"/>
<circle cx="847.34" cy="368.27" r="3.2" fill="#1d4ed8"/>
<circle cx="850.88" cy="369.08" r="3.2" fill="#1d4ed8"/>
<circle cx="854.42" cy="367.87" r="3.2" fill="#1d4ed8"/>
<circle cx="857.95" cy="367.46" r="3.2" fill="#1d4ed8"/>
<circle cx="861.49" cy="367.06" r="3.2" fill="#1d4ed8"/>
<circle cx="865.03" cy="360.18" r="3.2" fill="#1d4ed8"/>
<circle cx="868.57" cy="359.78" r="3.2" fill="#1d4ed8"/>
<circle cx="872.11" cy="359.38" r="3.2" fill="#1d4ed8"/>
<circle cx="875.65" cy="356.95" r="3.2" fill="#1d4ed8"/>
<circle cx="879.19" cy="357.35" r="3.2" fill="#1d4ed8"/>
<circle cx="882.73" cy="357.76" r="3.2" fill="#1d4ed8"/>
<circle cx="886.27" cy="355.33" r="3.2" fill="#1d4ed8"/>
<circle cx="889.81" cy="355.74" r="3.2" fill="#1d4ed8"/>
<circle cx="893.34" cy="357.35" r="3.2" fill="#1d4ed8"/>
<circle cx="896.88" cy="355.33" r="3.2" fill="#1d4ed8"/>
<circle cx="900.42" cy="356.14" r="3.2" fill="#1d4ed8"/>
<circle cx="903.96" cy="355.74" r="3.2" fill="#1d4ed8"/>
<circle cx="907.50" cy="356.14" r="3.2" fill="#1d4ed8"/>
<circle cx="911.04" cy="354.12" r="3.2" fill="#1d4ed8"/>
<circle cx="914.58" cy="354.93" r="3.2" fill="#1d4ed8"/>
<circle cx="918.12" cy="356.14" r="3.2" fill="#1d4ed8"/>
<circle cx="921.66" cy="354.52" r="3.2" fill="#1d4ed8"/>
<circle cx="925.19" cy="353.71" r="3.2" fill="#1d4ed8"/>
<circle cx="928.73" cy="354.12" r="3.2" fill="#1d4ed8"/>
<circle cx="932.27" cy="354.93" r="3.2" fill="#1d4ed8"/>
<circle cx="935.81" cy="352.90" r="3.2" fill="#1d4ed8"/>
<circle cx="939.35" cy="353.71" r="3.2" fill="#1d4ed8"/>
<circle cx="942.89" cy="353.31" r="3.2" fill="#1d4ed8"/>
<circle cx="946.43" cy="353.31" r="3.2" fill="#1d4ed8"/>
<circle cx="949.97" cy="354.52" r="3.2" fill="#1d4ed8"/>
<circle cx="953.51" cy="352.90" r="3.2" fill="#1d4ed8"/>
<circle cx="957.05" cy="352.50" r="3.2" fill="#1d4ed8"/>
<circle cx="960.58" cy="352.50" r="3.2" fill="#1d4ed8"/>
<circle cx="964.12" cy="353.31" r="3.2" fill="#1d4ed8"/>
<circle cx="967.66" cy="352.50" r="3.2" fill="#1d4ed8"/>
<circle cx="971.20" cy="353.71" r="3.2" fill="#1d4ed8"/>
<circle cx="974.74" cy="354.12" r="3.2" fill="#1d4ed8"/>
<circle cx="978.28" cy="352.50" r="3.2" fill="#1d4ed8"/>
<circle cx="981.82" cy="352.90" r="3.2" fill="#1d4ed8"/>
<circle cx="985.36" cy="352.50" r="3.2" fill="#1d4ed8"/>
<circle cx="988.90" cy="352.10" r="3.2" fill="#1d4ed8"/>
<circle cx="992.44" cy="351.69" r="3.2" fill="#1d4ed8"/>
<circle cx="995.97" cy="352.10" r="3.2" fill="#1d4ed8"/>
<circle cx="999.51" cy="354.12" r="3.2" fill="#1d4ed8"/>
<circle cx="1003.05" cy="352.50" r="3.2" fill="#1d4ed8"/>
<circle cx="1006.59" cy="352.10" r="3.2" fill="#1d4ed8"/>
<circle cx="1010.13" cy="352.10" r="3.2" fill="#1d4ed8"/>
<circle cx="1013.67" cy="349.67" r="3.2" fill="#1d4ed8"/>
<circle cx="1017.21" cy="349.67" r="3.2" fill="#1d4ed8"/>
<circle cx="1020.75" cy="350.88" r="3.2" fill="#1d4ed8"/>
<circle cx="1024.29" cy="351.29" r="3.2" fill="#1d4ed8"/>
<circle cx="1027.82" cy="350.48" r="3.2" fill="#1d4ed8"/>
<circle cx="1031.36" cy="352.10" r="3.2" fill="#1d4ed8"/>
<circle cx="1034.90" cy="350.48" r="3.2" fill="#1d4ed8"/>
<circle cx="1038.44" cy="350.48" r="3.2" fill="#1d4ed8"/>
<circle cx="1041.98" cy="350.48" r="3.2" fill="#1d4ed8"/>
<circle cx="1045.52" cy="350.07" r="3.2" fill="#1d4ed8"/>
<circle cx="1049.06" cy="348.46" r="3.2" fill="#1d4ed8"/>
<circle cx="1052.60" cy="351.29" r="3.2" fill="#1d4ed8"/>
<circle cx="1056.14" cy="349.67" r="3.2" fill="#1d4ed8"/>
<circle cx="1059.68" cy="351.29" r="3.2" fill="#1d4ed8"/>
<circle cx="1063.21" cy="349.67" r="3.2" fill="#1d4ed8"/>
<circle cx="1066.75" cy="348.86" r="3.2" fill="#1d4ed8"/>
<circle cx="1070.29" cy="348.46" r="3.2" fill="#1d4ed8"/>
<circle cx="1073.83" cy="348.46" r="3.2" fill="#1d4ed8"/>
<circle cx="1077.37" cy="347.24" r="3.2" fill="#1d4ed8"/>
<circle cx="1080.91" cy="348.86" r="3.2" fill="#1d4ed8"/>
<circle cx="1084.45" cy="346.84" r="3.2" fill="#1d4ed8"/>
<circle cx="1087.99" cy="348.46" r="3.2" fill="#1d4ed8"/>
<circle cx="1091.53" cy="348.86" r="3.2" fill="#1d4ed8"/>
<circle cx="1095.06" cy="346.84" r="3.2" fill="#1d4ed8"/>
<circle cx="1098.60" cy="349.26" r="3.2" fill="#1d4ed8"/>
<circle cx="1102.14" cy="348.05" r="3.2" fill="#1d4ed8"/>
<circle cx="1105.68" cy="349.26" r="3.2" fill="#1d4ed8"/>
<circle cx="1109.22" cy="349.26" r="3.2" fill="#1d4ed8"/>
<circle cx="1112.76" cy="350.48" r="3.2" fill="#1d4ed8"/>
<circle cx="1116.30" cy="352.90" r="3.2" fill="#1d4ed8"/>
<circle cx="1119.84" cy="349.67" r="3.2" fill="#1d4ed8"/>
<circle cx="1123.38" cy="348.46" r="3.2" fill="#1d4ed8"/>
<circle cx="1126.92" cy="345.62" r="3.2" fill="#1d4ed8"/>
<circle cx="1130.45" cy="344.82" r="3.2" fill="#1d4ed8"/>
<circle cx="1133.99" cy="344.41" r="3.2" fill="#1d4ed8"/>
<circle cx="1137.53" cy="342.39" r="3.2" fill="#1d4ed8"/>
<circle cx="1141.07" cy="341.18" r="3.2" fill="#1d4ed8"/>
<circle cx="1144.61" cy="341.58" r="3.2" fill="#1d4ed8"/>
<circle cx="1148.15" cy="339.15" r="3.2" fill="#1d4ed8"/>
<circle cx="1151.69" cy="338.35" r="3.2" fill="#1d4ed8"/>
<circle cx="1155.23" cy="337.54" r="3.2" fill="#1d4ed8"/>
<circle cx="1158.77" cy="336.73" r="3.2" fill="#1d4ed8"/>
<circle cx="1162.31" cy="335.92" r="3.2" fill="#1d4ed8"/>
<circle cx="1165.84" cy="337.54" r="3.2" fill="#1d4ed8"/>
<circle cx="1169.38" cy="338.35" r="3.2" fill="#1d4ed8"/>
<circle cx="1172.92" cy="337.54" r="3.2" fill="#1d4ed8"/>
<circle cx="1176.46" cy="337.54" r="3.2" fill="#1d4ed8"/>
<circle cx="1180.00" cy="337.54" r="3.2" fill="#1d4ed8"/>
<text x="635" y="695" text-anchor="middle" font-size="14" fill="#111" font-family="sans-serif">Date</text>
<text x="24" y="325" text-anchor="middle" font-size="14" fill="#111" transform="rotate(-90 24,325)" font-family="sans-serif">Passed files</text>
</svg>
