<?xml version="1.0" encoding="UTF-8"?>
<svg xmlns="http://www.w3.org/2000/svg" width="1280" height="720" viewBox="0 0 1280 720">
<rect width="100%" height="100%" fill="#ffffff"/>
<text x="640" y="30" text-anchor="middle" font-size="22" font-family="sans-serif">Roast passed files history</text>
<line x1="90" y1="600" x2="1180" y2="600" stroke="#333" stroke-width="1.5"/>
<line x1="90" y1="50" x2="90" y2="600" stroke="#333" stroke-width="1.5"/>
<line x1="90" y1="600.00" x2="1180" y2="600.00" stroke="#e5e7eb" stroke-width="1"/>
<text x="78" y="605.00" text-anchor="end" font-size="12" fill="#111" font-family="sans-serif">0</text>
<line x1="90" y1="397.79" x2="1180" y2="397.79" stroke="#e5e7eb" stroke-width="1"/>
<text x="78" y="402.79" text-anchor="end" font-size="12" fill="#111" font-family="sans-serif">500</text>
<line x1="90" y1="195.59" x2="1180" y2="195.59" stroke="#e5e7eb" stroke-width="1"/>
<text x="78" y="200.59" text-anchor="end" font-size="12" fill="#111" font-family="sans-serif">1000</text>
<line x1="90.00" y1="600" x2="90.00" y2="606" stroke="#333" stroke-width="1"/>
<text x="90.00" y="624" text-anchor="end" font-size="11" fill="#111" transform="rotate(-40 90.00,624)" font-family="sans-serif">2026-02-12</text>
<line x1="224.48" y1="600" x2="224.48" y2="606" stroke="#333" stroke-width="1"/>
<text x="224.48" y="624" text-anchor="end" font-size="11" fill="#111" transform="rotate(-40 224.48,624)" font-family="sans-serif">2026-02-18</text>
<line x1="358.96" y1="600" x2="358.96" y2="606" stroke="#333" stroke-width="1"/>
<text x="358.96" y="624" text-anchor="end" font-size="11" fill="#111" transform="rotate(-40 358.96,624)" font-family="sans-serif">2026-02-24</text>
<line x1="493.44" y1="600" x2="493.44" y2="606" stroke="#333" stroke-width="1"/>
<text x="493.44" y="624" text-anchor="end" font-size="11" fill="#111" transform="rotate(-40 493.44,624)" font-family="sans-serif">2026-02-27</text>
<line x1="627.92" y1="600" x2="627.92" y2="606" stroke="#333" stroke-width="1"/>
<text x="627.92" y="624" text-anchor="end" font-size="11" fill="#111" transform="rotate(-40 627.92,624)" font-family="sans-serif">2026-03-06</text>
<line x1="762.40" y1="600" x2="762.40" y2="606" stroke="#333" stroke-width="1"/>
<text x="762.40" y="624" text-anchor="end" font-size="11" fill="#111" transform="rotate(-40 762.40,624)" font-family="sans-serif">2026-03-07</text>
<line x1="896.88" y1="600" x2="896.88" y2="606" stroke="#333" stroke-width="1"/>
<text x="896.88" y="624" text-anchor="end" font-size="11" fill="#111" transform="rotate(-40 896.88,624)" font-family="sans-serif">2026-03-17</text>
<line x1="1031.36" y1="600" x2="1031.36" y2="606" stroke="#333" stroke-width="1"/>
<text x="1031.36" y="624" text-anchor="end" font-size="11" fill="#111" transform="rotate(-40 1031.36,624)" font-family="sans-serif">2026-03-19</text>
<line x1="1165.84" y1="600" x2="1165.84" y2="606" stroke="#333" stroke-width="1"/>
<text x="1165.84" y="624" text-anchor="end" font-size="11" fill="#111" transform="rotate(-40 1165.84,624)" font-family="sans-serif">2026-03-30</text>
<line x1="1180.00" y1="600" x2="1180.00" y2="606" stroke="#333" stroke-width="1"/>
<text x="1180.00" y="624" text-anchor="end" font-size="11" fill="#111" transform="rotate(-40 1180.00,624)" font-family="sans-serif">2026-03-30</text>
<line x1="90" y1="75.88" x2="1180" y2="75.88" stroke="#dc2626" stroke-width="1.5" stroke-dasharray="8,4"/>
<text x="1184" y="79.88" font-size="12" fill="#dc2626" font-family="sans-serif">Goal: 1296</text>
<polyline fill="none" stroke="#2563eb" stroke-width="3" points="90.00,540.55 92.36,538.53 94.72,536.91 97.08,534.49 99.44,534.49 101.80,533.27 104.16,532.46 106.52,532.87 108.87,532.06 111.23,532.46 113.59,532.06 115.95,568.46 118.31,568.46 120.67,566.43 123.03,545.00 125.39,545.00 127.75,544.19 130.11,543.79 132.47,543.79 134.83,543.38 137.19,541.76 139.55,541.36 141.90,540.96 144.26,540.96 146.62,539.34 148.98,539.34 151.34,556.73 153.70,556.73 156.06,555.51 158.42,551.07 160.78,538.93 163.14,538.93 165.50,538.93 167.86,538.12 170.22,536.91 172.58,536.91 174.94,536.51 177.29,536.51 179.65,556.73 182.01,556.73 184.37,556.73 186.73,556.73 189.09,535.29 191.45,535.29 193.81,535.29 196.17,535.29 198.53,534.49 200.89,534.08 203.25,533.68 205.61,532.87 207.97,532.06 210.32,532.06 212.68,531.25 215.04,530.85 217.40,530.44 219.76,530.04 222.12,530.04 224.48,529.23 226.84,529.23 229.20,529.23 231.56,528.42 233.92,528.42 236.28,527.61 238.64,527.21 241.00,526.80 243.35,526.40 245.71,525.18 248.07,523.57 250.43,523.57 252.79,523.16 255.15,522.76 257.51,522.35 259.87,521.54 262.23,519.52 264.59,517.50 266.95,517.50 269.31,517.50 271.67,517.50 274.03,517.50 276.39,517.50 278.74,517.10 281.10,516.69 283.46,515.48 285.82,515.07 288.18,514.67 290.54,513.86 292.90,514.26 295.26,512.24 297.62,511.84 299.98,511.84 302.34,511.03 304.70,509.82 307.06,507.79 309.42,506.99 311.77,506.58 314.13,509.41 316.49,509.01 318.85,504.96 321.21,504.56 323.57,504.15 325.93,504.56 328.29,503.75 330.65,503.75 333.01,503.35 335.37,499.30 337.73,496.47 340.09,490.00 342.45,484.34 344.81,481.10 347.16,480.29 349.52,480.70 351.88,460.88 354.24,459.26 356.60,458.05 358.96,456.03 361.32,456.03 363.68,454.41 366.04,450.77 368.40,444.30 370.76,443.90 373.12,600.00 375.48,441.88 377.84,440.66 380.19,439.45 382.55,439.04 384.91,438.64 387.27,437.83 389.63,436.62 391.99,436.62 394.35,434.60 396.71,432.17 399.07,429.34 401.43,428.93 403.79,428.53 406.15,427.72 408.51,426.91 410.87,426.10 413.23,426.10 415.58,426.10 417.94,419.63 420.30,419.23 422.66,418.42 425.02,418.01 427.38,417.61 429.74,417.61 432.10,417.61 434.46,417.21 436.82,417.21 439.18,413.57 441.54,411.95 443.90,412.76 446.26,410.74 448.61,410.74 450.97,410.33 453.33,410.33 455.69,410.33 458.05,409.93 460.41,409.93 462.77,409.93 465.13,409.52 467.49,409.52 469.85,409.12 472.21,409.52 474.57,409.12 476.93,407.50 479.29,407.10 481.65,403.05 484.00,399.82 486.36,400.22 488.72,400.62 491.08,400.62 493.44,399.41 495.80,392.94 498.16,391.32 500.52,389.30 502.88,389.30 505.24,388.49 507.60,375.15 509.96,374.74 512.32,374.74 514.68,374.74 517.03,374.74 519.39,374.34 521.75,374.34 524.11,374.34 526.47,374.34 528.83,374.34 531.19,373.93 533.55,373.12 535.91,372.72 538.27,373.53 540.63,435.81 542.99,372.32 545.35,372.72 547.71,371.91 550.06,371.91 552.42,372.32 554.78,371.10 557.14,369.89 559.50,369.89 561.86,369.89 564.22,369.49 566.58,369.89 568.94,369.08 571.30,368.68 573.66,368.27 576.02,367.87 578.38,367.06 580.74,367.46 583.10,367.06 585.45,366.25 587.81,368.27 590.17,368.68 592.53,368.68 594.89,368.27 597.25,369.08 599.61,367.87 601.97,367.46 604.33,367.06 606.69,360.18 609.05,359.78 611.41,359.38 613.77,356.95 616.13,357.35 618.48,357.76 620.84,355.33 623.20,355.74 625.56,357.35 627.92,355.33 630.28,356.14 632.64,355.74 635.00,356.14 637.36,354.12 639.72,354.93 642.08,356.14 644.44,354.52 646.80,353.71 649.16,354.12 651.52,354.93 653.87,352.90 656.23,353.71 658.59,353.31 660.95,353.31 663.31,354.52 665.67,352.90 668.03,352.50 670.39,352.50 672.75,353.31 675.11,352.50 677.47,353.71 679.83,354.12 682.19,352.50 684.55,352.90 686.90,352.50 689.26,352.10 691.62,351.69 693.98,352.10 696.34,354.12 698.70,352.50 701.06,352.10 703.42,352.10 705.78,349.67 708.14,349.67 710.50,350.88 712.86,351.29 715.22,350.48 717.58,352.10 719.94,350.48 722.29,350.48 724.65,350.48 727.01,350.07 729.37,348.46 731.73,351.29 734.09,349.67 736.45,351.29 738.81,349.67 741.17,348.86 743.53,348.46 745.89,348.46 748.25,347.24 750.61,348.86 752.97,346.84 755.32,348.46 757.68,348.86 760.04,346.84 762.40,349.26 764.76,348.05 767.12,349.26 769.48,349.26 771.84,350.48 774.20,352.90 776.56,349.67 778.92,348.46 781.28,345.62 783.64,344.82 786.00,344.41 788.35,342.39 790.71,341.18 793.07,341.58 795.43,339.15 797.79,338.35 800.15,337.54 802.51,336.73 804.87,335.92 807.23,337.54 809.59,338.35 811.95,337.54 814.31,337.54 816.67,337.54 819.03,333.09 821.39,333.90 823.74,335.92 826.10,336.73 828.46,335.51 830.82,332.28 833.18,331.47 835.54,331.07 837.90,331.47 840.26,331.07 842.62,331.07 844.98,331.07 847.34,331.07 849.70,331.07 852.06,331.07 854.42,331.07 856.77,331.07 859.13,331.07 861.49,331.07 863.85,331.47 866.21,331.88 868.57,331.07 870.93,331.47 873.29,331.07 875.65,331.47 878.01,331.07 880.37,324.19 882.73,324.19 885.09,318.93 887.45,316.51 889.81,310.44 892.16,308.01 894.52,600.00 896.88,301.54 899.24,290.22 901.60,287.79 903.96,286.18 906.32,285.77 908.68,285.77 911.04,285.77 913.40,286.18 915.76,285.77 918.12,285.77 920.48,285.77 922.84,283.35 925.19,282.94 927.55,282.94 929.91,283.35 932.27,282.94 934.63,282.94 936.99,283.75 939.35,282.13 941.71,282.13 944.07,282.54 946.43,282.13 948.79,282.54 951.15,282.94 953.51,281.73 955.87,282.54 958.23,281.73 960.58,282.54 962.94,282.13 965.30,282.13 967.66,281.73 970.02,281.73 972.38,281.32 974.74,281.73 977.10,282.13 979.46,281.32 981.82,281.32 984.18,282.54 986.54,282.13 988.90,281.32 991.26,281.32 993.61,281.32 995.97,282.54 998.33,282.13 1000.69,281.32 1003.05,282.13 1005.41,281.73 1007.77,282.13 1010.13,280.11 1012.49,280.11 1014.85,280.51 1017.21,279.71 1019.57,280.11 1021.93,280.51 1024.29,279.71 1026.65,280.11 1029.00,280.11 1031.36,279.30 1033.72,278.90 1036.08,278.90 1038.44,280.51 1040.80,279.30 1043.16,278.09 1045.52,278.49 1047.88,278.49 1050.24,277.28 1052.60,277.68 1054.96,277.68 1057.32,278.09 1059.68,277.28 1062.03,600.00 1064.39,278.90 1066.75,279.30 1069.11,278.90 1071.47,278.49 1073.83,278.49 1076.19,278.49 1078.55,278.49 1080.91,278.49 1083.27,278.49 1085.63,278.49 1087.99,278.49 1090.35,278.49 1092.71,278.49 1095.06,278.49 1097.42,278.49 1099.78,600.00 1102.14,600.00 1104.50,254.63 1106.86,600.00 1109.22,245.74 1111.58,245.74 1113.94,246.14 1116.30,245.74 1118.66,245.74 1121.02,245.74 1123.38,245.74 1125.74,245.74 1128.10,240.07 1130.45,238.05 1132.81,238.05 1135.17,227.13 1137.53,227.13 1139.89,226.32 1142.25,227.54 1144.61,226.73 1146.97,226.32 1149.33,227.13 1151.69,227.13 1154.05,226.73 1156.41,226.32 1158.77,226.73 1161.13,226.73 1163.48,226.73 1165.84,225.11 1168.20,224.71 1170.56,225.11 1172.92,224.30 1175.28,226.32 1177.64,224.30 1180.00,225.51"/>
<circle cx="90.00" cy="540.55" r="3.2" fill="#1d4ed8"/>
<circle cx="92.36" cy="538.53" r="3.2" fill="#1d4ed8"/>
<circle cx="94.72" cy="536.91" r="3.2" fill="#1d4ed8"/>
<circle cx="97.08" cy="534.49" r="3.2" fill="#1d4ed8"/>
<circle cx="99.44" cy="534.49" r="3.2" fill="#1d4ed8"/>
<circle cx="101.80" cy="533.27" r="3.2" fill="#1d4ed8"/>
<circle cx="104.16" cy="532.46" r="3.2" fill="#1d4ed8"/>
<circle cx="106.52" cy="532.87" r="3.2" fill="#1d4ed8"/>
<circle cx="108.87" cy="532.06" r="3.2" fill="#1d4ed8"/>
<circle cx="111.23" cy="532.46" r="3.2" fill="#1d4ed8"/>
<circle cx="113.59" cy="532.06" r="3.2" fill="#1d4ed8"/>
<circle cx="115.95" cy="568.46" r="3.2" fill="#1d4ed8"/>
<circle cx="118.31" cy="568.46" r="3.2" fill="#1d4ed8"/>
<circle cx="120.67" cy="566.43" r="3.2" fill="#1d4ed8"/>
<circle cx="123.03" cy="545.00" r="3.2" fill="#1d4ed8"/>
<circle cx="125.39" cy="545.00" r="3.2" fill="#1d4ed8"/>
<circle cx="127.75" cy="544.19" r="3.2" fill="#1d4ed8"/>
<circle cx="130.11" cy="543.79" r="3.2" fill="#1d4ed8"/>
<circle cx="132.47" cy="543.79" r="3.2" fill="#1d4ed8"/>
<circle cx="134.83" cy="543.38" r="3.2" fill="#1d4ed8"/>
<circle cx="137.19" cy="541.76" r="3.2" fill="#1d4ed8"/>
<circle cx="139.55" cy="541.36" r="3.2" fill="#1d4ed8"/>
<circle cx="141.90" cy="540.96" r="3.2" fill="#1d4ed8"/>
<circle cx="144.26" cy="540.96" r="3.2" fill="#1d4ed8"/>
<circle cx="146.62" cy="539.34" r="3.2" fill="#1d4ed8"/>
<circle cx="148.98" cy="539.34" r="3.2" fill="#1d4ed8"/>
<circle cx="151.34" cy="556.73" r="3.2" fill="#1d4ed8"/>
<circle cx="153.70" cy="556.73" r="3.2" fill="#1d4ed8"/>
<circle cx="156.06" cy="555.51" r="3.2" fill="#1d4ed8"/>
<circle cx="158.42" cy="551.07" r="3.2" fill="#1d4ed8"/>
<circle cx="160.78" cy="538.93" r="3.2" fill="#1d4ed8"/>
<circle cx="163.14" cy="538.93" r="3.2" fill="#1d4ed8"/>
<circle cx="165.50" cy="538.93" r="3.2" fill="#1d4ed8"/>
<circle cx="167.86" cy="538.12" r="3.2" fill="#1d4ed8"/>
<circle cx="170.22" cy="536.91" r="3.2" fill="#1d4ed8"/>
<circle cx="172.58" cy="536.91" r="3.2" fill="#1d4ed8"/>
<circle cx="174.94" cy="536.51" r="3.2" fill="#1d4ed8"/>
<circle cx="177.29" cy="536.51" r="3.2" fill="#1d4ed8"/>
<circle cx="179.65" cy="556.73" r="3.2" fill="#1d4ed8"/>
<circle cx="182.01" cy="556.73" r="3.2" fill="#1d4ed8"/>
<circle cx="184.37" cy="556.73" r="3.2" fill="#1d4ed8"/>
<circle cx="186.73" cy="556.73" r="3.2" fill="#1d4ed8"/>
<circle cx="189.09" cy="535.29" r="3.2" fill="#1d4ed8"/>
<circle cx="191.45" cy="535.29" r="3.2" fill="#1d4ed8"/>
<circle cx="193.81" cy="535.29" r="3.2" fill="#1d4ed8"/>
<circle cx="196.17" cy="535.29" r="3.2" fill="#1d4ed8"/>
<circle cx="198.53" cy="534.49" r="3.2" fill="#1d4ed8"/>
<circle cx="200.89" cy="534.08" r="3.2" fill="#1d4ed8"/>
<circle cx="203.25" cy="533.68" r="3.2" fill="#1d4ed8"/>
<circle cx="205.61" cy="532.87" r="3.2" fill="#1d4ed8"/>
<circle cx="207.97" cy="532.06" r="3.2" fill="#1d4ed8"/>
<circle cx="210.32" cy="532.06" r="3.2" fill="#1d4ed8"/>
<circle cx="212.68" cy="531.25" r="3.2" fill="#1d4ed8"/>
<circle cx="215.04" cy="530.85" r="3.2" fill="#1d4ed8"/>
<circle cx="217.40" cy="530.44" r="3.2" fill="#1d4ed8"/>
<circle cx="219.76" cy="530.04" r="3.2" fill="#1d4ed8"/>
<circle cx="222.12" cy="530.04" r="3.2" fill="#1d4ed8"/>
<circle cx="224.48" cy="529.23" r="3.2" fill="#1d4ed8"/>
<circle cx="226.84" cy="529.23" r="3.2" fill="#1d4ed8"/>
<circle cx="229.20" cy="529.23" r="3.2" fill="#1d4ed8"/>
<circle cx="231.56" cy="528.42" r="3.2" fill="#1d4ed8"/>
<circle cx="233.92" cy="528.42" r="3.2" fill="#1d4ed8"/>
<circle cx="236.28" cy="527.61" r="3.2" fill="#1d4ed8"/>
<circle cx="238.64" cy="527.21" r="3.2" fill="#1d4ed8"/>
<circle cx="241.00" cy="526.80" r="3.2" fill="#1d4ed8"/>
<circle cx="243.35" cy="526.40" r="3.2" fill="#1d4ed8"/>
<circle cx="245.71" cy="525.18" r="3.2" fill="#1d4ed8"/>
<circle cx="248.07" cy="523.57" r="3.2" fill="#1d4ed8"/>
<circle cx="250.43" cy="523.57" r="3.2" fill="#1d4ed8"/>
<circle cx="252.79" cy="523.16" r="3.2" fill="#1d4ed8"/>
<circle cx="255.15" cy="522.76" r="3.2" fill="#1d4ed8"/>
<circle cx="257.51" cy="522.35" r="3.2" fill="#1d4ed8"/>
<circle cx="259.87" cy="521.54" r="3.2" fill="#1d4ed8"/>
<circle cx="262.23" cy="519.52" r="3.2" fill="#1d4ed8"/>
<circle cx="264.59" cy="517.50" r="3.2" fill="#1d4ed8"/>
<circle cx="266.95" cy="517.50" r="3.2" fill="#1d4ed8"/>
<circle cx="269.31" cy="517.50" r="3.2" fill="#1d4ed8"/>
<circle cx="271.67" cy="517.50" r="3.2" fill="#1d4ed8"/>
<circle cx="274.03" cy="517.50" r="3.2" fill="#1d4ed8"/>
<circle cx="276.39" cy="517.50" r="3.2" fill="#1d4ed8"/>
<circle cx="278.74" cy="517.10" r="3.2" fill="#1d4ed8"/>
<circle cx="281.10" cy="516.69" r="3.2" fill="#1d4ed8"/>
<circle cx="283.46" cy="515.48" r="3.2" fill="#1d4ed8"/>
<circle cx="285.82" cy="515.07" r="3.2" fill="#1d4ed8"/>
<circle cx="288.18" cy="514.67" r="3.2" fill="#1d4ed8"/>
<circle cx="290.54" cy="513.86" r="3.2" fill="#1d4ed8"/>
<circle cx="292.90" cy="514.26" r="3.2" fill="#1d4ed8"/>
<circle cx="295.26" cy="512.24" r="3.2" fill="#1d4ed8"/>
<circle cx="297.62" cy="511.84" r="3.2" fill="#1d4ed8"/>
<circle cx="299.98" cy="511.84" r="3.2" fill="#1d4ed8"/>
<circle cx="302.34" cy="511.03" r="3.2" fill="#1d4ed8"/>
<circle cx="304.70" cy="509.82" r="3.2" fill="#1d4ed8"/>
<circle cx="307.06" cy="507.79" r="3.2" fill="#1d4ed8"/>
<circle cx="309.42" cy="506.99" r="3.2" fill="#1d4ed8"/>
<circle cx="311.77" cy="506.58" r="3.2" fill="#1d4ed8"/>
<circle cx="314.13" cy="509.41" r="3.2" fill="#1d4ed8"/>
<circle cx="316.49" cy="509.01" r="3.2" fill="#1d4ed8"/>
<circle cx="318.85" cy="504.96" r="3.2" fill="#1d4ed8"/>
<circle cx="321.21" cy="504.56" r="3.2" fill="#1d4ed8"/>
<circle cx="323.57" cy="504.15" r="3.2" fill="#1d4ed8"/>
<circle cx="325.93" cy="504.56" r="3.2" fill="#1d4ed8"/>
<circle cx="328.29" cy="503.75" r="3.2" fill="#1d4ed8"/>
<circle cx="330.65" cy="503.75" r="3.2" fill="#1d4ed8"/>
<circle cx="333.01" cy="503.35" r="3.2" fill="#1d4ed8"/>
<circle cx="335.37" cy="499.30" r="3.2" fill="#1d4ed8"/>
<circle cx="337.73" cy="496.47" r="3.2" fill="#1d4ed8"/>
<circle cx="340.09" cy="490.00" r="3.2" fill="#1d4ed8"/>
<circle cx="342.45" cy="484.34" r="3.2" fill="#1d4ed8"/>
<circle cx="344.81" cy="481.10" r="3.2" fill="#1d4ed8"/>
<circle cx="347.16" cy="480.29" r="3.2" fill="#1d4ed8"/>
<circle cx="349.52" cy="480.70" r="3.2" fill="#1d4ed8"/>
<circle cx="351.88" cy="460.88" r="3.2" fill="#1d4ed8"/>
<circle cx="354.24" cy="459.26" r="3.2" fill="#1d4ed8"/>
<circle cx="356.60" cy="458.05" r="3.2" fill="#1d4ed8"/>
<circle cx="358.96" cy="456.03" r="3.2" fill="#1d4ed8"/>
<circle cx="361.32" cy="456.03" r="3.2" fill="#1d4ed8"/>
<circle cx="363.68" cy="454.41" r="3.2" fill="#1d4ed8"/>
<circle cx="366.04" cy="450.77" r="3.2" fill="#1d4ed8"/>
<circle cx="368.40" cy="444.30" r="3.2" fill="#1d4ed8"/>
<circle cx="370.76" cy="443.90" r="3.2" fill="#1d4ed8"/>
<circle cx="373.12" cy="600.00" r="3.2" fill="#1d4ed8"/>
<circle cx="375.48" cy="441.88" r="3.2" fill="#1d4ed8"/>
<circle cx="377.84" cy="440.66" r="3.2" fill="#1d4ed8"/>
<circle cx="380.19" cy="439.45" r="3.2" fill="#1d4ed8"/>
<circle cx="382.55" cy="439.04" r="3.2" fill="#1d4ed8"/>
<circle cx="384.91" cy="438.64" r="3.2" fill="#1d4ed8"/>
<circle cx="387.27" cy="437.83" r="3.2" fill="#1d4ed8"/>
<circle cx="389.63" cy="436.62" r="3.2" fill="#1d4ed8"/>
<circle cx="391.99" cy="436.62" r="3.2" fill="#1d4ed8"/>
<circle cx="394.35" cy="434.60" r="3.2" fill="#1d4ed8"/>
<circle cx="396.71" cy="432.17" r="3.2" fill="#1d4ed8"/>
<circle cx="399.07" cy="429.34" r="3.2" fill="#1d4ed8"/>
<circle cx="401.43" cy="428.93" r="3.2" fill="#1d4ed8"/>
<circle cx="403.79" cy="428.53" r="3.2" fill="#1d4ed8"/>
<circle cx="406.15" cy="427.72" r="3.2" fill="#1d4ed8"/>
<circle cx="408.51" cy="426.91" r="3.2" fill="#1d4ed8"/>
<circle cx="410.87" cy="426.10" r="3.2" fill="#1d4ed8"/>
<circle cx="413.23" cy="426.10" r="3.2" fill="#1d4ed8"/>
<circle cx="415.58" cy="426.10" r="3.2" fill="#1d4ed8"/>
<circle cx="417.94" cy="419.63" r="3.2" fill="#1d4ed8"/>
<circle cx="420.30" cy="419.23" r="3.2" fill="#1d4ed8"/>
<circle cx="422.66" cy="418.42" r="3.2" fill="#1d4ed8"/>
<circle cx="425.02" cy="418.01" r="3.2" fill="#1d4ed8"/>
<circle cx="427.38" cy="417.61" r="3.2" fill="#1d4ed8"/>
<circle cx="429.74" cy="417.61" r="3.2" fill="#1d4ed8"/>
<circle cx="432.10" cy="417.61" r="3.2" fill="#1d4ed8"/>
<circle cx="434.46" cy="417.21" r="3.2" fill="#1d4ed8"/>
<circle cx="436.82" cy="417.21" r="3.2" fill="#1d4ed8"/>
<circle cx="439.18" cy="413.57" r="3.2" fill="#1d4ed8"/>
<circle cx="441.54" cy="411.95" r="3.2" fill="#1d4ed8"/>
<circle cx="443.90" cy="412.76" r="3.2" fill="#1d4ed8"/>
<circle cx="446.26" cy="410.74" r="3.2" fill="#1d4ed8"/>
<circle cx="448.61" cy="410.74" r="3.2" fill="#1d4ed8"/>
<circle cx="450.97" cy="410.33" r="3.2" fill="#1d4ed8"/>
<circle cx="453.33" cy="410.33" r="3.2" fill="#1d4ed8"/>
<circle cx="455.69" cy="410.33" r="3.2" fill="#1d4ed8"/>
<circle cx="458.05" cy="409.93" r="3.2" fill="#1d4ed8"/>
<circle cx="460.41" cy="409.93" r="3.2" fill="#1d4ed8"/>
<circle cx="462.77" cy="409.93" r="3.2" fill="#1d4ed8"/>
<circle cx="465.13" cy="409.52" r="3.2" fill="#1d4ed8"/>
<circle cx="467.49" cy="409.52" r="3.2" fill="#1d4ed8"/>
<circle cx="469.85" cy="409.12" r="3.2" fill="#1d4ed8"/>
<circle cx="472.21" cy="409.52" r="3.2" fill="#1d4ed8"/>
<circle cx="474.57" cy="409.12" r="3.2" fill="#1d4ed8"/>
<circle cx="476.93" cy="407.50" r="3.2" fill="#1d4ed8"/>
<circle cx="479.29" cy="407.10" r="3.2" fill="#1d4ed8"/>
<circle cx="481.65" cy="403.05" r="3.2" fill="#1d4ed8"/>
<circle cx="484.00" cy="399.82" r="3.2" fill="#1d4ed8"/>
<circle cx="486.36" cy="400.22" r="3.2" fill="#1d4ed8"/>
<circle cx="488.72" cy="400.62" r="3.2" fill="#1d4ed8"/>
<circle cx="491.08" cy="400.62" r="3.2" fill="#1d4ed8"/>
<circle cx="493.44" cy="399.41" r="3.2" fill="#1d4ed8"/>
<circle cx="495.80" cy="392.94" r="3.2" fill="#1d4ed8"/>
<circle cx="498.16" cy="391.32" r="3.2" fill="#1d4ed8"/>
<circle cx="500.52" cy="389.30" r="3.2" fill="#1d4ed8"/>
<circle cx="502.88" cy="389.30" r="3.2" fill="#1d4ed8"/>
<circle cx="505.24" cy="388.49" r="3.2" fill="#1d4ed8"/>
<circle cx="507.60" cy="375.15" r="3.2" fill="#1d4ed8"/>
<circle cx="509.96" cy="374.74" r="3.2" fill="#1d4ed8"/>
<circle cx="512.32" cy="374.74" r="3.2" fill="#1d4ed8"/>
<circle cx="514.68" cy="374.74" r="3.2" fill="#1d4ed8"/>
<circle cx="517.03" cy="374.74" r="3.2" fill="#1d4ed8"/>
<circle cx="519.39" cy="374.34" r="3.2" fill="#1d4ed8"/>
<circle cx="521.75" cy="374.34" r="3.2" fill="#1d4ed8"/>
<circle cx="524.11" cy="374.34" r="3.2" fill="#1d4ed8"/>
<circle cx="526.47" cy="374.34" r="3.2" fill="#1d4ed8"/>
<circle cx="528.83" cy="374.34" r="3.2" fill="#1d4ed8"/>
<circle cx="531.19" cy="373.93" r="3.2" fill="#1d4ed8"/>
<circle cx="533.55" cy="373.12" r="3.2" fill="#1d4ed8"/>
<circle cx="535.91" cy="372.72" r="3.2" fill="#1d4ed8"/>
<circle cx="538.27" cy="373.53" r="3.2" fill="#1d4ed8"/>
<circle cx="540.63" cy="435.81" r="3.2" fill="#1d4ed8"/>
<circle cx="542.99" cy="372.32" r="3.2" fill="#1d4ed8"/>
<circle cx="545.35" cy="372.72" r="3.2" fill="#1d4ed8"/>
<circle cx="547.71" cy="371.91" r="3.2" fill="#1d4ed8"/>
<circle cx="550.06" cy="371.91" r="3.2" fill="#1d4ed8"/>
<circle cx="552.42" cy="372.32" r="3.2" fill="#1d4ed8"/>
<circle cx="554.78" cy="371.10" r="3.2" fill="#1d4ed8"/>
<circle cx="557.14" cy="369.89" r="3.2" fill="#1d4ed8"/>
<circle cx="559.50" cy="369.89" r="3.2" fill="#1d4ed8"/>
<circle cx="561.86" cy="369.89" r="3.2" fill="#1d4ed8"/>
<circle cx="564.22" cy="369.49" r="3.2" fill="#1d4ed8"/>
<circle cx="566.58" cy="369.89" r="3.2" fill="#1d4ed8"/>
<circle cx="568.94" cy="369.08" r="3.2" fill="#1d4ed8"/>
<circle cx="571.30" cy="368.68" r="3.2" fill="#1d4ed8"/>
<circle cx="573.66" cy="368.27" r="3.2" fill="#1d4ed8"/>
<circle cx="576.02" cy="367.87" r="3.2" fill="#1d4ed8"/>
<circle cx="578.38" cy="367.06" r="3.2" fill="#1d4ed8"/>
<circle cx="580.74" cy="367.46" r="3.2" fill="#1d4ed8"/>
<circle cx="583.10" cy="367.06" r="3.2" fill="#1d4ed8"/>
<circle cx="585.45" cy="366.25" r="3.2" fill="#1d4ed8"/>
<circle cx="587.81" cy="368.27" r="3.2" fill="#1d4ed8"/>
<circle cx="590.17" cy="368.68" r="3.2" fill="#1d4ed8"/>
<circle cx="592.53" cy="368.68" r="3.2" fill="#1d4ed8"/>
<circle cx="594.89" cy="368.27" r="3.2" fill="#1d4ed8"/>
<circle cx="597.25" cy="369.08" r="3.2" fill="#1d4ed8"/>
<circle cx="599.61" cy="367.87" r="3.2" fill="#1d4ed8"/>
<circle cx="601.97" cy="367.46" r="3.2" fill="#1d4ed8"/>
<circle cx="604.33" cy="367.06" r="3.2" fill="#1d4ed8"/>
<circle cx="606.69" cy="360.18" r="3.2" fill="#1d4ed8"/>
<circle cx="609.05" cy="359.78" r="3.2" fill="#1d4ed8"/>
<circle cx="611.41" cy="359.38" r="3.2" fill="#1d4ed8"/>
<circle cx="613.77" cy="356.95" r="3.2" fill="#1d4ed8"/>
<circle cx="616.13" cy="357.35" r="3.2" fill="#1d4ed8"/>
<circle cx="618.48" cy="357.76" r="3.2" fill="#1d4ed8"/>
<circle cx="620.84" cy="355.33" r="3.2" fill="#1d4ed8"/>
<circle cx="623.20" cy="355.74" r="3.2" fill="#1d4ed8"/>
<circle cx="625.56" cy="357.35" r="3.2" fill="#1d4ed8"/>
<circle cx="627.92" cy="355.33" r="3.2" fill="#1d4ed8"/>
<circle cx="630.28" cy="356.14" r="3.2" fill="#1d4ed8"/>
<circle cx="632.64" cy="355.74" r="3.2" fill="#1d4ed8"/>
<circle cx="635.00" cy="356.14" r="3.2" fill="#1d4ed8"/>
<circle cx="637.36" cy="354.12" r="3.2" fill="#1d4ed8"/>
<circle cx="639.72" cy="354.93" r="3.2" fill="#1d4ed8"/>
<circle cx="642.08" cy="356.14" r="3.2" fill="#1d4ed8"/>
<circle cx="644.44" cy="354.52" r="3.2" fill="#1d4ed8"/>
<circle cx="646.80" cy="353.71" r="3.2" fill="#1d4ed8"/>
<circle cx="649.16" cy="354.12" r="3.2" fill="#1d4ed8"/>
<circle cx="651.52" cy="354.93" r="3.2" fill="#1d4ed8"/>
<circle cx="653.87" cy="352.90" r="3.2" fill="#1d4ed8"/>
<circle cx="656.23" cy="353.71" r="3.2" fill="#1d4ed8"/>
<circle cx="658.59" cy="353.31" r="3.2" fill="#1d4ed8"/>
<circle cx="660.95" cy="353.31" r="3.2" fill="#1d4ed8"/>
<circle cx="663.31" cy="354.52" r="3.2" fill="#1d4ed8"/>
<circle cx="665.67" cy="352.90" r="3.2" fill="#1d4ed8"/>
<circle cx="668.03" cy="352.50" r="3.2" fill="#1d4ed8"/>
<circle cx="670.39" cy="352.50" r="3.2" fill="#1d4ed8"/>
<circle cx="672.75" cy="353.31" r="3.2" fill="#1d4ed8"/>
<circle cx="675.11" cy="352.50" r="3.2" fill="#1d4ed8"/>
<circle cx="677.47" cy="353.71" r="3.2" fill="#1d4ed8"/>
<circle cx="679.83" cy="354.12" r="3.2" fill="#1d4ed8"/>
<circle cx="682.19" cy="352.50" r="3.2" fill="#1d4ed8"/>
<circle cx="684.55" cy="352.90" r="3.2" fill="#1d4ed8"/>
<circle cx="686.90" cy="352.50" r="3.2" fill="#1d4ed8"/>
<circle cx="689.26" cy="352.10" r="3.2" fill="#1d4ed8"/>
<circle cx="691.62" cy="351.69" r="3.2" fill="#1d4ed8"/>
<circle cx="693.98" cy="352.10" r="3.2" fill="#1d4ed8"/>
<circle cx="696.34" cy="354.12" r="3.2" fill="#1d4ed8"/>
<circle cx="698.70" cy="352.50" r="3.2" fill="#1d4ed8"/>
<circle cx="701.06" cy="352.10" r="3.2" fill="#1d4ed8"/>
<circle cx="703.42" cy="352.10" r="3.2" fill="#1d4ed8"/>
<circle cx="705.78" cy="349.67" r="3.2" fill="#1d4ed8"/>
<circle cx="708.14" cy="349.67" r="3.2" fill="#1d4ed8"/>
<circle cx="710.50" cy="350.88" r="3.2" fill="#1d4ed8"/>
<circle cx="712.86" cy="351.29" r="3.2" fill="#1d4ed8"/>
<circle cx="715.22" cy="350.48" r="3.2" fill="#1d4ed8"/>
<circle cx="717.58" cy="352.10" r="3.2" fill="#1d4ed8"/>
<circle cx="719.94" cy="350.48" r="3.2" fill="#1d4ed8"/>
<circle cx="722.29" cy="350.48" r="3.2" fill="#1d4ed8"/>
<circle cx="724.65" cy="350.48" r="3.2" fill="#1d4ed8"/>
<circle cx="727.01" cy="350.07" r="3.2" fill="#1d4ed8"/>
<circle cx="729.37" cy="348.46" r="3.2" fill="#1d4ed8"/>
<circle cx="731.73" cy="351.29" r="3.2" fill="#1d4ed8"/>
<circle cx="734.09" cy="349.67" r="3.2" fill="#1d4ed8"/>
<circle cx="736.45" cy="351.29" r="3.2" fill="#1d4ed8"/>
<circle cx="738.81" cy="349.67" r="3.2" fill="#1d4ed8"/>
<circle cx="741.17" cy="348.86" r="3.2" fill="#1d4ed8"/>
<circle cx="743.53" cy="348.46" r="3.2" fill="#1d4ed8"/>
<circle cx="745.89" cy="348.46" r="3.2" fill="#1d4ed8"/>
<circle cx="748.25" cy="347.24" r="3.2" fill="#1d4ed8"/>
<circle cx="750.61" cy="348.86" r="3.2" fill="#1d4ed8"/>
<circle cx="752.97" cy="346.84" r="3.2" fill="#1d4ed8"/>
<circle cx="755.32" cy="348.46" r="3.2" fill="#1d4ed8"/>
<circle cx="757.68" cy="348.86" r="3.2" fill="#1d4ed8"/>
<circle cx="760.04" cy="346.84" r="3.2" fill="#1d4ed8"/>
<circle cx="762.40" cy="349.26" r="3.2" fill="#1d4ed8"/>
<circle cx="764.76" cy="348.05" r="3.2" fill="#1d4ed8"/>
<circle cx="767.12" cy="349.26" r="3.2" fill="#1d4ed8"/>
<circle cx="769.48" cy="349.26" r="3.2" fill="#1d4ed8"/>
<circle cx="771.84" cy="350.48" r="3.2" fill="#1d4ed8"/>
<circle cx="774.20" cy="352.90" r="3.2" fill="#1d4ed8"/>
<circle cx="776.56" cy="349.67" r="3.2" fill="#1d4ed8"/>
<circle cx="778.92" cy="348.46" r="3.2" fill="#1d4ed8"/>
<circle cx="781.28" cy="345.62" r="3.2" fill="#1d4ed8"/>
<circle cx="783.64" cy="344.82" r="3.2" fill="#1d4ed8"/>
<circle cx="786.00" cy="344.41" r="3.2" fill="#1d4ed8"/>
<circle cx="788.35" cy="342.39" r="3.2" fill="#1d4ed8"/>
<circle cx="790.71" cy="341.18" r="3.2" fill="#1d4ed8"/>
<circle cx="793.07" cy="341.58" r="3.2" fill="#1d4ed8"/>
<circle cx="795.43" cy="339.15" r="3.2" fill="#1d4ed8"/>
<circle cx="797.79" cy="338.35" r="3.2" fill="#1d4ed8"/>
<circle cx="800.15" cy="337.54" r="3.2" fill="#1d4ed8"/>
<circle cx="802.51" cy="336.73" r="3.2" fill="#1d4ed8"/>
<circle cx="804.87" cy="335.92" r="3.2" fill="#1d4ed8"/>
<circle cx="807.23" cy="337.54" r="3.2" fill="#1d4ed8"/>
<circle cx="809.59" cy="338.35" r="3.2" fill="#1d4ed8"/>
<circle cx="811.95" cy="337.54" r="3.2" fill="#1d4ed8"/>
<circle cx="814.31" cy="337.54" r="3.2" fill="#1d4ed8"/>
<circle cx="816.67" cy="337.54" r="3.2" fill="#1d4ed8"/>
<circle cx="819.03" cy="333.09" r="3.2" fill="#1d4ed8"/>
<circle cx="821.39" cy="333.90" r="3.2" fill="#1d4ed8"/>
<circle cx="823.74" cy="335.92" r="3.2" fill="#1d4ed8"/>
<circle cx="826.10" cy="336.73" r="3.2" fill="#1d4ed8"/>
<circle cx="828.46" cy="335.51" r="3.2" fill="#1d4ed8"/>
<circle cx="830.82" cy="332.28" r="3.2" fill="#1d4ed8"/>
<circle cx="833.18" cy="331.47" r="3.2" fill="#1d4ed8"/>
<circle cx="835.54" cy="331.07" r="3.2" fill="#1d4ed8"/>
<circle cx="837.90" cy="331.47" r="3.2" fill="#1d4ed8"/>
<circle cx="840.26" cy="331.07" r="3.2" fill="#1d4ed8"/>
<circle cx="842.62" cy="331.07" r="3.2" fill="#1d4ed8"/>
<circle cx="844.98" cy="331.07" r="3.2" fill="#1d4ed8"/>
<circle cx="847.34" cy="331.07" r="3.2" fill="#1d4ed8"/>
<circle cx="849.70" cy="331.07" r="3.2" fill="#1d4ed8"/>
<circle cx="852.06" cy="331.07" r="3.2" fill="#1d4ed8"/>
<circle cx="854.42" cy="331.07" r="3.2" fill="#1d4ed8"/>
<circle cx="856.77" cy="331.07" r="3.2" fill="#1d4ed8"/>
<circle cx="859.13" cy="331.07" r="3.2" fill="#1d4ed8"/>
<circle cx="861.49" cy="331.07" r="3.2" fill="#1d4ed8"/>
<circle cx="863.85" cy="331.47" r="3.2" fill="#1d4ed8"/>
<circle cx="866.21" cy="331.88" r="3.2" fill="#1d4ed8"/>
<circle cx="868.57" cy="331.07" r="3.2" fill="#1d4ed8"/>
<circle cx="870.93" cy="331.47" r="3.2" fill="#1d4ed8"/>
<circle cx="873.29" cy="331.07" r="3.2" fill="#1d4ed8"/>
<circle cx="875.65" cy="331.47" r="3.2" fill="#1d4ed8"/>
<circle cx="878.01" cy="331.07" r="3.2" fill="#1d4ed8"/>
<circle cx="880.37" cy="324.19" r="3.2" fill="#1d4ed8"/>
<circle cx="882.73" cy="324.19" r="3.2" fill="#1d4ed8"/>
<circle cx="885.09" cy="318.93" r="3.2" fill="#1d4ed8"/>
<circle cx="887.45" cy="316.51" r="3.2" fill="#1d4ed8"/>
<circle cx="889.81" cy="310.44" r="3.2" fill="#1d4ed8"/>
<circle cx="892.16" cy="308.01" r="3.2" fill="#1d4ed8"/>
<circle cx="894.52" cy="600.00" r="3.2" fill="#1d4ed8"/>
<circle cx="896.88" cy="301.54" r="3.2" fill="#1d4ed8"/>
<circle cx="899.24" cy="290.22" r="3.2" fill="#1d4ed8"/>
<circle cx="901.60" cy="287.79" r="3.2" fill="#1d4ed8"/>
<circle cx="903.96" cy="286.18" r="3.2" fill="#1d4ed8"/>
<circle cx="906.32" cy="285.77" r="3.2" fill="#1d4ed8"/>
<circle cx="908.68" cy="285.77" r="3.2" fill="#1d4ed8"/>
<circle cx="911.04" cy="285.77" r="3.2" fill="#1d4ed8"/>
<circle cx="913.40" cy="286.18" r="3.2" fill="#1d4ed8"/>
<circle cx="915.76" cy="285.77" r="3.2" fill="#1d4ed8"/>
<circle cx="918.12" cy="285.77" r="3.2" fill="#1d4ed8"/>
<circle cx="920.48" cy="285.77" r="3.2" fill="#1d4ed8"/>
<circle cx="922.84" cy="283.35" r="3.2" fill="#1d4ed8"/>
<circle cx="925.19" cy="282.94" r="3.2" fill="#1d4ed8"/>
<circle cx="927.55" cy="282.94" r="3.2" fill="#1d4ed8"/>
<circle cx="929.91" cy="283.35" r="3.2" fill="#1d4ed8"/>
<circle cx="932.27" cy="282.94" r="3.2" fill="#1d4ed8"/>
<circle cx="934.63" cy="282.94" r="3.2" fill="#1d4ed8"/>
<circle cx="936.99" cy="283.75" r="3.2" fill="#1d4ed8"/>
<circle cx="939.35" cy="282.13" r="3.2" fill="#1d4ed8"/>
<circle cx="941.71" cy="282.13" r="3.2" fill="#1d4ed8"/>
<circle cx="944.07" cy="282.54" r="3.2" fill="#1d4ed8"/>
<circle cx="946.43" cy="282.13" r="3.2" fill="#1d4ed8"/>
<circle cx="948.79" cy="282.54" r="3.2" fill="#1d4ed8"/>
<circle cx="951.15" cy="282.94" r="3.2" fill="#1d4ed8"/>
<circle cx="953.51" cy="281.73" r="3.2" fill="#1d4ed8"/>
<circle cx="955.87" cy="282.54" r="3.2" fill="#1d4ed8"/>
<circle cx="958.23" cy="281.73" r="3.2" fill="#1d4ed8"/>
<circle cx="960.58" cy="282.54" r="3.2" fill="#1d4ed8"/>
<circle cx="962.94" cy="282.13" r="3.2" fill="#1d4ed8"/>
<circle cx="965.30" cy="282.13" r="3.2" fill="#1d4ed8"/>
<circle cx="967.66" cy="281.73" r="3.2" fill="#1d4ed8"/>
<circle cx="970.02" cy="281.73" r="3.2" fill="#1d4ed8"/>
<circle cx="972.38" cy="281.32" r="3.2" fill="#1d4ed8"/>
<circle cx="974.74" cy="281.73" r="3.2" fill="#1d4ed8"/>
<circle cx="977.10" cy="282.13" r="3.2" fill="#1d4ed8"/>
<circle cx="979.46" cy="281.32" r="3.2" fill="#1d4ed8"/>
<circle cx="981.82" cy="281.32" r="3.2" fill="#1d4ed8"/>
<circle cx="984.18" cy="282.54" r="3.2" fill="#1d4ed8"/>
<circle cx="986.54" cy="282.13" r="3.2" fill="#1d4ed8"/>
<circle cx="988.90" cy="281.32" r="3.2" fill="#1d4ed8"/>
<circle cx="991.26" cy="281.32" r="3.2" fill="#1d4ed8"/>
<circle cx="993.61" cy="281.32" r="3.2" fill="#1d4ed8"/>
<circle cx="995.97" cy="282.54" r="3.2" fill="#1d4ed8"/>
<circle cx="998.33" cy="282.13" r="3.2" fill="#1d4ed8"/>
<circle cx="1000.69" cy="281.32" r="3.2" fill="#1d4ed8"/>
<circle cx="1003.05" cy="282.13" r="3.2" fill="#1d4ed8"/>
<circle cx="1005.41" cy="281.73" r="3.2" fill="#1d4ed8"/>
<circle cx="1007.77" cy="282.13" r="3.2" fill="#1d4ed8"/>
<circle cx="1010.13" cy="280.11" r="3.2" fill="#1d4ed8"/>
<circle cx="1012.49" cy="280.11" r="3.2" fill="#1d4ed8"/>
<circle cx="1014.85" cy="280.51" r="3.2" fill="#1d4ed8"/>
<circle cx="1017.21" cy="279.71" r="3.2" fill="#1d4ed8"/>
<circle cx="1019.57" cy="280.11" r="3.2" fill="#1d4ed8"/>
<circle cx="1021.93" cy="280.51" r="3.2" fill="#1d4ed8"/>
<circle cx="1024.29" cy="279.71" r="3.2" fill="#1d4ed8"/>
<circle cx="1026.65" cy="280.11" r="3.2" fill="#1d4ed8"/>
<circle cx="1029.00" cy="280.11" r="3.2" fill="#1d4ed8"/>
<circle cx="1031.36" cy="279.30" r="3.2" fill="#1d4ed8"/>
<circle cx="1033.72" cy="278.90" r="3.2" fill="#1d4ed8"/>
<circle cx="1036.08" cy="278.90" r="3.2" fill="#1d4ed8"/>
<circle cx="1038.44" cy="280.51" r="3.2" fill="#1d4ed8"/>
<circle cx="1040.80" cy="279.30" r="3.2" fill="#1d4ed8"/>
<circle cx="1043.16" cy="278.09" r="3.2" fill="#1d4ed8"/>
<circle cx="1045.52" cy="278.49" r="3.2" fill="#1d4ed8"/>
<circle cx="1047.88" cy="278.49" r="3.2" fill="#1d4ed8"/>
<circle cx="1050.24" cy="277.28" r="3.2" fill="#1d4ed8"/>
<circle cx="1052.60" cy="277.68" r="3.2" fill="#1d4ed8"/>
<circle cx="1054.96" cy="277.68" r="3.2" fill="#1d4ed8"/>
<circle cx="1057.32" cy="278.09" r="3.2" fill="#1d4ed8"/>
<circle cx="1059.68" cy="277.28" r="3.2" fill="#1d4ed8"/>
<circle cx="1062.03" cy="600.00" r="3.2" fill="#1d4ed8"/>
<circle cx="1064.39" cy="278.90" r="3.2" fill="#1d4ed8"/>
<circle cx="1066.75" cy="279.30" r="3.2" fill="#1d4ed8"/>
<circle cx="1069.11" cy="278.90" r="3.2" fill="#1d4ed8"/>
<circle cx="1071.47" cy="278.49" r="3.2" fill="#1d4ed8"/>
<circle cx="1073.83" cy="278.49" r="3.2" fill="#1d4ed8"/>
<circle cx="1076.19" cy="278.49" r="3.2" fill="#1d4ed8"/>
<circle cx="1078.55" cy="278.49" r="3.2" fill="#1d4ed8"/>
<circle cx="1080.91" cy="278.49" r="3.2" fill="#1d4ed8"/>
<circle cx="1083.27" cy="278.49" r="3.2" fill="#1d4ed8"/>
<circle cx="1085.63" cy="278.49" r="3.2" fill="#1d4ed8"/>
<circle cx="1087.99" cy="278.49" r="3.2" fill="#1d4ed8"/>
<circle cx="1090.35" cy="278.49" r="3.2" fill="#1d4ed8"/>
<circle cx="1092.71" cy="278.49" r="3.2" fill="#1d4ed8"/>
<circle cx="1095.06" cy="278.49" r="3.2" fill="#1d4ed8"/>
<circle cx="1097.42" cy="278.49" r="3.2" fill="#1d4ed8"/>
<circle cx="1099.78" cy="600.00" r="3.2" fill="#1d4ed8"/>
<circle cx="1102.14" cy="600.00" r="3.2" fill="#1d4ed8"/>
<circle cx="1104.50" cy="254.63" r="3.2" fill="#1d4ed8"/>
<circle cx="1106.86" cy="600.00" r="3.2" fill="#1d4ed8"/>
<circle cx="1109.22" cy="245.74" r="3.2" fill="#1d4ed8"/>
<circle cx="1111.58" cy="245.74" r="3.2" fill="#1d4ed8"/>
<circle cx="1113.94" cy="246.14" r="3.2" fill="#1d4ed8"/>
<circle cx="1116.30" cy="245.74" r="3.2" fill="#1d4ed8"/>
<circle cx="1118.66" cy="245.74" r="3.2" fill="#1d4ed8"/>
<circle cx="1121.02" cy="245.74" r="3.2" fill="#1d4ed8"/>
<circle cx="1123.38" cy="245.74" r="3.2" fill="#1d4ed8"/>
<circle cx="1125.74" cy="245.74" r="3.2" fill="#1d4ed8"/>
<circle cx="1128.10" cy="240.07" r="3.2" fill="#1d4ed8"/>
<circle cx="1130.45" cy="238.05" r="3.2" fill="#1d4ed8"/>
<circle cx="1132.81" cy="238.05" r="3.2" fill="#1d4ed8"/>
<circle cx="1135.17" cy="227.13" r="3.2" fill="#1d4ed8"/>
<circle cx="1137.53" cy="227.13" r="3.2" fill="#1d4ed8"/>
<circle cx="1139.89" cy="226.32" r="3.2" fill="#1d4ed8"/>
<circle cx="1142.25" cy="227.54" r="3.2" fill="#1d4ed8"/>
<circle cx="1144.61" cy="226.73" r="3.2" fill="#1d4ed8"/>
<circle cx="1146.97" cy="226.32" r="3.2" fill="#1d4ed8"/>
<circle cx="1149.33" cy="227.13" r="3.2" fill="#1d4ed8"/>
<circle cx="1151.69" cy="227.13" r="3.2" fill="#1d4ed8"/>
<circle cx="1154.05" cy="226.73" r="3.2" fill="#1d4ed8"/>
<circle cx="1156.41" cy="226.32" r="3.2" fill="#1d4ed8"/>
<circle cx="1158.77" cy="226.73" r="3.2" fill="#1d4ed8"/>
<circle cx="1161.13" cy="226.73" r="3.2" fill="#1d4ed8"/>
<circle cx="1163.48" cy="226.73" r="3.2" fill="#1d4ed8"/>
<circle cx="1165.84" cy="225.11" r="3.2" fill="#1d4ed8"/>
<circle cx="1168.20" cy="224.71" r="3.2" fill="#1d4ed8"/>
<circle cx="1170.56" cy="225.11" r="3.2" fill="#1d4ed8"/>
<circle cx="1172.92" cy="224.30" r="3.2" fill="#1d4ed8"/>
<circle cx="1175.28" cy="226.32" r="3.2" fill="#1d4ed8"/>
<circle cx="1177.64" cy="224.30" r="3.2" fill="#1d4ed8"/>
<circle cx="1180.00" cy="225.51" r="3.2" fill="#1d4ed8"/>
<text x="635" y="695" text-anchor="middle" font-size="14" fill="#111" font-family="sans-serif">Date</text>
<text x="24" y="325" text-anchor="middle" font-size="14" fill="#111" transform="rotate(-90 24,325)" font-family="sans-serif">Passed files</text>
</svg>
