<?xml version="1.0" encoding="UTF-8"?>
<svg xmlns="http://www.w3.org/2000/svg" width="1280" height="720" viewBox="0 0 1280 720">
<rect width="100%" height="100%" fill="#ffffff"/>
<text x="640" y="30" text-anchor="middle" font-size="22" font-family="sans-serif">Roast passed files history</text>
<line x1="90" y1="600" x2="1180" y2="600" stroke="#333" stroke-width="1.5"/>
<line x1="90" y1="50" x2="90" y2="600" stroke="#333" stroke-width="1.5"/>
<line x1="90" y1="600.00" x2="1180" y2="600.00" stroke="#e5e7eb" stroke-width="1"/>
<text x="78" y="605.00" text-anchor="end" font-size="12" fill="#111" font-family="sans-serif">0</text>
<line x1="90" y1="397.79" x2="1180" y2="397.79" stroke="#e5e7eb" stroke-width="1"/>
<text x="78" y="402.79" text-anchor="end" font-size="12" fill="#111" font-family="sans-serif">500</text>
<line x1="90" y1="195.59" x2="1180" y2="195.59" stroke="#e5e7eb" stroke-width="1"/>
<text x="78" y="200.59" text-anchor="end" font-size="12" fill="#111" font-family="sans-serif">1000</text>
<line x1="90.00" y1="600" x2="90.00" y2="606" stroke="#333" stroke-width="1"/>
<text x="90.00" y="624" text-anchor="end" font-size="11" fill="#111" transform="rotate(-40 90.00,624)" font-family="sans-serif">2026-02-12</text>
<line x1="225.84" y1="600" x2="225.84" y2="606" stroke="#333" stroke-width="1"/>
<text x="225.84" y="624" text-anchor="end" font-size="11" fill="#111" transform="rotate(-40 225.84,624)" font-family="sans-serif">2026-02-17</text>
<line x1="361.67" y1="600" x2="361.67" y2="606" stroke="#333" stroke-width="1"/>
<text x="361.67" y="624" text-anchor="end" font-size="11" fill="#111" transform="rotate(-40 361.67,624)" font-family="sans-serif">2026-02-21</text>
<line x1="497.51" y1="600" x2="497.51" y2="606" stroke="#333" stroke-width="1"/>
<text x="497.51" y="624" text-anchor="end" font-size="11" fill="#111" transform="rotate(-40 497.51,624)" font-family="sans-serif">2026-02-25</text>
<line x1="633.34" y1="600" x2="633.34" y2="606" stroke="#333" stroke-width="1"/>
<text x="633.34" y="624" text-anchor="end" font-size="11" fill="#111" transform="rotate(-40 633.34,624)" font-family="sans-serif">2026-02-27</text>
<line x1="769.18" y1="600" x2="769.18" y2="606" stroke="#333" stroke-width="1"/>
<text x="769.18" y="624" text-anchor="end" font-size="11" fill="#111" transform="rotate(-40 769.18,624)" font-family="sans-serif">2026-03-01</text>
<line x1="905.02" y1="600" x2="905.02" y2="606" stroke="#333" stroke-width="1"/>
<text x="905.02" y="624" text-anchor="end" font-size="11" fill="#111" transform="rotate(-40 905.02,624)" font-family="sans-serif">2026-03-06</text>
<line x1="1040.85" y1="600" x2="1040.85" y2="606" stroke="#333" stroke-width="1"/>
<text x="1040.85" y="624" text-anchor="end" font-size="11" fill="#111" transform="rotate(-40 1040.85,624)" font-family="sans-serif">2026-03-07</text>
<line x1="1176.69" y1="600" x2="1176.69" y2="606" stroke="#333" stroke-width="1"/>
<text x="1176.69" y="624" text-anchor="end" font-size="11" fill="#111" transform="rotate(-40 1176.69,624)" font-family="sans-serif">2026-03-11</text>
<line x1="1180.00" y1="600" x2="1180.00" y2="606" stroke="#333" stroke-width="1"/>
<text x="1180.00" y="624" text-anchor="end" font-size="11" fill="#111" transform="rotate(-40 1180.00,624)" font-family="sans-serif">2026-03-11</text>
<line x1="90" y1="75.88" x2="1180" y2="75.88" stroke="#dc2626" stroke-width="1.5" stroke-dasharray="8,4"/>
<text x="1184" y="79.88" font-size="12" fill="#dc2626" font-family="sans-serif">Goal: 1296</text>
<polyline fill="none" stroke="#2563eb" stroke-width="3" points="90.00,540.55 93.31,538.53 96.63,536.91 99.94,534.49 103.25,534.49 106.57,533.27 109.88,532.46 113.19,532.87 116.50,532.06 119.82,532.46 123.13,532.06 126.44,568.46 129.76,568.46 133.07,566.43 136.38,545.00 139.70,545.00 143.01,544.19 146.32,543.79 149.64,543.79 152.95,543.38 156.26,541.76 159.57,541.36 162.89,540.96 166.20,540.96 169.51,539.34 172.83,539.34 176.14,556.73 179.45,556.73 182.77,555.51 186.08,551.07 189.39,538.93 192.71,538.93 196.02,538.93 199.33,538.12 202.64,536.91 205.96,536.91 209.27,536.51 212.58,536.51 215.90,556.73 219.21,556.73 222.52,556.73 225.84,556.73 229.15,535.29 232.46,535.29 235.78,535.29 239.09,535.29 242.40,534.49 245.71,534.08 249.03,533.68 252.34,532.87 255.65,532.06 258.97,532.06 262.28,531.25 265.59,530.85 268.91,530.44 272.22,530.04 275.53,530.04 278.84,529.23 282.16,529.23 285.47,529.23 288.78,528.42 292.10,528.42 295.41,527.61 298.72,527.21 302.04,526.80 305.35,526.40 308.66,525.18 311.98,523.57 315.29,523.57 318.60,523.16 321.91,522.76 325.23,522.35 328.54,521.54 331.85,519.52 335.17,517.50 338.48,517.50 341.79,517.50 345.11,517.50 348.42,517.50 351.73,517.50 355.05,517.10 358.36,516.69 361.67,515.48 364.98,515.07 368.30,514.67 371.61,513.86 374.92,514.26 378.24,512.24 381.55,511.84 384.86,511.84 388.18,511.03 391.49,509.82 394.80,507.79 398.12,506.99 401.43,506.58 404.74,509.41 408.05,509.01 411.37,504.96 414.68,504.56 417.99,504.15 421.31,504.56 424.62,503.75 427.93,503.75 431.25,503.35 434.56,499.30 437.87,496.47 441.19,490.00 444.50,484.34 447.81,481.10 451.12,480.29 454.44,480.70 457.75,460.88 461.06,459.26 464.38,458.05 467.69,456.03 471.00,456.03 474.32,454.41 477.63,450.77 480.94,444.30 484.26,443.90 487.57,600.00 490.88,441.88 494.19,440.66 497.51,439.45 500.82,439.04 504.13,438.64 507.45,437.83 510.76,436.62 514.07,436.62 517.39,434.60 520.70,432.17 524.01,429.34 527.33,428.93 530.64,428.53 533.95,427.72 537.26,426.91 540.58,426.10 543.89,426.10 547.20,426.10 550.52,419.63 553.83,419.23 557.14,418.42 560.46,418.01 563.77,417.61 567.08,417.61 570.40,417.61 573.71,417.21 577.02,417.21 580.33,413.57 583.65,411.95 586.96,412.76 590.27,410.74 593.59,410.74 596.90,410.33 600.21,410.33 603.53,410.33 606.84,409.93 610.15,409.93 613.47,409.93 616.78,409.52 620.09,409.52 623.40,409.12 626.72,409.52 630.03,409.12 633.34,407.50 636.66,407.10 639.97,403.05 643.28,399.82 646.60,400.22 649.91,400.62 653.22,400.62 656.53,399.41 659.85,392.94 663.16,391.32 666.47,389.30 669.79,389.30 673.10,388.49 676.41,375.15 679.73,374.74 683.04,374.74 686.35,374.74 689.67,374.74 692.98,374.34 696.29,374.34 699.60,374.34 702.92,374.34 706.23,374.34 709.54,373.93 712.86,373.12 716.17,372.72 719.48,373.53 722.80,435.81 726.11,372.32 729.42,372.72 732.74,371.91 736.05,371.91 739.36,372.32 742.67,371.10 745.99,369.89 749.30,369.89 752.61,369.89 755.93,369.49 759.24,369.89 762.55,369.08 765.87,368.68 769.18,368.27 772.49,367.87 775.81,367.06 779.12,367.46 782.43,367.06 785.74,366.25 789.06,368.27 792.37,368.68 795.68,368.68 799.00,368.27 802.31,369.08 805.62,367.87 808.94,367.46 812.25,367.06 815.56,360.18 818.88,359.78 822.19,359.38 825.50,356.95 828.81,357.35 832.13,357.76 835.44,355.33 838.75,355.74 842.07,357.35 845.38,355.33 848.69,356.14 852.01,355.74 855.32,356.14 858.63,354.12 861.95,354.93 865.26,356.14 868.57,354.52 871.88,353.71 875.20,354.12 878.51,354.93 881.82,352.90 885.14,353.71 888.45,353.31 891.76,353.31 895.08,354.52 898.39,352.90 901.70,352.50 905.02,352.50 908.33,353.31 911.64,352.50 914.95,353.71 918.27,354.12 921.58,352.50 924.89,352.90 928.21,352.50 931.52,352.10 934.83,351.69 938.15,352.10 941.46,354.12 944.77,352.50 948.09,352.10 951.40,352.10 954.71,349.67 958.02,349.67 961.34,350.88 964.65,351.29 967.96,350.48 971.28,352.10 974.59,350.48 977.90,350.48 981.22,350.48 984.53,350.07 987.84,348.46 991.16,351.29 994.47,349.67 997.78,351.29 1001.09,349.67 1004.41,348.86 1007.72,348.46 1011.03,348.46 1014.35,347.24 1017.66,348.86 1020.97,346.84 1024.29,348.46 1027.60,348.86 1030.91,346.84 1034.22,349.26 1037.54,348.05 1040.85,349.26 1044.16,349.26 1047.48,350.48 1050.79,352.90 1054.10,349.67 1057.42,348.46 1060.73,345.62 1064.04,344.82 1067.36,344.41 1070.67,342.39 1073.98,341.18 1077.29,341.58 1080.61,339.15 1083.92,338.35 1087.23,337.54 1090.55,336.73 1093.86,335.92 1097.17,337.54 1100.49,338.35 1103.80,337.54 1107.11,337.54 1110.43,337.54 1113.74,333.09 1117.05,333.90 1120.36,335.92 1123.68,336.73 1126.99,335.51 1130.30,332.28 1133.62,331.47 1136.93,331.07 1140.24,331.47 1143.56,331.07 1146.87,331.07 1150.18,331.07 1153.50,331.07 1156.81,331.07 1160.12,331.07 1163.43,331.07 1166.75,331.07 1170.06,331.07 1173.37,331.07 1176.69,331.47 1180.00,331.88"/>
<circle cx="90.00" cy="540.55" r="3.2" fill="#1d4ed8"/>
<circle cx="93.31" cy="538.53" r="3.2" fill="#1d4ed8"/>
<circle cx="96.63" cy="536.91" r="3.2" fill="#1d4ed8"/>
<circle cx="99.94" cy="534.49" r="3.2" fill="#1d4ed8"/>
<circle cx="103.25" cy="534.49" r="3.2" fill="#1d4ed8"/>
<circle cx="106.57" cy="533.27" r="3.2" fill="#1d4ed8"/>
<circle cx="109.88" cy="532.46" r="3.2" fill="#1d4ed8"/>
<circle cx="113.19" cy="532.87" r="3.2" fill="#1d4ed8"/>
<circle cx="116.50" cy="532.06" r="3.2" fill="#1d4ed8"/>
<circle cx="119.82" cy="532.46" r="3.2" fill="#1d4ed8"/>
<circle cx="123.13" cy="532.06" r="3.2" fill="#1d4ed8"/>
<circle cx="126.44" cy="568.46" r="3.2" fill="#1d4ed8"/>
<circle cx="129.76" cy="568.46" r="3.2" fill="#1d4ed8"/>
<circle cx="133.07" cy="566.43" r="3.2" fill="#1d4ed8"/>
<circle cx="136.38" cy="545.00" r="3.2" fill="#1d4ed8"/>
<circle cx="139.70" cy="545.00" r="3.2" fill="#1d4ed8"/>
<circle cx="143.01" cy="544.19" r="3.2" fill="#1d4ed8"/>
<circle cx="146.32" cy="543.79" r="3.2" fill="#1d4ed8"/>
<circle cx="149.64" cy="543.79" r="3.2" fill="#1d4ed8"/>
<circle cx="152.95" cy="543.38" r="3.2" fill="#1d4ed8"/>
<circle cx="156.26" cy="541.76" r="3.2" fill="#1d4ed8"/>
<circle cx="159.57" cy="541.36" r="3.2" fill="#1d4ed8"/>
<circle cx="162.89" cy="540.96" r="3.2" fill="#1d4ed8"/>
<circle cx="166.20" cy="540.96" r="3.2" fill="#1d4ed8"/>
<circle cx="169.51" cy="539.34" r="3.2" fill="#1d4ed8"/>
<circle cx="172.83" cy="539.34" r="3.2" fill="#1d4ed8"/>
<circle cx="176.14" cy="556.73" r="3.2" fill="#1d4ed8"/>
<circle cx="179.45" cy="556.73" r="3.2" fill="#1d4ed8"/>
<circle cx="182.77" cy="555.51" r="3.2" fill="#1d4ed8"/>
<circle cx="186.08" cy="551.07" r="3.2" fill="#1d4ed8"/>
<circle cx="189.39" cy="538.93" r="3.2" fill="#1d4ed8"/>
<circle cx="192.71" cy="538.93" r="3.2" fill="#1d4ed8"/>
<circle cx="196.02" cy="538.93" r="3.2" fill="#1d4ed8"/>
<circle cx="199.33" cy="538.12" r="3.2" fill="#1d4ed8"/>
<circle cx="202.64" cy="536.91" r="3.2" fill="#1d4ed8"/>
<circle cx="205.96" cy="536.91" r="3.2" fill="#1d4ed8"/>
<circle cx="209.27" cy="536.51" r="3.2" fill="#1d4ed8"/>
<circle cx="212.58" cy="536.51" r="3.2" fill="#1d4ed8"/>
<circle cx="215.90" cy="556.73" r="3.2" fill="#1d4ed8"/>
<circle cx="219.21" cy="556.73" r="3.2" fill="#1d4ed8"/>
<circle cx="222.52" cy="556.73" r="3.2" fill="#1d4ed8"/>
<circle cx="225.84" cy="556.73" r="3.2" fill="#1d4ed8"/>
<circle cx="229.15" cy="535.29" r="3.2" fill="#1d4ed8"/>
<circle cx="232.46" cy="535.29" r="3.2" fill="#1d4ed8"/>
<circle cx="235.78" cy="535.29" r="3.2" fill="#1d4ed8"/>
<circle cx="239.09" cy="535.29" r="3.2" fill="#1d4ed8"/>
<circle cx="242.40" cy="534.49" r="3.2" fill="#1d4ed8"/>
<circle cx="245.71" cy="534.08" r="3.2" fill="#1d4ed8"/>
<circle cx="249.03" cy="533.68" r="3.2" fill="#1d4ed8"/>
<circle cx="252.34" cy="532.87" r="3.2" fill="#1d4ed8"/>
<circle cx="255.65" cy="532.06" r="3.2" fill="#1d4ed8"/>
<circle cx="258.97" cy="532.06" r="3.2" fill="#1d4ed8"/>
<circle cx="262.28" cy="531.25" r="3.2" fill="#1d4ed8"/>
<circle cx="265.59" cy="530.85" r="3.2" fill="#1d4ed8"/>
<circle cx="268.91" cy="530.44" r="3.2" fill="#1d4ed8"/>
<circle cx="272.22" cy="530.04" r="3.2" fill="#1d4ed8"/>
<circle cx="275.53" cy="530.04" r="3.2" fill="#1d4ed8"/>
<circle cx="278.84" cy="529.23" r="3.2" fill="#1d4ed8"/>
<circle cx="282.16" cy="529.23" r="3.2" fill="#1d4ed8"/>
<circle cx="285.47" cy="529.23" r="3.2" fill="#1d4ed8"/>
<circle cx="288.78" cy="528.42" r="3.2" fill="#1d4ed8"/>
<circle cx="292.10" cy="528.42" r="3.2" fill="#1d4ed8"/>
<circle cx="295.41" cy="527.61" r="3.2" fill="#1d4ed8"/>
<circle cx="298.72" cy="527.21" r="3.2" fill="#1d4ed8"/>
<circle cx="302.04" cy="526.80" r="3.2" fill="#1d4ed8"/>
<circle cx="305.35" cy="526.40" r="3.2" fill="#1d4ed8"/>
<circle cx="308.66" cy="525.18" r="3.2" fill="#1d4ed8"/>
<circle cx="311.98" cy="523.57" r="3.2" fill="#1d4ed8"/>
<circle cx="315.29" cy="523.57" r="3.2" fill="#1d4ed8"/>
<circle cx="318.60" cy="523.16" r="3.2" fill="#1d4ed8"/>
<circle cx="321.91" cy="522.76" r="3.2" fill="#1d4ed8"/>
<circle cx="325.23" cy="522.35" r="3.2" fill="#1d4ed8"/>
<circle cx="328.54" cy="521.54" r="3.2" fill="#1d4ed8"/>
<circle cx="331.85" cy="519.52" r="3.2" fill="#1d4ed8"/>
<circle cx="335.17" cy="517.50" r="3.2" fill="#1d4ed8"/>
<circle cx="338.48" cy="517.50" r="3.2" fill="#1d4ed8"/>
<circle cx="341.79" cy="517.50" r="3.2" fill="#1d4ed8"/>
<circle cx="345.11" cy="517.50" r="3.2" fill="#1d4ed8"/>
<circle cx="348.42" cy="517.50" r="3.2" fill="#1d4ed8"/>
<circle cx="351.73" cy="517.50" r="3.2" fill="#1d4ed8"/>
<circle cx="355.05" cy="517.10" r="3.2" fill="#1d4ed8"/>
<circle cx="358.36" cy="516.69" r="3.2" fill="#1d4ed8"/>
<circle cx="361.67" cy="515.48" r="3.2" fill="#1d4ed8"/>
<circle cx="364.98" cy="515.07" r="3.2" fill="#1d4ed8"/>
<circle cx="368.30" cy="514.67" r="3.2" fill="#1d4ed8"/>
<circle cx="371.61" cy="513.86" r="3.2" fill="#1d4ed8"/>
<circle cx="374.92" cy="514.26" r="3.2" fill="#1d4ed8"/>
<circle cx="378.24" cy="512.24" r="3.2" fill="#1d4ed8"/>
<circle cx="381.55" cy="511.84" r="3.2" fill="#1d4ed8"/>
<circle cx="384.86" cy="511.84" r="3.2" fill="#1d4ed8"/>
<circle cx="388.18" cy="511.03" r="3.2" fill="#1d4ed8"/>
<circle cx="391.49" cy="509.82" r="3.2" fill="#1d4ed8"/>
<circle cx="394.80" cy="507.79" r="3.2" fill="#1d4ed8"/>
<circle cx="398.12" cy="506.99" r="3.2" fill="#1d4ed8"/>
<circle cx="401.43" cy="506.58" r="3.2" fill="#1d4ed8"/>
<circle cx="404.74" cy="509.41" r="3.2" fill="#1d4ed8"/>
<circle cx="408.05" cy="509.01" r="3.2" fill="#1d4ed8"/>
<circle cx="411.37" cy="504.96" r="3.2" fill="#1d4ed8"/>
<circle cx="414.68" cy="504.56" r="3.2" fill="#1d4ed8"/>
<circle cx="417.99" cy="504.15" r="3.2" fill="#1d4ed8"/>
<circle cx="421.31" cy="504.56" r="3.2" fill="#1d4ed8"/>
<circle cx="424.62" cy="503.75" r="3.2" fill="#1d4ed8"/>
<circle cx="427.93" cy="503.75" r="3.2" fill="#1d4ed8"/>
<circle cx="431.25" cy="503.35" r="3.2" fill="#1d4ed8"/>
<circle cx="434.56" cy="499.30" r="3.2" fill="#1d4ed8"/>
<circle cx="437.87" cy="496.47" r="3.2" fill="#1d4ed8"/>
<circle cx="441.19" cy="490.00" r="3.2" fill="#1d4ed8"/>
<circle cx="444.50" cy="484.34" r="3.2" fill="#1d4ed8"/>
<circle cx="447.81" cy="481.10" r="3.2" fill="#1d4ed8"/>
<circle cx="451.12" cy="480.29" r="3.2" fill="#1d4ed8"/>
<circle cx="454.44" cy="480.70" r="3.2" fill="#1d4ed8"/>
<circle cx="457.75" cy="460.88" r="3.2" fill="#1d4ed8"/>
<circle cx="461.06" cy="459.26" r="3.2" fill="#1d4ed8"/>
<circle cx="464.38" cy="458.05" r="3.2" fill="#1d4ed8"/>
<circle cx="467.69" cy="456.03" r="3.2" fill="#1d4ed8"/>
<circle cx="471.00" cy="456.03" r="3.2" fill="#1d4ed8"/>
<circle cx="474.32" cy="454.41" r="3.2" fill="#1d4ed8"/>
<circle cx="477.63" cy="450.77" r="3.2" fill="#1d4ed8"/>
<circle cx="480.94" cy="444.30" r="3.2" fill="#1d4ed8"/>
<circle cx="484.26" cy="443.90" r="3.2" fill="#1d4ed8"/>
<circle cx="487.57" cy="600.00" r="3.2" fill="#1d4ed8"/>
<circle cx="490.88" cy="441.88" r="3.2" fill="#1d4ed8"/>
<circle cx="494.19" cy="440.66" r="3.2" fill="#1d4ed8"/>
<circle cx="497.51" cy="439.45" r="3.2" fill="#1d4ed8"/>
<circle cx="500.82" cy="439.04" r="3.2" fill="#1d4ed8"/>
<circle cx="504.13" cy="438.64" r="3.2" fill="#1d4ed8"/>
<circle cx="507.45" cy="437.83" r="3.2" fill="#1d4ed8"/>
<circle cx="510.76" cy="436.62" r="3.2" fill="#1d4ed8"/>
<circle cx="514.07" cy="436.62" r="3.2" fill="#1d4ed8"/>
<circle cx="517.39" cy="434.60" r="3.2" fill="#1d4ed8"/>
<circle cx="520.70" cy="432.17" r="3.2" fill="#1d4ed8"/>
<circle cx="524.01" cy="429.34" r="3.2" fill="#1d4ed8"/>
<circle cx="527.33" cy="428.93" r="3.2" fill="#1d4ed8"/>
<circle cx="530.64" cy="428.53" r="3.2" fill="#1d4ed8"/>
<circle cx="533.95" cy="427.72" r="3.2" fill="#1d4ed8"/>
<circle cx="537.26" cy="426.91" r="3.2" fill="#1d4ed8"/>
<circle cx="540.58" cy="426.10" r="3.2" fill="#1d4ed8"/>
<circle cx="543.89" cy="426.10" r="3.2" fill="#1d4ed8"/>
<circle cx="547.20" cy="426.10" r="3.2" fill="#1d4ed8"/>
<circle cx="550.52" cy="419.63" r="3.2" fill="#1d4ed8"/>
<circle cx="553.83" cy="419.23" r="3.2" fill="#1d4ed8"/>
<circle cx="557.14" cy="418.42" r="3.2" fill="#1d4ed8"/>
<circle cx="560.46" cy="418.01" r="3.2" fill="#1d4ed8"/>
<circle cx="563.77" cy="417.61" r="3.2" fill="#1d4ed8"/>
<circle cx="567.08" cy="417.61" r="3.2" fill="#1d4ed8"/>
<circle cx="570.40" cy="417.61" r="3.2" fill="#1d4ed8"/>
<circle cx="573.71" cy="417.21" r="3.2" fill="#1d4ed8"/>
<circle cx="577.02" cy="417.21" r="3.2" fill="#1d4ed8"/>
<circle cx="580.33" cy="413.57" r="3.2" fill="#1d4ed8"/>
<circle cx="583.65" cy="411.95" r="3.2" fill="#1d4ed8"/>
<circle cx="586.96" cy="412.76" r="3.2" fill="#1d4ed8"/>
<circle cx="590.27" cy="410.74" r="3.2" fill="#1d4ed8"/>
<circle cx="593.59" cy="410.74" r="3.2" fill="#1d4ed8"/>
<circle cx="596.90" cy="410.33" r="3.2" fill="#1d4ed8"/>
<circle cx="600.21" cy="410.33" r="3.2" fill="#1d4ed8"/>
<circle cx="603.53" cy="410.33" r="3.2" fill="#1d4ed8"/>
<circle cx="606.84" cy="409.93" r="3.2" fill="#1d4ed8"/>
<circle cx="610.15" cy="409.93" r="3.2" fill="#1d4ed8"/>
<circle cx="613.47" cy="409.93" r="3.2" fill="#1d4ed8"/>
<circle cx="616.78" cy="409.52" r="3.2" fill="#1d4ed8"/>
<circle cx="620.09" cy="409.52" r="3.2" fill="#1d4ed8"/>
<circle cx="623.40" cy="409.12" r="3.2" fill="#1d4ed8"/>
<circle cx="626.72" cy="409.52" r="3.2" fill="#1d4ed8"/>
<circle cx="630.03" cy="409.12" r="3.2" fill="#1d4ed8"/>
<circle cx="633.34" cy="407.50" r="3.2" fill="#1d4ed8"/>
<circle cx="636.66" cy="407.10" r="3.2" fill="#1d4ed8"/>
<circle cx="639.97" cy="403.05" r="3.2" fill="#1d4ed8"/>
<circle cx="643.28" cy="399.82" r="3.2" fill="#1d4ed8"/>
<circle cx="646.60" cy="400.22" r="3.2" fill="#1d4ed8"/>
<circle cx="649.91" cy="400.62" r="3.2" fill="#1d4ed8"/>
<circle cx="653.22" cy="400.62" r="3.2" fill="#1d4ed8"/>
<circle cx="656.53" cy="399.41" r="3.2" fill="#1d4ed8"/>
<circle cx="659.85" cy="392.94" r="3.2" fill="#1d4ed8"/>
<circle cx="663.16" cy="391.32" r="3.2" fill="#1d4ed8"/>
<circle cx="666.47" cy="389.30" r="3.2" fill="#1d4ed8"/>
<circle cx="669.79" cy="389.30" r="3.2" fill="#1d4ed8"/>
<circle cx="673.10" cy="388.49" r="3.2" fill="#1d4ed8"/>
<circle cx="676.41" cy="375.15" r="3.2" fill="#1d4ed8"/>
<circle cx="679.73" cy="374.74" r="3.2" fill="#1d4ed8"/>
<circle cx="683.04" cy="374.74" r="3.2" fill="#1d4ed8"/>
<circle cx="686.35" cy="374.74" r="3.2" fill="#1d4ed8"/>
<circle cx="689.67" cy="374.74" r="3.2" fill="#1d4ed8"/>
<circle cx="692.98" cy="374.34" r="3.2" fill="#1d4ed8"/>
<circle cx="696.29" cy="374.34" r="3.2" fill="#1d4ed8"/>
<circle cx="699.60" cy="374.34" r="3.2" fill="#1d4ed8"/>
<circle cx="702.92" cy="374.34" r="3.2" fill="#1d4ed8"/>
<circle cx="706.23" cy="374.34" r="3.2" fill="#1d4ed8"/>
<circle cx="709.54" cy="373.93" r="3.2" fill="#1d4ed8"/>
<circle cx="712.86" cy="373.12" r="3.2" fill="#1d4ed8"/>
<circle cx="716.17" cy="372.72" r="3.2" fill="#1d4ed8"/>
<circle cx="719.48" cy="373.53" r="3.2" fill="#1d4ed8"/>
<circle cx="722.80" cy="435.81" r="3.2" fill="#1d4ed8"/>
<circle cx="726.11" cy="372.32" r="3.2" fill="#1d4ed8"/>
<circle cx="729.42" cy="372.72" r="3.2" fill="#1d4ed8"/>
<circle cx="732.74" cy="371.91" r="3.2" fill="#1d4ed8"/>
<circle cx="736.05" cy="371.91" r="3.2" fill="#1d4ed8"/>
<circle cx="739.36" cy="372.32" r="3.2" fill="#1d4ed8"/>
<circle cx="742.67" cy="371.10" r="3.2" fill="#1d4ed8"/>
<circle cx="745.99" cy="369.89" r="3.2" fill="#1d4ed8"/>
<circle cx="749.30" cy="369.89" r="3.2" fill="#1d4ed8"/>
<circle cx="752.61" cy="369.89" r="3.2" fill="#1d4ed8"/>
<circle cx="755.93" cy="369.49" r="3.2" fill="#1d4ed8"/>
<circle cx="759.24" cy="369.89" r="3.2" fill="#1d4ed8"/>
<circle cx="762.55" cy="369.08" r="3.2" fill="#1d4ed8"/>
<circle cx="765.87" cy="368.68" r="3.2" fill="#1d4ed8"/>
<circle cx="769.18" cy="368.27" r="3.2" fill="#1d4ed8"/>
<circle cx="772.49" cy="367.87" r="3.2" fill="#1d4ed8"/>
<circle cx="775.81" cy="367.06" r="3.2" fill="#1d4ed8"/>
<circle cx="779.12" cy="367.46" r="3.2" fill="#1d4ed8"/>
<circle cx="782.43" cy="367.06" r="3.2" fill="#1d4ed8"/>
<circle cx="785.74" cy="366.25" r="3.2" fill="#1d4ed8"/>
<circle cx="789.06" cy="368.27" r="3.2" fill="#1d4ed8"/>
<circle cx="792.37" cy="368.68" r="3.2" fill="#1d4ed8"/>
<circle cx="795.68" cy="368.68" r="3.2" fill="#1d4ed8"/>
<circle cx="799.00" cy="368.27" r="3.2" fill="#1d4ed8"/>
<circle cx="802.31" cy="369.08" r="3.2" fill="#1d4ed8"/>
<circle cx="805.62" cy="367.87" r="3.2" fill="#1d4ed8"/>
<circle cx="808.94" cy="367.46" r="3.2" fill="#1d4ed8"/>
<circle cx="812.25" cy="367.06" r="3.2" fill="#1d4ed8"/>
<circle cx="815.56" cy="360.18" r="3.2" fill="#1d4ed8"/>
<circle cx="818.88" cy="359.78" r="3.2" fill="#1d4ed8"/>
<circle cx="822.19" cy="359.38" r="3.2" fill="#1d4ed8"/>
<circle cx="825.50" cy="356.95" r="3.2" fill="#1d4ed8"/>
<circle cx="828.81" cy="357.35" r="3.2" fill="#1d4ed8"/>
<circle cx="832.13" cy="357.76" r="3.2" fill="#1d4ed8"/>
<circle cx="835.44" cy="355.33" r="3.2" fill="#1d4ed8"/>
<circle cx="838.75" cy="355.74" r="3.2" fill="#1d4ed8"/>
<circle cx="842.07" cy="357.35" r="3.2" fill="#1d4ed8"/>
<circle cx="845.38" cy="355.33" r="3.2" fill="#1d4ed8"/>
<circle cx="848.69" cy="356.14" r="3.2" fill="#1d4ed8"/>
<circle cx="852.01" cy="355.74" r="3.2" fill="#1d4ed8"/>
<circle cx="855.32" cy="356.14" r="3.2" fill="#1d4ed8"/>
<circle cx="858.63" cy="354.12" r="3.2" fill="#1d4ed8"/>
<circle cx="861.95" cy="354.93" r="3.2" fill="#1d4ed8"/>
<circle cx="865.26" cy="356.14" r="3.2" fill="#1d4ed8"/>
<circle cx="868.57" cy="354.52" r="3.2" fill="#1d4ed8"/>
<circle cx="871.88" cy="353.71" r="3.2" fill="#1d4ed8"/>
<circle cx="875.20" cy="354.12" r="3.2" fill="#1d4ed8"/>
<circle cx="878.51" cy="354.93" r="3.2" fill="#1d4ed8"/>
<circle cx="881.82" cy="352.90" r="3.2" fill="#1d4ed8"/>
<circle cx="885.14" cy="353.71" r="3.2" fill="#1d4ed8"/>
<circle cx="888.45" cy="353.31" r="3.2" fill="#1d4ed8"/>
<circle cx="891.76" cy="353.31" r="3.2" fill="#1d4ed8"/>
<circle cx="895.08" cy="354.52" r="3.2" fill="#1d4ed8"/>
<circle cx="898.39" cy="352.90" r="3.2" fill="#1d4ed8"/>
<circle cx="901.70" cy="352.50" r="3.2" fill="#1d4ed8"/>
<circle cx="905.02" cy="352.50" r="3.2" fill="#1d4ed8"/>
<circle cx="908.33" cy="353.31" r="3.2" fill="#1d4ed8"/>
<circle cx="911.64" cy="352.50" r="3.2" fill="#1d4ed8"/>
<circle cx="914.95" cy="353.71" r="3.2" fill="#1d4ed8"/>
<circle cx="918.27" cy="354.12" r="3.2" fill="#1d4ed8"/>
<circle cx="921.58" cy="352.50" r="3.2" fill="#1d4ed8"/>
<circle cx="924.89" cy="352.90" r="3.2" fill="#1d4ed8"/>
<circle cx="928.21" cy="352.50" r="3.2" fill="#1d4ed8"/>
<circle cx="931.52" cy="352.10" r="3.2" fill="#1d4ed8"/>
<circle cx="934.83" cy="351.69" r="3.2" fill="#1d4ed8"/>
<circle cx="938.15" cy="352.10" r="3.2" fill="#1d4ed8"/>
<circle cx="941.46" cy="354.12" r="3.2" fill="#1d4ed8"/>
<circle cx="944.77" cy="352.50" r="3.2" fill="#1d4ed8"/>
<circle cx="948.09" cy="352.10" r="3.2" fill="#1d4ed8"/>
<circle cx="951.40" cy="352.10" r="3.2" fill="#1d4ed8"/>
<circle cx="954.71" cy="349.67" r="3.2" fill="#1d4ed8"/>
<circle cx="958.02" cy="349.67" r="3.2" fill="#1d4ed8"/>
<circle cx="961.34" cy="350.88" r="3.2" fill="#1d4ed8"/>
<circle cx="964.65" cy="351.29" r="3.2" fill="#1d4ed8"/>
<circle cx="967.96" cy="350.48" r="3.2" fill="#1d4ed8"/>
<circle cx="971.28" cy="352.10" r="3.2" fill="#1d4ed8"/>
<circle cx="974.59" cy="350.48" r="3.2" fill="#1d4ed8"/>
<circle cx="977.90" cy="350.48" r="3.2" fill="#1d4ed8"/>
<circle cx="981.22" cy="350.48" r="3.2" fill="#1d4ed8"/>
<circle cx="984.53" cy="350.07" r="3.2" fill="#1d4ed8"/>
<circle cx="987.84" cy="348.46" r="3.2" fill="#1d4ed8"/>
<circle cx="991.16" cy="351.29" r="3.2" fill="#1d4ed8"/>
<circle cx="994.47" cy="349.67" r="3.2" fill="#1d4ed8"/>
<circle cx="997.78" cy="351.29" r="3.2" fill="#1d4ed8"/>
<circle cx="1001.09" cy="349.67" r="3.2" fill="#1d4ed8"/>
<circle cx="1004.41" cy="348.86" r="3.2" fill="#1d4ed8"/>
<circle cx="1007.72" cy="348.46" r="3.2" fill="#1d4ed8"/>
<circle cx="1011.03" cy="348.46" r="3.2" fill="#1d4ed8"/>
<circle cx="1014.35" cy="347.24" r="3.2" fill="#1d4ed8"/>
<circle cx="1017.66" cy="348.86" r="3.2" fill="#1d4ed8"/>
<circle cx="1020.97" cy="346.84" r="3.2" fill="#1d4ed8"/>
<circle cx="1024.29" cy="348.46" r="3.2" fill="#1d4ed8"/>
<circle cx="1027.60" cy="348.86" r="3.2" fill="#1d4ed8"/>
<circle cx="1030.91" cy="346.84" r="3.2" fill="#1d4ed8"/>
<circle cx="1034.22" cy="349.26" r="3.2" fill="#1d4ed8"/>
<circle cx="1037.54" cy="348.05" r="3.2" fill="#1d4ed8"/>
<circle cx="1040.85" cy="349.26" r="3.2" fill="#1d4ed8"/>
<circle cx="1044.16" cy="349.26" r="3.2" fill="#1d4ed8"/>
<circle cx="1047.48" cy="350.48" r="3.2" fill="#1d4ed8"/>
<circle cx="1050.79" cy="352.90" r="3.2" fill="#1d4ed8"/>
<circle cx="1054.10" cy="349.67" r="3.2" fill="#1d4ed8"/>
<circle cx="1057.42" cy="348.46" r="3.2" fill="#1d4ed8"/>
<circle cx="1060.73" cy="345.62" r="3.2" fill="#1d4ed8"/>
<circle cx="1064.04" cy="344.82" r="3.2" fill="#1d4ed8"/>
<circle cx="1067.36" cy="344.41" r="3.2" fill="#1d4ed8"/>
<circle cx="1070.67" cy="342.39" r="3.2" fill="#1d4ed8"/>
<circle cx="1073.98" cy="341.18" r="3.2" fill="#1d4ed8"/>
<circle cx="1077.29" cy="341.58" r="3.2" fill="#1d4ed8"/>
<circle cx="1080.61" cy="339.15" r="3.2" fill="#1d4ed8"/>
<circle cx="1083.92" cy="338.35" r="3.2" fill="#1d4ed8"/>
<circle cx="1087.23" cy="337.54" r="3.2" fill="#1d4ed8"/>
<circle cx="1090.55" cy="336.73" r="3.2" fill="#1d4ed8"/>
<circle cx="1093.86" cy="335.92" r="3.2" fill="#1d4ed8"/>
<circle cx="1097.17" cy="337.54" r="3.2" fill="#1d4ed8"/>
<circle cx="1100.49" cy="338.35" r="3.2" fill="#1d4ed8"/>
<circle cx="1103.80" cy="337.54" r="3.2" fill="#1d4ed8"/>
<circle cx="1107.11" cy="337.54" r="3.2" fill="#1d4ed8"/>
<circle cx="1110.43" cy="337.54" r="3.2" fill="#1d4ed8"/>
<circle cx="1113.74" cy="333.09" r="3.2" fill="#1d4ed8"/>
<circle cx="1117.05" cy="333.90" r="3.2" fill="#1d4ed8"/>
<circle cx="1120.36" cy="335.92" r="3.2" fill="#1d4ed8"/>
<circle cx="1123.68" cy="336.73" r="3.2" fill="#1d4ed8"/>
<circle cx="1126.99" cy="335.51" r="3.2" fill="#1d4ed8"/>
<circle cx="1130.30" cy="332.28" r="3.2" fill="#1d4ed8"/>
<circle cx="1133.62" cy="331.47" r="3.2" fill="#1d4ed8"/>
<circle cx="1136.93" cy="331.07" r="3.2" fill="#1d4ed8"/>
<circle cx="1140.24" cy="331.47" r="3.2" fill="#1d4ed8"/>
<circle cx="1143.56" cy="331.07" r="3.2" fill="#1d4ed8"/>
<circle cx="1146.87" cy="331.07" r="3.2" fill="#1d4ed8"/>
<circle cx="1150.18" cy="331.07" r="3.2" fill="#1d4ed8"/>
<circle cx="1153.50" cy="331.07" r="3.2" fill="#1d4ed8"/>
<circle cx="1156.81" cy="331.07" r="3.2" fill="#1d4ed8"/>
<circle cx="1160.12" cy="331.07" r="3.2" fill="#1d4ed8"/>
<circle cx="1163.43" cy="331.07" r="3.2" fill="#1d4ed8"/>
<circle cx="1166.75" cy="331.07" r="3.2" fill="#1d4ed8"/>
<circle cx="1170.06" cy="331.07" r="3.2" fill="#1d4ed8"/>
<circle cx="1173.37" cy="331.07" r="3.2" fill="#1d4ed8"/>
<circle cx="1176.69" cy="331.47" r="3.2" fill="#1d4ed8"/>
<circle cx="1180.00" cy="331.88" r="3.2" fill="#1d4ed8"/>
<text x="635" y="695" text-anchor="middle" font-size="14" fill="#111" font-family="sans-serif">Date</text>
<text x="24" y="325" text-anchor="middle" font-size="14" fill="#111" transform="rotate(-90 24,325)" font-family="sans-serif">Passed files</text>
</svg>
