<?xml version="1.0" encoding="UTF-8"?>
<svg xmlns="http://www.w3.org/2000/svg" width="1280" height="720" viewBox="0 0 1280 720">
<rect width="100%" height="100%" fill="#ffffff"/>
<text x="640" y="30" text-anchor="middle" font-size="22" font-family="sans-serif">Roast passed files history</text>
<line x1="90" y1="600" x2="1180" y2="600" stroke="#333" stroke-width="1.5"/>
<line x1="90" y1="50" x2="90" y2="600" stroke="#333" stroke-width="1.5"/>
<line x1="90" y1="600.00" x2="1180" y2="600.00" stroke="#e5e7eb" stroke-width="1"/>
<text x="78" y="605.00" text-anchor="end" font-size="12" fill="#111" font-family="sans-serif">0</text>
<line x1="90" y1="397.79" x2="1180" y2="397.79" stroke="#e5e7eb" stroke-width="1"/>
<text x="78" y="402.79" text-anchor="end" font-size="12" fill="#111" font-family="sans-serif">500</text>
<line x1="90" y1="195.59" x2="1180" y2="195.59" stroke="#e5e7eb" stroke-width="1"/>
<text x="78" y="200.59" text-anchor="end" font-size="12" fill="#111" font-family="sans-serif">1000</text>
<line x1="90.00" y1="600" x2="90.00" y2="606" stroke="#333" stroke-width="1"/>
<text x="90.00" y="624" text-anchor="end" font-size="11" fill="#111" transform="rotate(-40 90.00,624)" font-family="sans-serif">2026-02-12</text>
<line x1="224.57" y1="600" x2="224.57" y2="606" stroke="#333" stroke-width="1"/>
<text x="224.57" y="624" text-anchor="end" font-size="11" fill="#111" transform="rotate(-40 224.57,624)" font-family="sans-serif">2026-02-17</text>
<line x1="359.14" y1="600" x2="359.14" y2="606" stroke="#333" stroke-width="1"/>
<text x="359.14" y="624" text-anchor="end" font-size="11" fill="#111" transform="rotate(-40 359.14,624)" font-family="sans-serif">2026-02-23</text>
<line x1="493.70" y1="600" x2="493.70" y2="606" stroke="#333" stroke-width="1"/>
<text x="493.70" y="624" text-anchor="end" font-size="11" fill="#111" transform="rotate(-40 493.70,624)" font-family="sans-serif">2026-02-26</text>
<line x1="628.27" y1="600" x2="628.27" y2="606" stroke="#333" stroke-width="1"/>
<text x="628.27" y="624" text-anchor="end" font-size="11" fill="#111" transform="rotate(-40 628.27,624)" font-family="sans-serif">2026-03-01</text>
<line x1="762.84" y1="600" x2="762.84" y2="606" stroke="#333" stroke-width="1"/>
<text x="762.84" y="624" text-anchor="end" font-size="11" fill="#111" transform="rotate(-40 762.84,624)" font-family="sans-serif">2026-03-06</text>
<line x1="897.41" y1="600" x2="897.41" y2="606" stroke="#333" stroke-width="1"/>
<text x="897.41" y="624" text-anchor="end" font-size="11" fill="#111" transform="rotate(-40 897.41,624)" font-family="sans-serif">2026-03-08</text>
<line x1="1031.98" y1="600" x2="1031.98" y2="606" stroke="#333" stroke-width="1"/>
<text x="1031.98" y="624" text-anchor="end" font-size="11" fill="#111" transform="rotate(-40 1031.98,624)" font-family="sans-serif">2026-03-18</text>
<line x1="1166.54" y1="600" x2="1166.54" y2="606" stroke="#333" stroke-width="1"/>
<text x="1166.54" y="624" text-anchor="end" font-size="11" fill="#111" transform="rotate(-40 1166.54,624)" font-family="sans-serif">2026-03-19</text>
<line x1="1180.00" y1="600" x2="1180.00" y2="606" stroke="#333" stroke-width="1"/>
<text x="1180.00" y="624" text-anchor="end" font-size="11" fill="#111" transform="rotate(-40 1180.00,624)" font-family="sans-serif">2026-03-19</text>
<line x1="90" y1="75.88" x2="1180" y2="75.88" stroke="#dc2626" stroke-width="1.5" stroke-dasharray="8,4"/>
<text x="1184" y="79.88" font-size="12" fill="#dc2626" font-family="sans-serif">Goal: 1296</text>
<polyline fill="none" stroke="#2563eb" stroke-width="3" points="90.00,540.55 92.69,538.53 95.38,536.91 98.07,534.49 100.77,534.49 103.46,533.27 106.15,532.46 108.84,532.87 111.53,532.06 114.22,532.46 116.91,532.06 119.60,568.46 122.30,568.46 124.99,566.43 127.68,545.00 130.37,545.00 133.06,544.19 135.75,543.79 138.44,543.79 141.14,543.38 143.83,541.76 146.52,541.36 149.21,540.96 151.90,540.96 154.59,539.34 157.28,539.34 159.98,556.73 162.67,556.73 165.36,555.51 168.05,551.07 170.74,538.93 173.43,538.93 176.12,538.93 178.81,538.12 181.51,536.91 184.20,536.91 186.89,536.51 189.58,536.51 192.27,556.73 194.96,556.73 197.65,556.73 200.35,556.73 203.04,535.29 205.73,535.29 208.42,535.29 211.11,535.29 213.80,534.49 216.49,534.08 219.19,533.68 221.88,532.87 224.57,532.06 227.26,532.06 229.95,531.25 232.64,530.85 235.33,530.44 238.02,530.04 240.72,530.04 243.41,529.23 246.10,529.23 248.79,529.23 251.48,528.42 254.17,528.42 256.86,527.61 259.56,527.21 262.25,526.80 264.94,526.40 267.63,525.18 270.32,523.57 273.01,523.57 275.70,523.16 278.40,522.76 281.09,522.35 283.78,521.54 286.47,519.52 289.16,517.50 291.85,517.50 294.54,517.50 297.23,517.50 299.93,517.50 302.62,517.50 305.31,517.10 308.00,516.69 310.69,515.48 313.38,515.07 316.07,514.67 318.77,513.86 321.46,514.26 324.15,512.24 326.84,511.84 329.53,511.84 332.22,511.03 334.91,509.82 337.60,507.79 340.30,506.99 342.99,506.58 345.68,509.41 348.37,509.01 351.06,504.96 353.75,504.56 356.44,504.15 359.14,504.56 361.83,503.75 364.52,503.75 367.21,503.35 369.90,499.30 372.59,496.47 375.28,490.00 377.98,484.34 380.67,481.10 383.36,480.29 386.05,480.70 388.74,460.88 391.43,459.26 394.12,458.05 396.81,456.03 399.51,456.03 402.20,454.41 404.89,450.77 407.58,444.30 410.27,443.90 412.96,600.00 415.65,441.88 418.35,440.66 421.04,439.45 423.73,439.04 426.42,438.64 429.11,437.83 431.80,436.62 434.49,436.62 437.19,434.60 439.88,432.17 442.57,429.34 445.26,428.93 447.95,428.53 450.64,427.72 453.33,426.91 456.02,426.10 458.72,426.10 461.41,426.10 464.10,419.63 466.79,419.23 469.48,418.42 472.17,418.01 474.86,417.61 477.56,417.61 480.25,417.61 482.94,417.21 485.63,417.21 488.32,413.57 491.01,411.95 493.70,412.76 496.40,410.74 499.09,410.74 501.78,410.33 504.47,410.33 507.16,410.33 509.85,409.93 512.54,409.93 515.23,409.93 517.93,409.52 520.62,409.52 523.31,409.12 526.00,409.52 528.69,409.12 531.38,407.50 534.07,407.10 536.77,403.05 539.46,399.82 542.15,400.22 544.84,400.62 547.53,400.62 550.22,399.41 552.91,392.94 555.60,391.32 558.30,389.30 560.99,389.30 563.68,388.49 566.37,375.15 569.06,374.74 571.75,374.74 574.44,374.74 577.14,374.74 579.83,374.34 582.52,374.34 585.21,374.34 587.90,374.34 590.59,374.34 593.28,373.93 595.98,373.12 598.67,372.72 601.36,373.53 604.05,435.81 606.74,372.32 609.43,372.72 612.12,371.91 614.81,371.91 617.51,372.32 620.20,371.10 622.89,369.89 625.58,369.89 628.27,369.89 630.96,369.49 633.65,369.89 636.35,369.08 639.04,368.68 641.73,368.27 644.42,367.87 647.11,367.06 649.80,367.46 652.49,367.06 655.19,366.25 657.88,368.27 660.57,368.68 663.26,368.68 665.95,368.27 668.64,369.08 671.33,367.87 674.02,367.46 676.72,367.06 679.41,360.18 682.10,359.78 684.79,359.38 687.48,356.95 690.17,357.35 692.86,357.76 695.56,355.33 698.25,355.74 700.94,357.35 703.63,355.33 706.32,356.14 709.01,355.74 711.70,356.14 714.40,354.12 717.09,354.93 719.78,356.14 722.47,354.52 725.16,353.71 727.85,354.12 730.54,354.93 733.23,352.90 735.93,353.71 738.62,353.31 741.31,353.31 744.00,354.52 746.69,352.90 749.38,352.50 752.07,352.50 754.77,353.31 757.46,352.50 760.15,353.71 762.84,354.12 765.53,352.50 768.22,352.90 770.91,352.50 773.60,352.10 776.30,351.69 778.99,352.10 781.68,354.12 784.37,352.50 787.06,352.10 789.75,352.10 792.44,349.67 795.14,349.67 797.83,350.88 800.52,351.29 803.21,350.48 805.90,352.10 808.59,350.48 811.28,350.48 813.98,350.48 816.67,350.07 819.36,348.46 822.05,351.29 824.74,349.67 827.43,351.29 830.12,349.67 832.81,348.86 835.51,348.46 838.20,348.46 840.89,347.24 843.58,348.86 846.27,346.84 848.96,348.46 851.65,348.86 854.35,346.84 857.04,349.26 859.73,348.05 862.42,349.26 865.11,349.26 867.80,350.48 870.49,352.90 873.19,349.67 875.88,348.46 878.57,345.62 881.26,344.82 883.95,344.41 886.64,342.39 889.33,341.18 892.02,341.58 894.72,339.15 897.41,338.35 900.10,337.54 902.79,336.73 905.48,335.92 908.17,337.54 910.86,338.35 913.56,337.54 916.25,337.54 918.94,337.54 921.63,333.09 924.32,333.90 927.01,335.92 929.70,336.73 932.40,335.51 935.09,332.28 937.78,331.47 940.47,331.07 943.16,331.47 945.85,331.07 948.54,331.07 951.23,331.07 953.93,331.07 956.62,331.07 959.31,331.07 962.00,331.07 964.69,331.07 967.38,331.07 970.07,331.07 972.77,331.47 975.46,331.88 978.15,331.07 980.84,331.47 983.53,331.07 986.22,331.47 988.91,331.07 991.60,324.19 994.30,324.19 996.99,318.93 999.68,316.51 1002.37,310.44 1005.06,308.01 1007.75,600.00 1010.44,301.54 1013.14,290.22 1015.83,287.79 1018.52,286.18 1021.21,285.77 1023.90,285.77 1026.59,285.77 1029.28,286.18 1031.98,285.77 1034.67,285.77 1037.36,285.77 1040.05,283.35 1042.74,282.94 1045.43,282.94 1048.12,283.35 1050.81,282.94 1053.51,282.94 1056.20,283.75 1058.89,282.13 1061.58,282.13 1064.27,282.54 1066.96,282.13 1069.65,282.54 1072.35,282.94 1075.04,281.73 1077.73,282.54 1080.42,281.73 1083.11,282.54 1085.80,282.13 1088.49,282.13 1091.19,281.73 1093.88,281.73 1096.57,281.32 1099.26,281.73 1101.95,282.13 1104.64,281.32 1107.33,281.32 1110.02,282.54 1112.72,282.13 1115.41,281.32 1118.10,281.32 1120.79,281.32 1123.48,282.54 1126.17,282.13 1128.86,281.32 1131.56,282.13 1134.25,281.73 1136.94,282.13 1139.63,280.11 1142.32,280.11 1145.01,280.51 1147.70,279.71 1150.40,280.11 1153.09,280.51 1155.78,279.71 1158.47,280.11 1161.16,280.11 1163.85,279.30 1166.54,278.90 1169.23,278.90 1171.93,280.51 1174.62,279.30 1177.31,278.09 1180.00,278.49"/>
<circle cx="90.00" cy="540.55" r="3.2" fill="#1d4ed8"/>
<circle cx="92.69" cy="538.53" r="3.2" fill="#1d4ed8"/>
<circle cx="95.38" cy="536.91" r="3.2" fill="#1d4ed8"/>
<circle cx="98.07" cy="534.49" r="3.2" fill="#1d4ed8"/>
<circle cx="100.77" cy="534.49" r="3.2" fill="#1d4ed8"/>
<circle cx="103.46" cy="533.27" r="3.2" fill="#1d4ed8"/>
<circle cx="106.15" cy="532.46" r="3.2" fill="#1d4ed8"/>
<circle cx="108.84" cy="532.87" r="3.2" fill="#1d4ed8"/>
<circle cx="111.53" cy="532.06" r="3.2" fill="#1d4ed8"/>
<circle cx="114.22" cy="532.46" r="3.2" fill="#1d4ed8"/>
<circle cx="116.91" cy="532.06" r="3.2" fill="#1d4ed8"/>
<circle cx="119.60" cy="568.46" r="3.2" fill="#1d4ed8"/>
<circle cx="122.30" cy="568.46" r="3.2" fill="#1d4ed8"/>
<circle cx="124.99" cy="566.43" r="3.2" fill="#1d4ed8"/>
<circle cx="127.68" cy="545.00" r="3.2" fill="#1d4ed8"/>
<circle cx="130.37" cy="545.00" r="3.2" fill="#1d4ed8"/>
<circle cx="133.06" cy="544.19" r="3.2" fill="#1d4ed8"/>
<circle cx="135.75" cy="543.79" r="3.2" fill="#1d4ed8"/>
<circle cx="138.44" cy="543.79" r="3.2" fill="#1d4ed8"/>
<circle cx="141.14" cy="543.38" r="3.2" fill="#1d4ed8"/>
<circle cx="143.83" cy="541.76" r="3.2" fill="#1d4ed8"/>
<circle cx="146.52" cy="541.36" r="3.2" fill="#1d4ed8"/>
<circle cx="149.21" cy="540.96" r="3.2" fill="#1d4ed8"/>
<circle cx="151.90" cy="540.96" r="3.2" fill="#1d4ed8"/>
<circle cx="154.59" cy="539.34" r="3.2" fill="#1d4ed8"/>
<circle cx="157.28" cy="539.34" r="3.2" fill="#1d4ed8"/>
<circle cx="159.98" cy="556.73" r="3.2" fill="#1d4ed8"/>
<circle cx="162.67" cy="556.73" r="3.2" fill="#1d4ed8"/>
<circle cx="165.36" cy="555.51" r="3.2" fill="#1d4ed8"/>
<circle cx="168.05" cy="551.07" r="3.2" fill="#1d4ed8"/>
<circle cx="170.74" cy="538.93" r="3.2" fill="#1d4ed8"/>
<circle cx="173.43" cy="538.93" r="3.2" fill="#1d4ed8"/>
<circle cx="176.12" cy="538.93" r="3.2" fill="#1d4ed8"/>
<circle cx="178.81" cy="538.12" r="3.2" fill="#1d4ed8"/>
<circle cx="181.51" cy="536.91" r="3.2" fill="#1d4ed8"/>
<circle cx="184.20" cy="536.91" r="3.2" fill="#1d4ed8"/>
<circle cx="186.89" cy="536.51" r="3.2" fill="#1d4ed8"/>
<circle cx="189.58" cy="536.51" r="3.2" fill="#1d4ed8"/>
<circle cx="192.27" cy="556.73" r="3.2" fill="#1d4ed8"/>
<circle cx="194.96" cy="556.73" r="3.2" fill="#1d4ed8"/>
<circle cx="197.65" cy="556.73" r="3.2" fill="#1d4ed8"/>
<circle cx="200.35" cy="556.73" r="3.2" fill="#1d4ed8"/>
<circle cx="203.04" cy="535.29" r="3.2" fill="#1d4ed8"/>
<circle cx="205.73" cy="535.29" r="3.2" fill="#1d4ed8"/>
<circle cx="208.42" cy="535.29" r="3.2" fill="#1d4ed8"/>
<circle cx="211.11" cy="535.29" r="3.2" fill="#1d4ed8"/>
<circle cx="213.80" cy="534.49" r="3.2" fill="#1d4ed8"/>
<circle cx="216.49" cy="534.08" r="3.2" fill="#1d4ed8"/>
<circle cx="219.19" cy="533.68" r="3.2" fill="#1d4ed8"/>
<circle cx="221.88" cy="532.87" r="3.2" fill="#1d4ed8"/>
<circle cx="224.57" cy="532.06" r="3.2" fill="#1d4ed8"/>
<circle cx="227.26" cy="532.06" r="3.2" fill="#1d4ed8"/>
<circle cx="229.95" cy="531.25" r="3.2" fill="#1d4ed8"/>
<circle cx="232.64" cy="530.85" r="3.2" fill="#1d4ed8"/>
<circle cx="235.33" cy="530.44" r="3.2" fill="#1d4ed8"/>
<circle cx="238.02" cy="530.04" r="3.2" fill="#1d4ed8"/>
<circle cx="240.72" cy="530.04" r="3.2" fill="#1d4ed8"/>
<circle cx="243.41" cy="529.23" r="3.2" fill="#1d4ed8"/>
<circle cx="246.10" cy="529.23" r="3.2" fill="#1d4ed8"/>
<circle cx="248.79" cy="529.23" r="3.2" fill="#1d4ed8"/>
<circle cx="251.48" cy="528.42" r="3.2" fill="#1d4ed8"/>
<circle cx="254.17" cy="528.42" r="3.2" fill="#1d4ed8"/>
<circle cx="256.86" cy="527.61" r="3.2" fill="#1d4ed8"/>
<circle cx="259.56" cy="527.21" r="3.2" fill="#1d4ed8"/>
<circle cx="262.25" cy="526.80" r="3.2" fill="#1d4ed8"/>
<circle cx="264.94" cy="526.40" r="3.2" fill="#1d4ed8"/>
<circle cx="267.63" cy="525.18" r="3.2" fill="#1d4ed8"/>
<circle cx="270.32" cy="523.57" r="3.2" fill="#1d4ed8"/>
<circle cx="273.01" cy="523.57" r="3.2" fill="#1d4ed8"/>
<circle cx="275.70" cy="523.16" r="3.2" fill="#1d4ed8"/>
<circle cx="278.40" cy="522.76" r="3.2" fill="#1d4ed8"/>
<circle cx="281.09" cy="522.35" r="3.2" fill="#1d4ed8"/>
<circle cx="283.78" cy="521.54" r="3.2" fill="#1d4ed8"/>
<circle cx="286.47" cy="519.52" r="3.2" fill="#1d4ed8"/>
<circle cx="289.16" cy="517.50" r="3.2" fill="#1d4ed8"/>
<circle cx="291.85" cy="517.50" r="3.2" fill="#1d4ed8"/>
<circle cx="294.54" cy="517.50" r="3.2" fill="#1d4ed8"/>
<circle cx="297.23" cy="517.50" r="3.2" fill="#1d4ed8"/>
<circle cx="299.93" cy="517.50" r="3.2" fill="#1d4ed8"/>
<circle cx="302.62" cy="517.50" r="3.2" fill="#1d4ed8"/>
<circle cx="305.31" cy="517.10" r="3.2" fill="#1d4ed8"/>
<circle cx="308.00" cy="516.69" r="3.2" fill="#1d4ed8"/>
<circle cx="310.69" cy="515.48" r="3.2" fill="#1d4ed8"/>
<circle cx="313.38" cy="515.07" r="3.2" fill="#1d4ed8"/>
<circle cx="316.07" cy="514.67" r="3.2" fill="#1d4ed8"/>
<circle cx="318.77" cy="513.86" r="3.2" fill="#1d4ed8"/>
<circle cx="321.46" cy="514.26" r="3.2" fill="#1d4ed8"/>
<circle cx="324.15" cy="512.24" r="3.2" fill="#1d4ed8"/>
<circle cx="326.84" cy="511.84" r="3.2" fill="#1d4ed8"/>
<circle cx="329.53" cy="511.84" r="3.2" fill="#1d4ed8"/>
<circle cx="332.22" cy="511.03" r="3.2" fill="#1d4ed8"/>
<circle cx="334.91" cy="509.82" r="3.2" fill="#1d4ed8"/>
<circle cx="337.60" cy="507.79" r="3.2" fill="#1d4ed8"/>
<circle cx="340.30" cy="506.99" r="3.2" fill="#1d4ed8"/>
<circle cx="342.99" cy="506.58" r="3.2" fill="#1d4ed8"/>
<circle cx="345.68" cy="509.41" r="3.2" fill="#1d4ed8"/>
<circle cx="348.37" cy="509.01" r="3.2" fill="#1d4ed8"/>
<circle cx="351.06" cy="504.96" r="3.2" fill="#1d4ed8"/>
<circle cx="353.75" cy="504.56" r="3.2" fill="#1d4ed8"/>
<circle cx="356.44" cy="504.15" r="3.2" fill="#1d4ed8"/>
<circle cx="359.14" cy="504.56" r="3.2" fill="#1d4ed8"/>
<circle cx="361.83" cy="503.75" r="3.2" fill="#1d4ed8"/>
<circle cx="364.52" cy="503.75" r="3.2" fill="#1d4ed8"/>
<circle cx="367.21" cy="503.35" r="3.2" fill="#1d4ed8"/>
<circle cx="369.90" cy="499.30" r="3.2" fill="#1d4ed8"/>
<circle cx="372.59" cy="496.47" r="3.2" fill="#1d4ed8"/>
<circle cx="375.28" cy="490.00" r="3.2" fill="#1d4ed8"/>
<circle cx="377.98" cy="484.34" r="3.2" fill="#1d4ed8"/>
<circle cx="380.67" cy="481.10" r="3.2" fill="#1d4ed8"/>
<circle cx="383.36" cy="480.29" r="3.2" fill="#1d4ed8"/>
<circle cx="386.05" cy="480.70" r="3.2" fill="#1d4ed8"/>
<circle cx="388.74" cy="460.88" r="3.2" fill="#1d4ed8"/>
<circle cx="391.43" cy="459.26" r="3.2" fill="#1d4ed8"/>
<circle cx="394.12" cy="458.05" r="3.2" fill="#1d4ed8"/>
<circle cx="396.81" cy="456.03" r="3.2" fill="#1d4ed8"/>
<circle cx="399.51" cy="456.03" r="3.2" fill="#1d4ed8"/>
<circle cx="402.20" cy="454.41" r="3.2" fill="#1d4ed8"/>
<circle cx="404.89" cy="450.77" r="3.2" fill="#1d4ed8"/>
<circle cx="407.58" cy="444.30" r="3.2" fill="#1d4ed8"/>
<circle cx="410.27" cy="443.90" r="3.2" fill="#1d4ed8"/>
<circle cx="412.96" cy="600.00" r="3.2" fill="#1d4ed8"/>
<circle cx="415.65" cy="441.88" r="3.2" fill="#1d4ed8"/>
<circle cx="418.35" cy="440.66" r="3.2" fill="#1d4ed8"/>
<circle cx="421.04" cy="439.45" r="3.2" fill="#1d4ed8"/>
<circle cx="423.73" cy="439.04" r="3.2" fill="#1d4ed8"/>
<circle cx="426.42" cy="438.64" r="3.2" fill="#1d4ed8"/>
<circle cx="429.11" cy="437.83" r="3.2" fill="#1d4ed8"/>
<circle cx="431.80" cy="436.62" r="3.2" fill="#1d4ed8"/>
<circle cx="434.49" cy="436.62" r="3.2" fill="#1d4ed8"/>
<circle cx="437.19" cy="434.60" r="3.2" fill="#1d4ed8"/>
<circle cx="439.88" cy="432.17" r="3.2" fill="#1d4ed8"/>
<circle cx="442.57" cy="429.34" r="3.2" fill="#1d4ed8"/>
<circle cx="445.26" cy="428.93" r="3.2" fill="#1d4ed8"/>
<circle cx="447.95" cy="428.53" r="3.2" fill="#1d4ed8"/>
<circle cx="450.64" cy="427.72" r="3.2" fill="#1d4ed8"/>
<circle cx="453.33" cy="426.91" r="3.2" fill="#1d4ed8"/>
<circle cx="456.02" cy="426.10" r="3.2" fill="#1d4ed8"/>
<circle cx="458.72" cy="426.10" r="3.2" fill="#1d4ed8"/>
<circle cx="461.41" cy="426.10" r="3.2" fill="#1d4ed8"/>
<circle cx="464.10" cy="419.63" r="3.2" fill="#1d4ed8"/>
<circle cx="466.79" cy="419.23" r="3.2" fill="#1d4ed8"/>
<circle cx="469.48" cy="418.42" r="3.2" fill="#1d4ed8"/>
<circle cx="472.17" cy="418.01" r="3.2" fill="#1d4ed8"/>
<circle cx="474.86" cy="417.61" r="3.2" fill="#1d4ed8"/>
<circle cx="477.56" cy="417.61" r="3.2" fill="#1d4ed8"/>
<circle cx="480.25" cy="417.61" r="3.2" fill="#1d4ed8"/>
<circle cx="482.94" cy="417.21" r="3.2" fill="#1d4ed8"/>
<circle cx="485.63" cy="417.21" r="3.2" fill="#1d4ed8"/>
<circle cx="488.32" cy="413.57" r="3.2" fill="#1d4ed8"/>
<circle cx="491.01" cy="411.95" r="3.2" fill="#1d4ed8"/>
<circle cx="493.70" cy="412.76" r="3.2" fill="#1d4ed8"/>
<circle cx="496.40" cy="410.74" r="3.2" fill="#1d4ed8"/>
<circle cx="499.09" cy="410.74" r="3.2" fill="#1d4ed8"/>
<circle cx="501.78" cy="410.33" r="3.2" fill="#1d4ed8"/>
<circle cx="504.47" cy="410.33" r="3.2" fill="#1d4ed8"/>
<circle cx="507.16" cy="410.33" r="3.2" fill="#1d4ed8"/>
<circle cx="509.85" cy="409.93" r="3.2" fill="#1d4ed8"/>
<circle cx="512.54" cy="409.93" r="3.2" fill="#1d4ed8"/>
<circle cx="515.23" cy="409.93" r="3.2" fill="#1d4ed8"/>
<circle cx="517.93" cy="409.52" r="3.2" fill="#1d4ed8"/>
<circle cx="520.62" cy="409.52" r="3.2" fill="#1d4ed8"/>
<circle cx="523.31" cy="409.12" r="3.2" fill="#1d4ed8"/>
<circle cx="526.00" cy="409.52" r="3.2" fill="#1d4ed8"/>
<circle cx="528.69" cy="409.12" r="3.2" fill="#1d4ed8"/>
<circle cx="531.38" cy="407.50" r="3.2" fill="#1d4ed8"/>
<circle cx="534.07" cy="407.10" r="3.2" fill="#1d4ed8"/>
<circle cx="536.77" cy="403.05" r="3.2" fill="#1d4ed8"/>
<circle cx="539.46" cy="399.82" r="3.2" fill="#1d4ed8"/>
<circle cx="542.15" cy="400.22" r="3.2" fill="#1d4ed8"/>
<circle cx="544.84" cy="400.62" r="3.2" fill="#1d4ed8"/>
<circle cx="547.53" cy="400.62" r="3.2" fill="#1d4ed8"/>
<circle cx="550.22" cy="399.41" r="3.2" fill="#1d4ed8"/>
<circle cx="552.91" cy="392.94" r="3.2" fill="#1d4ed8"/>
<circle cx="555.60" cy="391.32" r="3.2" fill="#1d4ed8"/>
<circle cx="558.30" cy="389.30" r="3.2" fill="#1d4ed8"/>
<circle cx="560.99" cy="389.30" r="3.2" fill="#1d4ed8"/>
<circle cx="563.68" cy="388.49" r="3.2" fill="#1d4ed8"/>
<circle cx="566.37" cy="375.15" r="3.2" fill="#1d4ed8"/>
<circle cx="569.06" cy="374.74" r="3.2" fill="#1d4ed8"/>
<circle cx="571.75" cy="374.74" r="3.2" fill="#1d4ed8"/>
<circle cx="574.44" cy="374.74" r="3.2" fill="#1d4ed8"/>
<circle cx="577.14" cy="374.74" r="3.2" fill="#1d4ed8"/>
<circle cx="579.83" cy="374.34" r="3.2" fill="#1d4ed8"/>
<circle cx="582.52" cy="374.34" r="3.2" fill="#1d4ed8"/>
<circle cx="585.21" cy="374.34" r="3.2" fill="#1d4ed8"/>
<circle cx="587.90" cy="374.34" r="3.2" fill="#1d4ed8"/>
<circle cx="590.59" cy="374.34" r="3.2" fill="#1d4ed8"/>
<circle cx="593.28" cy="373.93" r="3.2" fill="#1d4ed8"/>
<circle cx="595.98" cy="373.12" r="3.2" fill="#1d4ed8"/>
<circle cx="598.67" cy="372.72" r="3.2" fill="#1d4ed8"/>
<circle cx="601.36" cy="373.53" r="3.2" fill="#1d4ed8"/>
<circle cx="604.05" cy="435.81" r="3.2" fill="#1d4ed8"/>
<circle cx="606.74" cy="372.32" r="3.2" fill="#1d4ed8"/>
<circle cx="609.43" cy="372.72" r="3.2" fill="#1d4ed8"/>
<circle cx="612.12" cy="371.91" r="3.2" fill="#1d4ed8"/>
<circle cx="614.81" cy="371.91" r="3.2" fill="#1d4ed8"/>
<circle cx="617.51" cy="372.32" r="3.2" fill="#1d4ed8"/>
<circle cx="620.20" cy="371.10" r="3.2" fill="#1d4ed8"/>
<circle cx="622.89" cy="369.89" r="3.2" fill="#1d4ed8"/>
<circle cx="625.58" cy="369.89" r="3.2" fill="#1d4ed8"/>
<circle cx="628.27" cy="369.89" r="3.2" fill="#1d4ed8"/>
<circle cx="630.96" cy="369.49" r="3.2" fill="#1d4ed8"/>
<circle cx="633.65" cy="369.89" r="3.2" fill="#1d4ed8"/>
<circle cx="636.35" cy="369.08" r="3.2" fill="#1d4ed8"/>
<circle cx="639.04" cy="368.68" r="3.2" fill="#1d4ed8"/>
<circle cx="641.73" cy="368.27" r="3.2" fill="#1d4ed8"/>
<circle cx="644.42" cy="367.87" r="3.2" fill="#1d4ed8"/>
<circle cx="647.11" cy="367.06" r="3.2" fill="#1d4ed8"/>
<circle cx="649.80" cy="367.46" r="3.2" fill="#1d4ed8"/>
<circle cx="652.49" cy="367.06" r="3.2" fill="#1d4ed8"/>
<circle cx="655.19" cy="366.25" r="3.2" fill="#1d4ed8"/>
<circle cx="657.88" cy="368.27" r="3.2" fill="#1d4ed8"/>
<circle cx="660.57" cy="368.68" r="3.2" fill="#1d4ed8"/>
<circle cx="663.26" cy="368.68" r="3.2" fill="#1d4ed8"/>
<circle cx="665.95" cy="368.27" r="3.2" fill="#1d4ed8"/>
<circle cx="668.64" cy="369.08" r="3.2" fill="#1d4ed8"/>
<circle cx="671.33" cy="367.87" r="3.2" fill="#1d4ed8"/>
<circle cx="674.02" cy="367.46" r="3.2" fill="#1d4ed8"/>
<circle cx="676.72" cy="367.06" r="3.2" fill="#1d4ed8"/>
<circle cx="679.41" cy="360.18" r="3.2" fill="#1d4ed8"/>
<circle cx="682.10" cy="359.78" r="3.2" fill="#1d4ed8"/>
<circle cx="684.79" cy="359.38" r="3.2" fill="#1d4ed8"/>
<circle cx="687.48" cy="356.95" r="3.2" fill="#1d4ed8"/>
<circle cx="690.17" cy="357.35" r="3.2" fill="#1d4ed8"/>
<circle cx="692.86" cy="357.76" r="3.2" fill="#1d4ed8"/>
<circle cx="695.56" cy="355.33" r="3.2" fill="#1d4ed8"/>
<circle cx="698.25" cy="355.74" r="3.2" fill="#1d4ed8"/>
<circle cx="700.94" cy="357.35" r="3.2" fill="#1d4ed8"/>
<circle cx="703.63" cy="355.33" r="3.2" fill="#1d4ed8"/>
<circle cx="706.32" cy="356.14" r="3.2" fill="#1d4ed8"/>
<circle cx="709.01" cy="355.74" r="3.2" fill="#1d4ed8"/>
<circle cx="711.70" cy="356.14" r="3.2" fill="#1d4ed8"/>
<circle cx="714.40" cy="354.12" r="3.2" fill="#1d4ed8"/>
<circle cx="717.09" cy="354.93" r="3.2" fill="#1d4ed8"/>
<circle cx="719.78" cy="356.14" r="3.2" fill="#1d4ed8"/>
<circle cx="722.47" cy="354.52" r="3.2" fill="#1d4ed8"/>
<circle cx="725.16" cy="353.71" r="3.2" fill="#1d4ed8"/>
<circle cx="727.85" cy="354.12" r="3.2" fill="#1d4ed8"/>
<circle cx="730.54" cy="354.93" r="3.2" fill="#1d4ed8"/>
<circle cx="733.23" cy="352.90" r="3.2" fill="#1d4ed8"/>
<circle cx="735.93" cy="353.71" r="3.2" fill="#1d4ed8"/>
<circle cx="738.62" cy="353.31" r="3.2" fill="#1d4ed8"/>
<circle cx="741.31" cy="353.31" r="3.2" fill="#1d4ed8"/>
<circle cx="744.00" cy="354.52" r="3.2" fill="#1d4ed8"/>
<circle cx="746.69" cy="352.90" r="3.2" fill="#1d4ed8"/>
<circle cx="749.38" cy="352.50" r="3.2" fill="#1d4ed8"/>
<circle cx="752.07" cy="352.50" r="3.2" fill="#1d4ed8"/>
<circle cx="754.77" cy="353.31" r="3.2" fill="#1d4ed8"/>
<circle cx="757.46" cy="352.50" r="3.2" fill="#1d4ed8"/>
<circle cx="760.15" cy="353.71" r="3.2" fill="#1d4ed8"/>
<circle cx="762.84" cy="354.12" r="3.2" fill="#1d4ed8"/>
<circle cx="765.53" cy="352.50" r="3.2" fill="#1d4ed8"/>
<circle cx="768.22" cy="352.90" r="3.2" fill="#1d4ed8"/>
<circle cx="770.91" cy="352.50" r="3.2" fill="#1d4ed8"/>
<circle cx="773.60" cy="352.10" r="3.2" fill="#1d4ed8"/>
<circle cx="776.30" cy="351.69" r="3.2" fill="#1d4ed8"/>
<circle cx="778.99" cy="352.10" r="3.2" fill="#1d4ed8"/>
<circle cx="781.68" cy="354.12" r="3.2" fill="#1d4ed8"/>
<circle cx="784.37" cy="352.50" r="3.2" fill="#1d4ed8"/>
<circle cx="787.06" cy="352.10" r="3.2" fill="#1d4ed8"/>
<circle cx="789.75" cy="352.10" r="3.2" fill="#1d4ed8"/>
<circle cx="792.44" cy="349.67" r="3.2" fill="#1d4ed8"/>
<circle cx="795.14" cy="349.67" r="3.2" fill="#1d4ed8"/>
<circle cx="797.83" cy="350.88" r="3.2" fill="#1d4ed8"/>
<circle cx="800.52" cy="351.29" r="3.2" fill="#1d4ed8"/>
<circle cx="803.21" cy="350.48" r="3.2" fill="#1d4ed8"/>
<circle cx="805.90" cy="352.10" r="3.2" fill="#1d4ed8"/>
<circle cx="808.59" cy="350.48" r="3.2" fill="#1d4ed8"/>
<circle cx="811.28" cy="350.48" r="3.2" fill="#1d4ed8"/>
<circle cx="813.98" cy="350.48" r="3.2" fill="#1d4ed8"/>
<circle cx="816.67" cy="350.07" r="3.2" fill="#1d4ed8"/>
<circle cx="819.36" cy="348.46" r="3.2" fill="#1d4ed8"/>
<circle cx="822.05" cy="351.29" r="3.2" fill="#1d4ed8"/>
<circle cx="824.74" cy="349.67" r="3.2" fill="#1d4ed8"/>
<circle cx="827.43" cy="351.29" r="3.2" fill="#1d4ed8"/>
<circle cx="830.12" cy="349.67" r="3.2" fill="#1d4ed8"/>
<circle cx="832.81" cy="348.86" r="3.2" fill="#1d4ed8"/>
<circle cx="835.51" cy="348.46" r="3.2" fill="#1d4ed8"/>
<circle cx="838.20" cy="348.46" r="3.2" fill="#1d4ed8"/>
<circle cx="840.89" cy="347.24" r="3.2" fill="#1d4ed8"/>
<circle cx="843.58" cy="348.86" r="3.2" fill="#1d4ed8"/>
<circle cx="846.27" cy="346.84" r="3.2" fill="#1d4ed8"/>
<circle cx="848.96" cy="348.46" r="3.2" fill="#1d4ed8"/>
<circle cx="851.65" cy="348.86" r="3.2" fill="#1d4ed8"/>
<circle cx="854.35" cy="346.84" r="3.2" fill="#1d4ed8"/>
<circle cx="857.04" cy="349.26" r="3.2" fill="#1d4ed8"/>
<circle cx="859.73" cy="348.05" r="3.2" fill="#1d4ed8"/>
<circle cx="862.42" cy="349.26" r="3.2" fill="#1d4ed8"/>
<circle cx="865.11" cy="349.26" r="3.2" fill="#1d4ed8"/>
<circle cx="867.80" cy="350.48" r="3.2" fill="#1d4ed8"/>
<circle cx="870.49" cy="352.90" r="3.2" fill="#1d4ed8"/>
<circle cx="873.19" cy="349.67" r="3.2" fill="#1d4ed8"/>
<circle cx="875.88" cy="348.46" r="3.2" fill="#1d4ed8"/>
<circle cx="878.57" cy="345.62" r="3.2" fill="#1d4ed8"/>
<circle cx="881.26" cy="344.82" r="3.2" fill="#1d4ed8"/>
<circle cx="883.95" cy="344.41" r="3.2" fill="#1d4ed8"/>
<circle cx="886.64" cy="342.39" r="3.2" fill="#1d4ed8"/>
<circle cx="889.33" cy="341.18" r="3.2" fill="#1d4ed8"/>
<circle cx="892.02" cy="341.58" r="3.2" fill="#1d4ed8"/>
<circle cx="894.72" cy="339.15" r="3.2" fill="#1d4ed8"/>
<circle cx="897.41" cy="338.35" r="3.2" fill="#1d4ed8"/>
<circle cx="900.10" cy="337.54" r="3.2" fill="#1d4ed8"/>
<circle cx="902.79" cy="336.73" r="3.2" fill="#1d4ed8"/>
<circle cx="905.48" cy="335.92" r="3.2" fill="#1d4ed8"/>
<circle cx="908.17" cy="337.54" r="3.2" fill="#1d4ed8"/>
<circle cx="910.86" cy="338.35" r="3.2" fill="#1d4ed8"/>
<circle cx="913.56" cy="337.54" r="3.2" fill="#1d4ed8"/>
<circle cx="916.25" cy="337.54" r="3.2" fill="#1d4ed8"/>
<circle cx="918.94" cy="337.54" r="3.2" fill="#1d4ed8"/>
<circle cx="921.63" cy="333.09" r="3.2" fill="#1d4ed8"/>
<circle cx="924.32" cy="333.90" r="3.2" fill="#1d4ed8"/>
<circle cx="927.01" cy="335.92" r="3.2" fill="#1d4ed8"/>
<circle cx="929.70" cy="336.73" r="3.2" fill="#1d4ed8"/>
<circle cx="932.40" cy="335.51" r="3.2" fill="#1d4ed8"/>
<circle cx="935.09" cy="332.28" r="3.2" fill="#1d4ed8"/>
<circle cx="937.78" cy="331.47" r="3.2" fill="#1d4ed8"/>
<circle cx="940.47" cy="331.07" r="3.2" fill="#1d4ed8"/>
<circle cx="943.16" cy="331.47" r="3.2" fill="#1d4ed8"/>
<circle cx="945.85" cy="331.07" r="3.2" fill="#1d4ed8"/>
<circle cx="948.54" cy="331.07" r="3.2" fill="#1d4ed8"/>
<circle cx="951.23" cy="331.07" r="3.2" fill="#1d4ed8"/>
<circle cx="953.93" cy="331.07" r="3.2" fill="#1d4ed8"/>
<circle cx="956.62" cy="331.07" r="3.2" fill="#1d4ed8"/>
<circle cx="959.31" cy="331.07" r="3.2" fill="#1d4ed8"/>
<circle cx="962.00" cy="331.07" r="3.2" fill="#1d4ed8"/>
<circle cx="964.69" cy="331.07" r="3.2" fill="#1d4ed8"/>
<circle cx="967.38" cy="331.07" r="3.2" fill="#1d4ed8"/>
<circle cx="970.07" cy="331.07" r="3.2" fill="#1d4ed8"/>
<circle cx="972.77" cy="331.47" r="3.2" fill="#1d4ed8"/>
<circle cx="975.46" cy="331.88" r="3.2" fill="#1d4ed8"/>
<circle cx="978.15" cy="331.07" r="3.2" fill="#1d4ed8"/>
<circle cx="980.84" cy="331.47" r="3.2" fill="#1d4ed8"/>
<circle cx="983.53" cy="331.07" r="3.2" fill="#1d4ed8"/>
<circle cx="986.22" cy="331.47" r="3.2" fill="#1d4ed8"/>
<circle cx="988.91" cy="331.07" r="3.2" fill="#1d4ed8"/>
<circle cx="991.60" cy="324.19" r="3.2" fill="#1d4ed8"/>
<circle cx="994.30" cy="324.19" r="3.2" fill="#1d4ed8"/>
<circle cx="996.99" cy="318.93" r="3.2" fill="#1d4ed8"/>
<circle cx="999.68" cy="316.51" r="3.2" fill="#1d4ed8"/>
<circle cx="1002.37" cy="310.44" r="3.2" fill="#1d4ed8"/>
<circle cx="1005.06" cy="308.01" r="3.2" fill="#1d4ed8"/>
<circle cx="1007.75" cy="600.00" r="3.2" fill="#1d4ed8"/>
<circle cx="1010.44" cy="301.54" r="3.2" fill="#1d4ed8"/>
<circle cx="1013.14" cy="290.22" r="3.2" fill="#1d4ed8"/>
<circle cx="1015.83" cy="287.79" r="3.2" fill="#1d4ed8"/>
<circle cx="1018.52" cy="286.18" r="3.2" fill="#1d4ed8"/>
<circle cx="1021.21" cy="285.77" r="3.2" fill="#1d4ed8"/>
<circle cx="1023.90" cy="285.77" r="3.2" fill="#1d4ed8"/>
<circle cx="1026.59" cy="285.77" r="3.2" fill="#1d4ed8"/>
<circle cx="1029.28" cy="286.18" r="3.2" fill="#1d4ed8"/>
<circle cx="1031.98" cy="285.77" r="3.2" fill="#1d4ed8"/>
<circle cx="1034.67" cy="285.77" r="3.2" fill="#1d4ed8"/>
<circle cx="1037.36" cy="285.77" r="3.2" fill="#1d4ed8"/>
<circle cx="1040.05" cy="283.35" r="3.2" fill="#1d4ed8"/>
<circle cx="1042.74" cy="282.94" r="3.2" fill="#1d4ed8"/>
<circle cx="1045.43" cy="282.94" r="3.2" fill="#1d4ed8"/>
<circle cx="1048.12" cy="283.35" r="3.2" fill="#1d4ed8"/>
<circle cx="1050.81" cy="282.94" r="3.2" fill="#1d4ed8"/>
<circle cx="1053.51" cy="282.94" r="3.2" fill="#1d4ed8"/>
<circle cx="1056.20" cy="283.75" r="3.2" fill="#1d4ed8"/>
<circle cx="1058.89" cy="282.13" r="3.2" fill="#1d4ed8"/>
<circle cx="1061.58" cy="282.13" r="3.2" fill="#1d4ed8"/>
<circle cx="1064.27" cy="282.54" r="3.2" fill="#1d4ed8"/>
<circle cx="1066.96" cy="282.13" r="3.2" fill="#1d4ed8"/>
<circle cx="1069.65" cy="282.54" r="3.2" fill="#1d4ed8"/>
<circle cx="1072.35" cy="282.94" r="3.2" fill="#1d4ed8"/>
<circle cx="1075.04" cy="281.73" r="3.2" fill="#1d4ed8"/>
<circle cx="1077.73" cy="282.54" r="3.2" fill="#1d4ed8"/>
<circle cx="1080.42" cy="281.73" r="3.2" fill="#1d4ed8"/>
<circle cx="1083.11" cy="282.54" r="3.2" fill="#1d4ed8"/>
<circle cx="1085.80" cy="282.13" r="3.2" fill="#1d4ed8"/>
<circle cx="1088.49" cy="282.13" r="3.2" fill="#1d4ed8"/>
<circle cx="1091.19" cy="281.73" r="3.2" fill="#1d4ed8"/>
<circle cx="1093.88" cy="281.73" r="3.2" fill="#1d4ed8"/>
<circle cx="1096.57" cy="281.32" r="3.2" fill="#1d4ed8"/>
<circle cx="1099.26" cy="281.73" r="3.2" fill="#1d4ed8"/>
<circle cx="1101.95" cy="282.13" r="3.2" fill="#1d4ed8"/>
<circle cx="1104.64" cy="281.32" r="3.2" fill="#1d4ed8"/>
<circle cx="1107.33" cy="281.32" r="3.2" fill="#1d4ed8"/>
<circle cx="1110.02" cy="282.54" r="3.2" fill="#1d4ed8"/>
<circle cx="1112.72" cy="282.13" r="3.2" fill="#1d4ed8"/>
<circle cx="1115.41" cy="281.32" r="3.2" fill="#1d4ed8"/>
<circle cx="1118.10" cy="281.32" r="3.2" fill="#1d4ed8"/>
<circle cx="1120.79" cy="281.32" r="3.2" fill="#1d4ed8"/>
<circle cx="1123.48" cy="282.54" r="3.2" fill="#1d4ed8"/>
<circle cx="1126.17" cy="282.13" r="3.2" fill="#1d4ed8"/>
<circle cx="1128.86" cy="281.32" r="3.2" fill="#1d4ed8"/>
<circle cx="1131.56" cy="282.13" r="3.2" fill="#1d4ed8"/>
<circle cx="1134.25" cy="281.73" r="3.2" fill="#1d4ed8"/>
<circle cx="1136.94" cy="282.13" r="3.2" fill="#1d4ed8"/>
<circle cx="1139.63" cy="280.11" r="3.2" fill="#1d4ed8"/>
<circle cx="1142.32" cy="280.11" r="3.2" fill="#1d4ed8"/>
<circle cx="1145.01" cy="280.51" r="3.2" fill="#1d4ed8"/>
<circle cx="1147.70" cy="279.71" r="3.2" fill="#1d4ed8"/>
<circle cx="1150.40" cy="280.11" r="3.2" fill="#1d4ed8"/>
<circle cx="1153.09" cy="280.51" r="3.2" fill="#1d4ed8"/>
<circle cx="1155.78" cy="279.71" r="3.2" fill="#1d4ed8"/>
<circle cx="1158.47" cy="280.11" r="3.2" fill="#1d4ed8"/>
<circle cx="1161.16" cy="280.11" r="3.2" fill="#1d4ed8"/>
<circle cx="1163.85" cy="279.30" r="3.2" fill="#1d4ed8"/>
<circle cx="1166.54" cy="278.90" r="3.2" fill="#1d4ed8"/>
<circle cx="1169.23" cy="278.90" r="3.2" fill="#1d4ed8"/>
<circle cx="1171.93" cy="280.51" r="3.2" fill="#1d4ed8"/>
<circle cx="1174.62" cy="279.30" r="3.2" fill="#1d4ed8"/>
<circle cx="1177.31" cy="278.09" r="3.2" fill="#1d4ed8"/>
<circle cx="1180.00" cy="278.49" r="3.2" fill="#1d4ed8"/>
<text x="635" y="695" text-anchor="middle" font-size="14" fill="#111" font-family="sans-serif">Date</text>
<text x="24" y="325" text-anchor="middle" font-size="14" fill="#111" transform="rotate(-90 24,325)" font-family="sans-serif">Passed files</text>
</svg>
