<?xml version="1.0" encoding="UTF-8"?>
<svg xmlns="http://www.w3.org/2000/svg" width="1280" height="720" viewBox="0 0 1280 720">
<rect width="100%" height="100%" fill="#ffffff"/>
<text x="640" y="30" text-anchor="middle" font-size="22" font-family="sans-serif">Roast passed files history</text>
<line x1="90" y1="600" x2="1180" y2="600" stroke="#333" stroke-width="1.5"/>
<line x1="90" y1="50" x2="90" y2="600" stroke="#333" stroke-width="1.5"/>
<line x1="90" y1="600.00" x2="1180" y2="600.00" stroke="#e5e7eb" stroke-width="1"/>
<text x="78" y="605.00" text-anchor="end" font-size="12" fill="#111" font-family="sans-serif">0</text>
<line x1="90" y1="397.79" x2="1180" y2="397.79" stroke="#e5e7eb" stroke-width="1"/>
<text x="78" y="402.79" text-anchor="end" font-size="12" fill="#111" font-family="sans-serif">500</text>
<line x1="90" y1="195.59" x2="1180" y2="195.59" stroke="#e5e7eb" stroke-width="1"/>
<text x="78" y="200.59" text-anchor="end" font-size="12" fill="#111" font-family="sans-serif">1000</text>
<line x1="90.00" y1="600" x2="90.00" y2="606" stroke="#333" stroke-width="1"/>
<text x="90.00" y="624" text-anchor="end" font-size="11" fill="#111" transform="rotate(-40 90.00,624)" font-family="sans-serif">2026-02-12</text>
<line x1="224.98" y1="600" x2="224.98" y2="606" stroke="#333" stroke-width="1"/>
<text x="224.98" y="624" text-anchor="end" font-size="11" fill="#111" transform="rotate(-40 224.98,624)" font-family="sans-serif">2026-02-18</text>
<line x1="359.95" y1="600" x2="359.95" y2="606" stroke="#333" stroke-width="1"/>
<text x="359.95" y="624" text-anchor="end" font-size="11" fill="#111" transform="rotate(-40 359.95,624)" font-family="sans-serif">2026-02-24</text>
<line x1="494.93" y1="600" x2="494.93" y2="606" stroke="#333" stroke-width="1"/>
<text x="494.93" y="624" text-anchor="end" font-size="11" fill="#111" transform="rotate(-40 494.93,624)" font-family="sans-serif">2026-02-27</text>
<line x1="629.91" y1="600" x2="629.91" y2="606" stroke="#333" stroke-width="1"/>
<text x="629.91" y="624" text-anchor="end" font-size="11" fill="#111" transform="rotate(-40 629.91,624)" font-family="sans-serif">2026-03-03</text>
<line x1="764.88" y1="600" x2="764.88" y2="606" stroke="#333" stroke-width="1"/>
<text x="764.88" y="624" text-anchor="end" font-size="11" fill="#111" transform="rotate(-40 764.88,624)" font-family="sans-serif">2026-03-06</text>
<line x1="899.86" y1="600" x2="899.86" y2="606" stroke="#333" stroke-width="1"/>
<text x="899.86" y="624" text-anchor="end" font-size="11" fill="#111" transform="rotate(-40 899.86,624)" font-family="sans-serif">2026-03-11</text>
<line x1="1034.84" y1="600" x2="1034.84" y2="606" stroke="#333" stroke-width="1"/>
<text x="1034.84" y="624" text-anchor="end" font-size="11" fill="#111" transform="rotate(-40 1034.84,624)" font-family="sans-serif">2026-03-18</text>
<line x1="1169.81" y1="600" x2="1169.81" y2="606" stroke="#333" stroke-width="1"/>
<text x="1169.81" y="624" text-anchor="end" font-size="11" fill="#111" transform="rotate(-40 1169.81,624)" font-family="sans-serif">2026-03-20</text>
<line x1="1180.00" y1="600" x2="1180.00" y2="606" stroke="#333" stroke-width="1"/>
<text x="1180.00" y="624" text-anchor="end" font-size="11" fill="#111" transform="rotate(-40 1180.00,624)" font-family="sans-serif">2026-03-22</text>
<line x1="90" y1="75.88" x2="1180" y2="75.88" stroke="#dc2626" stroke-width="1.5" stroke-dasharray="8,4"/>
<text x="1184" y="79.88" font-size="12" fill="#dc2626" font-family="sans-serif">Goal: 1296</text>
<polyline fill="none" stroke="#2563eb" stroke-width="3" points="90.00,540.55 92.55,538.53 95.09,536.91 97.64,534.49 100.19,534.49 102.73,533.27 105.28,532.46 107.83,532.87 110.37,532.06 112.92,532.46 115.47,532.06 118.01,568.46 120.56,568.46 123.11,566.43 125.65,545.00 128.20,545.00 130.75,544.19 133.29,543.79 135.84,543.79 138.39,543.38 140.93,541.76 143.48,541.36 146.03,540.96 148.57,540.96 151.12,539.34 153.67,539.34 156.21,556.73 158.76,556.73 161.31,555.51 163.86,551.07 166.40,538.93 168.95,538.93 171.50,538.93 174.04,538.12 176.59,536.91 179.14,536.91 181.68,536.51 184.23,536.51 186.78,556.73 189.32,556.73 191.87,556.73 194.42,556.73 196.96,535.29 199.51,535.29 202.06,535.29 204.60,535.29 207.15,534.49 209.70,534.08 212.24,533.68 214.79,532.87 217.34,532.06 219.88,532.06 222.43,531.25 224.98,530.85 227.52,530.44 230.07,530.04 232.62,530.04 235.16,529.23 237.71,529.23 240.26,529.23 242.80,528.42 245.35,528.42 247.90,527.61 250.44,527.21 252.99,526.80 255.54,526.40 258.08,525.18 260.63,523.57 263.18,523.57 265.72,523.16 268.27,522.76 270.82,522.35 273.36,521.54 275.91,519.52 278.46,517.50 281.00,517.50 283.55,517.50 286.10,517.50 288.64,517.50 291.19,517.50 293.74,517.10 296.29,516.69 298.83,515.48 301.38,515.07 303.93,514.67 306.47,513.86 309.02,514.26 311.57,512.24 314.11,511.84 316.66,511.84 319.21,511.03 321.75,509.82 324.30,507.79 326.85,506.99 329.39,506.58 331.94,509.41 334.49,509.01 337.03,504.96 339.58,504.56 342.13,504.15 344.67,504.56 347.22,503.75 349.77,503.75 352.31,503.35 354.86,499.30 357.41,496.47 359.95,490.00 362.50,484.34 365.05,481.10 367.59,480.29 370.14,480.70 372.69,460.88 375.23,459.26 377.78,458.05 380.33,456.03 382.87,456.03 385.42,454.41 387.97,450.77 390.51,444.30 393.06,443.90 395.61,600.00 398.15,441.88 400.70,440.66 403.25,439.45 405.79,439.04 408.34,438.64 410.89,437.83 413.43,436.62 415.98,436.62 418.53,434.60 421.07,432.17 423.62,429.34 426.17,428.93 428.71,428.53 431.26,427.72 433.81,426.91 436.36,426.10 438.90,426.10 441.45,426.10 444.00,419.63 446.54,419.23 449.09,418.42 451.64,418.01 454.18,417.61 456.73,417.61 459.28,417.61 461.82,417.21 464.37,417.21 466.92,413.57 469.46,411.95 472.01,412.76 474.56,410.74 477.10,410.74 479.65,410.33 482.20,410.33 484.74,410.33 487.29,409.93 489.84,409.93 492.38,409.93 494.93,409.52 497.48,409.52 500.02,409.12 502.57,409.52 505.12,409.12 507.66,407.50 510.21,407.10 512.76,403.05 515.30,399.82 517.85,400.22 520.40,400.62 522.94,400.62 525.49,399.41 528.04,392.94 530.58,391.32 533.13,389.30 535.68,389.30 538.22,388.49 540.77,375.15 543.32,374.74 545.86,374.74 548.41,374.74 550.96,374.74 553.50,374.34 556.05,374.34 558.60,374.34 561.14,374.34 563.69,374.34 566.24,373.93 568.79,373.12 571.33,372.72 573.88,373.53 576.43,435.81 578.97,372.32 581.52,372.72 584.07,371.91 586.61,371.91 589.16,372.32 591.71,371.10 594.25,369.89 596.80,369.89 599.35,369.89 601.89,369.49 604.44,369.89 606.99,369.08 609.53,368.68 612.08,368.27 614.63,367.87 617.17,367.06 619.72,367.46 622.27,367.06 624.81,366.25 627.36,368.27 629.91,368.68 632.45,368.68 635.00,368.27 637.55,369.08 640.09,367.87 642.64,367.46 645.19,367.06 647.73,360.18 650.28,359.78 652.83,359.38 655.37,356.95 657.92,357.35 660.47,357.76 663.01,355.33 665.56,355.74 668.11,357.35 670.65,355.33 673.20,356.14 675.75,355.74 678.29,356.14 680.84,354.12 683.39,354.93 685.93,356.14 688.48,354.52 691.03,353.71 693.57,354.12 696.12,354.93 698.67,352.90 701.21,353.71 703.76,353.31 706.31,353.31 708.86,354.52 711.40,352.90 713.95,352.50 716.50,352.50 719.04,353.31 721.59,352.50 724.14,353.71 726.68,354.12 729.23,352.50 731.78,352.90 734.32,352.50 736.87,352.10 739.42,351.69 741.96,352.10 744.51,354.12 747.06,352.50 749.60,352.10 752.15,352.10 754.70,349.67 757.24,349.67 759.79,350.88 762.34,351.29 764.88,350.48 767.43,352.10 769.98,350.48 772.52,350.48 775.07,350.48 777.62,350.07 780.16,348.46 782.71,351.29 785.26,349.67 787.80,351.29 790.35,349.67 792.90,348.86 795.44,348.46 797.99,348.46 800.54,347.24 803.08,348.86 805.63,346.84 808.18,348.46 810.72,348.86 813.27,346.84 815.82,349.26 818.36,348.05 820.91,349.26 823.46,349.26 826.00,350.48 828.55,352.90 831.10,349.67 833.64,348.46 836.19,345.62 838.74,344.82 841.29,344.41 843.83,342.39 846.38,341.18 848.93,341.58 851.47,339.15 854.02,338.35 856.57,337.54 859.11,336.73 861.66,335.92 864.21,337.54 866.75,338.35 869.30,337.54 871.85,337.54 874.39,337.54 876.94,333.09 879.49,333.90 882.03,335.92 884.58,336.73 887.13,335.51 889.67,332.28 892.22,331.47 894.77,331.07 897.31,331.47 899.86,331.07 902.41,331.07 904.95,331.07 907.50,331.07 910.05,331.07 912.59,331.07 915.14,331.07 917.69,331.07 920.23,331.07 922.78,331.07 925.33,331.47 927.87,331.88 930.42,331.07 932.97,331.47 935.51,331.07 938.06,331.47 940.61,331.07 943.15,324.19 945.70,324.19 948.25,318.93 950.79,316.51 953.34,310.44 955.89,308.01 958.43,600.00 960.98,301.54 963.53,290.22 966.07,287.79 968.62,286.18 971.17,285.77 973.71,285.77 976.26,285.77 978.81,286.18 981.36,285.77 983.90,285.77 986.45,285.77 989.00,283.35 991.54,282.94 994.09,282.94 996.64,283.35 999.18,282.94 1001.73,282.94 1004.28,283.75 1006.82,282.13 1009.37,282.13 1011.92,282.54 1014.46,282.13 1017.01,282.54 1019.56,282.94 1022.10,281.73 1024.65,282.54 1027.20,281.73 1029.74,282.54 1032.29,282.13 1034.84,282.13 1037.38,281.73 1039.93,281.73 1042.48,281.32 1045.02,281.73 1047.57,282.13 1050.12,281.32 1052.66,281.32 1055.21,282.54 1057.76,282.13 1060.30,281.32 1062.85,281.32 1065.40,281.32 1067.94,282.54 1070.49,282.13 1073.04,281.32 1075.58,282.13 1078.13,281.73 1080.68,282.13 1083.22,280.11 1085.77,280.11 1088.32,280.51 1090.86,279.71 1093.41,280.11 1095.96,280.51 1098.50,279.71 1101.05,280.11 1103.60,280.11 1106.14,279.30 1108.69,278.90 1111.24,278.90 1113.79,280.51 1116.33,279.30 1118.88,278.09 1121.43,278.49 1123.97,278.49 1126.52,277.28 1129.07,277.68 1131.61,277.68 1134.16,278.09 1136.71,277.28 1139.25,600.00 1141.80,278.90 1144.35,279.30 1146.89,278.90 1149.44,278.49 1151.99,278.49 1154.53,278.49 1157.08,278.49 1159.63,278.49 1162.17,278.49 1164.72,278.49 1167.27,278.49 1169.81,278.49 1172.36,278.49 1174.91,278.49 1177.45,278.49 1180.00,600.00"/>
<circle cx="90.00" cy="540.55" r="3.2" fill="#1d4ed8"/>
<circle cx="92.55" cy="538.53" r="3.2" fill="#1d4ed8"/>
<circle cx="95.09" cy="536.91" r="3.2" fill="#1d4ed8"/>
<circle cx="97.64" cy="534.49" r="3.2" fill="#1d4ed8"/>
<circle cx="100.19" cy="534.49" r="3.2" fill="#1d4ed8"/>
<circle cx="102.73" cy="533.27" r="3.2" fill="#1d4ed8"/>
<circle cx="105.28" cy="532.46" r="3.2" fill="#1d4ed8"/>
<circle cx="107.83" cy="532.87" r="3.2" fill="#1d4ed8"/>
<circle cx="110.37" cy="532.06" r="3.2" fill="#1d4ed8"/>
<circle cx="112.92" cy="532.46" r="3.2" fill="#1d4ed8"/>
<circle cx="115.47" cy="532.06" r="3.2" fill="#1d4ed8"/>
<circle cx="118.01" cy="568.46" r="3.2" fill="#1d4ed8"/>
<circle cx="120.56" cy="568.46" r="3.2" fill="#1d4ed8"/>
<circle cx="123.11" cy="566.43" r="3.2" fill="#1d4ed8"/>
<circle cx="125.65" cy="545.00" r="3.2" fill="#1d4ed8"/>
<circle cx="128.20" cy="545.00" r="3.2" fill="#1d4ed8"/>
<circle cx="130.75" cy="544.19" r="3.2" fill="#1d4ed8"/>
<circle cx="133.29" cy="543.79" r="3.2" fill="#1d4ed8"/>
<circle cx="135.84" cy="543.79" r="3.2" fill="#1d4ed8"/>
<circle cx="138.39" cy="543.38" r="3.2" fill="#1d4ed8"/>
<circle cx="140.93" cy="541.76" r="3.2" fill="#1d4ed8"/>
<circle cx="143.48" cy="541.36" r="3.2" fill="#1d4ed8"/>
<circle cx="146.03" cy="540.96" r="3.2" fill="#1d4ed8"/>
<circle cx="148.57" cy="540.96" r="3.2" fill="#1d4ed8"/>
<circle cx="151.12" cy="539.34" r="3.2" fill="#1d4ed8"/>
<circle cx="153.67" cy="539.34" r="3.2" fill="#1d4ed8"/>
<circle cx="156.21" cy="556.73" r="3.2" fill="#1d4ed8"/>
<circle cx="158.76" cy="556.73" r="3.2" fill="#1d4ed8"/>
<circle cx="161.31" cy="555.51" r="3.2" fill="#1d4ed8"/>
<circle cx="163.86" cy="551.07" r="3.2" fill="#1d4ed8"/>
<circle cx="166.40" cy="538.93" r="3.2" fill="#1d4ed8"/>
<circle cx="168.95" cy="538.93" r="3.2" fill="#1d4ed8"/>
<circle cx="171.50" cy="538.93" r="3.2" fill="#1d4ed8"/>
<circle cx="174.04" cy="538.12" r="3.2" fill="#1d4ed8"/>
<circle cx="176.59" cy="536.91" r="3.2" fill="#1d4ed8"/>
<circle cx="179.14" cy="536.91" r="3.2" fill="#1d4ed8"/>
<circle cx="181.68" cy="536.51" r="3.2" fill="#1d4ed8"/>
<circle cx="184.23" cy="536.51" r="3.2" fill="#1d4ed8"/>
<circle cx="186.78" cy="556.73" r="3.2" fill="#1d4ed8"/>
<circle cx="189.32" cy="556.73" r="3.2" fill="#1d4ed8"/>
<circle cx="191.87" cy="556.73" r="3.2" fill="#1d4ed8"/>
<circle cx="194.42" cy="556.73" r="3.2" fill="#1d4ed8"/>
<circle cx="196.96" cy="535.29" r="3.2" fill="#1d4ed8"/>
<circle cx="199.51" cy="535.29" r="3.2" fill="#1d4ed8"/>
<circle cx="202.06" cy="535.29" r="3.2" fill="#1d4ed8"/>
<circle cx="204.60" cy="535.29" r="3.2" fill="#1d4ed8"/>
<circle cx="207.15" cy="534.49" r="3.2" fill="#1d4ed8"/>
<circle cx="209.70" cy="534.08" r="3.2" fill="#1d4ed8"/>
<circle cx="212.24" cy="533.68" r="3.2" fill="#1d4ed8"/>
<circle cx="214.79" cy="532.87" r="3.2" fill="#1d4ed8"/>
<circle cx="217.34" cy="532.06" r="3.2" fill="#1d4ed8"/>
<circle cx="219.88" cy="532.06" r="3.2" fill="#1d4ed8"/>
<circle cx="222.43" cy="531.25" r="3.2" fill="#1d4ed8"/>
<circle cx="224.98" cy="530.85" r="3.2" fill="#1d4ed8"/>
<circle cx="227.52" cy="530.44" r="3.2" fill="#1d4ed8"/>
<circle cx="230.07" cy="530.04" r="3.2" fill="#1d4ed8"/>
<circle cx="232.62" cy="530.04" r="3.2" fill="#1d4ed8"/>
<circle cx="235.16" cy="529.23" r="3.2" fill="#1d4ed8"/>
<circle cx="237.71" cy="529.23" r="3.2" fill="#1d4ed8"/>
<circle cx="240.26" cy="529.23" r="3.2" fill="#1d4ed8"/>
<circle cx="242.80" cy="528.42" r="3.2" fill="#1d4ed8"/>
<circle cx="245.35" cy="528.42" r="3.2" fill="#1d4ed8"/>
<circle cx="247.90" cy="527.61" r="3.2" fill="#1d4ed8"/>
<circle cx="250.44" cy="527.21" r="3.2" fill="#1d4ed8"/>
<circle cx="252.99" cy="526.80" r="3.2" fill="#1d4ed8"/>
<circle cx="255.54" cy="526.40" r="3.2" fill="#1d4ed8"/>
<circle cx="258.08" cy="525.18" r="3.2" fill="#1d4ed8"/>
<circle cx="260.63" cy="523.57" r="3.2" fill="#1d4ed8"/>
<circle cx="263.18" cy="523.57" r="3.2" fill="#1d4ed8"/>
<circle cx="265.72" cy="523.16" r="3.2" fill="#1d4ed8"/>
<circle cx="268.27" cy="522.76" r="3.2" fill="#1d4ed8"/>
<circle cx="270.82" cy="522.35" r="3.2" fill="#1d4ed8"/>
<circle cx="273.36" cy="521.54" r="3.2" fill="#1d4ed8"/>
<circle cx="275.91" cy="519.52" r="3.2" fill="#1d4ed8"/>
<circle cx="278.46" cy="517.50" r="3.2" fill="#1d4ed8"/>
<circle cx="281.00" cy="517.50" r="3.2" fill="#1d4ed8"/>
<circle cx="283.55" cy="517.50" r="3.2" fill="#1d4ed8"/>
<circle cx="286.10" cy="517.50" r="3.2" fill="#1d4ed8"/>
<circle cx="288.64" cy="517.50" r="3.2" fill="#1d4ed8"/>
<circle cx="291.19" cy="517.50" r="3.2" fill="#1d4ed8"/>
<circle cx="293.74" cy="517.10" r="3.2" fill="#1d4ed8"/>
<circle cx="296.29" cy="516.69" r="3.2" fill="#1d4ed8"/>
<circle cx="298.83" cy="515.48" r="3.2" fill="#1d4ed8"/>
<circle cx="301.38" cy="515.07" r="3.2" fill="#1d4ed8"/>
<circle cx="303.93" cy="514.67" r="3.2" fill="#1d4ed8"/>
<circle cx="306.47" cy="513.86" r="3.2" fill="#1d4ed8"/>
<circle cx="309.02" cy="514.26" r="3.2" fill="#1d4ed8"/>
<circle cx="311.57" cy="512.24" r="3.2" fill="#1d4ed8"/>
<circle cx="314.11" cy="511.84" r="3.2" fill="#1d4ed8"/>
<circle cx="316.66" cy="511.84" r="3.2" fill="#1d4ed8"/>
<circle cx="319.21" cy="511.03" r="3.2" fill="#1d4ed8"/>
<circle cx="321.75" cy="509.82" r="3.2" fill="#1d4ed8"/>
<circle cx="324.30" cy="507.79" r="3.2" fill="#1d4ed8"/>
<circle cx="326.85" cy="506.99" r="3.2" fill="#1d4ed8"/>
<circle cx="329.39" cy="506.58" r="3.2" fill="#1d4ed8"/>
<circle cx="331.94" cy="509.41" r="3.2" fill="#1d4ed8"/>
<circle cx="334.49" cy="509.01" r="3.2" fill="#1d4ed8"/>
<circle cx="337.03" cy="504.96" r="3.2" fill="#1d4ed8"/>
<circle cx="339.58" cy="504.56" r="3.2" fill="#1d4ed8"/>
<circle cx="342.13" cy="504.15" r="3.2" fill="#1d4ed8"/>
<circle cx="344.67" cy="504.56" r="3.2" fill="#1d4ed8"/>
<circle cx="347.22" cy="503.75" r="3.2" fill="#1d4ed8"/>
<circle cx="349.77" cy="503.75" r="3.2" fill="#1d4ed8"/>
<circle cx="352.31" cy="503.35" r="3.2" fill="#1d4ed8"/>
<circle cx="354.86" cy="499.30" r="3.2" fill="#1d4ed8"/>
<circle cx="357.41" cy="496.47" r="3.2" fill="#1d4ed8"/>
<circle cx="359.95" cy="490.00" r="3.2" fill="#1d4ed8"/>
<circle cx="362.50" cy="484.34" r="3.2" fill="#1d4ed8"/>
<circle cx="365.05" cy="481.10" r="3.2" fill="#1d4ed8"/>
<circle cx="367.59" cy="480.29" r="3.2" fill="#1d4ed8"/>
<circle cx="370.14" cy="480.70" r="3.2" fill="#1d4ed8"/>
<circle cx="372.69" cy="460.88" r="3.2" fill="#1d4ed8"/>
<circle cx="375.23" cy="459.26" r="3.2" fill="#1d4ed8"/>
<circle cx="377.78" cy="458.05" r="3.2" fill="#1d4ed8"/>
<circle cx="380.33" cy="456.03" r="3.2" fill="#1d4ed8"/>
<circle cx="382.87" cy="456.03" r="3.2" fill="#1d4ed8"/>
<circle cx="385.42" cy="454.41" r="3.2" fill="#1d4ed8"/>
<circle cx="387.97" cy="450.77" r="3.2" fill="#1d4ed8"/>
<circle cx="390.51" cy="444.30" r="3.2" fill="#1d4ed8"/>
<circle cx="393.06" cy="443.90" r="3.2" fill="#1d4ed8"/>
<circle cx="395.61" cy="600.00" r="3.2" fill="#1d4ed8"/>
<circle cx="398.15" cy="441.88" r="3.2" fill="#1d4ed8"/>
<circle cx="400.70" cy="440.66" r="3.2" fill="#1d4ed8"/>
<circle cx="403.25" cy="439.45" r="3.2" fill="#1d4ed8"/>
<circle cx="405.79" cy="439.04" r="3.2" fill="#1d4ed8"/>
<circle cx="408.34" cy="438.64" r="3.2" fill="#1d4ed8"/>
<circle cx="410.89" cy="437.83" r="3.2" fill="#1d4ed8"/>
<circle cx="413.43" cy="436.62" r="3.2" fill="#1d4ed8"/>
<circle cx="415.98" cy="436.62" r="3.2" fill="#1d4ed8"/>
<circle cx="418.53" cy="434.60" r="3.2" fill="#1d4ed8"/>
<circle cx="421.07" cy="432.17" r="3.2" fill="#1d4ed8"/>
<circle cx="423.62" cy="429.34" r="3.2" fill="#1d4ed8"/>
<circle cx="426.17" cy="428.93" r="3.2" fill="#1d4ed8"/>
<circle cx="428.71" cy="428.53" r="3.2" fill="#1d4ed8"/>
<circle cx="431.26" cy="427.72" r="3.2" fill="#1d4ed8"/>
<circle cx="433.81" cy="426.91" r="3.2" fill="#1d4ed8"/>
<circle cx="436.36" cy="426.10" r="3.2" fill="#1d4ed8"/>
<circle cx="438.90" cy="426.10" r="3.2" fill="#1d4ed8"/>
<circle cx="441.45" cy="426.10" r="3.2" fill="#1d4ed8"/>
<circle cx="444.00" cy="419.63" r="3.2" fill="#1d4ed8"/>
<circle cx="446.54" cy="419.23" r="3.2" fill="#1d4ed8"/>
<circle cx="449.09" cy="418.42" r="3.2" fill="#1d4ed8"/>
<circle cx="451.64" cy="418.01" r="3.2" fill="#1d4ed8"/>
<circle cx="454.18" cy="417.61" r="3.2" fill="#1d4ed8"/>
<circle cx="456.73" cy="417.61" r="3.2" fill="#1d4ed8"/>
<circle cx="459.28" cy="417.61" r="3.2" fill="#1d4ed8"/>
<circle cx="461.82" cy="417.21" r="3.2" fill="#1d4ed8"/>
<circle cx="464.37" cy="417.21" r="3.2" fill="#1d4ed8"/>
<circle cx="466.92" cy="413.57" r="3.2" fill="#1d4ed8"/>
<circle cx="469.46" cy="411.95" r="3.2" fill="#1d4ed8"/>
<circle cx="472.01" cy="412.76" r="3.2" fill="#1d4ed8"/>
<circle cx="474.56" cy="410.74" r="3.2" fill="#1d4ed8"/>
<circle cx="477.10" cy="410.74" r="3.2" fill="#1d4ed8"/>
<circle cx="479.65" cy="410.33" r="3.2" fill="#1d4ed8"/>
<circle cx="482.20" cy="410.33" r="3.2" fill="#1d4ed8"/>
<circle cx="484.74" cy="410.33" r="3.2" fill="#1d4ed8"/>
<circle cx="487.29" cy="409.93" r="3.2" fill="#1d4ed8"/>
<circle cx="489.84" cy="409.93" r="3.2" fill="#1d4ed8"/>
<circle cx="492.38" cy="409.93" r="3.2" fill="#1d4ed8"/>
<circle cx="494.93" cy="409.52" r="3.2" fill="#1d4ed8"/>
<circle cx="497.48" cy="409.52" r="3.2" fill="#1d4ed8"/>
<circle cx="500.02" cy="409.12" r="3.2" fill="#1d4ed8"/>
<circle cx="502.57" cy="409.52" r="3.2" fill="#1d4ed8"/>
<circle cx="505.12" cy="409.12" r="3.2" fill="#1d4ed8"/>
<circle cx="507.66" cy="407.50" r="3.2" fill="#1d4ed8"/>
<circle cx="510.21" cy="407.10" r="3.2" fill="#1d4ed8"/>
<circle cx="512.76" cy="403.05" r="3.2" fill="#1d4ed8"/>
<circle cx="515.30" cy="399.82" r="3.2" fill="#1d4ed8"/>
<circle cx="517.85" cy="400.22" r="3.2" fill="#1d4ed8"/>
<circle cx="520.40" cy="400.62" r="3.2" fill="#1d4ed8"/>
<circle cx="522.94" cy="400.62" r="3.2" fill="#1d4ed8"/>
<circle cx="525.49" cy="399.41" r="3.2" fill="#1d4ed8"/>
<circle cx="528.04" cy="392.94" r="3.2" fill="#1d4ed8"/>
<circle cx="530.58" cy="391.32" r="3.2" fill="#1d4ed8"/>
<circle cx="533.13" cy="389.30" r="3.2" fill="#1d4ed8"/>
<circle cx="535.68" cy="389.30" r="3.2" fill="#1d4ed8"/>
<circle cx="538.22" cy="388.49" r="3.2" fill="#1d4ed8"/>
<circle cx="540.77" cy="375.15" r="3.2" fill="#1d4ed8"/>
<circle cx="543.32" cy="374.74" r="3.2" fill="#1d4ed8"/>
<circle cx="545.86" cy="374.74" r="3.2" fill="#1d4ed8"/>
<circle cx="548.41" cy="374.74" r="3.2" fill="#1d4ed8"/>
<circle cx="550.96" cy="374.74" r="3.2" fill="#1d4ed8"/>
<circle cx="553.50" cy="374.34" r="3.2" fill="#1d4ed8"/>
<circle cx="556.05" cy="374.34" r="3.2" fill="#1d4ed8"/>
<circle cx="558.60" cy="374.34" r="3.2" fill="#1d4ed8"/>
<circle cx="561.14" cy="374.34" r="3.2" fill="#1d4ed8"/>
<circle cx="563.69" cy="374.34" r="3.2" fill="#1d4ed8"/>
<circle cx="566.24" cy="373.93" r="3.2" fill="#1d4ed8"/>
<circle cx="568.79" cy="373.12" r="3.2" fill="#1d4ed8"/>
<circle cx="571.33" cy="372.72" r="3.2" fill="#1d4ed8"/>
<circle cx="573.88" cy="373.53" r="3.2" fill="#1d4ed8"/>
<circle cx="576.43" cy="435.81" r="3.2" fill="#1d4ed8"/>
<circle cx="578.97" cy="372.32" r="3.2" fill="#1d4ed8"/>
<circle cx="581.52" cy="372.72" r="3.2" fill="#1d4ed8"/>
<circle cx="584.07" cy="371.91" r="3.2" fill="#1d4ed8"/>
<circle cx="586.61" cy="371.91" r="3.2" fill="#1d4ed8"/>
<circle cx="589.16" cy="372.32" r="3.2" fill="#1d4ed8"/>
<circle cx="591.71" cy="371.10" r="3.2" fill="#1d4ed8"/>
<circle cx="594.25" cy="369.89" r="3.2" fill="#1d4ed8"/>
<circle cx="596.80" cy="369.89" r="3.2" fill="#1d4ed8"/>
<circle cx="599.35" cy="369.89" r="3.2" fill="#1d4ed8"/>
<circle cx="601.89" cy="369.49" r="3.2" fill="#1d4ed8"/>
<circle cx="604.44" cy="369.89" r="3.2" fill="#1d4ed8"/>
<circle cx="606.99" cy="369.08" r="3.2" fill="#1d4ed8"/>
<circle cx="609.53" cy="368.68" r="3.2" fill="#1d4ed8"/>
<circle cx="612.08" cy="368.27" r="3.2" fill="#1d4ed8"/>
<circle cx="614.63" cy="367.87" r="3.2" fill="#1d4ed8"/>
<circle cx="617.17" cy="367.06" r="3.2" fill="#1d4ed8"/>
<circle cx="619.72" cy="367.46" r="3.2" fill="#1d4ed8"/>
<circle cx="622.27" cy="367.06" r="3.2" fill="#1d4ed8"/>
<circle cx="624.81" cy="366.25" r="3.2" fill="#1d4ed8"/>
<circle cx="627.36" cy="368.27" r="3.2" fill="#1d4ed8"/>
<circle cx="629.91" cy="368.68" r="3.2" fill="#1d4ed8"/>
<circle cx="632.45" cy="368.68" r="3.2" fill="#1d4ed8"/>
<circle cx="635.00" cy="368.27" r="3.2" fill="#1d4ed8"/>
<circle cx="637.55" cy="369.08" r="3.2" fill="#1d4ed8"/>
<circle cx="640.09" cy="367.87" r="3.2" fill="#1d4ed8"/>
<circle cx="642.64" cy="367.46" r="3.2" fill="#1d4ed8"/>
<circle cx="645.19" cy="367.06" r="3.2" fill="#1d4ed8"/>
<circle cx="647.73" cy="360.18" r="3.2" fill="#1d4ed8"/>
<circle cx="650.28" cy="359.78" r="3.2" fill="#1d4ed8"/>
<circle cx="652.83" cy="359.38" r="3.2" fill="#1d4ed8"/>
<circle cx="655.37" cy="356.95" r="3.2" fill="#1d4ed8"/>
<circle cx="657.92" cy="357.35" r="3.2" fill="#1d4ed8"/>
<circle cx="660.47" cy="357.76" r="3.2" fill="#1d4ed8"/>
<circle cx="663.01" cy="355.33" r="3.2" fill="#1d4ed8"/>
<circle cx="665.56" cy="355.74" r="3.2" fill="#1d4ed8"/>
<circle cx="668.11" cy="357.35" r="3.2" fill="#1d4ed8"/>
<circle cx="670.65" cy="355.33" r="3.2" fill="#1d4ed8"/>
<circle cx="673.20" cy="356.14" r="3.2" fill="#1d4ed8"/>
<circle cx="675.75" cy="355.74" r="3.2" fill="#1d4ed8"/>
<circle cx="678.29" cy="356.14" r="3.2" fill="#1d4ed8"/>
<circle cx="680.84" cy="354.12" r="3.2" fill="#1d4ed8"/>
<circle cx="683.39" cy="354.93" r="3.2" fill="#1d4ed8"/>
<circle cx="685.93" cy="356.14" r="3.2" fill="#1d4ed8"/>
<circle cx="688.48" cy="354.52" r="3.2" fill="#1d4ed8"/>
<circle cx="691.03" cy="353.71" r="3.2" fill="#1d4ed8"/>
<circle cx="693.57" cy="354.12" r="3.2" fill="#1d4ed8"/>
<circle cx="696.12" cy="354.93" r="3.2" fill="#1d4ed8"/>
<circle cx="698.67" cy="352.90" r="3.2" fill="#1d4ed8"/>
<circle cx="701.21" cy="353.71" r="3.2" fill="#1d4ed8"/>
<circle cx="703.76" cy="353.31" r="3.2" fill="#1d4ed8"/>
<circle cx="706.31" cy="353.31" r="3.2" fill="#1d4ed8"/>
<circle cx="708.86" cy="354.52" r="3.2" fill="#1d4ed8"/>
<circle cx="711.40" cy="352.90" r="3.2" fill="#1d4ed8"/>
<circle cx="713.95" cy="352.50" r="3.2" fill="#1d4ed8"/>
<circle cx="716.50" cy="352.50" r="3.2" fill="#1d4ed8"/>
<circle cx="719.04" cy="353.31" r="3.2" fill="#1d4ed8"/>
<circle cx="721.59" cy="352.50" r="3.2" fill="#1d4ed8"/>
<circle cx="724.14" cy="353.71" r="3.2" fill="#1d4ed8"/>
<circle cx="726.68" cy="354.12" r="3.2" fill="#1d4ed8"/>
<circle cx="729.23" cy="352.50" r="3.2" fill="#1d4ed8"/>
<circle cx="731.78" cy="352.90" r="3.2" fill="#1d4ed8"/>
<circle cx="734.32" cy="352.50" r="3.2" fill="#1d4ed8"/>
<circle cx="736.87" cy="352.10" r="3.2" fill="#1d4ed8"/>
<circle cx="739.42" cy="351.69" r="3.2" fill="#1d4ed8"/>
<circle cx="741.96" cy="352.10" r="3.2" fill="#1d4ed8"/>
<circle cx="744.51" cy="354.12" r="3.2" fill="#1d4ed8"/>
<circle cx="747.06" cy="352.50" r="3.2" fill="#1d4ed8"/>
<circle cx="749.60" cy="352.10" r="3.2" fill="#1d4ed8"/>
<circle cx="752.15" cy="352.10" r="3.2" fill="#1d4ed8"/>
<circle cx="754.70" cy="349.67" r="3.2" fill="#1d4ed8"/>
<circle cx="757.24" cy="349.67" r="3.2" fill="#1d4ed8"/>
<circle cx="759.79" cy="350.88" r="3.2" fill="#1d4ed8"/>
<circle cx="762.34" cy="351.29" r="3.2" fill="#1d4ed8"/>
<circle cx="764.88" cy="350.48" r="3.2" fill="#1d4ed8"/>
<circle cx="767.43" cy="352.10" r="3.2" fill="#1d4ed8"/>
<circle cx="769.98" cy="350.48" r="3.2" fill="#1d4ed8"/>
<circle cx="772.52" cy="350.48" r="3.2" fill="#1d4ed8"/>
<circle cx="775.07" cy="350.48" r="3.2" fill="#1d4ed8"/>
<circle cx="777.62" cy="350.07" r="3.2" fill="#1d4ed8"/>
<circle cx="780.16" cy="348.46" r="3.2" fill="#1d4ed8"/>
<circle cx="782.71" cy="351.29" r="3.2" fill="#1d4ed8"/>
<circle cx="785.26" cy="349.67" r="3.2" fill="#1d4ed8"/>
<circle cx="787.80" cy="351.29" r="3.2" fill="#1d4ed8"/>
<circle cx="790.35" cy="349.67" r="3.2" fill="#1d4ed8"/>
<circle cx="792.90" cy="348.86" r="3.2" fill="#1d4ed8"/>
<circle cx="795.44" cy="348.46" r="3.2" fill="#1d4ed8"/>
<circle cx="797.99" cy="348.46" r="3.2" fill="#1d4ed8"/>
<circle cx="800.54" cy="347.24" r="3.2" fill="#1d4ed8"/>
<circle cx="803.08" cy="348.86" r="3.2" fill="#1d4ed8"/>
<circle cx="805.63" cy="346.84" r="3.2" fill="#1d4ed8"/>
<circle cx="808.18" cy="348.46" r="3.2" fill="#1d4ed8"/>
<circle cx="810.72" cy="348.86" r="3.2" fill="#1d4ed8"/>
<circle cx="813.27" cy="346.84" r="3.2" fill="#1d4ed8"/>
<circle cx="815.82" cy="349.26" r="3.2" fill="#1d4ed8"/>
<circle cx="818.36" cy="348.05" r="3.2" fill="#1d4ed8"/>
<circle cx="820.91" cy="349.26" r="3.2" fill="#1d4ed8"/>
<circle cx="823.46" cy="349.26" r="3.2" fill="#1d4ed8"/>
<circle cx="826.00" cy="350.48" r="3.2" fill="#1d4ed8"/>
<circle cx="828.55" cy="352.90" r="3.2" fill="#1d4ed8"/>
<circle cx="831.10" cy="349.67" r="3.2" fill="#1d4ed8"/>
<circle cx="833.64" cy="348.46" r="3.2" fill="#1d4ed8"/>
<circle cx="836.19" cy="345.62" r="3.2" fill="#1d4ed8"/>
<circle cx="838.74" cy="344.82" r="3.2" fill="#1d4ed8"/>
<circle cx="841.29" cy="344.41" r="3.2" fill="#1d4ed8"/>
<circle cx="843.83" cy="342.39" r="3.2" fill="#1d4ed8"/>
<circle cx="846.38" cy="341.18" r="3.2" fill="#1d4ed8"/>
<circle cx="848.93" cy="341.58" r="3.2" fill="#1d4ed8"/>
<circle cx="851.47" cy="339.15" r="3.2" fill="#1d4ed8"/>
<circle cx="854.02" cy="338.35" r="3.2" fill="#1d4ed8"/>
<circle cx="856.57" cy="337.54" r="3.2" fill="#1d4ed8"/>
<circle cx="859.11" cy="336.73" r="3.2" fill="#1d4ed8"/>
<circle cx="861.66" cy="335.92" r="3.2" fill="#1d4ed8"/>
<circle cx="864.21" cy="337.54" r="3.2" fill="#1d4ed8"/>
<circle cx="866.75" cy="338.35" r="3.2" fill="#1d4ed8"/>
<circle cx="869.30" cy="337.54" r="3.2" fill="#1d4ed8"/>
<circle cx="871.85" cy="337.54" r="3.2" fill="#1d4ed8"/>
<circle cx="874.39" cy="337.54" r="3.2" fill="#1d4ed8"/>
<circle cx="876.94" cy="333.09" r="3.2" fill="#1d4ed8"/>
<circle cx="879.49" cy="333.90" r="3.2" fill="#1d4ed8"/>
<circle cx="882.03" cy="335.92" r="3.2" fill="#1d4ed8"/>
<circle cx="884.58" cy="336.73" r="3.2" fill="#1d4ed8"/>
<circle cx="887.13" cy="335.51" r="3.2" fill="#1d4ed8"/>
<circle cx="889.67" cy="332.28" r="3.2" fill="#1d4ed8"/>
<circle cx="892.22" cy="331.47" r="3.2" fill="#1d4ed8"/>
<circle cx="894.77" cy="331.07" r="3.2" fill="#1d4ed8"/>
<circle cx="897.31" cy="331.47" r="3.2" fill="#1d4ed8"/>
<circle cx="899.86" cy="331.07" r="3.2" fill="#1d4ed8"/>
<circle cx="902.41" cy="331.07" r="3.2" fill="#1d4ed8"/>
<circle cx="904.95" cy="331.07" r="3.2" fill="#1d4ed8"/>
<circle cx="907.50" cy="331.07" r="3.2" fill="#1d4ed8"/>
<circle cx="910.05" cy="331.07" r="3.2" fill="#1d4ed8"/>
<circle cx="912.59" cy="331.07" r="3.2" fill="#1d4ed8"/>
<circle cx="915.14" cy="331.07" r="3.2" fill="#1d4ed8"/>
<circle cx="917.69" cy="331.07" r="3.2" fill="#1d4ed8"/>
<circle cx="920.23" cy="331.07" r="3.2" fill="#1d4ed8"/>
<circle cx="922.78" cy="331.07" r="3.2" fill="#1d4ed8"/>
<circle cx="925.33" cy="331.47" r="3.2" fill="#1d4ed8"/>
<circle cx="927.87" cy="331.88" r="3.2" fill="#1d4ed8"/>
<circle cx="930.42" cy="331.07" r="3.2" fill="#1d4ed8"/>
<circle cx="932.97" cy="331.47" r="3.2" fill="#1d4ed8"/>
<circle cx="935.51" cy="331.07" r="3.2" fill="#1d4ed8"/>
<circle cx="938.06" cy="331.47" r="3.2" fill="#1d4ed8"/>
<circle cx="940.61" cy="331.07" r="3.2" fill="#1d4ed8"/>
<circle cx="943.15" cy="324.19" r="3.2" fill="#1d4ed8"/>
<circle cx="945.70" cy="324.19" r="3.2" fill="#1d4ed8"/>
<circle cx="948.25" cy="318.93" r="3.2" fill="#1d4ed8"/>
<circle cx="950.79" cy="316.51" r="3.2" fill="#1d4ed8"/>
<circle cx="953.34" cy="310.44" r="3.2" fill="#1d4ed8"/>
<circle cx="955.89" cy="308.01" r="3.2" fill="#1d4ed8"/>
<circle cx="958.43" cy="600.00" r="3.2" fill="#1d4ed8"/>
<circle cx="960.98" cy="301.54" r="3.2" fill="#1d4ed8"/>
<circle cx="963.53" cy="290.22" r="3.2" fill="#1d4ed8"/>
<circle cx="966.07" cy="287.79" r="3.2" fill="#1d4ed8"/>
<circle cx="968.62" cy="286.18" r="3.2" fill="#1d4ed8"/>
<circle cx="971.17" cy="285.77" r="3.2" fill="#1d4ed8"/>
<circle cx="973.71" cy="285.77" r="3.2" fill="#1d4ed8"/>
<circle cx="976.26" cy="285.77" r="3.2" fill="#1d4ed8"/>
<circle cx="978.81" cy="286.18" r="3.2" fill="#1d4ed8"/>
<circle cx="981.36" cy="285.77" r="3.2" fill="#1d4ed8"/>
<circle cx="983.90" cy="285.77" r="3.2" fill="#1d4ed8"/>
<circle cx="986.45" cy="285.77" r="3.2" fill="#1d4ed8"/>
<circle cx="989.00" cy="283.35" r="3.2" fill="#1d4ed8"/>
<circle cx="991.54" cy="282.94" r="3.2" fill="#1d4ed8"/>
<circle cx="994.09" cy="282.94" r="3.2" fill="#1d4ed8"/>
<circle cx="996.64" cy="283.35" r="3.2" fill="#1d4ed8"/>
<circle cx="999.18" cy="282.94" r="3.2" fill="#1d4ed8"/>
<circle cx="1001.73" cy="282.94" r="3.2" fill="#1d4ed8"/>
<circle cx="1004.28" cy="283.75" r="3.2" fill="#1d4ed8"/>
<circle cx="1006.82" cy="282.13" r="3.2" fill="#1d4ed8"/>
<circle cx="1009.37" cy="282.13" r="3.2" fill="#1d4ed8"/>
<circle cx="1011.92" cy="282.54" r="3.2" fill="#1d4ed8"/>
<circle cx="1014.46" cy="282.13" r="3.2" fill="#1d4ed8"/>
<circle cx="1017.01" cy="282.54" r="3.2" fill="#1d4ed8"/>
<circle cx="1019.56" cy="282.94" r="3.2" fill="#1d4ed8"/>
<circle cx="1022.10" cy="281.73" r="3.2" fill="#1d4ed8"/>
<circle cx="1024.65" cy="282.54" r="3.2" fill="#1d4ed8"/>
<circle cx="1027.20" cy="281.73" r="3.2" fill="#1d4ed8"/>
<circle cx="1029.74" cy="282.54" r="3.2" fill="#1d4ed8"/>
<circle cx="1032.29" cy="282.13" r="3.2" fill="#1d4ed8"/>
<circle cx="1034.84" cy="282.13" r="3.2" fill="#1d4ed8"/>
<circle cx="1037.38" cy="281.73" r="3.2" fill="#1d4ed8"/>
<circle cx="1039.93" cy="281.73" r="3.2" fill="#1d4ed8"/>
<circle cx="1042.48" cy="281.32" r="3.2" fill="#1d4ed8"/>
<circle cx="1045.02" cy="281.73" r="3.2" fill="#1d4ed8"/>
<circle cx="1047.57" cy="282.13" r="3.2" fill="#1d4ed8"/>
<circle cx="1050.12" cy="281.32" r="3.2" fill="#1d4ed8"/>
<circle cx="1052.66" cy="281.32" r="3.2" fill="#1d4ed8"/>
<circle cx="1055.21" cy="282.54" r="3.2" fill="#1d4ed8"/>
<circle cx="1057.76" cy="282.13" r="3.2" fill="#1d4ed8"/>
<circle cx="1060.30" cy="281.32" r="3.2" fill="#1d4ed8"/>
<circle cx="1062.85" cy="281.32" r="3.2" fill="#1d4ed8"/>
<circle cx="1065.40" cy="281.32" r="3.2" fill="#1d4ed8"/>
<circle cx="1067.94" cy="282.54" r="3.2" fill="#1d4ed8"/>
<circle cx="1070.49" cy="282.13" r="3.2" fill="#1d4ed8"/>
<circle cx="1073.04" cy="281.32" r="3.2" fill="#1d4ed8"/>
<circle cx="1075.58" cy="282.13" r="3.2" fill="#1d4ed8"/>
<circle cx="1078.13" cy="281.73" r="3.2" fill="#1d4ed8"/>
<circle cx="1080.68" cy="282.13" r="3.2" fill="#1d4ed8"/>
<circle cx="1083.22" cy="280.11" r="3.2" fill="#1d4ed8"/>
<circle cx="1085.77" cy="280.11" r="3.2" fill="#1d4ed8"/>
<circle cx="1088.32" cy="280.51" r="3.2" fill="#1d4ed8"/>
<circle cx="1090.86" cy="279.71" r="3.2" fill="#1d4ed8"/>
<circle cx="1093.41" cy="280.11" r="3.2" fill="#1d4ed8"/>
<circle cx="1095.96" cy="280.51" r="3.2" fill="#1d4ed8"/>
<circle cx="1098.50" cy="279.71" r="3.2" fill="#1d4ed8"/>
<circle cx="1101.05" cy="280.11" r="3.2" fill="#1d4ed8"/>
<circle cx="1103.60" cy="280.11" r="3.2" fill="#1d4ed8"/>
<circle cx="1106.14" cy="279.30" r="3.2" fill="#1d4ed8"/>
<circle cx="1108.69" cy="278.90" r="3.2" fill="#1d4ed8"/>
<circle cx="1111.24" cy="278.90" r="3.2" fill="#1d4ed8"/>
<circle cx="1113.79" cy="280.51" r="3.2" fill="#1d4ed8"/>
<circle cx="1116.33" cy="279.30" r="3.2" fill="#1d4ed8"/>
<circle cx="1118.88" cy="278.09" r="3.2" fill="#1d4ed8"/>
<circle cx="1121.43" cy="278.49" r="3.2" fill="#1d4ed8"/>
<circle cx="1123.97" cy="278.49" r="3.2" fill="#1d4ed8"/>
<circle cx="1126.52" cy="277.28" r="3.2" fill="#1d4ed8"/>
<circle cx="1129.07" cy="277.68" r="3.2" fill="#1d4ed8"/>
<circle cx="1131.61" cy="277.68" r="3.2" fill="#1d4ed8"/>
<circle cx="1134.16" cy="278.09" r="3.2" fill="#1d4ed8"/>
<circle cx="1136.71" cy="277.28" r="3.2" fill="#1d4ed8"/>
<circle cx="1139.25" cy="600.00" r="3.2" fill="#1d4ed8"/>
<circle cx="1141.80" cy="278.90" r="3.2" fill="#1d4ed8"/>
<circle cx="1144.35" cy="279.30" r="3.2" fill="#1d4ed8"/>
<circle cx="1146.89" cy="278.90" r="3.2" fill="#1d4ed8"/>
<circle cx="1149.44" cy="278.49" r="3.2" fill="#1d4ed8"/>
<circle cx="1151.99" cy="278.49" r="3.2" fill="#1d4ed8"/>
<circle cx="1154.53" cy="278.49" r="3.2" fill="#1d4ed8"/>
<circle cx="1157.08" cy="278.49" r="3.2" fill="#1d4ed8"/>
<circle cx="1159.63" cy="278.49" r="3.2" fill="#1d4ed8"/>
<circle cx="1162.17" cy="278.49" r="3.2" fill="#1d4ed8"/>
<circle cx="1164.72" cy="278.49" r="3.2" fill="#1d4ed8"/>
<circle cx="1167.27" cy="278.49" r="3.2" fill="#1d4ed8"/>
<circle cx="1169.81" cy="278.49" r="3.2" fill="#1d4ed8"/>
<circle cx="1172.36" cy="278.49" r="3.2" fill="#1d4ed8"/>
<circle cx="1174.91" cy="278.49" r="3.2" fill="#1d4ed8"/>
<circle cx="1177.45" cy="278.49" r="3.2" fill="#1d4ed8"/>
<circle cx="1180.00" cy="600.00" r="3.2" fill="#1d4ed8"/>
<text x="635" y="695" text-anchor="middle" font-size="14" fill="#111" font-family="sans-serif">Date</text>
<text x="24" y="325" text-anchor="middle" font-size="14" fill="#111" transform="rotate(-90 24,325)" font-family="sans-serif">Passed files</text>
</svg>
