<?xml version="1.0" encoding="UTF-8"?>
<svg xmlns="http://www.w3.org/2000/svg" width="1280" height="720" viewBox="0 0 1280 720">
<rect width="100%" height="100%" fill="#ffffff"/>
<text x="640" y="30" text-anchor="middle" font-size="22" font-family="sans-serif">Roast passed files history</text>
<line x1="90" y1="600" x2="1180" y2="600" stroke="#333" stroke-width="1.5"/>
<line x1="90" y1="50" x2="90" y2="600" stroke="#333" stroke-width="1.5"/>
<line x1="90" y1="600.00" x2="1180" y2="600.00" stroke="#e5e7eb" stroke-width="1"/>
<text x="78" y="605.00" text-anchor="end" font-size="12" fill="#111" font-family="sans-serif">0</text>
<line x1="90" y1="397.79" x2="1180" y2="397.79" stroke="#e5e7eb" stroke-width="1"/>
<text x="78" y="402.79" text-anchor="end" font-size="12" fill="#111" font-family="sans-serif">500</text>
<line x1="90" y1="195.59" x2="1180" y2="195.59" stroke="#e5e7eb" stroke-width="1"/>
<text x="78" y="200.59" text-anchor="end" font-size="12" fill="#111" font-family="sans-serif">1000</text>
<line x1="90.00" y1="600" x2="90.00" y2="606" stroke="#333" stroke-width="1"/>
<text x="90.00" y="624" text-anchor="end" font-size="11" fill="#111" transform="rotate(-40 90.00,624)" font-family="sans-serif">2026-02-12</text>
<line x1="224.50" y1="600" x2="224.50" y2="606" stroke="#333" stroke-width="1"/>
<text x="224.50" y="624" text-anchor="end" font-size="11" fill="#111" transform="rotate(-40 224.50,624)" font-family="sans-serif">2026-02-17</text>
<line x1="359.00" y1="600" x2="359.00" y2="606" stroke="#333" stroke-width="1"/>
<text x="359.00" y="624" text-anchor="end" font-size="11" fill="#111" transform="rotate(-40 359.00,624)" font-family="sans-serif">2026-02-22</text>
<line x1="493.50" y1="600" x2="493.50" y2="606" stroke="#333" stroke-width="1"/>
<text x="493.50" y="624" text-anchor="end" font-size="11" fill="#111" transform="rotate(-40 493.50,624)" font-family="sans-serif">2026-02-26</text>
<line x1="627.99" y1="600" x2="627.99" y2="606" stroke="#333" stroke-width="1"/>
<text x="627.99" y="624" text-anchor="end" font-size="11" fill="#111" transform="rotate(-40 627.99,624)" font-family="sans-serif">2026-02-28</text>
<line x1="762.49" y1="600" x2="762.49" y2="606" stroke="#333" stroke-width="1"/>
<text x="762.49" y="624" text-anchor="end" font-size="11" fill="#111" transform="rotate(-40 762.49,624)" font-family="sans-serif">2026-03-06</text>
<line x1="896.99" y1="600" x2="896.99" y2="606" stroke="#333" stroke-width="1"/>
<text x="896.99" y="624" text-anchor="end" font-size="11" fill="#111" transform="rotate(-40 896.99,624)" font-family="sans-serif">2026-03-07</text>
<line x1="1031.49" y1="600" x2="1031.49" y2="606" stroke="#333" stroke-width="1"/>
<text x="1031.49" y="624" text-anchor="end" font-size="11" fill="#111" transform="rotate(-40 1031.49,624)" font-family="sans-serif">2026-03-15</text>
<line x1="1165.99" y1="600" x2="1165.99" y2="606" stroke="#333" stroke-width="1"/>
<text x="1165.99" y="624" text-anchor="end" font-size="11" fill="#111" transform="rotate(-40 1165.99,624)" font-family="sans-serif">2026-03-19</text>
<line x1="1180.00" y1="600" x2="1180.00" y2="606" stroke="#333" stroke-width="1"/>
<text x="1180.00" y="624" text-anchor="end" font-size="11" fill="#111" transform="rotate(-40 1180.00,624)" font-family="sans-serif">2026-03-19</text>
<line x1="90" y1="75.88" x2="1180" y2="75.88" stroke="#dc2626" stroke-width="1.5" stroke-dasharray="8,4"/>
<text x="1184" y="79.88" font-size="12" fill="#dc2626" font-family="sans-serif">Goal: 1296</text>
<polyline fill="none" stroke="#2563eb" stroke-width="3" points="90.00,540.55 92.80,538.53 95.60,536.91 98.41,534.49 101.21,534.49 104.01,533.27 106.81,532.46 109.61,532.87 112.42,532.06 115.22,532.46 118.02,532.06 120.82,568.46 123.62,568.46 126.43,566.43 129.23,545.00 132.03,545.00 134.83,544.19 137.63,543.79 140.44,543.79 143.24,543.38 146.04,541.76 148.84,541.36 151.65,540.96 154.45,540.96 157.25,539.34 160.05,539.34 162.85,556.73 165.66,556.73 168.46,555.51 171.26,551.07 174.06,538.93 176.86,538.93 179.67,538.93 182.47,538.12 185.27,536.91 188.07,536.91 190.87,536.51 193.68,536.51 196.48,556.73 199.28,556.73 202.08,556.73 204.88,556.73 207.69,535.29 210.49,535.29 213.29,535.29 216.09,535.29 218.89,534.49 221.70,534.08 224.50,533.68 227.30,532.87 230.10,532.06 232.90,532.06 235.71,531.25 238.51,530.85 241.31,530.44 244.11,530.04 246.92,530.04 249.72,529.23 252.52,529.23 255.32,529.23 258.12,528.42 260.93,528.42 263.73,527.61 266.53,527.21 269.33,526.80 272.13,526.40 274.94,525.18 277.74,523.57 280.54,523.57 283.34,523.16 286.14,522.76 288.95,522.35 291.75,521.54 294.55,519.52 297.35,517.50 300.15,517.50 302.96,517.50 305.76,517.50 308.56,517.50 311.36,517.50 314.16,517.10 316.97,516.69 319.77,515.48 322.57,515.07 325.37,514.67 328.17,513.86 330.98,514.26 333.78,512.24 336.58,511.84 339.38,511.84 342.19,511.03 344.99,509.82 347.79,507.79 350.59,506.99 353.39,506.58 356.20,509.41 359.00,509.01 361.80,504.96 364.60,504.56 367.40,504.15 370.21,504.56 373.01,503.75 375.81,503.75 378.61,503.35 381.41,499.30 384.22,496.47 387.02,490.00 389.82,484.34 392.62,481.10 395.42,480.29 398.23,480.70 401.03,460.88 403.83,459.26 406.63,458.05 409.43,456.03 412.24,456.03 415.04,454.41 417.84,450.77 420.64,444.30 423.44,443.90 426.25,600.00 429.05,441.88 431.85,440.66 434.65,439.45 437.46,439.04 440.26,438.64 443.06,437.83 445.86,436.62 448.66,436.62 451.47,434.60 454.27,432.17 457.07,429.34 459.87,428.93 462.67,428.53 465.48,427.72 468.28,426.91 471.08,426.10 473.88,426.10 476.68,426.10 479.49,419.63 482.29,419.23 485.09,418.42 487.89,418.01 490.69,417.61 493.50,417.61 496.30,417.61 499.10,417.21 501.90,417.21 504.70,413.57 507.51,411.95 510.31,412.76 513.11,410.74 515.91,410.74 518.71,410.33 521.52,410.33 524.32,410.33 527.12,409.93 529.92,409.93 532.72,409.93 535.53,409.52 538.33,409.52 541.13,409.12 543.93,409.52 546.74,409.12 549.54,407.50 552.34,407.10 555.14,403.05 557.94,399.82 560.75,400.22 563.55,400.62 566.35,400.62 569.15,399.41 571.95,392.94 574.76,391.32 577.56,389.30 580.36,389.30 583.16,388.49 585.96,375.15 588.77,374.74 591.57,374.74 594.37,374.74 597.17,374.74 599.97,374.34 602.78,374.34 605.58,374.34 608.38,374.34 611.18,374.34 613.98,373.93 616.79,373.12 619.59,372.72 622.39,373.53 625.19,435.81 627.99,372.32 630.80,372.72 633.60,371.91 636.40,371.91 639.20,372.32 642.01,371.10 644.81,369.89 647.61,369.89 650.41,369.89 653.21,369.49 656.02,369.89 658.82,369.08 661.62,368.68 664.42,368.27 667.22,367.87 670.03,367.06 672.83,367.46 675.63,367.06 678.43,366.25 681.23,368.27 684.04,368.68 686.84,368.68 689.64,368.27 692.44,369.08 695.24,367.87 698.05,367.46 700.85,367.06 703.65,360.18 706.45,359.78 709.25,359.38 712.06,356.95 714.86,357.35 717.66,357.76 720.46,355.33 723.26,355.74 726.07,357.35 728.87,355.33 731.67,356.14 734.47,355.74 737.28,356.14 740.08,354.12 742.88,354.93 745.68,356.14 748.48,354.52 751.29,353.71 754.09,354.12 756.89,354.93 759.69,352.90 762.49,353.71 765.30,353.31 768.10,353.31 770.90,354.52 773.70,352.90 776.50,352.50 779.31,352.50 782.11,353.31 784.91,352.50 787.71,353.71 790.51,354.12 793.32,352.50 796.12,352.90 798.92,352.50 801.72,352.10 804.52,351.69 807.33,352.10 810.13,354.12 812.93,352.50 815.73,352.10 818.53,352.10 821.34,349.67 824.14,349.67 826.94,350.88 829.74,351.29 832.54,350.48 835.35,352.10 838.15,350.48 840.95,350.48 843.75,350.48 846.56,350.07 849.36,348.46 852.16,351.29 854.96,349.67 857.76,351.29 860.57,349.67 863.37,348.86 866.17,348.46 868.97,348.46 871.77,347.24 874.58,348.86 877.38,346.84 880.18,348.46 882.98,348.86 885.78,346.84 888.59,349.26 891.39,348.05 894.19,349.26 896.99,349.26 899.79,350.48 902.60,352.90 905.40,349.67 908.20,348.46 911.00,345.62 913.80,344.82 916.61,344.41 919.41,342.39 922.21,341.18 925.01,341.58 927.81,339.15 930.62,338.35 933.42,337.54 936.22,336.73 939.02,335.92 941.83,337.54 944.63,338.35 947.43,337.54 950.23,337.54 953.03,337.54 955.84,333.09 958.64,333.90 961.44,335.92 964.24,336.73 967.04,335.51 969.85,332.28 972.65,331.47 975.45,331.07 978.25,331.47 981.05,331.07 983.86,331.07 986.66,331.07 989.46,331.07 992.26,331.07 995.06,331.07 997.87,331.07 1000.67,331.07 1003.47,331.07 1006.27,331.07 1009.07,331.47 1011.88,331.88 1014.68,331.07 1017.48,331.47 1020.28,331.07 1023.08,331.47 1025.89,331.07 1028.69,324.19 1031.49,324.19 1034.29,318.93 1037.10,316.51 1039.90,310.44 1042.70,308.01 1045.50,600.00 1048.30,301.54 1051.11,290.22 1053.91,287.79 1056.71,286.18 1059.51,285.77 1062.31,285.77 1065.12,285.77 1067.92,286.18 1070.72,285.77 1073.52,285.77 1076.32,285.77 1079.13,283.35 1081.93,282.94 1084.73,282.94 1087.53,283.35 1090.33,282.94 1093.14,282.94 1095.94,283.75 1098.74,282.13 1101.54,282.13 1104.34,282.54 1107.15,282.13 1109.95,282.54 1112.75,282.94 1115.55,281.73 1118.35,282.54 1121.16,281.73 1123.96,282.54 1126.76,282.13 1129.56,282.13 1132.37,281.73 1135.17,281.73 1137.97,281.32 1140.77,281.73 1143.57,282.13 1146.38,281.32 1149.18,281.32 1151.98,282.54 1154.78,282.13 1157.58,281.32 1160.39,281.32 1163.19,281.32 1165.99,282.54 1168.79,282.13 1171.59,281.32 1174.40,282.13 1177.20,281.73 1180.00,282.13"/>
<circle cx="90.00" cy="540.55" r="3.2" fill="#1d4ed8"/>
<circle cx="92.80" cy="538.53" r="3.2" fill="#1d4ed8"/>
<circle cx="95.60" cy="536.91" r="3.2" fill="#1d4ed8"/>
<circle cx="98.41" cy="534.49" r="3.2" fill="#1d4ed8"/>
<circle cx="101.21" cy="534.49" r="3.2" fill="#1d4ed8"/>
<circle cx="104.01" cy="533.27" r="3.2" fill="#1d4ed8"/>
<circle cx="106.81" cy="532.46" r="3.2" fill="#1d4ed8"/>
<circle cx="109.61" cy="532.87" r="3.2" fill="#1d4ed8"/>
<circle cx="112.42" cy="532.06" r="3.2" fill="#1d4ed8"/>
<circle cx="115.22" cy="532.46" r="3.2" fill="#1d4ed8"/>
<circle cx="118.02" cy="532.06" r="3.2" fill="#1d4ed8"/>
<circle cx="120.82" cy="568.46" r="3.2" fill="#1d4ed8"/>
<circle cx="123.62" cy="568.46" r="3.2" fill="#1d4ed8"/>
<circle cx="126.43" cy="566.43" r="3.2" fill="#1d4ed8"/>
<circle cx="129.23" cy="545.00" r="3.2" fill="#1d4ed8"/>
<circle cx="132.03" cy="545.00" r="3.2" fill="#1d4ed8"/>
<circle cx="134.83" cy="544.19" r="3.2" fill="#1d4ed8"/>
<circle cx="137.63" cy="543.79" r="3.2" fill="#1d4ed8"/>
<circle cx="140.44" cy="543.79" r="3.2" fill="#1d4ed8"/>
<circle cx="143.24" cy="543.38" r="3.2" fill="#1d4ed8"/>
<circle cx="146.04" cy="541.76" r="3.2" fill="#1d4ed8"/>
<circle cx="148.84" cy="541.36" r="3.2" fill="#1d4ed8"/>
<circle cx="151.65" cy="540.96" r="3.2" fill="#1d4ed8"/>
<circle cx="154.45" cy="540.96" r="3.2" fill="#1d4ed8"/>
<circle cx="157.25" cy="539.34" r="3.2" fill="#1d4ed8"/>
<circle cx="160.05" cy="539.34" r="3.2" fill="#1d4ed8"/>
<circle cx="162.85" cy="556.73" r="3.2" fill="#1d4ed8"/>
<circle cx="165.66" cy="556.73" r="3.2" fill="#1d4ed8"/>
<circle cx="168.46" cy="555.51" r="3.2" fill="#1d4ed8"/>
<circle cx="171.26" cy="551.07" r="3.2" fill="#1d4ed8"/>
<circle cx="174.06" cy="538.93" r="3.2" fill="#1d4ed8"/>
<circle cx="176.86" cy="538.93" r="3.2" fill="#1d4ed8"/>
<circle cx="179.67" cy="538.93" r="3.2" fill="#1d4ed8"/>
<circle cx="182.47" cy="538.12" r="3.2" fill="#1d4ed8"/>
<circle cx="185.27" cy="536.91" r="3.2" fill="#1d4ed8"/>
<circle cx="188.07" cy="536.91" r="3.2" fill="#1d4ed8"/>
<circle cx="190.87" cy="536.51" r="3.2" fill="#1d4ed8"/>
<circle cx="193.68" cy="536.51" r="3.2" fill="#1d4ed8"/>
<circle cx="196.48" cy="556.73" r="3.2" fill="#1d4ed8"/>
<circle cx="199.28" cy="556.73" r="3.2" fill="#1d4ed8"/>
<circle cx="202.08" cy="556.73" r="3.2" fill="#1d4ed8"/>
<circle cx="204.88" cy="556.73" r="3.2" fill="#1d4ed8"/>
<circle cx="207.69" cy="535.29" r="3.2" fill="#1d4ed8"/>
<circle cx="210.49" cy="535.29" r="3.2" fill="#1d4ed8"/>
<circle cx="213.29" cy="535.29" r="3.2" fill="#1d4ed8"/>
<circle cx="216.09" cy="535.29" r="3.2" fill="#1d4ed8"/>
<circle cx="218.89" cy="534.49" r="3.2" fill="#1d4ed8"/>
<circle cx="221.70" cy="534.08" r="3.2" fill="#1d4ed8"/>
<circle cx="224.50" cy="533.68" r="3.2" fill="#1d4ed8"/>
<circle cx="227.30" cy="532.87" r="3.2" fill="#1d4ed8"/>
<circle cx="230.10" cy="532.06" r="3.2" fill="#1d4ed8"/>
<circle cx="232.90" cy="532.06" r="3.2" fill="#1d4ed8"/>
<circle cx="235.71" cy="531.25" r="3.2" fill="#1d4ed8"/>
<circle cx="238.51" cy="530.85" r="3.2" fill="#1d4ed8"/>
<circle cx="241.31" cy="530.44" r="3.2" fill="#1d4ed8"/>
<circle cx="244.11" cy="530.04" r="3.2" fill="#1d4ed8"/>
<circle cx="246.92" cy="530.04" r="3.2" fill="#1d4ed8"/>
<circle cx="249.72" cy="529.23" r="3.2" fill="#1d4ed8"/>
<circle cx="252.52" cy="529.23" r="3.2" fill="#1d4ed8"/>
<circle cx="255.32" cy="529.23" r="3.2" fill="#1d4ed8"/>
<circle cx="258.12" cy="528.42" r="3.2" fill="#1d4ed8"/>
<circle cx="260.93" cy="528.42" r="3.2" fill="#1d4ed8"/>
<circle cx="263.73" cy="527.61" r="3.2" fill="#1d4ed8"/>
<circle cx="266.53" cy="527.21" r="3.2" fill="#1d4ed8"/>
<circle cx="269.33" cy="526.80" r="3.2" fill="#1d4ed8"/>
<circle cx="272.13" cy="526.40" r="3.2" fill="#1d4ed8"/>
<circle cx="274.94" cy="525.18" r="3.2" fill="#1d4ed8"/>
<circle cx="277.74" cy="523.57" r="3.2" fill="#1d4ed8"/>
<circle cx="280.54" cy="523.57" r="3.2" fill="#1d4ed8"/>
<circle cx="283.34" cy="523.16" r="3.2" fill="#1d4ed8"/>
<circle cx="286.14" cy="522.76" r="3.2" fill="#1d4ed8"/>
<circle cx="288.95" cy="522.35" r="3.2" fill="#1d4ed8"/>
<circle cx="291.75" cy="521.54" r="3.2" fill="#1d4ed8"/>
<circle cx="294.55" cy="519.52" r="3.2" fill="#1d4ed8"/>
<circle cx="297.35" cy="517.50" r="3.2" fill="#1d4ed8"/>
<circle cx="300.15" cy="517.50" r="3.2" fill="#1d4ed8"/>
<circle cx="302.96" cy="517.50" r="3.2" fill="#1d4ed8"/>
<circle cx="305.76" cy="517.50" r="3.2" fill="#1d4ed8"/>
<circle cx="308.56" cy="517.50" r="3.2" fill="#1d4ed8"/>
<circle cx="311.36" cy="517.50" r="3.2" fill="#1d4ed8"/>
<circle cx="314.16" cy="517.10" r="3.2" fill="#1d4ed8"/>
<circle cx="316.97" cy="516.69" r="3.2" fill="#1d4ed8"/>
<circle cx="319.77" cy="515.48" r="3.2" fill="#1d4ed8"/>
<circle cx="322.57" cy="515.07" r="3.2" fill="#1d4ed8"/>
<circle cx="325.37" cy="514.67" r="3.2" fill="#1d4ed8"/>
<circle cx="328.17" cy="513.86" r="3.2" fill="#1d4ed8"/>
<circle cx="330.98" cy="514.26" r="3.2" fill="#1d4ed8"/>
<circle cx="333.78" cy="512.24" r="3.2" fill="#1d4ed8"/>
<circle cx="336.58" cy="511.84" r="3.2" fill="#1d4ed8"/>
<circle cx="339.38" cy="511.84" r="3.2" fill="#1d4ed8"/>
<circle cx="342.19" cy="511.03" r="3.2" fill="#1d4ed8"/>
<circle cx="344.99" cy="509.82" r="3.2" fill="#1d4ed8"/>
<circle cx="347.79" cy="507.79" r="3.2" fill="#1d4ed8"/>
<circle cx="350.59" cy="506.99" r="3.2" fill="#1d4ed8"/>
<circle cx="353.39" cy="506.58" r="3.2" fill="#1d4ed8"/>
<circle cx="356.20" cy="509.41" r="3.2" fill="#1d4ed8"/>
<circle cx="359.00" cy="509.01" r="3.2" fill="#1d4ed8"/>
<circle cx="361.80" cy="504.96" r="3.2" fill="#1d4ed8"/>
<circle cx="364.60" cy="504.56" r="3.2" fill="#1d4ed8"/>
<circle cx="367.40" cy="504.15" r="3.2" fill="#1d4ed8"/>
<circle cx="370.21" cy="504.56" r="3.2" fill="#1d4ed8"/>
<circle cx="373.01" cy="503.75" r="3.2" fill="#1d4ed8"/>
<circle cx="375.81" cy="503.75" r="3.2" fill="#1d4ed8"/>
<circle cx="378.61" cy="503.35" r="3.2" fill="#1d4ed8"/>
<circle cx="381.41" cy="499.30" r="3.2" fill="#1d4ed8"/>
<circle cx="384.22" cy="496.47" r="3.2" fill="#1d4ed8"/>
<circle cx="387.02" cy="490.00" r="3.2" fill="#1d4ed8"/>
<circle cx="389.82" cy="484.34" r="3.2" fill="#1d4ed8"/>
<circle cx="392.62" cy="481.10" r="3.2" fill="#1d4ed8"/>
<circle cx="395.42" cy="480.29" r="3.2" fill="#1d4ed8"/>
<circle cx="398.23" cy="480.70" r="3.2" fill="#1d4ed8"/>
<circle cx="401.03" cy="460.88" r="3.2" fill="#1d4ed8"/>
<circle cx="403.83" cy="459.26" r="3.2" fill="#1d4ed8"/>
<circle cx="406.63" cy="458.05" r="3.2" fill="#1d4ed8"/>
<circle cx="409.43" cy="456.03" r="3.2" fill="#1d4ed8"/>
<circle cx="412.24" cy="456.03" r="3.2" fill="#1d4ed8"/>
<circle cx="415.04" cy="454.41" r="3.2" fill="#1d4ed8"/>
<circle cx="417.84" cy="450.77" r="3.2" fill="#1d4ed8"/>
<circle cx="420.64" cy="444.30" r="3.2" fill="#1d4ed8"/>
<circle cx="423.44" cy="443.90" r="3.2" fill="#1d4ed8"/>
<circle cx="426.25" cy="600.00" r="3.2" fill="#1d4ed8"/>
<circle cx="429.05" cy="441.88" r="3.2" fill="#1d4ed8"/>
<circle cx="431.85" cy="440.66" r="3.2" fill="#1d4ed8"/>
<circle cx="434.65" cy="439.45" r="3.2" fill="#1d4ed8"/>
<circle cx="437.46" cy="439.04" r="3.2" fill="#1d4ed8"/>
<circle cx="440.26" cy="438.64" r="3.2" fill="#1d4ed8"/>
<circle cx="443.06" cy="437.83" r="3.2" fill="#1d4ed8"/>
<circle cx="445.86" cy="436.62" r="3.2" fill="#1d4ed8"/>
<circle cx="448.66" cy="436.62" r="3.2" fill="#1d4ed8"/>
<circle cx="451.47" cy="434.60" r="3.2" fill="#1d4ed8"/>
<circle cx="454.27" cy="432.17" r="3.2" fill="#1d4ed8"/>
<circle cx="457.07" cy="429.34" r="3.2" fill="#1d4ed8"/>
<circle cx="459.87" cy="428.93" r="3.2" fill="#1d4ed8"/>
<circle cx="462.67" cy="428.53" r="3.2" fill="#1d4ed8"/>
<circle cx="465.48" cy="427.72" r="3.2" fill="#1d4ed8"/>
<circle cx="468.28" cy="426.91" r="3.2" fill="#1d4ed8"/>
<circle cx="471.08" cy="426.10" r="3.2" fill="#1d4ed8"/>
<circle cx="473.88" cy="426.10" r="3.2" fill="#1d4ed8"/>
<circle cx="476.68" cy="426.10" r="3.2" fill="#1d4ed8"/>
<circle cx="479.49" cy="419.63" r="3.2" fill="#1d4ed8"/>
<circle cx="482.29" cy="419.23" r="3.2" fill="#1d4ed8"/>
<circle cx="485.09" cy="418.42" r="3.2" fill="#1d4ed8"/>
<circle cx="487.89" cy="418.01" r="3.2" fill="#1d4ed8"/>
<circle cx="490.69" cy="417.61" r="3.2" fill="#1d4ed8"/>
<circle cx="493.50" cy="417.61" r="3.2" fill="#1d4ed8"/>
<circle cx="496.30" cy="417.61" r="3.2" fill="#1d4ed8"/>
<circle cx="499.10" cy="417.21" r="3.2" fill="#1d4ed8"/>
<circle cx="501.90" cy="417.21" r="3.2" fill="#1d4ed8"/>
<circle cx="504.70" cy="413.57" r="3.2" fill="#1d4ed8"/>
<circle cx="507.51" cy="411.95" r="3.2" fill="#1d4ed8"/>
<circle cx="510.31" cy="412.76" r="3.2" fill="#1d4ed8"/>
<circle cx="513.11" cy="410.74" r="3.2" fill="#1d4ed8"/>
<circle cx="515.91" cy="410.74" r="3.2" fill="#1d4ed8"/>
<circle cx="518.71" cy="410.33" r="3.2" fill="#1d4ed8"/>
<circle cx="521.52" cy="410.33" r="3.2" fill="#1d4ed8"/>
<circle cx="524.32" cy="410.33" r="3.2" fill="#1d4ed8"/>
<circle cx="527.12" cy="409.93" r="3.2" fill="#1d4ed8"/>
<circle cx="529.92" cy="409.93" r="3.2" fill="#1d4ed8"/>
<circle cx="532.72" cy="409.93" r="3.2" fill="#1d4ed8"/>
<circle cx="535.53" cy="409.52" r="3.2" fill="#1d4ed8"/>
<circle cx="538.33" cy="409.52" r="3.2" fill="#1d4ed8"/>
<circle cx="541.13" cy="409.12" r="3.2" fill="#1d4ed8"/>
<circle cx="543.93" cy="409.52" r="3.2" fill="#1d4ed8"/>
<circle cx="546.74" cy="409.12" r="3.2" fill="#1d4ed8"/>
<circle cx="549.54" cy="407.50" r="3.2" fill="#1d4ed8"/>
<circle cx="552.34" cy="407.10" r="3.2" fill="#1d4ed8"/>
<circle cx="555.14" cy="403.05" r="3.2" fill="#1d4ed8"/>
<circle cx="557.94" cy="399.82" r="3.2" fill="#1d4ed8"/>
<circle cx="560.75" cy="400.22" r="3.2" fill="#1d4ed8"/>
<circle cx="563.55" cy="400.62" r="3.2" fill="#1d4ed8"/>
<circle cx="566.35" cy="400.62" r="3.2" fill="#1d4ed8"/>
<circle cx="569.15" cy="399.41" r="3.2" fill="#1d4ed8"/>
<circle cx="571.95" cy="392.94" r="3.2" fill="#1d4ed8"/>
<circle cx="574.76" cy="391.32" r="3.2" fill="#1d4ed8"/>
<circle cx="577.56" cy="389.30" r="3.2" fill="#1d4ed8"/>
<circle cx="580.36" cy="389.30" r="3.2" fill="#1d4ed8"/>
<circle cx="583.16" cy="388.49" r="3.2" fill="#1d4ed8"/>
<circle cx="585.96" cy="375.15" r="3.2" fill="#1d4ed8"/>
<circle cx="588.77" cy="374.74" r="3.2" fill="#1d4ed8"/>
<circle cx="591.57" cy="374.74" r="3.2" fill="#1d4ed8"/>
<circle cx="594.37" cy="374.74" r="3.2" fill="#1d4ed8"/>
<circle cx="597.17" cy="374.74" r="3.2" fill="#1d4ed8"/>
<circle cx="599.97" cy="374.34" r="3.2" fill="#1d4ed8"/>
<circle cx="602.78" cy="374.34" r="3.2" fill="#1d4ed8"/>
<circle cx="605.58" cy="374.34" r="3.2" fill="#1d4ed8"/>
<circle cx="608.38" cy="374.34" r="3.2" fill="#1d4ed8"/>
<circle cx="611.18" cy="374.34" r="3.2" fill="#1d4ed8"/>
<circle cx="613.98" cy="373.93" r="3.2" fill="#1d4ed8"/>
<circle cx="616.79" cy="373.12" r="3.2" fill="#1d4ed8"/>
<circle cx="619.59" cy="372.72" r="3.2" fill="#1d4ed8"/>
<circle cx="622.39" cy="373.53" r="3.2" fill="#1d4ed8"/>
<circle cx="625.19" cy="435.81" r="3.2" fill="#1d4ed8"/>
<circle cx="627.99" cy="372.32" r="3.2" fill="#1d4ed8"/>
<circle cx="630.80" cy="372.72" r="3.2" fill="#1d4ed8"/>
<circle cx="633.60" cy="371.91" r="3.2" fill="#1d4ed8"/>
<circle cx="636.40" cy="371.91" r="3.2" fill="#1d4ed8"/>
<circle cx="639.20" cy="372.32" r="3.2" fill="#1d4ed8"/>
<circle cx="642.01" cy="371.10" r="3.2" fill="#1d4ed8"/>
<circle cx="644.81" cy="369.89" r="3.2" fill="#1d4ed8"/>
<circle cx="647.61" cy="369.89" r="3.2" fill="#1d4ed8"/>
<circle cx="650.41" cy="369.89" r="3.2" fill="#1d4ed8"/>
<circle cx="653.21" cy="369.49" r="3.2" fill="#1d4ed8"/>
<circle cx="656.02" cy="369.89" r="3.2" fill="#1d4ed8"/>
<circle cx="658.82" cy="369.08" r="3.2" fill="#1d4ed8"/>
<circle cx="661.62" cy="368.68" r="3.2" fill="#1d4ed8"/>
<circle cx="664.42" cy="368.27" r="3.2" fill="#1d4ed8"/>
<circle cx="667.22" cy="367.87" r="3.2" fill="#1d4ed8"/>
<circle cx="670.03" cy="367.06" r="3.2" fill="#1d4ed8"/>
<circle cx="672.83" cy="367.46" r="3.2" fill="#1d4ed8"/>
<circle cx="675.63" cy="367.06" r="3.2" fill="#1d4ed8"/>
<circle cx="678.43" cy="366.25" r="3.2" fill="#1d4ed8"/>
<circle cx="681.23" cy="368.27" r="3.2" fill="#1d4ed8"/>
<circle cx="684.04" cy="368.68" r="3.2" fill="#1d4ed8"/>
<circle cx="686.84" cy="368.68" r="3.2" fill="#1d4ed8"/>
<circle cx="689.64" cy="368.27" r="3.2" fill="#1d4ed8"/>
<circle cx="692.44" cy="369.08" r="3.2" fill="#1d4ed8"/>
<circle cx="695.24" cy="367.87" r="3.2" fill="#1d4ed8"/>
<circle cx="698.05" cy="367.46" r="3.2" fill="#1d4ed8"/>
<circle cx="700.85" cy="367.06" r="3.2" fill="#1d4ed8"/>
<circle cx="703.65" cy="360.18" r="3.2" fill="#1d4ed8"/>
<circle cx="706.45" cy="359.78" r="3.2" fill="#1d4ed8"/>
<circle cx="709.25" cy="359.38" r="3.2" fill="#1d4ed8"/>
<circle cx="712.06" cy="356.95" r="3.2" fill="#1d4ed8"/>
<circle cx="714.86" cy="357.35" r="3.2" fill="#1d4ed8"/>
<circle cx="717.66" cy="357.76" r="3.2" fill="#1d4ed8"/>
<circle cx="720.46" cy="355.33" r="3.2" fill="#1d4ed8"/>
<circle cx="723.26" cy="355.74" r="3.2" fill="#1d4ed8"/>
<circle cx="726.07" cy="357.35" r="3.2" fill="#1d4ed8"/>
<circle cx="728.87" cy="355.33" r="3.2" fill="#1d4ed8"/>
<circle cx="731.67" cy="356.14" r="3.2" fill="#1d4ed8"/>
<circle cx="734.47" cy="355.74" r="3.2" fill="#1d4ed8"/>
<circle cx="737.28" cy="356.14" r="3.2" fill="#1d4ed8"/>
<circle cx="740.08" cy="354.12" r="3.2" fill="#1d4ed8"/>
<circle cx="742.88" cy="354.93" r="3.2" fill="#1d4ed8"/>
<circle cx="745.68" cy="356.14" r="3.2" fill="#1d4ed8"/>
<circle cx="748.48" cy="354.52" r="3.2" fill="#1d4ed8"/>
<circle cx="751.29" cy="353.71" r="3.2" fill="#1d4ed8"/>
<circle cx="754.09" cy="354.12" r="3.2" fill="#1d4ed8"/>
<circle cx="756.89" cy="354.93" r="3.2" fill="#1d4ed8"/>
<circle cx="759.69" cy="352.90" r="3.2" fill="#1d4ed8"/>
<circle cx="762.49" cy="353.71" r="3.2" fill="#1d4ed8"/>
<circle cx="765.30" cy="353.31" r="3.2" fill="#1d4ed8"/>
<circle cx="768.10" cy="353.31" r="3.2" fill="#1d4ed8"/>
<circle cx="770.90" cy="354.52" r="3.2" fill="#1d4ed8"/>
<circle cx="773.70" cy="352.90" r="3.2" fill="#1d4ed8"/>
<circle cx="776.50" cy="352.50" r="3.2" fill="#1d4ed8"/>
<circle cx="779.31" cy="352.50" r="3.2" fill="#1d4ed8"/>
<circle cx="782.11" cy="353.31" r="3.2" fill="#1d4ed8"/>
<circle cx="784.91" cy="352.50" r="3.2" fill="#1d4ed8"/>
<circle cx="787.71" cy="353.71" r="3.2" fill="#1d4ed8"/>
<circle cx="790.51" cy="354.12" r="3.2" fill="#1d4ed8"/>
<circle cx="793.32" cy="352.50" r="3.2" fill="#1d4ed8"/>
<circle cx="796.12" cy="352.90" r="3.2" fill="#1d4ed8"/>
<circle cx="798.92" cy="352.50" r="3.2" fill="#1d4ed8"/>
<circle cx="801.72" cy="352.10" r="3.2" fill="#1d4ed8"/>
<circle cx="804.52" cy="351.69" r="3.2" fill="#1d4ed8"/>
<circle cx="807.33" cy="352.10" r="3.2" fill="#1d4ed8"/>
<circle cx="810.13" cy="354.12" r="3.2" fill="#1d4ed8"/>
<circle cx="812.93" cy="352.50" r="3.2" fill="#1d4ed8"/>
<circle cx="815.73" cy="352.10" r="3.2" fill="#1d4ed8"/>
<circle cx="818.53" cy="352.10" r="3.2" fill="#1d4ed8"/>
<circle cx="821.34" cy="349.67" r="3.2" fill="#1d4ed8"/>
<circle cx="824.14" cy="349.67" r="3.2" fill="#1d4ed8"/>
<circle cx="826.94" cy="350.88" r="3.2" fill="#1d4ed8"/>
<circle cx="829.74" cy="351.29" r="3.2" fill="#1d4ed8"/>
<circle cx="832.54" cy="350.48" r="3.2" fill="#1d4ed8"/>
<circle cx="835.35" cy="352.10" r="3.2" fill="#1d4ed8"/>
<circle cx="838.15" cy="350.48" r="3.2" fill="#1d4ed8"/>
<circle cx="840.95" cy="350.48" r="3.2" fill="#1d4ed8"/>
<circle cx="843.75" cy="350.48" r="3.2" fill="#1d4ed8"/>
<circle cx="846.56" cy="350.07" r="3.2" fill="#1d4ed8"/>
<circle cx="849.36" cy="348.46" r="3.2" fill="#1d4ed8"/>
<circle cx="852.16" cy="351.29" r="3.2" fill="#1d4ed8"/>
<circle cx="854.96" cy="349.67" r="3.2" fill="#1d4ed8"/>
<circle cx="857.76" cy="351.29" r="3.2" fill="#1d4ed8"/>
<circle cx="860.57" cy="349.67" r="3.2" fill="#1d4ed8"/>
<circle cx="863.37" cy="348.86" r="3.2" fill="#1d4ed8"/>
<circle cx="866.17" cy="348.46" r="3.2" fill="#1d4ed8"/>
<circle cx="868.97" cy="348.46" r="3.2" fill="#1d4ed8"/>
<circle cx="871.77" cy="347.24" r="3.2" fill="#1d4ed8"/>
<circle cx="874.58" cy="348.86" r="3.2" fill="#1d4ed8"/>
<circle cx="877.38" cy="346.84" r="3.2" fill="#1d4ed8"/>
<circle cx="880.18" cy="348.46" r="3.2" fill="#1d4ed8"/>
<circle cx="882.98" cy="348.86" r="3.2" fill="#1d4ed8"/>
<circle cx="885.78" cy="346.84" r="3.2" fill="#1d4ed8"/>
<circle cx="888.59" cy="349.26" r="3.2" fill="#1d4ed8"/>
<circle cx="891.39" cy="348.05" r="3.2" fill="#1d4ed8"/>
<circle cx="894.19" cy="349.26" r="3.2" fill="#1d4ed8"/>
<circle cx="896.99" cy="349.26" r="3.2" fill="#1d4ed8"/>
<circle cx="899.79" cy="350.48" r="3.2" fill="#1d4ed8"/>
<circle cx="902.60" cy="352.90" r="3.2" fill="#1d4ed8"/>
<circle cx="905.40" cy="349.67" r="3.2" fill="#1d4ed8"/>
<circle cx="908.20" cy="348.46" r="3.2" fill="#1d4ed8"/>
<circle cx="911.00" cy="345.62" r="3.2" fill="#1d4ed8"/>
<circle cx="913.80" cy="344.82" r="3.2" fill="#1d4ed8"/>
<circle cx="916.61" cy="344.41" r="3.2" fill="#1d4ed8"/>
<circle cx="919.41" cy="342.39" r="3.2" fill="#1d4ed8"/>
<circle cx="922.21" cy="341.18" r="3.2" fill="#1d4ed8"/>
<circle cx="925.01" cy="341.58" r="3.2" fill="#1d4ed8"/>
<circle cx="927.81" cy="339.15" r="3.2" fill="#1d4ed8"/>
<circle cx="930.62" cy="338.35" r="3.2" fill="#1d4ed8"/>
<circle cx="933.42" cy="337.54" r="3.2" fill="#1d4ed8"/>
<circle cx="936.22" cy="336.73" r="3.2" fill="#1d4ed8"/>
<circle cx="939.02" cy="335.92" r="3.2" fill="#1d4ed8"/>
<circle cx="941.83" cy="337.54" r="3.2" fill="#1d4ed8"/>
<circle cx="944.63" cy="338.35" r="3.2" fill="#1d4ed8"/>
<circle cx="947.43" cy="337.54" r="3.2" fill="#1d4ed8"/>
<circle cx="950.23" cy="337.54" r="3.2" fill="#1d4ed8"/>
<circle cx="953.03" cy="337.54" r="3.2" fill="#1d4ed8"/>
<circle cx="955.84" cy="333.09" r="3.2" fill="#1d4ed8"/>
<circle cx="958.64" cy="333.90" r="3.2" fill="#1d4ed8"/>
<circle cx="961.44" cy="335.92" r="3.2" fill="#1d4ed8"/>
<circle cx="964.24" cy="336.73" r="3.2" fill="#1d4ed8"/>
<circle cx="967.04" cy="335.51" r="3.2" fill="#1d4ed8"/>
<circle cx="969.85" cy="332.28" r="3.2" fill="#1d4ed8"/>
<circle cx="972.65" cy="331.47" r="3.2" fill="#1d4ed8"/>
<circle cx="975.45" cy="331.07" r="3.2" fill="#1d4ed8"/>
<circle cx="978.25" cy="331.47" r="3.2" fill="#1d4ed8"/>
<circle cx="981.05" cy="331.07" r="3.2" fill="#1d4ed8"/>
<circle cx="983.86" cy="331.07" r="3.2" fill="#1d4ed8"/>
<circle cx="986.66" cy="331.07" r="3.2" fill="#1d4ed8"/>
<circle cx="989.46" cy="331.07" r="3.2" fill="#1d4ed8"/>
<circle cx="992.26" cy="331.07" r="3.2" fill="#1d4ed8"/>
<circle cx="995.06" cy="331.07" r="3.2" fill="#1d4ed8"/>
<circle cx="997.87" cy="331.07" r="3.2" fill="#1d4ed8"/>
<circle cx="1000.67" cy="331.07" r="3.2" fill="#1d4ed8"/>
<circle cx="1003.47" cy="331.07" r="3.2" fill="#1d4ed8"/>
<circle cx="1006.27" cy="331.07" r="3.2" fill="#1d4ed8"/>
<circle cx="1009.07" cy="331.47" r="3.2" fill="#1d4ed8"/>
<circle cx="1011.88" cy="331.88" r="3.2" fill="#1d4ed8"/>
<circle cx="1014.68" cy="331.07" r="3.2" fill="#1d4ed8"/>
<circle cx="1017.48" cy="331.47" r="3.2" fill="#1d4ed8"/>
<circle cx="1020.28" cy="331.07" r="3.2" fill="#1d4ed8"/>
<circle cx="1023.08" cy="331.47" r="3.2" fill="#1d4ed8"/>
<circle cx="1025.89" cy="331.07" r="3.2" fill="#1d4ed8"/>
<circle cx="1028.69" cy="324.19" r="3.2" fill="#1d4ed8"/>
<circle cx="1031.49" cy="324.19" r="3.2" fill="#1d4ed8"/>
<circle cx="1034.29" cy="318.93" r="3.2" fill="#1d4ed8"/>
<circle cx="1037.10" cy="316.51" r="3.2" fill="#1d4ed8"/>
<circle cx="1039.90" cy="310.44" r="3.2" fill="#1d4ed8"/>
<circle cx="1042.70" cy="308.01" r="3.2" fill="#1d4ed8"/>
<circle cx="1045.50" cy="600.00" r="3.2" fill="#1d4ed8"/>
<circle cx="1048.30" cy="301.54" r="3.2" fill="#1d4ed8"/>
<circle cx="1051.11" cy="290.22" r="3.2" fill="#1d4ed8"/>
<circle cx="1053.91" cy="287.79" r="3.2" fill="#1d4ed8"/>
<circle cx="1056.71" cy="286.18" r="3.2" fill="#1d4ed8"/>
<circle cx="1059.51" cy="285.77" r="3.2" fill="#1d4ed8"/>
<circle cx="1062.31" cy="285.77" r="3.2" fill="#1d4ed8"/>
<circle cx="1065.12" cy="285.77" r="3.2" fill="#1d4ed8"/>
<circle cx="1067.92" cy="286.18" r="3.2" fill="#1d4ed8"/>
<circle cx="1070.72" cy="285.77" r="3.2" fill="#1d4ed8"/>
<circle cx="1073.52" cy="285.77" r="3.2" fill="#1d4ed8"/>
<circle cx="1076.32" cy="285.77" r="3.2" fill="#1d4ed8"/>
<circle cx="1079.13" cy="283.35" r="3.2" fill="#1d4ed8"/>
<circle cx="1081.93" cy="282.94" r="3.2" fill="#1d4ed8"/>
<circle cx="1084.73" cy="282.94" r="3.2" fill="#1d4ed8"/>
<circle cx="1087.53" cy="283.35" r="3.2" fill="#1d4ed8"/>
<circle cx="1090.33" cy="282.94" r="3.2" fill="#1d4ed8"/>
<circle cx="1093.14" cy="282.94" r="3.2" fill="#1d4ed8"/>
<circle cx="1095.94" cy="283.75" r="3.2" fill="#1d4ed8"/>
<circle cx="1098.74" cy="282.13" r="3.2" fill="#1d4ed8"/>
<circle cx="1101.54" cy="282.13" r="3.2" fill="#1d4ed8"/>
<circle cx="1104.34" cy="282.54" r="3.2" fill="#1d4ed8"/>
<circle cx="1107.15" cy="282.13" r="3.2" fill="#1d4ed8"/>
<circle cx="1109.95" cy="282.54" r="3.2" fill="#1d4ed8"/>
<circle cx="1112.75" cy="282.94" r="3.2" fill="#1d4ed8"/>
<circle cx="1115.55" cy="281.73" r="3.2" fill="#1d4ed8"/>
<circle cx="1118.35" cy="282.54" r="3.2" fill="#1d4ed8"/>
<circle cx="1121.16" cy="281.73" r="3.2" fill="#1d4ed8"/>
<circle cx="1123.96" cy="282.54" r="3.2" fill="#1d4ed8"/>
<circle cx="1126.76" cy="282.13" r="3.2" fill="#1d4ed8"/>
<circle cx="1129.56" cy="282.13" r="3.2" fill="#1d4ed8"/>
<circle cx="1132.37" cy="281.73" r="3.2" fill="#1d4ed8"/>
<circle cx="1135.17" cy="281.73" r="3.2" fill="#1d4ed8"/>
<circle cx="1137.97" cy="281.32" r="3.2" fill="#1d4ed8"/>
<circle cx="1140.77" cy="281.73" r="3.2" fill="#1d4ed8"/>
<circle cx="1143.57" cy="282.13" r="3.2" fill="#1d4ed8"/>
<circle cx="1146.38" cy="281.32" r="3.2" fill="#1d4ed8"/>
<circle cx="1149.18" cy="281.32" r="3.2" fill="#1d4ed8"/>
<circle cx="1151.98" cy="282.54" r="3.2" fill="#1d4ed8"/>
<circle cx="1154.78" cy="282.13" r="3.2" fill="#1d4ed8"/>
<circle cx="1157.58" cy="281.32" r="3.2" fill="#1d4ed8"/>
<circle cx="1160.39" cy="281.32" r="3.2" fill="#1d4ed8"/>
<circle cx="1163.19" cy="281.32" r="3.2" fill="#1d4ed8"/>
<circle cx="1165.99" cy="282.54" r="3.2" fill="#1d4ed8"/>
<circle cx="1168.79" cy="282.13" r="3.2" fill="#1d4ed8"/>
<circle cx="1171.59" cy="281.32" r="3.2" fill="#1d4ed8"/>
<circle cx="1174.40" cy="282.13" r="3.2" fill="#1d4ed8"/>
<circle cx="1177.20" cy="281.73" r="3.2" fill="#1d4ed8"/>
<circle cx="1180.00" cy="282.13" r="3.2" fill="#1d4ed8"/>
<text x="635" y="695" text-anchor="middle" font-size="14" fill="#111" font-family="sans-serif">Date</text>
<text x="24" y="325" text-anchor="middle" font-size="14" fill="#111" transform="rotate(-90 24,325)" font-family="sans-serif">Passed files</text>
</svg>
