<?xml version="1.0" encoding="UTF-8"?>
<svg xmlns="http://www.w3.org/2000/svg" width="1280" height="720" viewBox="0 0 1280 720">
<rect width="100%" height="100%" fill="#ffffff"/>
<text x="640" y="30" text-anchor="middle" font-size="22" font-family="sans-serif">Roast passed files history</text>
<line x1="90" y1="600" x2="1180" y2="600" stroke="#333" stroke-width="1.5"/>
<line x1="90" y1="50" x2="90" y2="600" stroke="#333" stroke-width="1.5"/>
<line x1="90" y1="600.00" x2="1180" y2="600.00" stroke="#e5e7eb" stroke-width="1"/>
<text x="78" y="605.00" text-anchor="end" font-size="12" fill="#111" font-family="sans-serif">0</text>
<line x1="90" y1="397.79" x2="1180" y2="397.79" stroke="#e5e7eb" stroke-width="1"/>
<text x="78" y="402.79" text-anchor="end" font-size="12" fill="#111" font-family="sans-serif">500</text>
<line x1="90" y1="195.59" x2="1180" y2="195.59" stroke="#e5e7eb" stroke-width="1"/>
<text x="78" y="200.59" text-anchor="end" font-size="12" fill="#111" font-family="sans-serif">1000</text>
<line x1="90.00" y1="600" x2="90.00" y2="606" stroke="#333" stroke-width="1"/>
<text x="90.00" y="624" text-anchor="end" font-size="11" fill="#111" transform="rotate(-40 90.00,624)" font-family="sans-serif">2026-02-12</text>
<line x1="224.65" y1="600" x2="224.65" y2="606" stroke="#333" stroke-width="1"/>
<text x="224.65" y="624" text-anchor="end" font-size="11" fill="#111" transform="rotate(-40 224.65,624)" font-family="sans-serif">2026-02-19</text>
<line x1="359.29" y1="600" x2="359.29" y2="606" stroke="#333" stroke-width="1"/>
<text x="359.29" y="624" text-anchor="end" font-size="11" fill="#111" transform="rotate(-40 359.29,624)" font-family="sans-serif">2026-02-25</text>
<line x1="493.94" y1="600" x2="493.94" y2="606" stroke="#333" stroke-width="1"/>
<text x="493.94" y="624" text-anchor="end" font-size="11" fill="#111" transform="rotate(-40 493.94,624)" font-family="sans-serif">2026-02-28</text>
<line x1="628.59" y1="600" x2="628.59" y2="606" stroke="#333" stroke-width="1"/>
<text x="628.59" y="624" text-anchor="end" font-size="11" fill="#111" transform="rotate(-40 628.59,624)" font-family="sans-serif">2026-03-06</text>
<line x1="763.24" y1="600" x2="763.24" y2="606" stroke="#333" stroke-width="1"/>
<text x="763.24" y="624" text-anchor="end" font-size="11" fill="#111" transform="rotate(-40 763.24,624)" font-family="sans-serif">2026-03-11</text>
<line x1="897.88" y1="600" x2="897.88" y2="606" stroke="#333" stroke-width="1"/>
<text x="897.88" y="624" text-anchor="end" font-size="11" fill="#111" transform="rotate(-40 897.88,624)" font-family="sans-serif">2026-03-19</text>
<line x1="1032.53" y1="600" x2="1032.53" y2="606" stroke="#333" stroke-width="1"/>
<text x="1032.53" y="624" text-anchor="end" font-size="11" fill="#111" transform="rotate(-40 1032.53,624)" font-family="sans-serif">2026-03-26</text>
<line x1="1167.18" y1="600" x2="1167.18" y2="606" stroke="#333" stroke-width="1"/>
<text x="1167.18" y="624" text-anchor="end" font-size="11" fill="#111" transform="rotate(-40 1167.18,624)" font-family="sans-serif">2026-04-10</text>
<line x1="1180.00" y1="600" x2="1180.00" y2="606" stroke="#333" stroke-width="1"/>
<text x="1180.00" y="624" text-anchor="end" font-size="11" fill="#111" transform="rotate(-40 1180.00,624)" font-family="sans-serif">2026-05-03</text>
<line x1="90" y1="75.88" x2="1180" y2="75.88" stroke="#dc2626" stroke-width="1.5" stroke-dasharray="8,4"/>
<text x="1184" y="79.88" font-size="12" fill="#dc2626" font-family="sans-serif">Goal: 1296</text>
<polyline fill="none" stroke="#2563eb" stroke-width="3" points="90.00,540.55 92.14,538.53 94.27,536.91 96.41,534.49 98.55,534.49 100.69,533.27 102.82,532.46 104.96,532.87 107.10,532.06 109.24,532.46 111.37,532.06 113.51,568.46 115.65,568.46 117.78,566.43 119.92,545.00 122.06,545.00 124.20,544.19 126.33,543.79 128.47,543.79 130.61,543.38 132.75,541.76 134.88,541.36 137.02,540.96 139.16,540.96 141.29,539.34 143.43,539.34 145.57,556.73 147.71,556.73 149.84,555.51 151.98,551.07 154.12,538.93 156.25,538.93 158.39,538.93 160.53,538.12 162.67,536.91 164.80,536.91 166.94,536.51 169.08,536.51 171.22,556.73 173.35,556.73 175.49,556.73 177.63,556.73 179.76,535.29 181.90,535.29 184.04,535.29 186.18,535.29 188.31,534.49 190.45,534.08 192.59,533.68 194.73,532.87 196.86,532.06 199.00,532.06 201.14,531.25 203.27,530.85 205.41,530.44 207.55,530.04 209.69,530.04 211.82,529.23 213.96,529.23 216.10,529.23 218.24,528.42 220.37,528.42 222.51,527.61 224.65,527.21 226.78,526.80 228.92,526.40 231.06,525.18 233.20,523.57 235.33,523.57 237.47,523.16 239.61,522.76 241.75,522.35 243.88,521.54 246.02,519.52 248.16,517.50 250.29,517.50 252.43,517.50 254.57,517.50 256.71,517.50 258.84,517.50 260.98,517.10 263.12,516.69 265.25,515.48 267.39,515.07 269.53,514.67 271.67,513.86 273.80,514.26 275.94,512.24 278.08,511.84 280.22,511.84 282.35,511.03 284.49,509.82 286.63,507.79 288.76,506.99 290.90,506.58 293.04,509.41 295.18,509.01 297.31,504.96 299.45,504.56 301.59,504.15 303.73,504.56 305.86,503.75 308.00,503.75 310.14,503.35 312.27,499.30 314.41,496.47 316.55,490.00 318.69,484.34 320.82,481.10 322.96,480.29 325.10,480.70 327.24,460.88 329.37,459.26 331.51,458.05 333.65,456.03 335.78,456.03 337.92,454.41 340.06,450.77 342.20,444.30 344.33,443.90 346.47,600.00 348.61,441.88 350.75,440.66 352.88,439.45 355.02,439.04 357.16,438.64 359.29,437.83 361.43,436.62 363.57,436.62 365.71,434.60 367.84,432.17 369.98,429.34 372.12,428.93 374.25,428.53 376.39,427.72 378.53,426.91 380.67,426.10 382.80,426.10 384.94,426.10 387.08,419.63 389.22,419.23 391.35,418.42 393.49,418.01 395.63,417.61 397.76,417.61 399.90,417.61 402.04,417.21 404.18,417.21 406.31,413.57 408.45,411.95 410.59,412.76 412.73,410.74 414.86,410.74 417.00,410.33 419.14,410.33 421.27,410.33 423.41,409.93 425.55,409.93 427.69,409.93 429.82,409.52 431.96,409.52 434.10,409.12 436.24,409.52 438.37,409.12 440.51,407.50 442.65,407.10 444.78,403.05 446.92,399.82 449.06,400.22 451.20,400.62 453.33,400.62 455.47,399.41 457.61,392.94 459.75,391.32 461.88,389.30 464.02,389.30 466.16,388.49 468.29,375.15 470.43,374.74 472.57,374.74 474.71,374.74 476.84,374.74 478.98,374.34 481.12,374.34 483.25,374.34 485.39,374.34 487.53,374.34 489.67,373.93 491.80,373.12 493.94,372.72 496.08,373.53 498.22,435.81 500.35,372.32 502.49,372.72 504.63,371.91 506.76,371.91 508.90,372.32 511.04,371.10 513.18,369.89 515.31,369.89 517.45,369.89 519.59,369.49 521.73,369.89 523.86,369.08 526.00,368.68 528.14,368.27 530.27,367.87 532.41,367.06 534.55,367.46 536.69,367.06 538.82,366.25 540.96,368.27 543.10,368.68 545.24,368.68 547.37,368.27 549.51,369.08 551.65,367.87 553.78,367.46 555.92,367.06 558.06,360.18 560.20,359.78 562.33,359.38 564.47,356.95 566.61,357.35 568.75,357.76 570.88,355.33 573.02,355.74 575.16,357.35 577.29,355.33 579.43,356.14 581.57,355.74 583.71,356.14 585.84,354.12 587.98,354.93 590.12,356.14 592.25,354.52 594.39,353.71 596.53,354.12 598.67,354.93 600.80,352.90 602.94,353.71 605.08,353.31 607.22,353.31 609.35,354.52 611.49,352.90 613.63,352.50 615.76,352.50 617.90,353.31 620.04,352.50 622.18,353.71 624.31,354.12 626.45,352.50 628.59,352.90 630.73,352.50 632.86,352.10 635.00,351.69 637.14,352.10 639.27,354.12 641.41,352.50 643.55,352.10 645.69,352.10 647.82,349.67 649.96,349.67 652.10,350.88 654.24,351.29 656.37,350.48 658.51,352.10 660.65,350.48 662.78,350.48 664.92,350.48 667.06,350.07 669.20,348.46 671.33,351.29 673.47,349.67 675.61,351.29 677.75,349.67 679.88,348.86 682.02,348.46 684.16,348.46 686.29,347.24 688.43,348.86 690.57,346.84 692.71,348.46 694.84,348.86 696.98,346.84 699.12,349.26 701.25,348.05 703.39,349.26 705.53,349.26 707.67,350.48 709.80,352.90 711.94,349.67 714.08,348.46 716.22,345.62 718.35,344.82 720.49,344.41 722.63,342.39 724.76,341.18 726.90,341.58 729.04,339.15 731.18,338.35 733.31,337.54 735.45,336.73 737.59,335.92 739.73,337.54 741.86,338.35 744.00,337.54 746.14,337.54 748.27,337.54 750.41,333.09 752.55,333.90 754.69,335.92 756.82,336.73 758.96,335.51 761.10,332.28 763.24,331.47 765.37,331.07 767.51,331.47 769.65,331.07 771.78,331.07 773.92,331.07 776.06,331.07 778.20,331.07 780.33,331.07 782.47,331.07 784.61,331.07 786.75,331.07 788.88,331.07 791.02,331.47 793.16,331.88 795.29,331.07 797.43,331.47 799.57,331.07 801.71,331.47 803.84,331.07 805.98,324.19 808.12,324.19 810.25,318.93 812.39,316.51 814.53,310.44 816.67,308.01 818.80,600.00 820.94,301.54 823.08,290.22 825.22,287.79 827.35,286.18 829.49,285.77 831.63,285.77 833.76,285.77 835.90,286.18 838.04,285.77 840.18,285.77 842.31,285.77 844.45,283.35 846.59,282.94 848.73,282.94 850.86,283.35 853.00,282.94 855.14,282.94 857.27,283.75 859.41,282.13 861.55,282.13 863.69,282.54 865.82,282.13 867.96,282.54 870.10,282.94 872.24,281.73 874.37,282.54 876.51,281.73 878.65,282.54 880.78,282.13 882.92,282.13 885.06,281.73 887.20,281.73 889.33,281.32 891.47,281.73 893.61,282.13 895.75,281.32 897.88,281.32 900.02,282.54 902.16,282.13 904.29,281.32 906.43,281.32 908.57,281.32 910.71,282.54 912.84,282.13 914.98,281.32 917.12,282.13 919.25,281.73 921.39,282.13 923.53,280.11 925.67,280.11 927.80,280.51 929.94,279.71 932.08,280.11 934.22,280.51 936.35,279.71 938.49,280.11 940.63,280.11 942.76,279.30 944.90,278.90 947.04,278.90 949.18,280.51 951.31,279.30 953.45,278.09 955.59,278.49 957.73,278.49 959.86,277.28 962.00,277.68 964.14,277.68 966.27,278.09 968.41,277.28 970.55,600.00 972.69,278.90 974.82,279.30 976.96,278.90 979.10,278.49 981.24,278.49 983.37,278.49 985.51,278.49 987.65,278.49 989.78,278.49 991.92,278.49 994.06,278.49 996.20,278.49 998.33,278.49 1000.47,278.49 1002.61,278.49 1004.75,600.00 1006.88,600.00 1009.02,254.63 1011.16,600.00 1013.29,245.74 1015.43,245.74 1017.57,246.14 1019.71,245.74 1021.84,245.74 1023.98,245.74 1026.12,245.74 1028.25,245.74 1030.39,240.07 1032.53,238.05 1034.67,238.05 1036.80,227.13 1038.94,227.13 1041.08,226.32 1043.22,227.54 1045.35,226.73 1047.49,226.32 1049.63,227.13 1051.76,227.13 1053.90,226.73 1056.04,226.32 1058.18,226.73 1060.31,226.73 1062.45,226.73 1064.59,225.11 1066.73,224.71 1068.86,225.11 1071.00,224.30 1073.14,226.32 1075.27,224.30 1077.41,225.51 1079.55,225.51 1081.69,225.51 1083.82,225.92 1085.96,223.09 1088.10,223.49 1090.24,223.09 1092.37,223.09 1094.51,223.90 1096.65,223.49 1098.78,223.49 1100.92,223.09 1103.06,223.09 1105.20,223.49 1107.33,223.09 1109.47,223.09 1111.61,223.49 1113.75,223.49 1115.88,223.09 1118.02,223.09 1120.16,223.49 1122.29,223.09 1124.43,223.09 1126.57,223.09 1128.71,223.49 1130.84,223.49 1132.98,223.49 1135.12,223.09 1137.25,223.49 1139.39,223.09 1141.53,223.09 1143.67,223.49 1145.80,223.09 1147.94,223.09 1150.08,223.49 1152.22,222.68 1154.35,221.88 1156.49,223.49 1158.63,223.09 1160.76,223.49 1162.90,224.30 1165.04,201.65 1167.18,201.65 1169.31,186.69 1171.45,176.18 1173.59,174.15 1175.73,172.94 1177.86,172.94 1180.00,162.02"/>
<circle cx="90.00" cy="540.55" r="3.2" fill="#1d4ed8"/>
<circle cx="92.14" cy="538.53" r="3.2" fill="#1d4ed8"/>
<circle cx="94.27" cy="536.91" r="3.2" fill="#1d4ed8"/>
<circle cx="96.41" cy="534.49" r="3.2" fill="#1d4ed8"/>
<circle cx="98.55" cy="534.49" r="3.2" fill="#1d4ed8"/>
<circle cx="100.69" cy="533.27" r="3.2" fill="#1d4ed8"/>
<circle cx="102.82" cy="532.46" r="3.2" fill="#1d4ed8"/>
<circle cx="104.96" cy="532.87" r="3.2" fill="#1d4ed8"/>
<circle cx="107.10" cy="532.06" r="3.2" fill="#1d4ed8"/>
<circle cx="109.24" cy="532.46" r="3.2" fill="#1d4ed8"/>
<circle cx="111.37" cy="532.06" r="3.2" fill="#1d4ed8"/>
<circle cx="113.51" cy="568.46" r="3.2" fill="#1d4ed8"/>
<circle cx="115.65" cy="568.46" r="3.2" fill="#1d4ed8"/>
<circle cx="117.78" cy="566.43" r="3.2" fill="#1d4ed8"/>
<circle cx="119.92" cy="545.00" r="3.2" fill="#1d4ed8"/>
<circle cx="122.06" cy="545.00" r="3.2" fill="#1d4ed8"/>
<circle cx="124.20" cy="544.19" r="3.2" fill="#1d4ed8"/>
<circle cx="126.33" cy="543.79" r="3.2" fill="#1d4ed8"/>
<circle cx="128.47" cy="543.79" r="3.2" fill="#1d4ed8"/>
<circle cx="130.61" cy="543.38" r="3.2" fill="#1d4ed8"/>
<circle cx="132.75" cy="541.76" r="3.2" fill="#1d4ed8"/>
<circle cx="134.88" cy="541.36" r="3.2" fill="#1d4ed8"/>
<circle cx="137.02" cy="540.96" r="3.2" fill="#1d4ed8"/>
<circle cx="139.16" cy="540.96" r="3.2" fill="#1d4ed8"/>
<circle cx="141.29" cy="539.34" r="3.2" fill="#1d4ed8"/>
<circle cx="143.43" cy="539.34" r="3.2" fill="#1d4ed8"/>
<circle cx="145.57" cy="556.73" r="3.2" fill="#1d4ed8"/>
<circle cx="147.71" cy="556.73" r="3.2" fill="#1d4ed8"/>
<circle cx="149.84" cy="555.51" r="3.2" fill="#1d4ed8"/>
<circle cx="151.98" cy="551.07" r="3.2" fill="#1d4ed8"/>
<circle cx="154.12" cy="538.93" r="3.2" fill="#1d4ed8"/>
<circle cx="156.25" cy="538.93" r="3.2" fill="#1d4ed8"/>
<circle cx="158.39" cy="538.93" r="3.2" fill="#1d4ed8"/>
<circle cx="160.53" cy="538.12" r="3.2" fill="#1d4ed8"/>
<circle cx="162.67" cy="536.91" r="3.2" fill="#1d4ed8"/>
<circle cx="164.80" cy="536.91" r="3.2" fill="#1d4ed8"/>
<circle cx="166.94" cy="536.51" r="3.2" fill="#1d4ed8"/>
<circle cx="169.08" cy="536.51" r="3.2" fill="#1d4ed8"/>
<circle cx="171.22" cy="556.73" r="3.2" fill="#1d4ed8"/>
<circle cx="173.35" cy="556.73" r="3.2" fill="#1d4ed8"/>
<circle cx="175.49" cy="556.73" r="3.2" fill="#1d4ed8"/>
<circle cx="177.63" cy="556.73" r="3.2" fill="#1d4ed8"/>
<circle cx="179.76" cy="535.29" r="3.2" fill="#1d4ed8"/>
<circle cx="181.90" cy="535.29" r="3.2" fill="#1d4ed8"/>
<circle cx="184.04" cy="535.29" r="3.2" fill="#1d4ed8"/>
<circle cx="186.18" cy="535.29" r="3.2" fill="#1d4ed8"/>
<circle cx="188.31" cy="534.49" r="3.2" fill="#1d4ed8"/>
<circle cx="190.45" cy="534.08" r="3.2" fill="#1d4ed8"/>
<circle cx="192.59" cy="533.68" r="3.2" fill="#1d4ed8"/>
<circle cx="194.73" cy="532.87" r="3.2" fill="#1d4ed8"/>
<circle cx="196.86" cy="532.06" r="3.2" fill="#1d4ed8"/>
<circle cx="199.00" cy="532.06" r="3.2" fill="#1d4ed8"/>
<circle cx="201.14" cy="531.25" r="3.2" fill="#1d4ed8"/>
<circle cx="203.27" cy="530.85" r="3.2" fill="#1d4ed8"/>
<circle cx="205.41" cy="530.44" r="3.2" fill="#1d4ed8"/>
<circle cx="207.55" cy="530.04" r="3.2" fill="#1d4ed8"/>
<circle cx="209.69" cy="530.04" r="3.2" fill="#1d4ed8"/>
<circle cx="211.82" cy="529.23" r="3.2" fill="#1d4ed8"/>
<circle cx="213.96" cy="529.23" r="3.2" fill="#1d4ed8"/>
<circle cx="216.10" cy="529.23" r="3.2" fill="#1d4ed8"/>
<circle cx="218.24" cy="528.42" r="3.2" fill="#1d4ed8"/>
<circle cx="220.37" cy="528.42" r="3.2" fill="#1d4ed8"/>
<circle cx="222.51" cy="527.61" r="3.2" fill="#1d4ed8"/>
<circle cx="224.65" cy="527.21" r="3.2" fill="#1d4ed8"/>
<circle cx="226.78" cy="526.80" r="3.2" fill="#1d4ed8"/>
<circle cx="228.92" cy="526.40" r="3.2" fill="#1d4ed8"/>
<circle cx="231.06" cy="525.18" r="3.2" fill="#1d4ed8"/>
<circle cx="233.20" cy="523.57" r="3.2" fill="#1d4ed8"/>
<circle cx="235.33" cy="523.57" r="3.2" fill="#1d4ed8"/>
<circle cx="237.47" cy="523.16" r="3.2" fill="#1d4ed8"/>
<circle cx="239.61" cy="522.76" r="3.2" fill="#1d4ed8"/>
<circle cx="241.75" cy="522.35" r="3.2" fill="#1d4ed8"/>
<circle cx="243.88" cy="521.54" r="3.2" fill="#1d4ed8"/>
<circle cx="246.02" cy="519.52" r="3.2" fill="#1d4ed8"/>
<circle cx="248.16" cy="517.50" r="3.2" fill="#1d4ed8"/>
<circle cx="250.29" cy="517.50" r="3.2" fill="#1d4ed8"/>
<circle cx="252.43" cy="517.50" r="3.2" fill="#1d4ed8"/>
<circle cx="254.57" cy="517.50" r="3.2" fill="#1d4ed8"/>
<circle cx="256.71" cy="517.50" r="3.2" fill="#1d4ed8"/>
<circle cx="258.84" cy="517.50" r="3.2" fill="#1d4ed8"/>
<circle cx="260.98" cy="517.10" r="3.2" fill="#1d4ed8"/>
<circle cx="263.12" cy="516.69" r="3.2" fill="#1d4ed8"/>
<circle cx="265.25" cy="515.48" r="3.2" fill="#1d4ed8"/>
<circle cx="267.39" cy="515.07" r="3.2" fill="#1d4ed8"/>
<circle cx="269.53" cy="514.67" r="3.2" fill="#1d4ed8"/>
<circle cx="271.67" cy="513.86" r="3.2" fill="#1d4ed8"/>
<circle cx="273.80" cy="514.26" r="3.2" fill="#1d4ed8"/>
<circle cx="275.94" cy="512.24" r="3.2" fill="#1d4ed8"/>
<circle cx="278.08" cy="511.84" r="3.2" fill="#1d4ed8"/>
<circle cx="280.22" cy="511.84" r="3.2" fill="#1d4ed8"/>
<circle cx="282.35" cy="511.03" r="3.2" fill="#1d4ed8"/>
<circle cx="284.49" cy="509.82" r="3.2" fill="#1d4ed8"/>
<circle cx="286.63" cy="507.79" r="3.2" fill="#1d4ed8"/>
<circle cx="288.76" cy="506.99" r="3.2" fill="#1d4ed8"/>
<circle cx="290.90" cy="506.58" r="3.2" fill="#1d4ed8"/>
<circle cx="293.04" cy="509.41" r="3.2" fill="#1d4ed8"/>
<circle cx="295.18" cy="509.01" r="3.2" fill="#1d4ed8"/>
<circle cx="297.31" cy="504.96" r="3.2" fill="#1d4ed8"/>
<circle cx="299.45" cy="504.56" r="3.2" fill="#1d4ed8"/>
<circle cx="301.59" cy="504.15" r="3.2" fill="#1d4ed8"/>
<circle cx="303.73" cy="504.56" r="3.2" fill="#1d4ed8"/>
<circle cx="305.86" cy="503.75" r="3.2" fill="#1d4ed8"/>
<circle cx="308.00" cy="503.75" r="3.2" fill="#1d4ed8"/>
<circle cx="310.14" cy="503.35" r="3.2" fill="#1d4ed8"/>
<circle cx="312.27" cy="499.30" r="3.2" fill="#1d4ed8"/>
<circle cx="314.41" cy="496.47" r="3.2" fill="#1d4ed8"/>
<circle cx="316.55" cy="490.00" r="3.2" fill="#1d4ed8"/>
<circle cx="318.69" cy="484.34" r="3.2" fill="#1d4ed8"/>
<circle cx="320.82" cy="481.10" r="3.2" fill="#1d4ed8"/>
<circle cx="322.96" cy="480.29" r="3.2" fill="#1d4ed8"/>
<circle cx="325.10" cy="480.70" r="3.2" fill="#1d4ed8"/>
<circle cx="327.24" cy="460.88" r="3.2" fill="#1d4ed8"/>
<circle cx="329.37" cy="459.26" r="3.2" fill="#1d4ed8"/>
<circle cx="331.51" cy="458.05" r="3.2" fill="#1d4ed8"/>
<circle cx="333.65" cy="456.03" r="3.2" fill="#1d4ed8"/>
<circle cx="335.78" cy="456.03" r="3.2" fill="#1d4ed8"/>
<circle cx="337.92" cy="454.41" r="3.2" fill="#1d4ed8"/>
<circle cx="340.06" cy="450.77" r="3.2" fill="#1d4ed8"/>
<circle cx="342.20" cy="444.30" r="3.2" fill="#1d4ed8"/>
<circle cx="344.33" cy="443.90" r="3.2" fill="#1d4ed8"/>
<circle cx="346.47" cy="600.00" r="3.2" fill="#1d4ed8"/>
<circle cx="348.61" cy="441.88" r="3.2" fill="#1d4ed8"/>
<circle cx="350.75" cy="440.66" r="3.2" fill="#1d4ed8"/>
<circle cx="352.88" cy="439.45" r="3.2" fill="#1d4ed8"/>
<circle cx="355.02" cy="439.04" r="3.2" fill="#1d4ed8"/>
<circle cx="357.16" cy="438.64" r="3.2" fill="#1d4ed8"/>
<circle cx="359.29" cy="437.83" r="3.2" fill="#1d4ed8"/>
<circle cx="361.43" cy="436.62" r="3.2" fill="#1d4ed8"/>
<circle cx="363.57" cy="436.62" r="3.2" fill="#1d4ed8"/>
<circle cx="365.71" cy="434.60" r="3.2" fill="#1d4ed8"/>
<circle cx="367.84" cy="432.17" r="3.2" fill="#1d4ed8"/>
<circle cx="369.98" cy="429.34" r="3.2" fill="#1d4ed8"/>
<circle cx="372.12" cy="428.93" r="3.2" fill="#1d4ed8"/>
<circle cx="374.25" cy="428.53" r="3.2" fill="#1d4ed8"/>
<circle cx="376.39" cy="427.72" r="3.2" fill="#1d4ed8"/>
<circle cx="378.53" cy="426.91" r="3.2" fill="#1d4ed8"/>
<circle cx="380.67" cy="426.10" r="3.2" fill="#1d4ed8"/>
<circle cx="382.80" cy="426.10" r="3.2" fill="#1d4ed8"/>
<circle cx="384.94" cy="426.10" r="3.2" fill="#1d4ed8"/>
<circle cx="387.08" cy="419.63" r="3.2" fill="#1d4ed8"/>
<circle cx="389.22" cy="419.23" r="3.2" fill="#1d4ed8"/>
<circle cx="391.35" cy="418.42" r="3.2" fill="#1d4ed8"/>
<circle cx="393.49" cy="418.01" r="3.2" fill="#1d4ed8"/>
<circle cx="395.63" cy="417.61" r="3.2" fill="#1d4ed8"/>
<circle cx="397.76" cy="417.61" r="3.2" fill="#1d4ed8"/>
<circle cx="399.90" cy="417.61" r="3.2" fill="#1d4ed8"/>
<circle cx="402.04" cy="417.21" r="3.2" fill="#1d4ed8"/>
<circle cx="404.18" cy="417.21" r="3.2" fill="#1d4ed8"/>
<circle cx="406.31" cy="413.57" r="3.2" fill="#1d4ed8"/>
<circle cx="408.45" cy="411.95" r="3.2" fill="#1d4ed8"/>
<circle cx="410.59" cy="412.76" r="3.2" fill="#1d4ed8"/>
<circle cx="412.73" cy="410.74" r="3.2" fill="#1d4ed8"/>
<circle cx="414.86" cy="410.74" r="3.2" fill="#1d4ed8"/>
<circle cx="417.00" cy="410.33" r="3.2" fill="#1d4ed8"/>
<circle cx="419.14" cy="410.33" r="3.2" fill="#1d4ed8"/>
<circle cx="421.27" cy="410.33" r="3.2" fill="#1d4ed8"/>
<circle cx="423.41" cy="409.93" r="3.2" fill="#1d4ed8"/>
<circle cx="425.55" cy="409.93" r="3.2" fill="#1d4ed8"/>
<circle cx="427.69" cy="409.93" r="3.2" fill="#1d4ed8"/>
<circle cx="429.82" cy="409.52" r="3.2" fill="#1d4ed8"/>
<circle cx="431.96" cy="409.52" r="3.2" fill="#1d4ed8"/>
<circle cx="434.10" cy="409.12" r="3.2" fill="#1d4ed8"/>
<circle cx="436.24" cy="409.52" r="3.2" fill="#1d4ed8"/>
<circle cx="438.37" cy="409.12" r="3.2" fill="#1d4ed8"/>
<circle cx="440.51" cy="407.50" r="3.2" fill="#1d4ed8"/>
<circle cx="442.65" cy="407.10" r="3.2" fill="#1d4ed8"/>
<circle cx="444.78" cy="403.05" r="3.2" fill="#1d4ed8"/>
<circle cx="446.92" cy="399.82" r="3.2" fill="#1d4ed8"/>
<circle cx="449.06" cy="400.22" r="3.2" fill="#1d4ed8"/>
<circle cx="451.20" cy="400.62" r="3.2" fill="#1d4ed8"/>
<circle cx="453.33" cy="400.62" r="3.2" fill="#1d4ed8"/>
<circle cx="455.47" cy="399.41" r="3.2" fill="#1d4ed8"/>
<circle cx="457.61" cy="392.94" r="3.2" fill="#1d4ed8"/>
<circle cx="459.75" cy="391.32" r="3.2" fill="#1d4ed8"/>
<circle cx="461.88" cy="389.30" r="3.2" fill="#1d4ed8"/>
<circle cx="464.02" cy="389.30" r="3.2" fill="#1d4ed8"/>
<circle cx="466.16" cy="388.49" r="3.2" fill="#1d4ed8"/>
<circle cx="468.29" cy="375.15" r="3.2" fill="#1d4ed8"/>
<circle cx="470.43" cy="374.74" r="3.2" fill="#1d4ed8"/>
<circle cx="472.57" cy="374.74" r="3.2" fill="#1d4ed8"/>
<circle cx="474.71" cy="374.74" r="3.2" fill="#1d4ed8"/>
<circle cx="476.84" cy="374.74" r="3.2" fill="#1d4ed8"/>
<circle cx="478.98" cy="374.34" r="3.2" fill="#1d4ed8"/>
<circle cx="481.12" cy="374.34" r="3.2" fill="#1d4ed8"/>
<circle cx="483.25" cy="374.34" r="3.2" fill="#1d4ed8"/>
<circle cx="485.39" cy="374.34" r="3.2" fill="#1d4ed8"/>
<circle cx="487.53" cy="374.34" r="3.2" fill="#1d4ed8"/>
<circle cx="489.67" cy="373.93" r="3.2" fill="#1d4ed8"/>
<circle cx="491.80" cy="373.12" r="3.2" fill="#1d4ed8"/>
<circle cx="493.94" cy="372.72" r="3.2" fill="#1d4ed8"/>
<circle cx="496.08" cy="373.53" r="3.2" fill="#1d4ed8"/>
<circle cx="498.22" cy="435.81" r="3.2" fill="#1d4ed8"/>
<circle cx="500.35" cy="372.32" r="3.2" fill="#1d4ed8"/>
<circle cx="502.49" cy="372.72" r="3.2" fill="#1d4ed8"/>
<circle cx="504.63" cy="371.91" r="3.2" fill="#1d4ed8"/>
<circle cx="506.76" cy="371.91" r="3.2" fill="#1d4ed8"/>
<circle cx="508.90" cy="372.32" r="3.2" fill="#1d4ed8"/>
<circle cx="511.04" cy="371.10" r="3.2" fill="#1d4ed8"/>
<circle cx="513.18" cy="369.89" r="3.2" fill="#1d4ed8"/>
<circle cx="515.31" cy="369.89" r="3.2" fill="#1d4ed8"/>
<circle cx="517.45" cy="369.89" r="3.2" fill="#1d4ed8"/>
<circle cx="519.59" cy="369.49" r="3.2" fill="#1d4ed8"/>
<circle cx="521.73" cy="369.89" r="3.2" fill="#1d4ed8"/>
<circle cx="523.86" cy="369.08" r="3.2" fill="#1d4ed8"/>
<circle cx="526.00" cy="368.68" r="3.2" fill="#1d4ed8"/>
<circle cx="528.14" cy="368.27" r="3.2" fill="#1d4ed8"/>
<circle cx="530.27" cy="367.87" r="3.2" fill="#1d4ed8"/>
<circle cx="532.41" cy="367.06" r="3.2" fill="#1d4ed8"/>
<circle cx="534.55" cy="367.46" r="3.2" fill="#1d4ed8"/>
<circle cx="536.69" cy="367.06" r="3.2" fill="#1d4ed8"/>
<circle cx="538.82" cy="366.25" r="3.2" fill="#1d4ed8"/>
<circle cx="540.96" cy="368.27" r="3.2" fill="#1d4ed8"/>
<circle cx="543.10" cy="368.68" r="3.2" fill="#1d4ed8"/>
<circle cx="545.24" cy="368.68" r="3.2" fill="#1d4ed8"/>
<circle cx="547.37" cy="368.27" r="3.2" fill="#1d4ed8"/>
<circle cx="549.51" cy="369.08" r="3.2" fill="#1d4ed8"/>
<circle cx="551.65" cy="367.87" r="3.2" fill="#1d4ed8"/>
<circle cx="553.78" cy="367.46" r="3.2" fill="#1d4ed8"/>
<circle cx="555.92" cy="367.06" r="3.2" fill="#1d4ed8"/>
<circle cx="558.06" cy="360.18" r="3.2" fill="#1d4ed8"/>
<circle cx="560.20" cy="359.78" r="3.2" fill="#1d4ed8"/>
<circle cx="562.33" cy="359.38" r="3.2" fill="#1d4ed8"/>
<circle cx="564.47" cy="356.95" r="3.2" fill="#1d4ed8"/>
<circle cx="566.61" cy="357.35" r="3.2" fill="#1d4ed8"/>
<circle cx="568.75" cy="357.76" r="3.2" fill="#1d4ed8"/>
<circle cx="570.88" cy="355.33" r="3.2" fill="#1d4ed8"/>
<circle cx="573.02" cy="355.74" r="3.2" fill="#1d4ed8"/>
<circle cx="575.16" cy="357.35" r="3.2" fill="#1d4ed8"/>
<circle cx="577.29" cy="355.33" r="3.2" fill="#1d4ed8"/>
<circle cx="579.43" cy="356.14" r="3.2" fill="#1d4ed8"/>
<circle cx="581.57" cy="355.74" r="3.2" fill="#1d4ed8"/>
<circle cx="583.71" cy="356.14" r="3.2" fill="#1d4ed8"/>
<circle cx="585.84" cy="354.12" r="3.2" fill="#1d4ed8"/>
<circle cx="587.98" cy="354.93" r="3.2" fill="#1d4ed8"/>
<circle cx="590.12" cy="356.14" r="3.2" fill="#1d4ed8"/>
<circle cx="592.25" cy="354.52" r="3.2" fill="#1d4ed8"/>
<circle cx="594.39" cy="353.71" r="3.2" fill="#1d4ed8"/>
<circle cx="596.53" cy="354.12" r="3.2" fill="#1d4ed8"/>
<circle cx="598.67" cy="354.93" r="3.2" fill="#1d4ed8"/>
<circle cx="600.80" cy="352.90" r="3.2" fill="#1d4ed8"/>
<circle cx="602.94" cy="353.71" r="3.2" fill="#1d4ed8"/>
<circle cx="605.08" cy="353.31" r="3.2" fill="#1d4ed8"/>
<circle cx="607.22" cy="353.31" r="3.2" fill="#1d4ed8"/>
<circle cx="609.35" cy="354.52" r="3.2" fill="#1d4ed8"/>
<circle cx="611.49" cy="352.90" r="3.2" fill="#1d4ed8"/>
<circle cx="613.63" cy="352.50" r="3.2" fill="#1d4ed8"/>
<circle cx="615.76" cy="352.50" r="3.2" fill="#1d4ed8"/>
<circle cx="617.90" cy="353.31" r="3.2" fill="#1d4ed8"/>
<circle cx="620.04" cy="352.50" r="3.2" fill="#1d4ed8"/>
<circle cx="622.18" cy="353.71" r="3.2" fill="#1d4ed8"/>
<circle cx="624.31" cy="354.12" r="3.2" fill="#1d4ed8"/>
<circle cx="626.45" cy="352.50" r="3.2" fill="#1d4ed8"/>
<circle cx="628.59" cy="352.90" r="3.2" fill="#1d4ed8"/>
<circle cx="630.73" cy="352.50" r="3.2" fill="#1d4ed8"/>
<circle cx="632.86" cy="352.10" r="3.2" fill="#1d4ed8"/>
<circle cx="635.00" cy="351.69" r="3.2" fill="#1d4ed8"/>
<circle cx="637.14" cy="352.10" r="3.2" fill="#1d4ed8"/>
<circle cx="639.27" cy="354.12" r="3.2" fill="#1d4ed8"/>
<circle cx="641.41" cy="352.50" r="3.2" fill="#1d4ed8"/>
<circle cx="643.55" cy="352.10" r="3.2" fill="#1d4ed8"/>
<circle cx="645.69" cy="352.10" r="3.2" fill="#1d4ed8"/>
<circle cx="647.82" cy="349.67" r="3.2" fill="#1d4ed8"/>
<circle cx="649.96" cy="349.67" r="3.2" fill="#1d4ed8"/>
<circle cx="652.10" cy="350.88" r="3.2" fill="#1d4ed8"/>
<circle cx="654.24" cy="351.29" r="3.2" fill="#1d4ed8"/>
<circle cx="656.37" cy="350.48" r="3.2" fill="#1d4ed8"/>
<circle cx="658.51" cy="352.10" r="3.2" fill="#1d4ed8"/>
<circle cx="660.65" cy="350.48" r="3.2" fill="#1d4ed8"/>
<circle cx="662.78" cy="350.48" r="3.2" fill="#1d4ed8"/>
<circle cx="664.92" cy="350.48" r="3.2" fill="#1d4ed8"/>
<circle cx="667.06" cy="350.07" r="3.2" fill="#1d4ed8"/>
<circle cx="669.20" cy="348.46" r="3.2" fill="#1d4ed8"/>
<circle cx="671.33" cy="351.29" r="3.2" fill="#1d4ed8"/>
<circle cx="673.47" cy="349.67" r="3.2" fill="#1d4ed8"/>
<circle cx="675.61" cy="351.29" r="3.2" fill="#1d4ed8"/>
<circle cx="677.75" cy="349.67" r="3.2" fill="#1d4ed8"/>
<circle cx="679.88" cy="348.86" r="3.2" fill="#1d4ed8"/>
<circle cx="682.02" cy="348.46" r="3.2" fill="#1d4ed8"/>
<circle cx="684.16" cy="348.46" r="3.2" fill="#1d4ed8"/>
<circle cx="686.29" cy="347.24" r="3.2" fill="#1d4ed8"/>
<circle cx="688.43" cy="348.86" r="3.2" fill="#1d4ed8"/>
<circle cx="690.57" cy="346.84" r="3.2" fill="#1d4ed8"/>
<circle cx="692.71" cy="348.46" r="3.2" fill="#1d4ed8"/>
<circle cx="694.84" cy="348.86" r="3.2" fill="#1d4ed8"/>
<circle cx="696.98" cy="346.84" r="3.2" fill="#1d4ed8"/>
<circle cx="699.12" cy="349.26" r="3.2" fill="#1d4ed8"/>
<circle cx="701.25" cy="348.05" r="3.2" fill="#1d4ed8"/>
<circle cx="703.39" cy="349.26" r="3.2" fill="#1d4ed8"/>
<circle cx="705.53" cy="349.26" r="3.2" fill="#1d4ed8"/>
<circle cx="707.67" cy="350.48" r="3.2" fill="#1d4ed8"/>
<circle cx="709.80" cy="352.90" r="3.2" fill="#1d4ed8"/>
<circle cx="711.94" cy="349.67" r="3.2" fill="#1d4ed8"/>
<circle cx="714.08" cy="348.46" r="3.2" fill="#1d4ed8"/>
<circle cx="716.22" cy="345.62" r="3.2" fill="#1d4ed8"/>
<circle cx="718.35" cy="344.82" r="3.2" fill="#1d4ed8"/>
<circle cx="720.49" cy="344.41" r="3.2" fill="#1d4ed8"/>
<circle cx="722.63" cy="342.39" r="3.2" fill="#1d4ed8"/>
<circle cx="724.76" cy="341.18" r="3.2" fill="#1d4ed8"/>
<circle cx="726.90" cy="341.58" r="3.2" fill="#1d4ed8"/>
<circle cx="729.04" cy="339.15" r="3.2" fill="#1d4ed8"/>
<circle cx="731.18" cy="338.35" r="3.2" fill="#1d4ed8"/>
<circle cx="733.31" cy="337.54" r="3.2" fill="#1d4ed8"/>
<circle cx="735.45" cy="336.73" r="3.2" fill="#1d4ed8"/>
<circle cx="737.59" cy="335.92" r="3.2" fill="#1d4ed8"/>
<circle cx="739.73" cy="337.54" r="3.2" fill="#1d4ed8"/>
<circle cx="741.86" cy="338.35" r="3.2" fill="#1d4ed8"/>
<circle cx="744.00" cy="337.54" r="3.2" fill="#1d4ed8"/>
<circle cx="746.14" cy="337.54" r="3.2" fill="#1d4ed8"/>
<circle cx="748.27" cy="337.54" r="3.2" fill="#1d4ed8"/>
<circle cx="750.41" cy="333.09" r="3.2" fill="#1d4ed8"/>
<circle cx="752.55" cy="333.90" r="3.2" fill="#1d4ed8"/>
<circle cx="754.69" cy="335.92" r="3.2" fill="#1d4ed8"/>
<circle cx="756.82" cy="336.73" r="3.2" fill="#1d4ed8"/>
<circle cx="758.96" cy="335.51" r="3.2" fill="#1d4ed8"/>
<circle cx="761.10" cy="332.28" r="3.2" fill="#1d4ed8"/>
<circle cx="763.24" cy="331.47" r="3.2" fill="#1d4ed8"/>
<circle cx="765.37" cy="331.07" r="3.2" fill="#1d4ed8"/>
<circle cx="767.51" cy="331.47" r="3.2" fill="#1d4ed8"/>
<circle cx="769.65" cy="331.07" r="3.2" fill="#1d4ed8"/>
<circle cx="771.78" cy="331.07" r="3.2" fill="#1d4ed8"/>
<circle cx="773.92" cy="331.07" r="3.2" fill="#1d4ed8"/>
<circle cx="776.06" cy="331.07" r="3.2" fill="#1d4ed8"/>
<circle cx="778.20" cy="331.07" r="3.2" fill="#1d4ed8"/>
<circle cx="780.33" cy="331.07" r="3.2" fill="#1d4ed8"/>
<circle cx="782.47" cy="331.07" r="3.2" fill="#1d4ed8"/>
<circle cx="784.61" cy="331.07" r="3.2" fill="#1d4ed8"/>
<circle cx="786.75" cy="331.07" r="3.2" fill="#1d4ed8"/>
<circle cx="788.88" cy="331.07" r="3.2" fill="#1d4ed8"/>
<circle cx="791.02" cy="331.47" r="3.2" fill="#1d4ed8"/>
<circle cx="793.16" cy="331.88" r="3.2" fill="#1d4ed8"/>
<circle cx="795.29" cy="331.07" r="3.2" fill="#1d4ed8"/>
<circle cx="797.43" cy="331.47" r="3.2" fill="#1d4ed8"/>
<circle cx="799.57" cy="331.07" r="3.2" fill="#1d4ed8"/>
<circle cx="801.71" cy="331.47" r="3.2" fill="#1d4ed8"/>
<circle cx="803.84" cy="331.07" r="3.2" fill="#1d4ed8"/>
<circle cx="805.98" cy="324.19" r="3.2" fill="#1d4ed8"/>
<circle cx="808.12" cy="324.19" r="3.2" fill="#1d4ed8"/>
<circle cx="810.25" cy="318.93" r="3.2" fill="#1d4ed8"/>
<circle cx="812.39" cy="316.51" r="3.2" fill="#1d4ed8"/>
<circle cx="814.53" cy="310.44" r="3.2" fill="#1d4ed8"/>
<circle cx="816.67" cy="308.01" r="3.2" fill="#1d4ed8"/>
<circle cx="818.80" cy="600.00" r="3.2" fill="#1d4ed8"/>
<circle cx="820.94" cy="301.54" r="3.2" fill="#1d4ed8"/>
<circle cx="823.08" cy="290.22" r="3.2" fill="#1d4ed8"/>
<circle cx="825.22" cy="287.79" r="3.2" fill="#1d4ed8"/>
<circle cx="827.35" cy="286.18" r="3.2" fill="#1d4ed8"/>
<circle cx="829.49" cy="285.77" r="3.2" fill="#1d4ed8"/>
<circle cx="831.63" cy="285.77" r="3.2" fill="#1d4ed8"/>
<circle cx="833.76" cy="285.77" r="3.2" fill="#1d4ed8"/>
<circle cx="835.90" cy="286.18" r="3.2" fill="#1d4ed8"/>
<circle cx="838.04" cy="285.77" r="3.2" fill="#1d4ed8"/>
<circle cx="840.18" cy="285.77" r="3.2" fill="#1d4ed8"/>
<circle cx="842.31" cy="285.77" r="3.2" fill="#1d4ed8"/>
<circle cx="844.45" cy="283.35" r="3.2" fill="#1d4ed8"/>
<circle cx="846.59" cy="282.94" r="3.2" fill="#1d4ed8"/>
<circle cx="848.73" cy="282.94" r="3.2" fill="#1d4ed8"/>
<circle cx="850.86" cy="283.35" r="3.2" fill="#1d4ed8"/>
<circle cx="853.00" cy="282.94" r="3.2" fill="#1d4ed8"/>
<circle cx="855.14" cy="282.94" r="3.2" fill="#1d4ed8"/>
<circle cx="857.27" cy="283.75" r="3.2" fill="#1d4ed8"/>
<circle cx="859.41" cy="282.13" r="3.2" fill="#1d4ed8"/>
<circle cx="861.55" cy="282.13" r="3.2" fill="#1d4ed8"/>
<circle cx="863.69" cy="282.54" r="3.2" fill="#1d4ed8"/>
<circle cx="865.82" cy="282.13" r="3.2" fill="#1d4ed8"/>
<circle cx="867.96" cy="282.54" r="3.2" fill="#1d4ed8"/>
<circle cx="870.10" cy="282.94" r="3.2" fill="#1d4ed8"/>
<circle cx="872.24" cy="281.73" r="3.2" fill="#1d4ed8"/>
<circle cx="874.37" cy="282.54" r="3.2" fill="#1d4ed8"/>
<circle cx="876.51" cy="281.73" r="3.2" fill="#1d4ed8"/>
<circle cx="878.65" cy="282.54" r="3.2" fill="#1d4ed8"/>
<circle cx="880.78" cy="282.13" r="3.2" fill="#1d4ed8"/>
<circle cx="882.92" cy="282.13" r="3.2" fill="#1d4ed8"/>
<circle cx="885.06" cy="281.73" r="3.2" fill="#1d4ed8"/>
<circle cx="887.20" cy="281.73" r="3.2" fill="#1d4ed8"/>
<circle cx="889.33" cy="281.32" r="3.2" fill="#1d4ed8"/>
<circle cx="891.47" cy="281.73" r="3.2" fill="#1d4ed8"/>
<circle cx="893.61" cy="282.13" r="3.2" fill="#1d4ed8"/>
<circle cx="895.75" cy="281.32" r="3.2" fill="#1d4ed8"/>
<circle cx="897.88" cy="281.32" r="3.2" fill="#1d4ed8"/>
<circle cx="900.02" cy="282.54" r="3.2" fill="#1d4ed8"/>
<circle cx="902.16" cy="282.13" r="3.2" fill="#1d4ed8"/>
<circle cx="904.29" cy="281.32" r="3.2" fill="#1d4ed8"/>
<circle cx="906.43" cy="281.32" r="3.2" fill="#1d4ed8"/>
<circle cx="908.57" cy="281.32" r="3.2" fill="#1d4ed8"/>
<circle cx="910.71" cy="282.54" r="3.2" fill="#1d4ed8"/>
<circle cx="912.84" cy="282.13" r="3.2" fill="#1d4ed8"/>
<circle cx="914.98" cy="281.32" r="3.2" fill="#1d4ed8"/>
<circle cx="917.12" cy="282.13" r="3.2" fill="#1d4ed8"/>
<circle cx="919.25" cy="281.73" r="3.2" fill="#1d4ed8"/>
<circle cx="921.39" cy="282.13" r="3.2" fill="#1d4ed8"/>
<circle cx="923.53" cy="280.11" r="3.2" fill="#1d4ed8"/>
<circle cx="925.67" cy="280.11" r="3.2" fill="#1d4ed8"/>
<circle cx="927.80" cy="280.51" r="3.2" fill="#1d4ed8"/>
<circle cx="929.94" cy="279.71" r="3.2" fill="#1d4ed8"/>
<circle cx="932.08" cy="280.11" r="3.2" fill="#1d4ed8"/>
<circle cx="934.22" cy="280.51" r="3.2" fill="#1d4ed8"/>
<circle cx="936.35" cy="279.71" r="3.2" fill="#1d4ed8"/>
<circle cx="938.49" cy="280.11" r="3.2" fill="#1d4ed8"/>
<circle cx="940.63" cy="280.11" r="3.2" fill="#1d4ed8"/>
<circle cx="942.76" cy="279.30" r="3.2" fill="#1d4ed8"/>
<circle cx="944.90" cy="278.90" r="3.2" fill="#1d4ed8"/>
<circle cx="947.04" cy="278.90" r="3.2" fill="#1d4ed8"/>
<circle cx="949.18" cy="280.51" r="3.2" fill="#1d4ed8"/>
<circle cx="951.31" cy="279.30" r="3.2" fill="#1d4ed8"/>
<circle cx="953.45" cy="278.09" r="3.2" fill="#1d4ed8"/>
<circle cx="955.59" cy="278.49" r="3.2" fill="#1d4ed8"/>
<circle cx="957.73" cy="278.49" r="3.2" fill="#1d4ed8"/>
<circle cx="959.86" cy="277.28" r="3.2" fill="#1d4ed8"/>
<circle cx="962.00" cy="277.68" r="3.2" fill="#1d4ed8"/>
<circle cx="964.14" cy="277.68" r="3.2" fill="#1d4ed8"/>
<circle cx="966.27" cy="278.09" r="3.2" fill="#1d4ed8"/>
<circle cx="968.41" cy="277.28" r="3.2" fill="#1d4ed8"/>
<circle cx="970.55" cy="600.00" r="3.2" fill="#1d4ed8"/>
<circle cx="972.69" cy="278.90" r="3.2" fill="#1d4ed8"/>
<circle cx="974.82" cy="279.30" r="3.2" fill="#1d4ed8"/>
<circle cx="976.96" cy="278.90" r="3.2" fill="#1d4ed8"/>
<circle cx="979.10" cy="278.49" r="3.2" fill="#1d4ed8"/>
<circle cx="981.24" cy="278.49" r="3.2" fill="#1d4ed8"/>
<circle cx="983.37" cy="278.49" r="3.2" fill="#1d4ed8"/>
<circle cx="985.51" cy="278.49" r="3.2" fill="#1d4ed8"/>
<circle cx="987.65" cy="278.49" r="3.2" fill="#1d4ed8"/>
<circle cx="989.78" cy="278.49" r="3.2" fill="#1d4ed8"/>
<circle cx="991.92" cy="278.49" r="3.2" fill="#1d4ed8"/>
<circle cx="994.06" cy="278.49" r="3.2" fill="#1d4ed8"/>
<circle cx="996.20" cy="278.49" r="3.2" fill="#1d4ed8"/>
<circle cx="998.33" cy="278.49" r="3.2" fill="#1d4ed8"/>
<circle cx="1000.47" cy="278.49" r="3.2" fill="#1d4ed8"/>
<circle cx="1002.61" cy="278.49" r="3.2" fill="#1d4ed8"/>
<circle cx="1004.75" cy="600.00" r="3.2" fill="#1d4ed8"/>
<circle cx="1006.88" cy="600.00" r="3.2" fill="#1d4ed8"/>
<circle cx="1009.02" cy="254.63" r="3.2" fill="#1d4ed8"/>
<circle cx="1011.16" cy="600.00" r="3.2" fill="#1d4ed8"/>
<circle cx="1013.29" cy="245.74" r="3.2" fill="#1d4ed8"/>
<circle cx="1015.43" cy="245.74" r="3.2" fill="#1d4ed8"/>
<circle cx="1017.57" cy="246.14" r="3.2" fill="#1d4ed8"/>
<circle cx="1019.71" cy="245.74" r="3.2" fill="#1d4ed8"/>
<circle cx="1021.84" cy="245.74" r="3.2" fill="#1d4ed8"/>
<circle cx="1023.98" cy="245.74" r="3.2" fill="#1d4ed8"/>
<circle cx="1026.12" cy="245.74" r="3.2" fill="#1d4ed8"/>
<circle cx="1028.25" cy="245.74" r="3.2" fill="#1d4ed8"/>
<circle cx="1030.39" cy="240.07" r="3.2" fill="#1d4ed8"/>
<circle cx="1032.53" cy="238.05" r="3.2" fill="#1d4ed8"/>
<circle cx="1034.67" cy="238.05" r="3.2" fill="#1d4ed8"/>
<circle cx="1036.80" cy="227.13" r="3.2" fill="#1d4ed8"/>
<circle cx="1038.94" cy="227.13" r="3.2" fill="#1d4ed8"/>
<circle cx="1041.08" cy="226.32" r="3.2" fill="#1d4ed8"/>
<circle cx="1043.22" cy="227.54" r="3.2" fill="#1d4ed8"/>
<circle cx="1045.35" cy="226.73" r="3.2" fill="#1d4ed8"/>
<circle cx="1047.49" cy="226.32" r="3.2" fill="#1d4ed8"/>
<circle cx="1049.63" cy="227.13" r="3.2" fill="#1d4ed8"/>
<circle cx="1051.76" cy="227.13" r="3.2" fill="#1d4ed8"/>
<circle cx="1053.90" cy="226.73" r="3.2" fill="#1d4ed8"/>
<circle cx="1056.04" cy="226.32" r="3.2" fill="#1d4ed8"/>
<circle cx="1058.18" cy="226.73" r="3.2" fill="#1d4ed8"/>
<circle cx="1060.31" cy="226.73" r="3.2" fill="#1d4ed8"/>
<circle cx="1062.45" cy="226.73" r="3.2" fill="#1d4ed8"/>
<circle cx="1064.59" cy="225.11" r="3.2" fill="#1d4ed8"/>
<circle cx="1066.73" cy="224.71" r="3.2" fill="#1d4ed8"/>
<circle cx="1068.86" cy="225.11" r="3.2" fill="#1d4ed8"/>
<circle cx="1071.00" cy="224.30" r="3.2" fill="#1d4ed8"/>
<circle cx="1073.14" cy="226.32" r="3.2" fill="#1d4ed8"/>
<circle cx="1075.27" cy="224.30" r="3.2" fill="#1d4ed8"/>
<circle cx="1077.41" cy="225.51" r="3.2" fill="#1d4ed8"/>
<circle cx="1079.55" cy="225.51" r="3.2" fill="#1d4ed8"/>
<circle cx="1081.69" cy="225.51" r="3.2" fill="#1d4ed8"/>
<circle cx="1083.82" cy="225.92" r="3.2" fill="#1d4ed8"/>
<circle cx="1085.96" cy="223.09" r="3.2" fill="#1d4ed8"/>
<circle cx="1088.10" cy="223.49" r="3.2" fill="#1d4ed8"/>
<circle cx="1090.24" cy="223.09" r="3.2" fill="#1d4ed8"/>
<circle cx="1092.37" cy="223.09" r="3.2" fill="#1d4ed8"/>
<circle cx="1094.51" cy="223.90" r="3.2" fill="#1d4ed8"/>
<circle cx="1096.65" cy="223.49" r="3.2" fill="#1d4ed8"/>
<circle cx="1098.78" cy="223.49" r="3.2" fill="#1d4ed8"/>
<circle cx="1100.92" cy="223.09" r="3.2" fill="#1d4ed8"/>
<circle cx="1103.06" cy="223.09" r="3.2" fill="#1d4ed8"/>
<circle cx="1105.20" cy="223.49" r="3.2" fill="#1d4ed8"/>
<circle cx="1107.33" cy="223.09" r="3.2" fill="#1d4ed8"/>
<circle cx="1109.47" cy="223.09" r="3.2" fill="#1d4ed8"/>
<circle cx="1111.61" cy="223.49" r="3.2" fill="#1d4ed8"/>
<circle cx="1113.75" cy="223.49" r="3.2" fill="#1d4ed8"/>
<circle cx="1115.88" cy="223.09" r="3.2" fill="#1d4ed8"/>
<circle cx="1118.02" cy="223.09" r="3.2" fill="#1d4ed8"/>
<circle cx="1120.16" cy="223.49" r="3.2" fill="#1d4ed8"/>
<circle cx="1122.29" cy="223.09" r="3.2" fill="#1d4ed8"/>
<circle cx="1124.43" cy="223.09" r="3.2" fill="#1d4ed8"/>
<circle cx="1126.57" cy="223.09" r="3.2" fill="#1d4ed8"/>
<circle cx="1128.71" cy="223.49" r="3.2" fill="#1d4ed8"/>
<circle cx="1130.84" cy="223.49" r="3.2" fill="#1d4ed8"/>
<circle cx="1132.98" cy="223.49" r="3.2" fill="#1d4ed8"/>
<circle cx="1135.12" cy="223.09" r="3.2" fill="#1d4ed8"/>
<circle cx="1137.25" cy="223.49" r="3.2" fill="#1d4ed8"/>
<circle cx="1139.39" cy="223.09" r="3.2" fill="#1d4ed8"/>
<circle cx="1141.53" cy="223.09" r="3.2" fill="#1d4ed8"/>
<circle cx="1143.67" cy="223.49" r="3.2" fill="#1d4ed8"/>
<circle cx="1145.80" cy="223.09" r="3.2" fill="#1d4ed8"/>
<circle cx="1147.94" cy="223.09" r="3.2" fill="#1d4ed8"/>
<circle cx="1150.08" cy="223.49" r="3.2" fill="#1d4ed8"/>
<circle cx="1152.22" cy="222.68" r="3.2" fill="#1d4ed8"/>
<circle cx="1154.35" cy="221.88" r="3.2" fill="#1d4ed8"/>
<circle cx="1156.49" cy="223.49" r="3.2" fill="#1d4ed8"/>
<circle cx="1158.63" cy="223.09" r="3.2" fill="#1d4ed8"/>
<circle cx="1160.76" cy="223.49" r="3.2" fill="#1d4ed8"/>
<circle cx="1162.90" cy="224.30" r="3.2" fill="#1d4ed8"/>
<circle cx="1165.04" cy="201.65" r="3.2" fill="#1d4ed8"/>
<circle cx="1167.18" cy="201.65" r="3.2" fill="#1d4ed8"/>
<circle cx="1169.31" cy="186.69" r="3.2" fill="#1d4ed8"/>
<circle cx="1171.45" cy="176.18" r="3.2" fill="#1d4ed8"/>
<circle cx="1173.59" cy="174.15" r="3.2" fill="#1d4ed8"/>
<circle cx="1175.73" cy="172.94" r="3.2" fill="#1d4ed8"/>
<circle cx="1177.86" cy="172.94" r="3.2" fill="#1d4ed8"/>
<circle cx="1180.00" cy="162.02" r="3.2" fill="#1d4ed8"/>
<text x="635" y="695" text-anchor="middle" font-size="14" fill="#111" font-family="sans-serif">Date</text>
<text x="24" y="325" text-anchor="middle" font-size="14" fill="#111" transform="rotate(-90 24,325)" font-family="sans-serif">Passed files</text>
</svg>
