<?xml version="1.0" encoding="UTF-8"?>
<svg xmlns="http://www.w3.org/2000/svg" width="1280" height="720" viewBox="0 0 1280 720">
<rect width="100%" height="100%" fill="#ffffff"/>
<text x="640" y="30" text-anchor="middle" font-size="22" font-family="sans-serif">Roast passed files history</text>
<line x1="90" y1="600" x2="1180" y2="600" stroke="#333" stroke-width="1.5"/>
<line x1="90" y1="50" x2="90" y2="600" stroke="#333" stroke-width="1.5"/>
<line x1="90" y1="600.00" x2="1180" y2="600.00" stroke="#e5e7eb" stroke-width="1"/>
<text x="78" y="605.00" text-anchor="end" font-size="12" fill="#111" font-family="sans-serif">0</text>
<line x1="90" y1="397.79" x2="1180" y2="397.79" stroke="#e5e7eb" stroke-width="1"/>
<text x="78" y="402.79" text-anchor="end" font-size="12" fill="#111" font-family="sans-serif">500</text>
<line x1="90" y1="195.59" x2="1180" y2="195.59" stroke="#e5e7eb" stroke-width="1"/>
<text x="78" y="200.59" text-anchor="end" font-size="12" fill="#111" font-family="sans-serif">1000</text>
<line x1="90.00" y1="600" x2="90.00" y2="606" stroke="#333" stroke-width="1"/>
<text x="90.00" y="624" text-anchor="end" font-size="11" fill="#111" transform="rotate(-40 90.00,624)" font-family="sans-serif">2026-02-12</text>
<line x1="224.20" y1="600" x2="224.20" y2="606" stroke="#333" stroke-width="1"/>
<text x="224.20" y="624" text-anchor="end" font-size="11" fill="#111" transform="rotate(-40 224.20,624)" font-family="sans-serif">2026-02-17</text>
<line x1="358.41" y1="600" x2="358.41" y2="606" stroke="#333" stroke-width="1"/>
<text x="358.41" y="624" text-anchor="end" font-size="11" fill="#111" transform="rotate(-40 358.41,624)" font-family="sans-serif">2026-02-21</text>
<line x1="492.61" y1="600" x2="492.61" y2="606" stroke="#333" stroke-width="1"/>
<text x="492.61" y="624" text-anchor="end" font-size="11" fill="#111" transform="rotate(-40 492.61,624)" font-family="sans-serif">2026-02-25</text>
<line x1="626.82" y1="600" x2="626.82" y2="606" stroke="#333" stroke-width="1"/>
<text x="626.82" y="624" text-anchor="end" font-size="11" fill="#111" transform="rotate(-40 626.82,624)" font-family="sans-serif">2026-02-27</text>
<line x1="761.02" y1="600" x2="761.02" y2="606" stroke="#333" stroke-width="1"/>
<text x="761.02" y="624" text-anchor="end" font-size="11" fill="#111" transform="rotate(-40 761.02,624)" font-family="sans-serif">2026-03-01</text>
<line x1="895.23" y1="600" x2="895.23" y2="606" stroke="#333" stroke-width="1"/>
<text x="895.23" y="624" text-anchor="end" font-size="11" fill="#111" transform="rotate(-40 895.23,624)" font-family="sans-serif">2026-03-06</text>
<line x1="1029.43" y1="600" x2="1029.43" y2="606" stroke="#333" stroke-width="1"/>
<text x="1029.43" y="624" text-anchor="end" font-size="11" fill="#111" transform="rotate(-40 1029.43,624)" font-family="sans-serif">2026-03-07</text>
<line x1="1163.63" y1="600" x2="1163.63" y2="606" stroke="#333" stroke-width="1"/>
<text x="1163.63" y="624" text-anchor="end" font-size="11" fill="#111" transform="rotate(-40 1163.63,624)" font-family="sans-serif">2026-03-11</text>
<line x1="1180.00" y1="600" x2="1180.00" y2="606" stroke="#333" stroke-width="1"/>
<text x="1180.00" y="624" text-anchor="end" font-size="11" fill="#111" transform="rotate(-40 1180.00,624)" font-family="sans-serif">2026-03-11</text>
<line x1="90" y1="75.88" x2="1180" y2="75.88" stroke="#dc2626" stroke-width="1.5" stroke-dasharray="8,4"/>
<text x="1184" y="79.88" font-size="12" fill="#dc2626" font-family="sans-serif">Goal: 1296</text>
<polyline fill="none" stroke="#2563eb" stroke-width="3" points="90.00,540.55 93.27,538.53 96.55,536.91 99.82,534.49 103.09,534.49 106.37,533.27 109.64,532.46 112.91,532.87 116.19,532.06 119.46,532.46 122.73,532.06 126.01,568.46 129.28,568.46 132.55,566.43 135.83,545.00 139.10,545.00 142.37,544.19 145.65,543.79 148.92,543.79 152.19,543.38 155.47,541.76 158.74,541.36 162.01,540.96 165.29,540.96 168.56,539.34 171.83,539.34 175.11,556.73 178.38,556.73 181.65,555.51 184.92,551.07 188.20,538.93 191.47,538.93 194.74,538.93 198.02,538.12 201.29,536.91 204.56,536.91 207.84,536.51 211.11,536.51 214.38,556.73 217.66,556.73 220.93,556.73 224.20,556.73 227.48,535.29 230.75,535.29 234.02,535.29 237.30,535.29 240.57,534.49 243.84,534.08 247.12,533.68 250.39,532.87 253.66,532.06 256.94,532.06 260.21,531.25 263.48,530.85 266.76,530.44 270.03,530.04 273.30,530.04 276.58,529.23 279.85,529.23 283.12,529.23 286.40,528.42 289.67,528.42 292.94,527.61 296.22,527.21 299.49,526.80 302.76,526.40 306.04,525.18 309.31,523.57 312.58,523.57 315.86,523.16 319.13,522.76 322.40,522.35 325.68,521.54 328.95,519.52 332.22,517.50 335.50,517.50 338.77,517.50 342.04,517.50 345.32,517.50 348.59,517.50 351.86,517.10 355.14,516.69 358.41,515.48 361.68,515.07 364.95,514.67 368.23,513.86 371.50,514.26 374.77,512.24 378.05,511.84 381.32,511.84 384.59,511.03 387.87,509.82 391.14,507.79 394.41,506.99 397.69,506.58 400.96,509.41 404.23,509.01 407.51,504.96 410.78,504.56 414.05,504.15 417.33,504.56 420.60,503.75 423.87,503.75 427.15,503.35 430.42,499.30 433.69,496.47 436.97,490.00 440.24,484.34 443.51,481.10 446.79,480.29 450.06,480.70 453.33,460.88 456.61,459.26 459.88,458.05 463.15,456.03 466.43,456.03 469.70,454.41 472.97,450.77 476.25,444.30 479.52,443.90 482.79,600.00 486.07,441.88 489.34,440.66 492.61,439.45 495.89,439.04 499.16,438.64 502.43,437.83 505.71,436.62 508.98,436.62 512.25,434.60 515.53,432.17 518.80,429.34 522.07,428.93 525.35,428.53 528.62,427.72 531.89,426.91 535.17,426.10 538.44,426.10 541.71,426.10 544.98,419.63 548.26,419.23 551.53,418.42 554.80,418.01 558.08,417.61 561.35,417.61 564.62,417.61 567.90,417.21 571.17,417.21 574.44,413.57 577.72,411.95 580.99,412.76 584.26,410.74 587.54,410.74 590.81,410.33 594.08,410.33 597.36,410.33 600.63,409.93 603.90,409.93 607.18,409.93 610.45,409.52 613.72,409.52 617.00,409.12 620.27,409.52 623.54,409.12 626.82,407.50 630.09,407.10 633.36,403.05 636.64,399.82 639.91,400.22 643.18,400.62 646.46,400.62 649.73,399.41 653.00,392.94 656.28,391.32 659.55,389.30 662.82,389.30 666.10,388.49 669.37,375.15 672.64,374.74 675.92,374.74 679.19,374.74 682.46,374.74 685.74,374.34 689.01,374.34 692.28,374.34 695.56,374.34 698.83,374.34 702.10,373.93 705.38,373.12 708.65,372.72 711.92,373.53 715.20,435.81 718.47,372.32 721.74,372.72 725.02,371.91 728.29,371.91 731.56,372.32 734.83,371.10 738.11,369.89 741.38,369.89 744.65,369.89 747.93,369.49 751.20,369.89 754.47,369.08 757.75,368.68 761.02,368.27 764.29,367.87 767.57,367.06 770.84,367.46 774.11,367.06 777.39,366.25 780.66,368.27 783.93,368.68 787.21,368.68 790.48,368.27 793.75,369.08 797.03,367.87 800.30,367.46 803.57,367.06 806.85,360.18 810.12,359.78 813.39,359.38 816.67,356.95 819.94,357.35 823.21,357.76 826.49,355.33 829.76,355.74 833.03,357.35 836.31,355.33 839.58,356.14 842.85,355.74 846.13,356.14 849.40,354.12 852.67,354.93 855.95,356.14 859.22,354.52 862.49,353.71 865.77,354.12 869.04,354.93 872.31,352.90 875.59,353.71 878.86,353.31 882.13,353.31 885.41,354.52 888.68,352.90 891.95,352.50 895.23,352.50 898.50,353.31 901.77,352.50 905.05,353.71 908.32,354.12 911.59,352.50 914.86,352.90 918.14,352.50 921.41,352.10 924.68,351.69 927.96,352.10 931.23,354.12 934.50,352.50 937.78,352.10 941.05,352.10 944.32,349.67 947.60,349.67 950.87,350.88 954.14,351.29 957.42,350.48 960.69,352.10 963.96,350.48 967.24,350.48 970.51,350.48 973.78,350.07 977.06,348.46 980.33,351.29 983.60,349.67 986.88,351.29 990.15,349.67 993.42,348.86 996.70,348.46 999.97,348.46 1003.24,347.24 1006.52,348.86 1009.79,346.84 1013.06,348.46 1016.34,348.86 1019.61,346.84 1022.88,349.26 1026.16,348.05 1029.43,349.26 1032.70,349.26 1035.98,350.48 1039.25,352.90 1042.52,349.67 1045.80,348.46 1049.07,345.62 1052.34,344.82 1055.62,344.41 1058.89,342.39 1062.16,341.18 1065.44,341.58 1068.71,339.15 1071.98,338.35 1075.26,337.54 1078.53,336.73 1081.80,335.92 1085.08,337.54 1088.35,338.35 1091.62,337.54 1094.89,337.54 1098.17,337.54 1101.44,333.09 1104.71,333.90 1107.99,335.92 1111.26,336.73 1114.53,335.51 1117.81,332.28 1121.08,331.47 1124.35,331.07 1127.63,331.47 1130.90,331.07 1134.17,331.07 1137.45,331.07 1140.72,331.07 1143.99,331.07 1147.27,331.07 1150.54,331.07 1153.81,331.07 1157.09,331.07 1160.36,331.07 1163.63,331.47 1166.91,331.88 1170.18,331.07 1173.45,331.47 1176.73,331.07 1180.00,331.47"/>
<circle cx="90.00" cy="540.55" r="3.2" fill="#1d4ed8"/>
<circle cx="93.27" cy="538.53" r="3.2" fill="#1d4ed8"/>
<circle cx="96.55" cy="536.91" r="3.2" fill="#1d4ed8"/>
<circle cx="99.82" cy="534.49" r="3.2" fill="#1d4ed8"/>
<circle cx="103.09" cy="534.49" r="3.2" fill="#1d4ed8"/>
<circle cx="106.37" cy="533.27" r="3.2" fill="#1d4ed8"/>
<circle cx="109.64" cy="532.46" r="3.2" fill="#1d4ed8"/>
<circle cx="112.91" cy="532.87" r="3.2" fill="#1d4ed8"/>
<circle cx="116.19" cy="532.06" r="3.2" fill="#1d4ed8"/>
<circle cx="119.46" cy="532.46" r="3.2" fill="#1d4ed8"/>
<circle cx="122.73" cy="532.06" r="3.2" fill="#1d4ed8"/>
<circle cx="126.01" cy="568.46" r="3.2" fill="#1d4ed8"/>
<circle cx="129.28" cy="568.46" r="3.2" fill="#1d4ed8"/>
<circle cx="132.55" cy="566.43" r="3.2" fill="#1d4ed8"/>
<circle cx="135.83" cy="545.00" r="3.2" fill="#1d4ed8"/>
<circle cx="139.10" cy="545.00" r="3.2" fill="#1d4ed8"/>
<circle cx="142.37" cy="544.19" r="3.2" fill="#1d4ed8"/>
<circle cx="145.65" cy="543.79" r="3.2" fill="#1d4ed8"/>
<circle cx="148.92" cy="543.79" r="3.2" fill="#1d4ed8"/>
<circle cx="152.19" cy="543.38" r="3.2" fill="#1d4ed8"/>
<circle cx="155.47" cy="541.76" r="3.2" fill="#1d4ed8"/>
<circle cx="158.74" cy="541.36" r="3.2" fill="#1d4ed8"/>
<circle cx="162.01" cy="540.96" r="3.2" fill="#1d4ed8"/>
<circle cx="165.29" cy="540.96" r="3.2" fill="#1d4ed8"/>
<circle cx="168.56" cy="539.34" r="3.2" fill="#1d4ed8"/>
<circle cx="171.83" cy="539.34" r="3.2" fill="#1d4ed8"/>
<circle cx="175.11" cy="556.73" r="3.2" fill="#1d4ed8"/>
<circle cx="178.38" cy="556.73" r="3.2" fill="#1d4ed8"/>
<circle cx="181.65" cy="555.51" r="3.2" fill="#1d4ed8"/>
<circle cx="184.92" cy="551.07" r="3.2" fill="#1d4ed8"/>
<circle cx="188.20" cy="538.93" r="3.2" fill="#1d4ed8"/>
<circle cx="191.47" cy="538.93" r="3.2" fill="#1d4ed8"/>
<circle cx="194.74" cy="538.93" r="3.2" fill="#1d4ed8"/>
<circle cx="198.02" cy="538.12" r="3.2" fill="#1d4ed8"/>
<circle cx="201.29" cy="536.91" r="3.2" fill="#1d4ed8"/>
<circle cx="204.56" cy="536.91" r="3.2" fill="#1d4ed8"/>
<circle cx="207.84" cy="536.51" r="3.2" fill="#1d4ed8"/>
<circle cx="211.11" cy="536.51" r="3.2" fill="#1d4ed8"/>
<circle cx="214.38" cy="556.73" r="3.2" fill="#1d4ed8"/>
<circle cx="217.66" cy="556.73" r="3.2" fill="#1d4ed8"/>
<circle cx="220.93" cy="556.73" r="3.2" fill="#1d4ed8"/>
<circle cx="224.20" cy="556.73" r="3.2" fill="#1d4ed8"/>
<circle cx="227.48" cy="535.29" r="3.2" fill="#1d4ed8"/>
<circle cx="230.75" cy="535.29" r="3.2" fill="#1d4ed8"/>
<circle cx="234.02" cy="535.29" r="3.2" fill="#1d4ed8"/>
<circle cx="237.30" cy="535.29" r="3.2" fill="#1d4ed8"/>
<circle cx="240.57" cy="534.49" r="3.2" fill="#1d4ed8"/>
<circle cx="243.84" cy="534.08" r="3.2" fill="#1d4ed8"/>
<circle cx="247.12" cy="533.68" r="3.2" fill="#1d4ed8"/>
<circle cx="250.39" cy="532.87" r="3.2" fill="#1d4ed8"/>
<circle cx="253.66" cy="532.06" r="3.2" fill="#1d4ed8"/>
<circle cx="256.94" cy="532.06" r="3.2" fill="#1d4ed8"/>
<circle cx="260.21" cy="531.25" r="3.2" fill="#1d4ed8"/>
<circle cx="263.48" cy="530.85" r="3.2" fill="#1d4ed8"/>
<circle cx="266.76" cy="530.44" r="3.2" fill="#1d4ed8"/>
<circle cx="270.03" cy="530.04" r="3.2" fill="#1d4ed8"/>
<circle cx="273.30" cy="530.04" r="3.2" fill="#1d4ed8"/>
<circle cx="276.58" cy="529.23" r="3.2" fill="#1d4ed8"/>
<circle cx="279.85" cy="529.23" r="3.2" fill="#1d4ed8"/>
<circle cx="283.12" cy="529.23" r="3.2" fill="#1d4ed8"/>
<circle cx="286.40" cy="528.42" r="3.2" fill="#1d4ed8"/>
<circle cx="289.67" cy="528.42" r="3.2" fill="#1d4ed8"/>
<circle cx="292.94" cy="527.61" r="3.2" fill="#1d4ed8"/>
<circle cx="296.22" cy="527.21" r="3.2" fill="#1d4ed8"/>
<circle cx="299.49" cy="526.80" r="3.2" fill="#1d4ed8"/>
<circle cx="302.76" cy="526.40" r="3.2" fill="#1d4ed8"/>
<circle cx="306.04" cy="525.18" r="3.2" fill="#1d4ed8"/>
<circle cx="309.31" cy="523.57" r="3.2" fill="#1d4ed8"/>
<circle cx="312.58" cy="523.57" r="3.2" fill="#1d4ed8"/>
<circle cx="315.86" cy="523.16" r="3.2" fill="#1d4ed8"/>
<circle cx="319.13" cy="522.76" r="3.2" fill="#1d4ed8"/>
<circle cx="322.40" cy="522.35" r="3.2" fill="#1d4ed8"/>
<circle cx="325.68" cy="521.54" r="3.2" fill="#1d4ed8"/>
<circle cx="328.95" cy="519.52" r="3.2" fill="#1d4ed8"/>
<circle cx="332.22" cy="517.50" r="3.2" fill="#1d4ed8"/>
<circle cx="335.50" cy="517.50" r="3.2" fill="#1d4ed8"/>
<circle cx="338.77" cy="517.50" r="3.2" fill="#1d4ed8"/>
<circle cx="342.04" cy="517.50" r="3.2" fill="#1d4ed8"/>
<circle cx="345.32" cy="517.50" r="3.2" fill="#1d4ed8"/>
<circle cx="348.59" cy="517.50" r="3.2" fill="#1d4ed8"/>
<circle cx="351.86" cy="517.10" r="3.2" fill="#1d4ed8"/>
<circle cx="355.14" cy="516.69" r="3.2" fill="#1d4ed8"/>
<circle cx="358.41" cy="515.48" r="3.2" fill="#1d4ed8"/>
<circle cx="361.68" cy="515.07" r="3.2" fill="#1d4ed8"/>
<circle cx="364.95" cy="514.67" r="3.2" fill="#1d4ed8"/>
<circle cx="368.23" cy="513.86" r="3.2" fill="#1d4ed8"/>
<circle cx="371.50" cy="514.26" r="3.2" fill="#1d4ed8"/>
<circle cx="374.77" cy="512.24" r="3.2" fill="#1d4ed8"/>
<circle cx="378.05" cy="511.84" r="3.2" fill="#1d4ed8"/>
<circle cx="381.32" cy="511.84" r="3.2" fill="#1d4ed8"/>
<circle cx="384.59" cy="511.03" r="3.2" fill="#1d4ed8"/>
<circle cx="387.87" cy="509.82" r="3.2" fill="#1d4ed8"/>
<circle cx="391.14" cy="507.79" r="3.2" fill="#1d4ed8"/>
<circle cx="394.41" cy="506.99" r="3.2" fill="#1d4ed8"/>
<circle cx="397.69" cy="506.58" r="3.2" fill="#1d4ed8"/>
<circle cx="400.96" cy="509.41" r="3.2" fill="#1d4ed8"/>
<circle cx="404.23" cy="509.01" r="3.2" fill="#1d4ed8"/>
<circle cx="407.51" cy="504.96" r="3.2" fill="#1d4ed8"/>
<circle cx="410.78" cy="504.56" r="3.2" fill="#1d4ed8"/>
<circle cx="414.05" cy="504.15" r="3.2" fill="#1d4ed8"/>
<circle cx="417.33" cy="504.56" r="3.2" fill="#1d4ed8"/>
<circle cx="420.60" cy="503.75" r="3.2" fill="#1d4ed8"/>
<circle cx="423.87" cy="503.75" r="3.2" fill="#1d4ed8"/>
<circle cx="427.15" cy="503.35" r="3.2" fill="#1d4ed8"/>
<circle cx="430.42" cy="499.30" r="3.2" fill="#1d4ed8"/>
<circle cx="433.69" cy="496.47" r="3.2" fill="#1d4ed8"/>
<circle cx="436.97" cy="490.00" r="3.2" fill="#1d4ed8"/>
<circle cx="440.24" cy="484.34" r="3.2" fill="#1d4ed8"/>
<circle cx="443.51" cy="481.10" r="3.2" fill="#1d4ed8"/>
<circle cx="446.79" cy="480.29" r="3.2" fill="#1d4ed8"/>
<circle cx="450.06" cy="480.70" r="3.2" fill="#1d4ed8"/>
<circle cx="453.33" cy="460.88" r="3.2" fill="#1d4ed8"/>
<circle cx="456.61" cy="459.26" r="3.2" fill="#1d4ed8"/>
<circle cx="459.88" cy="458.05" r="3.2" fill="#1d4ed8"/>
<circle cx="463.15" cy="456.03" r="3.2" fill="#1d4ed8"/>
<circle cx="466.43" cy="456.03" r="3.2" fill="#1d4ed8"/>
<circle cx="469.70" cy="454.41" r="3.2" fill="#1d4ed8"/>
<circle cx="472.97" cy="450.77" r="3.2" fill="#1d4ed8"/>
<circle cx="476.25" cy="444.30" r="3.2" fill="#1d4ed8"/>
<circle cx="479.52" cy="443.90" r="3.2" fill="#1d4ed8"/>
<circle cx="482.79" cy="600.00" r="3.2" fill="#1d4ed8"/>
<circle cx="486.07" cy="441.88" r="3.2" fill="#1d4ed8"/>
<circle cx="489.34" cy="440.66" r="3.2" fill="#1d4ed8"/>
<circle cx="492.61" cy="439.45" r="3.2" fill="#1d4ed8"/>
<circle cx="495.89" cy="439.04" r="3.2" fill="#1d4ed8"/>
<circle cx="499.16" cy="438.64" r="3.2" fill="#1d4ed8"/>
<circle cx="502.43" cy="437.83" r="3.2" fill="#1d4ed8"/>
<circle cx="505.71" cy="436.62" r="3.2" fill="#1d4ed8"/>
<circle cx="508.98" cy="436.62" r="3.2" fill="#1d4ed8"/>
<circle cx="512.25" cy="434.60" r="3.2" fill="#1d4ed8"/>
<circle cx="515.53" cy="432.17" r="3.2" fill="#1d4ed8"/>
<circle cx="518.80" cy="429.34" r="3.2" fill="#1d4ed8"/>
<circle cx="522.07" cy="428.93" r="3.2" fill="#1d4ed8"/>
<circle cx="525.35" cy="428.53" r="3.2" fill="#1d4ed8"/>
<circle cx="528.62" cy="427.72" r="3.2" fill="#1d4ed8"/>
<circle cx="531.89" cy="426.91" r="3.2" fill="#1d4ed8"/>
<circle cx="535.17" cy="426.10" r="3.2" fill="#1d4ed8"/>
<circle cx="538.44" cy="426.10" r="3.2" fill="#1d4ed8"/>
<circle cx="541.71" cy="426.10" r="3.2" fill="#1d4ed8"/>
<circle cx="544.98" cy="419.63" r="3.2" fill="#1d4ed8"/>
<circle cx="548.26" cy="419.23" r="3.2" fill="#1d4ed8"/>
<circle cx="551.53" cy="418.42" r="3.2" fill="#1d4ed8"/>
<circle cx="554.80" cy="418.01" r="3.2" fill="#1d4ed8"/>
<circle cx="558.08" cy="417.61" r="3.2" fill="#1d4ed8"/>
<circle cx="561.35" cy="417.61" r="3.2" fill="#1d4ed8"/>
<circle cx="564.62" cy="417.61" r="3.2" fill="#1d4ed8"/>
<circle cx="567.90" cy="417.21" r="3.2" fill="#1d4ed8"/>
<circle cx="571.17" cy="417.21" r="3.2" fill="#1d4ed8"/>
<circle cx="574.44" cy="413.57" r="3.2" fill="#1d4ed8"/>
<circle cx="577.72" cy="411.95" r="3.2" fill="#1d4ed8"/>
<circle cx="580.99" cy="412.76" r="3.2" fill="#1d4ed8"/>
<circle cx="584.26" cy="410.74" r="3.2" fill="#1d4ed8"/>
<circle cx="587.54" cy="410.74" r="3.2" fill="#1d4ed8"/>
<circle cx="590.81" cy="410.33" r="3.2" fill="#1d4ed8"/>
<circle cx="594.08" cy="410.33" r="3.2" fill="#1d4ed8"/>
<circle cx="597.36" cy="410.33" r="3.2" fill="#1d4ed8"/>
<circle cx="600.63" cy="409.93" r="3.2" fill="#1d4ed8"/>
<circle cx="603.90" cy="409.93" r="3.2" fill="#1d4ed8"/>
<circle cx="607.18" cy="409.93" r="3.2" fill="#1d4ed8"/>
<circle cx="610.45" cy="409.52" r="3.2" fill="#1d4ed8"/>
<circle cx="613.72" cy="409.52" r="3.2" fill="#1d4ed8"/>
<circle cx="617.00" cy="409.12" r="3.2" fill="#1d4ed8"/>
<circle cx="620.27" cy="409.52" r="3.2" fill="#1d4ed8"/>
<circle cx="623.54" cy="409.12" r="3.2" fill="#1d4ed8"/>
<circle cx="626.82" cy="407.50" r="3.2" fill="#1d4ed8"/>
<circle cx="630.09" cy="407.10" r="3.2" fill="#1d4ed8"/>
<circle cx="633.36" cy="403.05" r="3.2" fill="#1d4ed8"/>
<circle cx="636.64" cy="399.82" r="3.2" fill="#1d4ed8"/>
<circle cx="639.91" cy="400.22" r="3.2" fill="#1d4ed8"/>
<circle cx="643.18" cy="400.62" r="3.2" fill="#1d4ed8"/>
<circle cx="646.46" cy="400.62" r="3.2" fill="#1d4ed8"/>
<circle cx="649.73" cy="399.41" r="3.2" fill="#1d4ed8"/>
<circle cx="653.00" cy="392.94" r="3.2" fill="#1d4ed8"/>
<circle cx="656.28" cy="391.32" r="3.2" fill="#1d4ed8"/>
<circle cx="659.55" cy="389.30" r="3.2" fill="#1d4ed8"/>
<circle cx="662.82" cy="389.30" r="3.2" fill="#1d4ed8"/>
<circle cx="666.10" cy="388.49" r="3.2" fill="#1d4ed8"/>
<circle cx="669.37" cy="375.15" r="3.2" fill="#1d4ed8"/>
<circle cx="672.64" cy="374.74" r="3.2" fill="#1d4ed8"/>
<circle cx="675.92" cy="374.74" r="3.2" fill="#1d4ed8"/>
<circle cx="679.19" cy="374.74" r="3.2" fill="#1d4ed8"/>
<circle cx="682.46" cy="374.74" r="3.2" fill="#1d4ed8"/>
<circle cx="685.74" cy="374.34" r="3.2" fill="#1d4ed8"/>
<circle cx="689.01" cy="374.34" r="3.2" fill="#1d4ed8"/>
<circle cx="692.28" cy="374.34" r="3.2" fill="#1d4ed8"/>
<circle cx="695.56" cy="374.34" r="3.2" fill="#1d4ed8"/>
<circle cx="698.83" cy="374.34" r="3.2" fill="#1d4ed8"/>
<circle cx="702.10" cy="373.93" r="3.2" fill="#1d4ed8"/>
<circle cx="705.38" cy="373.12" r="3.2" fill="#1d4ed8"/>
<circle cx="708.65" cy="372.72" r="3.2" fill="#1d4ed8"/>
<circle cx="711.92" cy="373.53" r="3.2" fill="#1d4ed8"/>
<circle cx="715.20" cy="435.81" r="3.2" fill="#1d4ed8"/>
<circle cx="718.47" cy="372.32" r="3.2" fill="#1d4ed8"/>
<circle cx="721.74" cy="372.72" r="3.2" fill="#1d4ed8"/>
<circle cx="725.02" cy="371.91" r="3.2" fill="#1d4ed8"/>
<circle cx="728.29" cy="371.91" r="3.2" fill="#1d4ed8"/>
<circle cx="731.56" cy="372.32" r="3.2" fill="#1d4ed8"/>
<circle cx="734.83" cy="371.10" r="3.2" fill="#1d4ed8"/>
<circle cx="738.11" cy="369.89" r="3.2" fill="#1d4ed8"/>
<circle cx="741.38" cy="369.89" r="3.2" fill="#1d4ed8"/>
<circle cx="744.65" cy="369.89" r="3.2" fill="#1d4ed8"/>
<circle cx="747.93" cy="369.49" r="3.2" fill="#1d4ed8"/>
<circle cx="751.20" cy="369.89" r="3.2" fill="#1d4ed8"/>
<circle cx="754.47" cy="369.08" r="3.2" fill="#1d4ed8"/>
<circle cx="757.75" cy="368.68" r="3.2" fill="#1d4ed8"/>
<circle cx="761.02" cy="368.27" r="3.2" fill="#1d4ed8"/>
<circle cx="764.29" cy="367.87" r="3.2" fill="#1d4ed8"/>
<circle cx="767.57" cy="367.06" r="3.2" fill="#1d4ed8"/>
<circle cx="770.84" cy="367.46" r="3.2" fill="#1d4ed8"/>
<circle cx="774.11" cy="367.06" r="3.2" fill="#1d4ed8"/>
<circle cx="777.39" cy="366.25" r="3.2" fill="#1d4ed8"/>
<circle cx="780.66" cy="368.27" r="3.2" fill="#1d4ed8"/>
<circle cx="783.93" cy="368.68" r="3.2" fill="#1d4ed8"/>
<circle cx="787.21" cy="368.68" r="3.2" fill="#1d4ed8"/>
<circle cx="790.48" cy="368.27" r="3.2" fill="#1d4ed8"/>
<circle cx="793.75" cy="369.08" r="3.2" fill="#1d4ed8"/>
<circle cx="797.03" cy="367.87" r="3.2" fill="#1d4ed8"/>
<circle cx="800.30" cy="367.46" r="3.2" fill="#1d4ed8"/>
<circle cx="803.57" cy="367.06" r="3.2" fill="#1d4ed8"/>
<circle cx="806.85" cy="360.18" r="3.2" fill="#1d4ed8"/>
<circle cx="810.12" cy="359.78" r="3.2" fill="#1d4ed8"/>
<circle cx="813.39" cy="359.38" r="3.2" fill="#1d4ed8"/>
<circle cx="816.67" cy="356.95" r="3.2" fill="#1d4ed8"/>
<circle cx="819.94" cy="357.35" r="3.2" fill="#1d4ed8"/>
<circle cx="823.21" cy="357.76" r="3.2" fill="#1d4ed8"/>
<circle cx="826.49" cy="355.33" r="3.2" fill="#1d4ed8"/>
<circle cx="829.76" cy="355.74" r="3.2" fill="#1d4ed8"/>
<circle cx="833.03" cy="357.35" r="3.2" fill="#1d4ed8"/>
<circle cx="836.31" cy="355.33" r="3.2" fill="#1d4ed8"/>
<circle cx="839.58" cy="356.14" r="3.2" fill="#1d4ed8"/>
<circle cx="842.85" cy="355.74" r="3.2" fill="#1d4ed8"/>
<circle cx="846.13" cy="356.14" r="3.2" fill="#1d4ed8"/>
<circle cx="849.40" cy="354.12" r="3.2" fill="#1d4ed8"/>
<circle cx="852.67" cy="354.93" r="3.2" fill="#1d4ed8"/>
<circle cx="855.95" cy="356.14" r="3.2" fill="#1d4ed8"/>
<circle cx="859.22" cy="354.52" r="3.2" fill="#1d4ed8"/>
<circle cx="862.49" cy="353.71" r="3.2" fill="#1d4ed8"/>
<circle cx="865.77" cy="354.12" r="3.2" fill="#1d4ed8"/>
<circle cx="869.04" cy="354.93" r="3.2" fill="#1d4ed8"/>
<circle cx="872.31" cy="352.90" r="3.2" fill="#1d4ed8"/>
<circle cx="875.59" cy="353.71" r="3.2" fill="#1d4ed8"/>
<circle cx="878.86" cy="353.31" r="3.2" fill="#1d4ed8"/>
<circle cx="882.13" cy="353.31" r="3.2" fill="#1d4ed8"/>
<circle cx="885.41" cy="354.52" r="3.2" fill="#1d4ed8"/>
<circle cx="888.68" cy="352.90" r="3.2" fill="#1d4ed8"/>
<circle cx="891.95" cy="352.50" r="3.2" fill="#1d4ed8"/>
<circle cx="895.23" cy="352.50" r="3.2" fill="#1d4ed8"/>
<circle cx="898.50" cy="353.31" r="3.2" fill="#1d4ed8"/>
<circle cx="901.77" cy="352.50" r="3.2" fill="#1d4ed8"/>
<circle cx="905.05" cy="353.71" r="3.2" fill="#1d4ed8"/>
<circle cx="908.32" cy="354.12" r="3.2" fill="#1d4ed8"/>
<circle cx="911.59" cy="352.50" r="3.2" fill="#1d4ed8"/>
<circle cx="914.86" cy="352.90" r="3.2" fill="#1d4ed8"/>
<circle cx="918.14" cy="352.50" r="3.2" fill="#1d4ed8"/>
<circle cx="921.41" cy="352.10" r="3.2" fill="#1d4ed8"/>
<circle cx="924.68" cy="351.69" r="3.2" fill="#1d4ed8"/>
<circle cx="927.96" cy="352.10" r="3.2" fill="#1d4ed8"/>
<circle cx="931.23" cy="354.12" r="3.2" fill="#1d4ed8"/>
<circle cx="934.50" cy="352.50" r="3.2" fill="#1d4ed8"/>
<circle cx="937.78" cy="352.10" r="3.2" fill="#1d4ed8"/>
<circle cx="941.05" cy="352.10" r="3.2" fill="#1d4ed8"/>
<circle cx="944.32" cy="349.67" r="3.2" fill="#1d4ed8"/>
<circle cx="947.60" cy="349.67" r="3.2" fill="#1d4ed8"/>
<circle cx="950.87" cy="350.88" r="3.2" fill="#1d4ed8"/>
<circle cx="954.14" cy="351.29" r="3.2" fill="#1d4ed8"/>
<circle cx="957.42" cy="350.48" r="3.2" fill="#1d4ed8"/>
<circle cx="960.69" cy="352.10" r="3.2" fill="#1d4ed8"/>
<circle cx="963.96" cy="350.48" r="3.2" fill="#1d4ed8"/>
<circle cx="967.24" cy="350.48" r="3.2" fill="#1d4ed8"/>
<circle cx="970.51" cy="350.48" r="3.2" fill="#1d4ed8"/>
<circle cx="973.78" cy="350.07" r="3.2" fill="#1d4ed8"/>
<circle cx="977.06" cy="348.46" r="3.2" fill="#1d4ed8"/>
<circle cx="980.33" cy="351.29" r="3.2" fill="#1d4ed8"/>
<circle cx="983.60" cy="349.67" r="3.2" fill="#1d4ed8"/>
<circle cx="986.88" cy="351.29" r="3.2" fill="#1d4ed8"/>
<circle cx="990.15" cy="349.67" r="3.2" fill="#1d4ed8"/>
<circle cx="993.42" cy="348.86" r="3.2" fill="#1d4ed8"/>
<circle cx="996.70" cy="348.46" r="3.2" fill="#1d4ed8"/>
<circle cx="999.97" cy="348.46" r="3.2" fill="#1d4ed8"/>
<circle cx="1003.24" cy="347.24" r="3.2" fill="#1d4ed8"/>
<circle cx="1006.52" cy="348.86" r="3.2" fill="#1d4ed8"/>
<circle cx="1009.79" cy="346.84" r="3.2" fill="#1d4ed8"/>
<circle cx="1013.06" cy="348.46" r="3.2" fill="#1d4ed8"/>
<circle cx="1016.34" cy="348.86" r="3.2" fill="#1d4ed8"/>
<circle cx="1019.61" cy="346.84" r="3.2" fill="#1d4ed8"/>
<circle cx="1022.88" cy="349.26" r="3.2" fill="#1d4ed8"/>
<circle cx="1026.16" cy="348.05" r="3.2" fill="#1d4ed8"/>
<circle cx="1029.43" cy="349.26" r="3.2" fill="#1d4ed8"/>
<circle cx="1032.70" cy="349.26" r="3.2" fill="#1d4ed8"/>
<circle cx="1035.98" cy="350.48" r="3.2" fill="#1d4ed8"/>
<circle cx="1039.25" cy="352.90" r="3.2" fill="#1d4ed8"/>
<circle cx="1042.52" cy="349.67" r="3.2" fill="#1d4ed8"/>
<circle cx="1045.80" cy="348.46" r="3.2" fill="#1d4ed8"/>
<circle cx="1049.07" cy="345.62" r="3.2" fill="#1d4ed8"/>
<circle cx="1052.34" cy="344.82" r="3.2" fill="#1d4ed8"/>
<circle cx="1055.62" cy="344.41" r="3.2" fill="#1d4ed8"/>
<circle cx="1058.89" cy="342.39" r="3.2" fill="#1d4ed8"/>
<circle cx="1062.16" cy="341.18" r="3.2" fill="#1d4ed8"/>
<circle cx="1065.44" cy="341.58" r="3.2" fill="#1d4ed8"/>
<circle cx="1068.71" cy="339.15" r="3.2" fill="#1d4ed8"/>
<circle cx="1071.98" cy="338.35" r="3.2" fill="#1d4ed8"/>
<circle cx="1075.26" cy="337.54" r="3.2" fill="#1d4ed8"/>
<circle cx="1078.53" cy="336.73" r="3.2" fill="#1d4ed8"/>
<circle cx="1081.80" cy="335.92" r="3.2" fill="#1d4ed8"/>
<circle cx="1085.08" cy="337.54" r="3.2" fill="#1d4ed8"/>
<circle cx="1088.35" cy="338.35" r="3.2" fill="#1d4ed8"/>
<circle cx="1091.62" cy="337.54" r="3.2" fill="#1d4ed8"/>
<circle cx="1094.89" cy="337.54" r="3.2" fill="#1d4ed8"/>
<circle cx="1098.17" cy="337.54" r="3.2" fill="#1d4ed8"/>
<circle cx="1101.44" cy="333.09" r="3.2" fill="#1d4ed8"/>
<circle cx="1104.71" cy="333.90" r="3.2" fill="#1d4ed8"/>
<circle cx="1107.99" cy="335.92" r="3.2" fill="#1d4ed8"/>
<circle cx="1111.26" cy="336.73" r="3.2" fill="#1d4ed8"/>
<circle cx="1114.53" cy="335.51" r="3.2" fill="#1d4ed8"/>
<circle cx="1117.81" cy="332.28" r="3.2" fill="#1d4ed8"/>
<circle cx="1121.08" cy="331.47" r="3.2" fill="#1d4ed8"/>
<circle cx="1124.35" cy="331.07" r="3.2" fill="#1d4ed8"/>
<circle cx="1127.63" cy="331.47" r="3.2" fill="#1d4ed8"/>
<circle cx="1130.90" cy="331.07" r="3.2" fill="#1d4ed8"/>
<circle cx="1134.17" cy="331.07" r="3.2" fill="#1d4ed8"/>
<circle cx="1137.45" cy="331.07" r="3.2" fill="#1d4ed8"/>
<circle cx="1140.72" cy="331.07" r="3.2" fill="#1d4ed8"/>
<circle cx="1143.99" cy="331.07" r="3.2" fill="#1d4ed8"/>
<circle cx="1147.27" cy="331.07" r="3.2" fill="#1d4ed8"/>
<circle cx="1150.54" cy="331.07" r="3.2" fill="#1d4ed8"/>
<circle cx="1153.81" cy="331.07" r="3.2" fill="#1d4ed8"/>
<circle cx="1157.09" cy="331.07" r="3.2" fill="#1d4ed8"/>
<circle cx="1160.36" cy="331.07" r="3.2" fill="#1d4ed8"/>
<circle cx="1163.63" cy="331.47" r="3.2" fill="#1d4ed8"/>
<circle cx="1166.91" cy="331.88" r="3.2" fill="#1d4ed8"/>
<circle cx="1170.18" cy="331.07" r="3.2" fill="#1d4ed8"/>
<circle cx="1173.45" cy="331.47" r="3.2" fill="#1d4ed8"/>
<circle cx="1176.73" cy="331.07" r="3.2" fill="#1d4ed8"/>
<circle cx="1180.00" cy="331.47" r="3.2" fill="#1d4ed8"/>
<text x="635" y="695" text-anchor="middle" font-size="14" fill="#111" font-family="sans-serif">Date</text>
<text x="24" y="325" text-anchor="middle" font-size="14" fill="#111" transform="rotate(-90 24,325)" font-family="sans-serif">Passed files</text>
</svg>
