<?xml version="1.0" encoding="UTF-8"?>
<svg xmlns="http://www.w3.org/2000/svg" width="1280" height="720" viewBox="0 0 1280 720">
<rect width="100%" height="100%" fill="#ffffff"/>
<text x="640" y="30" text-anchor="middle" font-size="22" font-family="sans-serif">Roast passed files history</text>
<line x1="90" y1="600" x2="1180" y2="600" stroke="#333" stroke-width="1.5"/>
<line x1="90" y1="50" x2="90" y2="600" stroke="#333" stroke-width="1.5"/>
<line x1="90" y1="600.00" x2="1180" y2="600.00" stroke="#e5e7eb" stroke-width="1"/>
<text x="78" y="605.00" text-anchor="end" font-size="12" fill="#111" font-family="sans-serif">0</text>
<line x1="90" y1="397.79" x2="1180" y2="397.79" stroke="#e5e7eb" stroke-width="1"/>
<text x="78" y="402.79" text-anchor="end" font-size="12" fill="#111" font-family="sans-serif">500</text>
<line x1="90" y1="195.59" x2="1180" y2="195.59" stroke="#e5e7eb" stroke-width="1"/>
<text x="78" y="200.59" text-anchor="end" font-size="12" fill="#111" font-family="sans-serif">1000</text>
<line x1="90.00" y1="600" x2="90.00" y2="606" stroke="#333" stroke-width="1"/>
<text x="90.00" y="624" text-anchor="end" font-size="11" fill="#111" transform="rotate(-40 90.00,624)" font-family="sans-serif">2026-02-12</text>
<line x1="223.47" y1="600" x2="223.47" y2="606" stroke="#333" stroke-width="1"/>
<text x="223.47" y="624" text-anchor="end" font-size="11" fill="#111" transform="rotate(-40 223.47,624)" font-family="sans-serif">2026-02-17</text>
<line x1="356.94" y1="600" x2="356.94" y2="606" stroke="#333" stroke-width="1"/>
<text x="356.94" y="624" text-anchor="end" font-size="11" fill="#111" transform="rotate(-40 356.94,624)" font-family="sans-serif">2026-02-18</text>
<line x1="490.41" y1="600" x2="490.41" y2="606" stroke="#333" stroke-width="1"/>
<text x="490.41" y="624" text-anchor="end" font-size="11" fill="#111" transform="rotate(-40 490.41,624)" font-family="sans-serif">2026-02-21</text>
<line x1="623.88" y1="600" x2="623.88" y2="606" stroke="#333" stroke-width="1"/>
<text x="623.88" y="624" text-anchor="end" font-size="11" fill="#111" transform="rotate(-40 623.88,624)" font-family="sans-serif">2026-02-25</text>
<line x1="757.35" y1="600" x2="757.35" y2="606" stroke="#333" stroke-width="1"/>
<text x="757.35" y="624" text-anchor="end" font-size="11" fill="#111" transform="rotate(-40 757.35,624)" font-family="sans-serif">2026-02-26</text>
<line x1="890.82" y1="600" x2="890.82" y2="606" stroke="#333" stroke-width="1"/>
<text x="890.82" y="624" text-anchor="end" font-size="11" fill="#111" transform="rotate(-40 890.82,624)" font-family="sans-serif">2026-02-28</text>
<line x1="1024.29" y1="600" x2="1024.29" y2="606" stroke="#333" stroke-width="1"/>
<text x="1024.29" y="624" text-anchor="end" font-size="11" fill="#111" transform="rotate(-40 1024.29,624)" font-family="sans-serif">2026-03-01</text>
<line x1="1157.76" y1="600" x2="1157.76" y2="606" stroke="#333" stroke-width="1"/>
<text x="1157.76" y="624" text-anchor="end" font-size="11" fill="#111" transform="rotate(-40 1157.76,624)" font-family="sans-serif">2026-03-06</text>
<line x1="1180.00" y1="600" x2="1180.00" y2="606" stroke="#333" stroke-width="1"/>
<text x="1180.00" y="624" text-anchor="end" font-size="11" fill="#111" transform="rotate(-40 1180.00,624)" font-family="sans-serif">2026-03-06</text>
<line x1="90" y1="75.88" x2="1180" y2="75.88" stroke="#dc2626" stroke-width="1.5" stroke-dasharray="8,4"/>
<text x="1184" y="79.88" font-size="12" fill="#dc2626" font-family="sans-serif">Goal: 1296</text>
<polyline fill="none" stroke="#2563eb" stroke-width="3" points="90.00,540.55 94.45,538.53 98.90,536.91 103.35,534.49 107.80,534.49 112.24,533.27 116.69,532.46 121.14,532.87 125.59,532.06 130.04,532.46 134.49,532.06 138.94,568.46 143.39,568.46 147.84,566.43 152.29,545.00 156.73,545.00 161.18,544.19 165.63,543.79 170.08,543.79 174.53,543.38 178.98,541.76 183.43,541.36 187.88,540.96 192.33,540.96 196.78,539.34 201.22,539.34 205.67,556.73 210.12,556.73 214.57,555.51 219.02,551.07 223.47,538.93 227.92,538.93 232.37,538.93 236.82,538.12 241.27,536.91 245.71,536.91 250.16,536.51 254.61,536.51 259.06,556.73 263.51,556.73 267.96,556.73 272.41,556.73 276.86,535.29 281.31,535.29 285.76,535.29 290.20,535.29 294.65,534.49 299.10,534.08 303.55,533.68 308.00,532.87 312.45,532.06 316.90,532.06 321.35,531.25 325.80,530.85 330.24,530.44 334.69,530.04 339.14,530.04 343.59,529.23 348.04,529.23 352.49,529.23 356.94,528.42 361.39,528.42 365.84,527.61 370.29,527.21 374.73,526.80 379.18,526.40 383.63,525.18 388.08,523.57 392.53,523.57 396.98,523.16 401.43,522.76 405.88,522.35 410.33,521.54 414.78,519.52 419.22,517.50 423.67,517.50 428.12,517.50 432.57,517.50 437.02,517.50 441.47,517.50 445.92,517.10 450.37,516.69 454.82,515.48 459.27,515.07 463.71,514.67 468.16,513.86 472.61,514.26 477.06,512.24 481.51,511.84 485.96,511.84 490.41,511.03 494.86,509.82 499.31,507.79 503.76,506.99 508.20,506.58 512.65,509.41 517.10,509.01 521.55,504.96 526.00,504.56 530.45,504.15 534.90,504.56 539.35,503.75 543.80,503.75 548.24,503.35 552.69,499.30 557.14,496.47 561.59,490.00 566.04,484.34 570.49,481.10 574.94,480.29 579.39,480.70 583.84,460.88 588.29,459.26 592.73,458.05 597.18,456.03 601.63,456.03 606.08,454.41 610.53,450.77 614.98,444.30 619.43,443.90 623.88,600.00 628.33,441.88 632.78,440.66 637.22,439.45 641.67,439.04 646.12,438.64 650.57,437.83 655.02,436.62 659.47,436.62 663.92,434.60 668.37,432.17 672.82,429.34 677.27,428.93 681.71,428.53 686.16,427.72 690.61,426.91 695.06,426.10 699.51,426.10 703.96,426.10 708.41,419.63 712.86,419.23 717.31,418.42 721.76,418.01 726.20,417.61 730.65,417.61 735.10,417.61 739.55,417.21 744.00,417.21 748.45,413.57 752.90,411.95 757.35,412.76 761.80,410.74 766.24,410.74 770.69,410.33 775.14,410.33 779.59,410.33 784.04,409.93 788.49,409.93 792.94,409.93 797.39,409.52 801.84,409.52 806.29,409.12 810.73,409.52 815.18,409.12 819.63,407.50 824.08,407.10 828.53,403.05 832.98,399.82 837.43,400.22 841.88,400.62 846.33,400.62 850.78,399.41 855.22,392.94 859.67,391.32 864.12,389.30 868.57,389.30 873.02,388.49 877.47,375.15 881.92,374.74 886.37,374.74 890.82,374.74 895.27,374.74 899.71,374.34 904.16,374.34 908.61,374.34 913.06,374.34 917.51,374.34 921.96,373.93 926.41,373.12 930.86,372.72 935.31,373.53 939.76,435.81 944.20,372.32 948.65,372.72 953.10,371.91 957.55,371.91 962.00,372.32 966.45,371.10 970.90,369.89 975.35,369.89 979.80,369.89 984.24,369.49 988.69,369.89 993.14,369.08 997.59,368.68 1002.04,368.27 1006.49,367.87 1010.94,367.06 1015.39,367.46 1019.84,367.06 1024.29,366.25 1028.73,368.27 1033.18,368.68 1037.63,368.68 1042.08,368.27 1046.53,369.08 1050.98,367.87 1055.43,367.46 1059.88,367.06 1064.33,360.18 1068.78,359.78 1073.22,359.38 1077.67,356.95 1082.12,357.35 1086.57,357.76 1091.02,355.33 1095.47,355.74 1099.92,357.35 1104.37,355.33 1108.82,356.14 1113.27,355.74 1117.71,356.14 1122.16,354.12 1126.61,354.93 1131.06,356.14 1135.51,354.52 1139.96,353.71 1144.41,354.12 1148.86,354.93 1153.31,352.90 1157.76,353.71 1162.20,353.31 1166.65,353.31 1171.10,354.52 1175.55,352.90 1180.00,352.50"/>
<circle cx="90.00" cy="540.55" r="3.2" fill="#1d4ed8"/>
<circle cx="94.45" cy="538.53" r="3.2" fill="#1d4ed8"/>
<circle cx="98.90" cy="536.91" r="3.2" fill="#1d4ed8"/>
<circle cx="103.35" cy="534.49" r="3.2" fill="#1d4ed8"/>
<circle cx="107.80" cy="534.49" r="3.2" fill="#1d4ed8"/>
<circle cx="112.24" cy="533.27" r="3.2" fill="#1d4ed8"/>
<circle cx="116.69" cy="532.46" r="3.2" fill="#1d4ed8"/>
<circle cx="121.14" cy="532.87" r="3.2" fill="#1d4ed8"/>
<circle cx="125.59" cy="532.06" r="3.2" fill="#1d4ed8"/>
<circle cx="130.04" cy="532.46" r="3.2" fill="#1d4ed8"/>
<circle cx="134.49" cy="532.06" r="3.2" fill="#1d4ed8"/>
<circle cx="138.94" cy="568.46" r="3.2" fill="#1d4ed8"/>
<circle cx="143.39" cy="568.46" r="3.2" fill="#1d4ed8"/>
<circle cx="147.84" cy="566.43" r="3.2" fill="#1d4ed8"/>
<circle cx="152.29" cy="545.00" r="3.2" fill="#1d4ed8"/>
<circle cx="156.73" cy="545.00" r="3.2" fill="#1d4ed8"/>
<circle cx="161.18" cy="544.19" r="3.2" fill="#1d4ed8"/>
<circle cx="165.63" cy="543.79" r="3.2" fill="#1d4ed8"/>
<circle cx="170.08" cy="543.79" r="3.2" fill="#1d4ed8"/>
<circle cx="174.53" cy="543.38" r="3.2" fill="#1d4ed8"/>
<circle cx="178.98" cy="541.76" r="3.2" fill="#1d4ed8"/>
<circle cx="183.43" cy="541.36" r="3.2" fill="#1d4ed8"/>
<circle cx="187.88" cy="540.96" r="3.2" fill="#1d4ed8"/>
<circle cx="192.33" cy="540.96" r="3.2" fill="#1d4ed8"/>
<circle cx="196.78" cy="539.34" r="3.2" fill="#1d4ed8"/>
<circle cx="201.22" cy="539.34" r="3.2" fill="#1d4ed8"/>
<circle cx="205.67" cy="556.73" r="3.2" fill="#1d4ed8"/>
<circle cx="210.12" cy="556.73" r="3.2" fill="#1d4ed8"/>
<circle cx="214.57" cy="555.51" r="3.2" fill="#1d4ed8"/>
<circle cx="219.02" cy="551.07" r="3.2" fill="#1d4ed8"/>
<circle cx="223.47" cy="538.93" r="3.2" fill="#1d4ed8"/>
<circle cx="227.92" cy="538.93" r="3.2" fill="#1d4ed8"/>
<circle cx="232.37" cy="538.93" r="3.2" fill="#1d4ed8"/>
<circle cx="236.82" cy="538.12" r="3.2" fill="#1d4ed8"/>
<circle cx="241.27" cy="536.91" r="3.2" fill="#1d4ed8"/>
<circle cx="245.71" cy="536.91" r="3.2" fill="#1d4ed8"/>
<circle cx="250.16" cy="536.51" r="3.2" fill="#1d4ed8"/>
<circle cx="254.61" cy="536.51" r="3.2" fill="#1d4ed8"/>
<circle cx="259.06" cy="556.73" r="3.2" fill="#1d4ed8"/>
<circle cx="263.51" cy="556.73" r="3.2" fill="#1d4ed8"/>
<circle cx="267.96" cy="556.73" r="3.2" fill="#1d4ed8"/>
<circle cx="272.41" cy="556.73" r="3.2" fill="#1d4ed8"/>
<circle cx="276.86" cy="535.29" r="3.2" fill="#1d4ed8"/>
<circle cx="281.31" cy="535.29" r="3.2" fill="#1d4ed8"/>
<circle cx="285.76" cy="535.29" r="3.2" fill="#1d4ed8"/>
<circle cx="290.20" cy="535.29" r="3.2" fill="#1d4ed8"/>
<circle cx="294.65" cy="534.49" r="3.2" fill="#1d4ed8"/>
<circle cx="299.10" cy="534.08" r="3.2" fill="#1d4ed8"/>
<circle cx="303.55" cy="533.68" r="3.2" fill="#1d4ed8"/>
<circle cx="308.00" cy="532.87" r="3.2" fill="#1d4ed8"/>
<circle cx="312.45" cy="532.06" r="3.2" fill="#1d4ed8"/>
<circle cx="316.90" cy="532.06" r="3.2" fill="#1d4ed8"/>
<circle cx="321.35" cy="531.25" r="3.2" fill="#1d4ed8"/>
<circle cx="325.80" cy="530.85" r="3.2" fill="#1d4ed8"/>
<circle cx="330.24" cy="530.44" r="3.2" fill="#1d4ed8"/>
<circle cx="334.69" cy="530.04" r="3.2" fill="#1d4ed8"/>
<circle cx="339.14" cy="530.04" r="3.2" fill="#1d4ed8"/>
<circle cx="343.59" cy="529.23" r="3.2" fill="#1d4ed8"/>
<circle cx="348.04" cy="529.23" r="3.2" fill="#1d4ed8"/>
<circle cx="352.49" cy="529.23" r="3.2" fill="#1d4ed8"/>
<circle cx="356.94" cy="528.42" r="3.2" fill="#1d4ed8"/>
<circle cx="361.39" cy="528.42" r="3.2" fill="#1d4ed8"/>
<circle cx="365.84" cy="527.61" r="3.2" fill="#1d4ed8"/>
<circle cx="370.29" cy="527.21" r="3.2" fill="#1d4ed8"/>
<circle cx="374.73" cy="526.80" r="3.2" fill="#1d4ed8"/>
<circle cx="379.18" cy="526.40" r="3.2" fill="#1d4ed8"/>
<circle cx="383.63" cy="525.18" r="3.2" fill="#1d4ed8"/>
<circle cx="388.08" cy="523.57" r="3.2" fill="#1d4ed8"/>
<circle cx="392.53" cy="523.57" r="3.2" fill="#1d4ed8"/>
<circle cx="396.98" cy="523.16" r="3.2" fill="#1d4ed8"/>
<circle cx="401.43" cy="522.76" r="3.2" fill="#1d4ed8"/>
<circle cx="405.88" cy="522.35" r="3.2" fill="#1d4ed8"/>
<circle cx="410.33" cy="521.54" r="3.2" fill="#1d4ed8"/>
<circle cx="414.78" cy="519.52" r="3.2" fill="#1d4ed8"/>
<circle cx="419.22" cy="517.50" r="3.2" fill="#1d4ed8"/>
<circle cx="423.67" cy="517.50" r="3.2" fill="#1d4ed8"/>
<circle cx="428.12" cy="517.50" r="3.2" fill="#1d4ed8"/>
<circle cx="432.57" cy="517.50" r="3.2" fill="#1d4ed8"/>
<circle cx="437.02" cy="517.50" r="3.2" fill="#1d4ed8"/>
<circle cx="441.47" cy="517.50" r="3.2" fill="#1d4ed8"/>
<circle cx="445.92" cy="517.10" r="3.2" fill="#1d4ed8"/>
<circle cx="450.37" cy="516.69" r="3.2" fill="#1d4ed8"/>
<circle cx="454.82" cy="515.48" r="3.2" fill="#1d4ed8"/>
<circle cx="459.27" cy="515.07" r="3.2" fill="#1d4ed8"/>
<circle cx="463.71" cy="514.67" r="3.2" fill="#1d4ed8"/>
<circle cx="468.16" cy="513.86" r="3.2" fill="#1d4ed8"/>
<circle cx="472.61" cy="514.26" r="3.2" fill="#1d4ed8"/>
<circle cx="477.06" cy="512.24" r="3.2" fill="#1d4ed8"/>
<circle cx="481.51" cy="511.84" r="3.2" fill="#1d4ed8"/>
<circle cx="485.96" cy="511.84" r="3.2" fill="#1d4ed8"/>
<circle cx="490.41" cy="511.03" r="3.2" fill="#1d4ed8"/>
<circle cx="494.86" cy="509.82" r="3.2" fill="#1d4ed8"/>
<circle cx="499.31" cy="507.79" r="3.2" fill="#1d4ed8"/>
<circle cx="503.76" cy="506.99" r="3.2" fill="#1d4ed8"/>
<circle cx="508.20" cy="506.58" r="3.2" fill="#1d4ed8"/>
<circle cx="512.65" cy="509.41" r="3.2" fill="#1d4ed8"/>
<circle cx="517.10" cy="509.01" r="3.2" fill="#1d4ed8"/>
<circle cx="521.55" cy="504.96" r="3.2" fill="#1d4ed8"/>
<circle cx="526.00" cy="504.56" r="3.2" fill="#1d4ed8"/>
<circle cx="530.45" cy="504.15" r="3.2" fill="#1d4ed8"/>
<circle cx="534.90" cy="504.56" r="3.2" fill="#1d4ed8"/>
<circle cx="539.35" cy="503.75" r="3.2" fill="#1d4ed8"/>
<circle cx="543.80" cy="503.75" r="3.2" fill="#1d4ed8"/>
<circle cx="548.24" cy="503.35" r="3.2" fill="#1d4ed8"/>
<circle cx="552.69" cy="499.30" r="3.2" fill="#1d4ed8"/>
<circle cx="557.14" cy="496.47" r="3.2" fill="#1d4ed8"/>
<circle cx="561.59" cy="490.00" r="3.2" fill="#1d4ed8"/>
<circle cx="566.04" cy="484.34" r="3.2" fill="#1d4ed8"/>
<circle cx="570.49" cy="481.10" r="3.2" fill="#1d4ed8"/>
<circle cx="574.94" cy="480.29" r="3.2" fill="#1d4ed8"/>
<circle cx="579.39" cy="480.70" r="3.2" fill="#1d4ed8"/>
<circle cx="583.84" cy="460.88" r="3.2" fill="#1d4ed8"/>
<circle cx="588.29" cy="459.26" r="3.2" fill="#1d4ed8"/>
<circle cx="592.73" cy="458.05" r="3.2" fill="#1d4ed8"/>
<circle cx="597.18" cy="456.03" r="3.2" fill="#1d4ed8"/>
<circle cx="601.63" cy="456.03" r="3.2" fill="#1d4ed8"/>
<circle cx="606.08" cy="454.41" r="3.2" fill="#1d4ed8"/>
<circle cx="610.53" cy="450.77" r="3.2" fill="#1d4ed8"/>
<circle cx="614.98" cy="444.30" r="3.2" fill="#1d4ed8"/>
<circle cx="619.43" cy="443.90" r="3.2" fill="#1d4ed8"/>
<circle cx="623.88" cy="600.00" r="3.2" fill="#1d4ed8"/>
<circle cx="628.33" cy="441.88" r="3.2" fill="#1d4ed8"/>
<circle cx="632.78" cy="440.66" r="3.2" fill="#1d4ed8"/>
<circle cx="637.22" cy="439.45" r="3.2" fill="#1d4ed8"/>
<circle cx="641.67" cy="439.04" r="3.2" fill="#1d4ed8"/>
<circle cx="646.12" cy="438.64" r="3.2" fill="#1d4ed8"/>
<circle cx="650.57" cy="437.83" r="3.2" fill="#1d4ed8"/>
<circle cx="655.02" cy="436.62" r="3.2" fill="#1d4ed8"/>
<circle cx="659.47" cy="436.62" r="3.2" fill="#1d4ed8"/>
<circle cx="663.92" cy="434.60" r="3.2" fill="#1d4ed8"/>
<circle cx="668.37" cy="432.17" r="3.2" fill="#1d4ed8"/>
<circle cx="672.82" cy="429.34" r="3.2" fill="#1d4ed8"/>
<circle cx="677.27" cy="428.93" r="3.2" fill="#1d4ed8"/>
<circle cx="681.71" cy="428.53" r="3.2" fill="#1d4ed8"/>
<circle cx="686.16" cy="427.72" r="3.2" fill="#1d4ed8"/>
<circle cx="690.61" cy="426.91" r="3.2" fill="#1d4ed8"/>
<circle cx="695.06" cy="426.10" r="3.2" fill="#1d4ed8"/>
<circle cx="699.51" cy="426.10" r="3.2" fill="#1d4ed8"/>
<circle cx="703.96" cy="426.10" r="3.2" fill="#1d4ed8"/>
<circle cx="708.41" cy="419.63" r="3.2" fill="#1d4ed8"/>
<circle cx="712.86" cy="419.23" r="3.2" fill="#1d4ed8"/>
<circle cx="717.31" cy="418.42" r="3.2" fill="#1d4ed8"/>
<circle cx="721.76" cy="418.01" r="3.2" fill="#1d4ed8"/>
<circle cx="726.20" cy="417.61" r="3.2" fill="#1d4ed8"/>
<circle cx="730.65" cy="417.61" r="3.2" fill="#1d4ed8"/>
<circle cx="735.10" cy="417.61" r="3.2" fill="#1d4ed8"/>
<circle cx="739.55" cy="417.21" r="3.2" fill="#1d4ed8"/>
<circle cx="744.00" cy="417.21" r="3.2" fill="#1d4ed8"/>
<circle cx="748.45" cy="413.57" r="3.2" fill="#1d4ed8"/>
<circle cx="752.90" cy="411.95" r="3.2" fill="#1d4ed8"/>
<circle cx="757.35" cy="412.76" r="3.2" fill="#1d4ed8"/>
<circle cx="761.80" cy="410.74" r="3.2" fill="#1d4ed8"/>
<circle cx="766.24" cy="410.74" r="3.2" fill="#1d4ed8"/>
<circle cx="770.69" cy="410.33" r="3.2" fill="#1d4ed8"/>
<circle cx="775.14" cy="410.33" r="3.2" fill="#1d4ed8"/>
<circle cx="779.59" cy="410.33" r="3.2" fill="#1d4ed8"/>
<circle cx="784.04" cy="409.93" r="3.2" fill="#1d4ed8"/>
<circle cx="788.49" cy="409.93" r="3.2" fill="#1d4ed8"/>
<circle cx="792.94" cy="409.93" r="3.2" fill="#1d4ed8"/>
<circle cx="797.39" cy="409.52" r="3.2" fill="#1d4ed8"/>
<circle cx="801.84" cy="409.52" r="3.2" fill="#1d4ed8"/>
<circle cx="806.29" cy="409.12" r="3.2" fill="#1d4ed8"/>
<circle cx="810.73" cy="409.52" r="3.2" fill="#1d4ed8"/>
<circle cx="815.18" cy="409.12" r="3.2" fill="#1d4ed8"/>
<circle cx="819.63" cy="407.50" r="3.2" fill="#1d4ed8"/>
<circle cx="824.08" cy="407.10" r="3.2" fill="#1d4ed8"/>
<circle cx="828.53" cy="403.05" r="3.2" fill="#1d4ed8"/>
<circle cx="832.98" cy="399.82" r="3.2" fill="#1d4ed8"/>
<circle cx="837.43" cy="400.22" r="3.2" fill="#1d4ed8"/>
<circle cx="841.88" cy="400.62" r="3.2" fill="#1d4ed8"/>
<circle cx="846.33" cy="400.62" r="3.2" fill="#1d4ed8"/>
<circle cx="850.78" cy="399.41" r="3.2" fill="#1d4ed8"/>
<circle cx="855.22" cy="392.94" r="3.2" fill="#1d4ed8"/>
<circle cx="859.67" cy="391.32" r="3.2" fill="#1d4ed8"/>
<circle cx="864.12" cy="389.30" r="3.2" fill="#1d4ed8"/>
<circle cx="868.57" cy="389.30" r="3.2" fill="#1d4ed8"/>
<circle cx="873.02" cy="388.49" r="3.2" fill="#1d4ed8"/>
<circle cx="877.47" cy="375.15" r="3.2" fill="#1d4ed8"/>
<circle cx="881.92" cy="374.74" r="3.2" fill="#1d4ed8"/>
<circle cx="886.37" cy="374.74" r="3.2" fill="#1d4ed8"/>
<circle cx="890.82" cy="374.74" r="3.2" fill="#1d4ed8"/>
<circle cx="895.27" cy="374.74" r="3.2" fill="#1d4ed8"/>
<circle cx="899.71" cy="374.34" r="3.2" fill="#1d4ed8"/>
<circle cx="904.16" cy="374.34" r="3.2" fill="#1d4ed8"/>
<circle cx="908.61" cy="374.34" r="3.2" fill="#1d4ed8"/>
<circle cx="913.06" cy="374.34" r="3.2" fill="#1d4ed8"/>
<circle cx="917.51" cy="374.34" r="3.2" fill="#1d4ed8"/>
<circle cx="921.96" cy="373.93" r="3.2" fill="#1d4ed8"/>
<circle cx="926.41" cy="373.12" r="3.2" fill="#1d4ed8"/>
<circle cx="930.86" cy="372.72" r="3.2" fill="#1d4ed8"/>
<circle cx="935.31" cy="373.53" r="3.2" fill="#1d4ed8"/>
<circle cx="939.76" cy="435.81" r="3.2" fill="#1d4ed8"/>
<circle cx="944.20" cy="372.32" r="3.2" fill="#1d4ed8"/>
<circle cx="948.65" cy="372.72" r="3.2" fill="#1d4ed8"/>
<circle cx="953.10" cy="371.91" r="3.2" fill="#1d4ed8"/>
<circle cx="957.55" cy="371.91" r="3.2" fill="#1d4ed8"/>
<circle cx="962.00" cy="372.32" r="3.2" fill="#1d4ed8"/>
<circle cx="966.45" cy="371.10" r="3.2" fill="#1d4ed8"/>
<circle cx="970.90" cy="369.89" r="3.2" fill="#1d4ed8"/>
<circle cx="975.35" cy="369.89" r="3.2" fill="#1d4ed8"/>
<circle cx="979.80" cy="369.89" r="3.2" fill="#1d4ed8"/>
<circle cx="984.24" cy="369.49" r="3.2" fill="#1d4ed8"/>
<circle cx="988.69" cy="369.89" r="3.2" fill="#1d4ed8"/>
<circle cx="993.14" cy="369.08" r="3.2" fill="#1d4ed8"/>
<circle cx="997.59" cy="368.68" r="3.2" fill="#1d4ed8"/>
<circle cx="1002.04" cy="368.27" r="3.2" fill="#1d4ed8"/>
<circle cx="1006.49" cy="367.87" r="3.2" fill="#1d4ed8"/>
<circle cx="1010.94" cy="367.06" r="3.2" fill="#1d4ed8"/>
<circle cx="1015.39" cy="367.46" r="3.2" fill="#1d4ed8"/>
<circle cx="1019.84" cy="367.06" r="3.2" fill="#1d4ed8"/>
<circle cx="1024.29" cy="366.25" r="3.2" fill="#1d4ed8"/>
<circle cx="1028.73" cy="368.27" r="3.2" fill="#1d4ed8"/>
<circle cx="1033.18" cy="368.68" r="3.2" fill="#1d4ed8"/>
<circle cx="1037.63" cy="368.68" r="3.2" fill="#1d4ed8"/>
<circle cx="1042.08" cy="368.27" r="3.2" fill="#1d4ed8"/>
<circle cx="1046.53" cy="369.08" r="3.2" fill="#1d4ed8"/>
<circle cx="1050.98" cy="367.87" r="3.2" fill="#1d4ed8"/>
<circle cx="1055.43" cy="367.46" r="3.2" fill="#1d4ed8"/>
<circle cx="1059.88" cy="367.06" r="3.2" fill="#1d4ed8"/>
<circle cx="1064.33" cy="360.18" r="3.2" fill="#1d4ed8"/>
<circle cx="1068.78" cy="359.78" r="3.2" fill="#1d4ed8"/>
<circle cx="1073.22" cy="359.38" r="3.2" fill="#1d4ed8"/>
<circle cx="1077.67" cy="356.95" r="3.2" fill="#1d4ed8"/>
<circle cx="1082.12" cy="357.35" r="3.2" fill="#1d4ed8"/>
<circle cx="1086.57" cy="357.76" r="3.2" fill="#1d4ed8"/>
<circle cx="1091.02" cy="355.33" r="3.2" fill="#1d4ed8"/>
<circle cx="1095.47" cy="355.74" r="3.2" fill="#1d4ed8"/>
<circle cx="1099.92" cy="357.35" r="3.2" fill="#1d4ed8"/>
<circle cx="1104.37" cy="355.33" r="3.2" fill="#1d4ed8"/>
<circle cx="1108.82" cy="356.14" r="3.2" fill="#1d4ed8"/>
<circle cx="1113.27" cy="355.74" r="3.2" fill="#1d4ed8"/>
<circle cx="1117.71" cy="356.14" r="3.2" fill="#1d4ed8"/>
<circle cx="1122.16" cy="354.12" r="3.2" fill="#1d4ed8"/>
<circle cx="1126.61" cy="354.93" r="3.2" fill="#1d4ed8"/>
<circle cx="1131.06" cy="356.14" r="3.2" fill="#1d4ed8"/>
<circle cx="1135.51" cy="354.52" r="3.2" fill="#1d4ed8"/>
<circle cx="1139.96" cy="353.71" r="3.2" fill="#1d4ed8"/>
<circle cx="1144.41" cy="354.12" r="3.2" fill="#1d4ed8"/>
<circle cx="1148.86" cy="354.93" r="3.2" fill="#1d4ed8"/>
<circle cx="1153.31" cy="352.90" r="3.2" fill="#1d4ed8"/>
<circle cx="1157.76" cy="353.71" r="3.2" fill="#1d4ed8"/>
<circle cx="1162.20" cy="353.31" r="3.2" fill="#1d4ed8"/>
<circle cx="1166.65" cy="353.31" r="3.2" fill="#1d4ed8"/>
<circle cx="1171.10" cy="354.52" r="3.2" fill="#1d4ed8"/>
<circle cx="1175.55" cy="352.90" r="3.2" fill="#1d4ed8"/>
<circle cx="1180.00" cy="352.50" r="3.2" fill="#1d4ed8"/>
<text x="635" y="695" text-anchor="middle" font-size="14" fill="#111" font-family="sans-serif">Date</text>
<text x="24" y="325" text-anchor="middle" font-size="14" fill="#111" transform="rotate(-90 24,325)" font-family="sans-serif">Passed files</text>
</svg>
