<?xml version="1.0" encoding="UTF-8"?>
<svg xmlns="http://www.w3.org/2000/svg" width="1280" height="720" viewBox="0 0 1280 720">
<rect width="100%" height="100%" fill="#ffffff"/>
<text x="640" y="30" text-anchor="middle" font-size="22" font-family="sans-serif">Roast passed files history</text>
<line x1="90" y1="600" x2="1180" y2="600" stroke="#333" stroke-width="1.5"/>
<line x1="90" y1="50" x2="90" y2="600" stroke="#333" stroke-width="1.5"/>
<line x1="90" y1="600.00" x2="1180" y2="600.00" stroke="#e5e7eb" stroke-width="1"/>
<text x="78" y="605.00" text-anchor="end" font-size="12" fill="#111" font-family="sans-serif">0</text>
<line x1="90" y1="397.79" x2="1180" y2="397.79" stroke="#e5e7eb" stroke-width="1"/>
<text x="78" y="402.79" text-anchor="end" font-size="12" fill="#111" font-family="sans-serif">500</text>
<line x1="90" y1="195.59" x2="1180" y2="195.59" stroke="#e5e7eb" stroke-width="1"/>
<text x="78" y="200.59" text-anchor="end" font-size="12" fill="#111" font-family="sans-serif">1000</text>
<line x1="90.00" y1="600" x2="90.00" y2="606" stroke="#333" stroke-width="1"/>
<text x="90.00" y="624" text-anchor="end" font-size="11" fill="#111" transform="rotate(-40 90.00,624)" font-family="sans-serif">2026-02-12</text>
<line x1="225.93" y1="600" x2="225.93" y2="606" stroke="#333" stroke-width="1"/>
<text x="225.93" y="624" text-anchor="end" font-size="11" fill="#111" transform="rotate(-40 225.93,624)" font-family="sans-serif">2026-02-18</text>
<line x1="361.86" y1="600" x2="361.86" y2="606" stroke="#333" stroke-width="1"/>
<text x="361.86" y="624" text-anchor="end" font-size="11" fill="#111" transform="rotate(-40 361.86,624)" font-family="sans-serif">2026-02-24</text>
<line x1="497.79" y1="600" x2="497.79" y2="606" stroke="#333" stroke-width="1"/>
<text x="497.79" y="624" text-anchor="end" font-size="11" fill="#111" transform="rotate(-40 497.79,624)" font-family="sans-serif">2026-02-27</text>
<line x1="633.72" y1="600" x2="633.72" y2="606" stroke="#333" stroke-width="1"/>
<text x="633.72" y="624" text-anchor="end" font-size="11" fill="#111" transform="rotate(-40 633.72,624)" font-family="sans-serif">2026-03-03</text>
<line x1="769.65" y1="600" x2="769.65" y2="606" stroke="#333" stroke-width="1"/>
<text x="769.65" y="624" text-anchor="end" font-size="11" fill="#111" transform="rotate(-40 769.65,624)" font-family="sans-serif">2026-03-06</text>
<line x1="905.58" y1="600" x2="905.58" y2="606" stroke="#333" stroke-width="1"/>
<text x="905.58" y="624" text-anchor="end" font-size="11" fill="#111" transform="rotate(-40 905.58,624)" font-family="sans-serif">2026-03-11</text>
<line x1="1041.51" y1="600" x2="1041.51" y2="606" stroke="#333" stroke-width="1"/>
<text x="1041.51" y="624" text-anchor="end" font-size="11" fill="#111" transform="rotate(-40 1041.51,624)" font-family="sans-serif">2026-03-18</text>
<line x1="1177.44" y1="600" x2="1177.44" y2="606" stroke="#333" stroke-width="1"/>
<text x="1177.44" y="624" text-anchor="end" font-size="11" fill="#111" transform="rotate(-40 1177.44,624)" font-family="sans-serif">2026-03-20</text>
<line x1="1180.00" y1="600" x2="1180.00" y2="606" stroke="#333" stroke-width="1"/>
<text x="1180.00" y="624" text-anchor="end" font-size="11" fill="#111" transform="rotate(-40 1180.00,624)" font-family="sans-serif">2026-03-20</text>
<line x1="90" y1="75.88" x2="1180" y2="75.88" stroke="#dc2626" stroke-width="1.5" stroke-dasharray="8,4"/>
<text x="1184" y="79.88" font-size="12" fill="#dc2626" font-family="sans-serif">Goal: 1296</text>
<polyline fill="none" stroke="#2563eb" stroke-width="3" points="90.00,540.55 92.56,538.53 95.13,536.91 97.69,534.49 100.26,534.49 102.82,533.27 105.39,532.46 107.95,532.87 110.52,532.06 113.08,532.46 115.65,532.06 118.21,568.46 120.78,568.46 123.34,566.43 125.91,545.00 128.47,545.00 131.04,544.19 133.60,543.79 136.16,543.79 138.73,543.38 141.29,541.76 143.86,541.36 146.42,540.96 148.99,540.96 151.55,539.34 154.12,539.34 156.68,556.73 159.25,556.73 161.81,555.51 164.38,551.07 166.94,538.93 169.51,538.93 172.07,538.93 174.64,538.12 177.20,536.91 179.76,536.91 182.33,536.51 184.89,536.51 187.46,556.73 190.02,556.73 192.59,556.73 195.15,556.73 197.72,535.29 200.28,535.29 202.85,535.29 205.41,535.29 207.98,534.49 210.54,534.08 213.11,533.68 215.67,532.87 218.24,532.06 220.80,532.06 223.36,531.25 225.93,530.85 228.49,530.44 231.06,530.04 233.62,530.04 236.19,529.23 238.75,529.23 241.32,529.23 243.88,528.42 246.45,528.42 249.01,527.61 251.58,527.21 254.14,526.80 256.71,526.40 259.27,525.18 261.84,523.57 264.40,523.57 266.96,523.16 269.53,522.76 272.09,522.35 274.66,521.54 277.22,519.52 279.79,517.50 282.35,517.50 284.92,517.50 287.48,517.50 290.05,517.50 292.61,517.50 295.18,517.10 297.74,516.69 300.31,515.48 302.87,515.07 305.44,514.67 308.00,513.86 310.56,514.26 313.13,512.24 315.69,511.84 318.26,511.84 320.82,511.03 323.39,509.82 325.95,507.79 328.52,506.99 331.08,506.58 333.65,509.41 336.21,509.01 338.78,504.96 341.34,504.56 343.91,504.15 346.47,504.56 349.04,503.75 351.60,503.75 354.16,503.35 356.73,499.30 359.29,496.47 361.86,490.00 364.42,484.34 366.99,481.10 369.55,480.29 372.12,480.70 374.68,460.88 377.25,459.26 379.81,458.05 382.38,456.03 384.94,456.03 387.51,454.41 390.07,450.77 392.64,444.30 395.20,443.90 397.76,600.00 400.33,441.88 402.89,440.66 405.46,439.45 408.02,439.04 410.59,438.64 413.15,437.83 415.72,436.62 418.28,436.62 420.85,434.60 423.41,432.17 425.98,429.34 428.54,428.93 431.11,428.53 433.67,427.72 436.24,426.91 438.80,426.10 441.36,426.10 443.93,426.10 446.49,419.63 449.06,419.23 451.62,418.42 454.19,418.01 456.75,417.61 459.32,417.61 461.88,417.61 464.45,417.21 467.01,417.21 469.58,413.57 472.14,411.95 474.71,412.76 477.27,410.74 479.84,410.74 482.40,410.33 484.96,410.33 487.53,410.33 490.09,409.93 492.66,409.93 495.22,409.93 497.79,409.52 500.35,409.52 502.92,409.12 505.48,409.52 508.05,409.12 510.61,407.50 513.18,407.10 515.74,403.05 518.31,399.82 520.87,400.22 523.44,400.62 526.00,400.62 528.56,399.41 531.13,392.94 533.69,391.32 536.26,389.30 538.82,389.30 541.39,388.49 543.95,375.15 546.52,374.74 549.08,374.74 551.65,374.74 554.21,374.74 556.78,374.34 559.34,374.34 561.91,374.34 564.47,374.34 567.04,374.34 569.60,373.93 572.16,373.12 574.73,372.72 577.29,373.53 579.86,435.81 582.42,372.32 584.99,372.72 587.55,371.91 590.12,371.91 592.68,372.32 595.25,371.10 597.81,369.89 600.38,369.89 602.94,369.89 605.51,369.49 608.07,369.89 610.64,369.08 613.20,368.68 615.76,368.27 618.33,367.87 620.89,367.06 623.46,367.46 626.02,367.06 628.59,366.25 631.15,368.27 633.72,368.68 636.28,368.68 638.85,368.27 641.41,369.08 643.98,367.87 646.54,367.46 649.11,367.06 651.67,360.18 654.24,359.78 656.80,359.38 659.36,356.95 661.93,357.35 664.49,357.76 667.06,355.33 669.62,355.74 672.19,357.35 674.75,355.33 677.32,356.14 679.88,355.74 682.45,356.14 685.01,354.12 687.58,354.93 690.14,356.14 692.71,354.52 695.27,353.71 697.84,354.12 700.40,354.93 702.96,352.90 705.53,353.71 708.09,353.31 710.66,353.31 713.22,354.52 715.79,352.90 718.35,352.50 720.92,352.50 723.48,353.31 726.05,352.50 728.61,353.71 731.18,354.12 733.74,352.50 736.31,352.90 738.87,352.50 741.44,352.10 744.00,351.69 746.56,352.10 749.13,354.12 751.69,352.50 754.26,352.10 756.82,352.10 759.39,349.67 761.95,349.67 764.52,350.88 767.08,351.29 769.65,350.48 772.21,352.10 774.78,350.48 777.34,350.48 779.91,350.48 782.47,350.07 785.04,348.46 787.60,351.29 790.16,349.67 792.73,351.29 795.29,349.67 797.86,348.86 800.42,348.46 802.99,348.46 805.55,347.24 808.12,348.86 810.68,346.84 813.25,348.46 815.81,348.86 818.38,346.84 820.94,349.26 823.51,348.05 826.07,349.26 828.64,349.26 831.20,350.48 833.76,352.90 836.33,349.67 838.89,348.46 841.46,345.62 844.02,344.82 846.59,344.41 849.15,342.39 851.72,341.18 854.28,341.58 856.85,339.15 859.41,338.35 861.98,337.54 864.54,336.73 867.11,335.92 869.67,337.54 872.24,338.35 874.80,337.54 877.36,337.54 879.93,337.54 882.49,333.09 885.06,333.90 887.62,335.92 890.19,336.73 892.75,335.51 895.32,332.28 897.88,331.47 900.45,331.07 903.01,331.47 905.58,331.07 908.14,331.07 910.71,331.07 913.27,331.07 915.84,331.07 918.40,331.07 920.96,331.07 923.53,331.07 926.09,331.07 928.66,331.07 931.22,331.47 933.79,331.88 936.35,331.07 938.92,331.47 941.48,331.07 944.05,331.47 946.61,331.07 949.18,324.19 951.74,324.19 954.31,318.93 956.87,316.51 959.44,310.44 962.00,308.01 964.56,600.00 967.13,301.54 969.69,290.22 972.26,287.79 974.82,286.18 977.39,285.77 979.95,285.77 982.52,285.77 985.08,286.18 987.65,285.77 990.21,285.77 992.78,285.77 995.34,283.35 997.91,282.94 1000.47,282.94 1003.04,283.35 1005.60,282.94 1008.16,282.94 1010.73,283.75 1013.29,282.13 1015.86,282.13 1018.42,282.54 1020.99,282.13 1023.55,282.54 1026.12,282.94 1028.68,281.73 1031.25,282.54 1033.81,281.73 1036.38,282.54 1038.94,282.13 1041.51,282.13 1044.07,281.73 1046.64,281.73 1049.20,281.32 1051.76,281.73 1054.33,282.13 1056.89,281.32 1059.46,281.32 1062.02,282.54 1064.59,282.13 1067.15,281.32 1069.72,281.32 1072.28,281.32 1074.85,282.54 1077.41,282.13 1079.98,281.32 1082.54,282.13 1085.11,281.73 1087.67,282.13 1090.24,280.11 1092.80,280.11 1095.36,280.51 1097.93,279.71 1100.49,280.11 1103.06,280.51 1105.62,279.71 1108.19,280.11 1110.75,280.11 1113.32,279.30 1115.88,278.90 1118.45,278.90 1121.01,280.51 1123.58,279.30 1126.14,278.09 1128.71,278.49 1131.27,278.49 1133.84,277.28 1136.40,277.68 1138.96,277.68 1141.53,278.09 1144.09,277.28 1146.66,600.00 1149.22,278.90 1151.79,279.30 1154.35,278.90 1156.92,278.49 1159.48,278.49 1162.05,278.49 1164.61,278.49 1167.18,278.49 1169.74,278.49 1172.31,278.49 1174.87,278.49 1177.44,278.49 1180.00,278.49"/>
<circle cx="90.00" cy="540.55" r="3.2" fill="#1d4ed8"/>
<circle cx="92.56" cy="538.53" r="3.2" fill="#1d4ed8"/>
<circle cx="95.13" cy="536.91" r="3.2" fill="#1d4ed8"/>
<circle cx="97.69" cy="534.49" r="3.2" fill="#1d4ed8"/>
<circle cx="100.26" cy="534.49" r="3.2" fill="#1d4ed8"/>
<circle cx="102.82" cy="533.27" r="3.2" fill="#1d4ed8"/>
<circle cx="105.39" cy="532.46" r="3.2" fill="#1d4ed8"/>
<circle cx="107.95" cy="532.87" r="3.2" fill="#1d4ed8"/>
<circle cx="110.52" cy="532.06" r="3.2" fill="#1d4ed8"/>
<circle cx="113.08" cy="532.46" r="3.2" fill="#1d4ed8"/>
<circle cx="115.65" cy="532.06" r="3.2" fill="#1d4ed8"/>
<circle cx="118.21" cy="568.46" r="3.2" fill="#1d4ed8"/>
<circle cx="120.78" cy="568.46" r="3.2" fill="#1d4ed8"/>
<circle cx="123.34" cy="566.43" r="3.2" fill="#1d4ed8"/>
<circle cx="125.91" cy="545.00" r="3.2" fill="#1d4ed8"/>
<circle cx="128.47" cy="545.00" r="3.2" fill="#1d4ed8"/>
<circle cx="131.04" cy="544.19" r="3.2" fill="#1d4ed8"/>
<circle cx="133.60" cy="543.79" r="3.2" fill="#1d4ed8"/>
<circle cx="136.16" cy="543.79" r="3.2" fill="#1d4ed8"/>
<circle cx="138.73" cy="543.38" r="3.2" fill="#1d4ed8"/>
<circle cx="141.29" cy="541.76" r="3.2" fill="#1d4ed8"/>
<circle cx="143.86" cy="541.36" r="3.2" fill="#1d4ed8"/>
<circle cx="146.42" cy="540.96" r="3.2" fill="#1d4ed8"/>
<circle cx="148.99" cy="540.96" r="3.2" fill="#1d4ed8"/>
<circle cx="151.55" cy="539.34" r="3.2" fill="#1d4ed8"/>
<circle cx="154.12" cy="539.34" r="3.2" fill="#1d4ed8"/>
<circle cx="156.68" cy="556.73" r="3.2" fill="#1d4ed8"/>
<circle cx="159.25" cy="556.73" r="3.2" fill="#1d4ed8"/>
<circle cx="161.81" cy="555.51" r="3.2" fill="#1d4ed8"/>
<circle cx="164.38" cy="551.07" r="3.2" fill="#1d4ed8"/>
<circle cx="166.94" cy="538.93" r="3.2" fill="#1d4ed8"/>
<circle cx="169.51" cy="538.93" r="3.2" fill="#1d4ed8"/>
<circle cx="172.07" cy="538.93" r="3.2" fill="#1d4ed8"/>
<circle cx="174.64" cy="538.12" r="3.2" fill="#1d4ed8"/>
<circle cx="177.20" cy="536.91" r="3.2" fill="#1d4ed8"/>
<circle cx="179.76" cy="536.91" r="3.2" fill="#1d4ed8"/>
<circle cx="182.33" cy="536.51" r="3.2" fill="#1d4ed8"/>
<circle cx="184.89" cy="536.51" r="3.2" fill="#1d4ed8"/>
<circle cx="187.46" cy="556.73" r="3.2" fill="#1d4ed8"/>
<circle cx="190.02" cy="556.73" r="3.2" fill="#1d4ed8"/>
<circle cx="192.59" cy="556.73" r="3.2" fill="#1d4ed8"/>
<circle cx="195.15" cy="556.73" r="3.2" fill="#1d4ed8"/>
<circle cx="197.72" cy="535.29" r="3.2" fill="#1d4ed8"/>
<circle cx="200.28" cy="535.29" r="3.2" fill="#1d4ed8"/>
<circle cx="202.85" cy="535.29" r="3.2" fill="#1d4ed8"/>
<circle cx="205.41" cy="535.29" r="3.2" fill="#1d4ed8"/>
<circle cx="207.98" cy="534.49" r="3.2" fill="#1d4ed8"/>
<circle cx="210.54" cy="534.08" r="3.2" fill="#1d4ed8"/>
<circle cx="213.11" cy="533.68" r="3.2" fill="#1d4ed8"/>
<circle cx="215.67" cy="532.87" r="3.2" fill="#1d4ed8"/>
<circle cx="218.24" cy="532.06" r="3.2" fill="#1d4ed8"/>
<circle cx="220.80" cy="532.06" r="3.2" fill="#1d4ed8"/>
<circle cx="223.36" cy="531.25" r="3.2" fill="#1d4ed8"/>
<circle cx="225.93" cy="530.85" r="3.2" fill="#1d4ed8"/>
<circle cx="228.49" cy="530.44" r="3.2" fill="#1d4ed8"/>
<circle cx="231.06" cy="530.04" r="3.2" fill="#1d4ed8"/>
<circle cx="233.62" cy="530.04" r="3.2" fill="#1d4ed8"/>
<circle cx="236.19" cy="529.23" r="3.2" fill="#1d4ed8"/>
<circle cx="238.75" cy="529.23" r="3.2" fill="#1d4ed8"/>
<circle cx="241.32" cy="529.23" r="3.2" fill="#1d4ed8"/>
<circle cx="243.88" cy="528.42" r="3.2" fill="#1d4ed8"/>
<circle cx="246.45" cy="528.42" r="3.2" fill="#1d4ed8"/>
<circle cx="249.01" cy="527.61" r="3.2" fill="#1d4ed8"/>
<circle cx="251.58" cy="527.21" r="3.2" fill="#1d4ed8"/>
<circle cx="254.14" cy="526.80" r="3.2" fill="#1d4ed8"/>
<circle cx="256.71" cy="526.40" r="3.2" fill="#1d4ed8"/>
<circle cx="259.27" cy="525.18" r="3.2" fill="#1d4ed8"/>
<circle cx="261.84" cy="523.57" r="3.2" fill="#1d4ed8"/>
<circle cx="264.40" cy="523.57" r="3.2" fill="#1d4ed8"/>
<circle cx="266.96" cy="523.16" r="3.2" fill="#1d4ed8"/>
<circle cx="269.53" cy="522.76" r="3.2" fill="#1d4ed8"/>
<circle cx="272.09" cy="522.35" r="3.2" fill="#1d4ed8"/>
<circle cx="274.66" cy="521.54" r="3.2" fill="#1d4ed8"/>
<circle cx="277.22" cy="519.52" r="3.2" fill="#1d4ed8"/>
<circle cx="279.79" cy="517.50" r="3.2" fill="#1d4ed8"/>
<circle cx="282.35" cy="517.50" r="3.2" fill="#1d4ed8"/>
<circle cx="284.92" cy="517.50" r="3.2" fill="#1d4ed8"/>
<circle cx="287.48" cy="517.50" r="3.2" fill="#1d4ed8"/>
<circle cx="290.05" cy="517.50" r="3.2" fill="#1d4ed8"/>
<circle cx="292.61" cy="517.50" r="3.2" fill="#1d4ed8"/>
<circle cx="295.18" cy="517.10" r="3.2" fill="#1d4ed8"/>
<circle cx="297.74" cy="516.69" r="3.2" fill="#1d4ed8"/>
<circle cx="300.31" cy="515.48" r="3.2" fill="#1d4ed8"/>
<circle cx="302.87" cy="515.07" r="3.2" fill="#1d4ed8"/>
<circle cx="305.44" cy="514.67" r="3.2" fill="#1d4ed8"/>
<circle cx="308.00" cy="513.86" r="3.2" fill="#1d4ed8"/>
<circle cx="310.56" cy="514.26" r="3.2" fill="#1d4ed8"/>
<circle cx="313.13" cy="512.24" r="3.2" fill="#1d4ed8"/>
<circle cx="315.69" cy="511.84" r="3.2" fill="#1d4ed8"/>
<circle cx="318.26" cy="511.84" r="3.2" fill="#1d4ed8"/>
<circle cx="320.82" cy="511.03" r="3.2" fill="#1d4ed8"/>
<circle cx="323.39" cy="509.82" r="3.2" fill="#1d4ed8"/>
<circle cx="325.95" cy="507.79" r="3.2" fill="#1d4ed8"/>
<circle cx="328.52" cy="506.99" r="3.2" fill="#1d4ed8"/>
<circle cx="331.08" cy="506.58" r="3.2" fill="#1d4ed8"/>
<circle cx="333.65" cy="509.41" r="3.2" fill="#1d4ed8"/>
<circle cx="336.21" cy="509.01" r="3.2" fill="#1d4ed8"/>
<circle cx="338.78" cy="504.96" r="3.2" fill="#1d4ed8"/>
<circle cx="341.34" cy="504.56" r="3.2" fill="#1d4ed8"/>
<circle cx="343.91" cy="504.15" r="3.2" fill="#1d4ed8"/>
<circle cx="346.47" cy="504.56" r="3.2" fill="#1d4ed8"/>
<circle cx="349.04" cy="503.75" r="3.2" fill="#1d4ed8"/>
<circle cx="351.60" cy="503.75" r="3.2" fill="#1d4ed8"/>
<circle cx="354.16" cy="503.35" r="3.2" fill="#1d4ed8"/>
<circle cx="356.73" cy="499.30" r="3.2" fill="#1d4ed8"/>
<circle cx="359.29" cy="496.47" r="3.2" fill="#1d4ed8"/>
<circle cx="361.86" cy="490.00" r="3.2" fill="#1d4ed8"/>
<circle cx="364.42" cy="484.34" r="3.2" fill="#1d4ed8"/>
<circle cx="366.99" cy="481.10" r="3.2" fill="#1d4ed8"/>
<circle cx="369.55" cy="480.29" r="3.2" fill="#1d4ed8"/>
<circle cx="372.12" cy="480.70" r="3.2" fill="#1d4ed8"/>
<circle cx="374.68" cy="460.88" r="3.2" fill="#1d4ed8"/>
<circle cx="377.25" cy="459.26" r="3.2" fill="#1d4ed8"/>
<circle cx="379.81" cy="458.05" r="3.2" fill="#1d4ed8"/>
<circle cx="382.38" cy="456.03" r="3.2" fill="#1d4ed8"/>
<circle cx="384.94" cy="456.03" r="3.2" fill="#1d4ed8"/>
<circle cx="387.51" cy="454.41" r="3.2" fill="#1d4ed8"/>
<circle cx="390.07" cy="450.77" r="3.2" fill="#1d4ed8"/>
<circle cx="392.64" cy="444.30" r="3.2" fill="#1d4ed8"/>
<circle cx="395.20" cy="443.90" r="3.2" fill="#1d4ed8"/>
<circle cx="397.76" cy="600.00" r="3.2" fill="#1d4ed8"/>
<circle cx="400.33" cy="441.88" r="3.2" fill="#1d4ed8"/>
<circle cx="402.89" cy="440.66" r="3.2" fill="#1d4ed8"/>
<circle cx="405.46" cy="439.45" r="3.2" fill="#1d4ed8"/>
<circle cx="408.02" cy="439.04" r="3.2" fill="#1d4ed8"/>
<circle cx="410.59" cy="438.64" r="3.2" fill="#1d4ed8"/>
<circle cx="413.15" cy="437.83" r="3.2" fill="#1d4ed8"/>
<circle cx="415.72" cy="436.62" r="3.2" fill="#1d4ed8"/>
<circle cx="418.28" cy="436.62" r="3.2" fill="#1d4ed8"/>
<circle cx="420.85" cy="434.60" r="3.2" fill="#1d4ed8"/>
<circle cx="423.41" cy="432.17" r="3.2" fill="#1d4ed8"/>
<circle cx="425.98" cy="429.34" r="3.2" fill="#1d4ed8"/>
<circle cx="428.54" cy="428.93" r="3.2" fill="#1d4ed8"/>
<circle cx="431.11" cy="428.53" r="3.2" fill="#1d4ed8"/>
<circle cx="433.67" cy="427.72" r="3.2" fill="#1d4ed8"/>
<circle cx="436.24" cy="426.91" r="3.2" fill="#1d4ed8"/>
<circle cx="438.80" cy="426.10" r="3.2" fill="#1d4ed8"/>
<circle cx="441.36" cy="426.10" r="3.2" fill="#1d4ed8"/>
<circle cx="443.93" cy="426.10" r="3.2" fill="#1d4ed8"/>
<circle cx="446.49" cy="419.63" r="3.2" fill="#1d4ed8"/>
<circle cx="449.06" cy="419.23" r="3.2" fill="#1d4ed8"/>
<circle cx="451.62" cy="418.42" r="3.2" fill="#1d4ed8"/>
<circle cx="454.19" cy="418.01" r="3.2" fill="#1d4ed8"/>
<circle cx="456.75" cy="417.61" r="3.2" fill="#1d4ed8"/>
<circle cx="459.32" cy="417.61" r="3.2" fill="#1d4ed8"/>
<circle cx="461.88" cy="417.61" r="3.2" fill="#1d4ed8"/>
<circle cx="464.45" cy="417.21" r="3.2" fill="#1d4ed8"/>
<circle cx="467.01" cy="417.21" r="3.2" fill="#1d4ed8"/>
<circle cx="469.58" cy="413.57" r="3.2" fill="#1d4ed8"/>
<circle cx="472.14" cy="411.95" r="3.2" fill="#1d4ed8"/>
<circle cx="474.71" cy="412.76" r="3.2" fill="#1d4ed8"/>
<circle cx="477.27" cy="410.74" r="3.2" fill="#1d4ed8"/>
<circle cx="479.84" cy="410.74" r="3.2" fill="#1d4ed8"/>
<circle cx="482.40" cy="410.33" r="3.2" fill="#1d4ed8"/>
<circle cx="484.96" cy="410.33" r="3.2" fill="#1d4ed8"/>
<circle cx="487.53" cy="410.33" r="3.2" fill="#1d4ed8"/>
<circle cx="490.09" cy="409.93" r="3.2" fill="#1d4ed8"/>
<circle cx="492.66" cy="409.93" r="3.2" fill="#1d4ed8"/>
<circle cx="495.22" cy="409.93" r="3.2" fill="#1d4ed8"/>
<circle cx="497.79" cy="409.52" r="3.2" fill="#1d4ed8"/>
<circle cx="500.35" cy="409.52" r="3.2" fill="#1d4ed8"/>
<circle cx="502.92" cy="409.12" r="3.2" fill="#1d4ed8"/>
<circle cx="505.48" cy="409.52" r="3.2" fill="#1d4ed8"/>
<circle cx="508.05" cy="409.12" r="3.2" fill="#1d4ed8"/>
<circle cx="510.61" cy="407.50" r="3.2" fill="#1d4ed8"/>
<circle cx="513.18" cy="407.10" r="3.2" fill="#1d4ed8"/>
<circle cx="515.74" cy="403.05" r="3.2" fill="#1d4ed8"/>
<circle cx="518.31" cy="399.82" r="3.2" fill="#1d4ed8"/>
<circle cx="520.87" cy="400.22" r="3.2" fill="#1d4ed8"/>
<circle cx="523.44" cy="400.62" r="3.2" fill="#1d4ed8"/>
<circle cx="526.00" cy="400.62" r="3.2" fill="#1d4ed8"/>
<circle cx="528.56" cy="399.41" r="3.2" fill="#1d4ed8"/>
<circle cx="531.13" cy="392.94" r="3.2" fill="#1d4ed8"/>
<circle cx="533.69" cy="391.32" r="3.2" fill="#1d4ed8"/>
<circle cx="536.26" cy="389.30" r="3.2" fill="#1d4ed8"/>
<circle cx="538.82" cy="389.30" r="3.2" fill="#1d4ed8"/>
<circle cx="541.39" cy="388.49" r="3.2" fill="#1d4ed8"/>
<circle cx="543.95" cy="375.15" r="3.2" fill="#1d4ed8"/>
<circle cx="546.52" cy="374.74" r="3.2" fill="#1d4ed8"/>
<circle cx="549.08" cy="374.74" r="3.2" fill="#1d4ed8"/>
<circle cx="551.65" cy="374.74" r="3.2" fill="#1d4ed8"/>
<circle cx="554.21" cy="374.74" r="3.2" fill="#1d4ed8"/>
<circle cx="556.78" cy="374.34" r="3.2" fill="#1d4ed8"/>
<circle cx="559.34" cy="374.34" r="3.2" fill="#1d4ed8"/>
<circle cx="561.91" cy="374.34" r="3.2" fill="#1d4ed8"/>
<circle cx="564.47" cy="374.34" r="3.2" fill="#1d4ed8"/>
<circle cx="567.04" cy="374.34" r="3.2" fill="#1d4ed8"/>
<circle cx="569.60" cy="373.93" r="3.2" fill="#1d4ed8"/>
<circle cx="572.16" cy="373.12" r="3.2" fill="#1d4ed8"/>
<circle cx="574.73" cy="372.72" r="3.2" fill="#1d4ed8"/>
<circle cx="577.29" cy="373.53" r="3.2" fill="#1d4ed8"/>
<circle cx="579.86" cy="435.81" r="3.2" fill="#1d4ed8"/>
<circle cx="582.42" cy="372.32" r="3.2" fill="#1d4ed8"/>
<circle cx="584.99" cy="372.72" r="3.2" fill="#1d4ed8"/>
<circle cx="587.55" cy="371.91" r="3.2" fill="#1d4ed8"/>
<circle cx="590.12" cy="371.91" r="3.2" fill="#1d4ed8"/>
<circle cx="592.68" cy="372.32" r="3.2" fill="#1d4ed8"/>
<circle cx="595.25" cy="371.10" r="3.2" fill="#1d4ed8"/>
<circle cx="597.81" cy="369.89" r="3.2" fill="#1d4ed8"/>
<circle cx="600.38" cy="369.89" r="3.2" fill="#1d4ed8"/>
<circle cx="602.94" cy="369.89" r="3.2" fill="#1d4ed8"/>
<circle cx="605.51" cy="369.49" r="3.2" fill="#1d4ed8"/>
<circle cx="608.07" cy="369.89" r="3.2" fill="#1d4ed8"/>
<circle cx="610.64" cy="369.08" r="3.2" fill="#1d4ed8"/>
<circle cx="613.20" cy="368.68" r="3.2" fill="#1d4ed8"/>
<circle cx="615.76" cy="368.27" r="3.2" fill="#1d4ed8"/>
<circle cx="618.33" cy="367.87" r="3.2" fill="#1d4ed8"/>
<circle cx="620.89" cy="367.06" r="3.2" fill="#1d4ed8"/>
<circle cx="623.46" cy="367.46" r="3.2" fill="#1d4ed8"/>
<circle cx="626.02" cy="367.06" r="3.2" fill="#1d4ed8"/>
<circle cx="628.59" cy="366.25" r="3.2" fill="#1d4ed8"/>
<circle cx="631.15" cy="368.27" r="3.2" fill="#1d4ed8"/>
<circle cx="633.72" cy="368.68" r="3.2" fill="#1d4ed8"/>
<circle cx="636.28" cy="368.68" r="3.2" fill="#1d4ed8"/>
<circle cx="638.85" cy="368.27" r="3.2" fill="#1d4ed8"/>
<circle cx="641.41" cy="369.08" r="3.2" fill="#1d4ed8"/>
<circle cx="643.98" cy="367.87" r="3.2" fill="#1d4ed8"/>
<circle cx="646.54" cy="367.46" r="3.2" fill="#1d4ed8"/>
<circle cx="649.11" cy="367.06" r="3.2" fill="#1d4ed8"/>
<circle cx="651.67" cy="360.18" r="3.2" fill="#1d4ed8"/>
<circle cx="654.24" cy="359.78" r="3.2" fill="#1d4ed8"/>
<circle cx="656.80" cy="359.38" r="3.2" fill="#1d4ed8"/>
<circle cx="659.36" cy="356.95" r="3.2" fill="#1d4ed8"/>
<circle cx="661.93" cy="357.35" r="3.2" fill="#1d4ed8"/>
<circle cx="664.49" cy="357.76" r="3.2" fill="#1d4ed8"/>
<circle cx="667.06" cy="355.33" r="3.2" fill="#1d4ed8"/>
<circle cx="669.62" cy="355.74" r="3.2" fill="#1d4ed8"/>
<circle cx="672.19" cy="357.35" r="3.2" fill="#1d4ed8"/>
<circle cx="674.75" cy="355.33" r="3.2" fill="#1d4ed8"/>
<circle cx="677.32" cy="356.14" r="3.2" fill="#1d4ed8"/>
<circle cx="679.88" cy="355.74" r="3.2" fill="#1d4ed8"/>
<circle cx="682.45" cy="356.14" r="3.2" fill="#1d4ed8"/>
<circle cx="685.01" cy="354.12" r="3.2" fill="#1d4ed8"/>
<circle cx="687.58" cy="354.93" r="3.2" fill="#1d4ed8"/>
<circle cx="690.14" cy="356.14" r="3.2" fill="#1d4ed8"/>
<circle cx="692.71" cy="354.52" r="3.2" fill="#1d4ed8"/>
<circle cx="695.27" cy="353.71" r="3.2" fill="#1d4ed8"/>
<circle cx="697.84" cy="354.12" r="3.2" fill="#1d4ed8"/>
<circle cx="700.40" cy="354.93" r="3.2" fill="#1d4ed8"/>
<circle cx="702.96" cy="352.90" r="3.2" fill="#1d4ed8"/>
<circle cx="705.53" cy="353.71" r="3.2" fill="#1d4ed8"/>
<circle cx="708.09" cy="353.31" r="3.2" fill="#1d4ed8"/>
<circle cx="710.66" cy="353.31" r="3.2" fill="#1d4ed8"/>
<circle cx="713.22" cy="354.52" r="3.2" fill="#1d4ed8"/>
<circle cx="715.79" cy="352.90" r="3.2" fill="#1d4ed8"/>
<circle cx="718.35" cy="352.50" r="3.2" fill="#1d4ed8"/>
<circle cx="720.92" cy="352.50" r="3.2" fill="#1d4ed8"/>
<circle cx="723.48" cy="353.31" r="3.2" fill="#1d4ed8"/>
<circle cx="726.05" cy="352.50" r="3.2" fill="#1d4ed8"/>
<circle cx="728.61" cy="353.71" r="3.2" fill="#1d4ed8"/>
<circle cx="731.18" cy="354.12" r="3.2" fill="#1d4ed8"/>
<circle cx="733.74" cy="352.50" r="3.2" fill="#1d4ed8"/>
<circle cx="736.31" cy="352.90" r="3.2" fill="#1d4ed8"/>
<circle cx="738.87" cy="352.50" r="3.2" fill="#1d4ed8"/>
<circle cx="741.44" cy="352.10" r="3.2" fill="#1d4ed8"/>
<circle cx="744.00" cy="351.69" r="3.2" fill="#1d4ed8"/>
<circle cx="746.56" cy="352.10" r="3.2" fill="#1d4ed8"/>
<circle cx="749.13" cy="354.12" r="3.2" fill="#1d4ed8"/>
<circle cx="751.69" cy="352.50" r="3.2" fill="#1d4ed8"/>
<circle cx="754.26" cy="352.10" r="3.2" fill="#1d4ed8"/>
<circle cx="756.82" cy="352.10" r="3.2" fill="#1d4ed8"/>
<circle cx="759.39" cy="349.67" r="3.2" fill="#1d4ed8"/>
<circle cx="761.95" cy="349.67" r="3.2" fill="#1d4ed8"/>
<circle cx="764.52" cy="350.88" r="3.2" fill="#1d4ed8"/>
<circle cx="767.08" cy="351.29" r="3.2" fill="#1d4ed8"/>
<circle cx="769.65" cy="350.48" r="3.2" fill="#1d4ed8"/>
<circle cx="772.21" cy="352.10" r="3.2" fill="#1d4ed8"/>
<circle cx="774.78" cy="350.48" r="3.2" fill="#1d4ed8"/>
<circle cx="777.34" cy="350.48" r="3.2" fill="#1d4ed8"/>
<circle cx="779.91" cy="350.48" r="3.2" fill="#1d4ed8"/>
<circle cx="782.47" cy="350.07" r="3.2" fill="#1d4ed8"/>
<circle cx="785.04" cy="348.46" r="3.2" fill="#1d4ed8"/>
<circle cx="787.60" cy="351.29" r="3.2" fill="#1d4ed8"/>
<circle cx="790.16" cy="349.67" r="3.2" fill="#1d4ed8"/>
<circle cx="792.73" cy="351.29" r="3.2" fill="#1d4ed8"/>
<circle cx="795.29" cy="349.67" r="3.2" fill="#1d4ed8"/>
<circle cx="797.86" cy="348.86" r="3.2" fill="#1d4ed8"/>
<circle cx="800.42" cy="348.46" r="3.2" fill="#1d4ed8"/>
<circle cx="802.99" cy="348.46" r="3.2" fill="#1d4ed8"/>
<circle cx="805.55" cy="347.24" r="3.2" fill="#1d4ed8"/>
<circle cx="808.12" cy="348.86" r="3.2" fill="#1d4ed8"/>
<circle cx="810.68" cy="346.84" r="3.2" fill="#1d4ed8"/>
<circle cx="813.25" cy="348.46" r="3.2" fill="#1d4ed8"/>
<circle cx="815.81" cy="348.86" r="3.2" fill="#1d4ed8"/>
<circle cx="818.38" cy="346.84" r="3.2" fill="#1d4ed8"/>
<circle cx="820.94" cy="349.26" r="3.2" fill="#1d4ed8"/>
<circle cx="823.51" cy="348.05" r="3.2" fill="#1d4ed8"/>
<circle cx="826.07" cy="349.26" r="3.2" fill="#1d4ed8"/>
<circle cx="828.64" cy="349.26" r="3.2" fill="#1d4ed8"/>
<circle cx="831.20" cy="350.48" r="3.2" fill="#1d4ed8"/>
<circle cx="833.76" cy="352.90" r="3.2" fill="#1d4ed8"/>
<circle cx="836.33" cy="349.67" r="3.2" fill="#1d4ed8"/>
<circle cx="838.89" cy="348.46" r="3.2" fill="#1d4ed8"/>
<circle cx="841.46" cy="345.62" r="3.2" fill="#1d4ed8"/>
<circle cx="844.02" cy="344.82" r="3.2" fill="#1d4ed8"/>
<circle cx="846.59" cy="344.41" r="3.2" fill="#1d4ed8"/>
<circle cx="849.15" cy="342.39" r="3.2" fill="#1d4ed8"/>
<circle cx="851.72" cy="341.18" r="3.2" fill="#1d4ed8"/>
<circle cx="854.28" cy="341.58" r="3.2" fill="#1d4ed8"/>
<circle cx="856.85" cy="339.15" r="3.2" fill="#1d4ed8"/>
<circle cx="859.41" cy="338.35" r="3.2" fill="#1d4ed8"/>
<circle cx="861.98" cy="337.54" r="3.2" fill="#1d4ed8"/>
<circle cx="864.54" cy="336.73" r="3.2" fill="#1d4ed8"/>
<circle cx="867.11" cy="335.92" r="3.2" fill="#1d4ed8"/>
<circle cx="869.67" cy="337.54" r="3.2" fill="#1d4ed8"/>
<circle cx="872.24" cy="338.35" r="3.2" fill="#1d4ed8"/>
<circle cx="874.80" cy="337.54" r="3.2" fill="#1d4ed8"/>
<circle cx="877.36" cy="337.54" r="3.2" fill="#1d4ed8"/>
<circle cx="879.93" cy="337.54" r="3.2" fill="#1d4ed8"/>
<circle cx="882.49" cy="333.09" r="3.2" fill="#1d4ed8"/>
<circle cx="885.06" cy="333.90" r="3.2" fill="#1d4ed8"/>
<circle cx="887.62" cy="335.92" r="3.2" fill="#1d4ed8"/>
<circle cx="890.19" cy="336.73" r="3.2" fill="#1d4ed8"/>
<circle cx="892.75" cy="335.51" r="3.2" fill="#1d4ed8"/>
<circle cx="895.32" cy="332.28" r="3.2" fill="#1d4ed8"/>
<circle cx="897.88" cy="331.47" r="3.2" fill="#1d4ed8"/>
<circle cx="900.45" cy="331.07" r="3.2" fill="#1d4ed8"/>
<circle cx="903.01" cy="331.47" r="3.2" fill="#1d4ed8"/>
<circle cx="905.58" cy="331.07" r="3.2" fill="#1d4ed8"/>
<circle cx="908.14" cy="331.07" r="3.2" fill="#1d4ed8"/>
<circle cx="910.71" cy="331.07" r="3.2" fill="#1d4ed8"/>
<circle cx="913.27" cy="331.07" r="3.2" fill="#1d4ed8"/>
<circle cx="915.84" cy="331.07" r="3.2" fill="#1d4ed8"/>
<circle cx="918.40" cy="331.07" r="3.2" fill="#1d4ed8"/>
<circle cx="920.96" cy="331.07" r="3.2" fill="#1d4ed8"/>
<circle cx="923.53" cy="331.07" r="3.2" fill="#1d4ed8"/>
<circle cx="926.09" cy="331.07" r="3.2" fill="#1d4ed8"/>
<circle cx="928.66" cy="331.07" r="3.2" fill="#1d4ed8"/>
<circle cx="931.22" cy="331.47" r="3.2" fill="#1d4ed8"/>
<circle cx="933.79" cy="331.88" r="3.2" fill="#1d4ed8"/>
<circle cx="936.35" cy="331.07" r="3.2" fill="#1d4ed8"/>
<circle cx="938.92" cy="331.47" r="3.2" fill="#1d4ed8"/>
<circle cx="941.48" cy="331.07" r="3.2" fill="#1d4ed8"/>
<circle cx="944.05" cy="331.47" r="3.2" fill="#1d4ed8"/>
<circle cx="946.61" cy="331.07" r="3.2" fill="#1d4ed8"/>
<circle cx="949.18" cy="324.19" r="3.2" fill="#1d4ed8"/>
<circle cx="951.74" cy="324.19" r="3.2" fill="#1d4ed8"/>
<circle cx="954.31" cy="318.93" r="3.2" fill="#1d4ed8"/>
<circle cx="956.87" cy="316.51" r="3.2" fill="#1d4ed8"/>
<circle cx="959.44" cy="310.44" r="3.2" fill="#1d4ed8"/>
<circle cx="962.00" cy="308.01" r="3.2" fill="#1d4ed8"/>
<circle cx="964.56" cy="600.00" r="3.2" fill="#1d4ed8"/>
<circle cx="967.13" cy="301.54" r="3.2" fill="#1d4ed8"/>
<circle cx="969.69" cy="290.22" r="3.2" fill="#1d4ed8"/>
<circle cx="972.26" cy="287.79" r="3.2" fill="#1d4ed8"/>
<circle cx="974.82" cy="286.18" r="3.2" fill="#1d4ed8"/>
<circle cx="977.39" cy="285.77" r="3.2" fill="#1d4ed8"/>
<circle cx="979.95" cy="285.77" r="3.2" fill="#1d4ed8"/>
<circle cx="982.52" cy="285.77" r="3.2" fill="#1d4ed8"/>
<circle cx="985.08" cy="286.18" r="3.2" fill="#1d4ed8"/>
<circle cx="987.65" cy="285.77" r="3.2" fill="#1d4ed8"/>
<circle cx="990.21" cy="285.77" r="3.2" fill="#1d4ed8"/>
<circle cx="992.78" cy="285.77" r="3.2" fill="#1d4ed8"/>
<circle cx="995.34" cy="283.35" r="3.2" fill="#1d4ed8"/>
<circle cx="997.91" cy="282.94" r="3.2" fill="#1d4ed8"/>
<circle cx="1000.47" cy="282.94" r="3.2" fill="#1d4ed8"/>
<circle cx="1003.04" cy="283.35" r="3.2" fill="#1d4ed8"/>
<circle cx="1005.60" cy="282.94" r="3.2" fill="#1d4ed8"/>
<circle cx="1008.16" cy="282.94" r="3.2" fill="#1d4ed8"/>
<circle cx="1010.73" cy="283.75" r="3.2" fill="#1d4ed8"/>
<circle cx="1013.29" cy="282.13" r="3.2" fill="#1d4ed8"/>
<circle cx="1015.86" cy="282.13" r="3.2" fill="#1d4ed8"/>
<circle cx="1018.42" cy="282.54" r="3.2" fill="#1d4ed8"/>
<circle cx="1020.99" cy="282.13" r="3.2" fill="#1d4ed8"/>
<circle cx="1023.55" cy="282.54" r="3.2" fill="#1d4ed8"/>
<circle cx="1026.12" cy="282.94" r="3.2" fill="#1d4ed8"/>
<circle cx="1028.68" cy="281.73" r="3.2" fill="#1d4ed8"/>
<circle cx="1031.25" cy="282.54" r="3.2" fill="#1d4ed8"/>
<circle cx="1033.81" cy="281.73" r="3.2" fill="#1d4ed8"/>
<circle cx="1036.38" cy="282.54" r="3.2" fill="#1d4ed8"/>
<circle cx="1038.94" cy="282.13" r="3.2" fill="#1d4ed8"/>
<circle cx="1041.51" cy="282.13" r="3.2" fill="#1d4ed8"/>
<circle cx="1044.07" cy="281.73" r="3.2" fill="#1d4ed8"/>
<circle cx="1046.64" cy="281.73" r="3.2" fill="#1d4ed8"/>
<circle cx="1049.20" cy="281.32" r="3.2" fill="#1d4ed8"/>
<circle cx="1051.76" cy="281.73" r="3.2" fill="#1d4ed8"/>
<circle cx="1054.33" cy="282.13" r="3.2" fill="#1d4ed8"/>
<circle cx="1056.89" cy="281.32" r="3.2" fill="#1d4ed8"/>
<circle cx="1059.46" cy="281.32" r="3.2" fill="#1d4ed8"/>
<circle cx="1062.02" cy="282.54" r="3.2" fill="#1d4ed8"/>
<circle cx="1064.59" cy="282.13" r="3.2" fill="#1d4ed8"/>
<circle cx="1067.15" cy="281.32" r="3.2" fill="#1d4ed8"/>
<circle cx="1069.72" cy="281.32" r="3.2" fill="#1d4ed8"/>
<circle cx="1072.28" cy="281.32" r="3.2" fill="#1d4ed8"/>
<circle cx="1074.85" cy="282.54" r="3.2" fill="#1d4ed8"/>
<circle cx="1077.41" cy="282.13" r="3.2" fill="#1d4ed8"/>
<circle cx="1079.98" cy="281.32" r="3.2" fill="#1d4ed8"/>
<circle cx="1082.54" cy="282.13" r="3.2" fill="#1d4ed8"/>
<circle cx="1085.11" cy="281.73" r="3.2" fill="#1d4ed8"/>
<circle cx="1087.67" cy="282.13" r="3.2" fill="#1d4ed8"/>
<circle cx="1090.24" cy="280.11" r="3.2" fill="#1d4ed8"/>
<circle cx="1092.80" cy="280.11" r="3.2" fill="#1d4ed8"/>
<circle cx="1095.36" cy="280.51" r="3.2" fill="#1d4ed8"/>
<circle cx="1097.93" cy="279.71" r="3.2" fill="#1d4ed8"/>
<circle cx="1100.49" cy="280.11" r="3.2" fill="#1d4ed8"/>
<circle cx="1103.06" cy="280.51" r="3.2" fill="#1d4ed8"/>
<circle cx="1105.62" cy="279.71" r="3.2" fill="#1d4ed8"/>
<circle cx="1108.19" cy="280.11" r="3.2" fill="#1d4ed8"/>
<circle cx="1110.75" cy="280.11" r="3.2" fill="#1d4ed8"/>
<circle cx="1113.32" cy="279.30" r="3.2" fill="#1d4ed8"/>
<circle cx="1115.88" cy="278.90" r="3.2" fill="#1d4ed8"/>
<circle cx="1118.45" cy="278.90" r="3.2" fill="#1d4ed8"/>
<circle cx="1121.01" cy="280.51" r="3.2" fill="#1d4ed8"/>
<circle cx="1123.58" cy="279.30" r="3.2" fill="#1d4ed8"/>
<circle cx="1126.14" cy="278.09" r="3.2" fill="#1d4ed8"/>
<circle cx="1128.71" cy="278.49" r="3.2" fill="#1d4ed8"/>
<circle cx="1131.27" cy="278.49" r="3.2" fill="#1d4ed8"/>
<circle cx="1133.84" cy="277.28" r="3.2" fill="#1d4ed8"/>
<circle cx="1136.40" cy="277.68" r="3.2" fill="#1d4ed8"/>
<circle cx="1138.96" cy="277.68" r="3.2" fill="#1d4ed8"/>
<circle cx="1141.53" cy="278.09" r="3.2" fill="#1d4ed8"/>
<circle cx="1144.09" cy="277.28" r="3.2" fill="#1d4ed8"/>
<circle cx="1146.66" cy="600.00" r="3.2" fill="#1d4ed8"/>
<circle cx="1149.22" cy="278.90" r="3.2" fill="#1d4ed8"/>
<circle cx="1151.79" cy="279.30" r="3.2" fill="#1d4ed8"/>
<circle cx="1154.35" cy="278.90" r="3.2" fill="#1d4ed8"/>
<circle cx="1156.92" cy="278.49" r="3.2" fill="#1d4ed8"/>
<circle cx="1159.48" cy="278.49" r="3.2" fill="#1d4ed8"/>
<circle cx="1162.05" cy="278.49" r="3.2" fill="#1d4ed8"/>
<circle cx="1164.61" cy="278.49" r="3.2" fill="#1d4ed8"/>
<circle cx="1167.18" cy="278.49" r="3.2" fill="#1d4ed8"/>
<circle cx="1169.74" cy="278.49" r="3.2" fill="#1d4ed8"/>
<circle cx="1172.31" cy="278.49" r="3.2" fill="#1d4ed8"/>
<circle cx="1174.87" cy="278.49" r="3.2" fill="#1d4ed8"/>
<circle cx="1177.44" cy="278.49" r="3.2" fill="#1d4ed8"/>
<circle cx="1180.00" cy="278.49" r="3.2" fill="#1d4ed8"/>
<text x="635" y="695" text-anchor="middle" font-size="14" fill="#111" font-family="sans-serif">Date</text>
<text x="24" y="325" text-anchor="middle" font-size="14" fill="#111" transform="rotate(-90 24,325)" font-family="sans-serif">Passed files</text>
</svg>
