<?xml version="1.0" encoding="UTF-8"?>
<svg xmlns="http://www.w3.org/2000/svg" width="1280" height="720" viewBox="0 0 1280 720">
<rect width="100%" height="100%" fill="#ffffff"/>
<text x="640" y="30" text-anchor="middle" font-size="22" font-family="sans-serif">Roast passed files history</text>
<line x1="90" y1="600" x2="1180" y2="600" stroke="#333" stroke-width="1.5"/>
<line x1="90" y1="50" x2="90" y2="600" stroke="#333" stroke-width="1.5"/>
<line x1="90" y1="600.00" x2="1180" y2="600.00" stroke="#e5e7eb" stroke-width="1"/>
<text x="78" y="605.00" text-anchor="end" font-size="12" fill="#111" font-family="sans-serif">0</text>
<line x1="90" y1="397.79" x2="1180" y2="397.79" stroke="#e5e7eb" stroke-width="1"/>
<text x="78" y="402.79" text-anchor="end" font-size="12" fill="#111" font-family="sans-serif">500</text>
<line x1="90" y1="195.59" x2="1180" y2="195.59" stroke="#e5e7eb" stroke-width="1"/>
<text x="78" y="200.59" text-anchor="end" font-size="12" fill="#111" font-family="sans-serif">1000</text>
<line x1="90.00" y1="600" x2="90.00" y2="606" stroke="#333" stroke-width="1"/>
<text x="90.00" y="624" text-anchor="end" font-size="11" fill="#111" transform="rotate(-40 90.00,624)" font-family="sans-serif">2026-02-12</text>
<line x1="225.07" y1="600" x2="225.07" y2="606" stroke="#333" stroke-width="1"/>
<text x="225.07" y="624" text-anchor="end" font-size="11" fill="#111" transform="rotate(-40 225.07,624)" font-family="sans-serif">2026-02-17</text>
<line x1="360.14" y1="600" x2="360.14" y2="606" stroke="#333" stroke-width="1"/>
<text x="360.14" y="624" text-anchor="end" font-size="11" fill="#111" transform="rotate(-40 360.14,624)" font-family="sans-serif">2026-02-21</text>
<line x1="495.22" y1="600" x2="495.22" y2="606" stroke="#333" stroke-width="1"/>
<text x="495.22" y="624" text-anchor="end" font-size="11" fill="#111" transform="rotate(-40 495.22,624)" font-family="sans-serif">2026-02-25</text>
<line x1="630.29" y1="600" x2="630.29" y2="606" stroke="#333" stroke-width="1"/>
<text x="630.29" y="624" text-anchor="end" font-size="11" fill="#111" transform="rotate(-40 630.29,624)" font-family="sans-serif">2026-02-28</text>
<line x1="765.36" y1="600" x2="765.36" y2="606" stroke="#333" stroke-width="1"/>
<text x="765.36" y="624" text-anchor="end" font-size="11" fill="#111" transform="rotate(-40 765.36,624)" font-family="sans-serif">2026-03-03</text>
<line x1="900.43" y1="600" x2="900.43" y2="606" stroke="#333" stroke-width="1"/>
<text x="900.43" y="624" text-anchor="end" font-size="11" fill="#111" transform="rotate(-40 900.43,624)" font-family="sans-serif">2026-03-06</text>
<line x1="1035.50" y1="600" x2="1035.50" y2="606" stroke="#333" stroke-width="1"/>
<text x="1035.50" y="624" text-anchor="end" font-size="11" fill="#111" transform="rotate(-40 1035.50,624)" font-family="sans-serif">2026-03-08</text>
<line x1="1170.58" y1="600" x2="1170.58" y2="606" stroke="#333" stroke-width="1"/>
<text x="1170.58" y="624" text-anchor="end" font-size="11" fill="#111" transform="rotate(-40 1170.58,624)" font-family="sans-serif">2026-03-17</text>
<line x1="1180.00" y1="600" x2="1180.00" y2="606" stroke="#333" stroke-width="1"/>
<text x="1180.00" y="624" text-anchor="end" font-size="11" fill="#111" transform="rotate(-40 1180.00,624)" font-family="sans-serif">2026-03-18</text>
<line x1="90" y1="75.88" x2="1180" y2="75.88" stroke="#dc2626" stroke-width="1.5" stroke-dasharray="8,4"/>
<text x="1184" y="79.88" font-size="12" fill="#dc2626" font-family="sans-serif">Goal: 1296</text>
<polyline fill="none" stroke="#2563eb" stroke-width="3" points="90.00,540.55 93.14,538.53 96.28,536.91 99.42,534.49 102.56,534.49 105.71,533.27 108.85,532.46 111.99,532.87 115.13,532.06 118.27,532.46 121.41,532.06 124.55,568.46 127.69,568.46 130.84,566.43 133.98,545.00 137.12,545.00 140.26,544.19 143.40,543.79 146.54,543.79 149.68,543.38 152.82,541.76 155.97,541.36 159.11,540.96 162.25,540.96 165.39,539.34 168.53,539.34 171.67,556.73 174.81,556.73 177.95,555.51 181.10,551.07 184.24,538.93 187.38,538.93 190.52,538.93 193.66,538.12 196.80,536.91 199.94,536.91 203.08,536.51 206.22,536.51 209.37,556.73 212.51,556.73 215.65,556.73 218.79,556.73 221.93,535.29 225.07,535.29 228.21,535.29 231.35,535.29 234.50,534.49 237.64,534.08 240.78,533.68 243.92,532.87 247.06,532.06 250.20,532.06 253.34,531.25 256.48,530.85 259.63,530.44 262.77,530.04 265.91,530.04 269.05,529.23 272.19,529.23 275.33,529.23 278.47,528.42 281.61,528.42 284.76,527.61 287.90,527.21 291.04,526.80 294.18,526.40 297.32,525.18 300.46,523.57 303.60,523.57 306.74,523.16 309.88,522.76 313.03,522.35 316.17,521.54 319.31,519.52 322.45,517.50 325.59,517.50 328.73,517.50 331.87,517.50 335.01,517.50 338.16,517.50 341.30,517.10 344.44,516.69 347.58,515.48 350.72,515.07 353.86,514.67 357.00,513.86 360.14,514.26 363.29,512.24 366.43,511.84 369.57,511.84 372.71,511.03 375.85,509.82 378.99,507.79 382.13,506.99 385.27,506.58 388.41,509.41 391.56,509.01 394.70,504.96 397.84,504.56 400.98,504.15 404.12,504.56 407.26,503.75 410.40,503.75 413.54,503.35 416.69,499.30 419.83,496.47 422.97,490.00 426.11,484.34 429.25,481.10 432.39,480.29 435.53,480.70 438.67,460.88 441.82,459.26 444.96,458.05 448.10,456.03 451.24,456.03 454.38,454.41 457.52,450.77 460.66,444.30 463.80,443.90 466.95,600.00 470.09,441.88 473.23,440.66 476.37,439.45 479.51,439.04 482.65,438.64 485.79,437.83 488.93,436.62 492.07,436.62 495.22,434.60 498.36,432.17 501.50,429.34 504.64,428.93 507.78,428.53 510.92,427.72 514.06,426.91 517.20,426.10 520.35,426.10 523.49,426.10 526.63,419.63 529.77,419.23 532.91,418.42 536.05,418.01 539.19,417.61 542.33,417.61 545.48,417.61 548.62,417.21 551.76,417.21 554.90,413.57 558.04,411.95 561.18,412.76 564.32,410.74 567.46,410.74 570.61,410.33 573.75,410.33 576.89,410.33 580.03,409.93 583.17,409.93 586.31,409.93 589.45,409.52 592.59,409.52 595.73,409.12 598.88,409.52 602.02,409.12 605.16,407.50 608.30,407.10 611.44,403.05 614.58,399.82 617.72,400.22 620.86,400.62 624.01,400.62 627.15,399.41 630.29,392.94 633.43,391.32 636.57,389.30 639.71,389.30 642.85,388.49 645.99,375.15 649.14,374.74 652.28,374.74 655.42,374.74 658.56,374.74 661.70,374.34 664.84,374.34 667.98,374.34 671.12,374.34 674.27,374.34 677.41,373.93 680.55,373.12 683.69,372.72 686.83,373.53 689.97,435.81 693.11,372.32 696.25,372.72 699.39,371.91 702.54,371.91 705.68,372.32 708.82,371.10 711.96,369.89 715.10,369.89 718.24,369.89 721.38,369.49 724.52,369.89 727.67,369.08 730.81,368.68 733.95,368.27 737.09,367.87 740.23,367.06 743.37,367.46 746.51,367.06 749.65,366.25 752.80,368.27 755.94,368.68 759.08,368.68 762.22,368.27 765.36,369.08 768.50,367.87 771.64,367.46 774.78,367.06 777.93,360.18 781.07,359.78 784.21,359.38 787.35,356.95 790.49,357.35 793.63,357.76 796.77,355.33 799.91,355.74 803.05,357.35 806.20,355.33 809.34,356.14 812.48,355.74 815.62,356.14 818.76,354.12 821.90,354.93 825.04,356.14 828.18,354.52 831.33,353.71 834.47,354.12 837.61,354.93 840.75,352.90 843.89,353.71 847.03,353.31 850.17,353.31 853.31,354.52 856.46,352.90 859.60,352.50 862.74,352.50 865.88,353.31 869.02,352.50 872.16,353.71 875.30,354.12 878.44,352.50 881.59,352.90 884.73,352.50 887.87,352.10 891.01,351.69 894.15,352.10 897.29,354.12 900.43,352.50 903.57,352.10 906.71,352.10 909.86,349.67 913.00,349.67 916.14,350.88 919.28,351.29 922.42,350.48 925.56,352.10 928.70,350.48 931.84,350.48 934.99,350.48 938.13,350.07 941.27,348.46 944.41,351.29 947.55,349.67 950.69,351.29 953.83,349.67 956.97,348.86 960.12,348.46 963.26,348.46 966.40,347.24 969.54,348.86 972.68,346.84 975.82,348.46 978.96,348.86 982.10,346.84 985.24,349.26 988.39,348.05 991.53,349.26 994.67,349.26 997.81,350.48 1000.95,352.90 1004.09,349.67 1007.23,348.46 1010.37,345.62 1013.52,344.82 1016.66,344.41 1019.80,342.39 1022.94,341.18 1026.08,341.58 1029.22,339.15 1032.36,338.35 1035.50,337.54 1038.65,336.73 1041.79,335.92 1044.93,337.54 1048.07,338.35 1051.21,337.54 1054.35,337.54 1057.49,337.54 1060.63,333.09 1063.78,333.90 1066.92,335.92 1070.06,336.73 1073.20,335.51 1076.34,332.28 1079.48,331.47 1082.62,331.07 1085.76,331.47 1088.90,331.07 1092.05,331.07 1095.19,331.07 1098.33,331.07 1101.47,331.07 1104.61,331.07 1107.75,331.07 1110.89,331.07 1114.03,331.07 1117.18,331.07 1120.32,331.47 1123.46,331.88 1126.60,331.07 1129.74,331.47 1132.88,331.07 1136.02,331.47 1139.16,331.07 1142.31,324.19 1145.45,324.19 1148.59,318.93 1151.73,316.51 1154.87,310.44 1158.01,308.01 1161.15,600.00 1164.29,301.54 1167.44,290.22 1170.58,287.79 1173.72,286.18 1176.86,285.77 1180.00,285.77"/>
<circle cx="90.00" cy="540.55" r="3.2" fill="#1d4ed8"/>
<circle cx="93.14" cy="538.53" r="3.2" fill="#1d4ed8"/>
<circle cx="96.28" cy="536.91" r="3.2" fill="#1d4ed8"/>
<circle cx="99.42" cy="534.49" r="3.2" fill="#1d4ed8"/>
<circle cx="102.56" cy="534.49" r="3.2" fill="#1d4ed8"/>
<circle cx="105.71" cy="533.27" r="3.2" fill="#1d4ed8"/>
<circle cx="108.85" cy="532.46" r="3.2" fill="#1d4ed8"/>
<circle cx="111.99" cy="532.87" r="3.2" fill="#1d4ed8"/>
<circle cx="115.13" cy="532.06" r="3.2" fill="#1d4ed8"/>
<circle cx="118.27" cy="532.46" r="3.2" fill="#1d4ed8"/>
<circle cx="121.41" cy="532.06" r="3.2" fill="#1d4ed8"/>
<circle cx="124.55" cy="568.46" r="3.2" fill="#1d4ed8"/>
<circle cx="127.69" cy="568.46" r="3.2" fill="#1d4ed8"/>
<circle cx="130.84" cy="566.43" r="3.2" fill="#1d4ed8"/>
<circle cx="133.98" cy="545.00" r="3.2" fill="#1d4ed8"/>
<circle cx="137.12" cy="545.00" r="3.2" fill="#1d4ed8"/>
<circle cx="140.26" cy="544.19" r="3.2" fill="#1d4ed8"/>
<circle cx="143.40" cy="543.79" r="3.2" fill="#1d4ed8"/>
<circle cx="146.54" cy="543.79" r="3.2" fill="#1d4ed8"/>
<circle cx="149.68" cy="543.38" r="3.2" fill="#1d4ed8"/>
<circle cx="152.82" cy="541.76" r="3.2" fill="#1d4ed8"/>
<circle cx="155.97" cy="541.36" r="3.2" fill="#1d4ed8"/>
<circle cx="159.11" cy="540.96" r="3.2" fill="#1d4ed8"/>
<circle cx="162.25" cy="540.96" r="3.2" fill="#1d4ed8"/>
<circle cx="165.39" cy="539.34" r="3.2" fill="#1d4ed8"/>
<circle cx="168.53" cy="539.34" r="3.2" fill="#1d4ed8"/>
<circle cx="171.67" cy="556.73" r="3.2" fill="#1d4ed8"/>
<circle cx="174.81" cy="556.73" r="3.2" fill="#1d4ed8"/>
<circle cx="177.95" cy="555.51" r="3.2" fill="#1d4ed8"/>
<circle cx="181.10" cy="551.07" r="3.2" fill="#1d4ed8"/>
<circle cx="184.24" cy="538.93" r="3.2" fill="#1d4ed8"/>
<circle cx="187.38" cy="538.93" r="3.2" fill="#1d4ed8"/>
<circle cx="190.52" cy="538.93" r="3.2" fill="#1d4ed8"/>
<circle cx="193.66" cy="538.12" r="3.2" fill="#1d4ed8"/>
<circle cx="196.80" cy="536.91" r="3.2" fill="#1d4ed8"/>
<circle cx="199.94" cy="536.91" r="3.2" fill="#1d4ed8"/>
<circle cx="203.08" cy="536.51" r="3.2" fill="#1d4ed8"/>
<circle cx="206.22" cy="536.51" r="3.2" fill="#1d4ed8"/>
<circle cx="209.37" cy="556.73" r="3.2" fill="#1d4ed8"/>
<circle cx="212.51" cy="556.73" r="3.2" fill="#1d4ed8"/>
<circle cx="215.65" cy="556.73" r="3.2" fill="#1d4ed8"/>
<circle cx="218.79" cy="556.73" r="3.2" fill="#1d4ed8"/>
<circle cx="221.93" cy="535.29" r="3.2" fill="#1d4ed8"/>
<circle cx="225.07" cy="535.29" r="3.2" fill="#1d4ed8"/>
<circle cx="228.21" cy="535.29" r="3.2" fill="#1d4ed8"/>
<circle cx="231.35" cy="535.29" r="3.2" fill="#1d4ed8"/>
<circle cx="234.50" cy="534.49" r="3.2" fill="#1d4ed8"/>
<circle cx="237.64" cy="534.08" r="3.2" fill="#1d4ed8"/>
<circle cx="240.78" cy="533.68" r="3.2" fill="#1d4ed8"/>
<circle cx="243.92" cy="532.87" r="3.2" fill="#1d4ed8"/>
<circle cx="247.06" cy="532.06" r="3.2" fill="#1d4ed8"/>
<circle cx="250.20" cy="532.06" r="3.2" fill="#1d4ed8"/>
<circle cx="253.34" cy="531.25" r="3.2" fill="#1d4ed8"/>
<circle cx="256.48" cy="530.85" r="3.2" fill="#1d4ed8"/>
<circle cx="259.63" cy="530.44" r="3.2" fill="#1d4ed8"/>
<circle cx="262.77" cy="530.04" r="3.2" fill="#1d4ed8"/>
<circle cx="265.91" cy="530.04" r="3.2" fill="#1d4ed8"/>
<circle cx="269.05" cy="529.23" r="3.2" fill="#1d4ed8"/>
<circle cx="272.19" cy="529.23" r="3.2" fill="#1d4ed8"/>
<circle cx="275.33" cy="529.23" r="3.2" fill="#1d4ed8"/>
<circle cx="278.47" cy="528.42" r="3.2" fill="#1d4ed8"/>
<circle cx="281.61" cy="528.42" r="3.2" fill="#1d4ed8"/>
<circle cx="284.76" cy="527.61" r="3.2" fill="#1d4ed8"/>
<circle cx="287.90" cy="527.21" r="3.2" fill="#1d4ed8"/>
<circle cx="291.04" cy="526.80" r="3.2" fill="#1d4ed8"/>
<circle cx="294.18" cy="526.40" r="3.2" fill="#1d4ed8"/>
<circle cx="297.32" cy="525.18" r="3.2" fill="#1d4ed8"/>
<circle cx="300.46" cy="523.57" r="3.2" fill="#1d4ed8"/>
<circle cx="303.60" cy="523.57" r="3.2" fill="#1d4ed8"/>
<circle cx="306.74" cy="523.16" r="3.2" fill="#1d4ed8"/>
<circle cx="309.88" cy="522.76" r="3.2" fill="#1d4ed8"/>
<circle cx="313.03" cy="522.35" r="3.2" fill="#1d4ed8"/>
<circle cx="316.17" cy="521.54" r="3.2" fill="#1d4ed8"/>
<circle cx="319.31" cy="519.52" r="3.2" fill="#1d4ed8"/>
<circle cx="322.45" cy="517.50" r="3.2" fill="#1d4ed8"/>
<circle cx="325.59" cy="517.50" r="3.2" fill="#1d4ed8"/>
<circle cx="328.73" cy="517.50" r="3.2" fill="#1d4ed8"/>
<circle cx="331.87" cy="517.50" r="3.2" fill="#1d4ed8"/>
<circle cx="335.01" cy="517.50" r="3.2" fill="#1d4ed8"/>
<circle cx="338.16" cy="517.50" r="3.2" fill="#1d4ed8"/>
<circle cx="341.30" cy="517.10" r="3.2" fill="#1d4ed8"/>
<circle cx="344.44" cy="516.69" r="3.2" fill="#1d4ed8"/>
<circle cx="347.58" cy="515.48" r="3.2" fill="#1d4ed8"/>
<circle cx="350.72" cy="515.07" r="3.2" fill="#1d4ed8"/>
<circle cx="353.86" cy="514.67" r="3.2" fill="#1d4ed8"/>
<circle cx="357.00" cy="513.86" r="3.2" fill="#1d4ed8"/>
<circle cx="360.14" cy="514.26" r="3.2" fill="#1d4ed8"/>
<circle cx="363.29" cy="512.24" r="3.2" fill="#1d4ed8"/>
<circle cx="366.43" cy="511.84" r="3.2" fill="#1d4ed8"/>
<circle cx="369.57" cy="511.84" r="3.2" fill="#1d4ed8"/>
<circle cx="372.71" cy="511.03" r="3.2" fill="#1d4ed8"/>
<circle cx="375.85" cy="509.82" r="3.2" fill="#1d4ed8"/>
<circle cx="378.99" cy="507.79" r="3.2" fill="#1d4ed8"/>
<circle cx="382.13" cy="506.99" r="3.2" fill="#1d4ed8"/>
<circle cx="385.27" cy="506.58" r="3.2" fill="#1d4ed8"/>
<circle cx="388.41" cy="509.41" r="3.2" fill="#1d4ed8"/>
<circle cx="391.56" cy="509.01" r="3.2" fill="#1d4ed8"/>
<circle cx="394.70" cy="504.96" r="3.2" fill="#1d4ed8"/>
<circle cx="397.84" cy="504.56" r="3.2" fill="#1d4ed8"/>
<circle cx="400.98" cy="504.15" r="3.2" fill="#1d4ed8"/>
<circle cx="404.12" cy="504.56" r="3.2" fill="#1d4ed8"/>
<circle cx="407.26" cy="503.75" r="3.2" fill="#1d4ed8"/>
<circle cx="410.40" cy="503.75" r="3.2" fill="#1d4ed8"/>
<circle cx="413.54" cy="503.35" r="3.2" fill="#1d4ed8"/>
<circle cx="416.69" cy="499.30" r="3.2" fill="#1d4ed8"/>
<circle cx="419.83" cy="496.47" r="3.2" fill="#1d4ed8"/>
<circle cx="422.97" cy="490.00" r="3.2" fill="#1d4ed8"/>
<circle cx="426.11" cy="484.34" r="3.2" fill="#1d4ed8"/>
<circle cx="429.25" cy="481.10" r="3.2" fill="#1d4ed8"/>
<circle cx="432.39" cy="480.29" r="3.2" fill="#1d4ed8"/>
<circle cx="435.53" cy="480.70" r="3.2" fill="#1d4ed8"/>
<circle cx="438.67" cy="460.88" r="3.2" fill="#1d4ed8"/>
<circle cx="441.82" cy="459.26" r="3.2" fill="#1d4ed8"/>
<circle cx="444.96" cy="458.05" r="3.2" fill="#1d4ed8"/>
<circle cx="448.10" cy="456.03" r="3.2" fill="#1d4ed8"/>
<circle cx="451.24" cy="456.03" r="3.2" fill="#1d4ed8"/>
<circle cx="454.38" cy="454.41" r="3.2" fill="#1d4ed8"/>
<circle cx="457.52" cy="450.77" r="3.2" fill="#1d4ed8"/>
<circle cx="460.66" cy="444.30" r="3.2" fill="#1d4ed8"/>
<circle cx="463.80" cy="443.90" r="3.2" fill="#1d4ed8"/>
<circle cx="466.95" cy="600.00" r="3.2" fill="#1d4ed8"/>
<circle cx="470.09" cy="441.88" r="3.2" fill="#1d4ed8"/>
<circle cx="473.23" cy="440.66" r="3.2" fill="#1d4ed8"/>
<circle cx="476.37" cy="439.45" r="3.2" fill="#1d4ed8"/>
<circle cx="479.51" cy="439.04" r="3.2" fill="#1d4ed8"/>
<circle cx="482.65" cy="438.64" r="3.2" fill="#1d4ed8"/>
<circle cx="485.79" cy="437.83" r="3.2" fill="#1d4ed8"/>
<circle cx="488.93" cy="436.62" r="3.2" fill="#1d4ed8"/>
<circle cx="492.07" cy="436.62" r="3.2" fill="#1d4ed8"/>
<circle cx="495.22" cy="434.60" r="3.2" fill="#1d4ed8"/>
<circle cx="498.36" cy="432.17" r="3.2" fill="#1d4ed8"/>
<circle cx="501.50" cy="429.34" r="3.2" fill="#1d4ed8"/>
<circle cx="504.64" cy="428.93" r="3.2" fill="#1d4ed8"/>
<circle cx="507.78" cy="428.53" r="3.2" fill="#1d4ed8"/>
<circle cx="510.92" cy="427.72" r="3.2" fill="#1d4ed8"/>
<circle cx="514.06" cy="426.91" r="3.2" fill="#1d4ed8"/>
<circle cx="517.20" cy="426.10" r="3.2" fill="#1d4ed8"/>
<circle cx="520.35" cy="426.10" r="3.2" fill="#1d4ed8"/>
<circle cx="523.49" cy="426.10" r="3.2" fill="#1d4ed8"/>
<circle cx="526.63" cy="419.63" r="3.2" fill="#1d4ed8"/>
<circle cx="529.77" cy="419.23" r="3.2" fill="#1d4ed8"/>
<circle cx="532.91" cy="418.42" r="3.2" fill="#1d4ed8"/>
<circle cx="536.05" cy="418.01" r="3.2" fill="#1d4ed8"/>
<circle cx="539.19" cy="417.61" r="3.2" fill="#1d4ed8"/>
<circle cx="542.33" cy="417.61" r="3.2" fill="#1d4ed8"/>
<circle cx="545.48" cy="417.61" r="3.2" fill="#1d4ed8"/>
<circle cx="548.62" cy="417.21" r="3.2" fill="#1d4ed8"/>
<circle cx="551.76" cy="417.21" r="3.2" fill="#1d4ed8"/>
<circle cx="554.90" cy="413.57" r="3.2" fill="#1d4ed8"/>
<circle cx="558.04" cy="411.95" r="3.2" fill="#1d4ed8"/>
<circle cx="561.18" cy="412.76" r="3.2" fill="#1d4ed8"/>
<circle cx="564.32" cy="410.74" r="3.2" fill="#1d4ed8"/>
<circle cx="567.46" cy="410.74" r="3.2" fill="#1d4ed8"/>
<circle cx="570.61" cy="410.33" r="3.2" fill="#1d4ed8"/>
<circle cx="573.75" cy="410.33" r="3.2" fill="#1d4ed8"/>
<circle cx="576.89" cy="410.33" r="3.2" fill="#1d4ed8"/>
<circle cx="580.03" cy="409.93" r="3.2" fill="#1d4ed8"/>
<circle cx="583.17" cy="409.93" r="3.2" fill="#1d4ed8"/>
<circle cx="586.31" cy="409.93" r="3.2" fill="#1d4ed8"/>
<circle cx="589.45" cy="409.52" r="3.2" fill="#1d4ed8"/>
<circle cx="592.59" cy="409.52" r="3.2" fill="#1d4ed8"/>
<circle cx="595.73" cy="409.12" r="3.2" fill="#1d4ed8"/>
<circle cx="598.88" cy="409.52" r="3.2" fill="#1d4ed8"/>
<circle cx="602.02" cy="409.12" r="3.2" fill="#1d4ed8"/>
<circle cx="605.16" cy="407.50" r="3.2" fill="#1d4ed8"/>
<circle cx="608.30" cy="407.10" r="3.2" fill="#1d4ed8"/>
<circle cx="611.44" cy="403.05" r="3.2" fill="#1d4ed8"/>
<circle cx="614.58" cy="399.82" r="3.2" fill="#1d4ed8"/>
<circle cx="617.72" cy="400.22" r="3.2" fill="#1d4ed8"/>
<circle cx="620.86" cy="400.62" r="3.2" fill="#1d4ed8"/>
<circle cx="624.01" cy="400.62" r="3.2" fill="#1d4ed8"/>
<circle cx="627.15" cy="399.41" r="3.2" fill="#1d4ed8"/>
<circle cx="630.29" cy="392.94" r="3.2" fill="#1d4ed8"/>
<circle cx="633.43" cy="391.32" r="3.2" fill="#1d4ed8"/>
<circle cx="636.57" cy="389.30" r="3.2" fill="#1d4ed8"/>
<circle cx="639.71" cy="389.30" r="3.2" fill="#1d4ed8"/>
<circle cx="642.85" cy="388.49" r="3.2" fill="#1d4ed8"/>
<circle cx="645.99" cy="375.15" r="3.2" fill="#1d4ed8"/>
<circle cx="649.14" cy="374.74" r="3.2" fill="#1d4ed8"/>
<circle cx="652.28" cy="374.74" r="3.2" fill="#1d4ed8"/>
<circle cx="655.42" cy="374.74" r="3.2" fill="#1d4ed8"/>
<circle cx="658.56" cy="374.74" r="3.2" fill="#1d4ed8"/>
<circle cx="661.70" cy="374.34" r="3.2" fill="#1d4ed8"/>
<circle cx="664.84" cy="374.34" r="3.2" fill="#1d4ed8"/>
<circle cx="667.98" cy="374.34" r="3.2" fill="#1d4ed8"/>
<circle cx="671.12" cy="374.34" r="3.2" fill="#1d4ed8"/>
<circle cx="674.27" cy="374.34" r="3.2" fill="#1d4ed8"/>
<circle cx="677.41" cy="373.93" r="3.2" fill="#1d4ed8"/>
<circle cx="680.55" cy="373.12" r="3.2" fill="#1d4ed8"/>
<circle cx="683.69" cy="372.72" r="3.2" fill="#1d4ed8"/>
<circle cx="686.83" cy="373.53" r="3.2" fill="#1d4ed8"/>
<circle cx="689.97" cy="435.81" r="3.2" fill="#1d4ed8"/>
<circle cx="693.11" cy="372.32" r="3.2" fill="#1d4ed8"/>
<circle cx="696.25" cy="372.72" r="3.2" fill="#1d4ed8"/>
<circle cx="699.39" cy="371.91" r="3.2" fill="#1d4ed8"/>
<circle cx="702.54" cy="371.91" r="3.2" fill="#1d4ed8"/>
<circle cx="705.68" cy="372.32" r="3.2" fill="#1d4ed8"/>
<circle cx="708.82" cy="371.10" r="3.2" fill="#1d4ed8"/>
<circle cx="711.96" cy="369.89" r="3.2" fill="#1d4ed8"/>
<circle cx="715.10" cy="369.89" r="3.2" fill="#1d4ed8"/>
<circle cx="718.24" cy="369.89" r="3.2" fill="#1d4ed8"/>
<circle cx="721.38" cy="369.49" r="3.2" fill="#1d4ed8"/>
<circle cx="724.52" cy="369.89" r="3.2" fill="#1d4ed8"/>
<circle cx="727.67" cy="369.08" r="3.2" fill="#1d4ed8"/>
<circle cx="730.81" cy="368.68" r="3.2" fill="#1d4ed8"/>
<circle cx="733.95" cy="368.27" r="3.2" fill="#1d4ed8"/>
<circle cx="737.09" cy="367.87" r="3.2" fill="#1d4ed8"/>
<circle cx="740.23" cy="367.06" r="3.2" fill="#1d4ed8"/>
<circle cx="743.37" cy="367.46" r="3.2" fill="#1d4ed8"/>
<circle cx="746.51" cy="367.06" r="3.2" fill="#1d4ed8"/>
<circle cx="749.65" cy="366.25" r="3.2" fill="#1d4ed8"/>
<circle cx="752.80" cy="368.27" r="3.2" fill="#1d4ed8"/>
<circle cx="755.94" cy="368.68" r="3.2" fill="#1d4ed8"/>
<circle cx="759.08" cy="368.68" r="3.2" fill="#1d4ed8"/>
<circle cx="762.22" cy="368.27" r="3.2" fill="#1d4ed8"/>
<circle cx="765.36" cy="369.08" r="3.2" fill="#1d4ed8"/>
<circle cx="768.50" cy="367.87" r="3.2" fill="#1d4ed8"/>
<circle cx="771.64" cy="367.46" r="3.2" fill="#1d4ed8"/>
<circle cx="774.78" cy="367.06" r="3.2" fill="#1d4ed8"/>
<circle cx="777.93" cy="360.18" r="3.2" fill="#1d4ed8"/>
<circle cx="781.07" cy="359.78" r="3.2" fill="#1d4ed8"/>
<circle cx="784.21" cy="359.38" r="3.2" fill="#1d4ed8"/>
<circle cx="787.35" cy="356.95" r="3.2" fill="#1d4ed8"/>
<circle cx="790.49" cy="357.35" r="3.2" fill="#1d4ed8"/>
<circle cx="793.63" cy="357.76" r="3.2" fill="#1d4ed8"/>
<circle cx="796.77" cy="355.33" r="3.2" fill="#1d4ed8"/>
<circle cx="799.91" cy="355.74" r="3.2" fill="#1d4ed8"/>
<circle cx="803.05" cy="357.35" r="3.2" fill="#1d4ed8"/>
<circle cx="806.20" cy="355.33" r="3.2" fill="#1d4ed8"/>
<circle cx="809.34" cy="356.14" r="3.2" fill="#1d4ed8"/>
<circle cx="812.48" cy="355.74" r="3.2" fill="#1d4ed8"/>
<circle cx="815.62" cy="356.14" r="3.2" fill="#1d4ed8"/>
<circle cx="818.76" cy="354.12" r="3.2" fill="#1d4ed8"/>
<circle cx="821.90" cy="354.93" r="3.2" fill="#1d4ed8"/>
<circle cx="825.04" cy="356.14" r="3.2" fill="#1d4ed8"/>
<circle cx="828.18" cy="354.52" r="3.2" fill="#1d4ed8"/>
<circle cx="831.33" cy="353.71" r="3.2" fill="#1d4ed8"/>
<circle cx="834.47" cy="354.12" r="3.2" fill="#1d4ed8"/>
<circle cx="837.61" cy="354.93" r="3.2" fill="#1d4ed8"/>
<circle cx="840.75" cy="352.90" r="3.2" fill="#1d4ed8"/>
<circle cx="843.89" cy="353.71" r="3.2" fill="#1d4ed8"/>
<circle cx="847.03" cy="353.31" r="3.2" fill="#1d4ed8"/>
<circle cx="850.17" cy="353.31" r="3.2" fill="#1d4ed8"/>
<circle cx="853.31" cy="354.52" r="3.2" fill="#1d4ed8"/>
<circle cx="856.46" cy="352.90" r="3.2" fill="#1d4ed8"/>
<circle cx="859.60" cy="352.50" r="3.2" fill="#1d4ed8"/>
<circle cx="862.74" cy="352.50" r="3.2" fill="#1d4ed8"/>
<circle cx="865.88" cy="353.31" r="3.2" fill="#1d4ed8"/>
<circle cx="869.02" cy="352.50" r="3.2" fill="#1d4ed8"/>
<circle cx="872.16" cy="353.71" r="3.2" fill="#1d4ed8"/>
<circle cx="875.30" cy="354.12" r="3.2" fill="#1d4ed8"/>
<circle cx="878.44" cy="352.50" r="3.2" fill="#1d4ed8"/>
<circle cx="881.59" cy="352.90" r="3.2" fill="#1d4ed8"/>
<circle cx="884.73" cy="352.50" r="3.2" fill="#1d4ed8"/>
<circle cx="887.87" cy="352.10" r="3.2" fill="#1d4ed8"/>
<circle cx="891.01" cy="351.69" r="3.2" fill="#1d4ed8"/>
<circle cx="894.15" cy="352.10" r="3.2" fill="#1d4ed8"/>
<circle cx="897.29" cy="354.12" r="3.2" fill="#1d4ed8"/>
<circle cx="900.43" cy="352.50" r="3.2" fill="#1d4ed8"/>
<circle cx="903.57" cy="352.10" r="3.2" fill="#1d4ed8"/>
<circle cx="906.71" cy="352.10" r="3.2" fill="#1d4ed8"/>
<circle cx="909.86" cy="349.67" r="3.2" fill="#1d4ed8"/>
<circle cx="913.00" cy="349.67" r="3.2" fill="#1d4ed8"/>
<circle cx="916.14" cy="350.88" r="3.2" fill="#1d4ed8"/>
<circle cx="919.28" cy="351.29" r="3.2" fill="#1d4ed8"/>
<circle cx="922.42" cy="350.48" r="3.2" fill="#1d4ed8"/>
<circle cx="925.56" cy="352.10" r="3.2" fill="#1d4ed8"/>
<circle cx="928.70" cy="350.48" r="3.2" fill="#1d4ed8"/>
<circle cx="931.84" cy="350.48" r="3.2" fill="#1d4ed8"/>
<circle cx="934.99" cy="350.48" r="3.2" fill="#1d4ed8"/>
<circle cx="938.13" cy="350.07" r="3.2" fill="#1d4ed8"/>
<circle cx="941.27" cy="348.46" r="3.2" fill="#1d4ed8"/>
<circle cx="944.41" cy="351.29" r="3.2" fill="#1d4ed8"/>
<circle cx="947.55" cy="349.67" r="3.2" fill="#1d4ed8"/>
<circle cx="950.69" cy="351.29" r="3.2" fill="#1d4ed8"/>
<circle cx="953.83" cy="349.67" r="3.2" fill="#1d4ed8"/>
<circle cx="956.97" cy="348.86" r="3.2" fill="#1d4ed8"/>
<circle cx="960.12" cy="348.46" r="3.2" fill="#1d4ed8"/>
<circle cx="963.26" cy="348.46" r="3.2" fill="#1d4ed8"/>
<circle cx="966.40" cy="347.24" r="3.2" fill="#1d4ed8"/>
<circle cx="969.54" cy="348.86" r="3.2" fill="#1d4ed8"/>
<circle cx="972.68" cy="346.84" r="3.2" fill="#1d4ed8"/>
<circle cx="975.82" cy="348.46" r="3.2" fill="#1d4ed8"/>
<circle cx="978.96" cy="348.86" r="3.2" fill="#1d4ed8"/>
<circle cx="982.10" cy="346.84" r="3.2" fill="#1d4ed8"/>
<circle cx="985.24" cy="349.26" r="3.2" fill="#1d4ed8"/>
<circle cx="988.39" cy="348.05" r="3.2" fill="#1d4ed8"/>
<circle cx="991.53" cy="349.26" r="3.2" fill="#1d4ed8"/>
<circle cx="994.67" cy="349.26" r="3.2" fill="#1d4ed8"/>
<circle cx="997.81" cy="350.48" r="3.2" fill="#1d4ed8"/>
<circle cx="1000.95" cy="352.90" r="3.2" fill="#1d4ed8"/>
<circle cx="1004.09" cy="349.67" r="3.2" fill="#1d4ed8"/>
<circle cx="1007.23" cy="348.46" r="3.2" fill="#1d4ed8"/>
<circle cx="1010.37" cy="345.62" r="3.2" fill="#1d4ed8"/>
<circle cx="1013.52" cy="344.82" r="3.2" fill="#1d4ed8"/>
<circle cx="1016.66" cy="344.41" r="3.2" fill="#1d4ed8"/>
<circle cx="1019.80" cy="342.39" r="3.2" fill="#1d4ed8"/>
<circle cx="1022.94" cy="341.18" r="3.2" fill="#1d4ed8"/>
<circle cx="1026.08" cy="341.58" r="3.2" fill="#1d4ed8"/>
<circle cx="1029.22" cy="339.15" r="3.2" fill="#1d4ed8"/>
<circle cx="1032.36" cy="338.35" r="3.2" fill="#1d4ed8"/>
<circle cx="1035.50" cy="337.54" r="3.2" fill="#1d4ed8"/>
<circle cx="1038.65" cy="336.73" r="3.2" fill="#1d4ed8"/>
<circle cx="1041.79" cy="335.92" r="3.2" fill="#1d4ed8"/>
<circle cx="1044.93" cy="337.54" r="3.2" fill="#1d4ed8"/>
<circle cx="1048.07" cy="338.35" r="3.2" fill="#1d4ed8"/>
<circle cx="1051.21" cy="337.54" r="3.2" fill="#1d4ed8"/>
<circle cx="1054.35" cy="337.54" r="3.2" fill="#1d4ed8"/>
<circle cx="1057.49" cy="337.54" r="3.2" fill="#1d4ed8"/>
<circle cx="1060.63" cy="333.09" r="3.2" fill="#1d4ed8"/>
<circle cx="1063.78" cy="333.90" r="3.2" fill="#1d4ed8"/>
<circle cx="1066.92" cy="335.92" r="3.2" fill="#1d4ed8"/>
<circle cx="1070.06" cy="336.73" r="3.2" fill="#1d4ed8"/>
<circle cx="1073.20" cy="335.51" r="3.2" fill="#1d4ed8"/>
<circle cx="1076.34" cy="332.28" r="3.2" fill="#1d4ed8"/>
<circle cx="1079.48" cy="331.47" r="3.2" fill="#1d4ed8"/>
<circle cx="1082.62" cy="331.07" r="3.2" fill="#1d4ed8"/>
<circle cx="1085.76" cy="331.47" r="3.2" fill="#1d4ed8"/>
<circle cx="1088.90" cy="331.07" r="3.2" fill="#1d4ed8"/>
<circle cx="1092.05" cy="331.07" r="3.2" fill="#1d4ed8"/>
<circle cx="1095.19" cy="331.07" r="3.2" fill="#1d4ed8"/>
<circle cx="1098.33" cy="331.07" r="3.2" fill="#1d4ed8"/>
<circle cx="1101.47" cy="331.07" r="3.2" fill="#1d4ed8"/>
<circle cx="1104.61" cy="331.07" r="3.2" fill="#1d4ed8"/>
<circle cx="1107.75" cy="331.07" r="3.2" fill="#1d4ed8"/>
<circle cx="1110.89" cy="331.07" r="3.2" fill="#1d4ed8"/>
<circle cx="1114.03" cy="331.07" r="3.2" fill="#1d4ed8"/>
<circle cx="1117.18" cy="331.07" r="3.2" fill="#1d4ed8"/>
<circle cx="1120.32" cy="331.47" r="3.2" fill="#1d4ed8"/>
<circle cx="1123.46" cy="331.88" r="3.2" fill="#1d4ed8"/>
<circle cx="1126.60" cy="331.07" r="3.2" fill="#1d4ed8"/>
<circle cx="1129.74" cy="331.47" r="3.2" fill="#1d4ed8"/>
<circle cx="1132.88" cy="331.07" r="3.2" fill="#1d4ed8"/>
<circle cx="1136.02" cy="331.47" r="3.2" fill="#1d4ed8"/>
<circle cx="1139.16" cy="331.07" r="3.2" fill="#1d4ed8"/>
<circle cx="1142.31" cy="324.19" r="3.2" fill="#1d4ed8"/>
<circle cx="1145.45" cy="324.19" r="3.2" fill="#1d4ed8"/>
<circle cx="1148.59" cy="318.93" r="3.2" fill="#1d4ed8"/>
<circle cx="1151.73" cy="316.51" r="3.2" fill="#1d4ed8"/>
<circle cx="1154.87" cy="310.44" r="3.2" fill="#1d4ed8"/>
<circle cx="1158.01" cy="308.01" r="3.2" fill="#1d4ed8"/>
<circle cx="1161.15" cy="600.00" r="3.2" fill="#1d4ed8"/>
<circle cx="1164.29" cy="301.54" r="3.2" fill="#1d4ed8"/>
<circle cx="1167.44" cy="290.22" r="3.2" fill="#1d4ed8"/>
<circle cx="1170.58" cy="287.79" r="3.2" fill="#1d4ed8"/>
<circle cx="1173.72" cy="286.18" r="3.2" fill="#1d4ed8"/>
<circle cx="1176.86" cy="285.77" r="3.2" fill="#1d4ed8"/>
<circle cx="1180.00" cy="285.77" r="3.2" fill="#1d4ed8"/>
<text x="635" y="695" text-anchor="middle" font-size="14" fill="#111" font-family="sans-serif">Date</text>
<text x="24" y="325" text-anchor="middle" font-size="14" fill="#111" transform="rotate(-90 24,325)" font-family="sans-serif">Passed files</text>
</svg>
