<?xml version="1.0" encoding="UTF-8"?>
<svg xmlns="http://www.w3.org/2000/svg" width="1280" height="720" viewBox="0 0 1280 720">
<rect width="100%" height="100%" fill="#ffffff"/>
<text x="640" y="30" text-anchor="middle" font-size="22" font-family="sans-serif">Roast passed files history</text>
<line x1="90" y1="600" x2="1180" y2="600" stroke="#333" stroke-width="1.5"/>
<line x1="90" y1="50" x2="90" y2="600" stroke="#333" stroke-width="1.5"/>
<line x1="90" y1="600.00" x2="1180" y2="600.00" stroke="#e5e7eb" stroke-width="1"/>
<text x="78" y="605.00" text-anchor="end" font-size="12" fill="#111" font-family="sans-serif">0</text>
<line x1="90" y1="397.79" x2="1180" y2="397.79" stroke="#e5e7eb" stroke-width="1"/>
<text x="78" y="402.79" text-anchor="end" font-size="12" fill="#111" font-family="sans-serif">500</text>
<line x1="90" y1="195.59" x2="1180" y2="195.59" stroke="#e5e7eb" stroke-width="1"/>
<text x="78" y="200.59" text-anchor="end" font-size="12" fill="#111" font-family="sans-serif">1000</text>
<line x1="90.00" y1="600" x2="90.00" y2="606" stroke="#333" stroke-width="1"/>
<text x="90.00" y="624" text-anchor="end" font-size="11" fill="#111" transform="rotate(-40 90.00,624)" font-family="sans-serif">2026-02-12</text>
<line x1="225.77" y1="600" x2="225.77" y2="606" stroke="#333" stroke-width="1"/>
<text x="225.77" y="624" text-anchor="end" font-size="11" fill="#111" transform="rotate(-40 225.77,624)" font-family="sans-serif">2026-02-17</text>
<line x1="361.53" y1="600" x2="361.53" y2="606" stroke="#333" stroke-width="1"/>
<text x="361.53" y="624" text-anchor="end" font-size="11" fill="#111" transform="rotate(-40 361.53,624)" font-family="sans-serif">2026-02-19</text>
<line x1="497.30" y1="600" x2="497.30" y2="606" stroke="#333" stroke-width="1"/>
<text x="497.30" y="624" text-anchor="end" font-size="11" fill="#111" transform="rotate(-40 497.30,624)" font-family="sans-serif">2026-02-23</text>
<line x1="633.06" y1="600" x2="633.06" y2="606" stroke="#333" stroke-width="1"/>
<text x="633.06" y="624" text-anchor="end" font-size="11" fill="#111" transform="rotate(-40 633.06,624)" font-family="sans-serif">2026-02-25</text>
<line x1="768.83" y1="600" x2="768.83" y2="606" stroke="#333" stroke-width="1"/>
<text x="768.83" y="624" text-anchor="end" font-size="11" fill="#111" transform="rotate(-40 768.83,624)" font-family="sans-serif">2026-02-28</text>
<line x1="904.59" y1="600" x2="904.59" y2="606" stroke="#333" stroke-width="1"/>
<text x="904.59" y="624" text-anchor="end" font-size="11" fill="#111" transform="rotate(-40 904.59,624)" font-family="sans-serif">2026-03-01</text>
<line x1="1040.36" y1="600" x2="1040.36" y2="606" stroke="#333" stroke-width="1"/>
<text x="1040.36" y="624" text-anchor="end" font-size="11" fill="#111" transform="rotate(-40 1040.36,624)" font-family="sans-serif">2026-03-06</text>
<line x1="1176.12" y1="600" x2="1176.12" y2="606" stroke="#333" stroke-width="1"/>
<text x="1176.12" y="624" text-anchor="end" font-size="11" fill="#111" transform="rotate(-40 1176.12,624)" font-family="sans-serif">2026-03-07</text>
<line x1="1180.00" y1="600" x2="1180.00" y2="606" stroke="#333" stroke-width="1"/>
<text x="1180.00" y="624" text-anchor="end" font-size="11" fill="#111" transform="rotate(-40 1180.00,624)" font-family="sans-serif">2026-03-07</text>
<line x1="90" y1="75.88" x2="1180" y2="75.88" stroke="#dc2626" stroke-width="1.5" stroke-dasharray="8,4"/>
<text x="1184" y="79.88" font-size="12" fill="#dc2626" font-family="sans-serif">Goal: 1296</text>
<polyline fill="none" stroke="#2563eb" stroke-width="3" points="90.00,540.55 93.88,538.53 97.76,536.91 101.64,534.49 105.52,534.49 109.40,533.27 113.27,532.46 117.15,532.87 121.03,532.06 124.91,532.46 128.79,532.06 132.67,568.46 136.55,568.46 140.43,566.43 144.31,545.00 148.19,545.00 152.06,544.19 155.94,543.79 159.82,543.79 163.70,543.38 167.58,541.76 171.46,541.36 175.34,540.96 179.22,540.96 183.10,539.34 186.98,539.34 190.85,556.73 194.73,556.73 198.61,555.51 202.49,551.07 206.37,538.93 210.25,538.93 214.13,538.93 218.01,538.12 221.89,536.91 225.77,536.91 229.64,536.51 233.52,536.51 237.40,556.73 241.28,556.73 245.16,556.73 249.04,556.73 252.92,535.29 256.80,535.29 260.68,535.29 264.56,535.29 268.43,534.49 272.31,534.08 276.19,533.68 280.07,532.87 283.95,532.06 287.83,532.06 291.71,531.25 295.59,530.85 299.47,530.44 303.35,530.04 307.22,530.04 311.10,529.23 314.98,529.23 318.86,529.23 322.74,528.42 326.62,528.42 330.50,527.61 334.38,527.21 338.26,526.80 342.14,526.40 346.01,525.18 349.89,523.57 353.77,523.57 357.65,523.16 361.53,522.76 365.41,522.35 369.29,521.54 373.17,519.52 377.05,517.50 380.93,517.50 384.80,517.50 388.68,517.50 392.56,517.50 396.44,517.50 400.32,517.10 404.20,516.69 408.08,515.48 411.96,515.07 415.84,514.67 419.72,513.86 423.59,514.26 427.47,512.24 431.35,511.84 435.23,511.84 439.11,511.03 442.99,509.82 446.87,507.79 450.75,506.99 454.63,506.58 458.51,509.41 462.38,509.01 466.26,504.96 470.14,504.56 474.02,504.15 477.90,504.56 481.78,503.75 485.66,503.75 489.54,503.35 493.42,499.30 497.30,496.47 501.17,490.00 505.05,484.34 508.93,481.10 512.81,480.29 516.69,480.70 520.57,460.88 524.45,459.26 528.33,458.05 532.21,456.03 536.09,456.03 539.96,454.41 543.84,450.77 547.72,444.30 551.60,443.90 555.48,600.00 559.36,441.88 563.24,440.66 567.12,439.45 571.00,439.04 574.88,438.64 578.75,437.83 582.63,436.62 586.51,436.62 590.39,434.60 594.27,432.17 598.15,429.34 602.03,428.93 605.91,428.53 609.79,427.72 613.67,426.91 617.54,426.10 621.42,426.10 625.30,426.10 629.18,419.63 633.06,419.23 636.94,418.42 640.82,418.01 644.70,417.61 648.58,417.61 652.46,417.61 656.33,417.21 660.21,417.21 664.09,413.57 667.97,411.95 671.85,412.76 675.73,410.74 679.61,410.74 683.49,410.33 687.37,410.33 691.25,410.33 695.12,409.93 699.00,409.93 702.88,409.93 706.76,409.52 710.64,409.52 714.52,409.12 718.40,409.52 722.28,409.12 726.16,407.50 730.04,407.10 733.91,403.05 737.79,399.82 741.67,400.22 745.55,400.62 749.43,400.62 753.31,399.41 757.19,392.94 761.07,391.32 764.95,389.30 768.83,389.30 772.70,388.49 776.58,375.15 780.46,374.74 784.34,374.74 788.22,374.74 792.10,374.74 795.98,374.34 799.86,374.34 803.74,374.34 807.62,374.34 811.49,374.34 815.37,373.93 819.25,373.12 823.13,372.72 827.01,373.53 830.89,435.81 834.77,372.32 838.65,372.72 842.53,371.91 846.41,371.91 850.28,372.32 854.16,371.10 858.04,369.89 861.92,369.89 865.80,369.89 869.68,369.49 873.56,369.89 877.44,369.08 881.32,368.68 885.20,368.27 889.07,367.87 892.95,367.06 896.83,367.46 900.71,367.06 904.59,366.25 908.47,368.27 912.35,368.68 916.23,368.68 920.11,368.27 923.99,369.08 927.86,367.87 931.74,367.46 935.62,367.06 939.50,360.18 943.38,359.78 947.26,359.38 951.14,356.95 955.02,357.35 958.90,357.76 962.78,355.33 966.65,355.74 970.53,357.35 974.41,355.33 978.29,356.14 982.17,355.74 986.05,356.14 989.93,354.12 993.81,354.93 997.69,356.14 1001.57,354.52 1005.44,353.71 1009.32,354.12 1013.20,354.93 1017.08,352.90 1020.96,353.71 1024.84,353.31 1028.72,353.31 1032.60,354.52 1036.48,352.90 1040.36,352.50 1044.23,352.50 1048.11,353.31 1051.99,352.50 1055.87,353.71 1059.75,354.12 1063.63,352.50 1067.51,352.90 1071.39,352.50 1075.27,352.10 1079.15,351.69 1083.02,352.10 1086.90,354.12 1090.78,352.50 1094.66,352.10 1098.54,352.10 1102.42,349.67 1106.30,349.67 1110.18,350.88 1114.06,351.29 1117.94,350.48 1121.81,352.10 1125.69,350.48 1129.57,350.48 1133.45,350.48 1137.33,350.07 1141.21,348.46 1145.09,351.29 1148.97,349.67 1152.85,351.29 1156.73,349.67 1160.60,348.86 1164.48,348.46 1168.36,348.46 1172.24,347.24 1176.12,348.86 1180.00,346.84"/>
<circle cx="90.00" cy="540.55" r="3.2" fill="#1d4ed8"/>
<circle cx="93.88" cy="538.53" r="3.2" fill="#1d4ed8"/>
<circle cx="97.76" cy="536.91" r="3.2" fill="#1d4ed8"/>
<circle cx="101.64" cy="534.49" r="3.2" fill="#1d4ed8"/>
<circle cx="105.52" cy="534.49" r="3.2" fill="#1d4ed8"/>
<circle cx="109.40" cy="533.27" r="3.2" fill="#1d4ed8"/>
<circle cx="113.27" cy="532.46" r="3.2" fill="#1d4ed8"/>
<circle cx="117.15" cy="532.87" r="3.2" fill="#1d4ed8"/>
<circle cx="121.03" cy="532.06" r="3.2" fill="#1d4ed8"/>
<circle cx="124.91" cy="532.46" r="3.2" fill="#1d4ed8"/>
<circle cx="128.79" cy="532.06" r="3.2" fill="#1d4ed8"/>
<circle cx="132.67" cy="568.46" r="3.2" fill="#1d4ed8"/>
<circle cx="136.55" cy="568.46" r="3.2" fill="#1d4ed8"/>
<circle cx="140.43" cy="566.43" r="3.2" fill="#1d4ed8"/>
<circle cx="144.31" cy="545.00" r="3.2" fill="#1d4ed8"/>
<circle cx="148.19" cy="545.00" r="3.2" fill="#1d4ed8"/>
<circle cx="152.06" cy="544.19" r="3.2" fill="#1d4ed8"/>
<circle cx="155.94" cy="543.79" r="3.2" fill="#1d4ed8"/>
<circle cx="159.82" cy="543.79" r="3.2" fill="#1d4ed8"/>
<circle cx="163.70" cy="543.38" r="3.2" fill="#1d4ed8"/>
<circle cx="167.58" cy="541.76" r="3.2" fill="#1d4ed8"/>
<circle cx="171.46" cy="541.36" r="3.2" fill="#1d4ed8"/>
<circle cx="175.34" cy="540.96" r="3.2" fill="#1d4ed8"/>
<circle cx="179.22" cy="540.96" r="3.2" fill="#1d4ed8"/>
<circle cx="183.10" cy="539.34" r="3.2" fill="#1d4ed8"/>
<circle cx="186.98" cy="539.34" r="3.2" fill="#1d4ed8"/>
<circle cx="190.85" cy="556.73" r="3.2" fill="#1d4ed8"/>
<circle cx="194.73" cy="556.73" r="3.2" fill="#1d4ed8"/>
<circle cx="198.61" cy="555.51" r="3.2" fill="#1d4ed8"/>
<circle cx="202.49" cy="551.07" r="3.2" fill="#1d4ed8"/>
<circle cx="206.37" cy="538.93" r="3.2" fill="#1d4ed8"/>
<circle cx="210.25" cy="538.93" r="3.2" fill="#1d4ed8"/>
<circle cx="214.13" cy="538.93" r="3.2" fill="#1d4ed8"/>
<circle cx="218.01" cy="538.12" r="3.2" fill="#1d4ed8"/>
<circle cx="221.89" cy="536.91" r="3.2" fill="#1d4ed8"/>
<circle cx="225.77" cy="536.91" r="3.2" fill="#1d4ed8"/>
<circle cx="229.64" cy="536.51" r="3.2" fill="#1d4ed8"/>
<circle cx="233.52" cy="536.51" r="3.2" fill="#1d4ed8"/>
<circle cx="237.40" cy="556.73" r="3.2" fill="#1d4ed8"/>
<circle cx="241.28" cy="556.73" r="3.2" fill="#1d4ed8"/>
<circle cx="245.16" cy="556.73" r="3.2" fill="#1d4ed8"/>
<circle cx="249.04" cy="556.73" r="3.2" fill="#1d4ed8"/>
<circle cx="252.92" cy="535.29" r="3.2" fill="#1d4ed8"/>
<circle cx="256.80" cy="535.29" r="3.2" fill="#1d4ed8"/>
<circle cx="260.68" cy="535.29" r="3.2" fill="#1d4ed8"/>
<circle cx="264.56" cy="535.29" r="3.2" fill="#1d4ed8"/>
<circle cx="268.43" cy="534.49" r="3.2" fill="#1d4ed8"/>
<circle cx="272.31" cy="534.08" r="3.2" fill="#1d4ed8"/>
<circle cx="276.19" cy="533.68" r="3.2" fill="#1d4ed8"/>
<circle cx="280.07" cy="532.87" r="3.2" fill="#1d4ed8"/>
<circle cx="283.95" cy="532.06" r="3.2" fill="#1d4ed8"/>
<circle cx="287.83" cy="532.06" r="3.2" fill="#1d4ed8"/>
<circle cx="291.71" cy="531.25" r="3.2" fill="#1d4ed8"/>
<circle cx="295.59" cy="530.85" r="3.2" fill="#1d4ed8"/>
<circle cx="299.47" cy="530.44" r="3.2" fill="#1d4ed8"/>
<circle cx="303.35" cy="530.04" r="3.2" fill="#1d4ed8"/>
<circle cx="307.22" cy="530.04" r="3.2" fill="#1d4ed8"/>
<circle cx="311.10" cy="529.23" r="3.2" fill="#1d4ed8"/>
<circle cx="314.98" cy="529.23" r="3.2" fill="#1d4ed8"/>
<circle cx="318.86" cy="529.23" r="3.2" fill="#1d4ed8"/>
<circle cx="322.74" cy="528.42" r="3.2" fill="#1d4ed8"/>
<circle cx="326.62" cy="528.42" r="3.2" fill="#1d4ed8"/>
<circle cx="330.50" cy="527.61" r="3.2" fill="#1d4ed8"/>
<circle cx="334.38" cy="527.21" r="3.2" fill="#1d4ed8"/>
<circle cx="338.26" cy="526.80" r="3.2" fill="#1d4ed8"/>
<circle cx="342.14" cy="526.40" r="3.2" fill="#1d4ed8"/>
<circle cx="346.01" cy="525.18" r="3.2" fill="#1d4ed8"/>
<circle cx="349.89" cy="523.57" r="3.2" fill="#1d4ed8"/>
<circle cx="353.77" cy="523.57" r="3.2" fill="#1d4ed8"/>
<circle cx="357.65" cy="523.16" r="3.2" fill="#1d4ed8"/>
<circle cx="361.53" cy="522.76" r="3.2" fill="#1d4ed8"/>
<circle cx="365.41" cy="522.35" r="3.2" fill="#1d4ed8"/>
<circle cx="369.29" cy="521.54" r="3.2" fill="#1d4ed8"/>
<circle cx="373.17" cy="519.52" r="3.2" fill="#1d4ed8"/>
<circle cx="377.05" cy="517.50" r="3.2" fill="#1d4ed8"/>
<circle cx="380.93" cy="517.50" r="3.2" fill="#1d4ed8"/>
<circle cx="384.80" cy="517.50" r="3.2" fill="#1d4ed8"/>
<circle cx="388.68" cy="517.50" r="3.2" fill="#1d4ed8"/>
<circle cx="392.56" cy="517.50" r="3.2" fill="#1d4ed8"/>
<circle cx="396.44" cy="517.50" r="3.2" fill="#1d4ed8"/>
<circle cx="400.32" cy="517.10" r="3.2" fill="#1d4ed8"/>
<circle cx="404.20" cy="516.69" r="3.2" fill="#1d4ed8"/>
<circle cx="408.08" cy="515.48" r="3.2" fill="#1d4ed8"/>
<circle cx="411.96" cy="515.07" r="3.2" fill="#1d4ed8"/>
<circle cx="415.84" cy="514.67" r="3.2" fill="#1d4ed8"/>
<circle cx="419.72" cy="513.86" r="3.2" fill="#1d4ed8"/>
<circle cx="423.59" cy="514.26" r="3.2" fill="#1d4ed8"/>
<circle cx="427.47" cy="512.24" r="3.2" fill="#1d4ed8"/>
<circle cx="431.35" cy="511.84" r="3.2" fill="#1d4ed8"/>
<circle cx="435.23" cy="511.84" r="3.2" fill="#1d4ed8"/>
<circle cx="439.11" cy="511.03" r="3.2" fill="#1d4ed8"/>
<circle cx="442.99" cy="509.82" r="3.2" fill="#1d4ed8"/>
<circle cx="446.87" cy="507.79" r="3.2" fill="#1d4ed8"/>
<circle cx="450.75" cy="506.99" r="3.2" fill="#1d4ed8"/>
<circle cx="454.63" cy="506.58" r="3.2" fill="#1d4ed8"/>
<circle cx="458.51" cy="509.41" r="3.2" fill="#1d4ed8"/>
<circle cx="462.38" cy="509.01" r="3.2" fill="#1d4ed8"/>
<circle cx="466.26" cy="504.96" r="3.2" fill="#1d4ed8"/>
<circle cx="470.14" cy="504.56" r="3.2" fill="#1d4ed8"/>
<circle cx="474.02" cy="504.15" r="3.2" fill="#1d4ed8"/>
<circle cx="477.90" cy="504.56" r="3.2" fill="#1d4ed8"/>
<circle cx="481.78" cy="503.75" r="3.2" fill="#1d4ed8"/>
<circle cx="485.66" cy="503.75" r="3.2" fill="#1d4ed8"/>
<circle cx="489.54" cy="503.35" r="3.2" fill="#1d4ed8"/>
<circle cx="493.42" cy="499.30" r="3.2" fill="#1d4ed8"/>
<circle cx="497.30" cy="496.47" r="3.2" fill="#1d4ed8"/>
<circle cx="501.17" cy="490.00" r="3.2" fill="#1d4ed8"/>
<circle cx="505.05" cy="484.34" r="3.2" fill="#1d4ed8"/>
<circle cx="508.93" cy="481.10" r="3.2" fill="#1d4ed8"/>
<circle cx="512.81" cy="480.29" r="3.2" fill="#1d4ed8"/>
<circle cx="516.69" cy="480.70" r="3.2" fill="#1d4ed8"/>
<circle cx="520.57" cy="460.88" r="3.2" fill="#1d4ed8"/>
<circle cx="524.45" cy="459.26" r="3.2" fill="#1d4ed8"/>
<circle cx="528.33" cy="458.05" r="3.2" fill="#1d4ed8"/>
<circle cx="532.21" cy="456.03" r="3.2" fill="#1d4ed8"/>
<circle cx="536.09" cy="456.03" r="3.2" fill="#1d4ed8"/>
<circle cx="539.96" cy="454.41" r="3.2" fill="#1d4ed8"/>
<circle cx="543.84" cy="450.77" r="3.2" fill="#1d4ed8"/>
<circle cx="547.72" cy="444.30" r="3.2" fill="#1d4ed8"/>
<circle cx="551.60" cy="443.90" r="3.2" fill="#1d4ed8"/>
<circle cx="555.48" cy="600.00" r="3.2" fill="#1d4ed8"/>
<circle cx="559.36" cy="441.88" r="3.2" fill="#1d4ed8"/>
<circle cx="563.24" cy="440.66" r="3.2" fill="#1d4ed8"/>
<circle cx="567.12" cy="439.45" r="3.2" fill="#1d4ed8"/>
<circle cx="571.00" cy="439.04" r="3.2" fill="#1d4ed8"/>
<circle cx="574.88" cy="438.64" r="3.2" fill="#1d4ed8"/>
<circle cx="578.75" cy="437.83" r="3.2" fill="#1d4ed8"/>
<circle cx="582.63" cy="436.62" r="3.2" fill="#1d4ed8"/>
<circle cx="586.51" cy="436.62" r="3.2" fill="#1d4ed8"/>
<circle cx="590.39" cy="434.60" r="3.2" fill="#1d4ed8"/>
<circle cx="594.27" cy="432.17" r="3.2" fill="#1d4ed8"/>
<circle cx="598.15" cy="429.34" r="3.2" fill="#1d4ed8"/>
<circle cx="602.03" cy="428.93" r="3.2" fill="#1d4ed8"/>
<circle cx="605.91" cy="428.53" r="3.2" fill="#1d4ed8"/>
<circle cx="609.79" cy="427.72" r="3.2" fill="#1d4ed8"/>
<circle cx="613.67" cy="426.91" r="3.2" fill="#1d4ed8"/>
<circle cx="617.54" cy="426.10" r="3.2" fill="#1d4ed8"/>
<circle cx="621.42" cy="426.10" r="3.2" fill="#1d4ed8"/>
<circle cx="625.30" cy="426.10" r="3.2" fill="#1d4ed8"/>
<circle cx="629.18" cy="419.63" r="3.2" fill="#1d4ed8"/>
<circle cx="633.06" cy="419.23" r="3.2" fill="#1d4ed8"/>
<circle cx="636.94" cy="418.42" r="3.2" fill="#1d4ed8"/>
<circle cx="640.82" cy="418.01" r="3.2" fill="#1d4ed8"/>
<circle cx="644.70" cy="417.61" r="3.2" fill="#1d4ed8"/>
<circle cx="648.58" cy="417.61" r="3.2" fill="#1d4ed8"/>
<circle cx="652.46" cy="417.61" r="3.2" fill="#1d4ed8"/>
<circle cx="656.33" cy="417.21" r="3.2" fill="#1d4ed8"/>
<circle cx="660.21" cy="417.21" r="3.2" fill="#1d4ed8"/>
<circle cx="664.09" cy="413.57" r="3.2" fill="#1d4ed8"/>
<circle cx="667.97" cy="411.95" r="3.2" fill="#1d4ed8"/>
<circle cx="671.85" cy="412.76" r="3.2" fill="#1d4ed8"/>
<circle cx="675.73" cy="410.74" r="3.2" fill="#1d4ed8"/>
<circle cx="679.61" cy="410.74" r="3.2" fill="#1d4ed8"/>
<circle cx="683.49" cy="410.33" r="3.2" fill="#1d4ed8"/>
<circle cx="687.37" cy="410.33" r="3.2" fill="#1d4ed8"/>
<circle cx="691.25" cy="410.33" r="3.2" fill="#1d4ed8"/>
<circle cx="695.12" cy="409.93" r="3.2" fill="#1d4ed8"/>
<circle cx="699.00" cy="409.93" r="3.2" fill="#1d4ed8"/>
<circle cx="702.88" cy="409.93" r="3.2" fill="#1d4ed8"/>
<circle cx="706.76" cy="409.52" r="3.2" fill="#1d4ed8"/>
<circle cx="710.64" cy="409.52" r="3.2" fill="#1d4ed8"/>
<circle cx="714.52" cy="409.12" r="3.2" fill="#1d4ed8"/>
<circle cx="718.40" cy="409.52" r="3.2" fill="#1d4ed8"/>
<circle cx="722.28" cy="409.12" r="3.2" fill="#1d4ed8"/>
<circle cx="726.16" cy="407.50" r="3.2" fill="#1d4ed8"/>
<circle cx="730.04" cy="407.10" r="3.2" fill="#1d4ed8"/>
<circle cx="733.91" cy="403.05" r="3.2" fill="#1d4ed8"/>
<circle cx="737.79" cy="399.82" r="3.2" fill="#1d4ed8"/>
<circle cx="741.67" cy="400.22" r="3.2" fill="#1d4ed8"/>
<circle cx="745.55" cy="400.62" r="3.2" fill="#1d4ed8"/>
<circle cx="749.43" cy="400.62" r="3.2" fill="#1d4ed8"/>
<circle cx="753.31" cy="399.41" r="3.2" fill="#1d4ed8"/>
<circle cx="757.19" cy="392.94" r="3.2" fill="#1d4ed8"/>
<circle cx="761.07" cy="391.32" r="3.2" fill="#1d4ed8"/>
<circle cx="764.95" cy="389.30" r="3.2" fill="#1d4ed8"/>
<circle cx="768.83" cy="389.30" r="3.2" fill="#1d4ed8"/>
<circle cx="772.70" cy="388.49" r="3.2" fill="#1d4ed8"/>
<circle cx="776.58" cy="375.15" r="3.2" fill="#1d4ed8"/>
<circle cx="780.46" cy="374.74" r="3.2" fill="#1d4ed8"/>
<circle cx="784.34" cy="374.74" r="3.2" fill="#1d4ed8"/>
<circle cx="788.22" cy="374.74" r="3.2" fill="#1d4ed8"/>
<circle cx="792.10" cy="374.74" r="3.2" fill="#1d4ed8"/>
<circle cx="795.98" cy="374.34" r="3.2" fill="#1d4ed8"/>
<circle cx="799.86" cy="374.34" r="3.2" fill="#1d4ed8"/>
<circle cx="803.74" cy="374.34" r="3.2" fill="#1d4ed8"/>
<circle cx="807.62" cy="374.34" r="3.2" fill="#1d4ed8"/>
<circle cx="811.49" cy="374.34" r="3.2" fill="#1d4ed8"/>
<circle cx="815.37" cy="373.93" r="3.2" fill="#1d4ed8"/>
<circle cx="819.25" cy="373.12" r="3.2" fill="#1d4ed8"/>
<circle cx="823.13" cy="372.72" r="3.2" fill="#1d4ed8"/>
<circle cx="827.01" cy="373.53" r="3.2" fill="#1d4ed8"/>
<circle cx="830.89" cy="435.81" r="3.2" fill="#1d4ed8"/>
<circle cx="834.77" cy="372.32" r="3.2" fill="#1d4ed8"/>
<circle cx="838.65" cy="372.72" r="3.2" fill="#1d4ed8"/>
<circle cx="842.53" cy="371.91" r="3.2" fill="#1d4ed8"/>
<circle cx="846.41" cy="371.91" r="3.2" fill="#1d4ed8"/>
<circle cx="850.28" cy="372.32" r="3.2" fill="#1d4ed8"/>
<circle cx="854.16" cy="371.10" r="3.2" fill="#1d4ed8"/>
<circle cx="858.04" cy="369.89" r="3.2" fill="#1d4ed8"/>
<circle cx="861.92" cy="369.89" r="3.2" fill="#1d4ed8"/>
<circle cx="865.80" cy="369.89" r="3.2" fill="#1d4ed8"/>
<circle cx="869.68" cy="369.49" r="3.2" fill="#1d4ed8"/>
<circle cx="873.56" cy="369.89" r="3.2" fill="#1d4ed8"/>
<circle cx="877.44" cy="369.08" r="3.2" fill="#1d4ed8"/>
<circle cx="881.32" cy="368.68" r="3.2" fill="#1d4ed8"/>
<circle cx="885.20" cy="368.27" r="3.2" fill="#1d4ed8"/>
<circle cx="889.07" cy="367.87" r="3.2" fill="#1d4ed8"/>
<circle cx="892.95" cy="367.06" r="3.2" fill="#1d4ed8"/>
<circle cx="896.83" cy="367.46" r="3.2" fill="#1d4ed8"/>
<circle cx="900.71" cy="367.06" r="3.2" fill="#1d4ed8"/>
<circle cx="904.59" cy="366.25" r="3.2" fill="#1d4ed8"/>
<circle cx="908.47" cy="368.27" r="3.2" fill="#1d4ed8"/>
<circle cx="912.35" cy="368.68" r="3.2" fill="#1d4ed8"/>
<circle cx="916.23" cy="368.68" r="3.2" fill="#1d4ed8"/>
<circle cx="920.11" cy="368.27" r="3.2" fill="#1d4ed8"/>
<circle cx="923.99" cy="369.08" r="3.2" fill="#1d4ed8"/>
<circle cx="927.86" cy="367.87" r="3.2" fill="#1d4ed8"/>
<circle cx="931.74" cy="367.46" r="3.2" fill="#1d4ed8"/>
<circle cx="935.62" cy="367.06" r="3.2" fill="#1d4ed8"/>
<circle cx="939.50" cy="360.18" r="3.2" fill="#1d4ed8"/>
<circle cx="943.38" cy="359.78" r="3.2" fill="#1d4ed8"/>
<circle cx="947.26" cy="359.38" r="3.2" fill="#1d4ed8"/>
<circle cx="951.14" cy="356.95" r="3.2" fill="#1d4ed8"/>
<circle cx="955.02" cy="357.35" r="3.2" fill="#1d4ed8"/>
<circle cx="958.90" cy="357.76" r="3.2" fill="#1d4ed8"/>
<circle cx="962.78" cy="355.33" r="3.2" fill="#1d4ed8"/>
<circle cx="966.65" cy="355.74" r="3.2" fill="#1d4ed8"/>
<circle cx="970.53" cy="357.35" r="3.2" fill="#1d4ed8"/>
<circle cx="974.41" cy="355.33" r="3.2" fill="#1d4ed8"/>
<circle cx="978.29" cy="356.14" r="3.2" fill="#1d4ed8"/>
<circle cx="982.17" cy="355.74" r="3.2" fill="#1d4ed8"/>
<circle cx="986.05" cy="356.14" r="3.2" fill="#1d4ed8"/>
<circle cx="989.93" cy="354.12" r="3.2" fill="#1d4ed8"/>
<circle cx="993.81" cy="354.93" r="3.2" fill="#1d4ed8"/>
<circle cx="997.69" cy="356.14" r="3.2" fill="#1d4ed8"/>
<circle cx="1001.57" cy="354.52" r="3.2" fill="#1d4ed8"/>
<circle cx="1005.44" cy="353.71" r="3.2" fill="#1d4ed8"/>
<circle cx="1009.32" cy="354.12" r="3.2" fill="#1d4ed8"/>
<circle cx="1013.20" cy="354.93" r="3.2" fill="#1d4ed8"/>
<circle cx="1017.08" cy="352.90" r="3.2" fill="#1d4ed8"/>
<circle cx="1020.96" cy="353.71" r="3.2" fill="#1d4ed8"/>
<circle cx="1024.84" cy="353.31" r="3.2" fill="#1d4ed8"/>
<circle cx="1028.72" cy="353.31" r="3.2" fill="#1d4ed8"/>
<circle cx="1032.60" cy="354.52" r="3.2" fill="#1d4ed8"/>
<circle cx="1036.48" cy="352.90" r="3.2" fill="#1d4ed8"/>
<circle cx="1040.36" cy="352.50" r="3.2" fill="#1d4ed8"/>
<circle cx="1044.23" cy="352.50" r="3.2" fill="#1d4ed8"/>
<circle cx="1048.11" cy="353.31" r="3.2" fill="#1d4ed8"/>
<circle cx="1051.99" cy="352.50" r="3.2" fill="#1d4ed8"/>
<circle cx="1055.87" cy="353.71" r="3.2" fill="#1d4ed8"/>
<circle cx="1059.75" cy="354.12" r="3.2" fill="#1d4ed8"/>
<circle cx="1063.63" cy="352.50" r="3.2" fill="#1d4ed8"/>
<circle cx="1067.51" cy="352.90" r="3.2" fill="#1d4ed8"/>
<circle cx="1071.39" cy="352.50" r="3.2" fill="#1d4ed8"/>
<circle cx="1075.27" cy="352.10" r="3.2" fill="#1d4ed8"/>
<circle cx="1079.15" cy="351.69" r="3.2" fill="#1d4ed8"/>
<circle cx="1083.02" cy="352.10" r="3.2" fill="#1d4ed8"/>
<circle cx="1086.90" cy="354.12" r="3.2" fill="#1d4ed8"/>
<circle cx="1090.78" cy="352.50" r="3.2" fill="#1d4ed8"/>
<circle cx="1094.66" cy="352.10" r="3.2" fill="#1d4ed8"/>
<circle cx="1098.54" cy="352.10" r="3.2" fill="#1d4ed8"/>
<circle cx="1102.42" cy="349.67" r="3.2" fill="#1d4ed8"/>
<circle cx="1106.30" cy="349.67" r="3.2" fill="#1d4ed8"/>
<circle cx="1110.18" cy="350.88" r="3.2" fill="#1d4ed8"/>
<circle cx="1114.06" cy="351.29" r="3.2" fill="#1d4ed8"/>
<circle cx="1117.94" cy="350.48" r="3.2" fill="#1d4ed8"/>
<circle cx="1121.81" cy="352.10" r="3.2" fill="#1d4ed8"/>
<circle cx="1125.69" cy="350.48" r="3.2" fill="#1d4ed8"/>
<circle cx="1129.57" cy="350.48" r="3.2" fill="#1d4ed8"/>
<circle cx="1133.45" cy="350.48" r="3.2" fill="#1d4ed8"/>
<circle cx="1137.33" cy="350.07" r="3.2" fill="#1d4ed8"/>
<circle cx="1141.21" cy="348.46" r="3.2" fill="#1d4ed8"/>
<circle cx="1145.09" cy="351.29" r="3.2" fill="#1d4ed8"/>
<circle cx="1148.97" cy="349.67" r="3.2" fill="#1d4ed8"/>
<circle cx="1152.85" cy="351.29" r="3.2" fill="#1d4ed8"/>
<circle cx="1156.73" cy="349.67" r="3.2" fill="#1d4ed8"/>
<circle cx="1160.60" cy="348.86" r="3.2" fill="#1d4ed8"/>
<circle cx="1164.48" cy="348.46" r="3.2" fill="#1d4ed8"/>
<circle cx="1168.36" cy="348.46" r="3.2" fill="#1d4ed8"/>
<circle cx="1172.24" cy="347.24" r="3.2" fill="#1d4ed8"/>
<circle cx="1176.12" cy="348.86" r="3.2" fill="#1d4ed8"/>
<circle cx="1180.00" cy="346.84" r="3.2" fill="#1d4ed8"/>
<text x="635" y="695" text-anchor="middle" font-size="14" fill="#111" font-family="sans-serif">Date</text>
<text x="24" y="325" text-anchor="middle" font-size="14" fill="#111" transform="rotate(-90 24,325)" font-family="sans-serif">Passed files</text>
</svg>
