<?xml version="1.0" encoding="UTF-8"?>
<svg xmlns="http://www.w3.org/2000/svg" width="1280" height="720" viewBox="0 0 1280 720">
<rect width="100%" height="100%" fill="#ffffff"/>
<text x="640" y="30" text-anchor="middle" font-size="22" font-family="sans-serif">Roast passed files history</text>
<line x1="90" y1="600" x2="1180" y2="600" stroke="#333" stroke-width="1.5"/>
<line x1="90" y1="50" x2="90" y2="600" stroke="#333" stroke-width="1.5"/>
<line x1="90" y1="600.00" x2="1180" y2="600.00" stroke="#e5e7eb" stroke-width="1"/>
<text x="78" y="605.00" text-anchor="end" font-size="12" fill="#111" font-family="sans-serif">0</text>
<line x1="90" y1="397.79" x2="1180" y2="397.79" stroke="#e5e7eb" stroke-width="1"/>
<text x="78" y="402.79" text-anchor="end" font-size="12" fill="#111" font-family="sans-serif">500</text>
<line x1="90" y1="195.59" x2="1180" y2="195.59" stroke="#e5e7eb" stroke-width="1"/>
<text x="78" y="200.59" text-anchor="end" font-size="12" fill="#111" font-family="sans-serif">1000</text>
<line x1="90.00" y1="600" x2="90.00" y2="606" stroke="#333" stroke-width="1"/>
<text x="90.00" y="624" text-anchor="end" font-size="11" fill="#111" transform="rotate(-40 90.00,624)" font-family="sans-serif">2026-02-12</text>
<line x1="224.20" y1="600" x2="224.20" y2="606" stroke="#333" stroke-width="1"/>
<text x="224.20" y="624" text-anchor="end" font-size="11" fill="#111" transform="rotate(-40 224.20,624)" font-family="sans-serif">2026-02-17</text>
<line x1="358.39" y1="600" x2="358.39" y2="606" stroke="#333" stroke-width="1"/>
<text x="358.39" y="624" text-anchor="end" font-size="11" fill="#111" transform="rotate(-40 358.39,624)" font-family="sans-serif">2026-02-22</text>
<line x1="492.59" y1="600" x2="492.59" y2="606" stroke="#333" stroke-width="1"/>
<text x="492.59" y="624" text-anchor="end" font-size="11" fill="#111" transform="rotate(-40 492.59,624)" font-family="sans-serif">2026-02-26</text>
<line x1="626.78" y1="600" x2="626.78" y2="606" stroke="#333" stroke-width="1"/>
<text x="626.78" y="624" text-anchor="end" font-size="11" fill="#111" transform="rotate(-40 626.78,624)" font-family="sans-serif">2026-02-28</text>
<line x1="760.98" y1="600" x2="760.98" y2="606" stroke="#333" stroke-width="1"/>
<text x="760.98" y="624" text-anchor="end" font-size="11" fill="#111" transform="rotate(-40 760.98,624)" font-family="sans-serif">2026-03-06</text>
<line x1="895.18" y1="600" x2="895.18" y2="606" stroke="#333" stroke-width="1"/>
<text x="895.18" y="624" text-anchor="end" font-size="11" fill="#111" transform="rotate(-40 895.18,624)" font-family="sans-serif">2026-03-08</text>
<line x1="1029.37" y1="600" x2="1029.37" y2="606" stroke="#333" stroke-width="1"/>
<text x="1029.37" y="624" text-anchor="end" font-size="11" fill="#111" transform="rotate(-40 1029.37,624)" font-family="sans-serif">2026-03-17</text>
<line x1="1163.57" y1="600" x2="1163.57" y2="606" stroke="#333" stroke-width="1"/>
<text x="1163.57" y="624" text-anchor="end" font-size="11" fill="#111" transform="rotate(-40 1163.57,624)" font-family="sans-serif">2026-03-19</text>
<line x1="1180.00" y1="600" x2="1180.00" y2="606" stroke="#333" stroke-width="1"/>
<text x="1180.00" y="624" text-anchor="end" font-size="11" fill="#111" transform="rotate(-40 1180.00,624)" font-family="sans-serif">2026-03-19</text>
<line x1="90" y1="75.88" x2="1180" y2="75.88" stroke="#dc2626" stroke-width="1.5" stroke-dasharray="8,4"/>
<text x="1184" y="79.88" font-size="12" fill="#dc2626" font-family="sans-serif">Goal: 1296</text>
<polyline fill="none" stroke="#2563eb" stroke-width="3" points="90.00,540.55 92.74,538.53 95.48,536.91 98.22,534.49 100.95,534.49 103.69,533.27 106.43,532.46 109.17,532.87 111.91,532.06 114.65,532.46 117.39,532.06 120.13,568.46 122.86,568.46 125.60,566.43 128.34,545.00 131.08,545.00 133.82,544.19 136.56,543.79 139.30,543.79 142.04,543.38 144.77,541.76 147.51,541.36 150.25,540.96 152.99,540.96 155.73,539.34 158.47,539.34 161.21,556.73 163.94,556.73 166.68,555.51 169.42,551.07 172.16,538.93 174.90,538.93 177.64,538.93 180.38,538.12 183.12,536.91 185.85,536.91 188.59,536.51 191.33,536.51 194.07,556.73 196.81,556.73 199.55,556.73 202.29,556.73 205.03,535.29 207.76,535.29 210.50,535.29 213.24,535.29 215.98,534.49 218.72,534.08 221.46,533.68 224.20,532.87 226.93,532.06 229.67,532.06 232.41,531.25 235.15,530.85 237.89,530.44 240.63,530.04 243.37,530.04 246.11,529.23 248.84,529.23 251.58,529.23 254.32,528.42 257.06,528.42 259.80,527.61 262.54,527.21 265.28,526.80 268.02,526.40 270.75,525.18 273.49,523.57 276.23,523.57 278.97,523.16 281.71,522.76 284.45,522.35 287.19,521.54 289.92,519.52 292.66,517.50 295.40,517.50 298.14,517.50 300.88,517.50 303.62,517.50 306.36,517.50 309.10,517.10 311.83,516.69 314.57,515.48 317.31,515.07 320.05,514.67 322.79,513.86 325.53,514.26 328.27,512.24 331.01,511.84 333.74,511.84 336.48,511.03 339.22,509.82 341.96,507.79 344.70,506.99 347.44,506.58 350.18,509.41 352.91,509.01 355.65,504.96 358.39,504.56 361.13,504.15 363.87,504.56 366.61,503.75 369.35,503.75 372.09,503.35 374.82,499.30 377.56,496.47 380.30,490.00 383.04,484.34 385.78,481.10 388.52,480.29 391.26,480.70 393.99,460.88 396.73,459.26 399.47,458.05 402.21,456.03 404.95,456.03 407.69,454.41 410.43,450.77 413.17,444.30 415.90,443.90 418.64,600.00 421.38,441.88 424.12,440.66 426.86,439.45 429.60,439.04 432.34,438.64 435.08,437.83 437.81,436.62 440.55,436.62 443.29,434.60 446.03,432.17 448.77,429.34 451.51,428.93 454.25,428.53 456.98,427.72 459.72,426.91 462.46,426.10 465.20,426.10 467.94,426.10 470.68,419.63 473.42,419.23 476.16,418.42 478.89,418.01 481.63,417.61 484.37,417.61 487.11,417.61 489.85,417.21 492.59,417.21 495.33,413.57 498.07,411.95 500.80,412.76 503.54,410.74 506.28,410.74 509.02,410.33 511.76,410.33 514.50,410.33 517.24,409.93 519.97,409.93 522.71,409.93 525.45,409.52 528.19,409.52 530.93,409.12 533.67,409.52 536.41,409.12 539.15,407.50 541.88,407.10 544.62,403.05 547.36,399.82 550.10,400.22 552.84,400.62 555.58,400.62 558.32,399.41 561.06,392.94 563.79,391.32 566.53,389.30 569.27,389.30 572.01,388.49 574.75,375.15 577.49,374.74 580.23,374.74 582.96,374.74 585.70,374.74 588.44,374.34 591.18,374.34 593.92,374.34 596.66,374.34 599.40,374.34 602.14,373.93 604.87,373.12 607.61,372.72 610.35,373.53 613.09,435.81 615.83,372.32 618.57,372.72 621.31,371.91 624.05,371.91 626.78,372.32 629.52,371.10 632.26,369.89 635.00,369.89 637.74,369.89 640.48,369.49 643.22,369.89 645.95,369.08 648.69,368.68 651.43,368.27 654.17,367.87 656.91,367.06 659.65,367.46 662.39,367.06 665.13,366.25 667.86,368.27 670.60,368.68 673.34,368.68 676.08,368.27 678.82,369.08 681.56,367.87 684.30,367.46 687.04,367.06 689.77,360.18 692.51,359.78 695.25,359.38 697.99,356.95 700.73,357.35 703.47,357.76 706.21,355.33 708.94,355.74 711.68,357.35 714.42,355.33 717.16,356.14 719.90,355.74 722.64,356.14 725.38,354.12 728.12,354.93 730.85,356.14 733.59,354.52 736.33,353.71 739.07,354.12 741.81,354.93 744.55,352.90 747.29,353.71 750.03,353.31 752.76,353.31 755.50,354.52 758.24,352.90 760.98,352.50 763.72,352.50 766.46,353.31 769.20,352.50 771.93,353.71 774.67,354.12 777.41,352.50 780.15,352.90 782.89,352.50 785.63,352.10 788.37,351.69 791.11,352.10 793.84,354.12 796.58,352.50 799.32,352.10 802.06,352.10 804.80,349.67 807.54,349.67 810.28,350.88 813.02,351.29 815.75,350.48 818.49,352.10 821.23,350.48 823.97,350.48 826.71,350.48 829.45,350.07 832.19,348.46 834.92,351.29 837.66,349.67 840.40,351.29 843.14,349.67 845.88,348.86 848.62,348.46 851.36,348.46 854.10,347.24 856.83,348.86 859.57,346.84 862.31,348.46 865.05,348.86 867.79,346.84 870.53,349.26 873.27,348.05 876.01,349.26 878.74,349.26 881.48,350.48 884.22,352.90 886.96,349.67 889.70,348.46 892.44,345.62 895.18,344.82 897.91,344.41 900.65,342.39 903.39,341.18 906.13,341.58 908.87,339.15 911.61,338.35 914.35,337.54 917.09,336.73 919.82,335.92 922.56,337.54 925.30,338.35 928.04,337.54 930.78,337.54 933.52,337.54 936.26,333.09 938.99,333.90 941.73,335.92 944.47,336.73 947.21,335.51 949.95,332.28 952.69,331.47 955.43,331.07 958.17,331.47 960.90,331.07 963.64,331.07 966.38,331.07 969.12,331.07 971.86,331.07 974.60,331.07 977.34,331.07 980.08,331.07 982.81,331.07 985.55,331.07 988.29,331.47 991.03,331.88 993.77,331.07 996.51,331.47 999.25,331.07 1001.98,331.47 1004.72,331.07 1007.46,324.19 1010.20,324.19 1012.94,318.93 1015.68,316.51 1018.42,310.44 1021.16,308.01 1023.89,600.00 1026.63,301.54 1029.37,290.22 1032.11,287.79 1034.85,286.18 1037.59,285.77 1040.33,285.77 1043.07,285.77 1045.80,286.18 1048.54,285.77 1051.28,285.77 1054.02,285.77 1056.76,283.35 1059.50,282.94 1062.24,282.94 1064.97,283.35 1067.71,282.94 1070.45,282.94 1073.19,283.75 1075.93,282.13 1078.67,282.13 1081.41,282.54 1084.15,282.13 1086.88,282.54 1089.62,282.94 1092.36,281.73 1095.10,282.54 1097.84,281.73 1100.58,282.54 1103.32,282.13 1106.06,282.13 1108.79,281.73 1111.53,281.73 1114.27,281.32 1117.01,281.73 1119.75,282.13 1122.49,281.32 1125.23,281.32 1127.96,282.54 1130.70,282.13 1133.44,281.32 1136.18,281.32 1138.92,281.32 1141.66,282.54 1144.40,282.13 1147.14,281.32 1149.87,282.13 1152.61,281.73 1155.35,282.13 1158.09,280.11 1160.83,280.11 1163.57,280.51 1166.31,279.71 1169.05,280.11 1171.78,280.51 1174.52,279.71 1177.26,280.11 1180.00,280.11"/>
<circle cx="90.00" cy="540.55" r="3.2" fill="#1d4ed8"/>
<circle cx="92.74" cy="538.53" r="3.2" fill="#1d4ed8"/>
<circle cx="95.48" cy="536.91" r="3.2" fill="#1d4ed8"/>
<circle cx="98.22" cy="534.49" r="3.2" fill="#1d4ed8"/>
<circle cx="100.95" cy="534.49" r="3.2" fill="#1d4ed8"/>
<circle cx="103.69" cy="533.27" r="3.2" fill="#1d4ed8"/>
<circle cx="106.43" cy="532.46" r="3.2" fill="#1d4ed8"/>
<circle cx="109.17" cy="532.87" r="3.2" fill="#1d4ed8"/>
<circle cx="111.91" cy="532.06" r="3.2" fill="#1d4ed8"/>
<circle cx="114.65" cy="532.46" r="3.2" fill="#1d4ed8"/>
<circle cx="117.39" cy="532.06" r="3.2" fill="#1d4ed8"/>
<circle cx="120.13" cy="568.46" r="3.2" fill="#1d4ed8"/>
<circle cx="122.86" cy="568.46" r="3.2" fill="#1d4ed8"/>
<circle cx="125.60" cy="566.43" r="3.2" fill="#1d4ed8"/>
<circle cx="128.34" cy="545.00" r="3.2" fill="#1d4ed8"/>
<circle cx="131.08" cy="545.00" r="3.2" fill="#1d4ed8"/>
<circle cx="133.82" cy="544.19" r="3.2" fill="#1d4ed8"/>
<circle cx="136.56" cy="543.79" r="3.2" fill="#1d4ed8"/>
<circle cx="139.30" cy="543.79" r="3.2" fill="#1d4ed8"/>
<circle cx="142.04" cy="543.38" r="3.2" fill="#1d4ed8"/>
<circle cx="144.77" cy="541.76" r="3.2" fill="#1d4ed8"/>
<circle cx="147.51" cy="541.36" r="3.2" fill="#1d4ed8"/>
<circle cx="150.25" cy="540.96" r="3.2" fill="#1d4ed8"/>
<circle cx="152.99" cy="540.96" r="3.2" fill="#1d4ed8"/>
<circle cx="155.73" cy="539.34" r="3.2" fill="#1d4ed8"/>
<circle cx="158.47" cy="539.34" r="3.2" fill="#1d4ed8"/>
<circle cx="161.21" cy="556.73" r="3.2" fill="#1d4ed8"/>
<circle cx="163.94" cy="556.73" r="3.2" fill="#1d4ed8"/>
<circle cx="166.68" cy="555.51" r="3.2" fill="#1d4ed8"/>
<circle cx="169.42" cy="551.07" r="3.2" fill="#1d4ed8"/>
<circle cx="172.16" cy="538.93" r="3.2" fill="#1d4ed8"/>
<circle cx="174.90" cy="538.93" r="3.2" fill="#1d4ed8"/>
<circle cx="177.64" cy="538.93" r="3.2" fill="#1d4ed8"/>
<circle cx="180.38" cy="538.12" r="3.2" fill="#1d4ed8"/>
<circle cx="183.12" cy="536.91" r="3.2" fill="#1d4ed8"/>
<circle cx="185.85" cy="536.91" r="3.2" fill="#1d4ed8"/>
<circle cx="188.59" cy="536.51" r="3.2" fill="#1d4ed8"/>
<circle cx="191.33" cy="536.51" r="3.2" fill="#1d4ed8"/>
<circle cx="194.07" cy="556.73" r="3.2" fill="#1d4ed8"/>
<circle cx="196.81" cy="556.73" r="3.2" fill="#1d4ed8"/>
<circle cx="199.55" cy="556.73" r="3.2" fill="#1d4ed8"/>
<circle cx="202.29" cy="556.73" r="3.2" fill="#1d4ed8"/>
<circle cx="205.03" cy="535.29" r="3.2" fill="#1d4ed8"/>
<circle cx="207.76" cy="535.29" r="3.2" fill="#1d4ed8"/>
<circle cx="210.50" cy="535.29" r="3.2" fill="#1d4ed8"/>
<circle cx="213.24" cy="535.29" r="3.2" fill="#1d4ed8"/>
<circle cx="215.98" cy="534.49" r="3.2" fill="#1d4ed8"/>
<circle cx="218.72" cy="534.08" r="3.2" fill="#1d4ed8"/>
<circle cx="221.46" cy="533.68" r="3.2" fill="#1d4ed8"/>
<circle cx="224.20" cy="532.87" r="3.2" fill="#1d4ed8"/>
<circle cx="226.93" cy="532.06" r="3.2" fill="#1d4ed8"/>
<circle cx="229.67" cy="532.06" r="3.2" fill="#1d4ed8"/>
<circle cx="232.41" cy="531.25" r="3.2" fill="#1d4ed8"/>
<circle cx="235.15" cy="530.85" r="3.2" fill="#1d4ed8"/>
<circle cx="237.89" cy="530.44" r="3.2" fill="#1d4ed8"/>
<circle cx="240.63" cy="530.04" r="3.2" fill="#1d4ed8"/>
<circle cx="243.37" cy="530.04" r="3.2" fill="#1d4ed8"/>
<circle cx="246.11" cy="529.23" r="3.2" fill="#1d4ed8"/>
<circle cx="248.84" cy="529.23" r="3.2" fill="#1d4ed8"/>
<circle cx="251.58" cy="529.23" r="3.2" fill="#1d4ed8"/>
<circle cx="254.32" cy="528.42" r="3.2" fill="#1d4ed8"/>
<circle cx="257.06" cy="528.42" r="3.2" fill="#1d4ed8"/>
<circle cx="259.80" cy="527.61" r="3.2" fill="#1d4ed8"/>
<circle cx="262.54" cy="527.21" r="3.2" fill="#1d4ed8"/>
<circle cx="265.28" cy="526.80" r="3.2" fill="#1d4ed8"/>
<circle cx="268.02" cy="526.40" r="3.2" fill="#1d4ed8"/>
<circle cx="270.75" cy="525.18" r="3.2" fill="#1d4ed8"/>
<circle cx="273.49" cy="523.57" r="3.2" fill="#1d4ed8"/>
<circle cx="276.23" cy="523.57" r="3.2" fill="#1d4ed8"/>
<circle cx="278.97" cy="523.16" r="3.2" fill="#1d4ed8"/>
<circle cx="281.71" cy="522.76" r="3.2" fill="#1d4ed8"/>
<circle cx="284.45" cy="522.35" r="3.2" fill="#1d4ed8"/>
<circle cx="287.19" cy="521.54" r="3.2" fill="#1d4ed8"/>
<circle cx="289.92" cy="519.52" r="3.2" fill="#1d4ed8"/>
<circle cx="292.66" cy="517.50" r="3.2" fill="#1d4ed8"/>
<circle cx="295.40" cy="517.50" r="3.2" fill="#1d4ed8"/>
<circle cx="298.14" cy="517.50" r="3.2" fill="#1d4ed8"/>
<circle cx="300.88" cy="517.50" r="3.2" fill="#1d4ed8"/>
<circle cx="303.62" cy="517.50" r="3.2" fill="#1d4ed8"/>
<circle cx="306.36" cy="517.50" r="3.2" fill="#1d4ed8"/>
<circle cx="309.10" cy="517.10" r="3.2" fill="#1d4ed8"/>
<circle cx="311.83" cy="516.69" r="3.2" fill="#1d4ed8"/>
<circle cx="314.57" cy="515.48" r="3.2" fill="#1d4ed8"/>
<circle cx="317.31" cy="515.07" r="3.2" fill="#1d4ed8"/>
<circle cx="320.05" cy="514.67" r="3.2" fill="#1d4ed8"/>
<circle cx="322.79" cy="513.86" r="3.2" fill="#1d4ed8"/>
<circle cx="325.53" cy="514.26" r="3.2" fill="#1d4ed8"/>
<circle cx="328.27" cy="512.24" r="3.2" fill="#1d4ed8"/>
<circle cx="331.01" cy="511.84" r="3.2" fill="#1d4ed8"/>
<circle cx="333.74" cy="511.84" r="3.2" fill="#1d4ed8"/>
<circle cx="336.48" cy="511.03" r="3.2" fill="#1d4ed8"/>
<circle cx="339.22" cy="509.82" r="3.2" fill="#1d4ed8"/>
<circle cx="341.96" cy="507.79" r="3.2" fill="#1d4ed8"/>
<circle cx="344.70" cy="506.99" r="3.2" fill="#1d4ed8"/>
<circle cx="347.44" cy="506.58" r="3.2" fill="#1d4ed8"/>
<circle cx="350.18" cy="509.41" r="3.2" fill="#1d4ed8"/>
<circle cx="352.91" cy="509.01" r="3.2" fill="#1d4ed8"/>
<circle cx="355.65" cy="504.96" r="3.2" fill="#1d4ed8"/>
<circle cx="358.39" cy="504.56" r="3.2" fill="#1d4ed8"/>
<circle cx="361.13" cy="504.15" r="3.2" fill="#1d4ed8"/>
<circle cx="363.87" cy="504.56" r="3.2" fill="#1d4ed8"/>
<circle cx="366.61" cy="503.75" r="3.2" fill="#1d4ed8"/>
<circle cx="369.35" cy="503.75" r="3.2" fill="#1d4ed8"/>
<circle cx="372.09" cy="503.35" r="3.2" fill="#1d4ed8"/>
<circle cx="374.82" cy="499.30" r="3.2" fill="#1d4ed8"/>
<circle cx="377.56" cy="496.47" r="3.2" fill="#1d4ed8"/>
<circle cx="380.30" cy="490.00" r="3.2" fill="#1d4ed8"/>
<circle cx="383.04" cy="484.34" r="3.2" fill="#1d4ed8"/>
<circle cx="385.78" cy="481.10" r="3.2" fill="#1d4ed8"/>
<circle cx="388.52" cy="480.29" r="3.2" fill="#1d4ed8"/>
<circle cx="391.26" cy="480.70" r="3.2" fill="#1d4ed8"/>
<circle cx="393.99" cy="460.88" r="3.2" fill="#1d4ed8"/>
<circle cx="396.73" cy="459.26" r="3.2" fill="#1d4ed8"/>
<circle cx="399.47" cy="458.05" r="3.2" fill="#1d4ed8"/>
<circle cx="402.21" cy="456.03" r="3.2" fill="#1d4ed8"/>
<circle cx="404.95" cy="456.03" r="3.2" fill="#1d4ed8"/>
<circle cx="407.69" cy="454.41" r="3.2" fill="#1d4ed8"/>
<circle cx="410.43" cy="450.77" r="3.2" fill="#1d4ed8"/>
<circle cx="413.17" cy="444.30" r="3.2" fill="#1d4ed8"/>
<circle cx="415.90" cy="443.90" r="3.2" fill="#1d4ed8"/>
<circle cx="418.64" cy="600.00" r="3.2" fill="#1d4ed8"/>
<circle cx="421.38" cy="441.88" r="3.2" fill="#1d4ed8"/>
<circle cx="424.12" cy="440.66" r="3.2" fill="#1d4ed8"/>
<circle cx="426.86" cy="439.45" r="3.2" fill="#1d4ed8"/>
<circle cx="429.60" cy="439.04" r="3.2" fill="#1d4ed8"/>
<circle cx="432.34" cy="438.64" r="3.2" fill="#1d4ed8"/>
<circle cx="435.08" cy="437.83" r="3.2" fill="#1d4ed8"/>
<circle cx="437.81" cy="436.62" r="3.2" fill="#1d4ed8"/>
<circle cx="440.55" cy="436.62" r="3.2" fill="#1d4ed8"/>
<circle cx="443.29" cy="434.60" r="3.2" fill="#1d4ed8"/>
<circle cx="446.03" cy="432.17" r="3.2" fill="#1d4ed8"/>
<circle cx="448.77" cy="429.34" r="3.2" fill="#1d4ed8"/>
<circle cx="451.51" cy="428.93" r="3.2" fill="#1d4ed8"/>
<circle cx="454.25" cy="428.53" r="3.2" fill="#1d4ed8"/>
<circle cx="456.98" cy="427.72" r="3.2" fill="#1d4ed8"/>
<circle cx="459.72" cy="426.91" r="3.2" fill="#1d4ed8"/>
<circle cx="462.46" cy="426.10" r="3.2" fill="#1d4ed8"/>
<circle cx="465.20" cy="426.10" r="3.2" fill="#1d4ed8"/>
<circle cx="467.94" cy="426.10" r="3.2" fill="#1d4ed8"/>
<circle cx="470.68" cy="419.63" r="3.2" fill="#1d4ed8"/>
<circle cx="473.42" cy="419.23" r="3.2" fill="#1d4ed8"/>
<circle cx="476.16" cy="418.42" r="3.2" fill="#1d4ed8"/>
<circle cx="478.89" cy="418.01" r="3.2" fill="#1d4ed8"/>
<circle cx="481.63" cy="417.61" r="3.2" fill="#1d4ed8"/>
<circle cx="484.37" cy="417.61" r="3.2" fill="#1d4ed8"/>
<circle cx="487.11" cy="417.61" r="3.2" fill="#1d4ed8"/>
<circle cx="489.85" cy="417.21" r="3.2" fill="#1d4ed8"/>
<circle cx="492.59" cy="417.21" r="3.2" fill="#1d4ed8"/>
<circle cx="495.33" cy="413.57" r="3.2" fill="#1d4ed8"/>
<circle cx="498.07" cy="411.95" r="3.2" fill="#1d4ed8"/>
<circle cx="500.80" cy="412.76" r="3.2" fill="#1d4ed8"/>
<circle cx="503.54" cy="410.74" r="3.2" fill="#1d4ed8"/>
<circle cx="506.28" cy="410.74" r="3.2" fill="#1d4ed8"/>
<circle cx="509.02" cy="410.33" r="3.2" fill="#1d4ed8"/>
<circle cx="511.76" cy="410.33" r="3.2" fill="#1d4ed8"/>
<circle cx="514.50" cy="410.33" r="3.2" fill="#1d4ed8"/>
<circle cx="517.24" cy="409.93" r="3.2" fill="#1d4ed8"/>
<circle cx="519.97" cy="409.93" r="3.2" fill="#1d4ed8"/>
<circle cx="522.71" cy="409.93" r="3.2" fill="#1d4ed8"/>
<circle cx="525.45" cy="409.52" r="3.2" fill="#1d4ed8"/>
<circle cx="528.19" cy="409.52" r="3.2" fill="#1d4ed8"/>
<circle cx="530.93" cy="409.12" r="3.2" fill="#1d4ed8"/>
<circle cx="533.67" cy="409.52" r="3.2" fill="#1d4ed8"/>
<circle cx="536.41" cy="409.12" r="3.2" fill="#1d4ed8"/>
<circle cx="539.15" cy="407.50" r="3.2" fill="#1d4ed8"/>
<circle cx="541.88" cy="407.10" r="3.2" fill="#1d4ed8"/>
<circle cx="544.62" cy="403.05" r="3.2" fill="#1d4ed8"/>
<circle cx="547.36" cy="399.82" r="3.2" fill="#1d4ed8"/>
<circle cx="550.10" cy="400.22" r="3.2" fill="#1d4ed8"/>
<circle cx="552.84" cy="400.62" r="3.2" fill="#1d4ed8"/>
<circle cx="555.58" cy="400.62" r="3.2" fill="#1d4ed8"/>
<circle cx="558.32" cy="399.41" r="3.2" fill="#1d4ed8"/>
<circle cx="561.06" cy="392.94" r="3.2" fill="#1d4ed8"/>
<circle cx="563.79" cy="391.32" r="3.2" fill="#1d4ed8"/>
<circle cx="566.53" cy="389.30" r="3.2" fill="#1d4ed8"/>
<circle cx="569.27" cy="389.30" r="3.2" fill="#1d4ed8"/>
<circle cx="572.01" cy="388.49" r="3.2" fill="#1d4ed8"/>
<circle cx="574.75" cy="375.15" r="3.2" fill="#1d4ed8"/>
<circle cx="577.49" cy="374.74" r="3.2" fill="#1d4ed8"/>
<circle cx="580.23" cy="374.74" r="3.2" fill="#1d4ed8"/>
<circle cx="582.96" cy="374.74" r="3.2" fill="#1d4ed8"/>
<circle cx="585.70" cy="374.74" r="3.2" fill="#1d4ed8"/>
<circle cx="588.44" cy="374.34" r="3.2" fill="#1d4ed8"/>
<circle cx="591.18" cy="374.34" r="3.2" fill="#1d4ed8"/>
<circle cx="593.92" cy="374.34" r="3.2" fill="#1d4ed8"/>
<circle cx="596.66" cy="374.34" r="3.2" fill="#1d4ed8"/>
<circle cx="599.40" cy="374.34" r="3.2" fill="#1d4ed8"/>
<circle cx="602.14" cy="373.93" r="3.2" fill="#1d4ed8"/>
<circle cx="604.87" cy="373.12" r="3.2" fill="#1d4ed8"/>
<circle cx="607.61" cy="372.72" r="3.2" fill="#1d4ed8"/>
<circle cx="610.35" cy="373.53" r="3.2" fill="#1d4ed8"/>
<circle cx="613.09" cy="435.81" r="3.2" fill="#1d4ed8"/>
<circle cx="615.83" cy="372.32" r="3.2" fill="#1d4ed8"/>
<circle cx="618.57" cy="372.72" r="3.2" fill="#1d4ed8"/>
<circle cx="621.31" cy="371.91" r="3.2" fill="#1d4ed8"/>
<circle cx="624.05" cy="371.91" r="3.2" fill="#1d4ed8"/>
<circle cx="626.78" cy="372.32" r="3.2" fill="#1d4ed8"/>
<circle cx="629.52" cy="371.10" r="3.2" fill="#1d4ed8"/>
<circle cx="632.26" cy="369.89" r="3.2" fill="#1d4ed8"/>
<circle cx="635.00" cy="369.89" r="3.2" fill="#1d4ed8"/>
<circle cx="637.74" cy="369.89" r="3.2" fill="#1d4ed8"/>
<circle cx="640.48" cy="369.49" r="3.2" fill="#1d4ed8"/>
<circle cx="643.22" cy="369.89" r="3.2" fill="#1d4ed8"/>
<circle cx="645.95" cy="369.08" r="3.2" fill="#1d4ed8"/>
<circle cx="648.69" cy="368.68" r="3.2" fill="#1d4ed8"/>
<circle cx="651.43" cy="368.27" r="3.2" fill="#1d4ed8"/>
<circle cx="654.17" cy="367.87" r="3.2" fill="#1d4ed8"/>
<circle cx="656.91" cy="367.06" r="3.2" fill="#1d4ed8"/>
<circle cx="659.65" cy="367.46" r="3.2" fill="#1d4ed8"/>
<circle cx="662.39" cy="367.06" r="3.2" fill="#1d4ed8"/>
<circle cx="665.13" cy="366.25" r="3.2" fill="#1d4ed8"/>
<circle cx="667.86" cy="368.27" r="3.2" fill="#1d4ed8"/>
<circle cx="670.60" cy="368.68" r="3.2" fill="#1d4ed8"/>
<circle cx="673.34" cy="368.68" r="3.2" fill="#1d4ed8"/>
<circle cx="676.08" cy="368.27" r="3.2" fill="#1d4ed8"/>
<circle cx="678.82" cy="369.08" r="3.2" fill="#1d4ed8"/>
<circle cx="681.56" cy="367.87" r="3.2" fill="#1d4ed8"/>
<circle cx="684.30" cy="367.46" r="3.2" fill="#1d4ed8"/>
<circle cx="687.04" cy="367.06" r="3.2" fill="#1d4ed8"/>
<circle cx="689.77" cy="360.18" r="3.2" fill="#1d4ed8"/>
<circle cx="692.51" cy="359.78" r="3.2" fill="#1d4ed8"/>
<circle cx="695.25" cy="359.38" r="3.2" fill="#1d4ed8"/>
<circle cx="697.99" cy="356.95" r="3.2" fill="#1d4ed8"/>
<circle cx="700.73" cy="357.35" r="3.2" fill="#1d4ed8"/>
<circle cx="703.47" cy="357.76" r="3.2" fill="#1d4ed8"/>
<circle cx="706.21" cy="355.33" r="3.2" fill="#1d4ed8"/>
<circle cx="708.94" cy="355.74" r="3.2" fill="#1d4ed8"/>
<circle cx="711.68" cy="357.35" r="3.2" fill="#1d4ed8"/>
<circle cx="714.42" cy="355.33" r="3.2" fill="#1d4ed8"/>
<circle cx="717.16" cy="356.14" r="3.2" fill="#1d4ed8"/>
<circle cx="719.90" cy="355.74" r="3.2" fill="#1d4ed8"/>
<circle cx="722.64" cy="356.14" r="3.2" fill="#1d4ed8"/>
<circle cx="725.38" cy="354.12" r="3.2" fill="#1d4ed8"/>
<circle cx="728.12" cy="354.93" r="3.2" fill="#1d4ed8"/>
<circle cx="730.85" cy="356.14" r="3.2" fill="#1d4ed8"/>
<circle cx="733.59" cy="354.52" r="3.2" fill="#1d4ed8"/>
<circle cx="736.33" cy="353.71" r="3.2" fill="#1d4ed8"/>
<circle cx="739.07" cy="354.12" r="3.2" fill="#1d4ed8"/>
<circle cx="741.81" cy="354.93" r="3.2" fill="#1d4ed8"/>
<circle cx="744.55" cy="352.90" r="3.2" fill="#1d4ed8"/>
<circle cx="747.29" cy="353.71" r="3.2" fill="#1d4ed8"/>
<circle cx="750.03" cy="353.31" r="3.2" fill="#1d4ed8"/>
<circle cx="752.76" cy="353.31" r="3.2" fill="#1d4ed8"/>
<circle cx="755.50" cy="354.52" r="3.2" fill="#1d4ed8"/>
<circle cx="758.24" cy="352.90" r="3.2" fill="#1d4ed8"/>
<circle cx="760.98" cy="352.50" r="3.2" fill="#1d4ed8"/>
<circle cx="763.72" cy="352.50" r="3.2" fill="#1d4ed8"/>
<circle cx="766.46" cy="353.31" r="3.2" fill="#1d4ed8"/>
<circle cx="769.20" cy="352.50" r="3.2" fill="#1d4ed8"/>
<circle cx="771.93" cy="353.71" r="3.2" fill="#1d4ed8"/>
<circle cx="774.67" cy="354.12" r="3.2" fill="#1d4ed8"/>
<circle cx="777.41" cy="352.50" r="3.2" fill="#1d4ed8"/>
<circle cx="780.15" cy="352.90" r="3.2" fill="#1d4ed8"/>
<circle cx="782.89" cy="352.50" r="3.2" fill="#1d4ed8"/>
<circle cx="785.63" cy="352.10" r="3.2" fill="#1d4ed8"/>
<circle cx="788.37" cy="351.69" r="3.2" fill="#1d4ed8"/>
<circle cx="791.11" cy="352.10" r="3.2" fill="#1d4ed8"/>
<circle cx="793.84" cy="354.12" r="3.2" fill="#1d4ed8"/>
<circle cx="796.58" cy="352.50" r="3.2" fill="#1d4ed8"/>
<circle cx="799.32" cy="352.10" r="3.2" fill="#1d4ed8"/>
<circle cx="802.06" cy="352.10" r="3.2" fill="#1d4ed8"/>
<circle cx="804.80" cy="349.67" r="3.2" fill="#1d4ed8"/>
<circle cx="807.54" cy="349.67" r="3.2" fill="#1d4ed8"/>
<circle cx="810.28" cy="350.88" r="3.2" fill="#1d4ed8"/>
<circle cx="813.02" cy="351.29" r="3.2" fill="#1d4ed8"/>
<circle cx="815.75" cy="350.48" r="3.2" fill="#1d4ed8"/>
<circle cx="818.49" cy="352.10" r="3.2" fill="#1d4ed8"/>
<circle cx="821.23" cy="350.48" r="3.2" fill="#1d4ed8"/>
<circle cx="823.97" cy="350.48" r="3.2" fill="#1d4ed8"/>
<circle cx="826.71" cy="350.48" r="3.2" fill="#1d4ed8"/>
<circle cx="829.45" cy="350.07" r="3.2" fill="#1d4ed8"/>
<circle cx="832.19" cy="348.46" r="3.2" fill="#1d4ed8"/>
<circle cx="834.92" cy="351.29" r="3.2" fill="#1d4ed8"/>
<circle cx="837.66" cy="349.67" r="3.2" fill="#1d4ed8"/>
<circle cx="840.40" cy="351.29" r="3.2" fill="#1d4ed8"/>
<circle cx="843.14" cy="349.67" r="3.2" fill="#1d4ed8"/>
<circle cx="845.88" cy="348.86" r="3.2" fill="#1d4ed8"/>
<circle cx="848.62" cy="348.46" r="3.2" fill="#1d4ed8"/>
<circle cx="851.36" cy="348.46" r="3.2" fill="#1d4ed8"/>
<circle cx="854.10" cy="347.24" r="3.2" fill="#1d4ed8"/>
<circle cx="856.83" cy="348.86" r="3.2" fill="#1d4ed8"/>
<circle cx="859.57" cy="346.84" r="3.2" fill="#1d4ed8"/>
<circle cx="862.31" cy="348.46" r="3.2" fill="#1d4ed8"/>
<circle cx="865.05" cy="348.86" r="3.2" fill="#1d4ed8"/>
<circle cx="867.79" cy="346.84" r="3.2" fill="#1d4ed8"/>
<circle cx="870.53" cy="349.26" r="3.2" fill="#1d4ed8"/>
<circle cx="873.27" cy="348.05" r="3.2" fill="#1d4ed8"/>
<circle cx="876.01" cy="349.26" r="3.2" fill="#1d4ed8"/>
<circle cx="878.74" cy="349.26" r="3.2" fill="#1d4ed8"/>
<circle cx="881.48" cy="350.48" r="3.2" fill="#1d4ed8"/>
<circle cx="884.22" cy="352.90" r="3.2" fill="#1d4ed8"/>
<circle cx="886.96" cy="349.67" r="3.2" fill="#1d4ed8"/>
<circle cx="889.70" cy="348.46" r="3.2" fill="#1d4ed8"/>
<circle cx="892.44" cy="345.62" r="3.2" fill="#1d4ed8"/>
<circle cx="895.18" cy="344.82" r="3.2" fill="#1d4ed8"/>
<circle cx="897.91" cy="344.41" r="3.2" fill="#1d4ed8"/>
<circle cx="900.65" cy="342.39" r="3.2" fill="#1d4ed8"/>
<circle cx="903.39" cy="341.18" r="3.2" fill="#1d4ed8"/>
<circle cx="906.13" cy="341.58" r="3.2" fill="#1d4ed8"/>
<circle cx="908.87" cy="339.15" r="3.2" fill="#1d4ed8"/>
<circle cx="911.61" cy="338.35" r="3.2" fill="#1d4ed8"/>
<circle cx="914.35" cy="337.54" r="3.2" fill="#1d4ed8"/>
<circle cx="917.09" cy="336.73" r="3.2" fill="#1d4ed8"/>
<circle cx="919.82" cy="335.92" r="3.2" fill="#1d4ed8"/>
<circle cx="922.56" cy="337.54" r="3.2" fill="#1d4ed8"/>
<circle cx="925.30" cy="338.35" r="3.2" fill="#1d4ed8"/>
<circle cx="928.04" cy="337.54" r="3.2" fill="#1d4ed8"/>
<circle cx="930.78" cy="337.54" r="3.2" fill="#1d4ed8"/>
<circle cx="933.52" cy="337.54" r="3.2" fill="#1d4ed8"/>
<circle cx="936.26" cy="333.09" r="3.2" fill="#1d4ed8"/>
<circle cx="938.99" cy="333.90" r="3.2" fill="#1d4ed8"/>
<circle cx="941.73" cy="335.92" r="3.2" fill="#1d4ed8"/>
<circle cx="944.47" cy="336.73" r="3.2" fill="#1d4ed8"/>
<circle cx="947.21" cy="335.51" r="3.2" fill="#1d4ed8"/>
<circle cx="949.95" cy="332.28" r="3.2" fill="#1d4ed8"/>
<circle cx="952.69" cy="331.47" r="3.2" fill="#1d4ed8"/>
<circle cx="955.43" cy="331.07" r="3.2" fill="#1d4ed8"/>
<circle cx="958.17" cy="331.47" r="3.2" fill="#1d4ed8"/>
<circle cx="960.90" cy="331.07" r="3.2" fill="#1d4ed8"/>
<circle cx="963.64" cy="331.07" r="3.2" fill="#1d4ed8"/>
<circle cx="966.38" cy="331.07" r="3.2" fill="#1d4ed8"/>
<circle cx="969.12" cy="331.07" r="3.2" fill="#1d4ed8"/>
<circle cx="971.86" cy="331.07" r="3.2" fill="#1d4ed8"/>
<circle cx="974.60" cy="331.07" r="3.2" fill="#1d4ed8"/>
<circle cx="977.34" cy="331.07" r="3.2" fill="#1d4ed8"/>
<circle cx="980.08" cy="331.07" r="3.2" fill="#1d4ed8"/>
<circle cx="982.81" cy="331.07" r="3.2" fill="#1d4ed8"/>
<circle cx="985.55" cy="331.07" r="3.2" fill="#1d4ed8"/>
<circle cx="988.29" cy="331.47" r="3.2" fill="#1d4ed8"/>
<circle cx="991.03" cy="331.88" r="3.2" fill="#1d4ed8"/>
<circle cx="993.77" cy="331.07" r="3.2" fill="#1d4ed8"/>
<circle cx="996.51" cy="331.47" r="3.2" fill="#1d4ed8"/>
<circle cx="999.25" cy="331.07" r="3.2" fill="#1d4ed8"/>
<circle cx="1001.98" cy="331.47" r="3.2" fill="#1d4ed8"/>
<circle cx="1004.72" cy="331.07" r="3.2" fill="#1d4ed8"/>
<circle cx="1007.46" cy="324.19" r="3.2" fill="#1d4ed8"/>
<circle cx="1010.20" cy="324.19" r="3.2" fill="#1d4ed8"/>
<circle cx="1012.94" cy="318.93" r="3.2" fill="#1d4ed8"/>
<circle cx="1015.68" cy="316.51" r="3.2" fill="#1d4ed8"/>
<circle cx="1018.42" cy="310.44" r="3.2" fill="#1d4ed8"/>
<circle cx="1021.16" cy="308.01" r="3.2" fill="#1d4ed8"/>
<circle cx="1023.89" cy="600.00" r="3.2" fill="#1d4ed8"/>
<circle cx="1026.63" cy="301.54" r="3.2" fill="#1d4ed8"/>
<circle cx="1029.37" cy="290.22" r="3.2" fill="#1d4ed8"/>
<circle cx="1032.11" cy="287.79" r="3.2" fill="#1d4ed8"/>
<circle cx="1034.85" cy="286.18" r="3.2" fill="#1d4ed8"/>
<circle cx="1037.59" cy="285.77" r="3.2" fill="#1d4ed8"/>
<circle cx="1040.33" cy="285.77" r="3.2" fill="#1d4ed8"/>
<circle cx="1043.07" cy="285.77" r="3.2" fill="#1d4ed8"/>
<circle cx="1045.80" cy="286.18" r="3.2" fill="#1d4ed8"/>
<circle cx="1048.54" cy="285.77" r="3.2" fill="#1d4ed8"/>
<circle cx="1051.28" cy="285.77" r="3.2" fill="#1d4ed8"/>
<circle cx="1054.02" cy="285.77" r="3.2" fill="#1d4ed8"/>
<circle cx="1056.76" cy="283.35" r="3.2" fill="#1d4ed8"/>
<circle cx="1059.50" cy="282.94" r="3.2" fill="#1d4ed8"/>
<circle cx="1062.24" cy="282.94" r="3.2" fill="#1d4ed8"/>
<circle cx="1064.97" cy="283.35" r="3.2" fill="#1d4ed8"/>
<circle cx="1067.71" cy="282.94" r="3.2" fill="#1d4ed8"/>
<circle cx="1070.45" cy="282.94" r="3.2" fill="#1d4ed8"/>
<circle cx="1073.19" cy="283.75" r="3.2" fill="#1d4ed8"/>
<circle cx="1075.93" cy="282.13" r="3.2" fill="#1d4ed8"/>
<circle cx="1078.67" cy="282.13" r="3.2" fill="#1d4ed8"/>
<circle cx="1081.41" cy="282.54" r="3.2" fill="#1d4ed8"/>
<circle cx="1084.15" cy="282.13" r="3.2" fill="#1d4ed8"/>
<circle cx="1086.88" cy="282.54" r="3.2" fill="#1d4ed8"/>
<circle cx="1089.62" cy="282.94" r="3.2" fill="#1d4ed8"/>
<circle cx="1092.36" cy="281.73" r="3.2" fill="#1d4ed8"/>
<circle cx="1095.10" cy="282.54" r="3.2" fill="#1d4ed8"/>
<circle cx="1097.84" cy="281.73" r="3.2" fill="#1d4ed8"/>
<circle cx="1100.58" cy="282.54" r="3.2" fill="#1d4ed8"/>
<circle cx="1103.32" cy="282.13" r="3.2" fill="#1d4ed8"/>
<circle cx="1106.06" cy="282.13" r="3.2" fill="#1d4ed8"/>
<circle cx="1108.79" cy="281.73" r="3.2" fill="#1d4ed8"/>
<circle cx="1111.53" cy="281.73" r="3.2" fill="#1d4ed8"/>
<circle cx="1114.27" cy="281.32" r="3.2" fill="#1d4ed8"/>
<circle cx="1117.01" cy="281.73" r="3.2" fill="#1d4ed8"/>
<circle cx="1119.75" cy="282.13" r="3.2" fill="#1d4ed8"/>
<circle cx="1122.49" cy="281.32" r="3.2" fill="#1d4ed8"/>
<circle cx="1125.23" cy="281.32" r="3.2" fill="#1d4ed8"/>
<circle cx="1127.96" cy="282.54" r="3.2" fill="#1d4ed8"/>
<circle cx="1130.70" cy="282.13" r="3.2" fill="#1d4ed8"/>
<circle cx="1133.44" cy="281.32" r="3.2" fill="#1d4ed8"/>
<circle cx="1136.18" cy="281.32" r="3.2" fill="#1d4ed8"/>
<circle cx="1138.92" cy="281.32" r="3.2" fill="#1d4ed8"/>
<circle cx="1141.66" cy="282.54" r="3.2" fill="#1d4ed8"/>
<circle cx="1144.40" cy="282.13" r="3.2" fill="#1d4ed8"/>
<circle cx="1147.14" cy="281.32" r="3.2" fill="#1d4ed8"/>
<circle cx="1149.87" cy="282.13" r="3.2" fill="#1d4ed8"/>
<circle cx="1152.61" cy="281.73" r="3.2" fill="#1d4ed8"/>
<circle cx="1155.35" cy="282.13" r="3.2" fill="#1d4ed8"/>
<circle cx="1158.09" cy="280.11" r="3.2" fill="#1d4ed8"/>
<circle cx="1160.83" cy="280.11" r="3.2" fill="#1d4ed8"/>
<circle cx="1163.57" cy="280.51" r="3.2" fill="#1d4ed8"/>
<circle cx="1166.31" cy="279.71" r="3.2" fill="#1d4ed8"/>
<circle cx="1169.05" cy="280.11" r="3.2" fill="#1d4ed8"/>
<circle cx="1171.78" cy="280.51" r="3.2" fill="#1d4ed8"/>
<circle cx="1174.52" cy="279.71" r="3.2" fill="#1d4ed8"/>
<circle cx="1177.26" cy="280.11" r="3.2" fill="#1d4ed8"/>
<circle cx="1180.00" cy="280.11" r="3.2" fill="#1d4ed8"/>
<text x="635" y="695" text-anchor="middle" font-size="14" fill="#111" font-family="sans-serif">Date</text>
<text x="24" y="325" text-anchor="middle" font-size="14" fill="#111" transform="rotate(-90 24,325)" font-family="sans-serif">Passed files</text>
</svg>
