<?xml version="1.0" encoding="UTF-8"?>
<svg xmlns="http://www.w3.org/2000/svg" width="1280" height="720" viewBox="0 0 1280 720">
<rect width="100%" height="100%" fill="#ffffff"/>
<text x="640" y="30" text-anchor="middle" font-size="22" font-family="sans-serif">Roast passed files history</text>
<line x1="90" y1="600" x2="1180" y2="600" stroke="#333" stroke-width="1.5"/>
<line x1="90" y1="50" x2="90" y2="600" stroke="#333" stroke-width="1.5"/>
<line x1="90" y1="600.00" x2="1180" y2="600.00" stroke="#e5e7eb" stroke-width="1"/>
<text x="78" y="605.00" text-anchor="end" font-size="12" fill="#111" font-family="sans-serif">0</text>
<line x1="90" y1="397.79" x2="1180" y2="397.79" stroke="#e5e7eb" stroke-width="1"/>
<text x="78" y="402.79" text-anchor="end" font-size="12" fill="#111" font-family="sans-serif">500</text>
<line x1="90" y1="195.59" x2="1180" y2="195.59" stroke="#e5e7eb" stroke-width="1"/>
<text x="78" y="200.59" text-anchor="end" font-size="12" fill="#111" font-family="sans-serif">1000</text>
<line x1="90.00" y1="600" x2="90.00" y2="606" stroke="#333" stroke-width="1"/>
<text x="90.00" y="624" text-anchor="end" font-size="11" fill="#111" transform="rotate(-40 90.00,624)" font-family="sans-serif">2026-02-12</text>
<line x1="225.72" y1="600" x2="225.72" y2="606" stroke="#333" stroke-width="1"/>
<text x="225.72" y="624" text-anchor="end" font-size="11" fill="#111" transform="rotate(-40 225.72,624)" font-family="sans-serif">2026-02-19</text>
<line x1="361.44" y1="600" x2="361.44" y2="606" stroke="#333" stroke-width="1"/>
<text x="361.44" y="624" text-anchor="end" font-size="11" fill="#111" transform="rotate(-40 361.44,624)" font-family="sans-serif">2026-02-25</text>
<line x1="497.16" y1="600" x2="497.16" y2="606" stroke="#333" stroke-width="1"/>
<text x="497.16" y="624" text-anchor="end" font-size="11" fill="#111" transform="rotate(-40 497.16,624)" font-family="sans-serif">2026-02-28</text>
<line x1="632.88" y1="600" x2="632.88" y2="606" stroke="#333" stroke-width="1"/>
<text x="632.88" y="624" text-anchor="end" font-size="11" fill="#111" transform="rotate(-40 632.88,624)" font-family="sans-serif">2026-03-06</text>
<line x1="768.60" y1="600" x2="768.60" y2="606" stroke="#333" stroke-width="1"/>
<text x="768.60" y="624" text-anchor="end" font-size="11" fill="#111" transform="rotate(-40 768.60,624)" font-family="sans-serif">2026-03-11</text>
<line x1="904.32" y1="600" x2="904.32" y2="606" stroke="#333" stroke-width="1"/>
<text x="904.32" y="624" text-anchor="end" font-size="11" fill="#111" transform="rotate(-40 904.32,624)" font-family="sans-serif">2026-03-19</text>
<line x1="1040.04" y1="600" x2="1040.04" y2="606" stroke="#333" stroke-width="1"/>
<text x="1040.04" y="624" text-anchor="end" font-size="11" fill="#111" transform="rotate(-40 1040.04,624)" font-family="sans-serif">2026-03-29</text>
<line x1="1175.76" y1="600" x2="1175.76" y2="606" stroke="#333" stroke-width="1"/>
<text x="1175.76" y="624" text-anchor="end" font-size="11" fill="#111" transform="rotate(-40 1175.76,624)" font-family="sans-serif">2026-05-17</text>
<line x1="1180.00" y1="600" x2="1180.00" y2="606" stroke="#333" stroke-width="1"/>
<text x="1180.00" y="624" text-anchor="end" font-size="11" fill="#111" transform="rotate(-40 1180.00,624)" font-family="sans-serif">2026-05-20</text>
<line x1="90" y1="75.88" x2="1180" y2="75.88" stroke="#dc2626" stroke-width="1.5" stroke-dasharray="8,4"/>
<text x="1184" y="79.88" font-size="12" fill="#dc2626" font-family="sans-serif">Goal: 1296</text>
<polyline fill="none" stroke="#2563eb" stroke-width="3" points="90.00,540.55 92.12,538.53 94.24,536.91 96.36,534.49 98.48,534.49 100.60,533.27 102.72,532.46 104.84,532.87 106.96,532.06 109.09,532.46 111.21,532.06 113.33,568.46 115.45,568.46 117.57,566.43 119.69,545.00 121.81,545.00 123.93,544.19 126.05,543.79 128.17,543.79 130.29,543.38 132.41,541.76 134.53,541.36 136.65,540.96 138.77,540.96 140.89,539.34 143.02,539.34 145.14,556.73 147.26,556.73 149.38,555.51 151.50,551.07 153.62,538.93 155.74,538.93 157.86,538.93 159.98,538.12 162.10,536.91 164.22,536.91 166.34,536.51 168.46,536.51 170.58,556.73 172.70,556.73 174.82,556.73 176.95,556.73 179.07,535.29 181.19,535.29 183.31,535.29 185.43,535.29 187.55,534.49 189.67,534.08 191.79,533.68 193.91,532.87 196.03,532.06 198.15,532.06 200.27,531.25 202.39,530.85 204.51,530.44 206.63,530.04 208.75,530.04 210.88,529.23 213.00,529.23 215.12,529.23 217.24,528.42 219.36,528.42 221.48,527.61 223.60,527.21 225.72,526.80 227.84,526.40 229.96,525.18 232.08,523.57 234.20,523.57 236.32,523.16 238.44,522.76 240.56,522.35 242.68,521.54 244.81,519.52 246.93,517.50 249.05,517.50 251.17,517.50 253.29,517.50 255.41,517.50 257.53,517.50 259.65,517.10 261.77,516.69 263.89,515.48 266.01,515.07 268.13,514.67 270.25,513.86 272.37,514.26 274.49,512.24 276.61,511.84 278.74,511.84 280.86,511.03 282.98,509.82 285.10,507.79 287.22,506.99 289.34,506.58 291.46,509.41 293.58,509.01 295.70,504.96 297.82,504.56 299.94,504.15 302.06,504.56 304.18,503.75 306.30,503.75 308.42,503.35 310.54,499.30 312.67,496.47 314.79,490.00 316.91,484.34 319.03,481.10 321.15,480.29 323.27,480.70 325.39,460.88 327.51,459.26 329.63,458.05 331.75,456.03 333.87,456.03 335.99,454.41 338.11,450.77 340.23,444.30 342.35,443.90 344.47,600.00 346.60,441.88 348.72,440.66 350.84,439.45 352.96,439.04 355.08,438.64 357.20,437.83 359.32,436.62 361.44,436.62 363.56,434.60 365.68,432.17 367.80,429.34 369.92,428.93 372.04,428.53 374.16,427.72 376.28,426.91 378.40,426.10 380.53,426.10 382.65,426.10 384.77,419.63 386.89,419.23 389.01,418.42 391.13,418.01 393.25,417.61 395.37,417.61 397.49,417.61 399.61,417.21 401.73,417.21 403.85,413.57 405.97,411.95 408.09,412.76 410.21,410.74 412.33,410.74 414.46,410.33 416.58,410.33 418.70,410.33 420.82,409.93 422.94,409.93 425.06,409.93 427.18,409.52 429.30,409.52 431.42,409.12 433.54,409.52 435.66,409.12 437.78,407.50 439.90,407.10 442.02,403.05 444.14,399.82 446.26,400.22 448.39,400.62 450.51,400.62 452.63,399.41 454.75,392.94 456.87,391.32 458.99,389.30 461.11,389.30 463.23,388.49 465.35,375.15 467.47,374.74 469.59,374.74 471.71,374.74 473.83,374.74 475.95,374.34 478.07,374.34 480.19,374.34 482.32,374.34 484.44,374.34 486.56,373.93 488.68,373.12 490.80,372.72 492.92,373.53 495.04,435.81 497.16,372.32 499.28,372.72 501.40,371.91 503.52,371.91 505.64,372.32 507.76,371.10 509.88,369.89 512.00,369.89 514.12,369.89 516.25,369.49 518.37,369.89 520.49,369.08 522.61,368.68 524.73,368.27 526.85,367.87 528.97,367.06 531.09,367.46 533.21,367.06 535.33,366.25 537.45,368.27 539.57,368.68 541.69,368.68 543.81,368.27 545.93,369.08 548.05,367.87 550.18,367.46 552.30,367.06 554.42,360.18 556.54,359.78 558.66,359.38 560.78,356.95 562.90,357.35 565.02,357.76 567.14,355.33 569.26,355.74 571.38,357.35 573.50,355.33 575.62,356.14 577.74,355.74 579.86,356.14 581.98,354.12 584.11,354.93 586.23,356.14 588.35,354.52 590.47,353.71 592.59,354.12 594.71,354.93 596.83,352.90 598.95,353.71 601.07,353.31 603.19,353.31 605.31,354.52 607.43,352.90 609.55,352.50 611.67,352.50 613.79,353.31 615.91,352.50 618.04,353.71 620.16,354.12 622.28,352.50 624.40,352.90 626.52,352.50 628.64,352.10 630.76,351.69 632.88,352.10 635.00,354.12 637.12,352.50 639.24,352.10 641.36,352.10 643.48,349.67 645.60,349.67 647.72,350.88 649.84,351.29 651.96,350.48 654.09,352.10 656.21,350.48 658.33,350.48 660.45,350.48 662.57,350.07 664.69,348.46 666.81,351.29 668.93,349.67 671.05,351.29 673.17,349.67 675.29,348.86 677.41,348.46 679.53,348.46 681.65,347.24 683.77,348.86 685.89,346.84 688.02,348.46 690.14,348.86 692.26,346.84 694.38,349.26 696.50,348.05 698.62,349.26 700.74,349.26 702.86,350.48 704.98,352.90 707.10,349.67 709.22,348.46 711.34,345.62 713.46,344.82 715.58,344.41 717.70,342.39 719.82,341.18 721.95,341.58 724.07,339.15 726.19,338.35 728.31,337.54 730.43,336.73 732.55,335.92 734.67,337.54 736.79,338.35 738.91,337.54 741.03,337.54 743.15,337.54 745.27,333.09 747.39,333.90 749.51,335.92 751.63,336.73 753.75,335.51 755.88,332.28 758.00,331.47 760.12,331.07 762.24,331.47 764.36,331.07 766.48,331.07 768.60,331.07 770.72,331.07 772.84,331.07 774.96,331.07 777.08,331.07 779.20,331.07 781.32,331.07 783.44,331.07 785.56,331.47 787.68,331.88 789.81,331.07 791.93,331.47 794.05,331.07 796.17,331.47 798.29,331.07 800.41,324.19 802.53,324.19 804.65,318.93 806.77,316.51 808.89,310.44 811.01,308.01 813.13,600.00 815.25,301.54 817.37,290.22 819.49,287.79 821.61,286.18 823.74,285.77 825.86,285.77 827.98,285.77 830.10,286.18 832.22,285.77 834.34,285.77 836.46,285.77 838.58,283.35 840.70,282.94 842.82,282.94 844.94,283.35 847.06,282.94 849.18,282.94 851.30,283.75 853.42,282.13 855.54,282.13 857.67,282.54 859.79,282.13 861.91,282.54 864.03,282.94 866.15,281.73 868.27,282.54 870.39,281.73 872.51,282.54 874.63,282.13 876.75,282.13 878.87,281.73 880.99,281.73 883.11,281.32 885.23,281.73 887.35,282.13 889.47,281.32 891.60,281.32 893.72,282.54 895.84,282.13 897.96,281.32 900.08,281.32 902.20,281.32 904.32,282.54 906.44,282.13 908.56,281.32 910.68,282.13 912.80,281.73 914.92,282.13 917.04,280.11 919.16,280.11 921.28,280.51 923.40,279.71 925.53,280.11 927.65,280.51 929.77,279.71 931.89,280.11 934.01,280.11 936.13,279.30 938.25,278.90 940.37,278.90 942.49,280.51 944.61,279.30 946.73,278.09 948.85,278.49 950.97,278.49 953.09,277.28 955.21,277.68 957.33,277.68 959.46,278.09 961.58,277.28 963.70,600.00 965.82,278.90 967.94,279.30 970.06,278.90 972.18,278.49 974.30,278.49 976.42,278.49 978.54,278.49 980.66,278.49 982.78,278.49 984.90,278.49 987.02,278.49 989.14,278.49 991.26,278.49 993.39,278.49 995.51,278.49 997.63,600.00 999.75,600.00 1001.87,254.63 1003.99,600.00 1006.11,245.74 1008.23,245.74 1010.35,246.14 1012.47,245.74 1014.59,245.74 1016.71,245.74 1018.83,245.74 1020.95,245.74 1023.07,240.07 1025.19,238.05 1027.32,238.05 1029.44,227.13 1031.56,227.13 1033.68,226.32 1035.80,227.54 1037.92,226.73 1040.04,226.32 1042.16,227.13 1044.28,227.13 1046.40,226.73 1048.52,226.32 1050.64,226.73 1052.76,226.73 1054.88,226.73 1057.00,225.11 1059.12,224.71 1061.25,225.11 1063.37,224.30 1065.49,226.32 1067.61,224.30 1069.73,225.51 1071.85,225.51 1073.97,225.51 1076.09,225.92 1078.21,223.09 1080.33,223.49 1082.45,223.09 1084.57,223.09 1086.69,223.90 1088.81,223.49 1090.93,223.49 1093.05,223.09 1095.18,223.09 1097.30,223.49 1099.42,223.09 1101.54,223.09 1103.66,223.49 1105.78,223.49 1107.90,223.09 1110.02,223.09 1112.14,223.49 1114.26,223.09 1116.38,223.09 1118.50,223.09 1120.62,223.49 1122.74,223.49 1124.86,223.49 1126.98,223.09 1129.11,223.49 1131.23,223.09 1133.35,223.09 1135.47,223.49 1137.59,223.09 1139.71,223.09 1141.83,223.49 1143.95,222.68 1146.07,221.88 1148.19,223.49 1150.31,223.09 1152.43,223.49 1154.55,224.30 1156.67,201.65 1158.79,201.65 1160.91,186.69 1163.04,176.18 1165.16,174.15 1167.28,172.94 1169.40,172.94 1171.52,162.02 1173.64,161.21 1175.76,148.27 1177.88,155.96 1180.00,147.06"/>
<circle cx="90.00" cy="540.55" r="3.2" fill="#1d4ed8"/>
<circle cx="92.12" cy="538.53" r="3.2" fill="#1d4ed8"/>
<circle cx="94.24" cy="536.91" r="3.2" fill="#1d4ed8"/>
<circle cx="96.36" cy="534.49" r="3.2" fill="#1d4ed8"/>
<circle cx="98.48" cy="534.49" r="3.2" fill="#1d4ed8"/>
<circle cx="100.60" cy="533.27" r="3.2" fill="#1d4ed8"/>
<circle cx="102.72" cy="532.46" r="3.2" fill="#1d4ed8"/>
<circle cx="104.84" cy="532.87" r="3.2" fill="#1d4ed8"/>
<circle cx="106.96" cy="532.06" r="3.2" fill="#1d4ed8"/>
<circle cx="109.09" cy="532.46" r="3.2" fill="#1d4ed8"/>
<circle cx="111.21" cy="532.06" r="3.2" fill="#1d4ed8"/>
<circle cx="113.33" cy="568.46" r="3.2" fill="#1d4ed8"/>
<circle cx="115.45" cy="568.46" r="3.2" fill="#1d4ed8"/>
<circle cx="117.57" cy="566.43" r="3.2" fill="#1d4ed8"/>
<circle cx="119.69" cy="545.00" r="3.2" fill="#1d4ed8"/>
<circle cx="121.81" cy="545.00" r="3.2" fill="#1d4ed8"/>
<circle cx="123.93" cy="544.19" r="3.2" fill="#1d4ed8"/>
<circle cx="126.05" cy="543.79" r="3.2" fill="#1d4ed8"/>
<circle cx="128.17" cy="543.79" r="3.2" fill="#1d4ed8"/>
<circle cx="130.29" cy="543.38" r="3.2" fill="#1d4ed8"/>
<circle cx="132.41" cy="541.76" r="3.2" fill="#1d4ed8"/>
<circle cx="134.53" cy="541.36" r="3.2" fill="#1d4ed8"/>
<circle cx="136.65" cy="540.96" r="3.2" fill="#1d4ed8"/>
<circle cx="138.77" cy="540.96" r="3.2" fill="#1d4ed8"/>
<circle cx="140.89" cy="539.34" r="3.2" fill="#1d4ed8"/>
<circle cx="143.02" cy="539.34" r="3.2" fill="#1d4ed8"/>
<circle cx="145.14" cy="556.73" r="3.2" fill="#1d4ed8"/>
<circle cx="147.26" cy="556.73" r="3.2" fill="#1d4ed8"/>
<circle cx="149.38" cy="555.51" r="3.2" fill="#1d4ed8"/>
<circle cx="151.50" cy="551.07" r="3.2" fill="#1d4ed8"/>
<circle cx="153.62" cy="538.93" r="3.2" fill="#1d4ed8"/>
<circle cx="155.74" cy="538.93" r="3.2" fill="#1d4ed8"/>
<circle cx="157.86" cy="538.93" r="3.2" fill="#1d4ed8"/>
<circle cx="159.98" cy="538.12" r="3.2" fill="#1d4ed8"/>
<circle cx="162.10" cy="536.91" r="3.2" fill="#1d4ed8"/>
<circle cx="164.22" cy="536.91" r="3.2" fill="#1d4ed8"/>
<circle cx="166.34" cy="536.51" r="3.2" fill="#1d4ed8"/>
<circle cx="168.46" cy="536.51" r="3.2" fill="#1d4ed8"/>
<circle cx="170.58" cy="556.73" r="3.2" fill="#1d4ed8"/>
<circle cx="172.70" cy="556.73" r="3.2" fill="#1d4ed8"/>
<circle cx="174.82" cy="556.73" r="3.2" fill="#1d4ed8"/>
<circle cx="176.95" cy="556.73" r="3.2" fill="#1d4ed8"/>
<circle cx="179.07" cy="535.29" r="3.2" fill="#1d4ed8"/>
<circle cx="181.19" cy="535.29" r="3.2" fill="#1d4ed8"/>
<circle cx="183.31" cy="535.29" r="3.2" fill="#1d4ed8"/>
<circle cx="185.43" cy="535.29" r="3.2" fill="#1d4ed8"/>
<circle cx="187.55" cy="534.49" r="3.2" fill="#1d4ed8"/>
<circle cx="189.67" cy="534.08" r="3.2" fill="#1d4ed8"/>
<circle cx="191.79" cy="533.68" r="3.2" fill="#1d4ed8"/>
<circle cx="193.91" cy="532.87" r="3.2" fill="#1d4ed8"/>
<circle cx="196.03" cy="532.06" r="3.2" fill="#1d4ed8"/>
<circle cx="198.15" cy="532.06" r="3.2" fill="#1d4ed8"/>
<circle cx="200.27" cy="531.25" r="3.2" fill="#1d4ed8"/>
<circle cx="202.39" cy="530.85" r="3.2" fill="#1d4ed8"/>
<circle cx="204.51" cy="530.44" r="3.2" fill="#1d4ed8"/>
<circle cx="206.63" cy="530.04" r="3.2" fill="#1d4ed8"/>
<circle cx="208.75" cy="530.04" r="3.2" fill="#1d4ed8"/>
<circle cx="210.88" cy="529.23" r="3.2" fill="#1d4ed8"/>
<circle cx="213.00" cy="529.23" r="3.2" fill="#1d4ed8"/>
<circle cx="215.12" cy="529.23" r="3.2" fill="#1d4ed8"/>
<circle cx="217.24" cy="528.42" r="3.2" fill="#1d4ed8"/>
<circle cx="219.36" cy="528.42" r="3.2" fill="#1d4ed8"/>
<circle cx="221.48" cy="527.61" r="3.2" fill="#1d4ed8"/>
<circle cx="223.60" cy="527.21" r="3.2" fill="#1d4ed8"/>
<circle cx="225.72" cy="526.80" r="3.2" fill="#1d4ed8"/>
<circle cx="227.84" cy="526.40" r="3.2" fill="#1d4ed8"/>
<circle cx="229.96" cy="525.18" r="3.2" fill="#1d4ed8"/>
<circle cx="232.08" cy="523.57" r="3.2" fill="#1d4ed8"/>
<circle cx="234.20" cy="523.57" r="3.2" fill="#1d4ed8"/>
<circle cx="236.32" cy="523.16" r="3.2" fill="#1d4ed8"/>
<circle cx="238.44" cy="522.76" r="3.2" fill="#1d4ed8"/>
<circle cx="240.56" cy="522.35" r="3.2" fill="#1d4ed8"/>
<circle cx="242.68" cy="521.54" r="3.2" fill="#1d4ed8"/>
<circle cx="244.81" cy="519.52" r="3.2" fill="#1d4ed8"/>
<circle cx="246.93" cy="517.50" r="3.2" fill="#1d4ed8"/>
<circle cx="249.05" cy="517.50" r="3.2" fill="#1d4ed8"/>
<circle cx="251.17" cy="517.50" r="3.2" fill="#1d4ed8"/>
<circle cx="253.29" cy="517.50" r="3.2" fill="#1d4ed8"/>
<circle cx="255.41" cy="517.50" r="3.2" fill="#1d4ed8"/>
<circle cx="257.53" cy="517.50" r="3.2" fill="#1d4ed8"/>
<circle cx="259.65" cy="517.10" r="3.2" fill="#1d4ed8"/>
<circle cx="261.77" cy="516.69" r="3.2" fill="#1d4ed8"/>
<circle cx="263.89" cy="515.48" r="3.2" fill="#1d4ed8"/>
<circle cx="266.01" cy="515.07" r="3.2" fill="#1d4ed8"/>
<circle cx="268.13" cy="514.67" r="3.2" fill="#1d4ed8"/>
<circle cx="270.25" cy="513.86" r="3.2" fill="#1d4ed8"/>
<circle cx="272.37" cy="514.26" r="3.2" fill="#1d4ed8"/>
<circle cx="274.49" cy="512.24" r="3.2" fill="#1d4ed8"/>
<circle cx="276.61" cy="511.84" r="3.2" fill="#1d4ed8"/>
<circle cx="278.74" cy="511.84" r="3.2" fill="#1d4ed8"/>
<circle cx="280.86" cy="511.03" r="3.2" fill="#1d4ed8"/>
<circle cx="282.98" cy="509.82" r="3.2" fill="#1d4ed8"/>
<circle cx="285.10" cy="507.79" r="3.2" fill="#1d4ed8"/>
<circle cx="287.22" cy="506.99" r="3.2" fill="#1d4ed8"/>
<circle cx="289.34" cy="506.58" r="3.2" fill="#1d4ed8"/>
<circle cx="291.46" cy="509.41" r="3.2" fill="#1d4ed8"/>
<circle cx="293.58" cy="509.01" r="3.2" fill="#1d4ed8"/>
<circle cx="295.70" cy="504.96" r="3.2" fill="#1d4ed8"/>
<circle cx="297.82" cy="504.56" r="3.2" fill="#1d4ed8"/>
<circle cx="299.94" cy="504.15" r="3.2" fill="#1d4ed8"/>
<circle cx="302.06" cy="504.56" r="3.2" fill="#1d4ed8"/>
<circle cx="304.18" cy="503.75" r="3.2" fill="#1d4ed8"/>
<circle cx="306.30" cy="503.75" r="3.2" fill="#1d4ed8"/>
<circle cx="308.42" cy="503.35" r="3.2" fill="#1d4ed8"/>
<circle cx="310.54" cy="499.30" r="3.2" fill="#1d4ed8"/>
<circle cx="312.67" cy="496.47" r="3.2" fill="#1d4ed8"/>
<circle cx="314.79" cy="490.00" r="3.2" fill="#1d4ed8"/>
<circle cx="316.91" cy="484.34" r="3.2" fill="#1d4ed8"/>
<circle cx="319.03" cy="481.10" r="3.2" fill="#1d4ed8"/>
<circle cx="321.15" cy="480.29" r="3.2" fill="#1d4ed8"/>
<circle cx="323.27" cy="480.70" r="3.2" fill="#1d4ed8"/>
<circle cx="325.39" cy="460.88" r="3.2" fill="#1d4ed8"/>
<circle cx="327.51" cy="459.26" r="3.2" fill="#1d4ed8"/>
<circle cx="329.63" cy="458.05" r="3.2" fill="#1d4ed8"/>
<circle cx="331.75" cy="456.03" r="3.2" fill="#1d4ed8"/>
<circle cx="333.87" cy="456.03" r="3.2" fill="#1d4ed8"/>
<circle cx="335.99" cy="454.41" r="3.2" fill="#1d4ed8"/>
<circle cx="338.11" cy="450.77" r="3.2" fill="#1d4ed8"/>
<circle cx="340.23" cy="444.30" r="3.2" fill="#1d4ed8"/>
<circle cx="342.35" cy="443.90" r="3.2" fill="#1d4ed8"/>
<circle cx="344.47" cy="600.00" r="3.2" fill="#1d4ed8"/>
<circle cx="346.60" cy="441.88" r="3.2" fill="#1d4ed8"/>
<circle cx="348.72" cy="440.66" r="3.2" fill="#1d4ed8"/>
<circle cx="350.84" cy="439.45" r="3.2" fill="#1d4ed8"/>
<circle cx="352.96" cy="439.04" r="3.2" fill="#1d4ed8"/>
<circle cx="355.08" cy="438.64" r="3.2" fill="#1d4ed8"/>
<circle cx="357.20" cy="437.83" r="3.2" fill="#1d4ed8"/>
<circle cx="359.32" cy="436.62" r="3.2" fill="#1d4ed8"/>
<circle cx="361.44" cy="436.62" r="3.2" fill="#1d4ed8"/>
<circle cx="363.56" cy="434.60" r="3.2" fill="#1d4ed8"/>
<circle cx="365.68" cy="432.17" r="3.2" fill="#1d4ed8"/>
<circle cx="367.80" cy="429.34" r="3.2" fill="#1d4ed8"/>
<circle cx="369.92" cy="428.93" r="3.2" fill="#1d4ed8"/>
<circle cx="372.04" cy="428.53" r="3.2" fill="#1d4ed8"/>
<circle cx="374.16" cy="427.72" r="3.2" fill="#1d4ed8"/>
<circle cx="376.28" cy="426.91" r="3.2" fill="#1d4ed8"/>
<circle cx="378.40" cy="426.10" r="3.2" fill="#1d4ed8"/>
<circle cx="380.53" cy="426.10" r="3.2" fill="#1d4ed8"/>
<circle cx="382.65" cy="426.10" r="3.2" fill="#1d4ed8"/>
<circle cx="384.77" cy="419.63" r="3.2" fill="#1d4ed8"/>
<circle cx="386.89" cy="419.23" r="3.2" fill="#1d4ed8"/>
<circle cx="389.01" cy="418.42" r="3.2" fill="#1d4ed8"/>
<circle cx="391.13" cy="418.01" r="3.2" fill="#1d4ed8"/>
<circle cx="393.25" cy="417.61" r="3.2" fill="#1d4ed8"/>
<circle cx="395.37" cy="417.61" r="3.2" fill="#1d4ed8"/>
<circle cx="397.49" cy="417.61" r="3.2" fill="#1d4ed8"/>
<circle cx="399.61" cy="417.21" r="3.2" fill="#1d4ed8"/>
<circle cx="401.73" cy="417.21" r="3.2" fill="#1d4ed8"/>
<circle cx="403.85" cy="413.57" r="3.2" fill="#1d4ed8"/>
<circle cx="405.97" cy="411.95" r="3.2" fill="#1d4ed8"/>
<circle cx="408.09" cy="412.76" r="3.2" fill="#1d4ed8"/>
<circle cx="410.21" cy="410.74" r="3.2" fill="#1d4ed8"/>
<circle cx="412.33" cy="410.74" r="3.2" fill="#1d4ed8"/>
<circle cx="414.46" cy="410.33" r="3.2" fill="#1d4ed8"/>
<circle cx="416.58" cy="410.33" r="3.2" fill="#1d4ed8"/>
<circle cx="418.70" cy="410.33" r="3.2" fill="#1d4ed8"/>
<circle cx="420.82" cy="409.93" r="3.2" fill="#1d4ed8"/>
<circle cx="422.94" cy="409.93" r="3.2" fill="#1d4ed8"/>
<circle cx="425.06" cy="409.93" r="3.2" fill="#1d4ed8"/>
<circle cx="427.18" cy="409.52" r="3.2" fill="#1d4ed8"/>
<circle cx="429.30" cy="409.52" r="3.2" fill="#1d4ed8"/>
<circle cx="431.42" cy="409.12" r="3.2" fill="#1d4ed8"/>
<circle cx="433.54" cy="409.52" r="3.2" fill="#1d4ed8"/>
<circle cx="435.66" cy="409.12" r="3.2" fill="#1d4ed8"/>
<circle cx="437.78" cy="407.50" r="3.2" fill="#1d4ed8"/>
<circle cx="439.90" cy="407.10" r="3.2" fill="#1d4ed8"/>
<circle cx="442.02" cy="403.05" r="3.2" fill="#1d4ed8"/>
<circle cx="444.14" cy="399.82" r="3.2" fill="#1d4ed8"/>
<circle cx="446.26" cy="400.22" r="3.2" fill="#1d4ed8"/>
<circle cx="448.39" cy="400.62" r="3.2" fill="#1d4ed8"/>
<circle cx="450.51" cy="400.62" r="3.2" fill="#1d4ed8"/>
<circle cx="452.63" cy="399.41" r="3.2" fill="#1d4ed8"/>
<circle cx="454.75" cy="392.94" r="3.2" fill="#1d4ed8"/>
<circle cx="456.87" cy="391.32" r="3.2" fill="#1d4ed8"/>
<circle cx="458.99" cy="389.30" r="3.2" fill="#1d4ed8"/>
<circle cx="461.11" cy="389.30" r="3.2" fill="#1d4ed8"/>
<circle cx="463.23" cy="388.49" r="3.2" fill="#1d4ed8"/>
<circle cx="465.35" cy="375.15" r="3.2" fill="#1d4ed8"/>
<circle cx="467.47" cy="374.74" r="3.2" fill="#1d4ed8"/>
<circle cx="469.59" cy="374.74" r="3.2" fill="#1d4ed8"/>
<circle cx="471.71" cy="374.74" r="3.2" fill="#1d4ed8"/>
<circle cx="473.83" cy="374.74" r="3.2" fill="#1d4ed8"/>
<circle cx="475.95" cy="374.34" r="3.2" fill="#1d4ed8"/>
<circle cx="478.07" cy="374.34" r="3.2" fill="#1d4ed8"/>
<circle cx="480.19" cy="374.34" r="3.2" fill="#1d4ed8"/>
<circle cx="482.32" cy="374.34" r="3.2" fill="#1d4ed8"/>
<circle cx="484.44" cy="374.34" r="3.2" fill="#1d4ed8"/>
<circle cx="486.56" cy="373.93" r="3.2" fill="#1d4ed8"/>
<circle cx="488.68" cy="373.12" r="3.2" fill="#1d4ed8"/>
<circle cx="490.80" cy="372.72" r="3.2" fill="#1d4ed8"/>
<circle cx="492.92" cy="373.53" r="3.2" fill="#1d4ed8"/>
<circle cx="495.04" cy="435.81" r="3.2" fill="#1d4ed8"/>
<circle cx="497.16" cy="372.32" r="3.2" fill="#1d4ed8"/>
<circle cx="499.28" cy="372.72" r="3.2" fill="#1d4ed8"/>
<circle cx="501.40" cy="371.91" r="3.2" fill="#1d4ed8"/>
<circle cx="503.52" cy="371.91" r="3.2" fill="#1d4ed8"/>
<circle cx="505.64" cy="372.32" r="3.2" fill="#1d4ed8"/>
<circle cx="507.76" cy="371.10" r="3.2" fill="#1d4ed8"/>
<circle cx="509.88" cy="369.89" r="3.2" fill="#1d4ed8"/>
<circle cx="512.00" cy="369.89" r="3.2" fill="#1d4ed8"/>
<circle cx="514.12" cy="369.89" r="3.2" fill="#1d4ed8"/>
<circle cx="516.25" cy="369.49" r="3.2" fill="#1d4ed8"/>
<circle cx="518.37" cy="369.89" r="3.2" fill="#1d4ed8"/>
<circle cx="520.49" cy="369.08" r="3.2" fill="#1d4ed8"/>
<circle cx="522.61" cy="368.68" r="3.2" fill="#1d4ed8"/>
<circle cx="524.73" cy="368.27" r="3.2" fill="#1d4ed8"/>
<circle cx="526.85" cy="367.87" r="3.2" fill="#1d4ed8"/>
<circle cx="528.97" cy="367.06" r="3.2" fill="#1d4ed8"/>
<circle cx="531.09" cy="367.46" r="3.2" fill="#1d4ed8"/>
<circle cx="533.21" cy="367.06" r="3.2" fill="#1d4ed8"/>
<circle cx="535.33" cy="366.25" r="3.2" fill="#1d4ed8"/>
<circle cx="537.45" cy="368.27" r="3.2" fill="#1d4ed8"/>
<circle cx="539.57" cy="368.68" r="3.2" fill="#1d4ed8"/>
<circle cx="541.69" cy="368.68" r="3.2" fill="#1d4ed8"/>
<circle cx="543.81" cy="368.27" r="3.2" fill="#1d4ed8"/>
<circle cx="545.93" cy="369.08" r="3.2" fill="#1d4ed8"/>
<circle cx="548.05" cy="367.87" r="3.2" fill="#1d4ed8"/>
<circle cx="550.18" cy="367.46" r="3.2" fill="#1d4ed8"/>
<circle cx="552.30" cy="367.06" r="3.2" fill="#1d4ed8"/>
<circle cx="554.42" cy="360.18" r="3.2" fill="#1d4ed8"/>
<circle cx="556.54" cy="359.78" r="3.2" fill="#1d4ed8"/>
<circle cx="558.66" cy="359.38" r="3.2" fill="#1d4ed8"/>
<circle cx="560.78" cy="356.95" r="3.2" fill="#1d4ed8"/>
<circle cx="562.90" cy="357.35" r="3.2" fill="#1d4ed8"/>
<circle cx="565.02" cy="357.76" r="3.2" fill="#1d4ed8"/>
<circle cx="567.14" cy="355.33" r="3.2" fill="#1d4ed8"/>
<circle cx="569.26" cy="355.74" r="3.2" fill="#1d4ed8"/>
<circle cx="571.38" cy="357.35" r="3.2" fill="#1d4ed8"/>
<circle cx="573.50" cy="355.33" r="3.2" fill="#1d4ed8"/>
<circle cx="575.62" cy="356.14" r="3.2" fill="#1d4ed8"/>
<circle cx="577.74" cy="355.74" r="3.2" fill="#1d4ed8"/>
<circle cx="579.86" cy="356.14" r="3.2" fill="#1d4ed8"/>
<circle cx="581.98" cy="354.12" r="3.2" fill="#1d4ed8"/>
<circle cx="584.11" cy="354.93" r="3.2" fill="#1d4ed8"/>
<circle cx="586.23" cy="356.14" r="3.2" fill="#1d4ed8"/>
<circle cx="588.35" cy="354.52" r="3.2" fill="#1d4ed8"/>
<circle cx="590.47" cy="353.71" r="3.2" fill="#1d4ed8"/>
<circle cx="592.59" cy="354.12" r="3.2" fill="#1d4ed8"/>
<circle cx="594.71" cy="354.93" r="3.2" fill="#1d4ed8"/>
<circle cx="596.83" cy="352.90" r="3.2" fill="#1d4ed8"/>
<circle cx="598.95" cy="353.71" r="3.2" fill="#1d4ed8"/>
<circle cx="601.07" cy="353.31" r="3.2" fill="#1d4ed8"/>
<circle cx="603.19" cy="353.31" r="3.2" fill="#1d4ed8"/>
<circle cx="605.31" cy="354.52" r="3.2" fill="#1d4ed8"/>
<circle cx="607.43" cy="352.90" r="3.2" fill="#1d4ed8"/>
<circle cx="609.55" cy="352.50" r="3.2" fill="#1d4ed8"/>
<circle cx="611.67" cy="352.50" r="3.2" fill="#1d4ed8"/>
<circle cx="613.79" cy="353.31" r="3.2" fill="#1d4ed8"/>
<circle cx="615.91" cy="352.50" r="3.2" fill="#1d4ed8"/>
<circle cx="618.04" cy="353.71" r="3.2" fill="#1d4ed8"/>
<circle cx="620.16" cy="354.12" r="3.2" fill="#1d4ed8"/>
<circle cx="622.28" cy="352.50" r="3.2" fill="#1d4ed8"/>
<circle cx="624.40" cy="352.90" r="3.2" fill="#1d4ed8"/>
<circle cx="626.52" cy="352.50" r="3.2" fill="#1d4ed8"/>
<circle cx="628.64" cy="352.10" r="3.2" fill="#1d4ed8"/>
<circle cx="630.76" cy="351.69" r="3.2" fill="#1d4ed8"/>
<circle cx="632.88" cy="352.10" r="3.2" fill="#1d4ed8"/>
<circle cx="635.00" cy="354.12" r="3.2" fill="#1d4ed8"/>
<circle cx="637.12" cy="352.50" r="3.2" fill="#1d4ed8"/>
<circle cx="639.24" cy="352.10" r="3.2" fill="#1d4ed8"/>
<circle cx="641.36" cy="352.10" r="3.2" fill="#1d4ed8"/>
<circle cx="643.48" cy="349.67" r="3.2" fill="#1d4ed8"/>
<circle cx="645.60" cy="349.67" r="3.2" fill="#1d4ed8"/>
<circle cx="647.72" cy="350.88" r="3.2" fill="#1d4ed8"/>
<circle cx="649.84" cy="351.29" r="3.2" fill="#1d4ed8"/>
<circle cx="651.96" cy="350.48" r="3.2" fill="#1d4ed8"/>
<circle cx="654.09" cy="352.10" r="3.2" fill="#1d4ed8"/>
<circle cx="656.21" cy="350.48" r="3.2" fill="#1d4ed8"/>
<circle cx="658.33" cy="350.48" r="3.2" fill="#1d4ed8"/>
<circle cx="660.45" cy="350.48" r="3.2" fill="#1d4ed8"/>
<circle cx="662.57" cy="350.07" r="3.2" fill="#1d4ed8"/>
<circle cx="664.69" cy="348.46" r="3.2" fill="#1d4ed8"/>
<circle cx="666.81" cy="351.29" r="3.2" fill="#1d4ed8"/>
<circle cx="668.93" cy="349.67" r="3.2" fill="#1d4ed8"/>
<circle cx="671.05" cy="351.29" r="3.2" fill="#1d4ed8"/>
<circle cx="673.17" cy="349.67" r="3.2" fill="#1d4ed8"/>
<circle cx="675.29" cy="348.86" r="3.2" fill="#1d4ed8"/>
<circle cx="677.41" cy="348.46" r="3.2" fill="#1d4ed8"/>
<circle cx="679.53" cy="348.46" r="3.2" fill="#1d4ed8"/>
<circle cx="681.65" cy="347.24" r="3.2" fill="#1d4ed8"/>
<circle cx="683.77" cy="348.86" r="3.2" fill="#1d4ed8"/>
<circle cx="685.89" cy="346.84" r="3.2" fill="#1d4ed8"/>
<circle cx="688.02" cy="348.46" r="3.2" fill="#1d4ed8"/>
<circle cx="690.14" cy="348.86" r="3.2" fill="#1d4ed8"/>
<circle cx="692.26" cy="346.84" r="3.2" fill="#1d4ed8"/>
<circle cx="694.38" cy="349.26" r="3.2" fill="#1d4ed8"/>
<circle cx="696.50" cy="348.05" r="3.2" fill="#1d4ed8"/>
<circle cx="698.62" cy="349.26" r="3.2" fill="#1d4ed8"/>
<circle cx="700.74" cy="349.26" r="3.2" fill="#1d4ed8"/>
<circle cx="702.86" cy="350.48" r="3.2" fill="#1d4ed8"/>
<circle cx="704.98" cy="352.90" r="3.2" fill="#1d4ed8"/>
<circle cx="707.10" cy="349.67" r="3.2" fill="#1d4ed8"/>
<circle cx="709.22" cy="348.46" r="3.2" fill="#1d4ed8"/>
<circle cx="711.34" cy="345.62" r="3.2" fill="#1d4ed8"/>
<circle cx="713.46" cy="344.82" r="3.2" fill="#1d4ed8"/>
<circle cx="715.58" cy="344.41" r="3.2" fill="#1d4ed8"/>
<circle cx="717.70" cy="342.39" r="3.2" fill="#1d4ed8"/>
<circle cx="719.82" cy="341.18" r="3.2" fill="#1d4ed8"/>
<circle cx="721.95" cy="341.58" r="3.2" fill="#1d4ed8"/>
<circle cx="724.07" cy="339.15" r="3.2" fill="#1d4ed8"/>
<circle cx="726.19" cy="338.35" r="3.2" fill="#1d4ed8"/>
<circle cx="728.31" cy="337.54" r="3.2" fill="#1d4ed8"/>
<circle cx="730.43" cy="336.73" r="3.2" fill="#1d4ed8"/>
<circle cx="732.55" cy="335.92" r="3.2" fill="#1d4ed8"/>
<circle cx="734.67" cy="337.54" r="3.2" fill="#1d4ed8"/>
<circle cx="736.79" cy="338.35" r="3.2" fill="#1d4ed8"/>
<circle cx="738.91" cy="337.54" r="3.2" fill="#1d4ed8"/>
<circle cx="741.03" cy="337.54" r="3.2" fill="#1d4ed8"/>
<circle cx="743.15" cy="337.54" r="3.2" fill="#1d4ed8"/>
<circle cx="745.27" cy="333.09" r="3.2" fill="#1d4ed8"/>
<circle cx="747.39" cy="333.90" r="3.2" fill="#1d4ed8"/>
<circle cx="749.51" cy="335.92" r="3.2" fill="#1d4ed8"/>
<circle cx="751.63" cy="336.73" r="3.2" fill="#1d4ed8"/>
<circle cx="753.75" cy="335.51" r="3.2" fill="#1d4ed8"/>
<circle cx="755.88" cy="332.28" r="3.2" fill="#1d4ed8"/>
<circle cx="758.00" cy="331.47" r="3.2" fill="#1d4ed8"/>
<circle cx="760.12" cy="331.07" r="3.2" fill="#1d4ed8"/>
<circle cx="762.24" cy="331.47" r="3.2" fill="#1d4ed8"/>
<circle cx="764.36" cy="331.07" r="3.2" fill="#1d4ed8"/>
<circle cx="766.48" cy="331.07" r="3.2" fill="#1d4ed8"/>
<circle cx="768.60" cy="331.07" r="3.2" fill="#1d4ed8"/>
<circle cx="770.72" cy="331.07" r="3.2" fill="#1d4ed8"/>
<circle cx="772.84" cy="331.07" r="3.2" fill="#1d4ed8"/>
<circle cx="774.96" cy="331.07" r="3.2" fill="#1d4ed8"/>
<circle cx="777.08" cy="331.07" r="3.2" fill="#1d4ed8"/>
<circle cx="779.20" cy="331.07" r="3.2" fill="#1d4ed8"/>
<circle cx="781.32" cy="331.07" r="3.2" fill="#1d4ed8"/>
<circle cx="783.44" cy="331.07" r="3.2" fill="#1d4ed8"/>
<circle cx="785.56" cy="331.47" r="3.2" fill="#1d4ed8"/>
<circle cx="787.68" cy="331.88" r="3.2" fill="#1d4ed8"/>
<circle cx="789.81" cy="331.07" r="3.2" fill="#1d4ed8"/>
<circle cx="791.93" cy="331.47" r="3.2" fill="#1d4ed8"/>
<circle cx="794.05" cy="331.07" r="3.2" fill="#1d4ed8"/>
<circle cx="796.17" cy="331.47" r="3.2" fill="#1d4ed8"/>
<circle cx="798.29" cy="331.07" r="3.2" fill="#1d4ed8"/>
<circle cx="800.41" cy="324.19" r="3.2" fill="#1d4ed8"/>
<circle cx="802.53" cy="324.19" r="3.2" fill="#1d4ed8"/>
<circle cx="804.65" cy="318.93" r="3.2" fill="#1d4ed8"/>
<circle cx="806.77" cy="316.51" r="3.2" fill="#1d4ed8"/>
<circle cx="808.89" cy="310.44" r="3.2" fill="#1d4ed8"/>
<circle cx="811.01" cy="308.01" r="3.2" fill="#1d4ed8"/>
<circle cx="813.13" cy="600.00" r="3.2" fill="#1d4ed8"/>
<circle cx="815.25" cy="301.54" r="3.2" fill="#1d4ed8"/>
<circle cx="817.37" cy="290.22" r="3.2" fill="#1d4ed8"/>
<circle cx="819.49" cy="287.79" r="3.2" fill="#1d4ed8"/>
<circle cx="821.61" cy="286.18" r="3.2" fill="#1d4ed8"/>
<circle cx="823.74" cy="285.77" r="3.2" fill="#1d4ed8"/>
<circle cx="825.86" cy="285.77" r="3.2" fill="#1d4ed8"/>
<circle cx="827.98" cy="285.77" r="3.2" fill="#1d4ed8"/>
<circle cx="830.10" cy="286.18" r="3.2" fill="#1d4ed8"/>
<circle cx="832.22" cy="285.77" r="3.2" fill="#1d4ed8"/>
<circle cx="834.34" cy="285.77" r="3.2" fill="#1d4ed8"/>
<circle cx="836.46" cy="285.77" r="3.2" fill="#1d4ed8"/>
<circle cx="838.58" cy="283.35" r="3.2" fill="#1d4ed8"/>
<circle cx="840.70" cy="282.94" r="3.2" fill="#1d4ed8"/>
<circle cx="842.82" cy="282.94" r="3.2" fill="#1d4ed8"/>
<circle cx="844.94" cy="283.35" r="3.2" fill="#1d4ed8"/>
<circle cx="847.06" cy="282.94" r="3.2" fill="#1d4ed8"/>
<circle cx="849.18" cy="282.94" r="3.2" fill="#1d4ed8"/>
<circle cx="851.30" cy="283.75" r="3.2" fill="#1d4ed8"/>
<circle cx="853.42" cy="282.13" r="3.2" fill="#1d4ed8"/>
<circle cx="855.54" cy="282.13" r="3.2" fill="#1d4ed8"/>
<circle cx="857.67" cy="282.54" r="3.2" fill="#1d4ed8"/>
<circle cx="859.79" cy="282.13" r="3.2" fill="#1d4ed8"/>
<circle cx="861.91" cy="282.54" r="3.2" fill="#1d4ed8"/>
<circle cx="864.03" cy="282.94" r="3.2" fill="#1d4ed8"/>
<circle cx="866.15" cy="281.73" r="3.2" fill="#1d4ed8"/>
<circle cx="868.27" cy="282.54" r="3.2" fill="#1d4ed8"/>
<circle cx="870.39" cy="281.73" r="3.2" fill="#1d4ed8"/>
<circle cx="872.51" cy="282.54" r="3.2" fill="#1d4ed8"/>
<circle cx="874.63" cy="282.13" r="3.2" fill="#1d4ed8"/>
<circle cx="876.75" cy="282.13" r="3.2" fill="#1d4ed8"/>
<circle cx="878.87" cy="281.73" r="3.2" fill="#1d4ed8"/>
<circle cx="880.99" cy="281.73" r="3.2" fill="#1d4ed8"/>
<circle cx="883.11" cy="281.32" r="3.2" fill="#1d4ed8"/>
<circle cx="885.23" cy="281.73" r="3.2" fill="#1d4ed8"/>
<circle cx="887.35" cy="282.13" r="3.2" fill="#1d4ed8"/>
<circle cx="889.47" cy="281.32" r="3.2" fill="#1d4ed8"/>
<circle cx="891.60" cy="281.32" r="3.2" fill="#1d4ed8"/>
<circle cx="893.72" cy="282.54" r="3.2" fill="#1d4ed8"/>
<circle cx="895.84" cy="282.13" r="3.2" fill="#1d4ed8"/>
<circle cx="897.96" cy="281.32" r="3.2" fill="#1d4ed8"/>
<circle cx="900.08" cy="281.32" r="3.2" fill="#1d4ed8"/>
<circle cx="902.20" cy="281.32" r="3.2" fill="#1d4ed8"/>
<circle cx="904.32" cy="282.54" r="3.2" fill="#1d4ed8"/>
<circle cx="906.44" cy="282.13" r="3.2" fill="#1d4ed8"/>
<circle cx="908.56" cy="281.32" r="3.2" fill="#1d4ed8"/>
<circle cx="910.68" cy="282.13" r="3.2" fill="#1d4ed8"/>
<circle cx="912.80" cy="281.73" r="3.2" fill="#1d4ed8"/>
<circle cx="914.92" cy="282.13" r="3.2" fill="#1d4ed8"/>
<circle cx="917.04" cy="280.11" r="3.2" fill="#1d4ed8"/>
<circle cx="919.16" cy="280.11" r="3.2" fill="#1d4ed8"/>
<circle cx="921.28" cy="280.51" r="3.2" fill="#1d4ed8"/>
<circle cx="923.40" cy="279.71" r="3.2" fill="#1d4ed8"/>
<circle cx="925.53" cy="280.11" r="3.2" fill="#1d4ed8"/>
<circle cx="927.65" cy="280.51" r="3.2" fill="#1d4ed8"/>
<circle cx="929.77" cy="279.71" r="3.2" fill="#1d4ed8"/>
<circle cx="931.89" cy="280.11" r="3.2" fill="#1d4ed8"/>
<circle cx="934.01" cy="280.11" r="3.2" fill="#1d4ed8"/>
<circle cx="936.13" cy="279.30" r="3.2" fill="#1d4ed8"/>
<circle cx="938.25" cy="278.90" r="3.2" fill="#1d4ed8"/>
<circle cx="940.37" cy="278.90" r="3.2" fill="#1d4ed8"/>
<circle cx="942.49" cy="280.51" r="3.2" fill="#1d4ed8"/>
<circle cx="944.61" cy="279.30" r="3.2" fill="#1d4ed8"/>
<circle cx="946.73" cy="278.09" r="3.2" fill="#1d4ed8"/>
<circle cx="948.85" cy="278.49" r="3.2" fill="#1d4ed8"/>
<circle cx="950.97" cy="278.49" r="3.2" fill="#1d4ed8"/>
<circle cx="953.09" cy="277.28" r="3.2" fill="#1d4ed8"/>
<circle cx="955.21" cy="277.68" r="3.2" fill="#1d4ed8"/>
<circle cx="957.33" cy="277.68" r="3.2" fill="#1d4ed8"/>
<circle cx="959.46" cy="278.09" r="3.2" fill="#1d4ed8"/>
<circle cx="961.58" cy="277.28" r="3.2" fill="#1d4ed8"/>
<circle cx="963.70" cy="600.00" r="3.2" fill="#1d4ed8"/>
<circle cx="965.82" cy="278.90" r="3.2" fill="#1d4ed8"/>
<circle cx="967.94" cy="279.30" r="3.2" fill="#1d4ed8"/>
<circle cx="970.06" cy="278.90" r="3.2" fill="#1d4ed8"/>
<circle cx="972.18" cy="278.49" r="3.2" fill="#1d4ed8"/>
<circle cx="974.30" cy="278.49" r="3.2" fill="#1d4ed8"/>
<circle cx="976.42" cy="278.49" r="3.2" fill="#1d4ed8"/>
<circle cx="978.54" cy="278.49" r="3.2" fill="#1d4ed8"/>
<circle cx="980.66" cy="278.49" r="3.2" fill="#1d4ed8"/>
<circle cx="982.78" cy="278.49" r="3.2" fill="#1d4ed8"/>
<circle cx="984.90" cy="278.49" r="3.2" fill="#1d4ed8"/>
<circle cx="987.02" cy="278.49" r="3.2" fill="#1d4ed8"/>
<circle cx="989.14" cy="278.49" r="3.2" fill="#1d4ed8"/>
<circle cx="991.26" cy="278.49" r="3.2" fill="#1d4ed8"/>
<circle cx="993.39" cy="278.49" r="3.2" fill="#1d4ed8"/>
<circle cx="995.51" cy="278.49" r="3.2" fill="#1d4ed8"/>
<circle cx="997.63" cy="600.00" r="3.2" fill="#1d4ed8"/>
<circle cx="999.75" cy="600.00" r="3.2" fill="#1d4ed8"/>
<circle cx="1001.87" cy="254.63" r="3.2" fill="#1d4ed8"/>
<circle cx="1003.99" cy="600.00" r="3.2" fill="#1d4ed8"/>
<circle cx="1006.11" cy="245.74" r="3.2" fill="#1d4ed8"/>
<circle cx="1008.23" cy="245.74" r="3.2" fill="#1d4ed8"/>
<circle cx="1010.35" cy="246.14" r="3.2" fill="#1d4ed8"/>
<circle cx="1012.47" cy="245.74" r="3.2" fill="#1d4ed8"/>
<circle cx="1014.59" cy="245.74" r="3.2" fill="#1d4ed8"/>
<circle cx="1016.71" cy="245.74" r="3.2" fill="#1d4ed8"/>
<circle cx="1018.83" cy="245.74" r="3.2" fill="#1d4ed8"/>
<circle cx="1020.95" cy="245.74" r="3.2" fill="#1d4ed8"/>
<circle cx="1023.07" cy="240.07" r="3.2" fill="#1d4ed8"/>
<circle cx="1025.19" cy="238.05" r="3.2" fill="#1d4ed8"/>
<circle cx="1027.32" cy="238.05" r="3.2" fill="#1d4ed8"/>
<circle cx="1029.44" cy="227.13" r="3.2" fill="#1d4ed8"/>
<circle cx="1031.56" cy="227.13" r="3.2" fill="#1d4ed8"/>
<circle cx="1033.68" cy="226.32" r="3.2" fill="#1d4ed8"/>
<circle cx="1035.80" cy="227.54" r="3.2" fill="#1d4ed8"/>
<circle cx="1037.92" cy="226.73" r="3.2" fill="#1d4ed8"/>
<circle cx="1040.04" cy="226.32" r="3.2" fill="#1d4ed8"/>
<circle cx="1042.16" cy="227.13" r="3.2" fill="#1d4ed8"/>
<circle cx="1044.28" cy="227.13" r="3.2" fill="#1d4ed8"/>
<circle cx="1046.40" cy="226.73" r="3.2" fill="#1d4ed8"/>
<circle cx="1048.52" cy="226.32" r="3.2" fill="#1d4ed8"/>
<circle cx="1050.64" cy="226.73" r="3.2" fill="#1d4ed8"/>
<circle cx="1052.76" cy="226.73" r="3.2" fill="#1d4ed8"/>
<circle cx="1054.88" cy="226.73" r="3.2" fill="#1d4ed8"/>
<circle cx="1057.00" cy="225.11" r="3.2" fill="#1d4ed8"/>
<circle cx="1059.12" cy="224.71" r="3.2" fill="#1d4ed8"/>
<circle cx="1061.25" cy="225.11" r="3.2" fill="#1d4ed8"/>
<circle cx="1063.37" cy="224.30" r="3.2" fill="#1d4ed8"/>
<circle cx="1065.49" cy="226.32" r="3.2" fill="#1d4ed8"/>
<circle cx="1067.61" cy="224.30" r="3.2" fill="#1d4ed8"/>
<circle cx="1069.73" cy="225.51" r="3.2" fill="#1d4ed8"/>
<circle cx="1071.85" cy="225.51" r="3.2" fill="#1d4ed8"/>
<circle cx="1073.97" cy="225.51" r="3.2" fill="#1d4ed8"/>
<circle cx="1076.09" cy="225.92" r="3.2" fill="#1d4ed8"/>
<circle cx="1078.21" cy="223.09" r="3.2" fill="#1d4ed8"/>
<circle cx="1080.33" cy="223.49" r="3.2" fill="#1d4ed8"/>
<circle cx="1082.45" cy="223.09" r="3.2" fill="#1d4ed8"/>
<circle cx="1084.57" cy="223.09" r="3.2" fill="#1d4ed8"/>
<circle cx="1086.69" cy="223.90" r="3.2" fill="#1d4ed8"/>
<circle cx="1088.81" cy="223.49" r="3.2" fill="#1d4ed8"/>
<circle cx="1090.93" cy="223.49" r="3.2" fill="#1d4ed8"/>
<circle cx="1093.05" cy="223.09" r="3.2" fill="#1d4ed8"/>
<circle cx="1095.18" cy="223.09" r="3.2" fill="#1d4ed8"/>
<circle cx="1097.30" cy="223.49" r="3.2" fill="#1d4ed8"/>
<circle cx="1099.42" cy="223.09" r="3.2" fill="#1d4ed8"/>
<circle cx="1101.54" cy="223.09" r="3.2" fill="#1d4ed8"/>
<circle cx="1103.66" cy="223.49" r="3.2" fill="#1d4ed8"/>
<circle cx="1105.78" cy="223.49" r="3.2" fill="#1d4ed8"/>
<circle cx="1107.90" cy="223.09" r="3.2" fill="#1d4ed8"/>
<circle cx="1110.02" cy="223.09" r="3.2" fill="#1d4ed8"/>
<circle cx="1112.14" cy="223.49" r="3.2" fill="#1d4ed8"/>
<circle cx="1114.26" cy="223.09" r="3.2" fill="#1d4ed8"/>
<circle cx="1116.38" cy="223.09" r="3.2" fill="#1d4ed8"/>
<circle cx="1118.50" cy="223.09" r="3.2" fill="#1d4ed8"/>
<circle cx="1120.62" cy="223.49" r="3.2" fill="#1d4ed8"/>
<circle cx="1122.74" cy="223.49" r="3.2" fill="#1d4ed8"/>
<circle cx="1124.86" cy="223.49" r="3.2" fill="#1d4ed8"/>
<circle cx="1126.98" cy="223.09" r="3.2" fill="#1d4ed8"/>
<circle cx="1129.11" cy="223.49" r="3.2" fill="#1d4ed8"/>
<circle cx="1131.23" cy="223.09" r="3.2" fill="#1d4ed8"/>
<circle cx="1133.35" cy="223.09" r="3.2" fill="#1d4ed8"/>
<circle cx="1135.47" cy="223.49" r="3.2" fill="#1d4ed8"/>
<circle cx="1137.59" cy="223.09" r="3.2" fill="#1d4ed8"/>
<circle cx="1139.71" cy="223.09" r="3.2" fill="#1d4ed8"/>
<circle cx="1141.83" cy="223.49" r="3.2" fill="#1d4ed8"/>
<circle cx="1143.95" cy="222.68" r="3.2" fill="#1d4ed8"/>
<circle cx="1146.07" cy="221.88" r="3.2" fill="#1d4ed8"/>
<circle cx="1148.19" cy="223.49" r="3.2" fill="#1d4ed8"/>
<circle cx="1150.31" cy="223.09" r="3.2" fill="#1d4ed8"/>
<circle cx="1152.43" cy="223.49" r="3.2" fill="#1d4ed8"/>
<circle cx="1154.55" cy="224.30" r="3.2" fill="#1d4ed8"/>
<circle cx="1156.67" cy="201.65" r="3.2" fill="#1d4ed8"/>
<circle cx="1158.79" cy="201.65" r="3.2" fill="#1d4ed8"/>
<circle cx="1160.91" cy="186.69" r="3.2" fill="#1d4ed8"/>
<circle cx="1163.04" cy="176.18" r="3.2" fill="#1d4ed8"/>
<circle cx="1165.16" cy="174.15" r="3.2" fill="#1d4ed8"/>
<circle cx="1167.28" cy="172.94" r="3.2" fill="#1d4ed8"/>
<circle cx="1169.40" cy="172.94" r="3.2" fill="#1d4ed8"/>
<circle cx="1171.52" cy="162.02" r="3.2" fill="#1d4ed8"/>
<circle cx="1173.64" cy="161.21" r="3.2" fill="#1d4ed8"/>
<circle cx="1175.76" cy="148.27" r="3.2" fill="#1d4ed8"/>
<circle cx="1177.88" cy="155.96" r="3.2" fill="#1d4ed8"/>
<circle cx="1180.00" cy="147.06" r="3.2" fill="#1d4ed8"/>
<text x="635" y="695" text-anchor="middle" font-size="14" fill="#111" font-family="sans-serif">Date</text>
<text x="24" y="325" text-anchor="middle" font-size="14" fill="#111" transform="rotate(-90 24,325)" font-family="sans-serif">Passed files</text>
</svg>
