<?xml version="1.0" encoding="UTF-8"?>
<svg xmlns="http://www.w3.org/2000/svg" width="1280" height="720" viewBox="0 0 1280 720">
<rect width="100%" height="100%" fill="#ffffff"/>
<text x="640" y="30" text-anchor="middle" font-size="22" font-family="sans-serif">Roast passed files history</text>
<line x1="90" y1="600" x2="1180" y2="600" stroke="#333" stroke-width="1.5"/>
<line x1="90" y1="50" x2="90" y2="600" stroke="#333" stroke-width="1.5"/>
<line x1="90" y1="600.00" x2="1180" y2="600.00" stroke="#e5e7eb" stroke-width="1"/>
<text x="78" y="605.00" text-anchor="end" font-size="12" fill="#111" font-family="sans-serif">0</text>
<line x1="90" y1="398.09" x2="1180" y2="398.09" stroke="#e5e7eb" stroke-width="1"/>
<text x="78" y="403.09" text-anchor="end" font-size="12" fill="#111" font-family="sans-serif">500</text>
<line x1="90" y1="196.18" x2="1180" y2="196.18" stroke="#e5e7eb" stroke-width="1"/>
<text x="78" y="201.18" text-anchor="end" font-size="12" fill="#111" font-family="sans-serif">1000</text>
<line x1="90.00" y1="600" x2="90.00" y2="606" stroke="#333" stroke-width="1"/>
<text x="90.00" y="624" text-anchor="end" font-size="11" fill="#111" transform="rotate(-40 90.00,624)" font-family="sans-serif">2026-02-12</text>
<line x1="227.07" y1="600" x2="227.07" y2="606" stroke="#333" stroke-width="1"/>
<text x="227.07" y="624" text-anchor="end" font-size="11" fill="#111" transform="rotate(-40 227.07,624)" font-family="sans-serif">2026-02-15</text>
<line x1="364.13" y1="600" x2="364.13" y2="606" stroke="#333" stroke-width="1"/>
<text x="364.13" y="624" text-anchor="end" font-size="11" fill="#111" transform="rotate(-40 364.13,624)" font-family="sans-serif">2026-02-17</text>
<line x1="501.20" y1="600" x2="501.20" y2="606" stroke="#333" stroke-width="1"/>
<text x="501.20" y="624" text-anchor="end" font-size="11" fill="#111" transform="rotate(-40 501.20,624)" font-family="sans-serif">2026-02-19</text>
<line x1="638.26" y1="600" x2="638.26" y2="606" stroke="#333" stroke-width="1"/>
<text x="638.26" y="624" text-anchor="end" font-size="11" fill="#111" transform="rotate(-40 638.26,624)" font-family="sans-serif">2026-02-21</text>
<line x1="775.33" y1="600" x2="775.33" y2="606" stroke="#333" stroke-width="1"/>
<text x="775.33" y="624" text-anchor="end" font-size="11" fill="#111" transform="rotate(-40 775.33,624)" font-family="sans-serif">2026-02-23</text>
<line x1="912.40" y1="600" x2="912.40" y2="606" stroke="#333" stroke-width="1"/>
<text x="912.40" y="624" text-anchor="end" font-size="11" fill="#111" transform="rotate(-40 912.40,624)" font-family="sans-serif">2026-02-25</text>
<line x1="1049.46" y1="600" x2="1049.46" y2="606" stroke="#333" stroke-width="1"/>
<text x="1049.46" y="624" text-anchor="end" font-size="11" fill="#111" transform="rotate(-40 1049.46,624)" font-family="sans-serif">2026-02-26</text>
<line x1="1180.00" y1="600" x2="1180.00" y2="606" stroke="#333" stroke-width="1"/>
<text x="1180.00" y="624" text-anchor="end" font-size="11" fill="#111" transform="rotate(-40 1180.00,624)" font-family="sans-serif">2026-02-27</text>
<line x1="90" y1="75.84" x2="1180" y2="75.84" stroke="#dc2626" stroke-width="1.5" stroke-dasharray="8,4"/>
<text x="1184" y="79.84" font-size="12" fill="#dc2626" font-family="sans-serif">Goal: 1298</text>
<polyline fill="none" stroke="#2563eb" stroke-width="3" points="90.00,540.64 96.53,538.62 103.05,537.00 109.58,534.58 116.11,534.58 122.63,533.37 129.16,532.56 135.69,532.97 142.22,532.16 148.74,532.56 155.27,532.16 161.80,568.50 168.32,568.50 174.85,566.48 181.38,545.08 187.90,545.08 194.43,544.27 200.96,543.87 207.49,543.87 214.01,543.47 220.54,541.85 227.07,541.45 233.59,541.04 240.12,541.04 246.65,539.43 253.17,539.43 259.70,556.79 266.23,556.79 272.75,555.58 279.28,551.14 285.81,539.02 292.34,539.02 298.86,539.02 305.39,538.22 311.92,537.00 318.44,537.00 324.97,536.60 331.50,536.60 338.02,556.79 344.55,556.79 351.08,556.79 357.60,556.79 364.13,535.39 370.66,535.39 377.19,535.39 383.71,535.39 390.24,534.58 396.77,534.18 403.29,533.77 409.82,532.97 416.35,532.16 422.87,532.16 429.40,531.35 435.93,530.95 442.46,530.54 448.98,530.14 455.51,530.14 462.04,529.33 468.56,529.33 475.09,529.33 481.62,528.52 488.14,528.52 494.67,527.72 501.20,527.31 507.72,526.91 514.25,526.51 520.78,525.29 527.31,523.68 533.83,523.68 540.36,523.27 546.89,522.87 553.41,522.47 559.94,521.66 566.47,519.64 572.99,517.62 579.52,517.62 586.05,517.62 592.57,517.62 599.10,517.62 605.63,517.62 612.16,517.22 618.68,516.81 625.21,515.60 631.74,515.20 638.26,514.79 644.79,513.99 651.32,514.39 657.84,512.37 664.37,511.97 670.90,511.97 677.43,511.16 683.95,509.95 690.48,507.93 697.01,507.12 703.53,506.72 710.06,509.54 716.59,509.14 723.11,505.10 729.64,504.70 736.17,504.30 742.69,504.70 749.22,503.89 755.75,503.89 762.28,503.49 768.80,499.45 775.33,496.62 781.86,490.16 788.38,484.51 794.91,481.28 801.44,480.47 807.96,480.87 814.49,461.09 821.02,459.47 827.54,458.26 834.07,456.24 840.60,456.24 847.13,454.63 853.65,450.99 860.18,444.53 866.71,444.13 873.23,600.00 879.76,442.11 886.29,440.90 892.81,439.68 899.34,439.28 905.87,438.88 912.40,438.07 918.92,436.86 925.45,436.86 931.98,434.84 938.50,432.42 945.03,429.59 951.56,429.19 958.08,428.78 964.61,427.97 971.14,427.17 977.66,426.36 984.19,426.36 990.72,426.36 997.25,419.90 1003.77,419.49 1010.30,418.69 1016.83,418.28 1023.35,417.88 1029.88,417.88 1036.41,417.88 1042.93,417.47 1049.46,417.47 1055.99,413.84 1062.51,412.22 1069.04,413.03 1075.57,411.01 1082.10,411.01 1088.62,410.61 1095.15,410.61 1101.68,410.61 1108.20,410.21 1114.73,410.21 1121.26,410.21 1127.78,409.80 1134.31,409.80 1140.84,409.40 1147.37,409.80 1153.89,409.40 1160.42,407.78 1166.95,407.38 1173.47,403.34 1180.00,400.11"/>
<circle cx="90.00" cy="540.64" r="3.2" fill="#1d4ed8"/>
<circle cx="96.53" cy="538.62" r="3.2" fill="#1d4ed8"/>
<circle cx="103.05" cy="537.00" r="3.2" fill="#1d4ed8"/>
<circle cx="109.58" cy="534.58" r="3.2" fill="#1d4ed8"/>
<circle cx="116.11" cy="534.58" r="3.2" fill="#1d4ed8"/>
<circle cx="122.63" cy="533.37" r="3.2" fill="#1d4ed8"/>
<circle cx="129.16" cy="532.56" r="3.2" fill="#1d4ed8"/>
<circle cx="135.69" cy="532.97" r="3.2" fill="#1d4ed8"/>
<circle cx="142.22" cy="532.16" r="3.2" fill="#1d4ed8"/>
<circle cx="148.74" cy="532.56" r="3.2" fill="#1d4ed8"/>
<circle cx="155.27" cy="532.16" r="3.2" fill="#1d4ed8"/>
<circle cx="161.80" cy="568.50" r="3.2" fill="#1d4ed8"/>
<circle cx="168.32" cy="568.50" r="3.2" fill="#1d4ed8"/>
<circle cx="174.85" cy="566.48" r="3.2" fill="#1d4ed8"/>
<circle cx="181.38" cy="545.08" r="3.2" fill="#1d4ed8"/>
<circle cx="187.90" cy="545.08" r="3.2" fill="#1d4ed8"/>
<circle cx="194.43" cy="544.27" r="3.2" fill="#1d4ed8"/>
<circle cx="200.96" cy="543.87" r="3.2" fill="#1d4ed8"/>
<circle cx="207.49" cy="543.87" r="3.2" fill="#1d4ed8"/>
<circle cx="214.01" cy="543.47" r="3.2" fill="#1d4ed8"/>
<circle cx="220.54" cy="541.85" r="3.2" fill="#1d4ed8"/>
<circle cx="227.07" cy="541.45" r="3.2" fill="#1d4ed8"/>
<circle cx="233.59" cy="541.04" r="3.2" fill="#1d4ed8"/>
<circle cx="240.12" cy="541.04" r="3.2" fill="#1d4ed8"/>
<circle cx="246.65" cy="539.43" r="3.2" fill="#1d4ed8"/>
<circle cx="253.17" cy="539.43" r="3.2" fill="#1d4ed8"/>
<circle cx="259.70" cy="556.79" r="3.2" fill="#1d4ed8"/>
<circle cx="266.23" cy="556.79" r="3.2" fill="#1d4ed8"/>
<circle cx="272.75" cy="555.58" r="3.2" fill="#1d4ed8"/>
<circle cx="279.28" cy="551.14" r="3.2" fill="#1d4ed8"/>
<circle cx="285.81" cy="539.02" r="3.2" fill="#1d4ed8"/>
<circle cx="292.34" cy="539.02" r="3.2" fill="#1d4ed8"/>
<circle cx="298.86" cy="539.02" r="3.2" fill="#1d4ed8"/>
<circle cx="305.39" cy="538.22" r="3.2" fill="#1d4ed8"/>
<circle cx="311.92" cy="537.00" r="3.2" fill="#1d4ed8"/>
<circle cx="318.44" cy="537.00" r="3.2" fill="#1d4ed8"/>
<circle cx="324.97" cy="536.60" r="3.2" fill="#1d4ed8"/>
<circle cx="331.50" cy="536.60" r="3.2" fill="#1d4ed8"/>
<circle cx="338.02" cy="556.79" r="3.2" fill="#1d4ed8"/>
<circle cx="344.55" cy="556.79" r="3.2" fill="#1d4ed8"/>
<circle cx="351.08" cy="556.79" r="3.2" fill="#1d4ed8"/>
<circle cx="357.60" cy="556.79" r="3.2" fill="#1d4ed8"/>
<circle cx="364.13" cy="535.39" r="3.2" fill="#1d4ed8"/>
<circle cx="370.66" cy="535.39" r="3.2" fill="#1d4ed8"/>
<circle cx="377.19" cy="535.39" r="3.2" fill="#1d4ed8"/>
<circle cx="383.71" cy="535.39" r="3.2" fill="#1d4ed8"/>
<circle cx="390.24" cy="534.58" r="3.2" fill="#1d4ed8"/>
<circle cx="396.77" cy="534.18" r="3.2" fill="#1d4ed8"/>
<circle cx="403.29" cy="533.77" r="3.2" fill="#1d4ed8"/>
<circle cx="409.82" cy="532.97" r="3.2" fill="#1d4ed8"/>
<circle cx="416.35" cy="532.16" r="3.2" fill="#1d4ed8"/>
<circle cx="422.87" cy="532.16" r="3.2" fill="#1d4ed8"/>
<circle cx="429.40" cy="531.35" r="3.2" fill="#1d4ed8"/>
<circle cx="435.93" cy="530.95" r="3.2" fill="#1d4ed8"/>
<circle cx="442.46" cy="530.54" r="3.2" fill="#1d4ed8"/>
<circle cx="448.98" cy="530.14" r="3.2" fill="#1d4ed8"/>
<circle cx="455.51" cy="530.14" r="3.2" fill="#1d4ed8"/>
<circle cx="462.04" cy="529.33" r="3.2" fill="#1d4ed8"/>
<circle cx="468.56" cy="529.33" r="3.2" fill="#1d4ed8"/>
<circle cx="475.09" cy="529.33" r="3.2" fill="#1d4ed8"/>
<circle cx="481.62" cy="528.52" r="3.2" fill="#1d4ed8"/>
<circle cx="488.14" cy="528.52" r="3.2" fill="#1d4ed8"/>
<circle cx="494.67" cy="527.72" r="3.2" fill="#1d4ed8"/>
<circle cx="501.20" cy="527.31" r="3.2" fill="#1d4ed8"/>
<circle cx="507.72" cy="526.91" r="3.2" fill="#1d4ed8"/>
<circle cx="514.25" cy="526.51" r="3.2" fill="#1d4ed8"/>
<circle cx="520.78" cy="525.29" r="3.2" fill="#1d4ed8"/>
<circle cx="527.31" cy="523.68" r="3.2" fill="#1d4ed8"/>
<circle cx="533.83" cy="523.68" r="3.2" fill="#1d4ed8"/>
<circle cx="540.36" cy="523.27" r="3.2" fill="#1d4ed8"/>
<circle cx="546.89" cy="522.87" r="3.2" fill="#1d4ed8"/>
<circle cx="553.41" cy="522.47" r="3.2" fill="#1d4ed8"/>
<circle cx="559.94" cy="521.66" r="3.2" fill="#1d4ed8"/>
<circle cx="566.47" cy="519.64" r="3.2" fill="#1d4ed8"/>
<circle cx="572.99" cy="517.62" r="3.2" fill="#1d4ed8"/>
<circle cx="579.52" cy="517.62" r="3.2" fill="#1d4ed8"/>
<circle cx="586.05" cy="517.62" r="3.2" fill="#1d4ed8"/>
<circle cx="592.57" cy="517.62" r="3.2" fill="#1d4ed8"/>
<circle cx="599.10" cy="517.62" r="3.2" fill="#1d4ed8"/>
<circle cx="605.63" cy="517.62" r="3.2" fill="#1d4ed8"/>
<circle cx="612.16" cy="517.22" r="3.2" fill="#1d4ed8"/>
<circle cx="618.68" cy="516.81" r="3.2" fill="#1d4ed8"/>
<circle cx="625.21" cy="515.60" r="3.2" fill="#1d4ed8"/>
<circle cx="631.74" cy="515.20" r="3.2" fill="#1d4ed8"/>
<circle cx="638.26" cy="514.79" r="3.2" fill="#1d4ed8"/>
<circle cx="644.79" cy="513.99" r="3.2" fill="#1d4ed8"/>
<circle cx="651.32" cy="514.39" r="3.2" fill="#1d4ed8"/>
<circle cx="657.84" cy="512.37" r="3.2" fill="#1d4ed8"/>
<circle cx="664.37" cy="511.97" r="3.2" fill="#1d4ed8"/>
<circle cx="670.90" cy="511.97" r="3.2" fill="#1d4ed8"/>
<circle cx="677.43" cy="511.16" r="3.2" fill="#1d4ed8"/>
<circle cx="683.95" cy="509.95" r="3.2" fill="#1d4ed8"/>
<circle cx="690.48" cy="507.93" r="3.2" fill="#1d4ed8"/>
<circle cx="697.01" cy="507.12" r="3.2" fill="#1d4ed8"/>
<circle cx="703.53" cy="506.72" r="3.2" fill="#1d4ed8"/>
<circle cx="710.06" cy="509.54" r="3.2" fill="#1d4ed8"/>
<circle cx="716.59" cy="509.14" r="3.2" fill="#1d4ed8"/>
<circle cx="723.11" cy="505.10" r="3.2" fill="#1d4ed8"/>
<circle cx="729.64" cy="504.70" r="3.2" fill="#1d4ed8"/>
<circle cx="736.17" cy="504.30" r="3.2" fill="#1d4ed8"/>
<circle cx="742.69" cy="504.70" r="3.2" fill="#1d4ed8"/>
<circle cx="749.22" cy="503.89" r="3.2" fill="#1d4ed8"/>
<circle cx="755.75" cy="503.89" r="3.2" fill="#1d4ed8"/>
<circle cx="762.28" cy="503.49" r="3.2" fill="#1d4ed8"/>
<circle cx="768.80" cy="499.45" r="3.2" fill="#1d4ed8"/>
<circle cx="775.33" cy="496.62" r="3.2" fill="#1d4ed8"/>
<circle cx="781.86" cy="490.16" r="3.2" fill="#1d4ed8"/>
<circle cx="788.38" cy="484.51" r="3.2" fill="#1d4ed8"/>
<circle cx="794.91" cy="481.28" r="3.2" fill="#1d4ed8"/>
<circle cx="801.44" cy="480.47" r="3.2" fill="#1d4ed8"/>
<circle cx="807.96" cy="480.87" r="3.2" fill="#1d4ed8"/>
<circle cx="814.49" cy="461.09" r="3.2" fill="#1d4ed8"/>
<circle cx="821.02" cy="459.47" r="3.2" fill="#1d4ed8"/>
<circle cx="827.54" cy="458.26" r="3.2" fill="#1d4ed8"/>
<circle cx="834.07" cy="456.24" r="3.2" fill="#1d4ed8"/>
<circle cx="840.60" cy="456.24" r="3.2" fill="#1d4ed8"/>
<circle cx="847.13" cy="454.63" r="3.2" fill="#1d4ed8"/>
<circle cx="853.65" cy="450.99" r="3.2" fill="#1d4ed8"/>
<circle cx="860.18" cy="444.53" r="3.2" fill="#1d4ed8"/>
<circle cx="866.71" cy="444.13" r="3.2" fill="#1d4ed8"/>
<circle cx="873.23" cy="600.00" r="3.2" fill="#1d4ed8"/>
<circle cx="879.76" cy="442.11" r="3.2" fill="#1d4ed8"/>
<circle cx="886.29" cy="440.90" r="3.2" fill="#1d4ed8"/>
<circle cx="892.81" cy="439.68" r="3.2" fill="#1d4ed8"/>
<circle cx="899.34" cy="439.28" r="3.2" fill="#1d4ed8"/>
<circle cx="905.87" cy="438.88" r="3.2" fill="#1d4ed8"/>
<circle cx="912.40" cy="438.07" r="3.2" fill="#1d4ed8"/>
<circle cx="918.92" cy="436.86" r="3.2" fill="#1d4ed8"/>
<circle cx="925.45" cy="436.86" r="3.2" fill="#1d4ed8"/>
<circle cx="931.98" cy="434.84" r="3.2" fill="#1d4ed8"/>
<circle cx="938.50" cy="432.42" r="3.2" fill="#1d4ed8"/>
<circle cx="945.03" cy="429.59" r="3.2" fill="#1d4ed8"/>
<circle cx="951.56" cy="429.19" r="3.2" fill="#1d4ed8"/>
<circle cx="958.08" cy="428.78" r="3.2" fill="#1d4ed8"/>
<circle cx="964.61" cy="427.97" r="3.2" fill="#1d4ed8"/>
<circle cx="971.14" cy="427.17" r="3.2" fill="#1d4ed8"/>
<circle cx="977.66" cy="426.36" r="3.2" fill="#1d4ed8"/>
<circle cx="984.19" cy="426.36" r="3.2" fill="#1d4ed8"/>
<circle cx="990.72" cy="426.36" r="3.2" fill="#1d4ed8"/>
<circle cx="997.25" cy="419.90" r="3.2" fill="#1d4ed8"/>
<circle cx="1003.77" cy="419.49" r="3.2" fill="#1d4ed8"/>
<circle cx="1010.30" cy="418.69" r="3.2" fill="#1d4ed8"/>
<circle cx="1016.83" cy="418.28" r="3.2" fill="#1d4ed8"/>
<circle cx="1023.35" cy="417.88" r="3.2" fill="#1d4ed8"/>
<circle cx="1029.88" cy="417.88" r="3.2" fill="#1d4ed8"/>
<circle cx="1036.41" cy="417.88" r="3.2" fill="#1d4ed8"/>
<circle cx="1042.93" cy="417.47" r="3.2" fill="#1d4ed8"/>
<circle cx="1049.46" cy="417.47" r="3.2" fill="#1d4ed8"/>
<circle cx="1055.99" cy="413.84" r="3.2" fill="#1d4ed8"/>
<circle cx="1062.51" cy="412.22" r="3.2" fill="#1d4ed8"/>
<circle cx="1069.04" cy="413.03" r="3.2" fill="#1d4ed8"/>
<circle cx="1075.57" cy="411.01" r="3.2" fill="#1d4ed8"/>
<circle cx="1082.10" cy="411.01" r="3.2" fill="#1d4ed8"/>
<circle cx="1088.62" cy="410.61" r="3.2" fill="#1d4ed8"/>
<circle cx="1095.15" cy="410.61" r="3.2" fill="#1d4ed8"/>
<circle cx="1101.68" cy="410.61" r="3.2" fill="#1d4ed8"/>
<circle cx="1108.20" cy="410.21" r="3.2" fill="#1d4ed8"/>
<circle cx="1114.73" cy="410.21" r="3.2" fill="#1d4ed8"/>
<circle cx="1121.26" cy="410.21" r="3.2" fill="#1d4ed8"/>
<circle cx="1127.78" cy="409.80" r="3.2" fill="#1d4ed8"/>
<circle cx="1134.31" cy="409.80" r="3.2" fill="#1d4ed8"/>
<circle cx="1140.84" cy="409.40" r="3.2" fill="#1d4ed8"/>
<circle cx="1147.37" cy="409.80" r="3.2" fill="#1d4ed8"/>
<circle cx="1153.89" cy="409.40" r="3.2" fill="#1d4ed8"/>
<circle cx="1160.42" cy="407.78" r="3.2" fill="#1d4ed8"/>
<circle cx="1166.95" cy="407.38" r="3.2" fill="#1d4ed8"/>
<circle cx="1173.47" cy="403.34" r="3.2" fill="#1d4ed8"/>
<circle cx="1180.00" cy="400.11" r="3.2" fill="#1d4ed8"/>
<text x="635" y="695" text-anchor="middle" font-size="14" fill="#111" font-family="sans-serif">Date</text>
<text x="24" y="325" text-anchor="middle" font-size="14" fill="#111" transform="rotate(-90 24,325)" font-family="sans-serif">Passed files</text>
</svg>
