<?xml version="1.0" encoding="UTF-8"?>
<svg xmlns="http://www.w3.org/2000/svg" width="1280" height="720" viewBox="0 0 1280 720">
<rect width="100%" height="100%" fill="#ffffff"/>
<text x="640" y="30" text-anchor="middle" font-size="22" font-family="sans-serif">Roast passed files history</text>
<line x1="90" y1="600" x2="1180" y2="600" stroke="#333" stroke-width="1.5"/>
<line x1="90" y1="50" x2="90" y2="600" stroke="#333" stroke-width="1.5"/>
<line x1="90" y1="600.00" x2="1180" y2="600.00" stroke="#e5e7eb" stroke-width="1"/>
<text x="78" y="605.00" text-anchor="end" font-size="12" fill="#111" font-family="sans-serif">0</text>
<line x1="90" y1="397.79" x2="1180" y2="397.79" stroke="#e5e7eb" stroke-width="1"/>
<text x="78" y="402.79" text-anchor="end" font-size="12" fill="#111" font-family="sans-serif">500</text>
<line x1="90" y1="195.59" x2="1180" y2="195.59" stroke="#e5e7eb" stroke-width="1"/>
<text x="78" y="200.59" text-anchor="end" font-size="12" fill="#111" font-family="sans-serif">1000</text>
<line x1="90.00" y1="600" x2="90.00" y2="606" stroke="#333" stroke-width="1"/>
<text x="90.00" y="624" text-anchor="end" font-size="11" fill="#111" transform="rotate(-40 90.00,624)" font-family="sans-serif">2026-02-12</text>
<line x1="226.25" y1="600" x2="226.25" y2="606" stroke="#333" stroke-width="1"/>
<text x="226.25" y="624" text-anchor="end" font-size="11" fill="#111" transform="rotate(-40 226.25,624)" font-family="sans-serif">2026-02-18</text>
<line x1="362.50" y1="600" x2="362.50" y2="606" stroke="#333" stroke-width="1"/>
<text x="362.50" y="624" text-anchor="end" font-size="11" fill="#111" transform="rotate(-40 362.50,624)" font-family="sans-serif">2026-02-25</text>
<line x1="498.75" y1="600" x2="498.75" y2="606" stroke="#333" stroke-width="1"/>
<text x="498.75" y="624" text-anchor="end" font-size="11" fill="#111" transform="rotate(-40 498.75,624)" font-family="sans-serif">2026-02-28</text>
<line x1="635.00" y1="600" x2="635.00" y2="606" stroke="#333" stroke-width="1"/>
<text x="635.00" y="624" text-anchor="end" font-size="11" fill="#111" transform="rotate(-40 635.00,624)" font-family="sans-serif">2026-03-06</text>
<line x1="771.25" y1="600" x2="771.25" y2="606" stroke="#333" stroke-width="1"/>
<text x="771.25" y="624" text-anchor="end" font-size="11" fill="#111" transform="rotate(-40 771.25,624)" font-family="sans-serif">2026-03-07</text>
<line x1="907.50" y1="600" x2="907.50" y2="606" stroke="#333" stroke-width="1"/>
<text x="907.50" y="624" text-anchor="end" font-size="11" fill="#111" transform="rotate(-40 907.50,624)" font-family="sans-serif">2026-03-18</text>
<line x1="1043.75" y1="600" x2="1043.75" y2="606" stroke="#333" stroke-width="1"/>
<text x="1043.75" y="624" text-anchor="end" font-size="11" fill="#111" transform="rotate(-40 1043.75,624)" font-family="sans-serif">2026-03-19</text>
<line x1="1180.00" y1="600" x2="1180.00" y2="606" stroke="#333" stroke-width="1"/>
<text x="1180.00" y="624" text-anchor="end" font-size="11" fill="#111" transform="rotate(-40 1180.00,624)" font-family="sans-serif">2026-03-30</text>
<line x1="90" y1="75.88" x2="1180" y2="75.88" stroke="#dc2626" stroke-width="1.5" stroke-dasharray="8,4"/>
<text x="1184" y="79.88" font-size="12" fill="#dc2626" font-family="sans-serif">Goal: 1296</text>
<polyline fill="none" stroke="#2563eb" stroke-width="3" points="90.00,540.55 92.35,538.53 94.70,536.91 97.05,534.49 99.40,534.49 101.75,533.27 104.09,532.46 106.44,532.87 108.79,532.06 111.14,532.46 113.49,532.06 115.84,568.46 118.19,568.46 120.54,566.43 122.89,545.00 125.24,545.00 127.59,544.19 129.94,543.79 132.28,543.79 134.63,543.38 136.98,541.76 139.33,541.36 141.68,540.96 144.03,540.96 146.38,539.34 148.73,539.34 151.08,556.73 153.43,556.73 155.78,555.51 158.12,551.07 160.47,538.93 162.82,538.93 165.17,538.93 167.52,538.12 169.87,536.91 172.22,536.91 174.57,536.51 176.92,536.51 179.27,556.73 181.62,556.73 183.97,556.73 186.31,556.73 188.66,535.29 191.01,535.29 193.36,535.29 195.71,535.29 198.06,534.49 200.41,534.08 202.76,533.68 205.11,532.87 207.46,532.06 209.81,532.06 212.16,531.25 214.50,530.85 216.85,530.44 219.20,530.04 221.55,530.04 223.90,529.23 226.25,529.23 228.60,529.23 230.95,528.42 233.30,528.42 235.65,527.61 238.00,527.21 240.34,526.80 242.69,526.40 245.04,525.18 247.39,523.57 249.74,523.57 252.09,523.16 254.44,522.76 256.79,522.35 259.14,521.54 261.49,519.52 263.84,517.50 266.19,517.50 268.53,517.50 270.88,517.50 273.23,517.50 275.58,517.50 277.93,517.10 280.28,516.69 282.63,515.48 284.98,515.07 287.33,514.67 289.68,513.86 292.03,514.26 294.38,512.24 296.72,511.84 299.07,511.84 301.42,511.03 303.77,509.82 306.12,507.79 308.47,506.99 310.82,506.58 313.17,509.41 315.52,509.01 317.87,504.96 320.22,504.56 322.56,504.15 324.91,504.56 327.26,503.75 329.61,503.75 331.96,503.35 334.31,499.30 336.66,496.47 339.01,490.00 341.36,484.34 343.71,481.10 346.06,480.29 348.41,480.70 350.75,460.88 353.10,459.26 355.45,458.05 357.80,456.03 360.15,456.03 362.50,454.41 364.85,450.77 367.20,444.30 369.55,443.90 371.90,600.00 374.25,441.88 376.59,440.66 378.94,439.45 381.29,439.04 383.64,438.64 385.99,437.83 388.34,436.62 390.69,436.62 393.04,434.60 395.39,432.17 397.74,429.34 400.09,428.93 402.44,428.53 404.78,427.72 407.13,426.91 409.48,426.10 411.83,426.10 414.18,426.10 416.53,419.63 418.88,419.23 421.23,418.42 423.58,418.01 425.93,417.61 428.28,417.61 430.62,417.61 432.97,417.21 435.32,417.21 437.67,413.57 440.02,411.95 442.37,412.76 444.72,410.74 447.07,410.74 449.42,410.33 451.77,410.33 454.12,410.33 456.47,409.93 458.81,409.93 461.16,409.93 463.51,409.52 465.86,409.52 468.21,409.12 470.56,409.52 472.91,409.12 475.26,407.50 477.61,407.10 479.96,403.05 482.31,399.82 484.66,400.22 487.00,400.62 489.35,400.62 491.70,399.41 494.05,392.94 496.40,391.32 498.75,389.30 501.10,389.30 503.45,388.49 505.80,375.15 508.15,374.74 510.50,374.74 512.84,374.74 515.19,374.74 517.54,374.34 519.89,374.34 522.24,374.34 524.59,374.34 526.94,374.34 529.29,373.93 531.64,373.12 533.99,372.72 536.34,373.53 538.69,435.81 541.03,372.32 543.38,372.72 545.73,371.91 548.08,371.91 550.43,372.32 552.78,371.10 555.13,369.89 557.48,369.89 559.83,369.89 562.18,369.49 564.53,369.89 566.88,369.08 569.22,368.68 571.57,368.27 573.92,367.87 576.27,367.06 578.62,367.46 580.97,367.06 583.32,366.25 585.67,368.27 588.02,368.68 590.37,368.68 592.72,368.27 595.06,369.08 597.41,367.87 599.76,367.46 602.11,367.06 604.46,360.18 606.81,359.78 609.16,359.38 611.51,356.95 613.86,357.35 616.21,357.76 618.56,355.33 620.91,355.74 623.25,357.35 625.60,355.33 627.95,356.14 630.30,355.74 632.65,356.14 635.00,354.12 637.35,354.93 639.70,356.14 642.05,354.52 644.40,353.71 646.75,354.12 649.09,354.93 651.44,352.90 653.79,353.71 656.14,353.31 658.49,353.31 660.84,354.52 663.19,352.90 665.54,352.50 667.89,352.50 670.24,353.31 672.59,352.50 674.94,353.71 677.28,354.12 679.63,352.50 681.98,352.90 684.33,352.50 686.68,352.10 689.03,351.69 691.38,352.10 693.73,354.12 696.08,352.50 698.43,352.10 700.78,352.10 703.12,349.67 705.47,349.67 707.82,350.88 710.17,351.29 712.52,350.48 714.87,352.10 717.22,350.48 719.57,350.48 721.92,350.48 724.27,350.07 726.62,348.46 728.97,351.29 731.31,349.67 733.66,351.29 736.01,349.67 738.36,348.86 740.71,348.46 743.06,348.46 745.41,347.24 747.76,348.86 750.11,346.84 752.46,348.46 754.81,348.86 757.16,346.84 759.50,349.26 761.85,348.05 764.20,349.26 766.55,349.26 768.90,350.48 771.25,352.90 773.60,349.67 775.95,348.46 778.30,345.62 780.65,344.82 783.00,344.41 785.34,342.39 787.69,341.18 790.04,341.58 792.39,339.15 794.74,338.35 797.09,337.54 799.44,336.73 801.79,335.92 804.14,337.54 806.49,338.35 808.84,337.54 811.19,337.54 813.53,337.54 815.88,333.09 818.23,333.90 820.58,335.92 822.93,336.73 825.28,335.51 827.63,332.28 829.98,331.47 832.33,331.07 834.68,331.47 837.03,331.07 839.38,331.07 841.72,331.07 844.07,331.07 846.42,331.07 848.77,331.07 851.12,331.07 853.47,331.07 855.82,331.07 858.17,331.07 860.52,331.47 862.87,331.88 865.22,331.07 867.56,331.47 869.91,331.07 872.26,331.47 874.61,331.07 876.96,324.19 879.31,324.19 881.66,318.93 884.01,316.51 886.36,310.44 888.71,308.01 891.06,600.00 893.41,301.54 895.75,290.22 898.10,287.79 900.45,286.18 902.80,285.77 905.15,285.77 907.50,285.77 909.85,286.18 912.20,285.77 914.55,285.77 916.90,285.77 919.25,283.35 921.59,282.94 923.94,282.94 926.29,283.35 928.64,282.94 930.99,282.94 933.34,283.75 935.69,282.13 938.04,282.13 940.39,282.54 942.74,282.13 945.09,282.54 947.44,282.94 949.78,281.73 952.13,282.54 954.48,281.73 956.83,282.54 959.18,282.13 961.53,282.13 963.88,281.73 966.23,281.73 968.58,281.32 970.93,281.73 973.28,282.13 975.62,281.32 977.97,281.32 980.32,282.54 982.67,282.13 985.02,281.32 987.37,281.32 989.72,281.32 992.07,282.54 994.42,282.13 996.77,281.32 999.12,282.13 1001.47,281.73 1003.81,282.13 1006.16,280.11 1008.51,280.11 1010.86,280.51 1013.21,279.71 1015.56,280.11 1017.91,280.51 1020.26,279.71 1022.61,280.11 1024.96,280.11 1027.31,279.30 1029.66,278.90 1032.00,278.90 1034.35,280.51 1036.70,279.30 1039.05,278.09 1041.40,278.49 1043.75,278.49 1046.10,277.28 1048.45,277.68 1050.80,277.68 1053.15,278.09 1055.50,277.28 1057.84,600.00 1060.19,278.90 1062.54,279.30 1064.89,278.90 1067.24,278.49 1069.59,278.49 1071.94,278.49 1074.29,278.49 1076.64,278.49 1078.99,278.49 1081.34,278.49 1083.69,278.49 1086.03,278.49 1088.38,278.49 1090.73,278.49 1093.08,278.49 1095.43,600.00 1097.78,600.00 1100.13,254.63 1102.48,600.00 1104.83,245.74 1107.18,245.74 1109.53,246.14 1111.88,245.74 1114.22,245.74 1116.57,245.74 1118.92,245.74 1121.27,245.74 1123.62,240.07 1125.97,238.05 1128.32,238.05 1130.67,227.13 1133.02,227.13 1135.37,226.32 1137.72,227.54 1140.06,226.73 1142.41,226.32 1144.76,227.13 1147.11,227.13 1149.46,226.73 1151.81,226.32 1154.16,226.73 1156.51,226.73 1158.86,226.73 1161.21,225.11 1163.56,224.71 1165.91,225.11 1168.25,224.30 1170.60,226.32 1172.95,224.30 1175.30,225.51 1177.65,225.51 1180.00,225.51"/>
<circle cx="90.00" cy="540.55" r="3.2" fill="#1d4ed8"/>
<circle cx="92.35" cy="538.53" r="3.2" fill="#1d4ed8"/>
<circle cx="94.70" cy="536.91" r="3.2" fill="#1d4ed8"/>
<circle cx="97.05" cy="534.49" r="3.2" fill="#1d4ed8"/>
<circle cx="99.40" cy="534.49" r="3.2" fill="#1d4ed8"/>
<circle cx="101.75" cy="533.27" r="3.2" fill="#1d4ed8"/>
<circle cx="104.09" cy="532.46" r="3.2" fill="#1d4ed8"/>
<circle cx="106.44" cy="532.87" r="3.2" fill="#1d4ed8"/>
<circle cx="108.79" cy="532.06" r="3.2" fill="#1d4ed8"/>
<circle cx="111.14" cy="532.46" r="3.2" fill="#1d4ed8"/>
<circle cx="113.49" cy="532.06" r="3.2" fill="#1d4ed8"/>
<circle cx="115.84" cy="568.46" r="3.2" fill="#1d4ed8"/>
<circle cx="118.19" cy="568.46" r="3.2" fill="#1d4ed8"/>
<circle cx="120.54" cy="566.43" r="3.2" fill="#1d4ed8"/>
<circle cx="122.89" cy="545.00" r="3.2" fill="#1d4ed8"/>
<circle cx="125.24" cy="545.00" r="3.2" fill="#1d4ed8"/>
<circle cx="127.59" cy="544.19" r="3.2" fill="#1d4ed8"/>
<circle cx="129.94" cy="543.79" r="3.2" fill="#1d4ed8"/>
<circle cx="132.28" cy="543.79" r="3.2" fill="#1d4ed8"/>
<circle cx="134.63" cy="543.38" r="3.2" fill="#1d4ed8"/>
<circle cx="136.98" cy="541.76" r="3.2" fill="#1d4ed8"/>
<circle cx="139.33" cy="541.36" r="3.2" fill="#1d4ed8"/>
<circle cx="141.68" cy="540.96" r="3.2" fill="#1d4ed8"/>
<circle cx="144.03" cy="540.96" r="3.2" fill="#1d4ed8"/>
<circle cx="146.38" cy="539.34" r="3.2" fill="#1d4ed8"/>
<circle cx="148.73" cy="539.34" r="3.2" fill="#1d4ed8"/>
<circle cx="151.08" cy="556.73" r="3.2" fill="#1d4ed8"/>
<circle cx="153.43" cy="556.73" r="3.2" fill="#1d4ed8"/>
<circle cx="155.78" cy="555.51" r="3.2" fill="#1d4ed8"/>
<circle cx="158.12" cy="551.07" r="3.2" fill="#1d4ed8"/>
<circle cx="160.47" cy="538.93" r="3.2" fill="#1d4ed8"/>
<circle cx="162.82" cy="538.93" r="3.2" fill="#1d4ed8"/>
<circle cx="165.17" cy="538.93" r="3.2" fill="#1d4ed8"/>
<circle cx="167.52" cy="538.12" r="3.2" fill="#1d4ed8"/>
<circle cx="169.87" cy="536.91" r="3.2" fill="#1d4ed8"/>
<circle cx="172.22" cy="536.91" r="3.2" fill="#1d4ed8"/>
<circle cx="174.57" cy="536.51" r="3.2" fill="#1d4ed8"/>
<circle cx="176.92" cy="536.51" r="3.2" fill="#1d4ed8"/>
<circle cx="179.27" cy="556.73" r="3.2" fill="#1d4ed8"/>
<circle cx="181.62" cy="556.73" r="3.2" fill="#1d4ed8"/>
<circle cx="183.97" cy="556.73" r="3.2" fill="#1d4ed8"/>
<circle cx="186.31" cy="556.73" r="3.2" fill="#1d4ed8"/>
<circle cx="188.66" cy="535.29" r="3.2" fill="#1d4ed8"/>
<circle cx="191.01" cy="535.29" r="3.2" fill="#1d4ed8"/>
<circle cx="193.36" cy="535.29" r="3.2" fill="#1d4ed8"/>
<circle cx="195.71" cy="535.29" r="3.2" fill="#1d4ed8"/>
<circle cx="198.06" cy="534.49" r="3.2" fill="#1d4ed8"/>
<circle cx="200.41" cy="534.08" r="3.2" fill="#1d4ed8"/>
<circle cx="202.76" cy="533.68" r="3.2" fill="#1d4ed8"/>
<circle cx="205.11" cy="532.87" r="3.2" fill="#1d4ed8"/>
<circle cx="207.46" cy="532.06" r="3.2" fill="#1d4ed8"/>
<circle cx="209.81" cy="532.06" r="3.2" fill="#1d4ed8"/>
<circle cx="212.16" cy="531.25" r="3.2" fill="#1d4ed8"/>
<circle cx="214.50" cy="530.85" r="3.2" fill="#1d4ed8"/>
<circle cx="216.85" cy="530.44" r="3.2" fill="#1d4ed8"/>
<circle cx="219.20" cy="530.04" r="3.2" fill="#1d4ed8"/>
<circle cx="221.55" cy="530.04" r="3.2" fill="#1d4ed8"/>
<circle cx="223.90" cy="529.23" r="3.2" fill="#1d4ed8"/>
<circle cx="226.25" cy="529.23" r="3.2" fill="#1d4ed8"/>
<circle cx="228.60" cy="529.23" r="3.2" fill="#1d4ed8"/>
<circle cx="230.95" cy="528.42" r="3.2" fill="#1d4ed8"/>
<circle cx="233.30" cy="528.42" r="3.2" fill="#1d4ed8"/>
<circle cx="235.65" cy="527.61" r="3.2" fill="#1d4ed8"/>
<circle cx="238.00" cy="527.21" r="3.2" fill="#1d4ed8"/>
<circle cx="240.34" cy="526.80" r="3.2" fill="#1d4ed8"/>
<circle cx="242.69" cy="526.40" r="3.2" fill="#1d4ed8"/>
<circle cx="245.04" cy="525.18" r="3.2" fill="#1d4ed8"/>
<circle cx="247.39" cy="523.57" r="3.2" fill="#1d4ed8"/>
<circle cx="249.74" cy="523.57" r="3.2" fill="#1d4ed8"/>
<circle cx="252.09" cy="523.16" r="3.2" fill="#1d4ed8"/>
<circle cx="254.44" cy="522.76" r="3.2" fill="#1d4ed8"/>
<circle cx="256.79" cy="522.35" r="3.2" fill="#1d4ed8"/>
<circle cx="259.14" cy="521.54" r="3.2" fill="#1d4ed8"/>
<circle cx="261.49" cy="519.52" r="3.2" fill="#1d4ed8"/>
<circle cx="263.84" cy="517.50" r="3.2" fill="#1d4ed8"/>
<circle cx="266.19" cy="517.50" r="3.2" fill="#1d4ed8"/>
<circle cx="268.53" cy="517.50" r="3.2" fill="#1d4ed8"/>
<circle cx="270.88" cy="517.50" r="3.2" fill="#1d4ed8"/>
<circle cx="273.23" cy="517.50" r="3.2" fill="#1d4ed8"/>
<circle cx="275.58" cy="517.50" r="3.2" fill="#1d4ed8"/>
<circle cx="277.93" cy="517.10" r="3.2" fill="#1d4ed8"/>
<circle cx="280.28" cy="516.69" r="3.2" fill="#1d4ed8"/>
<circle cx="282.63" cy="515.48" r="3.2" fill="#1d4ed8"/>
<circle cx="284.98" cy="515.07" r="3.2" fill="#1d4ed8"/>
<circle cx="287.33" cy="514.67" r="3.2" fill="#1d4ed8"/>
<circle cx="289.68" cy="513.86" r="3.2" fill="#1d4ed8"/>
<circle cx="292.03" cy="514.26" r="3.2" fill="#1d4ed8"/>
<circle cx="294.38" cy="512.24" r="3.2" fill="#1d4ed8"/>
<circle cx="296.72" cy="511.84" r="3.2" fill="#1d4ed8"/>
<circle cx="299.07" cy="511.84" r="3.2" fill="#1d4ed8"/>
<circle cx="301.42" cy="511.03" r="3.2" fill="#1d4ed8"/>
<circle cx="303.77" cy="509.82" r="3.2" fill="#1d4ed8"/>
<circle cx="306.12" cy="507.79" r="3.2" fill="#1d4ed8"/>
<circle cx="308.47" cy="506.99" r="3.2" fill="#1d4ed8"/>
<circle cx="310.82" cy="506.58" r="3.2" fill="#1d4ed8"/>
<circle cx="313.17" cy="509.41" r="3.2" fill="#1d4ed8"/>
<circle cx="315.52" cy="509.01" r="3.2" fill="#1d4ed8"/>
<circle cx="317.87" cy="504.96" r="3.2" fill="#1d4ed8"/>
<circle cx="320.22" cy="504.56" r="3.2" fill="#1d4ed8"/>
<circle cx="322.56" cy="504.15" r="3.2" fill="#1d4ed8"/>
<circle cx="324.91" cy="504.56" r="3.2" fill="#1d4ed8"/>
<circle cx="327.26" cy="503.75" r="3.2" fill="#1d4ed8"/>
<circle cx="329.61" cy="503.75" r="3.2" fill="#1d4ed8"/>
<circle cx="331.96" cy="503.35" r="3.2" fill="#1d4ed8"/>
<circle cx="334.31" cy="499.30" r="3.2" fill="#1d4ed8"/>
<circle cx="336.66" cy="496.47" r="3.2" fill="#1d4ed8"/>
<circle cx="339.01" cy="490.00" r="3.2" fill="#1d4ed8"/>
<circle cx="341.36" cy="484.34" r="3.2" fill="#1d4ed8"/>
<circle cx="343.71" cy="481.10" r="3.2" fill="#1d4ed8"/>
<circle cx="346.06" cy="480.29" r="3.2" fill="#1d4ed8"/>
<circle cx="348.41" cy="480.70" r="3.2" fill="#1d4ed8"/>
<circle cx="350.75" cy="460.88" r="3.2" fill="#1d4ed8"/>
<circle cx="353.10" cy="459.26" r="3.2" fill="#1d4ed8"/>
<circle cx="355.45" cy="458.05" r="3.2" fill="#1d4ed8"/>
<circle cx="357.80" cy="456.03" r="3.2" fill="#1d4ed8"/>
<circle cx="360.15" cy="456.03" r="3.2" fill="#1d4ed8"/>
<circle cx="362.50" cy="454.41" r="3.2" fill="#1d4ed8"/>
<circle cx="364.85" cy="450.77" r="3.2" fill="#1d4ed8"/>
<circle cx="367.20" cy="444.30" r="3.2" fill="#1d4ed8"/>
<circle cx="369.55" cy="443.90" r="3.2" fill="#1d4ed8"/>
<circle cx="371.90" cy="600.00" r="3.2" fill="#1d4ed8"/>
<circle cx="374.25" cy="441.88" r="3.2" fill="#1d4ed8"/>
<circle cx="376.59" cy="440.66" r="3.2" fill="#1d4ed8"/>
<circle cx="378.94" cy="439.45" r="3.2" fill="#1d4ed8"/>
<circle cx="381.29" cy="439.04" r="3.2" fill="#1d4ed8"/>
<circle cx="383.64" cy="438.64" r="3.2" fill="#1d4ed8"/>
<circle cx="385.99" cy="437.83" r="3.2" fill="#1d4ed8"/>
<circle cx="388.34" cy="436.62" r="3.2" fill="#1d4ed8"/>
<circle cx="390.69" cy="436.62" r="3.2" fill="#1d4ed8"/>
<circle cx="393.04" cy="434.60" r="3.2" fill="#1d4ed8"/>
<circle cx="395.39" cy="432.17" r="3.2" fill="#1d4ed8"/>
<circle cx="397.74" cy="429.34" r="3.2" fill="#1d4ed8"/>
<circle cx="400.09" cy="428.93" r="3.2" fill="#1d4ed8"/>
<circle cx="402.44" cy="428.53" r="3.2" fill="#1d4ed8"/>
<circle cx="404.78" cy="427.72" r="3.2" fill="#1d4ed8"/>
<circle cx="407.13" cy="426.91" r="3.2" fill="#1d4ed8"/>
<circle cx="409.48" cy="426.10" r="3.2" fill="#1d4ed8"/>
<circle cx="411.83" cy="426.10" r="3.2" fill="#1d4ed8"/>
<circle cx="414.18" cy="426.10" r="3.2" fill="#1d4ed8"/>
<circle cx="416.53" cy="419.63" r="3.2" fill="#1d4ed8"/>
<circle cx="418.88" cy="419.23" r="3.2" fill="#1d4ed8"/>
<circle cx="421.23" cy="418.42" r="3.2" fill="#1d4ed8"/>
<circle cx="423.58" cy="418.01" r="3.2" fill="#1d4ed8"/>
<circle cx="425.93" cy="417.61" r="3.2" fill="#1d4ed8"/>
<circle cx="428.28" cy="417.61" r="3.2" fill="#1d4ed8"/>
<circle cx="430.62" cy="417.61" r="3.2" fill="#1d4ed8"/>
<circle cx="432.97" cy="417.21" r="3.2" fill="#1d4ed8"/>
<circle cx="435.32" cy="417.21" r="3.2" fill="#1d4ed8"/>
<circle cx="437.67" cy="413.57" r="3.2" fill="#1d4ed8"/>
<circle cx="440.02" cy="411.95" r="3.2" fill="#1d4ed8"/>
<circle cx="442.37" cy="412.76" r="3.2" fill="#1d4ed8"/>
<circle cx="444.72" cy="410.74" r="3.2" fill="#1d4ed8"/>
<circle cx="447.07" cy="410.74" r="3.2" fill="#1d4ed8"/>
<circle cx="449.42" cy="410.33" r="3.2" fill="#1d4ed8"/>
<circle cx="451.77" cy="410.33" r="3.2" fill="#1d4ed8"/>
<circle cx="454.12" cy="410.33" r="3.2" fill="#1d4ed8"/>
<circle cx="456.47" cy="409.93" r="3.2" fill="#1d4ed8"/>
<circle cx="458.81" cy="409.93" r="3.2" fill="#1d4ed8"/>
<circle cx="461.16" cy="409.93" r="3.2" fill="#1d4ed8"/>
<circle cx="463.51" cy="409.52" r="3.2" fill="#1d4ed8"/>
<circle cx="465.86" cy="409.52" r="3.2" fill="#1d4ed8"/>
<circle cx="468.21" cy="409.12" r="3.2" fill="#1d4ed8"/>
<circle cx="470.56" cy="409.52" r="3.2" fill="#1d4ed8"/>
<circle cx="472.91" cy="409.12" r="3.2" fill="#1d4ed8"/>
<circle cx="475.26" cy="407.50" r="3.2" fill="#1d4ed8"/>
<circle cx="477.61" cy="407.10" r="3.2" fill="#1d4ed8"/>
<circle cx="479.96" cy="403.05" r="3.2" fill="#1d4ed8"/>
<circle cx="482.31" cy="399.82" r="3.2" fill="#1d4ed8"/>
<circle cx="484.66" cy="400.22" r="3.2" fill="#1d4ed8"/>
<circle cx="487.00" cy="400.62" r="3.2" fill="#1d4ed8"/>
<circle cx="489.35" cy="400.62" r="3.2" fill="#1d4ed8"/>
<circle cx="491.70" cy="399.41" r="3.2" fill="#1d4ed8"/>
<circle cx="494.05" cy="392.94" r="3.2" fill="#1d4ed8"/>
<circle cx="496.40" cy="391.32" r="3.2" fill="#1d4ed8"/>
<circle cx="498.75" cy="389.30" r="3.2" fill="#1d4ed8"/>
<circle cx="501.10" cy="389.30" r="3.2" fill="#1d4ed8"/>
<circle cx="503.45" cy="388.49" r="3.2" fill="#1d4ed8"/>
<circle cx="505.80" cy="375.15" r="3.2" fill="#1d4ed8"/>
<circle cx="508.15" cy="374.74" r="3.2" fill="#1d4ed8"/>
<circle cx="510.50" cy="374.74" r="3.2" fill="#1d4ed8"/>
<circle cx="512.84" cy="374.74" r="3.2" fill="#1d4ed8"/>
<circle cx="515.19" cy="374.74" r="3.2" fill="#1d4ed8"/>
<circle cx="517.54" cy="374.34" r="3.2" fill="#1d4ed8"/>
<circle cx="519.89" cy="374.34" r="3.2" fill="#1d4ed8"/>
<circle cx="522.24" cy="374.34" r="3.2" fill="#1d4ed8"/>
<circle cx="524.59" cy="374.34" r="3.2" fill="#1d4ed8"/>
<circle cx="526.94" cy="374.34" r="3.2" fill="#1d4ed8"/>
<circle cx="529.29" cy="373.93" r="3.2" fill="#1d4ed8"/>
<circle cx="531.64" cy="373.12" r="3.2" fill="#1d4ed8"/>
<circle cx="533.99" cy="372.72" r="3.2" fill="#1d4ed8"/>
<circle cx="536.34" cy="373.53" r="3.2" fill="#1d4ed8"/>
<circle cx="538.69" cy="435.81" r="3.2" fill="#1d4ed8"/>
<circle cx="541.03" cy="372.32" r="3.2" fill="#1d4ed8"/>
<circle cx="543.38" cy="372.72" r="3.2" fill="#1d4ed8"/>
<circle cx="545.73" cy="371.91" r="3.2" fill="#1d4ed8"/>
<circle cx="548.08" cy="371.91" r="3.2" fill="#1d4ed8"/>
<circle cx="550.43" cy="372.32" r="3.2" fill="#1d4ed8"/>
<circle cx="552.78" cy="371.10" r="3.2" fill="#1d4ed8"/>
<circle cx="555.13" cy="369.89" r="3.2" fill="#1d4ed8"/>
<circle cx="557.48" cy="369.89" r="3.2" fill="#1d4ed8"/>
<circle cx="559.83" cy="369.89" r="3.2" fill="#1d4ed8"/>
<circle cx="562.18" cy="369.49" r="3.2" fill="#1d4ed8"/>
<circle cx="564.53" cy="369.89" r="3.2" fill="#1d4ed8"/>
<circle cx="566.88" cy="369.08" r="3.2" fill="#1d4ed8"/>
<circle cx="569.22" cy="368.68" r="3.2" fill="#1d4ed8"/>
<circle cx="571.57" cy="368.27" r="3.2" fill="#1d4ed8"/>
<circle cx="573.92" cy="367.87" r="3.2" fill="#1d4ed8"/>
<circle cx="576.27" cy="367.06" r="3.2" fill="#1d4ed8"/>
<circle cx="578.62" cy="367.46" r="3.2" fill="#1d4ed8"/>
<circle cx="580.97" cy="367.06" r="3.2" fill="#1d4ed8"/>
<circle cx="583.32" cy="366.25" r="3.2" fill="#1d4ed8"/>
<circle cx="585.67" cy="368.27" r="3.2" fill="#1d4ed8"/>
<circle cx="588.02" cy="368.68" r="3.2" fill="#1d4ed8"/>
<circle cx="590.37" cy="368.68" r="3.2" fill="#1d4ed8"/>
<circle cx="592.72" cy="368.27" r="3.2" fill="#1d4ed8"/>
<circle cx="595.06" cy="369.08" r="3.2" fill="#1d4ed8"/>
<circle cx="597.41" cy="367.87" r="3.2" fill="#1d4ed8"/>
<circle cx="599.76" cy="367.46" r="3.2" fill="#1d4ed8"/>
<circle cx="602.11" cy="367.06" r="3.2" fill="#1d4ed8"/>
<circle cx="604.46" cy="360.18" r="3.2" fill="#1d4ed8"/>
<circle cx="606.81" cy="359.78" r="3.2" fill="#1d4ed8"/>
<circle cx="609.16" cy="359.38" r="3.2" fill="#1d4ed8"/>
<circle cx="611.51" cy="356.95" r="3.2" fill="#1d4ed8"/>
<circle cx="613.86" cy="357.35" r="3.2" fill="#1d4ed8"/>
<circle cx="616.21" cy="357.76" r="3.2" fill="#1d4ed8"/>
<circle cx="618.56" cy="355.33" r="3.2" fill="#1d4ed8"/>
<circle cx="620.91" cy="355.74" r="3.2" fill="#1d4ed8"/>
<circle cx="623.25" cy="357.35" r="3.2" fill="#1d4ed8"/>
<circle cx="625.60" cy="355.33" r="3.2" fill="#1d4ed8"/>
<circle cx="627.95" cy="356.14" r="3.2" fill="#1d4ed8"/>
<circle cx="630.30" cy="355.74" r="3.2" fill="#1d4ed8"/>
<circle cx="632.65" cy="356.14" r="3.2" fill="#1d4ed8"/>
<circle cx="635.00" cy="354.12" r="3.2" fill="#1d4ed8"/>
<circle cx="637.35" cy="354.93" r="3.2" fill="#1d4ed8"/>
<circle cx="639.70" cy="356.14" r="3.2" fill="#1d4ed8"/>
<circle cx="642.05" cy="354.52" r="3.2" fill="#1d4ed8"/>
<circle cx="644.40" cy="353.71" r="3.2" fill="#1d4ed8"/>
<circle cx="646.75" cy="354.12" r="3.2" fill="#1d4ed8"/>
<circle cx="649.09" cy="354.93" r="3.2" fill="#1d4ed8"/>
<circle cx="651.44" cy="352.90" r="3.2" fill="#1d4ed8"/>
<circle cx="653.79" cy="353.71" r="3.2" fill="#1d4ed8"/>
<circle cx="656.14" cy="353.31" r="3.2" fill="#1d4ed8"/>
<circle cx="658.49" cy="353.31" r="3.2" fill="#1d4ed8"/>
<circle cx="660.84" cy="354.52" r="3.2" fill="#1d4ed8"/>
<circle cx="663.19" cy="352.90" r="3.2" fill="#1d4ed8"/>
<circle cx="665.54" cy="352.50" r="3.2" fill="#1d4ed8"/>
<circle cx="667.89" cy="352.50" r="3.2" fill="#1d4ed8"/>
<circle cx="670.24" cy="353.31" r="3.2" fill="#1d4ed8"/>
<circle cx="672.59" cy="352.50" r="3.2" fill="#1d4ed8"/>
<circle cx="674.94" cy="353.71" r="3.2" fill="#1d4ed8"/>
<circle cx="677.28" cy="354.12" r="3.2" fill="#1d4ed8"/>
<circle cx="679.63" cy="352.50" r="3.2" fill="#1d4ed8"/>
<circle cx="681.98" cy="352.90" r="3.2" fill="#1d4ed8"/>
<circle cx="684.33" cy="352.50" r="3.2" fill="#1d4ed8"/>
<circle cx="686.68" cy="352.10" r="3.2" fill="#1d4ed8"/>
<circle cx="689.03" cy="351.69" r="3.2" fill="#1d4ed8"/>
<circle cx="691.38" cy="352.10" r="3.2" fill="#1d4ed8"/>
<circle cx="693.73" cy="354.12" r="3.2" fill="#1d4ed8"/>
<circle cx="696.08" cy="352.50" r="3.2" fill="#1d4ed8"/>
<circle cx="698.43" cy="352.10" r="3.2" fill="#1d4ed8"/>
<circle cx="700.78" cy="352.10" r="3.2" fill="#1d4ed8"/>
<circle cx="703.12" cy="349.67" r="3.2" fill="#1d4ed8"/>
<circle cx="705.47" cy="349.67" r="3.2" fill="#1d4ed8"/>
<circle cx="707.82" cy="350.88" r="3.2" fill="#1d4ed8"/>
<circle cx="710.17" cy="351.29" r="3.2" fill="#1d4ed8"/>
<circle cx="712.52" cy="350.48" r="3.2" fill="#1d4ed8"/>
<circle cx="714.87" cy="352.10" r="3.2" fill="#1d4ed8"/>
<circle cx="717.22" cy="350.48" r="3.2" fill="#1d4ed8"/>
<circle cx="719.57" cy="350.48" r="3.2" fill="#1d4ed8"/>
<circle cx="721.92" cy="350.48" r="3.2" fill="#1d4ed8"/>
<circle cx="724.27" cy="350.07" r="3.2" fill="#1d4ed8"/>
<circle cx="726.62" cy="348.46" r="3.2" fill="#1d4ed8"/>
<circle cx="728.97" cy="351.29" r="3.2" fill="#1d4ed8"/>
<circle cx="731.31" cy="349.67" r="3.2" fill="#1d4ed8"/>
<circle cx="733.66" cy="351.29" r="3.2" fill="#1d4ed8"/>
<circle cx="736.01" cy="349.67" r="3.2" fill="#1d4ed8"/>
<circle cx="738.36" cy="348.86" r="3.2" fill="#1d4ed8"/>
<circle cx="740.71" cy="348.46" r="3.2" fill="#1d4ed8"/>
<circle cx="743.06" cy="348.46" r="3.2" fill="#1d4ed8"/>
<circle cx="745.41" cy="347.24" r="3.2" fill="#1d4ed8"/>
<circle cx="747.76" cy="348.86" r="3.2" fill="#1d4ed8"/>
<circle cx="750.11" cy="346.84" r="3.2" fill="#1d4ed8"/>
<circle cx="752.46" cy="348.46" r="3.2" fill="#1d4ed8"/>
<circle cx="754.81" cy="348.86" r="3.2" fill="#1d4ed8"/>
<circle cx="757.16" cy="346.84" r="3.2" fill="#1d4ed8"/>
<circle cx="759.50" cy="349.26" r="3.2" fill="#1d4ed8"/>
<circle cx="761.85" cy="348.05" r="3.2" fill="#1d4ed8"/>
<circle cx="764.20" cy="349.26" r="3.2" fill="#1d4ed8"/>
<circle cx="766.55" cy="349.26" r="3.2" fill="#1d4ed8"/>
<circle cx="768.90" cy="350.48" r="3.2" fill="#1d4ed8"/>
<circle cx="771.25" cy="352.90" r="3.2" fill="#1d4ed8"/>
<circle cx="773.60" cy="349.67" r="3.2" fill="#1d4ed8"/>
<circle cx="775.95" cy="348.46" r="3.2" fill="#1d4ed8"/>
<circle cx="778.30" cy="345.62" r="3.2" fill="#1d4ed8"/>
<circle cx="780.65" cy="344.82" r="3.2" fill="#1d4ed8"/>
<circle cx="783.00" cy="344.41" r="3.2" fill="#1d4ed8"/>
<circle cx="785.34" cy="342.39" r="3.2" fill="#1d4ed8"/>
<circle cx="787.69" cy="341.18" r="3.2" fill="#1d4ed8"/>
<circle cx="790.04" cy="341.58" r="3.2" fill="#1d4ed8"/>
<circle cx="792.39" cy="339.15" r="3.2" fill="#1d4ed8"/>
<circle cx="794.74" cy="338.35" r="3.2" fill="#1d4ed8"/>
<circle cx="797.09" cy="337.54" r="3.2" fill="#1d4ed8"/>
<circle cx="799.44" cy="336.73" r="3.2" fill="#1d4ed8"/>
<circle cx="801.79" cy="335.92" r="3.2" fill="#1d4ed8"/>
<circle cx="804.14" cy="337.54" r="3.2" fill="#1d4ed8"/>
<circle cx="806.49" cy="338.35" r="3.2" fill="#1d4ed8"/>
<circle cx="808.84" cy="337.54" r="3.2" fill="#1d4ed8"/>
<circle cx="811.19" cy="337.54" r="3.2" fill="#1d4ed8"/>
<circle cx="813.53" cy="337.54" r="3.2" fill="#1d4ed8"/>
<circle cx="815.88" cy="333.09" r="3.2" fill="#1d4ed8"/>
<circle cx="818.23" cy="333.90" r="3.2" fill="#1d4ed8"/>
<circle cx="820.58" cy="335.92" r="3.2" fill="#1d4ed8"/>
<circle cx="822.93" cy="336.73" r="3.2" fill="#1d4ed8"/>
<circle cx="825.28" cy="335.51" r="3.2" fill="#1d4ed8"/>
<circle cx="827.63" cy="332.28" r="3.2" fill="#1d4ed8"/>
<circle cx="829.98" cy="331.47" r="3.2" fill="#1d4ed8"/>
<circle cx="832.33" cy="331.07" r="3.2" fill="#1d4ed8"/>
<circle cx="834.68" cy="331.47" r="3.2" fill="#1d4ed8"/>
<circle cx="837.03" cy="331.07" r="3.2" fill="#1d4ed8"/>
<circle cx="839.38" cy="331.07" r="3.2" fill="#1d4ed8"/>
<circle cx="841.72" cy="331.07" r="3.2" fill="#1d4ed8"/>
<circle cx="844.07" cy="331.07" r="3.2" fill="#1d4ed8"/>
<circle cx="846.42" cy="331.07" r="3.2" fill="#1d4ed8"/>
<circle cx="848.77" cy="331.07" r="3.2" fill="#1d4ed8"/>
<circle cx="851.12" cy="331.07" r="3.2" fill="#1d4ed8"/>
<circle cx="853.47" cy="331.07" r="3.2" fill="#1d4ed8"/>
<circle cx="855.82" cy="331.07" r="3.2" fill="#1d4ed8"/>
<circle cx="858.17" cy="331.07" r="3.2" fill="#1d4ed8"/>
<circle cx="860.52" cy="331.47" r="3.2" fill="#1d4ed8"/>
<circle cx="862.87" cy="331.88" r="3.2" fill="#1d4ed8"/>
<circle cx="865.22" cy="331.07" r="3.2" fill="#1d4ed8"/>
<circle cx="867.56" cy="331.47" r="3.2" fill="#1d4ed8"/>
<circle cx="869.91" cy="331.07" r="3.2" fill="#1d4ed8"/>
<circle cx="872.26" cy="331.47" r="3.2" fill="#1d4ed8"/>
<circle cx="874.61" cy="331.07" r="3.2" fill="#1d4ed8"/>
<circle cx="876.96" cy="324.19" r="3.2" fill="#1d4ed8"/>
<circle cx="879.31" cy="324.19" r="3.2" fill="#1d4ed8"/>
<circle cx="881.66" cy="318.93" r="3.2" fill="#1d4ed8"/>
<circle cx="884.01" cy="316.51" r="3.2" fill="#1d4ed8"/>
<circle cx="886.36" cy="310.44" r="3.2" fill="#1d4ed8"/>
<circle cx="888.71" cy="308.01" r="3.2" fill="#1d4ed8"/>
<circle cx="891.06" cy="600.00" r="3.2" fill="#1d4ed8"/>
<circle cx="893.41" cy="301.54" r="3.2" fill="#1d4ed8"/>
<circle cx="895.75" cy="290.22" r="3.2" fill="#1d4ed8"/>
<circle cx="898.10" cy="287.79" r="3.2" fill="#1d4ed8"/>
<circle cx="900.45" cy="286.18" r="3.2" fill="#1d4ed8"/>
<circle cx="902.80" cy="285.77" r="3.2" fill="#1d4ed8"/>
<circle cx="905.15" cy="285.77" r="3.2" fill="#1d4ed8"/>
<circle cx="907.50" cy="285.77" r="3.2" fill="#1d4ed8"/>
<circle cx="909.85" cy="286.18" r="3.2" fill="#1d4ed8"/>
<circle cx="912.20" cy="285.77" r="3.2" fill="#1d4ed8"/>
<circle cx="914.55" cy="285.77" r="3.2" fill="#1d4ed8"/>
<circle cx="916.90" cy="285.77" r="3.2" fill="#1d4ed8"/>
<circle cx="919.25" cy="283.35" r="3.2" fill="#1d4ed8"/>
<circle cx="921.59" cy="282.94" r="3.2" fill="#1d4ed8"/>
<circle cx="923.94" cy="282.94" r="3.2" fill="#1d4ed8"/>
<circle cx="926.29" cy="283.35" r="3.2" fill="#1d4ed8"/>
<circle cx="928.64" cy="282.94" r="3.2" fill="#1d4ed8"/>
<circle cx="930.99" cy="282.94" r="3.2" fill="#1d4ed8"/>
<circle cx="933.34" cy="283.75" r="3.2" fill="#1d4ed8"/>
<circle cx="935.69" cy="282.13" r="3.2" fill="#1d4ed8"/>
<circle cx="938.04" cy="282.13" r="3.2" fill="#1d4ed8"/>
<circle cx="940.39" cy="282.54" r="3.2" fill="#1d4ed8"/>
<circle cx="942.74" cy="282.13" r="3.2" fill="#1d4ed8"/>
<circle cx="945.09" cy="282.54" r="3.2" fill="#1d4ed8"/>
<circle cx="947.44" cy="282.94" r="3.2" fill="#1d4ed8"/>
<circle cx="949.78" cy="281.73" r="3.2" fill="#1d4ed8"/>
<circle cx="952.13" cy="282.54" r="3.2" fill="#1d4ed8"/>
<circle cx="954.48" cy="281.73" r="3.2" fill="#1d4ed8"/>
<circle cx="956.83" cy="282.54" r="3.2" fill="#1d4ed8"/>
<circle cx="959.18" cy="282.13" r="3.2" fill="#1d4ed8"/>
<circle cx="961.53" cy="282.13" r="3.2" fill="#1d4ed8"/>
<circle cx="963.88" cy="281.73" r="3.2" fill="#1d4ed8"/>
<circle cx="966.23" cy="281.73" r="3.2" fill="#1d4ed8"/>
<circle cx="968.58" cy="281.32" r="3.2" fill="#1d4ed8"/>
<circle cx="970.93" cy="281.73" r="3.2" fill="#1d4ed8"/>
<circle cx="973.28" cy="282.13" r="3.2" fill="#1d4ed8"/>
<circle cx="975.62" cy="281.32" r="3.2" fill="#1d4ed8"/>
<circle cx="977.97" cy="281.32" r="3.2" fill="#1d4ed8"/>
<circle cx="980.32" cy="282.54" r="3.2" fill="#1d4ed8"/>
<circle cx="982.67" cy="282.13" r="3.2" fill="#1d4ed8"/>
<circle cx="985.02" cy="281.32" r="3.2" fill="#1d4ed8"/>
<circle cx="987.37" cy="281.32" r="3.2" fill="#1d4ed8"/>
<circle cx="989.72" cy="281.32" r="3.2" fill="#1d4ed8"/>
<circle cx="992.07" cy="282.54" r="3.2" fill="#1d4ed8"/>
<circle cx="994.42" cy="282.13" r="3.2" fill="#1d4ed8"/>
<circle cx="996.77" cy="281.32" r="3.2" fill="#1d4ed8"/>
<circle cx="999.12" cy="282.13" r="3.2" fill="#1d4ed8"/>
<circle cx="1001.47" cy="281.73" r="3.2" fill="#1d4ed8"/>
<circle cx="1003.81" cy="282.13" r="3.2" fill="#1d4ed8"/>
<circle cx="1006.16" cy="280.11" r="3.2" fill="#1d4ed8"/>
<circle cx="1008.51" cy="280.11" r="3.2" fill="#1d4ed8"/>
<circle cx="1010.86" cy="280.51" r="3.2" fill="#1d4ed8"/>
<circle cx="1013.21" cy="279.71" r="3.2" fill="#1d4ed8"/>
<circle cx="1015.56" cy="280.11" r="3.2" fill="#1d4ed8"/>
<circle cx="1017.91" cy="280.51" r="3.2" fill="#1d4ed8"/>
<circle cx="1020.26" cy="279.71" r="3.2" fill="#1d4ed8"/>
<circle cx="1022.61" cy="280.11" r="3.2" fill="#1d4ed8"/>
<circle cx="1024.96" cy="280.11" r="3.2" fill="#1d4ed8"/>
<circle cx="1027.31" cy="279.30" r="3.2" fill="#1d4ed8"/>
<circle cx="1029.66" cy="278.90" r="3.2" fill="#1d4ed8"/>
<circle cx="1032.00" cy="278.90" r="3.2" fill="#1d4ed8"/>
<circle cx="1034.35" cy="280.51" r="3.2" fill="#1d4ed8"/>
<circle cx="1036.70" cy="279.30" r="3.2" fill="#1d4ed8"/>
<circle cx="1039.05" cy="278.09" r="3.2" fill="#1d4ed8"/>
<circle cx="1041.40" cy="278.49" r="3.2" fill="#1d4ed8"/>
<circle cx="1043.75" cy="278.49" r="3.2" fill="#1d4ed8"/>
<circle cx="1046.10" cy="277.28" r="3.2" fill="#1d4ed8"/>
<circle cx="1048.45" cy="277.68" r="3.2" fill="#1d4ed8"/>
<circle cx="1050.80" cy="277.68" r="3.2" fill="#1d4ed8"/>
<circle cx="1053.15" cy="278.09" r="3.2" fill="#1d4ed8"/>
<circle cx="1055.50" cy="277.28" r="3.2" fill="#1d4ed8"/>
<circle cx="1057.84" cy="600.00" r="3.2" fill="#1d4ed8"/>
<circle cx="1060.19" cy="278.90" r="3.2" fill="#1d4ed8"/>
<circle cx="1062.54" cy="279.30" r="3.2" fill="#1d4ed8"/>
<circle cx="1064.89" cy="278.90" r="3.2" fill="#1d4ed8"/>
<circle cx="1067.24" cy="278.49" r="3.2" fill="#1d4ed8"/>
<circle cx="1069.59" cy="278.49" r="3.2" fill="#1d4ed8"/>
<circle cx="1071.94" cy="278.49" r="3.2" fill="#1d4ed8"/>
<circle cx="1074.29" cy="278.49" r="3.2" fill="#1d4ed8"/>
<circle cx="1076.64" cy="278.49" r="3.2" fill="#1d4ed8"/>
<circle cx="1078.99" cy="278.49" r="3.2" fill="#1d4ed8"/>
<circle cx="1081.34" cy="278.49" r="3.2" fill="#1d4ed8"/>
<circle cx="1083.69" cy="278.49" r="3.2" fill="#1d4ed8"/>
<circle cx="1086.03" cy="278.49" r="3.2" fill="#1d4ed8"/>
<circle cx="1088.38" cy="278.49" r="3.2" fill="#1d4ed8"/>
<circle cx="1090.73" cy="278.49" r="3.2" fill="#1d4ed8"/>
<circle cx="1093.08" cy="278.49" r="3.2" fill="#1d4ed8"/>
<circle cx="1095.43" cy="600.00" r="3.2" fill="#1d4ed8"/>
<circle cx="1097.78" cy="600.00" r="3.2" fill="#1d4ed8"/>
<circle cx="1100.13" cy="254.63" r="3.2" fill="#1d4ed8"/>
<circle cx="1102.48" cy="600.00" r="3.2" fill="#1d4ed8"/>
<circle cx="1104.83" cy="245.74" r="3.2" fill="#1d4ed8"/>
<circle cx="1107.18" cy="245.74" r="3.2" fill="#1d4ed8"/>
<circle cx="1109.53" cy="246.14" r="3.2" fill="#1d4ed8"/>
<circle cx="1111.88" cy="245.74" r="3.2" fill="#1d4ed8"/>
<circle cx="1114.22" cy="245.74" r="3.2" fill="#1d4ed8"/>
<circle cx="1116.57" cy="245.74" r="3.2" fill="#1d4ed8"/>
<circle cx="1118.92" cy="245.74" r="3.2" fill="#1d4ed8"/>
<circle cx="1121.27" cy="245.74" r="3.2" fill="#1d4ed8"/>
<circle cx="1123.62" cy="240.07" r="3.2" fill="#1d4ed8"/>
<circle cx="1125.97" cy="238.05" r="3.2" fill="#1d4ed8"/>
<circle cx="1128.32" cy="238.05" r="3.2" fill="#1d4ed8"/>
<circle cx="1130.67" cy="227.13" r="3.2" fill="#1d4ed8"/>
<circle cx="1133.02" cy="227.13" r="3.2" fill="#1d4ed8"/>
<circle cx="1135.37" cy="226.32" r="3.2" fill="#1d4ed8"/>
<circle cx="1137.72" cy="227.54" r="3.2" fill="#1d4ed8"/>
<circle cx="1140.06" cy="226.73" r="3.2" fill="#1d4ed8"/>
<circle cx="1142.41" cy="226.32" r="3.2" fill="#1d4ed8"/>
<circle cx="1144.76" cy="227.13" r="3.2" fill="#1d4ed8"/>
<circle cx="1147.11" cy="227.13" r="3.2" fill="#1d4ed8"/>
<circle cx="1149.46" cy="226.73" r="3.2" fill="#1d4ed8"/>
<circle cx="1151.81" cy="226.32" r="3.2" fill="#1d4ed8"/>
<circle cx="1154.16" cy="226.73" r="3.2" fill="#1d4ed8"/>
<circle cx="1156.51" cy="226.73" r="3.2" fill="#1d4ed8"/>
<circle cx="1158.86" cy="226.73" r="3.2" fill="#1d4ed8"/>
<circle cx="1161.21" cy="225.11" r="3.2" fill="#1d4ed8"/>
<circle cx="1163.56" cy="224.71" r="3.2" fill="#1d4ed8"/>
<circle cx="1165.91" cy="225.11" r="3.2" fill="#1d4ed8"/>
<circle cx="1168.25" cy="224.30" r="3.2" fill="#1d4ed8"/>
<circle cx="1170.60" cy="226.32" r="3.2" fill="#1d4ed8"/>
<circle cx="1172.95" cy="224.30" r="3.2" fill="#1d4ed8"/>
<circle cx="1175.30" cy="225.51" r="3.2" fill="#1d4ed8"/>
<circle cx="1177.65" cy="225.51" r="3.2" fill="#1d4ed8"/>
<circle cx="1180.00" cy="225.51" r="3.2" fill="#1d4ed8"/>
<text x="635" y="695" text-anchor="middle" font-size="14" fill="#111" font-family="sans-serif">Date</text>
<text x="24" y="325" text-anchor="middle" font-size="14" fill="#111" transform="rotate(-90 24,325)" font-family="sans-serif">Passed files</text>
</svg>
