<?xml version="1.0" encoding="UTF-8"?>
<svg xmlns="http://www.w3.org/2000/svg" width="1280" height="720" viewBox="0 0 1280 720">
<rect width="100%" height="100%" fill="#ffffff"/>
<text x="640" y="30" text-anchor="middle" font-size="22" font-family="sans-serif">Roast passed files history</text>
<line x1="90" y1="600" x2="1180" y2="600" stroke="#333" stroke-width="1.5"/>
<line x1="90" y1="50" x2="90" y2="600" stroke="#333" stroke-width="1.5"/>
<line x1="90" y1="600.00" x2="1180" y2="600.00" stroke="#e5e7eb" stroke-width="1"/>
<text x="78" y="605.00" text-anchor="end" font-size="12" fill="#111" font-family="sans-serif">0</text>
<line x1="90" y1="397.79" x2="1180" y2="397.79" stroke="#e5e7eb" stroke-width="1"/>
<text x="78" y="402.79" text-anchor="end" font-size="12" fill="#111" font-family="sans-serif">500</text>
<line x1="90" y1="195.59" x2="1180" y2="195.59" stroke="#e5e7eb" stroke-width="1"/>
<text x="78" y="200.59" text-anchor="end" font-size="12" fill="#111" font-family="sans-serif">1000</text>
<line x1="90.00" y1="600" x2="90.00" y2="606" stroke="#333" stroke-width="1"/>
<text x="90.00" y="624" text-anchor="end" font-size="11" fill="#111" transform="rotate(-40 90.00,624)" font-family="sans-serif">2026-02-12</text>
<line x1="225.72" y1="600" x2="225.72" y2="606" stroke="#333" stroke-width="1"/>
<text x="225.72" y="624" text-anchor="end" font-size="11" fill="#111" transform="rotate(-40 225.72,624)" font-family="sans-serif">2026-02-17</text>
<line x1="361.44" y1="600" x2="361.44" y2="606" stroke="#333" stroke-width="1"/>
<text x="361.44" y="624" text-anchor="end" font-size="11" fill="#111" transform="rotate(-40 361.44,624)" font-family="sans-serif">2026-02-19</text>
<line x1="497.16" y1="600" x2="497.16" y2="606" stroke="#333" stroke-width="1"/>
<text x="497.16" y="624" text-anchor="end" font-size="11" fill="#111" transform="rotate(-40 497.16,624)" font-family="sans-serif">2026-02-22</text>
<line x1="632.88" y1="600" x2="632.88" y2="606" stroke="#333" stroke-width="1"/>
<text x="632.88" y="624" text-anchor="end" font-size="11" fill="#111" transform="rotate(-40 632.88,624)" font-family="sans-serif">2026-02-25</text>
<line x1="768.60" y1="600" x2="768.60" y2="606" stroke="#333" stroke-width="1"/>
<text x="768.60" y="624" text-anchor="end" font-size="11" fill="#111" transform="rotate(-40 768.60,624)" font-family="sans-serif">2026-02-27</text>
<line x1="904.32" y1="600" x2="904.32" y2="606" stroke="#333" stroke-width="1"/>
<text x="904.32" y="624" text-anchor="end" font-size="11" fill="#111" transform="rotate(-40 904.32,624)" font-family="sans-serif">2026-02-28</text>
<line x1="1040.04" y1="600" x2="1040.04" y2="606" stroke="#333" stroke-width="1"/>
<text x="1040.04" y="624" text-anchor="end" font-size="11" fill="#111" transform="rotate(-40 1040.04,624)" font-family="sans-serif">2026-03-06</text>
<line x1="1175.76" y1="600" x2="1175.76" y2="606" stroke="#333" stroke-width="1"/>
<text x="1175.76" y="624" text-anchor="end" font-size="11" fill="#111" transform="rotate(-40 1175.76,624)" font-family="sans-serif">2026-03-06</text>
<line x1="1180.00" y1="600" x2="1180.00" y2="606" stroke="#333" stroke-width="1"/>
<text x="1180.00" y="624" text-anchor="end" font-size="11" fill="#111" transform="rotate(-40 1180.00,624)" font-family="sans-serif">2026-03-06</text>
<line x1="90" y1="75.88" x2="1180" y2="75.88" stroke="#dc2626" stroke-width="1.5" stroke-dasharray="8,4"/>
<text x="1184" y="79.88" font-size="12" fill="#dc2626" font-family="sans-serif">Goal: 1296</text>
<polyline fill="none" stroke="#2563eb" stroke-width="3" points="90.00,540.55 94.24,538.53 98.48,536.91 102.72,534.49 106.96,534.49 111.21,533.27 115.45,532.46 119.69,532.87 123.93,532.06 128.17,532.46 132.41,532.06 136.65,568.46 140.89,568.46 145.14,566.43 149.38,545.00 153.62,545.00 157.86,544.19 162.10,543.79 166.34,543.79 170.58,543.38 174.82,541.76 179.07,541.36 183.31,540.96 187.55,540.96 191.79,539.34 196.03,539.34 200.27,556.73 204.51,556.73 208.75,555.51 213.00,551.07 217.24,538.93 221.48,538.93 225.72,538.93 229.96,538.12 234.20,536.91 238.44,536.91 242.68,536.51 246.93,536.51 251.17,556.73 255.41,556.73 259.65,556.73 263.89,556.73 268.13,535.29 272.37,535.29 276.61,535.29 280.86,535.29 285.10,534.49 289.34,534.08 293.58,533.68 297.82,532.87 302.06,532.06 306.30,532.06 310.54,531.25 314.79,530.85 319.03,530.44 323.27,530.04 327.51,530.04 331.75,529.23 335.99,529.23 340.23,529.23 344.47,528.42 348.72,528.42 352.96,527.61 357.20,527.21 361.44,526.80 365.68,526.40 369.92,525.18 374.16,523.57 378.40,523.57 382.65,523.16 386.89,522.76 391.13,522.35 395.37,521.54 399.61,519.52 403.85,517.50 408.09,517.50 412.33,517.50 416.58,517.50 420.82,517.50 425.06,517.50 429.30,517.10 433.54,516.69 437.78,515.48 442.02,515.07 446.26,514.67 450.51,513.86 454.75,514.26 458.99,512.24 463.23,511.84 467.47,511.84 471.71,511.03 475.95,509.82 480.19,507.79 484.44,506.99 488.68,506.58 492.92,509.41 497.16,509.01 501.40,504.96 505.64,504.56 509.88,504.15 514.12,504.56 518.37,503.75 522.61,503.75 526.85,503.35 531.09,499.30 535.33,496.47 539.57,490.00 543.81,484.34 548.05,481.10 552.30,480.29 556.54,480.70 560.78,460.88 565.02,459.26 569.26,458.05 573.50,456.03 577.74,456.03 581.98,454.41 586.23,450.77 590.47,444.30 594.71,443.90 598.95,600.00 603.19,441.88 607.43,440.66 611.67,439.45 615.91,439.04 620.16,438.64 624.40,437.83 628.64,436.62 632.88,436.62 637.12,434.60 641.36,432.17 645.60,429.34 649.84,428.93 654.09,428.53 658.33,427.72 662.57,426.91 666.81,426.10 671.05,426.10 675.29,426.10 679.53,419.63 683.77,419.23 688.02,418.42 692.26,418.01 696.50,417.61 700.74,417.61 704.98,417.61 709.22,417.21 713.46,417.21 717.70,413.57 721.95,411.95 726.19,412.76 730.43,410.74 734.67,410.74 738.91,410.33 743.15,410.33 747.39,410.33 751.63,409.93 755.88,409.93 760.12,409.93 764.36,409.52 768.60,409.52 772.84,409.12 777.08,409.52 781.32,409.12 785.56,407.50 789.81,407.10 794.05,403.05 798.29,399.82 802.53,400.22 806.77,400.62 811.01,400.62 815.25,399.41 819.49,392.94 823.74,391.32 827.98,389.30 832.22,389.30 836.46,388.49 840.70,375.15 844.94,374.74 849.18,374.74 853.42,374.74 857.67,374.74 861.91,374.34 866.15,374.34 870.39,374.34 874.63,374.34 878.87,374.34 883.11,373.93 887.35,373.12 891.60,372.72 895.84,373.53 900.08,435.81 904.32,372.32 908.56,372.72 912.80,371.91 917.04,371.91 921.28,372.32 925.53,371.10 929.77,369.89 934.01,369.89 938.25,369.89 942.49,369.49 946.73,369.89 950.97,369.08 955.21,368.68 959.46,368.27 963.70,367.87 967.94,367.06 972.18,367.46 976.42,367.06 980.66,366.25 984.90,368.27 989.14,368.68 993.39,368.68 997.63,368.27 1001.87,369.08 1006.11,367.87 1010.35,367.46 1014.59,367.06 1018.83,360.18 1023.07,359.78 1027.32,359.38 1031.56,356.95 1035.80,357.35 1040.04,357.76 1044.28,355.33 1048.52,355.74 1052.76,357.35 1057.00,355.33 1061.25,356.14 1065.49,355.74 1069.73,356.14 1073.97,354.12 1078.21,354.93 1082.45,356.14 1086.69,354.52 1090.93,353.71 1095.18,354.12 1099.42,354.93 1103.66,352.90 1107.90,353.71 1112.14,353.31 1116.38,353.31 1120.62,354.52 1124.86,352.90 1129.11,352.50 1133.35,352.50 1137.59,353.31 1141.83,352.50 1146.07,353.71 1150.31,354.12 1154.55,352.50 1158.79,352.90 1163.04,352.50 1167.28,352.10 1171.52,351.69 1175.76,352.10 1180.00,354.12"/>
<circle cx="90.00" cy="540.55" r="3.2" fill="#1d4ed8"/>
<circle cx="94.24" cy="538.53" r="3.2" fill="#1d4ed8"/>
<circle cx="98.48" cy="536.91" r="3.2" fill="#1d4ed8"/>
<circle cx="102.72" cy="534.49" r="3.2" fill="#1d4ed8"/>
<circle cx="106.96" cy="534.49" r="3.2" fill="#1d4ed8"/>
<circle cx="111.21" cy="533.27" r="3.2" fill="#1d4ed8"/>
<circle cx="115.45" cy="532.46" r="3.2" fill="#1d4ed8"/>
<circle cx="119.69" cy="532.87" r="3.2" fill="#1d4ed8"/>
<circle cx="123.93" cy="532.06" r="3.2" fill="#1d4ed8"/>
<circle cx="128.17" cy="532.46" r="3.2" fill="#1d4ed8"/>
<circle cx="132.41" cy="532.06" r="3.2" fill="#1d4ed8"/>
<circle cx="136.65" cy="568.46" r="3.2" fill="#1d4ed8"/>
<circle cx="140.89" cy="568.46" r="3.2" fill="#1d4ed8"/>
<circle cx="145.14" cy="566.43" r="3.2" fill="#1d4ed8"/>
<circle cx="149.38" cy="545.00" r="3.2" fill="#1d4ed8"/>
<circle cx="153.62" cy="545.00" r="3.2" fill="#1d4ed8"/>
<circle cx="157.86" cy="544.19" r="3.2" fill="#1d4ed8"/>
<circle cx="162.10" cy="543.79" r="3.2" fill="#1d4ed8"/>
<circle cx="166.34" cy="543.79" r="3.2" fill="#1d4ed8"/>
<circle cx="170.58" cy="543.38" r="3.2" fill="#1d4ed8"/>
<circle cx="174.82" cy="541.76" r="3.2" fill="#1d4ed8"/>
<circle cx="179.07" cy="541.36" r="3.2" fill="#1d4ed8"/>
<circle cx="183.31" cy="540.96" r="3.2" fill="#1d4ed8"/>
<circle cx="187.55" cy="540.96" r="3.2" fill="#1d4ed8"/>
<circle cx="191.79" cy="539.34" r="3.2" fill="#1d4ed8"/>
<circle cx="196.03" cy="539.34" r="3.2" fill="#1d4ed8"/>
<circle cx="200.27" cy="556.73" r="3.2" fill="#1d4ed8"/>
<circle cx="204.51" cy="556.73" r="3.2" fill="#1d4ed8"/>
<circle cx="208.75" cy="555.51" r="3.2" fill="#1d4ed8"/>
<circle cx="213.00" cy="551.07" r="3.2" fill="#1d4ed8"/>
<circle cx="217.24" cy="538.93" r="3.2" fill="#1d4ed8"/>
<circle cx="221.48" cy="538.93" r="3.2" fill="#1d4ed8"/>
<circle cx="225.72" cy="538.93" r="3.2" fill="#1d4ed8"/>
<circle cx="229.96" cy="538.12" r="3.2" fill="#1d4ed8"/>
<circle cx="234.20" cy="536.91" r="3.2" fill="#1d4ed8"/>
<circle cx="238.44" cy="536.91" r="3.2" fill="#1d4ed8"/>
<circle cx="242.68" cy="536.51" r="3.2" fill="#1d4ed8"/>
<circle cx="246.93" cy="536.51" r="3.2" fill="#1d4ed8"/>
<circle cx="251.17" cy="556.73" r="3.2" fill="#1d4ed8"/>
<circle cx="255.41" cy="556.73" r="3.2" fill="#1d4ed8"/>
<circle cx="259.65" cy="556.73" r="3.2" fill="#1d4ed8"/>
<circle cx="263.89" cy="556.73" r="3.2" fill="#1d4ed8"/>
<circle cx="268.13" cy="535.29" r="3.2" fill="#1d4ed8"/>
<circle cx="272.37" cy="535.29" r="3.2" fill="#1d4ed8"/>
<circle cx="276.61" cy="535.29" r="3.2" fill="#1d4ed8"/>
<circle cx="280.86" cy="535.29" r="3.2" fill="#1d4ed8"/>
<circle cx="285.10" cy="534.49" r="3.2" fill="#1d4ed8"/>
<circle cx="289.34" cy="534.08" r="3.2" fill="#1d4ed8"/>
<circle cx="293.58" cy="533.68" r="3.2" fill="#1d4ed8"/>
<circle cx="297.82" cy="532.87" r="3.2" fill="#1d4ed8"/>
<circle cx="302.06" cy="532.06" r="3.2" fill="#1d4ed8"/>
<circle cx="306.30" cy="532.06" r="3.2" fill="#1d4ed8"/>
<circle cx="310.54" cy="531.25" r="3.2" fill="#1d4ed8"/>
<circle cx="314.79" cy="530.85" r="3.2" fill="#1d4ed8"/>
<circle cx="319.03" cy="530.44" r="3.2" fill="#1d4ed8"/>
<circle cx="323.27" cy="530.04" r="3.2" fill="#1d4ed8"/>
<circle cx="327.51" cy="530.04" r="3.2" fill="#1d4ed8"/>
<circle cx="331.75" cy="529.23" r="3.2" fill="#1d4ed8"/>
<circle cx="335.99" cy="529.23" r="3.2" fill="#1d4ed8"/>
<circle cx="340.23" cy="529.23" r="3.2" fill="#1d4ed8"/>
<circle cx="344.47" cy="528.42" r="3.2" fill="#1d4ed8"/>
<circle cx="348.72" cy="528.42" r="3.2" fill="#1d4ed8"/>
<circle cx="352.96" cy="527.61" r="3.2" fill="#1d4ed8"/>
<circle cx="357.20" cy="527.21" r="3.2" fill="#1d4ed8"/>
<circle cx="361.44" cy="526.80" r="3.2" fill="#1d4ed8"/>
<circle cx="365.68" cy="526.40" r="3.2" fill="#1d4ed8"/>
<circle cx="369.92" cy="525.18" r="3.2" fill="#1d4ed8"/>
<circle cx="374.16" cy="523.57" r="3.2" fill="#1d4ed8"/>
<circle cx="378.40" cy="523.57" r="3.2" fill="#1d4ed8"/>
<circle cx="382.65" cy="523.16" r="3.2" fill="#1d4ed8"/>
<circle cx="386.89" cy="522.76" r="3.2" fill="#1d4ed8"/>
<circle cx="391.13" cy="522.35" r="3.2" fill="#1d4ed8"/>
<circle cx="395.37" cy="521.54" r="3.2" fill="#1d4ed8"/>
<circle cx="399.61" cy="519.52" r="3.2" fill="#1d4ed8"/>
<circle cx="403.85" cy="517.50" r="3.2" fill="#1d4ed8"/>
<circle cx="408.09" cy="517.50" r="3.2" fill="#1d4ed8"/>
<circle cx="412.33" cy="517.50" r="3.2" fill="#1d4ed8"/>
<circle cx="416.58" cy="517.50" r="3.2" fill="#1d4ed8"/>
<circle cx="420.82" cy="517.50" r="3.2" fill="#1d4ed8"/>
<circle cx="425.06" cy="517.50" r="3.2" fill="#1d4ed8"/>
<circle cx="429.30" cy="517.10" r="3.2" fill="#1d4ed8"/>
<circle cx="433.54" cy="516.69" r="3.2" fill="#1d4ed8"/>
<circle cx="437.78" cy="515.48" r="3.2" fill="#1d4ed8"/>
<circle cx="442.02" cy="515.07" r="3.2" fill="#1d4ed8"/>
<circle cx="446.26" cy="514.67" r="3.2" fill="#1d4ed8"/>
<circle cx="450.51" cy="513.86" r="3.2" fill="#1d4ed8"/>
<circle cx="454.75" cy="514.26" r="3.2" fill="#1d4ed8"/>
<circle cx="458.99" cy="512.24" r="3.2" fill="#1d4ed8"/>
<circle cx="463.23" cy="511.84" r="3.2" fill="#1d4ed8"/>
<circle cx="467.47" cy="511.84" r="3.2" fill="#1d4ed8"/>
<circle cx="471.71" cy="511.03" r="3.2" fill="#1d4ed8"/>
<circle cx="475.95" cy="509.82" r="3.2" fill="#1d4ed8"/>
<circle cx="480.19" cy="507.79" r="3.2" fill="#1d4ed8"/>
<circle cx="484.44" cy="506.99" r="3.2" fill="#1d4ed8"/>
<circle cx="488.68" cy="506.58" r="3.2" fill="#1d4ed8"/>
<circle cx="492.92" cy="509.41" r="3.2" fill="#1d4ed8"/>
<circle cx="497.16" cy="509.01" r="3.2" fill="#1d4ed8"/>
<circle cx="501.40" cy="504.96" r="3.2" fill="#1d4ed8"/>
<circle cx="505.64" cy="504.56" r="3.2" fill="#1d4ed8"/>
<circle cx="509.88" cy="504.15" r="3.2" fill="#1d4ed8"/>
<circle cx="514.12" cy="504.56" r="3.2" fill="#1d4ed8"/>
<circle cx="518.37" cy="503.75" r="3.2" fill="#1d4ed8"/>
<circle cx="522.61" cy="503.75" r="3.2" fill="#1d4ed8"/>
<circle cx="526.85" cy="503.35" r="3.2" fill="#1d4ed8"/>
<circle cx="531.09" cy="499.30" r="3.2" fill="#1d4ed8"/>
<circle cx="535.33" cy="496.47" r="3.2" fill="#1d4ed8"/>
<circle cx="539.57" cy="490.00" r="3.2" fill="#1d4ed8"/>
<circle cx="543.81" cy="484.34" r="3.2" fill="#1d4ed8"/>
<circle cx="548.05" cy="481.10" r="3.2" fill="#1d4ed8"/>
<circle cx="552.30" cy="480.29" r="3.2" fill="#1d4ed8"/>
<circle cx="556.54" cy="480.70" r="3.2" fill="#1d4ed8"/>
<circle cx="560.78" cy="460.88" r="3.2" fill="#1d4ed8"/>
<circle cx="565.02" cy="459.26" r="3.2" fill="#1d4ed8"/>
<circle cx="569.26" cy="458.05" r="3.2" fill="#1d4ed8"/>
<circle cx="573.50" cy="456.03" r="3.2" fill="#1d4ed8"/>
<circle cx="577.74" cy="456.03" r="3.2" fill="#1d4ed8"/>
<circle cx="581.98" cy="454.41" r="3.2" fill="#1d4ed8"/>
<circle cx="586.23" cy="450.77" r="3.2" fill="#1d4ed8"/>
<circle cx="590.47" cy="444.30" r="3.2" fill="#1d4ed8"/>
<circle cx="594.71" cy="443.90" r="3.2" fill="#1d4ed8"/>
<circle cx="598.95" cy="600.00" r="3.2" fill="#1d4ed8"/>
<circle cx="603.19" cy="441.88" r="3.2" fill="#1d4ed8"/>
<circle cx="607.43" cy="440.66" r="3.2" fill="#1d4ed8"/>
<circle cx="611.67" cy="439.45" r="3.2" fill="#1d4ed8"/>
<circle cx="615.91" cy="439.04" r="3.2" fill="#1d4ed8"/>
<circle cx="620.16" cy="438.64" r="3.2" fill="#1d4ed8"/>
<circle cx="624.40" cy="437.83" r="3.2" fill="#1d4ed8"/>
<circle cx="628.64" cy="436.62" r="3.2" fill="#1d4ed8"/>
<circle cx="632.88" cy="436.62" r="3.2" fill="#1d4ed8"/>
<circle cx="637.12" cy="434.60" r="3.2" fill="#1d4ed8"/>
<circle cx="641.36" cy="432.17" r="3.2" fill="#1d4ed8"/>
<circle cx="645.60" cy="429.34" r="3.2" fill="#1d4ed8"/>
<circle cx="649.84" cy="428.93" r="3.2" fill="#1d4ed8"/>
<circle cx="654.09" cy="428.53" r="3.2" fill="#1d4ed8"/>
<circle cx="658.33" cy="427.72" r="3.2" fill="#1d4ed8"/>
<circle cx="662.57" cy="426.91" r="3.2" fill="#1d4ed8"/>
<circle cx="666.81" cy="426.10" r="3.2" fill="#1d4ed8"/>
<circle cx="671.05" cy="426.10" r="3.2" fill="#1d4ed8"/>
<circle cx="675.29" cy="426.10" r="3.2" fill="#1d4ed8"/>
<circle cx="679.53" cy="419.63" r="3.2" fill="#1d4ed8"/>
<circle cx="683.77" cy="419.23" r="3.2" fill="#1d4ed8"/>
<circle cx="688.02" cy="418.42" r="3.2" fill="#1d4ed8"/>
<circle cx="692.26" cy="418.01" r="3.2" fill="#1d4ed8"/>
<circle cx="696.50" cy="417.61" r="3.2" fill="#1d4ed8"/>
<circle cx="700.74" cy="417.61" r="3.2" fill="#1d4ed8"/>
<circle cx="704.98" cy="417.61" r="3.2" fill="#1d4ed8"/>
<circle cx="709.22" cy="417.21" r="3.2" fill="#1d4ed8"/>
<circle cx="713.46" cy="417.21" r="3.2" fill="#1d4ed8"/>
<circle cx="717.70" cy="413.57" r="3.2" fill="#1d4ed8"/>
<circle cx="721.95" cy="411.95" r="3.2" fill="#1d4ed8"/>
<circle cx="726.19" cy="412.76" r="3.2" fill="#1d4ed8"/>
<circle cx="730.43" cy="410.74" r="3.2" fill="#1d4ed8"/>
<circle cx="734.67" cy="410.74" r="3.2" fill="#1d4ed8"/>
<circle cx="738.91" cy="410.33" r="3.2" fill="#1d4ed8"/>
<circle cx="743.15" cy="410.33" r="3.2" fill="#1d4ed8"/>
<circle cx="747.39" cy="410.33" r="3.2" fill="#1d4ed8"/>
<circle cx="751.63" cy="409.93" r="3.2" fill="#1d4ed8"/>
<circle cx="755.88" cy="409.93" r="3.2" fill="#1d4ed8"/>
<circle cx="760.12" cy="409.93" r="3.2" fill="#1d4ed8"/>
<circle cx="764.36" cy="409.52" r="3.2" fill="#1d4ed8"/>
<circle cx="768.60" cy="409.52" r="3.2" fill="#1d4ed8"/>
<circle cx="772.84" cy="409.12" r="3.2" fill="#1d4ed8"/>
<circle cx="777.08" cy="409.52" r="3.2" fill="#1d4ed8"/>
<circle cx="781.32" cy="409.12" r="3.2" fill="#1d4ed8"/>
<circle cx="785.56" cy="407.50" r="3.2" fill="#1d4ed8"/>
<circle cx="789.81" cy="407.10" r="3.2" fill="#1d4ed8"/>
<circle cx="794.05" cy="403.05" r="3.2" fill="#1d4ed8"/>
<circle cx="798.29" cy="399.82" r="3.2" fill="#1d4ed8"/>
<circle cx="802.53" cy="400.22" r="3.2" fill="#1d4ed8"/>
<circle cx="806.77" cy="400.62" r="3.2" fill="#1d4ed8"/>
<circle cx="811.01" cy="400.62" r="3.2" fill="#1d4ed8"/>
<circle cx="815.25" cy="399.41" r="3.2" fill="#1d4ed8"/>
<circle cx="819.49" cy="392.94" r="3.2" fill="#1d4ed8"/>
<circle cx="823.74" cy="391.32" r="3.2" fill="#1d4ed8"/>
<circle cx="827.98" cy="389.30" r="3.2" fill="#1d4ed8"/>
<circle cx="832.22" cy="389.30" r="3.2" fill="#1d4ed8"/>
<circle cx="836.46" cy="388.49" r="3.2" fill="#1d4ed8"/>
<circle cx="840.70" cy="375.15" r="3.2" fill="#1d4ed8"/>
<circle cx="844.94" cy="374.74" r="3.2" fill="#1d4ed8"/>
<circle cx="849.18" cy="374.74" r="3.2" fill="#1d4ed8"/>
<circle cx="853.42" cy="374.74" r="3.2" fill="#1d4ed8"/>
<circle cx="857.67" cy="374.74" r="3.2" fill="#1d4ed8"/>
<circle cx="861.91" cy="374.34" r="3.2" fill="#1d4ed8"/>
<circle cx="866.15" cy="374.34" r="3.2" fill="#1d4ed8"/>
<circle cx="870.39" cy="374.34" r="3.2" fill="#1d4ed8"/>
<circle cx="874.63" cy="374.34" r="3.2" fill="#1d4ed8"/>
<circle cx="878.87" cy="374.34" r="3.2" fill="#1d4ed8"/>
<circle cx="883.11" cy="373.93" r="3.2" fill="#1d4ed8"/>
<circle cx="887.35" cy="373.12" r="3.2" fill="#1d4ed8"/>
<circle cx="891.60" cy="372.72" r="3.2" fill="#1d4ed8"/>
<circle cx="895.84" cy="373.53" r="3.2" fill="#1d4ed8"/>
<circle cx="900.08" cy="435.81" r="3.2" fill="#1d4ed8"/>
<circle cx="904.32" cy="372.32" r="3.2" fill="#1d4ed8"/>
<circle cx="908.56" cy="372.72" r="3.2" fill="#1d4ed8"/>
<circle cx="912.80" cy="371.91" r="3.2" fill="#1d4ed8"/>
<circle cx="917.04" cy="371.91" r="3.2" fill="#1d4ed8"/>
<circle cx="921.28" cy="372.32" r="3.2" fill="#1d4ed8"/>
<circle cx="925.53" cy="371.10" r="3.2" fill="#1d4ed8"/>
<circle cx="929.77" cy="369.89" r="3.2" fill="#1d4ed8"/>
<circle cx="934.01" cy="369.89" r="3.2" fill="#1d4ed8"/>
<circle cx="938.25" cy="369.89" r="3.2" fill="#1d4ed8"/>
<circle cx="942.49" cy="369.49" r="3.2" fill="#1d4ed8"/>
<circle cx="946.73" cy="369.89" r="3.2" fill="#1d4ed8"/>
<circle cx="950.97" cy="369.08" r="3.2" fill="#1d4ed8"/>
<circle cx="955.21" cy="368.68" r="3.2" fill="#1d4ed8"/>
<circle cx="959.46" cy="368.27" r="3.2" fill="#1d4ed8"/>
<circle cx="963.70" cy="367.87" r="3.2" fill="#1d4ed8"/>
<circle cx="967.94" cy="367.06" r="3.2" fill="#1d4ed8"/>
<circle cx="972.18" cy="367.46" r="3.2" fill="#1d4ed8"/>
<circle cx="976.42" cy="367.06" r="3.2" fill="#1d4ed8"/>
<circle cx="980.66" cy="366.25" r="3.2" fill="#1d4ed8"/>
<circle cx="984.90" cy="368.27" r="3.2" fill="#1d4ed8"/>
<circle cx="989.14" cy="368.68" r="3.2" fill="#1d4ed8"/>
<circle cx="993.39" cy="368.68" r="3.2" fill="#1d4ed8"/>
<circle cx="997.63" cy="368.27" r="3.2" fill="#1d4ed8"/>
<circle cx="1001.87" cy="369.08" r="3.2" fill="#1d4ed8"/>
<circle cx="1006.11" cy="367.87" r="3.2" fill="#1d4ed8"/>
<circle cx="1010.35" cy="367.46" r="3.2" fill="#1d4ed8"/>
<circle cx="1014.59" cy="367.06" r="3.2" fill="#1d4ed8"/>
<circle cx="1018.83" cy="360.18" r="3.2" fill="#1d4ed8"/>
<circle cx="1023.07" cy="359.78" r="3.2" fill="#1d4ed8"/>
<circle cx="1027.32" cy="359.38" r="3.2" fill="#1d4ed8"/>
<circle cx="1031.56" cy="356.95" r="3.2" fill="#1d4ed8"/>
<circle cx="1035.80" cy="357.35" r="3.2" fill="#1d4ed8"/>
<circle cx="1040.04" cy="357.76" r="3.2" fill="#1d4ed8"/>
<circle cx="1044.28" cy="355.33" r="3.2" fill="#1d4ed8"/>
<circle cx="1048.52" cy="355.74" r="3.2" fill="#1d4ed8"/>
<circle cx="1052.76" cy="357.35" r="3.2" fill="#1d4ed8"/>
<circle cx="1057.00" cy="355.33" r="3.2" fill="#1d4ed8"/>
<circle cx="1061.25" cy="356.14" r="3.2" fill="#1d4ed8"/>
<circle cx="1065.49" cy="355.74" r="3.2" fill="#1d4ed8"/>
<circle cx="1069.73" cy="356.14" r="3.2" fill="#1d4ed8"/>
<circle cx="1073.97" cy="354.12" r="3.2" fill="#1d4ed8"/>
<circle cx="1078.21" cy="354.93" r="3.2" fill="#1d4ed8"/>
<circle cx="1082.45" cy="356.14" r="3.2" fill="#1d4ed8"/>
<circle cx="1086.69" cy="354.52" r="3.2" fill="#1d4ed8"/>
<circle cx="1090.93" cy="353.71" r="3.2" fill="#1d4ed8"/>
<circle cx="1095.18" cy="354.12" r="3.2" fill="#1d4ed8"/>
<circle cx="1099.42" cy="354.93" r="3.2" fill="#1d4ed8"/>
<circle cx="1103.66" cy="352.90" r="3.2" fill="#1d4ed8"/>
<circle cx="1107.90" cy="353.71" r="3.2" fill="#1d4ed8"/>
<circle cx="1112.14" cy="353.31" r="3.2" fill="#1d4ed8"/>
<circle cx="1116.38" cy="353.31" r="3.2" fill="#1d4ed8"/>
<circle cx="1120.62" cy="354.52" r="3.2" fill="#1d4ed8"/>
<circle cx="1124.86" cy="352.90" r="3.2" fill="#1d4ed8"/>
<circle cx="1129.11" cy="352.50" r="3.2" fill="#1d4ed8"/>
<circle cx="1133.35" cy="352.50" r="3.2" fill="#1d4ed8"/>
<circle cx="1137.59" cy="353.31" r="3.2" fill="#1d4ed8"/>
<circle cx="1141.83" cy="352.50" r="3.2" fill="#1d4ed8"/>
<circle cx="1146.07" cy="353.71" r="3.2" fill="#1d4ed8"/>
<circle cx="1150.31" cy="354.12" r="3.2" fill="#1d4ed8"/>
<circle cx="1154.55" cy="352.50" r="3.2" fill="#1d4ed8"/>
<circle cx="1158.79" cy="352.90" r="3.2" fill="#1d4ed8"/>
<circle cx="1163.04" cy="352.50" r="3.2" fill="#1d4ed8"/>
<circle cx="1167.28" cy="352.10" r="3.2" fill="#1d4ed8"/>
<circle cx="1171.52" cy="351.69" r="3.2" fill="#1d4ed8"/>
<circle cx="1175.76" cy="352.10" r="3.2" fill="#1d4ed8"/>
<circle cx="1180.00" cy="354.12" r="3.2" fill="#1d4ed8"/>
<text x="635" y="695" text-anchor="middle" font-size="14" fill="#111" font-family="sans-serif">Date</text>
<text x="24" y="325" text-anchor="middle" font-size="14" fill="#111" transform="rotate(-90 24,325)" font-family="sans-serif">Passed files</text>
</svg>
