<?xml version="1.0" encoding="UTF-8"?>
<svg xmlns="http://www.w3.org/2000/svg" width="1280" height="720" viewBox="0 0 1280 720">
<rect width="100%" height="100%" fill="#ffffff"/>
<text x="640" y="30" text-anchor="middle" font-size="22" font-family="sans-serif">Roast passed files history</text>
<line x1="90" y1="600" x2="1180" y2="600" stroke="#333" stroke-width="1.5"/>
<line x1="90" y1="50" x2="90" y2="600" stroke="#333" stroke-width="1.5"/>
<line x1="90" y1="600.00" x2="1180" y2="600.00" stroke="#e5e7eb" stroke-width="1"/>
<text x="78" y="605.00" text-anchor="end" font-size="12" fill="#111" font-family="sans-serif">0</text>
<line x1="90" y1="398.09" x2="1180" y2="398.09" stroke="#e5e7eb" stroke-width="1"/>
<text x="78" y="403.09" text-anchor="end" font-size="12" fill="#111" font-family="sans-serif">500</text>
<line x1="90" y1="196.18" x2="1180" y2="196.18" stroke="#e5e7eb" stroke-width="1"/>
<text x="78" y="201.18" text-anchor="end" font-size="12" fill="#111" font-family="sans-serif">1000</text>
<line x1="90.00" y1="600" x2="90.00" y2="606" stroke="#333" stroke-width="1"/>
<text x="90.00" y="624" text-anchor="end" font-size="11" fill="#111" transform="rotate(-40 90.00,624)" font-family="sans-serif">2026-02-12</text>
<line x1="219.76" y1="600" x2="219.76" y2="606" stroke="#333" stroke-width="1"/>
<text x="219.76" y="624" text-anchor="end" font-size="11" fill="#111" transform="rotate(-40 219.76,624)" font-family="sans-serif">2026-02-13</text>
<line x1="349.52" y1="600" x2="349.52" y2="606" stroke="#333" stroke-width="1"/>
<text x="349.52" y="624" text-anchor="end" font-size="11" fill="#111" transform="rotate(-40 349.52,624)" font-family="sans-serif">2026-02-14</text>
<line x1="479.29" y1="600" x2="479.29" y2="606" stroke="#333" stroke-width="1"/>
<text x="479.29" y="624" text-anchor="end" font-size="11" fill="#111" transform="rotate(-40 479.29,624)" font-family="sans-serif">2026-02-15</text>
<line x1="609.05" y1="600" x2="609.05" y2="606" stroke="#333" stroke-width="1"/>
<text x="609.05" y="624" text-anchor="end" font-size="11" fill="#111" transform="rotate(-40 609.05,624)" font-family="sans-serif">2026-02-15</text>
<line x1="738.81" y1="600" x2="738.81" y2="606" stroke="#333" stroke-width="1"/>
<text x="738.81" y="624" text-anchor="end" font-size="11" fill="#111" transform="rotate(-40 738.81,624)" font-family="sans-serif">2026-02-16</text>
<line x1="868.57" y1="600" x2="868.57" y2="606" stroke="#333" stroke-width="1"/>
<text x="868.57" y="624" text-anchor="end" font-size="11" fill="#111" transform="rotate(-40 868.57,624)" font-family="sans-serif">2026-02-17</text>
<line x1="998.33" y1="600" x2="998.33" y2="606" stroke="#333" stroke-width="1"/>
<text x="998.33" y="624" text-anchor="end" font-size="11" fill="#111" transform="rotate(-40 998.33,624)" font-family="sans-serif">2026-02-17</text>
<line x1="1128.10" y1="600" x2="1128.10" y2="606" stroke="#333" stroke-width="1"/>
<text x="1128.10" y="624" text-anchor="end" font-size="11" fill="#111" transform="rotate(-40 1128.10,624)" font-family="sans-serif">2026-02-17</text>
<line x1="1180.00" y1="600" x2="1180.00" y2="606" stroke="#333" stroke-width="1"/>
<text x="1180.00" y="624" text-anchor="end" font-size="11" fill="#111" transform="rotate(-40 1180.00,624)" font-family="sans-serif">2026-02-17</text>
<line x1="90" y1="75.84" x2="1180" y2="75.84" stroke="#dc2626" stroke-width="1.5" stroke-dasharray="8,4"/>
<text x="1184" y="79.84" font-size="12" fill="#dc2626" font-family="sans-serif">Goal: 1298</text>
<polyline fill="none" stroke="#2563eb" stroke-width="3" points="90.00,540.64 115.95,538.62 141.90,537.00 167.86,534.58 193.81,534.58 219.76,533.37 245.71,532.56 271.67,532.97 297.62,532.16 323.57,532.56 349.52,532.16 375.48,568.50 401.43,568.50 427.38,566.48 453.33,545.08 479.29,545.08 505.24,544.27 531.19,543.87 557.14,543.87 583.10,543.47 609.05,541.85 635.00,541.45 660.95,541.04 686.90,541.04 712.86,539.43 738.81,539.43 764.76,556.79 790.71,556.79 816.67,555.58 842.62,551.14 868.57,539.02 894.52,539.02 920.48,539.02 946.43,538.22 972.38,537.00 998.33,537.00 1024.29,536.60 1050.24,536.60 1076.19,556.79 1102.14,556.79 1128.10,556.79 1154.05,556.79 1180.00,535.39"/>
<circle cx="90.00" cy="540.64" r="3.2" fill="#1d4ed8"/>
<circle cx="115.95" cy="538.62" r="3.2" fill="#1d4ed8"/>
<circle cx="141.90" cy="537.00" r="3.2" fill="#1d4ed8"/>
<circle cx="167.86" cy="534.58" r="3.2" fill="#1d4ed8"/>
<circle cx="193.81" cy="534.58" r="3.2" fill="#1d4ed8"/>
<circle cx="219.76" cy="533.37" r="3.2" fill="#1d4ed8"/>
<circle cx="245.71" cy="532.56" r="3.2" fill="#1d4ed8"/>
<circle cx="271.67" cy="532.97" r="3.2" fill="#1d4ed8"/>
<circle cx="297.62" cy="532.16" r="3.2" fill="#1d4ed8"/>
<circle cx="323.57" cy="532.56" r="3.2" fill="#1d4ed8"/>
<circle cx="349.52" cy="532.16" r="3.2" fill="#1d4ed8"/>
<circle cx="375.48" cy="568.50" r="3.2" fill="#1d4ed8"/>
<circle cx="401.43" cy="568.50" r="3.2" fill="#1d4ed8"/>
<circle cx="427.38" cy="566.48" r="3.2" fill="#1d4ed8"/>
<circle cx="453.33" cy="545.08" r="3.2" fill="#1d4ed8"/>
<circle cx="479.29" cy="545.08" r="3.2" fill="#1d4ed8"/>
<circle cx="505.24" cy="544.27" r="3.2" fill="#1d4ed8"/>
<circle cx="531.19" cy="543.87" r="3.2" fill="#1d4ed8"/>
<circle cx="557.14" cy="543.87" r="3.2" fill="#1d4ed8"/>
<circle cx="583.10" cy="543.47" r="3.2" fill="#1d4ed8"/>
<circle cx="609.05" cy="541.85" r="3.2" fill="#1d4ed8"/>
<circle cx="635.00" cy="541.45" r="3.2" fill="#1d4ed8"/>
<circle cx="660.95" cy="541.04" r="3.2" fill="#1d4ed8"/>
<circle cx="686.90" cy="541.04" r="3.2" fill="#1d4ed8"/>
<circle cx="712.86" cy="539.43" r="3.2" fill="#1d4ed8"/>
<circle cx="738.81" cy="539.43" r="3.2" fill="#1d4ed8"/>
<circle cx="764.76" cy="556.79" r="3.2" fill="#1d4ed8"/>
<circle cx="790.71" cy="556.79" r="3.2" fill="#1d4ed8"/>
<circle cx="816.67" cy="555.58" r="3.2" fill="#1d4ed8"/>
<circle cx="842.62" cy="551.14" r="3.2" fill="#1d4ed8"/>
<circle cx="868.57" cy="539.02" r="3.2" fill="#1d4ed8"/>
<circle cx="894.52" cy="539.02" r="3.2" fill="#1d4ed8"/>
<circle cx="920.48" cy="539.02" r="3.2" fill="#1d4ed8"/>
<circle cx="946.43" cy="538.22" r="3.2" fill="#1d4ed8"/>
<circle cx="972.38" cy="537.00" r="3.2" fill="#1d4ed8"/>
<circle cx="998.33" cy="537.00" r="3.2" fill="#1d4ed8"/>
<circle cx="1024.29" cy="536.60" r="3.2" fill="#1d4ed8"/>
<circle cx="1050.24" cy="536.60" r="3.2" fill="#1d4ed8"/>
<circle cx="1076.19" cy="556.79" r="3.2" fill="#1d4ed8"/>
<circle cx="1102.14" cy="556.79" r="3.2" fill="#1d4ed8"/>
<circle cx="1128.10" cy="556.79" r="3.2" fill="#1d4ed8"/>
<circle cx="1154.05" cy="556.79" r="3.2" fill="#1d4ed8"/>
<circle cx="1180.00" cy="535.39" r="3.2" fill="#1d4ed8"/>
<text x="635" y="695" text-anchor="middle" font-size="14" fill="#111" font-family="sans-serif">Date</text>
<text x="24" y="325" text-anchor="middle" font-size="14" fill="#111" transform="rotate(-90 24,325)" font-family="sans-serif">Passed files</text>
</svg>
