<?xml version="1.0" encoding="UTF-8"?>
<svg xmlns="http://www.w3.org/2000/svg" width="1280" height="720" viewBox="0 0 1280 720">
<rect width="100%" height="100%" fill="#ffffff"/>
<text x="640" y="30" text-anchor="middle" font-size="22" font-family="sans-serif">Roast passed files history</text>
<line x1="90" y1="600" x2="1180" y2="600" stroke="#333" stroke-width="1.5"/>
<line x1="90" y1="50" x2="90" y2="600" stroke="#333" stroke-width="1.5"/>
<line x1="90" y1="600.00" x2="1180" y2="600.00" stroke="#e5e7eb" stroke-width="1"/>
<text x="78" y="605.00" text-anchor="end" font-size="12" fill="#111" font-family="sans-serif">0</text>
<line x1="90" y1="397.79" x2="1180" y2="397.79" stroke="#e5e7eb" stroke-width="1"/>
<text x="78" y="402.79" text-anchor="end" font-size="12" fill="#111" font-family="sans-serif">500</text>
<line x1="90" y1="195.59" x2="1180" y2="195.59" stroke="#e5e7eb" stroke-width="1"/>
<text x="78" y="200.59" text-anchor="end" font-size="12" fill="#111" font-family="sans-serif">1000</text>
<line x1="90.00" y1="600" x2="90.00" y2="606" stroke="#333" stroke-width="1"/>
<text x="90.00" y="624" text-anchor="end" font-size="11" fill="#111" transform="rotate(-40 90.00,624)" font-family="sans-serif">2026-02-12</text>
<line x1="224.38" y1="600" x2="224.38" y2="606" stroke="#333" stroke-width="1"/>
<text x="224.38" y="624" text-anchor="end" font-size="11" fill="#111" transform="rotate(-40 224.38,624)" font-family="sans-serif">2026-02-17</text>
<line x1="358.77" y1="600" x2="358.77" y2="606" stroke="#333" stroke-width="1"/>
<text x="358.77" y="624" text-anchor="end" font-size="11" fill="#111" transform="rotate(-40 358.77,624)" font-family="sans-serif">2026-02-18</text>
<line x1="493.15" y1="600" x2="493.15" y2="606" stroke="#333" stroke-width="1"/>
<text x="493.15" y="624" text-anchor="end" font-size="11" fill="#111" transform="rotate(-40 493.15,624)" font-family="sans-serif">2026-02-20</text>
<line x1="627.53" y1="600" x2="627.53" y2="606" stroke="#333" stroke-width="1"/>
<text x="627.53" y="624" text-anchor="end" font-size="11" fill="#111" transform="rotate(-40 627.53,624)" font-family="sans-serif">2026-02-24</text>
<line x1="761.92" y1="600" x2="761.92" y2="606" stroke="#333" stroke-width="1"/>
<text x="761.92" y="624" text-anchor="end" font-size="11" fill="#111" transform="rotate(-40 761.92,624)" font-family="sans-serif">2026-02-25</text>
<line x1="896.30" y1="600" x2="896.30" y2="606" stroke="#333" stroke-width="1"/>
<text x="896.30" y="624" text-anchor="end" font-size="11" fill="#111" transform="rotate(-40 896.30,624)" font-family="sans-serif">2026-02-27</text>
<line x1="1030.68" y1="600" x2="1030.68" y2="606" stroke="#333" stroke-width="1"/>
<text x="1030.68" y="624" text-anchor="end" font-size="11" fill="#111" transform="rotate(-40 1030.68,624)" font-family="sans-serif">2026-02-28</text>
<line x1="1165.07" y1="600" x2="1165.07" y2="606" stroke="#333" stroke-width="1"/>
<text x="1165.07" y="624" text-anchor="end" font-size="11" fill="#111" transform="rotate(-40 1165.07,624)" font-family="sans-serif">2026-03-04</text>
<line x1="1180.00" y1="600" x2="1180.00" y2="606" stroke="#333" stroke-width="1"/>
<text x="1180.00" y="624" text-anchor="end" font-size="11" fill="#111" transform="rotate(-40 1180.00,624)" font-family="sans-serif">2026-03-05</text>
<line x1="90" y1="75.88" x2="1180" y2="75.88" stroke="#dc2626" stroke-width="1.5" stroke-dasharray="8,4"/>
<text x="1184" y="79.88" font-size="12" fill="#dc2626" font-family="sans-serif">Goal: 1296</text>
<polyline fill="none" stroke="#2563eb" stroke-width="3" points="90.00,540.55 94.98,538.53 99.95,536.91 104.93,534.49 109.91,534.49 114.89,533.27 119.86,532.46 124.84,532.87 129.82,532.06 134.79,532.46 139.77,532.06 144.75,568.46 149.73,568.46 154.70,566.43 159.68,545.00 164.66,545.00 169.63,544.19 174.61,543.79 179.59,543.79 184.57,543.38 189.54,541.76 194.52,541.36 199.50,540.96 204.47,540.96 209.45,539.34 214.43,539.34 219.41,556.73 224.38,556.73 229.36,555.51 234.34,551.07 239.32,538.93 244.29,538.93 249.27,538.93 254.25,538.12 259.22,536.91 264.20,536.91 269.18,536.51 274.16,536.51 279.13,556.73 284.11,556.73 289.09,556.73 294.06,556.73 299.04,535.29 304.02,535.29 309.00,535.29 313.97,535.29 318.95,534.49 323.93,534.08 328.90,533.68 333.88,532.87 338.86,532.06 343.84,532.06 348.81,531.25 353.79,530.85 358.77,530.44 363.74,530.04 368.72,530.04 373.70,529.23 378.68,529.23 383.65,529.23 388.63,528.42 393.61,528.42 398.58,527.61 403.56,527.21 408.54,526.80 413.52,526.40 418.49,525.18 423.47,523.57 428.45,523.57 433.42,523.16 438.40,522.76 443.38,522.35 448.36,521.54 453.33,519.52 458.31,517.50 463.29,517.50 468.26,517.50 473.24,517.50 478.22,517.50 483.20,517.50 488.17,517.10 493.15,516.69 498.13,515.48 503.11,515.07 508.08,514.67 513.06,513.86 518.04,514.26 523.01,512.24 527.99,511.84 532.97,511.84 537.95,511.03 542.92,509.82 547.90,507.79 552.88,506.99 557.85,506.58 562.83,509.41 567.81,509.01 572.79,504.96 577.76,504.56 582.74,504.15 587.72,504.56 592.69,503.75 597.67,503.75 602.65,503.35 607.63,499.30 612.60,496.47 617.58,490.00 622.56,484.34 627.53,481.10 632.51,480.29 637.49,480.70 642.47,460.88 647.44,459.26 652.42,458.05 657.40,456.03 662.37,456.03 667.35,454.41 672.33,450.77 677.31,444.30 682.28,443.90 687.26,600.00 692.24,441.88 697.21,440.66 702.19,439.45 707.17,439.04 712.15,438.64 717.12,437.83 722.10,436.62 727.08,436.62 732.05,434.60 737.03,432.17 742.01,429.34 746.99,428.93 751.96,428.53 756.94,427.72 761.92,426.91 766.89,426.10 771.87,426.10 776.85,426.10 781.83,419.63 786.80,419.23 791.78,418.42 796.76,418.01 801.74,417.61 806.71,417.61 811.69,417.61 816.67,417.21 821.64,417.21 826.62,413.57 831.60,411.95 836.58,412.76 841.55,410.74 846.53,410.74 851.51,410.33 856.48,410.33 861.46,410.33 866.44,409.93 871.42,409.93 876.39,409.93 881.37,409.52 886.35,409.52 891.32,409.12 896.30,409.52 901.28,409.12 906.26,407.50 911.23,407.10 916.21,403.05 921.19,399.82 926.16,400.22 931.14,400.62 936.12,400.62 941.10,399.41 946.07,392.94 951.05,391.32 956.03,389.30 961.00,389.30 965.98,388.49 970.96,375.15 975.94,374.74 980.91,374.74 985.89,374.74 990.87,374.74 995.84,374.34 1000.82,374.34 1005.80,374.34 1010.78,374.34 1015.75,374.34 1020.73,373.93 1025.71,373.12 1030.68,372.72 1035.66,373.53 1040.64,435.81 1045.62,372.32 1050.59,372.72 1055.57,371.91 1060.55,371.91 1065.53,372.32 1070.50,371.10 1075.48,369.89 1080.46,369.89 1085.43,369.89 1090.41,369.49 1095.39,369.89 1100.37,369.08 1105.34,368.68 1110.32,368.27 1115.30,367.87 1120.27,367.06 1125.25,367.46 1130.23,367.06 1135.21,366.25 1140.18,368.27 1145.16,368.68 1150.14,368.68 1155.11,368.27 1160.09,369.08 1165.07,367.87 1170.05,367.46 1175.02,367.06 1180.00,360.18"/>
<circle cx="90.00" cy="540.55" r="3.2" fill="#1d4ed8"/>
<circle cx="94.98" cy="538.53" r="3.2" fill="#1d4ed8"/>
<circle cx="99.95" cy="536.91" r="3.2" fill="#1d4ed8"/>
<circle cx="104.93" cy="534.49" r="3.2" fill="#1d4ed8"/>
<circle cx="109.91" cy="534.49" r="3.2" fill="#1d4ed8"/>
<circle cx="114.89" cy="533.27" r="3.2" fill="#1d4ed8"/>
<circle cx="119.86" cy="532.46" r="3.2" fill="#1d4ed8"/>
<circle cx="124.84" cy="532.87" r="3.2" fill="#1d4ed8"/>
<circle cx="129.82" cy="532.06" r="3.2" fill="#1d4ed8"/>
<circle cx="134.79" cy="532.46" r="3.2" fill="#1d4ed8"/>
<circle cx="139.77" cy="532.06" r="3.2" fill="#1d4ed8"/>
<circle cx="144.75" cy="568.46" r="3.2" fill="#1d4ed8"/>
<circle cx="149.73" cy="568.46" r="3.2" fill="#1d4ed8"/>
<circle cx="154.70" cy="566.43" r="3.2" fill="#1d4ed8"/>
<circle cx="159.68" cy="545.00" r="3.2" fill="#1d4ed8"/>
<circle cx="164.66" cy="545.00" r="3.2" fill="#1d4ed8"/>
<circle cx="169.63" cy="544.19" r="3.2" fill="#1d4ed8"/>
<circle cx="174.61" cy="543.79" r="3.2" fill="#1d4ed8"/>
<circle cx="179.59" cy="543.79" r="3.2" fill="#1d4ed8"/>
<circle cx="184.57" cy="543.38" r="3.2" fill="#1d4ed8"/>
<circle cx="189.54" cy="541.76" r="3.2" fill="#1d4ed8"/>
<circle cx="194.52" cy="541.36" r="3.2" fill="#1d4ed8"/>
<circle cx="199.50" cy="540.96" r="3.2" fill="#1d4ed8"/>
<circle cx="204.47" cy="540.96" r="3.2" fill="#1d4ed8"/>
<circle cx="209.45" cy="539.34" r="3.2" fill="#1d4ed8"/>
<circle cx="214.43" cy="539.34" r="3.2" fill="#1d4ed8"/>
<circle cx="219.41" cy="556.73" r="3.2" fill="#1d4ed8"/>
<circle cx="224.38" cy="556.73" r="3.2" fill="#1d4ed8"/>
<circle cx="229.36" cy="555.51" r="3.2" fill="#1d4ed8"/>
<circle cx="234.34" cy="551.07" r="3.2" fill="#1d4ed8"/>
<circle cx="239.32" cy="538.93" r="3.2" fill="#1d4ed8"/>
<circle cx="244.29" cy="538.93" r="3.2" fill="#1d4ed8"/>
<circle cx="249.27" cy="538.93" r="3.2" fill="#1d4ed8"/>
<circle cx="254.25" cy="538.12" r="3.2" fill="#1d4ed8"/>
<circle cx="259.22" cy="536.91" r="3.2" fill="#1d4ed8"/>
<circle cx="264.20" cy="536.91" r="3.2" fill="#1d4ed8"/>
<circle cx="269.18" cy="536.51" r="3.2" fill="#1d4ed8"/>
<circle cx="274.16" cy="536.51" r="3.2" fill="#1d4ed8"/>
<circle cx="279.13" cy="556.73" r="3.2" fill="#1d4ed8"/>
<circle cx="284.11" cy="556.73" r="3.2" fill="#1d4ed8"/>
<circle cx="289.09" cy="556.73" r="3.2" fill="#1d4ed8"/>
<circle cx="294.06" cy="556.73" r="3.2" fill="#1d4ed8"/>
<circle cx="299.04" cy="535.29" r="3.2" fill="#1d4ed8"/>
<circle cx="304.02" cy="535.29" r="3.2" fill="#1d4ed8"/>
<circle cx="309.00" cy="535.29" r="3.2" fill="#1d4ed8"/>
<circle cx="313.97" cy="535.29" r="3.2" fill="#1d4ed8"/>
<circle cx="318.95" cy="534.49" r="3.2" fill="#1d4ed8"/>
<circle cx="323.93" cy="534.08" r="3.2" fill="#1d4ed8"/>
<circle cx="328.90" cy="533.68" r="3.2" fill="#1d4ed8"/>
<circle cx="333.88" cy="532.87" r="3.2" fill="#1d4ed8"/>
<circle cx="338.86" cy="532.06" r="3.2" fill="#1d4ed8"/>
<circle cx="343.84" cy="532.06" r="3.2" fill="#1d4ed8"/>
<circle cx="348.81" cy="531.25" r="3.2" fill="#1d4ed8"/>
<circle cx="353.79" cy="530.85" r="3.2" fill="#1d4ed8"/>
<circle cx="358.77" cy="530.44" r="3.2" fill="#1d4ed8"/>
<circle cx="363.74" cy="530.04" r="3.2" fill="#1d4ed8"/>
<circle cx="368.72" cy="530.04" r="3.2" fill="#1d4ed8"/>
<circle cx="373.70" cy="529.23" r="3.2" fill="#1d4ed8"/>
<circle cx="378.68" cy="529.23" r="3.2" fill="#1d4ed8"/>
<circle cx="383.65" cy="529.23" r="3.2" fill="#1d4ed8"/>
<circle cx="388.63" cy="528.42" r="3.2" fill="#1d4ed8"/>
<circle cx="393.61" cy="528.42" r="3.2" fill="#1d4ed8"/>
<circle cx="398.58" cy="527.61" r="3.2" fill="#1d4ed8"/>
<circle cx="403.56" cy="527.21" r="3.2" fill="#1d4ed8"/>
<circle cx="408.54" cy="526.80" r="3.2" fill="#1d4ed8"/>
<circle cx="413.52" cy="526.40" r="3.2" fill="#1d4ed8"/>
<circle cx="418.49" cy="525.18" r="3.2" fill="#1d4ed8"/>
<circle cx="423.47" cy="523.57" r="3.2" fill="#1d4ed8"/>
<circle cx="428.45" cy="523.57" r="3.2" fill="#1d4ed8"/>
<circle cx="433.42" cy="523.16" r="3.2" fill="#1d4ed8"/>
<circle cx="438.40" cy="522.76" r="3.2" fill="#1d4ed8"/>
<circle cx="443.38" cy="522.35" r="3.2" fill="#1d4ed8"/>
<circle cx="448.36" cy="521.54" r="3.2" fill="#1d4ed8"/>
<circle cx="453.33" cy="519.52" r="3.2" fill="#1d4ed8"/>
<circle cx="458.31" cy="517.50" r="3.2" fill="#1d4ed8"/>
<circle cx="463.29" cy="517.50" r="3.2" fill="#1d4ed8"/>
<circle cx="468.26" cy="517.50" r="3.2" fill="#1d4ed8"/>
<circle cx="473.24" cy="517.50" r="3.2" fill="#1d4ed8"/>
<circle cx="478.22" cy="517.50" r="3.2" fill="#1d4ed8"/>
<circle cx="483.20" cy="517.50" r="3.2" fill="#1d4ed8"/>
<circle cx="488.17" cy="517.10" r="3.2" fill="#1d4ed8"/>
<circle cx="493.15" cy="516.69" r="3.2" fill="#1d4ed8"/>
<circle cx="498.13" cy="515.48" r="3.2" fill="#1d4ed8"/>
<circle cx="503.11" cy="515.07" r="3.2" fill="#1d4ed8"/>
<circle cx="508.08" cy="514.67" r="3.2" fill="#1d4ed8"/>
<circle cx="513.06" cy="513.86" r="3.2" fill="#1d4ed8"/>
<circle cx="518.04" cy="514.26" r="3.2" fill="#1d4ed8"/>
<circle cx="523.01" cy="512.24" r="3.2" fill="#1d4ed8"/>
<circle cx="527.99" cy="511.84" r="3.2" fill="#1d4ed8"/>
<circle cx="532.97" cy="511.84" r="3.2" fill="#1d4ed8"/>
<circle cx="537.95" cy="511.03" r="3.2" fill="#1d4ed8"/>
<circle cx="542.92" cy="509.82" r="3.2" fill="#1d4ed8"/>
<circle cx="547.90" cy="507.79" r="3.2" fill="#1d4ed8"/>
<circle cx="552.88" cy="506.99" r="3.2" fill="#1d4ed8"/>
<circle cx="557.85" cy="506.58" r="3.2" fill="#1d4ed8"/>
<circle cx="562.83" cy="509.41" r="3.2" fill="#1d4ed8"/>
<circle cx="567.81" cy="509.01" r="3.2" fill="#1d4ed8"/>
<circle cx="572.79" cy="504.96" r="3.2" fill="#1d4ed8"/>
<circle cx="577.76" cy="504.56" r="3.2" fill="#1d4ed8"/>
<circle cx="582.74" cy="504.15" r="3.2" fill="#1d4ed8"/>
<circle cx="587.72" cy="504.56" r="3.2" fill="#1d4ed8"/>
<circle cx="592.69" cy="503.75" r="3.2" fill="#1d4ed8"/>
<circle cx="597.67" cy="503.75" r="3.2" fill="#1d4ed8"/>
<circle cx="602.65" cy="503.35" r="3.2" fill="#1d4ed8"/>
<circle cx="607.63" cy="499.30" r="3.2" fill="#1d4ed8"/>
<circle cx="612.60" cy="496.47" r="3.2" fill="#1d4ed8"/>
<circle cx="617.58" cy="490.00" r="3.2" fill="#1d4ed8"/>
<circle cx="622.56" cy="484.34" r="3.2" fill="#1d4ed8"/>
<circle cx="627.53" cy="481.10" r="3.2" fill="#1d4ed8"/>
<circle cx="632.51" cy="480.29" r="3.2" fill="#1d4ed8"/>
<circle cx="637.49" cy="480.70" r="3.2" fill="#1d4ed8"/>
<circle cx="642.47" cy="460.88" r="3.2" fill="#1d4ed8"/>
<circle cx="647.44" cy="459.26" r="3.2" fill="#1d4ed8"/>
<circle cx="652.42" cy="458.05" r="3.2" fill="#1d4ed8"/>
<circle cx="657.40" cy="456.03" r="3.2" fill="#1d4ed8"/>
<circle cx="662.37" cy="456.03" r="3.2" fill="#1d4ed8"/>
<circle cx="667.35" cy="454.41" r="3.2" fill="#1d4ed8"/>
<circle cx="672.33" cy="450.77" r="3.2" fill="#1d4ed8"/>
<circle cx="677.31" cy="444.30" r="3.2" fill="#1d4ed8"/>
<circle cx="682.28" cy="443.90" r="3.2" fill="#1d4ed8"/>
<circle cx="687.26" cy="600.00" r="3.2" fill="#1d4ed8"/>
<circle cx="692.24" cy="441.88" r="3.2" fill="#1d4ed8"/>
<circle cx="697.21" cy="440.66" r="3.2" fill="#1d4ed8"/>
<circle cx="702.19" cy="439.45" r="3.2" fill="#1d4ed8"/>
<circle cx="707.17" cy="439.04" r="3.2" fill="#1d4ed8"/>
<circle cx="712.15" cy="438.64" r="3.2" fill="#1d4ed8"/>
<circle cx="717.12" cy="437.83" r="3.2" fill="#1d4ed8"/>
<circle cx="722.10" cy="436.62" r="3.2" fill="#1d4ed8"/>
<circle cx="727.08" cy="436.62" r="3.2" fill="#1d4ed8"/>
<circle cx="732.05" cy="434.60" r="3.2" fill="#1d4ed8"/>
<circle cx="737.03" cy="432.17" r="3.2" fill="#1d4ed8"/>
<circle cx="742.01" cy="429.34" r="3.2" fill="#1d4ed8"/>
<circle cx="746.99" cy="428.93" r="3.2" fill="#1d4ed8"/>
<circle cx="751.96" cy="428.53" r="3.2" fill="#1d4ed8"/>
<circle cx="756.94" cy="427.72" r="3.2" fill="#1d4ed8"/>
<circle cx="761.92" cy="426.91" r="3.2" fill="#1d4ed8"/>
<circle cx="766.89" cy="426.10" r="3.2" fill="#1d4ed8"/>
<circle cx="771.87" cy="426.10" r="3.2" fill="#1d4ed8"/>
<circle cx="776.85" cy="426.10" r="3.2" fill="#1d4ed8"/>
<circle cx="781.83" cy="419.63" r="3.2" fill="#1d4ed8"/>
<circle cx="786.80" cy="419.23" r="3.2" fill="#1d4ed8"/>
<circle cx="791.78" cy="418.42" r="3.2" fill="#1d4ed8"/>
<circle cx="796.76" cy="418.01" r="3.2" fill="#1d4ed8"/>
<circle cx="801.74" cy="417.61" r="3.2" fill="#1d4ed8"/>
<circle cx="806.71" cy="417.61" r="3.2" fill="#1d4ed8"/>
<circle cx="811.69" cy="417.61" r="3.2" fill="#1d4ed8"/>
<circle cx="816.67" cy="417.21" r="3.2" fill="#1d4ed8"/>
<circle cx="821.64" cy="417.21" r="3.2" fill="#1d4ed8"/>
<circle cx="826.62" cy="413.57" r="3.2" fill="#1d4ed8"/>
<circle cx="831.60" cy="411.95" r="3.2" fill="#1d4ed8"/>
<circle cx="836.58" cy="412.76" r="3.2" fill="#1d4ed8"/>
<circle cx="841.55" cy="410.74" r="3.2" fill="#1d4ed8"/>
<circle cx="846.53" cy="410.74" r="3.2" fill="#1d4ed8"/>
<circle cx="851.51" cy="410.33" r="3.2" fill="#1d4ed8"/>
<circle cx="856.48" cy="410.33" r="3.2" fill="#1d4ed8"/>
<circle cx="861.46" cy="410.33" r="3.2" fill="#1d4ed8"/>
<circle cx="866.44" cy="409.93" r="3.2" fill="#1d4ed8"/>
<circle cx="871.42" cy="409.93" r="3.2" fill="#1d4ed8"/>
<circle cx="876.39" cy="409.93" r="3.2" fill="#1d4ed8"/>
<circle cx="881.37" cy="409.52" r="3.2" fill="#1d4ed8"/>
<circle cx="886.35" cy="409.52" r="3.2" fill="#1d4ed8"/>
<circle cx="891.32" cy="409.12" r="3.2" fill="#1d4ed8"/>
<circle cx="896.30" cy="409.52" r="3.2" fill="#1d4ed8"/>
<circle cx="901.28" cy="409.12" r="3.2" fill="#1d4ed8"/>
<circle cx="906.26" cy="407.50" r="3.2" fill="#1d4ed8"/>
<circle cx="911.23" cy="407.10" r="3.2" fill="#1d4ed8"/>
<circle cx="916.21" cy="403.05" r="3.2" fill="#1d4ed8"/>
<circle cx="921.19" cy="399.82" r="3.2" fill="#1d4ed8"/>
<circle cx="926.16" cy="400.22" r="3.2" fill="#1d4ed8"/>
<circle cx="931.14" cy="400.62" r="3.2" fill="#1d4ed8"/>
<circle cx="936.12" cy="400.62" r="3.2" fill="#1d4ed8"/>
<circle cx="941.10" cy="399.41" r="3.2" fill="#1d4ed8"/>
<circle cx="946.07" cy="392.94" r="3.2" fill="#1d4ed8"/>
<circle cx="951.05" cy="391.32" r="3.2" fill="#1d4ed8"/>
<circle cx="956.03" cy="389.30" r="3.2" fill="#1d4ed8"/>
<circle cx="961.00" cy="389.30" r="3.2" fill="#1d4ed8"/>
<circle cx="965.98" cy="388.49" r="3.2" fill="#1d4ed8"/>
<circle cx="970.96" cy="375.15" r="3.2" fill="#1d4ed8"/>
<circle cx="975.94" cy="374.74" r="3.2" fill="#1d4ed8"/>
<circle cx="980.91" cy="374.74" r="3.2" fill="#1d4ed8"/>
<circle cx="985.89" cy="374.74" r="3.2" fill="#1d4ed8"/>
<circle cx="990.87" cy="374.74" r="3.2" fill="#1d4ed8"/>
<circle cx="995.84" cy="374.34" r="3.2" fill="#1d4ed8"/>
<circle cx="1000.82" cy="374.34" r="3.2" fill="#1d4ed8"/>
<circle cx="1005.80" cy="374.34" r="3.2" fill="#1d4ed8"/>
<circle cx="1010.78" cy="374.34" r="3.2" fill="#1d4ed8"/>
<circle cx="1015.75" cy="374.34" r="3.2" fill="#1d4ed8"/>
<circle cx="1020.73" cy="373.93" r="3.2" fill="#1d4ed8"/>
<circle cx="1025.71" cy="373.12" r="3.2" fill="#1d4ed8"/>
<circle cx="1030.68" cy="372.72" r="3.2" fill="#1d4ed8"/>
<circle cx="1035.66" cy="373.53" r="3.2" fill="#1d4ed8"/>
<circle cx="1040.64" cy="435.81" r="3.2" fill="#1d4ed8"/>
<circle cx="1045.62" cy="372.32" r="3.2" fill="#1d4ed8"/>
<circle cx="1050.59" cy="372.72" r="3.2" fill="#1d4ed8"/>
<circle cx="1055.57" cy="371.91" r="3.2" fill="#1d4ed8"/>
<circle cx="1060.55" cy="371.91" r="3.2" fill="#1d4ed8"/>
<circle cx="1065.53" cy="372.32" r="3.2" fill="#1d4ed8"/>
<circle cx="1070.50" cy="371.10" r="3.2" fill="#1d4ed8"/>
<circle cx="1075.48" cy="369.89" r="3.2" fill="#1d4ed8"/>
<circle cx="1080.46" cy="369.89" r="3.2" fill="#1d4ed8"/>
<circle cx="1085.43" cy="369.89" r="3.2" fill="#1d4ed8"/>
<circle cx="1090.41" cy="369.49" r="3.2" fill="#1d4ed8"/>
<circle cx="1095.39" cy="369.89" r="3.2" fill="#1d4ed8"/>
<circle cx="1100.37" cy="369.08" r="3.2" fill="#1d4ed8"/>
<circle cx="1105.34" cy="368.68" r="3.2" fill="#1d4ed8"/>
<circle cx="1110.32" cy="368.27" r="3.2" fill="#1d4ed8"/>
<circle cx="1115.30" cy="367.87" r="3.2" fill="#1d4ed8"/>
<circle cx="1120.27" cy="367.06" r="3.2" fill="#1d4ed8"/>
<circle cx="1125.25" cy="367.46" r="3.2" fill="#1d4ed8"/>
<circle cx="1130.23" cy="367.06" r="3.2" fill="#1d4ed8"/>
<circle cx="1135.21" cy="366.25" r="3.2" fill="#1d4ed8"/>
<circle cx="1140.18" cy="368.27" r="3.2" fill="#1d4ed8"/>
<circle cx="1145.16" cy="368.68" r="3.2" fill="#1d4ed8"/>
<circle cx="1150.14" cy="368.68" r="3.2" fill="#1d4ed8"/>
<circle cx="1155.11" cy="368.27" r="3.2" fill="#1d4ed8"/>
<circle cx="1160.09" cy="369.08" r="3.2" fill="#1d4ed8"/>
<circle cx="1165.07" cy="367.87" r="3.2" fill="#1d4ed8"/>
<circle cx="1170.05" cy="367.46" r="3.2" fill="#1d4ed8"/>
<circle cx="1175.02" cy="367.06" r="3.2" fill="#1d4ed8"/>
<circle cx="1180.00" cy="360.18" r="3.2" fill="#1d4ed8"/>
<text x="635" y="695" text-anchor="middle" font-size="14" fill="#111" font-family="sans-serif">Date</text>
<text x="24" y="325" text-anchor="middle" font-size="14" fill="#111" transform="rotate(-90 24,325)" font-family="sans-serif">Passed files</text>
</svg>
