<?xml version="1.0" encoding="UTF-8"?>
<svg xmlns="http://www.w3.org/2000/svg" width="1280" height="720" viewBox="0 0 1280 720">
<rect width="100%" height="100%" fill="#ffffff"/>
<text x="640" y="30" text-anchor="middle" font-size="22" font-family="sans-serif">Roast passed files history</text>
<line x1="90" y1="600" x2="1180" y2="600" stroke="#333" stroke-width="1.5"/>
<line x1="90" y1="50" x2="90" y2="600" stroke="#333" stroke-width="1.5"/>
<line x1="90" y1="600.00" x2="1180" y2="600.00" stroke="#e5e7eb" stroke-width="1"/>
<text x="78" y="605.00" text-anchor="end" font-size="12" fill="#111" font-family="sans-serif">0</text>
<line x1="90" y1="397.79" x2="1180" y2="397.79" stroke="#e5e7eb" stroke-width="1"/>
<text x="78" y="402.79" text-anchor="end" font-size="12" fill="#111" font-family="sans-serif">500</text>
<line x1="90" y1="195.59" x2="1180" y2="195.59" stroke="#e5e7eb" stroke-width="1"/>
<text x="78" y="200.59" text-anchor="end" font-size="12" fill="#111" font-family="sans-serif">1000</text>
<line x1="90.00" y1="600" x2="90.00" y2="606" stroke="#333" stroke-width="1"/>
<text x="90.00" y="624" text-anchor="end" font-size="11" fill="#111" transform="rotate(-40 90.00,624)" font-family="sans-serif">2026-02-12</text>
<line x1="224.60" y1="600" x2="224.60" y2="606" stroke="#333" stroke-width="1"/>
<text x="224.60" y="624" text-anchor="end" font-size="11" fill="#111" transform="rotate(-40 224.60,624)" font-family="sans-serif">2026-02-18</text>
<line x1="359.20" y1="600" x2="359.20" y2="606" stroke="#333" stroke-width="1"/>
<text x="359.20" y="624" text-anchor="end" font-size="11" fill="#111" transform="rotate(-40 359.20,624)" font-family="sans-serif">2026-02-23</text>
<line x1="493.80" y1="600" x2="493.80" y2="606" stroke="#333" stroke-width="1"/>
<text x="493.80" y="624" text-anchor="end" font-size="11" fill="#111" transform="rotate(-40 493.80,624)" font-family="sans-serif">2026-02-26</text>
<line x1="628.40" y1="600" x2="628.40" y2="606" stroke="#333" stroke-width="1"/>
<text x="628.40" y="624" text-anchor="end" font-size="11" fill="#111" transform="rotate(-40 628.40,624)" font-family="sans-serif">2026-03-01</text>
<line x1="763.00" y1="600" x2="763.00" y2="606" stroke="#333" stroke-width="1"/>
<text x="763.00" y="624" text-anchor="end" font-size="11" fill="#111" transform="rotate(-40 763.00,624)" font-family="sans-serif">2026-03-06</text>
<line x1="897.60" y1="600" x2="897.60" y2="606" stroke="#333" stroke-width="1"/>
<text x="897.60" y="624" text-anchor="end" font-size="11" fill="#111" transform="rotate(-40 897.60,624)" font-family="sans-serif">2026-03-11</text>
<line x1="1032.20" y1="600" x2="1032.20" y2="606" stroke="#333" stroke-width="1"/>
<text x="1032.20" y="624" text-anchor="end" font-size="11" fill="#111" transform="rotate(-40 1032.20,624)" font-family="sans-serif">2026-03-18</text>
<line x1="1166.80" y1="600" x2="1166.80" y2="606" stroke="#333" stroke-width="1"/>
<text x="1166.80" y="624" text-anchor="end" font-size="11" fill="#111" transform="rotate(-40 1166.80,624)" font-family="sans-serif">2026-03-19</text>
<line x1="1180.00" y1="600" x2="1180.00" y2="606" stroke="#333" stroke-width="1"/>
<text x="1180.00" y="624" text-anchor="end" font-size="11" fill="#111" transform="rotate(-40 1180.00,624)" font-family="sans-serif">2026-03-20</text>
<line x1="90" y1="75.88" x2="1180" y2="75.88" stroke="#dc2626" stroke-width="1.5" stroke-dasharray="8,4"/>
<text x="1184" y="79.88" font-size="12" fill="#dc2626" font-family="sans-serif">Goal: 1296</text>
<polyline fill="none" stroke="#2563eb" stroke-width="3" points="90.00,540.55 92.64,538.53 95.28,536.91 97.92,534.49 100.56,534.49 103.20,533.27 105.84,532.46 108.47,532.87 111.11,532.06 113.75,532.46 116.39,532.06 119.03,568.46 121.67,568.46 124.31,566.43 126.95,545.00 129.59,545.00 132.23,544.19 134.87,543.79 137.51,543.79 140.15,543.38 142.78,541.76 145.42,541.36 148.06,540.96 150.70,540.96 153.34,539.34 155.98,539.34 158.62,556.73 161.26,556.73 163.90,555.51 166.54,551.07 169.18,538.93 171.82,538.93 174.46,538.93 177.09,538.12 179.73,536.91 182.37,536.91 185.01,536.51 187.65,536.51 190.29,556.73 192.93,556.73 195.57,556.73 198.21,556.73 200.85,535.29 203.49,535.29 206.13,535.29 208.77,535.29 211.40,534.49 214.04,534.08 216.68,533.68 219.32,532.87 221.96,532.06 224.60,532.06 227.24,531.25 229.88,530.85 232.52,530.44 235.16,530.04 237.80,530.04 240.44,529.23 243.08,529.23 245.71,529.23 248.35,528.42 250.99,528.42 253.63,527.61 256.27,527.21 258.91,526.80 261.55,526.40 264.19,525.18 266.83,523.57 269.47,523.57 272.11,523.16 274.75,522.76 277.38,522.35 280.02,521.54 282.66,519.52 285.30,517.50 287.94,517.50 290.58,517.50 293.22,517.50 295.86,517.50 298.50,517.50 301.14,517.10 303.78,516.69 306.42,515.48 309.06,515.07 311.69,514.67 314.33,513.86 316.97,514.26 319.61,512.24 322.25,511.84 324.89,511.84 327.53,511.03 330.17,509.82 332.81,507.79 335.45,506.99 338.09,506.58 340.73,509.41 343.37,509.01 346.00,504.96 348.64,504.56 351.28,504.15 353.92,504.56 356.56,503.75 359.20,503.75 361.84,503.35 364.48,499.30 367.12,496.47 369.76,490.00 372.40,484.34 375.04,481.10 377.68,480.29 380.31,480.70 382.95,460.88 385.59,459.26 388.23,458.05 390.87,456.03 393.51,456.03 396.15,454.41 398.79,450.77 401.43,444.30 404.07,443.90 406.71,600.00 409.35,441.88 411.99,440.66 414.62,439.45 417.26,439.04 419.90,438.64 422.54,437.83 425.18,436.62 427.82,436.62 430.46,434.60 433.10,432.17 435.74,429.34 438.38,428.93 441.02,428.53 443.66,427.72 446.30,426.91 448.93,426.10 451.57,426.10 454.21,426.10 456.85,419.63 459.49,419.23 462.13,418.42 464.77,418.01 467.41,417.61 470.05,417.61 472.69,417.61 475.33,417.21 477.97,417.21 480.61,413.57 483.24,411.95 485.88,412.76 488.52,410.74 491.16,410.74 493.80,410.33 496.44,410.33 499.08,410.33 501.72,409.93 504.36,409.93 507.00,409.93 509.64,409.52 512.28,409.52 514.92,409.12 517.55,409.52 520.19,409.12 522.83,407.50 525.47,407.10 528.11,403.05 530.75,399.82 533.39,400.22 536.03,400.62 538.67,400.62 541.31,399.41 543.95,392.94 546.59,391.32 549.23,389.30 551.86,389.30 554.50,388.49 557.14,375.15 559.78,374.74 562.42,374.74 565.06,374.74 567.70,374.74 570.34,374.34 572.98,374.34 575.62,374.34 578.26,374.34 580.90,374.34 583.54,373.93 586.17,373.12 588.81,372.72 591.45,373.53 594.09,435.81 596.73,372.32 599.37,372.72 602.01,371.91 604.65,371.91 607.29,372.32 609.93,371.10 612.57,369.89 615.21,369.89 617.85,369.89 620.48,369.49 623.12,369.89 625.76,369.08 628.40,368.68 631.04,368.27 633.68,367.87 636.32,367.06 638.96,367.46 641.60,367.06 644.24,366.25 646.88,368.27 649.52,368.68 652.15,368.68 654.79,368.27 657.43,369.08 660.07,367.87 662.71,367.46 665.35,367.06 667.99,360.18 670.63,359.78 673.27,359.38 675.91,356.95 678.55,357.35 681.19,357.76 683.83,355.33 686.46,355.74 689.10,357.35 691.74,355.33 694.38,356.14 697.02,355.74 699.66,356.14 702.30,354.12 704.94,354.93 707.58,356.14 710.22,354.52 712.86,353.71 715.50,354.12 718.14,354.93 720.77,352.90 723.41,353.71 726.05,353.31 728.69,353.31 731.33,354.52 733.97,352.90 736.61,352.50 739.25,352.50 741.89,353.31 744.53,352.50 747.17,353.71 749.81,354.12 752.45,352.50 755.08,352.90 757.72,352.50 760.36,352.10 763.00,351.69 765.64,352.10 768.28,354.12 770.92,352.50 773.56,352.10 776.20,352.10 778.84,349.67 781.48,349.67 784.12,350.88 786.76,351.29 789.39,350.48 792.03,352.10 794.67,350.48 797.31,350.48 799.95,350.48 802.59,350.07 805.23,348.46 807.87,351.29 810.51,349.67 813.15,351.29 815.79,349.67 818.43,348.86 821.07,348.46 823.70,348.46 826.34,347.24 828.98,348.86 831.62,346.84 834.26,348.46 836.90,348.86 839.54,346.84 842.18,349.26 844.82,348.05 847.46,349.26 850.10,349.26 852.74,350.48 855.38,352.90 858.01,349.67 860.65,348.46 863.29,345.62 865.93,344.82 868.57,344.41 871.21,342.39 873.85,341.18 876.49,341.58 879.13,339.15 881.77,338.35 884.41,337.54 887.05,336.73 889.69,335.92 892.32,337.54 894.96,338.35 897.60,337.54 900.24,337.54 902.88,337.54 905.52,333.09 908.16,333.90 910.80,335.92 913.44,336.73 916.08,335.51 918.72,332.28 921.36,331.47 924.00,331.07 926.63,331.47 929.27,331.07 931.91,331.07 934.55,331.07 937.19,331.07 939.83,331.07 942.47,331.07 945.11,331.07 947.75,331.07 950.39,331.07 953.03,331.07 955.67,331.47 958.31,331.88 960.94,331.07 963.58,331.47 966.22,331.07 968.86,331.47 971.50,331.07 974.14,324.19 976.78,324.19 979.42,318.93 982.06,316.51 984.70,310.44 987.34,308.01 989.98,600.00 992.62,301.54 995.25,290.22 997.89,287.79 1000.53,286.18 1003.17,285.77 1005.81,285.77 1008.45,285.77 1011.09,286.18 1013.73,285.77 1016.37,285.77 1019.01,285.77 1021.65,283.35 1024.29,282.94 1026.92,282.94 1029.56,283.35 1032.20,282.94 1034.84,282.94 1037.48,283.75 1040.12,282.13 1042.76,282.13 1045.40,282.54 1048.04,282.13 1050.68,282.54 1053.32,282.94 1055.96,281.73 1058.60,282.54 1061.23,281.73 1063.87,282.54 1066.51,282.13 1069.15,282.13 1071.79,281.73 1074.43,281.73 1077.07,281.32 1079.71,281.73 1082.35,282.13 1084.99,281.32 1087.63,281.32 1090.27,282.54 1092.91,282.13 1095.54,281.32 1098.18,281.32 1100.82,281.32 1103.46,282.54 1106.10,282.13 1108.74,281.32 1111.38,282.13 1114.02,281.73 1116.66,282.13 1119.30,280.11 1121.94,280.11 1124.58,280.51 1127.22,279.71 1129.85,280.11 1132.49,280.51 1135.13,279.71 1137.77,280.11 1140.41,280.11 1143.05,279.30 1145.69,278.90 1148.33,278.90 1150.97,280.51 1153.61,279.30 1156.25,278.09 1158.89,278.49 1161.53,278.49 1164.16,277.28 1166.80,277.68 1169.44,277.68 1172.08,278.09 1174.72,277.28 1177.36,600.00 1180.00,278.90"/>
<circle cx="90.00" cy="540.55" r="3.2" fill="#1d4ed8"/>
<circle cx="92.64" cy="538.53" r="3.2" fill="#1d4ed8"/>
<circle cx="95.28" cy="536.91" r="3.2" fill="#1d4ed8"/>
<circle cx="97.92" cy="534.49" r="3.2" fill="#1d4ed8"/>
<circle cx="100.56" cy="534.49" r="3.2" fill="#1d4ed8"/>
<circle cx="103.20" cy="533.27" r="3.2" fill="#1d4ed8"/>
<circle cx="105.84" cy="532.46" r="3.2" fill="#1d4ed8"/>
<circle cx="108.47" cy="532.87" r="3.2" fill="#1d4ed8"/>
<circle cx="111.11" cy="532.06" r="3.2" fill="#1d4ed8"/>
<circle cx="113.75" cy="532.46" r="3.2" fill="#1d4ed8"/>
<circle cx="116.39" cy="532.06" r="3.2" fill="#1d4ed8"/>
<circle cx="119.03" cy="568.46" r="3.2" fill="#1d4ed8"/>
<circle cx="121.67" cy="568.46" r="3.2" fill="#1d4ed8"/>
<circle cx="124.31" cy="566.43" r="3.2" fill="#1d4ed8"/>
<circle cx="126.95" cy="545.00" r="3.2" fill="#1d4ed8"/>
<circle cx="129.59" cy="545.00" r="3.2" fill="#1d4ed8"/>
<circle cx="132.23" cy="544.19" r="3.2" fill="#1d4ed8"/>
<circle cx="134.87" cy="543.79" r="3.2" fill="#1d4ed8"/>
<circle cx="137.51" cy="543.79" r="3.2" fill="#1d4ed8"/>
<circle cx="140.15" cy="543.38" r="3.2" fill="#1d4ed8"/>
<circle cx="142.78" cy="541.76" r="3.2" fill="#1d4ed8"/>
<circle cx="145.42" cy="541.36" r="3.2" fill="#1d4ed8"/>
<circle cx="148.06" cy="540.96" r="3.2" fill="#1d4ed8"/>
<circle cx="150.70" cy="540.96" r="3.2" fill="#1d4ed8"/>
<circle cx="153.34" cy="539.34" r="3.2" fill="#1d4ed8"/>
<circle cx="155.98" cy="539.34" r="3.2" fill="#1d4ed8"/>
<circle cx="158.62" cy="556.73" r="3.2" fill="#1d4ed8"/>
<circle cx="161.26" cy="556.73" r="3.2" fill="#1d4ed8"/>
<circle cx="163.90" cy="555.51" r="3.2" fill="#1d4ed8"/>
<circle cx="166.54" cy="551.07" r="3.2" fill="#1d4ed8"/>
<circle cx="169.18" cy="538.93" r="3.2" fill="#1d4ed8"/>
<circle cx="171.82" cy="538.93" r="3.2" fill="#1d4ed8"/>
<circle cx="174.46" cy="538.93" r="3.2" fill="#1d4ed8"/>
<circle cx="177.09" cy="538.12" r="3.2" fill="#1d4ed8"/>
<circle cx="179.73" cy="536.91" r="3.2" fill="#1d4ed8"/>
<circle cx="182.37" cy="536.91" r="3.2" fill="#1d4ed8"/>
<circle cx="185.01" cy="536.51" r="3.2" fill="#1d4ed8"/>
<circle cx="187.65" cy="536.51" r="3.2" fill="#1d4ed8"/>
<circle cx="190.29" cy="556.73" r="3.2" fill="#1d4ed8"/>
<circle cx="192.93" cy="556.73" r="3.2" fill="#1d4ed8"/>
<circle cx="195.57" cy="556.73" r="3.2" fill="#1d4ed8"/>
<circle cx="198.21" cy="556.73" r="3.2" fill="#1d4ed8"/>
<circle cx="200.85" cy="535.29" r="3.2" fill="#1d4ed8"/>
<circle cx="203.49" cy="535.29" r="3.2" fill="#1d4ed8"/>
<circle cx="206.13" cy="535.29" r="3.2" fill="#1d4ed8"/>
<circle cx="208.77" cy="535.29" r="3.2" fill="#1d4ed8"/>
<circle cx="211.40" cy="534.49" r="3.2" fill="#1d4ed8"/>
<circle cx="214.04" cy="534.08" r="3.2" fill="#1d4ed8"/>
<circle cx="216.68" cy="533.68" r="3.2" fill="#1d4ed8"/>
<circle cx="219.32" cy="532.87" r="3.2" fill="#1d4ed8"/>
<circle cx="221.96" cy="532.06" r="3.2" fill="#1d4ed8"/>
<circle cx="224.60" cy="532.06" r="3.2" fill="#1d4ed8"/>
<circle cx="227.24" cy="531.25" r="3.2" fill="#1d4ed8"/>
<circle cx="229.88" cy="530.85" r="3.2" fill="#1d4ed8"/>
<circle cx="232.52" cy="530.44" r="3.2" fill="#1d4ed8"/>
<circle cx="235.16" cy="530.04" r="3.2" fill="#1d4ed8"/>
<circle cx="237.80" cy="530.04" r="3.2" fill="#1d4ed8"/>
<circle cx="240.44" cy="529.23" r="3.2" fill="#1d4ed8"/>
<circle cx="243.08" cy="529.23" r="3.2" fill="#1d4ed8"/>
<circle cx="245.71" cy="529.23" r="3.2" fill="#1d4ed8"/>
<circle cx="248.35" cy="528.42" r="3.2" fill="#1d4ed8"/>
<circle cx="250.99" cy="528.42" r="3.2" fill="#1d4ed8"/>
<circle cx="253.63" cy="527.61" r="3.2" fill="#1d4ed8"/>
<circle cx="256.27" cy="527.21" r="3.2" fill="#1d4ed8"/>
<circle cx="258.91" cy="526.80" r="3.2" fill="#1d4ed8"/>
<circle cx="261.55" cy="526.40" r="3.2" fill="#1d4ed8"/>
<circle cx="264.19" cy="525.18" r="3.2" fill="#1d4ed8"/>
<circle cx="266.83" cy="523.57" r="3.2" fill="#1d4ed8"/>
<circle cx="269.47" cy="523.57" r="3.2" fill="#1d4ed8"/>
<circle cx="272.11" cy="523.16" r="3.2" fill="#1d4ed8"/>
<circle cx="274.75" cy="522.76" r="3.2" fill="#1d4ed8"/>
<circle cx="277.38" cy="522.35" r="3.2" fill="#1d4ed8"/>
<circle cx="280.02" cy="521.54" r="3.2" fill="#1d4ed8"/>
<circle cx="282.66" cy="519.52" r="3.2" fill="#1d4ed8"/>
<circle cx="285.30" cy="517.50" r="3.2" fill="#1d4ed8"/>
<circle cx="287.94" cy="517.50" r="3.2" fill="#1d4ed8"/>
<circle cx="290.58" cy="517.50" r="3.2" fill="#1d4ed8"/>
<circle cx="293.22" cy="517.50" r="3.2" fill="#1d4ed8"/>
<circle cx="295.86" cy="517.50" r="3.2" fill="#1d4ed8"/>
<circle cx="298.50" cy="517.50" r="3.2" fill="#1d4ed8"/>
<circle cx="301.14" cy="517.10" r="3.2" fill="#1d4ed8"/>
<circle cx="303.78" cy="516.69" r="3.2" fill="#1d4ed8"/>
<circle cx="306.42" cy="515.48" r="3.2" fill="#1d4ed8"/>
<circle cx="309.06" cy="515.07" r="3.2" fill="#1d4ed8"/>
<circle cx="311.69" cy="514.67" r="3.2" fill="#1d4ed8"/>
<circle cx="314.33" cy="513.86" r="3.2" fill="#1d4ed8"/>
<circle cx="316.97" cy="514.26" r="3.2" fill="#1d4ed8"/>
<circle cx="319.61" cy="512.24" r="3.2" fill="#1d4ed8"/>
<circle cx="322.25" cy="511.84" r="3.2" fill="#1d4ed8"/>
<circle cx="324.89" cy="511.84" r="3.2" fill="#1d4ed8"/>
<circle cx="327.53" cy="511.03" r="3.2" fill="#1d4ed8"/>
<circle cx="330.17" cy="509.82" r="3.2" fill="#1d4ed8"/>
<circle cx="332.81" cy="507.79" r="3.2" fill="#1d4ed8"/>
<circle cx="335.45" cy="506.99" r="3.2" fill="#1d4ed8"/>
<circle cx="338.09" cy="506.58" r="3.2" fill="#1d4ed8"/>
<circle cx="340.73" cy="509.41" r="3.2" fill="#1d4ed8"/>
<circle cx="343.37" cy="509.01" r="3.2" fill="#1d4ed8"/>
<circle cx="346.00" cy="504.96" r="3.2" fill="#1d4ed8"/>
<circle cx="348.64" cy="504.56" r="3.2" fill="#1d4ed8"/>
<circle cx="351.28" cy="504.15" r="3.2" fill="#1d4ed8"/>
<circle cx="353.92" cy="504.56" r="3.2" fill="#1d4ed8"/>
<circle cx="356.56" cy="503.75" r="3.2" fill="#1d4ed8"/>
<circle cx="359.20" cy="503.75" r="3.2" fill="#1d4ed8"/>
<circle cx="361.84" cy="503.35" r="3.2" fill="#1d4ed8"/>
<circle cx="364.48" cy="499.30" r="3.2" fill="#1d4ed8"/>
<circle cx="367.12" cy="496.47" r="3.2" fill="#1d4ed8"/>
<circle cx="369.76" cy="490.00" r="3.2" fill="#1d4ed8"/>
<circle cx="372.40" cy="484.34" r="3.2" fill="#1d4ed8"/>
<circle cx="375.04" cy="481.10" r="3.2" fill="#1d4ed8"/>
<circle cx="377.68" cy="480.29" r="3.2" fill="#1d4ed8"/>
<circle cx="380.31" cy="480.70" r="3.2" fill="#1d4ed8"/>
<circle cx="382.95" cy="460.88" r="3.2" fill="#1d4ed8"/>
<circle cx="385.59" cy="459.26" r="3.2" fill="#1d4ed8"/>
<circle cx="388.23" cy="458.05" r="3.2" fill="#1d4ed8"/>
<circle cx="390.87" cy="456.03" r="3.2" fill="#1d4ed8"/>
<circle cx="393.51" cy="456.03" r="3.2" fill="#1d4ed8"/>
<circle cx="396.15" cy="454.41" r="3.2" fill="#1d4ed8"/>
<circle cx="398.79" cy="450.77" r="3.2" fill="#1d4ed8"/>
<circle cx="401.43" cy="444.30" r="3.2" fill="#1d4ed8"/>
<circle cx="404.07" cy="443.90" r="3.2" fill="#1d4ed8"/>
<circle cx="406.71" cy="600.00" r="3.2" fill="#1d4ed8"/>
<circle cx="409.35" cy="441.88" r="3.2" fill="#1d4ed8"/>
<circle cx="411.99" cy="440.66" r="3.2" fill="#1d4ed8"/>
<circle cx="414.62" cy="439.45" r="3.2" fill="#1d4ed8"/>
<circle cx="417.26" cy="439.04" r="3.2" fill="#1d4ed8"/>
<circle cx="419.90" cy="438.64" r="3.2" fill="#1d4ed8"/>
<circle cx="422.54" cy="437.83" r="3.2" fill="#1d4ed8"/>
<circle cx="425.18" cy="436.62" r="3.2" fill="#1d4ed8"/>
<circle cx="427.82" cy="436.62" r="3.2" fill="#1d4ed8"/>
<circle cx="430.46" cy="434.60" r="3.2" fill="#1d4ed8"/>
<circle cx="433.10" cy="432.17" r="3.2" fill="#1d4ed8"/>
<circle cx="435.74" cy="429.34" r="3.2" fill="#1d4ed8"/>
<circle cx="438.38" cy="428.93" r="3.2" fill="#1d4ed8"/>
<circle cx="441.02" cy="428.53" r="3.2" fill="#1d4ed8"/>
<circle cx="443.66" cy="427.72" r="3.2" fill="#1d4ed8"/>
<circle cx="446.30" cy="426.91" r="3.2" fill="#1d4ed8"/>
<circle cx="448.93" cy="426.10" r="3.2" fill="#1d4ed8"/>
<circle cx="451.57" cy="426.10" r="3.2" fill="#1d4ed8"/>
<circle cx="454.21" cy="426.10" r="3.2" fill="#1d4ed8"/>
<circle cx="456.85" cy="419.63" r="3.2" fill="#1d4ed8"/>
<circle cx="459.49" cy="419.23" r="3.2" fill="#1d4ed8"/>
<circle cx="462.13" cy="418.42" r="3.2" fill="#1d4ed8"/>
<circle cx="464.77" cy="418.01" r="3.2" fill="#1d4ed8"/>
<circle cx="467.41" cy="417.61" r="3.2" fill="#1d4ed8"/>
<circle cx="470.05" cy="417.61" r="3.2" fill="#1d4ed8"/>
<circle cx="472.69" cy="417.61" r="3.2" fill="#1d4ed8"/>
<circle cx="475.33" cy="417.21" r="3.2" fill="#1d4ed8"/>
<circle cx="477.97" cy="417.21" r="3.2" fill="#1d4ed8"/>
<circle cx="480.61" cy="413.57" r="3.2" fill="#1d4ed8"/>
<circle cx="483.24" cy="411.95" r="3.2" fill="#1d4ed8"/>
<circle cx="485.88" cy="412.76" r="3.2" fill="#1d4ed8"/>
<circle cx="488.52" cy="410.74" r="3.2" fill="#1d4ed8"/>
<circle cx="491.16" cy="410.74" r="3.2" fill="#1d4ed8"/>
<circle cx="493.80" cy="410.33" r="3.2" fill="#1d4ed8"/>
<circle cx="496.44" cy="410.33" r="3.2" fill="#1d4ed8"/>
<circle cx="499.08" cy="410.33" r="3.2" fill="#1d4ed8"/>
<circle cx="501.72" cy="409.93" r="3.2" fill="#1d4ed8"/>
<circle cx="504.36" cy="409.93" r="3.2" fill="#1d4ed8"/>
<circle cx="507.00" cy="409.93" r="3.2" fill="#1d4ed8"/>
<circle cx="509.64" cy="409.52" r="3.2" fill="#1d4ed8"/>
<circle cx="512.28" cy="409.52" r="3.2" fill="#1d4ed8"/>
<circle cx="514.92" cy="409.12" r="3.2" fill="#1d4ed8"/>
<circle cx="517.55" cy="409.52" r="3.2" fill="#1d4ed8"/>
<circle cx="520.19" cy="409.12" r="3.2" fill="#1d4ed8"/>
<circle cx="522.83" cy="407.50" r="3.2" fill="#1d4ed8"/>
<circle cx="525.47" cy="407.10" r="3.2" fill="#1d4ed8"/>
<circle cx="528.11" cy="403.05" r="3.2" fill="#1d4ed8"/>
<circle cx="530.75" cy="399.82" r="3.2" fill="#1d4ed8"/>
<circle cx="533.39" cy="400.22" r="3.2" fill="#1d4ed8"/>
<circle cx="536.03" cy="400.62" r="3.2" fill="#1d4ed8"/>
<circle cx="538.67" cy="400.62" r="3.2" fill="#1d4ed8"/>
<circle cx="541.31" cy="399.41" r="3.2" fill="#1d4ed8"/>
<circle cx="543.95" cy="392.94" r="3.2" fill="#1d4ed8"/>
<circle cx="546.59" cy="391.32" r="3.2" fill="#1d4ed8"/>
<circle cx="549.23" cy="389.30" r="3.2" fill="#1d4ed8"/>
<circle cx="551.86" cy="389.30" r="3.2" fill="#1d4ed8"/>
<circle cx="554.50" cy="388.49" r="3.2" fill="#1d4ed8"/>
<circle cx="557.14" cy="375.15" r="3.2" fill="#1d4ed8"/>
<circle cx="559.78" cy="374.74" r="3.2" fill="#1d4ed8"/>
<circle cx="562.42" cy="374.74" r="3.2" fill="#1d4ed8"/>
<circle cx="565.06" cy="374.74" r="3.2" fill="#1d4ed8"/>
<circle cx="567.70" cy="374.74" r="3.2" fill="#1d4ed8"/>
<circle cx="570.34" cy="374.34" r="3.2" fill="#1d4ed8"/>
<circle cx="572.98" cy="374.34" r="3.2" fill="#1d4ed8"/>
<circle cx="575.62" cy="374.34" r="3.2" fill="#1d4ed8"/>
<circle cx="578.26" cy="374.34" r="3.2" fill="#1d4ed8"/>
<circle cx="580.90" cy="374.34" r="3.2" fill="#1d4ed8"/>
<circle cx="583.54" cy="373.93" r="3.2" fill="#1d4ed8"/>
<circle cx="586.17" cy="373.12" r="3.2" fill="#1d4ed8"/>
<circle cx="588.81" cy="372.72" r="3.2" fill="#1d4ed8"/>
<circle cx="591.45" cy="373.53" r="3.2" fill="#1d4ed8"/>
<circle cx="594.09" cy="435.81" r="3.2" fill="#1d4ed8"/>
<circle cx="596.73" cy="372.32" r="3.2" fill="#1d4ed8"/>
<circle cx="599.37" cy="372.72" r="3.2" fill="#1d4ed8"/>
<circle cx="602.01" cy="371.91" r="3.2" fill="#1d4ed8"/>
<circle cx="604.65" cy="371.91" r="3.2" fill="#1d4ed8"/>
<circle cx="607.29" cy="372.32" r="3.2" fill="#1d4ed8"/>
<circle cx="609.93" cy="371.10" r="3.2" fill="#1d4ed8"/>
<circle cx="612.57" cy="369.89" r="3.2" fill="#1d4ed8"/>
<circle cx="615.21" cy="369.89" r="3.2" fill="#1d4ed8"/>
<circle cx="617.85" cy="369.89" r="3.2" fill="#1d4ed8"/>
<circle cx="620.48" cy="369.49" r="3.2" fill="#1d4ed8"/>
<circle cx="623.12" cy="369.89" r="3.2" fill="#1d4ed8"/>
<circle cx="625.76" cy="369.08" r="3.2" fill="#1d4ed8"/>
<circle cx="628.40" cy="368.68" r="3.2" fill="#1d4ed8"/>
<circle cx="631.04" cy="368.27" r="3.2" fill="#1d4ed8"/>
<circle cx="633.68" cy="367.87" r="3.2" fill="#1d4ed8"/>
<circle cx="636.32" cy="367.06" r="3.2" fill="#1d4ed8"/>
<circle cx="638.96" cy="367.46" r="3.2" fill="#1d4ed8"/>
<circle cx="641.60" cy="367.06" r="3.2" fill="#1d4ed8"/>
<circle cx="644.24" cy="366.25" r="3.2" fill="#1d4ed8"/>
<circle cx="646.88" cy="368.27" r="3.2" fill="#1d4ed8"/>
<circle cx="649.52" cy="368.68" r="3.2" fill="#1d4ed8"/>
<circle cx="652.15" cy="368.68" r="3.2" fill="#1d4ed8"/>
<circle cx="654.79" cy="368.27" r="3.2" fill="#1d4ed8"/>
<circle cx="657.43" cy="369.08" r="3.2" fill="#1d4ed8"/>
<circle cx="660.07" cy="367.87" r="3.2" fill="#1d4ed8"/>
<circle cx="662.71" cy="367.46" r="3.2" fill="#1d4ed8"/>
<circle cx="665.35" cy="367.06" r="3.2" fill="#1d4ed8"/>
<circle cx="667.99" cy="360.18" r="3.2" fill="#1d4ed8"/>
<circle cx="670.63" cy="359.78" r="3.2" fill="#1d4ed8"/>
<circle cx="673.27" cy="359.38" r="3.2" fill="#1d4ed8"/>
<circle cx="675.91" cy="356.95" r="3.2" fill="#1d4ed8"/>
<circle cx="678.55" cy="357.35" r="3.2" fill="#1d4ed8"/>
<circle cx="681.19" cy="357.76" r="3.2" fill="#1d4ed8"/>
<circle cx="683.83" cy="355.33" r="3.2" fill="#1d4ed8"/>
<circle cx="686.46" cy="355.74" r="3.2" fill="#1d4ed8"/>
<circle cx="689.10" cy="357.35" r="3.2" fill="#1d4ed8"/>
<circle cx="691.74" cy="355.33" r="3.2" fill="#1d4ed8"/>
<circle cx="694.38" cy="356.14" r="3.2" fill="#1d4ed8"/>
<circle cx="697.02" cy="355.74" r="3.2" fill="#1d4ed8"/>
<circle cx="699.66" cy="356.14" r="3.2" fill="#1d4ed8"/>
<circle cx="702.30" cy="354.12" r="3.2" fill="#1d4ed8"/>
<circle cx="704.94" cy="354.93" r="3.2" fill="#1d4ed8"/>
<circle cx="707.58" cy="356.14" r="3.2" fill="#1d4ed8"/>
<circle cx="710.22" cy="354.52" r="3.2" fill="#1d4ed8"/>
<circle cx="712.86" cy="353.71" r="3.2" fill="#1d4ed8"/>
<circle cx="715.50" cy="354.12" r="3.2" fill="#1d4ed8"/>
<circle cx="718.14" cy="354.93" r="3.2" fill="#1d4ed8"/>
<circle cx="720.77" cy="352.90" r="3.2" fill="#1d4ed8"/>
<circle cx="723.41" cy="353.71" r="3.2" fill="#1d4ed8"/>
<circle cx="726.05" cy="353.31" r="3.2" fill="#1d4ed8"/>
<circle cx="728.69" cy="353.31" r="3.2" fill="#1d4ed8"/>
<circle cx="731.33" cy="354.52" r="3.2" fill="#1d4ed8"/>
<circle cx="733.97" cy="352.90" r="3.2" fill="#1d4ed8"/>
<circle cx="736.61" cy="352.50" r="3.2" fill="#1d4ed8"/>
<circle cx="739.25" cy="352.50" r="3.2" fill="#1d4ed8"/>
<circle cx="741.89" cy="353.31" r="3.2" fill="#1d4ed8"/>
<circle cx="744.53" cy="352.50" r="3.2" fill="#1d4ed8"/>
<circle cx="747.17" cy="353.71" r="3.2" fill="#1d4ed8"/>
<circle cx="749.81" cy="354.12" r="3.2" fill="#1d4ed8"/>
<circle cx="752.45" cy="352.50" r="3.2" fill="#1d4ed8"/>
<circle cx="755.08" cy="352.90" r="3.2" fill="#1d4ed8"/>
<circle cx="757.72" cy="352.50" r="3.2" fill="#1d4ed8"/>
<circle cx="760.36" cy="352.10" r="3.2" fill="#1d4ed8"/>
<circle cx="763.00" cy="351.69" r="3.2" fill="#1d4ed8"/>
<circle cx="765.64" cy="352.10" r="3.2" fill="#1d4ed8"/>
<circle cx="768.28" cy="354.12" r="3.2" fill="#1d4ed8"/>
<circle cx="770.92" cy="352.50" r="3.2" fill="#1d4ed8"/>
<circle cx="773.56" cy="352.10" r="3.2" fill="#1d4ed8"/>
<circle cx="776.20" cy="352.10" r="3.2" fill="#1d4ed8"/>
<circle cx="778.84" cy="349.67" r="3.2" fill="#1d4ed8"/>
<circle cx="781.48" cy="349.67" r="3.2" fill="#1d4ed8"/>
<circle cx="784.12" cy="350.88" r="3.2" fill="#1d4ed8"/>
<circle cx="786.76" cy="351.29" r="3.2" fill="#1d4ed8"/>
<circle cx="789.39" cy="350.48" r="3.2" fill="#1d4ed8"/>
<circle cx="792.03" cy="352.10" r="3.2" fill="#1d4ed8"/>
<circle cx="794.67" cy="350.48" r="3.2" fill="#1d4ed8"/>
<circle cx="797.31" cy="350.48" r="3.2" fill="#1d4ed8"/>
<circle cx="799.95" cy="350.48" r="3.2" fill="#1d4ed8"/>
<circle cx="802.59" cy="350.07" r="3.2" fill="#1d4ed8"/>
<circle cx="805.23" cy="348.46" r="3.2" fill="#1d4ed8"/>
<circle cx="807.87" cy="351.29" r="3.2" fill="#1d4ed8"/>
<circle cx="810.51" cy="349.67" r="3.2" fill="#1d4ed8"/>
<circle cx="813.15" cy="351.29" r="3.2" fill="#1d4ed8"/>
<circle cx="815.79" cy="349.67" r="3.2" fill="#1d4ed8"/>
<circle cx="818.43" cy="348.86" r="3.2" fill="#1d4ed8"/>
<circle cx="821.07" cy="348.46" r="3.2" fill="#1d4ed8"/>
<circle cx="823.70" cy="348.46" r="3.2" fill="#1d4ed8"/>
<circle cx="826.34" cy="347.24" r="3.2" fill="#1d4ed8"/>
<circle cx="828.98" cy="348.86" r="3.2" fill="#1d4ed8"/>
<circle cx="831.62" cy="346.84" r="3.2" fill="#1d4ed8"/>
<circle cx="834.26" cy="348.46" r="3.2" fill="#1d4ed8"/>
<circle cx="836.90" cy="348.86" r="3.2" fill="#1d4ed8"/>
<circle cx="839.54" cy="346.84" r="3.2" fill="#1d4ed8"/>
<circle cx="842.18" cy="349.26" r="3.2" fill="#1d4ed8"/>
<circle cx="844.82" cy="348.05" r="3.2" fill="#1d4ed8"/>
<circle cx="847.46" cy="349.26" r="3.2" fill="#1d4ed8"/>
<circle cx="850.10" cy="349.26" r="3.2" fill="#1d4ed8"/>
<circle cx="852.74" cy="350.48" r="3.2" fill="#1d4ed8"/>
<circle cx="855.38" cy="352.90" r="3.2" fill="#1d4ed8"/>
<circle cx="858.01" cy="349.67" r="3.2" fill="#1d4ed8"/>
<circle cx="860.65" cy="348.46" r="3.2" fill="#1d4ed8"/>
<circle cx="863.29" cy="345.62" r="3.2" fill="#1d4ed8"/>
<circle cx="865.93" cy="344.82" r="3.2" fill="#1d4ed8"/>
<circle cx="868.57" cy="344.41" r="3.2" fill="#1d4ed8"/>
<circle cx="871.21" cy="342.39" r="3.2" fill="#1d4ed8"/>
<circle cx="873.85" cy="341.18" r="3.2" fill="#1d4ed8"/>
<circle cx="876.49" cy="341.58" r="3.2" fill="#1d4ed8"/>
<circle cx="879.13" cy="339.15" r="3.2" fill="#1d4ed8"/>
<circle cx="881.77" cy="338.35" r="3.2" fill="#1d4ed8"/>
<circle cx="884.41" cy="337.54" r="3.2" fill="#1d4ed8"/>
<circle cx="887.05" cy="336.73" r="3.2" fill="#1d4ed8"/>
<circle cx="889.69" cy="335.92" r="3.2" fill="#1d4ed8"/>
<circle cx="892.32" cy="337.54" r="3.2" fill="#1d4ed8"/>
<circle cx="894.96" cy="338.35" r="3.2" fill="#1d4ed8"/>
<circle cx="897.60" cy="337.54" r="3.2" fill="#1d4ed8"/>
<circle cx="900.24" cy="337.54" r="3.2" fill="#1d4ed8"/>
<circle cx="902.88" cy="337.54" r="3.2" fill="#1d4ed8"/>
<circle cx="905.52" cy="333.09" r="3.2" fill="#1d4ed8"/>
<circle cx="908.16" cy="333.90" r="3.2" fill="#1d4ed8"/>
<circle cx="910.80" cy="335.92" r="3.2" fill="#1d4ed8"/>
<circle cx="913.44" cy="336.73" r="3.2" fill="#1d4ed8"/>
<circle cx="916.08" cy="335.51" r="3.2" fill="#1d4ed8"/>
<circle cx="918.72" cy="332.28" r="3.2" fill="#1d4ed8"/>
<circle cx="921.36" cy="331.47" r="3.2" fill="#1d4ed8"/>
<circle cx="924.00" cy="331.07" r="3.2" fill="#1d4ed8"/>
<circle cx="926.63" cy="331.47" r="3.2" fill="#1d4ed8"/>
<circle cx="929.27" cy="331.07" r="3.2" fill="#1d4ed8"/>
<circle cx="931.91" cy="331.07" r="3.2" fill="#1d4ed8"/>
<circle cx="934.55" cy="331.07" r="3.2" fill="#1d4ed8"/>
<circle cx="937.19" cy="331.07" r="3.2" fill="#1d4ed8"/>
<circle cx="939.83" cy="331.07" r="3.2" fill="#1d4ed8"/>
<circle cx="942.47" cy="331.07" r="3.2" fill="#1d4ed8"/>
<circle cx="945.11" cy="331.07" r="3.2" fill="#1d4ed8"/>
<circle cx="947.75" cy="331.07" r="3.2" fill="#1d4ed8"/>
<circle cx="950.39" cy="331.07" r="3.2" fill="#1d4ed8"/>
<circle cx="953.03" cy="331.07" r="3.2" fill="#1d4ed8"/>
<circle cx="955.67" cy="331.47" r="3.2" fill="#1d4ed8"/>
<circle cx="958.31" cy="331.88" r="3.2" fill="#1d4ed8"/>
<circle cx="960.94" cy="331.07" r="3.2" fill="#1d4ed8"/>
<circle cx="963.58" cy="331.47" r="3.2" fill="#1d4ed8"/>
<circle cx="966.22" cy="331.07" r="3.2" fill="#1d4ed8"/>
<circle cx="968.86" cy="331.47" r="3.2" fill="#1d4ed8"/>
<circle cx="971.50" cy="331.07" r="3.2" fill="#1d4ed8"/>
<circle cx="974.14" cy="324.19" r="3.2" fill="#1d4ed8"/>
<circle cx="976.78" cy="324.19" r="3.2" fill="#1d4ed8"/>
<circle cx="979.42" cy="318.93" r="3.2" fill="#1d4ed8"/>
<circle cx="982.06" cy="316.51" r="3.2" fill="#1d4ed8"/>
<circle cx="984.70" cy="310.44" r="3.2" fill="#1d4ed8"/>
<circle cx="987.34" cy="308.01" r="3.2" fill="#1d4ed8"/>
<circle cx="989.98" cy="600.00" r="3.2" fill="#1d4ed8"/>
<circle cx="992.62" cy="301.54" r="3.2" fill="#1d4ed8"/>
<circle cx="995.25" cy="290.22" r="3.2" fill="#1d4ed8"/>
<circle cx="997.89" cy="287.79" r="3.2" fill="#1d4ed8"/>
<circle cx="1000.53" cy="286.18" r="3.2" fill="#1d4ed8"/>
<circle cx="1003.17" cy="285.77" r="3.2" fill="#1d4ed8"/>
<circle cx="1005.81" cy="285.77" r="3.2" fill="#1d4ed8"/>
<circle cx="1008.45" cy="285.77" r="3.2" fill="#1d4ed8"/>
<circle cx="1011.09" cy="286.18" r="3.2" fill="#1d4ed8"/>
<circle cx="1013.73" cy="285.77" r="3.2" fill="#1d4ed8"/>
<circle cx="1016.37" cy="285.77" r="3.2" fill="#1d4ed8"/>
<circle cx="1019.01" cy="285.77" r="3.2" fill="#1d4ed8"/>
<circle cx="1021.65" cy="283.35" r="3.2" fill="#1d4ed8"/>
<circle cx="1024.29" cy="282.94" r="3.2" fill="#1d4ed8"/>
<circle cx="1026.92" cy="282.94" r="3.2" fill="#1d4ed8"/>
<circle cx="1029.56" cy="283.35" r="3.2" fill="#1d4ed8"/>
<circle cx="1032.20" cy="282.94" r="3.2" fill="#1d4ed8"/>
<circle cx="1034.84" cy="282.94" r="3.2" fill="#1d4ed8"/>
<circle cx="1037.48" cy="283.75" r="3.2" fill="#1d4ed8"/>
<circle cx="1040.12" cy="282.13" r="3.2" fill="#1d4ed8"/>
<circle cx="1042.76" cy="282.13" r="3.2" fill="#1d4ed8"/>
<circle cx="1045.40" cy="282.54" r="3.2" fill="#1d4ed8"/>
<circle cx="1048.04" cy="282.13" r="3.2" fill="#1d4ed8"/>
<circle cx="1050.68" cy="282.54" r="3.2" fill="#1d4ed8"/>
<circle cx="1053.32" cy="282.94" r="3.2" fill="#1d4ed8"/>
<circle cx="1055.96" cy="281.73" r="3.2" fill="#1d4ed8"/>
<circle cx="1058.60" cy="282.54" r="3.2" fill="#1d4ed8"/>
<circle cx="1061.23" cy="281.73" r="3.2" fill="#1d4ed8"/>
<circle cx="1063.87" cy="282.54" r="3.2" fill="#1d4ed8"/>
<circle cx="1066.51" cy="282.13" r="3.2" fill="#1d4ed8"/>
<circle cx="1069.15" cy="282.13" r="3.2" fill="#1d4ed8"/>
<circle cx="1071.79" cy="281.73" r="3.2" fill="#1d4ed8"/>
<circle cx="1074.43" cy="281.73" r="3.2" fill="#1d4ed8"/>
<circle cx="1077.07" cy="281.32" r="3.2" fill="#1d4ed8"/>
<circle cx="1079.71" cy="281.73" r="3.2" fill="#1d4ed8"/>
<circle cx="1082.35" cy="282.13" r="3.2" fill="#1d4ed8"/>
<circle cx="1084.99" cy="281.32" r="3.2" fill="#1d4ed8"/>
<circle cx="1087.63" cy="281.32" r="3.2" fill="#1d4ed8"/>
<circle cx="1090.27" cy="282.54" r="3.2" fill="#1d4ed8"/>
<circle cx="1092.91" cy="282.13" r="3.2" fill="#1d4ed8"/>
<circle cx="1095.54" cy="281.32" r="3.2" fill="#1d4ed8"/>
<circle cx="1098.18" cy="281.32" r="3.2" fill="#1d4ed8"/>
<circle cx="1100.82" cy="281.32" r="3.2" fill="#1d4ed8"/>
<circle cx="1103.46" cy="282.54" r="3.2" fill="#1d4ed8"/>
<circle cx="1106.10" cy="282.13" r="3.2" fill="#1d4ed8"/>
<circle cx="1108.74" cy="281.32" r="3.2" fill="#1d4ed8"/>
<circle cx="1111.38" cy="282.13" r="3.2" fill="#1d4ed8"/>
<circle cx="1114.02" cy="281.73" r="3.2" fill="#1d4ed8"/>
<circle cx="1116.66" cy="282.13" r="3.2" fill="#1d4ed8"/>
<circle cx="1119.30" cy="280.11" r="3.2" fill="#1d4ed8"/>
<circle cx="1121.94" cy="280.11" r="3.2" fill="#1d4ed8"/>
<circle cx="1124.58" cy="280.51" r="3.2" fill="#1d4ed8"/>
<circle cx="1127.22" cy="279.71" r="3.2" fill="#1d4ed8"/>
<circle cx="1129.85" cy="280.11" r="3.2" fill="#1d4ed8"/>
<circle cx="1132.49" cy="280.51" r="3.2" fill="#1d4ed8"/>
<circle cx="1135.13" cy="279.71" r="3.2" fill="#1d4ed8"/>
<circle cx="1137.77" cy="280.11" r="3.2" fill="#1d4ed8"/>
<circle cx="1140.41" cy="280.11" r="3.2" fill="#1d4ed8"/>
<circle cx="1143.05" cy="279.30" r="3.2" fill="#1d4ed8"/>
<circle cx="1145.69" cy="278.90" r="3.2" fill="#1d4ed8"/>
<circle cx="1148.33" cy="278.90" r="3.2" fill="#1d4ed8"/>
<circle cx="1150.97" cy="280.51" r="3.2" fill="#1d4ed8"/>
<circle cx="1153.61" cy="279.30" r="3.2" fill="#1d4ed8"/>
<circle cx="1156.25" cy="278.09" r="3.2" fill="#1d4ed8"/>
<circle cx="1158.89" cy="278.49" r="3.2" fill="#1d4ed8"/>
<circle cx="1161.53" cy="278.49" r="3.2" fill="#1d4ed8"/>
<circle cx="1164.16" cy="277.28" r="3.2" fill="#1d4ed8"/>
<circle cx="1166.80" cy="277.68" r="3.2" fill="#1d4ed8"/>
<circle cx="1169.44" cy="277.68" r="3.2" fill="#1d4ed8"/>
<circle cx="1172.08" cy="278.09" r="3.2" fill="#1d4ed8"/>
<circle cx="1174.72" cy="277.28" r="3.2" fill="#1d4ed8"/>
<circle cx="1177.36" cy="600.00" r="3.2" fill="#1d4ed8"/>
<circle cx="1180.00" cy="278.90" r="3.2" fill="#1d4ed8"/>
<text x="635" y="695" text-anchor="middle" font-size="14" fill="#111" font-family="sans-serif">Date</text>
<text x="24" y="325" text-anchor="middle" font-size="14" fill="#111" transform="rotate(-90 24,325)" font-family="sans-serif">Passed files</text>
</svg>
