<?xml version="1.0" encoding="UTF-8"?>
<svg xmlns="http://www.w3.org/2000/svg" width="1280" height="720" viewBox="0 0 1280 720">
<rect width="100%" height="100%" fill="#ffffff"/>
<text x="640" y="30" text-anchor="middle" font-size="22" font-family="sans-serif">Roast passed files history</text>
<line x1="90" y1="600" x2="1180" y2="600" stroke="#333" stroke-width="1.5"/>
<line x1="90" y1="50" x2="90" y2="600" stroke="#333" stroke-width="1.5"/>
<line x1="90" y1="600.00" x2="1180" y2="600.00" stroke="#e5e7eb" stroke-width="1"/>
<text x="78" y="605.00" text-anchor="end" font-size="12" fill="#111" font-family="sans-serif">0</text>
<line x1="90" y1="397.79" x2="1180" y2="397.79" stroke="#e5e7eb" stroke-width="1"/>
<text x="78" y="402.79" text-anchor="end" font-size="12" fill="#111" font-family="sans-serif">500</text>
<line x1="90" y1="195.59" x2="1180" y2="195.59" stroke="#e5e7eb" stroke-width="1"/>
<text x="78" y="200.59" text-anchor="end" font-size="12" fill="#111" font-family="sans-serif">1000</text>
<line x1="90.00" y1="600" x2="90.00" y2="606" stroke="#333" stroke-width="1"/>
<text x="90.00" y="624" text-anchor="end" font-size="11" fill="#111" transform="rotate(-40 90.00,624)" font-family="sans-serif">2026-02-12</text>
<line x1="222.31" y1="600" x2="222.31" y2="606" stroke="#333" stroke-width="1"/>
<text x="222.31" y="624" text-anchor="end" font-size="11" fill="#111" transform="rotate(-40 222.31,624)" font-family="sans-serif">2026-02-15</text>
<line x1="354.62" y1="600" x2="354.62" y2="606" stroke="#333" stroke-width="1"/>
<text x="354.62" y="624" text-anchor="end" font-size="11" fill="#111" transform="rotate(-40 354.62,624)" font-family="sans-serif">2026-02-17</text>
<line x1="486.94" y1="600" x2="486.94" y2="606" stroke="#333" stroke-width="1"/>
<text x="486.94" y="624" text-anchor="end" font-size="11" fill="#111" transform="rotate(-40 486.94,624)" font-family="sans-serif">2026-02-19</text>
<line x1="619.25" y1="600" x2="619.25" y2="606" stroke="#333" stroke-width="1"/>
<text x="619.25" y="624" text-anchor="end" font-size="11" fill="#111" transform="rotate(-40 619.25,624)" font-family="sans-serif">2026-02-21</text>
<line x1="751.56" y1="600" x2="751.56" y2="606" stroke="#333" stroke-width="1"/>
<text x="751.56" y="624" text-anchor="end" font-size="11" fill="#111" transform="rotate(-40 751.56,624)" font-family="sans-serif">2026-02-23</text>
<line x1="883.87" y1="600" x2="883.87" y2="606" stroke="#333" stroke-width="1"/>
<text x="883.87" y="624" text-anchor="end" font-size="11" fill="#111" transform="rotate(-40 883.87,624)" font-family="sans-serif">2026-02-25</text>
<line x1="1016.18" y1="600" x2="1016.18" y2="606" stroke="#333" stroke-width="1"/>
<text x="1016.18" y="624" text-anchor="end" font-size="11" fill="#111" transform="rotate(-40 1016.18,624)" font-family="sans-serif">2026-02-26</text>
<line x1="1148.50" y1="600" x2="1148.50" y2="606" stroke="#333" stroke-width="1"/>
<text x="1148.50" y="624" text-anchor="end" font-size="11" fill="#111" transform="rotate(-40 1148.50,624)" font-family="sans-serif">2026-02-27</text>
<line x1="1180.00" y1="600" x2="1180.00" y2="606" stroke="#333" stroke-width="1"/>
<text x="1180.00" y="624" text-anchor="end" font-size="11" fill="#111" transform="rotate(-40 1180.00,624)" font-family="sans-serif">2026-02-28</text>
<line x1="90" y1="75.88" x2="1180" y2="75.88" stroke="#dc2626" stroke-width="1.5" stroke-dasharray="8,4"/>
<text x="1184" y="79.88" font-size="12" fill="#dc2626" font-family="sans-serif">Goal: 1296</text>
<polyline fill="none" stroke="#2563eb" stroke-width="3" points="90.00,540.55 96.30,538.53 102.60,536.91 108.90,534.49 115.20,534.49 121.50,533.27 127.80,532.46 134.10,532.87 140.40,532.06 146.71,532.46 153.01,532.06 159.31,568.46 165.61,568.46 171.91,566.43 178.21,545.00 184.51,545.00 190.81,544.19 197.11,543.79 203.41,543.79 209.71,543.38 216.01,541.76 222.31,541.36 228.61,540.96 234.91,540.96 241.21,539.34 247.51,539.34 253.82,556.73 260.12,556.73 266.42,555.51 272.72,551.07 279.02,538.93 285.32,538.93 291.62,538.93 297.92,538.12 304.22,536.91 310.52,536.91 316.82,536.51 323.12,536.51 329.42,556.73 335.72,556.73 342.02,556.73 348.32,556.73 354.62,535.29 360.92,535.29 367.23,535.29 373.53,535.29 379.83,534.49 386.13,534.08 392.43,533.68 398.73,532.87 405.03,532.06 411.33,532.06 417.63,531.25 423.93,530.85 430.23,530.44 436.53,530.04 442.83,530.04 449.13,529.23 455.43,529.23 461.73,529.23 468.03,528.42 474.34,528.42 480.64,527.61 486.94,527.21 493.24,526.80 499.54,526.40 505.84,525.18 512.14,523.57 518.44,523.57 524.74,523.16 531.04,522.76 537.34,522.35 543.64,521.54 549.94,519.52 556.24,517.50 562.54,517.50 568.84,517.50 575.14,517.50 581.45,517.50 587.75,517.50 594.05,517.10 600.35,516.69 606.65,515.48 612.95,515.07 619.25,514.67 625.55,513.86 631.85,514.26 638.15,512.24 644.45,511.84 650.75,511.84 657.05,511.03 663.35,509.82 669.65,507.79 675.95,506.99 682.25,506.58 688.55,509.41 694.86,509.01 701.16,504.96 707.46,504.56 713.76,504.15 720.06,504.56 726.36,503.75 732.66,503.75 738.96,503.35 745.26,499.30 751.56,496.47 757.86,490.00 764.16,484.34 770.46,481.10 776.76,480.29 783.06,480.70 789.36,460.88 795.66,459.26 801.97,458.05 808.27,456.03 814.57,456.03 820.87,454.41 827.17,450.77 833.47,444.30 839.77,443.90 846.07,600.00 852.37,441.88 858.67,440.66 864.97,439.45 871.27,439.04 877.57,438.64 883.87,437.83 890.17,436.62 896.47,436.62 902.77,434.60 909.08,432.17 915.38,429.34 921.68,428.93 927.98,428.53 934.28,427.72 940.58,426.91 946.88,426.10 953.18,426.10 959.48,426.10 965.78,419.63 972.08,419.23 978.38,418.42 984.68,418.01 990.98,417.61 997.28,417.61 1003.58,417.61 1009.88,417.21 1016.18,417.21 1022.49,413.57 1028.79,411.95 1035.09,412.76 1041.39,410.74 1047.69,410.74 1053.99,410.33 1060.29,410.33 1066.59,410.33 1072.89,409.93 1079.19,409.93 1085.49,409.93 1091.79,409.52 1098.09,409.52 1104.39,409.12 1110.69,409.52 1116.99,409.12 1123.29,407.50 1129.60,407.10 1135.90,403.05 1142.20,399.82 1148.50,400.22 1154.80,400.62 1161.10,400.62 1167.40,399.41 1173.70,392.94 1180.00,391.32"/>
<circle cx="90.00" cy="540.55" r="3.2" fill="#1d4ed8"/>
<circle cx="96.30" cy="538.53" r="3.2" fill="#1d4ed8"/>
<circle cx="102.60" cy="536.91" r="3.2" fill="#1d4ed8"/>
<circle cx="108.90" cy="534.49" r="3.2" fill="#1d4ed8"/>
<circle cx="115.20" cy="534.49" r="3.2" fill="#1d4ed8"/>
<circle cx="121.50" cy="533.27" r="3.2" fill="#1d4ed8"/>
<circle cx="127.80" cy="532.46" r="3.2" fill="#1d4ed8"/>
<circle cx="134.10" cy="532.87" r="3.2" fill="#1d4ed8"/>
<circle cx="140.40" cy="532.06" r="3.2" fill="#1d4ed8"/>
<circle cx="146.71" cy="532.46" r="3.2" fill="#1d4ed8"/>
<circle cx="153.01" cy="532.06" r="3.2" fill="#1d4ed8"/>
<circle cx="159.31" cy="568.46" r="3.2" fill="#1d4ed8"/>
<circle cx="165.61" cy="568.46" r="3.2" fill="#1d4ed8"/>
<circle cx="171.91" cy="566.43" r="3.2" fill="#1d4ed8"/>
<circle cx="178.21" cy="545.00" r="3.2" fill="#1d4ed8"/>
<circle cx="184.51" cy="545.00" r="3.2" fill="#1d4ed8"/>
<circle cx="190.81" cy="544.19" r="3.2" fill="#1d4ed8"/>
<circle cx="197.11" cy="543.79" r="3.2" fill="#1d4ed8"/>
<circle cx="203.41" cy="543.79" r="3.2" fill="#1d4ed8"/>
<circle cx="209.71" cy="543.38" r="3.2" fill="#1d4ed8"/>
<circle cx="216.01" cy="541.76" r="3.2" fill="#1d4ed8"/>
<circle cx="222.31" cy="541.36" r="3.2" fill="#1d4ed8"/>
<circle cx="228.61" cy="540.96" r="3.2" fill="#1d4ed8"/>
<circle cx="234.91" cy="540.96" r="3.2" fill="#1d4ed8"/>
<circle cx="241.21" cy="539.34" r="3.2" fill="#1d4ed8"/>
<circle cx="247.51" cy="539.34" r="3.2" fill="#1d4ed8"/>
<circle cx="253.82" cy="556.73" r="3.2" fill="#1d4ed8"/>
<circle cx="260.12" cy="556.73" r="3.2" fill="#1d4ed8"/>
<circle cx="266.42" cy="555.51" r="3.2" fill="#1d4ed8"/>
<circle cx="272.72" cy="551.07" r="3.2" fill="#1d4ed8"/>
<circle cx="279.02" cy="538.93" r="3.2" fill="#1d4ed8"/>
<circle cx="285.32" cy="538.93" r="3.2" fill="#1d4ed8"/>
<circle cx="291.62" cy="538.93" r="3.2" fill="#1d4ed8"/>
<circle cx="297.92" cy="538.12" r="3.2" fill="#1d4ed8"/>
<circle cx="304.22" cy="536.91" r="3.2" fill="#1d4ed8"/>
<circle cx="310.52" cy="536.91" r="3.2" fill="#1d4ed8"/>
<circle cx="316.82" cy="536.51" r="3.2" fill="#1d4ed8"/>
<circle cx="323.12" cy="536.51" r="3.2" fill="#1d4ed8"/>
<circle cx="329.42" cy="556.73" r="3.2" fill="#1d4ed8"/>
<circle cx="335.72" cy="556.73" r="3.2" fill="#1d4ed8"/>
<circle cx="342.02" cy="556.73" r="3.2" fill="#1d4ed8"/>
<circle cx="348.32" cy="556.73" r="3.2" fill="#1d4ed8"/>
<circle cx="354.62" cy="535.29" r="3.2" fill="#1d4ed8"/>
<circle cx="360.92" cy="535.29" r="3.2" fill="#1d4ed8"/>
<circle cx="367.23" cy="535.29" r="3.2" fill="#1d4ed8"/>
<circle cx="373.53" cy="535.29" r="3.2" fill="#1d4ed8"/>
<circle cx="379.83" cy="534.49" r="3.2" fill="#1d4ed8"/>
<circle cx="386.13" cy="534.08" r="3.2" fill="#1d4ed8"/>
<circle cx="392.43" cy="533.68" r="3.2" fill="#1d4ed8"/>
<circle cx="398.73" cy="532.87" r="3.2" fill="#1d4ed8"/>
<circle cx="405.03" cy="532.06" r="3.2" fill="#1d4ed8"/>
<circle cx="411.33" cy="532.06" r="3.2" fill="#1d4ed8"/>
<circle cx="417.63" cy="531.25" r="3.2" fill="#1d4ed8"/>
<circle cx="423.93" cy="530.85" r="3.2" fill="#1d4ed8"/>
<circle cx="430.23" cy="530.44" r="3.2" fill="#1d4ed8"/>
<circle cx="436.53" cy="530.04" r="3.2" fill="#1d4ed8"/>
<circle cx="442.83" cy="530.04" r="3.2" fill="#1d4ed8"/>
<circle cx="449.13" cy="529.23" r="3.2" fill="#1d4ed8"/>
<circle cx="455.43" cy="529.23" r="3.2" fill="#1d4ed8"/>
<circle cx="461.73" cy="529.23" r="3.2" fill="#1d4ed8"/>
<circle cx="468.03" cy="528.42" r="3.2" fill="#1d4ed8"/>
<circle cx="474.34" cy="528.42" r="3.2" fill="#1d4ed8"/>
<circle cx="480.64" cy="527.61" r="3.2" fill="#1d4ed8"/>
<circle cx="486.94" cy="527.21" r="3.2" fill="#1d4ed8"/>
<circle cx="493.24" cy="526.80" r="3.2" fill="#1d4ed8"/>
<circle cx="499.54" cy="526.40" r="3.2" fill="#1d4ed8"/>
<circle cx="505.84" cy="525.18" r="3.2" fill="#1d4ed8"/>
<circle cx="512.14" cy="523.57" r="3.2" fill="#1d4ed8"/>
<circle cx="518.44" cy="523.57" r="3.2" fill="#1d4ed8"/>
<circle cx="524.74" cy="523.16" r="3.2" fill="#1d4ed8"/>
<circle cx="531.04" cy="522.76" r="3.2" fill="#1d4ed8"/>
<circle cx="537.34" cy="522.35" r="3.2" fill="#1d4ed8"/>
<circle cx="543.64" cy="521.54" r="3.2" fill="#1d4ed8"/>
<circle cx="549.94" cy="519.52" r="3.2" fill="#1d4ed8"/>
<circle cx="556.24" cy="517.50" r="3.2" fill="#1d4ed8"/>
<circle cx="562.54" cy="517.50" r="3.2" fill="#1d4ed8"/>
<circle cx="568.84" cy="517.50" r="3.2" fill="#1d4ed8"/>
<circle cx="575.14" cy="517.50" r="3.2" fill="#1d4ed8"/>
<circle cx="581.45" cy="517.50" r="3.2" fill="#1d4ed8"/>
<circle cx="587.75" cy="517.50" r="3.2" fill="#1d4ed8"/>
<circle cx="594.05" cy="517.10" r="3.2" fill="#1d4ed8"/>
<circle cx="600.35" cy="516.69" r="3.2" fill="#1d4ed8"/>
<circle cx="606.65" cy="515.48" r="3.2" fill="#1d4ed8"/>
<circle cx="612.95" cy="515.07" r="3.2" fill="#1d4ed8"/>
<circle cx="619.25" cy="514.67" r="3.2" fill="#1d4ed8"/>
<circle cx="625.55" cy="513.86" r="3.2" fill="#1d4ed8"/>
<circle cx="631.85" cy="514.26" r="3.2" fill="#1d4ed8"/>
<circle cx="638.15" cy="512.24" r="3.2" fill="#1d4ed8"/>
<circle cx="644.45" cy="511.84" r="3.2" fill="#1d4ed8"/>
<circle cx="650.75" cy="511.84" r="3.2" fill="#1d4ed8"/>
<circle cx="657.05" cy="511.03" r="3.2" fill="#1d4ed8"/>
<circle cx="663.35" cy="509.82" r="3.2" fill="#1d4ed8"/>
<circle cx="669.65" cy="507.79" r="3.2" fill="#1d4ed8"/>
<circle cx="675.95" cy="506.99" r="3.2" fill="#1d4ed8"/>
<circle cx="682.25" cy="506.58" r="3.2" fill="#1d4ed8"/>
<circle cx="688.55" cy="509.41" r="3.2" fill="#1d4ed8"/>
<circle cx="694.86" cy="509.01" r="3.2" fill="#1d4ed8"/>
<circle cx="701.16" cy="504.96" r="3.2" fill="#1d4ed8"/>
<circle cx="707.46" cy="504.56" r="3.2" fill="#1d4ed8"/>
<circle cx="713.76" cy="504.15" r="3.2" fill="#1d4ed8"/>
<circle cx="720.06" cy="504.56" r="3.2" fill="#1d4ed8"/>
<circle cx="726.36" cy="503.75" r="3.2" fill="#1d4ed8"/>
<circle cx="732.66" cy="503.75" r="3.2" fill="#1d4ed8"/>
<circle cx="738.96" cy="503.35" r="3.2" fill="#1d4ed8"/>
<circle cx="745.26" cy="499.30" r="3.2" fill="#1d4ed8"/>
<circle cx="751.56" cy="496.47" r="3.2" fill="#1d4ed8"/>
<circle cx="757.86" cy="490.00" r="3.2" fill="#1d4ed8"/>
<circle cx="764.16" cy="484.34" r="3.2" fill="#1d4ed8"/>
<circle cx="770.46" cy="481.10" r="3.2" fill="#1d4ed8"/>
<circle cx="776.76" cy="480.29" r="3.2" fill="#1d4ed8"/>
<circle cx="783.06" cy="480.70" r="3.2" fill="#1d4ed8"/>
<circle cx="789.36" cy="460.88" r="3.2" fill="#1d4ed8"/>
<circle cx="795.66" cy="459.26" r="3.2" fill="#1d4ed8"/>
<circle cx="801.97" cy="458.05" r="3.2" fill="#1d4ed8"/>
<circle cx="808.27" cy="456.03" r="3.2" fill="#1d4ed8"/>
<circle cx="814.57" cy="456.03" r="3.2" fill="#1d4ed8"/>
<circle cx="820.87" cy="454.41" r="3.2" fill="#1d4ed8"/>
<circle cx="827.17" cy="450.77" r="3.2" fill="#1d4ed8"/>
<circle cx="833.47" cy="444.30" r="3.2" fill="#1d4ed8"/>
<circle cx="839.77" cy="443.90" r="3.2" fill="#1d4ed8"/>
<circle cx="846.07" cy="600.00" r="3.2" fill="#1d4ed8"/>
<circle cx="852.37" cy="441.88" r="3.2" fill="#1d4ed8"/>
<circle cx="858.67" cy="440.66" r="3.2" fill="#1d4ed8"/>
<circle cx="864.97" cy="439.45" r="3.2" fill="#1d4ed8"/>
<circle cx="871.27" cy="439.04" r="3.2" fill="#1d4ed8"/>
<circle cx="877.57" cy="438.64" r="3.2" fill="#1d4ed8"/>
<circle cx="883.87" cy="437.83" r="3.2" fill="#1d4ed8"/>
<circle cx="890.17" cy="436.62" r="3.2" fill="#1d4ed8"/>
<circle cx="896.47" cy="436.62" r="3.2" fill="#1d4ed8"/>
<circle cx="902.77" cy="434.60" r="3.2" fill="#1d4ed8"/>
<circle cx="909.08" cy="432.17" r="3.2" fill="#1d4ed8"/>
<circle cx="915.38" cy="429.34" r="3.2" fill="#1d4ed8"/>
<circle cx="921.68" cy="428.93" r="3.2" fill="#1d4ed8"/>
<circle cx="927.98" cy="428.53" r="3.2" fill="#1d4ed8"/>
<circle cx="934.28" cy="427.72" r="3.2" fill="#1d4ed8"/>
<circle cx="940.58" cy="426.91" r="3.2" fill="#1d4ed8"/>
<circle cx="946.88" cy="426.10" r="3.2" fill="#1d4ed8"/>
<circle cx="953.18" cy="426.10" r="3.2" fill="#1d4ed8"/>
<circle cx="959.48" cy="426.10" r="3.2" fill="#1d4ed8"/>
<circle cx="965.78" cy="419.63" r="3.2" fill="#1d4ed8"/>
<circle cx="972.08" cy="419.23" r="3.2" fill="#1d4ed8"/>
<circle cx="978.38" cy="418.42" r="3.2" fill="#1d4ed8"/>
<circle cx="984.68" cy="418.01" r="3.2" fill="#1d4ed8"/>
<circle cx="990.98" cy="417.61" r="3.2" fill="#1d4ed8"/>
<circle cx="997.28" cy="417.61" r="3.2" fill="#1d4ed8"/>
<circle cx="1003.58" cy="417.61" r="3.2" fill="#1d4ed8"/>
<circle cx="1009.88" cy="417.21" r="3.2" fill="#1d4ed8"/>
<circle cx="1016.18" cy="417.21" r="3.2" fill="#1d4ed8"/>
<circle cx="1022.49" cy="413.57" r="3.2" fill="#1d4ed8"/>
<circle cx="1028.79" cy="411.95" r="3.2" fill="#1d4ed8"/>
<circle cx="1035.09" cy="412.76" r="3.2" fill="#1d4ed8"/>
<circle cx="1041.39" cy="410.74" r="3.2" fill="#1d4ed8"/>
<circle cx="1047.69" cy="410.74" r="3.2" fill="#1d4ed8"/>
<circle cx="1053.99" cy="410.33" r="3.2" fill="#1d4ed8"/>
<circle cx="1060.29" cy="410.33" r="3.2" fill="#1d4ed8"/>
<circle cx="1066.59" cy="410.33" r="3.2" fill="#1d4ed8"/>
<circle cx="1072.89" cy="409.93" r="3.2" fill="#1d4ed8"/>
<circle cx="1079.19" cy="409.93" r="3.2" fill="#1d4ed8"/>
<circle cx="1085.49" cy="409.93" r="3.2" fill="#1d4ed8"/>
<circle cx="1091.79" cy="409.52" r="3.2" fill="#1d4ed8"/>
<circle cx="1098.09" cy="409.52" r="3.2" fill="#1d4ed8"/>
<circle cx="1104.39" cy="409.12" r="3.2" fill="#1d4ed8"/>
<circle cx="1110.69" cy="409.52" r="3.2" fill="#1d4ed8"/>
<circle cx="1116.99" cy="409.12" r="3.2" fill="#1d4ed8"/>
<circle cx="1123.29" cy="407.50" r="3.2" fill="#1d4ed8"/>
<circle cx="1129.60" cy="407.10" r="3.2" fill="#1d4ed8"/>
<circle cx="1135.90" cy="403.05" r="3.2" fill="#1d4ed8"/>
<circle cx="1142.20" cy="399.82" r="3.2" fill="#1d4ed8"/>
<circle cx="1148.50" cy="400.22" r="3.2" fill="#1d4ed8"/>
<circle cx="1154.80" cy="400.62" r="3.2" fill="#1d4ed8"/>
<circle cx="1161.10" cy="400.62" r="3.2" fill="#1d4ed8"/>
<circle cx="1167.40" cy="399.41" r="3.2" fill="#1d4ed8"/>
<circle cx="1173.70" cy="392.94" r="3.2" fill="#1d4ed8"/>
<circle cx="1180.00" cy="391.32" r="3.2" fill="#1d4ed8"/>
<text x="635" y="695" text-anchor="middle" font-size="14" fill="#111" font-family="sans-serif">Date</text>
<text x="24" y="325" text-anchor="middle" font-size="14" fill="#111" transform="rotate(-90 24,325)" font-family="sans-serif">Passed files</text>
</svg>
