<?xml version="1.0" encoding="UTF-8"?>
<svg xmlns="http://www.w3.org/2000/svg" width="1280" height="720" viewBox="0 0 1280 720">
<rect width="100%" height="100%" fill="#ffffff"/>
<text x="640" y="30" text-anchor="middle" font-size="22" font-family="sans-serif">Roast passed files history</text>
<line x1="90" y1="600" x2="1180" y2="600" stroke="#333" stroke-width="1.5"/>
<line x1="90" y1="50" x2="90" y2="600" stroke="#333" stroke-width="1.5"/>
<line x1="90" y1="600.00" x2="1180" y2="600.00" stroke="#e5e7eb" stroke-width="1"/>
<text x="78" y="605.00" text-anchor="end" font-size="12" fill="#111" font-family="sans-serif">0</text>
<line x1="90" y1="397.79" x2="1180" y2="397.79" stroke="#e5e7eb" stroke-width="1"/>
<text x="78" y="402.79" text-anchor="end" font-size="12" fill="#111" font-family="sans-serif">500</text>
<line x1="90" y1="195.59" x2="1180" y2="195.59" stroke="#e5e7eb" stroke-width="1"/>
<text x="78" y="200.59" text-anchor="end" font-size="12" fill="#111" font-family="sans-serif">1000</text>
<line x1="90.00" y1="600" x2="90.00" y2="606" stroke="#333" stroke-width="1"/>
<text x="90.00" y="624" text-anchor="end" font-size="11" fill="#111" transform="rotate(-40 90.00,624)" font-family="sans-serif">2026-02-12</text>
<line x1="223.72" y1="600" x2="223.72" y2="606" stroke="#333" stroke-width="1"/>
<text x="223.72" y="624" text-anchor="end" font-size="11" fill="#111" transform="rotate(-40 223.72,624)" font-family="sans-serif">2026-02-17</text>
<line x1="357.43" y1="600" x2="357.43" y2="606" stroke="#333" stroke-width="1"/>
<text x="357.43" y="624" text-anchor="end" font-size="11" fill="#111" transform="rotate(-40 357.43,624)" font-family="sans-serif">2026-02-19</text>
<line x1="491.15" y1="600" x2="491.15" y2="606" stroke="#333" stroke-width="1"/>
<text x="491.15" y="624" text-anchor="end" font-size="11" fill="#111" transform="rotate(-40 491.15,624)" font-family="sans-serif">2026-02-22</text>
<line x1="624.87" y1="600" x2="624.87" y2="606" stroke="#333" stroke-width="1"/>
<text x="624.87" y="624" text-anchor="end" font-size="11" fill="#111" transform="rotate(-40 624.87,624)" font-family="sans-serif">2026-02-25</text>
<line x1="758.59" y1="600" x2="758.59" y2="606" stroke="#333" stroke-width="1"/>
<text x="758.59" y="624" text-anchor="end" font-size="11" fill="#111" transform="rotate(-40 758.59,624)" font-family="sans-serif">2026-02-27</text>
<line x1="892.30" y1="600" x2="892.30" y2="606" stroke="#333" stroke-width="1"/>
<text x="892.30" y="624" text-anchor="end" font-size="11" fill="#111" transform="rotate(-40 892.30,624)" font-family="sans-serif">2026-03-01</text>
<line x1="1026.02" y1="600" x2="1026.02" y2="606" stroke="#333" stroke-width="1"/>
<text x="1026.02" y="624" text-anchor="end" font-size="11" fill="#111" transform="rotate(-40 1026.02,624)" font-family="sans-serif">2026-03-06</text>
<line x1="1159.74" y1="600" x2="1159.74" y2="606" stroke="#333" stroke-width="1"/>
<text x="1159.74" y="624" text-anchor="end" font-size="11" fill="#111" transform="rotate(-40 1159.74,624)" font-family="sans-serif">2026-03-06</text>
<line x1="1180.00" y1="600" x2="1180.00" y2="606" stroke="#333" stroke-width="1"/>
<text x="1180.00" y="624" text-anchor="end" font-size="11" fill="#111" transform="rotate(-40 1180.00,624)" font-family="sans-serif">2026-03-06</text>
<line x1="90" y1="75.88" x2="1180" y2="75.88" stroke="#dc2626" stroke-width="1.5" stroke-dasharray="8,4"/>
<text x="1184" y="79.88" font-size="12" fill="#dc2626" font-family="sans-serif">Goal: 1296</text>
<polyline fill="none" stroke="#2563eb" stroke-width="3" points="90.00,540.55 94.05,538.53 98.10,536.91 102.16,534.49 106.21,534.49 110.26,533.27 114.31,532.46 118.36,532.87 122.42,532.06 126.47,532.46 130.52,532.06 134.57,568.46 138.62,568.46 142.68,566.43 146.73,545.00 150.78,545.00 154.83,544.19 158.88,543.79 162.94,543.79 166.99,543.38 171.04,541.76 175.09,541.36 179.14,540.96 183.20,540.96 187.25,539.34 191.30,539.34 195.35,556.73 199.41,556.73 203.46,555.51 207.51,551.07 211.56,538.93 215.61,538.93 219.67,538.93 223.72,538.12 227.77,536.91 231.82,536.91 235.87,536.51 239.93,536.51 243.98,556.73 248.03,556.73 252.08,556.73 256.13,556.73 260.19,535.29 264.24,535.29 268.29,535.29 272.34,535.29 276.39,534.49 280.45,534.08 284.50,533.68 288.55,532.87 292.60,532.06 296.65,532.06 300.71,531.25 304.76,530.85 308.81,530.44 312.86,530.04 316.91,530.04 320.97,529.23 325.02,529.23 329.07,529.23 333.12,528.42 337.17,528.42 341.23,527.61 345.28,527.21 349.33,526.80 353.38,526.40 357.43,525.18 361.49,523.57 365.54,523.57 369.59,523.16 373.64,522.76 377.70,522.35 381.75,521.54 385.80,519.52 389.85,517.50 393.90,517.50 397.96,517.50 402.01,517.50 406.06,517.50 410.11,517.50 414.16,517.10 418.22,516.69 422.27,515.48 426.32,515.07 430.37,514.67 434.42,513.86 438.48,514.26 442.53,512.24 446.58,511.84 450.63,511.84 454.68,511.03 458.74,509.82 462.79,507.79 466.84,506.99 470.89,506.58 474.94,509.41 479.00,509.01 483.05,504.96 487.10,504.56 491.15,504.15 495.20,504.56 499.26,503.75 503.31,503.75 507.36,503.35 511.41,499.30 515.46,496.47 519.52,490.00 523.57,484.34 527.62,481.10 531.67,480.29 535.72,480.70 539.78,460.88 543.83,459.26 547.88,458.05 551.93,456.03 555.99,456.03 560.04,454.41 564.09,450.77 568.14,444.30 572.19,443.90 576.25,600.00 580.30,441.88 584.35,440.66 588.40,439.45 592.45,439.04 596.51,438.64 600.56,437.83 604.61,436.62 608.66,436.62 612.71,434.60 616.77,432.17 620.82,429.34 624.87,428.93 628.92,428.53 632.97,427.72 637.03,426.91 641.08,426.10 645.13,426.10 649.18,426.10 653.23,419.63 657.29,419.23 661.34,418.42 665.39,418.01 669.44,417.61 673.49,417.61 677.55,417.61 681.60,417.21 685.65,417.21 689.70,413.57 693.75,411.95 697.81,412.76 701.86,410.74 705.91,410.74 709.96,410.33 714.01,410.33 718.07,410.33 722.12,409.93 726.17,409.93 730.22,409.93 734.28,409.52 738.33,409.52 742.38,409.12 746.43,409.52 750.48,409.12 754.54,407.50 758.59,407.10 762.64,403.05 766.69,399.82 770.74,400.22 774.80,400.62 778.85,400.62 782.90,399.41 786.95,392.94 791.00,391.32 795.06,389.30 799.11,389.30 803.16,388.49 807.21,375.15 811.26,374.74 815.32,374.74 819.37,374.74 823.42,374.74 827.47,374.34 831.52,374.34 835.58,374.34 839.63,374.34 843.68,374.34 847.73,373.93 851.78,373.12 855.84,372.72 859.89,373.53 863.94,435.81 867.99,372.32 872.04,372.72 876.10,371.91 880.15,371.91 884.20,372.32 888.25,371.10 892.30,369.89 896.36,369.89 900.41,369.89 904.46,369.49 908.51,369.89 912.57,369.08 916.62,368.68 920.67,368.27 924.72,367.87 928.77,367.06 932.83,367.46 936.88,367.06 940.93,366.25 944.98,368.27 949.03,368.68 953.09,368.68 957.14,368.27 961.19,369.08 965.24,367.87 969.29,367.46 973.35,367.06 977.40,360.18 981.45,359.78 985.50,359.38 989.55,356.95 993.61,357.35 997.66,357.76 1001.71,355.33 1005.76,355.74 1009.81,357.35 1013.87,355.33 1017.92,356.14 1021.97,355.74 1026.02,356.14 1030.07,354.12 1034.13,354.93 1038.18,356.14 1042.23,354.52 1046.28,353.71 1050.33,354.12 1054.39,354.93 1058.44,352.90 1062.49,353.71 1066.54,353.31 1070.59,353.31 1074.65,354.52 1078.70,352.90 1082.75,352.50 1086.80,352.50 1090.86,353.31 1094.91,352.50 1098.96,353.71 1103.01,354.12 1107.06,352.50 1111.12,352.90 1115.17,352.50 1119.22,352.10 1123.27,351.69 1127.32,352.10 1131.38,354.12 1135.43,352.50 1139.48,352.10 1143.53,352.10 1147.58,349.67 1151.64,349.67 1155.69,350.88 1159.74,351.29 1163.79,350.48 1167.84,352.10 1171.90,350.48 1175.95,350.48 1180.00,350.48"/>
<circle cx="90.00" cy="540.55" r="3.2" fill="#1d4ed8"/>
<circle cx="94.05" cy="538.53" r="3.2" fill="#1d4ed8"/>
<circle cx="98.10" cy="536.91" r="3.2" fill="#1d4ed8"/>
<circle cx="102.16" cy="534.49" r="3.2" fill="#1d4ed8"/>
<circle cx="106.21" cy="534.49" r="3.2" fill="#1d4ed8"/>
<circle cx="110.26" cy="533.27" r="3.2" fill="#1d4ed8"/>
<circle cx="114.31" cy="532.46" r="3.2" fill="#1d4ed8"/>
<circle cx="118.36" cy="532.87" r="3.2" fill="#1d4ed8"/>
<circle cx="122.42" cy="532.06" r="3.2" fill="#1d4ed8"/>
<circle cx="126.47" cy="532.46" r="3.2" fill="#1d4ed8"/>
<circle cx="130.52" cy="532.06" r="3.2" fill="#1d4ed8"/>
<circle cx="134.57" cy="568.46" r="3.2" fill="#1d4ed8"/>
<circle cx="138.62" cy="568.46" r="3.2" fill="#1d4ed8"/>
<circle cx="142.68" cy="566.43" r="3.2" fill="#1d4ed8"/>
<circle cx="146.73" cy="545.00" r="3.2" fill="#1d4ed8"/>
<circle cx="150.78" cy="545.00" r="3.2" fill="#1d4ed8"/>
<circle cx="154.83" cy="544.19" r="3.2" fill="#1d4ed8"/>
<circle cx="158.88" cy="543.79" r="3.2" fill="#1d4ed8"/>
<circle cx="162.94" cy="543.79" r="3.2" fill="#1d4ed8"/>
<circle cx="166.99" cy="543.38" r="3.2" fill="#1d4ed8"/>
<circle cx="171.04" cy="541.76" r="3.2" fill="#1d4ed8"/>
<circle cx="175.09" cy="541.36" r="3.2" fill="#1d4ed8"/>
<circle cx="179.14" cy="540.96" r="3.2" fill="#1d4ed8"/>
<circle cx="183.20" cy="540.96" r="3.2" fill="#1d4ed8"/>
<circle cx="187.25" cy="539.34" r="3.2" fill="#1d4ed8"/>
<circle cx="191.30" cy="539.34" r="3.2" fill="#1d4ed8"/>
<circle cx="195.35" cy="556.73" r="3.2" fill="#1d4ed8"/>
<circle cx="199.41" cy="556.73" r="3.2" fill="#1d4ed8"/>
<circle cx="203.46" cy="555.51" r="3.2" fill="#1d4ed8"/>
<circle cx="207.51" cy="551.07" r="3.2" fill="#1d4ed8"/>
<circle cx="211.56" cy="538.93" r="3.2" fill="#1d4ed8"/>
<circle cx="215.61" cy="538.93" r="3.2" fill="#1d4ed8"/>
<circle cx="219.67" cy="538.93" r="3.2" fill="#1d4ed8"/>
<circle cx="223.72" cy="538.12" r="3.2" fill="#1d4ed8"/>
<circle cx="227.77" cy="536.91" r="3.2" fill="#1d4ed8"/>
<circle cx="231.82" cy="536.91" r="3.2" fill="#1d4ed8"/>
<circle cx="235.87" cy="536.51" r="3.2" fill="#1d4ed8"/>
<circle cx="239.93" cy="536.51" r="3.2" fill="#1d4ed8"/>
<circle cx="243.98" cy="556.73" r="3.2" fill="#1d4ed8"/>
<circle cx="248.03" cy="556.73" r="3.2" fill="#1d4ed8"/>
<circle cx="252.08" cy="556.73" r="3.2" fill="#1d4ed8"/>
<circle cx="256.13" cy="556.73" r="3.2" fill="#1d4ed8"/>
<circle cx="260.19" cy="535.29" r="3.2" fill="#1d4ed8"/>
<circle cx="264.24" cy="535.29" r="3.2" fill="#1d4ed8"/>
<circle cx="268.29" cy="535.29" r="3.2" fill="#1d4ed8"/>
<circle cx="272.34" cy="535.29" r="3.2" fill="#1d4ed8"/>
<circle cx="276.39" cy="534.49" r="3.2" fill="#1d4ed8"/>
<circle cx="280.45" cy="534.08" r="3.2" fill="#1d4ed8"/>
<circle cx="284.50" cy="533.68" r="3.2" fill="#1d4ed8"/>
<circle cx="288.55" cy="532.87" r="3.2" fill="#1d4ed8"/>
<circle cx="292.60" cy="532.06" r="3.2" fill="#1d4ed8"/>
<circle cx="296.65" cy="532.06" r="3.2" fill="#1d4ed8"/>
<circle cx="300.71" cy="531.25" r="3.2" fill="#1d4ed8"/>
<circle cx="304.76" cy="530.85" r="3.2" fill="#1d4ed8"/>
<circle cx="308.81" cy="530.44" r="3.2" fill="#1d4ed8"/>
<circle cx="312.86" cy="530.04" r="3.2" fill="#1d4ed8"/>
<circle cx="316.91" cy="530.04" r="3.2" fill="#1d4ed8"/>
<circle cx="320.97" cy="529.23" r="3.2" fill="#1d4ed8"/>
<circle cx="325.02" cy="529.23" r="3.2" fill="#1d4ed8"/>
<circle cx="329.07" cy="529.23" r="3.2" fill="#1d4ed8"/>
<circle cx="333.12" cy="528.42" r="3.2" fill="#1d4ed8"/>
<circle cx="337.17" cy="528.42" r="3.2" fill="#1d4ed8"/>
<circle cx="341.23" cy="527.61" r="3.2" fill="#1d4ed8"/>
<circle cx="345.28" cy="527.21" r="3.2" fill="#1d4ed8"/>
<circle cx="349.33" cy="526.80" r="3.2" fill="#1d4ed8"/>
<circle cx="353.38" cy="526.40" r="3.2" fill="#1d4ed8"/>
<circle cx="357.43" cy="525.18" r="3.2" fill="#1d4ed8"/>
<circle cx="361.49" cy="523.57" r="3.2" fill="#1d4ed8"/>
<circle cx="365.54" cy="523.57" r="3.2" fill="#1d4ed8"/>
<circle cx="369.59" cy="523.16" r="3.2" fill="#1d4ed8"/>
<circle cx="373.64" cy="522.76" r="3.2" fill="#1d4ed8"/>
<circle cx="377.70" cy="522.35" r="3.2" fill="#1d4ed8"/>
<circle cx="381.75" cy="521.54" r="3.2" fill="#1d4ed8"/>
<circle cx="385.80" cy="519.52" r="3.2" fill="#1d4ed8"/>
<circle cx="389.85" cy="517.50" r="3.2" fill="#1d4ed8"/>
<circle cx="393.90" cy="517.50" r="3.2" fill="#1d4ed8"/>
<circle cx="397.96" cy="517.50" r="3.2" fill="#1d4ed8"/>
<circle cx="402.01" cy="517.50" r="3.2" fill="#1d4ed8"/>
<circle cx="406.06" cy="517.50" r="3.2" fill="#1d4ed8"/>
<circle cx="410.11" cy="517.50" r="3.2" fill="#1d4ed8"/>
<circle cx="414.16" cy="517.10" r="3.2" fill="#1d4ed8"/>
<circle cx="418.22" cy="516.69" r="3.2" fill="#1d4ed8"/>
<circle cx="422.27" cy="515.48" r="3.2" fill="#1d4ed8"/>
<circle cx="426.32" cy="515.07" r="3.2" fill="#1d4ed8"/>
<circle cx="430.37" cy="514.67" r="3.2" fill="#1d4ed8"/>
<circle cx="434.42" cy="513.86" r="3.2" fill="#1d4ed8"/>
<circle cx="438.48" cy="514.26" r="3.2" fill="#1d4ed8"/>
<circle cx="442.53" cy="512.24" r="3.2" fill="#1d4ed8"/>
<circle cx="446.58" cy="511.84" r="3.2" fill="#1d4ed8"/>
<circle cx="450.63" cy="511.84" r="3.2" fill="#1d4ed8"/>
<circle cx="454.68" cy="511.03" r="3.2" fill="#1d4ed8"/>
<circle cx="458.74" cy="509.82" r="3.2" fill="#1d4ed8"/>
<circle cx="462.79" cy="507.79" r="3.2" fill="#1d4ed8"/>
<circle cx="466.84" cy="506.99" r="3.2" fill="#1d4ed8"/>
<circle cx="470.89" cy="506.58" r="3.2" fill="#1d4ed8"/>
<circle cx="474.94" cy="509.41" r="3.2" fill="#1d4ed8"/>
<circle cx="479.00" cy="509.01" r="3.2" fill="#1d4ed8"/>
<circle cx="483.05" cy="504.96" r="3.2" fill="#1d4ed8"/>
<circle cx="487.10" cy="504.56" r="3.2" fill="#1d4ed8"/>
<circle cx="491.15" cy="504.15" r="3.2" fill="#1d4ed8"/>
<circle cx="495.20" cy="504.56" r="3.2" fill="#1d4ed8"/>
<circle cx="499.26" cy="503.75" r="3.2" fill="#1d4ed8"/>
<circle cx="503.31" cy="503.75" r="3.2" fill="#1d4ed8"/>
<circle cx="507.36" cy="503.35" r="3.2" fill="#1d4ed8"/>
<circle cx="511.41" cy="499.30" r="3.2" fill="#1d4ed8"/>
<circle cx="515.46" cy="496.47" r="3.2" fill="#1d4ed8"/>
<circle cx="519.52" cy="490.00" r="3.2" fill="#1d4ed8"/>
<circle cx="523.57" cy="484.34" r="3.2" fill="#1d4ed8"/>
<circle cx="527.62" cy="481.10" r="3.2" fill="#1d4ed8"/>
<circle cx="531.67" cy="480.29" r="3.2" fill="#1d4ed8"/>
<circle cx="535.72" cy="480.70" r="3.2" fill="#1d4ed8"/>
<circle cx="539.78" cy="460.88" r="3.2" fill="#1d4ed8"/>
<circle cx="543.83" cy="459.26" r="3.2" fill="#1d4ed8"/>
<circle cx="547.88" cy="458.05" r="3.2" fill="#1d4ed8"/>
<circle cx="551.93" cy="456.03" r="3.2" fill="#1d4ed8"/>
<circle cx="555.99" cy="456.03" r="3.2" fill="#1d4ed8"/>
<circle cx="560.04" cy="454.41" r="3.2" fill="#1d4ed8"/>
<circle cx="564.09" cy="450.77" r="3.2" fill="#1d4ed8"/>
<circle cx="568.14" cy="444.30" r="3.2" fill="#1d4ed8"/>
<circle cx="572.19" cy="443.90" r="3.2" fill="#1d4ed8"/>
<circle cx="576.25" cy="600.00" r="3.2" fill="#1d4ed8"/>
<circle cx="580.30" cy="441.88" r="3.2" fill="#1d4ed8"/>
<circle cx="584.35" cy="440.66" r="3.2" fill="#1d4ed8"/>
<circle cx="588.40" cy="439.45" r="3.2" fill="#1d4ed8"/>
<circle cx="592.45" cy="439.04" r="3.2" fill="#1d4ed8"/>
<circle cx="596.51" cy="438.64" r="3.2" fill="#1d4ed8"/>
<circle cx="600.56" cy="437.83" r="3.2" fill="#1d4ed8"/>
<circle cx="604.61" cy="436.62" r="3.2" fill="#1d4ed8"/>
<circle cx="608.66" cy="436.62" r="3.2" fill="#1d4ed8"/>
<circle cx="612.71" cy="434.60" r="3.2" fill="#1d4ed8"/>
<circle cx="616.77" cy="432.17" r="3.2" fill="#1d4ed8"/>
<circle cx="620.82" cy="429.34" r="3.2" fill="#1d4ed8"/>
<circle cx="624.87" cy="428.93" r="3.2" fill="#1d4ed8"/>
<circle cx="628.92" cy="428.53" r="3.2" fill="#1d4ed8"/>
<circle cx="632.97" cy="427.72" r="3.2" fill="#1d4ed8"/>
<circle cx="637.03" cy="426.91" r="3.2" fill="#1d4ed8"/>
<circle cx="641.08" cy="426.10" r="3.2" fill="#1d4ed8"/>
<circle cx="645.13" cy="426.10" r="3.2" fill="#1d4ed8"/>
<circle cx="649.18" cy="426.10" r="3.2" fill="#1d4ed8"/>
<circle cx="653.23" cy="419.63" r="3.2" fill="#1d4ed8"/>
<circle cx="657.29" cy="419.23" r="3.2" fill="#1d4ed8"/>
<circle cx="661.34" cy="418.42" r="3.2" fill="#1d4ed8"/>
<circle cx="665.39" cy="418.01" r="3.2" fill="#1d4ed8"/>
<circle cx="669.44" cy="417.61" r="3.2" fill="#1d4ed8"/>
<circle cx="673.49" cy="417.61" r="3.2" fill="#1d4ed8"/>
<circle cx="677.55" cy="417.61" r="3.2" fill="#1d4ed8"/>
<circle cx="681.60" cy="417.21" r="3.2" fill="#1d4ed8"/>
<circle cx="685.65" cy="417.21" r="3.2" fill="#1d4ed8"/>
<circle cx="689.70" cy="413.57" r="3.2" fill="#1d4ed8"/>
<circle cx="693.75" cy="411.95" r="3.2" fill="#1d4ed8"/>
<circle cx="697.81" cy="412.76" r="3.2" fill="#1d4ed8"/>
<circle cx="701.86" cy="410.74" r="3.2" fill="#1d4ed8"/>
<circle cx="705.91" cy="410.74" r="3.2" fill="#1d4ed8"/>
<circle cx="709.96" cy="410.33" r="3.2" fill="#1d4ed8"/>
<circle cx="714.01" cy="410.33" r="3.2" fill="#1d4ed8"/>
<circle cx="718.07" cy="410.33" r="3.2" fill="#1d4ed8"/>
<circle cx="722.12" cy="409.93" r="3.2" fill="#1d4ed8"/>
<circle cx="726.17" cy="409.93" r="3.2" fill="#1d4ed8"/>
<circle cx="730.22" cy="409.93" r="3.2" fill="#1d4ed8"/>
<circle cx="734.28" cy="409.52" r="3.2" fill="#1d4ed8"/>
<circle cx="738.33" cy="409.52" r="3.2" fill="#1d4ed8"/>
<circle cx="742.38" cy="409.12" r="3.2" fill="#1d4ed8"/>
<circle cx="746.43" cy="409.52" r="3.2" fill="#1d4ed8"/>
<circle cx="750.48" cy="409.12" r="3.2" fill="#1d4ed8"/>
<circle cx="754.54" cy="407.50" r="3.2" fill="#1d4ed8"/>
<circle cx="758.59" cy="407.10" r="3.2" fill="#1d4ed8"/>
<circle cx="762.64" cy="403.05" r="3.2" fill="#1d4ed8"/>
<circle cx="766.69" cy="399.82" r="3.2" fill="#1d4ed8"/>
<circle cx="770.74" cy="400.22" r="3.2" fill="#1d4ed8"/>
<circle cx="774.80" cy="400.62" r="3.2" fill="#1d4ed8"/>
<circle cx="778.85" cy="400.62" r="3.2" fill="#1d4ed8"/>
<circle cx="782.90" cy="399.41" r="3.2" fill="#1d4ed8"/>
<circle cx="786.95" cy="392.94" r="3.2" fill="#1d4ed8"/>
<circle cx="791.00" cy="391.32" r="3.2" fill="#1d4ed8"/>
<circle cx="795.06" cy="389.30" r="3.2" fill="#1d4ed8"/>
<circle cx="799.11" cy="389.30" r="3.2" fill="#1d4ed8"/>
<circle cx="803.16" cy="388.49" r="3.2" fill="#1d4ed8"/>
<circle cx="807.21" cy="375.15" r="3.2" fill="#1d4ed8"/>
<circle cx="811.26" cy="374.74" r="3.2" fill="#1d4ed8"/>
<circle cx="815.32" cy="374.74" r="3.2" fill="#1d4ed8"/>
<circle cx="819.37" cy="374.74" r="3.2" fill="#1d4ed8"/>
<circle cx="823.42" cy="374.74" r="3.2" fill="#1d4ed8"/>
<circle cx="827.47" cy="374.34" r="3.2" fill="#1d4ed8"/>
<circle cx="831.52" cy="374.34" r="3.2" fill="#1d4ed8"/>
<circle cx="835.58" cy="374.34" r="3.2" fill="#1d4ed8"/>
<circle cx="839.63" cy="374.34" r="3.2" fill="#1d4ed8"/>
<circle cx="843.68" cy="374.34" r="3.2" fill="#1d4ed8"/>
<circle cx="847.73" cy="373.93" r="3.2" fill="#1d4ed8"/>
<circle cx="851.78" cy="373.12" r="3.2" fill="#1d4ed8"/>
<circle cx="855.84" cy="372.72" r="3.2" fill="#1d4ed8"/>
<circle cx="859.89" cy="373.53" r="3.2" fill="#1d4ed8"/>
<circle cx="863.94" cy="435.81" r="3.2" fill="#1d4ed8"/>
<circle cx="867.99" cy="372.32" r="3.2" fill="#1d4ed8"/>
<circle cx="872.04" cy="372.72" r="3.2" fill="#1d4ed8"/>
<circle cx="876.10" cy="371.91" r="3.2" fill="#1d4ed8"/>
<circle cx="880.15" cy="371.91" r="3.2" fill="#1d4ed8"/>
<circle cx="884.20" cy="372.32" r="3.2" fill="#1d4ed8"/>
<circle cx="888.25" cy="371.10" r="3.2" fill="#1d4ed8"/>
<circle cx="892.30" cy="369.89" r="3.2" fill="#1d4ed8"/>
<circle cx="896.36" cy="369.89" r="3.2" fill="#1d4ed8"/>
<circle cx="900.41" cy="369.89" r="3.2" fill="#1d4ed8"/>
<circle cx="904.46" cy="369.49" r="3.2" fill="#1d4ed8"/>
<circle cx="908.51" cy="369.89" r="3.2" fill="#1d4ed8"/>
<circle cx="912.57" cy="369.08" r="3.2" fill="#1d4ed8"/>
<circle cx="916.62" cy="368.68" r="3.2" fill="#1d4ed8"/>
<circle cx="920.67" cy="368.27" r="3.2" fill="#1d4ed8"/>
<circle cx="924.72" cy="367.87" r="3.2" fill="#1d4ed8"/>
<circle cx="928.77" cy="367.06" r="3.2" fill="#1d4ed8"/>
<circle cx="932.83" cy="367.46" r="3.2" fill="#1d4ed8"/>
<circle cx="936.88" cy="367.06" r="3.2" fill="#1d4ed8"/>
<circle cx="940.93" cy="366.25" r="3.2" fill="#1d4ed8"/>
<circle cx="944.98" cy="368.27" r="3.2" fill="#1d4ed8"/>
<circle cx="949.03" cy="368.68" r="3.2" fill="#1d4ed8"/>
<circle cx="953.09" cy="368.68" r="3.2" fill="#1d4ed8"/>
<circle cx="957.14" cy="368.27" r="3.2" fill="#1d4ed8"/>
<circle cx="961.19" cy="369.08" r="3.2" fill="#1d4ed8"/>
<circle cx="965.24" cy="367.87" r="3.2" fill="#1d4ed8"/>
<circle cx="969.29" cy="367.46" r="3.2" fill="#1d4ed8"/>
<circle cx="973.35" cy="367.06" r="3.2" fill="#1d4ed8"/>
<circle cx="977.40" cy="360.18" r="3.2" fill="#1d4ed8"/>
<circle cx="981.45" cy="359.78" r="3.2" fill="#1d4ed8"/>
<circle cx="985.50" cy="359.38" r="3.2" fill="#1d4ed8"/>
<circle cx="989.55" cy="356.95" r="3.2" fill="#1d4ed8"/>
<circle cx="993.61" cy="357.35" r="3.2" fill="#1d4ed8"/>
<circle cx="997.66" cy="357.76" r="3.2" fill="#1d4ed8"/>
<circle cx="1001.71" cy="355.33" r="3.2" fill="#1d4ed8"/>
<circle cx="1005.76" cy="355.74" r="3.2" fill="#1d4ed8"/>
<circle cx="1009.81" cy="357.35" r="3.2" fill="#1d4ed8"/>
<circle cx="1013.87" cy="355.33" r="3.2" fill="#1d4ed8"/>
<circle cx="1017.92" cy="356.14" r="3.2" fill="#1d4ed8"/>
<circle cx="1021.97" cy="355.74" r="3.2" fill="#1d4ed8"/>
<circle cx="1026.02" cy="356.14" r="3.2" fill="#1d4ed8"/>
<circle cx="1030.07" cy="354.12" r="3.2" fill="#1d4ed8"/>
<circle cx="1034.13" cy="354.93" r="3.2" fill="#1d4ed8"/>
<circle cx="1038.18" cy="356.14" r="3.2" fill="#1d4ed8"/>
<circle cx="1042.23" cy="354.52" r="3.2" fill="#1d4ed8"/>
<circle cx="1046.28" cy="353.71" r="3.2" fill="#1d4ed8"/>
<circle cx="1050.33" cy="354.12" r="3.2" fill="#1d4ed8"/>
<circle cx="1054.39" cy="354.93" r="3.2" fill="#1d4ed8"/>
<circle cx="1058.44" cy="352.90" r="3.2" fill="#1d4ed8"/>
<circle cx="1062.49" cy="353.71" r="3.2" fill="#1d4ed8"/>
<circle cx="1066.54" cy="353.31" r="3.2" fill="#1d4ed8"/>
<circle cx="1070.59" cy="353.31" r="3.2" fill="#1d4ed8"/>
<circle cx="1074.65" cy="354.52" r="3.2" fill="#1d4ed8"/>
<circle cx="1078.70" cy="352.90" r="3.2" fill="#1d4ed8"/>
<circle cx="1082.75" cy="352.50" r="3.2" fill="#1d4ed8"/>
<circle cx="1086.80" cy="352.50" r="3.2" fill="#1d4ed8"/>
<circle cx="1090.86" cy="353.31" r="3.2" fill="#1d4ed8"/>
<circle cx="1094.91" cy="352.50" r="3.2" fill="#1d4ed8"/>
<circle cx="1098.96" cy="353.71" r="3.2" fill="#1d4ed8"/>
<circle cx="1103.01" cy="354.12" r="3.2" fill="#1d4ed8"/>
<circle cx="1107.06" cy="352.50" r="3.2" fill="#1d4ed8"/>
<circle cx="1111.12" cy="352.90" r="3.2" fill="#1d4ed8"/>
<circle cx="1115.17" cy="352.50" r="3.2" fill="#1d4ed8"/>
<circle cx="1119.22" cy="352.10" r="3.2" fill="#1d4ed8"/>
<circle cx="1123.27" cy="351.69" r="3.2" fill="#1d4ed8"/>
<circle cx="1127.32" cy="352.10" r="3.2" fill="#1d4ed8"/>
<circle cx="1131.38" cy="354.12" r="3.2" fill="#1d4ed8"/>
<circle cx="1135.43" cy="352.50" r="3.2" fill="#1d4ed8"/>
<circle cx="1139.48" cy="352.10" r="3.2" fill="#1d4ed8"/>
<circle cx="1143.53" cy="352.10" r="3.2" fill="#1d4ed8"/>
<circle cx="1147.58" cy="349.67" r="3.2" fill="#1d4ed8"/>
<circle cx="1151.64" cy="349.67" r="3.2" fill="#1d4ed8"/>
<circle cx="1155.69" cy="350.88" r="3.2" fill="#1d4ed8"/>
<circle cx="1159.74" cy="351.29" r="3.2" fill="#1d4ed8"/>
<circle cx="1163.79" cy="350.48" r="3.2" fill="#1d4ed8"/>
<circle cx="1167.84" cy="352.10" r="3.2" fill="#1d4ed8"/>
<circle cx="1171.90" cy="350.48" r="3.2" fill="#1d4ed8"/>
<circle cx="1175.95" cy="350.48" r="3.2" fill="#1d4ed8"/>
<circle cx="1180.00" cy="350.48" r="3.2" fill="#1d4ed8"/>
<text x="635" y="695" text-anchor="middle" font-size="14" fill="#111" font-family="sans-serif">Date</text>
<text x="24" y="325" text-anchor="middle" font-size="14" fill="#111" transform="rotate(-90 24,325)" font-family="sans-serif">Passed files</text>
</svg>
