<?xml version="1.0" encoding="UTF-8"?>
<svg xmlns="http://www.w3.org/2000/svg" width="1280" height="720" viewBox="0 0 1280 720">
<rect width="100%" height="100%" fill="#ffffff"/>
<text x="640" y="30" text-anchor="middle" font-size="22" font-family="sans-serif">Roast passed files history</text>
<line x1="90" y1="600" x2="1180" y2="600" stroke="#333" stroke-width="1.5"/>
<line x1="90" y1="50" x2="90" y2="600" stroke="#333" stroke-width="1.5"/>
<line x1="90" y1="600.00" x2="1180" y2="600.00" stroke="#e5e7eb" stroke-width="1"/>
<text x="78" y="605.00" text-anchor="end" font-size="12" fill="#111" font-family="sans-serif">0</text>
<line x1="90" y1="397.79" x2="1180" y2="397.79" stroke="#e5e7eb" stroke-width="1"/>
<text x="78" y="402.79" text-anchor="end" font-size="12" fill="#111" font-family="sans-serif">500</text>
<line x1="90" y1="195.59" x2="1180" y2="195.59" stroke="#e5e7eb" stroke-width="1"/>
<text x="78" y="200.59" text-anchor="end" font-size="12" fill="#111" font-family="sans-serif">1000</text>
<line x1="90.00" y1="600" x2="90.00" y2="606" stroke="#333" stroke-width="1"/>
<text x="90.00" y="624" text-anchor="end" font-size="11" fill="#111" transform="rotate(-40 90.00,624)" font-family="sans-serif">2026-02-12</text>
<line x1="225.71" y1="600" x2="225.71" y2="606" stroke="#333" stroke-width="1"/>
<text x="225.71" y="624" text-anchor="end" font-size="11" fill="#111" transform="rotate(-40 225.71,624)" font-family="sans-serif">2026-02-19</text>
<line x1="361.42" y1="600" x2="361.42" y2="606" stroke="#333" stroke-width="1"/>
<text x="361.42" y="624" text-anchor="end" font-size="11" fill="#111" transform="rotate(-40 361.42,624)" font-family="sans-serif">2026-02-25</text>
<line x1="497.13" y1="600" x2="497.13" y2="606" stroke="#333" stroke-width="1"/>
<text x="497.13" y="624" text-anchor="end" font-size="11" fill="#111" transform="rotate(-40 497.13,624)" font-family="sans-serif">2026-02-28</text>
<line x1="632.85" y1="600" x2="632.85" y2="606" stroke="#333" stroke-width="1"/>
<text x="632.85" y="624" text-anchor="end" font-size="11" fill="#111" transform="rotate(-40 632.85,624)" font-family="sans-serif">2026-03-06</text>
<line x1="768.56" y1="600" x2="768.56" y2="606" stroke="#333" stroke-width="1"/>
<text x="768.56" y="624" text-anchor="end" font-size="11" fill="#111" transform="rotate(-40 768.56,624)" font-family="sans-serif">2026-03-11</text>
<line x1="904.27" y1="600" x2="904.27" y2="606" stroke="#333" stroke-width="1"/>
<text x="904.27" y="624" text-anchor="end" font-size="11" fill="#111" transform="rotate(-40 904.27,624)" font-family="sans-serif">2026-03-19</text>
<line x1="1039.98" y1="600" x2="1039.98" y2="606" stroke="#333" stroke-width="1"/>
<text x="1039.98" y="624" text-anchor="end" font-size="11" fill="#111" transform="rotate(-40 1039.98,624)" font-family="sans-serif">2026-03-26</text>
<line x1="1175.69" y1="600" x2="1175.69" y2="606" stroke="#333" stroke-width="1"/>
<text x="1175.69" y="624" text-anchor="end" font-size="11" fill="#111" transform="rotate(-40 1175.69,624)" font-family="sans-serif">2026-04-10</text>
<line x1="1180.00" y1="600" x2="1180.00" y2="606" stroke="#333" stroke-width="1"/>
<text x="1180.00" y="624" text-anchor="end" font-size="11" fill="#111" transform="rotate(-40 1180.00,624)" font-family="sans-serif">2026-04-16</text>
<line x1="90" y1="75.88" x2="1180" y2="75.88" stroke="#dc2626" stroke-width="1.5" stroke-dasharray="8,4"/>
<text x="1184" y="79.88" font-size="12" fill="#dc2626" font-family="sans-serif">Goal: 1296</text>
<polyline fill="none" stroke="#2563eb" stroke-width="3" points="90.00,540.55 92.15,538.53 94.31,536.91 96.46,534.49 98.62,534.49 100.77,533.27 102.92,532.46 105.08,532.87 107.23,532.06 109.39,532.46 111.54,532.06 113.70,568.46 115.85,568.46 118.00,566.43 120.16,545.00 122.31,545.00 124.47,544.19 126.62,543.79 128.77,543.79 130.93,543.38 133.08,541.76 135.24,541.36 137.39,540.96 139.55,540.96 141.70,539.34 143.85,539.34 146.01,556.73 148.16,556.73 150.32,555.51 152.47,551.07 154.62,538.93 156.78,538.93 158.93,538.93 161.09,538.12 163.24,536.91 165.40,536.91 167.55,536.51 169.70,536.51 171.86,556.73 174.01,556.73 176.17,556.73 178.32,556.73 180.47,535.29 182.63,535.29 184.78,535.29 186.94,535.29 189.09,534.49 191.25,534.08 193.40,533.68 195.55,532.87 197.71,532.06 199.86,532.06 202.02,531.25 204.17,530.85 206.32,530.44 208.48,530.04 210.63,530.04 212.79,529.23 214.94,529.23 217.09,529.23 219.25,528.42 221.40,528.42 223.56,527.61 225.71,527.21 227.87,526.80 230.02,526.40 232.17,525.18 234.33,523.57 236.48,523.57 238.64,523.16 240.79,522.76 242.94,522.35 245.10,521.54 247.25,519.52 249.41,517.50 251.56,517.50 253.72,517.50 255.87,517.50 258.02,517.50 260.18,517.50 262.33,517.10 264.49,516.69 266.64,515.48 268.79,515.07 270.95,514.67 273.10,513.86 275.26,514.26 277.41,512.24 279.57,511.84 281.72,511.84 283.87,511.03 286.03,509.82 288.18,507.79 290.34,506.99 292.49,506.58 294.64,509.41 296.80,509.01 298.95,504.96 301.11,504.56 303.26,504.15 305.42,504.56 307.57,503.75 309.72,503.75 311.88,503.35 314.03,499.30 316.19,496.47 318.34,490.00 320.49,484.34 322.65,481.10 324.80,480.29 326.96,480.70 329.11,460.88 331.26,459.26 333.42,458.05 335.57,456.03 337.73,456.03 339.88,454.41 342.04,450.77 344.19,444.30 346.34,443.90 348.50,600.00 350.65,441.88 352.81,440.66 354.96,439.45 357.11,439.04 359.27,438.64 361.42,437.83 363.58,436.62 365.73,436.62 367.89,434.60 370.04,432.17 372.19,429.34 374.35,428.93 376.50,428.53 378.66,427.72 380.81,426.91 382.96,426.10 385.12,426.10 387.27,426.10 389.43,419.63 391.58,419.23 393.74,418.42 395.89,418.01 398.04,417.61 400.20,417.61 402.35,417.61 404.51,417.21 406.66,417.21 408.81,413.57 410.97,411.95 413.12,412.76 415.28,410.74 417.43,410.74 419.58,410.33 421.74,410.33 423.89,410.33 426.05,409.93 428.20,409.93 430.36,409.93 432.51,409.52 434.66,409.52 436.82,409.12 438.97,409.52 441.13,409.12 443.28,407.50 445.43,407.10 447.59,403.05 449.74,399.82 451.90,400.22 454.05,400.62 456.21,400.62 458.36,399.41 460.51,392.94 462.67,391.32 464.82,389.30 466.98,389.30 469.13,388.49 471.28,375.15 473.44,374.74 475.59,374.74 477.75,374.74 479.90,374.74 482.06,374.34 484.21,374.34 486.36,374.34 488.52,374.34 490.67,374.34 492.83,373.93 494.98,373.12 497.13,372.72 499.29,373.53 501.44,435.81 503.60,372.32 505.75,372.72 507.91,371.91 510.06,371.91 512.21,372.32 514.37,371.10 516.52,369.89 518.68,369.89 520.83,369.89 522.98,369.49 525.14,369.89 527.29,369.08 529.45,368.68 531.60,368.27 533.75,367.87 535.91,367.06 538.06,367.46 540.22,367.06 542.37,366.25 544.53,368.27 546.68,368.68 548.83,368.68 550.99,368.27 553.14,369.08 555.30,367.87 557.45,367.46 559.60,367.06 561.76,360.18 563.91,359.78 566.07,359.38 568.22,356.95 570.38,357.35 572.53,357.76 574.68,355.33 576.84,355.74 578.99,357.35 581.15,355.33 583.30,356.14 585.45,355.74 587.61,356.14 589.76,354.12 591.92,354.93 594.07,356.14 596.23,354.52 598.38,353.71 600.53,354.12 602.69,354.93 604.84,352.90 607.00,353.71 609.15,353.31 611.30,353.31 613.46,354.52 615.61,352.90 617.77,352.50 619.92,352.50 622.08,353.31 624.23,352.50 626.38,353.71 628.54,354.12 630.69,352.50 632.85,352.90 635.00,352.50 637.15,352.10 639.31,351.69 641.46,352.10 643.62,354.12 645.77,352.50 647.92,352.10 650.08,352.10 652.23,349.67 654.39,349.67 656.54,350.88 658.70,351.29 660.85,350.48 663.00,352.10 665.16,350.48 667.31,350.48 669.47,350.48 671.62,350.07 673.77,348.46 675.93,351.29 678.08,349.67 680.24,351.29 682.39,349.67 684.55,348.86 686.70,348.46 688.85,348.46 691.01,347.24 693.16,348.86 695.32,346.84 697.47,348.46 699.62,348.86 701.78,346.84 703.93,349.26 706.09,348.05 708.24,349.26 710.40,349.26 712.55,350.48 714.70,352.90 716.86,349.67 719.01,348.46 721.17,345.62 723.32,344.82 725.47,344.41 727.63,342.39 729.78,341.18 731.94,341.58 734.09,339.15 736.25,338.35 738.40,337.54 740.55,336.73 742.71,335.92 744.86,337.54 747.02,338.35 749.17,337.54 751.32,337.54 753.48,337.54 755.63,333.09 757.79,333.90 759.94,335.92 762.09,336.73 764.25,335.51 766.40,332.28 768.56,331.47 770.71,331.07 772.87,331.47 775.02,331.07 777.17,331.07 779.33,331.07 781.48,331.07 783.64,331.07 785.79,331.07 787.94,331.07 790.10,331.07 792.25,331.07 794.41,331.07 796.56,331.47 798.72,331.88 800.87,331.07 803.02,331.47 805.18,331.07 807.33,331.47 809.49,331.07 811.64,324.19 813.79,324.19 815.95,318.93 818.10,316.51 820.26,310.44 822.41,308.01 824.57,600.00 826.72,301.54 828.87,290.22 831.03,287.79 833.18,286.18 835.34,285.77 837.49,285.77 839.64,285.77 841.80,286.18 843.95,285.77 846.11,285.77 848.26,285.77 850.42,283.35 852.57,282.94 854.72,282.94 856.88,283.35 859.03,282.94 861.19,282.94 863.34,283.75 865.49,282.13 867.65,282.13 869.80,282.54 871.96,282.13 874.11,282.54 876.26,282.94 878.42,281.73 880.57,282.54 882.73,281.73 884.88,282.54 887.04,282.13 889.19,282.13 891.34,281.73 893.50,281.73 895.65,281.32 897.81,281.73 899.96,282.13 902.11,281.32 904.27,281.32 906.42,282.54 908.58,282.13 910.73,281.32 912.89,281.32 915.04,281.32 917.19,282.54 919.35,282.13 921.50,281.32 923.66,282.13 925.81,281.73 927.96,282.13 930.12,280.11 932.27,280.11 934.43,280.51 936.58,279.71 938.74,280.11 940.89,280.51 943.04,279.71 945.20,280.11 947.35,280.11 949.51,279.30 951.66,278.90 953.81,278.90 955.97,280.51 958.12,279.30 960.28,278.09 962.43,278.49 964.58,278.49 966.74,277.28 968.89,277.68 971.05,277.68 973.20,278.09 975.36,277.28 977.51,600.00 979.66,278.90 981.82,279.30 983.97,278.90 986.13,278.49 988.28,278.49 990.43,278.49 992.59,278.49 994.74,278.49 996.90,278.49 999.05,278.49 1001.21,278.49 1003.36,278.49 1005.51,278.49 1007.67,278.49 1009.82,278.49 1011.98,600.00 1014.13,600.00 1016.28,254.63 1018.44,600.00 1020.59,245.74 1022.75,245.74 1024.90,246.14 1027.06,245.74 1029.21,245.74 1031.36,245.74 1033.52,245.74 1035.67,245.74 1037.83,240.07 1039.98,238.05 1042.13,238.05 1044.29,227.13 1046.44,227.13 1048.60,226.32 1050.75,227.54 1052.91,226.73 1055.06,226.32 1057.21,227.13 1059.37,227.13 1061.52,226.73 1063.68,226.32 1065.83,226.73 1067.98,226.73 1070.14,226.73 1072.29,225.11 1074.45,224.71 1076.60,225.11 1078.75,224.30 1080.91,226.32 1083.06,224.30 1085.22,225.51 1087.37,225.51 1089.53,225.51 1091.68,225.92 1093.83,223.09 1095.99,223.49 1098.14,223.09 1100.30,223.09 1102.45,223.90 1104.60,223.49 1106.76,223.49 1108.91,223.09 1111.07,223.09 1113.22,223.49 1115.38,223.09 1117.53,223.09 1119.68,223.49 1121.84,223.49 1123.99,223.09 1126.15,223.09 1128.30,223.49 1130.45,223.09 1132.61,223.09 1134.76,223.09 1136.92,223.49 1139.07,223.49 1141.23,223.49 1143.38,223.09 1145.53,223.49 1147.69,223.09 1149.84,223.09 1152.00,223.49 1154.15,223.09 1156.30,223.09 1158.46,223.49 1160.61,222.68 1162.77,221.88 1164.92,223.49 1167.08,223.09 1169.23,223.49 1171.38,224.30 1173.54,201.65 1175.69,201.65 1177.85,186.69 1180.00,176.18"/>
<circle cx="90.00" cy="540.55" r="3.2" fill="#1d4ed8"/>
<circle cx="92.15" cy="538.53" r="3.2" fill="#1d4ed8"/>
<circle cx="94.31" cy="536.91" r="3.2" fill="#1d4ed8"/>
<circle cx="96.46" cy="534.49" r="3.2" fill="#1d4ed8"/>
<circle cx="98.62" cy="534.49" r="3.2" fill="#1d4ed8"/>
<circle cx="100.77" cy="533.27" r="3.2" fill="#1d4ed8"/>
<circle cx="102.92" cy="532.46" r="3.2" fill="#1d4ed8"/>
<circle cx="105.08" cy="532.87" r="3.2" fill="#1d4ed8"/>
<circle cx="107.23" cy="532.06" r="3.2" fill="#1d4ed8"/>
<circle cx="109.39" cy="532.46" r="3.2" fill="#1d4ed8"/>
<circle cx="111.54" cy="532.06" r="3.2" fill="#1d4ed8"/>
<circle cx="113.70" cy="568.46" r="3.2" fill="#1d4ed8"/>
<circle cx="115.85" cy="568.46" r="3.2" fill="#1d4ed8"/>
<circle cx="118.00" cy="566.43" r="3.2" fill="#1d4ed8"/>
<circle cx="120.16" cy="545.00" r="3.2" fill="#1d4ed8"/>
<circle cx="122.31" cy="545.00" r="3.2" fill="#1d4ed8"/>
<circle cx="124.47" cy="544.19" r="3.2" fill="#1d4ed8"/>
<circle cx="126.62" cy="543.79" r="3.2" fill="#1d4ed8"/>
<circle cx="128.77" cy="543.79" r="3.2" fill="#1d4ed8"/>
<circle cx="130.93" cy="543.38" r="3.2" fill="#1d4ed8"/>
<circle cx="133.08" cy="541.76" r="3.2" fill="#1d4ed8"/>
<circle cx="135.24" cy="541.36" r="3.2" fill="#1d4ed8"/>
<circle cx="137.39" cy="540.96" r="3.2" fill="#1d4ed8"/>
<circle cx="139.55" cy="540.96" r="3.2" fill="#1d4ed8"/>
<circle cx="141.70" cy="539.34" r="3.2" fill="#1d4ed8"/>
<circle cx="143.85" cy="539.34" r="3.2" fill="#1d4ed8"/>
<circle cx="146.01" cy="556.73" r="3.2" fill="#1d4ed8"/>
<circle cx="148.16" cy="556.73" r="3.2" fill="#1d4ed8"/>
<circle cx="150.32" cy="555.51" r="3.2" fill="#1d4ed8"/>
<circle cx="152.47" cy="551.07" r="3.2" fill="#1d4ed8"/>
<circle cx="154.62" cy="538.93" r="3.2" fill="#1d4ed8"/>
<circle cx="156.78" cy="538.93" r="3.2" fill="#1d4ed8"/>
<circle cx="158.93" cy="538.93" r="3.2" fill="#1d4ed8"/>
<circle cx="161.09" cy="538.12" r="3.2" fill="#1d4ed8"/>
<circle cx="163.24" cy="536.91" r="3.2" fill="#1d4ed8"/>
<circle cx="165.40" cy="536.91" r="3.2" fill="#1d4ed8"/>
<circle cx="167.55" cy="536.51" r="3.2" fill="#1d4ed8"/>
<circle cx="169.70" cy="536.51" r="3.2" fill="#1d4ed8"/>
<circle cx="171.86" cy="556.73" r="3.2" fill="#1d4ed8"/>
<circle cx="174.01" cy="556.73" r="3.2" fill="#1d4ed8"/>
<circle cx="176.17" cy="556.73" r="3.2" fill="#1d4ed8"/>
<circle cx="178.32" cy="556.73" r="3.2" fill="#1d4ed8"/>
<circle cx="180.47" cy="535.29" r="3.2" fill="#1d4ed8"/>
<circle cx="182.63" cy="535.29" r="3.2" fill="#1d4ed8"/>
<circle cx="184.78" cy="535.29" r="3.2" fill="#1d4ed8"/>
<circle cx="186.94" cy="535.29" r="3.2" fill="#1d4ed8"/>
<circle cx="189.09" cy="534.49" r="3.2" fill="#1d4ed8"/>
<circle cx="191.25" cy="534.08" r="3.2" fill="#1d4ed8"/>
<circle cx="193.40" cy="533.68" r="3.2" fill="#1d4ed8"/>
<circle cx="195.55" cy="532.87" r="3.2" fill="#1d4ed8"/>
<circle cx="197.71" cy="532.06" r="3.2" fill="#1d4ed8"/>
<circle cx="199.86" cy="532.06" r="3.2" fill="#1d4ed8"/>
<circle cx="202.02" cy="531.25" r="3.2" fill="#1d4ed8"/>
<circle cx="204.17" cy="530.85" r="3.2" fill="#1d4ed8"/>
<circle cx="206.32" cy="530.44" r="3.2" fill="#1d4ed8"/>
<circle cx="208.48" cy="530.04" r="3.2" fill="#1d4ed8"/>
<circle cx="210.63" cy="530.04" r="3.2" fill="#1d4ed8"/>
<circle cx="212.79" cy="529.23" r="3.2" fill="#1d4ed8"/>
<circle cx="214.94" cy="529.23" r="3.2" fill="#1d4ed8"/>
<circle cx="217.09" cy="529.23" r="3.2" fill="#1d4ed8"/>
<circle cx="219.25" cy="528.42" r="3.2" fill="#1d4ed8"/>
<circle cx="221.40" cy="528.42" r="3.2" fill="#1d4ed8"/>
<circle cx="223.56" cy="527.61" r="3.2" fill="#1d4ed8"/>
<circle cx="225.71" cy="527.21" r="3.2" fill="#1d4ed8"/>
<circle cx="227.87" cy="526.80" r="3.2" fill="#1d4ed8"/>
<circle cx="230.02" cy="526.40" r="3.2" fill="#1d4ed8"/>
<circle cx="232.17" cy="525.18" r="3.2" fill="#1d4ed8"/>
<circle cx="234.33" cy="523.57" r="3.2" fill="#1d4ed8"/>
<circle cx="236.48" cy="523.57" r="3.2" fill="#1d4ed8"/>
<circle cx="238.64" cy="523.16" r="3.2" fill="#1d4ed8"/>
<circle cx="240.79" cy="522.76" r="3.2" fill="#1d4ed8"/>
<circle cx="242.94" cy="522.35" r="3.2" fill="#1d4ed8"/>
<circle cx="245.10" cy="521.54" r="3.2" fill="#1d4ed8"/>
<circle cx="247.25" cy="519.52" r="3.2" fill="#1d4ed8"/>
<circle cx="249.41" cy="517.50" r="3.2" fill="#1d4ed8"/>
<circle cx="251.56" cy="517.50" r="3.2" fill="#1d4ed8"/>
<circle cx="253.72" cy="517.50" r="3.2" fill="#1d4ed8"/>
<circle cx="255.87" cy="517.50" r="3.2" fill="#1d4ed8"/>
<circle cx="258.02" cy="517.50" r="3.2" fill="#1d4ed8"/>
<circle cx="260.18" cy="517.50" r="3.2" fill="#1d4ed8"/>
<circle cx="262.33" cy="517.10" r="3.2" fill="#1d4ed8"/>
<circle cx="264.49" cy="516.69" r="3.2" fill="#1d4ed8"/>
<circle cx="266.64" cy="515.48" r="3.2" fill="#1d4ed8"/>
<circle cx="268.79" cy="515.07" r="3.2" fill="#1d4ed8"/>
<circle cx="270.95" cy="514.67" r="3.2" fill="#1d4ed8"/>
<circle cx="273.10" cy="513.86" r="3.2" fill="#1d4ed8"/>
<circle cx="275.26" cy="514.26" r="3.2" fill="#1d4ed8"/>
<circle cx="277.41" cy="512.24" r="3.2" fill="#1d4ed8"/>
<circle cx="279.57" cy="511.84" r="3.2" fill="#1d4ed8"/>
<circle cx="281.72" cy="511.84" r="3.2" fill="#1d4ed8"/>
<circle cx="283.87" cy="511.03" r="3.2" fill="#1d4ed8"/>
<circle cx="286.03" cy="509.82" r="3.2" fill="#1d4ed8"/>
<circle cx="288.18" cy="507.79" r="3.2" fill="#1d4ed8"/>
<circle cx="290.34" cy="506.99" r="3.2" fill="#1d4ed8"/>
<circle cx="292.49" cy="506.58" r="3.2" fill="#1d4ed8"/>
<circle cx="294.64" cy="509.41" r="3.2" fill="#1d4ed8"/>
<circle cx="296.80" cy="509.01" r="3.2" fill="#1d4ed8"/>
<circle cx="298.95" cy="504.96" r="3.2" fill="#1d4ed8"/>
<circle cx="301.11" cy="504.56" r="3.2" fill="#1d4ed8"/>
<circle cx="303.26" cy="504.15" r="3.2" fill="#1d4ed8"/>
<circle cx="305.42" cy="504.56" r="3.2" fill="#1d4ed8"/>
<circle cx="307.57" cy="503.75" r="3.2" fill="#1d4ed8"/>
<circle cx="309.72" cy="503.75" r="3.2" fill="#1d4ed8"/>
<circle cx="311.88" cy="503.35" r="3.2" fill="#1d4ed8"/>
<circle cx="314.03" cy="499.30" r="3.2" fill="#1d4ed8"/>
<circle cx="316.19" cy="496.47" r="3.2" fill="#1d4ed8"/>
<circle cx="318.34" cy="490.00" r="3.2" fill="#1d4ed8"/>
<circle cx="320.49" cy="484.34" r="3.2" fill="#1d4ed8"/>
<circle cx="322.65" cy="481.10" r="3.2" fill="#1d4ed8"/>
<circle cx="324.80" cy="480.29" r="3.2" fill="#1d4ed8"/>
<circle cx="326.96" cy="480.70" r="3.2" fill="#1d4ed8"/>
<circle cx="329.11" cy="460.88" r="3.2" fill="#1d4ed8"/>
<circle cx="331.26" cy="459.26" r="3.2" fill="#1d4ed8"/>
<circle cx="333.42" cy="458.05" r="3.2" fill="#1d4ed8"/>
<circle cx="335.57" cy="456.03" r="3.2" fill="#1d4ed8"/>
<circle cx="337.73" cy="456.03" r="3.2" fill="#1d4ed8"/>
<circle cx="339.88" cy="454.41" r="3.2" fill="#1d4ed8"/>
<circle cx="342.04" cy="450.77" r="3.2" fill="#1d4ed8"/>
<circle cx="344.19" cy="444.30" r="3.2" fill="#1d4ed8"/>
<circle cx="346.34" cy="443.90" r="3.2" fill="#1d4ed8"/>
<circle cx="348.50" cy="600.00" r="3.2" fill="#1d4ed8"/>
<circle cx="350.65" cy="441.88" r="3.2" fill="#1d4ed8"/>
<circle cx="352.81" cy="440.66" r="3.2" fill="#1d4ed8"/>
<circle cx="354.96" cy="439.45" r="3.2" fill="#1d4ed8"/>
<circle cx="357.11" cy="439.04" r="3.2" fill="#1d4ed8"/>
<circle cx="359.27" cy="438.64" r="3.2" fill="#1d4ed8"/>
<circle cx="361.42" cy="437.83" r="3.2" fill="#1d4ed8"/>
<circle cx="363.58" cy="436.62" r="3.2" fill="#1d4ed8"/>
<circle cx="365.73" cy="436.62" r="3.2" fill="#1d4ed8"/>
<circle cx="367.89" cy="434.60" r="3.2" fill="#1d4ed8"/>
<circle cx="370.04" cy="432.17" r="3.2" fill="#1d4ed8"/>
<circle cx="372.19" cy="429.34" r="3.2" fill="#1d4ed8"/>
<circle cx="374.35" cy="428.93" r="3.2" fill="#1d4ed8"/>
<circle cx="376.50" cy="428.53" r="3.2" fill="#1d4ed8"/>
<circle cx="378.66" cy="427.72" r="3.2" fill="#1d4ed8"/>
<circle cx="380.81" cy="426.91" r="3.2" fill="#1d4ed8"/>
<circle cx="382.96" cy="426.10" r="3.2" fill="#1d4ed8"/>
<circle cx="385.12" cy="426.10" r="3.2" fill="#1d4ed8"/>
<circle cx="387.27" cy="426.10" r="3.2" fill="#1d4ed8"/>
<circle cx="389.43" cy="419.63" r="3.2" fill="#1d4ed8"/>
<circle cx="391.58" cy="419.23" r="3.2" fill="#1d4ed8"/>
<circle cx="393.74" cy="418.42" r="3.2" fill="#1d4ed8"/>
<circle cx="395.89" cy="418.01" r="3.2" fill="#1d4ed8"/>
<circle cx="398.04" cy="417.61" r="3.2" fill="#1d4ed8"/>
<circle cx="400.20" cy="417.61" r="3.2" fill="#1d4ed8"/>
<circle cx="402.35" cy="417.61" r="3.2" fill="#1d4ed8"/>
<circle cx="404.51" cy="417.21" r="3.2" fill="#1d4ed8"/>
<circle cx="406.66" cy="417.21" r="3.2" fill="#1d4ed8"/>
<circle cx="408.81" cy="413.57" r="3.2" fill="#1d4ed8"/>
<circle cx="410.97" cy="411.95" r="3.2" fill="#1d4ed8"/>
<circle cx="413.12" cy="412.76" r="3.2" fill="#1d4ed8"/>
<circle cx="415.28" cy="410.74" r="3.2" fill="#1d4ed8"/>
<circle cx="417.43" cy="410.74" r="3.2" fill="#1d4ed8"/>
<circle cx="419.58" cy="410.33" r="3.2" fill="#1d4ed8"/>
<circle cx="421.74" cy="410.33" r="3.2" fill="#1d4ed8"/>
<circle cx="423.89" cy="410.33" r="3.2" fill="#1d4ed8"/>
<circle cx="426.05" cy="409.93" r="3.2" fill="#1d4ed8"/>
<circle cx="428.20" cy="409.93" r="3.2" fill="#1d4ed8"/>
<circle cx="430.36" cy="409.93" r="3.2" fill="#1d4ed8"/>
<circle cx="432.51" cy="409.52" r="3.2" fill="#1d4ed8"/>
<circle cx="434.66" cy="409.52" r="3.2" fill="#1d4ed8"/>
<circle cx="436.82" cy="409.12" r="3.2" fill="#1d4ed8"/>
<circle cx="438.97" cy="409.52" r="3.2" fill="#1d4ed8"/>
<circle cx="441.13" cy="409.12" r="3.2" fill="#1d4ed8"/>
<circle cx="443.28" cy="407.50" r="3.2" fill="#1d4ed8"/>
<circle cx="445.43" cy="407.10" r="3.2" fill="#1d4ed8"/>
<circle cx="447.59" cy="403.05" r="3.2" fill="#1d4ed8"/>
<circle cx="449.74" cy="399.82" r="3.2" fill="#1d4ed8"/>
<circle cx="451.90" cy="400.22" r="3.2" fill="#1d4ed8"/>
<circle cx="454.05" cy="400.62" r="3.2" fill="#1d4ed8"/>
<circle cx="456.21" cy="400.62" r="3.2" fill="#1d4ed8"/>
<circle cx="458.36" cy="399.41" r="3.2" fill="#1d4ed8"/>
<circle cx="460.51" cy="392.94" r="3.2" fill="#1d4ed8"/>
<circle cx="462.67" cy="391.32" r="3.2" fill="#1d4ed8"/>
<circle cx="464.82" cy="389.30" r="3.2" fill="#1d4ed8"/>
<circle cx="466.98" cy="389.30" r="3.2" fill="#1d4ed8"/>
<circle cx="469.13" cy="388.49" r="3.2" fill="#1d4ed8"/>
<circle cx="471.28" cy="375.15" r="3.2" fill="#1d4ed8"/>
<circle cx="473.44" cy="374.74" r="3.2" fill="#1d4ed8"/>
<circle cx="475.59" cy="374.74" r="3.2" fill="#1d4ed8"/>
<circle cx="477.75" cy="374.74" r="3.2" fill="#1d4ed8"/>
<circle cx="479.90" cy="374.74" r="3.2" fill="#1d4ed8"/>
<circle cx="482.06" cy="374.34" r="3.2" fill="#1d4ed8"/>
<circle cx="484.21" cy="374.34" r="3.2" fill="#1d4ed8"/>
<circle cx="486.36" cy="374.34" r="3.2" fill="#1d4ed8"/>
<circle cx="488.52" cy="374.34" r="3.2" fill="#1d4ed8"/>
<circle cx="490.67" cy="374.34" r="3.2" fill="#1d4ed8"/>
<circle cx="492.83" cy="373.93" r="3.2" fill="#1d4ed8"/>
<circle cx="494.98" cy="373.12" r="3.2" fill="#1d4ed8"/>
<circle cx="497.13" cy="372.72" r="3.2" fill="#1d4ed8"/>
<circle cx="499.29" cy="373.53" r="3.2" fill="#1d4ed8"/>
<circle cx="501.44" cy="435.81" r="3.2" fill="#1d4ed8"/>
<circle cx="503.60" cy="372.32" r="3.2" fill="#1d4ed8"/>
<circle cx="505.75" cy="372.72" r="3.2" fill="#1d4ed8"/>
<circle cx="507.91" cy="371.91" r="3.2" fill="#1d4ed8"/>
<circle cx="510.06" cy="371.91" r="3.2" fill="#1d4ed8"/>
<circle cx="512.21" cy="372.32" r="3.2" fill="#1d4ed8"/>
<circle cx="514.37" cy="371.10" r="3.2" fill="#1d4ed8"/>
<circle cx="516.52" cy="369.89" r="3.2" fill="#1d4ed8"/>
<circle cx="518.68" cy="369.89" r="3.2" fill="#1d4ed8"/>
<circle cx="520.83" cy="369.89" r="3.2" fill="#1d4ed8"/>
<circle cx="522.98" cy="369.49" r="3.2" fill="#1d4ed8"/>
<circle cx="525.14" cy="369.89" r="3.2" fill="#1d4ed8"/>
<circle cx="527.29" cy="369.08" r="3.2" fill="#1d4ed8"/>
<circle cx="529.45" cy="368.68" r="3.2" fill="#1d4ed8"/>
<circle cx="531.60" cy="368.27" r="3.2" fill="#1d4ed8"/>
<circle cx="533.75" cy="367.87" r="3.2" fill="#1d4ed8"/>
<circle cx="535.91" cy="367.06" r="3.2" fill="#1d4ed8"/>
<circle cx="538.06" cy="367.46" r="3.2" fill="#1d4ed8"/>
<circle cx="540.22" cy="367.06" r="3.2" fill="#1d4ed8"/>
<circle cx="542.37" cy="366.25" r="3.2" fill="#1d4ed8"/>
<circle cx="544.53" cy="368.27" r="3.2" fill="#1d4ed8"/>
<circle cx="546.68" cy="368.68" r="3.2" fill="#1d4ed8"/>
<circle cx="548.83" cy="368.68" r="3.2" fill="#1d4ed8"/>
<circle cx="550.99" cy="368.27" r="3.2" fill="#1d4ed8"/>
<circle cx="553.14" cy="369.08" r="3.2" fill="#1d4ed8"/>
<circle cx="555.30" cy="367.87" r="3.2" fill="#1d4ed8"/>
<circle cx="557.45" cy="367.46" r="3.2" fill="#1d4ed8"/>
<circle cx="559.60" cy="367.06" r="3.2" fill="#1d4ed8"/>
<circle cx="561.76" cy="360.18" r="3.2" fill="#1d4ed8"/>
<circle cx="563.91" cy="359.78" r="3.2" fill="#1d4ed8"/>
<circle cx="566.07" cy="359.38" r="3.2" fill="#1d4ed8"/>
<circle cx="568.22" cy="356.95" r="3.2" fill="#1d4ed8"/>
<circle cx="570.38" cy="357.35" r="3.2" fill="#1d4ed8"/>
<circle cx="572.53" cy="357.76" r="3.2" fill="#1d4ed8"/>
<circle cx="574.68" cy="355.33" r="3.2" fill="#1d4ed8"/>
<circle cx="576.84" cy="355.74" r="3.2" fill="#1d4ed8"/>
<circle cx="578.99" cy="357.35" r="3.2" fill="#1d4ed8"/>
<circle cx="581.15" cy="355.33" r="3.2" fill="#1d4ed8"/>
<circle cx="583.30" cy="356.14" r="3.2" fill="#1d4ed8"/>
<circle cx="585.45" cy="355.74" r="3.2" fill="#1d4ed8"/>
<circle cx="587.61" cy="356.14" r="3.2" fill="#1d4ed8"/>
<circle cx="589.76" cy="354.12" r="3.2" fill="#1d4ed8"/>
<circle cx="591.92" cy="354.93" r="3.2" fill="#1d4ed8"/>
<circle cx="594.07" cy="356.14" r="3.2" fill="#1d4ed8"/>
<circle cx="596.23" cy="354.52" r="3.2" fill="#1d4ed8"/>
<circle cx="598.38" cy="353.71" r="3.2" fill="#1d4ed8"/>
<circle cx="600.53" cy="354.12" r="3.2" fill="#1d4ed8"/>
<circle cx="602.69" cy="354.93" r="3.2" fill="#1d4ed8"/>
<circle cx="604.84" cy="352.90" r="3.2" fill="#1d4ed8"/>
<circle cx="607.00" cy="353.71" r="3.2" fill="#1d4ed8"/>
<circle cx="609.15" cy="353.31" r="3.2" fill="#1d4ed8"/>
<circle cx="611.30" cy="353.31" r="3.2" fill="#1d4ed8"/>
<circle cx="613.46" cy="354.52" r="3.2" fill="#1d4ed8"/>
<circle cx="615.61" cy="352.90" r="3.2" fill="#1d4ed8"/>
<circle cx="617.77" cy="352.50" r="3.2" fill="#1d4ed8"/>
<circle cx="619.92" cy="352.50" r="3.2" fill="#1d4ed8"/>
<circle cx="622.08" cy="353.31" r="3.2" fill="#1d4ed8"/>
<circle cx="624.23" cy="352.50" r="3.2" fill="#1d4ed8"/>
<circle cx="626.38" cy="353.71" r="3.2" fill="#1d4ed8"/>
<circle cx="628.54" cy="354.12" r="3.2" fill="#1d4ed8"/>
<circle cx="630.69" cy="352.50" r="3.2" fill="#1d4ed8"/>
<circle cx="632.85" cy="352.90" r="3.2" fill="#1d4ed8"/>
<circle cx="635.00" cy="352.50" r="3.2" fill="#1d4ed8"/>
<circle cx="637.15" cy="352.10" r="3.2" fill="#1d4ed8"/>
<circle cx="639.31" cy="351.69" r="3.2" fill="#1d4ed8"/>
<circle cx="641.46" cy="352.10" r="3.2" fill="#1d4ed8"/>
<circle cx="643.62" cy="354.12" r="3.2" fill="#1d4ed8"/>
<circle cx="645.77" cy="352.50" r="3.2" fill="#1d4ed8"/>
<circle cx="647.92" cy="352.10" r="3.2" fill="#1d4ed8"/>
<circle cx="650.08" cy="352.10" r="3.2" fill="#1d4ed8"/>
<circle cx="652.23" cy="349.67" r="3.2" fill="#1d4ed8"/>
<circle cx="654.39" cy="349.67" r="3.2" fill="#1d4ed8"/>
<circle cx="656.54" cy="350.88" r="3.2" fill="#1d4ed8"/>
<circle cx="658.70" cy="351.29" r="3.2" fill="#1d4ed8"/>
<circle cx="660.85" cy="350.48" r="3.2" fill="#1d4ed8"/>
<circle cx="663.00" cy="352.10" r="3.2" fill="#1d4ed8"/>
<circle cx="665.16" cy="350.48" r="3.2" fill="#1d4ed8"/>
<circle cx="667.31" cy="350.48" r="3.2" fill="#1d4ed8"/>
<circle cx="669.47" cy="350.48" r="3.2" fill="#1d4ed8"/>
<circle cx="671.62" cy="350.07" r="3.2" fill="#1d4ed8"/>
<circle cx="673.77" cy="348.46" r="3.2" fill="#1d4ed8"/>
<circle cx="675.93" cy="351.29" r="3.2" fill="#1d4ed8"/>
<circle cx="678.08" cy="349.67" r="3.2" fill="#1d4ed8"/>
<circle cx="680.24" cy="351.29" r="3.2" fill="#1d4ed8"/>
<circle cx="682.39" cy="349.67" r="3.2" fill="#1d4ed8"/>
<circle cx="684.55" cy="348.86" r="3.2" fill="#1d4ed8"/>
<circle cx="686.70" cy="348.46" r="3.2" fill="#1d4ed8"/>
<circle cx="688.85" cy="348.46" r="3.2" fill="#1d4ed8"/>
<circle cx="691.01" cy="347.24" r="3.2" fill="#1d4ed8"/>
<circle cx="693.16" cy="348.86" r="3.2" fill="#1d4ed8"/>
<circle cx="695.32" cy="346.84" r="3.2" fill="#1d4ed8"/>
<circle cx="697.47" cy="348.46" r="3.2" fill="#1d4ed8"/>
<circle cx="699.62" cy="348.86" r="3.2" fill="#1d4ed8"/>
<circle cx="701.78" cy="346.84" r="3.2" fill="#1d4ed8"/>
<circle cx="703.93" cy="349.26" r="3.2" fill="#1d4ed8"/>
<circle cx="706.09" cy="348.05" r="3.2" fill="#1d4ed8"/>
<circle cx="708.24" cy="349.26" r="3.2" fill="#1d4ed8"/>
<circle cx="710.40" cy="349.26" r="3.2" fill="#1d4ed8"/>
<circle cx="712.55" cy="350.48" r="3.2" fill="#1d4ed8"/>
<circle cx="714.70" cy="352.90" r="3.2" fill="#1d4ed8"/>
<circle cx="716.86" cy="349.67" r="3.2" fill="#1d4ed8"/>
<circle cx="719.01" cy="348.46" r="3.2" fill="#1d4ed8"/>
<circle cx="721.17" cy="345.62" r="3.2" fill="#1d4ed8"/>
<circle cx="723.32" cy="344.82" r="3.2" fill="#1d4ed8"/>
<circle cx="725.47" cy="344.41" r="3.2" fill="#1d4ed8"/>
<circle cx="727.63" cy="342.39" r="3.2" fill="#1d4ed8"/>
<circle cx="729.78" cy="341.18" r="3.2" fill="#1d4ed8"/>
<circle cx="731.94" cy="341.58" r="3.2" fill="#1d4ed8"/>
<circle cx="734.09" cy="339.15" r="3.2" fill="#1d4ed8"/>
<circle cx="736.25" cy="338.35" r="3.2" fill="#1d4ed8"/>
<circle cx="738.40" cy="337.54" r="3.2" fill="#1d4ed8"/>
<circle cx="740.55" cy="336.73" r="3.2" fill="#1d4ed8"/>
<circle cx="742.71" cy="335.92" r="3.2" fill="#1d4ed8"/>
<circle cx="744.86" cy="337.54" r="3.2" fill="#1d4ed8"/>
<circle cx="747.02" cy="338.35" r="3.2" fill="#1d4ed8"/>
<circle cx="749.17" cy="337.54" r="3.2" fill="#1d4ed8"/>
<circle cx="751.32" cy="337.54" r="3.2" fill="#1d4ed8"/>
<circle cx="753.48" cy="337.54" r="3.2" fill="#1d4ed8"/>
<circle cx="755.63" cy="333.09" r="3.2" fill="#1d4ed8"/>
<circle cx="757.79" cy="333.90" r="3.2" fill="#1d4ed8"/>
<circle cx="759.94" cy="335.92" r="3.2" fill="#1d4ed8"/>
<circle cx="762.09" cy="336.73" r="3.2" fill="#1d4ed8"/>
<circle cx="764.25" cy="335.51" r="3.2" fill="#1d4ed8"/>
<circle cx="766.40" cy="332.28" r="3.2" fill="#1d4ed8"/>
<circle cx="768.56" cy="331.47" r="3.2" fill="#1d4ed8"/>
<circle cx="770.71" cy="331.07" r="3.2" fill="#1d4ed8"/>
<circle cx="772.87" cy="331.47" r="3.2" fill="#1d4ed8"/>
<circle cx="775.02" cy="331.07" r="3.2" fill="#1d4ed8"/>
<circle cx="777.17" cy="331.07" r="3.2" fill="#1d4ed8"/>
<circle cx="779.33" cy="331.07" r="3.2" fill="#1d4ed8"/>
<circle cx="781.48" cy="331.07" r="3.2" fill="#1d4ed8"/>
<circle cx="783.64" cy="331.07" r="3.2" fill="#1d4ed8"/>
<circle cx="785.79" cy="331.07" r="3.2" fill="#1d4ed8"/>
<circle cx="787.94" cy="331.07" r="3.2" fill="#1d4ed8"/>
<circle cx="790.10" cy="331.07" r="3.2" fill="#1d4ed8"/>
<circle cx="792.25" cy="331.07" r="3.2" fill="#1d4ed8"/>
<circle cx="794.41" cy="331.07" r="3.2" fill="#1d4ed8"/>
<circle cx="796.56" cy="331.47" r="3.2" fill="#1d4ed8"/>
<circle cx="798.72" cy="331.88" r="3.2" fill="#1d4ed8"/>
<circle cx="800.87" cy="331.07" r="3.2" fill="#1d4ed8"/>
<circle cx="803.02" cy="331.47" r="3.2" fill="#1d4ed8"/>
<circle cx="805.18" cy="331.07" r="3.2" fill="#1d4ed8"/>
<circle cx="807.33" cy="331.47" r="3.2" fill="#1d4ed8"/>
<circle cx="809.49" cy="331.07" r="3.2" fill="#1d4ed8"/>
<circle cx="811.64" cy="324.19" r="3.2" fill="#1d4ed8"/>
<circle cx="813.79" cy="324.19" r="3.2" fill="#1d4ed8"/>
<circle cx="815.95" cy="318.93" r="3.2" fill="#1d4ed8"/>
<circle cx="818.10" cy="316.51" r="3.2" fill="#1d4ed8"/>
<circle cx="820.26" cy="310.44" r="3.2" fill="#1d4ed8"/>
<circle cx="822.41" cy="308.01" r="3.2" fill="#1d4ed8"/>
<circle cx="824.57" cy="600.00" r="3.2" fill="#1d4ed8"/>
<circle cx="826.72" cy="301.54" r="3.2" fill="#1d4ed8"/>
<circle cx="828.87" cy="290.22" r="3.2" fill="#1d4ed8"/>
<circle cx="831.03" cy="287.79" r="3.2" fill="#1d4ed8"/>
<circle cx="833.18" cy="286.18" r="3.2" fill="#1d4ed8"/>
<circle cx="835.34" cy="285.77" r="3.2" fill="#1d4ed8"/>
<circle cx="837.49" cy="285.77" r="3.2" fill="#1d4ed8"/>
<circle cx="839.64" cy="285.77" r="3.2" fill="#1d4ed8"/>
<circle cx="841.80" cy="286.18" r="3.2" fill="#1d4ed8"/>
<circle cx="843.95" cy="285.77" r="3.2" fill="#1d4ed8"/>
<circle cx="846.11" cy="285.77" r="3.2" fill="#1d4ed8"/>
<circle cx="848.26" cy="285.77" r="3.2" fill="#1d4ed8"/>
<circle cx="850.42" cy="283.35" r="3.2" fill="#1d4ed8"/>
<circle cx="852.57" cy="282.94" r="3.2" fill="#1d4ed8"/>
<circle cx="854.72" cy="282.94" r="3.2" fill="#1d4ed8"/>
<circle cx="856.88" cy="283.35" r="3.2" fill="#1d4ed8"/>
<circle cx="859.03" cy="282.94" r="3.2" fill="#1d4ed8"/>
<circle cx="861.19" cy="282.94" r="3.2" fill="#1d4ed8"/>
<circle cx="863.34" cy="283.75" r="3.2" fill="#1d4ed8"/>
<circle cx="865.49" cy="282.13" r="3.2" fill="#1d4ed8"/>
<circle cx="867.65" cy="282.13" r="3.2" fill="#1d4ed8"/>
<circle cx="869.80" cy="282.54" r="3.2" fill="#1d4ed8"/>
<circle cx="871.96" cy="282.13" r="3.2" fill="#1d4ed8"/>
<circle cx="874.11" cy="282.54" r="3.2" fill="#1d4ed8"/>
<circle cx="876.26" cy="282.94" r="3.2" fill="#1d4ed8"/>
<circle cx="878.42" cy="281.73" r="3.2" fill="#1d4ed8"/>
<circle cx="880.57" cy="282.54" r="3.2" fill="#1d4ed8"/>
<circle cx="882.73" cy="281.73" r="3.2" fill="#1d4ed8"/>
<circle cx="884.88" cy="282.54" r="3.2" fill="#1d4ed8"/>
<circle cx="887.04" cy="282.13" r="3.2" fill="#1d4ed8"/>
<circle cx="889.19" cy="282.13" r="3.2" fill="#1d4ed8"/>
<circle cx="891.34" cy="281.73" r="3.2" fill="#1d4ed8"/>
<circle cx="893.50" cy="281.73" r="3.2" fill="#1d4ed8"/>
<circle cx="895.65" cy="281.32" r="3.2" fill="#1d4ed8"/>
<circle cx="897.81" cy="281.73" r="3.2" fill="#1d4ed8"/>
<circle cx="899.96" cy="282.13" r="3.2" fill="#1d4ed8"/>
<circle cx="902.11" cy="281.32" r="3.2" fill="#1d4ed8"/>
<circle cx="904.27" cy="281.32" r="3.2" fill="#1d4ed8"/>
<circle cx="906.42" cy="282.54" r="3.2" fill="#1d4ed8"/>
<circle cx="908.58" cy="282.13" r="3.2" fill="#1d4ed8"/>
<circle cx="910.73" cy="281.32" r="3.2" fill="#1d4ed8"/>
<circle cx="912.89" cy="281.32" r="3.2" fill="#1d4ed8"/>
<circle cx="915.04" cy="281.32" r="3.2" fill="#1d4ed8"/>
<circle cx="917.19" cy="282.54" r="3.2" fill="#1d4ed8"/>
<circle cx="919.35" cy="282.13" r="3.2" fill="#1d4ed8"/>
<circle cx="921.50" cy="281.32" r="3.2" fill="#1d4ed8"/>
<circle cx="923.66" cy="282.13" r="3.2" fill="#1d4ed8"/>
<circle cx="925.81" cy="281.73" r="3.2" fill="#1d4ed8"/>
<circle cx="927.96" cy="282.13" r="3.2" fill="#1d4ed8"/>
<circle cx="930.12" cy="280.11" r="3.2" fill="#1d4ed8"/>
<circle cx="932.27" cy="280.11" r="3.2" fill="#1d4ed8"/>
<circle cx="934.43" cy="280.51" r="3.2" fill="#1d4ed8"/>
<circle cx="936.58" cy="279.71" r="3.2" fill="#1d4ed8"/>
<circle cx="938.74" cy="280.11" r="3.2" fill="#1d4ed8"/>
<circle cx="940.89" cy="280.51" r="3.2" fill="#1d4ed8"/>
<circle cx="943.04" cy="279.71" r="3.2" fill="#1d4ed8"/>
<circle cx="945.20" cy="280.11" r="3.2" fill="#1d4ed8"/>
<circle cx="947.35" cy="280.11" r="3.2" fill="#1d4ed8"/>
<circle cx="949.51" cy="279.30" r="3.2" fill="#1d4ed8"/>
<circle cx="951.66" cy="278.90" r="3.2" fill="#1d4ed8"/>
<circle cx="953.81" cy="278.90" r="3.2" fill="#1d4ed8"/>
<circle cx="955.97" cy="280.51" r="3.2" fill="#1d4ed8"/>
<circle cx="958.12" cy="279.30" r="3.2" fill="#1d4ed8"/>
<circle cx="960.28" cy="278.09" r="3.2" fill="#1d4ed8"/>
<circle cx="962.43" cy="278.49" r="3.2" fill="#1d4ed8"/>
<circle cx="964.58" cy="278.49" r="3.2" fill="#1d4ed8"/>
<circle cx="966.74" cy="277.28" r="3.2" fill="#1d4ed8"/>
<circle cx="968.89" cy="277.68" r="3.2" fill="#1d4ed8"/>
<circle cx="971.05" cy="277.68" r="3.2" fill="#1d4ed8"/>
<circle cx="973.20" cy="278.09" r="3.2" fill="#1d4ed8"/>
<circle cx="975.36" cy="277.28" r="3.2" fill="#1d4ed8"/>
<circle cx="977.51" cy="600.00" r="3.2" fill="#1d4ed8"/>
<circle cx="979.66" cy="278.90" r="3.2" fill="#1d4ed8"/>
<circle cx="981.82" cy="279.30" r="3.2" fill="#1d4ed8"/>
<circle cx="983.97" cy="278.90" r="3.2" fill="#1d4ed8"/>
<circle cx="986.13" cy="278.49" r="3.2" fill="#1d4ed8"/>
<circle cx="988.28" cy="278.49" r="3.2" fill="#1d4ed8"/>
<circle cx="990.43" cy="278.49" r="3.2" fill="#1d4ed8"/>
<circle cx="992.59" cy="278.49" r="3.2" fill="#1d4ed8"/>
<circle cx="994.74" cy="278.49" r="3.2" fill="#1d4ed8"/>
<circle cx="996.90" cy="278.49" r="3.2" fill="#1d4ed8"/>
<circle cx="999.05" cy="278.49" r="3.2" fill="#1d4ed8"/>
<circle cx="1001.21" cy="278.49" r="3.2" fill="#1d4ed8"/>
<circle cx="1003.36" cy="278.49" r="3.2" fill="#1d4ed8"/>
<circle cx="1005.51" cy="278.49" r="3.2" fill="#1d4ed8"/>
<circle cx="1007.67" cy="278.49" r="3.2" fill="#1d4ed8"/>
<circle cx="1009.82" cy="278.49" r="3.2" fill="#1d4ed8"/>
<circle cx="1011.98" cy="600.00" r="3.2" fill="#1d4ed8"/>
<circle cx="1014.13" cy="600.00" r="3.2" fill="#1d4ed8"/>
<circle cx="1016.28" cy="254.63" r="3.2" fill="#1d4ed8"/>
<circle cx="1018.44" cy="600.00" r="3.2" fill="#1d4ed8"/>
<circle cx="1020.59" cy="245.74" r="3.2" fill="#1d4ed8"/>
<circle cx="1022.75" cy="245.74" r="3.2" fill="#1d4ed8"/>
<circle cx="1024.90" cy="246.14" r="3.2" fill="#1d4ed8"/>
<circle cx="1027.06" cy="245.74" r="3.2" fill="#1d4ed8"/>
<circle cx="1029.21" cy="245.74" r="3.2" fill="#1d4ed8"/>
<circle cx="1031.36" cy="245.74" r="3.2" fill="#1d4ed8"/>
<circle cx="1033.52" cy="245.74" r="3.2" fill="#1d4ed8"/>
<circle cx="1035.67" cy="245.74" r="3.2" fill="#1d4ed8"/>
<circle cx="1037.83" cy="240.07" r="3.2" fill="#1d4ed8"/>
<circle cx="1039.98" cy="238.05" r="3.2" fill="#1d4ed8"/>
<circle cx="1042.13" cy="238.05" r="3.2" fill="#1d4ed8"/>
<circle cx="1044.29" cy="227.13" r="3.2" fill="#1d4ed8"/>
<circle cx="1046.44" cy="227.13" r="3.2" fill="#1d4ed8"/>
<circle cx="1048.60" cy="226.32" r="3.2" fill="#1d4ed8"/>
<circle cx="1050.75" cy="227.54" r="3.2" fill="#1d4ed8"/>
<circle cx="1052.91" cy="226.73" r="3.2" fill="#1d4ed8"/>
<circle cx="1055.06" cy="226.32" r="3.2" fill="#1d4ed8"/>
<circle cx="1057.21" cy="227.13" r="3.2" fill="#1d4ed8"/>
<circle cx="1059.37" cy="227.13" r="3.2" fill="#1d4ed8"/>
<circle cx="1061.52" cy="226.73" r="3.2" fill="#1d4ed8"/>
<circle cx="1063.68" cy="226.32" r="3.2" fill="#1d4ed8"/>
<circle cx="1065.83" cy="226.73" r="3.2" fill="#1d4ed8"/>
<circle cx="1067.98" cy="226.73" r="3.2" fill="#1d4ed8"/>
<circle cx="1070.14" cy="226.73" r="3.2" fill="#1d4ed8"/>
<circle cx="1072.29" cy="225.11" r="3.2" fill="#1d4ed8"/>
<circle cx="1074.45" cy="224.71" r="3.2" fill="#1d4ed8"/>
<circle cx="1076.60" cy="225.11" r="3.2" fill="#1d4ed8"/>
<circle cx="1078.75" cy="224.30" r="3.2" fill="#1d4ed8"/>
<circle cx="1080.91" cy="226.32" r="3.2" fill="#1d4ed8"/>
<circle cx="1083.06" cy="224.30" r="3.2" fill="#1d4ed8"/>
<circle cx="1085.22" cy="225.51" r="3.2" fill="#1d4ed8"/>
<circle cx="1087.37" cy="225.51" r="3.2" fill="#1d4ed8"/>
<circle cx="1089.53" cy="225.51" r="3.2" fill="#1d4ed8"/>
<circle cx="1091.68" cy="225.92" r="3.2" fill="#1d4ed8"/>
<circle cx="1093.83" cy="223.09" r="3.2" fill="#1d4ed8"/>
<circle cx="1095.99" cy="223.49" r="3.2" fill="#1d4ed8"/>
<circle cx="1098.14" cy="223.09" r="3.2" fill="#1d4ed8"/>
<circle cx="1100.30" cy="223.09" r="3.2" fill="#1d4ed8"/>
<circle cx="1102.45" cy="223.90" r="3.2" fill="#1d4ed8"/>
<circle cx="1104.60" cy="223.49" r="3.2" fill="#1d4ed8"/>
<circle cx="1106.76" cy="223.49" r="3.2" fill="#1d4ed8"/>
<circle cx="1108.91" cy="223.09" r="3.2" fill="#1d4ed8"/>
<circle cx="1111.07" cy="223.09" r="3.2" fill="#1d4ed8"/>
<circle cx="1113.22" cy="223.49" r="3.2" fill="#1d4ed8"/>
<circle cx="1115.38" cy="223.09" r="3.2" fill="#1d4ed8"/>
<circle cx="1117.53" cy="223.09" r="3.2" fill="#1d4ed8"/>
<circle cx="1119.68" cy="223.49" r="3.2" fill="#1d4ed8"/>
<circle cx="1121.84" cy="223.49" r="3.2" fill="#1d4ed8"/>
<circle cx="1123.99" cy="223.09" r="3.2" fill="#1d4ed8"/>
<circle cx="1126.15" cy="223.09" r="3.2" fill="#1d4ed8"/>
<circle cx="1128.30" cy="223.49" r="3.2" fill="#1d4ed8"/>
<circle cx="1130.45" cy="223.09" r="3.2" fill="#1d4ed8"/>
<circle cx="1132.61" cy="223.09" r="3.2" fill="#1d4ed8"/>
<circle cx="1134.76" cy="223.09" r="3.2" fill="#1d4ed8"/>
<circle cx="1136.92" cy="223.49" r="3.2" fill="#1d4ed8"/>
<circle cx="1139.07" cy="223.49" r="3.2" fill="#1d4ed8"/>
<circle cx="1141.23" cy="223.49" r="3.2" fill="#1d4ed8"/>
<circle cx="1143.38" cy="223.09" r="3.2" fill="#1d4ed8"/>
<circle cx="1145.53" cy="223.49" r="3.2" fill="#1d4ed8"/>
<circle cx="1147.69" cy="223.09" r="3.2" fill="#1d4ed8"/>
<circle cx="1149.84" cy="223.09" r="3.2" fill="#1d4ed8"/>
<circle cx="1152.00" cy="223.49" r="3.2" fill="#1d4ed8"/>
<circle cx="1154.15" cy="223.09" r="3.2" fill="#1d4ed8"/>
<circle cx="1156.30" cy="223.09" r="3.2" fill="#1d4ed8"/>
<circle cx="1158.46" cy="223.49" r="3.2" fill="#1d4ed8"/>
<circle cx="1160.61" cy="222.68" r="3.2" fill="#1d4ed8"/>
<circle cx="1162.77" cy="221.88" r="3.2" fill="#1d4ed8"/>
<circle cx="1164.92" cy="223.49" r="3.2" fill="#1d4ed8"/>
<circle cx="1167.08" cy="223.09" r="3.2" fill="#1d4ed8"/>
<circle cx="1169.23" cy="223.49" r="3.2" fill="#1d4ed8"/>
<circle cx="1171.38" cy="224.30" r="3.2" fill="#1d4ed8"/>
<circle cx="1173.54" cy="201.65" r="3.2" fill="#1d4ed8"/>
<circle cx="1175.69" cy="201.65" r="3.2" fill="#1d4ed8"/>
<circle cx="1177.85" cy="186.69" r="3.2" fill="#1d4ed8"/>
<circle cx="1180.00" cy="176.18" r="3.2" fill="#1d4ed8"/>
<text x="635" y="695" text-anchor="middle" font-size="14" fill="#111" font-family="sans-serif">Date</text>
<text x="24" y="325" text-anchor="middle" font-size="14" fill="#111" transform="rotate(-90 24,325)" font-family="sans-serif">Passed files</text>
</svg>
