<?xml version="1.0" encoding="UTF-8"?>
<svg xmlns="http://www.w3.org/2000/svg" width="1280" height="720" viewBox="0 0 1280 720">
<rect width="100%" height="100%" fill="#ffffff"/>
<text x="640" y="30" text-anchor="middle" font-size="22" font-family="sans-serif">Roast passed files history</text>
<line x1="90" y1="600" x2="1180" y2="600" stroke="#333" stroke-width="1.5"/>
<line x1="90" y1="50" x2="90" y2="600" stroke="#333" stroke-width="1.5"/>
<line x1="90" y1="600.00" x2="1180" y2="600.00" stroke="#e5e7eb" stroke-width="1"/>
<text x="78" y="605.00" text-anchor="end" font-size="12" fill="#111" font-family="sans-serif">0</text>
<line x1="90" y1="397.79" x2="1180" y2="397.79" stroke="#e5e7eb" stroke-width="1"/>
<text x="78" y="402.79" text-anchor="end" font-size="12" fill="#111" font-family="sans-serif">500</text>
<line x1="90" y1="195.59" x2="1180" y2="195.59" stroke="#e5e7eb" stroke-width="1"/>
<text x="78" y="200.59" text-anchor="end" font-size="12" fill="#111" font-family="sans-serif">1000</text>
<line x1="90.00" y1="600" x2="90.00" y2="606" stroke="#333" stroke-width="1"/>
<text x="90.00" y="624" text-anchor="end" font-size="11" fill="#111" transform="rotate(-40 90.00,624)" font-family="sans-serif">2026-02-12</text>
<line x1="223.91" y1="600" x2="223.91" y2="606" stroke="#333" stroke-width="1"/>
<text x="223.91" y="624" text-anchor="end" font-size="11" fill="#111" transform="rotate(-40 223.91,624)" font-family="sans-serif">2026-02-17</text>
<line x1="357.83" y1="600" x2="357.83" y2="606" stroke="#333" stroke-width="1"/>
<text x="357.83" y="624" text-anchor="end" font-size="11" fill="#111" transform="rotate(-40 357.83,624)" font-family="sans-serif">2026-02-21</text>
<line x1="491.74" y1="600" x2="491.74" y2="606" stroke="#333" stroke-width="1"/>
<text x="491.74" y="624" text-anchor="end" font-size="11" fill="#111" transform="rotate(-40 491.74,624)" font-family="sans-serif">2026-02-25</text>
<line x1="625.66" y1="600" x2="625.66" y2="606" stroke="#333" stroke-width="1"/>
<text x="625.66" y="624" text-anchor="end" font-size="11" fill="#111" transform="rotate(-40 625.66,624)" font-family="sans-serif">2026-02-28</text>
<line x1="759.57" y1="600" x2="759.57" y2="606" stroke="#333" stroke-width="1"/>
<text x="759.57" y="624" text-anchor="end" font-size="11" fill="#111" transform="rotate(-40 759.57,624)" font-family="sans-serif">2026-03-03</text>
<line x1="893.49" y1="600" x2="893.49" y2="606" stroke="#333" stroke-width="1"/>
<text x="893.49" y="624" text-anchor="end" font-size="11" fill="#111" transform="rotate(-40 893.49,624)" font-family="sans-serif">2026-03-06</text>
<line x1="1027.40" y1="600" x2="1027.40" y2="606" stroke="#333" stroke-width="1"/>
<text x="1027.40" y="624" text-anchor="end" font-size="11" fill="#111" transform="rotate(-40 1027.40,624)" font-family="sans-serif">2026-03-08</text>
<line x1="1161.31" y1="600" x2="1161.31" y2="606" stroke="#333" stroke-width="1"/>
<text x="1161.31" y="624" text-anchor="end" font-size="11" fill="#111" transform="rotate(-40 1161.31,624)" font-family="sans-serif">2026-03-12</text>
<line x1="1180.00" y1="600" x2="1180.00" y2="606" stroke="#333" stroke-width="1"/>
<text x="1180.00" y="624" text-anchor="end" font-size="11" fill="#111" transform="rotate(-40 1180.00,624)" font-family="sans-serif">2026-03-12</text>
<line x1="90" y1="75.88" x2="1180" y2="75.88" stroke="#dc2626" stroke-width="1.5" stroke-dasharray="8,4"/>
<text x="1184" y="79.88" font-size="12" fill="#dc2626" font-family="sans-serif">Goal: 1296</text>
<polyline fill="none" stroke="#2563eb" stroke-width="3" points="90.00,540.55 93.11,538.53 96.23,536.91 99.34,534.49 102.46,534.49 105.57,533.27 108.69,532.46 111.80,532.87 114.91,532.06 118.03,532.46 121.14,532.06 124.26,568.46 127.37,568.46 130.49,566.43 133.60,545.00 136.71,545.00 139.83,544.19 142.94,543.79 146.06,543.79 149.17,543.38 152.29,541.76 155.40,541.36 158.51,540.96 161.63,540.96 164.74,539.34 167.86,539.34 170.97,556.73 174.09,556.73 177.20,555.51 180.31,551.07 183.43,538.93 186.54,538.93 189.66,538.93 192.77,538.12 195.89,536.91 199.00,536.91 202.11,536.51 205.23,536.51 208.34,556.73 211.46,556.73 214.57,556.73 217.69,556.73 220.80,535.29 223.91,535.29 227.03,535.29 230.14,535.29 233.26,534.49 236.37,534.08 239.49,533.68 242.60,532.87 245.71,532.06 248.83,532.06 251.94,531.25 255.06,530.85 258.17,530.44 261.29,530.04 264.40,530.04 267.51,529.23 270.63,529.23 273.74,529.23 276.86,528.42 279.97,528.42 283.09,527.61 286.20,527.21 289.31,526.80 292.43,526.40 295.54,525.18 298.66,523.57 301.77,523.57 304.89,523.16 308.00,522.76 311.11,522.35 314.23,521.54 317.34,519.52 320.46,517.50 323.57,517.50 326.69,517.50 329.80,517.50 332.91,517.50 336.03,517.50 339.14,517.10 342.26,516.69 345.37,515.48 348.49,515.07 351.60,514.67 354.71,513.86 357.83,514.26 360.94,512.24 364.06,511.84 367.17,511.84 370.29,511.03 373.40,509.82 376.51,507.79 379.63,506.99 382.74,506.58 385.86,509.41 388.97,509.01 392.09,504.96 395.20,504.56 398.31,504.15 401.43,504.56 404.54,503.75 407.66,503.75 410.77,503.35 413.89,499.30 417.00,496.47 420.11,490.00 423.23,484.34 426.34,481.10 429.46,480.29 432.57,480.70 435.69,460.88 438.80,459.26 441.91,458.05 445.03,456.03 448.14,456.03 451.26,454.41 454.37,450.77 457.49,444.30 460.60,443.90 463.71,600.00 466.83,441.88 469.94,440.66 473.06,439.45 476.17,439.04 479.29,438.64 482.40,437.83 485.51,436.62 488.63,436.62 491.74,434.60 494.86,432.17 497.97,429.34 501.09,428.93 504.20,428.53 507.31,427.72 510.43,426.91 513.54,426.10 516.66,426.10 519.77,426.10 522.89,419.63 526.00,419.23 529.11,418.42 532.23,418.01 535.34,417.61 538.46,417.61 541.57,417.61 544.69,417.21 547.80,417.21 550.91,413.57 554.03,411.95 557.14,412.76 560.26,410.74 563.37,410.74 566.49,410.33 569.60,410.33 572.71,410.33 575.83,409.93 578.94,409.93 582.06,409.93 585.17,409.52 588.29,409.52 591.40,409.12 594.51,409.52 597.63,409.12 600.74,407.50 603.86,407.10 606.97,403.05 610.09,399.82 613.20,400.22 616.31,400.62 619.43,400.62 622.54,399.41 625.66,392.94 628.77,391.32 631.89,389.30 635.00,389.30 638.11,388.49 641.23,375.15 644.34,374.74 647.46,374.74 650.57,374.74 653.69,374.74 656.80,374.34 659.91,374.34 663.03,374.34 666.14,374.34 669.26,374.34 672.37,373.93 675.49,373.12 678.60,372.72 681.71,373.53 684.83,435.81 687.94,372.32 691.06,372.72 694.17,371.91 697.29,371.91 700.40,372.32 703.51,371.10 706.63,369.89 709.74,369.89 712.86,369.89 715.97,369.49 719.09,369.89 722.20,369.08 725.31,368.68 728.43,368.27 731.54,367.87 734.66,367.06 737.77,367.46 740.89,367.06 744.00,366.25 747.11,368.27 750.23,368.68 753.34,368.68 756.46,368.27 759.57,369.08 762.69,367.87 765.80,367.46 768.91,367.06 772.03,360.18 775.14,359.78 778.26,359.38 781.37,356.95 784.49,357.35 787.60,357.76 790.71,355.33 793.83,355.74 796.94,357.35 800.06,355.33 803.17,356.14 806.29,355.74 809.40,356.14 812.51,354.12 815.63,354.93 818.74,356.14 821.86,354.52 824.97,353.71 828.09,354.12 831.20,354.93 834.31,352.90 837.43,353.71 840.54,353.31 843.66,353.31 846.77,354.52 849.89,352.90 853.00,352.50 856.11,352.50 859.23,353.31 862.34,352.50 865.46,353.71 868.57,354.12 871.69,352.50 874.80,352.90 877.91,352.50 881.03,352.10 884.14,351.69 887.26,352.10 890.37,354.12 893.49,352.50 896.60,352.10 899.71,352.10 902.83,349.67 905.94,349.67 909.06,350.88 912.17,351.29 915.29,350.48 918.40,352.10 921.51,350.48 924.63,350.48 927.74,350.48 930.86,350.07 933.97,348.46 937.09,351.29 940.20,349.67 943.31,351.29 946.43,349.67 949.54,348.86 952.66,348.46 955.77,348.46 958.89,347.24 962.00,348.86 965.11,346.84 968.23,348.46 971.34,348.86 974.46,346.84 977.57,349.26 980.69,348.05 983.80,349.26 986.91,349.26 990.03,350.48 993.14,352.90 996.26,349.67 999.37,348.46 1002.49,345.62 1005.60,344.82 1008.71,344.41 1011.83,342.39 1014.94,341.18 1018.06,341.58 1021.17,339.15 1024.29,338.35 1027.40,337.54 1030.51,336.73 1033.63,335.92 1036.74,337.54 1039.86,338.35 1042.97,337.54 1046.09,337.54 1049.20,337.54 1052.31,333.09 1055.43,333.90 1058.54,335.92 1061.66,336.73 1064.77,335.51 1067.89,332.28 1071.00,331.47 1074.11,331.07 1077.23,331.47 1080.34,331.07 1083.46,331.07 1086.57,331.07 1089.69,331.07 1092.80,331.07 1095.91,331.07 1099.03,331.07 1102.14,331.07 1105.26,331.07 1108.37,331.07 1111.49,331.47 1114.60,331.88 1117.71,331.07 1120.83,331.47 1123.94,331.07 1127.06,331.47 1130.17,331.07 1133.29,331.88 1136.40,331.07 1139.51,331.47 1142.63,331.47 1145.74,331.07 1148.86,331.47 1151.97,331.47 1155.09,330.66 1158.20,330.26 1161.31,330.66 1164.43,330.66 1167.54,330.66 1170.66,330.26 1173.77,330.26 1176.89,330.26 1180.00,330.26"/>
<circle cx="90.00" cy="540.55" r="3.2" fill="#1d4ed8"/>
<circle cx="93.11" cy="538.53" r="3.2" fill="#1d4ed8"/>
<circle cx="96.23" cy="536.91" r="3.2" fill="#1d4ed8"/>
<circle cx="99.34" cy="534.49" r="3.2" fill="#1d4ed8"/>
<circle cx="102.46" cy="534.49" r="3.2" fill="#1d4ed8"/>
<circle cx="105.57" cy="533.27" r="3.2" fill="#1d4ed8"/>
<circle cx="108.69" cy="532.46" r="3.2" fill="#1d4ed8"/>
<circle cx="111.80" cy="532.87" r="3.2" fill="#1d4ed8"/>
<circle cx="114.91" cy="532.06" r="3.2" fill="#1d4ed8"/>
<circle cx="118.03" cy="532.46" r="3.2" fill="#1d4ed8"/>
<circle cx="121.14" cy="532.06" r="3.2" fill="#1d4ed8"/>
<circle cx="124.26" cy="568.46" r="3.2" fill="#1d4ed8"/>
<circle cx="127.37" cy="568.46" r="3.2" fill="#1d4ed8"/>
<circle cx="130.49" cy="566.43" r="3.2" fill="#1d4ed8"/>
<circle cx="133.60" cy="545.00" r="3.2" fill="#1d4ed8"/>
<circle cx="136.71" cy="545.00" r="3.2" fill="#1d4ed8"/>
<circle cx="139.83" cy="544.19" r="3.2" fill="#1d4ed8"/>
<circle cx="142.94" cy="543.79" r="3.2" fill="#1d4ed8"/>
<circle cx="146.06" cy="543.79" r="3.2" fill="#1d4ed8"/>
<circle cx="149.17" cy="543.38" r="3.2" fill="#1d4ed8"/>
<circle cx="152.29" cy="541.76" r="3.2" fill="#1d4ed8"/>
<circle cx="155.40" cy="541.36" r="3.2" fill="#1d4ed8"/>
<circle cx="158.51" cy="540.96" r="3.2" fill="#1d4ed8"/>
<circle cx="161.63" cy="540.96" r="3.2" fill="#1d4ed8"/>
<circle cx="164.74" cy="539.34" r="3.2" fill="#1d4ed8"/>
<circle cx="167.86" cy="539.34" r="3.2" fill="#1d4ed8"/>
<circle cx="170.97" cy="556.73" r="3.2" fill="#1d4ed8"/>
<circle cx="174.09" cy="556.73" r="3.2" fill="#1d4ed8"/>
<circle cx="177.20" cy="555.51" r="3.2" fill="#1d4ed8"/>
<circle cx="180.31" cy="551.07" r="3.2" fill="#1d4ed8"/>
<circle cx="183.43" cy="538.93" r="3.2" fill="#1d4ed8"/>
<circle cx="186.54" cy="538.93" r="3.2" fill="#1d4ed8"/>
<circle cx="189.66" cy="538.93" r="3.2" fill="#1d4ed8"/>
<circle cx="192.77" cy="538.12" r="3.2" fill="#1d4ed8"/>
<circle cx="195.89" cy="536.91" r="3.2" fill="#1d4ed8"/>
<circle cx="199.00" cy="536.91" r="3.2" fill="#1d4ed8"/>
<circle cx="202.11" cy="536.51" r="3.2" fill="#1d4ed8"/>
<circle cx="205.23" cy="536.51" r="3.2" fill="#1d4ed8"/>
<circle cx="208.34" cy="556.73" r="3.2" fill="#1d4ed8"/>
<circle cx="211.46" cy="556.73" r="3.2" fill="#1d4ed8"/>
<circle cx="214.57" cy="556.73" r="3.2" fill="#1d4ed8"/>
<circle cx="217.69" cy="556.73" r="3.2" fill="#1d4ed8"/>
<circle cx="220.80" cy="535.29" r="3.2" fill="#1d4ed8"/>
<circle cx="223.91" cy="535.29" r="3.2" fill="#1d4ed8"/>
<circle cx="227.03" cy="535.29" r="3.2" fill="#1d4ed8"/>
<circle cx="230.14" cy="535.29" r="3.2" fill="#1d4ed8"/>
<circle cx="233.26" cy="534.49" r="3.2" fill="#1d4ed8"/>
<circle cx="236.37" cy="534.08" r="3.2" fill="#1d4ed8"/>
<circle cx="239.49" cy="533.68" r="3.2" fill="#1d4ed8"/>
<circle cx="242.60" cy="532.87" r="3.2" fill="#1d4ed8"/>
<circle cx="245.71" cy="532.06" r="3.2" fill="#1d4ed8"/>
<circle cx="248.83" cy="532.06" r="3.2" fill="#1d4ed8"/>
<circle cx="251.94" cy="531.25" r="3.2" fill="#1d4ed8"/>
<circle cx="255.06" cy="530.85" r="3.2" fill="#1d4ed8"/>
<circle cx="258.17" cy="530.44" r="3.2" fill="#1d4ed8"/>
<circle cx="261.29" cy="530.04" r="3.2" fill="#1d4ed8"/>
<circle cx="264.40" cy="530.04" r="3.2" fill="#1d4ed8"/>
<circle cx="267.51" cy="529.23" r="3.2" fill="#1d4ed8"/>
<circle cx="270.63" cy="529.23" r="3.2" fill="#1d4ed8"/>
<circle cx="273.74" cy="529.23" r="3.2" fill="#1d4ed8"/>
<circle cx="276.86" cy="528.42" r="3.2" fill="#1d4ed8"/>
<circle cx="279.97" cy="528.42" r="3.2" fill="#1d4ed8"/>
<circle cx="283.09" cy="527.61" r="3.2" fill="#1d4ed8"/>
<circle cx="286.20" cy="527.21" r="3.2" fill="#1d4ed8"/>
<circle cx="289.31" cy="526.80" r="3.2" fill="#1d4ed8"/>
<circle cx="292.43" cy="526.40" r="3.2" fill="#1d4ed8"/>
<circle cx="295.54" cy="525.18" r="3.2" fill="#1d4ed8"/>
<circle cx="298.66" cy="523.57" r="3.2" fill="#1d4ed8"/>
<circle cx="301.77" cy="523.57" r="3.2" fill="#1d4ed8"/>
<circle cx="304.89" cy="523.16" r="3.2" fill="#1d4ed8"/>
<circle cx="308.00" cy="522.76" r="3.2" fill="#1d4ed8"/>
<circle cx="311.11" cy="522.35" r="3.2" fill="#1d4ed8"/>
<circle cx="314.23" cy="521.54" r="3.2" fill="#1d4ed8"/>
<circle cx="317.34" cy="519.52" r="3.2" fill="#1d4ed8"/>
<circle cx="320.46" cy="517.50" r="3.2" fill="#1d4ed8"/>
<circle cx="323.57" cy="517.50" r="3.2" fill="#1d4ed8"/>
<circle cx="326.69" cy="517.50" r="3.2" fill="#1d4ed8"/>
<circle cx="329.80" cy="517.50" r="3.2" fill="#1d4ed8"/>
<circle cx="332.91" cy="517.50" r="3.2" fill="#1d4ed8"/>
<circle cx="336.03" cy="517.50" r="3.2" fill="#1d4ed8"/>
<circle cx="339.14" cy="517.10" r="3.2" fill="#1d4ed8"/>
<circle cx="342.26" cy="516.69" r="3.2" fill="#1d4ed8"/>
<circle cx="345.37" cy="515.48" r="3.2" fill="#1d4ed8"/>
<circle cx="348.49" cy="515.07" r="3.2" fill="#1d4ed8"/>
<circle cx="351.60" cy="514.67" r="3.2" fill="#1d4ed8"/>
<circle cx="354.71" cy="513.86" r="3.2" fill="#1d4ed8"/>
<circle cx="357.83" cy="514.26" r="3.2" fill="#1d4ed8"/>
<circle cx="360.94" cy="512.24" r="3.2" fill="#1d4ed8"/>
<circle cx="364.06" cy="511.84" r="3.2" fill="#1d4ed8"/>
<circle cx="367.17" cy="511.84" r="3.2" fill="#1d4ed8"/>
<circle cx="370.29" cy="511.03" r="3.2" fill="#1d4ed8"/>
<circle cx="373.40" cy="509.82" r="3.2" fill="#1d4ed8"/>
<circle cx="376.51" cy="507.79" r="3.2" fill="#1d4ed8"/>
<circle cx="379.63" cy="506.99" r="3.2" fill="#1d4ed8"/>
<circle cx="382.74" cy="506.58" r="3.2" fill="#1d4ed8"/>
<circle cx="385.86" cy="509.41" r="3.2" fill="#1d4ed8"/>
<circle cx="388.97" cy="509.01" r="3.2" fill="#1d4ed8"/>
<circle cx="392.09" cy="504.96" r="3.2" fill="#1d4ed8"/>
<circle cx="395.20" cy="504.56" r="3.2" fill="#1d4ed8"/>
<circle cx="398.31" cy="504.15" r="3.2" fill="#1d4ed8"/>
<circle cx="401.43" cy="504.56" r="3.2" fill="#1d4ed8"/>
<circle cx="404.54" cy="503.75" r="3.2" fill="#1d4ed8"/>
<circle cx="407.66" cy="503.75" r="3.2" fill="#1d4ed8"/>
<circle cx="410.77" cy="503.35" r="3.2" fill="#1d4ed8"/>
<circle cx="413.89" cy="499.30" r="3.2" fill="#1d4ed8"/>
<circle cx="417.00" cy="496.47" r="3.2" fill="#1d4ed8"/>
<circle cx="420.11" cy="490.00" r="3.2" fill="#1d4ed8"/>
<circle cx="423.23" cy="484.34" r="3.2" fill="#1d4ed8"/>
<circle cx="426.34" cy="481.10" r="3.2" fill="#1d4ed8"/>
<circle cx="429.46" cy="480.29" r="3.2" fill="#1d4ed8"/>
<circle cx="432.57" cy="480.70" r="3.2" fill="#1d4ed8"/>
<circle cx="435.69" cy="460.88" r="3.2" fill="#1d4ed8"/>
<circle cx="438.80" cy="459.26" r="3.2" fill="#1d4ed8"/>
<circle cx="441.91" cy="458.05" r="3.2" fill="#1d4ed8"/>
<circle cx="445.03" cy="456.03" r="3.2" fill="#1d4ed8"/>
<circle cx="448.14" cy="456.03" r="3.2" fill="#1d4ed8"/>
<circle cx="451.26" cy="454.41" r="3.2" fill="#1d4ed8"/>
<circle cx="454.37" cy="450.77" r="3.2" fill="#1d4ed8"/>
<circle cx="457.49" cy="444.30" r="3.2" fill="#1d4ed8"/>
<circle cx="460.60" cy="443.90" r="3.2" fill="#1d4ed8"/>
<circle cx="463.71" cy="600.00" r="3.2" fill="#1d4ed8"/>
<circle cx="466.83" cy="441.88" r="3.2" fill="#1d4ed8"/>
<circle cx="469.94" cy="440.66" r="3.2" fill="#1d4ed8"/>
<circle cx="473.06" cy="439.45" r="3.2" fill="#1d4ed8"/>
<circle cx="476.17" cy="439.04" r="3.2" fill="#1d4ed8"/>
<circle cx="479.29" cy="438.64" r="3.2" fill="#1d4ed8"/>
<circle cx="482.40" cy="437.83" r="3.2" fill="#1d4ed8"/>
<circle cx="485.51" cy="436.62" r="3.2" fill="#1d4ed8"/>
<circle cx="488.63" cy="436.62" r="3.2" fill="#1d4ed8"/>
<circle cx="491.74" cy="434.60" r="3.2" fill="#1d4ed8"/>
<circle cx="494.86" cy="432.17" r="3.2" fill="#1d4ed8"/>
<circle cx="497.97" cy="429.34" r="3.2" fill="#1d4ed8"/>
<circle cx="501.09" cy="428.93" r="3.2" fill="#1d4ed8"/>
<circle cx="504.20" cy="428.53" r="3.2" fill="#1d4ed8"/>
<circle cx="507.31" cy="427.72" r="3.2" fill="#1d4ed8"/>
<circle cx="510.43" cy="426.91" r="3.2" fill="#1d4ed8"/>
<circle cx="513.54" cy="426.10" r="3.2" fill="#1d4ed8"/>
<circle cx="516.66" cy="426.10" r="3.2" fill="#1d4ed8"/>
<circle cx="519.77" cy="426.10" r="3.2" fill="#1d4ed8"/>
<circle cx="522.89" cy="419.63" r="3.2" fill="#1d4ed8"/>
<circle cx="526.00" cy="419.23" r="3.2" fill="#1d4ed8"/>
<circle cx="529.11" cy="418.42" r="3.2" fill="#1d4ed8"/>
<circle cx="532.23" cy="418.01" r="3.2" fill="#1d4ed8"/>
<circle cx="535.34" cy="417.61" r="3.2" fill="#1d4ed8"/>
<circle cx="538.46" cy="417.61" r="3.2" fill="#1d4ed8"/>
<circle cx="541.57" cy="417.61" r="3.2" fill="#1d4ed8"/>
<circle cx="544.69" cy="417.21" r="3.2" fill="#1d4ed8"/>
<circle cx="547.80" cy="417.21" r="3.2" fill="#1d4ed8"/>
<circle cx="550.91" cy="413.57" r="3.2" fill="#1d4ed8"/>
<circle cx="554.03" cy="411.95" r="3.2" fill="#1d4ed8"/>
<circle cx="557.14" cy="412.76" r="3.2" fill="#1d4ed8"/>
<circle cx="560.26" cy="410.74" r="3.2" fill="#1d4ed8"/>
<circle cx="563.37" cy="410.74" r="3.2" fill="#1d4ed8"/>
<circle cx="566.49" cy="410.33" r="3.2" fill="#1d4ed8"/>
<circle cx="569.60" cy="410.33" r="3.2" fill="#1d4ed8"/>
<circle cx="572.71" cy="410.33" r="3.2" fill="#1d4ed8"/>
<circle cx="575.83" cy="409.93" r="3.2" fill="#1d4ed8"/>
<circle cx="578.94" cy="409.93" r="3.2" fill="#1d4ed8"/>
<circle cx="582.06" cy="409.93" r="3.2" fill="#1d4ed8"/>
<circle cx="585.17" cy="409.52" r="3.2" fill="#1d4ed8"/>
<circle cx="588.29" cy="409.52" r="3.2" fill="#1d4ed8"/>
<circle cx="591.40" cy="409.12" r="3.2" fill="#1d4ed8"/>
<circle cx="594.51" cy="409.52" r="3.2" fill="#1d4ed8"/>
<circle cx="597.63" cy="409.12" r="3.2" fill="#1d4ed8"/>
<circle cx="600.74" cy="407.50" r="3.2" fill="#1d4ed8"/>
<circle cx="603.86" cy="407.10" r="3.2" fill="#1d4ed8"/>
<circle cx="606.97" cy="403.05" r="3.2" fill="#1d4ed8"/>
<circle cx="610.09" cy="399.82" r="3.2" fill="#1d4ed8"/>
<circle cx="613.20" cy="400.22" r="3.2" fill="#1d4ed8"/>
<circle cx="616.31" cy="400.62" r="3.2" fill="#1d4ed8"/>
<circle cx="619.43" cy="400.62" r="3.2" fill="#1d4ed8"/>
<circle cx="622.54" cy="399.41" r="3.2" fill="#1d4ed8"/>
<circle cx="625.66" cy="392.94" r="3.2" fill="#1d4ed8"/>
<circle cx="628.77" cy="391.32" r="3.2" fill="#1d4ed8"/>
<circle cx="631.89" cy="389.30" r="3.2" fill="#1d4ed8"/>
<circle cx="635.00" cy="389.30" r="3.2" fill="#1d4ed8"/>
<circle cx="638.11" cy="388.49" r="3.2" fill="#1d4ed8"/>
<circle cx="641.23" cy="375.15" r="3.2" fill="#1d4ed8"/>
<circle cx="644.34" cy="374.74" r="3.2" fill="#1d4ed8"/>
<circle cx="647.46" cy="374.74" r="3.2" fill="#1d4ed8"/>
<circle cx="650.57" cy="374.74" r="3.2" fill="#1d4ed8"/>
<circle cx="653.69" cy="374.74" r="3.2" fill="#1d4ed8"/>
<circle cx="656.80" cy="374.34" r="3.2" fill="#1d4ed8"/>
<circle cx="659.91" cy="374.34" r="3.2" fill="#1d4ed8"/>
<circle cx="663.03" cy="374.34" r="3.2" fill="#1d4ed8"/>
<circle cx="666.14" cy="374.34" r="3.2" fill="#1d4ed8"/>
<circle cx="669.26" cy="374.34" r="3.2" fill="#1d4ed8"/>
<circle cx="672.37" cy="373.93" r="3.2" fill="#1d4ed8"/>
<circle cx="675.49" cy="373.12" r="3.2" fill="#1d4ed8"/>
<circle cx="678.60" cy="372.72" r="3.2" fill="#1d4ed8"/>
<circle cx="681.71" cy="373.53" r="3.2" fill="#1d4ed8"/>
<circle cx="684.83" cy="435.81" r="3.2" fill="#1d4ed8"/>
<circle cx="687.94" cy="372.32" r="3.2" fill="#1d4ed8"/>
<circle cx="691.06" cy="372.72" r="3.2" fill="#1d4ed8"/>
<circle cx="694.17" cy="371.91" r="3.2" fill="#1d4ed8"/>
<circle cx="697.29" cy="371.91" r="3.2" fill="#1d4ed8"/>
<circle cx="700.40" cy="372.32" r="3.2" fill="#1d4ed8"/>
<circle cx="703.51" cy="371.10" r="3.2" fill="#1d4ed8"/>
<circle cx="706.63" cy="369.89" r="3.2" fill="#1d4ed8"/>
<circle cx="709.74" cy="369.89" r="3.2" fill="#1d4ed8"/>
<circle cx="712.86" cy="369.89" r="3.2" fill="#1d4ed8"/>
<circle cx="715.97" cy="369.49" r="3.2" fill="#1d4ed8"/>
<circle cx="719.09" cy="369.89" r="3.2" fill="#1d4ed8"/>
<circle cx="722.20" cy="369.08" r="3.2" fill="#1d4ed8"/>
<circle cx="725.31" cy="368.68" r="3.2" fill="#1d4ed8"/>
<circle cx="728.43" cy="368.27" r="3.2" fill="#1d4ed8"/>
<circle cx="731.54" cy="367.87" r="3.2" fill="#1d4ed8"/>
<circle cx="734.66" cy="367.06" r="3.2" fill="#1d4ed8"/>
<circle cx="737.77" cy="367.46" r="3.2" fill="#1d4ed8"/>
<circle cx="740.89" cy="367.06" r="3.2" fill="#1d4ed8"/>
<circle cx="744.00" cy="366.25" r="3.2" fill="#1d4ed8"/>
<circle cx="747.11" cy="368.27" r="3.2" fill="#1d4ed8"/>
<circle cx="750.23" cy="368.68" r="3.2" fill="#1d4ed8"/>
<circle cx="753.34" cy="368.68" r="3.2" fill="#1d4ed8"/>
<circle cx="756.46" cy="368.27" r="3.2" fill="#1d4ed8"/>
<circle cx="759.57" cy="369.08" r="3.2" fill="#1d4ed8"/>
<circle cx="762.69" cy="367.87" r="3.2" fill="#1d4ed8"/>
<circle cx="765.80" cy="367.46" r="3.2" fill="#1d4ed8"/>
<circle cx="768.91" cy="367.06" r="3.2" fill="#1d4ed8"/>
<circle cx="772.03" cy="360.18" r="3.2" fill="#1d4ed8"/>
<circle cx="775.14" cy="359.78" r="3.2" fill="#1d4ed8"/>
<circle cx="778.26" cy="359.38" r="3.2" fill="#1d4ed8"/>
<circle cx="781.37" cy="356.95" r="3.2" fill="#1d4ed8"/>
<circle cx="784.49" cy="357.35" r="3.2" fill="#1d4ed8"/>
<circle cx="787.60" cy="357.76" r="3.2" fill="#1d4ed8"/>
<circle cx="790.71" cy="355.33" r="3.2" fill="#1d4ed8"/>
<circle cx="793.83" cy="355.74" r="3.2" fill="#1d4ed8"/>
<circle cx="796.94" cy="357.35" r="3.2" fill="#1d4ed8"/>
<circle cx="800.06" cy="355.33" r="3.2" fill="#1d4ed8"/>
<circle cx="803.17" cy="356.14" r="3.2" fill="#1d4ed8"/>
<circle cx="806.29" cy="355.74" r="3.2" fill="#1d4ed8"/>
<circle cx="809.40" cy="356.14" r="3.2" fill="#1d4ed8"/>
<circle cx="812.51" cy="354.12" r="3.2" fill="#1d4ed8"/>
<circle cx="815.63" cy="354.93" r="3.2" fill="#1d4ed8"/>
<circle cx="818.74" cy="356.14" r="3.2" fill="#1d4ed8"/>
<circle cx="821.86" cy="354.52" r="3.2" fill="#1d4ed8"/>
<circle cx="824.97" cy="353.71" r="3.2" fill="#1d4ed8"/>
<circle cx="828.09" cy="354.12" r="3.2" fill="#1d4ed8"/>
<circle cx="831.20" cy="354.93" r="3.2" fill="#1d4ed8"/>
<circle cx="834.31" cy="352.90" r="3.2" fill="#1d4ed8"/>
<circle cx="837.43" cy="353.71" r="3.2" fill="#1d4ed8"/>
<circle cx="840.54" cy="353.31" r="3.2" fill="#1d4ed8"/>
<circle cx="843.66" cy="353.31" r="3.2" fill="#1d4ed8"/>
<circle cx="846.77" cy="354.52" r="3.2" fill="#1d4ed8"/>
<circle cx="849.89" cy="352.90" r="3.2" fill="#1d4ed8"/>
<circle cx="853.00" cy="352.50" r="3.2" fill="#1d4ed8"/>
<circle cx="856.11" cy="352.50" r="3.2" fill="#1d4ed8"/>
<circle cx="859.23" cy="353.31" r="3.2" fill="#1d4ed8"/>
<circle cx="862.34" cy="352.50" r="3.2" fill="#1d4ed8"/>
<circle cx="865.46" cy="353.71" r="3.2" fill="#1d4ed8"/>
<circle cx="868.57" cy="354.12" r="3.2" fill="#1d4ed8"/>
<circle cx="871.69" cy="352.50" r="3.2" fill="#1d4ed8"/>
<circle cx="874.80" cy="352.90" r="3.2" fill="#1d4ed8"/>
<circle cx="877.91" cy="352.50" r="3.2" fill="#1d4ed8"/>
<circle cx="881.03" cy="352.10" r="3.2" fill="#1d4ed8"/>
<circle cx="884.14" cy="351.69" r="3.2" fill="#1d4ed8"/>
<circle cx="887.26" cy="352.10" r="3.2" fill="#1d4ed8"/>
<circle cx="890.37" cy="354.12" r="3.2" fill="#1d4ed8"/>
<circle cx="893.49" cy="352.50" r="3.2" fill="#1d4ed8"/>
<circle cx="896.60" cy="352.10" r="3.2" fill="#1d4ed8"/>
<circle cx="899.71" cy="352.10" r="3.2" fill="#1d4ed8"/>
<circle cx="902.83" cy="349.67" r="3.2" fill="#1d4ed8"/>
<circle cx="905.94" cy="349.67" r="3.2" fill="#1d4ed8"/>
<circle cx="909.06" cy="350.88" r="3.2" fill="#1d4ed8"/>
<circle cx="912.17" cy="351.29" r="3.2" fill="#1d4ed8"/>
<circle cx="915.29" cy="350.48" r="3.2" fill="#1d4ed8"/>
<circle cx="918.40" cy="352.10" r="3.2" fill="#1d4ed8"/>
<circle cx="921.51" cy="350.48" r="3.2" fill="#1d4ed8"/>
<circle cx="924.63" cy="350.48" r="3.2" fill="#1d4ed8"/>
<circle cx="927.74" cy="350.48" r="3.2" fill="#1d4ed8"/>
<circle cx="930.86" cy="350.07" r="3.2" fill="#1d4ed8"/>
<circle cx="933.97" cy="348.46" r="3.2" fill="#1d4ed8"/>
<circle cx="937.09" cy="351.29" r="3.2" fill="#1d4ed8"/>
<circle cx="940.20" cy="349.67" r="3.2" fill="#1d4ed8"/>
<circle cx="943.31" cy="351.29" r="3.2" fill="#1d4ed8"/>
<circle cx="946.43" cy="349.67" r="3.2" fill="#1d4ed8"/>
<circle cx="949.54" cy="348.86" r="3.2" fill="#1d4ed8"/>
<circle cx="952.66" cy="348.46" r="3.2" fill="#1d4ed8"/>
<circle cx="955.77" cy="348.46" r="3.2" fill="#1d4ed8"/>
<circle cx="958.89" cy="347.24" r="3.2" fill="#1d4ed8"/>
<circle cx="962.00" cy="348.86" r="3.2" fill="#1d4ed8"/>
<circle cx="965.11" cy="346.84" r="3.2" fill="#1d4ed8"/>
<circle cx="968.23" cy="348.46" r="3.2" fill="#1d4ed8"/>
<circle cx="971.34" cy="348.86" r="3.2" fill="#1d4ed8"/>
<circle cx="974.46" cy="346.84" r="3.2" fill="#1d4ed8"/>
<circle cx="977.57" cy="349.26" r="3.2" fill="#1d4ed8"/>
<circle cx="980.69" cy="348.05" r="3.2" fill="#1d4ed8"/>
<circle cx="983.80" cy="349.26" r="3.2" fill="#1d4ed8"/>
<circle cx="986.91" cy="349.26" r="3.2" fill="#1d4ed8"/>
<circle cx="990.03" cy="350.48" r="3.2" fill="#1d4ed8"/>
<circle cx="993.14" cy="352.90" r="3.2" fill="#1d4ed8"/>
<circle cx="996.26" cy="349.67" r="3.2" fill="#1d4ed8"/>
<circle cx="999.37" cy="348.46" r="3.2" fill="#1d4ed8"/>
<circle cx="1002.49" cy="345.62" r="3.2" fill="#1d4ed8"/>
<circle cx="1005.60" cy="344.82" r="3.2" fill="#1d4ed8"/>
<circle cx="1008.71" cy="344.41" r="3.2" fill="#1d4ed8"/>
<circle cx="1011.83" cy="342.39" r="3.2" fill="#1d4ed8"/>
<circle cx="1014.94" cy="341.18" r="3.2" fill="#1d4ed8"/>
<circle cx="1018.06" cy="341.58" r="3.2" fill="#1d4ed8"/>
<circle cx="1021.17" cy="339.15" r="3.2" fill="#1d4ed8"/>
<circle cx="1024.29" cy="338.35" r="3.2" fill="#1d4ed8"/>
<circle cx="1027.40" cy="337.54" r="3.2" fill="#1d4ed8"/>
<circle cx="1030.51" cy="336.73" r="3.2" fill="#1d4ed8"/>
<circle cx="1033.63" cy="335.92" r="3.2" fill="#1d4ed8"/>
<circle cx="1036.74" cy="337.54" r="3.2" fill="#1d4ed8"/>
<circle cx="1039.86" cy="338.35" r="3.2" fill="#1d4ed8"/>
<circle cx="1042.97" cy="337.54" r="3.2" fill="#1d4ed8"/>
<circle cx="1046.09" cy="337.54" r="3.2" fill="#1d4ed8"/>
<circle cx="1049.20" cy="337.54" r="3.2" fill="#1d4ed8"/>
<circle cx="1052.31" cy="333.09" r="3.2" fill="#1d4ed8"/>
<circle cx="1055.43" cy="333.90" r="3.2" fill="#1d4ed8"/>
<circle cx="1058.54" cy="335.92" r="3.2" fill="#1d4ed8"/>
<circle cx="1061.66" cy="336.73" r="3.2" fill="#1d4ed8"/>
<circle cx="1064.77" cy="335.51" r="3.2" fill="#1d4ed8"/>
<circle cx="1067.89" cy="332.28" r="3.2" fill="#1d4ed8"/>
<circle cx="1071.00" cy="331.47" r="3.2" fill="#1d4ed8"/>
<circle cx="1074.11" cy="331.07" r="3.2" fill="#1d4ed8"/>
<circle cx="1077.23" cy="331.47" r="3.2" fill="#1d4ed8"/>
<circle cx="1080.34" cy="331.07" r="3.2" fill="#1d4ed8"/>
<circle cx="1083.46" cy="331.07" r="3.2" fill="#1d4ed8"/>
<circle cx="1086.57" cy="331.07" r="3.2" fill="#1d4ed8"/>
<circle cx="1089.69" cy="331.07" r="3.2" fill="#1d4ed8"/>
<circle cx="1092.80" cy="331.07" r="3.2" fill="#1d4ed8"/>
<circle cx="1095.91" cy="331.07" r="3.2" fill="#1d4ed8"/>
<circle cx="1099.03" cy="331.07" r="3.2" fill="#1d4ed8"/>
<circle cx="1102.14" cy="331.07" r="3.2" fill="#1d4ed8"/>
<circle cx="1105.26" cy="331.07" r="3.2" fill="#1d4ed8"/>
<circle cx="1108.37" cy="331.07" r="3.2" fill="#1d4ed8"/>
<circle cx="1111.49" cy="331.47" r="3.2" fill="#1d4ed8"/>
<circle cx="1114.60" cy="331.88" r="3.2" fill="#1d4ed8"/>
<circle cx="1117.71" cy="331.07" r="3.2" fill="#1d4ed8"/>
<circle cx="1120.83" cy="331.47" r="3.2" fill="#1d4ed8"/>
<circle cx="1123.94" cy="331.07" r="3.2" fill="#1d4ed8"/>
<circle cx="1127.06" cy="331.47" r="3.2" fill="#1d4ed8"/>
<circle cx="1130.17" cy="331.07" r="3.2" fill="#1d4ed8"/>
<circle cx="1133.29" cy="331.88" r="3.2" fill="#1d4ed8"/>
<circle cx="1136.40" cy="331.07" r="3.2" fill="#1d4ed8"/>
<circle cx="1139.51" cy="331.47" r="3.2" fill="#1d4ed8"/>
<circle cx="1142.63" cy="331.47" r="3.2" fill="#1d4ed8"/>
<circle cx="1145.74" cy="331.07" r="3.2" fill="#1d4ed8"/>
<circle cx="1148.86" cy="331.47" r="3.2" fill="#1d4ed8"/>
<circle cx="1151.97" cy="331.47" r="3.2" fill="#1d4ed8"/>
<circle cx="1155.09" cy="330.66" r="3.2" fill="#1d4ed8"/>
<circle cx="1158.20" cy="330.26" r="3.2" fill="#1d4ed8"/>
<circle cx="1161.31" cy="330.66" r="3.2" fill="#1d4ed8"/>
<circle cx="1164.43" cy="330.66" r="3.2" fill="#1d4ed8"/>
<circle cx="1167.54" cy="330.66" r="3.2" fill="#1d4ed8"/>
<circle cx="1170.66" cy="330.26" r="3.2" fill="#1d4ed8"/>
<circle cx="1173.77" cy="330.26" r="3.2" fill="#1d4ed8"/>
<circle cx="1176.89" cy="330.26" r="3.2" fill="#1d4ed8"/>
<circle cx="1180.00" cy="330.26" r="3.2" fill="#1d4ed8"/>
<text x="635" y="695" text-anchor="middle" font-size="14" fill="#111" font-family="sans-serif">Date</text>
<text x="24" y="325" text-anchor="middle" font-size="14" fill="#111" transform="rotate(-90 24,325)" font-family="sans-serif">Passed files</text>
</svg>
