<?xml version="1.0" encoding="UTF-8"?>
<svg xmlns="http://www.w3.org/2000/svg" width="1280" height="720" viewBox="0 0 1280 720">
<rect width="100%" height="100%" fill="#ffffff"/>
<text x="640" y="30" text-anchor="middle" font-size="22" font-family="sans-serif">Roast passed files history</text>
<line x1="90" y1="600" x2="1180" y2="600" stroke="#333" stroke-width="1.5"/>
<line x1="90" y1="50" x2="90" y2="600" stroke="#333" stroke-width="1.5"/>
<line x1="90" y1="600.00" x2="1180" y2="600.00" stroke="#e5e7eb" stroke-width="1"/>
<text x="78" y="605.00" text-anchor="end" font-size="12" fill="#111" font-family="sans-serif">0</text>
<line x1="90" y1="397.79" x2="1180" y2="397.79" stroke="#e5e7eb" stroke-width="1"/>
<text x="78" y="402.79" text-anchor="end" font-size="12" fill="#111" font-family="sans-serif">500</text>
<line x1="90" y1="195.59" x2="1180" y2="195.59" stroke="#e5e7eb" stroke-width="1"/>
<text x="78" y="200.59" text-anchor="end" font-size="12" fill="#111" font-family="sans-serif">1000</text>
<line x1="90.00" y1="600" x2="90.00" y2="606" stroke="#333" stroke-width="1"/>
<text x="90.00" y="624" text-anchor="end" font-size="11" fill="#111" transform="rotate(-40 90.00,624)" font-family="sans-serif">2026-02-12</text>
<line x1="225.14" y1="600" x2="225.14" y2="606" stroke="#333" stroke-width="1"/>
<text x="225.14" y="624" text-anchor="end" font-size="11" fill="#111" transform="rotate(-40 225.14,624)" font-family="sans-serif">2026-02-18</text>
<line x1="360.28" y1="600" x2="360.28" y2="606" stroke="#333" stroke-width="1"/>
<text x="360.28" y="624" text-anchor="end" font-size="11" fill="#111" transform="rotate(-40 360.28,624)" font-family="sans-serif">2026-02-25</text>
<line x1="495.43" y1="600" x2="495.43" y2="606" stroke="#333" stroke-width="1"/>
<text x="495.43" y="624" text-anchor="end" font-size="11" fill="#111" transform="rotate(-40 495.43,624)" font-family="sans-serif">2026-02-28</text>
<line x1="630.57" y1="600" x2="630.57" y2="606" stroke="#333" stroke-width="1"/>
<text x="630.57" y="624" text-anchor="end" font-size="11" fill="#111" transform="rotate(-40 630.57,624)" font-family="sans-serif">2026-03-06</text>
<line x1="765.71" y1="600" x2="765.71" y2="606" stroke="#333" stroke-width="1"/>
<text x="765.71" y="624" text-anchor="end" font-size="11" fill="#111" transform="rotate(-40 765.71,624)" font-family="sans-serif">2026-03-11</text>
<line x1="900.85" y1="600" x2="900.85" y2="606" stroke="#333" stroke-width="1"/>
<text x="900.85" y="624" text-anchor="end" font-size="11" fill="#111" transform="rotate(-40 900.85,624)" font-family="sans-serif">2026-03-18</text>
<line x1="1036.00" y1="600" x2="1036.00" y2="606" stroke="#333" stroke-width="1"/>
<text x="1036.00" y="624" text-anchor="end" font-size="11" fill="#111" transform="rotate(-40 1036.00,624)" font-family="sans-serif">2026-03-20</text>
<line x1="1171.14" y1="600" x2="1171.14" y2="606" stroke="#333" stroke-width="1"/>
<text x="1171.14" y="624" text-anchor="end" font-size="11" fill="#111" transform="rotate(-40 1171.14,624)" font-family="sans-serif">2026-03-30</text>
<line x1="1180.00" y1="600" x2="1180.00" y2="606" stroke="#333" stroke-width="1"/>
<text x="1180.00" y="624" text-anchor="end" font-size="11" fill="#111" transform="rotate(-40 1180.00,624)" font-family="sans-serif">2026-03-30</text>
<line x1="90" y1="75.88" x2="1180" y2="75.88" stroke="#dc2626" stroke-width="1.5" stroke-dasharray="8,4"/>
<text x="1184" y="79.88" font-size="12" fill="#dc2626" font-family="sans-serif">Goal: 1296</text>
<polyline fill="none" stroke="#2563eb" stroke-width="3" points="90.00,540.55 92.22,538.53 94.43,536.91 96.65,534.49 98.86,534.49 101.08,533.27 103.29,532.46 105.51,532.87 107.72,532.06 109.94,532.46 112.15,532.06 114.37,568.46 116.59,568.46 118.80,566.43 121.02,545.00 123.23,545.00 125.45,544.19 127.66,543.79 129.88,543.79 132.09,543.38 134.31,541.76 136.52,541.36 138.74,540.96 140.96,540.96 143.17,539.34 145.39,539.34 147.60,556.73 149.82,556.73 152.03,555.51 154.25,551.07 156.46,538.93 158.68,538.93 160.89,538.93 163.11,538.12 165.33,536.91 167.54,536.91 169.76,536.51 171.97,536.51 174.19,556.73 176.40,556.73 178.62,556.73 180.83,556.73 183.05,535.29 185.26,535.29 187.48,535.29 189.70,535.29 191.91,534.49 194.13,534.08 196.34,533.68 198.56,532.87 200.77,532.06 202.99,532.06 205.20,531.25 207.42,530.85 209.63,530.44 211.85,530.04 214.07,530.04 216.28,529.23 218.50,529.23 220.71,529.23 222.93,528.42 225.14,528.42 227.36,527.61 229.57,527.21 231.79,526.80 234.00,526.40 236.22,525.18 238.43,523.57 240.65,523.57 242.87,523.16 245.08,522.76 247.30,522.35 249.51,521.54 251.73,519.52 253.94,517.50 256.16,517.50 258.37,517.50 260.59,517.50 262.80,517.50 265.02,517.50 267.24,517.10 269.45,516.69 271.67,515.48 273.88,515.07 276.10,514.67 278.31,513.86 280.53,514.26 282.74,512.24 284.96,511.84 287.17,511.84 289.39,511.03 291.61,509.82 293.82,507.79 296.04,506.99 298.25,506.58 300.47,509.41 302.68,509.01 304.90,504.96 307.11,504.56 309.33,504.15 311.54,504.56 313.76,503.75 315.98,503.75 318.19,503.35 320.41,499.30 322.62,496.47 324.84,490.00 327.05,484.34 329.27,481.10 331.48,480.29 333.70,480.70 335.91,460.88 338.13,459.26 340.35,458.05 342.56,456.03 344.78,456.03 346.99,454.41 349.21,450.77 351.42,444.30 353.64,443.90 355.85,600.00 358.07,441.88 360.28,440.66 362.50,439.45 364.72,439.04 366.93,438.64 369.15,437.83 371.36,436.62 373.58,436.62 375.79,434.60 378.01,432.17 380.22,429.34 382.44,428.93 384.65,428.53 386.87,427.72 389.09,426.91 391.30,426.10 393.52,426.10 395.73,426.10 397.95,419.63 400.16,419.23 402.38,418.42 404.59,418.01 406.81,417.61 409.02,417.61 411.24,417.61 413.46,417.21 415.67,417.21 417.89,413.57 420.10,411.95 422.32,412.76 424.53,410.74 426.75,410.74 428.96,410.33 431.18,410.33 433.39,410.33 435.61,409.93 437.83,409.93 440.04,409.93 442.26,409.52 444.47,409.52 446.69,409.12 448.90,409.52 451.12,409.12 453.33,407.50 455.55,407.10 457.76,403.05 459.98,399.82 462.20,400.22 464.41,400.62 466.63,400.62 468.84,399.41 471.06,392.94 473.27,391.32 475.49,389.30 477.70,389.30 479.92,388.49 482.13,375.15 484.35,374.74 486.57,374.74 488.78,374.74 491.00,374.74 493.21,374.34 495.43,374.34 497.64,374.34 499.86,374.34 502.07,374.34 504.29,373.93 506.50,373.12 508.72,372.72 510.93,373.53 513.15,435.81 515.37,372.32 517.58,372.72 519.80,371.91 522.01,371.91 524.23,372.32 526.44,371.10 528.66,369.89 530.87,369.89 533.09,369.89 535.30,369.49 537.52,369.89 539.74,369.08 541.95,368.68 544.17,368.27 546.38,367.87 548.60,367.06 550.81,367.46 553.03,367.06 555.24,366.25 557.46,368.27 559.67,368.68 561.89,368.68 564.11,368.27 566.32,369.08 568.54,367.87 570.75,367.46 572.97,367.06 575.18,360.18 577.40,359.78 579.61,359.38 581.83,356.95 584.04,357.35 586.26,357.76 588.48,355.33 590.69,355.74 592.91,357.35 595.12,355.33 597.34,356.14 599.55,355.74 601.77,356.14 603.98,354.12 606.20,354.93 608.41,356.14 610.63,354.52 612.85,353.71 615.06,354.12 617.28,354.93 619.49,352.90 621.71,353.71 623.92,353.31 626.14,353.31 628.35,354.52 630.57,352.90 632.78,352.50 635.00,352.50 637.22,353.31 639.43,352.50 641.65,353.71 643.86,354.12 646.08,352.50 648.29,352.90 650.51,352.50 652.72,352.10 654.94,351.69 657.15,352.10 659.37,354.12 661.59,352.50 663.80,352.10 666.02,352.10 668.23,349.67 670.45,349.67 672.66,350.88 674.88,351.29 677.09,350.48 679.31,352.10 681.52,350.48 683.74,350.48 685.96,350.48 688.17,350.07 690.39,348.46 692.60,351.29 694.82,349.67 697.03,351.29 699.25,349.67 701.46,348.86 703.68,348.46 705.89,348.46 708.11,347.24 710.33,348.86 712.54,346.84 714.76,348.46 716.97,348.86 719.19,346.84 721.40,349.26 723.62,348.05 725.83,349.26 728.05,349.26 730.26,350.48 732.48,352.90 734.70,349.67 736.91,348.46 739.13,345.62 741.34,344.82 743.56,344.41 745.77,342.39 747.99,341.18 750.20,341.58 752.42,339.15 754.63,338.35 756.85,337.54 759.07,336.73 761.28,335.92 763.50,337.54 765.71,338.35 767.93,337.54 770.14,337.54 772.36,337.54 774.57,333.09 776.79,333.90 779.00,335.92 781.22,336.73 783.43,335.51 785.65,332.28 787.87,331.47 790.08,331.07 792.30,331.47 794.51,331.07 796.73,331.07 798.94,331.07 801.16,331.07 803.37,331.07 805.59,331.07 807.80,331.07 810.02,331.07 812.24,331.07 814.45,331.07 816.67,331.47 818.88,331.88 821.10,331.07 823.31,331.47 825.53,331.07 827.74,331.47 829.96,331.07 832.17,324.19 834.39,324.19 836.61,318.93 838.82,316.51 841.04,310.44 843.25,308.01 845.47,600.00 847.68,301.54 849.90,290.22 852.11,287.79 854.33,286.18 856.54,285.77 858.76,285.77 860.98,285.77 863.19,286.18 865.41,285.77 867.62,285.77 869.84,285.77 872.05,283.35 874.27,282.94 876.48,282.94 878.70,283.35 880.91,282.94 883.13,282.94 885.35,283.75 887.56,282.13 889.78,282.13 891.99,282.54 894.21,282.13 896.42,282.54 898.64,282.94 900.85,281.73 903.07,282.54 905.28,281.73 907.50,282.54 909.72,282.13 911.93,282.13 914.15,281.73 916.36,281.73 918.58,281.32 920.79,281.73 923.01,282.13 925.22,281.32 927.44,281.32 929.65,282.54 931.87,282.13 934.09,281.32 936.30,281.32 938.52,281.32 940.73,282.54 942.95,282.13 945.16,281.32 947.38,282.13 949.59,281.73 951.81,282.13 954.02,280.11 956.24,280.11 958.46,280.51 960.67,279.71 962.89,280.11 965.10,280.51 967.32,279.71 969.53,280.11 971.75,280.11 973.96,279.30 976.18,278.90 978.39,278.90 980.61,280.51 982.83,279.30 985.04,278.09 987.26,278.49 989.47,278.49 991.69,277.28 993.90,277.68 996.12,277.68 998.33,278.09 1000.55,277.28 1002.76,600.00 1004.98,278.90 1007.20,279.30 1009.41,278.90 1011.63,278.49 1013.84,278.49 1016.06,278.49 1018.27,278.49 1020.49,278.49 1022.70,278.49 1024.92,278.49 1027.13,278.49 1029.35,278.49 1031.57,278.49 1033.78,278.49 1036.00,278.49 1038.21,600.00 1040.43,600.00 1042.64,254.63 1044.86,600.00 1047.07,245.74 1049.29,245.74 1051.50,246.14 1053.72,245.74 1055.93,245.74 1058.15,245.74 1060.37,245.74 1062.58,245.74 1064.80,240.07 1067.01,238.05 1069.23,238.05 1071.44,227.13 1073.66,227.13 1075.87,226.32 1078.09,227.54 1080.30,226.73 1082.52,226.32 1084.74,227.13 1086.95,227.13 1089.17,226.73 1091.38,226.32 1093.60,226.73 1095.81,226.73 1098.03,226.73 1100.24,225.11 1102.46,224.71 1104.67,225.11 1106.89,224.30 1109.11,226.32 1111.32,224.30 1113.54,225.51 1115.75,225.51 1117.97,225.51 1120.18,225.92 1122.40,223.09 1124.61,223.49 1126.83,223.09 1129.04,223.09 1131.26,223.90 1133.48,223.49 1135.69,223.49 1137.91,223.09 1140.12,223.09 1142.34,223.49 1144.55,223.09 1146.77,223.09 1148.98,223.49 1151.20,223.49 1153.41,223.09 1155.63,223.09 1157.85,223.49 1160.06,223.09 1162.28,223.09 1164.49,223.09 1166.71,223.49 1168.92,223.49 1171.14,223.49 1173.35,223.09 1175.57,223.49 1177.78,223.09 1180.00,223.09"/>
<circle cx="90.00" cy="540.55" r="3.2" fill="#1d4ed8"/>
<circle cx="92.22" cy="538.53" r="3.2" fill="#1d4ed8"/>
<circle cx="94.43" cy="536.91" r="3.2" fill="#1d4ed8"/>
<circle cx="96.65" cy="534.49" r="3.2" fill="#1d4ed8"/>
<circle cx="98.86" cy="534.49" r="3.2" fill="#1d4ed8"/>
<circle cx="101.08" cy="533.27" r="3.2" fill="#1d4ed8"/>
<circle cx="103.29" cy="532.46" r="3.2" fill="#1d4ed8"/>
<circle cx="105.51" cy="532.87" r="3.2" fill="#1d4ed8"/>
<circle cx="107.72" cy="532.06" r="3.2" fill="#1d4ed8"/>
<circle cx="109.94" cy="532.46" r="3.2" fill="#1d4ed8"/>
<circle cx="112.15" cy="532.06" r="3.2" fill="#1d4ed8"/>
<circle cx="114.37" cy="568.46" r="3.2" fill="#1d4ed8"/>
<circle cx="116.59" cy="568.46" r="3.2" fill="#1d4ed8"/>
<circle cx="118.80" cy="566.43" r="3.2" fill="#1d4ed8"/>
<circle cx="121.02" cy="545.00" r="3.2" fill="#1d4ed8"/>
<circle cx="123.23" cy="545.00" r="3.2" fill="#1d4ed8"/>
<circle cx="125.45" cy="544.19" r="3.2" fill="#1d4ed8"/>
<circle cx="127.66" cy="543.79" r="3.2" fill="#1d4ed8"/>
<circle cx="129.88" cy="543.79" r="3.2" fill="#1d4ed8"/>
<circle cx="132.09" cy="543.38" r="3.2" fill="#1d4ed8"/>
<circle cx="134.31" cy="541.76" r="3.2" fill="#1d4ed8"/>
<circle cx="136.52" cy="541.36" r="3.2" fill="#1d4ed8"/>
<circle cx="138.74" cy="540.96" r="3.2" fill="#1d4ed8"/>
<circle cx="140.96" cy="540.96" r="3.2" fill="#1d4ed8"/>
<circle cx="143.17" cy="539.34" r="3.2" fill="#1d4ed8"/>
<circle cx="145.39" cy="539.34" r="3.2" fill="#1d4ed8"/>
<circle cx="147.60" cy="556.73" r="3.2" fill="#1d4ed8"/>
<circle cx="149.82" cy="556.73" r="3.2" fill="#1d4ed8"/>
<circle cx="152.03" cy="555.51" r="3.2" fill="#1d4ed8"/>
<circle cx="154.25" cy="551.07" r="3.2" fill="#1d4ed8"/>
<circle cx="156.46" cy="538.93" r="3.2" fill="#1d4ed8"/>
<circle cx="158.68" cy="538.93" r="3.2" fill="#1d4ed8"/>
<circle cx="160.89" cy="538.93" r="3.2" fill="#1d4ed8"/>
<circle cx="163.11" cy="538.12" r="3.2" fill="#1d4ed8"/>
<circle cx="165.33" cy="536.91" r="3.2" fill="#1d4ed8"/>
<circle cx="167.54" cy="536.91" r="3.2" fill="#1d4ed8"/>
<circle cx="169.76" cy="536.51" r="3.2" fill="#1d4ed8"/>
<circle cx="171.97" cy="536.51" r="3.2" fill="#1d4ed8"/>
<circle cx="174.19" cy="556.73" r="3.2" fill="#1d4ed8"/>
<circle cx="176.40" cy="556.73" r="3.2" fill="#1d4ed8"/>
<circle cx="178.62" cy="556.73" r="3.2" fill="#1d4ed8"/>
<circle cx="180.83" cy="556.73" r="3.2" fill="#1d4ed8"/>
<circle cx="183.05" cy="535.29" r="3.2" fill="#1d4ed8"/>
<circle cx="185.26" cy="535.29" r="3.2" fill="#1d4ed8"/>
<circle cx="187.48" cy="535.29" r="3.2" fill="#1d4ed8"/>
<circle cx="189.70" cy="535.29" r="3.2" fill="#1d4ed8"/>
<circle cx="191.91" cy="534.49" r="3.2" fill="#1d4ed8"/>
<circle cx="194.13" cy="534.08" r="3.2" fill="#1d4ed8"/>
<circle cx="196.34" cy="533.68" r="3.2" fill="#1d4ed8"/>
<circle cx="198.56" cy="532.87" r="3.2" fill="#1d4ed8"/>
<circle cx="200.77" cy="532.06" r="3.2" fill="#1d4ed8"/>
<circle cx="202.99" cy="532.06" r="3.2" fill="#1d4ed8"/>
<circle cx="205.20" cy="531.25" r="3.2" fill="#1d4ed8"/>
<circle cx="207.42" cy="530.85" r="3.2" fill="#1d4ed8"/>
<circle cx="209.63" cy="530.44" r="3.2" fill="#1d4ed8"/>
<circle cx="211.85" cy="530.04" r="3.2" fill="#1d4ed8"/>
<circle cx="214.07" cy="530.04" r="3.2" fill="#1d4ed8"/>
<circle cx="216.28" cy="529.23" r="3.2" fill="#1d4ed8"/>
<circle cx="218.50" cy="529.23" r="3.2" fill="#1d4ed8"/>
<circle cx="220.71" cy="529.23" r="3.2" fill="#1d4ed8"/>
<circle cx="222.93" cy="528.42" r="3.2" fill="#1d4ed8"/>
<circle cx="225.14" cy="528.42" r="3.2" fill="#1d4ed8"/>
<circle cx="227.36" cy="527.61" r="3.2" fill="#1d4ed8"/>
<circle cx="229.57" cy="527.21" r="3.2" fill="#1d4ed8"/>
<circle cx="231.79" cy="526.80" r="3.2" fill="#1d4ed8"/>
<circle cx="234.00" cy="526.40" r="3.2" fill="#1d4ed8"/>
<circle cx="236.22" cy="525.18" r="3.2" fill="#1d4ed8"/>
<circle cx="238.43" cy="523.57" r="3.2" fill="#1d4ed8"/>
<circle cx="240.65" cy="523.57" r="3.2" fill="#1d4ed8"/>
<circle cx="242.87" cy="523.16" r="3.2" fill="#1d4ed8"/>
<circle cx="245.08" cy="522.76" r="3.2" fill="#1d4ed8"/>
<circle cx="247.30" cy="522.35" r="3.2" fill="#1d4ed8"/>
<circle cx="249.51" cy="521.54" r="3.2" fill="#1d4ed8"/>
<circle cx="251.73" cy="519.52" r="3.2" fill="#1d4ed8"/>
<circle cx="253.94" cy="517.50" r="3.2" fill="#1d4ed8"/>
<circle cx="256.16" cy="517.50" r="3.2" fill="#1d4ed8"/>
<circle cx="258.37" cy="517.50" r="3.2" fill="#1d4ed8"/>
<circle cx="260.59" cy="517.50" r="3.2" fill="#1d4ed8"/>
<circle cx="262.80" cy="517.50" r="3.2" fill="#1d4ed8"/>
<circle cx="265.02" cy="517.50" r="3.2" fill="#1d4ed8"/>
<circle cx="267.24" cy="517.10" r="3.2" fill="#1d4ed8"/>
<circle cx="269.45" cy="516.69" r="3.2" fill="#1d4ed8"/>
<circle cx="271.67" cy="515.48" r="3.2" fill="#1d4ed8"/>
<circle cx="273.88" cy="515.07" r="3.2" fill="#1d4ed8"/>
<circle cx="276.10" cy="514.67" r="3.2" fill="#1d4ed8"/>
<circle cx="278.31" cy="513.86" r="3.2" fill="#1d4ed8"/>
<circle cx="280.53" cy="514.26" r="3.2" fill="#1d4ed8"/>
<circle cx="282.74" cy="512.24" r="3.2" fill="#1d4ed8"/>
<circle cx="284.96" cy="511.84" r="3.2" fill="#1d4ed8"/>
<circle cx="287.17" cy="511.84" r="3.2" fill="#1d4ed8"/>
<circle cx="289.39" cy="511.03" r="3.2" fill="#1d4ed8"/>
<circle cx="291.61" cy="509.82" r="3.2" fill="#1d4ed8"/>
<circle cx="293.82" cy="507.79" r="3.2" fill="#1d4ed8"/>
<circle cx="296.04" cy="506.99" r="3.2" fill="#1d4ed8"/>
<circle cx="298.25" cy="506.58" r="3.2" fill="#1d4ed8"/>
<circle cx="300.47" cy="509.41" r="3.2" fill="#1d4ed8"/>
<circle cx="302.68" cy="509.01" r="3.2" fill="#1d4ed8"/>
<circle cx="304.90" cy="504.96" r="3.2" fill="#1d4ed8"/>
<circle cx="307.11" cy="504.56" r="3.2" fill="#1d4ed8"/>
<circle cx="309.33" cy="504.15" r="3.2" fill="#1d4ed8"/>
<circle cx="311.54" cy="504.56" r="3.2" fill="#1d4ed8"/>
<circle cx="313.76" cy="503.75" r="3.2" fill="#1d4ed8"/>
<circle cx="315.98" cy="503.75" r="3.2" fill="#1d4ed8"/>
<circle cx="318.19" cy="503.35" r="3.2" fill="#1d4ed8"/>
<circle cx="320.41" cy="499.30" r="3.2" fill="#1d4ed8"/>
<circle cx="322.62" cy="496.47" r="3.2" fill="#1d4ed8"/>
<circle cx="324.84" cy="490.00" r="3.2" fill="#1d4ed8"/>
<circle cx="327.05" cy="484.34" r="3.2" fill="#1d4ed8"/>
<circle cx="329.27" cy="481.10" r="3.2" fill="#1d4ed8"/>
<circle cx="331.48" cy="480.29" r="3.2" fill="#1d4ed8"/>
<circle cx="333.70" cy="480.70" r="3.2" fill="#1d4ed8"/>
<circle cx="335.91" cy="460.88" r="3.2" fill="#1d4ed8"/>
<circle cx="338.13" cy="459.26" r="3.2" fill="#1d4ed8"/>
<circle cx="340.35" cy="458.05" r="3.2" fill="#1d4ed8"/>
<circle cx="342.56" cy="456.03" r="3.2" fill="#1d4ed8"/>
<circle cx="344.78" cy="456.03" r="3.2" fill="#1d4ed8"/>
<circle cx="346.99" cy="454.41" r="3.2" fill="#1d4ed8"/>
<circle cx="349.21" cy="450.77" r="3.2" fill="#1d4ed8"/>
<circle cx="351.42" cy="444.30" r="3.2" fill="#1d4ed8"/>
<circle cx="353.64" cy="443.90" r="3.2" fill="#1d4ed8"/>
<circle cx="355.85" cy="600.00" r="3.2" fill="#1d4ed8"/>
<circle cx="358.07" cy="441.88" r="3.2" fill="#1d4ed8"/>
<circle cx="360.28" cy="440.66" r="3.2" fill="#1d4ed8"/>
<circle cx="362.50" cy="439.45" r="3.2" fill="#1d4ed8"/>
<circle cx="364.72" cy="439.04" r="3.2" fill="#1d4ed8"/>
<circle cx="366.93" cy="438.64" r="3.2" fill="#1d4ed8"/>
<circle cx="369.15" cy="437.83" r="3.2" fill="#1d4ed8"/>
<circle cx="371.36" cy="436.62" r="3.2" fill="#1d4ed8"/>
<circle cx="373.58" cy="436.62" r="3.2" fill="#1d4ed8"/>
<circle cx="375.79" cy="434.60" r="3.2" fill="#1d4ed8"/>
<circle cx="378.01" cy="432.17" r="3.2" fill="#1d4ed8"/>
<circle cx="380.22" cy="429.34" r="3.2" fill="#1d4ed8"/>
<circle cx="382.44" cy="428.93" r="3.2" fill="#1d4ed8"/>
<circle cx="384.65" cy="428.53" r="3.2" fill="#1d4ed8"/>
<circle cx="386.87" cy="427.72" r="3.2" fill="#1d4ed8"/>
<circle cx="389.09" cy="426.91" r="3.2" fill="#1d4ed8"/>
<circle cx="391.30" cy="426.10" r="3.2" fill="#1d4ed8"/>
<circle cx="393.52" cy="426.10" r="3.2" fill="#1d4ed8"/>
<circle cx="395.73" cy="426.10" r="3.2" fill="#1d4ed8"/>
<circle cx="397.95" cy="419.63" r="3.2" fill="#1d4ed8"/>
<circle cx="400.16" cy="419.23" r="3.2" fill="#1d4ed8"/>
<circle cx="402.38" cy="418.42" r="3.2" fill="#1d4ed8"/>
<circle cx="404.59" cy="418.01" r="3.2" fill="#1d4ed8"/>
<circle cx="406.81" cy="417.61" r="3.2" fill="#1d4ed8"/>
<circle cx="409.02" cy="417.61" r="3.2" fill="#1d4ed8"/>
<circle cx="411.24" cy="417.61" r="3.2" fill="#1d4ed8"/>
<circle cx="413.46" cy="417.21" r="3.2" fill="#1d4ed8"/>
<circle cx="415.67" cy="417.21" r="3.2" fill="#1d4ed8"/>
<circle cx="417.89" cy="413.57" r="3.2" fill="#1d4ed8"/>
<circle cx="420.10" cy="411.95" r="3.2" fill="#1d4ed8"/>
<circle cx="422.32" cy="412.76" r="3.2" fill="#1d4ed8"/>
<circle cx="424.53" cy="410.74" r="3.2" fill="#1d4ed8"/>
<circle cx="426.75" cy="410.74" r="3.2" fill="#1d4ed8"/>
<circle cx="428.96" cy="410.33" r="3.2" fill="#1d4ed8"/>
<circle cx="431.18" cy="410.33" r="3.2" fill="#1d4ed8"/>
<circle cx="433.39" cy="410.33" r="3.2" fill="#1d4ed8"/>
<circle cx="435.61" cy="409.93" r="3.2" fill="#1d4ed8"/>
<circle cx="437.83" cy="409.93" r="3.2" fill="#1d4ed8"/>
<circle cx="440.04" cy="409.93" r="3.2" fill="#1d4ed8"/>
<circle cx="442.26" cy="409.52" r="3.2" fill="#1d4ed8"/>
<circle cx="444.47" cy="409.52" r="3.2" fill="#1d4ed8"/>
<circle cx="446.69" cy="409.12" r="3.2" fill="#1d4ed8"/>
<circle cx="448.90" cy="409.52" r="3.2" fill="#1d4ed8"/>
<circle cx="451.12" cy="409.12" r="3.2" fill="#1d4ed8"/>
<circle cx="453.33" cy="407.50" r="3.2" fill="#1d4ed8"/>
<circle cx="455.55" cy="407.10" r="3.2" fill="#1d4ed8"/>
<circle cx="457.76" cy="403.05" r="3.2" fill="#1d4ed8"/>
<circle cx="459.98" cy="399.82" r="3.2" fill="#1d4ed8"/>
<circle cx="462.20" cy="400.22" r="3.2" fill="#1d4ed8"/>
<circle cx="464.41" cy="400.62" r="3.2" fill="#1d4ed8"/>
<circle cx="466.63" cy="400.62" r="3.2" fill="#1d4ed8"/>
<circle cx="468.84" cy="399.41" r="3.2" fill="#1d4ed8"/>
<circle cx="471.06" cy="392.94" r="3.2" fill="#1d4ed8"/>
<circle cx="473.27" cy="391.32" r="3.2" fill="#1d4ed8"/>
<circle cx="475.49" cy="389.30" r="3.2" fill="#1d4ed8"/>
<circle cx="477.70" cy="389.30" r="3.2" fill="#1d4ed8"/>
<circle cx="479.92" cy="388.49" r="3.2" fill="#1d4ed8"/>
<circle cx="482.13" cy="375.15" r="3.2" fill="#1d4ed8"/>
<circle cx="484.35" cy="374.74" r="3.2" fill="#1d4ed8"/>
<circle cx="486.57" cy="374.74" r="3.2" fill="#1d4ed8"/>
<circle cx="488.78" cy="374.74" r="3.2" fill="#1d4ed8"/>
<circle cx="491.00" cy="374.74" r="3.2" fill="#1d4ed8"/>
<circle cx="493.21" cy="374.34" r="3.2" fill="#1d4ed8"/>
<circle cx="495.43" cy="374.34" r="3.2" fill="#1d4ed8"/>
<circle cx="497.64" cy="374.34" r="3.2" fill="#1d4ed8"/>
<circle cx="499.86" cy="374.34" r="3.2" fill="#1d4ed8"/>
<circle cx="502.07" cy="374.34" r="3.2" fill="#1d4ed8"/>
<circle cx="504.29" cy="373.93" r="3.2" fill="#1d4ed8"/>
<circle cx="506.50" cy="373.12" r="3.2" fill="#1d4ed8"/>
<circle cx="508.72" cy="372.72" r="3.2" fill="#1d4ed8"/>
<circle cx="510.93" cy="373.53" r="3.2" fill="#1d4ed8"/>
<circle cx="513.15" cy="435.81" r="3.2" fill="#1d4ed8"/>
<circle cx="515.37" cy="372.32" r="3.2" fill="#1d4ed8"/>
<circle cx="517.58" cy="372.72" r="3.2" fill="#1d4ed8"/>
<circle cx="519.80" cy="371.91" r="3.2" fill="#1d4ed8"/>
<circle cx="522.01" cy="371.91" r="3.2" fill="#1d4ed8"/>
<circle cx="524.23" cy="372.32" r="3.2" fill="#1d4ed8"/>
<circle cx="526.44" cy="371.10" r="3.2" fill="#1d4ed8"/>
<circle cx="528.66" cy="369.89" r="3.2" fill="#1d4ed8"/>
<circle cx="530.87" cy="369.89" r="3.2" fill="#1d4ed8"/>
<circle cx="533.09" cy="369.89" r="3.2" fill="#1d4ed8"/>
<circle cx="535.30" cy="369.49" r="3.2" fill="#1d4ed8"/>
<circle cx="537.52" cy="369.89" r="3.2" fill="#1d4ed8"/>
<circle cx="539.74" cy="369.08" r="3.2" fill="#1d4ed8"/>
<circle cx="541.95" cy="368.68" r="3.2" fill="#1d4ed8"/>
<circle cx="544.17" cy="368.27" r="3.2" fill="#1d4ed8"/>
<circle cx="546.38" cy="367.87" r="3.2" fill="#1d4ed8"/>
<circle cx="548.60" cy="367.06" r="3.2" fill="#1d4ed8"/>
<circle cx="550.81" cy="367.46" r="3.2" fill="#1d4ed8"/>
<circle cx="553.03" cy="367.06" r="3.2" fill="#1d4ed8"/>
<circle cx="555.24" cy="366.25" r="3.2" fill="#1d4ed8"/>
<circle cx="557.46" cy="368.27" r="3.2" fill="#1d4ed8"/>
<circle cx="559.67" cy="368.68" r="3.2" fill="#1d4ed8"/>
<circle cx="561.89" cy="368.68" r="3.2" fill="#1d4ed8"/>
<circle cx="564.11" cy="368.27" r="3.2" fill="#1d4ed8"/>
<circle cx="566.32" cy="369.08" r="3.2" fill="#1d4ed8"/>
<circle cx="568.54" cy="367.87" r="3.2" fill="#1d4ed8"/>
<circle cx="570.75" cy="367.46" r="3.2" fill="#1d4ed8"/>
<circle cx="572.97" cy="367.06" r="3.2" fill="#1d4ed8"/>
<circle cx="575.18" cy="360.18" r="3.2" fill="#1d4ed8"/>
<circle cx="577.40" cy="359.78" r="3.2" fill="#1d4ed8"/>
<circle cx="579.61" cy="359.38" r="3.2" fill="#1d4ed8"/>
<circle cx="581.83" cy="356.95" r="3.2" fill="#1d4ed8"/>
<circle cx="584.04" cy="357.35" r="3.2" fill="#1d4ed8"/>
<circle cx="586.26" cy="357.76" r="3.2" fill="#1d4ed8"/>
<circle cx="588.48" cy="355.33" r="3.2" fill="#1d4ed8"/>
<circle cx="590.69" cy="355.74" r="3.2" fill="#1d4ed8"/>
<circle cx="592.91" cy="357.35" r="3.2" fill="#1d4ed8"/>
<circle cx="595.12" cy="355.33" r="3.2" fill="#1d4ed8"/>
<circle cx="597.34" cy="356.14" r="3.2" fill="#1d4ed8"/>
<circle cx="599.55" cy="355.74" r="3.2" fill="#1d4ed8"/>
<circle cx="601.77" cy="356.14" r="3.2" fill="#1d4ed8"/>
<circle cx="603.98" cy="354.12" r="3.2" fill="#1d4ed8"/>
<circle cx="606.20" cy="354.93" r="3.2" fill="#1d4ed8"/>
<circle cx="608.41" cy="356.14" r="3.2" fill="#1d4ed8"/>
<circle cx="610.63" cy="354.52" r="3.2" fill="#1d4ed8"/>
<circle cx="612.85" cy="353.71" r="3.2" fill="#1d4ed8"/>
<circle cx="615.06" cy="354.12" r="3.2" fill="#1d4ed8"/>
<circle cx="617.28" cy="354.93" r="3.2" fill="#1d4ed8"/>
<circle cx="619.49" cy="352.90" r="3.2" fill="#1d4ed8"/>
<circle cx="621.71" cy="353.71" r="3.2" fill="#1d4ed8"/>
<circle cx="623.92" cy="353.31" r="3.2" fill="#1d4ed8"/>
<circle cx="626.14" cy="353.31" r="3.2" fill="#1d4ed8"/>
<circle cx="628.35" cy="354.52" r="3.2" fill="#1d4ed8"/>
<circle cx="630.57" cy="352.90" r="3.2" fill="#1d4ed8"/>
<circle cx="632.78" cy="352.50" r="3.2" fill="#1d4ed8"/>
<circle cx="635.00" cy="352.50" r="3.2" fill="#1d4ed8"/>
<circle cx="637.22" cy="353.31" r="3.2" fill="#1d4ed8"/>
<circle cx="639.43" cy="352.50" r="3.2" fill="#1d4ed8"/>
<circle cx="641.65" cy="353.71" r="3.2" fill="#1d4ed8"/>
<circle cx="643.86" cy="354.12" r="3.2" fill="#1d4ed8"/>
<circle cx="646.08" cy="352.50" r="3.2" fill="#1d4ed8"/>
<circle cx="648.29" cy="352.90" r="3.2" fill="#1d4ed8"/>
<circle cx="650.51" cy="352.50" r="3.2" fill="#1d4ed8"/>
<circle cx="652.72" cy="352.10" r="3.2" fill="#1d4ed8"/>
<circle cx="654.94" cy="351.69" r="3.2" fill="#1d4ed8"/>
<circle cx="657.15" cy="352.10" r="3.2" fill="#1d4ed8"/>
<circle cx="659.37" cy="354.12" r="3.2" fill="#1d4ed8"/>
<circle cx="661.59" cy="352.50" r="3.2" fill="#1d4ed8"/>
<circle cx="663.80" cy="352.10" r="3.2" fill="#1d4ed8"/>
<circle cx="666.02" cy="352.10" r="3.2" fill="#1d4ed8"/>
<circle cx="668.23" cy="349.67" r="3.2" fill="#1d4ed8"/>
<circle cx="670.45" cy="349.67" r="3.2" fill="#1d4ed8"/>
<circle cx="672.66" cy="350.88" r="3.2" fill="#1d4ed8"/>
<circle cx="674.88" cy="351.29" r="3.2" fill="#1d4ed8"/>
<circle cx="677.09" cy="350.48" r="3.2" fill="#1d4ed8"/>
<circle cx="679.31" cy="352.10" r="3.2" fill="#1d4ed8"/>
<circle cx="681.52" cy="350.48" r="3.2" fill="#1d4ed8"/>
<circle cx="683.74" cy="350.48" r="3.2" fill="#1d4ed8"/>
<circle cx="685.96" cy="350.48" r="3.2" fill="#1d4ed8"/>
<circle cx="688.17" cy="350.07" r="3.2" fill="#1d4ed8"/>
<circle cx="690.39" cy="348.46" r="3.2" fill="#1d4ed8"/>
<circle cx="692.60" cy="351.29" r="3.2" fill="#1d4ed8"/>
<circle cx="694.82" cy="349.67" r="3.2" fill="#1d4ed8"/>
<circle cx="697.03" cy="351.29" r="3.2" fill="#1d4ed8"/>
<circle cx="699.25" cy="349.67" r="3.2" fill="#1d4ed8"/>
<circle cx="701.46" cy="348.86" r="3.2" fill="#1d4ed8"/>
<circle cx="703.68" cy="348.46" r="3.2" fill="#1d4ed8"/>
<circle cx="705.89" cy="348.46" r="3.2" fill="#1d4ed8"/>
<circle cx="708.11" cy="347.24" r="3.2" fill="#1d4ed8"/>
<circle cx="710.33" cy="348.86" r="3.2" fill="#1d4ed8"/>
<circle cx="712.54" cy="346.84" r="3.2" fill="#1d4ed8"/>
<circle cx="714.76" cy="348.46" r="3.2" fill="#1d4ed8"/>
<circle cx="716.97" cy="348.86" r="3.2" fill="#1d4ed8"/>
<circle cx="719.19" cy="346.84" r="3.2" fill="#1d4ed8"/>
<circle cx="721.40" cy="349.26" r="3.2" fill="#1d4ed8"/>
<circle cx="723.62" cy="348.05" r="3.2" fill="#1d4ed8"/>
<circle cx="725.83" cy="349.26" r="3.2" fill="#1d4ed8"/>
<circle cx="728.05" cy="349.26" r="3.2" fill="#1d4ed8"/>
<circle cx="730.26" cy="350.48" r="3.2" fill="#1d4ed8"/>
<circle cx="732.48" cy="352.90" r="3.2" fill="#1d4ed8"/>
<circle cx="734.70" cy="349.67" r="3.2" fill="#1d4ed8"/>
<circle cx="736.91" cy="348.46" r="3.2" fill="#1d4ed8"/>
<circle cx="739.13" cy="345.62" r="3.2" fill="#1d4ed8"/>
<circle cx="741.34" cy="344.82" r="3.2" fill="#1d4ed8"/>
<circle cx="743.56" cy="344.41" r="3.2" fill="#1d4ed8"/>
<circle cx="745.77" cy="342.39" r="3.2" fill="#1d4ed8"/>
<circle cx="747.99" cy="341.18" r="3.2" fill="#1d4ed8"/>
<circle cx="750.20" cy="341.58" r="3.2" fill="#1d4ed8"/>
<circle cx="752.42" cy="339.15" r="3.2" fill="#1d4ed8"/>
<circle cx="754.63" cy="338.35" r="3.2" fill="#1d4ed8"/>
<circle cx="756.85" cy="337.54" r="3.2" fill="#1d4ed8"/>
<circle cx="759.07" cy="336.73" r="3.2" fill="#1d4ed8"/>
<circle cx="761.28" cy="335.92" r="3.2" fill="#1d4ed8"/>
<circle cx="763.50" cy="337.54" r="3.2" fill="#1d4ed8"/>
<circle cx="765.71" cy="338.35" r="3.2" fill="#1d4ed8"/>
<circle cx="767.93" cy="337.54" r="3.2" fill="#1d4ed8"/>
<circle cx="770.14" cy="337.54" r="3.2" fill="#1d4ed8"/>
<circle cx="772.36" cy="337.54" r="3.2" fill="#1d4ed8"/>
<circle cx="774.57" cy="333.09" r="3.2" fill="#1d4ed8"/>
<circle cx="776.79" cy="333.90" r="3.2" fill="#1d4ed8"/>
<circle cx="779.00" cy="335.92" r="3.2" fill="#1d4ed8"/>
<circle cx="781.22" cy="336.73" r="3.2" fill="#1d4ed8"/>
<circle cx="783.43" cy="335.51" r="3.2" fill="#1d4ed8"/>
<circle cx="785.65" cy="332.28" r="3.2" fill="#1d4ed8"/>
<circle cx="787.87" cy="331.47" r="3.2" fill="#1d4ed8"/>
<circle cx="790.08" cy="331.07" r="3.2" fill="#1d4ed8"/>
<circle cx="792.30" cy="331.47" r="3.2" fill="#1d4ed8"/>
<circle cx="794.51" cy="331.07" r="3.2" fill="#1d4ed8"/>
<circle cx="796.73" cy="331.07" r="3.2" fill="#1d4ed8"/>
<circle cx="798.94" cy="331.07" r="3.2" fill="#1d4ed8"/>
<circle cx="801.16" cy="331.07" r="3.2" fill="#1d4ed8"/>
<circle cx="803.37" cy="331.07" r="3.2" fill="#1d4ed8"/>
<circle cx="805.59" cy="331.07" r="3.2" fill="#1d4ed8"/>
<circle cx="807.80" cy="331.07" r="3.2" fill="#1d4ed8"/>
<circle cx="810.02" cy="331.07" r="3.2" fill="#1d4ed8"/>
<circle cx="812.24" cy="331.07" r="3.2" fill="#1d4ed8"/>
<circle cx="814.45" cy="331.07" r="3.2" fill="#1d4ed8"/>
<circle cx="816.67" cy="331.47" r="3.2" fill="#1d4ed8"/>
<circle cx="818.88" cy="331.88" r="3.2" fill="#1d4ed8"/>
<circle cx="821.10" cy="331.07" r="3.2" fill="#1d4ed8"/>
<circle cx="823.31" cy="331.47" r="3.2" fill="#1d4ed8"/>
<circle cx="825.53" cy="331.07" r="3.2" fill="#1d4ed8"/>
<circle cx="827.74" cy="331.47" r="3.2" fill="#1d4ed8"/>
<circle cx="829.96" cy="331.07" r="3.2" fill="#1d4ed8"/>
<circle cx="832.17" cy="324.19" r="3.2" fill="#1d4ed8"/>
<circle cx="834.39" cy="324.19" r="3.2" fill="#1d4ed8"/>
<circle cx="836.61" cy="318.93" r="3.2" fill="#1d4ed8"/>
<circle cx="838.82" cy="316.51" r="3.2" fill="#1d4ed8"/>
<circle cx="841.04" cy="310.44" r="3.2" fill="#1d4ed8"/>
<circle cx="843.25" cy="308.01" r="3.2" fill="#1d4ed8"/>
<circle cx="845.47" cy="600.00" r="3.2" fill="#1d4ed8"/>
<circle cx="847.68" cy="301.54" r="3.2" fill="#1d4ed8"/>
<circle cx="849.90" cy="290.22" r="3.2" fill="#1d4ed8"/>
<circle cx="852.11" cy="287.79" r="3.2" fill="#1d4ed8"/>
<circle cx="854.33" cy="286.18" r="3.2" fill="#1d4ed8"/>
<circle cx="856.54" cy="285.77" r="3.2" fill="#1d4ed8"/>
<circle cx="858.76" cy="285.77" r="3.2" fill="#1d4ed8"/>
<circle cx="860.98" cy="285.77" r="3.2" fill="#1d4ed8"/>
<circle cx="863.19" cy="286.18" r="3.2" fill="#1d4ed8"/>
<circle cx="865.41" cy="285.77" r="3.2" fill="#1d4ed8"/>
<circle cx="867.62" cy="285.77" r="3.2" fill="#1d4ed8"/>
<circle cx="869.84" cy="285.77" r="3.2" fill="#1d4ed8"/>
<circle cx="872.05" cy="283.35" r="3.2" fill="#1d4ed8"/>
<circle cx="874.27" cy="282.94" r="3.2" fill="#1d4ed8"/>
<circle cx="876.48" cy="282.94" r="3.2" fill="#1d4ed8"/>
<circle cx="878.70" cy="283.35" r="3.2" fill="#1d4ed8"/>
<circle cx="880.91" cy="282.94" r="3.2" fill="#1d4ed8"/>
<circle cx="883.13" cy="282.94" r="3.2" fill="#1d4ed8"/>
<circle cx="885.35" cy="283.75" r="3.2" fill="#1d4ed8"/>
<circle cx="887.56" cy="282.13" r="3.2" fill="#1d4ed8"/>
<circle cx="889.78" cy="282.13" r="3.2" fill="#1d4ed8"/>
<circle cx="891.99" cy="282.54" r="3.2" fill="#1d4ed8"/>
<circle cx="894.21" cy="282.13" r="3.2" fill="#1d4ed8"/>
<circle cx="896.42" cy="282.54" r="3.2" fill="#1d4ed8"/>
<circle cx="898.64" cy="282.94" r="3.2" fill="#1d4ed8"/>
<circle cx="900.85" cy="281.73" r="3.2" fill="#1d4ed8"/>
<circle cx="903.07" cy="282.54" r="3.2" fill="#1d4ed8"/>
<circle cx="905.28" cy="281.73" r="3.2" fill="#1d4ed8"/>
<circle cx="907.50" cy="282.54" r="3.2" fill="#1d4ed8"/>
<circle cx="909.72" cy="282.13" r="3.2" fill="#1d4ed8"/>
<circle cx="911.93" cy="282.13" r="3.2" fill="#1d4ed8"/>
<circle cx="914.15" cy="281.73" r="3.2" fill="#1d4ed8"/>
<circle cx="916.36" cy="281.73" r="3.2" fill="#1d4ed8"/>
<circle cx="918.58" cy="281.32" r="3.2" fill="#1d4ed8"/>
<circle cx="920.79" cy="281.73" r="3.2" fill="#1d4ed8"/>
<circle cx="923.01" cy="282.13" r="3.2" fill="#1d4ed8"/>
<circle cx="925.22" cy="281.32" r="3.2" fill="#1d4ed8"/>
<circle cx="927.44" cy="281.32" r="3.2" fill="#1d4ed8"/>
<circle cx="929.65" cy="282.54" r="3.2" fill="#1d4ed8"/>
<circle cx="931.87" cy="282.13" r="3.2" fill="#1d4ed8"/>
<circle cx="934.09" cy="281.32" r="3.2" fill="#1d4ed8"/>
<circle cx="936.30" cy="281.32" r="3.2" fill="#1d4ed8"/>
<circle cx="938.52" cy="281.32" r="3.2" fill="#1d4ed8"/>
<circle cx="940.73" cy="282.54" r="3.2" fill="#1d4ed8"/>
<circle cx="942.95" cy="282.13" r="3.2" fill="#1d4ed8"/>
<circle cx="945.16" cy="281.32" r="3.2" fill="#1d4ed8"/>
<circle cx="947.38" cy="282.13" r="3.2" fill="#1d4ed8"/>
<circle cx="949.59" cy="281.73" r="3.2" fill="#1d4ed8"/>
<circle cx="951.81" cy="282.13" r="3.2" fill="#1d4ed8"/>
<circle cx="954.02" cy="280.11" r="3.2" fill="#1d4ed8"/>
<circle cx="956.24" cy="280.11" r="3.2" fill="#1d4ed8"/>
<circle cx="958.46" cy="280.51" r="3.2" fill="#1d4ed8"/>
<circle cx="960.67" cy="279.71" r="3.2" fill="#1d4ed8"/>
<circle cx="962.89" cy="280.11" r="3.2" fill="#1d4ed8"/>
<circle cx="965.10" cy="280.51" r="3.2" fill="#1d4ed8"/>
<circle cx="967.32" cy="279.71" r="3.2" fill="#1d4ed8"/>
<circle cx="969.53" cy="280.11" r="3.2" fill="#1d4ed8"/>
<circle cx="971.75" cy="280.11" r="3.2" fill="#1d4ed8"/>
<circle cx="973.96" cy="279.30" r="3.2" fill="#1d4ed8"/>
<circle cx="976.18" cy="278.90" r="3.2" fill="#1d4ed8"/>
<circle cx="978.39" cy="278.90" r="3.2" fill="#1d4ed8"/>
<circle cx="980.61" cy="280.51" r="3.2" fill="#1d4ed8"/>
<circle cx="982.83" cy="279.30" r="3.2" fill="#1d4ed8"/>
<circle cx="985.04" cy="278.09" r="3.2" fill="#1d4ed8"/>
<circle cx="987.26" cy="278.49" r="3.2" fill="#1d4ed8"/>
<circle cx="989.47" cy="278.49" r="3.2" fill="#1d4ed8"/>
<circle cx="991.69" cy="277.28" r="3.2" fill="#1d4ed8"/>
<circle cx="993.90" cy="277.68" r="3.2" fill="#1d4ed8"/>
<circle cx="996.12" cy="277.68" r="3.2" fill="#1d4ed8"/>
<circle cx="998.33" cy="278.09" r="3.2" fill="#1d4ed8"/>
<circle cx="1000.55" cy="277.28" r="3.2" fill="#1d4ed8"/>
<circle cx="1002.76" cy="600.00" r="3.2" fill="#1d4ed8"/>
<circle cx="1004.98" cy="278.90" r="3.2" fill="#1d4ed8"/>
<circle cx="1007.20" cy="279.30" r="3.2" fill="#1d4ed8"/>
<circle cx="1009.41" cy="278.90" r="3.2" fill="#1d4ed8"/>
<circle cx="1011.63" cy="278.49" r="3.2" fill="#1d4ed8"/>
<circle cx="1013.84" cy="278.49" r="3.2" fill="#1d4ed8"/>
<circle cx="1016.06" cy="278.49" r="3.2" fill="#1d4ed8"/>
<circle cx="1018.27" cy="278.49" r="3.2" fill="#1d4ed8"/>
<circle cx="1020.49" cy="278.49" r="3.2" fill="#1d4ed8"/>
<circle cx="1022.70" cy="278.49" r="3.2" fill="#1d4ed8"/>
<circle cx="1024.92" cy="278.49" r="3.2" fill="#1d4ed8"/>
<circle cx="1027.13" cy="278.49" r="3.2" fill="#1d4ed8"/>
<circle cx="1029.35" cy="278.49" r="3.2" fill="#1d4ed8"/>
<circle cx="1031.57" cy="278.49" r="3.2" fill="#1d4ed8"/>
<circle cx="1033.78" cy="278.49" r="3.2" fill="#1d4ed8"/>
<circle cx="1036.00" cy="278.49" r="3.2" fill="#1d4ed8"/>
<circle cx="1038.21" cy="600.00" r="3.2" fill="#1d4ed8"/>
<circle cx="1040.43" cy="600.00" r="3.2" fill="#1d4ed8"/>
<circle cx="1042.64" cy="254.63" r="3.2" fill="#1d4ed8"/>
<circle cx="1044.86" cy="600.00" r="3.2" fill="#1d4ed8"/>
<circle cx="1047.07" cy="245.74" r="3.2" fill="#1d4ed8"/>
<circle cx="1049.29" cy="245.74" r="3.2" fill="#1d4ed8"/>
<circle cx="1051.50" cy="246.14" r="3.2" fill="#1d4ed8"/>
<circle cx="1053.72" cy="245.74" r="3.2" fill="#1d4ed8"/>
<circle cx="1055.93" cy="245.74" r="3.2" fill="#1d4ed8"/>
<circle cx="1058.15" cy="245.74" r="3.2" fill="#1d4ed8"/>
<circle cx="1060.37" cy="245.74" r="3.2" fill="#1d4ed8"/>
<circle cx="1062.58" cy="245.74" r="3.2" fill="#1d4ed8"/>
<circle cx="1064.80" cy="240.07" r="3.2" fill="#1d4ed8"/>
<circle cx="1067.01" cy="238.05" r="3.2" fill="#1d4ed8"/>
<circle cx="1069.23" cy="238.05" r="3.2" fill="#1d4ed8"/>
<circle cx="1071.44" cy="227.13" r="3.2" fill="#1d4ed8"/>
<circle cx="1073.66" cy="227.13" r="3.2" fill="#1d4ed8"/>
<circle cx="1075.87" cy="226.32" r="3.2" fill="#1d4ed8"/>
<circle cx="1078.09" cy="227.54" r="3.2" fill="#1d4ed8"/>
<circle cx="1080.30" cy="226.73" r="3.2" fill="#1d4ed8"/>
<circle cx="1082.52" cy="226.32" r="3.2" fill="#1d4ed8"/>
<circle cx="1084.74" cy="227.13" r="3.2" fill="#1d4ed8"/>
<circle cx="1086.95" cy="227.13" r="3.2" fill="#1d4ed8"/>
<circle cx="1089.17" cy="226.73" r="3.2" fill="#1d4ed8"/>
<circle cx="1091.38" cy="226.32" r="3.2" fill="#1d4ed8"/>
<circle cx="1093.60" cy="226.73" r="3.2" fill="#1d4ed8"/>
<circle cx="1095.81" cy="226.73" r="3.2" fill="#1d4ed8"/>
<circle cx="1098.03" cy="226.73" r="3.2" fill="#1d4ed8"/>
<circle cx="1100.24" cy="225.11" r="3.2" fill="#1d4ed8"/>
<circle cx="1102.46" cy="224.71" r="3.2" fill="#1d4ed8"/>
<circle cx="1104.67" cy="225.11" r="3.2" fill="#1d4ed8"/>
<circle cx="1106.89" cy="224.30" r="3.2" fill="#1d4ed8"/>
<circle cx="1109.11" cy="226.32" r="3.2" fill="#1d4ed8"/>
<circle cx="1111.32" cy="224.30" r="3.2" fill="#1d4ed8"/>
<circle cx="1113.54" cy="225.51" r="3.2" fill="#1d4ed8"/>
<circle cx="1115.75" cy="225.51" r="3.2" fill="#1d4ed8"/>
<circle cx="1117.97" cy="225.51" r="3.2" fill="#1d4ed8"/>
<circle cx="1120.18" cy="225.92" r="3.2" fill="#1d4ed8"/>
<circle cx="1122.40" cy="223.09" r="3.2" fill="#1d4ed8"/>
<circle cx="1124.61" cy="223.49" r="3.2" fill="#1d4ed8"/>
<circle cx="1126.83" cy="223.09" r="3.2" fill="#1d4ed8"/>
<circle cx="1129.04" cy="223.09" r="3.2" fill="#1d4ed8"/>
<circle cx="1131.26" cy="223.90" r="3.2" fill="#1d4ed8"/>
<circle cx="1133.48" cy="223.49" r="3.2" fill="#1d4ed8"/>
<circle cx="1135.69" cy="223.49" r="3.2" fill="#1d4ed8"/>
<circle cx="1137.91" cy="223.09" r="3.2" fill="#1d4ed8"/>
<circle cx="1140.12" cy="223.09" r="3.2" fill="#1d4ed8"/>
<circle cx="1142.34" cy="223.49" r="3.2" fill="#1d4ed8"/>
<circle cx="1144.55" cy="223.09" r="3.2" fill="#1d4ed8"/>
<circle cx="1146.77" cy="223.09" r="3.2" fill="#1d4ed8"/>
<circle cx="1148.98" cy="223.49" r="3.2" fill="#1d4ed8"/>
<circle cx="1151.20" cy="223.49" r="3.2" fill="#1d4ed8"/>
<circle cx="1153.41" cy="223.09" r="3.2" fill="#1d4ed8"/>
<circle cx="1155.63" cy="223.09" r="3.2" fill="#1d4ed8"/>
<circle cx="1157.85" cy="223.49" r="3.2" fill="#1d4ed8"/>
<circle cx="1160.06" cy="223.09" r="3.2" fill="#1d4ed8"/>
<circle cx="1162.28" cy="223.09" r="3.2" fill="#1d4ed8"/>
<circle cx="1164.49" cy="223.09" r="3.2" fill="#1d4ed8"/>
<circle cx="1166.71" cy="223.49" r="3.2" fill="#1d4ed8"/>
<circle cx="1168.92" cy="223.49" r="3.2" fill="#1d4ed8"/>
<circle cx="1171.14" cy="223.49" r="3.2" fill="#1d4ed8"/>
<circle cx="1173.35" cy="223.09" r="3.2" fill="#1d4ed8"/>
<circle cx="1175.57" cy="223.49" r="3.2" fill="#1d4ed8"/>
<circle cx="1177.78" cy="223.09" r="3.2" fill="#1d4ed8"/>
<circle cx="1180.00" cy="223.09" r="3.2" fill="#1d4ed8"/>
<text x="635" y="695" text-anchor="middle" font-size="14" fill="#111" font-family="sans-serif">Date</text>
<text x="24" y="325" text-anchor="middle" font-size="14" fill="#111" transform="rotate(-90 24,325)" font-family="sans-serif">Passed files</text>
</svg>
