<?xml version="1.0" encoding="UTF-8"?>
<svg xmlns="http://www.w3.org/2000/svg" width="1280" height="720" viewBox="0 0 1280 720">
<rect width="100%" height="100%" fill="#ffffff"/>
<text x="640" y="30" text-anchor="middle" font-size="22" font-family="sans-serif">Roast passed files history</text>
<line x1="90" y1="600" x2="1180" y2="600" stroke="#333" stroke-width="1.5"/>
<line x1="90" y1="50" x2="90" y2="600" stroke="#333" stroke-width="1.5"/>
<line x1="90" y1="600.00" x2="1180" y2="600.00" stroke="#e5e7eb" stroke-width="1"/>
<text x="78" y="605.00" text-anchor="end" font-size="12" fill="#111" font-family="sans-serif">0</text>
<line x1="90" y1="397.79" x2="1180" y2="397.79" stroke="#e5e7eb" stroke-width="1"/>
<text x="78" y="402.79" text-anchor="end" font-size="12" fill="#111" font-family="sans-serif">500</text>
<line x1="90" y1="195.59" x2="1180" y2="195.59" stroke="#e5e7eb" stroke-width="1"/>
<text x="78" y="200.59" text-anchor="end" font-size="12" fill="#111" font-family="sans-serif">1000</text>
<line x1="90.00" y1="600" x2="90.00" y2="606" stroke="#333" stroke-width="1"/>
<text x="90.00" y="624" text-anchor="end" font-size="11" fill="#111" transform="rotate(-40 90.00,624)" font-family="sans-serif">2026-02-12</text>
<line x1="225.96" y1="600" x2="225.96" y2="606" stroke="#333" stroke-width="1"/>
<text x="225.96" y="624" text-anchor="end" font-size="11" fill="#111" transform="rotate(-40 225.96,624)" font-family="sans-serif">2026-02-18</text>
<line x1="361.92" y1="600" x2="361.92" y2="606" stroke="#333" stroke-width="1"/>
<text x="361.92" y="624" text-anchor="end" font-size="11" fill="#111" transform="rotate(-40 361.92,624)" font-family="sans-serif">2026-02-25</text>
<line x1="497.89" y1="600" x2="497.89" y2="606" stroke="#333" stroke-width="1"/>
<text x="497.89" y="624" text-anchor="end" font-size="11" fill="#111" transform="rotate(-40 497.89,624)" font-family="sans-serif">2026-02-28</text>
<line x1="633.85" y1="600" x2="633.85" y2="606" stroke="#333" stroke-width="1"/>
<text x="633.85" y="624" text-anchor="end" font-size="11" fill="#111" transform="rotate(-40 633.85,624)" font-family="sans-serif">2026-03-06</text>
<line x1="769.81" y1="600" x2="769.81" y2="606" stroke="#333" stroke-width="1"/>
<text x="769.81" y="624" text-anchor="end" font-size="11" fill="#111" transform="rotate(-40 769.81,624)" font-family="sans-serif">2026-03-08</text>
<line x1="905.77" y1="600" x2="905.77" y2="606" stroke="#333" stroke-width="1"/>
<text x="905.77" y="624" text-anchor="end" font-size="11" fill="#111" transform="rotate(-40 905.77,624)" font-family="sans-serif">2026-03-18</text>
<line x1="1041.73" y1="600" x2="1041.73" y2="606" stroke="#333" stroke-width="1"/>
<text x="1041.73" y="624" text-anchor="end" font-size="11" fill="#111" transform="rotate(-40 1041.73,624)" font-family="sans-serif">2026-03-20</text>
<line x1="1177.70" y1="600" x2="1177.70" y2="606" stroke="#333" stroke-width="1"/>
<text x="1177.70" y="624" text-anchor="end" font-size="11" fill="#111" transform="rotate(-40 1177.70,624)" font-family="sans-serif">2026-03-30</text>
<line x1="1180.00" y1="600" x2="1180.00" y2="606" stroke="#333" stroke-width="1"/>
<text x="1180.00" y="624" text-anchor="end" font-size="11" fill="#111" transform="rotate(-40 1180.00,624)" font-family="sans-serif">2026-03-30</text>
<line x1="90" y1="75.88" x2="1180" y2="75.88" stroke="#dc2626" stroke-width="1.5" stroke-dasharray="8,4"/>
<text x="1184" y="79.88" font-size="12" fill="#dc2626" font-family="sans-serif">Goal: 1296</text>
<polyline fill="none" stroke="#2563eb" stroke-width="3" points="90.00,540.55 92.30,538.53 94.61,536.91 96.91,534.49 99.22,534.49 101.52,533.27 103.83,532.46 106.13,532.87 108.44,532.06 110.74,532.46 113.04,532.06 115.35,568.46 117.65,568.46 119.96,566.43 122.26,545.00 124.57,545.00 126.87,544.19 129.18,543.79 131.48,543.79 133.78,543.38 136.09,541.76 138.39,541.36 140.70,540.96 143.00,540.96 145.31,539.34 147.61,539.34 149.92,556.73 152.22,556.73 154.52,555.51 156.83,551.07 159.13,538.93 161.44,538.93 163.74,538.93 166.05,538.12 168.35,536.91 170.66,536.91 172.96,536.51 175.26,536.51 177.57,556.73 179.87,556.73 182.18,556.73 184.48,556.73 186.79,535.29 189.09,535.29 191.40,535.29 193.70,535.29 196.00,534.49 198.31,534.08 200.61,533.68 202.92,532.87 205.22,532.06 207.53,532.06 209.83,531.25 212.14,530.85 214.44,530.44 216.74,530.04 219.05,530.04 221.35,529.23 223.66,529.23 225.96,529.23 228.27,528.42 230.57,528.42 232.88,527.61 235.18,527.21 237.48,526.80 239.79,526.40 242.09,525.18 244.40,523.57 246.70,523.57 249.01,523.16 251.31,522.76 253.62,522.35 255.92,521.54 258.22,519.52 260.53,517.50 262.83,517.50 265.14,517.50 267.44,517.50 269.75,517.50 272.05,517.50 274.36,517.10 276.66,516.69 278.96,515.48 281.27,515.07 283.57,514.67 285.88,513.86 288.18,514.26 290.49,512.24 292.79,511.84 295.10,511.84 297.40,511.03 299.70,509.82 302.01,507.79 304.31,506.99 306.62,506.58 308.92,509.41 311.23,509.01 313.53,504.96 315.84,504.56 318.14,504.15 320.44,504.56 322.75,503.75 325.05,503.75 327.36,503.35 329.66,499.30 331.97,496.47 334.27,490.00 336.58,484.34 338.88,481.10 341.18,480.29 343.49,480.70 345.79,460.88 348.10,459.26 350.40,458.05 352.71,456.03 355.01,456.03 357.32,454.41 359.62,450.77 361.92,444.30 364.23,443.90 366.53,600.00 368.84,441.88 371.14,440.66 373.45,439.45 375.75,439.04 378.05,438.64 380.36,437.83 382.66,436.62 384.97,436.62 387.27,434.60 389.58,432.17 391.88,429.34 394.19,428.93 396.49,428.53 398.79,427.72 401.10,426.91 403.40,426.10 405.71,426.10 408.01,426.10 410.32,419.63 412.62,419.23 414.93,418.42 417.23,418.01 419.53,417.61 421.84,417.61 424.14,417.61 426.45,417.21 428.75,417.21 431.06,413.57 433.36,411.95 435.67,412.76 437.97,410.74 440.27,410.74 442.58,410.33 444.88,410.33 447.19,410.33 449.49,409.93 451.80,409.93 454.10,409.93 456.41,409.52 458.71,409.52 461.01,409.12 463.32,409.52 465.62,409.12 467.93,407.50 470.23,407.10 472.54,403.05 474.84,399.82 477.15,400.22 479.45,400.62 481.75,400.62 484.06,399.41 486.36,392.94 488.67,391.32 490.97,389.30 493.28,389.30 495.58,388.49 497.89,375.15 500.19,374.74 502.49,374.74 504.80,374.74 507.10,374.74 509.41,374.34 511.71,374.34 514.02,374.34 516.32,374.34 518.63,374.34 520.93,373.93 523.23,373.12 525.54,372.72 527.84,373.53 530.15,435.81 532.45,372.32 534.76,372.72 537.06,371.91 539.37,371.91 541.67,372.32 543.97,371.10 546.28,369.89 548.58,369.89 550.89,369.89 553.19,369.49 555.50,369.89 557.80,369.08 560.11,368.68 562.41,368.27 564.71,367.87 567.02,367.06 569.32,367.46 571.63,367.06 573.93,366.25 576.24,368.27 578.54,368.68 580.85,368.68 583.15,368.27 585.45,369.08 587.76,367.87 590.06,367.46 592.37,367.06 594.67,360.18 596.98,359.78 599.28,359.38 601.59,356.95 603.89,357.35 606.19,357.76 608.50,355.33 610.80,355.74 613.11,357.35 615.41,355.33 617.72,356.14 620.02,355.74 622.33,356.14 624.63,354.12 626.93,354.93 629.24,356.14 631.54,354.52 633.85,353.71 636.15,354.12 638.46,354.93 640.76,352.90 643.07,353.71 645.37,353.31 647.67,353.31 649.98,354.52 652.28,352.90 654.59,352.50 656.89,352.50 659.20,353.31 661.50,352.50 663.81,353.71 666.11,354.12 668.41,352.50 670.72,352.90 673.02,352.50 675.33,352.10 677.63,351.69 679.94,352.10 682.24,354.12 684.55,352.50 686.85,352.10 689.15,352.10 691.46,349.67 693.76,349.67 696.07,350.88 698.37,351.29 700.68,350.48 702.98,352.10 705.29,350.48 707.59,350.48 709.89,350.48 712.20,350.07 714.50,348.46 716.81,351.29 719.11,349.67 721.42,351.29 723.72,349.67 726.03,348.86 728.33,348.46 730.63,348.46 732.94,347.24 735.24,348.86 737.55,346.84 739.85,348.46 742.16,348.86 744.46,346.84 746.77,349.26 749.07,348.05 751.37,349.26 753.68,349.26 755.98,350.48 758.29,352.90 760.59,349.67 762.90,348.46 765.20,345.62 767.51,344.82 769.81,344.41 772.11,342.39 774.42,341.18 776.72,341.58 779.03,339.15 781.33,338.35 783.64,337.54 785.94,336.73 788.25,335.92 790.55,337.54 792.85,338.35 795.16,337.54 797.46,337.54 799.77,337.54 802.07,333.09 804.38,333.90 806.68,335.92 808.99,336.73 811.29,335.51 813.59,332.28 815.90,331.47 818.20,331.07 820.51,331.47 822.81,331.07 825.12,331.07 827.42,331.07 829.73,331.07 832.03,331.07 834.33,331.07 836.64,331.07 838.94,331.07 841.25,331.07 843.55,331.07 845.86,331.47 848.16,331.88 850.47,331.07 852.77,331.47 855.07,331.07 857.38,331.47 859.68,331.07 861.99,324.19 864.29,324.19 866.60,318.93 868.90,316.51 871.21,310.44 873.51,308.01 875.81,600.00 878.12,301.54 880.42,290.22 882.73,287.79 885.03,286.18 887.34,285.77 889.64,285.77 891.95,285.77 894.25,286.18 896.55,285.77 898.86,285.77 901.16,285.77 903.47,283.35 905.77,282.94 908.08,282.94 910.38,283.35 912.68,282.94 914.99,282.94 917.29,283.75 919.60,282.13 921.90,282.13 924.21,282.54 926.51,282.13 928.82,282.54 931.12,282.94 933.42,281.73 935.73,282.54 938.03,281.73 940.34,282.54 942.64,282.13 944.95,282.13 947.25,281.73 949.56,281.73 951.86,281.32 954.16,281.73 956.47,282.13 958.77,281.32 961.08,281.32 963.38,282.54 965.69,282.13 967.99,281.32 970.30,281.32 972.60,281.32 974.90,282.54 977.21,282.13 979.51,281.32 981.82,282.13 984.12,281.73 986.43,282.13 988.73,280.11 991.04,280.11 993.34,280.51 995.64,279.71 997.95,280.11 1000.25,280.51 1002.56,279.71 1004.86,280.11 1007.17,280.11 1009.47,279.30 1011.78,278.90 1014.08,278.90 1016.38,280.51 1018.69,279.30 1020.99,278.09 1023.30,278.49 1025.60,278.49 1027.91,277.28 1030.21,277.68 1032.52,277.68 1034.82,278.09 1037.12,277.28 1039.43,600.00 1041.73,278.90 1044.04,279.30 1046.34,278.90 1048.65,278.49 1050.95,278.49 1053.26,278.49 1055.56,278.49 1057.86,278.49 1060.17,278.49 1062.47,278.49 1064.78,278.49 1067.08,278.49 1069.39,278.49 1071.69,278.49 1074.00,278.49 1076.30,600.00 1078.60,600.00 1080.91,254.63 1083.21,600.00 1085.52,245.74 1087.82,245.74 1090.13,246.14 1092.43,245.74 1094.74,245.74 1097.04,245.74 1099.34,245.74 1101.65,245.74 1103.95,240.07 1106.26,238.05 1108.56,238.05 1110.87,227.13 1113.17,227.13 1115.48,226.32 1117.78,227.54 1120.08,226.73 1122.39,226.32 1124.69,227.13 1127.00,227.13 1129.30,226.73 1131.61,226.32 1133.91,226.73 1136.22,226.73 1138.52,226.73 1140.82,225.11 1143.13,224.71 1145.43,225.11 1147.74,224.30 1150.04,226.32 1152.35,224.30 1154.65,225.51 1156.96,225.51 1159.26,225.51 1161.56,225.92 1163.87,223.09 1166.17,223.49 1168.48,223.09 1170.78,223.09 1173.09,223.90 1175.39,223.49 1177.70,223.49 1180.00,223.09"/>
<circle cx="90.00" cy="540.55" r="3.2" fill="#1d4ed8"/>
<circle cx="92.30" cy="538.53" r="3.2" fill="#1d4ed8"/>
<circle cx="94.61" cy="536.91" r="3.2" fill="#1d4ed8"/>
<circle cx="96.91" cy="534.49" r="3.2" fill="#1d4ed8"/>
<circle cx="99.22" cy="534.49" r="3.2" fill="#1d4ed8"/>
<circle cx="101.52" cy="533.27" r="3.2" fill="#1d4ed8"/>
<circle cx="103.83" cy="532.46" r="3.2" fill="#1d4ed8"/>
<circle cx="106.13" cy="532.87" r="3.2" fill="#1d4ed8"/>
<circle cx="108.44" cy="532.06" r="3.2" fill="#1d4ed8"/>
<circle cx="110.74" cy="532.46" r="3.2" fill="#1d4ed8"/>
<circle cx="113.04" cy="532.06" r="3.2" fill="#1d4ed8"/>
<circle cx="115.35" cy="568.46" r="3.2" fill="#1d4ed8"/>
<circle cx="117.65" cy="568.46" r="3.2" fill="#1d4ed8"/>
<circle cx="119.96" cy="566.43" r="3.2" fill="#1d4ed8"/>
<circle cx="122.26" cy="545.00" r="3.2" fill="#1d4ed8"/>
<circle cx="124.57" cy="545.00" r="3.2" fill="#1d4ed8"/>
<circle cx="126.87" cy="544.19" r="3.2" fill="#1d4ed8"/>
<circle cx="129.18" cy="543.79" r="3.2" fill="#1d4ed8"/>
<circle cx="131.48" cy="543.79" r="3.2" fill="#1d4ed8"/>
<circle cx="133.78" cy="543.38" r="3.2" fill="#1d4ed8"/>
<circle cx="136.09" cy="541.76" r="3.2" fill="#1d4ed8"/>
<circle cx="138.39" cy="541.36" r="3.2" fill="#1d4ed8"/>
<circle cx="140.70" cy="540.96" r="3.2" fill="#1d4ed8"/>
<circle cx="143.00" cy="540.96" r="3.2" fill="#1d4ed8"/>
<circle cx="145.31" cy="539.34" r="3.2" fill="#1d4ed8"/>
<circle cx="147.61" cy="539.34" r="3.2" fill="#1d4ed8"/>
<circle cx="149.92" cy="556.73" r="3.2" fill="#1d4ed8"/>
<circle cx="152.22" cy="556.73" r="3.2" fill="#1d4ed8"/>
<circle cx="154.52" cy="555.51" r="3.2" fill="#1d4ed8"/>
<circle cx="156.83" cy="551.07" r="3.2" fill="#1d4ed8"/>
<circle cx="159.13" cy="538.93" r="3.2" fill="#1d4ed8"/>
<circle cx="161.44" cy="538.93" r="3.2" fill="#1d4ed8"/>
<circle cx="163.74" cy="538.93" r="3.2" fill="#1d4ed8"/>
<circle cx="166.05" cy="538.12" r="3.2" fill="#1d4ed8"/>
<circle cx="168.35" cy="536.91" r="3.2" fill="#1d4ed8"/>
<circle cx="170.66" cy="536.91" r="3.2" fill="#1d4ed8"/>
<circle cx="172.96" cy="536.51" r="3.2" fill="#1d4ed8"/>
<circle cx="175.26" cy="536.51" r="3.2" fill="#1d4ed8"/>
<circle cx="177.57" cy="556.73" r="3.2" fill="#1d4ed8"/>
<circle cx="179.87" cy="556.73" r="3.2" fill="#1d4ed8"/>
<circle cx="182.18" cy="556.73" r="3.2" fill="#1d4ed8"/>
<circle cx="184.48" cy="556.73" r="3.2" fill="#1d4ed8"/>
<circle cx="186.79" cy="535.29" r="3.2" fill="#1d4ed8"/>
<circle cx="189.09" cy="535.29" r="3.2" fill="#1d4ed8"/>
<circle cx="191.40" cy="535.29" r="3.2" fill="#1d4ed8"/>
<circle cx="193.70" cy="535.29" r="3.2" fill="#1d4ed8"/>
<circle cx="196.00" cy="534.49" r="3.2" fill="#1d4ed8"/>
<circle cx="198.31" cy="534.08" r="3.2" fill="#1d4ed8"/>
<circle cx="200.61" cy="533.68" r="3.2" fill="#1d4ed8"/>
<circle cx="202.92" cy="532.87" r="3.2" fill="#1d4ed8"/>
<circle cx="205.22" cy="532.06" r="3.2" fill="#1d4ed8"/>
<circle cx="207.53" cy="532.06" r="3.2" fill="#1d4ed8"/>
<circle cx="209.83" cy="531.25" r="3.2" fill="#1d4ed8"/>
<circle cx="212.14" cy="530.85" r="3.2" fill="#1d4ed8"/>
<circle cx="214.44" cy="530.44" r="3.2" fill="#1d4ed8"/>
<circle cx="216.74" cy="530.04" r="3.2" fill="#1d4ed8"/>
<circle cx="219.05" cy="530.04" r="3.2" fill="#1d4ed8"/>
<circle cx="221.35" cy="529.23" r="3.2" fill="#1d4ed8"/>
<circle cx="223.66" cy="529.23" r="3.2" fill="#1d4ed8"/>
<circle cx="225.96" cy="529.23" r="3.2" fill="#1d4ed8"/>
<circle cx="228.27" cy="528.42" r="3.2" fill="#1d4ed8"/>
<circle cx="230.57" cy="528.42" r="3.2" fill="#1d4ed8"/>
<circle cx="232.88" cy="527.61" r="3.2" fill="#1d4ed8"/>
<circle cx="235.18" cy="527.21" r="3.2" fill="#1d4ed8"/>
<circle cx="237.48" cy="526.80" r="3.2" fill="#1d4ed8"/>
<circle cx="239.79" cy="526.40" r="3.2" fill="#1d4ed8"/>
<circle cx="242.09" cy="525.18" r="3.2" fill="#1d4ed8"/>
<circle cx="244.40" cy="523.57" r="3.2" fill="#1d4ed8"/>
<circle cx="246.70" cy="523.57" r="3.2" fill="#1d4ed8"/>
<circle cx="249.01" cy="523.16" r="3.2" fill="#1d4ed8"/>
<circle cx="251.31" cy="522.76" r="3.2" fill="#1d4ed8"/>
<circle cx="253.62" cy="522.35" r="3.2" fill="#1d4ed8"/>
<circle cx="255.92" cy="521.54" r="3.2" fill="#1d4ed8"/>
<circle cx="258.22" cy="519.52" r="3.2" fill="#1d4ed8"/>
<circle cx="260.53" cy="517.50" r="3.2" fill="#1d4ed8"/>
<circle cx="262.83" cy="517.50" r="3.2" fill="#1d4ed8"/>
<circle cx="265.14" cy="517.50" r="3.2" fill="#1d4ed8"/>
<circle cx="267.44" cy="517.50" r="3.2" fill="#1d4ed8"/>
<circle cx="269.75" cy="517.50" r="3.2" fill="#1d4ed8"/>
<circle cx="272.05" cy="517.50" r="3.2" fill="#1d4ed8"/>
<circle cx="274.36" cy="517.10" r="3.2" fill="#1d4ed8"/>
<circle cx="276.66" cy="516.69" r="3.2" fill="#1d4ed8"/>
<circle cx="278.96" cy="515.48" r="3.2" fill="#1d4ed8"/>
<circle cx="281.27" cy="515.07" r="3.2" fill="#1d4ed8"/>
<circle cx="283.57" cy="514.67" r="3.2" fill="#1d4ed8"/>
<circle cx="285.88" cy="513.86" r="3.2" fill="#1d4ed8"/>
<circle cx="288.18" cy="514.26" r="3.2" fill="#1d4ed8"/>
<circle cx="290.49" cy="512.24" r="3.2" fill="#1d4ed8"/>
<circle cx="292.79" cy="511.84" r="3.2" fill="#1d4ed8"/>
<circle cx="295.10" cy="511.84" r="3.2" fill="#1d4ed8"/>
<circle cx="297.40" cy="511.03" r="3.2" fill="#1d4ed8"/>
<circle cx="299.70" cy="509.82" r="3.2" fill="#1d4ed8"/>
<circle cx="302.01" cy="507.79" r="3.2" fill="#1d4ed8"/>
<circle cx="304.31" cy="506.99" r="3.2" fill="#1d4ed8"/>
<circle cx="306.62" cy="506.58" r="3.2" fill="#1d4ed8"/>
<circle cx="308.92" cy="509.41" r="3.2" fill="#1d4ed8"/>
<circle cx="311.23" cy="509.01" r="3.2" fill="#1d4ed8"/>
<circle cx="313.53" cy="504.96" r="3.2" fill="#1d4ed8"/>
<circle cx="315.84" cy="504.56" r="3.2" fill="#1d4ed8"/>
<circle cx="318.14" cy="504.15" r="3.2" fill="#1d4ed8"/>
<circle cx="320.44" cy="504.56" r="3.2" fill="#1d4ed8"/>
<circle cx="322.75" cy="503.75" r="3.2" fill="#1d4ed8"/>
<circle cx="325.05" cy="503.75" r="3.2" fill="#1d4ed8"/>
<circle cx="327.36" cy="503.35" r="3.2" fill="#1d4ed8"/>
<circle cx="329.66" cy="499.30" r="3.2" fill="#1d4ed8"/>
<circle cx="331.97" cy="496.47" r="3.2" fill="#1d4ed8"/>
<circle cx="334.27" cy="490.00" r="3.2" fill="#1d4ed8"/>
<circle cx="336.58" cy="484.34" r="3.2" fill="#1d4ed8"/>
<circle cx="338.88" cy="481.10" r="3.2" fill="#1d4ed8"/>
<circle cx="341.18" cy="480.29" r="3.2" fill="#1d4ed8"/>
<circle cx="343.49" cy="480.70" r="3.2" fill="#1d4ed8"/>
<circle cx="345.79" cy="460.88" r="3.2" fill="#1d4ed8"/>
<circle cx="348.10" cy="459.26" r="3.2" fill="#1d4ed8"/>
<circle cx="350.40" cy="458.05" r="3.2" fill="#1d4ed8"/>
<circle cx="352.71" cy="456.03" r="3.2" fill="#1d4ed8"/>
<circle cx="355.01" cy="456.03" r="3.2" fill="#1d4ed8"/>
<circle cx="357.32" cy="454.41" r="3.2" fill="#1d4ed8"/>
<circle cx="359.62" cy="450.77" r="3.2" fill="#1d4ed8"/>
<circle cx="361.92" cy="444.30" r="3.2" fill="#1d4ed8"/>
<circle cx="364.23" cy="443.90" r="3.2" fill="#1d4ed8"/>
<circle cx="366.53" cy="600.00" r="3.2" fill="#1d4ed8"/>
<circle cx="368.84" cy="441.88" r="3.2" fill="#1d4ed8"/>
<circle cx="371.14" cy="440.66" r="3.2" fill="#1d4ed8"/>
<circle cx="373.45" cy="439.45" r="3.2" fill="#1d4ed8"/>
<circle cx="375.75" cy="439.04" r="3.2" fill="#1d4ed8"/>
<circle cx="378.05" cy="438.64" r="3.2" fill="#1d4ed8"/>
<circle cx="380.36" cy="437.83" r="3.2" fill="#1d4ed8"/>
<circle cx="382.66" cy="436.62" r="3.2" fill="#1d4ed8"/>
<circle cx="384.97" cy="436.62" r="3.2" fill="#1d4ed8"/>
<circle cx="387.27" cy="434.60" r="3.2" fill="#1d4ed8"/>
<circle cx="389.58" cy="432.17" r="3.2" fill="#1d4ed8"/>
<circle cx="391.88" cy="429.34" r="3.2" fill="#1d4ed8"/>
<circle cx="394.19" cy="428.93" r="3.2" fill="#1d4ed8"/>
<circle cx="396.49" cy="428.53" r="3.2" fill="#1d4ed8"/>
<circle cx="398.79" cy="427.72" r="3.2" fill="#1d4ed8"/>
<circle cx="401.10" cy="426.91" r="3.2" fill="#1d4ed8"/>
<circle cx="403.40" cy="426.10" r="3.2" fill="#1d4ed8"/>
<circle cx="405.71" cy="426.10" r="3.2" fill="#1d4ed8"/>
<circle cx="408.01" cy="426.10" r="3.2" fill="#1d4ed8"/>
<circle cx="410.32" cy="419.63" r="3.2" fill="#1d4ed8"/>
<circle cx="412.62" cy="419.23" r="3.2" fill="#1d4ed8"/>
<circle cx="414.93" cy="418.42" r="3.2" fill="#1d4ed8"/>
<circle cx="417.23" cy="418.01" r="3.2" fill="#1d4ed8"/>
<circle cx="419.53" cy="417.61" r="3.2" fill="#1d4ed8"/>
<circle cx="421.84" cy="417.61" r="3.2" fill="#1d4ed8"/>
<circle cx="424.14" cy="417.61" r="3.2" fill="#1d4ed8"/>
<circle cx="426.45" cy="417.21" r="3.2" fill="#1d4ed8"/>
<circle cx="428.75" cy="417.21" r="3.2" fill="#1d4ed8"/>
<circle cx="431.06" cy="413.57" r="3.2" fill="#1d4ed8"/>
<circle cx="433.36" cy="411.95" r="3.2" fill="#1d4ed8"/>
<circle cx="435.67" cy="412.76" r="3.2" fill="#1d4ed8"/>
<circle cx="437.97" cy="410.74" r="3.2" fill="#1d4ed8"/>
<circle cx="440.27" cy="410.74" r="3.2" fill="#1d4ed8"/>
<circle cx="442.58" cy="410.33" r="3.2" fill="#1d4ed8"/>
<circle cx="444.88" cy="410.33" r="3.2" fill="#1d4ed8"/>
<circle cx="447.19" cy="410.33" r="3.2" fill="#1d4ed8"/>
<circle cx="449.49" cy="409.93" r="3.2" fill="#1d4ed8"/>
<circle cx="451.80" cy="409.93" r="3.2" fill="#1d4ed8"/>
<circle cx="454.10" cy="409.93" r="3.2" fill="#1d4ed8"/>
<circle cx="456.41" cy="409.52" r="3.2" fill="#1d4ed8"/>
<circle cx="458.71" cy="409.52" r="3.2" fill="#1d4ed8"/>
<circle cx="461.01" cy="409.12" r="3.2" fill="#1d4ed8"/>
<circle cx="463.32" cy="409.52" r="3.2" fill="#1d4ed8"/>
<circle cx="465.62" cy="409.12" r="3.2" fill="#1d4ed8"/>
<circle cx="467.93" cy="407.50" r="3.2" fill="#1d4ed8"/>
<circle cx="470.23" cy="407.10" r="3.2" fill="#1d4ed8"/>
<circle cx="472.54" cy="403.05" r="3.2" fill="#1d4ed8"/>
<circle cx="474.84" cy="399.82" r="3.2" fill="#1d4ed8"/>
<circle cx="477.15" cy="400.22" r="3.2" fill="#1d4ed8"/>
<circle cx="479.45" cy="400.62" r="3.2" fill="#1d4ed8"/>
<circle cx="481.75" cy="400.62" r="3.2" fill="#1d4ed8"/>
<circle cx="484.06" cy="399.41" r="3.2" fill="#1d4ed8"/>
<circle cx="486.36" cy="392.94" r="3.2" fill="#1d4ed8"/>
<circle cx="488.67" cy="391.32" r="3.2" fill="#1d4ed8"/>
<circle cx="490.97" cy="389.30" r="3.2" fill="#1d4ed8"/>
<circle cx="493.28" cy="389.30" r="3.2" fill="#1d4ed8"/>
<circle cx="495.58" cy="388.49" r="3.2" fill="#1d4ed8"/>
<circle cx="497.89" cy="375.15" r="3.2" fill="#1d4ed8"/>
<circle cx="500.19" cy="374.74" r="3.2" fill="#1d4ed8"/>
<circle cx="502.49" cy="374.74" r="3.2" fill="#1d4ed8"/>
<circle cx="504.80" cy="374.74" r="3.2" fill="#1d4ed8"/>
<circle cx="507.10" cy="374.74" r="3.2" fill="#1d4ed8"/>
<circle cx="509.41" cy="374.34" r="3.2" fill="#1d4ed8"/>
<circle cx="511.71" cy="374.34" r="3.2" fill="#1d4ed8"/>
<circle cx="514.02" cy="374.34" r="3.2" fill="#1d4ed8"/>
<circle cx="516.32" cy="374.34" r="3.2" fill="#1d4ed8"/>
<circle cx="518.63" cy="374.34" r="3.2" fill="#1d4ed8"/>
<circle cx="520.93" cy="373.93" r="3.2" fill="#1d4ed8"/>
<circle cx="523.23" cy="373.12" r="3.2" fill="#1d4ed8"/>
<circle cx="525.54" cy="372.72" r="3.2" fill="#1d4ed8"/>
<circle cx="527.84" cy="373.53" r="3.2" fill="#1d4ed8"/>
<circle cx="530.15" cy="435.81" r="3.2" fill="#1d4ed8"/>
<circle cx="532.45" cy="372.32" r="3.2" fill="#1d4ed8"/>
<circle cx="534.76" cy="372.72" r="3.2" fill="#1d4ed8"/>
<circle cx="537.06" cy="371.91" r="3.2" fill="#1d4ed8"/>
<circle cx="539.37" cy="371.91" r="3.2" fill="#1d4ed8"/>
<circle cx="541.67" cy="372.32" r="3.2" fill="#1d4ed8"/>
<circle cx="543.97" cy="371.10" r="3.2" fill="#1d4ed8"/>
<circle cx="546.28" cy="369.89" r="3.2" fill="#1d4ed8"/>
<circle cx="548.58" cy="369.89" r="3.2" fill="#1d4ed8"/>
<circle cx="550.89" cy="369.89" r="3.2" fill="#1d4ed8"/>
<circle cx="553.19" cy="369.49" r="3.2" fill="#1d4ed8"/>
<circle cx="555.50" cy="369.89" r="3.2" fill="#1d4ed8"/>
<circle cx="557.80" cy="369.08" r="3.2" fill="#1d4ed8"/>
<circle cx="560.11" cy="368.68" r="3.2" fill="#1d4ed8"/>
<circle cx="562.41" cy="368.27" r="3.2" fill="#1d4ed8"/>
<circle cx="564.71" cy="367.87" r="3.2" fill="#1d4ed8"/>
<circle cx="567.02" cy="367.06" r="3.2" fill="#1d4ed8"/>
<circle cx="569.32" cy="367.46" r="3.2" fill="#1d4ed8"/>
<circle cx="571.63" cy="367.06" r="3.2" fill="#1d4ed8"/>
<circle cx="573.93" cy="366.25" r="3.2" fill="#1d4ed8"/>
<circle cx="576.24" cy="368.27" r="3.2" fill="#1d4ed8"/>
<circle cx="578.54" cy="368.68" r="3.2" fill="#1d4ed8"/>
<circle cx="580.85" cy="368.68" r="3.2" fill="#1d4ed8"/>
<circle cx="583.15" cy="368.27" r="3.2" fill="#1d4ed8"/>
<circle cx="585.45" cy="369.08" r="3.2" fill="#1d4ed8"/>
<circle cx="587.76" cy="367.87" r="3.2" fill="#1d4ed8"/>
<circle cx="590.06" cy="367.46" r="3.2" fill="#1d4ed8"/>
<circle cx="592.37" cy="367.06" r="3.2" fill="#1d4ed8"/>
<circle cx="594.67" cy="360.18" r="3.2" fill="#1d4ed8"/>
<circle cx="596.98" cy="359.78" r="3.2" fill="#1d4ed8"/>
<circle cx="599.28" cy="359.38" r="3.2" fill="#1d4ed8"/>
<circle cx="601.59" cy="356.95" r="3.2" fill="#1d4ed8"/>
<circle cx="603.89" cy="357.35" r="3.2" fill="#1d4ed8"/>
<circle cx="606.19" cy="357.76" r="3.2" fill="#1d4ed8"/>
<circle cx="608.50" cy="355.33" r="3.2" fill="#1d4ed8"/>
<circle cx="610.80" cy="355.74" r="3.2" fill="#1d4ed8"/>
<circle cx="613.11" cy="357.35" r="3.2" fill="#1d4ed8"/>
<circle cx="615.41" cy="355.33" r="3.2" fill="#1d4ed8"/>
<circle cx="617.72" cy="356.14" r="3.2" fill="#1d4ed8"/>
<circle cx="620.02" cy="355.74" r="3.2" fill="#1d4ed8"/>
<circle cx="622.33" cy="356.14" r="3.2" fill="#1d4ed8"/>
<circle cx="624.63" cy="354.12" r="3.2" fill="#1d4ed8"/>
<circle cx="626.93" cy="354.93" r="3.2" fill="#1d4ed8"/>
<circle cx="629.24" cy="356.14" r="3.2" fill="#1d4ed8"/>
<circle cx="631.54" cy="354.52" r="3.2" fill="#1d4ed8"/>
<circle cx="633.85" cy="353.71" r="3.2" fill="#1d4ed8"/>
<circle cx="636.15" cy="354.12" r="3.2" fill="#1d4ed8"/>
<circle cx="638.46" cy="354.93" r="3.2" fill="#1d4ed8"/>
<circle cx="640.76" cy="352.90" r="3.2" fill="#1d4ed8"/>
<circle cx="643.07" cy="353.71" r="3.2" fill="#1d4ed8"/>
<circle cx="645.37" cy="353.31" r="3.2" fill="#1d4ed8"/>
<circle cx="647.67" cy="353.31" r="3.2" fill="#1d4ed8"/>
<circle cx="649.98" cy="354.52" r="3.2" fill="#1d4ed8"/>
<circle cx="652.28" cy="352.90" r="3.2" fill="#1d4ed8"/>
<circle cx="654.59" cy="352.50" r="3.2" fill="#1d4ed8"/>
<circle cx="656.89" cy="352.50" r="3.2" fill="#1d4ed8"/>
<circle cx="659.20" cy="353.31" r="3.2" fill="#1d4ed8"/>
<circle cx="661.50" cy="352.50" r="3.2" fill="#1d4ed8"/>
<circle cx="663.81" cy="353.71" r="3.2" fill="#1d4ed8"/>
<circle cx="666.11" cy="354.12" r="3.2" fill="#1d4ed8"/>
<circle cx="668.41" cy="352.50" r="3.2" fill="#1d4ed8"/>
<circle cx="670.72" cy="352.90" r="3.2" fill="#1d4ed8"/>
<circle cx="673.02" cy="352.50" r="3.2" fill="#1d4ed8"/>
<circle cx="675.33" cy="352.10" r="3.2" fill="#1d4ed8"/>
<circle cx="677.63" cy="351.69" r="3.2" fill="#1d4ed8"/>
<circle cx="679.94" cy="352.10" r="3.2" fill="#1d4ed8"/>
<circle cx="682.24" cy="354.12" r="3.2" fill="#1d4ed8"/>
<circle cx="684.55" cy="352.50" r="3.2" fill="#1d4ed8"/>
<circle cx="686.85" cy="352.10" r="3.2" fill="#1d4ed8"/>
<circle cx="689.15" cy="352.10" r="3.2" fill="#1d4ed8"/>
<circle cx="691.46" cy="349.67" r="3.2" fill="#1d4ed8"/>
<circle cx="693.76" cy="349.67" r="3.2" fill="#1d4ed8"/>
<circle cx="696.07" cy="350.88" r="3.2" fill="#1d4ed8"/>
<circle cx="698.37" cy="351.29" r="3.2" fill="#1d4ed8"/>
<circle cx="700.68" cy="350.48" r="3.2" fill="#1d4ed8"/>
<circle cx="702.98" cy="352.10" r="3.2" fill="#1d4ed8"/>
<circle cx="705.29" cy="350.48" r="3.2" fill="#1d4ed8"/>
<circle cx="707.59" cy="350.48" r="3.2" fill="#1d4ed8"/>
<circle cx="709.89" cy="350.48" r="3.2" fill="#1d4ed8"/>
<circle cx="712.20" cy="350.07" r="3.2" fill="#1d4ed8"/>
<circle cx="714.50" cy="348.46" r="3.2" fill="#1d4ed8"/>
<circle cx="716.81" cy="351.29" r="3.2" fill="#1d4ed8"/>
<circle cx="719.11" cy="349.67" r="3.2" fill="#1d4ed8"/>
<circle cx="721.42" cy="351.29" r="3.2" fill="#1d4ed8"/>
<circle cx="723.72" cy="349.67" r="3.2" fill="#1d4ed8"/>
<circle cx="726.03" cy="348.86" r="3.2" fill="#1d4ed8"/>
<circle cx="728.33" cy="348.46" r="3.2" fill="#1d4ed8"/>
<circle cx="730.63" cy="348.46" r="3.2" fill="#1d4ed8"/>
<circle cx="732.94" cy="347.24" r="3.2" fill="#1d4ed8"/>
<circle cx="735.24" cy="348.86" r="3.2" fill="#1d4ed8"/>
<circle cx="737.55" cy="346.84" r="3.2" fill="#1d4ed8"/>
<circle cx="739.85" cy="348.46" r="3.2" fill="#1d4ed8"/>
<circle cx="742.16" cy="348.86" r="3.2" fill="#1d4ed8"/>
<circle cx="744.46" cy="346.84" r="3.2" fill="#1d4ed8"/>
<circle cx="746.77" cy="349.26" r="3.2" fill="#1d4ed8"/>
<circle cx="749.07" cy="348.05" r="3.2" fill="#1d4ed8"/>
<circle cx="751.37" cy="349.26" r="3.2" fill="#1d4ed8"/>
<circle cx="753.68" cy="349.26" r="3.2" fill="#1d4ed8"/>
<circle cx="755.98" cy="350.48" r="3.2" fill="#1d4ed8"/>
<circle cx="758.29" cy="352.90" r="3.2" fill="#1d4ed8"/>
<circle cx="760.59" cy="349.67" r="3.2" fill="#1d4ed8"/>
<circle cx="762.90" cy="348.46" r="3.2" fill="#1d4ed8"/>
<circle cx="765.20" cy="345.62" r="3.2" fill="#1d4ed8"/>
<circle cx="767.51" cy="344.82" r="3.2" fill="#1d4ed8"/>
<circle cx="769.81" cy="344.41" r="3.2" fill="#1d4ed8"/>
<circle cx="772.11" cy="342.39" r="3.2" fill="#1d4ed8"/>
<circle cx="774.42" cy="341.18" r="3.2" fill="#1d4ed8"/>
<circle cx="776.72" cy="341.58" r="3.2" fill="#1d4ed8"/>
<circle cx="779.03" cy="339.15" r="3.2" fill="#1d4ed8"/>
<circle cx="781.33" cy="338.35" r="3.2" fill="#1d4ed8"/>
<circle cx="783.64" cy="337.54" r="3.2" fill="#1d4ed8"/>
<circle cx="785.94" cy="336.73" r="3.2" fill="#1d4ed8"/>
<circle cx="788.25" cy="335.92" r="3.2" fill="#1d4ed8"/>
<circle cx="790.55" cy="337.54" r="3.2" fill="#1d4ed8"/>
<circle cx="792.85" cy="338.35" r="3.2" fill="#1d4ed8"/>
<circle cx="795.16" cy="337.54" r="3.2" fill="#1d4ed8"/>
<circle cx="797.46" cy="337.54" r="3.2" fill="#1d4ed8"/>
<circle cx="799.77" cy="337.54" r="3.2" fill="#1d4ed8"/>
<circle cx="802.07" cy="333.09" r="3.2" fill="#1d4ed8"/>
<circle cx="804.38" cy="333.90" r="3.2" fill="#1d4ed8"/>
<circle cx="806.68" cy="335.92" r="3.2" fill="#1d4ed8"/>
<circle cx="808.99" cy="336.73" r="3.2" fill="#1d4ed8"/>
<circle cx="811.29" cy="335.51" r="3.2" fill="#1d4ed8"/>
<circle cx="813.59" cy="332.28" r="3.2" fill="#1d4ed8"/>
<circle cx="815.90" cy="331.47" r="3.2" fill="#1d4ed8"/>
<circle cx="818.20" cy="331.07" r="3.2" fill="#1d4ed8"/>
<circle cx="820.51" cy="331.47" r="3.2" fill="#1d4ed8"/>
<circle cx="822.81" cy="331.07" r="3.2" fill="#1d4ed8"/>
<circle cx="825.12" cy="331.07" r="3.2" fill="#1d4ed8"/>
<circle cx="827.42" cy="331.07" r="3.2" fill="#1d4ed8"/>
<circle cx="829.73" cy="331.07" r="3.2" fill="#1d4ed8"/>
<circle cx="832.03" cy="331.07" r="3.2" fill="#1d4ed8"/>
<circle cx="834.33" cy="331.07" r="3.2" fill="#1d4ed8"/>
<circle cx="836.64" cy="331.07" r="3.2" fill="#1d4ed8"/>
<circle cx="838.94" cy="331.07" r="3.2" fill="#1d4ed8"/>
<circle cx="841.25" cy="331.07" r="3.2" fill="#1d4ed8"/>
<circle cx="843.55" cy="331.07" r="3.2" fill="#1d4ed8"/>
<circle cx="845.86" cy="331.47" r="3.2" fill="#1d4ed8"/>
<circle cx="848.16" cy="331.88" r="3.2" fill="#1d4ed8"/>
<circle cx="850.47" cy="331.07" r="3.2" fill="#1d4ed8"/>
<circle cx="852.77" cy="331.47" r="3.2" fill="#1d4ed8"/>
<circle cx="855.07" cy="331.07" r="3.2" fill="#1d4ed8"/>
<circle cx="857.38" cy="331.47" r="3.2" fill="#1d4ed8"/>
<circle cx="859.68" cy="331.07" r="3.2" fill="#1d4ed8"/>
<circle cx="861.99" cy="324.19" r="3.2" fill="#1d4ed8"/>
<circle cx="864.29" cy="324.19" r="3.2" fill="#1d4ed8"/>
<circle cx="866.60" cy="318.93" r="3.2" fill="#1d4ed8"/>
<circle cx="868.90" cy="316.51" r="3.2" fill="#1d4ed8"/>
<circle cx="871.21" cy="310.44" r="3.2" fill="#1d4ed8"/>
<circle cx="873.51" cy="308.01" r="3.2" fill="#1d4ed8"/>
<circle cx="875.81" cy="600.00" r="3.2" fill="#1d4ed8"/>
<circle cx="878.12" cy="301.54" r="3.2" fill="#1d4ed8"/>
<circle cx="880.42" cy="290.22" r="3.2" fill="#1d4ed8"/>
<circle cx="882.73" cy="287.79" r="3.2" fill="#1d4ed8"/>
<circle cx="885.03" cy="286.18" r="3.2" fill="#1d4ed8"/>
<circle cx="887.34" cy="285.77" r="3.2" fill="#1d4ed8"/>
<circle cx="889.64" cy="285.77" r="3.2" fill="#1d4ed8"/>
<circle cx="891.95" cy="285.77" r="3.2" fill="#1d4ed8"/>
<circle cx="894.25" cy="286.18" r="3.2" fill="#1d4ed8"/>
<circle cx="896.55" cy="285.77" r="3.2" fill="#1d4ed8"/>
<circle cx="898.86" cy="285.77" r="3.2" fill="#1d4ed8"/>
<circle cx="901.16" cy="285.77" r="3.2" fill="#1d4ed8"/>
<circle cx="903.47" cy="283.35" r="3.2" fill="#1d4ed8"/>
<circle cx="905.77" cy="282.94" r="3.2" fill="#1d4ed8"/>
<circle cx="908.08" cy="282.94" r="3.2" fill="#1d4ed8"/>
<circle cx="910.38" cy="283.35" r="3.2" fill="#1d4ed8"/>
<circle cx="912.68" cy="282.94" r="3.2" fill="#1d4ed8"/>
<circle cx="914.99" cy="282.94" r="3.2" fill="#1d4ed8"/>
<circle cx="917.29" cy="283.75" r="3.2" fill="#1d4ed8"/>
<circle cx="919.60" cy="282.13" r="3.2" fill="#1d4ed8"/>
<circle cx="921.90" cy="282.13" r="3.2" fill="#1d4ed8"/>
<circle cx="924.21" cy="282.54" r="3.2" fill="#1d4ed8"/>
<circle cx="926.51" cy="282.13" r="3.2" fill="#1d4ed8"/>
<circle cx="928.82" cy="282.54" r="3.2" fill="#1d4ed8"/>
<circle cx="931.12" cy="282.94" r="3.2" fill="#1d4ed8"/>
<circle cx="933.42" cy="281.73" r="3.2" fill="#1d4ed8"/>
<circle cx="935.73" cy="282.54" r="3.2" fill="#1d4ed8"/>
<circle cx="938.03" cy="281.73" r="3.2" fill="#1d4ed8"/>
<circle cx="940.34" cy="282.54" r="3.2" fill="#1d4ed8"/>
<circle cx="942.64" cy="282.13" r="3.2" fill="#1d4ed8"/>
<circle cx="944.95" cy="282.13" r="3.2" fill="#1d4ed8"/>
<circle cx="947.25" cy="281.73" r="3.2" fill="#1d4ed8"/>
<circle cx="949.56" cy="281.73" r="3.2" fill="#1d4ed8"/>
<circle cx="951.86" cy="281.32" r="3.2" fill="#1d4ed8"/>
<circle cx="954.16" cy="281.73" r="3.2" fill="#1d4ed8"/>
<circle cx="956.47" cy="282.13" r="3.2" fill="#1d4ed8"/>
<circle cx="958.77" cy="281.32" r="3.2" fill="#1d4ed8"/>
<circle cx="961.08" cy="281.32" r="3.2" fill="#1d4ed8"/>
<circle cx="963.38" cy="282.54" r="3.2" fill="#1d4ed8"/>
<circle cx="965.69" cy="282.13" r="3.2" fill="#1d4ed8"/>
<circle cx="967.99" cy="281.32" r="3.2" fill="#1d4ed8"/>
<circle cx="970.30" cy="281.32" r="3.2" fill="#1d4ed8"/>
<circle cx="972.60" cy="281.32" r="3.2" fill="#1d4ed8"/>
<circle cx="974.90" cy="282.54" r="3.2" fill="#1d4ed8"/>
<circle cx="977.21" cy="282.13" r="3.2" fill="#1d4ed8"/>
<circle cx="979.51" cy="281.32" r="3.2" fill="#1d4ed8"/>
<circle cx="981.82" cy="282.13" r="3.2" fill="#1d4ed8"/>
<circle cx="984.12" cy="281.73" r="3.2" fill="#1d4ed8"/>
<circle cx="986.43" cy="282.13" r="3.2" fill="#1d4ed8"/>
<circle cx="988.73" cy="280.11" r="3.2" fill="#1d4ed8"/>
<circle cx="991.04" cy="280.11" r="3.2" fill="#1d4ed8"/>
<circle cx="993.34" cy="280.51" r="3.2" fill="#1d4ed8"/>
<circle cx="995.64" cy="279.71" r="3.2" fill="#1d4ed8"/>
<circle cx="997.95" cy="280.11" r="3.2" fill="#1d4ed8"/>
<circle cx="1000.25" cy="280.51" r="3.2" fill="#1d4ed8"/>
<circle cx="1002.56" cy="279.71" r="3.2" fill="#1d4ed8"/>
<circle cx="1004.86" cy="280.11" r="3.2" fill="#1d4ed8"/>
<circle cx="1007.17" cy="280.11" r="3.2" fill="#1d4ed8"/>
<circle cx="1009.47" cy="279.30" r="3.2" fill="#1d4ed8"/>
<circle cx="1011.78" cy="278.90" r="3.2" fill="#1d4ed8"/>
<circle cx="1014.08" cy="278.90" r="3.2" fill="#1d4ed8"/>
<circle cx="1016.38" cy="280.51" r="3.2" fill="#1d4ed8"/>
<circle cx="1018.69" cy="279.30" r="3.2" fill="#1d4ed8"/>
<circle cx="1020.99" cy="278.09" r="3.2" fill="#1d4ed8"/>
<circle cx="1023.30" cy="278.49" r="3.2" fill="#1d4ed8"/>
<circle cx="1025.60" cy="278.49" r="3.2" fill="#1d4ed8"/>
<circle cx="1027.91" cy="277.28" r="3.2" fill="#1d4ed8"/>
<circle cx="1030.21" cy="277.68" r="3.2" fill="#1d4ed8"/>
<circle cx="1032.52" cy="277.68" r="3.2" fill="#1d4ed8"/>
<circle cx="1034.82" cy="278.09" r="3.2" fill="#1d4ed8"/>
<circle cx="1037.12" cy="277.28" r="3.2" fill="#1d4ed8"/>
<circle cx="1039.43" cy="600.00" r="3.2" fill="#1d4ed8"/>
<circle cx="1041.73" cy="278.90" r="3.2" fill="#1d4ed8"/>
<circle cx="1044.04" cy="279.30" r="3.2" fill="#1d4ed8"/>
<circle cx="1046.34" cy="278.90" r="3.2" fill="#1d4ed8"/>
<circle cx="1048.65" cy="278.49" r="3.2" fill="#1d4ed8"/>
<circle cx="1050.95" cy="278.49" r="3.2" fill="#1d4ed8"/>
<circle cx="1053.26" cy="278.49" r="3.2" fill="#1d4ed8"/>
<circle cx="1055.56" cy="278.49" r="3.2" fill="#1d4ed8"/>
<circle cx="1057.86" cy="278.49" r="3.2" fill="#1d4ed8"/>
<circle cx="1060.17" cy="278.49" r="3.2" fill="#1d4ed8"/>
<circle cx="1062.47" cy="278.49" r="3.2" fill="#1d4ed8"/>
<circle cx="1064.78" cy="278.49" r="3.2" fill="#1d4ed8"/>
<circle cx="1067.08" cy="278.49" r="3.2" fill="#1d4ed8"/>
<circle cx="1069.39" cy="278.49" r="3.2" fill="#1d4ed8"/>
<circle cx="1071.69" cy="278.49" r="3.2" fill="#1d4ed8"/>
<circle cx="1074.00" cy="278.49" r="3.2" fill="#1d4ed8"/>
<circle cx="1076.30" cy="600.00" r="3.2" fill="#1d4ed8"/>
<circle cx="1078.60" cy="600.00" r="3.2" fill="#1d4ed8"/>
<circle cx="1080.91" cy="254.63" r="3.2" fill="#1d4ed8"/>
<circle cx="1083.21" cy="600.00" r="3.2" fill="#1d4ed8"/>
<circle cx="1085.52" cy="245.74" r="3.2" fill="#1d4ed8"/>
<circle cx="1087.82" cy="245.74" r="3.2" fill="#1d4ed8"/>
<circle cx="1090.13" cy="246.14" r="3.2" fill="#1d4ed8"/>
<circle cx="1092.43" cy="245.74" r="3.2" fill="#1d4ed8"/>
<circle cx="1094.74" cy="245.74" r="3.2" fill="#1d4ed8"/>
<circle cx="1097.04" cy="245.74" r="3.2" fill="#1d4ed8"/>
<circle cx="1099.34" cy="245.74" r="3.2" fill="#1d4ed8"/>
<circle cx="1101.65" cy="245.74" r="3.2" fill="#1d4ed8"/>
<circle cx="1103.95" cy="240.07" r="3.2" fill="#1d4ed8"/>
<circle cx="1106.26" cy="238.05" r="3.2" fill="#1d4ed8"/>
<circle cx="1108.56" cy="238.05" r="3.2" fill="#1d4ed8"/>
<circle cx="1110.87" cy="227.13" r="3.2" fill="#1d4ed8"/>
<circle cx="1113.17" cy="227.13" r="3.2" fill="#1d4ed8"/>
<circle cx="1115.48" cy="226.32" r="3.2" fill="#1d4ed8"/>
<circle cx="1117.78" cy="227.54" r="3.2" fill="#1d4ed8"/>
<circle cx="1120.08" cy="226.73" r="3.2" fill="#1d4ed8"/>
<circle cx="1122.39" cy="226.32" r="3.2" fill="#1d4ed8"/>
<circle cx="1124.69" cy="227.13" r="3.2" fill="#1d4ed8"/>
<circle cx="1127.00" cy="227.13" r="3.2" fill="#1d4ed8"/>
<circle cx="1129.30" cy="226.73" r="3.2" fill="#1d4ed8"/>
<circle cx="1131.61" cy="226.32" r="3.2" fill="#1d4ed8"/>
<circle cx="1133.91" cy="226.73" r="3.2" fill="#1d4ed8"/>
<circle cx="1136.22" cy="226.73" r="3.2" fill="#1d4ed8"/>
<circle cx="1138.52" cy="226.73" r="3.2" fill="#1d4ed8"/>
<circle cx="1140.82" cy="225.11" r="3.2" fill="#1d4ed8"/>
<circle cx="1143.13" cy="224.71" r="3.2" fill="#1d4ed8"/>
<circle cx="1145.43" cy="225.11" r="3.2" fill="#1d4ed8"/>
<circle cx="1147.74" cy="224.30" r="3.2" fill="#1d4ed8"/>
<circle cx="1150.04" cy="226.32" r="3.2" fill="#1d4ed8"/>
<circle cx="1152.35" cy="224.30" r="3.2" fill="#1d4ed8"/>
<circle cx="1154.65" cy="225.51" r="3.2" fill="#1d4ed8"/>
<circle cx="1156.96" cy="225.51" r="3.2" fill="#1d4ed8"/>
<circle cx="1159.26" cy="225.51" r="3.2" fill="#1d4ed8"/>
<circle cx="1161.56" cy="225.92" r="3.2" fill="#1d4ed8"/>
<circle cx="1163.87" cy="223.09" r="3.2" fill="#1d4ed8"/>
<circle cx="1166.17" cy="223.49" r="3.2" fill="#1d4ed8"/>
<circle cx="1168.48" cy="223.09" r="3.2" fill="#1d4ed8"/>
<circle cx="1170.78" cy="223.09" r="3.2" fill="#1d4ed8"/>
<circle cx="1173.09" cy="223.90" r="3.2" fill="#1d4ed8"/>
<circle cx="1175.39" cy="223.49" r="3.2" fill="#1d4ed8"/>
<circle cx="1177.70" cy="223.49" r="3.2" fill="#1d4ed8"/>
<circle cx="1180.00" cy="223.09" r="3.2" fill="#1d4ed8"/>
<text x="635" y="695" text-anchor="middle" font-size="14" fill="#111" font-family="sans-serif">Date</text>
<text x="24" y="325" text-anchor="middle" font-size="14" fill="#111" transform="rotate(-90 24,325)" font-family="sans-serif">Passed files</text>
</svg>
