<?xml version="1.0" encoding="UTF-8"?>
<svg xmlns="http://www.w3.org/2000/svg" width="1280" height="720" viewBox="0 0 1280 720">
<rect width="100%" height="100%" fill="#ffffff"/>
<text x="640" y="30" text-anchor="middle" font-size="22" font-family="sans-serif">Roast passed files history</text>
<line x1="90" y1="600" x2="1180" y2="600" stroke="#333" stroke-width="1.5"/>
<line x1="90" y1="50" x2="90" y2="600" stroke="#333" stroke-width="1.5"/>
<line x1="90" y1="600.00" x2="1180" y2="600.00" stroke="#e5e7eb" stroke-width="1"/>
<text x="78" y="605.00" text-anchor="end" font-size="12" fill="#111" font-family="sans-serif">0</text>
<line x1="90" y1="397.79" x2="1180" y2="397.79" stroke="#e5e7eb" stroke-width="1"/>
<text x="78" y="402.79" text-anchor="end" font-size="12" fill="#111" font-family="sans-serif">500</text>
<line x1="90" y1="195.59" x2="1180" y2="195.59" stroke="#e5e7eb" stroke-width="1"/>
<text x="78" y="200.59" text-anchor="end" font-size="12" fill="#111" font-family="sans-serif">1000</text>
<line x1="90.00" y1="600" x2="90.00" y2="606" stroke="#333" stroke-width="1"/>
<text x="90.00" y="624" text-anchor="end" font-size="11" fill="#111" transform="rotate(-40 90.00,624)" font-family="sans-serif">2026-02-12</text>
<line x1="224.54" y1="600" x2="224.54" y2="606" stroke="#333" stroke-width="1"/>
<text x="224.54" y="624" text-anchor="end" font-size="11" fill="#111" transform="rotate(-40 224.54,624)" font-family="sans-serif">2026-02-18</text>
<line x1="359.08" y1="600" x2="359.08" y2="606" stroke="#333" stroke-width="1"/>
<text x="359.08" y="624" text-anchor="end" font-size="11" fill="#111" transform="rotate(-40 359.08,624)" font-family="sans-serif">2026-02-25</text>
<line x1="493.62" y1="600" x2="493.62" y2="606" stroke="#333" stroke-width="1"/>
<text x="493.62" y="624" text-anchor="end" font-size="11" fill="#111" transform="rotate(-40 493.62,624)" font-family="sans-serif">2026-02-28</text>
<line x1="628.16" y1="600" x2="628.16" y2="606" stroke="#333" stroke-width="1"/>
<text x="628.16" y="624" text-anchor="end" font-size="11" fill="#111" transform="rotate(-40 628.16,624)" font-family="sans-serif">2026-03-06</text>
<line x1="762.70" y1="600" x2="762.70" y2="606" stroke="#333" stroke-width="1"/>
<text x="762.70" y="624" text-anchor="end" font-size="11" fill="#111" transform="rotate(-40 762.70,624)" font-family="sans-serif">2026-03-08</text>
<line x1="897.24" y1="600" x2="897.24" y2="606" stroke="#333" stroke-width="1"/>
<text x="897.24" y="624" text-anchor="end" font-size="11" fill="#111" transform="rotate(-40 897.24,624)" font-family="sans-serif">2026-03-18</text>
<line x1="1031.78" y1="600" x2="1031.78" y2="606" stroke="#333" stroke-width="1"/>
<text x="1031.78" y="624" text-anchor="end" font-size="11" fill="#111" transform="rotate(-40 1031.78,624)" font-family="sans-serif">2026-03-20</text>
<line x1="1166.32" y1="600" x2="1166.32" y2="606" stroke="#333" stroke-width="1"/>
<text x="1166.32" y="624" text-anchor="end" font-size="11" fill="#111" transform="rotate(-40 1166.32,624)" font-family="sans-serif">2026-03-30</text>
<line x1="1180.00" y1="600" x2="1180.00" y2="606" stroke="#333" stroke-width="1"/>
<text x="1180.00" y="624" text-anchor="end" font-size="11" fill="#111" transform="rotate(-40 1180.00,624)" font-family="sans-serif">2026-03-30</text>
<line x1="90" y1="75.88" x2="1180" y2="75.88" stroke="#dc2626" stroke-width="1.5" stroke-dasharray="8,4"/>
<text x="1184" y="79.88" font-size="12" fill="#dc2626" font-family="sans-serif">Goal: 1296</text>
<polyline fill="none" stroke="#2563eb" stroke-width="3" points="90.00,540.55 92.28,538.53 94.56,536.91 96.84,534.49 99.12,534.49 101.40,533.27 103.68,532.46 105.96,532.87 108.24,532.06 110.52,532.46 112.80,532.06 115.08,568.46 117.36,568.46 119.64,566.43 121.92,545.00 124.21,545.00 126.49,544.19 128.77,543.79 131.05,543.79 133.33,543.38 135.61,541.76 137.89,541.36 140.17,540.96 142.45,540.96 144.73,539.34 147.01,539.34 149.29,556.73 151.57,556.73 153.85,555.51 156.13,551.07 158.41,538.93 160.69,538.93 162.97,538.93 165.25,538.12 167.53,536.91 169.81,536.91 172.09,536.51 174.37,536.51 176.65,556.73 178.93,556.73 181.21,556.73 183.49,556.73 185.77,535.29 188.05,535.29 190.33,535.29 192.62,535.29 194.90,534.49 197.18,534.08 199.46,533.68 201.74,532.87 204.02,532.06 206.30,532.06 208.58,531.25 210.86,530.85 213.14,530.44 215.42,530.04 217.70,530.04 219.98,529.23 222.26,529.23 224.54,529.23 226.82,528.42 229.10,528.42 231.38,527.61 233.66,527.21 235.94,526.80 238.22,526.40 240.50,525.18 242.78,523.57 245.06,523.57 247.34,523.16 249.62,522.76 251.90,522.35 254.18,521.54 256.46,519.52 258.74,517.50 261.03,517.50 263.31,517.50 265.59,517.50 267.87,517.50 270.15,517.50 272.43,517.10 274.71,516.69 276.99,515.48 279.27,515.07 281.55,514.67 283.83,513.86 286.11,514.26 288.39,512.24 290.67,511.84 292.95,511.84 295.23,511.03 297.51,509.82 299.79,507.79 302.07,506.99 304.35,506.58 306.63,509.41 308.91,509.01 311.19,504.96 313.47,504.56 315.75,504.15 318.03,504.56 320.31,503.75 322.59,503.75 324.87,503.35 327.15,499.30 329.44,496.47 331.72,490.00 334.00,484.34 336.28,481.10 338.56,480.29 340.84,480.70 343.12,460.88 345.40,459.26 347.68,458.05 349.96,456.03 352.24,456.03 354.52,454.41 356.80,450.77 359.08,444.30 361.36,443.90 363.64,600.00 365.92,441.88 368.20,440.66 370.48,439.45 372.76,439.04 375.04,438.64 377.32,437.83 379.60,436.62 381.88,436.62 384.16,434.60 386.44,432.17 388.72,429.34 391.00,428.93 393.28,428.53 395.56,427.72 397.85,426.91 400.13,426.10 402.41,426.10 404.69,426.10 406.97,419.63 409.25,419.23 411.53,418.42 413.81,418.01 416.09,417.61 418.37,417.61 420.65,417.61 422.93,417.21 425.21,417.21 427.49,413.57 429.77,411.95 432.05,412.76 434.33,410.74 436.61,410.74 438.89,410.33 441.17,410.33 443.45,410.33 445.73,409.93 448.01,409.93 450.29,409.93 452.57,409.52 454.85,409.52 457.13,409.12 459.41,409.52 461.69,409.12 463.97,407.50 466.26,407.10 468.54,403.05 470.82,399.82 473.10,400.22 475.38,400.62 477.66,400.62 479.94,399.41 482.22,392.94 484.50,391.32 486.78,389.30 489.06,389.30 491.34,388.49 493.62,375.15 495.90,374.74 498.18,374.74 500.46,374.74 502.74,374.74 505.02,374.34 507.30,374.34 509.58,374.34 511.86,374.34 514.14,374.34 516.42,373.93 518.70,373.12 520.98,372.72 523.26,373.53 525.54,435.81 527.82,372.32 530.10,372.72 532.38,371.91 534.67,371.91 536.95,372.32 539.23,371.10 541.51,369.89 543.79,369.89 546.07,369.89 548.35,369.49 550.63,369.89 552.91,369.08 555.19,368.68 557.47,368.27 559.75,367.87 562.03,367.06 564.31,367.46 566.59,367.06 568.87,366.25 571.15,368.27 573.43,368.68 575.71,368.68 577.99,368.27 580.27,369.08 582.55,367.87 584.83,367.46 587.11,367.06 589.39,360.18 591.67,359.78 593.95,359.38 596.23,356.95 598.51,357.35 600.79,357.76 603.08,355.33 605.36,355.74 607.64,357.35 609.92,355.33 612.20,356.14 614.48,355.74 616.76,356.14 619.04,354.12 621.32,354.93 623.60,356.14 625.88,354.52 628.16,353.71 630.44,354.12 632.72,354.93 635.00,352.90 637.28,353.71 639.56,353.31 641.84,353.31 644.12,354.52 646.40,352.90 648.68,352.50 650.96,352.50 653.24,353.31 655.52,352.50 657.80,353.71 660.08,354.12 662.36,352.50 664.64,352.90 666.92,352.50 669.21,352.10 671.49,351.69 673.77,352.10 676.05,354.12 678.33,352.50 680.61,352.10 682.89,352.10 685.17,349.67 687.45,349.67 689.73,350.88 692.01,351.29 694.29,350.48 696.57,352.10 698.85,350.48 701.13,350.48 703.41,350.48 705.69,350.07 707.97,348.46 710.25,351.29 712.53,349.67 714.81,351.29 717.09,349.67 719.37,348.86 721.65,348.46 723.93,348.46 726.21,347.24 728.49,348.86 730.77,346.84 733.05,348.46 735.33,348.86 737.62,346.84 739.90,349.26 742.18,348.05 744.46,349.26 746.74,349.26 749.02,350.48 751.30,352.90 753.58,349.67 755.86,348.46 758.14,345.62 760.42,344.82 762.70,344.41 764.98,342.39 767.26,341.18 769.54,341.58 771.82,339.15 774.10,338.35 776.38,337.54 778.66,336.73 780.94,335.92 783.22,337.54 785.50,338.35 787.78,337.54 790.06,337.54 792.34,337.54 794.62,333.09 796.90,333.90 799.18,335.92 801.46,336.73 803.74,335.51 806.03,332.28 808.31,331.47 810.59,331.07 812.87,331.47 815.15,331.07 817.43,331.07 819.71,331.07 821.99,331.07 824.27,331.07 826.55,331.07 828.83,331.07 831.11,331.07 833.39,331.07 835.67,331.07 837.95,331.47 840.23,331.88 842.51,331.07 844.79,331.47 847.07,331.07 849.35,331.47 851.63,331.07 853.91,324.19 856.19,324.19 858.47,318.93 860.75,316.51 863.03,310.44 865.31,308.01 867.59,600.00 869.87,301.54 872.15,290.22 874.44,287.79 876.72,286.18 879.00,285.77 881.28,285.77 883.56,285.77 885.84,286.18 888.12,285.77 890.40,285.77 892.68,285.77 894.96,283.35 897.24,282.94 899.52,282.94 901.80,283.35 904.08,282.94 906.36,282.94 908.64,283.75 910.92,282.13 913.20,282.13 915.48,282.54 917.76,282.13 920.04,282.54 922.32,282.94 924.60,281.73 926.88,282.54 929.16,281.73 931.44,282.54 933.72,282.13 936.00,282.13 938.28,281.73 940.56,281.73 942.85,281.32 945.13,281.73 947.41,282.13 949.69,281.32 951.97,281.32 954.25,282.54 956.53,282.13 958.81,281.32 961.09,281.32 963.37,281.32 965.65,282.54 967.93,282.13 970.21,281.32 972.49,282.13 974.77,281.73 977.05,282.13 979.33,280.11 981.61,280.11 983.89,280.51 986.17,279.71 988.45,280.11 990.73,280.51 993.01,279.71 995.29,280.11 997.57,280.11 999.85,279.30 1002.13,278.90 1004.41,278.90 1006.69,280.51 1008.97,279.30 1011.26,278.09 1013.54,278.49 1015.82,278.49 1018.10,277.28 1020.38,277.68 1022.66,277.68 1024.94,278.09 1027.22,277.28 1029.50,600.00 1031.78,278.90 1034.06,279.30 1036.34,278.90 1038.62,278.49 1040.90,278.49 1043.18,278.49 1045.46,278.49 1047.74,278.49 1050.02,278.49 1052.30,278.49 1054.58,278.49 1056.86,278.49 1059.14,278.49 1061.42,278.49 1063.70,278.49 1065.98,600.00 1068.26,600.00 1070.54,254.63 1072.82,600.00 1075.10,245.74 1077.38,245.74 1079.67,246.14 1081.95,245.74 1084.23,245.74 1086.51,245.74 1088.79,245.74 1091.07,245.74 1093.35,240.07 1095.63,238.05 1097.91,238.05 1100.19,227.13 1102.47,227.13 1104.75,226.32 1107.03,227.54 1109.31,226.73 1111.59,226.32 1113.87,227.13 1116.15,227.13 1118.43,226.73 1120.71,226.32 1122.99,226.73 1125.27,226.73 1127.55,226.73 1129.83,225.11 1132.11,224.71 1134.39,225.11 1136.67,224.30 1138.95,226.32 1141.23,224.30 1143.51,225.51 1145.79,225.51 1148.08,225.51 1150.36,225.92 1152.64,223.09 1154.92,223.49 1157.20,223.09 1159.48,223.09 1161.76,223.90 1164.04,223.49 1166.32,223.49 1168.60,223.09 1170.88,223.09 1173.16,223.49 1175.44,223.09 1177.72,223.09 1180.00,223.49"/>
<circle cx="90.00" cy="540.55" r="3.2" fill="#1d4ed8"/>
<circle cx="92.28" cy="538.53" r="3.2" fill="#1d4ed8"/>
<circle cx="94.56" cy="536.91" r="3.2" fill="#1d4ed8"/>
<circle cx="96.84" cy="534.49" r="3.2" fill="#1d4ed8"/>
<circle cx="99.12" cy="534.49" r="3.2" fill="#1d4ed8"/>
<circle cx="101.40" cy="533.27" r="3.2" fill="#1d4ed8"/>
<circle cx="103.68" cy="532.46" r="3.2" fill="#1d4ed8"/>
<circle cx="105.96" cy="532.87" r="3.2" fill="#1d4ed8"/>
<circle cx="108.24" cy="532.06" r="3.2" fill="#1d4ed8"/>
<circle cx="110.52" cy="532.46" r="3.2" fill="#1d4ed8"/>
<circle cx="112.80" cy="532.06" r="3.2" fill="#1d4ed8"/>
<circle cx="115.08" cy="568.46" r="3.2" fill="#1d4ed8"/>
<circle cx="117.36" cy="568.46" r="3.2" fill="#1d4ed8"/>
<circle cx="119.64" cy="566.43" r="3.2" fill="#1d4ed8"/>
<circle cx="121.92" cy="545.00" r="3.2" fill="#1d4ed8"/>
<circle cx="124.21" cy="545.00" r="3.2" fill="#1d4ed8"/>
<circle cx="126.49" cy="544.19" r="3.2" fill="#1d4ed8"/>
<circle cx="128.77" cy="543.79" r="3.2" fill="#1d4ed8"/>
<circle cx="131.05" cy="543.79" r="3.2" fill="#1d4ed8"/>
<circle cx="133.33" cy="543.38" r="3.2" fill="#1d4ed8"/>
<circle cx="135.61" cy="541.76" r="3.2" fill="#1d4ed8"/>
<circle cx="137.89" cy="541.36" r="3.2" fill="#1d4ed8"/>
<circle cx="140.17" cy="540.96" r="3.2" fill="#1d4ed8"/>
<circle cx="142.45" cy="540.96" r="3.2" fill="#1d4ed8"/>
<circle cx="144.73" cy="539.34" r="3.2" fill="#1d4ed8"/>
<circle cx="147.01" cy="539.34" r="3.2" fill="#1d4ed8"/>
<circle cx="149.29" cy="556.73" r="3.2" fill="#1d4ed8"/>
<circle cx="151.57" cy="556.73" r="3.2" fill="#1d4ed8"/>
<circle cx="153.85" cy="555.51" r="3.2" fill="#1d4ed8"/>
<circle cx="156.13" cy="551.07" r="3.2" fill="#1d4ed8"/>
<circle cx="158.41" cy="538.93" r="3.2" fill="#1d4ed8"/>
<circle cx="160.69" cy="538.93" r="3.2" fill="#1d4ed8"/>
<circle cx="162.97" cy="538.93" r="3.2" fill="#1d4ed8"/>
<circle cx="165.25" cy="538.12" r="3.2" fill="#1d4ed8"/>
<circle cx="167.53" cy="536.91" r="3.2" fill="#1d4ed8"/>
<circle cx="169.81" cy="536.91" r="3.2" fill="#1d4ed8"/>
<circle cx="172.09" cy="536.51" r="3.2" fill="#1d4ed8"/>
<circle cx="174.37" cy="536.51" r="3.2" fill="#1d4ed8"/>
<circle cx="176.65" cy="556.73" r="3.2" fill="#1d4ed8"/>
<circle cx="178.93" cy="556.73" r="3.2" fill="#1d4ed8"/>
<circle cx="181.21" cy="556.73" r="3.2" fill="#1d4ed8"/>
<circle cx="183.49" cy="556.73" r="3.2" fill="#1d4ed8"/>
<circle cx="185.77" cy="535.29" r="3.2" fill="#1d4ed8"/>
<circle cx="188.05" cy="535.29" r="3.2" fill="#1d4ed8"/>
<circle cx="190.33" cy="535.29" r="3.2" fill="#1d4ed8"/>
<circle cx="192.62" cy="535.29" r="3.2" fill="#1d4ed8"/>
<circle cx="194.90" cy="534.49" r="3.2" fill="#1d4ed8"/>
<circle cx="197.18" cy="534.08" r="3.2" fill="#1d4ed8"/>
<circle cx="199.46" cy="533.68" r="3.2" fill="#1d4ed8"/>
<circle cx="201.74" cy="532.87" r="3.2" fill="#1d4ed8"/>
<circle cx="204.02" cy="532.06" r="3.2" fill="#1d4ed8"/>
<circle cx="206.30" cy="532.06" r="3.2" fill="#1d4ed8"/>
<circle cx="208.58" cy="531.25" r="3.2" fill="#1d4ed8"/>
<circle cx="210.86" cy="530.85" r="3.2" fill="#1d4ed8"/>
<circle cx="213.14" cy="530.44" r="3.2" fill="#1d4ed8"/>
<circle cx="215.42" cy="530.04" r="3.2" fill="#1d4ed8"/>
<circle cx="217.70" cy="530.04" r="3.2" fill="#1d4ed8"/>
<circle cx="219.98" cy="529.23" r="3.2" fill="#1d4ed8"/>
<circle cx="222.26" cy="529.23" r="3.2" fill="#1d4ed8"/>
<circle cx="224.54" cy="529.23" r="3.2" fill="#1d4ed8"/>
<circle cx="226.82" cy="528.42" r="3.2" fill="#1d4ed8"/>
<circle cx="229.10" cy="528.42" r="3.2" fill="#1d4ed8"/>
<circle cx="231.38" cy="527.61" r="3.2" fill="#1d4ed8"/>
<circle cx="233.66" cy="527.21" r="3.2" fill="#1d4ed8"/>
<circle cx="235.94" cy="526.80" r="3.2" fill="#1d4ed8"/>
<circle cx="238.22" cy="526.40" r="3.2" fill="#1d4ed8"/>
<circle cx="240.50" cy="525.18" r="3.2" fill="#1d4ed8"/>
<circle cx="242.78" cy="523.57" r="3.2" fill="#1d4ed8"/>
<circle cx="245.06" cy="523.57" r="3.2" fill="#1d4ed8"/>
<circle cx="247.34" cy="523.16" r="3.2" fill="#1d4ed8"/>
<circle cx="249.62" cy="522.76" r="3.2" fill="#1d4ed8"/>
<circle cx="251.90" cy="522.35" r="3.2" fill="#1d4ed8"/>
<circle cx="254.18" cy="521.54" r="3.2" fill="#1d4ed8"/>
<circle cx="256.46" cy="519.52" r="3.2" fill="#1d4ed8"/>
<circle cx="258.74" cy="517.50" r="3.2" fill="#1d4ed8"/>
<circle cx="261.03" cy="517.50" r="3.2" fill="#1d4ed8"/>
<circle cx="263.31" cy="517.50" r="3.2" fill="#1d4ed8"/>
<circle cx="265.59" cy="517.50" r="3.2" fill="#1d4ed8"/>
<circle cx="267.87" cy="517.50" r="3.2" fill="#1d4ed8"/>
<circle cx="270.15" cy="517.50" r="3.2" fill="#1d4ed8"/>
<circle cx="272.43" cy="517.10" r="3.2" fill="#1d4ed8"/>
<circle cx="274.71" cy="516.69" r="3.2" fill="#1d4ed8"/>
<circle cx="276.99" cy="515.48" r="3.2" fill="#1d4ed8"/>
<circle cx="279.27" cy="515.07" r="3.2" fill="#1d4ed8"/>
<circle cx="281.55" cy="514.67" r="3.2" fill="#1d4ed8"/>
<circle cx="283.83" cy="513.86" r="3.2" fill="#1d4ed8"/>
<circle cx="286.11" cy="514.26" r="3.2" fill="#1d4ed8"/>
<circle cx="288.39" cy="512.24" r="3.2" fill="#1d4ed8"/>
<circle cx="290.67" cy="511.84" r="3.2" fill="#1d4ed8"/>
<circle cx="292.95" cy="511.84" r="3.2" fill="#1d4ed8"/>
<circle cx="295.23" cy="511.03" r="3.2" fill="#1d4ed8"/>
<circle cx="297.51" cy="509.82" r="3.2" fill="#1d4ed8"/>
<circle cx="299.79" cy="507.79" r="3.2" fill="#1d4ed8"/>
<circle cx="302.07" cy="506.99" r="3.2" fill="#1d4ed8"/>
<circle cx="304.35" cy="506.58" r="3.2" fill="#1d4ed8"/>
<circle cx="306.63" cy="509.41" r="3.2" fill="#1d4ed8"/>
<circle cx="308.91" cy="509.01" r="3.2" fill="#1d4ed8"/>
<circle cx="311.19" cy="504.96" r="3.2" fill="#1d4ed8"/>
<circle cx="313.47" cy="504.56" r="3.2" fill="#1d4ed8"/>
<circle cx="315.75" cy="504.15" r="3.2" fill="#1d4ed8"/>
<circle cx="318.03" cy="504.56" r="3.2" fill="#1d4ed8"/>
<circle cx="320.31" cy="503.75" r="3.2" fill="#1d4ed8"/>
<circle cx="322.59" cy="503.75" r="3.2" fill="#1d4ed8"/>
<circle cx="324.87" cy="503.35" r="3.2" fill="#1d4ed8"/>
<circle cx="327.15" cy="499.30" r="3.2" fill="#1d4ed8"/>
<circle cx="329.44" cy="496.47" r="3.2" fill="#1d4ed8"/>
<circle cx="331.72" cy="490.00" r="3.2" fill="#1d4ed8"/>
<circle cx="334.00" cy="484.34" r="3.2" fill="#1d4ed8"/>
<circle cx="336.28" cy="481.10" r="3.2" fill="#1d4ed8"/>
<circle cx="338.56" cy="480.29" r="3.2" fill="#1d4ed8"/>
<circle cx="340.84" cy="480.70" r="3.2" fill="#1d4ed8"/>
<circle cx="343.12" cy="460.88" r="3.2" fill="#1d4ed8"/>
<circle cx="345.40" cy="459.26" r="3.2" fill="#1d4ed8"/>
<circle cx="347.68" cy="458.05" r="3.2" fill="#1d4ed8"/>
<circle cx="349.96" cy="456.03" r="3.2" fill="#1d4ed8"/>
<circle cx="352.24" cy="456.03" r="3.2" fill="#1d4ed8"/>
<circle cx="354.52" cy="454.41" r="3.2" fill="#1d4ed8"/>
<circle cx="356.80" cy="450.77" r="3.2" fill="#1d4ed8"/>
<circle cx="359.08" cy="444.30" r="3.2" fill="#1d4ed8"/>
<circle cx="361.36" cy="443.90" r="3.2" fill="#1d4ed8"/>
<circle cx="363.64" cy="600.00" r="3.2" fill="#1d4ed8"/>
<circle cx="365.92" cy="441.88" r="3.2" fill="#1d4ed8"/>
<circle cx="368.20" cy="440.66" r="3.2" fill="#1d4ed8"/>
<circle cx="370.48" cy="439.45" r="3.2" fill="#1d4ed8"/>
<circle cx="372.76" cy="439.04" r="3.2" fill="#1d4ed8"/>
<circle cx="375.04" cy="438.64" r="3.2" fill="#1d4ed8"/>
<circle cx="377.32" cy="437.83" r="3.2" fill="#1d4ed8"/>
<circle cx="379.60" cy="436.62" r="3.2" fill="#1d4ed8"/>
<circle cx="381.88" cy="436.62" r="3.2" fill="#1d4ed8"/>
<circle cx="384.16" cy="434.60" r="3.2" fill="#1d4ed8"/>
<circle cx="386.44" cy="432.17" r="3.2" fill="#1d4ed8"/>
<circle cx="388.72" cy="429.34" r="3.2" fill="#1d4ed8"/>
<circle cx="391.00" cy="428.93" r="3.2" fill="#1d4ed8"/>
<circle cx="393.28" cy="428.53" r="3.2" fill="#1d4ed8"/>
<circle cx="395.56" cy="427.72" r="3.2" fill="#1d4ed8"/>
<circle cx="397.85" cy="426.91" r="3.2" fill="#1d4ed8"/>
<circle cx="400.13" cy="426.10" r="3.2" fill="#1d4ed8"/>
<circle cx="402.41" cy="426.10" r="3.2" fill="#1d4ed8"/>
<circle cx="404.69" cy="426.10" r="3.2" fill="#1d4ed8"/>
<circle cx="406.97" cy="419.63" r="3.2" fill="#1d4ed8"/>
<circle cx="409.25" cy="419.23" r="3.2" fill="#1d4ed8"/>
<circle cx="411.53" cy="418.42" r="3.2" fill="#1d4ed8"/>
<circle cx="413.81" cy="418.01" r="3.2" fill="#1d4ed8"/>
<circle cx="416.09" cy="417.61" r="3.2" fill="#1d4ed8"/>
<circle cx="418.37" cy="417.61" r="3.2" fill="#1d4ed8"/>
<circle cx="420.65" cy="417.61" r="3.2" fill="#1d4ed8"/>
<circle cx="422.93" cy="417.21" r="3.2" fill="#1d4ed8"/>
<circle cx="425.21" cy="417.21" r="3.2" fill="#1d4ed8"/>
<circle cx="427.49" cy="413.57" r="3.2" fill="#1d4ed8"/>
<circle cx="429.77" cy="411.95" r="3.2" fill="#1d4ed8"/>
<circle cx="432.05" cy="412.76" r="3.2" fill="#1d4ed8"/>
<circle cx="434.33" cy="410.74" r="3.2" fill="#1d4ed8"/>
<circle cx="436.61" cy="410.74" r="3.2" fill="#1d4ed8"/>
<circle cx="438.89" cy="410.33" r="3.2" fill="#1d4ed8"/>
<circle cx="441.17" cy="410.33" r="3.2" fill="#1d4ed8"/>
<circle cx="443.45" cy="410.33" r="3.2" fill="#1d4ed8"/>
<circle cx="445.73" cy="409.93" r="3.2" fill="#1d4ed8"/>
<circle cx="448.01" cy="409.93" r="3.2" fill="#1d4ed8"/>
<circle cx="450.29" cy="409.93" r="3.2" fill="#1d4ed8"/>
<circle cx="452.57" cy="409.52" r="3.2" fill="#1d4ed8"/>
<circle cx="454.85" cy="409.52" r="3.2" fill="#1d4ed8"/>
<circle cx="457.13" cy="409.12" r="3.2" fill="#1d4ed8"/>
<circle cx="459.41" cy="409.52" r="3.2" fill="#1d4ed8"/>
<circle cx="461.69" cy="409.12" r="3.2" fill="#1d4ed8"/>
<circle cx="463.97" cy="407.50" r="3.2" fill="#1d4ed8"/>
<circle cx="466.26" cy="407.10" r="3.2" fill="#1d4ed8"/>
<circle cx="468.54" cy="403.05" r="3.2" fill="#1d4ed8"/>
<circle cx="470.82" cy="399.82" r="3.2" fill="#1d4ed8"/>
<circle cx="473.10" cy="400.22" r="3.2" fill="#1d4ed8"/>
<circle cx="475.38" cy="400.62" r="3.2" fill="#1d4ed8"/>
<circle cx="477.66" cy="400.62" r="3.2" fill="#1d4ed8"/>
<circle cx="479.94" cy="399.41" r="3.2" fill="#1d4ed8"/>
<circle cx="482.22" cy="392.94" r="3.2" fill="#1d4ed8"/>
<circle cx="484.50" cy="391.32" r="3.2" fill="#1d4ed8"/>
<circle cx="486.78" cy="389.30" r="3.2" fill="#1d4ed8"/>
<circle cx="489.06" cy="389.30" r="3.2" fill="#1d4ed8"/>
<circle cx="491.34" cy="388.49" r="3.2" fill="#1d4ed8"/>
<circle cx="493.62" cy="375.15" r="3.2" fill="#1d4ed8"/>
<circle cx="495.90" cy="374.74" r="3.2" fill="#1d4ed8"/>
<circle cx="498.18" cy="374.74" r="3.2" fill="#1d4ed8"/>
<circle cx="500.46" cy="374.74" r="3.2" fill="#1d4ed8"/>
<circle cx="502.74" cy="374.74" r="3.2" fill="#1d4ed8"/>
<circle cx="505.02" cy="374.34" r="3.2" fill="#1d4ed8"/>
<circle cx="507.30" cy="374.34" r="3.2" fill="#1d4ed8"/>
<circle cx="509.58" cy="374.34" r="3.2" fill="#1d4ed8"/>
<circle cx="511.86" cy="374.34" r="3.2" fill="#1d4ed8"/>
<circle cx="514.14" cy="374.34" r="3.2" fill="#1d4ed8"/>
<circle cx="516.42" cy="373.93" r="3.2" fill="#1d4ed8"/>
<circle cx="518.70" cy="373.12" r="3.2" fill="#1d4ed8"/>
<circle cx="520.98" cy="372.72" r="3.2" fill="#1d4ed8"/>
<circle cx="523.26" cy="373.53" r="3.2" fill="#1d4ed8"/>
<circle cx="525.54" cy="435.81" r="3.2" fill="#1d4ed8"/>
<circle cx="527.82" cy="372.32" r="3.2" fill="#1d4ed8"/>
<circle cx="530.10" cy="372.72" r="3.2" fill="#1d4ed8"/>
<circle cx="532.38" cy="371.91" r="3.2" fill="#1d4ed8"/>
<circle cx="534.67" cy="371.91" r="3.2" fill="#1d4ed8"/>
<circle cx="536.95" cy="372.32" r="3.2" fill="#1d4ed8"/>
<circle cx="539.23" cy="371.10" r="3.2" fill="#1d4ed8"/>
<circle cx="541.51" cy="369.89" r="3.2" fill="#1d4ed8"/>
<circle cx="543.79" cy="369.89" r="3.2" fill="#1d4ed8"/>
<circle cx="546.07" cy="369.89" r="3.2" fill="#1d4ed8"/>
<circle cx="548.35" cy="369.49" r="3.2" fill="#1d4ed8"/>
<circle cx="550.63" cy="369.89" r="3.2" fill="#1d4ed8"/>
<circle cx="552.91" cy="369.08" r="3.2" fill="#1d4ed8"/>
<circle cx="555.19" cy="368.68" r="3.2" fill="#1d4ed8"/>
<circle cx="557.47" cy="368.27" r="3.2" fill="#1d4ed8"/>
<circle cx="559.75" cy="367.87" r="3.2" fill="#1d4ed8"/>
<circle cx="562.03" cy="367.06" r="3.2" fill="#1d4ed8"/>
<circle cx="564.31" cy="367.46" r="3.2" fill="#1d4ed8"/>
<circle cx="566.59" cy="367.06" r="3.2" fill="#1d4ed8"/>
<circle cx="568.87" cy="366.25" r="3.2" fill="#1d4ed8"/>
<circle cx="571.15" cy="368.27" r="3.2" fill="#1d4ed8"/>
<circle cx="573.43" cy="368.68" r="3.2" fill="#1d4ed8"/>
<circle cx="575.71" cy="368.68" r="3.2" fill="#1d4ed8"/>
<circle cx="577.99" cy="368.27" r="3.2" fill="#1d4ed8"/>
<circle cx="580.27" cy="369.08" r="3.2" fill="#1d4ed8"/>
<circle cx="582.55" cy="367.87" r="3.2" fill="#1d4ed8"/>
<circle cx="584.83" cy="367.46" r="3.2" fill="#1d4ed8"/>
<circle cx="587.11" cy="367.06" r="3.2" fill="#1d4ed8"/>
<circle cx="589.39" cy="360.18" r="3.2" fill="#1d4ed8"/>
<circle cx="591.67" cy="359.78" r="3.2" fill="#1d4ed8"/>
<circle cx="593.95" cy="359.38" r="3.2" fill="#1d4ed8"/>
<circle cx="596.23" cy="356.95" r="3.2" fill="#1d4ed8"/>
<circle cx="598.51" cy="357.35" r="3.2" fill="#1d4ed8"/>
<circle cx="600.79" cy="357.76" r="3.2" fill="#1d4ed8"/>
<circle cx="603.08" cy="355.33" r="3.2" fill="#1d4ed8"/>
<circle cx="605.36" cy="355.74" r="3.2" fill="#1d4ed8"/>
<circle cx="607.64" cy="357.35" r="3.2" fill="#1d4ed8"/>
<circle cx="609.92" cy="355.33" r="3.2" fill="#1d4ed8"/>
<circle cx="612.20" cy="356.14" r="3.2" fill="#1d4ed8"/>
<circle cx="614.48" cy="355.74" r="3.2" fill="#1d4ed8"/>
<circle cx="616.76" cy="356.14" r="3.2" fill="#1d4ed8"/>
<circle cx="619.04" cy="354.12" r="3.2" fill="#1d4ed8"/>
<circle cx="621.32" cy="354.93" r="3.2" fill="#1d4ed8"/>
<circle cx="623.60" cy="356.14" r="3.2" fill="#1d4ed8"/>
<circle cx="625.88" cy="354.52" r="3.2" fill="#1d4ed8"/>
<circle cx="628.16" cy="353.71" r="3.2" fill="#1d4ed8"/>
<circle cx="630.44" cy="354.12" r="3.2" fill="#1d4ed8"/>
<circle cx="632.72" cy="354.93" r="3.2" fill="#1d4ed8"/>
<circle cx="635.00" cy="352.90" r="3.2" fill="#1d4ed8"/>
<circle cx="637.28" cy="353.71" r="3.2" fill="#1d4ed8"/>
<circle cx="639.56" cy="353.31" r="3.2" fill="#1d4ed8"/>
<circle cx="641.84" cy="353.31" r="3.2" fill="#1d4ed8"/>
<circle cx="644.12" cy="354.52" r="3.2" fill="#1d4ed8"/>
<circle cx="646.40" cy="352.90" r="3.2" fill="#1d4ed8"/>
<circle cx="648.68" cy="352.50" r="3.2" fill="#1d4ed8"/>
<circle cx="650.96" cy="352.50" r="3.2" fill="#1d4ed8"/>
<circle cx="653.24" cy="353.31" r="3.2" fill="#1d4ed8"/>
<circle cx="655.52" cy="352.50" r="3.2" fill="#1d4ed8"/>
<circle cx="657.80" cy="353.71" r="3.2" fill="#1d4ed8"/>
<circle cx="660.08" cy="354.12" r="3.2" fill="#1d4ed8"/>
<circle cx="662.36" cy="352.50" r="3.2" fill="#1d4ed8"/>
<circle cx="664.64" cy="352.90" r="3.2" fill="#1d4ed8"/>
<circle cx="666.92" cy="352.50" r="3.2" fill="#1d4ed8"/>
<circle cx="669.21" cy="352.10" r="3.2" fill="#1d4ed8"/>
<circle cx="671.49" cy="351.69" r="3.2" fill="#1d4ed8"/>
<circle cx="673.77" cy="352.10" r="3.2" fill="#1d4ed8"/>
<circle cx="676.05" cy="354.12" r="3.2" fill="#1d4ed8"/>
<circle cx="678.33" cy="352.50" r="3.2" fill="#1d4ed8"/>
<circle cx="680.61" cy="352.10" r="3.2" fill="#1d4ed8"/>
<circle cx="682.89" cy="352.10" r="3.2" fill="#1d4ed8"/>
<circle cx="685.17" cy="349.67" r="3.2" fill="#1d4ed8"/>
<circle cx="687.45" cy="349.67" r="3.2" fill="#1d4ed8"/>
<circle cx="689.73" cy="350.88" r="3.2" fill="#1d4ed8"/>
<circle cx="692.01" cy="351.29" r="3.2" fill="#1d4ed8"/>
<circle cx="694.29" cy="350.48" r="3.2" fill="#1d4ed8"/>
<circle cx="696.57" cy="352.10" r="3.2" fill="#1d4ed8"/>
<circle cx="698.85" cy="350.48" r="3.2" fill="#1d4ed8"/>
<circle cx="701.13" cy="350.48" r="3.2" fill="#1d4ed8"/>
<circle cx="703.41" cy="350.48" r="3.2" fill="#1d4ed8"/>
<circle cx="705.69" cy="350.07" r="3.2" fill="#1d4ed8"/>
<circle cx="707.97" cy="348.46" r="3.2" fill="#1d4ed8"/>
<circle cx="710.25" cy="351.29" r="3.2" fill="#1d4ed8"/>
<circle cx="712.53" cy="349.67" r="3.2" fill="#1d4ed8"/>
<circle cx="714.81" cy="351.29" r="3.2" fill="#1d4ed8"/>
<circle cx="717.09" cy="349.67" r="3.2" fill="#1d4ed8"/>
<circle cx="719.37" cy="348.86" r="3.2" fill="#1d4ed8"/>
<circle cx="721.65" cy="348.46" r="3.2" fill="#1d4ed8"/>
<circle cx="723.93" cy="348.46" r="3.2" fill="#1d4ed8"/>
<circle cx="726.21" cy="347.24" r="3.2" fill="#1d4ed8"/>
<circle cx="728.49" cy="348.86" r="3.2" fill="#1d4ed8"/>
<circle cx="730.77" cy="346.84" r="3.2" fill="#1d4ed8"/>
<circle cx="733.05" cy="348.46" r="3.2" fill="#1d4ed8"/>
<circle cx="735.33" cy="348.86" r="3.2" fill="#1d4ed8"/>
<circle cx="737.62" cy="346.84" r="3.2" fill="#1d4ed8"/>
<circle cx="739.90" cy="349.26" r="3.2" fill="#1d4ed8"/>
<circle cx="742.18" cy="348.05" r="3.2" fill="#1d4ed8"/>
<circle cx="744.46" cy="349.26" r="3.2" fill="#1d4ed8"/>
<circle cx="746.74" cy="349.26" r="3.2" fill="#1d4ed8"/>
<circle cx="749.02" cy="350.48" r="3.2" fill="#1d4ed8"/>
<circle cx="751.30" cy="352.90" r="3.2" fill="#1d4ed8"/>
<circle cx="753.58" cy="349.67" r="3.2" fill="#1d4ed8"/>
<circle cx="755.86" cy="348.46" r="3.2" fill="#1d4ed8"/>
<circle cx="758.14" cy="345.62" r="3.2" fill="#1d4ed8"/>
<circle cx="760.42" cy="344.82" r="3.2" fill="#1d4ed8"/>
<circle cx="762.70" cy="344.41" r="3.2" fill="#1d4ed8"/>
<circle cx="764.98" cy="342.39" r="3.2" fill="#1d4ed8"/>
<circle cx="767.26" cy="341.18" r="3.2" fill="#1d4ed8"/>
<circle cx="769.54" cy="341.58" r="3.2" fill="#1d4ed8"/>
<circle cx="771.82" cy="339.15" r="3.2" fill="#1d4ed8"/>
<circle cx="774.10" cy="338.35" r="3.2" fill="#1d4ed8"/>
<circle cx="776.38" cy="337.54" r="3.2" fill="#1d4ed8"/>
<circle cx="778.66" cy="336.73" r="3.2" fill="#1d4ed8"/>
<circle cx="780.94" cy="335.92" r="3.2" fill="#1d4ed8"/>
<circle cx="783.22" cy="337.54" r="3.2" fill="#1d4ed8"/>
<circle cx="785.50" cy="338.35" r="3.2" fill="#1d4ed8"/>
<circle cx="787.78" cy="337.54" r="3.2" fill="#1d4ed8"/>
<circle cx="790.06" cy="337.54" r="3.2" fill="#1d4ed8"/>
<circle cx="792.34" cy="337.54" r="3.2" fill="#1d4ed8"/>
<circle cx="794.62" cy="333.09" r="3.2" fill="#1d4ed8"/>
<circle cx="796.90" cy="333.90" r="3.2" fill="#1d4ed8"/>
<circle cx="799.18" cy="335.92" r="3.2" fill="#1d4ed8"/>
<circle cx="801.46" cy="336.73" r="3.2" fill="#1d4ed8"/>
<circle cx="803.74" cy="335.51" r="3.2" fill="#1d4ed8"/>
<circle cx="806.03" cy="332.28" r="3.2" fill="#1d4ed8"/>
<circle cx="808.31" cy="331.47" r="3.2" fill="#1d4ed8"/>
<circle cx="810.59" cy="331.07" r="3.2" fill="#1d4ed8"/>
<circle cx="812.87" cy="331.47" r="3.2" fill="#1d4ed8"/>
<circle cx="815.15" cy="331.07" r="3.2" fill="#1d4ed8"/>
<circle cx="817.43" cy="331.07" r="3.2" fill="#1d4ed8"/>
<circle cx="819.71" cy="331.07" r="3.2" fill="#1d4ed8"/>
<circle cx="821.99" cy="331.07" r="3.2" fill="#1d4ed8"/>
<circle cx="824.27" cy="331.07" r="3.2" fill="#1d4ed8"/>
<circle cx="826.55" cy="331.07" r="3.2" fill="#1d4ed8"/>
<circle cx="828.83" cy="331.07" r="3.2" fill="#1d4ed8"/>
<circle cx="831.11" cy="331.07" r="3.2" fill="#1d4ed8"/>
<circle cx="833.39" cy="331.07" r="3.2" fill="#1d4ed8"/>
<circle cx="835.67" cy="331.07" r="3.2" fill="#1d4ed8"/>
<circle cx="837.95" cy="331.47" r="3.2" fill="#1d4ed8"/>
<circle cx="840.23" cy="331.88" r="3.2" fill="#1d4ed8"/>
<circle cx="842.51" cy="331.07" r="3.2" fill="#1d4ed8"/>
<circle cx="844.79" cy="331.47" r="3.2" fill="#1d4ed8"/>
<circle cx="847.07" cy="331.07" r="3.2" fill="#1d4ed8"/>
<circle cx="849.35" cy="331.47" r="3.2" fill="#1d4ed8"/>
<circle cx="851.63" cy="331.07" r="3.2" fill="#1d4ed8"/>
<circle cx="853.91" cy="324.19" r="3.2" fill="#1d4ed8"/>
<circle cx="856.19" cy="324.19" r="3.2" fill="#1d4ed8"/>
<circle cx="858.47" cy="318.93" r="3.2" fill="#1d4ed8"/>
<circle cx="860.75" cy="316.51" r="3.2" fill="#1d4ed8"/>
<circle cx="863.03" cy="310.44" r="3.2" fill="#1d4ed8"/>
<circle cx="865.31" cy="308.01" r="3.2" fill="#1d4ed8"/>
<circle cx="867.59" cy="600.00" r="3.2" fill="#1d4ed8"/>
<circle cx="869.87" cy="301.54" r="3.2" fill="#1d4ed8"/>
<circle cx="872.15" cy="290.22" r="3.2" fill="#1d4ed8"/>
<circle cx="874.44" cy="287.79" r="3.2" fill="#1d4ed8"/>
<circle cx="876.72" cy="286.18" r="3.2" fill="#1d4ed8"/>
<circle cx="879.00" cy="285.77" r="3.2" fill="#1d4ed8"/>
<circle cx="881.28" cy="285.77" r="3.2" fill="#1d4ed8"/>
<circle cx="883.56" cy="285.77" r="3.2" fill="#1d4ed8"/>
<circle cx="885.84" cy="286.18" r="3.2" fill="#1d4ed8"/>
<circle cx="888.12" cy="285.77" r="3.2" fill="#1d4ed8"/>
<circle cx="890.40" cy="285.77" r="3.2" fill="#1d4ed8"/>
<circle cx="892.68" cy="285.77" r="3.2" fill="#1d4ed8"/>
<circle cx="894.96" cy="283.35" r="3.2" fill="#1d4ed8"/>
<circle cx="897.24" cy="282.94" r="3.2" fill="#1d4ed8"/>
<circle cx="899.52" cy="282.94" r="3.2" fill="#1d4ed8"/>
<circle cx="901.80" cy="283.35" r="3.2" fill="#1d4ed8"/>
<circle cx="904.08" cy="282.94" r="3.2" fill="#1d4ed8"/>
<circle cx="906.36" cy="282.94" r="3.2" fill="#1d4ed8"/>
<circle cx="908.64" cy="283.75" r="3.2" fill="#1d4ed8"/>
<circle cx="910.92" cy="282.13" r="3.2" fill="#1d4ed8"/>
<circle cx="913.20" cy="282.13" r="3.2" fill="#1d4ed8"/>
<circle cx="915.48" cy="282.54" r="3.2" fill="#1d4ed8"/>
<circle cx="917.76" cy="282.13" r="3.2" fill="#1d4ed8"/>
<circle cx="920.04" cy="282.54" r="3.2" fill="#1d4ed8"/>
<circle cx="922.32" cy="282.94" r="3.2" fill="#1d4ed8"/>
<circle cx="924.60" cy="281.73" r="3.2" fill="#1d4ed8"/>
<circle cx="926.88" cy="282.54" r="3.2" fill="#1d4ed8"/>
<circle cx="929.16" cy="281.73" r="3.2" fill="#1d4ed8"/>
<circle cx="931.44" cy="282.54" r="3.2" fill="#1d4ed8"/>
<circle cx="933.72" cy="282.13" r="3.2" fill="#1d4ed8"/>
<circle cx="936.00" cy="282.13" r="3.2" fill="#1d4ed8"/>
<circle cx="938.28" cy="281.73" r="3.2" fill="#1d4ed8"/>
<circle cx="940.56" cy="281.73" r="3.2" fill="#1d4ed8"/>
<circle cx="942.85" cy="281.32" r="3.2" fill="#1d4ed8"/>
<circle cx="945.13" cy="281.73" r="3.2" fill="#1d4ed8"/>
<circle cx="947.41" cy="282.13" r="3.2" fill="#1d4ed8"/>
<circle cx="949.69" cy="281.32" r="3.2" fill="#1d4ed8"/>
<circle cx="951.97" cy="281.32" r="3.2" fill="#1d4ed8"/>
<circle cx="954.25" cy="282.54" r="3.2" fill="#1d4ed8"/>
<circle cx="956.53" cy="282.13" r="3.2" fill="#1d4ed8"/>
<circle cx="958.81" cy="281.32" r="3.2" fill="#1d4ed8"/>
<circle cx="961.09" cy="281.32" r="3.2" fill="#1d4ed8"/>
<circle cx="963.37" cy="281.32" r="3.2" fill="#1d4ed8"/>
<circle cx="965.65" cy="282.54" r="3.2" fill="#1d4ed8"/>
<circle cx="967.93" cy="282.13" r="3.2" fill="#1d4ed8"/>
<circle cx="970.21" cy="281.32" r="3.2" fill="#1d4ed8"/>
<circle cx="972.49" cy="282.13" r="3.2" fill="#1d4ed8"/>
<circle cx="974.77" cy="281.73" r="3.2" fill="#1d4ed8"/>
<circle cx="977.05" cy="282.13" r="3.2" fill="#1d4ed8"/>
<circle cx="979.33" cy="280.11" r="3.2" fill="#1d4ed8"/>
<circle cx="981.61" cy="280.11" r="3.2" fill="#1d4ed8"/>
<circle cx="983.89" cy="280.51" r="3.2" fill="#1d4ed8"/>
<circle cx="986.17" cy="279.71" r="3.2" fill="#1d4ed8"/>
<circle cx="988.45" cy="280.11" r="3.2" fill="#1d4ed8"/>
<circle cx="990.73" cy="280.51" r="3.2" fill="#1d4ed8"/>
<circle cx="993.01" cy="279.71" r="3.2" fill="#1d4ed8"/>
<circle cx="995.29" cy="280.11" r="3.2" fill="#1d4ed8"/>
<circle cx="997.57" cy="280.11" r="3.2" fill="#1d4ed8"/>
<circle cx="999.85" cy="279.30" r="3.2" fill="#1d4ed8"/>
<circle cx="1002.13" cy="278.90" r="3.2" fill="#1d4ed8"/>
<circle cx="1004.41" cy="278.90" r="3.2" fill="#1d4ed8"/>
<circle cx="1006.69" cy="280.51" r="3.2" fill="#1d4ed8"/>
<circle cx="1008.97" cy="279.30" r="3.2" fill="#1d4ed8"/>
<circle cx="1011.26" cy="278.09" r="3.2" fill="#1d4ed8"/>
<circle cx="1013.54" cy="278.49" r="3.2" fill="#1d4ed8"/>
<circle cx="1015.82" cy="278.49" r="3.2" fill="#1d4ed8"/>
<circle cx="1018.10" cy="277.28" r="3.2" fill="#1d4ed8"/>
<circle cx="1020.38" cy="277.68" r="3.2" fill="#1d4ed8"/>
<circle cx="1022.66" cy="277.68" r="3.2" fill="#1d4ed8"/>
<circle cx="1024.94" cy="278.09" r="3.2" fill="#1d4ed8"/>
<circle cx="1027.22" cy="277.28" r="3.2" fill="#1d4ed8"/>
<circle cx="1029.50" cy="600.00" r="3.2" fill="#1d4ed8"/>
<circle cx="1031.78" cy="278.90" r="3.2" fill="#1d4ed8"/>
<circle cx="1034.06" cy="279.30" r="3.2" fill="#1d4ed8"/>
<circle cx="1036.34" cy="278.90" r="3.2" fill="#1d4ed8"/>
<circle cx="1038.62" cy="278.49" r="3.2" fill="#1d4ed8"/>
<circle cx="1040.90" cy="278.49" r="3.2" fill="#1d4ed8"/>
<circle cx="1043.18" cy="278.49" r="3.2" fill="#1d4ed8"/>
<circle cx="1045.46" cy="278.49" r="3.2" fill="#1d4ed8"/>
<circle cx="1047.74" cy="278.49" r="3.2" fill="#1d4ed8"/>
<circle cx="1050.02" cy="278.49" r="3.2" fill="#1d4ed8"/>
<circle cx="1052.30" cy="278.49" r="3.2" fill="#1d4ed8"/>
<circle cx="1054.58" cy="278.49" r="3.2" fill="#1d4ed8"/>
<circle cx="1056.86" cy="278.49" r="3.2" fill="#1d4ed8"/>
<circle cx="1059.14" cy="278.49" r="3.2" fill="#1d4ed8"/>
<circle cx="1061.42" cy="278.49" r="3.2" fill="#1d4ed8"/>
<circle cx="1063.70" cy="278.49" r="3.2" fill="#1d4ed8"/>
<circle cx="1065.98" cy="600.00" r="3.2" fill="#1d4ed8"/>
<circle cx="1068.26" cy="600.00" r="3.2" fill="#1d4ed8"/>
<circle cx="1070.54" cy="254.63" r="3.2" fill="#1d4ed8"/>
<circle cx="1072.82" cy="600.00" r="3.2" fill="#1d4ed8"/>
<circle cx="1075.10" cy="245.74" r="3.2" fill="#1d4ed8"/>
<circle cx="1077.38" cy="245.74" r="3.2" fill="#1d4ed8"/>
<circle cx="1079.67" cy="246.14" r="3.2" fill="#1d4ed8"/>
<circle cx="1081.95" cy="245.74" r="3.2" fill="#1d4ed8"/>
<circle cx="1084.23" cy="245.74" r="3.2" fill="#1d4ed8"/>
<circle cx="1086.51" cy="245.74" r="3.2" fill="#1d4ed8"/>
<circle cx="1088.79" cy="245.74" r="3.2" fill="#1d4ed8"/>
<circle cx="1091.07" cy="245.74" r="3.2" fill="#1d4ed8"/>
<circle cx="1093.35" cy="240.07" r="3.2" fill="#1d4ed8"/>
<circle cx="1095.63" cy="238.05" r="3.2" fill="#1d4ed8"/>
<circle cx="1097.91" cy="238.05" r="3.2" fill="#1d4ed8"/>
<circle cx="1100.19" cy="227.13" r="3.2" fill="#1d4ed8"/>
<circle cx="1102.47" cy="227.13" r="3.2" fill="#1d4ed8"/>
<circle cx="1104.75" cy="226.32" r="3.2" fill="#1d4ed8"/>
<circle cx="1107.03" cy="227.54" r="3.2" fill="#1d4ed8"/>
<circle cx="1109.31" cy="226.73" r="3.2" fill="#1d4ed8"/>
<circle cx="1111.59" cy="226.32" r="3.2" fill="#1d4ed8"/>
<circle cx="1113.87" cy="227.13" r="3.2" fill="#1d4ed8"/>
<circle cx="1116.15" cy="227.13" r="3.2" fill="#1d4ed8"/>
<circle cx="1118.43" cy="226.73" r="3.2" fill="#1d4ed8"/>
<circle cx="1120.71" cy="226.32" r="3.2" fill="#1d4ed8"/>
<circle cx="1122.99" cy="226.73" r="3.2" fill="#1d4ed8"/>
<circle cx="1125.27" cy="226.73" r="3.2" fill="#1d4ed8"/>
<circle cx="1127.55" cy="226.73" r="3.2" fill="#1d4ed8"/>
<circle cx="1129.83" cy="225.11" r="3.2" fill="#1d4ed8"/>
<circle cx="1132.11" cy="224.71" r="3.2" fill="#1d4ed8"/>
<circle cx="1134.39" cy="225.11" r="3.2" fill="#1d4ed8"/>
<circle cx="1136.67" cy="224.30" r="3.2" fill="#1d4ed8"/>
<circle cx="1138.95" cy="226.32" r="3.2" fill="#1d4ed8"/>
<circle cx="1141.23" cy="224.30" r="3.2" fill="#1d4ed8"/>
<circle cx="1143.51" cy="225.51" r="3.2" fill="#1d4ed8"/>
<circle cx="1145.79" cy="225.51" r="3.2" fill="#1d4ed8"/>
<circle cx="1148.08" cy="225.51" r="3.2" fill="#1d4ed8"/>
<circle cx="1150.36" cy="225.92" r="3.2" fill="#1d4ed8"/>
<circle cx="1152.64" cy="223.09" r="3.2" fill="#1d4ed8"/>
<circle cx="1154.92" cy="223.49" r="3.2" fill="#1d4ed8"/>
<circle cx="1157.20" cy="223.09" r="3.2" fill="#1d4ed8"/>
<circle cx="1159.48" cy="223.09" r="3.2" fill="#1d4ed8"/>
<circle cx="1161.76" cy="223.90" r="3.2" fill="#1d4ed8"/>
<circle cx="1164.04" cy="223.49" r="3.2" fill="#1d4ed8"/>
<circle cx="1166.32" cy="223.49" r="3.2" fill="#1d4ed8"/>
<circle cx="1168.60" cy="223.09" r="3.2" fill="#1d4ed8"/>
<circle cx="1170.88" cy="223.09" r="3.2" fill="#1d4ed8"/>
<circle cx="1173.16" cy="223.49" r="3.2" fill="#1d4ed8"/>
<circle cx="1175.44" cy="223.09" r="3.2" fill="#1d4ed8"/>
<circle cx="1177.72" cy="223.09" r="3.2" fill="#1d4ed8"/>
<circle cx="1180.00" cy="223.49" r="3.2" fill="#1d4ed8"/>
<text x="635" y="695" text-anchor="middle" font-size="14" fill="#111" font-family="sans-serif">Date</text>
<text x="24" y="325" text-anchor="middle" font-size="14" fill="#111" transform="rotate(-90 24,325)" font-family="sans-serif">Passed files</text>
</svg>
