<?xml version="1.0" encoding="UTF-8"?>
<svg xmlns="http://www.w3.org/2000/svg" width="1280" height="720" viewBox="0 0 1280 720">
<rect width="100%" height="100%" fill="#ffffff"/>
<text x="640" y="30" text-anchor="middle" font-size="22" font-family="sans-serif">Roast passed files history</text>
<line x1="90" y1="600" x2="1180" y2="600" stroke="#333" stroke-width="1.5"/>
<line x1="90" y1="50" x2="90" y2="600" stroke="#333" stroke-width="1.5"/>
<line x1="90" y1="600.00" x2="1180" y2="600.00" stroke="#e5e7eb" stroke-width="1"/>
<text x="78" y="605.00" text-anchor="end" font-size="12" fill="#111" font-family="sans-serif">0</text>
<line x1="90" y1="397.79" x2="1180" y2="397.79" stroke="#e5e7eb" stroke-width="1"/>
<text x="78" y="402.79" text-anchor="end" font-size="12" fill="#111" font-family="sans-serif">500</text>
<line x1="90" y1="195.59" x2="1180" y2="195.59" stroke="#e5e7eb" stroke-width="1"/>
<text x="78" y="200.59" text-anchor="end" font-size="12" fill="#111" font-family="sans-serif">1000</text>
<line x1="90.00" y1="600" x2="90.00" y2="606" stroke="#333" stroke-width="1"/>
<text x="90.00" y="624" text-anchor="end" font-size="11" fill="#111" transform="rotate(-40 90.00,624)" font-family="sans-serif">2026-02-12</text>
<line x1="224.02" y1="600" x2="224.02" y2="606" stroke="#333" stroke-width="1"/>
<text x="224.02" y="624" text-anchor="end" font-size="11" fill="#111" transform="rotate(-40 224.02,624)" font-family="sans-serif">2026-02-17</text>
<line x1="358.03" y1="600" x2="358.03" y2="606" stroke="#333" stroke-width="1"/>
<text x="358.03" y="624" text-anchor="end" font-size="11" fill="#111" transform="rotate(-40 358.03,624)" font-family="sans-serif">2026-02-21</text>
<line x1="492.05" y1="600" x2="492.05" y2="606" stroke="#333" stroke-width="1"/>
<text x="492.05" y="624" text-anchor="end" font-size="11" fill="#111" transform="rotate(-40 492.05,624)" font-family="sans-serif">2026-02-25</text>
<line x1="626.07" y1="600" x2="626.07" y2="606" stroke="#333" stroke-width="1"/>
<text x="626.07" y="624" text-anchor="end" font-size="11" fill="#111" transform="rotate(-40 626.07,624)" font-family="sans-serif">2026-02-28</text>
<line x1="760.08" y1="600" x2="760.08" y2="606" stroke="#333" stroke-width="1"/>
<text x="760.08" y="624" text-anchor="end" font-size="11" fill="#111" transform="rotate(-40 760.08,624)" font-family="sans-serif">2026-03-06</text>
<line x1="894.10" y1="600" x2="894.10" y2="606" stroke="#333" stroke-width="1"/>
<text x="894.10" y="624" text-anchor="end" font-size="11" fill="#111" transform="rotate(-40 894.10,624)" font-family="sans-serif">2026-03-06</text>
<line x1="1028.11" y1="600" x2="1028.11" y2="606" stroke="#333" stroke-width="1"/>
<text x="1028.11" y="624" text-anchor="end" font-size="11" fill="#111" transform="rotate(-40 1028.11,624)" font-family="sans-serif">2026-03-11</text>
<line x1="1162.13" y1="600" x2="1162.13" y2="606" stroke="#333" stroke-width="1"/>
<text x="1162.13" y="624" text-anchor="end" font-size="11" fill="#111" transform="rotate(-40 1162.13,624)" font-family="sans-serif">2026-03-18</text>
<line x1="1180.00" y1="600" x2="1180.00" y2="606" stroke="#333" stroke-width="1"/>
<text x="1180.00" y="624" text-anchor="end" font-size="11" fill="#111" transform="rotate(-40 1180.00,624)" font-family="sans-serif">2026-03-18</text>
<line x1="90" y1="75.88" x2="1180" y2="75.88" stroke="#dc2626" stroke-width="1.5" stroke-dasharray="8,4"/>
<text x="1184" y="79.88" font-size="12" fill="#dc2626" font-family="sans-serif">Goal: 1296</text>
<polyline fill="none" stroke="#2563eb" stroke-width="3" points="90.00,540.55 92.98,538.53 95.96,536.91 98.93,534.49 101.91,534.49 104.89,533.27 107.87,532.46 110.85,532.87 113.83,532.06 116.80,532.46 119.78,532.06 122.76,568.46 125.74,568.46 128.72,566.43 131.69,545.00 134.67,545.00 137.65,544.19 140.63,543.79 143.61,543.79 146.58,543.38 149.56,541.76 152.54,541.36 155.52,540.96 158.50,540.96 161.48,539.34 164.45,539.34 167.43,556.73 170.41,556.73 173.39,555.51 176.37,551.07 179.34,538.93 182.32,538.93 185.30,538.93 188.28,538.12 191.26,536.91 194.23,536.91 197.21,536.51 200.19,536.51 203.17,556.73 206.15,556.73 209.13,556.73 212.10,556.73 215.08,535.29 218.06,535.29 221.04,535.29 224.02,535.29 226.99,534.49 229.97,534.08 232.95,533.68 235.93,532.87 238.91,532.06 241.89,532.06 244.86,531.25 247.84,530.85 250.82,530.44 253.80,530.04 256.78,530.04 259.75,529.23 262.73,529.23 265.71,529.23 268.69,528.42 271.67,528.42 274.64,527.61 277.62,527.21 280.60,526.80 283.58,526.40 286.56,525.18 289.54,523.57 292.51,523.57 295.49,523.16 298.47,522.76 301.45,522.35 304.43,521.54 307.40,519.52 310.38,517.50 313.36,517.50 316.34,517.50 319.32,517.50 322.30,517.50 325.27,517.50 328.25,517.10 331.23,516.69 334.21,515.48 337.19,515.07 340.16,514.67 343.14,513.86 346.12,514.26 349.10,512.24 352.08,511.84 355.05,511.84 358.03,511.03 361.01,509.82 363.99,507.79 366.97,506.99 369.95,506.58 372.92,509.41 375.90,509.01 378.88,504.96 381.86,504.56 384.84,504.15 387.81,504.56 390.79,503.75 393.77,503.75 396.75,503.35 399.73,499.30 402.70,496.47 405.68,490.00 408.66,484.34 411.64,481.10 414.62,480.29 417.60,480.70 420.57,460.88 423.55,459.26 426.53,458.05 429.51,456.03 432.49,456.03 435.46,454.41 438.44,450.77 441.42,444.30 444.40,443.90 447.38,600.00 450.36,441.88 453.33,440.66 456.31,439.45 459.29,439.04 462.27,438.64 465.25,437.83 468.22,436.62 471.20,436.62 474.18,434.60 477.16,432.17 480.14,429.34 483.11,428.93 486.09,428.53 489.07,427.72 492.05,426.91 495.03,426.10 498.01,426.10 500.98,426.10 503.96,419.63 506.94,419.23 509.92,418.42 512.90,418.01 515.87,417.61 518.85,417.61 521.83,417.61 524.81,417.21 527.79,417.21 530.77,413.57 533.74,411.95 536.72,412.76 539.70,410.74 542.68,410.74 545.66,410.33 548.63,410.33 551.61,410.33 554.59,409.93 557.57,409.93 560.55,409.93 563.52,409.52 566.50,409.52 569.48,409.12 572.46,409.52 575.44,409.12 578.42,407.50 581.39,407.10 584.37,403.05 587.35,399.82 590.33,400.22 593.31,400.62 596.28,400.62 599.26,399.41 602.24,392.94 605.22,391.32 608.20,389.30 611.17,389.30 614.15,388.49 617.13,375.15 620.11,374.74 623.09,374.74 626.07,374.74 629.04,374.74 632.02,374.34 635.00,374.34 637.98,374.34 640.96,374.34 643.93,374.34 646.91,373.93 649.89,373.12 652.87,372.72 655.85,373.53 658.83,435.81 661.80,372.32 664.78,372.72 667.76,371.91 670.74,371.91 673.72,372.32 676.69,371.10 679.67,369.89 682.65,369.89 685.63,369.89 688.61,369.49 691.58,369.89 694.56,369.08 697.54,368.68 700.52,368.27 703.50,367.87 706.48,367.06 709.45,367.46 712.43,367.06 715.41,366.25 718.39,368.27 721.37,368.68 724.34,368.68 727.32,368.27 730.30,369.08 733.28,367.87 736.26,367.46 739.23,367.06 742.21,360.18 745.19,359.78 748.17,359.38 751.15,356.95 754.13,357.35 757.10,357.76 760.08,355.33 763.06,355.74 766.04,357.35 769.02,355.33 771.99,356.14 774.97,355.74 777.95,356.14 780.93,354.12 783.91,354.93 786.89,356.14 789.86,354.52 792.84,353.71 795.82,354.12 798.80,354.93 801.78,352.90 804.75,353.71 807.73,353.31 810.71,353.31 813.69,354.52 816.67,352.90 819.64,352.50 822.62,352.50 825.60,353.31 828.58,352.50 831.56,353.71 834.54,354.12 837.51,352.50 840.49,352.90 843.47,352.50 846.45,352.10 849.43,351.69 852.40,352.10 855.38,354.12 858.36,352.50 861.34,352.10 864.32,352.10 867.30,349.67 870.27,349.67 873.25,350.88 876.23,351.29 879.21,350.48 882.19,352.10 885.16,350.48 888.14,350.48 891.12,350.48 894.10,350.07 897.08,348.46 900.05,351.29 903.03,349.67 906.01,351.29 908.99,349.67 911.97,348.86 914.95,348.46 917.92,348.46 920.90,347.24 923.88,348.86 926.86,346.84 929.84,348.46 932.81,348.86 935.79,346.84 938.77,349.26 941.75,348.05 944.73,349.26 947.70,349.26 950.68,350.48 953.66,352.90 956.64,349.67 959.62,348.46 962.60,345.62 965.57,344.82 968.55,344.41 971.53,342.39 974.51,341.18 977.49,341.58 980.46,339.15 983.44,338.35 986.42,337.54 989.40,336.73 992.38,335.92 995.36,337.54 998.33,338.35 1001.31,337.54 1004.29,337.54 1007.27,337.54 1010.25,333.09 1013.22,333.90 1016.20,335.92 1019.18,336.73 1022.16,335.51 1025.14,332.28 1028.11,331.47 1031.09,331.07 1034.07,331.47 1037.05,331.07 1040.03,331.07 1043.01,331.07 1045.98,331.07 1048.96,331.07 1051.94,331.07 1054.92,331.07 1057.90,331.07 1060.87,331.07 1063.85,331.07 1066.83,331.47 1069.81,331.88 1072.79,331.07 1075.77,331.47 1078.74,331.07 1081.72,331.47 1084.70,331.07 1087.68,324.19 1090.66,324.19 1093.63,318.93 1096.61,316.51 1099.59,310.44 1102.57,308.01 1105.55,600.00 1108.52,301.54 1111.50,290.22 1114.48,287.79 1117.46,286.18 1120.44,285.77 1123.42,285.77 1126.39,285.77 1129.37,286.18 1132.35,285.77 1135.33,285.77 1138.31,285.77 1141.28,283.35 1144.26,282.94 1147.24,282.94 1150.22,283.35 1153.20,282.94 1156.17,282.94 1159.15,283.75 1162.13,282.13 1165.11,282.13 1168.09,282.54 1171.07,282.13 1174.04,282.54 1177.02,282.94 1180.00,281.73"/>
<circle cx="90.00" cy="540.55" r="3.2" fill="#1d4ed8"/>
<circle cx="92.98" cy="538.53" r="3.2" fill="#1d4ed8"/>
<circle cx="95.96" cy="536.91" r="3.2" fill="#1d4ed8"/>
<circle cx="98.93" cy="534.49" r="3.2" fill="#1d4ed8"/>
<circle cx="101.91" cy="534.49" r="3.2" fill="#1d4ed8"/>
<circle cx="104.89" cy="533.27" r="3.2" fill="#1d4ed8"/>
<circle cx="107.87" cy="532.46" r="3.2" fill="#1d4ed8"/>
<circle cx="110.85" cy="532.87" r="3.2" fill="#1d4ed8"/>
<circle cx="113.83" cy="532.06" r="3.2" fill="#1d4ed8"/>
<circle cx="116.80" cy="532.46" r="3.2" fill="#1d4ed8"/>
<circle cx="119.78" cy="532.06" r="3.2" fill="#1d4ed8"/>
<circle cx="122.76" cy="568.46" r="3.2" fill="#1d4ed8"/>
<circle cx="125.74" cy="568.46" r="3.2" fill="#1d4ed8"/>
<circle cx="128.72" cy="566.43" r="3.2" fill="#1d4ed8"/>
<circle cx="131.69" cy="545.00" r="3.2" fill="#1d4ed8"/>
<circle cx="134.67" cy="545.00" r="3.2" fill="#1d4ed8"/>
<circle cx="137.65" cy="544.19" r="3.2" fill="#1d4ed8"/>
<circle cx="140.63" cy="543.79" r="3.2" fill="#1d4ed8"/>
<circle cx="143.61" cy="543.79" r="3.2" fill="#1d4ed8"/>
<circle cx="146.58" cy="543.38" r="3.2" fill="#1d4ed8"/>
<circle cx="149.56" cy="541.76" r="3.2" fill="#1d4ed8"/>
<circle cx="152.54" cy="541.36" r="3.2" fill="#1d4ed8"/>
<circle cx="155.52" cy="540.96" r="3.2" fill="#1d4ed8"/>
<circle cx="158.50" cy="540.96" r="3.2" fill="#1d4ed8"/>
<circle cx="161.48" cy="539.34" r="3.2" fill="#1d4ed8"/>
<circle cx="164.45" cy="539.34" r="3.2" fill="#1d4ed8"/>
<circle cx="167.43" cy="556.73" r="3.2" fill="#1d4ed8"/>
<circle cx="170.41" cy="556.73" r="3.2" fill="#1d4ed8"/>
<circle cx="173.39" cy="555.51" r="3.2" fill="#1d4ed8"/>
<circle cx="176.37" cy="551.07" r="3.2" fill="#1d4ed8"/>
<circle cx="179.34" cy="538.93" r="3.2" fill="#1d4ed8"/>
<circle cx="182.32" cy="538.93" r="3.2" fill="#1d4ed8"/>
<circle cx="185.30" cy="538.93" r="3.2" fill="#1d4ed8"/>
<circle cx="188.28" cy="538.12" r="3.2" fill="#1d4ed8"/>
<circle cx="191.26" cy="536.91" r="3.2" fill="#1d4ed8"/>
<circle cx="194.23" cy="536.91" r="3.2" fill="#1d4ed8"/>
<circle cx="197.21" cy="536.51" r="3.2" fill="#1d4ed8"/>
<circle cx="200.19" cy="536.51" r="3.2" fill="#1d4ed8"/>
<circle cx="203.17" cy="556.73" r="3.2" fill="#1d4ed8"/>
<circle cx="206.15" cy="556.73" r="3.2" fill="#1d4ed8"/>
<circle cx="209.13" cy="556.73" r="3.2" fill="#1d4ed8"/>
<circle cx="212.10" cy="556.73" r="3.2" fill="#1d4ed8"/>
<circle cx="215.08" cy="535.29" r="3.2" fill="#1d4ed8"/>
<circle cx="218.06" cy="535.29" r="3.2" fill="#1d4ed8"/>
<circle cx="221.04" cy="535.29" r="3.2" fill="#1d4ed8"/>
<circle cx="224.02" cy="535.29" r="3.2" fill="#1d4ed8"/>
<circle cx="226.99" cy="534.49" r="3.2" fill="#1d4ed8"/>
<circle cx="229.97" cy="534.08" r="3.2" fill="#1d4ed8"/>
<circle cx="232.95" cy="533.68" r="3.2" fill="#1d4ed8"/>
<circle cx="235.93" cy="532.87" r="3.2" fill="#1d4ed8"/>
<circle cx="238.91" cy="532.06" r="3.2" fill="#1d4ed8"/>
<circle cx="241.89" cy="532.06" r="3.2" fill="#1d4ed8"/>
<circle cx="244.86" cy="531.25" r="3.2" fill="#1d4ed8"/>
<circle cx="247.84" cy="530.85" r="3.2" fill="#1d4ed8"/>
<circle cx="250.82" cy="530.44" r="3.2" fill="#1d4ed8"/>
<circle cx="253.80" cy="530.04" r="3.2" fill="#1d4ed8"/>
<circle cx="256.78" cy="530.04" r="3.2" fill="#1d4ed8"/>
<circle cx="259.75" cy="529.23" r="3.2" fill="#1d4ed8"/>
<circle cx="262.73" cy="529.23" r="3.2" fill="#1d4ed8"/>
<circle cx="265.71" cy="529.23" r="3.2" fill="#1d4ed8"/>
<circle cx="268.69" cy="528.42" r="3.2" fill="#1d4ed8"/>
<circle cx="271.67" cy="528.42" r="3.2" fill="#1d4ed8"/>
<circle cx="274.64" cy="527.61" r="3.2" fill="#1d4ed8"/>
<circle cx="277.62" cy="527.21" r="3.2" fill="#1d4ed8"/>
<circle cx="280.60" cy="526.80" r="3.2" fill="#1d4ed8"/>
<circle cx="283.58" cy="526.40" r="3.2" fill="#1d4ed8"/>
<circle cx="286.56" cy="525.18" r="3.2" fill="#1d4ed8"/>
<circle cx="289.54" cy="523.57" r="3.2" fill="#1d4ed8"/>
<circle cx="292.51" cy="523.57" r="3.2" fill="#1d4ed8"/>
<circle cx="295.49" cy="523.16" r="3.2" fill="#1d4ed8"/>
<circle cx="298.47" cy="522.76" r="3.2" fill="#1d4ed8"/>
<circle cx="301.45" cy="522.35" r="3.2" fill="#1d4ed8"/>
<circle cx="304.43" cy="521.54" r="3.2" fill="#1d4ed8"/>
<circle cx="307.40" cy="519.52" r="3.2" fill="#1d4ed8"/>
<circle cx="310.38" cy="517.50" r="3.2" fill="#1d4ed8"/>
<circle cx="313.36" cy="517.50" r="3.2" fill="#1d4ed8"/>
<circle cx="316.34" cy="517.50" r="3.2" fill="#1d4ed8"/>
<circle cx="319.32" cy="517.50" r="3.2" fill="#1d4ed8"/>
<circle cx="322.30" cy="517.50" r="3.2" fill="#1d4ed8"/>
<circle cx="325.27" cy="517.50" r="3.2" fill="#1d4ed8"/>
<circle cx="328.25" cy="517.10" r="3.2" fill="#1d4ed8"/>
<circle cx="331.23" cy="516.69" r="3.2" fill="#1d4ed8"/>
<circle cx="334.21" cy="515.48" r="3.2" fill="#1d4ed8"/>
<circle cx="337.19" cy="515.07" r="3.2" fill="#1d4ed8"/>
<circle cx="340.16" cy="514.67" r="3.2" fill="#1d4ed8"/>
<circle cx="343.14" cy="513.86" r="3.2" fill="#1d4ed8"/>
<circle cx="346.12" cy="514.26" r="3.2" fill="#1d4ed8"/>
<circle cx="349.10" cy="512.24" r="3.2" fill="#1d4ed8"/>
<circle cx="352.08" cy="511.84" r="3.2" fill="#1d4ed8"/>
<circle cx="355.05" cy="511.84" r="3.2" fill="#1d4ed8"/>
<circle cx="358.03" cy="511.03" r="3.2" fill="#1d4ed8"/>
<circle cx="361.01" cy="509.82" r="3.2" fill="#1d4ed8"/>
<circle cx="363.99" cy="507.79" r="3.2" fill="#1d4ed8"/>
<circle cx="366.97" cy="506.99" r="3.2" fill="#1d4ed8"/>
<circle cx="369.95" cy="506.58" r="3.2" fill="#1d4ed8"/>
<circle cx="372.92" cy="509.41" r="3.2" fill="#1d4ed8"/>
<circle cx="375.90" cy="509.01" r="3.2" fill="#1d4ed8"/>
<circle cx="378.88" cy="504.96" r="3.2" fill="#1d4ed8"/>
<circle cx="381.86" cy="504.56" r="3.2" fill="#1d4ed8"/>
<circle cx="384.84" cy="504.15" r="3.2" fill="#1d4ed8"/>
<circle cx="387.81" cy="504.56" r="3.2" fill="#1d4ed8"/>
<circle cx="390.79" cy="503.75" r="3.2" fill="#1d4ed8"/>
<circle cx="393.77" cy="503.75" r="3.2" fill="#1d4ed8"/>
<circle cx="396.75" cy="503.35" r="3.2" fill="#1d4ed8"/>
<circle cx="399.73" cy="499.30" r="3.2" fill="#1d4ed8"/>
<circle cx="402.70" cy="496.47" r="3.2" fill="#1d4ed8"/>
<circle cx="405.68" cy="490.00" r="3.2" fill="#1d4ed8"/>
<circle cx="408.66" cy="484.34" r="3.2" fill="#1d4ed8"/>
<circle cx="411.64" cy="481.10" r="3.2" fill="#1d4ed8"/>
<circle cx="414.62" cy="480.29" r="3.2" fill="#1d4ed8"/>
<circle cx="417.60" cy="480.70" r="3.2" fill="#1d4ed8"/>
<circle cx="420.57" cy="460.88" r="3.2" fill="#1d4ed8"/>
<circle cx="423.55" cy="459.26" r="3.2" fill="#1d4ed8"/>
<circle cx="426.53" cy="458.05" r="3.2" fill="#1d4ed8"/>
<circle cx="429.51" cy="456.03" r="3.2" fill="#1d4ed8"/>
<circle cx="432.49" cy="456.03" r="3.2" fill="#1d4ed8"/>
<circle cx="435.46" cy="454.41" r="3.2" fill="#1d4ed8"/>
<circle cx="438.44" cy="450.77" r="3.2" fill="#1d4ed8"/>
<circle cx="441.42" cy="444.30" r="3.2" fill="#1d4ed8"/>
<circle cx="444.40" cy="443.90" r="3.2" fill="#1d4ed8"/>
<circle cx="447.38" cy="600.00" r="3.2" fill="#1d4ed8"/>
<circle cx="450.36" cy="441.88" r="3.2" fill="#1d4ed8"/>
<circle cx="453.33" cy="440.66" r="3.2" fill="#1d4ed8"/>
<circle cx="456.31" cy="439.45" r="3.2" fill="#1d4ed8"/>
<circle cx="459.29" cy="439.04" r="3.2" fill="#1d4ed8"/>
<circle cx="462.27" cy="438.64" r="3.2" fill="#1d4ed8"/>
<circle cx="465.25" cy="437.83" r="3.2" fill="#1d4ed8"/>
<circle cx="468.22" cy="436.62" r="3.2" fill="#1d4ed8"/>
<circle cx="471.20" cy="436.62" r="3.2" fill="#1d4ed8"/>
<circle cx="474.18" cy="434.60" r="3.2" fill="#1d4ed8"/>
<circle cx="477.16" cy="432.17" r="3.2" fill="#1d4ed8"/>
<circle cx="480.14" cy="429.34" r="3.2" fill="#1d4ed8"/>
<circle cx="483.11" cy="428.93" r="3.2" fill="#1d4ed8"/>
<circle cx="486.09" cy="428.53" r="3.2" fill="#1d4ed8"/>
<circle cx="489.07" cy="427.72" r="3.2" fill="#1d4ed8"/>
<circle cx="492.05" cy="426.91" r="3.2" fill="#1d4ed8"/>
<circle cx="495.03" cy="426.10" r="3.2" fill="#1d4ed8"/>
<circle cx="498.01" cy="426.10" r="3.2" fill="#1d4ed8"/>
<circle cx="500.98" cy="426.10" r="3.2" fill="#1d4ed8"/>
<circle cx="503.96" cy="419.63" r="3.2" fill="#1d4ed8"/>
<circle cx="506.94" cy="419.23" r="3.2" fill="#1d4ed8"/>
<circle cx="509.92" cy="418.42" r="3.2" fill="#1d4ed8"/>
<circle cx="512.90" cy="418.01" r="3.2" fill="#1d4ed8"/>
<circle cx="515.87" cy="417.61" r="3.2" fill="#1d4ed8"/>
<circle cx="518.85" cy="417.61" r="3.2" fill="#1d4ed8"/>
<circle cx="521.83" cy="417.61" r="3.2" fill="#1d4ed8"/>
<circle cx="524.81" cy="417.21" r="3.2" fill="#1d4ed8"/>
<circle cx="527.79" cy="417.21" r="3.2" fill="#1d4ed8"/>
<circle cx="530.77" cy="413.57" r="3.2" fill="#1d4ed8"/>
<circle cx="533.74" cy="411.95" r="3.2" fill="#1d4ed8"/>
<circle cx="536.72" cy="412.76" r="3.2" fill="#1d4ed8"/>
<circle cx="539.70" cy="410.74" r="3.2" fill="#1d4ed8"/>
<circle cx="542.68" cy="410.74" r="3.2" fill="#1d4ed8"/>
<circle cx="545.66" cy="410.33" r="3.2" fill="#1d4ed8"/>
<circle cx="548.63" cy="410.33" r="3.2" fill="#1d4ed8"/>
<circle cx="551.61" cy="410.33" r="3.2" fill="#1d4ed8"/>
<circle cx="554.59" cy="409.93" r="3.2" fill="#1d4ed8"/>
<circle cx="557.57" cy="409.93" r="3.2" fill="#1d4ed8"/>
<circle cx="560.55" cy="409.93" r="3.2" fill="#1d4ed8"/>
<circle cx="563.52" cy="409.52" r="3.2" fill="#1d4ed8"/>
<circle cx="566.50" cy="409.52" r="3.2" fill="#1d4ed8"/>
<circle cx="569.48" cy="409.12" r="3.2" fill="#1d4ed8"/>
<circle cx="572.46" cy="409.52" r="3.2" fill="#1d4ed8"/>
<circle cx="575.44" cy="409.12" r="3.2" fill="#1d4ed8"/>
<circle cx="578.42" cy="407.50" r="3.2" fill="#1d4ed8"/>
<circle cx="581.39" cy="407.10" r="3.2" fill="#1d4ed8"/>
<circle cx="584.37" cy="403.05" r="3.2" fill="#1d4ed8"/>
<circle cx="587.35" cy="399.82" r="3.2" fill="#1d4ed8"/>
<circle cx="590.33" cy="400.22" r="3.2" fill="#1d4ed8"/>
<circle cx="593.31" cy="400.62" r="3.2" fill="#1d4ed8"/>
<circle cx="596.28" cy="400.62" r="3.2" fill="#1d4ed8"/>
<circle cx="599.26" cy="399.41" r="3.2" fill="#1d4ed8"/>
<circle cx="602.24" cy="392.94" r="3.2" fill="#1d4ed8"/>
<circle cx="605.22" cy="391.32" r="3.2" fill="#1d4ed8"/>
<circle cx="608.20" cy="389.30" r="3.2" fill="#1d4ed8"/>
<circle cx="611.17" cy="389.30" r="3.2" fill="#1d4ed8"/>
<circle cx="614.15" cy="388.49" r="3.2" fill="#1d4ed8"/>
<circle cx="617.13" cy="375.15" r="3.2" fill="#1d4ed8"/>
<circle cx="620.11" cy="374.74" r="3.2" fill="#1d4ed8"/>
<circle cx="623.09" cy="374.74" r="3.2" fill="#1d4ed8"/>
<circle cx="626.07" cy="374.74" r="3.2" fill="#1d4ed8"/>
<circle cx="629.04" cy="374.74" r="3.2" fill="#1d4ed8"/>
<circle cx="632.02" cy="374.34" r="3.2" fill="#1d4ed8"/>
<circle cx="635.00" cy="374.34" r="3.2" fill="#1d4ed8"/>
<circle cx="637.98" cy="374.34" r="3.2" fill="#1d4ed8"/>
<circle cx="640.96" cy="374.34" r="3.2" fill="#1d4ed8"/>
<circle cx="643.93" cy="374.34" r="3.2" fill="#1d4ed8"/>
<circle cx="646.91" cy="373.93" r="3.2" fill="#1d4ed8"/>
<circle cx="649.89" cy="373.12" r="3.2" fill="#1d4ed8"/>
<circle cx="652.87" cy="372.72" r="3.2" fill="#1d4ed8"/>
<circle cx="655.85" cy="373.53" r="3.2" fill="#1d4ed8"/>
<circle cx="658.83" cy="435.81" r="3.2" fill="#1d4ed8"/>
<circle cx="661.80" cy="372.32" r="3.2" fill="#1d4ed8"/>
<circle cx="664.78" cy="372.72" r="3.2" fill="#1d4ed8"/>
<circle cx="667.76" cy="371.91" r="3.2" fill="#1d4ed8"/>
<circle cx="670.74" cy="371.91" r="3.2" fill="#1d4ed8"/>
<circle cx="673.72" cy="372.32" r="3.2" fill="#1d4ed8"/>
<circle cx="676.69" cy="371.10" r="3.2" fill="#1d4ed8"/>
<circle cx="679.67" cy="369.89" r="3.2" fill="#1d4ed8"/>
<circle cx="682.65" cy="369.89" r="3.2" fill="#1d4ed8"/>
<circle cx="685.63" cy="369.89" r="3.2" fill="#1d4ed8"/>
<circle cx="688.61" cy="369.49" r="3.2" fill="#1d4ed8"/>
<circle cx="691.58" cy="369.89" r="3.2" fill="#1d4ed8"/>
<circle cx="694.56" cy="369.08" r="3.2" fill="#1d4ed8"/>
<circle cx="697.54" cy="368.68" r="3.2" fill="#1d4ed8"/>
<circle cx="700.52" cy="368.27" r="3.2" fill="#1d4ed8"/>
<circle cx="703.50" cy="367.87" r="3.2" fill="#1d4ed8"/>
<circle cx="706.48" cy="367.06" r="3.2" fill="#1d4ed8"/>
<circle cx="709.45" cy="367.46" r="3.2" fill="#1d4ed8"/>
<circle cx="712.43" cy="367.06" r="3.2" fill="#1d4ed8"/>
<circle cx="715.41" cy="366.25" r="3.2" fill="#1d4ed8"/>
<circle cx="718.39" cy="368.27" r="3.2" fill="#1d4ed8"/>
<circle cx="721.37" cy="368.68" r="3.2" fill="#1d4ed8"/>
<circle cx="724.34" cy="368.68" r="3.2" fill="#1d4ed8"/>
<circle cx="727.32" cy="368.27" r="3.2" fill="#1d4ed8"/>
<circle cx="730.30" cy="369.08" r="3.2" fill="#1d4ed8"/>
<circle cx="733.28" cy="367.87" r="3.2" fill="#1d4ed8"/>
<circle cx="736.26" cy="367.46" r="3.2" fill="#1d4ed8"/>
<circle cx="739.23" cy="367.06" r="3.2" fill="#1d4ed8"/>
<circle cx="742.21" cy="360.18" r="3.2" fill="#1d4ed8"/>
<circle cx="745.19" cy="359.78" r="3.2" fill="#1d4ed8"/>
<circle cx="748.17" cy="359.38" r="3.2" fill="#1d4ed8"/>
<circle cx="751.15" cy="356.95" r="3.2" fill="#1d4ed8"/>
<circle cx="754.13" cy="357.35" r="3.2" fill="#1d4ed8"/>
<circle cx="757.10" cy="357.76" r="3.2" fill="#1d4ed8"/>
<circle cx="760.08" cy="355.33" r="3.2" fill="#1d4ed8"/>
<circle cx="763.06" cy="355.74" r="3.2" fill="#1d4ed8"/>
<circle cx="766.04" cy="357.35" r="3.2" fill="#1d4ed8"/>
<circle cx="769.02" cy="355.33" r="3.2" fill="#1d4ed8"/>
<circle cx="771.99" cy="356.14" r="3.2" fill="#1d4ed8"/>
<circle cx="774.97" cy="355.74" r="3.2" fill="#1d4ed8"/>
<circle cx="777.95" cy="356.14" r="3.2" fill="#1d4ed8"/>
<circle cx="780.93" cy="354.12" r="3.2" fill="#1d4ed8"/>
<circle cx="783.91" cy="354.93" r="3.2" fill="#1d4ed8"/>
<circle cx="786.89" cy="356.14" r="3.2" fill="#1d4ed8"/>
<circle cx="789.86" cy="354.52" r="3.2" fill="#1d4ed8"/>
<circle cx="792.84" cy="353.71" r="3.2" fill="#1d4ed8"/>
<circle cx="795.82" cy="354.12" r="3.2" fill="#1d4ed8"/>
<circle cx="798.80" cy="354.93" r="3.2" fill="#1d4ed8"/>
<circle cx="801.78" cy="352.90" r="3.2" fill="#1d4ed8"/>
<circle cx="804.75" cy="353.71" r="3.2" fill="#1d4ed8"/>
<circle cx="807.73" cy="353.31" r="3.2" fill="#1d4ed8"/>
<circle cx="810.71" cy="353.31" r="3.2" fill="#1d4ed8"/>
<circle cx="813.69" cy="354.52" r="3.2" fill="#1d4ed8"/>
<circle cx="816.67" cy="352.90" r="3.2" fill="#1d4ed8"/>
<circle cx="819.64" cy="352.50" r="3.2" fill="#1d4ed8"/>
<circle cx="822.62" cy="352.50" r="3.2" fill="#1d4ed8"/>
<circle cx="825.60" cy="353.31" r="3.2" fill="#1d4ed8"/>
<circle cx="828.58" cy="352.50" r="3.2" fill="#1d4ed8"/>
<circle cx="831.56" cy="353.71" r="3.2" fill="#1d4ed8"/>
<circle cx="834.54" cy="354.12" r="3.2" fill="#1d4ed8"/>
<circle cx="837.51" cy="352.50" r="3.2" fill="#1d4ed8"/>
<circle cx="840.49" cy="352.90" r="3.2" fill="#1d4ed8"/>
<circle cx="843.47" cy="352.50" r="3.2" fill="#1d4ed8"/>
<circle cx="846.45" cy="352.10" r="3.2" fill="#1d4ed8"/>
<circle cx="849.43" cy="351.69" r="3.2" fill="#1d4ed8"/>
<circle cx="852.40" cy="352.10" r="3.2" fill="#1d4ed8"/>
<circle cx="855.38" cy="354.12" r="3.2" fill="#1d4ed8"/>
<circle cx="858.36" cy="352.50" r="3.2" fill="#1d4ed8"/>
<circle cx="861.34" cy="352.10" r="3.2" fill="#1d4ed8"/>
<circle cx="864.32" cy="352.10" r="3.2" fill="#1d4ed8"/>
<circle cx="867.30" cy="349.67" r="3.2" fill="#1d4ed8"/>
<circle cx="870.27" cy="349.67" r="3.2" fill="#1d4ed8"/>
<circle cx="873.25" cy="350.88" r="3.2" fill="#1d4ed8"/>
<circle cx="876.23" cy="351.29" r="3.2" fill="#1d4ed8"/>
<circle cx="879.21" cy="350.48" r="3.2" fill="#1d4ed8"/>
<circle cx="882.19" cy="352.10" r="3.2" fill="#1d4ed8"/>
<circle cx="885.16" cy="350.48" r="3.2" fill="#1d4ed8"/>
<circle cx="888.14" cy="350.48" r="3.2" fill="#1d4ed8"/>
<circle cx="891.12" cy="350.48" r="3.2" fill="#1d4ed8"/>
<circle cx="894.10" cy="350.07" r="3.2" fill="#1d4ed8"/>
<circle cx="897.08" cy="348.46" r="3.2" fill="#1d4ed8"/>
<circle cx="900.05" cy="351.29" r="3.2" fill="#1d4ed8"/>
<circle cx="903.03" cy="349.67" r="3.2" fill="#1d4ed8"/>
<circle cx="906.01" cy="351.29" r="3.2" fill="#1d4ed8"/>
<circle cx="908.99" cy="349.67" r="3.2" fill="#1d4ed8"/>
<circle cx="911.97" cy="348.86" r="3.2" fill="#1d4ed8"/>
<circle cx="914.95" cy="348.46" r="3.2" fill="#1d4ed8"/>
<circle cx="917.92" cy="348.46" r="3.2" fill="#1d4ed8"/>
<circle cx="920.90" cy="347.24" r="3.2" fill="#1d4ed8"/>
<circle cx="923.88" cy="348.86" r="3.2" fill="#1d4ed8"/>
<circle cx="926.86" cy="346.84" r="3.2" fill="#1d4ed8"/>
<circle cx="929.84" cy="348.46" r="3.2" fill="#1d4ed8"/>
<circle cx="932.81" cy="348.86" r="3.2" fill="#1d4ed8"/>
<circle cx="935.79" cy="346.84" r="3.2" fill="#1d4ed8"/>
<circle cx="938.77" cy="349.26" r="3.2" fill="#1d4ed8"/>
<circle cx="941.75" cy="348.05" r="3.2" fill="#1d4ed8"/>
<circle cx="944.73" cy="349.26" r="3.2" fill="#1d4ed8"/>
<circle cx="947.70" cy="349.26" r="3.2" fill="#1d4ed8"/>
<circle cx="950.68" cy="350.48" r="3.2" fill="#1d4ed8"/>
<circle cx="953.66" cy="352.90" r="3.2" fill="#1d4ed8"/>
<circle cx="956.64" cy="349.67" r="3.2" fill="#1d4ed8"/>
<circle cx="959.62" cy="348.46" r="3.2" fill="#1d4ed8"/>
<circle cx="962.60" cy="345.62" r="3.2" fill="#1d4ed8"/>
<circle cx="965.57" cy="344.82" r="3.2" fill="#1d4ed8"/>
<circle cx="968.55" cy="344.41" r="3.2" fill="#1d4ed8"/>
<circle cx="971.53" cy="342.39" r="3.2" fill="#1d4ed8"/>
<circle cx="974.51" cy="341.18" r="3.2" fill="#1d4ed8"/>
<circle cx="977.49" cy="341.58" r="3.2" fill="#1d4ed8"/>
<circle cx="980.46" cy="339.15" r="3.2" fill="#1d4ed8"/>
<circle cx="983.44" cy="338.35" r="3.2" fill="#1d4ed8"/>
<circle cx="986.42" cy="337.54" r="3.2" fill="#1d4ed8"/>
<circle cx="989.40" cy="336.73" r="3.2" fill="#1d4ed8"/>
<circle cx="992.38" cy="335.92" r="3.2" fill="#1d4ed8"/>
<circle cx="995.36" cy="337.54" r="3.2" fill="#1d4ed8"/>
<circle cx="998.33" cy="338.35" r="3.2" fill="#1d4ed8"/>
<circle cx="1001.31" cy="337.54" r="3.2" fill="#1d4ed8"/>
<circle cx="1004.29" cy="337.54" r="3.2" fill="#1d4ed8"/>
<circle cx="1007.27" cy="337.54" r="3.2" fill="#1d4ed8"/>
<circle cx="1010.25" cy="333.09" r="3.2" fill="#1d4ed8"/>
<circle cx="1013.22" cy="333.90" r="3.2" fill="#1d4ed8"/>
<circle cx="1016.20" cy="335.92" r="3.2" fill="#1d4ed8"/>
<circle cx="1019.18" cy="336.73" r="3.2" fill="#1d4ed8"/>
<circle cx="1022.16" cy="335.51" r="3.2" fill="#1d4ed8"/>
<circle cx="1025.14" cy="332.28" r="3.2" fill="#1d4ed8"/>
<circle cx="1028.11" cy="331.47" r="3.2" fill="#1d4ed8"/>
<circle cx="1031.09" cy="331.07" r="3.2" fill="#1d4ed8"/>
<circle cx="1034.07" cy="331.47" r="3.2" fill="#1d4ed8"/>
<circle cx="1037.05" cy="331.07" r="3.2" fill="#1d4ed8"/>
<circle cx="1040.03" cy="331.07" r="3.2" fill="#1d4ed8"/>
<circle cx="1043.01" cy="331.07" r="3.2" fill="#1d4ed8"/>
<circle cx="1045.98" cy="331.07" r="3.2" fill="#1d4ed8"/>
<circle cx="1048.96" cy="331.07" r="3.2" fill="#1d4ed8"/>
<circle cx="1051.94" cy="331.07" r="3.2" fill="#1d4ed8"/>
<circle cx="1054.92" cy="331.07" r="3.2" fill="#1d4ed8"/>
<circle cx="1057.90" cy="331.07" r="3.2" fill="#1d4ed8"/>
<circle cx="1060.87" cy="331.07" r="3.2" fill="#1d4ed8"/>
<circle cx="1063.85" cy="331.07" r="3.2" fill="#1d4ed8"/>
<circle cx="1066.83" cy="331.47" r="3.2" fill="#1d4ed8"/>
<circle cx="1069.81" cy="331.88" r="3.2" fill="#1d4ed8"/>
<circle cx="1072.79" cy="331.07" r="3.2" fill="#1d4ed8"/>
<circle cx="1075.77" cy="331.47" r="3.2" fill="#1d4ed8"/>
<circle cx="1078.74" cy="331.07" r="3.2" fill="#1d4ed8"/>
<circle cx="1081.72" cy="331.47" r="3.2" fill="#1d4ed8"/>
<circle cx="1084.70" cy="331.07" r="3.2" fill="#1d4ed8"/>
<circle cx="1087.68" cy="324.19" r="3.2" fill="#1d4ed8"/>
<circle cx="1090.66" cy="324.19" r="3.2" fill="#1d4ed8"/>
<circle cx="1093.63" cy="318.93" r="3.2" fill="#1d4ed8"/>
<circle cx="1096.61" cy="316.51" r="3.2" fill="#1d4ed8"/>
<circle cx="1099.59" cy="310.44" r="3.2" fill="#1d4ed8"/>
<circle cx="1102.57" cy="308.01" r="3.2" fill="#1d4ed8"/>
<circle cx="1105.55" cy="600.00" r="3.2" fill="#1d4ed8"/>
<circle cx="1108.52" cy="301.54" r="3.2" fill="#1d4ed8"/>
<circle cx="1111.50" cy="290.22" r="3.2" fill="#1d4ed8"/>
<circle cx="1114.48" cy="287.79" r="3.2" fill="#1d4ed8"/>
<circle cx="1117.46" cy="286.18" r="3.2" fill="#1d4ed8"/>
<circle cx="1120.44" cy="285.77" r="3.2" fill="#1d4ed8"/>
<circle cx="1123.42" cy="285.77" r="3.2" fill="#1d4ed8"/>
<circle cx="1126.39" cy="285.77" r="3.2" fill="#1d4ed8"/>
<circle cx="1129.37" cy="286.18" r="3.2" fill="#1d4ed8"/>
<circle cx="1132.35" cy="285.77" r="3.2" fill="#1d4ed8"/>
<circle cx="1135.33" cy="285.77" r="3.2" fill="#1d4ed8"/>
<circle cx="1138.31" cy="285.77" r="3.2" fill="#1d4ed8"/>
<circle cx="1141.28" cy="283.35" r="3.2" fill="#1d4ed8"/>
<circle cx="1144.26" cy="282.94" r="3.2" fill="#1d4ed8"/>
<circle cx="1147.24" cy="282.94" r="3.2" fill="#1d4ed8"/>
<circle cx="1150.22" cy="283.35" r="3.2" fill="#1d4ed8"/>
<circle cx="1153.20" cy="282.94" r="3.2" fill="#1d4ed8"/>
<circle cx="1156.17" cy="282.94" r="3.2" fill="#1d4ed8"/>
<circle cx="1159.15" cy="283.75" r="3.2" fill="#1d4ed8"/>
<circle cx="1162.13" cy="282.13" r="3.2" fill="#1d4ed8"/>
<circle cx="1165.11" cy="282.13" r="3.2" fill="#1d4ed8"/>
<circle cx="1168.09" cy="282.54" r="3.2" fill="#1d4ed8"/>
<circle cx="1171.07" cy="282.13" r="3.2" fill="#1d4ed8"/>
<circle cx="1174.04" cy="282.54" r="3.2" fill="#1d4ed8"/>
<circle cx="1177.02" cy="282.94" r="3.2" fill="#1d4ed8"/>
<circle cx="1180.00" cy="281.73" r="3.2" fill="#1d4ed8"/>
<text x="635" y="695" text-anchor="middle" font-size="14" fill="#111" font-family="sans-serif">Date</text>
<text x="24" y="325" text-anchor="middle" font-size="14" fill="#111" transform="rotate(-90 24,325)" font-family="sans-serif">Passed files</text>
</svg>
