<?xml version="1.0" encoding="UTF-8"?>
<svg xmlns="http://www.w3.org/2000/svg" width="1280" height="720" viewBox="0 0 1280 720">
<rect width="100%" height="100%" fill="#ffffff"/>
<text x="640" y="30" text-anchor="middle" font-size="22" font-family="sans-serif">Roast passed files history</text>
<line x1="90" y1="600" x2="1180" y2="600" stroke="#333" stroke-width="1.5"/>
<line x1="90" y1="50" x2="90" y2="600" stroke="#333" stroke-width="1.5"/>
<line x1="90" y1="600.00" x2="1180" y2="600.00" stroke="#e5e7eb" stroke-width="1"/>
<text x="78" y="605.00" text-anchor="end" font-size="12" fill="#111" font-family="sans-serif">0</text>
<line x1="90" y1="397.79" x2="1180" y2="397.79" stroke="#e5e7eb" stroke-width="1"/>
<text x="78" y="402.79" text-anchor="end" font-size="12" fill="#111" font-family="sans-serif">500</text>
<line x1="90" y1="195.59" x2="1180" y2="195.59" stroke="#e5e7eb" stroke-width="1"/>
<text x="78" y="200.59" text-anchor="end" font-size="12" fill="#111" font-family="sans-serif">1000</text>
<line x1="90.00" y1="600" x2="90.00" y2="606" stroke="#333" stroke-width="1"/>
<text x="90.00" y="624" text-anchor="end" font-size="11" fill="#111" transform="rotate(-40 90.00,624)" font-family="sans-serif">2026-02-12</text>
<line x1="224.28" y1="600" x2="224.28" y2="606" stroke="#333" stroke-width="1"/>
<text x="224.28" y="624" text-anchor="end" font-size="11" fill="#111" transform="rotate(-40 224.28,624)" font-family="sans-serif">2026-02-17</text>
<line x1="358.55" y1="600" x2="358.55" y2="606" stroke="#333" stroke-width="1"/>
<text x="358.55" y="624" text-anchor="end" font-size="11" fill="#111" transform="rotate(-40 358.55,624)" font-family="sans-serif">2026-02-19</text>
<line x1="492.83" y1="600" x2="492.83" y2="606" stroke="#333" stroke-width="1"/>
<text x="492.83" y="624" text-anchor="end" font-size="11" fill="#111" transform="rotate(-40 492.83,624)" font-family="sans-serif">2026-02-23</text>
<line x1="627.10" y1="600" x2="627.10" y2="606" stroke="#333" stroke-width="1"/>
<text x="627.10" y="624" text-anchor="end" font-size="11" fill="#111" transform="rotate(-40 627.10,624)" font-family="sans-serif">2026-02-25</text>
<line x1="761.38" y1="600" x2="761.38" y2="606" stroke="#333" stroke-width="1"/>
<text x="761.38" y="624" text-anchor="end" font-size="11" fill="#111" transform="rotate(-40 761.38,624)" font-family="sans-serif">2026-02-27</text>
<line x1="895.65" y1="600" x2="895.65" y2="606" stroke="#333" stroke-width="1"/>
<text x="895.65" y="624" text-anchor="end" font-size="11" fill="#111" transform="rotate(-40 895.65,624)" font-family="sans-serif">2026-03-01</text>
<line x1="1029.93" y1="600" x2="1029.93" y2="606" stroke="#333" stroke-width="1"/>
<text x="1029.93" y="624" text-anchor="end" font-size="11" fill="#111" transform="rotate(-40 1029.93,624)" font-family="sans-serif">2026-03-06</text>
<line x1="1164.20" y1="600" x2="1164.20" y2="606" stroke="#333" stroke-width="1"/>
<text x="1164.20" y="624" text-anchor="end" font-size="11" fill="#111" transform="rotate(-40 1164.20,624)" font-family="sans-serif">2026-03-07</text>
<line x1="1180.00" y1="600" x2="1180.00" y2="606" stroke="#333" stroke-width="1"/>
<text x="1180.00" y="624" text-anchor="end" font-size="11" fill="#111" transform="rotate(-40 1180.00,624)" font-family="sans-serif">2026-03-07</text>
<line x1="90" y1="75.88" x2="1180" y2="75.88" stroke="#dc2626" stroke-width="1.5" stroke-dasharray="8,4"/>
<text x="1184" y="79.88" font-size="12" fill="#dc2626" font-family="sans-serif">Goal: 1296</text>
<polyline fill="none" stroke="#2563eb" stroke-width="3" points="90.00,540.55 93.95,538.53 97.90,536.91 101.85,534.49 105.80,534.49 109.75,533.27 113.70,532.46 117.64,532.87 121.59,532.06 125.54,532.46 129.49,532.06 133.44,568.46 137.39,568.46 141.34,566.43 145.29,545.00 149.24,545.00 153.19,544.19 157.14,543.79 161.09,543.79 165.04,543.38 168.99,541.76 172.93,541.36 176.88,540.96 180.83,540.96 184.78,539.34 188.73,539.34 192.68,556.73 196.63,556.73 200.58,555.51 204.53,551.07 208.48,538.93 212.43,538.93 216.38,538.93 220.33,538.12 224.28,536.91 228.22,536.91 232.17,536.51 236.12,536.51 240.07,556.73 244.02,556.73 247.97,556.73 251.92,556.73 255.87,535.29 259.82,535.29 263.77,535.29 267.72,535.29 271.67,534.49 275.62,534.08 279.57,533.68 283.51,532.87 287.46,532.06 291.41,532.06 295.36,531.25 299.31,530.85 303.26,530.44 307.21,530.04 311.16,530.04 315.11,529.23 319.06,529.23 323.01,529.23 326.96,528.42 330.91,528.42 334.86,527.61 338.80,527.21 342.75,526.80 346.70,526.40 350.65,525.18 354.60,523.57 358.55,523.57 362.50,523.16 366.45,522.76 370.40,522.35 374.35,521.54 378.30,519.52 382.25,517.50 386.20,517.50 390.14,517.50 394.09,517.50 398.04,517.50 401.99,517.50 405.94,517.10 409.89,516.69 413.84,515.48 417.79,515.07 421.74,514.67 425.69,513.86 429.64,514.26 433.59,512.24 437.54,511.84 441.49,511.84 445.43,511.03 449.38,509.82 453.33,507.79 457.28,506.99 461.23,506.58 465.18,509.41 469.13,509.01 473.08,504.96 477.03,504.56 480.98,504.15 484.93,504.56 488.88,503.75 492.83,503.75 496.78,503.35 500.72,499.30 504.67,496.47 508.62,490.00 512.57,484.34 516.52,481.10 520.47,480.29 524.42,480.70 528.37,460.88 532.32,459.26 536.27,458.05 540.22,456.03 544.17,456.03 548.12,454.41 552.07,450.77 556.01,444.30 559.96,443.90 563.91,600.00 567.86,441.88 571.81,440.66 575.76,439.45 579.71,439.04 583.66,438.64 587.61,437.83 591.56,436.62 595.51,436.62 599.46,434.60 603.41,432.17 607.36,429.34 611.30,428.93 615.25,428.53 619.20,427.72 623.15,426.91 627.10,426.10 631.05,426.10 635.00,426.10 638.95,419.63 642.90,419.23 646.85,418.42 650.80,418.01 654.75,417.61 658.70,417.61 662.64,417.61 666.59,417.21 670.54,417.21 674.49,413.57 678.44,411.95 682.39,412.76 686.34,410.74 690.29,410.74 694.24,410.33 698.19,410.33 702.14,410.33 706.09,409.93 710.04,409.93 713.99,409.93 717.93,409.52 721.88,409.52 725.83,409.12 729.78,409.52 733.73,409.12 737.68,407.50 741.63,407.10 745.58,403.05 749.53,399.82 753.48,400.22 757.43,400.62 761.38,400.62 765.33,399.41 769.28,392.94 773.22,391.32 777.17,389.30 781.12,389.30 785.07,388.49 789.02,375.15 792.97,374.74 796.92,374.74 800.87,374.74 804.82,374.74 808.77,374.34 812.72,374.34 816.67,374.34 820.62,374.34 824.57,374.34 828.51,373.93 832.46,373.12 836.41,372.72 840.36,373.53 844.31,435.81 848.26,372.32 852.21,372.72 856.16,371.91 860.11,371.91 864.06,372.32 868.01,371.10 871.96,369.89 875.91,369.89 879.86,369.89 883.80,369.49 887.75,369.89 891.70,369.08 895.65,368.68 899.60,368.27 903.55,367.87 907.50,367.06 911.45,367.46 915.40,367.06 919.35,366.25 923.30,368.27 927.25,368.68 931.20,368.68 935.14,368.27 939.09,369.08 943.04,367.87 946.99,367.46 950.94,367.06 954.89,360.18 958.84,359.78 962.79,359.38 966.74,356.95 970.69,357.35 974.64,357.76 978.59,355.33 982.54,355.74 986.49,357.35 990.43,355.33 994.38,356.14 998.33,355.74 1002.28,356.14 1006.23,354.12 1010.18,354.93 1014.13,356.14 1018.08,354.52 1022.03,353.71 1025.98,354.12 1029.93,354.93 1033.88,352.90 1037.83,353.71 1041.78,353.31 1045.72,353.31 1049.67,354.52 1053.62,352.90 1057.57,352.50 1061.52,352.50 1065.47,353.31 1069.42,352.50 1073.37,353.71 1077.32,354.12 1081.27,352.50 1085.22,352.90 1089.17,352.50 1093.12,352.10 1097.07,351.69 1101.01,352.10 1104.96,354.12 1108.91,352.50 1112.86,352.10 1116.81,352.10 1120.76,349.67 1124.71,349.67 1128.66,350.88 1132.61,351.29 1136.56,350.48 1140.51,352.10 1144.46,350.48 1148.41,350.48 1152.36,350.48 1156.30,350.07 1160.25,348.46 1164.20,351.29 1168.15,349.67 1172.10,351.29 1176.05,349.67 1180.00,348.86"/>
<circle cx="90.00" cy="540.55" r="3.2" fill="#1d4ed8"/>
<circle cx="93.95" cy="538.53" r="3.2" fill="#1d4ed8"/>
<circle cx="97.90" cy="536.91" r="3.2" fill="#1d4ed8"/>
<circle cx="101.85" cy="534.49" r="3.2" fill="#1d4ed8"/>
<circle cx="105.80" cy="534.49" r="3.2" fill="#1d4ed8"/>
<circle cx="109.75" cy="533.27" r="3.2" fill="#1d4ed8"/>
<circle cx="113.70" cy="532.46" r="3.2" fill="#1d4ed8"/>
<circle cx="117.64" cy="532.87" r="3.2" fill="#1d4ed8"/>
<circle cx="121.59" cy="532.06" r="3.2" fill="#1d4ed8"/>
<circle cx="125.54" cy="532.46" r="3.2" fill="#1d4ed8"/>
<circle cx="129.49" cy="532.06" r="3.2" fill="#1d4ed8"/>
<circle cx="133.44" cy="568.46" r="3.2" fill="#1d4ed8"/>
<circle cx="137.39" cy="568.46" r="3.2" fill="#1d4ed8"/>
<circle cx="141.34" cy="566.43" r="3.2" fill="#1d4ed8"/>
<circle cx="145.29" cy="545.00" r="3.2" fill="#1d4ed8"/>
<circle cx="149.24" cy="545.00" r="3.2" fill="#1d4ed8"/>
<circle cx="153.19" cy="544.19" r="3.2" fill="#1d4ed8"/>
<circle cx="157.14" cy="543.79" r="3.2" fill="#1d4ed8"/>
<circle cx="161.09" cy="543.79" r="3.2" fill="#1d4ed8"/>
<circle cx="165.04" cy="543.38" r="3.2" fill="#1d4ed8"/>
<circle cx="168.99" cy="541.76" r="3.2" fill="#1d4ed8"/>
<circle cx="172.93" cy="541.36" r="3.2" fill="#1d4ed8"/>
<circle cx="176.88" cy="540.96" r="3.2" fill="#1d4ed8"/>
<circle cx="180.83" cy="540.96" r="3.2" fill="#1d4ed8"/>
<circle cx="184.78" cy="539.34" r="3.2" fill="#1d4ed8"/>
<circle cx="188.73" cy="539.34" r="3.2" fill="#1d4ed8"/>
<circle cx="192.68" cy="556.73" r="3.2" fill="#1d4ed8"/>
<circle cx="196.63" cy="556.73" r="3.2" fill="#1d4ed8"/>
<circle cx="200.58" cy="555.51" r="3.2" fill="#1d4ed8"/>
<circle cx="204.53" cy="551.07" r="3.2" fill="#1d4ed8"/>
<circle cx="208.48" cy="538.93" r="3.2" fill="#1d4ed8"/>
<circle cx="212.43" cy="538.93" r="3.2" fill="#1d4ed8"/>
<circle cx="216.38" cy="538.93" r="3.2" fill="#1d4ed8"/>
<circle cx="220.33" cy="538.12" r="3.2" fill="#1d4ed8"/>
<circle cx="224.28" cy="536.91" r="3.2" fill="#1d4ed8"/>
<circle cx="228.22" cy="536.91" r="3.2" fill="#1d4ed8"/>
<circle cx="232.17" cy="536.51" r="3.2" fill="#1d4ed8"/>
<circle cx="236.12" cy="536.51" r="3.2" fill="#1d4ed8"/>
<circle cx="240.07" cy="556.73" r="3.2" fill="#1d4ed8"/>
<circle cx="244.02" cy="556.73" r="3.2" fill="#1d4ed8"/>
<circle cx="247.97" cy="556.73" r="3.2" fill="#1d4ed8"/>
<circle cx="251.92" cy="556.73" r="3.2" fill="#1d4ed8"/>
<circle cx="255.87" cy="535.29" r="3.2" fill="#1d4ed8"/>
<circle cx="259.82" cy="535.29" r="3.2" fill="#1d4ed8"/>
<circle cx="263.77" cy="535.29" r="3.2" fill="#1d4ed8"/>
<circle cx="267.72" cy="535.29" r="3.2" fill="#1d4ed8"/>
<circle cx="271.67" cy="534.49" r="3.2" fill="#1d4ed8"/>
<circle cx="275.62" cy="534.08" r="3.2" fill="#1d4ed8"/>
<circle cx="279.57" cy="533.68" r="3.2" fill="#1d4ed8"/>
<circle cx="283.51" cy="532.87" r="3.2" fill="#1d4ed8"/>
<circle cx="287.46" cy="532.06" r="3.2" fill="#1d4ed8"/>
<circle cx="291.41" cy="532.06" r="3.2" fill="#1d4ed8"/>
<circle cx="295.36" cy="531.25" r="3.2" fill="#1d4ed8"/>
<circle cx="299.31" cy="530.85" r="3.2" fill="#1d4ed8"/>
<circle cx="303.26" cy="530.44" r="3.2" fill="#1d4ed8"/>
<circle cx="307.21" cy="530.04" r="3.2" fill="#1d4ed8"/>
<circle cx="311.16" cy="530.04" r="3.2" fill="#1d4ed8"/>
<circle cx="315.11" cy="529.23" r="3.2" fill="#1d4ed8"/>
<circle cx="319.06" cy="529.23" r="3.2" fill="#1d4ed8"/>
<circle cx="323.01" cy="529.23" r="3.2" fill="#1d4ed8"/>
<circle cx="326.96" cy="528.42" r="3.2" fill="#1d4ed8"/>
<circle cx="330.91" cy="528.42" r="3.2" fill="#1d4ed8"/>
<circle cx="334.86" cy="527.61" r="3.2" fill="#1d4ed8"/>
<circle cx="338.80" cy="527.21" r="3.2" fill="#1d4ed8"/>
<circle cx="342.75" cy="526.80" r="3.2" fill="#1d4ed8"/>
<circle cx="346.70" cy="526.40" r="3.2" fill="#1d4ed8"/>
<circle cx="350.65" cy="525.18" r="3.2" fill="#1d4ed8"/>
<circle cx="354.60" cy="523.57" r="3.2" fill="#1d4ed8"/>
<circle cx="358.55" cy="523.57" r="3.2" fill="#1d4ed8"/>
<circle cx="362.50" cy="523.16" r="3.2" fill="#1d4ed8"/>
<circle cx="366.45" cy="522.76" r="3.2" fill="#1d4ed8"/>
<circle cx="370.40" cy="522.35" r="3.2" fill="#1d4ed8"/>
<circle cx="374.35" cy="521.54" r="3.2" fill="#1d4ed8"/>
<circle cx="378.30" cy="519.52" r="3.2" fill="#1d4ed8"/>
<circle cx="382.25" cy="517.50" r="3.2" fill="#1d4ed8"/>
<circle cx="386.20" cy="517.50" r="3.2" fill="#1d4ed8"/>
<circle cx="390.14" cy="517.50" r="3.2" fill="#1d4ed8"/>
<circle cx="394.09" cy="517.50" r="3.2" fill="#1d4ed8"/>
<circle cx="398.04" cy="517.50" r="3.2" fill="#1d4ed8"/>
<circle cx="401.99" cy="517.50" r="3.2" fill="#1d4ed8"/>
<circle cx="405.94" cy="517.10" r="3.2" fill="#1d4ed8"/>
<circle cx="409.89" cy="516.69" r="3.2" fill="#1d4ed8"/>
<circle cx="413.84" cy="515.48" r="3.2" fill="#1d4ed8"/>
<circle cx="417.79" cy="515.07" r="3.2" fill="#1d4ed8"/>
<circle cx="421.74" cy="514.67" r="3.2" fill="#1d4ed8"/>
<circle cx="425.69" cy="513.86" r="3.2" fill="#1d4ed8"/>
<circle cx="429.64" cy="514.26" r="3.2" fill="#1d4ed8"/>
<circle cx="433.59" cy="512.24" r="3.2" fill="#1d4ed8"/>
<circle cx="437.54" cy="511.84" r="3.2" fill="#1d4ed8"/>
<circle cx="441.49" cy="511.84" r="3.2" fill="#1d4ed8"/>
<circle cx="445.43" cy="511.03" r="3.2" fill="#1d4ed8"/>
<circle cx="449.38" cy="509.82" r="3.2" fill="#1d4ed8"/>
<circle cx="453.33" cy="507.79" r="3.2" fill="#1d4ed8"/>
<circle cx="457.28" cy="506.99" r="3.2" fill="#1d4ed8"/>
<circle cx="461.23" cy="506.58" r="3.2" fill="#1d4ed8"/>
<circle cx="465.18" cy="509.41" r="3.2" fill="#1d4ed8"/>
<circle cx="469.13" cy="509.01" r="3.2" fill="#1d4ed8"/>
<circle cx="473.08" cy="504.96" r="3.2" fill="#1d4ed8"/>
<circle cx="477.03" cy="504.56" r="3.2" fill="#1d4ed8"/>
<circle cx="480.98" cy="504.15" r="3.2" fill="#1d4ed8"/>
<circle cx="484.93" cy="504.56" r="3.2" fill="#1d4ed8"/>
<circle cx="488.88" cy="503.75" r="3.2" fill="#1d4ed8"/>
<circle cx="492.83" cy="503.75" r="3.2" fill="#1d4ed8"/>
<circle cx="496.78" cy="503.35" r="3.2" fill="#1d4ed8"/>
<circle cx="500.72" cy="499.30" r="3.2" fill="#1d4ed8"/>
<circle cx="504.67" cy="496.47" r="3.2" fill="#1d4ed8"/>
<circle cx="508.62" cy="490.00" r="3.2" fill="#1d4ed8"/>
<circle cx="512.57" cy="484.34" r="3.2" fill="#1d4ed8"/>
<circle cx="516.52" cy="481.10" r="3.2" fill="#1d4ed8"/>
<circle cx="520.47" cy="480.29" r="3.2" fill="#1d4ed8"/>
<circle cx="524.42" cy="480.70" r="3.2" fill="#1d4ed8"/>
<circle cx="528.37" cy="460.88" r="3.2" fill="#1d4ed8"/>
<circle cx="532.32" cy="459.26" r="3.2" fill="#1d4ed8"/>
<circle cx="536.27" cy="458.05" r="3.2" fill="#1d4ed8"/>
<circle cx="540.22" cy="456.03" r="3.2" fill="#1d4ed8"/>
<circle cx="544.17" cy="456.03" r="3.2" fill="#1d4ed8"/>
<circle cx="548.12" cy="454.41" r="3.2" fill="#1d4ed8"/>
<circle cx="552.07" cy="450.77" r="3.2" fill="#1d4ed8"/>
<circle cx="556.01" cy="444.30" r="3.2" fill="#1d4ed8"/>
<circle cx="559.96" cy="443.90" r="3.2" fill="#1d4ed8"/>
<circle cx="563.91" cy="600.00" r="3.2" fill="#1d4ed8"/>
<circle cx="567.86" cy="441.88" r="3.2" fill="#1d4ed8"/>
<circle cx="571.81" cy="440.66" r="3.2" fill="#1d4ed8"/>
<circle cx="575.76" cy="439.45" r="3.2" fill="#1d4ed8"/>
<circle cx="579.71" cy="439.04" r="3.2" fill="#1d4ed8"/>
<circle cx="583.66" cy="438.64" r="3.2" fill="#1d4ed8"/>
<circle cx="587.61" cy="437.83" r="3.2" fill="#1d4ed8"/>
<circle cx="591.56" cy="436.62" r="3.2" fill="#1d4ed8"/>
<circle cx="595.51" cy="436.62" r="3.2" fill="#1d4ed8"/>
<circle cx="599.46" cy="434.60" r="3.2" fill="#1d4ed8"/>
<circle cx="603.41" cy="432.17" r="3.2" fill="#1d4ed8"/>
<circle cx="607.36" cy="429.34" r="3.2" fill="#1d4ed8"/>
<circle cx="611.30" cy="428.93" r="3.2" fill="#1d4ed8"/>
<circle cx="615.25" cy="428.53" r="3.2" fill="#1d4ed8"/>
<circle cx="619.20" cy="427.72" r="3.2" fill="#1d4ed8"/>
<circle cx="623.15" cy="426.91" r="3.2" fill="#1d4ed8"/>
<circle cx="627.10" cy="426.10" r="3.2" fill="#1d4ed8"/>
<circle cx="631.05" cy="426.10" r="3.2" fill="#1d4ed8"/>
<circle cx="635.00" cy="426.10" r="3.2" fill="#1d4ed8"/>
<circle cx="638.95" cy="419.63" r="3.2" fill="#1d4ed8"/>
<circle cx="642.90" cy="419.23" r="3.2" fill="#1d4ed8"/>
<circle cx="646.85" cy="418.42" r="3.2" fill="#1d4ed8"/>
<circle cx="650.80" cy="418.01" r="3.2" fill="#1d4ed8"/>
<circle cx="654.75" cy="417.61" r="3.2" fill="#1d4ed8"/>
<circle cx="658.70" cy="417.61" r="3.2" fill="#1d4ed8"/>
<circle cx="662.64" cy="417.61" r="3.2" fill="#1d4ed8"/>
<circle cx="666.59" cy="417.21" r="3.2" fill="#1d4ed8"/>
<circle cx="670.54" cy="417.21" r="3.2" fill="#1d4ed8"/>
<circle cx="674.49" cy="413.57" r="3.2" fill="#1d4ed8"/>
<circle cx="678.44" cy="411.95" r="3.2" fill="#1d4ed8"/>
<circle cx="682.39" cy="412.76" r="3.2" fill="#1d4ed8"/>
<circle cx="686.34" cy="410.74" r="3.2" fill="#1d4ed8"/>
<circle cx="690.29" cy="410.74" r="3.2" fill="#1d4ed8"/>
<circle cx="694.24" cy="410.33" r="3.2" fill="#1d4ed8"/>
<circle cx="698.19" cy="410.33" r="3.2" fill="#1d4ed8"/>
<circle cx="702.14" cy="410.33" r="3.2" fill="#1d4ed8"/>
<circle cx="706.09" cy="409.93" r="3.2" fill="#1d4ed8"/>
<circle cx="710.04" cy="409.93" r="3.2" fill="#1d4ed8"/>
<circle cx="713.99" cy="409.93" r="3.2" fill="#1d4ed8"/>
<circle cx="717.93" cy="409.52" r="3.2" fill="#1d4ed8"/>
<circle cx="721.88" cy="409.52" r="3.2" fill="#1d4ed8"/>
<circle cx="725.83" cy="409.12" r="3.2" fill="#1d4ed8"/>
<circle cx="729.78" cy="409.52" r="3.2" fill="#1d4ed8"/>
<circle cx="733.73" cy="409.12" r="3.2" fill="#1d4ed8"/>
<circle cx="737.68" cy="407.50" r="3.2" fill="#1d4ed8"/>
<circle cx="741.63" cy="407.10" r="3.2" fill="#1d4ed8"/>
<circle cx="745.58" cy="403.05" r="3.2" fill="#1d4ed8"/>
<circle cx="749.53" cy="399.82" r="3.2" fill="#1d4ed8"/>
<circle cx="753.48" cy="400.22" r="3.2" fill="#1d4ed8"/>
<circle cx="757.43" cy="400.62" r="3.2" fill="#1d4ed8"/>
<circle cx="761.38" cy="400.62" r="3.2" fill="#1d4ed8"/>
<circle cx="765.33" cy="399.41" r="3.2" fill="#1d4ed8"/>
<circle cx="769.28" cy="392.94" r="3.2" fill="#1d4ed8"/>
<circle cx="773.22" cy="391.32" r="3.2" fill="#1d4ed8"/>
<circle cx="777.17" cy="389.30" r="3.2" fill="#1d4ed8"/>
<circle cx="781.12" cy="389.30" r="3.2" fill="#1d4ed8"/>
<circle cx="785.07" cy="388.49" r="3.2" fill="#1d4ed8"/>
<circle cx="789.02" cy="375.15" r="3.2" fill="#1d4ed8"/>
<circle cx="792.97" cy="374.74" r="3.2" fill="#1d4ed8"/>
<circle cx="796.92" cy="374.74" r="3.2" fill="#1d4ed8"/>
<circle cx="800.87" cy="374.74" r="3.2" fill="#1d4ed8"/>
<circle cx="804.82" cy="374.74" r="3.2" fill="#1d4ed8"/>
<circle cx="808.77" cy="374.34" r="3.2" fill="#1d4ed8"/>
<circle cx="812.72" cy="374.34" r="3.2" fill="#1d4ed8"/>
<circle cx="816.67" cy="374.34" r="3.2" fill="#1d4ed8"/>
<circle cx="820.62" cy="374.34" r="3.2" fill="#1d4ed8"/>
<circle cx="824.57" cy="374.34" r="3.2" fill="#1d4ed8"/>
<circle cx="828.51" cy="373.93" r="3.2" fill="#1d4ed8"/>
<circle cx="832.46" cy="373.12" r="3.2" fill="#1d4ed8"/>
<circle cx="836.41" cy="372.72" r="3.2" fill="#1d4ed8"/>
<circle cx="840.36" cy="373.53" r="3.2" fill="#1d4ed8"/>
<circle cx="844.31" cy="435.81" r="3.2" fill="#1d4ed8"/>
<circle cx="848.26" cy="372.32" r="3.2" fill="#1d4ed8"/>
<circle cx="852.21" cy="372.72" r="3.2" fill="#1d4ed8"/>
<circle cx="856.16" cy="371.91" r="3.2" fill="#1d4ed8"/>
<circle cx="860.11" cy="371.91" r="3.2" fill="#1d4ed8"/>
<circle cx="864.06" cy="372.32" r="3.2" fill="#1d4ed8"/>
<circle cx="868.01" cy="371.10" r="3.2" fill="#1d4ed8"/>
<circle cx="871.96" cy="369.89" r="3.2" fill="#1d4ed8"/>
<circle cx="875.91" cy="369.89" r="3.2" fill="#1d4ed8"/>
<circle cx="879.86" cy="369.89" r="3.2" fill="#1d4ed8"/>
<circle cx="883.80" cy="369.49" r="3.2" fill="#1d4ed8"/>
<circle cx="887.75" cy="369.89" r="3.2" fill="#1d4ed8"/>
<circle cx="891.70" cy="369.08" r="3.2" fill="#1d4ed8"/>
<circle cx="895.65" cy="368.68" r="3.2" fill="#1d4ed8"/>
<circle cx="899.60" cy="368.27" r="3.2" fill="#1d4ed8"/>
<circle cx="903.55" cy="367.87" r="3.2" fill="#1d4ed8"/>
<circle cx="907.50" cy="367.06" r="3.2" fill="#1d4ed8"/>
<circle cx="911.45" cy="367.46" r="3.2" fill="#1d4ed8"/>
<circle cx="915.40" cy="367.06" r="3.2" fill="#1d4ed8"/>
<circle cx="919.35" cy="366.25" r="3.2" fill="#1d4ed8"/>
<circle cx="923.30" cy="368.27" r="3.2" fill="#1d4ed8"/>
<circle cx="927.25" cy="368.68" r="3.2" fill="#1d4ed8"/>
<circle cx="931.20" cy="368.68" r="3.2" fill="#1d4ed8"/>
<circle cx="935.14" cy="368.27" r="3.2" fill="#1d4ed8"/>
<circle cx="939.09" cy="369.08" r="3.2" fill="#1d4ed8"/>
<circle cx="943.04" cy="367.87" r="3.2" fill="#1d4ed8"/>
<circle cx="946.99" cy="367.46" r="3.2" fill="#1d4ed8"/>
<circle cx="950.94" cy="367.06" r="3.2" fill="#1d4ed8"/>
<circle cx="954.89" cy="360.18" r="3.2" fill="#1d4ed8"/>
<circle cx="958.84" cy="359.78" r="3.2" fill="#1d4ed8"/>
<circle cx="962.79" cy="359.38" r="3.2" fill="#1d4ed8"/>
<circle cx="966.74" cy="356.95" r="3.2" fill="#1d4ed8"/>
<circle cx="970.69" cy="357.35" r="3.2" fill="#1d4ed8"/>
<circle cx="974.64" cy="357.76" r="3.2" fill="#1d4ed8"/>
<circle cx="978.59" cy="355.33" r="3.2" fill="#1d4ed8"/>
<circle cx="982.54" cy="355.74" r="3.2" fill="#1d4ed8"/>
<circle cx="986.49" cy="357.35" r="3.2" fill="#1d4ed8"/>
<circle cx="990.43" cy="355.33" r="3.2" fill="#1d4ed8"/>
<circle cx="994.38" cy="356.14" r="3.2" fill="#1d4ed8"/>
<circle cx="998.33" cy="355.74" r="3.2" fill="#1d4ed8"/>
<circle cx="1002.28" cy="356.14" r="3.2" fill="#1d4ed8"/>
<circle cx="1006.23" cy="354.12" r="3.2" fill="#1d4ed8"/>
<circle cx="1010.18" cy="354.93" r="3.2" fill="#1d4ed8"/>
<circle cx="1014.13" cy="356.14" r="3.2" fill="#1d4ed8"/>
<circle cx="1018.08" cy="354.52" r="3.2" fill="#1d4ed8"/>
<circle cx="1022.03" cy="353.71" r="3.2" fill="#1d4ed8"/>
<circle cx="1025.98" cy="354.12" r="3.2" fill="#1d4ed8"/>
<circle cx="1029.93" cy="354.93" r="3.2" fill="#1d4ed8"/>
<circle cx="1033.88" cy="352.90" r="3.2" fill="#1d4ed8"/>
<circle cx="1037.83" cy="353.71" r="3.2" fill="#1d4ed8"/>
<circle cx="1041.78" cy="353.31" r="3.2" fill="#1d4ed8"/>
<circle cx="1045.72" cy="353.31" r="3.2" fill="#1d4ed8"/>
<circle cx="1049.67" cy="354.52" r="3.2" fill="#1d4ed8"/>
<circle cx="1053.62" cy="352.90" r="3.2" fill="#1d4ed8"/>
<circle cx="1057.57" cy="352.50" r="3.2" fill="#1d4ed8"/>
<circle cx="1061.52" cy="352.50" r="3.2" fill="#1d4ed8"/>
<circle cx="1065.47" cy="353.31" r="3.2" fill="#1d4ed8"/>
<circle cx="1069.42" cy="352.50" r="3.2" fill="#1d4ed8"/>
<circle cx="1073.37" cy="353.71" r="3.2" fill="#1d4ed8"/>
<circle cx="1077.32" cy="354.12" r="3.2" fill="#1d4ed8"/>
<circle cx="1081.27" cy="352.50" r="3.2" fill="#1d4ed8"/>
<circle cx="1085.22" cy="352.90" r="3.2" fill="#1d4ed8"/>
<circle cx="1089.17" cy="352.50" r="3.2" fill="#1d4ed8"/>
<circle cx="1093.12" cy="352.10" r="3.2" fill="#1d4ed8"/>
<circle cx="1097.07" cy="351.69" r="3.2" fill="#1d4ed8"/>
<circle cx="1101.01" cy="352.10" r="3.2" fill="#1d4ed8"/>
<circle cx="1104.96" cy="354.12" r="3.2" fill="#1d4ed8"/>
<circle cx="1108.91" cy="352.50" r="3.2" fill="#1d4ed8"/>
<circle cx="1112.86" cy="352.10" r="3.2" fill="#1d4ed8"/>
<circle cx="1116.81" cy="352.10" r="3.2" fill="#1d4ed8"/>
<circle cx="1120.76" cy="349.67" r="3.2" fill="#1d4ed8"/>
<circle cx="1124.71" cy="349.67" r="3.2" fill="#1d4ed8"/>
<circle cx="1128.66" cy="350.88" r="3.2" fill="#1d4ed8"/>
<circle cx="1132.61" cy="351.29" r="3.2" fill="#1d4ed8"/>
<circle cx="1136.56" cy="350.48" r="3.2" fill="#1d4ed8"/>
<circle cx="1140.51" cy="352.10" r="3.2" fill="#1d4ed8"/>
<circle cx="1144.46" cy="350.48" r="3.2" fill="#1d4ed8"/>
<circle cx="1148.41" cy="350.48" r="3.2" fill="#1d4ed8"/>
<circle cx="1152.36" cy="350.48" r="3.2" fill="#1d4ed8"/>
<circle cx="1156.30" cy="350.07" r="3.2" fill="#1d4ed8"/>
<circle cx="1160.25" cy="348.46" r="3.2" fill="#1d4ed8"/>
<circle cx="1164.20" cy="351.29" r="3.2" fill="#1d4ed8"/>
<circle cx="1168.15" cy="349.67" r="3.2" fill="#1d4ed8"/>
<circle cx="1172.10" cy="351.29" r="3.2" fill="#1d4ed8"/>
<circle cx="1176.05" cy="349.67" r="3.2" fill="#1d4ed8"/>
<circle cx="1180.00" cy="348.86" r="3.2" fill="#1d4ed8"/>
<text x="635" y="695" text-anchor="middle" font-size="14" fill="#111" font-family="sans-serif">Date</text>
<text x="24" y="325" text-anchor="middle" font-size="14" fill="#111" transform="rotate(-90 24,325)" font-family="sans-serif">Passed files</text>
</svg>
