<?xml version="1.0" encoding="UTF-8"?>
<svg xmlns="http://www.w3.org/2000/svg" width="1280" height="720" viewBox="0 0 1280 720">
<rect width="100%" height="100%" fill="#ffffff"/>
<text x="640" y="30" text-anchor="middle" font-size="22" font-family="sans-serif">Roast passed files history</text>
<line x1="90" y1="600" x2="1180" y2="600" stroke="#333" stroke-width="1.5"/>
<line x1="90" y1="50" x2="90" y2="600" stroke="#333" stroke-width="1.5"/>
<line x1="90" y1="600.00" x2="1180" y2="600.00" stroke="#e5e7eb" stroke-width="1"/>
<text x="78" y="605.00" text-anchor="end" font-size="12" fill="#111" font-family="sans-serif">0</text>
<line x1="90" y1="397.79" x2="1180" y2="397.79" stroke="#e5e7eb" stroke-width="1"/>
<text x="78" y="402.79" text-anchor="end" font-size="12" fill="#111" font-family="sans-serif">500</text>
<line x1="90" y1="195.59" x2="1180" y2="195.59" stroke="#e5e7eb" stroke-width="1"/>
<text x="78" y="200.59" text-anchor="end" font-size="12" fill="#111" font-family="sans-serif">1000</text>
<line x1="90.00" y1="600" x2="90.00" y2="606" stroke="#333" stroke-width="1"/>
<text x="90.00" y="624" text-anchor="end" font-size="11" fill="#111" transform="rotate(-40 90.00,624)" font-family="sans-serif">2026-02-12</text>
<line x1="226.25" y1="600" x2="226.25" y2="606" stroke="#333" stroke-width="1"/>
<text x="226.25" y="624" text-anchor="end" font-size="11" fill="#111" transform="rotate(-40 226.25,624)" font-family="sans-serif">2026-02-17</text>
<line x1="362.50" y1="600" x2="362.50" y2="606" stroke="#333" stroke-width="1"/>
<text x="362.50" y="624" text-anchor="end" font-size="11" fill="#111" transform="rotate(-40 362.50,624)" font-family="sans-serif">2026-02-18</text>
<line x1="498.75" y1="600" x2="498.75" y2="606" stroke="#333" stroke-width="1"/>
<text x="498.75" y="624" text-anchor="end" font-size="11" fill="#111" transform="rotate(-40 498.75,624)" font-family="sans-serif">2026-02-21</text>
<line x1="635.00" y1="600" x2="635.00" y2="606" stroke="#333" stroke-width="1"/>
<text x="635.00" y="624" text-anchor="end" font-size="11" fill="#111" transform="rotate(-40 635.00,624)" font-family="sans-serif">2026-02-25</text>
<line x1="771.25" y1="600" x2="771.25" y2="606" stroke="#333" stroke-width="1"/>
<text x="771.25" y="624" text-anchor="end" font-size="11" fill="#111" transform="rotate(-40 771.25,624)" font-family="sans-serif">2026-02-26</text>
<line x1="907.50" y1="600" x2="907.50" y2="606" stroke="#333" stroke-width="1"/>
<text x="907.50" y="624" text-anchor="end" font-size="11" fill="#111" transform="rotate(-40 907.50,624)" font-family="sans-serif">2026-02-28</text>
<line x1="1043.75" y1="600" x2="1043.75" y2="606" stroke="#333" stroke-width="1"/>
<text x="1043.75" y="624" text-anchor="end" font-size="11" fill="#111" transform="rotate(-40 1043.75,624)" font-family="sans-serif">2026-03-01</text>
<line x1="1180.00" y1="600" x2="1180.00" y2="606" stroke="#333" stroke-width="1"/>
<text x="1180.00" y="624" text-anchor="end" font-size="11" fill="#111" transform="rotate(-40 1180.00,624)" font-family="sans-serif">2026-03-06</text>
<line x1="90" y1="75.88" x2="1180" y2="75.88" stroke="#dc2626" stroke-width="1.5" stroke-dasharray="8,4"/>
<text x="1184" y="79.88" font-size="12" fill="#dc2626" font-family="sans-serif">Goal: 1296</text>
<polyline fill="none" stroke="#2563eb" stroke-width="3" points="90.00,540.55 94.70,538.53 99.40,536.91 104.09,534.49 108.79,534.49 113.49,533.27 118.19,532.46 122.89,532.87 127.59,532.06 132.28,532.46 136.98,532.06 141.68,568.46 146.38,568.46 151.08,566.43 155.78,545.00 160.47,545.00 165.17,544.19 169.87,543.79 174.57,543.79 179.27,543.38 183.97,541.76 188.66,541.36 193.36,540.96 198.06,540.96 202.76,539.34 207.46,539.34 212.16,556.73 216.85,556.73 221.55,555.51 226.25,551.07 230.95,538.93 235.65,538.93 240.34,538.93 245.04,538.12 249.74,536.91 254.44,536.91 259.14,536.51 263.84,536.51 268.53,556.73 273.23,556.73 277.93,556.73 282.63,556.73 287.33,535.29 292.03,535.29 296.72,535.29 301.42,535.29 306.12,534.49 310.82,534.08 315.52,533.68 320.22,532.87 324.91,532.06 329.61,532.06 334.31,531.25 339.01,530.85 343.71,530.44 348.41,530.04 353.10,530.04 357.80,529.23 362.50,529.23 367.20,529.23 371.90,528.42 376.59,528.42 381.29,527.61 385.99,527.21 390.69,526.80 395.39,526.40 400.09,525.18 404.78,523.57 409.48,523.57 414.18,523.16 418.88,522.76 423.58,522.35 428.28,521.54 432.97,519.52 437.67,517.50 442.37,517.50 447.07,517.50 451.77,517.50 456.47,517.50 461.16,517.50 465.86,517.10 470.56,516.69 475.26,515.48 479.96,515.07 484.66,514.67 489.35,513.86 494.05,514.26 498.75,512.24 503.45,511.84 508.15,511.84 512.84,511.03 517.54,509.82 522.24,507.79 526.94,506.99 531.64,506.58 536.34,509.41 541.03,509.01 545.73,504.96 550.43,504.56 555.13,504.15 559.83,504.56 564.53,503.75 569.22,503.75 573.92,503.35 578.62,499.30 583.32,496.47 588.02,490.00 592.72,484.34 597.41,481.10 602.11,480.29 606.81,480.70 611.51,460.88 616.21,459.26 620.91,458.05 625.60,456.03 630.30,456.03 635.00,454.41 639.70,450.77 644.40,444.30 649.09,443.90 653.79,600.00 658.49,441.88 663.19,440.66 667.89,439.45 672.59,439.04 677.28,438.64 681.98,437.83 686.68,436.62 691.38,436.62 696.08,434.60 700.78,432.17 705.47,429.34 710.17,428.93 714.87,428.53 719.57,427.72 724.27,426.91 728.97,426.10 733.66,426.10 738.36,426.10 743.06,419.63 747.76,419.23 752.46,418.42 757.16,418.01 761.85,417.61 766.55,417.61 771.25,417.61 775.95,417.21 780.65,417.21 785.34,413.57 790.04,411.95 794.74,412.76 799.44,410.74 804.14,410.74 808.84,410.33 813.53,410.33 818.23,410.33 822.93,409.93 827.63,409.93 832.33,409.93 837.03,409.52 841.72,409.52 846.42,409.12 851.12,409.52 855.82,409.12 860.52,407.50 865.22,407.10 869.91,403.05 874.61,399.82 879.31,400.22 884.01,400.62 888.71,400.62 893.41,399.41 898.10,392.94 902.80,391.32 907.50,389.30 912.20,389.30 916.90,388.49 921.59,375.15 926.29,374.74 930.99,374.74 935.69,374.74 940.39,374.74 945.09,374.34 949.78,374.34 954.48,374.34 959.18,374.34 963.88,374.34 968.58,373.93 973.28,373.12 977.97,372.72 982.67,373.53 987.37,435.81 992.07,372.32 996.77,372.72 1001.47,371.91 1006.16,371.91 1010.86,372.32 1015.56,371.10 1020.26,369.89 1024.96,369.89 1029.66,369.89 1034.35,369.49 1039.05,369.89 1043.75,369.08 1048.45,368.68 1053.15,368.27 1057.84,367.87 1062.54,367.06 1067.24,367.46 1071.94,367.06 1076.64,366.25 1081.34,368.27 1086.03,368.68 1090.73,368.68 1095.43,368.27 1100.13,369.08 1104.83,367.87 1109.53,367.46 1114.22,367.06 1118.92,360.18 1123.62,359.78 1128.32,359.38 1133.02,356.95 1137.72,357.35 1142.41,357.76 1147.11,355.33 1151.81,355.74 1156.51,357.35 1161.21,355.33 1165.91,356.14 1170.60,355.74 1175.30,356.14 1180.00,354.12"/>
<circle cx="90.00" cy="540.55" r="3.2" fill="#1d4ed8"/>
<circle cx="94.70" cy="538.53" r="3.2" fill="#1d4ed8"/>
<circle cx="99.40" cy="536.91" r="3.2" fill="#1d4ed8"/>
<circle cx="104.09" cy="534.49" r="3.2" fill="#1d4ed8"/>
<circle cx="108.79" cy="534.49" r="3.2" fill="#1d4ed8"/>
<circle cx="113.49" cy="533.27" r="3.2" fill="#1d4ed8"/>
<circle cx="118.19" cy="532.46" r="3.2" fill="#1d4ed8"/>
<circle cx="122.89" cy="532.87" r="3.2" fill="#1d4ed8"/>
<circle cx="127.59" cy="532.06" r="3.2" fill="#1d4ed8"/>
<circle cx="132.28" cy="532.46" r="3.2" fill="#1d4ed8"/>
<circle cx="136.98" cy="532.06" r="3.2" fill="#1d4ed8"/>
<circle cx="141.68" cy="568.46" r="3.2" fill="#1d4ed8"/>
<circle cx="146.38" cy="568.46" r="3.2" fill="#1d4ed8"/>
<circle cx="151.08" cy="566.43" r="3.2" fill="#1d4ed8"/>
<circle cx="155.78" cy="545.00" r="3.2" fill="#1d4ed8"/>
<circle cx="160.47" cy="545.00" r="3.2" fill="#1d4ed8"/>
<circle cx="165.17" cy="544.19" r="3.2" fill="#1d4ed8"/>
<circle cx="169.87" cy="543.79" r="3.2" fill="#1d4ed8"/>
<circle cx="174.57" cy="543.79" r="3.2" fill="#1d4ed8"/>
<circle cx="179.27" cy="543.38" r="3.2" fill="#1d4ed8"/>
<circle cx="183.97" cy="541.76" r="3.2" fill="#1d4ed8"/>
<circle cx="188.66" cy="541.36" r="3.2" fill="#1d4ed8"/>
<circle cx="193.36" cy="540.96" r="3.2" fill="#1d4ed8"/>
<circle cx="198.06" cy="540.96" r="3.2" fill="#1d4ed8"/>
<circle cx="202.76" cy="539.34" r="3.2" fill="#1d4ed8"/>
<circle cx="207.46" cy="539.34" r="3.2" fill="#1d4ed8"/>
<circle cx="212.16" cy="556.73" r="3.2" fill="#1d4ed8"/>
<circle cx="216.85" cy="556.73" r="3.2" fill="#1d4ed8"/>
<circle cx="221.55" cy="555.51" r="3.2" fill="#1d4ed8"/>
<circle cx="226.25" cy="551.07" r="3.2" fill="#1d4ed8"/>
<circle cx="230.95" cy="538.93" r="3.2" fill="#1d4ed8"/>
<circle cx="235.65" cy="538.93" r="3.2" fill="#1d4ed8"/>
<circle cx="240.34" cy="538.93" r="3.2" fill="#1d4ed8"/>
<circle cx="245.04" cy="538.12" r="3.2" fill="#1d4ed8"/>
<circle cx="249.74" cy="536.91" r="3.2" fill="#1d4ed8"/>
<circle cx="254.44" cy="536.91" r="3.2" fill="#1d4ed8"/>
<circle cx="259.14" cy="536.51" r="3.2" fill="#1d4ed8"/>
<circle cx="263.84" cy="536.51" r="3.2" fill="#1d4ed8"/>
<circle cx="268.53" cy="556.73" r="3.2" fill="#1d4ed8"/>
<circle cx="273.23" cy="556.73" r="3.2" fill="#1d4ed8"/>
<circle cx="277.93" cy="556.73" r="3.2" fill="#1d4ed8"/>
<circle cx="282.63" cy="556.73" r="3.2" fill="#1d4ed8"/>
<circle cx="287.33" cy="535.29" r="3.2" fill="#1d4ed8"/>
<circle cx="292.03" cy="535.29" r="3.2" fill="#1d4ed8"/>
<circle cx="296.72" cy="535.29" r="3.2" fill="#1d4ed8"/>
<circle cx="301.42" cy="535.29" r="3.2" fill="#1d4ed8"/>
<circle cx="306.12" cy="534.49" r="3.2" fill="#1d4ed8"/>
<circle cx="310.82" cy="534.08" r="3.2" fill="#1d4ed8"/>
<circle cx="315.52" cy="533.68" r="3.2" fill="#1d4ed8"/>
<circle cx="320.22" cy="532.87" r="3.2" fill="#1d4ed8"/>
<circle cx="324.91" cy="532.06" r="3.2" fill="#1d4ed8"/>
<circle cx="329.61" cy="532.06" r="3.2" fill="#1d4ed8"/>
<circle cx="334.31" cy="531.25" r="3.2" fill="#1d4ed8"/>
<circle cx="339.01" cy="530.85" r="3.2" fill="#1d4ed8"/>
<circle cx="343.71" cy="530.44" r="3.2" fill="#1d4ed8"/>
<circle cx="348.41" cy="530.04" r="3.2" fill="#1d4ed8"/>
<circle cx="353.10" cy="530.04" r="3.2" fill="#1d4ed8"/>
<circle cx="357.80" cy="529.23" r="3.2" fill="#1d4ed8"/>
<circle cx="362.50" cy="529.23" r="3.2" fill="#1d4ed8"/>
<circle cx="367.20" cy="529.23" r="3.2" fill="#1d4ed8"/>
<circle cx="371.90" cy="528.42" r="3.2" fill="#1d4ed8"/>
<circle cx="376.59" cy="528.42" r="3.2" fill="#1d4ed8"/>
<circle cx="381.29" cy="527.61" r="3.2" fill="#1d4ed8"/>
<circle cx="385.99" cy="527.21" r="3.2" fill="#1d4ed8"/>
<circle cx="390.69" cy="526.80" r="3.2" fill="#1d4ed8"/>
<circle cx="395.39" cy="526.40" r="3.2" fill="#1d4ed8"/>
<circle cx="400.09" cy="525.18" r="3.2" fill="#1d4ed8"/>
<circle cx="404.78" cy="523.57" r="3.2" fill="#1d4ed8"/>
<circle cx="409.48" cy="523.57" r="3.2" fill="#1d4ed8"/>
<circle cx="414.18" cy="523.16" r="3.2" fill="#1d4ed8"/>
<circle cx="418.88" cy="522.76" r="3.2" fill="#1d4ed8"/>
<circle cx="423.58" cy="522.35" r="3.2" fill="#1d4ed8"/>
<circle cx="428.28" cy="521.54" r="3.2" fill="#1d4ed8"/>
<circle cx="432.97" cy="519.52" r="3.2" fill="#1d4ed8"/>
<circle cx="437.67" cy="517.50" r="3.2" fill="#1d4ed8"/>
<circle cx="442.37" cy="517.50" r="3.2" fill="#1d4ed8"/>
<circle cx="447.07" cy="517.50" r="3.2" fill="#1d4ed8"/>
<circle cx="451.77" cy="517.50" r="3.2" fill="#1d4ed8"/>
<circle cx="456.47" cy="517.50" r="3.2" fill="#1d4ed8"/>
<circle cx="461.16" cy="517.50" r="3.2" fill="#1d4ed8"/>
<circle cx="465.86" cy="517.10" r="3.2" fill="#1d4ed8"/>
<circle cx="470.56" cy="516.69" r="3.2" fill="#1d4ed8"/>
<circle cx="475.26" cy="515.48" r="3.2" fill="#1d4ed8"/>
<circle cx="479.96" cy="515.07" r="3.2" fill="#1d4ed8"/>
<circle cx="484.66" cy="514.67" r="3.2" fill="#1d4ed8"/>
<circle cx="489.35" cy="513.86" r="3.2" fill="#1d4ed8"/>
<circle cx="494.05" cy="514.26" r="3.2" fill="#1d4ed8"/>
<circle cx="498.75" cy="512.24" r="3.2" fill="#1d4ed8"/>
<circle cx="503.45" cy="511.84" r="3.2" fill="#1d4ed8"/>
<circle cx="508.15" cy="511.84" r="3.2" fill="#1d4ed8"/>
<circle cx="512.84" cy="511.03" r="3.2" fill="#1d4ed8"/>
<circle cx="517.54" cy="509.82" r="3.2" fill="#1d4ed8"/>
<circle cx="522.24" cy="507.79" r="3.2" fill="#1d4ed8"/>
<circle cx="526.94" cy="506.99" r="3.2" fill="#1d4ed8"/>
<circle cx="531.64" cy="506.58" r="3.2" fill="#1d4ed8"/>
<circle cx="536.34" cy="509.41" r="3.2" fill="#1d4ed8"/>
<circle cx="541.03" cy="509.01" r="3.2" fill="#1d4ed8"/>
<circle cx="545.73" cy="504.96" r="3.2" fill="#1d4ed8"/>
<circle cx="550.43" cy="504.56" r="3.2" fill="#1d4ed8"/>
<circle cx="555.13" cy="504.15" r="3.2" fill="#1d4ed8"/>
<circle cx="559.83" cy="504.56" r="3.2" fill="#1d4ed8"/>
<circle cx="564.53" cy="503.75" r="3.2" fill="#1d4ed8"/>
<circle cx="569.22" cy="503.75" r="3.2" fill="#1d4ed8"/>
<circle cx="573.92" cy="503.35" r="3.2" fill="#1d4ed8"/>
<circle cx="578.62" cy="499.30" r="3.2" fill="#1d4ed8"/>
<circle cx="583.32" cy="496.47" r="3.2" fill="#1d4ed8"/>
<circle cx="588.02" cy="490.00" r="3.2" fill="#1d4ed8"/>
<circle cx="592.72" cy="484.34" r="3.2" fill="#1d4ed8"/>
<circle cx="597.41" cy="481.10" r="3.2" fill="#1d4ed8"/>
<circle cx="602.11" cy="480.29" r="3.2" fill="#1d4ed8"/>
<circle cx="606.81" cy="480.70" r="3.2" fill="#1d4ed8"/>
<circle cx="611.51" cy="460.88" r="3.2" fill="#1d4ed8"/>
<circle cx="616.21" cy="459.26" r="3.2" fill="#1d4ed8"/>
<circle cx="620.91" cy="458.05" r="3.2" fill="#1d4ed8"/>
<circle cx="625.60" cy="456.03" r="3.2" fill="#1d4ed8"/>
<circle cx="630.30" cy="456.03" r="3.2" fill="#1d4ed8"/>
<circle cx="635.00" cy="454.41" r="3.2" fill="#1d4ed8"/>
<circle cx="639.70" cy="450.77" r="3.2" fill="#1d4ed8"/>
<circle cx="644.40" cy="444.30" r="3.2" fill="#1d4ed8"/>
<circle cx="649.09" cy="443.90" r="3.2" fill="#1d4ed8"/>
<circle cx="653.79" cy="600.00" r="3.2" fill="#1d4ed8"/>
<circle cx="658.49" cy="441.88" r="3.2" fill="#1d4ed8"/>
<circle cx="663.19" cy="440.66" r="3.2" fill="#1d4ed8"/>
<circle cx="667.89" cy="439.45" r="3.2" fill="#1d4ed8"/>
<circle cx="672.59" cy="439.04" r="3.2" fill="#1d4ed8"/>
<circle cx="677.28" cy="438.64" r="3.2" fill="#1d4ed8"/>
<circle cx="681.98" cy="437.83" r="3.2" fill="#1d4ed8"/>
<circle cx="686.68" cy="436.62" r="3.2" fill="#1d4ed8"/>
<circle cx="691.38" cy="436.62" r="3.2" fill="#1d4ed8"/>
<circle cx="696.08" cy="434.60" r="3.2" fill="#1d4ed8"/>
<circle cx="700.78" cy="432.17" r="3.2" fill="#1d4ed8"/>
<circle cx="705.47" cy="429.34" r="3.2" fill="#1d4ed8"/>
<circle cx="710.17" cy="428.93" r="3.2" fill="#1d4ed8"/>
<circle cx="714.87" cy="428.53" r="3.2" fill="#1d4ed8"/>
<circle cx="719.57" cy="427.72" r="3.2" fill="#1d4ed8"/>
<circle cx="724.27" cy="426.91" r="3.2" fill="#1d4ed8"/>
<circle cx="728.97" cy="426.10" r="3.2" fill="#1d4ed8"/>
<circle cx="733.66" cy="426.10" r="3.2" fill="#1d4ed8"/>
<circle cx="738.36" cy="426.10" r="3.2" fill="#1d4ed8"/>
<circle cx="743.06" cy="419.63" r="3.2" fill="#1d4ed8"/>
<circle cx="747.76" cy="419.23" r="3.2" fill="#1d4ed8"/>
<circle cx="752.46" cy="418.42" r="3.2" fill="#1d4ed8"/>
<circle cx="757.16" cy="418.01" r="3.2" fill="#1d4ed8"/>
<circle cx="761.85" cy="417.61" r="3.2" fill="#1d4ed8"/>
<circle cx="766.55" cy="417.61" r="3.2" fill="#1d4ed8"/>
<circle cx="771.25" cy="417.61" r="3.2" fill="#1d4ed8"/>
<circle cx="775.95" cy="417.21" r="3.2" fill="#1d4ed8"/>
<circle cx="780.65" cy="417.21" r="3.2" fill="#1d4ed8"/>
<circle cx="785.34" cy="413.57" r="3.2" fill="#1d4ed8"/>
<circle cx="790.04" cy="411.95" r="3.2" fill="#1d4ed8"/>
<circle cx="794.74" cy="412.76" r="3.2" fill="#1d4ed8"/>
<circle cx="799.44" cy="410.74" r="3.2" fill="#1d4ed8"/>
<circle cx="804.14" cy="410.74" r="3.2" fill="#1d4ed8"/>
<circle cx="808.84" cy="410.33" r="3.2" fill="#1d4ed8"/>
<circle cx="813.53" cy="410.33" r="3.2" fill="#1d4ed8"/>
<circle cx="818.23" cy="410.33" r="3.2" fill="#1d4ed8"/>
<circle cx="822.93" cy="409.93" r="3.2" fill="#1d4ed8"/>
<circle cx="827.63" cy="409.93" r="3.2" fill="#1d4ed8"/>
<circle cx="832.33" cy="409.93" r="3.2" fill="#1d4ed8"/>
<circle cx="837.03" cy="409.52" r="3.2" fill="#1d4ed8"/>
<circle cx="841.72" cy="409.52" r="3.2" fill="#1d4ed8"/>
<circle cx="846.42" cy="409.12" r="3.2" fill="#1d4ed8"/>
<circle cx="851.12" cy="409.52" r="3.2" fill="#1d4ed8"/>
<circle cx="855.82" cy="409.12" r="3.2" fill="#1d4ed8"/>
<circle cx="860.52" cy="407.50" r="3.2" fill="#1d4ed8"/>
<circle cx="865.22" cy="407.10" r="3.2" fill="#1d4ed8"/>
<circle cx="869.91" cy="403.05" r="3.2" fill="#1d4ed8"/>
<circle cx="874.61" cy="399.82" r="3.2" fill="#1d4ed8"/>
<circle cx="879.31" cy="400.22" r="3.2" fill="#1d4ed8"/>
<circle cx="884.01" cy="400.62" r="3.2" fill="#1d4ed8"/>
<circle cx="888.71" cy="400.62" r="3.2" fill="#1d4ed8"/>
<circle cx="893.41" cy="399.41" r="3.2" fill="#1d4ed8"/>
<circle cx="898.10" cy="392.94" r="3.2" fill="#1d4ed8"/>
<circle cx="902.80" cy="391.32" r="3.2" fill="#1d4ed8"/>
<circle cx="907.50" cy="389.30" r="3.2" fill="#1d4ed8"/>
<circle cx="912.20" cy="389.30" r="3.2" fill="#1d4ed8"/>
<circle cx="916.90" cy="388.49" r="3.2" fill="#1d4ed8"/>
<circle cx="921.59" cy="375.15" r="3.2" fill="#1d4ed8"/>
<circle cx="926.29" cy="374.74" r="3.2" fill="#1d4ed8"/>
<circle cx="930.99" cy="374.74" r="3.2" fill="#1d4ed8"/>
<circle cx="935.69" cy="374.74" r="3.2" fill="#1d4ed8"/>
<circle cx="940.39" cy="374.74" r="3.2" fill="#1d4ed8"/>
<circle cx="945.09" cy="374.34" r="3.2" fill="#1d4ed8"/>
<circle cx="949.78" cy="374.34" r="3.2" fill="#1d4ed8"/>
<circle cx="954.48" cy="374.34" r="3.2" fill="#1d4ed8"/>
<circle cx="959.18" cy="374.34" r="3.2" fill="#1d4ed8"/>
<circle cx="963.88" cy="374.34" r="3.2" fill="#1d4ed8"/>
<circle cx="968.58" cy="373.93" r="3.2" fill="#1d4ed8"/>
<circle cx="973.28" cy="373.12" r="3.2" fill="#1d4ed8"/>
<circle cx="977.97" cy="372.72" r="3.2" fill="#1d4ed8"/>
<circle cx="982.67" cy="373.53" r="3.2" fill="#1d4ed8"/>
<circle cx="987.37" cy="435.81" r="3.2" fill="#1d4ed8"/>
<circle cx="992.07" cy="372.32" r="3.2" fill="#1d4ed8"/>
<circle cx="996.77" cy="372.72" r="3.2" fill="#1d4ed8"/>
<circle cx="1001.47" cy="371.91" r="3.2" fill="#1d4ed8"/>
<circle cx="1006.16" cy="371.91" r="3.2" fill="#1d4ed8"/>
<circle cx="1010.86" cy="372.32" r="3.2" fill="#1d4ed8"/>
<circle cx="1015.56" cy="371.10" r="3.2" fill="#1d4ed8"/>
<circle cx="1020.26" cy="369.89" r="3.2" fill="#1d4ed8"/>
<circle cx="1024.96" cy="369.89" r="3.2" fill="#1d4ed8"/>
<circle cx="1029.66" cy="369.89" r="3.2" fill="#1d4ed8"/>
<circle cx="1034.35" cy="369.49" r="3.2" fill="#1d4ed8"/>
<circle cx="1039.05" cy="369.89" r="3.2" fill="#1d4ed8"/>
<circle cx="1043.75" cy="369.08" r="3.2" fill="#1d4ed8"/>
<circle cx="1048.45" cy="368.68" r="3.2" fill="#1d4ed8"/>
<circle cx="1053.15" cy="368.27" r="3.2" fill="#1d4ed8"/>
<circle cx="1057.84" cy="367.87" r="3.2" fill="#1d4ed8"/>
<circle cx="1062.54" cy="367.06" r="3.2" fill="#1d4ed8"/>
<circle cx="1067.24" cy="367.46" r="3.2" fill="#1d4ed8"/>
<circle cx="1071.94" cy="367.06" r="3.2" fill="#1d4ed8"/>
<circle cx="1076.64" cy="366.25" r="3.2" fill="#1d4ed8"/>
<circle cx="1081.34" cy="368.27" r="3.2" fill="#1d4ed8"/>
<circle cx="1086.03" cy="368.68" r="3.2" fill="#1d4ed8"/>
<circle cx="1090.73" cy="368.68" r="3.2" fill="#1d4ed8"/>
<circle cx="1095.43" cy="368.27" r="3.2" fill="#1d4ed8"/>
<circle cx="1100.13" cy="369.08" r="3.2" fill="#1d4ed8"/>
<circle cx="1104.83" cy="367.87" r="3.2" fill="#1d4ed8"/>
<circle cx="1109.53" cy="367.46" r="3.2" fill="#1d4ed8"/>
<circle cx="1114.22" cy="367.06" r="3.2" fill="#1d4ed8"/>
<circle cx="1118.92" cy="360.18" r="3.2" fill="#1d4ed8"/>
<circle cx="1123.62" cy="359.78" r="3.2" fill="#1d4ed8"/>
<circle cx="1128.32" cy="359.38" r="3.2" fill="#1d4ed8"/>
<circle cx="1133.02" cy="356.95" r="3.2" fill="#1d4ed8"/>
<circle cx="1137.72" cy="357.35" r="3.2" fill="#1d4ed8"/>
<circle cx="1142.41" cy="357.76" r="3.2" fill="#1d4ed8"/>
<circle cx="1147.11" cy="355.33" r="3.2" fill="#1d4ed8"/>
<circle cx="1151.81" cy="355.74" r="3.2" fill="#1d4ed8"/>
<circle cx="1156.51" cy="357.35" r="3.2" fill="#1d4ed8"/>
<circle cx="1161.21" cy="355.33" r="3.2" fill="#1d4ed8"/>
<circle cx="1165.91" cy="356.14" r="3.2" fill="#1d4ed8"/>
<circle cx="1170.60" cy="355.74" r="3.2" fill="#1d4ed8"/>
<circle cx="1175.30" cy="356.14" r="3.2" fill="#1d4ed8"/>
<circle cx="1180.00" cy="354.12" r="3.2" fill="#1d4ed8"/>
<text x="635" y="695" text-anchor="middle" font-size="14" fill="#111" font-family="sans-serif">Date</text>
<text x="24" y="325" text-anchor="middle" font-size="14" fill="#111" transform="rotate(-90 24,325)" font-family="sans-serif">Passed files</text>
</svg>
