<?xml version="1.0" encoding="UTF-8"?>
<svg xmlns="http://www.w3.org/2000/svg" width="1280" height="720" viewBox="0 0 1280 720">
<rect width="100%" height="100%" fill="#ffffff"/>
<text x="640" y="30" text-anchor="middle" font-size="22" font-family="sans-serif">Roast passed files history</text>
<line x1="90" y1="600" x2="1180" y2="600" stroke="#333" stroke-width="1.5"/>
<line x1="90" y1="50" x2="90" y2="600" stroke="#333" stroke-width="1.5"/>
<line x1="90" y1="600.00" x2="1180" y2="600.00" stroke="#e5e7eb" stroke-width="1"/>
<text x="78" y="605.00" text-anchor="end" font-size="12" fill="#111" font-family="sans-serif">0</text>
<line x1="90" y1="397.79" x2="1180" y2="397.79" stroke="#e5e7eb" stroke-width="1"/>
<text x="78" y="402.79" text-anchor="end" font-size="12" fill="#111" font-family="sans-serif">500</text>
<line x1="90" y1="195.59" x2="1180" y2="195.59" stroke="#e5e7eb" stroke-width="1"/>
<text x="78" y="200.59" text-anchor="end" font-size="12" fill="#111" font-family="sans-serif">1000</text>
<line x1="90.00" y1="600" x2="90.00" y2="606" stroke="#333" stroke-width="1"/>
<text x="90.00" y="624" text-anchor="end" font-size="11" fill="#111" transform="rotate(-40 90.00,624)" font-family="sans-serif">2026-02-12</text>
<line x1="224.31" y1="600" x2="224.31" y2="606" stroke="#333" stroke-width="1"/>
<text x="224.31" y="624" text-anchor="end" font-size="11" fill="#111" transform="rotate(-40 224.31,624)" font-family="sans-serif">2026-02-17</text>
<line x1="358.63" y1="600" x2="358.63" y2="606" stroke="#333" stroke-width="1"/>
<text x="358.63" y="624" text-anchor="end" font-size="11" fill="#111" transform="rotate(-40 358.63,624)" font-family="sans-serif">2026-02-18</text>
<line x1="492.94" y1="600" x2="492.94" y2="606" stroke="#333" stroke-width="1"/>
<text x="492.94" y="624" text-anchor="end" font-size="11" fill="#111" transform="rotate(-40 492.94,624)" font-family="sans-serif">2026-02-20</text>
<line x1="627.25" y1="600" x2="627.25" y2="606" stroke="#333" stroke-width="1"/>
<text x="627.25" y="624" text-anchor="end" font-size="11" fill="#111" transform="rotate(-40 627.25,624)" font-family="sans-serif">2026-02-23</text>
<line x1="761.56" y1="600" x2="761.56" y2="606" stroke="#333" stroke-width="1"/>
<text x="761.56" y="624" text-anchor="end" font-size="11" fill="#111" transform="rotate(-40 761.56,624)" font-family="sans-serif">2026-02-25</text>
<line x1="895.88" y1="600" x2="895.88" y2="606" stroke="#333" stroke-width="1"/>
<text x="895.88" y="624" text-anchor="end" font-size="11" fill="#111" transform="rotate(-40 895.88,624)" font-family="sans-serif">2026-02-26</text>
<line x1="1030.19" y1="600" x2="1030.19" y2="606" stroke="#333" stroke-width="1"/>
<text x="1030.19" y="624" text-anchor="end" font-size="11" fill="#111" transform="rotate(-40 1030.19,624)" font-family="sans-serif">2026-02-28</text>
<line x1="1164.50" y1="600" x2="1164.50" y2="606" stroke="#333" stroke-width="1"/>
<text x="1164.50" y="624" text-anchor="end" font-size="11" fill="#111" transform="rotate(-40 1164.50,624)" font-family="sans-serif">2026-03-01</text>
<line x1="1180.00" y1="600" x2="1180.00" y2="606" stroke="#333" stroke-width="1"/>
<text x="1180.00" y="624" text-anchor="end" font-size="11" fill="#111" transform="rotate(-40 1180.00,624)" font-family="sans-serif">2026-03-02</text>
<line x1="90" y1="75.88" x2="1180" y2="75.88" stroke="#dc2626" stroke-width="1.5" stroke-dasharray="8,4"/>
<text x="1184" y="79.88" font-size="12" fill="#dc2626" font-family="sans-serif">Goal: 1296</text>
<polyline fill="none" stroke="#2563eb" stroke-width="3" points="90.00,540.55 95.17,538.53 100.33,536.91 105.50,534.49 110.66,534.49 115.83,533.27 121.00,532.46 126.16,532.87 131.33,532.06 136.49,532.46 141.66,532.06 146.82,568.46 151.99,568.46 157.16,566.43 162.32,545.00 167.49,545.00 172.65,544.19 177.82,543.79 182.99,543.79 188.15,543.38 193.32,541.76 198.48,541.36 203.65,540.96 208.82,540.96 213.98,539.34 219.15,539.34 224.31,556.73 229.48,556.73 234.64,555.51 239.81,551.07 244.98,538.93 250.14,538.93 255.31,538.93 260.47,538.12 265.64,536.91 270.81,536.91 275.97,536.51 281.14,536.51 286.30,556.73 291.47,556.73 296.64,556.73 301.80,556.73 306.97,535.29 312.13,535.29 317.30,535.29 322.46,535.29 327.63,534.49 332.80,534.08 337.96,533.68 343.13,532.87 348.29,532.06 353.46,532.06 358.63,531.25 363.79,530.85 368.96,530.44 374.12,530.04 379.29,530.04 384.45,529.23 389.62,529.23 394.79,529.23 399.95,528.42 405.12,528.42 410.28,527.61 415.45,527.21 420.62,526.80 425.78,526.40 430.95,525.18 436.11,523.57 441.28,523.57 446.45,523.16 451.61,522.76 456.78,522.35 461.94,521.54 467.11,519.52 472.27,517.50 477.44,517.50 482.61,517.50 487.77,517.50 492.94,517.50 498.10,517.50 503.27,517.10 508.44,516.69 513.60,515.48 518.77,515.07 523.93,514.67 529.10,513.86 534.27,514.26 539.43,512.24 544.60,511.84 549.76,511.84 554.93,511.03 560.09,509.82 565.26,507.79 570.43,506.99 575.59,506.58 580.76,509.41 585.92,509.01 591.09,504.96 596.26,504.56 601.42,504.15 606.59,504.56 611.75,503.75 616.92,503.75 622.09,503.35 627.25,499.30 632.42,496.47 637.58,490.00 642.75,484.34 647.91,481.10 653.08,480.29 658.25,480.70 663.41,460.88 668.58,459.26 673.74,458.05 678.91,456.03 684.08,456.03 689.24,454.41 694.41,450.77 699.57,444.30 704.74,443.90 709.91,600.00 715.07,441.88 720.24,440.66 725.40,439.45 730.57,439.04 735.73,438.64 740.90,437.83 746.07,436.62 751.23,436.62 756.40,434.60 761.56,432.17 766.73,429.34 771.90,428.93 777.06,428.53 782.23,427.72 787.39,426.91 792.56,426.10 797.73,426.10 802.89,426.10 808.06,419.63 813.22,419.23 818.39,418.42 823.55,418.01 828.72,417.61 833.89,417.61 839.05,417.61 844.22,417.21 849.38,417.21 854.55,413.57 859.72,411.95 864.88,412.76 870.05,410.74 875.21,410.74 880.38,410.33 885.55,410.33 890.71,410.33 895.88,409.93 901.04,409.93 906.21,409.93 911.37,409.52 916.54,409.52 921.71,409.12 926.87,409.52 932.04,409.12 937.20,407.50 942.37,407.10 947.54,403.05 952.70,399.82 957.87,400.22 963.03,400.62 968.20,400.62 973.36,399.41 978.53,392.94 983.70,391.32 988.86,389.30 994.03,389.30 999.19,388.49 1004.36,375.15 1009.53,374.74 1014.69,374.74 1019.86,374.74 1025.02,374.74 1030.19,374.34 1035.36,374.34 1040.52,374.34 1045.69,374.34 1050.85,374.34 1056.02,373.93 1061.18,373.12 1066.35,372.72 1071.52,373.53 1076.68,435.81 1081.85,372.32 1087.01,372.72 1092.18,371.91 1097.35,371.91 1102.51,372.32 1107.68,371.10 1112.84,369.89 1118.01,369.89 1123.18,369.89 1128.34,369.49 1133.51,369.89 1138.67,369.08 1143.84,368.68 1149.00,368.27 1154.17,367.87 1159.34,367.06 1164.50,367.46 1169.67,367.06 1174.83,366.25 1180.00,368.27"/>
<circle cx="90.00" cy="540.55" r="3.2" fill="#1d4ed8"/>
<circle cx="95.17" cy="538.53" r="3.2" fill="#1d4ed8"/>
<circle cx="100.33" cy="536.91" r="3.2" fill="#1d4ed8"/>
<circle cx="105.50" cy="534.49" r="3.2" fill="#1d4ed8"/>
<circle cx="110.66" cy="534.49" r="3.2" fill="#1d4ed8"/>
<circle cx="115.83" cy="533.27" r="3.2" fill="#1d4ed8"/>
<circle cx="121.00" cy="532.46" r="3.2" fill="#1d4ed8"/>
<circle cx="126.16" cy="532.87" r="3.2" fill="#1d4ed8"/>
<circle cx="131.33" cy="532.06" r="3.2" fill="#1d4ed8"/>
<circle cx="136.49" cy="532.46" r="3.2" fill="#1d4ed8"/>
<circle cx="141.66" cy="532.06" r="3.2" fill="#1d4ed8"/>
<circle cx="146.82" cy="568.46" r="3.2" fill="#1d4ed8"/>
<circle cx="151.99" cy="568.46" r="3.2" fill="#1d4ed8"/>
<circle cx="157.16" cy="566.43" r="3.2" fill="#1d4ed8"/>
<circle cx="162.32" cy="545.00" r="3.2" fill="#1d4ed8"/>
<circle cx="167.49" cy="545.00" r="3.2" fill="#1d4ed8"/>
<circle cx="172.65" cy="544.19" r="3.2" fill="#1d4ed8"/>
<circle cx="177.82" cy="543.79" r="3.2" fill="#1d4ed8"/>
<circle cx="182.99" cy="543.79" r="3.2" fill="#1d4ed8"/>
<circle cx="188.15" cy="543.38" r="3.2" fill="#1d4ed8"/>
<circle cx="193.32" cy="541.76" r="3.2" fill="#1d4ed8"/>
<circle cx="198.48" cy="541.36" r="3.2" fill="#1d4ed8"/>
<circle cx="203.65" cy="540.96" r="3.2" fill="#1d4ed8"/>
<circle cx="208.82" cy="540.96" r="3.2" fill="#1d4ed8"/>
<circle cx="213.98" cy="539.34" r="3.2" fill="#1d4ed8"/>
<circle cx="219.15" cy="539.34" r="3.2" fill="#1d4ed8"/>
<circle cx="224.31" cy="556.73" r="3.2" fill="#1d4ed8"/>
<circle cx="229.48" cy="556.73" r="3.2" fill="#1d4ed8"/>
<circle cx="234.64" cy="555.51" r="3.2" fill="#1d4ed8"/>
<circle cx="239.81" cy="551.07" r="3.2" fill="#1d4ed8"/>
<circle cx="244.98" cy="538.93" r="3.2" fill="#1d4ed8"/>
<circle cx="250.14" cy="538.93" r="3.2" fill="#1d4ed8"/>
<circle cx="255.31" cy="538.93" r="3.2" fill="#1d4ed8"/>
<circle cx="260.47" cy="538.12" r="3.2" fill="#1d4ed8"/>
<circle cx="265.64" cy="536.91" r="3.2" fill="#1d4ed8"/>
<circle cx="270.81" cy="536.91" r="3.2" fill="#1d4ed8"/>
<circle cx="275.97" cy="536.51" r="3.2" fill="#1d4ed8"/>
<circle cx="281.14" cy="536.51" r="3.2" fill="#1d4ed8"/>
<circle cx="286.30" cy="556.73" r="3.2" fill="#1d4ed8"/>
<circle cx="291.47" cy="556.73" r="3.2" fill="#1d4ed8"/>
<circle cx="296.64" cy="556.73" r="3.2" fill="#1d4ed8"/>
<circle cx="301.80" cy="556.73" r="3.2" fill="#1d4ed8"/>
<circle cx="306.97" cy="535.29" r="3.2" fill="#1d4ed8"/>
<circle cx="312.13" cy="535.29" r="3.2" fill="#1d4ed8"/>
<circle cx="317.30" cy="535.29" r="3.2" fill="#1d4ed8"/>
<circle cx="322.46" cy="535.29" r="3.2" fill="#1d4ed8"/>
<circle cx="327.63" cy="534.49" r="3.2" fill="#1d4ed8"/>
<circle cx="332.80" cy="534.08" r="3.2" fill="#1d4ed8"/>
<circle cx="337.96" cy="533.68" r="3.2" fill="#1d4ed8"/>
<circle cx="343.13" cy="532.87" r="3.2" fill="#1d4ed8"/>
<circle cx="348.29" cy="532.06" r="3.2" fill="#1d4ed8"/>
<circle cx="353.46" cy="532.06" r="3.2" fill="#1d4ed8"/>
<circle cx="358.63" cy="531.25" r="3.2" fill="#1d4ed8"/>
<circle cx="363.79" cy="530.85" r="3.2" fill="#1d4ed8"/>
<circle cx="368.96" cy="530.44" r="3.2" fill="#1d4ed8"/>
<circle cx="374.12" cy="530.04" r="3.2" fill="#1d4ed8"/>
<circle cx="379.29" cy="530.04" r="3.2" fill="#1d4ed8"/>
<circle cx="384.45" cy="529.23" r="3.2" fill="#1d4ed8"/>
<circle cx="389.62" cy="529.23" r="3.2" fill="#1d4ed8"/>
<circle cx="394.79" cy="529.23" r="3.2" fill="#1d4ed8"/>
<circle cx="399.95" cy="528.42" r="3.2" fill="#1d4ed8"/>
<circle cx="405.12" cy="528.42" r="3.2" fill="#1d4ed8"/>
<circle cx="410.28" cy="527.61" r="3.2" fill="#1d4ed8"/>
<circle cx="415.45" cy="527.21" r="3.2" fill="#1d4ed8"/>
<circle cx="420.62" cy="526.80" r="3.2" fill="#1d4ed8"/>
<circle cx="425.78" cy="526.40" r="3.2" fill="#1d4ed8"/>
<circle cx="430.95" cy="525.18" r="3.2" fill="#1d4ed8"/>
<circle cx="436.11" cy="523.57" r="3.2" fill="#1d4ed8"/>
<circle cx="441.28" cy="523.57" r="3.2" fill="#1d4ed8"/>
<circle cx="446.45" cy="523.16" r="3.2" fill="#1d4ed8"/>
<circle cx="451.61" cy="522.76" r="3.2" fill="#1d4ed8"/>
<circle cx="456.78" cy="522.35" r="3.2" fill="#1d4ed8"/>
<circle cx="461.94" cy="521.54" r="3.2" fill="#1d4ed8"/>
<circle cx="467.11" cy="519.52" r="3.2" fill="#1d4ed8"/>
<circle cx="472.27" cy="517.50" r="3.2" fill="#1d4ed8"/>
<circle cx="477.44" cy="517.50" r="3.2" fill="#1d4ed8"/>
<circle cx="482.61" cy="517.50" r="3.2" fill="#1d4ed8"/>
<circle cx="487.77" cy="517.50" r="3.2" fill="#1d4ed8"/>
<circle cx="492.94" cy="517.50" r="3.2" fill="#1d4ed8"/>
<circle cx="498.10" cy="517.50" r="3.2" fill="#1d4ed8"/>
<circle cx="503.27" cy="517.10" r="3.2" fill="#1d4ed8"/>
<circle cx="508.44" cy="516.69" r="3.2" fill="#1d4ed8"/>
<circle cx="513.60" cy="515.48" r="3.2" fill="#1d4ed8"/>
<circle cx="518.77" cy="515.07" r="3.2" fill="#1d4ed8"/>
<circle cx="523.93" cy="514.67" r="3.2" fill="#1d4ed8"/>
<circle cx="529.10" cy="513.86" r="3.2" fill="#1d4ed8"/>
<circle cx="534.27" cy="514.26" r="3.2" fill="#1d4ed8"/>
<circle cx="539.43" cy="512.24" r="3.2" fill="#1d4ed8"/>
<circle cx="544.60" cy="511.84" r="3.2" fill="#1d4ed8"/>
<circle cx="549.76" cy="511.84" r="3.2" fill="#1d4ed8"/>
<circle cx="554.93" cy="511.03" r="3.2" fill="#1d4ed8"/>
<circle cx="560.09" cy="509.82" r="3.2" fill="#1d4ed8"/>
<circle cx="565.26" cy="507.79" r="3.2" fill="#1d4ed8"/>
<circle cx="570.43" cy="506.99" r="3.2" fill="#1d4ed8"/>
<circle cx="575.59" cy="506.58" r="3.2" fill="#1d4ed8"/>
<circle cx="580.76" cy="509.41" r="3.2" fill="#1d4ed8"/>
<circle cx="585.92" cy="509.01" r="3.2" fill="#1d4ed8"/>
<circle cx="591.09" cy="504.96" r="3.2" fill="#1d4ed8"/>
<circle cx="596.26" cy="504.56" r="3.2" fill="#1d4ed8"/>
<circle cx="601.42" cy="504.15" r="3.2" fill="#1d4ed8"/>
<circle cx="606.59" cy="504.56" r="3.2" fill="#1d4ed8"/>
<circle cx="611.75" cy="503.75" r="3.2" fill="#1d4ed8"/>
<circle cx="616.92" cy="503.75" r="3.2" fill="#1d4ed8"/>
<circle cx="622.09" cy="503.35" r="3.2" fill="#1d4ed8"/>
<circle cx="627.25" cy="499.30" r="3.2" fill="#1d4ed8"/>
<circle cx="632.42" cy="496.47" r="3.2" fill="#1d4ed8"/>
<circle cx="637.58" cy="490.00" r="3.2" fill="#1d4ed8"/>
<circle cx="642.75" cy="484.34" r="3.2" fill="#1d4ed8"/>
<circle cx="647.91" cy="481.10" r="3.2" fill="#1d4ed8"/>
<circle cx="653.08" cy="480.29" r="3.2" fill="#1d4ed8"/>
<circle cx="658.25" cy="480.70" r="3.2" fill="#1d4ed8"/>
<circle cx="663.41" cy="460.88" r="3.2" fill="#1d4ed8"/>
<circle cx="668.58" cy="459.26" r="3.2" fill="#1d4ed8"/>
<circle cx="673.74" cy="458.05" r="3.2" fill="#1d4ed8"/>
<circle cx="678.91" cy="456.03" r="3.2" fill="#1d4ed8"/>
<circle cx="684.08" cy="456.03" r="3.2" fill="#1d4ed8"/>
<circle cx="689.24" cy="454.41" r="3.2" fill="#1d4ed8"/>
<circle cx="694.41" cy="450.77" r="3.2" fill="#1d4ed8"/>
<circle cx="699.57" cy="444.30" r="3.2" fill="#1d4ed8"/>
<circle cx="704.74" cy="443.90" r="3.2" fill="#1d4ed8"/>
<circle cx="709.91" cy="600.00" r="3.2" fill="#1d4ed8"/>
<circle cx="715.07" cy="441.88" r="3.2" fill="#1d4ed8"/>
<circle cx="720.24" cy="440.66" r="3.2" fill="#1d4ed8"/>
<circle cx="725.40" cy="439.45" r="3.2" fill="#1d4ed8"/>
<circle cx="730.57" cy="439.04" r="3.2" fill="#1d4ed8"/>
<circle cx="735.73" cy="438.64" r="3.2" fill="#1d4ed8"/>
<circle cx="740.90" cy="437.83" r="3.2" fill="#1d4ed8"/>
<circle cx="746.07" cy="436.62" r="3.2" fill="#1d4ed8"/>
<circle cx="751.23" cy="436.62" r="3.2" fill="#1d4ed8"/>
<circle cx="756.40" cy="434.60" r="3.2" fill="#1d4ed8"/>
<circle cx="761.56" cy="432.17" r="3.2" fill="#1d4ed8"/>
<circle cx="766.73" cy="429.34" r="3.2" fill="#1d4ed8"/>
<circle cx="771.90" cy="428.93" r="3.2" fill="#1d4ed8"/>
<circle cx="777.06" cy="428.53" r="3.2" fill="#1d4ed8"/>
<circle cx="782.23" cy="427.72" r="3.2" fill="#1d4ed8"/>
<circle cx="787.39" cy="426.91" r="3.2" fill="#1d4ed8"/>
<circle cx="792.56" cy="426.10" r="3.2" fill="#1d4ed8"/>
<circle cx="797.73" cy="426.10" r="3.2" fill="#1d4ed8"/>
<circle cx="802.89" cy="426.10" r="3.2" fill="#1d4ed8"/>
<circle cx="808.06" cy="419.63" r="3.2" fill="#1d4ed8"/>
<circle cx="813.22" cy="419.23" r="3.2" fill="#1d4ed8"/>
<circle cx="818.39" cy="418.42" r="3.2" fill="#1d4ed8"/>
<circle cx="823.55" cy="418.01" r="3.2" fill="#1d4ed8"/>
<circle cx="828.72" cy="417.61" r="3.2" fill="#1d4ed8"/>
<circle cx="833.89" cy="417.61" r="3.2" fill="#1d4ed8"/>
<circle cx="839.05" cy="417.61" r="3.2" fill="#1d4ed8"/>
<circle cx="844.22" cy="417.21" r="3.2" fill="#1d4ed8"/>
<circle cx="849.38" cy="417.21" r="3.2" fill="#1d4ed8"/>
<circle cx="854.55" cy="413.57" r="3.2" fill="#1d4ed8"/>
<circle cx="859.72" cy="411.95" r="3.2" fill="#1d4ed8"/>
<circle cx="864.88" cy="412.76" r="3.2" fill="#1d4ed8"/>
<circle cx="870.05" cy="410.74" r="3.2" fill="#1d4ed8"/>
<circle cx="875.21" cy="410.74" r="3.2" fill="#1d4ed8"/>
<circle cx="880.38" cy="410.33" r="3.2" fill="#1d4ed8"/>
<circle cx="885.55" cy="410.33" r="3.2" fill="#1d4ed8"/>
<circle cx="890.71" cy="410.33" r="3.2" fill="#1d4ed8"/>
<circle cx="895.88" cy="409.93" r="3.2" fill="#1d4ed8"/>
<circle cx="901.04" cy="409.93" r="3.2" fill="#1d4ed8"/>
<circle cx="906.21" cy="409.93" r="3.2" fill="#1d4ed8"/>
<circle cx="911.37" cy="409.52" r="3.2" fill="#1d4ed8"/>
<circle cx="916.54" cy="409.52" r="3.2" fill="#1d4ed8"/>
<circle cx="921.71" cy="409.12" r="3.2" fill="#1d4ed8"/>
<circle cx="926.87" cy="409.52" r="3.2" fill="#1d4ed8"/>
<circle cx="932.04" cy="409.12" r="3.2" fill="#1d4ed8"/>
<circle cx="937.20" cy="407.50" r="3.2" fill="#1d4ed8"/>
<circle cx="942.37" cy="407.10" r="3.2" fill="#1d4ed8"/>
<circle cx="947.54" cy="403.05" r="3.2" fill="#1d4ed8"/>
<circle cx="952.70" cy="399.82" r="3.2" fill="#1d4ed8"/>
<circle cx="957.87" cy="400.22" r="3.2" fill="#1d4ed8"/>
<circle cx="963.03" cy="400.62" r="3.2" fill="#1d4ed8"/>
<circle cx="968.20" cy="400.62" r="3.2" fill="#1d4ed8"/>
<circle cx="973.36" cy="399.41" r="3.2" fill="#1d4ed8"/>
<circle cx="978.53" cy="392.94" r="3.2" fill="#1d4ed8"/>
<circle cx="983.70" cy="391.32" r="3.2" fill="#1d4ed8"/>
<circle cx="988.86" cy="389.30" r="3.2" fill="#1d4ed8"/>
<circle cx="994.03" cy="389.30" r="3.2" fill="#1d4ed8"/>
<circle cx="999.19" cy="388.49" r="3.2" fill="#1d4ed8"/>
<circle cx="1004.36" cy="375.15" r="3.2" fill="#1d4ed8"/>
<circle cx="1009.53" cy="374.74" r="3.2" fill="#1d4ed8"/>
<circle cx="1014.69" cy="374.74" r="3.2" fill="#1d4ed8"/>
<circle cx="1019.86" cy="374.74" r="3.2" fill="#1d4ed8"/>
<circle cx="1025.02" cy="374.74" r="3.2" fill="#1d4ed8"/>
<circle cx="1030.19" cy="374.34" r="3.2" fill="#1d4ed8"/>
<circle cx="1035.36" cy="374.34" r="3.2" fill="#1d4ed8"/>
<circle cx="1040.52" cy="374.34" r="3.2" fill="#1d4ed8"/>
<circle cx="1045.69" cy="374.34" r="3.2" fill="#1d4ed8"/>
<circle cx="1050.85" cy="374.34" r="3.2" fill="#1d4ed8"/>
<circle cx="1056.02" cy="373.93" r="3.2" fill="#1d4ed8"/>
<circle cx="1061.18" cy="373.12" r="3.2" fill="#1d4ed8"/>
<circle cx="1066.35" cy="372.72" r="3.2" fill="#1d4ed8"/>
<circle cx="1071.52" cy="373.53" r="3.2" fill="#1d4ed8"/>
<circle cx="1076.68" cy="435.81" r="3.2" fill="#1d4ed8"/>
<circle cx="1081.85" cy="372.32" r="3.2" fill="#1d4ed8"/>
<circle cx="1087.01" cy="372.72" r="3.2" fill="#1d4ed8"/>
<circle cx="1092.18" cy="371.91" r="3.2" fill="#1d4ed8"/>
<circle cx="1097.35" cy="371.91" r="3.2" fill="#1d4ed8"/>
<circle cx="1102.51" cy="372.32" r="3.2" fill="#1d4ed8"/>
<circle cx="1107.68" cy="371.10" r="3.2" fill="#1d4ed8"/>
<circle cx="1112.84" cy="369.89" r="3.2" fill="#1d4ed8"/>
<circle cx="1118.01" cy="369.89" r="3.2" fill="#1d4ed8"/>
<circle cx="1123.18" cy="369.89" r="3.2" fill="#1d4ed8"/>
<circle cx="1128.34" cy="369.49" r="3.2" fill="#1d4ed8"/>
<circle cx="1133.51" cy="369.89" r="3.2" fill="#1d4ed8"/>
<circle cx="1138.67" cy="369.08" r="3.2" fill="#1d4ed8"/>
<circle cx="1143.84" cy="368.68" r="3.2" fill="#1d4ed8"/>
<circle cx="1149.00" cy="368.27" r="3.2" fill="#1d4ed8"/>
<circle cx="1154.17" cy="367.87" r="3.2" fill="#1d4ed8"/>
<circle cx="1159.34" cy="367.06" r="3.2" fill="#1d4ed8"/>
<circle cx="1164.50" cy="367.46" r="3.2" fill="#1d4ed8"/>
<circle cx="1169.67" cy="367.06" r="3.2" fill="#1d4ed8"/>
<circle cx="1174.83" cy="366.25" r="3.2" fill="#1d4ed8"/>
<circle cx="1180.00" cy="368.27" r="3.2" fill="#1d4ed8"/>
<text x="635" y="695" text-anchor="middle" font-size="14" fill="#111" font-family="sans-serif">Date</text>
<text x="24" y="325" text-anchor="middle" font-size="14" fill="#111" transform="rotate(-90 24,325)" font-family="sans-serif">Passed files</text>
</svg>
