<?xml version="1.0" encoding="UTF-8"?>
<svg xmlns="http://www.w3.org/2000/svg" width="1280" height="720" viewBox="0 0 1280 720">
<rect width="100%" height="100%" fill="#ffffff"/>
<text x="640" y="30" text-anchor="middle" font-size="22" font-family="sans-serif">Roast passed files history</text>
<line x1="90" y1="600" x2="1180" y2="600" stroke="#333" stroke-width="1.5"/>
<line x1="90" y1="50" x2="90" y2="600" stroke="#333" stroke-width="1.5"/>
<line x1="90" y1="600.00" x2="1180" y2="600.00" stroke="#e5e7eb" stroke-width="1"/>
<text x="78" y="605.00" text-anchor="end" font-size="12" fill="#111" font-family="sans-serif">0</text>
<line x1="90" y1="397.79" x2="1180" y2="397.79" stroke="#e5e7eb" stroke-width="1"/>
<text x="78" y="402.79" text-anchor="end" font-size="12" fill="#111" font-family="sans-serif">500</text>
<line x1="90" y1="195.59" x2="1180" y2="195.59" stroke="#e5e7eb" stroke-width="1"/>
<text x="78" y="200.59" text-anchor="end" font-size="12" fill="#111" font-family="sans-serif">1000</text>
<line x1="90.00" y1="600" x2="90.00" y2="606" stroke="#333" stroke-width="1"/>
<text x="90.00" y="624" text-anchor="end" font-size="11" fill="#111" transform="rotate(-40 90.00,624)" font-family="sans-serif">2026-02-12</text>
<line x1="226.25" y1="600" x2="226.25" y2="606" stroke="#333" stroke-width="1"/>
<text x="226.25" y="624" text-anchor="end" font-size="11" fill="#111" transform="rotate(-40 226.25,624)" font-family="sans-serif">2026-02-19</text>
<line x1="362.50" y1="600" x2="362.50" y2="606" stroke="#333" stroke-width="1"/>
<text x="362.50" y="624" text-anchor="end" font-size="11" fill="#111" transform="rotate(-40 362.50,624)" font-family="sans-serif">2026-02-25</text>
<line x1="498.75" y1="600" x2="498.75" y2="606" stroke="#333" stroke-width="1"/>
<text x="498.75" y="624" text-anchor="end" font-size="11" fill="#111" transform="rotate(-40 498.75,624)" font-family="sans-serif">2026-03-01</text>
<line x1="635.00" y1="600" x2="635.00" y2="606" stroke="#333" stroke-width="1"/>
<text x="635.00" y="624" text-anchor="end" font-size="11" fill="#111" transform="rotate(-40 635.00,624)" font-family="sans-serif">2026-03-06</text>
<line x1="771.25" y1="600" x2="771.25" y2="606" stroke="#333" stroke-width="1"/>
<text x="771.25" y="624" text-anchor="end" font-size="11" fill="#111" transform="rotate(-40 771.25,624)" font-family="sans-serif">2026-03-11</text>
<line x1="907.50" y1="600" x2="907.50" y2="606" stroke="#333" stroke-width="1"/>
<text x="907.50" y="624" text-anchor="end" font-size="11" fill="#111" transform="rotate(-40 907.50,624)" font-family="sans-serif">2026-03-19</text>
<line x1="1043.75" y1="600" x2="1043.75" y2="606" stroke="#333" stroke-width="1"/>
<text x="1043.75" y="624" text-anchor="end" font-size="11" fill="#111" transform="rotate(-40 1043.75,624)" font-family="sans-serif">2026-03-30</text>
<line x1="1180.00" y1="600" x2="1180.00" y2="606" stroke="#333" stroke-width="1"/>
<text x="1180.00" y="624" text-anchor="end" font-size="11" fill="#111" transform="rotate(-40 1180.00,624)" font-family="sans-serif">2026-07-12</text>
<line x1="90" y1="75.88" x2="1180" y2="75.88" stroke="#dc2626" stroke-width="1.5" stroke-dasharray="8,4"/>
<text x="1184" y="79.88" font-size="12" fill="#dc2626" font-family="sans-serif">Goal: 1296</text>
<polyline fill="none" stroke="#2563eb" stroke-width="3" points="90.00,540.55 92.06,538.53 94.13,536.91 96.19,534.49 98.26,534.49 100.32,533.27 102.39,532.46 104.45,532.87 106.52,532.06 108.58,532.46 110.64,532.06 112.71,568.46 114.77,568.46 116.84,566.43 118.90,545.00 120.97,545.00 123.03,544.19 125.09,543.79 127.16,543.79 129.22,543.38 131.29,541.76 133.35,541.36 135.42,540.96 137.48,540.96 139.55,539.34 141.61,539.34 143.67,556.73 145.74,556.73 147.80,555.51 149.87,551.07 151.93,538.93 154.00,538.93 156.06,538.93 158.12,538.12 160.19,536.91 162.25,536.91 164.32,536.51 166.38,536.51 168.45,556.73 170.51,556.73 172.58,556.73 174.64,556.73 176.70,535.29 178.77,535.29 180.83,535.29 182.90,535.29 184.96,534.49 187.03,534.08 189.09,533.68 191.16,532.87 193.22,532.06 195.28,532.06 197.35,531.25 199.41,530.85 201.48,530.44 203.54,530.04 205.61,530.04 207.67,529.23 209.73,529.23 211.80,529.23 213.86,528.42 215.93,528.42 217.99,527.61 220.06,527.21 222.12,526.80 224.19,526.40 226.25,525.18 228.31,523.57 230.38,523.57 232.44,523.16 234.51,522.76 236.57,522.35 238.64,521.54 240.70,519.52 242.77,517.50 244.83,517.50 246.89,517.50 248.96,517.50 251.02,517.50 253.09,517.50 255.15,517.10 257.22,516.69 259.28,515.48 261.34,515.07 263.41,514.67 265.47,513.86 267.54,514.26 269.60,512.24 271.67,511.84 273.73,511.84 275.80,511.03 277.86,509.82 279.92,507.79 281.99,506.99 284.05,506.58 286.12,509.41 288.18,509.01 290.25,504.96 292.31,504.56 294.38,504.15 296.44,504.56 298.50,503.75 300.57,503.75 302.63,503.35 304.70,499.30 306.76,496.47 308.83,490.00 310.89,484.34 312.95,481.10 315.02,480.29 317.08,480.70 319.15,460.88 321.21,459.26 323.28,458.05 325.34,456.03 327.41,456.03 329.47,454.41 331.53,450.77 333.60,444.30 335.66,443.90 337.73,600.00 339.79,441.88 341.86,440.66 343.92,439.45 345.98,439.04 348.05,438.64 350.11,437.83 352.18,436.62 354.24,436.62 356.31,434.60 358.37,432.17 360.44,429.34 362.50,428.93 364.56,428.53 366.63,427.72 368.69,426.91 370.76,426.10 372.82,426.10 374.89,426.10 376.95,419.63 379.02,419.23 381.08,418.42 383.14,418.01 385.21,417.61 387.27,417.61 389.34,417.61 391.40,417.21 393.47,417.21 395.53,413.57 397.59,411.95 399.66,412.76 401.72,410.74 403.79,410.74 405.85,410.33 407.92,410.33 409.98,410.33 412.05,409.93 414.11,409.93 416.17,409.93 418.24,409.52 420.30,409.52 422.37,409.12 424.43,409.52 426.50,409.12 428.56,407.50 430.62,407.10 432.69,403.05 434.75,399.82 436.82,400.22 438.88,400.62 440.95,400.62 443.01,399.41 445.08,392.94 447.14,391.32 449.20,389.30 451.27,389.30 453.33,388.49 455.40,375.15 457.46,374.74 459.53,374.74 461.59,374.74 463.66,374.74 465.72,374.34 467.78,374.34 469.85,374.34 471.91,374.34 473.98,374.34 476.04,373.93 478.11,373.12 480.17,372.72 482.23,373.53 484.30,435.81 486.36,372.32 488.43,372.72 490.49,371.91 492.56,371.91 494.62,372.32 496.69,371.10 498.75,369.89 500.81,369.89 502.88,369.89 504.94,369.49 507.01,369.89 509.07,369.08 511.14,368.68 513.20,368.27 515.27,367.87 517.33,367.06 519.39,367.46 521.46,367.06 523.52,366.25 525.59,368.27 527.65,368.68 529.72,368.68 531.78,368.27 533.84,369.08 535.91,367.87 537.97,367.46 540.04,367.06 542.10,360.18 544.17,359.78 546.23,359.38 548.30,356.95 550.36,357.35 552.42,357.76 554.49,355.33 556.55,355.74 558.62,357.35 560.68,355.33 562.75,356.14 564.81,355.74 566.88,356.14 568.94,354.12 571.00,354.93 573.07,356.14 575.13,354.52 577.20,353.71 579.26,354.12 581.33,354.93 583.39,352.90 585.45,353.71 587.52,353.31 589.58,353.31 591.65,354.52 593.71,352.90 595.78,352.50 597.84,352.50 599.91,353.31 601.97,352.50 604.03,353.71 606.10,354.12 608.16,352.50 610.23,352.90 612.29,352.50 614.36,352.10 616.42,351.69 618.48,352.10 620.55,354.12 622.61,352.50 624.68,352.10 626.74,352.10 628.81,349.67 630.87,349.67 632.94,350.88 635.00,351.29 637.06,350.48 639.13,352.10 641.19,350.48 643.26,350.48 645.32,350.48 647.39,350.07 649.45,348.46 651.52,351.29 653.58,349.67 655.64,351.29 657.71,349.67 659.77,348.86 661.84,348.46 663.90,348.46 665.97,347.24 668.03,348.86 670.09,346.84 672.16,348.46 674.22,348.86 676.29,346.84 678.35,349.26 680.42,348.05 682.48,349.26 684.55,349.26 686.61,350.48 688.67,352.90 690.74,349.67 692.80,348.46 694.87,345.62 696.93,344.82 699.00,344.41 701.06,342.39 703.12,341.18 705.19,341.58 707.25,339.15 709.32,338.35 711.38,337.54 713.45,336.73 715.51,335.92 717.58,337.54 719.64,338.35 721.70,337.54 723.77,337.54 725.83,337.54 727.90,333.09 729.96,333.90 732.03,335.92 734.09,336.73 736.16,335.51 738.22,332.28 740.28,331.47 742.35,331.07 744.41,331.47 746.48,331.07 748.54,331.07 750.61,331.07 752.67,331.07 754.73,331.07 756.80,331.07 758.86,331.07 760.93,331.07 762.99,331.07 765.06,331.07 767.12,331.47 769.19,331.88 771.25,331.07 773.31,331.47 775.38,331.07 777.44,331.47 779.51,331.07 781.57,324.19 783.64,324.19 785.70,318.93 787.77,316.51 789.83,310.44 791.89,308.01 793.96,600.00 796.02,301.54 798.09,290.22 800.15,287.79 802.22,286.18 804.28,285.77 806.34,285.77 808.41,285.77 810.47,286.18 812.54,285.77 814.60,285.77 816.67,285.77 818.73,283.35 820.80,282.94 822.86,282.94 824.92,283.35 826.99,282.94 829.05,282.94 831.12,283.75 833.18,282.13 835.25,282.13 837.31,282.54 839.38,282.13 841.44,282.54 843.50,282.94 845.57,281.73 847.63,282.54 849.70,281.73 851.76,282.54 853.83,282.13 855.89,282.13 857.95,281.73 860.02,281.73 862.08,281.32 864.15,281.73 866.21,282.13 868.28,281.32 870.34,281.32 872.41,282.54 874.47,282.13 876.53,281.32 878.60,281.32 880.66,281.32 882.73,282.54 884.79,282.13 886.86,281.32 888.92,282.13 890.98,281.73 893.05,282.13 895.11,280.11 897.18,280.11 899.24,280.51 901.31,279.71 903.37,280.11 905.44,280.51 907.50,279.71 909.56,280.11 911.63,280.11 913.69,279.30 915.76,278.90 917.82,278.90 919.89,280.51 921.95,279.30 924.02,278.09 926.08,278.49 928.14,278.49 930.21,277.28 932.27,277.68 934.34,277.68 936.40,278.09 938.47,277.28 940.53,600.00 942.59,278.90 944.66,279.30 946.72,278.90 948.79,278.49 950.85,278.49 952.92,278.49 954.98,278.49 957.05,278.49 959.11,278.49 961.17,278.49 963.24,278.49 965.30,278.49 967.37,278.49 969.43,278.49 971.50,278.49 973.56,600.00 975.62,600.00 977.69,254.63 979.75,600.00 981.82,245.74 983.88,245.74 985.95,246.14 988.01,245.74 990.08,245.74 992.14,245.74 994.20,245.74 996.27,245.74 998.33,240.07 1000.40,238.05 1002.46,238.05 1004.53,227.13 1006.59,227.13 1008.66,226.32 1010.72,227.54 1012.78,226.73 1014.85,226.32 1016.91,227.13 1018.98,227.13 1021.04,226.73 1023.11,226.32 1025.17,226.73 1027.23,226.73 1029.30,226.73 1031.36,225.11 1033.43,224.71 1035.49,225.11 1037.56,224.30 1039.62,226.32 1041.69,224.30 1043.75,225.51 1045.81,225.51 1047.88,225.51 1049.94,225.92 1052.01,223.09 1054.07,223.49 1056.14,223.09 1058.20,223.09 1060.27,223.90 1062.33,223.49 1064.39,223.49 1066.46,223.09 1068.52,223.09 1070.59,223.49 1072.65,223.09 1074.72,223.09 1076.78,223.49 1078.84,223.49 1080.91,223.09 1082.97,223.09 1085.04,223.49 1087.10,223.09 1089.17,223.09 1091.23,223.09 1093.30,223.49 1095.36,223.49 1097.42,223.49 1099.49,223.09 1101.55,223.49 1103.62,223.09 1105.68,223.09 1107.75,223.49 1109.81,223.09 1111.88,223.09 1113.94,223.49 1116.00,222.68 1118.07,221.88 1120.13,223.49 1122.20,223.09 1124.26,223.49 1126.33,224.30 1128.39,201.65 1130.45,201.65 1132.52,186.69 1134.58,176.18 1136.65,174.15 1138.71,172.94 1140.78,172.94 1142.84,162.02 1144.91,161.21 1146.97,148.27 1149.03,155.96 1151.10,139.78 1153.16,135.33 1155.23,147.06 1157.29,131.29 1159.36,119.56 1161.42,114.71 1163.48,113.90 1165.55,114.30 1167.61,112.68 1169.68,111.07 1171.74,110.26 1173.81,107.02 1175.87,105.40 1177.94,89.63 1180.00,85.99"/>
<circle cx="90.00" cy="540.55" r="3.2" fill="#1d4ed8"/>
<circle cx="92.06" cy="538.53" r="3.2" fill="#1d4ed8"/>
<circle cx="94.13" cy="536.91" r="3.2" fill="#1d4ed8"/>
<circle cx="96.19" cy="534.49" r="3.2" fill="#1d4ed8"/>
<circle cx="98.26" cy="534.49" r="3.2" fill="#1d4ed8"/>
<circle cx="100.32" cy="533.27" r="3.2" fill="#1d4ed8"/>
<circle cx="102.39" cy="532.46" r="3.2" fill="#1d4ed8"/>
<circle cx="104.45" cy="532.87" r="3.2" fill="#1d4ed8"/>
<circle cx="106.52" cy="532.06" r="3.2" fill="#1d4ed8"/>
<circle cx="108.58" cy="532.46" r="3.2" fill="#1d4ed8"/>
<circle cx="110.64" cy="532.06" r="3.2" fill="#1d4ed8"/>
<circle cx="112.71" cy="568.46" r="3.2" fill="#1d4ed8"/>
<circle cx="114.77" cy="568.46" r="3.2" fill="#1d4ed8"/>
<circle cx="116.84" cy="566.43" r="3.2" fill="#1d4ed8"/>
<circle cx="118.90" cy="545.00" r="3.2" fill="#1d4ed8"/>
<circle cx="120.97" cy="545.00" r="3.2" fill="#1d4ed8"/>
<circle cx="123.03" cy="544.19" r="3.2" fill="#1d4ed8"/>
<circle cx="125.09" cy="543.79" r="3.2" fill="#1d4ed8"/>
<circle cx="127.16" cy="543.79" r="3.2" fill="#1d4ed8"/>
<circle cx="129.22" cy="543.38" r="3.2" fill="#1d4ed8"/>
<circle cx="131.29" cy="541.76" r="3.2" fill="#1d4ed8"/>
<circle cx="133.35" cy="541.36" r="3.2" fill="#1d4ed8"/>
<circle cx="135.42" cy="540.96" r="3.2" fill="#1d4ed8"/>
<circle cx="137.48" cy="540.96" r="3.2" fill="#1d4ed8"/>
<circle cx="139.55" cy="539.34" r="3.2" fill="#1d4ed8"/>
<circle cx="141.61" cy="539.34" r="3.2" fill="#1d4ed8"/>
<circle cx="143.67" cy="556.73" r="3.2" fill="#1d4ed8"/>
<circle cx="145.74" cy="556.73" r="3.2" fill="#1d4ed8"/>
<circle cx="147.80" cy="555.51" r="3.2" fill="#1d4ed8"/>
<circle cx="149.87" cy="551.07" r="3.2" fill="#1d4ed8"/>
<circle cx="151.93" cy="538.93" r="3.2" fill="#1d4ed8"/>
<circle cx="154.00" cy="538.93" r="3.2" fill="#1d4ed8"/>
<circle cx="156.06" cy="538.93" r="3.2" fill="#1d4ed8"/>
<circle cx="158.12" cy="538.12" r="3.2" fill="#1d4ed8"/>
<circle cx="160.19" cy="536.91" r="3.2" fill="#1d4ed8"/>
<circle cx="162.25" cy="536.91" r="3.2" fill="#1d4ed8"/>
<circle cx="164.32" cy="536.51" r="3.2" fill="#1d4ed8"/>
<circle cx="166.38" cy="536.51" r="3.2" fill="#1d4ed8"/>
<circle cx="168.45" cy="556.73" r="3.2" fill="#1d4ed8"/>
<circle cx="170.51" cy="556.73" r="3.2" fill="#1d4ed8"/>
<circle cx="172.58" cy="556.73" r="3.2" fill="#1d4ed8"/>
<circle cx="174.64" cy="556.73" r="3.2" fill="#1d4ed8"/>
<circle cx="176.70" cy="535.29" r="3.2" fill="#1d4ed8"/>
<circle cx="178.77" cy="535.29" r="3.2" fill="#1d4ed8"/>
<circle cx="180.83" cy="535.29" r="3.2" fill="#1d4ed8"/>
<circle cx="182.90" cy="535.29" r="3.2" fill="#1d4ed8"/>
<circle cx="184.96" cy="534.49" r="3.2" fill="#1d4ed8"/>
<circle cx="187.03" cy="534.08" r="3.2" fill="#1d4ed8"/>
<circle cx="189.09" cy="533.68" r="3.2" fill="#1d4ed8"/>
<circle cx="191.16" cy="532.87" r="3.2" fill="#1d4ed8"/>
<circle cx="193.22" cy="532.06" r="3.2" fill="#1d4ed8"/>
<circle cx="195.28" cy="532.06" r="3.2" fill="#1d4ed8"/>
<circle cx="197.35" cy="531.25" r="3.2" fill="#1d4ed8"/>
<circle cx="199.41" cy="530.85" r="3.2" fill="#1d4ed8"/>
<circle cx="201.48" cy="530.44" r="3.2" fill="#1d4ed8"/>
<circle cx="203.54" cy="530.04" r="3.2" fill="#1d4ed8"/>
<circle cx="205.61" cy="530.04" r="3.2" fill="#1d4ed8"/>
<circle cx="207.67" cy="529.23" r="3.2" fill="#1d4ed8"/>
<circle cx="209.73" cy="529.23" r="3.2" fill="#1d4ed8"/>
<circle cx="211.80" cy="529.23" r="3.2" fill="#1d4ed8"/>
<circle cx="213.86" cy="528.42" r="3.2" fill="#1d4ed8"/>
<circle cx="215.93" cy="528.42" r="3.2" fill="#1d4ed8"/>
<circle cx="217.99" cy="527.61" r="3.2" fill="#1d4ed8"/>
<circle cx="220.06" cy="527.21" r="3.2" fill="#1d4ed8"/>
<circle cx="222.12" cy="526.80" r="3.2" fill="#1d4ed8"/>
<circle cx="224.19" cy="526.40" r="3.2" fill="#1d4ed8"/>
<circle cx="226.25" cy="525.18" r="3.2" fill="#1d4ed8"/>
<circle cx="228.31" cy="523.57" r="3.2" fill="#1d4ed8"/>
<circle cx="230.38" cy="523.57" r="3.2" fill="#1d4ed8"/>
<circle cx="232.44" cy="523.16" r="3.2" fill="#1d4ed8"/>
<circle cx="234.51" cy="522.76" r="3.2" fill="#1d4ed8"/>
<circle cx="236.57" cy="522.35" r="3.2" fill="#1d4ed8"/>
<circle cx="238.64" cy="521.54" r="3.2" fill="#1d4ed8"/>
<circle cx="240.70" cy="519.52" r="3.2" fill="#1d4ed8"/>
<circle cx="242.77" cy="517.50" r="3.2" fill="#1d4ed8"/>
<circle cx="244.83" cy="517.50" r="3.2" fill="#1d4ed8"/>
<circle cx="246.89" cy="517.50" r="3.2" fill="#1d4ed8"/>
<circle cx="248.96" cy="517.50" r="3.2" fill="#1d4ed8"/>
<circle cx="251.02" cy="517.50" r="3.2" fill="#1d4ed8"/>
<circle cx="253.09" cy="517.50" r="3.2" fill="#1d4ed8"/>
<circle cx="255.15" cy="517.10" r="3.2" fill="#1d4ed8"/>
<circle cx="257.22" cy="516.69" r="3.2" fill="#1d4ed8"/>
<circle cx="259.28" cy="515.48" r="3.2" fill="#1d4ed8"/>
<circle cx="261.34" cy="515.07" r="3.2" fill="#1d4ed8"/>
<circle cx="263.41" cy="514.67" r="3.2" fill="#1d4ed8"/>
<circle cx="265.47" cy="513.86" r="3.2" fill="#1d4ed8"/>
<circle cx="267.54" cy="514.26" r="3.2" fill="#1d4ed8"/>
<circle cx="269.60" cy="512.24" r="3.2" fill="#1d4ed8"/>
<circle cx="271.67" cy="511.84" r="3.2" fill="#1d4ed8"/>
<circle cx="273.73" cy="511.84" r="3.2" fill="#1d4ed8"/>
<circle cx="275.80" cy="511.03" r="3.2" fill="#1d4ed8"/>
<circle cx="277.86" cy="509.82" r="3.2" fill="#1d4ed8"/>
<circle cx="279.92" cy="507.79" r="3.2" fill="#1d4ed8"/>
<circle cx="281.99" cy="506.99" r="3.2" fill="#1d4ed8"/>
<circle cx="284.05" cy="506.58" r="3.2" fill="#1d4ed8"/>
<circle cx="286.12" cy="509.41" r="3.2" fill="#1d4ed8"/>
<circle cx="288.18" cy="509.01" r="3.2" fill="#1d4ed8"/>
<circle cx="290.25" cy="504.96" r="3.2" fill="#1d4ed8"/>
<circle cx="292.31" cy="504.56" r="3.2" fill="#1d4ed8"/>
<circle cx="294.38" cy="504.15" r="3.2" fill="#1d4ed8"/>
<circle cx="296.44" cy="504.56" r="3.2" fill="#1d4ed8"/>
<circle cx="298.50" cy="503.75" r="3.2" fill="#1d4ed8"/>
<circle cx="300.57" cy="503.75" r="3.2" fill="#1d4ed8"/>
<circle cx="302.63" cy="503.35" r="3.2" fill="#1d4ed8"/>
<circle cx="304.70" cy="499.30" r="3.2" fill="#1d4ed8"/>
<circle cx="306.76" cy="496.47" r="3.2" fill="#1d4ed8"/>
<circle cx="308.83" cy="490.00" r="3.2" fill="#1d4ed8"/>
<circle cx="310.89" cy="484.34" r="3.2" fill="#1d4ed8"/>
<circle cx="312.95" cy="481.10" r="3.2" fill="#1d4ed8"/>
<circle cx="315.02" cy="480.29" r="3.2" fill="#1d4ed8"/>
<circle cx="317.08" cy="480.70" r="3.2" fill="#1d4ed8"/>
<circle cx="319.15" cy="460.88" r="3.2" fill="#1d4ed8"/>
<circle cx="321.21" cy="459.26" r="3.2" fill="#1d4ed8"/>
<circle cx="323.28" cy="458.05" r="3.2" fill="#1d4ed8"/>
<circle cx="325.34" cy="456.03" r="3.2" fill="#1d4ed8"/>
<circle cx="327.41" cy="456.03" r="3.2" fill="#1d4ed8"/>
<circle cx="329.47" cy="454.41" r="3.2" fill="#1d4ed8"/>
<circle cx="331.53" cy="450.77" r="3.2" fill="#1d4ed8"/>
<circle cx="333.60" cy="444.30" r="3.2" fill="#1d4ed8"/>
<circle cx="335.66" cy="443.90" r="3.2" fill="#1d4ed8"/>
<circle cx="337.73" cy="600.00" r="3.2" fill="#1d4ed8"/>
<circle cx="339.79" cy="441.88" r="3.2" fill="#1d4ed8"/>
<circle cx="341.86" cy="440.66" r="3.2" fill="#1d4ed8"/>
<circle cx="343.92" cy="439.45" r="3.2" fill="#1d4ed8"/>
<circle cx="345.98" cy="439.04" r="3.2" fill="#1d4ed8"/>
<circle cx="348.05" cy="438.64" r="3.2" fill="#1d4ed8"/>
<circle cx="350.11" cy="437.83" r="3.2" fill="#1d4ed8"/>
<circle cx="352.18" cy="436.62" r="3.2" fill="#1d4ed8"/>
<circle cx="354.24" cy="436.62" r="3.2" fill="#1d4ed8"/>
<circle cx="356.31" cy="434.60" r="3.2" fill="#1d4ed8"/>
<circle cx="358.37" cy="432.17" r="3.2" fill="#1d4ed8"/>
<circle cx="360.44" cy="429.34" r="3.2" fill="#1d4ed8"/>
<circle cx="362.50" cy="428.93" r="3.2" fill="#1d4ed8"/>
<circle cx="364.56" cy="428.53" r="3.2" fill="#1d4ed8"/>
<circle cx="366.63" cy="427.72" r="3.2" fill="#1d4ed8"/>
<circle cx="368.69" cy="426.91" r="3.2" fill="#1d4ed8"/>
<circle cx="370.76" cy="426.10" r="3.2" fill="#1d4ed8"/>
<circle cx="372.82" cy="426.10" r="3.2" fill="#1d4ed8"/>
<circle cx="374.89" cy="426.10" r="3.2" fill="#1d4ed8"/>
<circle cx="376.95" cy="419.63" r="3.2" fill="#1d4ed8"/>
<circle cx="379.02" cy="419.23" r="3.2" fill="#1d4ed8"/>
<circle cx="381.08" cy="418.42" r="3.2" fill="#1d4ed8"/>
<circle cx="383.14" cy="418.01" r="3.2" fill="#1d4ed8"/>
<circle cx="385.21" cy="417.61" r="3.2" fill="#1d4ed8"/>
<circle cx="387.27" cy="417.61" r="3.2" fill="#1d4ed8"/>
<circle cx="389.34" cy="417.61" r="3.2" fill="#1d4ed8"/>
<circle cx="391.40" cy="417.21" r="3.2" fill="#1d4ed8"/>
<circle cx="393.47" cy="417.21" r="3.2" fill="#1d4ed8"/>
<circle cx="395.53" cy="413.57" r="3.2" fill="#1d4ed8"/>
<circle cx="397.59" cy="411.95" r="3.2" fill="#1d4ed8"/>
<circle cx="399.66" cy="412.76" r="3.2" fill="#1d4ed8"/>
<circle cx="401.72" cy="410.74" r="3.2" fill="#1d4ed8"/>
<circle cx="403.79" cy="410.74" r="3.2" fill="#1d4ed8"/>
<circle cx="405.85" cy="410.33" r="3.2" fill="#1d4ed8"/>
<circle cx="407.92" cy="410.33" r="3.2" fill="#1d4ed8"/>
<circle cx="409.98" cy="410.33" r="3.2" fill="#1d4ed8"/>
<circle cx="412.05" cy="409.93" r="3.2" fill="#1d4ed8"/>
<circle cx="414.11" cy="409.93" r="3.2" fill="#1d4ed8"/>
<circle cx="416.17" cy="409.93" r="3.2" fill="#1d4ed8"/>
<circle cx="418.24" cy="409.52" r="3.2" fill="#1d4ed8"/>
<circle cx="420.30" cy="409.52" r="3.2" fill="#1d4ed8"/>
<circle cx="422.37" cy="409.12" r="3.2" fill="#1d4ed8"/>
<circle cx="424.43" cy="409.52" r="3.2" fill="#1d4ed8"/>
<circle cx="426.50" cy="409.12" r="3.2" fill="#1d4ed8"/>
<circle cx="428.56" cy="407.50" r="3.2" fill="#1d4ed8"/>
<circle cx="430.62" cy="407.10" r="3.2" fill="#1d4ed8"/>
<circle cx="432.69" cy="403.05" r="3.2" fill="#1d4ed8"/>
<circle cx="434.75" cy="399.82" r="3.2" fill="#1d4ed8"/>
<circle cx="436.82" cy="400.22" r="3.2" fill="#1d4ed8"/>
<circle cx="438.88" cy="400.62" r="3.2" fill="#1d4ed8"/>
<circle cx="440.95" cy="400.62" r="3.2" fill="#1d4ed8"/>
<circle cx="443.01" cy="399.41" r="3.2" fill="#1d4ed8"/>
<circle cx="445.08" cy="392.94" r="3.2" fill="#1d4ed8"/>
<circle cx="447.14" cy="391.32" r="3.2" fill="#1d4ed8"/>
<circle cx="449.20" cy="389.30" r="3.2" fill="#1d4ed8"/>
<circle cx="451.27" cy="389.30" r="3.2" fill="#1d4ed8"/>
<circle cx="453.33" cy="388.49" r="3.2" fill="#1d4ed8"/>
<circle cx="455.40" cy="375.15" r="3.2" fill="#1d4ed8"/>
<circle cx="457.46" cy="374.74" r="3.2" fill="#1d4ed8"/>
<circle cx="459.53" cy="374.74" r="3.2" fill="#1d4ed8"/>
<circle cx="461.59" cy="374.74" r="3.2" fill="#1d4ed8"/>
<circle cx="463.66" cy="374.74" r="3.2" fill="#1d4ed8"/>
<circle cx="465.72" cy="374.34" r="3.2" fill="#1d4ed8"/>
<circle cx="467.78" cy="374.34" r="3.2" fill="#1d4ed8"/>
<circle cx="469.85" cy="374.34" r="3.2" fill="#1d4ed8"/>
<circle cx="471.91" cy="374.34" r="3.2" fill="#1d4ed8"/>
<circle cx="473.98" cy="374.34" r="3.2" fill="#1d4ed8"/>
<circle cx="476.04" cy="373.93" r="3.2" fill="#1d4ed8"/>
<circle cx="478.11" cy="373.12" r="3.2" fill="#1d4ed8"/>
<circle cx="480.17" cy="372.72" r="3.2" fill="#1d4ed8"/>
<circle cx="482.23" cy="373.53" r="3.2" fill="#1d4ed8"/>
<circle cx="484.30" cy="435.81" r="3.2" fill="#1d4ed8"/>
<circle cx="486.36" cy="372.32" r="3.2" fill="#1d4ed8"/>
<circle cx="488.43" cy="372.72" r="3.2" fill="#1d4ed8"/>
<circle cx="490.49" cy="371.91" r="3.2" fill="#1d4ed8"/>
<circle cx="492.56" cy="371.91" r="3.2" fill="#1d4ed8"/>
<circle cx="494.62" cy="372.32" r="3.2" fill="#1d4ed8"/>
<circle cx="496.69" cy="371.10" r="3.2" fill="#1d4ed8"/>
<circle cx="498.75" cy="369.89" r="3.2" fill="#1d4ed8"/>
<circle cx="500.81" cy="369.89" r="3.2" fill="#1d4ed8"/>
<circle cx="502.88" cy="369.89" r="3.2" fill="#1d4ed8"/>
<circle cx="504.94" cy="369.49" r="3.2" fill="#1d4ed8"/>
<circle cx="507.01" cy="369.89" r="3.2" fill="#1d4ed8"/>
<circle cx="509.07" cy="369.08" r="3.2" fill="#1d4ed8"/>
<circle cx="511.14" cy="368.68" r="3.2" fill="#1d4ed8"/>
<circle cx="513.20" cy="368.27" r="3.2" fill="#1d4ed8"/>
<circle cx="515.27" cy="367.87" r="3.2" fill="#1d4ed8"/>
<circle cx="517.33" cy="367.06" r="3.2" fill="#1d4ed8"/>
<circle cx="519.39" cy="367.46" r="3.2" fill="#1d4ed8"/>
<circle cx="521.46" cy="367.06" r="3.2" fill="#1d4ed8"/>
<circle cx="523.52" cy="366.25" r="3.2" fill="#1d4ed8"/>
<circle cx="525.59" cy="368.27" r="3.2" fill="#1d4ed8"/>
<circle cx="527.65" cy="368.68" r="3.2" fill="#1d4ed8"/>
<circle cx="529.72" cy="368.68" r="3.2" fill="#1d4ed8"/>
<circle cx="531.78" cy="368.27" r="3.2" fill="#1d4ed8"/>
<circle cx="533.84" cy="369.08" r="3.2" fill="#1d4ed8"/>
<circle cx="535.91" cy="367.87" r="3.2" fill="#1d4ed8"/>
<circle cx="537.97" cy="367.46" r="3.2" fill="#1d4ed8"/>
<circle cx="540.04" cy="367.06" r="3.2" fill="#1d4ed8"/>
<circle cx="542.10" cy="360.18" r="3.2" fill="#1d4ed8"/>
<circle cx="544.17" cy="359.78" r="3.2" fill="#1d4ed8"/>
<circle cx="546.23" cy="359.38" r="3.2" fill="#1d4ed8"/>
<circle cx="548.30" cy="356.95" r="3.2" fill="#1d4ed8"/>
<circle cx="550.36" cy="357.35" r="3.2" fill="#1d4ed8"/>
<circle cx="552.42" cy="357.76" r="3.2" fill="#1d4ed8"/>
<circle cx="554.49" cy="355.33" r="3.2" fill="#1d4ed8"/>
<circle cx="556.55" cy="355.74" r="3.2" fill="#1d4ed8"/>
<circle cx="558.62" cy="357.35" r="3.2" fill="#1d4ed8"/>
<circle cx="560.68" cy="355.33" r="3.2" fill="#1d4ed8"/>
<circle cx="562.75" cy="356.14" r="3.2" fill="#1d4ed8"/>
<circle cx="564.81" cy="355.74" r="3.2" fill="#1d4ed8"/>
<circle cx="566.88" cy="356.14" r="3.2" fill="#1d4ed8"/>
<circle cx="568.94" cy="354.12" r="3.2" fill="#1d4ed8"/>
<circle cx="571.00" cy="354.93" r="3.2" fill="#1d4ed8"/>
<circle cx="573.07" cy="356.14" r="3.2" fill="#1d4ed8"/>
<circle cx="575.13" cy="354.52" r="3.2" fill="#1d4ed8"/>
<circle cx="577.20" cy="353.71" r="3.2" fill="#1d4ed8"/>
<circle cx="579.26" cy="354.12" r="3.2" fill="#1d4ed8"/>
<circle cx="581.33" cy="354.93" r="3.2" fill="#1d4ed8"/>
<circle cx="583.39" cy="352.90" r="3.2" fill="#1d4ed8"/>
<circle cx="585.45" cy="353.71" r="3.2" fill="#1d4ed8"/>
<circle cx="587.52" cy="353.31" r="3.2" fill="#1d4ed8"/>
<circle cx="589.58" cy="353.31" r="3.2" fill="#1d4ed8"/>
<circle cx="591.65" cy="354.52" r="3.2" fill="#1d4ed8"/>
<circle cx="593.71" cy="352.90" r="3.2" fill="#1d4ed8"/>
<circle cx="595.78" cy="352.50" r="3.2" fill="#1d4ed8"/>
<circle cx="597.84" cy="352.50" r="3.2" fill="#1d4ed8"/>
<circle cx="599.91" cy="353.31" r="3.2" fill="#1d4ed8"/>
<circle cx="601.97" cy="352.50" r="3.2" fill="#1d4ed8"/>
<circle cx="604.03" cy="353.71" r="3.2" fill="#1d4ed8"/>
<circle cx="606.10" cy="354.12" r="3.2" fill="#1d4ed8"/>
<circle cx="608.16" cy="352.50" r="3.2" fill="#1d4ed8"/>
<circle cx="610.23" cy="352.90" r="3.2" fill="#1d4ed8"/>
<circle cx="612.29" cy="352.50" r="3.2" fill="#1d4ed8"/>
<circle cx="614.36" cy="352.10" r="3.2" fill="#1d4ed8"/>
<circle cx="616.42" cy="351.69" r="3.2" fill="#1d4ed8"/>
<circle cx="618.48" cy="352.10" r="3.2" fill="#1d4ed8"/>
<circle cx="620.55" cy="354.12" r="3.2" fill="#1d4ed8"/>
<circle cx="622.61" cy="352.50" r="3.2" fill="#1d4ed8"/>
<circle cx="624.68" cy="352.10" r="3.2" fill="#1d4ed8"/>
<circle cx="626.74" cy="352.10" r="3.2" fill="#1d4ed8"/>
<circle cx="628.81" cy="349.67" r="3.2" fill="#1d4ed8"/>
<circle cx="630.87" cy="349.67" r="3.2" fill="#1d4ed8"/>
<circle cx="632.94" cy="350.88" r="3.2" fill="#1d4ed8"/>
<circle cx="635.00" cy="351.29" r="3.2" fill="#1d4ed8"/>
<circle cx="637.06" cy="350.48" r="3.2" fill="#1d4ed8"/>
<circle cx="639.13" cy="352.10" r="3.2" fill="#1d4ed8"/>
<circle cx="641.19" cy="350.48" r="3.2" fill="#1d4ed8"/>
<circle cx="643.26" cy="350.48" r="3.2" fill="#1d4ed8"/>
<circle cx="645.32" cy="350.48" r="3.2" fill="#1d4ed8"/>
<circle cx="647.39" cy="350.07" r="3.2" fill="#1d4ed8"/>
<circle cx="649.45" cy="348.46" r="3.2" fill="#1d4ed8"/>
<circle cx="651.52" cy="351.29" r="3.2" fill="#1d4ed8"/>
<circle cx="653.58" cy="349.67" r="3.2" fill="#1d4ed8"/>
<circle cx="655.64" cy="351.29" r="3.2" fill="#1d4ed8"/>
<circle cx="657.71" cy="349.67" r="3.2" fill="#1d4ed8"/>
<circle cx="659.77" cy="348.86" r="3.2" fill="#1d4ed8"/>
<circle cx="661.84" cy="348.46" r="3.2" fill="#1d4ed8"/>
<circle cx="663.90" cy="348.46" r="3.2" fill="#1d4ed8"/>
<circle cx="665.97" cy="347.24" r="3.2" fill="#1d4ed8"/>
<circle cx="668.03" cy="348.86" r="3.2" fill="#1d4ed8"/>
<circle cx="670.09" cy="346.84" r="3.2" fill="#1d4ed8"/>
<circle cx="672.16" cy="348.46" r="3.2" fill="#1d4ed8"/>
<circle cx="674.22" cy="348.86" r="3.2" fill="#1d4ed8"/>
<circle cx="676.29" cy="346.84" r="3.2" fill="#1d4ed8"/>
<circle cx="678.35" cy="349.26" r="3.2" fill="#1d4ed8"/>
<circle cx="680.42" cy="348.05" r="3.2" fill="#1d4ed8"/>
<circle cx="682.48" cy="349.26" r="3.2" fill="#1d4ed8"/>
<circle cx="684.55" cy="349.26" r="3.2" fill="#1d4ed8"/>
<circle cx="686.61" cy="350.48" r="3.2" fill="#1d4ed8"/>
<circle cx="688.67" cy="352.90" r="3.2" fill="#1d4ed8"/>
<circle cx="690.74" cy="349.67" r="3.2" fill="#1d4ed8"/>
<circle cx="692.80" cy="348.46" r="3.2" fill="#1d4ed8"/>
<circle cx="694.87" cy="345.62" r="3.2" fill="#1d4ed8"/>
<circle cx="696.93" cy="344.82" r="3.2" fill="#1d4ed8"/>
<circle cx="699.00" cy="344.41" r="3.2" fill="#1d4ed8"/>
<circle cx="701.06" cy="342.39" r="3.2" fill="#1d4ed8"/>
<circle cx="703.12" cy="341.18" r="3.2" fill="#1d4ed8"/>
<circle cx="705.19" cy="341.58" r="3.2" fill="#1d4ed8"/>
<circle cx="707.25" cy="339.15" r="3.2" fill="#1d4ed8"/>
<circle cx="709.32" cy="338.35" r="3.2" fill="#1d4ed8"/>
<circle cx="711.38" cy="337.54" r="3.2" fill="#1d4ed8"/>
<circle cx="713.45" cy="336.73" r="3.2" fill="#1d4ed8"/>
<circle cx="715.51" cy="335.92" r="3.2" fill="#1d4ed8"/>
<circle cx="717.58" cy="337.54" r="3.2" fill="#1d4ed8"/>
<circle cx="719.64" cy="338.35" r="3.2" fill="#1d4ed8"/>
<circle cx="721.70" cy="337.54" r="3.2" fill="#1d4ed8"/>
<circle cx="723.77" cy="337.54" r="3.2" fill="#1d4ed8"/>
<circle cx="725.83" cy="337.54" r="3.2" fill="#1d4ed8"/>
<circle cx="727.90" cy="333.09" r="3.2" fill="#1d4ed8"/>
<circle cx="729.96" cy="333.90" r="3.2" fill="#1d4ed8"/>
<circle cx="732.03" cy="335.92" r="3.2" fill="#1d4ed8"/>
<circle cx="734.09" cy="336.73" r="3.2" fill="#1d4ed8"/>
<circle cx="736.16" cy="335.51" r="3.2" fill="#1d4ed8"/>
<circle cx="738.22" cy="332.28" r="3.2" fill="#1d4ed8"/>
<circle cx="740.28" cy="331.47" r="3.2" fill="#1d4ed8"/>
<circle cx="742.35" cy="331.07" r="3.2" fill="#1d4ed8"/>
<circle cx="744.41" cy="331.47" r="3.2" fill="#1d4ed8"/>
<circle cx="746.48" cy="331.07" r="3.2" fill="#1d4ed8"/>
<circle cx="748.54" cy="331.07" r="3.2" fill="#1d4ed8"/>
<circle cx="750.61" cy="331.07" r="3.2" fill="#1d4ed8"/>
<circle cx="752.67" cy="331.07" r="3.2" fill="#1d4ed8"/>
<circle cx="754.73" cy="331.07" r="3.2" fill="#1d4ed8"/>
<circle cx="756.80" cy="331.07" r="3.2" fill="#1d4ed8"/>
<circle cx="758.86" cy="331.07" r="3.2" fill="#1d4ed8"/>
<circle cx="760.93" cy="331.07" r="3.2" fill="#1d4ed8"/>
<circle cx="762.99" cy="331.07" r="3.2" fill="#1d4ed8"/>
<circle cx="765.06" cy="331.07" r="3.2" fill="#1d4ed8"/>
<circle cx="767.12" cy="331.47" r="3.2" fill="#1d4ed8"/>
<circle cx="769.19" cy="331.88" r="3.2" fill="#1d4ed8"/>
<circle cx="771.25" cy="331.07" r="3.2" fill="#1d4ed8"/>
<circle cx="773.31" cy="331.47" r="3.2" fill="#1d4ed8"/>
<circle cx="775.38" cy="331.07" r="3.2" fill="#1d4ed8"/>
<circle cx="777.44" cy="331.47" r="3.2" fill="#1d4ed8"/>
<circle cx="779.51" cy="331.07" r="3.2" fill="#1d4ed8"/>
<circle cx="781.57" cy="324.19" r="3.2" fill="#1d4ed8"/>
<circle cx="783.64" cy="324.19" r="3.2" fill="#1d4ed8"/>
<circle cx="785.70" cy="318.93" r="3.2" fill="#1d4ed8"/>
<circle cx="787.77" cy="316.51" r="3.2" fill="#1d4ed8"/>
<circle cx="789.83" cy="310.44" r="3.2" fill="#1d4ed8"/>
<circle cx="791.89" cy="308.01" r="3.2" fill="#1d4ed8"/>
<circle cx="793.96" cy="600.00" r="3.2" fill="#1d4ed8"/>
<circle cx="796.02" cy="301.54" r="3.2" fill="#1d4ed8"/>
<circle cx="798.09" cy="290.22" r="3.2" fill="#1d4ed8"/>
<circle cx="800.15" cy="287.79" r="3.2" fill="#1d4ed8"/>
<circle cx="802.22" cy="286.18" r="3.2" fill="#1d4ed8"/>
<circle cx="804.28" cy="285.77" r="3.2" fill="#1d4ed8"/>
<circle cx="806.34" cy="285.77" r="3.2" fill="#1d4ed8"/>
<circle cx="808.41" cy="285.77" r="3.2" fill="#1d4ed8"/>
<circle cx="810.47" cy="286.18" r="3.2" fill="#1d4ed8"/>
<circle cx="812.54" cy="285.77" r="3.2" fill="#1d4ed8"/>
<circle cx="814.60" cy="285.77" r="3.2" fill="#1d4ed8"/>
<circle cx="816.67" cy="285.77" r="3.2" fill="#1d4ed8"/>
<circle cx="818.73" cy="283.35" r="3.2" fill="#1d4ed8"/>
<circle cx="820.80" cy="282.94" r="3.2" fill="#1d4ed8"/>
<circle cx="822.86" cy="282.94" r="3.2" fill="#1d4ed8"/>
<circle cx="824.92" cy="283.35" r="3.2" fill="#1d4ed8"/>
<circle cx="826.99" cy="282.94" r="3.2" fill="#1d4ed8"/>
<circle cx="829.05" cy="282.94" r="3.2" fill="#1d4ed8"/>
<circle cx="831.12" cy="283.75" r="3.2" fill="#1d4ed8"/>
<circle cx="833.18" cy="282.13" r="3.2" fill="#1d4ed8"/>
<circle cx="835.25" cy="282.13" r="3.2" fill="#1d4ed8"/>
<circle cx="837.31" cy="282.54" r="3.2" fill="#1d4ed8"/>
<circle cx="839.38" cy="282.13" r="3.2" fill="#1d4ed8"/>
<circle cx="841.44" cy="282.54" r="3.2" fill="#1d4ed8"/>
<circle cx="843.50" cy="282.94" r="3.2" fill="#1d4ed8"/>
<circle cx="845.57" cy="281.73" r="3.2" fill="#1d4ed8"/>
<circle cx="847.63" cy="282.54" r="3.2" fill="#1d4ed8"/>
<circle cx="849.70" cy="281.73" r="3.2" fill="#1d4ed8"/>
<circle cx="851.76" cy="282.54" r="3.2" fill="#1d4ed8"/>
<circle cx="853.83" cy="282.13" r="3.2" fill="#1d4ed8"/>
<circle cx="855.89" cy="282.13" r="3.2" fill="#1d4ed8"/>
<circle cx="857.95" cy="281.73" r="3.2" fill="#1d4ed8"/>
<circle cx="860.02" cy="281.73" r="3.2" fill="#1d4ed8"/>
<circle cx="862.08" cy="281.32" r="3.2" fill="#1d4ed8"/>
<circle cx="864.15" cy="281.73" r="3.2" fill="#1d4ed8"/>
<circle cx="866.21" cy="282.13" r="3.2" fill="#1d4ed8"/>
<circle cx="868.28" cy="281.32" r="3.2" fill="#1d4ed8"/>
<circle cx="870.34" cy="281.32" r="3.2" fill="#1d4ed8"/>
<circle cx="872.41" cy="282.54" r="3.2" fill="#1d4ed8"/>
<circle cx="874.47" cy="282.13" r="3.2" fill="#1d4ed8"/>
<circle cx="876.53" cy="281.32" r="3.2" fill="#1d4ed8"/>
<circle cx="878.60" cy="281.32" r="3.2" fill="#1d4ed8"/>
<circle cx="880.66" cy="281.32" r="3.2" fill="#1d4ed8"/>
<circle cx="882.73" cy="282.54" r="3.2" fill="#1d4ed8"/>
<circle cx="884.79" cy="282.13" r="3.2" fill="#1d4ed8"/>
<circle cx="886.86" cy="281.32" r="3.2" fill="#1d4ed8"/>
<circle cx="888.92" cy="282.13" r="3.2" fill="#1d4ed8"/>
<circle cx="890.98" cy="281.73" r="3.2" fill="#1d4ed8"/>
<circle cx="893.05" cy="282.13" r="3.2" fill="#1d4ed8"/>
<circle cx="895.11" cy="280.11" r="3.2" fill="#1d4ed8"/>
<circle cx="897.18" cy="280.11" r="3.2" fill="#1d4ed8"/>
<circle cx="899.24" cy="280.51" r="3.2" fill="#1d4ed8"/>
<circle cx="901.31" cy="279.71" r="3.2" fill="#1d4ed8"/>
<circle cx="903.37" cy="280.11" r="3.2" fill="#1d4ed8"/>
<circle cx="905.44" cy="280.51" r="3.2" fill="#1d4ed8"/>
<circle cx="907.50" cy="279.71" r="3.2" fill="#1d4ed8"/>
<circle cx="909.56" cy="280.11" r="3.2" fill="#1d4ed8"/>
<circle cx="911.63" cy="280.11" r="3.2" fill="#1d4ed8"/>
<circle cx="913.69" cy="279.30" r="3.2" fill="#1d4ed8"/>
<circle cx="915.76" cy="278.90" r="3.2" fill="#1d4ed8"/>
<circle cx="917.82" cy="278.90" r="3.2" fill="#1d4ed8"/>
<circle cx="919.89" cy="280.51" r="3.2" fill="#1d4ed8"/>
<circle cx="921.95" cy="279.30" r="3.2" fill="#1d4ed8"/>
<circle cx="924.02" cy="278.09" r="3.2" fill="#1d4ed8"/>
<circle cx="926.08" cy="278.49" r="3.2" fill="#1d4ed8"/>
<circle cx="928.14" cy="278.49" r="3.2" fill="#1d4ed8"/>
<circle cx="930.21" cy="277.28" r="3.2" fill="#1d4ed8"/>
<circle cx="932.27" cy="277.68" r="3.2" fill="#1d4ed8"/>
<circle cx="934.34" cy="277.68" r="3.2" fill="#1d4ed8"/>
<circle cx="936.40" cy="278.09" r="3.2" fill="#1d4ed8"/>
<circle cx="938.47" cy="277.28" r="3.2" fill="#1d4ed8"/>
<circle cx="940.53" cy="600.00" r="3.2" fill="#1d4ed8"/>
<circle cx="942.59" cy="278.90" r="3.2" fill="#1d4ed8"/>
<circle cx="944.66" cy="279.30" r="3.2" fill="#1d4ed8"/>
<circle cx="946.72" cy="278.90" r="3.2" fill="#1d4ed8"/>
<circle cx="948.79" cy="278.49" r="3.2" fill="#1d4ed8"/>
<circle cx="950.85" cy="278.49" r="3.2" fill="#1d4ed8"/>
<circle cx="952.92" cy="278.49" r="3.2" fill="#1d4ed8"/>
<circle cx="954.98" cy="278.49" r="3.2" fill="#1d4ed8"/>
<circle cx="957.05" cy="278.49" r="3.2" fill="#1d4ed8"/>
<circle cx="959.11" cy="278.49" r="3.2" fill="#1d4ed8"/>
<circle cx="961.17" cy="278.49" r="3.2" fill="#1d4ed8"/>
<circle cx="963.24" cy="278.49" r="3.2" fill="#1d4ed8"/>
<circle cx="965.30" cy="278.49" r="3.2" fill="#1d4ed8"/>
<circle cx="967.37" cy="278.49" r="3.2" fill="#1d4ed8"/>
<circle cx="969.43" cy="278.49" r="3.2" fill="#1d4ed8"/>
<circle cx="971.50" cy="278.49" r="3.2" fill="#1d4ed8"/>
<circle cx="973.56" cy="600.00" r="3.2" fill="#1d4ed8"/>
<circle cx="975.62" cy="600.00" r="3.2" fill="#1d4ed8"/>
<circle cx="977.69" cy="254.63" r="3.2" fill="#1d4ed8"/>
<circle cx="979.75" cy="600.00" r="3.2" fill="#1d4ed8"/>
<circle cx="981.82" cy="245.74" r="3.2" fill="#1d4ed8"/>
<circle cx="983.88" cy="245.74" r="3.2" fill="#1d4ed8"/>
<circle cx="985.95" cy="246.14" r="3.2" fill="#1d4ed8"/>
<circle cx="988.01" cy="245.74" r="3.2" fill="#1d4ed8"/>
<circle cx="990.08" cy="245.74" r="3.2" fill="#1d4ed8"/>
<circle cx="992.14" cy="245.74" r="3.2" fill="#1d4ed8"/>
<circle cx="994.20" cy="245.74" r="3.2" fill="#1d4ed8"/>
<circle cx="996.27" cy="245.74" r="3.2" fill="#1d4ed8"/>
<circle cx="998.33" cy="240.07" r="3.2" fill="#1d4ed8"/>
<circle cx="1000.40" cy="238.05" r="3.2" fill="#1d4ed8"/>
<circle cx="1002.46" cy="238.05" r="3.2" fill="#1d4ed8"/>
<circle cx="1004.53" cy="227.13" r="3.2" fill="#1d4ed8"/>
<circle cx="1006.59" cy="227.13" r="3.2" fill="#1d4ed8"/>
<circle cx="1008.66" cy="226.32" r="3.2" fill="#1d4ed8"/>
<circle cx="1010.72" cy="227.54" r="3.2" fill="#1d4ed8"/>
<circle cx="1012.78" cy="226.73" r="3.2" fill="#1d4ed8"/>
<circle cx="1014.85" cy="226.32" r="3.2" fill="#1d4ed8"/>
<circle cx="1016.91" cy="227.13" r="3.2" fill="#1d4ed8"/>
<circle cx="1018.98" cy="227.13" r="3.2" fill="#1d4ed8"/>
<circle cx="1021.04" cy="226.73" r="3.2" fill="#1d4ed8"/>
<circle cx="1023.11" cy="226.32" r="3.2" fill="#1d4ed8"/>
<circle cx="1025.17" cy="226.73" r="3.2" fill="#1d4ed8"/>
<circle cx="1027.23" cy="226.73" r="3.2" fill="#1d4ed8"/>
<circle cx="1029.30" cy="226.73" r="3.2" fill="#1d4ed8"/>
<circle cx="1031.36" cy="225.11" r="3.2" fill="#1d4ed8"/>
<circle cx="1033.43" cy="224.71" r="3.2" fill="#1d4ed8"/>
<circle cx="1035.49" cy="225.11" r="3.2" fill="#1d4ed8"/>
<circle cx="1037.56" cy="224.30" r="3.2" fill="#1d4ed8"/>
<circle cx="1039.62" cy="226.32" r="3.2" fill="#1d4ed8"/>
<circle cx="1041.69" cy="224.30" r="3.2" fill="#1d4ed8"/>
<circle cx="1043.75" cy="225.51" r="3.2" fill="#1d4ed8"/>
<circle cx="1045.81" cy="225.51" r="3.2" fill="#1d4ed8"/>
<circle cx="1047.88" cy="225.51" r="3.2" fill="#1d4ed8"/>
<circle cx="1049.94" cy="225.92" r="3.2" fill="#1d4ed8"/>
<circle cx="1052.01" cy="223.09" r="3.2" fill="#1d4ed8"/>
<circle cx="1054.07" cy="223.49" r="3.2" fill="#1d4ed8"/>
<circle cx="1056.14" cy="223.09" r="3.2" fill="#1d4ed8"/>
<circle cx="1058.20" cy="223.09" r="3.2" fill="#1d4ed8"/>
<circle cx="1060.27" cy="223.90" r="3.2" fill="#1d4ed8"/>
<circle cx="1062.33" cy="223.49" r="3.2" fill="#1d4ed8"/>
<circle cx="1064.39" cy="223.49" r="3.2" fill="#1d4ed8"/>
<circle cx="1066.46" cy="223.09" r="3.2" fill="#1d4ed8"/>
<circle cx="1068.52" cy="223.09" r="3.2" fill="#1d4ed8"/>
<circle cx="1070.59" cy="223.49" r="3.2" fill="#1d4ed8"/>
<circle cx="1072.65" cy="223.09" r="3.2" fill="#1d4ed8"/>
<circle cx="1074.72" cy="223.09" r="3.2" fill="#1d4ed8"/>
<circle cx="1076.78" cy="223.49" r="3.2" fill="#1d4ed8"/>
<circle cx="1078.84" cy="223.49" r="3.2" fill="#1d4ed8"/>
<circle cx="1080.91" cy="223.09" r="3.2" fill="#1d4ed8"/>
<circle cx="1082.97" cy="223.09" r="3.2" fill="#1d4ed8"/>
<circle cx="1085.04" cy="223.49" r="3.2" fill="#1d4ed8"/>
<circle cx="1087.10" cy="223.09" r="3.2" fill="#1d4ed8"/>
<circle cx="1089.17" cy="223.09" r="3.2" fill="#1d4ed8"/>
<circle cx="1091.23" cy="223.09" r="3.2" fill="#1d4ed8"/>
<circle cx="1093.30" cy="223.49" r="3.2" fill="#1d4ed8"/>
<circle cx="1095.36" cy="223.49" r="3.2" fill="#1d4ed8"/>
<circle cx="1097.42" cy="223.49" r="3.2" fill="#1d4ed8"/>
<circle cx="1099.49" cy="223.09" r="3.2" fill="#1d4ed8"/>
<circle cx="1101.55" cy="223.49" r="3.2" fill="#1d4ed8"/>
<circle cx="1103.62" cy="223.09" r="3.2" fill="#1d4ed8"/>
<circle cx="1105.68" cy="223.09" r="3.2" fill="#1d4ed8"/>
<circle cx="1107.75" cy="223.49" r="3.2" fill="#1d4ed8"/>
<circle cx="1109.81" cy="223.09" r="3.2" fill="#1d4ed8"/>
<circle cx="1111.88" cy="223.09" r="3.2" fill="#1d4ed8"/>
<circle cx="1113.94" cy="223.49" r="3.2" fill="#1d4ed8"/>
<circle cx="1116.00" cy="222.68" r="3.2" fill="#1d4ed8"/>
<circle cx="1118.07" cy="221.88" r="3.2" fill="#1d4ed8"/>
<circle cx="1120.13" cy="223.49" r="3.2" fill="#1d4ed8"/>
<circle cx="1122.20" cy="223.09" r="3.2" fill="#1d4ed8"/>
<circle cx="1124.26" cy="223.49" r="3.2" fill="#1d4ed8"/>
<circle cx="1126.33" cy="224.30" r="3.2" fill="#1d4ed8"/>
<circle cx="1128.39" cy="201.65" r="3.2" fill="#1d4ed8"/>
<circle cx="1130.45" cy="201.65" r="3.2" fill="#1d4ed8"/>
<circle cx="1132.52" cy="186.69" r="3.2" fill="#1d4ed8"/>
<circle cx="1134.58" cy="176.18" r="3.2" fill="#1d4ed8"/>
<circle cx="1136.65" cy="174.15" r="3.2" fill="#1d4ed8"/>
<circle cx="1138.71" cy="172.94" r="3.2" fill="#1d4ed8"/>
<circle cx="1140.78" cy="172.94" r="3.2" fill="#1d4ed8"/>
<circle cx="1142.84" cy="162.02" r="3.2" fill="#1d4ed8"/>
<circle cx="1144.91" cy="161.21" r="3.2" fill="#1d4ed8"/>
<circle cx="1146.97" cy="148.27" r="3.2" fill="#1d4ed8"/>
<circle cx="1149.03" cy="155.96" r="3.2" fill="#1d4ed8"/>
<circle cx="1151.10" cy="139.78" r="3.2" fill="#1d4ed8"/>
<circle cx="1153.16" cy="135.33" r="3.2" fill="#1d4ed8"/>
<circle cx="1155.23" cy="147.06" r="3.2" fill="#1d4ed8"/>
<circle cx="1157.29" cy="131.29" r="3.2" fill="#1d4ed8"/>
<circle cx="1159.36" cy="119.56" r="3.2" fill="#1d4ed8"/>
<circle cx="1161.42" cy="114.71" r="3.2" fill="#1d4ed8"/>
<circle cx="1163.48" cy="113.90" r="3.2" fill="#1d4ed8"/>
<circle cx="1165.55" cy="114.30" r="3.2" fill="#1d4ed8"/>
<circle cx="1167.61" cy="112.68" r="3.2" fill="#1d4ed8"/>
<circle cx="1169.68" cy="111.07" r="3.2" fill="#1d4ed8"/>
<circle cx="1171.74" cy="110.26" r="3.2" fill="#1d4ed8"/>
<circle cx="1173.81" cy="107.02" r="3.2" fill="#1d4ed8"/>
<circle cx="1175.87" cy="105.40" r="3.2" fill="#1d4ed8"/>
<circle cx="1177.94" cy="89.63" r="3.2" fill="#1d4ed8"/>
<circle cx="1180.00" cy="85.99" r="3.2" fill="#1d4ed8"/>
<text x="635" y="695" text-anchor="middle" font-size="14" fill="#111" font-family="sans-serif">Date</text>
<text x="24" y="325" text-anchor="middle" font-size="14" fill="#111" transform="rotate(-90 24,325)" font-family="sans-serif">Passed files</text>
</svg>
