<?xml version="1.0" encoding="UTF-8"?>
<svg xmlns="http://www.w3.org/2000/svg" width="1280" height="720" viewBox="0 0 1280 720">
<rect width="100%" height="100%" fill="#ffffff"/>
<text x="640" y="30" text-anchor="middle" font-size="22" font-family="sans-serif">Roast passed files history</text>
<line x1="90" y1="600" x2="1180" y2="600" stroke="#333" stroke-width="1.5"/>
<line x1="90" y1="50" x2="90" y2="600" stroke="#333" stroke-width="1.5"/>
<line x1="90" y1="600.00" x2="1180" y2="600.00" stroke="#e5e7eb" stroke-width="1"/>
<text x="78" y="605.00" text-anchor="end" font-size="12" fill="#111" font-family="sans-serif">0</text>
<line x1="90" y1="397.79" x2="1180" y2="397.79" stroke="#e5e7eb" stroke-width="1"/>
<text x="78" y="402.79" text-anchor="end" font-size="12" fill="#111" font-family="sans-serif">500</text>
<line x1="90" y1="195.59" x2="1180" y2="195.59" stroke="#e5e7eb" stroke-width="1"/>
<text x="78" y="200.59" text-anchor="end" font-size="12" fill="#111" font-family="sans-serif">1000</text>
<line x1="90.00" y1="600" x2="90.00" y2="606" stroke="#333" stroke-width="1"/>
<text x="90.00" y="624" text-anchor="end" font-size="11" fill="#111" transform="rotate(-40 90.00,624)" font-family="sans-serif">2026-02-12</text>
<line x1="223.54" y1="600" x2="223.54" y2="606" stroke="#333" stroke-width="1"/>
<text x="223.54" y="624" text-anchor="end" font-size="11" fill="#111" transform="rotate(-40 223.54,624)" font-family="sans-serif">2026-02-17</text>
<line x1="357.09" y1="600" x2="357.09" y2="606" stroke="#333" stroke-width="1"/>
<text x="357.09" y="624" text-anchor="end" font-size="11" fill="#111" transform="rotate(-40 357.09,624)" font-family="sans-serif">2026-02-20</text>
<line x1="490.63" y1="600" x2="490.63" y2="606" stroke="#333" stroke-width="1"/>
<text x="490.63" y="624" text-anchor="end" font-size="11" fill="#111" transform="rotate(-40 490.63,624)" font-family="sans-serif">2026-02-24</text>
<line x1="624.17" y1="600" x2="624.17" y2="606" stroke="#333" stroke-width="1"/>
<text x="624.17" y="624" text-anchor="end" font-size="11" fill="#111" transform="rotate(-40 624.17,624)" font-family="sans-serif">2026-02-26</text>
<line x1="757.72" y1="600" x2="757.72" y2="606" stroke="#333" stroke-width="1"/>
<text x="757.72" y="624" text-anchor="end" font-size="11" fill="#111" transform="rotate(-40 757.72,624)" font-family="sans-serif">2026-02-28</text>
<line x1="891.26" y1="600" x2="891.26" y2="606" stroke="#333" stroke-width="1"/>
<text x="891.26" y="624" text-anchor="end" font-size="11" fill="#111" transform="rotate(-40 891.26,624)" font-family="sans-serif">2026-03-06</text>
<line x1="1024.80" y1="600" x2="1024.80" y2="606" stroke="#333" stroke-width="1"/>
<text x="1024.80" y="624" text-anchor="end" font-size="11" fill="#111" transform="rotate(-40 1024.80,624)" font-family="sans-serif">2026-03-06</text>
<line x1="1158.34" y1="600" x2="1158.34" y2="606" stroke="#333" stroke-width="1"/>
<text x="1158.34" y="624" text-anchor="end" font-size="11" fill="#111" transform="rotate(-40 1158.34,624)" font-family="sans-serif">2026-03-08</text>
<line x1="1180.00" y1="600" x2="1180.00" y2="606" stroke="#333" stroke-width="1"/>
<text x="1180.00" y="624" text-anchor="end" font-size="11" fill="#111" transform="rotate(-40 1180.00,624)" font-family="sans-serif">2026-03-08</text>
<line x1="90" y1="75.88" x2="1180" y2="75.88" stroke="#dc2626" stroke-width="1.5" stroke-dasharray="8,4"/>
<text x="1184" y="79.88" font-size="12" fill="#dc2626" font-family="sans-serif">Goal: 1296</text>
<polyline fill="none" stroke="#2563eb" stroke-width="3" points="90.00,540.55 93.61,538.53 97.22,536.91 100.83,534.49 104.44,534.49 108.05,533.27 111.66,532.46 115.26,532.87 118.87,532.06 122.48,532.46 126.09,532.06 129.70,568.46 133.31,568.46 136.92,566.43 140.53,545.00 144.14,545.00 147.75,544.19 151.36,543.79 154.97,543.79 158.58,543.38 162.19,541.76 165.79,541.36 169.40,540.96 173.01,540.96 176.62,539.34 180.23,539.34 183.84,556.73 187.45,556.73 191.06,555.51 194.67,551.07 198.28,538.93 201.89,538.93 205.50,538.93 209.11,538.12 212.72,536.91 216.32,536.91 219.93,536.51 223.54,536.51 227.15,556.73 230.76,556.73 234.37,556.73 237.98,556.73 241.59,535.29 245.20,535.29 248.81,535.29 252.42,535.29 256.03,534.49 259.64,534.08 263.25,533.68 266.85,532.87 270.46,532.06 274.07,532.06 277.68,531.25 281.29,530.85 284.90,530.44 288.51,530.04 292.12,530.04 295.73,529.23 299.34,529.23 302.95,529.23 306.56,528.42 310.17,528.42 313.77,527.61 317.38,527.21 320.99,526.80 324.60,526.40 328.21,525.18 331.82,523.57 335.43,523.57 339.04,523.16 342.65,522.76 346.26,522.35 349.87,521.54 353.48,519.52 357.09,517.50 360.70,517.50 364.30,517.50 367.91,517.50 371.52,517.50 375.13,517.50 378.74,517.10 382.35,516.69 385.96,515.48 389.57,515.07 393.18,514.67 396.79,513.86 400.40,514.26 404.01,512.24 407.62,511.84 411.23,511.84 414.83,511.03 418.44,509.82 422.05,507.79 425.66,506.99 429.27,506.58 432.88,509.41 436.49,509.01 440.10,504.96 443.71,504.56 447.32,504.15 450.93,504.56 454.54,503.75 458.15,503.75 461.75,503.35 465.36,499.30 468.97,496.47 472.58,490.00 476.19,484.34 479.80,481.10 483.41,480.29 487.02,480.70 490.63,460.88 494.24,459.26 497.85,458.05 501.46,456.03 505.07,456.03 508.68,454.41 512.28,450.77 515.89,444.30 519.50,443.90 523.11,600.00 526.72,441.88 530.33,440.66 533.94,439.45 537.55,439.04 541.16,438.64 544.77,437.83 548.38,436.62 551.99,436.62 555.60,434.60 559.21,432.17 562.81,429.34 566.42,428.93 570.03,428.53 573.64,427.72 577.25,426.91 580.86,426.10 584.47,426.10 588.08,426.10 591.69,419.63 595.30,419.23 598.91,418.42 602.52,418.01 606.13,417.61 609.74,417.61 613.34,417.61 616.95,417.21 620.56,417.21 624.17,413.57 627.78,411.95 631.39,412.76 635.00,410.74 638.61,410.74 642.22,410.33 645.83,410.33 649.44,410.33 653.05,409.93 656.66,409.93 660.26,409.93 663.87,409.52 667.48,409.52 671.09,409.12 674.70,409.52 678.31,409.12 681.92,407.50 685.53,407.10 689.14,403.05 692.75,399.82 696.36,400.22 699.97,400.62 703.58,400.62 707.19,399.41 710.79,392.94 714.40,391.32 718.01,389.30 721.62,389.30 725.23,388.49 728.84,375.15 732.45,374.74 736.06,374.74 739.67,374.74 743.28,374.74 746.89,374.34 750.50,374.34 754.11,374.34 757.72,374.34 761.32,374.34 764.93,373.93 768.54,373.12 772.15,372.72 775.76,373.53 779.37,435.81 782.98,372.32 786.59,372.72 790.20,371.91 793.81,371.91 797.42,372.32 801.03,371.10 804.64,369.89 808.25,369.89 811.85,369.89 815.46,369.49 819.07,369.89 822.68,369.08 826.29,368.68 829.90,368.27 833.51,367.87 837.12,367.06 840.73,367.46 844.34,367.06 847.95,366.25 851.56,368.27 855.17,368.68 858.77,368.68 862.38,368.27 865.99,369.08 869.60,367.87 873.21,367.46 876.82,367.06 880.43,360.18 884.04,359.78 887.65,359.38 891.26,356.95 894.87,357.35 898.48,357.76 902.09,355.33 905.70,355.74 909.30,357.35 912.91,355.33 916.52,356.14 920.13,355.74 923.74,356.14 927.35,354.12 930.96,354.93 934.57,356.14 938.18,354.52 941.79,353.71 945.40,354.12 949.01,354.93 952.62,352.90 956.23,353.71 959.83,353.31 963.44,353.31 967.05,354.52 970.66,352.90 974.27,352.50 977.88,352.50 981.49,353.31 985.10,352.50 988.71,353.71 992.32,354.12 995.93,352.50 999.54,352.90 1003.15,352.50 1006.75,352.10 1010.36,351.69 1013.97,352.10 1017.58,354.12 1021.19,352.50 1024.80,352.10 1028.41,352.10 1032.02,349.67 1035.63,349.67 1039.24,350.88 1042.85,351.29 1046.46,350.48 1050.07,352.10 1053.68,350.48 1057.28,350.48 1060.89,350.48 1064.50,350.07 1068.11,348.46 1071.72,351.29 1075.33,349.67 1078.94,351.29 1082.55,349.67 1086.16,348.86 1089.77,348.46 1093.38,348.46 1096.99,347.24 1100.60,348.86 1104.21,346.84 1107.81,348.46 1111.42,348.86 1115.03,346.84 1118.64,349.26 1122.25,348.05 1125.86,349.26 1129.47,349.26 1133.08,350.48 1136.69,352.90 1140.30,349.67 1143.91,348.46 1147.52,345.62 1151.13,344.82 1154.74,344.41 1158.34,342.39 1161.95,341.18 1165.56,341.58 1169.17,339.15 1172.78,338.35 1176.39,337.54 1180.00,336.73"/>
<circle cx="90.00" cy="540.55" r="3.2" fill="#1d4ed8"/>
<circle cx="93.61" cy="538.53" r="3.2" fill="#1d4ed8"/>
<circle cx="97.22" cy="536.91" r="3.2" fill="#1d4ed8"/>
<circle cx="100.83" cy="534.49" r="3.2" fill="#1d4ed8"/>
<circle cx="104.44" cy="534.49" r="3.2" fill="#1d4ed8"/>
<circle cx="108.05" cy="533.27" r="3.2" fill="#1d4ed8"/>
<circle cx="111.66" cy="532.46" r="3.2" fill="#1d4ed8"/>
<circle cx="115.26" cy="532.87" r="3.2" fill="#1d4ed8"/>
<circle cx="118.87" cy="532.06" r="3.2" fill="#1d4ed8"/>
<circle cx="122.48" cy="532.46" r="3.2" fill="#1d4ed8"/>
<circle cx="126.09" cy="532.06" r="3.2" fill="#1d4ed8"/>
<circle cx="129.70" cy="568.46" r="3.2" fill="#1d4ed8"/>
<circle cx="133.31" cy="568.46" r="3.2" fill="#1d4ed8"/>
<circle cx="136.92" cy="566.43" r="3.2" fill="#1d4ed8"/>
<circle cx="140.53" cy="545.00" r="3.2" fill="#1d4ed8"/>
<circle cx="144.14" cy="545.00" r="3.2" fill="#1d4ed8"/>
<circle cx="147.75" cy="544.19" r="3.2" fill="#1d4ed8"/>
<circle cx="151.36" cy="543.79" r="3.2" fill="#1d4ed8"/>
<circle cx="154.97" cy="543.79" r="3.2" fill="#1d4ed8"/>
<circle cx="158.58" cy="543.38" r="3.2" fill="#1d4ed8"/>
<circle cx="162.19" cy="541.76" r="3.2" fill="#1d4ed8"/>
<circle cx="165.79" cy="541.36" r="3.2" fill="#1d4ed8"/>
<circle cx="169.40" cy="540.96" r="3.2" fill="#1d4ed8"/>
<circle cx="173.01" cy="540.96" r="3.2" fill="#1d4ed8"/>
<circle cx="176.62" cy="539.34" r="3.2" fill="#1d4ed8"/>
<circle cx="180.23" cy="539.34" r="3.2" fill="#1d4ed8"/>
<circle cx="183.84" cy="556.73" r="3.2" fill="#1d4ed8"/>
<circle cx="187.45" cy="556.73" r="3.2" fill="#1d4ed8"/>
<circle cx="191.06" cy="555.51" r="3.2" fill="#1d4ed8"/>
<circle cx="194.67" cy="551.07" r="3.2" fill="#1d4ed8"/>
<circle cx="198.28" cy="538.93" r="3.2" fill="#1d4ed8"/>
<circle cx="201.89" cy="538.93" r="3.2" fill="#1d4ed8"/>
<circle cx="205.50" cy="538.93" r="3.2" fill="#1d4ed8"/>
<circle cx="209.11" cy="538.12" r="3.2" fill="#1d4ed8"/>
<circle cx="212.72" cy="536.91" r="3.2" fill="#1d4ed8"/>
<circle cx="216.32" cy="536.91" r="3.2" fill="#1d4ed8"/>
<circle cx="219.93" cy="536.51" r="3.2" fill="#1d4ed8"/>
<circle cx="223.54" cy="536.51" r="3.2" fill="#1d4ed8"/>
<circle cx="227.15" cy="556.73" r="3.2" fill="#1d4ed8"/>
<circle cx="230.76" cy="556.73" r="3.2" fill="#1d4ed8"/>
<circle cx="234.37" cy="556.73" r="3.2" fill="#1d4ed8"/>
<circle cx="237.98" cy="556.73" r="3.2" fill="#1d4ed8"/>
<circle cx="241.59" cy="535.29" r="3.2" fill="#1d4ed8"/>
<circle cx="245.20" cy="535.29" r="3.2" fill="#1d4ed8"/>
<circle cx="248.81" cy="535.29" r="3.2" fill="#1d4ed8"/>
<circle cx="252.42" cy="535.29" r="3.2" fill="#1d4ed8"/>
<circle cx="256.03" cy="534.49" r="3.2" fill="#1d4ed8"/>
<circle cx="259.64" cy="534.08" r="3.2" fill="#1d4ed8"/>
<circle cx="263.25" cy="533.68" r="3.2" fill="#1d4ed8"/>
<circle cx="266.85" cy="532.87" r="3.2" fill="#1d4ed8"/>
<circle cx="270.46" cy="532.06" r="3.2" fill="#1d4ed8"/>
<circle cx="274.07" cy="532.06" r="3.2" fill="#1d4ed8"/>
<circle cx="277.68" cy="531.25" r="3.2" fill="#1d4ed8"/>
<circle cx="281.29" cy="530.85" r="3.2" fill="#1d4ed8"/>
<circle cx="284.90" cy="530.44" r="3.2" fill="#1d4ed8"/>
<circle cx="288.51" cy="530.04" r="3.2" fill="#1d4ed8"/>
<circle cx="292.12" cy="530.04" r="3.2" fill="#1d4ed8"/>
<circle cx="295.73" cy="529.23" r="3.2" fill="#1d4ed8"/>
<circle cx="299.34" cy="529.23" r="3.2" fill="#1d4ed8"/>
<circle cx="302.95" cy="529.23" r="3.2" fill="#1d4ed8"/>
<circle cx="306.56" cy="528.42" r="3.2" fill="#1d4ed8"/>
<circle cx="310.17" cy="528.42" r="3.2" fill="#1d4ed8"/>
<circle cx="313.77" cy="527.61" r="3.2" fill="#1d4ed8"/>
<circle cx="317.38" cy="527.21" r="3.2" fill="#1d4ed8"/>
<circle cx="320.99" cy="526.80" r="3.2" fill="#1d4ed8"/>
<circle cx="324.60" cy="526.40" r="3.2" fill="#1d4ed8"/>
<circle cx="328.21" cy="525.18" r="3.2" fill="#1d4ed8"/>
<circle cx="331.82" cy="523.57" r="3.2" fill="#1d4ed8"/>
<circle cx="335.43" cy="523.57" r="3.2" fill="#1d4ed8"/>
<circle cx="339.04" cy="523.16" r="3.2" fill="#1d4ed8"/>
<circle cx="342.65" cy="522.76" r="3.2" fill="#1d4ed8"/>
<circle cx="346.26" cy="522.35" r="3.2" fill="#1d4ed8"/>
<circle cx="349.87" cy="521.54" r="3.2" fill="#1d4ed8"/>
<circle cx="353.48" cy="519.52" r="3.2" fill="#1d4ed8"/>
<circle cx="357.09" cy="517.50" r="3.2" fill="#1d4ed8"/>
<circle cx="360.70" cy="517.50" r="3.2" fill="#1d4ed8"/>
<circle cx="364.30" cy="517.50" r="3.2" fill="#1d4ed8"/>
<circle cx="367.91" cy="517.50" r="3.2" fill="#1d4ed8"/>
<circle cx="371.52" cy="517.50" r="3.2" fill="#1d4ed8"/>
<circle cx="375.13" cy="517.50" r="3.2" fill="#1d4ed8"/>
<circle cx="378.74" cy="517.10" r="3.2" fill="#1d4ed8"/>
<circle cx="382.35" cy="516.69" r="3.2" fill="#1d4ed8"/>
<circle cx="385.96" cy="515.48" r="3.2" fill="#1d4ed8"/>
<circle cx="389.57" cy="515.07" r="3.2" fill="#1d4ed8"/>
<circle cx="393.18" cy="514.67" r="3.2" fill="#1d4ed8"/>
<circle cx="396.79" cy="513.86" r="3.2" fill="#1d4ed8"/>
<circle cx="400.40" cy="514.26" r="3.2" fill="#1d4ed8"/>
<circle cx="404.01" cy="512.24" r="3.2" fill="#1d4ed8"/>
<circle cx="407.62" cy="511.84" r="3.2" fill="#1d4ed8"/>
<circle cx="411.23" cy="511.84" r="3.2" fill="#1d4ed8"/>
<circle cx="414.83" cy="511.03" r="3.2" fill="#1d4ed8"/>
<circle cx="418.44" cy="509.82" r="3.2" fill="#1d4ed8"/>
<circle cx="422.05" cy="507.79" r="3.2" fill="#1d4ed8"/>
<circle cx="425.66" cy="506.99" r="3.2" fill="#1d4ed8"/>
<circle cx="429.27" cy="506.58" r="3.2" fill="#1d4ed8"/>
<circle cx="432.88" cy="509.41" r="3.2" fill="#1d4ed8"/>
<circle cx="436.49" cy="509.01" r="3.2" fill="#1d4ed8"/>
<circle cx="440.10" cy="504.96" r="3.2" fill="#1d4ed8"/>
<circle cx="443.71" cy="504.56" r="3.2" fill="#1d4ed8"/>
<circle cx="447.32" cy="504.15" r="3.2" fill="#1d4ed8"/>
<circle cx="450.93" cy="504.56" r="3.2" fill="#1d4ed8"/>
<circle cx="454.54" cy="503.75" r="3.2" fill="#1d4ed8"/>
<circle cx="458.15" cy="503.75" r="3.2" fill="#1d4ed8"/>
<circle cx="461.75" cy="503.35" r="3.2" fill="#1d4ed8"/>
<circle cx="465.36" cy="499.30" r="3.2" fill="#1d4ed8"/>
<circle cx="468.97" cy="496.47" r="3.2" fill="#1d4ed8"/>
<circle cx="472.58" cy="490.00" r="3.2" fill="#1d4ed8"/>
<circle cx="476.19" cy="484.34" r="3.2" fill="#1d4ed8"/>
<circle cx="479.80" cy="481.10" r="3.2" fill="#1d4ed8"/>
<circle cx="483.41" cy="480.29" r="3.2" fill="#1d4ed8"/>
<circle cx="487.02" cy="480.70" r="3.2" fill="#1d4ed8"/>
<circle cx="490.63" cy="460.88" r="3.2" fill="#1d4ed8"/>
<circle cx="494.24" cy="459.26" r="3.2" fill="#1d4ed8"/>
<circle cx="497.85" cy="458.05" r="3.2" fill="#1d4ed8"/>
<circle cx="501.46" cy="456.03" r="3.2" fill="#1d4ed8"/>
<circle cx="505.07" cy="456.03" r="3.2" fill="#1d4ed8"/>
<circle cx="508.68" cy="454.41" r="3.2" fill="#1d4ed8"/>
<circle cx="512.28" cy="450.77" r="3.2" fill="#1d4ed8"/>
<circle cx="515.89" cy="444.30" r="3.2" fill="#1d4ed8"/>
<circle cx="519.50" cy="443.90" r="3.2" fill="#1d4ed8"/>
<circle cx="523.11" cy="600.00" r="3.2" fill="#1d4ed8"/>
<circle cx="526.72" cy="441.88" r="3.2" fill="#1d4ed8"/>
<circle cx="530.33" cy="440.66" r="3.2" fill="#1d4ed8"/>
<circle cx="533.94" cy="439.45" r="3.2" fill="#1d4ed8"/>
<circle cx="537.55" cy="439.04" r="3.2" fill="#1d4ed8"/>
<circle cx="541.16" cy="438.64" r="3.2" fill="#1d4ed8"/>
<circle cx="544.77" cy="437.83" r="3.2" fill="#1d4ed8"/>
<circle cx="548.38" cy="436.62" r="3.2" fill="#1d4ed8"/>
<circle cx="551.99" cy="436.62" r="3.2" fill="#1d4ed8"/>
<circle cx="555.60" cy="434.60" r="3.2" fill="#1d4ed8"/>
<circle cx="559.21" cy="432.17" r="3.2" fill="#1d4ed8"/>
<circle cx="562.81" cy="429.34" r="3.2" fill="#1d4ed8"/>
<circle cx="566.42" cy="428.93" r="3.2" fill="#1d4ed8"/>
<circle cx="570.03" cy="428.53" r="3.2" fill="#1d4ed8"/>
<circle cx="573.64" cy="427.72" r="3.2" fill="#1d4ed8"/>
<circle cx="577.25" cy="426.91" r="3.2" fill="#1d4ed8"/>
<circle cx="580.86" cy="426.10" r="3.2" fill="#1d4ed8"/>
<circle cx="584.47" cy="426.10" r="3.2" fill="#1d4ed8"/>
<circle cx="588.08" cy="426.10" r="3.2" fill="#1d4ed8"/>
<circle cx="591.69" cy="419.63" r="3.2" fill="#1d4ed8"/>
<circle cx="595.30" cy="419.23" r="3.2" fill="#1d4ed8"/>
<circle cx="598.91" cy="418.42" r="3.2" fill="#1d4ed8"/>
<circle cx="602.52" cy="418.01" r="3.2" fill="#1d4ed8"/>
<circle cx="606.13" cy="417.61" r="3.2" fill="#1d4ed8"/>
<circle cx="609.74" cy="417.61" r="3.2" fill="#1d4ed8"/>
<circle cx="613.34" cy="417.61" r="3.2" fill="#1d4ed8"/>
<circle cx="616.95" cy="417.21" r="3.2" fill="#1d4ed8"/>
<circle cx="620.56" cy="417.21" r="3.2" fill="#1d4ed8"/>
<circle cx="624.17" cy="413.57" r="3.2" fill="#1d4ed8"/>
<circle cx="627.78" cy="411.95" r="3.2" fill="#1d4ed8"/>
<circle cx="631.39" cy="412.76" r="3.2" fill="#1d4ed8"/>
<circle cx="635.00" cy="410.74" r="3.2" fill="#1d4ed8"/>
<circle cx="638.61" cy="410.74" r="3.2" fill="#1d4ed8"/>
<circle cx="642.22" cy="410.33" r="3.2" fill="#1d4ed8"/>
<circle cx="645.83" cy="410.33" r="3.2" fill="#1d4ed8"/>
<circle cx="649.44" cy="410.33" r="3.2" fill="#1d4ed8"/>
<circle cx="653.05" cy="409.93" r="3.2" fill="#1d4ed8"/>
<circle cx="656.66" cy="409.93" r="3.2" fill="#1d4ed8"/>
<circle cx="660.26" cy="409.93" r="3.2" fill="#1d4ed8"/>
<circle cx="663.87" cy="409.52" r="3.2" fill="#1d4ed8"/>
<circle cx="667.48" cy="409.52" r="3.2" fill="#1d4ed8"/>
<circle cx="671.09" cy="409.12" r="3.2" fill="#1d4ed8"/>
<circle cx="674.70" cy="409.52" r="3.2" fill="#1d4ed8"/>
<circle cx="678.31" cy="409.12" r="3.2" fill="#1d4ed8"/>
<circle cx="681.92" cy="407.50" r="3.2" fill="#1d4ed8"/>
<circle cx="685.53" cy="407.10" r="3.2" fill="#1d4ed8"/>
<circle cx="689.14" cy="403.05" r="3.2" fill="#1d4ed8"/>
<circle cx="692.75" cy="399.82" r="3.2" fill="#1d4ed8"/>
<circle cx="696.36" cy="400.22" r="3.2" fill="#1d4ed8"/>
<circle cx="699.97" cy="400.62" r="3.2" fill="#1d4ed8"/>
<circle cx="703.58" cy="400.62" r="3.2" fill="#1d4ed8"/>
<circle cx="707.19" cy="399.41" r="3.2" fill="#1d4ed8"/>
<circle cx="710.79" cy="392.94" r="3.2" fill="#1d4ed8"/>
<circle cx="714.40" cy="391.32" r="3.2" fill="#1d4ed8"/>
<circle cx="718.01" cy="389.30" r="3.2" fill="#1d4ed8"/>
<circle cx="721.62" cy="389.30" r="3.2" fill="#1d4ed8"/>
<circle cx="725.23" cy="388.49" r="3.2" fill="#1d4ed8"/>
<circle cx="728.84" cy="375.15" r="3.2" fill="#1d4ed8"/>
<circle cx="732.45" cy="374.74" r="3.2" fill="#1d4ed8"/>
<circle cx="736.06" cy="374.74" r="3.2" fill="#1d4ed8"/>
<circle cx="739.67" cy="374.74" r="3.2" fill="#1d4ed8"/>
<circle cx="743.28" cy="374.74" r="3.2" fill="#1d4ed8"/>
<circle cx="746.89" cy="374.34" r="3.2" fill="#1d4ed8"/>
<circle cx="750.50" cy="374.34" r="3.2" fill="#1d4ed8"/>
<circle cx="754.11" cy="374.34" r="3.2" fill="#1d4ed8"/>
<circle cx="757.72" cy="374.34" r="3.2" fill="#1d4ed8"/>
<circle cx="761.32" cy="374.34" r="3.2" fill="#1d4ed8"/>
<circle cx="764.93" cy="373.93" r="3.2" fill="#1d4ed8"/>
<circle cx="768.54" cy="373.12" r="3.2" fill="#1d4ed8"/>
<circle cx="772.15" cy="372.72" r="3.2" fill="#1d4ed8"/>
<circle cx="775.76" cy="373.53" r="3.2" fill="#1d4ed8"/>
<circle cx="779.37" cy="435.81" r="3.2" fill="#1d4ed8"/>
<circle cx="782.98" cy="372.32" r="3.2" fill="#1d4ed8"/>
<circle cx="786.59" cy="372.72" r="3.2" fill="#1d4ed8"/>
<circle cx="790.20" cy="371.91" r="3.2" fill="#1d4ed8"/>
<circle cx="793.81" cy="371.91" r="3.2" fill="#1d4ed8"/>
<circle cx="797.42" cy="372.32" r="3.2" fill="#1d4ed8"/>
<circle cx="801.03" cy="371.10" r="3.2" fill="#1d4ed8"/>
<circle cx="804.64" cy="369.89" r="3.2" fill="#1d4ed8"/>
<circle cx="808.25" cy="369.89" r="3.2" fill="#1d4ed8"/>
<circle cx="811.85" cy="369.89" r="3.2" fill="#1d4ed8"/>
<circle cx="815.46" cy="369.49" r="3.2" fill="#1d4ed8"/>
<circle cx="819.07" cy="369.89" r="3.2" fill="#1d4ed8"/>
<circle cx="822.68" cy="369.08" r="3.2" fill="#1d4ed8"/>
<circle cx="826.29" cy="368.68" r="3.2" fill="#1d4ed8"/>
<circle cx="829.90" cy="368.27" r="3.2" fill="#1d4ed8"/>
<circle cx="833.51" cy="367.87" r="3.2" fill="#1d4ed8"/>
<circle cx="837.12" cy="367.06" r="3.2" fill="#1d4ed8"/>
<circle cx="840.73" cy="367.46" r="3.2" fill="#1d4ed8"/>
<circle cx="844.34" cy="367.06" r="3.2" fill="#1d4ed8"/>
<circle cx="847.95" cy="366.25" r="3.2" fill="#1d4ed8"/>
<circle cx="851.56" cy="368.27" r="3.2" fill="#1d4ed8"/>
<circle cx="855.17" cy="368.68" r="3.2" fill="#1d4ed8"/>
<circle cx="858.77" cy="368.68" r="3.2" fill="#1d4ed8"/>
<circle cx="862.38" cy="368.27" r="3.2" fill="#1d4ed8"/>
<circle cx="865.99" cy="369.08" r="3.2" fill="#1d4ed8"/>
<circle cx="869.60" cy="367.87" r="3.2" fill="#1d4ed8"/>
<circle cx="873.21" cy="367.46" r="3.2" fill="#1d4ed8"/>
<circle cx="876.82" cy="367.06" r="3.2" fill="#1d4ed8"/>
<circle cx="880.43" cy="360.18" r="3.2" fill="#1d4ed8"/>
<circle cx="884.04" cy="359.78" r="3.2" fill="#1d4ed8"/>
<circle cx="887.65" cy="359.38" r="3.2" fill="#1d4ed8"/>
<circle cx="891.26" cy="356.95" r="3.2" fill="#1d4ed8"/>
<circle cx="894.87" cy="357.35" r="3.2" fill="#1d4ed8"/>
<circle cx="898.48" cy="357.76" r="3.2" fill="#1d4ed8"/>
<circle cx="902.09" cy="355.33" r="3.2" fill="#1d4ed8"/>
<circle cx="905.70" cy="355.74" r="3.2" fill="#1d4ed8"/>
<circle cx="909.30" cy="357.35" r="3.2" fill="#1d4ed8"/>
<circle cx="912.91" cy="355.33" r="3.2" fill="#1d4ed8"/>
<circle cx="916.52" cy="356.14" r="3.2" fill="#1d4ed8"/>
<circle cx="920.13" cy="355.74" r="3.2" fill="#1d4ed8"/>
<circle cx="923.74" cy="356.14" r="3.2" fill="#1d4ed8"/>
<circle cx="927.35" cy="354.12" r="3.2" fill="#1d4ed8"/>
<circle cx="930.96" cy="354.93" r="3.2" fill="#1d4ed8"/>
<circle cx="934.57" cy="356.14" r="3.2" fill="#1d4ed8"/>
<circle cx="938.18" cy="354.52" r="3.2" fill="#1d4ed8"/>
<circle cx="941.79" cy="353.71" r="3.2" fill="#1d4ed8"/>
<circle cx="945.40" cy="354.12" r="3.2" fill="#1d4ed8"/>
<circle cx="949.01" cy="354.93" r="3.2" fill="#1d4ed8"/>
<circle cx="952.62" cy="352.90" r="3.2" fill="#1d4ed8"/>
<circle cx="956.23" cy="353.71" r="3.2" fill="#1d4ed8"/>
<circle cx="959.83" cy="353.31" r="3.2" fill="#1d4ed8"/>
<circle cx="963.44" cy="353.31" r="3.2" fill="#1d4ed8"/>
<circle cx="967.05" cy="354.52" r="3.2" fill="#1d4ed8"/>
<circle cx="970.66" cy="352.90" r="3.2" fill="#1d4ed8"/>
<circle cx="974.27" cy="352.50" r="3.2" fill="#1d4ed8"/>
<circle cx="977.88" cy="352.50" r="3.2" fill="#1d4ed8"/>
<circle cx="981.49" cy="353.31" r="3.2" fill="#1d4ed8"/>
<circle cx="985.10" cy="352.50" r="3.2" fill="#1d4ed8"/>
<circle cx="988.71" cy="353.71" r="3.2" fill="#1d4ed8"/>
<circle cx="992.32" cy="354.12" r="3.2" fill="#1d4ed8"/>
<circle cx="995.93" cy="352.50" r="3.2" fill="#1d4ed8"/>
<circle cx="999.54" cy="352.90" r="3.2" fill="#1d4ed8"/>
<circle cx="1003.15" cy="352.50" r="3.2" fill="#1d4ed8"/>
<circle cx="1006.75" cy="352.10" r="3.2" fill="#1d4ed8"/>
<circle cx="1010.36" cy="351.69" r="3.2" fill="#1d4ed8"/>
<circle cx="1013.97" cy="352.10" r="3.2" fill="#1d4ed8"/>
<circle cx="1017.58" cy="354.12" r="3.2" fill="#1d4ed8"/>
<circle cx="1021.19" cy="352.50" r="3.2" fill="#1d4ed8"/>
<circle cx="1024.80" cy="352.10" r="3.2" fill="#1d4ed8"/>
<circle cx="1028.41" cy="352.10" r="3.2" fill="#1d4ed8"/>
<circle cx="1032.02" cy="349.67" r="3.2" fill="#1d4ed8"/>
<circle cx="1035.63" cy="349.67" r="3.2" fill="#1d4ed8"/>
<circle cx="1039.24" cy="350.88" r="3.2" fill="#1d4ed8"/>
<circle cx="1042.85" cy="351.29" r="3.2" fill="#1d4ed8"/>
<circle cx="1046.46" cy="350.48" r="3.2" fill="#1d4ed8"/>
<circle cx="1050.07" cy="352.10" r="3.2" fill="#1d4ed8"/>
<circle cx="1053.68" cy="350.48" r="3.2" fill="#1d4ed8"/>
<circle cx="1057.28" cy="350.48" r="3.2" fill="#1d4ed8"/>
<circle cx="1060.89" cy="350.48" r="3.2" fill="#1d4ed8"/>
<circle cx="1064.50" cy="350.07" r="3.2" fill="#1d4ed8"/>
<circle cx="1068.11" cy="348.46" r="3.2" fill="#1d4ed8"/>
<circle cx="1071.72" cy="351.29" r="3.2" fill="#1d4ed8"/>
<circle cx="1075.33" cy="349.67" r="3.2" fill="#1d4ed8"/>
<circle cx="1078.94" cy="351.29" r="3.2" fill="#1d4ed8"/>
<circle cx="1082.55" cy="349.67" r="3.2" fill="#1d4ed8"/>
<circle cx="1086.16" cy="348.86" r="3.2" fill="#1d4ed8"/>
<circle cx="1089.77" cy="348.46" r="3.2" fill="#1d4ed8"/>
<circle cx="1093.38" cy="348.46" r="3.2" fill="#1d4ed8"/>
<circle cx="1096.99" cy="347.24" r="3.2" fill="#1d4ed8"/>
<circle cx="1100.60" cy="348.86" r="3.2" fill="#1d4ed8"/>
<circle cx="1104.21" cy="346.84" r="3.2" fill="#1d4ed8"/>
<circle cx="1107.81" cy="348.46" r="3.2" fill="#1d4ed8"/>
<circle cx="1111.42" cy="348.86" r="3.2" fill="#1d4ed8"/>
<circle cx="1115.03" cy="346.84" r="3.2" fill="#1d4ed8"/>
<circle cx="1118.64" cy="349.26" r="3.2" fill="#1d4ed8"/>
<circle cx="1122.25" cy="348.05" r="3.2" fill="#1d4ed8"/>
<circle cx="1125.86" cy="349.26" r="3.2" fill="#1d4ed8"/>
<circle cx="1129.47" cy="349.26" r="3.2" fill="#1d4ed8"/>
<circle cx="1133.08" cy="350.48" r="3.2" fill="#1d4ed8"/>
<circle cx="1136.69" cy="352.90" r="3.2" fill="#1d4ed8"/>
<circle cx="1140.30" cy="349.67" r="3.2" fill="#1d4ed8"/>
<circle cx="1143.91" cy="348.46" r="3.2" fill="#1d4ed8"/>
<circle cx="1147.52" cy="345.62" r="3.2" fill="#1d4ed8"/>
<circle cx="1151.13" cy="344.82" r="3.2" fill="#1d4ed8"/>
<circle cx="1154.74" cy="344.41" r="3.2" fill="#1d4ed8"/>
<circle cx="1158.34" cy="342.39" r="3.2" fill="#1d4ed8"/>
<circle cx="1161.95" cy="341.18" r="3.2" fill="#1d4ed8"/>
<circle cx="1165.56" cy="341.58" r="3.2" fill="#1d4ed8"/>
<circle cx="1169.17" cy="339.15" r="3.2" fill="#1d4ed8"/>
<circle cx="1172.78" cy="338.35" r="3.2" fill="#1d4ed8"/>
<circle cx="1176.39" cy="337.54" r="3.2" fill="#1d4ed8"/>
<circle cx="1180.00" cy="336.73" r="3.2" fill="#1d4ed8"/>
<text x="635" y="695" text-anchor="middle" font-size="14" fill="#111" font-family="sans-serif">Date</text>
<text x="24" y="325" text-anchor="middle" font-size="14" fill="#111" transform="rotate(-90 24,325)" font-family="sans-serif">Passed files</text>
</svg>
