<?xml version="1.0" encoding="UTF-8"?>
<svg xmlns="http://www.w3.org/2000/svg" width="1280" height="720" viewBox="0 0 1280 720">
<rect width="100%" height="100%" fill="#ffffff"/>
<text x="640" y="30" text-anchor="middle" font-size="22" font-family="sans-serif">Roast passed files history</text>
<line x1="90" y1="600" x2="1180" y2="600" stroke="#333" stroke-width="1.5"/>
<line x1="90" y1="50" x2="90" y2="600" stroke="#333" stroke-width="1.5"/>
<line x1="90" y1="600.00" x2="1180" y2="600.00" stroke="#e5e7eb" stroke-width="1"/>
<text x="78" y="605.00" text-anchor="end" font-size="12" fill="#111" font-family="sans-serif">0</text>
<line x1="90" y1="398.09" x2="1180" y2="398.09" stroke="#e5e7eb" stroke-width="1"/>
<text x="78" y="403.09" text-anchor="end" font-size="12" fill="#111" font-family="sans-serif">500</text>
<line x1="90" y1="196.18" x2="1180" y2="196.18" stroke="#e5e7eb" stroke-width="1"/>
<text x="78" y="201.18" text-anchor="end" font-size="12" fill="#111" font-family="sans-serif">1000</text>
<line x1="90.00" y1="600" x2="90.00" y2="606" stroke="#333" stroke-width="1"/>
<text x="90.00" y="624" text-anchor="end" font-size="11" fill="#111" transform="rotate(-40 90.00,624)" font-family="sans-serif">2026-02-12</text>
<line x1="223.31" y1="600" x2="223.31" y2="606" stroke="#333" stroke-width="1"/>
<text x="223.31" y="624" text-anchor="end" font-size="11" fill="#111" transform="rotate(-40 223.31,624)" font-family="sans-serif">2026-02-15</text>
<line x1="356.62" y1="600" x2="356.62" y2="606" stroke="#333" stroke-width="1"/>
<text x="356.62" y="624" text-anchor="end" font-size="11" fill="#111" transform="rotate(-40 356.62,624)" font-family="sans-serif">2026-02-17</text>
<line x1="489.93" y1="600" x2="489.93" y2="606" stroke="#333" stroke-width="1"/>
<text x="489.93" y="624" text-anchor="end" font-size="11" fill="#111" transform="rotate(-40 489.93,624)" font-family="sans-serif">2026-02-18</text>
<line x1="623.24" y1="600" x2="623.24" y2="606" stroke="#333" stroke-width="1"/>
<text x="623.24" y="624" text-anchor="end" font-size="11" fill="#111" transform="rotate(-40 623.24,624)" font-family="sans-serif">2026-02-19</text>
<line x1="756.55" y1="600" x2="756.55" y2="606" stroke="#333" stroke-width="1"/>
<text x="756.55" y="624" text-anchor="end" font-size="11" fill="#111" transform="rotate(-40 756.55,624)" font-family="sans-serif">2026-02-21</text>
<line x1="889.86" y1="600" x2="889.86" y2="606" stroke="#333" stroke-width="1"/>
<text x="889.86" y="624" text-anchor="end" font-size="11" fill="#111" transform="rotate(-40 889.86,624)" font-family="sans-serif">2026-02-23</text>
<line x1="1023.17" y1="600" x2="1023.17" y2="606" stroke="#333" stroke-width="1"/>
<text x="1023.17" y="624" text-anchor="end" font-size="11" fill="#111" transform="rotate(-40 1023.17,624)" font-family="sans-serif">2026-02-25</text>
<line x1="1156.47" y1="600" x2="1156.47" y2="606" stroke="#333" stroke-width="1"/>
<text x="1156.47" y="624" text-anchor="end" font-size="11" fill="#111" transform="rotate(-40 1156.47,624)" font-family="sans-serif">2026-02-25</text>
<line x1="1180.00" y1="600" x2="1180.00" y2="606" stroke="#333" stroke-width="1"/>
<text x="1180.00" y="624" text-anchor="end" font-size="11" fill="#111" transform="rotate(-40 1180.00,624)" font-family="sans-serif">2026-02-25</text>
<line x1="90" y1="75.84" x2="1180" y2="75.84" stroke="#dc2626" stroke-width="1.5" stroke-dasharray="8,4"/>
<text x="1184" y="79.84" font-size="12" fill="#dc2626" font-family="sans-serif">Goal: 1298</text>
<polyline fill="none" stroke="#2563eb" stroke-width="3" points="90.00,540.64 97.84,538.62 105.68,537.00 113.53,534.58 121.37,534.58 129.21,533.37 137.05,532.56 144.89,532.97 152.73,532.16 160.58,532.56 168.42,532.16 176.26,568.50 184.10,568.50 191.94,566.48 199.78,545.08 207.63,545.08 215.47,544.27 223.31,543.87 231.15,543.87 238.99,543.47 246.83,541.85 254.68,541.45 262.52,541.04 270.36,541.04 278.20,539.43 286.04,539.43 293.88,556.79 301.73,556.79 309.57,555.58 317.41,551.14 325.25,539.02 333.09,539.02 340.94,539.02 348.78,538.22 356.62,537.00 364.46,537.00 372.30,536.60 380.14,536.60 387.99,556.79 395.83,556.79 403.67,556.79 411.51,556.79 419.35,535.39 427.19,535.39 435.04,535.39 442.88,535.39 450.72,534.58 458.56,534.18 466.40,533.77 474.24,532.97 482.09,532.16 489.93,532.16 497.77,531.35 505.61,530.95 513.45,530.54 521.29,530.14 529.14,530.14 536.98,529.33 544.82,529.33 552.66,529.33 560.50,528.52 568.35,528.52 576.19,527.72 584.03,527.31 591.87,526.91 599.71,526.51 607.55,525.29 615.40,523.68 623.24,523.68 631.08,523.27 638.92,522.87 646.76,522.47 654.60,521.66 662.45,519.64 670.29,517.62 678.13,517.62 685.97,517.62 693.81,517.62 701.65,517.62 709.50,517.62 717.34,517.22 725.18,516.81 733.02,515.60 740.86,515.20 748.71,514.79 756.55,513.99 764.39,514.39 772.23,512.37 780.07,511.97 787.91,511.97 795.76,511.16 803.60,509.95 811.44,507.93 819.28,507.12 827.12,506.72 834.96,509.54 842.81,509.14 850.65,505.10 858.49,504.70 866.33,504.30 874.17,504.70 882.01,503.89 889.86,503.89 897.70,503.49 905.54,499.45 913.38,496.62 921.22,490.16 929.06,484.51 936.91,481.28 944.75,480.47 952.59,480.87 960.43,461.09 968.27,459.47 976.12,458.26 983.96,456.24 991.80,456.24 999.64,454.63 1007.48,450.99 1015.32,444.53 1023.17,444.13 1031.01,600.00 1038.85,442.11 1046.69,440.90 1054.53,439.68 1062.37,439.28 1070.22,438.88 1078.06,438.07 1085.90,436.86 1093.74,436.86 1101.58,434.84 1109.42,432.42 1117.27,429.59 1125.11,429.19 1132.95,428.78 1140.79,427.97 1148.63,427.17 1156.47,426.36 1164.32,426.36 1172.16,426.36 1180.00,419.90"/>
<circle cx="90.00" cy="540.64" r="3.2" fill="#1d4ed8"/>
<circle cx="97.84" cy="538.62" r="3.2" fill="#1d4ed8"/>
<circle cx="105.68" cy="537.00" r="3.2" fill="#1d4ed8"/>
<circle cx="113.53" cy="534.58" r="3.2" fill="#1d4ed8"/>
<circle cx="121.37" cy="534.58" r="3.2" fill="#1d4ed8"/>
<circle cx="129.21" cy="533.37" r="3.2" fill="#1d4ed8"/>
<circle cx="137.05" cy="532.56" r="3.2" fill="#1d4ed8"/>
<circle cx="144.89" cy="532.97" r="3.2" fill="#1d4ed8"/>
<circle cx="152.73" cy="532.16" r="3.2" fill="#1d4ed8"/>
<circle cx="160.58" cy="532.56" r="3.2" fill="#1d4ed8"/>
<circle cx="168.42" cy="532.16" r="3.2" fill="#1d4ed8"/>
<circle cx="176.26" cy="568.50" r="3.2" fill="#1d4ed8"/>
<circle cx="184.10" cy="568.50" r="3.2" fill="#1d4ed8"/>
<circle cx="191.94" cy="566.48" r="3.2" fill="#1d4ed8"/>
<circle cx="199.78" cy="545.08" r="3.2" fill="#1d4ed8"/>
<circle cx="207.63" cy="545.08" r="3.2" fill="#1d4ed8"/>
<circle cx="215.47" cy="544.27" r="3.2" fill="#1d4ed8"/>
<circle cx="223.31" cy="543.87" r="3.2" fill="#1d4ed8"/>
<circle cx="231.15" cy="543.87" r="3.2" fill="#1d4ed8"/>
<circle cx="238.99" cy="543.47" r="3.2" fill="#1d4ed8"/>
<circle cx="246.83" cy="541.85" r="3.2" fill="#1d4ed8"/>
<circle cx="254.68" cy="541.45" r="3.2" fill="#1d4ed8"/>
<circle cx="262.52" cy="541.04" r="3.2" fill="#1d4ed8"/>
<circle cx="270.36" cy="541.04" r="3.2" fill="#1d4ed8"/>
<circle cx="278.20" cy="539.43" r="3.2" fill="#1d4ed8"/>
<circle cx="286.04" cy="539.43" r="3.2" fill="#1d4ed8"/>
<circle cx="293.88" cy="556.79" r="3.2" fill="#1d4ed8"/>
<circle cx="301.73" cy="556.79" r="3.2" fill="#1d4ed8"/>
<circle cx="309.57" cy="555.58" r="3.2" fill="#1d4ed8"/>
<circle cx="317.41" cy="551.14" r="3.2" fill="#1d4ed8"/>
<circle cx="325.25" cy="539.02" r="3.2" fill="#1d4ed8"/>
<circle cx="333.09" cy="539.02" r="3.2" fill="#1d4ed8"/>
<circle cx="340.94" cy="539.02" r="3.2" fill="#1d4ed8"/>
<circle cx="348.78" cy="538.22" r="3.2" fill="#1d4ed8"/>
<circle cx="356.62" cy="537.00" r="3.2" fill="#1d4ed8"/>
<circle cx="364.46" cy="537.00" r="3.2" fill="#1d4ed8"/>
<circle cx="372.30" cy="536.60" r="3.2" fill="#1d4ed8"/>
<circle cx="380.14" cy="536.60" r="3.2" fill="#1d4ed8"/>
<circle cx="387.99" cy="556.79" r="3.2" fill="#1d4ed8"/>
<circle cx="395.83" cy="556.79" r="3.2" fill="#1d4ed8"/>
<circle cx="403.67" cy="556.79" r="3.2" fill="#1d4ed8"/>
<circle cx="411.51" cy="556.79" r="3.2" fill="#1d4ed8"/>
<circle cx="419.35" cy="535.39" r="3.2" fill="#1d4ed8"/>
<circle cx="427.19" cy="535.39" r="3.2" fill="#1d4ed8"/>
<circle cx="435.04" cy="535.39" r="3.2" fill="#1d4ed8"/>
<circle cx="442.88" cy="535.39" r="3.2" fill="#1d4ed8"/>
<circle cx="450.72" cy="534.58" r="3.2" fill="#1d4ed8"/>
<circle cx="458.56" cy="534.18" r="3.2" fill="#1d4ed8"/>
<circle cx="466.40" cy="533.77" r="3.2" fill="#1d4ed8"/>
<circle cx="474.24" cy="532.97" r="3.2" fill="#1d4ed8"/>
<circle cx="482.09" cy="532.16" r="3.2" fill="#1d4ed8"/>
<circle cx="489.93" cy="532.16" r="3.2" fill="#1d4ed8"/>
<circle cx="497.77" cy="531.35" r="3.2" fill="#1d4ed8"/>
<circle cx="505.61" cy="530.95" r="3.2" fill="#1d4ed8"/>
<circle cx="513.45" cy="530.54" r="3.2" fill="#1d4ed8"/>
<circle cx="521.29" cy="530.14" r="3.2" fill="#1d4ed8"/>
<circle cx="529.14" cy="530.14" r="3.2" fill="#1d4ed8"/>
<circle cx="536.98" cy="529.33" r="3.2" fill="#1d4ed8"/>
<circle cx="544.82" cy="529.33" r="3.2" fill="#1d4ed8"/>
<circle cx="552.66" cy="529.33" r="3.2" fill="#1d4ed8"/>
<circle cx="560.50" cy="528.52" r="3.2" fill="#1d4ed8"/>
<circle cx="568.35" cy="528.52" r="3.2" fill="#1d4ed8"/>
<circle cx="576.19" cy="527.72" r="3.2" fill="#1d4ed8"/>
<circle cx="584.03" cy="527.31" r="3.2" fill="#1d4ed8"/>
<circle cx="591.87" cy="526.91" r="3.2" fill="#1d4ed8"/>
<circle cx="599.71" cy="526.51" r="3.2" fill="#1d4ed8"/>
<circle cx="607.55" cy="525.29" r="3.2" fill="#1d4ed8"/>
<circle cx="615.40" cy="523.68" r="3.2" fill="#1d4ed8"/>
<circle cx="623.24" cy="523.68" r="3.2" fill="#1d4ed8"/>
<circle cx="631.08" cy="523.27" r="3.2" fill="#1d4ed8"/>
<circle cx="638.92" cy="522.87" r="3.2" fill="#1d4ed8"/>
<circle cx="646.76" cy="522.47" r="3.2" fill="#1d4ed8"/>
<circle cx="654.60" cy="521.66" r="3.2" fill="#1d4ed8"/>
<circle cx="662.45" cy="519.64" r="3.2" fill="#1d4ed8"/>
<circle cx="670.29" cy="517.62" r="3.2" fill="#1d4ed8"/>
<circle cx="678.13" cy="517.62" r="3.2" fill="#1d4ed8"/>
<circle cx="685.97" cy="517.62" r="3.2" fill="#1d4ed8"/>
<circle cx="693.81" cy="517.62" r="3.2" fill="#1d4ed8"/>
<circle cx="701.65" cy="517.62" r="3.2" fill="#1d4ed8"/>
<circle cx="709.50" cy="517.62" r="3.2" fill="#1d4ed8"/>
<circle cx="717.34" cy="517.22" r="3.2" fill="#1d4ed8"/>
<circle cx="725.18" cy="516.81" r="3.2" fill="#1d4ed8"/>
<circle cx="733.02" cy="515.60" r="3.2" fill="#1d4ed8"/>
<circle cx="740.86" cy="515.20" r="3.2" fill="#1d4ed8"/>
<circle cx="748.71" cy="514.79" r="3.2" fill="#1d4ed8"/>
<circle cx="756.55" cy="513.99" r="3.2" fill="#1d4ed8"/>
<circle cx="764.39" cy="514.39" r="3.2" fill="#1d4ed8"/>
<circle cx="772.23" cy="512.37" r="3.2" fill="#1d4ed8"/>
<circle cx="780.07" cy="511.97" r="3.2" fill="#1d4ed8"/>
<circle cx="787.91" cy="511.97" r="3.2" fill="#1d4ed8"/>
<circle cx="795.76" cy="511.16" r="3.2" fill="#1d4ed8"/>
<circle cx="803.60" cy="509.95" r="3.2" fill="#1d4ed8"/>
<circle cx="811.44" cy="507.93" r="3.2" fill="#1d4ed8"/>
<circle cx="819.28" cy="507.12" r="3.2" fill="#1d4ed8"/>
<circle cx="827.12" cy="506.72" r="3.2" fill="#1d4ed8"/>
<circle cx="834.96" cy="509.54" r="3.2" fill="#1d4ed8"/>
<circle cx="842.81" cy="509.14" r="3.2" fill="#1d4ed8"/>
<circle cx="850.65" cy="505.10" r="3.2" fill="#1d4ed8"/>
<circle cx="858.49" cy="504.70" r="3.2" fill="#1d4ed8"/>
<circle cx="866.33" cy="504.30" r="3.2" fill="#1d4ed8"/>
<circle cx="874.17" cy="504.70" r="3.2" fill="#1d4ed8"/>
<circle cx="882.01" cy="503.89" r="3.2" fill="#1d4ed8"/>
<circle cx="889.86" cy="503.89" r="3.2" fill="#1d4ed8"/>
<circle cx="897.70" cy="503.49" r="3.2" fill="#1d4ed8"/>
<circle cx="905.54" cy="499.45" r="3.2" fill="#1d4ed8"/>
<circle cx="913.38" cy="496.62" r="3.2" fill="#1d4ed8"/>
<circle cx="921.22" cy="490.16" r="3.2" fill="#1d4ed8"/>
<circle cx="929.06" cy="484.51" r="3.2" fill="#1d4ed8"/>
<circle cx="936.91" cy="481.28" r="3.2" fill="#1d4ed8"/>
<circle cx="944.75" cy="480.47" r="3.2" fill="#1d4ed8"/>
<circle cx="952.59" cy="480.87" r="3.2" fill="#1d4ed8"/>
<circle cx="960.43" cy="461.09" r="3.2" fill="#1d4ed8"/>
<circle cx="968.27" cy="459.47" r="3.2" fill="#1d4ed8"/>
<circle cx="976.12" cy="458.26" r="3.2" fill="#1d4ed8"/>
<circle cx="983.96" cy="456.24" r="3.2" fill="#1d4ed8"/>
<circle cx="991.80" cy="456.24" r="3.2" fill="#1d4ed8"/>
<circle cx="999.64" cy="454.63" r="3.2" fill="#1d4ed8"/>
<circle cx="1007.48" cy="450.99" r="3.2" fill="#1d4ed8"/>
<circle cx="1015.32" cy="444.53" r="3.2" fill="#1d4ed8"/>
<circle cx="1023.17" cy="444.13" r="3.2" fill="#1d4ed8"/>
<circle cx="1031.01" cy="600.00" r="3.2" fill="#1d4ed8"/>
<circle cx="1038.85" cy="442.11" r="3.2" fill="#1d4ed8"/>
<circle cx="1046.69" cy="440.90" r="3.2" fill="#1d4ed8"/>
<circle cx="1054.53" cy="439.68" r="3.2" fill="#1d4ed8"/>
<circle cx="1062.37" cy="439.28" r="3.2" fill="#1d4ed8"/>
<circle cx="1070.22" cy="438.88" r="3.2" fill="#1d4ed8"/>
<circle cx="1078.06" cy="438.07" r="3.2" fill="#1d4ed8"/>
<circle cx="1085.90" cy="436.86" r="3.2" fill="#1d4ed8"/>
<circle cx="1093.74" cy="436.86" r="3.2" fill="#1d4ed8"/>
<circle cx="1101.58" cy="434.84" r="3.2" fill="#1d4ed8"/>
<circle cx="1109.42" cy="432.42" r="3.2" fill="#1d4ed8"/>
<circle cx="1117.27" cy="429.59" r="3.2" fill="#1d4ed8"/>
<circle cx="1125.11" cy="429.19" r="3.2" fill="#1d4ed8"/>
<circle cx="1132.95" cy="428.78" r="3.2" fill="#1d4ed8"/>
<circle cx="1140.79" cy="427.97" r="3.2" fill="#1d4ed8"/>
<circle cx="1148.63" cy="427.17" r="3.2" fill="#1d4ed8"/>
<circle cx="1156.47" cy="426.36" r="3.2" fill="#1d4ed8"/>
<circle cx="1164.32" cy="426.36" r="3.2" fill="#1d4ed8"/>
<circle cx="1172.16" cy="426.36" r="3.2" fill="#1d4ed8"/>
<circle cx="1180.00" cy="419.90" r="3.2" fill="#1d4ed8"/>
<text x="635" y="695" text-anchor="middle" font-size="14" fill="#111" font-family="sans-serif">Date</text>
<text x="24" y="325" text-anchor="middle" font-size="14" fill="#111" transform="rotate(-90 24,325)" font-family="sans-serif">Passed files</text>
</svg>
