<?xml version="1.0" encoding="UTF-8"?>
<svg xmlns="http://www.w3.org/2000/svg" width="1280" height="720" viewBox="0 0 1280 720">
<rect width="100%" height="100%" fill="#ffffff"/>
<text x="640" y="30" text-anchor="middle" font-size="22" font-family="sans-serif">Roast passed files history</text>
<line x1="90" y1="600" x2="1180" y2="600" stroke="#333" stroke-width="1.5"/>
<line x1="90" y1="50" x2="90" y2="600" stroke="#333" stroke-width="1.5"/>
<line x1="90" y1="600.00" x2="1180" y2="600.00" stroke="#e5e7eb" stroke-width="1"/>
<text x="78" y="605.00" text-anchor="end" font-size="12" fill="#111" font-family="sans-serif">0</text>
<line x1="90" y1="397.79" x2="1180" y2="397.79" stroke="#e5e7eb" stroke-width="1"/>
<text x="78" y="402.79" text-anchor="end" font-size="12" fill="#111" font-family="sans-serif">500</text>
<line x1="90" y1="195.59" x2="1180" y2="195.59" stroke="#e5e7eb" stroke-width="1"/>
<text x="78" y="200.59" text-anchor="end" font-size="12" fill="#111" font-family="sans-serif">1000</text>
<line x1="90.00" y1="600" x2="90.00" y2="606" stroke="#333" stroke-width="1"/>
<text x="90.00" y="624" text-anchor="end" font-size="11" fill="#111" transform="rotate(-40 90.00,624)" font-family="sans-serif">2026-02-12</text>
<line x1="225.80" y1="600" x2="225.80" y2="606" stroke="#333" stroke-width="1"/>
<text x="225.80" y="624" text-anchor="end" font-size="11" fill="#111" transform="rotate(-40 225.80,624)" font-family="sans-serif">2026-02-17</text>
<line x1="361.61" y1="600" x2="361.61" y2="606" stroke="#333" stroke-width="1"/>
<text x="361.61" y="624" text-anchor="end" font-size="11" fill="#111" transform="rotate(-40 361.61,624)" font-family="sans-serif">2026-02-20</text>
<line x1="497.41" y1="600" x2="497.41" y2="606" stroke="#333" stroke-width="1"/>
<text x="497.41" y="624" text-anchor="end" font-size="11" fill="#111" transform="rotate(-40 497.41,624)" font-family="sans-serif">2026-02-24</text>
<line x1="633.21" y1="600" x2="633.21" y2="606" stroke="#333" stroke-width="1"/>
<text x="633.21" y="624" text-anchor="end" font-size="11" fill="#111" transform="rotate(-40 633.21,624)" font-family="sans-serif">2026-02-26</text>
<line x1="769.02" y1="600" x2="769.02" y2="606" stroke="#333" stroke-width="1"/>
<text x="769.02" y="624" text-anchor="end" font-size="11" fill="#111" transform="rotate(-40 769.02,624)" font-family="sans-serif">2026-02-28</text>
<line x1="904.82" y1="600" x2="904.82" y2="606" stroke="#333" stroke-width="1"/>
<text x="904.82" y="624" text-anchor="end" font-size="11" fill="#111" transform="rotate(-40 904.82,624)" font-family="sans-serif">2026-03-06</text>
<line x1="1040.62" y1="600" x2="1040.62" y2="606" stroke="#333" stroke-width="1"/>
<text x="1040.62" y="624" text-anchor="end" font-size="11" fill="#111" transform="rotate(-40 1040.62,624)" font-family="sans-serif">2026-03-06</text>
<line x1="1176.43" y1="600" x2="1176.43" y2="606" stroke="#333" stroke-width="1"/>
<text x="1176.43" y="624" text-anchor="end" font-size="11" fill="#111" transform="rotate(-40 1176.43,624)" font-family="sans-serif">2026-03-11</text>
<line x1="1180.00" y1="600" x2="1180.00" y2="606" stroke="#333" stroke-width="1"/>
<text x="1180.00" y="624" text-anchor="end" font-size="11" fill="#111" transform="rotate(-40 1180.00,624)" font-family="sans-serif">2026-03-11</text>
<line x1="90" y1="75.88" x2="1180" y2="75.88" stroke="#dc2626" stroke-width="1.5" stroke-dasharray="8,4"/>
<text x="1184" y="79.88" font-size="12" fill="#dc2626" font-family="sans-serif">Goal: 1296</text>
<polyline fill="none" stroke="#2563eb" stroke-width="3" points="90.00,540.55 93.57,538.53 97.15,536.91 100.72,534.49 104.30,534.49 107.87,533.27 111.44,532.46 115.02,532.87 118.59,532.06 122.16,532.46 125.74,532.06 129.31,568.46 132.89,568.46 136.46,566.43 140.03,545.00 143.61,545.00 147.18,544.19 150.75,543.79 154.33,543.79 157.90,543.38 161.48,541.76 165.05,541.36 168.62,540.96 172.20,540.96 175.77,539.34 179.34,539.34 182.92,556.73 186.49,556.73 190.07,555.51 193.64,551.07 197.21,538.93 200.79,538.93 204.36,538.93 207.93,538.12 211.51,536.91 215.08,536.91 218.66,536.51 222.23,536.51 225.80,556.73 229.38,556.73 232.95,556.73 236.52,556.73 240.10,535.29 243.67,535.29 247.25,535.29 250.82,535.29 254.39,534.49 257.97,534.08 261.54,533.68 265.11,532.87 268.69,532.06 272.26,532.06 275.84,531.25 279.41,530.85 282.98,530.44 286.56,530.04 290.13,530.04 293.70,529.23 297.28,529.23 300.85,529.23 304.43,528.42 308.00,528.42 311.57,527.61 315.15,527.21 318.72,526.80 322.30,526.40 325.87,525.18 329.44,523.57 333.02,523.57 336.59,523.16 340.16,522.76 343.74,522.35 347.31,521.54 350.89,519.52 354.46,517.50 358.03,517.50 361.61,517.50 365.18,517.50 368.75,517.50 372.33,517.50 375.90,517.10 379.48,516.69 383.05,515.48 386.62,515.07 390.20,514.67 393.77,513.86 397.34,514.26 400.92,512.24 404.49,511.84 408.07,511.84 411.64,511.03 415.21,509.82 418.79,507.79 422.36,506.99 425.93,506.58 429.51,509.41 433.08,509.01 436.66,504.96 440.23,504.56 443.80,504.15 447.38,504.56 450.95,503.75 454.52,503.75 458.10,503.35 461.67,499.30 465.25,496.47 468.82,490.00 472.39,484.34 475.97,481.10 479.54,480.29 483.11,480.70 486.69,460.88 490.26,459.26 493.84,458.05 497.41,456.03 500.98,456.03 504.56,454.41 508.13,450.77 511.70,444.30 515.28,443.90 518.85,600.00 522.43,441.88 526.00,440.66 529.57,439.45 533.15,439.04 536.72,438.64 540.30,437.83 543.87,436.62 547.44,436.62 551.02,434.60 554.59,432.17 558.16,429.34 561.74,428.93 565.31,428.53 568.89,427.72 572.46,426.91 576.03,426.10 579.61,426.10 583.18,426.10 586.75,419.63 590.33,419.23 593.90,418.42 597.48,418.01 601.05,417.61 604.62,417.61 608.20,417.61 611.77,417.21 615.34,417.21 618.92,413.57 622.49,411.95 626.07,412.76 629.64,410.74 633.21,410.74 636.79,410.33 640.36,410.33 643.93,410.33 647.51,409.93 651.08,409.93 654.66,409.93 658.23,409.52 661.80,409.52 665.38,409.12 668.95,409.52 672.52,409.12 676.10,407.50 679.67,407.10 683.25,403.05 686.82,399.82 690.39,400.22 693.97,400.62 697.54,400.62 701.11,399.41 704.69,392.94 708.26,391.32 711.84,389.30 715.41,389.30 718.98,388.49 722.56,375.15 726.13,374.74 729.70,374.74 733.28,374.74 736.85,374.74 740.43,374.34 744.00,374.34 747.57,374.34 751.15,374.34 754.72,374.34 758.30,373.93 761.87,373.12 765.44,372.72 769.02,373.53 772.59,435.81 776.16,372.32 779.74,372.72 783.31,371.91 786.89,371.91 790.46,372.32 794.03,371.10 797.61,369.89 801.18,369.89 804.75,369.89 808.33,369.49 811.90,369.89 815.48,369.08 819.05,368.68 822.62,368.27 826.20,367.87 829.77,367.06 833.34,367.46 836.92,367.06 840.49,366.25 844.07,368.27 847.64,368.68 851.21,368.68 854.79,368.27 858.36,369.08 861.93,367.87 865.51,367.46 869.08,367.06 872.66,360.18 876.23,359.78 879.80,359.38 883.38,356.95 886.95,357.35 890.52,357.76 894.10,355.33 897.67,355.74 901.25,357.35 904.82,355.33 908.39,356.14 911.97,355.74 915.54,356.14 919.11,354.12 922.69,354.93 926.26,356.14 929.84,354.52 933.41,353.71 936.98,354.12 940.56,354.93 944.13,352.90 947.70,353.71 951.28,353.31 954.85,353.31 958.43,354.52 962.00,352.90 965.57,352.50 969.15,352.50 972.72,353.31 976.30,352.50 979.87,353.71 983.44,354.12 987.02,352.50 990.59,352.90 994.16,352.50 997.74,352.10 1001.31,351.69 1004.89,352.10 1008.46,354.12 1012.03,352.50 1015.61,352.10 1019.18,352.10 1022.75,349.67 1026.33,349.67 1029.90,350.88 1033.48,351.29 1037.05,350.48 1040.62,352.10 1044.20,350.48 1047.77,350.48 1051.34,350.48 1054.92,350.07 1058.49,348.46 1062.07,351.29 1065.64,349.67 1069.21,351.29 1072.79,349.67 1076.36,348.86 1079.93,348.46 1083.51,348.46 1087.08,347.24 1090.66,348.86 1094.23,346.84 1097.80,348.46 1101.38,348.86 1104.95,346.84 1108.52,349.26 1112.10,348.05 1115.67,349.26 1119.25,349.26 1122.82,350.48 1126.39,352.90 1129.97,349.67 1133.54,348.46 1137.11,345.62 1140.69,344.82 1144.26,344.41 1147.84,342.39 1151.41,341.18 1154.98,341.58 1158.56,339.15 1162.13,338.35 1165.70,337.54 1169.28,336.73 1172.85,335.92 1176.43,337.54 1180.00,338.35"/>
<circle cx="90.00" cy="540.55" r="3.2" fill="#1d4ed8"/>
<circle cx="93.57" cy="538.53" r="3.2" fill="#1d4ed8"/>
<circle cx="97.15" cy="536.91" r="3.2" fill="#1d4ed8"/>
<circle cx="100.72" cy="534.49" r="3.2" fill="#1d4ed8"/>
<circle cx="104.30" cy="534.49" r="3.2" fill="#1d4ed8"/>
<circle cx="107.87" cy="533.27" r="3.2" fill="#1d4ed8"/>
<circle cx="111.44" cy="532.46" r="3.2" fill="#1d4ed8"/>
<circle cx="115.02" cy="532.87" r="3.2" fill="#1d4ed8"/>
<circle cx="118.59" cy="532.06" r="3.2" fill="#1d4ed8"/>
<circle cx="122.16" cy="532.46" r="3.2" fill="#1d4ed8"/>
<circle cx="125.74" cy="532.06" r="3.2" fill="#1d4ed8"/>
<circle cx="129.31" cy="568.46" r="3.2" fill="#1d4ed8"/>
<circle cx="132.89" cy="568.46" r="3.2" fill="#1d4ed8"/>
<circle cx="136.46" cy="566.43" r="3.2" fill="#1d4ed8"/>
<circle cx="140.03" cy="545.00" r="3.2" fill="#1d4ed8"/>
<circle cx="143.61" cy="545.00" r="3.2" fill="#1d4ed8"/>
<circle cx="147.18" cy="544.19" r="3.2" fill="#1d4ed8"/>
<circle cx="150.75" cy="543.79" r="3.2" fill="#1d4ed8"/>
<circle cx="154.33" cy="543.79" r="3.2" fill="#1d4ed8"/>
<circle cx="157.90" cy="543.38" r="3.2" fill="#1d4ed8"/>
<circle cx="161.48" cy="541.76" r="3.2" fill="#1d4ed8"/>
<circle cx="165.05" cy="541.36" r="3.2" fill="#1d4ed8"/>
<circle cx="168.62" cy="540.96" r="3.2" fill="#1d4ed8"/>
<circle cx="172.20" cy="540.96" r="3.2" fill="#1d4ed8"/>
<circle cx="175.77" cy="539.34" r="3.2" fill="#1d4ed8"/>
<circle cx="179.34" cy="539.34" r="3.2" fill="#1d4ed8"/>
<circle cx="182.92" cy="556.73" r="3.2" fill="#1d4ed8"/>
<circle cx="186.49" cy="556.73" r="3.2" fill="#1d4ed8"/>
<circle cx="190.07" cy="555.51" r="3.2" fill="#1d4ed8"/>
<circle cx="193.64" cy="551.07" r="3.2" fill="#1d4ed8"/>
<circle cx="197.21" cy="538.93" r="3.2" fill="#1d4ed8"/>
<circle cx="200.79" cy="538.93" r="3.2" fill="#1d4ed8"/>
<circle cx="204.36" cy="538.93" r="3.2" fill="#1d4ed8"/>
<circle cx="207.93" cy="538.12" r="3.2" fill="#1d4ed8"/>
<circle cx="211.51" cy="536.91" r="3.2" fill="#1d4ed8"/>
<circle cx="215.08" cy="536.91" r="3.2" fill="#1d4ed8"/>
<circle cx="218.66" cy="536.51" r="3.2" fill="#1d4ed8"/>
<circle cx="222.23" cy="536.51" r="3.2" fill="#1d4ed8"/>
<circle cx="225.80" cy="556.73" r="3.2" fill="#1d4ed8"/>
<circle cx="229.38" cy="556.73" r="3.2" fill="#1d4ed8"/>
<circle cx="232.95" cy="556.73" r="3.2" fill="#1d4ed8"/>
<circle cx="236.52" cy="556.73" r="3.2" fill="#1d4ed8"/>
<circle cx="240.10" cy="535.29" r="3.2" fill="#1d4ed8"/>
<circle cx="243.67" cy="535.29" r="3.2" fill="#1d4ed8"/>
<circle cx="247.25" cy="535.29" r="3.2" fill="#1d4ed8"/>
<circle cx="250.82" cy="535.29" r="3.2" fill="#1d4ed8"/>
<circle cx="254.39" cy="534.49" r="3.2" fill="#1d4ed8"/>
<circle cx="257.97" cy="534.08" r="3.2" fill="#1d4ed8"/>
<circle cx="261.54" cy="533.68" r="3.2" fill="#1d4ed8"/>
<circle cx="265.11" cy="532.87" r="3.2" fill="#1d4ed8"/>
<circle cx="268.69" cy="532.06" r="3.2" fill="#1d4ed8"/>
<circle cx="272.26" cy="532.06" r="3.2" fill="#1d4ed8"/>
<circle cx="275.84" cy="531.25" r="3.2" fill="#1d4ed8"/>
<circle cx="279.41" cy="530.85" r="3.2" fill="#1d4ed8"/>
<circle cx="282.98" cy="530.44" r="3.2" fill="#1d4ed8"/>
<circle cx="286.56" cy="530.04" r="3.2" fill="#1d4ed8"/>
<circle cx="290.13" cy="530.04" r="3.2" fill="#1d4ed8"/>
<circle cx="293.70" cy="529.23" r="3.2" fill="#1d4ed8"/>
<circle cx="297.28" cy="529.23" r="3.2" fill="#1d4ed8"/>
<circle cx="300.85" cy="529.23" r="3.2" fill="#1d4ed8"/>
<circle cx="304.43" cy="528.42" r="3.2" fill="#1d4ed8"/>
<circle cx="308.00" cy="528.42" r="3.2" fill="#1d4ed8"/>
<circle cx="311.57" cy="527.61" r="3.2" fill="#1d4ed8"/>
<circle cx="315.15" cy="527.21" r="3.2" fill="#1d4ed8"/>
<circle cx="318.72" cy="526.80" r="3.2" fill="#1d4ed8"/>
<circle cx="322.30" cy="526.40" r="3.2" fill="#1d4ed8"/>
<circle cx="325.87" cy="525.18" r="3.2" fill="#1d4ed8"/>
<circle cx="329.44" cy="523.57" r="3.2" fill="#1d4ed8"/>
<circle cx="333.02" cy="523.57" r="3.2" fill="#1d4ed8"/>
<circle cx="336.59" cy="523.16" r="3.2" fill="#1d4ed8"/>
<circle cx="340.16" cy="522.76" r="3.2" fill="#1d4ed8"/>
<circle cx="343.74" cy="522.35" r="3.2" fill="#1d4ed8"/>
<circle cx="347.31" cy="521.54" r="3.2" fill="#1d4ed8"/>
<circle cx="350.89" cy="519.52" r="3.2" fill="#1d4ed8"/>
<circle cx="354.46" cy="517.50" r="3.2" fill="#1d4ed8"/>
<circle cx="358.03" cy="517.50" r="3.2" fill="#1d4ed8"/>
<circle cx="361.61" cy="517.50" r="3.2" fill="#1d4ed8"/>
<circle cx="365.18" cy="517.50" r="3.2" fill="#1d4ed8"/>
<circle cx="368.75" cy="517.50" r="3.2" fill="#1d4ed8"/>
<circle cx="372.33" cy="517.50" r="3.2" fill="#1d4ed8"/>
<circle cx="375.90" cy="517.10" r="3.2" fill="#1d4ed8"/>
<circle cx="379.48" cy="516.69" r="3.2" fill="#1d4ed8"/>
<circle cx="383.05" cy="515.48" r="3.2" fill="#1d4ed8"/>
<circle cx="386.62" cy="515.07" r="3.2" fill="#1d4ed8"/>
<circle cx="390.20" cy="514.67" r="3.2" fill="#1d4ed8"/>
<circle cx="393.77" cy="513.86" r="3.2" fill="#1d4ed8"/>
<circle cx="397.34" cy="514.26" r="3.2" fill="#1d4ed8"/>
<circle cx="400.92" cy="512.24" r="3.2" fill="#1d4ed8"/>
<circle cx="404.49" cy="511.84" r="3.2" fill="#1d4ed8"/>
<circle cx="408.07" cy="511.84" r="3.2" fill="#1d4ed8"/>
<circle cx="411.64" cy="511.03" r="3.2" fill="#1d4ed8"/>
<circle cx="415.21" cy="509.82" r="3.2" fill="#1d4ed8"/>
<circle cx="418.79" cy="507.79" r="3.2" fill="#1d4ed8"/>
<circle cx="422.36" cy="506.99" r="3.2" fill="#1d4ed8"/>
<circle cx="425.93" cy="506.58" r="3.2" fill="#1d4ed8"/>
<circle cx="429.51" cy="509.41" r="3.2" fill="#1d4ed8"/>
<circle cx="433.08" cy="509.01" r="3.2" fill="#1d4ed8"/>
<circle cx="436.66" cy="504.96" r="3.2" fill="#1d4ed8"/>
<circle cx="440.23" cy="504.56" r="3.2" fill="#1d4ed8"/>
<circle cx="443.80" cy="504.15" r="3.2" fill="#1d4ed8"/>
<circle cx="447.38" cy="504.56" r="3.2" fill="#1d4ed8"/>
<circle cx="450.95" cy="503.75" r="3.2" fill="#1d4ed8"/>
<circle cx="454.52" cy="503.75" r="3.2" fill="#1d4ed8"/>
<circle cx="458.10" cy="503.35" r="3.2" fill="#1d4ed8"/>
<circle cx="461.67" cy="499.30" r="3.2" fill="#1d4ed8"/>
<circle cx="465.25" cy="496.47" r="3.2" fill="#1d4ed8"/>
<circle cx="468.82" cy="490.00" r="3.2" fill="#1d4ed8"/>
<circle cx="472.39" cy="484.34" r="3.2" fill="#1d4ed8"/>
<circle cx="475.97" cy="481.10" r="3.2" fill="#1d4ed8"/>
<circle cx="479.54" cy="480.29" r="3.2" fill="#1d4ed8"/>
<circle cx="483.11" cy="480.70" r="3.2" fill="#1d4ed8"/>
<circle cx="486.69" cy="460.88" r="3.2" fill="#1d4ed8"/>
<circle cx="490.26" cy="459.26" r="3.2" fill="#1d4ed8"/>
<circle cx="493.84" cy="458.05" r="3.2" fill="#1d4ed8"/>
<circle cx="497.41" cy="456.03" r="3.2" fill="#1d4ed8"/>
<circle cx="500.98" cy="456.03" r="3.2" fill="#1d4ed8"/>
<circle cx="504.56" cy="454.41" r="3.2" fill="#1d4ed8"/>
<circle cx="508.13" cy="450.77" r="3.2" fill="#1d4ed8"/>
<circle cx="511.70" cy="444.30" r="3.2" fill="#1d4ed8"/>
<circle cx="515.28" cy="443.90" r="3.2" fill="#1d4ed8"/>
<circle cx="518.85" cy="600.00" r="3.2" fill="#1d4ed8"/>
<circle cx="522.43" cy="441.88" r="3.2" fill="#1d4ed8"/>
<circle cx="526.00" cy="440.66" r="3.2" fill="#1d4ed8"/>
<circle cx="529.57" cy="439.45" r="3.2" fill="#1d4ed8"/>
<circle cx="533.15" cy="439.04" r="3.2" fill="#1d4ed8"/>
<circle cx="536.72" cy="438.64" r="3.2" fill="#1d4ed8"/>
<circle cx="540.30" cy="437.83" r="3.2" fill="#1d4ed8"/>
<circle cx="543.87" cy="436.62" r="3.2" fill="#1d4ed8"/>
<circle cx="547.44" cy="436.62" r="3.2" fill="#1d4ed8"/>
<circle cx="551.02" cy="434.60" r="3.2" fill="#1d4ed8"/>
<circle cx="554.59" cy="432.17" r="3.2" fill="#1d4ed8"/>
<circle cx="558.16" cy="429.34" r="3.2" fill="#1d4ed8"/>
<circle cx="561.74" cy="428.93" r="3.2" fill="#1d4ed8"/>
<circle cx="565.31" cy="428.53" r="3.2" fill="#1d4ed8"/>
<circle cx="568.89" cy="427.72" r="3.2" fill="#1d4ed8"/>
<circle cx="572.46" cy="426.91" r="3.2" fill="#1d4ed8"/>
<circle cx="576.03" cy="426.10" r="3.2" fill="#1d4ed8"/>
<circle cx="579.61" cy="426.10" r="3.2" fill="#1d4ed8"/>
<circle cx="583.18" cy="426.10" r="3.2" fill="#1d4ed8"/>
<circle cx="586.75" cy="419.63" r="3.2" fill="#1d4ed8"/>
<circle cx="590.33" cy="419.23" r="3.2" fill="#1d4ed8"/>
<circle cx="593.90" cy="418.42" r="3.2" fill="#1d4ed8"/>
<circle cx="597.48" cy="418.01" r="3.2" fill="#1d4ed8"/>
<circle cx="601.05" cy="417.61" r="3.2" fill="#1d4ed8"/>
<circle cx="604.62" cy="417.61" r="3.2" fill="#1d4ed8"/>
<circle cx="608.20" cy="417.61" r="3.2" fill="#1d4ed8"/>
<circle cx="611.77" cy="417.21" r="3.2" fill="#1d4ed8"/>
<circle cx="615.34" cy="417.21" r="3.2" fill="#1d4ed8"/>
<circle cx="618.92" cy="413.57" r="3.2" fill="#1d4ed8"/>
<circle cx="622.49" cy="411.95" r="3.2" fill="#1d4ed8"/>
<circle cx="626.07" cy="412.76" r="3.2" fill="#1d4ed8"/>
<circle cx="629.64" cy="410.74" r="3.2" fill="#1d4ed8"/>
<circle cx="633.21" cy="410.74" r="3.2" fill="#1d4ed8"/>
<circle cx="636.79" cy="410.33" r="3.2" fill="#1d4ed8"/>
<circle cx="640.36" cy="410.33" r="3.2" fill="#1d4ed8"/>
<circle cx="643.93" cy="410.33" r="3.2" fill="#1d4ed8"/>
<circle cx="647.51" cy="409.93" r="3.2" fill="#1d4ed8"/>
<circle cx="651.08" cy="409.93" r="3.2" fill="#1d4ed8"/>
<circle cx="654.66" cy="409.93" r="3.2" fill="#1d4ed8"/>
<circle cx="658.23" cy="409.52" r="3.2" fill="#1d4ed8"/>
<circle cx="661.80" cy="409.52" r="3.2" fill="#1d4ed8"/>
<circle cx="665.38" cy="409.12" r="3.2" fill="#1d4ed8"/>
<circle cx="668.95" cy="409.52" r="3.2" fill="#1d4ed8"/>
<circle cx="672.52" cy="409.12" r="3.2" fill="#1d4ed8"/>
<circle cx="676.10" cy="407.50" r="3.2" fill="#1d4ed8"/>
<circle cx="679.67" cy="407.10" r="3.2" fill="#1d4ed8"/>
<circle cx="683.25" cy="403.05" r="3.2" fill="#1d4ed8"/>
<circle cx="686.82" cy="399.82" r="3.2" fill="#1d4ed8"/>
<circle cx="690.39" cy="400.22" r="3.2" fill="#1d4ed8"/>
<circle cx="693.97" cy="400.62" r="3.2" fill="#1d4ed8"/>
<circle cx="697.54" cy="400.62" r="3.2" fill="#1d4ed8"/>
<circle cx="701.11" cy="399.41" r="3.2" fill="#1d4ed8"/>
<circle cx="704.69" cy="392.94" r="3.2" fill="#1d4ed8"/>
<circle cx="708.26" cy="391.32" r="3.2" fill="#1d4ed8"/>
<circle cx="711.84" cy="389.30" r="3.2" fill="#1d4ed8"/>
<circle cx="715.41" cy="389.30" r="3.2" fill="#1d4ed8"/>
<circle cx="718.98" cy="388.49" r="3.2" fill="#1d4ed8"/>
<circle cx="722.56" cy="375.15" r="3.2" fill="#1d4ed8"/>
<circle cx="726.13" cy="374.74" r="3.2" fill="#1d4ed8"/>
<circle cx="729.70" cy="374.74" r="3.2" fill="#1d4ed8"/>
<circle cx="733.28" cy="374.74" r="3.2" fill="#1d4ed8"/>
<circle cx="736.85" cy="374.74" r="3.2" fill="#1d4ed8"/>
<circle cx="740.43" cy="374.34" r="3.2" fill="#1d4ed8"/>
<circle cx="744.00" cy="374.34" r="3.2" fill="#1d4ed8"/>
<circle cx="747.57" cy="374.34" r="3.2" fill="#1d4ed8"/>
<circle cx="751.15" cy="374.34" r="3.2" fill="#1d4ed8"/>
<circle cx="754.72" cy="374.34" r="3.2" fill="#1d4ed8"/>
<circle cx="758.30" cy="373.93" r="3.2" fill="#1d4ed8"/>
<circle cx="761.87" cy="373.12" r="3.2" fill="#1d4ed8"/>
<circle cx="765.44" cy="372.72" r="3.2" fill="#1d4ed8"/>
<circle cx="769.02" cy="373.53" r="3.2" fill="#1d4ed8"/>
<circle cx="772.59" cy="435.81" r="3.2" fill="#1d4ed8"/>
<circle cx="776.16" cy="372.32" r="3.2" fill="#1d4ed8"/>
<circle cx="779.74" cy="372.72" r="3.2" fill="#1d4ed8"/>
<circle cx="783.31" cy="371.91" r="3.2" fill="#1d4ed8"/>
<circle cx="786.89" cy="371.91" r="3.2" fill="#1d4ed8"/>
<circle cx="790.46" cy="372.32" r="3.2" fill="#1d4ed8"/>
<circle cx="794.03" cy="371.10" r="3.2" fill="#1d4ed8"/>
<circle cx="797.61" cy="369.89" r="3.2" fill="#1d4ed8"/>
<circle cx="801.18" cy="369.89" r="3.2" fill="#1d4ed8"/>
<circle cx="804.75" cy="369.89" r="3.2" fill="#1d4ed8"/>
<circle cx="808.33" cy="369.49" r="3.2" fill="#1d4ed8"/>
<circle cx="811.90" cy="369.89" r="3.2" fill="#1d4ed8"/>
<circle cx="815.48" cy="369.08" r="3.2" fill="#1d4ed8"/>
<circle cx="819.05" cy="368.68" r="3.2" fill="#1d4ed8"/>
<circle cx="822.62" cy="368.27" r="3.2" fill="#1d4ed8"/>
<circle cx="826.20" cy="367.87" r="3.2" fill="#1d4ed8"/>
<circle cx="829.77" cy="367.06" r="3.2" fill="#1d4ed8"/>
<circle cx="833.34" cy="367.46" r="3.2" fill="#1d4ed8"/>
<circle cx="836.92" cy="367.06" r="3.2" fill="#1d4ed8"/>
<circle cx="840.49" cy="366.25" r="3.2" fill="#1d4ed8"/>
<circle cx="844.07" cy="368.27" r="3.2" fill="#1d4ed8"/>
<circle cx="847.64" cy="368.68" r="3.2" fill="#1d4ed8"/>
<circle cx="851.21" cy="368.68" r="3.2" fill="#1d4ed8"/>
<circle cx="854.79" cy="368.27" r="3.2" fill="#1d4ed8"/>
<circle cx="858.36" cy="369.08" r="3.2" fill="#1d4ed8"/>
<circle cx="861.93" cy="367.87" r="3.2" fill="#1d4ed8"/>
<circle cx="865.51" cy="367.46" r="3.2" fill="#1d4ed8"/>
<circle cx="869.08" cy="367.06" r="3.2" fill="#1d4ed8"/>
<circle cx="872.66" cy="360.18" r="3.2" fill="#1d4ed8"/>
<circle cx="876.23" cy="359.78" r="3.2" fill="#1d4ed8"/>
<circle cx="879.80" cy="359.38" r="3.2" fill="#1d4ed8"/>
<circle cx="883.38" cy="356.95" r="3.2" fill="#1d4ed8"/>
<circle cx="886.95" cy="357.35" r="3.2" fill="#1d4ed8"/>
<circle cx="890.52" cy="357.76" r="3.2" fill="#1d4ed8"/>
<circle cx="894.10" cy="355.33" r="3.2" fill="#1d4ed8"/>
<circle cx="897.67" cy="355.74" r="3.2" fill="#1d4ed8"/>
<circle cx="901.25" cy="357.35" r="3.2" fill="#1d4ed8"/>
<circle cx="904.82" cy="355.33" r="3.2" fill="#1d4ed8"/>
<circle cx="908.39" cy="356.14" r="3.2" fill="#1d4ed8"/>
<circle cx="911.97" cy="355.74" r="3.2" fill="#1d4ed8"/>
<circle cx="915.54" cy="356.14" r="3.2" fill="#1d4ed8"/>
<circle cx="919.11" cy="354.12" r="3.2" fill="#1d4ed8"/>
<circle cx="922.69" cy="354.93" r="3.2" fill="#1d4ed8"/>
<circle cx="926.26" cy="356.14" r="3.2" fill="#1d4ed8"/>
<circle cx="929.84" cy="354.52" r="3.2" fill="#1d4ed8"/>
<circle cx="933.41" cy="353.71" r="3.2" fill="#1d4ed8"/>
<circle cx="936.98" cy="354.12" r="3.2" fill="#1d4ed8"/>
<circle cx="940.56" cy="354.93" r="3.2" fill="#1d4ed8"/>
<circle cx="944.13" cy="352.90" r="3.2" fill="#1d4ed8"/>
<circle cx="947.70" cy="353.71" r="3.2" fill="#1d4ed8"/>
<circle cx="951.28" cy="353.31" r="3.2" fill="#1d4ed8"/>
<circle cx="954.85" cy="353.31" r="3.2" fill="#1d4ed8"/>
<circle cx="958.43" cy="354.52" r="3.2" fill="#1d4ed8"/>
<circle cx="962.00" cy="352.90" r="3.2" fill="#1d4ed8"/>
<circle cx="965.57" cy="352.50" r="3.2" fill="#1d4ed8"/>
<circle cx="969.15" cy="352.50" r="3.2" fill="#1d4ed8"/>
<circle cx="972.72" cy="353.31" r="3.2" fill="#1d4ed8"/>
<circle cx="976.30" cy="352.50" r="3.2" fill="#1d4ed8"/>
<circle cx="979.87" cy="353.71" r="3.2" fill="#1d4ed8"/>
<circle cx="983.44" cy="354.12" r="3.2" fill="#1d4ed8"/>
<circle cx="987.02" cy="352.50" r="3.2" fill="#1d4ed8"/>
<circle cx="990.59" cy="352.90" r="3.2" fill="#1d4ed8"/>
<circle cx="994.16" cy="352.50" r="3.2" fill="#1d4ed8"/>
<circle cx="997.74" cy="352.10" r="3.2" fill="#1d4ed8"/>
<circle cx="1001.31" cy="351.69" r="3.2" fill="#1d4ed8"/>
<circle cx="1004.89" cy="352.10" r="3.2" fill="#1d4ed8"/>
<circle cx="1008.46" cy="354.12" r="3.2" fill="#1d4ed8"/>
<circle cx="1012.03" cy="352.50" r="3.2" fill="#1d4ed8"/>
<circle cx="1015.61" cy="352.10" r="3.2" fill="#1d4ed8"/>
<circle cx="1019.18" cy="352.10" r="3.2" fill="#1d4ed8"/>
<circle cx="1022.75" cy="349.67" r="3.2" fill="#1d4ed8"/>
<circle cx="1026.33" cy="349.67" r="3.2" fill="#1d4ed8"/>
<circle cx="1029.90" cy="350.88" r="3.2" fill="#1d4ed8"/>
<circle cx="1033.48" cy="351.29" r="3.2" fill="#1d4ed8"/>
<circle cx="1037.05" cy="350.48" r="3.2" fill="#1d4ed8"/>
<circle cx="1040.62" cy="352.10" r="3.2" fill="#1d4ed8"/>
<circle cx="1044.20" cy="350.48" r="3.2" fill="#1d4ed8"/>
<circle cx="1047.77" cy="350.48" r="3.2" fill="#1d4ed8"/>
<circle cx="1051.34" cy="350.48" r="3.2" fill="#1d4ed8"/>
<circle cx="1054.92" cy="350.07" r="3.2" fill="#1d4ed8"/>
<circle cx="1058.49" cy="348.46" r="3.2" fill="#1d4ed8"/>
<circle cx="1062.07" cy="351.29" r="3.2" fill="#1d4ed8"/>
<circle cx="1065.64" cy="349.67" r="3.2" fill="#1d4ed8"/>
<circle cx="1069.21" cy="351.29" r="3.2" fill="#1d4ed8"/>
<circle cx="1072.79" cy="349.67" r="3.2" fill="#1d4ed8"/>
<circle cx="1076.36" cy="348.86" r="3.2" fill="#1d4ed8"/>
<circle cx="1079.93" cy="348.46" r="3.2" fill="#1d4ed8"/>
<circle cx="1083.51" cy="348.46" r="3.2" fill="#1d4ed8"/>
<circle cx="1087.08" cy="347.24" r="3.2" fill="#1d4ed8"/>
<circle cx="1090.66" cy="348.86" r="3.2" fill="#1d4ed8"/>
<circle cx="1094.23" cy="346.84" r="3.2" fill="#1d4ed8"/>
<circle cx="1097.80" cy="348.46" r="3.2" fill="#1d4ed8"/>
<circle cx="1101.38" cy="348.86" r="3.2" fill="#1d4ed8"/>
<circle cx="1104.95" cy="346.84" r="3.2" fill="#1d4ed8"/>
<circle cx="1108.52" cy="349.26" r="3.2" fill="#1d4ed8"/>
<circle cx="1112.10" cy="348.05" r="3.2" fill="#1d4ed8"/>
<circle cx="1115.67" cy="349.26" r="3.2" fill="#1d4ed8"/>
<circle cx="1119.25" cy="349.26" r="3.2" fill="#1d4ed8"/>
<circle cx="1122.82" cy="350.48" r="3.2" fill="#1d4ed8"/>
<circle cx="1126.39" cy="352.90" r="3.2" fill="#1d4ed8"/>
<circle cx="1129.97" cy="349.67" r="3.2" fill="#1d4ed8"/>
<circle cx="1133.54" cy="348.46" r="3.2" fill="#1d4ed8"/>
<circle cx="1137.11" cy="345.62" r="3.2" fill="#1d4ed8"/>
<circle cx="1140.69" cy="344.82" r="3.2" fill="#1d4ed8"/>
<circle cx="1144.26" cy="344.41" r="3.2" fill="#1d4ed8"/>
<circle cx="1147.84" cy="342.39" r="3.2" fill="#1d4ed8"/>
<circle cx="1151.41" cy="341.18" r="3.2" fill="#1d4ed8"/>
<circle cx="1154.98" cy="341.58" r="3.2" fill="#1d4ed8"/>
<circle cx="1158.56" cy="339.15" r="3.2" fill="#1d4ed8"/>
<circle cx="1162.13" cy="338.35" r="3.2" fill="#1d4ed8"/>
<circle cx="1165.70" cy="337.54" r="3.2" fill="#1d4ed8"/>
<circle cx="1169.28" cy="336.73" r="3.2" fill="#1d4ed8"/>
<circle cx="1172.85" cy="335.92" r="3.2" fill="#1d4ed8"/>
<circle cx="1176.43" cy="337.54" r="3.2" fill="#1d4ed8"/>
<circle cx="1180.00" cy="338.35" r="3.2" fill="#1d4ed8"/>
<text x="635" y="695" text-anchor="middle" font-size="14" fill="#111" font-family="sans-serif">Date</text>
<text x="24" y="325" text-anchor="middle" font-size="14" fill="#111" transform="rotate(-90 24,325)" font-family="sans-serif">Passed files</text>
</svg>
