<?xml version="1.0" encoding="UTF-8"?>
<svg xmlns="http://www.w3.org/2000/svg" width="1280" height="720" viewBox="0 0 1280 720">
<rect width="100%" height="100%" fill="#ffffff"/>
<text x="640" y="30" text-anchor="middle" font-size="22" font-family="sans-serif">Roast passed files history</text>
<line x1="90" y1="600" x2="1180" y2="600" stroke="#333" stroke-width="1.5"/>
<line x1="90" y1="50" x2="90" y2="600" stroke="#333" stroke-width="1.5"/>
<line x1="90" y1="600.00" x2="1180" y2="600.00" stroke="#e5e7eb" stroke-width="1"/>
<text x="78" y="605.00" text-anchor="end" font-size="12" fill="#111" font-family="sans-serif">0</text>
<line x1="90" y1="397.79" x2="1180" y2="397.79" stroke="#e5e7eb" stroke-width="1"/>
<text x="78" y="402.79" text-anchor="end" font-size="12" fill="#111" font-family="sans-serif">500</text>
<line x1="90" y1="195.59" x2="1180" y2="195.59" stroke="#e5e7eb" stroke-width="1"/>
<text x="78" y="200.59" text-anchor="end" font-size="12" fill="#111" font-family="sans-serif">1000</text>
<line x1="90.00" y1="600" x2="90.00" y2="606" stroke="#333" stroke-width="1"/>
<text x="90.00" y="624" text-anchor="end" font-size="11" fill="#111" transform="rotate(-40 90.00,624)" font-family="sans-serif">2026-02-12</text>
<line x1="226.63" y1="600" x2="226.63" y2="606" stroke="#333" stroke-width="1"/>
<text x="226.63" y="624" text-anchor="end" font-size="11" fill="#111" transform="rotate(-40 226.63,624)" font-family="sans-serif">2026-02-17</text>
<line x1="363.26" y1="600" x2="363.26" y2="606" stroke="#333" stroke-width="1"/>
<text x="363.26" y="624" text-anchor="end" font-size="11" fill="#111" transform="rotate(-40 363.26,624)" font-family="sans-serif">2026-02-21</text>
<line x1="499.89" y1="600" x2="499.89" y2="606" stroke="#333" stroke-width="1"/>
<text x="499.89" y="624" text-anchor="end" font-size="11" fill="#111" transform="rotate(-40 499.89,624)" font-family="sans-serif">2026-02-25</text>
<line x1="636.52" y1="600" x2="636.52" y2="606" stroke="#333" stroke-width="1"/>
<text x="636.52" y="624" text-anchor="end" font-size="11" fill="#111" transform="rotate(-40 636.52,624)" font-family="sans-serif">2026-02-28</text>
<line x1="773.15" y1="600" x2="773.15" y2="606" stroke="#333" stroke-width="1"/>
<text x="773.15" y="624" text-anchor="end" font-size="11" fill="#111" transform="rotate(-40 773.15,624)" font-family="sans-serif">2026-03-06</text>
<line x1="909.78" y1="600" x2="909.78" y2="606" stroke="#333" stroke-width="1"/>
<text x="909.78" y="624" text-anchor="end" font-size="11" fill="#111" transform="rotate(-40 909.78,624)" font-family="sans-serif">2026-03-06</text>
<line x1="1046.41" y1="600" x2="1046.41" y2="606" stroke="#333" stroke-width="1"/>
<text x="1046.41" y="624" text-anchor="end" font-size="11" fill="#111" transform="rotate(-40 1046.41,624)" font-family="sans-serif">2026-03-11</text>
<line x1="1180.00" y1="600" x2="1180.00" y2="606" stroke="#333" stroke-width="1"/>
<text x="1180.00" y="624" text-anchor="end" font-size="11" fill="#111" transform="rotate(-40 1180.00,624)" font-family="sans-serif">2026-03-18</text>
<line x1="90" y1="75.88" x2="1180" y2="75.88" stroke="#dc2626" stroke-width="1.5" stroke-dasharray="8,4"/>
<text x="1184" y="79.88" font-size="12" fill="#dc2626" font-family="sans-serif">Goal: 1296</text>
<polyline fill="none" stroke="#2563eb" stroke-width="3" points="90.00,540.55 93.04,538.53 96.07,536.91 99.11,534.49 102.14,534.49 105.18,533.27 108.22,532.46 111.25,532.87 114.29,532.06 117.33,532.46 120.36,532.06 123.40,568.46 126.43,568.46 129.47,566.43 132.51,545.00 135.54,545.00 138.58,544.19 141.62,543.79 144.65,543.79 147.69,543.38 150.72,541.76 153.76,541.36 156.80,540.96 159.83,540.96 162.87,539.34 165.91,539.34 168.94,556.73 171.98,556.73 175.01,555.51 178.05,551.07 181.09,538.93 184.12,538.93 187.16,538.93 190.19,538.12 193.23,536.91 196.27,536.91 199.30,536.51 202.34,536.51 205.38,556.73 208.41,556.73 211.45,556.73 214.48,556.73 217.52,535.29 220.56,535.29 223.59,535.29 226.63,535.29 229.67,534.49 232.70,534.08 235.74,533.68 238.77,532.87 241.81,532.06 244.85,532.06 247.88,531.25 250.92,530.85 253.96,530.44 256.99,530.04 260.03,530.04 263.06,529.23 266.10,529.23 269.14,529.23 272.17,528.42 275.21,528.42 278.25,527.61 281.28,527.21 284.32,526.80 287.35,526.40 290.39,525.18 293.43,523.57 296.46,523.57 299.50,523.16 302.53,522.76 305.57,522.35 308.61,521.54 311.64,519.52 314.68,517.50 317.72,517.50 320.75,517.50 323.79,517.50 326.82,517.50 329.86,517.50 332.90,517.10 335.93,516.69 338.97,515.48 342.01,515.07 345.04,514.67 348.08,513.86 351.11,514.26 354.15,512.24 357.19,511.84 360.22,511.84 363.26,511.03 366.30,509.82 369.33,507.79 372.37,506.99 375.40,506.58 378.44,509.41 381.48,509.01 384.51,504.96 387.55,504.56 390.58,504.15 393.62,504.56 396.66,503.75 399.69,503.75 402.73,503.35 405.77,499.30 408.80,496.47 411.84,490.00 414.87,484.34 417.91,481.10 420.95,480.29 423.98,480.70 427.02,460.88 430.06,459.26 433.09,458.05 436.13,456.03 439.16,456.03 442.20,454.41 445.24,450.77 448.27,444.30 451.31,443.90 454.35,600.00 457.38,441.88 460.42,440.66 463.45,439.45 466.49,439.04 469.53,438.64 472.56,437.83 475.60,436.62 478.64,436.62 481.67,434.60 484.71,432.17 487.74,429.34 490.78,428.93 493.82,428.53 496.85,427.72 499.89,426.91 502.92,426.10 505.96,426.10 509.00,426.10 512.03,419.63 515.07,419.23 518.11,418.42 521.14,418.01 524.18,417.61 527.21,417.61 530.25,417.61 533.29,417.21 536.32,417.21 539.36,413.57 542.40,411.95 545.43,412.76 548.47,410.74 551.50,410.74 554.54,410.33 557.58,410.33 560.61,410.33 563.65,409.93 566.69,409.93 569.72,409.93 572.76,409.52 575.79,409.52 578.83,409.12 581.87,409.52 584.90,409.12 587.94,407.50 590.97,407.10 594.01,403.05 597.05,399.82 600.08,400.22 603.12,400.62 606.16,400.62 609.19,399.41 612.23,392.94 615.26,391.32 618.30,389.30 621.34,389.30 624.37,388.49 627.41,375.15 630.45,374.74 633.48,374.74 636.52,374.74 639.55,374.74 642.59,374.34 645.63,374.34 648.66,374.34 651.70,374.34 654.74,374.34 657.77,373.93 660.81,373.12 663.84,372.72 666.88,373.53 669.92,435.81 672.95,372.32 675.99,372.72 679.03,371.91 682.06,371.91 685.10,372.32 688.13,371.10 691.17,369.89 694.21,369.89 697.24,369.89 700.28,369.49 703.31,369.89 706.35,369.08 709.39,368.68 712.42,368.27 715.46,367.87 718.50,367.06 721.53,367.46 724.57,367.06 727.60,366.25 730.64,368.27 733.68,368.68 736.71,368.68 739.75,368.27 742.79,369.08 745.82,367.87 748.86,367.46 751.89,367.06 754.93,360.18 757.97,359.78 761.00,359.38 764.04,356.95 767.08,357.35 770.11,357.76 773.15,355.33 776.18,355.74 779.22,357.35 782.26,355.33 785.29,356.14 788.33,355.74 791.36,356.14 794.40,354.12 797.44,354.93 800.47,356.14 803.51,354.52 806.55,353.71 809.58,354.12 812.62,354.93 815.65,352.90 818.69,353.71 821.73,353.31 824.76,353.31 827.80,354.52 830.84,352.90 833.87,352.50 836.91,352.50 839.94,353.31 842.98,352.50 846.02,353.71 849.05,354.12 852.09,352.50 855.13,352.90 858.16,352.50 861.20,352.10 864.23,351.69 867.27,352.10 870.31,354.12 873.34,352.50 876.38,352.10 879.42,352.10 882.45,349.67 885.49,349.67 888.52,350.88 891.56,351.29 894.60,350.48 897.63,352.10 900.67,350.48 903.70,350.48 906.74,350.48 909.78,350.07 912.81,348.46 915.85,351.29 918.89,349.67 921.92,351.29 924.96,349.67 927.99,348.86 931.03,348.46 934.07,348.46 937.10,347.24 940.14,348.86 943.18,346.84 946.21,348.46 949.25,348.86 952.28,346.84 955.32,349.26 958.36,348.05 961.39,349.26 964.43,349.26 967.47,350.48 970.50,352.90 973.54,349.67 976.57,348.46 979.61,345.62 982.65,344.82 985.68,344.41 988.72,342.39 991.75,341.18 994.79,341.58 997.83,339.15 1000.86,338.35 1003.90,337.54 1006.94,336.73 1009.97,335.92 1013.01,337.54 1016.04,338.35 1019.08,337.54 1022.12,337.54 1025.15,337.54 1028.19,333.09 1031.23,333.90 1034.26,335.92 1037.30,336.73 1040.33,335.51 1043.37,332.28 1046.41,331.47 1049.44,331.07 1052.48,331.47 1055.52,331.07 1058.55,331.07 1061.59,331.07 1064.62,331.07 1067.66,331.07 1070.70,331.07 1073.73,331.07 1076.77,331.07 1079.81,331.07 1082.84,331.07 1085.88,331.47 1088.91,331.88 1091.95,331.07 1094.99,331.47 1098.02,331.07 1101.06,331.47 1104.09,331.07 1107.13,324.19 1110.17,324.19 1113.20,318.93 1116.24,316.51 1119.28,310.44 1122.31,308.01 1125.35,600.00 1128.38,301.54 1131.42,290.22 1134.46,287.79 1137.49,286.18 1140.53,285.77 1143.57,285.77 1146.60,285.77 1149.64,286.18 1152.67,285.77 1155.71,285.77 1158.75,285.77 1161.78,283.35 1164.82,282.94 1167.86,282.94 1170.89,283.35 1173.93,282.94 1176.96,282.94 1180.00,283.75"/>
<circle cx="90.00" cy="540.55" r="3.2" fill="#1d4ed8"/>
<circle cx="93.04" cy="538.53" r="3.2" fill="#1d4ed8"/>
<circle cx="96.07" cy="536.91" r="3.2" fill="#1d4ed8"/>
<circle cx="99.11" cy="534.49" r="3.2" fill="#1d4ed8"/>
<circle cx="102.14" cy="534.49" r="3.2" fill="#1d4ed8"/>
<circle cx="105.18" cy="533.27" r="3.2" fill="#1d4ed8"/>
<circle cx="108.22" cy="532.46" r="3.2" fill="#1d4ed8"/>
<circle cx="111.25" cy="532.87" r="3.2" fill="#1d4ed8"/>
<circle cx="114.29" cy="532.06" r="3.2" fill="#1d4ed8"/>
<circle cx="117.33" cy="532.46" r="3.2" fill="#1d4ed8"/>
<circle cx="120.36" cy="532.06" r="3.2" fill="#1d4ed8"/>
<circle cx="123.40" cy="568.46" r="3.2" fill="#1d4ed8"/>
<circle cx="126.43" cy="568.46" r="3.2" fill="#1d4ed8"/>
<circle cx="129.47" cy="566.43" r="3.2" fill="#1d4ed8"/>
<circle cx="132.51" cy="545.00" r="3.2" fill="#1d4ed8"/>
<circle cx="135.54" cy="545.00" r="3.2" fill="#1d4ed8"/>
<circle cx="138.58" cy="544.19" r="3.2" fill="#1d4ed8"/>
<circle cx="141.62" cy="543.79" r="3.2" fill="#1d4ed8"/>
<circle cx="144.65" cy="543.79" r="3.2" fill="#1d4ed8"/>
<circle cx="147.69" cy="543.38" r="3.2" fill="#1d4ed8"/>
<circle cx="150.72" cy="541.76" r="3.2" fill="#1d4ed8"/>
<circle cx="153.76" cy="541.36" r="3.2" fill="#1d4ed8"/>
<circle cx="156.80" cy="540.96" r="3.2" fill="#1d4ed8"/>
<circle cx="159.83" cy="540.96" r="3.2" fill="#1d4ed8"/>
<circle cx="162.87" cy="539.34" r="3.2" fill="#1d4ed8"/>
<circle cx="165.91" cy="539.34" r="3.2" fill="#1d4ed8"/>
<circle cx="168.94" cy="556.73" r="3.2" fill="#1d4ed8"/>
<circle cx="171.98" cy="556.73" r="3.2" fill="#1d4ed8"/>
<circle cx="175.01" cy="555.51" r="3.2" fill="#1d4ed8"/>
<circle cx="178.05" cy="551.07" r="3.2" fill="#1d4ed8"/>
<circle cx="181.09" cy="538.93" r="3.2" fill="#1d4ed8"/>
<circle cx="184.12" cy="538.93" r="3.2" fill="#1d4ed8"/>
<circle cx="187.16" cy="538.93" r="3.2" fill="#1d4ed8"/>
<circle cx="190.19" cy="538.12" r="3.2" fill="#1d4ed8"/>
<circle cx="193.23" cy="536.91" r="3.2" fill="#1d4ed8"/>
<circle cx="196.27" cy="536.91" r="3.2" fill="#1d4ed8"/>
<circle cx="199.30" cy="536.51" r="3.2" fill="#1d4ed8"/>
<circle cx="202.34" cy="536.51" r="3.2" fill="#1d4ed8"/>
<circle cx="205.38" cy="556.73" r="3.2" fill="#1d4ed8"/>
<circle cx="208.41" cy="556.73" r="3.2" fill="#1d4ed8"/>
<circle cx="211.45" cy="556.73" r="3.2" fill="#1d4ed8"/>
<circle cx="214.48" cy="556.73" r="3.2" fill="#1d4ed8"/>
<circle cx="217.52" cy="535.29" r="3.2" fill="#1d4ed8"/>
<circle cx="220.56" cy="535.29" r="3.2" fill="#1d4ed8"/>
<circle cx="223.59" cy="535.29" r="3.2" fill="#1d4ed8"/>
<circle cx="226.63" cy="535.29" r="3.2" fill="#1d4ed8"/>
<circle cx="229.67" cy="534.49" r="3.2" fill="#1d4ed8"/>
<circle cx="232.70" cy="534.08" r="3.2" fill="#1d4ed8"/>
<circle cx="235.74" cy="533.68" r="3.2" fill="#1d4ed8"/>
<circle cx="238.77" cy="532.87" r="3.2" fill="#1d4ed8"/>
<circle cx="241.81" cy="532.06" r="3.2" fill="#1d4ed8"/>
<circle cx="244.85" cy="532.06" r="3.2" fill="#1d4ed8"/>
<circle cx="247.88" cy="531.25" r="3.2" fill="#1d4ed8"/>
<circle cx="250.92" cy="530.85" r="3.2" fill="#1d4ed8"/>
<circle cx="253.96" cy="530.44" r="3.2" fill="#1d4ed8"/>
<circle cx="256.99" cy="530.04" r="3.2" fill="#1d4ed8"/>
<circle cx="260.03" cy="530.04" r="3.2" fill="#1d4ed8"/>
<circle cx="263.06" cy="529.23" r="3.2" fill="#1d4ed8"/>
<circle cx="266.10" cy="529.23" r="3.2" fill="#1d4ed8"/>
<circle cx="269.14" cy="529.23" r="3.2" fill="#1d4ed8"/>
<circle cx="272.17" cy="528.42" r="3.2" fill="#1d4ed8"/>
<circle cx="275.21" cy="528.42" r="3.2" fill="#1d4ed8"/>
<circle cx="278.25" cy="527.61" r="3.2" fill="#1d4ed8"/>
<circle cx="281.28" cy="527.21" r="3.2" fill="#1d4ed8"/>
<circle cx="284.32" cy="526.80" r="3.2" fill="#1d4ed8"/>
<circle cx="287.35" cy="526.40" r="3.2" fill="#1d4ed8"/>
<circle cx="290.39" cy="525.18" r="3.2" fill="#1d4ed8"/>
<circle cx="293.43" cy="523.57" r="3.2" fill="#1d4ed8"/>
<circle cx="296.46" cy="523.57" r="3.2" fill="#1d4ed8"/>
<circle cx="299.50" cy="523.16" r="3.2" fill="#1d4ed8"/>
<circle cx="302.53" cy="522.76" r="3.2" fill="#1d4ed8"/>
<circle cx="305.57" cy="522.35" r="3.2" fill="#1d4ed8"/>
<circle cx="308.61" cy="521.54" r="3.2" fill="#1d4ed8"/>
<circle cx="311.64" cy="519.52" r="3.2" fill="#1d4ed8"/>
<circle cx="314.68" cy="517.50" r="3.2" fill="#1d4ed8"/>
<circle cx="317.72" cy="517.50" r="3.2" fill="#1d4ed8"/>
<circle cx="320.75" cy="517.50" r="3.2" fill="#1d4ed8"/>
<circle cx="323.79" cy="517.50" r="3.2" fill="#1d4ed8"/>
<circle cx="326.82" cy="517.50" r="3.2" fill="#1d4ed8"/>
<circle cx="329.86" cy="517.50" r="3.2" fill="#1d4ed8"/>
<circle cx="332.90" cy="517.10" r="3.2" fill="#1d4ed8"/>
<circle cx="335.93" cy="516.69" r="3.2" fill="#1d4ed8"/>
<circle cx="338.97" cy="515.48" r="3.2" fill="#1d4ed8"/>
<circle cx="342.01" cy="515.07" r="3.2" fill="#1d4ed8"/>
<circle cx="345.04" cy="514.67" r="3.2" fill="#1d4ed8"/>
<circle cx="348.08" cy="513.86" r="3.2" fill="#1d4ed8"/>
<circle cx="351.11" cy="514.26" r="3.2" fill="#1d4ed8"/>
<circle cx="354.15" cy="512.24" r="3.2" fill="#1d4ed8"/>
<circle cx="357.19" cy="511.84" r="3.2" fill="#1d4ed8"/>
<circle cx="360.22" cy="511.84" r="3.2" fill="#1d4ed8"/>
<circle cx="363.26" cy="511.03" r="3.2" fill="#1d4ed8"/>
<circle cx="366.30" cy="509.82" r="3.2" fill="#1d4ed8"/>
<circle cx="369.33" cy="507.79" r="3.2" fill="#1d4ed8"/>
<circle cx="372.37" cy="506.99" r="3.2" fill="#1d4ed8"/>
<circle cx="375.40" cy="506.58" r="3.2" fill="#1d4ed8"/>
<circle cx="378.44" cy="509.41" r="3.2" fill="#1d4ed8"/>
<circle cx="381.48" cy="509.01" r="3.2" fill="#1d4ed8"/>
<circle cx="384.51" cy="504.96" r="3.2" fill="#1d4ed8"/>
<circle cx="387.55" cy="504.56" r="3.2" fill="#1d4ed8"/>
<circle cx="390.58" cy="504.15" r="3.2" fill="#1d4ed8"/>
<circle cx="393.62" cy="504.56" r="3.2" fill="#1d4ed8"/>
<circle cx="396.66" cy="503.75" r="3.2" fill="#1d4ed8"/>
<circle cx="399.69" cy="503.75" r="3.2" fill="#1d4ed8"/>
<circle cx="402.73" cy="503.35" r="3.2" fill="#1d4ed8"/>
<circle cx="405.77" cy="499.30" r="3.2" fill="#1d4ed8"/>
<circle cx="408.80" cy="496.47" r="3.2" fill="#1d4ed8"/>
<circle cx="411.84" cy="490.00" r="3.2" fill="#1d4ed8"/>
<circle cx="414.87" cy="484.34" r="3.2" fill="#1d4ed8"/>
<circle cx="417.91" cy="481.10" r="3.2" fill="#1d4ed8"/>
<circle cx="420.95" cy="480.29" r="3.2" fill="#1d4ed8"/>
<circle cx="423.98" cy="480.70" r="3.2" fill="#1d4ed8"/>
<circle cx="427.02" cy="460.88" r="3.2" fill="#1d4ed8"/>
<circle cx="430.06" cy="459.26" r="3.2" fill="#1d4ed8"/>
<circle cx="433.09" cy="458.05" r="3.2" fill="#1d4ed8"/>
<circle cx="436.13" cy="456.03" r="3.2" fill="#1d4ed8"/>
<circle cx="439.16" cy="456.03" r="3.2" fill="#1d4ed8"/>
<circle cx="442.20" cy="454.41" r="3.2" fill="#1d4ed8"/>
<circle cx="445.24" cy="450.77" r="3.2" fill="#1d4ed8"/>
<circle cx="448.27" cy="444.30" r="3.2" fill="#1d4ed8"/>
<circle cx="451.31" cy="443.90" r="3.2" fill="#1d4ed8"/>
<circle cx="454.35" cy="600.00" r="3.2" fill="#1d4ed8"/>
<circle cx="457.38" cy="441.88" r="3.2" fill="#1d4ed8"/>
<circle cx="460.42" cy="440.66" r="3.2" fill="#1d4ed8"/>
<circle cx="463.45" cy="439.45" r="3.2" fill="#1d4ed8"/>
<circle cx="466.49" cy="439.04" r="3.2" fill="#1d4ed8"/>
<circle cx="469.53" cy="438.64" r="3.2" fill="#1d4ed8"/>
<circle cx="472.56" cy="437.83" r="3.2" fill="#1d4ed8"/>
<circle cx="475.60" cy="436.62" r="3.2" fill="#1d4ed8"/>
<circle cx="478.64" cy="436.62" r="3.2" fill="#1d4ed8"/>
<circle cx="481.67" cy="434.60" r="3.2" fill="#1d4ed8"/>
<circle cx="484.71" cy="432.17" r="3.2" fill="#1d4ed8"/>
<circle cx="487.74" cy="429.34" r="3.2" fill="#1d4ed8"/>
<circle cx="490.78" cy="428.93" r="3.2" fill="#1d4ed8"/>
<circle cx="493.82" cy="428.53" r="3.2" fill="#1d4ed8"/>
<circle cx="496.85" cy="427.72" r="3.2" fill="#1d4ed8"/>
<circle cx="499.89" cy="426.91" r="3.2" fill="#1d4ed8"/>
<circle cx="502.92" cy="426.10" r="3.2" fill="#1d4ed8"/>
<circle cx="505.96" cy="426.10" r="3.2" fill="#1d4ed8"/>
<circle cx="509.00" cy="426.10" r="3.2" fill="#1d4ed8"/>
<circle cx="512.03" cy="419.63" r="3.2" fill="#1d4ed8"/>
<circle cx="515.07" cy="419.23" r="3.2" fill="#1d4ed8"/>
<circle cx="518.11" cy="418.42" r="3.2" fill="#1d4ed8"/>
<circle cx="521.14" cy="418.01" r="3.2" fill="#1d4ed8"/>
<circle cx="524.18" cy="417.61" r="3.2" fill="#1d4ed8"/>
<circle cx="527.21" cy="417.61" r="3.2" fill="#1d4ed8"/>
<circle cx="530.25" cy="417.61" r="3.2" fill="#1d4ed8"/>
<circle cx="533.29" cy="417.21" r="3.2" fill="#1d4ed8"/>
<circle cx="536.32" cy="417.21" r="3.2" fill="#1d4ed8"/>
<circle cx="539.36" cy="413.57" r="3.2" fill="#1d4ed8"/>
<circle cx="542.40" cy="411.95" r="3.2" fill="#1d4ed8"/>
<circle cx="545.43" cy="412.76" r="3.2" fill="#1d4ed8"/>
<circle cx="548.47" cy="410.74" r="3.2" fill="#1d4ed8"/>
<circle cx="551.50" cy="410.74" r="3.2" fill="#1d4ed8"/>
<circle cx="554.54" cy="410.33" r="3.2" fill="#1d4ed8"/>
<circle cx="557.58" cy="410.33" r="3.2" fill="#1d4ed8"/>
<circle cx="560.61" cy="410.33" r="3.2" fill="#1d4ed8"/>
<circle cx="563.65" cy="409.93" r="3.2" fill="#1d4ed8"/>
<circle cx="566.69" cy="409.93" r="3.2" fill="#1d4ed8"/>
<circle cx="569.72" cy="409.93" r="3.2" fill="#1d4ed8"/>
<circle cx="572.76" cy="409.52" r="3.2" fill="#1d4ed8"/>
<circle cx="575.79" cy="409.52" r="3.2" fill="#1d4ed8"/>
<circle cx="578.83" cy="409.12" r="3.2" fill="#1d4ed8"/>
<circle cx="581.87" cy="409.52" r="3.2" fill="#1d4ed8"/>
<circle cx="584.90" cy="409.12" r="3.2" fill="#1d4ed8"/>
<circle cx="587.94" cy="407.50" r="3.2" fill="#1d4ed8"/>
<circle cx="590.97" cy="407.10" r="3.2" fill="#1d4ed8"/>
<circle cx="594.01" cy="403.05" r="3.2" fill="#1d4ed8"/>
<circle cx="597.05" cy="399.82" r="3.2" fill="#1d4ed8"/>
<circle cx="600.08" cy="400.22" r="3.2" fill="#1d4ed8"/>
<circle cx="603.12" cy="400.62" r="3.2" fill="#1d4ed8"/>
<circle cx="606.16" cy="400.62" r="3.2" fill="#1d4ed8"/>
<circle cx="609.19" cy="399.41" r="3.2" fill="#1d4ed8"/>
<circle cx="612.23" cy="392.94" r="3.2" fill="#1d4ed8"/>
<circle cx="615.26" cy="391.32" r="3.2" fill="#1d4ed8"/>
<circle cx="618.30" cy="389.30" r="3.2" fill="#1d4ed8"/>
<circle cx="621.34" cy="389.30" r="3.2" fill="#1d4ed8"/>
<circle cx="624.37" cy="388.49" r="3.2" fill="#1d4ed8"/>
<circle cx="627.41" cy="375.15" r="3.2" fill="#1d4ed8"/>
<circle cx="630.45" cy="374.74" r="3.2" fill="#1d4ed8"/>
<circle cx="633.48" cy="374.74" r="3.2" fill="#1d4ed8"/>
<circle cx="636.52" cy="374.74" r="3.2" fill="#1d4ed8"/>
<circle cx="639.55" cy="374.74" r="3.2" fill="#1d4ed8"/>
<circle cx="642.59" cy="374.34" r="3.2" fill="#1d4ed8"/>
<circle cx="645.63" cy="374.34" r="3.2" fill="#1d4ed8"/>
<circle cx="648.66" cy="374.34" r="3.2" fill="#1d4ed8"/>
<circle cx="651.70" cy="374.34" r="3.2" fill="#1d4ed8"/>
<circle cx="654.74" cy="374.34" r="3.2" fill="#1d4ed8"/>
<circle cx="657.77" cy="373.93" r="3.2" fill="#1d4ed8"/>
<circle cx="660.81" cy="373.12" r="3.2" fill="#1d4ed8"/>
<circle cx="663.84" cy="372.72" r="3.2" fill="#1d4ed8"/>
<circle cx="666.88" cy="373.53" r="3.2" fill="#1d4ed8"/>
<circle cx="669.92" cy="435.81" r="3.2" fill="#1d4ed8"/>
<circle cx="672.95" cy="372.32" r="3.2" fill="#1d4ed8"/>
<circle cx="675.99" cy="372.72" r="3.2" fill="#1d4ed8"/>
<circle cx="679.03" cy="371.91" r="3.2" fill="#1d4ed8"/>
<circle cx="682.06" cy="371.91" r="3.2" fill="#1d4ed8"/>
<circle cx="685.10" cy="372.32" r="3.2" fill="#1d4ed8"/>
<circle cx="688.13" cy="371.10" r="3.2" fill="#1d4ed8"/>
<circle cx="691.17" cy="369.89" r="3.2" fill="#1d4ed8"/>
<circle cx="694.21" cy="369.89" r="3.2" fill="#1d4ed8"/>
<circle cx="697.24" cy="369.89" r="3.2" fill="#1d4ed8"/>
<circle cx="700.28" cy="369.49" r="3.2" fill="#1d4ed8"/>
<circle cx="703.31" cy="369.89" r="3.2" fill="#1d4ed8"/>
<circle cx="706.35" cy="369.08" r="3.2" fill="#1d4ed8"/>
<circle cx="709.39" cy="368.68" r="3.2" fill="#1d4ed8"/>
<circle cx="712.42" cy="368.27" r="3.2" fill="#1d4ed8"/>
<circle cx="715.46" cy="367.87" r="3.2" fill="#1d4ed8"/>
<circle cx="718.50" cy="367.06" r="3.2" fill="#1d4ed8"/>
<circle cx="721.53" cy="367.46" r="3.2" fill="#1d4ed8"/>
<circle cx="724.57" cy="367.06" r="3.2" fill="#1d4ed8"/>
<circle cx="727.60" cy="366.25" r="3.2" fill="#1d4ed8"/>
<circle cx="730.64" cy="368.27" r="3.2" fill="#1d4ed8"/>
<circle cx="733.68" cy="368.68" r="3.2" fill="#1d4ed8"/>
<circle cx="736.71" cy="368.68" r="3.2" fill="#1d4ed8"/>
<circle cx="739.75" cy="368.27" r="3.2" fill="#1d4ed8"/>
<circle cx="742.79" cy="369.08" r="3.2" fill="#1d4ed8"/>
<circle cx="745.82" cy="367.87" r="3.2" fill="#1d4ed8"/>
<circle cx="748.86" cy="367.46" r="3.2" fill="#1d4ed8"/>
<circle cx="751.89" cy="367.06" r="3.2" fill="#1d4ed8"/>
<circle cx="754.93" cy="360.18" r="3.2" fill="#1d4ed8"/>
<circle cx="757.97" cy="359.78" r="3.2" fill="#1d4ed8"/>
<circle cx="761.00" cy="359.38" r="3.2" fill="#1d4ed8"/>
<circle cx="764.04" cy="356.95" r="3.2" fill="#1d4ed8"/>
<circle cx="767.08" cy="357.35" r="3.2" fill="#1d4ed8"/>
<circle cx="770.11" cy="357.76" r="3.2" fill="#1d4ed8"/>
<circle cx="773.15" cy="355.33" r="3.2" fill="#1d4ed8"/>
<circle cx="776.18" cy="355.74" r="3.2" fill="#1d4ed8"/>
<circle cx="779.22" cy="357.35" r="3.2" fill="#1d4ed8"/>
<circle cx="782.26" cy="355.33" r="3.2" fill="#1d4ed8"/>
<circle cx="785.29" cy="356.14" r="3.2" fill="#1d4ed8"/>
<circle cx="788.33" cy="355.74" r="3.2" fill="#1d4ed8"/>
<circle cx="791.36" cy="356.14" r="3.2" fill="#1d4ed8"/>
<circle cx="794.40" cy="354.12" r="3.2" fill="#1d4ed8"/>
<circle cx="797.44" cy="354.93" r="3.2" fill="#1d4ed8"/>
<circle cx="800.47" cy="356.14" r="3.2" fill="#1d4ed8"/>
<circle cx="803.51" cy="354.52" r="3.2" fill="#1d4ed8"/>
<circle cx="806.55" cy="353.71" r="3.2" fill="#1d4ed8"/>
<circle cx="809.58" cy="354.12" r="3.2" fill="#1d4ed8"/>
<circle cx="812.62" cy="354.93" r="3.2" fill="#1d4ed8"/>
<circle cx="815.65" cy="352.90" r="3.2" fill="#1d4ed8"/>
<circle cx="818.69" cy="353.71" r="3.2" fill="#1d4ed8"/>
<circle cx="821.73" cy="353.31" r="3.2" fill="#1d4ed8"/>
<circle cx="824.76" cy="353.31" r="3.2" fill="#1d4ed8"/>
<circle cx="827.80" cy="354.52" r="3.2" fill="#1d4ed8"/>
<circle cx="830.84" cy="352.90" r="3.2" fill="#1d4ed8"/>
<circle cx="833.87" cy="352.50" r="3.2" fill="#1d4ed8"/>
<circle cx="836.91" cy="352.50" r="3.2" fill="#1d4ed8"/>
<circle cx="839.94" cy="353.31" r="3.2" fill="#1d4ed8"/>
<circle cx="842.98" cy="352.50" r="3.2" fill="#1d4ed8"/>
<circle cx="846.02" cy="353.71" r="3.2" fill="#1d4ed8"/>
<circle cx="849.05" cy="354.12" r="3.2" fill="#1d4ed8"/>
<circle cx="852.09" cy="352.50" r="3.2" fill="#1d4ed8"/>
<circle cx="855.13" cy="352.90" r="3.2" fill="#1d4ed8"/>
<circle cx="858.16" cy="352.50" r="3.2" fill="#1d4ed8"/>
<circle cx="861.20" cy="352.10" r="3.2" fill="#1d4ed8"/>
<circle cx="864.23" cy="351.69" r="3.2" fill="#1d4ed8"/>
<circle cx="867.27" cy="352.10" r="3.2" fill="#1d4ed8"/>
<circle cx="870.31" cy="354.12" r="3.2" fill="#1d4ed8"/>
<circle cx="873.34" cy="352.50" r="3.2" fill="#1d4ed8"/>
<circle cx="876.38" cy="352.10" r="3.2" fill="#1d4ed8"/>
<circle cx="879.42" cy="352.10" r="3.2" fill="#1d4ed8"/>
<circle cx="882.45" cy="349.67" r="3.2" fill="#1d4ed8"/>
<circle cx="885.49" cy="349.67" r="3.2" fill="#1d4ed8"/>
<circle cx="888.52" cy="350.88" r="3.2" fill="#1d4ed8"/>
<circle cx="891.56" cy="351.29" r="3.2" fill="#1d4ed8"/>
<circle cx="894.60" cy="350.48" r="3.2" fill="#1d4ed8"/>
<circle cx="897.63" cy="352.10" r="3.2" fill="#1d4ed8"/>
<circle cx="900.67" cy="350.48" r="3.2" fill="#1d4ed8"/>
<circle cx="903.70" cy="350.48" r="3.2" fill="#1d4ed8"/>
<circle cx="906.74" cy="350.48" r="3.2" fill="#1d4ed8"/>
<circle cx="909.78" cy="350.07" r="3.2" fill="#1d4ed8"/>
<circle cx="912.81" cy="348.46" r="3.2" fill="#1d4ed8"/>
<circle cx="915.85" cy="351.29" r="3.2" fill="#1d4ed8"/>
<circle cx="918.89" cy="349.67" r="3.2" fill="#1d4ed8"/>
<circle cx="921.92" cy="351.29" r="3.2" fill="#1d4ed8"/>
<circle cx="924.96" cy="349.67" r="3.2" fill="#1d4ed8"/>
<circle cx="927.99" cy="348.86" r="3.2" fill="#1d4ed8"/>
<circle cx="931.03" cy="348.46" r="3.2" fill="#1d4ed8"/>
<circle cx="934.07" cy="348.46" r="3.2" fill="#1d4ed8"/>
<circle cx="937.10" cy="347.24" r="3.2" fill="#1d4ed8"/>
<circle cx="940.14" cy="348.86" r="3.2" fill="#1d4ed8"/>
<circle cx="943.18" cy="346.84" r="3.2" fill="#1d4ed8"/>
<circle cx="946.21" cy="348.46" r="3.2" fill="#1d4ed8"/>
<circle cx="949.25" cy="348.86" r="3.2" fill="#1d4ed8"/>
<circle cx="952.28" cy="346.84" r="3.2" fill="#1d4ed8"/>
<circle cx="955.32" cy="349.26" r="3.2" fill="#1d4ed8"/>
<circle cx="958.36" cy="348.05" r="3.2" fill="#1d4ed8"/>
<circle cx="961.39" cy="349.26" r="3.2" fill="#1d4ed8"/>
<circle cx="964.43" cy="349.26" r="3.2" fill="#1d4ed8"/>
<circle cx="967.47" cy="350.48" r="3.2" fill="#1d4ed8"/>
<circle cx="970.50" cy="352.90" r="3.2" fill="#1d4ed8"/>
<circle cx="973.54" cy="349.67" r="3.2" fill="#1d4ed8"/>
<circle cx="976.57" cy="348.46" r="3.2" fill="#1d4ed8"/>
<circle cx="979.61" cy="345.62" r="3.2" fill="#1d4ed8"/>
<circle cx="982.65" cy="344.82" r="3.2" fill="#1d4ed8"/>
<circle cx="985.68" cy="344.41" r="3.2" fill="#1d4ed8"/>
<circle cx="988.72" cy="342.39" r="3.2" fill="#1d4ed8"/>
<circle cx="991.75" cy="341.18" r="3.2" fill="#1d4ed8"/>
<circle cx="994.79" cy="341.58" r="3.2" fill="#1d4ed8"/>
<circle cx="997.83" cy="339.15" r="3.2" fill="#1d4ed8"/>
<circle cx="1000.86" cy="338.35" r="3.2" fill="#1d4ed8"/>
<circle cx="1003.90" cy="337.54" r="3.2" fill="#1d4ed8"/>
<circle cx="1006.94" cy="336.73" r="3.2" fill="#1d4ed8"/>
<circle cx="1009.97" cy="335.92" r="3.2" fill="#1d4ed8"/>
<circle cx="1013.01" cy="337.54" r="3.2" fill="#1d4ed8"/>
<circle cx="1016.04" cy="338.35" r="3.2" fill="#1d4ed8"/>
<circle cx="1019.08" cy="337.54" r="3.2" fill="#1d4ed8"/>
<circle cx="1022.12" cy="337.54" r="3.2" fill="#1d4ed8"/>
<circle cx="1025.15" cy="337.54" r="3.2" fill="#1d4ed8"/>
<circle cx="1028.19" cy="333.09" r="3.2" fill="#1d4ed8"/>
<circle cx="1031.23" cy="333.90" r="3.2" fill="#1d4ed8"/>
<circle cx="1034.26" cy="335.92" r="3.2" fill="#1d4ed8"/>
<circle cx="1037.30" cy="336.73" r="3.2" fill="#1d4ed8"/>
<circle cx="1040.33" cy="335.51" r="3.2" fill="#1d4ed8"/>
<circle cx="1043.37" cy="332.28" r="3.2" fill="#1d4ed8"/>
<circle cx="1046.41" cy="331.47" r="3.2" fill="#1d4ed8"/>
<circle cx="1049.44" cy="331.07" r="3.2" fill="#1d4ed8"/>
<circle cx="1052.48" cy="331.47" r="3.2" fill="#1d4ed8"/>
<circle cx="1055.52" cy="331.07" r="3.2" fill="#1d4ed8"/>
<circle cx="1058.55" cy="331.07" r="3.2" fill="#1d4ed8"/>
<circle cx="1061.59" cy="331.07" r="3.2" fill="#1d4ed8"/>
<circle cx="1064.62" cy="331.07" r="3.2" fill="#1d4ed8"/>
<circle cx="1067.66" cy="331.07" r="3.2" fill="#1d4ed8"/>
<circle cx="1070.70" cy="331.07" r="3.2" fill="#1d4ed8"/>
<circle cx="1073.73" cy="331.07" r="3.2" fill="#1d4ed8"/>
<circle cx="1076.77" cy="331.07" r="3.2" fill="#1d4ed8"/>
<circle cx="1079.81" cy="331.07" r="3.2" fill="#1d4ed8"/>
<circle cx="1082.84" cy="331.07" r="3.2" fill="#1d4ed8"/>
<circle cx="1085.88" cy="331.47" r="3.2" fill="#1d4ed8"/>
<circle cx="1088.91" cy="331.88" r="3.2" fill="#1d4ed8"/>
<circle cx="1091.95" cy="331.07" r="3.2" fill="#1d4ed8"/>
<circle cx="1094.99" cy="331.47" r="3.2" fill="#1d4ed8"/>
<circle cx="1098.02" cy="331.07" r="3.2" fill="#1d4ed8"/>
<circle cx="1101.06" cy="331.47" r="3.2" fill="#1d4ed8"/>
<circle cx="1104.09" cy="331.07" r="3.2" fill="#1d4ed8"/>
<circle cx="1107.13" cy="324.19" r="3.2" fill="#1d4ed8"/>
<circle cx="1110.17" cy="324.19" r="3.2" fill="#1d4ed8"/>
<circle cx="1113.20" cy="318.93" r="3.2" fill="#1d4ed8"/>
<circle cx="1116.24" cy="316.51" r="3.2" fill="#1d4ed8"/>
<circle cx="1119.28" cy="310.44" r="3.2" fill="#1d4ed8"/>
<circle cx="1122.31" cy="308.01" r="3.2" fill="#1d4ed8"/>
<circle cx="1125.35" cy="600.00" r="3.2" fill="#1d4ed8"/>
<circle cx="1128.38" cy="301.54" r="3.2" fill="#1d4ed8"/>
<circle cx="1131.42" cy="290.22" r="3.2" fill="#1d4ed8"/>
<circle cx="1134.46" cy="287.79" r="3.2" fill="#1d4ed8"/>
<circle cx="1137.49" cy="286.18" r="3.2" fill="#1d4ed8"/>
<circle cx="1140.53" cy="285.77" r="3.2" fill="#1d4ed8"/>
<circle cx="1143.57" cy="285.77" r="3.2" fill="#1d4ed8"/>
<circle cx="1146.60" cy="285.77" r="3.2" fill="#1d4ed8"/>
<circle cx="1149.64" cy="286.18" r="3.2" fill="#1d4ed8"/>
<circle cx="1152.67" cy="285.77" r="3.2" fill="#1d4ed8"/>
<circle cx="1155.71" cy="285.77" r="3.2" fill="#1d4ed8"/>
<circle cx="1158.75" cy="285.77" r="3.2" fill="#1d4ed8"/>
<circle cx="1161.78" cy="283.35" r="3.2" fill="#1d4ed8"/>
<circle cx="1164.82" cy="282.94" r="3.2" fill="#1d4ed8"/>
<circle cx="1167.86" cy="282.94" r="3.2" fill="#1d4ed8"/>
<circle cx="1170.89" cy="283.35" r="3.2" fill="#1d4ed8"/>
<circle cx="1173.93" cy="282.94" r="3.2" fill="#1d4ed8"/>
<circle cx="1176.96" cy="282.94" r="3.2" fill="#1d4ed8"/>
<circle cx="1180.00" cy="283.75" r="3.2" fill="#1d4ed8"/>
<text x="635" y="695" text-anchor="middle" font-size="14" fill="#111" font-family="sans-serif">Date</text>
<text x="24" y="325" text-anchor="middle" font-size="14" fill="#111" transform="rotate(-90 24,325)" font-family="sans-serif">Passed files</text>
</svg>
