<?xml version="1.0" encoding="UTF-8"?>
<svg xmlns="http://www.w3.org/2000/svg" width="1280" height="720" viewBox="0 0 1280 720">
<rect width="100%" height="100%" fill="#ffffff"/>
<text x="640" y="30" text-anchor="middle" font-size="22" font-family="sans-serif">Roast passed files history</text>
<line x1="90" y1="600" x2="1180" y2="600" stroke="#333" stroke-width="1.5"/>
<line x1="90" y1="50" x2="90" y2="600" stroke="#333" stroke-width="1.5"/>
<line x1="90" y1="600.00" x2="1180" y2="600.00" stroke="#e5e7eb" stroke-width="1"/>
<text x="78" y="605.00" text-anchor="end" font-size="12" fill="#111" font-family="sans-serif">0</text>
<line x1="90" y1="397.79" x2="1180" y2="397.79" stroke="#e5e7eb" stroke-width="1"/>
<text x="78" y="402.79" text-anchor="end" font-size="12" fill="#111" font-family="sans-serif">500</text>
<line x1="90" y1="195.59" x2="1180" y2="195.59" stroke="#e5e7eb" stroke-width="1"/>
<text x="78" y="200.59" text-anchor="end" font-size="12" fill="#111" font-family="sans-serif">1000</text>
<line x1="90.00" y1="600" x2="90.00" y2="606" stroke="#333" stroke-width="1"/>
<text x="90.00" y="624" text-anchor="end" font-size="11" fill="#111" transform="rotate(-40 90.00,624)" font-family="sans-serif">2026-02-12</text>
<line x1="226.61" y1="600" x2="226.61" y2="606" stroke="#333" stroke-width="1"/>
<text x="226.61" y="624" text-anchor="end" font-size="11" fill="#111" transform="rotate(-40 226.61,624)" font-family="sans-serif">2026-02-17</text>
<line x1="363.23" y1="600" x2="363.23" y2="606" stroke="#333" stroke-width="1"/>
<text x="363.23" y="624" text-anchor="end" font-size="11" fill="#111" transform="rotate(-40 363.23,624)" font-family="sans-serif">2026-02-22</text>
<line x1="499.84" y1="600" x2="499.84" y2="606" stroke="#333" stroke-width="1"/>
<text x="499.84" y="624" text-anchor="end" font-size="11" fill="#111" transform="rotate(-40 499.84,624)" font-family="sans-serif">2026-02-26</text>
<line x1="636.45" y1="600" x2="636.45" y2="606" stroke="#333" stroke-width="1"/>
<text x="636.45" y="624" text-anchor="end" font-size="11" fill="#111" transform="rotate(-40 636.45,624)" font-family="sans-serif">2026-02-28</text>
<line x1="773.07" y1="600" x2="773.07" y2="606" stroke="#333" stroke-width="1"/>
<text x="773.07" y="624" text-anchor="end" font-size="11" fill="#111" transform="rotate(-40 773.07,624)" font-family="sans-serif">2026-03-06</text>
<line x1="909.68" y1="600" x2="909.68" y2="606" stroke="#333" stroke-width="1"/>
<text x="909.68" y="624" text-anchor="end" font-size="11" fill="#111" transform="rotate(-40 909.68,624)" font-family="sans-serif">2026-03-07</text>
<line x1="1046.29" y1="600" x2="1046.29" y2="606" stroke="#333" stroke-width="1"/>
<text x="1046.29" y="624" text-anchor="end" font-size="11" fill="#111" transform="rotate(-40 1046.29,624)" font-family="sans-serif">2026-03-11</text>
<line x1="1180.00" y1="600" x2="1180.00" y2="606" stroke="#333" stroke-width="1"/>
<text x="1180.00" y="624" text-anchor="end" font-size="11" fill="#111" transform="rotate(-40 1180.00,624)" font-family="sans-serif">2026-03-18</text>
<line x1="90" y1="75.88" x2="1180" y2="75.88" stroke="#dc2626" stroke-width="1.5" stroke-dasharray="8,4"/>
<text x="1184" y="79.88" font-size="12" fill="#dc2626" font-family="sans-serif">Goal: 1296</text>
<polyline fill="none" stroke="#2563eb" stroke-width="3" points="90.00,540.55 92.91,538.53 95.81,536.91 98.72,534.49 101.63,534.49 104.53,533.27 107.44,532.46 110.35,532.87 113.25,532.06 116.16,532.46 119.07,532.06 121.97,568.46 124.88,568.46 127.79,566.43 130.69,545.00 133.60,545.00 136.51,544.19 139.41,543.79 142.32,543.79 145.23,543.38 148.13,541.76 151.04,541.36 153.95,540.96 156.85,540.96 159.76,539.34 162.67,539.34 165.57,556.73 168.48,556.73 171.39,555.51 174.29,551.07 177.20,538.93 180.11,538.93 183.01,538.93 185.92,538.12 188.83,536.91 191.73,536.91 194.64,536.51 197.55,536.51 200.45,556.73 203.36,556.73 206.27,556.73 209.17,556.73 212.08,535.29 214.99,535.29 217.89,535.29 220.80,535.29 223.71,534.49 226.61,534.08 229.52,533.68 232.43,532.87 235.33,532.06 238.24,532.06 241.15,531.25 244.05,530.85 246.96,530.44 249.87,530.04 252.77,530.04 255.68,529.23 258.59,529.23 261.49,529.23 264.40,528.42 267.31,528.42 270.21,527.61 273.12,527.21 276.03,526.80 278.93,526.40 281.84,525.18 284.75,523.57 287.65,523.57 290.56,523.16 293.47,522.76 296.37,522.35 299.28,521.54 302.19,519.52 305.09,517.50 308.00,517.50 310.91,517.50 313.81,517.50 316.72,517.50 319.63,517.50 322.53,517.10 325.44,516.69 328.35,515.48 331.25,515.07 334.16,514.67 337.07,513.86 339.97,514.26 342.88,512.24 345.79,511.84 348.69,511.84 351.60,511.03 354.51,509.82 357.41,507.79 360.32,506.99 363.23,506.58 366.13,509.41 369.04,509.01 371.95,504.96 374.85,504.56 377.76,504.15 380.67,504.56 383.57,503.75 386.48,503.75 389.39,503.35 392.29,499.30 395.20,496.47 398.11,490.00 401.01,484.34 403.92,481.10 406.83,480.29 409.73,480.70 412.64,460.88 415.55,459.26 418.45,458.05 421.36,456.03 424.27,456.03 427.17,454.41 430.08,450.77 432.99,444.30 435.89,443.90 438.80,600.00 441.71,441.88 444.61,440.66 447.52,439.45 450.43,439.04 453.33,438.64 456.24,437.83 459.15,436.62 462.05,436.62 464.96,434.60 467.87,432.17 470.77,429.34 473.68,428.93 476.59,428.53 479.49,427.72 482.40,426.91 485.31,426.10 488.21,426.10 491.12,426.10 494.03,419.63 496.93,419.23 499.84,418.42 502.75,418.01 505.65,417.61 508.56,417.61 511.47,417.61 514.37,417.21 517.28,417.21 520.19,413.57 523.09,411.95 526.00,412.76 528.91,410.74 531.81,410.74 534.72,410.33 537.63,410.33 540.53,410.33 543.44,409.93 546.35,409.93 549.25,409.93 552.16,409.52 555.07,409.52 557.97,409.12 560.88,409.52 563.79,409.12 566.69,407.50 569.60,407.10 572.51,403.05 575.41,399.82 578.32,400.22 581.23,400.62 584.13,400.62 587.04,399.41 589.95,392.94 592.85,391.32 595.76,389.30 598.67,389.30 601.57,388.49 604.48,375.15 607.39,374.74 610.29,374.74 613.20,374.74 616.11,374.74 619.01,374.34 621.92,374.34 624.83,374.34 627.73,374.34 630.64,374.34 633.55,373.93 636.45,373.12 639.36,372.72 642.27,373.53 645.17,435.81 648.08,372.32 650.99,372.72 653.89,371.91 656.80,371.91 659.71,372.32 662.61,371.10 665.52,369.89 668.43,369.89 671.33,369.89 674.24,369.49 677.15,369.89 680.05,369.08 682.96,368.68 685.87,368.27 688.77,367.87 691.68,367.06 694.59,367.46 697.49,367.06 700.40,366.25 703.31,368.27 706.21,368.68 709.12,368.68 712.03,368.27 714.93,369.08 717.84,367.87 720.75,367.46 723.65,367.06 726.56,360.18 729.47,359.78 732.37,359.38 735.28,356.95 738.19,357.35 741.09,357.76 744.00,355.33 746.91,355.74 749.81,357.35 752.72,355.33 755.63,356.14 758.53,355.74 761.44,356.14 764.35,354.12 767.25,354.93 770.16,356.14 773.07,354.52 775.97,353.71 778.88,354.12 781.79,354.93 784.69,352.90 787.60,353.71 790.51,353.31 793.41,353.31 796.32,354.52 799.23,352.90 802.13,352.50 805.04,352.50 807.95,353.31 810.85,352.50 813.76,353.71 816.67,354.12 819.57,352.50 822.48,352.90 825.39,352.50 828.29,352.10 831.20,351.69 834.11,352.10 837.01,354.12 839.92,352.50 842.83,352.10 845.73,352.10 848.64,349.67 851.55,349.67 854.45,350.88 857.36,351.29 860.27,350.48 863.17,352.10 866.08,350.48 868.99,350.48 871.89,350.48 874.80,350.07 877.71,348.46 880.61,351.29 883.52,349.67 886.43,351.29 889.33,349.67 892.24,348.86 895.15,348.46 898.05,348.46 900.96,347.24 903.87,348.86 906.77,346.84 909.68,348.46 912.59,348.86 915.49,346.84 918.40,349.26 921.31,348.05 924.21,349.26 927.12,349.26 930.03,350.48 932.93,352.90 935.84,349.67 938.75,348.46 941.65,345.62 944.56,344.82 947.47,344.41 950.37,342.39 953.28,341.18 956.19,341.58 959.09,339.15 962.00,338.35 964.91,337.54 967.81,336.73 970.72,335.92 973.63,337.54 976.53,338.35 979.44,337.54 982.35,337.54 985.25,337.54 988.16,333.09 991.07,333.90 993.97,335.92 996.88,336.73 999.79,335.51 1002.69,332.28 1005.60,331.47 1008.51,331.07 1011.41,331.47 1014.32,331.07 1017.23,331.07 1020.13,331.07 1023.04,331.07 1025.95,331.07 1028.85,331.07 1031.76,331.07 1034.67,331.07 1037.57,331.07 1040.48,331.07 1043.39,331.47 1046.29,331.88 1049.20,331.07 1052.11,331.47 1055.01,331.07 1057.92,331.47 1060.83,331.07 1063.73,324.19 1066.64,324.19 1069.55,318.93 1072.45,316.51 1075.36,310.44 1078.27,308.01 1081.17,600.00 1084.08,301.54 1086.99,290.22 1089.89,287.79 1092.80,286.18 1095.71,285.77 1098.61,285.77 1101.52,285.77 1104.43,286.18 1107.33,285.77 1110.24,285.77 1113.15,285.77 1116.05,283.35 1118.96,282.94 1121.87,282.94 1124.77,283.35 1127.68,282.94 1130.59,282.94 1133.49,283.75 1136.40,282.13 1139.31,282.13 1142.21,282.54 1145.12,282.13 1148.03,282.54 1150.93,282.94 1153.84,281.73 1156.75,282.54 1159.65,281.73 1162.56,282.54 1165.47,282.13 1168.37,282.13 1171.28,281.73 1174.19,281.73 1177.09,281.32 1180.00,281.73"/>
<circle cx="90.00" cy="540.55" r="3.2" fill="#1d4ed8"/>
<circle cx="92.91" cy="538.53" r="3.2" fill="#1d4ed8"/>
<circle cx="95.81" cy="536.91" r="3.2" fill="#1d4ed8"/>
<circle cx="98.72" cy="534.49" r="3.2" fill="#1d4ed8"/>
<circle cx="101.63" cy="534.49" r="3.2" fill="#1d4ed8"/>
<circle cx="104.53" cy="533.27" r="3.2" fill="#1d4ed8"/>
<circle cx="107.44" cy="532.46" r="3.2" fill="#1d4ed8"/>
<circle cx="110.35" cy="532.87" r="3.2" fill="#1d4ed8"/>
<circle cx="113.25" cy="532.06" r="3.2" fill="#1d4ed8"/>
<circle cx="116.16" cy="532.46" r="3.2" fill="#1d4ed8"/>
<circle cx="119.07" cy="532.06" r="3.2" fill="#1d4ed8"/>
<circle cx="121.97" cy="568.46" r="3.2" fill="#1d4ed8"/>
<circle cx="124.88" cy="568.46" r="3.2" fill="#1d4ed8"/>
<circle cx="127.79" cy="566.43" r="3.2" fill="#1d4ed8"/>
<circle cx="130.69" cy="545.00" r="3.2" fill="#1d4ed8"/>
<circle cx="133.60" cy="545.00" r="3.2" fill="#1d4ed8"/>
<circle cx="136.51" cy="544.19" r="3.2" fill="#1d4ed8"/>
<circle cx="139.41" cy="543.79" r="3.2" fill="#1d4ed8"/>
<circle cx="142.32" cy="543.79" r="3.2" fill="#1d4ed8"/>
<circle cx="145.23" cy="543.38" r="3.2" fill="#1d4ed8"/>
<circle cx="148.13" cy="541.76" r="3.2" fill="#1d4ed8"/>
<circle cx="151.04" cy="541.36" r="3.2" fill="#1d4ed8"/>
<circle cx="153.95" cy="540.96" r="3.2" fill="#1d4ed8"/>
<circle cx="156.85" cy="540.96" r="3.2" fill="#1d4ed8"/>
<circle cx="159.76" cy="539.34" r="3.2" fill="#1d4ed8"/>
<circle cx="162.67" cy="539.34" r="3.2" fill="#1d4ed8"/>
<circle cx="165.57" cy="556.73" r="3.2" fill="#1d4ed8"/>
<circle cx="168.48" cy="556.73" r="3.2" fill="#1d4ed8"/>
<circle cx="171.39" cy="555.51" r="3.2" fill="#1d4ed8"/>
<circle cx="174.29" cy="551.07" r="3.2" fill="#1d4ed8"/>
<circle cx="177.20" cy="538.93" r="3.2" fill="#1d4ed8"/>
<circle cx="180.11" cy="538.93" r="3.2" fill="#1d4ed8"/>
<circle cx="183.01" cy="538.93" r="3.2" fill="#1d4ed8"/>
<circle cx="185.92" cy="538.12" r="3.2" fill="#1d4ed8"/>
<circle cx="188.83" cy="536.91" r="3.2" fill="#1d4ed8"/>
<circle cx="191.73" cy="536.91" r="3.2" fill="#1d4ed8"/>
<circle cx="194.64" cy="536.51" r="3.2" fill="#1d4ed8"/>
<circle cx="197.55" cy="536.51" r="3.2" fill="#1d4ed8"/>
<circle cx="200.45" cy="556.73" r="3.2" fill="#1d4ed8"/>
<circle cx="203.36" cy="556.73" r="3.2" fill="#1d4ed8"/>
<circle cx="206.27" cy="556.73" r="3.2" fill="#1d4ed8"/>
<circle cx="209.17" cy="556.73" r="3.2" fill="#1d4ed8"/>
<circle cx="212.08" cy="535.29" r="3.2" fill="#1d4ed8"/>
<circle cx="214.99" cy="535.29" r="3.2" fill="#1d4ed8"/>
<circle cx="217.89" cy="535.29" r="3.2" fill="#1d4ed8"/>
<circle cx="220.80" cy="535.29" r="3.2" fill="#1d4ed8"/>
<circle cx="223.71" cy="534.49" r="3.2" fill="#1d4ed8"/>
<circle cx="226.61" cy="534.08" r="3.2" fill="#1d4ed8"/>
<circle cx="229.52" cy="533.68" r="3.2" fill="#1d4ed8"/>
<circle cx="232.43" cy="532.87" r="3.2" fill="#1d4ed8"/>
<circle cx="235.33" cy="532.06" r="3.2" fill="#1d4ed8"/>
<circle cx="238.24" cy="532.06" r="3.2" fill="#1d4ed8"/>
<circle cx="241.15" cy="531.25" r="3.2" fill="#1d4ed8"/>
<circle cx="244.05" cy="530.85" r="3.2" fill="#1d4ed8"/>
<circle cx="246.96" cy="530.44" r="3.2" fill="#1d4ed8"/>
<circle cx="249.87" cy="530.04" r="3.2" fill="#1d4ed8"/>
<circle cx="252.77" cy="530.04" r="3.2" fill="#1d4ed8"/>
<circle cx="255.68" cy="529.23" r="3.2" fill="#1d4ed8"/>
<circle cx="258.59" cy="529.23" r="3.2" fill="#1d4ed8"/>
<circle cx="261.49" cy="529.23" r="3.2" fill="#1d4ed8"/>
<circle cx="264.40" cy="528.42" r="3.2" fill="#1d4ed8"/>
<circle cx="267.31" cy="528.42" r="3.2" fill="#1d4ed8"/>
<circle cx="270.21" cy="527.61" r="3.2" fill="#1d4ed8"/>
<circle cx="273.12" cy="527.21" r="3.2" fill="#1d4ed8"/>
<circle cx="276.03" cy="526.80" r="3.2" fill="#1d4ed8"/>
<circle cx="278.93" cy="526.40" r="3.2" fill="#1d4ed8"/>
<circle cx="281.84" cy="525.18" r="3.2" fill="#1d4ed8"/>
<circle cx="284.75" cy="523.57" r="3.2" fill="#1d4ed8"/>
<circle cx="287.65" cy="523.57" r="3.2" fill="#1d4ed8"/>
<circle cx="290.56" cy="523.16" r="3.2" fill="#1d4ed8"/>
<circle cx="293.47" cy="522.76" r="3.2" fill="#1d4ed8"/>
<circle cx="296.37" cy="522.35" r="3.2" fill="#1d4ed8"/>
<circle cx="299.28" cy="521.54" r="3.2" fill="#1d4ed8"/>
<circle cx="302.19" cy="519.52" r="3.2" fill="#1d4ed8"/>
<circle cx="305.09" cy="517.50" r="3.2" fill="#1d4ed8"/>
<circle cx="308.00" cy="517.50" r="3.2" fill="#1d4ed8"/>
<circle cx="310.91" cy="517.50" r="3.2" fill="#1d4ed8"/>
<circle cx="313.81" cy="517.50" r="3.2" fill="#1d4ed8"/>
<circle cx="316.72" cy="517.50" r="3.2" fill="#1d4ed8"/>
<circle cx="319.63" cy="517.50" r="3.2" fill="#1d4ed8"/>
<circle cx="322.53" cy="517.10" r="3.2" fill="#1d4ed8"/>
<circle cx="325.44" cy="516.69" r="3.2" fill="#1d4ed8"/>
<circle cx="328.35" cy="515.48" r="3.2" fill="#1d4ed8"/>
<circle cx="331.25" cy="515.07" r="3.2" fill="#1d4ed8"/>
<circle cx="334.16" cy="514.67" r="3.2" fill="#1d4ed8"/>
<circle cx="337.07" cy="513.86" r="3.2" fill="#1d4ed8"/>
<circle cx="339.97" cy="514.26" r="3.2" fill="#1d4ed8"/>
<circle cx="342.88" cy="512.24" r="3.2" fill="#1d4ed8"/>
<circle cx="345.79" cy="511.84" r="3.2" fill="#1d4ed8"/>
<circle cx="348.69" cy="511.84" r="3.2" fill="#1d4ed8"/>
<circle cx="351.60" cy="511.03" r="3.2" fill="#1d4ed8"/>
<circle cx="354.51" cy="509.82" r="3.2" fill="#1d4ed8"/>
<circle cx="357.41" cy="507.79" r="3.2" fill="#1d4ed8"/>
<circle cx="360.32" cy="506.99" r="3.2" fill="#1d4ed8"/>
<circle cx="363.23" cy="506.58" r="3.2" fill="#1d4ed8"/>
<circle cx="366.13" cy="509.41" r="3.2" fill="#1d4ed8"/>
<circle cx="369.04" cy="509.01" r="3.2" fill="#1d4ed8"/>
<circle cx="371.95" cy="504.96" r="3.2" fill="#1d4ed8"/>
<circle cx="374.85" cy="504.56" r="3.2" fill="#1d4ed8"/>
<circle cx="377.76" cy="504.15" r="3.2" fill="#1d4ed8"/>
<circle cx="380.67" cy="504.56" r="3.2" fill="#1d4ed8"/>
<circle cx="383.57" cy="503.75" r="3.2" fill="#1d4ed8"/>
<circle cx="386.48" cy="503.75" r="3.2" fill="#1d4ed8"/>
<circle cx="389.39" cy="503.35" r="3.2" fill="#1d4ed8"/>
<circle cx="392.29" cy="499.30" r="3.2" fill="#1d4ed8"/>
<circle cx="395.20" cy="496.47" r="3.2" fill="#1d4ed8"/>
<circle cx="398.11" cy="490.00" r="3.2" fill="#1d4ed8"/>
<circle cx="401.01" cy="484.34" r="3.2" fill="#1d4ed8"/>
<circle cx="403.92" cy="481.10" r="3.2" fill="#1d4ed8"/>
<circle cx="406.83" cy="480.29" r="3.2" fill="#1d4ed8"/>
<circle cx="409.73" cy="480.70" r="3.2" fill="#1d4ed8"/>
<circle cx="412.64" cy="460.88" r="3.2" fill="#1d4ed8"/>
<circle cx="415.55" cy="459.26" r="3.2" fill="#1d4ed8"/>
<circle cx="418.45" cy="458.05" r="3.2" fill="#1d4ed8"/>
<circle cx="421.36" cy="456.03" r="3.2" fill="#1d4ed8"/>
<circle cx="424.27" cy="456.03" r="3.2" fill="#1d4ed8"/>
<circle cx="427.17" cy="454.41" r="3.2" fill="#1d4ed8"/>
<circle cx="430.08" cy="450.77" r="3.2" fill="#1d4ed8"/>
<circle cx="432.99" cy="444.30" r="3.2" fill="#1d4ed8"/>
<circle cx="435.89" cy="443.90" r="3.2" fill="#1d4ed8"/>
<circle cx="438.80" cy="600.00" r="3.2" fill="#1d4ed8"/>
<circle cx="441.71" cy="441.88" r="3.2" fill="#1d4ed8"/>
<circle cx="444.61" cy="440.66" r="3.2" fill="#1d4ed8"/>
<circle cx="447.52" cy="439.45" r="3.2" fill="#1d4ed8"/>
<circle cx="450.43" cy="439.04" r="3.2" fill="#1d4ed8"/>
<circle cx="453.33" cy="438.64" r="3.2" fill="#1d4ed8"/>
<circle cx="456.24" cy="437.83" r="3.2" fill="#1d4ed8"/>
<circle cx="459.15" cy="436.62" r="3.2" fill="#1d4ed8"/>
<circle cx="462.05" cy="436.62" r="3.2" fill="#1d4ed8"/>
<circle cx="464.96" cy="434.60" r="3.2" fill="#1d4ed8"/>
<circle cx="467.87" cy="432.17" r="3.2" fill="#1d4ed8"/>
<circle cx="470.77" cy="429.34" r="3.2" fill="#1d4ed8"/>
<circle cx="473.68" cy="428.93" r="3.2" fill="#1d4ed8"/>
<circle cx="476.59" cy="428.53" r="3.2" fill="#1d4ed8"/>
<circle cx="479.49" cy="427.72" r="3.2" fill="#1d4ed8"/>
<circle cx="482.40" cy="426.91" r="3.2" fill="#1d4ed8"/>
<circle cx="485.31" cy="426.10" r="3.2" fill="#1d4ed8"/>
<circle cx="488.21" cy="426.10" r="3.2" fill="#1d4ed8"/>
<circle cx="491.12" cy="426.10" r="3.2" fill="#1d4ed8"/>
<circle cx="494.03" cy="419.63" r="3.2" fill="#1d4ed8"/>
<circle cx="496.93" cy="419.23" r="3.2" fill="#1d4ed8"/>
<circle cx="499.84" cy="418.42" r="3.2" fill="#1d4ed8"/>
<circle cx="502.75" cy="418.01" r="3.2" fill="#1d4ed8"/>
<circle cx="505.65" cy="417.61" r="3.2" fill="#1d4ed8"/>
<circle cx="508.56" cy="417.61" r="3.2" fill="#1d4ed8"/>
<circle cx="511.47" cy="417.61" r="3.2" fill="#1d4ed8"/>
<circle cx="514.37" cy="417.21" r="3.2" fill="#1d4ed8"/>
<circle cx="517.28" cy="417.21" r="3.2" fill="#1d4ed8"/>
<circle cx="520.19" cy="413.57" r="3.2" fill="#1d4ed8"/>
<circle cx="523.09" cy="411.95" r="3.2" fill="#1d4ed8"/>
<circle cx="526.00" cy="412.76" r="3.2" fill="#1d4ed8"/>
<circle cx="528.91" cy="410.74" r="3.2" fill="#1d4ed8"/>
<circle cx="531.81" cy="410.74" r="3.2" fill="#1d4ed8"/>
<circle cx="534.72" cy="410.33" r="3.2" fill="#1d4ed8"/>
<circle cx="537.63" cy="410.33" r="3.2" fill="#1d4ed8"/>
<circle cx="540.53" cy="410.33" r="3.2" fill="#1d4ed8"/>
<circle cx="543.44" cy="409.93" r="3.2" fill="#1d4ed8"/>
<circle cx="546.35" cy="409.93" r="3.2" fill="#1d4ed8"/>
<circle cx="549.25" cy="409.93" r="3.2" fill="#1d4ed8"/>
<circle cx="552.16" cy="409.52" r="3.2" fill="#1d4ed8"/>
<circle cx="555.07" cy="409.52" r="3.2" fill="#1d4ed8"/>
<circle cx="557.97" cy="409.12" r="3.2" fill="#1d4ed8"/>
<circle cx="560.88" cy="409.52" r="3.2" fill="#1d4ed8"/>
<circle cx="563.79" cy="409.12" r="3.2" fill="#1d4ed8"/>
<circle cx="566.69" cy="407.50" r="3.2" fill="#1d4ed8"/>
<circle cx="569.60" cy="407.10" r="3.2" fill="#1d4ed8"/>
<circle cx="572.51" cy="403.05" r="3.2" fill="#1d4ed8"/>
<circle cx="575.41" cy="399.82" r="3.2" fill="#1d4ed8"/>
<circle cx="578.32" cy="400.22" r="3.2" fill="#1d4ed8"/>
<circle cx="581.23" cy="400.62" r="3.2" fill="#1d4ed8"/>
<circle cx="584.13" cy="400.62" r="3.2" fill="#1d4ed8"/>
<circle cx="587.04" cy="399.41" r="3.2" fill="#1d4ed8"/>
<circle cx="589.95" cy="392.94" r="3.2" fill="#1d4ed8"/>
<circle cx="592.85" cy="391.32" r="3.2" fill="#1d4ed8"/>
<circle cx="595.76" cy="389.30" r="3.2" fill="#1d4ed8"/>
<circle cx="598.67" cy="389.30" r="3.2" fill="#1d4ed8"/>
<circle cx="601.57" cy="388.49" r="3.2" fill="#1d4ed8"/>
<circle cx="604.48" cy="375.15" r="3.2" fill="#1d4ed8"/>
<circle cx="607.39" cy="374.74" r="3.2" fill="#1d4ed8"/>
<circle cx="610.29" cy="374.74" r="3.2" fill="#1d4ed8"/>
<circle cx="613.20" cy="374.74" r="3.2" fill="#1d4ed8"/>
<circle cx="616.11" cy="374.74" r="3.2" fill="#1d4ed8"/>
<circle cx="619.01" cy="374.34" r="3.2" fill="#1d4ed8"/>
<circle cx="621.92" cy="374.34" r="3.2" fill="#1d4ed8"/>
<circle cx="624.83" cy="374.34" r="3.2" fill="#1d4ed8"/>
<circle cx="627.73" cy="374.34" r="3.2" fill="#1d4ed8"/>
<circle cx="630.64" cy="374.34" r="3.2" fill="#1d4ed8"/>
<circle cx="633.55" cy="373.93" r="3.2" fill="#1d4ed8"/>
<circle cx="636.45" cy="373.12" r="3.2" fill="#1d4ed8"/>
<circle cx="639.36" cy="372.72" r="3.2" fill="#1d4ed8"/>
<circle cx="642.27" cy="373.53" r="3.2" fill="#1d4ed8"/>
<circle cx="645.17" cy="435.81" r="3.2" fill="#1d4ed8"/>
<circle cx="648.08" cy="372.32" r="3.2" fill="#1d4ed8"/>
<circle cx="650.99" cy="372.72" r="3.2" fill="#1d4ed8"/>
<circle cx="653.89" cy="371.91" r="3.2" fill="#1d4ed8"/>
<circle cx="656.80" cy="371.91" r="3.2" fill="#1d4ed8"/>
<circle cx="659.71" cy="372.32" r="3.2" fill="#1d4ed8"/>
<circle cx="662.61" cy="371.10" r="3.2" fill="#1d4ed8"/>
<circle cx="665.52" cy="369.89" r="3.2" fill="#1d4ed8"/>
<circle cx="668.43" cy="369.89" r="3.2" fill="#1d4ed8"/>
<circle cx="671.33" cy="369.89" r="3.2" fill="#1d4ed8"/>
<circle cx="674.24" cy="369.49" r="3.2" fill="#1d4ed8"/>
<circle cx="677.15" cy="369.89" r="3.2" fill="#1d4ed8"/>
<circle cx="680.05" cy="369.08" r="3.2" fill="#1d4ed8"/>
<circle cx="682.96" cy="368.68" r="3.2" fill="#1d4ed8"/>
<circle cx="685.87" cy="368.27" r="3.2" fill="#1d4ed8"/>
<circle cx="688.77" cy="367.87" r="3.2" fill="#1d4ed8"/>
<circle cx="691.68" cy="367.06" r="3.2" fill="#1d4ed8"/>
<circle cx="694.59" cy="367.46" r="3.2" fill="#1d4ed8"/>
<circle cx="697.49" cy="367.06" r="3.2" fill="#1d4ed8"/>
<circle cx="700.40" cy="366.25" r="3.2" fill="#1d4ed8"/>
<circle cx="703.31" cy="368.27" r="3.2" fill="#1d4ed8"/>
<circle cx="706.21" cy="368.68" r="3.2" fill="#1d4ed8"/>
<circle cx="709.12" cy="368.68" r="3.2" fill="#1d4ed8"/>
<circle cx="712.03" cy="368.27" r="3.2" fill="#1d4ed8"/>
<circle cx="714.93" cy="369.08" r="3.2" fill="#1d4ed8"/>
<circle cx="717.84" cy="367.87" r="3.2" fill="#1d4ed8"/>
<circle cx="720.75" cy="367.46" r="3.2" fill="#1d4ed8"/>
<circle cx="723.65" cy="367.06" r="3.2" fill="#1d4ed8"/>
<circle cx="726.56" cy="360.18" r="3.2" fill="#1d4ed8"/>
<circle cx="729.47" cy="359.78" r="3.2" fill="#1d4ed8"/>
<circle cx="732.37" cy="359.38" r="3.2" fill="#1d4ed8"/>
<circle cx="735.28" cy="356.95" r="3.2" fill="#1d4ed8"/>
<circle cx="738.19" cy="357.35" r="3.2" fill="#1d4ed8"/>
<circle cx="741.09" cy="357.76" r="3.2" fill="#1d4ed8"/>
<circle cx="744.00" cy="355.33" r="3.2" fill="#1d4ed8"/>
<circle cx="746.91" cy="355.74" r="3.2" fill="#1d4ed8"/>
<circle cx="749.81" cy="357.35" r="3.2" fill="#1d4ed8"/>
<circle cx="752.72" cy="355.33" r="3.2" fill="#1d4ed8"/>
<circle cx="755.63" cy="356.14" r="3.2" fill="#1d4ed8"/>
<circle cx="758.53" cy="355.74" r="3.2" fill="#1d4ed8"/>
<circle cx="761.44" cy="356.14" r="3.2" fill="#1d4ed8"/>
<circle cx="764.35" cy="354.12" r="3.2" fill="#1d4ed8"/>
<circle cx="767.25" cy="354.93" r="3.2" fill="#1d4ed8"/>
<circle cx="770.16" cy="356.14" r="3.2" fill="#1d4ed8"/>
<circle cx="773.07" cy="354.52" r="3.2" fill="#1d4ed8"/>
<circle cx="775.97" cy="353.71" r="3.2" fill="#1d4ed8"/>
<circle cx="778.88" cy="354.12" r="3.2" fill="#1d4ed8"/>
<circle cx="781.79" cy="354.93" r="3.2" fill="#1d4ed8"/>
<circle cx="784.69" cy="352.90" r="3.2" fill="#1d4ed8"/>
<circle cx="787.60" cy="353.71" r="3.2" fill="#1d4ed8"/>
<circle cx="790.51" cy="353.31" r="3.2" fill="#1d4ed8"/>
<circle cx="793.41" cy="353.31" r="3.2" fill="#1d4ed8"/>
<circle cx="796.32" cy="354.52" r="3.2" fill="#1d4ed8"/>
<circle cx="799.23" cy="352.90" r="3.2" fill="#1d4ed8"/>
<circle cx="802.13" cy="352.50" r="3.2" fill="#1d4ed8"/>
<circle cx="805.04" cy="352.50" r="3.2" fill="#1d4ed8"/>
<circle cx="807.95" cy="353.31" r="3.2" fill="#1d4ed8"/>
<circle cx="810.85" cy="352.50" r="3.2" fill="#1d4ed8"/>
<circle cx="813.76" cy="353.71" r="3.2" fill="#1d4ed8"/>
<circle cx="816.67" cy="354.12" r="3.2" fill="#1d4ed8"/>
<circle cx="819.57" cy="352.50" r="3.2" fill="#1d4ed8"/>
<circle cx="822.48" cy="352.90" r="3.2" fill="#1d4ed8"/>
<circle cx="825.39" cy="352.50" r="3.2" fill="#1d4ed8"/>
<circle cx="828.29" cy="352.10" r="3.2" fill="#1d4ed8"/>
<circle cx="831.20" cy="351.69" r="3.2" fill="#1d4ed8"/>
<circle cx="834.11" cy="352.10" r="3.2" fill="#1d4ed8"/>
<circle cx="837.01" cy="354.12" r="3.2" fill="#1d4ed8"/>
<circle cx="839.92" cy="352.50" r="3.2" fill="#1d4ed8"/>
<circle cx="842.83" cy="352.10" r="3.2" fill="#1d4ed8"/>
<circle cx="845.73" cy="352.10" r="3.2" fill="#1d4ed8"/>
<circle cx="848.64" cy="349.67" r="3.2" fill="#1d4ed8"/>
<circle cx="851.55" cy="349.67" r="3.2" fill="#1d4ed8"/>
<circle cx="854.45" cy="350.88" r="3.2" fill="#1d4ed8"/>
<circle cx="857.36" cy="351.29" r="3.2" fill="#1d4ed8"/>
<circle cx="860.27" cy="350.48" r="3.2" fill="#1d4ed8"/>
<circle cx="863.17" cy="352.10" r="3.2" fill="#1d4ed8"/>
<circle cx="866.08" cy="350.48" r="3.2" fill="#1d4ed8"/>
<circle cx="868.99" cy="350.48" r="3.2" fill="#1d4ed8"/>
<circle cx="871.89" cy="350.48" r="3.2" fill="#1d4ed8"/>
<circle cx="874.80" cy="350.07" r="3.2" fill="#1d4ed8"/>
<circle cx="877.71" cy="348.46" r="3.2" fill="#1d4ed8"/>
<circle cx="880.61" cy="351.29" r="3.2" fill="#1d4ed8"/>
<circle cx="883.52" cy="349.67" r="3.2" fill="#1d4ed8"/>
<circle cx="886.43" cy="351.29" r="3.2" fill="#1d4ed8"/>
<circle cx="889.33" cy="349.67" r="3.2" fill="#1d4ed8"/>
<circle cx="892.24" cy="348.86" r="3.2" fill="#1d4ed8"/>
<circle cx="895.15" cy="348.46" r="3.2" fill="#1d4ed8"/>
<circle cx="898.05" cy="348.46" r="3.2" fill="#1d4ed8"/>
<circle cx="900.96" cy="347.24" r="3.2" fill="#1d4ed8"/>
<circle cx="903.87" cy="348.86" r="3.2" fill="#1d4ed8"/>
<circle cx="906.77" cy="346.84" r="3.2" fill="#1d4ed8"/>
<circle cx="909.68" cy="348.46" r="3.2" fill="#1d4ed8"/>
<circle cx="912.59" cy="348.86" r="3.2" fill="#1d4ed8"/>
<circle cx="915.49" cy="346.84" r="3.2" fill="#1d4ed8"/>
<circle cx="918.40" cy="349.26" r="3.2" fill="#1d4ed8"/>
<circle cx="921.31" cy="348.05" r="3.2" fill="#1d4ed8"/>
<circle cx="924.21" cy="349.26" r="3.2" fill="#1d4ed8"/>
<circle cx="927.12" cy="349.26" r="3.2" fill="#1d4ed8"/>
<circle cx="930.03" cy="350.48" r="3.2" fill="#1d4ed8"/>
<circle cx="932.93" cy="352.90" r="3.2" fill="#1d4ed8"/>
<circle cx="935.84" cy="349.67" r="3.2" fill="#1d4ed8"/>
<circle cx="938.75" cy="348.46" r="3.2" fill="#1d4ed8"/>
<circle cx="941.65" cy="345.62" r="3.2" fill="#1d4ed8"/>
<circle cx="944.56" cy="344.82" r="3.2" fill="#1d4ed8"/>
<circle cx="947.47" cy="344.41" r="3.2" fill="#1d4ed8"/>
<circle cx="950.37" cy="342.39" r="3.2" fill="#1d4ed8"/>
<circle cx="953.28" cy="341.18" r="3.2" fill="#1d4ed8"/>
<circle cx="956.19" cy="341.58" r="3.2" fill="#1d4ed8"/>
<circle cx="959.09" cy="339.15" r="3.2" fill="#1d4ed8"/>
<circle cx="962.00" cy="338.35" r="3.2" fill="#1d4ed8"/>
<circle cx="964.91" cy="337.54" r="3.2" fill="#1d4ed8"/>
<circle cx="967.81" cy="336.73" r="3.2" fill="#1d4ed8"/>
<circle cx="970.72" cy="335.92" r="3.2" fill="#1d4ed8"/>
<circle cx="973.63" cy="337.54" r="3.2" fill="#1d4ed8"/>
<circle cx="976.53" cy="338.35" r="3.2" fill="#1d4ed8"/>
<circle cx="979.44" cy="337.54" r="3.2" fill="#1d4ed8"/>
<circle cx="982.35" cy="337.54" r="3.2" fill="#1d4ed8"/>
<circle cx="985.25" cy="337.54" r="3.2" fill="#1d4ed8"/>
<circle cx="988.16" cy="333.09" r="3.2" fill="#1d4ed8"/>
<circle cx="991.07" cy="333.90" r="3.2" fill="#1d4ed8"/>
<circle cx="993.97" cy="335.92" r="3.2" fill="#1d4ed8"/>
<circle cx="996.88" cy="336.73" r="3.2" fill="#1d4ed8"/>
<circle cx="999.79" cy="335.51" r="3.2" fill="#1d4ed8"/>
<circle cx="1002.69" cy="332.28" r="3.2" fill="#1d4ed8"/>
<circle cx="1005.60" cy="331.47" r="3.2" fill="#1d4ed8"/>
<circle cx="1008.51" cy="331.07" r="3.2" fill="#1d4ed8"/>
<circle cx="1011.41" cy="331.47" r="3.2" fill="#1d4ed8"/>
<circle cx="1014.32" cy="331.07" r="3.2" fill="#1d4ed8"/>
<circle cx="1017.23" cy="331.07" r="3.2" fill="#1d4ed8"/>
<circle cx="1020.13" cy="331.07" r="3.2" fill="#1d4ed8"/>
<circle cx="1023.04" cy="331.07" r="3.2" fill="#1d4ed8"/>
<circle cx="1025.95" cy="331.07" r="3.2" fill="#1d4ed8"/>
<circle cx="1028.85" cy="331.07" r="3.2" fill="#1d4ed8"/>
<circle cx="1031.76" cy="331.07" r="3.2" fill="#1d4ed8"/>
<circle cx="1034.67" cy="331.07" r="3.2" fill="#1d4ed8"/>
<circle cx="1037.57" cy="331.07" r="3.2" fill="#1d4ed8"/>
<circle cx="1040.48" cy="331.07" r="3.2" fill="#1d4ed8"/>
<circle cx="1043.39" cy="331.47" r="3.2" fill="#1d4ed8"/>
<circle cx="1046.29" cy="331.88" r="3.2" fill="#1d4ed8"/>
<circle cx="1049.20" cy="331.07" r="3.2" fill="#1d4ed8"/>
<circle cx="1052.11" cy="331.47" r="3.2" fill="#1d4ed8"/>
<circle cx="1055.01" cy="331.07" r="3.2" fill="#1d4ed8"/>
<circle cx="1057.92" cy="331.47" r="3.2" fill="#1d4ed8"/>
<circle cx="1060.83" cy="331.07" r="3.2" fill="#1d4ed8"/>
<circle cx="1063.73" cy="324.19" r="3.2" fill="#1d4ed8"/>
<circle cx="1066.64" cy="324.19" r="3.2" fill="#1d4ed8"/>
<circle cx="1069.55" cy="318.93" r="3.2" fill="#1d4ed8"/>
<circle cx="1072.45" cy="316.51" r="3.2" fill="#1d4ed8"/>
<circle cx="1075.36" cy="310.44" r="3.2" fill="#1d4ed8"/>
<circle cx="1078.27" cy="308.01" r="3.2" fill="#1d4ed8"/>
<circle cx="1081.17" cy="600.00" r="3.2" fill="#1d4ed8"/>
<circle cx="1084.08" cy="301.54" r="3.2" fill="#1d4ed8"/>
<circle cx="1086.99" cy="290.22" r="3.2" fill="#1d4ed8"/>
<circle cx="1089.89" cy="287.79" r="3.2" fill="#1d4ed8"/>
<circle cx="1092.80" cy="286.18" r="3.2" fill="#1d4ed8"/>
<circle cx="1095.71" cy="285.77" r="3.2" fill="#1d4ed8"/>
<circle cx="1098.61" cy="285.77" r="3.2" fill="#1d4ed8"/>
<circle cx="1101.52" cy="285.77" r="3.2" fill="#1d4ed8"/>
<circle cx="1104.43" cy="286.18" r="3.2" fill="#1d4ed8"/>
<circle cx="1107.33" cy="285.77" r="3.2" fill="#1d4ed8"/>
<circle cx="1110.24" cy="285.77" r="3.2" fill="#1d4ed8"/>
<circle cx="1113.15" cy="285.77" r="3.2" fill="#1d4ed8"/>
<circle cx="1116.05" cy="283.35" r="3.2" fill="#1d4ed8"/>
<circle cx="1118.96" cy="282.94" r="3.2" fill="#1d4ed8"/>
<circle cx="1121.87" cy="282.94" r="3.2" fill="#1d4ed8"/>
<circle cx="1124.77" cy="283.35" r="3.2" fill="#1d4ed8"/>
<circle cx="1127.68" cy="282.94" r="3.2" fill="#1d4ed8"/>
<circle cx="1130.59" cy="282.94" r="3.2" fill="#1d4ed8"/>
<circle cx="1133.49" cy="283.75" r="3.2" fill="#1d4ed8"/>
<circle cx="1136.40" cy="282.13" r="3.2" fill="#1d4ed8"/>
<circle cx="1139.31" cy="282.13" r="3.2" fill="#1d4ed8"/>
<circle cx="1142.21" cy="282.54" r="3.2" fill="#1d4ed8"/>
<circle cx="1145.12" cy="282.13" r="3.2" fill="#1d4ed8"/>
<circle cx="1148.03" cy="282.54" r="3.2" fill="#1d4ed8"/>
<circle cx="1150.93" cy="282.94" r="3.2" fill="#1d4ed8"/>
<circle cx="1153.84" cy="281.73" r="3.2" fill="#1d4ed8"/>
<circle cx="1156.75" cy="282.54" r="3.2" fill="#1d4ed8"/>
<circle cx="1159.65" cy="281.73" r="3.2" fill="#1d4ed8"/>
<circle cx="1162.56" cy="282.54" r="3.2" fill="#1d4ed8"/>
<circle cx="1165.47" cy="282.13" r="3.2" fill="#1d4ed8"/>
<circle cx="1168.37" cy="282.13" r="3.2" fill="#1d4ed8"/>
<circle cx="1171.28" cy="281.73" r="3.2" fill="#1d4ed8"/>
<circle cx="1174.19" cy="281.73" r="3.2" fill="#1d4ed8"/>
<circle cx="1177.09" cy="281.32" r="3.2" fill="#1d4ed8"/>
<circle cx="1180.00" cy="281.73" r="3.2" fill="#1d4ed8"/>
<text x="635" y="695" text-anchor="middle" font-size="14" fill="#111" font-family="sans-serif">Date</text>
<text x="24" y="325" text-anchor="middle" font-size="14" fill="#111" transform="rotate(-90 24,325)" font-family="sans-serif">Passed files</text>
</svg>
