<?xml version="1.0" encoding="UTF-8"?>
<svg xmlns="http://www.w3.org/2000/svg" width="1280" height="720" viewBox="0 0 1280 720">
<rect width="100%" height="100%" fill="#ffffff"/>
<text x="640" y="30" text-anchor="middle" font-size="22" font-family="sans-serif">Roast passed files history</text>
<line x1="90" y1="600" x2="1180" y2="600" stroke="#333" stroke-width="1.5"/>
<line x1="90" y1="50" x2="90" y2="600" stroke="#333" stroke-width="1.5"/>
<line x1="90" y1="600.00" x2="1180" y2="600.00" stroke="#e5e7eb" stroke-width="1"/>
<text x="78" y="605.00" text-anchor="end" font-size="12" fill="#111" font-family="sans-serif">0</text>
<line x1="90" y1="397.79" x2="1180" y2="397.79" stroke="#e5e7eb" stroke-width="1"/>
<text x="78" y="402.79" text-anchor="end" font-size="12" fill="#111" font-family="sans-serif">500</text>
<line x1="90" y1="195.59" x2="1180" y2="195.59" stroke="#e5e7eb" stroke-width="1"/>
<text x="78" y="200.59" text-anchor="end" font-size="12" fill="#111" font-family="sans-serif">1000</text>
<line x1="90.00" y1="600" x2="90.00" y2="606" stroke="#333" stroke-width="1"/>
<text x="90.00" y="624" text-anchor="end" font-size="11" fill="#111" transform="rotate(-40 90.00,624)" font-family="sans-serif">2026-02-12</text>
<line x1="225.56" y1="600" x2="225.56" y2="606" stroke="#333" stroke-width="1"/>
<text x="225.56" y="624" text-anchor="end" font-size="11" fill="#111" transform="rotate(-40 225.56,624)" font-family="sans-serif">2026-02-17</text>
<line x1="361.12" y1="600" x2="361.12" y2="606" stroke="#333" stroke-width="1"/>
<text x="361.12" y="624" text-anchor="end" font-size="11" fill="#111" transform="rotate(-40 361.12,624)" font-family="sans-serif">2026-02-22</text>
<line x1="496.68" y1="600" x2="496.68" y2="606" stroke="#333" stroke-width="1"/>
<text x="496.68" y="624" text-anchor="end" font-size="11" fill="#111" transform="rotate(-40 496.68,624)" font-family="sans-serif">2026-02-26</text>
<line x1="632.23" y1="600" x2="632.23" y2="606" stroke="#333" stroke-width="1"/>
<text x="632.23" y="624" text-anchor="end" font-size="11" fill="#111" transform="rotate(-40 632.23,624)" font-family="sans-serif">2026-02-28</text>
<line x1="767.79" y1="600" x2="767.79" y2="606" stroke="#333" stroke-width="1"/>
<text x="767.79" y="624" text-anchor="end" font-size="11" fill="#111" transform="rotate(-40 767.79,624)" font-family="sans-serif">2026-03-06</text>
<line x1="903.35" y1="600" x2="903.35" y2="606" stroke="#333" stroke-width="1"/>
<text x="903.35" y="624" text-anchor="end" font-size="11" fill="#111" transform="rotate(-40 903.35,624)" font-family="sans-serif">2026-03-08</text>
<line x1="1038.91" y1="600" x2="1038.91" y2="606" stroke="#333" stroke-width="1"/>
<text x="1038.91" y="624" text-anchor="end" font-size="11" fill="#111" transform="rotate(-40 1038.91,624)" font-family="sans-serif">2026-03-17</text>
<line x1="1174.47" y1="600" x2="1174.47" y2="606" stroke="#333" stroke-width="1"/>
<text x="1174.47" y="624" text-anchor="end" font-size="11" fill="#111" transform="rotate(-40 1174.47,624)" font-family="sans-serif">2026-03-19</text>
<line x1="1180.00" y1="600" x2="1180.00" y2="606" stroke="#333" stroke-width="1"/>
<text x="1180.00" y="624" text-anchor="end" font-size="11" fill="#111" transform="rotate(-40 1180.00,624)" font-family="sans-serif">2026-03-19</text>
<line x1="90" y1="75.88" x2="1180" y2="75.88" stroke="#dc2626" stroke-width="1.5" stroke-dasharray="8,4"/>
<text x="1184" y="79.88" font-size="12" fill="#dc2626" font-family="sans-serif">Goal: 1296</text>
<polyline fill="none" stroke="#2563eb" stroke-width="3" points="90.00,540.55 92.77,538.53 95.53,536.91 98.30,534.49 101.07,534.49 103.83,533.27 106.60,532.46 109.37,532.87 112.13,532.06 114.90,532.46 117.66,532.06 120.43,568.46 123.20,568.46 125.96,566.43 128.73,545.00 131.50,545.00 134.26,544.19 137.03,543.79 139.80,543.79 142.56,543.38 145.33,541.76 148.10,541.36 150.86,540.96 153.63,540.96 156.40,539.34 159.16,539.34 161.93,556.73 164.70,556.73 167.46,555.51 170.23,551.07 172.99,538.93 175.76,538.93 178.53,538.93 181.29,538.12 184.06,536.91 186.83,536.91 189.59,536.51 192.36,536.51 195.13,556.73 197.89,556.73 200.66,556.73 203.43,556.73 206.19,535.29 208.96,535.29 211.73,535.29 214.49,535.29 217.26,534.49 220.03,534.08 222.79,533.68 225.56,532.87 228.32,532.06 231.09,532.06 233.86,531.25 236.62,530.85 239.39,530.44 242.16,530.04 244.92,530.04 247.69,529.23 250.46,529.23 253.22,529.23 255.99,528.42 258.76,528.42 261.52,527.61 264.29,527.21 267.06,526.80 269.82,526.40 272.59,525.18 275.36,523.57 278.12,523.57 280.89,523.16 283.65,522.76 286.42,522.35 289.19,521.54 291.95,519.52 294.72,517.50 297.49,517.50 300.25,517.50 303.02,517.50 305.79,517.50 308.55,517.50 311.32,517.10 314.09,516.69 316.85,515.48 319.62,515.07 322.39,514.67 325.15,513.86 327.92,514.26 330.69,512.24 333.45,511.84 336.22,511.84 338.98,511.03 341.75,509.82 344.52,507.79 347.28,506.99 350.05,506.58 352.82,509.41 355.58,509.01 358.35,504.96 361.12,504.56 363.88,504.15 366.65,504.56 369.42,503.75 372.18,503.75 374.95,503.35 377.72,499.30 380.48,496.47 383.25,490.00 386.02,484.34 388.78,481.10 391.55,480.29 394.31,480.70 397.08,460.88 399.85,459.26 402.61,458.05 405.38,456.03 408.15,456.03 410.91,454.41 413.68,450.77 416.45,444.30 419.21,443.90 421.98,600.00 424.75,441.88 427.51,440.66 430.28,439.45 433.05,439.04 435.81,438.64 438.58,437.83 441.35,436.62 444.11,436.62 446.88,434.60 449.64,432.17 452.41,429.34 455.18,428.93 457.94,428.53 460.71,427.72 463.48,426.91 466.24,426.10 469.01,426.10 471.78,426.10 474.54,419.63 477.31,419.23 480.08,418.42 482.84,418.01 485.61,417.61 488.38,417.61 491.14,417.61 493.91,417.21 496.68,417.21 499.44,413.57 502.21,411.95 504.97,412.76 507.74,410.74 510.51,410.74 513.27,410.33 516.04,410.33 518.81,410.33 521.57,409.93 524.34,409.93 527.11,409.93 529.87,409.52 532.64,409.52 535.41,409.12 538.17,409.52 540.94,409.12 543.71,407.50 546.47,407.10 549.24,403.05 552.01,399.82 554.77,400.22 557.54,400.62 560.30,400.62 563.07,399.41 565.84,392.94 568.60,391.32 571.37,389.30 574.14,389.30 576.90,388.49 579.67,375.15 582.44,374.74 585.20,374.74 587.97,374.74 590.74,374.74 593.50,374.34 596.27,374.34 599.04,374.34 601.80,374.34 604.57,374.34 607.34,373.93 610.10,373.12 612.87,372.72 615.63,373.53 618.40,435.81 621.17,372.32 623.93,372.72 626.70,371.91 629.47,371.91 632.23,372.32 635.00,371.10 637.77,369.89 640.53,369.89 643.30,369.89 646.07,369.49 648.83,369.89 651.60,369.08 654.37,368.68 657.13,368.27 659.90,367.87 662.66,367.06 665.43,367.46 668.20,367.06 670.96,366.25 673.73,368.27 676.50,368.68 679.26,368.68 682.03,368.27 684.80,369.08 687.56,367.87 690.33,367.46 693.10,367.06 695.86,360.18 698.63,359.78 701.40,359.38 704.16,356.95 706.93,357.35 709.70,357.76 712.46,355.33 715.23,355.74 717.99,357.35 720.76,355.33 723.53,356.14 726.29,355.74 729.06,356.14 731.83,354.12 734.59,354.93 737.36,356.14 740.13,354.52 742.89,353.71 745.66,354.12 748.43,354.93 751.19,352.90 753.96,353.71 756.73,353.31 759.49,353.31 762.26,354.52 765.03,352.90 767.79,352.50 770.56,352.50 773.32,353.31 776.09,352.50 778.86,353.71 781.62,354.12 784.39,352.50 787.16,352.90 789.92,352.50 792.69,352.10 795.46,351.69 798.22,352.10 800.99,354.12 803.76,352.50 806.52,352.10 809.29,352.10 812.06,349.67 814.82,349.67 817.59,350.88 820.36,351.29 823.12,350.48 825.89,352.10 828.65,350.48 831.42,350.48 834.19,350.48 836.95,350.07 839.72,348.46 842.49,351.29 845.25,349.67 848.02,351.29 850.79,349.67 853.55,348.86 856.32,348.46 859.09,348.46 861.85,347.24 864.62,348.86 867.39,346.84 870.15,348.46 872.92,348.86 875.69,346.84 878.45,349.26 881.22,348.05 883.98,349.26 886.75,349.26 889.52,350.48 892.28,352.90 895.05,349.67 897.82,348.46 900.58,345.62 903.35,344.82 906.12,344.41 908.88,342.39 911.65,341.18 914.42,341.58 917.18,339.15 919.95,338.35 922.72,337.54 925.48,336.73 928.25,335.92 931.02,337.54 933.78,338.35 936.55,337.54 939.31,337.54 942.08,337.54 944.85,333.09 947.61,333.90 950.38,335.92 953.15,336.73 955.91,335.51 958.68,332.28 961.45,331.47 964.21,331.07 966.98,331.47 969.75,331.07 972.51,331.07 975.28,331.07 978.05,331.07 980.81,331.07 983.58,331.07 986.35,331.07 989.11,331.07 991.88,331.07 994.64,331.07 997.41,331.47 1000.18,331.88 1002.94,331.07 1005.71,331.47 1008.48,331.07 1011.24,331.47 1014.01,331.07 1016.78,324.19 1019.54,324.19 1022.31,318.93 1025.08,316.51 1027.84,310.44 1030.61,308.01 1033.38,600.00 1036.14,301.54 1038.91,290.22 1041.68,287.79 1044.44,286.18 1047.21,285.77 1049.97,285.77 1052.74,285.77 1055.51,286.18 1058.27,285.77 1061.04,285.77 1063.81,285.77 1066.57,283.35 1069.34,282.94 1072.11,282.94 1074.87,283.35 1077.64,282.94 1080.41,282.94 1083.17,283.75 1085.94,282.13 1088.71,282.13 1091.47,282.54 1094.24,282.13 1097.01,282.54 1099.77,282.94 1102.54,281.73 1105.30,282.54 1108.07,281.73 1110.84,282.54 1113.60,282.13 1116.37,282.13 1119.14,281.73 1121.90,281.73 1124.67,281.32 1127.44,281.73 1130.20,282.13 1132.97,281.32 1135.74,281.32 1138.50,282.54 1141.27,282.13 1144.04,281.32 1146.80,281.32 1149.57,281.32 1152.34,282.54 1155.10,282.13 1157.87,281.32 1160.63,282.13 1163.40,281.73 1166.17,282.13 1168.93,280.11 1171.70,280.11 1174.47,280.51 1177.23,279.71 1180.00,280.11"/>
<circle cx="90.00" cy="540.55" r="3.2" fill="#1d4ed8"/>
<circle cx="92.77" cy="538.53" r="3.2" fill="#1d4ed8"/>
<circle cx="95.53" cy="536.91" r="3.2" fill="#1d4ed8"/>
<circle cx="98.30" cy="534.49" r="3.2" fill="#1d4ed8"/>
<circle cx="101.07" cy="534.49" r="3.2" fill="#1d4ed8"/>
<circle cx="103.83" cy="533.27" r="3.2" fill="#1d4ed8"/>
<circle cx="106.60" cy="532.46" r="3.2" fill="#1d4ed8"/>
<circle cx="109.37" cy="532.87" r="3.2" fill="#1d4ed8"/>
<circle cx="112.13" cy="532.06" r="3.2" fill="#1d4ed8"/>
<circle cx="114.90" cy="532.46" r="3.2" fill="#1d4ed8"/>
<circle cx="117.66" cy="532.06" r="3.2" fill="#1d4ed8"/>
<circle cx="120.43" cy="568.46" r="3.2" fill="#1d4ed8"/>
<circle cx="123.20" cy="568.46" r="3.2" fill="#1d4ed8"/>
<circle cx="125.96" cy="566.43" r="3.2" fill="#1d4ed8"/>
<circle cx="128.73" cy="545.00" r="3.2" fill="#1d4ed8"/>
<circle cx="131.50" cy="545.00" r="3.2" fill="#1d4ed8"/>
<circle cx="134.26" cy="544.19" r="3.2" fill="#1d4ed8"/>
<circle cx="137.03" cy="543.79" r="3.2" fill="#1d4ed8"/>
<circle cx="139.80" cy="543.79" r="3.2" fill="#1d4ed8"/>
<circle cx="142.56" cy="543.38" r="3.2" fill="#1d4ed8"/>
<circle cx="145.33" cy="541.76" r="3.2" fill="#1d4ed8"/>
<circle cx="148.10" cy="541.36" r="3.2" fill="#1d4ed8"/>
<circle cx="150.86" cy="540.96" r="3.2" fill="#1d4ed8"/>
<circle cx="153.63" cy="540.96" r="3.2" fill="#1d4ed8"/>
<circle cx="156.40" cy="539.34" r="3.2" fill="#1d4ed8"/>
<circle cx="159.16" cy="539.34" r="3.2" fill="#1d4ed8"/>
<circle cx="161.93" cy="556.73" r="3.2" fill="#1d4ed8"/>
<circle cx="164.70" cy="556.73" r="3.2" fill="#1d4ed8"/>
<circle cx="167.46" cy="555.51" r="3.2" fill="#1d4ed8"/>
<circle cx="170.23" cy="551.07" r="3.2" fill="#1d4ed8"/>
<circle cx="172.99" cy="538.93" r="3.2" fill="#1d4ed8"/>
<circle cx="175.76" cy="538.93" r="3.2" fill="#1d4ed8"/>
<circle cx="178.53" cy="538.93" r="3.2" fill="#1d4ed8"/>
<circle cx="181.29" cy="538.12" r="3.2" fill="#1d4ed8"/>
<circle cx="184.06" cy="536.91" r="3.2" fill="#1d4ed8"/>
<circle cx="186.83" cy="536.91" r="3.2" fill="#1d4ed8"/>
<circle cx="189.59" cy="536.51" r="3.2" fill="#1d4ed8"/>
<circle cx="192.36" cy="536.51" r="3.2" fill="#1d4ed8"/>
<circle cx="195.13" cy="556.73" r="3.2" fill="#1d4ed8"/>
<circle cx="197.89" cy="556.73" r="3.2" fill="#1d4ed8"/>
<circle cx="200.66" cy="556.73" r="3.2" fill="#1d4ed8"/>
<circle cx="203.43" cy="556.73" r="3.2" fill="#1d4ed8"/>
<circle cx="206.19" cy="535.29" r="3.2" fill="#1d4ed8"/>
<circle cx="208.96" cy="535.29" r="3.2" fill="#1d4ed8"/>
<circle cx="211.73" cy="535.29" r="3.2" fill="#1d4ed8"/>
<circle cx="214.49" cy="535.29" r="3.2" fill="#1d4ed8"/>
<circle cx="217.26" cy="534.49" r="3.2" fill="#1d4ed8"/>
<circle cx="220.03" cy="534.08" r="3.2" fill="#1d4ed8"/>
<circle cx="222.79" cy="533.68" r="3.2" fill="#1d4ed8"/>
<circle cx="225.56" cy="532.87" r="3.2" fill="#1d4ed8"/>
<circle cx="228.32" cy="532.06" r="3.2" fill="#1d4ed8"/>
<circle cx="231.09" cy="532.06" r="3.2" fill="#1d4ed8"/>
<circle cx="233.86" cy="531.25" r="3.2" fill="#1d4ed8"/>
<circle cx="236.62" cy="530.85" r="3.2" fill="#1d4ed8"/>
<circle cx="239.39" cy="530.44" r="3.2" fill="#1d4ed8"/>
<circle cx="242.16" cy="530.04" r="3.2" fill="#1d4ed8"/>
<circle cx="244.92" cy="530.04" r="3.2" fill="#1d4ed8"/>
<circle cx="247.69" cy="529.23" r="3.2" fill="#1d4ed8"/>
<circle cx="250.46" cy="529.23" r="3.2" fill="#1d4ed8"/>
<circle cx="253.22" cy="529.23" r="3.2" fill="#1d4ed8"/>
<circle cx="255.99" cy="528.42" r="3.2" fill="#1d4ed8"/>
<circle cx="258.76" cy="528.42" r="3.2" fill="#1d4ed8"/>
<circle cx="261.52" cy="527.61" r="3.2" fill="#1d4ed8"/>
<circle cx="264.29" cy="527.21" r="3.2" fill="#1d4ed8"/>
<circle cx="267.06" cy="526.80" r="3.2" fill="#1d4ed8"/>
<circle cx="269.82" cy="526.40" r="3.2" fill="#1d4ed8"/>
<circle cx="272.59" cy="525.18" r="3.2" fill="#1d4ed8"/>
<circle cx="275.36" cy="523.57" r="3.2" fill="#1d4ed8"/>
<circle cx="278.12" cy="523.57" r="3.2" fill="#1d4ed8"/>
<circle cx="280.89" cy="523.16" r="3.2" fill="#1d4ed8"/>
<circle cx="283.65" cy="522.76" r="3.2" fill="#1d4ed8"/>
<circle cx="286.42" cy="522.35" r="3.2" fill="#1d4ed8"/>
<circle cx="289.19" cy="521.54" r="3.2" fill="#1d4ed8"/>
<circle cx="291.95" cy="519.52" r="3.2" fill="#1d4ed8"/>
<circle cx="294.72" cy="517.50" r="3.2" fill="#1d4ed8"/>
<circle cx="297.49" cy="517.50" r="3.2" fill="#1d4ed8"/>
<circle cx="300.25" cy="517.50" r="3.2" fill="#1d4ed8"/>
<circle cx="303.02" cy="517.50" r="3.2" fill="#1d4ed8"/>
<circle cx="305.79" cy="517.50" r="3.2" fill="#1d4ed8"/>
<circle cx="308.55" cy="517.50" r="3.2" fill="#1d4ed8"/>
<circle cx="311.32" cy="517.10" r="3.2" fill="#1d4ed8"/>
<circle cx="314.09" cy="516.69" r="3.2" fill="#1d4ed8"/>
<circle cx="316.85" cy="515.48" r="3.2" fill="#1d4ed8"/>
<circle cx="319.62" cy="515.07" r="3.2" fill="#1d4ed8"/>
<circle cx="322.39" cy="514.67" r="3.2" fill="#1d4ed8"/>
<circle cx="325.15" cy="513.86" r="3.2" fill="#1d4ed8"/>
<circle cx="327.92" cy="514.26" r="3.2" fill="#1d4ed8"/>
<circle cx="330.69" cy="512.24" r="3.2" fill="#1d4ed8"/>
<circle cx="333.45" cy="511.84" r="3.2" fill="#1d4ed8"/>
<circle cx="336.22" cy="511.84" r="3.2" fill="#1d4ed8"/>
<circle cx="338.98" cy="511.03" r="3.2" fill="#1d4ed8"/>
<circle cx="341.75" cy="509.82" r="3.2" fill="#1d4ed8"/>
<circle cx="344.52" cy="507.79" r="3.2" fill="#1d4ed8"/>
<circle cx="347.28" cy="506.99" r="3.2" fill="#1d4ed8"/>
<circle cx="350.05" cy="506.58" r="3.2" fill="#1d4ed8"/>
<circle cx="352.82" cy="509.41" r="3.2" fill="#1d4ed8"/>
<circle cx="355.58" cy="509.01" r="3.2" fill="#1d4ed8"/>
<circle cx="358.35" cy="504.96" r="3.2" fill="#1d4ed8"/>
<circle cx="361.12" cy="504.56" r="3.2" fill="#1d4ed8"/>
<circle cx="363.88" cy="504.15" r="3.2" fill="#1d4ed8"/>
<circle cx="366.65" cy="504.56" r="3.2" fill="#1d4ed8"/>
<circle cx="369.42" cy="503.75" r="3.2" fill="#1d4ed8"/>
<circle cx="372.18" cy="503.75" r="3.2" fill="#1d4ed8"/>
<circle cx="374.95" cy="503.35" r="3.2" fill="#1d4ed8"/>
<circle cx="377.72" cy="499.30" r="3.2" fill="#1d4ed8"/>
<circle cx="380.48" cy="496.47" r="3.2" fill="#1d4ed8"/>
<circle cx="383.25" cy="490.00" r="3.2" fill="#1d4ed8"/>
<circle cx="386.02" cy="484.34" r="3.2" fill="#1d4ed8"/>
<circle cx="388.78" cy="481.10" r="3.2" fill="#1d4ed8"/>
<circle cx="391.55" cy="480.29" r="3.2" fill="#1d4ed8"/>
<circle cx="394.31" cy="480.70" r="3.2" fill="#1d4ed8"/>
<circle cx="397.08" cy="460.88" r="3.2" fill="#1d4ed8"/>
<circle cx="399.85" cy="459.26" r="3.2" fill="#1d4ed8"/>
<circle cx="402.61" cy="458.05" r="3.2" fill="#1d4ed8"/>
<circle cx="405.38" cy="456.03" r="3.2" fill="#1d4ed8"/>
<circle cx="408.15" cy="456.03" r="3.2" fill="#1d4ed8"/>
<circle cx="410.91" cy="454.41" r="3.2" fill="#1d4ed8"/>
<circle cx="413.68" cy="450.77" r="3.2" fill="#1d4ed8"/>
<circle cx="416.45" cy="444.30" r="3.2" fill="#1d4ed8"/>
<circle cx="419.21" cy="443.90" r="3.2" fill="#1d4ed8"/>
<circle cx="421.98" cy="600.00" r="3.2" fill="#1d4ed8"/>
<circle cx="424.75" cy="441.88" r="3.2" fill="#1d4ed8"/>
<circle cx="427.51" cy="440.66" r="3.2" fill="#1d4ed8"/>
<circle cx="430.28" cy="439.45" r="3.2" fill="#1d4ed8"/>
<circle cx="433.05" cy="439.04" r="3.2" fill="#1d4ed8"/>
<circle cx="435.81" cy="438.64" r="3.2" fill="#1d4ed8"/>
<circle cx="438.58" cy="437.83" r="3.2" fill="#1d4ed8"/>
<circle cx="441.35" cy="436.62" r="3.2" fill="#1d4ed8"/>
<circle cx="444.11" cy="436.62" r="3.2" fill="#1d4ed8"/>
<circle cx="446.88" cy="434.60" r="3.2" fill="#1d4ed8"/>
<circle cx="449.64" cy="432.17" r="3.2" fill="#1d4ed8"/>
<circle cx="452.41" cy="429.34" r="3.2" fill="#1d4ed8"/>
<circle cx="455.18" cy="428.93" r="3.2" fill="#1d4ed8"/>
<circle cx="457.94" cy="428.53" r="3.2" fill="#1d4ed8"/>
<circle cx="460.71" cy="427.72" r="3.2" fill="#1d4ed8"/>
<circle cx="463.48" cy="426.91" r="3.2" fill="#1d4ed8"/>
<circle cx="466.24" cy="426.10" r="3.2" fill="#1d4ed8"/>
<circle cx="469.01" cy="426.10" r="3.2" fill="#1d4ed8"/>
<circle cx="471.78" cy="426.10" r="3.2" fill="#1d4ed8"/>
<circle cx="474.54" cy="419.63" r="3.2" fill="#1d4ed8"/>
<circle cx="477.31" cy="419.23" r="3.2" fill="#1d4ed8"/>
<circle cx="480.08" cy="418.42" r="3.2" fill="#1d4ed8"/>
<circle cx="482.84" cy="418.01" r="3.2" fill="#1d4ed8"/>
<circle cx="485.61" cy="417.61" r="3.2" fill="#1d4ed8"/>
<circle cx="488.38" cy="417.61" r="3.2" fill="#1d4ed8"/>
<circle cx="491.14" cy="417.61" r="3.2" fill="#1d4ed8"/>
<circle cx="493.91" cy="417.21" r="3.2" fill="#1d4ed8"/>
<circle cx="496.68" cy="417.21" r="3.2" fill="#1d4ed8"/>
<circle cx="499.44" cy="413.57" r="3.2" fill="#1d4ed8"/>
<circle cx="502.21" cy="411.95" r="3.2" fill="#1d4ed8"/>
<circle cx="504.97" cy="412.76" r="3.2" fill="#1d4ed8"/>
<circle cx="507.74" cy="410.74" r="3.2" fill="#1d4ed8"/>
<circle cx="510.51" cy="410.74" r="3.2" fill="#1d4ed8"/>
<circle cx="513.27" cy="410.33" r="3.2" fill="#1d4ed8"/>
<circle cx="516.04" cy="410.33" r="3.2" fill="#1d4ed8"/>
<circle cx="518.81" cy="410.33" r="3.2" fill="#1d4ed8"/>
<circle cx="521.57" cy="409.93" r="3.2" fill="#1d4ed8"/>
<circle cx="524.34" cy="409.93" r="3.2" fill="#1d4ed8"/>
<circle cx="527.11" cy="409.93" r="3.2" fill="#1d4ed8"/>
<circle cx="529.87" cy="409.52" r="3.2" fill="#1d4ed8"/>
<circle cx="532.64" cy="409.52" r="3.2" fill="#1d4ed8"/>
<circle cx="535.41" cy="409.12" r="3.2" fill="#1d4ed8"/>
<circle cx="538.17" cy="409.52" r="3.2" fill="#1d4ed8"/>
<circle cx="540.94" cy="409.12" r="3.2" fill="#1d4ed8"/>
<circle cx="543.71" cy="407.50" r="3.2" fill="#1d4ed8"/>
<circle cx="546.47" cy="407.10" r="3.2" fill="#1d4ed8"/>
<circle cx="549.24" cy="403.05" r="3.2" fill="#1d4ed8"/>
<circle cx="552.01" cy="399.82" r="3.2" fill="#1d4ed8"/>
<circle cx="554.77" cy="400.22" r="3.2" fill="#1d4ed8"/>
<circle cx="557.54" cy="400.62" r="3.2" fill="#1d4ed8"/>
<circle cx="560.30" cy="400.62" r="3.2" fill="#1d4ed8"/>
<circle cx="563.07" cy="399.41" r="3.2" fill="#1d4ed8"/>
<circle cx="565.84" cy="392.94" r="3.2" fill="#1d4ed8"/>
<circle cx="568.60" cy="391.32" r="3.2" fill="#1d4ed8"/>
<circle cx="571.37" cy="389.30" r="3.2" fill="#1d4ed8"/>
<circle cx="574.14" cy="389.30" r="3.2" fill="#1d4ed8"/>
<circle cx="576.90" cy="388.49" r="3.2" fill="#1d4ed8"/>
<circle cx="579.67" cy="375.15" r="3.2" fill="#1d4ed8"/>
<circle cx="582.44" cy="374.74" r="3.2" fill="#1d4ed8"/>
<circle cx="585.20" cy="374.74" r="3.2" fill="#1d4ed8"/>
<circle cx="587.97" cy="374.74" r="3.2" fill="#1d4ed8"/>
<circle cx="590.74" cy="374.74" r="3.2" fill="#1d4ed8"/>
<circle cx="593.50" cy="374.34" r="3.2" fill="#1d4ed8"/>
<circle cx="596.27" cy="374.34" r="3.2" fill="#1d4ed8"/>
<circle cx="599.04" cy="374.34" r="3.2" fill="#1d4ed8"/>
<circle cx="601.80" cy="374.34" r="3.2" fill="#1d4ed8"/>
<circle cx="604.57" cy="374.34" r="3.2" fill="#1d4ed8"/>
<circle cx="607.34" cy="373.93" r="3.2" fill="#1d4ed8"/>
<circle cx="610.10" cy="373.12" r="3.2" fill="#1d4ed8"/>
<circle cx="612.87" cy="372.72" r="3.2" fill="#1d4ed8"/>
<circle cx="615.63" cy="373.53" r="3.2" fill="#1d4ed8"/>
<circle cx="618.40" cy="435.81" r="3.2" fill="#1d4ed8"/>
<circle cx="621.17" cy="372.32" r="3.2" fill="#1d4ed8"/>
<circle cx="623.93" cy="372.72" r="3.2" fill="#1d4ed8"/>
<circle cx="626.70" cy="371.91" r="3.2" fill="#1d4ed8"/>
<circle cx="629.47" cy="371.91" r="3.2" fill="#1d4ed8"/>
<circle cx="632.23" cy="372.32" r="3.2" fill="#1d4ed8"/>
<circle cx="635.00" cy="371.10" r="3.2" fill="#1d4ed8"/>
<circle cx="637.77" cy="369.89" r="3.2" fill="#1d4ed8"/>
<circle cx="640.53" cy="369.89" r="3.2" fill="#1d4ed8"/>
<circle cx="643.30" cy="369.89" r="3.2" fill="#1d4ed8"/>
<circle cx="646.07" cy="369.49" r="3.2" fill="#1d4ed8"/>
<circle cx="648.83" cy="369.89" r="3.2" fill="#1d4ed8"/>
<circle cx="651.60" cy="369.08" r="3.2" fill="#1d4ed8"/>
<circle cx="654.37" cy="368.68" r="3.2" fill="#1d4ed8"/>
<circle cx="657.13" cy="368.27" r="3.2" fill="#1d4ed8"/>
<circle cx="659.90" cy="367.87" r="3.2" fill="#1d4ed8"/>
<circle cx="662.66" cy="367.06" r="3.2" fill="#1d4ed8"/>
<circle cx="665.43" cy="367.46" r="3.2" fill="#1d4ed8"/>
<circle cx="668.20" cy="367.06" r="3.2" fill="#1d4ed8"/>
<circle cx="670.96" cy="366.25" r="3.2" fill="#1d4ed8"/>
<circle cx="673.73" cy="368.27" r="3.2" fill="#1d4ed8"/>
<circle cx="676.50" cy="368.68" r="3.2" fill="#1d4ed8"/>
<circle cx="679.26" cy="368.68" r="3.2" fill="#1d4ed8"/>
<circle cx="682.03" cy="368.27" r="3.2" fill="#1d4ed8"/>
<circle cx="684.80" cy="369.08" r="3.2" fill="#1d4ed8"/>
<circle cx="687.56" cy="367.87" r="3.2" fill="#1d4ed8"/>
<circle cx="690.33" cy="367.46" r="3.2" fill="#1d4ed8"/>
<circle cx="693.10" cy="367.06" r="3.2" fill="#1d4ed8"/>
<circle cx="695.86" cy="360.18" r="3.2" fill="#1d4ed8"/>
<circle cx="698.63" cy="359.78" r="3.2" fill="#1d4ed8"/>
<circle cx="701.40" cy="359.38" r="3.2" fill="#1d4ed8"/>
<circle cx="704.16" cy="356.95" r="3.2" fill="#1d4ed8"/>
<circle cx="706.93" cy="357.35" r="3.2" fill="#1d4ed8"/>
<circle cx="709.70" cy="357.76" r="3.2" fill="#1d4ed8"/>
<circle cx="712.46" cy="355.33" r="3.2" fill="#1d4ed8"/>
<circle cx="715.23" cy="355.74" r="3.2" fill="#1d4ed8"/>
<circle cx="717.99" cy="357.35" r="3.2" fill="#1d4ed8"/>
<circle cx="720.76" cy="355.33" r="3.2" fill="#1d4ed8"/>
<circle cx="723.53" cy="356.14" r="3.2" fill="#1d4ed8"/>
<circle cx="726.29" cy="355.74" r="3.2" fill="#1d4ed8"/>
<circle cx="729.06" cy="356.14" r="3.2" fill="#1d4ed8"/>
<circle cx="731.83" cy="354.12" r="3.2" fill="#1d4ed8"/>
<circle cx="734.59" cy="354.93" r="3.2" fill="#1d4ed8"/>
<circle cx="737.36" cy="356.14" r="3.2" fill="#1d4ed8"/>
<circle cx="740.13" cy="354.52" r="3.2" fill="#1d4ed8"/>
<circle cx="742.89" cy="353.71" r="3.2" fill="#1d4ed8"/>
<circle cx="745.66" cy="354.12" r="3.2" fill="#1d4ed8"/>
<circle cx="748.43" cy="354.93" r="3.2" fill="#1d4ed8"/>
<circle cx="751.19" cy="352.90" r="3.2" fill="#1d4ed8"/>
<circle cx="753.96" cy="353.71" r="3.2" fill="#1d4ed8"/>
<circle cx="756.73" cy="353.31" r="3.2" fill="#1d4ed8"/>
<circle cx="759.49" cy="353.31" r="3.2" fill="#1d4ed8"/>
<circle cx="762.26" cy="354.52" r="3.2" fill="#1d4ed8"/>
<circle cx="765.03" cy="352.90" r="3.2" fill="#1d4ed8"/>
<circle cx="767.79" cy="352.50" r="3.2" fill="#1d4ed8"/>
<circle cx="770.56" cy="352.50" r="3.2" fill="#1d4ed8"/>
<circle cx="773.32" cy="353.31" r="3.2" fill="#1d4ed8"/>
<circle cx="776.09" cy="352.50" r="3.2" fill="#1d4ed8"/>
<circle cx="778.86" cy="353.71" r="3.2" fill="#1d4ed8"/>
<circle cx="781.62" cy="354.12" r="3.2" fill="#1d4ed8"/>
<circle cx="784.39" cy="352.50" r="3.2" fill="#1d4ed8"/>
<circle cx="787.16" cy="352.90" r="3.2" fill="#1d4ed8"/>
<circle cx="789.92" cy="352.50" r="3.2" fill="#1d4ed8"/>
<circle cx="792.69" cy="352.10" r="3.2" fill="#1d4ed8"/>
<circle cx="795.46" cy="351.69" r="3.2" fill="#1d4ed8"/>
<circle cx="798.22" cy="352.10" r="3.2" fill="#1d4ed8"/>
<circle cx="800.99" cy="354.12" r="3.2" fill="#1d4ed8"/>
<circle cx="803.76" cy="352.50" r="3.2" fill="#1d4ed8"/>
<circle cx="806.52" cy="352.10" r="3.2" fill="#1d4ed8"/>
<circle cx="809.29" cy="352.10" r="3.2" fill="#1d4ed8"/>
<circle cx="812.06" cy="349.67" r="3.2" fill="#1d4ed8"/>
<circle cx="814.82" cy="349.67" r="3.2" fill="#1d4ed8"/>
<circle cx="817.59" cy="350.88" r="3.2" fill="#1d4ed8"/>
<circle cx="820.36" cy="351.29" r="3.2" fill="#1d4ed8"/>
<circle cx="823.12" cy="350.48" r="3.2" fill="#1d4ed8"/>
<circle cx="825.89" cy="352.10" r="3.2" fill="#1d4ed8"/>
<circle cx="828.65" cy="350.48" r="3.2" fill="#1d4ed8"/>
<circle cx="831.42" cy="350.48" r="3.2" fill="#1d4ed8"/>
<circle cx="834.19" cy="350.48" r="3.2" fill="#1d4ed8"/>
<circle cx="836.95" cy="350.07" r="3.2" fill="#1d4ed8"/>
<circle cx="839.72" cy="348.46" r="3.2" fill="#1d4ed8"/>
<circle cx="842.49" cy="351.29" r="3.2" fill="#1d4ed8"/>
<circle cx="845.25" cy="349.67" r="3.2" fill="#1d4ed8"/>
<circle cx="848.02" cy="351.29" r="3.2" fill="#1d4ed8"/>
<circle cx="850.79" cy="349.67" r="3.2" fill="#1d4ed8"/>
<circle cx="853.55" cy="348.86" r="3.2" fill="#1d4ed8"/>
<circle cx="856.32" cy="348.46" r="3.2" fill="#1d4ed8"/>
<circle cx="859.09" cy="348.46" r="3.2" fill="#1d4ed8"/>
<circle cx="861.85" cy="347.24" r="3.2" fill="#1d4ed8"/>
<circle cx="864.62" cy="348.86" r="3.2" fill="#1d4ed8"/>
<circle cx="867.39" cy="346.84" r="3.2" fill="#1d4ed8"/>
<circle cx="870.15" cy="348.46" r="3.2" fill="#1d4ed8"/>
<circle cx="872.92" cy="348.86" r="3.2" fill="#1d4ed8"/>
<circle cx="875.69" cy="346.84" r="3.2" fill="#1d4ed8"/>
<circle cx="878.45" cy="349.26" r="3.2" fill="#1d4ed8"/>
<circle cx="881.22" cy="348.05" r="3.2" fill="#1d4ed8"/>
<circle cx="883.98" cy="349.26" r="3.2" fill="#1d4ed8"/>
<circle cx="886.75" cy="349.26" r="3.2" fill="#1d4ed8"/>
<circle cx="889.52" cy="350.48" r="3.2" fill="#1d4ed8"/>
<circle cx="892.28" cy="352.90" r="3.2" fill="#1d4ed8"/>
<circle cx="895.05" cy="349.67" r="3.2" fill="#1d4ed8"/>
<circle cx="897.82" cy="348.46" r="3.2" fill="#1d4ed8"/>
<circle cx="900.58" cy="345.62" r="3.2" fill="#1d4ed8"/>
<circle cx="903.35" cy="344.82" r="3.2" fill="#1d4ed8"/>
<circle cx="906.12" cy="344.41" r="3.2" fill="#1d4ed8"/>
<circle cx="908.88" cy="342.39" r="3.2" fill="#1d4ed8"/>
<circle cx="911.65" cy="341.18" r="3.2" fill="#1d4ed8"/>
<circle cx="914.42" cy="341.58" r="3.2" fill="#1d4ed8"/>
<circle cx="917.18" cy="339.15" r="3.2" fill="#1d4ed8"/>
<circle cx="919.95" cy="338.35" r="3.2" fill="#1d4ed8"/>
<circle cx="922.72" cy="337.54" r="3.2" fill="#1d4ed8"/>
<circle cx="925.48" cy="336.73" r="3.2" fill="#1d4ed8"/>
<circle cx="928.25" cy="335.92" r="3.2" fill="#1d4ed8"/>
<circle cx="931.02" cy="337.54" r="3.2" fill="#1d4ed8"/>
<circle cx="933.78" cy="338.35" r="3.2" fill="#1d4ed8"/>
<circle cx="936.55" cy="337.54" r="3.2" fill="#1d4ed8"/>
<circle cx="939.31" cy="337.54" r="3.2" fill="#1d4ed8"/>
<circle cx="942.08" cy="337.54" r="3.2" fill="#1d4ed8"/>
<circle cx="944.85" cy="333.09" r="3.2" fill="#1d4ed8"/>
<circle cx="947.61" cy="333.90" r="3.2" fill="#1d4ed8"/>
<circle cx="950.38" cy="335.92" r="3.2" fill="#1d4ed8"/>
<circle cx="953.15" cy="336.73" r="3.2" fill="#1d4ed8"/>
<circle cx="955.91" cy="335.51" r="3.2" fill="#1d4ed8"/>
<circle cx="958.68" cy="332.28" r="3.2" fill="#1d4ed8"/>
<circle cx="961.45" cy="331.47" r="3.2" fill="#1d4ed8"/>
<circle cx="964.21" cy="331.07" r="3.2" fill="#1d4ed8"/>
<circle cx="966.98" cy="331.47" r="3.2" fill="#1d4ed8"/>
<circle cx="969.75" cy="331.07" r="3.2" fill="#1d4ed8"/>
<circle cx="972.51" cy="331.07" r="3.2" fill="#1d4ed8"/>
<circle cx="975.28" cy="331.07" r="3.2" fill="#1d4ed8"/>
<circle cx="978.05" cy="331.07" r="3.2" fill="#1d4ed8"/>
<circle cx="980.81" cy="331.07" r="3.2" fill="#1d4ed8"/>
<circle cx="983.58" cy="331.07" r="3.2" fill="#1d4ed8"/>
<circle cx="986.35" cy="331.07" r="3.2" fill="#1d4ed8"/>
<circle cx="989.11" cy="331.07" r="3.2" fill="#1d4ed8"/>
<circle cx="991.88" cy="331.07" r="3.2" fill="#1d4ed8"/>
<circle cx="994.64" cy="331.07" r="3.2" fill="#1d4ed8"/>
<circle cx="997.41" cy="331.47" r="3.2" fill="#1d4ed8"/>
<circle cx="1000.18" cy="331.88" r="3.2" fill="#1d4ed8"/>
<circle cx="1002.94" cy="331.07" r="3.2" fill="#1d4ed8"/>
<circle cx="1005.71" cy="331.47" r="3.2" fill="#1d4ed8"/>
<circle cx="1008.48" cy="331.07" r="3.2" fill="#1d4ed8"/>
<circle cx="1011.24" cy="331.47" r="3.2" fill="#1d4ed8"/>
<circle cx="1014.01" cy="331.07" r="3.2" fill="#1d4ed8"/>
<circle cx="1016.78" cy="324.19" r="3.2" fill="#1d4ed8"/>
<circle cx="1019.54" cy="324.19" r="3.2" fill="#1d4ed8"/>
<circle cx="1022.31" cy="318.93" r="3.2" fill="#1d4ed8"/>
<circle cx="1025.08" cy="316.51" r="3.2" fill="#1d4ed8"/>
<circle cx="1027.84" cy="310.44" r="3.2" fill="#1d4ed8"/>
<circle cx="1030.61" cy="308.01" r="3.2" fill="#1d4ed8"/>
<circle cx="1033.38" cy="600.00" r="3.2" fill="#1d4ed8"/>
<circle cx="1036.14" cy="301.54" r="3.2" fill="#1d4ed8"/>
<circle cx="1038.91" cy="290.22" r="3.2" fill="#1d4ed8"/>
<circle cx="1041.68" cy="287.79" r="3.2" fill="#1d4ed8"/>
<circle cx="1044.44" cy="286.18" r="3.2" fill="#1d4ed8"/>
<circle cx="1047.21" cy="285.77" r="3.2" fill="#1d4ed8"/>
<circle cx="1049.97" cy="285.77" r="3.2" fill="#1d4ed8"/>
<circle cx="1052.74" cy="285.77" r="3.2" fill="#1d4ed8"/>
<circle cx="1055.51" cy="286.18" r="3.2" fill="#1d4ed8"/>
<circle cx="1058.27" cy="285.77" r="3.2" fill="#1d4ed8"/>
<circle cx="1061.04" cy="285.77" r="3.2" fill="#1d4ed8"/>
<circle cx="1063.81" cy="285.77" r="3.2" fill="#1d4ed8"/>
<circle cx="1066.57" cy="283.35" r="3.2" fill="#1d4ed8"/>
<circle cx="1069.34" cy="282.94" r="3.2" fill="#1d4ed8"/>
<circle cx="1072.11" cy="282.94" r="3.2" fill="#1d4ed8"/>
<circle cx="1074.87" cy="283.35" r="3.2" fill="#1d4ed8"/>
<circle cx="1077.64" cy="282.94" r="3.2" fill="#1d4ed8"/>
<circle cx="1080.41" cy="282.94" r="3.2" fill="#1d4ed8"/>
<circle cx="1083.17" cy="283.75" r="3.2" fill="#1d4ed8"/>
<circle cx="1085.94" cy="282.13" r="3.2" fill="#1d4ed8"/>
<circle cx="1088.71" cy="282.13" r="3.2" fill="#1d4ed8"/>
<circle cx="1091.47" cy="282.54" r="3.2" fill="#1d4ed8"/>
<circle cx="1094.24" cy="282.13" r="3.2" fill="#1d4ed8"/>
<circle cx="1097.01" cy="282.54" r="3.2" fill="#1d4ed8"/>
<circle cx="1099.77" cy="282.94" r="3.2" fill="#1d4ed8"/>
<circle cx="1102.54" cy="281.73" r="3.2" fill="#1d4ed8"/>
<circle cx="1105.30" cy="282.54" r="3.2" fill="#1d4ed8"/>
<circle cx="1108.07" cy="281.73" r="3.2" fill="#1d4ed8"/>
<circle cx="1110.84" cy="282.54" r="3.2" fill="#1d4ed8"/>
<circle cx="1113.60" cy="282.13" r="3.2" fill="#1d4ed8"/>
<circle cx="1116.37" cy="282.13" r="3.2" fill="#1d4ed8"/>
<circle cx="1119.14" cy="281.73" r="3.2" fill="#1d4ed8"/>
<circle cx="1121.90" cy="281.73" r="3.2" fill="#1d4ed8"/>
<circle cx="1124.67" cy="281.32" r="3.2" fill="#1d4ed8"/>
<circle cx="1127.44" cy="281.73" r="3.2" fill="#1d4ed8"/>
<circle cx="1130.20" cy="282.13" r="3.2" fill="#1d4ed8"/>
<circle cx="1132.97" cy="281.32" r="3.2" fill="#1d4ed8"/>
<circle cx="1135.74" cy="281.32" r="3.2" fill="#1d4ed8"/>
<circle cx="1138.50" cy="282.54" r="3.2" fill="#1d4ed8"/>
<circle cx="1141.27" cy="282.13" r="3.2" fill="#1d4ed8"/>
<circle cx="1144.04" cy="281.32" r="3.2" fill="#1d4ed8"/>
<circle cx="1146.80" cy="281.32" r="3.2" fill="#1d4ed8"/>
<circle cx="1149.57" cy="281.32" r="3.2" fill="#1d4ed8"/>
<circle cx="1152.34" cy="282.54" r="3.2" fill="#1d4ed8"/>
<circle cx="1155.10" cy="282.13" r="3.2" fill="#1d4ed8"/>
<circle cx="1157.87" cy="281.32" r="3.2" fill="#1d4ed8"/>
<circle cx="1160.63" cy="282.13" r="3.2" fill="#1d4ed8"/>
<circle cx="1163.40" cy="281.73" r="3.2" fill="#1d4ed8"/>
<circle cx="1166.17" cy="282.13" r="3.2" fill="#1d4ed8"/>
<circle cx="1168.93" cy="280.11" r="3.2" fill="#1d4ed8"/>
<circle cx="1171.70" cy="280.11" r="3.2" fill="#1d4ed8"/>
<circle cx="1174.47" cy="280.51" r="3.2" fill="#1d4ed8"/>
<circle cx="1177.23" cy="279.71" r="3.2" fill="#1d4ed8"/>
<circle cx="1180.00" cy="280.11" r="3.2" fill="#1d4ed8"/>
<text x="635" y="695" text-anchor="middle" font-size="14" fill="#111" font-family="sans-serif">Date</text>
<text x="24" y="325" text-anchor="middle" font-size="14" fill="#111" transform="rotate(-90 24,325)" font-family="sans-serif">Passed files</text>
</svg>
