<?xml version="1.0" encoding="UTF-8"?>
<svg xmlns="http://www.w3.org/2000/svg" width="1280" height="720" viewBox="0 0 1280 720">
<rect width="100%" height="100%" fill="#ffffff"/>
<text x="640" y="30" text-anchor="middle" font-size="22" font-family="sans-serif">Roast passed files history</text>
<line x1="90" y1="600" x2="1180" y2="600" stroke="#333" stroke-width="1.5"/>
<line x1="90" y1="50" x2="90" y2="600" stroke="#333" stroke-width="1.5"/>
<line x1="90" y1="600.00" x2="1180" y2="600.00" stroke="#e5e7eb" stroke-width="1"/>
<text x="78" y="605.00" text-anchor="end" font-size="12" fill="#111" font-family="sans-serif">0</text>
<line x1="90" y1="397.79" x2="1180" y2="397.79" stroke="#e5e7eb" stroke-width="1"/>
<text x="78" y="402.79" text-anchor="end" font-size="12" fill="#111" font-family="sans-serif">500</text>
<line x1="90" y1="195.59" x2="1180" y2="195.59" stroke="#e5e7eb" stroke-width="1"/>
<text x="78" y="200.59" text-anchor="end" font-size="12" fill="#111" font-family="sans-serif">1000</text>
<line x1="90.00" y1="600" x2="90.00" y2="606" stroke="#333" stroke-width="1"/>
<text x="90.00" y="624" text-anchor="end" font-size="11" fill="#111" transform="rotate(-40 90.00,624)" font-family="sans-serif">2026-02-12</text>
<line x1="225.89" y1="600" x2="225.89" y2="606" stroke="#333" stroke-width="1"/>
<text x="225.89" y="624" text-anchor="end" font-size="11" fill="#111" transform="rotate(-40 225.89,624)" font-family="sans-serif">2026-02-17</text>
<line x1="361.78" y1="600" x2="361.78" y2="606" stroke="#333" stroke-width="1"/>
<text x="361.78" y="624" text-anchor="end" font-size="11" fill="#111" transform="rotate(-40 361.78,624)" font-family="sans-serif">2026-02-22</text>
<line x1="497.67" y1="600" x2="497.67" y2="606" stroke="#333" stroke-width="1"/>
<text x="497.67" y="624" text-anchor="end" font-size="11" fill="#111" transform="rotate(-40 497.67,624)" font-family="sans-serif">2026-02-26</text>
<line x1="633.55" y1="600" x2="633.55" y2="606" stroke="#333" stroke-width="1"/>
<text x="633.55" y="624" text-anchor="end" font-size="11" fill="#111" transform="rotate(-40 633.55,624)" font-family="sans-serif">2026-02-28</text>
<line x1="769.44" y1="600" x2="769.44" y2="606" stroke="#333" stroke-width="1"/>
<text x="769.44" y="624" text-anchor="end" font-size="11" fill="#111" transform="rotate(-40 769.44,624)" font-family="sans-serif">2026-03-06</text>
<line x1="905.33" y1="600" x2="905.33" y2="606" stroke="#333" stroke-width="1"/>
<text x="905.33" y="624" text-anchor="end" font-size="11" fill="#111" transform="rotate(-40 905.33,624)" font-family="sans-serif">2026-03-07</text>
<line x1="1041.22" y1="600" x2="1041.22" y2="606" stroke="#333" stroke-width="1"/>
<text x="1041.22" y="624" text-anchor="end" font-size="11" fill="#111" transform="rotate(-40 1041.22,624)" font-family="sans-serif">2026-03-11</text>
<line x1="1177.11" y1="600" x2="1177.11" y2="606" stroke="#333" stroke-width="1"/>
<text x="1177.11" y="624" text-anchor="end" font-size="11" fill="#111" transform="rotate(-40 1177.11,624)" font-family="sans-serif">2026-03-18</text>
<line x1="1180.00" y1="600" x2="1180.00" y2="606" stroke="#333" stroke-width="1"/>
<text x="1180.00" y="624" text-anchor="end" font-size="11" fill="#111" transform="rotate(-40 1180.00,624)" font-family="sans-serif">2026-03-18</text>
<line x1="90" y1="75.88" x2="1180" y2="75.88" stroke="#dc2626" stroke-width="1.5" stroke-dasharray="8,4"/>
<text x="1184" y="79.88" font-size="12" fill="#dc2626" font-family="sans-serif">Goal: 1296</text>
<polyline fill="none" stroke="#2563eb" stroke-width="3" points="90.00,540.55 92.89,538.53 95.78,536.91 98.67,534.49 101.56,534.49 104.46,533.27 107.35,532.46 110.24,532.87 113.13,532.06 116.02,532.46 118.91,532.06 121.80,568.46 124.69,568.46 127.59,566.43 130.48,545.00 133.37,545.00 136.26,544.19 139.15,543.79 142.04,543.79 144.93,543.38 147.82,541.76 150.72,541.36 153.61,540.96 156.50,540.96 159.39,539.34 162.28,539.34 165.17,556.73 168.06,556.73 170.95,555.51 173.85,551.07 176.74,538.93 179.63,538.93 182.52,538.93 185.41,538.12 188.30,536.91 191.19,536.91 194.08,536.51 196.98,536.51 199.87,556.73 202.76,556.73 205.65,556.73 208.54,556.73 211.43,535.29 214.32,535.29 217.21,535.29 220.11,535.29 223.00,534.49 225.89,534.08 228.78,533.68 231.67,532.87 234.56,532.06 237.45,532.06 240.34,531.25 243.24,530.85 246.13,530.44 249.02,530.04 251.91,530.04 254.80,529.23 257.69,529.23 260.58,529.23 263.47,528.42 266.37,528.42 269.26,527.61 272.15,527.21 275.04,526.80 277.93,526.40 280.82,525.18 283.71,523.57 286.60,523.57 289.50,523.16 292.39,522.76 295.28,522.35 298.17,521.54 301.06,519.52 303.95,517.50 306.84,517.50 309.73,517.50 312.63,517.50 315.52,517.50 318.41,517.50 321.30,517.10 324.19,516.69 327.08,515.48 329.97,515.07 332.86,514.67 335.76,513.86 338.65,514.26 341.54,512.24 344.43,511.84 347.32,511.84 350.21,511.03 353.10,509.82 355.99,507.79 358.89,506.99 361.78,506.58 364.67,509.41 367.56,509.01 370.45,504.96 373.34,504.56 376.23,504.15 379.12,504.56 382.02,503.75 384.91,503.75 387.80,503.35 390.69,499.30 393.58,496.47 396.47,490.00 399.36,484.34 402.25,481.10 405.15,480.29 408.04,480.70 410.93,460.88 413.82,459.26 416.71,458.05 419.60,456.03 422.49,456.03 425.38,454.41 428.28,450.77 431.17,444.30 434.06,443.90 436.95,600.00 439.84,441.88 442.73,440.66 445.62,439.45 448.51,439.04 451.41,438.64 454.30,437.83 457.19,436.62 460.08,436.62 462.97,434.60 465.86,432.17 468.75,429.34 471.64,428.93 474.54,428.53 477.43,427.72 480.32,426.91 483.21,426.10 486.10,426.10 488.99,426.10 491.88,419.63 494.77,419.23 497.67,418.42 500.56,418.01 503.45,417.61 506.34,417.61 509.23,417.61 512.12,417.21 515.01,417.21 517.90,413.57 520.80,411.95 523.69,412.76 526.58,410.74 529.47,410.74 532.36,410.33 535.25,410.33 538.14,410.33 541.03,409.93 543.93,409.93 546.82,409.93 549.71,409.52 552.60,409.52 555.49,409.12 558.38,409.52 561.27,409.12 564.16,407.50 567.06,407.10 569.95,403.05 572.84,399.82 575.73,400.22 578.62,400.62 581.51,400.62 584.40,399.41 587.29,392.94 590.19,391.32 593.08,389.30 595.97,389.30 598.86,388.49 601.75,375.15 604.64,374.74 607.53,374.74 610.42,374.74 613.32,374.74 616.21,374.34 619.10,374.34 621.99,374.34 624.88,374.34 627.77,374.34 630.66,373.93 633.55,373.12 636.45,372.72 639.34,373.53 642.23,435.81 645.12,372.32 648.01,372.72 650.90,371.91 653.79,371.91 656.68,372.32 659.58,371.10 662.47,369.89 665.36,369.89 668.25,369.89 671.14,369.49 674.03,369.89 676.92,369.08 679.81,368.68 682.71,368.27 685.60,367.87 688.49,367.06 691.38,367.46 694.27,367.06 697.16,366.25 700.05,368.27 702.94,368.68 705.84,368.68 708.73,368.27 711.62,369.08 714.51,367.87 717.40,367.46 720.29,367.06 723.18,360.18 726.07,359.78 728.97,359.38 731.86,356.95 734.75,357.35 737.64,357.76 740.53,355.33 743.42,355.74 746.31,357.35 749.20,355.33 752.10,356.14 754.99,355.74 757.88,356.14 760.77,354.12 763.66,354.93 766.55,356.14 769.44,354.52 772.33,353.71 775.23,354.12 778.12,354.93 781.01,352.90 783.90,353.71 786.79,353.31 789.68,353.31 792.57,354.52 795.46,352.90 798.36,352.50 801.25,352.50 804.14,353.31 807.03,352.50 809.92,353.71 812.81,354.12 815.70,352.50 818.59,352.90 821.49,352.50 824.38,352.10 827.27,351.69 830.16,352.10 833.05,354.12 835.94,352.50 838.83,352.10 841.72,352.10 844.62,349.67 847.51,349.67 850.40,350.88 853.29,351.29 856.18,350.48 859.07,352.10 861.96,350.48 864.85,350.48 867.75,350.48 870.64,350.07 873.53,348.46 876.42,351.29 879.31,349.67 882.20,351.29 885.09,349.67 887.98,348.86 890.88,348.46 893.77,348.46 896.66,347.24 899.55,348.86 902.44,346.84 905.33,348.46 908.22,348.86 911.11,346.84 914.01,349.26 916.90,348.05 919.79,349.26 922.68,349.26 925.57,350.48 928.46,352.90 931.35,349.67 934.24,348.46 937.14,345.62 940.03,344.82 942.92,344.41 945.81,342.39 948.70,341.18 951.59,341.58 954.48,339.15 957.37,338.35 960.27,337.54 963.16,336.73 966.05,335.92 968.94,337.54 971.83,338.35 974.72,337.54 977.61,337.54 980.50,337.54 983.40,333.09 986.29,333.90 989.18,335.92 992.07,336.73 994.96,335.51 997.85,332.28 1000.74,331.47 1003.63,331.07 1006.53,331.47 1009.42,331.07 1012.31,331.07 1015.20,331.07 1018.09,331.07 1020.98,331.07 1023.87,331.07 1026.76,331.07 1029.66,331.07 1032.55,331.07 1035.44,331.07 1038.33,331.47 1041.22,331.88 1044.11,331.07 1047.00,331.47 1049.89,331.07 1052.79,331.47 1055.68,331.07 1058.57,324.19 1061.46,324.19 1064.35,318.93 1067.24,316.51 1070.13,310.44 1073.02,308.01 1075.92,600.00 1078.81,301.54 1081.70,290.22 1084.59,287.79 1087.48,286.18 1090.37,285.77 1093.26,285.77 1096.15,285.77 1099.05,286.18 1101.94,285.77 1104.83,285.77 1107.72,285.77 1110.61,283.35 1113.50,282.94 1116.39,282.94 1119.28,283.35 1122.18,282.94 1125.07,282.94 1127.96,283.75 1130.85,282.13 1133.74,282.13 1136.63,282.54 1139.52,282.13 1142.41,282.54 1145.31,282.94 1148.20,281.73 1151.09,282.54 1153.98,281.73 1156.87,282.54 1159.76,282.13 1162.65,282.13 1165.54,281.73 1168.44,281.73 1171.33,281.32 1174.22,281.73 1177.11,282.13 1180.00,281.32"/>
<circle cx="90.00" cy="540.55" r="3.2" fill="#1d4ed8"/>
<circle cx="92.89" cy="538.53" r="3.2" fill="#1d4ed8"/>
<circle cx="95.78" cy="536.91" r="3.2" fill="#1d4ed8"/>
<circle cx="98.67" cy="534.49" r="3.2" fill="#1d4ed8"/>
<circle cx="101.56" cy="534.49" r="3.2" fill="#1d4ed8"/>
<circle cx="104.46" cy="533.27" r="3.2" fill="#1d4ed8"/>
<circle cx="107.35" cy="532.46" r="3.2" fill="#1d4ed8"/>
<circle cx="110.24" cy="532.87" r="3.2" fill="#1d4ed8"/>
<circle cx="113.13" cy="532.06" r="3.2" fill="#1d4ed8"/>
<circle cx="116.02" cy="532.46" r="3.2" fill="#1d4ed8"/>
<circle cx="118.91" cy="532.06" r="3.2" fill="#1d4ed8"/>
<circle cx="121.80" cy="568.46" r="3.2" fill="#1d4ed8"/>
<circle cx="124.69" cy="568.46" r="3.2" fill="#1d4ed8"/>
<circle cx="127.59" cy="566.43" r="3.2" fill="#1d4ed8"/>
<circle cx="130.48" cy="545.00" r="3.2" fill="#1d4ed8"/>
<circle cx="133.37" cy="545.00" r="3.2" fill="#1d4ed8"/>
<circle cx="136.26" cy="544.19" r="3.2" fill="#1d4ed8"/>
<circle cx="139.15" cy="543.79" r="3.2" fill="#1d4ed8"/>
<circle cx="142.04" cy="543.79" r="3.2" fill="#1d4ed8"/>
<circle cx="144.93" cy="543.38" r="3.2" fill="#1d4ed8"/>
<circle cx="147.82" cy="541.76" r="3.2" fill="#1d4ed8"/>
<circle cx="150.72" cy="541.36" r="3.2" fill="#1d4ed8"/>
<circle cx="153.61" cy="540.96" r="3.2" fill="#1d4ed8"/>
<circle cx="156.50" cy="540.96" r="3.2" fill="#1d4ed8"/>
<circle cx="159.39" cy="539.34" r="3.2" fill="#1d4ed8"/>
<circle cx="162.28" cy="539.34" r="3.2" fill="#1d4ed8"/>
<circle cx="165.17" cy="556.73" r="3.2" fill="#1d4ed8"/>
<circle cx="168.06" cy="556.73" r="3.2" fill="#1d4ed8"/>
<circle cx="170.95" cy="555.51" r="3.2" fill="#1d4ed8"/>
<circle cx="173.85" cy="551.07" r="3.2" fill="#1d4ed8"/>
<circle cx="176.74" cy="538.93" r="3.2" fill="#1d4ed8"/>
<circle cx="179.63" cy="538.93" r="3.2" fill="#1d4ed8"/>
<circle cx="182.52" cy="538.93" r="3.2" fill="#1d4ed8"/>
<circle cx="185.41" cy="538.12" r="3.2" fill="#1d4ed8"/>
<circle cx="188.30" cy="536.91" r="3.2" fill="#1d4ed8"/>
<circle cx="191.19" cy="536.91" r="3.2" fill="#1d4ed8"/>
<circle cx="194.08" cy="536.51" r="3.2" fill="#1d4ed8"/>
<circle cx="196.98" cy="536.51" r="3.2" fill="#1d4ed8"/>
<circle cx="199.87" cy="556.73" r="3.2" fill="#1d4ed8"/>
<circle cx="202.76" cy="556.73" r="3.2" fill="#1d4ed8"/>
<circle cx="205.65" cy="556.73" r="3.2" fill="#1d4ed8"/>
<circle cx="208.54" cy="556.73" r="3.2" fill="#1d4ed8"/>
<circle cx="211.43" cy="535.29" r="3.2" fill="#1d4ed8"/>
<circle cx="214.32" cy="535.29" r="3.2" fill="#1d4ed8"/>
<circle cx="217.21" cy="535.29" r="3.2" fill="#1d4ed8"/>
<circle cx="220.11" cy="535.29" r="3.2" fill="#1d4ed8"/>
<circle cx="223.00" cy="534.49" r="3.2" fill="#1d4ed8"/>
<circle cx="225.89" cy="534.08" r="3.2" fill="#1d4ed8"/>
<circle cx="228.78" cy="533.68" r="3.2" fill="#1d4ed8"/>
<circle cx="231.67" cy="532.87" r="3.2" fill="#1d4ed8"/>
<circle cx="234.56" cy="532.06" r="3.2" fill="#1d4ed8"/>
<circle cx="237.45" cy="532.06" r="3.2" fill="#1d4ed8"/>
<circle cx="240.34" cy="531.25" r="3.2" fill="#1d4ed8"/>
<circle cx="243.24" cy="530.85" r="3.2" fill="#1d4ed8"/>
<circle cx="246.13" cy="530.44" r="3.2" fill="#1d4ed8"/>
<circle cx="249.02" cy="530.04" r="3.2" fill="#1d4ed8"/>
<circle cx="251.91" cy="530.04" r="3.2" fill="#1d4ed8"/>
<circle cx="254.80" cy="529.23" r="3.2" fill="#1d4ed8"/>
<circle cx="257.69" cy="529.23" r="3.2" fill="#1d4ed8"/>
<circle cx="260.58" cy="529.23" r="3.2" fill="#1d4ed8"/>
<circle cx="263.47" cy="528.42" r="3.2" fill="#1d4ed8"/>
<circle cx="266.37" cy="528.42" r="3.2" fill="#1d4ed8"/>
<circle cx="269.26" cy="527.61" r="3.2" fill="#1d4ed8"/>
<circle cx="272.15" cy="527.21" r="3.2" fill="#1d4ed8"/>
<circle cx="275.04" cy="526.80" r="3.2" fill="#1d4ed8"/>
<circle cx="277.93" cy="526.40" r="3.2" fill="#1d4ed8"/>
<circle cx="280.82" cy="525.18" r="3.2" fill="#1d4ed8"/>
<circle cx="283.71" cy="523.57" r="3.2" fill="#1d4ed8"/>
<circle cx="286.60" cy="523.57" r="3.2" fill="#1d4ed8"/>
<circle cx="289.50" cy="523.16" r="3.2" fill="#1d4ed8"/>
<circle cx="292.39" cy="522.76" r="3.2" fill="#1d4ed8"/>
<circle cx="295.28" cy="522.35" r="3.2" fill="#1d4ed8"/>
<circle cx="298.17" cy="521.54" r="3.2" fill="#1d4ed8"/>
<circle cx="301.06" cy="519.52" r="3.2" fill="#1d4ed8"/>
<circle cx="303.95" cy="517.50" r="3.2" fill="#1d4ed8"/>
<circle cx="306.84" cy="517.50" r="3.2" fill="#1d4ed8"/>
<circle cx="309.73" cy="517.50" r="3.2" fill="#1d4ed8"/>
<circle cx="312.63" cy="517.50" r="3.2" fill="#1d4ed8"/>
<circle cx="315.52" cy="517.50" r="3.2" fill="#1d4ed8"/>
<circle cx="318.41" cy="517.50" r="3.2" fill="#1d4ed8"/>
<circle cx="321.30" cy="517.10" r="3.2" fill="#1d4ed8"/>
<circle cx="324.19" cy="516.69" r="3.2" fill="#1d4ed8"/>
<circle cx="327.08" cy="515.48" r="3.2" fill="#1d4ed8"/>
<circle cx="329.97" cy="515.07" r="3.2" fill="#1d4ed8"/>
<circle cx="332.86" cy="514.67" r="3.2" fill="#1d4ed8"/>
<circle cx="335.76" cy="513.86" r="3.2" fill="#1d4ed8"/>
<circle cx="338.65" cy="514.26" r="3.2" fill="#1d4ed8"/>
<circle cx="341.54" cy="512.24" r="3.2" fill="#1d4ed8"/>
<circle cx="344.43" cy="511.84" r="3.2" fill="#1d4ed8"/>
<circle cx="347.32" cy="511.84" r="3.2" fill="#1d4ed8"/>
<circle cx="350.21" cy="511.03" r="3.2" fill="#1d4ed8"/>
<circle cx="353.10" cy="509.82" r="3.2" fill="#1d4ed8"/>
<circle cx="355.99" cy="507.79" r="3.2" fill="#1d4ed8"/>
<circle cx="358.89" cy="506.99" r="3.2" fill="#1d4ed8"/>
<circle cx="361.78" cy="506.58" r="3.2" fill="#1d4ed8"/>
<circle cx="364.67" cy="509.41" r="3.2" fill="#1d4ed8"/>
<circle cx="367.56" cy="509.01" r="3.2" fill="#1d4ed8"/>
<circle cx="370.45" cy="504.96" r="3.2" fill="#1d4ed8"/>
<circle cx="373.34" cy="504.56" r="3.2" fill="#1d4ed8"/>
<circle cx="376.23" cy="504.15" r="3.2" fill="#1d4ed8"/>
<circle cx="379.12" cy="504.56" r="3.2" fill="#1d4ed8"/>
<circle cx="382.02" cy="503.75" r="3.2" fill="#1d4ed8"/>
<circle cx="384.91" cy="503.75" r="3.2" fill="#1d4ed8"/>
<circle cx="387.80" cy="503.35" r="3.2" fill="#1d4ed8"/>
<circle cx="390.69" cy="499.30" r="3.2" fill="#1d4ed8"/>
<circle cx="393.58" cy="496.47" r="3.2" fill="#1d4ed8"/>
<circle cx="396.47" cy="490.00" r="3.2" fill="#1d4ed8"/>
<circle cx="399.36" cy="484.34" r="3.2" fill="#1d4ed8"/>
<circle cx="402.25" cy="481.10" r="3.2" fill="#1d4ed8"/>
<circle cx="405.15" cy="480.29" r="3.2" fill="#1d4ed8"/>
<circle cx="408.04" cy="480.70" r="3.2" fill="#1d4ed8"/>
<circle cx="410.93" cy="460.88" r="3.2" fill="#1d4ed8"/>
<circle cx="413.82" cy="459.26" r="3.2" fill="#1d4ed8"/>
<circle cx="416.71" cy="458.05" r="3.2" fill="#1d4ed8"/>
<circle cx="419.60" cy="456.03" r="3.2" fill="#1d4ed8"/>
<circle cx="422.49" cy="456.03" r="3.2" fill="#1d4ed8"/>
<circle cx="425.38" cy="454.41" r="3.2" fill="#1d4ed8"/>
<circle cx="428.28" cy="450.77" r="3.2" fill="#1d4ed8"/>
<circle cx="431.17" cy="444.30" r="3.2" fill="#1d4ed8"/>
<circle cx="434.06" cy="443.90" r="3.2" fill="#1d4ed8"/>
<circle cx="436.95" cy="600.00" r="3.2" fill="#1d4ed8"/>
<circle cx="439.84" cy="441.88" r="3.2" fill="#1d4ed8"/>
<circle cx="442.73" cy="440.66" r="3.2" fill="#1d4ed8"/>
<circle cx="445.62" cy="439.45" r="3.2" fill="#1d4ed8"/>
<circle cx="448.51" cy="439.04" r="3.2" fill="#1d4ed8"/>
<circle cx="451.41" cy="438.64" r="3.2" fill="#1d4ed8"/>
<circle cx="454.30" cy="437.83" r="3.2" fill="#1d4ed8"/>
<circle cx="457.19" cy="436.62" r="3.2" fill="#1d4ed8"/>
<circle cx="460.08" cy="436.62" r="3.2" fill="#1d4ed8"/>
<circle cx="462.97" cy="434.60" r="3.2" fill="#1d4ed8"/>
<circle cx="465.86" cy="432.17" r="3.2" fill="#1d4ed8"/>
<circle cx="468.75" cy="429.34" r="3.2" fill="#1d4ed8"/>
<circle cx="471.64" cy="428.93" r="3.2" fill="#1d4ed8"/>
<circle cx="474.54" cy="428.53" r="3.2" fill="#1d4ed8"/>
<circle cx="477.43" cy="427.72" r="3.2" fill="#1d4ed8"/>
<circle cx="480.32" cy="426.91" r="3.2" fill="#1d4ed8"/>
<circle cx="483.21" cy="426.10" r="3.2" fill="#1d4ed8"/>
<circle cx="486.10" cy="426.10" r="3.2" fill="#1d4ed8"/>
<circle cx="488.99" cy="426.10" r="3.2" fill="#1d4ed8"/>
<circle cx="491.88" cy="419.63" r="3.2" fill="#1d4ed8"/>
<circle cx="494.77" cy="419.23" r="3.2" fill="#1d4ed8"/>
<circle cx="497.67" cy="418.42" r="3.2" fill="#1d4ed8"/>
<circle cx="500.56" cy="418.01" r="3.2" fill="#1d4ed8"/>
<circle cx="503.45" cy="417.61" r="3.2" fill="#1d4ed8"/>
<circle cx="506.34" cy="417.61" r="3.2" fill="#1d4ed8"/>
<circle cx="509.23" cy="417.61" r="3.2" fill="#1d4ed8"/>
<circle cx="512.12" cy="417.21" r="3.2" fill="#1d4ed8"/>
<circle cx="515.01" cy="417.21" r="3.2" fill="#1d4ed8"/>
<circle cx="517.90" cy="413.57" r="3.2" fill="#1d4ed8"/>
<circle cx="520.80" cy="411.95" r="3.2" fill="#1d4ed8"/>
<circle cx="523.69" cy="412.76" r="3.2" fill="#1d4ed8"/>
<circle cx="526.58" cy="410.74" r="3.2" fill="#1d4ed8"/>
<circle cx="529.47" cy="410.74" r="3.2" fill="#1d4ed8"/>
<circle cx="532.36" cy="410.33" r="3.2" fill="#1d4ed8"/>
<circle cx="535.25" cy="410.33" r="3.2" fill="#1d4ed8"/>
<circle cx="538.14" cy="410.33" r="3.2" fill="#1d4ed8"/>
<circle cx="541.03" cy="409.93" r="3.2" fill="#1d4ed8"/>
<circle cx="543.93" cy="409.93" r="3.2" fill="#1d4ed8"/>
<circle cx="546.82" cy="409.93" r="3.2" fill="#1d4ed8"/>
<circle cx="549.71" cy="409.52" r="3.2" fill="#1d4ed8"/>
<circle cx="552.60" cy="409.52" r="3.2" fill="#1d4ed8"/>
<circle cx="555.49" cy="409.12" r="3.2" fill="#1d4ed8"/>
<circle cx="558.38" cy="409.52" r="3.2" fill="#1d4ed8"/>
<circle cx="561.27" cy="409.12" r="3.2" fill="#1d4ed8"/>
<circle cx="564.16" cy="407.50" r="3.2" fill="#1d4ed8"/>
<circle cx="567.06" cy="407.10" r="3.2" fill="#1d4ed8"/>
<circle cx="569.95" cy="403.05" r="3.2" fill="#1d4ed8"/>
<circle cx="572.84" cy="399.82" r="3.2" fill="#1d4ed8"/>
<circle cx="575.73" cy="400.22" r="3.2" fill="#1d4ed8"/>
<circle cx="578.62" cy="400.62" r="3.2" fill="#1d4ed8"/>
<circle cx="581.51" cy="400.62" r="3.2" fill="#1d4ed8"/>
<circle cx="584.40" cy="399.41" r="3.2" fill="#1d4ed8"/>
<circle cx="587.29" cy="392.94" r="3.2" fill="#1d4ed8"/>
<circle cx="590.19" cy="391.32" r="3.2" fill="#1d4ed8"/>
<circle cx="593.08" cy="389.30" r="3.2" fill="#1d4ed8"/>
<circle cx="595.97" cy="389.30" r="3.2" fill="#1d4ed8"/>
<circle cx="598.86" cy="388.49" r="3.2" fill="#1d4ed8"/>
<circle cx="601.75" cy="375.15" r="3.2" fill="#1d4ed8"/>
<circle cx="604.64" cy="374.74" r="3.2" fill="#1d4ed8"/>
<circle cx="607.53" cy="374.74" r="3.2" fill="#1d4ed8"/>
<circle cx="610.42" cy="374.74" r="3.2" fill="#1d4ed8"/>
<circle cx="613.32" cy="374.74" r="3.2" fill="#1d4ed8"/>
<circle cx="616.21" cy="374.34" r="3.2" fill="#1d4ed8"/>
<circle cx="619.10" cy="374.34" r="3.2" fill="#1d4ed8"/>
<circle cx="621.99" cy="374.34" r="3.2" fill="#1d4ed8"/>
<circle cx="624.88" cy="374.34" r="3.2" fill="#1d4ed8"/>
<circle cx="627.77" cy="374.34" r="3.2" fill="#1d4ed8"/>
<circle cx="630.66" cy="373.93" r="3.2" fill="#1d4ed8"/>
<circle cx="633.55" cy="373.12" r="3.2" fill="#1d4ed8"/>
<circle cx="636.45" cy="372.72" r="3.2" fill="#1d4ed8"/>
<circle cx="639.34" cy="373.53" r="3.2" fill="#1d4ed8"/>
<circle cx="642.23" cy="435.81" r="3.2" fill="#1d4ed8"/>
<circle cx="645.12" cy="372.32" r="3.2" fill="#1d4ed8"/>
<circle cx="648.01" cy="372.72" r="3.2" fill="#1d4ed8"/>
<circle cx="650.90" cy="371.91" r="3.2" fill="#1d4ed8"/>
<circle cx="653.79" cy="371.91" r="3.2" fill="#1d4ed8"/>
<circle cx="656.68" cy="372.32" r="3.2" fill="#1d4ed8"/>
<circle cx="659.58" cy="371.10" r="3.2" fill="#1d4ed8"/>
<circle cx="662.47" cy="369.89" r="3.2" fill="#1d4ed8"/>
<circle cx="665.36" cy="369.89" r="3.2" fill="#1d4ed8"/>
<circle cx="668.25" cy="369.89" r="3.2" fill="#1d4ed8"/>
<circle cx="671.14" cy="369.49" r="3.2" fill="#1d4ed8"/>
<circle cx="674.03" cy="369.89" r="3.2" fill="#1d4ed8"/>
<circle cx="676.92" cy="369.08" r="3.2" fill="#1d4ed8"/>
<circle cx="679.81" cy="368.68" r="3.2" fill="#1d4ed8"/>
<circle cx="682.71" cy="368.27" r="3.2" fill="#1d4ed8"/>
<circle cx="685.60" cy="367.87" r="3.2" fill="#1d4ed8"/>
<circle cx="688.49" cy="367.06" r="3.2" fill="#1d4ed8"/>
<circle cx="691.38" cy="367.46" r="3.2" fill="#1d4ed8"/>
<circle cx="694.27" cy="367.06" r="3.2" fill="#1d4ed8"/>
<circle cx="697.16" cy="366.25" r="3.2" fill="#1d4ed8"/>
<circle cx="700.05" cy="368.27" r="3.2" fill="#1d4ed8"/>
<circle cx="702.94" cy="368.68" r="3.2" fill="#1d4ed8"/>
<circle cx="705.84" cy="368.68" r="3.2" fill="#1d4ed8"/>
<circle cx="708.73" cy="368.27" r="3.2" fill="#1d4ed8"/>
<circle cx="711.62" cy="369.08" r="3.2" fill="#1d4ed8"/>
<circle cx="714.51" cy="367.87" r="3.2" fill="#1d4ed8"/>
<circle cx="717.40" cy="367.46" r="3.2" fill="#1d4ed8"/>
<circle cx="720.29" cy="367.06" r="3.2" fill="#1d4ed8"/>
<circle cx="723.18" cy="360.18" r="3.2" fill="#1d4ed8"/>
<circle cx="726.07" cy="359.78" r="3.2" fill="#1d4ed8"/>
<circle cx="728.97" cy="359.38" r="3.2" fill="#1d4ed8"/>
<circle cx="731.86" cy="356.95" r="3.2" fill="#1d4ed8"/>
<circle cx="734.75" cy="357.35" r="3.2" fill="#1d4ed8"/>
<circle cx="737.64" cy="357.76" r="3.2" fill="#1d4ed8"/>
<circle cx="740.53" cy="355.33" r="3.2" fill="#1d4ed8"/>
<circle cx="743.42" cy="355.74" r="3.2" fill="#1d4ed8"/>
<circle cx="746.31" cy="357.35" r="3.2" fill="#1d4ed8"/>
<circle cx="749.20" cy="355.33" r="3.2" fill="#1d4ed8"/>
<circle cx="752.10" cy="356.14" r="3.2" fill="#1d4ed8"/>
<circle cx="754.99" cy="355.74" r="3.2" fill="#1d4ed8"/>
<circle cx="757.88" cy="356.14" r="3.2" fill="#1d4ed8"/>
<circle cx="760.77" cy="354.12" r="3.2" fill="#1d4ed8"/>
<circle cx="763.66" cy="354.93" r="3.2" fill="#1d4ed8"/>
<circle cx="766.55" cy="356.14" r="3.2" fill="#1d4ed8"/>
<circle cx="769.44" cy="354.52" r="3.2" fill="#1d4ed8"/>
<circle cx="772.33" cy="353.71" r="3.2" fill="#1d4ed8"/>
<circle cx="775.23" cy="354.12" r="3.2" fill="#1d4ed8"/>
<circle cx="778.12" cy="354.93" r="3.2" fill="#1d4ed8"/>
<circle cx="781.01" cy="352.90" r="3.2" fill="#1d4ed8"/>
<circle cx="783.90" cy="353.71" r="3.2" fill="#1d4ed8"/>
<circle cx="786.79" cy="353.31" r="3.2" fill="#1d4ed8"/>
<circle cx="789.68" cy="353.31" r="3.2" fill="#1d4ed8"/>
<circle cx="792.57" cy="354.52" r="3.2" fill="#1d4ed8"/>
<circle cx="795.46" cy="352.90" r="3.2" fill="#1d4ed8"/>
<circle cx="798.36" cy="352.50" r="3.2" fill="#1d4ed8"/>
<circle cx="801.25" cy="352.50" r="3.2" fill="#1d4ed8"/>
<circle cx="804.14" cy="353.31" r="3.2" fill="#1d4ed8"/>
<circle cx="807.03" cy="352.50" r="3.2" fill="#1d4ed8"/>
<circle cx="809.92" cy="353.71" r="3.2" fill="#1d4ed8"/>
<circle cx="812.81" cy="354.12" r="3.2" fill="#1d4ed8"/>
<circle cx="815.70" cy="352.50" r="3.2" fill="#1d4ed8"/>
<circle cx="818.59" cy="352.90" r="3.2" fill="#1d4ed8"/>
<circle cx="821.49" cy="352.50" r="3.2" fill="#1d4ed8"/>
<circle cx="824.38" cy="352.10" r="3.2" fill="#1d4ed8"/>
<circle cx="827.27" cy="351.69" r="3.2" fill="#1d4ed8"/>
<circle cx="830.16" cy="352.10" r="3.2" fill="#1d4ed8"/>
<circle cx="833.05" cy="354.12" r="3.2" fill="#1d4ed8"/>
<circle cx="835.94" cy="352.50" r="3.2" fill="#1d4ed8"/>
<circle cx="838.83" cy="352.10" r="3.2" fill="#1d4ed8"/>
<circle cx="841.72" cy="352.10" r="3.2" fill="#1d4ed8"/>
<circle cx="844.62" cy="349.67" r="3.2" fill="#1d4ed8"/>
<circle cx="847.51" cy="349.67" r="3.2" fill="#1d4ed8"/>
<circle cx="850.40" cy="350.88" r="3.2" fill="#1d4ed8"/>
<circle cx="853.29" cy="351.29" r="3.2" fill="#1d4ed8"/>
<circle cx="856.18" cy="350.48" r="3.2" fill="#1d4ed8"/>
<circle cx="859.07" cy="352.10" r="3.2" fill="#1d4ed8"/>
<circle cx="861.96" cy="350.48" r="3.2" fill="#1d4ed8"/>
<circle cx="864.85" cy="350.48" r="3.2" fill="#1d4ed8"/>
<circle cx="867.75" cy="350.48" r="3.2" fill="#1d4ed8"/>
<circle cx="870.64" cy="350.07" r="3.2" fill="#1d4ed8"/>
<circle cx="873.53" cy="348.46" r="3.2" fill="#1d4ed8"/>
<circle cx="876.42" cy="351.29" r="3.2" fill="#1d4ed8"/>
<circle cx="879.31" cy="349.67" r="3.2" fill="#1d4ed8"/>
<circle cx="882.20" cy="351.29" r="3.2" fill="#1d4ed8"/>
<circle cx="885.09" cy="349.67" r="3.2" fill="#1d4ed8"/>
<circle cx="887.98" cy="348.86" r="3.2" fill="#1d4ed8"/>
<circle cx="890.88" cy="348.46" r="3.2" fill="#1d4ed8"/>
<circle cx="893.77" cy="348.46" r="3.2" fill="#1d4ed8"/>
<circle cx="896.66" cy="347.24" r="3.2" fill="#1d4ed8"/>
<circle cx="899.55" cy="348.86" r="3.2" fill="#1d4ed8"/>
<circle cx="902.44" cy="346.84" r="3.2" fill="#1d4ed8"/>
<circle cx="905.33" cy="348.46" r="3.2" fill="#1d4ed8"/>
<circle cx="908.22" cy="348.86" r="3.2" fill="#1d4ed8"/>
<circle cx="911.11" cy="346.84" r="3.2" fill="#1d4ed8"/>
<circle cx="914.01" cy="349.26" r="3.2" fill="#1d4ed8"/>
<circle cx="916.90" cy="348.05" r="3.2" fill="#1d4ed8"/>
<circle cx="919.79" cy="349.26" r="3.2" fill="#1d4ed8"/>
<circle cx="922.68" cy="349.26" r="3.2" fill="#1d4ed8"/>
<circle cx="925.57" cy="350.48" r="3.2" fill="#1d4ed8"/>
<circle cx="928.46" cy="352.90" r="3.2" fill="#1d4ed8"/>
<circle cx="931.35" cy="349.67" r="3.2" fill="#1d4ed8"/>
<circle cx="934.24" cy="348.46" r="3.2" fill="#1d4ed8"/>
<circle cx="937.14" cy="345.62" r="3.2" fill="#1d4ed8"/>
<circle cx="940.03" cy="344.82" r="3.2" fill="#1d4ed8"/>
<circle cx="942.92" cy="344.41" r="3.2" fill="#1d4ed8"/>
<circle cx="945.81" cy="342.39" r="3.2" fill="#1d4ed8"/>
<circle cx="948.70" cy="341.18" r="3.2" fill="#1d4ed8"/>
<circle cx="951.59" cy="341.58" r="3.2" fill="#1d4ed8"/>
<circle cx="954.48" cy="339.15" r="3.2" fill="#1d4ed8"/>
<circle cx="957.37" cy="338.35" r="3.2" fill="#1d4ed8"/>
<circle cx="960.27" cy="337.54" r="3.2" fill="#1d4ed8"/>
<circle cx="963.16" cy="336.73" r="3.2" fill="#1d4ed8"/>
<circle cx="966.05" cy="335.92" r="3.2" fill="#1d4ed8"/>
<circle cx="968.94" cy="337.54" r="3.2" fill="#1d4ed8"/>
<circle cx="971.83" cy="338.35" r="3.2" fill="#1d4ed8"/>
<circle cx="974.72" cy="337.54" r="3.2" fill="#1d4ed8"/>
<circle cx="977.61" cy="337.54" r="3.2" fill="#1d4ed8"/>
<circle cx="980.50" cy="337.54" r="3.2" fill="#1d4ed8"/>
<circle cx="983.40" cy="333.09" r="3.2" fill="#1d4ed8"/>
<circle cx="986.29" cy="333.90" r="3.2" fill="#1d4ed8"/>
<circle cx="989.18" cy="335.92" r="3.2" fill="#1d4ed8"/>
<circle cx="992.07" cy="336.73" r="3.2" fill="#1d4ed8"/>
<circle cx="994.96" cy="335.51" r="3.2" fill="#1d4ed8"/>
<circle cx="997.85" cy="332.28" r="3.2" fill="#1d4ed8"/>
<circle cx="1000.74" cy="331.47" r="3.2" fill="#1d4ed8"/>
<circle cx="1003.63" cy="331.07" r="3.2" fill="#1d4ed8"/>
<circle cx="1006.53" cy="331.47" r="3.2" fill="#1d4ed8"/>
<circle cx="1009.42" cy="331.07" r="3.2" fill="#1d4ed8"/>
<circle cx="1012.31" cy="331.07" r="3.2" fill="#1d4ed8"/>
<circle cx="1015.20" cy="331.07" r="3.2" fill="#1d4ed8"/>
<circle cx="1018.09" cy="331.07" r="3.2" fill="#1d4ed8"/>
<circle cx="1020.98" cy="331.07" r="3.2" fill="#1d4ed8"/>
<circle cx="1023.87" cy="331.07" r="3.2" fill="#1d4ed8"/>
<circle cx="1026.76" cy="331.07" r="3.2" fill="#1d4ed8"/>
<circle cx="1029.66" cy="331.07" r="3.2" fill="#1d4ed8"/>
<circle cx="1032.55" cy="331.07" r="3.2" fill="#1d4ed8"/>
<circle cx="1035.44" cy="331.07" r="3.2" fill="#1d4ed8"/>
<circle cx="1038.33" cy="331.47" r="3.2" fill="#1d4ed8"/>
<circle cx="1041.22" cy="331.88" r="3.2" fill="#1d4ed8"/>
<circle cx="1044.11" cy="331.07" r="3.2" fill="#1d4ed8"/>
<circle cx="1047.00" cy="331.47" r="3.2" fill="#1d4ed8"/>
<circle cx="1049.89" cy="331.07" r="3.2" fill="#1d4ed8"/>
<circle cx="1052.79" cy="331.47" r="3.2" fill="#1d4ed8"/>
<circle cx="1055.68" cy="331.07" r="3.2" fill="#1d4ed8"/>
<circle cx="1058.57" cy="324.19" r="3.2" fill="#1d4ed8"/>
<circle cx="1061.46" cy="324.19" r="3.2" fill="#1d4ed8"/>
<circle cx="1064.35" cy="318.93" r="3.2" fill="#1d4ed8"/>
<circle cx="1067.24" cy="316.51" r="3.2" fill="#1d4ed8"/>
<circle cx="1070.13" cy="310.44" r="3.2" fill="#1d4ed8"/>
<circle cx="1073.02" cy="308.01" r="3.2" fill="#1d4ed8"/>
<circle cx="1075.92" cy="600.00" r="3.2" fill="#1d4ed8"/>
<circle cx="1078.81" cy="301.54" r="3.2" fill="#1d4ed8"/>
<circle cx="1081.70" cy="290.22" r="3.2" fill="#1d4ed8"/>
<circle cx="1084.59" cy="287.79" r="3.2" fill="#1d4ed8"/>
<circle cx="1087.48" cy="286.18" r="3.2" fill="#1d4ed8"/>
<circle cx="1090.37" cy="285.77" r="3.2" fill="#1d4ed8"/>
<circle cx="1093.26" cy="285.77" r="3.2" fill="#1d4ed8"/>
<circle cx="1096.15" cy="285.77" r="3.2" fill="#1d4ed8"/>
<circle cx="1099.05" cy="286.18" r="3.2" fill="#1d4ed8"/>
<circle cx="1101.94" cy="285.77" r="3.2" fill="#1d4ed8"/>
<circle cx="1104.83" cy="285.77" r="3.2" fill="#1d4ed8"/>
<circle cx="1107.72" cy="285.77" r="3.2" fill="#1d4ed8"/>
<circle cx="1110.61" cy="283.35" r="3.2" fill="#1d4ed8"/>
<circle cx="1113.50" cy="282.94" r="3.2" fill="#1d4ed8"/>
<circle cx="1116.39" cy="282.94" r="3.2" fill="#1d4ed8"/>
<circle cx="1119.28" cy="283.35" r="3.2" fill="#1d4ed8"/>
<circle cx="1122.18" cy="282.94" r="3.2" fill="#1d4ed8"/>
<circle cx="1125.07" cy="282.94" r="3.2" fill="#1d4ed8"/>
<circle cx="1127.96" cy="283.75" r="3.2" fill="#1d4ed8"/>
<circle cx="1130.85" cy="282.13" r="3.2" fill="#1d4ed8"/>
<circle cx="1133.74" cy="282.13" r="3.2" fill="#1d4ed8"/>
<circle cx="1136.63" cy="282.54" r="3.2" fill="#1d4ed8"/>
<circle cx="1139.52" cy="282.13" r="3.2" fill="#1d4ed8"/>
<circle cx="1142.41" cy="282.54" r="3.2" fill="#1d4ed8"/>
<circle cx="1145.31" cy="282.94" r="3.2" fill="#1d4ed8"/>
<circle cx="1148.20" cy="281.73" r="3.2" fill="#1d4ed8"/>
<circle cx="1151.09" cy="282.54" r="3.2" fill="#1d4ed8"/>
<circle cx="1153.98" cy="281.73" r="3.2" fill="#1d4ed8"/>
<circle cx="1156.87" cy="282.54" r="3.2" fill="#1d4ed8"/>
<circle cx="1159.76" cy="282.13" r="3.2" fill="#1d4ed8"/>
<circle cx="1162.65" cy="282.13" r="3.2" fill="#1d4ed8"/>
<circle cx="1165.54" cy="281.73" r="3.2" fill="#1d4ed8"/>
<circle cx="1168.44" cy="281.73" r="3.2" fill="#1d4ed8"/>
<circle cx="1171.33" cy="281.32" r="3.2" fill="#1d4ed8"/>
<circle cx="1174.22" cy="281.73" r="3.2" fill="#1d4ed8"/>
<circle cx="1177.11" cy="282.13" r="3.2" fill="#1d4ed8"/>
<circle cx="1180.00" cy="281.32" r="3.2" fill="#1d4ed8"/>
<text x="635" y="695" text-anchor="middle" font-size="14" fill="#111" font-family="sans-serif">Date</text>
<text x="24" y="325" text-anchor="middle" font-size="14" fill="#111" transform="rotate(-90 24,325)" font-family="sans-serif">Passed files</text>
</svg>
