<?xml version="1.0" encoding="UTF-8"?>
<svg xmlns="http://www.w3.org/2000/svg" width="1280" height="720" viewBox="0 0 1280 720">
<rect width="100%" height="100%" fill="#ffffff"/>
<text x="640" y="30" text-anchor="middle" font-size="22" font-family="sans-serif">Roast passed files history</text>
<line x1="90" y1="600" x2="1180" y2="600" stroke="#333" stroke-width="1.5"/>
<line x1="90" y1="50" x2="90" y2="600" stroke="#333" stroke-width="1.5"/>
<line x1="90" y1="600.00" x2="1180" y2="600.00" stroke="#e5e7eb" stroke-width="1"/>
<text x="78" y="605.00" text-anchor="end" font-size="12" fill="#111" font-family="sans-serif">0</text>
<line x1="90" y1="397.79" x2="1180" y2="397.79" stroke="#e5e7eb" stroke-width="1"/>
<text x="78" y="402.79" text-anchor="end" font-size="12" fill="#111" font-family="sans-serif">500</text>
<line x1="90" y1="195.59" x2="1180" y2="195.59" stroke="#e5e7eb" stroke-width="1"/>
<text x="78" y="200.59" text-anchor="end" font-size="12" fill="#111" font-family="sans-serif">1000</text>
<line x1="90.00" y1="600" x2="90.00" y2="606" stroke="#333" stroke-width="1"/>
<text x="90.00" y="624" text-anchor="end" font-size="11" fill="#111" transform="rotate(-40 90.00,624)" font-family="sans-serif">2026-02-12</text>
<line x1="225.68" y1="600" x2="225.68" y2="606" stroke="#333" stroke-width="1"/>
<text x="225.68" y="624" text-anchor="end" font-size="11" fill="#111" transform="rotate(-40 225.68,624)" font-family="sans-serif">2026-02-18</text>
<line x1="361.37" y1="600" x2="361.37" y2="606" stroke="#333" stroke-width="1"/>
<text x="361.37" y="624" text-anchor="end" font-size="11" fill="#111" transform="rotate(-40 361.37,624)" font-family="sans-serif">2026-02-25</text>
<line x1="497.05" y1="600" x2="497.05" y2="606" stroke="#333" stroke-width="1"/>
<text x="497.05" y="624" text-anchor="end" font-size="11" fill="#111" transform="rotate(-40 497.05,624)" font-family="sans-serif">2026-02-28</text>
<line x1="632.74" y1="600" x2="632.74" y2="606" stroke="#333" stroke-width="1"/>
<text x="632.74" y="624" text-anchor="end" font-size="11" fill="#111" transform="rotate(-40 632.74,624)" font-family="sans-serif">2026-03-06</text>
<line x1="768.42" y1="600" x2="768.42" y2="606" stroke="#333" stroke-width="1"/>
<text x="768.42" y="624" text-anchor="end" font-size="11" fill="#111" transform="rotate(-40 768.42,624)" font-family="sans-serif">2026-03-08</text>
<line x1="904.11" y1="600" x2="904.11" y2="606" stroke="#333" stroke-width="1"/>
<text x="904.11" y="624" text-anchor="end" font-size="11" fill="#111" transform="rotate(-40 904.11,624)" font-family="sans-serif">2026-03-18</text>
<line x1="1039.79" y1="600" x2="1039.79" y2="606" stroke="#333" stroke-width="1"/>
<text x="1039.79" y="624" text-anchor="end" font-size="11" fill="#111" transform="rotate(-40 1039.79,624)" font-family="sans-serif">2026-03-20</text>
<line x1="1175.48" y1="600" x2="1175.48" y2="606" stroke="#333" stroke-width="1"/>
<text x="1175.48" y="624" text-anchor="end" font-size="11" fill="#111" transform="rotate(-40 1175.48,624)" font-family="sans-serif">2026-03-30</text>
<line x1="1180.00" y1="600" x2="1180.00" y2="606" stroke="#333" stroke-width="1"/>
<text x="1180.00" y="624" text-anchor="end" font-size="11" fill="#111" transform="rotate(-40 1180.00,624)" font-family="sans-serif">2026-03-30</text>
<line x1="90" y1="75.88" x2="1180" y2="75.88" stroke="#dc2626" stroke-width="1.5" stroke-dasharray="8,4"/>
<text x="1184" y="79.88" font-size="12" fill="#dc2626" font-family="sans-serif">Goal: 1296</text>
<polyline fill="none" stroke="#2563eb" stroke-width="3" points="90.00,540.55 92.26,538.53 94.52,536.91 96.78,534.49 99.05,534.49 101.31,533.27 103.57,532.46 105.83,532.87 108.09,532.06 110.35,532.46 112.61,532.06 114.88,568.46 117.14,568.46 119.40,566.43 121.66,545.00 123.92,545.00 126.18,544.19 128.44,543.79 130.71,543.79 132.97,543.38 135.23,541.76 137.49,541.36 139.75,540.96 142.01,540.96 144.27,539.34 146.54,539.34 148.80,556.73 151.06,556.73 153.32,555.51 155.58,551.07 157.84,538.93 160.10,538.93 162.37,538.93 164.63,538.12 166.89,536.91 169.15,536.91 171.41,536.51 173.67,536.51 175.93,556.73 178.20,556.73 180.46,556.73 182.72,556.73 184.98,535.29 187.24,535.29 189.50,535.29 191.76,535.29 194.02,534.49 196.29,534.08 198.55,533.68 200.81,532.87 203.07,532.06 205.33,532.06 207.59,531.25 209.85,530.85 212.12,530.44 214.38,530.04 216.64,530.04 218.90,529.23 221.16,529.23 223.42,529.23 225.68,528.42 227.95,528.42 230.21,527.61 232.47,527.21 234.73,526.80 236.99,526.40 239.25,525.18 241.51,523.57 243.78,523.57 246.04,523.16 248.30,522.76 250.56,522.35 252.82,521.54 255.08,519.52 257.34,517.50 259.61,517.50 261.87,517.50 264.13,517.50 266.39,517.50 268.65,517.50 270.91,517.10 273.17,516.69 275.44,515.48 277.70,515.07 279.96,514.67 282.22,513.86 284.48,514.26 286.74,512.24 289.00,511.84 291.27,511.84 293.53,511.03 295.79,509.82 298.05,507.79 300.31,506.99 302.57,506.58 304.83,509.41 307.10,509.01 309.36,504.96 311.62,504.56 313.88,504.15 316.14,504.56 318.40,503.75 320.66,503.75 322.93,503.35 325.19,499.30 327.45,496.47 329.71,490.00 331.97,484.34 334.23,481.10 336.49,480.29 338.76,480.70 341.02,460.88 343.28,459.26 345.54,458.05 347.80,456.03 350.06,456.03 352.32,454.41 354.59,450.77 356.85,444.30 359.11,443.90 361.37,600.00 363.63,441.88 365.89,440.66 368.15,439.45 370.41,439.04 372.68,438.64 374.94,437.83 377.20,436.62 379.46,436.62 381.72,434.60 383.98,432.17 386.24,429.34 388.51,428.93 390.77,428.53 393.03,427.72 395.29,426.91 397.55,426.10 399.81,426.10 402.07,426.10 404.34,419.63 406.60,419.23 408.86,418.42 411.12,418.01 413.38,417.61 415.64,417.61 417.90,417.61 420.17,417.21 422.43,417.21 424.69,413.57 426.95,411.95 429.21,412.76 431.47,410.74 433.73,410.74 436.00,410.33 438.26,410.33 440.52,410.33 442.78,409.93 445.04,409.93 447.30,409.93 449.56,409.52 451.83,409.52 454.09,409.12 456.35,409.52 458.61,409.12 460.87,407.50 463.13,407.10 465.39,403.05 467.66,399.82 469.92,400.22 472.18,400.62 474.44,400.62 476.70,399.41 478.96,392.94 481.22,391.32 483.49,389.30 485.75,389.30 488.01,388.49 490.27,375.15 492.53,374.74 494.79,374.74 497.05,374.74 499.32,374.74 501.58,374.34 503.84,374.34 506.10,374.34 508.36,374.34 510.62,374.34 512.88,373.93 515.15,373.12 517.41,372.72 519.67,373.53 521.93,435.81 524.19,372.32 526.45,372.72 528.71,371.91 530.98,371.91 533.24,372.32 535.50,371.10 537.76,369.89 540.02,369.89 542.28,369.89 544.54,369.49 546.80,369.89 549.07,369.08 551.33,368.68 553.59,368.27 555.85,367.87 558.11,367.06 560.37,367.46 562.63,367.06 564.90,366.25 567.16,368.27 569.42,368.68 571.68,368.68 573.94,368.27 576.20,369.08 578.46,367.87 580.73,367.46 582.99,367.06 585.25,360.18 587.51,359.78 589.77,359.38 592.03,356.95 594.29,357.35 596.56,357.76 598.82,355.33 601.08,355.74 603.34,357.35 605.60,355.33 607.86,356.14 610.12,355.74 612.39,356.14 614.65,354.12 616.91,354.93 619.17,356.14 621.43,354.52 623.69,353.71 625.95,354.12 628.22,354.93 630.48,352.90 632.74,353.71 635.00,353.31 637.26,353.31 639.52,354.52 641.78,352.90 644.05,352.50 646.31,352.50 648.57,353.31 650.83,352.50 653.09,353.71 655.35,354.12 657.61,352.50 659.88,352.90 662.14,352.50 664.40,352.10 666.66,351.69 668.92,352.10 671.18,354.12 673.44,352.50 675.71,352.10 677.97,352.10 680.23,349.67 682.49,349.67 684.75,350.88 687.01,351.29 689.27,350.48 691.54,352.10 693.80,350.48 696.06,350.48 698.32,350.48 700.58,350.07 702.84,348.46 705.10,351.29 707.37,349.67 709.63,351.29 711.89,349.67 714.15,348.86 716.41,348.46 718.67,348.46 720.93,347.24 723.20,348.86 725.46,346.84 727.72,348.46 729.98,348.86 732.24,346.84 734.50,349.26 736.76,348.05 739.02,349.26 741.29,349.26 743.55,350.48 745.81,352.90 748.07,349.67 750.33,348.46 752.59,345.62 754.85,344.82 757.12,344.41 759.38,342.39 761.64,341.18 763.90,341.58 766.16,339.15 768.42,338.35 770.68,337.54 772.95,336.73 775.21,335.92 777.47,337.54 779.73,338.35 781.99,337.54 784.25,337.54 786.51,337.54 788.78,333.09 791.04,333.90 793.30,335.92 795.56,336.73 797.82,335.51 800.08,332.28 802.34,331.47 804.61,331.07 806.87,331.47 809.13,331.07 811.39,331.07 813.65,331.07 815.91,331.07 818.17,331.07 820.44,331.07 822.70,331.07 824.96,331.07 827.22,331.07 829.48,331.07 831.74,331.47 834.00,331.88 836.27,331.07 838.53,331.47 840.79,331.07 843.05,331.47 845.31,331.07 847.57,324.19 849.83,324.19 852.10,318.93 854.36,316.51 856.62,310.44 858.88,308.01 861.14,600.00 863.40,301.54 865.66,290.22 867.93,287.79 870.19,286.18 872.45,285.77 874.71,285.77 876.97,285.77 879.23,286.18 881.49,285.77 883.76,285.77 886.02,285.77 888.28,283.35 890.54,282.94 892.80,282.94 895.06,283.35 897.32,282.94 899.59,282.94 901.85,283.75 904.11,282.13 906.37,282.13 908.63,282.54 910.89,282.13 913.15,282.54 915.41,282.94 917.68,281.73 919.94,282.54 922.20,281.73 924.46,282.54 926.72,282.13 928.98,282.13 931.24,281.73 933.51,281.73 935.77,281.32 938.03,281.73 940.29,282.13 942.55,281.32 944.81,281.32 947.07,282.54 949.34,282.13 951.60,281.32 953.86,281.32 956.12,281.32 958.38,282.54 960.64,282.13 962.90,281.32 965.17,282.13 967.43,281.73 969.69,282.13 971.95,280.11 974.21,280.11 976.47,280.51 978.73,279.71 981.00,280.11 983.26,280.51 985.52,279.71 987.78,280.11 990.04,280.11 992.30,279.30 994.56,278.90 996.83,278.90 999.09,280.51 1001.35,279.30 1003.61,278.09 1005.87,278.49 1008.13,278.49 1010.39,277.28 1012.66,277.68 1014.92,277.68 1017.18,278.09 1019.44,277.28 1021.70,600.00 1023.96,278.90 1026.22,279.30 1028.49,278.90 1030.75,278.49 1033.01,278.49 1035.27,278.49 1037.53,278.49 1039.79,278.49 1042.05,278.49 1044.32,278.49 1046.58,278.49 1048.84,278.49 1051.10,278.49 1053.36,278.49 1055.62,278.49 1057.88,600.00 1060.15,600.00 1062.41,254.63 1064.67,600.00 1066.93,245.74 1069.19,245.74 1071.45,246.14 1073.71,245.74 1075.98,245.74 1078.24,245.74 1080.50,245.74 1082.76,245.74 1085.02,240.07 1087.28,238.05 1089.54,238.05 1091.80,227.13 1094.07,227.13 1096.33,226.32 1098.59,227.54 1100.85,226.73 1103.11,226.32 1105.37,227.13 1107.63,227.13 1109.90,226.73 1112.16,226.32 1114.42,226.73 1116.68,226.73 1118.94,226.73 1121.20,225.11 1123.46,224.71 1125.73,225.11 1127.99,224.30 1130.25,226.32 1132.51,224.30 1134.77,225.51 1137.03,225.51 1139.29,225.51 1141.56,225.92 1143.82,223.09 1146.08,223.49 1148.34,223.09 1150.60,223.09 1152.86,223.90 1155.12,223.49 1157.39,223.49 1159.65,223.09 1161.91,223.09 1164.17,223.49 1166.43,223.09 1168.69,223.09 1170.95,223.49 1173.22,223.49 1175.48,223.09 1177.74,223.09 1180.00,223.49"/>
<circle cx="90.00" cy="540.55" r="3.2" fill="#1d4ed8"/>
<circle cx="92.26" cy="538.53" r="3.2" fill="#1d4ed8"/>
<circle cx="94.52" cy="536.91" r="3.2" fill="#1d4ed8"/>
<circle cx="96.78" cy="534.49" r="3.2" fill="#1d4ed8"/>
<circle cx="99.05" cy="534.49" r="3.2" fill="#1d4ed8"/>
<circle cx="101.31" cy="533.27" r="3.2" fill="#1d4ed8"/>
<circle cx="103.57" cy="532.46" r="3.2" fill="#1d4ed8"/>
<circle cx="105.83" cy="532.87" r="3.2" fill="#1d4ed8"/>
<circle cx="108.09" cy="532.06" r="3.2" fill="#1d4ed8"/>
<circle cx="110.35" cy="532.46" r="3.2" fill="#1d4ed8"/>
<circle cx="112.61" cy="532.06" r="3.2" fill="#1d4ed8"/>
<circle cx="114.88" cy="568.46" r="3.2" fill="#1d4ed8"/>
<circle cx="117.14" cy="568.46" r="3.2" fill="#1d4ed8"/>
<circle cx="119.40" cy="566.43" r="3.2" fill="#1d4ed8"/>
<circle cx="121.66" cy="545.00" r="3.2" fill="#1d4ed8"/>
<circle cx="123.92" cy="545.00" r="3.2" fill="#1d4ed8"/>
<circle cx="126.18" cy="544.19" r="3.2" fill="#1d4ed8"/>
<circle cx="128.44" cy="543.79" r="3.2" fill="#1d4ed8"/>
<circle cx="130.71" cy="543.79" r="3.2" fill="#1d4ed8"/>
<circle cx="132.97" cy="543.38" r="3.2" fill="#1d4ed8"/>
<circle cx="135.23" cy="541.76" r="3.2" fill="#1d4ed8"/>
<circle cx="137.49" cy="541.36" r="3.2" fill="#1d4ed8"/>
<circle cx="139.75" cy="540.96" r="3.2" fill="#1d4ed8"/>
<circle cx="142.01" cy="540.96" r="3.2" fill="#1d4ed8"/>
<circle cx="144.27" cy="539.34" r="3.2" fill="#1d4ed8"/>
<circle cx="146.54" cy="539.34" r="3.2" fill="#1d4ed8"/>
<circle cx="148.80" cy="556.73" r="3.2" fill="#1d4ed8"/>
<circle cx="151.06" cy="556.73" r="3.2" fill="#1d4ed8"/>
<circle cx="153.32" cy="555.51" r="3.2" fill="#1d4ed8"/>
<circle cx="155.58" cy="551.07" r="3.2" fill="#1d4ed8"/>
<circle cx="157.84" cy="538.93" r="3.2" fill="#1d4ed8"/>
<circle cx="160.10" cy="538.93" r="3.2" fill="#1d4ed8"/>
<circle cx="162.37" cy="538.93" r="3.2" fill="#1d4ed8"/>
<circle cx="164.63" cy="538.12" r="3.2" fill="#1d4ed8"/>
<circle cx="166.89" cy="536.91" r="3.2" fill="#1d4ed8"/>
<circle cx="169.15" cy="536.91" r="3.2" fill="#1d4ed8"/>
<circle cx="171.41" cy="536.51" r="3.2" fill="#1d4ed8"/>
<circle cx="173.67" cy="536.51" r="3.2" fill="#1d4ed8"/>
<circle cx="175.93" cy="556.73" r="3.2" fill="#1d4ed8"/>
<circle cx="178.20" cy="556.73" r="3.2" fill="#1d4ed8"/>
<circle cx="180.46" cy="556.73" r="3.2" fill="#1d4ed8"/>
<circle cx="182.72" cy="556.73" r="3.2" fill="#1d4ed8"/>
<circle cx="184.98" cy="535.29" r="3.2" fill="#1d4ed8"/>
<circle cx="187.24" cy="535.29" r="3.2" fill="#1d4ed8"/>
<circle cx="189.50" cy="535.29" r="3.2" fill="#1d4ed8"/>
<circle cx="191.76" cy="535.29" r="3.2" fill="#1d4ed8"/>
<circle cx="194.02" cy="534.49" r="3.2" fill="#1d4ed8"/>
<circle cx="196.29" cy="534.08" r="3.2" fill="#1d4ed8"/>
<circle cx="198.55" cy="533.68" r="3.2" fill="#1d4ed8"/>
<circle cx="200.81" cy="532.87" r="3.2" fill="#1d4ed8"/>
<circle cx="203.07" cy="532.06" r="3.2" fill="#1d4ed8"/>
<circle cx="205.33" cy="532.06" r="3.2" fill="#1d4ed8"/>
<circle cx="207.59" cy="531.25" r="3.2" fill="#1d4ed8"/>
<circle cx="209.85" cy="530.85" r="3.2" fill="#1d4ed8"/>
<circle cx="212.12" cy="530.44" r="3.2" fill="#1d4ed8"/>
<circle cx="214.38" cy="530.04" r="3.2" fill="#1d4ed8"/>
<circle cx="216.64" cy="530.04" r="3.2" fill="#1d4ed8"/>
<circle cx="218.90" cy="529.23" r="3.2" fill="#1d4ed8"/>
<circle cx="221.16" cy="529.23" r="3.2" fill="#1d4ed8"/>
<circle cx="223.42" cy="529.23" r="3.2" fill="#1d4ed8"/>
<circle cx="225.68" cy="528.42" r="3.2" fill="#1d4ed8"/>
<circle cx="227.95" cy="528.42" r="3.2" fill="#1d4ed8"/>
<circle cx="230.21" cy="527.61" r="3.2" fill="#1d4ed8"/>
<circle cx="232.47" cy="527.21" r="3.2" fill="#1d4ed8"/>
<circle cx="234.73" cy="526.80" r="3.2" fill="#1d4ed8"/>
<circle cx="236.99" cy="526.40" r="3.2" fill="#1d4ed8"/>
<circle cx="239.25" cy="525.18" r="3.2" fill="#1d4ed8"/>
<circle cx="241.51" cy="523.57" r="3.2" fill="#1d4ed8"/>
<circle cx="243.78" cy="523.57" r="3.2" fill="#1d4ed8"/>
<circle cx="246.04" cy="523.16" r="3.2" fill="#1d4ed8"/>
<circle cx="248.30" cy="522.76" r="3.2" fill="#1d4ed8"/>
<circle cx="250.56" cy="522.35" r="3.2" fill="#1d4ed8"/>
<circle cx="252.82" cy="521.54" r="3.2" fill="#1d4ed8"/>
<circle cx="255.08" cy="519.52" r="3.2" fill="#1d4ed8"/>
<circle cx="257.34" cy="517.50" r="3.2" fill="#1d4ed8"/>
<circle cx="259.61" cy="517.50" r="3.2" fill="#1d4ed8"/>
<circle cx="261.87" cy="517.50" r="3.2" fill="#1d4ed8"/>
<circle cx="264.13" cy="517.50" r="3.2" fill="#1d4ed8"/>
<circle cx="266.39" cy="517.50" r="3.2" fill="#1d4ed8"/>
<circle cx="268.65" cy="517.50" r="3.2" fill="#1d4ed8"/>
<circle cx="270.91" cy="517.10" r="3.2" fill="#1d4ed8"/>
<circle cx="273.17" cy="516.69" r="3.2" fill="#1d4ed8"/>
<circle cx="275.44" cy="515.48" r="3.2" fill="#1d4ed8"/>
<circle cx="277.70" cy="515.07" r="3.2" fill="#1d4ed8"/>
<circle cx="279.96" cy="514.67" r="3.2" fill="#1d4ed8"/>
<circle cx="282.22" cy="513.86" r="3.2" fill="#1d4ed8"/>
<circle cx="284.48" cy="514.26" r="3.2" fill="#1d4ed8"/>
<circle cx="286.74" cy="512.24" r="3.2" fill="#1d4ed8"/>
<circle cx="289.00" cy="511.84" r="3.2" fill="#1d4ed8"/>
<circle cx="291.27" cy="511.84" r="3.2" fill="#1d4ed8"/>
<circle cx="293.53" cy="511.03" r="3.2" fill="#1d4ed8"/>
<circle cx="295.79" cy="509.82" r="3.2" fill="#1d4ed8"/>
<circle cx="298.05" cy="507.79" r="3.2" fill="#1d4ed8"/>
<circle cx="300.31" cy="506.99" r="3.2" fill="#1d4ed8"/>
<circle cx="302.57" cy="506.58" r="3.2" fill="#1d4ed8"/>
<circle cx="304.83" cy="509.41" r="3.2" fill="#1d4ed8"/>
<circle cx="307.10" cy="509.01" r="3.2" fill="#1d4ed8"/>
<circle cx="309.36" cy="504.96" r="3.2" fill="#1d4ed8"/>
<circle cx="311.62" cy="504.56" r="3.2" fill="#1d4ed8"/>
<circle cx="313.88" cy="504.15" r="3.2" fill="#1d4ed8"/>
<circle cx="316.14" cy="504.56" r="3.2" fill="#1d4ed8"/>
<circle cx="318.40" cy="503.75" r="3.2" fill="#1d4ed8"/>
<circle cx="320.66" cy="503.75" r="3.2" fill="#1d4ed8"/>
<circle cx="322.93" cy="503.35" r="3.2" fill="#1d4ed8"/>
<circle cx="325.19" cy="499.30" r="3.2" fill="#1d4ed8"/>
<circle cx="327.45" cy="496.47" r="3.2" fill="#1d4ed8"/>
<circle cx="329.71" cy="490.00" r="3.2" fill="#1d4ed8"/>
<circle cx="331.97" cy="484.34" r="3.2" fill="#1d4ed8"/>
<circle cx="334.23" cy="481.10" r="3.2" fill="#1d4ed8"/>
<circle cx="336.49" cy="480.29" r="3.2" fill="#1d4ed8"/>
<circle cx="338.76" cy="480.70" r="3.2" fill="#1d4ed8"/>
<circle cx="341.02" cy="460.88" r="3.2" fill="#1d4ed8"/>
<circle cx="343.28" cy="459.26" r="3.2" fill="#1d4ed8"/>
<circle cx="345.54" cy="458.05" r="3.2" fill="#1d4ed8"/>
<circle cx="347.80" cy="456.03" r="3.2" fill="#1d4ed8"/>
<circle cx="350.06" cy="456.03" r="3.2" fill="#1d4ed8"/>
<circle cx="352.32" cy="454.41" r="3.2" fill="#1d4ed8"/>
<circle cx="354.59" cy="450.77" r="3.2" fill="#1d4ed8"/>
<circle cx="356.85" cy="444.30" r="3.2" fill="#1d4ed8"/>
<circle cx="359.11" cy="443.90" r="3.2" fill="#1d4ed8"/>
<circle cx="361.37" cy="600.00" r="3.2" fill="#1d4ed8"/>
<circle cx="363.63" cy="441.88" r="3.2" fill="#1d4ed8"/>
<circle cx="365.89" cy="440.66" r="3.2" fill="#1d4ed8"/>
<circle cx="368.15" cy="439.45" r="3.2" fill="#1d4ed8"/>
<circle cx="370.41" cy="439.04" r="3.2" fill="#1d4ed8"/>
<circle cx="372.68" cy="438.64" r="3.2" fill="#1d4ed8"/>
<circle cx="374.94" cy="437.83" r="3.2" fill="#1d4ed8"/>
<circle cx="377.20" cy="436.62" r="3.2" fill="#1d4ed8"/>
<circle cx="379.46" cy="436.62" r="3.2" fill="#1d4ed8"/>
<circle cx="381.72" cy="434.60" r="3.2" fill="#1d4ed8"/>
<circle cx="383.98" cy="432.17" r="3.2" fill="#1d4ed8"/>
<circle cx="386.24" cy="429.34" r="3.2" fill="#1d4ed8"/>
<circle cx="388.51" cy="428.93" r="3.2" fill="#1d4ed8"/>
<circle cx="390.77" cy="428.53" r="3.2" fill="#1d4ed8"/>
<circle cx="393.03" cy="427.72" r="3.2" fill="#1d4ed8"/>
<circle cx="395.29" cy="426.91" r="3.2" fill="#1d4ed8"/>
<circle cx="397.55" cy="426.10" r="3.2" fill="#1d4ed8"/>
<circle cx="399.81" cy="426.10" r="3.2" fill="#1d4ed8"/>
<circle cx="402.07" cy="426.10" r="3.2" fill="#1d4ed8"/>
<circle cx="404.34" cy="419.63" r="3.2" fill="#1d4ed8"/>
<circle cx="406.60" cy="419.23" r="3.2" fill="#1d4ed8"/>
<circle cx="408.86" cy="418.42" r="3.2" fill="#1d4ed8"/>
<circle cx="411.12" cy="418.01" r="3.2" fill="#1d4ed8"/>
<circle cx="413.38" cy="417.61" r="3.2" fill="#1d4ed8"/>
<circle cx="415.64" cy="417.61" r="3.2" fill="#1d4ed8"/>
<circle cx="417.90" cy="417.61" r="3.2" fill="#1d4ed8"/>
<circle cx="420.17" cy="417.21" r="3.2" fill="#1d4ed8"/>
<circle cx="422.43" cy="417.21" r="3.2" fill="#1d4ed8"/>
<circle cx="424.69" cy="413.57" r="3.2" fill="#1d4ed8"/>
<circle cx="426.95" cy="411.95" r="3.2" fill="#1d4ed8"/>
<circle cx="429.21" cy="412.76" r="3.2" fill="#1d4ed8"/>
<circle cx="431.47" cy="410.74" r="3.2" fill="#1d4ed8"/>
<circle cx="433.73" cy="410.74" r="3.2" fill="#1d4ed8"/>
<circle cx="436.00" cy="410.33" r="3.2" fill="#1d4ed8"/>
<circle cx="438.26" cy="410.33" r="3.2" fill="#1d4ed8"/>
<circle cx="440.52" cy="410.33" r="3.2" fill="#1d4ed8"/>
<circle cx="442.78" cy="409.93" r="3.2" fill="#1d4ed8"/>
<circle cx="445.04" cy="409.93" r="3.2" fill="#1d4ed8"/>
<circle cx="447.30" cy="409.93" r="3.2" fill="#1d4ed8"/>
<circle cx="449.56" cy="409.52" r="3.2" fill="#1d4ed8"/>
<circle cx="451.83" cy="409.52" r="3.2" fill="#1d4ed8"/>
<circle cx="454.09" cy="409.12" r="3.2" fill="#1d4ed8"/>
<circle cx="456.35" cy="409.52" r="3.2" fill="#1d4ed8"/>
<circle cx="458.61" cy="409.12" r="3.2" fill="#1d4ed8"/>
<circle cx="460.87" cy="407.50" r="3.2" fill="#1d4ed8"/>
<circle cx="463.13" cy="407.10" r="3.2" fill="#1d4ed8"/>
<circle cx="465.39" cy="403.05" r="3.2" fill="#1d4ed8"/>
<circle cx="467.66" cy="399.82" r="3.2" fill="#1d4ed8"/>
<circle cx="469.92" cy="400.22" r="3.2" fill="#1d4ed8"/>
<circle cx="472.18" cy="400.62" r="3.2" fill="#1d4ed8"/>
<circle cx="474.44" cy="400.62" r="3.2" fill="#1d4ed8"/>
<circle cx="476.70" cy="399.41" r="3.2" fill="#1d4ed8"/>
<circle cx="478.96" cy="392.94" r="3.2" fill="#1d4ed8"/>
<circle cx="481.22" cy="391.32" r="3.2" fill="#1d4ed8"/>
<circle cx="483.49" cy="389.30" r="3.2" fill="#1d4ed8"/>
<circle cx="485.75" cy="389.30" r="3.2" fill="#1d4ed8"/>
<circle cx="488.01" cy="388.49" r="3.2" fill="#1d4ed8"/>
<circle cx="490.27" cy="375.15" r="3.2" fill="#1d4ed8"/>
<circle cx="492.53" cy="374.74" r="3.2" fill="#1d4ed8"/>
<circle cx="494.79" cy="374.74" r="3.2" fill="#1d4ed8"/>
<circle cx="497.05" cy="374.74" r="3.2" fill="#1d4ed8"/>
<circle cx="499.32" cy="374.74" r="3.2" fill="#1d4ed8"/>
<circle cx="501.58" cy="374.34" r="3.2" fill="#1d4ed8"/>
<circle cx="503.84" cy="374.34" r="3.2" fill="#1d4ed8"/>
<circle cx="506.10" cy="374.34" r="3.2" fill="#1d4ed8"/>
<circle cx="508.36" cy="374.34" r="3.2" fill="#1d4ed8"/>
<circle cx="510.62" cy="374.34" r="3.2" fill="#1d4ed8"/>
<circle cx="512.88" cy="373.93" r="3.2" fill="#1d4ed8"/>
<circle cx="515.15" cy="373.12" r="3.2" fill="#1d4ed8"/>
<circle cx="517.41" cy="372.72" r="3.2" fill="#1d4ed8"/>
<circle cx="519.67" cy="373.53" r="3.2" fill="#1d4ed8"/>
<circle cx="521.93" cy="435.81" r="3.2" fill="#1d4ed8"/>
<circle cx="524.19" cy="372.32" r="3.2" fill="#1d4ed8"/>
<circle cx="526.45" cy="372.72" r="3.2" fill="#1d4ed8"/>
<circle cx="528.71" cy="371.91" r="3.2" fill="#1d4ed8"/>
<circle cx="530.98" cy="371.91" r="3.2" fill="#1d4ed8"/>
<circle cx="533.24" cy="372.32" r="3.2" fill="#1d4ed8"/>
<circle cx="535.50" cy="371.10" r="3.2" fill="#1d4ed8"/>
<circle cx="537.76" cy="369.89" r="3.2" fill="#1d4ed8"/>
<circle cx="540.02" cy="369.89" r="3.2" fill="#1d4ed8"/>
<circle cx="542.28" cy="369.89" r="3.2" fill="#1d4ed8"/>
<circle cx="544.54" cy="369.49" r="3.2" fill="#1d4ed8"/>
<circle cx="546.80" cy="369.89" r="3.2" fill="#1d4ed8"/>
<circle cx="549.07" cy="369.08" r="3.2" fill="#1d4ed8"/>
<circle cx="551.33" cy="368.68" r="3.2" fill="#1d4ed8"/>
<circle cx="553.59" cy="368.27" r="3.2" fill="#1d4ed8"/>
<circle cx="555.85" cy="367.87" r="3.2" fill="#1d4ed8"/>
<circle cx="558.11" cy="367.06" r="3.2" fill="#1d4ed8"/>
<circle cx="560.37" cy="367.46" r="3.2" fill="#1d4ed8"/>
<circle cx="562.63" cy="367.06" r="3.2" fill="#1d4ed8"/>
<circle cx="564.90" cy="366.25" r="3.2" fill="#1d4ed8"/>
<circle cx="567.16" cy="368.27" r="3.2" fill="#1d4ed8"/>
<circle cx="569.42" cy="368.68" r="3.2" fill="#1d4ed8"/>
<circle cx="571.68" cy="368.68" r="3.2" fill="#1d4ed8"/>
<circle cx="573.94" cy="368.27" r="3.2" fill="#1d4ed8"/>
<circle cx="576.20" cy="369.08" r="3.2" fill="#1d4ed8"/>
<circle cx="578.46" cy="367.87" r="3.2" fill="#1d4ed8"/>
<circle cx="580.73" cy="367.46" r="3.2" fill="#1d4ed8"/>
<circle cx="582.99" cy="367.06" r="3.2" fill="#1d4ed8"/>
<circle cx="585.25" cy="360.18" r="3.2" fill="#1d4ed8"/>
<circle cx="587.51" cy="359.78" r="3.2" fill="#1d4ed8"/>
<circle cx="589.77" cy="359.38" r="3.2" fill="#1d4ed8"/>
<circle cx="592.03" cy="356.95" r="3.2" fill="#1d4ed8"/>
<circle cx="594.29" cy="357.35" r="3.2" fill="#1d4ed8"/>
<circle cx="596.56" cy="357.76" r="3.2" fill="#1d4ed8"/>
<circle cx="598.82" cy="355.33" r="3.2" fill="#1d4ed8"/>
<circle cx="601.08" cy="355.74" r="3.2" fill="#1d4ed8"/>
<circle cx="603.34" cy="357.35" r="3.2" fill="#1d4ed8"/>
<circle cx="605.60" cy="355.33" r="3.2" fill="#1d4ed8"/>
<circle cx="607.86" cy="356.14" r="3.2" fill="#1d4ed8"/>
<circle cx="610.12" cy="355.74" r="3.2" fill="#1d4ed8"/>
<circle cx="612.39" cy="356.14" r="3.2" fill="#1d4ed8"/>
<circle cx="614.65" cy="354.12" r="3.2" fill="#1d4ed8"/>
<circle cx="616.91" cy="354.93" r="3.2" fill="#1d4ed8"/>
<circle cx="619.17" cy="356.14" r="3.2" fill="#1d4ed8"/>
<circle cx="621.43" cy="354.52" r="3.2" fill="#1d4ed8"/>
<circle cx="623.69" cy="353.71" r="3.2" fill="#1d4ed8"/>
<circle cx="625.95" cy="354.12" r="3.2" fill="#1d4ed8"/>
<circle cx="628.22" cy="354.93" r="3.2" fill="#1d4ed8"/>
<circle cx="630.48" cy="352.90" r="3.2" fill="#1d4ed8"/>
<circle cx="632.74" cy="353.71" r="3.2" fill="#1d4ed8"/>
<circle cx="635.00" cy="353.31" r="3.2" fill="#1d4ed8"/>
<circle cx="637.26" cy="353.31" r="3.2" fill="#1d4ed8"/>
<circle cx="639.52" cy="354.52" r="3.2" fill="#1d4ed8"/>
<circle cx="641.78" cy="352.90" r="3.2" fill="#1d4ed8"/>
<circle cx="644.05" cy="352.50" r="3.2" fill="#1d4ed8"/>
<circle cx="646.31" cy="352.50" r="3.2" fill="#1d4ed8"/>
<circle cx="648.57" cy="353.31" r="3.2" fill="#1d4ed8"/>
<circle cx="650.83" cy="352.50" r="3.2" fill="#1d4ed8"/>
<circle cx="653.09" cy="353.71" r="3.2" fill="#1d4ed8"/>
<circle cx="655.35" cy="354.12" r="3.2" fill="#1d4ed8"/>
<circle cx="657.61" cy="352.50" r="3.2" fill="#1d4ed8"/>
<circle cx="659.88" cy="352.90" r="3.2" fill="#1d4ed8"/>
<circle cx="662.14" cy="352.50" r="3.2" fill="#1d4ed8"/>
<circle cx="664.40" cy="352.10" r="3.2" fill="#1d4ed8"/>
<circle cx="666.66" cy="351.69" r="3.2" fill="#1d4ed8"/>
<circle cx="668.92" cy="352.10" r="3.2" fill="#1d4ed8"/>
<circle cx="671.18" cy="354.12" r="3.2" fill="#1d4ed8"/>
<circle cx="673.44" cy="352.50" r="3.2" fill="#1d4ed8"/>
<circle cx="675.71" cy="352.10" r="3.2" fill="#1d4ed8"/>
<circle cx="677.97" cy="352.10" r="3.2" fill="#1d4ed8"/>
<circle cx="680.23" cy="349.67" r="3.2" fill="#1d4ed8"/>
<circle cx="682.49" cy="349.67" r="3.2" fill="#1d4ed8"/>
<circle cx="684.75" cy="350.88" r="3.2" fill="#1d4ed8"/>
<circle cx="687.01" cy="351.29" r="3.2" fill="#1d4ed8"/>
<circle cx="689.27" cy="350.48" r="3.2" fill="#1d4ed8"/>
<circle cx="691.54" cy="352.10" r="3.2" fill="#1d4ed8"/>
<circle cx="693.80" cy="350.48" r="3.2" fill="#1d4ed8"/>
<circle cx="696.06" cy="350.48" r="3.2" fill="#1d4ed8"/>
<circle cx="698.32" cy="350.48" r="3.2" fill="#1d4ed8"/>
<circle cx="700.58" cy="350.07" r="3.2" fill="#1d4ed8"/>
<circle cx="702.84" cy="348.46" r="3.2" fill="#1d4ed8"/>
<circle cx="705.10" cy="351.29" r="3.2" fill="#1d4ed8"/>
<circle cx="707.37" cy="349.67" r="3.2" fill="#1d4ed8"/>
<circle cx="709.63" cy="351.29" r="3.2" fill="#1d4ed8"/>
<circle cx="711.89" cy="349.67" r="3.2" fill="#1d4ed8"/>
<circle cx="714.15" cy="348.86" r="3.2" fill="#1d4ed8"/>
<circle cx="716.41" cy="348.46" r="3.2" fill="#1d4ed8"/>
<circle cx="718.67" cy="348.46" r="3.2" fill="#1d4ed8"/>
<circle cx="720.93" cy="347.24" r="3.2" fill="#1d4ed8"/>
<circle cx="723.20" cy="348.86" r="3.2" fill="#1d4ed8"/>
<circle cx="725.46" cy="346.84" r="3.2" fill="#1d4ed8"/>
<circle cx="727.72" cy="348.46" r="3.2" fill="#1d4ed8"/>
<circle cx="729.98" cy="348.86" r="3.2" fill="#1d4ed8"/>
<circle cx="732.24" cy="346.84" r="3.2" fill="#1d4ed8"/>
<circle cx="734.50" cy="349.26" r="3.2" fill="#1d4ed8"/>
<circle cx="736.76" cy="348.05" r="3.2" fill="#1d4ed8"/>
<circle cx="739.02" cy="349.26" r="3.2" fill="#1d4ed8"/>
<circle cx="741.29" cy="349.26" r="3.2" fill="#1d4ed8"/>
<circle cx="743.55" cy="350.48" r="3.2" fill="#1d4ed8"/>
<circle cx="745.81" cy="352.90" r="3.2" fill="#1d4ed8"/>
<circle cx="748.07" cy="349.67" r="3.2" fill="#1d4ed8"/>
<circle cx="750.33" cy="348.46" r="3.2" fill="#1d4ed8"/>
<circle cx="752.59" cy="345.62" r="3.2" fill="#1d4ed8"/>
<circle cx="754.85" cy="344.82" r="3.2" fill="#1d4ed8"/>
<circle cx="757.12" cy="344.41" r="3.2" fill="#1d4ed8"/>
<circle cx="759.38" cy="342.39" r="3.2" fill="#1d4ed8"/>
<circle cx="761.64" cy="341.18" r="3.2" fill="#1d4ed8"/>
<circle cx="763.90" cy="341.58" r="3.2" fill="#1d4ed8"/>
<circle cx="766.16" cy="339.15" r="3.2" fill="#1d4ed8"/>
<circle cx="768.42" cy="338.35" r="3.2" fill="#1d4ed8"/>
<circle cx="770.68" cy="337.54" r="3.2" fill="#1d4ed8"/>
<circle cx="772.95" cy="336.73" r="3.2" fill="#1d4ed8"/>
<circle cx="775.21" cy="335.92" r="3.2" fill="#1d4ed8"/>
<circle cx="777.47" cy="337.54" r="3.2" fill="#1d4ed8"/>
<circle cx="779.73" cy="338.35" r="3.2" fill="#1d4ed8"/>
<circle cx="781.99" cy="337.54" r="3.2" fill="#1d4ed8"/>
<circle cx="784.25" cy="337.54" r="3.2" fill="#1d4ed8"/>
<circle cx="786.51" cy="337.54" r="3.2" fill="#1d4ed8"/>
<circle cx="788.78" cy="333.09" r="3.2" fill="#1d4ed8"/>
<circle cx="791.04" cy="333.90" r="3.2" fill="#1d4ed8"/>
<circle cx="793.30" cy="335.92" r="3.2" fill="#1d4ed8"/>
<circle cx="795.56" cy="336.73" r="3.2" fill="#1d4ed8"/>
<circle cx="797.82" cy="335.51" r="3.2" fill="#1d4ed8"/>
<circle cx="800.08" cy="332.28" r="3.2" fill="#1d4ed8"/>
<circle cx="802.34" cy="331.47" r="3.2" fill="#1d4ed8"/>
<circle cx="804.61" cy="331.07" r="3.2" fill="#1d4ed8"/>
<circle cx="806.87" cy="331.47" r="3.2" fill="#1d4ed8"/>
<circle cx="809.13" cy="331.07" r="3.2" fill="#1d4ed8"/>
<circle cx="811.39" cy="331.07" r="3.2" fill="#1d4ed8"/>
<circle cx="813.65" cy="331.07" r="3.2" fill="#1d4ed8"/>
<circle cx="815.91" cy="331.07" r="3.2" fill="#1d4ed8"/>
<circle cx="818.17" cy="331.07" r="3.2" fill="#1d4ed8"/>
<circle cx="820.44" cy="331.07" r="3.2" fill="#1d4ed8"/>
<circle cx="822.70" cy="331.07" r="3.2" fill="#1d4ed8"/>
<circle cx="824.96" cy="331.07" r="3.2" fill="#1d4ed8"/>
<circle cx="827.22" cy="331.07" r="3.2" fill="#1d4ed8"/>
<circle cx="829.48" cy="331.07" r="3.2" fill="#1d4ed8"/>
<circle cx="831.74" cy="331.47" r="3.2" fill="#1d4ed8"/>
<circle cx="834.00" cy="331.88" r="3.2" fill="#1d4ed8"/>
<circle cx="836.27" cy="331.07" r="3.2" fill="#1d4ed8"/>
<circle cx="838.53" cy="331.47" r="3.2" fill="#1d4ed8"/>
<circle cx="840.79" cy="331.07" r="3.2" fill="#1d4ed8"/>
<circle cx="843.05" cy="331.47" r="3.2" fill="#1d4ed8"/>
<circle cx="845.31" cy="331.07" r="3.2" fill="#1d4ed8"/>
<circle cx="847.57" cy="324.19" r="3.2" fill="#1d4ed8"/>
<circle cx="849.83" cy="324.19" r="3.2" fill="#1d4ed8"/>
<circle cx="852.10" cy="318.93" r="3.2" fill="#1d4ed8"/>
<circle cx="854.36" cy="316.51" r="3.2" fill="#1d4ed8"/>
<circle cx="856.62" cy="310.44" r="3.2" fill="#1d4ed8"/>
<circle cx="858.88" cy="308.01" r="3.2" fill="#1d4ed8"/>
<circle cx="861.14" cy="600.00" r="3.2" fill="#1d4ed8"/>
<circle cx="863.40" cy="301.54" r="3.2" fill="#1d4ed8"/>
<circle cx="865.66" cy="290.22" r="3.2" fill="#1d4ed8"/>
<circle cx="867.93" cy="287.79" r="3.2" fill="#1d4ed8"/>
<circle cx="870.19" cy="286.18" r="3.2" fill="#1d4ed8"/>
<circle cx="872.45" cy="285.77" r="3.2" fill="#1d4ed8"/>
<circle cx="874.71" cy="285.77" r="3.2" fill="#1d4ed8"/>
<circle cx="876.97" cy="285.77" r="3.2" fill="#1d4ed8"/>
<circle cx="879.23" cy="286.18" r="3.2" fill="#1d4ed8"/>
<circle cx="881.49" cy="285.77" r="3.2" fill="#1d4ed8"/>
<circle cx="883.76" cy="285.77" r="3.2" fill="#1d4ed8"/>
<circle cx="886.02" cy="285.77" r="3.2" fill="#1d4ed8"/>
<circle cx="888.28" cy="283.35" r="3.2" fill="#1d4ed8"/>
<circle cx="890.54" cy="282.94" r="3.2" fill="#1d4ed8"/>
<circle cx="892.80" cy="282.94" r="3.2" fill="#1d4ed8"/>
<circle cx="895.06" cy="283.35" r="3.2" fill="#1d4ed8"/>
<circle cx="897.32" cy="282.94" r="3.2" fill="#1d4ed8"/>
<circle cx="899.59" cy="282.94" r="3.2" fill="#1d4ed8"/>
<circle cx="901.85" cy="283.75" r="3.2" fill="#1d4ed8"/>
<circle cx="904.11" cy="282.13" r="3.2" fill="#1d4ed8"/>
<circle cx="906.37" cy="282.13" r="3.2" fill="#1d4ed8"/>
<circle cx="908.63" cy="282.54" r="3.2" fill="#1d4ed8"/>
<circle cx="910.89" cy="282.13" r="3.2" fill="#1d4ed8"/>
<circle cx="913.15" cy="282.54" r="3.2" fill="#1d4ed8"/>
<circle cx="915.41" cy="282.94" r="3.2" fill="#1d4ed8"/>
<circle cx="917.68" cy="281.73" r="3.2" fill="#1d4ed8"/>
<circle cx="919.94" cy="282.54" r="3.2" fill="#1d4ed8"/>
<circle cx="922.20" cy="281.73" r="3.2" fill="#1d4ed8"/>
<circle cx="924.46" cy="282.54" r="3.2" fill="#1d4ed8"/>
<circle cx="926.72" cy="282.13" r="3.2" fill="#1d4ed8"/>
<circle cx="928.98" cy="282.13" r="3.2" fill="#1d4ed8"/>
<circle cx="931.24" cy="281.73" r="3.2" fill="#1d4ed8"/>
<circle cx="933.51" cy="281.73" r="3.2" fill="#1d4ed8"/>
<circle cx="935.77" cy="281.32" r="3.2" fill="#1d4ed8"/>
<circle cx="938.03" cy="281.73" r="3.2" fill="#1d4ed8"/>
<circle cx="940.29" cy="282.13" r="3.2" fill="#1d4ed8"/>
<circle cx="942.55" cy="281.32" r="3.2" fill="#1d4ed8"/>
<circle cx="944.81" cy="281.32" r="3.2" fill="#1d4ed8"/>
<circle cx="947.07" cy="282.54" r="3.2" fill="#1d4ed8"/>
<circle cx="949.34" cy="282.13" r="3.2" fill="#1d4ed8"/>
<circle cx="951.60" cy="281.32" r="3.2" fill="#1d4ed8"/>
<circle cx="953.86" cy="281.32" r="3.2" fill="#1d4ed8"/>
<circle cx="956.12" cy="281.32" r="3.2" fill="#1d4ed8"/>
<circle cx="958.38" cy="282.54" r="3.2" fill="#1d4ed8"/>
<circle cx="960.64" cy="282.13" r="3.2" fill="#1d4ed8"/>
<circle cx="962.90" cy="281.32" r="3.2" fill="#1d4ed8"/>
<circle cx="965.17" cy="282.13" r="3.2" fill="#1d4ed8"/>
<circle cx="967.43" cy="281.73" r="3.2" fill="#1d4ed8"/>
<circle cx="969.69" cy="282.13" r="3.2" fill="#1d4ed8"/>
<circle cx="971.95" cy="280.11" r="3.2" fill="#1d4ed8"/>
<circle cx="974.21" cy="280.11" r="3.2" fill="#1d4ed8"/>
<circle cx="976.47" cy="280.51" r="3.2" fill="#1d4ed8"/>
<circle cx="978.73" cy="279.71" r="3.2" fill="#1d4ed8"/>
<circle cx="981.00" cy="280.11" r="3.2" fill="#1d4ed8"/>
<circle cx="983.26" cy="280.51" r="3.2" fill="#1d4ed8"/>
<circle cx="985.52" cy="279.71" r="3.2" fill="#1d4ed8"/>
<circle cx="987.78" cy="280.11" r="3.2" fill="#1d4ed8"/>
<circle cx="990.04" cy="280.11" r="3.2" fill="#1d4ed8"/>
<circle cx="992.30" cy="279.30" r="3.2" fill="#1d4ed8"/>
<circle cx="994.56" cy="278.90" r="3.2" fill="#1d4ed8"/>
<circle cx="996.83" cy="278.90" r="3.2" fill="#1d4ed8"/>
<circle cx="999.09" cy="280.51" r="3.2" fill="#1d4ed8"/>
<circle cx="1001.35" cy="279.30" r="3.2" fill="#1d4ed8"/>
<circle cx="1003.61" cy="278.09" r="3.2" fill="#1d4ed8"/>
<circle cx="1005.87" cy="278.49" r="3.2" fill="#1d4ed8"/>
<circle cx="1008.13" cy="278.49" r="3.2" fill="#1d4ed8"/>
<circle cx="1010.39" cy="277.28" r="3.2" fill="#1d4ed8"/>
<circle cx="1012.66" cy="277.68" r="3.2" fill="#1d4ed8"/>
<circle cx="1014.92" cy="277.68" r="3.2" fill="#1d4ed8"/>
<circle cx="1017.18" cy="278.09" r="3.2" fill="#1d4ed8"/>
<circle cx="1019.44" cy="277.28" r="3.2" fill="#1d4ed8"/>
<circle cx="1021.70" cy="600.00" r="3.2" fill="#1d4ed8"/>
<circle cx="1023.96" cy="278.90" r="3.2" fill="#1d4ed8"/>
<circle cx="1026.22" cy="279.30" r="3.2" fill="#1d4ed8"/>
<circle cx="1028.49" cy="278.90" r="3.2" fill="#1d4ed8"/>
<circle cx="1030.75" cy="278.49" r="3.2" fill="#1d4ed8"/>
<circle cx="1033.01" cy="278.49" r="3.2" fill="#1d4ed8"/>
<circle cx="1035.27" cy="278.49" r="3.2" fill="#1d4ed8"/>
<circle cx="1037.53" cy="278.49" r="3.2" fill="#1d4ed8"/>
<circle cx="1039.79" cy="278.49" r="3.2" fill="#1d4ed8"/>
<circle cx="1042.05" cy="278.49" r="3.2" fill="#1d4ed8"/>
<circle cx="1044.32" cy="278.49" r="3.2" fill="#1d4ed8"/>
<circle cx="1046.58" cy="278.49" r="3.2" fill="#1d4ed8"/>
<circle cx="1048.84" cy="278.49" r="3.2" fill="#1d4ed8"/>
<circle cx="1051.10" cy="278.49" r="3.2" fill="#1d4ed8"/>
<circle cx="1053.36" cy="278.49" r="3.2" fill="#1d4ed8"/>
<circle cx="1055.62" cy="278.49" r="3.2" fill="#1d4ed8"/>
<circle cx="1057.88" cy="600.00" r="3.2" fill="#1d4ed8"/>
<circle cx="1060.15" cy="600.00" r="3.2" fill="#1d4ed8"/>
<circle cx="1062.41" cy="254.63" r="3.2" fill="#1d4ed8"/>
<circle cx="1064.67" cy="600.00" r="3.2" fill="#1d4ed8"/>
<circle cx="1066.93" cy="245.74" r="3.2" fill="#1d4ed8"/>
<circle cx="1069.19" cy="245.74" r="3.2" fill="#1d4ed8"/>
<circle cx="1071.45" cy="246.14" r="3.2" fill="#1d4ed8"/>
<circle cx="1073.71" cy="245.74" r="3.2" fill="#1d4ed8"/>
<circle cx="1075.98" cy="245.74" r="3.2" fill="#1d4ed8"/>
<circle cx="1078.24" cy="245.74" r="3.2" fill="#1d4ed8"/>
<circle cx="1080.50" cy="245.74" r="3.2" fill="#1d4ed8"/>
<circle cx="1082.76" cy="245.74" r="3.2" fill="#1d4ed8"/>
<circle cx="1085.02" cy="240.07" r="3.2" fill="#1d4ed8"/>
<circle cx="1087.28" cy="238.05" r="3.2" fill="#1d4ed8"/>
<circle cx="1089.54" cy="238.05" r="3.2" fill="#1d4ed8"/>
<circle cx="1091.80" cy="227.13" r="3.2" fill="#1d4ed8"/>
<circle cx="1094.07" cy="227.13" r="3.2" fill="#1d4ed8"/>
<circle cx="1096.33" cy="226.32" r="3.2" fill="#1d4ed8"/>
<circle cx="1098.59" cy="227.54" r="3.2" fill="#1d4ed8"/>
<circle cx="1100.85" cy="226.73" r="3.2" fill="#1d4ed8"/>
<circle cx="1103.11" cy="226.32" r="3.2" fill="#1d4ed8"/>
<circle cx="1105.37" cy="227.13" r="3.2" fill="#1d4ed8"/>
<circle cx="1107.63" cy="227.13" r="3.2" fill="#1d4ed8"/>
<circle cx="1109.90" cy="226.73" r="3.2" fill="#1d4ed8"/>
<circle cx="1112.16" cy="226.32" r="3.2" fill="#1d4ed8"/>
<circle cx="1114.42" cy="226.73" r="3.2" fill="#1d4ed8"/>
<circle cx="1116.68" cy="226.73" r="3.2" fill="#1d4ed8"/>
<circle cx="1118.94" cy="226.73" r="3.2" fill="#1d4ed8"/>
<circle cx="1121.20" cy="225.11" r="3.2" fill="#1d4ed8"/>
<circle cx="1123.46" cy="224.71" r="3.2" fill="#1d4ed8"/>
<circle cx="1125.73" cy="225.11" r="3.2" fill="#1d4ed8"/>
<circle cx="1127.99" cy="224.30" r="3.2" fill="#1d4ed8"/>
<circle cx="1130.25" cy="226.32" r="3.2" fill="#1d4ed8"/>
<circle cx="1132.51" cy="224.30" r="3.2" fill="#1d4ed8"/>
<circle cx="1134.77" cy="225.51" r="3.2" fill="#1d4ed8"/>
<circle cx="1137.03" cy="225.51" r="3.2" fill="#1d4ed8"/>
<circle cx="1139.29" cy="225.51" r="3.2" fill="#1d4ed8"/>
<circle cx="1141.56" cy="225.92" r="3.2" fill="#1d4ed8"/>
<circle cx="1143.82" cy="223.09" r="3.2" fill="#1d4ed8"/>
<circle cx="1146.08" cy="223.49" r="3.2" fill="#1d4ed8"/>
<circle cx="1148.34" cy="223.09" r="3.2" fill="#1d4ed8"/>
<circle cx="1150.60" cy="223.09" r="3.2" fill="#1d4ed8"/>
<circle cx="1152.86" cy="223.90" r="3.2" fill="#1d4ed8"/>
<circle cx="1155.12" cy="223.49" r="3.2" fill="#1d4ed8"/>
<circle cx="1157.39" cy="223.49" r="3.2" fill="#1d4ed8"/>
<circle cx="1159.65" cy="223.09" r="3.2" fill="#1d4ed8"/>
<circle cx="1161.91" cy="223.09" r="3.2" fill="#1d4ed8"/>
<circle cx="1164.17" cy="223.49" r="3.2" fill="#1d4ed8"/>
<circle cx="1166.43" cy="223.09" r="3.2" fill="#1d4ed8"/>
<circle cx="1168.69" cy="223.09" r="3.2" fill="#1d4ed8"/>
<circle cx="1170.95" cy="223.49" r="3.2" fill="#1d4ed8"/>
<circle cx="1173.22" cy="223.49" r="3.2" fill="#1d4ed8"/>
<circle cx="1175.48" cy="223.09" r="3.2" fill="#1d4ed8"/>
<circle cx="1177.74" cy="223.09" r="3.2" fill="#1d4ed8"/>
<circle cx="1180.00" cy="223.49" r="3.2" fill="#1d4ed8"/>
<text x="635" y="695" text-anchor="middle" font-size="14" fill="#111" font-family="sans-serif">Date</text>
<text x="24" y="325" text-anchor="middle" font-size="14" fill="#111" transform="rotate(-90 24,325)" font-family="sans-serif">Passed files</text>
</svg>
