<?xml version="1.0" encoding="UTF-8"?>
<svg xmlns="http://www.w3.org/2000/svg" width="1280" height="720" viewBox="0 0 1280 720">
<rect width="100%" height="100%" fill="#ffffff"/>
<text x="640" y="30" text-anchor="middle" font-size="22" font-family="sans-serif">Roast passed files history</text>
<line x1="90" y1="600" x2="1180" y2="600" stroke="#333" stroke-width="1.5"/>
<line x1="90" y1="50" x2="90" y2="600" stroke="#333" stroke-width="1.5"/>
<line x1="90" y1="600.00" x2="1180" y2="600.00" stroke="#e5e7eb" stroke-width="1"/>
<text x="78" y="605.00" text-anchor="end" font-size="12" fill="#111" font-family="sans-serif">0</text>
<line x1="90" y1="397.79" x2="1180" y2="397.79" stroke="#e5e7eb" stroke-width="1"/>
<text x="78" y="402.79" text-anchor="end" font-size="12" fill="#111" font-family="sans-serif">500</text>
<line x1="90" y1="195.59" x2="1180" y2="195.59" stroke="#e5e7eb" stroke-width="1"/>
<text x="78" y="200.59" text-anchor="end" font-size="12" fill="#111" font-family="sans-serif">1000</text>
<line x1="90.00" y1="600" x2="90.00" y2="606" stroke="#333" stroke-width="1"/>
<text x="90.00" y="624" text-anchor="end" font-size="11" fill="#111" transform="rotate(-40 90.00,624)" font-family="sans-serif">2026-02-12</text>
<line x1="225.40" y1="600" x2="225.40" y2="606" stroke="#333" stroke-width="1"/>
<text x="225.40" y="624" text-anchor="end" font-size="11" fill="#111" transform="rotate(-40 225.40,624)" font-family="sans-serif">2026-02-17</text>
<line x1="360.81" y1="600" x2="360.81" y2="606" stroke="#333" stroke-width="1"/>
<text x="360.81" y="624" text-anchor="end" font-size="11" fill="#111" transform="rotate(-40 360.81,624)" font-family="sans-serif">2026-02-20</text>
<line x1="496.21" y1="600" x2="496.21" y2="606" stroke="#333" stroke-width="1"/>
<text x="496.21" y="624" text-anchor="end" font-size="11" fill="#111" transform="rotate(-40 496.21,624)" font-family="sans-serif">2026-02-25</text>
<line x1="631.61" y1="600" x2="631.61" y2="606" stroke="#333" stroke-width="1"/>
<text x="631.61" y="624" text-anchor="end" font-size="11" fill="#111" transform="rotate(-40 631.61,624)" font-family="sans-serif">2026-02-27</text>
<line x1="767.02" y1="600" x2="767.02" y2="606" stroke="#333" stroke-width="1"/>
<text x="767.02" y="624" text-anchor="end" font-size="11" fill="#111" transform="rotate(-40 767.02,624)" font-family="sans-serif">2026-03-01</text>
<line x1="902.42" y1="600" x2="902.42" y2="606" stroke="#333" stroke-width="1"/>
<text x="902.42" y="624" text-anchor="end" font-size="11" fill="#111" transform="rotate(-40 902.42,624)" font-family="sans-serif">2026-03-06</text>
<line x1="1037.83" y1="600" x2="1037.83" y2="606" stroke="#333" stroke-width="1"/>
<text x="1037.83" y="624" text-anchor="end" font-size="11" fill="#111" transform="rotate(-40 1037.83,624)" font-family="sans-serif">2026-03-07</text>
<line x1="1173.23" y1="600" x2="1173.23" y2="606" stroke="#333" stroke-width="1"/>
<text x="1173.23" y="624" text-anchor="end" font-size="11" fill="#111" transform="rotate(-40 1173.23,624)" font-family="sans-serif">2026-03-11</text>
<line x1="1180.00" y1="600" x2="1180.00" y2="606" stroke="#333" stroke-width="1"/>
<text x="1180.00" y="624" text-anchor="end" font-size="11" fill="#111" transform="rotate(-40 1180.00,624)" font-family="sans-serif">2026-03-11</text>
<line x1="90" y1="75.88" x2="1180" y2="75.88" stroke="#dc2626" stroke-width="1.5" stroke-dasharray="8,4"/>
<text x="1184" y="79.88" font-size="12" fill="#dc2626" font-family="sans-serif">Goal: 1296</text>
<polyline fill="none" stroke="#2563eb" stroke-width="3" points="90.00,540.55 93.39,538.53 96.77,536.91 100.16,534.49 103.54,534.49 106.93,533.27 110.31,532.46 113.70,532.87 117.08,532.06 120.47,532.46 123.85,532.06 127.24,568.46 130.62,568.46 134.01,566.43 137.39,545.00 140.78,545.00 144.16,544.19 147.55,543.79 150.93,543.79 154.32,543.38 157.70,541.76 161.09,541.36 164.47,540.96 167.86,540.96 171.24,539.34 174.63,539.34 178.01,556.73 181.40,556.73 184.78,555.51 188.17,551.07 191.55,538.93 194.94,538.93 198.32,538.93 201.71,538.12 205.09,536.91 208.48,536.91 211.86,536.51 215.25,536.51 218.63,556.73 222.02,556.73 225.40,556.73 228.79,556.73 232.17,535.29 235.56,535.29 238.94,535.29 242.33,535.29 245.71,534.49 249.10,534.08 252.48,533.68 255.87,532.87 259.25,532.06 262.64,532.06 266.02,531.25 269.41,530.85 272.80,530.44 276.18,530.04 279.57,530.04 282.95,529.23 286.34,529.23 289.72,529.23 293.11,528.42 296.49,528.42 299.88,527.61 303.26,527.21 306.65,526.80 310.03,526.40 313.42,525.18 316.80,523.57 320.19,523.57 323.57,523.16 326.96,522.76 330.34,522.35 333.73,521.54 337.11,519.52 340.50,517.50 343.88,517.50 347.27,517.50 350.65,517.50 354.04,517.50 357.42,517.50 360.81,517.10 364.19,516.69 367.58,515.48 370.96,515.07 374.35,514.67 377.73,513.86 381.12,514.26 384.50,512.24 387.89,511.84 391.27,511.84 394.66,511.03 398.04,509.82 401.43,507.79 404.81,506.99 408.20,506.58 411.58,509.41 414.97,509.01 418.35,504.96 421.74,504.56 425.12,504.15 428.51,504.56 431.89,503.75 435.28,503.75 438.66,503.35 442.05,499.30 445.43,496.47 448.82,490.00 452.20,484.34 455.59,481.10 458.98,480.29 462.36,480.70 465.75,460.88 469.13,459.26 472.52,458.05 475.90,456.03 479.29,456.03 482.67,454.41 486.06,450.77 489.44,444.30 492.83,443.90 496.21,600.00 499.60,441.88 502.98,440.66 506.37,439.45 509.75,439.04 513.14,438.64 516.52,437.83 519.91,436.62 523.29,436.62 526.68,434.60 530.06,432.17 533.45,429.34 536.83,428.93 540.22,428.53 543.60,427.72 546.99,426.91 550.37,426.10 553.76,426.10 557.14,426.10 560.53,419.63 563.91,419.23 567.30,418.42 570.68,418.01 574.07,417.61 577.45,417.61 580.84,417.61 584.22,417.21 587.61,417.21 590.99,413.57 594.38,411.95 597.76,412.76 601.15,410.74 604.53,410.74 607.92,410.33 611.30,410.33 614.69,410.33 618.07,409.93 621.46,409.93 624.84,409.93 628.23,409.52 631.61,409.52 635.00,409.12 638.39,409.52 641.77,409.12 645.16,407.50 648.54,407.10 651.93,403.05 655.31,399.82 658.70,400.22 662.08,400.62 665.47,400.62 668.85,399.41 672.24,392.94 675.62,391.32 679.01,389.30 682.39,389.30 685.78,388.49 689.16,375.15 692.55,374.74 695.93,374.74 699.32,374.74 702.70,374.74 706.09,374.34 709.47,374.34 712.86,374.34 716.24,374.34 719.63,374.34 723.01,373.93 726.40,373.12 729.78,372.72 733.17,373.53 736.55,435.81 739.94,372.32 743.32,372.72 746.71,371.91 750.09,371.91 753.48,372.32 756.86,371.10 760.25,369.89 763.63,369.89 767.02,369.89 770.40,369.49 773.79,369.89 777.17,369.08 780.56,368.68 783.94,368.27 787.33,367.87 790.71,367.06 794.10,367.46 797.48,367.06 800.87,366.25 804.25,368.27 807.64,368.68 811.02,368.68 814.41,368.27 817.80,369.08 821.18,367.87 824.57,367.46 827.95,367.06 831.34,360.18 834.72,359.78 838.11,359.38 841.49,356.95 844.88,357.35 848.26,357.76 851.65,355.33 855.03,355.74 858.42,357.35 861.80,355.33 865.19,356.14 868.57,355.74 871.96,356.14 875.34,354.12 878.73,354.93 882.11,356.14 885.50,354.52 888.88,353.71 892.27,354.12 895.65,354.93 899.04,352.90 902.42,353.71 905.81,353.31 909.19,353.31 912.58,354.52 915.96,352.90 919.35,352.50 922.73,352.50 926.12,353.31 929.50,352.50 932.89,353.71 936.27,354.12 939.66,352.50 943.04,352.90 946.43,352.50 949.81,352.10 953.20,351.69 956.58,352.10 959.97,354.12 963.35,352.50 966.74,352.10 970.12,352.10 973.51,349.67 976.89,349.67 980.28,350.88 983.66,351.29 987.05,350.48 990.43,352.10 993.82,350.48 997.20,350.48 1000.59,350.48 1003.98,350.07 1007.36,348.46 1010.75,351.29 1014.13,349.67 1017.52,351.29 1020.90,349.67 1024.29,348.86 1027.67,348.46 1031.06,348.46 1034.44,347.24 1037.83,348.86 1041.21,346.84 1044.60,348.46 1047.98,348.86 1051.37,346.84 1054.75,349.26 1058.14,348.05 1061.52,349.26 1064.91,349.26 1068.29,350.48 1071.68,352.90 1075.06,349.67 1078.45,348.46 1081.83,345.62 1085.22,344.82 1088.60,344.41 1091.99,342.39 1095.37,341.18 1098.76,341.58 1102.14,339.15 1105.53,338.35 1108.91,337.54 1112.30,336.73 1115.68,335.92 1119.07,337.54 1122.45,338.35 1125.84,337.54 1129.22,337.54 1132.61,337.54 1135.99,333.09 1139.38,333.90 1142.76,335.92 1146.15,336.73 1149.53,335.51 1152.92,332.28 1156.30,331.47 1159.69,331.07 1163.07,331.47 1166.46,331.07 1169.84,331.07 1173.23,331.07 1176.61,331.07 1180.00,331.07"/>
<circle cx="90.00" cy="540.55" r="3.2" fill="#1d4ed8"/>
<circle cx="93.39" cy="538.53" r="3.2" fill="#1d4ed8"/>
<circle cx="96.77" cy="536.91" r="3.2" fill="#1d4ed8"/>
<circle cx="100.16" cy="534.49" r="3.2" fill="#1d4ed8"/>
<circle cx="103.54" cy="534.49" r="3.2" fill="#1d4ed8"/>
<circle cx="106.93" cy="533.27" r="3.2" fill="#1d4ed8"/>
<circle cx="110.31" cy="532.46" r="3.2" fill="#1d4ed8"/>
<circle cx="113.70" cy="532.87" r="3.2" fill="#1d4ed8"/>
<circle cx="117.08" cy="532.06" r="3.2" fill="#1d4ed8"/>
<circle cx="120.47" cy="532.46" r="3.2" fill="#1d4ed8"/>
<circle cx="123.85" cy="532.06" r="3.2" fill="#1d4ed8"/>
<circle cx="127.24" cy="568.46" r="3.2" fill="#1d4ed8"/>
<circle cx="130.62" cy="568.46" r="3.2" fill="#1d4ed8"/>
<circle cx="134.01" cy="566.43" r="3.2" fill="#1d4ed8"/>
<circle cx="137.39" cy="545.00" r="3.2" fill="#1d4ed8"/>
<circle cx="140.78" cy="545.00" r="3.2" fill="#1d4ed8"/>
<circle cx="144.16" cy="544.19" r="3.2" fill="#1d4ed8"/>
<circle cx="147.55" cy="543.79" r="3.2" fill="#1d4ed8"/>
<circle cx="150.93" cy="543.79" r="3.2" fill="#1d4ed8"/>
<circle cx="154.32" cy="543.38" r="3.2" fill="#1d4ed8"/>
<circle cx="157.70" cy="541.76" r="3.2" fill="#1d4ed8"/>
<circle cx="161.09" cy="541.36" r="3.2" fill="#1d4ed8"/>
<circle cx="164.47" cy="540.96" r="3.2" fill="#1d4ed8"/>
<circle cx="167.86" cy="540.96" r="3.2" fill="#1d4ed8"/>
<circle cx="171.24" cy="539.34" r="3.2" fill="#1d4ed8"/>
<circle cx="174.63" cy="539.34" r="3.2" fill="#1d4ed8"/>
<circle cx="178.01" cy="556.73" r="3.2" fill="#1d4ed8"/>
<circle cx="181.40" cy="556.73" r="3.2" fill="#1d4ed8"/>
<circle cx="184.78" cy="555.51" r="3.2" fill="#1d4ed8"/>
<circle cx="188.17" cy="551.07" r="3.2" fill="#1d4ed8"/>
<circle cx="191.55" cy="538.93" r="3.2" fill="#1d4ed8"/>
<circle cx="194.94" cy="538.93" r="3.2" fill="#1d4ed8"/>
<circle cx="198.32" cy="538.93" r="3.2" fill="#1d4ed8"/>
<circle cx="201.71" cy="538.12" r="3.2" fill="#1d4ed8"/>
<circle cx="205.09" cy="536.91" r="3.2" fill="#1d4ed8"/>
<circle cx="208.48" cy="536.91" r="3.2" fill="#1d4ed8"/>
<circle cx="211.86" cy="536.51" r="3.2" fill="#1d4ed8"/>
<circle cx="215.25" cy="536.51" r="3.2" fill="#1d4ed8"/>
<circle cx="218.63" cy="556.73" r="3.2" fill="#1d4ed8"/>
<circle cx="222.02" cy="556.73" r="3.2" fill="#1d4ed8"/>
<circle cx="225.40" cy="556.73" r="3.2" fill="#1d4ed8"/>
<circle cx="228.79" cy="556.73" r="3.2" fill="#1d4ed8"/>
<circle cx="232.17" cy="535.29" r="3.2" fill="#1d4ed8"/>
<circle cx="235.56" cy="535.29" r="3.2" fill="#1d4ed8"/>
<circle cx="238.94" cy="535.29" r="3.2" fill="#1d4ed8"/>
<circle cx="242.33" cy="535.29" r="3.2" fill="#1d4ed8"/>
<circle cx="245.71" cy="534.49" r="3.2" fill="#1d4ed8"/>
<circle cx="249.10" cy="534.08" r="3.2" fill="#1d4ed8"/>
<circle cx="252.48" cy="533.68" r="3.2" fill="#1d4ed8"/>
<circle cx="255.87" cy="532.87" r="3.2" fill="#1d4ed8"/>
<circle cx="259.25" cy="532.06" r="3.2" fill="#1d4ed8"/>
<circle cx="262.64" cy="532.06" r="3.2" fill="#1d4ed8"/>
<circle cx="266.02" cy="531.25" r="3.2" fill="#1d4ed8"/>
<circle cx="269.41" cy="530.85" r="3.2" fill="#1d4ed8"/>
<circle cx="272.80" cy="530.44" r="3.2" fill="#1d4ed8"/>
<circle cx="276.18" cy="530.04" r="3.2" fill="#1d4ed8"/>
<circle cx="279.57" cy="530.04" r="3.2" fill="#1d4ed8"/>
<circle cx="282.95" cy="529.23" r="3.2" fill="#1d4ed8"/>
<circle cx="286.34" cy="529.23" r="3.2" fill="#1d4ed8"/>
<circle cx="289.72" cy="529.23" r="3.2" fill="#1d4ed8"/>
<circle cx="293.11" cy="528.42" r="3.2" fill="#1d4ed8"/>
<circle cx="296.49" cy="528.42" r="3.2" fill="#1d4ed8"/>
<circle cx="299.88" cy="527.61" r="3.2" fill="#1d4ed8"/>
<circle cx="303.26" cy="527.21" r="3.2" fill="#1d4ed8"/>
<circle cx="306.65" cy="526.80" r="3.2" fill="#1d4ed8"/>
<circle cx="310.03" cy="526.40" r="3.2" fill="#1d4ed8"/>
<circle cx="313.42" cy="525.18" r="3.2" fill="#1d4ed8"/>
<circle cx="316.80" cy="523.57" r="3.2" fill="#1d4ed8"/>
<circle cx="320.19" cy="523.57" r="3.2" fill="#1d4ed8"/>
<circle cx="323.57" cy="523.16" r="3.2" fill="#1d4ed8"/>
<circle cx="326.96" cy="522.76" r="3.2" fill="#1d4ed8"/>
<circle cx="330.34" cy="522.35" r="3.2" fill="#1d4ed8"/>
<circle cx="333.73" cy="521.54" r="3.2" fill="#1d4ed8"/>
<circle cx="337.11" cy="519.52" r="3.2" fill="#1d4ed8"/>
<circle cx="340.50" cy="517.50" r="3.2" fill="#1d4ed8"/>
<circle cx="343.88" cy="517.50" r="3.2" fill="#1d4ed8"/>
<circle cx="347.27" cy="517.50" r="3.2" fill="#1d4ed8"/>
<circle cx="350.65" cy="517.50" r="3.2" fill="#1d4ed8"/>
<circle cx="354.04" cy="517.50" r="3.2" fill="#1d4ed8"/>
<circle cx="357.42" cy="517.50" r="3.2" fill="#1d4ed8"/>
<circle cx="360.81" cy="517.10" r="3.2" fill="#1d4ed8"/>
<circle cx="364.19" cy="516.69" r="3.2" fill="#1d4ed8"/>
<circle cx="367.58" cy="515.48" r="3.2" fill="#1d4ed8"/>
<circle cx="370.96" cy="515.07" r="3.2" fill="#1d4ed8"/>
<circle cx="374.35" cy="514.67" r="3.2" fill="#1d4ed8"/>
<circle cx="377.73" cy="513.86" r="3.2" fill="#1d4ed8"/>
<circle cx="381.12" cy="514.26" r="3.2" fill="#1d4ed8"/>
<circle cx="384.50" cy="512.24" r="3.2" fill="#1d4ed8"/>
<circle cx="387.89" cy="511.84" r="3.2" fill="#1d4ed8"/>
<circle cx="391.27" cy="511.84" r="3.2" fill="#1d4ed8"/>
<circle cx="394.66" cy="511.03" r="3.2" fill="#1d4ed8"/>
<circle cx="398.04" cy="509.82" r="3.2" fill="#1d4ed8"/>
<circle cx="401.43" cy="507.79" r="3.2" fill="#1d4ed8"/>
<circle cx="404.81" cy="506.99" r="3.2" fill="#1d4ed8"/>
<circle cx="408.20" cy="506.58" r="3.2" fill="#1d4ed8"/>
<circle cx="411.58" cy="509.41" r="3.2" fill="#1d4ed8"/>
<circle cx="414.97" cy="509.01" r="3.2" fill="#1d4ed8"/>
<circle cx="418.35" cy="504.96" r="3.2" fill="#1d4ed8"/>
<circle cx="421.74" cy="504.56" r="3.2" fill="#1d4ed8"/>
<circle cx="425.12" cy="504.15" r="3.2" fill="#1d4ed8"/>
<circle cx="428.51" cy="504.56" r="3.2" fill="#1d4ed8"/>
<circle cx="431.89" cy="503.75" r="3.2" fill="#1d4ed8"/>
<circle cx="435.28" cy="503.75" r="3.2" fill="#1d4ed8"/>
<circle cx="438.66" cy="503.35" r="3.2" fill="#1d4ed8"/>
<circle cx="442.05" cy="499.30" r="3.2" fill="#1d4ed8"/>
<circle cx="445.43" cy="496.47" r="3.2" fill="#1d4ed8"/>
<circle cx="448.82" cy="490.00" r="3.2" fill="#1d4ed8"/>
<circle cx="452.20" cy="484.34" r="3.2" fill="#1d4ed8"/>
<circle cx="455.59" cy="481.10" r="3.2" fill="#1d4ed8"/>
<circle cx="458.98" cy="480.29" r="3.2" fill="#1d4ed8"/>
<circle cx="462.36" cy="480.70" r="3.2" fill="#1d4ed8"/>
<circle cx="465.75" cy="460.88" r="3.2" fill="#1d4ed8"/>
<circle cx="469.13" cy="459.26" r="3.2" fill="#1d4ed8"/>
<circle cx="472.52" cy="458.05" r="3.2" fill="#1d4ed8"/>
<circle cx="475.90" cy="456.03" r="3.2" fill="#1d4ed8"/>
<circle cx="479.29" cy="456.03" r="3.2" fill="#1d4ed8"/>
<circle cx="482.67" cy="454.41" r="3.2" fill="#1d4ed8"/>
<circle cx="486.06" cy="450.77" r="3.2" fill="#1d4ed8"/>
<circle cx="489.44" cy="444.30" r="3.2" fill="#1d4ed8"/>
<circle cx="492.83" cy="443.90" r="3.2" fill="#1d4ed8"/>
<circle cx="496.21" cy="600.00" r="3.2" fill="#1d4ed8"/>
<circle cx="499.60" cy="441.88" r="3.2" fill="#1d4ed8"/>
<circle cx="502.98" cy="440.66" r="3.2" fill="#1d4ed8"/>
<circle cx="506.37" cy="439.45" r="3.2" fill="#1d4ed8"/>
<circle cx="509.75" cy="439.04" r="3.2" fill="#1d4ed8"/>
<circle cx="513.14" cy="438.64" r="3.2" fill="#1d4ed8"/>
<circle cx="516.52" cy="437.83" r="3.2" fill="#1d4ed8"/>
<circle cx="519.91" cy="436.62" r="3.2" fill="#1d4ed8"/>
<circle cx="523.29" cy="436.62" r="3.2" fill="#1d4ed8"/>
<circle cx="526.68" cy="434.60" r="3.2" fill="#1d4ed8"/>
<circle cx="530.06" cy="432.17" r="3.2" fill="#1d4ed8"/>
<circle cx="533.45" cy="429.34" r="3.2" fill="#1d4ed8"/>
<circle cx="536.83" cy="428.93" r="3.2" fill="#1d4ed8"/>
<circle cx="540.22" cy="428.53" r="3.2" fill="#1d4ed8"/>
<circle cx="543.60" cy="427.72" r="3.2" fill="#1d4ed8"/>
<circle cx="546.99" cy="426.91" r="3.2" fill="#1d4ed8"/>
<circle cx="550.37" cy="426.10" r="3.2" fill="#1d4ed8"/>
<circle cx="553.76" cy="426.10" r="3.2" fill="#1d4ed8"/>
<circle cx="557.14" cy="426.10" r="3.2" fill="#1d4ed8"/>
<circle cx="560.53" cy="419.63" r="3.2" fill="#1d4ed8"/>
<circle cx="563.91" cy="419.23" r="3.2" fill="#1d4ed8"/>
<circle cx="567.30" cy="418.42" r="3.2" fill="#1d4ed8"/>
<circle cx="570.68" cy="418.01" r="3.2" fill="#1d4ed8"/>
<circle cx="574.07" cy="417.61" r="3.2" fill="#1d4ed8"/>
<circle cx="577.45" cy="417.61" r="3.2" fill="#1d4ed8"/>
<circle cx="580.84" cy="417.61" r="3.2" fill="#1d4ed8"/>
<circle cx="584.22" cy="417.21" r="3.2" fill="#1d4ed8"/>
<circle cx="587.61" cy="417.21" r="3.2" fill="#1d4ed8"/>
<circle cx="590.99" cy="413.57" r="3.2" fill="#1d4ed8"/>
<circle cx="594.38" cy="411.95" r="3.2" fill="#1d4ed8"/>
<circle cx="597.76" cy="412.76" r="3.2" fill="#1d4ed8"/>
<circle cx="601.15" cy="410.74" r="3.2" fill="#1d4ed8"/>
<circle cx="604.53" cy="410.74" r="3.2" fill="#1d4ed8"/>
<circle cx="607.92" cy="410.33" r="3.2" fill="#1d4ed8"/>
<circle cx="611.30" cy="410.33" r="3.2" fill="#1d4ed8"/>
<circle cx="614.69" cy="410.33" r="3.2" fill="#1d4ed8"/>
<circle cx="618.07" cy="409.93" r="3.2" fill="#1d4ed8"/>
<circle cx="621.46" cy="409.93" r="3.2" fill="#1d4ed8"/>
<circle cx="624.84" cy="409.93" r="3.2" fill="#1d4ed8"/>
<circle cx="628.23" cy="409.52" r="3.2" fill="#1d4ed8"/>
<circle cx="631.61" cy="409.52" r="3.2" fill="#1d4ed8"/>
<circle cx="635.00" cy="409.12" r="3.2" fill="#1d4ed8"/>
<circle cx="638.39" cy="409.52" r="3.2" fill="#1d4ed8"/>
<circle cx="641.77" cy="409.12" r="3.2" fill="#1d4ed8"/>
<circle cx="645.16" cy="407.50" r="3.2" fill="#1d4ed8"/>
<circle cx="648.54" cy="407.10" r="3.2" fill="#1d4ed8"/>
<circle cx="651.93" cy="403.05" r="3.2" fill="#1d4ed8"/>
<circle cx="655.31" cy="399.82" r="3.2" fill="#1d4ed8"/>
<circle cx="658.70" cy="400.22" r="3.2" fill="#1d4ed8"/>
<circle cx="662.08" cy="400.62" r="3.2" fill="#1d4ed8"/>
<circle cx="665.47" cy="400.62" r="3.2" fill="#1d4ed8"/>
<circle cx="668.85" cy="399.41" r="3.2" fill="#1d4ed8"/>
<circle cx="672.24" cy="392.94" r="3.2" fill="#1d4ed8"/>
<circle cx="675.62" cy="391.32" r="3.2" fill="#1d4ed8"/>
<circle cx="679.01" cy="389.30" r="3.2" fill="#1d4ed8"/>
<circle cx="682.39" cy="389.30" r="3.2" fill="#1d4ed8"/>
<circle cx="685.78" cy="388.49" r="3.2" fill="#1d4ed8"/>
<circle cx="689.16" cy="375.15" r="3.2" fill="#1d4ed8"/>
<circle cx="692.55" cy="374.74" r="3.2" fill="#1d4ed8"/>
<circle cx="695.93" cy="374.74" r="3.2" fill="#1d4ed8"/>
<circle cx="699.32" cy="374.74" r="3.2" fill="#1d4ed8"/>
<circle cx="702.70" cy="374.74" r="3.2" fill="#1d4ed8"/>
<circle cx="706.09" cy="374.34" r="3.2" fill="#1d4ed8"/>
<circle cx="709.47" cy="374.34" r="3.2" fill="#1d4ed8"/>
<circle cx="712.86" cy="374.34" r="3.2" fill="#1d4ed8"/>
<circle cx="716.24" cy="374.34" r="3.2" fill="#1d4ed8"/>
<circle cx="719.63" cy="374.34" r="3.2" fill="#1d4ed8"/>
<circle cx="723.01" cy="373.93" r="3.2" fill="#1d4ed8"/>
<circle cx="726.40" cy="373.12" r="3.2" fill="#1d4ed8"/>
<circle cx="729.78" cy="372.72" r="3.2" fill="#1d4ed8"/>
<circle cx="733.17" cy="373.53" r="3.2" fill="#1d4ed8"/>
<circle cx="736.55" cy="435.81" r="3.2" fill="#1d4ed8"/>
<circle cx="739.94" cy="372.32" r="3.2" fill="#1d4ed8"/>
<circle cx="743.32" cy="372.72" r="3.2" fill="#1d4ed8"/>
<circle cx="746.71" cy="371.91" r="3.2" fill="#1d4ed8"/>
<circle cx="750.09" cy="371.91" r="3.2" fill="#1d4ed8"/>
<circle cx="753.48" cy="372.32" r="3.2" fill="#1d4ed8"/>
<circle cx="756.86" cy="371.10" r="3.2" fill="#1d4ed8"/>
<circle cx="760.25" cy="369.89" r="3.2" fill="#1d4ed8"/>
<circle cx="763.63" cy="369.89" r="3.2" fill="#1d4ed8"/>
<circle cx="767.02" cy="369.89" r="3.2" fill="#1d4ed8"/>
<circle cx="770.40" cy="369.49" r="3.2" fill="#1d4ed8"/>
<circle cx="773.79" cy="369.89" r="3.2" fill="#1d4ed8"/>
<circle cx="777.17" cy="369.08" r="3.2" fill="#1d4ed8"/>
<circle cx="780.56" cy="368.68" r="3.2" fill="#1d4ed8"/>
<circle cx="783.94" cy="368.27" r="3.2" fill="#1d4ed8"/>
<circle cx="787.33" cy="367.87" r="3.2" fill="#1d4ed8"/>
<circle cx="790.71" cy="367.06" r="3.2" fill="#1d4ed8"/>
<circle cx="794.10" cy="367.46" r="3.2" fill="#1d4ed8"/>
<circle cx="797.48" cy="367.06" r="3.2" fill="#1d4ed8"/>
<circle cx="800.87" cy="366.25" r="3.2" fill="#1d4ed8"/>
<circle cx="804.25" cy="368.27" r="3.2" fill="#1d4ed8"/>
<circle cx="807.64" cy="368.68" r="3.2" fill="#1d4ed8"/>
<circle cx="811.02" cy="368.68" r="3.2" fill="#1d4ed8"/>
<circle cx="814.41" cy="368.27" r="3.2" fill="#1d4ed8"/>
<circle cx="817.80" cy="369.08" r="3.2" fill="#1d4ed8"/>
<circle cx="821.18" cy="367.87" r="3.2" fill="#1d4ed8"/>
<circle cx="824.57" cy="367.46" r="3.2" fill="#1d4ed8"/>
<circle cx="827.95" cy="367.06" r="3.2" fill="#1d4ed8"/>
<circle cx="831.34" cy="360.18" r="3.2" fill="#1d4ed8"/>
<circle cx="834.72" cy="359.78" r="3.2" fill="#1d4ed8"/>
<circle cx="838.11" cy="359.38" r="3.2" fill="#1d4ed8"/>
<circle cx="841.49" cy="356.95" r="3.2" fill="#1d4ed8"/>
<circle cx="844.88" cy="357.35" r="3.2" fill="#1d4ed8"/>
<circle cx="848.26" cy="357.76" r="3.2" fill="#1d4ed8"/>
<circle cx="851.65" cy="355.33" r="3.2" fill="#1d4ed8"/>
<circle cx="855.03" cy="355.74" r="3.2" fill="#1d4ed8"/>
<circle cx="858.42" cy="357.35" r="3.2" fill="#1d4ed8"/>
<circle cx="861.80" cy="355.33" r="3.2" fill="#1d4ed8"/>
<circle cx="865.19" cy="356.14" r="3.2" fill="#1d4ed8"/>
<circle cx="868.57" cy="355.74" r="3.2" fill="#1d4ed8"/>
<circle cx="871.96" cy="356.14" r="3.2" fill="#1d4ed8"/>
<circle cx="875.34" cy="354.12" r="3.2" fill="#1d4ed8"/>
<circle cx="878.73" cy="354.93" r="3.2" fill="#1d4ed8"/>
<circle cx="882.11" cy="356.14" r="3.2" fill="#1d4ed8"/>
<circle cx="885.50" cy="354.52" r="3.2" fill="#1d4ed8"/>
<circle cx="888.88" cy="353.71" r="3.2" fill="#1d4ed8"/>
<circle cx="892.27" cy="354.12" r="3.2" fill="#1d4ed8"/>
<circle cx="895.65" cy="354.93" r="3.2" fill="#1d4ed8"/>
<circle cx="899.04" cy="352.90" r="3.2" fill="#1d4ed8"/>
<circle cx="902.42" cy="353.71" r="3.2" fill="#1d4ed8"/>
<circle cx="905.81" cy="353.31" r="3.2" fill="#1d4ed8"/>
<circle cx="909.19" cy="353.31" r="3.2" fill="#1d4ed8"/>
<circle cx="912.58" cy="354.52" r="3.2" fill="#1d4ed8"/>
<circle cx="915.96" cy="352.90" r="3.2" fill="#1d4ed8"/>
<circle cx="919.35" cy="352.50" r="3.2" fill="#1d4ed8"/>
<circle cx="922.73" cy="352.50" r="3.2" fill="#1d4ed8"/>
<circle cx="926.12" cy="353.31" r="3.2" fill="#1d4ed8"/>
<circle cx="929.50" cy="352.50" r="3.2" fill="#1d4ed8"/>
<circle cx="932.89" cy="353.71" r="3.2" fill="#1d4ed8"/>
<circle cx="936.27" cy="354.12" r="3.2" fill="#1d4ed8"/>
<circle cx="939.66" cy="352.50" r="3.2" fill="#1d4ed8"/>
<circle cx="943.04" cy="352.90" r="3.2" fill="#1d4ed8"/>
<circle cx="946.43" cy="352.50" r="3.2" fill="#1d4ed8"/>
<circle cx="949.81" cy="352.10" r="3.2" fill="#1d4ed8"/>
<circle cx="953.20" cy="351.69" r="3.2" fill="#1d4ed8"/>
<circle cx="956.58" cy="352.10" r="3.2" fill="#1d4ed8"/>
<circle cx="959.97" cy="354.12" r="3.2" fill="#1d4ed8"/>
<circle cx="963.35" cy="352.50" r="3.2" fill="#1d4ed8"/>
<circle cx="966.74" cy="352.10" r="3.2" fill="#1d4ed8"/>
<circle cx="970.12" cy="352.10" r="3.2" fill="#1d4ed8"/>
<circle cx="973.51" cy="349.67" r="3.2" fill="#1d4ed8"/>
<circle cx="976.89" cy="349.67" r="3.2" fill="#1d4ed8"/>
<circle cx="980.28" cy="350.88" r="3.2" fill="#1d4ed8"/>
<circle cx="983.66" cy="351.29" r="3.2" fill="#1d4ed8"/>
<circle cx="987.05" cy="350.48" r="3.2" fill="#1d4ed8"/>
<circle cx="990.43" cy="352.10" r="3.2" fill="#1d4ed8"/>
<circle cx="993.82" cy="350.48" r="3.2" fill="#1d4ed8"/>
<circle cx="997.20" cy="350.48" r="3.2" fill="#1d4ed8"/>
<circle cx="1000.59" cy="350.48" r="3.2" fill="#1d4ed8"/>
<circle cx="1003.98" cy="350.07" r="3.2" fill="#1d4ed8"/>
<circle cx="1007.36" cy="348.46" r="3.2" fill="#1d4ed8"/>
<circle cx="1010.75" cy="351.29" r="3.2" fill="#1d4ed8"/>
<circle cx="1014.13" cy="349.67" r="3.2" fill="#1d4ed8"/>
<circle cx="1017.52" cy="351.29" r="3.2" fill="#1d4ed8"/>
<circle cx="1020.90" cy="349.67" r="3.2" fill="#1d4ed8"/>
<circle cx="1024.29" cy="348.86" r="3.2" fill="#1d4ed8"/>
<circle cx="1027.67" cy="348.46" r="3.2" fill="#1d4ed8"/>
<circle cx="1031.06" cy="348.46" r="3.2" fill="#1d4ed8"/>
<circle cx="1034.44" cy="347.24" r="3.2" fill="#1d4ed8"/>
<circle cx="1037.83" cy="348.86" r="3.2" fill="#1d4ed8"/>
<circle cx="1041.21" cy="346.84" r="3.2" fill="#1d4ed8"/>
<circle cx="1044.60" cy="348.46" r="3.2" fill="#1d4ed8"/>
<circle cx="1047.98" cy="348.86" r="3.2" fill="#1d4ed8"/>
<circle cx="1051.37" cy="346.84" r="3.2" fill="#1d4ed8"/>
<circle cx="1054.75" cy="349.26" r="3.2" fill="#1d4ed8"/>
<circle cx="1058.14" cy="348.05" r="3.2" fill="#1d4ed8"/>
<circle cx="1061.52" cy="349.26" r="3.2" fill="#1d4ed8"/>
<circle cx="1064.91" cy="349.26" r="3.2" fill="#1d4ed8"/>
<circle cx="1068.29" cy="350.48" r="3.2" fill="#1d4ed8"/>
<circle cx="1071.68" cy="352.90" r="3.2" fill="#1d4ed8"/>
<circle cx="1075.06" cy="349.67" r="3.2" fill="#1d4ed8"/>
<circle cx="1078.45" cy="348.46" r="3.2" fill="#1d4ed8"/>
<circle cx="1081.83" cy="345.62" r="3.2" fill="#1d4ed8"/>
<circle cx="1085.22" cy="344.82" r="3.2" fill="#1d4ed8"/>
<circle cx="1088.60" cy="344.41" r="3.2" fill="#1d4ed8"/>
<circle cx="1091.99" cy="342.39" r="3.2" fill="#1d4ed8"/>
<circle cx="1095.37" cy="341.18" r="3.2" fill="#1d4ed8"/>
<circle cx="1098.76" cy="341.58" r="3.2" fill="#1d4ed8"/>
<circle cx="1102.14" cy="339.15" r="3.2" fill="#1d4ed8"/>
<circle cx="1105.53" cy="338.35" r="3.2" fill="#1d4ed8"/>
<circle cx="1108.91" cy="337.54" r="3.2" fill="#1d4ed8"/>
<circle cx="1112.30" cy="336.73" r="3.2" fill="#1d4ed8"/>
<circle cx="1115.68" cy="335.92" r="3.2" fill="#1d4ed8"/>
<circle cx="1119.07" cy="337.54" r="3.2" fill="#1d4ed8"/>
<circle cx="1122.45" cy="338.35" r="3.2" fill="#1d4ed8"/>
<circle cx="1125.84" cy="337.54" r="3.2" fill="#1d4ed8"/>
<circle cx="1129.22" cy="337.54" r="3.2" fill="#1d4ed8"/>
<circle cx="1132.61" cy="337.54" r="3.2" fill="#1d4ed8"/>
<circle cx="1135.99" cy="333.09" r="3.2" fill="#1d4ed8"/>
<circle cx="1139.38" cy="333.90" r="3.2" fill="#1d4ed8"/>
<circle cx="1142.76" cy="335.92" r="3.2" fill="#1d4ed8"/>
<circle cx="1146.15" cy="336.73" r="3.2" fill="#1d4ed8"/>
<circle cx="1149.53" cy="335.51" r="3.2" fill="#1d4ed8"/>
<circle cx="1152.92" cy="332.28" r="3.2" fill="#1d4ed8"/>
<circle cx="1156.30" cy="331.47" r="3.2" fill="#1d4ed8"/>
<circle cx="1159.69" cy="331.07" r="3.2" fill="#1d4ed8"/>
<circle cx="1163.07" cy="331.47" r="3.2" fill="#1d4ed8"/>
<circle cx="1166.46" cy="331.07" r="3.2" fill="#1d4ed8"/>
<circle cx="1169.84" cy="331.07" r="3.2" fill="#1d4ed8"/>
<circle cx="1173.23" cy="331.07" r="3.2" fill="#1d4ed8"/>
<circle cx="1176.61" cy="331.07" r="3.2" fill="#1d4ed8"/>
<circle cx="1180.00" cy="331.07" r="3.2" fill="#1d4ed8"/>
<text x="635" y="695" text-anchor="middle" font-size="14" fill="#111" font-family="sans-serif">Date</text>
<text x="24" y="325" text-anchor="middle" font-size="14" fill="#111" transform="rotate(-90 24,325)" font-family="sans-serif">Passed files</text>
</svg>
