<?xml version="1.0" encoding="UTF-8"?>
<svg xmlns="http://www.w3.org/2000/svg" width="1280" height="720" viewBox="0 0 1280 720">
<rect width="100%" height="100%" fill="#ffffff"/>
<text x="640" y="30" text-anchor="middle" font-size="22" font-family="sans-serif">Roast passed files history</text>
<line x1="90" y1="600" x2="1180" y2="600" stroke="#333" stroke-width="1.5"/>
<line x1="90" y1="50" x2="90" y2="600" stroke="#333" stroke-width="1.5"/>
<line x1="90" y1="600.00" x2="1180" y2="600.00" stroke="#e5e7eb" stroke-width="1"/>
<text x="78" y="605.00" text-anchor="end" font-size="12" fill="#111" font-family="sans-serif">0</text>
<line x1="90" y1="397.79" x2="1180" y2="397.79" stroke="#e5e7eb" stroke-width="1"/>
<text x="78" y="402.79" text-anchor="end" font-size="12" fill="#111" font-family="sans-serif">500</text>
<line x1="90" y1="195.59" x2="1180" y2="195.59" stroke="#e5e7eb" stroke-width="1"/>
<text x="78" y="200.59" text-anchor="end" font-size="12" fill="#111" font-family="sans-serif">1000</text>
<line x1="90.00" y1="600" x2="90.00" y2="606" stroke="#333" stroke-width="1"/>
<text x="90.00" y="624" text-anchor="end" font-size="11" fill="#111" transform="rotate(-40 90.00,624)" font-family="sans-serif">2026-02-12</text>
<line x1="224.85" y1="600" x2="224.85" y2="606" stroke="#333" stroke-width="1"/>
<text x="224.85" y="624" text-anchor="end" font-size="11" fill="#111" transform="rotate(-40 224.85,624)" font-family="sans-serif">2026-02-17</text>
<line x1="359.69" y1="600" x2="359.69" y2="606" stroke="#333" stroke-width="1"/>
<text x="359.69" y="624" text-anchor="end" font-size="11" fill="#111" transform="rotate(-40 359.69,624)" font-family="sans-serif">2026-02-20</text>
<line x1="494.54" y1="600" x2="494.54" y2="606" stroke="#333" stroke-width="1"/>
<text x="494.54" y="624" text-anchor="end" font-size="11" fill="#111" transform="rotate(-40 494.54,624)" font-family="sans-serif">2026-02-24</text>
<line x1="629.38" y1="600" x2="629.38" y2="606" stroke="#333" stroke-width="1"/>
<text x="629.38" y="624" text-anchor="end" font-size="11" fill="#111" transform="rotate(-40 629.38,624)" font-family="sans-serif">2026-02-26</text>
<line x1="764.23" y1="600" x2="764.23" y2="606" stroke="#333" stroke-width="1"/>
<text x="764.23" y="624" text-anchor="end" font-size="11" fill="#111" transform="rotate(-40 764.23,624)" font-family="sans-serif">2026-02-28</text>
<line x1="899.07" y1="600" x2="899.07" y2="606" stroke="#333" stroke-width="1"/>
<text x="899.07" y="624" text-anchor="end" font-size="11" fill="#111" transform="rotate(-40 899.07,624)" font-family="sans-serif">2026-03-04</text>
<line x1="1033.92" y1="600" x2="1033.92" y2="606" stroke="#333" stroke-width="1"/>
<text x="1033.92" y="624" text-anchor="end" font-size="11" fill="#111" transform="rotate(-40 1033.92,624)" font-family="sans-serif">2026-03-06</text>
<line x1="1168.76" y1="600" x2="1168.76" y2="606" stroke="#333" stroke-width="1"/>
<text x="1168.76" y="624" text-anchor="end" font-size="11" fill="#111" transform="rotate(-40 1168.76,624)" font-family="sans-serif">2026-03-07</text>
<line x1="1180.00" y1="600" x2="1180.00" y2="606" stroke="#333" stroke-width="1"/>
<text x="1180.00" y="624" text-anchor="end" font-size="11" fill="#111" transform="rotate(-40 1180.00,624)" font-family="sans-serif">2026-03-07</text>
<line x1="90" y1="75.88" x2="1180" y2="75.88" stroke="#dc2626" stroke-width="1.5" stroke-dasharray="8,4"/>
<text x="1184" y="79.88" font-size="12" fill="#dc2626" font-family="sans-serif">Goal: 1296</text>
<polyline fill="none" stroke="#2563eb" stroke-width="3" points="90.00,540.55 93.75,538.53 97.49,536.91 101.24,534.49 104.98,534.49 108.73,533.27 112.47,532.46 116.22,532.87 119.97,532.06 123.71,532.46 127.46,532.06 131.20,568.46 134.95,568.46 138.69,566.43 142.44,545.00 146.19,545.00 149.93,544.19 153.68,543.79 157.42,543.79 161.17,543.38 164.91,541.76 168.66,541.36 172.41,540.96 176.15,540.96 179.90,539.34 183.64,539.34 187.39,556.73 191.13,556.73 194.88,555.51 198.63,551.07 202.37,538.93 206.12,538.93 209.86,538.93 213.61,538.12 217.35,536.91 221.10,536.91 224.85,536.51 228.59,536.51 232.34,556.73 236.08,556.73 239.83,556.73 243.57,556.73 247.32,535.29 251.07,535.29 254.81,535.29 258.56,535.29 262.30,534.49 266.05,534.08 269.79,533.68 273.54,532.87 277.29,532.06 281.03,532.06 284.78,531.25 288.52,530.85 292.27,530.44 296.01,530.04 299.76,530.04 303.51,529.23 307.25,529.23 311.00,529.23 314.74,528.42 318.49,528.42 322.23,527.61 325.98,527.21 329.73,526.80 333.47,526.40 337.22,525.18 340.96,523.57 344.71,523.57 348.45,523.16 352.20,522.76 355.95,522.35 359.69,521.54 363.44,519.52 367.18,517.50 370.93,517.50 374.67,517.50 378.42,517.50 382.16,517.50 385.91,517.50 389.66,517.10 393.40,516.69 397.15,515.48 400.89,515.07 404.64,514.67 408.38,513.86 412.13,514.26 415.88,512.24 419.62,511.84 423.37,511.84 427.11,511.03 430.86,509.82 434.60,507.79 438.35,506.99 442.10,506.58 445.84,509.41 449.59,509.01 453.33,504.96 457.08,504.56 460.82,504.15 464.57,504.56 468.32,503.75 472.06,503.75 475.81,503.35 479.55,499.30 483.30,496.47 487.04,490.00 490.79,484.34 494.54,481.10 498.28,480.29 502.03,480.70 505.77,460.88 509.52,459.26 513.26,458.05 517.01,456.03 520.76,456.03 524.50,454.41 528.25,450.77 531.99,444.30 535.74,443.90 539.48,600.00 543.23,441.88 546.98,440.66 550.72,439.45 554.47,439.04 558.21,438.64 561.96,437.83 565.70,436.62 569.45,436.62 573.20,434.60 576.94,432.17 580.69,429.34 584.43,428.93 588.18,428.53 591.92,427.72 595.67,426.91 599.42,426.10 603.16,426.10 606.91,426.10 610.65,419.63 614.40,419.23 618.14,418.42 621.89,418.01 625.64,417.61 629.38,417.61 633.13,417.61 636.87,417.21 640.62,417.21 644.36,413.57 648.11,411.95 651.86,412.76 655.60,410.74 659.35,410.74 663.09,410.33 666.84,410.33 670.58,410.33 674.33,409.93 678.08,409.93 681.82,409.93 685.57,409.52 689.31,409.52 693.06,409.12 696.80,409.52 700.55,409.12 704.30,407.50 708.04,407.10 711.79,403.05 715.53,399.82 719.28,400.22 723.02,400.62 726.77,400.62 730.52,399.41 734.26,392.94 738.01,391.32 741.75,389.30 745.50,389.30 749.24,388.49 752.99,375.15 756.74,374.74 760.48,374.74 764.23,374.74 767.97,374.74 771.72,374.34 775.46,374.34 779.21,374.34 782.96,374.34 786.70,374.34 790.45,373.93 794.19,373.12 797.94,372.72 801.68,373.53 805.43,435.81 809.18,372.32 812.92,372.72 816.67,371.91 820.41,371.91 824.16,372.32 827.90,371.10 831.65,369.89 835.40,369.89 839.14,369.89 842.89,369.49 846.63,369.89 850.38,369.08 854.12,368.68 857.87,368.27 861.62,367.87 865.36,367.06 869.11,367.46 872.85,367.06 876.60,366.25 880.34,368.27 884.09,368.68 887.84,368.68 891.58,368.27 895.33,369.08 899.07,367.87 902.82,367.46 906.56,367.06 910.31,360.18 914.05,359.78 917.80,359.38 921.55,356.95 925.29,357.35 929.04,357.76 932.78,355.33 936.53,355.74 940.27,357.35 944.02,355.33 947.77,356.14 951.51,355.74 955.26,356.14 959.00,354.12 962.75,354.93 966.49,356.14 970.24,354.52 973.99,353.71 977.73,354.12 981.48,354.93 985.22,352.90 988.97,353.71 992.71,353.31 996.46,353.31 1000.21,354.52 1003.95,352.90 1007.70,352.50 1011.44,352.50 1015.19,353.31 1018.93,352.50 1022.68,353.71 1026.43,354.12 1030.17,352.50 1033.92,352.90 1037.66,352.50 1041.41,352.10 1045.15,351.69 1048.90,352.10 1052.65,354.12 1056.39,352.50 1060.14,352.10 1063.88,352.10 1067.63,349.67 1071.37,349.67 1075.12,350.88 1078.87,351.29 1082.61,350.48 1086.36,352.10 1090.10,350.48 1093.85,350.48 1097.59,350.48 1101.34,350.07 1105.09,348.46 1108.83,351.29 1112.58,349.67 1116.32,351.29 1120.07,349.67 1123.81,348.86 1127.56,348.46 1131.31,348.46 1135.05,347.24 1138.80,348.86 1142.54,346.84 1146.29,348.46 1150.03,348.86 1153.78,346.84 1157.53,349.26 1161.27,348.05 1165.02,349.26 1168.76,349.26 1172.51,350.48 1176.25,352.90 1180.00,349.67"/>
<circle cx="90.00" cy="540.55" r="3.2" fill="#1d4ed8"/>
<circle cx="93.75" cy="538.53" r="3.2" fill="#1d4ed8"/>
<circle cx="97.49" cy="536.91" r="3.2" fill="#1d4ed8"/>
<circle cx="101.24" cy="534.49" r="3.2" fill="#1d4ed8"/>
<circle cx="104.98" cy="534.49" r="3.2" fill="#1d4ed8"/>
<circle cx="108.73" cy="533.27" r="3.2" fill="#1d4ed8"/>
<circle cx="112.47" cy="532.46" r="3.2" fill="#1d4ed8"/>
<circle cx="116.22" cy="532.87" r="3.2" fill="#1d4ed8"/>
<circle cx="119.97" cy="532.06" r="3.2" fill="#1d4ed8"/>
<circle cx="123.71" cy="532.46" r="3.2" fill="#1d4ed8"/>
<circle cx="127.46" cy="532.06" r="3.2" fill="#1d4ed8"/>
<circle cx="131.20" cy="568.46" r="3.2" fill="#1d4ed8"/>
<circle cx="134.95" cy="568.46" r="3.2" fill="#1d4ed8"/>
<circle cx="138.69" cy="566.43" r="3.2" fill="#1d4ed8"/>
<circle cx="142.44" cy="545.00" r="3.2" fill="#1d4ed8"/>
<circle cx="146.19" cy="545.00" r="3.2" fill="#1d4ed8"/>
<circle cx="149.93" cy="544.19" r="3.2" fill="#1d4ed8"/>
<circle cx="153.68" cy="543.79" r="3.2" fill="#1d4ed8"/>
<circle cx="157.42" cy="543.79" r="3.2" fill="#1d4ed8"/>
<circle cx="161.17" cy="543.38" r="3.2" fill="#1d4ed8"/>
<circle cx="164.91" cy="541.76" r="3.2" fill="#1d4ed8"/>
<circle cx="168.66" cy="541.36" r="3.2" fill="#1d4ed8"/>
<circle cx="172.41" cy="540.96" r="3.2" fill="#1d4ed8"/>
<circle cx="176.15" cy="540.96" r="3.2" fill="#1d4ed8"/>
<circle cx="179.90" cy="539.34" r="3.2" fill="#1d4ed8"/>
<circle cx="183.64" cy="539.34" r="3.2" fill="#1d4ed8"/>
<circle cx="187.39" cy="556.73" r="3.2" fill="#1d4ed8"/>
<circle cx="191.13" cy="556.73" r="3.2" fill="#1d4ed8"/>
<circle cx="194.88" cy="555.51" r="3.2" fill="#1d4ed8"/>
<circle cx="198.63" cy="551.07" r="3.2" fill="#1d4ed8"/>
<circle cx="202.37" cy="538.93" r="3.2" fill="#1d4ed8"/>
<circle cx="206.12" cy="538.93" r="3.2" fill="#1d4ed8"/>
<circle cx="209.86" cy="538.93" r="3.2" fill="#1d4ed8"/>
<circle cx="213.61" cy="538.12" r="3.2" fill="#1d4ed8"/>
<circle cx="217.35" cy="536.91" r="3.2" fill="#1d4ed8"/>
<circle cx="221.10" cy="536.91" r="3.2" fill="#1d4ed8"/>
<circle cx="224.85" cy="536.51" r="3.2" fill="#1d4ed8"/>
<circle cx="228.59" cy="536.51" r="3.2" fill="#1d4ed8"/>
<circle cx="232.34" cy="556.73" r="3.2" fill="#1d4ed8"/>
<circle cx="236.08" cy="556.73" r="3.2" fill="#1d4ed8"/>
<circle cx="239.83" cy="556.73" r="3.2" fill="#1d4ed8"/>
<circle cx="243.57" cy="556.73" r="3.2" fill="#1d4ed8"/>
<circle cx="247.32" cy="535.29" r="3.2" fill="#1d4ed8"/>
<circle cx="251.07" cy="535.29" r="3.2" fill="#1d4ed8"/>
<circle cx="254.81" cy="535.29" r="3.2" fill="#1d4ed8"/>
<circle cx="258.56" cy="535.29" r="3.2" fill="#1d4ed8"/>
<circle cx="262.30" cy="534.49" r="3.2" fill="#1d4ed8"/>
<circle cx="266.05" cy="534.08" r="3.2" fill="#1d4ed8"/>
<circle cx="269.79" cy="533.68" r="3.2" fill="#1d4ed8"/>
<circle cx="273.54" cy="532.87" r="3.2" fill="#1d4ed8"/>
<circle cx="277.29" cy="532.06" r="3.2" fill="#1d4ed8"/>
<circle cx="281.03" cy="532.06" r="3.2" fill="#1d4ed8"/>
<circle cx="284.78" cy="531.25" r="3.2" fill="#1d4ed8"/>
<circle cx="288.52" cy="530.85" r="3.2" fill="#1d4ed8"/>
<circle cx="292.27" cy="530.44" r="3.2" fill="#1d4ed8"/>
<circle cx="296.01" cy="530.04" r="3.2" fill="#1d4ed8"/>
<circle cx="299.76" cy="530.04" r="3.2" fill="#1d4ed8"/>
<circle cx="303.51" cy="529.23" r="3.2" fill="#1d4ed8"/>
<circle cx="307.25" cy="529.23" r="3.2" fill="#1d4ed8"/>
<circle cx="311.00" cy="529.23" r="3.2" fill="#1d4ed8"/>
<circle cx="314.74" cy="528.42" r="3.2" fill="#1d4ed8"/>
<circle cx="318.49" cy="528.42" r="3.2" fill="#1d4ed8"/>
<circle cx="322.23" cy="527.61" r="3.2" fill="#1d4ed8"/>
<circle cx="325.98" cy="527.21" r="3.2" fill="#1d4ed8"/>
<circle cx="329.73" cy="526.80" r="3.2" fill="#1d4ed8"/>
<circle cx="333.47" cy="526.40" r="3.2" fill="#1d4ed8"/>
<circle cx="337.22" cy="525.18" r="3.2" fill="#1d4ed8"/>
<circle cx="340.96" cy="523.57" r="3.2" fill="#1d4ed8"/>
<circle cx="344.71" cy="523.57" r="3.2" fill="#1d4ed8"/>
<circle cx="348.45" cy="523.16" r="3.2" fill="#1d4ed8"/>
<circle cx="352.20" cy="522.76" r="3.2" fill="#1d4ed8"/>
<circle cx="355.95" cy="522.35" r="3.2" fill="#1d4ed8"/>
<circle cx="359.69" cy="521.54" r="3.2" fill="#1d4ed8"/>
<circle cx="363.44" cy="519.52" r="3.2" fill="#1d4ed8"/>
<circle cx="367.18" cy="517.50" r="3.2" fill="#1d4ed8"/>
<circle cx="370.93" cy="517.50" r="3.2" fill="#1d4ed8"/>
<circle cx="374.67" cy="517.50" r="3.2" fill="#1d4ed8"/>
<circle cx="378.42" cy="517.50" r="3.2" fill="#1d4ed8"/>
<circle cx="382.16" cy="517.50" r="3.2" fill="#1d4ed8"/>
<circle cx="385.91" cy="517.50" r="3.2" fill="#1d4ed8"/>
<circle cx="389.66" cy="517.10" r="3.2" fill="#1d4ed8"/>
<circle cx="393.40" cy="516.69" r="3.2" fill="#1d4ed8"/>
<circle cx="397.15" cy="515.48" r="3.2" fill="#1d4ed8"/>
<circle cx="400.89" cy="515.07" r="3.2" fill="#1d4ed8"/>
<circle cx="404.64" cy="514.67" r="3.2" fill="#1d4ed8"/>
<circle cx="408.38" cy="513.86" r="3.2" fill="#1d4ed8"/>
<circle cx="412.13" cy="514.26" r="3.2" fill="#1d4ed8"/>
<circle cx="415.88" cy="512.24" r="3.2" fill="#1d4ed8"/>
<circle cx="419.62" cy="511.84" r="3.2" fill="#1d4ed8"/>
<circle cx="423.37" cy="511.84" r="3.2" fill="#1d4ed8"/>
<circle cx="427.11" cy="511.03" r="3.2" fill="#1d4ed8"/>
<circle cx="430.86" cy="509.82" r="3.2" fill="#1d4ed8"/>
<circle cx="434.60" cy="507.79" r="3.2" fill="#1d4ed8"/>
<circle cx="438.35" cy="506.99" r="3.2" fill="#1d4ed8"/>
<circle cx="442.10" cy="506.58" r="3.2" fill="#1d4ed8"/>
<circle cx="445.84" cy="509.41" r="3.2" fill="#1d4ed8"/>
<circle cx="449.59" cy="509.01" r="3.2" fill="#1d4ed8"/>
<circle cx="453.33" cy="504.96" r="3.2" fill="#1d4ed8"/>
<circle cx="457.08" cy="504.56" r="3.2" fill="#1d4ed8"/>
<circle cx="460.82" cy="504.15" r="3.2" fill="#1d4ed8"/>
<circle cx="464.57" cy="504.56" r="3.2" fill="#1d4ed8"/>
<circle cx="468.32" cy="503.75" r="3.2" fill="#1d4ed8"/>
<circle cx="472.06" cy="503.75" r="3.2" fill="#1d4ed8"/>
<circle cx="475.81" cy="503.35" r="3.2" fill="#1d4ed8"/>
<circle cx="479.55" cy="499.30" r="3.2" fill="#1d4ed8"/>
<circle cx="483.30" cy="496.47" r="3.2" fill="#1d4ed8"/>
<circle cx="487.04" cy="490.00" r="3.2" fill="#1d4ed8"/>
<circle cx="490.79" cy="484.34" r="3.2" fill="#1d4ed8"/>
<circle cx="494.54" cy="481.10" r="3.2" fill="#1d4ed8"/>
<circle cx="498.28" cy="480.29" r="3.2" fill="#1d4ed8"/>
<circle cx="502.03" cy="480.70" r="3.2" fill="#1d4ed8"/>
<circle cx="505.77" cy="460.88" r="3.2" fill="#1d4ed8"/>
<circle cx="509.52" cy="459.26" r="3.2" fill="#1d4ed8"/>
<circle cx="513.26" cy="458.05" r="3.2" fill="#1d4ed8"/>
<circle cx="517.01" cy="456.03" r="3.2" fill="#1d4ed8"/>
<circle cx="520.76" cy="456.03" r="3.2" fill="#1d4ed8"/>
<circle cx="524.50" cy="454.41" r="3.2" fill="#1d4ed8"/>
<circle cx="528.25" cy="450.77" r="3.2" fill="#1d4ed8"/>
<circle cx="531.99" cy="444.30" r="3.2" fill="#1d4ed8"/>
<circle cx="535.74" cy="443.90" r="3.2" fill="#1d4ed8"/>
<circle cx="539.48" cy="600.00" r="3.2" fill="#1d4ed8"/>
<circle cx="543.23" cy="441.88" r="3.2" fill="#1d4ed8"/>
<circle cx="546.98" cy="440.66" r="3.2" fill="#1d4ed8"/>
<circle cx="550.72" cy="439.45" r="3.2" fill="#1d4ed8"/>
<circle cx="554.47" cy="439.04" r="3.2" fill="#1d4ed8"/>
<circle cx="558.21" cy="438.64" r="3.2" fill="#1d4ed8"/>
<circle cx="561.96" cy="437.83" r="3.2" fill="#1d4ed8"/>
<circle cx="565.70" cy="436.62" r="3.2" fill="#1d4ed8"/>
<circle cx="569.45" cy="436.62" r="3.2" fill="#1d4ed8"/>
<circle cx="573.20" cy="434.60" r="3.2" fill="#1d4ed8"/>
<circle cx="576.94" cy="432.17" r="3.2" fill="#1d4ed8"/>
<circle cx="580.69" cy="429.34" r="3.2" fill="#1d4ed8"/>
<circle cx="584.43" cy="428.93" r="3.2" fill="#1d4ed8"/>
<circle cx="588.18" cy="428.53" r="3.2" fill="#1d4ed8"/>
<circle cx="591.92" cy="427.72" r="3.2" fill="#1d4ed8"/>
<circle cx="595.67" cy="426.91" r="3.2" fill="#1d4ed8"/>
<circle cx="599.42" cy="426.10" r="3.2" fill="#1d4ed8"/>
<circle cx="603.16" cy="426.10" r="3.2" fill="#1d4ed8"/>
<circle cx="606.91" cy="426.10" r="3.2" fill="#1d4ed8"/>
<circle cx="610.65" cy="419.63" r="3.2" fill="#1d4ed8"/>
<circle cx="614.40" cy="419.23" r="3.2" fill="#1d4ed8"/>
<circle cx="618.14" cy="418.42" r="3.2" fill="#1d4ed8"/>
<circle cx="621.89" cy="418.01" r="3.2" fill="#1d4ed8"/>
<circle cx="625.64" cy="417.61" r="3.2" fill="#1d4ed8"/>
<circle cx="629.38" cy="417.61" r="3.2" fill="#1d4ed8"/>
<circle cx="633.13" cy="417.61" r="3.2" fill="#1d4ed8"/>
<circle cx="636.87" cy="417.21" r="3.2" fill="#1d4ed8"/>
<circle cx="640.62" cy="417.21" r="3.2" fill="#1d4ed8"/>
<circle cx="644.36" cy="413.57" r="3.2" fill="#1d4ed8"/>
<circle cx="648.11" cy="411.95" r="3.2" fill="#1d4ed8"/>
<circle cx="651.86" cy="412.76" r="3.2" fill="#1d4ed8"/>
<circle cx="655.60" cy="410.74" r="3.2" fill="#1d4ed8"/>
<circle cx="659.35" cy="410.74" r="3.2" fill="#1d4ed8"/>
<circle cx="663.09" cy="410.33" r="3.2" fill="#1d4ed8"/>
<circle cx="666.84" cy="410.33" r="3.2" fill="#1d4ed8"/>
<circle cx="670.58" cy="410.33" r="3.2" fill="#1d4ed8"/>
<circle cx="674.33" cy="409.93" r="3.2" fill="#1d4ed8"/>
<circle cx="678.08" cy="409.93" r="3.2" fill="#1d4ed8"/>
<circle cx="681.82" cy="409.93" r="3.2" fill="#1d4ed8"/>
<circle cx="685.57" cy="409.52" r="3.2" fill="#1d4ed8"/>
<circle cx="689.31" cy="409.52" r="3.2" fill="#1d4ed8"/>
<circle cx="693.06" cy="409.12" r="3.2" fill="#1d4ed8"/>
<circle cx="696.80" cy="409.52" r="3.2" fill="#1d4ed8"/>
<circle cx="700.55" cy="409.12" r="3.2" fill="#1d4ed8"/>
<circle cx="704.30" cy="407.50" r="3.2" fill="#1d4ed8"/>
<circle cx="708.04" cy="407.10" r="3.2" fill="#1d4ed8"/>
<circle cx="711.79" cy="403.05" r="3.2" fill="#1d4ed8"/>
<circle cx="715.53" cy="399.82" r="3.2" fill="#1d4ed8"/>
<circle cx="719.28" cy="400.22" r="3.2" fill="#1d4ed8"/>
<circle cx="723.02" cy="400.62" r="3.2" fill="#1d4ed8"/>
<circle cx="726.77" cy="400.62" r="3.2" fill="#1d4ed8"/>
<circle cx="730.52" cy="399.41" r="3.2" fill="#1d4ed8"/>
<circle cx="734.26" cy="392.94" r="3.2" fill="#1d4ed8"/>
<circle cx="738.01" cy="391.32" r="3.2" fill="#1d4ed8"/>
<circle cx="741.75" cy="389.30" r="3.2" fill="#1d4ed8"/>
<circle cx="745.50" cy="389.30" r="3.2" fill="#1d4ed8"/>
<circle cx="749.24" cy="388.49" r="3.2" fill="#1d4ed8"/>
<circle cx="752.99" cy="375.15" r="3.2" fill="#1d4ed8"/>
<circle cx="756.74" cy="374.74" r="3.2" fill="#1d4ed8"/>
<circle cx="760.48" cy="374.74" r="3.2" fill="#1d4ed8"/>
<circle cx="764.23" cy="374.74" r="3.2" fill="#1d4ed8"/>
<circle cx="767.97" cy="374.74" r="3.2" fill="#1d4ed8"/>
<circle cx="771.72" cy="374.34" r="3.2" fill="#1d4ed8"/>
<circle cx="775.46" cy="374.34" r="3.2" fill="#1d4ed8"/>
<circle cx="779.21" cy="374.34" r="3.2" fill="#1d4ed8"/>
<circle cx="782.96" cy="374.34" r="3.2" fill="#1d4ed8"/>
<circle cx="786.70" cy="374.34" r="3.2" fill="#1d4ed8"/>
<circle cx="790.45" cy="373.93" r="3.2" fill="#1d4ed8"/>
<circle cx="794.19" cy="373.12" r="3.2" fill="#1d4ed8"/>
<circle cx="797.94" cy="372.72" r="3.2" fill="#1d4ed8"/>
<circle cx="801.68" cy="373.53" r="3.2" fill="#1d4ed8"/>
<circle cx="805.43" cy="435.81" r="3.2" fill="#1d4ed8"/>
<circle cx="809.18" cy="372.32" r="3.2" fill="#1d4ed8"/>
<circle cx="812.92" cy="372.72" r="3.2" fill="#1d4ed8"/>
<circle cx="816.67" cy="371.91" r="3.2" fill="#1d4ed8"/>
<circle cx="820.41" cy="371.91" r="3.2" fill="#1d4ed8"/>
<circle cx="824.16" cy="372.32" r="3.2" fill="#1d4ed8"/>
<circle cx="827.90" cy="371.10" r="3.2" fill="#1d4ed8"/>
<circle cx="831.65" cy="369.89" r="3.2" fill="#1d4ed8"/>
<circle cx="835.40" cy="369.89" r="3.2" fill="#1d4ed8"/>
<circle cx="839.14" cy="369.89" r="3.2" fill="#1d4ed8"/>
<circle cx="842.89" cy="369.49" r="3.2" fill="#1d4ed8"/>
<circle cx="846.63" cy="369.89" r="3.2" fill="#1d4ed8"/>
<circle cx="850.38" cy="369.08" r="3.2" fill="#1d4ed8"/>
<circle cx="854.12" cy="368.68" r="3.2" fill="#1d4ed8"/>
<circle cx="857.87" cy="368.27" r="3.2" fill="#1d4ed8"/>
<circle cx="861.62" cy="367.87" r="3.2" fill="#1d4ed8"/>
<circle cx="865.36" cy="367.06" r="3.2" fill="#1d4ed8"/>
<circle cx="869.11" cy="367.46" r="3.2" fill="#1d4ed8"/>
<circle cx="872.85" cy="367.06" r="3.2" fill="#1d4ed8"/>
<circle cx="876.60" cy="366.25" r="3.2" fill="#1d4ed8"/>
<circle cx="880.34" cy="368.27" r="3.2" fill="#1d4ed8"/>
<circle cx="884.09" cy="368.68" r="3.2" fill="#1d4ed8"/>
<circle cx="887.84" cy="368.68" r="3.2" fill="#1d4ed8"/>
<circle cx="891.58" cy="368.27" r="3.2" fill="#1d4ed8"/>
<circle cx="895.33" cy="369.08" r="3.2" fill="#1d4ed8"/>
<circle cx="899.07" cy="367.87" r="3.2" fill="#1d4ed8"/>
<circle cx="902.82" cy="367.46" r="3.2" fill="#1d4ed8"/>
<circle cx="906.56" cy="367.06" r="3.2" fill="#1d4ed8"/>
<circle cx="910.31" cy="360.18" r="3.2" fill="#1d4ed8"/>
<circle cx="914.05" cy="359.78" r="3.2" fill="#1d4ed8"/>
<circle cx="917.80" cy="359.38" r="3.2" fill="#1d4ed8"/>
<circle cx="921.55" cy="356.95" r="3.2" fill="#1d4ed8"/>
<circle cx="925.29" cy="357.35" r="3.2" fill="#1d4ed8"/>
<circle cx="929.04" cy="357.76" r="3.2" fill="#1d4ed8"/>
<circle cx="932.78" cy="355.33" r="3.2" fill="#1d4ed8"/>
<circle cx="936.53" cy="355.74" r="3.2" fill="#1d4ed8"/>
<circle cx="940.27" cy="357.35" r="3.2" fill="#1d4ed8"/>
<circle cx="944.02" cy="355.33" r="3.2" fill="#1d4ed8"/>
<circle cx="947.77" cy="356.14" r="3.2" fill="#1d4ed8"/>
<circle cx="951.51" cy="355.74" r="3.2" fill="#1d4ed8"/>
<circle cx="955.26" cy="356.14" r="3.2" fill="#1d4ed8"/>
<circle cx="959.00" cy="354.12" r="3.2" fill="#1d4ed8"/>
<circle cx="962.75" cy="354.93" r="3.2" fill="#1d4ed8"/>
<circle cx="966.49" cy="356.14" r="3.2" fill="#1d4ed8"/>
<circle cx="970.24" cy="354.52" r="3.2" fill="#1d4ed8"/>
<circle cx="973.99" cy="353.71" r="3.2" fill="#1d4ed8"/>
<circle cx="977.73" cy="354.12" r="3.2" fill="#1d4ed8"/>
<circle cx="981.48" cy="354.93" r="3.2" fill="#1d4ed8"/>
<circle cx="985.22" cy="352.90" r="3.2" fill="#1d4ed8"/>
<circle cx="988.97" cy="353.71" r="3.2" fill="#1d4ed8"/>
<circle cx="992.71" cy="353.31" r="3.2" fill="#1d4ed8"/>
<circle cx="996.46" cy="353.31" r="3.2" fill="#1d4ed8"/>
<circle cx="1000.21" cy="354.52" r="3.2" fill="#1d4ed8"/>
<circle cx="1003.95" cy="352.90" r="3.2" fill="#1d4ed8"/>
<circle cx="1007.70" cy="352.50" r="3.2" fill="#1d4ed8"/>
<circle cx="1011.44" cy="352.50" r="3.2" fill="#1d4ed8"/>
<circle cx="1015.19" cy="353.31" r="3.2" fill="#1d4ed8"/>
<circle cx="1018.93" cy="352.50" r="3.2" fill="#1d4ed8"/>
<circle cx="1022.68" cy="353.71" r="3.2" fill="#1d4ed8"/>
<circle cx="1026.43" cy="354.12" r="3.2" fill="#1d4ed8"/>
<circle cx="1030.17" cy="352.50" r="3.2" fill="#1d4ed8"/>
<circle cx="1033.92" cy="352.90" r="3.2" fill="#1d4ed8"/>
<circle cx="1037.66" cy="352.50" r="3.2" fill="#1d4ed8"/>
<circle cx="1041.41" cy="352.10" r="3.2" fill="#1d4ed8"/>
<circle cx="1045.15" cy="351.69" r="3.2" fill="#1d4ed8"/>
<circle cx="1048.90" cy="352.10" r="3.2" fill="#1d4ed8"/>
<circle cx="1052.65" cy="354.12" r="3.2" fill="#1d4ed8"/>
<circle cx="1056.39" cy="352.50" r="3.2" fill="#1d4ed8"/>
<circle cx="1060.14" cy="352.10" r="3.2" fill="#1d4ed8"/>
<circle cx="1063.88" cy="352.10" r="3.2" fill="#1d4ed8"/>
<circle cx="1067.63" cy="349.67" r="3.2" fill="#1d4ed8"/>
<circle cx="1071.37" cy="349.67" r="3.2" fill="#1d4ed8"/>
<circle cx="1075.12" cy="350.88" r="3.2" fill="#1d4ed8"/>
<circle cx="1078.87" cy="351.29" r="3.2" fill="#1d4ed8"/>
<circle cx="1082.61" cy="350.48" r="3.2" fill="#1d4ed8"/>
<circle cx="1086.36" cy="352.10" r="3.2" fill="#1d4ed8"/>
<circle cx="1090.10" cy="350.48" r="3.2" fill="#1d4ed8"/>
<circle cx="1093.85" cy="350.48" r="3.2" fill="#1d4ed8"/>
<circle cx="1097.59" cy="350.48" r="3.2" fill="#1d4ed8"/>
<circle cx="1101.34" cy="350.07" r="3.2" fill="#1d4ed8"/>
<circle cx="1105.09" cy="348.46" r="3.2" fill="#1d4ed8"/>
<circle cx="1108.83" cy="351.29" r="3.2" fill="#1d4ed8"/>
<circle cx="1112.58" cy="349.67" r="3.2" fill="#1d4ed8"/>
<circle cx="1116.32" cy="351.29" r="3.2" fill="#1d4ed8"/>
<circle cx="1120.07" cy="349.67" r="3.2" fill="#1d4ed8"/>
<circle cx="1123.81" cy="348.86" r="3.2" fill="#1d4ed8"/>
<circle cx="1127.56" cy="348.46" r="3.2" fill="#1d4ed8"/>
<circle cx="1131.31" cy="348.46" r="3.2" fill="#1d4ed8"/>
<circle cx="1135.05" cy="347.24" r="3.2" fill="#1d4ed8"/>
<circle cx="1138.80" cy="348.86" r="3.2" fill="#1d4ed8"/>
<circle cx="1142.54" cy="346.84" r="3.2" fill="#1d4ed8"/>
<circle cx="1146.29" cy="348.46" r="3.2" fill="#1d4ed8"/>
<circle cx="1150.03" cy="348.86" r="3.2" fill="#1d4ed8"/>
<circle cx="1153.78" cy="346.84" r="3.2" fill="#1d4ed8"/>
<circle cx="1157.53" cy="349.26" r="3.2" fill="#1d4ed8"/>
<circle cx="1161.27" cy="348.05" r="3.2" fill="#1d4ed8"/>
<circle cx="1165.02" cy="349.26" r="3.2" fill="#1d4ed8"/>
<circle cx="1168.76" cy="349.26" r="3.2" fill="#1d4ed8"/>
<circle cx="1172.51" cy="350.48" r="3.2" fill="#1d4ed8"/>
<circle cx="1176.25" cy="352.90" r="3.2" fill="#1d4ed8"/>
<circle cx="1180.00" cy="349.67" r="3.2" fill="#1d4ed8"/>
<text x="635" y="695" text-anchor="middle" font-size="14" fill="#111" font-family="sans-serif">Date</text>
<text x="24" y="325" text-anchor="middle" font-size="14" fill="#111" transform="rotate(-90 24,325)" font-family="sans-serif">Passed files</text>
</svg>
