<?xml version="1.0" encoding="UTF-8"?>
<svg xmlns="http://www.w3.org/2000/svg" width="1280" height="720" viewBox="0 0 1280 720">
<rect width="100%" height="100%" fill="#ffffff"/>
<text x="640" y="30" text-anchor="middle" font-size="22" font-family="sans-serif">Roast passed files history</text>
<line x1="90" y1="600" x2="1180" y2="600" stroke="#333" stroke-width="1.5"/>
<line x1="90" y1="50" x2="90" y2="600" stroke="#333" stroke-width="1.5"/>
<line x1="90" y1="600.00" x2="1180" y2="600.00" stroke="#e5e7eb" stroke-width="1"/>
<text x="78" y="605.00" text-anchor="end" font-size="12" fill="#111" font-family="sans-serif">0</text>
<line x1="90" y1="397.79" x2="1180" y2="397.79" stroke="#e5e7eb" stroke-width="1"/>
<text x="78" y="402.79" text-anchor="end" font-size="12" fill="#111" font-family="sans-serif">500</text>
<line x1="90" y1="195.59" x2="1180" y2="195.59" stroke="#e5e7eb" stroke-width="1"/>
<text x="78" y="200.59" text-anchor="end" font-size="12" fill="#111" font-family="sans-serif">1000</text>
<line x1="90.00" y1="600" x2="90.00" y2="606" stroke="#333" stroke-width="1"/>
<text x="90.00" y="624" text-anchor="end" font-size="11" fill="#111" transform="rotate(-40 90.00,624)" font-family="sans-serif">2026-02-12</text>
<line x1="225.99" y1="600" x2="225.99" y2="606" stroke="#333" stroke-width="1"/>
<text x="225.99" y="624" text-anchor="end" font-size="11" fill="#111" transform="rotate(-40 225.99,624)" font-family="sans-serif">2026-02-19</text>
<line x1="361.98" y1="600" x2="361.98" y2="606" stroke="#333" stroke-width="1"/>
<text x="361.98" y="624" text-anchor="end" font-size="11" fill="#111" transform="rotate(-40 361.98,624)" font-family="sans-serif">2026-02-25</text>
<line x1="497.97" y1="600" x2="497.97" y2="606" stroke="#333" stroke-width="1"/>
<text x="497.97" y="624" text-anchor="end" font-size="11" fill="#111" transform="rotate(-40 497.97,624)" font-family="sans-serif">2026-02-28</text>
<line x1="633.95" y1="600" x2="633.95" y2="606" stroke="#333" stroke-width="1"/>
<text x="633.95" y="624" text-anchor="end" font-size="11" fill="#111" transform="rotate(-40 633.95,624)" font-family="sans-serif">2026-03-06</text>
<line x1="769.94" y1="600" x2="769.94" y2="606" stroke="#333" stroke-width="1"/>
<text x="769.94" y="624" text-anchor="end" font-size="11" fill="#111" transform="rotate(-40 769.94,624)" font-family="sans-serif">2026-03-11</text>
<line x1="905.93" y1="600" x2="905.93" y2="606" stroke="#333" stroke-width="1"/>
<text x="905.93" y="624" text-anchor="end" font-size="11" fill="#111" transform="rotate(-40 905.93,624)" font-family="sans-serif">2026-03-19</text>
<line x1="1041.92" y1="600" x2="1041.92" y2="606" stroke="#333" stroke-width="1"/>
<text x="1041.92" y="624" text-anchor="end" font-size="11" fill="#111" transform="rotate(-40 1041.92,624)" font-family="sans-serif">2026-03-29</text>
<line x1="1177.91" y1="600" x2="1177.91" y2="606" stroke="#333" stroke-width="1"/>
<text x="1177.91" y="624" text-anchor="end" font-size="11" fill="#111" transform="rotate(-40 1177.91,624)" font-family="sans-serif">2026-06-15</text>
<line x1="1180.00" y1="600" x2="1180.00" y2="606" stroke="#333" stroke-width="1"/>
<text x="1180.00" y="624" text-anchor="end" font-size="11" fill="#111" transform="rotate(-40 1180.00,624)" font-family="sans-serif">2026-06-15</text>
<line x1="90" y1="75.88" x2="1180" y2="75.88" stroke="#dc2626" stroke-width="1.5" stroke-dasharray="8,4"/>
<text x="1184" y="79.88" font-size="12" fill="#dc2626" font-family="sans-serif">Goal: 1296</text>
<polyline fill="none" stroke="#2563eb" stroke-width="3" points="90.00,540.55 92.09,538.53 94.18,536.91 96.28,534.49 98.37,534.49 100.46,533.27 102.55,532.46 104.64,532.87 106.74,532.06 108.83,532.46 110.92,532.06 113.01,568.46 115.11,568.46 117.20,566.43 119.29,545.00 121.38,545.00 123.47,544.19 125.57,543.79 127.66,543.79 129.75,543.38 131.84,541.76 133.93,541.36 136.03,540.96 138.12,540.96 140.21,539.34 142.30,539.34 144.40,556.73 146.49,556.73 148.58,555.51 150.67,551.07 152.76,538.93 154.86,538.93 156.95,538.93 159.04,538.12 161.13,536.91 163.22,536.91 165.32,536.51 167.41,536.51 169.50,556.73 171.59,556.73 173.69,556.73 175.78,556.73 177.87,535.29 179.96,535.29 182.05,535.29 184.15,535.29 186.24,534.49 188.33,534.08 190.42,533.68 192.51,532.87 194.61,532.06 196.70,532.06 198.79,531.25 200.88,530.85 202.98,530.44 205.07,530.04 207.16,530.04 209.25,529.23 211.34,529.23 213.44,529.23 215.53,528.42 217.62,528.42 219.71,527.61 221.80,527.21 223.90,526.80 225.99,526.40 228.08,525.18 230.17,523.57 232.26,523.57 234.36,523.16 236.45,522.76 238.54,522.35 240.63,521.54 242.73,519.52 244.82,517.50 246.91,517.50 249.00,517.50 251.09,517.50 253.19,517.50 255.28,517.50 257.37,517.10 259.46,516.69 261.55,515.48 263.65,515.07 265.74,514.67 267.83,513.86 269.92,514.26 272.02,512.24 274.11,511.84 276.20,511.84 278.29,511.03 280.38,509.82 282.48,507.79 284.57,506.99 286.66,506.58 288.75,509.41 290.84,509.01 292.94,504.96 295.03,504.56 297.12,504.15 299.21,504.56 301.31,503.75 303.40,503.75 305.49,503.35 307.58,499.30 309.67,496.47 311.77,490.00 313.86,484.34 315.95,481.10 318.04,480.29 320.13,480.70 322.23,460.88 324.32,459.26 326.41,458.05 328.50,456.03 330.60,456.03 332.69,454.41 334.78,450.77 336.87,444.30 338.96,443.90 341.06,600.00 343.15,441.88 345.24,440.66 347.33,439.45 349.42,439.04 351.52,438.64 353.61,437.83 355.70,436.62 357.79,436.62 359.88,434.60 361.98,432.17 364.07,429.34 366.16,428.93 368.25,428.53 370.35,427.72 372.44,426.91 374.53,426.10 376.62,426.10 378.71,426.10 380.81,419.63 382.90,419.23 384.99,418.42 387.08,418.01 389.17,417.61 391.27,417.61 393.36,417.61 395.45,417.21 397.54,417.21 399.64,413.57 401.73,411.95 403.82,412.76 405.91,410.74 408.00,410.74 410.10,410.33 412.19,410.33 414.28,410.33 416.37,409.93 418.46,409.93 420.56,409.93 422.65,409.52 424.74,409.52 426.83,409.12 428.93,409.52 431.02,409.12 433.11,407.50 435.20,407.10 437.29,403.05 439.39,399.82 441.48,400.22 443.57,400.62 445.66,400.62 447.75,399.41 449.85,392.94 451.94,391.32 454.03,389.30 456.12,389.30 458.21,388.49 460.31,375.15 462.40,374.74 464.49,374.74 466.58,374.74 468.68,374.74 470.77,374.34 472.86,374.34 474.95,374.34 477.04,374.34 479.14,374.34 481.23,373.93 483.32,373.12 485.41,372.72 487.50,373.53 489.60,435.81 491.69,372.32 493.78,372.72 495.87,371.91 497.97,371.91 500.06,372.32 502.15,371.10 504.24,369.89 506.33,369.89 508.43,369.89 510.52,369.49 512.61,369.89 514.70,369.08 516.79,368.68 518.89,368.27 520.98,367.87 523.07,367.06 525.16,367.46 527.26,367.06 529.35,366.25 531.44,368.27 533.53,368.68 535.62,368.68 537.72,368.27 539.81,369.08 541.90,367.87 543.99,367.46 546.08,367.06 548.18,360.18 550.27,359.78 552.36,359.38 554.45,356.95 556.55,357.35 558.64,357.76 560.73,355.33 562.82,355.74 564.91,357.35 567.01,355.33 569.10,356.14 571.19,355.74 573.28,356.14 575.37,354.12 577.47,354.93 579.56,356.14 581.65,354.52 583.74,353.71 585.83,354.12 587.93,354.93 590.02,352.90 592.11,353.71 594.20,353.31 596.30,353.31 598.39,354.52 600.48,352.90 602.57,352.50 604.66,352.50 606.76,353.31 608.85,352.50 610.94,353.71 613.03,354.12 615.12,352.50 617.22,352.90 619.31,352.50 621.40,352.10 623.49,351.69 625.59,352.10 627.68,354.12 629.77,352.50 631.86,352.10 633.95,352.10 636.05,349.67 638.14,349.67 640.23,350.88 642.32,351.29 644.41,350.48 646.51,352.10 648.60,350.48 650.69,350.48 652.78,350.48 654.88,350.07 656.97,348.46 659.06,351.29 661.15,349.67 663.24,351.29 665.34,349.67 667.43,348.86 669.52,348.46 671.61,348.46 673.70,347.24 675.80,348.86 677.89,346.84 679.98,348.46 682.07,348.86 684.17,346.84 686.26,349.26 688.35,348.05 690.44,349.26 692.53,349.26 694.63,350.48 696.72,352.90 698.81,349.67 700.90,348.46 702.99,345.62 705.09,344.82 707.18,344.41 709.27,342.39 711.36,341.18 713.45,341.58 715.55,339.15 717.64,338.35 719.73,337.54 721.82,336.73 723.92,335.92 726.01,337.54 728.10,338.35 730.19,337.54 732.28,337.54 734.38,337.54 736.47,333.09 738.56,333.90 740.65,335.92 742.74,336.73 744.84,335.51 746.93,332.28 749.02,331.47 751.11,331.07 753.21,331.47 755.30,331.07 757.39,331.07 759.48,331.07 761.57,331.07 763.67,331.07 765.76,331.07 767.85,331.07 769.94,331.07 772.03,331.07 774.13,331.07 776.22,331.47 778.31,331.88 780.40,331.07 782.50,331.47 784.59,331.07 786.68,331.47 788.77,331.07 790.86,324.19 792.96,324.19 795.05,318.93 797.14,316.51 799.23,310.44 801.32,308.01 803.42,600.00 805.51,301.54 807.60,290.22 809.69,287.79 811.79,286.18 813.88,285.77 815.97,285.77 818.06,285.77 820.15,286.18 822.25,285.77 824.34,285.77 826.43,285.77 828.52,283.35 830.61,282.94 832.71,282.94 834.80,283.35 836.89,282.94 838.98,282.94 841.07,283.75 843.17,282.13 845.26,282.13 847.35,282.54 849.44,282.13 851.54,282.54 853.63,282.94 855.72,281.73 857.81,282.54 859.90,281.73 862.00,282.54 864.09,282.13 866.18,282.13 868.27,281.73 870.36,281.73 872.46,281.32 874.55,281.73 876.64,282.13 878.73,281.32 880.83,281.32 882.92,282.54 885.01,282.13 887.10,281.32 889.19,281.32 891.29,281.32 893.38,282.54 895.47,282.13 897.56,281.32 899.65,282.13 901.75,281.73 903.84,282.13 905.93,280.11 908.02,280.11 910.12,280.51 912.21,279.71 914.30,280.11 916.39,280.51 918.48,279.71 920.58,280.11 922.67,280.11 924.76,279.30 926.85,278.90 928.94,278.90 931.04,280.51 933.13,279.30 935.22,278.09 937.31,278.49 939.40,278.49 941.50,277.28 943.59,277.68 945.68,277.68 947.77,278.09 949.87,277.28 951.96,600.00 954.05,278.90 956.14,279.30 958.23,278.90 960.33,278.49 962.42,278.49 964.51,278.49 966.60,278.49 968.69,278.49 970.79,278.49 972.88,278.49 974.97,278.49 977.06,278.49 979.16,278.49 981.25,278.49 983.34,278.49 985.43,600.00 987.52,600.00 989.62,254.63 991.71,600.00 993.80,245.74 995.89,245.74 997.98,246.14 1000.08,245.74 1002.17,245.74 1004.26,245.74 1006.35,245.74 1008.45,245.74 1010.54,240.07 1012.63,238.05 1014.72,238.05 1016.81,227.13 1018.91,227.13 1021.00,226.32 1023.09,227.54 1025.18,226.73 1027.27,226.32 1029.37,227.13 1031.46,227.13 1033.55,226.73 1035.64,226.32 1037.74,226.73 1039.83,226.73 1041.92,226.73 1044.01,225.11 1046.10,224.71 1048.20,225.11 1050.29,224.30 1052.38,226.32 1054.47,224.30 1056.56,225.51 1058.66,225.51 1060.75,225.51 1062.84,225.92 1064.93,223.09 1067.02,223.49 1069.12,223.09 1071.21,223.09 1073.30,223.90 1075.39,223.49 1077.49,223.49 1079.58,223.09 1081.67,223.09 1083.76,223.49 1085.85,223.09 1087.95,223.09 1090.04,223.49 1092.13,223.49 1094.22,223.09 1096.31,223.09 1098.41,223.49 1100.50,223.09 1102.59,223.09 1104.68,223.09 1106.78,223.49 1108.87,223.49 1110.96,223.49 1113.05,223.09 1115.14,223.49 1117.24,223.09 1119.33,223.09 1121.42,223.49 1123.51,223.09 1125.60,223.09 1127.70,223.49 1129.79,222.68 1131.88,221.88 1133.97,223.49 1136.07,223.09 1138.16,223.49 1140.25,224.30 1142.34,201.65 1144.43,201.65 1146.53,186.69 1148.62,176.18 1150.71,174.15 1152.80,172.94 1154.89,172.94 1156.99,162.02 1159.08,161.21 1161.17,148.27 1163.26,155.96 1165.36,139.78 1167.45,135.33 1169.54,147.06 1171.63,131.29 1173.72,119.56 1175.82,114.71 1177.91,113.90 1180.00,114.30"/>
<circle cx="90.00" cy="540.55" r="3.2" fill="#1d4ed8"/>
<circle cx="92.09" cy="538.53" r="3.2" fill="#1d4ed8"/>
<circle cx="94.18" cy="536.91" r="3.2" fill="#1d4ed8"/>
<circle cx="96.28" cy="534.49" r="3.2" fill="#1d4ed8"/>
<circle cx="98.37" cy="534.49" r="3.2" fill="#1d4ed8"/>
<circle cx="100.46" cy="533.27" r="3.2" fill="#1d4ed8"/>
<circle cx="102.55" cy="532.46" r="3.2" fill="#1d4ed8"/>
<circle cx="104.64" cy="532.87" r="3.2" fill="#1d4ed8"/>
<circle cx="106.74" cy="532.06" r="3.2" fill="#1d4ed8"/>
<circle cx="108.83" cy="532.46" r="3.2" fill="#1d4ed8"/>
<circle cx="110.92" cy="532.06" r="3.2" fill="#1d4ed8"/>
<circle cx="113.01" cy="568.46" r="3.2" fill="#1d4ed8"/>
<circle cx="115.11" cy="568.46" r="3.2" fill="#1d4ed8"/>
<circle cx="117.20" cy="566.43" r="3.2" fill="#1d4ed8"/>
<circle cx="119.29" cy="545.00" r="3.2" fill="#1d4ed8"/>
<circle cx="121.38" cy="545.00" r="3.2" fill="#1d4ed8"/>
<circle cx="123.47" cy="544.19" r="3.2" fill="#1d4ed8"/>
<circle cx="125.57" cy="543.79" r="3.2" fill="#1d4ed8"/>
<circle cx="127.66" cy="543.79" r="3.2" fill="#1d4ed8"/>
<circle cx="129.75" cy="543.38" r="3.2" fill="#1d4ed8"/>
<circle cx="131.84" cy="541.76" r="3.2" fill="#1d4ed8"/>
<circle cx="133.93" cy="541.36" r="3.2" fill="#1d4ed8"/>
<circle cx="136.03" cy="540.96" r="3.2" fill="#1d4ed8"/>
<circle cx="138.12" cy="540.96" r="3.2" fill="#1d4ed8"/>
<circle cx="140.21" cy="539.34" r="3.2" fill="#1d4ed8"/>
<circle cx="142.30" cy="539.34" r="3.2" fill="#1d4ed8"/>
<circle cx="144.40" cy="556.73" r="3.2" fill="#1d4ed8"/>
<circle cx="146.49" cy="556.73" r="3.2" fill="#1d4ed8"/>
<circle cx="148.58" cy="555.51" r="3.2" fill="#1d4ed8"/>
<circle cx="150.67" cy="551.07" r="3.2" fill="#1d4ed8"/>
<circle cx="152.76" cy="538.93" r="3.2" fill="#1d4ed8"/>
<circle cx="154.86" cy="538.93" r="3.2" fill="#1d4ed8"/>
<circle cx="156.95" cy="538.93" r="3.2" fill="#1d4ed8"/>
<circle cx="159.04" cy="538.12" r="3.2" fill="#1d4ed8"/>
<circle cx="161.13" cy="536.91" r="3.2" fill="#1d4ed8"/>
<circle cx="163.22" cy="536.91" r="3.2" fill="#1d4ed8"/>
<circle cx="165.32" cy="536.51" r="3.2" fill="#1d4ed8"/>
<circle cx="167.41" cy="536.51" r="3.2" fill="#1d4ed8"/>
<circle cx="169.50" cy="556.73" r="3.2" fill="#1d4ed8"/>
<circle cx="171.59" cy="556.73" r="3.2" fill="#1d4ed8"/>
<circle cx="173.69" cy="556.73" r="3.2" fill="#1d4ed8"/>
<circle cx="175.78" cy="556.73" r="3.2" fill="#1d4ed8"/>
<circle cx="177.87" cy="535.29" r="3.2" fill="#1d4ed8"/>
<circle cx="179.96" cy="535.29" r="3.2" fill="#1d4ed8"/>
<circle cx="182.05" cy="535.29" r="3.2" fill="#1d4ed8"/>
<circle cx="184.15" cy="535.29" r="3.2" fill="#1d4ed8"/>
<circle cx="186.24" cy="534.49" r="3.2" fill="#1d4ed8"/>
<circle cx="188.33" cy="534.08" r="3.2" fill="#1d4ed8"/>
<circle cx="190.42" cy="533.68" r="3.2" fill="#1d4ed8"/>
<circle cx="192.51" cy="532.87" r="3.2" fill="#1d4ed8"/>
<circle cx="194.61" cy="532.06" r="3.2" fill="#1d4ed8"/>
<circle cx="196.70" cy="532.06" r="3.2" fill="#1d4ed8"/>
<circle cx="198.79" cy="531.25" r="3.2" fill="#1d4ed8"/>
<circle cx="200.88" cy="530.85" r="3.2" fill="#1d4ed8"/>
<circle cx="202.98" cy="530.44" r="3.2" fill="#1d4ed8"/>
<circle cx="205.07" cy="530.04" r="3.2" fill="#1d4ed8"/>
<circle cx="207.16" cy="530.04" r="3.2" fill="#1d4ed8"/>
<circle cx="209.25" cy="529.23" r="3.2" fill="#1d4ed8"/>
<circle cx="211.34" cy="529.23" r="3.2" fill="#1d4ed8"/>
<circle cx="213.44" cy="529.23" r="3.2" fill="#1d4ed8"/>
<circle cx="215.53" cy="528.42" r="3.2" fill="#1d4ed8"/>
<circle cx="217.62" cy="528.42" r="3.2" fill="#1d4ed8"/>
<circle cx="219.71" cy="527.61" r="3.2" fill="#1d4ed8"/>
<circle cx="221.80" cy="527.21" r="3.2" fill="#1d4ed8"/>
<circle cx="223.90" cy="526.80" r="3.2" fill="#1d4ed8"/>
<circle cx="225.99" cy="526.40" r="3.2" fill="#1d4ed8"/>
<circle cx="228.08" cy="525.18" r="3.2" fill="#1d4ed8"/>
<circle cx="230.17" cy="523.57" r="3.2" fill="#1d4ed8"/>
<circle cx="232.26" cy="523.57" r="3.2" fill="#1d4ed8"/>
<circle cx="234.36" cy="523.16" r="3.2" fill="#1d4ed8"/>
<circle cx="236.45" cy="522.76" r="3.2" fill="#1d4ed8"/>
<circle cx="238.54" cy="522.35" r="3.2" fill="#1d4ed8"/>
<circle cx="240.63" cy="521.54" r="3.2" fill="#1d4ed8"/>
<circle cx="242.73" cy="519.52" r="3.2" fill="#1d4ed8"/>
<circle cx="244.82" cy="517.50" r="3.2" fill="#1d4ed8"/>
<circle cx="246.91" cy="517.50" r="3.2" fill="#1d4ed8"/>
<circle cx="249.00" cy="517.50" r="3.2" fill="#1d4ed8"/>
<circle cx="251.09" cy="517.50" r="3.2" fill="#1d4ed8"/>
<circle cx="253.19" cy="517.50" r="3.2" fill="#1d4ed8"/>
<circle cx="255.28" cy="517.50" r="3.2" fill="#1d4ed8"/>
<circle cx="257.37" cy="517.10" r="3.2" fill="#1d4ed8"/>
<circle cx="259.46" cy="516.69" r="3.2" fill="#1d4ed8"/>
<circle cx="261.55" cy="515.48" r="3.2" fill="#1d4ed8"/>
<circle cx="263.65" cy="515.07" r="3.2" fill="#1d4ed8"/>
<circle cx="265.74" cy="514.67" r="3.2" fill="#1d4ed8"/>
<circle cx="267.83" cy="513.86" r="3.2" fill="#1d4ed8"/>
<circle cx="269.92" cy="514.26" r="3.2" fill="#1d4ed8"/>
<circle cx="272.02" cy="512.24" r="3.2" fill="#1d4ed8"/>
<circle cx="274.11" cy="511.84" r="3.2" fill="#1d4ed8"/>
<circle cx="276.20" cy="511.84" r="3.2" fill="#1d4ed8"/>
<circle cx="278.29" cy="511.03" r="3.2" fill="#1d4ed8"/>
<circle cx="280.38" cy="509.82" r="3.2" fill="#1d4ed8"/>
<circle cx="282.48" cy="507.79" r="3.2" fill="#1d4ed8"/>
<circle cx="284.57" cy="506.99" r="3.2" fill="#1d4ed8"/>
<circle cx="286.66" cy="506.58" r="3.2" fill="#1d4ed8"/>
<circle cx="288.75" cy="509.41" r="3.2" fill="#1d4ed8"/>
<circle cx="290.84" cy="509.01" r="3.2" fill="#1d4ed8"/>
<circle cx="292.94" cy="504.96" r="3.2" fill="#1d4ed8"/>
<circle cx="295.03" cy="504.56" r="3.2" fill="#1d4ed8"/>
<circle cx="297.12" cy="504.15" r="3.2" fill="#1d4ed8"/>
<circle cx="299.21" cy="504.56" r="3.2" fill="#1d4ed8"/>
<circle cx="301.31" cy="503.75" r="3.2" fill="#1d4ed8"/>
<circle cx="303.40" cy="503.75" r="3.2" fill="#1d4ed8"/>
<circle cx="305.49" cy="503.35" r="3.2" fill="#1d4ed8"/>
<circle cx="307.58" cy="499.30" r="3.2" fill="#1d4ed8"/>
<circle cx="309.67" cy="496.47" r="3.2" fill="#1d4ed8"/>
<circle cx="311.77" cy="490.00" r="3.2" fill="#1d4ed8"/>
<circle cx="313.86" cy="484.34" r="3.2" fill="#1d4ed8"/>
<circle cx="315.95" cy="481.10" r="3.2" fill="#1d4ed8"/>
<circle cx="318.04" cy="480.29" r="3.2" fill="#1d4ed8"/>
<circle cx="320.13" cy="480.70" r="3.2" fill="#1d4ed8"/>
<circle cx="322.23" cy="460.88" r="3.2" fill="#1d4ed8"/>
<circle cx="324.32" cy="459.26" r="3.2" fill="#1d4ed8"/>
<circle cx="326.41" cy="458.05" r="3.2" fill="#1d4ed8"/>
<circle cx="328.50" cy="456.03" r="3.2" fill="#1d4ed8"/>
<circle cx="330.60" cy="456.03" r="3.2" fill="#1d4ed8"/>
<circle cx="332.69" cy="454.41" r="3.2" fill="#1d4ed8"/>
<circle cx="334.78" cy="450.77" r="3.2" fill="#1d4ed8"/>
<circle cx="336.87" cy="444.30" r="3.2" fill="#1d4ed8"/>
<circle cx="338.96" cy="443.90" r="3.2" fill="#1d4ed8"/>
<circle cx="341.06" cy="600.00" r="3.2" fill="#1d4ed8"/>
<circle cx="343.15" cy="441.88" r="3.2" fill="#1d4ed8"/>
<circle cx="345.24" cy="440.66" r="3.2" fill="#1d4ed8"/>
<circle cx="347.33" cy="439.45" r="3.2" fill="#1d4ed8"/>
<circle cx="349.42" cy="439.04" r="3.2" fill="#1d4ed8"/>
<circle cx="351.52" cy="438.64" r="3.2" fill="#1d4ed8"/>
<circle cx="353.61" cy="437.83" r="3.2" fill="#1d4ed8"/>
<circle cx="355.70" cy="436.62" r="3.2" fill="#1d4ed8"/>
<circle cx="357.79" cy="436.62" r="3.2" fill="#1d4ed8"/>
<circle cx="359.88" cy="434.60" r="3.2" fill="#1d4ed8"/>
<circle cx="361.98" cy="432.17" r="3.2" fill="#1d4ed8"/>
<circle cx="364.07" cy="429.34" r="3.2" fill="#1d4ed8"/>
<circle cx="366.16" cy="428.93" r="3.2" fill="#1d4ed8"/>
<circle cx="368.25" cy="428.53" r="3.2" fill="#1d4ed8"/>
<circle cx="370.35" cy="427.72" r="3.2" fill="#1d4ed8"/>
<circle cx="372.44" cy="426.91" r="3.2" fill="#1d4ed8"/>
<circle cx="374.53" cy="426.10" r="3.2" fill="#1d4ed8"/>
<circle cx="376.62" cy="426.10" r="3.2" fill="#1d4ed8"/>
<circle cx="378.71" cy="426.10" r="3.2" fill="#1d4ed8"/>
<circle cx="380.81" cy="419.63" r="3.2" fill="#1d4ed8"/>
<circle cx="382.90" cy="419.23" r="3.2" fill="#1d4ed8"/>
<circle cx="384.99" cy="418.42" r="3.2" fill="#1d4ed8"/>
<circle cx="387.08" cy="418.01" r="3.2" fill="#1d4ed8"/>
<circle cx="389.17" cy="417.61" r="3.2" fill="#1d4ed8"/>
<circle cx="391.27" cy="417.61" r="3.2" fill="#1d4ed8"/>
<circle cx="393.36" cy="417.61" r="3.2" fill="#1d4ed8"/>
<circle cx="395.45" cy="417.21" r="3.2" fill="#1d4ed8"/>
<circle cx="397.54" cy="417.21" r="3.2" fill="#1d4ed8"/>
<circle cx="399.64" cy="413.57" r="3.2" fill="#1d4ed8"/>
<circle cx="401.73" cy="411.95" r="3.2" fill="#1d4ed8"/>
<circle cx="403.82" cy="412.76" r="3.2" fill="#1d4ed8"/>
<circle cx="405.91" cy="410.74" r="3.2" fill="#1d4ed8"/>
<circle cx="408.00" cy="410.74" r="3.2" fill="#1d4ed8"/>
<circle cx="410.10" cy="410.33" r="3.2" fill="#1d4ed8"/>
<circle cx="412.19" cy="410.33" r="3.2" fill="#1d4ed8"/>
<circle cx="414.28" cy="410.33" r="3.2" fill="#1d4ed8"/>
<circle cx="416.37" cy="409.93" r="3.2" fill="#1d4ed8"/>
<circle cx="418.46" cy="409.93" r="3.2" fill="#1d4ed8"/>
<circle cx="420.56" cy="409.93" r="3.2" fill="#1d4ed8"/>
<circle cx="422.65" cy="409.52" r="3.2" fill="#1d4ed8"/>
<circle cx="424.74" cy="409.52" r="3.2" fill="#1d4ed8"/>
<circle cx="426.83" cy="409.12" r="3.2" fill="#1d4ed8"/>
<circle cx="428.93" cy="409.52" r="3.2" fill="#1d4ed8"/>
<circle cx="431.02" cy="409.12" r="3.2" fill="#1d4ed8"/>
<circle cx="433.11" cy="407.50" r="3.2" fill="#1d4ed8"/>
<circle cx="435.20" cy="407.10" r="3.2" fill="#1d4ed8"/>
<circle cx="437.29" cy="403.05" r="3.2" fill="#1d4ed8"/>
<circle cx="439.39" cy="399.82" r="3.2" fill="#1d4ed8"/>
<circle cx="441.48" cy="400.22" r="3.2" fill="#1d4ed8"/>
<circle cx="443.57" cy="400.62" r="3.2" fill="#1d4ed8"/>
<circle cx="445.66" cy="400.62" r="3.2" fill="#1d4ed8"/>
<circle cx="447.75" cy="399.41" r="3.2" fill="#1d4ed8"/>
<circle cx="449.85" cy="392.94" r="3.2" fill="#1d4ed8"/>
<circle cx="451.94" cy="391.32" r="3.2" fill="#1d4ed8"/>
<circle cx="454.03" cy="389.30" r="3.2" fill="#1d4ed8"/>
<circle cx="456.12" cy="389.30" r="3.2" fill="#1d4ed8"/>
<circle cx="458.21" cy="388.49" r="3.2" fill="#1d4ed8"/>
<circle cx="460.31" cy="375.15" r="3.2" fill="#1d4ed8"/>
<circle cx="462.40" cy="374.74" r="3.2" fill="#1d4ed8"/>
<circle cx="464.49" cy="374.74" r="3.2" fill="#1d4ed8"/>
<circle cx="466.58" cy="374.74" r="3.2" fill="#1d4ed8"/>
<circle cx="468.68" cy="374.74" r="3.2" fill="#1d4ed8"/>
<circle cx="470.77" cy="374.34" r="3.2" fill="#1d4ed8"/>
<circle cx="472.86" cy="374.34" r="3.2" fill="#1d4ed8"/>
<circle cx="474.95" cy="374.34" r="3.2" fill="#1d4ed8"/>
<circle cx="477.04" cy="374.34" r="3.2" fill="#1d4ed8"/>
<circle cx="479.14" cy="374.34" r="3.2" fill="#1d4ed8"/>
<circle cx="481.23" cy="373.93" r="3.2" fill="#1d4ed8"/>
<circle cx="483.32" cy="373.12" r="3.2" fill="#1d4ed8"/>
<circle cx="485.41" cy="372.72" r="3.2" fill="#1d4ed8"/>
<circle cx="487.50" cy="373.53" r="3.2" fill="#1d4ed8"/>
<circle cx="489.60" cy="435.81" r="3.2" fill="#1d4ed8"/>
<circle cx="491.69" cy="372.32" r="3.2" fill="#1d4ed8"/>
<circle cx="493.78" cy="372.72" r="3.2" fill="#1d4ed8"/>
<circle cx="495.87" cy="371.91" r="3.2" fill="#1d4ed8"/>
<circle cx="497.97" cy="371.91" r="3.2" fill="#1d4ed8"/>
<circle cx="500.06" cy="372.32" r="3.2" fill="#1d4ed8"/>
<circle cx="502.15" cy="371.10" r="3.2" fill="#1d4ed8"/>
<circle cx="504.24" cy="369.89" r="3.2" fill="#1d4ed8"/>
<circle cx="506.33" cy="369.89" r="3.2" fill="#1d4ed8"/>
<circle cx="508.43" cy="369.89" r="3.2" fill="#1d4ed8"/>
<circle cx="510.52" cy="369.49" r="3.2" fill="#1d4ed8"/>
<circle cx="512.61" cy="369.89" r="3.2" fill="#1d4ed8"/>
<circle cx="514.70" cy="369.08" r="3.2" fill="#1d4ed8"/>
<circle cx="516.79" cy="368.68" r="3.2" fill="#1d4ed8"/>
<circle cx="518.89" cy="368.27" r="3.2" fill="#1d4ed8"/>
<circle cx="520.98" cy="367.87" r="3.2" fill="#1d4ed8"/>
<circle cx="523.07" cy="367.06" r="3.2" fill="#1d4ed8"/>
<circle cx="525.16" cy="367.46" r="3.2" fill="#1d4ed8"/>
<circle cx="527.26" cy="367.06" r="3.2" fill="#1d4ed8"/>
<circle cx="529.35" cy="366.25" r="3.2" fill="#1d4ed8"/>
<circle cx="531.44" cy="368.27" r="3.2" fill="#1d4ed8"/>
<circle cx="533.53" cy="368.68" r="3.2" fill="#1d4ed8"/>
<circle cx="535.62" cy="368.68" r="3.2" fill="#1d4ed8"/>
<circle cx="537.72" cy="368.27" r="3.2" fill="#1d4ed8"/>
<circle cx="539.81" cy="369.08" r="3.2" fill="#1d4ed8"/>
<circle cx="541.90" cy="367.87" r="3.2" fill="#1d4ed8"/>
<circle cx="543.99" cy="367.46" r="3.2" fill="#1d4ed8"/>
<circle cx="546.08" cy="367.06" r="3.2" fill="#1d4ed8"/>
<circle cx="548.18" cy="360.18" r="3.2" fill="#1d4ed8"/>
<circle cx="550.27" cy="359.78" r="3.2" fill="#1d4ed8"/>
<circle cx="552.36" cy="359.38" r="3.2" fill="#1d4ed8"/>
<circle cx="554.45" cy="356.95" r="3.2" fill="#1d4ed8"/>
<circle cx="556.55" cy="357.35" r="3.2" fill="#1d4ed8"/>
<circle cx="558.64" cy="357.76" r="3.2" fill="#1d4ed8"/>
<circle cx="560.73" cy="355.33" r="3.2" fill="#1d4ed8"/>
<circle cx="562.82" cy="355.74" r="3.2" fill="#1d4ed8"/>
<circle cx="564.91" cy="357.35" r="3.2" fill="#1d4ed8"/>
<circle cx="567.01" cy="355.33" r="3.2" fill="#1d4ed8"/>
<circle cx="569.10" cy="356.14" r="3.2" fill="#1d4ed8"/>
<circle cx="571.19" cy="355.74" r="3.2" fill="#1d4ed8"/>
<circle cx="573.28" cy="356.14" r="3.2" fill="#1d4ed8"/>
<circle cx="575.37" cy="354.12" r="3.2" fill="#1d4ed8"/>
<circle cx="577.47" cy="354.93" r="3.2" fill="#1d4ed8"/>
<circle cx="579.56" cy="356.14" r="3.2" fill="#1d4ed8"/>
<circle cx="581.65" cy="354.52" r="3.2" fill="#1d4ed8"/>
<circle cx="583.74" cy="353.71" r="3.2" fill="#1d4ed8"/>
<circle cx="585.83" cy="354.12" r="3.2" fill="#1d4ed8"/>
<circle cx="587.93" cy="354.93" r="3.2" fill="#1d4ed8"/>
<circle cx="590.02" cy="352.90" r="3.2" fill="#1d4ed8"/>
<circle cx="592.11" cy="353.71" r="3.2" fill="#1d4ed8"/>
<circle cx="594.20" cy="353.31" r="3.2" fill="#1d4ed8"/>
<circle cx="596.30" cy="353.31" r="3.2" fill="#1d4ed8"/>
<circle cx="598.39" cy="354.52" r="3.2" fill="#1d4ed8"/>
<circle cx="600.48" cy="352.90" r="3.2" fill="#1d4ed8"/>
<circle cx="602.57" cy="352.50" r="3.2" fill="#1d4ed8"/>
<circle cx="604.66" cy="352.50" r="3.2" fill="#1d4ed8"/>
<circle cx="606.76" cy="353.31" r="3.2" fill="#1d4ed8"/>
<circle cx="608.85" cy="352.50" r="3.2" fill="#1d4ed8"/>
<circle cx="610.94" cy="353.71" r="3.2" fill="#1d4ed8"/>
<circle cx="613.03" cy="354.12" r="3.2" fill="#1d4ed8"/>
<circle cx="615.12" cy="352.50" r="3.2" fill="#1d4ed8"/>
<circle cx="617.22" cy="352.90" r="3.2" fill="#1d4ed8"/>
<circle cx="619.31" cy="352.50" r="3.2" fill="#1d4ed8"/>
<circle cx="621.40" cy="352.10" r="3.2" fill="#1d4ed8"/>
<circle cx="623.49" cy="351.69" r="3.2" fill="#1d4ed8"/>
<circle cx="625.59" cy="352.10" r="3.2" fill="#1d4ed8"/>
<circle cx="627.68" cy="354.12" r="3.2" fill="#1d4ed8"/>
<circle cx="629.77" cy="352.50" r="3.2" fill="#1d4ed8"/>
<circle cx="631.86" cy="352.10" r="3.2" fill="#1d4ed8"/>
<circle cx="633.95" cy="352.10" r="3.2" fill="#1d4ed8"/>
<circle cx="636.05" cy="349.67" r="3.2" fill="#1d4ed8"/>
<circle cx="638.14" cy="349.67" r="3.2" fill="#1d4ed8"/>
<circle cx="640.23" cy="350.88" r="3.2" fill="#1d4ed8"/>
<circle cx="642.32" cy="351.29" r="3.2" fill="#1d4ed8"/>
<circle cx="644.41" cy="350.48" r="3.2" fill="#1d4ed8"/>
<circle cx="646.51" cy="352.10" r="3.2" fill="#1d4ed8"/>
<circle cx="648.60" cy="350.48" r="3.2" fill="#1d4ed8"/>
<circle cx="650.69" cy="350.48" r="3.2" fill="#1d4ed8"/>
<circle cx="652.78" cy="350.48" r="3.2" fill="#1d4ed8"/>
<circle cx="654.88" cy="350.07" r="3.2" fill="#1d4ed8"/>
<circle cx="656.97" cy="348.46" r="3.2" fill="#1d4ed8"/>
<circle cx="659.06" cy="351.29" r="3.2" fill="#1d4ed8"/>
<circle cx="661.15" cy="349.67" r="3.2" fill="#1d4ed8"/>
<circle cx="663.24" cy="351.29" r="3.2" fill="#1d4ed8"/>
<circle cx="665.34" cy="349.67" r="3.2" fill="#1d4ed8"/>
<circle cx="667.43" cy="348.86" r="3.2" fill="#1d4ed8"/>
<circle cx="669.52" cy="348.46" r="3.2" fill="#1d4ed8"/>
<circle cx="671.61" cy="348.46" r="3.2" fill="#1d4ed8"/>
<circle cx="673.70" cy="347.24" r="3.2" fill="#1d4ed8"/>
<circle cx="675.80" cy="348.86" r="3.2" fill="#1d4ed8"/>
<circle cx="677.89" cy="346.84" r="3.2" fill="#1d4ed8"/>
<circle cx="679.98" cy="348.46" r="3.2" fill="#1d4ed8"/>
<circle cx="682.07" cy="348.86" r="3.2" fill="#1d4ed8"/>
<circle cx="684.17" cy="346.84" r="3.2" fill="#1d4ed8"/>
<circle cx="686.26" cy="349.26" r="3.2" fill="#1d4ed8"/>
<circle cx="688.35" cy="348.05" r="3.2" fill="#1d4ed8"/>
<circle cx="690.44" cy="349.26" r="3.2" fill="#1d4ed8"/>
<circle cx="692.53" cy="349.26" r="3.2" fill="#1d4ed8"/>
<circle cx="694.63" cy="350.48" r="3.2" fill="#1d4ed8"/>
<circle cx="696.72" cy="352.90" r="3.2" fill="#1d4ed8"/>
<circle cx="698.81" cy="349.67" r="3.2" fill="#1d4ed8"/>
<circle cx="700.90" cy="348.46" r="3.2" fill="#1d4ed8"/>
<circle cx="702.99" cy="345.62" r="3.2" fill="#1d4ed8"/>
<circle cx="705.09" cy="344.82" r="3.2" fill="#1d4ed8"/>
<circle cx="707.18" cy="344.41" r="3.2" fill="#1d4ed8"/>
<circle cx="709.27" cy="342.39" r="3.2" fill="#1d4ed8"/>
<circle cx="711.36" cy="341.18" r="3.2" fill="#1d4ed8"/>
<circle cx="713.45" cy="341.58" r="3.2" fill="#1d4ed8"/>
<circle cx="715.55" cy="339.15" r="3.2" fill="#1d4ed8"/>
<circle cx="717.64" cy="338.35" r="3.2" fill="#1d4ed8"/>
<circle cx="719.73" cy="337.54" r="3.2" fill="#1d4ed8"/>
<circle cx="721.82" cy="336.73" r="3.2" fill="#1d4ed8"/>
<circle cx="723.92" cy="335.92" r="3.2" fill="#1d4ed8"/>
<circle cx="726.01" cy="337.54" r="3.2" fill="#1d4ed8"/>
<circle cx="728.10" cy="338.35" r="3.2" fill="#1d4ed8"/>
<circle cx="730.19" cy="337.54" r="3.2" fill="#1d4ed8"/>
<circle cx="732.28" cy="337.54" r="3.2" fill="#1d4ed8"/>
<circle cx="734.38" cy="337.54" r="3.2" fill="#1d4ed8"/>
<circle cx="736.47" cy="333.09" r="3.2" fill="#1d4ed8"/>
<circle cx="738.56" cy="333.90" r="3.2" fill="#1d4ed8"/>
<circle cx="740.65" cy="335.92" r="3.2" fill="#1d4ed8"/>
<circle cx="742.74" cy="336.73" r="3.2" fill="#1d4ed8"/>
<circle cx="744.84" cy="335.51" r="3.2" fill="#1d4ed8"/>
<circle cx="746.93" cy="332.28" r="3.2" fill="#1d4ed8"/>
<circle cx="749.02" cy="331.47" r="3.2" fill="#1d4ed8"/>
<circle cx="751.11" cy="331.07" r="3.2" fill="#1d4ed8"/>
<circle cx="753.21" cy="331.47" r="3.2" fill="#1d4ed8"/>
<circle cx="755.30" cy="331.07" r="3.2" fill="#1d4ed8"/>
<circle cx="757.39" cy="331.07" r="3.2" fill="#1d4ed8"/>
<circle cx="759.48" cy="331.07" r="3.2" fill="#1d4ed8"/>
<circle cx="761.57" cy="331.07" r="3.2" fill="#1d4ed8"/>
<circle cx="763.67" cy="331.07" r="3.2" fill="#1d4ed8"/>
<circle cx="765.76" cy="331.07" r="3.2" fill="#1d4ed8"/>
<circle cx="767.85" cy="331.07" r="3.2" fill="#1d4ed8"/>
<circle cx="769.94" cy="331.07" r="3.2" fill="#1d4ed8"/>
<circle cx="772.03" cy="331.07" r="3.2" fill="#1d4ed8"/>
<circle cx="774.13" cy="331.07" r="3.2" fill="#1d4ed8"/>
<circle cx="776.22" cy="331.47" r="3.2" fill="#1d4ed8"/>
<circle cx="778.31" cy="331.88" r="3.2" fill="#1d4ed8"/>
<circle cx="780.40" cy="331.07" r="3.2" fill="#1d4ed8"/>
<circle cx="782.50" cy="331.47" r="3.2" fill="#1d4ed8"/>
<circle cx="784.59" cy="331.07" r="3.2" fill="#1d4ed8"/>
<circle cx="786.68" cy="331.47" r="3.2" fill="#1d4ed8"/>
<circle cx="788.77" cy="331.07" r="3.2" fill="#1d4ed8"/>
<circle cx="790.86" cy="324.19" r="3.2" fill="#1d4ed8"/>
<circle cx="792.96" cy="324.19" r="3.2" fill="#1d4ed8"/>
<circle cx="795.05" cy="318.93" r="3.2" fill="#1d4ed8"/>
<circle cx="797.14" cy="316.51" r="3.2" fill="#1d4ed8"/>
<circle cx="799.23" cy="310.44" r="3.2" fill="#1d4ed8"/>
<circle cx="801.32" cy="308.01" r="3.2" fill="#1d4ed8"/>
<circle cx="803.42" cy="600.00" r="3.2" fill="#1d4ed8"/>
<circle cx="805.51" cy="301.54" r="3.2" fill="#1d4ed8"/>
<circle cx="807.60" cy="290.22" r="3.2" fill="#1d4ed8"/>
<circle cx="809.69" cy="287.79" r="3.2" fill="#1d4ed8"/>
<circle cx="811.79" cy="286.18" r="3.2" fill="#1d4ed8"/>
<circle cx="813.88" cy="285.77" r="3.2" fill="#1d4ed8"/>
<circle cx="815.97" cy="285.77" r="3.2" fill="#1d4ed8"/>
<circle cx="818.06" cy="285.77" r="3.2" fill="#1d4ed8"/>
<circle cx="820.15" cy="286.18" r="3.2" fill="#1d4ed8"/>
<circle cx="822.25" cy="285.77" r="3.2" fill="#1d4ed8"/>
<circle cx="824.34" cy="285.77" r="3.2" fill="#1d4ed8"/>
<circle cx="826.43" cy="285.77" r="3.2" fill="#1d4ed8"/>
<circle cx="828.52" cy="283.35" r="3.2" fill="#1d4ed8"/>
<circle cx="830.61" cy="282.94" r="3.2" fill="#1d4ed8"/>
<circle cx="832.71" cy="282.94" r="3.2" fill="#1d4ed8"/>
<circle cx="834.80" cy="283.35" r="3.2" fill="#1d4ed8"/>
<circle cx="836.89" cy="282.94" r="3.2" fill="#1d4ed8"/>
<circle cx="838.98" cy="282.94" r="3.2" fill="#1d4ed8"/>
<circle cx="841.07" cy="283.75" r="3.2" fill="#1d4ed8"/>
<circle cx="843.17" cy="282.13" r="3.2" fill="#1d4ed8"/>
<circle cx="845.26" cy="282.13" r="3.2" fill="#1d4ed8"/>
<circle cx="847.35" cy="282.54" r="3.2" fill="#1d4ed8"/>
<circle cx="849.44" cy="282.13" r="3.2" fill="#1d4ed8"/>
<circle cx="851.54" cy="282.54" r="3.2" fill="#1d4ed8"/>
<circle cx="853.63" cy="282.94" r="3.2" fill="#1d4ed8"/>
<circle cx="855.72" cy="281.73" r="3.2" fill="#1d4ed8"/>
<circle cx="857.81" cy="282.54" r="3.2" fill="#1d4ed8"/>
<circle cx="859.90" cy="281.73" r="3.2" fill="#1d4ed8"/>
<circle cx="862.00" cy="282.54" r="3.2" fill="#1d4ed8"/>
<circle cx="864.09" cy="282.13" r="3.2" fill="#1d4ed8"/>
<circle cx="866.18" cy="282.13" r="3.2" fill="#1d4ed8"/>
<circle cx="868.27" cy="281.73" r="3.2" fill="#1d4ed8"/>
<circle cx="870.36" cy="281.73" r="3.2" fill="#1d4ed8"/>
<circle cx="872.46" cy="281.32" r="3.2" fill="#1d4ed8"/>
<circle cx="874.55" cy="281.73" r="3.2" fill="#1d4ed8"/>
<circle cx="876.64" cy="282.13" r="3.2" fill="#1d4ed8"/>
<circle cx="878.73" cy="281.32" r="3.2" fill="#1d4ed8"/>
<circle cx="880.83" cy="281.32" r="3.2" fill="#1d4ed8"/>
<circle cx="882.92" cy="282.54" r="3.2" fill="#1d4ed8"/>
<circle cx="885.01" cy="282.13" r="3.2" fill="#1d4ed8"/>
<circle cx="887.10" cy="281.32" r="3.2" fill="#1d4ed8"/>
<circle cx="889.19" cy="281.32" r="3.2" fill="#1d4ed8"/>
<circle cx="891.29" cy="281.32" r="3.2" fill="#1d4ed8"/>
<circle cx="893.38" cy="282.54" r="3.2" fill="#1d4ed8"/>
<circle cx="895.47" cy="282.13" r="3.2" fill="#1d4ed8"/>
<circle cx="897.56" cy="281.32" r="3.2" fill="#1d4ed8"/>
<circle cx="899.65" cy="282.13" r="3.2" fill="#1d4ed8"/>
<circle cx="901.75" cy="281.73" r="3.2" fill="#1d4ed8"/>
<circle cx="903.84" cy="282.13" r="3.2" fill="#1d4ed8"/>
<circle cx="905.93" cy="280.11" r="3.2" fill="#1d4ed8"/>
<circle cx="908.02" cy="280.11" r="3.2" fill="#1d4ed8"/>
<circle cx="910.12" cy="280.51" r="3.2" fill="#1d4ed8"/>
<circle cx="912.21" cy="279.71" r="3.2" fill="#1d4ed8"/>
<circle cx="914.30" cy="280.11" r="3.2" fill="#1d4ed8"/>
<circle cx="916.39" cy="280.51" r="3.2" fill="#1d4ed8"/>
<circle cx="918.48" cy="279.71" r="3.2" fill="#1d4ed8"/>
<circle cx="920.58" cy="280.11" r="3.2" fill="#1d4ed8"/>
<circle cx="922.67" cy="280.11" r="3.2" fill="#1d4ed8"/>
<circle cx="924.76" cy="279.30" r="3.2" fill="#1d4ed8"/>
<circle cx="926.85" cy="278.90" r="3.2" fill="#1d4ed8"/>
<circle cx="928.94" cy="278.90" r="3.2" fill="#1d4ed8"/>
<circle cx="931.04" cy="280.51" r="3.2" fill="#1d4ed8"/>
<circle cx="933.13" cy="279.30" r="3.2" fill="#1d4ed8"/>
<circle cx="935.22" cy="278.09" r="3.2" fill="#1d4ed8"/>
<circle cx="937.31" cy="278.49" r="3.2" fill="#1d4ed8"/>
<circle cx="939.40" cy="278.49" r="3.2" fill="#1d4ed8"/>
<circle cx="941.50" cy="277.28" r="3.2" fill="#1d4ed8"/>
<circle cx="943.59" cy="277.68" r="3.2" fill="#1d4ed8"/>
<circle cx="945.68" cy="277.68" r="3.2" fill="#1d4ed8"/>
<circle cx="947.77" cy="278.09" r="3.2" fill="#1d4ed8"/>
<circle cx="949.87" cy="277.28" r="3.2" fill="#1d4ed8"/>
<circle cx="951.96" cy="600.00" r="3.2" fill="#1d4ed8"/>
<circle cx="954.05" cy="278.90" r="3.2" fill="#1d4ed8"/>
<circle cx="956.14" cy="279.30" r="3.2" fill="#1d4ed8"/>
<circle cx="958.23" cy="278.90" r="3.2" fill="#1d4ed8"/>
<circle cx="960.33" cy="278.49" r="3.2" fill="#1d4ed8"/>
<circle cx="962.42" cy="278.49" r="3.2" fill="#1d4ed8"/>
<circle cx="964.51" cy="278.49" r="3.2" fill="#1d4ed8"/>
<circle cx="966.60" cy="278.49" r="3.2" fill="#1d4ed8"/>
<circle cx="968.69" cy="278.49" r="3.2" fill="#1d4ed8"/>
<circle cx="970.79" cy="278.49" r="3.2" fill="#1d4ed8"/>
<circle cx="972.88" cy="278.49" r="3.2" fill="#1d4ed8"/>
<circle cx="974.97" cy="278.49" r="3.2" fill="#1d4ed8"/>
<circle cx="977.06" cy="278.49" r="3.2" fill="#1d4ed8"/>
<circle cx="979.16" cy="278.49" r="3.2" fill="#1d4ed8"/>
<circle cx="981.25" cy="278.49" r="3.2" fill="#1d4ed8"/>
<circle cx="983.34" cy="278.49" r="3.2" fill="#1d4ed8"/>
<circle cx="985.43" cy="600.00" r="3.2" fill="#1d4ed8"/>
<circle cx="987.52" cy="600.00" r="3.2" fill="#1d4ed8"/>
<circle cx="989.62" cy="254.63" r="3.2" fill="#1d4ed8"/>
<circle cx="991.71" cy="600.00" r="3.2" fill="#1d4ed8"/>
<circle cx="993.80" cy="245.74" r="3.2" fill="#1d4ed8"/>
<circle cx="995.89" cy="245.74" r="3.2" fill="#1d4ed8"/>
<circle cx="997.98" cy="246.14" r="3.2" fill="#1d4ed8"/>
<circle cx="1000.08" cy="245.74" r="3.2" fill="#1d4ed8"/>
<circle cx="1002.17" cy="245.74" r="3.2" fill="#1d4ed8"/>
<circle cx="1004.26" cy="245.74" r="3.2" fill="#1d4ed8"/>
<circle cx="1006.35" cy="245.74" r="3.2" fill="#1d4ed8"/>
<circle cx="1008.45" cy="245.74" r="3.2" fill="#1d4ed8"/>
<circle cx="1010.54" cy="240.07" r="3.2" fill="#1d4ed8"/>
<circle cx="1012.63" cy="238.05" r="3.2" fill="#1d4ed8"/>
<circle cx="1014.72" cy="238.05" r="3.2" fill="#1d4ed8"/>
<circle cx="1016.81" cy="227.13" r="3.2" fill="#1d4ed8"/>
<circle cx="1018.91" cy="227.13" r="3.2" fill="#1d4ed8"/>
<circle cx="1021.00" cy="226.32" r="3.2" fill="#1d4ed8"/>
<circle cx="1023.09" cy="227.54" r="3.2" fill="#1d4ed8"/>
<circle cx="1025.18" cy="226.73" r="3.2" fill="#1d4ed8"/>
<circle cx="1027.27" cy="226.32" r="3.2" fill="#1d4ed8"/>
<circle cx="1029.37" cy="227.13" r="3.2" fill="#1d4ed8"/>
<circle cx="1031.46" cy="227.13" r="3.2" fill="#1d4ed8"/>
<circle cx="1033.55" cy="226.73" r="3.2" fill="#1d4ed8"/>
<circle cx="1035.64" cy="226.32" r="3.2" fill="#1d4ed8"/>
<circle cx="1037.74" cy="226.73" r="3.2" fill="#1d4ed8"/>
<circle cx="1039.83" cy="226.73" r="3.2" fill="#1d4ed8"/>
<circle cx="1041.92" cy="226.73" r="3.2" fill="#1d4ed8"/>
<circle cx="1044.01" cy="225.11" r="3.2" fill="#1d4ed8"/>
<circle cx="1046.10" cy="224.71" r="3.2" fill="#1d4ed8"/>
<circle cx="1048.20" cy="225.11" r="3.2" fill="#1d4ed8"/>
<circle cx="1050.29" cy="224.30" r="3.2" fill="#1d4ed8"/>
<circle cx="1052.38" cy="226.32" r="3.2" fill="#1d4ed8"/>
<circle cx="1054.47" cy="224.30" r="3.2" fill="#1d4ed8"/>
<circle cx="1056.56" cy="225.51" r="3.2" fill="#1d4ed8"/>
<circle cx="1058.66" cy="225.51" r="3.2" fill="#1d4ed8"/>
<circle cx="1060.75" cy="225.51" r="3.2" fill="#1d4ed8"/>
<circle cx="1062.84" cy="225.92" r="3.2" fill="#1d4ed8"/>
<circle cx="1064.93" cy="223.09" r="3.2" fill="#1d4ed8"/>
<circle cx="1067.02" cy="223.49" r="3.2" fill="#1d4ed8"/>
<circle cx="1069.12" cy="223.09" r="3.2" fill="#1d4ed8"/>
<circle cx="1071.21" cy="223.09" r="3.2" fill="#1d4ed8"/>
<circle cx="1073.30" cy="223.90" r="3.2" fill="#1d4ed8"/>
<circle cx="1075.39" cy="223.49" r="3.2" fill="#1d4ed8"/>
<circle cx="1077.49" cy="223.49" r="3.2" fill="#1d4ed8"/>
<circle cx="1079.58" cy="223.09" r="3.2" fill="#1d4ed8"/>
<circle cx="1081.67" cy="223.09" r="3.2" fill="#1d4ed8"/>
<circle cx="1083.76" cy="223.49" r="3.2" fill="#1d4ed8"/>
<circle cx="1085.85" cy="223.09" r="3.2" fill="#1d4ed8"/>
<circle cx="1087.95" cy="223.09" r="3.2" fill="#1d4ed8"/>
<circle cx="1090.04" cy="223.49" r="3.2" fill="#1d4ed8"/>
<circle cx="1092.13" cy="223.49" r="3.2" fill="#1d4ed8"/>
<circle cx="1094.22" cy="223.09" r="3.2" fill="#1d4ed8"/>
<circle cx="1096.31" cy="223.09" r="3.2" fill="#1d4ed8"/>
<circle cx="1098.41" cy="223.49" r="3.2" fill="#1d4ed8"/>
<circle cx="1100.50" cy="223.09" r="3.2" fill="#1d4ed8"/>
<circle cx="1102.59" cy="223.09" r="3.2" fill="#1d4ed8"/>
<circle cx="1104.68" cy="223.09" r="3.2" fill="#1d4ed8"/>
<circle cx="1106.78" cy="223.49" r="3.2" fill="#1d4ed8"/>
<circle cx="1108.87" cy="223.49" r="3.2" fill="#1d4ed8"/>
<circle cx="1110.96" cy="223.49" r="3.2" fill="#1d4ed8"/>
<circle cx="1113.05" cy="223.09" r="3.2" fill="#1d4ed8"/>
<circle cx="1115.14" cy="223.49" r="3.2" fill="#1d4ed8"/>
<circle cx="1117.24" cy="223.09" r="3.2" fill="#1d4ed8"/>
<circle cx="1119.33" cy="223.09" r="3.2" fill="#1d4ed8"/>
<circle cx="1121.42" cy="223.49" r="3.2" fill="#1d4ed8"/>
<circle cx="1123.51" cy="223.09" r="3.2" fill="#1d4ed8"/>
<circle cx="1125.60" cy="223.09" r="3.2" fill="#1d4ed8"/>
<circle cx="1127.70" cy="223.49" r="3.2" fill="#1d4ed8"/>
<circle cx="1129.79" cy="222.68" r="3.2" fill="#1d4ed8"/>
<circle cx="1131.88" cy="221.88" r="3.2" fill="#1d4ed8"/>
<circle cx="1133.97" cy="223.49" r="3.2" fill="#1d4ed8"/>
<circle cx="1136.07" cy="223.09" r="3.2" fill="#1d4ed8"/>
<circle cx="1138.16" cy="223.49" r="3.2" fill="#1d4ed8"/>
<circle cx="1140.25" cy="224.30" r="3.2" fill="#1d4ed8"/>
<circle cx="1142.34" cy="201.65" r="3.2" fill="#1d4ed8"/>
<circle cx="1144.43" cy="201.65" r="3.2" fill="#1d4ed8"/>
<circle cx="1146.53" cy="186.69" r="3.2" fill="#1d4ed8"/>
<circle cx="1148.62" cy="176.18" r="3.2" fill="#1d4ed8"/>
<circle cx="1150.71" cy="174.15" r="3.2" fill="#1d4ed8"/>
<circle cx="1152.80" cy="172.94" r="3.2" fill="#1d4ed8"/>
<circle cx="1154.89" cy="172.94" r="3.2" fill="#1d4ed8"/>
<circle cx="1156.99" cy="162.02" r="3.2" fill="#1d4ed8"/>
<circle cx="1159.08" cy="161.21" r="3.2" fill="#1d4ed8"/>
<circle cx="1161.17" cy="148.27" r="3.2" fill="#1d4ed8"/>
<circle cx="1163.26" cy="155.96" r="3.2" fill="#1d4ed8"/>
<circle cx="1165.36" cy="139.78" r="3.2" fill="#1d4ed8"/>
<circle cx="1167.45" cy="135.33" r="3.2" fill="#1d4ed8"/>
<circle cx="1169.54" cy="147.06" r="3.2" fill="#1d4ed8"/>
<circle cx="1171.63" cy="131.29" r="3.2" fill="#1d4ed8"/>
<circle cx="1173.72" cy="119.56" r="3.2" fill="#1d4ed8"/>
<circle cx="1175.82" cy="114.71" r="3.2" fill="#1d4ed8"/>
<circle cx="1177.91" cy="113.90" r="3.2" fill="#1d4ed8"/>
<circle cx="1180.00" cy="114.30" r="3.2" fill="#1d4ed8"/>
<text x="635" y="695" text-anchor="middle" font-size="14" fill="#111" font-family="sans-serif">Date</text>
<text x="24" y="325" text-anchor="middle" font-size="14" fill="#111" transform="rotate(-90 24,325)" font-family="sans-serif">Passed files</text>
</svg>
