<?xml version="1.0" encoding="UTF-8"?>
<svg xmlns="http://www.w3.org/2000/svg" width="1280" height="720" viewBox="0 0 1280 720">
<rect width="100%" height="100%" fill="#ffffff"/>
<text x="640" y="30" text-anchor="middle" font-size="22" font-family="sans-serif">Roast passed files history</text>
<line x1="90" y1="600" x2="1180" y2="600" stroke="#333" stroke-width="1.5"/>
<line x1="90" y1="50" x2="90" y2="600" stroke="#333" stroke-width="1.5"/>
<line x1="90" y1="600.00" x2="1180" y2="600.00" stroke="#e5e7eb" stroke-width="1"/>
<text x="78" y="605.00" text-anchor="end" font-size="12" fill="#111" font-family="sans-serif">0</text>
<line x1="90" y1="397.79" x2="1180" y2="397.79" stroke="#e5e7eb" stroke-width="1"/>
<text x="78" y="402.79" text-anchor="end" font-size="12" fill="#111" font-family="sans-serif">500</text>
<line x1="90" y1="195.59" x2="1180" y2="195.59" stroke="#e5e7eb" stroke-width="1"/>
<text x="78" y="200.59" text-anchor="end" font-size="12" fill="#111" font-family="sans-serif">1000</text>
<line x1="90.00" y1="600" x2="90.00" y2="606" stroke="#333" stroke-width="1"/>
<text x="90.00" y="624" text-anchor="end" font-size="11" fill="#111" transform="rotate(-40 90.00,624)" font-family="sans-serif">2026-02-12</text>
<line x1="224.31" y1="600" x2="224.31" y2="606" stroke="#333" stroke-width="1"/>
<text x="224.31" y="624" text-anchor="end" font-size="11" fill="#111" transform="rotate(-40 224.31,624)" font-family="sans-serif">2026-02-18</text>
<line x1="358.63" y1="600" x2="358.63" y2="606" stroke="#333" stroke-width="1"/>
<text x="358.63" y="624" text-anchor="end" font-size="11" fill="#111" transform="rotate(-40 358.63,624)" font-family="sans-serif">2026-02-23</text>
<line x1="492.94" y1="600" x2="492.94" y2="606" stroke="#333" stroke-width="1"/>
<text x="492.94" y="624" text-anchor="end" font-size="11" fill="#111" transform="rotate(-40 492.94,624)" font-family="sans-serif">2026-02-26</text>
<line x1="627.25" y1="600" x2="627.25" y2="606" stroke="#333" stroke-width="1"/>
<text x="627.25" y="624" text-anchor="end" font-size="11" fill="#111" transform="rotate(-40 627.25,624)" font-family="sans-serif">2026-03-01</text>
<line x1="761.56" y1="600" x2="761.56" y2="606" stroke="#333" stroke-width="1"/>
<text x="761.56" y="624" text-anchor="end" font-size="11" fill="#111" transform="rotate(-40 761.56,624)" font-family="sans-serif">2026-03-06</text>
<line x1="895.88" y1="600" x2="895.88" y2="606" stroke="#333" stroke-width="1"/>
<text x="895.88" y="624" text-anchor="end" font-size="11" fill="#111" transform="rotate(-40 895.88,624)" font-family="sans-serif">2026-03-11</text>
<line x1="1030.19" y1="600" x2="1030.19" y2="606" stroke="#333" stroke-width="1"/>
<text x="1030.19" y="624" text-anchor="end" font-size="11" fill="#111" transform="rotate(-40 1030.19,624)" font-family="sans-serif">2026-03-18</text>
<line x1="1164.50" y1="600" x2="1164.50" y2="606" stroke="#333" stroke-width="1"/>
<text x="1164.50" y="624" text-anchor="end" font-size="11" fill="#111" transform="rotate(-40 1164.50,624)" font-family="sans-serif">2026-03-20</text>
<line x1="1180.00" y1="600" x2="1180.00" y2="606" stroke="#333" stroke-width="1"/>
<text x="1180.00" y="624" text-anchor="end" font-size="11" fill="#111" transform="rotate(-40 1180.00,624)" font-family="sans-serif">2026-03-20</text>
<line x1="90" y1="75.88" x2="1180" y2="75.88" stroke="#dc2626" stroke-width="1.5" stroke-dasharray="8,4"/>
<text x="1184" y="79.88" font-size="12" fill="#dc2626" font-family="sans-serif">Goal: 1296</text>
<polyline fill="none" stroke="#2563eb" stroke-width="3" points="90.00,540.55 92.58,538.53 95.17,536.91 97.75,534.49 100.33,534.49 102.91,533.27 105.50,532.46 108.08,532.87 110.66,532.06 113.25,532.46 115.83,532.06 118.41,568.46 121.00,568.46 123.58,566.43 126.16,545.00 128.74,545.00 131.33,544.19 133.91,543.79 136.49,543.79 139.08,543.38 141.66,541.76 144.24,541.36 146.82,540.96 149.41,540.96 151.99,539.34 154.57,539.34 157.16,556.73 159.74,556.73 162.32,555.51 164.91,551.07 167.49,538.93 170.07,538.93 172.65,538.93 175.24,538.12 177.82,536.91 180.40,536.91 182.99,536.51 185.57,536.51 188.15,556.73 190.73,556.73 193.32,556.73 195.90,556.73 198.48,535.29 201.07,535.29 203.65,535.29 206.23,535.29 208.82,534.49 211.40,534.08 213.98,533.68 216.56,532.87 219.15,532.06 221.73,532.06 224.31,531.25 226.90,530.85 229.48,530.44 232.06,530.04 234.64,530.04 237.23,529.23 239.81,529.23 242.39,529.23 244.98,528.42 247.56,528.42 250.14,527.61 252.73,527.21 255.31,526.80 257.89,526.40 260.47,525.18 263.06,523.57 265.64,523.57 268.22,523.16 270.81,522.76 273.39,522.35 275.97,521.54 278.55,519.52 281.14,517.50 283.72,517.50 286.30,517.50 288.89,517.50 291.47,517.50 294.05,517.50 296.64,517.10 299.22,516.69 301.80,515.48 304.38,515.07 306.97,514.67 309.55,513.86 312.13,514.26 314.72,512.24 317.30,511.84 319.88,511.84 322.46,511.03 325.05,509.82 327.63,507.79 330.21,506.99 332.80,506.58 335.38,509.41 337.96,509.01 340.55,504.96 343.13,504.56 345.71,504.15 348.29,504.56 350.88,503.75 353.46,503.75 356.04,503.35 358.63,499.30 361.21,496.47 363.79,490.00 366.37,484.34 368.96,481.10 371.54,480.29 374.12,480.70 376.71,460.88 379.29,459.26 381.87,458.05 384.45,456.03 387.04,456.03 389.62,454.41 392.20,450.77 394.79,444.30 397.37,443.90 399.95,600.00 402.54,441.88 405.12,440.66 407.70,439.45 410.28,439.04 412.87,438.64 415.45,437.83 418.03,436.62 420.62,436.62 423.20,434.60 425.78,432.17 428.36,429.34 430.95,428.93 433.53,428.53 436.11,427.72 438.70,426.91 441.28,426.10 443.86,426.10 446.45,426.10 449.03,419.63 451.61,419.23 454.19,418.42 456.78,418.01 459.36,417.61 461.94,417.61 464.53,417.61 467.11,417.21 469.69,417.21 472.27,413.57 474.86,411.95 477.44,412.76 480.02,410.74 482.61,410.74 485.19,410.33 487.77,410.33 490.36,410.33 492.94,409.93 495.52,409.93 498.10,409.93 500.69,409.52 503.27,409.52 505.85,409.12 508.44,409.52 511.02,409.12 513.60,407.50 516.18,407.10 518.77,403.05 521.35,399.82 523.93,400.22 526.52,400.62 529.10,400.62 531.68,399.41 534.27,392.94 536.85,391.32 539.43,389.30 542.01,389.30 544.60,388.49 547.18,375.15 549.76,374.74 552.35,374.74 554.93,374.74 557.51,374.74 560.09,374.34 562.68,374.34 565.26,374.34 567.84,374.34 570.43,374.34 573.01,373.93 575.59,373.12 578.18,372.72 580.76,373.53 583.34,435.81 585.92,372.32 588.51,372.72 591.09,371.91 593.67,371.91 596.26,372.32 598.84,371.10 601.42,369.89 604.00,369.89 606.59,369.89 609.17,369.49 611.75,369.89 614.34,369.08 616.92,368.68 619.50,368.27 622.09,367.87 624.67,367.06 627.25,367.46 629.83,367.06 632.42,366.25 635.00,368.27 637.58,368.68 640.17,368.68 642.75,368.27 645.33,369.08 647.91,367.87 650.50,367.46 653.08,367.06 655.66,360.18 658.25,359.78 660.83,359.38 663.41,356.95 666.00,357.35 668.58,357.76 671.16,355.33 673.74,355.74 676.33,357.35 678.91,355.33 681.49,356.14 684.08,355.74 686.66,356.14 689.24,354.12 691.82,354.93 694.41,356.14 696.99,354.52 699.57,353.71 702.16,354.12 704.74,354.93 707.32,352.90 709.91,353.71 712.49,353.31 715.07,353.31 717.65,354.52 720.24,352.90 722.82,352.50 725.40,352.50 727.99,353.31 730.57,352.50 733.15,353.71 735.73,354.12 738.32,352.50 740.90,352.90 743.48,352.50 746.07,352.10 748.65,351.69 751.23,352.10 753.82,354.12 756.40,352.50 758.98,352.10 761.56,352.10 764.15,349.67 766.73,349.67 769.31,350.88 771.90,351.29 774.48,350.48 777.06,352.10 779.64,350.48 782.23,350.48 784.81,350.48 787.39,350.07 789.98,348.46 792.56,351.29 795.14,349.67 797.73,351.29 800.31,349.67 802.89,348.86 805.47,348.46 808.06,348.46 810.64,347.24 813.22,348.86 815.81,346.84 818.39,348.46 820.97,348.86 823.55,346.84 826.14,349.26 828.72,348.05 831.30,349.26 833.89,349.26 836.47,350.48 839.05,352.90 841.64,349.67 844.22,348.46 846.80,345.62 849.38,344.82 851.97,344.41 854.55,342.39 857.13,341.18 859.72,341.58 862.30,339.15 864.88,338.35 867.46,337.54 870.05,336.73 872.63,335.92 875.21,337.54 877.80,338.35 880.38,337.54 882.96,337.54 885.55,337.54 888.13,333.09 890.71,333.90 893.29,335.92 895.88,336.73 898.46,335.51 901.04,332.28 903.63,331.47 906.21,331.07 908.79,331.47 911.37,331.07 913.96,331.07 916.54,331.07 919.12,331.07 921.71,331.07 924.29,331.07 926.87,331.07 929.45,331.07 932.04,331.07 934.62,331.07 937.20,331.47 939.79,331.88 942.37,331.07 944.95,331.47 947.54,331.07 950.12,331.47 952.70,331.07 955.28,324.19 957.87,324.19 960.45,318.93 963.03,316.51 965.62,310.44 968.20,308.01 970.78,600.00 973.36,301.54 975.95,290.22 978.53,287.79 981.11,286.18 983.70,285.77 986.28,285.77 988.86,285.77 991.45,286.18 994.03,285.77 996.61,285.77 999.19,285.77 1001.78,283.35 1004.36,282.94 1006.94,282.94 1009.53,283.35 1012.11,282.94 1014.69,282.94 1017.27,283.75 1019.86,282.13 1022.44,282.13 1025.02,282.54 1027.61,282.13 1030.19,282.54 1032.77,282.94 1035.36,281.73 1037.94,282.54 1040.52,281.73 1043.10,282.54 1045.69,282.13 1048.27,282.13 1050.85,281.73 1053.44,281.73 1056.02,281.32 1058.60,281.73 1061.18,282.13 1063.77,281.32 1066.35,281.32 1068.93,282.54 1071.52,282.13 1074.10,281.32 1076.68,281.32 1079.27,281.32 1081.85,282.54 1084.43,282.13 1087.01,281.32 1089.60,282.13 1092.18,281.73 1094.76,282.13 1097.35,280.11 1099.93,280.11 1102.51,280.51 1105.09,279.71 1107.68,280.11 1110.26,280.51 1112.84,279.71 1115.43,280.11 1118.01,280.11 1120.59,279.30 1123.18,278.90 1125.76,278.90 1128.34,280.51 1130.92,279.30 1133.51,278.09 1136.09,278.49 1138.67,278.49 1141.26,277.28 1143.84,277.68 1146.42,277.68 1149.00,278.09 1151.59,277.28 1154.17,600.00 1156.75,278.90 1159.34,279.30 1161.92,278.90 1164.50,278.49 1167.09,278.49 1169.67,278.49 1172.25,278.49 1174.83,278.49 1177.42,278.49 1180.00,278.49"/>
<circle cx="90.00" cy="540.55" r="3.2" fill="#1d4ed8"/>
<circle cx="92.58" cy="538.53" r="3.2" fill="#1d4ed8"/>
<circle cx="95.17" cy="536.91" r="3.2" fill="#1d4ed8"/>
<circle cx="97.75" cy="534.49" r="3.2" fill="#1d4ed8"/>
<circle cx="100.33" cy="534.49" r="3.2" fill="#1d4ed8"/>
<circle cx="102.91" cy="533.27" r="3.2" fill="#1d4ed8"/>
<circle cx="105.50" cy="532.46" r="3.2" fill="#1d4ed8"/>
<circle cx="108.08" cy="532.87" r="3.2" fill="#1d4ed8"/>
<circle cx="110.66" cy="532.06" r="3.2" fill="#1d4ed8"/>
<circle cx="113.25" cy="532.46" r="3.2" fill="#1d4ed8"/>
<circle cx="115.83" cy="532.06" r="3.2" fill="#1d4ed8"/>
<circle cx="118.41" cy="568.46" r="3.2" fill="#1d4ed8"/>
<circle cx="121.00" cy="568.46" r="3.2" fill="#1d4ed8"/>
<circle cx="123.58" cy="566.43" r="3.2" fill="#1d4ed8"/>
<circle cx="126.16" cy="545.00" r="3.2" fill="#1d4ed8"/>
<circle cx="128.74" cy="545.00" r="3.2" fill="#1d4ed8"/>
<circle cx="131.33" cy="544.19" r="3.2" fill="#1d4ed8"/>
<circle cx="133.91" cy="543.79" r="3.2" fill="#1d4ed8"/>
<circle cx="136.49" cy="543.79" r="3.2" fill="#1d4ed8"/>
<circle cx="139.08" cy="543.38" r="3.2" fill="#1d4ed8"/>
<circle cx="141.66" cy="541.76" r="3.2" fill="#1d4ed8"/>
<circle cx="144.24" cy="541.36" r="3.2" fill="#1d4ed8"/>
<circle cx="146.82" cy="540.96" r="3.2" fill="#1d4ed8"/>
<circle cx="149.41" cy="540.96" r="3.2" fill="#1d4ed8"/>
<circle cx="151.99" cy="539.34" r="3.2" fill="#1d4ed8"/>
<circle cx="154.57" cy="539.34" r="3.2" fill="#1d4ed8"/>
<circle cx="157.16" cy="556.73" r="3.2" fill="#1d4ed8"/>
<circle cx="159.74" cy="556.73" r="3.2" fill="#1d4ed8"/>
<circle cx="162.32" cy="555.51" r="3.2" fill="#1d4ed8"/>
<circle cx="164.91" cy="551.07" r="3.2" fill="#1d4ed8"/>
<circle cx="167.49" cy="538.93" r="3.2" fill="#1d4ed8"/>
<circle cx="170.07" cy="538.93" r="3.2" fill="#1d4ed8"/>
<circle cx="172.65" cy="538.93" r="3.2" fill="#1d4ed8"/>
<circle cx="175.24" cy="538.12" r="3.2" fill="#1d4ed8"/>
<circle cx="177.82" cy="536.91" r="3.2" fill="#1d4ed8"/>
<circle cx="180.40" cy="536.91" r="3.2" fill="#1d4ed8"/>
<circle cx="182.99" cy="536.51" r="3.2" fill="#1d4ed8"/>
<circle cx="185.57" cy="536.51" r="3.2" fill="#1d4ed8"/>
<circle cx="188.15" cy="556.73" r="3.2" fill="#1d4ed8"/>
<circle cx="190.73" cy="556.73" r="3.2" fill="#1d4ed8"/>
<circle cx="193.32" cy="556.73" r="3.2" fill="#1d4ed8"/>
<circle cx="195.90" cy="556.73" r="3.2" fill="#1d4ed8"/>
<circle cx="198.48" cy="535.29" r="3.2" fill="#1d4ed8"/>
<circle cx="201.07" cy="535.29" r="3.2" fill="#1d4ed8"/>
<circle cx="203.65" cy="535.29" r="3.2" fill="#1d4ed8"/>
<circle cx="206.23" cy="535.29" r="3.2" fill="#1d4ed8"/>
<circle cx="208.82" cy="534.49" r="3.2" fill="#1d4ed8"/>
<circle cx="211.40" cy="534.08" r="3.2" fill="#1d4ed8"/>
<circle cx="213.98" cy="533.68" r="3.2" fill="#1d4ed8"/>
<circle cx="216.56" cy="532.87" r="3.2" fill="#1d4ed8"/>
<circle cx="219.15" cy="532.06" r="3.2" fill="#1d4ed8"/>
<circle cx="221.73" cy="532.06" r="3.2" fill="#1d4ed8"/>
<circle cx="224.31" cy="531.25" r="3.2" fill="#1d4ed8"/>
<circle cx="226.90" cy="530.85" r="3.2" fill="#1d4ed8"/>
<circle cx="229.48" cy="530.44" r="3.2" fill="#1d4ed8"/>
<circle cx="232.06" cy="530.04" r="3.2" fill="#1d4ed8"/>
<circle cx="234.64" cy="530.04" r="3.2" fill="#1d4ed8"/>
<circle cx="237.23" cy="529.23" r="3.2" fill="#1d4ed8"/>
<circle cx="239.81" cy="529.23" r="3.2" fill="#1d4ed8"/>
<circle cx="242.39" cy="529.23" r="3.2" fill="#1d4ed8"/>
<circle cx="244.98" cy="528.42" r="3.2" fill="#1d4ed8"/>
<circle cx="247.56" cy="528.42" r="3.2" fill="#1d4ed8"/>
<circle cx="250.14" cy="527.61" r="3.2" fill="#1d4ed8"/>
<circle cx="252.73" cy="527.21" r="3.2" fill="#1d4ed8"/>
<circle cx="255.31" cy="526.80" r="3.2" fill="#1d4ed8"/>
<circle cx="257.89" cy="526.40" r="3.2" fill="#1d4ed8"/>
<circle cx="260.47" cy="525.18" r="3.2" fill="#1d4ed8"/>
<circle cx="263.06" cy="523.57" r="3.2" fill="#1d4ed8"/>
<circle cx="265.64" cy="523.57" r="3.2" fill="#1d4ed8"/>
<circle cx="268.22" cy="523.16" r="3.2" fill="#1d4ed8"/>
<circle cx="270.81" cy="522.76" r="3.2" fill="#1d4ed8"/>
<circle cx="273.39" cy="522.35" r="3.2" fill="#1d4ed8"/>
<circle cx="275.97" cy="521.54" r="3.2" fill="#1d4ed8"/>
<circle cx="278.55" cy="519.52" r="3.2" fill="#1d4ed8"/>
<circle cx="281.14" cy="517.50" r="3.2" fill="#1d4ed8"/>
<circle cx="283.72" cy="517.50" r="3.2" fill="#1d4ed8"/>
<circle cx="286.30" cy="517.50" r="3.2" fill="#1d4ed8"/>
<circle cx="288.89" cy="517.50" r="3.2" fill="#1d4ed8"/>
<circle cx="291.47" cy="517.50" r="3.2" fill="#1d4ed8"/>
<circle cx="294.05" cy="517.50" r="3.2" fill="#1d4ed8"/>
<circle cx="296.64" cy="517.10" r="3.2" fill="#1d4ed8"/>
<circle cx="299.22" cy="516.69" r="3.2" fill="#1d4ed8"/>
<circle cx="301.80" cy="515.48" r="3.2" fill="#1d4ed8"/>
<circle cx="304.38" cy="515.07" r="3.2" fill="#1d4ed8"/>
<circle cx="306.97" cy="514.67" r="3.2" fill="#1d4ed8"/>
<circle cx="309.55" cy="513.86" r="3.2" fill="#1d4ed8"/>
<circle cx="312.13" cy="514.26" r="3.2" fill="#1d4ed8"/>
<circle cx="314.72" cy="512.24" r="3.2" fill="#1d4ed8"/>
<circle cx="317.30" cy="511.84" r="3.2" fill="#1d4ed8"/>
<circle cx="319.88" cy="511.84" r="3.2" fill="#1d4ed8"/>
<circle cx="322.46" cy="511.03" r="3.2" fill="#1d4ed8"/>
<circle cx="325.05" cy="509.82" r="3.2" fill="#1d4ed8"/>
<circle cx="327.63" cy="507.79" r="3.2" fill="#1d4ed8"/>
<circle cx="330.21" cy="506.99" r="3.2" fill="#1d4ed8"/>
<circle cx="332.80" cy="506.58" r="3.2" fill="#1d4ed8"/>
<circle cx="335.38" cy="509.41" r="3.2" fill="#1d4ed8"/>
<circle cx="337.96" cy="509.01" r="3.2" fill="#1d4ed8"/>
<circle cx="340.55" cy="504.96" r="3.2" fill="#1d4ed8"/>
<circle cx="343.13" cy="504.56" r="3.2" fill="#1d4ed8"/>
<circle cx="345.71" cy="504.15" r="3.2" fill="#1d4ed8"/>
<circle cx="348.29" cy="504.56" r="3.2" fill="#1d4ed8"/>
<circle cx="350.88" cy="503.75" r="3.2" fill="#1d4ed8"/>
<circle cx="353.46" cy="503.75" r="3.2" fill="#1d4ed8"/>
<circle cx="356.04" cy="503.35" r="3.2" fill="#1d4ed8"/>
<circle cx="358.63" cy="499.30" r="3.2" fill="#1d4ed8"/>
<circle cx="361.21" cy="496.47" r="3.2" fill="#1d4ed8"/>
<circle cx="363.79" cy="490.00" r="3.2" fill="#1d4ed8"/>
<circle cx="366.37" cy="484.34" r="3.2" fill="#1d4ed8"/>
<circle cx="368.96" cy="481.10" r="3.2" fill="#1d4ed8"/>
<circle cx="371.54" cy="480.29" r="3.2" fill="#1d4ed8"/>
<circle cx="374.12" cy="480.70" r="3.2" fill="#1d4ed8"/>
<circle cx="376.71" cy="460.88" r="3.2" fill="#1d4ed8"/>
<circle cx="379.29" cy="459.26" r="3.2" fill="#1d4ed8"/>
<circle cx="381.87" cy="458.05" r="3.2" fill="#1d4ed8"/>
<circle cx="384.45" cy="456.03" r="3.2" fill="#1d4ed8"/>
<circle cx="387.04" cy="456.03" r="3.2" fill="#1d4ed8"/>
<circle cx="389.62" cy="454.41" r="3.2" fill="#1d4ed8"/>
<circle cx="392.20" cy="450.77" r="3.2" fill="#1d4ed8"/>
<circle cx="394.79" cy="444.30" r="3.2" fill="#1d4ed8"/>
<circle cx="397.37" cy="443.90" r="3.2" fill="#1d4ed8"/>
<circle cx="399.95" cy="600.00" r="3.2" fill="#1d4ed8"/>
<circle cx="402.54" cy="441.88" r="3.2" fill="#1d4ed8"/>
<circle cx="405.12" cy="440.66" r="3.2" fill="#1d4ed8"/>
<circle cx="407.70" cy="439.45" r="3.2" fill="#1d4ed8"/>
<circle cx="410.28" cy="439.04" r="3.2" fill="#1d4ed8"/>
<circle cx="412.87" cy="438.64" r="3.2" fill="#1d4ed8"/>
<circle cx="415.45" cy="437.83" r="3.2" fill="#1d4ed8"/>
<circle cx="418.03" cy="436.62" r="3.2" fill="#1d4ed8"/>
<circle cx="420.62" cy="436.62" r="3.2" fill="#1d4ed8"/>
<circle cx="423.20" cy="434.60" r="3.2" fill="#1d4ed8"/>
<circle cx="425.78" cy="432.17" r="3.2" fill="#1d4ed8"/>
<circle cx="428.36" cy="429.34" r="3.2" fill="#1d4ed8"/>
<circle cx="430.95" cy="428.93" r="3.2" fill="#1d4ed8"/>
<circle cx="433.53" cy="428.53" r="3.2" fill="#1d4ed8"/>
<circle cx="436.11" cy="427.72" r="3.2" fill="#1d4ed8"/>
<circle cx="438.70" cy="426.91" r="3.2" fill="#1d4ed8"/>
<circle cx="441.28" cy="426.10" r="3.2" fill="#1d4ed8"/>
<circle cx="443.86" cy="426.10" r="3.2" fill="#1d4ed8"/>
<circle cx="446.45" cy="426.10" r="3.2" fill="#1d4ed8"/>
<circle cx="449.03" cy="419.63" r="3.2" fill="#1d4ed8"/>
<circle cx="451.61" cy="419.23" r="3.2" fill="#1d4ed8"/>
<circle cx="454.19" cy="418.42" r="3.2" fill="#1d4ed8"/>
<circle cx="456.78" cy="418.01" r="3.2" fill="#1d4ed8"/>
<circle cx="459.36" cy="417.61" r="3.2" fill="#1d4ed8"/>
<circle cx="461.94" cy="417.61" r="3.2" fill="#1d4ed8"/>
<circle cx="464.53" cy="417.61" r="3.2" fill="#1d4ed8"/>
<circle cx="467.11" cy="417.21" r="3.2" fill="#1d4ed8"/>
<circle cx="469.69" cy="417.21" r="3.2" fill="#1d4ed8"/>
<circle cx="472.27" cy="413.57" r="3.2" fill="#1d4ed8"/>
<circle cx="474.86" cy="411.95" r="3.2" fill="#1d4ed8"/>
<circle cx="477.44" cy="412.76" r="3.2" fill="#1d4ed8"/>
<circle cx="480.02" cy="410.74" r="3.2" fill="#1d4ed8"/>
<circle cx="482.61" cy="410.74" r="3.2" fill="#1d4ed8"/>
<circle cx="485.19" cy="410.33" r="3.2" fill="#1d4ed8"/>
<circle cx="487.77" cy="410.33" r="3.2" fill="#1d4ed8"/>
<circle cx="490.36" cy="410.33" r="3.2" fill="#1d4ed8"/>
<circle cx="492.94" cy="409.93" r="3.2" fill="#1d4ed8"/>
<circle cx="495.52" cy="409.93" r="3.2" fill="#1d4ed8"/>
<circle cx="498.10" cy="409.93" r="3.2" fill="#1d4ed8"/>
<circle cx="500.69" cy="409.52" r="3.2" fill="#1d4ed8"/>
<circle cx="503.27" cy="409.52" r="3.2" fill="#1d4ed8"/>
<circle cx="505.85" cy="409.12" r="3.2" fill="#1d4ed8"/>
<circle cx="508.44" cy="409.52" r="3.2" fill="#1d4ed8"/>
<circle cx="511.02" cy="409.12" r="3.2" fill="#1d4ed8"/>
<circle cx="513.60" cy="407.50" r="3.2" fill="#1d4ed8"/>
<circle cx="516.18" cy="407.10" r="3.2" fill="#1d4ed8"/>
<circle cx="518.77" cy="403.05" r="3.2" fill="#1d4ed8"/>
<circle cx="521.35" cy="399.82" r="3.2" fill="#1d4ed8"/>
<circle cx="523.93" cy="400.22" r="3.2" fill="#1d4ed8"/>
<circle cx="526.52" cy="400.62" r="3.2" fill="#1d4ed8"/>
<circle cx="529.10" cy="400.62" r="3.2" fill="#1d4ed8"/>
<circle cx="531.68" cy="399.41" r="3.2" fill="#1d4ed8"/>
<circle cx="534.27" cy="392.94" r="3.2" fill="#1d4ed8"/>
<circle cx="536.85" cy="391.32" r="3.2" fill="#1d4ed8"/>
<circle cx="539.43" cy="389.30" r="3.2" fill="#1d4ed8"/>
<circle cx="542.01" cy="389.30" r="3.2" fill="#1d4ed8"/>
<circle cx="544.60" cy="388.49" r="3.2" fill="#1d4ed8"/>
<circle cx="547.18" cy="375.15" r="3.2" fill="#1d4ed8"/>
<circle cx="549.76" cy="374.74" r="3.2" fill="#1d4ed8"/>
<circle cx="552.35" cy="374.74" r="3.2" fill="#1d4ed8"/>
<circle cx="554.93" cy="374.74" r="3.2" fill="#1d4ed8"/>
<circle cx="557.51" cy="374.74" r="3.2" fill="#1d4ed8"/>
<circle cx="560.09" cy="374.34" r="3.2" fill="#1d4ed8"/>
<circle cx="562.68" cy="374.34" r="3.2" fill="#1d4ed8"/>
<circle cx="565.26" cy="374.34" r="3.2" fill="#1d4ed8"/>
<circle cx="567.84" cy="374.34" r="3.2" fill="#1d4ed8"/>
<circle cx="570.43" cy="374.34" r="3.2" fill="#1d4ed8"/>
<circle cx="573.01" cy="373.93" r="3.2" fill="#1d4ed8"/>
<circle cx="575.59" cy="373.12" r="3.2" fill="#1d4ed8"/>
<circle cx="578.18" cy="372.72" r="3.2" fill="#1d4ed8"/>
<circle cx="580.76" cy="373.53" r="3.2" fill="#1d4ed8"/>
<circle cx="583.34" cy="435.81" r="3.2" fill="#1d4ed8"/>
<circle cx="585.92" cy="372.32" r="3.2" fill="#1d4ed8"/>
<circle cx="588.51" cy="372.72" r="3.2" fill="#1d4ed8"/>
<circle cx="591.09" cy="371.91" r="3.2" fill="#1d4ed8"/>
<circle cx="593.67" cy="371.91" r="3.2" fill="#1d4ed8"/>
<circle cx="596.26" cy="372.32" r="3.2" fill="#1d4ed8"/>
<circle cx="598.84" cy="371.10" r="3.2" fill="#1d4ed8"/>
<circle cx="601.42" cy="369.89" r="3.2" fill="#1d4ed8"/>
<circle cx="604.00" cy="369.89" r="3.2" fill="#1d4ed8"/>
<circle cx="606.59" cy="369.89" r="3.2" fill="#1d4ed8"/>
<circle cx="609.17" cy="369.49" r="3.2" fill="#1d4ed8"/>
<circle cx="611.75" cy="369.89" r="3.2" fill="#1d4ed8"/>
<circle cx="614.34" cy="369.08" r="3.2" fill="#1d4ed8"/>
<circle cx="616.92" cy="368.68" r="3.2" fill="#1d4ed8"/>
<circle cx="619.50" cy="368.27" r="3.2" fill="#1d4ed8"/>
<circle cx="622.09" cy="367.87" r="3.2" fill="#1d4ed8"/>
<circle cx="624.67" cy="367.06" r="3.2" fill="#1d4ed8"/>
<circle cx="627.25" cy="367.46" r="3.2" fill="#1d4ed8"/>
<circle cx="629.83" cy="367.06" r="3.2" fill="#1d4ed8"/>
<circle cx="632.42" cy="366.25" r="3.2" fill="#1d4ed8"/>
<circle cx="635.00" cy="368.27" r="3.2" fill="#1d4ed8"/>
<circle cx="637.58" cy="368.68" r="3.2" fill="#1d4ed8"/>
<circle cx="640.17" cy="368.68" r="3.2" fill="#1d4ed8"/>
<circle cx="642.75" cy="368.27" r="3.2" fill="#1d4ed8"/>
<circle cx="645.33" cy="369.08" r="3.2" fill="#1d4ed8"/>
<circle cx="647.91" cy="367.87" r="3.2" fill="#1d4ed8"/>
<circle cx="650.50" cy="367.46" r="3.2" fill="#1d4ed8"/>
<circle cx="653.08" cy="367.06" r="3.2" fill="#1d4ed8"/>
<circle cx="655.66" cy="360.18" r="3.2" fill="#1d4ed8"/>
<circle cx="658.25" cy="359.78" r="3.2" fill="#1d4ed8"/>
<circle cx="660.83" cy="359.38" r="3.2" fill="#1d4ed8"/>
<circle cx="663.41" cy="356.95" r="3.2" fill="#1d4ed8"/>
<circle cx="666.00" cy="357.35" r="3.2" fill="#1d4ed8"/>
<circle cx="668.58" cy="357.76" r="3.2" fill="#1d4ed8"/>
<circle cx="671.16" cy="355.33" r="3.2" fill="#1d4ed8"/>
<circle cx="673.74" cy="355.74" r="3.2" fill="#1d4ed8"/>
<circle cx="676.33" cy="357.35" r="3.2" fill="#1d4ed8"/>
<circle cx="678.91" cy="355.33" r="3.2" fill="#1d4ed8"/>
<circle cx="681.49" cy="356.14" r="3.2" fill="#1d4ed8"/>
<circle cx="684.08" cy="355.74" r="3.2" fill="#1d4ed8"/>
<circle cx="686.66" cy="356.14" r="3.2" fill="#1d4ed8"/>
<circle cx="689.24" cy="354.12" r="3.2" fill="#1d4ed8"/>
<circle cx="691.82" cy="354.93" r="3.2" fill="#1d4ed8"/>
<circle cx="694.41" cy="356.14" r="3.2" fill="#1d4ed8"/>
<circle cx="696.99" cy="354.52" r="3.2" fill="#1d4ed8"/>
<circle cx="699.57" cy="353.71" r="3.2" fill="#1d4ed8"/>
<circle cx="702.16" cy="354.12" r="3.2" fill="#1d4ed8"/>
<circle cx="704.74" cy="354.93" r="3.2" fill="#1d4ed8"/>
<circle cx="707.32" cy="352.90" r="3.2" fill="#1d4ed8"/>
<circle cx="709.91" cy="353.71" r="3.2" fill="#1d4ed8"/>
<circle cx="712.49" cy="353.31" r="3.2" fill="#1d4ed8"/>
<circle cx="715.07" cy="353.31" r="3.2" fill="#1d4ed8"/>
<circle cx="717.65" cy="354.52" r="3.2" fill="#1d4ed8"/>
<circle cx="720.24" cy="352.90" r="3.2" fill="#1d4ed8"/>
<circle cx="722.82" cy="352.50" r="3.2" fill="#1d4ed8"/>
<circle cx="725.40" cy="352.50" r="3.2" fill="#1d4ed8"/>
<circle cx="727.99" cy="353.31" r="3.2" fill="#1d4ed8"/>
<circle cx="730.57" cy="352.50" r="3.2" fill="#1d4ed8"/>
<circle cx="733.15" cy="353.71" r="3.2" fill="#1d4ed8"/>
<circle cx="735.73" cy="354.12" r="3.2" fill="#1d4ed8"/>
<circle cx="738.32" cy="352.50" r="3.2" fill="#1d4ed8"/>
<circle cx="740.90" cy="352.90" r="3.2" fill="#1d4ed8"/>
<circle cx="743.48" cy="352.50" r="3.2" fill="#1d4ed8"/>
<circle cx="746.07" cy="352.10" r="3.2" fill="#1d4ed8"/>
<circle cx="748.65" cy="351.69" r="3.2" fill="#1d4ed8"/>
<circle cx="751.23" cy="352.10" r="3.2" fill="#1d4ed8"/>
<circle cx="753.82" cy="354.12" r="3.2" fill="#1d4ed8"/>
<circle cx="756.40" cy="352.50" r="3.2" fill="#1d4ed8"/>
<circle cx="758.98" cy="352.10" r="3.2" fill="#1d4ed8"/>
<circle cx="761.56" cy="352.10" r="3.2" fill="#1d4ed8"/>
<circle cx="764.15" cy="349.67" r="3.2" fill="#1d4ed8"/>
<circle cx="766.73" cy="349.67" r="3.2" fill="#1d4ed8"/>
<circle cx="769.31" cy="350.88" r="3.2" fill="#1d4ed8"/>
<circle cx="771.90" cy="351.29" r="3.2" fill="#1d4ed8"/>
<circle cx="774.48" cy="350.48" r="3.2" fill="#1d4ed8"/>
<circle cx="777.06" cy="352.10" r="3.2" fill="#1d4ed8"/>
<circle cx="779.64" cy="350.48" r="3.2" fill="#1d4ed8"/>
<circle cx="782.23" cy="350.48" r="3.2" fill="#1d4ed8"/>
<circle cx="784.81" cy="350.48" r="3.2" fill="#1d4ed8"/>
<circle cx="787.39" cy="350.07" r="3.2" fill="#1d4ed8"/>
<circle cx="789.98" cy="348.46" r="3.2" fill="#1d4ed8"/>
<circle cx="792.56" cy="351.29" r="3.2" fill="#1d4ed8"/>
<circle cx="795.14" cy="349.67" r="3.2" fill="#1d4ed8"/>
<circle cx="797.73" cy="351.29" r="3.2" fill="#1d4ed8"/>
<circle cx="800.31" cy="349.67" r="3.2" fill="#1d4ed8"/>
<circle cx="802.89" cy="348.86" r="3.2" fill="#1d4ed8"/>
<circle cx="805.47" cy="348.46" r="3.2" fill="#1d4ed8"/>
<circle cx="808.06" cy="348.46" r="3.2" fill="#1d4ed8"/>
<circle cx="810.64" cy="347.24" r="3.2" fill="#1d4ed8"/>
<circle cx="813.22" cy="348.86" r="3.2" fill="#1d4ed8"/>
<circle cx="815.81" cy="346.84" r="3.2" fill="#1d4ed8"/>
<circle cx="818.39" cy="348.46" r="3.2" fill="#1d4ed8"/>
<circle cx="820.97" cy="348.86" r="3.2" fill="#1d4ed8"/>
<circle cx="823.55" cy="346.84" r="3.2" fill="#1d4ed8"/>
<circle cx="826.14" cy="349.26" r="3.2" fill="#1d4ed8"/>
<circle cx="828.72" cy="348.05" r="3.2" fill="#1d4ed8"/>
<circle cx="831.30" cy="349.26" r="3.2" fill="#1d4ed8"/>
<circle cx="833.89" cy="349.26" r="3.2" fill="#1d4ed8"/>
<circle cx="836.47" cy="350.48" r="3.2" fill="#1d4ed8"/>
<circle cx="839.05" cy="352.90" r="3.2" fill="#1d4ed8"/>
<circle cx="841.64" cy="349.67" r="3.2" fill="#1d4ed8"/>
<circle cx="844.22" cy="348.46" r="3.2" fill="#1d4ed8"/>
<circle cx="846.80" cy="345.62" r="3.2" fill="#1d4ed8"/>
<circle cx="849.38" cy="344.82" r="3.2" fill="#1d4ed8"/>
<circle cx="851.97" cy="344.41" r="3.2" fill="#1d4ed8"/>
<circle cx="854.55" cy="342.39" r="3.2" fill="#1d4ed8"/>
<circle cx="857.13" cy="341.18" r="3.2" fill="#1d4ed8"/>
<circle cx="859.72" cy="341.58" r="3.2" fill="#1d4ed8"/>
<circle cx="862.30" cy="339.15" r="3.2" fill="#1d4ed8"/>
<circle cx="864.88" cy="338.35" r="3.2" fill="#1d4ed8"/>
<circle cx="867.46" cy="337.54" r="3.2" fill="#1d4ed8"/>
<circle cx="870.05" cy="336.73" r="3.2" fill="#1d4ed8"/>
<circle cx="872.63" cy="335.92" r="3.2" fill="#1d4ed8"/>
<circle cx="875.21" cy="337.54" r="3.2" fill="#1d4ed8"/>
<circle cx="877.80" cy="338.35" r="3.2" fill="#1d4ed8"/>
<circle cx="880.38" cy="337.54" r="3.2" fill="#1d4ed8"/>
<circle cx="882.96" cy="337.54" r="3.2" fill="#1d4ed8"/>
<circle cx="885.55" cy="337.54" r="3.2" fill="#1d4ed8"/>
<circle cx="888.13" cy="333.09" r="3.2" fill="#1d4ed8"/>
<circle cx="890.71" cy="333.90" r="3.2" fill="#1d4ed8"/>
<circle cx="893.29" cy="335.92" r="3.2" fill="#1d4ed8"/>
<circle cx="895.88" cy="336.73" r="3.2" fill="#1d4ed8"/>
<circle cx="898.46" cy="335.51" r="3.2" fill="#1d4ed8"/>
<circle cx="901.04" cy="332.28" r="3.2" fill="#1d4ed8"/>
<circle cx="903.63" cy="331.47" r="3.2" fill="#1d4ed8"/>
<circle cx="906.21" cy="331.07" r="3.2" fill="#1d4ed8"/>
<circle cx="908.79" cy="331.47" r="3.2" fill="#1d4ed8"/>
<circle cx="911.37" cy="331.07" r="3.2" fill="#1d4ed8"/>
<circle cx="913.96" cy="331.07" r="3.2" fill="#1d4ed8"/>
<circle cx="916.54" cy="331.07" r="3.2" fill="#1d4ed8"/>
<circle cx="919.12" cy="331.07" r="3.2" fill="#1d4ed8"/>
<circle cx="921.71" cy="331.07" r="3.2" fill="#1d4ed8"/>
<circle cx="924.29" cy="331.07" r="3.2" fill="#1d4ed8"/>
<circle cx="926.87" cy="331.07" r="3.2" fill="#1d4ed8"/>
<circle cx="929.45" cy="331.07" r="3.2" fill="#1d4ed8"/>
<circle cx="932.04" cy="331.07" r="3.2" fill="#1d4ed8"/>
<circle cx="934.62" cy="331.07" r="3.2" fill="#1d4ed8"/>
<circle cx="937.20" cy="331.47" r="3.2" fill="#1d4ed8"/>
<circle cx="939.79" cy="331.88" r="3.2" fill="#1d4ed8"/>
<circle cx="942.37" cy="331.07" r="3.2" fill="#1d4ed8"/>
<circle cx="944.95" cy="331.47" r="3.2" fill="#1d4ed8"/>
<circle cx="947.54" cy="331.07" r="3.2" fill="#1d4ed8"/>
<circle cx="950.12" cy="331.47" r="3.2" fill="#1d4ed8"/>
<circle cx="952.70" cy="331.07" r="3.2" fill="#1d4ed8"/>
<circle cx="955.28" cy="324.19" r="3.2" fill="#1d4ed8"/>
<circle cx="957.87" cy="324.19" r="3.2" fill="#1d4ed8"/>
<circle cx="960.45" cy="318.93" r="3.2" fill="#1d4ed8"/>
<circle cx="963.03" cy="316.51" r="3.2" fill="#1d4ed8"/>
<circle cx="965.62" cy="310.44" r="3.2" fill="#1d4ed8"/>
<circle cx="968.20" cy="308.01" r="3.2" fill="#1d4ed8"/>
<circle cx="970.78" cy="600.00" r="3.2" fill="#1d4ed8"/>
<circle cx="973.36" cy="301.54" r="3.2" fill="#1d4ed8"/>
<circle cx="975.95" cy="290.22" r="3.2" fill="#1d4ed8"/>
<circle cx="978.53" cy="287.79" r="3.2" fill="#1d4ed8"/>
<circle cx="981.11" cy="286.18" r="3.2" fill="#1d4ed8"/>
<circle cx="983.70" cy="285.77" r="3.2" fill="#1d4ed8"/>
<circle cx="986.28" cy="285.77" r="3.2" fill="#1d4ed8"/>
<circle cx="988.86" cy="285.77" r="3.2" fill="#1d4ed8"/>
<circle cx="991.45" cy="286.18" r="3.2" fill="#1d4ed8"/>
<circle cx="994.03" cy="285.77" r="3.2" fill="#1d4ed8"/>
<circle cx="996.61" cy="285.77" r="3.2" fill="#1d4ed8"/>
<circle cx="999.19" cy="285.77" r="3.2" fill="#1d4ed8"/>
<circle cx="1001.78" cy="283.35" r="3.2" fill="#1d4ed8"/>
<circle cx="1004.36" cy="282.94" r="3.2" fill="#1d4ed8"/>
<circle cx="1006.94" cy="282.94" r="3.2" fill="#1d4ed8"/>
<circle cx="1009.53" cy="283.35" r="3.2" fill="#1d4ed8"/>
<circle cx="1012.11" cy="282.94" r="3.2" fill="#1d4ed8"/>
<circle cx="1014.69" cy="282.94" r="3.2" fill="#1d4ed8"/>
<circle cx="1017.27" cy="283.75" r="3.2" fill="#1d4ed8"/>
<circle cx="1019.86" cy="282.13" r="3.2" fill="#1d4ed8"/>
<circle cx="1022.44" cy="282.13" r="3.2" fill="#1d4ed8"/>
<circle cx="1025.02" cy="282.54" r="3.2" fill="#1d4ed8"/>
<circle cx="1027.61" cy="282.13" r="3.2" fill="#1d4ed8"/>
<circle cx="1030.19" cy="282.54" r="3.2" fill="#1d4ed8"/>
<circle cx="1032.77" cy="282.94" r="3.2" fill="#1d4ed8"/>
<circle cx="1035.36" cy="281.73" r="3.2" fill="#1d4ed8"/>
<circle cx="1037.94" cy="282.54" r="3.2" fill="#1d4ed8"/>
<circle cx="1040.52" cy="281.73" r="3.2" fill="#1d4ed8"/>
<circle cx="1043.10" cy="282.54" r="3.2" fill="#1d4ed8"/>
<circle cx="1045.69" cy="282.13" r="3.2" fill="#1d4ed8"/>
<circle cx="1048.27" cy="282.13" r="3.2" fill="#1d4ed8"/>
<circle cx="1050.85" cy="281.73" r="3.2" fill="#1d4ed8"/>
<circle cx="1053.44" cy="281.73" r="3.2" fill="#1d4ed8"/>
<circle cx="1056.02" cy="281.32" r="3.2" fill="#1d4ed8"/>
<circle cx="1058.60" cy="281.73" r="3.2" fill="#1d4ed8"/>
<circle cx="1061.18" cy="282.13" r="3.2" fill="#1d4ed8"/>
<circle cx="1063.77" cy="281.32" r="3.2" fill="#1d4ed8"/>
<circle cx="1066.35" cy="281.32" r="3.2" fill="#1d4ed8"/>
<circle cx="1068.93" cy="282.54" r="3.2" fill="#1d4ed8"/>
<circle cx="1071.52" cy="282.13" r="3.2" fill="#1d4ed8"/>
<circle cx="1074.10" cy="281.32" r="3.2" fill="#1d4ed8"/>
<circle cx="1076.68" cy="281.32" r="3.2" fill="#1d4ed8"/>
<circle cx="1079.27" cy="281.32" r="3.2" fill="#1d4ed8"/>
<circle cx="1081.85" cy="282.54" r="3.2" fill="#1d4ed8"/>
<circle cx="1084.43" cy="282.13" r="3.2" fill="#1d4ed8"/>
<circle cx="1087.01" cy="281.32" r="3.2" fill="#1d4ed8"/>
<circle cx="1089.60" cy="282.13" r="3.2" fill="#1d4ed8"/>
<circle cx="1092.18" cy="281.73" r="3.2" fill="#1d4ed8"/>
<circle cx="1094.76" cy="282.13" r="3.2" fill="#1d4ed8"/>
<circle cx="1097.35" cy="280.11" r="3.2" fill="#1d4ed8"/>
<circle cx="1099.93" cy="280.11" r="3.2" fill="#1d4ed8"/>
<circle cx="1102.51" cy="280.51" r="3.2" fill="#1d4ed8"/>
<circle cx="1105.09" cy="279.71" r="3.2" fill="#1d4ed8"/>
<circle cx="1107.68" cy="280.11" r="3.2" fill="#1d4ed8"/>
<circle cx="1110.26" cy="280.51" r="3.2" fill="#1d4ed8"/>
<circle cx="1112.84" cy="279.71" r="3.2" fill="#1d4ed8"/>
<circle cx="1115.43" cy="280.11" r="3.2" fill="#1d4ed8"/>
<circle cx="1118.01" cy="280.11" r="3.2" fill="#1d4ed8"/>
<circle cx="1120.59" cy="279.30" r="3.2" fill="#1d4ed8"/>
<circle cx="1123.18" cy="278.90" r="3.2" fill="#1d4ed8"/>
<circle cx="1125.76" cy="278.90" r="3.2" fill="#1d4ed8"/>
<circle cx="1128.34" cy="280.51" r="3.2" fill="#1d4ed8"/>
<circle cx="1130.92" cy="279.30" r="3.2" fill="#1d4ed8"/>
<circle cx="1133.51" cy="278.09" r="3.2" fill="#1d4ed8"/>
<circle cx="1136.09" cy="278.49" r="3.2" fill="#1d4ed8"/>
<circle cx="1138.67" cy="278.49" r="3.2" fill="#1d4ed8"/>
<circle cx="1141.26" cy="277.28" r="3.2" fill="#1d4ed8"/>
<circle cx="1143.84" cy="277.68" r="3.2" fill="#1d4ed8"/>
<circle cx="1146.42" cy="277.68" r="3.2" fill="#1d4ed8"/>
<circle cx="1149.00" cy="278.09" r="3.2" fill="#1d4ed8"/>
<circle cx="1151.59" cy="277.28" r="3.2" fill="#1d4ed8"/>
<circle cx="1154.17" cy="600.00" r="3.2" fill="#1d4ed8"/>
<circle cx="1156.75" cy="278.90" r="3.2" fill="#1d4ed8"/>
<circle cx="1159.34" cy="279.30" r="3.2" fill="#1d4ed8"/>
<circle cx="1161.92" cy="278.90" r="3.2" fill="#1d4ed8"/>
<circle cx="1164.50" cy="278.49" r="3.2" fill="#1d4ed8"/>
<circle cx="1167.09" cy="278.49" r="3.2" fill="#1d4ed8"/>
<circle cx="1169.67" cy="278.49" r="3.2" fill="#1d4ed8"/>
<circle cx="1172.25" cy="278.49" r="3.2" fill="#1d4ed8"/>
<circle cx="1174.83" cy="278.49" r="3.2" fill="#1d4ed8"/>
<circle cx="1177.42" cy="278.49" r="3.2" fill="#1d4ed8"/>
<circle cx="1180.00" cy="278.49" r="3.2" fill="#1d4ed8"/>
<text x="635" y="695" text-anchor="middle" font-size="14" fill="#111" font-family="sans-serif">Date</text>
<text x="24" y="325" text-anchor="middle" font-size="14" fill="#111" transform="rotate(-90 24,325)" font-family="sans-serif">Passed files</text>
</svg>
