<?xml version="1.0" encoding="UTF-8"?>
<svg xmlns="http://www.w3.org/2000/svg" width="1280" height="720" viewBox="0 0 1280 720">
<rect width="100%" height="100%" fill="#ffffff"/>
<text x="640" y="30" text-anchor="middle" font-size="22" font-family="sans-serif">Roast passed files history</text>
<line x1="90" y1="600" x2="1180" y2="600" stroke="#333" stroke-width="1.5"/>
<line x1="90" y1="50" x2="90" y2="600" stroke="#333" stroke-width="1.5"/>
<line x1="90" y1="600.00" x2="1180" y2="600.00" stroke="#e5e7eb" stroke-width="1"/>
<text x="78" y="605.00" text-anchor="end" font-size="12" fill="#111" font-family="sans-serif">0</text>
<line x1="90" y1="397.79" x2="1180" y2="397.79" stroke="#e5e7eb" stroke-width="1"/>
<text x="78" y="402.79" text-anchor="end" font-size="12" fill="#111" font-family="sans-serif">500</text>
<line x1="90" y1="195.59" x2="1180" y2="195.59" stroke="#e5e7eb" stroke-width="1"/>
<text x="78" y="200.59" text-anchor="end" font-size="12" fill="#111" font-family="sans-serif">1000</text>
<line x1="90.00" y1="600" x2="90.00" y2="606" stroke="#333" stroke-width="1"/>
<text x="90.00" y="624" text-anchor="end" font-size="11" fill="#111" transform="rotate(-40 90.00,624)" font-family="sans-serif">2026-02-12</text>
<line x1="224.15" y1="600" x2="224.15" y2="606" stroke="#333" stroke-width="1"/>
<text x="224.15" y="624" text-anchor="end" font-size="11" fill="#111" transform="rotate(-40 224.15,624)" font-family="sans-serif">2026-02-17</text>
<line x1="358.31" y1="600" x2="358.31" y2="606" stroke="#333" stroke-width="1"/>
<text x="358.31" y="624" text-anchor="end" font-size="11" fill="#111" transform="rotate(-40 358.31,624)" font-family="sans-serif">2026-02-20</text>
<line x1="492.46" y1="600" x2="492.46" y2="606" stroke="#333" stroke-width="1"/>
<text x="492.46" y="624" text-anchor="end" font-size="11" fill="#111" transform="rotate(-40 492.46,624)" font-family="sans-serif">2026-02-25</text>
<line x1="626.62" y1="600" x2="626.62" y2="606" stroke="#333" stroke-width="1"/>
<text x="626.62" y="624" text-anchor="end" font-size="11" fill="#111" transform="rotate(-40 626.62,624)" font-family="sans-serif">2026-02-27</text>
<line x1="760.77" y1="600" x2="760.77" y2="606" stroke="#333" stroke-width="1"/>
<text x="760.77" y="624" text-anchor="end" font-size="11" fill="#111" transform="rotate(-40 760.77,624)" font-family="sans-serif">2026-03-01</text>
<line x1="894.92" y1="600" x2="894.92" y2="606" stroke="#333" stroke-width="1"/>
<text x="894.92" y="624" text-anchor="end" font-size="11" fill="#111" transform="rotate(-40 894.92,624)" font-family="sans-serif">2026-03-06</text>
<line x1="1029.08" y1="600" x2="1029.08" y2="606" stroke="#333" stroke-width="1"/>
<text x="1029.08" y="624" text-anchor="end" font-size="11" fill="#111" transform="rotate(-40 1029.08,624)" font-family="sans-serif">2026-03-07</text>
<line x1="1163.23" y1="600" x2="1163.23" y2="606" stroke="#333" stroke-width="1"/>
<text x="1163.23" y="624" text-anchor="end" font-size="11" fill="#111" transform="rotate(-40 1163.23,624)" font-family="sans-serif">2026-03-11</text>
<line x1="1180.00" y1="600" x2="1180.00" y2="606" stroke="#333" stroke-width="1"/>
<text x="1180.00" y="624" text-anchor="end" font-size="11" fill="#111" transform="rotate(-40 1180.00,624)" font-family="sans-serif">2026-03-11</text>
<line x1="90" y1="75.88" x2="1180" y2="75.88" stroke="#dc2626" stroke-width="1.5" stroke-dasharray="8,4"/>
<text x="1184" y="79.88" font-size="12" fill="#dc2626" font-family="sans-serif">Goal: 1296</text>
<polyline fill="none" stroke="#2563eb" stroke-width="3" points="90.00,540.55 93.35,538.53 96.71,536.91 100.06,534.49 103.42,534.49 106.77,533.27 110.12,532.46 113.48,532.87 116.83,532.06 120.18,532.46 123.54,532.06 126.89,568.46 130.25,568.46 133.60,566.43 136.95,545.00 140.31,545.00 143.66,544.19 147.02,543.79 150.37,543.79 153.72,543.38 157.08,541.76 160.43,541.36 163.78,540.96 167.14,540.96 170.49,539.34 173.85,539.34 177.20,556.73 180.55,556.73 183.91,555.51 187.26,551.07 190.62,538.93 193.97,538.93 197.32,538.93 200.68,538.12 204.03,536.91 207.38,536.91 210.74,536.51 214.09,536.51 217.45,556.73 220.80,556.73 224.15,556.73 227.51,556.73 230.86,535.29 234.22,535.29 237.57,535.29 240.92,535.29 244.28,534.49 247.63,534.08 250.98,533.68 254.34,532.87 257.69,532.06 261.05,532.06 264.40,531.25 267.75,530.85 271.11,530.44 274.46,530.04 277.82,530.04 281.17,529.23 284.52,529.23 287.88,529.23 291.23,528.42 294.58,528.42 297.94,527.61 301.29,527.21 304.65,526.80 308.00,526.40 311.35,525.18 314.71,523.57 318.06,523.57 321.42,523.16 324.77,522.76 328.12,522.35 331.48,521.54 334.83,519.52 338.18,517.50 341.54,517.50 344.89,517.50 348.25,517.50 351.60,517.50 354.95,517.50 358.31,517.10 361.66,516.69 365.02,515.48 368.37,515.07 371.72,514.67 375.08,513.86 378.43,514.26 381.78,512.24 385.14,511.84 388.49,511.84 391.85,511.03 395.20,509.82 398.55,507.79 401.91,506.99 405.26,506.58 408.62,509.41 411.97,509.01 415.32,504.96 418.68,504.56 422.03,504.15 425.38,504.56 428.74,503.75 432.09,503.75 435.45,503.35 438.80,499.30 442.15,496.47 445.51,490.00 448.86,484.34 452.22,481.10 455.57,480.29 458.92,480.70 462.28,460.88 465.63,459.26 468.98,458.05 472.34,456.03 475.69,456.03 479.05,454.41 482.40,450.77 485.75,444.30 489.11,443.90 492.46,600.00 495.82,441.88 499.17,440.66 502.52,439.45 505.88,439.04 509.23,438.64 512.58,437.83 515.94,436.62 519.29,436.62 522.65,434.60 526.00,432.17 529.35,429.34 532.71,428.93 536.06,428.53 539.42,427.72 542.77,426.91 546.12,426.10 549.48,426.10 552.83,426.10 556.18,419.63 559.54,419.23 562.89,418.42 566.25,418.01 569.60,417.61 572.95,417.61 576.31,417.61 579.66,417.21 583.02,417.21 586.37,413.57 589.72,411.95 593.08,412.76 596.43,410.74 599.78,410.74 603.14,410.33 606.49,410.33 609.85,410.33 613.20,409.93 616.55,409.93 619.91,409.93 623.26,409.52 626.62,409.52 629.97,409.12 633.32,409.52 636.68,409.12 640.03,407.50 643.38,407.10 646.74,403.05 650.09,399.82 653.45,400.22 656.80,400.62 660.15,400.62 663.51,399.41 666.86,392.94 670.22,391.32 673.57,389.30 676.92,389.30 680.28,388.49 683.63,375.15 686.98,374.74 690.34,374.74 693.69,374.74 697.05,374.74 700.40,374.34 703.75,374.34 707.11,374.34 710.46,374.34 713.82,374.34 717.17,373.93 720.52,373.12 723.88,372.72 727.23,373.53 730.58,435.81 733.94,372.32 737.29,372.72 740.65,371.91 744.00,371.91 747.35,372.32 750.71,371.10 754.06,369.89 757.42,369.89 760.77,369.89 764.12,369.49 767.48,369.89 770.83,369.08 774.18,368.68 777.54,368.27 780.89,367.87 784.25,367.06 787.60,367.46 790.95,367.06 794.31,366.25 797.66,368.27 801.02,368.68 804.37,368.68 807.72,368.27 811.08,369.08 814.43,367.87 817.78,367.46 821.14,367.06 824.49,360.18 827.85,359.78 831.20,359.38 834.55,356.95 837.91,357.35 841.26,357.76 844.62,355.33 847.97,355.74 851.32,357.35 854.68,355.33 858.03,356.14 861.38,355.74 864.74,356.14 868.09,354.12 871.45,354.93 874.80,356.14 878.15,354.52 881.51,353.71 884.86,354.12 888.22,354.93 891.57,352.90 894.92,353.71 898.28,353.31 901.63,353.31 904.98,354.52 908.34,352.90 911.69,352.50 915.05,352.50 918.40,353.31 921.75,352.50 925.11,353.71 928.46,354.12 931.82,352.50 935.17,352.90 938.52,352.50 941.88,352.10 945.23,351.69 948.58,352.10 951.94,354.12 955.29,352.50 958.65,352.10 962.00,352.10 965.35,349.67 968.71,349.67 972.06,350.88 975.42,351.29 978.77,350.48 982.12,352.10 985.48,350.48 988.83,350.48 992.18,350.48 995.54,350.07 998.89,348.46 1002.25,351.29 1005.60,349.67 1008.95,351.29 1012.31,349.67 1015.66,348.86 1019.02,348.46 1022.37,348.46 1025.72,347.24 1029.08,348.86 1032.43,346.84 1035.78,348.46 1039.14,348.86 1042.49,346.84 1045.85,349.26 1049.20,348.05 1052.55,349.26 1055.91,349.26 1059.26,350.48 1062.62,352.90 1065.97,349.67 1069.32,348.46 1072.68,345.62 1076.03,344.82 1079.38,344.41 1082.74,342.39 1086.09,341.18 1089.45,341.58 1092.80,339.15 1096.15,338.35 1099.51,337.54 1102.86,336.73 1106.22,335.92 1109.57,337.54 1112.92,338.35 1116.28,337.54 1119.63,337.54 1122.98,337.54 1126.34,333.09 1129.69,333.90 1133.05,335.92 1136.40,336.73 1139.75,335.51 1143.11,332.28 1146.46,331.47 1149.82,331.07 1153.17,331.47 1156.52,331.07 1159.88,331.07 1163.23,331.07 1166.58,331.07 1169.94,331.07 1173.29,331.07 1176.65,331.07 1180.00,331.07"/>
<circle cx="90.00" cy="540.55" r="3.2" fill="#1d4ed8"/>
<circle cx="93.35" cy="538.53" r="3.2" fill="#1d4ed8"/>
<circle cx="96.71" cy="536.91" r="3.2" fill="#1d4ed8"/>
<circle cx="100.06" cy="534.49" r="3.2" fill="#1d4ed8"/>
<circle cx="103.42" cy="534.49" r="3.2" fill="#1d4ed8"/>
<circle cx="106.77" cy="533.27" r="3.2" fill="#1d4ed8"/>
<circle cx="110.12" cy="532.46" r="3.2" fill="#1d4ed8"/>
<circle cx="113.48" cy="532.87" r="3.2" fill="#1d4ed8"/>
<circle cx="116.83" cy="532.06" r="3.2" fill="#1d4ed8"/>
<circle cx="120.18" cy="532.46" r="3.2" fill="#1d4ed8"/>
<circle cx="123.54" cy="532.06" r="3.2" fill="#1d4ed8"/>
<circle cx="126.89" cy="568.46" r="3.2" fill="#1d4ed8"/>
<circle cx="130.25" cy="568.46" r="3.2" fill="#1d4ed8"/>
<circle cx="133.60" cy="566.43" r="3.2" fill="#1d4ed8"/>
<circle cx="136.95" cy="545.00" r="3.2" fill="#1d4ed8"/>
<circle cx="140.31" cy="545.00" r="3.2" fill="#1d4ed8"/>
<circle cx="143.66" cy="544.19" r="3.2" fill="#1d4ed8"/>
<circle cx="147.02" cy="543.79" r="3.2" fill="#1d4ed8"/>
<circle cx="150.37" cy="543.79" r="3.2" fill="#1d4ed8"/>
<circle cx="153.72" cy="543.38" r="3.2" fill="#1d4ed8"/>
<circle cx="157.08" cy="541.76" r="3.2" fill="#1d4ed8"/>
<circle cx="160.43" cy="541.36" r="3.2" fill="#1d4ed8"/>
<circle cx="163.78" cy="540.96" r="3.2" fill="#1d4ed8"/>
<circle cx="167.14" cy="540.96" r="3.2" fill="#1d4ed8"/>
<circle cx="170.49" cy="539.34" r="3.2" fill="#1d4ed8"/>
<circle cx="173.85" cy="539.34" r="3.2" fill="#1d4ed8"/>
<circle cx="177.20" cy="556.73" r="3.2" fill="#1d4ed8"/>
<circle cx="180.55" cy="556.73" r="3.2" fill="#1d4ed8"/>
<circle cx="183.91" cy="555.51" r="3.2" fill="#1d4ed8"/>
<circle cx="187.26" cy="551.07" r="3.2" fill="#1d4ed8"/>
<circle cx="190.62" cy="538.93" r="3.2" fill="#1d4ed8"/>
<circle cx="193.97" cy="538.93" r="3.2" fill="#1d4ed8"/>
<circle cx="197.32" cy="538.93" r="3.2" fill="#1d4ed8"/>
<circle cx="200.68" cy="538.12" r="3.2" fill="#1d4ed8"/>
<circle cx="204.03" cy="536.91" r="3.2" fill="#1d4ed8"/>
<circle cx="207.38" cy="536.91" r="3.2" fill="#1d4ed8"/>
<circle cx="210.74" cy="536.51" r="3.2" fill="#1d4ed8"/>
<circle cx="214.09" cy="536.51" r="3.2" fill="#1d4ed8"/>
<circle cx="217.45" cy="556.73" r="3.2" fill="#1d4ed8"/>
<circle cx="220.80" cy="556.73" r="3.2" fill="#1d4ed8"/>
<circle cx="224.15" cy="556.73" r="3.2" fill="#1d4ed8"/>
<circle cx="227.51" cy="556.73" r="3.2" fill="#1d4ed8"/>
<circle cx="230.86" cy="535.29" r="3.2" fill="#1d4ed8"/>
<circle cx="234.22" cy="535.29" r="3.2" fill="#1d4ed8"/>
<circle cx="237.57" cy="535.29" r="3.2" fill="#1d4ed8"/>
<circle cx="240.92" cy="535.29" r="3.2" fill="#1d4ed8"/>
<circle cx="244.28" cy="534.49" r="3.2" fill="#1d4ed8"/>
<circle cx="247.63" cy="534.08" r="3.2" fill="#1d4ed8"/>
<circle cx="250.98" cy="533.68" r="3.2" fill="#1d4ed8"/>
<circle cx="254.34" cy="532.87" r="3.2" fill="#1d4ed8"/>
<circle cx="257.69" cy="532.06" r="3.2" fill="#1d4ed8"/>
<circle cx="261.05" cy="532.06" r="3.2" fill="#1d4ed8"/>
<circle cx="264.40" cy="531.25" r="3.2" fill="#1d4ed8"/>
<circle cx="267.75" cy="530.85" r="3.2" fill="#1d4ed8"/>
<circle cx="271.11" cy="530.44" r="3.2" fill="#1d4ed8"/>
<circle cx="274.46" cy="530.04" r="3.2" fill="#1d4ed8"/>
<circle cx="277.82" cy="530.04" r="3.2" fill="#1d4ed8"/>
<circle cx="281.17" cy="529.23" r="3.2" fill="#1d4ed8"/>
<circle cx="284.52" cy="529.23" r="3.2" fill="#1d4ed8"/>
<circle cx="287.88" cy="529.23" r="3.2" fill="#1d4ed8"/>
<circle cx="291.23" cy="528.42" r="3.2" fill="#1d4ed8"/>
<circle cx="294.58" cy="528.42" r="3.2" fill="#1d4ed8"/>
<circle cx="297.94" cy="527.61" r="3.2" fill="#1d4ed8"/>
<circle cx="301.29" cy="527.21" r="3.2" fill="#1d4ed8"/>
<circle cx="304.65" cy="526.80" r="3.2" fill="#1d4ed8"/>
<circle cx="308.00" cy="526.40" r="3.2" fill="#1d4ed8"/>
<circle cx="311.35" cy="525.18" r="3.2" fill="#1d4ed8"/>
<circle cx="314.71" cy="523.57" r="3.2" fill="#1d4ed8"/>
<circle cx="318.06" cy="523.57" r="3.2" fill="#1d4ed8"/>
<circle cx="321.42" cy="523.16" r="3.2" fill="#1d4ed8"/>
<circle cx="324.77" cy="522.76" r="3.2" fill="#1d4ed8"/>
<circle cx="328.12" cy="522.35" r="3.2" fill="#1d4ed8"/>
<circle cx="331.48" cy="521.54" r="3.2" fill="#1d4ed8"/>
<circle cx="334.83" cy="519.52" r="3.2" fill="#1d4ed8"/>
<circle cx="338.18" cy="517.50" r="3.2" fill="#1d4ed8"/>
<circle cx="341.54" cy="517.50" r="3.2" fill="#1d4ed8"/>
<circle cx="344.89" cy="517.50" r="3.2" fill="#1d4ed8"/>
<circle cx="348.25" cy="517.50" r="3.2" fill="#1d4ed8"/>
<circle cx="351.60" cy="517.50" r="3.2" fill="#1d4ed8"/>
<circle cx="354.95" cy="517.50" r="3.2" fill="#1d4ed8"/>
<circle cx="358.31" cy="517.10" r="3.2" fill="#1d4ed8"/>
<circle cx="361.66" cy="516.69" r="3.2" fill="#1d4ed8"/>
<circle cx="365.02" cy="515.48" r="3.2" fill="#1d4ed8"/>
<circle cx="368.37" cy="515.07" r="3.2" fill="#1d4ed8"/>
<circle cx="371.72" cy="514.67" r="3.2" fill="#1d4ed8"/>
<circle cx="375.08" cy="513.86" r="3.2" fill="#1d4ed8"/>
<circle cx="378.43" cy="514.26" r="3.2" fill="#1d4ed8"/>
<circle cx="381.78" cy="512.24" r="3.2" fill="#1d4ed8"/>
<circle cx="385.14" cy="511.84" r="3.2" fill="#1d4ed8"/>
<circle cx="388.49" cy="511.84" r="3.2" fill="#1d4ed8"/>
<circle cx="391.85" cy="511.03" r="3.2" fill="#1d4ed8"/>
<circle cx="395.20" cy="509.82" r="3.2" fill="#1d4ed8"/>
<circle cx="398.55" cy="507.79" r="3.2" fill="#1d4ed8"/>
<circle cx="401.91" cy="506.99" r="3.2" fill="#1d4ed8"/>
<circle cx="405.26" cy="506.58" r="3.2" fill="#1d4ed8"/>
<circle cx="408.62" cy="509.41" r="3.2" fill="#1d4ed8"/>
<circle cx="411.97" cy="509.01" r="3.2" fill="#1d4ed8"/>
<circle cx="415.32" cy="504.96" r="3.2" fill="#1d4ed8"/>
<circle cx="418.68" cy="504.56" r="3.2" fill="#1d4ed8"/>
<circle cx="422.03" cy="504.15" r="3.2" fill="#1d4ed8"/>
<circle cx="425.38" cy="504.56" r="3.2" fill="#1d4ed8"/>
<circle cx="428.74" cy="503.75" r="3.2" fill="#1d4ed8"/>
<circle cx="432.09" cy="503.75" r="3.2" fill="#1d4ed8"/>
<circle cx="435.45" cy="503.35" r="3.2" fill="#1d4ed8"/>
<circle cx="438.80" cy="499.30" r="3.2" fill="#1d4ed8"/>
<circle cx="442.15" cy="496.47" r="3.2" fill="#1d4ed8"/>
<circle cx="445.51" cy="490.00" r="3.2" fill="#1d4ed8"/>
<circle cx="448.86" cy="484.34" r="3.2" fill="#1d4ed8"/>
<circle cx="452.22" cy="481.10" r="3.2" fill="#1d4ed8"/>
<circle cx="455.57" cy="480.29" r="3.2" fill="#1d4ed8"/>
<circle cx="458.92" cy="480.70" r="3.2" fill="#1d4ed8"/>
<circle cx="462.28" cy="460.88" r="3.2" fill="#1d4ed8"/>
<circle cx="465.63" cy="459.26" r="3.2" fill="#1d4ed8"/>
<circle cx="468.98" cy="458.05" r="3.2" fill="#1d4ed8"/>
<circle cx="472.34" cy="456.03" r="3.2" fill="#1d4ed8"/>
<circle cx="475.69" cy="456.03" r="3.2" fill="#1d4ed8"/>
<circle cx="479.05" cy="454.41" r="3.2" fill="#1d4ed8"/>
<circle cx="482.40" cy="450.77" r="3.2" fill="#1d4ed8"/>
<circle cx="485.75" cy="444.30" r="3.2" fill="#1d4ed8"/>
<circle cx="489.11" cy="443.90" r="3.2" fill="#1d4ed8"/>
<circle cx="492.46" cy="600.00" r="3.2" fill="#1d4ed8"/>
<circle cx="495.82" cy="441.88" r="3.2" fill="#1d4ed8"/>
<circle cx="499.17" cy="440.66" r="3.2" fill="#1d4ed8"/>
<circle cx="502.52" cy="439.45" r="3.2" fill="#1d4ed8"/>
<circle cx="505.88" cy="439.04" r="3.2" fill="#1d4ed8"/>
<circle cx="509.23" cy="438.64" r="3.2" fill="#1d4ed8"/>
<circle cx="512.58" cy="437.83" r="3.2" fill="#1d4ed8"/>
<circle cx="515.94" cy="436.62" r="3.2" fill="#1d4ed8"/>
<circle cx="519.29" cy="436.62" r="3.2" fill="#1d4ed8"/>
<circle cx="522.65" cy="434.60" r="3.2" fill="#1d4ed8"/>
<circle cx="526.00" cy="432.17" r="3.2" fill="#1d4ed8"/>
<circle cx="529.35" cy="429.34" r="3.2" fill="#1d4ed8"/>
<circle cx="532.71" cy="428.93" r="3.2" fill="#1d4ed8"/>
<circle cx="536.06" cy="428.53" r="3.2" fill="#1d4ed8"/>
<circle cx="539.42" cy="427.72" r="3.2" fill="#1d4ed8"/>
<circle cx="542.77" cy="426.91" r="3.2" fill="#1d4ed8"/>
<circle cx="546.12" cy="426.10" r="3.2" fill="#1d4ed8"/>
<circle cx="549.48" cy="426.10" r="3.2" fill="#1d4ed8"/>
<circle cx="552.83" cy="426.10" r="3.2" fill="#1d4ed8"/>
<circle cx="556.18" cy="419.63" r="3.2" fill="#1d4ed8"/>
<circle cx="559.54" cy="419.23" r="3.2" fill="#1d4ed8"/>
<circle cx="562.89" cy="418.42" r="3.2" fill="#1d4ed8"/>
<circle cx="566.25" cy="418.01" r="3.2" fill="#1d4ed8"/>
<circle cx="569.60" cy="417.61" r="3.2" fill="#1d4ed8"/>
<circle cx="572.95" cy="417.61" r="3.2" fill="#1d4ed8"/>
<circle cx="576.31" cy="417.61" r="3.2" fill="#1d4ed8"/>
<circle cx="579.66" cy="417.21" r="3.2" fill="#1d4ed8"/>
<circle cx="583.02" cy="417.21" r="3.2" fill="#1d4ed8"/>
<circle cx="586.37" cy="413.57" r="3.2" fill="#1d4ed8"/>
<circle cx="589.72" cy="411.95" r="3.2" fill="#1d4ed8"/>
<circle cx="593.08" cy="412.76" r="3.2" fill="#1d4ed8"/>
<circle cx="596.43" cy="410.74" r="3.2" fill="#1d4ed8"/>
<circle cx="599.78" cy="410.74" r="3.2" fill="#1d4ed8"/>
<circle cx="603.14" cy="410.33" r="3.2" fill="#1d4ed8"/>
<circle cx="606.49" cy="410.33" r="3.2" fill="#1d4ed8"/>
<circle cx="609.85" cy="410.33" r="3.2" fill="#1d4ed8"/>
<circle cx="613.20" cy="409.93" r="3.2" fill="#1d4ed8"/>
<circle cx="616.55" cy="409.93" r="3.2" fill="#1d4ed8"/>
<circle cx="619.91" cy="409.93" r="3.2" fill="#1d4ed8"/>
<circle cx="623.26" cy="409.52" r="3.2" fill="#1d4ed8"/>
<circle cx="626.62" cy="409.52" r="3.2" fill="#1d4ed8"/>
<circle cx="629.97" cy="409.12" r="3.2" fill="#1d4ed8"/>
<circle cx="633.32" cy="409.52" r="3.2" fill="#1d4ed8"/>
<circle cx="636.68" cy="409.12" r="3.2" fill="#1d4ed8"/>
<circle cx="640.03" cy="407.50" r="3.2" fill="#1d4ed8"/>
<circle cx="643.38" cy="407.10" r="3.2" fill="#1d4ed8"/>
<circle cx="646.74" cy="403.05" r="3.2" fill="#1d4ed8"/>
<circle cx="650.09" cy="399.82" r="3.2" fill="#1d4ed8"/>
<circle cx="653.45" cy="400.22" r="3.2" fill="#1d4ed8"/>
<circle cx="656.80" cy="400.62" r="3.2" fill="#1d4ed8"/>
<circle cx="660.15" cy="400.62" r="3.2" fill="#1d4ed8"/>
<circle cx="663.51" cy="399.41" r="3.2" fill="#1d4ed8"/>
<circle cx="666.86" cy="392.94" r="3.2" fill="#1d4ed8"/>
<circle cx="670.22" cy="391.32" r="3.2" fill="#1d4ed8"/>
<circle cx="673.57" cy="389.30" r="3.2" fill="#1d4ed8"/>
<circle cx="676.92" cy="389.30" r="3.2" fill="#1d4ed8"/>
<circle cx="680.28" cy="388.49" r="3.2" fill="#1d4ed8"/>
<circle cx="683.63" cy="375.15" r="3.2" fill="#1d4ed8"/>
<circle cx="686.98" cy="374.74" r="3.2" fill="#1d4ed8"/>
<circle cx="690.34" cy="374.74" r="3.2" fill="#1d4ed8"/>
<circle cx="693.69" cy="374.74" r="3.2" fill="#1d4ed8"/>
<circle cx="697.05" cy="374.74" r="3.2" fill="#1d4ed8"/>
<circle cx="700.40" cy="374.34" r="3.2" fill="#1d4ed8"/>
<circle cx="703.75" cy="374.34" r="3.2" fill="#1d4ed8"/>
<circle cx="707.11" cy="374.34" r="3.2" fill="#1d4ed8"/>
<circle cx="710.46" cy="374.34" r="3.2" fill="#1d4ed8"/>
<circle cx="713.82" cy="374.34" r="3.2" fill="#1d4ed8"/>
<circle cx="717.17" cy="373.93" r="3.2" fill="#1d4ed8"/>
<circle cx="720.52" cy="373.12" r="3.2" fill="#1d4ed8"/>
<circle cx="723.88" cy="372.72" r="3.2" fill="#1d4ed8"/>
<circle cx="727.23" cy="373.53" r="3.2" fill="#1d4ed8"/>
<circle cx="730.58" cy="435.81" r="3.2" fill="#1d4ed8"/>
<circle cx="733.94" cy="372.32" r="3.2" fill="#1d4ed8"/>
<circle cx="737.29" cy="372.72" r="3.2" fill="#1d4ed8"/>
<circle cx="740.65" cy="371.91" r="3.2" fill="#1d4ed8"/>
<circle cx="744.00" cy="371.91" r="3.2" fill="#1d4ed8"/>
<circle cx="747.35" cy="372.32" r="3.2" fill="#1d4ed8"/>
<circle cx="750.71" cy="371.10" r="3.2" fill="#1d4ed8"/>
<circle cx="754.06" cy="369.89" r="3.2" fill="#1d4ed8"/>
<circle cx="757.42" cy="369.89" r="3.2" fill="#1d4ed8"/>
<circle cx="760.77" cy="369.89" r="3.2" fill="#1d4ed8"/>
<circle cx="764.12" cy="369.49" r="3.2" fill="#1d4ed8"/>
<circle cx="767.48" cy="369.89" r="3.2" fill="#1d4ed8"/>
<circle cx="770.83" cy="369.08" r="3.2" fill="#1d4ed8"/>
<circle cx="774.18" cy="368.68" r="3.2" fill="#1d4ed8"/>
<circle cx="777.54" cy="368.27" r="3.2" fill="#1d4ed8"/>
<circle cx="780.89" cy="367.87" r="3.2" fill="#1d4ed8"/>
<circle cx="784.25" cy="367.06" r="3.2" fill="#1d4ed8"/>
<circle cx="787.60" cy="367.46" r="3.2" fill="#1d4ed8"/>
<circle cx="790.95" cy="367.06" r="3.2" fill="#1d4ed8"/>
<circle cx="794.31" cy="366.25" r="3.2" fill="#1d4ed8"/>
<circle cx="797.66" cy="368.27" r="3.2" fill="#1d4ed8"/>
<circle cx="801.02" cy="368.68" r="3.2" fill="#1d4ed8"/>
<circle cx="804.37" cy="368.68" r="3.2" fill="#1d4ed8"/>
<circle cx="807.72" cy="368.27" r="3.2" fill="#1d4ed8"/>
<circle cx="811.08" cy="369.08" r="3.2" fill="#1d4ed8"/>
<circle cx="814.43" cy="367.87" r="3.2" fill="#1d4ed8"/>
<circle cx="817.78" cy="367.46" r="3.2" fill="#1d4ed8"/>
<circle cx="821.14" cy="367.06" r="3.2" fill="#1d4ed8"/>
<circle cx="824.49" cy="360.18" r="3.2" fill="#1d4ed8"/>
<circle cx="827.85" cy="359.78" r="3.2" fill="#1d4ed8"/>
<circle cx="831.20" cy="359.38" r="3.2" fill="#1d4ed8"/>
<circle cx="834.55" cy="356.95" r="3.2" fill="#1d4ed8"/>
<circle cx="837.91" cy="357.35" r="3.2" fill="#1d4ed8"/>
<circle cx="841.26" cy="357.76" r="3.2" fill="#1d4ed8"/>
<circle cx="844.62" cy="355.33" r="3.2" fill="#1d4ed8"/>
<circle cx="847.97" cy="355.74" r="3.2" fill="#1d4ed8"/>
<circle cx="851.32" cy="357.35" r="3.2" fill="#1d4ed8"/>
<circle cx="854.68" cy="355.33" r="3.2" fill="#1d4ed8"/>
<circle cx="858.03" cy="356.14" r="3.2" fill="#1d4ed8"/>
<circle cx="861.38" cy="355.74" r="3.2" fill="#1d4ed8"/>
<circle cx="864.74" cy="356.14" r="3.2" fill="#1d4ed8"/>
<circle cx="868.09" cy="354.12" r="3.2" fill="#1d4ed8"/>
<circle cx="871.45" cy="354.93" r="3.2" fill="#1d4ed8"/>
<circle cx="874.80" cy="356.14" r="3.2" fill="#1d4ed8"/>
<circle cx="878.15" cy="354.52" r="3.2" fill="#1d4ed8"/>
<circle cx="881.51" cy="353.71" r="3.2" fill="#1d4ed8"/>
<circle cx="884.86" cy="354.12" r="3.2" fill="#1d4ed8"/>
<circle cx="888.22" cy="354.93" r="3.2" fill="#1d4ed8"/>
<circle cx="891.57" cy="352.90" r="3.2" fill="#1d4ed8"/>
<circle cx="894.92" cy="353.71" r="3.2" fill="#1d4ed8"/>
<circle cx="898.28" cy="353.31" r="3.2" fill="#1d4ed8"/>
<circle cx="901.63" cy="353.31" r="3.2" fill="#1d4ed8"/>
<circle cx="904.98" cy="354.52" r="3.2" fill="#1d4ed8"/>
<circle cx="908.34" cy="352.90" r="3.2" fill="#1d4ed8"/>
<circle cx="911.69" cy="352.50" r="3.2" fill="#1d4ed8"/>
<circle cx="915.05" cy="352.50" r="3.2" fill="#1d4ed8"/>
<circle cx="918.40" cy="353.31" r="3.2" fill="#1d4ed8"/>
<circle cx="921.75" cy="352.50" r="3.2" fill="#1d4ed8"/>
<circle cx="925.11" cy="353.71" r="3.2" fill="#1d4ed8"/>
<circle cx="928.46" cy="354.12" r="3.2" fill="#1d4ed8"/>
<circle cx="931.82" cy="352.50" r="3.2" fill="#1d4ed8"/>
<circle cx="935.17" cy="352.90" r="3.2" fill="#1d4ed8"/>
<circle cx="938.52" cy="352.50" r="3.2" fill="#1d4ed8"/>
<circle cx="941.88" cy="352.10" r="3.2" fill="#1d4ed8"/>
<circle cx="945.23" cy="351.69" r="3.2" fill="#1d4ed8"/>
<circle cx="948.58" cy="352.10" r="3.2" fill="#1d4ed8"/>
<circle cx="951.94" cy="354.12" r="3.2" fill="#1d4ed8"/>
<circle cx="955.29" cy="352.50" r="3.2" fill="#1d4ed8"/>
<circle cx="958.65" cy="352.10" r="3.2" fill="#1d4ed8"/>
<circle cx="962.00" cy="352.10" r="3.2" fill="#1d4ed8"/>
<circle cx="965.35" cy="349.67" r="3.2" fill="#1d4ed8"/>
<circle cx="968.71" cy="349.67" r="3.2" fill="#1d4ed8"/>
<circle cx="972.06" cy="350.88" r="3.2" fill="#1d4ed8"/>
<circle cx="975.42" cy="351.29" r="3.2" fill="#1d4ed8"/>
<circle cx="978.77" cy="350.48" r="3.2" fill="#1d4ed8"/>
<circle cx="982.12" cy="352.10" r="3.2" fill="#1d4ed8"/>
<circle cx="985.48" cy="350.48" r="3.2" fill="#1d4ed8"/>
<circle cx="988.83" cy="350.48" r="3.2" fill="#1d4ed8"/>
<circle cx="992.18" cy="350.48" r="3.2" fill="#1d4ed8"/>
<circle cx="995.54" cy="350.07" r="3.2" fill="#1d4ed8"/>
<circle cx="998.89" cy="348.46" r="3.2" fill="#1d4ed8"/>
<circle cx="1002.25" cy="351.29" r="3.2" fill="#1d4ed8"/>
<circle cx="1005.60" cy="349.67" r="3.2" fill="#1d4ed8"/>
<circle cx="1008.95" cy="351.29" r="3.2" fill="#1d4ed8"/>
<circle cx="1012.31" cy="349.67" r="3.2" fill="#1d4ed8"/>
<circle cx="1015.66" cy="348.86" r="3.2" fill="#1d4ed8"/>
<circle cx="1019.02" cy="348.46" r="3.2" fill="#1d4ed8"/>
<circle cx="1022.37" cy="348.46" r="3.2" fill="#1d4ed8"/>
<circle cx="1025.72" cy="347.24" r="3.2" fill="#1d4ed8"/>
<circle cx="1029.08" cy="348.86" r="3.2" fill="#1d4ed8"/>
<circle cx="1032.43" cy="346.84" r="3.2" fill="#1d4ed8"/>
<circle cx="1035.78" cy="348.46" r="3.2" fill="#1d4ed8"/>
<circle cx="1039.14" cy="348.86" r="3.2" fill="#1d4ed8"/>
<circle cx="1042.49" cy="346.84" r="3.2" fill="#1d4ed8"/>
<circle cx="1045.85" cy="349.26" r="3.2" fill="#1d4ed8"/>
<circle cx="1049.20" cy="348.05" r="3.2" fill="#1d4ed8"/>
<circle cx="1052.55" cy="349.26" r="3.2" fill="#1d4ed8"/>
<circle cx="1055.91" cy="349.26" r="3.2" fill="#1d4ed8"/>
<circle cx="1059.26" cy="350.48" r="3.2" fill="#1d4ed8"/>
<circle cx="1062.62" cy="352.90" r="3.2" fill="#1d4ed8"/>
<circle cx="1065.97" cy="349.67" r="3.2" fill="#1d4ed8"/>
<circle cx="1069.32" cy="348.46" r="3.2" fill="#1d4ed8"/>
<circle cx="1072.68" cy="345.62" r="3.2" fill="#1d4ed8"/>
<circle cx="1076.03" cy="344.82" r="3.2" fill="#1d4ed8"/>
<circle cx="1079.38" cy="344.41" r="3.2" fill="#1d4ed8"/>
<circle cx="1082.74" cy="342.39" r="3.2" fill="#1d4ed8"/>
<circle cx="1086.09" cy="341.18" r="3.2" fill="#1d4ed8"/>
<circle cx="1089.45" cy="341.58" r="3.2" fill="#1d4ed8"/>
<circle cx="1092.80" cy="339.15" r="3.2" fill="#1d4ed8"/>
<circle cx="1096.15" cy="338.35" r="3.2" fill="#1d4ed8"/>
<circle cx="1099.51" cy="337.54" r="3.2" fill="#1d4ed8"/>
<circle cx="1102.86" cy="336.73" r="3.2" fill="#1d4ed8"/>
<circle cx="1106.22" cy="335.92" r="3.2" fill="#1d4ed8"/>
<circle cx="1109.57" cy="337.54" r="3.2" fill="#1d4ed8"/>
<circle cx="1112.92" cy="338.35" r="3.2" fill="#1d4ed8"/>
<circle cx="1116.28" cy="337.54" r="3.2" fill="#1d4ed8"/>
<circle cx="1119.63" cy="337.54" r="3.2" fill="#1d4ed8"/>
<circle cx="1122.98" cy="337.54" r="3.2" fill="#1d4ed8"/>
<circle cx="1126.34" cy="333.09" r="3.2" fill="#1d4ed8"/>
<circle cx="1129.69" cy="333.90" r="3.2" fill="#1d4ed8"/>
<circle cx="1133.05" cy="335.92" r="3.2" fill="#1d4ed8"/>
<circle cx="1136.40" cy="336.73" r="3.2" fill="#1d4ed8"/>
<circle cx="1139.75" cy="335.51" r="3.2" fill="#1d4ed8"/>
<circle cx="1143.11" cy="332.28" r="3.2" fill="#1d4ed8"/>
<circle cx="1146.46" cy="331.47" r="3.2" fill="#1d4ed8"/>
<circle cx="1149.82" cy="331.07" r="3.2" fill="#1d4ed8"/>
<circle cx="1153.17" cy="331.47" r="3.2" fill="#1d4ed8"/>
<circle cx="1156.52" cy="331.07" r="3.2" fill="#1d4ed8"/>
<circle cx="1159.88" cy="331.07" r="3.2" fill="#1d4ed8"/>
<circle cx="1163.23" cy="331.07" r="3.2" fill="#1d4ed8"/>
<circle cx="1166.58" cy="331.07" r="3.2" fill="#1d4ed8"/>
<circle cx="1169.94" cy="331.07" r="3.2" fill="#1d4ed8"/>
<circle cx="1173.29" cy="331.07" r="3.2" fill="#1d4ed8"/>
<circle cx="1176.65" cy="331.07" r="3.2" fill="#1d4ed8"/>
<circle cx="1180.00" cy="331.07" r="3.2" fill="#1d4ed8"/>
<text x="635" y="695" text-anchor="middle" font-size="14" fill="#111" font-family="sans-serif">Date</text>
<text x="24" y="325" text-anchor="middle" font-size="14" fill="#111" transform="rotate(-90 24,325)" font-family="sans-serif">Passed files</text>
</svg>
