<?xml version="1.0" encoding="UTF-8"?>
<svg xmlns="http://www.w3.org/2000/svg" width="1280" height="720" viewBox="0 0 1280 720">
<rect width="100%" height="100%" fill="#ffffff"/>
<text x="640" y="30" text-anchor="middle" font-size="22" font-family="sans-serif">Roast passed files history</text>
<line x1="90" y1="600" x2="1180" y2="600" stroke="#333" stroke-width="1.5"/>
<line x1="90" y1="50" x2="90" y2="600" stroke="#333" stroke-width="1.5"/>
<line x1="90" y1="600.00" x2="1180" y2="600.00" stroke="#e5e7eb" stroke-width="1"/>
<text x="78" y="605.00" text-anchor="end" font-size="12" fill="#111" font-family="sans-serif">0</text>
<line x1="90" y1="397.79" x2="1180" y2="397.79" stroke="#e5e7eb" stroke-width="1"/>
<text x="78" y="402.79" text-anchor="end" font-size="12" fill="#111" font-family="sans-serif">500</text>
<line x1="90" y1="195.59" x2="1180" y2="195.59" stroke="#e5e7eb" stroke-width="1"/>
<text x="78" y="200.59" text-anchor="end" font-size="12" fill="#111" font-family="sans-serif">1000</text>
<line x1="90.00" y1="600" x2="90.00" y2="606" stroke="#333" stroke-width="1"/>
<text x="90.00" y="624" text-anchor="end" font-size="11" fill="#111" transform="rotate(-40 90.00,624)" font-family="sans-serif">2026-02-12</text>
<line x1="225.66" y1="600" x2="225.66" y2="606" stroke="#333" stroke-width="1"/>
<text x="225.66" y="624" text-anchor="end" font-size="11" fill="#111" transform="rotate(-40 225.66,624)" font-family="sans-serif">2026-02-18</text>
<line x1="361.31" y1="600" x2="361.31" y2="606" stroke="#333" stroke-width="1"/>
<text x="361.31" y="624" text-anchor="end" font-size="11" fill="#111" transform="rotate(-40 361.31,624)" font-family="sans-serif">2026-02-24</text>
<line x1="496.97" y1="600" x2="496.97" y2="606" stroke="#333" stroke-width="1"/>
<text x="496.97" y="624" text-anchor="end" font-size="11" fill="#111" transform="rotate(-40 496.97,624)" font-family="sans-serif">2026-02-27</text>
<line x1="632.62" y1="600" x2="632.62" y2="606" stroke="#333" stroke-width="1"/>
<text x="632.62" y="624" text-anchor="end" font-size="11" fill="#111" transform="rotate(-40 632.62,624)" font-family="sans-serif">2026-03-06</text>
<line x1="768.28" y1="600" x2="768.28" y2="606" stroke="#333" stroke-width="1"/>
<text x="768.28" y="624" text-anchor="end" font-size="11" fill="#111" transform="rotate(-40 768.28,624)" font-family="sans-serif">2026-03-07</text>
<line x1="903.93" y1="600" x2="903.93" y2="606" stroke="#333" stroke-width="1"/>
<text x="903.93" y="624" text-anchor="end" font-size="11" fill="#111" transform="rotate(-40 903.93,624)" font-family="sans-serif">2026-03-17</text>
<line x1="1039.59" y1="600" x2="1039.59" y2="606" stroke="#333" stroke-width="1"/>
<text x="1039.59" y="624" text-anchor="end" font-size="11" fill="#111" transform="rotate(-40 1039.59,624)" font-family="sans-serif">2026-03-19</text>
<line x1="1175.24" y1="600" x2="1175.24" y2="606" stroke="#333" stroke-width="1"/>
<text x="1175.24" y="624" text-anchor="end" font-size="11" fill="#111" transform="rotate(-40 1175.24,624)" font-family="sans-serif">2026-03-30</text>
<line x1="1180.00" y1="600" x2="1180.00" y2="606" stroke="#333" stroke-width="1"/>
<text x="1180.00" y="624" text-anchor="end" font-size="11" fill="#111" transform="rotate(-40 1180.00,624)" font-family="sans-serif">2026-03-30</text>
<line x1="90" y1="75.88" x2="1180" y2="75.88" stroke="#dc2626" stroke-width="1.5" stroke-dasharray="8,4"/>
<text x="1184" y="79.88" font-size="12" fill="#dc2626" font-family="sans-serif">Goal: 1296</text>
<polyline fill="none" stroke="#2563eb" stroke-width="3" points="90.00,540.55 92.38,538.53 94.76,536.91 97.14,534.49 99.52,534.49 101.90,533.27 104.28,532.46 106.66,532.87 109.04,532.06 111.42,532.46 113.80,532.06 116.18,568.46 118.56,568.46 120.94,566.43 123.32,545.00 125.70,545.00 128.08,544.19 130.46,543.79 132.84,543.79 135.22,543.38 137.60,541.76 139.98,541.36 142.36,540.96 144.74,540.96 147.12,539.34 149.50,539.34 151.88,556.73 154.26,556.73 156.64,555.51 159.02,551.07 161.40,538.93 163.78,538.93 166.16,538.93 168.54,538.12 170.92,536.91 173.30,536.91 175.68,536.51 178.06,536.51 180.44,556.73 182.82,556.73 185.20,556.73 187.58,556.73 189.96,535.29 192.34,535.29 194.72,535.29 197.10,535.29 199.48,534.49 201.86,534.08 204.24,533.68 206.62,532.87 209.00,532.06 211.38,532.06 213.76,531.25 216.14,530.85 218.52,530.44 220.90,530.04 223.28,530.04 225.66,529.23 228.03,529.23 230.41,529.23 232.79,528.42 235.17,528.42 237.55,527.61 239.93,527.21 242.31,526.80 244.69,526.40 247.07,525.18 249.45,523.57 251.83,523.57 254.21,523.16 256.59,522.76 258.97,522.35 261.35,521.54 263.73,519.52 266.11,517.50 268.49,517.50 270.87,517.50 273.25,517.50 275.63,517.50 278.01,517.50 280.39,517.10 282.77,516.69 285.15,515.48 287.53,515.07 289.91,514.67 292.29,513.86 294.67,514.26 297.05,512.24 299.43,511.84 301.81,511.84 304.19,511.03 306.57,509.82 308.95,507.79 311.33,506.99 313.71,506.58 316.09,509.41 318.47,509.01 320.85,504.96 323.23,504.56 325.61,504.15 327.99,504.56 330.37,503.75 332.75,503.75 335.13,503.35 337.51,499.30 339.89,496.47 342.27,490.00 344.65,484.34 347.03,481.10 349.41,480.29 351.79,480.70 354.17,460.88 356.55,459.26 358.93,458.05 361.31,456.03 363.69,456.03 366.07,454.41 368.45,450.77 370.83,444.30 373.21,443.90 375.59,600.00 377.97,441.88 380.35,440.66 382.73,439.45 385.11,439.04 387.49,438.64 389.87,437.83 392.25,436.62 394.63,436.62 397.01,434.60 399.39,432.17 401.77,429.34 404.15,428.93 406.53,428.53 408.91,427.72 411.29,426.91 413.67,426.10 416.05,426.10 418.43,426.10 420.81,419.63 423.19,419.23 425.57,418.42 427.95,418.01 430.33,417.61 432.71,417.61 435.09,417.61 437.47,417.21 439.85,417.21 442.23,413.57 444.61,411.95 446.99,412.76 449.37,410.74 451.75,410.74 454.13,410.33 456.51,410.33 458.89,410.33 461.27,409.93 463.65,409.93 466.03,409.93 468.41,409.52 470.79,409.52 473.17,409.12 475.55,409.52 477.93,409.12 480.31,407.50 482.69,407.10 485.07,403.05 487.45,399.82 489.83,400.22 492.21,400.62 494.59,400.62 496.97,399.41 499.34,392.94 501.72,391.32 504.10,389.30 506.48,389.30 508.86,388.49 511.24,375.15 513.62,374.74 516.00,374.74 518.38,374.74 520.76,374.74 523.14,374.34 525.52,374.34 527.90,374.34 530.28,374.34 532.66,374.34 535.04,373.93 537.42,373.12 539.80,372.72 542.18,373.53 544.56,435.81 546.94,372.32 549.32,372.72 551.70,371.91 554.08,371.91 556.46,372.32 558.84,371.10 561.22,369.89 563.60,369.89 565.98,369.89 568.36,369.49 570.74,369.89 573.12,369.08 575.50,368.68 577.88,368.27 580.26,367.87 582.64,367.06 585.02,367.46 587.40,367.06 589.78,366.25 592.16,368.27 594.54,368.68 596.92,368.68 599.30,368.27 601.68,369.08 604.06,367.87 606.44,367.46 608.82,367.06 611.20,360.18 613.58,359.78 615.96,359.38 618.34,356.95 620.72,357.35 623.10,357.76 625.48,355.33 627.86,355.74 630.24,357.35 632.62,355.33 635.00,356.14 637.38,355.74 639.76,356.14 642.14,354.12 644.52,354.93 646.90,356.14 649.28,354.52 651.66,353.71 654.04,354.12 656.42,354.93 658.80,352.90 661.18,353.71 663.56,353.31 665.94,353.31 668.32,354.52 670.70,352.90 673.08,352.50 675.46,352.50 677.84,353.31 680.22,352.50 682.60,353.71 684.98,354.12 687.36,352.50 689.74,352.90 692.12,352.50 694.50,352.10 696.88,351.69 699.26,352.10 701.64,354.12 704.02,352.50 706.40,352.10 708.78,352.10 711.16,349.67 713.54,349.67 715.92,350.88 718.30,351.29 720.68,350.48 723.06,352.10 725.44,350.48 727.82,350.48 730.20,350.48 732.58,350.07 734.96,348.46 737.34,351.29 739.72,349.67 742.10,351.29 744.48,349.67 746.86,348.86 749.24,348.46 751.62,348.46 754.00,347.24 756.38,348.86 758.76,346.84 761.14,348.46 763.52,348.86 765.90,346.84 768.28,349.26 770.66,348.05 773.03,349.26 775.41,349.26 777.79,350.48 780.17,352.90 782.55,349.67 784.93,348.46 787.31,345.62 789.69,344.82 792.07,344.41 794.45,342.39 796.83,341.18 799.21,341.58 801.59,339.15 803.97,338.35 806.35,337.54 808.73,336.73 811.11,335.92 813.49,337.54 815.87,338.35 818.25,337.54 820.63,337.54 823.01,337.54 825.39,333.09 827.77,333.90 830.15,335.92 832.53,336.73 834.91,335.51 837.29,332.28 839.67,331.47 842.05,331.07 844.43,331.47 846.81,331.07 849.19,331.07 851.57,331.07 853.95,331.07 856.33,331.07 858.71,331.07 861.09,331.07 863.47,331.07 865.85,331.07 868.23,331.07 870.61,331.47 872.99,331.88 875.37,331.07 877.75,331.47 880.13,331.07 882.51,331.47 884.89,331.07 887.27,324.19 889.65,324.19 892.03,318.93 894.41,316.51 896.79,310.44 899.17,308.01 901.55,600.00 903.93,301.54 906.31,290.22 908.69,287.79 911.07,286.18 913.45,285.77 915.83,285.77 918.21,285.77 920.59,286.18 922.97,285.77 925.35,285.77 927.73,285.77 930.11,283.35 932.49,282.94 934.87,282.94 937.25,283.35 939.63,282.94 942.01,282.94 944.39,283.75 946.77,282.13 949.15,282.13 951.53,282.54 953.91,282.13 956.29,282.54 958.67,282.94 961.05,281.73 963.43,282.54 965.81,281.73 968.19,282.54 970.57,282.13 972.95,282.13 975.33,281.73 977.71,281.73 980.09,281.32 982.47,281.73 984.85,282.13 987.23,281.32 989.61,281.32 991.99,282.54 994.37,282.13 996.75,281.32 999.13,281.32 1001.51,281.32 1003.89,282.54 1006.27,282.13 1008.65,281.32 1011.03,282.13 1013.41,281.73 1015.79,282.13 1018.17,280.11 1020.55,280.11 1022.93,280.51 1025.31,279.71 1027.69,280.11 1030.07,280.51 1032.45,279.71 1034.83,280.11 1037.21,280.11 1039.59,279.30 1041.97,278.90 1044.34,278.90 1046.72,280.51 1049.10,279.30 1051.48,278.09 1053.86,278.49 1056.24,278.49 1058.62,277.28 1061.00,277.68 1063.38,277.68 1065.76,278.09 1068.14,277.28 1070.52,600.00 1072.90,278.90 1075.28,279.30 1077.66,278.90 1080.04,278.49 1082.42,278.49 1084.80,278.49 1087.18,278.49 1089.56,278.49 1091.94,278.49 1094.32,278.49 1096.70,278.49 1099.08,278.49 1101.46,278.49 1103.84,278.49 1106.22,278.49 1108.60,600.00 1110.98,600.00 1113.36,254.63 1115.74,600.00 1118.12,245.74 1120.50,245.74 1122.88,246.14 1125.26,245.74 1127.64,245.74 1130.02,245.74 1132.40,245.74 1134.78,245.74 1137.16,240.07 1139.54,238.05 1141.92,238.05 1144.30,227.13 1146.68,227.13 1149.06,226.32 1151.44,227.54 1153.82,226.73 1156.20,226.32 1158.58,227.13 1160.96,227.13 1163.34,226.73 1165.72,226.32 1168.10,226.73 1170.48,226.73 1172.86,226.73 1175.24,225.11 1177.62,224.71 1180.00,225.11"/>
<circle cx="90.00" cy="540.55" r="3.2" fill="#1d4ed8"/>
<circle cx="92.38" cy="538.53" r="3.2" fill="#1d4ed8"/>
<circle cx="94.76" cy="536.91" r="3.2" fill="#1d4ed8"/>
<circle cx="97.14" cy="534.49" r="3.2" fill="#1d4ed8"/>
<circle cx="99.52" cy="534.49" r="3.2" fill="#1d4ed8"/>
<circle cx="101.90" cy="533.27" r="3.2" fill="#1d4ed8"/>
<circle cx="104.28" cy="532.46" r="3.2" fill="#1d4ed8"/>
<circle cx="106.66" cy="532.87" r="3.2" fill="#1d4ed8"/>
<circle cx="109.04" cy="532.06" r="3.2" fill="#1d4ed8"/>
<circle cx="111.42" cy="532.46" r="3.2" fill="#1d4ed8"/>
<circle cx="113.80" cy="532.06" r="3.2" fill="#1d4ed8"/>
<circle cx="116.18" cy="568.46" r="3.2" fill="#1d4ed8"/>
<circle cx="118.56" cy="568.46" r="3.2" fill="#1d4ed8"/>
<circle cx="120.94" cy="566.43" r="3.2" fill="#1d4ed8"/>
<circle cx="123.32" cy="545.00" r="3.2" fill="#1d4ed8"/>
<circle cx="125.70" cy="545.00" r="3.2" fill="#1d4ed8"/>
<circle cx="128.08" cy="544.19" r="3.2" fill="#1d4ed8"/>
<circle cx="130.46" cy="543.79" r="3.2" fill="#1d4ed8"/>
<circle cx="132.84" cy="543.79" r="3.2" fill="#1d4ed8"/>
<circle cx="135.22" cy="543.38" r="3.2" fill="#1d4ed8"/>
<circle cx="137.60" cy="541.76" r="3.2" fill="#1d4ed8"/>
<circle cx="139.98" cy="541.36" r="3.2" fill="#1d4ed8"/>
<circle cx="142.36" cy="540.96" r="3.2" fill="#1d4ed8"/>
<circle cx="144.74" cy="540.96" r="3.2" fill="#1d4ed8"/>
<circle cx="147.12" cy="539.34" r="3.2" fill="#1d4ed8"/>
<circle cx="149.50" cy="539.34" r="3.2" fill="#1d4ed8"/>
<circle cx="151.88" cy="556.73" r="3.2" fill="#1d4ed8"/>
<circle cx="154.26" cy="556.73" r="3.2" fill="#1d4ed8"/>
<circle cx="156.64" cy="555.51" r="3.2" fill="#1d4ed8"/>
<circle cx="159.02" cy="551.07" r="3.2" fill="#1d4ed8"/>
<circle cx="161.40" cy="538.93" r="3.2" fill="#1d4ed8"/>
<circle cx="163.78" cy="538.93" r="3.2" fill="#1d4ed8"/>
<circle cx="166.16" cy="538.93" r="3.2" fill="#1d4ed8"/>
<circle cx="168.54" cy="538.12" r="3.2" fill="#1d4ed8"/>
<circle cx="170.92" cy="536.91" r="3.2" fill="#1d4ed8"/>
<circle cx="173.30" cy="536.91" r="3.2" fill="#1d4ed8"/>
<circle cx="175.68" cy="536.51" r="3.2" fill="#1d4ed8"/>
<circle cx="178.06" cy="536.51" r="3.2" fill="#1d4ed8"/>
<circle cx="180.44" cy="556.73" r="3.2" fill="#1d4ed8"/>
<circle cx="182.82" cy="556.73" r="3.2" fill="#1d4ed8"/>
<circle cx="185.20" cy="556.73" r="3.2" fill="#1d4ed8"/>
<circle cx="187.58" cy="556.73" r="3.2" fill="#1d4ed8"/>
<circle cx="189.96" cy="535.29" r="3.2" fill="#1d4ed8"/>
<circle cx="192.34" cy="535.29" r="3.2" fill="#1d4ed8"/>
<circle cx="194.72" cy="535.29" r="3.2" fill="#1d4ed8"/>
<circle cx="197.10" cy="535.29" r="3.2" fill="#1d4ed8"/>
<circle cx="199.48" cy="534.49" r="3.2" fill="#1d4ed8"/>
<circle cx="201.86" cy="534.08" r="3.2" fill="#1d4ed8"/>
<circle cx="204.24" cy="533.68" r="3.2" fill="#1d4ed8"/>
<circle cx="206.62" cy="532.87" r="3.2" fill="#1d4ed8"/>
<circle cx="209.00" cy="532.06" r="3.2" fill="#1d4ed8"/>
<circle cx="211.38" cy="532.06" r="3.2" fill="#1d4ed8"/>
<circle cx="213.76" cy="531.25" r="3.2" fill="#1d4ed8"/>
<circle cx="216.14" cy="530.85" r="3.2" fill="#1d4ed8"/>
<circle cx="218.52" cy="530.44" r="3.2" fill="#1d4ed8"/>
<circle cx="220.90" cy="530.04" r="3.2" fill="#1d4ed8"/>
<circle cx="223.28" cy="530.04" r="3.2" fill="#1d4ed8"/>
<circle cx="225.66" cy="529.23" r="3.2" fill="#1d4ed8"/>
<circle cx="228.03" cy="529.23" r="3.2" fill="#1d4ed8"/>
<circle cx="230.41" cy="529.23" r="3.2" fill="#1d4ed8"/>
<circle cx="232.79" cy="528.42" r="3.2" fill="#1d4ed8"/>
<circle cx="235.17" cy="528.42" r="3.2" fill="#1d4ed8"/>
<circle cx="237.55" cy="527.61" r="3.2" fill="#1d4ed8"/>
<circle cx="239.93" cy="527.21" r="3.2" fill="#1d4ed8"/>
<circle cx="242.31" cy="526.80" r="3.2" fill="#1d4ed8"/>
<circle cx="244.69" cy="526.40" r="3.2" fill="#1d4ed8"/>
<circle cx="247.07" cy="525.18" r="3.2" fill="#1d4ed8"/>
<circle cx="249.45" cy="523.57" r="3.2" fill="#1d4ed8"/>
<circle cx="251.83" cy="523.57" r="3.2" fill="#1d4ed8"/>
<circle cx="254.21" cy="523.16" r="3.2" fill="#1d4ed8"/>
<circle cx="256.59" cy="522.76" r="3.2" fill="#1d4ed8"/>
<circle cx="258.97" cy="522.35" r="3.2" fill="#1d4ed8"/>
<circle cx="261.35" cy="521.54" r="3.2" fill="#1d4ed8"/>
<circle cx="263.73" cy="519.52" r="3.2" fill="#1d4ed8"/>
<circle cx="266.11" cy="517.50" r="3.2" fill="#1d4ed8"/>
<circle cx="268.49" cy="517.50" r="3.2" fill="#1d4ed8"/>
<circle cx="270.87" cy="517.50" r="3.2" fill="#1d4ed8"/>
<circle cx="273.25" cy="517.50" r="3.2" fill="#1d4ed8"/>
<circle cx="275.63" cy="517.50" r="3.2" fill="#1d4ed8"/>
<circle cx="278.01" cy="517.50" r="3.2" fill="#1d4ed8"/>
<circle cx="280.39" cy="517.10" r="3.2" fill="#1d4ed8"/>
<circle cx="282.77" cy="516.69" r="3.2" fill="#1d4ed8"/>
<circle cx="285.15" cy="515.48" r="3.2" fill="#1d4ed8"/>
<circle cx="287.53" cy="515.07" r="3.2" fill="#1d4ed8"/>
<circle cx="289.91" cy="514.67" r="3.2" fill="#1d4ed8"/>
<circle cx="292.29" cy="513.86" r="3.2" fill="#1d4ed8"/>
<circle cx="294.67" cy="514.26" r="3.2" fill="#1d4ed8"/>
<circle cx="297.05" cy="512.24" r="3.2" fill="#1d4ed8"/>
<circle cx="299.43" cy="511.84" r="3.2" fill="#1d4ed8"/>
<circle cx="301.81" cy="511.84" r="3.2" fill="#1d4ed8"/>
<circle cx="304.19" cy="511.03" r="3.2" fill="#1d4ed8"/>
<circle cx="306.57" cy="509.82" r="3.2" fill="#1d4ed8"/>
<circle cx="308.95" cy="507.79" r="3.2" fill="#1d4ed8"/>
<circle cx="311.33" cy="506.99" r="3.2" fill="#1d4ed8"/>
<circle cx="313.71" cy="506.58" r="3.2" fill="#1d4ed8"/>
<circle cx="316.09" cy="509.41" r="3.2" fill="#1d4ed8"/>
<circle cx="318.47" cy="509.01" r="3.2" fill="#1d4ed8"/>
<circle cx="320.85" cy="504.96" r="3.2" fill="#1d4ed8"/>
<circle cx="323.23" cy="504.56" r="3.2" fill="#1d4ed8"/>
<circle cx="325.61" cy="504.15" r="3.2" fill="#1d4ed8"/>
<circle cx="327.99" cy="504.56" r="3.2" fill="#1d4ed8"/>
<circle cx="330.37" cy="503.75" r="3.2" fill="#1d4ed8"/>
<circle cx="332.75" cy="503.75" r="3.2" fill="#1d4ed8"/>
<circle cx="335.13" cy="503.35" r="3.2" fill="#1d4ed8"/>
<circle cx="337.51" cy="499.30" r="3.2" fill="#1d4ed8"/>
<circle cx="339.89" cy="496.47" r="3.2" fill="#1d4ed8"/>
<circle cx="342.27" cy="490.00" r="3.2" fill="#1d4ed8"/>
<circle cx="344.65" cy="484.34" r="3.2" fill="#1d4ed8"/>
<circle cx="347.03" cy="481.10" r="3.2" fill="#1d4ed8"/>
<circle cx="349.41" cy="480.29" r="3.2" fill="#1d4ed8"/>
<circle cx="351.79" cy="480.70" r="3.2" fill="#1d4ed8"/>
<circle cx="354.17" cy="460.88" r="3.2" fill="#1d4ed8"/>
<circle cx="356.55" cy="459.26" r="3.2" fill="#1d4ed8"/>
<circle cx="358.93" cy="458.05" r="3.2" fill="#1d4ed8"/>
<circle cx="361.31" cy="456.03" r="3.2" fill="#1d4ed8"/>
<circle cx="363.69" cy="456.03" r="3.2" fill="#1d4ed8"/>
<circle cx="366.07" cy="454.41" r="3.2" fill="#1d4ed8"/>
<circle cx="368.45" cy="450.77" r="3.2" fill="#1d4ed8"/>
<circle cx="370.83" cy="444.30" r="3.2" fill="#1d4ed8"/>
<circle cx="373.21" cy="443.90" r="3.2" fill="#1d4ed8"/>
<circle cx="375.59" cy="600.00" r="3.2" fill="#1d4ed8"/>
<circle cx="377.97" cy="441.88" r="3.2" fill="#1d4ed8"/>
<circle cx="380.35" cy="440.66" r="3.2" fill="#1d4ed8"/>
<circle cx="382.73" cy="439.45" r="3.2" fill="#1d4ed8"/>
<circle cx="385.11" cy="439.04" r="3.2" fill="#1d4ed8"/>
<circle cx="387.49" cy="438.64" r="3.2" fill="#1d4ed8"/>
<circle cx="389.87" cy="437.83" r="3.2" fill="#1d4ed8"/>
<circle cx="392.25" cy="436.62" r="3.2" fill="#1d4ed8"/>
<circle cx="394.63" cy="436.62" r="3.2" fill="#1d4ed8"/>
<circle cx="397.01" cy="434.60" r="3.2" fill="#1d4ed8"/>
<circle cx="399.39" cy="432.17" r="3.2" fill="#1d4ed8"/>
<circle cx="401.77" cy="429.34" r="3.2" fill="#1d4ed8"/>
<circle cx="404.15" cy="428.93" r="3.2" fill="#1d4ed8"/>
<circle cx="406.53" cy="428.53" r="3.2" fill="#1d4ed8"/>
<circle cx="408.91" cy="427.72" r="3.2" fill="#1d4ed8"/>
<circle cx="411.29" cy="426.91" r="3.2" fill="#1d4ed8"/>
<circle cx="413.67" cy="426.10" r="3.2" fill="#1d4ed8"/>
<circle cx="416.05" cy="426.10" r="3.2" fill="#1d4ed8"/>
<circle cx="418.43" cy="426.10" r="3.2" fill="#1d4ed8"/>
<circle cx="420.81" cy="419.63" r="3.2" fill="#1d4ed8"/>
<circle cx="423.19" cy="419.23" r="3.2" fill="#1d4ed8"/>
<circle cx="425.57" cy="418.42" r="3.2" fill="#1d4ed8"/>
<circle cx="427.95" cy="418.01" r="3.2" fill="#1d4ed8"/>
<circle cx="430.33" cy="417.61" r="3.2" fill="#1d4ed8"/>
<circle cx="432.71" cy="417.61" r="3.2" fill="#1d4ed8"/>
<circle cx="435.09" cy="417.61" r="3.2" fill="#1d4ed8"/>
<circle cx="437.47" cy="417.21" r="3.2" fill="#1d4ed8"/>
<circle cx="439.85" cy="417.21" r="3.2" fill="#1d4ed8"/>
<circle cx="442.23" cy="413.57" r="3.2" fill="#1d4ed8"/>
<circle cx="444.61" cy="411.95" r="3.2" fill="#1d4ed8"/>
<circle cx="446.99" cy="412.76" r="3.2" fill="#1d4ed8"/>
<circle cx="449.37" cy="410.74" r="3.2" fill="#1d4ed8"/>
<circle cx="451.75" cy="410.74" r="3.2" fill="#1d4ed8"/>
<circle cx="454.13" cy="410.33" r="3.2" fill="#1d4ed8"/>
<circle cx="456.51" cy="410.33" r="3.2" fill="#1d4ed8"/>
<circle cx="458.89" cy="410.33" r="3.2" fill="#1d4ed8"/>
<circle cx="461.27" cy="409.93" r="3.2" fill="#1d4ed8"/>
<circle cx="463.65" cy="409.93" r="3.2" fill="#1d4ed8"/>
<circle cx="466.03" cy="409.93" r="3.2" fill="#1d4ed8"/>
<circle cx="468.41" cy="409.52" r="3.2" fill="#1d4ed8"/>
<circle cx="470.79" cy="409.52" r="3.2" fill="#1d4ed8"/>
<circle cx="473.17" cy="409.12" r="3.2" fill="#1d4ed8"/>
<circle cx="475.55" cy="409.52" r="3.2" fill="#1d4ed8"/>
<circle cx="477.93" cy="409.12" r="3.2" fill="#1d4ed8"/>
<circle cx="480.31" cy="407.50" r="3.2" fill="#1d4ed8"/>
<circle cx="482.69" cy="407.10" r="3.2" fill="#1d4ed8"/>
<circle cx="485.07" cy="403.05" r="3.2" fill="#1d4ed8"/>
<circle cx="487.45" cy="399.82" r="3.2" fill="#1d4ed8"/>
<circle cx="489.83" cy="400.22" r="3.2" fill="#1d4ed8"/>
<circle cx="492.21" cy="400.62" r="3.2" fill="#1d4ed8"/>
<circle cx="494.59" cy="400.62" r="3.2" fill="#1d4ed8"/>
<circle cx="496.97" cy="399.41" r="3.2" fill="#1d4ed8"/>
<circle cx="499.34" cy="392.94" r="3.2" fill="#1d4ed8"/>
<circle cx="501.72" cy="391.32" r="3.2" fill="#1d4ed8"/>
<circle cx="504.10" cy="389.30" r="3.2" fill="#1d4ed8"/>
<circle cx="506.48" cy="389.30" r="3.2" fill="#1d4ed8"/>
<circle cx="508.86" cy="388.49" r="3.2" fill="#1d4ed8"/>
<circle cx="511.24" cy="375.15" r="3.2" fill="#1d4ed8"/>
<circle cx="513.62" cy="374.74" r="3.2" fill="#1d4ed8"/>
<circle cx="516.00" cy="374.74" r="3.2" fill="#1d4ed8"/>
<circle cx="518.38" cy="374.74" r="3.2" fill="#1d4ed8"/>
<circle cx="520.76" cy="374.74" r="3.2" fill="#1d4ed8"/>
<circle cx="523.14" cy="374.34" r="3.2" fill="#1d4ed8"/>
<circle cx="525.52" cy="374.34" r="3.2" fill="#1d4ed8"/>
<circle cx="527.90" cy="374.34" r="3.2" fill="#1d4ed8"/>
<circle cx="530.28" cy="374.34" r="3.2" fill="#1d4ed8"/>
<circle cx="532.66" cy="374.34" r="3.2" fill="#1d4ed8"/>
<circle cx="535.04" cy="373.93" r="3.2" fill="#1d4ed8"/>
<circle cx="537.42" cy="373.12" r="3.2" fill="#1d4ed8"/>
<circle cx="539.80" cy="372.72" r="3.2" fill="#1d4ed8"/>
<circle cx="542.18" cy="373.53" r="3.2" fill="#1d4ed8"/>
<circle cx="544.56" cy="435.81" r="3.2" fill="#1d4ed8"/>
<circle cx="546.94" cy="372.32" r="3.2" fill="#1d4ed8"/>
<circle cx="549.32" cy="372.72" r="3.2" fill="#1d4ed8"/>
<circle cx="551.70" cy="371.91" r="3.2" fill="#1d4ed8"/>
<circle cx="554.08" cy="371.91" r="3.2" fill="#1d4ed8"/>
<circle cx="556.46" cy="372.32" r="3.2" fill="#1d4ed8"/>
<circle cx="558.84" cy="371.10" r="3.2" fill="#1d4ed8"/>
<circle cx="561.22" cy="369.89" r="3.2" fill="#1d4ed8"/>
<circle cx="563.60" cy="369.89" r="3.2" fill="#1d4ed8"/>
<circle cx="565.98" cy="369.89" r="3.2" fill="#1d4ed8"/>
<circle cx="568.36" cy="369.49" r="3.2" fill="#1d4ed8"/>
<circle cx="570.74" cy="369.89" r="3.2" fill="#1d4ed8"/>
<circle cx="573.12" cy="369.08" r="3.2" fill="#1d4ed8"/>
<circle cx="575.50" cy="368.68" r="3.2" fill="#1d4ed8"/>
<circle cx="577.88" cy="368.27" r="3.2" fill="#1d4ed8"/>
<circle cx="580.26" cy="367.87" r="3.2" fill="#1d4ed8"/>
<circle cx="582.64" cy="367.06" r="3.2" fill="#1d4ed8"/>
<circle cx="585.02" cy="367.46" r="3.2" fill="#1d4ed8"/>
<circle cx="587.40" cy="367.06" r="3.2" fill="#1d4ed8"/>
<circle cx="589.78" cy="366.25" r="3.2" fill="#1d4ed8"/>
<circle cx="592.16" cy="368.27" r="3.2" fill="#1d4ed8"/>
<circle cx="594.54" cy="368.68" r="3.2" fill="#1d4ed8"/>
<circle cx="596.92" cy="368.68" r="3.2" fill="#1d4ed8"/>
<circle cx="599.30" cy="368.27" r="3.2" fill="#1d4ed8"/>
<circle cx="601.68" cy="369.08" r="3.2" fill="#1d4ed8"/>
<circle cx="604.06" cy="367.87" r="3.2" fill="#1d4ed8"/>
<circle cx="606.44" cy="367.46" r="3.2" fill="#1d4ed8"/>
<circle cx="608.82" cy="367.06" r="3.2" fill="#1d4ed8"/>
<circle cx="611.20" cy="360.18" r="3.2" fill="#1d4ed8"/>
<circle cx="613.58" cy="359.78" r="3.2" fill="#1d4ed8"/>
<circle cx="615.96" cy="359.38" r="3.2" fill="#1d4ed8"/>
<circle cx="618.34" cy="356.95" r="3.2" fill="#1d4ed8"/>
<circle cx="620.72" cy="357.35" r="3.2" fill="#1d4ed8"/>
<circle cx="623.10" cy="357.76" r="3.2" fill="#1d4ed8"/>
<circle cx="625.48" cy="355.33" r="3.2" fill="#1d4ed8"/>
<circle cx="627.86" cy="355.74" r="3.2" fill="#1d4ed8"/>
<circle cx="630.24" cy="357.35" r="3.2" fill="#1d4ed8"/>
<circle cx="632.62" cy="355.33" r="3.2" fill="#1d4ed8"/>
<circle cx="635.00" cy="356.14" r="3.2" fill="#1d4ed8"/>
<circle cx="637.38" cy="355.74" r="3.2" fill="#1d4ed8"/>
<circle cx="639.76" cy="356.14" r="3.2" fill="#1d4ed8"/>
<circle cx="642.14" cy="354.12" r="3.2" fill="#1d4ed8"/>
<circle cx="644.52" cy="354.93" r="3.2" fill="#1d4ed8"/>
<circle cx="646.90" cy="356.14" r="3.2" fill="#1d4ed8"/>
<circle cx="649.28" cy="354.52" r="3.2" fill="#1d4ed8"/>
<circle cx="651.66" cy="353.71" r="3.2" fill="#1d4ed8"/>
<circle cx="654.04" cy="354.12" r="3.2" fill="#1d4ed8"/>
<circle cx="656.42" cy="354.93" r="3.2" fill="#1d4ed8"/>
<circle cx="658.80" cy="352.90" r="3.2" fill="#1d4ed8"/>
<circle cx="661.18" cy="353.71" r="3.2" fill="#1d4ed8"/>
<circle cx="663.56" cy="353.31" r="3.2" fill="#1d4ed8"/>
<circle cx="665.94" cy="353.31" r="3.2" fill="#1d4ed8"/>
<circle cx="668.32" cy="354.52" r="3.2" fill="#1d4ed8"/>
<circle cx="670.70" cy="352.90" r="3.2" fill="#1d4ed8"/>
<circle cx="673.08" cy="352.50" r="3.2" fill="#1d4ed8"/>
<circle cx="675.46" cy="352.50" r="3.2" fill="#1d4ed8"/>
<circle cx="677.84" cy="353.31" r="3.2" fill="#1d4ed8"/>
<circle cx="680.22" cy="352.50" r="3.2" fill="#1d4ed8"/>
<circle cx="682.60" cy="353.71" r="3.2" fill="#1d4ed8"/>
<circle cx="684.98" cy="354.12" r="3.2" fill="#1d4ed8"/>
<circle cx="687.36" cy="352.50" r="3.2" fill="#1d4ed8"/>
<circle cx="689.74" cy="352.90" r="3.2" fill="#1d4ed8"/>
<circle cx="692.12" cy="352.50" r="3.2" fill="#1d4ed8"/>
<circle cx="694.50" cy="352.10" r="3.2" fill="#1d4ed8"/>
<circle cx="696.88" cy="351.69" r="3.2" fill="#1d4ed8"/>
<circle cx="699.26" cy="352.10" r="3.2" fill="#1d4ed8"/>
<circle cx="701.64" cy="354.12" r="3.2" fill="#1d4ed8"/>
<circle cx="704.02" cy="352.50" r="3.2" fill="#1d4ed8"/>
<circle cx="706.40" cy="352.10" r="3.2" fill="#1d4ed8"/>
<circle cx="708.78" cy="352.10" r="3.2" fill="#1d4ed8"/>
<circle cx="711.16" cy="349.67" r="3.2" fill="#1d4ed8"/>
<circle cx="713.54" cy="349.67" r="3.2" fill="#1d4ed8"/>
<circle cx="715.92" cy="350.88" r="3.2" fill="#1d4ed8"/>
<circle cx="718.30" cy="351.29" r="3.2" fill="#1d4ed8"/>
<circle cx="720.68" cy="350.48" r="3.2" fill="#1d4ed8"/>
<circle cx="723.06" cy="352.10" r="3.2" fill="#1d4ed8"/>
<circle cx="725.44" cy="350.48" r="3.2" fill="#1d4ed8"/>
<circle cx="727.82" cy="350.48" r="3.2" fill="#1d4ed8"/>
<circle cx="730.20" cy="350.48" r="3.2" fill="#1d4ed8"/>
<circle cx="732.58" cy="350.07" r="3.2" fill="#1d4ed8"/>
<circle cx="734.96" cy="348.46" r="3.2" fill="#1d4ed8"/>
<circle cx="737.34" cy="351.29" r="3.2" fill="#1d4ed8"/>
<circle cx="739.72" cy="349.67" r="3.2" fill="#1d4ed8"/>
<circle cx="742.10" cy="351.29" r="3.2" fill="#1d4ed8"/>
<circle cx="744.48" cy="349.67" r="3.2" fill="#1d4ed8"/>
<circle cx="746.86" cy="348.86" r="3.2" fill="#1d4ed8"/>
<circle cx="749.24" cy="348.46" r="3.2" fill="#1d4ed8"/>
<circle cx="751.62" cy="348.46" r="3.2" fill="#1d4ed8"/>
<circle cx="754.00" cy="347.24" r="3.2" fill="#1d4ed8"/>
<circle cx="756.38" cy="348.86" r="3.2" fill="#1d4ed8"/>
<circle cx="758.76" cy="346.84" r="3.2" fill="#1d4ed8"/>
<circle cx="761.14" cy="348.46" r="3.2" fill="#1d4ed8"/>
<circle cx="763.52" cy="348.86" r="3.2" fill="#1d4ed8"/>
<circle cx="765.90" cy="346.84" r="3.2" fill="#1d4ed8"/>
<circle cx="768.28" cy="349.26" r="3.2" fill="#1d4ed8"/>
<circle cx="770.66" cy="348.05" r="3.2" fill="#1d4ed8"/>
<circle cx="773.03" cy="349.26" r="3.2" fill="#1d4ed8"/>
<circle cx="775.41" cy="349.26" r="3.2" fill="#1d4ed8"/>
<circle cx="777.79" cy="350.48" r="3.2" fill="#1d4ed8"/>
<circle cx="780.17" cy="352.90" r="3.2" fill="#1d4ed8"/>
<circle cx="782.55" cy="349.67" r="3.2" fill="#1d4ed8"/>
<circle cx="784.93" cy="348.46" r="3.2" fill="#1d4ed8"/>
<circle cx="787.31" cy="345.62" r="3.2" fill="#1d4ed8"/>
<circle cx="789.69" cy="344.82" r="3.2" fill="#1d4ed8"/>
<circle cx="792.07" cy="344.41" r="3.2" fill="#1d4ed8"/>
<circle cx="794.45" cy="342.39" r="3.2" fill="#1d4ed8"/>
<circle cx="796.83" cy="341.18" r="3.2" fill="#1d4ed8"/>
<circle cx="799.21" cy="341.58" r="3.2" fill="#1d4ed8"/>
<circle cx="801.59" cy="339.15" r="3.2" fill="#1d4ed8"/>
<circle cx="803.97" cy="338.35" r="3.2" fill="#1d4ed8"/>
<circle cx="806.35" cy="337.54" r="3.2" fill="#1d4ed8"/>
<circle cx="808.73" cy="336.73" r="3.2" fill="#1d4ed8"/>
<circle cx="811.11" cy="335.92" r="3.2" fill="#1d4ed8"/>
<circle cx="813.49" cy="337.54" r="3.2" fill="#1d4ed8"/>
<circle cx="815.87" cy="338.35" r="3.2" fill="#1d4ed8"/>
<circle cx="818.25" cy="337.54" r="3.2" fill="#1d4ed8"/>
<circle cx="820.63" cy="337.54" r="3.2" fill="#1d4ed8"/>
<circle cx="823.01" cy="337.54" r="3.2" fill="#1d4ed8"/>
<circle cx="825.39" cy="333.09" r="3.2" fill="#1d4ed8"/>
<circle cx="827.77" cy="333.90" r="3.2" fill="#1d4ed8"/>
<circle cx="830.15" cy="335.92" r="3.2" fill="#1d4ed8"/>
<circle cx="832.53" cy="336.73" r="3.2" fill="#1d4ed8"/>
<circle cx="834.91" cy="335.51" r="3.2" fill="#1d4ed8"/>
<circle cx="837.29" cy="332.28" r="3.2" fill="#1d4ed8"/>
<circle cx="839.67" cy="331.47" r="3.2" fill="#1d4ed8"/>
<circle cx="842.05" cy="331.07" r="3.2" fill="#1d4ed8"/>
<circle cx="844.43" cy="331.47" r="3.2" fill="#1d4ed8"/>
<circle cx="846.81" cy="331.07" r="3.2" fill="#1d4ed8"/>
<circle cx="849.19" cy="331.07" r="3.2" fill="#1d4ed8"/>
<circle cx="851.57" cy="331.07" r="3.2" fill="#1d4ed8"/>
<circle cx="853.95" cy="331.07" r="3.2" fill="#1d4ed8"/>
<circle cx="856.33" cy="331.07" r="3.2" fill="#1d4ed8"/>
<circle cx="858.71" cy="331.07" r="3.2" fill="#1d4ed8"/>
<circle cx="861.09" cy="331.07" r="3.2" fill="#1d4ed8"/>
<circle cx="863.47" cy="331.07" r="3.2" fill="#1d4ed8"/>
<circle cx="865.85" cy="331.07" r="3.2" fill="#1d4ed8"/>
<circle cx="868.23" cy="331.07" r="3.2" fill="#1d4ed8"/>
<circle cx="870.61" cy="331.47" r="3.2" fill="#1d4ed8"/>
<circle cx="872.99" cy="331.88" r="3.2" fill="#1d4ed8"/>
<circle cx="875.37" cy="331.07" r="3.2" fill="#1d4ed8"/>
<circle cx="877.75" cy="331.47" r="3.2" fill="#1d4ed8"/>
<circle cx="880.13" cy="331.07" r="3.2" fill="#1d4ed8"/>
<circle cx="882.51" cy="331.47" r="3.2" fill="#1d4ed8"/>
<circle cx="884.89" cy="331.07" r="3.2" fill="#1d4ed8"/>
<circle cx="887.27" cy="324.19" r="3.2" fill="#1d4ed8"/>
<circle cx="889.65" cy="324.19" r="3.2" fill="#1d4ed8"/>
<circle cx="892.03" cy="318.93" r="3.2" fill="#1d4ed8"/>
<circle cx="894.41" cy="316.51" r="3.2" fill="#1d4ed8"/>
<circle cx="896.79" cy="310.44" r="3.2" fill="#1d4ed8"/>
<circle cx="899.17" cy="308.01" r="3.2" fill="#1d4ed8"/>
<circle cx="901.55" cy="600.00" r="3.2" fill="#1d4ed8"/>
<circle cx="903.93" cy="301.54" r="3.2" fill="#1d4ed8"/>
<circle cx="906.31" cy="290.22" r="3.2" fill="#1d4ed8"/>
<circle cx="908.69" cy="287.79" r="3.2" fill="#1d4ed8"/>
<circle cx="911.07" cy="286.18" r="3.2" fill="#1d4ed8"/>
<circle cx="913.45" cy="285.77" r="3.2" fill="#1d4ed8"/>
<circle cx="915.83" cy="285.77" r="3.2" fill="#1d4ed8"/>
<circle cx="918.21" cy="285.77" r="3.2" fill="#1d4ed8"/>
<circle cx="920.59" cy="286.18" r="3.2" fill="#1d4ed8"/>
<circle cx="922.97" cy="285.77" r="3.2" fill="#1d4ed8"/>
<circle cx="925.35" cy="285.77" r="3.2" fill="#1d4ed8"/>
<circle cx="927.73" cy="285.77" r="3.2" fill="#1d4ed8"/>
<circle cx="930.11" cy="283.35" r="3.2" fill="#1d4ed8"/>
<circle cx="932.49" cy="282.94" r="3.2" fill="#1d4ed8"/>
<circle cx="934.87" cy="282.94" r="3.2" fill="#1d4ed8"/>
<circle cx="937.25" cy="283.35" r="3.2" fill="#1d4ed8"/>
<circle cx="939.63" cy="282.94" r="3.2" fill="#1d4ed8"/>
<circle cx="942.01" cy="282.94" r="3.2" fill="#1d4ed8"/>
<circle cx="944.39" cy="283.75" r="3.2" fill="#1d4ed8"/>
<circle cx="946.77" cy="282.13" r="3.2" fill="#1d4ed8"/>
<circle cx="949.15" cy="282.13" r="3.2" fill="#1d4ed8"/>
<circle cx="951.53" cy="282.54" r="3.2" fill="#1d4ed8"/>
<circle cx="953.91" cy="282.13" r="3.2" fill="#1d4ed8"/>
<circle cx="956.29" cy="282.54" r="3.2" fill="#1d4ed8"/>
<circle cx="958.67" cy="282.94" r="3.2" fill="#1d4ed8"/>
<circle cx="961.05" cy="281.73" r="3.2" fill="#1d4ed8"/>
<circle cx="963.43" cy="282.54" r="3.2" fill="#1d4ed8"/>
<circle cx="965.81" cy="281.73" r="3.2" fill="#1d4ed8"/>
<circle cx="968.19" cy="282.54" r="3.2" fill="#1d4ed8"/>
<circle cx="970.57" cy="282.13" r="3.2" fill="#1d4ed8"/>
<circle cx="972.95" cy="282.13" r="3.2" fill="#1d4ed8"/>
<circle cx="975.33" cy="281.73" r="3.2" fill="#1d4ed8"/>
<circle cx="977.71" cy="281.73" r="3.2" fill="#1d4ed8"/>
<circle cx="980.09" cy="281.32" r="3.2" fill="#1d4ed8"/>
<circle cx="982.47" cy="281.73" r="3.2" fill="#1d4ed8"/>
<circle cx="984.85" cy="282.13" r="3.2" fill="#1d4ed8"/>
<circle cx="987.23" cy="281.32" r="3.2" fill="#1d4ed8"/>
<circle cx="989.61" cy="281.32" r="3.2" fill="#1d4ed8"/>
<circle cx="991.99" cy="282.54" r="3.2" fill="#1d4ed8"/>
<circle cx="994.37" cy="282.13" r="3.2" fill="#1d4ed8"/>
<circle cx="996.75" cy="281.32" r="3.2" fill="#1d4ed8"/>
<circle cx="999.13" cy="281.32" r="3.2" fill="#1d4ed8"/>
<circle cx="1001.51" cy="281.32" r="3.2" fill="#1d4ed8"/>
<circle cx="1003.89" cy="282.54" r="3.2" fill="#1d4ed8"/>
<circle cx="1006.27" cy="282.13" r="3.2" fill="#1d4ed8"/>
<circle cx="1008.65" cy="281.32" r="3.2" fill="#1d4ed8"/>
<circle cx="1011.03" cy="282.13" r="3.2" fill="#1d4ed8"/>
<circle cx="1013.41" cy="281.73" r="3.2" fill="#1d4ed8"/>
<circle cx="1015.79" cy="282.13" r="3.2" fill="#1d4ed8"/>
<circle cx="1018.17" cy="280.11" r="3.2" fill="#1d4ed8"/>
<circle cx="1020.55" cy="280.11" r="3.2" fill="#1d4ed8"/>
<circle cx="1022.93" cy="280.51" r="3.2" fill="#1d4ed8"/>
<circle cx="1025.31" cy="279.71" r="3.2" fill="#1d4ed8"/>
<circle cx="1027.69" cy="280.11" r="3.2" fill="#1d4ed8"/>
<circle cx="1030.07" cy="280.51" r="3.2" fill="#1d4ed8"/>
<circle cx="1032.45" cy="279.71" r="3.2" fill="#1d4ed8"/>
<circle cx="1034.83" cy="280.11" r="3.2" fill="#1d4ed8"/>
<circle cx="1037.21" cy="280.11" r="3.2" fill="#1d4ed8"/>
<circle cx="1039.59" cy="279.30" r="3.2" fill="#1d4ed8"/>
<circle cx="1041.97" cy="278.90" r="3.2" fill="#1d4ed8"/>
<circle cx="1044.34" cy="278.90" r="3.2" fill="#1d4ed8"/>
<circle cx="1046.72" cy="280.51" r="3.2" fill="#1d4ed8"/>
<circle cx="1049.10" cy="279.30" r="3.2" fill="#1d4ed8"/>
<circle cx="1051.48" cy="278.09" r="3.2" fill="#1d4ed8"/>
<circle cx="1053.86" cy="278.49" r="3.2" fill="#1d4ed8"/>
<circle cx="1056.24" cy="278.49" r="3.2" fill="#1d4ed8"/>
<circle cx="1058.62" cy="277.28" r="3.2" fill="#1d4ed8"/>
<circle cx="1061.00" cy="277.68" r="3.2" fill="#1d4ed8"/>
<circle cx="1063.38" cy="277.68" r="3.2" fill="#1d4ed8"/>
<circle cx="1065.76" cy="278.09" r="3.2" fill="#1d4ed8"/>
<circle cx="1068.14" cy="277.28" r="3.2" fill="#1d4ed8"/>
<circle cx="1070.52" cy="600.00" r="3.2" fill="#1d4ed8"/>
<circle cx="1072.90" cy="278.90" r="3.2" fill="#1d4ed8"/>
<circle cx="1075.28" cy="279.30" r="3.2" fill="#1d4ed8"/>
<circle cx="1077.66" cy="278.90" r="3.2" fill="#1d4ed8"/>
<circle cx="1080.04" cy="278.49" r="3.2" fill="#1d4ed8"/>
<circle cx="1082.42" cy="278.49" r="3.2" fill="#1d4ed8"/>
<circle cx="1084.80" cy="278.49" r="3.2" fill="#1d4ed8"/>
<circle cx="1087.18" cy="278.49" r="3.2" fill="#1d4ed8"/>
<circle cx="1089.56" cy="278.49" r="3.2" fill="#1d4ed8"/>
<circle cx="1091.94" cy="278.49" r="3.2" fill="#1d4ed8"/>
<circle cx="1094.32" cy="278.49" r="3.2" fill="#1d4ed8"/>
<circle cx="1096.70" cy="278.49" r="3.2" fill="#1d4ed8"/>
<circle cx="1099.08" cy="278.49" r="3.2" fill="#1d4ed8"/>
<circle cx="1101.46" cy="278.49" r="3.2" fill="#1d4ed8"/>
<circle cx="1103.84" cy="278.49" r="3.2" fill="#1d4ed8"/>
<circle cx="1106.22" cy="278.49" r="3.2" fill="#1d4ed8"/>
<circle cx="1108.60" cy="600.00" r="3.2" fill="#1d4ed8"/>
<circle cx="1110.98" cy="600.00" r="3.2" fill="#1d4ed8"/>
<circle cx="1113.36" cy="254.63" r="3.2" fill="#1d4ed8"/>
<circle cx="1115.74" cy="600.00" r="3.2" fill="#1d4ed8"/>
<circle cx="1118.12" cy="245.74" r="3.2" fill="#1d4ed8"/>
<circle cx="1120.50" cy="245.74" r="3.2" fill="#1d4ed8"/>
<circle cx="1122.88" cy="246.14" r="3.2" fill="#1d4ed8"/>
<circle cx="1125.26" cy="245.74" r="3.2" fill="#1d4ed8"/>
<circle cx="1127.64" cy="245.74" r="3.2" fill="#1d4ed8"/>
<circle cx="1130.02" cy="245.74" r="3.2" fill="#1d4ed8"/>
<circle cx="1132.40" cy="245.74" r="3.2" fill="#1d4ed8"/>
<circle cx="1134.78" cy="245.74" r="3.2" fill="#1d4ed8"/>
<circle cx="1137.16" cy="240.07" r="3.2" fill="#1d4ed8"/>
<circle cx="1139.54" cy="238.05" r="3.2" fill="#1d4ed8"/>
<circle cx="1141.92" cy="238.05" r="3.2" fill="#1d4ed8"/>
<circle cx="1144.30" cy="227.13" r="3.2" fill="#1d4ed8"/>
<circle cx="1146.68" cy="227.13" r="3.2" fill="#1d4ed8"/>
<circle cx="1149.06" cy="226.32" r="3.2" fill="#1d4ed8"/>
<circle cx="1151.44" cy="227.54" r="3.2" fill="#1d4ed8"/>
<circle cx="1153.82" cy="226.73" r="3.2" fill="#1d4ed8"/>
<circle cx="1156.20" cy="226.32" r="3.2" fill="#1d4ed8"/>
<circle cx="1158.58" cy="227.13" r="3.2" fill="#1d4ed8"/>
<circle cx="1160.96" cy="227.13" r="3.2" fill="#1d4ed8"/>
<circle cx="1163.34" cy="226.73" r="3.2" fill="#1d4ed8"/>
<circle cx="1165.72" cy="226.32" r="3.2" fill="#1d4ed8"/>
<circle cx="1168.10" cy="226.73" r="3.2" fill="#1d4ed8"/>
<circle cx="1170.48" cy="226.73" r="3.2" fill="#1d4ed8"/>
<circle cx="1172.86" cy="226.73" r="3.2" fill="#1d4ed8"/>
<circle cx="1175.24" cy="225.11" r="3.2" fill="#1d4ed8"/>
<circle cx="1177.62" cy="224.71" r="3.2" fill="#1d4ed8"/>
<circle cx="1180.00" cy="225.11" r="3.2" fill="#1d4ed8"/>
<text x="635" y="695" text-anchor="middle" font-size="14" fill="#111" font-family="sans-serif">Date</text>
<text x="24" y="325" text-anchor="middle" font-size="14" fill="#111" transform="rotate(-90 24,325)" font-family="sans-serif">Passed files</text>
</svg>
