<?xml version="1.0" encoding="UTF-8"?>
<svg xmlns="http://www.w3.org/2000/svg" width="1280" height="720" viewBox="0 0 1280 720">
<rect width="100%" height="100%" fill="#ffffff"/>
<text x="640" y="30" text-anchor="middle" font-size="22" font-family="sans-serif">Roast passed files history</text>
<line x1="90" y1="600" x2="1180" y2="600" stroke="#333" stroke-width="1.5"/>
<line x1="90" y1="50" x2="90" y2="600" stroke="#333" stroke-width="1.5"/>
<line x1="90" y1="600.00" x2="1180" y2="600.00" stroke="#e5e7eb" stroke-width="1"/>
<text x="78" y="605.00" text-anchor="end" font-size="12" fill="#111" font-family="sans-serif">0</text>
<line x1="90" y1="397.79" x2="1180" y2="397.79" stroke="#e5e7eb" stroke-width="1"/>
<text x="78" y="402.79" text-anchor="end" font-size="12" fill="#111" font-family="sans-serif">500</text>
<line x1="90" y1="195.59" x2="1180" y2="195.59" stroke="#e5e7eb" stroke-width="1"/>
<text x="78" y="200.59" text-anchor="end" font-size="12" fill="#111" font-family="sans-serif">1000</text>
<line x1="90.00" y1="600" x2="90.00" y2="606" stroke="#333" stroke-width="1"/>
<text x="90.00" y="624" text-anchor="end" font-size="11" fill="#111" transform="rotate(-40 90.00,624)" font-family="sans-serif">2026-02-12</text>
<line x1="222.70" y1="600" x2="222.70" y2="606" stroke="#333" stroke-width="1"/>
<text x="222.70" y="624" text-anchor="end" font-size="11" fill="#111" transform="rotate(-40 222.70,624)" font-family="sans-serif">2026-02-17</text>
<line x1="355.39" y1="600" x2="355.39" y2="606" stroke="#333" stroke-width="1"/>
<text x="355.39" y="624" text-anchor="end" font-size="11" fill="#111" transform="rotate(-40 355.39,624)" font-family="sans-serif">2026-02-18</text>
<line x1="488.09" y1="600" x2="488.09" y2="606" stroke="#333" stroke-width="1"/>
<text x="488.09" y="624" text-anchor="end" font-size="11" fill="#111" transform="rotate(-40 488.09,624)" font-family="sans-serif">2026-02-21</text>
<line x1="620.78" y1="600" x2="620.78" y2="606" stroke="#333" stroke-width="1"/>
<text x="620.78" y="624" text-anchor="end" font-size="11" fill="#111" transform="rotate(-40 620.78,624)" font-family="sans-serif">2026-02-24</text>
<line x1="753.48" y1="600" x2="753.48" y2="606" stroke="#333" stroke-width="1"/>
<text x="753.48" y="624" text-anchor="end" font-size="11" fill="#111" transform="rotate(-40 753.48,624)" font-family="sans-serif">2026-02-25</text>
<line x1="886.17" y1="600" x2="886.17" y2="606" stroke="#333" stroke-width="1"/>
<text x="886.17" y="624" text-anchor="end" font-size="11" fill="#111" transform="rotate(-40 886.17,624)" font-family="sans-serif">2026-02-27</text>
<line x1="1018.87" y1="600" x2="1018.87" y2="606" stroke="#333" stroke-width="1"/>
<text x="1018.87" y="624" text-anchor="end" font-size="11" fill="#111" transform="rotate(-40 1018.87,624)" font-family="sans-serif">2026-02-28</text>
<line x1="1151.57" y1="600" x2="1151.57" y2="606" stroke="#333" stroke-width="1"/>
<text x="1151.57" y="624" text-anchor="end" font-size="11" fill="#111" transform="rotate(-40 1151.57,624)" font-family="sans-serif">2026-03-06</text>
<line x1="1180.00" y1="600" x2="1180.00" y2="606" stroke="#333" stroke-width="1"/>
<text x="1180.00" y="624" text-anchor="end" font-size="11" fill="#111" transform="rotate(-40 1180.00,624)" font-family="sans-serif">2026-03-06</text>
<line x1="90" y1="75.88" x2="1180" y2="75.88" stroke="#dc2626" stroke-width="1.5" stroke-dasharray="8,4"/>
<text x="1184" y="79.88" font-size="12" fill="#dc2626" font-family="sans-serif">Goal: 1296</text>
<polyline fill="none" stroke="#2563eb" stroke-width="3" points="90.00,540.55 94.74,538.53 99.48,536.91 104.22,534.49 108.96,534.49 113.70,533.27 118.43,532.46 123.17,532.87 127.91,532.06 132.65,532.46 137.39,532.06 142.13,568.46 146.87,568.46 151.61,566.43 156.35,545.00 161.09,545.00 165.83,544.19 170.57,543.79 175.30,543.79 180.04,543.38 184.78,541.76 189.52,541.36 194.26,540.96 199.00,540.96 203.74,539.34 208.48,539.34 213.22,556.73 217.96,556.73 222.70,555.51 227.43,551.07 232.17,538.93 236.91,538.93 241.65,538.93 246.39,538.12 251.13,536.91 255.87,536.91 260.61,536.51 265.35,536.51 270.09,556.73 274.83,556.73 279.57,556.73 284.30,556.73 289.04,535.29 293.78,535.29 298.52,535.29 303.26,535.29 308.00,534.49 312.74,534.08 317.48,533.68 322.22,532.87 326.96,532.06 331.70,532.06 336.43,531.25 341.17,530.85 345.91,530.44 350.65,530.04 355.39,530.04 360.13,529.23 364.87,529.23 369.61,529.23 374.35,528.42 379.09,528.42 383.83,527.61 388.57,527.21 393.30,526.80 398.04,526.40 402.78,525.18 407.52,523.57 412.26,523.57 417.00,523.16 421.74,522.76 426.48,522.35 431.22,521.54 435.96,519.52 440.70,517.50 445.43,517.50 450.17,517.50 454.91,517.50 459.65,517.50 464.39,517.50 469.13,517.10 473.87,516.69 478.61,515.48 483.35,515.07 488.09,514.67 492.83,513.86 497.57,514.26 502.30,512.24 507.04,511.84 511.78,511.84 516.52,511.03 521.26,509.82 526.00,507.79 530.74,506.99 535.48,506.58 540.22,509.41 544.96,509.01 549.70,504.96 554.43,504.56 559.17,504.15 563.91,504.56 568.65,503.75 573.39,503.75 578.13,503.35 582.87,499.30 587.61,496.47 592.35,490.00 597.09,484.34 601.83,481.10 606.57,480.29 611.30,480.70 616.04,460.88 620.78,459.26 625.52,458.05 630.26,456.03 635.00,456.03 639.74,454.41 644.48,450.77 649.22,444.30 653.96,443.90 658.70,600.00 663.43,441.88 668.17,440.66 672.91,439.45 677.65,439.04 682.39,438.64 687.13,437.83 691.87,436.62 696.61,436.62 701.35,434.60 706.09,432.17 710.83,429.34 715.57,428.93 720.30,428.53 725.04,427.72 729.78,426.91 734.52,426.10 739.26,426.10 744.00,426.10 748.74,419.63 753.48,419.23 758.22,418.42 762.96,418.01 767.70,417.61 772.43,417.61 777.17,417.61 781.91,417.21 786.65,417.21 791.39,413.57 796.13,411.95 800.87,412.76 805.61,410.74 810.35,410.74 815.09,410.33 819.83,410.33 824.57,410.33 829.30,409.93 834.04,409.93 838.78,409.93 843.52,409.52 848.26,409.52 853.00,409.12 857.74,409.52 862.48,409.12 867.22,407.50 871.96,407.10 876.70,403.05 881.43,399.82 886.17,400.22 890.91,400.62 895.65,400.62 900.39,399.41 905.13,392.94 909.87,391.32 914.61,389.30 919.35,389.30 924.09,388.49 928.83,375.15 933.57,374.74 938.30,374.74 943.04,374.74 947.78,374.74 952.52,374.34 957.26,374.34 962.00,374.34 966.74,374.34 971.48,374.34 976.22,373.93 980.96,373.12 985.70,372.72 990.43,373.53 995.17,435.81 999.91,372.32 1004.65,372.72 1009.39,371.91 1014.13,371.91 1018.87,372.32 1023.61,371.10 1028.35,369.89 1033.09,369.89 1037.83,369.89 1042.57,369.49 1047.30,369.89 1052.04,369.08 1056.78,368.68 1061.52,368.27 1066.26,367.87 1071.00,367.06 1075.74,367.46 1080.48,367.06 1085.22,366.25 1089.96,368.27 1094.70,368.68 1099.43,368.68 1104.17,368.27 1108.91,369.08 1113.65,367.87 1118.39,367.46 1123.13,367.06 1127.87,360.18 1132.61,359.78 1137.35,359.38 1142.09,356.95 1146.83,357.35 1151.57,357.76 1156.30,355.33 1161.04,355.74 1165.78,357.35 1170.52,355.33 1175.26,356.14 1180.00,355.74"/>
<circle cx="90.00" cy="540.55" r="3.2" fill="#1d4ed8"/>
<circle cx="94.74" cy="538.53" r="3.2" fill="#1d4ed8"/>
<circle cx="99.48" cy="536.91" r="3.2" fill="#1d4ed8"/>
<circle cx="104.22" cy="534.49" r="3.2" fill="#1d4ed8"/>
<circle cx="108.96" cy="534.49" r="3.2" fill="#1d4ed8"/>
<circle cx="113.70" cy="533.27" r="3.2" fill="#1d4ed8"/>
<circle cx="118.43" cy="532.46" r="3.2" fill="#1d4ed8"/>
<circle cx="123.17" cy="532.87" r="3.2" fill="#1d4ed8"/>
<circle cx="127.91" cy="532.06" r="3.2" fill="#1d4ed8"/>
<circle cx="132.65" cy="532.46" r="3.2" fill="#1d4ed8"/>
<circle cx="137.39" cy="532.06" r="3.2" fill="#1d4ed8"/>
<circle cx="142.13" cy="568.46" r="3.2" fill="#1d4ed8"/>
<circle cx="146.87" cy="568.46" r="3.2" fill="#1d4ed8"/>
<circle cx="151.61" cy="566.43" r="3.2" fill="#1d4ed8"/>
<circle cx="156.35" cy="545.00" r="3.2" fill="#1d4ed8"/>
<circle cx="161.09" cy="545.00" r="3.2" fill="#1d4ed8"/>
<circle cx="165.83" cy="544.19" r="3.2" fill="#1d4ed8"/>
<circle cx="170.57" cy="543.79" r="3.2" fill="#1d4ed8"/>
<circle cx="175.30" cy="543.79" r="3.2" fill="#1d4ed8"/>
<circle cx="180.04" cy="543.38" r="3.2" fill="#1d4ed8"/>
<circle cx="184.78" cy="541.76" r="3.2" fill="#1d4ed8"/>
<circle cx="189.52" cy="541.36" r="3.2" fill="#1d4ed8"/>
<circle cx="194.26" cy="540.96" r="3.2" fill="#1d4ed8"/>
<circle cx="199.00" cy="540.96" r="3.2" fill="#1d4ed8"/>
<circle cx="203.74" cy="539.34" r="3.2" fill="#1d4ed8"/>
<circle cx="208.48" cy="539.34" r="3.2" fill="#1d4ed8"/>
<circle cx="213.22" cy="556.73" r="3.2" fill="#1d4ed8"/>
<circle cx="217.96" cy="556.73" r="3.2" fill="#1d4ed8"/>
<circle cx="222.70" cy="555.51" r="3.2" fill="#1d4ed8"/>
<circle cx="227.43" cy="551.07" r="3.2" fill="#1d4ed8"/>
<circle cx="232.17" cy="538.93" r="3.2" fill="#1d4ed8"/>
<circle cx="236.91" cy="538.93" r="3.2" fill="#1d4ed8"/>
<circle cx="241.65" cy="538.93" r="3.2" fill="#1d4ed8"/>
<circle cx="246.39" cy="538.12" r="3.2" fill="#1d4ed8"/>
<circle cx="251.13" cy="536.91" r="3.2" fill="#1d4ed8"/>
<circle cx="255.87" cy="536.91" r="3.2" fill="#1d4ed8"/>
<circle cx="260.61" cy="536.51" r="3.2" fill="#1d4ed8"/>
<circle cx="265.35" cy="536.51" r="3.2" fill="#1d4ed8"/>
<circle cx="270.09" cy="556.73" r="3.2" fill="#1d4ed8"/>
<circle cx="274.83" cy="556.73" r="3.2" fill="#1d4ed8"/>
<circle cx="279.57" cy="556.73" r="3.2" fill="#1d4ed8"/>
<circle cx="284.30" cy="556.73" r="3.2" fill="#1d4ed8"/>
<circle cx="289.04" cy="535.29" r="3.2" fill="#1d4ed8"/>
<circle cx="293.78" cy="535.29" r="3.2" fill="#1d4ed8"/>
<circle cx="298.52" cy="535.29" r="3.2" fill="#1d4ed8"/>
<circle cx="303.26" cy="535.29" r="3.2" fill="#1d4ed8"/>
<circle cx="308.00" cy="534.49" r="3.2" fill="#1d4ed8"/>
<circle cx="312.74" cy="534.08" r="3.2" fill="#1d4ed8"/>
<circle cx="317.48" cy="533.68" r="3.2" fill="#1d4ed8"/>
<circle cx="322.22" cy="532.87" r="3.2" fill="#1d4ed8"/>
<circle cx="326.96" cy="532.06" r="3.2" fill="#1d4ed8"/>
<circle cx="331.70" cy="532.06" r="3.2" fill="#1d4ed8"/>
<circle cx="336.43" cy="531.25" r="3.2" fill="#1d4ed8"/>
<circle cx="341.17" cy="530.85" r="3.2" fill="#1d4ed8"/>
<circle cx="345.91" cy="530.44" r="3.2" fill="#1d4ed8"/>
<circle cx="350.65" cy="530.04" r="3.2" fill="#1d4ed8"/>
<circle cx="355.39" cy="530.04" r="3.2" fill="#1d4ed8"/>
<circle cx="360.13" cy="529.23" r="3.2" fill="#1d4ed8"/>
<circle cx="364.87" cy="529.23" r="3.2" fill="#1d4ed8"/>
<circle cx="369.61" cy="529.23" r="3.2" fill="#1d4ed8"/>
<circle cx="374.35" cy="528.42" r="3.2" fill="#1d4ed8"/>
<circle cx="379.09" cy="528.42" r="3.2" fill="#1d4ed8"/>
<circle cx="383.83" cy="527.61" r="3.2" fill="#1d4ed8"/>
<circle cx="388.57" cy="527.21" r="3.2" fill="#1d4ed8"/>
<circle cx="393.30" cy="526.80" r="3.2" fill="#1d4ed8"/>
<circle cx="398.04" cy="526.40" r="3.2" fill="#1d4ed8"/>
<circle cx="402.78" cy="525.18" r="3.2" fill="#1d4ed8"/>
<circle cx="407.52" cy="523.57" r="3.2" fill="#1d4ed8"/>
<circle cx="412.26" cy="523.57" r="3.2" fill="#1d4ed8"/>
<circle cx="417.00" cy="523.16" r="3.2" fill="#1d4ed8"/>
<circle cx="421.74" cy="522.76" r="3.2" fill="#1d4ed8"/>
<circle cx="426.48" cy="522.35" r="3.2" fill="#1d4ed8"/>
<circle cx="431.22" cy="521.54" r="3.2" fill="#1d4ed8"/>
<circle cx="435.96" cy="519.52" r="3.2" fill="#1d4ed8"/>
<circle cx="440.70" cy="517.50" r="3.2" fill="#1d4ed8"/>
<circle cx="445.43" cy="517.50" r="3.2" fill="#1d4ed8"/>
<circle cx="450.17" cy="517.50" r="3.2" fill="#1d4ed8"/>
<circle cx="454.91" cy="517.50" r="3.2" fill="#1d4ed8"/>
<circle cx="459.65" cy="517.50" r="3.2" fill="#1d4ed8"/>
<circle cx="464.39" cy="517.50" r="3.2" fill="#1d4ed8"/>
<circle cx="469.13" cy="517.10" r="3.2" fill="#1d4ed8"/>
<circle cx="473.87" cy="516.69" r="3.2" fill="#1d4ed8"/>
<circle cx="478.61" cy="515.48" r="3.2" fill="#1d4ed8"/>
<circle cx="483.35" cy="515.07" r="3.2" fill="#1d4ed8"/>
<circle cx="488.09" cy="514.67" r="3.2" fill="#1d4ed8"/>
<circle cx="492.83" cy="513.86" r="3.2" fill="#1d4ed8"/>
<circle cx="497.57" cy="514.26" r="3.2" fill="#1d4ed8"/>
<circle cx="502.30" cy="512.24" r="3.2" fill="#1d4ed8"/>
<circle cx="507.04" cy="511.84" r="3.2" fill="#1d4ed8"/>
<circle cx="511.78" cy="511.84" r="3.2" fill="#1d4ed8"/>
<circle cx="516.52" cy="511.03" r="3.2" fill="#1d4ed8"/>
<circle cx="521.26" cy="509.82" r="3.2" fill="#1d4ed8"/>
<circle cx="526.00" cy="507.79" r="3.2" fill="#1d4ed8"/>
<circle cx="530.74" cy="506.99" r="3.2" fill="#1d4ed8"/>
<circle cx="535.48" cy="506.58" r="3.2" fill="#1d4ed8"/>
<circle cx="540.22" cy="509.41" r="3.2" fill="#1d4ed8"/>
<circle cx="544.96" cy="509.01" r="3.2" fill="#1d4ed8"/>
<circle cx="549.70" cy="504.96" r="3.2" fill="#1d4ed8"/>
<circle cx="554.43" cy="504.56" r="3.2" fill="#1d4ed8"/>
<circle cx="559.17" cy="504.15" r="3.2" fill="#1d4ed8"/>
<circle cx="563.91" cy="504.56" r="3.2" fill="#1d4ed8"/>
<circle cx="568.65" cy="503.75" r="3.2" fill="#1d4ed8"/>
<circle cx="573.39" cy="503.75" r="3.2" fill="#1d4ed8"/>
<circle cx="578.13" cy="503.35" r="3.2" fill="#1d4ed8"/>
<circle cx="582.87" cy="499.30" r="3.2" fill="#1d4ed8"/>
<circle cx="587.61" cy="496.47" r="3.2" fill="#1d4ed8"/>
<circle cx="592.35" cy="490.00" r="3.2" fill="#1d4ed8"/>
<circle cx="597.09" cy="484.34" r="3.2" fill="#1d4ed8"/>
<circle cx="601.83" cy="481.10" r="3.2" fill="#1d4ed8"/>
<circle cx="606.57" cy="480.29" r="3.2" fill="#1d4ed8"/>
<circle cx="611.30" cy="480.70" r="3.2" fill="#1d4ed8"/>
<circle cx="616.04" cy="460.88" r="3.2" fill="#1d4ed8"/>
<circle cx="620.78" cy="459.26" r="3.2" fill="#1d4ed8"/>
<circle cx="625.52" cy="458.05" r="3.2" fill="#1d4ed8"/>
<circle cx="630.26" cy="456.03" r="3.2" fill="#1d4ed8"/>
<circle cx="635.00" cy="456.03" r="3.2" fill="#1d4ed8"/>
<circle cx="639.74" cy="454.41" r="3.2" fill="#1d4ed8"/>
<circle cx="644.48" cy="450.77" r="3.2" fill="#1d4ed8"/>
<circle cx="649.22" cy="444.30" r="3.2" fill="#1d4ed8"/>
<circle cx="653.96" cy="443.90" r="3.2" fill="#1d4ed8"/>
<circle cx="658.70" cy="600.00" r="3.2" fill="#1d4ed8"/>
<circle cx="663.43" cy="441.88" r="3.2" fill="#1d4ed8"/>
<circle cx="668.17" cy="440.66" r="3.2" fill="#1d4ed8"/>
<circle cx="672.91" cy="439.45" r="3.2" fill="#1d4ed8"/>
<circle cx="677.65" cy="439.04" r="3.2" fill="#1d4ed8"/>
<circle cx="682.39" cy="438.64" r="3.2" fill="#1d4ed8"/>
<circle cx="687.13" cy="437.83" r="3.2" fill="#1d4ed8"/>
<circle cx="691.87" cy="436.62" r="3.2" fill="#1d4ed8"/>
<circle cx="696.61" cy="436.62" r="3.2" fill="#1d4ed8"/>
<circle cx="701.35" cy="434.60" r="3.2" fill="#1d4ed8"/>
<circle cx="706.09" cy="432.17" r="3.2" fill="#1d4ed8"/>
<circle cx="710.83" cy="429.34" r="3.2" fill="#1d4ed8"/>
<circle cx="715.57" cy="428.93" r="3.2" fill="#1d4ed8"/>
<circle cx="720.30" cy="428.53" r="3.2" fill="#1d4ed8"/>
<circle cx="725.04" cy="427.72" r="3.2" fill="#1d4ed8"/>
<circle cx="729.78" cy="426.91" r="3.2" fill="#1d4ed8"/>
<circle cx="734.52" cy="426.10" r="3.2" fill="#1d4ed8"/>
<circle cx="739.26" cy="426.10" r="3.2" fill="#1d4ed8"/>
<circle cx="744.00" cy="426.10" r="3.2" fill="#1d4ed8"/>
<circle cx="748.74" cy="419.63" r="3.2" fill="#1d4ed8"/>
<circle cx="753.48" cy="419.23" r="3.2" fill="#1d4ed8"/>
<circle cx="758.22" cy="418.42" r="3.2" fill="#1d4ed8"/>
<circle cx="762.96" cy="418.01" r="3.2" fill="#1d4ed8"/>
<circle cx="767.70" cy="417.61" r="3.2" fill="#1d4ed8"/>
<circle cx="772.43" cy="417.61" r="3.2" fill="#1d4ed8"/>
<circle cx="777.17" cy="417.61" r="3.2" fill="#1d4ed8"/>
<circle cx="781.91" cy="417.21" r="3.2" fill="#1d4ed8"/>
<circle cx="786.65" cy="417.21" r="3.2" fill="#1d4ed8"/>
<circle cx="791.39" cy="413.57" r="3.2" fill="#1d4ed8"/>
<circle cx="796.13" cy="411.95" r="3.2" fill="#1d4ed8"/>
<circle cx="800.87" cy="412.76" r="3.2" fill="#1d4ed8"/>
<circle cx="805.61" cy="410.74" r="3.2" fill="#1d4ed8"/>
<circle cx="810.35" cy="410.74" r="3.2" fill="#1d4ed8"/>
<circle cx="815.09" cy="410.33" r="3.2" fill="#1d4ed8"/>
<circle cx="819.83" cy="410.33" r="3.2" fill="#1d4ed8"/>
<circle cx="824.57" cy="410.33" r="3.2" fill="#1d4ed8"/>
<circle cx="829.30" cy="409.93" r="3.2" fill="#1d4ed8"/>
<circle cx="834.04" cy="409.93" r="3.2" fill="#1d4ed8"/>
<circle cx="838.78" cy="409.93" r="3.2" fill="#1d4ed8"/>
<circle cx="843.52" cy="409.52" r="3.2" fill="#1d4ed8"/>
<circle cx="848.26" cy="409.52" r="3.2" fill="#1d4ed8"/>
<circle cx="853.00" cy="409.12" r="3.2" fill="#1d4ed8"/>
<circle cx="857.74" cy="409.52" r="3.2" fill="#1d4ed8"/>
<circle cx="862.48" cy="409.12" r="3.2" fill="#1d4ed8"/>
<circle cx="867.22" cy="407.50" r="3.2" fill="#1d4ed8"/>
<circle cx="871.96" cy="407.10" r="3.2" fill="#1d4ed8"/>
<circle cx="876.70" cy="403.05" r="3.2" fill="#1d4ed8"/>
<circle cx="881.43" cy="399.82" r="3.2" fill="#1d4ed8"/>
<circle cx="886.17" cy="400.22" r="3.2" fill="#1d4ed8"/>
<circle cx="890.91" cy="400.62" r="3.2" fill="#1d4ed8"/>
<circle cx="895.65" cy="400.62" r="3.2" fill="#1d4ed8"/>
<circle cx="900.39" cy="399.41" r="3.2" fill="#1d4ed8"/>
<circle cx="905.13" cy="392.94" r="3.2" fill="#1d4ed8"/>
<circle cx="909.87" cy="391.32" r="3.2" fill="#1d4ed8"/>
<circle cx="914.61" cy="389.30" r="3.2" fill="#1d4ed8"/>
<circle cx="919.35" cy="389.30" r="3.2" fill="#1d4ed8"/>
<circle cx="924.09" cy="388.49" r="3.2" fill="#1d4ed8"/>
<circle cx="928.83" cy="375.15" r="3.2" fill="#1d4ed8"/>
<circle cx="933.57" cy="374.74" r="3.2" fill="#1d4ed8"/>
<circle cx="938.30" cy="374.74" r="3.2" fill="#1d4ed8"/>
<circle cx="943.04" cy="374.74" r="3.2" fill="#1d4ed8"/>
<circle cx="947.78" cy="374.74" r="3.2" fill="#1d4ed8"/>
<circle cx="952.52" cy="374.34" r="3.2" fill="#1d4ed8"/>
<circle cx="957.26" cy="374.34" r="3.2" fill="#1d4ed8"/>
<circle cx="962.00" cy="374.34" r="3.2" fill="#1d4ed8"/>
<circle cx="966.74" cy="374.34" r="3.2" fill="#1d4ed8"/>
<circle cx="971.48" cy="374.34" r="3.2" fill="#1d4ed8"/>
<circle cx="976.22" cy="373.93" r="3.2" fill="#1d4ed8"/>
<circle cx="980.96" cy="373.12" r="3.2" fill="#1d4ed8"/>
<circle cx="985.70" cy="372.72" r="3.2" fill="#1d4ed8"/>
<circle cx="990.43" cy="373.53" r="3.2" fill="#1d4ed8"/>
<circle cx="995.17" cy="435.81" r="3.2" fill="#1d4ed8"/>
<circle cx="999.91" cy="372.32" r="3.2" fill="#1d4ed8"/>
<circle cx="1004.65" cy="372.72" r="3.2" fill="#1d4ed8"/>
<circle cx="1009.39" cy="371.91" r="3.2" fill="#1d4ed8"/>
<circle cx="1014.13" cy="371.91" r="3.2" fill="#1d4ed8"/>
<circle cx="1018.87" cy="372.32" r="3.2" fill="#1d4ed8"/>
<circle cx="1023.61" cy="371.10" r="3.2" fill="#1d4ed8"/>
<circle cx="1028.35" cy="369.89" r="3.2" fill="#1d4ed8"/>
<circle cx="1033.09" cy="369.89" r="3.2" fill="#1d4ed8"/>
<circle cx="1037.83" cy="369.89" r="3.2" fill="#1d4ed8"/>
<circle cx="1042.57" cy="369.49" r="3.2" fill="#1d4ed8"/>
<circle cx="1047.30" cy="369.89" r="3.2" fill="#1d4ed8"/>
<circle cx="1052.04" cy="369.08" r="3.2" fill="#1d4ed8"/>
<circle cx="1056.78" cy="368.68" r="3.2" fill="#1d4ed8"/>
<circle cx="1061.52" cy="368.27" r="3.2" fill="#1d4ed8"/>
<circle cx="1066.26" cy="367.87" r="3.2" fill="#1d4ed8"/>
<circle cx="1071.00" cy="367.06" r="3.2" fill="#1d4ed8"/>
<circle cx="1075.74" cy="367.46" r="3.2" fill="#1d4ed8"/>
<circle cx="1080.48" cy="367.06" r="3.2" fill="#1d4ed8"/>
<circle cx="1085.22" cy="366.25" r="3.2" fill="#1d4ed8"/>
<circle cx="1089.96" cy="368.27" r="3.2" fill="#1d4ed8"/>
<circle cx="1094.70" cy="368.68" r="3.2" fill="#1d4ed8"/>
<circle cx="1099.43" cy="368.68" r="3.2" fill="#1d4ed8"/>
<circle cx="1104.17" cy="368.27" r="3.2" fill="#1d4ed8"/>
<circle cx="1108.91" cy="369.08" r="3.2" fill="#1d4ed8"/>
<circle cx="1113.65" cy="367.87" r="3.2" fill="#1d4ed8"/>
<circle cx="1118.39" cy="367.46" r="3.2" fill="#1d4ed8"/>
<circle cx="1123.13" cy="367.06" r="3.2" fill="#1d4ed8"/>
<circle cx="1127.87" cy="360.18" r="3.2" fill="#1d4ed8"/>
<circle cx="1132.61" cy="359.78" r="3.2" fill="#1d4ed8"/>
<circle cx="1137.35" cy="359.38" r="3.2" fill="#1d4ed8"/>
<circle cx="1142.09" cy="356.95" r="3.2" fill="#1d4ed8"/>
<circle cx="1146.83" cy="357.35" r="3.2" fill="#1d4ed8"/>
<circle cx="1151.57" cy="357.76" r="3.2" fill="#1d4ed8"/>
<circle cx="1156.30" cy="355.33" r="3.2" fill="#1d4ed8"/>
<circle cx="1161.04" cy="355.74" r="3.2" fill="#1d4ed8"/>
<circle cx="1165.78" cy="357.35" r="3.2" fill="#1d4ed8"/>
<circle cx="1170.52" cy="355.33" r="3.2" fill="#1d4ed8"/>
<circle cx="1175.26" cy="356.14" r="3.2" fill="#1d4ed8"/>
<circle cx="1180.00" cy="355.74" r="3.2" fill="#1d4ed8"/>
<text x="635" y="695" text-anchor="middle" font-size="14" fill="#111" font-family="sans-serif">Date</text>
<text x="24" y="325" text-anchor="middle" font-size="14" fill="#111" transform="rotate(-90 24,325)" font-family="sans-serif">Passed files</text>
</svg>
