<?xml version="1.0" encoding="UTF-8"?>
<svg xmlns="http://www.w3.org/2000/svg" width="1280" height="720" viewBox="0 0 1280 720">
<rect width="100%" height="100%" fill="#ffffff"/>
<text x="640" y="30" text-anchor="middle" font-size="22" font-family="sans-serif">Roast passed files history</text>
<line x1="90" y1="600" x2="1180" y2="600" stroke="#333" stroke-width="1.5"/>
<line x1="90" y1="50" x2="90" y2="600" stroke="#333" stroke-width="1.5"/>
<line x1="90" y1="600.00" x2="1180" y2="600.00" stroke="#e5e7eb" stroke-width="1"/>
<text x="78" y="605.00" text-anchor="end" font-size="12" fill="#111" font-family="sans-serif">0</text>
<line x1="90" y1="397.79" x2="1180" y2="397.79" stroke="#e5e7eb" stroke-width="1"/>
<text x="78" y="402.79" text-anchor="end" font-size="12" fill="#111" font-family="sans-serif">500</text>
<line x1="90" y1="195.59" x2="1180" y2="195.59" stroke="#e5e7eb" stroke-width="1"/>
<text x="78" y="200.59" text-anchor="end" font-size="12" fill="#111" font-family="sans-serif">1000</text>
<line x1="90.00" y1="600" x2="90.00" y2="606" stroke="#333" stroke-width="1"/>
<text x="90.00" y="624" text-anchor="end" font-size="11" fill="#111" transform="rotate(-40 90.00,624)" font-family="sans-serif">2026-02-12</text>
<line x1="226.57" y1="600" x2="226.57" y2="606" stroke="#333" stroke-width="1"/>
<text x="226.57" y="624" text-anchor="end" font-size="11" fill="#111" transform="rotate(-40 226.57,624)" font-family="sans-serif">2026-02-18</text>
<line x1="363.13" y1="600" x2="363.13" y2="606" stroke="#333" stroke-width="1"/>
<text x="363.13" y="624" text-anchor="end" font-size="11" fill="#111" transform="rotate(-40 363.13,624)" font-family="sans-serif">2026-02-24</text>
<line x1="499.70" y1="600" x2="499.70" y2="606" stroke="#333" stroke-width="1"/>
<text x="499.70" y="624" text-anchor="end" font-size="11" fill="#111" transform="rotate(-40 499.70,624)" font-family="sans-serif">2026-02-27</text>
<line x1="636.26" y1="600" x2="636.26" y2="606" stroke="#333" stroke-width="1"/>
<text x="636.26" y="624" text-anchor="end" font-size="11" fill="#111" transform="rotate(-40 636.26,624)" font-family="sans-serif">2026-03-04</text>
<line x1="772.83" y1="600" x2="772.83" y2="606" stroke="#333" stroke-width="1"/>
<text x="772.83" y="624" text-anchor="end" font-size="11" fill="#111" transform="rotate(-40 772.83,624)" font-family="sans-serif">2026-03-06</text>
<line x1="909.40" y1="600" x2="909.40" y2="606" stroke="#333" stroke-width="1"/>
<text x="909.40" y="624" text-anchor="end" font-size="11" fill="#111" transform="rotate(-40 909.40,624)" font-family="sans-serif">2026-03-11</text>
<line x1="1045.96" y1="600" x2="1045.96" y2="606" stroke="#333" stroke-width="1"/>
<text x="1045.96" y="624" text-anchor="end" font-size="11" fill="#111" transform="rotate(-40 1045.96,624)" font-family="sans-serif">2026-03-19</text>
<line x1="1180.00" y1="600" x2="1180.00" y2="606" stroke="#333" stroke-width="1"/>
<text x="1180.00" y="624" text-anchor="end" font-size="11" fill="#111" transform="rotate(-40 1180.00,624)" font-family="sans-serif">2026-03-23</text>
<line x1="90" y1="75.88" x2="1180" y2="75.88" stroke="#dc2626" stroke-width="1.5" stroke-dasharray="8,4"/>
<text x="1184" y="79.88" font-size="12" fill="#dc2626" font-family="sans-serif">Goal: 1296</text>
<polyline fill="none" stroke="#2563eb" stroke-width="3" points="90.00,540.55 92.53,538.53 95.06,536.91 97.59,534.49 100.12,534.49 102.65,533.27 105.17,532.46 107.70,532.87 110.23,532.06 112.76,532.46 115.29,532.06 117.82,568.46 120.35,568.46 122.88,566.43 125.41,545.00 127.94,545.00 130.46,544.19 132.99,543.79 135.52,543.79 138.05,543.38 140.58,541.76 143.11,541.36 145.64,540.96 148.17,540.96 150.70,539.34 153.23,539.34 155.75,556.73 158.28,556.73 160.81,555.51 163.34,551.07 165.87,538.93 168.40,538.93 170.93,538.93 173.46,538.12 175.99,536.91 178.52,536.91 181.04,536.51 183.57,536.51 186.10,556.73 188.63,556.73 191.16,556.73 193.69,556.73 196.22,535.29 198.75,535.29 201.28,535.29 203.81,535.29 206.33,534.49 208.86,534.08 211.39,533.68 213.92,532.87 216.45,532.06 218.98,532.06 221.51,531.25 224.04,530.85 226.57,530.44 229.10,530.04 231.62,530.04 234.15,529.23 236.68,529.23 239.21,529.23 241.74,528.42 244.27,528.42 246.80,527.61 249.33,527.21 251.86,526.80 254.39,526.40 256.91,525.18 259.44,523.57 261.97,523.57 264.50,523.16 267.03,522.76 269.56,522.35 272.09,521.54 274.62,519.52 277.15,517.50 279.68,517.50 282.20,517.50 284.73,517.50 287.26,517.50 289.79,517.50 292.32,517.10 294.85,516.69 297.38,515.48 299.91,515.07 302.44,514.67 304.97,513.86 307.49,514.26 310.02,512.24 312.55,511.84 315.08,511.84 317.61,511.03 320.14,509.82 322.67,507.79 325.20,506.99 327.73,506.58 330.26,509.41 332.78,509.01 335.31,504.96 337.84,504.56 340.37,504.15 342.90,504.56 345.43,503.75 347.96,503.75 350.49,503.35 353.02,499.30 355.55,496.47 358.07,490.00 360.60,484.34 363.13,481.10 365.66,480.29 368.19,480.70 370.72,460.88 373.25,459.26 375.78,458.05 378.31,456.03 380.84,456.03 383.36,454.41 385.89,450.77 388.42,444.30 390.95,443.90 393.48,600.00 396.01,441.88 398.54,440.66 401.07,439.45 403.60,439.04 406.13,438.64 408.65,437.83 411.18,436.62 413.71,436.62 416.24,434.60 418.77,432.17 421.30,429.34 423.83,428.93 426.36,428.53 428.89,427.72 431.42,426.91 433.94,426.10 436.47,426.10 439.00,426.10 441.53,419.63 444.06,419.23 446.59,418.42 449.12,418.01 451.65,417.61 454.18,417.61 456.71,417.61 459.23,417.21 461.76,417.21 464.29,413.57 466.82,411.95 469.35,412.76 471.88,410.74 474.41,410.74 476.94,410.33 479.47,410.33 482.00,410.33 484.52,409.93 487.05,409.93 489.58,409.93 492.11,409.52 494.64,409.52 497.17,409.12 499.70,409.52 502.23,409.12 504.76,407.50 507.29,407.10 509.81,403.05 512.34,399.82 514.87,400.22 517.40,400.62 519.93,400.62 522.46,399.41 524.99,392.94 527.52,391.32 530.05,389.30 532.58,389.30 535.10,388.49 537.63,375.15 540.16,374.74 542.69,374.74 545.22,374.74 547.75,374.74 550.28,374.34 552.81,374.34 555.34,374.34 557.87,374.34 560.39,374.34 562.92,373.93 565.45,373.12 567.98,372.72 570.51,373.53 573.04,435.81 575.57,372.32 578.10,372.72 580.63,371.91 583.16,371.91 585.68,372.32 588.21,371.10 590.74,369.89 593.27,369.89 595.80,369.89 598.33,369.49 600.86,369.89 603.39,369.08 605.92,368.68 608.45,368.27 610.97,367.87 613.50,367.06 616.03,367.46 618.56,367.06 621.09,366.25 623.62,368.27 626.15,368.68 628.68,368.68 631.21,368.27 633.74,369.08 636.26,367.87 638.79,367.46 641.32,367.06 643.85,360.18 646.38,359.78 648.91,359.38 651.44,356.95 653.97,357.35 656.50,357.76 659.03,355.33 661.55,355.74 664.08,357.35 666.61,355.33 669.14,356.14 671.67,355.74 674.20,356.14 676.73,354.12 679.26,354.93 681.79,356.14 684.32,354.52 686.84,353.71 689.37,354.12 691.90,354.93 694.43,352.90 696.96,353.71 699.49,353.31 702.02,353.31 704.55,354.52 707.08,352.90 709.61,352.50 712.13,352.50 714.66,353.31 717.19,352.50 719.72,353.71 722.25,354.12 724.78,352.50 727.31,352.90 729.84,352.50 732.37,352.10 734.90,351.69 737.42,352.10 739.95,354.12 742.48,352.50 745.01,352.10 747.54,352.10 750.07,349.67 752.60,349.67 755.13,350.88 757.66,351.29 760.19,350.48 762.71,352.10 765.24,350.48 767.77,350.48 770.30,350.48 772.83,350.07 775.36,348.46 777.89,351.29 780.42,349.67 782.95,351.29 785.48,349.67 788.00,348.86 790.53,348.46 793.06,348.46 795.59,347.24 798.12,348.86 800.65,346.84 803.18,348.46 805.71,348.86 808.24,346.84 810.77,349.26 813.29,348.05 815.82,349.26 818.35,349.26 820.88,350.48 823.41,352.90 825.94,349.67 828.47,348.46 831.00,345.62 833.53,344.82 836.06,344.41 838.58,342.39 841.11,341.18 843.64,341.58 846.17,339.15 848.70,338.35 851.23,337.54 853.76,336.73 856.29,335.92 858.82,337.54 861.35,338.35 863.87,337.54 866.40,337.54 868.93,337.54 871.46,333.09 873.99,333.90 876.52,335.92 879.05,336.73 881.58,335.51 884.11,332.28 886.64,331.47 889.16,331.07 891.69,331.47 894.22,331.07 896.75,331.07 899.28,331.07 901.81,331.07 904.34,331.07 906.87,331.07 909.40,331.07 911.93,331.07 914.45,331.07 916.98,331.07 919.51,331.47 922.04,331.88 924.57,331.07 927.10,331.47 929.63,331.07 932.16,331.47 934.69,331.07 937.22,324.19 939.74,324.19 942.27,318.93 944.80,316.51 947.33,310.44 949.86,308.01 952.39,600.00 954.92,301.54 957.45,290.22 959.98,287.79 962.51,286.18 965.03,285.77 967.56,285.77 970.09,285.77 972.62,286.18 975.15,285.77 977.68,285.77 980.21,285.77 982.74,283.35 985.27,282.94 987.80,282.94 990.32,283.35 992.85,282.94 995.38,282.94 997.91,283.75 1000.44,282.13 1002.97,282.13 1005.50,282.54 1008.03,282.13 1010.56,282.54 1013.09,282.94 1015.61,281.73 1018.14,282.54 1020.67,281.73 1023.20,282.54 1025.73,282.13 1028.26,282.13 1030.79,281.73 1033.32,281.73 1035.85,281.32 1038.38,281.73 1040.90,282.13 1043.43,281.32 1045.96,281.32 1048.49,282.54 1051.02,282.13 1053.55,281.32 1056.08,281.32 1058.61,281.32 1061.14,282.54 1063.67,282.13 1066.19,281.32 1068.72,282.13 1071.25,281.73 1073.78,282.13 1076.31,280.11 1078.84,280.11 1081.37,280.51 1083.90,279.71 1086.43,280.11 1088.96,280.51 1091.48,279.71 1094.01,280.11 1096.54,280.11 1099.07,279.30 1101.60,278.90 1104.13,278.90 1106.66,280.51 1109.19,279.30 1111.72,278.09 1114.25,278.49 1116.77,278.49 1119.30,277.28 1121.83,277.68 1124.36,277.68 1126.89,278.09 1129.42,277.28 1131.95,600.00 1134.48,278.90 1137.01,279.30 1139.54,278.90 1142.06,278.49 1144.59,278.49 1147.12,278.49 1149.65,278.49 1152.18,278.49 1154.71,278.49 1157.24,278.49 1159.77,278.49 1162.30,278.49 1164.83,278.49 1167.35,278.49 1169.88,278.49 1172.41,600.00 1174.94,600.00 1177.47,254.63 1180.00,600.00"/>
<circle cx="90.00" cy="540.55" r="3.2" fill="#1d4ed8"/>
<circle cx="92.53" cy="538.53" r="3.2" fill="#1d4ed8"/>
<circle cx="95.06" cy="536.91" r="3.2" fill="#1d4ed8"/>
<circle cx="97.59" cy="534.49" r="3.2" fill="#1d4ed8"/>
<circle cx="100.12" cy="534.49" r="3.2" fill="#1d4ed8"/>
<circle cx="102.65" cy="533.27" r="3.2" fill="#1d4ed8"/>
<circle cx="105.17" cy="532.46" r="3.2" fill="#1d4ed8"/>
<circle cx="107.70" cy="532.87" r="3.2" fill="#1d4ed8"/>
<circle cx="110.23" cy="532.06" r="3.2" fill="#1d4ed8"/>
<circle cx="112.76" cy="532.46" r="3.2" fill="#1d4ed8"/>
<circle cx="115.29" cy="532.06" r="3.2" fill="#1d4ed8"/>
<circle cx="117.82" cy="568.46" r="3.2" fill="#1d4ed8"/>
<circle cx="120.35" cy="568.46" r="3.2" fill="#1d4ed8"/>
<circle cx="122.88" cy="566.43" r="3.2" fill="#1d4ed8"/>
<circle cx="125.41" cy="545.00" r="3.2" fill="#1d4ed8"/>
<circle cx="127.94" cy="545.00" r="3.2" fill="#1d4ed8"/>
<circle cx="130.46" cy="544.19" r="3.2" fill="#1d4ed8"/>
<circle cx="132.99" cy="543.79" r="3.2" fill="#1d4ed8"/>
<circle cx="135.52" cy="543.79" r="3.2" fill="#1d4ed8"/>
<circle cx="138.05" cy="543.38" r="3.2" fill="#1d4ed8"/>
<circle cx="140.58" cy="541.76" r="3.2" fill="#1d4ed8"/>
<circle cx="143.11" cy="541.36" r="3.2" fill="#1d4ed8"/>
<circle cx="145.64" cy="540.96" r="3.2" fill="#1d4ed8"/>
<circle cx="148.17" cy="540.96" r="3.2" fill="#1d4ed8"/>
<circle cx="150.70" cy="539.34" r="3.2" fill="#1d4ed8"/>
<circle cx="153.23" cy="539.34" r="3.2" fill="#1d4ed8"/>
<circle cx="155.75" cy="556.73" r="3.2" fill="#1d4ed8"/>
<circle cx="158.28" cy="556.73" r="3.2" fill="#1d4ed8"/>
<circle cx="160.81" cy="555.51" r="3.2" fill="#1d4ed8"/>
<circle cx="163.34" cy="551.07" r="3.2" fill="#1d4ed8"/>
<circle cx="165.87" cy="538.93" r="3.2" fill="#1d4ed8"/>
<circle cx="168.40" cy="538.93" r="3.2" fill="#1d4ed8"/>
<circle cx="170.93" cy="538.93" r="3.2" fill="#1d4ed8"/>
<circle cx="173.46" cy="538.12" r="3.2" fill="#1d4ed8"/>
<circle cx="175.99" cy="536.91" r="3.2" fill="#1d4ed8"/>
<circle cx="178.52" cy="536.91" r="3.2" fill="#1d4ed8"/>
<circle cx="181.04" cy="536.51" r="3.2" fill="#1d4ed8"/>
<circle cx="183.57" cy="536.51" r="3.2" fill="#1d4ed8"/>
<circle cx="186.10" cy="556.73" r="3.2" fill="#1d4ed8"/>
<circle cx="188.63" cy="556.73" r="3.2" fill="#1d4ed8"/>
<circle cx="191.16" cy="556.73" r="3.2" fill="#1d4ed8"/>
<circle cx="193.69" cy="556.73" r="3.2" fill="#1d4ed8"/>
<circle cx="196.22" cy="535.29" r="3.2" fill="#1d4ed8"/>
<circle cx="198.75" cy="535.29" r="3.2" fill="#1d4ed8"/>
<circle cx="201.28" cy="535.29" r="3.2" fill="#1d4ed8"/>
<circle cx="203.81" cy="535.29" r="3.2" fill="#1d4ed8"/>
<circle cx="206.33" cy="534.49" r="3.2" fill="#1d4ed8"/>
<circle cx="208.86" cy="534.08" r="3.2" fill="#1d4ed8"/>
<circle cx="211.39" cy="533.68" r="3.2" fill="#1d4ed8"/>
<circle cx="213.92" cy="532.87" r="3.2" fill="#1d4ed8"/>
<circle cx="216.45" cy="532.06" r="3.2" fill="#1d4ed8"/>
<circle cx="218.98" cy="532.06" r="3.2" fill="#1d4ed8"/>
<circle cx="221.51" cy="531.25" r="3.2" fill="#1d4ed8"/>
<circle cx="224.04" cy="530.85" r="3.2" fill="#1d4ed8"/>
<circle cx="226.57" cy="530.44" r="3.2" fill="#1d4ed8"/>
<circle cx="229.10" cy="530.04" r="3.2" fill="#1d4ed8"/>
<circle cx="231.62" cy="530.04" r="3.2" fill="#1d4ed8"/>
<circle cx="234.15" cy="529.23" r="3.2" fill="#1d4ed8"/>
<circle cx="236.68" cy="529.23" r="3.2" fill="#1d4ed8"/>
<circle cx="239.21" cy="529.23" r="3.2" fill="#1d4ed8"/>
<circle cx="241.74" cy="528.42" r="3.2" fill="#1d4ed8"/>
<circle cx="244.27" cy="528.42" r="3.2" fill="#1d4ed8"/>
<circle cx="246.80" cy="527.61" r="3.2" fill="#1d4ed8"/>
<circle cx="249.33" cy="527.21" r="3.2" fill="#1d4ed8"/>
<circle cx="251.86" cy="526.80" r="3.2" fill="#1d4ed8"/>
<circle cx="254.39" cy="526.40" r="3.2" fill="#1d4ed8"/>
<circle cx="256.91" cy="525.18" r="3.2" fill="#1d4ed8"/>
<circle cx="259.44" cy="523.57" r="3.2" fill="#1d4ed8"/>
<circle cx="261.97" cy="523.57" r="3.2" fill="#1d4ed8"/>
<circle cx="264.50" cy="523.16" r="3.2" fill="#1d4ed8"/>
<circle cx="267.03" cy="522.76" r="3.2" fill="#1d4ed8"/>
<circle cx="269.56" cy="522.35" r="3.2" fill="#1d4ed8"/>
<circle cx="272.09" cy="521.54" r="3.2" fill="#1d4ed8"/>
<circle cx="274.62" cy="519.52" r="3.2" fill="#1d4ed8"/>
<circle cx="277.15" cy="517.50" r="3.2" fill="#1d4ed8"/>
<circle cx="279.68" cy="517.50" r="3.2" fill="#1d4ed8"/>
<circle cx="282.20" cy="517.50" r="3.2" fill="#1d4ed8"/>
<circle cx="284.73" cy="517.50" r="3.2" fill="#1d4ed8"/>
<circle cx="287.26" cy="517.50" r="3.2" fill="#1d4ed8"/>
<circle cx="289.79" cy="517.50" r="3.2" fill="#1d4ed8"/>
<circle cx="292.32" cy="517.10" r="3.2" fill="#1d4ed8"/>
<circle cx="294.85" cy="516.69" r="3.2" fill="#1d4ed8"/>
<circle cx="297.38" cy="515.48" r="3.2" fill="#1d4ed8"/>
<circle cx="299.91" cy="515.07" r="3.2" fill="#1d4ed8"/>
<circle cx="302.44" cy="514.67" r="3.2" fill="#1d4ed8"/>
<circle cx="304.97" cy="513.86" r="3.2" fill="#1d4ed8"/>
<circle cx="307.49" cy="514.26" r="3.2" fill="#1d4ed8"/>
<circle cx="310.02" cy="512.24" r="3.2" fill="#1d4ed8"/>
<circle cx="312.55" cy="511.84" r="3.2" fill="#1d4ed8"/>
<circle cx="315.08" cy="511.84" r="3.2" fill="#1d4ed8"/>
<circle cx="317.61" cy="511.03" r="3.2" fill="#1d4ed8"/>
<circle cx="320.14" cy="509.82" r="3.2" fill="#1d4ed8"/>
<circle cx="322.67" cy="507.79" r="3.2" fill="#1d4ed8"/>
<circle cx="325.20" cy="506.99" r="3.2" fill="#1d4ed8"/>
<circle cx="327.73" cy="506.58" r="3.2" fill="#1d4ed8"/>
<circle cx="330.26" cy="509.41" r="3.2" fill="#1d4ed8"/>
<circle cx="332.78" cy="509.01" r="3.2" fill="#1d4ed8"/>
<circle cx="335.31" cy="504.96" r="3.2" fill="#1d4ed8"/>
<circle cx="337.84" cy="504.56" r="3.2" fill="#1d4ed8"/>
<circle cx="340.37" cy="504.15" r="3.2" fill="#1d4ed8"/>
<circle cx="342.90" cy="504.56" r="3.2" fill="#1d4ed8"/>
<circle cx="345.43" cy="503.75" r="3.2" fill="#1d4ed8"/>
<circle cx="347.96" cy="503.75" r="3.2" fill="#1d4ed8"/>
<circle cx="350.49" cy="503.35" r="3.2" fill="#1d4ed8"/>
<circle cx="353.02" cy="499.30" r="3.2" fill="#1d4ed8"/>
<circle cx="355.55" cy="496.47" r="3.2" fill="#1d4ed8"/>
<circle cx="358.07" cy="490.00" r="3.2" fill="#1d4ed8"/>
<circle cx="360.60" cy="484.34" r="3.2" fill="#1d4ed8"/>
<circle cx="363.13" cy="481.10" r="3.2" fill="#1d4ed8"/>
<circle cx="365.66" cy="480.29" r="3.2" fill="#1d4ed8"/>
<circle cx="368.19" cy="480.70" r="3.2" fill="#1d4ed8"/>
<circle cx="370.72" cy="460.88" r="3.2" fill="#1d4ed8"/>
<circle cx="373.25" cy="459.26" r="3.2" fill="#1d4ed8"/>
<circle cx="375.78" cy="458.05" r="3.2" fill="#1d4ed8"/>
<circle cx="378.31" cy="456.03" r="3.2" fill="#1d4ed8"/>
<circle cx="380.84" cy="456.03" r="3.2" fill="#1d4ed8"/>
<circle cx="383.36" cy="454.41" r="3.2" fill="#1d4ed8"/>
<circle cx="385.89" cy="450.77" r="3.2" fill="#1d4ed8"/>
<circle cx="388.42" cy="444.30" r="3.2" fill="#1d4ed8"/>
<circle cx="390.95" cy="443.90" r="3.2" fill="#1d4ed8"/>
<circle cx="393.48" cy="600.00" r="3.2" fill="#1d4ed8"/>
<circle cx="396.01" cy="441.88" r="3.2" fill="#1d4ed8"/>
<circle cx="398.54" cy="440.66" r="3.2" fill="#1d4ed8"/>
<circle cx="401.07" cy="439.45" r="3.2" fill="#1d4ed8"/>
<circle cx="403.60" cy="439.04" r="3.2" fill="#1d4ed8"/>
<circle cx="406.13" cy="438.64" r="3.2" fill="#1d4ed8"/>
<circle cx="408.65" cy="437.83" r="3.2" fill="#1d4ed8"/>
<circle cx="411.18" cy="436.62" r="3.2" fill="#1d4ed8"/>
<circle cx="413.71" cy="436.62" r="3.2" fill="#1d4ed8"/>
<circle cx="416.24" cy="434.60" r="3.2" fill="#1d4ed8"/>
<circle cx="418.77" cy="432.17" r="3.2" fill="#1d4ed8"/>
<circle cx="421.30" cy="429.34" r="3.2" fill="#1d4ed8"/>
<circle cx="423.83" cy="428.93" r="3.2" fill="#1d4ed8"/>
<circle cx="426.36" cy="428.53" r="3.2" fill="#1d4ed8"/>
<circle cx="428.89" cy="427.72" r="3.2" fill="#1d4ed8"/>
<circle cx="431.42" cy="426.91" r="3.2" fill="#1d4ed8"/>
<circle cx="433.94" cy="426.10" r="3.2" fill="#1d4ed8"/>
<circle cx="436.47" cy="426.10" r="3.2" fill="#1d4ed8"/>
<circle cx="439.00" cy="426.10" r="3.2" fill="#1d4ed8"/>
<circle cx="441.53" cy="419.63" r="3.2" fill="#1d4ed8"/>
<circle cx="444.06" cy="419.23" r="3.2" fill="#1d4ed8"/>
<circle cx="446.59" cy="418.42" r="3.2" fill="#1d4ed8"/>
<circle cx="449.12" cy="418.01" r="3.2" fill="#1d4ed8"/>
<circle cx="451.65" cy="417.61" r="3.2" fill="#1d4ed8"/>
<circle cx="454.18" cy="417.61" r="3.2" fill="#1d4ed8"/>
<circle cx="456.71" cy="417.61" r="3.2" fill="#1d4ed8"/>
<circle cx="459.23" cy="417.21" r="3.2" fill="#1d4ed8"/>
<circle cx="461.76" cy="417.21" r="3.2" fill="#1d4ed8"/>
<circle cx="464.29" cy="413.57" r="3.2" fill="#1d4ed8"/>
<circle cx="466.82" cy="411.95" r="3.2" fill="#1d4ed8"/>
<circle cx="469.35" cy="412.76" r="3.2" fill="#1d4ed8"/>
<circle cx="471.88" cy="410.74" r="3.2" fill="#1d4ed8"/>
<circle cx="474.41" cy="410.74" r="3.2" fill="#1d4ed8"/>
<circle cx="476.94" cy="410.33" r="3.2" fill="#1d4ed8"/>
<circle cx="479.47" cy="410.33" r="3.2" fill="#1d4ed8"/>
<circle cx="482.00" cy="410.33" r="3.2" fill="#1d4ed8"/>
<circle cx="484.52" cy="409.93" r="3.2" fill="#1d4ed8"/>
<circle cx="487.05" cy="409.93" r="3.2" fill="#1d4ed8"/>
<circle cx="489.58" cy="409.93" r="3.2" fill="#1d4ed8"/>
<circle cx="492.11" cy="409.52" r="3.2" fill="#1d4ed8"/>
<circle cx="494.64" cy="409.52" r="3.2" fill="#1d4ed8"/>
<circle cx="497.17" cy="409.12" r="3.2" fill="#1d4ed8"/>
<circle cx="499.70" cy="409.52" r="3.2" fill="#1d4ed8"/>
<circle cx="502.23" cy="409.12" r="3.2" fill="#1d4ed8"/>
<circle cx="504.76" cy="407.50" r="3.2" fill="#1d4ed8"/>
<circle cx="507.29" cy="407.10" r="3.2" fill="#1d4ed8"/>
<circle cx="509.81" cy="403.05" r="3.2" fill="#1d4ed8"/>
<circle cx="512.34" cy="399.82" r="3.2" fill="#1d4ed8"/>
<circle cx="514.87" cy="400.22" r="3.2" fill="#1d4ed8"/>
<circle cx="517.40" cy="400.62" r="3.2" fill="#1d4ed8"/>
<circle cx="519.93" cy="400.62" r="3.2" fill="#1d4ed8"/>
<circle cx="522.46" cy="399.41" r="3.2" fill="#1d4ed8"/>
<circle cx="524.99" cy="392.94" r="3.2" fill="#1d4ed8"/>
<circle cx="527.52" cy="391.32" r="3.2" fill="#1d4ed8"/>
<circle cx="530.05" cy="389.30" r="3.2" fill="#1d4ed8"/>
<circle cx="532.58" cy="389.30" r="3.2" fill="#1d4ed8"/>
<circle cx="535.10" cy="388.49" r="3.2" fill="#1d4ed8"/>
<circle cx="537.63" cy="375.15" r="3.2" fill="#1d4ed8"/>
<circle cx="540.16" cy="374.74" r="3.2" fill="#1d4ed8"/>
<circle cx="542.69" cy="374.74" r="3.2" fill="#1d4ed8"/>
<circle cx="545.22" cy="374.74" r="3.2" fill="#1d4ed8"/>
<circle cx="547.75" cy="374.74" r="3.2" fill="#1d4ed8"/>
<circle cx="550.28" cy="374.34" r="3.2" fill="#1d4ed8"/>
<circle cx="552.81" cy="374.34" r="3.2" fill="#1d4ed8"/>
<circle cx="555.34" cy="374.34" r="3.2" fill="#1d4ed8"/>
<circle cx="557.87" cy="374.34" r="3.2" fill="#1d4ed8"/>
<circle cx="560.39" cy="374.34" r="3.2" fill="#1d4ed8"/>
<circle cx="562.92" cy="373.93" r="3.2" fill="#1d4ed8"/>
<circle cx="565.45" cy="373.12" r="3.2" fill="#1d4ed8"/>
<circle cx="567.98" cy="372.72" r="3.2" fill="#1d4ed8"/>
<circle cx="570.51" cy="373.53" r="3.2" fill="#1d4ed8"/>
<circle cx="573.04" cy="435.81" r="3.2" fill="#1d4ed8"/>
<circle cx="575.57" cy="372.32" r="3.2" fill="#1d4ed8"/>
<circle cx="578.10" cy="372.72" r="3.2" fill="#1d4ed8"/>
<circle cx="580.63" cy="371.91" r="3.2" fill="#1d4ed8"/>
<circle cx="583.16" cy="371.91" r="3.2" fill="#1d4ed8"/>
<circle cx="585.68" cy="372.32" r="3.2" fill="#1d4ed8"/>
<circle cx="588.21" cy="371.10" r="3.2" fill="#1d4ed8"/>
<circle cx="590.74" cy="369.89" r="3.2" fill="#1d4ed8"/>
<circle cx="593.27" cy="369.89" r="3.2" fill="#1d4ed8"/>
<circle cx="595.80" cy="369.89" r="3.2" fill="#1d4ed8"/>
<circle cx="598.33" cy="369.49" r="3.2" fill="#1d4ed8"/>
<circle cx="600.86" cy="369.89" r="3.2" fill="#1d4ed8"/>
<circle cx="603.39" cy="369.08" r="3.2" fill="#1d4ed8"/>
<circle cx="605.92" cy="368.68" r="3.2" fill="#1d4ed8"/>
<circle cx="608.45" cy="368.27" r="3.2" fill="#1d4ed8"/>
<circle cx="610.97" cy="367.87" r="3.2" fill="#1d4ed8"/>
<circle cx="613.50" cy="367.06" r="3.2" fill="#1d4ed8"/>
<circle cx="616.03" cy="367.46" r="3.2" fill="#1d4ed8"/>
<circle cx="618.56" cy="367.06" r="3.2" fill="#1d4ed8"/>
<circle cx="621.09" cy="366.25" r="3.2" fill="#1d4ed8"/>
<circle cx="623.62" cy="368.27" r="3.2" fill="#1d4ed8"/>
<circle cx="626.15" cy="368.68" r="3.2" fill="#1d4ed8"/>
<circle cx="628.68" cy="368.68" r="3.2" fill="#1d4ed8"/>
<circle cx="631.21" cy="368.27" r="3.2" fill="#1d4ed8"/>
<circle cx="633.74" cy="369.08" r="3.2" fill="#1d4ed8"/>
<circle cx="636.26" cy="367.87" r="3.2" fill="#1d4ed8"/>
<circle cx="638.79" cy="367.46" r="3.2" fill="#1d4ed8"/>
<circle cx="641.32" cy="367.06" r="3.2" fill="#1d4ed8"/>
<circle cx="643.85" cy="360.18" r="3.2" fill="#1d4ed8"/>
<circle cx="646.38" cy="359.78" r="3.2" fill="#1d4ed8"/>
<circle cx="648.91" cy="359.38" r="3.2" fill="#1d4ed8"/>
<circle cx="651.44" cy="356.95" r="3.2" fill="#1d4ed8"/>
<circle cx="653.97" cy="357.35" r="3.2" fill="#1d4ed8"/>
<circle cx="656.50" cy="357.76" r="3.2" fill="#1d4ed8"/>
<circle cx="659.03" cy="355.33" r="3.2" fill="#1d4ed8"/>
<circle cx="661.55" cy="355.74" r="3.2" fill="#1d4ed8"/>
<circle cx="664.08" cy="357.35" r="3.2" fill="#1d4ed8"/>
<circle cx="666.61" cy="355.33" r="3.2" fill="#1d4ed8"/>
<circle cx="669.14" cy="356.14" r="3.2" fill="#1d4ed8"/>
<circle cx="671.67" cy="355.74" r="3.2" fill="#1d4ed8"/>
<circle cx="674.20" cy="356.14" r="3.2" fill="#1d4ed8"/>
<circle cx="676.73" cy="354.12" r="3.2" fill="#1d4ed8"/>
<circle cx="679.26" cy="354.93" r="3.2" fill="#1d4ed8"/>
<circle cx="681.79" cy="356.14" r="3.2" fill="#1d4ed8"/>
<circle cx="684.32" cy="354.52" r="3.2" fill="#1d4ed8"/>
<circle cx="686.84" cy="353.71" r="3.2" fill="#1d4ed8"/>
<circle cx="689.37" cy="354.12" r="3.2" fill="#1d4ed8"/>
<circle cx="691.90" cy="354.93" r="3.2" fill="#1d4ed8"/>
<circle cx="694.43" cy="352.90" r="3.2" fill="#1d4ed8"/>
<circle cx="696.96" cy="353.71" r="3.2" fill="#1d4ed8"/>
<circle cx="699.49" cy="353.31" r="3.2" fill="#1d4ed8"/>
<circle cx="702.02" cy="353.31" r="3.2" fill="#1d4ed8"/>
<circle cx="704.55" cy="354.52" r="3.2" fill="#1d4ed8"/>
<circle cx="707.08" cy="352.90" r="3.2" fill="#1d4ed8"/>
<circle cx="709.61" cy="352.50" r="3.2" fill="#1d4ed8"/>
<circle cx="712.13" cy="352.50" r="3.2" fill="#1d4ed8"/>
<circle cx="714.66" cy="353.31" r="3.2" fill="#1d4ed8"/>
<circle cx="717.19" cy="352.50" r="3.2" fill="#1d4ed8"/>
<circle cx="719.72" cy="353.71" r="3.2" fill="#1d4ed8"/>
<circle cx="722.25" cy="354.12" r="3.2" fill="#1d4ed8"/>
<circle cx="724.78" cy="352.50" r="3.2" fill="#1d4ed8"/>
<circle cx="727.31" cy="352.90" r="3.2" fill="#1d4ed8"/>
<circle cx="729.84" cy="352.50" r="3.2" fill="#1d4ed8"/>
<circle cx="732.37" cy="352.10" r="3.2" fill="#1d4ed8"/>
<circle cx="734.90" cy="351.69" r="3.2" fill="#1d4ed8"/>
<circle cx="737.42" cy="352.10" r="3.2" fill="#1d4ed8"/>
<circle cx="739.95" cy="354.12" r="3.2" fill="#1d4ed8"/>
<circle cx="742.48" cy="352.50" r="3.2" fill="#1d4ed8"/>
<circle cx="745.01" cy="352.10" r="3.2" fill="#1d4ed8"/>
<circle cx="747.54" cy="352.10" r="3.2" fill="#1d4ed8"/>
<circle cx="750.07" cy="349.67" r="3.2" fill="#1d4ed8"/>
<circle cx="752.60" cy="349.67" r="3.2" fill="#1d4ed8"/>
<circle cx="755.13" cy="350.88" r="3.2" fill="#1d4ed8"/>
<circle cx="757.66" cy="351.29" r="3.2" fill="#1d4ed8"/>
<circle cx="760.19" cy="350.48" r="3.2" fill="#1d4ed8"/>
<circle cx="762.71" cy="352.10" r="3.2" fill="#1d4ed8"/>
<circle cx="765.24" cy="350.48" r="3.2" fill="#1d4ed8"/>
<circle cx="767.77" cy="350.48" r="3.2" fill="#1d4ed8"/>
<circle cx="770.30" cy="350.48" r="3.2" fill="#1d4ed8"/>
<circle cx="772.83" cy="350.07" r="3.2" fill="#1d4ed8"/>
<circle cx="775.36" cy="348.46" r="3.2" fill="#1d4ed8"/>
<circle cx="777.89" cy="351.29" r="3.2" fill="#1d4ed8"/>
<circle cx="780.42" cy="349.67" r="3.2" fill="#1d4ed8"/>
<circle cx="782.95" cy="351.29" r="3.2" fill="#1d4ed8"/>
<circle cx="785.48" cy="349.67" r="3.2" fill="#1d4ed8"/>
<circle cx="788.00" cy="348.86" r="3.2" fill="#1d4ed8"/>
<circle cx="790.53" cy="348.46" r="3.2" fill="#1d4ed8"/>
<circle cx="793.06" cy="348.46" r="3.2" fill="#1d4ed8"/>
<circle cx="795.59" cy="347.24" r="3.2" fill="#1d4ed8"/>
<circle cx="798.12" cy="348.86" r="3.2" fill="#1d4ed8"/>
<circle cx="800.65" cy="346.84" r="3.2" fill="#1d4ed8"/>
<circle cx="803.18" cy="348.46" r="3.2" fill="#1d4ed8"/>
<circle cx="805.71" cy="348.86" r="3.2" fill="#1d4ed8"/>
<circle cx="808.24" cy="346.84" r="3.2" fill="#1d4ed8"/>
<circle cx="810.77" cy="349.26" r="3.2" fill="#1d4ed8"/>
<circle cx="813.29" cy="348.05" r="3.2" fill="#1d4ed8"/>
<circle cx="815.82" cy="349.26" r="3.2" fill="#1d4ed8"/>
<circle cx="818.35" cy="349.26" r="3.2" fill="#1d4ed8"/>
<circle cx="820.88" cy="350.48" r="3.2" fill="#1d4ed8"/>
<circle cx="823.41" cy="352.90" r="3.2" fill="#1d4ed8"/>
<circle cx="825.94" cy="349.67" r="3.2" fill="#1d4ed8"/>
<circle cx="828.47" cy="348.46" r="3.2" fill="#1d4ed8"/>
<circle cx="831.00" cy="345.62" r="3.2" fill="#1d4ed8"/>
<circle cx="833.53" cy="344.82" r="3.2" fill="#1d4ed8"/>
<circle cx="836.06" cy="344.41" r="3.2" fill="#1d4ed8"/>
<circle cx="838.58" cy="342.39" r="3.2" fill="#1d4ed8"/>
<circle cx="841.11" cy="341.18" r="3.2" fill="#1d4ed8"/>
<circle cx="843.64" cy="341.58" r="3.2" fill="#1d4ed8"/>
<circle cx="846.17" cy="339.15" r="3.2" fill="#1d4ed8"/>
<circle cx="848.70" cy="338.35" r="3.2" fill="#1d4ed8"/>
<circle cx="851.23" cy="337.54" r="3.2" fill="#1d4ed8"/>
<circle cx="853.76" cy="336.73" r="3.2" fill="#1d4ed8"/>
<circle cx="856.29" cy="335.92" r="3.2" fill="#1d4ed8"/>
<circle cx="858.82" cy="337.54" r="3.2" fill="#1d4ed8"/>
<circle cx="861.35" cy="338.35" r="3.2" fill="#1d4ed8"/>
<circle cx="863.87" cy="337.54" r="3.2" fill="#1d4ed8"/>
<circle cx="866.40" cy="337.54" r="3.2" fill="#1d4ed8"/>
<circle cx="868.93" cy="337.54" r="3.2" fill="#1d4ed8"/>
<circle cx="871.46" cy="333.09" r="3.2" fill="#1d4ed8"/>
<circle cx="873.99" cy="333.90" r="3.2" fill="#1d4ed8"/>
<circle cx="876.52" cy="335.92" r="3.2" fill="#1d4ed8"/>
<circle cx="879.05" cy="336.73" r="3.2" fill="#1d4ed8"/>
<circle cx="881.58" cy="335.51" r="3.2" fill="#1d4ed8"/>
<circle cx="884.11" cy="332.28" r="3.2" fill="#1d4ed8"/>
<circle cx="886.64" cy="331.47" r="3.2" fill="#1d4ed8"/>
<circle cx="889.16" cy="331.07" r="3.2" fill="#1d4ed8"/>
<circle cx="891.69" cy="331.47" r="3.2" fill="#1d4ed8"/>
<circle cx="894.22" cy="331.07" r="3.2" fill="#1d4ed8"/>
<circle cx="896.75" cy="331.07" r="3.2" fill="#1d4ed8"/>
<circle cx="899.28" cy="331.07" r="3.2" fill="#1d4ed8"/>
<circle cx="901.81" cy="331.07" r="3.2" fill="#1d4ed8"/>
<circle cx="904.34" cy="331.07" r="3.2" fill="#1d4ed8"/>
<circle cx="906.87" cy="331.07" r="3.2" fill="#1d4ed8"/>
<circle cx="909.40" cy="331.07" r="3.2" fill="#1d4ed8"/>
<circle cx="911.93" cy="331.07" r="3.2" fill="#1d4ed8"/>
<circle cx="914.45" cy="331.07" r="3.2" fill="#1d4ed8"/>
<circle cx="916.98" cy="331.07" r="3.2" fill="#1d4ed8"/>
<circle cx="919.51" cy="331.47" r="3.2" fill="#1d4ed8"/>
<circle cx="922.04" cy="331.88" r="3.2" fill="#1d4ed8"/>
<circle cx="924.57" cy="331.07" r="3.2" fill="#1d4ed8"/>
<circle cx="927.10" cy="331.47" r="3.2" fill="#1d4ed8"/>
<circle cx="929.63" cy="331.07" r="3.2" fill="#1d4ed8"/>
<circle cx="932.16" cy="331.47" r="3.2" fill="#1d4ed8"/>
<circle cx="934.69" cy="331.07" r="3.2" fill="#1d4ed8"/>
<circle cx="937.22" cy="324.19" r="3.2" fill="#1d4ed8"/>
<circle cx="939.74" cy="324.19" r="3.2" fill="#1d4ed8"/>
<circle cx="942.27" cy="318.93" r="3.2" fill="#1d4ed8"/>
<circle cx="944.80" cy="316.51" r="3.2" fill="#1d4ed8"/>
<circle cx="947.33" cy="310.44" r="3.2" fill="#1d4ed8"/>
<circle cx="949.86" cy="308.01" r="3.2" fill="#1d4ed8"/>
<circle cx="952.39" cy="600.00" r="3.2" fill="#1d4ed8"/>
<circle cx="954.92" cy="301.54" r="3.2" fill="#1d4ed8"/>
<circle cx="957.45" cy="290.22" r="3.2" fill="#1d4ed8"/>
<circle cx="959.98" cy="287.79" r="3.2" fill="#1d4ed8"/>
<circle cx="962.51" cy="286.18" r="3.2" fill="#1d4ed8"/>
<circle cx="965.03" cy="285.77" r="3.2" fill="#1d4ed8"/>
<circle cx="967.56" cy="285.77" r="3.2" fill="#1d4ed8"/>
<circle cx="970.09" cy="285.77" r="3.2" fill="#1d4ed8"/>
<circle cx="972.62" cy="286.18" r="3.2" fill="#1d4ed8"/>
<circle cx="975.15" cy="285.77" r="3.2" fill="#1d4ed8"/>
<circle cx="977.68" cy="285.77" r="3.2" fill="#1d4ed8"/>
<circle cx="980.21" cy="285.77" r="3.2" fill="#1d4ed8"/>
<circle cx="982.74" cy="283.35" r="3.2" fill="#1d4ed8"/>
<circle cx="985.27" cy="282.94" r="3.2" fill="#1d4ed8"/>
<circle cx="987.80" cy="282.94" r="3.2" fill="#1d4ed8"/>
<circle cx="990.32" cy="283.35" r="3.2" fill="#1d4ed8"/>
<circle cx="992.85" cy="282.94" r="3.2" fill="#1d4ed8"/>
<circle cx="995.38" cy="282.94" r="3.2" fill="#1d4ed8"/>
<circle cx="997.91" cy="283.75" r="3.2" fill="#1d4ed8"/>
<circle cx="1000.44" cy="282.13" r="3.2" fill="#1d4ed8"/>
<circle cx="1002.97" cy="282.13" r="3.2" fill="#1d4ed8"/>
<circle cx="1005.50" cy="282.54" r="3.2" fill="#1d4ed8"/>
<circle cx="1008.03" cy="282.13" r="3.2" fill="#1d4ed8"/>
<circle cx="1010.56" cy="282.54" r="3.2" fill="#1d4ed8"/>
<circle cx="1013.09" cy="282.94" r="3.2" fill="#1d4ed8"/>
<circle cx="1015.61" cy="281.73" r="3.2" fill="#1d4ed8"/>
<circle cx="1018.14" cy="282.54" r="3.2" fill="#1d4ed8"/>
<circle cx="1020.67" cy="281.73" r="3.2" fill="#1d4ed8"/>
<circle cx="1023.20" cy="282.54" r="3.2" fill="#1d4ed8"/>
<circle cx="1025.73" cy="282.13" r="3.2" fill="#1d4ed8"/>
<circle cx="1028.26" cy="282.13" r="3.2" fill="#1d4ed8"/>
<circle cx="1030.79" cy="281.73" r="3.2" fill="#1d4ed8"/>
<circle cx="1033.32" cy="281.73" r="3.2" fill="#1d4ed8"/>
<circle cx="1035.85" cy="281.32" r="3.2" fill="#1d4ed8"/>
<circle cx="1038.38" cy="281.73" r="3.2" fill="#1d4ed8"/>
<circle cx="1040.90" cy="282.13" r="3.2" fill="#1d4ed8"/>
<circle cx="1043.43" cy="281.32" r="3.2" fill="#1d4ed8"/>
<circle cx="1045.96" cy="281.32" r="3.2" fill="#1d4ed8"/>
<circle cx="1048.49" cy="282.54" r="3.2" fill="#1d4ed8"/>
<circle cx="1051.02" cy="282.13" r="3.2" fill="#1d4ed8"/>
<circle cx="1053.55" cy="281.32" r="3.2" fill="#1d4ed8"/>
<circle cx="1056.08" cy="281.32" r="3.2" fill="#1d4ed8"/>
<circle cx="1058.61" cy="281.32" r="3.2" fill="#1d4ed8"/>
<circle cx="1061.14" cy="282.54" r="3.2" fill="#1d4ed8"/>
<circle cx="1063.67" cy="282.13" r="3.2" fill="#1d4ed8"/>
<circle cx="1066.19" cy="281.32" r="3.2" fill="#1d4ed8"/>
<circle cx="1068.72" cy="282.13" r="3.2" fill="#1d4ed8"/>
<circle cx="1071.25" cy="281.73" r="3.2" fill="#1d4ed8"/>
<circle cx="1073.78" cy="282.13" r="3.2" fill="#1d4ed8"/>
<circle cx="1076.31" cy="280.11" r="3.2" fill="#1d4ed8"/>
<circle cx="1078.84" cy="280.11" r="3.2" fill="#1d4ed8"/>
<circle cx="1081.37" cy="280.51" r="3.2" fill="#1d4ed8"/>
<circle cx="1083.90" cy="279.71" r="3.2" fill="#1d4ed8"/>
<circle cx="1086.43" cy="280.11" r="3.2" fill="#1d4ed8"/>
<circle cx="1088.96" cy="280.51" r="3.2" fill="#1d4ed8"/>
<circle cx="1091.48" cy="279.71" r="3.2" fill="#1d4ed8"/>
<circle cx="1094.01" cy="280.11" r="3.2" fill="#1d4ed8"/>
<circle cx="1096.54" cy="280.11" r="3.2" fill="#1d4ed8"/>
<circle cx="1099.07" cy="279.30" r="3.2" fill="#1d4ed8"/>
<circle cx="1101.60" cy="278.90" r="3.2" fill="#1d4ed8"/>
<circle cx="1104.13" cy="278.90" r="3.2" fill="#1d4ed8"/>
<circle cx="1106.66" cy="280.51" r="3.2" fill="#1d4ed8"/>
<circle cx="1109.19" cy="279.30" r="3.2" fill="#1d4ed8"/>
<circle cx="1111.72" cy="278.09" r="3.2" fill="#1d4ed8"/>
<circle cx="1114.25" cy="278.49" r="3.2" fill="#1d4ed8"/>
<circle cx="1116.77" cy="278.49" r="3.2" fill="#1d4ed8"/>
<circle cx="1119.30" cy="277.28" r="3.2" fill="#1d4ed8"/>
<circle cx="1121.83" cy="277.68" r="3.2" fill="#1d4ed8"/>
<circle cx="1124.36" cy="277.68" r="3.2" fill="#1d4ed8"/>
<circle cx="1126.89" cy="278.09" r="3.2" fill="#1d4ed8"/>
<circle cx="1129.42" cy="277.28" r="3.2" fill="#1d4ed8"/>
<circle cx="1131.95" cy="600.00" r="3.2" fill="#1d4ed8"/>
<circle cx="1134.48" cy="278.90" r="3.2" fill="#1d4ed8"/>
<circle cx="1137.01" cy="279.30" r="3.2" fill="#1d4ed8"/>
<circle cx="1139.54" cy="278.90" r="3.2" fill="#1d4ed8"/>
<circle cx="1142.06" cy="278.49" r="3.2" fill="#1d4ed8"/>
<circle cx="1144.59" cy="278.49" r="3.2" fill="#1d4ed8"/>
<circle cx="1147.12" cy="278.49" r="3.2" fill="#1d4ed8"/>
<circle cx="1149.65" cy="278.49" r="3.2" fill="#1d4ed8"/>
<circle cx="1152.18" cy="278.49" r="3.2" fill="#1d4ed8"/>
<circle cx="1154.71" cy="278.49" r="3.2" fill="#1d4ed8"/>
<circle cx="1157.24" cy="278.49" r="3.2" fill="#1d4ed8"/>
<circle cx="1159.77" cy="278.49" r="3.2" fill="#1d4ed8"/>
<circle cx="1162.30" cy="278.49" r="3.2" fill="#1d4ed8"/>
<circle cx="1164.83" cy="278.49" r="3.2" fill="#1d4ed8"/>
<circle cx="1167.35" cy="278.49" r="3.2" fill="#1d4ed8"/>
<circle cx="1169.88" cy="278.49" r="3.2" fill="#1d4ed8"/>
<circle cx="1172.41" cy="600.00" r="3.2" fill="#1d4ed8"/>
<circle cx="1174.94" cy="600.00" r="3.2" fill="#1d4ed8"/>
<circle cx="1177.47" cy="254.63" r="3.2" fill="#1d4ed8"/>
<circle cx="1180.00" cy="600.00" r="3.2" fill="#1d4ed8"/>
<text x="635" y="695" text-anchor="middle" font-size="14" fill="#111" font-family="sans-serif">Date</text>
<text x="24" y="325" text-anchor="middle" font-size="14" fill="#111" transform="rotate(-90 24,325)" font-family="sans-serif">Passed files</text>
</svg>
