<?xml version="1.0" encoding="UTF-8"?>
<svg xmlns="http://www.w3.org/2000/svg" width="1280" height="720" viewBox="0 0 1280 720">
<rect width="100%" height="100%" fill="#ffffff"/>
<text x="640" y="30" text-anchor="middle" font-size="22" font-family="sans-serif">Roast passed files history</text>
<line x1="90" y1="600" x2="1180" y2="600" stroke="#333" stroke-width="1.5"/>
<line x1="90" y1="50" x2="90" y2="600" stroke="#333" stroke-width="1.5"/>
<line x1="90" y1="600.00" x2="1180" y2="600.00" stroke="#e5e7eb" stroke-width="1"/>
<text x="78" y="605.00" text-anchor="end" font-size="12" fill="#111" font-family="sans-serif">0</text>
<line x1="90" y1="397.79" x2="1180" y2="397.79" stroke="#e5e7eb" stroke-width="1"/>
<text x="78" y="402.79" text-anchor="end" font-size="12" fill="#111" font-family="sans-serif">500</text>
<line x1="90" y1="195.59" x2="1180" y2="195.59" stroke="#e5e7eb" stroke-width="1"/>
<text x="78" y="200.59" text-anchor="end" font-size="12" fill="#111" font-family="sans-serif">1000</text>
<line x1="90.00" y1="600" x2="90.00" y2="606" stroke="#333" stroke-width="1"/>
<text x="90.00" y="624" text-anchor="end" font-size="11" fill="#111" transform="rotate(-40 90.00,624)" font-family="sans-serif">2026-02-12</text>
<line x1="226.62" y1="600" x2="226.62" y2="606" stroke="#333" stroke-width="1"/>
<text x="226.62" y="624" text-anchor="end" font-size="11" fill="#111" transform="rotate(-40 226.62,624)" font-family="sans-serif">2026-02-17</text>
<line x1="363.24" y1="600" x2="363.24" y2="606" stroke="#333" stroke-width="1"/>
<text x="363.24" y="624" text-anchor="end" font-size="11" fill="#111" transform="rotate(-40 363.24,624)" font-family="sans-serif">2026-02-22</text>
<line x1="499.86" y1="600" x2="499.86" y2="606" stroke="#333" stroke-width="1"/>
<text x="499.86" y="624" text-anchor="end" font-size="11" fill="#111" transform="rotate(-40 499.86,624)" font-family="sans-serif">2026-02-25</text>
<line x1="636.49" y1="600" x2="636.49" y2="606" stroke="#333" stroke-width="1"/>
<text x="636.49" y="624" text-anchor="end" font-size="11" fill="#111" transform="rotate(-40 636.49,624)" font-family="sans-serif">2026-02-28</text>
<line x1="773.11" y1="600" x2="773.11" y2="606" stroke="#333" stroke-width="1"/>
<text x="773.11" y="624" text-anchor="end" font-size="11" fill="#111" transform="rotate(-40 773.11,624)" font-family="sans-serif">2026-03-06</text>
<line x1="909.73" y1="600" x2="909.73" y2="606" stroke="#333" stroke-width="1"/>
<text x="909.73" y="624" text-anchor="end" font-size="11" fill="#111" transform="rotate(-40 909.73,624)" font-family="sans-serif">2026-03-07</text>
<line x1="1046.35" y1="600" x2="1046.35" y2="606" stroke="#333" stroke-width="1"/>
<text x="1046.35" y="624" text-anchor="end" font-size="11" fill="#111" transform="rotate(-40 1046.35,624)" font-family="sans-serif">2026-03-11</text>
<line x1="1180.00" y1="600" x2="1180.00" y2="606" stroke="#333" stroke-width="1"/>
<text x="1180.00" y="624" text-anchor="end" font-size="11" fill="#111" transform="rotate(-40 1180.00,624)" font-family="sans-serif">2026-03-18</text>
<line x1="90" y1="75.88" x2="1180" y2="75.88" stroke="#dc2626" stroke-width="1.5" stroke-dasharray="8,4"/>
<text x="1184" y="79.88" font-size="12" fill="#dc2626" font-family="sans-serif">Goal: 1296</text>
<polyline fill="none" stroke="#2563eb" stroke-width="3" points="90.00,540.55 92.97,538.53 95.94,536.91 98.91,534.49 101.88,534.49 104.85,533.27 107.82,532.46 110.79,532.87 113.76,532.06 116.73,532.46 119.70,532.06 122.67,568.46 125.64,568.46 128.61,566.43 131.58,545.00 134.55,545.00 137.52,544.19 140.49,543.79 143.46,543.79 146.43,543.38 149.40,541.76 152.37,541.36 155.34,540.96 158.31,540.96 161.28,539.34 164.25,539.34 167.22,556.73 170.19,556.73 173.16,555.51 176.13,551.07 179.10,538.93 182.07,538.93 185.04,538.93 188.01,538.12 190.98,536.91 193.95,536.91 196.92,536.51 199.89,536.51 202.86,556.73 205.83,556.73 208.80,556.73 211.77,556.73 214.74,535.29 217.71,535.29 220.68,535.29 223.65,535.29 226.62,534.49 229.59,534.08 232.56,533.68 235.53,532.87 238.50,532.06 241.47,532.06 244.44,531.25 247.41,530.85 250.38,530.44 253.35,530.04 256.32,530.04 259.29,529.23 262.26,529.23 265.23,529.23 268.20,528.42 271.17,528.42 274.14,527.61 277.11,527.21 280.08,526.80 283.05,526.40 286.02,525.18 288.99,523.57 291.96,523.57 294.93,523.16 297.90,522.76 300.87,522.35 303.84,521.54 306.81,519.52 309.78,517.50 312.75,517.50 315.72,517.50 318.69,517.50 321.66,517.50 324.63,517.50 327.60,517.10 330.57,516.69 333.54,515.48 336.51,515.07 339.48,514.67 342.45,513.86 345.42,514.26 348.39,512.24 351.36,511.84 354.33,511.84 357.30,511.03 360.27,509.82 363.24,507.79 366.21,506.99 369.18,506.58 372.15,509.41 375.12,509.01 378.09,504.96 381.06,504.56 384.03,504.15 387.00,504.56 389.97,503.75 392.94,503.75 395.91,503.35 398.88,499.30 401.85,496.47 404.82,490.00 407.79,484.34 410.76,481.10 413.73,480.29 416.70,480.70 419.67,460.88 422.64,459.26 425.61,458.05 428.58,456.03 431.55,456.03 434.52,454.41 437.49,450.77 440.46,444.30 443.43,443.90 446.40,600.00 449.37,441.88 452.34,440.66 455.31,439.45 458.28,439.04 461.25,438.64 464.22,437.83 467.19,436.62 470.16,436.62 473.13,434.60 476.10,432.17 479.07,429.34 482.04,428.93 485.01,428.53 487.98,427.72 490.95,426.91 493.92,426.10 496.89,426.10 499.86,426.10 502.83,419.63 505.80,419.23 508.77,418.42 511.74,418.01 514.71,417.61 517.68,417.61 520.65,417.61 523.62,417.21 526.59,417.21 529.56,413.57 532.53,411.95 535.50,412.76 538.47,410.74 541.44,410.74 544.41,410.33 547.38,410.33 550.35,410.33 553.32,409.93 556.29,409.93 559.26,409.93 562.23,409.52 565.20,409.52 568.17,409.12 571.14,409.52 574.11,409.12 577.08,407.50 580.05,407.10 583.02,403.05 585.99,399.82 588.96,400.22 591.93,400.62 594.90,400.62 597.87,399.41 600.84,392.94 603.81,391.32 606.78,389.30 609.75,389.30 612.72,388.49 615.69,375.15 618.66,374.74 621.63,374.74 624.60,374.74 627.57,374.74 630.54,374.34 633.51,374.34 636.49,374.34 639.46,374.34 642.43,374.34 645.40,373.93 648.37,373.12 651.34,372.72 654.31,373.53 657.28,435.81 660.25,372.32 663.22,372.72 666.19,371.91 669.16,371.91 672.13,372.32 675.10,371.10 678.07,369.89 681.04,369.89 684.01,369.89 686.98,369.49 689.95,369.89 692.92,369.08 695.89,368.68 698.86,368.27 701.83,367.87 704.80,367.06 707.77,367.46 710.74,367.06 713.71,366.25 716.68,368.27 719.65,368.68 722.62,368.68 725.59,368.27 728.56,369.08 731.53,367.87 734.50,367.46 737.47,367.06 740.44,360.18 743.41,359.78 746.38,359.38 749.35,356.95 752.32,357.35 755.29,357.76 758.26,355.33 761.23,355.74 764.20,357.35 767.17,355.33 770.14,356.14 773.11,355.74 776.08,356.14 779.05,354.12 782.02,354.93 784.99,356.14 787.96,354.52 790.93,353.71 793.90,354.12 796.87,354.93 799.84,352.90 802.81,353.71 805.78,353.31 808.75,353.31 811.72,354.52 814.69,352.90 817.66,352.50 820.63,352.50 823.60,353.31 826.57,352.50 829.54,353.71 832.51,354.12 835.48,352.50 838.45,352.90 841.42,352.50 844.39,352.10 847.36,351.69 850.33,352.10 853.30,354.12 856.27,352.50 859.24,352.10 862.21,352.10 865.18,349.67 868.15,349.67 871.12,350.88 874.09,351.29 877.06,350.48 880.03,352.10 883.00,350.48 885.97,350.48 888.94,350.48 891.91,350.07 894.88,348.46 897.85,351.29 900.82,349.67 903.79,351.29 906.76,349.67 909.73,348.86 912.70,348.46 915.67,348.46 918.64,347.24 921.61,348.86 924.58,346.84 927.55,348.46 930.52,348.86 933.49,346.84 936.46,349.26 939.43,348.05 942.40,349.26 945.37,349.26 948.34,350.48 951.31,352.90 954.28,349.67 957.25,348.46 960.22,345.62 963.19,344.82 966.16,344.41 969.13,342.39 972.10,341.18 975.07,341.58 978.04,339.15 981.01,338.35 983.98,337.54 986.95,336.73 989.92,335.92 992.89,337.54 995.86,338.35 998.83,337.54 1001.80,337.54 1004.77,337.54 1007.74,333.09 1010.71,333.90 1013.68,335.92 1016.65,336.73 1019.62,335.51 1022.59,332.28 1025.56,331.47 1028.53,331.07 1031.50,331.47 1034.47,331.07 1037.44,331.07 1040.41,331.07 1043.38,331.07 1046.35,331.07 1049.32,331.07 1052.29,331.07 1055.26,331.07 1058.23,331.07 1061.20,331.07 1064.17,331.47 1067.14,331.88 1070.11,331.07 1073.08,331.47 1076.05,331.07 1079.02,331.47 1081.99,331.07 1084.96,324.19 1087.93,324.19 1090.90,318.93 1093.87,316.51 1096.84,310.44 1099.81,308.01 1102.78,600.00 1105.75,301.54 1108.72,290.22 1111.69,287.79 1114.66,286.18 1117.63,285.77 1120.60,285.77 1123.57,285.77 1126.54,286.18 1129.51,285.77 1132.48,285.77 1135.45,285.77 1138.42,283.35 1141.39,282.94 1144.36,282.94 1147.33,283.35 1150.30,282.94 1153.27,282.94 1156.24,283.75 1159.21,282.13 1162.18,282.13 1165.15,282.54 1168.12,282.13 1171.09,282.54 1174.06,282.94 1177.03,281.73 1180.00,282.54"/>
<circle cx="90.00" cy="540.55" r="3.2" fill="#1d4ed8"/>
<circle cx="92.97" cy="538.53" r="3.2" fill="#1d4ed8"/>
<circle cx="95.94" cy="536.91" r="3.2" fill="#1d4ed8"/>
<circle cx="98.91" cy="534.49" r="3.2" fill="#1d4ed8"/>
<circle cx="101.88" cy="534.49" r="3.2" fill="#1d4ed8"/>
<circle cx="104.85" cy="533.27" r="3.2" fill="#1d4ed8"/>
<circle cx="107.82" cy="532.46" r="3.2" fill="#1d4ed8"/>
<circle cx="110.79" cy="532.87" r="3.2" fill="#1d4ed8"/>
<circle cx="113.76" cy="532.06" r="3.2" fill="#1d4ed8"/>
<circle cx="116.73" cy="532.46" r="3.2" fill="#1d4ed8"/>
<circle cx="119.70" cy="532.06" r="3.2" fill="#1d4ed8"/>
<circle cx="122.67" cy="568.46" r="3.2" fill="#1d4ed8"/>
<circle cx="125.64" cy="568.46" r="3.2" fill="#1d4ed8"/>
<circle cx="128.61" cy="566.43" r="3.2" fill="#1d4ed8"/>
<circle cx="131.58" cy="545.00" r="3.2" fill="#1d4ed8"/>
<circle cx="134.55" cy="545.00" r="3.2" fill="#1d4ed8"/>
<circle cx="137.52" cy="544.19" r="3.2" fill="#1d4ed8"/>
<circle cx="140.49" cy="543.79" r="3.2" fill="#1d4ed8"/>
<circle cx="143.46" cy="543.79" r="3.2" fill="#1d4ed8"/>
<circle cx="146.43" cy="543.38" r="3.2" fill="#1d4ed8"/>
<circle cx="149.40" cy="541.76" r="3.2" fill="#1d4ed8"/>
<circle cx="152.37" cy="541.36" r="3.2" fill="#1d4ed8"/>
<circle cx="155.34" cy="540.96" r="3.2" fill="#1d4ed8"/>
<circle cx="158.31" cy="540.96" r="3.2" fill="#1d4ed8"/>
<circle cx="161.28" cy="539.34" r="3.2" fill="#1d4ed8"/>
<circle cx="164.25" cy="539.34" r="3.2" fill="#1d4ed8"/>
<circle cx="167.22" cy="556.73" r="3.2" fill="#1d4ed8"/>
<circle cx="170.19" cy="556.73" r="3.2" fill="#1d4ed8"/>
<circle cx="173.16" cy="555.51" r="3.2" fill="#1d4ed8"/>
<circle cx="176.13" cy="551.07" r="3.2" fill="#1d4ed8"/>
<circle cx="179.10" cy="538.93" r="3.2" fill="#1d4ed8"/>
<circle cx="182.07" cy="538.93" r="3.2" fill="#1d4ed8"/>
<circle cx="185.04" cy="538.93" r="3.2" fill="#1d4ed8"/>
<circle cx="188.01" cy="538.12" r="3.2" fill="#1d4ed8"/>
<circle cx="190.98" cy="536.91" r="3.2" fill="#1d4ed8"/>
<circle cx="193.95" cy="536.91" r="3.2" fill="#1d4ed8"/>
<circle cx="196.92" cy="536.51" r="3.2" fill="#1d4ed8"/>
<circle cx="199.89" cy="536.51" r="3.2" fill="#1d4ed8"/>
<circle cx="202.86" cy="556.73" r="3.2" fill="#1d4ed8"/>
<circle cx="205.83" cy="556.73" r="3.2" fill="#1d4ed8"/>
<circle cx="208.80" cy="556.73" r="3.2" fill="#1d4ed8"/>
<circle cx="211.77" cy="556.73" r="3.2" fill="#1d4ed8"/>
<circle cx="214.74" cy="535.29" r="3.2" fill="#1d4ed8"/>
<circle cx="217.71" cy="535.29" r="3.2" fill="#1d4ed8"/>
<circle cx="220.68" cy="535.29" r="3.2" fill="#1d4ed8"/>
<circle cx="223.65" cy="535.29" r="3.2" fill="#1d4ed8"/>
<circle cx="226.62" cy="534.49" r="3.2" fill="#1d4ed8"/>
<circle cx="229.59" cy="534.08" r="3.2" fill="#1d4ed8"/>
<circle cx="232.56" cy="533.68" r="3.2" fill="#1d4ed8"/>
<circle cx="235.53" cy="532.87" r="3.2" fill="#1d4ed8"/>
<circle cx="238.50" cy="532.06" r="3.2" fill="#1d4ed8"/>
<circle cx="241.47" cy="532.06" r="3.2" fill="#1d4ed8"/>
<circle cx="244.44" cy="531.25" r="3.2" fill="#1d4ed8"/>
<circle cx="247.41" cy="530.85" r="3.2" fill="#1d4ed8"/>
<circle cx="250.38" cy="530.44" r="3.2" fill="#1d4ed8"/>
<circle cx="253.35" cy="530.04" r="3.2" fill="#1d4ed8"/>
<circle cx="256.32" cy="530.04" r="3.2" fill="#1d4ed8"/>
<circle cx="259.29" cy="529.23" r="3.2" fill="#1d4ed8"/>
<circle cx="262.26" cy="529.23" r="3.2" fill="#1d4ed8"/>
<circle cx="265.23" cy="529.23" r="3.2" fill="#1d4ed8"/>
<circle cx="268.20" cy="528.42" r="3.2" fill="#1d4ed8"/>
<circle cx="271.17" cy="528.42" r="3.2" fill="#1d4ed8"/>
<circle cx="274.14" cy="527.61" r="3.2" fill="#1d4ed8"/>
<circle cx="277.11" cy="527.21" r="3.2" fill="#1d4ed8"/>
<circle cx="280.08" cy="526.80" r="3.2" fill="#1d4ed8"/>
<circle cx="283.05" cy="526.40" r="3.2" fill="#1d4ed8"/>
<circle cx="286.02" cy="525.18" r="3.2" fill="#1d4ed8"/>
<circle cx="288.99" cy="523.57" r="3.2" fill="#1d4ed8"/>
<circle cx="291.96" cy="523.57" r="3.2" fill="#1d4ed8"/>
<circle cx="294.93" cy="523.16" r="3.2" fill="#1d4ed8"/>
<circle cx="297.90" cy="522.76" r="3.2" fill="#1d4ed8"/>
<circle cx="300.87" cy="522.35" r="3.2" fill="#1d4ed8"/>
<circle cx="303.84" cy="521.54" r="3.2" fill="#1d4ed8"/>
<circle cx="306.81" cy="519.52" r="3.2" fill="#1d4ed8"/>
<circle cx="309.78" cy="517.50" r="3.2" fill="#1d4ed8"/>
<circle cx="312.75" cy="517.50" r="3.2" fill="#1d4ed8"/>
<circle cx="315.72" cy="517.50" r="3.2" fill="#1d4ed8"/>
<circle cx="318.69" cy="517.50" r="3.2" fill="#1d4ed8"/>
<circle cx="321.66" cy="517.50" r="3.2" fill="#1d4ed8"/>
<circle cx="324.63" cy="517.50" r="3.2" fill="#1d4ed8"/>
<circle cx="327.60" cy="517.10" r="3.2" fill="#1d4ed8"/>
<circle cx="330.57" cy="516.69" r="3.2" fill="#1d4ed8"/>
<circle cx="333.54" cy="515.48" r="3.2" fill="#1d4ed8"/>
<circle cx="336.51" cy="515.07" r="3.2" fill="#1d4ed8"/>
<circle cx="339.48" cy="514.67" r="3.2" fill="#1d4ed8"/>
<circle cx="342.45" cy="513.86" r="3.2" fill="#1d4ed8"/>
<circle cx="345.42" cy="514.26" r="3.2" fill="#1d4ed8"/>
<circle cx="348.39" cy="512.24" r="3.2" fill="#1d4ed8"/>
<circle cx="351.36" cy="511.84" r="3.2" fill="#1d4ed8"/>
<circle cx="354.33" cy="511.84" r="3.2" fill="#1d4ed8"/>
<circle cx="357.30" cy="511.03" r="3.2" fill="#1d4ed8"/>
<circle cx="360.27" cy="509.82" r="3.2" fill="#1d4ed8"/>
<circle cx="363.24" cy="507.79" r="3.2" fill="#1d4ed8"/>
<circle cx="366.21" cy="506.99" r="3.2" fill="#1d4ed8"/>
<circle cx="369.18" cy="506.58" r="3.2" fill="#1d4ed8"/>
<circle cx="372.15" cy="509.41" r="3.2" fill="#1d4ed8"/>
<circle cx="375.12" cy="509.01" r="3.2" fill="#1d4ed8"/>
<circle cx="378.09" cy="504.96" r="3.2" fill="#1d4ed8"/>
<circle cx="381.06" cy="504.56" r="3.2" fill="#1d4ed8"/>
<circle cx="384.03" cy="504.15" r="3.2" fill="#1d4ed8"/>
<circle cx="387.00" cy="504.56" r="3.2" fill="#1d4ed8"/>
<circle cx="389.97" cy="503.75" r="3.2" fill="#1d4ed8"/>
<circle cx="392.94" cy="503.75" r="3.2" fill="#1d4ed8"/>
<circle cx="395.91" cy="503.35" r="3.2" fill="#1d4ed8"/>
<circle cx="398.88" cy="499.30" r="3.2" fill="#1d4ed8"/>
<circle cx="401.85" cy="496.47" r="3.2" fill="#1d4ed8"/>
<circle cx="404.82" cy="490.00" r="3.2" fill="#1d4ed8"/>
<circle cx="407.79" cy="484.34" r="3.2" fill="#1d4ed8"/>
<circle cx="410.76" cy="481.10" r="3.2" fill="#1d4ed8"/>
<circle cx="413.73" cy="480.29" r="3.2" fill="#1d4ed8"/>
<circle cx="416.70" cy="480.70" r="3.2" fill="#1d4ed8"/>
<circle cx="419.67" cy="460.88" r="3.2" fill="#1d4ed8"/>
<circle cx="422.64" cy="459.26" r="3.2" fill="#1d4ed8"/>
<circle cx="425.61" cy="458.05" r="3.2" fill="#1d4ed8"/>
<circle cx="428.58" cy="456.03" r="3.2" fill="#1d4ed8"/>
<circle cx="431.55" cy="456.03" r="3.2" fill="#1d4ed8"/>
<circle cx="434.52" cy="454.41" r="3.2" fill="#1d4ed8"/>
<circle cx="437.49" cy="450.77" r="3.2" fill="#1d4ed8"/>
<circle cx="440.46" cy="444.30" r="3.2" fill="#1d4ed8"/>
<circle cx="443.43" cy="443.90" r="3.2" fill="#1d4ed8"/>
<circle cx="446.40" cy="600.00" r="3.2" fill="#1d4ed8"/>
<circle cx="449.37" cy="441.88" r="3.2" fill="#1d4ed8"/>
<circle cx="452.34" cy="440.66" r="3.2" fill="#1d4ed8"/>
<circle cx="455.31" cy="439.45" r="3.2" fill="#1d4ed8"/>
<circle cx="458.28" cy="439.04" r="3.2" fill="#1d4ed8"/>
<circle cx="461.25" cy="438.64" r="3.2" fill="#1d4ed8"/>
<circle cx="464.22" cy="437.83" r="3.2" fill="#1d4ed8"/>
<circle cx="467.19" cy="436.62" r="3.2" fill="#1d4ed8"/>
<circle cx="470.16" cy="436.62" r="3.2" fill="#1d4ed8"/>
<circle cx="473.13" cy="434.60" r="3.2" fill="#1d4ed8"/>
<circle cx="476.10" cy="432.17" r="3.2" fill="#1d4ed8"/>
<circle cx="479.07" cy="429.34" r="3.2" fill="#1d4ed8"/>
<circle cx="482.04" cy="428.93" r="3.2" fill="#1d4ed8"/>
<circle cx="485.01" cy="428.53" r="3.2" fill="#1d4ed8"/>
<circle cx="487.98" cy="427.72" r="3.2" fill="#1d4ed8"/>
<circle cx="490.95" cy="426.91" r="3.2" fill="#1d4ed8"/>
<circle cx="493.92" cy="426.10" r="3.2" fill="#1d4ed8"/>
<circle cx="496.89" cy="426.10" r="3.2" fill="#1d4ed8"/>
<circle cx="499.86" cy="426.10" r="3.2" fill="#1d4ed8"/>
<circle cx="502.83" cy="419.63" r="3.2" fill="#1d4ed8"/>
<circle cx="505.80" cy="419.23" r="3.2" fill="#1d4ed8"/>
<circle cx="508.77" cy="418.42" r="3.2" fill="#1d4ed8"/>
<circle cx="511.74" cy="418.01" r="3.2" fill="#1d4ed8"/>
<circle cx="514.71" cy="417.61" r="3.2" fill="#1d4ed8"/>
<circle cx="517.68" cy="417.61" r="3.2" fill="#1d4ed8"/>
<circle cx="520.65" cy="417.61" r="3.2" fill="#1d4ed8"/>
<circle cx="523.62" cy="417.21" r="3.2" fill="#1d4ed8"/>
<circle cx="526.59" cy="417.21" r="3.2" fill="#1d4ed8"/>
<circle cx="529.56" cy="413.57" r="3.2" fill="#1d4ed8"/>
<circle cx="532.53" cy="411.95" r="3.2" fill="#1d4ed8"/>
<circle cx="535.50" cy="412.76" r="3.2" fill="#1d4ed8"/>
<circle cx="538.47" cy="410.74" r="3.2" fill="#1d4ed8"/>
<circle cx="541.44" cy="410.74" r="3.2" fill="#1d4ed8"/>
<circle cx="544.41" cy="410.33" r="3.2" fill="#1d4ed8"/>
<circle cx="547.38" cy="410.33" r="3.2" fill="#1d4ed8"/>
<circle cx="550.35" cy="410.33" r="3.2" fill="#1d4ed8"/>
<circle cx="553.32" cy="409.93" r="3.2" fill="#1d4ed8"/>
<circle cx="556.29" cy="409.93" r="3.2" fill="#1d4ed8"/>
<circle cx="559.26" cy="409.93" r="3.2" fill="#1d4ed8"/>
<circle cx="562.23" cy="409.52" r="3.2" fill="#1d4ed8"/>
<circle cx="565.20" cy="409.52" r="3.2" fill="#1d4ed8"/>
<circle cx="568.17" cy="409.12" r="3.2" fill="#1d4ed8"/>
<circle cx="571.14" cy="409.52" r="3.2" fill="#1d4ed8"/>
<circle cx="574.11" cy="409.12" r="3.2" fill="#1d4ed8"/>
<circle cx="577.08" cy="407.50" r="3.2" fill="#1d4ed8"/>
<circle cx="580.05" cy="407.10" r="3.2" fill="#1d4ed8"/>
<circle cx="583.02" cy="403.05" r="3.2" fill="#1d4ed8"/>
<circle cx="585.99" cy="399.82" r="3.2" fill="#1d4ed8"/>
<circle cx="588.96" cy="400.22" r="3.2" fill="#1d4ed8"/>
<circle cx="591.93" cy="400.62" r="3.2" fill="#1d4ed8"/>
<circle cx="594.90" cy="400.62" r="3.2" fill="#1d4ed8"/>
<circle cx="597.87" cy="399.41" r="3.2" fill="#1d4ed8"/>
<circle cx="600.84" cy="392.94" r="3.2" fill="#1d4ed8"/>
<circle cx="603.81" cy="391.32" r="3.2" fill="#1d4ed8"/>
<circle cx="606.78" cy="389.30" r="3.2" fill="#1d4ed8"/>
<circle cx="609.75" cy="389.30" r="3.2" fill="#1d4ed8"/>
<circle cx="612.72" cy="388.49" r="3.2" fill="#1d4ed8"/>
<circle cx="615.69" cy="375.15" r="3.2" fill="#1d4ed8"/>
<circle cx="618.66" cy="374.74" r="3.2" fill="#1d4ed8"/>
<circle cx="621.63" cy="374.74" r="3.2" fill="#1d4ed8"/>
<circle cx="624.60" cy="374.74" r="3.2" fill="#1d4ed8"/>
<circle cx="627.57" cy="374.74" r="3.2" fill="#1d4ed8"/>
<circle cx="630.54" cy="374.34" r="3.2" fill="#1d4ed8"/>
<circle cx="633.51" cy="374.34" r="3.2" fill="#1d4ed8"/>
<circle cx="636.49" cy="374.34" r="3.2" fill="#1d4ed8"/>
<circle cx="639.46" cy="374.34" r="3.2" fill="#1d4ed8"/>
<circle cx="642.43" cy="374.34" r="3.2" fill="#1d4ed8"/>
<circle cx="645.40" cy="373.93" r="3.2" fill="#1d4ed8"/>
<circle cx="648.37" cy="373.12" r="3.2" fill="#1d4ed8"/>
<circle cx="651.34" cy="372.72" r="3.2" fill="#1d4ed8"/>
<circle cx="654.31" cy="373.53" r="3.2" fill="#1d4ed8"/>
<circle cx="657.28" cy="435.81" r="3.2" fill="#1d4ed8"/>
<circle cx="660.25" cy="372.32" r="3.2" fill="#1d4ed8"/>
<circle cx="663.22" cy="372.72" r="3.2" fill="#1d4ed8"/>
<circle cx="666.19" cy="371.91" r="3.2" fill="#1d4ed8"/>
<circle cx="669.16" cy="371.91" r="3.2" fill="#1d4ed8"/>
<circle cx="672.13" cy="372.32" r="3.2" fill="#1d4ed8"/>
<circle cx="675.10" cy="371.10" r="3.2" fill="#1d4ed8"/>
<circle cx="678.07" cy="369.89" r="3.2" fill="#1d4ed8"/>
<circle cx="681.04" cy="369.89" r="3.2" fill="#1d4ed8"/>
<circle cx="684.01" cy="369.89" r="3.2" fill="#1d4ed8"/>
<circle cx="686.98" cy="369.49" r="3.2" fill="#1d4ed8"/>
<circle cx="689.95" cy="369.89" r="3.2" fill="#1d4ed8"/>
<circle cx="692.92" cy="369.08" r="3.2" fill="#1d4ed8"/>
<circle cx="695.89" cy="368.68" r="3.2" fill="#1d4ed8"/>
<circle cx="698.86" cy="368.27" r="3.2" fill="#1d4ed8"/>
<circle cx="701.83" cy="367.87" r="3.2" fill="#1d4ed8"/>
<circle cx="704.80" cy="367.06" r="3.2" fill="#1d4ed8"/>
<circle cx="707.77" cy="367.46" r="3.2" fill="#1d4ed8"/>
<circle cx="710.74" cy="367.06" r="3.2" fill="#1d4ed8"/>
<circle cx="713.71" cy="366.25" r="3.2" fill="#1d4ed8"/>
<circle cx="716.68" cy="368.27" r="3.2" fill="#1d4ed8"/>
<circle cx="719.65" cy="368.68" r="3.2" fill="#1d4ed8"/>
<circle cx="722.62" cy="368.68" r="3.2" fill="#1d4ed8"/>
<circle cx="725.59" cy="368.27" r="3.2" fill="#1d4ed8"/>
<circle cx="728.56" cy="369.08" r="3.2" fill="#1d4ed8"/>
<circle cx="731.53" cy="367.87" r="3.2" fill="#1d4ed8"/>
<circle cx="734.50" cy="367.46" r="3.2" fill="#1d4ed8"/>
<circle cx="737.47" cy="367.06" r="3.2" fill="#1d4ed8"/>
<circle cx="740.44" cy="360.18" r="3.2" fill="#1d4ed8"/>
<circle cx="743.41" cy="359.78" r="3.2" fill="#1d4ed8"/>
<circle cx="746.38" cy="359.38" r="3.2" fill="#1d4ed8"/>
<circle cx="749.35" cy="356.95" r="3.2" fill="#1d4ed8"/>
<circle cx="752.32" cy="357.35" r="3.2" fill="#1d4ed8"/>
<circle cx="755.29" cy="357.76" r="3.2" fill="#1d4ed8"/>
<circle cx="758.26" cy="355.33" r="3.2" fill="#1d4ed8"/>
<circle cx="761.23" cy="355.74" r="3.2" fill="#1d4ed8"/>
<circle cx="764.20" cy="357.35" r="3.2" fill="#1d4ed8"/>
<circle cx="767.17" cy="355.33" r="3.2" fill="#1d4ed8"/>
<circle cx="770.14" cy="356.14" r="3.2" fill="#1d4ed8"/>
<circle cx="773.11" cy="355.74" r="3.2" fill="#1d4ed8"/>
<circle cx="776.08" cy="356.14" r="3.2" fill="#1d4ed8"/>
<circle cx="779.05" cy="354.12" r="3.2" fill="#1d4ed8"/>
<circle cx="782.02" cy="354.93" r="3.2" fill="#1d4ed8"/>
<circle cx="784.99" cy="356.14" r="3.2" fill="#1d4ed8"/>
<circle cx="787.96" cy="354.52" r="3.2" fill="#1d4ed8"/>
<circle cx="790.93" cy="353.71" r="3.2" fill="#1d4ed8"/>
<circle cx="793.90" cy="354.12" r="3.2" fill="#1d4ed8"/>
<circle cx="796.87" cy="354.93" r="3.2" fill="#1d4ed8"/>
<circle cx="799.84" cy="352.90" r="3.2" fill="#1d4ed8"/>
<circle cx="802.81" cy="353.71" r="3.2" fill="#1d4ed8"/>
<circle cx="805.78" cy="353.31" r="3.2" fill="#1d4ed8"/>
<circle cx="808.75" cy="353.31" r="3.2" fill="#1d4ed8"/>
<circle cx="811.72" cy="354.52" r="3.2" fill="#1d4ed8"/>
<circle cx="814.69" cy="352.90" r="3.2" fill="#1d4ed8"/>
<circle cx="817.66" cy="352.50" r="3.2" fill="#1d4ed8"/>
<circle cx="820.63" cy="352.50" r="3.2" fill="#1d4ed8"/>
<circle cx="823.60" cy="353.31" r="3.2" fill="#1d4ed8"/>
<circle cx="826.57" cy="352.50" r="3.2" fill="#1d4ed8"/>
<circle cx="829.54" cy="353.71" r="3.2" fill="#1d4ed8"/>
<circle cx="832.51" cy="354.12" r="3.2" fill="#1d4ed8"/>
<circle cx="835.48" cy="352.50" r="3.2" fill="#1d4ed8"/>
<circle cx="838.45" cy="352.90" r="3.2" fill="#1d4ed8"/>
<circle cx="841.42" cy="352.50" r="3.2" fill="#1d4ed8"/>
<circle cx="844.39" cy="352.10" r="3.2" fill="#1d4ed8"/>
<circle cx="847.36" cy="351.69" r="3.2" fill="#1d4ed8"/>
<circle cx="850.33" cy="352.10" r="3.2" fill="#1d4ed8"/>
<circle cx="853.30" cy="354.12" r="3.2" fill="#1d4ed8"/>
<circle cx="856.27" cy="352.50" r="3.2" fill="#1d4ed8"/>
<circle cx="859.24" cy="352.10" r="3.2" fill="#1d4ed8"/>
<circle cx="862.21" cy="352.10" r="3.2" fill="#1d4ed8"/>
<circle cx="865.18" cy="349.67" r="3.2" fill="#1d4ed8"/>
<circle cx="868.15" cy="349.67" r="3.2" fill="#1d4ed8"/>
<circle cx="871.12" cy="350.88" r="3.2" fill="#1d4ed8"/>
<circle cx="874.09" cy="351.29" r="3.2" fill="#1d4ed8"/>
<circle cx="877.06" cy="350.48" r="3.2" fill="#1d4ed8"/>
<circle cx="880.03" cy="352.10" r="3.2" fill="#1d4ed8"/>
<circle cx="883.00" cy="350.48" r="3.2" fill="#1d4ed8"/>
<circle cx="885.97" cy="350.48" r="3.2" fill="#1d4ed8"/>
<circle cx="888.94" cy="350.48" r="3.2" fill="#1d4ed8"/>
<circle cx="891.91" cy="350.07" r="3.2" fill="#1d4ed8"/>
<circle cx="894.88" cy="348.46" r="3.2" fill="#1d4ed8"/>
<circle cx="897.85" cy="351.29" r="3.2" fill="#1d4ed8"/>
<circle cx="900.82" cy="349.67" r="3.2" fill="#1d4ed8"/>
<circle cx="903.79" cy="351.29" r="3.2" fill="#1d4ed8"/>
<circle cx="906.76" cy="349.67" r="3.2" fill="#1d4ed8"/>
<circle cx="909.73" cy="348.86" r="3.2" fill="#1d4ed8"/>
<circle cx="912.70" cy="348.46" r="3.2" fill="#1d4ed8"/>
<circle cx="915.67" cy="348.46" r="3.2" fill="#1d4ed8"/>
<circle cx="918.64" cy="347.24" r="3.2" fill="#1d4ed8"/>
<circle cx="921.61" cy="348.86" r="3.2" fill="#1d4ed8"/>
<circle cx="924.58" cy="346.84" r="3.2" fill="#1d4ed8"/>
<circle cx="927.55" cy="348.46" r="3.2" fill="#1d4ed8"/>
<circle cx="930.52" cy="348.86" r="3.2" fill="#1d4ed8"/>
<circle cx="933.49" cy="346.84" r="3.2" fill="#1d4ed8"/>
<circle cx="936.46" cy="349.26" r="3.2" fill="#1d4ed8"/>
<circle cx="939.43" cy="348.05" r="3.2" fill="#1d4ed8"/>
<circle cx="942.40" cy="349.26" r="3.2" fill="#1d4ed8"/>
<circle cx="945.37" cy="349.26" r="3.2" fill="#1d4ed8"/>
<circle cx="948.34" cy="350.48" r="3.2" fill="#1d4ed8"/>
<circle cx="951.31" cy="352.90" r="3.2" fill="#1d4ed8"/>
<circle cx="954.28" cy="349.67" r="3.2" fill="#1d4ed8"/>
<circle cx="957.25" cy="348.46" r="3.2" fill="#1d4ed8"/>
<circle cx="960.22" cy="345.62" r="3.2" fill="#1d4ed8"/>
<circle cx="963.19" cy="344.82" r="3.2" fill="#1d4ed8"/>
<circle cx="966.16" cy="344.41" r="3.2" fill="#1d4ed8"/>
<circle cx="969.13" cy="342.39" r="3.2" fill="#1d4ed8"/>
<circle cx="972.10" cy="341.18" r="3.2" fill="#1d4ed8"/>
<circle cx="975.07" cy="341.58" r="3.2" fill="#1d4ed8"/>
<circle cx="978.04" cy="339.15" r="3.2" fill="#1d4ed8"/>
<circle cx="981.01" cy="338.35" r="3.2" fill="#1d4ed8"/>
<circle cx="983.98" cy="337.54" r="3.2" fill="#1d4ed8"/>
<circle cx="986.95" cy="336.73" r="3.2" fill="#1d4ed8"/>
<circle cx="989.92" cy="335.92" r="3.2" fill="#1d4ed8"/>
<circle cx="992.89" cy="337.54" r="3.2" fill="#1d4ed8"/>
<circle cx="995.86" cy="338.35" r="3.2" fill="#1d4ed8"/>
<circle cx="998.83" cy="337.54" r="3.2" fill="#1d4ed8"/>
<circle cx="1001.80" cy="337.54" r="3.2" fill="#1d4ed8"/>
<circle cx="1004.77" cy="337.54" r="3.2" fill="#1d4ed8"/>
<circle cx="1007.74" cy="333.09" r="3.2" fill="#1d4ed8"/>
<circle cx="1010.71" cy="333.90" r="3.2" fill="#1d4ed8"/>
<circle cx="1013.68" cy="335.92" r="3.2" fill="#1d4ed8"/>
<circle cx="1016.65" cy="336.73" r="3.2" fill="#1d4ed8"/>
<circle cx="1019.62" cy="335.51" r="3.2" fill="#1d4ed8"/>
<circle cx="1022.59" cy="332.28" r="3.2" fill="#1d4ed8"/>
<circle cx="1025.56" cy="331.47" r="3.2" fill="#1d4ed8"/>
<circle cx="1028.53" cy="331.07" r="3.2" fill="#1d4ed8"/>
<circle cx="1031.50" cy="331.47" r="3.2" fill="#1d4ed8"/>
<circle cx="1034.47" cy="331.07" r="3.2" fill="#1d4ed8"/>
<circle cx="1037.44" cy="331.07" r="3.2" fill="#1d4ed8"/>
<circle cx="1040.41" cy="331.07" r="3.2" fill="#1d4ed8"/>
<circle cx="1043.38" cy="331.07" r="3.2" fill="#1d4ed8"/>
<circle cx="1046.35" cy="331.07" r="3.2" fill="#1d4ed8"/>
<circle cx="1049.32" cy="331.07" r="3.2" fill="#1d4ed8"/>
<circle cx="1052.29" cy="331.07" r="3.2" fill="#1d4ed8"/>
<circle cx="1055.26" cy="331.07" r="3.2" fill="#1d4ed8"/>
<circle cx="1058.23" cy="331.07" r="3.2" fill="#1d4ed8"/>
<circle cx="1061.20" cy="331.07" r="3.2" fill="#1d4ed8"/>
<circle cx="1064.17" cy="331.47" r="3.2" fill="#1d4ed8"/>
<circle cx="1067.14" cy="331.88" r="3.2" fill="#1d4ed8"/>
<circle cx="1070.11" cy="331.07" r="3.2" fill="#1d4ed8"/>
<circle cx="1073.08" cy="331.47" r="3.2" fill="#1d4ed8"/>
<circle cx="1076.05" cy="331.07" r="3.2" fill="#1d4ed8"/>
<circle cx="1079.02" cy="331.47" r="3.2" fill="#1d4ed8"/>
<circle cx="1081.99" cy="331.07" r="3.2" fill="#1d4ed8"/>
<circle cx="1084.96" cy="324.19" r="3.2" fill="#1d4ed8"/>
<circle cx="1087.93" cy="324.19" r="3.2" fill="#1d4ed8"/>
<circle cx="1090.90" cy="318.93" r="3.2" fill="#1d4ed8"/>
<circle cx="1093.87" cy="316.51" r="3.2" fill="#1d4ed8"/>
<circle cx="1096.84" cy="310.44" r="3.2" fill="#1d4ed8"/>
<circle cx="1099.81" cy="308.01" r="3.2" fill="#1d4ed8"/>
<circle cx="1102.78" cy="600.00" r="3.2" fill="#1d4ed8"/>
<circle cx="1105.75" cy="301.54" r="3.2" fill="#1d4ed8"/>
<circle cx="1108.72" cy="290.22" r="3.2" fill="#1d4ed8"/>
<circle cx="1111.69" cy="287.79" r="3.2" fill="#1d4ed8"/>
<circle cx="1114.66" cy="286.18" r="3.2" fill="#1d4ed8"/>
<circle cx="1117.63" cy="285.77" r="3.2" fill="#1d4ed8"/>
<circle cx="1120.60" cy="285.77" r="3.2" fill="#1d4ed8"/>
<circle cx="1123.57" cy="285.77" r="3.2" fill="#1d4ed8"/>
<circle cx="1126.54" cy="286.18" r="3.2" fill="#1d4ed8"/>
<circle cx="1129.51" cy="285.77" r="3.2" fill="#1d4ed8"/>
<circle cx="1132.48" cy="285.77" r="3.2" fill="#1d4ed8"/>
<circle cx="1135.45" cy="285.77" r="3.2" fill="#1d4ed8"/>
<circle cx="1138.42" cy="283.35" r="3.2" fill="#1d4ed8"/>
<circle cx="1141.39" cy="282.94" r="3.2" fill="#1d4ed8"/>
<circle cx="1144.36" cy="282.94" r="3.2" fill="#1d4ed8"/>
<circle cx="1147.33" cy="283.35" r="3.2" fill="#1d4ed8"/>
<circle cx="1150.30" cy="282.94" r="3.2" fill="#1d4ed8"/>
<circle cx="1153.27" cy="282.94" r="3.2" fill="#1d4ed8"/>
<circle cx="1156.24" cy="283.75" r="3.2" fill="#1d4ed8"/>
<circle cx="1159.21" cy="282.13" r="3.2" fill="#1d4ed8"/>
<circle cx="1162.18" cy="282.13" r="3.2" fill="#1d4ed8"/>
<circle cx="1165.15" cy="282.54" r="3.2" fill="#1d4ed8"/>
<circle cx="1168.12" cy="282.13" r="3.2" fill="#1d4ed8"/>
<circle cx="1171.09" cy="282.54" r="3.2" fill="#1d4ed8"/>
<circle cx="1174.06" cy="282.94" r="3.2" fill="#1d4ed8"/>
<circle cx="1177.03" cy="281.73" r="3.2" fill="#1d4ed8"/>
<circle cx="1180.00" cy="282.54" r="3.2" fill="#1d4ed8"/>
<text x="635" y="695" text-anchor="middle" font-size="14" fill="#111" font-family="sans-serif">Date</text>
<text x="24" y="325" text-anchor="middle" font-size="14" fill="#111" transform="rotate(-90 24,325)" font-family="sans-serif">Passed files</text>
</svg>
