<?xml version="1.0" encoding="UTF-8"?>
<svg xmlns="http://www.w3.org/2000/svg" width="1280" height="720" viewBox="0 0 1280 720">
<rect width="100%" height="100%" fill="#ffffff"/>
<text x="640" y="30" text-anchor="middle" font-size="22" font-family="sans-serif">Roast passed files history</text>
<line x1="90" y1="600" x2="1180" y2="600" stroke="#333" stroke-width="1.5"/>
<line x1="90" y1="50" x2="90" y2="600" stroke="#333" stroke-width="1.5"/>
<line x1="90" y1="600.00" x2="1180" y2="600.00" stroke="#e5e7eb" stroke-width="1"/>
<text x="78" y="605.00" text-anchor="end" font-size="12" fill="#111" font-family="sans-serif">0</text>
<line x1="90" y1="397.79" x2="1180" y2="397.79" stroke="#e5e7eb" stroke-width="1"/>
<text x="78" y="402.79" text-anchor="end" font-size="12" fill="#111" font-family="sans-serif">500</text>
<line x1="90" y1="195.59" x2="1180" y2="195.59" stroke="#e5e7eb" stroke-width="1"/>
<text x="78" y="200.59" text-anchor="end" font-size="12" fill="#111" font-family="sans-serif">1000</text>
<line x1="90.00" y1="600" x2="90.00" y2="606" stroke="#333" stroke-width="1"/>
<text x="90.00" y="624" text-anchor="end" font-size="11" fill="#111" transform="rotate(-40 90.00,624)" font-family="sans-serif">2026-02-12</text>
<line x1="224.88" y1="600" x2="224.88" y2="606" stroke="#333" stroke-width="1"/>
<text x="224.88" y="624" text-anchor="end" font-size="11" fill="#111" transform="rotate(-40 224.88,624)" font-family="sans-serif">2026-02-17</text>
<line x1="359.77" y1="600" x2="359.77" y2="606" stroke="#333" stroke-width="1"/>
<text x="359.77" y="624" text-anchor="end" font-size="11" fill="#111" transform="rotate(-40 359.77,624)" font-family="sans-serif">2026-02-20</text>
<line x1="494.65" y1="600" x2="494.65" y2="606" stroke="#333" stroke-width="1"/>
<text x="494.65" y="624" text-anchor="end" font-size="11" fill="#111" transform="rotate(-40 494.65,624)" font-family="sans-serif">2026-02-24</text>
<line x1="629.53" y1="600" x2="629.53" y2="606" stroke="#333" stroke-width="1"/>
<text x="629.53" y="624" text-anchor="end" font-size="11" fill="#111" transform="rotate(-40 629.53,624)" font-family="sans-serif">2026-02-26</text>
<line x1="764.41" y1="600" x2="764.41" y2="606" stroke="#333" stroke-width="1"/>
<text x="764.41" y="624" text-anchor="end" font-size="11" fill="#111" transform="rotate(-40 764.41,624)" font-family="sans-serif">2026-02-28</text>
<line x1="899.30" y1="600" x2="899.30" y2="606" stroke="#333" stroke-width="1"/>
<text x="899.30" y="624" text-anchor="end" font-size="11" fill="#111" transform="rotate(-40 899.30,624)" font-family="sans-serif">2026-03-06</text>
<line x1="1034.18" y1="600" x2="1034.18" y2="606" stroke="#333" stroke-width="1"/>
<text x="1034.18" y="624" text-anchor="end" font-size="11" fill="#111" transform="rotate(-40 1034.18,624)" font-family="sans-serif">2026-03-06</text>
<line x1="1169.06" y1="600" x2="1169.06" y2="606" stroke="#333" stroke-width="1"/>
<text x="1169.06" y="624" text-anchor="end" font-size="11" fill="#111" transform="rotate(-40 1169.06,624)" font-family="sans-serif">2026-03-08</text>
<line x1="1180.00" y1="600" x2="1180.00" y2="606" stroke="#333" stroke-width="1"/>
<text x="1180.00" y="624" text-anchor="end" font-size="11" fill="#111" transform="rotate(-40 1180.00,624)" font-family="sans-serif">2026-03-08</text>
<line x1="90" y1="75.88" x2="1180" y2="75.88" stroke="#dc2626" stroke-width="1.5" stroke-dasharray="8,4"/>
<text x="1184" y="79.88" font-size="12" fill="#dc2626" font-family="sans-serif">Goal: 1296</text>
<polyline fill="none" stroke="#2563eb" stroke-width="3" points="90.00,540.55 93.65,538.53 97.29,536.91 100.94,534.49 104.58,534.49 108.23,533.27 111.87,532.46 115.52,532.87 119.16,532.06 122.81,532.46 126.45,532.06 130.10,568.46 133.75,568.46 137.39,566.43 141.04,545.00 144.68,545.00 148.33,544.19 151.97,543.79 155.62,543.79 159.26,543.38 162.91,541.76 166.56,541.36 170.20,540.96 173.85,540.96 177.49,539.34 181.14,539.34 184.78,556.73 188.43,556.73 192.07,555.51 195.72,551.07 199.36,538.93 203.01,538.93 206.66,538.93 210.30,538.12 213.95,536.91 217.59,536.91 221.24,536.51 224.88,536.51 228.53,556.73 232.17,556.73 235.82,556.73 239.46,556.73 243.11,535.29 246.76,535.29 250.40,535.29 254.05,535.29 257.69,534.49 261.34,534.08 264.98,533.68 268.63,532.87 272.27,532.06 275.92,532.06 279.57,531.25 283.21,530.85 286.86,530.44 290.50,530.04 294.15,530.04 297.79,529.23 301.44,529.23 305.08,529.23 308.73,528.42 312.37,528.42 316.02,527.61 319.67,527.21 323.31,526.80 326.96,526.40 330.60,525.18 334.25,523.57 337.89,523.57 341.54,523.16 345.18,522.76 348.83,522.35 352.47,521.54 356.12,519.52 359.77,517.50 363.41,517.50 367.06,517.50 370.70,517.50 374.35,517.50 377.99,517.50 381.64,517.10 385.28,516.69 388.93,515.48 392.58,515.07 396.22,514.67 399.87,513.86 403.51,514.26 407.16,512.24 410.80,511.84 414.45,511.84 418.09,511.03 421.74,509.82 425.38,507.79 429.03,506.99 432.68,506.58 436.32,509.41 439.97,509.01 443.61,504.96 447.26,504.56 450.90,504.15 454.55,504.56 458.19,503.75 461.84,503.75 465.48,503.35 469.13,499.30 472.78,496.47 476.42,490.00 480.07,484.34 483.71,481.10 487.36,480.29 491.00,480.70 494.65,460.88 498.29,459.26 501.94,458.05 505.59,456.03 509.23,456.03 512.88,454.41 516.52,450.77 520.17,444.30 523.81,443.90 527.46,600.00 531.10,441.88 534.75,440.66 538.39,439.45 542.04,439.04 545.69,438.64 549.33,437.83 552.98,436.62 556.62,436.62 560.27,434.60 563.91,432.17 567.56,429.34 571.20,428.93 574.85,428.53 578.49,427.72 582.14,426.91 585.79,426.10 589.43,426.10 593.08,426.10 596.72,419.63 600.37,419.23 604.01,418.42 607.66,418.01 611.30,417.61 614.95,417.61 618.60,417.61 622.24,417.21 625.89,417.21 629.53,413.57 633.18,411.95 636.82,412.76 640.47,410.74 644.11,410.74 647.76,410.33 651.40,410.33 655.05,410.33 658.70,409.93 662.34,409.93 665.99,409.93 669.63,409.52 673.28,409.52 676.92,409.12 680.57,409.52 684.21,409.12 687.86,407.50 691.51,407.10 695.15,403.05 698.80,399.82 702.44,400.22 706.09,400.62 709.73,400.62 713.38,399.41 717.02,392.94 720.67,391.32 724.31,389.30 727.96,389.30 731.61,388.49 735.25,375.15 738.90,374.74 742.54,374.74 746.19,374.74 749.83,374.74 753.48,374.34 757.12,374.34 760.77,374.34 764.41,374.34 768.06,374.34 771.71,373.93 775.35,373.12 779.00,372.72 782.64,373.53 786.29,435.81 789.93,372.32 793.58,372.72 797.22,371.91 800.87,371.91 804.52,372.32 808.16,371.10 811.81,369.89 815.45,369.89 819.10,369.89 822.74,369.49 826.39,369.89 830.03,369.08 833.68,368.68 837.32,368.27 840.97,367.87 844.62,367.06 848.26,367.46 851.91,367.06 855.55,366.25 859.20,368.27 862.84,368.68 866.49,368.68 870.13,368.27 873.78,369.08 877.42,367.87 881.07,367.46 884.72,367.06 888.36,360.18 892.01,359.78 895.65,359.38 899.30,356.95 902.94,357.35 906.59,357.76 910.23,355.33 913.88,355.74 917.53,357.35 921.17,355.33 924.82,356.14 928.46,355.74 932.11,356.14 935.75,354.12 939.40,354.93 943.04,356.14 946.69,354.52 950.33,353.71 953.98,354.12 957.63,354.93 961.27,352.90 964.92,353.71 968.56,353.31 972.21,353.31 975.85,354.52 979.50,352.90 983.14,352.50 986.79,352.50 990.43,353.31 994.08,352.50 997.73,353.71 1001.37,354.12 1005.02,352.50 1008.66,352.90 1012.31,352.50 1015.95,352.10 1019.60,351.69 1023.24,352.10 1026.89,354.12 1030.54,352.50 1034.18,352.10 1037.83,352.10 1041.47,349.67 1045.12,349.67 1048.76,350.88 1052.41,351.29 1056.05,350.48 1059.70,352.10 1063.34,350.48 1066.99,350.48 1070.64,350.48 1074.28,350.07 1077.93,348.46 1081.57,351.29 1085.22,349.67 1088.86,351.29 1092.51,349.67 1096.15,348.86 1099.80,348.46 1103.44,348.46 1107.09,347.24 1110.74,348.86 1114.38,346.84 1118.03,348.46 1121.67,348.86 1125.32,346.84 1128.96,349.26 1132.61,348.05 1136.25,349.26 1139.90,349.26 1143.55,350.48 1147.19,352.90 1150.84,349.67 1154.48,348.46 1158.13,345.62 1161.77,344.82 1165.42,344.41 1169.06,342.39 1172.71,341.18 1176.35,341.58 1180.00,339.15"/>
<circle cx="90.00" cy="540.55" r="3.2" fill="#1d4ed8"/>
<circle cx="93.65" cy="538.53" r="3.2" fill="#1d4ed8"/>
<circle cx="97.29" cy="536.91" r="3.2" fill="#1d4ed8"/>
<circle cx="100.94" cy="534.49" r="3.2" fill="#1d4ed8"/>
<circle cx="104.58" cy="534.49" r="3.2" fill="#1d4ed8"/>
<circle cx="108.23" cy="533.27" r="3.2" fill="#1d4ed8"/>
<circle cx="111.87" cy="532.46" r="3.2" fill="#1d4ed8"/>
<circle cx="115.52" cy="532.87" r="3.2" fill="#1d4ed8"/>
<circle cx="119.16" cy="532.06" r="3.2" fill="#1d4ed8"/>
<circle cx="122.81" cy="532.46" r="3.2" fill="#1d4ed8"/>
<circle cx="126.45" cy="532.06" r="3.2" fill="#1d4ed8"/>
<circle cx="130.10" cy="568.46" r="3.2" fill="#1d4ed8"/>
<circle cx="133.75" cy="568.46" r="3.2" fill="#1d4ed8"/>
<circle cx="137.39" cy="566.43" r="3.2" fill="#1d4ed8"/>
<circle cx="141.04" cy="545.00" r="3.2" fill="#1d4ed8"/>
<circle cx="144.68" cy="545.00" r="3.2" fill="#1d4ed8"/>
<circle cx="148.33" cy="544.19" r="3.2" fill="#1d4ed8"/>
<circle cx="151.97" cy="543.79" r="3.2" fill="#1d4ed8"/>
<circle cx="155.62" cy="543.79" r="3.2" fill="#1d4ed8"/>
<circle cx="159.26" cy="543.38" r="3.2" fill="#1d4ed8"/>
<circle cx="162.91" cy="541.76" r="3.2" fill="#1d4ed8"/>
<circle cx="166.56" cy="541.36" r="3.2" fill="#1d4ed8"/>
<circle cx="170.20" cy="540.96" r="3.2" fill="#1d4ed8"/>
<circle cx="173.85" cy="540.96" r="3.2" fill="#1d4ed8"/>
<circle cx="177.49" cy="539.34" r="3.2" fill="#1d4ed8"/>
<circle cx="181.14" cy="539.34" r="3.2" fill="#1d4ed8"/>
<circle cx="184.78" cy="556.73" r="3.2" fill="#1d4ed8"/>
<circle cx="188.43" cy="556.73" r="3.2" fill="#1d4ed8"/>
<circle cx="192.07" cy="555.51" r="3.2" fill="#1d4ed8"/>
<circle cx="195.72" cy="551.07" r="3.2" fill="#1d4ed8"/>
<circle cx="199.36" cy="538.93" r="3.2" fill="#1d4ed8"/>
<circle cx="203.01" cy="538.93" r="3.2" fill="#1d4ed8"/>
<circle cx="206.66" cy="538.93" r="3.2" fill="#1d4ed8"/>
<circle cx="210.30" cy="538.12" r="3.2" fill="#1d4ed8"/>
<circle cx="213.95" cy="536.91" r="3.2" fill="#1d4ed8"/>
<circle cx="217.59" cy="536.91" r="3.2" fill="#1d4ed8"/>
<circle cx="221.24" cy="536.51" r="3.2" fill="#1d4ed8"/>
<circle cx="224.88" cy="536.51" r="3.2" fill="#1d4ed8"/>
<circle cx="228.53" cy="556.73" r="3.2" fill="#1d4ed8"/>
<circle cx="232.17" cy="556.73" r="3.2" fill="#1d4ed8"/>
<circle cx="235.82" cy="556.73" r="3.2" fill="#1d4ed8"/>
<circle cx="239.46" cy="556.73" r="3.2" fill="#1d4ed8"/>
<circle cx="243.11" cy="535.29" r="3.2" fill="#1d4ed8"/>
<circle cx="246.76" cy="535.29" r="3.2" fill="#1d4ed8"/>
<circle cx="250.40" cy="535.29" r="3.2" fill="#1d4ed8"/>
<circle cx="254.05" cy="535.29" r="3.2" fill="#1d4ed8"/>
<circle cx="257.69" cy="534.49" r="3.2" fill="#1d4ed8"/>
<circle cx="261.34" cy="534.08" r="3.2" fill="#1d4ed8"/>
<circle cx="264.98" cy="533.68" r="3.2" fill="#1d4ed8"/>
<circle cx="268.63" cy="532.87" r="3.2" fill="#1d4ed8"/>
<circle cx="272.27" cy="532.06" r="3.2" fill="#1d4ed8"/>
<circle cx="275.92" cy="532.06" r="3.2" fill="#1d4ed8"/>
<circle cx="279.57" cy="531.25" r="3.2" fill="#1d4ed8"/>
<circle cx="283.21" cy="530.85" r="3.2" fill="#1d4ed8"/>
<circle cx="286.86" cy="530.44" r="3.2" fill="#1d4ed8"/>
<circle cx="290.50" cy="530.04" r="3.2" fill="#1d4ed8"/>
<circle cx="294.15" cy="530.04" r="3.2" fill="#1d4ed8"/>
<circle cx="297.79" cy="529.23" r="3.2" fill="#1d4ed8"/>
<circle cx="301.44" cy="529.23" r="3.2" fill="#1d4ed8"/>
<circle cx="305.08" cy="529.23" r="3.2" fill="#1d4ed8"/>
<circle cx="308.73" cy="528.42" r="3.2" fill="#1d4ed8"/>
<circle cx="312.37" cy="528.42" r="3.2" fill="#1d4ed8"/>
<circle cx="316.02" cy="527.61" r="3.2" fill="#1d4ed8"/>
<circle cx="319.67" cy="527.21" r="3.2" fill="#1d4ed8"/>
<circle cx="323.31" cy="526.80" r="3.2" fill="#1d4ed8"/>
<circle cx="326.96" cy="526.40" r="3.2" fill="#1d4ed8"/>
<circle cx="330.60" cy="525.18" r="3.2" fill="#1d4ed8"/>
<circle cx="334.25" cy="523.57" r="3.2" fill="#1d4ed8"/>
<circle cx="337.89" cy="523.57" r="3.2" fill="#1d4ed8"/>
<circle cx="341.54" cy="523.16" r="3.2" fill="#1d4ed8"/>
<circle cx="345.18" cy="522.76" r="3.2" fill="#1d4ed8"/>
<circle cx="348.83" cy="522.35" r="3.2" fill="#1d4ed8"/>
<circle cx="352.47" cy="521.54" r="3.2" fill="#1d4ed8"/>
<circle cx="356.12" cy="519.52" r="3.2" fill="#1d4ed8"/>
<circle cx="359.77" cy="517.50" r="3.2" fill="#1d4ed8"/>
<circle cx="363.41" cy="517.50" r="3.2" fill="#1d4ed8"/>
<circle cx="367.06" cy="517.50" r="3.2" fill="#1d4ed8"/>
<circle cx="370.70" cy="517.50" r="3.2" fill="#1d4ed8"/>
<circle cx="374.35" cy="517.50" r="3.2" fill="#1d4ed8"/>
<circle cx="377.99" cy="517.50" r="3.2" fill="#1d4ed8"/>
<circle cx="381.64" cy="517.10" r="3.2" fill="#1d4ed8"/>
<circle cx="385.28" cy="516.69" r="3.2" fill="#1d4ed8"/>
<circle cx="388.93" cy="515.48" r="3.2" fill="#1d4ed8"/>
<circle cx="392.58" cy="515.07" r="3.2" fill="#1d4ed8"/>
<circle cx="396.22" cy="514.67" r="3.2" fill="#1d4ed8"/>
<circle cx="399.87" cy="513.86" r="3.2" fill="#1d4ed8"/>
<circle cx="403.51" cy="514.26" r="3.2" fill="#1d4ed8"/>
<circle cx="407.16" cy="512.24" r="3.2" fill="#1d4ed8"/>
<circle cx="410.80" cy="511.84" r="3.2" fill="#1d4ed8"/>
<circle cx="414.45" cy="511.84" r="3.2" fill="#1d4ed8"/>
<circle cx="418.09" cy="511.03" r="3.2" fill="#1d4ed8"/>
<circle cx="421.74" cy="509.82" r="3.2" fill="#1d4ed8"/>
<circle cx="425.38" cy="507.79" r="3.2" fill="#1d4ed8"/>
<circle cx="429.03" cy="506.99" r="3.2" fill="#1d4ed8"/>
<circle cx="432.68" cy="506.58" r="3.2" fill="#1d4ed8"/>
<circle cx="436.32" cy="509.41" r="3.2" fill="#1d4ed8"/>
<circle cx="439.97" cy="509.01" r="3.2" fill="#1d4ed8"/>
<circle cx="443.61" cy="504.96" r="3.2" fill="#1d4ed8"/>
<circle cx="447.26" cy="504.56" r="3.2" fill="#1d4ed8"/>
<circle cx="450.90" cy="504.15" r="3.2" fill="#1d4ed8"/>
<circle cx="454.55" cy="504.56" r="3.2" fill="#1d4ed8"/>
<circle cx="458.19" cy="503.75" r="3.2" fill="#1d4ed8"/>
<circle cx="461.84" cy="503.75" r="3.2" fill="#1d4ed8"/>
<circle cx="465.48" cy="503.35" r="3.2" fill="#1d4ed8"/>
<circle cx="469.13" cy="499.30" r="3.2" fill="#1d4ed8"/>
<circle cx="472.78" cy="496.47" r="3.2" fill="#1d4ed8"/>
<circle cx="476.42" cy="490.00" r="3.2" fill="#1d4ed8"/>
<circle cx="480.07" cy="484.34" r="3.2" fill="#1d4ed8"/>
<circle cx="483.71" cy="481.10" r="3.2" fill="#1d4ed8"/>
<circle cx="487.36" cy="480.29" r="3.2" fill="#1d4ed8"/>
<circle cx="491.00" cy="480.70" r="3.2" fill="#1d4ed8"/>
<circle cx="494.65" cy="460.88" r="3.2" fill="#1d4ed8"/>
<circle cx="498.29" cy="459.26" r="3.2" fill="#1d4ed8"/>
<circle cx="501.94" cy="458.05" r="3.2" fill="#1d4ed8"/>
<circle cx="505.59" cy="456.03" r="3.2" fill="#1d4ed8"/>
<circle cx="509.23" cy="456.03" r="3.2" fill="#1d4ed8"/>
<circle cx="512.88" cy="454.41" r="3.2" fill="#1d4ed8"/>
<circle cx="516.52" cy="450.77" r="3.2" fill="#1d4ed8"/>
<circle cx="520.17" cy="444.30" r="3.2" fill="#1d4ed8"/>
<circle cx="523.81" cy="443.90" r="3.2" fill="#1d4ed8"/>
<circle cx="527.46" cy="600.00" r="3.2" fill="#1d4ed8"/>
<circle cx="531.10" cy="441.88" r="3.2" fill="#1d4ed8"/>
<circle cx="534.75" cy="440.66" r="3.2" fill="#1d4ed8"/>
<circle cx="538.39" cy="439.45" r="3.2" fill="#1d4ed8"/>
<circle cx="542.04" cy="439.04" r="3.2" fill="#1d4ed8"/>
<circle cx="545.69" cy="438.64" r="3.2" fill="#1d4ed8"/>
<circle cx="549.33" cy="437.83" r="3.2" fill="#1d4ed8"/>
<circle cx="552.98" cy="436.62" r="3.2" fill="#1d4ed8"/>
<circle cx="556.62" cy="436.62" r="3.2" fill="#1d4ed8"/>
<circle cx="560.27" cy="434.60" r="3.2" fill="#1d4ed8"/>
<circle cx="563.91" cy="432.17" r="3.2" fill="#1d4ed8"/>
<circle cx="567.56" cy="429.34" r="3.2" fill="#1d4ed8"/>
<circle cx="571.20" cy="428.93" r="3.2" fill="#1d4ed8"/>
<circle cx="574.85" cy="428.53" r="3.2" fill="#1d4ed8"/>
<circle cx="578.49" cy="427.72" r="3.2" fill="#1d4ed8"/>
<circle cx="582.14" cy="426.91" r="3.2" fill="#1d4ed8"/>
<circle cx="585.79" cy="426.10" r="3.2" fill="#1d4ed8"/>
<circle cx="589.43" cy="426.10" r="3.2" fill="#1d4ed8"/>
<circle cx="593.08" cy="426.10" r="3.2" fill="#1d4ed8"/>
<circle cx="596.72" cy="419.63" r="3.2" fill="#1d4ed8"/>
<circle cx="600.37" cy="419.23" r="3.2" fill="#1d4ed8"/>
<circle cx="604.01" cy="418.42" r="3.2" fill="#1d4ed8"/>
<circle cx="607.66" cy="418.01" r="3.2" fill="#1d4ed8"/>
<circle cx="611.30" cy="417.61" r="3.2" fill="#1d4ed8"/>
<circle cx="614.95" cy="417.61" r="3.2" fill="#1d4ed8"/>
<circle cx="618.60" cy="417.61" r="3.2" fill="#1d4ed8"/>
<circle cx="622.24" cy="417.21" r="3.2" fill="#1d4ed8"/>
<circle cx="625.89" cy="417.21" r="3.2" fill="#1d4ed8"/>
<circle cx="629.53" cy="413.57" r="3.2" fill="#1d4ed8"/>
<circle cx="633.18" cy="411.95" r="3.2" fill="#1d4ed8"/>
<circle cx="636.82" cy="412.76" r="3.2" fill="#1d4ed8"/>
<circle cx="640.47" cy="410.74" r="3.2" fill="#1d4ed8"/>
<circle cx="644.11" cy="410.74" r="3.2" fill="#1d4ed8"/>
<circle cx="647.76" cy="410.33" r="3.2" fill="#1d4ed8"/>
<circle cx="651.40" cy="410.33" r="3.2" fill="#1d4ed8"/>
<circle cx="655.05" cy="410.33" r="3.2" fill="#1d4ed8"/>
<circle cx="658.70" cy="409.93" r="3.2" fill="#1d4ed8"/>
<circle cx="662.34" cy="409.93" r="3.2" fill="#1d4ed8"/>
<circle cx="665.99" cy="409.93" r="3.2" fill="#1d4ed8"/>
<circle cx="669.63" cy="409.52" r="3.2" fill="#1d4ed8"/>
<circle cx="673.28" cy="409.52" r="3.2" fill="#1d4ed8"/>
<circle cx="676.92" cy="409.12" r="3.2" fill="#1d4ed8"/>
<circle cx="680.57" cy="409.52" r="3.2" fill="#1d4ed8"/>
<circle cx="684.21" cy="409.12" r="3.2" fill="#1d4ed8"/>
<circle cx="687.86" cy="407.50" r="3.2" fill="#1d4ed8"/>
<circle cx="691.51" cy="407.10" r="3.2" fill="#1d4ed8"/>
<circle cx="695.15" cy="403.05" r="3.2" fill="#1d4ed8"/>
<circle cx="698.80" cy="399.82" r="3.2" fill="#1d4ed8"/>
<circle cx="702.44" cy="400.22" r="3.2" fill="#1d4ed8"/>
<circle cx="706.09" cy="400.62" r="3.2" fill="#1d4ed8"/>
<circle cx="709.73" cy="400.62" r="3.2" fill="#1d4ed8"/>
<circle cx="713.38" cy="399.41" r="3.2" fill="#1d4ed8"/>
<circle cx="717.02" cy="392.94" r="3.2" fill="#1d4ed8"/>
<circle cx="720.67" cy="391.32" r="3.2" fill="#1d4ed8"/>
<circle cx="724.31" cy="389.30" r="3.2" fill="#1d4ed8"/>
<circle cx="727.96" cy="389.30" r="3.2" fill="#1d4ed8"/>
<circle cx="731.61" cy="388.49" r="3.2" fill="#1d4ed8"/>
<circle cx="735.25" cy="375.15" r="3.2" fill="#1d4ed8"/>
<circle cx="738.90" cy="374.74" r="3.2" fill="#1d4ed8"/>
<circle cx="742.54" cy="374.74" r="3.2" fill="#1d4ed8"/>
<circle cx="746.19" cy="374.74" r="3.2" fill="#1d4ed8"/>
<circle cx="749.83" cy="374.74" r="3.2" fill="#1d4ed8"/>
<circle cx="753.48" cy="374.34" r="3.2" fill="#1d4ed8"/>
<circle cx="757.12" cy="374.34" r="3.2" fill="#1d4ed8"/>
<circle cx="760.77" cy="374.34" r="3.2" fill="#1d4ed8"/>
<circle cx="764.41" cy="374.34" r="3.2" fill="#1d4ed8"/>
<circle cx="768.06" cy="374.34" r="3.2" fill="#1d4ed8"/>
<circle cx="771.71" cy="373.93" r="3.2" fill="#1d4ed8"/>
<circle cx="775.35" cy="373.12" r="3.2" fill="#1d4ed8"/>
<circle cx="779.00" cy="372.72" r="3.2" fill="#1d4ed8"/>
<circle cx="782.64" cy="373.53" r="3.2" fill="#1d4ed8"/>
<circle cx="786.29" cy="435.81" r="3.2" fill="#1d4ed8"/>
<circle cx="789.93" cy="372.32" r="3.2" fill="#1d4ed8"/>
<circle cx="793.58" cy="372.72" r="3.2" fill="#1d4ed8"/>
<circle cx="797.22" cy="371.91" r="3.2" fill="#1d4ed8"/>
<circle cx="800.87" cy="371.91" r="3.2" fill="#1d4ed8"/>
<circle cx="804.52" cy="372.32" r="3.2" fill="#1d4ed8"/>
<circle cx="808.16" cy="371.10" r="3.2" fill="#1d4ed8"/>
<circle cx="811.81" cy="369.89" r="3.2" fill="#1d4ed8"/>
<circle cx="815.45" cy="369.89" r="3.2" fill="#1d4ed8"/>
<circle cx="819.10" cy="369.89" r="3.2" fill="#1d4ed8"/>
<circle cx="822.74" cy="369.49" r="3.2" fill="#1d4ed8"/>
<circle cx="826.39" cy="369.89" r="3.2" fill="#1d4ed8"/>
<circle cx="830.03" cy="369.08" r="3.2" fill="#1d4ed8"/>
<circle cx="833.68" cy="368.68" r="3.2" fill="#1d4ed8"/>
<circle cx="837.32" cy="368.27" r="3.2" fill="#1d4ed8"/>
<circle cx="840.97" cy="367.87" r="3.2" fill="#1d4ed8"/>
<circle cx="844.62" cy="367.06" r="3.2" fill="#1d4ed8"/>
<circle cx="848.26" cy="367.46" r="3.2" fill="#1d4ed8"/>
<circle cx="851.91" cy="367.06" r="3.2" fill="#1d4ed8"/>
<circle cx="855.55" cy="366.25" r="3.2" fill="#1d4ed8"/>
<circle cx="859.20" cy="368.27" r="3.2" fill="#1d4ed8"/>
<circle cx="862.84" cy="368.68" r="3.2" fill="#1d4ed8"/>
<circle cx="866.49" cy="368.68" r="3.2" fill="#1d4ed8"/>
<circle cx="870.13" cy="368.27" r="3.2" fill="#1d4ed8"/>
<circle cx="873.78" cy="369.08" r="3.2" fill="#1d4ed8"/>
<circle cx="877.42" cy="367.87" r="3.2" fill="#1d4ed8"/>
<circle cx="881.07" cy="367.46" r="3.2" fill="#1d4ed8"/>
<circle cx="884.72" cy="367.06" r="3.2" fill="#1d4ed8"/>
<circle cx="888.36" cy="360.18" r="3.2" fill="#1d4ed8"/>
<circle cx="892.01" cy="359.78" r="3.2" fill="#1d4ed8"/>
<circle cx="895.65" cy="359.38" r="3.2" fill="#1d4ed8"/>
<circle cx="899.30" cy="356.95" r="3.2" fill="#1d4ed8"/>
<circle cx="902.94" cy="357.35" r="3.2" fill="#1d4ed8"/>
<circle cx="906.59" cy="357.76" r="3.2" fill="#1d4ed8"/>
<circle cx="910.23" cy="355.33" r="3.2" fill="#1d4ed8"/>
<circle cx="913.88" cy="355.74" r="3.2" fill="#1d4ed8"/>
<circle cx="917.53" cy="357.35" r="3.2" fill="#1d4ed8"/>
<circle cx="921.17" cy="355.33" r="3.2" fill="#1d4ed8"/>
<circle cx="924.82" cy="356.14" r="3.2" fill="#1d4ed8"/>
<circle cx="928.46" cy="355.74" r="3.2" fill="#1d4ed8"/>
<circle cx="932.11" cy="356.14" r="3.2" fill="#1d4ed8"/>
<circle cx="935.75" cy="354.12" r="3.2" fill="#1d4ed8"/>
<circle cx="939.40" cy="354.93" r="3.2" fill="#1d4ed8"/>
<circle cx="943.04" cy="356.14" r="3.2" fill="#1d4ed8"/>
<circle cx="946.69" cy="354.52" r="3.2" fill="#1d4ed8"/>
<circle cx="950.33" cy="353.71" r="3.2" fill="#1d4ed8"/>
<circle cx="953.98" cy="354.12" r="3.2" fill="#1d4ed8"/>
<circle cx="957.63" cy="354.93" r="3.2" fill="#1d4ed8"/>
<circle cx="961.27" cy="352.90" r="3.2" fill="#1d4ed8"/>
<circle cx="964.92" cy="353.71" r="3.2" fill="#1d4ed8"/>
<circle cx="968.56" cy="353.31" r="3.2" fill="#1d4ed8"/>
<circle cx="972.21" cy="353.31" r="3.2" fill="#1d4ed8"/>
<circle cx="975.85" cy="354.52" r="3.2" fill="#1d4ed8"/>
<circle cx="979.50" cy="352.90" r="3.2" fill="#1d4ed8"/>
<circle cx="983.14" cy="352.50" r="3.2" fill="#1d4ed8"/>
<circle cx="986.79" cy="352.50" r="3.2" fill="#1d4ed8"/>
<circle cx="990.43" cy="353.31" r="3.2" fill="#1d4ed8"/>
<circle cx="994.08" cy="352.50" r="3.2" fill="#1d4ed8"/>
<circle cx="997.73" cy="353.71" r="3.2" fill="#1d4ed8"/>
<circle cx="1001.37" cy="354.12" r="3.2" fill="#1d4ed8"/>
<circle cx="1005.02" cy="352.50" r="3.2" fill="#1d4ed8"/>
<circle cx="1008.66" cy="352.90" r="3.2" fill="#1d4ed8"/>
<circle cx="1012.31" cy="352.50" r="3.2" fill="#1d4ed8"/>
<circle cx="1015.95" cy="352.10" r="3.2" fill="#1d4ed8"/>
<circle cx="1019.60" cy="351.69" r="3.2" fill="#1d4ed8"/>
<circle cx="1023.24" cy="352.10" r="3.2" fill="#1d4ed8"/>
<circle cx="1026.89" cy="354.12" r="3.2" fill="#1d4ed8"/>
<circle cx="1030.54" cy="352.50" r="3.2" fill="#1d4ed8"/>
<circle cx="1034.18" cy="352.10" r="3.2" fill="#1d4ed8"/>
<circle cx="1037.83" cy="352.10" r="3.2" fill="#1d4ed8"/>
<circle cx="1041.47" cy="349.67" r="3.2" fill="#1d4ed8"/>
<circle cx="1045.12" cy="349.67" r="3.2" fill="#1d4ed8"/>
<circle cx="1048.76" cy="350.88" r="3.2" fill="#1d4ed8"/>
<circle cx="1052.41" cy="351.29" r="3.2" fill="#1d4ed8"/>
<circle cx="1056.05" cy="350.48" r="3.2" fill="#1d4ed8"/>
<circle cx="1059.70" cy="352.10" r="3.2" fill="#1d4ed8"/>
<circle cx="1063.34" cy="350.48" r="3.2" fill="#1d4ed8"/>
<circle cx="1066.99" cy="350.48" r="3.2" fill="#1d4ed8"/>
<circle cx="1070.64" cy="350.48" r="3.2" fill="#1d4ed8"/>
<circle cx="1074.28" cy="350.07" r="3.2" fill="#1d4ed8"/>
<circle cx="1077.93" cy="348.46" r="3.2" fill="#1d4ed8"/>
<circle cx="1081.57" cy="351.29" r="3.2" fill="#1d4ed8"/>
<circle cx="1085.22" cy="349.67" r="3.2" fill="#1d4ed8"/>
<circle cx="1088.86" cy="351.29" r="3.2" fill="#1d4ed8"/>
<circle cx="1092.51" cy="349.67" r="3.2" fill="#1d4ed8"/>
<circle cx="1096.15" cy="348.86" r="3.2" fill="#1d4ed8"/>
<circle cx="1099.80" cy="348.46" r="3.2" fill="#1d4ed8"/>
<circle cx="1103.44" cy="348.46" r="3.2" fill="#1d4ed8"/>
<circle cx="1107.09" cy="347.24" r="3.2" fill="#1d4ed8"/>
<circle cx="1110.74" cy="348.86" r="3.2" fill="#1d4ed8"/>
<circle cx="1114.38" cy="346.84" r="3.2" fill="#1d4ed8"/>
<circle cx="1118.03" cy="348.46" r="3.2" fill="#1d4ed8"/>
<circle cx="1121.67" cy="348.86" r="3.2" fill="#1d4ed8"/>
<circle cx="1125.32" cy="346.84" r="3.2" fill="#1d4ed8"/>
<circle cx="1128.96" cy="349.26" r="3.2" fill="#1d4ed8"/>
<circle cx="1132.61" cy="348.05" r="3.2" fill="#1d4ed8"/>
<circle cx="1136.25" cy="349.26" r="3.2" fill="#1d4ed8"/>
<circle cx="1139.90" cy="349.26" r="3.2" fill="#1d4ed8"/>
<circle cx="1143.55" cy="350.48" r="3.2" fill="#1d4ed8"/>
<circle cx="1147.19" cy="352.90" r="3.2" fill="#1d4ed8"/>
<circle cx="1150.84" cy="349.67" r="3.2" fill="#1d4ed8"/>
<circle cx="1154.48" cy="348.46" r="3.2" fill="#1d4ed8"/>
<circle cx="1158.13" cy="345.62" r="3.2" fill="#1d4ed8"/>
<circle cx="1161.77" cy="344.82" r="3.2" fill="#1d4ed8"/>
<circle cx="1165.42" cy="344.41" r="3.2" fill="#1d4ed8"/>
<circle cx="1169.06" cy="342.39" r="3.2" fill="#1d4ed8"/>
<circle cx="1172.71" cy="341.18" r="3.2" fill="#1d4ed8"/>
<circle cx="1176.35" cy="341.58" r="3.2" fill="#1d4ed8"/>
<circle cx="1180.00" cy="339.15" r="3.2" fill="#1d4ed8"/>
<text x="635" y="695" text-anchor="middle" font-size="14" fill="#111" font-family="sans-serif">Date</text>
<text x="24" y="325" text-anchor="middle" font-size="14" fill="#111" transform="rotate(-90 24,325)" font-family="sans-serif">Passed files</text>
</svg>
