<?xml version="1.0" encoding="UTF-8"?>
<svg xmlns="http://www.w3.org/2000/svg" width="1280" height="720" viewBox="0 0 1280 720">
<rect width="100%" height="100%" fill="#ffffff"/>
<text x="640" y="30" text-anchor="middle" font-size="22" font-family="sans-serif">Roast passed files history</text>
<line x1="90" y1="600" x2="1180" y2="600" stroke="#333" stroke-width="1.5"/>
<line x1="90" y1="50" x2="90" y2="600" stroke="#333" stroke-width="1.5"/>
<line x1="90" y1="600.00" x2="1180" y2="600.00" stroke="#e5e7eb" stroke-width="1"/>
<text x="78" y="605.00" text-anchor="end" font-size="12" fill="#111" font-family="sans-serif">0</text>
<line x1="90" y1="398.09" x2="1180" y2="398.09" stroke="#e5e7eb" stroke-width="1"/>
<text x="78" y="403.09" text-anchor="end" font-size="12" fill="#111" font-family="sans-serif">500</text>
<line x1="90" y1="196.18" x2="1180" y2="196.18" stroke="#e5e7eb" stroke-width="1"/>
<text x="78" y="201.18" text-anchor="end" font-size="12" fill="#111" font-family="sans-serif">1000</text>
<line x1="90.00" y1="600" x2="90.00" y2="606" stroke="#333" stroke-width="1"/>
<text x="90.00" y="624" text-anchor="end" font-size="11" fill="#111" transform="rotate(-40 90.00,624)" font-family="sans-serif">2026-02-12</text>
<line x1="226.25" y1="600" x2="226.25" y2="606" stroke="#333" stroke-width="1"/>
<text x="226.25" y="624" text-anchor="end" font-size="11" fill="#111" transform="rotate(-40 226.25,624)" font-family="sans-serif">2026-02-15</text>
<line x1="362.50" y1="600" x2="362.50" y2="606" stroke="#333" stroke-width="1"/>
<text x="362.50" y="624" text-anchor="end" font-size="11" fill="#111" transform="rotate(-40 362.50,624)" font-family="sans-serif">2026-02-17</text>
<line x1="498.75" y1="600" x2="498.75" y2="606" stroke="#333" stroke-width="1"/>
<text x="498.75" y="624" text-anchor="end" font-size="11" fill="#111" transform="rotate(-40 498.75,624)" font-family="sans-serif">2026-02-18</text>
<line x1="635.00" y1="600" x2="635.00" y2="606" stroke="#333" stroke-width="1"/>
<text x="635.00" y="624" text-anchor="end" font-size="11" fill="#111" transform="rotate(-40 635.00,624)" font-family="sans-serif">2026-02-20</text>
<line x1="771.25" y1="600" x2="771.25" y2="606" stroke="#333" stroke-width="1"/>
<text x="771.25" y="624" text-anchor="end" font-size="11" fill="#111" transform="rotate(-40 771.25,624)" font-family="sans-serif">2026-02-22</text>
<line x1="907.50" y1="600" x2="907.50" y2="606" stroke="#333" stroke-width="1"/>
<text x="907.50" y="624" text-anchor="end" font-size="11" fill="#111" transform="rotate(-40 907.50,624)" font-family="sans-serif">2026-02-24</text>
<line x1="1043.75" y1="600" x2="1043.75" y2="606" stroke="#333" stroke-width="1"/>
<text x="1043.75" y="624" text-anchor="end" font-size="11" fill="#111" transform="rotate(-40 1043.75,624)" font-family="sans-serif">2026-02-25</text>
<line x1="1180.00" y1="600" x2="1180.00" y2="606" stroke="#333" stroke-width="1"/>
<text x="1180.00" y="624" text-anchor="end" font-size="11" fill="#111" transform="rotate(-40 1180.00,624)" font-family="sans-serif">2026-02-26</text>
<line x1="90" y1="75.84" x2="1180" y2="75.84" stroke="#dc2626" stroke-width="1.5" stroke-dasharray="8,4"/>
<text x="1184" y="79.84" font-size="12" fill="#dc2626" font-family="sans-serif">Goal: 1298</text>
<polyline fill="none" stroke="#2563eb" stroke-width="3" points="90.00,540.64 97.17,538.62 104.34,537.00 111.51,534.58 118.68,534.58 125.86,533.37 133.03,532.56 140.20,532.97 147.37,532.16 154.54,532.56 161.71,532.16 168.88,568.50 176.05,568.50 183.22,566.48 190.39,545.08 197.57,545.08 204.74,544.27 211.91,543.87 219.08,543.87 226.25,543.47 233.42,541.85 240.59,541.45 247.76,541.04 254.93,541.04 262.11,539.43 269.28,539.43 276.45,556.79 283.62,556.79 290.79,555.58 297.96,551.14 305.13,539.02 312.30,539.02 319.47,539.02 326.64,538.22 333.82,537.00 340.99,537.00 348.16,536.60 355.33,536.60 362.50,556.79 369.67,556.79 376.84,556.79 384.01,556.79 391.18,535.39 398.36,535.39 405.53,535.39 412.70,535.39 419.87,534.58 427.04,534.18 434.21,533.77 441.38,532.97 448.55,532.16 455.72,532.16 462.89,531.35 470.07,530.95 477.24,530.54 484.41,530.14 491.58,530.14 498.75,529.33 505.92,529.33 513.09,529.33 520.26,528.52 527.43,528.52 534.61,527.72 541.78,527.31 548.95,526.91 556.12,526.51 563.29,525.29 570.46,523.68 577.63,523.68 584.80,523.27 591.97,522.87 599.14,522.47 606.32,521.66 613.49,519.64 620.66,517.62 627.83,517.62 635.00,517.62 642.17,517.62 649.34,517.62 656.51,517.62 663.68,517.22 670.86,516.81 678.03,515.60 685.20,515.20 692.37,514.79 699.54,513.99 706.71,514.39 713.88,512.37 721.05,511.97 728.22,511.97 735.39,511.16 742.57,509.95 749.74,507.93 756.91,507.12 764.08,506.72 771.25,509.54 778.42,509.14 785.59,505.10 792.76,504.70 799.93,504.30 807.11,504.70 814.28,503.89 821.45,503.89 828.62,503.49 835.79,499.45 842.96,496.62 850.13,490.16 857.30,484.51 864.47,481.28 871.64,480.47 878.82,480.87 885.99,461.09 893.16,459.47 900.33,458.26 907.50,456.24 914.67,456.24 921.84,454.63 929.01,450.99 936.18,444.53 943.36,444.13 950.53,600.00 957.70,442.11 964.87,440.90 972.04,439.68 979.21,439.28 986.38,438.88 993.55,438.07 1000.72,436.86 1007.89,436.86 1015.07,434.84 1022.24,432.42 1029.41,429.59 1036.58,429.19 1043.75,428.78 1050.92,427.97 1058.09,427.17 1065.26,426.36 1072.43,426.36 1079.61,426.36 1086.78,419.90 1093.95,419.49 1101.12,418.69 1108.29,418.28 1115.46,417.88 1122.63,417.88 1129.80,417.88 1136.97,417.47 1144.14,417.47 1151.32,413.84 1158.49,412.22 1165.66,413.03 1172.83,411.01 1180.00,411.01"/>
<circle cx="90.00" cy="540.64" r="3.2" fill="#1d4ed8"/>
<circle cx="97.17" cy="538.62" r="3.2" fill="#1d4ed8"/>
<circle cx="104.34" cy="537.00" r="3.2" fill="#1d4ed8"/>
<circle cx="111.51" cy="534.58" r="3.2" fill="#1d4ed8"/>
<circle cx="118.68" cy="534.58" r="3.2" fill="#1d4ed8"/>
<circle cx="125.86" cy="533.37" r="3.2" fill="#1d4ed8"/>
<circle cx="133.03" cy="532.56" r="3.2" fill="#1d4ed8"/>
<circle cx="140.20" cy="532.97" r="3.2" fill="#1d4ed8"/>
<circle cx="147.37" cy="532.16" r="3.2" fill="#1d4ed8"/>
<circle cx="154.54" cy="532.56" r="3.2" fill="#1d4ed8"/>
<circle cx="161.71" cy="532.16" r="3.2" fill="#1d4ed8"/>
<circle cx="168.88" cy="568.50" r="3.2" fill="#1d4ed8"/>
<circle cx="176.05" cy="568.50" r="3.2" fill="#1d4ed8"/>
<circle cx="183.22" cy="566.48" r="3.2" fill="#1d4ed8"/>
<circle cx="190.39" cy="545.08" r="3.2" fill="#1d4ed8"/>
<circle cx="197.57" cy="545.08" r="3.2" fill="#1d4ed8"/>
<circle cx="204.74" cy="544.27" r="3.2" fill="#1d4ed8"/>
<circle cx="211.91" cy="543.87" r="3.2" fill="#1d4ed8"/>
<circle cx="219.08" cy="543.87" r="3.2" fill="#1d4ed8"/>
<circle cx="226.25" cy="543.47" r="3.2" fill="#1d4ed8"/>
<circle cx="233.42" cy="541.85" r="3.2" fill="#1d4ed8"/>
<circle cx="240.59" cy="541.45" r="3.2" fill="#1d4ed8"/>
<circle cx="247.76" cy="541.04" r="3.2" fill="#1d4ed8"/>
<circle cx="254.93" cy="541.04" r="3.2" fill="#1d4ed8"/>
<circle cx="262.11" cy="539.43" r="3.2" fill="#1d4ed8"/>
<circle cx="269.28" cy="539.43" r="3.2" fill="#1d4ed8"/>
<circle cx="276.45" cy="556.79" r="3.2" fill="#1d4ed8"/>
<circle cx="283.62" cy="556.79" r="3.2" fill="#1d4ed8"/>
<circle cx="290.79" cy="555.58" r="3.2" fill="#1d4ed8"/>
<circle cx="297.96" cy="551.14" r="3.2" fill="#1d4ed8"/>
<circle cx="305.13" cy="539.02" r="3.2" fill="#1d4ed8"/>
<circle cx="312.30" cy="539.02" r="3.2" fill="#1d4ed8"/>
<circle cx="319.47" cy="539.02" r="3.2" fill="#1d4ed8"/>
<circle cx="326.64" cy="538.22" r="3.2" fill="#1d4ed8"/>
<circle cx="333.82" cy="537.00" r="3.2" fill="#1d4ed8"/>
<circle cx="340.99" cy="537.00" r="3.2" fill="#1d4ed8"/>
<circle cx="348.16" cy="536.60" r="3.2" fill="#1d4ed8"/>
<circle cx="355.33" cy="536.60" r="3.2" fill="#1d4ed8"/>
<circle cx="362.50" cy="556.79" r="3.2" fill="#1d4ed8"/>
<circle cx="369.67" cy="556.79" r="3.2" fill="#1d4ed8"/>
<circle cx="376.84" cy="556.79" r="3.2" fill="#1d4ed8"/>
<circle cx="384.01" cy="556.79" r="3.2" fill="#1d4ed8"/>
<circle cx="391.18" cy="535.39" r="3.2" fill="#1d4ed8"/>
<circle cx="398.36" cy="535.39" r="3.2" fill="#1d4ed8"/>
<circle cx="405.53" cy="535.39" r="3.2" fill="#1d4ed8"/>
<circle cx="412.70" cy="535.39" r="3.2" fill="#1d4ed8"/>
<circle cx="419.87" cy="534.58" r="3.2" fill="#1d4ed8"/>
<circle cx="427.04" cy="534.18" r="3.2" fill="#1d4ed8"/>
<circle cx="434.21" cy="533.77" r="3.2" fill="#1d4ed8"/>
<circle cx="441.38" cy="532.97" r="3.2" fill="#1d4ed8"/>
<circle cx="448.55" cy="532.16" r="3.2" fill="#1d4ed8"/>
<circle cx="455.72" cy="532.16" r="3.2" fill="#1d4ed8"/>
<circle cx="462.89" cy="531.35" r="3.2" fill="#1d4ed8"/>
<circle cx="470.07" cy="530.95" r="3.2" fill="#1d4ed8"/>
<circle cx="477.24" cy="530.54" r="3.2" fill="#1d4ed8"/>
<circle cx="484.41" cy="530.14" r="3.2" fill="#1d4ed8"/>
<circle cx="491.58" cy="530.14" r="3.2" fill="#1d4ed8"/>
<circle cx="498.75" cy="529.33" r="3.2" fill="#1d4ed8"/>
<circle cx="505.92" cy="529.33" r="3.2" fill="#1d4ed8"/>
<circle cx="513.09" cy="529.33" r="3.2" fill="#1d4ed8"/>
<circle cx="520.26" cy="528.52" r="3.2" fill="#1d4ed8"/>
<circle cx="527.43" cy="528.52" r="3.2" fill="#1d4ed8"/>
<circle cx="534.61" cy="527.72" r="3.2" fill="#1d4ed8"/>
<circle cx="541.78" cy="527.31" r="3.2" fill="#1d4ed8"/>
<circle cx="548.95" cy="526.91" r="3.2" fill="#1d4ed8"/>
<circle cx="556.12" cy="526.51" r="3.2" fill="#1d4ed8"/>
<circle cx="563.29" cy="525.29" r="3.2" fill="#1d4ed8"/>
<circle cx="570.46" cy="523.68" r="3.2" fill="#1d4ed8"/>
<circle cx="577.63" cy="523.68" r="3.2" fill="#1d4ed8"/>
<circle cx="584.80" cy="523.27" r="3.2" fill="#1d4ed8"/>
<circle cx="591.97" cy="522.87" r="3.2" fill="#1d4ed8"/>
<circle cx="599.14" cy="522.47" r="3.2" fill="#1d4ed8"/>
<circle cx="606.32" cy="521.66" r="3.2" fill="#1d4ed8"/>
<circle cx="613.49" cy="519.64" r="3.2" fill="#1d4ed8"/>
<circle cx="620.66" cy="517.62" r="3.2" fill="#1d4ed8"/>
<circle cx="627.83" cy="517.62" r="3.2" fill="#1d4ed8"/>
<circle cx="635.00" cy="517.62" r="3.2" fill="#1d4ed8"/>
<circle cx="642.17" cy="517.62" r="3.2" fill="#1d4ed8"/>
<circle cx="649.34" cy="517.62" r="3.2" fill="#1d4ed8"/>
<circle cx="656.51" cy="517.62" r="3.2" fill="#1d4ed8"/>
<circle cx="663.68" cy="517.22" r="3.2" fill="#1d4ed8"/>
<circle cx="670.86" cy="516.81" r="3.2" fill="#1d4ed8"/>
<circle cx="678.03" cy="515.60" r="3.2" fill="#1d4ed8"/>
<circle cx="685.20" cy="515.20" r="3.2" fill="#1d4ed8"/>
<circle cx="692.37" cy="514.79" r="3.2" fill="#1d4ed8"/>
<circle cx="699.54" cy="513.99" r="3.2" fill="#1d4ed8"/>
<circle cx="706.71" cy="514.39" r="3.2" fill="#1d4ed8"/>
<circle cx="713.88" cy="512.37" r="3.2" fill="#1d4ed8"/>
<circle cx="721.05" cy="511.97" r="3.2" fill="#1d4ed8"/>
<circle cx="728.22" cy="511.97" r="3.2" fill="#1d4ed8"/>
<circle cx="735.39" cy="511.16" r="3.2" fill="#1d4ed8"/>
<circle cx="742.57" cy="509.95" r="3.2" fill="#1d4ed8"/>
<circle cx="749.74" cy="507.93" r="3.2" fill="#1d4ed8"/>
<circle cx="756.91" cy="507.12" r="3.2" fill="#1d4ed8"/>
<circle cx="764.08" cy="506.72" r="3.2" fill="#1d4ed8"/>
<circle cx="771.25" cy="509.54" r="3.2" fill="#1d4ed8"/>
<circle cx="778.42" cy="509.14" r="3.2" fill="#1d4ed8"/>
<circle cx="785.59" cy="505.10" r="3.2" fill="#1d4ed8"/>
<circle cx="792.76" cy="504.70" r="3.2" fill="#1d4ed8"/>
<circle cx="799.93" cy="504.30" r="3.2" fill="#1d4ed8"/>
<circle cx="807.11" cy="504.70" r="3.2" fill="#1d4ed8"/>
<circle cx="814.28" cy="503.89" r="3.2" fill="#1d4ed8"/>
<circle cx="821.45" cy="503.89" r="3.2" fill="#1d4ed8"/>
<circle cx="828.62" cy="503.49" r="3.2" fill="#1d4ed8"/>
<circle cx="835.79" cy="499.45" r="3.2" fill="#1d4ed8"/>
<circle cx="842.96" cy="496.62" r="3.2" fill="#1d4ed8"/>
<circle cx="850.13" cy="490.16" r="3.2" fill="#1d4ed8"/>
<circle cx="857.30" cy="484.51" r="3.2" fill="#1d4ed8"/>
<circle cx="864.47" cy="481.28" r="3.2" fill="#1d4ed8"/>
<circle cx="871.64" cy="480.47" r="3.2" fill="#1d4ed8"/>
<circle cx="878.82" cy="480.87" r="3.2" fill="#1d4ed8"/>
<circle cx="885.99" cy="461.09" r="3.2" fill="#1d4ed8"/>
<circle cx="893.16" cy="459.47" r="3.2" fill="#1d4ed8"/>
<circle cx="900.33" cy="458.26" r="3.2" fill="#1d4ed8"/>
<circle cx="907.50" cy="456.24" r="3.2" fill="#1d4ed8"/>
<circle cx="914.67" cy="456.24" r="3.2" fill="#1d4ed8"/>
<circle cx="921.84" cy="454.63" r="3.2" fill="#1d4ed8"/>
<circle cx="929.01" cy="450.99" r="3.2" fill="#1d4ed8"/>
<circle cx="936.18" cy="444.53" r="3.2" fill="#1d4ed8"/>
<circle cx="943.36" cy="444.13" r="3.2" fill="#1d4ed8"/>
<circle cx="950.53" cy="600.00" r="3.2" fill="#1d4ed8"/>
<circle cx="957.70" cy="442.11" r="3.2" fill="#1d4ed8"/>
<circle cx="964.87" cy="440.90" r="3.2" fill="#1d4ed8"/>
<circle cx="972.04" cy="439.68" r="3.2" fill="#1d4ed8"/>
<circle cx="979.21" cy="439.28" r="3.2" fill="#1d4ed8"/>
<circle cx="986.38" cy="438.88" r="3.2" fill="#1d4ed8"/>
<circle cx="993.55" cy="438.07" r="3.2" fill="#1d4ed8"/>
<circle cx="1000.72" cy="436.86" r="3.2" fill="#1d4ed8"/>
<circle cx="1007.89" cy="436.86" r="3.2" fill="#1d4ed8"/>
<circle cx="1015.07" cy="434.84" r="3.2" fill="#1d4ed8"/>
<circle cx="1022.24" cy="432.42" r="3.2" fill="#1d4ed8"/>
<circle cx="1029.41" cy="429.59" r="3.2" fill="#1d4ed8"/>
<circle cx="1036.58" cy="429.19" r="3.2" fill="#1d4ed8"/>
<circle cx="1043.75" cy="428.78" r="3.2" fill="#1d4ed8"/>
<circle cx="1050.92" cy="427.97" r="3.2" fill="#1d4ed8"/>
<circle cx="1058.09" cy="427.17" r="3.2" fill="#1d4ed8"/>
<circle cx="1065.26" cy="426.36" r="3.2" fill="#1d4ed8"/>
<circle cx="1072.43" cy="426.36" r="3.2" fill="#1d4ed8"/>
<circle cx="1079.61" cy="426.36" r="3.2" fill="#1d4ed8"/>
<circle cx="1086.78" cy="419.90" r="3.2" fill="#1d4ed8"/>
<circle cx="1093.95" cy="419.49" r="3.2" fill="#1d4ed8"/>
<circle cx="1101.12" cy="418.69" r="3.2" fill="#1d4ed8"/>
<circle cx="1108.29" cy="418.28" r="3.2" fill="#1d4ed8"/>
<circle cx="1115.46" cy="417.88" r="3.2" fill="#1d4ed8"/>
<circle cx="1122.63" cy="417.88" r="3.2" fill="#1d4ed8"/>
<circle cx="1129.80" cy="417.88" r="3.2" fill="#1d4ed8"/>
<circle cx="1136.97" cy="417.47" r="3.2" fill="#1d4ed8"/>
<circle cx="1144.14" cy="417.47" r="3.2" fill="#1d4ed8"/>
<circle cx="1151.32" cy="413.84" r="3.2" fill="#1d4ed8"/>
<circle cx="1158.49" cy="412.22" r="3.2" fill="#1d4ed8"/>
<circle cx="1165.66" cy="413.03" r="3.2" fill="#1d4ed8"/>
<circle cx="1172.83" cy="411.01" r="3.2" fill="#1d4ed8"/>
<circle cx="1180.00" cy="411.01" r="3.2" fill="#1d4ed8"/>
<text x="635" y="695" text-anchor="middle" font-size="14" fill="#111" font-family="sans-serif">Date</text>
<text x="24" y="325" text-anchor="middle" font-size="14" fill="#111" transform="rotate(-90 24,325)" font-family="sans-serif">Passed files</text>
</svg>
