<?xml version="1.0" encoding="UTF-8"?>
<svg xmlns="http://www.w3.org/2000/svg" width="1280" height="720" viewBox="0 0 1280 720">
<rect width="100%" height="100%" fill="#ffffff"/>
<text x="640" y="30" text-anchor="middle" font-size="22" font-family="sans-serif">Roast passed files history</text>
<line x1="90" y1="600" x2="1180" y2="600" stroke="#333" stroke-width="1.5"/>
<line x1="90" y1="50" x2="90" y2="600" stroke="#333" stroke-width="1.5"/>
<line x1="90" y1="600.00" x2="1180" y2="600.00" stroke="#e5e7eb" stroke-width="1"/>
<text x="78" y="605.00" text-anchor="end" font-size="12" fill="#111" font-family="sans-serif">0</text>
<line x1="90" y1="397.79" x2="1180" y2="397.79" stroke="#e5e7eb" stroke-width="1"/>
<text x="78" y="402.79" text-anchor="end" font-size="12" fill="#111" font-family="sans-serif">500</text>
<line x1="90" y1="195.59" x2="1180" y2="195.59" stroke="#e5e7eb" stroke-width="1"/>
<text x="78" y="200.59" text-anchor="end" font-size="12" fill="#111" font-family="sans-serif">1000</text>
<line x1="90.00" y1="600" x2="90.00" y2="606" stroke="#333" stroke-width="1"/>
<text x="90.00" y="624" text-anchor="end" font-size="11" fill="#111" transform="rotate(-40 90.00,624)" font-family="sans-serif">2026-02-12</text>
<line x1="226.25" y1="600" x2="226.25" y2="606" stroke="#333" stroke-width="1"/>
<text x="226.25" y="624" text-anchor="end" font-size="11" fill="#111" transform="rotate(-40 226.25,624)" font-family="sans-serif">2026-02-17</text>
<line x1="362.50" y1="600" x2="362.50" y2="606" stroke="#333" stroke-width="1"/>
<text x="362.50" y="624" text-anchor="end" font-size="11" fill="#111" transform="rotate(-40 362.50,624)" font-family="sans-serif">2026-02-22</text>
<line x1="498.75" y1="600" x2="498.75" y2="606" stroke="#333" stroke-width="1"/>
<text x="498.75" y="624" text-anchor="end" font-size="11" fill="#111" transform="rotate(-40 498.75,624)" font-family="sans-serif">2026-02-25</text>
<line x1="635.00" y1="600" x2="635.00" y2="606" stroke="#333" stroke-width="1"/>
<text x="635.00" y="624" text-anchor="end" font-size="11" fill="#111" transform="rotate(-40 635.00,624)" font-family="sans-serif">2026-02-28</text>
<line x1="771.25" y1="600" x2="771.25" y2="606" stroke="#333" stroke-width="1"/>
<text x="771.25" y="624" text-anchor="end" font-size="11" fill="#111" transform="rotate(-40 771.25,624)" font-family="sans-serif">2026-03-06</text>
<line x1="907.50" y1="600" x2="907.50" y2="606" stroke="#333" stroke-width="1"/>
<text x="907.50" y="624" text-anchor="end" font-size="11" fill="#111" transform="rotate(-40 907.50,624)" font-family="sans-serif">2026-03-07</text>
<line x1="1043.75" y1="600" x2="1043.75" y2="606" stroke="#333" stroke-width="1"/>
<text x="1043.75" y="624" text-anchor="end" font-size="11" fill="#111" transform="rotate(-40 1043.75,624)" font-family="sans-serif">2026-03-11</text>
<line x1="1180.00" y1="600" x2="1180.00" y2="606" stroke="#333" stroke-width="1"/>
<text x="1180.00" y="624" text-anchor="end" font-size="11" fill="#111" transform="rotate(-40 1180.00,624)" font-family="sans-serif">2026-03-18</text>
<line x1="90" y1="75.88" x2="1180" y2="75.88" stroke="#dc2626" stroke-width="1.5" stroke-dasharray="8,4"/>
<text x="1184" y="79.88" font-size="12" fill="#dc2626" font-family="sans-serif">Goal: 1296</text>
<polyline fill="none" stroke="#2563eb" stroke-width="3" points="90.00,540.55 92.96,538.53 95.92,536.91 98.89,534.49 101.85,534.49 104.81,533.27 107.77,532.46 110.73,532.87 113.70,532.06 116.66,532.46 119.62,532.06 122.58,568.46 125.54,568.46 128.51,566.43 131.47,545.00 134.43,545.00 137.39,544.19 140.35,543.79 143.32,543.79 146.28,543.38 149.24,541.76 152.20,541.36 155.16,540.96 158.12,540.96 161.09,539.34 164.05,539.34 167.01,556.73 169.97,556.73 172.93,555.51 175.90,551.07 178.86,538.93 181.82,538.93 184.78,538.93 187.74,538.12 190.71,536.91 193.67,536.91 196.63,536.51 199.59,536.51 202.55,556.73 205.52,556.73 208.48,556.73 211.44,556.73 214.40,535.29 217.36,535.29 220.33,535.29 223.29,535.29 226.25,534.49 229.21,534.08 232.17,533.68 235.14,532.87 238.10,532.06 241.06,532.06 244.02,531.25 246.98,530.85 249.95,530.44 252.91,530.04 255.87,530.04 258.83,529.23 261.79,529.23 264.76,529.23 267.72,528.42 270.68,528.42 273.64,527.61 276.60,527.21 279.57,526.80 282.53,526.40 285.49,525.18 288.45,523.57 291.41,523.57 294.38,523.16 297.34,522.76 300.30,522.35 303.26,521.54 306.22,519.52 309.18,517.50 312.15,517.50 315.11,517.50 318.07,517.50 321.03,517.50 323.99,517.50 326.96,517.10 329.92,516.69 332.88,515.48 335.84,515.07 338.80,514.67 341.77,513.86 344.73,514.26 347.69,512.24 350.65,511.84 353.61,511.84 356.58,511.03 359.54,509.82 362.50,507.79 365.46,506.99 368.42,506.58 371.39,509.41 374.35,509.01 377.31,504.96 380.27,504.56 383.23,504.15 386.20,504.56 389.16,503.75 392.12,503.75 395.08,503.35 398.04,499.30 401.01,496.47 403.97,490.00 406.93,484.34 409.89,481.10 412.85,480.29 415.82,480.70 418.78,460.88 421.74,459.26 424.70,458.05 427.66,456.03 430.62,456.03 433.59,454.41 436.55,450.77 439.51,444.30 442.47,443.90 445.43,600.00 448.40,441.88 451.36,440.66 454.32,439.45 457.28,439.04 460.24,438.64 463.21,437.83 466.17,436.62 469.13,436.62 472.09,434.60 475.05,432.17 478.02,429.34 480.98,428.93 483.94,428.53 486.90,427.72 489.86,426.91 492.83,426.10 495.79,426.10 498.75,426.10 501.71,419.63 504.67,419.23 507.64,418.42 510.60,418.01 513.56,417.61 516.52,417.61 519.48,417.61 522.45,417.21 525.41,417.21 528.37,413.57 531.33,411.95 534.29,412.76 537.26,410.74 540.22,410.74 543.18,410.33 546.14,410.33 549.10,410.33 552.07,409.93 555.03,409.93 557.99,409.93 560.95,409.52 563.91,409.52 566.88,409.12 569.84,409.52 572.80,409.12 575.76,407.50 578.72,407.10 581.68,403.05 584.65,399.82 587.61,400.22 590.57,400.62 593.53,400.62 596.49,399.41 599.46,392.94 602.42,391.32 605.38,389.30 608.34,389.30 611.30,388.49 614.27,375.15 617.23,374.74 620.19,374.74 623.15,374.74 626.11,374.74 629.08,374.34 632.04,374.34 635.00,374.34 637.96,374.34 640.92,374.34 643.89,373.93 646.85,373.12 649.81,372.72 652.77,373.53 655.73,435.81 658.70,372.32 661.66,372.72 664.62,371.91 667.58,371.91 670.54,372.32 673.51,371.10 676.47,369.89 679.43,369.89 682.39,369.89 685.35,369.49 688.32,369.89 691.28,369.08 694.24,368.68 697.20,368.27 700.16,367.87 703.12,367.06 706.09,367.46 709.05,367.06 712.01,366.25 714.97,368.27 717.93,368.68 720.90,368.68 723.86,368.27 726.82,369.08 729.78,367.87 732.74,367.46 735.71,367.06 738.67,360.18 741.63,359.78 744.59,359.38 747.55,356.95 750.52,357.35 753.48,357.76 756.44,355.33 759.40,355.74 762.36,357.35 765.33,355.33 768.29,356.14 771.25,355.74 774.21,356.14 777.17,354.12 780.14,354.93 783.10,356.14 786.06,354.52 789.02,353.71 791.98,354.12 794.95,354.93 797.91,352.90 800.87,353.71 803.83,353.31 806.79,353.31 809.76,354.52 812.72,352.90 815.68,352.50 818.64,352.50 821.60,353.31 824.57,352.50 827.53,353.71 830.49,354.12 833.45,352.50 836.41,352.90 839.38,352.50 842.34,352.10 845.30,351.69 848.26,352.10 851.22,354.12 854.18,352.50 857.15,352.10 860.11,352.10 863.07,349.67 866.03,349.67 868.99,350.88 871.96,351.29 874.92,350.48 877.88,352.10 880.84,350.48 883.80,350.48 886.77,350.48 889.73,350.07 892.69,348.46 895.65,351.29 898.61,349.67 901.58,351.29 904.54,349.67 907.50,348.86 910.46,348.46 913.42,348.46 916.39,347.24 919.35,348.86 922.31,346.84 925.27,348.46 928.23,348.86 931.20,346.84 934.16,349.26 937.12,348.05 940.08,349.26 943.04,349.26 946.01,350.48 948.97,352.90 951.93,349.67 954.89,348.46 957.85,345.62 960.82,344.82 963.78,344.41 966.74,342.39 969.70,341.18 972.66,341.58 975.62,339.15 978.59,338.35 981.55,337.54 984.51,336.73 987.47,335.92 990.43,337.54 993.40,338.35 996.36,337.54 999.32,337.54 1002.28,337.54 1005.24,333.09 1008.21,333.90 1011.17,335.92 1014.13,336.73 1017.09,335.51 1020.05,332.28 1023.02,331.47 1025.98,331.07 1028.94,331.47 1031.90,331.07 1034.86,331.07 1037.83,331.07 1040.79,331.07 1043.75,331.07 1046.71,331.07 1049.67,331.07 1052.64,331.07 1055.60,331.07 1058.56,331.07 1061.52,331.47 1064.48,331.88 1067.45,331.07 1070.41,331.47 1073.37,331.07 1076.33,331.47 1079.29,331.07 1082.26,324.19 1085.22,324.19 1088.18,318.93 1091.14,316.51 1094.10,310.44 1097.07,308.01 1100.03,600.00 1102.99,301.54 1105.95,290.22 1108.91,287.79 1111.88,286.18 1114.84,285.77 1117.80,285.77 1120.76,285.77 1123.72,286.18 1126.68,285.77 1129.65,285.77 1132.61,285.77 1135.57,283.35 1138.53,282.94 1141.49,282.94 1144.46,283.35 1147.42,282.94 1150.38,282.94 1153.34,283.75 1156.30,282.13 1159.27,282.13 1162.23,282.54 1165.19,282.13 1168.15,282.54 1171.11,282.94 1174.08,281.73 1177.04,282.54 1180.00,281.73"/>
<circle cx="90.00" cy="540.55" r="3.2" fill="#1d4ed8"/>
<circle cx="92.96" cy="538.53" r="3.2" fill="#1d4ed8"/>
<circle cx="95.92" cy="536.91" r="3.2" fill="#1d4ed8"/>
<circle cx="98.89" cy="534.49" r="3.2" fill="#1d4ed8"/>
<circle cx="101.85" cy="534.49" r="3.2" fill="#1d4ed8"/>
<circle cx="104.81" cy="533.27" r="3.2" fill="#1d4ed8"/>
<circle cx="107.77" cy="532.46" r="3.2" fill="#1d4ed8"/>
<circle cx="110.73" cy="532.87" r="3.2" fill="#1d4ed8"/>
<circle cx="113.70" cy="532.06" r="3.2" fill="#1d4ed8"/>
<circle cx="116.66" cy="532.46" r="3.2" fill="#1d4ed8"/>
<circle cx="119.62" cy="532.06" r="3.2" fill="#1d4ed8"/>
<circle cx="122.58" cy="568.46" r="3.2" fill="#1d4ed8"/>
<circle cx="125.54" cy="568.46" r="3.2" fill="#1d4ed8"/>
<circle cx="128.51" cy="566.43" r="3.2" fill="#1d4ed8"/>
<circle cx="131.47" cy="545.00" r="3.2" fill="#1d4ed8"/>
<circle cx="134.43" cy="545.00" r="3.2" fill="#1d4ed8"/>
<circle cx="137.39" cy="544.19" r="3.2" fill="#1d4ed8"/>
<circle cx="140.35" cy="543.79" r="3.2" fill="#1d4ed8"/>
<circle cx="143.32" cy="543.79" r="3.2" fill="#1d4ed8"/>
<circle cx="146.28" cy="543.38" r="3.2" fill="#1d4ed8"/>
<circle cx="149.24" cy="541.76" r="3.2" fill="#1d4ed8"/>
<circle cx="152.20" cy="541.36" r="3.2" fill="#1d4ed8"/>
<circle cx="155.16" cy="540.96" r="3.2" fill="#1d4ed8"/>
<circle cx="158.12" cy="540.96" r="3.2" fill="#1d4ed8"/>
<circle cx="161.09" cy="539.34" r="3.2" fill="#1d4ed8"/>
<circle cx="164.05" cy="539.34" r="3.2" fill="#1d4ed8"/>
<circle cx="167.01" cy="556.73" r="3.2" fill="#1d4ed8"/>
<circle cx="169.97" cy="556.73" r="3.2" fill="#1d4ed8"/>
<circle cx="172.93" cy="555.51" r="3.2" fill="#1d4ed8"/>
<circle cx="175.90" cy="551.07" r="3.2" fill="#1d4ed8"/>
<circle cx="178.86" cy="538.93" r="3.2" fill="#1d4ed8"/>
<circle cx="181.82" cy="538.93" r="3.2" fill="#1d4ed8"/>
<circle cx="184.78" cy="538.93" r="3.2" fill="#1d4ed8"/>
<circle cx="187.74" cy="538.12" r="3.2" fill="#1d4ed8"/>
<circle cx="190.71" cy="536.91" r="3.2" fill="#1d4ed8"/>
<circle cx="193.67" cy="536.91" r="3.2" fill="#1d4ed8"/>
<circle cx="196.63" cy="536.51" r="3.2" fill="#1d4ed8"/>
<circle cx="199.59" cy="536.51" r="3.2" fill="#1d4ed8"/>
<circle cx="202.55" cy="556.73" r="3.2" fill="#1d4ed8"/>
<circle cx="205.52" cy="556.73" r="3.2" fill="#1d4ed8"/>
<circle cx="208.48" cy="556.73" r="3.2" fill="#1d4ed8"/>
<circle cx="211.44" cy="556.73" r="3.2" fill="#1d4ed8"/>
<circle cx="214.40" cy="535.29" r="3.2" fill="#1d4ed8"/>
<circle cx="217.36" cy="535.29" r="3.2" fill="#1d4ed8"/>
<circle cx="220.33" cy="535.29" r="3.2" fill="#1d4ed8"/>
<circle cx="223.29" cy="535.29" r="3.2" fill="#1d4ed8"/>
<circle cx="226.25" cy="534.49" r="3.2" fill="#1d4ed8"/>
<circle cx="229.21" cy="534.08" r="3.2" fill="#1d4ed8"/>
<circle cx="232.17" cy="533.68" r="3.2" fill="#1d4ed8"/>
<circle cx="235.14" cy="532.87" r="3.2" fill="#1d4ed8"/>
<circle cx="238.10" cy="532.06" r="3.2" fill="#1d4ed8"/>
<circle cx="241.06" cy="532.06" r="3.2" fill="#1d4ed8"/>
<circle cx="244.02" cy="531.25" r="3.2" fill="#1d4ed8"/>
<circle cx="246.98" cy="530.85" r="3.2" fill="#1d4ed8"/>
<circle cx="249.95" cy="530.44" r="3.2" fill="#1d4ed8"/>
<circle cx="252.91" cy="530.04" r="3.2" fill="#1d4ed8"/>
<circle cx="255.87" cy="530.04" r="3.2" fill="#1d4ed8"/>
<circle cx="258.83" cy="529.23" r="3.2" fill="#1d4ed8"/>
<circle cx="261.79" cy="529.23" r="3.2" fill="#1d4ed8"/>
<circle cx="264.76" cy="529.23" r="3.2" fill="#1d4ed8"/>
<circle cx="267.72" cy="528.42" r="3.2" fill="#1d4ed8"/>
<circle cx="270.68" cy="528.42" r="3.2" fill="#1d4ed8"/>
<circle cx="273.64" cy="527.61" r="3.2" fill="#1d4ed8"/>
<circle cx="276.60" cy="527.21" r="3.2" fill="#1d4ed8"/>
<circle cx="279.57" cy="526.80" r="3.2" fill="#1d4ed8"/>
<circle cx="282.53" cy="526.40" r="3.2" fill="#1d4ed8"/>
<circle cx="285.49" cy="525.18" r="3.2" fill="#1d4ed8"/>
<circle cx="288.45" cy="523.57" r="3.2" fill="#1d4ed8"/>
<circle cx="291.41" cy="523.57" r="3.2" fill="#1d4ed8"/>
<circle cx="294.38" cy="523.16" r="3.2" fill="#1d4ed8"/>
<circle cx="297.34" cy="522.76" r="3.2" fill="#1d4ed8"/>
<circle cx="300.30" cy="522.35" r="3.2" fill="#1d4ed8"/>
<circle cx="303.26" cy="521.54" r="3.2" fill="#1d4ed8"/>
<circle cx="306.22" cy="519.52" r="3.2" fill="#1d4ed8"/>
<circle cx="309.18" cy="517.50" r="3.2" fill="#1d4ed8"/>
<circle cx="312.15" cy="517.50" r="3.2" fill="#1d4ed8"/>
<circle cx="315.11" cy="517.50" r="3.2" fill="#1d4ed8"/>
<circle cx="318.07" cy="517.50" r="3.2" fill="#1d4ed8"/>
<circle cx="321.03" cy="517.50" r="3.2" fill="#1d4ed8"/>
<circle cx="323.99" cy="517.50" r="3.2" fill="#1d4ed8"/>
<circle cx="326.96" cy="517.10" r="3.2" fill="#1d4ed8"/>
<circle cx="329.92" cy="516.69" r="3.2" fill="#1d4ed8"/>
<circle cx="332.88" cy="515.48" r="3.2" fill="#1d4ed8"/>
<circle cx="335.84" cy="515.07" r="3.2" fill="#1d4ed8"/>
<circle cx="338.80" cy="514.67" r="3.2" fill="#1d4ed8"/>
<circle cx="341.77" cy="513.86" r="3.2" fill="#1d4ed8"/>
<circle cx="344.73" cy="514.26" r="3.2" fill="#1d4ed8"/>
<circle cx="347.69" cy="512.24" r="3.2" fill="#1d4ed8"/>
<circle cx="350.65" cy="511.84" r="3.2" fill="#1d4ed8"/>
<circle cx="353.61" cy="511.84" r="3.2" fill="#1d4ed8"/>
<circle cx="356.58" cy="511.03" r="3.2" fill="#1d4ed8"/>
<circle cx="359.54" cy="509.82" r="3.2" fill="#1d4ed8"/>
<circle cx="362.50" cy="507.79" r="3.2" fill="#1d4ed8"/>
<circle cx="365.46" cy="506.99" r="3.2" fill="#1d4ed8"/>
<circle cx="368.42" cy="506.58" r="3.2" fill="#1d4ed8"/>
<circle cx="371.39" cy="509.41" r="3.2" fill="#1d4ed8"/>
<circle cx="374.35" cy="509.01" r="3.2" fill="#1d4ed8"/>
<circle cx="377.31" cy="504.96" r="3.2" fill="#1d4ed8"/>
<circle cx="380.27" cy="504.56" r="3.2" fill="#1d4ed8"/>
<circle cx="383.23" cy="504.15" r="3.2" fill="#1d4ed8"/>
<circle cx="386.20" cy="504.56" r="3.2" fill="#1d4ed8"/>
<circle cx="389.16" cy="503.75" r="3.2" fill="#1d4ed8"/>
<circle cx="392.12" cy="503.75" r="3.2" fill="#1d4ed8"/>
<circle cx="395.08" cy="503.35" r="3.2" fill="#1d4ed8"/>
<circle cx="398.04" cy="499.30" r="3.2" fill="#1d4ed8"/>
<circle cx="401.01" cy="496.47" r="3.2" fill="#1d4ed8"/>
<circle cx="403.97" cy="490.00" r="3.2" fill="#1d4ed8"/>
<circle cx="406.93" cy="484.34" r="3.2" fill="#1d4ed8"/>
<circle cx="409.89" cy="481.10" r="3.2" fill="#1d4ed8"/>
<circle cx="412.85" cy="480.29" r="3.2" fill="#1d4ed8"/>
<circle cx="415.82" cy="480.70" r="3.2" fill="#1d4ed8"/>
<circle cx="418.78" cy="460.88" r="3.2" fill="#1d4ed8"/>
<circle cx="421.74" cy="459.26" r="3.2" fill="#1d4ed8"/>
<circle cx="424.70" cy="458.05" r="3.2" fill="#1d4ed8"/>
<circle cx="427.66" cy="456.03" r="3.2" fill="#1d4ed8"/>
<circle cx="430.62" cy="456.03" r="3.2" fill="#1d4ed8"/>
<circle cx="433.59" cy="454.41" r="3.2" fill="#1d4ed8"/>
<circle cx="436.55" cy="450.77" r="3.2" fill="#1d4ed8"/>
<circle cx="439.51" cy="444.30" r="3.2" fill="#1d4ed8"/>
<circle cx="442.47" cy="443.90" r="3.2" fill="#1d4ed8"/>
<circle cx="445.43" cy="600.00" r="3.2" fill="#1d4ed8"/>
<circle cx="448.40" cy="441.88" r="3.2" fill="#1d4ed8"/>
<circle cx="451.36" cy="440.66" r="3.2" fill="#1d4ed8"/>
<circle cx="454.32" cy="439.45" r="3.2" fill="#1d4ed8"/>
<circle cx="457.28" cy="439.04" r="3.2" fill="#1d4ed8"/>
<circle cx="460.24" cy="438.64" r="3.2" fill="#1d4ed8"/>
<circle cx="463.21" cy="437.83" r="3.2" fill="#1d4ed8"/>
<circle cx="466.17" cy="436.62" r="3.2" fill="#1d4ed8"/>
<circle cx="469.13" cy="436.62" r="3.2" fill="#1d4ed8"/>
<circle cx="472.09" cy="434.60" r="3.2" fill="#1d4ed8"/>
<circle cx="475.05" cy="432.17" r="3.2" fill="#1d4ed8"/>
<circle cx="478.02" cy="429.34" r="3.2" fill="#1d4ed8"/>
<circle cx="480.98" cy="428.93" r="3.2" fill="#1d4ed8"/>
<circle cx="483.94" cy="428.53" r="3.2" fill="#1d4ed8"/>
<circle cx="486.90" cy="427.72" r="3.2" fill="#1d4ed8"/>
<circle cx="489.86" cy="426.91" r="3.2" fill="#1d4ed8"/>
<circle cx="492.83" cy="426.10" r="3.2" fill="#1d4ed8"/>
<circle cx="495.79" cy="426.10" r="3.2" fill="#1d4ed8"/>
<circle cx="498.75" cy="426.10" r="3.2" fill="#1d4ed8"/>
<circle cx="501.71" cy="419.63" r="3.2" fill="#1d4ed8"/>
<circle cx="504.67" cy="419.23" r="3.2" fill="#1d4ed8"/>
<circle cx="507.64" cy="418.42" r="3.2" fill="#1d4ed8"/>
<circle cx="510.60" cy="418.01" r="3.2" fill="#1d4ed8"/>
<circle cx="513.56" cy="417.61" r="3.2" fill="#1d4ed8"/>
<circle cx="516.52" cy="417.61" r="3.2" fill="#1d4ed8"/>
<circle cx="519.48" cy="417.61" r="3.2" fill="#1d4ed8"/>
<circle cx="522.45" cy="417.21" r="3.2" fill="#1d4ed8"/>
<circle cx="525.41" cy="417.21" r="3.2" fill="#1d4ed8"/>
<circle cx="528.37" cy="413.57" r="3.2" fill="#1d4ed8"/>
<circle cx="531.33" cy="411.95" r="3.2" fill="#1d4ed8"/>
<circle cx="534.29" cy="412.76" r="3.2" fill="#1d4ed8"/>
<circle cx="537.26" cy="410.74" r="3.2" fill="#1d4ed8"/>
<circle cx="540.22" cy="410.74" r="3.2" fill="#1d4ed8"/>
<circle cx="543.18" cy="410.33" r="3.2" fill="#1d4ed8"/>
<circle cx="546.14" cy="410.33" r="3.2" fill="#1d4ed8"/>
<circle cx="549.10" cy="410.33" r="3.2" fill="#1d4ed8"/>
<circle cx="552.07" cy="409.93" r="3.2" fill="#1d4ed8"/>
<circle cx="555.03" cy="409.93" r="3.2" fill="#1d4ed8"/>
<circle cx="557.99" cy="409.93" r="3.2" fill="#1d4ed8"/>
<circle cx="560.95" cy="409.52" r="3.2" fill="#1d4ed8"/>
<circle cx="563.91" cy="409.52" r="3.2" fill="#1d4ed8"/>
<circle cx="566.88" cy="409.12" r="3.2" fill="#1d4ed8"/>
<circle cx="569.84" cy="409.52" r="3.2" fill="#1d4ed8"/>
<circle cx="572.80" cy="409.12" r="3.2" fill="#1d4ed8"/>
<circle cx="575.76" cy="407.50" r="3.2" fill="#1d4ed8"/>
<circle cx="578.72" cy="407.10" r="3.2" fill="#1d4ed8"/>
<circle cx="581.68" cy="403.05" r="3.2" fill="#1d4ed8"/>
<circle cx="584.65" cy="399.82" r="3.2" fill="#1d4ed8"/>
<circle cx="587.61" cy="400.22" r="3.2" fill="#1d4ed8"/>
<circle cx="590.57" cy="400.62" r="3.2" fill="#1d4ed8"/>
<circle cx="593.53" cy="400.62" r="3.2" fill="#1d4ed8"/>
<circle cx="596.49" cy="399.41" r="3.2" fill="#1d4ed8"/>
<circle cx="599.46" cy="392.94" r="3.2" fill="#1d4ed8"/>
<circle cx="602.42" cy="391.32" r="3.2" fill="#1d4ed8"/>
<circle cx="605.38" cy="389.30" r="3.2" fill="#1d4ed8"/>
<circle cx="608.34" cy="389.30" r="3.2" fill="#1d4ed8"/>
<circle cx="611.30" cy="388.49" r="3.2" fill="#1d4ed8"/>
<circle cx="614.27" cy="375.15" r="3.2" fill="#1d4ed8"/>
<circle cx="617.23" cy="374.74" r="3.2" fill="#1d4ed8"/>
<circle cx="620.19" cy="374.74" r="3.2" fill="#1d4ed8"/>
<circle cx="623.15" cy="374.74" r="3.2" fill="#1d4ed8"/>
<circle cx="626.11" cy="374.74" r="3.2" fill="#1d4ed8"/>
<circle cx="629.08" cy="374.34" r="3.2" fill="#1d4ed8"/>
<circle cx="632.04" cy="374.34" r="3.2" fill="#1d4ed8"/>
<circle cx="635.00" cy="374.34" r="3.2" fill="#1d4ed8"/>
<circle cx="637.96" cy="374.34" r="3.2" fill="#1d4ed8"/>
<circle cx="640.92" cy="374.34" r="3.2" fill="#1d4ed8"/>
<circle cx="643.89" cy="373.93" r="3.2" fill="#1d4ed8"/>
<circle cx="646.85" cy="373.12" r="3.2" fill="#1d4ed8"/>
<circle cx="649.81" cy="372.72" r="3.2" fill="#1d4ed8"/>
<circle cx="652.77" cy="373.53" r="3.2" fill="#1d4ed8"/>
<circle cx="655.73" cy="435.81" r="3.2" fill="#1d4ed8"/>
<circle cx="658.70" cy="372.32" r="3.2" fill="#1d4ed8"/>
<circle cx="661.66" cy="372.72" r="3.2" fill="#1d4ed8"/>
<circle cx="664.62" cy="371.91" r="3.2" fill="#1d4ed8"/>
<circle cx="667.58" cy="371.91" r="3.2" fill="#1d4ed8"/>
<circle cx="670.54" cy="372.32" r="3.2" fill="#1d4ed8"/>
<circle cx="673.51" cy="371.10" r="3.2" fill="#1d4ed8"/>
<circle cx="676.47" cy="369.89" r="3.2" fill="#1d4ed8"/>
<circle cx="679.43" cy="369.89" r="3.2" fill="#1d4ed8"/>
<circle cx="682.39" cy="369.89" r="3.2" fill="#1d4ed8"/>
<circle cx="685.35" cy="369.49" r="3.2" fill="#1d4ed8"/>
<circle cx="688.32" cy="369.89" r="3.2" fill="#1d4ed8"/>
<circle cx="691.28" cy="369.08" r="3.2" fill="#1d4ed8"/>
<circle cx="694.24" cy="368.68" r="3.2" fill="#1d4ed8"/>
<circle cx="697.20" cy="368.27" r="3.2" fill="#1d4ed8"/>
<circle cx="700.16" cy="367.87" r="3.2" fill="#1d4ed8"/>
<circle cx="703.12" cy="367.06" r="3.2" fill="#1d4ed8"/>
<circle cx="706.09" cy="367.46" r="3.2" fill="#1d4ed8"/>
<circle cx="709.05" cy="367.06" r="3.2" fill="#1d4ed8"/>
<circle cx="712.01" cy="366.25" r="3.2" fill="#1d4ed8"/>
<circle cx="714.97" cy="368.27" r="3.2" fill="#1d4ed8"/>
<circle cx="717.93" cy="368.68" r="3.2" fill="#1d4ed8"/>
<circle cx="720.90" cy="368.68" r="3.2" fill="#1d4ed8"/>
<circle cx="723.86" cy="368.27" r="3.2" fill="#1d4ed8"/>
<circle cx="726.82" cy="369.08" r="3.2" fill="#1d4ed8"/>
<circle cx="729.78" cy="367.87" r="3.2" fill="#1d4ed8"/>
<circle cx="732.74" cy="367.46" r="3.2" fill="#1d4ed8"/>
<circle cx="735.71" cy="367.06" r="3.2" fill="#1d4ed8"/>
<circle cx="738.67" cy="360.18" r="3.2" fill="#1d4ed8"/>
<circle cx="741.63" cy="359.78" r="3.2" fill="#1d4ed8"/>
<circle cx="744.59" cy="359.38" r="3.2" fill="#1d4ed8"/>
<circle cx="747.55" cy="356.95" r="3.2" fill="#1d4ed8"/>
<circle cx="750.52" cy="357.35" r="3.2" fill="#1d4ed8"/>
<circle cx="753.48" cy="357.76" r="3.2" fill="#1d4ed8"/>
<circle cx="756.44" cy="355.33" r="3.2" fill="#1d4ed8"/>
<circle cx="759.40" cy="355.74" r="3.2" fill="#1d4ed8"/>
<circle cx="762.36" cy="357.35" r="3.2" fill="#1d4ed8"/>
<circle cx="765.33" cy="355.33" r="3.2" fill="#1d4ed8"/>
<circle cx="768.29" cy="356.14" r="3.2" fill="#1d4ed8"/>
<circle cx="771.25" cy="355.74" r="3.2" fill="#1d4ed8"/>
<circle cx="774.21" cy="356.14" r="3.2" fill="#1d4ed8"/>
<circle cx="777.17" cy="354.12" r="3.2" fill="#1d4ed8"/>
<circle cx="780.14" cy="354.93" r="3.2" fill="#1d4ed8"/>
<circle cx="783.10" cy="356.14" r="3.2" fill="#1d4ed8"/>
<circle cx="786.06" cy="354.52" r="3.2" fill="#1d4ed8"/>
<circle cx="789.02" cy="353.71" r="3.2" fill="#1d4ed8"/>
<circle cx="791.98" cy="354.12" r="3.2" fill="#1d4ed8"/>
<circle cx="794.95" cy="354.93" r="3.2" fill="#1d4ed8"/>
<circle cx="797.91" cy="352.90" r="3.2" fill="#1d4ed8"/>
<circle cx="800.87" cy="353.71" r="3.2" fill="#1d4ed8"/>
<circle cx="803.83" cy="353.31" r="3.2" fill="#1d4ed8"/>
<circle cx="806.79" cy="353.31" r="3.2" fill="#1d4ed8"/>
<circle cx="809.76" cy="354.52" r="3.2" fill="#1d4ed8"/>
<circle cx="812.72" cy="352.90" r="3.2" fill="#1d4ed8"/>
<circle cx="815.68" cy="352.50" r="3.2" fill="#1d4ed8"/>
<circle cx="818.64" cy="352.50" r="3.2" fill="#1d4ed8"/>
<circle cx="821.60" cy="353.31" r="3.2" fill="#1d4ed8"/>
<circle cx="824.57" cy="352.50" r="3.2" fill="#1d4ed8"/>
<circle cx="827.53" cy="353.71" r="3.2" fill="#1d4ed8"/>
<circle cx="830.49" cy="354.12" r="3.2" fill="#1d4ed8"/>
<circle cx="833.45" cy="352.50" r="3.2" fill="#1d4ed8"/>
<circle cx="836.41" cy="352.90" r="3.2" fill="#1d4ed8"/>
<circle cx="839.38" cy="352.50" r="3.2" fill="#1d4ed8"/>
<circle cx="842.34" cy="352.10" r="3.2" fill="#1d4ed8"/>
<circle cx="845.30" cy="351.69" r="3.2" fill="#1d4ed8"/>
<circle cx="848.26" cy="352.10" r="3.2" fill="#1d4ed8"/>
<circle cx="851.22" cy="354.12" r="3.2" fill="#1d4ed8"/>
<circle cx="854.18" cy="352.50" r="3.2" fill="#1d4ed8"/>
<circle cx="857.15" cy="352.10" r="3.2" fill="#1d4ed8"/>
<circle cx="860.11" cy="352.10" r="3.2" fill="#1d4ed8"/>
<circle cx="863.07" cy="349.67" r="3.2" fill="#1d4ed8"/>
<circle cx="866.03" cy="349.67" r="3.2" fill="#1d4ed8"/>
<circle cx="868.99" cy="350.88" r="3.2" fill="#1d4ed8"/>
<circle cx="871.96" cy="351.29" r="3.2" fill="#1d4ed8"/>
<circle cx="874.92" cy="350.48" r="3.2" fill="#1d4ed8"/>
<circle cx="877.88" cy="352.10" r="3.2" fill="#1d4ed8"/>
<circle cx="880.84" cy="350.48" r="3.2" fill="#1d4ed8"/>
<circle cx="883.80" cy="350.48" r="3.2" fill="#1d4ed8"/>
<circle cx="886.77" cy="350.48" r="3.2" fill="#1d4ed8"/>
<circle cx="889.73" cy="350.07" r="3.2" fill="#1d4ed8"/>
<circle cx="892.69" cy="348.46" r="3.2" fill="#1d4ed8"/>
<circle cx="895.65" cy="351.29" r="3.2" fill="#1d4ed8"/>
<circle cx="898.61" cy="349.67" r="3.2" fill="#1d4ed8"/>
<circle cx="901.58" cy="351.29" r="3.2" fill="#1d4ed8"/>
<circle cx="904.54" cy="349.67" r="3.2" fill="#1d4ed8"/>
<circle cx="907.50" cy="348.86" r="3.2" fill="#1d4ed8"/>
<circle cx="910.46" cy="348.46" r="3.2" fill="#1d4ed8"/>
<circle cx="913.42" cy="348.46" r="3.2" fill="#1d4ed8"/>
<circle cx="916.39" cy="347.24" r="3.2" fill="#1d4ed8"/>
<circle cx="919.35" cy="348.86" r="3.2" fill="#1d4ed8"/>
<circle cx="922.31" cy="346.84" r="3.2" fill="#1d4ed8"/>
<circle cx="925.27" cy="348.46" r="3.2" fill="#1d4ed8"/>
<circle cx="928.23" cy="348.86" r="3.2" fill="#1d4ed8"/>
<circle cx="931.20" cy="346.84" r="3.2" fill="#1d4ed8"/>
<circle cx="934.16" cy="349.26" r="3.2" fill="#1d4ed8"/>
<circle cx="937.12" cy="348.05" r="3.2" fill="#1d4ed8"/>
<circle cx="940.08" cy="349.26" r="3.2" fill="#1d4ed8"/>
<circle cx="943.04" cy="349.26" r="3.2" fill="#1d4ed8"/>
<circle cx="946.01" cy="350.48" r="3.2" fill="#1d4ed8"/>
<circle cx="948.97" cy="352.90" r="3.2" fill="#1d4ed8"/>
<circle cx="951.93" cy="349.67" r="3.2" fill="#1d4ed8"/>
<circle cx="954.89" cy="348.46" r="3.2" fill="#1d4ed8"/>
<circle cx="957.85" cy="345.62" r="3.2" fill="#1d4ed8"/>
<circle cx="960.82" cy="344.82" r="3.2" fill="#1d4ed8"/>
<circle cx="963.78" cy="344.41" r="3.2" fill="#1d4ed8"/>
<circle cx="966.74" cy="342.39" r="3.2" fill="#1d4ed8"/>
<circle cx="969.70" cy="341.18" r="3.2" fill="#1d4ed8"/>
<circle cx="972.66" cy="341.58" r="3.2" fill="#1d4ed8"/>
<circle cx="975.62" cy="339.15" r="3.2" fill="#1d4ed8"/>
<circle cx="978.59" cy="338.35" r="3.2" fill="#1d4ed8"/>
<circle cx="981.55" cy="337.54" r="3.2" fill="#1d4ed8"/>
<circle cx="984.51" cy="336.73" r="3.2" fill="#1d4ed8"/>
<circle cx="987.47" cy="335.92" r="3.2" fill="#1d4ed8"/>
<circle cx="990.43" cy="337.54" r="3.2" fill="#1d4ed8"/>
<circle cx="993.40" cy="338.35" r="3.2" fill="#1d4ed8"/>
<circle cx="996.36" cy="337.54" r="3.2" fill="#1d4ed8"/>
<circle cx="999.32" cy="337.54" r="3.2" fill="#1d4ed8"/>
<circle cx="1002.28" cy="337.54" r="3.2" fill="#1d4ed8"/>
<circle cx="1005.24" cy="333.09" r="3.2" fill="#1d4ed8"/>
<circle cx="1008.21" cy="333.90" r="3.2" fill="#1d4ed8"/>
<circle cx="1011.17" cy="335.92" r="3.2" fill="#1d4ed8"/>
<circle cx="1014.13" cy="336.73" r="3.2" fill="#1d4ed8"/>
<circle cx="1017.09" cy="335.51" r="3.2" fill="#1d4ed8"/>
<circle cx="1020.05" cy="332.28" r="3.2" fill="#1d4ed8"/>
<circle cx="1023.02" cy="331.47" r="3.2" fill="#1d4ed8"/>
<circle cx="1025.98" cy="331.07" r="3.2" fill="#1d4ed8"/>
<circle cx="1028.94" cy="331.47" r="3.2" fill="#1d4ed8"/>
<circle cx="1031.90" cy="331.07" r="3.2" fill="#1d4ed8"/>
<circle cx="1034.86" cy="331.07" r="3.2" fill="#1d4ed8"/>
<circle cx="1037.83" cy="331.07" r="3.2" fill="#1d4ed8"/>
<circle cx="1040.79" cy="331.07" r="3.2" fill="#1d4ed8"/>
<circle cx="1043.75" cy="331.07" r="3.2" fill="#1d4ed8"/>
<circle cx="1046.71" cy="331.07" r="3.2" fill="#1d4ed8"/>
<circle cx="1049.67" cy="331.07" r="3.2" fill="#1d4ed8"/>
<circle cx="1052.64" cy="331.07" r="3.2" fill="#1d4ed8"/>
<circle cx="1055.60" cy="331.07" r="3.2" fill="#1d4ed8"/>
<circle cx="1058.56" cy="331.07" r="3.2" fill="#1d4ed8"/>
<circle cx="1061.52" cy="331.47" r="3.2" fill="#1d4ed8"/>
<circle cx="1064.48" cy="331.88" r="3.2" fill="#1d4ed8"/>
<circle cx="1067.45" cy="331.07" r="3.2" fill="#1d4ed8"/>
<circle cx="1070.41" cy="331.47" r="3.2" fill="#1d4ed8"/>
<circle cx="1073.37" cy="331.07" r="3.2" fill="#1d4ed8"/>
<circle cx="1076.33" cy="331.47" r="3.2" fill="#1d4ed8"/>
<circle cx="1079.29" cy="331.07" r="3.2" fill="#1d4ed8"/>
<circle cx="1082.26" cy="324.19" r="3.2" fill="#1d4ed8"/>
<circle cx="1085.22" cy="324.19" r="3.2" fill="#1d4ed8"/>
<circle cx="1088.18" cy="318.93" r="3.2" fill="#1d4ed8"/>
<circle cx="1091.14" cy="316.51" r="3.2" fill="#1d4ed8"/>
<circle cx="1094.10" cy="310.44" r="3.2" fill="#1d4ed8"/>
<circle cx="1097.07" cy="308.01" r="3.2" fill="#1d4ed8"/>
<circle cx="1100.03" cy="600.00" r="3.2" fill="#1d4ed8"/>
<circle cx="1102.99" cy="301.54" r="3.2" fill="#1d4ed8"/>
<circle cx="1105.95" cy="290.22" r="3.2" fill="#1d4ed8"/>
<circle cx="1108.91" cy="287.79" r="3.2" fill="#1d4ed8"/>
<circle cx="1111.88" cy="286.18" r="3.2" fill="#1d4ed8"/>
<circle cx="1114.84" cy="285.77" r="3.2" fill="#1d4ed8"/>
<circle cx="1117.80" cy="285.77" r="3.2" fill="#1d4ed8"/>
<circle cx="1120.76" cy="285.77" r="3.2" fill="#1d4ed8"/>
<circle cx="1123.72" cy="286.18" r="3.2" fill="#1d4ed8"/>
<circle cx="1126.68" cy="285.77" r="3.2" fill="#1d4ed8"/>
<circle cx="1129.65" cy="285.77" r="3.2" fill="#1d4ed8"/>
<circle cx="1132.61" cy="285.77" r="3.2" fill="#1d4ed8"/>
<circle cx="1135.57" cy="283.35" r="3.2" fill="#1d4ed8"/>
<circle cx="1138.53" cy="282.94" r="3.2" fill="#1d4ed8"/>
<circle cx="1141.49" cy="282.94" r="3.2" fill="#1d4ed8"/>
<circle cx="1144.46" cy="283.35" r="3.2" fill="#1d4ed8"/>
<circle cx="1147.42" cy="282.94" r="3.2" fill="#1d4ed8"/>
<circle cx="1150.38" cy="282.94" r="3.2" fill="#1d4ed8"/>
<circle cx="1153.34" cy="283.75" r="3.2" fill="#1d4ed8"/>
<circle cx="1156.30" cy="282.13" r="3.2" fill="#1d4ed8"/>
<circle cx="1159.27" cy="282.13" r="3.2" fill="#1d4ed8"/>
<circle cx="1162.23" cy="282.54" r="3.2" fill="#1d4ed8"/>
<circle cx="1165.19" cy="282.13" r="3.2" fill="#1d4ed8"/>
<circle cx="1168.15" cy="282.54" r="3.2" fill="#1d4ed8"/>
<circle cx="1171.11" cy="282.94" r="3.2" fill="#1d4ed8"/>
<circle cx="1174.08" cy="281.73" r="3.2" fill="#1d4ed8"/>
<circle cx="1177.04" cy="282.54" r="3.2" fill="#1d4ed8"/>
<circle cx="1180.00" cy="281.73" r="3.2" fill="#1d4ed8"/>
<text x="635" y="695" text-anchor="middle" font-size="14" fill="#111" font-family="sans-serif">Date</text>
<text x="24" y="325" text-anchor="middle" font-size="14" fill="#111" transform="rotate(-90 24,325)" font-family="sans-serif">Passed files</text>
</svg>
