<?xml version="1.0" encoding="UTF-8"?>
<svg xmlns="http://www.w3.org/2000/svg" width="1280" height="720" viewBox="0 0 1280 720">
<rect width="100%" height="100%" fill="#ffffff"/>
<text x="640" y="30" text-anchor="middle" font-size="22" font-family="sans-serif">Roast passed files history</text>
<line x1="90" y1="600" x2="1180" y2="600" stroke="#333" stroke-width="1.5"/>
<line x1="90" y1="50" x2="90" y2="600" stroke="#333" stroke-width="1.5"/>
<line x1="90" y1="600.00" x2="1180" y2="600.00" stroke="#e5e7eb" stroke-width="1"/>
<text x="78" y="605.00" text-anchor="end" font-size="12" fill="#111" font-family="sans-serif">0</text>
<line x1="90" y1="397.79" x2="1180" y2="397.79" stroke="#e5e7eb" stroke-width="1"/>
<text x="78" y="402.79" text-anchor="end" font-size="12" fill="#111" font-family="sans-serif">500</text>
<line x1="90" y1="195.59" x2="1180" y2="195.59" stroke="#e5e7eb" stroke-width="1"/>
<text x="78" y="200.59" text-anchor="end" font-size="12" fill="#111" font-family="sans-serif">1000</text>
<line x1="90.00" y1="600" x2="90.00" y2="606" stroke="#333" stroke-width="1"/>
<text x="90.00" y="624" text-anchor="end" font-size="11" fill="#111" transform="rotate(-40 90.00,624)" font-family="sans-serif">2026-02-12</text>
<line x1="225.54" y1="600" x2="225.54" y2="606" stroke="#333" stroke-width="1"/>
<text x="225.54" y="624" text-anchor="end" font-size="11" fill="#111" transform="rotate(-40 225.54,624)" font-family="sans-serif">2026-02-16</text>
<line x1="361.09" y1="600" x2="361.09" y2="606" stroke="#333" stroke-width="1"/>
<text x="361.09" y="624" text-anchor="end" font-size="11" fill="#111" transform="rotate(-40 361.09,624)" font-family="sans-serif">2026-02-17</text>
<line x1="496.63" y1="600" x2="496.63" y2="606" stroke="#333" stroke-width="1"/>
<text x="496.63" y="624" text-anchor="end" font-size="11" fill="#111" transform="rotate(-40 496.63,624)" font-family="sans-serif">2026-02-20</text>
<line x1="632.18" y1="600" x2="632.18" y2="606" stroke="#333" stroke-width="1"/>
<text x="632.18" y="624" text-anchor="end" font-size="11" fill="#111" transform="rotate(-40 632.18,624)" font-family="sans-serif">2026-02-22</text>
<line x1="767.72" y1="600" x2="767.72" y2="606" stroke="#333" stroke-width="1"/>
<text x="767.72" y="624" text-anchor="end" font-size="11" fill="#111" transform="rotate(-40 767.72,624)" font-family="sans-serif">2026-02-25</text>
<line x1="903.26" y1="600" x2="903.26" y2="606" stroke="#333" stroke-width="1"/>
<text x="903.26" y="624" text-anchor="end" font-size="11" fill="#111" transform="rotate(-40 903.26,624)" font-family="sans-serif">2026-02-26</text>
<line x1="1038.81" y1="600" x2="1038.81" y2="606" stroke="#333" stroke-width="1"/>
<text x="1038.81" y="624" text-anchor="end" font-size="11" fill="#111" transform="rotate(-40 1038.81,624)" font-family="sans-serif">2026-02-27</text>
<line x1="1174.35" y1="600" x2="1174.35" y2="606" stroke="#333" stroke-width="1"/>
<text x="1174.35" y="624" text-anchor="end" font-size="11" fill="#111" transform="rotate(-40 1174.35,624)" font-family="sans-serif">2026-02-28</text>
<line x1="1180.00" y1="600" x2="1180.00" y2="606" stroke="#333" stroke-width="1"/>
<text x="1180.00" y="624" text-anchor="end" font-size="11" fill="#111" transform="rotate(-40 1180.00,624)" font-family="sans-serif">2026-02-28</text>
<line x1="90" y1="75.88" x2="1180" y2="75.88" stroke="#dc2626" stroke-width="1.5" stroke-dasharray="8,4"/>
<text x="1184" y="79.88" font-size="12" fill="#dc2626" font-family="sans-serif">Goal: 1296</text>
<polyline fill="none" stroke="#2563eb" stroke-width="3" points="90.00,540.55 95.65,538.53 101.30,536.91 106.94,534.49 112.59,534.49 118.24,533.27 123.89,532.46 129.53,532.87 135.18,532.06 140.83,532.46 146.48,532.06 152.12,568.46 157.77,568.46 163.42,566.43 169.07,545.00 174.72,545.00 180.36,544.19 186.01,543.79 191.66,543.79 197.31,543.38 202.95,541.76 208.60,541.36 214.25,540.96 219.90,540.96 225.54,539.34 231.19,539.34 236.84,556.73 242.49,556.73 248.13,555.51 253.78,551.07 259.43,538.93 265.08,538.93 270.73,538.93 276.37,538.12 282.02,536.91 287.67,536.91 293.32,536.51 298.96,536.51 304.61,556.73 310.26,556.73 315.91,556.73 321.55,556.73 327.20,535.29 332.85,535.29 338.50,535.29 344.15,535.29 349.79,534.49 355.44,534.08 361.09,533.68 366.74,532.87 372.38,532.06 378.03,532.06 383.68,531.25 389.33,530.85 394.97,530.44 400.62,530.04 406.27,530.04 411.92,529.23 417.56,529.23 423.21,529.23 428.86,528.42 434.51,528.42 440.16,527.61 445.80,527.21 451.45,526.80 457.10,526.40 462.75,525.18 468.39,523.57 474.04,523.57 479.69,523.16 485.34,522.76 490.98,522.35 496.63,521.54 502.28,519.52 507.93,517.50 513.58,517.50 519.22,517.50 524.87,517.50 530.52,517.50 536.17,517.50 541.81,517.10 547.46,516.69 553.11,515.48 558.76,515.07 564.40,514.67 570.05,513.86 575.70,514.26 581.35,512.24 586.99,511.84 592.64,511.84 598.29,511.03 603.94,509.82 609.59,507.79 615.23,506.99 620.88,506.58 626.53,509.41 632.18,509.01 637.82,504.96 643.47,504.56 649.12,504.15 654.77,504.56 660.41,503.75 666.06,503.75 671.71,503.35 677.36,499.30 683.01,496.47 688.65,490.00 694.30,484.34 699.95,481.10 705.60,480.29 711.24,480.70 716.89,460.88 722.54,459.26 728.19,458.05 733.83,456.03 739.48,456.03 745.13,454.41 750.78,450.77 756.42,444.30 762.07,443.90 767.72,600.00 773.37,441.88 779.02,440.66 784.66,439.45 790.31,439.04 795.96,438.64 801.61,437.83 807.25,436.62 812.90,436.62 818.55,434.60 824.20,432.17 829.84,429.34 835.49,428.93 841.14,428.53 846.79,427.72 852.44,426.91 858.08,426.10 863.73,426.10 869.38,426.10 875.03,419.63 880.67,419.23 886.32,418.42 891.97,418.01 897.62,417.61 903.26,417.61 908.91,417.61 914.56,417.21 920.21,417.21 925.85,413.57 931.50,411.95 937.15,412.76 942.80,410.74 948.45,410.74 954.09,410.33 959.74,410.33 965.39,410.33 971.04,409.93 976.68,409.93 982.33,409.93 987.98,409.52 993.63,409.52 999.27,409.12 1004.92,409.52 1010.57,409.12 1016.22,407.50 1021.87,407.10 1027.51,403.05 1033.16,399.82 1038.81,400.22 1044.46,400.62 1050.10,400.62 1055.75,399.41 1061.40,392.94 1067.05,391.32 1072.69,389.30 1078.34,389.30 1083.99,388.49 1089.64,375.15 1095.28,374.74 1100.93,374.74 1106.58,374.74 1112.23,374.74 1117.88,374.34 1123.52,374.34 1129.17,374.34 1134.82,374.34 1140.47,374.34 1146.11,373.93 1151.76,373.12 1157.41,372.72 1163.06,373.53 1168.70,435.81 1174.35,372.32 1180.00,372.72"/>
<circle cx="90.00" cy="540.55" r="3.2" fill="#1d4ed8"/>
<circle cx="95.65" cy="538.53" r="3.2" fill="#1d4ed8"/>
<circle cx="101.30" cy="536.91" r="3.2" fill="#1d4ed8"/>
<circle cx="106.94" cy="534.49" r="3.2" fill="#1d4ed8"/>
<circle cx="112.59" cy="534.49" r="3.2" fill="#1d4ed8"/>
<circle cx="118.24" cy="533.27" r="3.2" fill="#1d4ed8"/>
<circle cx="123.89" cy="532.46" r="3.2" fill="#1d4ed8"/>
<circle cx="129.53" cy="532.87" r="3.2" fill="#1d4ed8"/>
<circle cx="135.18" cy="532.06" r="3.2" fill="#1d4ed8"/>
<circle cx="140.83" cy="532.46" r="3.2" fill="#1d4ed8"/>
<circle cx="146.48" cy="532.06" r="3.2" fill="#1d4ed8"/>
<circle cx="152.12" cy="568.46" r="3.2" fill="#1d4ed8"/>
<circle cx="157.77" cy="568.46" r="3.2" fill="#1d4ed8"/>
<circle cx="163.42" cy="566.43" r="3.2" fill="#1d4ed8"/>
<circle cx="169.07" cy="545.00" r="3.2" fill="#1d4ed8"/>
<circle cx="174.72" cy="545.00" r="3.2" fill="#1d4ed8"/>
<circle cx="180.36" cy="544.19" r="3.2" fill="#1d4ed8"/>
<circle cx="186.01" cy="543.79" r="3.2" fill="#1d4ed8"/>
<circle cx="191.66" cy="543.79" r="3.2" fill="#1d4ed8"/>
<circle cx="197.31" cy="543.38" r="3.2" fill="#1d4ed8"/>
<circle cx="202.95" cy="541.76" r="3.2" fill="#1d4ed8"/>
<circle cx="208.60" cy="541.36" r="3.2" fill="#1d4ed8"/>
<circle cx="214.25" cy="540.96" r="3.2" fill="#1d4ed8"/>
<circle cx="219.90" cy="540.96" r="3.2" fill="#1d4ed8"/>
<circle cx="225.54" cy="539.34" r="3.2" fill="#1d4ed8"/>
<circle cx="231.19" cy="539.34" r="3.2" fill="#1d4ed8"/>
<circle cx="236.84" cy="556.73" r="3.2" fill="#1d4ed8"/>
<circle cx="242.49" cy="556.73" r="3.2" fill="#1d4ed8"/>
<circle cx="248.13" cy="555.51" r="3.2" fill="#1d4ed8"/>
<circle cx="253.78" cy="551.07" r="3.2" fill="#1d4ed8"/>
<circle cx="259.43" cy="538.93" r="3.2" fill="#1d4ed8"/>
<circle cx="265.08" cy="538.93" r="3.2" fill="#1d4ed8"/>
<circle cx="270.73" cy="538.93" r="3.2" fill="#1d4ed8"/>
<circle cx="276.37" cy="538.12" r="3.2" fill="#1d4ed8"/>
<circle cx="282.02" cy="536.91" r="3.2" fill="#1d4ed8"/>
<circle cx="287.67" cy="536.91" r="3.2" fill="#1d4ed8"/>
<circle cx="293.32" cy="536.51" r="3.2" fill="#1d4ed8"/>
<circle cx="298.96" cy="536.51" r="3.2" fill="#1d4ed8"/>
<circle cx="304.61" cy="556.73" r="3.2" fill="#1d4ed8"/>
<circle cx="310.26" cy="556.73" r="3.2" fill="#1d4ed8"/>
<circle cx="315.91" cy="556.73" r="3.2" fill="#1d4ed8"/>
<circle cx="321.55" cy="556.73" r="3.2" fill="#1d4ed8"/>
<circle cx="327.20" cy="535.29" r="3.2" fill="#1d4ed8"/>
<circle cx="332.85" cy="535.29" r="3.2" fill="#1d4ed8"/>
<circle cx="338.50" cy="535.29" r="3.2" fill="#1d4ed8"/>
<circle cx="344.15" cy="535.29" r="3.2" fill="#1d4ed8"/>
<circle cx="349.79" cy="534.49" r="3.2" fill="#1d4ed8"/>
<circle cx="355.44" cy="534.08" r="3.2" fill="#1d4ed8"/>
<circle cx="361.09" cy="533.68" r="3.2" fill="#1d4ed8"/>
<circle cx="366.74" cy="532.87" r="3.2" fill="#1d4ed8"/>
<circle cx="372.38" cy="532.06" r="3.2" fill="#1d4ed8"/>
<circle cx="378.03" cy="532.06" r="3.2" fill="#1d4ed8"/>
<circle cx="383.68" cy="531.25" r="3.2" fill="#1d4ed8"/>
<circle cx="389.33" cy="530.85" r="3.2" fill="#1d4ed8"/>
<circle cx="394.97" cy="530.44" r="3.2" fill="#1d4ed8"/>
<circle cx="400.62" cy="530.04" r="3.2" fill="#1d4ed8"/>
<circle cx="406.27" cy="530.04" r="3.2" fill="#1d4ed8"/>
<circle cx="411.92" cy="529.23" r="3.2" fill="#1d4ed8"/>
<circle cx="417.56" cy="529.23" r="3.2" fill="#1d4ed8"/>
<circle cx="423.21" cy="529.23" r="3.2" fill="#1d4ed8"/>
<circle cx="428.86" cy="528.42" r="3.2" fill="#1d4ed8"/>
<circle cx="434.51" cy="528.42" r="3.2" fill="#1d4ed8"/>
<circle cx="440.16" cy="527.61" r="3.2" fill="#1d4ed8"/>
<circle cx="445.80" cy="527.21" r="3.2" fill="#1d4ed8"/>
<circle cx="451.45" cy="526.80" r="3.2" fill="#1d4ed8"/>
<circle cx="457.10" cy="526.40" r="3.2" fill="#1d4ed8"/>
<circle cx="462.75" cy="525.18" r="3.2" fill="#1d4ed8"/>
<circle cx="468.39" cy="523.57" r="3.2" fill="#1d4ed8"/>
<circle cx="474.04" cy="523.57" r="3.2" fill="#1d4ed8"/>
<circle cx="479.69" cy="523.16" r="3.2" fill="#1d4ed8"/>
<circle cx="485.34" cy="522.76" r="3.2" fill="#1d4ed8"/>
<circle cx="490.98" cy="522.35" r="3.2" fill="#1d4ed8"/>
<circle cx="496.63" cy="521.54" r="3.2" fill="#1d4ed8"/>
<circle cx="502.28" cy="519.52" r="3.2" fill="#1d4ed8"/>
<circle cx="507.93" cy="517.50" r="3.2" fill="#1d4ed8"/>
<circle cx="513.58" cy="517.50" r="3.2" fill="#1d4ed8"/>
<circle cx="519.22" cy="517.50" r="3.2" fill="#1d4ed8"/>
<circle cx="524.87" cy="517.50" r="3.2" fill="#1d4ed8"/>
<circle cx="530.52" cy="517.50" r="3.2" fill="#1d4ed8"/>
<circle cx="536.17" cy="517.50" r="3.2" fill="#1d4ed8"/>
<circle cx="541.81" cy="517.10" r="3.2" fill="#1d4ed8"/>
<circle cx="547.46" cy="516.69" r="3.2" fill="#1d4ed8"/>
<circle cx="553.11" cy="515.48" r="3.2" fill="#1d4ed8"/>
<circle cx="558.76" cy="515.07" r="3.2" fill="#1d4ed8"/>
<circle cx="564.40" cy="514.67" r="3.2" fill="#1d4ed8"/>
<circle cx="570.05" cy="513.86" r="3.2" fill="#1d4ed8"/>
<circle cx="575.70" cy="514.26" r="3.2" fill="#1d4ed8"/>
<circle cx="581.35" cy="512.24" r="3.2" fill="#1d4ed8"/>
<circle cx="586.99" cy="511.84" r="3.2" fill="#1d4ed8"/>
<circle cx="592.64" cy="511.84" r="3.2" fill="#1d4ed8"/>
<circle cx="598.29" cy="511.03" r="3.2" fill="#1d4ed8"/>
<circle cx="603.94" cy="509.82" r="3.2" fill="#1d4ed8"/>
<circle cx="609.59" cy="507.79" r="3.2" fill="#1d4ed8"/>
<circle cx="615.23" cy="506.99" r="3.2" fill="#1d4ed8"/>
<circle cx="620.88" cy="506.58" r="3.2" fill="#1d4ed8"/>
<circle cx="626.53" cy="509.41" r="3.2" fill="#1d4ed8"/>
<circle cx="632.18" cy="509.01" r="3.2" fill="#1d4ed8"/>
<circle cx="637.82" cy="504.96" r="3.2" fill="#1d4ed8"/>
<circle cx="643.47" cy="504.56" r="3.2" fill="#1d4ed8"/>
<circle cx="649.12" cy="504.15" r="3.2" fill="#1d4ed8"/>
<circle cx="654.77" cy="504.56" r="3.2" fill="#1d4ed8"/>
<circle cx="660.41" cy="503.75" r="3.2" fill="#1d4ed8"/>
<circle cx="666.06" cy="503.75" r="3.2" fill="#1d4ed8"/>
<circle cx="671.71" cy="503.35" r="3.2" fill="#1d4ed8"/>
<circle cx="677.36" cy="499.30" r="3.2" fill="#1d4ed8"/>
<circle cx="683.01" cy="496.47" r="3.2" fill="#1d4ed8"/>
<circle cx="688.65" cy="490.00" r="3.2" fill="#1d4ed8"/>
<circle cx="694.30" cy="484.34" r="3.2" fill="#1d4ed8"/>
<circle cx="699.95" cy="481.10" r="3.2" fill="#1d4ed8"/>
<circle cx="705.60" cy="480.29" r="3.2" fill="#1d4ed8"/>
<circle cx="711.24" cy="480.70" r="3.2" fill="#1d4ed8"/>
<circle cx="716.89" cy="460.88" r="3.2" fill="#1d4ed8"/>
<circle cx="722.54" cy="459.26" r="3.2" fill="#1d4ed8"/>
<circle cx="728.19" cy="458.05" r="3.2" fill="#1d4ed8"/>
<circle cx="733.83" cy="456.03" r="3.2" fill="#1d4ed8"/>
<circle cx="739.48" cy="456.03" r="3.2" fill="#1d4ed8"/>
<circle cx="745.13" cy="454.41" r="3.2" fill="#1d4ed8"/>
<circle cx="750.78" cy="450.77" r="3.2" fill="#1d4ed8"/>
<circle cx="756.42" cy="444.30" r="3.2" fill="#1d4ed8"/>
<circle cx="762.07" cy="443.90" r="3.2" fill="#1d4ed8"/>
<circle cx="767.72" cy="600.00" r="3.2" fill="#1d4ed8"/>
<circle cx="773.37" cy="441.88" r="3.2" fill="#1d4ed8"/>
<circle cx="779.02" cy="440.66" r="3.2" fill="#1d4ed8"/>
<circle cx="784.66" cy="439.45" r="3.2" fill="#1d4ed8"/>
<circle cx="790.31" cy="439.04" r="3.2" fill="#1d4ed8"/>
<circle cx="795.96" cy="438.64" r="3.2" fill="#1d4ed8"/>
<circle cx="801.61" cy="437.83" r="3.2" fill="#1d4ed8"/>
<circle cx="807.25" cy="436.62" r="3.2" fill="#1d4ed8"/>
<circle cx="812.90" cy="436.62" r="3.2" fill="#1d4ed8"/>
<circle cx="818.55" cy="434.60" r="3.2" fill="#1d4ed8"/>
<circle cx="824.20" cy="432.17" r="3.2" fill="#1d4ed8"/>
<circle cx="829.84" cy="429.34" r="3.2" fill="#1d4ed8"/>
<circle cx="835.49" cy="428.93" r="3.2" fill="#1d4ed8"/>
<circle cx="841.14" cy="428.53" r="3.2" fill="#1d4ed8"/>
<circle cx="846.79" cy="427.72" r="3.2" fill="#1d4ed8"/>
<circle cx="852.44" cy="426.91" r="3.2" fill="#1d4ed8"/>
<circle cx="858.08" cy="426.10" r="3.2" fill="#1d4ed8"/>
<circle cx="863.73" cy="426.10" r="3.2" fill="#1d4ed8"/>
<circle cx="869.38" cy="426.10" r="3.2" fill="#1d4ed8"/>
<circle cx="875.03" cy="419.63" r="3.2" fill="#1d4ed8"/>
<circle cx="880.67" cy="419.23" r="3.2" fill="#1d4ed8"/>
<circle cx="886.32" cy="418.42" r="3.2" fill="#1d4ed8"/>
<circle cx="891.97" cy="418.01" r="3.2" fill="#1d4ed8"/>
<circle cx="897.62" cy="417.61" r="3.2" fill="#1d4ed8"/>
<circle cx="903.26" cy="417.61" r="3.2" fill="#1d4ed8"/>
<circle cx="908.91" cy="417.61" r="3.2" fill="#1d4ed8"/>
<circle cx="914.56" cy="417.21" r="3.2" fill="#1d4ed8"/>
<circle cx="920.21" cy="417.21" r="3.2" fill="#1d4ed8"/>
<circle cx="925.85" cy="413.57" r="3.2" fill="#1d4ed8"/>
<circle cx="931.50" cy="411.95" r="3.2" fill="#1d4ed8"/>
<circle cx="937.15" cy="412.76" r="3.2" fill="#1d4ed8"/>
<circle cx="942.80" cy="410.74" r="3.2" fill="#1d4ed8"/>
<circle cx="948.45" cy="410.74" r="3.2" fill="#1d4ed8"/>
<circle cx="954.09" cy="410.33" r="3.2" fill="#1d4ed8"/>
<circle cx="959.74" cy="410.33" r="3.2" fill="#1d4ed8"/>
<circle cx="965.39" cy="410.33" r="3.2" fill="#1d4ed8"/>
<circle cx="971.04" cy="409.93" r="3.2" fill="#1d4ed8"/>
<circle cx="976.68" cy="409.93" r="3.2" fill="#1d4ed8"/>
<circle cx="982.33" cy="409.93" r="3.2" fill="#1d4ed8"/>
<circle cx="987.98" cy="409.52" r="3.2" fill="#1d4ed8"/>
<circle cx="993.63" cy="409.52" r="3.2" fill="#1d4ed8"/>
<circle cx="999.27" cy="409.12" r="3.2" fill="#1d4ed8"/>
<circle cx="1004.92" cy="409.52" r="3.2" fill="#1d4ed8"/>
<circle cx="1010.57" cy="409.12" r="3.2" fill="#1d4ed8"/>
<circle cx="1016.22" cy="407.50" r="3.2" fill="#1d4ed8"/>
<circle cx="1021.87" cy="407.10" r="3.2" fill="#1d4ed8"/>
<circle cx="1027.51" cy="403.05" r="3.2" fill="#1d4ed8"/>
<circle cx="1033.16" cy="399.82" r="3.2" fill="#1d4ed8"/>
<circle cx="1038.81" cy="400.22" r="3.2" fill="#1d4ed8"/>
<circle cx="1044.46" cy="400.62" r="3.2" fill="#1d4ed8"/>
<circle cx="1050.10" cy="400.62" r="3.2" fill="#1d4ed8"/>
<circle cx="1055.75" cy="399.41" r="3.2" fill="#1d4ed8"/>
<circle cx="1061.40" cy="392.94" r="3.2" fill="#1d4ed8"/>
<circle cx="1067.05" cy="391.32" r="3.2" fill="#1d4ed8"/>
<circle cx="1072.69" cy="389.30" r="3.2" fill="#1d4ed8"/>
<circle cx="1078.34" cy="389.30" r="3.2" fill="#1d4ed8"/>
<circle cx="1083.99" cy="388.49" r="3.2" fill="#1d4ed8"/>
<circle cx="1089.64" cy="375.15" r="3.2" fill="#1d4ed8"/>
<circle cx="1095.28" cy="374.74" r="3.2" fill="#1d4ed8"/>
<circle cx="1100.93" cy="374.74" r="3.2" fill="#1d4ed8"/>
<circle cx="1106.58" cy="374.74" r="3.2" fill="#1d4ed8"/>
<circle cx="1112.23" cy="374.74" r="3.2" fill="#1d4ed8"/>
<circle cx="1117.88" cy="374.34" r="3.2" fill="#1d4ed8"/>
<circle cx="1123.52" cy="374.34" r="3.2" fill="#1d4ed8"/>
<circle cx="1129.17" cy="374.34" r="3.2" fill="#1d4ed8"/>
<circle cx="1134.82" cy="374.34" r="3.2" fill="#1d4ed8"/>
<circle cx="1140.47" cy="374.34" r="3.2" fill="#1d4ed8"/>
<circle cx="1146.11" cy="373.93" r="3.2" fill="#1d4ed8"/>
<circle cx="1151.76" cy="373.12" r="3.2" fill="#1d4ed8"/>
<circle cx="1157.41" cy="372.72" r="3.2" fill="#1d4ed8"/>
<circle cx="1163.06" cy="373.53" r="3.2" fill="#1d4ed8"/>
<circle cx="1168.70" cy="435.81" r="3.2" fill="#1d4ed8"/>
<circle cx="1174.35" cy="372.32" r="3.2" fill="#1d4ed8"/>
<circle cx="1180.00" cy="372.72" r="3.2" fill="#1d4ed8"/>
<text x="635" y="695" text-anchor="middle" font-size="14" fill="#111" font-family="sans-serif">Date</text>
<text x="24" y="325" text-anchor="middle" font-size="14" fill="#111" transform="rotate(-90 24,325)" font-family="sans-serif">Passed files</text>
</svg>
