<?xml version="1.0" encoding="UTF-8"?>
<svg xmlns="http://www.w3.org/2000/svg" width="1280" height="720" viewBox="0 0 1280 720">
<rect width="100%" height="100%" fill="#ffffff"/>
<text x="640" y="30" text-anchor="middle" font-size="22" font-family="sans-serif">Roast passed files history</text>
<line x1="90" y1="600" x2="1180" y2="600" stroke="#333" stroke-width="1.5"/>
<line x1="90" y1="50" x2="90" y2="600" stroke="#333" stroke-width="1.5"/>
<line x1="90" y1="600.00" x2="1180" y2="600.00" stroke="#e5e7eb" stroke-width="1"/>
<text x="78" y="605.00" text-anchor="end" font-size="12" fill="#111" font-family="sans-serif">0</text>
<line x1="90" y1="397.79" x2="1180" y2="397.79" stroke="#e5e7eb" stroke-width="1"/>
<text x="78" y="402.79" text-anchor="end" font-size="12" fill="#111" font-family="sans-serif">500</text>
<line x1="90" y1="195.59" x2="1180" y2="195.59" stroke="#e5e7eb" stroke-width="1"/>
<text x="78" y="200.59" text-anchor="end" font-size="12" fill="#111" font-family="sans-serif">1000</text>
<line x1="90.00" y1="600" x2="90.00" y2="606" stroke="#333" stroke-width="1"/>
<text x="90.00" y="624" text-anchor="end" font-size="11" fill="#111" transform="rotate(-40 90.00,624)" font-family="sans-serif">2026-02-12</text>
<line x1="226.58" y1="600" x2="226.58" y2="606" stroke="#333" stroke-width="1"/>
<text x="226.58" y="624" text-anchor="end" font-size="11" fill="#111" transform="rotate(-40 226.58,624)" font-family="sans-serif">2026-02-18</text>
<line x1="363.16" y1="600" x2="363.16" y2="606" stroke="#333" stroke-width="1"/>
<text x="363.16" y="624" text-anchor="end" font-size="11" fill="#111" transform="rotate(-40 363.16,624)" font-family="sans-serif">2026-02-23</text>
<line x1="499.73" y1="600" x2="499.73" y2="606" stroke="#333" stroke-width="1"/>
<text x="499.73" y="624" text-anchor="end" font-size="11" fill="#111" transform="rotate(-40 499.73,624)" font-family="sans-serif">2026-02-26</text>
<line x1="636.31" y1="600" x2="636.31" y2="606" stroke="#333" stroke-width="1"/>
<text x="636.31" y="624" text-anchor="end" font-size="11" fill="#111" transform="rotate(-40 636.31,624)" font-family="sans-serif">2026-03-01</text>
<line x1="772.89" y1="600" x2="772.89" y2="606" stroke="#333" stroke-width="1"/>
<text x="772.89" y="624" text-anchor="end" font-size="11" fill="#111" transform="rotate(-40 772.89,624)" font-family="sans-serif">2026-03-06</text>
<line x1="909.47" y1="600" x2="909.47" y2="606" stroke="#333" stroke-width="1"/>
<text x="909.47" y="624" text-anchor="end" font-size="11" fill="#111" transform="rotate(-40 909.47,624)" font-family="sans-serif">2026-03-11</text>
<line x1="1046.05" y1="600" x2="1046.05" y2="606" stroke="#333" stroke-width="1"/>
<text x="1046.05" y="624" text-anchor="end" font-size="11" fill="#111" transform="rotate(-40 1046.05,624)" font-family="sans-serif">2026-03-18</text>
<line x1="1180.00" y1="600" x2="1180.00" y2="606" stroke="#333" stroke-width="1"/>
<text x="1180.00" y="624" text-anchor="end" font-size="11" fill="#111" transform="rotate(-40 1180.00,624)" font-family="sans-serif">2026-03-20</text>
<line x1="90" y1="75.88" x2="1180" y2="75.88" stroke="#dc2626" stroke-width="1.5" stroke-dasharray="8,4"/>
<text x="1184" y="79.88" font-size="12" fill="#dc2626" font-family="sans-serif">Goal: 1296</text>
<polyline fill="none" stroke="#2563eb" stroke-width="3" points="90.00,540.55 92.63,538.53 95.25,536.91 97.88,534.49 100.51,534.49 103.13,533.27 105.76,532.46 108.39,532.87 111.01,532.06 113.64,532.46 116.27,532.06 118.89,568.46 121.52,568.46 124.14,566.43 126.77,545.00 129.40,545.00 132.02,544.19 134.65,543.79 137.28,543.79 139.90,543.38 142.53,541.76 145.16,541.36 147.78,540.96 150.41,540.96 153.04,539.34 155.66,539.34 158.29,556.73 160.92,556.73 163.54,555.51 166.17,551.07 168.80,538.93 171.42,538.93 174.05,538.93 176.67,538.12 179.30,536.91 181.93,536.91 184.55,536.51 187.18,536.51 189.81,556.73 192.43,556.73 195.06,556.73 197.69,556.73 200.31,535.29 202.94,535.29 205.57,535.29 208.19,535.29 210.82,534.49 213.45,534.08 216.07,533.68 218.70,532.87 221.33,532.06 223.95,532.06 226.58,531.25 229.20,530.85 231.83,530.44 234.46,530.04 237.08,530.04 239.71,529.23 242.34,529.23 244.96,529.23 247.59,528.42 250.22,528.42 252.84,527.61 255.47,527.21 258.10,526.80 260.72,526.40 263.35,525.18 265.98,523.57 268.60,523.57 271.23,523.16 273.86,522.76 276.48,522.35 279.11,521.54 281.73,519.52 284.36,517.50 286.99,517.50 289.61,517.50 292.24,517.50 294.87,517.50 297.49,517.50 300.12,517.10 302.75,516.69 305.37,515.48 308.00,515.07 310.63,514.67 313.25,513.86 315.88,514.26 318.51,512.24 321.13,511.84 323.76,511.84 326.39,511.03 329.01,509.82 331.64,507.79 334.27,506.99 336.89,506.58 339.52,509.41 342.14,509.01 344.77,504.96 347.40,504.56 350.02,504.15 352.65,504.56 355.28,503.75 357.90,503.75 360.53,503.35 363.16,499.30 365.78,496.47 368.41,490.00 371.04,484.34 373.66,481.10 376.29,480.29 378.92,480.70 381.54,460.88 384.17,459.26 386.80,458.05 389.42,456.03 392.05,456.03 394.67,454.41 397.30,450.77 399.93,444.30 402.55,443.90 405.18,600.00 407.81,441.88 410.43,440.66 413.06,439.45 415.69,439.04 418.31,438.64 420.94,437.83 423.57,436.62 426.19,436.62 428.82,434.60 431.45,432.17 434.07,429.34 436.70,428.93 439.33,428.53 441.95,427.72 444.58,426.91 447.20,426.10 449.83,426.10 452.46,426.10 455.08,419.63 457.71,419.23 460.34,418.42 462.96,418.01 465.59,417.61 468.22,417.61 470.84,417.61 473.47,417.21 476.10,417.21 478.72,413.57 481.35,411.95 483.98,412.76 486.60,410.74 489.23,410.74 491.86,410.33 494.48,410.33 497.11,410.33 499.73,409.93 502.36,409.93 504.99,409.93 507.61,409.52 510.24,409.52 512.87,409.12 515.49,409.52 518.12,409.12 520.75,407.50 523.37,407.10 526.00,403.05 528.63,399.82 531.25,400.22 533.88,400.62 536.51,400.62 539.13,399.41 541.76,392.94 544.39,391.32 547.01,389.30 549.64,389.30 552.27,388.49 554.89,375.15 557.52,374.74 560.14,374.74 562.77,374.74 565.40,374.74 568.02,374.34 570.65,374.34 573.28,374.34 575.90,374.34 578.53,374.34 581.16,373.93 583.78,373.12 586.41,372.72 589.04,373.53 591.66,435.81 594.29,372.32 596.92,372.72 599.54,371.91 602.17,371.91 604.80,372.32 607.42,371.10 610.05,369.89 612.67,369.89 615.30,369.89 617.93,369.49 620.55,369.89 623.18,369.08 625.81,368.68 628.43,368.27 631.06,367.87 633.69,367.06 636.31,367.46 638.94,367.06 641.57,366.25 644.19,368.27 646.82,368.68 649.45,368.68 652.07,368.27 654.70,369.08 657.33,367.87 659.95,367.46 662.58,367.06 665.20,360.18 667.83,359.78 670.46,359.38 673.08,356.95 675.71,357.35 678.34,357.76 680.96,355.33 683.59,355.74 686.22,357.35 688.84,355.33 691.47,356.14 694.10,355.74 696.72,356.14 699.35,354.12 701.98,354.93 704.60,356.14 707.23,354.52 709.86,353.71 712.48,354.12 715.11,354.93 717.73,352.90 720.36,353.71 722.99,353.31 725.61,353.31 728.24,354.52 730.87,352.90 733.49,352.50 736.12,352.50 738.75,353.31 741.37,352.50 744.00,353.71 746.63,354.12 749.25,352.50 751.88,352.90 754.51,352.50 757.13,352.10 759.76,351.69 762.39,352.10 765.01,354.12 767.64,352.50 770.27,352.10 772.89,352.10 775.52,349.67 778.14,349.67 780.77,350.88 783.40,351.29 786.02,350.48 788.65,352.10 791.28,350.48 793.90,350.48 796.53,350.48 799.16,350.07 801.78,348.46 804.41,351.29 807.04,349.67 809.66,351.29 812.29,349.67 814.92,348.86 817.54,348.46 820.17,348.46 822.80,347.24 825.42,348.86 828.05,346.84 830.67,348.46 833.30,348.86 835.93,346.84 838.55,349.26 841.18,348.05 843.81,349.26 846.43,349.26 849.06,350.48 851.69,352.90 854.31,349.67 856.94,348.46 859.57,345.62 862.19,344.82 864.82,344.41 867.45,342.39 870.07,341.18 872.70,341.58 875.33,339.15 877.95,338.35 880.58,337.54 883.20,336.73 885.83,335.92 888.46,337.54 891.08,338.35 893.71,337.54 896.34,337.54 898.96,337.54 901.59,333.09 904.22,333.90 906.84,335.92 909.47,336.73 912.10,335.51 914.72,332.28 917.35,331.47 919.98,331.07 922.60,331.47 925.23,331.07 927.86,331.07 930.48,331.07 933.11,331.07 935.73,331.07 938.36,331.07 940.99,331.07 943.61,331.07 946.24,331.07 948.87,331.07 951.49,331.47 954.12,331.88 956.75,331.07 959.37,331.47 962.00,331.07 964.63,331.47 967.25,331.07 969.88,324.19 972.51,324.19 975.13,318.93 977.76,316.51 980.39,310.44 983.01,308.01 985.64,600.00 988.27,301.54 990.89,290.22 993.52,287.79 996.14,286.18 998.77,285.77 1001.40,285.77 1004.02,285.77 1006.65,286.18 1009.28,285.77 1011.90,285.77 1014.53,285.77 1017.16,283.35 1019.78,282.94 1022.41,282.94 1025.04,283.35 1027.66,282.94 1030.29,282.94 1032.92,283.75 1035.54,282.13 1038.17,282.13 1040.80,282.54 1043.42,282.13 1046.05,282.54 1048.67,282.94 1051.30,281.73 1053.93,282.54 1056.55,281.73 1059.18,282.54 1061.81,282.13 1064.43,282.13 1067.06,281.73 1069.69,281.73 1072.31,281.32 1074.94,281.73 1077.57,282.13 1080.19,281.32 1082.82,281.32 1085.45,282.54 1088.07,282.13 1090.70,281.32 1093.33,281.32 1095.95,281.32 1098.58,282.54 1101.20,282.13 1103.83,281.32 1106.46,282.13 1109.08,281.73 1111.71,282.13 1114.34,280.11 1116.96,280.11 1119.59,280.51 1122.22,279.71 1124.84,280.11 1127.47,280.51 1130.10,279.71 1132.72,280.11 1135.35,280.11 1137.98,279.30 1140.60,278.90 1143.23,278.90 1145.86,280.51 1148.48,279.30 1151.11,278.09 1153.73,278.49 1156.36,278.49 1158.99,277.28 1161.61,277.68 1164.24,277.68 1166.87,278.09 1169.49,277.28 1172.12,600.00 1174.75,278.90 1177.37,279.30 1180.00,278.90"/>
<circle cx="90.00" cy="540.55" r="3.2" fill="#1d4ed8"/>
<circle cx="92.63" cy="538.53" r="3.2" fill="#1d4ed8"/>
<circle cx="95.25" cy="536.91" r="3.2" fill="#1d4ed8"/>
<circle cx="97.88" cy="534.49" r="3.2" fill="#1d4ed8"/>
<circle cx="100.51" cy="534.49" r="3.2" fill="#1d4ed8"/>
<circle cx="103.13" cy="533.27" r="3.2" fill="#1d4ed8"/>
<circle cx="105.76" cy="532.46" r="3.2" fill="#1d4ed8"/>
<circle cx="108.39" cy="532.87" r="3.2" fill="#1d4ed8"/>
<circle cx="111.01" cy="532.06" r="3.2" fill="#1d4ed8"/>
<circle cx="113.64" cy="532.46" r="3.2" fill="#1d4ed8"/>
<circle cx="116.27" cy="532.06" r="3.2" fill="#1d4ed8"/>
<circle cx="118.89" cy="568.46" r="3.2" fill="#1d4ed8"/>
<circle cx="121.52" cy="568.46" r="3.2" fill="#1d4ed8"/>
<circle cx="124.14" cy="566.43" r="3.2" fill="#1d4ed8"/>
<circle cx="126.77" cy="545.00" r="3.2" fill="#1d4ed8"/>
<circle cx="129.40" cy="545.00" r="3.2" fill="#1d4ed8"/>
<circle cx="132.02" cy="544.19" r="3.2" fill="#1d4ed8"/>
<circle cx="134.65" cy="543.79" r="3.2" fill="#1d4ed8"/>
<circle cx="137.28" cy="543.79" r="3.2" fill="#1d4ed8"/>
<circle cx="139.90" cy="543.38" r="3.2" fill="#1d4ed8"/>
<circle cx="142.53" cy="541.76" r="3.2" fill="#1d4ed8"/>
<circle cx="145.16" cy="541.36" r="3.2" fill="#1d4ed8"/>
<circle cx="147.78" cy="540.96" r="3.2" fill="#1d4ed8"/>
<circle cx="150.41" cy="540.96" r="3.2" fill="#1d4ed8"/>
<circle cx="153.04" cy="539.34" r="3.2" fill="#1d4ed8"/>
<circle cx="155.66" cy="539.34" r="3.2" fill="#1d4ed8"/>
<circle cx="158.29" cy="556.73" r="3.2" fill="#1d4ed8"/>
<circle cx="160.92" cy="556.73" r="3.2" fill="#1d4ed8"/>
<circle cx="163.54" cy="555.51" r="3.2" fill="#1d4ed8"/>
<circle cx="166.17" cy="551.07" r="3.2" fill="#1d4ed8"/>
<circle cx="168.80" cy="538.93" r="3.2" fill="#1d4ed8"/>
<circle cx="171.42" cy="538.93" r="3.2" fill="#1d4ed8"/>
<circle cx="174.05" cy="538.93" r="3.2" fill="#1d4ed8"/>
<circle cx="176.67" cy="538.12" r="3.2" fill="#1d4ed8"/>
<circle cx="179.30" cy="536.91" r="3.2" fill="#1d4ed8"/>
<circle cx="181.93" cy="536.91" r="3.2" fill="#1d4ed8"/>
<circle cx="184.55" cy="536.51" r="3.2" fill="#1d4ed8"/>
<circle cx="187.18" cy="536.51" r="3.2" fill="#1d4ed8"/>
<circle cx="189.81" cy="556.73" r="3.2" fill="#1d4ed8"/>
<circle cx="192.43" cy="556.73" r="3.2" fill="#1d4ed8"/>
<circle cx="195.06" cy="556.73" r="3.2" fill="#1d4ed8"/>
<circle cx="197.69" cy="556.73" r="3.2" fill="#1d4ed8"/>
<circle cx="200.31" cy="535.29" r="3.2" fill="#1d4ed8"/>
<circle cx="202.94" cy="535.29" r="3.2" fill="#1d4ed8"/>
<circle cx="205.57" cy="535.29" r="3.2" fill="#1d4ed8"/>
<circle cx="208.19" cy="535.29" r="3.2" fill="#1d4ed8"/>
<circle cx="210.82" cy="534.49" r="3.2" fill="#1d4ed8"/>
<circle cx="213.45" cy="534.08" r="3.2" fill="#1d4ed8"/>
<circle cx="216.07" cy="533.68" r="3.2" fill="#1d4ed8"/>
<circle cx="218.70" cy="532.87" r="3.2" fill="#1d4ed8"/>
<circle cx="221.33" cy="532.06" r="3.2" fill="#1d4ed8"/>
<circle cx="223.95" cy="532.06" r="3.2" fill="#1d4ed8"/>
<circle cx="226.58" cy="531.25" r="3.2" fill="#1d4ed8"/>
<circle cx="229.20" cy="530.85" r="3.2" fill="#1d4ed8"/>
<circle cx="231.83" cy="530.44" r="3.2" fill="#1d4ed8"/>
<circle cx="234.46" cy="530.04" r="3.2" fill="#1d4ed8"/>
<circle cx="237.08" cy="530.04" r="3.2" fill="#1d4ed8"/>
<circle cx="239.71" cy="529.23" r="3.2" fill="#1d4ed8"/>
<circle cx="242.34" cy="529.23" r="3.2" fill="#1d4ed8"/>
<circle cx="244.96" cy="529.23" r="3.2" fill="#1d4ed8"/>
<circle cx="247.59" cy="528.42" r="3.2" fill="#1d4ed8"/>
<circle cx="250.22" cy="528.42" r="3.2" fill="#1d4ed8"/>
<circle cx="252.84" cy="527.61" r="3.2" fill="#1d4ed8"/>
<circle cx="255.47" cy="527.21" r="3.2" fill="#1d4ed8"/>
<circle cx="258.10" cy="526.80" r="3.2" fill="#1d4ed8"/>
<circle cx="260.72" cy="526.40" r="3.2" fill="#1d4ed8"/>
<circle cx="263.35" cy="525.18" r="3.2" fill="#1d4ed8"/>
<circle cx="265.98" cy="523.57" r="3.2" fill="#1d4ed8"/>
<circle cx="268.60" cy="523.57" r="3.2" fill="#1d4ed8"/>
<circle cx="271.23" cy="523.16" r="3.2" fill="#1d4ed8"/>
<circle cx="273.86" cy="522.76" r="3.2" fill="#1d4ed8"/>
<circle cx="276.48" cy="522.35" r="3.2" fill="#1d4ed8"/>
<circle cx="279.11" cy="521.54" r="3.2" fill="#1d4ed8"/>
<circle cx="281.73" cy="519.52" r="3.2" fill="#1d4ed8"/>
<circle cx="284.36" cy="517.50" r="3.2" fill="#1d4ed8"/>
<circle cx="286.99" cy="517.50" r="3.2" fill="#1d4ed8"/>
<circle cx="289.61" cy="517.50" r="3.2" fill="#1d4ed8"/>
<circle cx="292.24" cy="517.50" r="3.2" fill="#1d4ed8"/>
<circle cx="294.87" cy="517.50" r="3.2" fill="#1d4ed8"/>
<circle cx="297.49" cy="517.50" r="3.2" fill="#1d4ed8"/>
<circle cx="300.12" cy="517.10" r="3.2" fill="#1d4ed8"/>
<circle cx="302.75" cy="516.69" r="3.2" fill="#1d4ed8"/>
<circle cx="305.37" cy="515.48" r="3.2" fill="#1d4ed8"/>
<circle cx="308.00" cy="515.07" r="3.2" fill="#1d4ed8"/>
<circle cx="310.63" cy="514.67" r="3.2" fill="#1d4ed8"/>
<circle cx="313.25" cy="513.86" r="3.2" fill="#1d4ed8"/>
<circle cx="315.88" cy="514.26" r="3.2" fill="#1d4ed8"/>
<circle cx="318.51" cy="512.24" r="3.2" fill="#1d4ed8"/>
<circle cx="321.13" cy="511.84" r="3.2" fill="#1d4ed8"/>
<circle cx="323.76" cy="511.84" r="3.2" fill="#1d4ed8"/>
<circle cx="326.39" cy="511.03" r="3.2" fill="#1d4ed8"/>
<circle cx="329.01" cy="509.82" r="3.2" fill="#1d4ed8"/>
<circle cx="331.64" cy="507.79" r="3.2" fill="#1d4ed8"/>
<circle cx="334.27" cy="506.99" r="3.2" fill="#1d4ed8"/>
<circle cx="336.89" cy="506.58" r="3.2" fill="#1d4ed8"/>
<circle cx="339.52" cy="509.41" r="3.2" fill="#1d4ed8"/>
<circle cx="342.14" cy="509.01" r="3.2" fill="#1d4ed8"/>
<circle cx="344.77" cy="504.96" r="3.2" fill="#1d4ed8"/>
<circle cx="347.40" cy="504.56" r="3.2" fill="#1d4ed8"/>
<circle cx="350.02" cy="504.15" r="3.2" fill="#1d4ed8"/>
<circle cx="352.65" cy="504.56" r="3.2" fill="#1d4ed8"/>
<circle cx="355.28" cy="503.75" r="3.2" fill="#1d4ed8"/>
<circle cx="357.90" cy="503.75" r="3.2" fill="#1d4ed8"/>
<circle cx="360.53" cy="503.35" r="3.2" fill="#1d4ed8"/>
<circle cx="363.16" cy="499.30" r="3.2" fill="#1d4ed8"/>
<circle cx="365.78" cy="496.47" r="3.2" fill="#1d4ed8"/>
<circle cx="368.41" cy="490.00" r="3.2" fill="#1d4ed8"/>
<circle cx="371.04" cy="484.34" r="3.2" fill="#1d4ed8"/>
<circle cx="373.66" cy="481.10" r="3.2" fill="#1d4ed8"/>
<circle cx="376.29" cy="480.29" r="3.2" fill="#1d4ed8"/>
<circle cx="378.92" cy="480.70" r="3.2" fill="#1d4ed8"/>
<circle cx="381.54" cy="460.88" r="3.2" fill="#1d4ed8"/>
<circle cx="384.17" cy="459.26" r="3.2" fill="#1d4ed8"/>
<circle cx="386.80" cy="458.05" r="3.2" fill="#1d4ed8"/>
<circle cx="389.42" cy="456.03" r="3.2" fill="#1d4ed8"/>
<circle cx="392.05" cy="456.03" r="3.2" fill="#1d4ed8"/>
<circle cx="394.67" cy="454.41" r="3.2" fill="#1d4ed8"/>
<circle cx="397.30" cy="450.77" r="3.2" fill="#1d4ed8"/>
<circle cx="399.93" cy="444.30" r="3.2" fill="#1d4ed8"/>
<circle cx="402.55" cy="443.90" r="3.2" fill="#1d4ed8"/>
<circle cx="405.18" cy="600.00" r="3.2" fill="#1d4ed8"/>
<circle cx="407.81" cy="441.88" r="3.2" fill="#1d4ed8"/>
<circle cx="410.43" cy="440.66" r="3.2" fill="#1d4ed8"/>
<circle cx="413.06" cy="439.45" r="3.2" fill="#1d4ed8"/>
<circle cx="415.69" cy="439.04" r="3.2" fill="#1d4ed8"/>
<circle cx="418.31" cy="438.64" r="3.2" fill="#1d4ed8"/>
<circle cx="420.94" cy="437.83" r="3.2" fill="#1d4ed8"/>
<circle cx="423.57" cy="436.62" r="3.2" fill="#1d4ed8"/>
<circle cx="426.19" cy="436.62" r="3.2" fill="#1d4ed8"/>
<circle cx="428.82" cy="434.60" r="3.2" fill="#1d4ed8"/>
<circle cx="431.45" cy="432.17" r="3.2" fill="#1d4ed8"/>
<circle cx="434.07" cy="429.34" r="3.2" fill="#1d4ed8"/>
<circle cx="436.70" cy="428.93" r="3.2" fill="#1d4ed8"/>
<circle cx="439.33" cy="428.53" r="3.2" fill="#1d4ed8"/>
<circle cx="441.95" cy="427.72" r="3.2" fill="#1d4ed8"/>
<circle cx="444.58" cy="426.91" r="3.2" fill="#1d4ed8"/>
<circle cx="447.20" cy="426.10" r="3.2" fill="#1d4ed8"/>
<circle cx="449.83" cy="426.10" r="3.2" fill="#1d4ed8"/>
<circle cx="452.46" cy="426.10" r="3.2" fill="#1d4ed8"/>
<circle cx="455.08" cy="419.63" r="3.2" fill="#1d4ed8"/>
<circle cx="457.71" cy="419.23" r="3.2" fill="#1d4ed8"/>
<circle cx="460.34" cy="418.42" r="3.2" fill="#1d4ed8"/>
<circle cx="462.96" cy="418.01" r="3.2" fill="#1d4ed8"/>
<circle cx="465.59" cy="417.61" r="3.2" fill="#1d4ed8"/>
<circle cx="468.22" cy="417.61" r="3.2" fill="#1d4ed8"/>
<circle cx="470.84" cy="417.61" r="3.2" fill="#1d4ed8"/>
<circle cx="473.47" cy="417.21" r="3.2" fill="#1d4ed8"/>
<circle cx="476.10" cy="417.21" r="3.2" fill="#1d4ed8"/>
<circle cx="478.72" cy="413.57" r="3.2" fill="#1d4ed8"/>
<circle cx="481.35" cy="411.95" r="3.2" fill="#1d4ed8"/>
<circle cx="483.98" cy="412.76" r="3.2" fill="#1d4ed8"/>
<circle cx="486.60" cy="410.74" r="3.2" fill="#1d4ed8"/>
<circle cx="489.23" cy="410.74" r="3.2" fill="#1d4ed8"/>
<circle cx="491.86" cy="410.33" r="3.2" fill="#1d4ed8"/>
<circle cx="494.48" cy="410.33" r="3.2" fill="#1d4ed8"/>
<circle cx="497.11" cy="410.33" r="3.2" fill="#1d4ed8"/>
<circle cx="499.73" cy="409.93" r="3.2" fill="#1d4ed8"/>
<circle cx="502.36" cy="409.93" r="3.2" fill="#1d4ed8"/>
<circle cx="504.99" cy="409.93" r="3.2" fill="#1d4ed8"/>
<circle cx="507.61" cy="409.52" r="3.2" fill="#1d4ed8"/>
<circle cx="510.24" cy="409.52" r="3.2" fill="#1d4ed8"/>
<circle cx="512.87" cy="409.12" r="3.2" fill="#1d4ed8"/>
<circle cx="515.49" cy="409.52" r="3.2" fill="#1d4ed8"/>
<circle cx="518.12" cy="409.12" r="3.2" fill="#1d4ed8"/>
<circle cx="520.75" cy="407.50" r="3.2" fill="#1d4ed8"/>
<circle cx="523.37" cy="407.10" r="3.2" fill="#1d4ed8"/>
<circle cx="526.00" cy="403.05" r="3.2" fill="#1d4ed8"/>
<circle cx="528.63" cy="399.82" r="3.2" fill="#1d4ed8"/>
<circle cx="531.25" cy="400.22" r="3.2" fill="#1d4ed8"/>
<circle cx="533.88" cy="400.62" r="3.2" fill="#1d4ed8"/>
<circle cx="536.51" cy="400.62" r="3.2" fill="#1d4ed8"/>
<circle cx="539.13" cy="399.41" r="3.2" fill="#1d4ed8"/>
<circle cx="541.76" cy="392.94" r="3.2" fill="#1d4ed8"/>
<circle cx="544.39" cy="391.32" r="3.2" fill="#1d4ed8"/>
<circle cx="547.01" cy="389.30" r="3.2" fill="#1d4ed8"/>
<circle cx="549.64" cy="389.30" r="3.2" fill="#1d4ed8"/>
<circle cx="552.27" cy="388.49" r="3.2" fill="#1d4ed8"/>
<circle cx="554.89" cy="375.15" r="3.2" fill="#1d4ed8"/>
<circle cx="557.52" cy="374.74" r="3.2" fill="#1d4ed8"/>
<circle cx="560.14" cy="374.74" r="3.2" fill="#1d4ed8"/>
<circle cx="562.77" cy="374.74" r="3.2" fill="#1d4ed8"/>
<circle cx="565.40" cy="374.74" r="3.2" fill="#1d4ed8"/>
<circle cx="568.02" cy="374.34" r="3.2" fill="#1d4ed8"/>
<circle cx="570.65" cy="374.34" r="3.2" fill="#1d4ed8"/>
<circle cx="573.28" cy="374.34" r="3.2" fill="#1d4ed8"/>
<circle cx="575.90" cy="374.34" r="3.2" fill="#1d4ed8"/>
<circle cx="578.53" cy="374.34" r="3.2" fill="#1d4ed8"/>
<circle cx="581.16" cy="373.93" r="3.2" fill="#1d4ed8"/>
<circle cx="583.78" cy="373.12" r="3.2" fill="#1d4ed8"/>
<circle cx="586.41" cy="372.72" r="3.2" fill="#1d4ed8"/>
<circle cx="589.04" cy="373.53" r="3.2" fill="#1d4ed8"/>
<circle cx="591.66" cy="435.81" r="3.2" fill="#1d4ed8"/>
<circle cx="594.29" cy="372.32" r="3.2" fill="#1d4ed8"/>
<circle cx="596.92" cy="372.72" r="3.2" fill="#1d4ed8"/>
<circle cx="599.54" cy="371.91" r="3.2" fill="#1d4ed8"/>
<circle cx="602.17" cy="371.91" r="3.2" fill="#1d4ed8"/>
<circle cx="604.80" cy="372.32" r="3.2" fill="#1d4ed8"/>
<circle cx="607.42" cy="371.10" r="3.2" fill="#1d4ed8"/>
<circle cx="610.05" cy="369.89" r="3.2" fill="#1d4ed8"/>
<circle cx="612.67" cy="369.89" r="3.2" fill="#1d4ed8"/>
<circle cx="615.30" cy="369.89" r="3.2" fill="#1d4ed8"/>
<circle cx="617.93" cy="369.49" r="3.2" fill="#1d4ed8"/>
<circle cx="620.55" cy="369.89" r="3.2" fill="#1d4ed8"/>
<circle cx="623.18" cy="369.08" r="3.2" fill="#1d4ed8"/>
<circle cx="625.81" cy="368.68" r="3.2" fill="#1d4ed8"/>
<circle cx="628.43" cy="368.27" r="3.2" fill="#1d4ed8"/>
<circle cx="631.06" cy="367.87" r="3.2" fill="#1d4ed8"/>
<circle cx="633.69" cy="367.06" r="3.2" fill="#1d4ed8"/>
<circle cx="636.31" cy="367.46" r="3.2" fill="#1d4ed8"/>
<circle cx="638.94" cy="367.06" r="3.2" fill="#1d4ed8"/>
<circle cx="641.57" cy="366.25" r="3.2" fill="#1d4ed8"/>
<circle cx="644.19" cy="368.27" r="3.2" fill="#1d4ed8"/>
<circle cx="646.82" cy="368.68" r="3.2" fill="#1d4ed8"/>
<circle cx="649.45" cy="368.68" r="3.2" fill="#1d4ed8"/>
<circle cx="652.07" cy="368.27" r="3.2" fill="#1d4ed8"/>
<circle cx="654.70" cy="369.08" r="3.2" fill="#1d4ed8"/>
<circle cx="657.33" cy="367.87" r="3.2" fill="#1d4ed8"/>
<circle cx="659.95" cy="367.46" r="3.2" fill="#1d4ed8"/>
<circle cx="662.58" cy="367.06" r="3.2" fill="#1d4ed8"/>
<circle cx="665.20" cy="360.18" r="3.2" fill="#1d4ed8"/>
<circle cx="667.83" cy="359.78" r="3.2" fill="#1d4ed8"/>
<circle cx="670.46" cy="359.38" r="3.2" fill="#1d4ed8"/>
<circle cx="673.08" cy="356.95" r="3.2" fill="#1d4ed8"/>
<circle cx="675.71" cy="357.35" r="3.2" fill="#1d4ed8"/>
<circle cx="678.34" cy="357.76" r="3.2" fill="#1d4ed8"/>
<circle cx="680.96" cy="355.33" r="3.2" fill="#1d4ed8"/>
<circle cx="683.59" cy="355.74" r="3.2" fill="#1d4ed8"/>
<circle cx="686.22" cy="357.35" r="3.2" fill="#1d4ed8"/>
<circle cx="688.84" cy="355.33" r="3.2" fill="#1d4ed8"/>
<circle cx="691.47" cy="356.14" r="3.2" fill="#1d4ed8"/>
<circle cx="694.10" cy="355.74" r="3.2" fill="#1d4ed8"/>
<circle cx="696.72" cy="356.14" r="3.2" fill="#1d4ed8"/>
<circle cx="699.35" cy="354.12" r="3.2" fill="#1d4ed8"/>
<circle cx="701.98" cy="354.93" r="3.2" fill="#1d4ed8"/>
<circle cx="704.60" cy="356.14" r="3.2" fill="#1d4ed8"/>
<circle cx="707.23" cy="354.52" r="3.2" fill="#1d4ed8"/>
<circle cx="709.86" cy="353.71" r="3.2" fill="#1d4ed8"/>
<circle cx="712.48" cy="354.12" r="3.2" fill="#1d4ed8"/>
<circle cx="715.11" cy="354.93" r="3.2" fill="#1d4ed8"/>
<circle cx="717.73" cy="352.90" r="3.2" fill="#1d4ed8"/>
<circle cx="720.36" cy="353.71" r="3.2" fill="#1d4ed8"/>
<circle cx="722.99" cy="353.31" r="3.2" fill="#1d4ed8"/>
<circle cx="725.61" cy="353.31" r="3.2" fill="#1d4ed8"/>
<circle cx="728.24" cy="354.52" r="3.2" fill="#1d4ed8"/>
<circle cx="730.87" cy="352.90" r="3.2" fill="#1d4ed8"/>
<circle cx="733.49" cy="352.50" r="3.2" fill="#1d4ed8"/>
<circle cx="736.12" cy="352.50" r="3.2" fill="#1d4ed8"/>
<circle cx="738.75" cy="353.31" r="3.2" fill="#1d4ed8"/>
<circle cx="741.37" cy="352.50" r="3.2" fill="#1d4ed8"/>
<circle cx="744.00" cy="353.71" r="3.2" fill="#1d4ed8"/>
<circle cx="746.63" cy="354.12" r="3.2" fill="#1d4ed8"/>
<circle cx="749.25" cy="352.50" r="3.2" fill="#1d4ed8"/>
<circle cx="751.88" cy="352.90" r="3.2" fill="#1d4ed8"/>
<circle cx="754.51" cy="352.50" r="3.2" fill="#1d4ed8"/>
<circle cx="757.13" cy="352.10" r="3.2" fill="#1d4ed8"/>
<circle cx="759.76" cy="351.69" r="3.2" fill="#1d4ed8"/>
<circle cx="762.39" cy="352.10" r="3.2" fill="#1d4ed8"/>
<circle cx="765.01" cy="354.12" r="3.2" fill="#1d4ed8"/>
<circle cx="767.64" cy="352.50" r="3.2" fill="#1d4ed8"/>
<circle cx="770.27" cy="352.10" r="3.2" fill="#1d4ed8"/>
<circle cx="772.89" cy="352.10" r="3.2" fill="#1d4ed8"/>
<circle cx="775.52" cy="349.67" r="3.2" fill="#1d4ed8"/>
<circle cx="778.14" cy="349.67" r="3.2" fill="#1d4ed8"/>
<circle cx="780.77" cy="350.88" r="3.2" fill="#1d4ed8"/>
<circle cx="783.40" cy="351.29" r="3.2" fill="#1d4ed8"/>
<circle cx="786.02" cy="350.48" r="3.2" fill="#1d4ed8"/>
<circle cx="788.65" cy="352.10" r="3.2" fill="#1d4ed8"/>
<circle cx="791.28" cy="350.48" r="3.2" fill="#1d4ed8"/>
<circle cx="793.90" cy="350.48" r="3.2" fill="#1d4ed8"/>
<circle cx="796.53" cy="350.48" r="3.2" fill="#1d4ed8"/>
<circle cx="799.16" cy="350.07" r="3.2" fill="#1d4ed8"/>
<circle cx="801.78" cy="348.46" r="3.2" fill="#1d4ed8"/>
<circle cx="804.41" cy="351.29" r="3.2" fill="#1d4ed8"/>
<circle cx="807.04" cy="349.67" r="3.2" fill="#1d4ed8"/>
<circle cx="809.66" cy="351.29" r="3.2" fill="#1d4ed8"/>
<circle cx="812.29" cy="349.67" r="3.2" fill="#1d4ed8"/>
<circle cx="814.92" cy="348.86" r="3.2" fill="#1d4ed8"/>
<circle cx="817.54" cy="348.46" r="3.2" fill="#1d4ed8"/>
<circle cx="820.17" cy="348.46" r="3.2" fill="#1d4ed8"/>
<circle cx="822.80" cy="347.24" r="3.2" fill="#1d4ed8"/>
<circle cx="825.42" cy="348.86" r="3.2" fill="#1d4ed8"/>
<circle cx="828.05" cy="346.84" r="3.2" fill="#1d4ed8"/>
<circle cx="830.67" cy="348.46" r="3.2" fill="#1d4ed8"/>
<circle cx="833.30" cy="348.86" r="3.2" fill="#1d4ed8"/>
<circle cx="835.93" cy="346.84" r="3.2" fill="#1d4ed8"/>
<circle cx="838.55" cy="349.26" r="3.2" fill="#1d4ed8"/>
<circle cx="841.18" cy="348.05" r="3.2" fill="#1d4ed8"/>
<circle cx="843.81" cy="349.26" r="3.2" fill="#1d4ed8"/>
<circle cx="846.43" cy="349.26" r="3.2" fill="#1d4ed8"/>
<circle cx="849.06" cy="350.48" r="3.2" fill="#1d4ed8"/>
<circle cx="851.69" cy="352.90" r="3.2" fill="#1d4ed8"/>
<circle cx="854.31" cy="349.67" r="3.2" fill="#1d4ed8"/>
<circle cx="856.94" cy="348.46" r="3.2" fill="#1d4ed8"/>
<circle cx="859.57" cy="345.62" r="3.2" fill="#1d4ed8"/>
<circle cx="862.19" cy="344.82" r="3.2" fill="#1d4ed8"/>
<circle cx="864.82" cy="344.41" r="3.2" fill="#1d4ed8"/>
<circle cx="867.45" cy="342.39" r="3.2" fill="#1d4ed8"/>
<circle cx="870.07" cy="341.18" r="3.2" fill="#1d4ed8"/>
<circle cx="872.70" cy="341.58" r="3.2" fill="#1d4ed8"/>
<circle cx="875.33" cy="339.15" r="3.2" fill="#1d4ed8"/>
<circle cx="877.95" cy="338.35" r="3.2" fill="#1d4ed8"/>
<circle cx="880.58" cy="337.54" r="3.2" fill="#1d4ed8"/>
<circle cx="883.20" cy="336.73" r="3.2" fill="#1d4ed8"/>
<circle cx="885.83" cy="335.92" r="3.2" fill="#1d4ed8"/>
<circle cx="888.46" cy="337.54" r="3.2" fill="#1d4ed8"/>
<circle cx="891.08" cy="338.35" r="3.2" fill="#1d4ed8"/>
<circle cx="893.71" cy="337.54" r="3.2" fill="#1d4ed8"/>
<circle cx="896.34" cy="337.54" r="3.2" fill="#1d4ed8"/>
<circle cx="898.96" cy="337.54" r="3.2" fill="#1d4ed8"/>
<circle cx="901.59" cy="333.09" r="3.2" fill="#1d4ed8"/>
<circle cx="904.22" cy="333.90" r="3.2" fill="#1d4ed8"/>
<circle cx="906.84" cy="335.92" r="3.2" fill="#1d4ed8"/>
<circle cx="909.47" cy="336.73" r="3.2" fill="#1d4ed8"/>
<circle cx="912.10" cy="335.51" r="3.2" fill="#1d4ed8"/>
<circle cx="914.72" cy="332.28" r="3.2" fill="#1d4ed8"/>
<circle cx="917.35" cy="331.47" r="3.2" fill="#1d4ed8"/>
<circle cx="919.98" cy="331.07" r="3.2" fill="#1d4ed8"/>
<circle cx="922.60" cy="331.47" r="3.2" fill="#1d4ed8"/>
<circle cx="925.23" cy="331.07" r="3.2" fill="#1d4ed8"/>
<circle cx="927.86" cy="331.07" r="3.2" fill="#1d4ed8"/>
<circle cx="930.48" cy="331.07" r="3.2" fill="#1d4ed8"/>
<circle cx="933.11" cy="331.07" r="3.2" fill="#1d4ed8"/>
<circle cx="935.73" cy="331.07" r="3.2" fill="#1d4ed8"/>
<circle cx="938.36" cy="331.07" r="3.2" fill="#1d4ed8"/>
<circle cx="940.99" cy="331.07" r="3.2" fill="#1d4ed8"/>
<circle cx="943.61" cy="331.07" r="3.2" fill="#1d4ed8"/>
<circle cx="946.24" cy="331.07" r="3.2" fill="#1d4ed8"/>
<circle cx="948.87" cy="331.07" r="3.2" fill="#1d4ed8"/>
<circle cx="951.49" cy="331.47" r="3.2" fill="#1d4ed8"/>
<circle cx="954.12" cy="331.88" r="3.2" fill="#1d4ed8"/>
<circle cx="956.75" cy="331.07" r="3.2" fill="#1d4ed8"/>
<circle cx="959.37" cy="331.47" r="3.2" fill="#1d4ed8"/>
<circle cx="962.00" cy="331.07" r="3.2" fill="#1d4ed8"/>
<circle cx="964.63" cy="331.47" r="3.2" fill="#1d4ed8"/>
<circle cx="967.25" cy="331.07" r="3.2" fill="#1d4ed8"/>
<circle cx="969.88" cy="324.19" r="3.2" fill="#1d4ed8"/>
<circle cx="972.51" cy="324.19" r="3.2" fill="#1d4ed8"/>
<circle cx="975.13" cy="318.93" r="3.2" fill="#1d4ed8"/>
<circle cx="977.76" cy="316.51" r="3.2" fill="#1d4ed8"/>
<circle cx="980.39" cy="310.44" r="3.2" fill="#1d4ed8"/>
<circle cx="983.01" cy="308.01" r="3.2" fill="#1d4ed8"/>
<circle cx="985.64" cy="600.00" r="3.2" fill="#1d4ed8"/>
<circle cx="988.27" cy="301.54" r="3.2" fill="#1d4ed8"/>
<circle cx="990.89" cy="290.22" r="3.2" fill="#1d4ed8"/>
<circle cx="993.52" cy="287.79" r="3.2" fill="#1d4ed8"/>
<circle cx="996.14" cy="286.18" r="3.2" fill="#1d4ed8"/>
<circle cx="998.77" cy="285.77" r="3.2" fill="#1d4ed8"/>
<circle cx="1001.40" cy="285.77" r="3.2" fill="#1d4ed8"/>
<circle cx="1004.02" cy="285.77" r="3.2" fill="#1d4ed8"/>
<circle cx="1006.65" cy="286.18" r="3.2" fill="#1d4ed8"/>
<circle cx="1009.28" cy="285.77" r="3.2" fill="#1d4ed8"/>
<circle cx="1011.90" cy="285.77" r="3.2" fill="#1d4ed8"/>
<circle cx="1014.53" cy="285.77" r="3.2" fill="#1d4ed8"/>
<circle cx="1017.16" cy="283.35" r="3.2" fill="#1d4ed8"/>
<circle cx="1019.78" cy="282.94" r="3.2" fill="#1d4ed8"/>
<circle cx="1022.41" cy="282.94" r="3.2" fill="#1d4ed8"/>
<circle cx="1025.04" cy="283.35" r="3.2" fill="#1d4ed8"/>
<circle cx="1027.66" cy="282.94" r="3.2" fill="#1d4ed8"/>
<circle cx="1030.29" cy="282.94" r="3.2" fill="#1d4ed8"/>
<circle cx="1032.92" cy="283.75" r="3.2" fill="#1d4ed8"/>
<circle cx="1035.54" cy="282.13" r="3.2" fill="#1d4ed8"/>
<circle cx="1038.17" cy="282.13" r="3.2" fill="#1d4ed8"/>
<circle cx="1040.80" cy="282.54" r="3.2" fill="#1d4ed8"/>
<circle cx="1043.42" cy="282.13" r="3.2" fill="#1d4ed8"/>
<circle cx="1046.05" cy="282.54" r="3.2" fill="#1d4ed8"/>
<circle cx="1048.67" cy="282.94" r="3.2" fill="#1d4ed8"/>
<circle cx="1051.30" cy="281.73" r="3.2" fill="#1d4ed8"/>
<circle cx="1053.93" cy="282.54" r="3.2" fill="#1d4ed8"/>
<circle cx="1056.55" cy="281.73" r="3.2" fill="#1d4ed8"/>
<circle cx="1059.18" cy="282.54" r="3.2" fill="#1d4ed8"/>
<circle cx="1061.81" cy="282.13" r="3.2" fill="#1d4ed8"/>
<circle cx="1064.43" cy="282.13" r="3.2" fill="#1d4ed8"/>
<circle cx="1067.06" cy="281.73" r="3.2" fill="#1d4ed8"/>
<circle cx="1069.69" cy="281.73" r="3.2" fill="#1d4ed8"/>
<circle cx="1072.31" cy="281.32" r="3.2" fill="#1d4ed8"/>
<circle cx="1074.94" cy="281.73" r="3.2" fill="#1d4ed8"/>
<circle cx="1077.57" cy="282.13" r="3.2" fill="#1d4ed8"/>
<circle cx="1080.19" cy="281.32" r="3.2" fill="#1d4ed8"/>
<circle cx="1082.82" cy="281.32" r="3.2" fill="#1d4ed8"/>
<circle cx="1085.45" cy="282.54" r="3.2" fill="#1d4ed8"/>
<circle cx="1088.07" cy="282.13" r="3.2" fill="#1d4ed8"/>
<circle cx="1090.70" cy="281.32" r="3.2" fill="#1d4ed8"/>
<circle cx="1093.33" cy="281.32" r="3.2" fill="#1d4ed8"/>
<circle cx="1095.95" cy="281.32" r="3.2" fill="#1d4ed8"/>
<circle cx="1098.58" cy="282.54" r="3.2" fill="#1d4ed8"/>
<circle cx="1101.20" cy="282.13" r="3.2" fill="#1d4ed8"/>
<circle cx="1103.83" cy="281.32" r="3.2" fill="#1d4ed8"/>
<circle cx="1106.46" cy="282.13" r="3.2" fill="#1d4ed8"/>
<circle cx="1109.08" cy="281.73" r="3.2" fill="#1d4ed8"/>
<circle cx="1111.71" cy="282.13" r="3.2" fill="#1d4ed8"/>
<circle cx="1114.34" cy="280.11" r="3.2" fill="#1d4ed8"/>
<circle cx="1116.96" cy="280.11" r="3.2" fill="#1d4ed8"/>
<circle cx="1119.59" cy="280.51" r="3.2" fill="#1d4ed8"/>
<circle cx="1122.22" cy="279.71" r="3.2" fill="#1d4ed8"/>
<circle cx="1124.84" cy="280.11" r="3.2" fill="#1d4ed8"/>
<circle cx="1127.47" cy="280.51" r="3.2" fill="#1d4ed8"/>
<circle cx="1130.10" cy="279.71" r="3.2" fill="#1d4ed8"/>
<circle cx="1132.72" cy="280.11" r="3.2" fill="#1d4ed8"/>
<circle cx="1135.35" cy="280.11" r="3.2" fill="#1d4ed8"/>
<circle cx="1137.98" cy="279.30" r="3.2" fill="#1d4ed8"/>
<circle cx="1140.60" cy="278.90" r="3.2" fill="#1d4ed8"/>
<circle cx="1143.23" cy="278.90" r="3.2" fill="#1d4ed8"/>
<circle cx="1145.86" cy="280.51" r="3.2" fill="#1d4ed8"/>
<circle cx="1148.48" cy="279.30" r="3.2" fill="#1d4ed8"/>
<circle cx="1151.11" cy="278.09" r="3.2" fill="#1d4ed8"/>
<circle cx="1153.73" cy="278.49" r="3.2" fill="#1d4ed8"/>
<circle cx="1156.36" cy="278.49" r="3.2" fill="#1d4ed8"/>
<circle cx="1158.99" cy="277.28" r="3.2" fill="#1d4ed8"/>
<circle cx="1161.61" cy="277.68" r="3.2" fill="#1d4ed8"/>
<circle cx="1164.24" cy="277.68" r="3.2" fill="#1d4ed8"/>
<circle cx="1166.87" cy="278.09" r="3.2" fill="#1d4ed8"/>
<circle cx="1169.49" cy="277.28" r="3.2" fill="#1d4ed8"/>
<circle cx="1172.12" cy="600.00" r="3.2" fill="#1d4ed8"/>
<circle cx="1174.75" cy="278.90" r="3.2" fill="#1d4ed8"/>
<circle cx="1177.37" cy="279.30" r="3.2" fill="#1d4ed8"/>
<circle cx="1180.00" cy="278.90" r="3.2" fill="#1d4ed8"/>
<text x="635" y="695" text-anchor="middle" font-size="14" fill="#111" font-family="sans-serif">Date</text>
<text x="24" y="325" text-anchor="middle" font-size="14" fill="#111" transform="rotate(-90 24,325)" font-family="sans-serif">Passed files</text>
</svg>
